<svg xmlns="http://www.w3.org/2000/svg" width="61" height="60" viewBox="0 0 61 60" fill="none">
									<path d="M20.5 41.875C20.02 41.875 19.5399 41.6926 19.1749 41.3251C18.4424 40.5926 18.4424 39.405 19.1749 38.6725L39.1749 18.6725C39.9074 17.94 41.095 17.94 41.8275 18.6725C42.56 19.405 42.56 20.5926 41.8275 21.3251L21.8275 41.3251C21.46 41.6926 20.98 41.875 20.5 41.875ZM42.375 36.875C42.375 34.1175 40.1325 31.875 37.375 31.875C34.6175 31.875 32.375 34.1175 32.375 36.875C32.375 39.6325 34.6175 41.875 37.375 41.875C40.1325 41.875 42.375 39.6325 42.375 36.875ZM38.625 36.875C38.625 37.565 38.065 38.125 37.375 38.125C36.685 38.125 36.125 37.565 36.125 36.875C36.125 36.185 36.685 35.625 37.375 35.625C38.065 35.625 38.625 36.185 38.625 36.875ZM28.625 23.125C28.625 20.3675 26.3825 18.125 23.625 18.125C20.8675 18.125 18.625 20.3675 18.625 23.125C18.625 25.8825 20.8675 28.125 23.625 28.125C26.3825 28.125 28.625 25.8825 28.625 23.125ZM24.875 23.125C24.875 23.815 24.315 24.375 23.625 24.375C22.935 24.375 22.375 23.815 22.375 23.125C22.375 22.435 22.935 21.875 23.625 21.875C24.315 21.875 24.875 22.435 24.875 23.125ZM57.375 30C57.375 15.18 45.32 3.125 30.5 3.125C15.68 3.125 3.625 15.18 3.625 30C3.625 44.82 15.68 56.875 30.5 56.875C45.32 56.875 57.375 44.82 57.375 30ZM53.625 30C53.625 42.7525 43.2525 53.125 30.5 53.125C17.7475 53.125 7.375 42.7525 7.375 30C7.375 17.2475 17.7475 6.875 30.5 6.875C43.2525 6.875 53.625 17.2475 53.625 30Z" fill="#595C6D"></path>
								</svg>