<svg width="20" height="20" viewBox="0 0 20 20" fill="none" xmlns="http://www.w3.org/2000/svg">
<path d="M10.8307 12.9166L8.7474 15.4166C9.41406 16.8333 6.8224 14.325 6.48906 14.0083C6.3974 13.9166 6.30573 13.8333 6.21406 13.7416C5.35573 12.875 4.58073 11.9666 3.88906 11.0166C3.20573 10.0666 2.65573 9.11663 2.25573 8.17496C1.86406 7.22496 1.66406 6.31663 1.66406 5.44996C1.66406 4.88329 1.76406 4.34163 1.96406 3.84163C2.16406 3.33329 2.48073 2.86663 2.9224 2.44996C3.45573 1.92496 4.03906 1.66663 4.65573 1.66663C4.88906 1.66663 5.1224 1.71663 5.33073 1.81663C5.5474 1.91663 5.73906 2.06663 5.88906 2.28329L7.8224 5.00829C7.9724 5.21663 8.08073 5.40829 8.15573 5.59163C8.23073 5.76663 8.2724 5.94163 8.2724 6.09996C8.2724 6.29996 8.21406 6.49996 8.0974 6.69163C7.98906 6.88329 7.83073 7.08329 7.63073 7.28329L6.9974 7.94163C6.90573 8.03329 6.86406 8.14163 6.86406 8.27496C6.86406 8.34163 6.8724 8.39996 6.88906 8.46663C6.91406 8.53329 6.93906 8.58329 6.95573 8.63329C7.10573 8.90829 7.36406 9.26663 7.73073 9.69996C8.10573 10.1333 8.50573 10.575 8.93906 11.0166C9.0224 11.1 9.11406 11.1833 9.1974 11.2666C9.53073 11.5916 11.6641 13.3333 10.8307 12.9166Z" fill="white"/>
<path d="M18.3083 15.275C18.3083 15.5083 18.2667 15.75 18.1833 15.9833C18.1583 16.05 18.1333 16.1167 18.1 16.1833C17.9583 16.4833 17.775 16.7667 17.5333 17.0333C17.125 17.4833 16.675 17.8083 16.1667 18.0167C16.1583 18.0167 16.15 18.025 16.1417 18.025C15.65 18.225 15.1167 18.3333 14.5417 18.3333C13.6917 18.3333 12.7833 18.1333 11.825 17.725C10.8667 17.3167 9.90833 16.7667 8.95833 16.075C8.63333 15.8333 8.30833 15.5917 8 15.3333L10.725 12.6083C10.9583 12.7833 11.1667 12.9167 11.3417 13.0083C11.3833 13.025 11.4333 13.05 11.4917 13.075C11.5583 13.1 11.625 13.1083 11.7 13.1083C11.8417 13.1083 11.95 13.0583 12.0417 12.9667L12.675 12.3417C12.8833 12.1333 13.0833 11.975 13.275 11.875C13.4667 11.7583 13.6583 11.7 13.8667 11.7C14.025 11.7 14.1917 11.7333 14.375 11.8083C14.5583 11.8833 14.75 11.9917 14.9583 12.1333L17.7167 14.0917C17.9333 14.2417 18.0833 14.4167 18.175 14.625C18.2583 14.8333 18.3083 15.0417 18.3083 15.275Z" fill="white"/>
</svg>
