<svg width="24" height="26" viewBox="0 0 24 26" fill="none" xmlns="http://www.w3.org/2000/svg">
<path d="M23.1869 4.74139L22.5122 4.46291C22.3616 4.39884 22.2115 4.33374 22.0603 4.27071C21.7188 4.12811 21.3772 3.9862 21.0357 3.84498C20.7385 3.71995 20.4412 3.59492 20.1437 3.46989C19.8763 3.35829 19.6085 3.24738 19.3404 3.13716C19.2497 3.10926 19.1672 3.06121 19.0801 3.02504L18.5253 2.79306L17.3864 2.3198C17.3146 2.29035 17.2424 2.26194 17.1712 2.23094C16.8126 2.07336 16.4473 1.92094 16.083 1.77524C15.9411 1.71479 15.7992 1.65434 15.6567 1.59493L14.4272 1.08137C14.338 1.0514 14.2545 1.008 14.1679 0.971321C13.8165 0.822523 13.4643 0.675274 13.1115 0.529576C13.0616 0.502403 13.0079 0.483065 12.9522 0.472228C12.9338 0.459744 12.9146 0.448524 12.8948 0.438645C12.694 0.353913 12.4916 0.271247 12.2907 0.185998C12.1468 0.124515 11.9987 0.071299 11.8589 0H11.822C11.8133 0.0175664 11.7953 0.0175676 11.781 0.0237675L7.19257 1.86049L0.639384 4.48357C0.426768 4.56882 0.213128 4.65097 0 4.73415V4.74655L0.588152 4.98886L1.26545 5.27044C1.27979 5.27768 1.29363 5.28646 1.30848 5.29266C1.54347 5.39186 1.77914 5.49071 2.0155 5.58922L2.74044 5.88889C2.76187 5.90047 2.78394 5.91082 2.80653 5.91989C2.83368 5.92919 2.83676 5.94262 2.83215 5.97155C2.76298 6.41278 2.77323 6.85762 2.76452 7.30195C2.75189 7.41001 2.74488 7.51865 2.74352 7.62745C2.72056 7.98754 2.66203 8.34442 2.56881 8.6928C2.56589 8.7086 2.55823 8.72311 2.54687 8.73438C2.53551 8.74566 2.52099 8.75314 2.50528 8.75583C2.3537 8.79856 2.21907 8.88784 2.1201 9.01126C2.02113 9.13468 1.96272 9.28611 1.95299 9.44454C1.91559 9.64603 1.98988 9.93536 2.182 10.0511C2.19027 10.0545 2.19773 10.0596 2.2039 10.0661C2.21006 10.0727 2.2148 10.0804 2.2178 10.0889C2.2208 10.0974 2.22199 10.1064 2.22129 10.1154C2.2206 10.1244 2.21803 10.1331 2.21377 10.141C2.19123 10.2087 2.1779 10.2789 2.16253 10.3477C2.1569 10.3632 2.14973 10.3781 2.14512 10.3936C2.0406 10.7725 1.93643 11.1514 1.8326 11.5303C1.79007 11.6853 1.7496 11.8403 1.70861 11.9953C1.66968 12.1293 1.63108 12.2634 1.59283 12.3978C1.57233 12.468 1.57285 12.4685 1.64406 12.4737C1.68095 12.4763 1.71732 12.4789 1.75421 12.4794C1.98527 12.4846 2.2153 12.4846 2.44739 12.4902C2.86442 12.5011 3.28197 12.5016 3.69901 12.5088C3.75024 12.5088 3.7528 12.4923 3.74409 12.4479C3.69849 12.2216 3.65854 11.9948 3.61243 11.769C3.58066 11.614 3.56119 11.459 3.51764 11.304C3.51868 11.2916 3.51868 11.2792 3.51764 11.2668C3.44694 10.901 3.37675 10.5347 3.304 10.1689C3.29905 10.1525 3.29904 10.135 3.30396 10.1187C3.30889 10.1023 3.31853 10.0878 3.33167 10.0769C3.40538 10.0142 3.46154 9.9332 3.49459 9.84185C3.51449 9.80194 3.5316 9.76068 3.54582 9.71837C3.61601 9.43162 3.53096 9.18879 3.33628 8.97748C3.32142 8.96146 3.29837 8.95164 3.29837 8.92581C3.35802 8.7162 3.40001 8.50189 3.42389 8.28515C3.45734 7.96359 3.46933 7.64012 3.45975 7.31693C3.45975 7.21877 3.45975 7.1206 3.45463 7.02295C3.45577 7.00001 3.45352 6.97703 3.44797 6.95475C3.44797 6.74809 3.45207 6.53884 3.47307 6.33166C3.48639 6.2025 3.48434 6.20301 3.60115 6.25055L4.38245 6.57088L5.18322 6.90567C5.18322 6.95734 5.18322 7.009 5.18322 7.06067C5.18117 7.4151 5.17912 7.76935 5.17707 8.12344C5.17707 8.3952 5.1752 8.66679 5.17144 8.93821C5.17144 9.31744 5.16785 9.69615 5.17144 10.0749C5.17714 10.167 5.15594 10.2588 5.11047 10.3389C5.08639 10.3931 5.05924 10.4463 5.03926 10.5011C4.9558 10.694 4.88461 10.8922 4.82613 11.0942C4.75282 11.3042 4.69511 11.5194 4.65347 11.738C4.58367 12.0225 4.53842 12.3126 4.51822 12.6049C4.50815 12.6285 4.50478 12.6545 4.50849 12.6799L4.50541 12.7522C4.49571 12.7807 4.49256 12.8111 4.49619 12.8411C4.49619 12.8741 4.49619 12.9072 4.49363 12.9403C4.48629 12.9527 4.48356 12.9673 4.48594 12.9816C4.46797 13.4236 4.48803 13.8663 4.54589 14.3048C4.55767 14.436 4.58124 14.5657 4.6048 14.6953C4.64354 14.9184 4.69364 15.1393 4.75492 15.3572C4.77029 15.4151 4.78412 15.4729 4.80102 15.5298C4.87276 15.783 4.95933 16.0318 5.06026 16.2748C5.1993 16.6173 5.36567 16.9478 5.55773 17.2631C5.57003 17.2869 5.5813 17.3107 5.59513 17.3339L5.89741 17.8459C5.95376 17.9379 6.00653 18.0325 6.0716 18.1187C6.09596 18.1742 6.1273 18.2263 6.16484 18.2737C6.2837 18.4628 6.4 18.6535 6.52911 18.8359C6.73968 19.1769 6.96612 19.5075 7.19104 19.8392L7.88114 20.8555C7.99693 21.0244 8.11118 21.1944 8.2285 21.3618C8.30791 21.4744 8.37912 21.5933 8.46878 21.6982C8.47138 21.7081 8.47516 21.7176 8.48005 21.7266C8.644 21.9611 8.80828 22.1955 8.97291 22.4297L9.20653 22.7625C9.37731 23.0063 9.54928 23.2505 9.72245 23.4951C9.84438 23.6692 9.96478 23.8449 10.0883 24.018C10.1825 24.1497 10.2691 24.2876 10.3731 24.4127C10.3747 24.4206 10.3774 24.4283 10.3813 24.4354C10.5114 24.6204 10.6375 24.8069 10.7727 24.9898C10.8573 25.1066 10.9321 25.2306 11.0248 25.3411C11.1155 25.476 11.201 25.6144 11.2979 25.7441C11.3947 25.8738 11.5069 25.9771 11.677 25.9895C11.6877 25.9964 11.7001 26 11.7128 26C11.7255 26 11.738 25.9964 11.7487 25.9895C11.9367 25.9632 12.071 25.8459 12.175 25.7023C12.4511 25.322 12.717 24.934 12.9865 24.5486C13.089 24.4029 13.1914 24.2573 13.2939 24.112C13.589 23.6921 13.8837 23.2717 14.1782 22.8508C14.3467 22.6095 14.5163 22.3683 14.6849 22.1275C14.8211 21.9317 14.9559 21.7348 15.0916 21.5385C15.2126 21.3644 15.335 21.1908 15.4549 21.0156C15.6086 20.7899 15.7623 20.563 15.916 20.3362C15.9488 20.2897 15.9826 20.2438 16.0138 20.1962C16.27 19.8118 16.5262 19.4285 16.7823 19.0425C16.9104 18.8477 17.0411 18.655 17.1584 18.453C17.1646 18.448 17.1703 18.4423 17.1753 18.436C17.3461 18.1604 17.5168 17.884 17.6876 17.6067C17.8034 17.4171 17.9166 17.2254 18.0191 17.027C18.0462 16.9795 18.0749 16.9325 18.1011 16.8839C18.4033 16.3165 18.6273 15.7102 18.7671 15.0818C18.8322 14.8076 18.8822 14.5298 18.9167 14.25C18.9433 14.0485 18.9587 13.846 18.9679 13.6429C18.9766 13.614 18.9643 13.5825 18.9761 13.5535C18.9761 13.3906 18.9761 13.2282 18.9761 13.0663C18.9736 13.0606 18.9695 13.0596 18.9659 13.0617C18.973 13.0337 18.973 13.0044 18.9659 12.9764C18.9659 12.9392 18.9659 12.902 18.9659 12.8648C18.951 12.8328 18.9659 12.7982 18.9566 12.7656L18.9536 12.6912C18.9392 12.668 18.9536 12.6396 18.9444 12.6168L18.9408 12.5553C18.928 12.5362 18.9408 12.513 18.9315 12.4928C18.9116 12.4117 18.9177 12.3259 18.8921 12.2453C18.8802 12.1149 18.8595 11.9854 18.8301 11.8579C18.7767 11.5772 18.7029 11.3009 18.6093 11.0312C18.5437 10.8504 18.493 10.6628 18.4074 10.4897C18.3581 10.3838 18.3403 10.2657 18.3562 10.1498C18.3659 10.079 18.3511 10.0067 18.3639 9.93588V9.52255C18.3639 9.4559 18.3675 9.38925 18.3695 9.32261C18.3736 9.29196 18.3747 9.26098 18.3726 9.23012C18.3762 9.12369 18.3659 9.01726 18.3782 8.91083V8.34509C18.3803 8.22488 18.3822 8.10432 18.3839 7.98342C18.3901 7.87807 18.3889 7.77241 18.3803 7.66723C18.3846 7.66083 18.3869 7.65327 18.3869 7.64553C18.3905 7.51481 18.3787 7.38358 18.3926 7.25287C18.3926 7.1888 18.3926 7.12474 18.3926 7.06067C18.3905 7.04785 18.3934 7.03472 18.4005 7.02391C18.4076 7.01309 18.4185 7.00537 18.431 7.00229C18.8272 6.84694 19.2227 6.68954 19.6176 6.53006C19.9731 6.38746 20.3276 6.2428 20.6832 6.10072C21.1766 5.90387 21.6705 5.70909 22.1638 5.51276C22.5973 5.34019 23.0302 5.16815 23.4626 4.993C23.5173 4.97717 23.5692 4.95257 23.6163 4.92015C23.4621 4.85712 23.3248 4.79822 23.1869 4.74139ZM11.3645 23.9446C11.1754 23.6558 10.9736 23.3763 10.7743 23.0947C10.7635 23.0802 10.7553 23.059 10.7307 23.0642C10.7203 23.0218 10.6995 22.9827 10.6703 22.9505C10.4622 22.6553 10.2537 22.3607 10.0447 22.0665C10.0309 22.0469 10.0186 22.0221 9.98988 22.0185C9.98853 22.0043 9.9832 21.9909 9.97451 21.9797C9.82082 21.7524 9.66302 21.5308 9.50522 21.3081C9.49344 21.2915 9.48319 21.2709 9.46116 21.2657C9.45933 21.2467 9.45183 21.2287 9.43964 21.214C9.26596 20.9707 9.10355 20.7196 8.93192 20.4752C8.92117 20.4602 8.91553 20.4349 8.88991 20.4375C8.83724 20.3348 8.77605 20.2368 8.70701 20.1446C8.55331 19.9084 8.39091 19.6796 8.23516 19.4445C8.22235 19.4259 8.21108 19.4031 8.18393 19.4037C8.17965 19.3703 8.16596 19.3389 8.14448 19.3132C7.95901 19.0317 7.76997 18.7527 7.58706 18.4695C7.57426 18.4494 7.56196 18.4277 7.53583 18.422C7.53576 18.4112 7.53236 18.4008 7.5261 18.392C7.3934 18.1797 7.26993 17.9617 7.12648 17.756C7.11521 17.74 7.10599 17.7194 7.08088 17.7204H7.07781C7.08549 17.7002 7.07166 17.6853 7.06193 17.6687C6.8944 17.4161 6.74429 17.1521 6.58546 16.8937C6.57368 16.8751 6.56497 16.8509 6.5373 16.8503C6.54653 16.8183 6.52501 16.7987 6.51118 16.7723C6.35486 16.5049 6.21342 16.2289 6.08748 15.9457C6.07826 15.925 6.07109 15.9028 6.04906 15.894C6.05103 15.8801 6.04907 15.866 6.04342 15.8532C5.94095 15.5768 5.84925 15.2978 5.77496 15.0126C5.76932 14.9924 5.76932 14.9666 5.74217 14.9609C5.74401 14.958 5.74556 14.9549 5.74678 14.9516C5.74814 14.9372 5.74692 14.9227 5.7432 14.9087C5.676 14.6061 5.62588 14.3 5.59308 13.9917C5.59319 13.9666 5.58427 13.9424 5.56798 13.9235C5.57289 13.9179 5.57655 13.9114 5.57874 13.9043C5.57874 13.7953 5.56183 13.6873 5.56183 13.5783C5.55295 13.3133 5.55996 13.0479 5.58284 12.7837C5.59802 12.7217 5.60047 12.6571 5.59001 12.5941C5.58675 12.5891 5.58279 12.5845 5.57823 12.5807C5.58629 12.573 5.59268 12.5637 5.597 12.5533C5.60132 12.543 5.60348 12.5319 5.60333 12.5207C5.60794 12.4649 5.62229 12.4112 5.631 12.3564C5.68475 12.0148 5.76737 11.6784 5.87794 11.351C5.8905 11.3273 5.89517 11.3001 5.89126 11.2735C5.88869 11.2715 5.88595 11.2698 5.88306 11.2683C5.91482 11.2565 5.91892 11.2249 5.92815 11.1991C5.99833 11.0033 6.08184 10.8137 6.17099 10.6256C6.17688 10.6174 6.18098 10.6079 6.18301 10.598C6.18504 10.588 6.18496 10.5777 6.18277 10.5678L6.18995 10.5636C6.21576 10.532 6.23761 10.4973 6.25501 10.4603C6.34262 10.2846 6.45021 10.1208 6.55216 9.95396C6.56874 9.92607 6.59102 9.90205 6.61752 9.88352C6.64403 9.86499 6.67414 9.85237 6.70586 9.8465C7.07166 9.7628 7.43951 9.6915 7.80839 9.62588C8.29066 9.54115 8.77498 9.47226 9.26135 9.41922C9.4422 9.39907 9.62357 9.38357 9.80493 9.36755C9.99603 9.35102 10.1882 9.34017 10.3798 9.32467C10.417 9.31591 10.4555 9.31381 10.4935 9.31847C10.5325 9.31993 10.5716 9.31803 10.6103 9.31279C10.6542 9.30452 10.6989 9.3014 10.7435 9.30349C10.7535 9.30285 10.7634 9.30058 10.7727 9.29677L10.7804 9.29264C10.8049 9.3057 10.8328 9.31075 10.8603 9.30711C10.993 9.31331 11.1257 9.29574 11.2584 9.29574C11.8491 9.29574 12.4398 9.28902 13.03 9.32984C13.2949 9.34844 13.5598 9.36652 13.8247 9.38977C13.9276 9.40545 14.0315 9.4134 14.1356 9.41354L14.1541 9.40527C14.1618 9.4311 14.1864 9.42645 14.2053 9.42904L14.3513 9.44557C14.9426 9.51687 15.5297 9.61038 16.1132 9.73542C16.1449 9.74379 16.1774 9.74881 16.2101 9.7504H16.2213C16.2331 9.76745 16.2557 9.76486 16.2726 9.76952C16.4396 9.8093 16.6071 9.84857 16.7741 9.88886C16.8 9.89429 16.8245 9.90515 16.8459 9.92072C16.8674 9.9363 16.8853 9.95625 16.8986 9.97928C16.9591 10.0774 17.0206 10.1751 17.0785 10.2743C17.0864 10.2957 17.1012 10.3139 17.1205 10.326C17.1123 10.3446 17.1266 10.3595 17.1338 10.375C17.165 10.4401 17.2029 10.5011 17.2363 10.5652C17.3677 10.8241 17.4808 11.092 17.5749 11.367C17.5846 11.3949 17.5872 11.428 17.6159 11.4456C17.608 11.4738 17.6109 11.5041 17.6241 11.5303C17.6902 11.7452 17.7383 11.9643 17.7829 12.1849C17.8147 12.3399 17.8254 12.5032 17.8577 12.6607C17.8602 12.6642 17.8631 12.6673 17.8664 12.67C17.8604 12.6784 17.8563 12.6881 17.8545 12.6983C17.8528 12.7085 17.8533 12.719 17.8562 12.7289C17.8782 12.9694 17.8878 13.2108 17.8849 13.4523C17.8908 13.5113 17.8887 13.571 17.8787 13.6295C17.8738 13.6652 17.8723 13.7014 17.8741 13.7375C17.8774 13.7688 17.875 13.8005 17.8669 13.831C17.8618 13.8519 17.8638 13.8739 17.8726 13.8935L17.868 13.8966C17.8555 13.913 17.8492 13.9333 17.85 13.9539C17.8444 14.0423 17.8311 14.1301 17.8193 14.218C17.7608 14.6423 17.663 15.0602 17.5273 15.4662C17.5185 15.4915 17.5037 15.5179 17.5206 15.5458C17.4832 15.568 17.4786 15.6093 17.4663 15.645C17.3418 15.9853 17.1875 16.3138 17.0052 16.6266C16.8233 16.9469 16.6302 17.26 16.4309 17.5695C16.4232 17.5778 16.4174 17.5876 16.4137 17.5983C16.41 17.6089 16.4085 17.6203 16.4094 17.6315C16.3832 17.6341 16.3761 17.6584 16.3643 17.676C16.2495 17.8511 16.1383 18.0288 16.0246 18.2045C15.8448 18.4819 15.6614 18.7568 15.4805 19.0312C15.4672 19.0513 15.4441 19.0694 15.4554 19.0988C15.4257 19.1061 15.4134 19.1324 15.3985 19.1546C15.3309 19.258 15.2653 19.3582 15.1972 19.4584C14.8672 19.9456 14.5388 20.4339 14.2043 20.918C14.1874 20.9377 14.1761 20.9616 14.1715 20.9872C14.1495 20.9903 14.1408 21.01 14.129 21.026C14.067 21.1102 14.0086 21.197 13.9481 21.2843C13.7432 21.5783 13.5311 21.8702 13.3267 22.1662C13.3154 22.1828 13.2954 22.1972 13.3041 22.222C13.2821 22.2301 13.2638 22.2461 13.2529 22.267C12.9694 22.6679 12.6854 23.0687 12.4009 23.4693C12.3866 23.4894 12.3671 23.5096 12.3732 23.5385C12.3486 23.5385 12.3374 23.5597 12.3251 23.5772C12.1652 23.8061 12.0023 24.034 11.8425 24.2628C11.804 24.3236 11.7612 24.3814 11.7144 24.4359C11.6181 24.298 11.5269 24.1642 11.4326 24.0319C11.4188 24.0123 11.4075 23.9875 11.3814 23.9849C11.3811 23.9698 11.375 23.9553 11.3645 23.9446Z" fill="url(#paint0_linear_1027_756)"/>
<path d="M11.604 16.1616C11.6226 16.1701 11.6433 16.1728 11.6634 16.1694C11.8004 16.1717 11.9374 16.1636 12.0732 16.1451C12.3316 16.1175 12.5844 16.0512 12.8233 15.9482C12.8387 15.9431 12.8545 15.9389 12.8694 15.9322C13.3103 15.7415 13.6976 15.4437 13.9965 15.0653C14.1484 14.8788 14.2736 14.6719 14.3685 14.4504C14.4851 14.204 14.5632 13.9408 14.6001 13.6703C14.6174 13.576 14.6263 13.4804 14.6267 13.3846C14.6368 13.3162 14.6397 13.2469 14.6354 13.1779C14.6355 13.1563 14.6329 13.1348 14.6277 13.1138V13.0524C14.6295 12.9773 14.6218 12.9023 14.6047 12.8292C14.5941 12.7061 14.5693 12.5848 14.5309 12.4675C14.5227 12.4115 14.5063 12.357 14.4822 12.3058C14.4833 12.2991 14.4827 12.2922 14.4804 12.2858C14.4782 12.2794 14.4744 12.2737 14.4694 12.2691C14.4639 12.234 14.4515 12.2002 14.433 12.1699C14.424 12.1303 14.4085 12.0926 14.3869 12.0583C14.3721 12.01 14.3505 11.9641 14.3229 11.9219C14.2871 11.8389 14.2428 11.76 14.1907 11.6863C14.1366 11.5905 14.0731 11.5005 14.0011 11.4177C13.9372 11.3272 13.8631 11.2445 13.7803 11.1712C13.7497 11.1311 13.7128 11.0962 13.6712 11.0679C13.6478 11.0377 13.6189 11.0123 13.5862 10.993C13.5563 10.9606 13.5218 10.9331 13.4837 10.9113L13.35 10.8106C13.2651 10.748 13.1745 10.6937 13.0795 10.6483C13.0139 10.6287 12.9632 10.5765 12.895 10.5615L12.7721 10.5099C12.6665 10.4595 12.5551 10.4224 12.4406 10.3993C12.3239 10.3639 12.2036 10.3419 12.082 10.3337C11.952 10.3115 11.8201 10.3037 11.6885 10.3104C11.5289 10.3047 11.3693 10.3186 11.213 10.3518C10.1986 10.5584 9.47831 11.1438 9.0541 12.0945C8.92624 12.3831 8.85408 12.6936 8.84148 13.0095C8.8379 13.0276 8.8297 13.0487 8.83636 13.0637C8.82387 13.2041 8.82559 13.3453 8.84148 13.4853C8.84701 13.6064 8.86417 13.7267 8.89271 13.8444C8.91315 13.9591 8.94401 14.0717 8.98493 14.1807C8.99634 14.2277 9.01356 14.273 9.03617 14.3156C9.05601 14.3799 9.08227 14.4421 9.11455 14.5011C9.15766 14.601 9.21015 14.6965 9.27133 14.7863C9.29282 14.8318 9.32059 14.8741 9.35381 14.9118C9.37877 14.9562 9.4083 14.9977 9.44193 15.0358C9.45695 15.064 9.47732 15.0889 9.50187 15.1092C9.5294 15.1509 9.56269 15.1885 9.60075 15.2208C9.67186 15.3064 9.75114 15.3848 9.83745 15.4548C9.91095 15.5261 9.99185 15.5891 10.0788 15.6429C10.1505 15.7015 10.2289 15.7513 10.3124 15.7912C10.3523 15.8258 10.3994 15.851 10.4502 15.8651C10.492 15.8922 10.5371 15.9139 10.5844 15.9296C10.6189 15.9509 10.6566 15.9663 10.6961 15.9751C10.7423 15.9987 10.7914 16.0161 10.8421 16.0268C10.9491 16.0689 11.0608 16.0978 11.1746 16.1131C11.1808 16.1159 11.1874 16.1176 11.1941 16.1182C11.2721 16.1398 11.3525 16.1509 11.4334 16.1513C11.4895 16.1627 11.5469 16.1662 11.604 16.1616Z" fill="url(#paint1_linear_1027_756)"/>
<defs>
<linearGradient id="paint0_linear_1027_756" x1="5.61768" y1="-3.20381" x2="25.8865" y2="30.7658" gradientUnits="userSpaceOnUse">
<stop offset="0.04" stop-color="#9633F2"/>
<stop offset="0.7" stop-color="#CA60D7"/>
</linearGradient>
<linearGradient id="paint1_linear_1027_756" x1="8.82662" y1="13.2394" x2="16.693" y2="17.8401" gradientUnits="userSpaceOnUse">
<stop offset="0.0729167" stop-color="#9633F2"/>
<stop offset="1" stop-color="#CA60D7"/>
</linearGradient>
</defs>
</svg>
