<svg width="20" height="24" viewBox="0 0 20 24" fill="none" xmlns="http://www.w3.org/2000/svg">
<path d="M12.6228 2.56102C14.0951 2.56031 15.5317 3.01428 16.7363 3.86089C17.9408 4.7075 18.8545 5.90543 19.3524 7.29094C18.7683 5.11597 17.4561 3.20703 15.6347 1.88254C13.8133 0.55805 11.5928 -0.101899 9.34361 0.0127777C6.91111 0.143039 4.61262 1.16794 2.89012 2.8904C1.16762 4.61287 0.142703 6.9113 0.0124392 9.34375C-0.0500538 10.587 0.123326 11.8308 0.523429 13.0095C0.838076 13.9283 1.28731 14.7953 1.85645 15.5822C1.85645 15.5822 2.41633 16.2953 2.48965 16.3775L9.59911 23.4868L9.86349 23.7512C10.0002 23.893 10.1846 23.9792 10.3811 23.9931C10.5776 24.0071 10.7723 23.9478 10.9277 23.8268C11.0116 23.7582 11.0802 23.6728 11.1291 23.5761C11.178 23.4794 11.206 23.3735 11.2115 23.2653C11.2169 23.157 11.1996 23.0489 11.1607 22.9478C11.1218 22.8466 11.0621 22.7548 10.9855 22.6782C11.1308 22.8232 11.3278 22.9046 11.5331 22.9046C11.7384 22.9046 11.9354 22.8232 12.0808 22.6782C12.1532 22.6063 12.2106 22.5208 12.2499 22.4266C12.2891 22.3324 12.3093 22.2314 12.3093 22.1294C12.3093 22.0274 12.2891 21.9264 12.2499 21.8322C12.2106 21.738 12.1532 21.6525 12.0808 21.5807C12.1528 21.6528 12.2383 21.71 12.3325 21.7491C12.4266 21.7881 12.5276 21.8082 12.6295 21.8082C12.7314 21.8082 12.8324 21.7881 12.9266 21.7491C13.0207 21.71 13.1063 21.6528 13.1783 21.5807C13.2507 21.5088 13.3082 21.4233 13.3474 21.3291C13.3866 21.2349 13.4068 21.1339 13.4068 21.0319C13.4068 20.9299 13.3866 20.8289 13.3474 20.7347C13.3082 20.6405 13.2507 20.555 13.1783 20.4832C13.2548 20.5599 13.3465 20.6198 13.4475 20.6589C13.5486 20.698 13.6567 20.7155 13.7649 20.7103C13.8731 20.705 13.9791 20.6772 14.0759 20.6285C14.1726 20.5798 14.2582 20.5114 14.3269 20.4276C14.4479 20.2722 14.5072 20.0775 14.4933 19.881C14.4793 19.6846 14.3931 19.5002 14.2514 19.3634L13.6826 18.7947L13.6471 18.7636L10.8988 16.0265C10.258 15.3842 9.50503 14.8646 8.67709 14.4936L8.62822 14.4713C8.24766 14.2986 7.90144 14.0585 7.60623 13.7626L6.49538 12.6518C5.83271 11.8641 5.47201 10.8663 5.47783 9.83696C5.47783 9.79475 5.47783 9.75254 5.47783 9.71032V9.69922C5.4796 7.80544 6.23316 5.98983 7.57291 4.65135C8.91267 3.31287 10.729 2.56102 12.6228 2.56102Z" fill="#BDD7EF"/>
<path d="M5.47816 9.70835V9.71946C5.47816 9.76167 5.47816 9.80388 5.47816 9.84387C5.4756 10.8676 5.83526 11.8591 6.49349 12.6432L7.60434 13.754C7.89913 14.0493 8.24453 14.2894 8.62411 14.4627L8.67743 14.4849C9.50473 14.8571 10.2575 15.3765 10.8991 16.0179L13.6363 18.7527L13.674 18.7838L14.2406 19.3526C14.3828 19.4891 14.4693 19.6735 14.4832 19.8701C14.4972 20.0667 14.4376 20.2615 14.3161 20.4168C14.2474 20.5005 14.1619 20.5689 14.0651 20.6176C13.9683 20.6663 13.8624 20.6942 13.7541 20.6994C13.6459 20.7046 13.5378 20.6871 13.4368 20.648C13.3357 20.6089 13.244 20.549 13.1675 20.4723C13.2399 20.5442 13.2974 20.6297 13.3366 20.7238C13.3758 20.818 13.396 20.919 13.396 21.021C13.396 21.1231 13.3758 21.2241 13.3366 21.3183C13.2974 21.4124 13.2399 21.4979 13.1675 21.5698C13.0221 21.7148 12.8252 21.7963 12.6198 21.7963C12.4145 21.7963 12.2176 21.7148 12.0722 21.5698C12.1344 21.6346 12.1848 21.7098 12.2211 21.792C8.91071 19.8613 2.80545 15.5491 2.49219 9.81277C2.49101 7.52285 3.39942 5.32622 5.01763 3.70596C6.63584 2.08571 8.83134 1.1745 11.1213 1.17273C12.8293 1.17316 14.4989 1.67994 15.9189 2.62899C17.339 3.57805 18.4458 4.92678 19.0994 6.50471V6.51804C19.1905 6.77131 19.2705 7.03125 19.3416 7.29341C18.8439 5.90802 17.9307 4.71004 16.7266 3.86308C15.5225 3.01613 14.0864 2.56149 12.6143 2.56127C10.7206 2.56421 8.90558 3.3185 7.56762 4.65852C6.22965 5.99854 5.47816 7.81475 5.47816 9.70835Z" fill="#BDD7EF"/>
<path d="M13.1601 18.2949L12.3981 17.5351C12.3981 17.5351 11.1717 16.2843 9.95418 17.575C8.94109 18.6414 7.88577 18.3815 7.32812 17.4706L7.5503 17.2796C7.5503 17.2796 8.49896 18.1993 9.58537 17.0307C10.6718 15.8621 12.4514 16.5198 13.1601 18.2949Z" fill="url(#paint0_linear_1027_718)"/>
<path d="M9.82379 15.9668C9.9882 15.8113 10.1593 15.6624 10.3303 15.5224C9.82679 15.1122 9.27186 14.7694 8.67961 14.5027L8.62629 14.4805C8.24671 14.3072 7.90131 14.0671 7.60652 13.7718L6.49567 12.661C5.83199 11.8705 5.47198 10.8693 5.48035 9.83722C5.48035 9.79723 5.48035 9.75502 5.48035 9.71281V9.7017C5.48005 8.76294 5.66471 7.83333 6.02376 6.96595C6.38281 6.09857 6.90923 5.31042 7.57295 4.64651C8.23666 3.98261 9.02466 3.45596 9.89195 3.09665C10.7592 2.73733 11.6888 2.5524 12.6276 2.5524C14.0997 2.55262 15.5358 3.00726 16.7399 3.85421C17.944 4.70117 18.8572 5.89914 19.3549 7.28453C19.3171 7.14235 19.2749 7.00238 19.2305 6.86242C19.2318 6.85732 19.2318 6.85196 19.2305 6.84686C18.6885 5.37594 17.708 4.10689 16.4214 3.2113C15.1348 2.31571 13.6042 1.83678 12.0366 1.83924C10.0067 1.83924 8.05993 2.6456 6.62457 4.08094C5.18921 5.51627 4.38282 7.463 4.38282 9.49286C4.38044 11.02 4.83486 12.513 5.68764 13.7798C6.54042 15.0467 7.75261 16.0296 9.16839 16.6022C9.39056 16.3845 9.60384 16.1756 9.82379 15.9668Z" fill="#BDD7EF"/>
<path d="M19.6852 9.83671C19.686 10.9095 19.5112 11.9752 19.1675 12.9915C18.9489 13.6344 18.6645 14.2531 18.3188 14.8377C17.9747 15.4148 17.5736 15.9559 17.1213 16.4528L16.1127 17.4703L14.2331 19.3565L12.2203 17.357C11.891 17.0291 11.4464 16.8431 10.9817 16.8389C10.517 16.8348 10.0692 17.0128 9.73416 17.3348L9.51199 17.557C9.28664 17.7747 8.98553 17.8964 8.67218 17.8964C8.35883 17.8964 8.05773 17.7747 7.83238 17.557L7.69464 17.4215L7.66796 17.397L7.55467 17.2859L8.67885 16.1618C8.67885 16.1618 9.48088 15.4175 9.85413 15.1598C10.2224 14.9034 10.6127 14.6804 11.0205 14.4933C11.433 14.3041 11.809 14.0439 12.1314 13.7246C12.5224 13.3336 13.0201 12.8359 13.0712 12.7826L13.0823 12.7693C13.4676 12.3413 13.7642 11.8411 13.9548 11.2976C14.1455 10.7542 14.2265 10.1784 14.1931 9.60343C14.1295 8.5441 13.6841 7.54372 12.9394 6.78761C12.1947 6.0315 11.2012 5.57091 10.1429 5.49114C9.55104 5.45032 8.95704 5.53057 8.39719 5.727C7.83734 5.92343 7.32341 6.23191 6.88677 6.6336C6.45014 7.0353 6.09997 7.52178 5.85765 8.06333C5.61532 8.60489 5.48592 9.19015 5.47736 9.78339C5.4763 9.76266 5.4763 9.7419 5.47736 9.72118V9.71007C5.47736 7.81455 6.23037 5.99666 7.57074 4.65632C8.9111 3.31598 10.729 2.56299 12.6246 2.56299C14.0969 2.56227 15.5335 3.01625 16.738 3.86286C17.9425 4.70946 18.8562 5.9074 19.3541 7.29291C19.5746 8.12284 19.6859 8.97799 19.6852 9.83671Z" fill="url(#paint1_linear_1027_718)"/>
<path d="M18.3369 9.83668H19.6877C19.6868 8.97924 19.574 8.12559 19.3523 7.29732C18.8545 5.91194 17.9413 4.71395 16.7373 3.867C15.5332 3.02005 14.0971 2.56541 12.6249 2.56519C10.7804 2.5659 9.00756 3.27945 7.67686 4.55672C6.34616 5.83398 5.56061 7.57611 5.48438 9.41901H5.49993C5.62633 7.80593 6.3565 6.29987 7.54465 5.20153C8.7328 4.10318 10.2915 3.49337 11.9095 3.49384C13.5995 3.49427 15.2213 4.16001 16.4242 5.34703C17.627 6.53406 18.3142 8.14692 18.3369 9.83668Z" fill="#0169E8"/>
<path d="M5.45508 20.4828C5.38267 20.4109 5.3252 20.3254 5.28598 20.2312C5.24676 20.1371 5.22656 20.0361 5.22656 19.934C5.22656 19.832 5.24676 19.731 5.28598 19.6368C5.3252 19.5426 5.38267 19.4571 5.45508 19.3853L6.04606 18.7921C6.1918 18.6469 6.38911 18.5654 6.59482 18.5654C6.80052 18.5654 6.99785 18.6469 7.14358 18.7921C7.28875 18.9378 7.37026 19.1352 7.37026 19.3408C7.37026 19.5465 7.28875 19.7439 7.14358 19.8896L6.55038 20.4828C6.40502 20.6278 6.20807 20.7093 6.00274 20.7093C5.7974 20.7093 5.60044 20.6278 5.45508 20.4828Z" fill="url(#paint2_linear_1027_718)"/>
<path d="M6.54699 21.5806C6.40182 21.4348 6.32031 21.2375 6.32031 21.0318C6.32031 20.8261 6.40182 20.6288 6.54699 20.4831L7.14019 19.8899C7.28593 19.7447 7.48324 19.6632 7.68895 19.6632C7.89465 19.6632 8.09198 19.7447 8.23771 19.8899C8.38288 20.0356 8.46439 20.2329 8.46439 20.4386C8.46439 20.6443 8.38288 20.8416 8.23771 20.9874L7.64451 21.5806C7.49877 21.7257 7.30146 21.8072 7.09575 21.8072C6.89005 21.8072 6.69272 21.7257 6.54699 21.5806Z" fill="url(#paint3_linear_1027_718)"/>
<path d="M7.64834 22.6758C7.50331 22.5304 7.42188 22.3335 7.42188 22.1281C7.42188 21.9228 7.50331 21.7258 7.64834 21.5805L8.24155 20.9873C8.31342 20.9149 8.39891 20.8574 8.49309 20.8182C8.58727 20.779 8.68828 20.7588 8.7903 20.7588C8.89233 20.7588 8.99335 20.779 9.08753 20.8182C9.18171 20.8574 9.2672 20.9149 9.33907 20.9873C9.48424 21.133 9.56575 21.3304 9.56575 21.5361C9.56575 21.7418 9.48424 21.9391 9.33907 22.0848L8.74587 22.6758C8.674 22.7482 8.58851 22.8056 8.49433 22.8449C8.40014 22.8841 8.29914 22.9043 8.19711 22.9043C8.09509 22.9043 7.99407 22.8841 7.89989 22.8449C7.8057 22.8056 7.72021 22.7482 7.64834 22.6758Z" fill="url(#paint4_linear_1027_718)"/>
<path d="M8.7423 23.7734C8.59713 23.6276 8.51562 23.4303 8.51562 23.2246C8.51562 23.0189 8.59713 22.8216 8.7423 22.6759L9.3355 22.0849C9.40718 22.0126 9.49248 21.9551 9.58648 21.9159C9.68047 21.8767 9.7813 21.8566 9.88315 21.8566C9.98499 21.8566 10.0858 21.8767 10.1798 21.9159C10.2738 21.9551 10.3591 22.0126 10.4308 22.0849C10.5031 22.1566 10.5606 22.2419 10.5998 22.3359C10.639 22.4299 10.6591 22.5307 10.6591 22.6325C10.6591 22.7344 10.639 22.8352 10.5998 22.9292C10.5606 23.0232 10.5031 23.1085 10.4308 23.1802L9.83982 23.7734C9.69408 23.9185 9.49677 24 9.29107 24C9.08536 24 8.88804 23.9185 8.7423 23.7734Z" fill="url(#paint5_linear_1027_718)"/>
<path d="M16.1133 17.4793L14.2338 19.3655L12.2209 17.366C11.8917 17.038 11.4471 16.852 10.9824 16.8479C10.5177 16.8437 10.0699 17.0217 9.73484 17.3438L9.51267 17.5659C9.28732 17.7836 8.98621 17.9053 8.67286 17.9053C8.3595 17.9053 8.05841 17.7836 7.83306 17.5659L7.69531 17.4304C7.83306 17.5526 8.47512 18.0191 9.40602 17.0194C10.4569 15.8886 11.9366 15.9797 13.0141 17.2549C14.0916 18.5301 15.4046 18.2146 16.0911 17.5237C16.0964 17.5079 16.1039 17.493 16.1133 17.4793Z" fill="#0257D1"/>
<defs>
<linearGradient id="paint0_linear_1027_718" x1="10.7318" y1="17.6195" x2="5.09533" y2="16.0865" gradientUnits="userSpaceOnUse">
<stop offset="0.16" stop-color="#0257D1"/>
<stop offset="0.78" stop-color="#0171F2"/>
<stop offset="1" stop-color="#007BFF"/>
</linearGradient>
<linearGradient id="paint1_linear_1027_718" x1="13.7999" y1="3.07175" x2="11.9426" y2="13.4602" gradientUnits="userSpaceOnUse">
<stop stop-color="#0257D1"/>
<stop offset="0.74" stop-color="#0171F2"/>
<stop offset="1" stop-color="#007BFF"/>
</linearGradient>
<linearGradient id="paint2_linear_1027_718" x1="5.22625" y1="19.6363" x2="7.3702" y2="19.6363" gradientUnits="userSpaceOnUse">
<stop stop-color="#0257D1"/>
<stop offset="1" stop-color="#007BFF"/>
</linearGradient>
<linearGradient id="paint3_linear_1027_718" x1="6.32037" y1="20.7341" x2="8.46433" y2="20.7341" gradientUnits="userSpaceOnUse">
<stop stop-color="#0257D1"/>
<stop offset="1" stop-color="#007BFF"/>
</linearGradient>
<linearGradient id="paint4_linear_1027_718" x1="7.42174" y1="21.8315" x2="9.56569" y2="21.8315" gradientUnits="userSpaceOnUse">
<stop stop-color="#0257D1"/>
<stop offset="1" stop-color="#007BFF"/>
</linearGradient>
<linearGradient id="paint5_linear_1027_718" x1="8.51568" y1="22.9291" x2="10.6596" y2="22.9291" gradientUnits="userSpaceOnUse">
<stop stop-color="#0257D1"/>
<stop offset="1" stop-color="#007BFF"/>
</linearGradient>
</defs>
</svg>
