<svg width="740" height="440" viewBox="0 0 740 440" fill="none" xmlns="http://www.w3.org/2000/svg">
<rect width="740" height="440" fill="url(#paint0_linear_107_2550)"/>
<path fill-rule="evenodd" clip-rule="evenodd" d="M374.379 359.059C426.012 359.059 473.545 359.84 511.27 361.14C603.56 308.265 571.595 205.193 538.462 146.882C492.33 65.7357 383.356 36.5802 338.288 101.315C277.107 189.198 218.08 158.534 186.219 225.272C154.331 291.983 202.72 355.964 237.488 361.114C275.213 359.814 322.746 359.059 374.379 359.059ZM293.505 134.034C269.894 152.058 230.82 166.024 217.821 146.856C208.117 132.551 220.078 105.685 243.455 85.3201C266.833 64.9814 298.15 52.6534 315.196 67.6343C335.486 85.4241 311.694 120.145 293.505 134.034Z" fill="white" fill-opacity="0.16"/>
<path fill-rule="evenodd" clip-rule="evenodd" d="M374.375 359.098C497.008 359.098 596.418 363.443 596.418 368.797C596.418 374.15 497.008 378.495 374.375 378.495C251.742 378.495 152.333 374.15 152.333 368.797C152.333 363.443 251.742 359.098 374.375 359.098Z" fill="white" fill-opacity="0.16"/>
<path fill-rule="evenodd" clip-rule="evenodd" d="M445.732 90.7001C501.208 102.966 536.514 153.628 539.966 178.058C541.394 188.082 538.746 164.606 510.45 143.243C485.165 124.123 465.461 120.592 435.374 118.299C414.113 116.675 391.839 114.073 393.422 101.472C394.694 91.5248 409.933 82.789 445.732 90.7001ZM300.667 70.2137C310.221 70.7806 316.036 78.5629 316.425 87.5563C316.607 91.3701 313.57 81.3975 302.978 80.006C296.41 79.1556 295.424 81.0625 293.061 78.3825C290.751 75.6767 292.983 69.7498 300.667 70.2137Z" fill="white" fill-opacity="0.36"/>
<path d="M191.474 331.366C191.504 325.588 190.343 319.823 188.031 314.524C186.947 312.039 185.657 309.533 183.921 307.418L183.937 307.671C183.712 308.359 182.1 313.07 178.193 314.123C175.017 314.98 171.653 313.06 168.963 311.526C168.015 310.985 167.263 310.464 166.74 310.076C168.119 309.904 170.109 309.495 172.241 308.406C173.928 307.544 174.459 306.892 175.584 306.342C177.037 305.631 179.309 305.176 182.911 306.292C180.988 304.345 178.563 303.082 176.074 301.97C173.603 300.866 171.032 299.891 168.783 298.365C167.064 297.199 165.707 295.729 164.774 293.938C164.328 295.184 162.672 299.144 159.131 300.099C155.955 300.955 152.591 299.036 149.901 297.501C148.953 296.96 148.201 296.439 147.678 296.052C149.057 295.879 151.047 295.47 153.179 294.382C154.866 293.52 155.397 292.868 156.522 292.317C158.007 291.591 160.346 291.131 164.086 292.342C163.092 289.563 162.649 286.521 162.303 283.607C162.133 282.172 162.051 280.732 161.977 279.293C161.351 280.85 159.692 284.144 156.504 285.003C153.328 285.86 149.964 283.94 147.274 282.406C146.326 281.865 145.574 281.344 145.051 280.956C146.43 280.784 148.421 280.375 150.553 279.286C152.239 278.425 152.771 277.772 153.895 277.222C155.434 276.469 157.891 276.003 161.875 277.386C161.832 276.645 161.782 275.904 161.713 275.163C161.414 271.942 160.491 268.836 157.947 266.678L157.979 267.205C157.755 267.893 156.143 272.604 152.236 273.658C149.06 274.514 145.696 272.595 143.006 271.06C142.058 270.519 141.306 269.998 140.783 269.611C142.162 269.438 144.153 269.03 146.284 267.941C147.971 267.079 148.502 266.427 149.627 265.877C151.043 265.184 153.237 264.734 156.683 265.745C154.711 264.481 152.412 263.757 150.116 263.19L149.484 263.772C148.779 264.048 143.905 265.878 140.485 263.457C137.705 261.488 137.049 257.533 136.525 254.371C136.34 253.257 136.268 252.312 136.238 251.638C137.285 252.625 138.923 253.943 141.205 254.924C143.011 255.701 143.888 255.693 145.073 256.227C146.698 256.959 148.694 258.617 150.192 262.733C152.451 263.293 154.69 263.998 156.677 265.2C158.702 266.425 160.222 268.155 161.112 270.284C160.983 268.609 161.08 265.578 163.134 263.67C165.361 261.601 168.957 261.718 171.832 261.811C172.845 261.844 173.689 261.945 174.287 262.036C173.233 262.772 171.781 263.964 170.511 265.772C169.506 267.204 169.357 267.965 168.676 268.9C167.721 270.211 165.844 271.693 161.767 272.251L161.714 272.166C162.287 274.554 162.299 277.049 162.423 279.49C162.515 281.311 162.692 283.127 162.948 284.931L162.954 284.792C163.224 284.178 165.143 279.981 168.84 279.365C171.845 278.864 174.768 280.938 177.105 282.597C177.929 283.182 178.573 283.73 179.02 284.135C177.733 284.169 175.861 284.365 173.798 285.175C172.164 285.817 171.615 286.37 170.527 286.775C169.025 287.335 166.688 287.54 163.085 285.851C163.265 286.983 163.475 288.11 163.721 289.23C163.973 290.379 164.281 291.495 164.7 292.552C164.737 292.565 164.773 292.577 164.81 292.591L164.826 292.858C165.499 294.453 166.442 295.9 167.857 297.09C169.269 298.277 170.902 299.15 172.58 299.925L172.55 299.157C172.771 298.524 174.356 294.193 177.994 293.293C180.952 292.562 184.029 294.405 186.489 295.877C187.356 296.397 188.042 296.894 188.519 297.262C187.238 297.396 185.387 297.736 183.393 298.702C181.813 299.468 181.309 300.061 180.257 300.549C179.028 301.118 177.185 301.481 174.396 300.731C174.656 300.844 174.916 300.957 175.175 301.07C177.653 302.15 180.172 303.27 182.246 305.03C182.818 305.516 183.347 306.045 183.841 306.604C183.851 306.608 183.861 306.611 183.872 306.615L183.874 306.641C185.444 308.431 186.649 310.547 187.686 312.669C190.526 318.476 191.975 324.909 191.94 331.37C191.939 331.668 191.472 331.665 191.474 331.366Z" fill="#DED9FF" fill-opacity="0.36"/>
<path fill-rule="evenodd" clip-rule="evenodd" d="M231.539 336.131C228.981 332.977 225.405 330.367 224.361 326.463C223.108 321.862 225.849 317.003 225.17 312.272C224.309 306.327 218.54 302.475 215.408 297.331C212.328 292.291 213.763 290.611 213.502 284.743C213.085 275.903 205.75 264.736 195.988 267.708C186.069 270.759 187.687 279.883 189.436 286.759C190.689 291.645 189.88 292.343 188.653 297.254C187.191 303.173 182.493 308.886 184.45 314.65C185.677 318.217 189.201 320.621 190.48 324.163C191.942 328.169 190.167 332.538 189.514 336.751C188.079 345.617 190.141 353.01 196.64 360.326C197.345 360.998 198.076 361.592 198.833 362.161C207.942 361.644 218.227 361.179 229.477 360.765L229.555 360.687C235.48 354.277 237.255 343.214 231.539 336.131Z" fill="url(#paint1_linear_107_2550)"/>
<path fill-rule="evenodd" clip-rule="evenodd" d="M200.483 275.881C200.326 275.49 199.882 275.281 199.464 275.438C199.072 275.594 198.862 276.038 199.019 276.455C199.804 278.49 200.457 280.602 201.006 282.793C200.771 282.584 200.536 282.402 200.3 282.193C199.228 281.333 198.026 280.602 196.667 279.95C196.274 279.768 195.804 279.924 195.621 280.315C195.438 280.707 195.595 281.176 195.987 281.359C197.242 281.932 198.34 282.637 199.307 283.393C200.222 284.123 201.032 284.958 201.686 285.871C202.679 290.644 203.333 295.782 203.934 301.207C203.019 299.799 202.052 298.547 201.032 297.425C199.228 295.469 197.268 293.982 195.072 292.887C194.68 292.704 194.209 292.861 194.026 293.252C193.843 293.643 194 294.113 194.392 294.295C196.379 295.286 198.209 296.669 199.882 298.495C201.529 300.294 203.019 302.485 204.352 305.093L204.509 306.554C204.849 309.788 205.189 313.1 205.581 316.465C205.581 316.491 205.581 316.517 205.581 316.569C205.999 320.09 206.496 323.716 207.123 327.367C205.424 324.759 203.594 322.438 201.66 320.43C198.784 317.482 195.647 315.187 192.249 313.544C191.857 313.361 191.386 313.518 191.203 313.909C191.02 314.3 191.177 314.77 191.569 314.952C194.811 316.517 197.817 318.708 200.536 321.499C203.254 324.29 205.738 327.706 207.96 331.749C208.927 336.6 210.156 341.556 211.776 346.564V346.59C212.587 349.042 213.475 351.519 214.495 353.997C212.116 351.963 209.607 350.215 206.94 348.729C203.228 346.668 199.228 345.129 194.967 344.164C194.549 344.06 194.131 344.321 194.026 344.738C193.922 345.155 194.183 345.573 194.601 345.677C198.732 346.642 202.575 348.103 206.156 350.085C209.685 352.041 212.979 354.519 215.985 357.518C216.691 359.057 217.423 360.596 218.207 362.161L219.932 362.083C217.161 356.762 214.992 351.441 213.266 346.199C212.979 342.391 213.423 338.557 214.626 334.749C215.854 330.888 217.841 327.002 220.586 323.116C220.847 322.777 220.743 322.281 220.403 322.021C220.063 321.76 219.566 321.864 219.305 322.203C216.456 326.22 214.39 330.236 213.136 334.253C212.404 336.548 211.959 338.817 211.75 341.113C209.397 332.636 208.09 324.342 207.149 316.439C208.064 313.074 209.11 310.258 210.234 307.936C211.358 305.615 212.587 303.841 213.92 302.589C214.234 302.303 214.26 301.807 213.946 301.494C213.658 301.181 213.162 301.155 212.848 301.468C211.384 302.85 210.051 304.78 208.822 307.258C208.064 308.797 207.358 310.571 206.705 312.527C206.47 310.44 206.26 308.38 206.051 306.345L205.894 304.78C205.894 304.754 205.894 304.728 205.894 304.702C204.797 293.982 203.672 284.202 200.483 275.881Z" fill="white" fill-opacity="0.5"/>
<path fill-rule="evenodd" clip-rule="evenodd" d="M205.768 340.778C203.057 339.303 199.773 338.512 197.871 336.062C195.63 333.164 196.073 328.895 194.196 325.76C191.825 321.781 186.664 320.78 182.938 318.066C179.289 315.404 179.784 313.771 177.856 309.687C174.911 303.521 166.493 297.803 160.577 302.836C154.583 307.974 158.44 313.955 161.697 318.303C164.017 321.412 163.678 322.15 164.304 325.97C165.059 330.608 163.496 336.088 166.571 339.593C168.473 341.753 171.653 342.412 173.608 344.546C175.823 346.97 175.901 350.58 176.683 353.795C177.725 358.037 179.55 361.436 182.442 364.203C190.235 363.597 199.409 363.043 209.755 362.543C210.537 361.383 211.188 360.145 211.658 358.827C213.951 352.477 211.866 344.098 205.768 340.778Z" fill="url(#paint2_linear_107_2550)"/>
<path fill-rule="evenodd" clip-rule="evenodd" d="M165.612 307.212C165.379 306.978 165.016 306.978 164.782 307.186C164.549 307.42 164.549 307.785 164.756 308.019C165.898 309.19 166.962 310.466 168 311.845C167.792 311.767 167.559 311.715 167.351 311.637C166.365 311.351 165.301 311.195 164.185 311.143C163.874 311.143 163.588 311.377 163.562 311.715C163.562 312.054 163.796 312.314 164.133 312.34C165.171 312.392 166.131 312.522 167.04 312.783C167.896 313.017 168.675 313.355 169.427 313.798C171.529 316.817 173.501 320.201 175.499 323.793C174.461 323.09 173.423 322.492 172.359 322.023C170.543 321.19 168.726 320.748 166.91 320.618C166.599 320.591 166.313 320.852 166.287 321.164C166.261 321.476 166.521 321.763 166.832 321.789C168.493 321.893 170.18 322.309 171.866 323.09C173.553 323.845 175.214 324.938 176.9 326.344L177.445 327.333C178.639 329.468 179.833 331.68 181.13 333.919C181.13 333.945 181.156 333.971 181.156 333.971C182.48 336.313 183.907 338.656 185.412 341.025C183.466 339.697 181.519 338.63 179.599 337.823C176.745 336.626 173.916 335.949 171.062 335.819C170.75 335.793 170.465 336.053 170.439 336.391C170.413 336.704 170.673 336.99 171.01 337.016C173.709 337.146 176.433 337.771 179.158 338.916C181.857 340.062 184.581 341.702 187.306 343.862C189.408 346.96 191.718 350.031 194.312 353.024C195.584 354.508 196.933 355.94 198.361 357.371C196.129 356.669 193.871 356.174 191.588 355.94C188.422 355.601 185.204 355.706 181.961 356.278C181.649 356.33 181.416 356.643 181.493 356.955C181.545 357.267 181.857 357.502 182.168 357.423C185.308 356.877 188.396 356.747 191.458 357.085C194.494 357.397 197.478 358.152 200.462 359.35C201.474 360.287 202.538 361.224 203.654 362.161L205.419 362.057C201.552 358.959 198.205 355.679 195.247 352.27C193.923 349.693 193.093 346.907 192.807 343.914C192.522 340.869 192.755 337.589 193.508 334.075C193.586 333.762 193.378 333.45 193.067 333.372C192.755 333.294 192.444 333.502 192.366 333.815C191.588 337.433 191.328 340.843 191.64 344.018C191.821 345.814 192.159 347.558 192.704 349.198C188.578 343.992 185.23 338.63 182.246 333.398C181.909 330.795 181.779 328.531 181.883 326.578C181.987 324.652 182.298 323.038 182.843 321.789C182.973 321.476 182.843 321.138 182.531 321.008C182.246 320.878 181.883 321.008 181.753 321.32C181.156 322.726 180.793 324.444 180.689 326.526C180.611 327.828 180.663 329.259 180.767 330.821C179.988 329.442 179.236 328.062 178.483 326.708L177.912 325.667C177.912 325.641 177.887 325.615 177.887 325.615C173.916 318.509 170.257 312.054 165.612 307.212Z" fill="white" fill-opacity="0.5"/>
<path d="M552.821 331.844C552.54 326.073 553.45 320.264 555.531 314.87C556.507 312.34 557.687 309.78 559.33 307.592L559.325 307.845C559.579 308.523 561.394 313.16 565.342 314.043C568.552 314.761 571.831 312.698 574.452 311.049C575.375 310.467 576.104 309.914 576.61 309.504C575.224 309.391 573.218 309.069 571.041 308.074C569.319 307.286 568.76 306.657 567.612 306.156C566.13 305.509 563.84 305.153 560.289 306.424C562.127 304.395 564.495 303.028 566.933 301.809C569.355 300.599 571.881 299.515 574.062 297.893C575.728 296.653 577.021 295.126 577.875 293.296C578.375 294.521 580.2 298.406 583.78 299.207C586.989 299.925 590.268 297.861 592.889 296.212C593.812 295.631 594.541 295.077 595.047 294.668C593.661 294.555 591.655 294.233 589.478 293.237C587.756 292.449 587.197 291.821 586.049 291.32C584.534 290.658 582.178 290.3 578.493 291.672C579.366 288.853 579.678 285.794 579.896 282.868C580.004 281.427 580.024 279.985 580.036 278.543C580.728 280.072 582.528 283.291 585.75 284.012C588.961 284.73 592.239 282.666 594.86 281.017C595.783 280.436 596.512 279.882 597.018 279.473C595.632 279.36 593.626 279.038 591.449 278.042C589.726 277.255 589.168 276.626 588.02 276.125C586.45 275.439 583.975 275.08 580.055 276.634C580.066 275.892 580.084 275.149 580.121 274.406C580.28 271.175 581.068 268.032 583.516 265.766L583.506 266.294C583.76 266.972 585.575 271.609 589.524 272.492C592.733 273.21 596.012 271.147 598.633 269.498C599.556 268.916 600.285 268.363 600.791 267.953C599.405 267.84 597.399 267.518 595.222 266.523C593.5 265.735 592.941 265.106 591.793 264.605C590.348 263.974 588.137 263.62 584.738 264.779C586.653 263.431 588.92 262.608 591.189 261.942L591.845 262.497C592.561 262.742 597.51 264.359 600.822 261.792C603.514 259.705 603.998 255.725 604.385 252.543C604.522 251.422 604.552 250.475 604.554 249.801C603.551 250.832 601.971 252.22 599.733 253.299C597.963 254.153 597.086 254.183 595.926 254.768C594.334 255.569 592.411 257.312 591.092 261.489C588.861 262.146 586.654 262.948 584.721 264.234C582.751 265.546 581.307 267.34 580.51 269.506C580.567 267.826 580.338 264.803 578.204 262.986C575.889 261.015 572.302 261.287 569.433 261.505C568.423 261.581 567.584 261.719 566.99 261.836C568.075 262.525 569.577 263.654 570.924 265.405C571.99 266.792 572.173 267.546 572.893 268.45C573.904 269.719 575.844 271.118 579.941 271.499L579.99 271.412C579.52 273.822 579.617 276.315 579.599 278.76C579.585 280.583 579.487 282.405 579.309 284.219L579.298 284.08C579.001 283.479 576.902 279.369 573.183 278.913C570.158 278.542 567.328 280.741 565.065 282.499C564.267 283.119 563.647 283.695 563.218 284.119C564.506 284.097 566.384 284.212 568.481 284.932C570.141 285.502 570.713 286.031 571.817 286.389C573.342 286.883 575.686 286.987 579.212 285.143C579.082 286.282 578.921 287.417 578.723 288.547C578.521 289.706 578.262 290.834 577.89 291.908C577.853 291.923 577.818 291.937 577.781 291.952L577.776 292.22C577.173 293.842 576.294 295.329 574.932 296.579C573.573 297.826 571.978 298.768 570.336 299.615L570.333 298.846C570.084 298.224 568.313 293.965 564.639 293.224C561.653 292.621 558.658 294.596 556.264 296.174C555.42 296.73 554.757 297.256 554.296 297.645C555.582 297.723 557.445 297.982 559.48 298.862C561.091 299.558 561.621 300.129 562.693 300.571C563.945 301.086 565.803 301.369 568.557 300.5C568.301 300.624 568.046 300.748 567.793 300.872C565.364 302.058 562.896 303.286 560.899 305.134C560.349 305.644 559.844 306.195 559.375 306.776C559.364 306.78 559.354 306.784 559.344 306.788L559.343 306.814C557.852 308.671 556.74 310.837 555.795 313.001C553.209 318.926 552.04 325.416 552.354 331.868C552.369 332.167 552.835 332.143 552.821 331.844Z" fill="#DED9FF" fill-opacity="0.36"/>
<path fill-rule="evenodd" clip-rule="evenodd" d="M508.305 333.381C511.07 329.936 514.92 327.087 516.057 322.813C517.401 317.761 514.455 312.477 515.179 307.296C516.109 300.794 522.336 296.572 525.721 290.977C529.055 285.485 527.478 283.62 527.788 277.196C528.254 267.508 536.16 255.307 546.703 258.571C557.4 261.912 555.669 271.885 553.783 279.398C552.439 284.734 553.318 285.511 554.61 290.873C556.186 297.349 561.276 303.592 559.158 309.912C557.84 313.824 554.015 316.44 552.646 320.326C551.096 324.73 552.982 329.496 553.705 334.107C555.256 343.821 553.034 351.877 546.005 359.907C545.153 360.71 544.274 361.461 543.344 362.161C533.602 361.669 522.75 361.202 510.941 360.814C510.786 360.658 510.631 360.477 510.45 360.296C504.042 353.224 502.13 341.153 508.305 333.381Z" fill="url(#paint3_linear_107_2550)"/>
<path fill-rule="evenodd" clip-rule="evenodd" d="M541.573 267.76C541.727 267.321 542.212 267.115 542.647 267.27C543.081 267.424 543.286 267.914 543.133 268.353C542.315 270.545 541.599 272.814 541.011 275.213C541.241 274.98 541.497 274.774 541.752 274.568C542.902 273.639 544.18 272.84 545.612 272.144C546.021 271.937 546.532 272.118 546.736 272.556C546.941 272.969 546.762 273.485 546.328 273.691C544.998 274.336 543.823 275.058 542.8 275.883C541.829 276.683 540.96 277.559 540.244 278.539C539.171 283.697 538.481 289.242 537.842 295.07C538.813 293.548 539.835 292.181 540.934 290.969C542.851 288.88 544.973 287.23 547.273 286.07C547.682 285.863 548.193 286.044 548.398 286.456C548.602 286.869 548.423 287.385 548.014 287.591C545.893 288.648 543.925 290.17 542.161 292.104C540.398 294.038 538.813 296.411 537.381 299.222L537.228 300.795C536.87 304.276 536.512 307.861 536.078 311.497C536.078 311.523 536.078 311.574 536.052 311.6C535.592 315.417 535.081 319.311 534.416 323.257C536.231 320.446 538.174 317.944 540.244 315.778C543.311 312.606 546.66 310.13 550.289 308.351C550.698 308.145 551.21 308.325 551.414 308.738C551.618 309.15 551.44 309.666 551.031 309.872C547.554 311.549 544.359 313.921 541.446 316.938C538.532 319.956 535.899 323.643 533.547 328.002C532.525 333.237 531.196 338.601 529.458 343.991V344.016C528.614 346.673 527.643 349.329 526.569 352.011C529.1 349.819 531.784 347.91 534.647 346.312C538.608 344.094 542.877 342.443 547.427 341.386C547.887 341.283 548.321 341.566 548.423 342.005C548.526 342.469 548.245 342.907 547.784 343.011C543.388 344.042 539.273 345.615 535.439 347.782C531.656 349.896 528.154 352.578 524.934 355.802C524.141 357.581 523.298 359.361 522.378 361.14L520.537 361.063C523.579 355.209 525.956 349.355 527.822 343.552C528.129 339.426 527.643 335.326 526.365 331.199C525.061 327.022 522.94 322.844 520.001 318.666C519.745 318.279 519.822 317.764 520.205 317.48C520.588 317.222 521.1 317.299 521.381 317.686C524.422 322.019 526.621 326.351 527.975 330.71C528.742 333.185 529.228 335.635 529.458 338.111C531.963 328.956 533.369 320.007 534.391 311.471C533.42 307.861 532.321 304.792 531.094 302.291C529.892 299.789 528.589 297.881 527.157 296.54C526.825 296.23 526.8 295.689 527.132 295.353C527.439 295.018 527.975 294.992 528.308 295.328C529.867 296.823 531.298 298.912 532.602 301.568C533.394 303.219 534.161 305.127 534.877 307.268C535.132 305.024 535.362 302.781 535.567 300.614L535.746 298.912C535.746 298.886 535.746 298.861 535.746 298.809C536.972 287.282 538.174 276.734 541.573 267.76Z" fill="white" fill-opacity="0.5"/>
<path fill-rule="evenodd" clip-rule="evenodd" d="M536.497 337.77C539.472 336.181 543.047 335.322 545.109 332.692C547.562 329.568 547.066 324.959 549.128 321.575C551.711 317.304 557.374 316.211 561.419 313.295C565.385 310.431 564.863 308.686 566.977 304.26C570.187 297.62 579.399 291.424 585.844 296.865C592.394 302.385 588.167 308.868 584.618 313.555C582.087 316.888 582.452 317.695 581.773 321.835C580.938 326.834 582.661 332.744 579.268 336.52C577.181 338.863 573.71 339.566 571.57 341.857C569.169 344.461 569.065 348.367 568.204 351.83C567.029 356.464 564.994 360.187 561.758 363.182C553.225 362.609 543.334 362.062 532.27 361.567C531.304 360.24 530.521 358.781 529.973 357.245C527.573 350.398 529.817 341.363 536.497 337.77Z" fill="url(#paint4_linear_107_2550)"/>
<path fill-rule="evenodd" clip-rule="evenodd" d="M579.863 302.116C580.097 301.857 580.513 301.857 580.772 302.09C581.032 302.35 581.032 302.739 580.798 302.998C579.552 304.269 578.383 305.67 577.266 307.148C577.5 307.07 577.734 306.992 577.993 306.915C579.084 306.603 580.227 306.422 581.448 306.396C581.811 306.37 582.097 306.655 582.123 307.018C582.149 307.381 581.863 307.667 581.5 307.693C580.383 307.745 579.318 307.9 578.331 308.186C577.396 308.445 576.539 308.808 575.734 309.275C573.448 312.569 571.293 316.226 569.111 320.143C570.254 319.364 571.397 318.716 572.539 318.197C574.513 317.29 576.513 316.797 578.487 316.693C578.851 316.667 579.136 316.952 579.162 317.289C579.188 317.653 578.902 317.938 578.565 317.964C576.747 318.068 574.903 318.534 573.059 319.364C571.241 320.194 569.397 321.362 567.553 322.918L566.955 323.981C565.657 326.316 564.332 328.702 562.956 331.14C562.956 331.166 562.93 331.192 562.904 331.218C561.449 333.76 559.917 336.327 558.255 338.895C560.384 337.469 562.488 336.301 564.618 335.42C567.734 334.123 570.825 333.397 573.942 333.241C574.305 333.215 574.591 333.5 574.617 333.863C574.643 334.227 574.357 334.512 573.994 334.538C571.033 334.667 568.072 335.368 565.111 336.613C562.151 337.858 559.19 339.647 556.203 341.982C553.917 345.354 551.398 348.699 548.541 351.942C547.139 353.55 545.684 355.106 544.1 356.662C546.541 355.884 549.009 355.365 551.502 355.106C554.982 354.743 558.488 354.873 562.021 355.495C562.358 355.547 562.592 355.884 562.54 356.247C562.488 356.584 562.15 356.818 561.787 356.766C558.359 356.169 554.982 356.04 551.632 356.403C548.333 356.766 545.061 357.57 541.814 358.867C540.594 359.982 539.321 361.097 537.996 362.161L536.049 362.083C540.412 358.659 544.178 354.976 547.502 351.163C548.957 348.362 549.84 345.354 550.151 342.085C550.463 338.766 550.229 335.212 549.398 331.373C549.32 331.036 549.554 330.699 549.892 330.621C550.229 330.543 550.593 330.751 550.645 331.114C551.502 335.056 551.762 338.765 551.424 342.215C551.242 344.186 550.853 346.054 550.281 347.844C554.8 342.189 558.437 336.327 561.709 330.673C562.099 327.846 562.228 325.356 562.125 323.255C562.021 321.154 561.657 319.416 561.06 318.042C560.93 317.705 561.06 317.341 561.397 317.186C561.735 317.056 562.099 317.186 562.254 317.523C562.904 319.053 563.293 320.921 563.423 323.203C563.501 324.604 563.475 326.16 563.319 327.872C564.176 326.368 564.981 324.863 565.813 323.411L566.436 322.269C566.436 322.244 566.462 322.218 566.462 322.218C570.773 314.41 574.773 307.381 579.863 302.116ZM288.483 92.6474C286.171 99.5467 284.898 100.247 278.068 99.0798C284.639 101.31 285.418 102.555 284.145 109.688C286.457 102.789 287.729 102.089 294.56 103.256C288.015 101.025 287.21 99.8061 288.483 92.6474ZM296.949 151.577C294.69 158.372 293.417 159.073 286.665 157.931C293.132 160.136 293.911 161.355 292.664 168.41C294.924 161.614 296.196 160.914 302.949 162.055C296.482 159.851 295.703 158.658 296.949 151.577ZM255.316 104.553C251.057 117.288 248.693 118.585 236.045 116.432C248.174 120.582 249.628 122.864 247.291 136.066C251.55 123.331 253.914 122.034 266.562 124.187C254.407 120.063 252.953 117.781 255.316 104.553Z" fill="white" fill-opacity="0.5"/>
<path fill-rule="evenodd" clip-rule="evenodd" d="M448.903 216.174H506.066C509.934 216.174 512.705 219.577 512.705 223.291V319.313C512.705 323.027 509.908 326.43 506.066 326.43H448.903C445.034 326.43 442.264 323.027 442.264 319.313V223.317C442.264 219.603 445.034 216.174 448.903 216.174Z" fill="url(#paint5_linear_107_2550)"/>
<path fill-rule="evenodd" clip-rule="evenodd" d="M449.045 219.237H505.923C507.977 219.237 509.642 221.127 509.642 223.456V319.148C509.642 321.478 507.951 323.367 505.923 323.367H449.045C446.991 323.367 445.326 321.478 445.326 319.148V223.482C445.326 221.152 446.991 219.237 449.045 219.237Z" fill="white"/>
<path fill-rule="evenodd" clip-rule="evenodd" d="M497.391 251.254C497.468 262.243 488.615 271.224 477.626 271.302C466.637 271.379 457.655 262.526 457.578 251.537C457.5 240.548 466.354 231.566 477.343 231.489C488.332 231.386 497.314 240.239 497.391 251.254Z" fill="url(#paint6_linear_107_2550)"/>
<path fill-rule="evenodd" clip-rule="evenodd" d="M483.12 241.404C483.146 244.653 480.578 247.289 477.38 247.316C474.183 247.343 471.588 244.733 471.562 241.484C471.536 238.235 474.104 235.598 477.302 235.571C480.499 235.545 483.12 238.155 483.12 241.404ZM477.406 249.313C471.483 249.367 466.74 254.267 466.766 260.286C466.766 261.857 468.05 263.135 469.596 263.135L485.4 263.029C486.946 263.029 488.204 261.724 488.204 260.152C488.152 254.107 483.329 249.287 477.406 249.313Z" fill="white"/>
<path d="M501.517 277.427H453.452C452.348 277.427 451.452 278.323 451.452 279.427V284.615C451.452 285.72 452.348 286.615 453.452 286.615H501.517C502.622 286.615 503.517 285.72 503.517 284.615V279.427C503.517 278.323 502.622 277.427 501.517 277.427Z" fill="url(#paint7_linear_107_2550)"/>
<path d="M501.517 293.762H453.452C452.348 293.762 451.452 294.657 451.452 295.762V301.97C451.452 303.075 452.348 303.97 453.452 303.97H501.517C502.622 303.97 503.517 303.075 503.517 301.97V295.762C503.517 294.657 502.622 293.762 501.517 293.762Z" fill="url(#paint8_linear_107_2550)"/>
<path fill-rule="evenodd" clip-rule="evenodd" d="M455.219 280.49C456.16 280.49 456.944 281.26 456.944 282.242C456.944 283.198 456.186 283.995 455.219 283.995C454.278 283.995 453.494 283.225 453.494 282.242C453.494 281.287 454.278 280.49 455.219 280.49ZM482.396 280.49C483.337 280.49 484.121 281.26 484.121 282.242C484.121 283.198 483.363 283.995 482.396 283.995C481.455 283.995 480.671 283.225 480.671 282.242C480.671 281.287 481.429 280.49 482.396 280.49ZM473.328 280.49C474.269 280.49 475.053 281.26 475.053 282.242C475.053 283.198 474.295 283.995 473.328 283.995C472.361 283.995 471.604 283.225 471.604 282.242C471.604 281.287 472.387 280.49 473.328 280.49ZM464.287 280.49C465.227 280.49 466.011 281.26 466.011 282.242C466.011 283.198 465.253 283.995 464.287 283.995C463.346 283.995 462.562 283.225 462.562 282.242C462.562 281.287 463.32 280.49 464.287 280.49ZM455.219 297.403C456.16 297.403 456.944 298.173 456.944 299.155C456.944 300.111 456.186 300.908 455.219 300.908C454.278 300.908 453.494 300.138 453.494 299.155C453.494 298.173 454.278 297.403 455.219 297.403ZM482.396 297.403C483.337 297.403 484.121 298.173 484.121 299.155C484.121 300.111 483.363 300.908 482.396 300.908C481.455 300.908 480.671 300.138 480.671 299.155C480.671 298.173 481.429 297.403 482.396 297.403ZM473.328 297.403C474.269 297.403 475.053 298.173 475.053 299.155C475.053 300.111 474.295 300.908 473.328 300.908C472.361 300.908 471.604 300.138 471.604 299.155C471.604 298.173 472.387 297.403 473.328 297.403ZM464.287 297.403C465.227 297.403 466.011 298.173 466.011 299.155C466.011 300.111 465.253 300.908 464.287 300.908C463.346 300.908 462.562 300.138 462.562 299.155C462.562 298.173 463.32 297.403 464.287 297.403Z" fill="white"/>
<path fill-rule="evenodd" clip-rule="evenodd" d="M474.997 138.563L382.889 140.536L379.722 206.164L473.647 209.202L474.997 138.563Z" fill="url(#paint9_linear_107_2550)"/>
<path fill-rule="evenodd" clip-rule="evenodd" d="M469.858 141.445L468.663 204.035L382.708 201.232L385.486 143.236L469.858 141.445Z" fill="white"/>
<path fill-rule="evenodd" clip-rule="evenodd" d="M401.165 140.147C401.062 138.926 400.75 137.291 400.153 136.019C399.53 134.695 398.595 133.708 397.193 133.708C395.947 133.708 394.857 134.643 394.156 136.175C393.533 137.473 393.144 139.264 393.144 141.211C393.144 143.158 393.533 144.949 394.156 146.247C394.883 147.779 395.947 148.714 397.193 148.714C397.713 148.714 398.128 148.298 398.128 147.779C398.128 147.26 397.713 146.844 397.193 146.844C396.726 146.844 396.259 146.325 395.843 145.468C395.35 144.404 395.039 142.898 395.039 141.237C395.039 139.549 395.35 138.07 395.843 136.979C396.259 136.123 396.726 135.603 397.193 135.603C397.713 135.603 398.128 136.123 398.465 136.824C398.933 137.836 399.192 139.186 399.296 140.198L401.165 140.147ZM456.903 138.952C456.773 137.784 456.461 136.33 455.916 135.188C455.293 133.864 454.359 132.878 452.957 132.878C451.711 132.878 450.62 133.812 449.919 135.344C449.296 136.642 448.907 138.433 448.907 140.38C448.907 142.327 449.296 144.119 449.919 145.417C450.646 146.948 451.711 147.883 452.957 147.883C453.476 147.883 453.891 147.467 453.891 146.948C453.891 146.429 453.476 146.014 452.957 146.014C452.489 146.014 452.022 145.494 451.607 144.638C451.113 143.573 450.802 142.068 450.802 140.38C450.802 138.693 451.113 137.213 451.607 136.149C452.022 135.292 452.489 134.773 452.957 134.773C453.476 134.773 453.891 135.292 454.229 135.993C454.644 136.902 454.904 138.044 455.008 139.004L456.903 138.952ZM438.341 139.342C438.237 138.122 437.926 136.486 437.328 135.188C436.705 133.864 435.771 132.878 434.369 132.878C433.123 132.878 432.058 133.812 431.332 135.344C430.708 136.642 430.345 138.433 430.345 140.38C430.345 142.327 430.734 144.119 431.332 145.417C432.058 146.948 433.123 147.883 434.369 147.883C434.888 147.883 435.303 147.467 435.303 146.948C435.303 146.429 434.888 146.014 434.369 146.014C433.902 146.014 433.434 145.494 433.019 144.638C432.526 143.573 432.214 142.068 432.214 140.406C432.214 138.719 432.526 137.239 433.019 136.149C433.434 135.292 433.902 134.773 434.369 134.773C434.888 134.773 435.304 135.292 435.641 135.993C436.134 137.005 436.368 138.355 436.472 139.368L438.341 139.342ZM419.753 139.731C419.649 138.511 419.338 136.876 418.741 135.578C418.118 134.254 417.183 133.267 415.781 133.267C414.535 133.267 413.445 134.202 412.744 135.733C412.121 137.031 411.731 138.823 411.731 140.77C411.731 142.717 412.121 144.508 412.744 145.806C413.471 147.338 414.535 148.272 415.781 148.272C416.3 148.272 416.716 147.857 416.716 147.338C416.716 146.818 416.3 146.403 415.781 146.403C415.314 146.403 414.847 145.884 414.431 145.027C413.938 143.963 413.626 142.457 413.626 140.77C413.626 139.082 413.938 137.602 414.431 136.538C414.821 135.681 415.314 135.162 415.781 135.162C416.3 135.162 416.716 135.681 417.053 136.382C417.546 137.395 417.78 138.745 417.884 139.757L419.753 139.731Z" fill="url(#paint10_linear_107_2550)"/>
<path fill-rule="evenodd" clip-rule="evenodd" d="M459.861 156.268C457.421 156.294 454.981 156.32 452.541 156.346C452.255 156.346 452.021 156.58 452.021 156.865C451.995 159.487 451.969 162.135 451.969 164.757C451.969 165.043 452.203 165.276 452.489 165.276C454.955 165.276 457.421 165.25 459.887 165.25C460.173 165.25 460.407 165.017 460.407 164.731C460.407 162.083 460.407 159.435 460.407 156.787C460.355 156.502 460.147 156.268 459.861 156.268ZM459.836 170.494C457.369 170.494 454.877 170.494 452.411 170.494C452.125 170.494 451.866 170.728 451.866 171.014C451.84 173.636 451.84 176.284 451.814 178.906C451.814 179.191 452.047 179.425 452.333 179.425C454.825 179.451 457.317 179.451 459.81 179.477C460.121 179.477 460.329 179.243 460.329 178.958C460.329 176.31 460.329 173.662 460.329 171.014C460.355 170.728 460.147 170.494 459.836 170.494ZM400.308 170.468C397.842 170.468 395.35 170.468 392.883 170.468C392.598 170.468 392.338 170.676 392.312 170.962C392.156 173.48 392.001 175.998 391.845 178.516C391.819 178.802 392.053 179.01 392.364 179.01C394.856 179.01 397.348 179.035 399.841 179.061C400.126 179.061 400.386 178.828 400.386 178.568C400.516 176.05 400.645 173.506 400.801 170.962C400.827 170.702 400.594 170.468 400.308 170.468ZM412.198 170.468C409.732 170.468 407.265 170.468 404.773 170.468C404.488 170.468 404.228 170.702 404.228 170.962C404.098 173.506 403.968 176.05 403.865 178.568C403.839 178.854 404.072 179.061 404.384 179.061C406.876 179.087 409.368 179.087 411.86 179.113C412.146 179.113 412.406 178.88 412.406 178.62C412.509 176.076 412.613 173.506 412.717 170.962C412.743 170.702 412.509 170.468 412.198 170.468ZM424.114 170.468C421.648 170.468 419.181 170.468 416.689 170.468C416.404 170.468 416.144 170.702 416.144 170.988C416.04 173.558 415.936 176.102 415.858 178.672C415.858 178.958 416.092 179.191 416.378 179.191C418.87 179.217 421.362 179.217 423.854 179.243C424.14 179.243 424.399 179.01 424.399 178.75C424.477 176.18 424.555 173.584 424.633 171.014C424.633 170.702 424.399 170.468 424.114 170.468ZM436.03 170.468C433.563 170.468 431.071 170.468 428.605 170.468C428.319 170.468 428.06 170.702 428.06 170.988C427.982 173.584 427.904 176.154 427.852 178.75C427.852 179.035 428.086 179.269 428.371 179.269C430.864 179.295 433.356 179.295 435.848 179.321C436.159 179.321 436.393 179.087 436.393 178.802C436.445 176.206 436.497 173.61 436.549 170.988C436.549 170.702 436.315 170.468 436.03 170.468ZM447.946 170.494C445.479 170.494 442.987 170.494 440.521 170.494C440.235 170.494 439.976 170.728 439.976 171.014C439.924 173.61 439.872 176.232 439.846 178.854C439.846 179.139 440.08 179.373 440.365 179.373C442.857 179.399 445.35 179.399 447.842 179.425C448.153 179.425 448.387 179.191 448.387 178.906C448.413 176.284 448.439 173.662 448.465 171.04C448.465 170.702 448.231 170.494 447.946 170.494ZM459.836 184.695C457.343 184.669 454.825 184.643 452.333 184.617C452.047 184.617 451.788 184.851 451.788 185.136C451.762 187.758 451.762 190.406 451.736 193.028C451.736 193.314 451.969 193.547 452.281 193.547C454.799 193.599 457.343 193.625 459.861 193.677C460.147 193.677 460.407 193.444 460.407 193.158C460.407 190.51 460.407 187.862 460.407 185.214C460.355 184.929 460.147 184.695 459.836 184.695ZM399.581 184.046C397.089 184.02 394.571 183.994 392.078 183.968C391.793 183.968 391.533 184.176 391.507 184.461C391.352 186.979 391.196 189.498 391.04 192.016C391.014 192.301 391.248 192.509 391.559 192.509C394.077 192.561 396.596 192.587 399.114 192.639C399.399 192.639 399.685 192.431 399.685 192.146C399.815 189.627 399.945 187.083 400.074 184.539C400.1 184.279 399.867 184.046 399.581 184.046ZM411.627 184.176C409.135 184.15 406.616 184.124 404.124 184.098C403.813 184.098 403.579 184.305 403.553 184.591C403.423 187.135 403.319 189.679 403.19 192.223C403.164 192.509 403.397 192.717 403.683 192.717C406.201 192.769 408.745 192.795 411.263 192.846C411.575 192.846 411.808 192.639 411.834 192.353C411.938 189.809 412.042 187.239 412.146 184.695C412.146 184.409 411.912 184.176 411.627 184.176ZM423.672 184.305C421.18 184.279 418.662 184.254 416.17 184.228C415.858 184.228 415.625 184.461 415.625 184.721C415.521 187.291 415.417 189.835 415.313 192.405C415.313 192.691 415.521 192.898 415.832 192.924C418.351 192.976 420.869 193.002 423.387 193.054C423.672 193.054 423.932 192.846 423.932 192.561C424.01 189.991 424.088 187.395 424.166 184.825C424.218 184.539 423.958 184.305 423.672 184.305ZM435.718 184.435C433.226 184.409 430.708 184.383 428.216 184.357C427.93 184.357 427.67 184.591 427.67 184.851C427.593 187.447 427.541 190.017 427.463 192.613C427.463 192.898 427.696 193.132 427.982 193.132C430.5 193.184 433.018 193.21 435.562 193.262C435.848 193.262 436.108 193.054 436.108 192.769C436.159 190.173 436.211 187.551 436.263 184.954C436.263 184.669 436.03 184.435 435.718 184.435ZM447.79 184.565C445.298 184.539 442.779 184.513 440.287 184.487C440.002 184.487 439.742 184.721 439.742 185.006C439.69 187.602 439.664 190.224 439.612 192.846C439.612 193.132 439.846 193.366 440.131 193.366C442.65 193.418 445.194 193.444 447.712 193.495C447.998 193.495 448.257 193.262 448.257 193.002C448.283 190.38 448.309 187.732 448.335 185.11C448.309 184.799 448.075 184.565 447.79 184.565ZM401.009 156.891C398.569 156.917 396.128 156.943 393.688 156.969C393.402 156.969 393.143 157.203 393.117 157.462C392.961 159.98 392.805 162.499 392.65 165.017C392.624 165.302 392.857 165.51 393.143 165.51C395.609 165.51 398.075 165.484 400.542 165.484C400.827 165.484 401.087 165.25 401.087 164.991C401.217 162.447 401.346 159.929 401.476 157.384C401.528 157.099 401.32 156.891 401.009 156.891ZM412.795 156.761C410.355 156.787 407.914 156.813 405.474 156.839C405.189 156.839 404.929 157.073 404.929 157.358C404.799 159.903 404.669 162.447 404.54 164.965C404.54 165.25 404.747 165.458 405.059 165.458C407.525 165.458 409.991 165.432 412.458 165.432C412.743 165.432 413.003 165.199 413.003 164.913C413.107 162.369 413.21 159.799 413.314 157.255C413.314 156.995 413.081 156.761 412.795 156.761ZM424.555 156.632C422.115 156.657 419.675 156.683 417.234 156.709C416.949 156.709 416.689 156.943 416.689 157.229C416.585 159.799 416.481 162.343 416.378 164.913C416.378 165.199 416.611 165.406 416.897 165.406C419.363 165.406 421.829 165.38 424.296 165.38C424.581 165.38 424.815 165.147 424.841 164.861C424.919 162.291 424.996 159.695 425.074 157.125C425.074 156.865 424.841 156.632 424.555 156.632ZM436.315 156.528C433.875 156.554 431.435 156.58 428.994 156.606C428.709 156.606 428.475 156.839 428.449 157.125C428.371 159.721 428.293 162.291 428.216 164.887C428.216 165.173 428.449 165.406 428.735 165.406C431.201 165.406 433.667 165.38 436.134 165.38C436.419 165.38 436.679 165.147 436.679 164.861C436.731 162.265 436.783 159.643 436.834 157.047C436.834 156.735 436.601 156.502 436.315 156.528ZM448.075 156.398C445.635 156.424 443.195 156.45 440.755 156.476C440.469 156.476 440.235 156.709 440.209 156.995C440.157 159.617 440.105 162.213 440.08 164.835C440.08 165.121 440.313 165.354 440.599 165.354C443.065 165.354 445.531 165.328 447.998 165.328C448.283 165.328 448.517 165.095 448.517 164.809C448.543 162.187 448.569 159.565 448.595 156.943C448.595 156.632 448.361 156.398 448.075 156.398Z" fill="url(#paint11_linear_107_2550)"/>
<path fill-rule="evenodd" clip-rule="evenodd" d="M224.814 188.771L366.143 188.667C370.271 188.667 373.646 192.042 373.646 196.143V281.294C373.646 285.422 370.271 288.797 366.143 288.797L224.814 288.9C220.686 288.9 217.312 285.526 217.312 281.424V196.273C217.312 192.146 220.686 188.771 224.814 188.771Z" fill="url(#paint12_linear_107_2550)"/>
<path fill-rule="evenodd" clip-rule="evenodd" d="M231.576 196.865L358.936 196.778C362.656 196.778 365.697 199.631 365.697 203.098V275.081C365.697 278.57 362.656 281.423 358.936 281.423L231.576 281.511C227.857 281.511 224.815 278.658 224.815 275.191V203.208C224.815 199.718 227.857 196.865 231.576 196.865Z" fill="white"/>
<path fill-rule="evenodd" clip-rule="evenodd" d="M236.86 246.637L270.505 228.672L286.86 235.526L303.683 213.277L320.324 229.607L336.783 206.943L354.15 217.587L353.138 219.248L337.276 209.513L320.557 232.54L303.89 216.185L287.483 237.888L270.609 230.801L237.769 248.324L236.86 246.637Z" fill="url(#paint13_linear_107_2550)"/>
<path d="M242.778 261.071H231.875V281.839H242.778V261.071Z" fill="url(#paint14_linear_107_2550)"/>
<path d="M259.394 254.347H248.49V281.839H259.394V254.347Z" fill="url(#paint15_linear_107_2550)"/>
<path d="M276.008 242.95H265.104V281.839H276.008V242.95Z" fill="url(#paint16_linear_107_2550)"/>
<path fill-rule="evenodd" clip-rule="evenodd" d="M281.72 250.868H292.623V281.813H281.72V250.868Z" fill="url(#paint17_linear_107_2550)"/>
<path d="M309.237 229.659H298.334V281.787H309.237V229.659Z" fill="url(#paint18_linear_107_2550)"/>
<path d="M325.853 247.961H314.949V281.761H325.853V247.961Z" fill="#AAB9DE"/>
<path d="M342.493 222.701H331.59V281.761H342.493V222.701Z" fill="url(#paint19_linear_107_2550)"/>
<path fill-rule="evenodd" clip-rule="evenodd" d="M237.326 244.222C239.118 244.222 240.572 245.676 240.572 247.467C240.572 249.259 239.118 250.713 237.326 250.739C235.535 250.739 234.081 249.285 234.081 247.493C234.055 245.676 235.509 244.222 237.326 244.222ZM270.556 226.491C272.347 226.491 273.801 227.945 273.801 229.736C273.801 231.528 272.347 232.981 270.556 233.007C268.765 233.007 267.311 231.554 267.311 229.762C267.285 227.945 268.765 226.491 270.556 226.491ZM287.171 233.449C288.962 233.449 290.416 234.903 290.416 236.694C290.416 238.485 288.962 239.939 287.171 239.965C285.379 239.965 283.926 238.511 283.926 236.72C283.926 234.903 285.379 233.449 287.171 233.449ZM303.785 211.486C305.577 211.486 307.031 212.94 307.031 214.731C307.031 216.522 305.577 217.976 303.785 218.002C301.994 218.002 300.54 216.548 300.54 214.757C300.54 212.94 301.994 211.486 303.785 211.486ZM320.426 227.815C322.217 227.815 323.671 229.269 323.671 231.06C323.671 232.852 322.217 234.305 320.426 234.331C318.635 234.331 317.181 232.878 317.181 231.086C317.181 229.269 318.635 227.815 320.426 227.815ZM337.015 204.97C338.806 204.97 340.26 206.424 340.26 208.215C340.26 210.006 338.806 211.486 337.015 211.486C335.224 211.486 333.77 210.032 333.77 208.241C333.77 206.45 335.224 204.97 337.015 204.97Z" fill="url(#paint20_linear_107_2550)"/>
<path fill-rule="evenodd" clip-rule="evenodd" d="M357.656 255.126C358.15 255.515 359.655 256.943 361.628 258.475C362.147 261.045 364.146 263.537 367.625 265.977C370.455 265.925 372.558 264.705 373.934 262.317C370.974 260.526 369.001 258.553 367.989 256.424C371.208 257.8 372.402 257.54 371.597 255.671C371.104 255.749 370.559 255.619 369.962 255.23C368.56 253.698 366.613 253.257 364.12 253.854C363.29 253.101 362.433 252.322 361.966 251.933C361.083 253.179 359.759 254.191 357.656 255.126Z" fill="url(#paint21_linear_107_2550)"/>
<path fill-rule="evenodd" clip-rule="evenodd" d="M365.081 247.753C364.458 247.753 362.381 247.909 359.889 247.883C357.89 249.57 354.775 250.271 350.543 249.986C348.388 248.168 347.506 245.91 347.921 243.184C351.348 243.651 354.126 243.34 356.254 242.301C356.28 241.782 358.747 242.042 360.875 242.717C361.992 242.665 363.16 242.561 363.757 242.561C363.601 244.093 364.017 245.728 365.081 247.753Z" fill="url(#paint22_linear_107_2550)"/>
<path fill-rule="evenodd" clip-rule="evenodd" d="M363.834 253.516C361.03 250.245 354.281 242.457 351.01 239.42C350.335 233.059 346.155 211.668 336.446 212.784C335.122 213.485 334.187 215.276 334.499 219.404C334.551 220.313 334.836 221.221 335.096 222.078C335.511 223.48 335.978 224.856 336.472 226.232C337.692 229.581 342.209 240.121 344.208 243.392C346.103 246.507 355.89 254.373 360.355 257.566L363.834 253.516Z" fill="url(#paint23_linear_107_2550)"/>
<path fill-rule="evenodd" clip-rule="evenodd" d="M400.828 218.625C401.84 215.951 403.631 213.485 405.63 211.486C407.811 209.28 409.654 207.384 410.355 204.217C410.9 201.881 410.874 199.466 410.9 197.052C410.952 193.184 411.316 189.004 413.522 185.681C415.443 182.774 418.585 180.801 422.115 180.749C426.632 180.671 430.942 183.423 433.226 187.265C435.641 191.341 435.9 196.118 437.64 200.453C438.626 202.867 440.262 205.022 441.638 207.229C443.663 210.474 446.077 213.667 447.011 217.405C449.14 226.05 444.467 235.318 436.212 238.615C435.433 238.926 434.628 239.186 433.824 239.368C433.46 239.446 433.071 239.524 432.707 239.601C426.996 240.562 421.207 239.835 415.651 238.303C412.38 237.395 409.161 236.201 406.383 234.228C401.529 230.723 398.595 224.544 400.828 218.625Z" fill="#0A2F60"/>
<path fill-rule="evenodd" clip-rule="evenodd" d="M425.854 206.917C427.697 207.981 428.242 209.695 429.488 210.344C433.097 210.681 436.627 210.967 438.315 212.135C444.909 220.105 450.257 227.166 454.307 233.319C459.499 238.745 448.517 250.141 442.598 255.178C442.105 255.593 440.755 255.385 439.431 257.358C437.614 256.735 437.38 256.917 436.705 254.425C437.588 252.374 437.588 251.388 437.796 250.868C439.353 247.208 444.857 238.2 445.688 236.876C440.937 232.696 437.043 228.88 434.005 225.401C434.161 226.725 434.135 228.231 433.928 229.918C433.85 230.593 434.187 231.606 434.031 232.332C433.824 233.371 433.434 234.305 432.422 235.474C431.825 236.175 432.526 236.953 431.877 237.81C431.046 238.9 431.955 240.614 430.864 241.912C430.163 242.743 429.54 243.781 429.047 244.871C421.077 251.154 409.213 251.232 406.202 247.13C406.591 243.703 404.696 239.134 405.527 237.525C404.462 235.37 406.721 233.267 405.449 231.424C396.96 250.531 388.263 248.584 366.794 248.895C365.47 248.921 363.497 247.909 361.472 248.091L361.653 242.639C363.6 242.639 365.184 241.73 366.248 241.574C373.985 240.406 378.372 239.498 384.654 239.108C398.933 238.226 396.207 210.5 414.042 210.136C414.691 209.357 415.651 208.708 416.949 208.163C416.197 212.265 415.911 217.223 415.963 220.702C421.804 216.393 425.127 210.759 425.854 206.917Z" fill="url(#paint24_linear_107_2550)"/>
<path fill-rule="evenodd" clip-rule="evenodd" d="M365.522 248.714C364.353 248.428 362.9 247.961 361.472 248.091L361.653 242.639C363.185 242.639 364.509 242.068 365.522 241.756V248.714ZM442.469 255.256C441.897 255.567 440.677 255.541 439.431 257.332C437.614 256.709 437.38 256.891 436.705 254.373C437.536 252.426 437.588 251.439 437.77 250.92C438.237 252.582 439.795 254.036 442.469 255.256Z" fill="#9AA8D0"/>
<path fill-rule="evenodd" clip-rule="evenodd" d="M435.668 280.463C438.445 263.174 436.187 251.413 428.866 245.157C423.622 247.779 406.124 242.483 406.67 249.57C407.786 264.238 402.334 286.772 402.646 308.994C410.668 311.824 423.232 311.694 440.314 308.631C438.393 300.012 436.836 290.614 435.668 280.463Z" fill="url(#paint25_linear_107_2550)"/>
<path fill-rule="evenodd" clip-rule="evenodd" d="M414.016 210.136C414.042 211.798 414.119 217.301 415.963 220.624C415.911 217.146 416.17 212.291 416.923 208.163C415.651 208.708 414.665 209.383 414.016 210.136ZM425.854 206.917C425.127 210.785 421.804 216.393 415.937 220.702C421.674 218.677 429.229 213.537 429.488 210.344C428.242 209.695 427.671 207.956 425.854 206.917Z" fill="#9AA8D0"/>
<path fill-rule="evenodd" clip-rule="evenodd" d="M436.783 254.295L436.731 254.373C436.108 253.698 435.511 252.244 434.603 251.699C434.239 251.465 433.694 252.063 433.305 251.881C431.513 251.024 429.514 250.79 427.931 251.985C427.541 252.296 427.308 252.867 427.256 254.269C427.334 256.19 428.943 256.554 431.176 255.645C434.161 258.916 436.16 259.98 437.796 258.838C438.367 258.319 438.912 257.826 439.457 257.332C438.081 256.813 437.355 256.138 436.783 254.295Z" fill="url(#paint26_linear_107_2550)"/>
<path fill-rule="evenodd" clip-rule="evenodd" d="M436.992 357.099C434.941 364.809 435.616 368.911 439.51 369.456C444.676 369.82 446.078 364.731 444.053 354.217C444.105 354.788 444.131 355.308 444.157 355.801C444.728 366.808 436.187 364.342 436.784 359.28C436.862 358.579 436.914 357.852 436.992 357.099Z" fill="url(#paint27_linear_107_2550)"/>
<path fill-rule="evenodd" clip-rule="evenodd" d="M436.784 359.28C436.186 364.342 444.727 366.808 444.156 355.801C444.13 355.334 444.104 354.788 444.052 354.217C443.715 349.726 442.754 342.535 442.832 338.018C443.014 326.439 441.976 316.6 439.743 308.475C435.589 309.202 431.721 309.747 428.139 310.11C430.086 316.886 431.773 323.065 433.201 328.672C434.966 335.552 438.237 345.754 437.407 352.763C437.225 354.269 437.121 355.723 436.991 357.099C436.913 357.852 436.861 358.579 436.784 359.28Z" fill="url(#paint28_linear_107_2550)"/>
<path fill-rule="evenodd" clip-rule="evenodd" d="M402.619 360.604C405.605 360.759 402.879 363.07 404.826 363.615C409.058 361.305 411.42 354.97 413.107 352.192C413.99 350.713 414.639 352.582 415.08 354.685C416.015 359.176 415.989 365.095 414.925 366.964C414.146 365.614 413.471 361.46 412.77 358.916C408.616 362.628 409.525 366.704 407.059 368.08C401.14 368.729 397.947 368.911 393.429 368.989C392.443 365.147 400.257 366.445 402.619 360.604Z" fill="url(#paint29_linear_107_2550)"/>
<path fill-rule="evenodd" clip-rule="evenodd" d="M404.827 309.306C405.398 331.528 407.449 351.31 403.736 360.889C404.775 361.564 403.217 363.2 404.827 363.615C409.058 361.304 411.421 354.97 413.108 352.192C413.108 352.166 413.134 352.166 413.134 352.14C412.9 351.543 412.719 350.868 412.615 350.116C412.693 331.684 417.288 320.339 416.405 310.733C411.914 310.655 408.046 310.188 404.827 309.306ZM416.846 205.749C417.21 207.177 417.184 208.371 416.743 209.357C416.145 213.2 415.912 217.535 415.964 220.676C421.571 216.574 424.842 211.253 425.751 207.41C424.998 206.216 424.712 204.814 424.842 203.205C424.712 202.452 425.128 201.05 426.114 199.025C429.463 198.454 430.294 195.624 428.918 193.392C427.36 192.846 426.504 194.119 426.088 196.455C425.206 196.325 425.543 194.897 425.621 194.222C426.036 192.275 425.699 191.237 424.972 189.394C420.143 178.438 417.002 184.15 411.992 190.718C412.148 192.042 412.277 193.314 412.355 194.534C410.824 198.272 413.134 204.503 416.846 205.749Z" fill="url(#paint30_linear_107_2550)"/>
<path fill-rule="evenodd" clip-rule="evenodd" d="M416.847 205.749C419.105 206.008 420.118 205.983 422.195 205.152C420.974 206.476 419.287 207.177 417.106 207.307C417.08 206.839 416.976 206.32 416.847 205.749Z" fill="#FFB2AE"/>
<path fill-rule="evenodd" clip-rule="evenodd" d="M421.025 183.527C419.935 183.656 419.364 183.241 418.455 183.579C413.315 185.448 410.719 190.848 411.784 194.871C413.731 188.719 420.325 188.433 421.025 183.527Z" fill="#0A2F60"/>
<path fill-rule="evenodd" clip-rule="evenodd" d="M430.112 224.233C430.293 223.999 430.268 223.662 430.034 223.454C429.8 223.272 429.463 223.298 429.255 223.532C426.893 226.388 424.063 228.698 420.792 230.437C417.495 232.177 413.757 233.371 409.525 234.02C409.214 234.072 409.006 234.331 409.058 234.643C409.11 234.954 409.369 235.162 409.681 235.11C414.016 234.461 417.884 233.215 421.285 231.424C424.712 229.607 427.646 227.218 430.112 224.233ZM429.437 229.113C429.619 228.88 429.593 228.542 429.359 228.335C429.125 228.153 428.788 228.179 428.58 228.412C424.53 233.293 421.856 235.11 415.963 235.993C415.652 236.045 415.444 236.304 415.496 236.616C415.548 236.927 415.807 237.135 416.119 237.083C422.401 236.149 425.127 234.331 429.437 229.113Z" fill="#4E53CE"/>
<path d="M328.891 190.718C330.74 190.718 332.24 189.23 332.24 187.395C332.24 185.56 330.74 184.072 328.891 184.072C327.041 184.072 325.542 185.56 325.542 187.395C325.542 189.23 327.041 190.718 328.891 190.718Z" fill="#0F3970"/>
<path fill-rule="evenodd" clip-rule="evenodd" d="M335.874 365.225L338.392 355.853L330.319 354.892L328.527 365.38L334.005 368.677L335.874 365.225Z" fill="url(#paint31_linear_107_2550)"/>
<path fill-rule="evenodd" clip-rule="evenodd" d="M325.881 368.963C326.166 368.158 326.686 367.483 327.075 366.756C327.205 366.523 328.347 364.342 328.477 364.368L328.659 364.42L334.396 365.77L335.98 363.952L336.213 363.693C337.174 364.29 338.134 364.887 339.069 365.458C340.964 366.626 342.859 367.821 344.754 368.989C346.156 369.871 347.558 370.728 348.986 371.611C349.323 371.819 349.583 372.208 349.635 372.623C349.687 373.039 349.219 373.817 348.596 373.895C347.402 374.051 345.845 373.999 344.65 373.947C342.262 373.843 340.133 373.532 337.771 373.35C335.408 373.168 333.228 372.857 330.917 372.519C330.009 372.39 329.074 372.26 328.114 372.104C328.062 372.104 328.01 372.078 327.984 372.078C327.361 371.974 326.426 371.793 325.985 371.325C325.414 370.702 325.621 369.69 325.881 368.963Z" fill="url(#paint32_linear_107_2550)"/>
<path fill-rule="evenodd" clip-rule="evenodd" d="M316.509 258.423C316.509 258.423 317.911 273.013 319.157 281.891C319.416 283.682 319.65 285.24 319.884 286.408C320.585 290.017 323.648 299.726 326.322 307.904C328.58 314.809 330.527 320.598 330.527 320.598L327.568 360.188L338.575 361.097C338.575 361.097 347.558 332.229 347.558 319.586C347.558 311.85 342.781 287.473 340.237 278.672C338.991 274.363 338.29 258.475 338.29 258.475H316.509V258.423Z" fill="url(#paint33_linear_107_2550)"/>
<path fill-rule="evenodd" clip-rule="evenodd" d="M319.155 281.891C319.415 283.682 319.649 285.24 319.882 286.408C320.583 290.017 323.646 299.726 326.32 307.904C327.592 305.126 328.345 301.491 328.345 297.519C328.345 288.823 324.711 281.787 320.22 281.787C319.856 281.735 319.519 281.787 319.155 281.891Z" fill="#09378C"/>
<path fill-rule="evenodd" clip-rule="evenodd" d="M327.464 258.449C327.464 258.449 325.751 272.416 324.375 281.398C324.063 283.501 323.752 285.318 323.492 286.642C322.635 291.055 321.623 297.545 320.584 304.866C317.261 328.594 313.653 361.175 313.653 361.175H302.36C302.36 361.175 300.932 299.7 303.71 278.646C304.307 274.207 305.657 258.449 305.657 258.449H327.464Z" fill="url(#paint34_linear_107_2550)"/>
<path fill-rule="evenodd" clip-rule="evenodd" d="M311.265 366.6L311.602 357.592L303.866 357.93L303.97 367.379L309.707 370.183L311.265 366.6Z" fill="url(#paint35_linear_107_2550)"/>
<path fill-rule="evenodd" clip-rule="evenodd" d="M301.659 371.195C301.867 370.365 302.334 369.664 302.672 368.885C302.776 368.651 303.71 366.393 303.866 366.393L304.048 366.419L309.863 367.275L311.291 365.328L311.498 365.069C312.511 365.562 313.497 366.081 314.51 366.574C316.509 367.587 318.508 368.573 320.481 369.586C321.961 370.339 323.44 371.066 324.92 371.819C325.284 372 325.569 372.364 325.647 372.753C325.725 373.168 325.335 373.973 324.712 374.129C323.544 374.389 321.987 374.492 320.792 374.518C318.404 374.622 316.275 374.492 313.887 374.518C311.524 374.544 309.318 374.415 306.981 374.285C306.073 374.233 305.138 374.181 304.152 374.129C304.1 374.129 304.048 374.129 304.022 374.129C303.399 374.103 302.464 373.999 301.971 373.558C301.322 372.961 301.452 371.922 301.659 371.195Z" fill="url(#paint36_linear_107_2550)"/>
<path fill-rule="evenodd" clip-rule="evenodd" d="M301.581 356.138V361.538L314.354 361.824L314.847 356.424L301.581 356.138Z" fill="url(#paint37_linear_107_2550)"/>
<path fill-rule="evenodd" clip-rule="evenodd" d="M326.555 355.723L326.218 361.33L339.432 362.499L340.652 356.658L326.555 355.723Z" fill="url(#paint38_linear_107_2550)"/>
<path fill-rule="evenodd" clip-rule="evenodd" d="M309.37 225.479C313.394 230.308 316.794 233.812 319.52 235.967C317.028 227.114 314.354 217.587 311.524 207.384C310.512 208.241 309.707 209.072 309.11 209.903C308.876 214.03 308.824 217.197 308.954 219.378C310.434 220.546 311.628 221.273 312.511 221.559C311.135 222.805 310.097 224.103 309.37 225.479ZM334.629 223.116C332.682 227.452 330.476 231.398 328.035 234.954C328.762 224.155 329.126 215.043 329.126 207.644C330.216 208.267 331.047 208.838 331.644 209.487C331.774 209.617 331.877 209.773 331.981 209.903C333.15 214.03 333.876 217.275 334.24 219.612C333.15 220.105 332.241 220.546 331.488 220.884C332.475 221.559 333.539 222.312 334.629 223.116Z" fill="url(#paint39_linear_107_2550)"/>
<path fill-rule="evenodd" clip-rule="evenodd" d="M319.467 213.952C317.261 211.045 315.418 208.397 313.393 206.761C313.6 205.879 313.756 205.204 313.99 204.555C314.094 204.243 314.794 203.88 315.703 203.698C315.625 203.854 315.443 204.451 315.599 204.555C315.625 204.581 315.677 204.607 315.703 204.633C317.858 206.372 320.116 207.852 322.868 209.176C321.544 210.707 320.636 212.317 319.467 213.952ZM328.164 207.54C328.216 209.435 328.164 210.967 328.034 212.187C327.567 210.785 326.736 209.669 325.516 208.786C325.334 207.203 325.205 205.697 325.127 204.321C326.451 204.814 327.463 205.879 328.164 207.54Z" fill="#D0D9EE"/>
<path fill-rule="evenodd" clip-rule="evenodd" d="M330.812 266.523C330.422 262.239 330.007 257.255 329.514 251.595C329.072 246.559 328.579 241.003 328.008 234.929C328.709 224.311 329.072 215.328 329.098 207.981C328.813 207.878 328.501 207.774 328.138 207.67C328.19 209.487 328.138 210.967 328.008 212.135C327.541 210.733 326.71 209.617 325.49 208.734C325.1 209.461 324.997 210.266 324.374 211.149C323.725 210.474 323.102 209.799 322.686 209.305C321.44 210.785 320.557 212.343 319.441 213.9C317.26 211.019 315.417 208.397 313.444 206.761C312.769 207.099 312.146 207.436 311.627 207.774C314.431 217.821 317.053 227.192 319.519 235.915C320.064 244.612 320.038 254.918 319.467 266.808C320.454 266.964 321.466 267.068 322.504 267.12V267.016C322.504 266.782 322.712 266.574 322.946 266.574L327.203 266.445C327.437 266.445 327.645 266.626 327.645 266.86V266.938C328.657 266.886 329.721 266.73 330.812 266.523Z" fill="#C8D0E7"/>
<path fill-rule="evenodd" clip-rule="evenodd" d="M327.022 213.355C326.269 212.135 325.387 211.434 324.4 211.201C323.673 211.512 322.868 212.265 322.012 213.459C322.661 214.601 323.362 215.406 324.115 215.848C322.713 224.622 322.09 236.824 322.193 252.478C323.258 254.814 324.296 256.502 325.309 257.514C326.529 255.723 327.282 253.854 327.593 251.933C326.633 235.5 326.062 223.532 325.88 215.977C326.529 215.069 326.918 214.186 327.022 213.355Z" fill="url(#paint40_linear_107_2550)"/>
<path fill-rule="evenodd" clip-rule="evenodd" d="M319.234 270.988C323.466 271.663 327.438 271.403 331.124 270.209C331.02 269.041 330.891 267.821 330.787 266.548C326.711 267.301 322.921 267.431 319.442 266.886C319.39 268.21 319.312 269.586 319.234 270.988Z" fill="#9D7558"/>
<path fill-rule="evenodd" clip-rule="evenodd" d="M322.921 266.626L327.178 266.497C327.412 266.497 327.62 266.678 327.62 266.912V271.455C327.62 271.689 327.412 271.896 327.178 271.896L322.921 272.026C322.687 272.026 322.479 271.844 322.479 271.611V267.042C322.479 266.834 322.687 266.626 322.921 266.626Z" fill="white"/>
<path fill-rule="evenodd" clip-rule="evenodd" d="M323.336 267.431V271.221L326.763 271.118V267.353L323.336 267.431Z" fill="#9D7558"/>
<path fill-rule="evenodd" clip-rule="evenodd" d="M309.11 209.903C291.197 221.922 304.125 237.213 304.982 253.361C304.333 260.733 303.995 269.56 302.022 279.788C304.489 282.151 310.044 281.034 318.455 281.476C321.155 273.48 323.829 262.317 323.466 253.516C323.206 247.078 321.415 241.808 319.52 235.941C316.794 233.786 313.393 230.282 309.369 225.453C310.096 224.077 311.134 222.779 312.484 221.559C311.576 221.273 310.408 220.52 308.928 219.378C308.824 217.197 308.876 214.056 309.11 209.903Z" fill="url(#paint41_linear_107_2550)"/>
<path fill-rule="evenodd" clip-rule="evenodd" d="M323.544 255.126C323.336 269.326 329.93 276.439 330.969 280.619C334.992 280.178 340.003 280.879 341.872 279.01C341.379 264.368 339.665 255.022 338.938 246.481C340.236 232.436 342.91 219.508 340.029 213.511C336.94 211.434 334.24 210.214 331.955 209.903C333.123 214.03 333.85 217.275 334.214 219.612C333.123 220.105 332.215 220.546 331.462 220.884C332.474 221.559 333.539 222.312 334.603 223.142C328.087 233.76 323.778 238.381 323.544 255.126Z" fill="url(#paint42_linear_107_2550)"/>
<path fill-rule="evenodd" clip-rule="evenodd" d="M322.012 210.266C321.518 210.915 321.077 211.59 320.636 212.265C321.051 212.551 321.57 212.862 322.193 213.226C322.765 212.473 323.31 211.902 323.829 211.564C323.206 211.071 322.609 210.655 322.012 210.266ZM326.036 209.202C325.802 210.006 325.49 210.759 325.075 211.46C325.646 211.746 326.165 212.187 326.633 212.81C326.892 212.395 327.126 211.668 327.308 210.655C326.97 210.11 326.529 209.643 326.036 209.202Z" fill="#0F3D86"/>
<path fill-rule="evenodd" clip-rule="evenodd" d="M315.496 204.451C315.73 203.958 315.911 203.542 316.041 203.179C315.808 202.53 315.574 201.725 315.34 200.738C311.135 197.883 310.564 195.78 313.627 194.404C314.25 194.742 315.003 195.806 315.911 197.597C316.638 197.571 315.782 195.91 316.145 195.209C315.288 192.197 316.145 191.029 315.86 189.16C317.936 186.071 322.765 185.629 329.177 186.46C329.463 188.174 329.722 189.965 329.904 191.886C331.046 192.924 330.891 196.792 329.852 201.258C330.294 203.412 329.229 204.736 326.633 205.23V205.204C326.296 205.256 326.01 205.308 325.776 205.333C325.569 205.359 325.361 205.359 325.153 205.385C325.231 205.801 325.361 207.281 325.387 207.696C325.413 208.033 325.465 208.397 325.491 208.734C325.179 209.331 325.05 210.006 324.66 210.707C324.504 210.785 324.323 210.837 324.141 210.889C323.57 210.292 323.051 209.747 322.713 209.305C322.765 209.228 322.817 209.176 322.895 209.098C322.713 209.02 322.557 208.942 322.402 208.864C319.754 207.618 317.573 206.164 315.496 204.451Z" fill="url(#paint43_linear_107_2550)"/>
<path fill-rule="evenodd" clip-rule="evenodd" d="M325.153 205.411C324.011 205.515 322.739 205.463 321.285 205.308C322.635 206.216 323.985 206.839 325.335 207.229C325.309 206.969 325.283 206.709 325.257 206.45C325.231 206.008 325.179 205.619 325.153 205.411Z" fill="#F19F6D"/>
<path fill-rule="evenodd" clip-rule="evenodd" d="M312.615 185.11C312.303 183.916 312.693 182.592 313.472 181.683C314.25 180.775 315.341 180.256 316.483 180.074C317.599 179.892 318.767 180.022 319.91 180.23C321 180.437 322.09 180.775 323.181 180.697C324.531 180.619 325.829 179.918 326.737 178.828C327.568 177.789 329.385 177.945 330.502 178.672C331.592 179.399 332.682 180.671 332.916 182.021C333.124 183.319 333.02 185.5 330.969 186.694C328.555 188.096 320.974 187.602 319.936 187.576C318.923 187.551 317.807 187.81 317.132 188.641C316.016 190.017 318.222 199.7 315.756 203.62C310.097 198.454 310.408 191.574 309.941 189.446C309.759 188.537 309.629 187.602 309.733 186.694C309.785 186.356 309.863 185.993 310.045 185.707C310.33 185.266 310.824 185.032 311.317 184.98C311.784 185.006 312.122 184.98 312.615 185.11Z" fill="#0F3970"/>
<path fill-rule="evenodd" clip-rule="evenodd" d="M319.078 199.726C317.858 200.089 316.43 199.752 315.521 198.843C314.743 198.09 314.353 196.974 314.457 195.884C314.483 195.702 314.509 195.494 314.561 195.313C314.665 194.975 314.794 194.664 315.028 194.378C315.573 193.703 316.508 193.444 317.339 193.651C318.169 193.885 318.844 194.56 319.104 195.365V197.026L319.078 199.726Z" fill="url(#paint44_linear_107_2550)"/>
<path fill-rule="evenodd" clip-rule="evenodd" d="M342.65 248.013C343.273 248.013 345.35 248.168 347.843 248.142C349.841 249.83 352.957 250.531 357.214 250.245C359.369 248.428 360.252 246.169 359.836 243.444C356.409 243.885 353.632 243.599 351.503 242.561C354.878 241.626 355.657 240.666 353.865 239.705C353.554 240.069 353.035 240.302 352.334 240.38C350.309 240.069 348.492 240.925 346.908 242.976C345.792 242.924 344.623 242.821 344.026 242.821C344.13 244.352 343.715 245.988 342.65 248.013Z" fill="url(#paint45_linear_107_2550)"/>
<path fill-rule="evenodd" clip-rule="evenodd" d="M307.916 219.352C306.774 217.561 305.554 215.77 304.23 213.978C298.778 220.209 298.96 228.672 301.764 237.94C303.763 241.107 308.202 246.896 312.148 250.635C320.949 252.192 330.684 251.232 345.819 248.532C346.598 247.078 346.702 244.534 346.364 242.353C332.008 241.497 323.337 240.354 317.444 241.159C314.822 231.476 310.772 225.479 307.916 219.352Z" fill="url(#paint46_linear_107_2550)"/>
<path fill-rule="evenodd" clip-rule="evenodd" d="M354.255 244.352C351.009 245.676 349.815 245.391 350.646 243.521C351.139 243.625 351.684 243.496 352.282 243.132C353.606 241.756 355.838 241.86 358.071 242.327L354.255 244.352Z" fill="url(#paint47_linear_107_2550)"/>
<path fill-rule="evenodd" clip-rule="evenodd" d="M418.378 182.54C425.413 184.487 427.568 189.783 425.647 194.3C424.635 187.914 418.352 187.499 418.378 182.54Z" fill="#0A2F60"/>
<path fill-rule="evenodd" clip-rule="evenodd" d="M538.348 219.194C536.086 226.002 534.812 226.703 528.053 225.56C534.526 227.769 535.306 228.99 534.058 236.057C536.32 229.25 537.594 228.548 544.352 229.691C537.854 227.457 537.074 226.262 538.348 219.194ZM385.964 83.4595C383.702 90.267 382.428 90.9685 375.67 89.8253C382.142 92.0338 382.922 93.255 381.675 100.322C383.936 93.5149 385.21 92.8133 391.969 93.9566C385.47 91.748 384.69 90.5268 385.964 83.4595ZM276.966 304.288C274.704 311.096 273.431 311.798 266.672 310.654C273.145 312.863 273.925 314.084 272.677 321.151C274.938 314.344 276.212 313.642 282.971 314.786C276.498 312.577 275.718 311.356 276.966 304.288ZM486.721 337.131C484.46 343.938 483.186 344.64 476.427 343.497C482.9 345.705 483.68 346.926 482.432 353.994C484.693 347.186 485.967 346.485 492.726 347.628C486.253 345.419 485.473 344.198 486.721 337.131Z" fill="#FA963D"/>
<defs>
<linearGradient id="paint0_linear_107_2550" x1="370" y1="-43.12" x2="370" y2="483.12" gradientUnits="userSpaceOnUse">
<stop stop-color="#FFC36D"/>
<stop offset="1" stop-color="#F46C19"/>
</linearGradient>
<linearGradient id="paint1_linear_107_2550" x1="177.692" y1="267.219" x2="178.626" y2="355.162" gradientUnits="userSpaceOnUse">
<stop offset="0.13627" stop-color="#F68CFF"/>
<stop offset="0.921622" stop-color="#630285"/>
</linearGradient>
<linearGradient id="paint2_linear_107_2550" x1="189.085" y1="371.349" x2="177.433" y2="291.306" gradientUnits="userSpaceOnUse">
<stop stop-color="#006D5E"/>
<stop offset="1" stop-color="#10F1D3"/>
</linearGradient>
<linearGradient id="paint3_linear_107_2550" x1="497.747" y1="258.031" x2="498.787" y2="354.485" gradientUnits="userSpaceOnUse">
<stop offset="0.13627" stop-color="#F68CFF"/>
<stop offset="0.921622" stop-color="#630285"/>
</linearGradient>
<linearGradient id="paint4_linear_107_2550" x1="520.547" y1="360.963" x2="591.977" y2="316.816" gradientUnits="userSpaceOnUse">
<stop offset="0.184024" stop-color="#006D5E"/>
<stop offset="1" stop-color="#10F1D3"/>
</linearGradient>
<linearGradient id="paint5_linear_107_2550" x1="477.484" y1="216.174" x2="477.484" y2="326.43" gradientUnits="userSpaceOnUse">
<stop stop-color="#F0F2FC"/>
<stop offset="1" stop-color="#C3B9FF"/>
</linearGradient>
<linearGradient id="paint6_linear_107_2550" x1="476.464" y1="215.154" x2="477.484" y2="271.302" gradientUnits="userSpaceOnUse">
<stop stop-color="#F0F2FC"/>
<stop offset="1" stop-color="#C3B9FF"/>
</linearGradient>
<linearGradient id="paint7_linear_107_2550" x1="477.485" y1="277.427" x2="477.485" y2="286.615" gradientUnits="userSpaceOnUse">
<stop stop-color="#F0F2FC"/>
<stop offset="1" stop-color="#C3B9FF"/>
</linearGradient>
<linearGradient id="paint8_linear_107_2550" x1="477.485" y1="293.762" x2="477.485" y2="303.97" gradientUnits="userSpaceOnUse">
<stop stop-color="#F0F2FC"/>
<stop offset="1" stop-color="#C3B9FF"/>
</linearGradient>
<linearGradient id="paint9_linear_107_2550" x1="427.359" y1="138.563" x2="427.359" y2="209.202" gradientUnits="userSpaceOnUse">
<stop stop-color="#F0F2FC"/>
<stop offset="1" stop-color="#C3B9FF"/>
</linearGradient>
<linearGradient id="paint10_linear_107_2550" x1="425.023" y1="132.878" x2="425.023" y2="148.714" gradientUnits="userSpaceOnUse">
<stop stop-color="#F0F2FC"/>
<stop offset="1" stop-color="#C3B9FF"/>
</linearGradient>
<linearGradient id="paint11_linear_107_2550" x1="425.722" y1="156.268" x2="425.722" y2="193.677" gradientUnits="userSpaceOnUse">
<stop stop-color="#F0F2FC"/>
<stop offset="1" stop-color="#C3B9FF"/>
</linearGradient>
<linearGradient id="paint12_linear_107_2550" x1="295.479" y1="188.667" x2="295.479" y2="288.9" gradientUnits="userSpaceOnUse">
<stop stop-color="#F0F2FC"/>
<stop offset="1" stop-color="#C3B9FF"/>
</linearGradient>
<linearGradient id="paint13_linear_107_2550" x1="295.505" y1="206.943" x2="295.505" y2="248.324" gradientUnits="userSpaceOnUse">
<stop stop-color="#F0F2FC"/>
<stop offset="1" stop-color="#C3B9FF"/>
</linearGradient>
<linearGradient id="paint14_linear_107_2550" x1="242.63" y1="268.307" x2="231.4" y2="268.307" gradientUnits="userSpaceOnUse">
<stop stop-color="#FFD3D3"/>
<stop offset="1" stop-color="#F14141"/>
</linearGradient>
<linearGradient id="paint15_linear_107_2550" x1="259.245" y1="263.925" x2="248.016" y2="263.925" gradientUnits="userSpaceOnUse">
<stop stop-color="#FFD3D3"/>
<stop offset="1" stop-color="#F14141"/>
</linearGradient>
<linearGradient id="paint16_linear_107_2550" x1="275.86" y1="256.499" x2="264.63" y2="256.499" gradientUnits="userSpaceOnUse">
<stop stop-color="#D3E5FF"/>
<stop offset="1" stop-color="#4188F1"/>
</linearGradient>
<linearGradient id="paint17_linear_107_2550" x1="292.475" y1="261.65" x2="281.245" y2="261.65" gradientUnits="userSpaceOnUse">
<stop stop-color="#FFD3D3"/>
<stop offset="1" stop-color="#F14141"/>
</linearGradient>
<linearGradient id="paint18_linear_107_2550" x1="309.089" y1="247.82" x2="297.859" y2="247.82" gradientUnits="userSpaceOnUse">
<stop stop-color="#D3E5FF"/>
<stop offset="1" stop-color="#4188F1"/>
</linearGradient>
<linearGradient id="paint19_linear_107_2550" x1="342.345" y1="243.278" x2="331.115" y2="243.278" gradientUnits="userSpaceOnUse">
<stop stop-color="#D3E5FF"/>
<stop offset="1" stop-color="#4188F1"/>
</linearGradient>
<linearGradient id="paint20_linear_107_2550" x1="287.089" y1="191.673" x2="288.621" y2="273.854" gradientUnits="userSpaceOnUse">
<stop stop-color="#A3FFD8"/>
<stop offset="1" stop-color="#00BE91"/>
</linearGradient>
<linearGradient id="paint21_linear_107_2550" x1="402.961" y1="276.917" x2="358.042" y2="251.905" gradientUnits="userSpaceOnUse">
<stop stop-color="white"/>
<stop offset="1" stop-color="#FFD0D0"/>
</linearGradient>
<linearGradient id="paint22_linear_107_2550" x1="364.167" y1="225.362" x2="356.451" y2="250.048" gradientUnits="userSpaceOnUse">
<stop stop-color="white"/>
<stop offset="1" stop-color="#FBB6B6"/>
</linearGradient>
<linearGradient id="paint23_linear_107_2550" x1="349.136" y1="212.742" x2="349.136" y2="257.566" gradientUnits="userSpaceOnUse">
<stop stop-color="#435B94"/>
<stop offset="1" stop-color="#8299CF"/>
</linearGradient>
<linearGradient id="paint24_linear_107_2550" x1="410.107" y1="213.622" x2="408.567" y2="257.358" gradientUnits="userSpaceOnUse">
<stop stop-color="#4E53CE"/>
<stop offset="1" stop-color="#9EA2FF"/>
</linearGradient>
<linearGradient id="paint25_linear_107_2550" x1="421.474" y1="245.157" x2="421.474" y2="311.026" gradientUnits="userSpaceOnUse">
<stop stop-color="#0F3970"/>
<stop offset="1" stop-color="#0E53AD"/>
</linearGradient>
<linearGradient id="paint26_linear_107_2550" x1="435.119" y1="245.27" x2="433.357" y2="259.282" gradientUnits="userSpaceOnUse">
<stop stop-color="white"/>
<stop offset="1" stop-color="#FFD0D0"/>
</linearGradient>
<linearGradient id="paint27_linear_107_2550" x1="440.401" y1="354.217" x2="440.401" y2="369.474" gradientUnits="userSpaceOnUse">
<stop stop-color="#142D4D"/>
<stop offset="1" stop-color="#0A438B"/>
</linearGradient>
<linearGradient id="paint28_linear_107_2550" x1="427.972" y1="244.759" x2="436.161" y2="363.572" gradientUnits="userSpaceOnUse">
<stop stop-color="white"/>
<stop offset="1" stop-color="#FFD0D0"/>
</linearGradient>
<linearGradient id="paint29_linear_107_2550" x1="404.549" y1="351.662" x2="404.549" y2="368.989" gradientUnits="userSpaceOnUse">
<stop stop-color="#142D4D"/>
<stop offset="1" stop-color="#0A438B"/>
</linearGradient>
<linearGradient id="paint30_linear_107_2550" x1="416.644" y1="183.234" x2="416.743" y2="208.518" gradientUnits="userSpaceOnUse">
<stop stop-color="white"/>
<stop offset="1" stop-color="#FFD0D0"/>
</linearGradient>
<linearGradient id="paint31_linear_107_2550" x1="332.009" y1="341.233" x2="333.46" y2="368.677" gradientUnits="userSpaceOnUse">
<stop stop-color="white"/>
<stop offset="1" stop-color="#FFD0D0"/>
</linearGradient>
<linearGradient id="paint32_linear_107_2550" x1="337.629" y1="363.693" x2="337.629" y2="373.999" gradientUnits="userSpaceOnUse">
<stop stop-color="#142D4D"/>
<stop offset="1" stop-color="#0A438B"/>
</linearGradient>
<linearGradient id="paint33_linear_107_2550" x1="332.033" y1="258.423" x2="332.033" y2="361.097" gradientUnits="userSpaceOnUse">
<stop stop-color="#0A367B"/>
<stop offset="1" stop-color="#0D4DB2"/>
</linearGradient>
<linearGradient id="paint34_linear_107_2550" x1="314.729" y1="258.449" x2="314.729" y2="361.175" gradientUnits="userSpaceOnUse">
<stop stop-color="#0A367B"/>
<stop offset="1" stop-color="#0D4DB2"/>
</linearGradient>
<linearGradient id="paint35_linear_107_2550" x1="307.508" y1="341.233" x2="307.734" y2="370.183" gradientUnits="userSpaceOnUse">
<stop stop-color="white"/>
<stop offset="1" stop-color="#FFD0D0"/>
</linearGradient>
<linearGradient id="paint36_linear_107_2550" x1="313.574" y1="365.069" x2="313.574" y2="374.559" gradientUnits="userSpaceOnUse">
<stop stop-color="#142D4D"/>
<stop offset="1" stop-color="#0A438B"/>
</linearGradient>
<linearGradient id="paint37_linear_107_2550" x1="308.214" y1="356.138" x2="308.214" y2="361.824" gradientUnits="userSpaceOnUse">
<stop stop-color="#0A367B"/>
<stop offset="1" stop-color="#0D4DB2"/>
</linearGradient>
<linearGradient id="paint38_linear_107_2550" x1="333.435" y1="355.723" x2="333.435" y2="362.499" gradientUnits="userSpaceOnUse">
<stop stop-color="#0A367B"/>
<stop offset="1" stop-color="#0D4DB2"/>
</linearGradient>
<linearGradient id="paint39_linear_107_2550" x1="321.757" y1="207.384" x2="321.757" y2="235.967" gradientUnits="userSpaceOnUse">
<stop stop-color="#435B94"/>
<stop offset="1" stop-color="#8299CF"/>
</linearGradient>
<linearGradient id="paint40_linear_107_2550" x1="324.802" y1="211.201" x2="324.802" y2="257.514" gradientUnits="userSpaceOnUse">
<stop stop-color="#0F3D86"/>
<stop offset="1" stop-color="#0057E0"/>
</linearGradient>
<linearGradient id="paint41_linear_107_2550" x1="311.585" y1="209.903" x2="311.585" y2="281.476" gradientUnits="userSpaceOnUse">
<stop stop-color="#435B94"/>
<stop offset="1" stop-color="#8299CF"/>
</linearGradient>
<linearGradient id="paint42_linear_107_2550" x1="332.706" y1="209.903" x2="332.706" y2="280.619" gradientUnits="userSpaceOnUse">
<stop stop-color="#435B94"/>
<stop offset="1" stop-color="#8299CF"/>
</linearGradient>
<linearGradient id="paint43_linear_107_2550" x1="320.78" y1="181.975" x2="321.194" y2="210.889" gradientUnits="userSpaceOnUse">
<stop stop-color="white"/>
<stop offset="1" stop-color="#FFC3C3"/>
</linearGradient>
<linearGradient id="paint44_linear_107_2550" x1="321.29" y1="185.037" x2="314.654" y2="198.309" gradientUnits="userSpaceOnUse">
<stop stop-color="white"/>
<stop offset="1" stop-color="#FFD0D0"/>
</linearGradient>
<linearGradient id="paint45_linear_107_2550" x1="366.719" y1="230.467" x2="344.259" y2="249.864" gradientUnits="userSpaceOnUse">
<stop stop-color="white"/>
<stop offset="1" stop-color="#FFD0D0"/>
</linearGradient>
<linearGradient id="paint46_linear_107_2550" x1="323.194" y1="213.978" x2="323.194" y2="251.382" gradientUnits="userSpaceOnUse">
<stop stop-color="#435B94"/>
<stop offset="1" stop-color="#8299CF"/>
</linearGradient>
<linearGradient id="paint47_linear_107_2550" x1="371.313" y1="224.852" x2="354.231" y2="245.171" gradientUnits="userSpaceOnUse">
<stop stop-color="white"/>
<stop offset="1" stop-color="#FFD0D0"/>
</linearGradient>
</defs>
</svg>
