<svg width="740" height="440" viewBox="0 0 740 440" fill="none" xmlns="http://www.w3.org/2000/svg">
<rect width="740" height="440" fill="url(#paint0_linear_270_2)"/>
<path d="M119.693 357.777C92.0006 347.118 42.2376 153.873 197.074 73.7797C263.461 39.4385 333.801 81.679 418.258 116.96C502.716 152.241 541.235 128.668 589.716 154.366C682.681 203.649 640.413 358.556 640.413 358.556C640.413 358.556 147.386 368.435 119.693 357.777Z" fill="white" fill-opacity="0.16"/>
<path d="M489.949 209.806H410.506V206.587H486.729V183.043H489.949V209.806ZM322.267 197.906H231.413V161.764H234.644V194.675H322.267V197.906ZM423.731 122.043H345.161V103.833H348.391V118.824H423.731V122.043Z" fill="url(#paint1_linear_270_2)"/>
<path d="M299.826 149.515H434.992V246.308H299.826V149.515Z" fill="url(#paint2_linear_270_2)"/>
<path d="M299.826 137.615H434.992V149.515H299.826V137.615Z" fill="url(#paint3_linear_270_2)"/>
<path d="M303.069 154.083H431.761V239.103H303.069V154.083Z" fill="white"/>
<path d="M357.037 178.185H421.965V179.207H357.037V178.185ZM357.037 196.081H421.965V197.104H357.037V196.081ZM357.037 213.373H421.965V214.396H357.037V213.373Z" fill="url(#paint4_linear_270_2)"/>
<path d="M421.442 178.127H422.464V227.47H421.442V178.127Z" fill="#FEEB93"/>
<path d="M314.655 174.907H361.709V183.693H314.655V174.907Z" fill="url(#paint5_linear_270_2)"/>
<path d="M346.811 158.045H382.127V164.634H346.811V158.045Z" fill="#C9C7F7"/>
<path d="M314.655 192.2H383.58V200.986H314.655V192.2ZM314.655 209.492H412.9V218.278H314.655V209.492Z" fill="url(#paint6_linear_270_2)"/>
<path d="M422.383 227.958L313.807 227.749V167.632H315.503V226.063L422.383 226.261V227.958Z" fill="url(#paint7_linear_270_2)"/>
<path d="M307.159 175.954H309.274V182.647H307.159V175.954ZM307.159 193.246H309.274V199.94H307.159V193.246ZM307.159 210.538H309.274V217.232H307.159V210.538Z" fill="#FEE77F"/>
<path d="M313.586 232.048H315.701V234.163H313.586V232.048ZM328.926 232.048H331.041V234.163H328.926V232.048ZM344.254 232.048H346.369V234.163H344.254V232.048ZM359.582 232.048H361.698V234.163H359.582V232.048ZM374.911 232.048H377.026V234.163H374.911V232.048ZM390.239 232.048H392.354V234.163H390.239V232.048ZM405.567 232.048H407.694V234.163H405.567V232.048ZM420.896 232.048H423.011V234.163H420.896V232.048Z" fill="#5579FE"/>
<path d="M413.284 85.7151H557.607V188.063H413.284V85.7151Z" fill="url(#paint8_linear_270_2)"/>
<path d="M413.284 73.1406H557.607V85.7263H413.284V73.1406Z" fill="url(#paint9_linear_270_2)"/>
<path d="M417.409 91.9441H553.481V181.845H417.409V91.9441Z" fill="white"/>
<path d="M448.659 106.61H449.739V176.709H448.659V106.61ZM424.87 106.61H425.951V176.709H424.87V106.61ZM472.447 106.61H473.528V176.709H472.447V106.61ZM496.224 106.61H497.305V176.709H496.224V106.61ZM520.013 106.61H521.093V176.709H520.013V106.61ZM543.801 106.61H544.882V176.709H543.801V106.61Z" fill="#ECECFC"/>
<path d="M425.788 106.075H544.335V107.156H425.788V106.075Z" fill="#ECECFC"/>
<path d="M542.743 104.774H545.916V107.947H542.743V104.774Z" fill="#A8B6E9"/>
<path d="M425.788 123.402H544.335V124.483H425.788V123.402Z" fill="#ECECFC"/>
<path d="M542.743 122.357H545.916V125.53H542.743V122.357Z" fill="#A8B6E9"/>
<path d="M425.788 140.997H544.336V142.078H425.788V140.997Z" fill="#ECECFC"/>
<path d="M542.743 139.939H545.916V143.112H542.743V139.939Z" fill="#A8B6E9"/>
<path d="M425.788 158.58H544.336V159.66H425.788V158.58Z" fill="#ECECFC"/>
<path d="M542.743 157.534H545.916V160.707H542.743V157.534Z" fill="#A8B6E9"/>
<path d="M425.788 176.163H544.336V177.243H425.788V176.163Z" fill="#ECECFC"/>
<path d="M542.743 175.117H545.916V178.289H542.743V175.117Z" fill="#A8B6E9"/>
<path d="M515.608 133.617L496.259 154.245L471.157 136.43L425.416 174.152L426.427 176.464L428.415 177.08L471.343 141.822L496.817 159.904L518.641 136.627L515.608 133.617Z" fill="url(#paint10_linear_270_2)"/>
<path d="M508.949 127.737L524.452 143.135L530.146 121.101L508.949 127.737Z" fill="#A470DB"/>
<path d="M538.874 177.65L424.847 177.406V106.366H426.73V175.523L538.874 175.756V177.65Z" fill="#A8B6E9"/>
<path d="M470.646 95.7791H505.091V101.287H470.646V95.7791Z" fill="url(#paint11_linear_270_2)"/>
<path d="M475.248 139.939C475.248 140.71 475.019 141.463 474.591 142.104C474.163 142.744 473.554 143.243 472.842 143.537C472.13 143.832 471.346 143.908 470.591 143.757C469.835 143.606 469.142 143.234 468.598 142.688C468.054 142.143 467.684 141.448 467.535 140.692C467.386 139.936 467.465 139.153 467.761 138.442C468.058 137.73 468.559 137.123 469.2 136.697C469.842 136.27 470.596 136.044 471.366 136.046C472.397 136.049 473.384 136.461 474.112 137.191C474.839 137.921 475.248 138.909 475.248 139.939ZM500.094 156.116C500.094 156.887 499.865 157.64 499.437 158.28C499.009 158.921 498.4 159.42 497.688 159.714C496.976 160.008 496.192 160.085 495.437 159.934C494.681 159.782 493.988 159.41 493.444 158.865C492.9 158.319 492.53 157.624 492.381 156.868C492.232 156.113 492.311 155.329 492.607 154.618C492.904 153.907 493.405 153.3 494.046 152.873C494.688 152.447 495.442 152.221 496.212 152.223C497.243 152.226 498.23 152.638 498.958 153.367C499.685 154.097 500.094 155.086 500.094 156.116ZM449.426 160.009C449.426 160.779 449.197 161.532 448.769 162.172C448.342 162.812 447.734 163.311 447.022 163.606C446.311 163.901 445.528 163.978 444.773 163.828C444.018 163.677 443.324 163.307 442.78 162.762C442.235 162.218 441.864 161.524 441.714 160.769C441.564 160.014 441.641 159.231 441.936 158.519C442.23 157.808 442.729 157.2 443.37 156.772C444.01 156.344 444.763 156.116 445.532 156.116C446.565 156.116 447.555 156.526 448.285 157.256C449.015 157.986 449.426 158.977 449.426 160.009Z" fill="url(#paint12_linear_270_2)"/>
<path d="M181.337 119.253H284.742V169.434H181.337V119.253Z" fill="url(#paint13_linear_270_2)"/>
<path d="M184.266 122.217H281.802V166.47H184.266V122.217Z" fill="white"/>
<path d="M181.337 112.525H284.742V119.254H181.337V112.525Z" fill="url(#paint14_linear_270_2)"/>
<path d="M192.377 129.76H228.031V134.187H192.377V129.76Z" fill="url(#paint15_linear_270_2)"/>
<path d="M192.377 139.649H211.959V141.903H192.377V139.649ZM213.993 139.649H227.276V141.903H213.993V139.649ZM192.377 143.995V146.261H205.497V143.995H192.377ZM207.531 143.995H220.814V146.25H207.531V143.995ZM192.377 148.353H211.959V150.608H192.377V148.353ZM213.993 148.353H224.022V150.608H213.993V148.353Z" fill="url(#paint16_linear_270_2)"/>
<path d="M238.292 137.94H245.556V162.612H238.292V137.94Z" fill="url(#paint17_linear_270_2)"/>
<path d="M257.665 133.571H264.928V162.612H257.665V133.571Z" fill="url(#paint18_linear_270_2)"/>
<path d="M247.973 143.879H255.236V162.612H247.973V143.879Z" fill="url(#paint19_linear_270_2)"/>
<path d="M267.345 126.842H274.608V162.612H267.345V126.842Z" fill="url(#paint20_linear_270_2)"/>
<path d="M301.082 57.2783H391.436V107.168H301.082V57.2783Z" fill="url(#paint21_linear_270_2)"/>
<path d="M303.65 60.707H388.879V103.74H303.65V60.707Z" fill="white"/>
<path d="M301.082 50.5962H391.436V57.29H301.082V50.5962ZM352.738 98.4753H310.216V66.9355H356.48V68.0047H311.297V97.3946H352.738V98.4753Z" fill="url(#paint22_linear_270_2)"/>
<path d="M310.762 77.0806H344.557V78.1614H310.762V77.0806ZM310.762 87.2375H329.612V88.3183H310.762V87.2375ZM382.302 70.6541H355.945V64.2974H382.302V70.6541ZM357.014 69.585H381.268V65.3781H357.014V69.585Z" fill="url(#paint23_linear_270_2)"/>
<path d="M370.379 80.7997H344.01V74.4546H370.379V80.7997ZM345.091 79.719H369.309V75.5237H345.091V79.719ZM355.922 90.9566H329.553V84.5999H355.922V90.9566ZM330.623 89.8759H354.841V85.6806H330.623V89.8759ZM378.56 101.102H352.215V94.7567H378.583L378.56 101.102ZM353.272 100.033H377.491V95.8375H353.272V100.033Z" fill="url(#paint24_linear_270_2)"/>
<path d="M479.699 390.596C504.755 390.596 525.067 385.825 525.067 379.939C525.067 374.054 504.755 369.283 479.699 369.283C454.642 369.283 434.33 374.054 434.33 379.939C434.33 385.825 454.642 390.596 479.699 390.596Z" fill="white" fill-opacity="0.16"/>
<path d="M500.012 377.429H502.383L503.952 331.584H498.432L500.012 377.429Z" fill="url(#paint25_linear_270_2)"/>
<path d="M514.585 328.957L526.09 293.002L533.597 269.527C533.826 268.822 534.192 268.17 534.673 267.607C535.154 267.044 535.741 266.581 536.401 266.245C537.061 265.909 537.78 265.706 538.519 265.648C539.257 265.59 540 265.678 540.704 265.907C541.408 266.136 542.06 266.501 542.624 266.982C543.187 267.463 543.649 268.05 543.986 268.71C544.322 269.37 544.525 270.09 544.583 270.828C544.641 271.566 544.553 272.309 544.324 273.013L536.805 296.488L525.3 332.444C524.847 333.864 523.848 335.047 522.523 335.731C521.198 336.415 519.655 336.545 518.234 336.093C517.524 335.867 516.865 335.503 516.296 335.022C515.728 334.54 515.26 333.95 514.921 333.287C514.581 332.623 514.377 331.899 514.319 331.156C514.262 330.412 514.352 329.665 514.585 328.957Z" fill="url(#paint26_linear_270_2)"/>
<path d="M525.695 331.863C525.695 330.371 525.103 328.94 524.048 327.885C522.993 326.831 521.562 326.238 520.07 326.238H482.371C480.88 326.238 479.449 326.831 478.394 327.885C477.339 328.94 476.747 330.371 476.747 331.863C476.747 333.354 477.339 334.785 478.394 335.84C479.449 336.895 480.88 337.487 482.371 337.487H520.129C521.61 337.472 523.026 336.873 524.068 335.819C525.111 334.766 525.695 333.344 525.695 331.863ZM511.657 377.882C511.658 377.566 511.597 377.253 511.477 376.96C511.356 376.668 511.179 376.402 510.956 376.178C510.732 375.954 510.466 375.777 510.174 375.657C509.881 375.536 509.568 375.475 509.251 375.477H493.133C492.495 375.477 491.883 375.73 491.432 376.181C490.981 376.633 490.727 377.244 490.727 377.882C490.73 378.518 490.985 379.127 491.436 379.576C491.887 380.025 492.497 380.276 493.133 380.276H509.251C509.567 380.278 509.879 380.217 510.171 380.098C510.463 379.978 510.728 379.802 510.951 379.579C511.175 379.357 511.352 379.092 511.473 378.801C511.594 378.51 511.657 378.198 511.657 377.882Z" fill="url(#paint27_linear_270_2)"/>
<path d="M451.506 372.513C451.273 375.419 449.867 378.324 449.809 379.277C449.739 380.555 446.915 381.241 446.555 381.229C446.555 381.229 447.717 380.346 447.845 379.893C448.682 375.663 449.135 374.384 449.565 372.444C449.24 369.992 448.845 367.632 448.403 365.308C449.356 365.157 450.297 365.006 451.239 364.913C451.331 367.295 451.424 369.817 451.506 372.513Z" fill="url(#paint28_linear_270_2)"/>
<path d="M451.506 372.513C449.995 373.676 450.076 377.441 449.298 379.207C448.519 380.974 447.822 380.974 447.299 380.613C447.299 380.613 446.055 381.427 445.776 381.694C445.743 381.741 445.725 381.797 445.723 381.855C445.722 381.913 445.738 381.97 445.769 382.019C445.8 382.067 445.845 382.105 445.898 382.128C445.952 382.151 446.01 382.158 446.067 382.147C447.287 381.973 450.158 381.183 450.367 380.416C450.576 379.649 450.471 376.616 451.343 375.849C452.215 375.082 452.435 374.919 452.505 374.14C452.509 373.803 452.417 373.47 452.241 373.182C452.064 372.895 451.809 372.663 451.506 372.513Z" fill="#120A5A"/>
<path d="M452.04 380.3L451.517 380.358L451.506 375.093L452.459 374.373L452.04 380.3Z" fill="#120A5A"/>
<path d="M458.246 372.119C457.839 374.989 456.259 377.767 456.143 378.754C455.992 380.021 453.133 380.544 452.772 380.509C452.772 380.509 454.028 379.707 454.144 379.254C455.225 375.082 455.771 373.839 456.305 371.921C456.14 369.516 455.9 367.117 455.585 364.728C456.538 364.635 457.491 364.542 458.444 364.507C458.397 366.893 458.331 369.43 458.246 372.119Z" fill="url(#paint29_linear_270_2)"/>
<path d="M458.246 372.118C456.666 373.129 456.526 376.941 455.631 378.661C454.736 380.381 454.062 380.323 453.551 379.939C453.008 380.241 452.48 380.571 451.971 380.927C451.937 380.972 451.917 381.026 451.913 381.081C451.908 381.137 451.921 381.193 451.948 381.243C451.975 381.292 452.015 381.332 452.065 381.359C452.114 381.385 452.17 381.397 452.226 381.392C453.458 381.288 456.375 380.683 456.631 379.928C456.886 379.172 456.968 376.139 457.886 375.43C458.804 374.722 459.048 374.57 459.129 373.792C459.154 373.458 459.085 373.124 458.929 372.828C458.772 372.532 458.536 372.286 458.246 372.118Z" fill="#120A5A"/>
<path d="M458.304 379.905L457.781 379.94L458.083 374.687L459.083 374.024L458.304 379.905Z" fill="#120A5A"/>
<path d="M457.723 322.601C460.547 339.753 459.141 371.061 459.141 371.061L454.225 371.305L449.46 320.172C449.428 319.927 449.447 319.677 449.515 319.44C449.584 319.202 449.701 318.981 449.86 318.791C450.018 318.601 450.214 318.446 450.435 318.336C450.657 318.225 450.898 318.162 451.145 318.15C453.505 318.08 457.305 319.881 457.723 322.601Z" fill="url(#paint30_linear_270_2)"/>
<path d="M446.555 318.068L494.295 307.83L497.049 302.136C515.004 300.172 518.2 307.528 518.2 307.528C519.304 316.976 513.4 324.96 503.964 326.238C503.406 326.308 452.598 326.319 452.598 326.319L446.555 318.068Z" fill="url(#paint31_linear_270_2)"/>
<path d="M453.586 323.658L452.319 371.072L447.671 371.189L445.881 319.254C446.497 315.86 452.575 320.579 453.586 323.658Z" fill="url(#paint32_linear_270_2)"/>
<path d="M522.09 255.871C528.091 253.687 529.66 242.862 525.595 231.692C521.529 220.523 513.369 213.238 507.368 215.423C501.367 217.607 499.798 228.432 503.863 239.602C507.929 250.771 516.089 258.056 522.09 255.871Z" fill="url(#paint33_linear_270_2)"/>
<path d="M456.003 290.294L458.42 288.911C459.35 288.19 460.152 286.343 459.42 285.425C459.069 284.977 458.555 284.687 457.991 284.618C457.427 284.548 456.859 284.704 456.41 285.053C454.341 286.656 453.191 290.271 453.191 290.271C453.911 291.212 454.783 291.026 456.003 290.294Z" fill="url(#paint34_linear_270_2)"/>
<path d="M458.885 284.483L463.534 284.344C466.125 284.111 466.555 288.365 464.266 288.562C459.013 287.656 457.026 288.213 456.898 286.819C456.874 286.535 456.907 286.249 456.994 285.978C457.081 285.706 457.221 285.455 457.406 285.238C457.59 285.02 457.816 284.842 458.07 284.713C458.324 284.583 458.601 284.505 458.885 284.483Z" fill="url(#paint35_linear_270_2)"/>
<path d="M490.936 281.078C490.134 280.442 489.615 279.515 489.494 278.499C489.372 277.482 489.656 276.459 490.285 275.651L508.461 252.479C509.093 251.675 510.018 251.154 511.034 251.032C512.049 250.91 513.072 251.196 513.876 251.828C515.55 253.129 516.363 259.823 515.038 261.485L496.317 280.416C495.685 281.209 494.768 281.723 493.762 281.847C492.756 281.971 491.741 281.695 490.936 281.078Z" fill="url(#paint36_linear_270_2)"/>
<path d="M462.616 287.133C463.243 289.155 464.94 288.923 466.939 288.295L493.993 282.752C494.966 282.442 495.777 281.76 496.25 280.854C496.722 279.949 496.817 278.893 496.515 277.917C496.364 277.434 496.119 276.984 495.794 276.595C495.469 276.206 495.071 275.884 494.622 275.649C494.173 275.414 493.682 275.269 493.178 275.224C492.673 275.178 492.164 275.233 491.68 275.384L463.58 284.181C461.535 284.82 462.023 285.099 462.616 287.133Z" fill="url(#paint37_linear_270_2)"/>
<path d="M509.565 247.122L499.827 254.908L514.62 256.593L517.363 247.156L509.565 247.122Z" fill="url(#paint38_linear_270_2)"/>
<path d="M512.924 252.676C511.889 252.554 510.943 252.029 510.291 251.216C509.639 250.403 509.332 249.367 509.437 248.33L510.599 240.195C510.68 239.156 511.166 238.19 511.954 237.507C512.741 236.824 513.766 236.479 514.806 236.546C516.875 236.779 519.536 236.418 519.28 238.661L517.177 249.12C517.074 250.151 516.571 251.101 515.776 251.766C514.981 252.431 513.957 252.757 512.924 252.676Z" fill="url(#paint39_linear_270_2)"/>
<path d="M517.514 247.179L521.628 251.828C524.463 255.314 523.011 256.557 520.733 263.158C518.223 270.398 512.598 284.867 513.609 290.003C514.603 294.843 516.86 299.334 520.152 303.019C521.523 304.448 521.535 307.063 518.734 308.946C512.284 313.245 497.944 312.792 491.761 308.353C491.761 308.353 499.571 284.367 498.351 271.677C498.06 268.667 494.33 265.971 494.713 261.787C495.097 257.603 498.757 256.662 499.827 254.884L517.514 247.179Z" fill="url(#paint40_linear_270_2)"/>
<path d="M465.614 284.553L471.634 282.601C474.946 281.892 474.795 286.517 471.796 287.621C465.614 288.179 463.824 288.632 463.441 286.842C463.127 285.343 464.103 284.867 465.614 284.553Z" fill="url(#paint41_linear_270_2)"/>
<path d="M460.617 288.516L466.125 287.702C468.205 286.18 464.196 283.693 462.36 285.041C459.571 286.9 456.189 289.782 456.677 290.387C457.375 291.328 459.675 289.213 460.617 288.516Z" fill="url(#paint42_linear_270_2)"/>
<path d="M498.641 283.403C497.817 282.8 497.264 281.896 497.105 280.888C496.946 279.879 497.194 278.849 497.793 278.022L515.19 254.268C516.445 252.548 520.663 252.223 522.383 253.466C526.892 256.767 522.883 261.95 522.081 263.042L504.057 282.601C503.755 283.01 503.375 283.356 502.939 283.618C502.503 283.881 502.019 284.054 501.516 284.128C501.012 284.203 500.499 284.177 500.006 284.053C499.513 283.928 499.049 283.707 498.641 283.403Z" fill="url(#paint43_linear_270_2)"/>
<path d="M468.891 284.565C468.624 282.461 469.426 282.019 471.529 281.752L500.245 276.72C501.259 276.595 502.283 276.875 503.092 277.499C503.901 278.124 504.432 279.042 504.568 280.056C504.693 281.072 504.412 282.097 503.785 282.906C503.158 283.716 502.236 284.245 501.221 284.379L472.005 288.097C469.902 288.365 469.158 286.68 468.891 284.565Z" fill="url(#paint44_linear_270_2)"/>
<path d="M525.858 224.158C526.253 227.772 523.847 231.305 521.395 234.896C518.943 238.487 511.854 241.555 509.402 241.555C507.264 241.555 504.057 233.327 504.394 224.948C504.696 217.592 508.333 215.651 513.179 215.14C518.025 214.628 525.044 216.836 525.858 224.158Z" fill="url(#paint45_linear_270_2)"/>
<path d="M519.025 229.562C523.801 231.595 504.998 274.884 536.143 252.13C541.488 248.202 538.537 230.189 532.54 220.369C526.544 210.549 514.469 208.911 508.798 212.362C503.127 215.814 498.037 220.683 519.025 229.562Z" fill="url(#paint46_linear_270_2)"/>
<path d="M516.189 228.586C515.631 229.957 515.922 231.375 516.852 231.758C517.781 232.142 518.99 231.328 519.548 229.957C520.105 228.586 519.815 227.168 518.885 226.796C517.956 226.424 516.747 227.214 516.189 228.586Z" fill="#FFE9E6"/>
<path d="M403.069 291.723H442.104L432.157 264.367H393.121L403.069 291.723Z" fill="url(#paint47_linear_270_2)"/>
<path d="M413.656 280.079H423.057L421.57 276.011H412.168L413.656 280.079Z" fill="url(#paint48_linear_270_2)"/>
<path d="M442.104 294.605H403.011V291.735H442.104V294.605Z" fill="url(#paint49_linear_270_2)"/>
<path d="M463.348 294.605H442.116V291.735H463.348V294.605Z" fill="url(#paint50_linear_270_2)"/>
<path d="M361.36 386.924C382.624 386.924 399.861 382.876 399.861 377.883C399.861 372.889 382.624 368.841 361.36 368.841C340.097 368.841 322.86 372.889 322.86 377.883C322.86 382.876 340.097 386.924 361.36 386.924Z" fill="white" fill-opacity="0.16"/>
<path d="M356.352 371.189V299.591H362.953V371.189H356.352Z" fill="url(#paint51_linear_270_2)"/>
<path d="M344.754 380.451V370.48H374.551V380.451H344.754Z" fill="#F3880A"/>
<path d="M461.511 304.576H256.875V294.605H461.511V304.576Z" fill="#EAEAEA"/>
<path d="M360.117 371.189V299.591H366.718V371.189H360.117Z" fill="url(#paint52_linear_270_2)"/>
<path d="M348.519 380.462V370.491H378.316V380.462H348.519Z" fill="url(#paint53_linear_270_2)"/>
<path d="M466.207 304.576H261.57V294.605H466.207V304.576Z" fill="white"/>
<path d="M269.216 388.144C294.273 388.144 314.585 383.373 314.585 377.488C314.585 371.602 294.273 366.831 269.216 366.831C244.16 366.831 223.847 371.602 223.847 377.488C223.847 383.373 244.16 388.144 269.216 388.144Z" fill="white" fill-opacity="0.16"/>
<path d="M238.92 374.338H236.549L234.969 328.492H240.5L238.92 374.338Z" fill="url(#paint54_linear_270_2)"/>
<path d="M224.382 325.866L212.877 289.91L205.323 266.424C205.098 265.72 204.736 265.068 204.259 264.504C203.782 263.94 203.199 263.476 202.542 263.138C201.216 262.455 199.672 262.326 198.252 262.781C196.831 263.235 195.649 264.236 194.965 265.562C194.282 266.888 194.154 268.431 194.608 269.852L202.127 293.339L213.632 329.294C214.086 330.715 215.085 331.897 216.41 332.582C217.735 333.266 219.277 333.396 220.698 332.943C221.405 332.721 222.061 332.362 222.629 331.886C223.197 331.41 223.665 330.826 224.008 330.169C224.35 329.511 224.559 328.793 224.623 328.055C224.687 327.316 224.605 326.573 224.382 325.866Z" fill="url(#paint55_linear_270_2)"/>
<path d="M213.237 328.772C213.237 327.28 213.83 325.849 214.885 324.794C215.94 323.74 217.37 323.147 218.862 323.147H256.619C258.111 323.147 259.542 323.74 260.596 324.794C261.651 325.849 262.244 327.28 262.244 328.772C262.251 329.515 262.112 330.253 261.832 330.942C261.553 331.631 261.14 332.258 260.617 332.786C260.094 333.315 259.471 333.734 258.785 334.021C258.099 334.307 257.363 334.454 256.619 334.454H218.862C218.118 334.454 217.382 334.307 216.696 334.021C216.01 333.734 215.387 333.315 214.864 332.786C214.341 332.258 213.928 331.631 213.649 330.942C213.369 330.253 213.23 329.515 213.237 328.772ZM227.276 374.78C227.276 374.145 227.528 373.536 227.977 373.087C228.426 372.638 229.035 372.386 229.67 372.386H245.8C246.436 372.386 247.046 372.638 247.497 373.086C247.948 373.535 248.202 374.144 248.205 374.78C248.205 375.418 247.952 376.03 247.501 376.481C247.05 376.932 246.438 377.185 245.8 377.185H229.67C229.354 377.185 229.042 377.123 228.751 377.002C228.46 376.881 228.195 376.704 227.973 376.48C227.75 376.257 227.574 375.991 227.455 375.699C227.335 375.408 227.274 375.095 227.276 374.78Z" fill="url(#paint56_linear_270_2)"/>
<path d="M266.137 369.899L269.298 374.779L273.69 375.233C274.292 375.293 274.869 375.504 275.367 375.848C275.865 376.191 276.268 376.655 276.537 377.197L276.747 377.65L266.567 377.452L260.988 373.582L255.747 370.096C255.535 369.726 255.454 369.295 255.518 368.873C255.581 368.452 255.785 368.063 256.096 367.772C256.532 367.282 257.095 366.922 257.722 366.732C258.349 366.541 259.017 366.527 259.652 366.691C262.22 366.912 266.137 369.899 266.137 369.899Z" fill="url(#paint57_linear_270_2)"/>
<path d="M297.293 372.699L309.089 376.79C309.473 376.874 309.809 377.104 310.026 377.432C310.243 377.759 310.323 378.159 310.251 378.545C310.222 378.644 310.17 378.736 310.1 378.812L302.592 378.522L295.817 378.266L289.484 378.103C289.117 377.903 288.827 377.586 288.659 377.204C288.491 376.821 288.454 376.394 288.554 375.988C288.649 375.339 288.925 374.729 289.35 374.23C289.776 373.73 290.334 373.361 290.96 373.164C293.249 372.002 297.293 372.699 297.293 372.699Z" fill="url(#paint58_linear_270_2)"/>
<path d="M238.967 303.147L288.682 310.91C291.901 313.234 293.237 317.197 291.901 320.288L268.659 372.386L256.34 366.401L278.734 319.486L227.985 322.019L238.967 303.147Z" fill="url(#paint59_linear_270_2)"/>
<path d="M240.838 301.171L245.289 305.703L284.8 311.444C288.786 311.723 292.017 314.291 292.563 317.615L301.86 373.943L287.427 375.616L278.908 323.809L234.214 322.949C229.205 322.542 222.743 321.624 221.256 315.976L219.292 301.868L240.838 301.171Z" fill="url(#paint60_linear_270_2)"/>
<path d="M219.374 310.77L245.3 305.703C249.205 305.703 239.339 298.731 239.339 294.849L240.187 269.724C240.623 265.412 240.167 261.056 238.847 256.928C237.528 252.8 235.373 248.987 232.517 245.727L221.245 243.158C217.34 243.158 212.517 251.537 212.517 262.694L218.328 295.849C218.258 299.753 218.688 309.562 219.374 310.77Z" fill="url(#paint61_linear_270_2)"/>
<path d="M272.598 285.204L266.358 285.018C262.871 284.936 262.685 290.666 265.765 290.735C272.738 289.027 275.271 288.841 275.457 287.714C275.515 286.133 274.19 285.238 272.598 285.204Z" fill="#FDC3BB"/>
<path d="M273.505 285.413L278.967 287.202C280.838 288.237 281.442 288.307 286.881 291.328C286.73 292.827 280.931 290.549 279.42 290.398L275.399 290.619C273.9 290.468 270.867 289.132 271.308 287.691C272.029 285.529 272.401 285.32 273.505 285.413Z" fill="url(#paint62_linear_270_2)"/>
<path d="M234.051 297.673L270.937 292.223C273.365 292.025 273.075 291.584 273.342 289.167C273.702 285.901 272.982 284.379 269.856 284.646L235.527 287.435L227.869 260.079C226.951 257.441 221.5 251.944 218.862 252.839C216.224 253.734 213.052 260.032 215.248 267.191L226.416 293.118C227.051 294.581 228.129 295.809 229.499 296.626C230.869 297.444 232.462 297.81 234.051 297.673Z" fill="url(#paint63_linear_270_2)"/>
<path d="M223.766 245.68L230.39 248.737C232.378 248.957 232.471 245.122 232.715 243.309L234.574 231.816C234.631 230.895 234.321 229.989 233.711 229.296C233.101 228.603 232.241 228.18 231.32 228.121L225.742 227.54C223.755 227.319 223.301 228.574 223.104 230.387L221.117 242.008C221.018 242.426 221.011 242.86 221.095 243.281C221.179 243.702 221.353 244.1 221.604 244.448C221.855 244.797 222.178 245.087 222.551 245.299C222.924 245.512 223.339 245.642 223.766 245.68Z" fill="url(#paint64_linear_270_2)"/>
<path d="M231.425 242.24L234.446 242.415C235.736 241.985 236.433 239.997 237.456 237.232L240.652 219.916C240.803 217.208 237.665 215.035 235.701 214.931L230.251 214.617C228.287 214.512 226.567 216.627 226.404 219.335L225.219 234.512C225.056 237.22 229.461 242.136 231.425 242.24Z" fill="url(#paint65_linear_270_2)"/>
<path d="M221.709 232.816C223.569 233.269 225.195 230.247 226.811 226.319L228.519 227.249C229.065 225.878 227.276 223.972 230.843 220.974C234.121 218.231 227.194 214.443 225.033 214.326C222.871 214.21 219.792 209.678 219.513 213.525C219.06 220.718 219.734 232.328 221.709 232.816Z" fill="url(#paint66_linear_270_2)"/>
<path d="M224.673 226.18C224.777 227.644 225.521 228.795 226.323 228.737C227.125 228.679 227.694 227.435 227.589 225.971C227.485 224.507 226.753 223.356 225.939 223.414C225.126 223.472 224.568 224.704 224.673 226.18Z" fill="url(#paint67_linear_270_2)"/>
<path d="M243.441 216.163C243.441 216.163 246.671 212.618 243.766 210.131C240.861 207.644 238.595 207.249 233.063 208.376C227.531 209.504 227.682 207.017 225.079 207.656C223.208 208.109 220.582 210.038 221.593 211.654C224.359 215.814 231.796 216.139 234.307 215.756C236.817 215.372 243.441 216.163 243.441 216.163Z" fill="url(#paint68_linear_270_2)"/>
<path d="M230.321 218.091C230.321 218.091 241.279 216.929 242.732 219.579C244.185 222.229 250.193 217.917 246.613 213.617C243.034 209.317 233.574 216.197 228.089 213.617C222.604 211.037 224.208 208.969 222.011 209.852C221.631 210.013 221.3 210.273 221.054 210.605C220.807 210.937 220.653 211.328 220.608 211.739C220.563 212.15 220.629 212.565 220.798 212.942C220.967 213.319 221.233 213.645 221.57 213.885C224.382 215.512 230.321 218.091 230.321 218.091Z" fill="url(#paint69_linear_270_2)"/>
<path d="M323.15 291.723H284.115L294.074 264.367H333.109L323.15 291.723Z" fill="url(#paint70_linear_270_2)"/>
<path d="M312.575 280.079H303.174L304.649 276.011H314.051L312.575 280.079Z" fill="url(#paint71_linear_270_2)"/>
<path d="M284.115 291.723H323.208V294.594H284.115V291.723Z" fill="url(#paint72_linear_270_2)"/>
<path d="M262.883 291.723H284.115V294.594H262.883V291.723Z" fill="url(#paint73_linear_270_2)"/>
<defs>
<linearGradient id="paint0_linear_270_2" x1="370" y1="-43.12" x2="370" y2="483.12" gradientUnits="userSpaceOnUse">
<stop offset="0.0239582" stop-color="#59C3FF"/>
<stop offset="1" stop-color="#0047B2"/>
</linearGradient>
<linearGradient id="paint1_linear_270_2" x1="360.681" y1="103.833" x2="360.303" y2="197.604" gradientUnits="userSpaceOnUse">
<stop stop-color="#B3B3FF"/>
<stop offset="0.234375" stop-color="#EEEEFF"/>
<stop offset="0.765625" stop-color="#B3B3FF"/>
<stop offset="1" stop-color="white"/>
</linearGradient>
<linearGradient id="paint2_linear_270_2" x1="367.409" y1="149.515" x2="367.409" y2="246.308" gradientUnits="userSpaceOnUse">
<stop stop-color="#F0F2FC"/>
<stop offset="1" stop-color="#C3B9FF"/>
</linearGradient>
<linearGradient id="paint3_linear_270_2" x1="367.409" y1="137.615" x2="367.409" y2="149.515" gradientUnits="userSpaceOnUse">
<stop offset="0.4138" stop-color="#A4B8FF"/>
<stop offset="1" stop-color="white"/>
</linearGradient>
<linearGradient id="paint4_linear_270_2" x1="420.733" y1="197.022" x2="357.979" y2="195.86" gradientUnits="userSpaceOnUse">
<stop stop-color="#FEEB93"/>
<stop offset="1" stop-color="white"/>
</linearGradient>
<linearGradient id="paint5_linear_270_2" x1="338.182" y1="174.907" x2="338.182" y2="184.239" gradientUnits="userSpaceOnUse">
<stop stop-color="#D9B5FF"/>
<stop offset="1" stop-color="white"/>
</linearGradient>
<linearGradient id="paint6_linear_270_2" x1="363.778" y1="192.2" x2="363.778" y2="218.278" gradientUnits="userSpaceOnUse">
<stop stop-color="#D9B5FF"/>
<stop offset="0.328125" stop-color="#FDFBFF"/>
<stop offset="0.755208" stop-color="#D9B5FF"/>
<stop offset="1" stop-color="white"/>
</linearGradient>
<linearGradient id="paint7_linear_270_2" x1="368.095" y1="167.632" x2="368.095" y2="227.958" gradientUnits="userSpaceOnUse">
<stop stop-color="white"/>
<stop offset="1" stop-color="#6886F3"/>
</linearGradient>
<linearGradient id="paint8_linear_270_2" x1="485.445" y1="85.7151" x2="485.445" y2="188.063" gradientUnits="userSpaceOnUse">
<stop stop-color="#F0F2FC"/>
<stop offset="1" stop-color="#C3B9FF"/>
</linearGradient>
<linearGradient id="paint9_linear_270_2" x1="485.445" y1="73.1406" x2="485.445" y2="85.7263" gradientUnits="userSpaceOnUse">
<stop offset="0.4138" stop-color="#A4B8FF"/>
<stop offset="1" stop-color="white"/>
</linearGradient>
<linearGradient id="paint10_linear_270_2" x1="518.351" y1="133.106" x2="425.381" y2="177.266" gradientUnits="userSpaceOnUse">
<stop stop-color="#A470DB"/>
<stop offset="1" stop-color="white"/>
</linearGradient>
<linearGradient id="paint11_linear_270_2" x1="470.704" y1="98.2429" x2="505.567" y2="98.2429" gradientUnits="userSpaceOnUse">
<stop stop-color="#D9B5FF"/>
<stop offset="1" stop-color="#F9F4FF"/>
</linearGradient>
<linearGradient id="paint12_linear_270_2" x1="470.867" y1="136.046" x2="470.867" y2="163.902" gradientUnits="userSpaceOnUse">
<stop stop-color="#FFBA26"/>
<stop offset="1" stop-color="#FFF1D3"/>
</linearGradient>
<linearGradient id="paint13_linear_270_2" x1="233.04" y1="119.253" x2="233.04" y2="169.434" gradientUnits="userSpaceOnUse">
<stop stop-color="#F0F2FC"/>
<stop offset="1" stop-color="#C3B9FF"/>
</linearGradient>
<linearGradient id="paint14_linear_270_2" x1="233.04" y1="112.525" x2="233.04" y2="119.254" gradientUnits="userSpaceOnUse">
<stop offset="0.4138" stop-color="#A4B8FF"/>
<stop offset="1" stop-color="white"/>
</linearGradient>
<linearGradient id="paint15_linear_270_2" x1="191.796" y1="131.944" x2="227.822" y2="131.944" gradientUnits="userSpaceOnUse">
<stop stop-color="#D9D9FC"/>
<stop offset="1" stop-color="white"/>
</linearGradient>
<linearGradient id="paint16_linear_270_2" x1="191.796" y1="144.728" x2="219.106" y2="144.728" gradientUnits="userSpaceOnUse">
<stop stop-color="#FDDB67"/>
<stop offset="1" stop-color="#FFF6D8"/>
</linearGradient>
<linearGradient id="paint17_linear_270_2" x1="241.924" y1="137.94" x2="241.924" y2="162.612" gradientUnits="userSpaceOnUse">
<stop stop-color="#F3E8FF"/>
<stop offset="1" stop-color="#9541EE"/>
</linearGradient>
<linearGradient id="paint18_linear_270_2" x1="261.296" y1="133.571" x2="261.296" y2="162.612" gradientUnits="userSpaceOnUse">
<stop stop-color="white"/>
<stop offset="1" stop-color="#F23754"/>
</linearGradient>
<linearGradient id="paint19_linear_270_2" x1="251.605" y1="143.879" x2="251.605" y2="162.612" gradientUnits="userSpaceOnUse">
<stop stop-color="#FFFAE3"/>
<stop offset="1" stop-color="#FBD00E"/>
</linearGradient>
<linearGradient id="paint20_linear_270_2" x1="270.977" y1="126.842" x2="270.977" y2="162.612" gradientUnits="userSpaceOnUse">
<stop stop-color="white"/>
<stop offset="1" stop-color="#453DFF"/>
</linearGradient>
<linearGradient id="paint21_linear_270_2" x1="346.259" y1="57.2783" x2="346.259" y2="107.168" gradientUnits="userSpaceOnUse">
<stop stop-color="#F0F2FC"/>
<stop offset="1" stop-color="#C3B9FF"/>
</linearGradient>
<linearGradient id="paint22_linear_270_2" x1="346.259" y1="50.5962" x2="346.259" y2="98.4753" gradientUnits="userSpaceOnUse">
<stop offset="0.4138" stop-color="#A4B8FF"/>
<stop offset="1" stop-color="white"/>
</linearGradient>
<linearGradient id="paint23_linear_270_2" x1="356.817" y1="67.4466" x2="380.64" y2="66.2845" gradientUnits="userSpaceOnUse">
<stop stop-color="#3355D1"/>
<stop offset="1" stop-color="white"/>
</linearGradient>
<linearGradient id="paint24_linear_270_2" x1="338.804" y1="87.784" x2="379.478" y2="86.0408" gradientUnits="userSpaceOnUse">
<stop offset="0.105082" stop-color="#4A6DEE"/>
<stop offset="0.447917" stop-color="white"/>
<stop offset="0.79155" stop-color="#294ED7"/>
<stop offset="1" stop-color="white"/>
</linearGradient>
<linearGradient id="paint25_linear_270_2" x1="501.192" y1="331.584" x2="501.192" y2="377.429" gradientUnits="userSpaceOnUse">
<stop stop-color="#3AAFF4"/>
<stop offset="1" stop-color="#EAF7FF"/>
</linearGradient>
<linearGradient id="paint26_linear_270_2" x1="529.451" y1="265.631" x2="529.451" y2="336.358" gradientUnits="userSpaceOnUse">
<stop stop-color="#FB8916"/>
<stop offset="0.0001" stop-color="#FBBB16"/>
<stop offset="1" stop-color="#FCC995"/>
</linearGradient>
<linearGradient id="paint27_linear_270_2" x1="481.448" y1="353.513" x2="518.011" y2="351.774" gradientUnits="userSpaceOnUse">
<stop stop-color="#FFB312"/>
<stop offset="1" stop-color="#FFE0A0"/>
</linearGradient>
<linearGradient id="paint28_linear_270_2" x1="449.03" y1="364.913" x2="449.03" y2="381.229" gradientUnits="userSpaceOnUse">
<stop stop-color="#FFD0A5"/>
<stop offset="1" stop-color="#FFF9F4"/>
</linearGradient>
<linearGradient id="paint29_linear_270_2" x1="455.608" y1="364.507" x2="455.608" y2="380.511" gradientUnits="userSpaceOnUse">
<stop stop-color="#FFD0A5"/>
<stop offset="1" stop-color="#FFF9F4"/>
</linearGradient>
<linearGradient id="paint30_linear_270_2" x1="454.468" y1="318.148" x2="459.083" y2="371.34" gradientUnits="userSpaceOnUse">
<stop stop-color="#227DB4"/>
<stop offset="1" stop-color="#94ABBA"/>
</linearGradient>
<linearGradient id="paint31_linear_270_2" x1="482.325" y1="311.491" x2="482.443" y2="326.319" gradientUnits="userSpaceOnUse">
<stop stop-color="#034E7F"/>
<stop offset="1" stop-color="#849FB1"/>
</linearGradient>
<linearGradient id="paint32_linear_270_2" x1="451.529" y1="317.883" x2="449.734" y2="371.189" gradientUnits="userSpaceOnUse">
<stop stop-color="#2A6993"/>
<stop offset="1" stop-color="#84939E"/>
</linearGradient>
<linearGradient id="paint33_linear_270_2" x1="507.368" y1="215.423" x2="522.09" y2="255.871" gradientUnits="userSpaceOnUse">
<stop stop-color="#07284E"/>
<stop offset="1" stop-color="#1F1105"/>
</linearGradient>
<linearGradient id="paint34_linear_270_2" x1="457.389" y1="280.021" x2="455.429" y2="290.725" gradientUnits="userSpaceOnUse">
<stop stop-color="white"/>
<stop offset="1" stop-color="#FFD0D0"/>
</linearGradient>
<linearGradient id="paint35_linear_270_2" x1="462.604" y1="281.266" x2="461.941" y2="288.618" gradientUnits="userSpaceOnUse">
<stop stop-color="white"/>
<stop offset="1" stop-color="#FFD0D0"/>
</linearGradient>
<linearGradient id="paint36_linear_270_2" x1="502.582" y1="251.005" x2="502.582" y2="281.876" gradientUnits="userSpaceOnUse">
<stop stop-color="#FE2F3C"/>
<stop offset="1" stop-color="#DC0B18"/>
</linearGradient>
<linearGradient id="paint37_linear_270_2" x1="496.271" y1="271.979" x2="471.285" y2="288.83" gradientUnits="userSpaceOnUse">
<stop stop-color="#F74C56"/>
<stop offset="1" stop-color="#C61A25"/>
</linearGradient>
<linearGradient id="paint38_linear_270_2" x1="508.595" y1="247.122" x2="505.263" y2="253.219" gradientUnits="userSpaceOnUse">
<stop stop-color="white"/>
<stop offset="1" stop-color="#FFD0D0"/>
</linearGradient>
<linearGradient id="paint39_linear_270_2" x1="514.357" y1="236.538" x2="509.989" y2="250.992" gradientUnits="userSpaceOnUse">
<stop stop-color="white"/>
<stop offset="1" stop-color="#FFD0D0"/>
</linearGradient>
<linearGradient id="paint40_linear_270_2" x1="507.478" y1="247.179" x2="507.478" y2="311.938" gradientUnits="userSpaceOnUse">
<stop stop-color="#E1131F"/>
<stop offset="1" stop-color="#FC737B"/>
</linearGradient>
<linearGradient id="paint41_linear_270_2" x1="470.277" y1="278.47" x2="469.319" y2="288.174" gradientUnits="userSpaceOnUse">
<stop stop-color="white"/>
<stop offset="1" stop-color="#FFD0D0"/>
</linearGradient>
<linearGradient id="paint42_linear_270_2" x1="461.669" y1="284.654" x2="461.218" y2="288.809" gradientUnits="userSpaceOnUse">
<stop stop-color="white"/>
<stop offset="1" stop-color="#FFD0D0"/>
</linearGradient>
<linearGradient id="paint43_linear_270_2" x1="510.774" y1="252.716" x2="510.774" y2="284.17" gradientUnits="userSpaceOnUse">
<stop stop-color="#FF4B56"/>
<stop offset="1" stop-color="#CB1723"/>
</linearGradient>
<linearGradient id="paint44_linear_270_2" x1="485.23" y1="277.208" x2="488.136" y2="286.505" gradientUnits="userSpaceOnUse">
<stop stop-color="#FF4551"/>
<stop offset="1" stop-color="#C31924"/>
</linearGradient>
<linearGradient id="paint45_linear_270_2" x1="509.635" y1="220.265" x2="507.964" y2="244.052" gradientUnits="userSpaceOnUse">
<stop stop-color="white"/>
<stop offset="1" stop-color="#FFD0D0"/>
</linearGradient>
<linearGradient id="paint46_linear_270_2" x1="521.377" y1="210.712" x2="521.377" y2="258.722" gradientUnits="userSpaceOnUse">
<stop stop-color="#0A0C36"/>
<stop offset="1" stop-color="#222E4D"/>
</linearGradient>
<linearGradient id="paint47_linear_270_2" x1="417.613" y1="264.367" x2="417.613" y2="291.723" gradientUnits="userSpaceOnUse">
<stop stop-color="#F0F2FC"/>
<stop offset="1" stop-color="#C3B9FF"/>
</linearGradient>
<linearGradient id="paint48_linear_270_2" x1="417.613" y1="276.011" x2="417.828" y2="280.695" gradientUnits="userSpaceOnUse">
<stop stop-color="white"/>
<stop offset="1" stop-color="white" stop-opacity="0"/>
</linearGradient>
<linearGradient id="paint49_linear_270_2" x1="441.453" y1="292.851" x2="402.523" y2="292.851" gradientUnits="userSpaceOnUse">
<stop stop-color="#B08AFF"/>
<stop offset="1" stop-color="#EAD0FF"/>
</linearGradient>
<linearGradient id="paint50_linear_270_2" x1="462.994" y1="292.851" x2="441.851" y2="292.851" gradientUnits="userSpaceOnUse">
<stop stop-color="#B08AFF"/>
<stop offset="1" stop-color="#EAD0FF"/>
</linearGradient>
<linearGradient id="paint51_linear_270_2" x1="356.352" y1="335.39" x2="362.953" y2="335.39" gradientUnits="userSpaceOnUse">
<stop stop-color="#3AAFF4"/>
<stop offset="1" stop-color="#EAF7FF"/>
</linearGradient>
<linearGradient id="paint52_linear_270_2" x1="360.303" y1="302.775" x2="360.303" y2="372.502" gradientUnits="userSpaceOnUse">
<stop stop-color="#3AAFF4"/>
<stop offset="1" stop-color="#EAF7FF"/>
</linearGradient>
<linearGradient id="paint53_linear_270_2" x1="348.519" y1="375.477" x2="378.316" y2="375.477" gradientUnits="userSpaceOnUse">
<stop stop-color="#FFB518"/>
<stop offset="1" stop-color="#FFE9B9"/>
</linearGradient>
<linearGradient id="paint54_linear_270_2" x1="237.735" y1="328.492" x2="237.735" y2="374.338" gradientUnits="userSpaceOnUse">
<stop stop-color="#3AAFF4"/>
<stop offset="1" stop-color="#EAF7FF"/>
</linearGradient>
<linearGradient id="paint55_linear_270_2" x1="209.493" y1="262.513" x2="209.493" y2="333.209" gradientUnits="userSpaceOnUse">
<stop stop-color="#FB8916"/>
<stop offset="0.0001" stop-color="#FBBB16"/>
<stop offset="1" stop-color="#FCC995"/>
</linearGradient>
<linearGradient id="paint56_linear_270_2" x1="217.944" y1="350.422" x2="254.551" y2="348.679" gradientUnits="userSpaceOnUse">
<stop stop-color="#FFB312"/>
<stop offset="1" stop-color="#FFE0A0"/>
</linearGradient>
<linearGradient id="paint57_linear_270_2" x1="266.122" y1="366.578" x2="266.122" y2="377.65" gradientUnits="userSpaceOnUse">
<stop stop-color="#120A5A"/>
<stop offset="1" stop-color="#483F99"/>
</linearGradient>
<linearGradient id="paint58_linear_270_2" x1="299.388" y1="372.492" x2="299.388" y2="378.812" gradientUnits="userSpaceOnUse">
<stop stop-color="#100A49"/>
<stop offset="1" stop-color="#635D9A"/>
</linearGradient>
<linearGradient id="paint59_linear_270_2" x1="260.2" y1="303.147" x2="260.2" y2="372.386" gradientUnits="userSpaceOnUse">
<stop stop-color="#103246"/>
<stop offset="1" stop-color="#4B5F6B"/>
</linearGradient>
<linearGradient id="paint60_linear_270_2" x1="260.576" y1="301.171" x2="260.576" y2="375.616" gradientUnits="userSpaceOnUse">
<stop stop-color="#2F4554"/>
<stop offset="1" stop-color="#47677C"/>
</linearGradient>
<linearGradient id="paint61_linear_270_2" x1="229.366" y1="243.158" x2="229.366" y2="310.77" gradientUnits="userSpaceOnUse">
<stop stop-color="#EE5F4C"/>
<stop offset="1" stop-color="#E9A48E"/>
</linearGradient>
<linearGradient id="paint62_linear_270_2" x1="281.328" y1="280.72" x2="280.453" y2="291.944" gradientUnits="userSpaceOnUse">
<stop stop-color="white"/>
<stop offset="1" stop-color="#FFD0D0"/>
</linearGradient>
<linearGradient id="paint63_linear_270_2" x1="243.97" y1="252.741" x2="243.97" y2="297.701" gradientUnits="userSpaceOnUse">
<stop stop-color="#F5BA3A"/>
<stop offset="1" stop-color="#FEECC5"/>
</linearGradient>
<linearGradient id="paint64_linear_270_2" x1="229.765" y1="212.103" x2="219.626" y2="246.321" gradientUnits="userSpaceOnUse">
<stop stop-color="white"/>
<stop offset="1" stop-color="#FFD0D0"/>
</linearGradient>
<linearGradient id="paint65_linear_270_2" x1="235.166" y1="194.433" x2="220.302" y2="238.115" gradientUnits="userSpaceOnUse">
<stop stop-color="white"/>
<stop offset="1" stop-color="#FFD0D0"/>
</linearGradient>
<linearGradient id="paint66_linear_270_2" x1="225.543" y1="211.979" x2="225.543" y2="232.861" gradientUnits="userSpaceOnUse">
<stop stop-color="#13114C"/>
<stop offset="1" stop-color="#28201B"/>
</linearGradient>
<linearGradient id="paint67_linear_270_2" x1="226.556" y1="219.546" x2="223.695" y2="227.905" gradientUnits="userSpaceOnUse">
<stop stop-color="white"/>
<stop offset="1" stop-color="#FFD0D0"/>
</linearGradient>
<linearGradient id="paint68_linear_270_2" x1="233.173" y1="207.549" x2="233.173" y2="216.163" gradientUnits="userSpaceOnUse">
<stop stop-color="#051C56"/>
<stop offset="1" stop-color="#171926"/>
</linearGradient>
<linearGradient id="paint69_linear_270_2" x1="234.164" y1="209.645" x2="234.164" y2="220.392" gradientUnits="userSpaceOnUse">
<stop stop-color="#121075"/>
<stop offset="1" stop-color="#281D14"/>
</linearGradient>
<linearGradient id="paint70_linear_270_2" x1="308.612" y1="264.367" x2="308.612" y2="291.723" gradientUnits="userSpaceOnUse">
<stop stop-color="#F0F2FC"/>
<stop offset="1" stop-color="#C3B9FF"/>
</linearGradient>
<linearGradient id="paint71_linear_270_2" x1="308.612" y1="276.011" x2="308.589" y2="281.276" gradientUnits="userSpaceOnUse">
<stop stop-color="white"/>
<stop offset="1" stop-color="white" stop-opacity="0"/>
</linearGradient>
<linearGradient id="paint72_linear_270_2" x1="284.765" y1="293.478" x2="323.696" y2="293.478" gradientUnits="userSpaceOnUse">
<stop stop-color="#B08AFF"/>
<stop offset="1" stop-color="#EAD0FF"/>
</linearGradient>
<linearGradient id="paint73_linear_270_2" x1="263.236" y1="293.478" x2="284.38" y2="293.478" gradientUnits="userSpaceOnUse">
<stop stop-color="#B08AFF"/>
<stop offset="1" stop-color="#EAD0FF"/>
</linearGradient>
</defs>
</svg>
