<svg width="740" height="440" viewBox="0 0 740 440" fill="none" xmlns="http://www.w3.org/2000/svg">
<rect width="740" height="440" fill="url(#paint0_linear_87_2)"/>
<path opacity="0.16" fill-rule="evenodd" clip-rule="evenodd" d="M247.494 364.272C247.494 364.272 187.165 340.026 218.532 270.286C249.9 200.546 316.173 213.371 270.765 185.579C223.474 156.655 232.535 72.2509 297.295 65.2864C362.055 58.322 364.584 118.528 421.24 112.822C477.896 107.116 554.808 111.556 544.184 166.073C533.559 220.59 496.627 257.359 518.886 278.278C541.145 299.198 599.405 308.021 530.09 364.436L247.494 364.272Z" fill="white"/>
<g opacity="0.3">
<path d="M487.288 327.02C487.288 327.02 496.377 325.305 500.449 316.13C500.449 316.132 490.034 315.573 487.288 327.02Z" fill="url(#paint1_linear_87_2)"/>
<path d="M480.949 311.614C480.949 311.614 487.373 309.686 489.626 302.753C489.626 302.75 482.067 303.136 480.949 311.614Z" fill="url(#paint2_linear_87_2)"/>
<path d="M472.562 301.149C472.562 301.149 476.819 298.965 477.492 293.813C477.492 293.813 472.243 295.065 472.562 301.149Z" fill="url(#paint3_linear_87_2)"/>
<path d="M484.668 319.235C484.668 319.235 477.932 312.615 467.867 314.555C467.877 314.555 473.468 323.608 484.668 319.235Z" fill="url(#paint4_linear_87_2)"/>
<path d="M476.626 306.081C476.626 306.081 472.189 302.37 466.136 304.047C466.136 304.035 470.002 309.289 476.626 306.081Z" fill="url(#paint5_linear_87_2)"/>
<path d="M470.018 299.043C469.166 298.789 468.267 298.732 467.389 298.877C466.512 299.021 465.678 299.364 464.953 299.878C464.953 299.878 467.577 301.601 470.018 299.043Z" fill="url(#paint6_linear_87_2)"/>
<path d="M464.672 295.9C464.724 296.685 465.569 297.271 466.556 297.206C467.544 297.142 468.305 296.452 468.255 295.664C468.205 294.877 467.358 294.294 466.371 294.361C465.383 294.427 464.622 295.115 464.672 295.9Z" fill="url(#paint7_linear_87_2)"/>
</g>
<g opacity="0.3">
<path d="M491.109 331.691C491.109 331.691 458.949 325.623 444.546 293.159C444.558 293.159 481.387 291.177 491.109 331.691Z" fill="url(#paint8_linear_87_2)"/>
<path d="M496.291 295.919C496.291 295.919 510.141 273.37 538.82 271.842C538.82 271.842 529.705 300.247 496.291 295.919Z" fill="url(#paint9_linear_87_2)"/>
</g>
<g opacity="0.3">
<path d="M264.987 327.103C264.987 327.103 255.897 325.388 251.826 316.213C251.826 316.213 262.238 315.651 264.987 327.103Z" fill="url(#paint10_linear_87_2)"/>
<path d="M271.337 311.692C271.337 311.692 264.913 309.767 262.657 302.834C262.645 302.834 270.207 303.226 271.337 311.692Z" fill="url(#paint11_linear_87_2)"/>
<path d="M279.712 301.23C279.712 301.23 275.453 299.046 274.78 293.894C274.78 293.894 280.029 295.136 279.712 301.23Z" fill="url(#paint12_linear_87_2)"/>
<path d="M267.604 319.316C267.604 319.316 274.342 312.696 284.404 314.635C284.404 314.647 278.803 323.689 267.604 319.316Z" fill="url(#paint13_linear_87_2)"/>
<path d="M275.646 306.15C275.646 306.15 280.085 302.439 286.136 304.116C286.136 304.116 282.282 309.37 275.646 306.15Z" fill="url(#paint14_linear_87_2)"/>
<path d="M282.248 299.124C283.1 298.87 284 298.813 284.877 298.957C285.755 299.102 286.588 299.445 287.314 299.959C287.314 299.959 284.694 301.68 282.248 299.124Z" fill="url(#paint15_linear_87_2)"/>
<path d="M287.603 295.989C287.654 295.203 286.895 294.514 285.906 294.449C284.917 294.384 284.074 294.968 284.022 295.753C283.971 296.539 284.73 297.228 285.719 297.293C286.708 297.358 287.551 296.774 287.603 295.989Z" fill="url(#paint16_linear_87_2)"/>
</g>
<g opacity="0.3">
<path d="M255.981 296C255.981 296 242.131 273.45 213.452 271.923C213.452 271.923 222.56 300.328 255.981 296Z" fill="url(#paint17_linear_87_2)"/>
</g>
<path d="M375.758 373.832C464.346 373.832 536.161 371.172 536.161 367.891C536.161 364.61 464.346 361.95 375.758 361.95C287.171 361.95 215.356 364.61 215.356 367.891C215.356 371.172 287.171 373.832 375.758 373.832Z" fill="url(#paint18_linear_87_2)"/>
<path style="mix-blend-mode:multiply" opacity="0.38" d="M382.328 370.404C418.83 370.404 448.42 368.616 448.42 366.411C448.42 364.206 418.83 362.418 382.328 362.418C345.826 362.418 316.235 364.206 316.235 366.411C316.235 368.616 345.826 370.404 382.328 370.404Z" fill="url(#paint19_linear_87_2)"/>
<path d="M519.338 368.771C519.338 368.771 530.785 370.675 528.913 366.073C527.04 361.471 521.089 361.821 518.879 363.694C516.668 365.566 515.138 363.523 513.946 360.803C512.754 358.083 508.845 357.569 506.975 360.632C505.104 363.694 503.567 359.618 500.85 357.239C498.133 354.859 495.58 356.727 494.728 359.109C493.876 361.491 485.543 360.81 484.694 356.558C483.844 352.306 473.639 348.394 473.13 354.179C472.621 359.963 464.802 358.09 463.094 354.519C461.385 350.947 452.72 349.586 452.72 355.199C452.72 360.812 445.408 359.958 445.236 354.859C445.065 349.76 435.883 347.376 434.862 354.348C433.841 361.319 426.613 357.496 420.491 352.137C414.368 346.779 407.48 349.077 406.971 354.179C406.462 359.28 397.532 355.963 394.981 351.628C392.43 347.293 384.776 346.015 382.734 352.392C380.693 358.768 379.674 352.903 374.571 349.586C369.467 346.269 363.863 351.628 363.347 355.709C362.831 359.789 357.734 356.729 353.396 352.649C349.059 348.568 341.407 352.649 342.689 357.241C343.972 361.833 337.076 360.046 334.016 355.199C330.956 350.353 322.281 347.545 322.281 353.924C322.281 360.303 317.689 362.342 313.351 355.709C309.013 349.075 305.699 349.332 302.882 354.433C300.065 359.535 294.975 357.75 294.463 353.667C293.952 349.584 284.261 352.137 283.756 356.984C283.252 361.831 275.592 361.831 273.287 356.729C270.981 351.628 262.318 353.667 262.063 358.005C261.809 362.342 253.899 364.638 253.645 360.046C253.39 355.454 245.99 358.005 245.99 363.106C245.99 368.208 240.632 367.698 239.102 364.384C237.572 361.069 232.202 361.067 232.202 364.893C232.202 368.719 228.121 367.955 226.846 365.914C225.57 363.872 222.508 368.21 226.591 369.74C230.674 371.27 519.338 368.771 519.338 368.771Z" fill="url(#paint20_linear_87_2)"/>
<path d="M418.654 246.121V244.693C420.286 244.693 421.88 244.655 423.391 244.603L423.441 246.03C421.909 246.078 420.3 246.121 418.654 246.121ZM413.878 246.087C412.344 246.061 410.738 246.014 409.103 245.952L409.158 244.524C410.78 244.586 412.379 244.631 413.917 244.657L413.878 246.087ZM428.212 245.78L428.112 244.353C429.756 244.236 431.338 244.086 432.816 243.908L432.985 245.335C431.486 245.507 429.88 245.659 428.212 245.776V245.78ZM404.332 245.73C402.786 245.645 401.182 245.547 399.573 245.435L399.671 244.008C401.28 244.12 402.876 244.22 404.416 244.303L404.332 245.73ZM394.815 245.074C393.275 244.948 391.676 244.807 390.056 244.657L390.189 243.23C391.798 243.38 393.392 243.518 394.927 243.644L394.815 245.074ZM437.746 244.598L437.48 243.196C439.015 242.908 440.534 242.542 442.031 242.099L442.443 243.465C440.895 243.925 439.324 244.303 437.737 244.598H437.746ZM385.311 244.186C383.767 244.027 382.171 243.855 380.569 243.675L380.729 242.247C382.325 242.425 383.917 242.597 385.459 242.756L385.311 244.186ZM375.83 243.123C374.297 242.937 372.705 242.74 371.097 242.533L371.278 241.105C372.881 241.312 374.471 241.509 376.001 241.693L375.83 243.123ZM366.369 241.912C364.799 241.701 363.224 241.482 361.646 241.257L361.846 239.844C363.421 240.067 364.992 240.285 366.559 240.496L366.369 241.912ZM446.985 241.688L446.338 240.415C447.692 239.759 448.921 238.874 449.972 237.798L451.016 238.771C449.85 239.971 448.482 240.958 446.976 241.688H446.985ZM356.925 240.574C355.355 240.344 353.784 240.106 352.212 239.86L352.428 238.449C353.995 238.691 355.564 238.929 357.135 239.163L356.925 240.574ZM347.479 239.13C345.907 238.881 344.337 238.628 342.77 238.371L343.008 236.962C344.571 237.219 346.138 237.472 347.71 237.719L347.479 239.13ZM338.073 237.593C336.503 237.328 334.936 237.062 333.374 236.793L333.612 235.385C335.17 235.653 336.734 235.92 338.306 236.187L338.073 237.593ZM328.682 235.973C327.111 235.695 325.547 235.415 323.99 235.133L324.244 233.729C325.797 234.01 327.36 234.289 328.932 234.566L328.682 235.973ZM319.3 234.276C317.728 233.986 316.166 233.694 314.615 233.4L314.879 231.999C316.427 232.289 317.987 232.58 319.559 232.872L319.3 234.276ZM453.305 234.231L451.896 233.993C451.969 233.564 452.005 233.129 452.004 232.694C451.99 231.652 451.824 230.618 451.511 229.624L452.879 229.21C453.232 230.338 453.418 231.512 453.431 232.694C453.431 233.206 453.388 233.718 453.303 234.224L453.305 234.231ZM309.932 232.511C308.354 232.209 306.794 231.907 305.252 231.604L305.525 230.202L310.201 231.109L309.932 232.511ZM300.574 230.681C298.988 230.363 297.429 230.051 295.898 229.743L296.182 228.344C297.714 228.654 299.271 228.965 300.852 229.279L300.574 230.681ZM291.228 228.792C289.641 228.465 288.084 228.142 286.557 227.823L286.85 226.426C288.372 226.744 289.927 227.066 291.513 227.392L291.228 228.792ZM281.886 226.848C280.287 226.51 278.733 226.178 277.222 225.853L277.522 224.456C279.031 224.781 280.585 225.113 282.184 225.451L281.886 226.848ZM449.634 225.463C448.86 224.145 447.964 222.904 446.957 221.756L448.03 220.804C449.098 222.021 450.048 223.337 450.866 224.735L449.634 225.463ZM272.554 224.844L267.895 223.821L268.202 222.427C269.685 222.755 271.238 223.096 272.859 223.45L272.554 224.844ZM263.248 222.776C261.561 222.398 260.003 222.044 258.589 221.722L258.908 220.33L263.562 221.384L263.248 222.776ZM253.921 220.661C250.937 219.966 249.26 219.562 249.243 219.557L249.579 218.17C249.595 218.17 251.268 218.577 254.245 219.269L253.921 220.661ZM443.64 218.57C442.433 217.592 441.161 216.698 439.833 215.893L440.58 214.675C441.957 215.515 443.277 216.446 444.53 217.463L443.64 218.57ZM435.731 213.675C434.379 213.035 432.923 212.419 431.403 211.848L431.905 210.513C433.463 211.098 434.955 211.729 436.342 212.386L435.731 213.675ZM426.927 210.344C425.48 209.906 423.948 209.487 422.368 209.1L422.708 207.712C424.312 208.107 425.871 208.533 427.339 208.978L426.927 210.344ZM417.754 208.05C416.265 207.751 414.695 207.463 413.091 207.196L413.329 205.787C414.947 206.056 416.534 206.347 418.04 206.651L417.754 208.05ZM408.392 206.487C406.883 206.28 405.298 206.083 403.678 205.897L403.84 204.469C405.47 204.655 407.066 204.855 408.587 205.064L408.392 206.487ZM398.95 205.404C397.434 205.259 395.84 205.121 394.213 204.99L394.327 203.563C395.962 203.694 397.563 203.832 399.086 203.977L398.95 205.404ZM389.466 204.643C387.96 204.541 386.373 204.443 384.721 204.348L384.805 202.92C386.449 203.015 388.05 203.115 389.563 203.215L389.466 204.643ZM379.948 204.089C378.362 204.008 376.776 203.928 375.189 203.851L375.256 202.423C376.842 202.498 378.429 202.577 380.015 202.661L379.948 204.089ZM370.431 203.641L365.672 203.43L365.736 202.002L370.495 202.214L370.431 203.641ZM360.913 203.208C359.309 203.132 357.723 203.053 356.154 202.97L356.233 201.543C357.8 201.628 359.386 201.708 360.992 201.781L360.913 203.208ZM351.381 202.685C349.716 202.58 348.107 202.466 346.622 202.349L346.732 200.922C348.219 201.038 349.825 201.16 351.479 201.257L351.381 202.685ZM341.849 201.938C340.184 201.776 338.587 201.602 337.091 201.419L337.264 199.991C338.747 200.174 340.336 200.346 341.985 200.508L341.849 201.938ZM332.346 200.748C330.68 200.481 329.093 200.191 327.623 199.884L327.916 198.485C329.365 198.79 330.93 199.075 332.57 199.337L332.346 200.748ZM322.947 198.737C321.397 198.3 319.871 197.778 318.377 197.176L318.917 195.856C320.364 196.438 321.841 196.941 323.342 197.364L322.947 198.737ZM314.044 194.99C312.651 194.135 311.388 193.084 310.294 191.87L311.367 190.919C312.371 192.03 313.53 192.992 314.807 193.774L314.044 194.99ZM307.833 187.626C307.404 186.3 307.19 184.914 307.198 183.521C307.198 183.252 307.198 182.979 307.22 182.705L308.647 182.779C308.647 183.017 308.628 183.276 308.628 183.521C308.62 184.762 308.81 185.996 309.192 187.176L307.833 187.626ZM436.231 178.341C434.858 178.203 433.299 177.968 431.472 177.627L431.736 176.223C433.532 176.561 435.067 176.79 436.385 176.923L436.231 178.341ZM309.494 178.291L308.128 177.875C308.609 176.326 309.204 174.815 309.908 173.354L311.198 173.965C310.522 175.363 309.95 176.809 309.487 178.291H309.494ZM441.201 178.258L440.882 176.866C442.446 176.507 442.445 175.757 442.445 175.438C442.427 175.034 442.336 174.636 442.179 174.263L443.514 173.756C443.731 174.292 443.851 174.863 443.866 175.441C443.866 176.445 443.402 177.751 441.194 178.258H441.201ZM426.763 176.642C425.35 176.321 423.829 175.957 422.114 175.531L422.459 174.146C424.162 174.57 425.676 174.929 427.079 175.25L426.763 176.642ZM417.483 174.351C415.989 173.962 414.452 173.557 412.872 173.135L413.238 171.755C414.814 172.174 416.348 172.578 417.843 172.968L417.483 174.351ZM408.268 171.902L407.616 171.729C406.318 171.381 405.002 171.029 403.666 170.672L404.033 169.292L407.987 170.351L408.637 170.525L408.268 171.902ZM439.766 170.427L439.459 170.044C438.531 168.904 437.637 167.777 436.799 166.696L437.929 165.823C438.757 166.894 439.645 168.012 440.566 169.154L440.885 169.552L439.766 170.427ZM313.463 169.951L312.302 169.121C313.257 167.784 314.368 166.566 315.612 165.492L316.547 166.573C315.392 167.571 314.359 168.703 313.47 169.944L313.463 169.951ZM399.062 169.459C397.544 169.059 396.008 168.663 394.455 168.269L394.812 166.887C396.367 167.286 397.905 167.683 399.426 168.076L399.062 169.459ZM389.844 167.091C388.257 166.696 386.701 166.316 385.223 165.961L385.554 164.574C387.039 164.928 388.597 165.309 390.189 165.707L389.844 167.091ZM380.586 164.881C379.008 164.522 377.445 164.179 375.941 163.86L376.239 162.463C377.75 162.785 379.318 163.13 380.902 163.489L380.586 164.881ZM320.325 163.951L319.635 162.701C321.06 161.919 322.548 161.256 324.082 160.719L324.558 162.064C323.101 162.574 321.687 163.202 320.332 163.943L320.325 163.951ZM371.29 162.908C369.7 162.597 368.13 162.304 366.621 162.038L366.859 160.631C368.375 160.9 369.952 161.193 371.556 161.507L371.29 162.908ZM433.939 162.87C432.966 161.514 432.055 160.184 431.234 158.913L432.423 158.138C433.235 159.389 434.132 160.7 435.091 162.038L433.939 162.87ZM361.939 161.264C360.337 161.026 358.757 160.788 357.239 160.603L357.418 159.187C358.948 159.382 360.542 159.606 362.155 159.853L361.939 161.264ZM329.051 160.788L328.744 159.394C330.24 159.066 331.837 158.797 333.502 158.597L333.674 160.025C332.065 160.224 330.509 160.462 329.058 160.791L329.051 160.788ZM352.528 160.075C350.915 159.922 349.325 159.801 347.807 159.713L347.888 158.285C349.425 158.373 351.031 158.497 352.664 158.652L352.528 160.075ZM338.364 159.632L338.297 158.204C339.827 158.133 341.447 158.104 343.096 158.121L343.079 159.549C341.466 159.532 339.865 159.558 338.371 159.63L338.364 159.632ZM428.745 154.797C427.917 153.312 427.186 151.863 426.58 150.488L427.886 149.912C428.476 151.245 429.185 152.656 429.992 154.102L428.745 154.797ZM424.912 145.929C424.454 144.356 424.168 142.738 424.058 141.104L425.485 141.018C425.59 142.549 425.86 144.065 426.289 145.539L424.912 145.929ZM425.878 136.526L424.493 136.171C424.91 134.556 425.605 133.027 426.546 131.65L427.736 132.452C426.887 133.691 426.261 135.069 425.885 136.523L425.878 136.526ZM430.801 129.114L429.885 128.019C431.146 126.982 432.5 126.063 433.93 125.273L434.627 126.52C433.277 127.266 431.999 128.133 430.808 129.111L430.801 129.114ZM438.824 124.507L438.282 123.187C439.678 122.613 441.201 122.066 442.802 121.562L443.231 122.923C441.675 123.415 440.19 123.948 438.831 124.505L438.824 124.507ZM447.78 121.652L447.437 120.267C448.913 119.901 450.488 119.553 452.113 119.227L452.391 120.626C450.795 120.95 449.243 121.293 447.787 121.654L447.78 121.652ZM457.06 119.794L456.822 118.383C458.335 118.145 459.915 117.907 461.55 117.695L461.738 119.123C460.132 119.325 458.554 119.553 457.055 119.796L457.06 119.794ZM466.454 118.552L466.301 117.124C467.831 116.96 469.43 116.805 471.06 116.667L471.181 118.095C469.559 118.24 467.969 118.392 466.449 118.554L466.454 118.552ZM475.907 117.733L475.807 116.305C477.161 116.213 478.558 116.127 479.964 116.049L480.042 117.476C478.639 117.557 477.247 117.633 475.902 117.736L475.907 117.733Z" fill="url(#paint21_linear_87_2)"/>
<path d="M437.461 338.222C437.461 338.222 438.174 310.669 444.173 288.574C450.171 266.479 450.305 257.275 455.62 256.883C460.936 256.49 461.076 262.981 464.5 262.795C467.924 262.61 470.886 246.016 476.123 243.144C481.36 240.272 483.737 246.328 487.069 245.195C490.4 244.062 502.347 225.717 512.864 232.601C523.381 239.485 504.852 255.493 506.57 258.941C508.288 262.389 511.172 259.01 513.606 261.996C516.04 264.982 515.153 269.098 508.464 274.428C501.776 279.758 500.022 282.537 504.626 286.525C512.664 293.49 494.052 307.019 462.918 321.54C436.176 334.013 437.461 338.222 437.461 338.222Z" fill="url(#paint22_linear_87_2)"/>
<path d="M509.277 235.792C509.277 235.792 468.428 305.984 438.978 334.096M478.129 250.963C478.129 250.963 483.789 277.322 472.942 292.54M505.485 268.249C505.485 268.249 490.28 275.863 475.897 288.274M458.48 270.731C458.48 270.731 458.955 308.987 446.076 326.678" stroke="white" stroke-opacity="0.5" stroke-width="0.75" stroke-miterlimit="10" stroke-linejoin="round"/>
<path d="M453.943 318.392L497.519 288.072" stroke="#9B4255" stroke-width="2" stroke-miterlimit="10"/>
<path d="M503.134 292.96C503.137 286.836 504.404 280.732 506.888 275.13C508.053 272.503 509.435 269.854 511.288 267.623L511.27 267.891C511.504 268.622 513.184 273.626 517.318 274.767C520.679 275.694 524.257 273.681 527.118 272.071C528.126 271.504 528.926 270.955 529.483 270.548C528.022 270.356 525.915 269.911 523.662 268.744C521.879 267.82 521.321 267.125 520.132 266.535C518.596 265.772 516.191 265.276 512.365 266.437C514.416 264.385 516.994 263.061 519.639 261.898C522.266 260.743 524.997 259.726 527.39 258.122C529.219 256.897 530.667 255.347 531.667 253.455C532.132 254.778 533.862 258.985 537.61 260.02C540.97 260.947 544.549 258.934 547.409 257.324C548.418 256.757 549.218 256.209 549.775 255.801C548.314 255.61 546.207 255.164 543.954 253.997C542.171 253.073 541.613 252.379 540.424 251.788C538.854 251.009 536.378 250.507 532.406 251.767C533.477 248.828 533.966 245.607 534.35 242.52C534.539 241 534.635 239.475 534.723 237.949C535.376 239.604 537.114 243.105 540.488 244.036C543.849 244.963 547.427 242.95 550.288 241.34C551.296 240.773 552.096 240.225 552.653 239.818C551.192 239.626 549.085 239.181 546.832 238.013C545.049 237.09 544.49 236.395 543.302 235.805C541.675 234.997 539.074 234.487 534.843 235.929C534.893 235.144 534.95 234.358 535.028 233.574C535.365 230.161 536.363 226.875 539.072 224.603L539.035 225.162C539.269 225.893 540.948 230.896 545.082 232.037C548.443 232.964 552.021 230.951 554.882 229.341C555.89 228.774 556.69 228.226 557.247 227.819C555.786 227.627 553.679 227.182 551.427 226.014C549.644 225.09 549.085 224.396 547.896 223.806C546.399 223.062 544.077 222.572 540.418 223.622C542.516 222.295 544.958 221.542 547.395 220.955L548.06 221.576C548.806 221.873 553.961 223.843 557.601 221.298C560.56 219.228 561.28 215.04 561.855 211.692C562.058 210.512 562.14 209.511 562.176 208.797C561.061 209.836 559.316 211.223 556.891 212.249C554.972 213.061 554.043 213.047 552.783 213.606C551.057 214.372 548.93 216.117 547.316 220.47C544.92 221.049 542.542 221.783 540.428 223.045C538.274 224.33 536.652 226.155 535.696 228.406C535.843 226.631 535.758 223.418 533.594 221.383C531.246 219.176 527.434 219.277 524.386 219.358C523.312 219.387 522.416 219.489 521.782 219.581C522.895 220.368 524.426 221.641 525.761 223.565C526.817 225.089 526.971 225.897 527.687 226.892C528.691 228.288 530.671 229.87 534.989 230.486L535.045 230.397C534.423 232.924 534.395 235.568 534.249 238.155C534.139 240.085 533.941 242.009 533.658 243.919L533.653 243.772C533.37 243.12 531.362 238.659 527.448 237.983C524.266 237.433 521.154 239.614 518.667 241.357C517.79 241.972 517.104 242.549 516.628 242.975C517.992 243.02 519.974 243.239 522.157 244.111C523.884 244.801 524.463 245.39 525.613 245.827C527.202 246.43 529.678 246.661 533.507 244.893C533.31 246.092 533.08 247.285 532.812 248.471C532.538 249.687 532.204 250.869 531.754 251.986C531.715 252 531.677 252.013 531.637 252.027L531.618 252.31C530.895 253.997 529.887 255.524 528.379 256.777C526.876 258.026 525.139 258.941 523.356 259.752L523.393 258.938C523.162 258.266 521.508 253.665 517.658 252.689C514.528 251.895 511.255 253.83 508.638 255.375C507.715 255.921 506.985 256.443 506.478 256.831C507.835 256.98 509.794 257.352 511.903 258.389C513.572 259.21 514.102 259.842 515.215 260.365C516.514 260.977 518.465 261.373 521.426 260.596C521.149 260.714 520.873 260.832 520.598 260.95C517.965 262.079 515.288 263.25 513.078 265.103C512.469 265.614 511.905 266.171 511.379 266.762C511.367 266.765 511.356 266.769 511.345 266.773L511.343 266.8C509.668 268.688 508.377 270.924 507.265 273.166C504.219 279.304 502.643 286.113 502.639 292.961C502.639 293.278 503.134 293.277 503.134 292.96Z" fill="#DED9FF" fill-opacity="0.36"/>
<path d="M236.734 289.34C236.73 283.216 235.464 277.113 232.98 271.511C231.815 268.884 230.433 266.235 228.579 264.004L228.597 264.272C228.363 265.003 226.684 270.006 222.55 271.147C219.189 272.074 215.611 270.061 212.75 268.451C211.742 267.884 210.942 267.336 210.385 266.929C211.846 266.737 213.953 266.291 216.205 265.124C217.988 264.2 218.547 263.506 219.736 262.915C221.272 262.153 223.677 261.657 227.502 262.817C225.451 260.765 222.873 259.441 220.229 258.278C217.602 257.123 214.871 256.107 212.477 254.503C210.649 253.277 209.2 251.728 208.201 249.835C207.736 251.158 206.005 255.366 202.258 256.4C198.897 257.327 195.319 255.314 192.458 253.704C191.45 253.137 190.65 252.589 190.093 252.182C191.554 251.99 193.661 251.545 195.914 250.378C197.697 249.453 198.255 248.759 199.444 248.169C201.014 247.39 203.49 246.888 207.462 248.148C206.391 245.209 205.902 241.987 205.518 238.901C205.329 237.38 205.232 235.855 205.145 234.33C204.491 235.984 202.753 239.486 199.38 240.417C196.019 241.344 192.441 239.33 189.58 237.721C188.572 237.153 187.772 236.605 187.215 236.198C188.676 236.006 190.783 235.561 193.036 234.394C194.819 233.47 195.377 232.775 196.566 232.185C198.193 231.377 200.794 230.868 205.025 232.309C204.975 231.524 204.917 230.738 204.84 229.954C204.503 226.541 203.505 223.255 200.795 220.983L200.833 221.542C200.599 222.273 198.92 227.277 194.785 228.417C191.425 229.344 187.846 227.331 184.986 225.722C183.977 225.154 183.177 224.607 182.62 224.199C184.082 224.007 186.188 223.562 188.441 222.395C190.224 221.471 190.783 220.776 191.972 220.186C193.468 219.443 195.791 218.952 199.45 220.003C197.352 218.675 194.91 217.922 192.473 217.335L191.807 217.957C191.062 218.253 185.906 220.224 182.267 217.678C179.308 215.609 178.588 211.42 178.012 208.072C177.809 206.892 177.728 205.891 177.691 205.177C178.807 206.217 180.552 207.604 182.977 208.63C184.896 209.442 185.825 209.428 187.084 209.986C188.811 210.752 190.938 212.497 192.551 216.85C194.948 217.43 197.326 218.164 199.44 219.425C201.594 220.711 203.215 222.535 204.172 224.786C204.025 223.011 204.109 219.798 206.274 217.763C208.622 215.556 212.434 215.658 215.482 215.739C216.556 215.767 217.451 215.869 218.086 215.962C216.973 216.749 215.442 218.021 214.107 219.946C213.05 221.469 212.897 222.277 212.181 223.272C211.177 224.668 209.196 226.25 204.878 226.867L204.822 226.777C205.445 229.305 205.473 231.949 205.619 234.536C205.728 236.465 205.927 238.389 206.21 240.3L206.215 240.153C206.498 239.5 208.505 235.04 212.42 234.363C215.602 233.813 218.713 235.994 221.201 237.738C222.077 238.352 222.764 238.93 223.24 239.356C221.876 239.4 219.893 239.62 217.711 240.491C215.983 241.181 215.405 241.771 214.255 242.207C212.666 242.81 210.19 243.041 206.361 241.274C206.558 242.473 206.788 243.666 207.056 244.852C207.33 246.068 207.664 247.249 208.113 248.366C208.153 248.38 208.191 248.393 208.231 248.407L208.25 248.69C208.973 250.377 209.981 251.905 211.488 253.157C212.992 254.406 214.729 255.321 216.512 256.132L216.475 255.318C216.706 254.646 218.359 250.045 222.209 249.069C225.34 248.276 228.613 250.21 231.23 251.756C232.152 252.301 232.882 252.823 233.39 253.211C232.033 253.361 230.074 253.732 227.965 254.769C226.296 255.59 225.765 256.222 224.653 256.746C223.354 257.357 221.402 257.753 218.441 256.976C218.718 257.094 218.995 257.212 219.27 257.33C221.903 258.459 224.58 259.631 226.789 261.484C227.399 261.995 227.962 262.552 228.489 263.142C228.5 263.146 228.511 263.15 228.523 263.154L228.524 263.181C230.2 265.069 231.49 267.304 232.603 269.546C235.649 275.684 237.225 282.494 237.228 289.341C237.228 289.658 236.734 289.657 236.734 289.34Z" fill="#DED9FF" fill-opacity="0.36"/>
<path d="M443.683 330.351C447.252 321.786 449.427 312.744 452.211 303.888C453.529 299.69 455.099 295.367 458.295 292.345C461.49 289.323 466.785 288.062 470.328 290.68C471.905 291.838 473.183 293.713 475.139 293.847C476.217 293.92 477.249 293.414 478.144 292.812C480.189 291.431 481.809 289.508 482.822 287.258C483.947 284.748 484.271 281.928 485.472 279.454C486.674 276.979 489.256 274.781 491.94 275.385C494.081 275.861 495.509 277.931 497.503 278.837C500.379 280.139 503.708 278.814 506.559 277.455C517.773 272.106 528.984 265.943 541.338 264.606C545.816 264.13 551.401 264.977 552.997 269.191C554.523 273.253 551.175 277.503 547.625 279.996C541.914 284.017 535.111 286.221 528.302 287.801C527.112 288.077 525.698 288.552 525.446 289.747C525.194 290.941 526.377 291.965 527.535 292.319C528.694 292.674 529.977 292.666 531.043 293.249C533.37 294.522 533.441 298.087 531.868 300.221C530.295 302.355 527.683 303.409 525.206 304.361L502.323 313.165C501.25 313.577 500.039 314.138 499.756 315.252C499.499 316.268 500.139 317.265 500.565 318.224C502.468 322.506 499.98 327.741 496.099 330.344C492.218 332.947 487.338 333.528 482.662 333.73C477.987 333.932 473.197 333.854 468.786 335.415C462.421 337.67 458.226 341.646 452.399 345.054C449.993 346.46 437.794 354.857 430.984 356.984C429.952 357.305 431.12 350.16 434.665 345.698C435.914 344.123 437.137 342.527 438.234 340.84C440.362 337.514 442.185 334.004 443.683 330.351Z" fill="url(#paint23_linear_87_2)"/>
<path d="M434.917 351.409C434.917 351.409 506.843 285.788 547.348 271.104M491.025 279.194C491.025 279.194 490.128 296.34 486.742 308.461M464.376 292.519C464.376 292.519 465.406 319.092 461.521 328.448M459.379 330.589C459.379 330.589 487.218 320.477 497.449 323.57M491.113 305.327C491.113 305.327 513.663 299.107 526 299.107" stroke="white" stroke-opacity="0.5" stroke-width="0.75" stroke-miterlimit="10" stroke-linecap="round" stroke-linejoin="round"/>
<path d="M409.904 269.403L408.831 269.746L400.539 272.382L399.587 269.808C399.428 270.488 399.252 271.204 399.059 271.949C398.345 274.771 397.393 278.016 396.358 281.405C392.221 294.915 386.508 310.671 386.508 310.671H370.34C370.34 310.671 363.896 292.921 359.747 278.956C358.745 275.589 357.876 272.442 357.26 269.815L356.546 271.704L356.292 272.389L355.956 272.282L346.931 269.41C346.931 269.41 349.484 258.774 351.611 249.84C353.094 243.618 358.988 240.398 362.421 239.016L362.747 238.887L362.933 238.816C363.595 238.561 364.271 238.342 364.957 238.159C365.181 238.066 365.41 237.986 365.643 237.921L365.964 237.831L366.188 237.762L366.395 237.695L366.518 237.652C366.739 237.573 366.953 237.49 367.161 237.403L367.277 237.353C367.384 237.305 367.489 237.257 367.591 237.207H367.613L367.827 237.098C367.875 237.074 367.922 237.05 367.967 237.024L368.06 236.974C368.136 236.934 368.208 236.891 368.279 236.848C368.35 236.805 368.484 236.724 368.584 236.663C368.594 236.655 368.605 236.647 368.617 236.641L368.836 236.494L368.929 236.429C369.119 236.296 369.297 236.156 369.471 236.013C369.645 235.87 369.826 235.711 369.99 235.551C370.073 235.473 370.154 235.392 370.228 235.313C370.302 235.235 370.385 235.152 370.466 235.075C370.547 234.999 370.623 234.899 370.704 234.809C370.785 234.719 370.811 234.68 370.863 234.614C370.927 234.535 370.987 234.454 371.044 234.376C371.18 234.197 371.303 234.017 371.418 233.831C371.467 233.757 371.515 233.684 371.558 233.607C371.567 233.59 371.578 233.574 371.589 233.557C371.79 233.225 371.97 232.88 372.129 232.525C372.139 232.506 372.148 232.486 372.155 232.465C372.191 232.387 372.227 232.311 372.26 232.227C372.293 232.144 372.324 232.07 372.355 231.989L372.376 231.932C372.412 231.847 372.445 231.761 372.474 231.675C372.503 231.59 372.538 231.504 372.567 231.418C372.626 231.249 372.681 231.08 372.731 230.914V230.876C372.755 230.8 372.774 230.724 372.795 230.65C372.817 230.576 372.838 230.502 372.855 230.429C372.861 230.408 372.867 230.388 372.871 230.367C372.89 230.286 372.912 230.207 372.928 230.129C372.962 229.986 372.995 229.846 373.021 229.708C373.043 229.608 373.062 229.51 373.078 229.413C373.095 229.315 373.121 229.153 373.143 229.029C373.143 229.001 373.143 228.972 373.154 228.944C373.166 228.915 373.171 228.832 373.178 228.777L373.2 228.613V228.558L373.221 228.373C373.238 228.201 373.254 228.037 373.262 227.897C373.262 227.88 373.262 227.864 373.262 227.849C373.262 227.835 373.262 227.828 373.262 227.816C373.262 227.742 373.262 227.673 373.262 227.607C373.262 227.583 373.262 227.559 373.262 227.535C373.262 227.511 373.262 227.511 373.262 227.499C373.262 227.43 373.262 227.366 373.262 227.307V216.649H383.897V228.325C384.047 230.823 385.006 235.666 390.029 237.569C390.189 237.629 390.35 237.686 390.505 237.74L390.598 237.771C390.767 237.824 390.94 237.874 391.117 237.921C391.351 237.986 391.58 238.065 391.804 238.159H391.845C392.58 238.35 403.099 241.21 405.153 249.818C405.819 252.619 406.528 255.588 407.187 258.344C408.703 264.39 409.904 269.403 409.904 269.403Z" fill="url(#paint24_linear_87_2)"/>
<path d="M433.332 355.052C436.587 351.007 439.167 346.472 442.043 342.148C443.407 340.097 444.925 338.018 447.114 336.89C449.303 335.762 452.349 335.914 453.848 337.868C454.514 338.736 454.911 339.945 455.941 340.321C456.508 340.528 457.143 340.416 457.719 340.233C459.034 339.809 460.204 339.027 461.1 337.975C462.097 336.802 462.711 335.336 463.741 334.192C464.771 333.047 466.506 332.269 467.855 333.002C468.933 333.597 469.373 334.927 470.308 335.726C471.653 336.876 473.639 336.678 475.395 336.395C482.26 335.267 489.251 333.702 496.096 334.908C498.58 335.346 501.45 336.676 501.645 339.191C501.833 341.613 499.37 343.376 497.072 344.164C493.369 345.434 489.372 345.56 485.463 345.353C484.782 345.318 483.945 345.353 483.631 345.958C483.316 346.562 483.785 347.295 484.344 347.666C484.903 348.037 485.603 348.235 486.084 348.713C487.138 349.76 486.621 351.69 485.441 352.592C484.261 353.493 482.693 353.653 481.215 353.781L467.536 354.947C466.896 355.002 466.156 355.116 465.83 355.661C465.533 356.168 465.721 356.803 465.802 357.384C466.156 359.98 464.005 362.407 461.519 363.208C459.032 364.01 456.313 363.553 453.767 362.932C451.221 362.311 448.656 361.524 446.041 361.676C442.265 361.895 439.378 363.38 435.724 364.293C434.21 364.674 426.342 367.287 422.349 367.37C421.745 367.37 423.487 363.722 426.09 361.874C427.008 361.222 427.912 360.553 428.764 359.818C430.427 358.369 431.956 356.774 433.332 355.052Z" fill="url(#paint25_linear_87_2)"/>
<path d="M425.335 365.005C425.335 365.005 474.248 340.928 498.316 339.348M466.77 334.915C466.77 334.915 463.615 343.995 459.903 349.986M450.361 337.925C450.361 337.925 446.771 352.377 443.223 356.803M441.739 357.622C441.739 357.622 458.287 356.522 463.305 359.782M462.744 348.984C462.744 348.984 475.831 349.156 482.474 351.078" stroke="white" stroke-opacity="0.5" stroke-width="0.75" stroke-miterlimit="10" stroke-linejoin="round"/>
<path d="M390.687 198.887V218.821C390.687 220.511 390.015 222.132 388.82 223.327C387.625 224.522 386.005 225.193 384.315 225.193H373.239C372.402 225.194 371.573 225.029 370.799 224.709C370.026 224.389 369.323 223.92 368.731 223.328C368.139 222.736 367.67 222.034 367.35 221.26C367.029 220.487 366.864 219.658 366.864 218.821V198.887C366.864 197.625 367.366 196.414 368.258 195.522C369.151 194.629 370.361 194.128 371.623 194.128H385.928C387.19 194.128 388.401 194.629 389.293 195.522C390.185 196.414 390.687 197.625 390.687 198.887Z" fill="url(#paint26_linear_87_2)"/>
<path d="M305.908 333.464C305.908 333.464 305.195 305.91 299.196 283.815C293.198 261.72 293.064 252.516 287.756 252.124C282.448 251.731 282.3 258.222 278.876 258.037C275.452 257.851 272.487 241.257 267.253 238.385C262.018 235.513 259.639 241.569 256.307 240.436C252.976 239.304 241.032 220.959 230.512 227.842C219.993 234.726 238.524 250.734 236.806 254.182C235.088 257.63 232.204 254.251 229.772 257.237C227.341 260.223 228.226 264.34 234.914 269.67C241.603 274.999 243.356 277.779 238.752 281.766C230.715 288.731 249.324 302.26 280.461 316.782C307.193 329.254 305.908 333.464 305.908 333.464Z" fill="url(#paint27_linear_87_2)"/>
<path d="M234.098 231.033C234.098 231.033 274.948 301.225 304.397 329.338M265.237 246.204C265.237 246.204 259.577 272.563 270.427 287.782M237.881 263.49C237.881 263.49 253.086 271.104 267.469 283.515M284.886 265.972C284.886 265.972 284.411 304.228 297.293 321.919" stroke="white" stroke-opacity="0.5" stroke-width="0.75" stroke-miterlimit="10" stroke-linejoin="round"/>
<path d="M289.424 313.634L245.848 283.313" stroke="#9B4255" stroke-width="2" stroke-miterlimit="10"/>
<path d="M396.356 281.407C397.393 278.019 398.333 274.773 399.057 271.951C399.249 271.204 399.425 270.488 399.585 269.81L400.537 272.384L411.444 269.839L413.3 269.405C413.3 269.405 409.045 257.918 406.066 249.419C403.14 241.053 392.639 238.352 391.909 238.173H391.868C391.645 238.08 391.415 238 391.181 237.936C391.005 237.888 390.831 237.838 390.662 237.786L390.569 237.755C390.403 237.7 390.241 237.643 390.093 237.583C385.071 235.68 384.112 230.838 383.962 228.339V224.747H384.183C385.02 224.745 385.849 224.579 386.622 224.257C387.395 223.936 388.097 223.465 388.688 222.872C389.278 222.279 389.747 221.575 390.066 220.801C390.384 220.027 390.547 219.197 390.546 218.36V199.784C388.535 201.05 387.143 201.171 384.071 199.449C383.05 198.875 381.846 198.097 380.371 197.091C380.371 197.091 377.809 198.369 375.098 199.427C372.864 200.301 370.53 201.029 369.44 200.776C368.476 200.526 367.558 200.125 366.721 199.587V218.36C366.721 219.197 366.886 220.026 367.206 220.799C367.526 221.572 367.996 222.275 368.588 222.867C369.18 223.459 369.882 223.928 370.656 224.248C371.429 224.568 372.258 224.733 373.095 224.732H373.316V227.271C373.316 227.331 373.316 227.396 373.316 227.464C373.316 227.476 373.316 227.488 373.316 227.499C373.316 227.511 373.316 227.547 373.316 227.571C373.316 227.638 373.316 227.707 373.316 227.78C373.316 227.78 373.316 227.802 373.316 227.814C373.316 227.825 373.316 227.845 373.316 227.861C373.316 227.954 373.302 228.049 373.293 228.151C373.294 228.16 373.294 228.169 373.293 228.178L373.278 228.342L373.257 228.527V228.582L373.235 228.746C373.235 228.801 373.219 228.856 373.212 228.913C373.204 228.97 373.212 228.97 373.2 228.999C373.178 229.122 373.159 229.251 373.135 229.382V229.41C373.097 229.631 373.05 229.86 372.993 230.098C372.976 230.176 372.955 230.255 372.936 230.336C372.931 230.357 372.926 230.377 372.919 230.398C372.9 230.471 372.881 230.545 372.859 230.619C372.838 230.693 372.819 230.769 372.795 230.845V230.883C372.745 231.05 372.691 231.218 372.631 231.387C372.603 231.473 372.572 231.559 372.538 231.644C372.507 231.73 372.474 231.816 372.441 231.901L372.419 231.958C372.388 232.035 372.357 232.113 372.324 232.196C372.291 232.28 372.255 232.349 372.219 232.434C372.212 232.455 372.203 232.475 372.193 232.494C372.032 232.847 371.851 233.192 371.653 233.527C371.642 233.543 371.632 233.559 371.622 233.576L371.482 233.8C371.434 233.876 371.384 233.95 371.334 234.024L371.282 234.102L371.108 234.34C371.049 234.421 370.989 234.502 370.927 234.578C370.875 234.645 370.823 234.709 370.768 234.773L370.754 234.788C370.682 234.871 370.611 234.957 370.537 235.04C370.463 235.123 370.387 235.204 370.299 235.278L370.061 235.516C369.897 235.675 369.723 235.83 369.543 235.977C369.362 236.125 369.19 236.26 369 236.394L368.907 236.458L368.688 236.605C368.677 236.612 368.666 236.619 368.655 236.627C368.555 236.689 368.455 236.753 368.351 236.812L368.132 236.939L368.039 236.989C367.994 237.015 367.946 237.039 367.898 237.062L367.684 237.172H367.663C367.561 237.222 367.456 237.269 367.349 237.317L367.232 237.367C367.025 237.455 366.811 237.541 366.59 237.617L366.466 237.66L366.259 237.726C366.185 237.752 366.112 237.774 366.035 237.795L365.714 237.886C365.481 237.95 365.252 238.03 365.029 238.124C364.343 238.306 363.667 238.525 363.004 238.78L362.818 238.852C359.452 240.141 353.565 242.942 350.831 248.955C346.577 258.313 344.024 269.375 344.024 269.375L356.363 272.354L356.618 271.668L357.332 269.779C357.948 272.396 358.816 275.554 359.818 278.921C352.442 281.409 346.708 283.658 344.526 279.753C340.005 271.663 336.674 246.68 348.809 240.731C360.943 234.783 358.326 229.548 357.85 209.799C357.688 203.056 358.357 196.95 360.175 191.813C363.673 181.91 371.429 175.612 385.689 175.298C397.653 175.034 402.345 183.49 403.604 194.723C404.613 203.817 403.366 214.732 401.869 224.313C399.756 237.902 406.264 244.976 411.303 248.331C413.071 249.511 414.551 251.074 415.631 252.904C416.712 254.735 417.366 256.785 417.545 258.903C419.812 286.378 409.359 286.311 396.356 281.407Z" fill="#0B0952"/>
<path d="M299.684 325.593C296.115 317.027 293.942 307.985 291.158 299.129C289.838 294.932 288.27 290.608 285.074 287.586C281.879 284.565 276.585 283.303 273.039 285.921C271.464 287.08 270.184 288.955 268.23 289.088C267.153 289.162 266.12 288.655 265.223 288.053C263.178 286.673 261.559 284.749 260.547 282.499C259.422 279.989 259.096 277.169 257.897 274.695C256.698 272.22 254.114 270.022 251.43 270.626C249.288 271.102 247.86 273.172 245.867 274.079C242.987 275.38 239.659 274.055 236.811 272.696C225.594 267.347 214.382 261.185 202.031 259.847C197.553 259.371 191.968 260.219 190.372 264.432C188.844 268.494 192.194 272.744 195.742 275.237C201.453 279.259 208.258 281.462 215.068 283.042C216.257 283.318 217.671 283.794 217.911 284.988C218.151 286.183 216.981 287.206 215.819 287.56C214.658 287.915 213.378 287.908 212.315 288.491C209.988 289.764 209.916 293.328 211.489 295.462C213.062 297.597 215.674 298.651 218.151 299.602L241.032 308.406C242.105 308.818 243.316 309.379 243.599 310.493C243.858 311.509 243.218 312.506 242.792 313.465C240.889 317.748 243.375 322.982 247.258 325.585C251.142 328.188 256.017 328.769 260.693 328.971C265.368 329.174 270.16 329.095 274.572 330.656C280.934 332.912 285.131 336.888 290.958 340.295C293.362 341.701 305.561 350.098 312.373 352.225C313.406 352.546 312.235 345.401 308.692 340.94C307.441 339.364 306.22 337.768 305.123 336.081C302.999 332.755 301.178 329.245 299.684 325.593Z" fill="url(#paint28_linear_87_2)"/>
<path d="M308.457 346.65C308.457 346.65 236.523 281.029 196.03 266.346M252.341 274.435C252.341 274.435 253.238 291.581 256.624 303.702M278.99 287.76C278.99 287.76 277.962 314.333 281.846 323.689M283.987 325.83C283.987 325.83 256.148 315.718 245.917 318.811M252.253 300.568C252.253 300.568 229.706 294.349 217.366 294.349" stroke="white" stroke-opacity="0.5" stroke-width="0.75" stroke-miterlimit="10" stroke-linejoin="round"/>
<path d="M310.036 350.293C306.779 346.248 304.2 341.713 301.323 337.39C299.96 335.339 298.442 333.259 296.253 332.131C294.064 331.003 291.018 331.156 289.519 333.109C288.853 333.977 288.455 335.186 287.427 335.562C286.859 335.769 286.238 335.657 285.65 335.474C284.335 335.051 283.164 334.269 282.269 333.216C281.272 332.043 280.658 330.577 279.625 329.433C278.593 328.288 276.863 327.51 275.514 328.243C274.436 328.838 273.996 330.168 273.061 330.968C271.714 332.117 269.729 331.919 267.973 331.636C261.109 330.508 254.118 328.943 247.273 330.149C244.791 330.587 241.919 331.917 241.724 334.432C241.536 336.854 244.001 338.617 246.297 339.405C250 340.676 253.999 340.802 257.906 340.595C258.589 340.559 259.424 340.595 259.741 341.199C260.057 341.803 259.586 342.536 259.027 342.907C258.468 343.279 257.768 343.476 257.285 343.954C256.234 345.001 256.75 346.931 257.928 347.833C259.105 348.735 260.676 348.894 262.156 349.022L275.833 350.188C276.475 350.243 277.215 350.357 277.539 350.902C277.836 351.409 277.648 352.044 277.57 352.625C277.213 355.221 279.366 357.648 281.853 358.45C284.339 359.251 287.061 358.795 289.607 358.174C292.153 357.553 294.718 356.765 297.333 356.917C301.107 357.136 303.983 358.621 307.65 359.535C309.161 359.915 317.03 362.528 321.022 362.611C321.629 362.611 319.885 358.964 317.284 357.115C316.366 356.463 315.459 355.794 314.61 355.059C312.945 353.611 311.415 352.016 310.036 350.293Z" fill="url(#paint29_linear_87_2)"/>
<path d="M318.032 360.246C318.032 360.246 269.118 336.169 245.053 334.589M276.597 330.156C276.597 330.156 279.752 339.236 283.464 345.227M293.008 333.166C293.008 333.166 296.596 347.619 300.146 352.044M301.631 352.863C301.631 352.863 285.082 351.764 280.061 355.023M280.618 344.226C280.618 344.226 267.531 344.397 260.886 346.319" stroke="white" stroke-opacity="0.5" stroke-width="0.75" stroke-miterlimit="10" stroke-linejoin="round"/>
<path d="M290.373 348.349C285.35 336.374 288.294 321.493 297.492 312.33C303.981 305.867 312.882 302.362 319.706 296.257C329.774 287.246 334.364 273.503 343.712 263.747C357.218 249.654 378.185 246.14 397.656 244.755C410.295 243.86 423.184 243.565 435.44 246.78C447.697 249.994 459.399 257.135 465.659 268.154C473.608 282.152 470.893 301.361 459.391 312.618C455.216 316.701 450.007 319.865 446.911 324.814C443.131 330.861 443.159 338.475 440.944 345.254C437.168 356.808 426.867 365.357 415.506 369.688C404.144 374.018 391.743 374.684 379.577 374.651C354.082 374.594 302.553 377.418 290.373 348.349Z" fill="url(#paint30_linear_87_2)"/>
<path style="mix-blend-mode:screen" opacity="0.5" d="M290.373 348.349C285.35 336.374 288.294 321.493 297.492 312.33C303.981 305.867 312.882 302.362 319.706 296.257C329.774 287.246 334.364 273.503 343.712 263.747C357.218 249.654 378.185 246.14 397.656 244.755C410.295 243.86 423.184 243.565 435.44 246.78C447.697 249.994 459.399 257.135 465.659 268.154C473.608 282.152 470.893 301.361 459.391 312.618C455.216 316.701 450.007 319.865 446.911 324.814C443.131 330.861 443.159 338.475 440.944 345.254C437.168 356.808 426.867 365.357 415.506 369.688C404.144 374.018 391.743 374.684 379.577 374.651C354.082 374.594 302.553 377.418 290.373 348.349Z" fill="url(#paint31_linear_87_2)"/>
<path d="M460.115 269.439C453.857 258.42 442.16 251.279 429.897 248.067C417.633 244.855 404.751 245.147 392.109 246.04C385.278 246.516 378.264 247.275 371.452 248.657C360.927 251.408 351.17 255.967 343.698 263.764C334.35 273.519 329.76 287.263 319.693 296.274C312.868 302.379 303.967 305.884 297.478 312.346C288.28 321.509 285.344 336.378 290.359 348.366C302.549 377.435 354.077 374.61 379.57 374.668C387.791 374.684 396.124 374.387 404.171 372.854C406.124 372.322 408.059 371.708 409.96 370.982C421.319 366.649 431.612 358.102 435.398 346.546C437.613 339.767 437.582 332.155 441.363 326.109C444.456 321.157 449.67 317.993 453.843 313.91C465.359 302.636 468.067 283.43 460.115 269.439Z" fill="url(#paint32_linear_87_2)"/>
<path d="M348.683 257.92L342.984 279.934C342.984 279.934 342.394 285.076 345.052 287.072C347.71 289.069 369.586 308.83 369.586 308.83L373.631 304.366L353.863 281.933C353.476 281.495 353.201 280.97 353.062 280.403C352.923 279.835 352.923 279.243 353.063 278.676L358.964 254.644L348.683 257.92Z" fill="url(#paint33_linear_87_2)"/>
<mask id="mask0_87_2" style="mask-type:luminance" maskUnits="userSpaceOnUse" x="342" y="254" width="32" height="55">
<path d="M369.607 308.996L369.519 308.915C369.3 308.718 347.614 289.135 344.992 287.165C342.31 285.152 342.85 280.134 342.879 279.92L348.589 257.827L348.651 257.806L359.121 254.451L353.172 278.702C353.038 279.25 353.038 279.824 353.173 280.372C353.308 280.921 353.574 281.429 353.948 281.852L373.785 304.364L369.607 308.996ZM348.782 258.018L343.1 279.968C343.1 280.003 342.551 285.05 345.123 286.98C347.695 288.909 368.053 307.288 369.578 308.666L373.459 304.368L353.762 282.002C353.363 281.55 353.079 281.007 352.935 280.422C352.79 279.836 352.79 279.224 352.934 278.638L358.785 254.801L348.782 258.018Z" fill="white"/>
</mask>
<g mask="url(#mask0_87_2)">
<mask id="mask1_87_2" style="mask-type:luminance" maskUnits="userSpaceOnUse" x="342" y="254" width="32" height="55">
<path d="M342.81 254.451H373.777V308.996H342.81V254.451Z" fill="white"/>
</mask>
<g mask="url(#mask1_87_2)">
<path d="M339.307 225.746L333.608 247.763C333.608 247.763 333.018 252.905 335.676 254.901C338.334 256.897 360.21 276.658 360.21 276.658L364.255 272.195L344.487 249.762C344.1 249.323 343.825 248.798 343.686 248.23C343.547 247.662 343.547 247.069 343.687 246.502L349.588 222.47L339.307 225.746Z" fill="url(#paint34_linear_87_2)"/>
</g>
</g>
<path d="M406.999 257.304L414.24 278.859C414.24 278.859 415.192 283.948 412.684 286.125C410.176 288.303 389.749 309.563 389.749 309.563L385.411 305.394L403.542 281.619C403.897 281.155 404.134 280.612 404.233 280.036C404.332 279.461 404.29 278.87 404.111 278.314L396.523 254.758L406.999 257.304Z" fill="url(#paint35_linear_87_2)"/>
<path d="M413.309 269.403L411.453 269.836L400.546 272.382L399.594 269.808C399.435 270.488 399.259 271.204 399.066 271.949C398.352 274.771 397.401 278.016 396.366 281.405C392.228 294.915 386.515 310.671 386.515 310.671H370.34C370.34 310.671 363.896 292.921 359.747 278.956C358.745 275.589 357.876 272.442 357.26 269.815L356.546 271.704L356.292 272.389L343.952 269.41C343.952 269.41 346.527 258.341 350.769 248.976C353.417 243.154 359.023 240.341 362.428 239.001L362.754 238.873L362.94 238.802C365.847 241.217 370.459 243.87 376.719 243.87C376.877 243.87 377.036 243.87 377.195 243.87H377.242H377.464L377.761 243.853C379.525 243.74 381.258 243.338 382.891 242.663C383.311 242.494 383.721 242.309 384.119 242.109L384.511 241.904L384.685 241.809C386.22 240.964 387.642 239.929 388.918 238.728C388.949 238.695 388.975 238.671 389.006 238.642C389.384 238.29 389.741 237.928 390.077 237.576C390.236 237.636 390.398 237.693 390.553 237.748L390.645 237.778C390.814 237.831 390.988 237.881 391.164 237.928C391.398 237.993 391.628 238.072 391.852 238.166H391.892C392.623 238.345 403.123 241.045 406.05 249.411C409.055 257.915 413.309 269.403 413.309 269.403Z" fill="url(#paint36_linear_87_2)"/>
<path style="mix-blend-mode:multiply" opacity="0.32" d="M413.865 309.667C413.865 309.667 404.711 297.818 390.168 294.587C375.626 291.355 354.884 297.278 340.613 309.127C326.341 320.976 312.61 323.403 313.416 333.092C314.223 342.781 315.834 352.48 340.341 348.173C340.341 348.173 347.344 350.057 339.804 357.598C332.263 365.138 330.379 373.754 341.945 370.792C353.511 367.829 367.795 349.789 374.529 353.558C381.262 357.327 397.661 371.358 406.572 370.523C415.483 369.687 417.612 368.638 412.225 364.336C406.838 360.034 397.949 345.756 405.763 347.371C413.577 348.987 443.193 345.756 433.769 330.953C424.344 316.151 413.865 309.667 413.865 309.667Z" fill="url(#paint37_linear_87_2)"/>
<path style="mix-blend-mode:multiply" opacity="0.82" d="M395.416 324.046C395.416 324.046 390.612 317.829 382.984 316.134C375.355 314.44 364.477 317.548 356.989 323.763C349.501 329.978 342.296 331.251 342.713 336.335C343.129 341.42 343.983 346.507 356.841 344.247C356.841 344.247 360.513 345.237 356.558 349.191C352.604 353.146 351.614 357.669 357.688 356.115C363.763 354.562 371.251 345.096 374.782 347.074C378.313 349.051 386.917 356.41 391.595 355.973C396.273 355.535 397.386 354.985 394.56 352.725C391.733 350.464 387.074 342.969 391.169 343.823C395.264 344.678 410.809 342.976 405.862 335.205C400.915 327.434 395.416 324.046 395.416 324.046Z" fill="url(#paint38_linear_87_2)"/>
<path d="M379.275 293.654C379.275 293.654 316.309 320.458 315.885 334.07C315.462 347.683 334.178 345.984 343.962 339.602C353.746 333.221 369.065 324.286 375.447 323.422C381.828 322.559 410.6 340.687 416.712 342.567C422.245 344.268 433.73 342.567 432.892 333.632C432.055 324.698 399.271 299.609 379.275 293.654Z" fill="url(#paint39_linear_87_2)"/>
<path d="M432.331 334.922C432.331 340.109 425.949 344.706 414.035 344.706C395.317 344.706 373.619 348.535 360.43 356.62C347.241 364.705 345.54 368.531 341.285 368.531C337.031 368.531 334.478 368.105 337.883 364.703C341.288 361.3 343.412 359.597 345.114 355.768C346.815 351.94 346.817 348.961 348.519 346.833C350.22 344.706 353.622 344.28 356.609 345.558C359.595 346.836 368.52 345.984 376.179 342.153C383.358 338.565 402.557 328.115 413.193 325.136C422.608 322.499 432.331 327.258 432.331 334.922Z" fill="url(#paint40_linear_87_2)"/>
<path d="M316.309 335.772C316.309 340.959 322.69 345.558 334.604 345.558C353.323 345.558 375.02 349.386 388.209 357.469C401.398 365.552 403.099 369.383 407.354 369.383C411.608 369.383 414.161 368.957 410.756 365.552C407.351 362.147 405.227 360.448 403.525 356.62C401.824 352.791 401.822 349.812 400.12 347.685C398.419 345.558 395.017 345.132 392.031 346.407C389.044 347.683 380.117 346.833 372.46 343.005C365.281 339.414 346.082 328.967 335.446 325.988C326.031 323.349 316.309 328.115 316.309 335.772Z" fill="url(#paint41_linear_87_2)"/>
<path d="M407.012 280.041H349.837C348.238 280.041 346.941 281.338 346.941 282.937V319.689C346.941 321.289 348.238 322.585 349.837 322.585H407.012C408.611 322.585 409.907 321.289 409.907 319.689V282.937C409.907 281.338 408.611 280.041 407.012 280.041Z" fill="url(#paint42_linear_87_2)"/>
<g style="mix-blend-mode:screen" opacity="0.5">
<path d="M407.012 280.041H349.837C348.238 280.041 346.941 281.338 346.941 282.937V319.689C346.941 321.289 348.238 322.585 349.837 322.585H407.012C408.611 322.585 409.907 321.289 409.907 319.689V282.937C409.907 281.338 408.611 280.041 407.012 280.041Z" fill="url(#paint43_linear_87_2)"/>
</g>
<path d="M397.75 281.317H355.692C354.481 281.222 353.265 281.398 352.131 281.832C350.997 282.266 349.974 282.947 349.136 283.826C348.298 284.705 347.666 285.759 347.286 286.913C346.906 288.066 346.788 289.289 346.94 290.494V312.13C346.94 313.503 347.21 314.862 347.735 316.131C348.261 317.399 349.03 318.552 350.001 319.523C350.972 320.493 352.124 321.264 353.392 321.789C354.661 322.315 356.02 322.585 357.393 322.585H399.451C400.662 322.679 401.878 322.503 403.012 322.069C404.146 321.634 405.169 320.953 406.007 320.075C406.844 319.196 407.476 318.142 407.856 316.989C408.236 315.836 408.354 314.612 408.203 313.408V291.769C408.203 288.997 407.101 286.338 405.141 284.378C403.181 282.418 400.522 281.317 397.75 281.317Z" fill="url(#paint44_linear_87_2)"/>
<g style="mix-blend-mode:multiply" opacity="0.3">
<path d="M399.451 322.585C402.192 322.588 404.823 321.512 406.775 319.589C405.538 319.437 404.289 319.351 403.071 319.235C398.949 318.878 394.371 317.983 392.011 314.585C390.888 312.97 390.362 310.888 388.825 309.662C387.202 308.368 384.932 308.392 382.86 308.473L373.683 308.851C369.416 309.027 364.596 308.996 361.614 305.939C360.258 304.549 359.485 302.7 358.859 300.863C357.693 297.447 356.917 293.875 355.29 290.653C353.912 287.936 351.766 285.419 349.011 284.251C347.667 286.053 346.942 288.241 346.945 290.489V312.125C346.945 313.498 347.215 314.858 347.74 316.126C348.265 317.394 349.035 318.547 350.006 319.518C350.977 320.489 352.129 321.259 353.397 321.784C354.666 322.31 356.025 322.58 357.398 322.58L399.451 322.585Z" fill="#7525E9" fill-opacity="0.31"/>
</g>
<path style="mix-blend-mode:screen" opacity="0.5" d="M384.776 304.442C386.035 301.403 384.592 297.919 381.553 296.66C378.514 295.402 375.03 296.845 373.771 299.884C372.513 302.922 373.956 306.406 376.994 307.665C380.033 308.924 383.517 307.481 384.776 304.442Z" fill="url(#paint45_linear_87_2)"/>
<path d="M535.487 153.372H515.833C514.915 153.373 514.034 153.739 513.385 154.389C512.736 155.039 512.371 155.92 512.371 156.839V169.875C512.371 170.795 512.736 171.676 513.386 172.327C514.037 172.977 514.918 173.342 515.838 173.342H529.788L534.904 176.511C534.98 176.559 535.067 176.585 535.156 176.587C535.245 176.589 535.333 176.567 535.411 176.524C535.489 176.48 535.554 176.417 535.599 176.34C535.644 176.262 535.668 176.175 535.668 176.085V173.333C536.555 173.288 537.391 172.904 538.003 172.261C538.616 171.618 538.958 170.764 538.958 169.875V156.839C538.958 156.383 538.869 155.932 538.694 155.511C538.52 155.09 538.264 154.707 537.941 154.385C537.619 154.063 537.236 153.808 536.815 153.634C536.394 153.46 535.943 153.371 535.487 153.372Z" fill="url(#paint46_linear_87_2)"/>
<g style="mix-blend-mode:screen">
<path d="M522.643 163.318C522.643 163.573 522.567 163.822 522.425 164.034C522.284 164.246 522.082 164.412 521.847 164.509C521.611 164.607 521.352 164.632 521.102 164.582C520.851 164.533 520.622 164.41 520.441 164.23C520.261 164.049 520.138 163.819 520.088 163.569C520.039 163.319 520.064 163.06 520.162 162.824C520.259 162.588 520.425 162.387 520.637 162.245C520.849 162.104 521.098 162.028 521.353 162.028C521.695 162.028 522.023 162.164 522.265 162.406C522.507 162.648 522.643 162.976 522.643 163.318ZM526.976 163.318C526.976 163.573 526.9 163.822 526.758 164.034C526.617 164.246 526.415 164.412 526.18 164.509C525.944 164.607 525.685 164.632 525.434 164.582C525.184 164.533 524.954 164.41 524.774 164.23C524.594 164.049 524.471 163.819 524.421 163.569C524.371 163.319 524.397 163.06 524.495 162.824C524.592 162.588 524.757 162.387 524.97 162.245C525.182 162.104 525.431 162.028 525.686 162.028C526.028 162.028 526.356 162.164 526.598 162.406C526.84 162.648 526.976 162.976 526.976 163.318ZM531.308 163.318C531.308 163.573 531.233 163.822 531.091 164.034C530.949 164.246 530.748 164.412 530.512 164.509C530.277 164.607 530.017 164.632 529.767 164.582C529.517 164.533 529.287 164.41 529.107 164.23C528.927 164.049 528.804 163.819 528.754 163.569C528.704 163.319 528.73 163.06 528.827 162.824C528.925 162.588 529.09 162.387 529.302 162.245C529.514 162.104 529.764 162.028 530.019 162.028C530.188 162.028 530.356 162.061 530.513 162.126C530.669 162.19 530.812 162.285 530.931 162.405C531.051 162.525 531.146 162.667 531.211 162.824C531.276 162.98 531.309 163.148 531.308 163.318Z" fill="white"/>
</g>
<path d="M459.295 128.891L424.169 129.173C423.412 129.179 422.803 129.798 422.809 130.555L423.022 157.029C423.028 157.786 423.646 158.395 424.403 158.389L459.529 158.107C460.286 158.101 460.895 157.482 460.889 156.725L460.676 130.251C460.67 129.494 460.052 128.885 459.295 128.891Z" fill="url(#paint47_linear_87_2)"/>
<g style="mix-blend-mode:screen">
<path d="M448.888 135.198C448.242 135.215 447.629 135.487 447.183 135.955C446.737 136.422 446.495 137.048 446.509 137.694C446.51 137.817 446.52 137.939 446.54 138.06L436.332 143.807C435.891 143.403 435.314 143.181 434.717 143.183C434.072 143.208 433.463 143.482 433.018 143.949C432.572 144.415 432.326 145.036 432.332 145.681C432.337 146.326 432.593 146.943 433.046 147.402C433.499 147.861 434.112 148.125 434.757 148.139C435.114 148.136 435.466 148.052 435.787 147.894C436.107 147.736 436.388 147.507 436.608 147.226L443.128 149.584C443.145 150.058 443.301 150.516 443.577 150.902C443.853 151.288 444.236 151.583 444.679 151.752C445.123 151.921 445.606 151.956 446.068 151.852C446.531 151.748 446.953 151.51 447.281 151.167C447.609 150.825 447.829 150.393 447.913 149.926C447.998 149.46 447.942 148.978 447.755 148.543C447.567 148.107 447.255 147.737 446.858 147.478C446.46 147.218 445.996 147.082 445.521 147.085C445.164 147.089 444.812 147.173 444.492 147.331C444.171 147.489 443.89 147.718 443.67 147.999L437.151 145.643C437.149 145.521 437.139 145.398 437.12 145.277L447.313 139.524C447.755 139.926 448.331 140.148 448.929 140.145C449.586 140.139 450.214 139.873 450.674 139.405C451.135 138.937 451.391 138.304 451.385 137.647C451.38 136.991 451.114 136.363 450.646 135.902C450.177 135.441 449.545 135.185 448.888 135.191V135.198Z" fill="white"/>
</g>
<path d="M463.577 199.335C463.028 198.697 462.736 197.877 462.759 197.036C462.777 196.258 463.099 195.517 463.654 194.972C464.21 194.427 464.957 194.12 465.735 194.117L469.992 194.162C469.952 194.019 469.913 193.895 469.873 193.793C469.826 193.675 469.771 193.562 469.706 193.453C469.638 193.329 469.588 193.236 469.557 193.174C469.376 192.825 469.238 192.534 469.142 192.308C469.025 192.008 468.931 191.7 468.862 191.385C468.769 191.002 468.725 190.609 468.728 190.214C468.728 189.97 468.733 189.77 468.743 189.615C468.757 189.383 468.785 189.153 468.826 188.925C468.864 188.663 468.929 188.407 469.019 188.159C469.118 187.916 469.244 187.686 469.395 187.471C469.557 187.225 469.769 187.015 470.016 186.855C470.304 186.68 470.617 186.549 470.944 186.467C471.357 186.358 471.784 186.308 472.212 186.319C472.341 186.32 472.468 186.346 472.586 186.397C472.704 186.449 472.811 186.523 472.9 186.617C473.116 186.843 473.291 187.105 473.416 187.392C473.538 187.65 473.635 187.918 473.706 188.194C473.761 188.432 473.82 188.732 473.887 189.146C473.954 189.56 474.042 189.886 474.087 190.076C474.153 190.332 474.239 190.582 474.346 190.823C474.457 191.099 474.618 191.352 474.822 191.568C475.366 192.16 475.877 192.78 476.354 193.427C476.849 194.088 477.36 194.714 477.887 195.304C478.413 195.894 478.798 196.199 479.046 196.222C479.297 196.244 479.531 196.359 479.702 196.544C479.789 196.632 479.858 196.737 479.904 196.852C479.95 196.967 479.973 197.09 479.971 197.215L479.866 207.065C479.867 207.193 479.84 207.32 479.789 207.437C479.737 207.554 479.661 207.66 479.567 207.746C479.381 207.928 479.132 208.033 478.872 208.038C478.513 208.038 477.702 208.255 476.438 208.688C475.645 208.945 475.025 209.14 474.579 209.273C473.964 209.447 473.34 209.589 472.709 209.699C471.98 209.844 471.238 209.917 470.494 209.916H470.232H469.064H468.512C467.148 209.879 466.143 209.468 465.497 208.683C464.912 207.971 464.674 207.041 464.783 205.895C464.38 205.498 464.098 204.994 463.97 204.443C463.802 203.854 463.809 203.229 463.989 202.644C463.531 202.039 463.305 201.291 463.351 200.534C463.36 200.124 463.436 199.719 463.577 199.335Z" fill="url(#paint48_linear_87_2)"/>
<path d="M481.249 196.541C481.155 196.63 481.08 196.736 481.028 196.854C480.977 196.972 480.95 197.1 480.949 197.229L480.844 207.063C480.845 207.323 480.948 207.572 481.129 207.757C481.311 207.943 481.558 208.051 481.817 208.057L486.241 208.105C486.5 208.104 486.75 208.002 486.935 207.82C487.121 207.638 487.228 207.392 487.235 207.132L487.34 197.298C487.343 197.169 487.32 197.04 487.271 196.921C487.222 196.801 487.149 196.693 487.057 196.603C486.968 196.509 486.861 196.434 486.743 196.382C486.624 196.331 486.496 196.304 486.367 196.303L481.944 196.258C481.814 196.255 481.686 196.278 481.567 196.327C481.447 196.376 481.339 196.449 481.249 196.541ZM483.324 205.124C483.329 204.864 483.436 204.616 483.622 204.434C483.808 204.252 484.058 204.15 484.318 204.15C484.448 204.149 484.578 204.175 484.697 204.227C484.817 204.278 484.925 204.355 485.013 204.45C485.194 204.637 485.294 204.888 485.292 205.148C485.289 205.408 485.184 205.657 484.999 205.84C484.905 205.933 484.794 206.005 484.671 206.053C484.548 206.1 484.416 206.122 484.285 206.116C484.157 206.116 484.03 206.091 483.911 206.041C483.793 205.991 483.686 205.918 483.597 205.826C483.506 205.733 483.435 205.624 483.388 205.503C483.341 205.382 483.319 205.253 483.324 205.124Z" fill="url(#paint49_linear_87_2)"/>
<path d="M295.925 87.9954C296.769 87.0206 297.217 85.7651 297.181 84.4763C297.152 83.2839 296.659 82.1498 295.807 81.3154C294.955 80.4809 293.81 80.0118 292.618 80.0078L286.103 80.0768C286.154 79.8849 286.215 79.6958 286.286 79.5105C286.357 79.3314 286.441 79.158 286.538 78.9918C286.645 78.8014 286.721 78.6587 286.776 78.5659C287.052 78.0281 287.252 77.5879 287.409 77.2405C287.589 76.7804 287.733 76.3071 287.84 75.8248C287.982 75.2391 288.05 74.6381 288.044 74.0355C288.044 73.6595 288.044 73.3526 288.023 73.117C287.998 72.7629 287.955 72.4103 287.895 72.0606C287.837 71.6605 287.738 71.2674 287.599 70.8875C287.446 70.5171 287.253 70.1644 287.024 69.8359C286.775 69.4564 286.451 69.1324 286.072 68.8841C285.629 68.6143 285.147 68.413 284.644 68.2869C284.01 68.1221 283.356 68.046 282.7 68.0608C282.503 68.0613 282.308 68.1023 282.127 68.1813C281.946 68.2603 281.783 68.3756 281.649 68.52C281.318 68.8668 281.051 69.2696 280.861 69.7097C280.673 70.1047 280.523 70.5166 280.414 70.9399C280.333 71.2857 280.24 71.7616 280.135 72.3675C280.002 73.0258 279.901 73.5017 279.833 73.7952C279.732 74.1871 279.598 74.5699 279.433 74.9397C279.269 75.3603 279.027 75.7462 278.72 76.077C277.888 76.9867 277.105 77.9398 276.373 78.9323C275.617 79.9443 274.836 80.9016 274.03 81.8042C273.224 82.7068 272.632 83.1755 272.255 83.2104C271.87 83.2432 271.512 83.4189 271.251 83.703C271.117 83.8381 271.011 83.9986 270.94 84.1751C270.869 84.3516 270.834 84.5406 270.837 84.7309L270.998 99.8067C270.998 100.003 271.039 100.197 271.118 100.376C271.197 100.556 271.313 100.717 271.458 100.849C271.741 101.129 272.121 101.289 272.519 101.296C273.068 101.306 274.311 101.638 276.247 102.293C277.459 102.685 278.411 102.984 279.103 103.19C279.794 103.396 280.746 103.614 281.958 103.842C283.075 104.063 284.21 104.173 285.349 104.171H285.748L287.535 104.152H288.382C290.468 104.099 292.006 103.472 292.996 102.269C293.892 101.178 294.261 99.7544 294.102 97.9984C294.721 97.3904 295.153 96.6187 295.349 95.7737C295.607 94.8735 295.597 93.9177 295.321 93.0231C296.02 92.0957 296.366 90.9491 296.296 89.7895C296.273 89.175 296.147 88.5688 295.925 87.9954Z" fill="url(#paint50_linear_87_2)"/>
<path d="M267.811 83.2842L261.037 83.3556C260.64 83.3655 260.262 83.5302 259.983 83.8146C259.705 84.0989 259.549 84.4806 259.548 84.8784L259.707 99.9305C259.717 100.328 259.882 100.706 260.166 100.984C260.451 101.263 260.832 101.419 261.23 101.42L268.004 101.349C268.402 101.339 268.78 101.174 269.058 100.89C269.336 100.605 269.493 100.224 269.494 99.8258L269.332 84.7737C269.322 84.3765 269.158 83.9987 268.874 83.7206C268.59 83.4425 268.209 83.286 267.811 83.2842ZM265.261 97.9318C264.975 98.181 264.605 98.313 264.226 98.3016C263.847 98.2901 263.486 98.136 263.215 97.87C262.945 97.604 262.785 97.2458 262.767 96.8669C262.749 96.4879 262.875 96.1162 263.119 95.826C263.257 95.6811 263.422 95.5653 263.605 95.4855C263.788 95.4056 263.985 95.3633 264.185 95.3611C264.385 95.3589 264.583 95.3968 264.768 95.4725C264.952 95.5483 265.12 95.6604 265.261 95.8022C265.405 95.9376 265.52 96.1008 265.599 96.282C265.678 96.4632 265.719 96.6586 265.72 96.8563C265.724 97.0578 265.685 97.2579 265.606 97.4432C265.526 97.6286 265.409 97.7951 265.261 97.9318Z" fill="url(#paint51_linear_87_2)"/>
<path d="M325.963 189.867L310.756 189.948C310.226 189.951 309.709 190.111 309.27 190.407C308.831 190.704 308.49 191.123 308.289 191.613L316.693 197.676C317.166 197.981 317.719 198.142 318.282 198.139C318.846 198.136 319.396 197.97 319.867 197.659L328.385 191.371C328.164 190.917 327.819 190.536 327.391 190.27C326.962 190.003 326.467 189.864 325.963 189.867Z" fill="url(#paint52_linear_87_2)"/>
<path d="M320.354 198.309C319.747 198.725 319.029 198.949 318.293 198.954C317.558 198.958 316.837 198.742 316.226 198.333L308.102 192.47C308.099 192.529 308.099 192.587 308.102 192.646L308.157 202.732C308.16 203.441 308.444 204.119 308.946 204.619C309.448 205.119 310.128 205.4 310.836 205.4L326.043 205.319C326.755 205.314 327.435 205.028 327.936 204.522C328.436 204.016 328.716 203.332 328.713 202.621L328.656 192.534C328.655 192.42 328.647 192.307 328.632 192.194L320.354 198.309Z" fill="url(#paint53_linear_87_2)"/>
<path d="M343.196 130.777C342.398 126.494 339.993 123.372 335.724 124.169C332.1 124.848 331.627 127.708 330.801 128.69C329.395 127.865 327.967 125.621 324.591 126.251C320.32 127.048 319.209 130.839 320.006 135.107C321.246 141.748 334.075 146.134 334.075 146.134C334.075 146.134 344.442 137.416 343.196 130.777Z" fill="url(#paint54_linear_87_2)"/>
<path d="M254.127 149.291H279.235C280.409 149.291 281.535 149.758 282.366 150.588C283.196 151.418 283.663 152.545 283.663 153.719V170.375C283.663 170.956 283.548 171.532 283.326 172.069C283.103 172.607 282.777 173.095 282.366 173.506C281.955 173.917 281.466 174.243 280.929 174.466C280.392 174.688 279.816 174.803 279.235 174.803H261.413L254.879 178.848C254.782 178.908 254.671 178.94 254.557 178.943C254.443 178.945 254.331 178.917 254.232 178.862C254.132 178.806 254.049 178.725 253.992 178.627C253.934 178.529 253.904 178.417 253.904 178.303V174.791C252.77 174.734 251.702 174.243 250.919 173.421C250.137 172.599 249.7 171.508 249.699 170.373V153.717C249.7 152.543 250.167 151.417 250.997 150.587C251.827 149.757 252.953 149.291 254.127 149.291Z" fill="url(#paint55_linear_87_2)"/>
<g style="mix-blend-mode:screen">
<path d="M270.537 161.985C270.537 162.311 270.633 162.63 270.815 162.902C270.996 163.173 271.254 163.384 271.555 163.509C271.857 163.634 272.188 163.666 272.508 163.602C272.828 163.538 273.122 163.381 273.352 163.15C273.583 162.919 273.74 162.625 273.803 162.305C273.867 161.985 273.834 161.654 273.708 161.353C273.583 161.051 273.371 160.794 273.1 160.613C272.829 160.432 272.51 160.336 272.183 160.336C271.967 160.336 271.753 160.379 271.553 160.462C271.353 160.545 271.171 160.666 271.018 160.819C270.865 160.973 270.744 161.154 270.661 161.354C270.579 161.554 270.536 161.769 270.537 161.985ZM265.002 161.985C265.003 162.311 265.1 162.629 265.281 162.899C265.462 163.17 265.719 163.38 266.02 163.505C266.321 163.629 266.652 163.661 266.971 163.597C267.291 163.534 267.584 163.377 267.814 163.146C268.044 162.916 268.201 162.622 268.264 162.303C268.327 161.984 268.294 161.653 268.17 161.352C268.045 161.051 267.834 160.794 267.563 160.614C267.293 160.433 266.974 160.336 266.649 160.336C266.432 160.336 266.218 160.379 266.018 160.462C265.818 160.545 265.637 160.666 265.484 160.819C265.331 160.973 265.21 161.154 265.127 161.354C265.044 161.554 265.002 161.769 265.002 161.985ZM259.468 161.985C259.468 162.311 259.565 162.629 259.746 162.899C259.928 163.17 260.185 163.38 260.486 163.505C260.787 163.629 261.118 163.661 261.437 163.597C261.756 163.534 262.049 163.377 262.279 163.146C262.509 162.916 262.666 162.622 262.729 162.303C262.793 161.984 262.76 161.653 262.635 161.352C262.511 161.051 262.3 160.794 262.029 160.614C261.758 160.433 261.44 160.336 261.114 160.336C260.898 160.336 260.684 160.379 260.484 160.462C260.284 160.545 260.102 160.666 259.949 160.819C259.796 160.973 259.675 161.154 259.592 161.354C259.51 161.554 259.467 161.769 259.468 161.985Z" fill="white"/>
</g>
<path d="M488.153 110.609L488.177 122.347L509.532 100.992C509.532 100.992 488.322 110.609 488.153 110.609Z" fill="url(#paint56_linear_87_2)"/>
<path style="mix-blend-mode:multiply" d="M509.533 100.992C509.533 100.992 488.328 110.604 488.156 110.604L488.178 122.347L489.639 111.739L488.404 110.776" fill="url(#paint57_linear_87_2)"/>
<path d="M479.329 103.799L499.408 119.284L524.249 92.9089L479.329 103.799Z" fill="url(#paint58_linear_87_2)"/>
<path style="mix-blend-mode:multiply" d="M488.156 110.607L524.259 92.9374L489.636 111.739L488.156 110.607Z" fill="url(#paint59_linear_87_2)"/>
<defs>
<linearGradient id="paint0_linear_87_2" x1="370" y1="-43.12" x2="370" y2="483.12" gradientUnits="userSpaceOnUse">
<stop offset="0.0239582" stop-color="#8CB3FF"/>
<stop offset="1" stop-color="#0E14AD"/>
</linearGradient>
<linearGradient id="paint1_linear_87_2" x1="483.445" y1="327.779" x2="487.573" y2="314.107" gradientUnits="userSpaceOnUse">
<stop stop-color="#9AD6FD"/>
<stop offset="0.47" stop-color="#C0E4FD"/>
<stop offset="1" stop-color="#FFDF96"/>
</linearGradient>
<linearGradient id="paint2_linear_87_2" x1="1613.8" y1="271.906" x2="1603.72" y2="272.612" gradientUnits="userSpaceOnUse">
<stop stop-color="#9AD6FD"/>
<stop offset="0.47" stop-color="#C0E4FD"/>
<stop offset="1" stop-color="#FFDF96"/>
</linearGradient>
<linearGradient id="paint3_linear_87_2" x1="473.785" y1="302.092" x2="473.859" y2="294.701" gradientUnits="userSpaceOnUse">
<stop stop-color="#9AD6FD"/>
<stop offset="0.47" stop-color="#C0E4FD"/>
<stop offset="1" stop-color="#FFDF96"/>
</linearGradient>
<linearGradient id="paint4_linear_87_2" x1="1601.68" y1="282.935" x2="1625.21" y2="281.288" gradientUnits="userSpaceOnUse">
<stop stop-color="#9AD6FD"/>
<stop offset="0.47" stop-color="#C0E4FD"/>
<stop offset="1" stop-color="#FFDF96"/>
</linearGradient>
<linearGradient id="paint5_linear_87_2" x1="468.723" y1="304.838" x2="460.414" y2="308.233" gradientUnits="userSpaceOnUse">
<stop stop-color="#9AD6FD"/>
<stop offset="0.47" stop-color="#C0E4FD"/>
<stop offset="1" stop-color="#FFDF96"/>
</linearGradient>
<linearGradient id="paint6_linear_87_2" x1="463.253" y1="301.5" x2="460.077" y2="304.418" gradientUnits="userSpaceOnUse">
<stop stop-color="#9AD6FD"/>
<stop offset="0.47" stop-color="#C0E4FD"/>
<stop offset="1" stop-color="#FFDF96"/>
</linearGradient>
<linearGradient id="paint7_linear_87_2" x1="466.207" y1="302.802" x2="462.616" y2="303.053" gradientUnits="userSpaceOnUse">
<stop stop-color="#9AD6FD"/>
<stop offset="0.47" stop-color="#C0E4FD"/>
<stop offset="1" stop-color="#FFDF96"/>
</linearGradient>
<linearGradient id="paint8_linear_87_2" x1="479.455" y1="330.747" x2="464.801" y2="282.237" gradientUnits="userSpaceOnUse">
<stop stop-color="#9AD6FD"/>
<stop offset="0.47" stop-color="#C0E4FD"/>
<stop offset="1" stop-color="#FFDF96"/>
</linearGradient>
<linearGradient id="paint9_linear_87_2" x1="497.193" y1="282.604" x2="537.966" y2="285.284" gradientUnits="userSpaceOnUse">
<stop stop-color="#9AD6FD"/>
<stop offset="0.47" stop-color="#C0E4FD"/>
<stop offset="1" stop-color="#FFDF96"/>
</linearGradient>
<linearGradient id="paint10_linear_87_2" x1="265.328" y1="323.843" x2="261.186" y2="310.133" gradientUnits="userSpaceOnUse">
<stop stop-color="#9AD6FD"/>
<stop offset="0.47" stop-color="#C0E4FD"/>
<stop offset="1" stop-color="#FFDF96"/>
</linearGradient>
<linearGradient id="paint11_linear_87_2" x1="274.273" y1="307.264" x2="264.19" y2="307.264" gradientUnits="userSpaceOnUse">
<stop stop-color="#9AD6FD"/>
<stop offset="0.47" stop-color="#C0E4FD"/>
<stop offset="1" stop-color="#FFDF96"/>
</linearGradient>
<linearGradient id="paint12_linear_87_2" x1="277.228" y1="301.217" x2="277.145" y2="293.827" gradientUnits="userSpaceOnUse">
<stop stop-color="#9AD6FD"/>
<stop offset="0.47" stop-color="#C0E4FD"/>
<stop offset="1" stop-color="#FFDF96"/>
</linearGradient>
<linearGradient id="paint13_linear_87_2" x1="261.45" y1="317.393" x2="284.975" y2="317.393" gradientUnits="userSpaceOnUse">
<stop stop-color="#9AD6FD"/>
<stop offset="0.47" stop-color="#C0E4FD"/>
<stop offset="1" stop-color="#FFDF96"/>
</linearGradient>
<linearGradient id="paint14_linear_87_2" x1="276.733" y1="303.488" x2="285" y2="306.878" gradientUnits="userSpaceOnUse">
<stop stop-color="#9AD6FD"/>
<stop offset="0.47" stop-color="#C0E4FD"/>
<stop offset="1" stop-color="#FFDF96"/>
</linearGradient>
<linearGradient id="paint15_linear_87_2" x1="283.251" y1="298.091" x2="286.409" y2="300.998" gradientUnits="userSpaceOnUse">
<stop stop-color="#9AD6FD"/>
<stop offset="0.47" stop-color="#C0E4FD"/>
<stop offset="1" stop-color="#FFDF96"/>
</linearGradient>
<linearGradient id="paint16_linear_87_2" x1="284.063" y1="295.742" x2="287.646" y2="295.977" gradientUnits="userSpaceOnUse">
<stop stop-color="#9AD6FD"/>
<stop offset="0.47" stop-color="#C0E4FD"/>
<stop offset="1" stop-color="#FFDF96"/>
</linearGradient>
<linearGradient id="paint17_linear_87_2" x1="253.558" y1="288.831" x2="212.696" y2="291.691" gradientUnits="userSpaceOnUse">
<stop stop-color="#9AD6FD"/>
<stop offset="0.47" stop-color="#C0E4FD"/>
<stop offset="1" stop-color="#FFDF96"/>
</linearGradient>
<linearGradient id="paint18_linear_87_2" x1="375.758" y1="357.448" x2="375.758" y2="374.694" gradientUnits="userSpaceOnUse">
<stop offset="0.01" stop-color="#3DD0F9"/>
<stop offset="0.17" stop-color="#5AA2F9"/>
<stop offset="0.54" stop-color="#4585E5"/>
<stop offset="0.62" stop-color="#3F7DE0"/>
<stop offset="0.99" stop-color="#2536C8"/>
</linearGradient>
<linearGradient id="paint19_linear_87_2" x1="382.328" y1="359.389" x2="382.328" y2="370.982" gradientUnits="userSpaceOnUse">
<stop stop-color="#3DD0F9"/>
<stop offset="0.99" stop-color="#2536C8"/>
</linearGradient>
<linearGradient id="paint20_linear_87_2" x1="376.517" y1="337.102" x2="376.517" y2="374.504" gradientUnits="userSpaceOnUse">
<stop offset="0.01" stop-color="#B2EEFF"/>
<stop offset="1" stop-color="#1966C3"/>
</linearGradient>
<linearGradient id="paint21_linear_87_2" x1="321.601" y1="131.898" x2="450.428" y2="239.461" gradientUnits="userSpaceOnUse">
<stop stop-color="#FD90DA"/>
<stop offset="1" stop-color="#8E6DFD"/>
</linearGradient>
<linearGradient id="paint22_linear_87_2" x1="510.442" y1="235.15" x2="438.05" y2="321.417" gradientUnits="userSpaceOnUse">
<stop stop-color="#FFC5E3"/>
<stop offset="1" stop-color="#CD3C83"/>
</linearGradient>
<linearGradient id="paint23_linear_87_2" x1="413.316" y1="353.993" x2="521.051" y2="253.658" gradientUnits="userSpaceOnUse">
<stop offset="0.184024" stop-color="#006D5E"/>
<stop offset="1" stop-color="#10F1D3"/>
</linearGradient>
<linearGradient id="paint24_linear_87_2" x1="378.418" y1="216.649" x2="378.93" y2="235.753" gradientUnits="userSpaceOnUse">
<stop stop-color="white"/>
<stop offset="1" stop-color="#FFBEBE"/>
</linearGradient>
<linearGradient id="paint25_linear_87_2" x1="498.614" y1="328.351" x2="416.332" y2="373.901" gradientUnits="userSpaceOnUse">
<stop stop-color="#DCC7FF"/>
<stop offset="1" stop-color="#711AFF"/>
</linearGradient>
<linearGradient id="paint26_linear_87_2" x1="378.776" y1="194.128" x2="378.776" y2="225.193" gradientUnits="userSpaceOnUse">
<stop stop-color="white"/>
<stop offset="1" stop-color="#FFBFBF"/>
</linearGradient>
<linearGradient id="paint27_linear_87_2" x1="235.956" y1="223.085" x2="307.736" y2="330.471" gradientUnits="userSpaceOnUse">
<stop stop-color="#FFC5E3"/>
<stop offset="1" stop-color="#CD3C83"/>
</linearGradient>
<linearGradient id="paint28_linear_87_2" x1="326.445" y1="370.281" x2="183.562" y2="284.079" gradientUnits="userSpaceOnUse">
<stop offset="0.184024" stop-color="#006D5E"/>
<stop offset="1" stop-color="#10F1D3"/>
</linearGradient>
<linearGradient id="paint29_linear_87_2" x1="241.385" y1="333.482" x2="294.473" y2="358.818" gradientUnits="userSpaceOnUse">
<stop stop-color="#E2D1FF"/>
<stop offset="1" stop-color="#711AFF"/>
</linearGradient>
<linearGradient id="paint30_linear_87_2" x1="495.456" y1="249.959" x2="287.054" y2="368.655" gradientUnits="userSpaceOnUse">
<stop offset="0.01" stop-color="#3DD0F9"/>
<stop offset="0.17" stop-color="#5AA2F9"/>
<stop offset="0.54" stop-color="#4585E5"/>
<stop offset="0.62" stop-color="#3F7DE0"/>
<stop offset="0.99" stop-color="#2536C8"/>
</linearGradient>
<linearGradient id="paint31_linear_87_2" x1="495.456" y1="249.959" x2="287.054" y2="368.655" gradientUnits="userSpaceOnUse">
<stop offset="0.01" stop-color="#3DD0F9"/>
<stop offset="0.17" stop-color="#5AA2F9"/>
<stop offset="0.54" stop-color="#4585E5"/>
<stop offset="0.62" stop-color="#3F7DE0"/>
<stop offset="0.99" stop-color="#2536C8"/>
</linearGradient>
<linearGradient id="paint32_linear_87_2" x1="489.472" y1="252.431" x2="286.964" y2="367.77" gradientUnits="userSpaceOnUse">
<stop offset="0.01" stop-color="#3DD0F9"/>
<stop offset="0.17" stop-color="#5AA2F9"/>
<stop offset="0.54" stop-color="#4585E5"/>
<stop offset="0.62" stop-color="#3F7DE0"/>
<stop offset="0.99" stop-color="#2536C8"/>
</linearGradient>
<linearGradient id="paint33_linear_87_2" x1="355.402" y1="291.254" x2="348.766" y2="269.536" gradientUnits="userSpaceOnUse">
<stop stop-color="white"/>
<stop offset="1" stop-color="#FFC3C3"/>
</linearGradient>
<linearGradient id="paint34_linear_87_2" x1="344.812" y1="200.224" x2="350.592" y2="285.627" gradientUnits="userSpaceOnUse">
<stop stop-color="#F9B2A5"/>
<stop offset="1" stop-color="#F99898"/>
</linearGradient>
<linearGradient id="paint35_linear_87_2" x1="399.441" y1="296.683" x2="409.696" y2="266.52" gradientUnits="userSpaceOnUse">
<stop stop-color="white"/>
<stop offset="1" stop-color="#FFCCCC"/>
</linearGradient>
<linearGradient id="paint36_linear_87_2" x1="378.93" y1="296.08" x2="378.93" y2="237.563" gradientUnits="userSpaceOnUse">
<stop stop-color="#FF9DC7"/>
<stop offset="1" stop-color="#E81C78"/>
</linearGradient>
<linearGradient id="paint37_linear_87_2" x1="440.412" y1="302.684" x2="322.655" y2="369.752" gradientUnits="userSpaceOnUse">
<stop offset="0.01" stop-color="#3DD0F9"/>
<stop offset="0.17" stop-color="#5AA2F9"/>
<stop offset="0.54" stop-color="#4585E5"/>
<stop offset="0.62" stop-color="#3F7DE0"/>
<stop offset="0.99" stop-color="#2536C8"/>
</linearGradient>
<linearGradient id="paint38_linear_87_2" x1="409.348" y1="320.382" x2="347.567" y2="355.568" gradientUnits="userSpaceOnUse">
<stop offset="0.01" stop-color="#3DD0F9"/>
<stop offset="0.17" stop-color="#5AA2F9"/>
<stop offset="0.54" stop-color="#4585E5"/>
<stop offset="0.62" stop-color="#3F7DE0"/>
<stop offset="0.99" stop-color="#2536C8"/>
</linearGradient>
<linearGradient id="paint39_linear_87_2" x1="373.367" y1="273.055" x2="374.685" y2="351.485" gradientUnits="userSpaceOnUse">
<stop offset="0.22" stop-color="#462C86"/>
<stop offset="0.34" stop-color="#4A2F8D"/>
<stop offset="0.68" stop-color="#51359A"/>
<stop offset="1" stop-color="#53379E"/>
</linearGradient>
<linearGradient id="paint40_linear_87_2" x1="324.636" y1="372.091" x2="425.381" y2="329.259" gradientUnits="userSpaceOnUse">
<stop stop-color="white"/>
<stop offset="0.461458" stop-color="#FFC5C5"/>
<stop offset="1" stop-color="#FFBFBF"/>
</linearGradient>
<linearGradient id="paint41_linear_87_2" x1="470.626" y1="396.222" x2="325.239" y2="325.64" gradientUnits="userSpaceOnUse">
<stop stop-color="white"/>
<stop offset="1" stop-color="#FFD0D0"/>
</linearGradient>
<linearGradient id="paint42_linear_87_2" x1="363.759" y1="265.501" x2="407.902" y2="373.297" gradientUnits="userSpaceOnUse">
<stop stop-color="#E6E6E6"/>
<stop offset="0.44" stop-color="#C7C7C7"/>
<stop offset="1" stop-color="#999999"/>
</linearGradient>
<linearGradient id="paint43_linear_87_2" x1="378.424" y1="280.041" x2="378.424" y2="322.585" gradientUnits="userSpaceOnUse">
<stop stop-color="#F0F2FC"/>
<stop offset="1" stop-color="#C3B9FF"/>
</linearGradient>
<linearGradient id="paint44_linear_87_2" x1="377.571" y1="281.292" x2="377.571" y2="322.61" gradientUnits="userSpaceOnUse">
<stop stop-color="#F0F2FC"/>
<stop offset="1" stop-color="#C3B9FF"/>
</linearGradient>
<linearGradient id="paint45_linear_87_2" x1="379.09" y1="291.298" x2="379.404" y2="309.905" gradientUnits="userSpaceOnUse">
<stop stop-color="#8D90E3"/>
<stop offset="0.44" stop-color="#A9A1DC"/>
<stop offset="1" stop-color="#9A91D3"/>
</linearGradient>
<linearGradient id="paint46_linear_87_2" x1="513.837" y1="153.334" x2="545.104" y2="179.838" gradientUnits="userSpaceOnUse">
<stop offset="0.01" stop-color="#FFD568"/>
<stop offset="0.49" stop-color="#FFAA41"/>
<stop offset="1" stop-color="#FF6438"/>
</linearGradient>
<linearGradient id="paint47_linear_87_2" x1="422.891" y1="128.007" x2="482.956" y2="177.889" gradientUnits="userSpaceOnUse">
<stop stop-color="#1C8EF4"/>
<stop offset="1" stop-color="#00CFDD"/>
</linearGradient>
<linearGradient id="paint48_linear_87_2" x1="474.182" y1="191.112" x2="456.791" y2="204.101" gradientUnits="userSpaceOnUse">
<stop stop-color="#B5E4FF"/>
<stop offset="1" stop-color="#2DA7FF"/>
</linearGradient>
<linearGradient id="paint49_linear_87_2" x1="485.155" y1="198.665" x2="477.382" y2="203.029" gradientUnits="userSpaceOnUse">
<stop stop-color="#B5E4FF"/>
<stop offset="1" stop-color="#2DA7FF"/>
</linearGradient>
<linearGradient id="paint50_linear_87_2" x1="257.676" y1="71.4946" x2="296.296" y2="101.71" gradientUnits="userSpaceOnUse">
<stop offset="0.01" stop-color="#FFD568"/>
<stop offset="0.49" stop-color="#FFAA41"/>
<stop offset="1" stop-color="#FF6438"/>
</linearGradient>
<linearGradient id="paint51_linear_87_2" x1="248.646" y1="83.0338" x2="287.265" y2="113.252" gradientUnits="userSpaceOnUse">
<stop offset="0.01" stop-color="#FFD568"/>
<stop offset="0.49" stop-color="#FFAA41"/>
<stop offset="1" stop-color="#FF6438"/>
</linearGradient>
<linearGradient id="paint52_linear_87_2" x1="313.777" y1="164.419" x2="320.558" y2="204.367" gradientUnits="userSpaceOnUse">
<stop stop-color="#1C8EF4"/>
<stop offset="1" stop-color="#00CFDD"/>
</linearGradient>
<linearGradient id="paint53_linear_87_2" x1="312.823" y1="164.581" x2="319.606" y2="204.529" gradientUnits="userSpaceOnUse">
<stop stop-color="#1C8EF4"/>
<stop offset="1" stop-color="#00CFDD"/>
</linearGradient>
<linearGradient id="paint54_linear_87_2" x1="319.768" y1="135.091" x2="343.305" y2="135.091" gradientUnits="userSpaceOnUse">
<stop stop-color="#F9DAA6"/>
<stop offset="0.01" stop-color="#F9D6A5"/>
<stop offset="0.17" stop-color="#F8A99E"/>
<stop offset="0.32" stop-color="#F88698"/>
<stop offset="0.46" stop-color="#F76D93"/>
<stop offset="0.59" stop-color="#F75E91"/>
<stop offset="0.69" stop-color="#F75990"/>
<stop offset="0.77" stop-color="#F45491"/>
<stop offset="0.86" stop-color="#EC4494"/>
<stop offset="0.96" stop-color="#DE2B98"/>
<stop offset="1" stop-color="#D9219A"/>
</linearGradient>
<linearGradient id="paint55_linear_87_2" x1="281.785" y1="149.244" x2="241.842" y2="183.102" gradientUnits="userSpaceOnUse">
<stop stop-color="#1C8EF4"/>
<stop offset="1" stop-color="#00CFDD"/>
</linearGradient>
<linearGradient id="paint56_linear_87_2" x1="498.842" y1="98.3196" x2="498.842" y2="132.868" gradientUnits="userSpaceOnUse">
<stop stop-color="#FD90DA"/>
<stop offset="1" stop-color="#8E6DFD"/>
</linearGradient>
<linearGradient id="paint57_linear_87_2" x1="498.844" y1="98.3196" x2="498.844" y2="132.868" gradientUnits="userSpaceOnUse">
<stop stop-color="#FD90DA"/>
<stop offset="1" stop-color="#8E6DFD"/>
</linearGradient>
<linearGradient id="paint58_linear_87_2" x1="501.79" y1="89.6087" x2="501.788" y2="132.278" gradientUnits="userSpaceOnUse">
<stop stop-color="#FD90DA"/>
<stop offset="1" stop-color="#8E6DFD"/>
</linearGradient>
<linearGradient id="paint59_linear_87_2" x1="506.209" y1="90.5842" x2="506.209" y2="121.005" gradientUnits="userSpaceOnUse">
<stop stop-color="#FD90DA"/>
<stop offset="1" stop-color="#8E6DFD"/>
</linearGradient>
</defs>
</svg>
