<svg width="740" height="440" viewBox="0 0 740 440" fill="none" xmlns="http://www.w3.org/2000/svg">
<rect width="740" height="440" fill="url(#paint0_linear_91_273)"/>
<path opacity="0.16" fill-rule="evenodd" clip-rule="evenodd" d="M370.261 349.735C418.483 349.735 462.838 350.447 498.062 351.657C584.235 302.39 554.396 206.323 523.465 152.001C480.391 76.3671 378.634 49.194 336.556 109.521C279.439 191.419 224.339 162.846 194.571 225.024C164.827 287.225 210.012 346.84 242.461 351.633C277.684 350.447 322.04 349.735 370.261 349.735ZM294.762 140.04C272.703 156.842 236.222 169.847 224.125 152.001C215.065 138.663 226.213 113.626 248.058 94.6643C269.88 75.7026 299.103 64.2163 315.042 78.1944C333.947 94.7355 311.745 127.106 294.762 140.04Z" fill="white"/>
<path fill-rule="evenodd" clip-rule="evenodd" d="M370.261 349.735C484.731 349.735 577.545 353.793 577.545 358.824C577.545 363.832 484.755 367.913 370.261 367.913C255.791 367.913 163 363.855 163 358.824C163 353.793 255.791 349.735 370.261 349.735Z" fill="#DCE6F2" fill-opacity="0.16"/>
<path fill-rule="evenodd" clip-rule="evenodd" d="M437.282 99.2936C489.038 110.827 521.985 158.457 525.211 181.453C526.539 190.899 524.072 168.804 497.672 148.703C474.071 130.738 455.689 127.392 427.629 125.233C407.775 123.69 386.997 121.269 388.491 109.427C389.654 100.077 403.862 91.8418 437.282 99.2936ZM301.915 80.0233C310.834 80.5691 316.242 87.8786 316.621 96.3271C316.787 99.9106 313.965 90.5365 304.074 89.2313C297.954 88.4244 297.029 90.228 294.823 87.6887C292.641 85.1494 294.728 79.5961 301.915 80.0233Z" fill="white" fill-opacity="0.27"/>
<path fill-rule="evenodd" clip-rule="evenodd" d="M236.744 328.803C234.372 325.837 231.051 323.392 230.079 319.738C228.916 315.418 231.454 310.862 230.838 306.448C230.055 300.871 224.694 297.264 221.777 292.446C218.93 287.723 220.259 286.133 219.998 280.627C219.618 272.321 212.811 261.856 203.75 264.656C194.547 267.504 196.041 276.071 197.678 282.502C198.84 287.083 198.081 287.747 196.966 292.351C195.614 297.904 191.25 303.268 193.076 308.679C194.215 312.025 197.488 314.279 198.674 317.602C200.026 321.375 198.389 325.457 197.773 329.42C196.444 337.75 198.342 344.656 204.39 351.538C205.031 352.155 205.719 352.725 206.407 353.271C214.874 352.796 224.386 352.345 234.846 351.966L234.917 351.894C240.397 345.819 242.057 335.448 236.744 328.803Z" fill="url(#paint1_linear_91_273)"/>
<path fill-rule="evenodd" clip-rule="evenodd" d="M207.924 272.155C207.782 271.776 207.355 271.586 206.999 271.728C206.62 271.87 206.43 272.298 206.572 272.677C207.284 274.552 207.901 276.522 208.422 278.587C208.209 278.397 207.995 278.207 207.782 278.041C206.786 277.258 205.671 276.546 204.414 275.952C204.058 275.786 203.607 275.929 203.441 276.308C203.275 276.664 203.418 277.115 203.797 277.281C204.959 277.827 205.979 278.468 206.881 279.18C207.734 279.868 208.47 280.628 209.087 281.482C210.012 285.92 210.628 290.69 211.174 295.721C210.344 294.416 209.442 293.229 208.47 292.185C206.809 290.381 204.983 288.981 202.967 287.984C202.611 287.795 202.16 287.961 201.994 288.317C201.805 288.673 201.971 289.124 202.326 289.29C204.177 290.215 205.861 291.497 207.426 293.182C208.968 294.843 210.344 296.884 211.577 299.305L211.719 300.681C212.028 303.671 212.336 306.756 212.716 309.889C212.716 309.913 212.716 309.96 212.716 309.984C213.119 313.259 213.569 316.629 214.139 320.022C212.573 317.602 210.889 315.442 209.063 313.591C206.406 310.862 203.489 308.726 200.334 307.207C199.978 307.041 199.528 307.184 199.362 307.54C199.195 307.895 199.338 308.346 199.694 308.513C202.706 309.96 205.481 312.001 208.019 314.612C210.533 317.222 212.834 320.378 214.898 324.152C215.799 328.661 216.938 333.265 218.456 337.916V337.94C219.191 340.218 220.021 342.52 220.97 344.822C218.764 342.924 216.44 341.31 213.973 339.934C210.533 338.011 206.833 336.611 202.872 335.686C202.492 335.591 202.089 335.828 201.994 336.231C201.899 336.611 202.137 337.015 202.54 337.109C206.359 337.988 209.94 339.364 213.261 341.215C216.534 343.042 219.571 345.344 222.369 348.121C223.01 349.545 223.698 350.993 224.433 352.417L226.022 352.345C223.437 347.409 221.444 342.449 219.855 337.584C219.571 334.024 219.997 330.488 221.112 326.952C222.251 323.369 224.077 319.761 226.639 316.154C226.876 315.822 226.781 315.371 226.473 315.134C226.141 314.896 225.69 314.991 225.453 315.3C222.82 319.026 220.899 322.775 219.713 326.501C219.049 328.637 218.622 330.749 218.432 332.885C216.25 325.006 215.04 317.293 214.162 309.96C215.016 306.851 215.965 304.217 217.009 302.057C218.052 299.922 219.191 298.26 220.424 297.097C220.709 296.813 220.733 296.362 220.448 296.077C220.164 295.792 219.713 295.768 219.428 296.053C218.076 297.335 216.819 299.138 215.704 301.44C215.016 302.864 214.352 304.502 213.736 306.353C213.522 304.407 213.332 302.508 213.119 300.61L212.976 299.138C212.976 299.115 212.976 299.091 212.976 299.067C211.909 288.957 210.865 279.868 207.924 272.155Z" fill="white" fill-opacity="0.5"/>
<path fill-rule="evenodd" clip-rule="evenodd" d="M212.407 332.695C209.893 331.343 206.833 330.607 205.078 328.352C202.991 325.694 203.418 321.755 201.662 318.86C199.456 315.205 194.665 314.279 191.202 311.787C187.81 309.343 188.285 307.848 186.458 304.098C183.73 298.426 175.879 293.158 170.4 297.809C164.826 302.532 168.408 308.038 171.444 312.049C173.602 314.896 173.27 315.585 173.863 319.121C174.551 323.392 173.104 328.424 175.974 331.651C177.753 333.645 180.694 334.238 182.521 336.208C184.584 338.438 184.655 341.761 185.391 344.704C186.363 348.596 188.071 351.752 190.751 354.268C198.01 353.722 206.525 353.2 216.155 352.749C216.89 351.705 217.483 350.542 217.934 349.331C219.997 343.47 218.076 335.757 212.407 332.695Z" fill="url(#paint2_linear_91_273)"/>
<path fill-rule="evenodd" clip-rule="evenodd" d="M175.547 301.796C175.334 301.583 174.978 301.559 174.765 301.773C174.551 301.986 174.527 302.342 174.741 302.556C175.808 303.647 176.804 304.834 177.777 306.116C177.587 306.044 177.374 305.973 177.16 305.926C176.235 305.665 175.263 305.522 174.195 305.475C173.887 305.451 173.626 305.688 173.626 305.997C173.626 306.305 173.863 306.566 174.148 306.566C175.12 306.614 176.022 306.733 176.852 306.97C177.658 307.184 178.394 307.516 179.081 307.919C181.05 310.743 182.877 313.876 184.75 317.222C183.778 316.558 182.805 316.012 181.833 315.561C180.149 314.801 178.441 314.374 176.757 314.256C176.449 314.232 176.188 314.469 176.188 314.778C176.164 315.086 176.401 315.347 176.71 315.347C178.275 315.442 179.84 315.846 181.406 316.558C182.971 317.27 184.537 318.29 186.102 319.595L186.601 320.497C187.715 322.491 188.83 324.555 190.04 326.62C190.04 326.644 190.064 326.667 190.064 326.667C191.297 328.827 192.625 331.034 194.025 333.241C192.222 332.007 190.396 331.034 188.593 330.251C185.936 329.136 183.28 328.519 180.623 328.4C180.315 328.376 180.054 328.613 180.054 328.922C180.03 329.23 180.267 329.492 180.576 329.492C183.09 329.61 185.628 330.203 188.166 331.271C190.704 332.339 193.242 333.858 195.78 335.875C197.749 338.747 199.907 341.619 202.327 344.419C203.513 345.795 204.77 347.148 206.122 348.453C204.034 347.789 201.923 347.338 199.789 347.124C196.824 346.816 193.835 346.911 190.799 347.457C190.491 347.504 190.301 347.789 190.348 348.097C190.396 348.406 190.68 348.596 190.989 348.548C193.906 348.026 196.8 347.931 199.67 348.216C202.493 348.524 205.291 349.213 208.067 350.328C209.015 351.206 210.012 352.084 211.055 352.939L212.692 352.844C209.087 349.972 205.979 346.887 203.204 343.731C201.971 341.334 201.212 338.747 200.927 335.947C200.642 333.099 200.856 330.061 201.568 326.786C201.639 326.478 201.449 326.193 201.141 326.122C200.856 326.05 200.548 326.24 200.476 326.549C199.741 329.919 199.528 333.099 199.812 336.042C199.978 337.726 200.31 339.317 200.809 340.859C196.966 336.018 193.835 331.01 191.036 326.145C190.704 323.725 190.585 321.613 190.68 319.785C190.775 317.982 191.084 316.486 191.582 315.324C191.7 315.039 191.582 314.73 191.297 314.612C191.012 314.493 190.704 314.612 190.585 314.896C190.016 316.202 189.684 317.815 189.589 319.738C189.518 320.948 189.565 322.277 189.66 323.725C188.949 322.443 188.237 321.162 187.549 319.904L187.004 318.931C187.004 318.907 186.98 318.883 186.98 318.883C183.304 312.31 179.888 306.282 175.547 301.796Z" fill="white" fill-opacity="0.5"/>
<path fill-rule="evenodd" clip-rule="evenodd" d="M494.622 325.979C497.208 322.752 500.837 320.07 501.904 316.083C503.161 311.36 500.386 306.4 501.074 301.583C501.928 295.507 507.786 291.568 510.965 286.3C514.072 281.15 512.625 279.417 512.91 273.413C513.337 264.348 520.761 252.932 530.652 255.994C540.685 259.103 539.049 268.453 537.294 275.478C536.036 280.485 536.867 281.197 538.076 286.205C539.547 292.256 544.314 298.118 542.322 304.027C541.089 307.682 537.507 310.15 536.226 313.781C534.756 317.887 536.535 322.348 537.222 326.667C538.669 335.757 536.606 343.304 530.012 350.803C529.205 351.562 528.375 352.25 527.521 352.891C518.389 352.417 508.213 352.013 497.16 351.633C497.018 351.467 496.852 351.325 496.71 351.159C490.637 344.561 488.835 333.241 494.622 325.979Z" fill="url(#paint3_linear_91_273)"/>
<path fill-rule="evenodd" clip-rule="evenodd" d="M526.098 264.181C526.264 263.778 526.715 263.564 527.118 263.73C527.521 263.873 527.735 264.347 527.569 264.751C526.786 266.792 526.122 268.951 525.553 271.182C525.79 270.969 526.027 270.779 526.264 270.589C527.332 269.735 528.565 268.975 529.941 268.311C530.344 268.121 530.818 268.287 530.984 268.69C531.174 269.094 531.008 269.569 530.605 269.735C529.348 270.328 528.233 271.016 527.26 271.799C526.335 272.535 525.529 273.389 524.841 274.291C523.821 279.132 523.157 284.353 522.564 289.836C523.489 288.412 524.461 287.13 525.505 285.991C527.308 284.021 529.324 282.479 531.53 281.387C531.933 281.197 532.407 281.363 532.597 281.743C532.787 282.146 532.621 282.621 532.241 282.811C530.225 283.808 528.375 285.232 526.691 287.059C525.007 288.886 523.513 291.117 522.161 293.751L522.018 295.246C521.686 298.521 521.33 301.868 520.927 305.309C520.927 305.332 520.927 305.38 520.927 305.404C520.5 308.987 520.002 312.642 519.362 316.368C521.07 313.71 522.92 311.384 524.888 309.343C527.782 306.353 530.961 304.027 534.424 302.366C534.827 302.176 535.301 302.342 535.491 302.746C535.681 303.149 535.515 303.624 535.112 303.814C531.814 305.404 528.802 307.611 526.027 310.459C523.275 313.306 520.761 316.771 518.532 320.853C517.559 325.789 516.302 330.797 514.665 335.875V335.899C513.859 338.391 512.958 340.883 511.914 343.398C514.31 341.334 516.871 339.554 519.552 338.059C523.299 335.97 527.332 334.428 531.648 333.431C532.075 333.336 532.502 333.597 532.597 334.024C532.692 334.452 532.431 334.879 532.004 334.974C527.83 335.947 523.94 337.442 520.311 339.459C516.729 341.452 513.408 343.968 510.372 347.006C509.613 348.667 508.807 350.352 507.953 352.013L506.197 351.942C509.091 346.436 511.345 340.93 513.1 335.496C513.408 331.627 512.934 327.759 511.724 323.891C510.491 319.975 508.475 316.036 505.699 312.096C505.438 311.74 505.533 311.242 505.889 310.981C506.245 310.72 506.743 310.815 507.004 311.171C509.898 315.252 511.961 319.311 513.242 323.392C513.977 325.718 514.452 328.02 514.665 330.346C517.037 321.755 518.366 313.354 519.338 305.309C518.413 301.915 517.369 299.044 516.231 296.67C515.092 294.321 513.859 292.517 512.507 291.259C512.198 290.951 512.175 290.453 512.483 290.144C512.791 289.836 513.29 289.812 513.598 290.12C515.092 291.521 516.444 293.49 517.654 295.982C518.413 297.548 519.125 299.328 519.812 301.346C520.05 299.233 520.263 297.145 520.477 295.08L520.643 293.49C520.643 293.467 520.643 293.443 520.643 293.395C521.734 282.526 522.872 272.606 526.098 264.181Z" fill="white" fill-opacity="0.5"/>
<path fill-rule="evenodd" clip-rule="evenodd" d="M521.188 330.251C523.939 328.756 527.26 327.973 529.181 325.505C531.458 322.586 530.984 318.314 532.905 315.158C535.301 311.171 540.543 310.174 544.314 307.445C548.015 304.787 547.493 303.149 549.485 299.044C552.474 292.873 561.013 287.106 566.99 292.161C573.062 297.311 569.149 303.315 565.852 307.706C563.503 310.815 563.859 311.574 563.219 315.419C562.46 320.07 564.049 325.552 560.894 329.088C558.949 331.271 555.723 331.912 553.755 334.072C551.525 336.492 551.43 340.123 550.624 343.351C549.556 347.67 547.659 351.135 544.646 353.912C536.724 353.366 527.545 352.867 517.274 352.417C516.373 351.183 515.637 349.83 515.139 348.382C512.91 341.998 514.997 333.573 521.188 330.251Z" fill="url(#paint4_linear_91_273)"/>
<path fill-rule="evenodd" clip-rule="evenodd" d="M561.392 296.528C561.629 296.291 562.009 296.291 562.246 296.504C562.483 296.741 562.483 297.121 562.27 297.359C561.108 298.545 560.016 299.85 558.973 301.251C559.186 301.179 559.423 301.108 559.637 301.037C560.633 300.752 561.724 300.586 562.863 300.539C563.195 300.515 563.48 300.776 563.48 301.108C563.48 301.44 563.242 301.725 562.91 301.725C561.867 301.773 560.87 301.915 559.969 302.176C559.091 302.413 558.285 302.769 557.55 303.197C555.415 306.282 553.399 309.699 551.359 313.354C552.426 312.642 553.494 312.025 554.537 311.55C556.387 310.72 558.237 310.245 560.088 310.126C560.42 310.103 560.704 310.364 560.728 310.696C560.752 311.028 560.491 311.313 560.159 311.337C558.451 311.432 556.743 311.882 555.035 312.642C553.328 313.425 551.62 314.517 549.912 315.964L549.366 316.961C548.157 319.144 546.923 321.375 545.619 323.653C545.595 323.677 545.595 323.701 545.571 323.725C544.219 326.098 542.772 328.495 541.231 330.892C543.199 329.563 545.192 328.471 547.16 327.64C550.054 326.43 552.972 325.742 555.866 325.599C556.198 325.576 556.482 325.837 556.482 326.169C556.506 326.501 556.245 326.786 555.913 326.786C553.162 326.905 550.386 327.569 547.635 328.732C544.883 329.895 542.108 331.556 539.333 333.763C537.198 336.896 534.85 340.028 532.194 343.09C530.889 344.585 529.513 346.056 528.066 347.504C530.343 346.792 532.644 346.294 534.969 346.056C538.195 345.7 541.468 345.819 544.765 346.412C545.097 346.46 545.31 346.792 545.263 347.101C545.215 347.433 544.883 347.646 544.575 347.599C541.373 347.029 538.218 346.911 535.111 347.243C532.027 347.575 528.968 348.335 525.955 349.545C524.817 350.589 523.631 351.633 522.397 352.63L520.595 352.535C524.651 349.331 528.161 345.89 531.268 342.33C532.62 339.72 533.451 336.896 533.759 333.834C534.067 330.726 533.83 327.403 533.047 323.843C532.976 323.511 533.19 323.203 533.498 323.131C533.83 323.06 534.139 323.274 534.21 323.582C535.016 327.261 535.253 330.726 534.945 333.953C534.755 335.78 534.399 337.537 533.878 339.222C538.076 333.929 541.492 328.471 544.528 323.179C544.883 320.545 545.026 318.219 544.907 316.249C544.812 314.279 544.48 312.642 543.911 311.384C543.769 311.076 543.911 310.72 544.219 310.601C544.528 310.482 544.883 310.601 545.002 310.909C545.619 312.333 545.975 314.09 546.093 316.202C546.164 317.507 546.141 318.978 545.998 320.568C546.781 319.168 547.564 317.768 548.323 316.391L548.916 315.324C548.916 315.3 548.939 315.276 548.939 315.276C552.924 308.014 556.672 301.44 561.392 296.528ZM259.989 207.96C257.451 215.104 256.099 215.816 249.007 214.463C255.79 216.931 256.597 218.236 255.126 225.688C257.664 218.545 259.016 217.833 266.108 219.186C259.301 216.694 258.494 215.389 259.989 207.96ZM267.579 269.64C265.065 276.688 263.736 277.4 256.715 276.047C263.428 278.492 264.211 279.773 262.74 287.13C265.254 280.082 266.583 279.37 273.58 280.722C266.915 278.278 266.108 276.997 267.579 269.64ZM225.168 219.708C220.472 232.903 217.981 234.232 204.841 231.716C217.388 236.296 218.883 238.717 216.131 252.458C220.828 239.239 223.318 237.934 236.459 240.449C223.911 235.845 222.441 233.449 225.168 219.708Z" fill="white" fill-opacity="0.27"/>
<path fill-rule="evenodd" clip-rule="evenodd" d="M353.112 148.298H486.321C494.86 148.298 500.576 155.442 499.105 163.795L468.223 337.513C466.799 345.511 459.257 352.037 451.097 352.037H317.888C309.349 352.037 303.633 344.894 305.104 336.54L335.986 162.822C337.41 154.825 344.976 148.298 353.112 148.298Z" fill="url(#paint5_linear_91_273)"/>
<path fill-rule="evenodd" clip-rule="evenodd" d="M349.791 147.753H482.999C489.736 147.753 494.266 153.235 493.056 159.998L462.174 333.716C460.964 340.456 454.512 345.961 447.776 345.961H314.567C307.831 345.961 303.324 340.479 304.51 333.716L335.393 159.998C336.603 153.235 343.054 147.753 349.791 147.753Z" fill="url(#paint6_linear_91_273)"/>
<path fill-rule="evenodd" clip-rule="evenodd" d="M486.273 164.033L456.102 333.692C455.509 337.086 452.235 339.862 448.844 339.862H315.659C312.267 339.862 309.99 337.086 310.583 333.692L340.73 164.033H486.273Z" fill="white"/>
<path fill-rule="evenodd" clip-rule="evenodd" d="M348.724 153.828H481.932C485.324 153.828 487.601 156.605 487.008 159.998L486.297 164.056H340.754L341.465 159.998C342.058 156.605 345.332 153.828 348.724 153.828Z" fill="url(#paint7_linear_91_273)"/>
<path fill-rule="evenodd" clip-rule="evenodd" d="M352.044 156.106C353.61 156.106 354.653 157.364 354.369 158.93C354.084 160.497 352.59 161.754 351.048 161.754C349.483 161.754 348.439 160.497 348.724 158.93C349.008 157.364 350.503 156.106 352.044 156.106ZM376.404 156.106C377.97 156.106 379.013 157.364 378.729 158.93C378.444 160.497 376.95 161.754 375.408 161.754C373.842 161.754 372.799 160.497 373.083 158.93C373.368 157.364 374.839 156.106 376.404 156.106ZM364.236 156.106C365.802 156.106 366.845 157.364 366.561 158.93C366.276 160.497 364.782 161.754 363.24 161.754C361.674 161.754 360.631 160.497 360.915 158.93C361.176 157.364 362.671 156.106 364.236 156.106Z" fill="white"/>
<path fill-rule="evenodd" clip-rule="evenodd" d="M458.118 322.396H312.599L310.583 333.692C309.99 337.086 312.267 339.862 315.659 339.862H448.844C452.235 339.862 455.509 337.086 456.102 333.692L458.118 322.396Z" fill="url(#paint8_linear_91_273)"/>
<path fill-rule="evenodd" clip-rule="evenodd" d="M419.407 202.739C419.431 202.977 419.431 203.214 419.383 203.451L417.77 212.588C417.391 214.724 410.844 215.792 404.464 215.792L406.788 202.716H419.407V202.739Z" fill="#99A9D4"/>
<path fill-rule="evenodd" clip-rule="evenodd" d="M418.791 206.798L405.366 210.713L406.244 205.73H418.863C418.91 205.872 418.91 206.014 418.886 206.181L418.791 206.798Z" fill="#1B2232"/>
<path fill-rule="evenodd" clip-rule="evenodd" d="M419.408 202.739C419.431 202.977 419.431 203.214 419.384 203.451L417.771 212.588C417.012 216.86 391.561 216.86 392.32 212.588L393.957 203.451C394.004 203.19 394.075 202.953 394.194 202.739H419.408Z" fill="url(#paint9_linear_91_273)"/>
<path fill-rule="evenodd" clip-rule="evenodd" d="M418.791 206.798L405.366 210.713L404.939 210.571L393.34 206.798L393.458 206.181C393.482 206.014 393.553 205.872 393.648 205.73H418.886C418.933 205.872 418.933 206.014 418.909 206.181L418.791 206.798Z" fill="#333A4E"/>
<path fill-rule="evenodd" clip-rule="evenodd" d="M383.686 202.241C390.374 200.295 397.087 198.325 403.776 196.379C408.117 195.121 407.879 195.003 411.793 196.284L429.322 201.98C430.484 202.431 429.488 202.906 427.519 203.57L405.484 210.001C389.924 204.923 387.576 204.163 384.255 203.095C383.946 202.953 383.235 202.383 383.686 202.241Z" fill="url(#paint10_linear_91_273)"/>
<path fill-rule="evenodd" clip-rule="evenodd" d="M407.738 200.936C407.453 200.556 406.647 200.556 405.911 200.936C405.176 201.315 404.82 201.933 405.105 202.312C405.389 202.692 406.196 202.692 406.931 202.312C407.667 201.933 408.022 201.315 407.738 200.936Z" fill="#242424"/>
<path fill-rule="evenodd" clip-rule="evenodd" d="M405.413 202.526L391.134 205.326L389.593 213.941H388.833L390.423 204.947L390.612 204.828L405.01 201.956C404.986 202.075 405.034 202.217 405.105 202.312C405.176 202.407 405.295 202.478 405.413 202.526Z" fill="url(#paint11_linear_91_273)"/>
<path fill-rule="evenodd" clip-rule="evenodd" d="M387.956 216.195H389.711L390.115 213.941H388.336L387.956 216.195Z" fill="url(#paint12_linear_91_273)"/>
<path fill-rule="evenodd" clip-rule="evenodd" d="M387.243 219.85L387.054 219.826C387.623 218.26 388.216 215.104 388.216 215.056H388.429C388.406 215.08 387.813 218.26 387.243 219.85ZM389.094 219.874C388.928 218.853 389.592 215.365 389.615 215.222H389.829C389.829 215.27 389.117 218.806 389.307 219.803L389.094 219.874Z" fill="url(#paint13_linear_91_273)"/>
<path fill-rule="evenodd" clip-rule="evenodd" d="M388.738 219.447C388.81 217.88 389.379 215.08 389.379 215.056H389.592C389.592 215.08 389.023 217.88 388.952 219.423L388.738 219.447ZM387.647 219.637L387.458 219.613C387.979 217.88 388.525 214.961 388.525 214.914H388.738C388.715 214.961 388.169 217.904 387.647 219.637ZM387.908 220.277H387.695C387.908 219.257 388.786 215.151 388.786 215.128H388.999C388.976 215.151 388.098 219.257 387.908 220.277ZM388.169 220.04C388.264 219.02 389.047 215.389 389.07 215.246H389.284C389.284 215.294 388.477 218.996 388.383 220.016L388.169 220.04Z" fill="url(#paint14_linear_91_273)"/>
<path fill-rule="evenodd" clip-rule="evenodd" d="M390.09 239.524H410.086C412.742 239.524 414.545 241.707 414.071 244.365L412.624 252.553C412.15 255.211 409.588 257.394 406.931 257.394H386.936C384.279 257.394 382.476 255.211 382.951 252.553L384.398 244.365C384.848 241.707 387.41 239.524 390.09 239.524Z" fill="url(#paint15_linear_91_273)"/>
<path fill-rule="evenodd" clip-rule="evenodd" d="M390.469 246.999C391.276 246.999 391.798 247.64 391.655 248.447C391.513 249.254 390.754 249.895 389.948 249.895C389.141 249.895 388.619 249.254 388.762 248.447C388.904 247.64 389.663 246.999 390.469 246.999ZM407.049 246.999C407.856 246.999 408.378 247.64 408.235 248.447C408.093 249.254 407.334 249.895 406.528 249.895C405.721 249.895 405.199 249.254 405.342 248.447C405.46 247.64 406.243 246.999 407.049 246.999ZM398.748 246.999C399.554 246.999 400.076 247.64 399.934 248.447C399.791 249.254 399.032 249.895 398.226 249.895C397.419 249.895 396.897 249.254 397.04 248.447C397.182 247.64 397.965 246.999 398.748 246.999Z" fill="white"/>
<path fill-rule="evenodd" clip-rule="evenodd" d="M382.239 279.797H392.937H403.634C404.109 279.797 404.441 280.2 404.346 280.675L403.943 282.93C403.871 283.404 403.397 283.808 402.923 283.808H402.088C402.043 284.107 401.994 284.416 401.942 284.733H408.781C409.374 284.733 409.753 285.208 409.659 285.801L409.469 286.869H409.459C408.933 295.146 402.537 301.82 394.62 301.725C395.029 301.373 395.412 300.988 395.775 300.579C394.412 302.101 392.77 303.268 390.788 303.851C389.921 308.828 390.934 312.221 392.77 314.92H391.893L391.893 314.92H386.675H380.579L380.579 314.92H380.579C381.008 314.505 381.424 314.073 381.824 313.622C384.018 311.145 385.722 308.076 386.477 303.848C385.187 303.421 384.187 302.684 383.423 301.725C375.407 301.819 371.399 295.056 373.913 286.703L373.889 286.869H375.81C374.103 293.679 376.498 298.639 382.26 299.708C380.789 296.135 381.11 291.081 381.77 286.869H373.89L374.079 285.801C374.174 285.208 374.744 284.733 375.337 284.733H382.142C382.203 284.416 382.264 284.107 382.325 283.808H381.528C381.053 283.808 380.721 283.404 380.816 282.93L381.219 280.675C381.29 280.2 381.765 279.797 382.239 279.797ZM401.554 286.869C400.715 291.076 399.239 296.133 396.496 299.708C402.638 298.639 406.812 293.68 407.524 286.869H401.554ZM386.674 314.944H396.66L398.202 320.592H385.678H373.154L376.712 314.944H386.674Z" fill="url(#paint16_linear_91_273)"/>
<path fill-rule="evenodd" clip-rule="evenodd" d="M368.102 178.153C367.248 183.137 362.505 187.219 357.523 187.242C352.519 187.266 349.174 183.255 350.028 178.272C350.882 173.288 355.626 169.206 360.607 169.182C365.612 169.159 368.956 173.169 368.102 178.153Z" fill="#A9B0E9"/>
<path fill-rule="evenodd" clip-rule="evenodd" d="M362.362 173.953C362.125 175.376 360.773 176.539 359.35 176.539C357.927 176.539 356.978 175.4 357.215 173.976C357.453 172.552 358.805 171.389 360.228 171.389C361.651 171.389 362.623 172.529 362.362 173.953ZM359.208 177.417C356.575 177.441 354.061 179.577 353.61 182.235C353.491 182.923 353.966 183.493 354.654 183.469L361.698 183.422C362.386 183.422 363.05 182.852 363.169 182.164C363.62 179.53 361.841 177.394 359.208 177.417Z" fill="white"/>
<path fill-rule="evenodd" clip-rule="evenodd" d="M378.017 172.386H470.167C471.306 172.386 472.065 173.312 471.875 174.451L470.547 181.998C470.334 183.137 469.242 184.062 468.104 184.062H375.954C374.815 184.062 374.056 183.137 374.246 181.998L375.598 174.451C375.788 173.312 376.879 172.386 378.017 172.386Z" fill="url(#paint17_linear_91_273)" fill-opacity="0.48"/>
<path fill-rule="evenodd" clip-rule="evenodd" d="M382.619 176.089C383.805 176.089 384.587 177.038 384.374 178.224C384.16 179.411 383.046 180.36 381.86 180.36C380.674 180.36 379.891 179.411 380.104 178.224C380.318 177.038 381.456 176.089 382.619 176.089ZM403.705 176.089C404.891 176.089 405.674 177.038 405.461 178.224C405.247 179.411 404.132 180.36 402.946 180.36C401.76 180.36 400.978 179.411 401.191 178.224C401.405 177.038 402.543 176.089 403.705 176.089ZM393.174 176.089C394.36 176.089 395.143 177.038 394.929 178.224C394.716 179.411 393.601 180.36 392.415 180.36C391.229 180.36 390.446 179.411 390.66 178.224C390.873 177.038 391.988 176.089 393.174 176.089Z" fill="white"/>
<path fill-rule="evenodd" clip-rule="evenodd" d="M299.434 185.985C299.434 185.985 297.608 197.946 297.276 202.621C297.11 204.97 296.873 206.869 298.343 208.459C298.343 208.459 294.667 208.815 293.41 207.794C293.41 207.794 293.647 208.293 293.884 208.506C293.884 208.506 289.757 208.649 288.073 207.367C285.487 205.611 287.195 170.867 299.6 173.715C299.6 173.715 311.033 172.742 310.132 183.967C310.322 197.305 311.389 208.791 312.29 211.117C311.01 211.852 307.902 209.432 307.523 208.364C307.191 207.415 307.001 206.323 306.906 206.038C306.906 206.038 307.309 209.266 307.499 209.456C307.499 209.456 302.874 208.933 300.905 207.438C298.889 205.967 298.865 188.287 299.434 185.985Z" fill="#0B0952"/>
<path fill-rule="evenodd" clip-rule="evenodd" d="M294.738 194.623C294.785 194.481 294.809 194.362 294.833 194.243C294.477 193.081 294.358 191.752 294.524 190.304C293.409 189.307 290.99 190.161 288.95 190.779C288.049 199.013 288.073 207.343 288.571 207.96C289.591 209.242 292.081 209.1 292.081 209.1C291.939 208.886 291.797 208.388 291.797 208.388C292.556 209.408 294.785 209.052 294.785 209.052C293.884 207.462 294.026 205.563 294.145 203.214C294.216 201.173 294.477 197.803 294.738 194.623Z" fill="#0B0952"/>
<path fill-rule="evenodd" clip-rule="evenodd" d="M332.333 314.706L330.981 314.469L332.333 314.706Z" fill="#5E5D5D"/>
<path fill-rule="evenodd" clip-rule="evenodd" d="M311.247 209.313H286.649C288.405 204.899 290.919 201.719 292.84 201.315C293.86 201.054 295.592 196.854 295.568 190.897L296.042 191.49L303.775 193.033C303.775 193.033 303.609 195.477 303.585 197.756C303.585 199.654 303.68 201.6 304.107 201.838C304.652 201.885 305.174 201.98 305.174 201.98C305.174 201.98 309.373 204.946 311.247 209.313Z" fill="url(#paint18_linear_91_273)"/>
<path fill-rule="evenodd" clip-rule="evenodd" d="M303.775 193.033C303.775 193.033 303.609 195.454 303.585 197.756C299.268 197.637 296.968 193.698 296.042 191.49L303.775 193.033Z" fill="#FFAA8F"/>
<path fill-rule="evenodd" clip-rule="evenodd" d="M294.975 188.999C294.975 182.615 293.647 178.343 300.17 177.963C306.692 177.584 307.973 180.028 308.495 182.14C308.827 183.469 308.827 188.572 307.902 191.941C305.625 200.2 294.975 193.152 294.975 188.999Z" fill="url(#paint19_linear_91_273)"/>
<path fill-rule="evenodd" clip-rule="evenodd" d="M289.188 331.77L292.034 343.826L296.327 343.802L296.493 331.77H289.188Z" fill="url(#paint20_linear_91_273)"/>
<path fill-rule="evenodd" clip-rule="evenodd" d="M325.218 332.292L333.354 343.826L336.532 339.744L331.646 330.702L325.218 332.292Z" fill="url(#paint21_linear_91_273)"/>
<path fill-rule="evenodd" clip-rule="evenodd" d="M335.251 336.587L331.053 336.706L326.522 336.848C326.522 336.848 316.038 325.172 310.156 306.472C310.014 306.044 309.871 305.593 309.729 305.143C306.503 295.768 299.838 283.974 296.327 273.318C295.758 271.609 295.26 270.019 294.809 268.501C294.667 268.026 294.525 267.551 294.382 267.077C291.797 258.082 291.038 252.173 290.35 245.837L315.73 246.05C315.73 246.05 319.833 289.171 335.251 336.587Z" fill="url(#paint22_linear_91_273)"/>
<path fill-rule="evenodd" clip-rule="evenodd" d="M312.172 231.455C312.1 243.535 313.951 248.708 313.951 248.708C313.951 248.708 303.087 254.238 290.184 250.156C290.041 250.108 280.648 247.972 280.648 247.972C280.862 247.474 281.621 239.073 281.834 238.622C284.562 232.76 286.626 230.197 286.958 228.394C287.551 225.024 287.575 221.559 287.266 218.284C286.483 209.598 284.633 204.092 284.633 204.092C288.144 203.285 290.943 200.176 294.595 198.8C295.449 199.844 298.011 200.936 300.241 200.888C302.802 200.841 303.656 199.726 303.514 198.515C306.265 200.034 308.448 201.482 308.448 201.482C310.772 205.54 315.492 209.456 315.848 215.673C315.943 217.24 312.195 231.123 312.172 231.455Z" fill="white"/>
<path fill-rule="evenodd" clip-rule="evenodd" d="M294.003 199.417C295.402 200.248 296.707 200.841 297.893 201.197C299.34 201.648 300.597 201.743 301.664 201.529C302.779 201.292 303.657 200.722 304.202 199.773C304.368 199.488 304.511 199.18 304.606 198.847L303.586 198.539C303.514 198.8 303.396 199.037 303.277 199.227C302.874 199.892 302.257 200.319 301.451 200.461C300.573 200.651 299.482 200.532 298.201 200.153C297.086 199.82 295.877 199.251 294.548 198.468L294.003 199.417Z" fill="url(#paint23_linear_91_273)"/>
<path fill-rule="evenodd" clip-rule="evenodd" d="M291.892 343.137C291.892 343.137 292.247 345.534 291.346 348.074C291.346 348.074 290.635 351.277 293.789 351.325C296.944 351.372 297.703 351.088 297.347 349.118C296.991 347.148 296.303 343.778 296.303 343.778L291.892 343.137Z" fill="url(#paint24_linear_91_273)"/>
<path fill-rule="evenodd" clip-rule="evenodd" d="M297.774 353.247C295.782 357.02 292.912 356.759 290.872 353.247C290.587 351.823 291.204 348.809 291.322 348.216C291.322 348.168 291.346 348.145 291.346 348.121C291.346 348.097 291.346 348.097 291.346 348.097C294.904 351.372 297.134 348.002 297.134 348.002C297.134 348.002 297.134 348.002 297.134 348.026C297.679 349.308 297.774 352.749 297.774 353.247Z" fill="#0F3970"/>
<path fill-rule="evenodd" clip-rule="evenodd" d="M344.122 349.474C344.122 349.474 338.31 343.019 336.531 339.744L332.214 341.951L341.868 351.016L344.122 350.732V349.474Z" fill="url(#paint25_linear_91_273)"/>
<path fill-rule="evenodd" clip-rule="evenodd" d="M347.799 353.247C347.799 353.247 340.612 353.247 340.493 353.247C339.426 353.247 338.572 351.467 337.409 349.141C336.935 348.192 335.868 347.67 334.777 347.385L334.8 353.247H333.116L331.574 347.053C330.555 345.155 331.503 343.446 332.215 341.951C333.045 341.951 335.322 342.52 339.615 347.362C341.015 348.952 342.58 349.521 344.122 349.474C344.146 349.497 344.17 349.497 344.193 349.497C347.751 351.111 347.799 353.247 347.799 353.247ZM331.053 336.706L326.522 336.848C326.522 336.848 316.038 325.172 310.156 306.472C310.013 306.044 309.871 305.593 309.729 305.143C306.503 295.768 299.838 283.974 296.327 273.318C295.758 271.609 295.26 270.019 294.809 268.501C294.667 268.026 294.525 267.551 294.382 267.077L298.13 264.229C298.13 264.229 309.349 282.407 312.812 299.518C315.848 314.398 327.922 332.268 331.053 336.706Z" fill="url(#paint26_linear_91_273)"/>
<path fill-rule="evenodd" clip-rule="evenodd" d="M298.509 301.108C298.58 309.438 298.153 328.542 297.062 336.469H293.054C290.824 336.469 289.733 336.445 289.733 336.445C287.029 322.68 285.084 311.289 283.685 301.464C282.522 293.419 281.502 286.513 280.72 280.556C279.937 274.576 279.368 269.568 279.178 265.32C279.154 264.656 279.13 263.991 279.107 263.374C279.107 262.734 279.083 262.14 279.107 261.523L301.024 259.387C300.739 274.006 298.486 296.29 298.509 301.108Z" fill="url(#paint27_linear_91_273)"/>
<path fill-rule="evenodd" clip-rule="evenodd" d="M293.054 336.492C290.824 336.492 289.733 336.469 289.733 336.469C287.029 322.704 285.084 311.313 283.684 301.488C282.522 293.443 281.502 286.537 280.72 280.58C279.937 274.6 279.367 269.592 279.178 265.344L287.219 270.091C287.219 270.091 282.095 271.894 284.04 285.635C285.985 299.328 290.326 334.546 293.054 336.492Z" fill="url(#paint28_linear_91_273)"/>
<path fill-rule="evenodd" clip-rule="evenodd" d="M294.097 265.202C294.097 265.202 292.556 270.779 287.219 270.067C281.882 269.355 277.162 267.266 277.162 267.266C277.162 267.266 277.375 259.957 279.415 249.444C282.878 237.981 283.708 221.82 285.724 212.493C286.294 209.883 290.065 209.028 290.207 207.462L294.429 198.919C294.429 198.919 301.237 213.704 301.593 217.429C301.925 221.203 294.097 265.202 294.097 265.202Z" fill="url(#paint29_linear_91_273)"/>
<path fill-rule="evenodd" clip-rule="evenodd" d="M290.35 228.465C290.112 234.516 288.001 244.864 279.486 249.396C279.462 249.42 279.415 249.42 279.391 249.444C282.83 237.958 282.783 226.946 284.799 217.619C289.353 216.67 290.492 225.142 290.35 228.465Z" fill="#1D3D93"/>
<path fill-rule="evenodd" clip-rule="evenodd" d="M323.035 229.77C321.825 230.055 320.9 230.221 320.568 230.15C319.098 229.818 316.987 213.87 315.872 208.411C314.401 201.363 308.827 199.963 308.827 199.963L303.538 198.539C303.538 198.539 309.586 213.514 309.776 216.528C309.966 219.565 310.487 266.08 310.487 266.08C310.487 266.08 310.132 268.216 314.235 267.314C318.339 266.436 319.406 265.534 319.406 265.534C319.406 265.534 317.627 252.529 316.797 240.995C318.173 240.758 320.521 239.88 323.059 238.788V229.77H323.035Z" fill="url(#paint30_linear_91_273)"/>
<path fill-rule="evenodd" clip-rule="evenodd" d="M305.412 178.865C310.844 182.045 309.136 184.229 310.536 187.124C310.536 187.124 312.172 181.523 309.61 178.438C306.906 175.139 305.412 178.865 305.412 178.865Z" fill="#0B0952"/>
<path fill-rule="evenodd" clip-rule="evenodd" d="M308.139 177.655C307.427 177.323 306.929 177.394 306.645 177.868C306.834 179.008 307.356 179.862 308.234 180.408C307.925 179.886 307.902 178.984 308.139 177.655ZM300.051 175.471C300.999 175.21 301.426 174.736 301.284 174.048C300.193 173.122 299.007 172.766 297.726 172.98C298.414 173.193 299.197 174.024 300.051 175.471Z" fill="#0B0952"/>
<path fill-rule="evenodd" clip-rule="evenodd" d="M294.312 185.344C295.403 184.229 296.351 184.015 297.205 184.703C297.656 186.91 297.253 188.833 296.019 190.446C296.185 189.331 295.616 187.622 294.312 185.344Z" fill="#0B0952"/>
<path fill-rule="evenodd" clip-rule="evenodd" d="M308.472 181.618C309.065 179.411 309.681 178.77 310.298 179.672C310.844 183.255 310.796 186.602 310.179 189.663C310.203 187.741 309.634 185.059 308.472 181.618Z" fill="#0B0952"/>
<path fill-rule="evenodd" clip-rule="evenodd" d="M303.371 179.387C302.612 177.251 304.842 177.37 305.862 177.75C308.353 180.384 310.226 183.137 311.46 186.032C309.562 184.371 303.182 181.286 303.371 179.387ZM300.241 175.234C299.861 174.973 299.719 174.498 299.766 173.81C300.193 172.885 300.644 172.529 301.142 172.742C300.881 172.98 300.573 173.81 300.241 175.234Z" fill="#0B0952"/>
<path fill-rule="evenodd" clip-rule="evenodd" d="M301.237 201.363C301.83 201.268 302.423 201.861 302.565 202.739C302.708 203.594 302.352 204.377 301.759 204.472C301.166 204.567 300.573 203.95 300.431 203.095C300.288 202.241 300.644 201.458 301.237 201.363Z" fill="url(#paint31_linear_91_273)"/>
<path fill-rule="evenodd" clip-rule="evenodd" d="M301.901 203.973C302.257 203.902 302.636 204.282 302.731 204.804C302.826 205.326 302.613 205.801 302.233 205.872C301.877 205.943 301.498 205.564 301.403 205.041C301.308 204.519 301.545 204.045 301.901 203.973Z" fill="url(#paint32_linear_91_273)"/>
<path fill-rule="evenodd" clip-rule="evenodd" d="M302.257 205.611C302.565 205.563 302.897 205.896 302.969 206.347C303.04 206.798 302.85 207.225 302.542 207.272C302.233 207.32 301.901 206.987 301.83 206.537C301.735 206.086 301.925 205.682 302.257 205.611Z" fill="url(#paint33_linear_91_273)"/>
<path fill-rule="evenodd" clip-rule="evenodd" d="M279.32 218.189C280.98 209.503 283.803 204.638 287.835 203.594C286.531 224.193 285.487 235.94 286.436 236.415C296.754 229.96 301.782 226.305 301.782 226.305C303.419 225.356 305.055 225.712 306.407 226.495C310.44 227.943 312.456 228.678 312.456 228.678C312.859 229.699 310.843 229.177 307.427 228.37C307.119 229.984 304.391 231.716 302.778 230.435C299.054 232.879 284.372 248.85 280.15 244.365C278.656 242.775 278.774 239.951 278.656 235.157C278.537 230.767 278.276 225.095 279.32 218.189Z" fill="url(#paint34_linear_91_273)"/>
<path fill-rule="evenodd" clip-rule="evenodd" d="M294.406 198.919C294.406 198.919 286.128 201.244 284.562 203.57C284.04 204.353 282.048 206.275 280.838 209.717C278.443 216.456 277.66 226.234 278.111 228.773C278.609 237.578 277.565 244.057 281.242 245.196C285.558 246.525 297.821 235.774 302.636 231.123C302.992 230.767 302.518 229.319 302.494 228.844C302.494 228.844 302.304 225.071 300.691 226.329C298.32 228.18 290.966 231.597 286.887 235.395C285.226 236.937 287.337 227.492 287.48 227.207C287.764 226.59 292.864 211.995 294.264 213.846C295.449 215.436 294.406 198.919 294.406 198.919Z" fill="url(#paint35_linear_91_273)"/>
<path fill-rule="evenodd" clip-rule="evenodd" d="M285.345 244.294C283.685 245.148 282.238 245.528 281.242 245.22C281.004 245.148 280.791 245.053 280.577 244.935C280.483 244.864 280.388 244.816 280.293 244.745C280.269 244.864 280.483 245.006 280.554 245.053C281.574 245.837 282.522 246.62 284.278 245.86C288.286 244.152 294.857 238.67 298.628 234.825C294.738 238.408 289.116 242.372 285.345 244.294Z" fill="#1D3D93"/>
<path fill-rule="evenodd" clip-rule="evenodd" d="M314.971 219.779H316.441L344.407 219.945C345.83 219.945 346.138 220.277 347.443 220.847L328.586 247.616L299.932 248.139C298.913 247.26 298.011 247.047 299.316 244.65L312.551 222.033C313.144 221.013 314.093 219.803 314.971 219.779Z" fill="url(#paint36_linear_91_273)"/>
<path fill-rule="evenodd" clip-rule="evenodd" d="M322.205 220.562L346.233 220.704C346.992 220.704 348.059 220.443 347.016 222.105L331.693 246.715C331.219 247.474 331.219 247.569 329.867 247.593L299.98 248.139L314.473 223.434C316.584 219.779 317.129 220.538 322.205 220.562Z" fill="url(#paint37_linear_91_273)"/>
<path fill-rule="evenodd" clip-rule="evenodd" d="M334.943 238.575C333.543 243.321 333.875 243.202 334.16 243.013C337.694 240.924 338.358 239.049 337.789 235.845C337.718 235.798 337.647 235.727 337.599 235.679C336.223 234.445 336.034 233.615 335.037 235.11C334.278 236.249 334.16 237.507 334.943 238.575Z" fill="url(#paint38_linear_91_273)"/>
<path fill-rule="evenodd" clip-rule="evenodd" d="M306.977 178.675C306.977 178.675 302.85 186.317 296.541 187.504C296.541 187.504 303.443 183.896 305.269 178.628C307.119 173.383 306.977 178.675 306.977 178.675Z" fill="#0B0952"/>
<path fill-rule="evenodd" clip-rule="evenodd" d="M305.483 176.682C305.483 176.682 302.471 184.727 297.845 185.913C293.22 187.1 291.228 185.866 291.228 185.866C291.228 185.866 294.762 183.042 295.497 178.129C295.497 178.129 303.206 172.837 305.483 176.682Z" fill="#0B0952"/>
<path fill-rule="evenodd" clip-rule="evenodd" d="M237.384 89.9655L273.343 104.703L263.476 117.328L237.384 89.9655Z" fill="url(#paint39_linear_91_273)"/>
<path fill-rule="evenodd" clip-rule="evenodd" d="M278.395 98.77L238.476 90.0367L288.192 93.6676L278.395 98.77Z" fill="url(#paint40_linear_91_273)"/>
<path fill-rule="evenodd" clip-rule="evenodd" d="M278.395 98.77L277.47 115.311L273.343 104.703L237.384 89.9655L238.475 90.0366L278.395 98.77Z" fill="#4F7EF1"/>
<path fill-rule="evenodd" clip-rule="evenodd" d="M277.47 115.311L268.955 110.304L273.343 104.703L277.47 115.311Z" fill="#9DBAFF"/>
<path fill-rule="evenodd" clip-rule="evenodd" d="M286.72 114.101C285.558 113.958 285.819 112.25 286.91 112.392L288.642 112.582C289.804 112.724 289.543 114.433 288.452 114.291L286.72 114.101ZM345.663 182.662C346.422 182.662 346.802 183.588 346.28 184.11C346.161 184.252 345.901 184.371 345.663 184.371H344.549C343.434 184.371 343.41 182.638 344.572 182.638L345.663 182.662ZM339.425 182.52C340.445 182.52 340.587 184.252 339.33 184.252L337.599 184.134C336.365 183.991 336.697 182.283 337.717 182.401L339.425 182.52ZM332.641 181.855C333.709 181.998 333.566 183.706 332.38 183.564L332.641 181.855ZM326.047 180.408C327.091 180.787 326.664 182.33 325.502 182.045C324.933 181.855 324.387 181.665 323.818 181.452C322.774 181.001 323.391 179.458 324.458 179.862C325.004 180.052 325.526 180.242 326.047 180.408ZM320.212 177.465C321.114 178.224 319.975 179.506 319.121 178.818C318.623 178.414 318.196 178.011 317.769 177.536C317.01 176.611 318.362 175.566 319.074 176.397C319.406 176.777 319.809 177.133 320.212 177.465ZM316.986 172.244C317.129 173.478 315.421 173.573 315.279 172.529C315.16 171.912 315.089 171.318 315.065 170.701C315.065 169.515 316.797 169.562 316.797 170.654C316.82 171.176 316.892 171.698 316.986 172.244ZM317.437 165.789C317.176 166.833 315.492 166.477 315.777 165.338C315.919 164.768 316.085 164.199 316.299 163.629C316.726 162.49 318.315 163.178 317.935 164.175C317.746 164.697 317.579 165.243 317.437 165.789ZM319.833 159.476C319.406 160.473 317.793 159.856 318.267 158.764C318.505 158.242 318.765 157.696 319.026 157.198C319.667 156.082 321.066 157.079 320.568 157.957C320.307 158.432 320.07 158.954 319.833 159.476ZM322.893 153.353C322.3 154.398 320.829 153.472 321.375 152.546L322.181 151.028C322.774 149.983 324.245 150.909 323.699 151.834C323.438 152.309 323.154 152.831 322.893 153.353ZM326.118 147.207C325.502 148.298 324.079 147.325 324.577 146.447L325.336 144.905C325.929 143.884 327.328 144.62 326.901 145.64L326.118 147.207ZM328.917 140.775C328.538 141.796 326.996 141.392 327.281 140.23C327.447 139.707 327.613 139.185 327.755 138.64C328.04 137.548 329.7 137.951 329.439 139.067C329.273 139.66 329.107 140.206 328.917 140.775ZM329.771 133.608C329.914 134.748 328.206 134.937 328.063 133.822C327.992 133.3 327.897 132.754 327.779 132.232C327.494 131.117 329.178 130.713 329.439 131.805C329.582 132.398 329.7 133.015 329.771 133.608ZM327.115 126.869C327.779 127.818 326.379 128.791 325.715 127.889C325.383 127.438 325.051 127.011 324.695 126.607C323.913 125.658 325.312 124.638 325.976 125.445C326.379 125.896 326.783 126.37 327.115 126.869ZM321.92 121.932C322.821 122.573 321.991 123.949 320.948 123.356C320.497 123.048 320.023 122.739 319.524 122.454C318.576 121.909 319.382 120.39 320.402 120.959C320.924 121.292 321.422 121.6 321.92 121.932ZM315.682 118.634C316.749 119.084 316.038 120.674 315.018 120.224C314.496 120.01 313.974 119.796 313.452 119.583C312.409 119.179 313.002 117.566 314.069 117.969C314.615 118.183 315.16 118.396 315.682 118.634ZM309.088 116.332C310.132 116.593 309.776 118.278 308.614 117.993L306.977 117.542C305.909 117.281 306.289 115.596 307.404 115.881L309.088 116.332ZM302.328 114.67C303.514 114.979 302.992 116.616 301.972 116.355L300.288 116.023C299.197 115.738 299.458 114.172 300.62 114.338L302.328 114.67ZM295.473 113.46C296.54 113.602 296.398 115.311 295.212 115.169L293.504 114.931C292.413 114.789 292.579 113.08 293.741 113.223L295.473 113.46Z" fill="url(#paint41_linear_91_273)"/>
<path fill-rule="evenodd" clip-rule="evenodd" d="M561.321 189.9L529.94 212.778L542.512 222.674L561.321 189.9Z" fill="url(#paint42_linear_91_273)"/>
<path fill-rule="evenodd" clip-rule="evenodd" d="M523.584 208.222L560.278 190.233L512.886 205.611L523.584 208.222Z" fill="url(#paint43_linear_91_273)"/>
<path fill-rule="evenodd" clip-rule="evenodd" d="M523.583 208.221L528.446 224.074L529.94 212.778L561.321 189.9L560.278 190.233L523.583 208.221Z" fill="url(#paint44_linear_91_273)" style="mix-blend-mode:multiply"/>
<path fill-rule="evenodd" clip-rule="evenodd" d="M528.446 224.074L535.515 217.168L529.941 212.778L528.446 224.074Z" fill="#B276FF"/>
<path fill-rule="evenodd" clip-rule="evenodd" d="M519.172 225.095C520.263 224.668 519.599 223.078 518.579 223.481L516.942 224.074C515.851 224.502 516.491 226.092 517.535 225.688L519.172 225.095ZM478.256 305.736C477.52 305.926 477.378 306.922 477.995 307.302C478.161 307.421 478.422 307.468 478.659 307.421L479.75 307.16C480.841 306.899 480.438 305.214 479.323 305.499L478.256 305.736ZM484.28 304.098C483.284 304.336 483.569 306.044 484.778 305.76L486.439 305.238C487.601 304.787 486.866 303.22 485.893 303.6L484.28 304.098ZM490.708 301.868C489.712 302.247 490.258 303.885 491.372 303.458L490.708 301.868ZM496.757 298.877C495.855 299.494 496.614 300.895 497.682 300.349C498.18 300.04 498.678 299.708 499.176 299.376C500.101 298.688 499.105 297.335 498.18 297.976C497.706 298.284 497.231 298.593 496.757 298.877ZM501.738 294.629C501.05 295.579 502.449 296.575 503.114 295.674C503.493 295.175 503.825 294.653 504.134 294.107C504.655 293.039 503.066 292.351 502.615 293.3C502.355 293.775 502.046 294.202 501.738 294.629ZM503.635 288.768C503.778 290.002 505.486 289.669 505.367 288.649C505.32 288.032 505.248 287.439 505.13 286.822C504.845 285.659 503.185 286.133 503.446 287.201C503.541 287.723 503.588 288.245 503.635 288.768ZM501.643 282.621C502.141 283.57 503.707 282.835 503.137 281.79C502.853 281.268 502.544 280.746 502.236 280.272C501.548 279.275 500.172 280.319 500.789 281.197C501.097 281.648 501.382 282.146 501.643 282.621ZM497.824 277.044C498.465 277.898 499.888 276.925 499.176 275.976C498.82 275.525 498.441 275.074 498.061 274.623C497.184 273.698 496.045 275.003 496.733 275.739C497.113 276.166 497.468 276.617 497.824 277.044ZM493.389 271.847C494.219 272.725 495.405 271.467 494.669 270.708L493.531 269.426C492.701 268.548 491.515 269.806 492.25 270.565C492.63 270.969 493.009 271.42 493.389 271.847ZM488.811 266.649C489.688 267.551 490.827 266.27 490.115 265.534L489.024 264.229C488.218 263.374 487.032 264.442 487.696 265.32L488.811 266.649ZM484.541 261.072C485.158 261.974 486.557 261.215 486.012 260.171C485.704 259.696 485.443 259.221 485.182 258.723C484.66 257.726 483.118 258.509 483.664 259.53C483.925 260.052 484.233 260.55 484.541 261.072ZM482.003 254.309C482.146 255.448 483.853 255.234 483.711 254.119C483.64 253.597 483.616 253.051 483.616 252.505C483.616 251.342 481.885 251.366 481.885 252.482C481.908 253.099 481.932 253.716 482.003 254.309ZM482.976 247.118C482.549 248.186 484.162 248.803 484.565 247.783C484.778 247.284 484.992 246.786 485.253 246.311C485.798 245.22 484.185 244.555 483.735 245.481C483.45 246.003 483.189 246.572 482.976 247.118ZM486.866 241.114C486.154 241.945 487.269 243.107 488.147 242.277C488.526 241.85 488.906 241.47 489.309 241.066C490.115 240.307 488.953 239.026 488.099 239.832C487.672 240.236 487.245 240.663 486.866 241.114ZM492.108 236.415C491.183 237.103 492.25 238.48 493.128 237.791C493.578 237.459 494.053 237.127 494.503 236.795C495.429 236.154 494.48 234.73 493.531 235.371C493.057 235.727 492.582 236.059 492.108 236.415ZM497.99 232.594C497.041 233.093 497.777 234.659 498.844 234.089L500.338 233.259C501.311 232.737 500.552 231.194 499.508 231.74L497.99 232.594ZM504.157 229.39C503.066 229.96 503.968 231.431 504.893 230.957L506.434 230.245C507.431 229.723 506.814 228.251 505.723 228.678L504.157 229.39ZM510.514 226.566C509.494 226.946 510.063 228.583 511.178 228.156L512.767 227.516C513.787 227.136 513.218 225.498 512.127 225.926L510.514 226.566Z" fill="url(#paint45_linear_91_273)"/>
<path fill-rule="evenodd" clip-rule="evenodd" d="M261.199 132.137C258.661 139.28 257.309 139.992 250.217 138.64C257.001 141.108 257.807 142.413 256.336 149.865C258.874 142.721 260.226 142.01 267.319 143.362C260.511 140.87 259.728 139.565 261.199 132.137ZM365.849 118.135C363.311 125.279 361.959 125.99 354.867 124.638C361.651 127.106 362.457 128.411 360.987 135.839C363.525 128.696 364.877 127.984 371.969 129.337C365.185 126.869 364.379 125.563 365.849 118.135ZM503.612 239.192C501.074 246.335 499.722 247.047 492.63 245.694C499.414 248.162 500.22 249.468 498.75 256.919C501.288 249.776 502.64 249.064 509.732 250.417C502.948 247.925 502.142 246.62 503.612 239.192Z" fill="white" fill-opacity="0.27"/>
<path fill-rule="evenodd" clip-rule="evenodd" d="M270.662 188.002C270.662 181.452 270.662 174.878 270.662 168.328C270.662 164.697 267.721 161.754 264.116 161.754C251.616 161.754 239.092 161.754 226.592 161.754C222.962 161.754 220.045 164.697 220.045 168.328C220.045 174.878 220.045 181.452 220.045 188.002C220.045 191.633 222.986 194.576 226.592 194.576C234.111 194.576 241.63 194.576 249.149 194.576L276.901 207.96L260.558 194.576C261.744 194.576 262.93 194.576 264.139 194.576C267.721 194.552 270.662 191.633 270.662 188.002Z" fill="url(#paint46_linear_91_273)"/>
<path fill-rule="evenodd" clip-rule="evenodd" d="M228.489 174.854C230.292 174.854 231.715 176.302 231.692 178.106C231.668 179.909 230.174 181.357 228.371 181.357C226.568 181.357 225.145 179.909 225.169 178.106C225.216 176.302 226.711 174.854 228.489 174.854ZM260.701 174.854C262.503 174.854 263.926 176.302 263.903 178.106C263.879 179.909 262.385 181.357 260.582 181.357C258.779 181.357 257.356 179.909 257.38 178.106C257.427 176.302 258.922 174.854 260.701 174.854ZM244.595 174.854C246.398 174.854 247.821 176.302 247.797 178.106C247.773 179.909 246.279 181.357 244.5 181.357C242.697 181.357 241.274 179.909 241.298 178.106C241.322 176.302 242.816 174.854 244.595 174.854Z" fill="white"/>
<defs>
<linearGradient id="paint0_linear_91_273" x1="370" y1="-43.12" x2="370" y2="483.12" gradientUnits="userSpaceOnUse">
<stop offset="0.0239582" stop-color="#A980FF"/>
<stop offset="1" stop-color="#7500BC"/>
</linearGradient>
<linearGradient id="paint1_linear_91_273" x1="185.961" y1="350.381" x2="254.077" y2="324.971" gradientUnits="userSpaceOnUse">
<stop offset="0.184024" stop-color="#006D5E"/>
<stop offset="1" stop-color="#10F1D3"/>
</linearGradient>
<linearGradient id="paint2_linear_91_273" x1="215.044" y1="298.247" x2="177.507" y2="351.879" gradientUnits="userSpaceOnUse">
<stop stop-color="#FFC5E3"/>
<stop offset="1" stop-color="#CD3C83"/>
</linearGradient>
<linearGradient id="paint3_linear_91_273" x1="483.811" y1="349.731" x2="558.218" y2="322.013" gradientUnits="userSpaceOnUse">
<stop offset="0.184024" stop-color="#006D5E"/>
<stop offset="1" stop-color="#10F1D3"/>
</linearGradient>
<linearGradient id="paint4_linear_91_273" x1="566.138" y1="292.659" x2="525.058" y2="351.195" gradientUnits="userSpaceOnUse">
<stop stop-color="#FFC5E3"/>
<stop offset="1" stop-color="#CD3C83"/>
</linearGradient>
<linearGradient id="paint5_linear_91_273" x1="409" y1="57" x2="402.104" y2="352.037" gradientUnits="userSpaceOnUse">
<stop stop-color="#E4E7FC"/>
<stop offset="1" stop-color="#90ACF6"/>
</linearGradient>
<linearGradient id="paint6_linear_91_273" x1="420" y1="114" x2="398.786" y2="345.961" gradientUnits="userSpaceOnUse">
<stop stop-color="#F0F1FC"/>
<stop offset="1" stop-color="#B9D9FF"/>
</linearGradient>
<linearGradient id="paint7_linear_91_273" x1="413.928" y1="153.828" x2="413.823" y2="164.139" gradientUnits="userSpaceOnUse">
<stop stop-color="#BED8FF"/>
<stop offset="1" stop-color="#F5F9FF"/>
</linearGradient>
<linearGradient id="paint8_linear_91_273" x1="384.303" y1="322.396" x2="384" y2="340" gradientUnits="userSpaceOnUse">
<stop stop-color="#F5F9FF"/>
<stop offset="1" stop-color="#BED8FF"/>
</linearGradient>
<linearGradient id="paint9_linear_91_273" x1="395.503" y1="209.543" x2="417.827" y2="208.578" gradientUnits="userSpaceOnUse">
<stop stop-color="#232D45"/>
<stop offset="1" stop-color="#D5DCED"/>
</linearGradient>
<linearGradient id="paint10_linear_91_273" x1="389" y1="203" x2="427" y2="200.5" gradientUnits="userSpaceOnUse">
<stop stop-color="#232D45"/>
<stop offset="1" stop-color="#D5DCED"/>
</linearGradient>
<linearGradient id="paint11_linear_91_273" x1="397.123" y1="201.956" x2="397.123" y2="213.941" gradientUnits="userSpaceOnUse">
<stop stop-color="#4B7EF6"/>
<stop offset="1" stop-color="#CDDCFF"/>
</linearGradient>
<linearGradient id="paint12_linear_91_273" x1="389.035" y1="213.941" x2="389.035" y2="216.195" gradientUnits="userSpaceOnUse">
<stop stop-color="#4B7EF6"/>
<stop offset="1" stop-color="#CDDCFF"/>
</linearGradient>
<linearGradient id="paint13_linear_91_273" x1="388.441" y1="215.056" x2="388.441" y2="219.874" gradientUnits="userSpaceOnUse">
<stop stop-color="#4B7EF6"/>
<stop offset="1" stop-color="#CDDCFF"/>
</linearGradient>
<linearGradient id="paint14_linear_91_273" x1="388.525" y1="214.914" x2="388.525" y2="220.277" gradientUnits="userSpaceOnUse">
<stop stop-color="#4B7EF6"/>
<stop offset="1" stop-color="#CDDCFF"/>
</linearGradient>
<linearGradient id="paint15_linear_91_273" x1="380.5" y1="255" x2="419" y2="245" gradientUnits="userSpaceOnUse">
<stop stop-color="#3370FC"/>
<stop offset="1" stop-color="#EAF0FF"/>
</linearGradient>
<linearGradient id="paint16_linear_91_273" x1="371" y1="300" x2="415" y2="293" gradientUnits="userSpaceOnUse">
<stop stop-color="#F03D5A"/>
<stop offset="1" stop-color="#FFC2CC"/>
</linearGradient>
<linearGradient id="paint17_linear_91_273" x1="423.061" y1="172.386" x2="423.061" y2="184.062" gradientUnits="userSpaceOnUse">
<stop stop-color="#D0D5FF"/>
<stop offset="1" stop-color="#8BA4FF"/>
</linearGradient>
<linearGradient id="paint18_linear_91_273" x1="298.948" y1="190.897" x2="299" y2="201.5" gradientUnits="userSpaceOnUse">
<stop stop-color="white"/>
<stop offset="1" stop-color="#FFBFBF"/>
</linearGradient>
<linearGradient id="paint19_linear_91_273" x1="301.781" y1="177.924" x2="301.781" y2="195.772" gradientUnits="userSpaceOnUse">
<stop stop-color="white"/>
<stop offset="1" stop-color="#FFBFBF"/>
</linearGradient>
<linearGradient id="paint20_linear_91_273" x1="292.84" y1="331.77" x2="292.84" y2="343.826" gradientUnits="userSpaceOnUse">
<stop stop-color="white"/>
<stop offset="1" stop-color="#FFBFBF"/>
</linearGradient>
<linearGradient id="paint21_linear_91_273" x1="330.875" y1="330.702" x2="330.875" y2="343.826" gradientUnits="userSpaceOnUse">
<stop stop-color="white"/>
<stop offset="1" stop-color="#FFBFBF"/>
</linearGradient>
<linearGradient id="paint22_linear_91_273" x1="328" y1="289.5" x2="303" y2="308" gradientUnits="userSpaceOnUse">
<stop stop-color="#022050"/>
<stop offset="1" stop-color="#485A76"/>
</linearGradient>
<linearGradient id="paint23_linear_91_273" x1="298.488" y1="204.215" x2="298.527" y2="198.491" gradientUnits="userSpaceOnUse">
<stop stop-color="#AEC6FF"/>
<stop offset="1" stop-color="#0D3593"/>
</linearGradient>
<linearGradient id="paint24_linear_91_273" x1="294.353" y1="343.137" x2="294.353" y2="351.33" gradientUnits="userSpaceOnUse">
<stop stop-color="#FFBFBF"/>
<stop offset="1" stop-color="white"/>
</linearGradient>
<linearGradient id="paint25_linear_91_273" x1="334" y1="338" x2="338.168" y2="351.016" gradientUnits="userSpaceOnUse">
<stop stop-color="#FFBFBF"/>
<stop offset="1" stop-color="white"/>
</linearGradient>
<linearGradient id="paint26_linear_91_273" x1="313" y1="281" x2="332" y2="338" gradientUnits="userSpaceOnUse">
<stop stop-color="#0C2E5C"/>
<stop offset="1" stop-color="#3A506E"/>
</linearGradient>
<linearGradient id="paint27_linear_91_273" x1="276" y1="278.5" x2="310" y2="312" gradientUnits="userSpaceOnUse">
<stop stop-color="#022050"/>
<stop offset="1" stop-color="#485A76"/>
</linearGradient>
<linearGradient id="paint28_linear_91_273" x1="284.014" y1="278.749" x2="309.316" y2="303.419" gradientUnits="userSpaceOnUse">
<stop stop-color="#0C2E5C"/>
<stop offset="1" stop-color="#3A506E"/>
</linearGradient>
<linearGradient id="paint29_linear_91_273" x1="287.5" y1="328" x2="296" y2="200" gradientUnits="userSpaceOnUse">
<stop stop-color="#AEC6FF"/>
<stop offset="1" stop-color="#0D3593"/>
</linearGradient>
<linearGradient id="paint30_linear_91_273" x1="311.795" y1="323.607" x2="321.765" y2="199.843" gradientUnits="userSpaceOnUse">
<stop stop-color="#AEC6FF"/>
<stop offset="1" stop-color="#0D3593"/>
</linearGradient>
<linearGradient id="paint31_linear_91_273" x1="301.329" y1="207.024" x2="301.512" y2="201.382" gradientUnits="userSpaceOnUse">
<stop stop-color="#AEC6FF"/>
<stop offset="1" stop-color="#0D3593"/>
</linearGradient>
<linearGradient id="paint32_linear_91_273" x1="301.962" y1="207.437" x2="302.072" y2="203.982" gradientUnits="userSpaceOnUse">
<stop stop-color="#AEC6FF"/>
<stop offset="1" stop-color="#0D3593"/>
</linearGradient>
<linearGradient id="paint33_linear_91_273" x1="302.304" y1="208.634" x2="302.401" y2="205.622" gradientUnits="userSpaceOnUse">
<stop stop-color="#AEC6FF"/>
<stop offset="1" stop-color="#0D3593"/>
</linearGradient>
<linearGradient id="paint34_linear_91_273" x1="319.5" y1="206.5" x2="296" y2="234" gradientUnits="userSpaceOnUse">
<stop stop-color="white"/>
<stop offset="1" stop-color="#FFBFBF"/>
</linearGradient>
<linearGradient id="paint35_linear_91_273" x1="288.47" y1="283.008" x2="292.038" y2="199.408" gradientUnits="userSpaceOnUse">
<stop stop-color="#AEC6FF"/>
<stop offset="1" stop-color="#0D3593"/>
</linearGradient>
<linearGradient id="paint36_linear_91_273" x1="315.641" y1="220.311" x2="323.975" y2="233.516" gradientUnits="userSpaceOnUse">
<stop stop-color="#DC8036"/>
<stop offset="1" stop-color="#EFD7C3"/>
</linearGradient>
<linearGradient id="paint37_linear_91_273" x1="316.5" y1="221" x2="335.5" y2="250.5" gradientUnits="userSpaceOnUse">
<stop stop-color="#F19A53"/>
<stop offset="1" stop-color="#FFC698"/>
</linearGradient>
<linearGradient id="paint38_linear_91_273" x1="334.5" y1="228.5" x2="335.939" y2="243.08" gradientUnits="userSpaceOnUse">
<stop stop-color="white"/>
<stop offset="1" stop-color="#FFBFBF"/>
</linearGradient>
<linearGradient id="paint39_linear_91_273" x1="255.364" y1="89.9655" x2="255.364" y2="117.328" gradientUnits="userSpaceOnUse">
<stop stop-color="#BED2FF"/>
<stop offset="1" stop-color="#6795FF"/>
</linearGradient>
<linearGradient id="paint40_linear_91_273" x1="263.334" y1="90.0367" x2="263.334" y2="98.77" gradientUnits="userSpaceOnUse">
<stop stop-color="#BED2FF"/>
<stop offset="1" stop-color="#6795FF"/>
</linearGradient>
<linearGradient id="paint41_linear_91_273" x1="316.242" y1="112.384" x2="316.242" y2="184.371" gradientUnits="userSpaceOnUse">
<stop stop-color="#BED2FF"/>
<stop offset="1" stop-color="#6795FF"/>
</linearGradient>
<linearGradient id="paint42_linear_91_273" x1="545.632" y1="185.8" x2="545.626" y2="238.82" gradientUnits="userSpaceOnUse">
<stop stop-color="#FD90DA"/>
<stop offset="1" stop-color="#8E6DFD"/>
</linearGradient>
<linearGradient id="paint43_linear_91_273" x1="536.583" y1="187.982" x2="536.582" y2="217.084" gradientUnits="userSpaceOnUse">
<stop stop-color="#FD90DA"/>
<stop offset="1" stop-color="#8E6DFD"/>
</linearGradient>
<linearGradient id="paint44_linear_91_273" x1="542.454" y1="185.623" x2="542.454" y2="240.915" gradientUnits="userSpaceOnUse">
<stop stop-color="#DA90FD"/>
<stop offset="1" stop-color="#8E6DFD"/>
</linearGradient>
<linearGradient id="paint45_linear_91_273" x1="498.671" y1="212.903" x2="498.645" y2="348.833" gradientUnits="userSpaceOnUse">
<stop stop-color="#FD90DA"/>
<stop offset="1" stop-color="#8E6DFD"/>
</linearGradient>
<linearGradient id="paint46_linear_91_273" x1="273.758" y1="161.68" x2="210.939" y2="218.886" gradientUnits="userSpaceOnUse">
<stop stop-color="#1C8EF4"/>
<stop offset="1" stop-color="#00CFDD"/>
</linearGradient>
</defs>
</svg>
