<svg width="740" height="440" viewBox="0 0 740 440" fill="none" xmlns="http://www.w3.org/2000/svg">
<rect width="740" height="440" fill="white"/>
<rect width="740" height="440" fill="url(#paint0_linear_84_2464)"/>
<path opacity="0.16" d="M401.289 367.535C350.007 370.176 271.291 347.969 248.01 278.195C230.274 225.041 249.846 159.673 288.38 134.077C320.427 112.79 338.299 137.141 396.873 117.774C452.989 99.2206 465.229 67.4004 500.951 72.7781C537.007 78.2061 558.305 115.709 560.875 120.383C594.368 181.291 559.089 273.209 504.105 322.539C492.557 332.9 456.041 364.716 401.289 367.535Z" fill="white"/>
<path opacity="0.24" d="M509.288 253.495C510.577 251.981 513.128 252.19 514.623 253.494C516.118 254.797 516.748 256.845 517.026 258.819C517.475 262.013 517.205 265.014 516.785 268.138C518.367 265.606 520.035 263.127 521.785 260.708C522.939 259.11 524.129 257.536 525.353 255.988C521.979 253.056 519.5 249.095 518.349 244.767C517.913 243.126 517.726 241.19 518.828 239.902C520.116 238.397 522.667 238.606 524.162 239.903C525.658 241.201 526.29 243.236 526.568 245.2C527.036 248.497 526.729 251.589 526.284 254.823C530.11 250.095 534.269 245.635 538.783 241.571C535.988 238.164 534.21 233.922 533.765 229.53C533.593 227.841 533.714 225.9 535.006 224.803C536.516 223.522 539.001 224.135 540.273 225.654C541.545 227.172 541.848 229.283 541.812 231.267C541.755 234.48 541.015 237.389 540.11 240.396C544.935 236.187 550.324 232.264 556.372 230.123C556.498 230.078 556.626 230.039 556.752 229.996C554.418 226.197 553.237 221.692 553.422 217.233C553.493 215.536 553.889 213.632 555.324 212.732C557 211.68 559.373 212.643 560.416 214.328C561.458 216.013 561.457 218.145 561.14 220.103C560.582 223.553 559.275 226.531 557.806 229.643C564.858 227.36 572.36 226.373 579.324 223.85C576.91 220.012 575.683 215.43 575.872 210.894C575.942 209.198 576.338 207.293 577.773 206.393C579.449 205.341 581.822 206.304 582.864 207.989C583.906 209.674 583.906 211.806 583.588 213.764C583.015 217.307 581.653 220.352 580.135 223.555C581.864 222.894 583.557 222.131 585.197 221.218C588.519 219.37 591.414 216.826 593.838 213.85C590.399 210.742 587.949 206.545 586.944 202.012C586.577 200.355 586.471 198.412 587.627 197.171C588.976 195.722 591.516 196.039 592.956 197.398C594.396 198.757 594.943 200.817 595.139 202.791C595.498 206.411 594.945 209.745 594.289 213.285C598.1 208.402 600.671 202.438 601.79 196.482C599.035 193.302 597.183 189.338 596.533 185.173C596.272 183.496 596.289 181.55 597.521 180.386C598.96 179.026 601.475 179.504 602.826 180.953C604.176 182.401 604.591 184.492 604.661 186.475C604.774 189.637 604.211 192.54 603.483 195.54C603.518 195.649 603.529 195.772 603.507 195.911C602.668 201.002 600.787 205.897 598.141 210.314C597.555 211.292 596.934 212.248 596.278 213.179C599.72 210.972 603.767 209.715 607.853 209.618C609.544 209.578 611.465 209.85 612.454 211.227C613.61 212.837 612.807 215.276 611.199 216.429C609.591 217.584 607.471 217.722 605.503 217.533C601.832 217.179 598.632 215.953 595.234 214.593C593.77 216.49 592.132 218.248 590.268 219.746C587.446 222.015 584.307 223.645 581.007 224.919C585.194 224.445 589.514 225.171 593.309 227.011C594.832 227.75 596.417 228.871 596.671 230.55C596.967 232.511 595.143 234.313 593.188 234.604C591.232 234.895 589.282 234.046 587.618 232.977C584.428 230.927 582.098 228.285 579.621 225.432C574.118 227.374 568.232 228.451 562.646 229.906C560.887 230.364 559.155 230.868 557.458 231.464C561.973 230.72 566.713 231.396 570.836 233.389C572.36 234.126 573.946 235.245 574.202 236.923C574.5 238.884 572.68 240.689 570.725 240.982C568.77 241.276 566.818 240.43 565.152 239.362C561.887 237.27 559.521 234.558 556.975 231.633C555.174 232.287 553.416 233.056 551.719 234.003C548.614 235.738 545.709 237.824 542.956 240.072C542.224 240.669 541.503 241.281 540.789 241.902C544.801 240.84 549.109 240.907 553.08 242.121C554.699 242.615 556.437 243.478 556.945 245.097C557.538 246.99 556.014 249.052 554.126 249.642C552.239 250.231 550.181 249.695 548.372 248.894C545.029 247.417 542.393 245.272 539.622 242.936C535.212 246.907 531.168 251.304 527.44 255.925C531.228 253.818 535.629 252.829 539.95 253.142C541.638 253.264 543.523 253.719 544.376 255.185C545.373 256.897 544.342 259.248 542.631 260.243C540.921 261.238 538.797 261.172 536.856 260.795C533.173 260.078 530.061 258.51 526.744 256.796C526.255 257.412 525.77 258.032 525.291 258.656C522.666 262.078 520.185 265.633 517.909 269.314C521.629 267.319 525.915 266.39 530.124 266.695C531.811 266.817 533.696 267.272 534.55 268.738C535.547 270.45 534.516 272.801 532.806 273.796C531.095 274.791 528.971 274.725 527.03 274.348C523.448 273.651 520.407 272.149 517.192 270.491C514.648 274.718 512.38 279.11 510.483 283.66C510.088 284.608 508.65 283.928 509.044 282.982C510.96 278.387 513.26 273.957 515.831 269.69C512.444 266.741 509.957 262.75 508.805 258.386C508.371 256.739 508.185 254.792 509.288 253.495Z" fill="white"/>
<path d="M251.712 238.012C245.123 231.773 238.42 226.675 233.627 218.728C231.717 215.521 230.119 212.103 227.81 209.179C225.501 206.254 222.276 203.79 218.561 203.422C214.386 202.999 210.26 205.255 206.1 204.703C203.407 204.35 201.026 202.863 198.533 201.789C193.06 199.432 186.974 199.038 181.024 198.675C171.807 198.118 162.022 197.677 153.943 202.201C149.348 204.779 145.726 208.801 142.45 212.919C140.384 215.545 138.375 218.356 137.861 221.699C137.521 223.604 137.857 225.569 138.81 227.253C141.242 231.355 146.526 231.048 150.234 228.968C153.346 227.208 155.743 224.412 158.478 222.143C161.212 219.875 164.712 217.974 168.258 218.569C173.311 219.433 176.797 225.082 181.927 225.158C184.781 225.201 187.579 223.434 190.356 224.09C194.636 225.106 195.602 230.759 195.223 235.119C194.844 239.479 194.376 244.769 197.888 247.412C203.995 252.018 213.337 242.587 219.954 246.462C223.788 248.714 224.618 254.545 228.728 256.261C234.414 258.633 239.999 251.058 246.118 251.783C248.628 252.081 250.724 253.74 252.825 255.144C254.926 256.548 257.455 257.796 259.9 257.142C260.096 257.091 260.28 257.043 260.45 256.959C260.557 256.918 260.653 256.855 260.731 256.772C260.81 256.69 260.869 256.591 260.905 256.483C260.94 256.375 260.951 256.261 260.937 256.148C260.923 256.035 260.883 255.927 260.822 255.831C260.548 255.412 260.26 255.009 259.957 254.615C258.214 252.424 256.118 250.539 253.754 249.039C251.398 247.55 248.901 246.298 246.298 245.301C243.708 244.265 241.053 243.39 238.421 242.467C237.1 242.003 235.775 241.54 234.475 241.021C233.133 240.517 231.869 239.824 230.722 238.963C229.568 238.062 228.674 236.869 228.133 235.508C227.661 234.174 227.279 232.809 226.99 231.423C226.816 230.755 226.642 230.086 226.404 229.443C226.174 228.799 225.903 228.17 225.593 227.561C224.957 226.347 224.17 225.219 223.251 224.202C221.416 222.141 219.233 220.419 216.801 219.115C215.579 218.494 214.282 218.035 212.942 217.748C211.589 217.473 210.216 217.3 208.836 217.232C207.449 217.146 206.04 217.066 204.638 216.945C203.228 216.82 201.829 216.598 200.449 216.28C197.694 215.607 195.05 214.539 192.601 213.109C190.164 211.683 187.86 210.042 185.716 208.205C185.2 207.749 184.656 207.326 184.088 206.938C183.516 206.567 182.909 206.256 182.275 206.008C180.992 205.519 179.634 205.261 178.261 205.244C175.499 205.195 172.757 205.89 170.144 206.824C164.886 208.709 160.035 211.573 155.122 214.269C157.532 212.844 159.933 211.403 162.396 210.062C164.846 208.694 167.386 207.494 169.998 206.469C172.628 205.495 175.401 204.747 178.258 204.768C179.694 204.762 181.12 205.014 182.467 205.511C183.141 205.764 183.787 206.085 184.394 206.47C184.991 206.859 185.559 207.29 186.095 207.759C188.235 209.534 190.517 211.131 192.919 212.531C195.317 213.921 197.904 214.956 200.599 215.603C201.95 215.909 203.32 216.12 204.7 216.237C206.072 216.366 207.471 216.409 208.876 216.49C210.292 216.558 211.702 216.732 213.094 217.008C214.496 217.306 215.854 217.782 217.135 218.425C218.404 219.078 219.599 219.865 220.7 220.774C221.799 221.673 222.83 222.652 223.786 223.702C225.238 225.291 226.351 227.159 227.057 229.192C227.295 229.867 227.483 230.554 227.657 231.241C227.934 232.597 228.301 233.932 228.754 235.24C229.243 236.497 230.064 237.599 231.128 238.429C232.22 239.255 233.424 239.921 234.704 240.409C235.998 240.924 237.307 241.41 238.622 241.884C241.249 242.839 243.9 243.751 246.496 244.826C249.112 245.857 251.617 247.149 253.974 248.682C256.32 250.263 258.384 252.226 260.08 254.489C260.336 254.837 260.586 255.196 260.806 255.563C260.875 255.68 260.974 255.776 261.093 255.842C261.213 255.907 261.347 255.939 261.483 255.934C261.619 255.93 261.751 255.888 261.865 255.815C261.979 255.741 262.072 255.639 262.133 255.517C264.366 251.116 254.281 240.441 251.712 238.012Z" fill="white" fill-opacity="0.36"/>
<path d="M251.486 261.105C248.078 257.988 246.458 253.406 244.78 249.086C243.102 244.766 241.043 240.276 237.165 237.749C232.564 234.75 226.304 235.133 221.907 231.857C218.478 229.301 221.739 218.951 219.523 215.29C214.448 206.884 201.034 207.415 193.244 201.434C187.326 196.889 181.384 191.625 178.045 184.82C176.313 181.292 175.909 179.227 173.094 176.555C169.744 173.369 166.481 170.643 164.331 166.421C161.836 161.527 161.26 155.393 163.93 150.6C168.148 142.979 179.089 141.336 187.007 144.954C194.924 148.572 200.43 155.972 205.033 163.325C209.635 170.678 213.978 178.553 220.742 184.045C225.967 188.292 232.326 190.844 238.241 194.08C244.156 197.315 249.936 201.558 252.61 207.736C256.805 217.437 252.332 229.352 256.909 238.88C258.802 242.821 262.082 245.945 264.211 249.742C266.214 253.317 266.971 258.179 264.538 261.343C263.058 259.013 261.579 256.683 260.1 254.353L250.652 239.634C247.518 234.719 244.308 229.856 241.137 224.965C237.966 220.073 234.836 215.146 231.376 210.419C227.915 205.693 223.991 201.254 219.463 197.507C217.219 195.611 214.881 193.845 212.502 192.153C210.124 190.46 207.698 188.826 205.281 187.201C200.447 183.951 195.627 180.671 191.276 176.825C189.086 174.918 187.061 172.83 185.222 170.582C183.398 168.312 181.83 165.847 180.545 163.234C181.726 165.909 183.216 168.437 184.985 170.765C186.777 173.082 188.759 175.245 190.911 177.232C195.226 181.198 200.019 184.579 204.795 187.916C209.571 191.252 214.414 194.511 218.799 198.292C223.241 202.01 227.037 206.417 230.466 211.091C233.895 215.766 237.057 220.667 240.28 225.528C243.503 230.389 246.676 235.275 249.926 240.112L259.643 254.656C261.212 256.966 262.776 259.28 264.332 261.597C264.231 261.716 264.128 261.831 264.023 261.942C260.767 265.259 254.895 264.237 251.486 261.105Z" fill="url(#paint1_linear_84_2464)"/>
<path d="M196.466 220.868C198.767 216.668 204.647 215.674 209.153 217.25C213.66 218.826 217.259 222.258 220.966 225.316C224.673 228.375 228.943 231.246 233.735 231.27C236.831 231.289 239.911 230.088 242.963 230.555C246.457 231.075 249.294 233.648 251.551 236.345C256.02 241.7 265.357 256.774 259.501 263.528C259.061 262.357 258.522 261.226 257.891 260.146C257.151 258.914 256.306 257.748 255.367 256.66C254.419 255.58 253.394 254.571 252.299 253.641C251.205 252.715 250.055 251.856 248.857 251.068C247.657 250.287 246.419 249.568 245.146 248.911C243.854 248.267 242.578 247.658 241.295 247.033C238.735 245.795 236.143 244.579 233.536 243.413C230.93 242.246 228.301 241.13 225.633 240.101C224.297 239.601 222.974 239.078 221.679 238.479C220.385 237.879 219.109 237.222 217.89 236.521C216.67 235.821 215.445 235.051 214.306 234.213C213.711 233.812 213.144 233.349 212.578 232.947C212.013 232.546 211.451 232.065 210.927 231.594C209.84 230.669 208.808 229.681 207.837 228.635C206.871 227.584 205.982 226.464 205.178 225.284C205.975 226.468 206.855 227.594 207.812 228.653C208.779 229.704 209.807 230.699 210.889 231.633C211.42 232.11 211.982 232.532 212.544 232.994C213.105 233.455 213.679 233.872 214.262 234.27C215.42 235.107 216.632 235.86 217.855 236.597C219.079 237.334 220.354 237.982 221.645 238.593C222.936 239.204 224.27 239.73 225.597 240.241C228.254 241.28 230.88 242.396 233.475 243.589C236.064 244.768 238.634 246.026 241.192 247.26C242.475 247.884 243.754 248.501 245.045 249.141C246.307 249.799 247.534 250.521 248.721 251.306C249.904 252.093 251.039 252.95 252.121 253.871C253.194 254.801 254.2 255.804 255.132 256.875C256.052 257.953 256.879 259.107 257.604 260.325C258.252 261.45 258.801 262.63 259.244 263.851C258.567 264.542 257.773 265.107 256.898 265.519C247.551 270.005 234.273 266.137 227.433 258.99C224.13 255.534 221.777 251.245 218.374 247.878C212.17 241.751 202.819 239.05 197.891 231.856C195.677 228.639 194.609 224.282 196.466 220.868Z" fill="url(#paint2_linear_84_2464)"/>
<path d="M541.591 147.826C543.45 147.826 544.956 146.319 544.956 144.461C544.956 142.602 543.45 141.095 541.591 141.095C539.733 141.095 538.227 142.602 538.227 144.461C538.227 146.319 539.733 147.826 541.591 147.826Z" fill="#D05EE3"/>
<path d="M388.091 319.988C389.949 319.988 391.456 318.481 391.456 316.623C391.456 314.764 389.949 313.258 388.091 313.258C386.233 313.258 384.726 314.764 384.726 316.623C384.726 318.481 386.233 319.988 388.091 319.988Z" fill="#9429D8"/>
<path d="M525.586 279.16H252.813V97.3762C252.813 93.0037 256.358 89.4592 260.73 89.4592H517.669C522.041 89.4592 525.586 93.0037 525.586 97.3762L525.586 279.16Z" fill="url(#paint3_linear_84_2464)"/>
<path d="M261.493 279.16V98.9299C261.493 98.4927 261.848 98.1382 262.285 98.1382H516.116C516.553 98.1382 516.907 98.4927 516.907 98.9299V279.16H261.493Z" fill="white"/>
<path d="M521.151 304.578H257.251C250.692 304.578 245.375 299.261 245.375 292.702V279.16H533.026V292.702C533.026 299.261 527.709 304.578 521.151 304.578Z" fill="url(#paint4_linear_84_2464)"/>
<path d="M379.565 126.327L361.401 131.194C359.748 131.637 358.048 130.655 357.605 129.002C357.162 127.348 358.143 125.649 359.797 125.205L377.961 120.339C379.614 119.895 381.314 120.877 381.757 122.53C382.2 124.184 381.219 125.884 379.565 126.327Z" fill="#BCBCBC"/>
<path d="M448.16 198.491C448.16 198.491 430.475 181.194 416.662 161.577L398.663 137.518C398.663 137.518 391.944 140.388 384.269 134.101L378.635 130.848C377.3 130.077 376.802 128.395 377.504 127.022C378.252 125.56 380.063 125.012 381.496 125.813C383.477 126.921 385.967 126.46 387.419 124.715L387.572 124.532C389.169 122.613 388.994 119.782 387.172 118.076C385.203 116.231 382.251 115.913 379.934 117.295L373.572 121.093C372.369 121.811 370.823 121.559 369.91 120.496C368.772 119.17 369.067 117.144 370.537 116.198L380.015 110.097C381.265 109.292 382.81 109.091 384.224 109.548L390.384 111.538C392.699 112.286 394.744 113.699 396.262 115.601L408.425 130.837L452.767 167.899L448.16 198.491Z" fill="url(#paint5_linear_84_2464)"/>
<path d="M474.483 136.316H442.247V190.56H474.483V136.316Z" fill="url(#paint6_linear_84_2464)"/>
<path d="M498.396 261.521L502.883 224.596C504.899 208.003 500.966 191.2 491.642 177.327C486.739 170.032 481.436 164.033 477.309 159.922L476.892 160.721C470.108 173.714 454.85 179.805 440.983 175.056C440.983 175.056 433.748 191.868 433.161 193.552C425.492 215.516 429.578 238.458 429.076 261.521H498.396Z" fill="url(#paint7_linear_84_2464)"/>
<path d="M498.193 279.16H416.864L429.075 261.521H498.193V279.16Z" fill="#343232"/>
<path d="M473.45 211.427L476.359 279.16H499.68L503.432 213.49C503.808 208.685 502.297 203.922 499.221 200.211L499.164 200.133C494.079 193.162 483.855 192.67 478.123 199.119C474.884 202.369 473.183 206.846 473.45 211.427Z" fill="url(#paint8_linear_84_2464)"/>
<path d="M472.798 103.524C474.363 102.343 470.558 89.4092 460.796 84.6636C450.524 79.6699 434.547 84.1768 428.218 94.094C419.025 108.501 431.921 122.664 425.075 148.104C421.002 163.244 412.957 163.633 411.358 178.539C410.011 191.106 419.319 210.641 431.647 214.117C434.907 215.036 436.303 212.486 436.776 208.941C438.629 195.048 441.903 181.385 446.876 168.281C451.113 157.114 455.237 144.378 456.509 134.388C458.943 115.276 471.014 104.872 472.798 103.524Z" fill="#0B0952"/>
<path d="M448.47 159.059C444.818 159.799 441.034 158.482 438.719 155.562C434.823 150.647 429.947 141.287 432.097 126.627C435.507 103.379 441.706 93.1504 457.514 94.3903C473.323 95.6303 482.622 106.789 483.552 117.948C484.419 128.351 472.892 154.112 448.47 159.059Z" fill="url(#paint9_linear_84_2464)"/>
<path d="M450.687 113.422C448.413 103.063 447.239 87.2809 459.764 83.6952C470.021 80.7586 478.99 83.7725 484.804 92.8838C493.998 107.291 484.82 121.741 486.519 148.323C487.116 157.674 518.524 187.436 493.678 213.932C486.91 221.148 467.679 215.396 463.96 203.645C461.276 195.162 467.689 185.959 470.247 173.356C473.942 155.15 459.812 154.982 450.687 113.422Z" fill="#0B0952"/>
<path d="M454.865 88.2352C439.739 101.714 436.637 118.018 436.32 117.887C435.99 117.751 439.313 99.3178 451.293 86.2145L454.865 88.2352Z" fill="#0B0952"/>
<path d="M451.942 87.9766C443.226 102.718 443.168 120.375 443.507 120.449C443.824 120.519 444.281 104.531 454.871 89.3958L451.942 87.9766Z" fill="#0B0952"/>
<path d="M474.918 245.599L476.36 279.16H499.681L501.598 245.599H474.918Z" fill="url(#paint10_linear_84_2464)"/>
<path d="M384.736 180.498C381.715 178.357 377.429 176.445 371.996 174.816C368.47 173.758 364.572 172.854 360.394 172.112C362.225 168.056 363.767 164.15 364.974 160.48C367.736 152.081 369.93 141.258 364.703 137.394C356.987 131.692 344.37 144.327 339.457 149.105C336.613 151.871 333.729 154.962 330.85 158.322C327.97 154.962 325.087 151.871 322.242 149.105C317.315 144.313 304.71 131.694 296.996 137.394C291.769 141.258 293.964 152.081 296.726 160.48C297.932 164.15 299.475 168.056 301.305 172.112C297.128 172.854 293.23 173.758 289.703 174.816C283.744 176.603 271.876 180.389 271.876 188.304C271.876 196.232 283.77 200.013 289.703 201.792C293.23 202.85 297.128 203.754 301.305 204.496C299.475 208.552 297.932 212.458 296.726 216.128C293.964 224.527 291.769 235.35 296.996 239.214C304.711 244.915 317.328 232.282 322.242 227.504C325.087 224.737 327.97 221.647 330.85 218.287C333.729 221.647 336.613 224.737 339.457 227.504C344.384 232.295 356.991 244.913 364.703 239.214C369.93 235.35 367.735 224.527 364.974 216.128C363.767 212.458 362.225 208.552 360.394 204.496C364.572 203.754 368.47 202.85 371.996 201.792C377.955 200.006 389.823 196.22 389.823 188.304C389.823 185.518 388.112 182.891 384.736 180.498ZM341.297 150.997C344.925 147.469 357.019 134.997 363.135 139.517C366.134 141.734 365.884 149.262 362.467 159.656C361.225 163.432 359.619 167.466 357.701 171.663C352.167 170.796 346.198 170.204 339.982 169.911C337.541 166.558 335.062 163.365 332.573 160.366C335.493 156.941 338.416 153.798 341.297 150.997ZM338.591 204.117C336.047 204.219 333.462 204.273 330.85 204.273C328.237 204.273 325.653 204.219 323.108 204.117C321.564 201.969 314.576 191.358 312.766 188.304C314.576 185.251 321.564 174.639 323.108 172.491C325.653 172.389 336.047 172.389 338.591 172.491C340.135 174.639 347.124 185.251 348.933 188.304C347.124 191.358 340.135 201.969 338.591 204.117ZM350.451 190.909C352.694 194.827 354.735 198.698 356.536 202.458C351.938 203.152 347.038 203.654 341.947 203.952C344.935 199.707 347.774 195.356 350.451 190.909ZM336.61 206.827C334.705 209.388 332.78 211.847 330.85 214.186C328.919 211.847 326.995 209.388 325.09 206.827C328.928 206.94 332.771 206.94 336.61 206.827ZM319.752 203.952C314.661 203.654 309.761 203.152 305.163 202.458C306.965 198.698 309.005 194.827 311.249 190.909C312.86 193.586 314.557 196.273 316.333 198.95C317.46 200.649 318.601 202.317 319.752 203.952ZM311.248 185.699C309.005 181.782 306.965 177.91 305.163 174.151C309.761 173.457 314.661 172.954 319.752 172.656C316.764 176.901 313.926 181.252 311.248 185.699ZM325.09 169.781C326.995 167.22 328.919 164.762 330.85 162.422C332.78 164.762 334.705 167.22 336.61 169.781C332.771 169.668 328.928 169.668 325.09 169.781ZM345.366 177.659C344.239 175.96 343.098 174.291 341.947 172.656C347.038 172.954 351.939 173.457 356.536 174.151C354.735 177.91 352.694 181.782 350.451 185.699C348.839 183.022 347.142 180.336 345.366 177.659ZM299.233 159.655C295.815 149.262 295.565 141.734 298.565 139.517C304.663 135.01 316.776 147.47 320.402 150.997C323.283 153.798 326.206 156.941 329.126 160.366C326.637 163.365 324.159 166.558 321.718 169.911C315.501 170.204 309.532 170.796 303.998 171.662C302.08 167.466 300.474 163.432 299.233 159.655ZM290.461 199.265C285.851 197.882 274.515 194.639 274.515 188.304C274.515 181.992 285.868 178.721 290.461 177.344C294.086 176.257 298.117 175.335 302.451 174.589C304.558 179.04 306.994 183.647 309.706 188.304C306.994 192.962 304.558 197.568 302.451 202.019C298.117 201.273 294.086 200.352 290.461 199.265ZM320.403 225.612C316.773 229.142 304.677 241.608 298.565 237.091C295.565 234.875 295.815 227.346 299.233 216.953C300.474 213.177 302.08 209.142 303.998 204.946C309.532 205.813 315.501 206.404 321.718 206.697C324.159 210.05 326.637 213.243 329.126 216.242C326.207 219.667 323.283 222.81 320.403 225.612ZM362.467 216.953C365.884 227.346 366.134 234.875 363.135 237.091C357.042 241.595 344.924 229.139 341.297 225.612C338.416 222.81 335.493 219.667 332.574 216.242C335.062 213.243 337.541 210.05 339.982 206.697C346.199 206.404 352.168 205.812 357.701 204.946C359.619 209.142 361.225 213.177 362.467 216.953ZM383.21 193.957C380.423 195.933 376.396 197.718 371.238 199.265C367.613 200.352 363.582 201.273 359.248 202.019C357.142 197.568 354.706 192.962 351.993 188.304C354.706 183.647 357.142 179.04 359.248 174.589C363.582 175.335 367.613 176.257 371.238 177.344C375.849 178.726 387.184 181.969 387.184 188.304C387.184 190.185 385.847 192.087 383.21 193.957Z" fill="#DFDEEE"/>
<path d="M297.308 225.498C301.074 225.498 304.127 222.445 304.127 218.679C304.127 214.913 301.074 211.859 297.308 211.859C293.541 211.859 290.488 214.913 290.488 218.679C290.488 222.445 293.541 225.498 297.308 225.498Z" fill="url(#paint11_linear_84_2464)"/>
<path d="M317.14 152.983C320.906 152.983 323.959 149.93 323.959 146.164C323.959 142.398 320.906 139.345 317.14 139.345C313.374 139.345 310.321 142.398 310.321 146.164C310.321 149.93 313.374 152.983 317.14 152.983Z" fill="url(#paint12_linear_84_2464)"/>
<path d="M378.961 185.36C382.727 185.36 385.78 182.307 385.78 178.54C385.78 174.774 382.727 171.721 378.961 171.721C375.195 171.721 372.142 174.774 372.142 178.54C372.142 182.307 375.195 185.36 378.961 185.36Z" fill="url(#paint13_linear_84_2464)"/>
<path d="M283.266 240.782C282.121 230.27 272.924 222.079 261.751 222.085C250.388 222.09 241.125 230.675 240.211 241.45C239.84 245.836 239.097 252.833 238.449 257.187C237.181 265.714 244.02 273.348 252.926 273.348H271.169C280.344 273.348 287.253 265.272 285.537 256.555C285.537 256.555 283.549 243.372 283.266 240.782Z" fill="#2F2E2E"/>
<path d="M257.895 331.924L249.71 328.39L218.673 334.141C213.5 335.1 209.748 339.607 209.748 344.862C209.748 350.884 214.635 355.765 220.664 355.765H247.435C261.028 355.765 274.451 352.75 286.735 346.939L286.823 337.105L257.895 331.924Z" fill="url(#paint14_linear_84_2464)"/>
<path d="M303.826 333.167L285.576 329.866C277.421 328.391 269.11 327.97 260.848 328.615L237.387 330.443L228.259 337.128L228.318 337.148L252.206 349.227C263.128 353.632 274.797 355.765 286.575 355.765H301.793C307.797 355.765 312.773 351.115 313.172 345.132C313.557 339.349 309.535 334.2 303.826 333.167Z" fill="url(#paint15_linear_84_2464)"/>
<path d="M295.552 300.876C295.552 300.876 298.708 272.492 275.132 270.382C275.132 270.382 238.503 266.324 230.651 278.46C225.141 286.978 227.214 309.56 230.651 313.598L292.317 325.109L295.552 300.876Z" fill="#FF669D"/>
<path d="M228.813 282.64C225.735 292.783 227.682 310.109 230.652 313.598L240.794 315.492V294.607C240.794 287.997 235.43 282.64 228.813 282.64Z" fill="url(#paint16_linear_84_2464)"/>
<path d="M282.152 293.261V323.212L292.318 325.11L295.553 300.876C295.553 300.876 296.632 291.134 292.786 282.64C286.913 282.64 282.152 287.395 282.152 293.261Z" fill="url(#paint17_linear_84_2464)"/>
<path d="M262.049 282.4C257.385 282.4 253.604 278.619 253.604 273.955V257.06H270.494V273.955C270.494 278.619 266.713 282.4 262.049 282.4Z" fill="url(#paint18_linear_84_2464)"/>
<path d="M261.473 269.959C270.852 269.959 278.456 261.378 278.456 250.793C278.456 240.208 270.852 231.627 261.473 231.627C252.093 231.627 244.489 240.208 244.489 250.793C244.489 261.378 252.093 269.959 261.473 269.959Z" fill="url(#paint19_linear_84_2464)"/>
<path d="M248.676 232.599C252.211 243.281 249.174 251.983 249.363 252.009C249.559 252.035 253.082 242.247 250.957 232.619L248.676 232.599Z" fill="#2F2E2E"/>
<path d="M250.154 233.286C250.253 242.796 245.374 251.304 245.191 251.245C245.019 251.191 249.241 243.375 248.35 233.156L250.154 233.286Z" fill="#2F2E2E"/>
<path d="M247.09 232.561C245.066 237.254 254.422 246.86 264.16 250.372C265.531 250.866 276.586 254.729 280.095 250.04C282.808 246.415 279.777 239.326 276.083 235.365C267.562 226.225 249.41 227.181 247.09 232.561Z" fill="#2F2E2E"/>
<path d="M261.473 235.891C266.938 235.891 271.369 231.461 271.369 225.995C271.369 220.53 266.938 216.099 261.473 216.099C256.007 216.099 251.577 220.53 251.577 225.995C251.577 231.461 256.007 235.891 261.473 235.891Z" fill="#2F2E2E"/>
<path d="M266.288 227.496L266.288 227.496C263.342 225.917 259.997 225.917 257.052 227.496L257.052 227.496V223.04C259.997 221.46 263.343 221.46 266.288 223.04L266.288 227.496Z" fill="url(#paint20_linear_84_2464)"/>
<path d="M228.915 343.191H294.423C296.433 343.191 298.062 341.563 298.062 339.555V299.318C298.062 297.308 296.428 295.679 294.415 295.683L228.908 295.819C226.901 295.823 225.276 297.449 225.276 299.454V339.555C225.276 341.563 226.905 343.191 228.915 343.191Z" fill="url(#paint21_linear_84_2464)"/>
<path d="M261.67 324.889C264.685 324.889 267.129 322.448 267.129 319.436C267.129 316.425 264.685 313.984 261.67 313.984C258.655 313.984 256.211 316.425 256.211 319.436C256.211 322.448 258.655 324.889 261.67 324.889Z" fill="#7525E9" fill-opacity="0.16"/>
<path d="M508.615 367.743H409.653C406.738 367.743 404.375 365.379 404.375 362.465V354.223C404.375 351.308 406.738 348.945 409.653 348.945H508.615V367.743Z" fill="url(#paint22_linear_84_2464)"/>
<path d="M498.05 362.796H437.96C437.814 362.796 437.696 362.678 437.696 362.532V354.156C437.696 354.01 437.814 353.892 437.96 353.892H498.05V362.796Z" fill="url(#paint23_linear_84_2464)"/>
<path d="M419.887 362.004C421.799 362.004 423.35 360.453 423.35 358.541C423.35 356.629 421.799 355.078 419.887 355.078C417.975 355.078 416.424 356.629 416.424 358.541C416.424 360.453 417.975 362.004 419.887 362.004Z" fill="white"/>
<path d="M498.722 348.945H399.76C396.845 348.945 395.801 346.582 395.801 343.667V335.426C395.801 332.511 396.845 330.148 399.76 330.148H498.722V348.945Z" fill="url(#paint24_linear_84_2464)"/>
<path d="M488.156 342.998C488.156 343.551 487.709 343.998 487.156 343.998H428.066C427.92 343.998 427.802 343.88 427.802 343.734V335.358C427.802 335.212 427.92 335.094 428.066 335.094H487.156C487.709 335.094 488.156 335.542 488.156 336.094V342.998Z" fill="url(#paint25_linear_84_2464)"/>
<path d="M409.994 343.206C411.907 343.206 413.457 341.656 413.457 339.744C413.457 337.831 411.907 336.281 409.994 336.281C408.082 336.281 406.532 337.831 406.532 339.744C406.532 341.656 408.082 343.206 409.994 343.206Z" fill="white"/>
<path d="M351.945 359.484C353.465 358.606 353.986 356.664 353.109 355.144L338.758 330.3C337.079 327.394 334.48 325.13 331.371 323.865C330.912 327.189 331.575 330.571 333.253 333.477L347.604 358.321C348.482 359.84 350.425 360.361 351.945 359.484Z" fill="url(#paint26_linear_84_2464)"/>
<path d="M353.108 355.144C353.985 356.664 353.465 358.606 351.944 359.483C350.424 360.361 348.481 359.84 347.603 358.321L333.252 333.477L338.757 330.3L353.108 355.144Z" fill="url(#paint27_linear_84_2464)"/>
<path d="M349.923 359.484C348.403 358.606 347.882 356.664 348.759 355.144L363.11 330.3C364.789 327.394 367.388 325.13 370.497 323.865C370.956 327.189 370.293 330.571 368.615 333.477L354.264 358.321C353.386 359.84 351.443 360.361 349.923 359.484Z" fill="url(#paint28_linear_84_2464)"/>
<path d="M348.759 355.144C347.882 356.664 348.403 358.606 349.923 359.483C351.443 360.361 353.386 359.84 354.264 358.321L368.615 333.477L363.11 330.3L348.759 355.144Z" fill="url(#paint29_linear_84_2464)"/>
<path d="M350.934 358.189C349.179 358.189 347.756 356.767 347.756 355.012V326.325C347.756 322.969 348.874 319.709 350.934 317.06C352.994 319.709 354.112 322.97 354.112 326.325V355.012C354.112 356.767 352.69 358.189 350.934 358.189Z" fill="url(#paint30_linear_84_2464)"/>
<path d="M347.756 355.012C347.756 356.767 349.179 358.189 350.934 358.189C352.69 358.189 354.112 356.767 354.112 355.012V326.325H347.756V355.012Z" fill="#FF9852"/>
<path d="M347.756 354.515C347.756 356.27 349.179 357.692 350.934 357.692C352.69 357.692 354.112 356.27 354.112 354.515V325.828H347.756V354.515Z" fill="url(#paint31_linear_84_2464)"/>
<path d="M345.022 367.742H356.845C358.805 367.742 360.472 366.316 360.775 364.382L363.967 343.983H337.901L341.093 364.382C341.396 366.316 343.063 367.742 345.022 367.742Z" fill="url(#paint32_linear_84_2464)"/>
<path d="M301.249 72.1744H224.126C221.211 72.1744 218.848 74.5375 218.848 77.4524V114.241C218.848 117.156 221.211 119.519 224.126 119.519H271.548L284.301 129.778L284.348 119.519H301.249C304.164 119.519 306.527 117.156 306.527 114.241V77.4524C306.527 74.5375 304.164 72.1744 301.249 72.1744Z" fill="url(#paint33_linear_84_2464)"/>
<path d="M291.334 88.081H234.043C233.314 88.081 232.723 87.4902 232.723 86.7615C232.723 86.0327 233.314 85.442 234.043 85.442H291.334C292.063 85.442 292.654 86.0327 292.654 86.7615C292.654 87.4902 292.063 88.081 291.334 88.081Z" fill="#FD9A48"/>
<path d="M272.274 105.027H234.043C233.314 105.027 232.723 104.436 232.723 103.707C232.723 102.978 233.314 102.388 234.043 102.388H272.274C273.002 102.388 273.593 102.978 273.593 103.707C273.593 104.436 273.002 105.027 272.274 105.027Z" fill="#FD9A48"/>
<defs>
<linearGradient id="paint0_linear_84_2464" x1="370" y1="-35.8947" x2="374.094" y2="439.965" gradientUnits="userSpaceOnUse">
<stop stop-color="#FF87EC"/>
<stop offset="1" stop-color="#8218D5"/>
</linearGradient>
<linearGradient id="paint1_linear_84_2464" x1="286.634" y1="266.223" x2="189.992" y2="283.079" gradientUnits="userSpaceOnUse">
<stop offset="0.184024" stop-color="#006D5E"/>
<stop offset="1" stop-color="#10F1D3"/>
</linearGradient>
<linearGradient id="paint2_linear_84_2464" x1="266.171" y1="266.116" x2="198.54" y2="263.204" gradientUnits="userSpaceOnUse">
<stop offset="0.184024" stop-color="#006D5E"/>
<stop offset="1" stop-color="#10F1D3"/>
</linearGradient>
<linearGradient id="paint3_linear_84_2464" x1="525.359" y1="179.58" x2="252.933" y2="177.468" gradientUnits="userSpaceOnUse">
<stop stop-color="#F0F2FC"/>
<stop offset="1" stop-color="#9786FF"/>
</linearGradient>
<linearGradient id="paint4_linear_84_2464" x1="571.819" y1="291.507" x2="252.405" y2="291.507" gradientUnits="userSpaceOnUse">
<stop stop-color="#F0F2FC"/>
<stop offset="1" stop-color="#8470FF"/>
</linearGradient>
<linearGradient id="paint5_linear_84_2464" x1="337.406" y1="82.9642" x2="422.935" y2="162.686" gradientUnits="userSpaceOnUse">
<stop stop-color="white"/>
<stop offset="1" stop-color="#FFD0D0"/>
</linearGradient>
<linearGradient id="paint6_linear_84_2464" x1="458.365" y1="136.316" x2="458.365" y2="190.56" gradientUnits="userSpaceOnUse">
<stop stop-color="white"/>
<stop offset="0.604703" stop-color="#FFD0D0"/>
</linearGradient>
<linearGradient id="paint7_linear_84_2464" x1="466.228" y1="169.021" x2="465.915" y2="261.521" gradientUnits="userSpaceOnUse">
<stop stop-color="#852BFA"/>
<stop offset="1" stop-color="#BF8EFF"/>
<stop offset="1" stop-color="#D9BCFF"/>
</linearGradient>
<linearGradient id="paint8_linear_84_2464" x1="488.581" y1="202.153" x2="502.922" y2="250.932" gradientUnits="userSpaceOnUse">
<stop stop-color="#852BFA"/>
<stop offset="1" stop-color="#BF8EFF"/>
<stop offset="1" stop-color="#D9BCFF"/>
</linearGradient>
<linearGradient id="paint9_linear_84_2464" x1="445.637" y1="100.387" x2="449.861" y2="157.934" gradientUnits="userSpaceOnUse">
<stop stop-color="white"/>
<stop offset="1" stop-color="#FFD0D0"/>
</linearGradient>
<linearGradient id="paint10_linear_84_2464" x1="488.258" y1="245.599" x2="488.258" y2="279.16" gradientUnits="userSpaceOnUse">
<stop stop-color="#FFD0D0"/>
<stop offset="1" stop-color="white"/>
</linearGradient>
<linearGradient id="paint11_linear_84_2464" x1="290.418" y1="217.065" x2="304.145" y2="219.177" gradientUnits="userSpaceOnUse">
<stop stop-color="#A642FF"/>
<stop offset="1" stop-color="#EDD8FF"/>
</linearGradient>
<linearGradient id="paint12_linear_84_2464" x1="309.953" y1="145.791" x2="323.68" y2="145.791" gradientUnits="userSpaceOnUse">
<stop stop-color="#FF2070"/>
<stop offset="1" stop-color="#FFACC0"/>
</linearGradient>
<linearGradient id="paint13_linear_84_2464" x1="372.251" y1="178.524" x2="385.978" y2="178.524" gradientUnits="userSpaceOnUse">
<stop stop-color="#FFC634"/>
<stop offset="1" stop-color="#FFEFC7"/>
</linearGradient>
<linearGradient id="paint14_linear_84_2464" x1="244.486" y1="331.104" x2="248.285" y2="355.765" gradientUnits="userSpaceOnUse">
<stop stop-color="#8C91FF"/>
<stop offset="1" stop-color="#1D1AC1"/>
</linearGradient>
<linearGradient id="paint15_linear_84_2464" x1="270.728" y1="328.322" x2="270.728" y2="355.765" gradientUnits="userSpaceOnUse">
<stop stop-color="#1D1AC1"/>
<stop offset="1" stop-color="#8C91FF"/>
</linearGradient>
<linearGradient id="paint16_linear_84_2464" x1="229.175" y1="280.42" x2="234.379" y2="299.94" gradientUnits="userSpaceOnUse">
<stop stop-color="#FFBBBB"/>
<stop offset="1" stop-color="white"/>
</linearGradient>
<linearGradient id="paint17_linear_84_2464" x1="286.722" y1="277.252" x2="290.265" y2="303.632" gradientUnits="userSpaceOnUse">
<stop stop-color="#FFBFBF"/>
<stop offset="1" stop-color="white"/>
</linearGradient>
<linearGradient id="paint18_linear_84_2464" x1="260.325" y1="260.886" x2="261.378" y2="280.392" gradientUnits="userSpaceOnUse">
<stop stop-color="white"/>
<stop offset="0.782482" stop-color="#FFD0D0"/>
</linearGradient>
<linearGradient id="paint19_linear_84_2464" x1="253.673" y1="235.224" x2="255.927" y2="269.209" gradientUnits="userSpaceOnUse">
<stop stop-color="white"/>
<stop offset="1" stop-color="#FFD0D0"/>
</linearGradient>
<linearGradient id="paint20_linear_84_2464" x1="257.685" y1="221.817" x2="266.66" y2="227.624" gradientUnits="userSpaceOnUse">
<stop stop-color="#9D54FC"/>
<stop offset="1" stop-color="#E5D1FF"/>
</linearGradient>
<linearGradient id="paint21_linear_84_2464" x1="261.669" y1="295.683" x2="261.669" y2="343.191" gradientUnits="userSpaceOnUse">
<stop stop-color="#F0F2FC"/>
<stop offset="1" stop-color="#C3B9FF"/>
</linearGradient>
<linearGradient id="paint22_linear_84_2464" x1="406.96" y1="367.606" x2="465.869" y2="346.948" gradientUnits="userSpaceOnUse">
<stop stop-color="#13AA76"/>
<stop offset="1" stop-color="#29E3A2"/>
</linearGradient>
<linearGradient id="paint23_linear_84_2464" x1="438.774" y1="358.03" x2="497.906" y2="358.03" gradientUnits="userSpaceOnUse">
<stop stop-color="white"/>
<stop offset="1" stop-color="#A4FFDE"/>
</linearGradient>
<linearGradient id="paint24_linear_84_2464" x1="457.056" y1="348.48" x2="485.599" y2="327.832" gradientUnits="userSpaceOnUse">
<stop stop-color="#F07C58"/>
<stop offset="1" stop-color="#FFA183"/>
</linearGradient>
<linearGradient id="paint25_linear_84_2464" x1="428.215" y1="339.023" x2="488.402" y2="339.023" gradientUnits="userSpaceOnUse">
<stop stop-color="white"/>
<stop offset="1" stop-color="#FFCCBC"/>
</linearGradient>
<linearGradient id="paint26_linear_84_2464" x1="335.216" y1="340.268" x2="345.995" y2="335.94" gradientUnits="userSpaceOnUse">
<stop stop-color="#0093D2"/>
<stop offset="1" stop-color="white"/>
</linearGradient>
<linearGradient id="paint27_linear_84_2464" x1="336.878" y1="343.775" x2="346.381" y2="339.551" gradientUnits="userSpaceOnUse">
<stop stop-color="#45C7FF"/>
<stop offset="1" stop-color="white"/>
</linearGradient>
<linearGradient id="paint28_linear_84_2464" x1="365.387" y1="325.824" x2="370.151" y2="331.724" gradientUnits="userSpaceOnUse">
<stop stop-color="#E80863"/>
<stop offset="1" stop-color="#FF9DC4"/>
</linearGradient>
<linearGradient id="paint29_linear_84_2464" x1="357.468" y1="336.384" x2="365.387" y2="342.191" gradientUnits="userSpaceOnUse">
<stop stop-color="#FF3587"/>
<stop offset="1" stop-color="#FFEAF3"/>
</linearGradient>
<linearGradient id="paint30_linear_84_2464" x1="343.742" y1="332.047" x2="356.94" y2="332.047" gradientUnits="userSpaceOnUse">
<stop stop-color="#00B012"/>
<stop offset="1" stop-color="#F3FFF8"/>
</linearGradient>
<linearGradient id="paint31_linear_84_2464" x1="343.742" y1="337.439" x2="356.94" y2="337.439" gradientUnits="userSpaceOnUse">
<stop stop-color="#52FF63"/>
<stop offset="1" stop-color="#F3FFF8"/>
</linearGradient>
<linearGradient id="paint32_linear_84_2464" x1="361.692" y1="355.918" x2="326.847" y2="355.918" gradientUnits="userSpaceOnUse">
<stop stop-color="#FFF2CF"/>
<stop offset="1" stop-color="#F2B10B"/>
</linearGradient>
<linearGradient id="paint33_linear_84_2464" x1="214.392" y1="95.1072" x2="306.785" y2="97.219" gradientUnits="userSpaceOnUse">
<stop stop-color="#FBCE5D"/>
<stop offset="1" stop-color="#FDEBBE"/>
</linearGradient>
</defs>
</svg>
