<svg width="740" height="440" viewBox="0 0 740 440" fill="none" xmlns="http://www.w3.org/2000/svg">
<rect width="740" height="440" fill="url(#paint0_linear_94_657)"/>
<path d="M140.671 338.329C116.841 329.157 74.02 162.87 207.257 93.949C264.383 64.3985 324.91 100.746 397.586 131.106C470.261 161.465 503.407 141.18 545.125 163.294C625.121 205.701 588.75 338.999 588.75 338.999C588.75 338.999 164.5 347.5 140.671 338.329Z" fill="white" fill-opacity="0.16"/>
<path d="M155.119 316.548C147.4 301.672 144.748 287.764 145.019 271C152.357 274.372 185.783 277.006 198.336 296.477C204.737 306.403 209.982 330.836 204.983 341.538C179.456 342.893 163.324 332.366 155.119 316.548ZM624.731 295.356C625.272 295.885 626.941 319.397 605.796 335.212C597.235 341.615 578.97 342.804 562.847 341.563C562.822 329.207 571.11 312.301 580.55 303.175C590.202 293.843 624.258 294.894 624.731 295.356Z" fill="url(#paint1_linear_94_657)"/>
<path d="M183.558 264.204C182.078 253.616 183.493 242.509 188.386 233C198.774 235.8 206.092 245.266 210.239 255.186C214.331 264.974 222.405 291.218 207.357 295.663C191.309 300.405 185.096 275.216 183.558 264.204ZM603.799 290.979C607.326 286.985 614.653 270.771 615 266.741C605.3 264.934 590.851 264.354 583.241 272.802C577.326 279.366 573.031 301.939 573.031 301.939C573.031 301.939 592.748 303.491 603.799 290.979Z" fill="url(#paint2_linear_94_657)"/>
<path d="M193 340.718C196.046 307.035 196.718 280.032 211.454 253.05C219.111 239.032 253.308 187.837 287.116 217.308C292.135 221.682 294.506 230.164 298.291 236.522C302.076 242.879 307.412 248.483 313.31 247.854C322.686 246.858 327.343 232.046 331.276 220.103C335.006 208.777 339.942 197.907 347.016 190.317C354.089 182.727 363.576 178.818 372.147 182.261C387.32 188.352 395.366 214.524 410.821 218.991C417.486 220.919 424.397 218.332 430.73 214.834C440.908 209.212 450.44 201.168 461.032 197.324C471.624 193.48 484.103 194.719 491.812 205.579C499.534 216.462 502.315 236.083 513.066 239.057C522.323 241.616 533.212 234.489 542.64 234.977C550.223 235.369 565.205 244.145 568.764 249.513C586.742 276.62 589.269 304.12 585.492 341" fill="url(#paint3_linear_94_657)"/>
<path d="M582.792 341.559C587.115 336.933 590.849 330.953 593.119 326.423C596.795 319.085 595.107 308.661 587.844 304.835C582.857 302.209 576.767 303.203 571.384 304.875C567.065 306.218 560.154 310.609 552.836 315.888C553.975 313.37 554.802 310.726 555.198 307.989C556.086 301.805 554.557 295.112 550.305 290.536C544.571 284.361 534.851 283.124 526.871 285.83C521.553 287.635 516.915 290.906 512.853 294.834C520.955 259.271 511.869 228.836 488.959 238.559C480.893 241.981 475.746 249.915 472.573 259.928C465.086 241.901 453.142 233.579 440.818 245.237C432.823 252.8 430.497 264.881 431.089 277.946C427.318 272.953 422.787 268.602 416.939 266.67C406.815 263.329 395.814 268.355 387.886 275.687C387.182 251.319 375.084 234.208 356.064 240.543C345.094 244.197 337.42 255.522 332.056 269.296C321.883 237.578 301.086 216.709 279.535 234.572C275.268 238.109 272.447 243.104 270.722 249.017C267.508 244.206 263.318 240.395 257.727 239.38C249.781 237.939 242.003 242.944 236.67 249.011C230.227 256.336 226.101 265.418 224.186 275.005C218.093 270.352 211.222 266.927 203.665 266.062C191.231 264.643 177.191 272.524 175.519 284.929C174.37 293.446 174.823 307.723 180.037 314.555C188.498 325.642 191.047 333.962 205.264 342C219.481 350.038 582.792 341.559 582.792 341.559Z" fill="url(#paint4_linear_94_657)"/>
<path d="M594.993 257H454.007C450.69 257 448 254.294 448 250.957V142.043C448 138.706 450.69 136 454.007 136H594.993C598.31 136 601 138.706 601 142.043V250.957C601 254.294 598.31 257 594.993 257Z" fill="white"/>
<path opacity="0.42" d="M587.938 214H461.062C458.819 214 457 212.166 457 209.903V150.097C457 147.834 458.819 146 461.062 146H587.938C590.181 146 592 147.834 592 150.097V209.9C592.003 212.166 590.181 214 587.938 214Z" fill="#85BDFF"/>
<path d="M464.03 214H584.97C588.852 214 592 210.865 592 206.998V204H457V206.998C457 210.865 460.145 214 464.03 214Z" fill="#61BCFF"/>
<path d="M496.5 223H460.5C459.672 223 459 223.672 459 224.5C459 225.328 459.672 226 460.5 226H496.5C497.328 226 498 225.328 498 224.5C498 223.672 497.328 223 496.5 223Z" fill="url(#paint5_linear_94_657)" fill-opacity="0.48"/>
<path d="M588.5 232H460.5C459.672 232 459 232.672 459 233.5C459 234.328 459.672 235 460.5 235H588.5C589.328 235 590 234.328 590 233.5C590 232.672 589.328 232 588.5 232Z" fill="url(#paint6_linear_94_657)" fill-opacity="0.48"/>
<path d="M588.5 238H460.5C459.672 238 459 238.672 459 239.5C459 240.328 459.672 241 460.5 241H588.5C589.328 241 590 240.328 590 239.5C590 238.672 589.328 238 588.5 238Z" fill="url(#paint7_linear_94_657)" fill-opacity="0.48"/>
<path d="M588.5 244H460.5C459.672 244 459 244.672 459 245.5C459 246.328 459.672 247 460.5 247H588.5C589.328 247 590 246.328 590 245.5C590 244.672 589.328 244 588.5 244Z" fill="url(#paint8_linear_94_657)" fill-opacity="0.48"/>
<path d="M574.135 224C574.135 225.104 573.209 226 572.067 226C570.926 226 570 225.104 570 224C570 222.896 570.926 222 572.067 222C573.209 222 574.135 222.896 574.135 224ZM582.066 224C582.066 225.104 581.14 226 579.999 226C578.857 226 577.931 225.104 577.931 224C577.931 222.896 578.857 222 579.999 222C581.143 222 582.066 222.896 582.066 224ZM590 224C590 225.104 589.074 226 587.933 226C586.791 226 585.865 225.104 585.865 224C585.865 222.896 586.791 222 587.933 222C589.074 222 590 222.896 590 224Z" fill="url(#paint9_linear_94_657)" fill-opacity="0.48"/>
<path d="M521.318 209.451C521.318 210.096 520.794 210.622 520.15 210.622C519.505 210.622 518.981 210.096 518.981 209.451C518.981 208.805 519.505 208.28 520.15 208.28C520.794 208.28 521.318 208.805 521.318 209.451ZM525.8 209.451C525.8 210.096 525.275 210.622 524.631 210.622C523.987 210.622 523.462 210.096 523.462 209.451C523.462 208.805 523.987 208.28 524.631 208.28C525.278 208.28 525.8 208.805 525.8 209.451ZM530.284 209.451C530.284 210.096 529.759 210.622 529.115 210.622C528.471 210.622 527.947 210.096 527.947 209.451C527.947 208.805 528.471 208.28 529.115 208.28C529.759 208.28 530.284 208.805 530.284 209.451Z" fill="white"/>
<path d="M519.7 159.261H493.941C494.063 158.806 494.741 157.245 498.189 157.844C497.631 157.346 497.263 156.578 497.416 155.846C497.462 155.625 497.557 155.41 497.716 155.253C497.861 155.109 498.048 155.019 498.238 154.952C499.597 154.463 501.974 156.338 501.974 156.338C499.063 151.752 507.001 149.825 507.053 155.631C507.053 155.631 508.219 153.547 509.492 154.122C510.01 154.42 509.691 155.311 509.458 155.705C513.179 153.895 516.562 155.004 514.985 157.073C518.641 157.149 519.7 159.261 519.7 159.261ZM479.666 175.126C480.371 173.878 481.533 173.556 483.533 174.241C483.132 173.328 484.337 171.527 486.269 173.433C485.69 170.371 490.272 170.018 490.045 172.978C491.192 171.546 494.217 172.36 493.042 174.069C494.809 173.629 495.526 174.041 496.689 175.126H479.666ZM491.864 159.261H483.745C483.441 158.21 483.625 157.023 486.941 157.979C487.981 156.046 490.005 157.976 491.864 159.261ZM565.138 168.822H557.019C556.716 167.771 556.9 166.585 560.215 167.541C561.019 166.044 562.317 166.314 563.534 167.986C565.654 166.33 567.098 167.971 565.138 168.822Z" fill="white"/>
<path d="M545.283 168.479H552.11V161.638H545.283V168.479Z" fill="white"/>
<path d="M545.281 165.992L552.109 165.276V161.64H545.281V165.992Z" fill="#9BB8CC"/>
<path d="M537.843 157.509L552.722 157.343V164.965H547.523L537.843 157.509Z" fill="url(#paint10_linear_94_657)"/>
<path d="M516.258 161.64H509.43V168.481H516.258V161.64Z" fill="white"/>
<path d="M516.258 165.992L509.43 165.276V161.64H516.258V165.992Z" fill="#9BB8CC"/>
<path d="M523.699 157.509L508.817 157.343V164.965H514.019L523.699 157.509Z" fill="url(#paint11_linear_94_657)"/>
<path d="M554.041 202.658H507.418V171.081L530.73 153.034L554.041 171.081V202.658Z" fill="white"/>
<path d="M530.705 153.034L507.394 171.081V173.712L512.099 170.061V169.065L527.3 156.664V158.268L529.742 156.372L554.016 174.25V171.081L530.705 153.034Z" fill="#9BB8CC"/>
<path d="M512.099 202.658L527.301 202.597V158.268L512.099 170.061V202.658Z" fill="url(#paint12_linear_94_657)"/>
<path d="M512.099 169.065V170.061L527.301 158.268V156.664L512.099 169.065Z" fill="#479DA3"/>
<path d="M530.733 152.235L503.83 172.225L505.581 174.149L530.733 154.681L555.881 174.149L557.59 171.831L530.733 152.235Z" fill="url(#paint13_linear_94_657)"/>
<path d="M524.558 187.349H514.777V199.954H524.558V187.349Z" fill="white"/>
<path d="M519.304 187.918H515.415V199.287H519.304V187.918Z" fill="url(#paint14_linear_94_657)"/>
<path d="M523.903 187.918H520.013V199.287H523.903V187.918Z" fill="url(#paint15_linear_94_657)"/>
<path d="M524.558 199.785H514.777V199.954H524.558V199.785Z" fill="#9BB8CC"/>
<path d="M526.025 199.954H513.378V201.343H526.025V199.954Z" fill="white"/>
<path d="M526.641 201.303H512.762V202.655H526.641V201.303Z" fill="white"/>
<path d="M526.025 201.134H513.378V201.303H526.025V201.134Z" fill="#9BB8CC"/>
<path d="M524.558 169.4H514.777V177.981H524.558V169.4Z" fill="white"/>
<path d="M519.304 169.969H515.415V177.311H519.304V169.969Z" fill="url(#paint16_linear_94_657)"/>
<path d="M523.902 169.969H520.013V177.311H523.902V169.969Z" fill="url(#paint17_linear_94_657)"/>
<path d="M525.249 178.777L514.09 179.303V178.624H525.249V178.777Z" fill="#479DA3"/>
<path d="M514.384 177.981H514.777V169.4H514.565L514.384 177.981Z" fill="#479DA3"/>
<path d="M525.249 177.981H514.09V178.624H525.249V177.981Z" fill="#133B53"/>
<path d="M542.518 169.4H536.5V173.642H542.518V169.4Z" fill="url(#paint18_linear_94_657)"/>
<path d="M535.969 169.4H530.062V173.642H535.969V169.4Z" fill="url(#paint19_linear_94_657)"/>
<path d="M542.521 174.278H529.393V169.4H529.184L528.994 174.693L542.521 174.456V174.278Z" fill="#9BB8CC"/>
<path d="M531.806 181.602L531.582 202.658H532.263V199.991V181.602H531.806Z" fill="#9BB8CC"/>
<path d="M507.419 181.454H473.979V202.658H507.419V181.454Z" fill="url(#paint20_linear_94_657)"/>
<path d="M507.418 181.454H473.463V179.242L507.418 179.666V181.454Z" fill="url(#paint21_linear_94_657)"/>
<path d="M501.732 187.918H479.666V202.658H501.732V187.918Z" fill="white"/>
<path d="M501.732 188.951H479.666V189.2H501.732V188.951Z" fill="#E1ECEF"/>
<path d="M501.732 189.796H479.666V190.045H501.732V189.796Z" fill="#E1ECEF"/>
<path d="M501.732 190.641H479.666V190.89H501.732V190.641Z" fill="#E1ECEF"/>
<path d="M501.732 191.483H479.666V191.732H501.732V191.483Z" fill="#E1ECEF"/>
<path d="M501.732 192.328H479.666V192.577H501.732V192.328Z" fill="#E1ECEF"/>
<path d="M501.732 193.174H479.666V193.423H501.732V193.174Z" fill="#E1ECEF"/>
<path d="M501.732 194.016H479.666V194.265H501.732V194.016Z" fill="#E1ECEF"/>
<path d="M501.732 194.861H479.666V195.11H501.732V194.861Z" fill="#E1ECEF"/>
<path d="M501.732 195.706H479.666V195.955H501.732V195.706Z" fill="#E1ECEF"/>
<path d="M501.732 196.548H479.666V196.797H501.732V196.548Z" fill="#E1ECEF"/>
<path d="M501.732 197.394H479.666V197.643H501.732V197.394Z" fill="#E1ECEF"/>
<path d="M501.732 198.239H479.666V198.488H501.732V198.239Z" fill="#E1ECEF"/>
<path d="M501.732 199.081H479.666V199.33H501.732V199.081Z" fill="#E1ECEF"/>
<path d="M501.732 199.926H479.666V200.175H501.732V199.926Z" fill="#E1ECEF"/>
<path d="M501.732 200.771H479.666V201.02H501.732V200.771Z" fill="#E1ECEF"/>
<path d="M501.732 201.617H479.666V201.866H501.732V201.617Z" fill="#E1ECEF"/>
<path d="M502.069 188.336H479.046V187.064L502.069 187.306V188.336Z" fill="url(#paint22_linear_94_657)"/>
<path d="M507.394 202.658H506.701L506.999 181.454H507.394V202.658Z" fill="#B72E41"/>
<path d="M563.651 181.455H532.264V202.659H563.651V181.455Z" fill="url(#paint23_linear_94_657)"/>
<path d="M556.072 187.349H539.818V197.609H556.072V187.349Z" fill="white"/>
<path d="M543.223 187.918H540.441V196.969H543.223V187.918Z" fill="url(#paint24_linear_94_657)"/>
<path d="M552.33 187.918H543.662V196.969H552.33V187.918Z" fill="url(#paint25_linear_94_657)"/>
<path d="M555.548 187.918H552.766V196.969H555.548V187.918Z" fill="url(#paint26_linear_94_657)"/>
<path d="M556.069 187.217H539.818H539.576L539.376 197.609H539.818V187.349H556.069V187.217Z" fill="#B72E41"/>
<path d="M539.818 197.523H556.069V197.766L539.376 198.506V197.523H539.818Z" fill="#B72E41"/>
<path d="M564.599 183.068H532.077V181.538L564.599 181.473V183.068Z" fill="white"/>
<path d="M564.599 181.903L532.077 182.269V181.538L564.599 181.473V181.903Z" fill="#9BB8CC"/>
<path d="M565.553 181.03L557.376 176.869H539.401L530.696 181.215V181.697L565.553 181.559V181.03Z" fill="url(#paint27_linear_94_657)"/>
<path d="M473.139 194.735H472.761V202.659H473.139V194.735Z" fill="#133B53"/>
<path d="M473.859 192.369H471.433C472.025 192.369 472.512 192.854 472.512 193.45V195.042L472.288 195.138H474.782C474.868 195.138 474.935 195.067 474.935 194.984V193.453C474.935 192.854 474.451 192.369 473.859 192.369Z" fill="#133B53"/>
<path d="M471.457 192.369C470.875 192.381 470.405 192.863 470.405 193.447V195.018C470.405 195.082 470.457 195.132 470.519 195.132H472.396C472.46 195.132 472.509 195.079 472.509 195.018V193.447C472.509 192.863 472.037 192.384 471.457 192.369Z" fill="white"/>
<path d="M473.43 192.018V191.606H472.736V193.038C472.736 193.164 472.838 193.266 472.963 193.266C473.089 193.266 473.19 193.164 473.19 193.038C473.19 192.912 473.089 192.811 472.963 192.811H472.96V192.07L473.43 192.018Z" fill="#F43D4F"/>
<path d="M514.405 199.954H514.776V187.349H514.565L514.405 199.954Z" fill="#479DA3"/>
<path d="M566.356 202.517L566.55 199.689L564.988 197.879L565.083 197.802L566.007 198.589L566.139 197.802L566.286 197.839L566.261 198.823L566.635 199.188L566.777 196.299L566.013 195.353L566.099 195.279L566.89 195.912L566.942 194.403H567.148L567.283 196.259L567.485 198.104L568.516 196.985L568.611 197.049L568.237 197.643L568.89 197.633V197.741L568.175 197.852L567.473 198.955L567.632 202.517H566.356Z" fill="#994F61"/>
<path d="M573.019 192.292C573.031 191.938 573.006 191.575 572.856 191.256C572.709 190.936 572.42 190.666 572.071 190.613C571.868 190.586 571.644 190.641 571.522 190.801C571.914 190.312 572.273 189.777 572.427 189.169C572.58 188.56 572.503 187.866 572.101 187.386C571.712 186.925 571.065 186.726 570.467 186.815C569.871 186.904 569.332 187.251 568.939 187.709C568.982 186.765 569.2 185.813 569.025 184.885C568.853 183.956 568.117 183.025 567.172 183.068C566.534 183.096 565.998 183.554 565.59 184.049C564.746 185.072 564.225 186.363 564.117 187.688C563.872 187.349 563.623 187.008 563.295 186.75C562.967 186.492 562.547 186.326 562.136 186.394C561.461 186.504 561.029 187.193 560.866 187.86C560.691 188.573 560.716 189.332 560.94 190.03C561.308 191.182 562.173 192.101 563.01 192.974C562.627 192.802 562.139 193.035 561.952 193.413C561.697 193.93 561.94 194.52 562.292 194.932C562.587 195.276 562.979 195.525 563.384 195.728C565.654 196.871 568.418 196.705 570.709 195.712C571.559 195.344 572.154 194.732 572.604 193.917C572.608 193.914 572.608 193.911 572.611 193.908C572.884 193.413 573 192.851 573.019 192.292ZM565.725 197.086C565.617 196.963 565.304 196.914 565.31 197.138C565.218 196.444 564.311 196.708 564.734 197.372C564.038 196.647 563.421 197.575 564.323 197.987C563.556 198.002 563.985 199.096 564.657 198.62C564.384 198.783 564.559 199.142 564.85 199.096C565.633 198.967 566.427 197.722 565.725 197.086Z" fill="url(#paint28_linear_94_657)"/>
<path d="M564.366 195.036C564.304 194.852 564.258 194.655 564.286 194.462C564.314 194.268 564.424 194.077 564.602 193.994C564.703 193.948 564.832 193.942 564.924 194.007C564.636 193.81 564.363 193.583 564.182 193.284C564.004 192.986 563.933 192.605 564.071 192.282C564.203 191.975 564.519 191.766 564.85 191.717C565.182 191.668 565.525 191.766 565.804 191.947C565.632 191.453 565.363 190.979 565.307 190.46C565.252 189.937 565.494 189.326 566.004 189.197C566.347 189.111 566.706 189.267 567.004 189.464C567.617 189.873 568.099 190.475 568.365 191.164C568.442 190.945 568.519 190.724 568.654 190.534C568.786 190.343 568.985 190.186 569.215 190.159C569.592 190.109 569.93 190.408 570.126 190.736C570.332 191.087 570.442 191.496 570.433 191.901C570.421 192.574 570.108 193.198 569.801 193.798C569.979 193.644 570.273 193.69 570.433 193.862C570.651 194.096 570.617 194.449 570.494 194.723C570.393 194.953 570.224 195.147 570.04 195.322C569.016 196.293 567.519 196.647 566.142 196.487C565.629 196.425 565.218 196.198 564.847 195.835L564.844 195.832C564.617 195.611 564.467 195.328 564.366 195.036Z" fill="url(#paint29_linear_94_657)"/>
<path d="M561.792 192.667C561.924 192.903 561.844 193.195 561.844 193.195C561.844 193.195 561.556 193.103 561.424 192.866C561.292 192.63 561.372 192.338 561.372 192.338C561.372 192.338 561.66 192.43 561.792 192.667ZM561.01 193.167C561.381 193.146 561.697 193.416 561.697 193.416C561.697 193.416 561.415 193.721 561.044 193.745C560.672 193.767 560.356 193.496 560.356 193.496C560.356 193.496 560.642 193.189 561.01 193.167ZM569.138 197.962C569.006 197.907 568.942 197.759 568.942 197.759C568.942 197.759 569.092 197.701 569.227 197.756C569.359 197.812 569.423 197.959 569.423 197.959C569.423 197.959 569.273 198.017 569.138 197.962ZM569.301 197.492C569.153 197.624 568.93 197.618 568.93 197.618C568.93 197.618 568.948 197.397 569.095 197.264C569.242 197.132 569.466 197.138 569.466 197.138C569.466 197.138 569.448 197.36 569.301 197.492Z" fill="#479DA3"/>
<path d="M569.098 189.719C568.911 189.913 568.608 189.922 568.608 189.922C568.608 189.922 568.611 189.618 568.798 189.424C568.985 189.23 569.288 189.221 569.288 189.221C569.288 189.221 569.285 189.525 569.098 189.719ZM564.543 191.256C564.718 191.323 564.807 191.514 564.807 191.514C564.807 191.514 564.614 191.597 564.439 191.529C564.264 191.462 564.175 191.271 564.175 191.271C564.175 191.271 564.369 191.191 564.543 191.256ZM568.393 189.117C568.522 189.467 568.356 189.848 568.356 189.848C568.356 189.848 567.982 189.664 567.853 189.316C567.724 188.966 567.89 188.585 567.89 188.585C567.89 188.585 568.264 188.766 568.393 189.117ZM565.273 198.684C565.206 198.694 565.135 198.697 565.074 198.687C564.982 198.675 564.887 198.635 564.829 198.561C564.78 198.5 564.749 198.402 564.78 198.325C564.819 198.211 564.967 198.239 565.034 198.153C565.071 198.107 565.071 198.042 565.065 197.981C565.056 197.922 565.043 197.861 565.059 197.802C565.074 197.744 565.129 197.692 565.187 197.704C565.23 197.713 565.258 197.756 565.286 197.787C565.304 197.805 565.326 197.824 565.353 197.821C565.464 197.818 565.488 197.655 565.605 197.676C565.724 197.698 565.792 197.824 565.825 197.928C565.884 198.113 565.856 198.319 565.727 198.469C565.611 198.611 565.442 198.663 565.273 198.684Z" fill="#7BBFBA"/>
<path d="M565.178 202.64C564.522 201.672 563.682 201.134 562.581 201.435C561.854 199.785 559.654 200.052 559.115 201.764C558.084 201.469 557.179 201.912 556.323 202.64H565.178Z" fill="#7BBFBA"/>
<path d="M510.501 201.34C509.694 198.771 506.385 198.365 505.293 200.845C503.928 200.47 502.83 200.959 501.931 201.955C501.49 201.398 500.447 201.18 499.671 201.635C499.045 199.643 496.481 199.33 495.637 201.254C494.355 200.901 493.377 201.531 492.613 202.655H501.391H502.925H514.7C513.409 201.564 512.05 200.897 510.501 201.34Z" fill="url(#paint30_linear_94_657)"/>
<path d="M504.998 202.64C504.342 201.672 503.501 201.134 502.4 201.435C501.673 199.785 499.474 200.052 498.934 201.764C497.904 201.469 496.999 201.912 496.143 202.64H504.998Z" fill="url(#paint31_linear_94_657)"/>
<path d="M509.452 199.158C509.277 199.302 509.023 199.284 509.023 199.284C509.023 199.284 509.053 199.032 509.228 198.884C509.403 198.74 509.658 198.758 509.658 198.758C509.658 198.758 509.627 199.013 509.452 199.158ZM508.918 198.589C508.995 198.893 508.82 199.198 508.82 199.198C508.82 199.198 508.523 199.01 508.449 198.706C508.372 198.402 508.547 198.097 508.547 198.097C508.547 198.097 508.842 198.285 508.918 198.589Z" fill="#479DA3"/>
<path d="M498.008 201.159C497.95 201.377 497.729 201.509 497.729 201.509C497.729 201.509 497.606 201.285 497.668 201.066C497.726 200.848 497.947 200.716 497.947 200.716C497.947 200.716 498.067 200.937 498.008 201.159ZM497.245 201.002C497.481 201.205 497.514 201.555 497.514 201.555C497.514 201.555 497.165 201.574 496.929 201.371C496.692 201.168 496.659 200.817 496.659 200.817C496.659 200.817 497.008 200.799 497.245 201.002Z" fill="#7BBFBA"/>
<path d="M477.38 202.64C476.887 201.909 476.252 201.503 475.42 201.73C474.871 200.482 473.212 200.688 472.804 201.979C472.025 201.755 471.344 202.09 470.697 202.64H477.38Z" fill="url(#paint32_linear_94_657)"/>
<path d="M474.623 202.305C474.623 202.305 474.816 201.927 475.421 201.73L475.322 201.54C474.964 201.715 474.694 202.01 474.623 202.305ZM472.804 201.979C472.804 201.979 473.172 202.148 473.319 202.345C473.2 202.102 473.043 201.933 472.859 201.832L472.804 201.979Z" fill="#479DA3"/>
<path d="M570.19 202.492H470.142V202.824H570.19V202.492Z" fill="#133B53"/>
<path d="M296.275 279.145H163.419C159.762 279.145 156.799 276.176 156.799 272.513V152.963C156.799 149.3 159.762 146.331 163.419 146.331H296.275C299.931 146.331 302.894 149.3 302.894 152.963V272.513C302.894 276.176 299.931 279.145 296.275 279.145Z" fill="white"/>
<path opacity="0.42" d="M283.496 231.807H176.031C173.559 231.807 171.553 229.797 171.553 227.32V161.84C171.553 159.362 173.559 157.352 176.031 157.352H283.496C285.969 157.352 287.975 159.362 287.975 161.84V227.32C287.975 229.797 285.969 231.807 283.496 231.807Z" fill="#85BDFF"/>
<path d="M183.157 231.807H276.374C282.782 231.807 289.094 233.028 287.978 224.044V220.718H171.553V224.044C170.759 233.028 176.749 231.807 183.157 231.807Z" fill="#61BCFF"/>
<path d="M237.114 241.151H176.662C175.609 241.151 174.755 242.005 174.755 243.058C174.755 244.111 175.609 244.965 176.662 244.965H237.114C238.167 244.965 239.021 244.111 239.021 243.058C239.021 242.005 238.167 241.151 237.114 241.151Z" fill="url(#paint33_linear_94_657)" fill-opacity="0.48"/>
<path d="M283.298 251.302H176.395C175.489 251.302 174.755 252.037 174.755 252.942C174.755 253.848 175.489 254.582 176.395 254.582H283.298C284.204 254.582 284.938 253.848 284.938 252.942C284.938 252.037 284.204 251.302 283.298 251.302Z" fill="url(#paint34_linear_94_657)" fill-opacity="0.48"/>
<path d="M283.298 257.975H176.395C175.489 257.975 174.755 258.709 174.755 259.615C174.755 260.52 175.489 261.254 176.395 261.254H283.298C284.204 261.254 284.938 260.52 284.938 259.615C284.938 258.709 284.204 257.975 283.298 257.975Z" fill="url(#paint35_linear_94_657)" fill-opacity="0.48"/>
<path d="M283.298 264.644H176.395C175.489 264.644 174.755 265.379 174.755 266.284C174.755 267.19 175.489 267.924 176.395 267.924H283.298C284.204 267.924 284.938 267.19 284.938 266.284C284.938 265.379 284.204 264.644 283.298 264.644Z" fill="url(#paint36_linear_94_657)" fill-opacity="0.48"/>
<path d="M264.492 244.965C265.776 244.965 266.816 243.933 266.816 242.66C266.816 241.387 265.776 240.355 264.492 240.355C263.207 240.355 262.167 241.387 262.167 242.66C262.167 243.933 263.207 244.965 264.492 244.965Z" fill="url(#paint37_linear_94_657)" fill-opacity="0.48"/>
<path d="M273.411 244.965C274.695 244.965 275.736 243.933 275.736 242.66C275.736 241.387 274.695 240.355 273.411 240.355C272.127 240.355 271.086 241.387 271.086 242.66C271.086 243.933 272.127 244.965 273.411 244.965Z" fill="url(#paint38_linear_94_657)" fill-opacity="0.48"/>
<path d="M282.328 244.965C283.612 244.965 284.653 243.933 284.653 242.66C284.653 241.387 283.612 240.355 282.328 240.355C281.044 240.355 280.003 241.387 280.003 242.66C280.003 243.933 281.044 244.965 282.328 244.965Z" fill="url(#paint39_linear_94_657)" fill-opacity="0.48"/>
<path d="M245.34 189.983H273.792C273.657 189.479 272.908 187.758 269.099 188.419C269.715 187.869 270.123 187.021 269.951 186.212C269.899 185.969 269.795 185.733 269.62 185.558C269.461 185.401 269.255 185.299 269.044 185.226C267.544 184.685 264.918 186.756 264.918 186.756C268.136 181.691 259.366 179.564 259.308 185.976C259.308 185.976 258.023 183.674 256.615 184.31C256.044 184.639 256.397 185.625 256.652 186.056C252.545 184.055 248.806 185.284 250.545 187.565C246.508 187.648 245.34 189.983 245.34 189.983ZM191.064 177.855H208.278C208.195 177.551 207.741 176.509 205.437 176.909C205.808 176.577 206.057 176.064 205.953 175.575C205.922 175.427 205.857 175.283 205.753 175.178C205.658 175.083 205.532 175.022 205.404 174.976C204.496 174.65 202.907 175.901 202.907 175.901C204.851 172.836 199.548 171.549 199.511 175.427C199.511 175.427 198.732 174.035 197.883 174.419C197.536 174.619 197.751 175.215 197.904 175.477C195.42 174.266 193.156 175.009 194.211 176.389C191.773 176.442 191.064 177.855 191.064 177.855Z" fill="white"/>
<path d="M202.931 183.228H198.002V192.378H202.931V183.228Z" fill="white"/>
<path d="M198.002 185.548V186.431L202.931 185.865V185.548H198.002Z" fill="url(#paint40_linear_94_657)"/>
<path d="M203.511 184.442H197.425V185.545H203.511V184.442Z" fill="url(#paint41_linear_94_657)"/>
<path d="M262.93 220.918H279.325C279.095 220.171 278.5 219.584 277.819 219.317C277.086 219.031 276.276 219.074 275.524 219.289C275.662 219.249 275.85 219 275.945 218.896C276.178 218.644 276.362 218.379 276.414 218.029C276.472 217.642 276.359 217.245 276.119 216.938C275.715 216.425 275.012 216.24 274.383 216.305C274.353 216.308 274.319 216.311 274.288 216.317C274.166 216.335 274.043 216.366 273.929 216.412C273.426 216.609 272.979 216.953 272.598 217.334C272.528 217.405 272.454 217.479 272.39 217.556C272.39 217.556 273.457 216.667 273.706 215.994C274.632 214.076 272.675 211.292 270.24 212.082C269.261 212.497 268.464 213.342 267.936 214.338C269.884 211.415 266.654 209.638 265.507 212.269C266.215 210.099 265.157 207.834 263.019 209.107C262.988 209.119 262.961 209.131 262.93 209.144V220.918Z" fill="url(#paint42_linear_94_657)"/>
<path d="M262.93 220.918H272.589C272.454 220.479 272.104 220.131 271.703 219.974C271.27 219.805 270.795 219.83 270.35 219.959C270.577 219.52 270.267 218.926 269.835 218.754C269.402 218.582 268.918 218.727 268.503 218.939C268.862 218.77 269.132 218.416 269.279 218.017C269.825 216.886 268.672 215.247 267.237 215.712C266.66 215.954 266.191 216.452 265.878 217.039C267.025 215.318 265.123 214.27 264.448 215.822C265.105 214.129 263.838 213.133 262.93 213.517V220.918Z" fill="url(#paint43_linear_94_657)"/>
<path d="M272.945 211.658C272.684 211.891 272.31 211.86 272.31 211.86C272.31 211.86 272.356 211.449 272.614 211.215C272.874 210.981 273.249 211.012 273.249 211.012C273.249 211.012 273.203 211.424 272.945 211.658Z" fill="#479DA3"/>
<path d="M265.494 214.375C265.301 214.722 264.884 214.829 264.884 214.829C264.884 214.829 264.78 214.368 264.973 214.021C265.166 213.674 265.583 213.566 265.583 213.566C265.583 213.566 265.688 214.024 265.494 214.375Z" fill="#7BBFBA"/>
<path d="M272.157 210.732C272.267 211.224 272.01 211.719 272.01 211.719C272.01 211.719 271.574 211.415 271.464 210.92C271.353 210.428 271.611 209.933 271.611 209.933C271.611 209.933 272.046 210.241 272.157 210.732Z" fill="#479DA3"/>
<path d="M184.742 220.875L184.994 217.215L182.972 214.866L183.095 214.768L184.288 215.788L184.463 214.768L184.65 214.817L184.616 216.09L185.104 216.563L185.288 212.823L184.297 211.593L184.408 211.501L185.432 212.322L185.5 210.367H185.766L185.944 212.77L186.202 215.161L187.536 213.711L187.662 213.794L187.177 214.562L188.024 214.55V214.691L187.098 214.833L186.187 216.262L186.395 220.875H184.742Z" fill="#994F61"/>
<path d="M193.373 207.631C193.388 207.177 193.355 206.706 193.165 206.291C192.974 205.876 192.6 205.526 192.149 205.462C191.889 205.425 191.597 205.498 191.438 205.707C191.947 205.074 192.41 204.38 192.612 203.593C192.812 202.806 192.714 201.906 192.189 201.285C191.686 200.685 190.846 200.427 190.073 200.541C189.3 200.655 188.6 201.106 188.094 201.7C188.15 200.476 188.432 199.244 188.208 198.039C187.984 196.834 187.03 195.629 185.809 195.685C184.981 195.722 184.285 196.315 183.757 196.954C182.662 198.282 181.987 199.951 181.852 201.669C181.536 201.232 181.211 200.79 180.788 200.455C180.365 200.12 179.819 199.905 179.285 199.991C178.408 200.135 177.853 201.027 177.638 201.89C177.411 202.812 177.445 203.796 177.733 204.702C178.212 206.196 179.331 207.382 180.417 208.514C179.917 208.292 179.288 208.59 179.049 209.082C178.721 209.749 179.034 210.517 179.488 211.046C179.871 211.492 180.377 211.814 180.905 212.079C183.846 213.557 187.426 213.345 190.395 212.057C191.496 211.578 192.266 210.788 192.852 209.731C192.855 209.728 192.855 209.721 192.858 209.718C193.198 209.085 193.346 208.357 193.373 207.631ZM183.926 213.84C183.788 213.68 183.383 213.615 183.389 213.907C183.27 213.007 182.095 213.348 182.644 214.209C181.742 213.268 180.941 214.47 182.11 215.008C181.119 215.029 181.671 216.446 182.543 215.828C182.19 216.04 182.414 216.505 182.794 216.446C183.803 216.277 184.834 214.667 183.926 213.84Z" fill="url(#paint44_linear_94_657)"/>
<path d="M182.162 211.184C182.08 210.945 182.024 210.689 182.061 210.437C182.098 210.185 182.239 209.94 182.469 209.832C182.601 209.771 182.77 209.761 182.886 209.847C182.515 209.592 182.156 209.297 181.926 208.91C181.693 208.523 181.604 208.028 181.782 207.613C181.954 207.213 182.362 206.943 182.788 206.878C183.218 206.814 183.659 206.943 184.024 207.18C183.8 206.537 183.454 205.929 183.38 205.252C183.307 204.576 183.622 203.783 184.279 203.617C184.724 203.504 185.19 203.71 185.573 203.965C186.368 204.496 186.993 205.274 187.337 206.165C187.435 205.883 187.536 205.594 187.708 205.348C187.88 205.102 188.138 204.899 188.432 204.862C188.92 204.798 189.358 205.185 189.61 205.609C189.877 206.064 190.018 206.593 190.009 207.118C189.993 207.988 189.588 208.799 189.19 209.574C189.42 209.374 189.803 209.435 190.009 209.657C190.291 209.958 190.245 210.416 190.088 210.772C189.956 211.071 189.736 211.323 189.499 211.547C188.171 212.804 186.233 213.265 184.451 213.053C183.788 212.976 183.254 212.678 182.773 212.208C182.77 212.205 182.77 212.205 182.767 212.202C182.488 211.928 182.294 211.565 182.162 211.184Z" fill="url(#paint45_linear_94_657)"/>
<path d="M178.831 208.117C179 208.424 178.899 208.802 178.899 208.802C178.899 208.802 178.525 208.686 178.356 208.378C178.187 208.071 178.289 207.693 178.289 207.693C178.289 207.693 178.663 207.81 178.831 208.117ZM177.819 208.766C178.298 208.738 178.709 209.088 178.709 209.088C178.709 209.088 178.341 209.485 177.862 209.512C177.384 209.54 176.973 209.19 176.973 209.19C176.973 209.19 177.338 208.793 177.819 208.766ZM188.346 214.974C188.174 214.9 188.092 214.71 188.092 214.71C188.092 214.71 188.288 214.636 188.46 214.707C188.631 214.78 188.714 214.971 188.714 214.971C188.714 214.971 188.518 215.045 188.346 214.974ZM188.555 214.365C188.365 214.538 188.076 214.525 188.076 214.525C188.076 214.525 188.098 214.236 188.291 214.067C188.481 213.895 188.769 213.907 188.769 213.907C188.769 213.907 188.748 214.196 188.555 214.365Z" fill="#23B779"/>
<path d="M188.294 204.3C188.048 204.552 187.659 204.564 187.659 204.564C187.659 204.564 187.662 204.171 187.907 203.922C188.153 203.67 188.542 203.657 188.542 203.657C188.542 203.657 188.536 204.051 188.294 204.3ZM182.395 206.291C182.622 206.377 182.739 206.623 182.739 206.623C182.739 206.623 182.488 206.728 182.261 206.642C182.034 206.556 181.917 206.31 181.917 206.31C181.917 206.31 182.169 206.205 182.395 206.291ZM187.38 203.519C187.545 203.971 187.331 204.466 187.331 204.466C187.331 204.466 186.846 204.229 186.68 203.777C186.515 203.325 186.73 202.831 186.73 202.831C186.73 202.831 187.214 203.067 187.38 203.519ZM183.34 215.911C183.251 215.924 183.162 215.927 183.083 215.914C182.963 215.899 182.843 215.847 182.764 215.751C182.699 215.672 182.662 215.546 182.699 215.444C182.751 215.297 182.941 215.333 183.03 215.223C183.079 215.161 183.079 215.078 183.07 215.002C183.061 214.925 183.043 214.848 183.061 214.771C183.079 214.697 183.15 214.627 183.227 214.645C183.285 214.657 183.319 214.713 183.356 214.753C183.377 214.777 183.408 214.799 183.441 214.799C183.583 214.796 183.616 214.584 183.767 214.611C183.923 214.639 184.009 214.802 184.052 214.94C184.129 215.18 184.092 215.444 183.926 215.641C183.776 215.813 183.561 215.884 183.34 215.911Z" fill="#24FEA3"/>
<path d="M245.959 180.311L211.063 179.712L190.849 199.201H206.385H250.017H265.553L245.959 180.311Z" fill="url(#paint46_linear_94_657)"/>
<path d="M263.826 199.201H241.149V219.526H263.826V199.201Z" fill="white"/>
<path d="M263.823 199.201H261.344V219.526H263.823V199.201Z" fill="url(#paint47_linear_94_657)"/>
<path d="M243.628 199.201H241.149V219.526H243.628V199.201Z" fill="url(#paint48_linear_94_657)"/>
<path d="M261.345 202.142H243.628V202.391H261.345V202.142Z" fill="#E1ECEF"/>
<path d="M261.345 205.007H243.628V205.256H261.345V205.007Z" fill="#E1ECEF"/>
<path d="M261.345 207.868H243.628V208.117H261.345V207.868Z" fill="#E1ECEF"/>
<path d="M261.345 210.733H243.628V210.981H261.345V210.733Z" fill="#E1ECEF"/>
<path d="M261.345 213.594H243.628V213.843H261.345V213.594Z" fill="#E1ECEF"/>
<path d="M261.345 216.458H243.628V216.707H261.345V216.458Z" fill="#E1ECEF"/>
<path d="M243.628 202.142H241.149V202.391H243.628V202.142Z" fill="#B72E41"/>
<path d="M243.628 205.007H241.149V205.256H243.628V205.007Z" fill="#B72E41"/>
<path d="M243.628 207.868H241.149V208.117H243.628V207.868Z" fill="#B72E41"/>
<path d="M243.628 210.733H241.149V210.981H243.628V210.733Z" fill="#B72E41"/>
<path d="M243.628 213.594H241.149V213.843H243.628V213.594Z" fill="#B72E41"/>
<path d="M243.628 216.458H241.149V216.707H243.628V216.458Z" fill="#B72E41"/>
<path d="M263.823 202.142H261.344V202.391H263.823V202.142Z" fill="#B72E41"/>
<path d="M263.823 205.007H261.344V205.256H263.823V205.007Z" fill="#B72E41"/>
<path d="M263.823 207.868H261.344V208.117H263.823V207.868Z" fill="#B72E41"/>
<path d="M263.823 210.733H261.344V210.981H263.823V210.733Z" fill="#B72E41"/>
<path d="M263.823 213.594H261.344V213.843H263.823V213.594Z" fill="#B72E41"/>
<path d="M263.823 216.458H261.344V216.707H263.823V216.458Z" fill="#B72E41"/>
<path d="M215.253 199.201H192.576V219.526H215.253V199.201Z" fill="white"/>
<path d="M215.059 202.142H192.576V202.391H215.059V202.142Z" fill="#E1ECEF"/>
<path d="M215.059 205.007H192.576V205.256H215.059V205.007Z" fill="#E1ECEF"/>
<path d="M215.059 207.868H192.576V208.117H215.059V207.868Z" fill="#E1ECEF"/>
<path d="M215.059 210.732H192.576V210.981H215.059V210.732Z" fill="#E1ECEF"/>
<path d="M215.059 213.594H192.576V213.843H215.059V213.594Z" fill="#E1ECEF"/>
<path d="M215.059 216.458H192.576V216.707H215.059V216.458Z" fill="#E1ECEF"/>
<path d="M211.381 203.378H196.45V219.526H211.381V203.378Z" fill="url(#paint49_linear_94_657)"/>
<path d="M211.381 204.088L196.45 206.516V203.378H211.381V204.088Z" fill="url(#paint50_linear_94_657)"/>
<path d="M215.252 219.526H214.262L214.881 199.201H215.252V219.526Z" fill="#9BB8CC"/>
<path d="M215.253 199.536L192.576 200.777V199.201H215.253V199.536Z" fill="url(#paint51_linear_94_657)"/>
<path d="M243.628 199.201V200.642L261.345 199.671V199.201H243.628Z" fill="url(#paint52_linear_94_657)"/>
<path d="M261.344 199.201V199.671L263.826 199.536V199.201H261.344Z" fill="#B72E41"/>
<path d="M241.149 199.201V200.777L243.628 200.642V199.201H241.149Z" fill="url(#paint53_linear_94_657)"/>
<path d="M241.15 219.526H215.253V187.927L228.2 177.8L241.15 187.927V219.526Z" fill="white"/>
<path d="M228.2 177.8L215.253 187.927V190.217L227.599 180.652L241.15 191.25V187.927L228.2 177.8Z" fill="url(#paint54_linear_94_657)"/>
<path d="M243.205 188.195L228.199 176.912L213.207 188.308L214.667 189.771L228.199 179.193L241.677 189.728L243.205 188.195Z" fill="white"/>
<path d="M264.532 219.526H191.085V220.918H264.532V219.526Z" fill="url(#paint55_linear_94_657)"/>
<path d="M208.918 206.875H198.95V219.526H208.918V206.875Z" fill="white"/>
<path d="M203.56 207.453H199.67V218.822H203.56V207.453Z" fill="url(#paint56_linear_94_657)"/>
<path d="M208.158 207.453H204.269V218.822H208.158V207.453Z" fill="url(#paint57_linear_94_657)"/>
<path d="M208.918 206.697H198.949H198.854H198.729L198.606 219.526H198.949V206.875H208.918V206.697Z" fill="#B72E41"/>
<path d="M259.562 206.875H245.318V215.472H259.562V206.875Z" fill="white"/>
<path d="M248.376 207.453H245.98V214.799H248.376V207.453Z" fill="url(#paint58_linear_94_657)"/>
<path d="M255.9 207.453H249.072V214.799H255.9V207.453Z" fill="url(#paint59_linear_94_657)"/>
<path d="M258.992 207.453H256.596V214.799H258.992V207.453Z" fill="url(#paint60_linear_94_657)"/>
<path d="M259.562 206.765H245.318H245.106L244.931 215.472H245.318V206.875H259.562V206.765Z" fill="#9BB8CC"/>
<path d="M245.318 215.401H259.562V215.604L244.931 216.225V215.401H245.318Z" fill="#9BB8CC"/>
<path d="M223.249 207.453H219.359V218.822H223.249V207.453Z" fill="url(#paint61_linear_94_657)"/>
<path d="M227.847 207.453H223.958V218.822H227.847V207.453Z" fill="url(#paint62_linear_94_657)"/>
<path d="M232.444 207.453H228.555V218.822H232.444V207.453Z" fill="url(#paint63_linear_94_657)"/>
<path d="M237.043 207.453H233.153V218.822H237.043V207.453Z" fill="url(#paint64_linear_94_657)"/>
<path d="M237.497 206.765H218.418L218.124 219.526H218.722V206.875H237.497V206.765Z" fill="#9BB8CC"/>
<path d="M227.847 188.127H223.958V199.496H227.847V188.127Z" fill="url(#paint65_linear_94_657)"/>
<path d="M232.444 188.127H228.555V199.496H232.444V188.127Z" fill="url(#paint66_linear_94_657)"/>
<path d="M233.07 187.439H223.052L222.758 200.2H223.356V187.549H233.07V187.439Z" fill="#9BB8CC"/>
<path d="M238.386 200.117H218.016V201.165H238.386V200.117Z" fill="#133B53"/>
<path d="M238.386 201.165H218.016V200.117L217.234 201.165V202.151L238.386 201.398V201.165Z" fill="#9BB8CC"/>
<path d="M219.24 197.258H218.909V200.117H219.24V197.258Z" fill="#7BBFBA"/>
<path d="M230.273 197.258H229.942V200.117H230.273V197.258Z" fill="#7BBFBA"/>
<path d="M226.595 197.258H226.264V200.117H226.595V197.258Z" fill="#7BBFBA"/>
<path d="M233.951 197.258H233.62V200.117H233.951V197.258Z" fill="#7BBFBA"/>
<path d="M222.918 197.258H222.586V200.117H222.918V197.258Z" fill="#7BBFBA"/>
<path d="M237.628 197.258H237.297V200.117H237.628V197.258Z" fill="#7BBFBA"/>
<path d="M219.24 197.258H218.909V197.529H219.24V197.258Z" fill="#4A938C"/>
<path d="M230.273 197.258H229.942V197.529H230.273V197.258Z" fill="#4A938C"/>
<path d="M226.595 197.258H226.264V197.529H226.595V197.258Z" fill="#4A938C"/>
<path d="M233.951 197.258H233.62V197.529H233.951V197.258Z" fill="#4A938C"/>
<path d="M222.918 197.258H222.586V197.529H222.918V197.258Z" fill="#4A938C"/>
<path d="M237.628 197.258H237.297V197.529H237.628V197.258Z" fill="#4A938C"/>
<path d="M237.926 197.258H218.452V196.536L237.926 196.702V197.258Z" fill="#7BBFBA"/>
<path d="M192.042 218.026H180.721V218.465H192.042V218.026Z" fill="#B6CCD8"/>
<path d="M192.042 219.808H180.721V220.248H192.042V219.808Z" fill="#B6CCD8"/>
<path d="M181.921 220.875H181.154C181.108 220.875 181.068 220.838 181.068 220.795V217.506C181.068 217.488 181.074 217.473 181.086 217.457L181.47 216.993C181.503 216.953 181.571 216.953 181.605 216.993L181.988 217.457C182 217.473 182.006 217.488 182.006 217.506V220.795C182.006 220.838 181.967 220.875 181.921 220.875ZM183.525 220.875H182.758C182.712 220.875 182.672 220.838 182.672 220.795V217.506C182.672 217.488 182.678 217.473 182.69 217.457L183.074 216.993C183.108 216.953 183.175 216.953 183.209 216.993L183.592 217.457C183.605 217.473 183.611 217.488 183.611 217.506V220.795C183.611 220.838 183.571 220.875 183.525 220.875ZM185.129 220.875H184.362C184.316 220.875 184.276 220.838 184.276 220.795V217.506C184.276 217.488 184.282 217.473 184.295 217.457L184.678 216.993C184.712 216.953 184.779 216.953 184.813 216.993L185.196 217.457C185.209 217.473 185.215 217.488 185.215 217.506V220.795C185.215 220.838 185.178 220.875 185.129 220.875ZM186.733 220.875H185.966C185.92 220.875 185.88 220.838 185.88 220.795V217.506C185.88 217.488 185.887 217.473 185.899 217.457L186.282 216.993C186.316 216.953 186.383 216.953 186.417 216.993L186.801 217.457C186.813 217.473 186.819 217.488 186.819 217.506V220.795C186.819 220.838 186.782 220.875 186.733 220.875ZM188.34 220.875H187.571C187.525 220.875 187.485 220.838 187.485 220.795V217.506C187.485 217.488 187.491 217.473 187.503 217.457L187.886 216.993C187.92 216.953 187.988 216.953 188.021 216.993L188.405 217.457C188.417 217.473 188.423 217.488 188.423 217.506V220.795C188.423 220.838 188.386 220.875 188.34 220.875ZM189.945 220.875H189.178C189.132 220.875 189.092 220.838 189.092 220.795V217.506C189.092 217.488 189.098 217.473 189.11 217.457L189.494 216.993C189.527 216.953 189.595 216.953 189.629 216.993L190.012 217.457C190.024 217.473 190.03 217.488 190.03 217.506V220.795C190.03 220.838 189.991 220.875 189.945 220.875ZM191.549 220.875H190.782C190.736 220.875 190.696 220.838 190.696 220.795V217.506C190.696 217.488 190.702 217.473 190.714 217.457L191.098 216.993C191.132 216.953 191.199 216.953 191.233 216.993L191.616 217.457C191.629 217.473 191.635 217.488 191.635 217.506V220.795C191.635 220.838 191.595 220.875 191.549 220.875Z" fill="white"/>
<path d="M278.162 218.026H262.114V218.465H278.162V218.026Z" fill="#B6CCD8"/>
<path d="M278.162 219.808H262.114V220.248H278.162V219.808Z" fill="#B6CCD8"/>
<path d="M263.313 220.875H262.546C262.5 220.875 262.46 220.838 262.46 220.795V217.506C262.46 217.488 262.467 217.473 262.479 217.457L262.862 216.993C262.896 216.953 262.963 216.953 262.997 216.993L263.381 217.457C263.393 217.473 263.399 217.488 263.399 217.506V220.795C263.399 220.838 263.359 220.875 263.313 220.875ZM264.917 220.875H264.151C264.105 220.875 264.065 220.838 264.065 220.795V217.506C264.065 217.488 264.071 217.473 264.083 217.457L264.466 216.993C264.5 216.953 264.568 216.953 264.601 216.993L264.985 217.457C264.997 217.473 265.003 217.488 265.003 217.506V220.795C265.003 220.838 264.963 220.875 264.917 220.875ZM266.522 220.875H265.755C265.709 220.875 265.669 220.838 265.669 220.795V217.506C265.669 217.488 265.675 217.473 265.687 217.457L266.071 216.993C266.104 216.953 266.172 216.953 266.206 216.993L266.589 217.457C266.601 217.473 266.607 217.488 266.607 217.506V220.795C266.607 220.838 266.571 220.875 266.522 220.875ZM268.126 220.875H267.359C267.313 220.875 267.273 220.838 267.273 220.795V217.506C267.273 217.488 267.279 217.473 267.291 217.457L267.675 216.993C267.709 216.953 267.776 216.953 267.81 216.993L268.193 217.457C268.205 217.473 268.212 217.488 268.212 217.506V220.795C268.212 220.838 268.175 220.875 268.126 220.875ZM269.733 220.875H268.966C268.92 220.875 268.88 220.838 268.88 220.795V217.506C268.88 217.488 268.886 217.473 268.899 217.457L269.282 216.993C269.316 216.953 269.383 216.953 269.417 216.993L269.8 217.457C269.813 217.473 269.819 217.488 269.819 217.506V220.795C269.816 220.838 269.779 220.875 269.733 220.875ZM271.337 220.875H270.57C270.524 220.875 270.484 220.838 270.484 220.795V217.506C270.484 217.488 270.491 217.473 270.503 217.457L270.886 216.993C270.92 216.953 270.988 216.953 271.021 216.993L271.405 217.457C271.417 217.473 271.423 217.488 271.423 217.506V220.795C271.423 220.838 271.383 220.875 271.337 220.875ZM272.941 220.875H272.175C272.129 220.875 272.089 220.838 272.089 220.795V217.506C272.089 217.488 272.095 217.473 272.107 217.457L272.49 216.993C272.524 216.953 272.592 216.953 272.625 216.993L273.009 217.457C273.021 217.473 273.027 217.488 273.027 217.506V220.795C273.027 220.838 272.987 220.875 272.941 220.875ZM274.546 220.875H273.779C273.733 220.875 273.693 220.838 273.693 220.795V217.506C273.693 217.488 273.699 217.473 273.711 217.457L274.095 216.993C274.128 216.953 274.196 216.953 274.23 216.993L274.613 217.457C274.625 217.473 274.631 217.488 274.631 217.506V220.795C274.631 220.838 274.592 220.875 274.546 220.875ZM276.15 220.875H275.383C275.337 220.875 275.297 220.838 275.297 220.795V217.506C275.297 217.488 275.303 217.473 275.315 217.457L275.699 216.993C275.733 216.953 275.8 216.953 275.834 216.993L276.217 217.457C276.229 217.473 276.236 217.488 276.236 217.506V220.795C276.236 220.838 276.199 220.875 276.15 220.875ZM277.754 220.875H276.987C276.941 220.875 276.901 220.838 276.901 220.795V217.506C276.901 217.488 276.907 217.473 276.92 217.457L277.303 216.993C277.337 216.953 277.404 216.953 277.438 216.993L277.821 217.457C277.834 217.473 277.84 217.488 277.84 217.506V220.795C277.84 220.838 277.803 220.875 277.754 220.875Z" fill="white"/>
<path d="M279.721 220.752H179.672V221.084H279.721V220.752Z" fill="#133B53"/>
<g filter="url(#filter0_d_94_657)">
<path d="M455.551 222.101H330.58C326.924 222.101 323.961 219.132 323.961 215.469V84.1298C323.961 80.4662 326.924 77.4972 330.58 77.4972H455.551C459.207 77.4972 462.17 80.4662 462.17 84.1298V215.469C462.17 219.132 459.207 222.101 455.551 222.101Z" fill="white"/>
</g>
<path opacity="0.42" d="M446.846 170.559H339.169C336.696 170.559 334.69 168.549 334.69 166.072V93.9833C334.69 91.5061 336.696 89.496 339.169 89.496H446.846C449.318 89.496 451.324 91.5061 451.324 93.9833V166.072C451.324 168.552 449.318 170.559 446.846 170.559Z" fill="#85BDFF"/>
<path d="M343.125 170.559H442.889C447.548 170.559 451.324 166.776 451.324 162.107V158.486H334.69V162.107C334.69 166.776 338.466 170.559 343.125 170.559Z" fill="#61BCFF"/>
<path d="M384.12 181.602H337.393V185.757H384.12V181.602Z" fill="#5ABAAE"/>
<path d="M447.705 192.657H339.177C338.191 192.657 337.393 193.456 337.393 194.442C337.393 195.427 338.191 196.226 339.177 196.226H447.705C448.691 196.226 449.49 195.427 449.49 194.442C449.49 193.456 448.691 192.657 447.705 192.657Z" fill="url(#paint67_linear_94_657)" fill-opacity="0.48"/>
<path d="M447.705 199.92H339.177C338.191 199.92 337.393 200.719 337.393 201.704C337.393 202.69 338.191 203.488 339.177 203.488H447.705C448.691 203.488 449.49 202.69 449.49 201.704C449.49 200.719 448.691 199.92 447.705 199.92Z" fill="url(#paint68_linear_94_657)" fill-opacity="0.48"/>
<path d="M447.705 207.183H339.177C338.191 207.183 337.393 207.982 337.393 208.967C337.393 209.952 338.191 210.751 339.177 210.751H447.705C448.691 210.751 449.49 209.952 449.49 208.967C449.49 207.982 448.691 207.183 447.705 207.183Z" fill="url(#paint69_linear_94_657)" fill-opacity="0.48"/>
<path d="M430.036 183.646C430.257 182.277 429.33 180.987 427.964 180.765C426.597 180.543 425.31 181.472 425.088 182.841C424.867 184.21 425.794 185.5 427.161 185.722C428.527 185.944 429.814 185.015 430.036 183.646Z" fill="url(#paint70_linear_94_657)" fill-opacity="0.48"/>
<path d="M439.648 183.644C439.869 182.276 438.942 180.986 437.575 180.764C436.209 180.541 434.922 181.471 434.7 182.84C434.479 184.209 435.406 185.499 436.772 185.721C438.139 185.943 439.426 185.013 439.648 183.644Z" fill="url(#paint71_linear_94_657)" fill-opacity="0.48"/>
<path d="M449.26 183.647C449.482 182.278 448.554 180.988 447.188 180.766C445.822 180.544 444.534 181.473 444.313 182.842C444.091 184.211 445.019 185.501 446.385 185.723C447.751 185.945 449.038 185.016 449.26 183.647Z" fill="url(#paint72_linear_94_657)" fill-opacity="0.48"/>
<path d="M390.579 165.479C390.579 166.253 389.953 166.88 389.18 166.88C388.407 166.88 387.782 166.253 387.782 165.479C387.782 164.704 388.407 164.077 389.18 164.077C389.953 164.077 390.579 164.704 390.579 165.479ZM395.941 165.479C395.941 166.253 395.315 166.88 394.542 166.88C393.769 166.88 393.143 166.253 393.143 165.479C393.143 164.704 393.769 164.077 394.542 164.077C395.315 164.077 395.941 164.704 395.941 165.479ZM401.299 165.479C401.299 166.253 400.674 166.88 399.901 166.88C399.128 166.88 398.502 166.253 398.502 165.479C398.502 164.704 399.128 164.077 399.901 164.077C400.674 164.077 401.299 164.704 401.299 165.479Z" fill="white"/>
<path d="M344.211 116.961C345.557 114.585 347.772 113.967 351.585 115.273C350.818 113.531 353.118 110.101 356.802 113.734C355.698 107.9 364.43 107.224 364.001 112.87C366.185 110.141 371.955 111.693 369.709 114.951C373.08 114.115 374.442 114.895 376.657 116.964H344.211V116.961ZM442.079 118.267H431.978C431.601 116.961 431.831 115.485 435.953 116.672C437.245 114.268 439.766 116.669 442.079 118.267ZM438.447 110.411H416.36C417.037 108.367 421.037 106.686 426.009 108.094C427.46 105.389 429.81 105.875 432.009 108.899C434.917 107.08 438.055 109.741 438.447 110.411Z" fill="white"/>
<path d="M411.191 120.578V110.534H404.437V115.673L411.191 120.578Z" fill="white"/>
<path d="M411.191 120.578V110.534H404.437V115.673L411.191 120.578Z" fill="white"/>
<path d="M404.437 115.35V115.673L411.191 120.578V115.35H404.437Z" fill="url(#paint73_linear_94_657)"/>
<path d="M433.592 158.081H420.939V129.854L433.592 137.83V158.081Z" fill="url(#paint74_linear_94_657)"/>
<path d="M420.939 157.795H351.079V127.755L385.426 102.638L420.939 127.755V157.795Z" fill="white"/>
<path d="M385.586 101.855L348.288 128.665L350.211 130.954L385.586 104.485L433.616 140.43L435.408 138.045L385.586 101.855Z" fill="url(#paint75_linear_94_657)"/>
<path d="M425.804 134.658H420.939V134.928H425.804V134.658Z" fill="#B72E41"/>
<path d="M431.147 138.54H420.939V138.81H431.147V138.54Z" fill="#B72E41"/>
<path d="M433.588 142.421H420.939V142.692H433.588V142.421Z" fill="#B72E41"/>
<path d="M433.588 146.303H420.939V146.574H433.588V146.303Z" fill="#B72E41"/>
<path d="M433.588 150.185H420.939V150.456H433.588V150.185Z" fill="#B72E41"/>
<path d="M433.588 154.067H420.939V154.337H433.588V154.067Z" fill="#B72E41"/>
<path d="M438.972 156.864H420.939V158.013H438.972V156.864Z" fill="#133B53"/>
<path d="M374.801 130.933H375.197V117.486H374.973L374.801 130.933Z" fill="#9BB8CC"/>
<path d="M364.277 136.769H358.072V136.88H364.277V136.769Z" fill="#F43D4F"/>
<path d="M413.559 136.769H407.354V136.88H413.559V136.769Z" fill="#F43D4F"/>
<path d="M382.583 141.281H364.127V157.961H382.583V141.281Z" fill="url(#paint76_linear_94_657)"/>
<path d="M356.928 136.88V139.283L358.072 139.25V136.88H356.928Z" fill="#9BB8CC"/>
<path d="M414.701 136.88H413.56V137.636L414.701 137.605V136.88Z" fill="#9BB8CC"/>
<path d="M364.277 136.88V139.068L382.528 138.54V136.88H364.277Z" fill="#9BB8CC"/>
<path d="M388.733 136.88V138.358L407.354 137.817V136.88H388.733Z" fill="#9BB8CC"/>
<path d="M407.354 156.258H388.732V157.97H407.354V156.258Z" fill="#7BBFBA"/>
<path d="M407.354 156.258H388.732V157.97H407.354V156.258Z" fill="url(#paint77_linear_94_657)"/>
<path d="M405.71 154.546H390.376V156.258H405.71V154.546Z" fill="url(#paint78_linear_94_657)"/>
<path d="M405.71 155.972H390.376V156.258H405.71V155.972Z" fill="#479DA3"/>
<path d="M382.527 140.719H364.277V141.444H382.527V140.719Z" fill="#133B53"/>
<path d="M351.496 158.013H340.932C341.079 157.46 341.463 157.03 341.901 156.833C342.374 156.621 342.895 156.655 343.38 156.811C343.291 156.781 343.171 156.599 343.11 156.519C342.96 156.332 342.84 156.138 342.806 155.88C342.769 155.594 342.84 155.302 342.996 155.075C343.257 154.697 343.711 154.559 344.116 154.608C344.137 154.611 344.156 154.614 344.177 154.617C344.257 154.629 344.334 154.654 344.41 154.688C344.736 154.832 345.024 155.087 345.269 155.367C345.315 155.419 345.361 155.474 345.404 155.53C345.404 155.53 344.717 154.875 344.558 154.377C343.963 152.963 345.223 150.91 346.791 151.491C347.423 151.796 347.935 152.419 348.275 153.154C347.021 151 349.1 149.69 349.84 151.63C349.383 150.031 350.063 148.359 351.441 149.297C351.462 149.306 351.477 149.315 351.499 149.324V158.013H351.496Z" fill="url(#paint79_linear_94_657)"/>
<path d="M351.496 158.013H345.272C345.361 157.687 345.585 157.432 345.843 157.319C346.122 157.196 346.429 157.214 346.714 157.306C346.57 156.98 346.766 156.544 347.045 156.418C347.324 156.292 347.634 156.397 347.904 156.553C347.674 156.43 347.499 156.166 347.404 155.874C347.055 155.041 347.797 153.833 348.72 154.174C349.091 154.353 349.395 154.721 349.594 155.155C348.855 153.885 350.082 153.114 350.518 154.257C350.094 153.006 350.91 152.275 351.496 152.558V158.013Z" fill="url(#paint80_linear_94_657)"/>
<path d="M345.042 151.187C345.208 151.359 345.45 151.338 345.45 151.338C345.45 151.338 345.419 151.033 345.254 150.861C345.088 150.689 344.846 150.711 344.846 150.711C344.846 150.711 344.876 151.015 345.042 151.187Z" fill="#479DA3"/>
<path d="M349.843 153.188C349.969 153.446 350.235 153.523 350.235 153.523C350.235 153.523 350.303 153.185 350.177 152.927C350.051 152.669 349.784 152.592 349.784 152.592C349.784 152.592 349.72 152.933 349.843 153.188Z" fill="#7BBFBA"/>
<path d="M345.548 150.505C345.478 150.867 345.643 151.233 345.643 151.233C345.643 151.233 345.926 151.009 345.996 150.646C346.067 150.283 345.901 149.918 345.901 149.918C345.901 149.918 345.622 150.142 345.548 150.505Z" fill="#479DA3"/>
<path d="M438.727 155.001L438.855 151.63H439.092L439.242 154.937L438.727 155.001Z" fill="#133B53"/>
<path d="M439.947 157.973H438.045L437.674 155.001H440.318L439.947 157.973Z" fill="#F46E53"/>
<path d="M437.481 154.537L437.567 155.57L440.383 155.613L440.527 154.494L437.481 154.537Z" fill="#F46E53"/>
<path d="M438.681 146.918C438.601 147.105 438.389 147.198 438.389 147.198C438.389 147.198 438.309 146.982 438.389 146.792C438.469 146.604 438.681 146.512 438.681 146.512C438.681 146.512 438.76 146.727 438.681 146.918ZM438.015 146.681C438.202 146.893 438.187 147.21 438.187 147.21C438.187 147.21 437.871 147.182 437.687 146.97C437.5 146.758 437.515 146.442 437.515 146.442C437.515 146.442 437.831 146.466 438.015 146.681ZM441.309 151.639C441.104 151.654 440.926 151.51 440.926 151.51C440.926 151.51 441.079 151.338 441.285 151.322C441.49 151.307 441.668 151.451 441.668 151.451C441.668 151.451 441.515 151.62 441.309 151.639ZM441.208 150.941C441.107 151.205 440.821 151.341 440.821 151.341C440.821 151.341 440.699 151.049 440.8 150.784C440.901 150.52 441.186 150.385 441.186 150.385C441.186 150.385 441.309 150.677 441.208 150.941Z" fill="#7BBFBA"/>
<path d="M442.318 149.641C442.113 148.808 441.598 148.092 440.739 147.628C439.99 147.225 439.098 147.188 438.276 147.339C437.018 147.566 435.96 148.184 435.647 149.503C435.442 150.36 435.475 151.503 435.816 152.324C436.138 153.105 436.859 153.704 437.684 153.876C438.696 154.088 439.957 154.045 440.84 153.461C441.159 153.249 441.472 153.025 441.729 152.742C442.107 152.333 442.26 151.848 442.355 151.31C442.456 150.732 442.447 150.163 442.318 149.641Z" fill="url(#paint81_linear_94_657)"/>
<path d="M438.021 151.879L437.3 151.073L436.536 151.03V150.957L437.156 150.913L436.536 150.151L436.674 149.995L438.288 151.414L438.021 151.879Z" fill="#133B53"/>
<path d="M439.349 149.964L440.141 149.438L440.272 148.925L440.312 148.94L440.303 149.318L440.478 149.186L440.527 149.287L439.588 150.296L439.349 149.964Z" fill="#133B53"/>
<path d="M433.592 143.199H425.988V150.91H433.592V143.199Z" fill="white"/>
<path d="M433.588 143.847H426.641V150.259H433.588V143.847Z" fill="url(#paint82_linear_94_657)"/>
<path d="M425.988 143.199H425.383V151.544H433.591V150.907H425.988V143.199Z" fill="#B72E41"/>
<path d="M385.629 117.486H375.197V130.933H385.629V117.486Z" fill="white"/>
<path d="M380.025 118.095H375.878V130.22H380.025V118.095Z" fill="url(#paint83_linear_94_657)"/>
<path d="M384.929 118.095H380.782V130.22H384.929V118.095Z" fill="url(#paint84_linear_94_657)"/>
<path d="M396.005 117.486H385.573V130.933H396.005V117.486Z" fill="white"/>
<path d="M390.398 118.095H386.251V130.22H390.398V118.095Z" fill="url(#paint85_linear_94_657)"/>
<path d="M395.303 118.095H391.156V130.22H395.303V118.095Z" fill="url(#paint86_linear_94_657)"/>
<path d="M395.753 120.52H375.595V120.852H395.753V120.52Z" fill="white"/>
<path d="M402.177 140.642L393.91 141.005V140.43H402.177V140.642Z" fill="#9BB8CC"/>
<path d="M393.675 154.548H394.056V140.096H393.675V154.548Z" fill="#9BB8CC"/>
<path d="M402.03 154.548H402.41V140.096H402.03V154.548Z" fill="#9BB8CC"/>
<path d="M400.796 150.299H395.293V153.535H400.796V150.299Z" fill="url(#paint87_linear_94_657)"/>
<path d="M400.793 149.641V142.369H399.876C399.459 141.807 398.793 141.441 398.042 141.441C397.29 141.441 396.625 141.807 396.208 142.369H395.291V149.641H400.793Z" fill="url(#paint88_linear_94_657)"/>
<path d="M403.56 139.646H392.527V140.433H403.56V139.646Z" fill="#133B53"/>
<path d="M361.13 127.718H358.867V130.813H361.13V127.718Z" fill="url(#paint89_linear_94_657)"/>
<path d="M373.917 127.718H371.654V130.813H373.917V127.718Z" fill="url(#paint90_linear_94_657)"/>
<path d="M399.493 127.718H397.229V130.813H399.493V127.718Z" fill="url(#paint91_linear_94_657)"/>
<path d="M386.705 127.718H384.441V130.813H386.705V127.718Z" fill="url(#paint92_linear_94_657)"/>
<path d="M412.28 127.718H410.017V130.813H412.28V127.718Z" fill="url(#paint93_linear_94_657)"/>
<path d="M361.13 127.718H358.867V128.081H361.13V127.718Z" fill="#479DA3"/>
<path d="M373.918 127.718H371.654V128.081H373.918V127.718Z" fill="#479DA3"/>
<path d="M399.493 127.718H397.229V128.081H399.493V127.718Z" fill="#479DA3"/>
<path d="M386.706 127.718H384.442V128.081H386.706V127.718Z" fill="#479DA3"/>
<path d="M412.28 127.718H410.017V128.081H412.28V127.718Z" fill="#479DA3"/>
<path d="M412.63 127.355H358.44V127.718H412.63V127.355Z" fill="#7BBFBA"/>
<path d="M418.565 142.013H415.985V146.549H418.565V142.013Z" fill="url(#paint94_linear_94_657)"/>
<path d="M415.624 141.61V146.896H419.025V147.084H415.47V141.61H415.624Z" fill="#9BB8CC"/>
<path d="M355.845 142.013H353.266V146.549H355.845V142.013Z" fill="url(#paint95_linear_94_657)"/>
<path d="M352.904 141.61V146.896H356.308V147.084H352.753V141.61H352.904Z" fill="#9BB8CC"/>
<path d="M385.377 113.712V111.097C384.678 111.146 384.052 111.453 383.592 111.926L385.377 113.712ZM383.359 112.194C383.006 112.658 382.797 113.239 382.797 113.869V113.872H385.033L383.359 112.194ZM387.438 111.813C386.981 111.398 386.386 111.13 385.73 111.093V113.525C386.3 112.953 386.868 112.384 387.438 111.813ZM385.883 113.872H388.346V113.869C388.346 113.18 388.095 112.553 387.68 112.071C387.085 112.67 386.484 113.269 385.883 113.872Z" fill="url(#paint96_linear_94_657)"/>
<path d="M388.748 114.308H382.236C382.236 114.305 382.236 114.305 382.236 114.302C382.236 113.328 382.592 112.446 383.165 111.788C381.877 112.796 381.947 114.545 381.947 114.548H388.748V114.308Z" fill="#9BB8CC"/>
<path d="M348.303 157.973H346.432L346.787 153.096H347.947L348.303 157.973Z" fill="#133B53"/>
<path d="M347.674 136.88H347.061V157.973H347.674V136.88Z" fill="#133B53"/>
<path d="M348.333 136.88H346.401L345.692 133.37H349.042L348.333 136.88Z" fill="#133B53"/>
<path d="M347.974 136.228H346.76L346.312 134.022H348.419L347.974 136.228Z" fill="white"/>
<path d="M348.333 132.479H346.401L345.692 133.37H349.042L348.333 132.479Z" fill="#133B53"/>
<path d="M348.478 136.88H346.26C346.162 136.88 346.079 136.797 346.079 136.699C346.079 136.6 346.162 136.517 346.26 136.517H348.478C348.576 136.517 348.659 136.6 348.659 136.699C348.659 136.797 348.576 136.88 348.478 136.88ZM347.975 153.277H346.763C346.665 153.277 346.582 153.194 346.582 153.096C346.582 152.997 346.665 152.914 346.763 152.914H347.975C348.073 152.914 348.156 152.997 348.156 153.096C348.156 153.197 348.073 153.277 347.975 153.277ZM347.895 132.479C347.895 132.771 347.659 133.007 347.367 133.007C347.076 133.007 346.84 132.771 346.84 132.479C346.84 132.187 347.076 131.95 347.367 131.95C347.659 131.953 347.895 132.187 347.895 132.479Z" fill="#133B53"/>
<path d="M445.079 157.973H443.208L443.563 153.096H444.726L445.079 157.973Z" fill="#133B53"/>
<path d="M444.45 136.88H443.836V157.973H444.45V136.88Z" fill="#133B53"/>
<path d="M445.109 136.88H443.177L442.468 133.37H445.818L445.109 136.88Z" fill="#133B53"/>
<path d="M444.75 136.228H443.536L443.091 134.022H445.198L444.75 136.228Z" fill="white"/>
<path d="M445.109 132.479H443.177L442.468 133.37H445.818L445.109 132.479Z" fill="#133B53"/>
<path d="M445.254 136.88H443.036C442.938 136.88 442.855 136.797 442.855 136.699C442.855 136.6 442.938 136.517 443.036 136.517H445.254C445.352 136.517 445.435 136.6 445.435 136.699C445.435 136.797 445.355 136.88 445.254 136.88ZM444.751 153.277H443.539C443.441 153.277 443.358 153.194 443.358 153.096C443.358 152.997 443.441 152.914 443.539 152.914H444.751C444.849 152.914 444.932 152.997 444.932 153.096C444.932 153.197 444.852 153.277 444.751 153.277ZM444.671 132.479C444.671 132.771 444.435 133.007 444.143 133.007C443.852 133.007 443.616 132.771 443.616 132.479C443.616 132.187 443.852 131.95 444.143 131.95C444.438 131.953 444.671 132.187 444.671 132.479Z" fill="#133B53"/>
<path d="M447.035 157.832H340.315V158.194H447.035V157.832Z" fill="#133B53"/>
<path d="M358.072 136.88V139.25L357.627 157.973H364.277V139.068V136.88H358.072Z" fill="url(#paint97_linear_94_657)"/>
<path d="M407.354 136.88V137.817V157.973H414.114L413.559 137.636V136.88H407.354Z" fill="url(#paint98_linear_94_657)"/>
<path d="M382.527 136.88V138.54V158.081H388.732V138.358V136.88H382.527Z" fill="url(#paint99_linear_94_657)"/>
<path d="M358.072 136.88V136.96V137.615H364.277V136.954V136.88H358.072Z" fill="#B72E41"/>
<path d="M407.354 136.88V136.911V137.615H413.559V136.905V136.88H407.354Z" fill="#B72E41"/>
<path d="M382.527 136.88V136.935V137.618H388.732V136.929V136.88H382.527Z" fill="#B72E41"/>
<path d="M414.7 136.88H356.928L356.676 130.665L414.7 130.813V136.88Z" fill="url(#paint100_linear_94_657)"/>
<g filter="url(#filter1_d_94_657)">
<path d="M463.03 258.762C465.359 244.383 455.614 230.835 441.264 228.501C426.913 226.167 413.392 235.932 411.063 250.311C408.734 264.69 418.479 278.239 432.829 280.573C447.179 282.906 460.701 273.142 463.03 258.762Z" fill="white"/>
</g>
<path d="M437.039 275.608C425.445 275.608 416.013 266.157 416.013 254.539C416.013 242.921 425.445 233.47 437.039 233.47C448.633 233.47 458.065 242.921 458.065 254.539C458.065 266.157 448.633 275.608 437.039 275.608Z" fill="url(#paint101_linear_94_657)"/>
<path d="M338.864 293.256C338.864 293.256 342.122 322.764 343.846 332.421C345.204 340.043 352.149 365.283 352.149 365.283L361.283 367.363L356.716 287.416L338.864 293.256Z" fill="url(#paint102_linear_94_657)"/>
<path d="M351.198 362.363L360.998 363.74L377.058 380.26C378.534 381.913 376.779 383.588 374.568 383.588H369.172L357.547 378.182L357.133 383.588L349.247 383.173L351.198 362.363Z" fill="url(#paint103_linear_94_657)"/>
<path d="M328.058 241.48C328.058 241.48 316.826 234.527 312.139 230.427C307.452 226.33 302.763 222.23 301.094 218.241C299.422 214.252 301.373 210.391 306.805 210.585C310.057 210.702 314.486 215.444 317.387 218.825C320.289 222.203 331.89 235.72 331.89 235.72C331.89 235.72 332.935 240.342 328.058 241.48Z" fill="url(#paint104_linear_94_657)"/>
<path d="M339.898 242.961C338.99 242.986 338.043 242.712 337.153 242.835C338.576 243.539 339.012 245.447 338.208 246.566C337.405 247.685 335.712 248.029 334.184 247.685C329.629 246.665 322.697 239.448 327.89 236.565C330.224 235.268 333.362 236.116 335.843 237.198C337.23 237.801 345.214 242.817 339.898 242.961Z" fill="#FFA476"/>
<path d="M311.881 282.919C311.881 282.919 308.94 316.036 308.559 327.427C308.28 335.799 309.39 366.527 309.39 366.527L318.727 368.636L329.73 289.656L311.881 282.919Z" fill="url(#paint105_linear_94_657)"/>
<path d="M309.243 361.982L318.829 363.349L335.956 380.671C337.331 382.466 333.233 384 330.975 384L323.942 383.585L314.491 377.112L312.709 383.585H303.992L309.243 361.982Z" fill="url(#paint106_linear_94_657)"/>
<path d="M328.337 169.348L329.407 155.65L339.361 155.72L342.459 170.359L328.337 169.348Z" fill="url(#paint107_linear_94_657)"/>
<path d="M305.722 191.081C305.722 191.081 301.455 208.941 300.833 212.749C300.207 216.557 304.409 221.315 306.869 220.245C309.329 219.172 311.148 218.65 312.633 215.696C314.117 212.743 318.795 197.962 318.967 195.842C319.135 193.724 305.722 191.081 305.722 191.081Z" fill="url(#paint108_linear_94_657)"/>
<path d="M313.933 169.56C307.36 177.779 304.4 186.449 302.467 196.447C309.412 196.88 317.221 198.734 324.196 198.525C326.272 193.97 328.248 189.332 329.183 184.488C330.119 179.644 329.962 174.536 327.886 170.089C324.816 163.512 318.377 164.003 313.933 169.56Z" fill="url(#paint109_linear_94_657)"/>
<path d="M354.621 223.657L356.544 237.509C356.544 237.509 364.559 297.617 361.698 302.885C358.836 308.153 310.103 305.371 305.655 302.052C302.965 300.045 311.882 274.978 311.882 255.879C311.882 251.72 309.391 245.063 312.296 230.504C314.452 219.704 318.522 216.778 318.522 216.778L354.621 223.657Z" fill="url(#paint110_linear_94_657)"/>
<path d="M311.985 174.45C311.985 174.45 321.638 166.628 330.748 165.586C339.858 164.547 350.354 167.605 352.98 171.023C355.605 174.441 356.498 183.243 357.547 188.911C358.596 194.575 352.566 206.38 352.566 205.551C352.566 200.753 356.967 227.382 357.792 229.923C358.651 232.567 356.587 234.303 356.587 234.303C356.587 234.303 350.348 234.239 335.395 235.05C325.583 235.582 311.467 233.003 311.467 233.003C311.467 233.003 311.246 233.393 311.62 229.004C311.706 227.993 317.918 209.78 318.111 208.461C318.402 206.454 310.348 179.964 311.985 174.45Z" fill="url(#paint111_linear_94_657)"/>
<path d="M357.627 190.995C357.627 190.995 355.734 200.618 354.366 202.843C352.995 205.068 352.995 205.068 352.995 205.068L354.366 214.691C354.366 214.691 350.048 201.847 350.584 198.89C351.121 195.937 355.998 178.332 355.998 178.332C355.998 178.332 358.237 187.128 357.627 190.995Z" fill="#E25E49"/>
<path d="M363.599 176.337C363.599 176.337 381.159 179.552 381.935 179.988C382.711 180.422 386.763 181.166 387.201 184.463C387.64 187.761 382.831 191.244 380.334 191.37C377.834 191.499 359.375 188.733 359.375 188.733L363.599 176.337Z" fill="url(#paint112_linear_94_657)"/>
<path d="M372.074 176.847C368.608 183.677 365.133 189.612 359.194 194.068C355.716 191.741 351.946 189.934 348.039 188.717C345.603 187.958 343.094 187.42 340.781 186.268C338.469 185.118 336.303 183.225 335.444 180.668C334.515 177.899 335.309 174.779 336.993 172.584C338.674 170.39 341.128 169.016 343.671 168.113C349.137 166.167 351.977 168.826 356.903 171.112C362.274 173.608 366.393 175.532 372.074 176.847Z" fill="url(#paint113_linear_94_657)"/>
<path d="M384.353 153.566C384.353 153.566 379.292 171.352 377.654 176.061C376.918 178.175 374.4 187.054 377.921 190.026C381.442 192.998 386.141 190.537 387.877 187.737C389.613 184.937 392.487 156.612 392.487 156.612C392.487 156.612 391.816 152.229 389.23 151.845C386.647 151.46 384.353 153.566 384.353 153.566Z" fill="url(#paint114_linear_94_657)"/>
<path d="M387.911 157.134C390.445 156.734 392.718 154.949 393.705 152.576C394.043 151.768 394.5 150.821 394.257 149.979C394.828 149.951 395.365 149.576 395.592 149.051C395.681 148.845 395.724 148.621 395.76 148.399C395.914 147.48 395.978 146.549 395.96 145.621C395.947 145.083 395.898 144.527 395.629 144.063C395.175 143.294 394.248 142.999 393.46 143.411C393.491 142.818 393.144 142.225 392.616 141.96C392.086 141.696 391.613 141.73 391.163 142.111C391.153 141.407 390.893 140.682 390.347 140.242C389.801 139.803 389.009 139.766 388.473 140.218C388.543 139.409 388.617 138.604 388.69 137.796C388.795 136.643 388.884 135.423 388.371 134.387C388.126 133.892 387.828 133.382 387.304 133.21C386.506 136.022 386.123 139.022 384.743 141.598C383.856 143.245 383.191 144.843 382.304 146.494C382.553 148.448 382.85 150.397 383.2 152.333C383.445 153.692 383.832 154.903 384.838 155.846C385.218 156.203 385.672 156.467 386.129 156.719C386.681 157.03 387.276 157.232 387.911 157.134Z" fill="url(#paint115_linear_94_657)"/>
<path d="M346.937 135.783C346.937 135.783 348.578 141.508 349.114 146.07C349.651 150.631 349.289 157.177 346.946 159.144C344.602 161.108 340.281 160.484 338.502 159.049C336.723 157.617 335.189 153.566 335.824 148.024C336.459 142.48 346.937 135.783 346.937 135.783Z" fill="url(#paint116_linear_94_657)"/>
<path d="M319.749 137.276C319.749 137.276 321.804 130.124 328.696 128.52C335.588 126.919 341.6 131.486 343.876 131.667C346.152 131.849 348.176 132.657 349.777 132.568C351.375 132.479 351.624 131.855 351.624 131.855C351.624 131.855 350.136 135.611 348.287 136.324C346.44 137.037 346.44 137.037 346.44 137.037C346.44 137.037 346.124 139.809 346.054 141.954C345.983 144.1 347.02 147.41 347.02 147.41C347.02 147.41 344.744 147.228 344.317 146.334C343.891 145.44 341.189 144.364 341.118 146.509C341.051 148.654 341.588 153.219 338.996 155.806C336.404 158.397 329.757 159.375 327.055 158.299C324.353 157.223 319.402 148.006 320.466 143.356C321.528 138.709 319.749 137.276 319.749 137.276Z" fill="#1A2B32"/>
<path d="M344.314 146.706C343.986 145.879 343.505 145.101 342.9 144.419C342.603 144.084 342.192 143.743 341.753 143.817C341.437 143.869 341.22 144.124 341.051 144.376C340.348 145.406 339.999 146.758 340.536 147.935C341.072 149.109 342.71 149.881 343.821 149.248" fill="url(#paint117_linear_94_657)"/>
<path d="M320.9 135.66C322.556 135.125 324.571 135.906 325.648 137.301C326.724 138.696 326.915 140.568 326.384 142.148C325.85 143.725 324.663 145.025 323.252 145.98C322.614 146.414 321.878 146.795 321.074 146.752C320.458 146.718 319.872 146.438 319.363 146.085C318.059 145.181 317.17 143.746 316.989 142.255C316.722 140.058 318.636 136.388 320.9 135.66Z" fill="url(#paint118_linear_94_657)"/>
<path d="M319.749 137.276C319.749 137.276 309.228 138.158 307.962 149.248C306.692 160.337 309.008 166.33 306.775 171.964C304.542 177.594 301.342 177.769 300.778 181.169C300.214 184.568 301.563 185.106 304.266 186.182C306.968 187.257 307.465 186.006 307.465 186.006C307.465 186.006 308.995 188.066 314.897 188.966C320.798 189.867 326.408 185.579 327.718 180.305C329.028 175.031 325.497 164.206 323.181 158.21C320.866 152.217 320.498 147.004 321.651 145.194C322.068 144.536 322.185 144.265 322.571 144.099C323.157 143.847 323.583 143.002 323.571 141.576C323.559 139.747 322.301 137.479 319.749 137.276Z" fill="#1A2B32"/>
<g clip-path="url(#clip0_94_657)">
<path d="M446.634 262.871L442.763 258.998C445.66 255.128 444.87 249.642 440.999 246.746C437.129 243.849 431.643 244.639 428.746 248.509C425.85 252.38 426.64 257.866 430.51 260.762C433.62 263.089 437.89 263.089 440.999 260.762L444.872 264.635C445.359 265.122 446.148 265.122 446.634 264.635C447.121 264.148 447.121 263.359 446.634 262.873L446.634 262.871ZM435.787 260.015C432.347 260.015 429.558 257.226 429.558 253.786C429.558 250.346 432.347 247.558 435.787 247.558C439.227 247.558 442.016 250.346 442.016 253.786C442.012 257.225 439.226 260.011 435.787 260.015Z" fill="white"/>
</g>
<defs>
<filter id="filter0_d_94_657" x="319.961" y="75.4972" width="146.209" height="152.604" filterUnits="userSpaceOnUse" color-interpolation-filters="sRGB">
<feFlood flood-opacity="0" result="BackgroundImageFix"/>
<feColorMatrix in="SourceAlpha" type="matrix" values="0 0 0 0 0 0 0 0 0 0 0 0 0 0 0 0 0 0 127 0" result="hardAlpha"/>
<feOffset dy="2"/>
<feGaussianBlur stdDeviation="2"/>
<feComposite in2="hardAlpha" operator="out"/>
<feColorMatrix type="matrix" values="0 0 0 0 0.068064 0 0 0 0 0.513036 0 0 0 0 0.763333 0 0 0 0.25 0"/>
<feBlend mode="normal" in2="BackgroundImageFix" result="effect1_dropShadow_94_657"/>
<feBlend mode="normal" in="SourceGraphic" in2="effect1_dropShadow_94_657" result="shape"/>
</filter>
<filter id="filter1_d_94_657" x="406.719" y="226.156" width="60.6548" height="60.7612" filterUnits="userSpaceOnUse" color-interpolation-filters="sRGB">
<feFlood flood-opacity="0" result="BackgroundImageFix"/>
<feColorMatrix in="SourceAlpha" type="matrix" values="0 0 0 0 0 0 0 0 0 0 0 0 0 0 0 0 0 0 127 0" result="hardAlpha"/>
<feOffset dy="2"/>
<feGaussianBlur stdDeviation="2"/>
<feComposite in2="hardAlpha" operator="out"/>
<feColorMatrix type="matrix" values="0 0 0 0 0.068064 0 0 0 0 0.513036 0 0 0 0 0.763333 0 0 0 0.25 0"/>
<feBlend mode="normal" in2="BackgroundImageFix" result="effect1_dropShadow_94_657"/>
<feBlend mode="normal" in="SourceGraphic" in2="effect1_dropShadow_94_657" result="shape"/>
</filter>
<linearGradient id="paint0_linear_94_657" x1="370" y1="-43.12" x2="370" y2="483.12" gradientUnits="userSpaceOnUse">
<stop offset="0.0239582" stop-color="#59C3FF"/>
<stop offset="1" stop-color="#0047B2"/>
</linearGradient>
<linearGradient id="paint1_linear_94_657" x1="606.621" y1="262.056" x2="417.184" y2="541.556" gradientUnits="userSpaceOnUse">
<stop stop-color="#F7F3FF"/>
<stop offset="0.211458" stop-color="#7C2BFF"/>
<stop offset="0.690625" stop-color="#711AFF"/>
<stop offset="0.961458" stop-color="#D2B6FF"/>
</linearGradient>
<linearGradient id="paint2_linear_94_657" x1="598.459" y1="224.308" x2="420.568" y2="493.314" gradientUnits="userSpaceOnUse">
<stop offset="0.0656249" stop-color="#DCC7FF"/>
<stop offset="0.2375" stop-color="#873DFF"/>
<stop offset="0.83125" stop-color="#711AFF"/>
<stop offset="0.982292" stop-color="#CFB2FF"/>
</linearGradient>
<linearGradient id="paint3_linear_94_657" x1="411.5" y1="151.5" x2="407.907" y2="445.719" gradientUnits="userSpaceOnUse">
<stop stop-color="#FCFAFF"/>
<stop offset="0.841667" stop-color="#711AFF"/>
</linearGradient>
<linearGradient id="paint4_linear_94_657" x1="334" y1="385" x2="335.83" y2="267.75" gradientUnits="userSpaceOnUse">
<stop offset="0.184024" stop-color="#007F59"/>
<stop offset="1" stop-color="#39FFE4"/>
</linearGradient>
<linearGradient id="paint5_linear_94_657" x1="478.5" y1="223" x2="478.5" y2="226" gradientUnits="userSpaceOnUse">
<stop stop-color="#D0E5FF"/>
<stop offset="1" stop-color="#6CAFFE"/>
</linearGradient>
<linearGradient id="paint6_linear_94_657" x1="524.5" y1="232" x2="524.5" y2="235" gradientUnits="userSpaceOnUse">
<stop stop-color="#D0E5FF"/>
<stop offset="1" stop-color="#6CAFFE"/>
</linearGradient>
<linearGradient id="paint7_linear_94_657" x1="524.5" y1="238" x2="524.5" y2="241" gradientUnits="userSpaceOnUse">
<stop stop-color="#D0E5FF"/>
<stop offset="1" stop-color="#6CAFFE"/>
</linearGradient>
<linearGradient id="paint8_linear_94_657" x1="524.5" y1="244" x2="524.5" y2="247" gradientUnits="userSpaceOnUse">
<stop stop-color="#D0E5FF"/>
<stop offset="1" stop-color="#6CAFFE"/>
</linearGradient>
<linearGradient id="paint9_linear_94_657" x1="580" y1="222" x2="580" y2="226" gradientUnits="userSpaceOnUse">
<stop stop-color="#D0E5FF"/>
<stop offset="1" stop-color="#6CAFFE"/>
</linearGradient>
<linearGradient id="paint10_linear_94_657" x1="545.282" y1="157.343" x2="545.282" y2="164.965" gradientUnits="userSpaceOnUse">
<stop stop-color="#133B53"/>
<stop offset="1" stop-color="#065F94"/>
</linearGradient>
<linearGradient id="paint11_linear_94_657" x1="516.258" y1="157.343" x2="516.258" y2="164.965" gradientUnits="userSpaceOnUse">
<stop stop-color="#133B53"/>
<stop offset="1" stop-color="#065F94"/>
</linearGradient>
<linearGradient id="paint12_linear_94_657" x1="519.7" y1="158.268" x2="519.7" y2="202.658" gradientUnits="userSpaceOnUse">
<stop stop-color="#4CD0C7"/>
<stop offset="1" stop-color="#9AF8F1"/>
</linearGradient>
<linearGradient id="paint13_linear_94_657" x1="530.71" y1="152.235" x2="530.71" y2="174.149" gradientUnits="userSpaceOnUse">
<stop stop-color="#133B53"/>
<stop offset="1" stop-color="#065F94"/>
</linearGradient>
<linearGradient id="paint14_linear_94_657" x1="517.36" y1="187.918" x2="517.36" y2="199.287" gradientUnits="userSpaceOnUse">
<stop stop-color="#133B53"/>
<stop offset="1" stop-color="#0F689D"/>
</linearGradient>
<linearGradient id="paint15_linear_94_657" x1="521.958" y1="187.918" x2="521.958" y2="199.287" gradientUnits="userSpaceOnUse">
<stop stop-color="#133B53"/>
<stop offset="1" stop-color="#0F689D"/>
</linearGradient>
<linearGradient id="paint16_linear_94_657" x1="517.36" y1="169.969" x2="517.36" y2="177.311" gradientUnits="userSpaceOnUse">
<stop stop-color="#133B53"/>
<stop offset="1" stop-color="#0F689D"/>
</linearGradient>
<linearGradient id="paint17_linear_94_657" x1="521.957" y1="169.969" x2="521.957" y2="177.311" gradientUnits="userSpaceOnUse">
<stop stop-color="#133B53"/>
<stop offset="1" stop-color="#0F689D"/>
</linearGradient>
<linearGradient id="paint18_linear_94_657" x1="539.509" y1="169.4" x2="539.509" y2="173.642" gradientUnits="userSpaceOnUse">
<stop stop-color="#133B53"/>
<stop offset="1" stop-color="#0F689D"/>
</linearGradient>
<linearGradient id="paint19_linear_94_657" x1="533.015" y1="169.4" x2="533.015" y2="173.642" gradientUnits="userSpaceOnUse">
<stop stop-color="#133B53"/>
<stop offset="1" stop-color="#0F689D"/>
</linearGradient>
<linearGradient id="paint20_linear_94_657" x1="490.699" y1="181.454" x2="490.699" y2="202.658" gradientUnits="userSpaceOnUse">
<stop stop-color="#F46E53"/>
<stop offset="1" stop-color="#FF9D89"/>
</linearGradient>
<linearGradient id="paint21_linear_94_657" x1="490.441" y1="179.242" x2="490.441" y2="181.454" gradientUnits="userSpaceOnUse">
<stop stop-color="#133B53"/>
<stop offset="1" stop-color="#065F94"/>
</linearGradient>
<linearGradient id="paint22_linear_94_657" x1="490.558" y1="187.064" x2="490.558" y2="188.336" gradientUnits="userSpaceOnUse">
<stop stop-color="#133B53"/>
<stop offset="1" stop-color="#065F94"/>
</linearGradient>
<linearGradient id="paint23_linear_94_657" x1="547.957" y1="181.455" x2="547.957" y2="202.659" gradientUnits="userSpaceOnUse">
<stop stop-color="#F46E53"/>
<stop offset="1" stop-color="#FF9D89"/>
</linearGradient>
<linearGradient id="paint24_linear_94_657" x1="541.832" y1="187.918" x2="541.832" y2="196.969" gradientUnits="userSpaceOnUse">
<stop stop-color="#133B53"/>
<stop offset="1" stop-color="#0F689D"/>
</linearGradient>
<linearGradient id="paint25_linear_94_657" x1="547.996" y1="187.918" x2="547.996" y2="196.969" gradientUnits="userSpaceOnUse">
<stop stop-color="#133B53"/>
<stop offset="1" stop-color="#0F689D"/>
</linearGradient>
<linearGradient id="paint26_linear_94_657" x1="554.157" y1="187.918" x2="554.157" y2="196.969" gradientUnits="userSpaceOnUse">
<stop stop-color="#133B53"/>
<stop offset="1" stop-color="#0F689D"/>
</linearGradient>
<linearGradient id="paint27_linear_94_657" x1="548.125" y1="176.869" x2="548.125" y2="181.697" gradientUnits="userSpaceOnUse">
<stop stop-color="#133B53"/>
<stop offset="1" stop-color="#065F94"/>
</linearGradient>
<linearGradient id="paint28_linear_94_657" x1="566.886" y1="183.067" x2="566.886" y2="199.1" gradientUnits="userSpaceOnUse">
<stop stop-color="#A4FDDD"/>
<stop offset="1" stop-color="#009456"/>
</linearGradient>
<linearGradient id="paint29_linear_94_657" x1="567.295" y1="189.172" x2="567.295" y2="196.524" gradientUnits="userSpaceOnUse">
<stop stop-color="#A4FDDD"/>
<stop offset="1" stop-color="#009456"/>
</linearGradient>
<linearGradient id="paint30_linear_94_657" x1="503.657" y1="199.184" x2="503.657" y2="202.655" gradientUnits="userSpaceOnUse">
<stop stop-color="#A4FDDD"/>
<stop offset="1" stop-color="#009456"/>
</linearGradient>
<linearGradient id="paint31_linear_94_657" x1="500.571" y1="200.329" x2="500.571" y2="202.64" gradientUnits="userSpaceOnUse">
<stop stop-color="#A4FDDD"/>
<stop offset="1" stop-color="#009456"/>
</linearGradient>
<linearGradient id="paint32_linear_94_657" x1="474.039" y1="200.895" x2="474.039" y2="202.64" gradientUnits="userSpaceOnUse">
<stop stop-color="#A4FDDD"/>
<stop offset="1" stop-color="#009456"/>
</linearGradient>
<linearGradient id="paint33_linear_94_657" x1="206.888" y1="241.151" x2="206.888" y2="244.965" gradientUnits="userSpaceOnUse">
<stop stop-color="#D0E5FF"/>
<stop offset="1" stop-color="#6CAFFE"/>
</linearGradient>
<linearGradient id="paint34_linear_94_657" x1="229.846" y1="251.302" x2="229.846" y2="254.582" gradientUnits="userSpaceOnUse">
<stop stop-color="#D0E5FF"/>
<stop offset="1" stop-color="#6CAFFE"/>
</linearGradient>
<linearGradient id="paint35_linear_94_657" x1="229.846" y1="257.975" x2="229.846" y2="261.254" gradientUnits="userSpaceOnUse">
<stop stop-color="#D0E5FF"/>
<stop offset="1" stop-color="#6CAFFE"/>
</linearGradient>
<linearGradient id="paint36_linear_94_657" x1="229.846" y1="264.644" x2="229.846" y2="267.924" gradientUnits="userSpaceOnUse">
<stop stop-color="#D0E5FF"/>
<stop offset="1" stop-color="#6CAFFE"/>
</linearGradient>
<linearGradient id="paint37_linear_94_657" x1="264.492" y1="240.355" x2="264.492" y2="244.965" gradientUnits="userSpaceOnUse">
<stop stop-color="#D0E5FF"/>
<stop offset="1" stop-color="#6CAFFE"/>
</linearGradient>
<linearGradient id="paint38_linear_94_657" x1="273.411" y1="240.355" x2="273.411" y2="244.965" gradientUnits="userSpaceOnUse">
<stop stop-color="#D0E5FF"/>
<stop offset="1" stop-color="#6CAFFE"/>
</linearGradient>
<linearGradient id="paint39_linear_94_657" x1="282.328" y1="240.355" x2="282.328" y2="244.965" gradientUnits="userSpaceOnUse">
<stop stop-color="#D0E5FF"/>
<stop offset="1" stop-color="#6CAFFE"/>
</linearGradient>
<linearGradient id="paint40_linear_94_657" x1="200.467" y1="185.548" x2="200.467" y2="186.431" gradientUnits="userSpaceOnUse">
<stop stop-color="#9BB8CC"/>
<stop offset="1" stop-color="#E0F2FF"/>
</linearGradient>
<linearGradient id="paint41_linear_94_657" x1="200.468" y1="184.442" x2="200.468" y2="185.545" gradientUnits="userSpaceOnUse">
<stop stop-color="#133B53"/>
<stop offset="1" stop-color="#106DA5"/>
</linearGradient>
<linearGradient id="paint42_linear_94_657" x1="271.127" y1="208.739" x2="271.127" y2="220.918" gradientUnits="userSpaceOnUse">
<stop stop-color="#A4FDDD"/>
<stop offset="1" stop-color="#009456"/>
</linearGradient>
<linearGradient id="paint43_linear_94_657" x1="267.76" y1="213.435" x2="267.76" y2="220.918" gradientUnits="userSpaceOnUse">
<stop stop-color="#A4FDDD"/>
<stop offset="1" stop-color="#009456"/>
</linearGradient>
<linearGradient id="paint44_linear_94_657" x1="185.433" y1="195.683" x2="185.433" y2="216.451" gradientUnits="userSpaceOnUse">
<stop stop-color="#A4FDDD"/>
<stop offset="1" stop-color="#009456"/>
</linearGradient>
<linearGradient id="paint45_linear_94_657" x1="185.951" y1="203.585" x2="185.951" y2="213.103" gradientUnits="userSpaceOnUse">
<stop stop-color="#A4FDDD"/>
<stop offset="1" stop-color="#098752"/>
</linearGradient>
<linearGradient id="paint46_linear_94_657" x1="228.201" y1="179.712" x2="228.201" y2="199.201" gradientUnits="userSpaceOnUse">
<stop stop-color="#133B53"/>
<stop offset="1" stop-color="#065F94"/>
</linearGradient>
<linearGradient id="paint47_linear_94_657" x1="262.583" y1="199.201" x2="262.583" y2="219.526" gradientUnits="userSpaceOnUse">
<stop stop-color="#F46E53"/>
<stop offset="1" stop-color="#FF9D89"/>
</linearGradient>
<linearGradient id="paint48_linear_94_657" x1="242.389" y1="199.201" x2="242.389" y2="219.526" gradientUnits="userSpaceOnUse">
<stop stop-color="#F46E53"/>
<stop offset="1" stop-color="#FF9D89"/>
</linearGradient>
<linearGradient id="paint49_linear_94_657" x1="203.915" y1="203.378" x2="203.915" y2="219.526" gradientUnits="userSpaceOnUse">
<stop stop-color="#F46E53"/>
<stop offset="1" stop-color="#FF9D89"/>
</linearGradient>
<linearGradient id="paint50_linear_94_657" x1="203.915" y1="203.378" x2="203.915" y2="206.516" gradientUnits="userSpaceOnUse">
<stop stop-color="#B72E41"/>
<stop offset="1" stop-color="#E96F80"/>
</linearGradient>
<linearGradient id="paint51_linear_94_657" x1="203.914" y1="199.201" x2="203.914" y2="200.777" gradientUnits="userSpaceOnUse">
<stop stop-color="#9BB8CC"/>
<stop offset="1" stop-color="#D0E9FA"/>
</linearGradient>
<linearGradient id="paint52_linear_94_657" x1="252.486" y1="199.201" x2="252.486" y2="200.642" gradientUnits="userSpaceOnUse">
<stop stop-color="#9BB8CC"/>
<stop offset="1" stop-color="#D1ECFF"/>
</linearGradient>
<linearGradient id="paint53_linear_94_657" x1="242.389" y1="199.201" x2="242.389" y2="200.777" gradientUnits="userSpaceOnUse">
<stop stop-color="#B72E41"/>
<stop offset="1" stop-color="#F07788"/>
</linearGradient>
<linearGradient id="paint54_linear_94_657" x1="228.201" y1="177.8" x2="228.201" y2="191.25" gradientUnits="userSpaceOnUse">
<stop stop-color="#9BB8CC"/>
<stop offset="1" stop-color="#EEF6FC"/>
</linearGradient>
<linearGradient id="paint55_linear_94_657" x1="227.809" y1="219.526" x2="227.809" y2="220.918" gradientUnits="userSpaceOnUse">
<stop stop-color="#7BBFBA"/>
<stop offset="1" stop-color="#BBFDF8"/>
</linearGradient>
<linearGradient id="paint56_linear_94_657" x1="201.615" y1="207.453" x2="201.615" y2="218.822" gradientUnits="userSpaceOnUse">
<stop stop-color="#133B53"/>
<stop offset="1" stop-color="#0F689D"/>
</linearGradient>
<linearGradient id="paint57_linear_94_657" x1="206.213" y1="207.453" x2="206.213" y2="218.822" gradientUnits="userSpaceOnUse">
<stop stop-color="#133B53"/>
<stop offset="1" stop-color="#0F689D"/>
</linearGradient>
<linearGradient id="paint58_linear_94_657" x1="247.178" y1="207.453" x2="247.178" y2="214.799" gradientUnits="userSpaceOnUse">
<stop stop-color="#133B53"/>
<stop offset="1" stop-color="#0F689D"/>
</linearGradient>
<linearGradient id="paint59_linear_94_657" x1="252.486" y1="207.453" x2="252.486" y2="214.799" gradientUnits="userSpaceOnUse">
<stop stop-color="#133B53"/>
<stop offset="1" stop-color="#0F689D"/>
</linearGradient>
<linearGradient id="paint60_linear_94_657" x1="257.794" y1="207.453" x2="257.794" y2="214.799" gradientUnits="userSpaceOnUse">
<stop stop-color="#133B53"/>
<stop offset="1" stop-color="#0F689D"/>
</linearGradient>
<linearGradient id="paint61_linear_94_657" x1="221.304" y1="207.453" x2="221.304" y2="218.822" gradientUnits="userSpaceOnUse">
<stop stop-color="#133B53"/>
<stop offset="1" stop-color="#0F689D"/>
</linearGradient>
<linearGradient id="paint62_linear_94_657" x1="225.902" y1="207.453" x2="225.902" y2="218.822" gradientUnits="userSpaceOnUse">
<stop stop-color="#133B53"/>
<stop offset="1" stop-color="#0F689D"/>
</linearGradient>
<linearGradient id="paint63_linear_94_657" x1="230.5" y1="207.453" x2="230.5" y2="218.822" gradientUnits="userSpaceOnUse">
<stop stop-color="#133B53"/>
<stop offset="1" stop-color="#0F689D"/>
</linearGradient>
<linearGradient id="paint64_linear_94_657" x1="235.098" y1="207.453" x2="235.098" y2="218.822" gradientUnits="userSpaceOnUse">
<stop stop-color="#133B53"/>
<stop offset="1" stop-color="#0F689D"/>
</linearGradient>
<linearGradient id="paint65_linear_94_657" x1="225.902" y1="188.127" x2="225.902" y2="199.496" gradientUnits="userSpaceOnUse">
<stop stop-color="#133B53"/>
<stop offset="1" stop-color="#0F689D"/>
</linearGradient>
<linearGradient id="paint66_linear_94_657" x1="230.5" y1="188.127" x2="230.5" y2="199.496" gradientUnits="userSpaceOnUse">
<stop stop-color="#133B53"/>
<stop offset="1" stop-color="#0F689D"/>
</linearGradient>
<linearGradient id="paint67_linear_94_657" x1="393.441" y1="192.657" x2="393.441" y2="196.226" gradientUnits="userSpaceOnUse">
<stop stop-color="#D0E5FF"/>
<stop offset="1" stop-color="#6CAFFE"/>
</linearGradient>
<linearGradient id="paint68_linear_94_657" x1="393.441" y1="199.92" x2="393.441" y2="203.488" gradientUnits="userSpaceOnUse">
<stop stop-color="#D0E5FF"/>
<stop offset="1" stop-color="#6CAFFE"/>
</linearGradient>
<linearGradient id="paint69_linear_94_657" x1="393.441" y1="207.183" x2="393.441" y2="210.751" gradientUnits="userSpaceOnUse">
<stop stop-color="#D0E5FF"/>
<stop offset="1" stop-color="#6CAFFE"/>
</linearGradient>
<linearGradient id="paint70_linear_94_657" x1="425.088" y1="182.841" x2="430.036" y2="183.643" gradientUnits="userSpaceOnUse">
<stop stop-color="#D0E5FF"/>
<stop offset="1" stop-color="#6CAFFE"/>
</linearGradient>
<linearGradient id="paint71_linear_94_657" x1="434.7" y1="182.84" x2="439.648" y2="183.641" gradientUnits="userSpaceOnUse">
<stop stop-color="#D0E5FF"/>
<stop offset="1" stop-color="#6CAFFE"/>
</linearGradient>
<linearGradient id="paint72_linear_94_657" x1="444.313" y1="182.842" x2="449.26" y2="183.644" gradientUnits="userSpaceOnUse">
<stop stop-color="#D0E5FF"/>
<stop offset="1" stop-color="#6CAFFE"/>
</linearGradient>
<linearGradient id="paint73_linear_94_657" x1="407.814" y1="115.35" x2="407.814" y2="120.578" gradientUnits="userSpaceOnUse">
<stop stop-color="#F46E53"/>
<stop offset="1" stop-color="#FF9D89"/>
</linearGradient>
<linearGradient id="paint74_linear_94_657" x1="427.265" y1="129.854" x2="427.265" y2="158.081" gradientUnits="userSpaceOnUse">
<stop stop-color="#F46E53"/>
<stop offset="1" stop-color="#FF9D89"/>
</linearGradient>
<linearGradient id="paint75_linear_94_657" x1="391.848" y1="101.855" x2="391.848" y2="140.43" gradientUnits="userSpaceOnUse">
<stop stop-color="#133B53"/>
<stop offset="1" stop-color="#065F94"/>
</linearGradient>
<linearGradient id="paint76_linear_94_657" x1="373.355" y1="141.281" x2="373.355" y2="157.961" gradientUnits="userSpaceOnUse">
<stop stop-color="#4CD0C7"/>
<stop offset="1" stop-color="#9AF8F1"/>
</linearGradient>
<linearGradient id="paint77_linear_94_657" x1="398.043" y1="156.258" x2="398.043" y2="157.97" gradientUnits="userSpaceOnUse">
<stop stop-color="#4CD0C7"/>
<stop offset="1" stop-color="#9AF8F1"/>
</linearGradient>
<linearGradient id="paint78_linear_94_657" x1="398.043" y1="154.546" x2="398.043" y2="156.258" gradientUnits="userSpaceOnUse">
<stop stop-color="#4CD0C7"/>
<stop offset="1" stop-color="#9AF8F1"/>
</linearGradient>
<linearGradient id="paint79_linear_94_657" x1="346.216" y1="149.026" x2="346.216" y2="158.013" gradientUnits="userSpaceOnUse">
<stop stop-color="#A4FDDD"/>
<stop offset="1" stop-color="#009456"/>
</linearGradient>
<linearGradient id="paint80_linear_94_657" x1="348.384" y1="152.497" x2="348.384" y2="158.013" gradientUnits="userSpaceOnUse">
<stop stop-color="#A4FDDD"/>
<stop offset="1" stop-color="#009456"/>
</linearGradient>
<linearGradient id="paint81_linear_94_657" x1="438.972" y1="147.257" x2="438.972" y2="153.993" gradientUnits="userSpaceOnUse">
<stop stop-color="#A4FDDD"/>
<stop offset="1" stop-color="#009456"/>
</linearGradient>
<linearGradient id="paint82_linear_94_657" x1="430.115" y1="143.847" x2="430.115" y2="150.259" gradientUnits="userSpaceOnUse">
<stop stop-color="#133B53"/>
<stop offset="1" stop-color="#0F689D"/>
</linearGradient>
<linearGradient id="paint83_linear_94_657" x1="377.951" y1="118.095" x2="377.951" y2="130.22" gradientUnits="userSpaceOnUse">
<stop stop-color="#133B53"/>
<stop offset="1" stop-color="#0F689D"/>
</linearGradient>
<linearGradient id="paint84_linear_94_657" x1="382.855" y1="118.095" x2="382.855" y2="130.22" gradientUnits="userSpaceOnUse">
<stop stop-color="#133B53"/>
<stop offset="1" stop-color="#0F689D"/>
</linearGradient>
<linearGradient id="paint85_linear_94_657" x1="388.324" y1="118.095" x2="388.324" y2="130.22" gradientUnits="userSpaceOnUse">
<stop stop-color="#133B53"/>
<stop offset="1" stop-color="#0F689D"/>
</linearGradient>
<linearGradient id="paint86_linear_94_657" x1="393.229" y1="118.095" x2="393.229" y2="130.22" gradientUnits="userSpaceOnUse">
<stop stop-color="#133B53"/>
<stop offset="1" stop-color="#0F689D"/>
</linearGradient>
<linearGradient id="paint87_linear_94_657" x1="398.045" y1="150.299" x2="398.045" y2="153.535" gradientUnits="userSpaceOnUse">
<stop stop-color="#133B53"/>
<stop offset="1" stop-color="#0F689D"/>
</linearGradient>
<linearGradient id="paint88_linear_94_657" x1="398.042" y1="141.441" x2="398.042" y2="149.641" gradientUnits="userSpaceOnUse">
<stop stop-color="#133B53"/>
<stop offset="1" stop-color="#0F689D"/>
</linearGradient>
<linearGradient id="paint89_linear_94_657" x1="359.999" y1="127.718" x2="359.999" y2="130.813" gradientUnits="userSpaceOnUse">
<stop stop-color="#4CD0C7"/>
<stop offset="1" stop-color="#9AF8F1"/>
</linearGradient>
<linearGradient id="paint90_linear_94_657" x1="372.786" y1="127.718" x2="372.786" y2="130.813" gradientUnits="userSpaceOnUse">
<stop stop-color="#4CD0C7"/>
<stop offset="1" stop-color="#9AF8F1"/>
</linearGradient>
<linearGradient id="paint91_linear_94_657" x1="398.361" y1="127.718" x2="398.361" y2="130.813" gradientUnits="userSpaceOnUse">
<stop stop-color="#4CD0C7"/>
<stop offset="1" stop-color="#9AF8F1"/>
</linearGradient>
<linearGradient id="paint92_linear_94_657" x1="385.573" y1="127.718" x2="385.573" y2="130.813" gradientUnits="userSpaceOnUse">
<stop stop-color="#4CD0C7"/>
<stop offset="1" stop-color="#9AF8F1"/>
</linearGradient>
<linearGradient id="paint93_linear_94_657" x1="411.148" y1="127.718" x2="411.148" y2="130.813" gradientUnits="userSpaceOnUse">
<stop stop-color="#4CD0C7"/>
<stop offset="1" stop-color="#9AF8F1"/>
</linearGradient>
<linearGradient id="paint94_linear_94_657" x1="417.275" y1="142.013" x2="417.275" y2="146.549" gradientUnits="userSpaceOnUse">
<stop stop-color="#133B53"/>
<stop offset="1" stop-color="#0F689D"/>
</linearGradient>
<linearGradient id="paint95_linear_94_657" x1="354.555" y1="142.013" x2="354.555" y2="146.549" gradientUnits="userSpaceOnUse">
<stop stop-color="#133B53"/>
<stop offset="1" stop-color="#0F689D"/>
</linearGradient>
<linearGradient id="paint96_linear_94_657" x1="385.572" y1="111.093" x2="385.572" y2="113.872" gradientUnits="userSpaceOnUse">
<stop stop-color="#133B53"/>
<stop offset="1" stop-color="#0F689D"/>
</linearGradient>
<linearGradient id="paint97_linear_94_657" x1="360.952" y1="136.88" x2="360.952" y2="157.973" gradientUnits="userSpaceOnUse">
<stop stop-color="#F46E53"/>
<stop offset="1" stop-color="#FF9D89"/>
</linearGradient>
<linearGradient id="paint98_linear_94_657" x1="410.734" y1="136.88" x2="410.734" y2="157.973" gradientUnits="userSpaceOnUse">
<stop stop-color="#F46E53"/>
<stop offset="1" stop-color="#FF9D89"/>
</linearGradient>
<linearGradient id="paint99_linear_94_657" x1="385.63" y1="136.88" x2="385.63" y2="158.081" gradientUnits="userSpaceOnUse">
<stop stop-color="#F46E53"/>
<stop offset="1" stop-color="#FF9D89"/>
</linearGradient>
<linearGradient id="paint100_linear_94_657" x1="385.688" y1="130.665" x2="385.688" y2="136.88" gradientUnits="userSpaceOnUse">
<stop stop-color="#133B53"/>
<stop offset="1" stop-color="#065F94"/>
</linearGradient>
<linearGradient id="paint101_linear_94_657" x1="437.039" y1="233.47" x2="437.039" y2="275.608" gradientUnits="userSpaceOnUse">
<stop stop-color="#133B53"/>
<stop offset="1" stop-color="#0F689D"/>
</linearGradient>
<linearGradient id="paint102_linear_94_657" x1="368.5" y1="381" x2="350" y2="301.5" gradientUnits="userSpaceOnUse">
<stop stop-color="white"/>
<stop offset="1" stop-color="#FFBFBF"/>
</linearGradient>
<linearGradient id="paint103_linear_94_657" x1="351" y1="362" x2="376" y2="384" gradientUnits="userSpaceOnUse">
<stop stop-color="#111A1E"/>
<stop offset="1" stop-color="#434E52"/>
</linearGradient>
<linearGradient id="paint104_linear_94_657" x1="317.5" y1="221.5" x2="301" y2="213.5" gradientUnits="userSpaceOnUse">
<stop stop-color="white"/>
<stop offset="1" stop-color="#FFBFBF"/>
</linearGradient>
<linearGradient id="paint105_linear_94_657" x1="319" y1="296" x2="319" y2="385" gradientUnits="userSpaceOnUse">
<stop stop-color="#FFBFBF"/>
<stop offset="1" stop-color="white"/>
</linearGradient>
<linearGradient id="paint106_linear_94_657" x1="305.985" y1="361.605" x2="332.114" y2="386.807" gradientUnits="userSpaceOnUse">
<stop stop-color="#111A1E"/>
<stop offset="1" stop-color="#434E52"/>
</linearGradient>
<linearGradient id="paint107_linear_94_657" x1="335.398" y1="155.65" x2="335" y2="164" gradientUnits="userSpaceOnUse">
<stop stop-color="white"/>
<stop offset="1" stop-color="#FFBFBF"/>
</linearGradient>
<linearGradient id="paint108_linear_94_657" x1="295.5" y1="256.5" x2="318" y2="191.5" gradientUnits="userSpaceOnUse">
<stop stop-color="white"/>
<stop offset="1" stop-color="#FFBFBF"/>
</linearGradient>
<linearGradient id="paint109_linear_94_657" x1="323" y1="173.5" x2="291.159" y2="207.536" gradientUnits="userSpaceOnUse">
<stop offset="0.114754" stop-color="#DF5337"/>
<stop offset="1" stop-color="#FFA998"/>
</linearGradient>
<linearGradient id="paint110_linear_94_657" x1="334" y1="233.5" x2="344" y2="332.5" gradientUnits="userSpaceOnUse">
<stop stop-color="#0A202B"/>
<stop offset="1" stop-color="#4591B7"/>
</linearGradient>
<linearGradient id="paint111_linear_94_657" x1="319" y1="170" x2="358" y2="242.5" gradientUnits="userSpaceOnUse">
<stop offset="0.114754" stop-color="#DF5337"/>
<stop offset="1" stop-color="#FFA998"/>
</linearGradient>
<linearGradient id="paint112_linear_94_657" x1="368" y1="164" x2="373" y2="184" gradientUnits="userSpaceOnUse">
<stop stop-color="white"/>
<stop offset="1" stop-color="#FFBFBF"/>
</linearGradient>
<linearGradient id="paint113_linear_94_657" x1="340.5" y1="173" x2="351.309" y2="204.101" gradientUnits="userSpaceOnUse">
<stop offset="0.114754" stop-color="#DF5337"/>
<stop offset="1" stop-color="#FFA998"/>
</linearGradient>
<linearGradient id="paint114_linear_94_657" x1="392" y1="131.5" x2="380.5" y2="186.5" gradientUnits="userSpaceOnUse">
<stop stop-color="white"/>
<stop offset="1" stop-color="#FFBFBF"/>
</linearGradient>
<linearGradient id="paint115_linear_94_657" x1="383" y1="115" x2="402" y2="176.5" gradientUnits="userSpaceOnUse">
<stop stop-color="white"/>
<stop offset="1" stop-color="#FFD3D3"/>
</linearGradient>
<linearGradient id="paint116_linear_94_657" x1="338.5" y1="138" x2="353" y2="156.5" gradientUnits="userSpaceOnUse">
<stop stop-color="white"/>
<stop offset="1" stop-color="#FFBFBF"/>
</linearGradient>
<linearGradient id="paint117_linear_94_657" x1="346" y1="143.5" x2="339.183" y2="146.827" gradientUnits="userSpaceOnUse">
<stop stop-color="white"/>
<stop offset="1" stop-color="#FFBFBF"/>
</linearGradient>
<linearGradient id="paint118_linear_94_657" x1="321" y1="135" x2="324" y2="145" gradientUnits="userSpaceOnUse">
<stop stop-color="#6C49F6"/>
<stop offset="1" stop-color="#6C49F6" stop-opacity="0"/>
<stop offset="1" stop-color="#E9E3FF"/>
</linearGradient>
<clipPath id="clip0_94_657">
<rect width="20" height="20" fill="white" transform="translate(427 245)"/>
</clipPath>
</defs>
</svg>
