<svg width="740" height="440" viewBox="0 0 740 440" fill="none" xmlns="http://www.w3.org/2000/svg">
<rect width="740" height="440" fill="url(#paint0_linear_310_2)"/>
<path d="M591.271 347.736V377.189H359.604V345.676L148.273 335.053L148.004 322.447C148.004 278.285 163.51 235.595 191.95 204.947C195.11 201.545 198.01 197.943 200.625 194.221C212.832 176.845 219.741 156.846 226.407 137.098C233.082 117.342 239.766 97.3081 251.618 79.7246C280.205 40.2072 353.315 33.9331 373.949 74.9802C377.499 86.8151 385.966 94.1048 399.194 95.8016C422.276 98.7625 448.698 83.0491 471.658 86.7199C483.354 88.5899 491.233 99.1781 494.029 109.784C496.817 120.38 495.899 131.497 497.449 142.319C500.401 162.95 501.328 195.961 519.526 208.341L520.08 208.713C564.069 237.872 591.271 290.553 591.271 347.736Z" fill="white" fill-opacity="0.16"/>
<path d="M162.484 363.253C102.412 383.146 249.489 396.986 288.552 391.965C327.615 386.943 365.669 389.987 404.808 388.266C457.434 385.954 510.069 388.011 562.627 391.123C573.244 391.752 586.64 388.782 590.021 372.419C592.206 361.844 588.61 350.072 583.176 343.418C577.741 336.765 570.842 334.144 564.132 331.93C501.824 311.382 437.472 312.285 373.682 313.27C300.205 315.095 226.962 315.946 153.509 320.418C134.547 321.573 173.935 359.459 162.484 363.252V363.253Z" fill="white" fill-opacity="0.16"/>
<path d="M332.928 375.73C332.928 376.954 329.055 377.951 324.282 377.951C319.505 377.951 315.632 376.955 315.632 375.73C315.632 374.506 319.505 373.51 324.282 373.51C329.055 373.51 332.929 374.505 332.929 375.73H332.928Z" fill="#1DB06E"/>
<path d="M509.229 355.716C483.298 361.241 281.62 362.382 285.59 352.013C286.725 349.05 293.503 346.828 301.556 345.733C297.297 345.81 290.166 344.451 293.045 340.477C298.546 332.893 473.555 330.625 507.979 337.098C531.093 341.458 465.439 343.395 505.867 345.424C519.598 346.126 517.45 353.949 509.229 355.716Z" fill="#1A1A3C" fill-opacity="0.26"/>
<path d="M466.87 333.814V338.533C466.87 345.581 435.963 351.285 397.828 351.285C359.702 351.285 328.786 345.581 328.786 338.533V333.815H333.677C343.846 329.103 368.735 325.783 397.828 325.783C426.93 325.783 451.818 329.103 461.979 333.814H466.87Z" fill="url(#paint1_linear_310_2)"/>
<path d="M397.831 346.586C435.962 346.586 466.873 340.876 466.873 333.832C466.873 326.788 435.962 321.078 397.831 321.078C359.7 321.078 328.789 326.788 328.789 333.832C328.789 340.876 359.7 346.586 397.831 346.586Z" fill="url(#paint2_linear_310_2)"/>
<path d="M416.974 332.723C416.974 336.463 378.69 336.463 378.69 332.723V304.503H416.973L416.974 332.723Z" fill="url(#paint3_linear_310_2)"/>
<path d="M534.519 127.488V294.497C534.519 296.744 532.793 298.548 530.562 298.801C441.961 308.762 353.48 308.554 265.104 298.801C262.874 298.549 261.147 296.744 261.147 294.497V127.488C261.148 126.923 261.259 126.363 261.476 125.84C261.693 125.318 262.011 124.843 262.411 124.444C262.812 124.044 263.287 123.727 263.81 123.511C264.333 123.295 264.893 123.185 265.459 123.186H530.206C531.349 123.185 532.444 123.638 533.253 124.445C534.061 125.252 534.517 126.346 534.519 127.488Z" fill="url(#paint4_linear_310_2)"/>
<path d="M527.907 131.784V290.393C527.907 290.653 527.856 290.91 527.756 291.15C527.657 291.39 527.511 291.608 527.328 291.792C527.144 291.976 526.926 292.121 526.686 292.221C526.446 292.32 526.188 292.371 525.929 292.371H269.736C269.476 292.371 269.219 292.32 268.979 292.221C268.739 292.121 268.521 291.976 268.337 291.792C268.153 291.608 268.008 291.39 267.908 291.15C267.809 290.91 267.758 290.653 267.758 290.393V131.784C267.757 131.258 267.965 130.754 268.336 130.381C268.707 130.009 269.21 129.798 269.736 129.796H525.928C526.453 129.798 526.957 130.009 527.328 130.381C527.699 130.754 527.907 131.258 527.907 131.784ZM401.091 299.076C401.092 299.504 401.008 299.928 400.845 300.324C400.681 300.72 400.441 301.08 400.138 301.383C399.835 301.685 399.476 301.925 399.08 302.089C398.684 302.252 398.26 302.336 397.831 302.335C397.403 302.336 396.979 302.252 396.583 302.089C396.187 301.925 395.828 301.685 395.525 301.382C395.222 301.079 394.982 300.72 394.819 300.324C394.655 299.928 394.572 299.504 394.573 299.076C394.573 298.211 394.916 297.382 395.527 296.771C396.138 296.16 396.967 295.816 397.832 295.816C398.696 295.816 399.525 296.16 400.136 296.771C400.748 297.382 401.091 298.211 401.091 299.076Z" fill="white"/>
<path d="M424.815 147.107V237.315C424.815 238.749 424.245 240.124 423.231 241.138C422.217 242.152 420.842 242.722 419.408 242.722H283.577C282.143 242.722 280.768 242.152 279.755 241.138C278.741 240.124 278.171 238.749 278.171 237.315V147.107C278.172 146.398 278.312 145.695 278.584 145.04C278.855 144.385 279.254 143.789 279.756 143.288C280.258 142.787 280.854 142.39 281.509 142.119C282.165 141.848 282.868 141.709 283.577 141.71H419.408C420.117 141.709 420.82 141.848 421.476 142.119C422.132 142.39 422.728 142.787 423.23 143.288C423.732 143.789 424.13 144.385 424.402 145.04C424.674 145.695 424.814 146.398 424.815 147.107Z" fill="#C2CBFB"/>
<path d="M376.428 183.227C377.07 196.99 365.485 208.275 351.708 208.401C337.931 208.525 326.661 197.458 326.535 183.681C326.41 169.904 337.478 158.457 351.255 158.508C364.757 158.558 375.8 169.771 376.428 183.227Z" fill="white"/>
<path d="M363.289 184.813L346.653 196.051C345.571 196.786 344.097 196.004 344.097 194.691V172.217C344.097 170.905 345.571 170.122 346.653 170.858L363.29 182.095C364.257 182.741 364.257 184.156 363.29 184.814L363.289 184.813Z" fill="#C2CBFB"/>
<path d="M409.41 229.088H293.579C293.234 229.088 292.904 228.951 292.661 228.708C292.417 228.464 292.28 228.134 292.28 227.789C292.28 227.445 292.417 227.115 292.661 226.871C292.904 226.628 293.234 226.491 293.579 226.491H409.411C409.755 226.491 410.086 226.628 410.329 226.871C410.573 227.115 410.709 227.445 410.709 227.789C410.709 228.134 410.573 228.464 410.329 228.708C410.086 228.951 409.755 229.088 409.411 229.088H409.41Z" fill="white"/>
<path d="M319.673 229.088H293.579C293.234 229.088 292.904 228.951 292.661 228.708C292.417 228.464 292.28 228.134 292.28 227.789C292.28 227.445 292.417 227.115 292.661 226.871C292.904 226.628 293.234 226.491 293.579 226.491H319.673C320.017 226.491 320.347 226.628 320.591 226.871C320.835 227.115 320.971 227.445 320.971 227.789C320.971 228.134 320.835 228.464 320.591 228.708C320.347 228.951 320.017 229.088 319.673 229.088Z" fill="#9595F9"/>
<path d="M324.879 227.795C324.878 228.924 324.43 230.007 323.632 230.805C322.833 231.603 321.751 232.052 320.622 232.052C319.493 232.052 318.411 231.603 317.612 230.805C316.814 230.007 316.366 228.924 316.366 227.795C316.365 227.235 316.474 226.681 316.687 226.163C316.901 225.646 317.214 225.176 317.609 224.779C318.005 224.383 318.474 224.068 318.991 223.853C319.508 223.639 320.062 223.528 320.622 223.527C321.182 223.528 321.736 223.638 322.253 223.853C322.77 224.068 323.239 224.383 323.635 224.779C324.03 225.175 324.344 225.646 324.557 226.163C324.77 226.681 324.88 227.235 324.879 227.795Z" fill="#9595F9"/>
<path d="M505.865 146.779C505.866 147.243 505.775 147.703 505.598 148.131C505.421 148.56 505.161 148.95 504.832 149.278C504.504 149.606 504.115 149.866 503.686 150.044C503.257 150.221 502.797 150.312 502.333 150.311H471.156C470.686 150.322 470.218 150.238 469.781 150.065C469.344 149.893 468.945 149.634 468.609 149.306C468.273 148.977 468.006 148.584 467.824 148.151C467.642 147.718 467.548 147.252 467.548 146.782C467.548 146.312 467.642 145.847 467.824 145.414C468.006 144.98 468.273 144.588 468.609 144.259C468.945 143.93 469.344 143.672 469.781 143.499C470.218 143.327 470.686 143.243 471.156 143.254H502.333C502.797 143.253 503.256 143.344 503.684 143.521C504.112 143.697 504.502 143.957 504.83 144.284C505.158 144.612 505.418 145.001 505.596 145.429C505.773 145.857 505.865 146.315 505.865 146.779ZM515.786 156.727C515.786 157.295 515.327 157.753 514.76 157.753H468.65C468.513 157.757 468.377 157.734 468.249 157.684C468.121 157.634 468.004 157.559 467.906 157.464C467.808 157.368 467.73 157.254 467.676 157.128C467.623 157.001 467.595 156.866 467.595 156.729C467.595 156.591 467.623 156.456 467.676 156.329C467.73 156.203 467.808 156.089 467.906 155.993C468.004 155.898 468.121 155.823 468.249 155.773C468.377 155.723 468.513 155.7 468.65 155.704H514.76C515.327 155.704 515.786 156.163 515.786 156.727ZM507.602 163.345C507.602 163.912 507.145 164.37 506.577 164.37H468.649C468.512 164.374 468.376 164.351 468.248 164.301C468.12 164.251 468.004 164.176 467.905 164.081C467.807 163.985 467.729 163.871 467.675 163.745C467.622 163.618 467.594 163.483 467.594 163.346C467.594 163.208 467.622 163.073 467.675 162.946C467.729 162.82 467.807 162.706 467.905 162.61C468.004 162.515 468.12 162.44 468.248 162.39C468.376 162.34 468.512 162.317 468.649 162.321H506.577C507.144 162.321 507.603 162.78 507.603 163.344L507.602 163.345ZM460.528 144.411V163.211C460.528 164.703 459.316 165.915 457.823 165.915H439.024C438.307 165.914 437.619 165.63 437.112 165.123C436.605 164.616 436.32 163.928 436.319 163.211V144.411C436.319 142.918 437.531 141.707 439.024 141.707H457.823C458.54 141.707 459.228 141.992 459.735 142.499C460.242 143.006 460.527 143.694 460.528 144.411ZM505.865 185.181C505.866 185.645 505.775 186.105 505.598 186.534C505.421 186.963 505.161 187.352 504.832 187.68C504.504 188.008 504.115 188.269 503.686 188.446C503.257 188.623 502.797 188.714 502.333 188.713H471.156C470.686 188.724 470.218 188.64 469.781 188.468C469.344 188.295 468.945 188.037 468.609 187.708C468.273 187.379 468.006 186.987 467.824 186.553C467.642 186.12 467.548 185.655 467.548 185.185C467.548 184.714 467.642 184.249 467.824 183.816C468.006 183.382 468.273 182.99 468.609 182.661C468.945 182.333 469.344 182.074 469.781 181.902C470.218 181.729 470.686 181.645 471.156 181.656H502.333C502.797 181.655 503.256 181.746 503.684 181.923C504.112 182.1 504.502 182.359 504.83 182.687C505.158 183.014 505.418 183.403 505.596 183.831C505.773 184.259 505.865 184.718 505.865 185.181ZM515.786 195.13C515.786 195.697 515.327 196.155 514.76 196.155H468.65C468.513 196.159 468.377 196.136 468.249 196.086C468.121 196.036 468.004 195.962 467.906 195.866C467.808 195.771 467.73 195.656 467.676 195.53C467.623 195.404 467.595 195.268 467.595 195.131C467.595 194.994 467.623 194.858 467.676 194.732C467.73 194.605 467.808 194.491 467.906 194.396C468.004 194.3 468.121 194.225 468.249 194.175C468.377 194.126 468.513 194.102 468.65 194.106H514.76C515.327 194.106 515.786 194.565 515.786 195.13ZM507.602 201.746C507.602 202.314 507.145 202.772 506.577 202.772H468.649C468.512 202.776 468.376 202.753 468.248 202.703C468.12 202.653 468.004 202.579 467.905 202.483C467.807 202.388 467.729 202.273 467.675 202.147C467.622 202.021 467.594 201.885 467.594 201.748C467.594 201.611 467.622 201.475 467.675 201.349C467.729 201.222 467.807 201.108 467.905 201.012C468.004 200.917 468.12 200.842 468.248 200.792C468.376 200.743 468.512 200.719 468.649 200.723H506.577C507.144 200.723 507.603 201.182 507.603 201.746H507.602Z" fill="#C2CBFB"/>
<path d="M460.528 182.813V201.613C460.528 203.106 459.316 204.317 457.823 204.317H439.024C438.307 204.317 437.619 204.032 437.112 203.525C436.605 203.018 436.32 202.33 436.319 201.613V182.813C436.319 181.321 437.531 180.109 439.024 180.109H457.823C458.54 180.109 459.228 180.394 459.735 180.901C460.242 181.408 460.527 182.096 460.528 182.813Z" fill="#C2CBFB"/>
<path d="M505.865 223.583C505.866 224.047 505.775 224.507 505.598 224.936C505.421 225.365 505.16 225.754 504.832 226.083C504.504 226.411 504.114 226.671 503.686 226.848C503.257 227.025 502.797 227.116 502.333 227.116H471.156C470.686 227.126 470.218 227.042 469.781 226.87C469.344 226.697 468.945 226.439 468.609 226.11C468.273 225.781 468.006 225.389 467.824 224.956C467.642 224.522 467.548 224.057 467.548 223.587C467.548 223.117 467.642 222.651 467.824 222.218C468.006 221.785 468.273 221.392 468.609 221.063C468.945 220.735 469.344 220.476 469.781 220.304C470.218 220.131 470.686 220.048 471.156 220.058H502.333C502.797 220.057 503.256 220.148 503.684 220.325C504.112 220.502 504.502 220.761 504.83 221.089C505.158 221.416 505.418 221.805 505.596 222.233C505.773 222.661 505.865 223.12 505.865 223.583ZM515.786 233.532C515.786 234.1 515.327 234.558 514.76 234.558H468.65C468.513 234.562 468.377 234.538 468.249 234.488C468.121 234.439 468.004 234.364 467.906 234.268C467.808 234.173 467.729 234.058 467.676 233.932C467.623 233.806 467.595 233.67 467.595 233.533C467.595 233.396 467.623 233.26 467.676 233.134C467.729 233.008 467.808 232.893 467.906 232.798C468.004 232.702 468.121 232.627 468.249 232.578C468.377 232.528 468.513 232.504 468.65 232.508H514.76C515.327 232.508 515.786 232.967 515.786 233.532ZM507.602 240.149C507.602 240.717 507.145 241.175 506.577 241.175H468.649C468.512 241.179 468.376 241.155 468.248 241.105C468.12 241.056 468.004 240.981 467.905 240.885C467.807 240.79 467.729 240.675 467.675 240.549C467.622 240.423 467.594 240.287 467.594 240.15C467.594 240.013 467.622 239.877 467.675 239.751C467.729 239.625 467.807 239.51 467.905 239.415C468.004 239.319 468.12 239.244 468.248 239.195C468.376 239.145 468.512 239.121 468.649 239.125H506.577C507.144 239.125 507.602 239.584 507.602 240.149ZM460.528 221.215V240.015C460.528 241.508 459.315 242.719 457.823 242.719H439.024C438.307 242.719 437.619 242.434 437.112 241.927C436.605 241.42 436.32 240.732 436.319 240.015V221.215C436.319 219.723 437.531 218.512 439.024 218.512H457.823C458.54 218.512 459.228 218.797 459.735 219.304C460.242 219.811 460.527 220.498 460.528 221.215ZM458.277 254.608C458.277 254.82 458.235 255.031 458.154 255.228C458.072 255.424 457.953 255.603 457.803 255.753C457.652 255.904 457.473 256.023 457.277 256.104C457.08 256.185 456.869 256.227 456.657 256.227H279.794C279.576 256.235 279.359 256.2 279.155 256.123C278.951 256.045 278.765 255.927 278.608 255.776C278.451 255.625 278.325 255.444 278.24 255.243C278.155 255.043 278.11 254.827 278.11 254.609C278.11 254.391 278.155 254.175 278.24 253.974C278.325 253.774 278.451 253.592 278.608 253.441C278.765 253.29 278.951 253.173 279.155 253.095C279.359 253.018 279.576 252.983 279.794 252.991H456.657C457.553 252.991 458.277 253.715 458.277 254.608ZM513.235 267.231C513.235 267.444 513.193 267.655 513.112 267.851C513.031 268.048 512.912 268.227 512.761 268.377C512.611 268.527 512.432 268.647 512.236 268.728C512.039 268.809 511.828 268.851 511.616 268.851H279.793C279.576 268.858 279.36 268.822 279.158 268.743C278.955 268.665 278.771 268.547 278.615 268.396C278.459 268.245 278.335 268.065 278.25 267.865C278.165 267.665 278.122 267.45 278.122 267.233C278.122 267.016 278.165 266.801 278.25 266.601C278.335 266.401 278.459 266.221 278.615 266.07C278.771 265.919 278.955 265.801 279.158 265.722C279.36 265.644 279.576 265.608 279.793 265.615H511.614C512.51 265.615 513.235 266.339 513.235 267.231ZM513.235 279.856C513.235 280.068 513.193 280.279 513.112 280.475C513.031 280.672 512.911 280.851 512.761 281.001C512.611 281.151 512.432 281.271 512.236 281.352C512.039 281.433 511.828 281.475 511.616 281.475H279.793C279.576 281.483 279.358 281.448 279.154 281.371C278.95 281.293 278.764 281.175 278.607 281.024C278.45 280.873 278.325 280.692 278.239 280.491C278.154 280.291 278.11 280.075 278.11 279.857C278.11 279.639 278.154 279.423 278.239 279.222C278.325 279.022 278.45 278.841 278.607 278.689C278.764 278.538 278.95 278.421 279.154 278.343C279.358 278.266 279.576 278.23 279.793 278.239H511.614C512.51 278.239 513.235 278.963 513.235 279.856Z" fill="#C2CBFB"/>
<path d="M221.935 112.713C221.935 122.339 214.126 130.142 204.501 130.142C194.876 130.142 187.067 122.339 187.067 112.713C187.067 103.083 194.876 95.2786 204.501 95.2786C214.126 95.2786 221.935 103.083 221.935 112.713Z" fill="url(#paint5_linear_310_2)"/>
<path d="M212.253 114.257L205.221 121.289C204.823 121.687 204.177 121.687 203.778 121.289L196.75 114.259C196.267 113.776 195.884 113.203 195.623 112.572C195.362 111.941 195.227 111.265 195.228 110.583C195.228 109.9 195.363 109.224 195.624 108.593C195.886 107.963 196.269 107.39 196.752 106.907C197.271 106.389 197.893 105.986 198.578 105.725C199.264 105.464 199.997 105.352 200.729 105.394C201.461 105.437 202.175 105.634 202.826 105.973C203.476 106.311 204.048 106.784 204.502 107.359C204.957 106.784 205.528 106.311 206.179 105.973C206.829 105.634 207.544 105.437 208.276 105.394C209.008 105.352 209.741 105.464 210.426 105.725C211.112 105.986 211.734 106.389 212.253 106.907C212.735 107.39 213.118 107.963 213.38 108.593C213.641 109.224 213.775 109.9 213.775 110.582C213.775 111.265 213.641 111.941 213.38 112.571C213.118 113.202 212.735 113.774 212.253 114.257Z" fill="white"/>
<path d="M287.647 80.844C287.249 81.302 286.945 81.8342 286.754 82.41C286.562 82.9858 286.487 83.5937 286.531 84.1989C286.576 84.804 286.739 85.3944 287.013 85.936C287.287 86.4776 287.665 86.9597 288.126 87.3545C288.582 87.7512 289.113 88.054 289.687 88.2455C290.26 88.4369 290.866 88.5133 291.47 88.4703C292.073 88.4273 292.662 88.2657 293.203 87.9947C293.744 87.7238 294.226 87.3488 294.621 86.8913C296.281 84.9771 296.073 82.0543 294.159 80.3947C292.223 78.7168 289.307 78.929 287.647 80.844ZM293.534 85.9476C293.261 86.2626 292.929 86.5207 292.557 86.7072C292.184 86.8938 291.778 87.005 291.363 87.0346C290.947 87.0642 290.53 87.0115 290.134 86.8797C289.739 86.7479 289.374 86.5394 289.059 86.2662C288.743 85.9938 288.483 85.6616 288.295 85.2887C288.107 84.9158 287.995 84.5095 287.964 84.0931C287.934 83.6766 287.986 83.2582 288.117 82.8619C288.248 82.4656 288.457 82.099 288.73 81.7833C289.868 80.4691 291.88 80.3263 293.21 81.4786C293.844 82.0297 294.233 82.8091 294.294 83.6465C294.354 84.4839 294.081 85.3112 293.533 85.9476H293.534Z" fill="#1BAF6D"/>
<path d="M307.302 85.9C307.118 86.1077 306.798 86.1554 306.614 85.9952C305.518 85.0437 303.83 85.1797 302.862 86.2999C302.783 86.3918 302.671 86.449 302.549 86.4593C302.428 86.4697 302.308 86.4324 302.214 86.3554C302.167 86.3166 302.129 86.2687 302.101 86.2144C302.073 86.1602 302.057 86.1009 302.054 86.0402C302.05 85.9795 302.059 85.9186 302.079 85.8615C302.1 85.8043 302.132 85.752 302.174 85.7078C303.142 84.5875 303.014 82.8759 301.918 81.9244C301.829 81.842 301.776 81.7286 301.768 81.6077C301.761 81.4869 301.8 81.3678 301.878 81.2751C302.062 81.0673 302.358 81.044 302.542 81.2041C303.646 82.1564 305.374 82.0119 306.343 80.8924C306.51 80.708 306.79 80.6596 306.99 80.844C307.174 80.9955 307.198 81.2994 307.03 81.4916C306.062 82.6118 306.142 84.3234 307.247 85.2758C307.43 85.4359 307.47 85.7156 307.302 85.8991V85.9Z" fill="#1BAF6D"/>
<path d="M301.859 68.7066C302.504 69.269 302.901 70.0638 302.961 70.9174C303.022 71.771 302.743 72.614 302.184 73.2622C301.906 73.5828 301.568 73.8456 301.189 74.0355C300.81 74.2254 300.397 74.3386 299.974 74.3688C299.551 74.3989 299.126 74.3454 298.723 74.2112C298.321 74.077 297.949 73.8649 297.629 73.5868C297.306 73.3096 297.041 72.9714 296.849 72.5915C296.657 72.2116 296.542 71.7975 296.511 71.3731C296.479 70.9487 296.532 70.5222 296.666 70.1182C296.8 69.7143 297.012 69.3407 297.291 69.0191C298.454 67.6772 300.504 67.5309 301.859 68.7066Z" fill="#1CAF6D"/>
<path d="M250.877 217.091L259.883 222.28C259.883 222.28 245.283 263.107 231.796 259.847C226.45 258.557 222.664 252.964 220.207 247.692C218.965 245.064 218.067 242.488 217.48 240.626C216.913 238.804 216.653 237.627 216.653 237.627L233.363 228.586C233.801 229.539 234.01 231.021 234.146 232.612C234.387 235.519 234.358 238.799 234.943 239.969C235.233 240.588 235.698 240.63 236.444 239.761C245.133 229.656 250.876 217.09 250.876 217.09L250.877 217.091Z" fill="url(#paint6_linear_310_2)"/>
<path d="M250.901 217.115C250.901 217.115 246.78 206.813 251.516 205.912C253.615 205.512 254.757 211.974 254.757 211.974C254.757 211.974 257.852 199.166 263.39 201.67C272.61 205.837 273.366 212.071 259.889 222.284L250.901 217.115Z" fill="url(#paint7_linear_310_2)"/>
<path d="M235.709 312.528V373.632C235.709 374.415 235.398 375.166 234.844 375.719C234.291 376.273 233.54 376.584 232.757 376.584H161.632C160.849 376.584 160.099 376.272 159.545 375.719C158.992 375.165 158.681 374.414 158.681 373.632V312.528C158.681 311.745 158.992 310.994 159.546 310.441C160.099 309.887 160.85 309.576 161.633 309.576H232.759C233.542 309.576 234.292 309.888 234.846 310.441C235.399 310.995 235.71 311.746 235.71 312.528L235.709 312.528Z" fill="url(#paint8_linear_310_2)"/>
<path d="M158.68 360.723V373.632C158.68 374.415 158.991 375.165 159.545 375.719C160.098 376.273 160.849 376.584 161.632 376.584H232.758C233.541 376.584 234.292 376.272 234.845 375.719C235.399 375.165 235.71 374.414 235.71 373.632V360.723H158.68Z" fill="url(#paint9_linear_310_2)"/>
<path d="M289.835 384.895C289.796 387.558 275.095 389.225 257.017 388.612C238.939 387.997 224.34 385.335 224.391 382.672C224.443 379.996 239.131 378.33 257.209 378.943C275.275 379.557 289.886 382.22 289.835 384.895Z" fill="#13132D" fill-opacity="0.2"/>
<path d="M265.728 367.626C265.728 367.626 266.459 375.682 268.488 377.16C272.231 379.89 283.877 378.69 284.786 381.405C285.288 382.9 277.838 384.868 276.185 385.028C268.156 385.807 258.739 385.627 253.856 383.916C249.731 382.471 254.67 367.626 254.67 367.626H265.728Z" fill="url(#paint10_linear_310_2)"/>
<path d="M265.728 367.626H254.666C253.159 362.589 251.454 357.262 249.878 351.846C245.729 337.552 242.526 318.649 246.546 306.988C246.546 306.988 239.224 308.903 227.903 309.94C220.462 310.619 211.285 310.928 201.319 310.05C200.138 309.95 198.963 309.79 197.798 309.571C176.93 305.641 183.883 284.853 183.883 284.853L217.788 278.31L223.803 277.152C223.803 277.152 259.614 282.39 265.609 292.444C273.838 306.2 265.728 367.626 265.728 367.626H265.728Z" fill="url(#paint11_linear_310_2)"/>
<path d="M249.878 351.846C245.729 337.552 242.526 318.649 246.546 306.988C246.546 306.988 239.224 308.903 227.903 309.94C228.163 308.584 228.521 307.257 228.96 305.98C228.96 305.98 215.962 309.382 197.798 309.571C193.104 309.625 188.41 309.449 183.733 309.043C158.596 306.858 166.297 283.845 166.297 283.845L206.227 276.135C206.227 276.135 211.215 276.872 217.788 278.31C228.811 280.723 244.272 285.132 248.033 291.426C253.579 300.703 251.694 333.85 249.878 351.846Z" fill="#F95B5B"/>
<path d="M244.968 367.626H233.911C228.428 349.302 220.254 323.072 225.784 306.992C225.784 306.992 205.681 312.251 180.56 310.054C155.422 307.873 163.122 284.858 163.122 284.858L203.049 277.151C203.049 277.151 238.854 282.389 244.851 292.44C253.074 306.195 244.968 367.626 244.968 367.626Z" fill="url(#paint12_linear_310_2)"/>
<path d="M244.968 367.626C244.968 367.626 245.699 375.682 247.728 377.16C251.471 379.89 263.117 378.69 264.027 381.405C264.527 382.9 257.078 384.868 255.425 385.028C247.395 385.807 237.979 385.627 233.096 383.916C228.97 382.471 233.91 367.626 233.91 367.626H244.968Z" fill="url(#paint13_linear_310_2)"/>
<path d="M209.729 176.738C210.318 171.889 219.521 159.06 204.138 155.826C188.753 152.592 176.532 153.831 175.551 169.668C174.569 185.504 177.484 188.152 168.733 194.001C159.983 199.851 165.692 208.722 181.502 209.983C197.31 211.243 210.069 213.757 213.828 206.457C217.587 199.157 208.824 184.183 209.729 176.738Z" fill="url(#paint14_linear_310_2)"/>
<path d="M233.79 229.957L224.972 242.598L222.86 229.957L233.79 229.957Z" fill="#FF8F77"/>
<path d="M222.559 280.417C193.863 297.467 165.573 286.973 165.573 286.973L222.559 280.417Z" fill="#F75858"/>
<path d="M192.248 198.72C192.248 198.72 160.91 198.071 149.625 240.378C155.083 243.651 161.667 244.714 169.263 243.785L162.85 284.856C163.634 292.287 224.353 285.884 223.57 278.453L220.363 238.775C225.319 236.466 229.931 233.707 233.79 229.958C233.79 229.958 226.169 192.742 192.248 198.72Z" fill="url(#paint15_linear_310_2)"/>
<path d="M223.085 261.597H206.858C206.605 261.597 206.355 261.546 206.123 261.447C205.89 261.349 205.679 261.205 205.503 261.023C205.328 260.842 205.19 260.627 205.098 260.392C205.007 260.156 204.963 259.905 204.971 259.652L205.79 231.41C205.819 230.388 206.656 229.575 207.677 229.575H223.904C224.157 229.575 224.407 229.626 224.639 229.724C224.872 229.823 225.083 229.967 225.259 230.148C225.435 230.329 225.573 230.544 225.664 230.779C225.756 231.015 225.799 231.266 225.792 231.519L224.973 259.762C224.959 260.254 224.754 260.72 224.402 261.062C224.049 261.405 223.576 261.597 223.085 261.597Z" fill="url(#paint16_linear_310_2)"/>
<path d="M214.679 249.268C212.977 254.934 204.072 253.501 204.072 253.501C204.072 253.501 171.413 268.204 158.1 267.27C142.5 266.17 149.623 240.381 149.623 240.381C150.531 240.809 151.456 241.193 152.399 241.524C157.636 243.411 163.521 243.987 169.894 243.576C169.954 244.519 169.798 245.662 169.502 246.937H169.493C169.222 248.071 168.838 249.303 168.401 250.586C168.226 251.084 168.681 251.573 169.196 251.442L201.427 242.607C202.388 238.688 205.6 238.434 205.6 238.434L205.487 243.419C212.593 239.395 216.451 243.35 214.679 249.268Z" fill="url(#paint17_linear_310_2)"/>
<path d="M187.253 199.265L198.185 217.708L199.951 197.936L199.181 188.354L186.262 182.162L187.253 199.265Z" fill="url(#paint18_linear_310_2)"/>
<path d="M191.365 190.806C191.536 191.056 194.124 194.893 199.319 194.813L199.218 192.79C197.836 192.79 193.85 192.591 191.365 190.806Z" fill="#FF8D7D"/>
<path d="M199.51 202.867L198.185 217.706L189.835 203.62C193.468 204.665 196.693 204.414 199.51 202.867Z" fill="white"/>
<path d="M207.002 190.026C204.005 195.064 190.427 191.737 188.186 188.415C185.946 185.092 186.836 169.683 186.836 169.683C186.836 169.683 199.061 157.389 207.739 169.044C207.739 169.044 209.692 185.505 207.002 190.026Z" fill="url(#paint19_linear_310_2)"/>
<path d="M208.292 171.048L204.907 167.71C204.907 167.71 205.417 175.519 190.516 178.252C190.516 178.252 188.715 175.08 184.993 177.634C181.27 180.188 176.147 170.54 180.222 165.371C184.297 160.202 206.995 156.759 208.258 162.436C209.52 168.115 208.292 171.048 208.292 171.048Z" fill="url(#paint20_linear_310_2)"/>
<path d="M184.139 180.625C184.319 182.834 185.222 184.582 187.431 184.402C187.958 184.359 188.471 184.212 188.941 183.971C189.411 183.729 189.829 183.397 190.171 182.994C190.513 182.591 190.772 182.125 190.934 181.622C191.096 181.118 191.157 180.588 191.113 180.061C191.07 179.535 190.924 179.022 190.682 178.551C190.441 178.081 190.109 177.663 189.706 177.321C189.303 176.979 188.836 176.72 188.333 176.558C187.83 176.397 187.3 176.336 186.773 176.379C184.565 176.561 183.957 178.403 184.138 180.626L184.139 180.625Z" fill="url(#paint21_linear_310_2)"/>
<path d="M209.386 235.832C210.201 235.832 210.861 235.171 210.861 234.357C210.861 233.542 210.201 232.881 209.386 232.881C208.571 232.881 207.911 233.542 207.911 234.357C207.911 235.171 208.571 235.832 209.386 235.832Z" fill="white"/>
<path d="M169.502 246.937H169.493C159.671 247.574 152.399 241.524 152.399 241.524C157.636 243.41 163.521 243.987 169.894 243.576C169.954 244.519 169.799 245.663 169.502 246.937Z" fill="#FF8F77"/>
<path d="M414.245 58.3755V90.3781C414.245 94.5796 410.834 98.0002 406.623 98.0002H374.631C370.42 98.0002 367.009 94.5796 367.009 90.3781V58.3755C367.009 54.174 370.42 50.7534 374.631 50.7534H406.624C410.835 50.7534 414.246 54.1731 414.246 58.3755H414.245Z" fill="url(#paint22_linear_310_2)"/>
<path d="M399.128 75.4752L385.695 84.5474C384.822 85.1422 383.632 84.5102 383.632 83.4505V65.3069C383.632 64.2463 384.822 63.6152 385.695 64.2091L399.128 73.2822C399.908 73.8017 399.908 74.9445 399.128 75.4752Z" fill="white"/>
<path d="M497.033 94.6762C496.391 96.2978 494.696 97.3506 492.955 97.2086C490.012 96.9679 488.261 93.8399 489.695 91.1604C490.026 90.5499 490.508 90.0351 491.096 89.6659C491.685 89.2967 492.358 89.0857 493.052 89.0532C496.083 88.9354 498.124 91.9214 497.033 94.6762Z" fill="#1DB06E"/>
<path d="M489.519 104.673C489.307 105.144 488.959 105.541 488.52 105.814C488.08 106.086 487.57 106.221 487.054 106.203C485.065 106.111 483.881 103.971 484.945 102.203C485.15 101.867 485.429 101.584 485.762 101.375C486.095 101.166 486.471 101.038 486.862 100.999C487.319 100.951 487.781 101.025 488.201 101.212C488.621 101.4 488.983 101.695 489.253 102.067C489.522 102.44 489.689 102.876 489.736 103.334C489.782 103.791 489.708 104.253 489.519 104.673Z" fill="#1CAF6D"/>
<path d="M452.781 231.256L444.93 236.558C444.814 236.637 444.678 236.682 444.538 236.689C444.398 236.696 444.259 236.665 444.135 236.6C444.011 236.534 443.908 236.436 443.835 236.316C443.763 236.195 443.724 236.058 443.724 235.918V225.313C443.724 225.173 443.763 225.035 443.835 224.915C443.908 224.795 444.011 224.697 444.135 224.631C444.259 224.565 444.398 224.534 444.538 224.542C444.678 224.549 444.814 224.594 444.93 224.672L452.781 229.974C452.886 230.045 452.972 230.14 453.032 230.252C453.091 230.364 453.123 230.488 453.123 230.615C453.123 230.742 453.091 230.866 453.032 230.978C452.972 231.09 452.886 231.185 452.781 231.256V231.256ZM452.781 192.854L444.93 198.156C444.814 198.234 444.678 198.28 444.538 198.287C444.398 198.294 444.259 198.263 444.135 198.197C444.011 198.132 443.908 198.033 443.835 197.913C443.763 197.793 443.724 197.656 443.724 197.515V186.911C443.724 186.771 443.763 186.633 443.835 186.513C443.908 186.393 444.011 186.295 444.135 186.229C444.259 186.163 444.398 186.132 444.538 186.139C444.678 186.147 444.814 186.192 444.93 186.27L452.781 191.572C452.886 191.643 452.973 191.738 453.032 191.85C453.092 191.962 453.123 192.086 453.123 192.213C453.123 192.34 453.092 192.465 453.032 192.577C452.973 192.688 452.886 192.784 452.781 192.854ZM452.781 154.452L444.93 159.754C444.814 159.832 444.678 159.877 444.538 159.885C444.398 159.892 444.259 159.861 444.135 159.795C444.011 159.729 443.908 159.631 443.835 159.511C443.763 159.391 443.724 159.253 443.724 159.113V148.509C443.724 148.368 443.763 148.231 443.835 148.111C443.908 147.991 444.011 147.892 444.135 147.827C444.259 147.761 444.398 147.73 444.538 147.737C444.678 147.744 444.814 147.79 444.93 147.868L452.781 153.17C452.886 153.24 452.973 153.336 453.032 153.447C453.092 153.559 453.123 153.684 453.123 153.811C453.123 153.938 453.092 154.062 453.032 154.174C452.973 154.286 452.886 154.381 452.781 154.452Z" fill="white"/>
<path d="M582.606 347.149C582.606 348.166 575.538 348.993 566.817 348.993C558.092 348.993 551.025 348.166 551.025 347.149C551.025 346.138 558.092 345.311 566.817 345.311C575.538 345.311 582.606 346.138 582.606 347.149ZM563.649 322.525L563.699 322.326C566.571 318.377 565.08 312.258 562.541 308.087C561.844 306.944 560.927 305.595 561.513 304.39C561.926 303.539 562.922 303.182 563.71 302.661C566.025 301.133 566.668 297.962 566.294 295.217C565.92 292.469 564.753 289.888 564.255 287.16C563.705 284.118 563.999 280.983 565.105 278.096C565.6 276.808 566.438 275.441 567.799 275.208C569.161 274.976 570.444 276.031 571.102 277.247C573.635 281.924 569.719 288.247 572.66 292.766C574.079 294.942 577.078 296.393 573.815 300.861C572.892 302.122 571.798 303.345 571.466 304.871C571.079 306.656 571.808 308.466 572.119 310.265C572.995 315.347 568.35 320.406 563.649 322.525Z" fill="url(#paint23_linear_310_2)"/>
<path d="M552.225 307.266C551.858 308.239 551.25 309.188 551.413 310.305C551.648 311.892 553.194 312.671 554.434 313.318C558.737 315.687 563.463 319.224 565.005 323.828H565.559C566.54 318.804 566.442 312.941 563.186 309.517C561.931 308.212 560.354 307.02 559.774 305.201C559.281 303.647 559.636 301.979 559.892 300.405C560.782 294.748 557.947 294.812 555.788 292.963C551.457 289.253 553.938 281.062 551.311 276.153C549.589 272.969 546.527 273.448 545.487 278.52C544.667 282.412 545.005 286.508 546.357 289.882C547.578 292.935 549.519 295.371 550.944 298.152C552.359 300.953 553.29 304.418 552.225 307.266Z" fill="url(#paint24_linear_310_2)"/>
<path d="M557.26 306.631C557.265 307.072 557.243 307.527 557.222 307.966C557.066 311.168 557.366 312.216 560.333 315.002C560.714 315.358 561.107 315.727 561.466 316.102C563.452 318.176 564.724 320.957 565.091 323.828H565.506C565.151 320.854 563.842 318.013 561.752 315.828C560.304 314.316 558.412 313.003 557.812 311.037C557.386 309.64 557.674 308.14 557.657 306.627C557.57 299.616 551.37 294.7 548.687 288.663C547.131 285.156 547.041 281.657 548.442 279.06C548.567 278.829 548.217 278.642 548.094 278.872C546.634 281.577 546.719 285.204 548.326 288.823C551.014 294.874 557.175 299.793 557.26 306.631Z" fill="white"/>
<path d="M563.1 323.828H563.552C568.608 314.712 569.29 314.506 568.169 309.027C567.806 307.257 567.464 305.583 567.964 303.952C568.326 302.771 569.139 301.697 569.58 300.498C570.194 298.824 570.079 296.991 569.909 295.256C569.41 290.214 568.48 285.223 567.127 280.339C567.058 280.087 566.676 280.192 566.746 280.445C568.09 285.293 569.021 290.289 569.515 295.295C569.893 299.136 569.406 300.166 568.459 301.924C568.132 302.53 567.794 303.158 567.586 303.837C566.632 306.948 568.552 310.145 568.198 313.276C567.964 315.331 567.081 316.649 563.1 323.828Z" fill="white"/>
<path d="M568.164 323.828C569.875 319.103 575.032 315.767 579.647 313.645C580.932 313.089 582.529 312.424 582.878 310.859C583.121 309.756 582.584 308.764 582.287 307.768C581.431 304.851 582.61 301.462 584.224 298.771C585.846 296.1 587.957 293.811 589.396 290.853C590.988 287.587 591.621 283.526 591.084 279.584C590.416 274.477 587.399 273.743 585.447 276.802C582.468 281.512 584.354 289.859 579.766 293.246C578.517 294.168 576.924 294.552 575.98 295.778C573.978 298.368 576.102 302.17 574.908 305.165C574.198 306.936 572.54 308.011 571.193 309.222C567.582 312.508 567.145 318.634 567.856 323.827H568.164V323.828Z" fill="url(#paint25_linear_310_2)"/>
<path d="M568.209 323.828C568.79 320.292 570.407 316.925 572.843 314.296C573.265 313.842 573.726 313.389 574.17 312.952C577.823 309.361 578.041 308.084 578.009 304.906C577.98 301.951 578.116 300.739 581.604 296.959C582.038 296.49 582.487 296.004 582.901 295.514C586.369 291.41 588.096 285.986 587.639 280.631C587.617 280.371 587.224 280.406 587.245 280.666C587.694 285.916 585.999 291.235 582.599 295.259C580.794 297.394 578.395 299.372 577.79 302.18C577.596 303.08 577.605 304.01 577.614 304.91C577.645 307.968 577.472 309.152 573.893 312.67C573.436 313.112 572.989 313.565 572.553 314.028C570.05 316.729 568.393 320.194 567.807 323.828H568.209Z" fill="white"/>
<path d="M581.838 321.272V326.188C581.838 326.612 581.493 326.956 581.069 326.956H553.036C552.832 326.956 552.637 326.875 552.493 326.731C552.349 326.587 552.268 326.392 552.268 326.188V321.272C552.268 320.848 552.612 320.504 553.036 320.504H581.069C581.493 320.504 581.838 320.848 581.838 321.272Z" fill="url(#paint26_linear_310_2)"/>
<path d="M580.026 326.957L576.019 345.612C575.926 346.048 575.685 346.439 575.338 346.719C574.992 347 574.559 347.153 574.113 347.152H559.993C559.546 347.152 559.114 346.999 558.767 346.719C558.42 346.439 558.18 346.048 558.086 345.611L554.08 326.957H580.026Z" fill="url(#paint27_linear_310_2)"/>
<defs>
<linearGradient id="paint0_linear_310_2" x1="370" y1="-43.12" x2="370" y2="483.12" gradientUnits="userSpaceOnUse">
<stop stop-color="#65EE9C"/>
<stop offset="1" stop-color="#0CA263"/>
</linearGradient>
<linearGradient id="paint1_linear_310_2" x1="350.194" y1="346.506" x2="449.669" y2="344.344" gradientUnits="userSpaceOnUse">
<stop stop-color="#2263AF"/>
<stop offset="1" stop-color="#7DA9FD"/>
</linearGradient>
<linearGradient id="paint2_linear_310_2" x1="397.831" y1="321.078" x2="397.831" y2="346.586" gradientUnits="userSpaceOnUse">
<stop stop-color="#647EDC"/>
<stop offset="1" stop-color="#7F98F6"/>
</linearGradient>
<linearGradient id="paint3_linear_310_2" x1="397.832" y1="304.503" x2="397.832" y2="335.528" gradientUnits="userSpaceOnUse">
<stop stop-color="#647EDC"/>
<stop offset="1" stop-color="#7F98F6"/>
</linearGradient>
<linearGradient id="paint4_linear_310_2" x1="397.833" y1="123.186" x2="397.833" y2="306.194" gradientUnits="userSpaceOnUse">
<stop stop-color="#647EDC"/>
<stop offset="1" stop-color="#7F98F6"/>
</linearGradient>
<linearGradient id="paint5_linear_310_2" x1="190.709" y1="100.522" x2="219.903" y2="124.85" gradientUnits="userSpaceOnUse">
<stop stop-color="#FF2A6A"/>
<stop offset="1" stop-color="#FFB7C8"/>
</linearGradient>
<linearGradient id="paint6_linear_310_2" x1="238.268" y1="217.09" x2="238.268" y2="260.032" gradientUnits="userSpaceOnUse">
<stop stop-color="white"/>
<stop offset="1" stop-color="#FFBFBF"/>
</linearGradient>
<linearGradient id="paint7_linear_310_2" x1="259.71" y1="201.346" x2="259.71" y2="222.284" gradientUnits="userSpaceOnUse">
<stop stop-color="white"/>
<stop offset="1" stop-color="#FFBFBF"/>
</linearGradient>
<linearGradient id="paint8_linear_310_2" x1="158.812" y1="340.019" x2="241.528" y2="340.019" gradientUnits="userSpaceOnUse">
<stop stop-color="#9595F9"/>
<stop offset="1" stop-color="#E4E4FF"/>
</linearGradient>
<linearGradient id="paint9_linear_310_2" x1="158.812" y1="368.131" x2="235.581" y2="368.131" gradientUnits="userSpaceOnUse">
<stop stop-color="#4444D2"/>
<stop offset="1" stop-color="#D0D0FF"/>
</linearGradient>
<linearGradient id="paint10_linear_310_2" x1="268.511" y1="367.626" x2="268.511" y2="385.47" gradientUnits="userSpaceOnUse">
<stop stop-color="#985551"/>
<stop offset="0.550016" stop-color="#603735"/>
</linearGradient>
<linearGradient id="paint11_linear_310_2" x1="226.034" y1="277.152" x2="258.504" y2="372.457" gradientUnits="userSpaceOnUse">
<stop offset="0.366438" stop-color="#D02727"/>
<stop offset="1" stop-color="#FFB2B2"/>
</linearGradient>
<linearGradient id="paint12_linear_310_2" x1="205.273" y1="277.151" x2="237.744" y2="372.456" gradientUnits="userSpaceOnUse">
<stop offset="0.366438" stop-color="#D02727"/>
<stop offset="1" stop-color="#FFB2B2"/>
</linearGradient>
<linearGradient id="paint13_linear_310_2" x1="247.751" y1="367.626" x2="247.751" y2="385.47" gradientUnits="userSpaceOnUse">
<stop offset="0.44929" stop-color="#603735"/>
<stop offset="1" stop-color="#AA635F"/>
</linearGradient>
<linearGradient id="paint14_linear_310_2" x1="189.701" y1="154.383" x2="171.247" y2="216.756" gradientUnits="userSpaceOnUse">
<stop offset="0.130446" stop-color="#061026"/>
<stop offset="1" stop-color="#34476F"/>
</linearGradient>
<linearGradient id="paint15_linear_310_2" x1="191.707" y1="198.07" x2="191.707" y2="288.16" gradientUnits="userSpaceOnUse">
<stop stop-color="#A45A56"/>
<stop offset="1" stop-color="#2F0F0E"/>
</linearGradient>
<linearGradient id="paint16_linear_310_2" x1="215.381" y1="229.575" x2="215.381" y2="261.597" gradientUnits="userSpaceOnUse">
<stop stop-color="#3A3AE0"/>
<stop offset="1" stop-color="#8B8BFF"/>
</linearGradient>
<linearGradient id="paint17_linear_310_2" x1="181.554" y1="238.434" x2="181.554" y2="267.312" gradientUnits="userSpaceOnUse">
<stop stop-color="white"/>
<stop offset="1" stop-color="#FFBFBF"/>
</linearGradient>
<linearGradient id="paint18_linear_310_2" x1="193.106" y1="182.162" x2="193.106" y2="217.708" gradientUnits="userSpaceOnUse">
<stop stop-color="white"/>
<stop offset="1" stop-color="#FFBFBF"/>
</linearGradient>
<linearGradient id="paint19_linear_310_2" x1="197.543" y1="164.025" x2="197.543" y2="192.606" gradientUnits="userSpaceOnUse">
<stop stop-color="white"/>
<stop offset="1" stop-color="#FFBFBF"/>
</linearGradient>
<linearGradient id="paint20_linear_310_2" x1="193.776" y1="159.505" x2="181.519" y2="188.644" gradientUnits="userSpaceOnUse">
<stop stop-color="#0B1427"/>
<stop offset="1" stop-color="#212B40"/>
</linearGradient>
<linearGradient id="paint21_linear_310_2" x1="187.617" y1="176.365" x2="187.617" y2="184.415" gradientUnits="userSpaceOnUse">
<stop stop-color="white"/>
<stop offset="0.479777" stop-color="#FFBFBF"/>
</linearGradient>
<linearGradient id="paint22_linear_310_2" x1="361.547" y1="57.2718" x2="411.284" y2="94.0343" gradientUnits="userSpaceOnUse">
<stop stop-color="#BD31FF"/>
<stop offset="1" stop-color="#D1D1FF"/>
</linearGradient>
<linearGradient id="paint23_linear_310_2" x1="580.329" y1="277.993" x2="532.882" y2="310.948" gradientUnits="userSpaceOnUse">
<stop stop-color="#FFC5E3"/>
<stop offset="1" stop-color="#CD3C83"/>
</linearGradient>
<linearGradient id="paint24_linear_310_2" x1="564.586" y1="276.044" x2="532.756" y2="297.947" gradientUnits="userSpaceOnUse">
<stop stop-color="#FFC5E3"/>
<stop offset="1" stop-color="#CD3C83"/>
</linearGradient>
<linearGradient id="paint25_linear_310_2" x1="589.563" y1="276.852" x2="556.992" y2="302.513" gradientUnits="userSpaceOnUse">
<stop stop-color="#FFC5E3"/>
<stop offset="1" stop-color="#CD3C83"/>
</linearGradient>
<linearGradient id="paint26_linear_310_2" x1="552.387" y1="323.8" x2="581.581" y2="324.881" gradientUnits="userSpaceOnUse">
<stop stop-color="#2F2FC0"/>
<stop offset="1" stop-color="#9090FF"/>
</linearGradient>
<linearGradient id="paint27_linear_310_2" x1="556.172" y1="340.019" x2="576.716" y2="340.019" gradientUnits="userSpaceOnUse">
<stop stop-color="#7878F9"/>
<stop offset="1" stop-color="#C8C8FF"/>
</linearGradient>
</defs>
</svg>
