<svg width="740" height="440" viewBox="0 0 740 440" fill="none" xmlns="http://www.w3.org/2000/svg">
<rect width="740" height="440" fill="url(#paint0_linear_102_1677)"/>
<path d="M392.16 366.74C322.954 370.194 249.223 339.003 213.391 283.025C181.272 232.847 191.934 182.01 194.97 169.745C198.574 155.184 204.796 130.048 223.763 124.709C247.277 118.089 264.389 149.215 292.174 145.908C320.933 142.484 317.216 107.398 355.706 82.1511C404.543 50.1164 469.778 67.7376 473.021 68.6601C485.987 72.3489 519.603 83.791 543.887 112.993C587.124 164.984 571.993 238.656 542.667 283.954C493.316 360.185 397.012 366.498 392.16 366.74Z" fill="white" fill-opacity="0.16"/>
<path d="M254.141 184.439C263.06 191.255 253.659 203.22 255.625 212.005C257.926 222.283 268.221 219.259 273.863 226.26C278.454 231.947 278.302 244.321 278.093 251.321C277.784 261.432 273.746 263.292 264.728 259.752C259.756 257.796 255.069 254.985 249.458 254.685C244.469 254.422 239.695 257.243 234.905 257.078C225.402 256.75 226.165 249.745 223.456 243.126C217.224 227.888 187.002 238.646 180.206 219.513C176.809 209.952 185.769 208.031 187.893 200.402C190.908 189.591 175.769 185.076 169.267 179.502C155.762 167.921 158.572 145.694 180.267 142.665C200.737 139.811 211.818 160.053 217.899 174.57C220.547 180.893 222.656 189.459 231.929 187.833C240.921 186.254 244.466 176.609 254.141 184.439Z" fill="url(#paint1_linear_102_1677)"/>
<path d="M273.811 259.643C273.82 259.641 273.818 259.631 273.827 259.629C274.062 259.437 274.089 259.1 273.893 258.884L267.166 251.739C265.714 250.197 264.149 248.546 262.368 246.762C258.599 242.969 254.422 239.507 250.391 236.165C246.916 233.285 243.32 230.308 239.971 227.106C234.698 221.881 230.304 215.903 226.052 210.116L225.378 209.197C224.578 208.113 223.622 206.823 222.639 205.5C216.882 196.229 210.596 187.793 203.962 180.431C196.685 172.357 188.735 165.288 180.325 159.427C180.079 159.251 179.724 159.307 179.538 159.545C179.341 159.777 179.39 160.105 179.635 160.28C195.784 171.54 209.537 186.518 221.681 206.077L221.708 206.11C222.7 207.43 223.648 208.732 224.46 209.823L225.133 210.742C229.411 216.553 233.834 222.572 239.159 227.852L239.171 227.859C242.544 231.085 246.153 234.079 249.652 236.973C253.669 240.298 257.823 243.746 261.556 247.508C263.326 249.286 264.888 250.928 266.338 252.461L273.065 259.606C273.227 259.801 273.573 259.826 273.811 259.643Z" fill="white" fill-opacity="0.5"/>
<path d="M241.957 230.173C241.989 230.146 242.022 230.118 242.052 230.082C242.25 229.85 242.201 229.521 241.955 229.346C234.955 224.466 227.933 220.729 221.102 218.242C215.611 216.245 210.231 215.039 205.095 214.661C196.298 214.012 191.333 215.997 191.128 216.075C190.835 216.193 190.696 216.508 190.817 216.772C190.938 217.035 191.258 217.154 191.551 217.036C191.631 217.007 196.54 215.074 205.052 215.712C212.953 216.311 225.642 219.307 241.261 230.192C241.473 230.346 241.76 230.327 241.957 230.173ZM255.607 241.652C255.829 241.482 255.893 241.175 255.735 240.959C244.123 224.219 241.817 213.144 241.927 206.802C242.049 200.057 244.823 197.2 244.855 197.173C245.076 196.955 245.066 196.626 244.843 196.426C244.623 196.235 244.258 196.254 244.046 196.469C243.921 196.596 240.934 199.66 240.803 206.815C240.726 210.96 241.632 215.641 243.492 220.738C245.801 227.071 249.6 234.073 254.787 241.554C254.951 241.797 255.306 241.859 255.568 241.69C255.575 241.679 255.591 241.665 255.607 241.652Z" fill="white" fill-opacity="0.5"/>
<path d="M237.915 245.933C237.858 245.818 236.584 243.116 233.706 239.023C232.689 237.581 231.406 235.868 229.823 233.965C229.797 233.922 229.761 233.88 229.727 233.847C229.655 233.763 229.582 233.67 229.51 233.586C228.854 231.884 227.412 227.361 227.871 225.205C227.876 225.176 227.882 225.156 227.889 225.135L227.887 225.126C227.887 225.126 227.886 225.117 227.895 225.115C227.945 224.896 228.424 222.69 228.656 220.265C228.999 216.654 228.601 214.487 227.444 213.644C226.932 213.279 226.038 212.986 224.668 213.702C223.465 214.323 222.735 215.249 222.51 216.445C221.9 219.718 225.424 224.059 226.389 225.183C226.142 226.766 226.58 229.003 227.089 230.854C225.286 228.901 223.217 226.849 220.875 224.775C220.868 224.728 220.86 224.681 220.832 224.628L217.804 217.024C217.897 216.655 218.44 214.37 218.731 211.84C219.174 207.963 218.783 205.604 217.538 204.641C216.978 204.217 215.986 203.854 214.392 204.607C212.824 205.346 211.927 206.482 211.743 207.978C211.299 211.501 215.041 215.882 216.276 217.134L218.517 222.77C217.717 222.117 216.908 221.466 216.083 220.836L216.061 220.82C212.675 218.239 209.097 215.89 205.342 213.801C205.091 213.622 202.55 211.735 202.194 208.258C202.317 207.72 202.826 205.403 203.084 202.85C203.493 198.768 203.032 196.276 201.698 195.242C201.104 194.785 200.05 194.394 198.362 195.163C196.897 195.827 196.011 196.855 195.745 198.203C194.967 202.088 199.756 207.455 200.75 208.526C200.909 209.889 201.341 211.044 201.86 211.974C201.357 211.722 200.845 211.471 200.343 211.228C200.333 211.221 200.312 211.214 200.301 211.207C198.309 210.253 196.281 209.372 194.205 208.557C193.106 208.126 191.99 207.707 190.858 207.311L186.958 201.451C186.949 200.648 186.897 199.056 186.661 197.342C186.19 193.923 185.276 191.89 183.846 191.14C183.152 190.776 182.001 190.555 180.439 191.561C179.137 192.399 178.485 193.447 178.526 194.676C178.573 196.297 179.839 198.138 182.302 200.134C184.056 201.559 185.774 202.539 185.849 202.584L186.039 202.686L188.608 206.543C187.38 206.143 186.136 205.765 184.876 205.408C184.845 205.394 184.806 205.391 184.775 205.377C179.528 203.909 174.065 202.822 168.391 202.134L165.463 198.087C165.342 197.647 164.926 196.183 164.215 194.615C163.037 192.031 161.666 190.476 160.138 190.011C158.874 189.626 157.596 189.972 156.322 191.036C155.117 192.05 154.649 193.105 154.949 194.167C155.349 195.595 157.089 196.821 160.276 197.912C162.028 198.513 163.692 198.879 164.359 199.017L166.453 201.918C162.759 201.534 158.978 201.318 155.126 201.257C154.611 200.988 152.947 200.162 150.935 199.441C147.646 198.252 145.135 197.94 143.485 198.53C142.524 198.871 141.85 199.501 141.491 200.403C141.225 201.003 141.038 202.251 141.929 203.224C143.626 205.06 148.151 204.895 155.774 202.731C155.811 202.724 155.847 202.709 155.883 202.693C160.083 202.773 164.078 203.059 167.89 203.52C172.819 204.111 177.421 204.987 181.721 206.075L171.368 208.625C169.669 208.284 163.518 207.272 160.464 209.475C159.367 210.27 158.772 211.374 158.695 212.767C158.619 214.332 159.299 215.014 159.884 215.301C160.396 215.551 161.05 215.615 161.855 215.491C163.231 215.273 165.042 214.493 167.324 213.138C169.843 211.647 171.993 210.016 172.078 209.954L172.181 209.88L184.537 206.835C186.461 207.378 188.326 207.97 190.112 208.603C192.089 209.291 193.989 210.03 195.807 210.802C193.837 210.736 191.631 210.814 190.211 211.346C189.618 211.301 187.656 211.166 185.422 211.307C181.771 211.529 179.282 212.334 178.021 213.702C177.156 214.631 176.868 215.791 177.177 217.129C177.536 218.717 178.445 219.276 179.149 219.466C179.591 219.584 180.083 219.598 180.627 219.518C182.161 219.273 184.119 218.22 186.56 216.321C188.603 214.736 190.3 213.095 190.736 212.658C192.854 211.876 197.654 212.268 199.647 212.532C201.367 213.349 203.006 214.198 204.572 215.069C207.799 216.862 210.711 218.727 213.306 220.597C211.025 220.505 207.83 220.412 206.255 220.529L206.193 220.501C205.927 220.402 199.646 218.147 196.597 219.975C195.628 220.557 195.068 221.464 194.949 222.662C194.806 224.056 195.405 224.714 195.926 225.02C196.5 225.356 197.282 225.438 198.284 225.281C199.351 225.114 200.677 224.654 202.275 223.92C203.889 223.173 205.328 222.35 205.965 221.967C206.962 221.782 211.893 221.923 215.332 222.1C216.554 223.038 217.707 223.968 218.771 224.884C219.017 225.092 219.264 225.31 219.51 225.518C222.205 227.869 224.532 230.205 226.507 232.388C224.382 231.561 221.555 230.727 219.388 231.038C218.909 230.696 217.76 229.909 216.373 229.191C213.841 227.876 211.812 227.456 210.325 227.932C209.541 228.187 208.514 228.826 208.046 230.466C207.604 232.024 208.121 232.887 208.638 233.338C209.559 234.143 211.225 234.346 213.705 233.954C214.145 233.881 214.611 233.795 215.111 233.683C216.852 233.298 218.42 232.789 219.082 232.555L219.092 232.554C221.702 231.786 226.784 233.942 228.705 234.927C230.226 236.744 231.461 238.398 232.44 239.788C233.858 241.795 234.886 243.474 235.562 244.656C236.238 245.837 236.562 246.521 236.566 246.54C236.702 246.843 237.035 246.998 237.353 246.946C237.419 246.935 237.473 246.916 237.537 246.896C237.917 246.699 238.078 246.279 237.915 245.933ZM184.865 205.401C184.834 205.387 184.795 205.384 184.764 205.37Z" fill="white" fill-opacity="0.36"/>
<path d="M289.92 283.532C279.334 251.345 259.196 255.955 239.66 239.404C227.247 228.892 220.308 224.387 207.263 230.095C199.065 233.681 187.584 230.657 180.375 234.857C154.238 250.078 210.261 274.664 221.871 272.065C233.213 269.531 240.764 263.677 253.716 270.457C265.308 276.528 277.445 283.486 289.92 283.532Z" fill="url(#paint2_linear_102_1677)"/>
<path d="M288.211 280.284C288.169 280.155 288.091 280.039 287.998 279.962C287.802 279.81 268.559 264.241 242.921 253.512C242.179 253.205 241.407 252.883 240.547 252.531C239.009 251.848 237.4 251.209 235.62 250.569C234.833 250.286 234.018 250.007 233.127 249.715L232.559 249.535C224.336 246.934 215.839 244.247 207.617 243.803C206.882 243.744 206.119 243.698 205.366 243.65C203.936 243.567 202.451 243.498 200.816 243.445C200.055 243.417 199.295 243.399 198.536 243.381C197.814 243.368 197.044 243.341 196.264 243.306C196.045 243.3 195.898 243.534 195.93 243.846C195.962 244.158 196.168 244.413 196.397 244.428C197.187 244.463 197.966 244.488 198.687 244.501C199.447 244.519 200.198 244.538 200.958 244.566C202.584 244.62 204.069 244.689 205.489 244.774C206.243 244.821 206.996 244.869 207.741 244.927C215.896 245.367 224.353 248.039 232.538 250.634L233.106 250.815C233.988 251.107 234.794 251.388 235.57 251.663C237.33 252.295 238.93 252.934 240.467 253.608C241.336 253.959 242.108 254.282 242.85 254.588C268.381 265.28 287.529 280.754 287.716 280.917C287.923 281.087 288.161 281.005 288.239 280.749C288.262 280.603 288.255 280.442 288.211 280.284Z" fill="white" fill-opacity="0.5"/>
<path d="M477.287 328.519C479.198 328.519 480.748 326.97 480.748 325.059C480.748 323.148 479.198 321.6 477.287 321.6C475.376 321.6 473.826 323.148 473.826 325.059C473.826 326.97 475.376 328.519 477.287 328.519Z" fill="#25B672"/>
<path d="M313.832 335.971C315.743 335.971 317.293 334.422 317.293 332.511C317.293 330.601 315.743 329.052 313.832 329.052C311.921 329.052 310.371 330.601 310.371 332.511C310.371 334.422 311.921 335.971 313.832 335.971Z" fill="#21B370"/>
<path d="M266.146 281.051H511.797V98.9681C511.797 94.4718 508.151 90.8268 503.654 90.8268H274.289C269.792 90.8268 266.146 94.4718 266.146 98.9681V281.051Z" fill="url(#paint3_linear_102_1677)"/>
<path d="M504.26 98.3606H273.681V281.051H504.26V98.3606Z" fill="white"/>
<path d="M277.007 307.521H500.935C510.679 307.521 518.578 299.622 518.578 289.878V281.152H259.364V289.878C259.364 299.622 267.263 307.521 277.007 307.521Z" fill="url(#paint4_linear_102_1677)"/>
<path d="M515.863 173.903H262.078C259.08 173.903 256.649 171.472 256.649 168.474V148.122C256.649 145.124 259.08 142.694 262.078 142.694H515.863C518.861 142.694 521.292 145.124 521.292 148.122V168.474C521.292 171.472 518.861 173.903 515.863 173.903Z" fill="url(#paint5_linear_102_1677)"/>
<path d="M262.396 167.118V149.479C262.396 148.729 263.003 148.122 263.753 148.122H438.243C438.993 148.122 439.6 148.729 439.6 149.479V167.118C439.6 167.867 438.993 168.475 438.243 168.475H263.753C263.003 168.475 262.396 167.867 262.396 167.118Z" fill="white"/>
<path d="M498.059 159.386C495.885 159.386 494.123 157.624 494.123 155.45V150.838C494.123 148.665 495.885 146.903 498.059 146.903C500.232 146.903 501.994 148.665 501.994 150.838V155.45C501.994 157.624 500.232 159.386 498.059 159.386Z" fill="white"/>
<path d="M504.979 153.756C504.38 153.756 503.894 154.243 503.894 154.842V156.109C503.894 159.326 501.276 161.943 498.058 161.943C494.84 161.943 492.222 159.326 492.222 156.109V154.842C492.222 154.243 491.736 153.756 491.136 153.756C490.537 153.756 490.051 154.243 490.051 154.842V156.109C490.051 160.155 493.069 163.507 496.972 164.039V168.741C496.972 169.341 497.458 169.827 498.058 169.827C498.657 169.827 499.144 169.341 499.144 168.741V164.039C503.047 163.507 506.065 160.155 506.065 156.109V154.842C506.065 154.243 505.579 153.756 504.979 153.756Z" fill="white"/>
<path d="M472.919 150.066H469.734L469.435 148.704C469.244 147.832 468.472 147.211 467.579 147.211H461.547C460.655 147.211 459.882 147.832 459.691 148.704L459.393 150.066H456.208C453.96 150.066 452.137 151.889 452.137 154.137V165.392C452.137 167.641 453.96 169.464 456.208 169.464H472.918C475.167 169.464 476.99 167.641 476.99 165.392V154.137C476.99 151.889 475.167 150.066 472.919 150.066Z" fill="white"/>
<path d="M464.563 166.549C468.311 166.549 471.349 163.512 471.349 159.765C471.349 156.018 468.311 152.98 464.563 152.98C460.815 152.98 457.777 156.018 457.777 159.765C457.777 163.512 460.815 166.549 464.563 166.549Z" fill="#E0E0E0"/>
<path d="M464.563 162.479C463.066 162.479 461.849 161.261 461.849 159.765C461.849 158.268 463.066 157.051 464.563 157.051C466.06 157.051 467.277 158.268 467.277 159.765C467.277 161.261 466.06 162.479 464.563 162.479Z" fill="#CCCCCC"/>
<path d="M471.319 195.455H409.767C405.348 195.455 401.767 199.036 401.767 203.455V264.993C401.767 269.411 405.348 272.993 409.767 272.993H471.319C475.737 272.993 479.319 269.411 479.319 264.993V203.455C479.319 199.036 475.737 195.455 471.319 195.455Z" fill="#FBE9FF"/>
<path d="M459.834 212.574H451.015C451.015 218.357 446.326 223.045 440.542 223.045C434.759 223.045 430.07 218.357 430.07 212.574H421.251L410.007 222.022L416.306 230.43L423.966 224.349L418.537 255.873H462.548L457.119 224.349L464.779 230.43L471.078 222.022L459.834 212.574Z" fill="url(#paint6_linear_102_1677)"/>
<path d="M373.263 264.353C373.263 268.741 369.728 272.31 365.34 272.352L306.701 272.915C302.253 272.958 298.624 269.364 298.624 264.916V203.378C298.624 198.99 302.159 195.421 306.547 195.379L365.187 194.816C369.635 194.773 373.263 198.367 373.263 202.816V264.353Z" fill="#FBE9FF"/>
<path d="M367.934 222.021L357.068 212.893C356.823 212.687 356.514 212.574 356.195 212.574H344.184V216.297H330.612V212.574H318.601C318.282 212.574 317.973 212.687 317.728 212.893L306.862 222.021L313.161 230.429L320.821 224.349L318.107 255.873H356.689L353.975 224.349L361.634 230.429L367.934 222.021ZM344.184 217.655V220.775C344.184 220.821 344.181 220.866 344.18 220.911H330.616C330.615 220.866 330.612 220.821 330.612 220.775V217.655H344.184ZM337.398 227.56C334.163 227.56 331.46 225.296 330.779 222.268H344.017C343.336 225.296 340.632 227.56 337.398 227.56Z" fill="url(#paint7_linear_102_1677)"/>
<path d="M301.35 179.811V138.419C301.35 137.669 301.957 137.062 302.707 137.062H358.579C359.328 137.062 359.936 137.669 359.936 138.419V179.811C359.936 180.56 359.328 181.168 358.579 181.168H302.707C301.957 181.168 301.35 180.56 301.35 179.811Z" fill="url(#paint8_linear_102_1677)"/>
<path d="M357.231 139.768H304.055V178.461H357.231V139.768Z" fill="white"/>
<path d="M341.415 158.337L334.638 169.684L324.178 153.975L304.054 178.8H357.23L341.415 158.337Z" fill="url(#paint9_linear_102_1677)"/>
<path d="M335.752 154.291C337.626 154.291 339.145 152.772 339.145 150.898C339.145 149.025 337.626 147.506 335.752 147.506C333.878 147.506 332.359 149.025 332.359 150.898C332.359 152.772 333.878 154.291 335.752 154.291Z" fill="#FF8A83"/>
<path d="M410.847 103.198H370.144L372.912 73.0279H408.078L410.847 103.198Z" fill="url(#paint10_linear_102_1677)"/>
<path d="M390.495 129.128C379.255 129.128 370.144 120.016 370.144 108.776V103.198H410.847V108.776C410.847 120.016 401.735 129.128 390.495 129.128Z" fill="url(#paint11_linear_102_1677)"/>
<path d="M451.553 103.198H410.849L408.08 73.0278H443.246L451.553 103.198Z" fill="url(#paint12_linear_102_1677)"/>
<path d="M431.201 129.128C419.961 129.128 410.85 120.016 410.85 108.776V103.198H451.553V108.776C451.553 120.016 442.441 129.128 431.201 129.128Z" fill="url(#paint13_linear_102_1677)"/>
<path d="M492.287 103.198H451.549L443.243 73.028H478.391L492.287 103.198Z" fill="url(#paint14_linear_102_1677)"/>
<path d="M471.901 129.128C460.661 129.128 451.549 120.016 451.549 108.776V103.198H492.253V108.776C492.253 120.016 483.141 129.128 471.901 129.128Z" fill="url(#paint15_linear_102_1677)"/>
<path d="M530.115 103.198H492.29L478.395 73.0277H503.363C507.989 73.0277 512.296 75.3834 514.791 79.2779L530.115 103.198Z" fill="url(#paint16_linear_102_1677)"/>
<path d="M511.169 129.128C500.724 129.128 492.257 120.661 492.257 110.216V103.198H530.082V110.216C530.082 120.661 521.614 129.128 511.169 129.128Z" fill="url(#paint17_linear_102_1677)"/>
<path d="M329.304 103.198H370.144L372.913 73.0279H337.61L329.304 103.198Z" fill="url(#paint18_linear_102_1677)"/>
<path d="M349.724 129.128C361.001 129.128 370.144 119.986 370.144 108.708V103.198H329.304V108.708C329.304 119.986 338.446 129.128 349.724 129.128Z" fill="url(#paint19_linear_102_1677)"/>
<path d="M288.566 103.198H329.304L337.61 73.0278H301.104L288.566 103.198Z" fill="url(#paint20_linear_102_1677)"/>
<path d="M308.951 129.128C320.192 129.128 329.303 120.016 329.303 108.776V103.198H288.6V108.776C288.6 120.016 297.711 129.128 308.951 129.128Z" fill="url(#paint21_linear_102_1677)"/>
<path d="M247.829 103.198H288.567L301.104 73.0277H272.462C267.515 73.0277 262.959 75.7195 260.573 80.0528L247.829 103.198Z" fill="url(#paint22_linear_102_1677)"/>
<path d="M268.216 129.128C279.456 129.128 288.568 120.016 288.568 108.776V103.197H247.864V108.776C247.864 120.016 256.976 129.128 268.216 129.128Z" fill="url(#paint23_linear_102_1677)"/>
<path d="M316.544 183.184C323.739 175.989 323.485 164.139 315.844 157.076C308.983 150.735 298.331 150.601 291.477 156.776C284.54 163.026 283.725 173.336 288.977 180.685L266.57 203.091C265.379 204.281 265.379 206.211 266.57 207.402C267.76 208.592 269.69 208.592 270.881 207.402L293.288 184.996C300.386 190.068 310.247 189.48 316.544 183.184ZM294.365 179.628C289.172 174.425 289.12 166.01 294.249 160.87C299.378 155.73 307.775 155.782 312.968 160.985C318.16 166.189 318.212 174.604 313.083 179.744C307.954 184.884 299.557 184.832 294.365 179.628Z" fill="url(#paint24_linear_102_1677)"/>
<path fill-rule="evenodd" clip-rule="evenodd" d="M520.826 244.38C558.431 248.973 579.765 249.816 584.826 246.91C578.776 244.261 571.631 241.581 563.394 238.871C555.156 236.161 540.967 237.783 520.826 243.735" fill="#1F2A54"/>
<path fill-rule="evenodd" clip-rule="evenodd" d="M549.988 328.6C548.955 332.125 548.611 334.806 548.955 336.643C549.471 339.398 555.642 340.399 560.653 338.911C563.994 337.919 563.483 335.008 559.119 330.176L549.988 328.6Z" fill="#022329"/>
<path fill-rule="evenodd" clip-rule="evenodd" d="M559.216 331.929C558.567 334.601 558.731 337.4 559.689 339.981C561.128 343.896 571.038 340.011 571.696 335.722C572.355 331.434 570.346 328.682 569.326 322.466C568.306 316.249 569.404 316.381 567.654 313.71C566.488 311.929 565.227 310.892 563.872 310.6L559.216 331.929Z" fill="#022329"/>
<path fill-rule="evenodd" clip-rule="evenodd" d="M533.826 236.195C536.86 252.817 538.377 262.325 538.377 264.718C538.377 268.308 537.133 279.019 547.735 308.467C548.869 311.842 549.377 314.403 549.258 316.148C549.081 318.766 550.579 319.939 550.579 321.962C550.579 323.986 549.331 329.779 550.829 330.993C551.828 331.802 554.827 331.802 559.826 330.993L556.92 309.558C555.824 308.8 555.276 306.732 555.276 303.354C555.276 299.977 553.794 276.725 550.829 233.6L533.826 236.195Z" fill="url(#paint25_linear_102_1677)"/>
<mask id="mask0_102_1677" style="mask-type:luminance" maskUnits="userSpaceOnUse" x="533" y="233" width="27" height="100">
<path fill-rule="evenodd" clip-rule="evenodd" d="M533.875 236.014C536.869 252.749 538.365 262.321 538.365 264.73C538.365 268.345 537.138 279.127 547.598 308.774C548.717 312.172 549.218 314.75 549.101 316.507C548.926 319.143 550.404 320.323 550.404 322.36C550.404 324.398 549.172 330.23 550.651 331.452C551.637 332.266 554.596 332.266 559.528 331.452L556.66 309.873C555.579 309.109 555.038 307.027 555.038 303.627C555.038 300.227 553.576 276.818 550.651 233.402L533.875 236.014Z" fill="url(#paint26_linear_102_1677)"/>
</mask>
<g mask="url(#mask0_102_1677)">
<path fill-rule="evenodd" clip-rule="evenodd" d="M535.618 249.287C537.515 248.127 540.089 247.285 543.338 246.759L545.586 240.961L533.875 244.207L535.618 249.287Z" fill="#F99B9A"/>
</g>
<path fill-rule="evenodd" clip-rule="evenodd" d="M544.524 241.405C540.348 255.95 538.956 264.413 540.348 266.793C542.436 270.362 544.895 275.764 547.416 284.559C549.938 293.354 554.653 301.038 555.708 306.451C556.764 311.865 556.042 312.188 557.812 323.406C559.018 329.335 559.533 332.676 559.357 333.43C564.703 334.036 567.785 333.019 568.604 330.379C569.832 326.42 565.567 319.576 565.567 317.634C565.567 315.691 565.403 312.856 564.254 310.691C563.105 308.526 564.389 285.193 559.357 273.869C556.829 269.806 555.65 266.943 555.821 265.282C555.992 263.62 559.241 255.059 565.567 239.6L544.524 241.405Z" fill="url(#paint27_linear_102_1677)"/>
<mask id="mask1_102_1677" style="mask-type:luminance" maskUnits="userSpaceOnUse" x="540" y="239" width="29" height="95">
<path fill-rule="evenodd" clip-rule="evenodd" d="M544.734 241.197C540.565 255.705 539.175 264.146 540.565 266.52C542.65 270.081 545.104 275.468 547.621 284.241C550.138 293.014 554.845 300.679 555.899 306.078C556.953 311.478 556.232 311.801 557.999 322.99C559.202 328.904 559.717 332.237 559.542 332.988C564.878 333.593 567.955 332.578 568.772 329.945C569.998 325.996 565.741 319.169 565.741 317.232C565.741 315.295 565.577 312.466 564.43 310.307C563.283 308.147 564.564 284.874 559.542 273.579C557.017 269.526 555.841 266.67 556.011 265.013C556.182 263.355 559.425 254.816 565.741 239.396L544.734 241.197Z" fill="white"/>
</mask>
<g mask="url(#mask1_102_1677)">
<path fill-rule="evenodd" clip-rule="evenodd" d="M564.248 243.063C551.571 243.992 544.368 245.655 542.639 248.053L543.871 241.698C548.618 241.54 552.167 241.54 554.519 241.698C557.784 241.98 561.032 242.436 564.248 243.063Z" fill="#F68B8A"/>
</g>
<path fill-rule="evenodd" clip-rule="evenodd" d="M542.267 179.6C530.522 195.665 523.375 217.182 520.826 244.151C524.384 245.679 530.894 245.393 540.354 243.295C549.815 241.197 564.639 242.299 584.826 246.6C582.623 212.927 578.963 190.661 573.846 179.801L542.267 179.6Z" fill="url(#paint28_linear_102_1677)"/>
<mask id="mask2_102_1677" style="mask-type:luminance" maskUnits="userSpaceOnUse" x="521" y="179" width="65" height="68">
<path fill-rule="evenodd" clip-rule="evenodd" d="M542.567 179.584C530.831 195.692 523.69 217.265 521.143 244.304C524.698 245.836 531.202 245.55 540.656 243.447C550.109 241.343 564.922 242.447 585.093 246.759C582.892 212.999 579.235 190.675 574.121 179.787L542.567 179.584Z" fill="white"/>
</mask>
<g mask="url(#mask2_102_1677)">
<path fill-rule="evenodd" clip-rule="evenodd" d="M574.712 181.817C573.441 182.551 551.287 183.807 544.355 191.855C537.424 199.903 529.808 227.12 530.689 245.774L519.344 245.933C520.437 224.377 522.98 210.608 526.971 204.626C530.963 198.643 535.544 190.296 540.713 179.584H575.404C575.79 180.584 575.559 181.328 574.712 181.817Z" fill="url(#paint29_linear_102_1677)"/>
</g>
<path fill-rule="evenodd" clip-rule="evenodd" d="M560.253 134.6L539.13 136.495C534.634 136.948 532.258 140.664 532.004 147.644C531.622 158.115 530.832 170.616 527.294 176.818C523.756 183.021 520.944 195.586 518.615 203.421C516.285 211.255 510.443 215.363 509.773 215.924C509.102 216.486 508.505 217.469 509.021 219.696C508.894 223.192 509.371 224.94 510.452 224.94C510.433 225.448 510.729 225.765 511.338 225.89C512.252 226.078 514.975 222.49 515.261 221.045C515.546 219.599 516.281 219.227 516.983 218.554C517.684 217.881 520.119 215.217 520.119 213.022C521.431 210.3 522.979 207.696 524.746 205.24C527.2 201.883 536.678 186.529 536.678 182.637C536.678 178.745 541.611 166.59 541.611 158.783C541.611 150.976 543.527 171.171 542.569 179.491C547.103 179.926 550.406 180.295 552.48 180.597C556.156 181.134 561.21 181.698 563.13 181.71C566.873 181.681 570.583 180.998 574.089 179.692C576.535 172.634 577.758 167.814 577.758 165.232C577.851 171.587 577.986 176.524 578.163 180.041C578.428 185.318 583.627 204.05 585.247 209.742C586.867 215.435 585.174 216.699 587.153 219.922C589.131 223.145 588.702 227.576 589.639 228.291C590.263 228.768 590.777 228.692 591.181 228.064C592.893 228.354 594.122 228.311 594.868 227.935C595.988 227.372 595.75 224.706 596.39 223.322C597.03 221.938 597.077 221.29 595.766 219.922C594.454 218.554 591.762 215.524 591.181 213.493C590.6 211.463 590.143 203.002 590.143 194.316C590.143 185.629 588.019 178.198 587.656 174.032C587.278 167.895 587.457 161.737 588.191 155.633C588.979 150.004 588.786 140.746 581.145 138.732C576.051 137.389 569.087 136.012 560.253 134.6Z" fill="url(#paint30_linear_102_1677)"/>
<mask id="mask3_102_1677" style="mask-type:luminance" maskUnits="userSpaceOnUse" x="508" y="134" width="89" height="95">
<path fill-rule="evenodd" clip-rule="evenodd" d="M560.269 134.416L539.122 136.323C534.621 136.779 532.243 140.518 531.988 147.541C531.606 158.076 530.816 170.654 527.274 176.895C523.732 183.136 520.917 195.779 518.584 203.661C516.252 211.544 510.404 215.678 509.733 216.242C509.061 216.807 508.464 217.797 508.98 220.037C508.853 223.555 509.331 225.314 510.413 225.314C510.394 225.825 510.69 226.144 511.3 226.27C512.215 226.459 514.941 222.849 515.227 221.394C515.512 219.939 516.248 219.566 516.951 218.888C517.653 218.211 520.09 215.53 520.09 213.322C521.404 210.583 522.954 207.963 524.722 205.493C527.18 202.115 536.668 186.665 536.668 182.749C536.668 178.833 541.606 166.603 541.606 158.748C541.606 150.893 543.525 171.213 542.565 179.585C547.104 180.022 550.411 180.393 552.487 180.697C556.167 181.237 561.227 181.805 563.149 181.817C566.896 181.788 570.61 181.101 574.12 179.787C576.569 172.685 577.793 167.835 577.793 165.237C577.886 171.632 578.021 176.598 578.198 180.138C578.463 185.447 583.669 204.295 585.29 210.022C586.912 215.75 585.217 217.022 587.198 220.265C589.179 223.508 588.749 227.966 589.687 228.685C590.312 229.165 590.826 229.089 591.231 228.457C592.945 228.749 594.175 228.706 594.922 228.328C596.043 227.76 595.805 225.078 596.446 223.686C597.087 222.294 597.134 221.641 595.82 220.265C594.507 218.888 591.813 215.839 591.231 213.797C590.649 211.754 590.192 203.241 590.192 194.5C590.192 185.76 588.065 178.284 587.702 174.092C587.324 167.917 587.503 161.721 588.237 155.579C589.026 149.916 588.834 140.6 581.184 138.574C576.085 137.223 569.113 135.837 560.269 134.416Z" fill="white"/>
</mask>
<g mask="url(#mask3_102_1677)">
<path d="M577.835 165.678C579.64 159.493 580.543 154.835 580.543 151.703" stroke="#FD9493"/>
</g>
<mask id="mask4_102_1677" style="mask-type:luminance" maskUnits="userSpaceOnUse" x="508" y="134" width="89" height="95">
<path fill-rule="evenodd" clip-rule="evenodd" d="M560.269 134.416L539.122 136.323C534.621 136.779 532.243 140.518 531.988 147.541C531.606 158.076 530.816 170.654 527.274 176.895C523.732 183.136 520.917 195.779 518.584 203.661C516.252 211.544 510.404 215.678 509.733 216.242C509.061 216.807 508.464 217.797 508.98 220.037C508.853 223.555 509.331 225.314 510.413 225.314C510.394 225.825 510.69 226.144 511.3 226.27C512.215 226.459 514.941 222.849 515.227 221.394C515.512 219.939 516.248 219.566 516.951 218.888C517.653 218.211 520.09 215.53 520.09 213.322C521.404 210.583 522.954 207.963 524.722 205.493C527.18 202.115 536.668 186.665 536.668 182.749C536.668 178.833 541.606 166.603 541.606 158.748C541.606 150.893 543.525 171.213 542.565 179.585C547.104 180.022 550.411 180.393 552.487 180.697C556.167 181.237 561.227 181.805 563.149 181.817C566.896 181.788 570.61 181.101 574.12 179.787C576.569 172.685 577.793 167.835 577.793 165.237C577.886 171.632 578.021 176.598 578.198 180.138C578.463 185.447 583.669 204.295 585.29 210.022C586.912 215.75 585.217 217.022 587.198 220.265C589.179 223.508 588.749 227.966 589.687 228.685C590.312 229.165 590.826 229.089 591.231 228.457C592.945 228.749 594.175 228.706 594.922 228.328C596.043 227.76 595.805 225.078 596.446 223.686C597.087 222.294 597.134 221.641 595.82 220.265C594.507 218.888 591.813 215.839 591.231 213.797C590.649 211.754 590.192 203.241 590.192 194.5C590.192 185.76 588.065 178.284 587.702 174.092C587.324 167.917 587.503 161.721 588.237 155.579C589.026 149.916 588.834 140.6 581.184 138.574C576.085 137.223 569.113 135.837 560.269 134.416Z" fill="white"/>
</mask>
<g mask="url(#mask4_102_1677)">
<path fill-rule="evenodd" clip-rule="evenodd" d="M541.475 135.91C541.475 135.962 546.015 145.015 541.822 157.162L542.338 179.628C552.021 181.394 559.623 182.338 565.145 182.461C570.667 182.584 573.734 181.878 574.345 180.343C576.357 175.696 577.538 170.733 577.835 165.678C580.175 155.498 580.478 145.944 578.745 137.015C577.648 136.987 575.021 136.441 570.864 135.376C566.708 134.312 558.691 133.992 546.814 134.416C543.254 135.378 541.475 135.876 541.475 135.91Z" fill="url(#paint31_linear_102_1677)"/>
<mask id="mask5_102_1677" style="mask-type:luminance" maskUnits="userSpaceOnUse" x="541" y="134" width="39" height="49">
<path fill-rule="evenodd" clip-rule="evenodd" d="M541.476 135.91C541.476 135.962 546.016 145.015 541.823 157.162L542.339 179.628C552.022 181.394 559.624 182.338 565.146 182.461C570.668 182.584 573.735 181.878 574.346 180.343C576.358 175.696 577.539 170.733 577.836 165.678C580.176 155.498 580.479 145.944 578.746 137.015C577.649 136.987 575.022 136.441 570.865 135.376C566.709 134.312 558.692 133.992 546.815 134.416C543.255 135.378 541.476 135.876 541.476 135.91Z" fill="white"/>
</mask>
<g mask="url(#mask5_102_1677)">
<path fill-rule="evenodd" clip-rule="evenodd" d="M541.804 135.602C544.355 141.777 544.796 148.369 543.127 155.379C542.745 160.308 543.853 163.741 546.451 165.678C550.348 168.584 575.697 169.6 578.35 163.256C576.581 173.23 575.275 178.754 574.431 179.828C573.909 180.493 570.011 183.094 561.809 182.936C558.439 182.872 551.771 181.836 541.804 179.828L542.178 169.16L541.804 144.108L541.804 135.602Z" fill="url(#paint32_linear_102_1677)"/>
</g>
</g>
<mask id="mask6_102_1677" style="mask-type:luminance" maskUnits="userSpaceOnUse" x="508" y="134" width="89" height="95">
<path fill-rule="evenodd" clip-rule="evenodd" d="M560.269 134.416L539.122 136.323C534.621 136.779 532.243 140.518 531.988 147.541C531.606 158.076 530.816 170.654 527.274 176.895C523.732 183.136 520.917 195.779 518.584 203.661C516.252 211.544 510.404 215.678 509.733 216.242C509.061 216.807 508.464 217.797 508.98 220.037C508.853 223.555 509.331 225.314 510.413 225.314C510.394 225.825 510.69 226.144 511.3 226.27C512.215 226.459 514.941 222.849 515.227 221.394C515.512 219.939 516.248 219.566 516.951 218.888C517.653 218.211 520.09 215.53 520.09 213.322C521.404 210.583 522.954 207.963 524.722 205.493C527.18 202.115 536.668 186.665 536.668 182.749C536.668 178.833 541.606 166.603 541.606 158.748C541.606 150.893 543.525 171.213 542.565 179.585C547.104 180.022 550.411 180.393 552.487 180.697C556.167 181.237 561.227 181.805 563.149 181.817C566.896 181.788 570.61 181.101 574.12 179.787C576.569 172.685 577.793 167.835 577.793 165.237C577.886 171.632 578.021 176.598 578.198 180.138C578.463 185.447 583.669 204.295 585.29 210.022C586.912 215.75 585.217 217.022 587.198 220.265C589.179 223.508 588.749 227.966 589.687 228.685C590.312 229.165 590.826 229.089 591.231 228.457C592.945 228.749 594.175 228.706 594.922 228.328C596.043 227.76 595.805 225.078 596.446 223.686C597.087 222.294 597.134 221.641 595.82 220.265C594.507 218.888 591.813 215.839 591.231 213.797C590.649 211.754 590.192 203.241 590.192 194.5C590.192 185.76 588.065 178.284 587.702 174.092C587.324 167.917 587.503 161.721 588.237 155.579C589.026 149.916 588.834 140.6 581.184 138.574C576.085 137.223 569.113 135.837 560.269 134.416Z" fill="url(#paint33_linear_102_1677)"/>
</mask>
<g mask="url(#mask6_102_1677)">
<path fill-rule="evenodd" clip-rule="evenodd" d="M591.63 227.315C593.391 227.168 592.706 226.409 592.23 225.025C591.913 224.102 591.411 222.849 590.726 221.268C591.155 222.659 591.457 224.086 591.63 225.532C591.684 226.524 591.548 227.516 591.231 228.457L591.63 227.315Z" fill="#9C3231"/>
</g>
<path fill-rule="evenodd" clip-rule="evenodd" d="M510.826 225.6L513.826 220.6L511.284 222.666L510.826 225.6Z" fill="#FD9493"/>
<path fill-rule="evenodd" clip-rule="evenodd" d="M546.115 114.381C545.177 106.344 546.525 102.204 550.159 101.959C551.893 100.362 554.154 99.2899 556.943 98.7431C561.125 97.9229 571.17 100.321 569.676 113.725C568.181 127.128 547.522 126.435 546.115 114.381Z" fill="#022329"/>
<path fill-rule="evenodd" clip-rule="evenodd" d="M563.361 120.6C563.809 127.31 564.254 131.267 564.698 132.472C565.142 133.676 566.518 134.44 568.826 134.766C565.332 139.322 561.788 141.6 558.196 141.6C554.604 141.6 552.481 139.496 551.826 135.288C554.02 134.758 555.343 133.728 555.795 132.199C556.247 130.669 555.985 128.579 555.01 125.927L563.361 120.6Z" fill="#FFC6CB"/>
<mask id="mask7_102_1677" style="mask-type:luminance" maskUnits="userSpaceOnUse" x="551" y="120" width="18" height="22">
<path fill-rule="evenodd" clip-rule="evenodd" d="M562.962 120.486C563.41 127.208 563.856 131.172 564.3 132.378C564.744 133.584 566.121 134.35 568.43 134.676C564.934 139.24 561.388 141.521 557.794 141.521C554.2 141.521 552.075 139.414 551.42 135.199C553.615 134.668 554.939 133.636 555.391 132.105C555.843 130.573 555.581 128.479 554.606 125.823L562.962 120.486Z" fill="url(#paint34_linear_102_1677)"/>
</mask>
<g mask="url(#mask7_102_1677)">
<path fill-rule="evenodd" clip-rule="evenodd" d="M552.445 132.761C554.416 131.827 556.198 130.917 557.792 130.032C559.387 129.146 560.691 126.88 561.706 123.233L552.153 126.796L552.445 132.761Z" fill="#F6A3A2"/>
</g>
<path fill-rule="evenodd" clip-rule="evenodd" d="M564.69 115.303C566.078 115.303 566.826 115.96 566.826 116.893C566.826 118.616 565.84 119.733 563.869 120.243C562.426 125.658 557.856 128.6 554.007 128.6C549.575 128.6 547.047 123.705 548.042 111.245C548.121 110.446 548.411 109.686 548.88 109.046C549.396 108.354 550.109 107.848 550.919 107.6C552.515 110.995 554.656 113.182 557.342 114.159C560.028 115.136 562.477 115.518 564.69 115.303Z" fill="url(#paint35_linear_102_1677)"/>
<path fill-rule="evenodd" clip-rule="evenodd" d="M564.094 122.6C569.327 126.918 571.509 131.156 570.641 135.314C569.338 141.55 563.724 140.808 565.04 149.6C560.526 148.541 558.13 146.526 557.849 143.556C557.429 139.101 562.867 136.704 562.867 130.596L562.928 123.342L564.094 122.6Z" fill="#022329"/>
<path d="M562.826 123.6C562.471 129.795 561.619 133.794 560.271 135.596C558.248 138.298 553.49 144.125 560.584 147.6" stroke="#022329"/>
<path fill-rule="evenodd" clip-rule="evenodd" d="M550.924 107.6C551.153 110.377 553.695 112.776 558.552 114.798C562.174 117.034 563.597 120.635 562.819 125.6C567.029 123.053 568.584 120.053 567.485 116.6C565.836 111.42 560.731 111.828 556.86 111.164C554.28 110.721 552.301 109.533 550.924 107.6ZM550.9 107.692C548.648 110.222 547.691 114.021 548.03 119.089C546.483 118.15 545.75 116.309 545.832 113.566C545.915 110.822 547.604 108.864 550.9 107.692Z" fill="#441B40"/>
<path d="M515.428 221.14C517.299 221.82 518.92 223.083 520.066 224.756C521.212 226.428 521.827 228.427 521.826 230.477V238.767C521.827 238.987 521.743 239.198 521.593 239.354C521.442 239.511 521.238 239.599 521.025 239.6C520.919 239.599 520.815 239.577 520.718 239.535C520.62 239.493 520.532 239.432 520.457 239.355C520.383 239.277 520.324 239.185 520.284 239.085C520.244 238.984 520.224 238.876 520.224 238.767V230.477C520.225 228.772 519.713 227.11 518.76 225.719C517.807 224.329 516.459 223.278 514.902 222.714M512.48 222.267C512.429 222.266 512.378 222.265 512.326 222.265C510.226 222.275 508.215 223.145 506.734 224.684C505.253 226.223 504.424 228.307 504.429 230.477V238.767C504.429 238.876 504.409 238.984 504.369 239.085C504.329 239.186 504.27 239.278 504.196 239.355C504.121 239.432 504.033 239.494 503.935 239.536C503.838 239.578 503.733 239.599 503.628 239.599C503.522 239.599 503.417 239.578 503.32 239.536C503.222 239.494 503.134 239.432 503.059 239.355C502.985 239.278 502.926 239.186 502.886 239.085C502.846 238.984 502.826 238.876 502.826 238.767V230.477C502.818 229.087 503.095 227.712 503.64 226.441C504.184 225.171 504.984 224.034 505.985 223.107C506.987 222.179 508.168 221.482 509.449 221.061C510.731 220.64 512.085 220.505 513.421 220.665" fill="#3C3F4D"/>
<path fill-rule="evenodd" clip-rule="evenodd" d="M532.826 274.6H491.826L495.988 234.6H528.663L529.357 241.275L532.826 274.6Z" fill="#BC9314"/>
<path fill-rule="evenodd" clip-rule="evenodd" d="M535.826 274.6H495.826L499.961 234.6H531.69L532.381 241.275L535.826 274.6Z" fill="url(#paint36_linear_102_1677)"/>
<path d="M515.653 220.6C518.121 220.699 520.456 221.783 522.167 223.625C523.878 225.466 524.831 227.921 524.826 230.474V238.766C524.827 238.987 524.743 239.198 524.592 239.354C524.442 239.511 524.238 239.599 524.025 239.6C523.919 239.599 523.815 239.577 523.718 239.535C523.62 239.493 523.532 239.432 523.457 239.354C523.383 239.277 523.324 239.185 523.284 239.084C523.244 238.983 523.223 238.875 523.224 238.766V230.474C523.228 228.303 522.399 226.219 520.919 224.679C519.438 223.14 517.427 222.27 515.326 222.26C515.249 222.26 515.171 222.261 515.094 222.264M512.063 222.994C510.679 223.652 509.507 224.707 508.685 226.032C507.864 227.358 507.428 228.9 507.429 230.474V238.766C507.429 238.875 507.409 238.984 507.369 239.085C507.329 239.186 507.27 239.278 507.196 239.355C507.121 239.432 507.033 239.494 506.935 239.536C506.838 239.578 506.733 239.599 506.627 239.599C506.522 239.599 506.417 239.578 506.32 239.536C506.222 239.494 506.134 239.432 506.059 239.355C505.985 239.278 505.926 239.186 505.886 239.085C505.846 238.984 505.826 238.875 505.826 238.766V230.474C505.824 228.216 506.57 226.025 507.94 224.266C509.311 222.507 511.223 221.287 513.358 220.807" fill="#3C3F4D"/>
<path d="M596.179 223.936C598.11 224.581 599.795 225.846 600.99 227.551C602.185 229.255 602.828 231.31 602.826 233.419V241.761C602.827 241.983 602.743 242.196 602.593 242.353C602.442 242.51 602.238 242.599 602.025 242.6C601.919 242.599 601.815 242.577 601.718 242.535C601.62 242.493 601.532 242.431 601.457 242.353C601.383 242.275 601.324 242.183 601.284 242.081C601.244 241.98 601.224 241.871 601.224 241.761V233.419C601.225 231.701 600.712 230.026 599.756 228.625C598.8 227.224 597.448 226.168 595.889 225.602M592.383 225.214C590.461 225.464 588.693 226.436 587.412 227.948C586.131 229.459 585.426 231.404 585.429 233.419V241.761C585.429 241.871 585.409 241.98 585.369 242.082C585.329 242.183 585.27 242.276 585.196 242.353C585.121 242.431 585.033 242.493 584.935 242.535C584.838 242.578 584.733 242.599 584.627 242.599C584.522 242.599 584.417 242.578 584.32 242.535C584.222 242.493 584.134 242.431 584.059 242.353C583.985 242.276 583.926 242.183 583.886 242.082C583.846 241.98 583.826 241.871 583.826 241.761V233.419C583.823 231.059 584.629 228.775 586.098 226.976C587.567 225.177 589.604 223.98 591.844 223.6" fill="#3C3F4D"/>
<path fill-rule="evenodd" clip-rule="evenodd" d="M613.826 278.6H572.826L576.988 237.6H609.663L610.357 244.442L613.826 278.6Z" fill="#435DA8"/>
<path d="M616.826 278.6H576.826L580.961 237.6H612.69L613.38 244.442L616.826 278.6Z" fill="url(#paint37_linear_102_1677)"/>
<path d="M596.326 223.6C598.853 223.611 601.272 224.657 603.053 226.509C604.834 228.361 605.831 230.866 605.826 233.477V241.767C605.827 241.876 605.807 241.984 605.767 242.085C605.727 242.186 605.668 242.278 605.593 242.355C605.519 242.433 605.43 242.494 605.333 242.536C605.235 242.578 605.131 242.6 605.025 242.6C604.919 242.6 604.815 242.578 604.717 242.536C604.62 242.494 604.531 242.433 604.457 242.355C604.382 242.278 604.323 242.186 604.283 242.085C604.243 241.984 604.223 241.876 604.224 241.767V233.477C604.228 231.307 603.399 229.223 601.919 227.684C600.438 226.145 598.427 225.275 596.326 225.266C596.214 225.266 596.073 225.261 595.961 225.266M592.718 226.174C591.424 226.869 590.34 227.917 589.584 229.205C588.827 230.493 588.428 231.97 588.429 233.477V241.767C588.429 241.876 588.409 241.984 588.369 242.085C588.329 242.186 588.27 242.278 588.196 242.355C588.121 242.433 588.033 242.494 587.935 242.536C587.838 242.578 587.733 242.6 587.627 242.6C587.522 242.6 587.417 242.578 587.32 242.536C587.222 242.494 587.134 242.433 587.059 242.355C586.985 242.278 586.926 242.186 586.886 242.085C586.846 241.984 586.826 241.876 586.826 241.767V233.477C586.825 231.635 587.322 229.829 588.26 228.263C589.199 226.697 590.541 225.433 592.138 224.612" fill="#3C3F4D"/>
<defs>
<linearGradient id="paint0_linear_102_1677" x1="370" y1="-43.12" x2="370" y2="483.12" gradientUnits="userSpaceOnUse">
<stop stop-color="#65EE9C"/>
<stop offset="1" stop-color="#0CA263"/>
</linearGradient>
<linearGradient id="paint1_linear_102_1677" x1="165.09" y1="151.492" x2="280.294" y2="234.066" gradientUnits="userSpaceOnUse">
<stop stop-color="#FFC5E3"/>
<stop offset="1" stop-color="#CD3C83"/>
</linearGradient>
<linearGradient id="paint2_linear_102_1677" x1="213.494" y1="282.045" x2="163.026" y2="263.497" gradientUnits="userSpaceOnUse">
<stop stop-color="#1E37F6"/>
<stop offset="1" stop-color="#64D7FD"/>
</linearGradient>
<linearGradient id="paint3_linear_102_1677" x1="388.972" y1="90.8268" x2="388.972" y2="281.051" gradientUnits="userSpaceOnUse">
<stop stop-color="#BCC4FF"/>
<stop offset="1" stop-color="#86A0FC"/>
</linearGradient>
<linearGradient id="paint4_linear_102_1677" x1="388.971" y1="281.152" x2="388.971" y2="307.521" gradientUnits="userSpaceOnUse">
<stop stop-color="#647EDC"/>
<stop offset="1" stop-color="#7F98F6"/>
</linearGradient>
<linearGradient id="paint5_linear_102_1677" x1="388.97" y1="142.694" x2="388.826" y2="181.1" gradientUnits="userSpaceOnUse">
<stop stop-color="#EBB220"/>
<stop offset="1" stop-color="#FFECBA"/>
</linearGradient>
<linearGradient id="paint6_linear_102_1677" x1="440.542" y1="212.574" x2="440.542" y2="255.873" gradientUnits="userSpaceOnUse">
<stop stop-color="#F73D72"/>
<stop offset="1" stop-color="#FFB3C8"/>
</linearGradient>
<linearGradient id="paint7_linear_102_1677" x1="337.398" y1="212.574" x2="337.398" y2="255.873" gradientUnits="userSpaceOnUse">
<stop stop-color="#9A36F2"/>
<stop offset="1" stop-color="#D3A0FF"/>
</linearGradient>
<linearGradient id="paint8_linear_102_1677" x1="330.643" y1="137.062" x2="330.643" y2="181.168" gradientUnits="userSpaceOnUse">
<stop stop-color="#BCC4FF"/>
<stop offset="1" stop-color="#86A0FC"/>
</linearGradient>
<linearGradient id="paint9_linear_102_1677" x1="330.642" y1="153.975" x2="330.642" y2="178.8" gradientUnits="userSpaceOnUse">
<stop stop-color="#BCC4FF"/>
<stop offset="1" stop-color="#86A0FC"/>
</linearGradient>
<linearGradient id="paint10_linear_102_1677" x1="390.495" y1="73.0279" x2="390.18" y2="110.099" gradientUnits="userSpaceOnUse">
<stop stop-color="#AA54F6"/>
<stop offset="1" stop-color="#E8CEFF"/>
</linearGradient>
<linearGradient id="paint11_linear_102_1677" x1="390.37" y1="98.5996" x2="390.495" y2="129.128" gradientUnits="userSpaceOnUse">
<stop stop-color="#8F40F6"/>
<stop offset="1" stop-color="#DABEFF"/>
</linearGradient>
<linearGradient id="paint12_linear_102_1677" x1="429.816" y1="73.0278" x2="430.257" y2="110.098" gradientUnits="userSpaceOnUse">
<stop stop-color="#F0406B"/>
<stop offset="1" stop-color="#FDB0C3"/>
</linearGradient>
<linearGradient id="paint13_linear_102_1677" x1="431.201" y1="103.198" x2="430.812" y2="132.1" gradientUnits="userSpaceOnUse">
<stop stop-color="#DF4772"/>
<stop offset="1" stop-color="#FEAFC5"/>
</linearGradient>
<linearGradient id="paint14_linear_102_1677" x1="467.765" y1="73.028" x2="467.503" y2="110.1" gradientUnits="userSpaceOnUse">
<stop stop-color="#AA54F6"/>
<stop offset="1" stop-color="#E8CEFF"/>
</linearGradient>
<linearGradient id="paint15_linear_102_1677" x1="471.775" y1="98.5997" x2="471.901" y2="129.128" gradientUnits="userSpaceOnUse">
<stop stop-color="#8F40F6"/>
<stop offset="1" stop-color="#DABEFF"/>
</linearGradient>
<linearGradient id="paint16_linear_102_1677" x1="504.255" y1="73.0277" x2="504.625" y2="110.099" gradientUnits="userSpaceOnUse">
<stop stop-color="#F0406B"/>
<stop offset="1" stop-color="#FDB0C3"/>
</linearGradient>
<linearGradient id="paint17_linear_102_1677" x1="511.169" y1="103.198" x2="510.75" y2="132.099" gradientUnits="userSpaceOnUse">
<stop stop-color="#DF4772"/>
<stop offset="1" stop-color="#FEAFC5"/>
</linearGradient>
<linearGradient id="paint18_linear_102_1677" x1="351.108" y1="73.0279" x2="351.547" y2="110.098" gradientUnits="userSpaceOnUse">
<stop stop-color="#F0406B"/>
<stop offset="1" stop-color="#FDB0C3"/>
</linearGradient>
<linearGradient id="paint19_linear_102_1677" x1="349.724" y1="103.198" x2="349.335" y2="132.1" gradientUnits="userSpaceOnUse">
<stop stop-color="#DF4772"/>
<stop offset="1" stop-color="#FEAFC5"/>
</linearGradient>
<linearGradient id="paint20_linear_102_1677" x1="313.088" y1="73.0278" x2="312.826" y2="110.1" gradientUnits="userSpaceOnUse">
<stop stop-color="#AA54F6"/>
<stop offset="1" stop-color="#E8CEFF"/>
</linearGradient>
<linearGradient id="paint21_linear_102_1677" x1="308.826" y1="98.5995" x2="308.951" y2="129.128" gradientUnits="userSpaceOnUse">
<stop stop-color="#8F40F6"/>
<stop offset="1" stop-color="#DABEFF"/>
</linearGradient>
<linearGradient id="paint22_linear_102_1677" x1="274.467" y1="73.0277" x2="274.826" y2="110.1" gradientUnits="userSpaceOnUse">
<stop stop-color="#F0406B"/>
<stop offset="1" stop-color="#FDB0C3"/>
</linearGradient>
<linearGradient id="paint23_linear_102_1677" x1="268.216" y1="103.197" x2="267.826" y2="132.1" gradientUnits="userSpaceOnUse">
<stop stop-color="#DF4772"/>
<stop offset="1" stop-color="#FEAFC5"/>
</linearGradient>
<linearGradient id="paint24_linear_102_1677" x1="293.72" y1="152.231" x2="278.826" y2="211.6" gradientUnits="userSpaceOnUse">
<stop stop-color="#009FEE"/>
<stop offset="1" stop-color="#D7F2FF"/>
</linearGradient>
<linearGradient id="paint25_linear_102_1677" x1="537.826" y1="239.1" x2="553.826" y2="359.1" gradientUnits="userSpaceOnUse">
<stop offset="0.107641" stop-color="#FFBFBF"/>
<stop offset="1" stop-color="white"/>
</linearGradient>
<linearGradient id="paint26_linear_102_1677" x1="546.701" y1="233.402" x2="546.701" y2="332.063" gradientUnits="userSpaceOnUse">
<stop stop-color="white"/>
<stop offset="1" stop-color="#FFBFBF"/>
</linearGradient>
<linearGradient id="paint27_linear_102_1677" x1="546.326" y1="241.1" x2="577.326" y2="349.1" gradientUnits="userSpaceOnUse">
<stop offset="0.136793" stop-color="#FEAAAA"/>
<stop offset="1" stop-color="white"/>
</linearGradient>
<linearGradient id="paint28_linear_102_1677" x1="552.826" y1="179.6" x2="552.826" y2="246.6" gradientUnits="userSpaceOnUse">
<stop stop-color="#27356C"/>
<stop offset="1" stop-color="#3E52A1"/>
</linearGradient>
<linearGradient id="paint29_linear_102_1677" x1="547.464" y1="179.584" x2="547.464" y2="245.933" gradientUnits="userSpaceOnUse">
<stop stop-color="#20306C"/>
<stop offset="1" stop-color="#4E61A9"/>
</linearGradient>
<linearGradient id="paint30_linear_102_1677" x1="552.826" y1="134.6" x2="551.826" y2="263.1" gradientUnits="userSpaceOnUse">
<stop offset="0.163789" stop-color="#FFBFBF"/>
<stop offset="1" stop-color="white"/>
</linearGradient>
<linearGradient id="paint31_linear_102_1677" x1="560.663" y1="134.235" x2="560.663" y2="182.475" gradientUnits="userSpaceOnUse">
<stop stop-color="#0C71B9"/>
<stop offset="1" stop-color="#7AB8E6"/>
</linearGradient>
<linearGradient id="paint32_linear_102_1677" x1="560.077" y1="135.602" x2="560.077" y2="182.943" gradientUnits="userSpaceOnUse">
<stop stop-color="#C2EDFF"/>
<stop offset="1" stop-color="#1F93D4"/>
</linearGradient>
<linearGradient id="paint33_linear_102_1677" x1="552.834" y1="134.416" x2="552.834" y2="228.996" gradientUnits="userSpaceOnUse">
<stop stop-color="#FFC9C9"/>
<stop offset="1" stop-color="white"/>
</linearGradient>
<linearGradient id="paint34_linear_102_1677" x1="559.925" y1="120.486" x2="559.925" y2="141.521" gradientUnits="userSpaceOnUse">
<stop stop-color="white"/>
<stop offset="1" stop-color="#FFBFBF"/>
</linearGradient>
<linearGradient id="paint35_linear_102_1677" x1="557.326" y1="107.6" x2="557.326" y2="128.6" gradientUnits="userSpaceOnUse">
<stop stop-color="white"/>
<stop offset="1" stop-color="#FFBFBF"/>
</linearGradient>
<linearGradient id="paint36_linear_102_1677" x1="515.825" y1="234.588" x2="515.825" y2="274.596" gradientUnits="userSpaceOnUse">
<stop stop-color="#FFEE7F"/>
<stop offset="1" stop-color="#F2BF1E"/>
</linearGradient>
<linearGradient id="paint37_linear_102_1677" x1="596.829" y1="237.613" x2="596.829" y2="278.592" gradientUnits="userSpaceOnUse">
<stop stop-color="#A1B2FF"/>
<stop offset="1" stop-color="#5679D9"/>
</linearGradient>
</defs>
</svg>
