<svg width="48" height="48" viewBox="0 0 150 150" fill="none" xmlns="http://www.w3.org/2000/svg">
<circle cx="75" cy="75" r="73" fill="white" stroke="#316DF4" stroke-width="4"/>
<path fill-rule="evenodd" clip-rule="evenodd" d="M40.3588 79.6286C46.3491 69.2854 53.2412 56.8354 59.6823 47.0456C63.9764 40.6611 68.8932 35.0639 73.8314 35C82.0975 35 85.404 41.8741 88.9682 47.9182C94.443 57.176 99.2096 66.2208 104.706 75.9254C95.581 72.9247 90.7287 73.5845 81.0885 76.564C77.3525 69.711 73.1229 61.0918 66.059 73.9888L58.7376 89.7588C49.6555 93.5682 37.0954 92.8022 40.3588 79.6286Z" fill="url(#paint0_linear_581_131)"/>
<path fill-rule="evenodd" clip-rule="evenodd" d="M40.3588 79.4083C34.6046 88.1553 31.7707 94.7527 31.1049 100.265C30.3536 107.565 33.6171 114.46 41.5612 115.63C55.0232 117.61 76.3433 101.904 85.3181 96.4766C100.197 87.4104 113.23 94.9869 117.696 111.012C124.137 89.7302 106.037 69.6612 78.5333 81.2174L58.7376 89.5812C48.8181 93.7739 37.2455 92.0287 40.3588 79.4083Z" fill="url(#paint1_linear_581_131)"/>
<defs>
<linearGradient id="paint0_linear_581_131" x1="130.406" y1="-20.0993" x2="62.9363" y2="95.769" gradientUnits="userSpaceOnUse">
<stop stop-color="#8D76FF"/>
<stop offset="0.64" stop-color="#754FFE"/>
<stop offset="0.74" stop-color="#6E4AF5"/>
<stop offset="0.9" stop-color="#593BDB"/>
<stop offset="1" stop-color="#4B31C9"/>
</linearGradient>
<linearGradient id="paint1_linear_581_131" x1="20.0046" y1="80.6215" x2="103.511" y2="108.127" gradientUnits="userSpaceOnUse">
<stop stop-color="#8D76FF"/>
<stop offset="0.64" stop-color="#754FFE"/>
<stop offset="0.74" stop-color="#6E4AF5"/>
<stop offset="0.9" stop-color="#593BDB"/>
<stop offset="1" stop-color="#4B31C9"/>
</linearGradient>
</defs>
</svg>
