<svg id="add" xmlns="http://www.w3.org/2000/svg" width="20.047" height="20.047" viewBox="0 0 20.047 20.047">
  <g id="Group_6231" data-name="Group 6231">
    <g id="Group_6230" data-name="Group 6230">
      <path id="Path_5590" data-name="Path 5590" d="M10.024,0A10.024,10.024,0,1,0,20.047,10.024,10.035,10.035,0,0,0,10.024,0Zm0,18.494a8.471,8.471,0,1,1,8.471-8.471A8.481,8.481,0,0,1,10.024,18.494Z"/>
    </g>
  </g>
  <g id="Group_6233" data-name="Group 6233" transform="translate(5.365 5.295)">
    <g id="Group_6232" data-name="Group 6232">
      <path id="Path_5591" data-name="Path 5591" d="M145.563,139.12h-3.106v-3.106a.776.776,0,1,0-1.553,0v3.106H137.8a.776.776,0,1,0,0,1.553H140.9v3.106a.776.776,0,0,0,1.553,0v-3.106h3.106a.776.776,0,0,0,0-1.553Z" transform="translate(-137.022 -135.238)"/>
    </g>
  </g>
</svg>
