<svg width="40" height="40" viewBox="0 0 40 40" fill="none" xmlns="http://www.w3.org/2000/svg">
<path d="M33.0333 15.35H31.2167C30.9334 15.35 30.65 15.0666 30.65 14.7833C30.65 8.79994 25.7833 3.7666 20 3.7666H14.4C8.53336 3.7666 3.75 8.53327 3.75 14.4166V25.6333C3.75 31.5 8.51669 36.2833 14.4 36.2833H25.6167C31.4833 36.2833 36.2667 31.5166 36.2667 25.6333V18.5833C36.2667 16.7833 34.85 15.3666 33.05 15.3666L33.0333 15.35ZM33.75 25.6166C33.75 30.0999 30.1 33.7666 25.6 33.7666H14.3833C9.90001 33.7666 6.23332 30.1166 6.23332 25.6166V14.3999C6.23332 9.91661 9.88334 6.24994 14.3833 6.24994H19.9833C24.4 6.24994 28.1333 10.1499 28.1333 14.7666C28.1333 16.4333 29.5333 17.8333 31.2 17.8333H33.0167C33.45 17.8333 33.7333 18.1166 33.7333 18.55V25.5999L33.75 25.6166ZM12.4333 14.85C12.4333 13.8666 13.2666 13.0333 14.25 13.0333H20.9833C21.9667 13.0333 22.8 13.8666 22.8 14.85C22.8 15.8333 21.9667 16.6666 20.9833 16.6666H14.25C13.2666 16.6666 12.4333 15.8333 12.4333 14.85ZM27.4333 25.8333C27.4333 26.8166 26.6 27.6499 25.6167 27.6499H14.2667C13.2833 27.6499 12.45 26.8166 12.45 25.8333C12.45 24.8499 13.2833 24.0166 14.2667 24.0166H25.6167C26.6 24.0166 27.4333 24.8499 27.4333 25.8333Z" fill="white"/>
</svg>
