<svg xmlns="http://www.w3.org/2000/svg" width="17.661" height="17.661" viewBox="0 0 17.661 17.661">
  <path id="calendar-minus" d="M13.982,1.472h-.736V.736a.736.736,0,1,0-1.472,0v.736H5.887V.736a.736.736,0,1,0-1.472,0v.736H3.679A3.684,3.684,0,0,0,0,5.151v8.83a3.684,3.684,0,0,0,3.679,3.679h10.3a3.684,3.684,0,0,0,3.679-3.679V5.151A3.684,3.684,0,0,0,13.982,1.472ZM3.679,2.943h10.3a2.21,2.21,0,0,1,2.208,2.208v.736H1.472V5.151A2.21,2.21,0,0,1,3.679,2.943Zm10.3,13.246H3.679a2.21,2.21,0,0,1-2.208-2.208V7.359H16.189v6.623A2.21,2.21,0,0,1,13.982,16.189Zm-2.208-4.415a.736.736,0,0,1-.736.736H6.623a.736.736,0,1,1,0-1.472h4.415A.736.736,0,0,1,11.774,11.774Z" fill="#676c7d"/>
</svg>
