<svg width="20" height="20" viewBox="0 0 20 20" fill="none" xmlns="http://www.w3.org/2000/svg">
<rect width="20" height="20" rx="10" fill="#32C90C"/>
<path d="M7.92636 12.6323L14.5255 6.05763C14.6543 5.92879 14.7981 5.86687 14.957 5.87186C15.1159 5.87687 15.2628 5.94693 15.3979 6.08203C15.533 6.21711 15.6006 6.36252 15.6006 6.51826C15.6006 6.67398 15.533 6.81939 15.3979 6.95449L8.49487 13.8575C8.33476 14.0176 8.14932 14.0977 7.93855 14.0977C7.72779 14.0977 7.54235 14.0176 7.38224 13.8575L4.6015 11.0768C4.47266 10.948 4.40511 10.8041 4.39885 10.6453C4.39261 10.4864 4.45703 10.3394 4.59211 10.2043C4.72721 10.0692 4.87262 10.0017 5.02835 10.0017C5.18408 10.0017 5.32949 10.0692 5.46458 10.2043L7.92636 12.6323Z" fill="white"/>
</svg>
