<svg width="77" height="76" viewBox="0 0 77 76" fill="none" xmlns="http://www.w3.org/2000/svg">
<circle cx="38.5" cy="38" r="34.9091" fill="#FEC022" stroke="#FFFAEC" stroke-width="5.81818"/>
<path d="M39.0026 21.3333C29.8193 21.3333 22.3359 28.8166 22.3359 38C22.3359 47.1833 29.8193 54.6666 39.0026 54.6666C48.1859 54.6666 55.6693 47.1833 55.6693 38C55.6693 28.8166 48.1859 21.3333 39.0026 21.3333ZM37.7526 31.3333C37.7526 30.65 38.3193 30.0833 39.0026 30.0833C39.6859 30.0833 40.2526 30.65 40.2526 31.3333V39.6666C40.2526 40.35 39.6859 40.9166 39.0026 40.9166C38.3193 40.9166 37.7526 40.35 37.7526 39.6666V31.3333ZM40.5359 45.3C40.4526 45.5166 40.3359 45.6833 40.1859 45.85C40.0193 46 39.8359 46.1166 39.6359 46.2C39.4359 46.2833 39.2193 46.3333 39.0026 46.3333C38.7859 46.3333 38.5693 46.2833 38.3693 46.2C38.1693 46.1166 37.9859 46 37.8193 45.85C37.6693 45.6833 37.5526 45.5166 37.4693 45.3C37.3859 45.1 37.3359 44.8833 37.3359 44.6666C37.3359 44.45 37.3859 44.2333 37.4693 44.0333C37.5526 43.8333 37.6693 43.65 37.8193 43.4833C37.9859 43.3333 38.1693 43.2166 38.3693 43.1333C38.7693 42.9666 39.2359 42.9666 39.6359 43.1333C39.8359 43.2166 40.0193 43.3333 40.1859 43.4833C40.3359 43.65 40.4526 43.8333 40.5359 44.0333C40.6193 44.2333 40.6693 44.45 40.6693 44.6666C40.6693 44.8833 40.6193 45.1 40.5359 45.3Z" fill="white"/>
</svg>
