<svg xmlns="http://www.w3.org/2000/svg" width="19.939" height="18.527" viewBox="0 0 19.939 18.527">
  <path id="Path_5570" data-name="Path 5570" d="M11.846,36.657a1.477,1.477,0,0,1-.59-.125,1.444,1.444,0,0,1-.879-1.342V33.94a.643.643,0,0,0-.642-.642h-7.1A2.635,2.635,0,0,1,0,30.666v-9.9A2.636,2.636,0,0,1,2.633,18.13H17.306a2.636,2.636,0,0,1,2.633,2.633v9.9A2.636,2.636,0,0,1,17.306,33.3H16.015l-3.179,2.962A1.445,1.445,0,0,1,11.846,36.657ZM2.633,19.5a1.269,1.269,0,0,0-1.268,1.268v9.9a1.269,1.269,0,0,0,1.268,1.268h7.1a2.009,2.009,0,0,1,2.007,2.007V35.19a.1.1,0,0,0,.164.072l3.375-3.146a.684.684,0,0,1,.465-.183h1.56a1.269,1.269,0,0,0,1.268-1.268v-9.9A1.269,1.269,0,0,0,17.306,19.5Z" transform="translate(0 -18.13)" fill="#676c7d"/>
</svg>
