<svg xmlns="http://www.w3.org/2000/svg" width="17.802" height="15.489" viewBox="0 0 17.802 15.489">
  <g id="credit-card" transform="translate(0 -3)">
    <circle id="Ellipse_418" data-name="Ellipse 418" cx="1.5" cy="1.5" r="1.5" transform="translate(3.29 11.744)" fill="#676c7d"/>
    <path id="Path_6350" data-name="Path 6350" d="M14.093,3H3.709C1.661,3,0,4.927,0,7.3v6.884c0,2.375,1.661,4.3,3.709,4.3H14.093c2.047,0,3.706-1.927,3.709-4.3V7.3C17.8,4.927,16.14,3,14.093,3ZM3.709,4.721H14.093A2.423,2.423,0,0,1,16.318,7.3H1.483A2.423,2.423,0,0,1,3.709,4.721ZM14.093,16.768H3.709a2.423,2.423,0,0,1-2.225-2.581V9.023H16.318v5.163A2.423,2.423,0,0,1,14.093,16.768Z" transform="translate(0 0)" fill="#676c7d"/>
  </g>
</svg>
