<svg xmlns="http://www.w3.org/2000/svg" width="16.514" height="16.509" viewBox="0 0 16.514 16.509">
  <g id="Layer2" transform="translate(-9.353 -9.375)">
    <path id="Path_5556" data-name="Path 5556" d="M16.973,11.28a1.9,1.9,0,0,0-1.9-1.9h-3.81a1.9,1.9,0,0,0-1.9,1.9v3.81a1.9,1.9,0,0,0,1.9,1.9h5.08a.635.635,0,0,0,.635-.635Zm-1.27,0v4.445H11.258a.635.635,0,0,1-.635-.635V11.28a.635.635,0,0,1,.635-.635h3.81a.635.635,0,0,1,.635.635Z" fill="#676c7d" fill-rule="evenodd"/>
    <path id="Path_5557" data-name="Path 5557" d="M16.973,53.76a.635.635,0,0,0-.635-.635h-5.08a1.9,1.9,0,0,0-1.9,1.9v3.81a1.9,1.9,0,0,0,1.9,1.9h3.81a1.9,1.9,0,0,0,1.9-1.9Zm-1.27.635V58.84a.635.635,0,0,1-.635.635h-3.81a.635.635,0,0,1-.635-.635V55.03a.635.635,0,0,1,.635-.635Z" transform="translate(0 -34.86)" fill="#676c7d" fill-rule="evenodd"/>
    <path id="Path_5558" data-name="Path 5558" d="M60.745,11.28a1.9,1.9,0,0,0-1.9-1.9H55.03a1.9,1.9,0,0,0-1.9,1.9v5.08a.635.635,0,0,0,.635.635h5.08a1.9,1.9,0,0,0,1.9-1.9Zm-1.27,0v3.81a.635.635,0,0,1-.635.635H54.395V11.28a.635.635,0,0,1,.635-.635h3.81a.635.635,0,0,1,.635.635Z" transform="translate(-34.878)" fill="#676c7d" fill-rule="evenodd"/>
    <path id="Path_5559" data-name="Path 5559" d="M56.935,53.125a3.81,3.81,0,1,0,3.81,3.81A3.812,3.812,0,0,0,56.935,53.125Zm0,1.27a2.54,2.54,0,1,1-2.54,2.54A2.541,2.541,0,0,1,56.935,54.395Z" transform="translate(-34.878 -34.86)" fill="#676c7d" fill-rule="evenodd"/>
  </g>
</svg>
