<svg xmlns="http://www.w3.org/2000/svg" width="12.187" height="12.187" viewBox="0 0 12.187 12.187">
  <path id="Path_3929" data-name="Path 3929" d="M9.479,12.187H2.708A2.708,2.708,0,0,1,0,9.479V8.8a.677.677,0,1,1,1.354,0v.677a1.354,1.354,0,0,0,1.354,1.354h6.77a1.354,1.354,0,0,0,1.354-1.354V8.8a.677.677,0,1,1,1.354,0v.677a2.708,2.708,0,0,1-2.708,2.708ZM6.093,9.479a.675.675,0,0,1-.473-.193H5.615L2.906,6.572a.677.677,0,0,1,.957-.957L5.416,7.167V.677a.677.677,0,1,1,1.354,0v6.49L8.323,5.615a.677.677,0,1,1,.957.957L6.572,9.28H6.566l-.023.021a.673.673,0,0,1-.187.118h0a.674.674,0,0,1-.262.053Z" fill="#676c7d"/>
</svg>
