<svg xmlns="http://www.w3.org/2000/svg" width="19.557" height="16.94" viewBox="0 0 19.557 16.94">
  <g id="Layer_2" data-name="Layer 2" transform="translate(-1 -3)">
    <path id="Path_5542" data-name="Path 5542" d="M14.258,26.909a.649.649,0,0,1-.461-.191l-2.606-2.606a.651.651,0,1,1,.921-.921l2.145,2.145L16.4,23.191a.651.651,0,1,1,.921.921l-2.606,2.606A.649.649,0,0,1,14.258,26.909Z" transform="translate(-3.485 -6.97)" fill="#676c7d"/>
    <path id="Path_5543" data-name="Path 5543" d="M15.652,22.773A.651.651,0,0,1,15,22.121v-8.47a.652.652,0,0,1,1.3,0v8.47A.651.651,0,0,1,15.652,22.773Z" transform="translate(-4.879 -3.485)" fill="#676c7d"/>
    <path id="Path_5544" data-name="Path 5544" d="M16.962,14.727h-.977a.652.652,0,0,1,0-1.3h.977A2.281,2.281,0,1,0,16.6,8.9a.649.649,0,0,1-.739-.5A5.21,5.21,0,0,0,5.6,8.935a.652.652,0,0,1-.648.58h-.69a1.955,1.955,0,0,0,0,3.909h1.3a.652.652,0,0,1,0,1.3h-1.3a3.258,3.258,0,1,1,0-6.515H4.39a6.513,6.513,0,0,1,12.6-.652,3.583,3.583,0,1,1-.023,7.167Z" fill="#676c7d"/>
  </g>
</svg>
