<svg width="48" height="48" viewBox="0 0 150 150" fill="none" xmlns="http://www.w3.org/2000/svg">
<circle cx="75" cy="75" r="73" fill="white" stroke="#316DF4" stroke-width="4"/>
<path d="M113.479 47.0478L111.195 46.1052C110.685 45.8884 110.177 45.6681 109.666 45.4547C108.51 44.9721 107.353 44.4917 106.198 44.0138C105.192 43.5906 104.186 43.1674 103.179 42.7442C102.273 42.3665 101.367 41.9911 100.46 41.6181C100.153 41.5236 99.8735 41.361 99.5786 41.2386L97.701 40.4535L93.8464 38.8517C93.6033 38.752 93.359 38.6558 93.1176 38.5509C91.904 38.0175 90.6677 37.5016 89.4348 37.0085C88.9544 36.8039 88.4741 36.5993 87.9921 36.3982L83.8304 34.66C83.5287 34.5586 83.246 34.4117 82.953 34.2875C81.7634 33.7839 80.5716 33.2855 79.3774 32.7924C79.2084 32.7004 79.0266 32.635 78.8381 32.5983C78.776 32.5561 78.7111 32.5181 78.6439 32.4846C77.9642 32.1979 77.2792 31.9181 76.5994 31.6295C76.1122 31.4214 75.611 31.2413 75.1376 31H75.0128C74.9833 31.0595 74.9227 31.0595 74.8741 31.0804L59.3441 37.297L37.1641 46.1751C36.4444 46.4637 35.7214 46.7417 35 47.0233V47.0652L36.9907 47.8854L39.2831 48.8384C39.3316 48.8629 39.3784 48.8927 39.4287 48.9136C40.2241 49.2494 41.0217 49.5839 41.8217 49.9173L44.2754 50.9316C44.3479 50.9708 44.4226 51.0058 44.4991 51.0366C44.591 51.068 44.6013 51.1135 44.5857 51.2114C44.3516 52.7048 44.3863 54.2104 44.3568 55.7143C44.3141 56.08 44.2904 56.4478 44.2858 56.8159C44.2081 58.0347 44.0099 59.2426 43.6945 60.4217C43.6846 60.4753 43.6586 60.5244 43.6202 60.5625C43.5817 60.6007 43.5326 60.626 43.4794 60.6351C42.9664 60.7798 42.5107 61.0819 42.1757 61.4997C41.8407 61.9173 41.643 62.4299 41.6101 62.9661C41.4836 63.6481 41.735 64.6274 42.3852 65.0191C42.4132 65.0306 42.4385 65.048 42.4593 65.07C42.4802 65.092 42.4963 65.1183 42.5064 65.147C42.5166 65.1757 42.5206 65.2063 42.5182 65.2366C42.5159 65.2671 42.5072 65.2966 42.4928 65.3234C42.4165 65.5524 42.3714 65.7903 42.3193 66.0229C42.3003 66.0753 42.276 66.126 42.2604 66.1784C41.9066 67.4609 41.5541 68.7432 41.2026 70.0256C41.0587 70.5502 40.9217 71.0748 40.783 71.5994C40.6512 72.0529 40.5206 72.507 40.3911 72.9616C40.3217 73.1995 40.3235 73.2012 40.5645 73.2187C40.6894 73.2274 40.8125 73.2362 40.9373 73.238C41.7194 73.2554 42.498 73.2554 43.2835 73.2747C44.695 73.3114 46.1082 73.3131 47.5197 73.3376C47.6931 73.3376 47.7018 73.2817 47.6723 73.1313C47.518 72.3653 47.3828 71.5977 47.2267 70.8335C47.1192 70.3089 47.0533 69.7843 46.9059 69.2597C46.9094 69.2178 46.9094 69.1757 46.9059 69.1337C46.6666 67.8957 46.429 66.6559 46.1828 65.4178C46.166 65.3624 46.1659 65.3032 46.1826 65.2478C46.1993 65.1924 46.232 65.1432 46.2764 65.1065C46.5259 64.8943 46.716 64.62 46.8279 64.3109C46.8952 64.1758 46.9532 64.0361 47.0013 63.8929C47.2388 62.9224 46.9509 62.1005 46.292 61.3853C46.2417 61.3311 46.1637 61.2979 46.1637 61.2104C46.3656 60.501 46.5077 59.7756 46.5885 59.0421C46.7018 57.9537 46.7424 56.8589 46.7099 55.765C46.7099 55.4328 46.7099 55.1005 46.6926 54.77C46.6965 54.6923 46.6889 54.6146 46.6701 54.5392C46.6701 53.8397 46.6839 53.1315 46.755 52.4302C46.8001 51.9931 46.7931 51.9948 47.1885 52.1557L49.8329 53.2399L52.5432 54.373C52.5432 54.5479 52.5432 54.7228 52.5432 54.8977C52.5363 56.0973 52.5294 57.2963 52.5224 58.4947C52.5224 59.4145 52.516 60.3337 52.5034 61.2524C52.5034 62.5359 52.4912 63.8177 52.5034 65.0995C52.5226 65.4113 52.4509 65.722 52.297 65.9931C52.2155 66.1767 52.1236 66.3568 52.056 66.5422C51.7734 67.1952 51.5325 67.8657 51.3346 68.5497C51.0865 69.2604 50.8911 69.9887 50.7502 70.7286C50.514 71.6915 50.3608 72.6733 50.2925 73.6629C50.2584 73.7427 50.247 73.8305 50.2595 73.9164L50.2491 74.1613C50.2163 74.2578 50.2056 74.3607 50.2179 74.4621C50.2179 74.574 50.2179 74.6859 50.2092 74.7978C50.1843 74.8398 50.1751 74.8894 50.1832 74.9377C50.1224 76.4336 50.1903 77.932 50.3861 79.4161C50.4259 79.8602 50.5057 80.2992 50.5855 80.7381C50.7166 81.4931 50.8862 82.2408 51.0936 82.9781C51.1456 83.174 51.1924 83.3699 51.2496 83.5622C51.4924 84.4195 51.7854 85.2615 52.127 86.0839C52.5976 87.243 53.1607 88.3618 53.8108 89.429C53.8524 89.5098 53.8905 89.5901 53.9374 89.6686L54.9605 91.4014C55.1512 91.7131 55.3298 92.033 55.55 92.325C55.6325 92.5129 55.7385 92.6891 55.8656 92.8497C56.2679 93.4895 56.6616 94.1351 57.0985 94.7522C57.8112 95.9062 58.5776 97.0253 59.3389 98.1479L61.6746 101.588C62.0665 102.16 62.4532 102.735 62.8503 103.301C63.1191 103.683 63.3601 104.085 63.6636 104.44C63.6724 104.473 63.6852 104.506 63.7017 104.536C64.2566 105.33 64.8127 106.123 65.3698 106.916L66.1606 108.042C66.7386 108.868 67.3206 109.694 67.9068 110.522C68.3194 111.111 68.7269 111.706 69.1449 112.291C69.4639 112.737 69.757 113.204 70.109 113.627C70.1143 113.655 70.1237 113.68 70.1367 113.705C70.5772 114.331 71.0037 114.962 71.4615 115.581C71.7476 115.976 72.0008 116.396 72.3147 116.77C72.6216 117.227 72.9112 117.695 73.2389 118.134C73.5666 118.573 73.9464 118.923 74.5221 118.965C74.5584 118.988 74.6005 119 74.6435 119C74.6865 119 74.7285 118.988 74.7649 118.965C75.4012 118.876 75.8556 118.478 76.2076 117.992C77.1422 116.705 78.0422 115.392 78.9542 114.087C79.3011 113.594 79.6479 113.101 79.9947 112.61C80.9935 111.188 81.9912 109.766 82.9876 108.341C83.5581 107.525 84.1321 106.708 84.7026 105.893C85.1639 105.23 85.6199 104.564 86.0794 103.9C86.4886 103.31 86.9031 102.723 87.3089 102.13C87.829 101.366 88.3493 100.598 88.8695 99.8306C88.9805 99.673 89.0949 99.5171 89.2007 99.3566C90.0677 98.0554 90.9347 96.7578 91.8017 95.4514C92.2353 94.7924 92.6774 94.1403 93.0746 93.4563C93.0955 93.4394 93.1147 93.4203 93.1316 93.3987C93.7097 92.4658 94.2879 91.5305 94.8655 90.5917C95.2575 89.9501 95.6408 89.3016 95.9875 88.63C96.0794 88.4691 96.1765 88.3099 96.2649 88.1456C97.2881 86.2252 98.0465 84.1731 98.5194 82.0461C98.7398 81.1179 98.9091 80.178 99.0254 79.2307C99.1162 78.5487 99.1679 77.8632 99.1994 77.176C99.2284 77.0781 99.1871 76.9714 99.2267 76.8735C99.2267 76.322 99.2267 75.7724 99.2267 75.2245C99.218 75.2052 99.2046 75.2017 99.1924 75.2087C99.2162 75.1141 99.2162 75.0148 99.1924 74.9202C99.1924 74.7943 99.1924 74.6684 99.1924 74.5425C99.1418 74.4341 99.1924 74.3169 99.161 74.2067L99.1505 73.9549C99.1022 73.8762 99.1505 73.7801 99.1191 73.7031L99.1074 73.495C99.0638 73.4303 99.1074 73.3516 99.076 73.2834C99.0086 73.0089 99.0289 72.7186 98.9423 72.4458C98.9021 72.0043 98.8323 71.5661 98.7329 71.1343C98.552 70.1844 98.3019 69.2493 97.9854 68.3364C97.7633 67.7243 97.5917 67.0895 97.302 66.5038C97.1351 66.1452 97.0752 65.7455 97.1287 65.3531C97.1618 65.1135 97.1112 64.8687 97.1549 64.6291V63.2302C97.1549 63.0046 97.1671 62.779 97.174 62.5534C97.1874 62.4497 97.1909 62.3449 97.1839 62.2404C97.1962 61.8802 97.1618 61.52 97.2031 61.1597V59.2449C97.2101 58.838 97.2165 58.43 97.2223 58.0208C97.2433 57.6643 97.2392 57.3066 97.2101 56.9506C97.2247 56.9289 97.2328 56.9034 97.2328 56.8772C97.245 56.4347 97.2049 55.9906 97.252 55.5482C97.252 55.3313 97.252 55.1145 97.252 54.8977C97.245 54.8543 97.2543 54.8098 97.2787 54.7732C97.3026 54.7366 97.3392 54.7105 97.3817 54.7001C98.723 54.1743 100.061 53.6415 101.398 53.1018C102.601 52.6191 103.801 52.1295 105.005 51.6486C106.675 50.9823 108.346 50.323 110.016 49.6586C111.483 49.0745 112.948 48.4922 114.412 47.8994C114.597 47.8458 114.773 47.7626 114.932 47.6528C114.41 47.4395 113.945 47.2401 113.479 47.0478ZM73.4644 112.043C72.8245 111.066 72.1413 110.119 71.4667 109.167C71.4303 109.118 71.4025 109.046 71.3194 109.064C71.284 108.92 71.2137 108.788 71.1147 108.679C70.4107 107.679 69.7049 106.682 68.9975 105.687C68.9506 105.62 68.909 105.537 68.8119 105.524C68.8073 105.476 68.7893 105.431 68.7599 105.393C68.2397 104.623 67.7056 103.873 67.1715 103.12C67.1317 103.063 67.0969 102.994 67.0224 102.976C67.0162 102.912 66.9908 102.851 66.9495 102.801C66.3617 101.977 65.812 101.128 65.2311 100.301C65.1947 100.25 65.1756 100.164 65.089 100.173C64.9106 99.8254 64.7036 99.4938 64.4699 99.1815C63.9497 98.3823 63.4 97.6075 62.8729 96.8118C62.8295 96.749 62.7913 96.6722 62.6994 96.674C62.685 96.5612 62.6387 96.4547 62.5659 96.368C61.9382 95.4147 61.2984 94.4707 60.6793 93.5122C60.6359 93.4441 60.5943 93.3708 60.5059 93.3516C60.5057 93.315 60.4942 93.2795 60.4729 93.2498C60.0238 92.5315 59.6059 91.7934 59.1204 91.0971C59.0823 91.0431 59.051 90.9733 58.9661 90.9767H58.9556C58.9816 90.9087 58.9349 90.8575 58.9019 90.8017C58.3349 89.9466 57.8268 89.0532 57.2893 88.1788C57.2494 88.1158 57.2199 88.0337 57.1262 88.0319C57.1575 87.9235 57.0847 87.857 57.0378 87.7678C56.5088 86.8627 56.03 85.9286 55.6038 84.9699C55.5725 84.9 55.5483 84.8248 55.4737 84.795C55.4804 84.7481 55.4738 84.7002 55.4546 84.6569C55.1079 83.7214 54.7974 82.7771 54.546 81.8118C54.5269 81.7436 54.5269 81.6562 54.435 81.6369C54.4413 81.627 54.4465 81.6164 54.4507 81.6055C54.4553 81.5567 54.4511 81.5076 54.4385 81.4603C54.2111 80.4362 54.0414 79.3999 53.9304 78.3564C53.9308 78.2716 53.9006 78.1895 53.8455 78.1256C53.8621 78.1068 53.8745 78.0848 53.8819 78.0608C53.8819 77.6919 53.8247 77.3264 53.8247 76.9574C53.7946 76.0603 53.8184 75.1622 53.8958 74.2679C53.9472 74.0579 53.9554 73.8395 53.92 73.6262C53.909 73.6091 53.8956 73.5938 53.8802 73.5807C53.9075 73.5546 53.929 73.5232 53.9437 73.4883C53.9583 73.4533 53.9656 73.4157 53.9651 73.3779C53.9807 73.189 54.0293 73.0071 54.0587 72.8217C54.2407 71.6655 54.5203 70.527 54.8946 69.4188C54.937 69.3385 54.9529 69.2465 54.9397 69.1565C54.931 69.1498 54.9217 69.1439 54.9119 69.139C55.0194 69.0988 55.0333 68.9921 55.0645 68.9047C55.3021 68.2419 55.5847 67.6002 55.8864 66.9636C55.9064 66.9356 55.9202 66.9038 55.9271 66.87C55.934 66.8362 55.9337 66.8014 55.9263 66.7678L55.9506 66.7538C56.0379 66.6468 56.1119 66.5293 56.1708 66.4041C56.4674 65.8095 56.8315 65.2551 57.1766 64.6904C57.2326 64.5959 57.3081 64.5146 57.3978 64.4519C57.4875 64.3892 57.5894 64.3465 57.6967 64.3266C58.9349 64.0433 60.1799 63.802 61.4284 63.5799C63.0607 63.2931 64.7 63.06 66.3461 62.8804C66.9582 62.8122 67.5721 62.7597 68.1859 62.7055C68.8327 62.6496 69.483 62.6129 70.1315 62.5604C70.2576 62.5307 70.3879 62.5237 70.5165 62.5394C70.6485 62.5444 70.7808 62.538 70.9118 62.5202C71.0604 62.4922 71.2117 62.4817 71.3627 62.4888C71.3966 62.4865 71.43 62.4789 71.4615 62.466L71.4875 62.452C71.5705 62.4962 71.665 62.5133 71.758 62.501C72.2072 62.522 72.6563 62.4625 73.1054 62.4625C75.1047 62.4625 77.1041 62.4398 79.1016 62.5779C79.9981 62.6409 80.8946 62.702 81.7911 62.7807C82.1395 62.8338 82.4914 62.8607 82.8437 62.8612L82.9061 62.8332C82.9321 62.9206 83.0154 62.9049 83.0795 62.9136L83.5738 62.9696C85.5748 63.2109 87.562 63.5275 89.5371 63.9506C89.6443 63.979 89.7541 63.996 89.8648 64.0013H89.903C89.9429 64.059 90.0191 64.0503 90.0764 64.0661C90.6417 64.2007 91.2087 64.3336 91.774 64.47C91.8616 64.4883 91.9443 64.5251 92.0169 64.5778C92.0895 64.6306 92.1503 64.6981 92.1954 64.776C92.4 65.1083 92.608 65.4388 92.804 65.7745C92.8309 65.8471 92.8809 65.9086 92.9462 65.9494C92.9185 66.0123 92.967 66.063 92.9914 66.1155C93.0973 66.3358 93.2252 66.5422 93.3381 66.759C93.783 67.6354 94.1658 68.5423 94.4845 69.473C94.5171 69.5674 94.5258 69.6794 94.6229 69.7388C94.5962 69.8345 94.6061 69.9369 94.6509 70.0256C94.8742 70.7531 95.0377 71.4945 95.1883 72.2412C95.2959 72.7658 95.332 73.3184 95.4413 73.8517C95.45 73.8634 95.4599 73.874 95.471 73.8832C95.4506 73.9116 95.4367 73.9443 95.4308 73.9789C95.425 74.0134 95.4268 74.0488 95.4361 74.0826C95.5105 74.8964 95.5431 75.7135 95.5332 76.5307C95.5536 76.7307 95.5466 76.9325 95.5123 77.1305C95.496 77.2516 95.4908 77.374 95.4972 77.496C95.5082 77.6021 95.5001 77.7094 95.4727 77.8125C95.4553 77.8833 95.4623 77.9578 95.4919 78.0241L95.4762 78.0346C95.4338 78.0901 95.4128 78.1588 95.4157 78.2287C95.3965 78.5277 95.3512 78.825 95.3116 79.1223C95.1133 80.5586 94.7823 81.9731 94.3228 83.3471C94.2937 83.4328 94.2431 83.522 94.3007 83.6164C94.1739 83.6917 94.1582 83.8315 94.1169 83.9522C93.6952 85.1042 93.1729 86.2161 92.556 87.2747C91.9404 88.3589 91.2867 89.4185 90.6122 90.4661C90.5864 90.494 90.5666 90.5271 90.5541 90.5632C90.5415 90.5993 90.5365 90.6376 90.5394 90.676C90.4509 90.6848 90.4266 90.7668 90.3867 90.8261C89.9984 91.4194 89.622 92.0208 89.2371 92.6153C88.6285 93.554 88.0077 94.4847 87.3955 95.413C87.3505 95.4816 87.2724 95.5427 87.3106 95.6421C87.21 95.6666 87.1684 95.7562 87.1181 95.8312C86.8892 96.1808 86.6673 96.5199 86.4366 96.8595C85.3199 98.5085 84.2084 100.161 83.0761 101.799C83.019 101.866 82.9808 101.947 82.9651 102.034C82.8906 102.044 82.8611 102.111 82.8212 102.165C82.6114 102.45 82.4137 102.743 82.209 103.039C81.5154 104.034 80.7976 105.022 80.1057 106.024C80.0675 106.08 79.9999 106.129 80.0294 106.213C79.9549 106.24 79.893 106.294 79.856 106.365C78.8965 107.722 77.9353 109.079 76.9723 110.435C76.9237 110.503 76.8578 110.571 76.8786 110.668C76.7954 110.668 76.7572 110.741 76.7157 110.8C76.1746 111.575 75.6232 112.346 75.0822 113.12C74.9519 113.326 74.807 113.522 74.6487 113.706C74.3227 113.239 74.014 112.786 73.6949 112.339C73.6482 112.272 73.61 112.188 73.5215 112.18C73.5205 112.128 73.5001 112.08 73.4644 112.043Z" fill="url(#paint0_linear_581_130)"/>
<path d="M74.2589 85.6995C74.3218 85.7283 74.3919 85.7375 74.46 85.7258C74.9238 85.7338 75.3876 85.7062 75.8473 85.6436C76.7217 85.5504 77.5773 85.3258 78.3859 84.9774C78.4379 84.9599 78.4917 84.9459 78.5419 84.9232C80.0343 84.2778 81.345 83.2697 82.3568 81.9889C82.8707 81.3579 83.2945 80.6574 83.6157 79.9079C84.0105 79.0738 84.2749 78.1831 84.3995 77.2674C84.4581 76.9484 84.4883 76.6248 84.4897 76.3003C84.5239 76.0689 84.5338 75.8344 84.5192 75.6008C84.5195 75.5278 84.5107 75.4549 84.4931 75.384V75.176C84.4993 74.9218 84.4731 74.6679 84.4151 74.4205C84.3794 74.0041 84.2955 73.5933 84.1654 73.1964C84.1376 73.0068 84.0821 72.8223 84.0007 72.6491C84.0042 72.6264 84.0022 72.6031 83.9946 72.5815C83.987 72.5598 83.9742 72.5403 83.9573 72.5249C83.9386 72.4059 83.8968 72.2918 83.8342 72.1892C83.8038 72.0552 83.7511 71.9275 83.6782 71.8115C83.628 71.648 83.555 71.4925 83.4614 71.3498C83.3404 71.0689 83.1904 70.8017 83.014 70.5524C82.8311 70.2283 82.6161 69.9236 82.3724 69.6431C82.1561 69.3369 81.9053 69.057 81.6251 68.8089C81.5214 68.6731 81.3967 68.555 81.2557 68.4592C81.1764 68.3572 81.0787 68.2712 80.9679 68.2056C80.8669 68.0962 80.75 68.003 80.621 67.9294L80.1684 67.5883C79.8812 67.3765 79.5746 67.1927 79.2529 67.0393C79.0309 66.9728 78.8593 66.7962 78.6286 66.7455L78.2125 66.5706C77.8551 66.4002 77.4783 66.2745 77.0905 66.1964C76.6955 66.0766 76.2883 66.0021 75.8767 65.9743C75.437 65.8992 74.9904 65.8728 74.545 65.8956C74.0049 65.8763 73.4646 65.9233 72.9358 66.0355C69.5024 66.735 67.0644 68.7163 65.6286 71.9338C65.1958 72.9107 64.9516 73.9618 64.9089 75.0308C64.8969 75.092 64.8691 75.1637 64.8916 75.2144C64.8494 75.6894 64.8552 76.1676 64.9089 76.6414C64.9277 77.0512 64.9857 77.4582 65.0824 77.8567C65.1515 78.245 65.256 78.6261 65.3945 78.9951C65.4331 79.154 65.4914 79.3073 65.5679 79.4515C65.6351 79.6693 65.724 79.8796 65.8332 80.0793C65.9791 80.4174 66.1568 80.7406 66.3638 81.0446C66.4366 81.1988 66.5306 81.3418 66.643 81.4695C66.7275 81.6196 66.8275 81.7603 66.9412 81.8892C66.9921 81.9846 67.061 82.0689 67.1442 82.1375C67.2373 82.2788 67.35 82.406 67.4788 82.5152C67.7195 82.8051 67.9878 83.0704 68.28 83.3073C68.5287 83.5486 68.8025 83.762 69.0966 83.9439C69.3396 84.1422 69.605 84.3107 69.8874 84.4457C70.0226 84.563 70.1819 84.6484 70.3538 84.6959C70.4955 84.7878 70.6481 84.8613 70.8081 84.9144C70.9248 84.9864 71.0526 85.0384 71.1862 85.0683C71.3426 85.1483 71.5087 85.2071 71.6804 85.2432C72.0426 85.3856 72.4204 85.4836 72.8058 85.5352C72.8266 85.5447 72.8489 85.5506 72.8717 85.5527C73.1356 85.6256 73.4078 85.6633 73.6814 85.6646C73.8714 85.7032 74.0657 85.715 74.2589 85.6995Z" fill="url(#paint1_linear_581_130)"/>
<defs>
<linearGradient id="paint0_linear_581_130" x1="54.0137" y1="20.1564" x2="122.616" y2="135.13" gradientUnits="userSpaceOnUse">
<stop offset="0.04" stop-color="#705ADA"/>
<stop offset="0.90625" stop-color="#D28CB3"/>
</linearGradient>
<linearGradient id="paint1_linear_581_130" x1="64.8587" y1="75.809" x2="91.4834" y2="91.3809" gradientUnits="userSpaceOnUse">
<stop offset="0.0729167" stop-color="#6E56DE"/>
<stop offset="1" stop-color="#DE93C1"/>
</linearGradient>
</defs>
</svg>
