<svg width="24" height="24" viewBox="0 0 24 24" fill="none" xmlns="http://www.w3.org/2000/svg">
<path d="M15.3911 21.1667C15.3911 21.6267 15.0218 22 14.565 22H7.13036C4.85288 22 3 20.1308 3 17.8333V6.16667C3 3.86917 4.85288 2 7.13036 2H10.8601C12.404 2 13.8562 2.60667 14.9491 3.70833L17.8272 6.61333C18.051 6.83917 18.2592 7.08667 18.4451 7.34917C18.7102 7.72333 18.6243 8.24417 18.2534 8.51167C17.8825 8.77833 17.3654 8.6925 17.101 8.3175C16.9681 8.13 16.8194 7.9525 16.6599 7.7925L13.7811 4.8875C13.5184 4.6225 13.2268 4.39833 12.9129 4.21667V7.83333C12.9129 8.2925 13.2829 8.66667 13.7389 8.66667H16.2172C16.674 8.66667 17.0432 9.04 17.0432 9.5C17.0432 9.96 16.674 10.3333 16.2172 10.3333H13.7389C12.3726 10.3333 11.2607 9.21167 11.2607 7.83333V3.68583C11.1285 3.67333 10.9947 3.66667 10.8601 3.66667H7.13036C5.76404 3.66667 4.65214 4.78833 4.65214 6.16667V17.8333C4.65214 19.2117 5.76404 20.3333 7.13036 20.3333H14.565C15.0218 20.3333 15.3911 20.7067 15.3911 21.1667ZM20.0873 15.5558L17.5752 15.1333C17.2671 15.0817 17.0432 14.815 17.0432 14.5C17.0432 14.0408 17.4133 13.6667 17.8693 13.6667H19.7428C20.0369 13.6667 20.3112 13.8267 20.459 14.0833C20.6862 14.4817 21.1901 14.6175 21.5874 14.3875C21.9823 14.1567 22.1178 13.6475 21.8881 13.2492C21.447 12.4783 20.6242 11.9992 19.742 11.9992H19.5206V11.1658C19.5206 10.7058 19.1514 10.3325 18.6945 10.3325C18.2377 10.3325 17.8685 10.7058 17.8685 11.1658V11.9992C16.5021 11.9992 15.3903 13.1208 15.3903 14.4992C15.3903 15.6325 16.1948 16.5908 17.3026 16.7767L19.8147 17.1992C20.1228 17.2508 20.3467 17.5175 20.3467 17.8325C20.3467 18.2917 19.9766 18.6658 19.5206 18.6658H17.6471C17.353 18.6658 17.0787 18.5058 16.9309 18.2492C16.7037 17.85 16.199 17.7142 15.8025 17.945C15.4076 18.1758 15.2721 18.685 15.5018 19.0833C15.9429 19.8542 16.7657 20.3325 17.6479 20.3325H17.8693V21.1658C17.8693 21.6258 18.2385 21.9992 18.6954 21.9992C19.1522 21.9992 19.5214 21.6258 19.5214 21.1658V20.3325C20.8878 20.3325 21.9997 19.2108 21.9997 17.8325C21.9997 16.6992 21.1951 15.7417 20.0873 15.5558ZM8.36947 14.5H12.9129C13.3697 14.5 13.7389 14.1267 13.7389 13.6667C13.7389 13.2067 13.3697 12.8333 12.9129 12.8333H8.36947C7.23114 12.8333 6.30429 13.7683 6.30429 14.9167V16.5833C6.30429 17.7317 7.23114 18.6667 8.36947 18.6667H12.9129C13.3697 18.6667 13.7389 18.2933 13.7389 17.8333C13.7389 17.3733 13.3697 17 12.9129 17H8.36947C8.14147 17 7.95643 16.8133 7.95643 16.5833V14.9167C7.95643 14.6867 8.14147 14.5 8.36947 14.5ZM7.13036 11.1667H8.7825C9.2385 11.1667 9.60858 10.7933 9.60858 10.3333C9.60858 9.87333 9.2385 9.5 8.7825 9.5H7.13036C6.67437 9.5 6.30429 9.87333 6.30429 10.3333C6.30429 10.7933 6.67437 11.1667 7.13036 11.1667ZM7.13036 7.83333H8.7825C9.2385 7.83333 9.60858 7.46 9.60858 7C9.60858 6.54 9.2385 6.16667 8.7825 6.16667H7.13036C6.67437 6.16667 6.30429 6.54 6.30429 7C6.30429 7.46 6.67437 7.83333 7.13036 7.83333Z" fill="black"/>
</svg>
