<svg xmlns="http://www.w3.org/2000/svg" width="25.545" height="25.545" viewBox="0 0 25.545 25.545">
  <path id="globe" d="M21.8,3.741A12.772,12.772,0,1,0,3.741,21.8,12.772,12.772,0,1,0,21.8,3.741Zm2.677,9.591A11.571,11.571,0,0,1,23.158,18.2H19.32a21.151,21.151,0,0,0,.66-4.873Zm0-1.05h-4.5A21.153,21.153,0,0,0,19.291,7.3h3.843a11.577,11.577,0,0,1,1.349,4.986ZM13.323,18.2V13.332h5.606a19.945,19.945,0,0,1-.7,4.873Zm0-11.96V1.166c1.381.23,2.7,1.386,3.724,3.258a13.317,13.317,0,0,1,.815,1.821H13.323Zm0,1.051H18.2a19.811,19.811,0,0,1,.727,4.986H13.323Zm5.652-1.051a14.575,14.575,0,0,0-1-2.325,9.467,9.467,0,0,0-1.759-2.354A11.777,11.777,0,0,1,22.5,6.246h-3.53ZM17.9,19.254a13.367,13.367,0,0,1-.853,1.93c-1.022,1.872-2.344,3.027-3.724,3.258V19.254Zm-1.594,4.7a9.608,9.608,0,0,0,1.662-2.261,14.648,14.648,0,0,0,1.041-2.433h3.523A11.788,11.788,0,0,1,16.308,23.95ZM12.273,7.3v4.986H6.663A19.86,19.86,0,0,1,7.39,7.3ZM7.623,3.92a14.51,14.51,0,0,0-1,2.325H3.041A11.764,11.764,0,0,1,9.4,1.544,9.431,9.431,0,0,0,7.623,3.92Zm4.65,15.335v5.188c-1.383-.229-2.706-1.385-3.728-3.258a13.291,13.291,0,0,1-.853-1.93Zm-5.61-5.923h5.61V18.2H7.359A19.945,19.945,0,0,1,6.663,13.332Zm-1.05,0a21.151,21.151,0,0,0,.66,4.873H2.387a11.571,11.571,0,0,1-1.323-4.873ZM2.411,7.3H6.3a21.1,21.1,0,0,0-.688,4.986H1.061A11.56,11.56,0,0,1,2.411,7.3Zm4.17,11.959a14.648,14.648,0,0,0,1.041,2.433A9.547,9.547,0,0,0,9.307,23.97a11.781,11.781,0,0,1-6.3-4.716ZM7.73,6.244a13.1,13.1,0,0,1,.815-1.821c1.023-1.874,2.346-3.03,3.728-3.258v5.08Z" fill="#a6abbe"/>
</svg>
