<svg width="24" height="24" viewBox="0 0 24 24" fill="none" xmlns="http://www.w3.org/2000/svg">
<path d="M11.9844 2.00009C10.0075 2.00317 8.07581 2.59215 6.43349 3.6926C4.79117 4.79305 3.51187 6.3556 2.75723 8.18282C2.0026 10.01 1.80649 12.0199 2.19367 13.9586C2.58086 15.8972 3.53398 17.6776 4.9326 19.0747C6.33122 20.4719 8.11258 21.4232 10.0516 21.8084C11.9906 22.1935 14.0003 21.9953 15.8268 21.2388C17.6532 20.4823 19.2144 19.2013 20.3132 17.5579C21.4119 15.9144 21.9989 13.9822 21.9999 12.0052C22.004 10.6893 21.7477 9.38558 21.2457 8.16915C20.7437 6.95273 20.006 5.84767 19.075 4.91765C18.144 3.98762 17.0382 3.25102 15.8212 2.75029C14.6043 2.24956 13.3003 1.99459 11.9844 2.00009ZM12.0311 20.4304C10.3639 20.4345 8.73288 19.9441 7.34431 19.0213C5.95573 18.0985 4.87195 16.7847 4.23001 15.246C3.58807 13.7073 3.4168 12.0128 3.73784 10.3767C4.05888 8.74069 4.85783 7.23658 6.03366 6.05457C7.20949 4.87257 8.70939 4.06575 10.3437 3.73614C11.9781 3.40653 13.6735 3.56893 15.2155 4.20279C16.7576 4.83666 18.077 5.91354 19.0071 7.29726C19.9372 8.68099 20.436 10.3094 20.4407 11.9767C20.4472 13.0849 20.2344 14.1835 19.8147 15.2092C19.3949 16.2349 18.7764 17.1675 17.9948 17.9532C17.2132 18.7389 16.2839 19.3623 15.2604 19.7874C14.2369 20.2126 13.1394 20.4311 12.0311 20.4304Z" fill="black"/>
<path d="M12.9156 13.1685C12.9156 13.5713 12.9156 13.9481 12.9156 14.3302C12.9244 14.5128 12.872 14.6931 12.7665 14.8424C12.661 14.9917 12.5085 15.1014 12.3334 15.154C12.2212 15.1852 12.1034 15.1909 11.9887 15.1707C11.874 15.1504 11.7652 15.1047 11.6705 15.0369C11.5758 14.9691 11.4974 14.8809 11.4413 14.7788C11.3851 14.6768 11.3525 14.5634 11.3459 14.4471C11.3108 13.7719 11.3108 13.0953 11.3459 12.4201C11.3693 11.9809 11.6552 11.7652 12.1255 11.6742C12.3838 11.6396 12.6352 11.566 12.8714 11.456C13.1723 11.2957 13.4097 11.0378 13.5443 10.7245C13.6789 10.4113 13.7028 10.0616 13.612 9.73299C13.523 9.40743 13.3308 9.11954 13.0642 8.91255C12.7977 8.70557 12.4711 8.59066 12.1337 8.5851C11.7962 8.57953 11.4661 8.68361 11.1928 8.88169C10.9196 9.07977 10.7179 9.36117 10.6183 9.68361C10.5824 9.82733 10.5555 9.97314 10.5377 10.1202C10.4519 10.6399 10.1271 10.9362 9.68532 10.8998C9.58194 10.8891 9.48184 10.8574 9.39114 10.8067C9.30043 10.756 9.22102 10.6873 9.15778 10.6048C9.09453 10.5224 9.04877 10.4279 9.0233 10.3271C8.99783 10.2264 8.99318 10.1215 9.00964 10.0188C9.0092 9.42799 9.18638 8.85064 9.51818 8.36174C9.84998 7.87284 10.3211 7.49497 10.8703 7.27718C11.2853 7.08736 11.7375 6.9928 12.1938 7.00043C12.65 7.00805 13.0988 7.11767 13.5072 7.32125C13.9156 7.52483 14.2733 7.8172 14.554 8.17696C14.8348 8.53671 15.0315 8.95472 15.1297 9.40035C15.4571 10.7543 14.9997 12.0719 13.5704 12.8749C13.3911 12.9762 13.1728 13.0542 12.9156 13.1685ZM12.1099 17.7293C11.8512 17.7273 11.6039 17.6227 11.4222 17.4385C11.2405 17.2544 11.1392 17.0057 11.1406 16.747C11.1444 16.4865 11.2515 16.2381 11.4384 16.0566C11.6253 15.875 11.8767 15.7752 12.1372 15.779C12.3978 15.7828 12.6461 15.8899 12.8277 16.0768C13.0092 16.2637 13.1091 16.5151 13.1053 16.7756C13.0991 17.0338 12.991 17.2792 12.8044 17.4579C12.6179 17.6366 12.3682 17.7342 12.1099 17.7293Z" fill="black"/>
</svg>
