<svg width="15" height="18" viewBox="0 0 15 18" fill="none" xmlns="http://www.w3.org/2000/svg">
    <path d="M6.55873 14.3289V14.8664C6.55873 14.9756 6.5997 15.0713 6.6817 15.1533C6.76369 15.2353 6.85933 15.2762 6.96864 15.2762H7.55161C7.66577 15.2762 7.76569 15.2335 7.8513 15.1478C7.93694 15.0622 7.97975 14.9623 7.97975 14.8481V14.3289H9.16399C9.36528 14.3289 9.53403 14.2608 9.67021 14.1246C9.8064 13.9885 9.8745 13.8197 9.8745 13.6184V10.7763C9.8745 10.575 9.8064 10.4062 9.67021 10.2701C9.53403 10.1339 9.36528 10.0657 9.16399 10.0657H6.08501V8.64465H9.16399C9.36528 8.64465 9.53403 8.57654 9.67021 8.44025C9.8064 8.30408 9.8745 8.13525 9.8745 7.93384C9.8745 7.73254 9.8064 7.56378 9.67021 7.42767C9.53403 7.29163 9.36528 7.22369 9.16399 7.22369H7.97975V6.68622C7.97975 6.57697 7.93877 6.48126 7.85678 6.39935C7.7748 6.31732 7.67914 6.27625 7.56981 6.27625H6.98685C6.87268 6.27625 6.77278 6.31915 6.68715 6.40472C6.60153 6.49042 6.55873 6.59021 6.55873 6.70441V7.22369H5.3745C5.17319 7.22369 5.00444 7.29175 4.86826 7.42792C4.73207 7.56415 4.66399 7.73291 4.66399 7.9342V10.7763C4.66399 10.9776 4.73207 11.1464 4.86826 11.2825C5.00444 11.4187 5.17319 11.4869 5.3745 11.4869H8.45346V12.9078H5.3745C5.17319 12.9078 5.00444 12.976 4.86826 13.1122C4.73207 13.2485 4.66399 13.4174 4.66399 13.6187C4.66399 13.8201 4.73207 13.9888 4.86826 14.1249C5.00444 14.2609 5.17319 14.3289 5.3745 14.3289H6.55873ZM1.71257 18C1.23402 18 0.828949 17.8342 0.497375 17.5026C0.165787 17.171 0 16.766 0 16.2874V1.71252C0 1.23401 0.165787 0.828979 0.497375 0.497375C0.828949 0.165771 1.23402 0 1.71257 0H9.81982L14.2105 4.39069V16.2874C14.2105 16.766 14.0447 17.171 13.7131 17.5026C13.3816 17.8342 12.9765 18 12.498 18H1.71257ZM1.71257 16.5789H12.498C12.5708 16.5789 12.6376 16.5485 12.6984 16.4879C12.7591 16.4271 12.7895 16.3602 12.7895 16.2874V5.1012H9.96558C9.72298 5.1012 9.51961 5.0191 9.3555 4.85498C9.19138 4.69086 9.10933 4.48749 9.10933 4.24493V1.42108H1.71257C1.63966 1.42108 1.57286 1.45135 1.51213 1.51215C1.4514 1.57288 1.42104 1.63965 1.42104 1.71252V16.2874C1.42104 16.3602 1.4514 16.4271 1.51213 16.4879C1.57286 16.5485 1.63966 16.5789 1.71257 16.5789Z" fill="#676C7D"/>
</svg> 