<svg xmlns="http://www.w3.org/2000/svg" width="15.528" height="15.532" viewBox="0 0 15.528 15.532">
  <g id="link" transform="translate(-0.001 0)">
    <path id="Path_5662" data-name="Path 5662" d="M8.959,14.155,6.848,16.265a3.253,3.253,0,1,1-4.6-4.6L4.358,9.553a.647.647,0,1,0-.916-.915L1.332,10.75a4.548,4.548,0,0,0,6.433,6.43L9.876,15.07a.647.647,0,1,0-.915-.915Z" transform="translate(0 -2.981)" fill="#a6abbe"/>
    <path id="Path_5663" data-name="Path 5663" d="M17.181,1.334A4.516,4.516,0,0,0,13.965,0h0a4.519,4.519,0,0,0-3.215,1.331L8.637,3.442a.647.647,0,1,0,.915.916l2.113-2.111a3.231,3.231,0,0,1,2.3-.953h0a3.254,3.254,0,0,1,2.3,5.554L14.153,8.959a.647.647,0,0,0,.916.916l2.111-2.109a4.554,4.554,0,0,0,0-6.431Z" transform="translate(-2.981 0)" fill="#a6abbe"/>
    <path id="Path_5664" data-name="Path 5664" d="M12.072,8.19,8.19,12.072a.647.647,0,1,0,.915.915L12.987,9.1a.647.647,0,1,0-.915-.915Z" transform="translate(-2.823 -2.823)" fill="#a6abbe"/>
  </g>
</svg>
