<svg width="52" height="52" viewBox="0 0 52 52" fill="none" xmlns="http://www.w3.org/2000/svg">
<path d="M41.236 10.9889L44.9033 31.7811L28.7313 45.3531L8.89199 38.1329L5.22469 17.342L21.3967 3.76999L41.236 10.9889Z" fill="white"/>
<path d="M41.5277 11.0613L45.2247 32.0619L28.9217 45.77L8.9217 38.4774L5.22469 17.4781L21.5277 3.76999L41.5277 11.0613Z" stroke="white" stroke-width="0.13" stroke-miterlimit="10"/>
<path opacity="0.8" d="M25.7634 46.2449C37.103 46.2449 46.2956 37.0523 46.2956 25.7127C46.2956 14.3731 37.103 5.18051 25.7634 5.18051C14.4238 5.18051 5.2312 14.3731 5.2312 25.7127C5.2312 37.0523 14.4238 46.2449 25.7634 46.2449Z" fill="url(#paint0_radial_81_10753)"/>
<path opacity="0.8" d="M28.7183 52C39.4275 52 48.1091 43.3184 48.1091 32.6092C48.1091 21.8999 39.4275 13.2184 28.7183 13.2184C18.0091 13.2184 9.3275 21.8999 9.3275 32.6092C9.3275 43.3184 18.0091 52 28.7183 52Z" fill="url(#paint1_radial_81_10753)"/>
<path d="M24.0968 37.635C31.3799 37.635 37.284 31.7309 37.284 24.4478C37.284 17.1647 31.3799 11.2606 24.0968 11.2606C16.8137 11.2606 10.9096 17.1647 10.9096 24.4478C10.9096 31.7309 16.8137 37.635 24.0968 37.635Z" fill="url(#paint2_linear_81_10753)"/>
<path d="M19.955 31.965C19.8494 31.965 19.7439 31.9298 19.6384 31.8946C19.4977 31.7891 19.3921 31.6132 19.3921 31.4374L19.357 30.171C19.357 30.0303 19.2866 29.8896 19.1811 29.7841C17.774 28.5178 16.965 26.7238 16.965 24.7539C16.965 20.8846 19.9901 17.965 23.965 17.965C27.9399 17.965 30.965 20.8846 30.965 24.7539C30.965 28.6233 27.9399 31.5429 23.965 31.5429C23.2615 31.5429 22.5932 31.4374 21.9248 31.2615C21.7841 31.2263 21.6786 31.2263 21.5379 31.2967L20.166 31.8946C20.0957 31.965 20.0253 31.965 19.955 31.965ZM19.6032 29.2565C19.8846 29.5027 20.0253 29.8193 20.0253 30.171L20.0605 31.2263L21.2565 30.6987C21.5379 30.5931 21.8193 30.558 22.1007 30.6283C22.6987 30.8042 23.2967 30.8745 23.9298 30.8745C27.5178 30.8745 30.2263 28.2715 30.2263 24.7891C30.2263 21.3067 27.553 18.6685 23.965 18.6685C20.3771 18.6685 17.6685 21.2715 17.6685 24.7539C17.6685 26.5127 18.3369 28.1308 19.6032 29.2565Z" fill="white"/>
<path fill-rule="evenodd" clip-rule="evenodd" d="M19.7439 26.759L21.7841 23.4876C22.1007 22.96 22.8042 22.8544 23.2967 23.2062L24.9148 24.4374C25.0555 24.5429 25.2665 24.5429 25.4072 24.4374L27.6233 22.7489C27.9047 22.5379 28.2916 22.8896 28.1158 23.2062L26.0756 26.4776C25.759 27.0052 25.0555 27.1107 24.563 26.759L22.9097 25.5278C22.769 25.4223 22.558 25.4223 22.4173 25.5278L20.2012 27.2163C19.955 27.3921 19.568 27.0404 19.7439 26.759Z" fill="white"/>
<defs>
<radialGradient id="paint0_radial_81_10753" cx="0" cy="0" r="1" gradientUnits="userSpaceOnUse" gradientTransform="translate(25.7636 25.7263) rotate(0.81) scale(20.5321)">
<stop stop-color="#1C1953"/>
<stop offset="0.183" stop-color="#4E4C79" stop-opacity="0.817"/>
<stop offset="0.477" stop-color="#9998B2" stop-opacity="0.522"/>
<stop offset="0.722" stop-color="#D0D0DC" stop-opacity="0.278"/>
<stop offset="0.902" stop-color="#F2F2F5" stop-opacity="0.098"/>
<stop offset="1" stop-color="white" stop-opacity="0"/>
</radialGradient>
<radialGradient id="paint1_radial_81_10753" cx="0" cy="0" r="1" gradientUnits="userSpaceOnUse" gradientTransform="translate(28.7109 32.6258) rotate(0.81) scale(19.3905)">
<stop stop-color="#000057"/>
<stop offset="0.248" stop-color="#4C4C89" stop-opacity="0.752"/>
<stop offset="0.519" stop-color="#9898BB" stop-opacity="0.481"/>
<stop offset="0.744" stop-color="#D0D0E0" stop-opacity="0.256"/>
<stop offset="0.91" stop-color="#F2F2F6" stop-opacity="0.09"/>
<stop offset="1" stop-color="white" stop-opacity="0"/>
</radialGradient>
<linearGradient id="paint2_linear_81_10753" x1="33.5549" y1="15.2676" x2="14.6441" y2="33.651" gradientUnits="userSpaceOnUse">
<stop stop-color="#1093DD"/>
<stop offset="1" stop-color="#1F93FE"/>
</linearGradient>
</defs>
</svg>
