<svg width="16" height="16" viewBox="0 0 16 16" fill="none" xmlns="http://www.w3.org/2000/svg">
<path d="M8.717 0C4.332 0 2 2.81 2 5.874C2 7.295 2.794 9.067 4.065 9.629C4.258 9.716 4.363 9.679 4.406 9.5C4.444 9.364 4.611 8.709 4.692 8.4C4.7064 8.3518 4.70768 8.30063 4.69573 8.25177C4.68378 8.20291 4.65902 8.15811 4.624 8.122C4.202 7.634 3.867 6.745 3.867 5.911C3.867 3.774 5.566 1.699 8.457 1.699C10.957 1.699 12.706 3.323 12.706 5.646C12.706 8.271 11.317 10.087 9.512 10.087C8.513 10.087 7.769 9.303 8.005 8.333C8.29 7.178 8.849 5.936 8.849 5.103C8.849 4.356 8.427 3.738 7.565 3.738C6.548 3.738 5.723 4.745 5.723 6.097C5.723 6.956 6.027 7.536 6.027 7.536L4.834 12.359C4.518 13.644 4.877 15.725 4.908 15.904C4.927 16.003 5.038 16.034 5.1 15.953C5.199 15.823 6.415 14.088 6.756 12.834C6.88 12.377 7.389 10.524 7.389 10.524C7.724 11.129 8.691 11.636 9.721 11.636C12.785 11.636 14.999 8.943 14.999 5.601C14.988 2.397 12.246 0 8.717 0Z" fill="#D32F2F"/>
</svg>
