<svg width="9" height="14" viewBox="0 0 9 14" fill="none" xmlns="http://www.w3.org/2000/svg">
<path d="M1.05263 0.000246711C0.631961 -0.00912219 0.25161 0.249118 0.105065 0.643527C-0.0414819 1.038 0.0779597 1.48203 0.402627 1.74954L6.44549 6.92655L0.402627 12.1014C0.10405 12.3208 -0.0465041 12.6891 0.012719 13.0549C0.0719413 13.4207 0.330973 13.7226 0.683555 13.8366C1.03614 13.9508 1.42293 13.8579 1.68526 13.5962L8.60379 7.67685C8.8237 7.48917 8.95034 7.21457 8.95032 6.92557C8.95032 6.63648 8.82368 6.36203 8.60379 6.17432L1.68527 0.249118C1.51053 0.0937221 1.28634 0.00567884 1.05263 0.000246711Z" fill="white"/>
</svg>
