<svg width="24" height="24" viewBox="0 0 24 24" fill="none" xmlns="http://www.w3.org/2000/svg">
<g clip-path="url(#clip0_14_192)">
<path d="M23.562 21.4452L18.9168 16.7981C22.3926 12.1533 21.4448 5.57034 16.8001 2.09462C12.1553 -1.3811 5.57229 -0.433388 2.09657 4.21139C-1.37915 8.85616 -0.431435 15.4392 4.21334 18.9149C7.94441 21.7069 13.0689 21.7069 16.8001 18.9149L21.4472 23.562C22.0312 24.146 22.978 24.146 23.5619 23.562C24.1459 22.978 24.1459 22.0312 23.5619 21.4472L23.562 21.4452ZM10.5454 18.0179C6.41737 18.0179 3.07096 14.6715 3.07096 10.5435C3.07096 6.41542 6.41737 3.06901 10.5454 3.06901C14.6735 3.06901 18.0199 6.41542 18.0199 10.5435C18.0155 14.6697 14.6717 18.0136 10.5454 18.0179Z" fill="#A6ABBE"/>
</g>
<defs>
<clipPath id="clip0_14_192">
<rect width="24" height="24" fill="white"/>
</clipPath>
</defs>
</svg>
