<svg width="40" height="40" viewBox="0 0 40 40" fill="none" xmlns="http://www.w3.org/2000/svg">
<path d="M30.0016 23.75C27.7383 23.75 25.7699 24.9717 24.6733 26.78L15.7882 22.3384C16.0815 21.615 16.2516 20.8283 16.2516 20C16.2516 19.1717 16.0815 18.385 15.7882 17.6616L24.6733 13.22C25.7699 15.0267 27.7383 16.25 30.0016 16.25C33.4466 16.25 36.2516 13.4467 36.2516 10C36.2516 6.55333 33.4466 3.75 30.0016 3.75C26.5566 3.75 23.7516 6.55333 23.7516 10C23.7516 10.2883 23.7983 10.565 23.8367 10.8434L14.3949 15.5634C13.2649 14.4434 11.7133 13.75 10 13.75C6.555 13.75 3.75 16.5533 3.75 20C3.75 23.4467 6.555 26.25 10 26.25C11.7117 26.25 13.2649 25.555 14.3949 24.4366L23.8367 29.1566C23.7983 29.435 23.7516 29.7117 23.7516 30C23.7516 33.4467 26.5566 36.25 30.0016 36.25C33.4466 36.25 36.2516 33.4467 36.2516 30C36.2516 26.5533 33.4466 23.75 30.0016 23.75ZM30.0016 6.25C32.0683 6.25 33.7516 7.93167 33.7516 10C33.7516 12.0683 32.0683 13.75 30.0016 13.75C27.935 13.75 26.2516 12.0683 26.2516 10C26.2516 7.93167 27.935 6.25 30.0016 6.25ZM10.0016 23.75C7.93496 23.75 6.25163 22.0683 6.25163 20C6.25163 17.9317 7.93496 16.25 10.0016 16.25C12.0683 16.25 13.7516 17.9317 13.7516 20C13.7516 22.0683 12.0683 23.75 10.0016 23.75ZM30.0016 33.75C27.935 33.75 26.2516 32.0683 26.2516 30C26.2516 27.9317 27.935 26.25 30.0016 26.25C32.0683 26.25 33.7516 27.9317 33.7516 30C33.7516 32.0683 32.0683 33.75 30.0016 33.75Z" fill="white"/>
</svg>
