<svg width="20" height="20" viewBox="0 0 20 20" fill="none" xmlns="http://www.w3.org/2000/svg">
<path d="M8.74766 1.8583L4.58932 3.42497C3.63099 3.7833 2.84766 4.91663 2.84766 5.9333V12.125C2.84766 13.1083 3.49766 14.4 4.28932 14.9916L7.87266 17.6666C9.04766 18.55 10.981 18.55 12.156 17.6666L15.7393 14.9916C16.531 14.4 17.181 13.1083 17.181 12.125V5.9333C17.181 4.9083 16.3977 3.77497 15.4393 3.41663L11.281 1.8583C10.5727 1.59997 9.43932 1.59997 8.74766 1.8583Z" stroke="#212534" stroke-width="1.25" stroke-linecap="round" stroke-linejoin="round"/>
<path d="M9.99479 10.4163C10.9153 10.4163 11.6615 9.67015 11.6615 8.74967C11.6615 7.8292 10.9153 7.08301 9.99479 7.08301C9.07432 7.08301 8.32812 7.8292 8.32812 8.74967C8.32812 9.67015 9.07432 10.4163 9.99479 10.4163Z" stroke="#212534" stroke-width="1.25" stroke-miterlimit="10" stroke-linecap="round" stroke-linejoin="round"/>
<path d="M10 10.4167V12.9167" stroke="#212534" stroke-width="1.25" stroke-miterlimit="10" stroke-linecap="round" stroke-linejoin="round"/>
</svg>
