<svg width="40" height="40" viewBox="0 0 40 40" fill="none" xmlns="http://www.w3.org/2000/svg">
<path d="M20.0026 2.08301C10.1226 2.08301 2.08594 10.1213 2.08594 19.9997C2.08594 29.878 10.1226 37.9163 20.0026 37.9163C29.8826 37.9163 37.9193 29.878 37.9193 19.9997C37.9193 10.1213 29.8826 2.08301 20.0026 2.08301ZM20.0026 35.4163C11.5009 35.4163 4.58594 28.5013 4.58594 19.9997C4.58594 11.498 11.5009 4.58301 20.0026 4.58301C28.5043 4.58301 35.4193 11.498 35.4193 19.9997C35.4193 28.5013 28.5043 35.4163 20.0026 35.4163ZM24.6343 13.0013C18.2843 16.4147 17.5826 17.118 17.3509 17.348C16.6426 18.0563 16.2526 18.998 16.2526 19.9997C16.2526 21.0013 16.6426 21.943 17.3509 22.6513C18.0593 23.3597 19.0009 23.7497 20.0026 23.7497C21.0043 23.7497 21.9459 23.3597 22.6526 22.6513C22.8826 22.423 23.5826 21.7247 27.0009 15.368C27.3693 14.683 27.2476 13.853 26.6976 13.303C26.1493 12.7547 25.3193 12.633 24.6343 13.0013ZM20.8859 20.883L21.7693 21.7663L20.8859 20.883C20.4143 21.3547 19.5909 21.3563 19.1176 20.883C18.8809 20.6463 18.7509 20.333 18.7509 19.9997C18.7509 19.6663 18.8809 19.353 19.1176 19.1163C19.3809 18.858 20.7159 18.008 23.5776 16.423C21.4709 20.2313 20.9459 20.8213 20.8859 20.883ZM11.2526 19.9997C11.2526 21.5747 11.6476 23.043 12.4293 24.363C12.7809 24.958 12.5842 25.723 11.9892 26.0747C11.7892 26.193 11.5709 26.248 11.3543 26.248C10.9276 26.248 10.511 26.028 10.2776 25.6347C9.28095 23.948 8.7526 21.9997 8.7526 19.998C8.7526 13.7947 13.7993 8.748 20.0026 8.748C20.8159 8.748 21.6093 8.83301 22.4309 9.00801C23.1059 9.15301 23.5359 9.81636 23.3926 10.4914C23.2493 11.1664 22.581 11.5947 21.9093 11.4513C16.351 10.268 11.2526 14.5397 11.2526 19.9997ZM31.2526 19.9997C31.2526 21.9997 30.7259 23.948 29.7276 25.6363C29.4943 26.0313 29.0776 26.2497 28.6509 26.2497C28.4343 26.2497 28.216 26.1947 28.016 26.0763C27.4226 25.7247 27.2243 24.958 27.5759 24.3647C28.3559 23.0447 28.7526 21.5764 28.7526 20.0014C28.7526 19.363 28.6843 18.7414 28.5459 18.098C28.4009 17.423 28.8309 16.758 29.5059 16.613C30.1843 16.468 30.8459 16.8963 30.9909 17.5713C31.1676 18.388 31.2526 19.183 31.2526 19.9997Z" fill="white"/>
</svg>
