<svg width="52" height="52" viewBox="0 0 52 52" fill="none" xmlns="http://www.w3.org/2000/svg">
<path d="M41.236 10.9889L44.9033 31.7811L28.7313 45.3531L8.89199 38.1329L5.22469 17.342L21.3967 3.76999L41.236 10.9889Z" fill="white"/>
<path d="M41.5277 11.0613L45.2247 32.0619L28.9217 45.77L8.9217 38.4774L5.22469 17.4781L21.5277 3.76999L41.5277 11.0613Z" stroke="white" stroke-width="0.13" stroke-miterlimit="10"/>
<path d="M24.0968 37.635C31.3799 37.635 37.284 31.7309 37.284 24.4478C37.284 17.1647 31.3799 11.2606 24.0968 11.2606C16.8137 11.2606 10.9096 17.1647 10.9096 24.4478C10.9096 31.7309 16.8137 37.635 24.0968 37.635Z" fill="url(#paint0_linear_81_10776)"/>
<path fill-rule="evenodd" clip-rule="evenodd" d="M16.8937 24.3049C20.3833 22.8937 22.7103 21.9633 23.8746 21.5138C27.199 20.2304 27.8897 20.0074 28.34 20.0001C28.439 19.9985 28.6604 20.0212 28.8038 20.1293C28.9249 20.2205 28.9583 20.3437 28.9742 20.4302C28.9902 20.5166 29.01 20.7136 28.9942 20.8676C28.8141 22.6245 28.0346 26.8881 27.638 28.8559C27.4702 29.6885 27.1398 29.9677 26.8199 29.995C26.1248 30.0544 25.5969 29.5686 24.9236 29.159C23.8701 28.5179 23.2749 28.1189 22.2522 27.4933C21.0703 26.7704 21.8365 26.3731 22.51 25.7237C22.6863 25.5538 25.7492 22.9679 25.8084 22.7333C25.8159 22.704 25.8227 22.5946 25.7527 22.5369C25.6828 22.4792 25.5795 22.4989 25.5049 22.5146C25.3992 22.5369 23.7162 23.5695 20.4557 25.6124C19.9779 25.9169 19.5452 26.0652 19.1575 26.0574C18.7301 26.0489 17.9079 25.8331 17.2967 25.6487C16.5471 25.4225 15.9513 25.3029 16.0031 24.9188C16.0302 24.7187 16.327 24.5141 16.8937 24.3049Z" fill="white"/>
<defs>
<linearGradient id="paint0_linear_81_10776" x1="33.5549" y1="15.2676" x2="14.6441" y2="33.651" gradientUnits="userSpaceOnUse">
<stop stop-color="#28EBF8"/>
<stop offset="1" stop-color="#0064D9"/>
</linearGradient>
</defs>
</svg>
