<svg width="120" height="120" viewBox="0 0 120 120" fill="none" xmlns="http://www.w3.org/2000/svg">
<g clip-path="url(#clip0_1391_454)">
<path d="M116.372 30.4336C113.222 18.8391 101.163 6.77812 89.5664 3.62812C82.4555 1.85625 72.9305 0.0304687 60 0C47.0695 0.0304687 37.5445 1.85625 30.4336 3.62812C18.8391 6.77812 6.77812 18.8367 3.62812 30.4336C1.85625 37.5445 0.0304687 47.0695 0 60C0.0304687 72.9305 1.85625 82.4555 3.62812 89.5664C6.77812 101.163 18.8391 113.222 30.4336 116.372C37.5445 118.144 47.0742 119.97 60 120C72.9281 119.97 82.4555 118.144 89.5664 116.372C101.163 113.222 113.222 101.163 116.372 89.5664C118.144 82.4555 119.97 72.9258 120 60C119.97 47.0695 118.144 37.5445 116.372 30.4336Z" fill="#DFFFF5"/>
<path d="M96.3648 52.0963C94.7133 50.4901 93.0578 48.8784 91.3984 47.2612C91.3516 45.0159 91.293 42.769 91.2227 40.5206C91.1289 37.5135 89.8305 34.6448 87.5992 32.4135C85.4502 30.22 82.5462 28.9277 79.4781 28.7995C77.225 28.7291 74.9734 28.6706 72.7234 28.6237C71.0953 26.9737 69.4836 25.3229 67.8883 23.6713C66.876 22.5835 65.6505 21.716 64.2882 21.1228C62.9258 20.5295 61.4558 20.2234 59.9699 20.2234C58.484 20.2234 57.014 20.5295 55.6517 21.1228C54.2893 21.716 53.0638 22.5835 52.0516 23.6713C50.4547 25.3245 48.8398 26.9791 47.207 28.6354C44.957 28.6791 42.707 28.737 40.457 28.8088C34.2578 29.0198 28.9234 34.3424 28.7125 40.5276C28.6422 42.7729 28.5836 45.0198 28.5367 47.2682C26.8789 48.8885 25.2234 50.4987 23.5703 52.0987C21.3648 54.2432 20.125 57.037 20.125 59.9995C20.1347 61.4813 20.4451 62.9458 21.0373 64.3043C21.6295 65.6627 22.4912 66.8869 23.5703 67.9026C25.2234 69.501 26.8789 71.1096 28.5367 72.7284C28.5836 74.9784 28.6422 77.2276 28.7125 79.476C28.8062 82.4877 30.1047 85.3495 32.3336 87.5831C34.4837 89.7763 37.3883 91.0685 40.457 91.1971C42.7102 91.2674 44.9617 91.326 47.2117 91.3729C48.8414 93.026 50.4531 94.6776 52.0469 96.3276C53.0601 97.415 54.2864 98.2821 55.6492 98.875C57.0121 99.4679 58.4825 99.7738 59.9688 99.7738C61.455 99.7738 62.9254 99.4679 64.2883 98.875C65.6511 98.2821 66.8774 97.415 67.8906 96.3276C69.4937 94.6792 71.107 93.0268 72.7305 91.3706C74.9805 91.3252 77.2305 91.2674 79.4805 91.1971C85.6773 90.9862 91.0141 85.6588 91.225 79.4784C91.2953 77.2331 91.3539 74.987 91.4008 72.7401C93.0586 71.1213 94.7141 69.5081 96.3672 67.9002C97.4451 66.8841 98.3061 65.6602 98.8982 64.3024C99.4904 62.9445 99.8014 61.4808 99.8125 59.9995C99.8125 57.0323 98.5727 54.2385 96.3648 52.0963Z" fill="url(#paint0_linear_1391_454)"/>
<path d="M79.7698 54.9584C73.0573 61.9334 66.237 69.0654 59.5315 76.1389C58.9861 76.7159 58.3289 77.1758 57.6 77.4906C56.871 77.8053 56.0856 77.9682 55.2916 77.9693H55.2705C54.4772 77.9637 53.693 77.7994 52.9641 77.4863C52.2352 77.1732 51.5762 76.7174 51.026 76.1459C47.4424 72.4451 43.8331 68.7467 40.2448 65.0787C39.6989 64.53 39.2682 63.8777 38.978 63.1602C38.6879 62.4426 38.5442 61.6743 38.5553 60.9004C38.5664 60.1265 38.7322 59.3626 39.0429 58.6537C39.3535 57.9448 39.8028 57.3052 40.3643 56.7725C41.4949 55.6787 43.0119 55.0761 44.5849 55.0958C46.1578 55.1156 47.6592 55.7561 48.762 56.8779C50.9041 59.0748 53.051 61.2787 55.2026 63.4896C60.5276 57.9115 65.876 52.3029 71.1401 46.7717C73.376 44.4279 77.1049 44.381 79.5026 46.6498C81.9002 48.9185 82.0221 52.6193 79.7698 54.9584Z" fill="url(#paint1_linear_1391_454)"/>
</g>
<defs>
<linearGradient id="paint0_linear_1391_454" x1="87.5688" y1="87.6018" x2="32.3664" y2="32.4018" gradientUnits="userSpaceOnUse">
<stop stop-color="#0A96FB"/>
<stop offset="0.54" stop-color="#1EEBC6"/>
<stop offset="1" stop-color="#92FECA"/>
</linearGradient>
<linearGradient id="paint1_linear_1391_454" x1="69.7643" y1="65.9084" x2="50.487" y2="46.6311" gradientUnits="userSpaceOnUse">
<stop stop-color="#BCE4ED"/>
<stop offset="0.57" stop-color="white"/>
<stop offset="1" stop-color="white"/>
</linearGradient>
<clipPath id="clip0_1391_454">
<rect width="120" height="120" fill="white"/>
</clipPath>
</defs>
</svg>
