<svg width="52" height="52" viewBox="0 0 52 52" fill="none" xmlns="http://www.w3.org/2000/svg">
<path d="M43.4005 13.5603L47.1848 35.0142L30.4967 49.0191L10.0243 41.5701L6.2387 20.1149L22.9268 6.10999L43.4005 13.5603Z" fill="white"/>
<path d="M43.4005 13.5603L47.1848 35.0142L30.4967 49.0191L10.0243 41.5701L6.2387 20.1149L22.9268 6.10999L43.4005 13.5603Z" stroke="white" stroke-width="0.13" stroke-miterlimit="10"/>
<path d="M25.5437 39.4212C32.4398 39.4212 38.0302 33.8308 38.0302 26.9347C38.0302 20.0386 32.4398 14.4482 25.5437 14.4482C18.6476 14.4482 13.0572 20.0386 13.0572 26.9347C13.0572 33.8308 18.6476 39.4212 25.5437 39.4212Z" fill="url(#paint0_linear_81_10760)"/>
<path d="M18.7057 33.9118L19.7977 30.0417C19.2218 28.9705 18.928 27.7745 18.9436 26.5655C18.9956 22.6109 22.2534 19.4363 26.208 19.487C30.1626 19.539 33.3372 22.7968 33.2865 26.7514C33.2345 30.706 29.9767 33.8806 26.0221 33.8299C24.8352 33.8143 23.6665 33.4997 22.6252 32.9173L18.7057 33.9118ZM22.8358 31.4639L23.0802 31.6134C23.9759 32.1633 24.999 32.461 26.039 32.474C29.2461 32.5156 31.889 29.9403 31.9306 26.7332C31.9722 23.5261 29.3969 20.8832 26.1898 20.8416C22.9827 20.8 20.3398 23.3753 20.2982 26.5824C20.2839 27.6419 20.5647 28.6884 21.1094 29.6088L21.2576 29.8584L20.6479 32.019L22.8358 31.4639Z" fill="white"/>
<path fill-rule="evenodd" clip-rule="evenodd" d="M28.769 27.69C28.4765 27.5093 28.0943 27.3078 27.7446 27.4456C27.4768 27.5509 27.3 27.9669 27.1245 28.1775C27.0348 28.2854 26.9282 28.301 26.793 28.2451C25.7972 27.833 25.038 27.1544 24.4972 26.2262C24.4049 26.0819 24.4231 25.9688 24.5388 25.8375C24.7078 25.6438 24.921 25.4228 24.9691 25.1589C25.0172 24.895 24.8976 24.583 24.791 24.3464C24.6545 24.0435 24.5037 23.6119 24.2047 23.4364C23.9291 23.2765 23.5625 23.3584 23.3129 23.5573C22.8813 23.8992 22.6681 24.4413 22.6681 24.9808C22.6681 25.1342 22.685 25.2876 22.7188 25.4358C22.8007 25.7933 22.9606 26.1274 23.1413 26.4459C23.2778 26.6864 23.426 26.9191 23.5872 27.144C24.1137 27.8785 24.7715 28.5194 25.5372 29.0017C25.9194 29.2422 26.3328 29.4554 26.7605 29.6036C27.2402 29.7687 27.6679 29.9403 28.1905 29.848C28.7365 29.7518 29.2786 29.4216 29.5022 28.899C29.5685 28.7443 29.6023 28.5714 29.5685 28.4063C29.4983 28.0657 29.042 27.8577 28.769 27.69Z" fill="white"/>
<defs>
<linearGradient id="paint0_linear_81_10760" x1="34.4975" y1="18.2397" x2="16.5915" y2="35.6465" gradientUnits="userSpaceOnUse">
<stop stop-color="#00FB73"/>
<stop offset="1" stop-color="#00B25B"/>
</linearGradient>
</defs>
</svg>
