<svg width="52" height="52" viewBox="0 0 52 52" fill="none" xmlns="http://www.w3.org/2000/svg">
<path d="M42.3026 11.2923L46 32.2909L29.6974 46L9.69744 38.7077L6 17.7077L22.3026 4L42.3026 11.2923Z" fill="white"/>
<path d="M25.3337 37.6673C32.6976 37.6673 38.6673 31.6976 38.6673 24.3337C38.6673 16.9697 32.6976 11 25.3337 11C17.9697 11 12 16.9697 12 24.3337C12 31.6976 17.9697 37.6673 25.3337 37.6673Z" fill="#044953"/>
<path d="M24.7742 29.7V21.6071L18 29.7H24.7742ZM29.2799 26.3481C27.4074 26.3481 25.8925 27.8477 25.8925 29.7H32.6667C32.6667 27.849 31.1523 26.3481 29.2799 26.3481ZM25.8925 26.7948L32.6667 18.7H25.8925V26.7948ZM21.3868 22.0526C23.258 22.0526 24.7742 20.5511 24.7742 18.7L18 18.7012C18 20.5523 19.5168 22.0526 21.3868 22.0526Z" fill="white"/>
</svg>
