<svg xmlns="http://www.w3.org/2000/svg" width="38.392" height="30" viewBox="0 0 38.392 30">
  <path id="crown" d="M36.418,5.71a3.294,3.294,0,0,0-3.487.665l-4.137,3.961L21.458,3.311a3.3,3.3,0,0,0-4.524,0L9.6,10.336,5.461,6.375a3.3,3.3,0,0,0-3.486-.664A3.065,3.065,0,0,0,0,8.541V24.756a7.843,7.843,0,0,0,8,7.659h22.4a7.844,7.844,0,0,0,8-7.659V8.541A3.065,3.065,0,0,0,36.418,5.71ZM35.193,24.756a4.7,4.7,0,0,1-4.8,4.6H8a4.7,4.7,0,0,1-4.8-4.6V8.541l5.268,5.044a1.65,1.65,0,0,0,2.262,0L19.2,5.477l8.467,8.107a1.65,1.65,0,0,0,2.262,0l5.268-5.044Z" transform="translate(0 -2.414)" fill="#212534"/>
</svg>
