<svg xmlns="http://www.w3.org/2000/svg" width="25.092" height="30" viewBox="0 0 25.092 30">
  <g id="marker_2_" data-name="marker (2)" transform="translate(-1.945 0.002)">
    <path id="Path_492" data-name="Path 492" d="M12.991,6a4.991,4.991,0,1,0,4.991,4.991A4.991,4.991,0,0,0,12.991,6Zm0,7.486a2.5,2.5,0,1,1,2.5-2.5A2.5,2.5,0,0,1,12.991,13.486Z" transform="translate(1.5 1.506)" fill="#212534"/>
    <path id="Path_493" data-name="Path 493" d="M14.491,30a6.573,6.573,0,0,1-5.379-2.75c-4.755-6.571-7.167-11.51-7.167-14.682a12.546,12.546,0,1,1,25.092,0c0,3.172-2.412,8.112-7.167,14.682A6.573,6.573,0,0,1,14.491,30Zm0-27.271a9.844,9.844,0,0,0-9.825,9.842c0,2.512,2.362,7.158,6.649,13.081a3.92,3.92,0,0,0,6.351,0c4.287-5.923,6.649-10.569,6.649-13.081a9.844,9.844,0,0,0-9.825-9.842Z" transform="translate(0)" fill="#212534"/>
  </g>
</svg>
