<svg width="469" height="253" viewBox="0 0 469 253" fill="none" xmlns="http://www.w3.org/2000/svg">
<path d="M25.2402 248.296C2.06714 239.377 -39.5744 77.6697 89.9922 10.6475C145.545 -18.0892 204.405 17.2576 275.079 46.7805C345.753 76.3034 377.985 56.5776 418.555 78.0822C496.347 119.322 460.977 248.947 460.977 248.947C460.977 248.947 48.4134 257.214 25.2402 248.296Z" fill="white" fill-opacity="0.16"/>
<path d="M445.575 216.486H207.129C205.887 216.486 204.657 216.241 203.51 215.766C202.362 215.291 201.32 214.594 200.442 213.716C199.564 212.838 198.867 211.795 198.392 210.648C197.916 209.501 197.672 208.271 197.672 207.029V30.3466C197.672 29.1053 197.917 27.8763 198.392 26.7296C198.867 25.583 199.564 24.5414 200.442 23.6643C201.321 22.7872 202.363 22.0918 203.511 21.618C204.658 21.1441 205.887 20.9011 207.129 20.9028H445.575C446.823 20.8926 448.061 21.1297 449.217 21.6004C450.374 22.0711 451.425 22.766 452.312 23.6452C453.198 24.5243 453.901 25.5703 454.381 26.7226C454.862 27.875 455.109 29.1111 455.109 30.3594V207.055C455.107 208.302 454.858 209.536 454.378 210.686C453.897 211.836 453.193 212.88 452.306 213.756C451.42 214.633 450.369 215.326 449.214 215.794C448.058 216.263 446.822 216.498 445.575 216.486Z" fill="#DED9FF"/>
<path d="M207.127 29.6916H446.73V208.122H207.127V29.6916Z" fill="#E5F1FF"/>
<path d="M402.787 159.168H411.37V189.285H402.787V159.168Z" fill="#F28C70"/>
<path d="M411.425 159.168V168.162C408.338 168.584 405.397 169.733 402.842 171.515V159.155L411.425 159.168Z" fill="#C66161"/>
<path d="M433.035 165.579H380.471C379.179 165.576 377.94 165.06 377.027 164.145C376.114 163.229 375.602 161.989 375.602 160.697V136.682C375.603 135.996 375.75 135.317 376.031 134.691C376.312 134.064 376.722 133.504 377.233 133.046C378.115 132.23 379.27 131.772 380.471 131.761H433.035C434.327 131.761 435.565 132.274 436.479 133.188C437.392 134.101 437.905 135.34 437.905 136.631V160.645C437.912 161.29 437.791 161.929 437.549 162.527C437.308 163.124 436.95 163.668 436.498 164.126C436.045 164.585 435.506 164.95 434.912 165.199C434.317 165.448 433.68 165.578 433.035 165.579Z" fill="url(#paint0_linear_635_2522)"/>
<path d="M380.816 138.263H432.674V161.108H380.816V138.263Z" fill="url(#paint1_linear_635_2522)"/>
<path d="M380.816 136.271H432.674V159.399H380.816V136.271Z" fill="url(#paint2_linear_635_2522)"/>
<path d="M275.354 57.9201H294.845V89.8492H275.354V57.9201ZM207.127 132.186H369.483V192.189H207.127V132.186Z" fill="white"/>
<path d="M376.318 133.2H207.139V111.242H359.948L373.183 128.986L376.318 133.2Z" fill="url(#paint3_linear_635_2522)"/>
<path d="M376.318 133.2H207.139V128.986H373.183L376.318 133.2Z" fill="url(#paint4_linear_635_2522)"/>
<path d="M304.013 93.9222V192.048H221.896V94.8473L242.3 71.5269C242.463 71.2915 242.68 71.0987 242.932 70.9645C243.185 70.8303 243.466 70.7588 243.752 70.756H282.941C283.229 70.7578 283.512 70.8288 283.767 70.963C284.022 71.0971 284.241 71.2905 284.405 71.5269L304.013 93.9222Z" fill="#F5F5F7"/>
<path d="M311.741 103.495C311.741 103.773 311.683 104.048 311.57 104.303C311.458 104.557 311.293 104.785 311.086 104.972C310.892 105.143 310.666 105.273 310.422 105.356C310.177 105.44 309.919 105.474 309.661 105.457C309.403 105.441 309.152 105.373 308.92 105.259C308.688 105.145 308.481 104.986 308.311 104.792L304.019 99.8969L281.573 74.1995H245.134L221.89 100.796L218.395 104.779C218.042 105.12 217.573 105.316 217.082 105.328C216.591 105.341 216.113 105.169 215.742 104.846C215.372 104.524 215.135 104.075 215.079 103.587C215.023 103.099 215.152 102.607 215.44 102.21L221.865 94.8473L242.294 71.5269C242.457 71.2915 242.673 71.0987 242.926 70.9645C243.179 70.8303 243.46 70.7588 243.746 70.756H282.935C283.223 70.7578 283.506 70.8288 283.761 70.963C284.016 71.0971 284.235 71.2905 284.399 71.5269L304.006 93.9222L311.253 102.197C311.567 102.556 311.74 103.017 311.741 103.495Z" fill="url(#paint5_linear_635_2522)"/>
<path d="M268.197 130.117H220.76V139.214H304.855V130.117H268.197Z" fill="url(#paint6_linear_635_2522)"/>
<path d="M270.473 176.886V192.048H257.02V176.886C256.98 175.978 257.125 175.072 257.445 174.221C257.765 173.37 258.254 172.593 258.883 171.937C259.511 171.28 260.266 170.758 261.102 170.401C261.938 170.044 262.837 169.86 263.746 169.86C264.655 169.86 265.555 170.044 266.391 170.401C267.227 170.758 267.981 171.28 268.61 171.937C269.239 172.593 269.728 173.37 270.048 174.221C270.368 175.072 270.512 175.978 270.473 176.886ZM272.156 54.3482H298.419V59.372H272.156V54.3482Z" fill="url(#paint7_linear_635_2522)"/>
<path d="M215.365 169.884H209.866C209.711 169.885 209.558 169.856 209.414 169.798C209.271 169.74 209.141 169.654 209.031 169.546C208.921 169.437 208.833 169.308 208.774 169.165C208.714 169.022 208.684 168.869 208.684 168.714V156.303C208.683 156.137 208.718 155.973 208.787 155.822C208.855 155.671 208.956 155.537 209.082 155.429C209.294 155.229 209.574 155.118 209.866 155.12H215.365C215.678 155.12 215.979 155.245 216.201 155.467C216.422 155.688 216.547 155.989 216.547 156.303V168.599C216.563 168.763 216.545 168.928 216.493 169.085C216.44 169.241 216.356 169.385 216.244 169.506C216.132 169.628 215.996 169.724 215.845 169.789C215.693 169.854 215.53 169.886 215.365 169.884ZM230.141 103.649H239.598V116.086H230.141V103.649ZM249.131 103.649H258.588V116.086H249.131V103.649ZM268.623 103.649H278.079V116.086H268.623V103.649ZM287.613 103.649H297.07V116.086H287.613V103.649ZM249.131 80.8678H258.588V93.3053H249.131V80.8678ZM268.7 80.8678H278.157V93.3053H268.7V80.8678Z" fill="url(#paint8_linear_635_2522)"/>
<path d="M238.286 116.754H231.386C231.133 116.756 230.881 116.707 230.647 116.611C230.412 116.515 230.199 116.373 230.02 116.194C229.84 116.014 229.699 115.801 229.602 115.567C229.506 115.332 229.457 115.081 229.459 114.827V104.869C229.459 104.358 229.662 103.868 230.024 103.506C230.385 103.145 230.875 102.942 231.386 102.942H238.286C238.797 102.942 239.287 103.145 239.649 103.506C240.01 103.868 240.213 104.358 240.213 104.869V114.827C240.215 115.081 240.166 115.332 240.07 115.567C239.974 115.801 239.832 116.014 239.653 116.194C239.473 116.373 239.26 116.515 239.026 116.611C238.791 116.707 238.54 116.756 238.286 116.754ZM231.386 103.739C231.086 103.739 230.799 103.858 230.587 104.07C230.375 104.282 230.256 104.569 230.256 104.869V114.827C230.254 114.977 230.282 115.125 230.338 115.264C230.394 115.402 230.477 115.529 230.582 115.635C230.687 115.741 230.813 115.826 230.951 115.883C231.089 115.941 231.237 115.971 231.386 115.971H238.286C238.436 115.971 238.584 115.941 238.722 115.883C238.86 115.826 238.985 115.741 239.09 115.635C239.195 115.529 239.278 115.402 239.334 115.264C239.39 115.125 239.418 114.977 239.417 114.827V104.869C239.417 104.569 239.298 104.282 239.086 104.07C238.874 103.858 238.586 103.739 238.286 103.739H231.386Z" fill="#CEDBEE"/>
<path d="M234.328 103.263H235.125V116.305H234.328V103.263Z" fill="#CEDBEE"/>
<path d="M229.793 109.636H239.674V110.433H229.793V109.636ZM257.341 116.754H250.441C250.187 116.756 249.936 116.707 249.701 116.611C249.467 116.515 249.254 116.373 249.074 116.194C248.895 116.014 248.753 115.801 248.657 115.567C248.561 115.332 248.512 115.081 248.514 114.827V104.869C248.514 104.358 248.717 103.868 249.078 103.506C249.439 103.145 249.93 102.942 250.441 102.942H257.341C257.852 102.942 258.342 103.145 258.703 103.506C259.065 103.868 259.268 104.358 259.268 104.869V114.827C259.27 115.081 259.221 115.332 259.125 115.567C259.028 115.801 258.887 116.014 258.707 116.194C258.528 116.373 258.315 116.515 258.08 116.611C257.846 116.707 257.594 116.756 257.341 116.754ZM250.441 103.739C250.141 103.739 249.853 103.858 249.641 104.07C249.429 104.282 249.31 104.569 249.31 104.869V114.827C249.308 114.977 249.336 115.125 249.393 115.264C249.449 115.402 249.532 115.529 249.637 115.635C249.742 115.741 249.867 115.826 250.005 115.883C250.143 115.941 250.291 115.971 250.441 115.971H257.341C257.49 115.971 257.638 115.941 257.776 115.883C257.914 115.826 258.04 115.741 258.145 115.635C258.25 115.529 258.333 115.402 258.389 115.264C258.445 115.125 258.473 114.977 258.471 114.827V104.869C258.471 104.569 258.352 104.282 258.14 104.07C257.928 103.858 257.64 103.739 257.341 103.739H250.441Z" fill="#CEDBEE"/>
<path d="M253.383 103.263H254.179V116.305H253.383V103.263Z" fill="#CEDBEE"/>
<path d="M248.844 109.636H258.724V110.433H248.844V109.636ZM276.828 116.754H269.928C269.675 116.756 269.424 116.707 269.189 116.611C268.954 116.515 268.741 116.373 268.562 116.194C268.383 116.014 268.241 115.801 268.144 115.567C268.048 115.332 267.999 115.081 268.001 114.827V104.869C268.001 104.358 268.204 103.868 268.566 103.506C268.927 103.145 269.417 102.942 269.928 102.942H276.828C277.339 102.942 277.83 103.145 278.191 103.506C278.552 103.868 278.756 104.358 278.756 104.869V114.827C278.757 115.081 278.709 115.332 278.612 115.567C278.516 115.801 278.374 116.014 278.195 116.194C278.016 116.373 277.802 116.515 277.568 116.611C277.333 116.707 277.082 116.756 276.828 116.754ZM269.928 103.739C269.629 103.739 269.341 103.858 269.129 104.07C268.917 104.282 268.798 104.569 268.798 104.869V114.827C268.796 114.977 268.824 115.125 268.88 115.264C268.936 115.402 269.019 115.529 269.124 115.635C269.23 115.741 269.355 115.826 269.493 115.883C269.631 115.941 269.779 115.971 269.928 115.971H276.828C276.978 115.971 277.126 115.941 277.264 115.883C277.402 115.826 277.527 115.741 277.632 115.635C277.737 115.529 277.821 115.402 277.877 115.264C277.933 115.125 277.961 114.977 277.959 114.827V104.869C277.959 104.569 277.84 104.282 277.628 104.07C277.416 103.858 277.128 103.739 276.828 103.739H269.928Z" fill="#CEDBEE"/>
<path d="M272.877 103.263H273.674V116.305H272.877V103.263Z" fill="#CEDBEE"/>
<path d="M268.352 109.636H278.233V110.433H268.352V109.636ZM257.341 93.9223H250.441C249.93 93.9223 249.44 93.7193 249.078 93.3578C248.717 92.9964 248.514 92.5062 248.514 91.995V82.0373C248.514 81.5261 248.717 81.0359 249.078 80.6745C249.44 80.313 249.93 80.11 250.441 80.11H257.341C257.852 80.11 258.342 80.313 258.704 80.6745C259.065 81.0359 259.268 81.5261 259.268 82.0373V91.995C259.268 92.5062 259.065 92.9964 258.704 93.3578C258.342 93.7193 257.852 93.9223 257.341 93.9223ZM250.441 80.9066C250.143 80.9066 249.858 81.0239 249.646 81.2332C249.434 81.4425 249.314 81.7268 249.31 82.0244V91.995C249.31 92.1429 249.34 92.2893 249.397 92.4258C249.454 92.5622 249.537 92.6861 249.642 92.79C249.747 92.894 249.872 92.9761 250.009 93.0315C250.146 93.0869 250.293 93.1145 250.441 93.1129H257.341C257.638 93.1129 257.924 92.9955 258.136 92.7862C258.347 92.577 258.468 92.2927 258.471 91.995V82.0244C258.471 81.8765 258.442 81.7301 258.385 81.5936C258.328 81.4572 258.245 81.3334 258.139 81.2294C258.034 81.1254 257.91 81.0434 257.772 80.988C257.635 80.9325 257.489 80.9049 257.341 80.9066H250.441Z" fill="#CEDBEE"/>
<path d="M253.383 80.4309H254.179V93.4724H253.383V80.4309Z" fill="#CEDBEE"/>
<path d="M248.844 86.7913H258.724V87.5879H248.844V86.7913ZM276.828 93.9223H269.928C269.417 93.9223 268.927 93.7193 268.566 93.3578C268.204 92.9964 268.001 92.5062 268.001 91.995V82.0373C268.001 81.5261 268.204 81.0359 268.566 80.6745C268.927 80.313 269.417 80.11 269.928 80.11H276.828C277.339 80.11 277.83 80.313 278.191 80.6745C278.552 81.0359 278.756 81.5261 278.756 82.0373V91.995C278.756 92.5062 278.552 92.9964 278.191 93.3578C277.83 93.7193 277.339 93.9223 276.828 93.9223ZM269.928 80.9066C269.631 80.9066 269.345 81.0239 269.133 81.2332C268.922 81.4425 268.801 81.7268 268.798 82.0244V91.995C268.798 92.1429 268.827 92.2893 268.884 92.4258C268.941 92.5622 269.025 92.6861 269.13 92.79C269.235 92.894 269.36 92.9761 269.497 93.0315C269.634 93.0869 269.781 93.1145 269.928 93.1129H276.828C277.126 93.1129 277.412 92.9955 277.623 92.7862C277.835 92.577 277.956 92.2927 277.959 91.995V82.0244C277.959 81.8765 277.93 81.7301 277.873 81.5936C277.816 81.4572 277.732 81.3334 277.627 81.2294C277.522 81.1254 277.397 81.0434 277.26 80.988C277.123 80.9325 276.976 80.9049 276.828 80.9066H269.928Z" fill="#CEDBEE"/>
<path d="M272.877 80.4309H273.674V93.4724H272.877V80.4309Z" fill="#CEDBEE"/>
<path d="M268.354 86.7911H278.234V87.5877H268.354V86.7911ZM296.261 116.754H289.361C289.108 116.756 288.856 116.707 288.622 116.611C288.387 116.515 288.174 116.373 287.995 116.194C287.815 116.014 287.673 115.801 287.577 115.567C287.481 115.332 287.432 115.081 287.434 114.827V104.869C287.432 104.616 287.481 104.364 287.577 104.13C287.673 103.895 287.815 103.682 287.995 103.503C288.174 103.323 288.387 103.181 288.622 103.085C288.856 102.989 289.108 102.94 289.361 102.942H296.248C296.502 102.94 296.753 102.989 296.988 103.085C297.222 103.181 297.435 103.323 297.615 103.503C297.794 103.682 297.936 103.895 298.032 104.13C298.128 104.364 298.177 104.616 298.175 104.869V114.827C298.177 115.079 298.129 115.33 298.033 115.564C297.938 115.797 297.797 116.01 297.619 116.189C297.441 116.368 297.23 116.51 296.997 116.607C296.763 116.704 296.513 116.754 296.261 116.754ZM289.361 103.739C289.061 103.739 288.774 103.858 288.562 104.07C288.35 104.282 288.23 104.569 288.23 104.869V114.827C288.229 114.977 288.257 115.125 288.313 115.264C288.369 115.402 288.452 115.528 288.557 115.635C288.662 115.741 288.787 115.826 288.925 115.883C289.063 115.941 289.212 115.971 289.361 115.97H296.261C296.41 115.971 296.559 115.941 296.697 115.883C296.835 115.826 296.96 115.741 297.065 115.635C297.17 115.528 297.253 115.402 297.309 115.264C297.365 115.125 297.393 114.977 297.392 114.827V104.869C297.392 104.569 297.272 104.282 297.06 104.07C296.848 103.858 296.561 103.739 296.261 103.739H289.361Z" fill="#CEDBEE"/>
<path d="M292.305 103.263H293.101V116.305H292.305V103.263Z" fill="#CEDBEE"/>
<path d="M287.768 109.636H297.648V110.433H287.768V109.636Z" fill="#CEDBEE"/>
<path d="M230.078 153.386H239.612V165.746H230.078V153.386ZM249.133 153.386H258.667V165.746H249.133V153.386ZM268.624 153.386H278.158V165.746H268.624V153.386ZM288.052 153.386H297.585V165.746H288.052V153.386Z" fill="url(#paint9_linear_635_2522)"/>
<path d="M238.286 166.53H231.386C230.875 166.53 230.385 166.327 230.024 165.966C229.662 165.604 229.459 165.114 229.459 164.603V154.645C229.457 154.391 229.506 154.14 229.602 153.905C229.699 153.671 229.84 153.458 230.02 153.278C230.199 153.099 230.412 152.957 230.647 152.861C230.881 152.765 231.133 152.716 231.386 152.718H238.286C238.54 152.716 238.791 152.765 239.026 152.861C239.26 152.957 239.473 153.099 239.653 153.278C239.832 153.458 239.974 153.671 240.07 153.905C240.166 154.14 240.215 154.391 240.213 154.645V164.603C240.21 165.113 240.006 165.601 239.645 165.962C239.284 166.323 238.796 166.527 238.286 166.53ZM231.386 153.501C231.086 153.501 230.799 153.621 230.587 153.833C230.375 154.045 230.256 154.332 230.256 154.632V164.59C230.256 164.89 230.375 165.177 230.587 165.389C230.799 165.601 231.086 165.721 231.386 165.721H238.286C238.586 165.721 238.874 165.601 239.086 165.389C239.298 165.177 239.417 164.89 239.417 164.59V154.632C239.417 154.332 239.298 154.045 239.086 153.833C238.874 153.621 238.586 153.501 238.286 153.501H231.386Z" fill="#CEDBEE"/>
<path d="M234.328 153.013H235.125V166.055H234.328V153.013Z" fill="#CEDBEE"/>
<path d="M229.793 159.399H239.674V160.196H229.793V159.399ZM257.341 166.53H250.441C249.93 166.53 249.439 166.327 249.078 165.966C248.717 165.604 248.514 165.114 248.514 164.603V154.645C248.512 154.391 248.561 154.14 248.657 153.905C248.753 153.671 248.895 153.458 249.074 153.278C249.254 153.099 249.467 152.957 249.701 152.861C249.936 152.765 250.187 152.716 250.441 152.718H257.341C257.594 152.716 257.846 152.765 258.08 152.861C258.315 152.957 258.528 153.099 258.707 153.278C258.887 153.458 259.028 153.671 259.125 153.905C259.221 154.14 259.27 154.391 259.268 154.645V164.603C259.268 165.114 259.065 165.604 258.703 165.966C258.342 166.327 257.852 166.53 257.341 166.53ZM250.441 153.501C250.141 153.501 249.853 153.621 249.641 153.833C249.429 154.045 249.31 154.332 249.31 154.632V164.59C249.31 164.89 249.429 165.177 249.641 165.389C249.853 165.601 250.141 165.721 250.441 165.721H257.341C257.64 165.721 257.928 165.601 258.14 165.389C258.352 165.177 258.471 164.89 258.471 164.59V154.632C258.471 154.332 258.352 154.045 258.14 153.833C257.928 153.621 257.64 153.501 257.341 153.501H250.441Z" fill="#CEDBEE"/>
<path d="M253.383 153.013H254.179V166.055H253.383V153.013Z" fill="#CEDBEE"/>
<path d="M248.844 159.399H258.724V160.196H248.844V159.399ZM276.828 166.53H269.928C269.417 166.53 268.927 166.327 268.566 165.966C268.204 165.604 268.001 165.114 268.001 164.603V154.645C267.999 154.391 268.048 154.14 268.144 153.905C268.241 153.671 268.383 153.458 268.562 153.278C268.741 153.099 268.954 152.957 269.189 152.861C269.424 152.765 269.675 152.716 269.928 152.718H276.828C277.082 152.716 277.333 152.765 277.568 152.861C277.802 152.957 278.016 153.099 278.195 153.278C278.374 153.458 278.516 153.671 278.612 153.905C278.709 154.14 278.757 154.391 278.756 154.645V164.603C278.756 165.114 278.552 165.604 278.191 165.966C277.83 166.327 277.339 166.53 276.828 166.53ZM269.928 153.501C269.629 153.501 269.341 153.621 269.129 153.833C268.917 154.045 268.798 154.332 268.798 154.632V164.59C268.798 164.89 268.917 165.177 269.129 165.389C269.341 165.601 269.629 165.721 269.928 165.721H276.828C277.128 165.721 277.416 165.601 277.628 165.389C277.84 165.177 277.959 164.89 277.959 164.59V154.632C277.959 154.332 277.84 154.045 277.628 153.833C277.416 153.621 277.128 153.501 276.828 153.501H269.928Z" fill="#CEDBEE"/>
<path d="M272.877 153.013H273.674V166.055H272.877V153.013Z" fill="#CEDBEE"/>
<path d="M268.354 159.399H278.234V160.196H268.354V159.399ZM296.261 166.53H289.361C289.108 166.532 288.856 166.483 288.622 166.387C288.387 166.291 288.174 166.149 287.995 165.969C287.815 165.79 287.673 165.577 287.577 165.342C287.481 165.108 287.432 164.856 287.434 164.603V154.645C287.432 154.391 287.481 154.14 287.577 153.905C287.673 153.671 287.815 153.458 287.995 153.278C288.174 153.099 288.387 152.957 288.622 152.861C288.856 152.765 289.108 152.716 289.361 152.718H296.248C296.502 152.716 296.753 152.765 296.988 152.861C297.222 152.957 297.435 153.099 297.615 153.278C297.794 153.458 297.936 153.671 298.032 153.905C298.128 154.14 298.177 154.391 298.175 154.645V164.603C298.172 165.111 297.97 165.597 297.612 165.957C297.254 166.318 296.769 166.523 296.261 166.53ZM289.361 153.501C289.061 153.501 288.774 153.621 288.562 153.833C288.35 154.045 288.23 154.332 288.23 154.632V164.59C288.23 164.89 288.35 165.177 288.562 165.389C288.774 165.601 289.061 165.721 289.361 165.721H296.261C296.561 165.721 296.848 165.601 297.06 165.389C297.272 165.177 297.392 164.89 297.392 164.59V154.632C297.392 154.332 297.272 154.045 297.06 153.833C296.848 153.621 296.561 153.501 296.261 153.501H289.361Z" fill="#CEDBEE"/>
<path d="M292.305 153.013H293.101V166.055H292.305V153.013Z" fill="#CEDBEE"/>
<path d="M287.769 159.399H297.65V160.196H287.769V159.399ZM305.295 132.866H220.339L211.666 146.769H313.942L305.295 132.866Z" fill="url(#paint10_linear_635_2522)"/>
<path d="M381.873 182.732C380.896 184.158 378.892 184.325 377.17 184.338C370.313 184.52 363.451 184.34 356.612 183.799L354.171 183.529L353.94 183.233C352.758 181.512 351.781 179.25 352.745 177.387C352.967 176.967 353.278 176.599 353.654 176.309C354.031 176.018 354.466 175.812 354.929 175.704C355.156 175.649 355.389 175.619 355.623 175.614C356.214 175.612 356.796 175.767 357.308 176.063C357.82 176.359 358.245 176.784 358.54 177.297C358.01 175.901 357.965 174.367 358.411 172.941C358.649 172.239 359.095 171.624 359.689 171.179C360.283 170.734 360.997 170.48 361.739 170.449C362.44 170.484 363.115 170.725 363.679 171.143C364.266 171.562 364.75 172.109 365.093 172.744C365.436 173.379 365.629 174.084 365.658 174.805C365.847 173.934 366.168 173.098 366.609 172.325C366.831 171.937 367.136 171.603 367.503 171.348C367.869 171.092 368.288 170.921 368.729 170.847C369.38 170.833 370.02 171.025 370.556 171.397C371.091 171.768 371.495 172.3 371.71 172.916C372.112 174.158 372.239 175.474 372.082 176.77C372.489 175.99 373.038 175.293 373.701 174.715C374.035 174.426 374.437 174.229 374.869 174.141C375.301 174.054 375.748 174.078 376.168 174.213C376.522 174.38 376.833 174.625 377.078 174.93C377.323 175.235 377.495 175.592 377.581 175.974C377.751 176.737 377.799 177.522 377.723 178.299C377.989 177.886 378.392 177.578 378.861 177.43C379.331 177.282 379.837 177.304 380.292 177.49C380.737 177.676 381.129 177.967 381.436 178.338C381.752 178.721 382 179.155 382.168 179.623C382.348 180.131 382.414 180.673 382.363 181.21C382.312 181.747 382.145 182.266 381.873 182.732Z" fill="url(#paint11_linear_635_2522)"/>
<path opacity="0.72" d="M381.873 182.733C380.896 184.159 378.892 184.326 377.17 184.339C370.313 184.52 363.451 184.34 356.612 183.799C355.636 183.606 354.749 183.413 353.94 183.234C352.758 181.512 351.781 179.25 352.745 177.387C352.967 176.967 353.278 176.599 353.654 176.309C354.031 176.019 354.466 175.812 354.929 175.704C354.929 176.989 355.739 179.096 361.353 179.713C368.626 180.497 379.817 182.9 381.449 178.351C381.765 178.734 382.013 179.169 382.181 179.636C382.365 180.142 382.433 180.683 382.379 181.219C382.326 181.755 382.153 182.272 381.873 182.733Z" fill="#05B6A1"/>
<path d="M436.669 182.295C436.58 182.558 436.43 182.795 436.232 182.989C435.953 183.208 435.62 183.35 435.269 183.4C433.742 183.71 432.197 183.916 430.643 184.017C416.664 185.302 402.376 186.484 388.679 183.747L388.435 183.567C387.967 182.605 387.853 181.509 388.114 180.471C388.219 180.097 388.4 179.749 388.645 179.449C388.89 179.148 389.195 178.901 389.54 178.724C389.795 178.593 390.076 178.518 390.362 178.505C391.274 178.552 392.149 178.88 392.868 179.443C392.65 178.845 392.558 178.207 392.599 177.572C392.64 176.936 392.811 176.316 393.103 175.75C393.396 175.184 393.802 174.684 394.297 174.283C394.791 173.882 395.364 173.587 395.978 173.418C396.592 173.249 397.234 173.209 397.865 173.3C398.495 173.392 399.1 173.613 399.64 173.95C400.181 174.286 400.646 174.731 401.006 175.257C401.367 175.782 401.614 176.376 401.733 177.002C401.503 176.078 401.412 175.126 401.464 174.175C401.499 173.702 401.644 173.243 401.887 172.835C402.13 172.427 402.465 172.081 402.864 171.824C403.429 171.564 404.061 171.485 404.673 171.598C405.284 171.71 405.846 172.009 406.282 172.453C407.135 173.323 407.765 174.385 408.119 175.55C408.015 174.186 408.378 172.827 409.147 171.695C409.538 171.141 410.068 170.699 410.684 170.415C411.299 170.13 411.979 170.014 412.655 170.076C413.197 170.171 413.716 170.374 414.179 170.672C414.642 170.969 415.041 171.357 415.353 171.811C415.98 172.713 416.445 173.717 416.728 174.779C416.945 173.262 417.441 171.798 418.193 170.462C418.535 169.756 419.095 169.18 419.79 168.818C420.486 168.455 421.279 168.327 422.053 168.451C422.827 168.575 423.541 168.945 424.088 169.506C424.636 170.067 424.988 170.79 425.092 171.567C425.382 173.073 425.382 174.621 425.092 176.128C425.357 175.427 425.8 174.807 426.377 174.329C426.932 174.034 427.575 173.952 428.186 174.099C428.797 174.245 429.333 174.611 429.692 175.126C430.027 175.658 430.227 176.264 430.274 176.891C430.321 177.518 430.214 178.147 429.962 178.724C430.521 177.986 431.321 177.468 432.222 177.259C433.124 177.05 434.07 177.164 434.896 177.58C435.237 177.763 435.546 178.002 435.808 178.287C436.302 178.814 436.642 179.466 436.794 180.172C436.946 180.878 436.903 181.612 436.669 182.295ZM231.295 181.949C231.254 182.088 231.174 182.213 231.064 182.308C230.92 182.424 230.747 182.5 230.563 182.527C229.767 182.691 228.959 182.799 228.147 182.848C221.145 183.465 214.014 184.133 207.127 182.848V179.918C207.594 179.952 208.041 180.122 208.412 180.407C208.31 180.096 208.271 179.768 208.3 179.442C208.328 179.116 208.422 178.799 208.577 178.511C208.731 178.223 208.943 177.969 209.198 177.765C209.454 177.56 209.748 177.41 210.063 177.323C210.378 177.236 210.708 177.214 211.032 177.258C211.356 177.302 211.668 177.412 211.948 177.58C212.229 177.748 212.472 177.971 212.664 178.236C212.856 178.501 212.991 178.803 213.063 179.122C212.94 178.64 212.892 178.141 212.922 177.644C212.933 177.387 213.005 177.137 213.133 176.913C213.26 176.69 213.439 176.5 213.654 176.359C213.944 176.227 214.268 176.186 214.582 176.241C214.896 176.296 215.186 176.445 215.414 176.668C215.862 177.121 216.193 177.677 216.378 178.287C216.319 177.576 216.51 176.867 216.918 176.282C217.129 176.022 217.402 175.818 217.711 175.688C218.02 175.558 218.357 175.506 218.691 175.537C219.264 175.643 219.772 175.971 220.104 176.449C220.431 176.923 220.674 177.448 220.824 178.004C220.928 177.207 221.19 176.438 221.595 175.743C221.776 175.377 222.07 175.078 222.433 174.891C222.796 174.704 223.209 174.638 223.613 174.702C224.016 174.767 224.388 174.959 224.675 175.25C224.961 175.541 225.147 175.916 225.205 176.321C225.353 177.111 225.353 177.921 225.205 178.711C225.353 178.341 225.597 178.017 225.912 177.773C226.199 177.605 226.541 177.555 226.865 177.634C227.188 177.713 227.469 177.915 227.646 178.197C227.824 178.476 227.93 178.794 227.954 179.123C227.979 179.453 227.922 179.783 227.788 180.086C228.079 179.701 228.495 179.431 228.964 179.32C229.433 179.21 229.926 179.267 230.357 179.482C230.537 179.576 230.698 179.703 230.833 179.854C231.094 180.128 231.275 180.468 231.357 180.837C231.438 181.206 231.417 181.591 231.295 181.949Z" fill="url(#paint12_linear_635_2522)"/>
<g opacity="0.78">
<path d="M231.295 181.948C231.254 182.088 231.174 182.213 231.064 182.308C230.92 182.424 230.747 182.5 230.563 182.527C229.767 182.691 228.959 182.799 228.147 182.848C221.145 183.465 214.014 184.133 207.127 182.848V180.419C208.091 180.831 210.365 181.062 215.44 180.638C226.683 179.687 230.383 182.604 230.859 179.841C231.116 180.119 231.293 180.463 231.37 180.834C231.447 181.205 231.421 181.591 231.295 181.948Z" fill="#3E9A83"/>
</g>
<path d="M367.068 29.6916H446.718V114.146H367.068V29.6916Z" fill="#F5F5F7"/>
<path d="M407.926 29.7044L402.787 38.403L401.27 40.9984L367.08 98.9718V93.1128L398.624 39.5979L400.14 37.0282L404.47 29.7044H407.926Z" fill="#E1E6EB"/>
<path d="M446.715 61.1966V64.563L419.938 50.6735L417.279 49.2987L401.269 40.9984L398.622 39.5979L379.529 29.7044H386.005L400.139 37.0282L402.785 38.403L446.715 61.1966Z" fill="#E1E6EB"/>
<path d="M420.535 49.7094L419.944 50.6731L404.924 75.4454L403.356 77.9894L381.436 114.159H377.941L417.284 49.2983L417.978 48.1547L420.535 49.7094Z" fill="#E1E6EB"/>
<path d="M446.722 96.4019V99.7169L403.358 77.9897L402.51 77.5786L403.846 74.906L404.925 75.4457L446.722 96.4019Z" fill="#E1E6EB"/>
<path d="M370.127 59.4488V73.5181C370.129 73.9945 370.285 74.4573 370.573 74.837C370.861 75.2166 371.264 75.4925 371.722 75.623C372.18 75.7535 372.669 75.7315 373.113 75.5604C373.558 75.3894 373.935 75.0784 374.187 74.6745L381.755 62.2369C381.94 61.9393 382.051 61.6011 382.077 61.2514C382.103 60.9017 382.045 60.5509 381.906 60.2289C381.767 59.9069 381.552 59.6233 381.28 59.4024C381.007 59.1816 380.685 59.0299 380.342 58.9605L372.761 57.3801C372.448 57.3119 372.124 57.3135 371.812 57.3851C371.501 57.4566 371.208 57.5962 370.957 57.7939C370.705 57.9915 370.5 58.2424 370.357 58.5285C370.213 58.8146 370.135 59.1288 370.127 59.4488Z" fill="#92C4FF"/>
<path d="M370.411 33.1607L370.694 50.6478C370.701 51.143 370.876 51.6211 371.188 52.0056C371.5 52.39 371.932 52.6585 372.415 52.7678L383.324 55.132C383.763 55.2268 384.221 55.1839 384.634 55.0092C385.048 54.8344 385.398 54.5363 385.637 54.1555L392.613 43.0542C392.778 42.7938 392.886 42.5016 392.929 42.1967C392.973 41.8918 392.951 41.5811 392.867 41.285C392.782 40.989 392.635 40.7142 392.436 40.4788C392.238 40.2434 391.992 40.0527 391.714 39.9191L373.546 31.1177C373.216 30.959 372.851 30.8852 372.486 30.9032C372.12 30.9211 371.764 31.0302 371.452 31.2205C371.118 31.4187 370.845 31.7041 370.662 32.0459C370.478 32.3878 370.391 32.7732 370.411 33.1607Z" fill="#E4E9FF"/>
<path d="M424.276 33.1087H441.043C441.623 33.1087 442.178 33.3389 442.588 33.7485C442.997 34.1581 443.228 34.7137 443.228 35.293V52.96C443.229 53.334 443.133 53.702 442.951 54.0287C442.769 54.3554 442.507 54.6299 442.188 54.8259C441.87 55.0219 441.506 55.1328 441.132 55.1481C440.759 55.1633 440.387 55.0824 440.054 54.913L421.526 45.5077C421.238 45.3496 420.99 45.129 420.799 44.8622C420.607 44.5954 420.478 44.2891 420.421 43.9659C420.37 43.6855 420.37 43.3982 420.421 43.1179L422.181 34.8562C422.274 34.3672 422.533 33.9256 422.915 33.6069C423.297 33.2881 423.778 33.112 424.276 33.1087Z" fill="#E4E9FF"/>
<path d="M375.444 95.5024L380.417 98.6375C380.66 98.791 380.932 98.8949 381.216 98.9431C381.5 98.9913 381.79 98.983 382.071 98.9185C382.351 98.854 382.616 98.7347 382.851 98.5674C383.085 98.4001 383.284 98.1881 383.436 97.9436L391.325 85.3005C391.482 85.0498 391.586 84.7701 391.632 84.4781C391.678 84.1861 391.665 83.8878 391.593 83.6011C391.521 83.3144 391.392 83.0451 391.214 82.8095C391.035 82.5738 390.811 82.3766 390.554 82.2297L385.286 79.2359C384.79 78.9561 384.204 78.8801 383.653 79.0239C383.102 79.1678 382.628 79.5202 382.331 80.0068L374.738 92.4958C374.439 92.99 374.346 93.5812 374.479 94.143C374.611 94.7048 374.957 95.1927 375.444 95.5024Z" fill="#E4E9FF"/>
<path d="M388.296 73.518L394.913 77.5268C395.399 77.822 395.981 77.916 396.535 77.7888C397.089 77.6617 397.572 77.3234 397.881 76.8458L404.562 66.4641C404.723 66.2143 404.832 65.9341 404.881 65.6409C404.93 65.3477 404.919 65.0476 404.848 64.7589C404.777 64.4702 404.647 64.199 404.468 63.962C404.289 63.725 404.063 63.5271 403.804 63.3804L396.879 59.5258C396.388 59.2463 395.807 59.168 395.26 59.3074C394.721 59.4464 394.259 59.7928 393.975 60.271L387.551 70.55C387.268 71.0453 387.187 71.6307 387.326 72.1839C387.465 72.737 387.813 73.2151 388.296 73.518Z" fill="#92C4FF"/>
<path d="M393.871 109.944L438.571 110.009C439.153 110.009 439.711 109.779 440.125 109.37C440.539 108.962 440.775 108.406 440.781 107.824V102.518C440.775 102.101 440.65 101.694 440.423 101.344C440.196 100.994 439.875 100.715 439.497 100.539L407.182 85.3777C406.693 85.1474 406.136 85.1066 405.619 85.2632C405.101 85.4199 404.66 85.7628 404.381 86.2257L391.995 106.604C391.792 106.937 391.681 107.318 391.674 107.708C391.667 108.098 391.764 108.483 391.955 108.823C392.146 109.163 392.424 109.446 392.761 109.643C393.098 109.84 393.481 109.944 393.871 109.944Z" fill="#E4E9FF"/>
<path d="M419.519 74.5848L438.189 84.0415C438.514 84.2074 438.877 84.2889 439.242 84.2786C439.607 84.2682 439.964 84.1663 440.28 83.9822C440.596 83.7981 440.861 83.5376 441.05 83.2247C441.239 82.9118 441.346 82.5565 441.362 82.1913L442.005 69.2526C442.02 68.8192 441.906 68.391 441.677 68.0226C441.448 67.6542 441.115 67.3623 440.72 67.184L425.558 59.706C425.11 59.495 424.604 59.4363 424.119 59.539C423.761 59.6197 423.428 59.789 423.152 60.0314C422.876 60.2739 422.665 60.5816 422.539 60.9266L418.466 71.8737C418.275 72.3759 418.277 72.931 418.472 73.4317C418.666 73.9325 419.04 74.3433 419.519 74.5848Z" fill="#8EFCA6"/>
<path d="M425.426 49.6197C425.426 59.3847 415.674 69.8564 415.674 69.8564C415.674 69.8564 405.922 59.7316 405.922 49.6197C405.922 47.0332 406.949 44.5527 408.778 42.7238C410.607 40.895 413.088 39.8675 415.674 39.8675C418.26 39.8675 420.741 40.895 422.57 42.7238C424.399 44.5527 425.426 47.0332 425.426 49.6197Z" fill="url(#paint13_linear_635_2522)"/>
<path d="M415.96 54.502C418.493 54.502 420.547 52.4484 420.547 49.915C420.547 47.3817 418.493 45.3281 415.96 45.3281C413.427 45.3281 411.373 47.3817 411.373 49.915C411.373 52.4484 413.427 54.502 415.96 54.502Z" fill="white"/>
<g opacity="0.78">
<path d="M433.325 182.295C433.236 182.558 433.086 182.795 432.888 182.989C432.608 183.208 432.276 183.35 431.924 183.4C430.398 183.71 428.853 183.916 427.299 184.017C413.319 185.302 399.032 186.484 385.335 183.747L385.091 183.567C384.623 182.605 384.509 181.509 384.77 180.471C384.875 180.097 385.056 179.749 385.301 179.449C385.546 179.148 385.851 178.901 386.196 178.723C387.082 179.841 390.834 180.831 403.041 179.803C424.524 177.991 431.59 183.554 432.49 178.286C432.981 178.815 433.319 179.468 433.466 180.174C433.613 180.881 433.565 181.614 433.325 182.295Z" fill="#1B8B5C"/>
</g>
<path d="M207.127 182.012H446.73V208.121H207.127V182.012Z" fill="#61BCFF"/>
<path d="M446.726 114.763H366.448V29.64C366.468 29.4998 366.539 29.3718 366.646 29.2793C366.753 29.1867 366.89 29.1358 367.032 29.1358C367.174 29.1358 367.311 29.1867 367.418 29.2793C367.525 29.3718 367.596 29.4998 367.617 29.64V113.606H446.688C446.842 113.606 446.991 113.667 447.101 113.775C447.212 113.883 447.275 114.03 447.279 114.184C447.276 114.333 447.217 114.474 447.115 114.581C447.013 114.688 446.874 114.753 446.726 114.763ZM221.951 130.644C221.795 130.64 221.647 130.577 221.537 130.467C221.427 130.357 221.363 130.208 221.36 130.053V100.128C221.347 100.044 221.353 99.9582 221.377 99.8766C221.401 99.795 221.441 99.7194 221.497 99.6551C221.552 99.5907 221.621 99.5391 221.698 99.5037C221.776 99.4683 221.86 99.45 221.945 99.45C222.03 99.45 222.113 99.4683 222.191 99.5037C222.268 99.5391 222.337 99.5907 222.392 99.6551C222.448 99.7194 222.489 99.795 222.512 99.8766C222.536 99.9582 222.542 100.044 222.529 100.128V130.053C222.529 130.207 222.469 130.356 222.361 130.466C222.253 130.577 222.105 130.64 221.951 130.644ZM304.003 183.452C303.848 183.448 303.701 183.385 303.593 183.274C303.485 183.164 303.425 183.015 303.425 182.861V147.36L221.951 147.81C221.796 147.81 221.648 147.749 221.538 147.641C221.427 147.533 221.363 147.386 221.36 147.231C221.36 147.155 221.375 147.08 221.404 147.01C221.433 146.94 221.476 146.876 221.529 146.822C221.583 146.769 221.647 146.726 221.717 146.697C221.787 146.668 221.862 146.653 221.938 146.653L304.581 146.191V182.861C304.581 183.015 304.521 183.164 304.412 183.274C304.304 183.385 304.157 183.448 304.003 183.452Z" fill="#DED9FF"/>
<path d="M387.201 131.607H424.578V132.763H387.201V131.607ZM437.337 141.565H438.493V158.127H437.337V141.565Z" fill="url(#paint14_linear_635_2522)"/>
<path d="M118.569 150.186C117.752 164.473 112.732 185.39 108.425 201.008C105.087 213.229 102.204 222.217 102.204 222.217C102.204 222.217 98.9356 218.073 95.0487 212.307C88.9206 203.202 81.2518 190.048 82.5124 182.764C82.9676 180.138 84.8469 176.332 87.4149 172.002C88.1502 170.835 88.9439 169.527 89.7494 168.232C95.142 159.944 102.426 150.513 107.83 143.719C109.85 141.192 111.896 138.686 113.97 136.202L115.254 134.673C116.46 135.596 117.31 136.907 117.658 138.385C118.205 140.324 118.507 142.324 118.557 144.338C118.667 146.286 118.671 148.238 118.569 150.186Z" fill="url(#paint15_linear_635_2522)"/>
<g opacity="0.78">
<path d="M108.382 201.008C105.043 213.229 102.16 222.217 102.16 222.217C102.16 222.217 98.892 218.073 95.005 212.307C95.8688 205.619 91.0831 189.277 91.0831 189.277L84.9434 184.188L90.231 185.18L87.3829 172.002C88.1183 170.835 88.912 169.528 89.7174 168.22C93.9895 175.516 102.872 190.853 108.382 201.008Z" fill="url(#paint16_linear_635_2522)"/>
</g>
<path d="M188.665 151.365L148.488 152.357L147.566 151.085L111.941 149.917C111.886 148.029 111.929 146.14 112.07 144.256C112.174 142.685 112.397 141.125 112.735 139.587C113.225 137.416 114.007 135.514 115.245 134.626C117.824 132.794 127.676 129.117 134.107 126.806L134.738 126.584C136.605 125.93 138.134 125.417 139.022 125.078L139.862 124.786L143.072 125.522C145.523 128.907 148.768 133.109 149.714 133.109C150.659 133.109 152.748 129.28 154.383 126.105L156.6 126.327C157.861 126.456 159.472 126.631 161.269 126.853L162.507 127.004L165.658 127.401C167.736 127.681 169.895 127.985 171.938 128.323C174.967 128.737 177.955 129.413 180.867 130.343C186.879 132.735 188.665 151.365 188.665 151.365Z" fill="url(#paint17_linear_635_2522)"/>
<g opacity="0.78">
<path d="M183.415 145.517L159.954 145.19C159.45 144.685 159 144.13 158.611 143.532C155.109 144.571 150.44 138.385 150.44 138.385C150.44 138.385 148.106 143.999 142.912 143.404C142.137 143.279 141.422 142.911 140.869 142.353C136.76 142.739 124.528 143.871 118.598 144.396C116.765 144.571 115.516 144.653 115.283 144.653C115.049 144.653 113.672 144.513 112.073 144.314L107.812 143.754C108.828 142.482 109.773 141.315 110.637 140.252L112.738 139.657L114.291 139.225L115.271 134.72C115.392 135.471 115.669 136.19 116.083 136.829C116.497 137.468 117.039 138.013 117.676 138.431C118.485 138.961 119.395 139.319 120.349 139.482C124.551 140.299 136.188 139.832 138.838 139.704C136.282 135.385 134.531 128.557 134.169 126.864L134.799 126.631C136.667 125.977 138.196 125.463 139.083 125.125L142.807 131.673L153.183 135.175C153.183 135.175 155.378 129.619 156.685 126.362C157.946 126.491 159.557 126.677 161.354 126.887L162.592 127.039C162.561 131.246 162.1 135.439 161.214 139.552C163.329 139.303 165.462 139.241 167.587 139.365C167.948 139.382 168.308 139.306 168.631 139.145C168.955 138.984 169.232 138.743 169.437 138.445C169.641 138.147 169.766 137.802 169.8 137.442C169.834 137.082 169.775 136.72 169.63 136.389L165.731 127.448C167.809 127.728 169.969 128.031 172.011 128.37C174.497 129.374 177.159 130.506 179.19 131.533C184.279 134.229 183.415 145.517 183.415 145.517Z" fill="url(#paint18_linear_635_2522)"/>
</g>
<path d="M157.904 140.369C154.204 141.537 149.943 134.848 149.943 134.848C149.943 134.848 147.072 141.49 142.94 141.023C138.271 140.498 135.294 128.965 134.769 126.654L134.676 126.257C134.676 126.257 137.384 122.289 140.162 121.437C140.162 121.437 141.457 123.339 143.103 125.615C145.555 129 148.799 133.202 149.745 133.202C150.69 133.202 152.78 129.374 154.414 126.199C155.581 123.923 156.433 121.985 156.433 121.985C157.554 122.321 158.579 122.92 159.422 123.732C160.264 124.544 160.901 125.546 161.277 126.654V126.946C161.499 128.837 161.289 139.284 157.904 140.369Z" fill="url(#paint19_linear_635_2522)"/>
<path d="M133.646 105.819C133.646 105.819 127.156 110.021 125.346 101.628C125.346 101.628 120.035 103.834 117.934 98.4651C115.833 93.0957 122.02 90.6679 122.02 90.6679C122.02 90.6679 114.152 86.6408 117.351 80.6295C120.549 74.6182 125.218 77.9215 125.218 77.9215C124.428 77.1404 123.807 76.2043 123.396 75.1718C122.985 74.1394 122.792 73.0331 122.83 71.9226C122.867 70.812 123.134 69.7211 123.613 68.7186C124.092 67.7161 124.774 66.8236 125.615 66.0973C131.755 59.9575 135.922 64.7783 135.922 64.7783C135.922 64.7783 134.136 56.2574 141.408 55.9889C148.68 55.7204 148.283 61.8251 148.283 61.8251C148.283 61.8251 153.372 54.2263 160.702 57.2612C168.033 60.296 165.371 66.319 165.371 66.319C166.799 65.7241 168.392 65.6634 169.861 66.1478C171.329 66.6323 172.574 67.6296 173.367 68.957C176.74 73.7778 171.71 78.1433 171.71 78.1433C171.71 78.1433 176.53 76.4274 178.585 82.964C180.639 89.5006 173.495 91.0297 173.495 91.0297C173.495 91.0297 178.059 90.5628 179.11 96.3874C180.16 102.212 172.503 103.122 172.503 103.122C172.503 103.122 173.962 105.457 171.114 107.791C168.266 110.126 162.943 105.457 162.943 105.457L133.646 105.819Z" fill="#181B57"/>
<path d="M156.678 115.624C156.133 117.778 155.999 120.015 156.281 122.219C156.012 122.814 155.277 124.401 154.378 126.187C152.779 129.386 150.666 133.191 149.709 133.191C148.752 133.191 145.519 128.989 143.068 125.604C141.807 123.853 140.733 122.335 140.325 121.717C140.755 119.112 140.62 116.444 139.928 113.896C139.928 113.896 158.732 107.57 156.678 115.624Z" fill="url(#paint20_linear_635_2522)"/>
<path d="M141.57 116.383C141.57 116.383 142.376 125.837 148.305 126.036C154.235 126.234 156.033 115.927 156.033 115.927L141.57 116.383Z" fill="#FFA1A8"/>
<path d="M167.454 104.792C165.539 110.873 162.166 116.359 156.295 118.647C154.373 119.394 152.333 119.789 150.272 119.814C127.347 120.211 128.759 84.0962 128.759 84.0962C128.759 84.0962 134.444 74.7582 134.712 74.3146C134.981 73.8711 139.93 70.0892 139.93 70.0892H153.213L169.671 81.5166C169.671 81.5166 170.839 94.0528 167.454 104.792Z" fill="url(#paint21_linear_635_2522)"/>
<path d="M129.157 95.1383C129.157 95.1383 134.479 90.9479 131.573 82.6838C131.573 82.6838 138.903 83.4892 140.432 76.6141C140.432 76.6141 147.167 85.0066 156.027 75.6803C156.027 75.6803 156.891 83.9561 165.482 81.108C165.482 81.108 162.307 87.0609 165.482 90.0257C165.482 90.0257 165.61 96.6324 169.053 96.6908C169.053 96.6908 175.006 83.1507 166.345 74.6881C157.684 66.2256 147.914 64.2529 138.191 69.0853C128.468 73.9177 125.655 87.2477 129.157 95.1383Z" fill="url(#paint22_linear_635_2522)"/>
<path d="M131.463 95.9672C131.463 95.9672 125.884 89.5706 122.779 93.8544C119.674 98.1382 130.506 107.756 132.117 103.543C132.579 102.311 132.76 100.992 132.647 99.681C132.534 98.3704 132.129 97.1016 131.463 95.9672ZM166.948 96.6208C166.948 96.6208 172.422 89.559 175.527 93.8428C178.632 98.1266 167.8 107.745 166.189 103.531C165.703 102.413 165.517 101.187 165.65 99.9751C165.783 98.7632 166.231 97.607 166.948 96.6208Z" fill="url(#paint23_linear_635_2522)"/>
<path d="M220.915 168.337C222.235 166.409 223.74 164.615 225.409 162.979C226.083 162.307 226.96 161.878 227.904 161.757C228.848 161.637 229.805 161.833 230.626 162.314C230.518 161.637 230.518 160.947 230.626 160.271C230.825 159.477 227.918 161.135 227.451 160.341C226.984 159.547 231.175 155.357 233.474 156.559C235.774 157.761 235.809 162.057 235.645 163.446C235.482 164.835 233.206 166.819 233.206 166.819L225.537 173.496L220.915 168.337Z" fill="url(#paint24_linear_635_2522)"/>
<path d="M234.281 156.571C234.281 156.571 237.713 155.054 239.429 158.159C241.144 161.263 239.627 166.423 238.717 168.197C237.806 169.971 228.281 174.535 228.281 174.535L224.371 170.52L230.441 165.034C230.441 165.034 234.538 161.602 234.538 161.532L234.281 156.571Z" fill="url(#paint25_linear_635_2522)"/>
<path d="M238.562 159.417C238.562 159.417 242.063 161.133 242.332 164.086C242.499 166.917 241.999 169.747 240.873 172.35C239.951 174.533 229.107 177.766 229.107 177.766L224.088 174.194L238.562 159.417Z" fill="url(#paint26_linear_635_2522)"/>
<path d="M233.909 166.326C233.912 166.26 233.938 166.196 233.982 166.147C234.027 166.098 234.088 166.066 234.154 166.058C234.551 166.028 234.926 165.866 235.218 165.597C235.51 165.328 235.703 164.968 235.765 164.575C235.952 163.058 234.4 157.397 234.388 157.338C234.369 157.272 234.377 157.201 234.41 157.14C234.443 157.079 234.497 157.033 234.563 157.012C234.632 156.996 234.705 157.006 234.768 157.041C234.83 157.075 234.878 157.131 234.902 157.198C234.972 157.432 236.489 163.035 236.302 164.634C236.231 165.149 235.984 165.624 235.604 165.98C235.223 166.335 234.732 166.548 234.213 166.583C234.178 166.586 234.142 166.582 234.108 166.572C234.074 166.561 234.043 166.544 234.016 166.521C233.989 166.498 233.966 166.47 233.95 166.439C233.934 166.408 233.924 166.373 233.921 166.338L233.909 166.326ZM238.345 170.353C238.345 170.313 238.355 170.272 238.373 170.236C238.391 170.2 238.418 170.168 238.45 170.143C239.092 169.567 239.506 168.78 239.617 167.925C239.932 166.268 238.964 159.626 238.952 159.556C238.947 159.522 238.949 159.488 238.957 159.455C238.966 159.422 238.981 159.391 239.002 159.364C239.022 159.337 239.048 159.314 239.078 159.297C239.107 159.28 239.14 159.269 239.174 159.264C239.243 159.254 239.314 159.272 239.371 159.313C239.427 159.355 239.466 159.417 239.477 159.486C239.477 159.766 240.469 166.291 240.131 168.019C239.996 169.007 239.512 169.914 238.765 170.575C238.713 170.619 238.647 170.643 238.578 170.643C238.51 170.643 238.444 170.619 238.392 170.575L238.345 170.353Z" fill="#FFA1A8"/>
<path d="M191.314 179.902L220.39 167.144C224.796 169.517 228.135 173.477 229.728 178.221C229.922 178.862 230.082 179.512 230.207 180.17C230.207 180.17 215.033 190.932 202.73 197.142C198.458 199.301 194.559 200.912 191.746 201.321C180.867 202.896 176.899 186.251 191.314 179.902Z" fill="url(#paint27_linear_635_2522)"/>
<g opacity="0.78">
<path d="M202.683 197.147C202.353 196.972 202.1 196.681 201.971 196.33C201.166 194.474 203.559 181.004 203.559 181.004L205.66 175.168C205.66 175.168 205.333 185.148 209.045 188.008C212.313 190.529 226.495 180.537 229.682 178.226C229.875 178.867 230.035 179.518 230.16 180.176C230.16 180.176 214.951 190.938 202.683 197.147Z" fill="url(#paint28_linear_635_2522)"/>
</g>
<path d="M217.929 154.423L206.968 198.288L203.56 211.922L200.058 226.034H102.126L89.5897 175.842L84.232 154.411C83.8688 152.935 83.8303 151.398 84.1191 149.905C84.408 148.412 85.0174 147 85.9053 145.766C86.7931 144.532 87.9382 143.505 89.2616 142.757C90.5849 142.009 92.0549 141.556 93.57 141.431H207.75C209.339 141.436 210.906 141.8 212.333 142.498C213.761 143.195 215.012 144.207 215.991 145.458C216.971 146.708 217.655 148.165 217.99 149.718C218.326 151.271 218.305 152.879 217.929 154.423Z" fill="url(#paint29_linear_635_2522)"/>
<path d="M151.983 185.016C155.451 185.016 158.263 182.205 158.263 178.737C158.263 175.268 155.451 172.457 151.983 172.457C148.515 172.457 145.703 175.268 145.703 178.737C145.703 182.205 148.515 185.016 151.983 185.016Z" fill="#7525E9" fill-opacity="0.12"/>
<path opacity="0.34" d="M206.97 198.288L200.037 226.034H102.104L84.2105 154.411C83.8473 152.935 83.8088 151.398 84.0977 149.905C84.3866 148.412 84.996 147 85.8838 145.766C86.7716 144.532 87.9168 143.505 89.2401 142.757C90.5634 142.009 92.0334 141.556 93.5485 141.431C91.214 144.933 89.8834 153.384 96.6884 173.869C108.466 209.284 113.03 218.225 161.447 217.221C188.353 216.672 201.029 206.867 206.97 198.288Z" fill="#7525E9" fill-opacity="0.12"/>
<path opacity="0.75" d="M203.552 211.921L200.05 226.034H102.107L89.5586 175.842L101.955 208.081C103.157 211.2 105.105 213.977 107.628 216.17C110.802 218.947 114.765 220.661 118.962 221.073C140.264 223.244 183.044 225.508 203.552 211.921Z" fill="#7525E9" fill-opacity="0.12"/>
<path d="M179.263 141.583H102.901C102.825 141.595 102.747 141.589 102.673 141.568C102.599 141.546 102.53 141.509 102.471 141.459C102.413 141.408 102.366 141.346 102.334 141.276C102.302 141.206 102.285 141.129 102.285 141.052C102.285 140.975 102.302 140.899 102.334 140.829C102.366 140.758 102.413 140.696 102.471 140.646C102.53 140.595 102.599 140.558 102.673 140.536C102.747 140.515 102.825 140.51 102.901 140.521H179.263C179.339 140.51 179.417 140.515 179.491 140.536C179.565 140.558 179.634 140.595 179.692 140.646C179.751 140.696 179.797 140.758 179.83 140.829C179.862 140.899 179.878 140.975 179.878 141.052C179.878 141.129 179.862 141.206 179.83 141.276C179.797 141.346 179.751 141.408 179.692 141.459C179.634 141.509 179.565 141.546 179.491 141.568C179.417 141.589 179.339 141.595 179.263 141.583ZM205.537 204.568H205.409C205.342 204.553 205.278 204.525 205.222 204.484C205.166 204.444 205.119 204.393 205.083 204.335C205.047 204.276 205.023 204.21 205.013 204.142C205.003 204.074 205.006 204.004 205.024 203.938L216.696 157.376C216.711 157.309 216.74 157.245 216.78 157.189C216.82 157.133 216.871 157.086 216.93 157.05C216.988 157.014 217.054 156.99 217.122 156.98C217.19 156.97 217.26 156.974 217.327 156.991C217.461 157.024 217.577 157.109 217.649 157.227C217.721 157.345 217.743 157.487 217.712 157.621L206.039 204.183C206.009 204.293 205.943 204.39 205.853 204.459C205.762 204.529 205.651 204.567 205.537 204.568ZM95.8275 201.475C95.7113 201.475 95.5984 201.436 95.5072 201.364C95.4161 201.292 95.352 201.191 95.3256 201.078L83.5481 153.501C83.5233 153.431 83.5135 153.358 83.5191 153.284C83.5248 153.211 83.5458 153.139 83.5808 153.075C83.6159 153.01 83.6641 152.953 83.7225 152.908C83.7808 152.863 83.848 152.831 83.9196 152.814C83.9912 152.797 84.0656 152.795 84.138 152.808C84.2105 152.821 84.2793 152.85 84.34 152.891C84.4007 152.933 84.452 152.987 84.4905 153.05C84.5291 153.113 84.554 153.183 84.5636 153.256L96.3878 200.833C96.4195 200.967 96.3969 201.109 96.3247 201.227C96.2526 201.345 96.1369 201.43 96.0026 201.463L95.8275 201.475ZM214.607 144.478C214.519 144.476 214.432 144.452 214.355 144.41C214.278 144.367 214.212 144.306 214.163 144.233C211.759 140.614 193.293 141.361 186.371 141.957C186.302 141.965 186.233 141.959 186.166 141.939C186.1 141.918 186.039 141.885 185.986 141.84C185.934 141.795 185.891 141.74 185.861 141.677C185.831 141.615 185.814 141.547 185.811 141.478C185.801 141.341 185.846 141.205 185.935 141.1C186.025 140.995 186.152 140.93 186.289 140.918C188.892 140.684 211.852 138.864 215.039 143.661C215.077 143.718 215.104 143.782 215.118 143.85C215.131 143.918 215.131 143.987 215.117 144.055C215.102 144.123 215.075 144.187 215.035 144.243C214.996 144.3 214.945 144.348 214.887 144.385C214.805 144.443 214.707 144.476 214.607 144.478Z" fill="#CEDBEE"/>
<path d="M337.772 26.6333V27.1987C337.652 30.9691 336.267 34.5897 333.84 37.4776C333.648 37.7089 333.455 37.9402 333.224 38.1715C331.714 39.7922 329.9 41.0996 327.885 42.019C325.87 42.9383 323.693 43.4516 321.48 43.5294H320.542C316.71 43.4786 313.01 42.1184 310.057 39.6747C309.814 39.4829 309.583 39.277 309.364 39.058C307.726 37.5474 306.403 35.7274 305.473 33.7029C304.542 31.6784 304.021 29.4896 303.941 27.2629V26.3506C304.002 22.4428 305.42 18.6775 307.95 15.6991L308.58 15.0052C310.127 13.3671 311.988 12.0567 314.052 11.1517C316.116 10.2468 318.34 9.76577 320.593 9.73726H321.48C325.318 9.88536 328.99 11.3406 331.887 13.8617C332.119 14.0673 332.35 14.2729 332.568 14.4913C335.77 17.5913 337.617 21.8308 337.708 26.2864L337.772 26.6333Z" fill="url(#paint30_linear_635_2522)"/>
<path d="M320.868 40.0089C328.255 40.0089 334.243 34.0205 334.243 26.6334C334.243 19.2463 328.255 13.2579 320.868 13.2579C313.481 13.2579 307.492 19.2463 307.492 26.6334C307.492 34.0205 313.481 40.0089 320.868 40.0089Z" fill="url(#paint31_linear_635_2522)"/>
<path d="M320.862 38.7625C327.56 38.7625 332.991 33.332 332.991 26.6333C332.991 19.9345 327.56 14.5041 320.862 14.5041C314.163 14.5041 308.732 19.9345 308.732 26.6333C308.732 33.332 314.163 38.7625 320.862 38.7625Z" fill="url(#paint32_linear_635_2522)"/>
<path d="M325.655 28.0981C325.241 27.5898 324.707 27.1924 324.101 26.9417C323.346 26.6388 322.569 26.3981 321.775 26.2222V22.2905C322.887 22.4163 323.959 22.7754 324.923 23.3441L325.72 21.3782C325.157 21.025 324.547 20.7525 323.908 20.5687C323.217 20.3484 322.5 20.223 321.775 20.1961V18.0376H320.195V20.2347C318.971 20.2713 317.797 20.7246 316.867 21.5196C316.499 21.8624 316.207 22.2785 316.01 22.7411C315.814 23.2036 315.716 23.7023 315.723 24.2049C315.689 24.9325 315.907 25.6496 316.34 26.235C316.757 26.7384 317.285 27.1386 317.882 27.4043C318.626 27.7144 319.395 27.9595 320.182 28.1366V31.9912C319.45 31.9282 318.732 31.7594 318.049 31.4902C317.421 31.2546 316.831 30.9254 316.301 30.5136L315.428 32.4795C316.029 32.9756 316.724 33.3469 317.471 33.5716C318.353 33.8614 319.268 34.0384 320.195 34.0984V36.257H321.788V34.1498C323.017 34.1031 324.196 33.6513 325.141 32.865C325.512 32.5267 325.807 32.1136 326.007 31.6529C326.206 31.1922 326.305 30.6944 326.298 30.1924C326.347 29.4392 326.119 28.694 325.655 28.0981ZM320.195 25.8239C319.674 25.6921 319.182 25.4656 318.743 25.1557C318.585 25.0347 318.458 24.8789 318.372 24.7006C318.285 24.5223 318.24 24.3262 318.242 24.1278C318.238 23.9137 318.28 23.7012 318.364 23.5042C318.448 23.3072 318.573 23.1301 318.73 22.9843C319.147 22.6416 319.657 22.4314 320.195 22.3804V25.8239ZM323.317 31.4131C322.876 31.7568 322.345 31.9664 321.788 32.0169V28.5478C322.321 28.6843 322.826 28.9149 323.278 29.2288C323.444 29.3497 323.578 29.5084 323.67 29.6916C323.761 29.8749 323.808 30.0775 323.805 30.2824C323.808 30.4958 323.765 30.7075 323.679 30.9027C323.592 31.0979 323.464 31.272 323.304 31.4131H323.317Z" fill="url(#paint33_linear_635_2522)"/>
<g opacity="0.56">
<path d="M333.825 37.5418C333.632 37.7731 333.439 38.0044 333.208 38.2357L332.026 37.1821C331.942 37.0937 331.895 36.9764 331.895 36.8544C331.895 36.7325 331.942 36.6152 332.026 36.5268C332.069 36.4837 332.12 36.4494 332.176 36.4261C332.233 36.4028 332.293 36.3907 332.354 36.3907C332.415 36.3907 332.475 36.4028 332.531 36.4261C332.587 36.4494 332.638 36.4837 332.681 36.5268L333.825 37.5418ZM310.145 16.9839C310.111 17.0364 310.062 17.0769 310.003 17.0995C309.922 17.1386 309.83 17.1521 309.741 17.1383C309.652 17.1246 309.568 17.0842 309.502 17.0224L307.986 15.699L308.603 15.0052L310.119 16.3543C310.199 16.438 310.246 16.5483 310.251 16.6642C310.256 16.7802 310.218 16.8939 310.145 16.9839ZM332.617 14.4784L331.461 15.7633C331.418 15.8064 331.367 15.8406 331.311 15.864C331.254 15.8873 331.194 15.8993 331.133 15.8993C331.072 15.8993 331.012 15.8873 330.956 15.864C330.9 15.8406 330.848 15.8064 330.805 15.7633C330.721 15.6749 330.675 15.5576 330.675 15.4356C330.675 15.3137 330.721 15.1964 330.805 15.108L331.962 13.8231C332.167 14.0544 332.399 14.2728 332.617 14.4784ZM311.365 38.3256L310.081 39.7133C309.836 39.5205 309.618 39.315 309.387 39.1094L310.672 37.7089C310.715 37.6657 310.766 37.6315 310.822 37.6082C310.878 37.5848 310.938 37.5728 310.999 37.5728C311.06 37.5728 311.12 37.5848 311.177 37.6082C311.233 37.6315 311.284 37.6657 311.327 37.7089C311.376 37.7464 311.415 37.7948 311.442 37.8502C311.471 37.9295 311.478 38.0147 311.465 38.0978C311.451 38.1809 311.417 38.2592 311.365 38.3256ZM337.769 26.6333V27.1986H336.176C336.054 27.1986 335.936 27.1499 335.849 27.0631C335.762 26.9764 335.714 26.8587 335.714 26.7361C335.714 26.6134 335.762 26.4957 335.849 26.409C335.936 26.3223 336.054 26.2735 336.176 26.2735H337.769C337.776 26.3934 337.776 26.5134 337.769 26.6333ZM306.431 26.7361C306.445 26.7953 306.445 26.8567 306.431 26.916C306.398 27.0004 306.339 27.0727 306.263 27.1231C306.188 27.1736 306.098 27.1999 306.007 27.1986H303.99V26.2864H306.007C306.122 26.2929 306.23 26.3432 306.309 26.4268C306.388 26.5105 306.432 26.6211 306.431 26.7361ZM321.542 9.73723V11.6388C321.542 11.7615 321.493 11.8792 321.406 11.9659C321.319 12.0527 321.202 12.1014 321.079 12.1014C320.956 12.1014 320.839 12.0527 320.752 11.9659C320.665 11.8792 320.616 11.7615 320.616 11.6388V9.72438H321.542V9.73723ZM321.542 41.8461V43.5422C321.315 43.5552 321.087 43.5552 320.861 43.5422H320.604V41.8461C320.604 41.7854 320.616 41.7253 320.639 41.6691C320.662 41.613 320.696 41.562 320.739 41.5191C320.782 41.4761 320.833 41.4421 320.889 41.4188C320.945 41.3956 321.005 41.3836 321.066 41.3836C321.125 41.3703 321.187 41.3703 321.246 41.3836C321.338 41.419 321.417 41.4831 321.47 41.5663C321.523 41.6495 321.548 41.7476 321.542 41.8461Z" fill="url(#paint34_linear_635_2522)"/>
</g>
<path d="M53.1037 191.878C52.1258 190.293 51.5353 188.498 51.2242 186.645L51.3557 186.827C52.6622 187.578 54.4385 187.102 55.4622 186.045C56.4864 184.987 56.8832 183.495 57 182.046C55.9953 182.821 54.6809 183.094 53.4727 183.531C52.5254 183.874 51.5679 184.408 51.0344 185.199C50.8854 183.565 50.9307 181.916 51.1089 180.352C51.1663 179.85 51.2525 179.353 51.3294 178.855C52.7235 179.577 54.5217 179.072 55.6745 178.05C56.8355 177.02 57.4887 175.579 58.1104 174.18C57.4843 174.828 56.5497 175.11 55.6409 175.273C54.7325 175.436 53.793 175.51 52.9416 175.851C52.4636 176.042 52.0148 176.346 51.6896 176.728C52.1136 174.512 52.6204 172.311 53.0005 170.088C53.0774 169.636 53.1344 169.182 53.1972 168.729L53.2439 168.943C54.2423 169.686 55.7066 169.659 56.7941 169.072C57.8811 168.485 58.6215 167.427 59.0465 166.297C59.4709 165.168 59.6126 163.959 59.7509 162.762C58.6385 163.831 56.7196 163.504 55.3332 164.222C54.4775 164.664 53.9259 165.447 53.4971 166.305C53.5214 166.081 53.5487 165.858 53.5725 165.634C53.6835 164.582 53.7804 163.521 53.7366 162.46C53.6845 161.202 53.3393 160.07 52.782 159.029C53.2804 157.923 53.1738 156.576 52.6087 155.47C51.9481 154.179 50.7472 153.197 49.4251 152.521C48.1034 151.846 46.6543 151.447 45.2158 151.061C44.8522 152.483 44.7173 153.983 45.0371 155.424C45.3565 156.865 46.1626 158.242 47.4107 159.106C48.6589 159.97 50.3665 160.255 51.7597 159.669L52.116 159.618C52.5478 160.497 52.8151 161.446 52.8637 162.492C52.9139 163.568 52.7975 164.646 52.6827 165.713C52.6315 166.185 52.5746 166.655 52.5196 167.127C51.6867 166.285 50.7686 165.515 49.7093 164.964C48.4559 164.311 46.9926 163.971 45.6008 164.213C44.0085 164.49 42.4825 165.502 40.9043 165.122C42.2074 166.896 43.8669 168.524 45.9708 169.3C48.0752 170.075 50.682 169.825 52.2149 168.271L52.4032 168.103C52.3103 168.823 52.2076 169.541 52.081 170.257C51.6409 172.754 51.0485 175.261 50.6226 177.779L50.6669 177.236C50.6401 176.408 50.0316 175.672 49.2922 175.238C48.5527 174.805 47.6916 174.619 46.8485 174.44C45.8136 174.221 44.7786 174.002 43.7437 173.782C43.6133 173.755 43.4711 173.728 43.3533 173.785C43.1703 173.874 43.1382 174.108 43.1416 174.307C43.1718 175.961 44.1341 177.584 45.6043 178.462C47.051 179.326 48.9407 179.435 50.4678 178.757C50.1708 180.742 50.0073 182.735 50.1299 184.732C49.8179 183.961 49.0575 183.393 48.2368 183.117C47.3455 182.818 46.386 182.804 45.4465 182.794C44.3707 182.782 43.2954 182.77 42.2201 182.758C42.0989 182.757 41.964 182.76 41.8779 182.841C41.7674 182.945 41.7912 183.119 41.8282 183.265C42.2498 184.897 43.478 186.328 45.0673 187.039C46.6567 187.751 48.5732 187.726 50.1217 186.975L50.1854 185.417C50.2828 186.433 50.4517 187.452 50.7292 188.47C51.032 189.584 51.4628 190.666 52.0167 191.682C51.0806 190.941 49.6821 190.995 48.4997 191.291C47.254 191.602 46.0102 192.115 44.7275 191.958C45.3195 193.499 46.791 194.705 48.4641 195.021C50.1368 195.337 51.9505 194.752 53.0682 193.535L52.6374 192.704C53.3578 193.782 54.2355 194.76 55.3001 195.572C55.7455 195.912 56.2951 195.262 55.8497 194.922C55.3624 194.55 54.9263 194.144 54.5222 193.716C55.0485 193.777 55.6307 193.592 56.0347 193.248C56.669 192.708 56.9708 191.902 57.2492 191.13C57.5072 190.417 57.7652 189.703 58.0232 188.989C56.1846 189.631 54.236 190.378 53.1037 191.878ZM76.9574 168.987C76.1211 169.242 75.2425 169.319 74.3857 169.496C73.5294 169.673 72.6639 169.969 72.0326 170.576C71.4494 171.137 71.1242 172.014 71.3496 172.78C70.028 173.519 68.8309 174.463 67.758 175.54C68.3106 174.514 68.2575 173.2 67.7897 172.115C67.2659 170.899 66.3011 169.929 65.2779 169.092C64.7731 170.41 64.3379 171.821 64.5584 173.217C64.7789 174.611 65.8425 175.963 67.2445 176.065C66.5917 176.774 65.9895 177.532 65.4458 178.329C64.9444 179.063 64.5063 179.831 64.1018 180.614C64.1003 180.044 63.8788 179.465 63.5361 179C63.0454 178.334 62.3474 177.856 61.6634 177.392C61.5125 177.29 61.3242 177.183 61.1582 177.259C61.0384 177.314 60.9761 177.446 60.9313 177.571C60.6139 178.457 60.7035 179.482 61.1708 180.299C61.6376 181.117 62.474 181.713 63.3969 181.885L63.5634 181.727C62.9369 183.113 62.4335 184.552 62.0329 186.024C61.7715 185.514 61.347 185.076 60.8632 184.759C60.1305 184.28 59.2762 184.029 58.436 183.784C59.0791 184.396 58.7237 185.508 59.0893 186.318C59.2981 186.781 59.7387 187.112 60.2172 187.28C60.6811 187.443 61.1815 187.468 61.6737 187.453C61.4551 188.407 61.2687 189.369 61.1158 190.334C61.0676 190.638 61.0306 190.943 60.9873 191.248C60.4859 190.42 59.5503 189.856 58.5806 189.852C58.7315 190.505 58.8975 191.189 59.3449 191.688C59.7197 192.106 60.3579 192.327 60.8617 192.142C60.6743 193.613 60.5321 195.09 60.407 196.569C59.8769 195.958 59.0942 195.563 58.2846 195.559C58.4355 196.212 58.6015 196.896 59.0489 197.395C59.3595 197.741 59.8506 197.95 60.297 197.908C60.2839 198.077 60.2693 198.245 60.2556 198.412C60.2211 198.846 60.8894 198.988 60.9245 198.549C60.9367 198.397 60.9498 198.243 60.962 198.09C61.716 198.312 62.5426 198.29 63.2772 198.007C64.2352 197.638 65.0189 196.837 65.3689 195.869C64.9687 196.182 64.4182 196.216 63.9139 196.162C63.4096 196.107 62.9077 195.979 62.4014 196.017C61.8956 196.055 61.3611 196.308 61.1791 196.783L61.0574 196.927C61.1499 195.841 61.2531 194.743 61.3772 193.643C62.3177 194.381 63.7148 194.516 64.7468 193.9C65.7656 193.292 66.3123 192.142 66.802 191.058C66.2836 191.467 65.5695 191.516 64.9123 191.457C64.2551 191.398 63.5979 191.248 62.9427 191.321C62.4082 191.382 61.8611 191.641 61.57 192.076C61.7769 190.529 62.0378 188.986 62.3878 187.474L62.381 187.902C63.0016 188.716 64.1758 188.969 65.1547 188.68C66.1336 188.39 66.9261 187.644 67.4913 186.792C66.7129 186.742 65.935 186.691 65.1566 186.642C64.2055 186.581 63.1262 186.574 62.4486 187.231C62.8196 185.674 63.2888 184.153 63.8881 182.695C64.2892 183.346 64.9882 183.79 65.7389 183.945C66.5386 184.11 67.3769 183.982 68.1441 183.703C68.9706 183.402 69.7339 182.926 70.3687 182.315C69.6726 182.55 68.9044 182.382 68.221 182.113C67.5375 181.843 66.8896 181.475 66.1784 181.291C65.6167 181.146 64.9921 181.146 64.4732 181.379C65.2316 179.809 66.175 178.336 67.3384 176.988C67.3126 177.479 67.5117 177.997 67.8593 178.357C68.386 178.903 69.1576 179.139 69.9097 179.222C71.2912 179.375 72.788 179.033 73.7587 178.034C72.438 177.469 71.1174 176.904 69.7967 176.339C69.2895 176.122 68.6932 175.919 68.1913 176.063C68.4532 175.799 68.7117 175.532 68.9945 175.28C69.7758 174.583 70.6277 173.972 71.5321 173.456L71.6061 173.75C72.2915 174.489 73.4846 174.597 74.3959 174.171C75.3072 173.744 75.9527 172.875 76.3251 171.938C76.6984 171.002 76.8294 169.988 76.9574 168.987Z" fill="url(#paint35_linear_635_2522)"/>
<path d="M46.3801 195.103C45.6114 194.814 44.9197 194.407 44.2903 193.92C44.7488 193.749 45.1378 193.37 45.3442 192.917C45.6299 192.291 45.6109 191.56 45.4308 190.896C45.2507 190.232 44.9207 189.621 44.5931 189.016C44.5551 189.849 44.0284 190.564 43.6375 191.3C43.3712 191.801 43.1755 192.4 43.2252 192.947C42.291 191.971 41.5248 190.815 40.9076 189.604C41.3988 189.714 41.9659 189.497 42.2857 189.087C42.6844 188.576 42.7447 187.862 42.5977 187.23C42.4507 186.598 42.1212 186.027 41.796 185.466C41.0502 186.09 40.4743 186.904 40.099 187.802C39.4857 186.291 38.9818 184.734 38.4298 183.198C39.4234 183.115 40.356 182.397 40.7669 181.461C41.262 180.332 41.1028 178.998 40.6014 177.871C39.1279 178.584 38.0798 180.087 37.8651 181.71C37.4918 180.78 37.0809 179.867 36.582 178.99C36.3692 178.617 36.1424 178.254 35.9 177.902C36.0095 177.84 36.2665 176.87 36.1424 176.409C35.9886 175.838 35.6191 175.349 35.2048 174.928C33.6345 173.333 31.2803 172.555 29.0723 172.902C30.3092 174.284 30.0585 176.631 31.4366 177.873C32.0748 178.448 32.9778 178.672 33.8326 178.597C34.2843 178.557 34.7234 178.437 35.145 178.268C35.8674 179.306 36.4389 180.455 36.9378 181.633C36.2047 181.446 35.3421 181.572 34.609 181.836C33.4685 182.248 32.3683 182.912 31.1567 182.895C31.7681 184.167 33.1155 185.047 34.5214 185.094C35.7379 185.134 36.949 184.547 37.703 183.592C37.7731 183.787 37.8486 183.983 37.9163 184.177C38.4235 185.628 38.9176 187.101 39.5173 188.521C38.8811 188.058 38.0725 187.844 37.2781 187.843C36.34 187.842 35.421 188.084 34.5141 188.325C34.8962 189.46 35.9112 190.357 37.0814 190.596C38.1368 190.811 39.2798 190.478 40.0761 189.754C40.653 190.933 41.333 192.056 42.2044 193.068C42.4269 193.326 42.6673 193.566 42.9107 193.802C41.8602 193.355 40.6136 193.37 39.5937 193.891C38.8616 194.265 38.2692 194.857 37.6256 195.369C36.9821 195.881 36.2295 196.332 35.4078 196.335C36.4569 196.33 37.3871 196.984 38.4031 197.245C39.4711 197.52 40.6486 197.339 41.5852 196.755C42.4858 196.193 43.1415 195.264 43.3936 194.231C44.2173 194.934 45.1358 195.514 46.1615 195.898C46.6585 196.086 46.8732 195.287 46.3801 195.103Z" fill="url(#paint36_linear_635_2522)"/>
<path d="M65.481 198.865L65.0974 201.914L62.5422 222.168H40.0428L37.2214 201.914L36.7988 198.865H65.481Z" fill="url(#paint37_linear_635_2522)"/>
<path d="M64.9243 198.867H37.3662C35.5169 198.867 34.0176 197.64 34.0176 196.126C34.0176 194.613 35.5169 193.386 37.3662 193.386H64.9243C66.7737 193.386 68.273 194.613 68.273 196.126C68.273 197.64 66.7737 198.867 64.9243 198.867Z" fill="#E3415B"/>
<path d="M251.809 204.859C251.268 204.099 250.559 203.473 249.738 203.029C248.916 202.586 248.003 202.338 247.07 202.303H246.965C246.513 202.301 246.062 202.356 245.623 202.467C244.355 202.761 243.162 203.318 242.121 204.101C241.423 204.606 240.774 205.176 240.184 205.805C239.248 206.755 238.389 207.777 237.616 208.863C235.795 211.454 235.094 213.707 235.515 215.598C235.75 216.493 236.222 217.308 236.882 217.957C237.541 218.606 238.363 219.065 239.262 219.287C240.182 219.599 241.149 219.757 242.121 219.754C243.519 219.741 244.899 219.435 246.172 218.855C246.685 218.627 247.18 218.362 247.654 218.061C249.079 217.14 250.312 215.951 251.284 214.559C252.311 213.151 252.962 211.504 253.175 209.774C253.282 208.905 253.216 208.024 252.982 207.18C252.748 206.337 252.349 205.548 251.809 204.859ZM248.6 212.68C247.933 213.666 247.071 214.504 246.067 215.142C245.063 215.781 243.938 216.206 242.763 216.392C241.937 216.491 241.1 216.403 240.312 216.135C238.911 215.657 238.771 215.05 238.725 214.839C238.526 213.964 239.086 212.505 240.277 210.789C240.957 209.837 241.71 208.939 242.53 208.104C243.226 207.354 244.038 206.72 244.934 206.225C245.513 205.896 246.161 205.708 246.825 205.677C247.272 205.71 247.705 205.846 248.091 206.072C248.478 206.299 248.807 206.611 249.055 206.984C250.56 208.641 249.778 211.034 248.6 212.727V212.68Z" fill="url(#paint38_linear_635_2522)"/>
<path d="M247.664 218.096C247.187 218.392 246.692 218.657 246.181 218.89C244.909 219.47 243.529 219.776 242.131 219.788C241.159 219.784 240.194 219.627 239.271 219.321C238.371 219.099 237.548 218.638 236.889 217.987C236.229 217.335 235.758 216.518 235.524 215.621C235.104 213.746 235.805 211.505 237.625 208.898C238.393 207.807 239.252 206.784 240.193 205.84C240.782 205.206 241.431 204.631 242.131 204.124C243.172 203.341 244.364 202.784 245.633 202.49C245.65 203.745 245.465 204.994 245.084 206.19C244.188 206.685 243.376 207.319 242.68 208.069C241.856 208.901 241.103 209.799 240.427 210.754C239.26 212.446 238.676 213.929 238.874 214.804C238.874 215.003 239.061 215.621 240.462 216.1C241.249 216.369 242.087 216.456 242.913 216.357C243.298 217.29 244.629 218.516 247.664 218.096Z" fill="url(#paint39_linear_635_2522)"/>
<path d="M241.131 214.477C239.462 220.115 237.326 225.286 235.668 225.286H222.233C218.813 225.286 213.315 203.213 214.238 200.435H243.676C244.166 201.871 242.917 208.443 241.131 214.477Z" fill="url(#paint40_linear_635_2522)"/>
<g opacity="0.56">
<path d="M241.133 214.477C239.487 220.115 237.328 225.286 235.67 225.286H222.235C218.815 225.286 213.317 203.213 214.239 200.435H222.41C221.305 200.864 220.322 201.559 219.55 202.459C218.778 203.359 218.241 204.436 217.986 205.594C217.134 210.614 219.154 222.309 228.223 222.309C236.3 222.368 238.577 221.924 241.133 214.477Z" fill="url(#paint41_linear_635_2522)"/>
</g>
<path d="M271.622 239.749H37.0979C35.0368 239.75 32.9956 239.346 31.0909 238.558C29.1862 237.77 27.4554 236.615 25.9974 235.158C24.5394 233.701 23.3828 231.971 22.5937 230.067C21.8046 228.163 21.3984 226.122 21.3984 224.061H287.321C287.318 228.223 285.663 232.213 282.719 235.155C279.775 238.096 275.783 239.749 271.622 239.749Z" fill="url(#paint42_linear_635_2522)"/>
<path d="M281.746 226.164H19.7217C19.1335 226.164 18.5694 225.93 18.1535 225.514C17.7376 225.098 17.5039 224.534 17.5039 223.946C17.5039 223.358 17.7376 222.794 18.1535 222.378C18.5694 221.962 19.1335 221.728 19.7217 221.728H281.734C282.322 221.728 282.886 221.962 283.302 222.378C283.718 222.794 283.952 223.358 283.952 223.946C283.952 224.534 283.718 225.098 283.302 225.514C282.886 225.93 282.322 226.164 281.734 226.164H281.746ZM145.248 243.521H27.0287C26.4405 243.521 25.8764 243.287 25.4605 242.871C25.0445 242.455 24.8109 241.891 24.8109 241.303C24.8109 240.715 25.0445 240.151 25.4605 239.735C25.8764 239.319 26.4405 239.085 27.0287 239.085H145.248C145.836 239.085 146.4 239.319 146.816 239.735C147.232 240.151 147.465 240.715 147.465 241.303C147.465 241.891 147.232 242.455 146.816 242.871C146.4 243.287 145.836 243.521 145.248 243.521ZM263.852 242.155H174.487C173.899 242.155 173.335 241.922 172.919 241.506C172.503 241.09 172.269 240.526 172.269 239.937C172.269 239.349 172.503 238.785 172.919 238.369C173.335 237.953 173.899 237.72 174.487 237.72H263.852C264.44 237.72 265.004 237.953 265.42 238.369C265.836 238.785 266.07 239.349 266.07 239.937C266.07 240.526 265.836 241.09 265.42 241.506C265.004 241.922 264.44 242.155 263.852 242.155Z" fill="#DED9FF"/>
<path d="M388.539 156.212V143.129H393.994C394.974 143.129 395.793 143.268 396.453 143.545C397.118 143.822 397.616 144.209 397.948 144.707C398.285 145.206 398.453 145.783 398.453 146.438C398.453 146.937 398.349 147.382 398.14 147.773C397.931 148.161 397.644 148.483 397.278 148.738C396.911 148.994 396.488 149.172 396.006 149.275V149.402C396.534 149.428 397.022 149.571 397.469 149.83C397.921 150.09 398.283 150.452 398.555 150.916C398.828 151.376 398.964 151.921 398.964 152.552C398.964 153.254 398.785 153.882 398.427 154.436C398.07 154.985 397.552 155.42 396.875 155.739C396.198 156.054 395.376 156.212 394.409 156.212H388.539ZM391.701 153.663H393.656C394.341 153.663 394.846 153.533 395.17 153.273C395.497 153.014 395.661 152.652 395.661 152.187C395.661 151.851 395.583 151.561 395.425 151.319C395.267 151.072 395.044 150.882 394.754 150.75C394.465 150.614 394.118 150.546 393.713 150.546H391.701V153.663ZM391.701 148.508H393.451C393.796 148.508 394.103 148.451 394.371 148.336C394.639 148.221 394.848 148.055 394.997 147.837C395.15 147.62 395.227 147.358 395.227 147.052C395.227 146.613 395.072 146.268 394.761 146.017C394.45 145.766 394.03 145.64 393.502 145.64H391.701V148.508ZM408.399 143.129H411.554V151.568C411.554 152.543 411.322 153.393 410.858 154.117C410.394 154.836 409.747 155.394 408.916 155.79C408.086 156.182 407.121 156.378 406.022 156.378C404.911 156.378 403.94 156.182 403.11 155.79C402.279 155.394 401.634 154.836 401.174 154.117C400.714 153.393 400.484 152.543 400.484 151.568V143.129H403.646V151.293C403.646 151.745 403.744 152.147 403.94 152.5C404.14 152.854 404.419 153.131 404.777 153.331C405.135 153.531 405.55 153.631 406.022 153.631C406.495 153.631 406.908 153.531 407.262 153.331C407.619 153.131 407.898 152.854 408.099 152.5C408.299 152.147 408.399 151.745 408.399 151.293V143.129ZM412.885 143.129H416.417L419.183 148.604H419.298L422.064 143.129H425.596L420.812 151.843V156.212H417.669V151.843L412.885 143.129Z" fill="white"/>
<defs>
<linearGradient id="paint0_linear_635_2522" x1="375.366" y1="148.786" x2="439.062" y2="149.758" gradientUnits="userSpaceOnUse">
<stop stop-color="#FFBA57"/>
<stop offset="1" stop-color="#FFC896"/>
</linearGradient>
<linearGradient id="paint1_linear_635_2522" x1="380.714" y1="160.941" x2="435.658" y2="161.427" gradientUnits="userSpaceOnUse">
<stop stop-color="#AE4848"/>
<stop offset="1" stop-color="#E7A1A1"/>
</linearGradient>
<linearGradient id="paint2_linear_635_2522" x1="381.2" y1="149.272" x2="432.74" y2="147.813" gradientUnits="userSpaceOnUse">
<stop stop-color="#FF4141"/>
<stop offset="1" stop-color="#FFAD97"/>
</linearGradient>
<linearGradient id="paint3_linear_635_2522" x1="291.728" y1="111.242" x2="291.728" y2="133.2" gradientUnits="userSpaceOnUse">
<stop stop-color="#133B53"/>
<stop offset="1" stop-color="#157BB8"/>
</linearGradient>
<linearGradient id="paint4_linear_635_2522" x1="291.728" y1="128.986" x2="291.728" y2="133.2" gradientUnits="userSpaceOnUse">
<stop stop-color="#348EC5"/>
<stop offset="1" stop-color="#004C7A"/>
</linearGradient>
<linearGradient id="paint5_linear_635_2522" x1="263.404" y1="70.756" x2="263.404" y2="105.461" gradientUnits="userSpaceOnUse">
<stop stop-color="#348EC5"/>
<stop offset="1" stop-color="#004C7A"/>
</linearGradient>
<linearGradient id="paint6_linear_635_2522" x1="262.56" y1="127.392" x2="262.807" y2="139.214" gradientUnits="userSpaceOnUse">
<stop stop-color="#348EC5"/>
<stop offset="1" stop-color="#004C7A"/>
</linearGradient>
<linearGradient id="paint7_linear_635_2522" x1="277.716" y1="54.3482" x2="277.716" y2="192.048" gradientUnits="userSpaceOnUse">
<stop stop-color="#348EC5"/>
<stop offset="1" stop-color="#004C7A"/>
</linearGradient>
<linearGradient id="paint8_linear_635_2522" x1="252.877" y1="80.8678" x2="252.835" y2="118.153" gradientUnits="userSpaceOnUse">
<stop stop-color="#133B53"/>
<stop offset="1" stop-color="#0F689D"/>
</linearGradient>
<linearGradient id="paint9_linear_635_2522" x1="263.832" y1="153.386" x2="263.832" y2="165.746" gradientUnits="userSpaceOnUse">
<stop stop-color="#133B53"/>
<stop offset="1" stop-color="#0F689D"/>
</linearGradient>
<linearGradient id="paint10_linear_635_2522" x1="262.804" y1="132.866" x2="262.56" y2="146.841" gradientUnits="userSpaceOnUse">
<stop stop-color="#133B53"/>
<stop offset="1" stop-color="#0C7ABC"/>
</linearGradient>
<linearGradient id="paint11_linear_635_2522" x1="379.297" y1="170.309" x2="379.297" y2="184.677" gradientUnits="userSpaceOnUse">
<stop stop-color="#BAF7D6"/>
<stop offset="1" stop-color="#24CF7D"/>
</linearGradient>
<linearGradient id="paint12_linear_635_2522" x1="413.291" y1="168.235" x2="413.291" y2="185.739" gradientUnits="userSpaceOnUse">
<stop stop-color="#BAF7D6"/>
<stop offset="1" stop-color="#24CF7D"/>
</linearGradient>
<linearGradient id="paint13_linear_635_2522" x1="415.674" y1="39.8675" x2="415.674" y2="69.8564" gradientUnits="userSpaceOnUse">
<stop stop-color="#FF4A4A"/>
<stop offset="1" stop-color="#FFC5C5"/>
</linearGradient>
<linearGradient id="paint14_linear_635_2522" x1="387.1" y1="157.933" x2="441.446" y2="158.343" gradientUnits="userSpaceOnUse">
<stop stop-color="#AE4848"/>
<stop offset="1" stop-color="#E7A1A1"/>
</linearGradient>
<linearGradient id="paint15_linear_635_2522" x1="100.509" y1="134.673" x2="100.509" y2="222.217" gradientUnits="userSpaceOnUse">
<stop stop-color="#61EF96"/>
<stop offset="1" stop-color="#62B480"/>
</linearGradient>
<linearGradient id="paint16_linear_635_2522" x1="96.6625" y1="168.22" x2="96.6625" y2="222.217" gradientUnits="userSpaceOnUse">
<stop stop-color="#148E6F"/>
<stop offset="1" stop-color="#68DA9C"/>
</linearGradient>
<linearGradient id="paint17_linear_635_2522" x1="150.291" y1="124.786" x2="150.291" y2="152.357" gradientUnits="userSpaceOnUse">
<stop stop-color="#61EF96"/>
<stop offset="1" stop-color="#62B480"/>
</linearGradient>
<linearGradient id="paint18_linear_635_2522" x1="145.642" y1="125.125" x2="145.642" y2="145.517" gradientUnits="userSpaceOnUse">
<stop stop-color="#148E6F"/>
<stop offset="1" stop-color="#68DA9C"/>
</linearGradient>
<linearGradient id="paint19_linear_635_2522" x1="148.008" y1="121.437" x2="148.008" y2="141.046" gradientUnits="userSpaceOnUse">
<stop stop-color="#D3FEF6"/>
<stop offset="1" stop-color="#F5F5F7"/>
</linearGradient>
<linearGradient id="paint20_linear_635_2522" x1="148.381" y1="111.534" x2="148.381" y2="133.191" gradientUnits="userSpaceOnUse">
<stop stop-color="white"/>
<stop offset="1" stop-color="#FFD0D0"/>
</linearGradient>
<linearGradient id="paint21_linear_635_2522" x1="149.304" y1="70.0892" x2="149.304" y2="119.817" gradientUnits="userSpaceOnUse">
<stop stop-color="white"/>
<stop offset="1" stop-color="#FFD0D0"/>
</linearGradient>
<linearGradient id="paint22_linear_635_2522" x1="149.852" y1="72.6836" x2="149.381" y2="96.6907" gradientUnits="userSpaceOnUse">
<stop stop-color="#181B57"/>
<stop offset="1" stop-color="#020893"/>
</linearGradient>
<linearGradient id="paint23_linear_635_2522" x1="149.153" y1="92.3773" x2="149.153" y2="104.587" gradientUnits="userSpaceOnUse">
<stop stop-color="white"/>
<stop offset="1" stop-color="#FFD0D0"/>
</linearGradient>
<linearGradient id="paint24_linear_635_2522" x1="259.704" y1="148.491" x2="220.915" y2="164.92" gradientUnits="userSpaceOnUse">
<stop stop-color="white"/>
<stop offset="1" stop-color="#FFD0D0"/>
</linearGradient>
<linearGradient id="paint25_linear_635_2522" x1="277.691" y1="143.994" x2="224.371" y2="165.368" gradientUnits="userSpaceOnUse">
<stop stop-color="white"/>
<stop offset="1" stop-color="#FFD0D0"/>
</linearGradient>
<linearGradient id="paint26_linear_635_2522" x1="275.77" y1="154.273" x2="224.088" y2="168.591" gradientUnits="userSpaceOnUse">
<stop stop-color="white"/>
<stop offset="1" stop-color="#FFD0D0"/>
</linearGradient>
<linearGradient id="paint27_linear_635_2522" x1="230.207" y1="184.284" x2="181.974" y2="184.284" gradientUnits="userSpaceOnUse">
<stop stop-color="#61EF96"/>
<stop offset="1" stop-color="#62B480"/>
</linearGradient>
<linearGradient id="paint28_linear_635_2522" x1="230.16" y1="186.158" x2="201.805" y2="186.158" gradientUnits="userSpaceOnUse">
<stop stop-color="#148E6F"/>
<stop offset="1" stop-color="#68DA9C"/>
</linearGradient>
<linearGradient id="paint29_linear_635_2522" x1="151.077" y1="141.431" x2="151.077" y2="226.034" gradientUnits="userSpaceOnUse">
<stop stop-color="#F0F2FC"/>
<stop offset="1" stop-color="#C3B9FF"/>
</linearGradient>
<linearGradient id="paint30_linear_635_2522" x1="303.892" y1="26.2562" x2="337.442" y2="26.2562" gradientUnits="userSpaceOnUse">
<stop stop-color="#FFAF3A"/>
<stop offset="1" stop-color="#FFDFB1"/>
</linearGradient>
<linearGradient id="paint31_linear_635_2522" x1="307.295" y1="27.2286" x2="334.523" y2="26.2562" gradientUnits="userSpaceOnUse">
<stop stop-color="#D23A18"/>
<stop offset="1" stop-color="#ED9C89"/>
</linearGradient>
<linearGradient id="paint32_linear_635_2522" x1="308.269" y1="28.2011" x2="333.553" y2="28.2011" gradientUnits="userSpaceOnUse">
<stop stop-color="#F4653E"/>
<stop offset="1" stop-color="#FFA288"/>
</linearGradient>
<linearGradient id="paint33_linear_635_2522" x1="316.047" y1="27.2286" x2="325.771" y2="28.2011" gradientUnits="userSpaceOnUse">
<stop stop-color="#FFD69B"/>
<stop offset="1" stop-color="#FFEACB"/>
</linearGradient>
<linearGradient id="paint34_linear_635_2522" x1="304.378" y1="24.7974" x2="337.441" y2="25.2837" gradientUnits="userSpaceOnUse">
<stop stop-color="#FFE4E4"/>
<stop offset="1" stop-color="#FF3C3C"/>
</linearGradient>
<linearGradient id="paint35_linear_635_2522" x1="58.9309" y1="151.061" x2="58.9309" y2="198.816" gradientUnits="userSpaceOnUse">
<stop stop-color="#A0E1BE"/>
<stop offset="1" stop-color="#47C98B"/>
</linearGradient>
<linearGradient id="paint36_linear_635_2522" x1="37.8658" y1="172.82" x2="37.8658" y2="197.371" gradientUnits="userSpaceOnUse">
<stop stop-color="#A0E1BE"/>
<stop offset="1" stop-color="#47C98B"/>
</linearGradient>
<linearGradient id="paint37_linear_635_2522" x1="40.9495" y1="222.277" x2="67.6481" y2="193.257" gradientUnits="userSpaceOnUse">
<stop offset="0.0543805" stop-color="#CD4258"/>
<stop offset="1" stop-color="#FCABB8"/>
</linearGradient>
<linearGradient id="paint38_linear_635_2522" x1="240.684" y1="211.995" x2="252.84" y2="208.592" gradientUnits="userSpaceOnUse">
<stop stop-color="#FFC269"/>
<stop offset="1" stop-color="#FFEACB"/>
</linearGradient>
<linearGradient id="paint39_linear_635_2522" x1="239.71" y1="208.592" x2="252.352" y2="214.426" gradientUnits="userSpaceOnUse">
<stop stop-color="#F18E4F"/>
<stop offset="1" stop-color="#F7DBC1"/>
</linearGradient>
<linearGradient id="paint40_linear_635_2522" x1="215.886" y1="212.968" x2="244.087" y2="212.968" gradientUnits="userSpaceOnUse">
<stop stop-color="#FFBF63"/>
<stop offset="1" stop-color="#FFEACC"/>
</linearGradient>
<linearGradient id="paint41_linear_635_2522" x1="216.374" y1="212.967" x2="224.154" y2="211.023" gradientUnits="userSpaceOnUse">
<stop stop-color="#FF8260"/>
<stop offset="1" stop-color="#FFC0AF"/>
</linearGradient>
<linearGradient id="paint42_linear_635_2522" x1="154.36" y1="224.061" x2="154.36" y2="239.749" gradientUnits="userSpaceOnUse">
<stop stop-color="white"/>
<stop offset="1" stop-color="#B2C3FF"/>
</linearGradient>
</defs>
</svg>
