<svg width="375" height="272" viewBox="0 0 375 272" fill="none" xmlns="http://www.w3.org/2000/svg">
<path d="M374.074 27.6918C373.983 27.6918 373.896 27.6556 373.832 27.5913C373.767 27.527 373.731 27.4397 373.731 27.3487V16.9957C373.731 8.0025 366.415 0.686085 357.422 0.686085H346.688C346.597 0.686085 346.51 0.649938 346.446 0.585605C346.382 0.521272 346.345 0.434023 346.345 0.343043C346.345 0.252062 346.382 0.164813 346.446 0.10048C346.51 0.0361469 346.597 0 346.688 0H357.422C366.794 0 374.417 7.62378 374.417 16.9957V27.3487C374.417 27.4397 374.381 27.527 374.317 27.5913C374.252 27.6556 374.165 27.6918 374.074 27.6918ZM357.232 169H346.878C346.787 169 346.7 168.964 346.635 168.899C346.571 168.835 346.535 168.748 346.535 168.657C346.535 168.566 346.571 168.479 346.635 168.414C346.7 168.35 346.787 168.314 346.878 168.314H357.231C366.225 168.314 373.541 160.997 373.541 152.004V141.271C373.541 141.18 373.577 141.093 373.642 141.029C373.706 140.964 373.793 140.928 373.884 140.928C373.975 140.928 374.062 140.964 374.127 141.029C374.191 141.093 374.227 141.18 374.227 141.271V152.004C374.227 161.376 366.603 169 357.232 169ZM165.343 27.6918C165.252 27.6918 165.165 27.6556 165.1 27.5913C165.036 27.527 165 27.4397 165 27.3487V16.9957C165 7.62378 172.624 0 181.996 0H192.728C192.819 0 192.906 0.0361469 192.971 0.10048C193.035 0.164813 193.071 0.252062 193.071 0.343043C193.071 0.434023 193.035 0.521272 192.971 0.585605C192.906 0.649938 192.819 0.686085 192.728 0.686085H181.996C173.002 0.686085 165.685 8.0025 165.685 16.9957V27.3487C165.685 27.4397 165.649 27.527 165.585 27.5913C165.521 27.6556 165.434 27.6918 165.343 27.6918ZM192.539 169H182.186C172.814 169 165.189 161.376 165.189 152.004V141.271C165.189 141.18 165.226 141.093 165.29 141.029C165.354 140.964 165.441 140.928 165.532 140.928C165.623 140.928 165.711 140.964 165.775 141.029C165.839 141.093 165.875 141.18 165.875 141.271V152.004C165.875 160.997 173.193 168.314 182.186 168.314H192.539C192.63 168.314 192.717 168.35 192.781 168.414C192.846 168.479 192.882 168.566 192.882 168.657C192.882 168.748 192.846 168.835 192.781 168.899C192.717 168.964 192.63 169 192.539 169H192.539Z" fill="#B7BCFF"/>
<path d="M365.575 16.9952V152.005C365.575 156.509 361.924 160.16 357.42 160.16H181.994C177.491 160.16 173.84 156.509 173.84 152.005V16.9952C173.84 12.4917 177.491 8.84106 181.994 8.84106H357.421C361.925 8.84106 365.575 12.4917 365.575 16.9952Z" fill="url(#paint0_linear_635_2424)"/>
<path d="M365.579 16.9944V36.4833H231.516C230.819 36.4832 230.132 36.3127 229.515 35.9866C228.899 35.6605 228.371 35.1888 227.979 34.6124L222.751 26.9378C222.358 26.3614 221.83 25.8896 221.214 25.5636C220.597 25.2375 219.911 25.067 219.213 25.0668H200.852C200.155 25.0669 199.468 25.2373 198.851 25.5634C198.234 25.8895 197.707 26.3613 197.314 26.9378L192.086 34.6124C191.693 35.1888 191.166 35.6605 190.549 35.9866C189.933 36.3127 189.246 36.4832 188.549 36.4833H173.844V16.9944C173.844 12.4882 177.497 8.83545 182.003 8.83545H357.42C361.926 8.83545 365.579 12.4882 365.579 16.9944Z" fill="url(#paint1_linear_635_2424)"/>
<path d="M356.691 22.8859C356.691 24.4824 356.057 26.0136 354.928 27.1425C353.799 28.2714 352.268 28.9056 350.671 28.9056H254.91C253.314 28.9056 251.783 28.2714 250.654 27.1425C249.525 26.0136 248.891 24.4824 248.891 22.8859C248.891 21.2894 249.525 19.7583 250.654 18.6293C251.783 17.5004 253.314 16.8662 254.91 16.8662H350.671C352.268 16.8662 353.799 17.5004 354.928 18.6293C356.057 19.7583 356.691 21.2894 356.691 22.8859Z" fill="url(#paint2_linear_635_2424)"/>
<path d="M350.672 16.8669H344.785V28.9057H350.672C352.257 28.8888 353.772 28.2471 354.887 27.1201C356.002 25.9931 356.627 24.4717 356.627 22.8863C356.627 21.3009 356.002 19.7795 354.887 18.6525C353.772 17.5255 352.258 16.8839 350.672 16.8669Z" fill="#3D79F3"/>
<path d="M349.792 24.6795C349.494 24.68 349.198 24.6213 348.923 24.507C348.648 24.3926 348.398 24.2249 348.188 24.0133C347.977 23.8035 347.81 23.554 347.696 23.2793C347.582 23.0046 347.523 22.7101 347.523 22.4127C347.522 22.1142 347.58 21.8185 347.694 21.5427C347.808 21.2668 347.976 21.0164 348.188 20.8059C349.039 19.9531 350.543 19.9524 351.396 20.8059C351.82 21.2318 352.058 21.8084 352.058 22.4096C352.058 23.0108 351.82 23.5874 351.396 24.0133C351.186 24.2249 350.936 24.3928 350.66 24.5071C350.385 24.6215 350.09 24.6801 349.792 24.6795ZM349.792 20.8306C349.366 20.8306 348.97 20.9939 348.673 21.2902C348.526 21.437 348.408 21.6117 348.329 21.8041C348.249 21.9966 348.209 22.203 348.21 22.4113C348.21 22.8339 348.376 23.2305 348.673 23.5283C348.819 23.6759 348.993 23.7931 349.186 23.8729C349.378 23.9528 349.584 23.9937 349.792 23.9934C350.104 23.9925 350.41 23.8991 350.67 23.7248C350.929 23.5506 351.132 23.3035 351.251 23.0144C351.371 22.7254 351.402 22.4075 351.342 22.1007C351.281 21.7939 351.131 21.5119 350.91 21.2902C350.763 21.1435 350.589 21.0274 350.397 20.9485C350.205 20.8696 349.999 20.8295 349.792 20.8306Z" fill="white"/>
<path d="M352.664 25.6277C352.619 25.6277 352.575 25.6188 352.533 25.6015C352.492 25.5842 352.454 25.5588 352.422 25.5269L350.909 24.0134C350.877 23.9817 350.851 23.9439 350.833 23.902C350.815 23.8602 350.805 23.8152 350.805 23.7696C350.804 23.7241 350.813 23.6789 350.83 23.6367C350.847 23.5946 350.873 23.5563 350.905 23.5241C350.937 23.4918 350.976 23.4664 351.018 23.4491C351.06 23.4319 351.105 23.4232 351.151 23.4236C351.196 23.424 351.241 23.4335 351.283 23.4514C351.325 23.4694 351.363 23.4956 351.394 23.5283L352.907 25.0418C352.955 25.0898 352.988 25.151 353.001 25.2175C353.014 25.284 353.007 25.3529 352.981 25.4155C352.955 25.4781 352.911 25.5316 352.855 25.5693C352.798 25.6069 352.732 25.627 352.664 25.627V25.6277Z" fill="white"/>
<path d="M294.248 78.8162C294.248 92.3664 283.263 103.351 269.706 103.351C256.156 103.351 245.172 92.3664 245.172 78.8162C245.172 65.2592 256.156 54.2681 269.706 54.2681C283.263 54.2681 294.248 65.2592 294.248 78.8162Z" fill="url(#paint3_linear_635_2424)"/>
<path d="M278.989 81.0523L267.845 89.3128C266.003 90.6781 263.391 89.3628 263.391 87.0693V70.5497C263.391 68.2561 266.003 66.9409 267.845 68.3062L278.989 76.5667C280.495 77.6829 280.495 79.936 278.989 81.0523Z" fill="white"/>
<path d="M199.926 123.363L192.712 128.709C191.519 129.594 189.828 128.742 189.828 127.258V116.564C189.828 115.079 191.519 114.227 192.712 115.111L199.926 120.458C200.153 120.626 200.337 120.845 200.464 121.098C200.591 121.35 200.657 121.628 200.657 121.911C200.657 122.193 200.591 122.471 200.464 122.723C200.337 122.976 200.153 123.195 199.926 123.363ZM348.248 121.91C348.248 122.567 347.987 123.197 347.523 123.662C347.058 124.126 346.428 124.387 345.771 124.387H216.05C215.393 124.387 214.763 124.126 214.298 123.662C213.834 123.197 213.573 122.567 213.573 121.91C213.573 121.253 213.834 120.623 214.298 120.159C214.763 119.694 215.393 119.433 216.05 119.433H345.771C346.096 119.433 346.418 119.497 346.719 119.622C347.019 119.746 347.293 119.929 347.523 120.159C347.753 120.389 347.935 120.662 348.059 120.962C348.184 121.263 348.248 121.585 348.248 121.91Z" fill="#C2D5FF"/>
<path d="M199.926 123.363L192.712 128.709C191.519 129.594 189.828 128.742 189.828 127.258V116.564C189.828 115.079 191.519 114.227 192.712 115.111L199.926 120.458C200.153 120.626 200.337 120.845 200.464 121.098C200.591 121.35 200.657 121.628 200.657 121.911C200.657 122.193 200.591 122.471 200.464 122.723C200.337 122.976 200.153 123.195 199.926 123.363ZM348.248 121.91C348.248 122.567 347.987 123.197 347.523 123.662C347.058 124.126 346.428 124.387 345.771 124.387H216.05C215.393 124.387 214.763 124.126 214.298 123.662C213.834 123.197 213.573 122.567 213.573 121.91C213.573 121.253 213.834 120.623 214.298 120.159C214.763 119.694 215.393 119.433 216.05 119.433H345.771C346.096 119.433 346.418 119.497 346.719 119.622C347.019 119.746 347.293 119.929 347.523 120.159C347.753 120.389 347.935 120.662 348.059 120.962C348.184 121.263 348.248 121.585 348.248 121.91Z" fill="url(#paint4_linear_635_2424)"/>
<path d="M240.221 118.315V125.499C240.221 127.447 238.643 129.025 236.694 129.025C234.746 129.025 233.168 127.447 233.168 125.499V118.315C233.168 116.374 234.746 114.796 236.694 114.796C237.669 114.796 238.547 115.194 239.192 115.825C239.823 116.463 240.221 117.348 240.221 118.315Z" fill="#C2D5FF"/>
<path d="M240.221 118.315V125.499C240.221 127.447 238.643 129.025 236.694 129.025C234.746 129.025 233.168 127.447 233.168 125.499V118.315C233.168 116.374 234.746 114.796 236.694 114.796C237.669 114.796 238.547 115.194 239.192 115.825C239.823 116.463 240.221 117.348 240.221 118.315Z" fill="url(#paint5_linear_635_2424)"/>
<path d="M301.313 270.485C301.313 271.231 290.054 271.831 276.169 271.831C262.279 271.831 251.02 271.231 251.02 270.485C251.02 269.746 262.279 269.145 276.169 269.145C290.054 269.145 301.313 269.746 301.313 270.485Z" fill="#E7ECFF"/>
<path d="M270.851 270H283.138C283.701 270 284.267 269.885 284.769 269.631C290.245 266.852 294 261.266 294 254.815C294 251.133 292.753 247.759 290.702 245H263.296C261.247 247.76 260 251.132 260 254.815C260 261.265 263.754 266.851 269.218 269.63C269.719 269.885 270.286 270 270.851 270Z" fill="url(#paint6_linear_635_2424)"/>
<path d="M294 238.878V243.122C294 243.62 293.798 244.098 293.439 244.45C293.08 244.802 292.594 245 292.086 245H261.914C261.406 245 260.92 244.802 260.561 244.45C260.202 244.098 260 243.62 260 243.122V238.878C260 238.38 260.202 237.902 260.561 237.55C260.92 237.198 261.406 237 261.914 237H292.086C292.594 237 293.08 237.198 293.439 237.55C293.798 237.902 294 238.379 294 238.878Z" fill="url(#paint7_linear_635_2424)"/>
<path d="M273.699 237H277.125C280.797 230.896 286.21 213.319 284.759 195.818C282.963 173.695 273.34 165.39 268.07 168.702C262.288 172.059 263.167 182.283 267.574 199.388C271.667 213.684 272.306 230.923 273.699 237Z" fill="url(#paint8_linear_635_2424)"/>
<path d="M273.992 237H275.848C281.654 210.006 273.882 180.92 273.796 180.61C273.77 180.508 273.721 180.412 273.651 180.327C273.582 180.242 273.493 180.171 273.391 180.116C273.289 180.061 273.175 180.025 273.057 180.009C272.938 179.993 272.817 179.998 272.701 180.024C272.585 180.047 272.475 180.09 272.378 180.151C272.281 180.212 272.198 180.288 272.135 180.377C272.073 180.465 272.03 180.563 272.012 180.665C271.993 180.768 271.997 180.873 272.025 180.973C272.109 181.282 279.846 210.271 273.992 237Z" fill="white"/>
<path d="M270.482 237H274.938C275.333 230.672 273.911 218.414 268.618 207.787C261.149 192.726 251.984 189.66 249.165 193.515C245.994 197.552 249.48 204.498 257.4 215.27C263.003 222.472 267.532 231.693 270.482 237Z" fill="url(#paint9_linear_635_2424)"/>
<path d="M272.391 237H274C269.482 217.1 257.555 199.533 257.422 199.34C257.363 199.254 257.288 199.181 257.201 199.124C257.114 199.068 257.017 199.03 256.916 199.012C256.815 198.994 256.711 198.996 256.611 199.02C256.51 199.043 256.415 199.086 256.331 199.147C256.247 199.208 256.176 199.285 256.121 199.374C256.066 199.464 256.029 199.563 256.011 199.667C255.994 199.771 255.997 199.878 256.019 199.981C256.042 200.084 256.084 200.181 256.143 200.267C256.275 200.458 267.893 217.577 272.391 237Z" fill="white"/>
<path d="M282.452 237C287.4 232.436 293.629 224.897 297.39 216.115C304.025 200.705 300.369 191.697 295.571 192.008C290.404 192.166 287.371 199.304 284.315 212.306C282.397 221.607 278.038 231.421 276 237H282.452Z" fill="url(#paint10_linear_635_2424)"/>
<path d="M279.948 237C290.955 221.182 295.92 202.209 295.975 201.989C296.027 201.786 295.997 201.57 295.891 201.39C295.786 201.209 295.614 201.077 295.413 201.024C295.212 200.973 294.999 201.004 294.82 201.11C294.641 201.216 294.511 201.39 294.458 201.592C294.401 201.813 289.289 221.268 278 237H279.948Z" fill="white"/>
<path d="M113.708 271.831C176.507 271.831 227.416 269.115 227.416 265.766C227.416 262.416 176.507 259.7 113.708 259.7C50.9089 259.7 0 262.416 0 265.766C0 269.115 50.9089 271.831 113.708 271.831Z" fill="#E7ECFF"/>
<path d="M132.426 168.863C132.426 168.863 137.228 164.501 138.557 165.915C139.424 166.839 136.346 169.215 136.346 169.215C136.346 169.215 141.183 168.806 143.442 168.912C147.581 169.106 146.58 179.361 133.085 175.157L132.426 168.863Z" fill="url(#paint11_linear_635_2424)"/>
<path d="M98.1154 137.024C96.647 137.721 94.3308 141.45 93.6827 145.773C92.541 153.389 95.6775 170.493 102.647 175.24C108.902 179.5 132.902 175.523 132.902 175.523C134.193 175.414 133.617 168.537 132.326 168.645C132.326 168.645 113.845 169.111 109.513 164.848C105.1 160.506 106.397 146.457 103.416 140.846C102.722 139.539 99.4518 136.389 98.1154 137.024Z" fill="url(#paint12_linear_635_2424)"/>
<path d="M148.645 248.788C147.98 251.676 148.57 254.041 149.579 256.232L142.964 257.06L142.031 249.616L148.646 248.788H148.645Z" fill="#FDCCC5"/>
<path d="M163.411 258.74L163.412 258.744L163.414 258.759C163.483 259.137 163.435 259.527 163.275 259.876C163.115 260.225 162.852 260.517 162.521 260.712C161.207 261.49 158.629 262.616 155.021 262.37C149.625 261.994 144.784 263.209 142.857 263.645C142.178 263.8 141.682 262.864 141.406 261.536C141.394 261.478 141.382 261.42 141.374 261.361C140.971 259.216 141.15 256.191 142.106 255.063C142.167 254.99 142.229 254.928 142.297 254.869C142.378 254.799 142.466 254.743 142.56 254.702C143.958 254.077 147.182 257.345 148.666 255.214C148.832 254.983 148.723 254.593 148.575 254.133C148.509 253.927 148.437 253.701 148.373 253.474C148.314 253.254 148.343 253.012 148.412 252.781C148.594 252.185 149.322 251.959 149.834 252.314C150.24 252.598 150.816 252.981 151.596 253.47C151.736 253.557 151.874 253.664 152.018 253.771C152.116 253.839 152.215 253.911 152.318 253.983C152.681 254.252 153.045 254.486 153.4 254.691C153.551 254.782 153.701 254.862 153.846 254.944C154.364 255.212 154.9 255.445 155.45 255.641C158.646 256.747 161.244 256.057 162.291 256.804C162.953 257.27 163.258 258.035 163.402 258.706C163.408 258.715 163.41 258.73 163.411 258.74Z" fill="url(#paint13_linear_635_2424)"/>
<path d="M142.303 261.931C142.303 261.931 141.037 259.686 142.219 257.293C142.219 257.293 144.394 259.17 146.253 258.771C148.111 258.372 149.827 255.785 149.827 255.785C149.827 255.785 149.955 256.593 149.307 257.889C149.307 257.889 150.426 257.701 151.199 256.439C151.199 256.439 151.357 257.447 150.471 258.505C150.471 258.505 151.805 258.193 152.775 257.243C152.775 257.243 152.519 258.324 151.708 259.027C151.708 259.027 153.4 260.282 154.332 260.174L151.982 261.722L143.128 263.07L142.303 261.931Z" fill="url(#paint14_linear_635_2424)"/>
<path d="M162.527 260.713C161.211 261.488 158.631 262.614 155.026 262.368C149.628 261.992 144.788 263.208 142.86 263.647C142.183 263.799 141.683 262.862 141.409 261.537C141.398 261.479 141.386 261.421 141.379 261.36C144.36 259.595 149.231 259.227 153.251 260.475C157.653 261.839 162.273 260.207 163.403 258.741C163.406 258.738 163.41 258.738 163.413 258.741C163.416 258.744 163.413 258.744 163.413 258.744C163.416 258.748 163.416 258.754 163.416 258.758C163.487 259.136 163.439 259.526 163.28 259.876C163.121 260.226 162.858 260.518 162.527 260.713Z" fill="#070159"/>
<path d="M152.02 253.77C151.674 254.476 151.127 255.064 150.446 255.458C150.413 255.478 150.375 255.489 150.336 255.492C150.298 255.495 150.259 255.488 150.223 255.473C150.171 255.452 150.127 255.415 150.098 255.367C150.081 255.338 150.07 255.306 150.065 255.273C150.06 255.24 150.062 255.206 150.071 255.174C150.079 255.141 150.094 255.111 150.114 255.084C150.134 255.057 150.16 255.035 150.188 255.018C150.991 254.549 151.401 253.89 151.595 253.47C151.733 253.564 151.875 253.666 152.02 253.77ZM153.848 254.942C153.452 255.668 152.84 256.254 152.096 256.616C152.064 256.632 152.028 256.641 151.992 256.642C151.956 256.643 151.92 256.637 151.887 256.622C151.841 256.604 151.802 256.573 151.773 256.532C151.745 256.492 151.729 256.444 151.727 256.395C151.726 256.345 151.738 256.296 151.764 256.254C151.79 256.212 151.827 256.178 151.872 256.157C152.522 255.839 153.057 255.328 153.403 254.693C153.553 254.783 153.7 254.862 153.848 254.941V254.942ZM155.451 255.64C155.119 256.445 154.532 257.119 153.781 257.561C153.753 257.579 153.721 257.59 153.688 257.595C153.654 257.6 153.62 257.598 153.588 257.59C153.555 257.581 153.525 257.566 153.498 257.546C153.472 257.525 153.449 257.499 153.433 257.47C153.416 257.441 153.405 257.409 153.4 257.376C153.396 257.343 153.398 257.309 153.406 257.276C153.415 257.244 153.429 257.213 153.45 257.187C153.47 257.16 153.495 257.138 153.524 257.121C154.175 256.74 154.684 256.158 154.973 255.461C155.135 255.524 155.294 255.586 155.451 255.64Z" fill="white"/>
<path d="M148.811 254.896C148.828 255.349 148.667 255.813 148.331 256.119C148.093 256.333 147.779 256.458 147.462 256.512C147.139 256.568 146.813 256.554 146.495 256.518C146.091 256.48 145.69 256.41 145.296 256.31C144.589 256.128 143.908 255.856 143.269 255.501C142.953 255.322 142.648 255.124 142.356 254.907C142.337 254.893 142.317 254.881 142.297 254.87C142.378 254.799 142.466 254.744 142.561 254.702C143.959 254.077 147.183 257.345 148.666 255.214C148.832 254.984 148.723 254.593 148.575 254.133C148.733 254.353 148.802 254.624 148.812 254.897L148.811 254.896Z" fill="#070159"/>
<path d="M149.749 251.078C149.848 251.925 141.269 252.904 141.169 252.058L126.279 198.772L96.7947 202.164L91.0469 182.451C110.191 183.526 123.623 182.371 134.732 188.237C144.667 193.484 149.749 251.078 149.749 251.078Z" fill="url(#paint15_linear_635_2424)"/>
<path d="M115.386 261.733H111.57L109.055 238.865H73.1598L70.6449 261.733H66.8281L73.1398 207.362H76.9614L73.6691 234.628H108.544L105.252 207.362H109.075L115.386 261.733Z" fill="url(#paint16_linear_635_2424)"/>
<path d="M65.2363 137.233C74.2764 141.159 43.6438 210.055 113.442 198.248C120.748 198.248 121.01 208.69 113.463 209.165C113.463 209.165 67.1323 215.58 57.8066 203.31C49.6978 192.642 48.3288 129.889 65.2363 137.233Z" fill="url(#paint17_linear_635_2424)"/>
<path d="M118.598 205.769C117.862 207.553 116.158 208.991 113.465 209.164C113.465 209.164 67.1292 215.58 57.8065 203.312C50.0724 193.138 48.473 135.609 62.9972 136.651C54.8429 149.138 57.0129 191.267 63.521 199.83C72.2337 211.294 113.235 206.454 118.598 205.769Z" fill="#C2D5FF"/>
<path d="M105.548 183.141C92.2355 184.435 79.9722 183.568 64.6034 182.45C68.9331 161.35 57.871 144.083 64.5034 137.473C71.3765 130.619 95.6399 130.712 100.801 138.933C105.7 146.731 102.483 167.614 105.548 183.141Z" fill="url(#paint18_linear_635_2424)"/>
<path d="M82.6178 156.995L87.9618 162.639L91.151 156.995C90.6102 151.424 87.2161 144.388 83.0416 136.95C84.0663 144.623 84.4731 151.769 82.6178 156.995Z" fill="white"/>
<path d="M93.2025 118.111C92.9448 127.088 90.2376 127.798 86.3869 127.798V132.799L83.1601 137.323L76.9297 132.748V122.628C76.4519 121.384 74.9531 119.882 74.9531 118.111C74.9531 111.151 79.0433 105.503 84.0751 105.503C89.1196 105.503 93.6172 103.499 93.2025 118.111Z" fill="url(#paint19_linear_635_2424)"/>
<path d="M77.9313 99.8102C73.6471 99.37 76.6689 103.889 76.6689 103.889C76.6689 103.889 68.237 105.533 73.2621 113.071C73.2621 113.071 71.0654 117.635 74.3049 120.886L77.0788 115.813C77.0788 115.813 81.5134 114.763 78.9329 111.745C85.512 112.248 88.5732 111.313 87.3364 108.431C87.3364 108.431 92.4112 105.87 93.2182 113.777C93.2182 113.777 95.8696 112.737 95.3542 110.117C95.3542 110.117 98.8345 106.852 94.7958 106.551C94.7958 106.551 99.2358 98.4521 90.6717 99.7629C90.6717 99.7629 82.2149 100.25 77.9313 99.8102Z" fill="url(#paint20_linear_635_2424)"/>
<path d="M74.4005 121.07C75.4379 122.987 77.2787 123.832 78.5052 122.957C79.7373 122.079 79.8882 119.813 78.8508 117.895C77.8104 115.971 75.9739 115.122 74.7425 116.001C73.5153 116.876 73.3601 119.145 74.4005 121.07Z" fill="url(#paint21_linear_635_2424)"/>
<path d="M86.3873 127.761C86.3873 127.761 83.6461 127.618 81.5586 126.26C81.5586 126.26 82.6991 128.852 86.3873 129.336V127.761Z" fill="#FFB5AD"/>
<path d="M76.9727 132.783C76.9727 132.783 75.3781 132.409 75.0204 132.96C74.0691 134.426 77.1777 139.406 79.1457 140.014C80.4839 140.427 83.1583 137.322 83.1583 137.322L76.9727 132.783ZM86.3851 132.798C86.3851 132.798 87.9724 132.441 88.5739 132.96C90.1091 134.285 89.8041 139.319 88.2016 140.014C87.0678 140.505 83.1583 137.322 83.1583 137.322L86.3851 132.798Z" fill="white"/>
<path d="M129.799 249.125C128.781 251.908 129.072 254.328 129.799 256.628H123.133V249.125H129.799Z" fill="#FDCCC5"/>
<path d="M143.212 260.836V260.855C143.234 261.238 143.137 261.619 142.935 261.946C142.733 262.273 142.436 262.53 142.083 262.682C140.682 263.29 137.985 264.088 134.435 263.395C129.128 262.35 124.173 262.954 122.207 263.147C121.514 263.216 121.138 262.226 121.029 260.875C121.024 260.816 121.02 260.756 121.02 260.697C120.886 258.519 121.44 255.538 122.529 254.538C122.598 254.474 122.668 254.42 122.742 254.37C122.831 254.311 122.925 254.266 123.025 254.237C124.489 253.791 127.282 257.435 129.019 255.504C129.212 255.296 129.153 254.895 129.063 254.42C129.024 254.207 128.98 253.974 128.945 253.742C128.913 253.515 128.971 253.279 129.07 253.058C129.325 252.49 130.075 252.356 130.539 252.772C130.907 253.104 131.43 253.556 132.143 254.138C132.271 254.241 132.395 254.366 132.524 254.489C132.613 254.568 132.702 254.653 132.797 254.737C133.123 255.048 133.455 255.325 133.781 255.573C133.92 255.682 134.059 255.781 134.192 255.88C134.673 256.211 135.176 256.508 135.697 256.771C138.732 258.266 141.395 257.905 142.34 258.776C142.94 259.32 143.147 260.118 143.207 260.801C143.211 260.812 143.213 260.824 143.212 260.836Z" fill="url(#paint22_linear_635_2424)"/>
<path d="M121.869 261.377C121.869 261.377 120.892 258.992 122.363 256.765C122.363 256.765 124.287 258.898 126.18 258.733C128.074 258.568 130.098 256.214 130.098 256.214C130.098 256.214 130.125 257.033 129.322 258.237C129.322 258.237 130.455 258.19 131.378 257.034C131.378 257.034 131.411 258.054 130.399 258.993C130.399 258.993 131.762 258.85 132.843 258.029C132.843 258.029 132.455 259.069 131.563 259.665C131.563 259.665 133.085 261.12 134.023 261.129L131.499 262.374L122.546 262.61L121.869 261.377Z" fill="url(#paint23_linear_635_2424)"/>
<path d="M142.088 262.683C140.687 263.289 137.986 264.086 134.439 263.394C129.131 262.349 124.177 262.954 122.208 263.15C121.519 263.216 121.139 262.224 121.032 260.877C121.028 260.818 121.023 260.758 121.023 260.696C124.202 259.316 129.079 259.556 132.914 261.294C137.111 263.195 141.9 262.149 143.203 260.836C143.207 260.833 143.21 260.834 143.213 260.837C143.215 260.841 143.213 260.841 143.213 260.841C143.215 260.844 143.214 260.851 143.213 260.855C143.236 261.238 143.141 261.62 142.94 261.947C142.738 262.274 142.441 262.531 142.088 262.683Z" fill="#070159"/>
<path d="M132.522 254.488C132.091 255.146 131.474 255.661 130.75 255.968C130.714 255.983 130.675 255.99 130.637 255.988C130.598 255.985 130.56 255.974 130.526 255.955C130.477 255.927 130.439 255.885 130.415 255.834C130.402 255.803 130.395 255.77 130.395 255.736C130.394 255.703 130.4 255.669 130.413 255.638C130.425 255.607 130.444 255.579 130.467 255.555C130.49 255.531 130.518 255.512 130.549 255.499C131.206 255.218 131.76 254.743 132.138 254.138C132.263 254.248 132.391 254.367 132.522 254.488V254.488ZM134.189 255.878C133.706 256.549 133.026 257.054 132.243 257.321C132.209 257.333 132.173 257.338 132.137 257.335C132.101 257.331 132.066 257.32 132.035 257.302C131.992 257.278 131.956 257.242 131.933 257.198C131.91 257.155 131.9 257.105 131.905 257.056C131.909 257.007 131.928 256.96 131.959 256.921C131.99 256.883 132.031 256.854 132.078 256.838C132.762 256.604 133.357 256.162 133.778 255.575C133.916 255.684 134.053 255.781 134.189 255.878ZM135.694 256.77C135.264 257.527 134.598 258.124 133.798 258.469C133.767 258.482 133.734 258.49 133.7 258.491C133.667 258.491 133.633 258.485 133.602 258.473C133.571 258.46 133.543 258.442 133.519 258.418C133.495 258.395 133.476 258.366 133.463 258.335C133.45 258.304 133.443 258.271 133.442 258.238C133.442 258.204 133.448 258.171 133.461 258.14C133.473 258.108 133.492 258.08 133.515 258.056C133.539 258.032 133.567 258.013 133.598 258C134.291 257.703 134.868 257.189 135.241 256.534C135.394 256.616 135.544 256.696 135.694 256.77Z" fill="white"/>
<path d="M129.202 255.207C129.163 255.658 128.945 256.098 128.574 256.36C128.311 256.543 127.985 256.627 127.663 256.642C127.336 256.657 127.014 256.603 126.703 256.528C126.306 256.44 125.917 256.32 125.539 256.172C124.86 255.903 124.218 255.549 123.629 255.118C123.336 254.9 123.059 254.668 122.797 254.415C122.78 254.399 122.761 254.384 122.742 254.37C122.831 254.311 122.925 254.266 123.025 254.237C124.49 253.791 127.282 257.435 129.019 255.504C129.212 255.296 129.153 254.895 129.064 254.42C129.193 254.657 129.227 254.935 129.203 255.207H129.202Z" fill="#070159"/>
<path d="M130.59 252.058C130.566 252.954 121.145 252.742 121.165 251.845L117.427 203.119C117.427 203.119 77.3787 206.783 69.2899 202.446C62.3197 198.713 61.7207 178.12 67.3248 180.086C87.3689 187.12 115.205 175.442 128.165 190.937C136.273 200.629 130.59 252.058 130.59 252.058Z" fill="url(#paint24_linear_635_2424)"/>
<path d="M217.901 184.887L215.104 189.132C214.675 189.784 214.09 190.319 213.404 190.689C212.717 191.058 211.949 191.252 211.169 191.252H22.4387C21.6586 191.252 20.8907 191.058 20.2039 190.689C19.5171 190.319 18.9329 189.784 18.5037 189.132L15.7068 184.887C13.6429 181.754 15.8899 177.583 19.6418 177.583H213.966C217.717 177.583 219.964 181.754 217.901 184.887Z" fill="url(#paint25_linear_635_2424)"/>
<path d="M217.902 184.888L215.103 189.131C214.674 189.782 214.091 190.317 213.404 190.688C212.718 191.058 211.951 191.252 211.171 191.253H22.4364C21.6565 191.252 20.889 191.058 20.2027 190.688C19.5164 190.317 18.9329 189.782 18.5045 189.131L15.7051 184.888C15.3458 184.347 15.1027 183.738 14.9913 183.098C14.88 182.459 14.9027 181.803 15.0582 181.173C15.1825 181.671 15.3941 182.163 15.7051 182.636L18.5045 186.879C18.9329 187.53 19.5165 188.065 20.2028 188.436C20.8891 188.806 21.6566 189 22.4364 189H211.171C211.951 189 212.718 188.806 213.404 188.435C214.091 188.065 214.674 187.53 215.103 186.878L217.902 182.636C218.213 182.163 218.425 181.672 218.55 181.173C218.705 181.804 218.728 182.459 218.616 183.099C218.505 183.738 218.261 184.347 217.902 184.888Z" fill="#ADC8F7"/>
<path d="M198.079 191.249L217.599 265.137H213.573L187.945 191.249H198.079Z" fill="url(#paint26_linear_635_2424)"/>
<path d="M173.891 191.249L193.412 265.137H189.386L163.758 191.249H173.891Z" fill="url(#paint27_linear_635_2424)"/>
<path d="M28.9577 191.249L9.4375 265.137H13.4634L39.091 191.249H28.9577Z" fill="url(#paint28_linear_635_2424)"/>
<path d="M53.4147 191.249L33.8945 265.137H37.9204L63.5486 191.249H53.4147Z" fill="url(#paint29_linear_635_2424)"/>
<path d="M190.834 129.211L181.788 168.358C181.519 169.52 180.865 170.558 179.93 171.3C178.996 172.043 177.838 172.447 176.645 172.447H105.488C102.093 172.447 99.5803 169.288 100.345 165.98L109.392 126.834C109.66 125.671 110.315 124.634 111.249 123.891C112.183 123.149 113.341 122.744 114.534 122.744H185.692C189.087 122.744 191.599 125.903 190.834 129.211Z" fill="url(#paint30_linear_635_2424)"/>
<path d="M114.534 122.744C113.341 122.744 112.183 123.148 111.249 123.891C110.316 124.633 109.661 125.67 109.392 126.833L100.346 165.978C99.5791 169.286 102.096 172.446 105.488 172.446H102.03C98.6326 172.446 96.1213 169.286 96.8889 165.977L105.935 126.833C106.204 125.67 106.858 124.633 107.792 123.891C108.726 123.148 109.884 122.744 111.077 122.744H114.534Z" fill="url(#paint31_linear_635_2424)"/>
<path d="M167.695 154.015L163.469 172.447H122.605L127.304 151.936C127.54 150.908 128.116 149.992 128.941 149.335C129.765 148.678 130.787 148.321 131.841 148.321H163.159C166.149 148.321 168.364 151.101 167.695 154.015Z" fill="url(#paint32_linear_635_2424)"/>
<path d="M158.246 184.643H145.309L145.297 184.607H136.745C136.522 184.606 136.308 184.516 136.151 184.358C135.994 184.2 135.906 183.985 135.906 183.762V181.399C135.906 180.942 136.281 180.566 136.739 180.566H143.868L136.704 160.303C136.622 160.077 136.596 159.834 136.629 159.595C136.661 159.356 136.751 159.129 136.89 158.932C137.029 158.735 137.213 158.575 137.427 158.464C137.641 158.354 137.879 158.297 138.12 158.298H149.457C150.093 158.298 150.664 158.697 150.873 159.298L159.306 183.143C159.561 183.875 159.019 184.643 158.246 184.643Z" fill="url(#paint33_linear_635_2424)"/>
<path d="M160.608 184.644H149.434C148.373 184.644 147.433 183.977 147.075 182.977L139.06 160.307C138.714 159.324 139.442 158.294 140.484 158.294H151.816C152.453 158.294 153.023 158.7 153.235 159.3L161.663 183.146C161.924 183.874 161.384 184.644 160.608 184.644Z" fill="url(#paint34_linear_635_2424)"/>
<path d="M177.645 176.038H195.021V182.851H177.645V176.038Z" fill="url(#paint35_linear_635_2424)"/>
<path d="M177.645 177.247H192.813V181.643H177.645V177.247Z" fill="url(#paint36_linear_635_2424)"/>
<path d="M195.02 176.038H211.982V182.851H195.02V176.038Z" fill="url(#paint37_linear_635_2424)"/>
<path d="M98.0397 172.334C99.028 171.217 101.424 168.943 102.417 169.951C102.914 170.455 101.311 172.357 101.311 172.357C101.311 172.357 103.829 171.954 105.771 172.004C109.331 172.096 109.752 181.307 98.0815 177.94L98.0391 172.334H98.0397Z" fill="url(#paint38_linear_635_2424)"/>
<path d="M97.8132 178.411C97.8132 178.411 70.4685 182.425 65.9394 177.817C61.9256 173.737 61.1556 155.917 61.2587 148.587C61.3375 143.136 63.4839 137.006 66.8004 135.769C71.9965 133.835 71.4811 165.667 74.8461 169.032C78.4961 172.676 97.7162 171.657 97.7162 171.657C98.5832 171.645 98.6863 178.393 97.8132 178.411Z" fill="url(#paint39_linear_635_2424)"/>
<path d="M17.9375 102.212V127.56C17.9375 128.247 18.2106 128.907 18.6969 129.393C19.1831 129.879 19.8425 130.152 20.5301 130.152H42.3549L48.3616 135.351C49.0431 135.941 50.1029 135.456 50.1029 134.555V130.152H54.9273C55.6149 130.152 56.2743 129.879 56.7606 129.393C57.2468 128.907 57.5199 128.247 57.5199 127.56V102.212C57.5199 101.871 57.4528 101.534 57.3226 101.22C57.1923 100.905 57.0013 100.619 56.7606 100.379C56.5198 100.138 56.234 99.9469 55.9195 99.8166C55.6049 99.6863 55.2678 99.6192 54.9273 99.6192H20.5301C20.1896 99.6192 19.8525 99.6863 19.5379 99.8166C19.2234 99.9469 18.9376 100.138 18.6969 100.379C18.4561 100.619 18.2651 100.905 18.1348 101.22C18.0046 101.534 17.9375 101.871 17.9375 102.212Z" fill="url(#paint40_linear_635_2424)"/>
<path d="M52.2777 120.164H23.1821C23.1017 120.164 23.0246 120.132 22.9677 120.076C22.9109 120.019 22.8789 119.942 22.8789 119.861C22.8789 119.781 22.9109 119.704 22.9677 119.647C23.0246 119.59 23.1017 119.558 23.1821 119.558H52.2777C52.3581 119.558 52.4352 119.59 52.4921 119.647C52.5489 119.704 52.5809 119.781 52.5809 119.861C52.5809 119.942 52.5489 120.019 52.4921 120.076C52.4352 120.132 52.3581 120.164 52.2777 120.164ZM52.2777 124.031H23.1821C23.1017 124.031 23.0246 124 22.9677 123.943C22.9109 123.886 22.8789 123.809 22.8789 123.728C22.8789 123.648 22.9109 123.571 22.9677 123.514C23.0246 123.457 23.1017 123.425 23.1821 123.425H52.2777C52.3581 123.425 52.4352 123.457 52.4921 123.514C52.5489 123.571 52.5809 123.648 52.5809 123.728C52.5809 123.809 52.5489 123.886 52.4921 123.943C52.4352 124 52.3581 124.031 52.2777 124.031Z" fill="white"/>
<path d="M107.416 47.0094C107.416 61.1153 95.9737 72.543 81.8678 72.543C67.762 72.543 56.3203 61.1153 56.3203 47.0094C56.3203 32.8897 67.7614 21.4619 81.8678 21.4619C95.9743 21.4619 107.416 32.8897 107.416 47.0094Z" fill="url(#paint41_linear_635_2424)"/>
<path d="M102.615 47.0087C102.615 58.4637 93.3235 67.7445 81.8678 67.7445C70.4122 67.7445 61.1211 58.4637 61.1211 47.0087C61.1211 35.5422 70.4128 26.262 81.8678 26.262C93.3229 26.262 102.615 35.5422 102.615 47.0087Z" fill="white"/>
<path d="M83.0455 29.4575V31.0988C83.0455 31.3623 82.9408 31.615 82.7545 31.8013C82.5682 31.9876 82.3155 32.0923 82.052 32.0923C81.7886 32.0923 81.5359 31.9876 81.3496 31.8013C81.1633 31.615 81.0586 31.3623 81.0586 31.0988V29.4575C81.0586 29.1941 81.1633 28.9414 81.3496 28.7551C81.5359 28.5688 81.7886 28.4641 82.052 28.4641C82.3155 28.4641 82.5682 28.5688 82.7545 28.7551C82.9408 28.9414 83.0455 29.1941 83.0455 29.4575Z" fill="url(#paint42_linear_635_2424)"/>
<path d="M74.1115 31.2201L74.9319 32.6419C75.0636 32.8701 75.0992 33.1412 75.031 33.3957C74.9628 33.6502 74.7963 33.8671 74.5681 33.9988C74.3399 34.1305 74.0688 34.1662 73.8143 34.0979C73.5598 34.0297 73.3429 33.8632 73.2112 33.635L72.3908 32.2138C72.3256 32.1008 72.2833 31.9761 72.2663 31.8468C72.2493 31.7174 72.2579 31.586 72.2917 31.46C72.3255 31.334 72.3837 31.2159 72.4632 31.1124C72.5426 31.0089 72.6416 30.9221 72.7546 30.8569C72.8676 30.7917 72.9923 30.7494 73.1217 30.7324C73.251 30.7153 73.3824 30.724 73.5084 30.7578C73.6344 30.7915 73.7525 30.8498 73.856 30.9292C73.9595 31.0087 74.0463 31.1071 74.1115 31.2201Z" fill="url(#paint43_linear_635_2424)"/>
<path d="M67.2595 37.2121L68.6807 38.0325C68.9088 38.1642 69.0754 38.3811 69.1436 38.6356C69.2118 38.89 69.1762 39.1612 69.0445 39.3894C68.9128 39.6176 68.6958 39.7841 68.4413 39.8523C68.1869 39.9205 67.9157 39.8849 67.6875 39.7532L66.2663 38.9328C66.1534 38.8676 66.0543 38.7808 65.9749 38.6773C65.8955 38.5738 65.8372 38.4557 65.8034 38.3297C65.7696 38.2037 65.761 38.0723 65.778 37.9429C65.795 37.8136 65.8373 37.6889 65.9026 37.5759C65.9678 37.4629 66.0546 37.3639 66.1581 37.2845C66.2616 37.205 66.3797 37.1468 66.5057 37.113C66.6317 37.0792 66.7631 37.0706 66.8924 37.0876C67.0218 37.1046 67.1465 37.1469 67.2595 37.2121Z" fill="url(#paint44_linear_635_2424)"/>
<path d="M64.3216 45.8274H65.9622C66.2257 45.8274 66.4784 45.9321 66.6647 46.1184C66.851 46.3047 66.9557 46.5574 66.9557 46.8208C66.9557 47.0843 66.851 47.337 66.6647 47.5233C66.4784 47.7096 66.2257 47.8143 65.9622 47.8143H64.3216C64.0581 47.8143 63.8054 47.7096 63.6191 47.5233C63.4328 47.337 63.3281 47.0843 63.3281 46.8208C63.3281 46.5574 63.4328 46.3047 63.6191 46.1184C63.8054 45.9321 64.0581 45.8274 64.3216 45.8274Z" fill="url(#paint45_linear_635_2424)"/>
<path d="M66.086 54.7568L67.5072 53.9365C67.6202 53.8713 67.7449 53.829 67.8743 53.8119C68.0036 53.7949 68.135 53.8036 68.261 53.8373C68.387 53.8711 68.5052 53.9294 68.6086 54.0088C68.7121 54.0883 68.799 54.1873 68.8642 54.3003C68.9294 54.4133 68.9717 54.538 68.9887 54.6673C69.0057 54.7967 68.9971 54.9281 68.9633 55.0541C68.9295 55.1801 68.8712 55.2982 68.7918 55.4017C68.7124 55.5052 68.6134 55.592 68.5004 55.6572L67.0798 56.4775C66.8516 56.6092 66.5805 56.6449 66.326 56.5767C66.0715 56.5084 65.8546 56.3419 65.7229 56.1137C65.5912 55.8856 65.5555 55.6144 65.6237 55.3599C65.692 55.1055 65.8579 54.8885 66.086 54.7568Z" fill="url(#paint46_linear_635_2424)"/>
<path d="M72.0783 61.6096L72.8993 60.1885C72.9645 60.0755 73.0513 59.9764 73.1548 59.897C73.2583 59.8176 73.3764 59.7593 73.5024 59.7255C73.6284 59.6918 73.7598 59.6831 73.8892 59.7001C74.0185 59.7171 74.1432 59.7595 74.2562 59.8247C74.3692 59.8899 74.4682 59.9767 74.5476 60.0802C74.6271 60.1837 74.6853 60.3018 74.7191 60.4278C74.7529 60.5538 74.7615 60.6852 74.7445 60.8145C74.7275 60.9439 74.6852 61.0686 74.62 61.1816L73.799 62.6028C73.6673 62.831 73.4504 62.9975 73.1959 63.0657C72.9415 63.1339 72.6703 63.0983 72.4421 62.9666C72.2139 62.8349 72.0474 62.6179 71.9792 62.3635C71.911 62.109 71.9466 61.8378 72.0783 61.6096Z" fill="url(#paint47_linear_635_2424)"/>
<path d="M80.6914 64.5478V62.9065C80.6914 62.643 80.7961 62.3904 80.9824 62.2041C81.1687 62.0178 81.4214 61.9131 81.6848 61.9131C81.9483 61.9131 82.201 62.0178 82.3873 62.2041C82.5736 62.3904 82.6783 62.643 82.6783 62.9065V64.5478C82.6783 64.8113 82.5736 65.064 82.3873 65.2503C82.201 65.4366 81.9483 65.5412 81.6848 65.5412C81.4214 65.5412 81.1687 65.4366 80.9824 65.2503C80.7961 65.064 80.6914 64.8113 80.6914 64.5478Z" fill="url(#paint48_linear_635_2424)"/>
<path d="M89.6219 62.785L88.801 61.3645C88.7358 61.2515 88.6935 61.1267 88.6764 60.9974C88.6594 60.8681 88.6681 60.7366 88.7019 60.6106C88.7356 60.4846 88.7939 60.3665 88.8733 60.263C88.9528 60.1596 89.0518 60.0727 89.1648 60.0075C89.2778 59.9423 89.4025 59.9 89.5318 59.883C89.6612 59.866 89.7926 59.8746 89.9186 59.9084C90.0446 59.9422 90.1627 60.0004 90.2662 60.0799C90.3697 60.1593 90.4565 60.2583 90.5217 60.3713L91.342 61.7919C91.4072 61.9049 91.4496 62.0296 91.4666 62.1589C91.4836 62.2883 91.475 62.4197 91.4412 62.5457C91.4074 62.6717 91.3491 62.7898 91.2697 62.8933C91.1903 62.9968 91.0912 63.0836 90.9782 63.1488C90.8653 63.214 90.7405 63.2564 90.6112 63.2734C90.4819 63.2904 90.3505 63.2817 90.2244 63.248C90.0984 63.2142 89.9803 63.1559 89.8768 63.0765C89.7734 62.9971 89.6871 62.898 89.6219 62.785Z" fill="url(#paint49_linear_635_2424)"/>
<path d="M96.4766 56.7932L95.0554 55.9729C94.9424 55.9077 94.8434 55.8208 94.764 55.7174C94.6845 55.6139 94.6263 55.4958 94.5925 55.3698C94.5587 55.2438 94.5501 55.1123 94.5671 54.983C94.5841 54.8537 94.6264 54.7289 94.6916 54.6159C94.7568 54.503 94.8437 54.4039 94.9471 54.3245C95.0506 54.2451 95.1687 54.1868 95.2947 54.153C95.4207 54.1192 95.5522 54.1106 95.6815 54.1276C95.8108 54.1446 95.9356 54.187 96.0485 54.2522L97.4697 55.0731C97.6979 55.2048 97.8644 55.4218 97.9327 55.6762C98.0009 55.9307 97.9652 56.2019 97.8335 56.43C97.7018 56.6582 97.4849 56.8247 97.2304 56.893C96.9759 56.9612 96.7048 56.9255 96.4766 56.7938V56.7932Z" fill="url(#paint50_linear_635_2424)"/>
<path d="M99.4115 48.1788H97.7708C97.5073 48.1788 97.2546 48.0741 97.0683 47.8878C96.882 47.7015 96.7773 47.4488 96.7773 47.1853C96.7773 46.9219 96.882 46.6692 97.0683 46.4829C97.2546 46.2966 97.5073 46.1919 97.7708 46.1919H99.4115C99.6749 46.1919 99.9276 46.2966 100.114 46.4829C100.3 46.6692 100.405 46.9219 100.405 47.1853C100.405 47.4488 100.3 47.7015 100.114 47.8878C99.9276 48.0741 99.6749 48.1788 99.4115 48.1788Z" fill="url(#paint51_linear_635_2424)"/>
<path d="M97.6494 39.2481L96.2282 40.0685C96 40.2002 95.7289 40.2358 95.4744 40.1676C95.2199 40.0994 95.003 39.9329 94.8713 39.7047C94.7396 39.4765 94.7039 39.2054 94.7722 38.9509C94.8404 38.6964 95.0069 38.4795 95.2351 38.3478L96.6563 37.528C96.8845 37.3963 97.1556 37.3607 97.4101 37.4289C97.6646 37.4971 97.8815 37.6636 98.0132 37.8918C98.1449 38.12 98.1806 38.3912 98.1123 38.6456C98.0441 38.9001 97.8776 39.1164 97.6494 39.2481Z" fill="url(#paint52_linear_635_2424)"/>
<path d="M91.6584 32.3967L90.8381 33.8179C90.7064 34.046 90.4895 34.2126 90.235 34.2808C89.9805 34.349 89.7094 34.3133 89.4812 34.1816C89.253 34.0499 89.0865 33.833 89.0183 33.5785C88.95 33.3241 88.9857 33.0529 89.1174 32.8247L89.9377 31.4029C90.0694 31.1747 90.2864 31.0082 90.5409 30.94C90.7953 30.8718 91.0665 30.9074 91.2947 31.0391C91.5228 31.1708 91.6894 31.3878 91.7576 31.6423C91.8258 31.8967 91.7901 32.1685 91.6584 32.3967Z" fill="url(#paint53_linear_635_2424)"/>
<path d="M87.7161 47.6085H82.0477C81.8869 47.6085 81.7327 47.5447 81.619 47.4309C81.5053 47.3172 81.4414 47.163 81.4414 47.0022V37.9767C81.4414 37.8159 81.5053 37.6617 81.619 37.5479C81.7327 37.4342 81.8869 37.3704 82.0477 37.3704C82.2085 37.3704 82.3627 37.4342 82.4764 37.5479C82.5901 37.6617 82.654 37.8159 82.654 37.9767V46.3965H87.7161C87.8769 46.3965 88.0311 46.4604 88.1448 46.5741C88.2586 46.6878 88.3224 46.842 88.3224 47.0028C88.3224 47.1636 88.2586 47.3178 88.1448 47.4315C88.0311 47.5453 87.8769 47.6085 87.7161 47.6085Z" fill="url(#paint54_linear_635_2424)"/>
<path d="M75.253 52.4937C75.2216 52.4937 75.1909 52.4839 75.1653 52.4656C75.1396 52.4474 75.1203 52.4216 75.11 52.3919C75.0996 52.3622 75.0988 52.33 75.1076 52.2998C75.1164 52.2695 75.1344 52.2428 75.1591 52.2233L81.4798 47.2352C81.5115 47.2117 81.551 47.2015 81.5901 47.2066C81.6291 47.2118 81.6646 47.232 81.6891 47.2629C81.7135 47.2938 81.7249 47.333 81.721 47.3722C81.717 47.4114 81.6979 47.4475 81.6678 47.4728L75.347 52.4616C75.3202 52.4825 75.2871 52.4939 75.253 52.4937Z" fill="url(#paint55_linear_635_2424)"/>
<path d="M85.0168 47.0037C85.0168 48.7426 83.6059 50.1511 81.867 50.1511C81.032 50.1511 80.2313 49.8194 79.6409 49.229C79.0504 48.6386 78.7188 47.8378 78.7188 47.0028C78.7188 46.1678 79.0504 45.3671 79.6409 44.7767C80.2313 44.1862 81.032 43.8546 81.867 43.8546C82.2806 43.8545 82.6901 43.9359 83.0723 44.0941C83.4544 44.2523 83.8016 44.4843 84.094 44.7768C84.3864 45.0692 84.6184 45.4164 84.7766 45.7985C84.9349 46.1806 85.0169 46.5902 85.0168 47.0037Z" fill="url(#paint56_linear_635_2424)"/>
<path d="M83.3262 47.0029C83.3262 47.1946 83.2884 47.3845 83.215 47.5616C83.1416 47.7387 83.034 47.8996 82.8984 48.0352C82.7628 48.1707 82.6018 48.2782 82.4247 48.3516C82.2475 48.4249 82.0577 48.4626 81.8659 48.4626C81.6742 48.4626 81.4844 48.4248 81.3073 48.3513C81.1301 48.2779 80.9692 48.1704 80.8337 48.0348C80.6981 47.8992 80.5906 47.7382 80.5173 47.561C80.4439 47.3839 80.4062 47.194 80.4063 47.0023C80.4063 46.6151 80.5602 46.2438 80.8341 45.97C81.1079 45.6963 81.4793 45.5425 81.8665 45.5426C82.2538 45.5427 82.6251 45.6966 82.8988 45.9704C83.1726 46.2443 83.3263 46.6157 83.3262 47.0029Z" fill="url(#paint57_linear_635_2424)"/>
<path d="M22.762 115.132C22.7017 115.07 22.6544 114.996 22.6229 114.915C22.5913 114.835 22.5762 114.748 22.5783 114.662C22.5783 114.584 22.6026 114.486 22.6517 114.368L26.3951 105.53C26.4733 105.354 26.583 105.21 26.7255 105.097C26.8674 104.985 27.0408 104.928 27.2469 104.928H27.393C27.5992 104.928 27.7726 104.985 27.9145 105.097C28.0563 105.21 28.1667 105.354 28.2449 105.53L31.9889 114.368C32.0374 114.486 32.0616 114.584 32.0616 114.662C32.0616 114.848 32.001 115.004 31.8785 115.132C31.756 115.259 31.5972 115.323 31.4014 115.323C31.2643 115.323 31.1394 115.286 31.0273 115.212C30.9151 115.138 30.8284 115.039 30.7702 114.912L29.8165 112.622H24.8241L23.8704 114.912C23.811 115.039 23.7261 115.139 23.6133 115.212C23.5005 115.286 23.3756 115.323 23.2386 115.323C23.0434 115.323 22.8839 115.258 22.762 115.132ZM25.3383 111.403H29.3023L27.3197 106.631L25.3383 111.403ZM35.2035 114.28V114.662C35.2035 114.848 35.1381 115.004 35.0053 115.132C34.8731 115.259 34.7142 115.323 34.5287 115.323C34.342 115.323 34.1861 115.258 34.0588 115.132C33.9966 115.071 33.9476 114.997 33.9147 114.917C33.8819 114.836 33.8659 114.749 33.8678 114.662V105.134C33.8678 104.949 33.9315 104.789 34.0588 104.657C34.1188 104.593 34.1916 104.542 34.2726 104.508C34.3536 104.474 34.4408 104.457 34.5287 104.459C34.7239 104.459 34.8858 104.523 35.0131 104.649C35.1399 104.777 35.2035 104.938 35.2035 105.134V108.731C35.9184 107.987 36.7551 107.615 37.7137 107.615C38.3196 107.615 38.9149 107.774 39.4392 108.078C39.9825 108.385 40.4233 108.836 40.761 109.428C41.0987 110.021 41.2666 110.712 41.2666 111.505C41.2666 112.298 41.0981 112.991 40.7604 113.583C40.4227 114.176 39.9825 114.625 39.4386 114.934C38.9146 115.237 38.3198 115.396 37.7143 115.396C36.7551 115.396 35.9178 115.024 35.2035 114.28ZM39.2701 113.458C39.7109 112.998 39.9309 112.348 39.9309 111.505C39.9309 110.664 39.7109 110.014 39.2701 109.553C38.8293 109.092 38.2478 108.863 37.5239 108.863C37.0825 108.861 36.647 108.964 36.2537 109.164C35.8576 109.364 35.5016 109.636 35.2035 109.964V113.047C35.5067 113.38 35.8565 113.648 36.2537 113.848C36.647 114.047 37.0822 114.15 37.5233 114.148C38.2478 114.148 38.8299 113.918 39.2701 113.458ZM44.6438 114.927C44.0505 114.618 43.5547 114.15 43.2117 113.575C42.8546 112.988 42.6763 112.298 42.6763 111.505C42.6763 110.712 42.8546 110.023 43.2117 109.435C43.5549 108.861 44.0507 108.394 44.6438 108.085C45.2462 107.77 45.9167 107.609 46.5961 107.615C47.1145 107.615 47.5626 107.681 47.9391 107.813C48.3073 107.941 48.6596 108.111 48.9892 108.32C49.1845 108.447 49.2827 108.618 49.2827 108.834C49.2806 108.985 49.2202 109.13 49.1141 109.238C49.0007 109.359 48.8716 109.421 48.7249 109.421C48.6163 109.421 48.5096 109.392 48.4017 109.333C48.0792 109.167 47.8015 109.046 47.5723 108.973C47.3431 108.899 47.0557 108.863 46.7137 108.863C45.8716 108.863 45.2107 109.105 44.7311 109.59C44.2521 110.075 44.012 110.712 44.012 111.505C44.012 112.298 44.2515 112.937 44.7311 113.421C45.2107 113.906 45.8716 114.148 46.7137 114.148C47.0557 114.148 47.3425 114.111 47.5723 114.038C47.8021 113.965 48.0792 113.845 48.4017 113.678C48.5096 113.62 48.6163 113.59 48.7249 113.59C48.8716 113.59 49.0007 113.652 49.1141 113.774C49.2202 113.881 49.2806 114.026 49.2827 114.177C49.2827 114.393 49.1845 114.564 48.9892 114.692C48.6655 114.897 48.3162 115.066 47.9391 115.198C47.562 115.33 47.1145 115.396 46.5955 115.396C45.9161 115.402 45.2462 115.241 44.6438 114.927ZM51.0513 115.051C50.9733 114.976 50.9116 114.886 50.8699 114.786C50.8282 114.687 50.8074 114.58 50.8088 114.471V114.383C50.8088 114.158 50.8894 113.965 51.0513 113.803C51.2132 113.641 51.406 113.561 51.6309 113.561H51.7777C52.0026 113.561 52.196 113.641 52.3579 113.803C52.5192 113.965 52.6004 114.158 52.6004 114.383V114.471C52.6004 114.696 52.5192 114.89 52.3579 115.051C52.1966 115.212 52.0026 115.294 51.7777 115.294H51.6309C51.406 115.294 51.2126 115.212 51.0513 115.051Z" fill="white"/>
<path d="M211.059 171.886V175.582H200.354C199.338 175.582 198.512 174.754 198.512 173.735C198.512 172.716 199.338 171.886 200.354 171.886H211.059Z" fill="white"/>
<path d="M200.355 171.886C198.748 171.886 197.615 173.963 199.48 175.582H211.06V176.312H180V171.156H211.06V171.886L200.355 171.886Z" fill="url(#paint58_linear_635_2424)"/>
<path d="M191.545 171.156H190.855V176.313H191.545V171.156Z" fill="white"/>
<path d="M189.818 171.156H189.129V176.313H189.818V171.156Z" fill="white"/>
<path d="M201.051 173.209V174.814L201.864 174.246L202.677 174.814V173.209H201.051Z" fill="#26DB9D"/>
<path d="M193.036 174.011C193.036 173.184 193.704 172.513 194.529 172.513C195.353 172.513 196.022 173.184 196.022 174.011C196.022 174.839 195.353 175.51 194.529 175.51C193.704 175.51 193.036 174.839 193.036 174.011ZM182.941 166.73V170.426H193.646C194.662 170.426 195.489 169.598 195.489 168.579C195.489 167.56 194.662 166.73 193.646 166.73H182.941Z" fill="white"/>
<path d="M193.646 166.731C195.254 166.731 196.387 168.807 194.522 170.427H182.941V171.157H214.002V166H182.941V166.731L193.646 166.731Z" fill="url(#paint59_linear_635_2424)"/>
<path d="M195.489 168.579C195.489 169.598 194.662 170.426 193.646 170.426H182.941V171.156H193.646C195.064 171.156 196.216 170 196.216 168.579C196.216 167.156 195.064 166 193.646 166H182.941V166.73H193.646C194.662 166.73 195.489 167.56 195.489 168.579Z" fill="#FFA68B"/>
<path d="M202.459 171.156H203.148V166H202.459V171.156Z" fill="white"/>
<path d="M204.182 171.156H204.871V166H204.182V171.156Z" fill="white"/>
<path d="M192.951 168.053V169.657L192.138 169.09L191.324 169.657V168.053H192.951Z" fill="#F07C58"/>
<path d="M199.378 169.992C200.157 169.992 200.788 169.359 200.788 168.578C200.788 167.797 200.157 167.164 199.378 167.164C198.6 167.164 197.969 167.797 197.969 168.578C197.969 169.359 198.6 169.992 199.378 169.992Z" fill="white"/>
<defs>
<linearGradient id="paint0_linear_635_2424" x1="269.753" y1="63.8246" x2="269.41" y2="218.88" gradientUnits="userSpaceOnUse">
<stop stop-color="#F0F3FF"/>
<stop offset="1" stop-color="#F1F6FF"/>
</linearGradient>
<linearGradient id="paint1_linear_635_2424" x1="270.294" y1="6.65644" x2="268.975" y2="51.971" gradientUnits="userSpaceOnUse">
<stop stop-color="#D5D5FF"/>
<stop offset="1" stop-color="#5959FF"/>
</linearGradient>
<linearGradient id="paint2_linear_635_2424" x1="248.891" y1="22.8859" x2="356.691" y2="22.8859" gradientUnits="userSpaceOnUse">
<stop stop-color="#E7ECFF"/>
<stop offset="1" stop-color="#F1F6FF"/>
</linearGradient>
<linearGradient id="paint3_linear_635_2424" x1="245.172" y1="78.8093" x2="294.247" y2="78.8093" gradientUnits="userSpaceOnUse">
<stop stop-color="#FF8888"/>
<stop offset="1" stop-color="#F24E4E"/>
</linearGradient>
<linearGradient id="paint4_linear_635_2424" x1="269.52" y1="113.624" x2="269.091" y2="137.099" gradientUnits="userSpaceOnUse">
<stop stop-color="#D5D5FF"/>
<stop offset="1" stop-color="#5959FF"/>
</linearGradient>
<linearGradient id="paint5_linear_635_2424" x1="236.716" y1="113.674" x2="228.561" y2="133.694" gradientUnits="userSpaceOnUse">
<stop stop-color="#D5D5FF"/>
<stop offset="1" stop-color="#5959FF"/>
</linearGradient>
<linearGradient id="paint6_linear_635_2424" x1="260" y1="257.5" x2="294" y2="257.5" gradientUnits="userSpaceOnUse">
<stop stop-color="#A8D5FF"/>
<stop offset="1" stop-color="#157CF5"/>
</linearGradient>
<linearGradient id="paint7_linear_635_2424" x1="260" y1="241" x2="294" y2="241" gradientUnits="userSpaceOnUse">
<stop stop-color="#BDE3FF"/>
<stop offset="1" stop-color="#1C61F9"/>
</linearGradient>
<linearGradient id="paint8_linear_635_2424" x1="270.89" y1="277.848" x2="223.852" y2="204.101" gradientUnits="userSpaceOnUse">
<stop stop-color="#06799D"/>
<stop offset="1" stop-color="#10F1D3"/>
</linearGradient>
<linearGradient id="paint9_linear_635_2424" x1="256.859" y1="263.64" x2="237.042" y2="202.389" gradientUnits="userSpaceOnUse">
<stop stop-color="#06799D"/>
<stop offset="1" stop-color="#10F1D3"/>
</linearGradient>
<linearGradient id="paint10_linear_635_2424" x1="284.203" y1="263.64" x2="263.133" y2="203.34" gradientUnits="userSpaceOnUse">
<stop stop-color="#06799D"/>
<stop offset="1" stop-color="#10F1D3"/>
</linearGradient>
<linearGradient id="paint11_linear_635_2424" x1="139.011" y1="165.633" x2="139.011" y2="176.168" gradientUnits="userSpaceOnUse">
<stop stop-color="white"/>
<stop offset="1" stop-color="#FFD0D0"/>
</linearGradient>
<linearGradient id="paint12_linear_635_2424" x1="158.69" y1="220.347" x2="114.588" y2="130.429" gradientUnits="userSpaceOnUse">
<stop stop-color="#FFDCBE"/>
<stop offset="1" stop-color="#FF7918"/>
</linearGradient>
<linearGradient id="paint13_linear_635_2424" x1="141.032" y1="258.779" x2="163.074" y2="256.017" gradientUnits="userSpaceOnUse">
<stop stop-color="#78A7FF"/>
<stop offset="1" stop-color="#3D79F3"/>
</linearGradient>
<linearGradient id="paint14_linear_635_2424" x1="148.214" y1="261.721" x2="149.262" y2="255.96" gradientUnits="userSpaceOnUse">
<stop stop-color="#070159"/>
<stop offset="0.832656" stop-color="#558CF8" stop-opacity="0.28"/>
</linearGradient>
<linearGradient id="paint15_linear_635_2424" x1="145.272" y1="253.568" x2="115.795" y2="180.904" gradientUnits="userSpaceOnUse">
<stop stop-color="#A2262E"/>
<stop offset="1" stop-color="#47090E"/>
</linearGradient>
<linearGradient id="paint16_linear_635_2424" x1="90.7889" y1="268.453" x2="92.643" y2="229.294" gradientUnits="userSpaceOnUse">
<stop stop-color="#E7ECFF"/>
<stop offset="1" stop-color="#C2D5FF"/>
</linearGradient>
<linearGradient id="paint17_linear_635_2424" x1="52" y1="173.739" x2="119.023" y2="173.739" gradientUnits="userSpaceOnUse">
<stop stop-color="#E7ECFF"/>
<stop offset="1" stop-color="#C2D5FF"/>
</linearGradient>
<linearGradient id="paint18_linear_635_2424" x1="100.556" y1="180.02" x2="70.1799" y2="132.884" gradientUnits="userSpaceOnUse">
<stop stop-color="#FFDCBE"/>
<stop offset="1" stop-color="#FF7918"/>
</linearGradient>
<linearGradient id="paint19_linear_635_2424" x1="84.0911" y1="105.41" x2="84.0911" y2="137.323" gradientUnits="userSpaceOnUse">
<stop stop-color="white"/>
<stop offset="1" stop-color="#FFD0D0"/>
</linearGradient>
<linearGradient id="paint20_linear_635_2424" x1="96.7475" y1="110.253" x2="71.6644" y2="110.253" gradientUnits="userSpaceOnUse">
<stop stop-color="#771E24"/>
<stop offset="1" stop-color="#47090E"/>
</linearGradient>
<linearGradient id="paint21_linear_635_2424" x1="76.6251" y1="115.654" x2="76.6251" y2="123.303" gradientUnits="userSpaceOnUse">
<stop stop-color="white"/>
<stop offset="1" stop-color="#FFD0D0"/>
</linearGradient>
<linearGradient id="paint22_linear_635_2424" x1="121" y1="258.096" x2="143.215" y2="258.096" gradientUnits="userSpaceOnUse">
<stop stop-color="#78A7FF"/>
<stop offset="1" stop-color="#3D79F3"/>
</linearGradient>
<linearGradient id="paint23_linear_635_2424" x1="127.976" y1="261.426" x2="128.798" y2="256.334" gradientUnits="userSpaceOnUse">
<stop stop-color="#070159"/>
<stop offset="0.832656" stop-color="#558CF8" stop-opacity="0.28"/>
</linearGradient>
<linearGradient id="paint24_linear_635_2424" x1="127.264" y1="253.865" x2="99.3096" y2="175.947" gradientUnits="userSpaceOnUse">
<stop stop-color="#A2262E"/>
<stop offset="1" stop-color="#47090E"/>
</linearGradient>
<linearGradient id="paint25_linear_635_2424" x1="116.541" y1="175.337" x2="117.089" y2="189.868" gradientUnits="userSpaceOnUse">
<stop stop-color="#FFF1E7"/>
<stop offset="1" stop-color="#C2D5FF"/>
</linearGradient>
<linearGradient id="paint26_linear_635_2424" x1="204.809" y1="196.961" x2="201.432" y2="248.738" gradientUnits="userSpaceOnUse">
<stop stop-color="#E7ECFF"/>
<stop offset="1" stop-color="#C2D5FF"/>
</linearGradient>
<linearGradient id="paint27_linear_635_2424" x1="180.747" y1="195.035" x2="177.371" y2="246.813" gradientUnits="userSpaceOnUse">
<stop stop-color="#E7ECFF"/>
<stop offset="1" stop-color="#C2D5FF"/>
</linearGradient>
<linearGradient id="paint28_linear_635_2424" x1="27.0714" y1="185.147" x2="23.6949" y2="236.925" gradientUnits="userSpaceOnUse">
<stop stop-color="#E7ECFF"/>
<stop offset="1" stop-color="#C2D5FF"/>
</linearGradient>
<linearGradient id="paint29_linear_635_2424" x1="51.403" y1="187.073" x2="48.0264" y2="238.851" gradientUnits="userSpaceOnUse">
<stop stop-color="#E7ECFF"/>
<stop offset="1" stop-color="#C2D5FF"/>
</linearGradient>
<linearGradient id="paint30_linear_635_2424" x1="146.711" y1="122.457" x2="144.256" y2="177.511" gradientUnits="userSpaceOnUse">
<stop stop-color="#E7ECFF"/>
<stop offset="1" stop-color="#C2D5FF"/>
</linearGradient>
<linearGradient id="paint31_linear_635_2424" x1="96.75" y1="147.595" x2="114.534" y2="147.595" gradientUnits="userSpaceOnUse">
<stop stop-color="#78A7FF"/>
<stop offset="1" stop-color="#3D79F3"/>
</linearGradient>
<linearGradient id="paint32_linear_635_2424" x1="148.137" y1="143.404" x2="142.178" y2="183.059" gradientUnits="userSpaceOnUse">
<stop stop-color="#A4C4FF"/>
<stop offset="1" stop-color="#165CEA"/>
</linearGradient>
<linearGradient id="paint33_linear_635_2424" x1="135.906" y1="171.47" x2="159.369" y2="171.47" gradientUnits="userSpaceOnUse">
<stop stop-color="#78A7FF"/>
<stop offset="1" stop-color="#3D79F3"/>
</linearGradient>
<linearGradient id="paint34_linear_635_2424" x1="154.037" y1="186.334" x2="146.581" y2="156.711" gradientUnits="userSpaceOnUse">
<stop stop-color="#E7ECFF"/>
<stop offset="1" stop-color="#C2D5FF"/>
</linearGradient>
<linearGradient id="paint35_linear_635_2424" x1="177.645" y1="179.445" x2="195.021" y2="179.445" gradientUnits="userSpaceOnUse">
<stop stop-color="#57A251"/>
<stop offset="1" stop-color="#42D02B"/>
</linearGradient>
<linearGradient id="paint36_linear_635_2424" x1="177.645" y1="179.445" x2="192.813" y2="179.445" gradientUnits="userSpaceOnUse">
<stop stop-color="#E7ECFF"/>
<stop offset="1" stop-color="#C2D5FF"/>
</linearGradient>
<linearGradient id="paint37_linear_635_2424" x1="195.02" y1="179.445" x2="211.982" y2="179.445" gradientUnits="userSpaceOnUse">
<stop stop-color="#BDFBA0"/>
<stop offset="1" stop-color="#50CD03"/>
</linearGradient>
<linearGradient id="paint38_linear_635_2424" x1="103.01" y1="169.699" x2="103.01" y2="178.68" gradientUnits="userSpaceOnUse">
<stop stop-color="white"/>
<stop offset="1" stop-color="#FFD0D0"/>
</linearGradient>
<linearGradient id="paint39_linear_635_2424" x1="109.459" y1="180.02" x2="69.073" y2="169.245" gradientUnits="userSpaceOnUse">
<stop stop-color="#FFCCA3"/>
<stop offset="1" stop-color="#FA7311"/>
</linearGradient>
<linearGradient id="paint40_linear_635_2424" x1="38.8207" y1="136.457" x2="36.4985" y2="90.5749" gradientUnits="userSpaceOnUse">
<stop stop-color="#FFE7F5"/>
<stop offset="1" stop-color="#FF3C99"/>
</linearGradient>
<linearGradient id="paint41_linear_635_2424" x1="56.3203" y1="47.0028" x2="107.416" y2="47.0028" gradientUnits="userSpaceOnUse">
<stop stop-color="#DCAEFF"/>
<stop offset="1" stop-color="#A839FF"/>
</linearGradient>
<linearGradient id="paint42_linear_635_2424" x1="81.0586" y1="30.2785" x2="83.0455" y2="30.2785" gradientUnits="userSpaceOnUse">
<stop stop-color="#E7ECFF"/>
<stop offset="1" stop-color="#C2D5FF"/>
</linearGradient>
<linearGradient id="paint43_linear_635_2424" x1="72.8008" y1="32.9244" x2="74.5215" y2="31.931" gradientUnits="userSpaceOnUse">
<stop stop-color="#E7ECFF"/>
<stop offset="1" stop-color="#C2D5FF"/>
</linearGradient>
<linearGradient id="paint44_linear_635_2424" x1="66.9769" y1="39.3429" x2="67.9704" y2="37.6222" gradientUnits="userSpaceOnUse">
<stop stop-color="#E7ECFF"/>
<stop offset="1" stop-color="#C2D5FF"/>
</linearGradient>
<linearGradient id="paint45_linear_635_2424" x1="65.1419" y1="47.8137" x2="65.1419" y2="45.8268" gradientUnits="userSpaceOnUse">
<stop stop-color="#E7ECFF"/>
<stop offset="1" stop-color="#C2D5FF"/>
</linearGradient>
<linearGradient id="paint46_linear_635_2424" x1="67.79" y1="56.0671" x2="66.7966" y2="54.3465" gradientUnits="userSpaceOnUse">
<stop stop-color="#E7ECFF"/>
<stop offset="1" stop-color="#C2D5FF"/>
</linearGradient>
<linearGradient id="paint47_linear_635_2424" x1="74.2091" y1="61.8919" x2="72.4889" y2="60.8988" gradientUnits="userSpaceOnUse">
<stop stop-color="#E7ECFF"/>
<stop offset="1" stop-color="#C2D5FF"/>
</linearGradient>
<linearGradient id="paint48_linear_635_2424" x1="82.6783" y1="63.7269" x2="80.6914" y2="63.7269" gradientUnits="userSpaceOnUse">
<stop stop-color="#E7ECFF"/>
<stop offset="1" stop-color="#C2D5FF"/>
</linearGradient>
<linearGradient id="paint49_linear_635_2424" x1="90.9319" y1="61.0812" x2="89.2112" y2="62.0747" gradientUnits="userSpaceOnUse">
<stop stop-color="#E7ECFF"/>
<stop offset="1" stop-color="#C2D5FF"/>
</linearGradient>
<linearGradient id="paint50_linear_635_2424" x1="96.7597" y1="54.6625" x2="95.7662" y2="56.3832" gradientUnits="userSpaceOnUse">
<stop stop-color="#E7ECFF"/>
<stop offset="1" stop-color="#C2D5FF"/>
</linearGradient>
<linearGradient id="paint51_linear_635_2424" x1="98.5911" y1="46.1919" x2="98.5911" y2="48.1788" gradientUnits="userSpaceOnUse">
<stop stop-color="#E7ECFF"/>
<stop offset="1" stop-color="#C2D5FF"/>
</linearGradient>
<linearGradient id="paint52_linear_635_2424" x1="95.9456" y1="37.9382" x2="96.9387" y2="39.6584" gradientUnits="userSpaceOnUse">
<stop stop-color="#E7ECFF"/>
<stop offset="1" stop-color="#C2D5FF"/>
</linearGradient>
<linearGradient id="paint53_linear_635_2424" x1="89.5277" y1="32.1136" x2="91.2484" y2="33.1071" gradientUnits="userSpaceOnUse">
<stop stop-color="#E7ECFF"/>
<stop offset="1" stop-color="#C2D5FF"/>
</linearGradient>
<linearGradient id="paint54_linear_635_2424" x1="81.4414" y1="42.4894" x2="88.3224" y2="42.4894" gradientUnits="userSpaceOnUse">
<stop stop-color="#B3B3FF"/>
<stop offset="1" stop-color="#8F8FEA"/>
</linearGradient>
<linearGradient id="paint55_linear_635_2424" x1="75.1014" y1="49.8484" x2="81.7254" y2="49.8484" gradientUnits="userSpaceOnUse">
<stop stop-color="#B3B3FF"/>
<stop offset="1" stop-color="#8F8FEA"/>
</linearGradient>
<linearGradient id="paint56_linear_635_2424" x1="78.7178" y1="47.0031" x2="85.0162" y2="47.0031" gradientUnits="userSpaceOnUse">
<stop stop-color="#B3B3FF"/>
<stop offset="1" stop-color="#8F8FEA"/>
</linearGradient>
<linearGradient id="paint57_linear_635_2424" x1="80.405" y1="47.0029" x2="83.3262" y2="47.0029" gradientUnits="userSpaceOnUse">
<stop stop-color="#E7ECFF"/>
<stop offset="1" stop-color="#C2D5FF"/>
</linearGradient>
<linearGradient id="paint58_linear_635_2424" x1="180.77" y1="176.275" x2="197.984" y2="169.717" gradientUnits="userSpaceOnUse">
<stop stop-color="#13AA76"/>
<stop offset="1" stop-color="#29E3A2"/>
</linearGradient>
<linearGradient id="paint59_linear_635_2424" x1="201.428" y1="171.029" x2="209.461" y2="164.636" gradientUnits="userSpaceOnUse">
<stop stop-color="#F07C58"/>
<stop offset="1" stop-color="#FFA183"/>
</linearGradient>
</defs>
</svg>
