<svg width="382" height="274" viewBox="0 0 382 274" fill="none" xmlns="http://www.w3.org/2000/svg">
<path d="M103.168 239.872C103.144 239.717 100.617 224.667 89.5002 216.054C89.5314 214.74 89.3912 210.889 86.8524 208.794C83.9943 206.438 87.2418 212.362 89.0602 215.72C88.9317 215.627 88.8071 215.526 88.6708 215.432C85.9653 213.49 82.9317 212.05 79.715 211.18C79.715 209.75 79.5164 204.693 76.1405 203.383C72.3752 201.922 78.36 208.047 79.5671 211.137C76.8467 210.419 74.0443 210.058 71.2304 210.061C70.7125 208.658 68.7228 203.679 65.9387 202.019C62.6834 200.076 59.2569 205.315 63.6024 206.959C66.0017 207.87 68.3504 208.907 70.6385 210.069C68.4474 210.102 66.2619 210.301 64.1008 210.663C61.3245 211.13 58.6494 211.553 56.0756 211.946C55.4293 210.391 52.8321 204.452 50.8462 203.29C48.5644 201.957 43.2455 205.117 48.7942 208.172C53.42 210.718 55.0243 211.425 55.8342 211.981C51.3303 212.657 47.1315 213.205 43.2377 213.625C42.4862 211.926 39.2465 205.074 35.6876 205.074C31.895 205.074 35.6058 212.179 41.9878 213.749C37.5997 214.216 33.1888 214.435 28.776 214.406C27.4249 212.766 26.3774 208.063 26.2373 205.509C26.0776 202.676 21.004 201.891 20.2252 206.637C19.61 210.38 25.5831 213.33 28.118 214.41C16.4871 214.123 9.377 211.071 6.7876 203.768C6.63185 201.401 6.66689 197.351 8.29062 194.316C10.732 189.756 7.51185 185.959 4.29945 189.372C1.08704 192.784 2.17342 201.459 7.05628 206.248C8.02488 208.033 9.37883 209.581 11.0202 210.78C9.40036 210.391 7.61699 210.313 6.14902 209.074C1.72174 205.323 -3.01315 211.258 2.46935 212.735C4.02819 213.141 5.65466 213.219 7.2454 212.964C8.83613 212.71 10.3563 212.127 11.7094 211.254C14.1469 212.863 17.2386 213.932 20.9884 214.542C17.8461 217.212 11.9391 216.214 10.1207 217.924C8.24 219.696 11.7444 222.638 15.4358 220.532C18.5158 218.775 20.5484 215.576 21.1363 214.566C24.9718 215.176 29.4847 215.316 34.683 215.067C33.3162 216.579 30.941 219.039 29.5197 219.506C27.0082 220.334 24.9562 220.563 23.4571 222.541C21.9579 224.52 24.4305 228.476 29.3367 225.375C32.9814 223.07 34.7414 217.838 35.4033 215.3C35.4266 215.21 35.4169 215.115 35.3761 215.032C39.7371 214.799 44.5655 214.313 49.8689 213.609C49.0551 214.585 46.8979 217.057 44.7874 218.394C42.1202 220.081 42.6887 224.675 47.3223 222.223C50.6593 220.458 50.3867 215.016 50.2505 213.559C54.2741 213.023 58.5651 212.375 63.1234 211.616C62.407 212.393 60.9507 213.979 60.2109 214.845C59.2102 216.011 56.6753 218.48 59.5528 220.38C62.1072 222.063 63.2675 213.497 63.4973 211.553L64.241 211.433C67.6834 210.835 71.1911 210.704 74.6686 211.044L72.4647 213.979C72.4647 213.979 67.5157 216.699 70.9072 217.935C73.8704 219.028 74.7192 212.719 74.8867 211.075C78.799 211.478 82.5827 212.697 85.9919 214.655C84.4577 214.492 81.4322 214.161 80.4471 214.002C79.1076 213.784 78.9557 217.084 81.4361 217.162C83.4297 217.224 85.7388 215.638 86.576 215.009C87.1328 215.347 87.6779 215.701 88.2113 216.085C99.776 224.38 102.377 239.876 102.4 240.032C102.419 240.13 102.474 240.218 102.555 240.276C102.636 240.335 102.737 240.36 102.837 240.347C102.897 240.336 102.954 240.312 103.004 240.277C103.069 240.233 103.119 240.172 103.148 240.099C103.177 240.027 103.184 239.948 103.168 239.872Z" fill="white" fill-opacity="0.26"/>
<path d="M16.0828 212.226C14.8718 208.638 15.7401 206.916 15.6934 201.825C15.6545 198.303 11.7762 198.941 10.8378 203.718C9.89939 208.495 16.1801 212.459 16.0828 212.226ZM222.163 261.767C190.141 255.824 168.779 255.641 142.34 263.189C104.438 274.014 38.6086 215.771 36.4475 152.074C33.9905 79.6793 106.63 21.8287 159.835 5.37599C203.586 -8.15773 246.987 3.64249 265.171 43.2603C283.355 82.8781 328.126 76.1229 346.637 115.943C390.922 211.254 330.684 281.908 222.163 261.767Z" fill="white" fill-opacity="0.16"/>
<path d="M264.789 250.814C264.198 253.847 264.793 256.991 266.45 259.602C268.107 262.212 270.702 264.091 273.702 264.853C286.186 268.005 308.31 270.729 331.311 259.854C366.356 243.289 354.814 209.163 361.683 197.036C365.764 189.826 375.514 185.24 381.277 183.044C381.513 182.947 381.711 182.777 381.84 182.557C381.97 182.338 382.024 182.082 381.995 181.83C381.965 181.577 381.853 181.34 381.677 181.157C381.5 180.973 381.268 180.852 381.016 180.813C369.93 179.355 342.615 177.276 333.768 190.503C323.255 206.19 307.555 213.046 296.142 215.852C277.113 220.516 268.886 237.983 266.939 242.978C265.998 245.523 265.279 248.145 264.789 250.814Z" fill="#FFCAB3"/>
<path opacity="0.5" d="M249.973 234.031C266.56 237.82 278.148 248.995 275.855 258.988C273.561 268.98 265.388 261.837 248.8 258.047C238.532 255.715 223.935 258.875 219.729 252.353C217.342 248.656 218.666 242.892 222.424 240.599C229.051 236.553 239.705 231.687 249.973 234.031Z" fill="#FFCAB3"/>
<path d="M132.934 263.999C132.934 263.999 140.675 228.813 137.018 204.474C131.053 164.801 111.829 129.821 73.0233 123.816C23.8871 116.217 14.8963 175.23 35.0079 161.762C55.1195 148.294 71.7383 143.249 70.6364 164.572C69.5344 185.895 63.1096 201.391 80.0672 206.584C86.3791 208.528 102.285 189.871 111.607 210.545C130.052 251.535 59.5001 272.64 132.934 263.999Z" fill="url(#paint0_linear_635_2024)"/>
<g opacity="0.5">
<path d="M159.638 189.791C159.638 189.791 164.797 173.288 160.35 174.361C155.904 175.434 161.152 186.884 159.638 189.791ZM157.64 202.929C157.64 202.929 164.649 188.073 171.596 190.223C178.542 192.372 163.411 202.042 157.64 202.929ZM153.275 198.688C153.275 198.688 156.83 186.573 149.829 185.302C142.828 184.031 153.275 198.688 153.275 198.688Z" fill="#FFCAB3"/>
<path d="M137.052 233.657C137.141 233.745 137.26 233.795 137.385 233.795C137.51 233.795 137.63 233.745 137.718 233.657C151.736 220.392 157.292 206.808 159.481 197.747C161.856 187.91 160.921 181.31 160.878 181.034C160.872 180.971 160.853 180.91 160.822 180.854C160.791 180.798 160.749 180.749 160.699 180.71C160.648 180.671 160.591 180.642 160.529 180.626C160.467 180.61 160.403 180.607 160.339 180.616C160.276 180.626 160.216 180.648 160.161 180.681C160.107 180.715 160.06 180.759 160.024 180.811C159.987 180.864 159.961 180.923 159.948 180.985C159.935 181.047 159.935 181.112 159.948 181.174C159.948 181.24 160.894 187.902 158.55 197.577C156.389 206.516 150.906 219.887 137.068 232.977C137.021 233.02 136.983 233.072 136.956 233.13C136.93 233.188 136.916 233.25 136.914 233.314C136.913 233.378 136.924 233.441 136.948 233.5C136.972 233.559 137.007 233.612 137.052 233.657Z" fill="#FFCAB3"/>
<path d="M150.555 216.61L151.458 216.874C155.103 204.359 151.995 191.828 151.964 191.7L151.049 191.933C151.08 192.065 154.125 204.355 150.555 216.61Z" fill="#FFCAB3"/>
</g>
<path d="M347.784 106.35C347.784 106.35 358.445 100.159 356.926 91.2154C355.205 81.0748 349.894 83.9899 349.836 76.3835C349.75 65.2673 344.384 60.7587 337.329 61.124C330.273 61.4894 326.59 56.009 326.59 56.009C326.59 56.009 325.063 59.9696 325.69 63.8953C326.177 66.927 331.683 66.7404 331.71 71.0081C331.768 80.7561 332.356 85.8905 339.073 88.6035C345.79 91.3164 347.784 106.35 347.784 106.35ZM372.253 90.1232C372.253 90.1232 373.397 99.2571 363.686 104.893C357.818 108.298 354.676 111.5 354.135 122.232C353.745 129.885 346.857 131.027 342.889 131.047C342.785 131.045 342.684 131.08 342.604 131.146C342.523 131.211 342.468 131.303 342.449 131.405C342.43 131.507 342.448 131.613 342.499 131.703C342.55 131.793 342.632 131.862 342.73 131.898C345.132 132.858 348.707 134.316 351.241 135.47C355.392 137.363 361.525 139.295 364.36 133.569C367.194 127.844 370.516 124.883 372.463 123.654C382.338 117.521 379.195 111.792 377.607 105.554C376.54 101.36 381.89 99.5525 378.039 94.5424C374.865 90.4108 372.253 90.1232 372.253 90.1232ZM375.854 139.516C375.854 139.516 372.225 147.978 360.98 147.95C354.189 147.95 349.851 149.117 343.964 158.107C338.076 167.097 327.512 158.519 327.512 158.519C327.512 158.519 332.146 164.349 334.774 168.08C337.403 171.811 341.702 176.577 347.059 173.051C352.417 169.526 356.794 168.64 359.091 168.574C370.718 168.255 370.901 161.725 372.681 155.541C373.88 151.383 379.417 152.521 378.623 146.252C377.965 141.083 375.854 139.516 375.854 139.516Z" fill="url(#paint1_linear_635_2024)"/>
<path opacity="0.8" d="M319.373 209.14L319.314 209.171C319.211 209.215 319.094 209.216 318.99 209.175C318.885 209.133 318.802 209.052 318.757 208.949C318.676 208.763 310.775 189.904 320.953 170.645C323.952 164.974 326.853 160.361 329.66 155.899C336.392 145.195 342.202 135.948 346.263 116.926C349.207 103.124 346.107 93.0264 341.727 89.1436C341.685 89.1066 341.651 89.0617 341.627 89.0116C341.603 88.9615 341.588 88.9071 341.585 88.8515C341.582 88.796 341.59 88.7403 341.608 88.6877C341.626 88.6351 341.655 88.5866 341.692 88.545C341.729 88.5034 341.774 88.4695 341.824 88.4452C341.874 88.421 341.929 88.4068 341.984 88.4036C342.04 88.4003 342.096 88.408 342.149 88.4263C342.201 88.4446 342.25 88.473 342.292 88.51C346.851 92.56 350.106 102.969 347.089 117.105C343 136.271 337.152 145.576 330.376 156.361C327.581 160.808 324.688 165.41 321.705 171.053C311.717 189.939 319.458 208.444 319.536 208.631C319.572 208.721 319.576 208.822 319.546 208.914C319.516 209.007 319.455 209.087 319.373 209.14Z" fill="#F9A678"/>
<path d="M134.518 249.484C134.518 249.484 109.017 280.318 82.6952 253.534C53.6745 223.995 36.1484 228.344 36.1484 228.344C36.1484 228.344 68.5295 198.568 94.8595 225.981C114.839 246.756 134.518 249.484 134.518 249.484Z" fill="url(#paint2_linear_635_2024)"/>
<path d="M109.388 252.163C99.7429 252.163 92.9443 248.622 89.6929 241.894C80.375 222.615 52.1059 223.766 51.8216 223.781C51.7613 223.783 51.7026 223.762 51.6582 223.721C51.6137 223.68 51.5871 223.624 51.5841 223.564C51.5825 223.534 51.5868 223.505 51.5968 223.477C51.6068 223.449 51.6222 223.424 51.6421 223.402C51.6621 223.38 51.6861 223.363 51.7129 223.351C51.7398 223.338 51.7688 223.331 51.7983 223.33C52.0864 223.33 80.6515 222.164 90.0979 241.695C98.0413 258.129 124.41 249.325 124.675 249.236C124.703 249.226 124.733 249.222 124.763 249.224C124.792 249.225 124.822 249.233 124.848 249.246C124.875 249.259 124.899 249.277 124.919 249.299C124.938 249.322 124.954 249.348 124.963 249.376C124.982 249.432 124.978 249.494 124.952 249.548C124.925 249.602 124.879 249.643 124.823 249.663C120.14 251.138 115.28 251.975 110.373 252.151L109.388 252.163ZM108.886 158.616C108.833 158.615 108.782 158.596 108.741 158.562C108.701 158.528 108.674 158.481 108.664 158.429C107.429 151.433 92.516 135.929 74.5148 132.213C63.2656 129.881 46.931 131.541 33.0222 152.607C32.9889 152.657 32.9371 152.692 32.8781 152.704C32.8191 152.717 32.7576 152.705 32.7068 152.673C32.6819 152.657 32.6604 152.635 32.6438 152.61C32.6271 152.586 32.6155 152.558 32.6097 152.529C32.604 152.499 32.604 152.469 32.61 152.44C32.616 152.411 32.6277 152.383 32.6445 152.358C46.6934 131.078 63.2188 129.426 74.6044 131.758C92.7846 135.513 107.858 151.247 109.111 158.34C109.116 158.369 112.5 196.137 109.109 158.428C109.102 158.457 122 198.137 109.072 158.509C109.055 158.533 109.033 158.554 109.008 158.569C108.982 158.585 108.954 158.596 108.925 158.6L108.886 158.616Z" fill="white" fill-opacity="0.5"/>
<g style="mix-blend-mode:multiply" opacity="0.06">
<path d="M167.168 272.848C207.699 272.848 240.555 270.688 240.555 268.024C240.555 265.36 207.699 263.201 167.168 263.201C126.638 263.201 93.7812 265.36 93.7812 268.024C93.7812 270.688 126.638 272.848 167.168 272.848Z" fill="#F8F8F8"/>
</g>
<g style="mix-blend-mode:multiply" opacity="0.11">
<path d="M167.168 272.611C205.709 272.611 236.953 270.557 236.953 268.024C236.953 265.491 205.709 263.438 167.168 263.438C128.627 263.438 97.3828 265.491 97.3828 268.024C97.3828 270.557 128.627 272.611 167.168 272.611Z" fill="#F0F0F0"/>
</g>
<g style="mix-blend-mode:multiply" opacity="0.17">
<path d="M167.172 272.374C203.722 272.374 233.351 270.426 233.351 268.024C233.351 265.622 203.722 263.675 167.172 263.675C130.622 263.675 100.992 265.622 100.992 268.024C100.992 270.426 130.622 272.374 167.172 272.374Z" fill="#E9E9E9"/>
</g>
<g style="mix-blend-mode:multiply" opacity="0.22">
<path d="M167.167 272.136C201.728 272.136 229.745 270.295 229.745 268.024C229.745 265.753 201.728 263.912 167.167 263.912C132.607 263.912 104.59 265.753 104.59 268.024C104.59 270.295 132.607 272.136 167.167 272.136Z" fill="#E2E2E2"/>
</g>
<g style="mix-blend-mode:multiply" opacity="0.28">
<path d="M167.171 271.903C199.741 271.903 226.143 270.167 226.143 268.024C226.143 265.882 199.741 264.145 167.171 264.145C134.602 264.145 108.199 265.882 108.199 268.024C108.199 270.167 134.602 271.903 167.171 271.903Z" fill="#DBDBDB"/>
</g>
<g style="mix-blend-mode:multiply" opacity="0.33">
<path d="M167.171 271.666C197.751 271.666 222.541 270.036 222.541 268.024C222.541 266.013 197.751 264.382 167.171 264.382C136.591 264.382 111.801 266.013 111.801 268.024C111.801 270.036 136.591 271.666 167.171 271.666Z" fill="#D3D3D3"/>
</g>
<g style="mix-blend-mode:multiply" opacity="0.39">
<path d="M167.171 271.429C195.759 271.429 218.935 269.905 218.935 268.024C218.935 266.144 195.759 264.619 167.171 264.619C138.582 264.619 115.406 266.144 115.406 268.024C115.406 269.905 138.582 271.429 167.171 271.429Z" fill="#CCCCCC"/>
</g>
<g style="mix-blend-mode:multiply" opacity="0.44">
<path d="M167.174 271.192C193.774 271.192 215.337 269.774 215.337 268.024C215.337 266.275 193.774 264.856 167.174 264.856C140.575 264.856 119.012 266.275 119.012 268.024C119.012 269.774 140.575 271.192 167.174 271.192Z" fill="#C5C5C5"/>
</g>
<g style="mix-blend-mode:multiply" opacity="0.5">
<path d="M167.166 270.955C191.775 270.955 211.723 269.643 211.723 268.024C211.723 266.406 191.775 265.094 167.166 265.094C142.558 265.094 122.609 266.406 122.609 268.024C122.609 269.643 142.558 270.955 167.166 270.955Z" fill="#BEBEBE"/>
</g>
<g style="mix-blend-mode:multiply" opacity="0.56">
<path d="M167.17 270.718C189.789 270.718 208.125 269.512 208.125 268.024C208.125 266.537 189.789 265.331 167.17 265.331C144.551 265.331 126.215 266.537 126.215 268.024C126.215 269.512 144.551 270.718 167.17 270.718Z" fill="#B6B6B6"/>
</g>
<g style="mix-blend-mode:multiply" opacity="0.61">
<path d="M167.17 270.481C187.797 270.481 204.519 269.381 204.519 268.024C204.519 266.668 187.797 265.568 167.17 265.568C146.542 265.568 129.82 266.668 129.82 268.024C129.82 269.381 146.542 270.481 167.17 270.481Z" fill="#AFAFAF"/>
</g>
<g style="mix-blend-mode:multiply" opacity="0.67">
<path d="M167.17 270.244C185.808 270.244 200.917 269.25 200.917 268.024C200.917 266.799 185.808 265.805 167.17 265.805C148.531 265.805 133.422 266.799 133.422 268.024C133.422 269.25 148.531 270.244 167.17 270.244Z" fill="#A8A8A8"/>
</g>
<g style="mix-blend-mode:multiply" opacity="0.72">
<path d="M167.169 270.006C183.816 270.006 197.312 269.119 197.312 268.024C197.312 266.929 183.816 266.042 167.169 266.042C150.522 266.042 137.027 266.929 137.027 268.024C137.027 269.119 150.522 270.006 167.169 270.006Z" fill="#A0A0A0"/>
</g>
<g style="mix-blend-mode:multiply" opacity="0.78">
<path d="M167.173 269.769C181.831 269.769 193.713 268.988 193.713 268.024C193.713 267.06 181.831 266.279 167.173 266.279C152.515 266.279 140.633 267.06 140.633 268.024C140.633 268.988 152.515 269.769 167.173 269.769Z" fill="#999999"/>
</g>
<g style="mix-blend-mode:multiply" opacity="0.83">
<path d="M167.173 269.532C179.839 269.532 190.108 268.857 190.108 268.024C190.108 267.191 179.839 266.516 167.173 266.516C154.506 266.516 144.238 267.191 144.238 268.024C144.238 268.857 154.506 269.532 167.173 269.532Z" fill="#929292"/>
</g>
<g style="mix-blend-mode:multiply" opacity="0.89">
<path d="M167.173 269.295C177.85 269.295 186.506 268.726 186.506 268.024C186.506 267.322 177.85 266.753 167.173 266.753C156.495 266.753 147.84 267.322 147.84 268.024C147.84 268.726 156.495 269.295 167.173 269.295Z" fill="#8B8B8B"/>
</g>
<g style="mix-blend-mode:multiply" opacity="0.94">
<path d="M167.169 269.058C175.854 269.058 182.896 268.595 182.896 268.024C182.896 267.453 175.854 266.99 167.169 266.99C158.483 266.99 151.441 267.453 151.441 268.024C151.441 268.595 158.483 269.058 167.169 269.058Z" fill="#838383"/>
</g>
<g style="mix-blend-mode:multiply">
<path d="M167.168 268.821C173.865 268.821 179.294 268.464 179.294 268.024C179.294 267.584 173.865 267.227 167.168 267.227C160.472 267.227 155.043 267.584 155.043 268.024C155.043 268.464 160.472 268.821 167.168 268.821Z" fill="#7C7C7C"/>
</g>
<path d="M147.444 146.889C136.993 148.397 135.591 131.731 145.925 131.385C156.357 129.877 157.778 146.528 147.444 146.889Z" fill="url(#paint3_linear_635_2024)"/>
<path d="M142.562 149.175L142.418 141.786L147.449 144.763L142.562 149.175Z" fill="url(#paint4_linear_635_2024)"/>
<path d="M143.057 142.61C143.185 142.559 143.886 142.738 143.867 142.47V137.417C143.886 137.153 143.185 137.316 143.057 137.273C142.73 137.273 143.002 142.326 142.916 142.47C142.916 142.507 142.931 142.543 142.957 142.569C142.984 142.595 143.019 142.61 143.057 142.61ZM144.454 137.433C144.4 137.149 145.545 137.017 145.689 136.924C146.993 136.605 146.561 134.288 146.495 134.238C146.457 134.125 146.455 134.003 146.489 133.889C146.523 133.776 146.593 133.675 146.687 133.602C146.781 133.53 146.896 133.488 147.015 133.484C147.134 133.479 147.252 133.512 147.351 133.577C148.368 134.312 148.422 135.999 147.971 137.277H150.653C151.857 137.378 151.432 138.941 150.33 138.673C150.493 138.703 150.64 138.79 150.745 138.918C150.85 139.046 150.906 139.207 150.904 139.372C150.901 139.538 150.839 139.697 150.73 139.822C150.621 139.946 150.471 140.028 150.307 140.052C151.121 140.441 150.583 141.607 149.738 141.386C151.623 143.473 145.276 142.447 144.676 142.672C144.201 142.874 144.56 137.538 144.454 137.433Z" fill="white"/>
<path d="M368.621 62.7565L366.094 58.6831H360.315C359.892 58.6821 359.487 58.5139 359.187 58.2153C358.888 57.9166 358.72 57.5119 358.719 57.0896V40.5125C358.719 40.0895 358.887 39.6838 359.186 39.3843C359.485 39.0848 359.891 38.9161 360.315 38.915H376.922C377.347 38.915 377.754 39.0833 378.054 39.3829C378.354 39.6825 378.523 40.0888 378.523 40.5125V57.0896C378.522 57.5126 378.353 57.9179 378.053 58.2166C377.753 58.5154 377.346 58.6831 376.922 58.6831H371.148L368.621 62.7565ZM360.315 39.3737C360.009 39.3798 359.718 39.5053 359.504 39.7233C359.29 39.9413 359.17 40.2345 359.17 40.5397V57.1168C359.17 57.4198 359.291 57.7105 359.506 57.9248C359.72 58.1391 360.012 58.2595 360.315 58.2595H366.347L368.621 61.9247L370.895 58.2595H376.922C377.228 58.2595 377.522 58.1399 377.74 57.9262C377.959 57.7126 378.084 57.422 378.09 57.1168V40.5125C378.09 40.2032 377.967 39.9067 377.748 39.688C377.529 39.4693 377.232 39.3465 376.922 39.3465L360.315 39.3737Z" fill="#FFFFFC"/>
<path d="M368.7 54.6874C368.471 54.6881 368.251 54.6003 368.085 54.4425C367.549 53.8565 366.975 53.306 366.368 52.7945C364.569 51.1893 362.33 49.1876 362.369 47.5979C362.256 46.7472 362.434 45.8836 362.874 45.1461C363.313 44.4086 363.988 43.8401 364.791 43.5324C365.446 43.2495 366.176 43.1868 366.871 43.3536C367.565 43.5204 368.187 43.9078 368.642 44.4574C369.075 43.9329 369.66 43.5558 370.317 43.3782C370.975 43.2006 371.671 43.2314 372.31 43.4663C373.086 43.733 373.755 44.2422 374.219 44.9185C374.683 45.5947 374.916 46.4021 374.883 47.2209C375.063 49.0088 372.847 51.0611 371.064 52.7052C370.458 53.2345 369.888 53.8032 369.358 54.4076C369.273 54.4956 369.17 54.5657 369.057 54.6137C368.944 54.6618 368.823 54.6868 368.7 54.6874ZM366.13 43.7228C365.73 43.7258 365.334 43.8036 364.962 43.9522C364.249 44.2277 363.65 44.7352 363.262 45.3926C362.875 46.0499 362.72 46.8188 362.824 47.5746C362.793 48.9894 365.036 50.995 366.675 52.4603C367.294 52.9799 367.878 53.5395 368.424 54.1355C368.508 54.2081 368.617 54.246 368.728 54.2417C368.839 54.2374 368.945 54.1911 369.023 54.1122C369.561 53.4932 370.141 52.9126 370.76 52.3748C372.473 50.7929 374.603 48.8223 374.436 47.2559V47.2209C374.466 46.4965 374.261 45.7817 373.852 45.1824C373.443 44.5831 372.852 44.1313 372.166 43.8939C371.57 43.6769 370.919 43.6634 370.316 43.8554C369.712 44.0475 369.189 44.4342 368.829 44.9549L368.646 45.2115L368.463 44.9588C368.205 44.5779 367.857 44.266 367.451 44.0505C367.044 43.835 366.591 43.7224 366.13 43.7228Z" fill="#FFFFFC"/>
<path d="M104.441 91.1296H72.021C70.9178 91.1296 70.0234 92.0223 70.0234 93.1236V107.749C70.0234 108.851 70.9178 109.743 72.021 109.743H104.441C105.544 109.743 106.438 108.851 106.438 107.749V93.1236C106.438 92.0223 105.544 91.1296 104.441 91.1296Z" fill="white"/>
<path d="M88.2272 113.832L83.543 106.288H92.9115L88.2272 113.832Z" fill="white"/>
<path d="M83.0604 99.4124C83.1421 97.0415 80.1906 95.8055 78.8122 97.7139C77.3403 95.6928 74.2214 97.2164 74.529 99.6573C74.4901 101.146 77.6791 103.354 78.5163 104.368C78.6045 104.455 78.7234 104.504 78.8473 104.504C78.9711 104.504 79.0901 104.455 79.1782 104.368C80.0816 103.245 83.2395 101.088 83.0604 99.4124Z" fill="url(#paint5_linear_635_2024)"/>
<path d="M90.9406 98.9967C90.9481 99.3606 90.82 99.7143 90.5812 99.9893C90.3423 100.264 90.0097 100.441 89.6478 100.485V100.52C93.2924 101.624 89.7724 104.99 87.0039 103.459V102.584C89.7296 104.236 91.8751 100.715 87.9384 100.959V100.159C91.2793 100.493 89.9632 97.0494 87.5023 98.8101L87.0234 98.126C88.1175 97.2243 90.8899 97.1232 90.9406 98.9967ZM96.0493 100.649C96.4386 104.823 91.5129 104.769 91.8907 100.649C91.4779 96.4469 96.427 96.5091 96.0493 100.649ZM92.8875 100.649C92.576 103.7 95.3562 103.68 95.0563 100.649C95.3562 97.613 92.576 97.5858 92.8875 100.649ZM101.921 103.704H100.753L98.2337 100.594V103.704H97.233V97.5935H98.2337V100.551L100.71 97.5935H101.808L99.3395 100.544L101.921 103.704Z" fill="#5620B3"/>
<mask id="mask0_635_2024" style="mask-type:luminance" maskUnits="userSpaceOnUse" x="223" y="64" width="17" height="17">
<path d="M239.258 72.2711C239.079 82.6877 223.558 82.6877 223.379 72.2711C223.558 61.8546 239.083 61.8546 239.258 72.2711Z" fill="white"/>
</mask>
<g mask="url(#mask0_635_2024)">
<path d="M233.452 67.6419C236.267 70.3626 231.894 74.7197 229.169 71.9173C226.369 69.181 230.726 64.8356 233.452 67.6419Z" fill="#FDFDFD"/>
<path d="M233.77 73.0757C232.699 74.7198 229.935 74.7198 228.868 73.0757C223.596 75.3844 225.449 83.9586 231.317 83.7643C237.185 83.9586 239.042 75.3805 233.77 73.0757Z" fill="#FDFDFD"/>
</g>
<path d="M231.322 80.3091C227.455 80.3091 223.25 77.7943 223.145 72.2751C223.242 66.7481 227.428 64.2334 231.322 64.2334C235.188 64.2334 239.39 66.7481 239.499 72.2673C239.393 77.7943 235.188 80.3091 231.322 80.3091ZM231.322 64.6843C227.669 64.6843 223.697 67.0591 223.612 72.2751C223.697 77.4834 227.669 79.8582 231.322 79.8582C234.974 79.8582 238.946 77.4834 239.035 72.2712C238.946 67.0591 234.974 64.6843 231.325 64.6843H231.322Z" fill="white"/>
<path d="M320.365 19.7881H238.517C237.301 19.7881 236.135 20.2701 235.276 21.128C234.416 21.9859 233.934 23.1495 233.934 24.3628V38.4135C233.934 39.6268 234.416 40.7904 235.276 41.6483C236.135 42.5062 237.301 42.9882 238.517 42.9882H275.391L279.437 51.0688L283.49 42.9882H320.365C320.968 42.9897 321.565 42.8725 322.122 42.6433C322.68 42.4141 323.186 42.0774 323.613 41.6524C324.04 41.2275 324.378 40.7226 324.61 40.1669C324.841 39.6111 324.96 39.0152 324.96 38.4135V24.3628C324.96 23.7611 324.841 23.1652 324.61 22.6095C324.378 22.0537 324.04 21.5488 323.613 21.1239C323.186 20.6989 322.68 20.3622 322.122 20.133C321.565 19.9038 320.968 19.7866 320.365 19.7881Z" fill="url(#paint6_linear_635_2024)"/>
<path d="M248.354 28.8053C248.46 25.8825 244.823 24.3589 243.121 26.7142C241.307 24.2228 237.463 26.1001 237.861 29.1318C237.814 30.9702 241.754 33.691 242.775 34.9386C242.883 35.0464 243.03 35.1069 243.183 35.1069C243.337 35.1069 243.484 35.0464 243.592 34.9386C244.69 33.5433 248.58 30.8731 248.354 28.8053Z" fill="white"/>
<path d="M269.57 35.1253L270.696 30.053L274.309 32.9798L269.57 35.1253Z" fill="white"/>
<path d="M280.183 30.0143C280.183 35.8833 268.973 35.8833 268.961 30.0143C268.949 24.1453 280.183 24.1453 280.183 30.0143ZM309.313 29.7733C310.263 31.398 305.329 34.4064 302.693 34.3792C299.672 34.3792 297.09 31.9771 296.074 30.8811C295.124 29.2564 300.053 26.2519 302.693 26.2791C305.699 26.2675 308.281 28.6656 309.313 29.7733Z" fill="white"/>
<mask id="mask1_635_2024" style="mask-type:luminance" maskUnits="userSpaceOnUse" x="295" y="26" width="15" height="9">
<path d="M309.312 29.7732C310.262 31.3979 305.329 34.4062 302.692 34.379C299.671 34.379 297.089 31.977 296.073 30.8809C295.123 29.2563 300.052 26.2518 302.692 26.279C305.699 26.2673 308.28 28.6655 309.312 29.7732Z" fill="white"/>
</mask>
<g mask="url(#mask1_635_2024)">
<path d="M306.22 29.2096C306.282 34.5656 299.083 34.5656 299.145 29.2096C299.083 23.8536 306.275 23.8536 306.22 29.2096Z" fill="url(#paint7_linear_635_2024)"/>
<path d="M303.941 29.3883C303.965 31.3084 301.383 31.3084 301.406 29.3883C301.43 27.4682 303.976 27.4682 303.941 29.3883Z" fill="white"/>
</g>
<path d="M251.932 28.0321C253.346 27.9077 253.879 29.614 252.481 30.197C254.039 30.7528 253.552 32.7467 251.944 32.6146C250.344 32.7972 249.822 30.8033 251.313 30.2203C250.028 29.6101 250.523 27.9038 251.932 28.0321ZM251.103 31.398C251.574 33.116 254.074 31.2387 251.862 30.5196C251.414 30.7256 251.119 30.9355 251.103 31.398ZM251.925 28.584C250.967 28.584 251.119 29.7034 251.925 29.9016C252.773 29.6917 252.871 28.5646 251.925 28.584ZM257.205 31.6001H256.601V32.5718H255.9V31.6001H253.856V31.0482L255.9 28.0981H256.601V31.0016H257.205V31.6001ZM255.9 31.0016C255.9 30.4613 255.9 29.3691 255.931 28.9027H255.908C255.483 29.6253 255.022 30.3259 254.526 31.0016H255.9ZM259.089 29.7656C262.158 30.1309 259.903 33.7612 257.656 32.3736V31.7245C259.88 33.0926 260.904 29.7811 258.069 30.4574L257.746 30.2708L257.917 28.0904H260.253V28.7278H258.564L258.462 29.8316C258.669 29.7909 258.879 29.7687 259.089 29.7656ZM282.444 32.5524L284.212 28.7278H281.876V28.102H284.968C285.263 28.2381 283.285 32.3269 283.211 32.5602L282.444 32.5524ZM287.023 28.0321C288.437 27.9077 288.97 29.614 287.576 30.197C289.134 30.7528 288.643 32.7467 287.035 32.6146C285.435 32.7972 284.917 30.8033 286.404 30.2203C285.123 29.6101 285.63 27.9038 287.023 28.0321ZM286.194 31.398C286.665 33.116 289.165 31.2387 286.953 30.5196C286.506 30.7256 286.21 30.9355 286.194 31.398ZM287.02 28.584C286.058 28.584 286.214 29.7034 287.02 29.9016C287.865 29.6917 287.966 28.5646 287.02 28.584ZM313.7 29.1204C313.706 29.3856 313.613 29.6435 313.438 29.844C313.264 30.0444 313.022 30.173 312.758 30.2048V30.2281C315.511 31.0987 312.641 33.493 310.811 32.3775V31.74C312.812 32.9449 314.37 30.3719 311.492 30.5507V29.9677C313.91 30.2398 312.937 27.6784 311.173 28.9804L310.823 28.479C311.652 27.8222 313.665 27.7483 313.7 29.1204ZM314.923 32.5563L316.691 28.7317H314.354V28.102H317.446C317.742 28.2381 315.76 32.3269 315.686 32.5602L314.923 32.5563ZM318.003 30.6556C317.948 28.6501 319.089 27.7872 320.728 28.0865V28.685C319.595 28.3974 318.684 28.9571 318.719 30.2398H318.727C319.985 28.6267 321.928 30.9355 320.639 32.2142C319.506 33.2714 317.804 32.1676 318.003 30.6556ZM319.56 32.0238C320.561 32.0976 320.623 30.2087 319.56 30.2825C318.431 30.2203 318.517 32.0199 319.564 32.0238H319.56Z" fill="white"/>
<path d="M193.155 27.1379H122.366C121.445 27.1379 120.699 27.8827 120.699 28.8015V110.754C120.699 111.673 121.445 112.417 122.366 112.417H193.155C194.076 112.417 194.822 111.673 194.822 110.754V28.8015C194.822 27.8827 194.076 27.1379 193.155 27.1379Z" fill="url(#paint8_linear_635_2024)"/>
<path d="M190.058 96.9599C189.446 96.3653 124.758 98.0793 124.871 96.373V32.9643C124.871 32.5242 125.046 32.102 125.358 31.7908C125.67 31.4795 126.093 31.3047 126.534 31.3047H188.979C189.198 31.3042 189.414 31.3467 189.617 31.4299C189.819 31.5131 190.003 31.6353 190.157 31.7894C190.312 31.9436 190.435 32.1267 190.519 32.3283C190.603 32.5299 190.646 32.7461 190.646 32.9643C190.046 33.5746 191.79 97.0649 190.058 96.9599Z" fill="#FFFFFC"/>
<path d="M190.233 96.9598C189.816 96.5711 124.786 97.7371 124.879 96.54V32.797C124.879 32.6012 124.918 32.4073 124.993 32.2265C125.068 32.0456 125.178 31.8813 125.317 31.743C125.456 31.6048 125.621 31.4952 125.802 31.4206C125.984 31.346 126.178 31.3079 126.374 31.3084H189.15C189.347 31.3079 189.541 31.346 189.722 31.4206C189.904 31.4952 190.069 31.6048 190.208 31.743C190.346 31.8813 190.457 32.0456 190.532 32.2265C190.607 32.4073 190.646 32.6012 190.646 32.797C190.233 33.2207 191.428 97.0492 190.233 96.9598Z" fill="#FFFFFC"/>
<mask id="mask2_635_2024" style="mask-type:luminance" maskUnits="userSpaceOnUse" x="124" y="31" width="67" height="67">
<path d="M190.233 96.9597C189.816 96.571 124.786 97.7371 124.879 96.5399V32.797C124.879 32.6012 124.918 32.4073 124.993 32.2264C125.068 32.0455 125.178 31.8813 125.317 31.743C125.456 31.6047 125.621 31.4951 125.802 31.4206C125.984 31.346 126.178 31.3078 126.374 31.3084H189.15C189.347 31.3078 189.541 31.346 189.722 31.4206C189.904 31.4951 190.069 31.6047 190.208 31.743C190.346 31.8813 190.457 32.0455 190.532 32.2264C190.607 32.4073 190.646 32.6012 190.646 32.797C190.233 33.2206 191.428 97.0491 190.233 96.9597Z" fill="white"/>
</mask>
<g mask="url(#mask2_635_2024)">
<path d="M173.521 64.6373C169.382 67.4708 168.848 75.3453 170.149 79.2671C171.706 82.0967 169.896 87.8724 169.028 88.2067C168.159 88.5409 166.952 88.8674 168.362 89.7186C172.937 91.4094 171.909 82.8468 174.467 80.1494C175.826 78.482 183.956 71.9133 180.499 66.192C178.353 62.5812 175.655 63.0826 173.521 64.6373Z" fill="url(#paint9_linear_635_2024)"/>
<path d="M150.039 81.9798C150.039 81.9798 157.526 77.0748 159.29 73.0053C161.054 68.9359 169.414 56.953 176.096 59.973C182.778 62.993 184.822 71.6333 178.043 75.178C171.264 78.7227 164.882 82.8777 160.641 85.1048C158.601 86.2242 140.935 86.4729 150.039 81.9798Z" fill="url(#paint10_linear_635_2024)"/>
<path d="M177.584 64.9404C190.566 60.1208 180.489 45.8952 170.217 49.9103C168.067 50.7887 166.428 53.3073 168.472 55.1691C170.809 57.5205 166.965 61.0731 164.8 58.5622C160.735 54.3528 163.165 47.6793 168.429 45.8913C182.953 40.31 196.208 61.5822 178.452 67.4007C178.13 67.4958 177.784 67.4639 177.486 67.3116C177.187 67.1593 176.958 66.8983 176.847 66.5824C176.735 66.2666 176.75 65.9201 176.887 65.6145C177.024 65.3089 177.273 65.0676 177.584 64.9404Z" fill="url(#paint11_linear_635_2024)"/>
<path d="M174.538 65.3641C170.937 68.8621 171.731 76.7095 173.678 80.3514C175.679 82.8817 174.877 88.8751 174.067 89.3415C170.598 91.0128 176.341 92.2916 176.668 88.809C176.801 87.6119 177.003 82.3492 178.07 80.4836C179.137 78.6179 186.041 70.7667 181.672 65.7139C178.938 62.5228 176.38 63.4712 174.538 65.3641Z" fill="url(#paint12_linear_635_2024)"/>
<path d="M148.393 83.8805C148.393 83.8805 139.188 89.7417 137.319 89.8078C135.45 89.8739 136.65 91.9416 140.119 91.0749C143.588 90.2081 152.996 87.3047 152.264 85.7267C151.532 84.1487 150.025 82.866 148.393 83.8805Z" fill="url(#paint13_linear_635_2024)"/>
<path d="M156.529 83.8261C156.529 83.8261 149.387 90.7407 145.813 90.8806C143.948 90.9544 145.147 93.0144 148.616 92.1477C152.086 91.2809 160.621 87.8062 161.392 83.8611C161.723 82.1548 158.16 82.8078 156.529 83.8261Z" fill="url(#paint14_linear_635_2024)"/>
<path d="M143.784 75.2948C147.737 77.6269 144.995 82.1511 141.094 79.7413C140.023 79.0456 138.181 75.8351 139.493 75.2015C140.513 74.9411 142.566 74.5602 143.784 75.2948Z" fill="#5620B3"/>
<path d="M143.359 75.9088C146.179 77.5685 144.224 80.8023 141.44 79.0804C140.661 78.5324 139.372 76.3597 140.299 75.8389C141.027 75.6523 142.487 75.3802 143.359 75.9088Z" fill="#FFFFFC"/>
<path d="M149.035 72.7411C148.439 77.2847 153.708 77.9182 154.202 73.3668C154.315 72.0959 152.917 68.6716 151.605 69.3091C150.772 69.9504 149.207 71.3302 149.035 72.7411Z" fill="#5620B3"/>
<path d="M149.779 72.7994C149.355 76.0371 153.109 76.4919 153.467 73.2425C153.518 72.2864 152.599 69.9466 151.61 70.3469C151.018 70.7861 149.9 71.7694 149.779 72.7994Z" fill="#FFFFFC"/>
<path d="M155.551 75.2869C159.141 84.6735 147.308 90.4453 142.117 81.8245C138.616 74.6067 152.015 68.0886 155.551 75.2869Z" fill="url(#paint15_linear_635_2024)"/>
<path d="M144.07 79.8461C144.054 79.8511 144.036 79.8511 144.019 79.8461C144.006 79.8398 143.995 79.831 143.985 79.8202C143.975 79.8093 143.968 79.7967 143.963 79.7829C143.958 79.7691 143.956 79.7545 143.957 79.74C143.958 79.7255 143.962 79.7113 143.969 79.6984C143.969 79.6789 144.884 77.9066 146.827 78.303C146.857 78.3096 146.883 78.3274 146.899 78.3528C146.916 78.3783 146.922 78.4092 146.916 78.439C146.91 78.4677 146.892 78.4927 146.868 78.5087C146.843 78.5247 146.813 78.5304 146.784 78.5246C146.269 78.426 145.736 78.4971 145.265 78.727C144.794 78.9569 144.41 79.3332 144.171 79.7994C144.16 79.8153 144.145 79.8279 144.127 79.8361C144.109 79.8442 144.09 79.8477 144.07 79.8461ZM149.958 76.9776C149.941 76.9812 149.924 76.9812 149.907 76.9776C149.894 76.971 149.882 76.9618 149.872 76.9506C149.862 76.9394 149.855 76.9264 149.85 76.9123C149.845 76.8982 149.843 76.8834 149.845 76.8686C149.846 76.8538 149.85 76.8393 149.856 76.826C149.856 76.826 150.771 75.0381 152.718 75.4346C152.748 75.4408 152.773 75.4584 152.79 75.4835C152.806 75.5087 152.812 75.5393 152.806 75.5687C152.8 75.598 152.782 75.6238 152.757 75.6402C152.732 75.6566 152.701 75.6623 152.672 75.6561C150.896 75.2947 150.067 76.9115 150.059 76.9271C150.048 76.9437 150.033 76.9571 150.015 76.9659C149.997 76.9748 149.977 76.9788 149.958 76.9776ZM147.789 82.9049C147.51 82.902 147.236 82.8352 146.988 82.7099C146.74 82.5845 146.523 82.4039 146.356 82.182C146.346 82.1705 146.339 82.1573 146.335 82.1431C146.331 82.1288 146.329 82.1139 146.331 82.0991C146.332 82.0843 146.336 82.0699 146.343 82.0568C146.35 82.0437 146.36 82.0321 146.371 82.0226C146.383 82.0132 146.396 82.0061 146.41 82.0018C146.425 81.9975 146.44 81.996 146.454 81.9974C146.469 81.9989 146.484 82.0032 146.497 82.0102C146.51 82.0172 146.522 82.0267 146.531 82.0382C146.704 82.2729 146.939 82.455 147.21 82.5641C147.481 82.6732 147.777 82.7051 148.065 82.6562C148.405 82.5939 148.723 82.4453 148.988 82.2247C149.253 82.0041 149.457 81.719 149.58 81.3969C149.679 81.1228 149.7 80.8266 149.641 80.5412C149.582 80.2558 149.445 79.9923 149.245 79.78C149.225 79.7573 149.216 79.7278 149.218 79.6979C149.22 79.668 149.234 79.6402 149.257 79.6206C149.279 79.601 149.309 79.5913 149.339 79.5934C149.369 79.5956 149.397 79.6096 149.416 79.6323C149.646 79.8733 149.804 80.1731 149.872 80.4984C149.941 80.8237 149.918 81.1616 149.806 81.4746C149.668 81.8339 149.441 82.152 149.145 82.3983C148.849 82.6447 148.495 82.8111 148.116 82.8816C148.008 82.8977 147.898 82.9055 147.789 82.9049Z" fill="#FFFFFC"/>
<path d="M151.187 81.191C150.965 81.1926 150.745 81.1584 150.533 81.0899C150.217 80.9872 149.936 80.7992 149.72 80.5468C149.504 80.2944 149.363 79.9873 149.311 79.6596C149.308 79.645 149.308 79.6301 149.311 79.6156C149.314 79.601 149.32 79.5872 149.328 79.575C149.336 79.5627 149.347 79.5522 149.359 79.544C149.372 79.5359 149.386 79.5302 149.4 79.5274C149.429 79.5216 149.459 79.5273 149.484 79.5433C149.509 79.5593 149.526 79.5843 149.533 79.6129C149.577 79.9015 149.701 80.1721 149.89 80.395C150.079 80.6179 150.326 80.7844 150.603 80.8761C150.933 80.978 151.284 80.9933 151.622 80.9205C151.959 80.8476 152.272 80.6891 152.531 80.4603C152.747 80.264 152.904 80.012 152.985 79.7321C153.066 79.4522 153.068 79.1554 152.99 78.8745C152.983 78.8456 152.988 78.8151 153.003 78.7896C153.018 78.7642 153.043 78.7458 153.072 78.7384C153.087 78.7344 153.102 78.7335 153.117 78.7357C153.132 78.7379 153.146 78.7431 153.159 78.7512C153.172 78.7592 153.183 78.7699 153.191 78.7824C153.2 78.7949 153.206 78.8091 153.208 78.8239C153.297 79.1436 153.294 79.4815 153.201 79.7999C153.108 80.1183 152.929 80.4048 152.683 80.6274C152.271 80.9931 151.739 81.1939 151.187 81.191Z" fill="#FFFFFC"/>
<path d="M150.353 79.4924C149.991 78.7928 149.469 79.3758 148.99 79.5118C148.907 79.5332 148.83 79.5733 148.764 79.6291C148.699 79.6848 148.647 79.7547 148.613 79.8335C148.579 79.9122 148.563 79.9977 148.567 80.0834C148.571 80.1691 148.594 80.2528 148.636 80.328C148.76 80.6934 149.636 80.7983 149.932 80.9383C149.959 80.9459 149.987 80.9433 150.011 80.9311C150.036 80.9188 150.055 80.8978 150.065 80.8722C150.127 80.5729 150.559 79.7955 150.353 79.4924Z" fill="white"/>
<path d="M164.882 59.8059C164.835 59.8719 169.165 61.4033 168.301 59.4871C167.717 58.2045 163.55 54.0457 165.797 50.4543C170.181 41.6236 185.145 49.3427 186.847 54.0418C186.847 54.0418 191.679 43.9362 177.502 42.2532C163.324 40.5702 157.02 42.191 158.5 51.6709C159.98 61.1507 164.882 59.8059 164.882 59.8059Z" fill="url(#paint16_linear_635_2024)"/>
<mask id="mask3_635_2024" style="mask-type:luminance" maskUnits="userSpaceOnUse" x="147" y="59" width="36" height="27">
<path d="M150.039 81.9798C150.039 81.9798 157.526 77.0748 159.29 73.0053C161.054 68.9359 169.414 56.953 176.096 59.973C182.778 62.993 184.822 71.6333 178.043 75.178C171.264 78.7227 164.882 82.8777 160.641 85.1048C158.601 86.2242 140.935 86.4729 150.039 81.9798Z" fill="white"/>
</mask>
<g mask="url(#mask3_635_2024)">
<path style="mix-blend-mode:screen" opacity="0.4" d="M174.203 56.7313C186.087 59.4054 161.381 69.5343 163.102 70.7237C161.178 73.6388 157.199 78.3418 157.518 74.8631C158.211 67.3811 171.98 55.9695 174.203 56.7313Z" fill="url(#paint17_linear_635_2024)"/>
</g>
<path d="M111.379 56.4128C121.522 93.7724 157.782 17.5218 192.76 38.9224C215.344 51.9897 201.49 10.6772 201.49 10.6772H129.283L104.062 21.6729L111.379 56.4128Z" fill="url(#paint18_linear_635_2024)"/>
<path d="M139.484 88.8867C139.569 94.7479 130.349 94.7479 130.438 88.8867C130.352 83.0293 139.569 83.0293 139.484 88.8867Z" fill="#BE67E9"/>
<path d="M139.405 95.1173C137.458 95.1173 134.46 93.9513 132.361 92.5015C132.03 92.2776 131.762 91.9724 131.582 91.6153C130.593 91.6387 129.607 91.5076 128.658 91.2266C128.324 91.1301 128 90.9999 127.692 90.838C127.63 90.9429 127.568 91.0478 127.509 91.1606L127.21 90.9934L127.408 90.6553C127.152 90.4999 126.943 90.2769 126.806 90.0108C126.668 89.7447 126.607 89.4458 126.629 89.1472C126.773 87.4293 129.546 85.4004 132.47 84.2343C132.47 83.8457 132.47 83.5697 132.47 83.5153H132.809C132.809 83.5153 132.809 83.7407 132.809 84.0944C133.743 83.7361 134.715 83.4845 135.706 83.3443C136.268 83.2948 136.834 83.3408 137.38 83.4803C137.644 83.3466 137.922 83.2436 138.21 83.1733C138.65 83.0761 138.957 83.1383 139.129 83.3715C139.209 83.5423 139.251 83.7288 139.251 83.9176C139.251 84.1064 139.209 84.2928 139.129 84.4637C139.285 84.6198 139.429 84.7874 139.561 84.9651C140.55 85.1477 141.332 85.4781 141.71 85.9523C141.963 86.271 142.15 86.8152 141.617 87.5925C141.276 88.0554 140.861 88.4597 140.39 88.7896C140.299 89.4777 140.102 90.1476 139.806 90.7758C140.16 91.2532 140.483 91.753 140.772 92.2722C141.395 93.3877 141.438 94.1961 140.9 94.682C140.47 95.0007 139.94 95.1551 139.405 95.1173ZM135.943 93.9901C138.042 94.7908 140.012 95.0435 140.686 94.4371C141.188 93.9824 140.857 93.104 140.491 92.4432C140.235 91.9878 139.954 91.5467 139.65 91.1217C139.103 92.1444 138.271 92.9878 137.256 93.5509C136.859 93.7994 136.41 93.9499 135.943 93.9901ZM133.708 91.421C134.028 92.346 134.464 93.0884 135.056 93.4382C135.647 93.788 136.29 93.7181 137.088 93.2555C138.095 92.696 138.909 91.8468 139.424 90.8185C139.175 90.4882 138.907 90.1656 138.646 89.8585C137.085 90.6165 135.422 91.1429 133.708 91.421ZM131.956 91.6037C132.111 91.8489 132.315 92.0593 132.556 92.2217C133.127 92.6167 133.726 92.9713 134.347 93.2827C133.904 92.7514 133.571 92.1369 133.37 91.4754C132.898 91.5415 132.423 91.5842 131.956 91.6037ZM127.864 90.5503C128.147 90.7007 128.444 90.8231 128.752 90.9157C129.412 91.1087 130.093 91.2223 130.78 91.2539C130.375 90.9456 130.066 90.5273 129.892 90.049C129.649 89.5054 129.573 88.9021 129.674 88.3155C128.971 88.9736 128.361 89.7256 127.864 90.5503ZM131.793 91.25C132.28 91.2464 132.76 91.1251 133.19 90.8963C132.949 89.9894 132.778 89.0656 132.676 88.1328C132.24 88.7328 131.926 89.4131 131.754 90.1345C131.671 90.5036 131.685 90.8875 131.793 91.25ZM130.153 87.919C130.022 88.238 129.959 88.5809 129.968 88.9256C129.978 89.2703 130.059 89.6093 130.208 89.9207C130.299 90.212 130.456 90.4784 130.668 90.6989C130.879 90.9193 131.139 91.088 131.427 91.1917C131.346 90.8215 131.346 90.4385 131.427 90.0684C131.651 89.1786 132.063 88.3466 132.634 87.6275C132.61 87.3826 132.587 87.1416 132.571 86.9084C131.689 87.0233 130.854 87.3723 130.153 87.919ZM133.592 91.0712C135.249 90.7988 136.859 90.2964 138.377 89.5787C137.9 89.0809 137.378 88.6269 136.82 88.2222C135.919 89.3525 134.827 90.3156 133.592 91.0673V91.0712ZM132.992 87.713C133.083 88.7332 133.256 89.7445 133.51 90.7369C134.67 90.0148 135.701 89.1029 136.559 88.0395C135.696 87.4379 134.704 87.049 133.662 86.9046C133.412 87.1805 133.187 87.4409 132.992 87.713ZM138.953 89.6991C139.179 89.9518 139.397 90.2122 139.604 90.4765C139.801 90.0242 139.946 89.5508 140.036 89.0656C139.682 89.2955 139.317 89.507 138.942 89.6991H138.953ZM132.482 84.5919C129.632 85.758 127.097 87.7013 126.972 89.1744C126.955 89.4105 127.004 89.6467 127.112 89.8572C127.221 90.0676 127.385 90.2442 127.587 90.3677C128.194 89.3494 128.976 88.4455 129.896 87.6975C130.252 87.0385 130.794 86.498 131.454 86.1427C131.786 85.9521 132.132 85.7871 132.49 85.6491C132.482 85.2566 132.474 84.899 132.47 84.5919H132.482ZM137.057 87.9773C137.652 88.4109 138.204 88.8989 138.708 89.4348C139.192 89.1914 139.658 88.9134 140.102 88.6031C140.186 87.8741 140.125 87.1358 139.923 86.4304C139.803 86.0263 139.626 85.6415 139.397 85.2877C139.226 85.2566 139.047 85.2332 138.864 85.2099C138.798 85.3421 138.735 85.4703 138.669 85.5986C138.2 86.4383 137.657 87.2344 137.045 87.9773H137.057ZM139.845 85.3732C140.01 85.6776 140.141 85.9996 140.234 86.3332C140.423 86.9826 140.496 87.6603 140.449 88.3349C140.793 88.0722 141.098 87.7605 141.352 87.4098C141.687 86.9201 141.722 86.5042 141.461 86.17C141.016 85.7401 140.446 85.4613 139.833 85.3732H139.845ZM133.942 86.6014C134.96 86.7803 135.928 87.1781 136.777 87.7674C137.379 87.0339 137.912 86.2468 138.369 85.4159L138.502 85.1594C137.452 85.0815 136.397 85.1167 135.355 85.2643C134.854 85.6807 134.378 86.1272 133.93 86.6014H133.942ZM132.918 86.8812C132.918 86.994 132.937 87.1067 132.945 87.2233C133.039 87.1067 133.136 86.9901 133.233 86.8774H133.132L132.918 86.8812ZM132.529 86.0106C132.226 86.134 131.932 86.2782 131.649 86.442C131.284 86.6394 130.949 86.8881 130.656 87.1805C131.236 86.8515 131.877 86.6414 132.54 86.5625C132.529 86.376 132.517 86.1894 132.509 86.0145L132.529 86.0106ZM133.14 86.5353C133.27 86.5276 133.4 86.5276 133.529 86.5353C133.898 86.1266 134.288 85.7373 134.697 85.3693C134.072 85.4809 133.457 85.6448 132.86 85.859C132.86 86.0728 132.883 86.2943 132.898 86.5237L133.14 86.5353ZM132.832 84.4559C132.832 84.7591 132.832 85.1244 132.856 85.5286C133.615 85.2714 134.398 85.0854 135.192 84.9728C135.741 84.5103 136.328 84.0955 136.948 83.733C136.562 83.6711 136.17 83.6554 135.78 83.6863C134.764 83.8277 133.768 84.0873 132.813 84.4598L132.832 84.4559ZM139.016 84.8873H139.109L139.043 84.8096C139.025 84.834 139.009 84.86 138.996 84.8873H139.016ZM137.458 83.8457C136.897 84.1472 136.363 84.4956 135.862 84.8873C136.793 84.7856 137.732 84.7726 138.665 84.8485C138.712 84.7474 138.747 84.6541 138.782 84.5647C138.39 84.2312 137.93 83.986 137.435 83.8457H137.458ZM137.894 83.6474C138.252 83.7892 138.586 83.983 138.887 84.2227C138.972 84.0173 138.972 83.7867 138.887 83.5814C138.782 83.4415 138.517 83.4648 138.315 83.5114C138.163 83.5433 138.014 83.5888 137.871 83.6474H137.894Z" fill="#DF91F2"/>
</g>
<path d="M156.811 103.719H124.882C124.822 103.719 124.765 103.695 124.722 103.653C124.68 103.611 124.656 103.553 124.656 103.493C124.656 103.434 124.68 103.376 124.722 103.334C124.765 103.292 124.822 103.268 124.882 103.268H156.811C156.871 103.268 156.929 103.292 156.971 103.334C157.013 103.376 157.037 103.434 157.037 103.493C157.037 103.553 157.013 103.611 156.971 103.653C156.929 103.695 156.871 103.719 156.811 103.719ZM143.896 107.003H124.855C124.795 107.003 124.737 106.979 124.695 106.937C124.653 106.895 124.629 106.838 124.629 106.778C124.629 106.718 124.653 106.661 124.695 106.618C124.737 106.576 124.795 106.552 124.855 106.552H143.896C143.955 106.552 144.013 106.576 144.055 106.618C144.098 106.661 144.121 106.718 144.121 106.778C144.121 106.838 144.098 106.895 144.055 106.937C144.013 106.979 143.955 107.003 143.896 107.003Z" fill="#FFFFFC"/>
<path d="M200.907 234.256C184.436 226.98 167.965 214.593 167.957 194.16C167.957 173.082 208.869 166.611 225.041 143.197C296.726 43.8511 361.48 164.485 310.58 227.746C288.989 251.824 223.537 244.253 200.907 234.256Z" fill="#D9C7FE"/>
<mask id="mask4_635_2024" style="mask-type:luminance" maskUnits="userSpaceOnUse" x="167" y="105" width="162" height="139">
<path d="M200.903 234.256C184.432 226.98 167.961 214.593 167.953 194.16C167.953 173.082 208.866 166.611 225.037 143.197C296.722 43.8511 361.476 164.485 310.576 227.746C288.985 251.824 223.534 244.253 200.903 234.256Z" fill="white"/>
</mask>
<g mask="url(#mask4_635_2024)">
<path style="mix-blend-mode:screen" d="M201.973 148.518C225.336 141.887 223.942 181.625 228.763 192.466C240.834 219.673 266.817 200.239 268.616 203.908C206.584 278.67 111.095 185.096 201.973 148.518Z" fill="url(#paint19_linear_635_2024)"/>
</g>
<path d="M322.288 136.251C331.547 167.198 318.838 206.676 307.425 219.397C274.23 248.058 190.482 238.399 168.883 202.237C172.566 217.943 186.732 227.994 200.906 234.256C223.537 244.253 288.988 251.824 310.583 227.746C323.055 213.847 337.073 168.002 322.288 136.251Z" fill="url(#paint20_linear_635_2024)"/>
<path opacity="0.7" d="M251.238 165.969C184.49 218.608 281.61 235.084 287.84 180.016C291.138 150.811 326.814 123.203 307.82 115.795C288.825 108.387 275.481 149.046 251.238 165.969Z" fill="url(#paint21_linear_635_2024)"/>
<path d="M274.548 67.1211C274.548 67.1211 269.786 80.2817 259.67 89.7693C249.554 99.2569 244.434 121.994 260.41 132.485C305.609 169.918 367.101 134.525 333.793 110.769C321.333 107.415 335.199 90.5583 319.88 86.8114C311.294 84.7165 308.526 78.4238 305.715 73.3671C303.265 68.9634 299.041 62.4103 293.998 62.5852L274.548 67.1211Z" fill="#161735"/>
<path d="M214.865 114.066L214.9 113.992L218.015 112.88L224.144 117.156L224.802 113.968C230.028 119.904 229.035 121.87 227.641 128.474C225.577 128.831 221.64 130.946 219.76 129.173C217.891 128.369 213.6 123.619 214.573 122.955C215.126 122.049 214.702 120.875 215.278 120.005C215.379 119.091 212.552 117.214 212.26 116.6C211.524 114.82 213.514 114.147 214.865 114.066Z" fill="#F8C098"/>
<mask id="mask5_635_2024" style="mask-type:luminance" maskUnits="userSpaceOnUse" x="212" y="112" width="17" height="18">
<path d="M214.861 114.065L214.896 113.992L218.011 112.88L224.14 117.155L224.798 113.968C230.024 119.903 229.031 121.87 227.637 128.474C225.573 128.831 221.636 130.946 219.756 129.173C217.887 128.369 213.596 123.619 214.569 122.954C215.122 122.049 214.698 120.875 215.274 120.004C215.375 119.091 212.548 117.214 212.256 116.6C211.52 114.819 213.51 114.147 214.861 114.065Z" fill="white"/>
</mask>
<g mask="url(#mask5_635_2024)">
<path opacity="0.5" d="M218.656 110.427C218.656 110.427 219.244 116.355 220.662 119.161C222.079 121.967 224.688 126.783 222.729 126.188C220.771 125.593 214.973 127.56 213.279 123.114C211.585 118.667 207.578 112.911 218.656 110.427Z" fill="#DC7D68"/>
</g>
<path d="M214.284 111.279C214.397 112.583 214.887 113.826 215.693 114.858C216.986 116.366 218.703 114.625 218.181 113.692C217.696 112.894 217.346 112.02 217.146 111.108C217.124 110.729 216.952 110.374 216.669 110.122C216.385 109.869 216.012 109.739 215.633 109.761C215.253 109.783 214.898 109.954 214.645 110.237C214.392 110.52 214.262 110.892 214.284 111.271V111.279ZM227.351 126.923C231.245 135.198 238.577 140.527 241.19 143.403C244.862 147.134 253.763 159.479 244.231 161.671C243.234 161.41 239.804 159.618 236.615 156.579C233.959 154.741 222.881 129.041 220.214 129.317C220.218 129.333 225.28 125.469 227.351 126.923Z" fill="#F8C098"/>
<path d="M214.554 103.762C214.905 103.995 222.019 126.422 222.731 126.188C222.934 125.92 224.818 125.71 224.495 125.108L216.668 102.911C216.54 102.23 214.963 103.357 214.667 103.346C214.6 103.389 214.552 103.455 214.531 103.532C214.51 103.609 214.518 103.691 214.554 103.762Z" fill="#161735"/>
<mask id="mask6_635_2024" style="mask-type:luminance" maskUnits="userSpaceOnUse" x="214" y="102" width="11" height="25">
<path d="M214.55 103.762C214.901 103.995 222.015 126.422 222.727 126.188C222.93 125.92 224.814 125.71 224.491 125.108L216.665 102.911C216.536 102.23 214.959 103.357 214.663 103.346C214.596 103.389 214.548 103.455 214.527 103.532C214.506 103.609 214.514 103.691 214.55 103.762Z" fill="white"/>
</mask>
<g mask="url(#mask6_635_2024)">
<path style="mix-blend-mode:screen" opacity="0.4" d="M215.436 103.07L223.496 125.94C223.632 126.639 225.252 125.477 225.563 125.493C226.264 125.17 217.503 102.619 217.632 102.192C217.495 101.492 215.876 102.654 215.568 102.642C215.496 102.683 215.442 102.75 215.417 102.83C215.392 102.909 215.399 102.995 215.436 103.07Z" fill="url(#paint22_linear_635_2024)"/>
</g>
<path d="M216.148 121.909C214.446 121.641 213.422 123.374 214.937 124.222C216.864 125.077 218.722 124.136 220.645 124.758C222.121 125.232 222.238 124.564 222.425 124.023C222.612 123.483 220.996 122.675 216.148 121.909Z" fill="#F8C098"/>
<path d="M216.028 119.721C213.867 119.896 213.489 122.173 215.662 122.15C217.73 122.123 218.142 121.707 219.945 121.396C222.103 121.007 222.523 119.453 220.876 119.542C220.868 119.542 217.383 119.616 216.028 119.721ZM219.7 115.325C217.858 114.108 211.48 112.748 212.271 116.584C212.641 117.331 213.493 117.505 214.288 117.264C215.845 116.782 217.22 117.509 218.614 117.575C220.07 117.649 221.067 116.106 219.7 115.325ZM223.329 112.55C225.712 110.91 227.281 114.462 228.71 115.807C229.777 116.786 228.516 121.967 228.594 123.211C228.181 125.182 220.257 122.383 226.281 117.307L224.497 115.115C224.256 115.337 222.293 116.464 221.086 115.71C219.825 115.107 222.881 113.195 223.329 112.55ZM267.224 106.024C269.95 105.635 271.445 105.499 273.774 105.635C278.446 102.821 277.375 96.307 277.94 96.1204C280.927 95.1371 290.626 91.8955 290.626 91.8955C290.626 91.8955 286.872 104.333 288.469 109.732C294.033 113.028 296.556 117.117 296.556 117.117C290.381 114.054 264.467 117.257 264.078 117.735C263.689 118.213 267.224 106.024 267.224 106.024Z" fill="#F8C098"/>
<mask id="mask7_635_2024" style="mask-type:luminance" maskUnits="userSpaceOnUse" x="264" y="91" width="33" height="27">
<path d="M267.227 106.024C269.953 105.635 271.448 105.499 273.776 105.635C278.449 102.821 277.378 96.307 277.943 96.1204C280.929 95.1371 290.629 91.8955 290.629 91.8955C290.629 91.8955 286.875 104.333 288.472 109.732C294.036 113.028 296.559 117.117 296.559 117.117C290.384 114.054 264.47 117.257 264.081 117.735C263.691 118.213 267.227 106.024 267.227 106.024Z" fill="white"/>
</mask>
<g mask="url(#mask7_635_2024)">
<path opacity="0.5" d="M275.391 99.2957C275.391 99.2957 280.453 99.7622 284.674 99.3191C290.569 99.6728 281.103 112.278 293.587 109.899C293.587 109.899 292.808 95.7821 293.435 89.7848C293.867 85.6066 280.745 88.7743 275.348 92.7154C272.985 94.4412 275.391 99.2957 275.391 99.2957Z" fill="#DC7D68"/>
</g>
<path d="M293.278 93.4502C288.695 98.1726 283.263 101.612 277.096 100.357C273.696 99.669 270.192 89.4935 270.721 83.3873C270.823 82.2213 271.889 78.7699 272.057 76.535C272.485 71.4161 272.602 65.3527 278.789 63.1451C286.822 60.7858 295.404 66.0757 297.978 73.8298C300.684 81.5333 296.533 90.0998 293.278 93.4502Z" fill="#F8C098"/>
<path d="M291.809 60.4553C283.582 56.8601 261.796 67.9412 289.201 75.2989C295.84 77.0402 292.164 87.7987 300.921 88.2107C300.921 88.2107 311.722 66.7946 291.809 60.4553Z" fill="#161735"/>
<path style="mix-blend-mode:screen" opacity="0.4" d="M289.57 61.528C285.93 61.2365 281.934 65.6907 285.743 68.7108C289.726 71.7774 296.431 69.6514 298.456 70.6075C300.481 71.5636 303.012 71.6336 301.291 69.8768C299.745 68.3143 297.039 61.8312 289.57 61.528Z" fill="url(#paint23_linear_635_2024)"/>
<path d="M299.607 85.6261C302.022 89.0309 295.9 94.0099 293.798 93.6134C288.444 91.7128 297.104 81.8093 299.607 85.6261Z" fill="#F8C098"/>
<path opacity="0.5" d="M294.604 89.0426C295.617 87.5579 297.782 86.9476 298.852 88.8211C298.852 88.8211 297.373 87.9388 296.423 88.4829C297.423 89.1514 296.867 91.6584 296.52 92.0276C296.52 92.0276 297.147 87.7289 294.242 89.4313L294.604 89.0426Z" fill="#DC7D68"/>
<path d="M277.887 70.4675C277.887 70.4675 272.183 69.3015 270.415 77.6619C270.415 77.6619 267.3 65.613 275.773 62.0099C279.768 60.3114 280.807 62.6396 280.807 62.6396L277.887 70.4675Z" fill="#161735"/>
<path style="mix-blend-mode:screen" opacity="0.4" d="M275.594 62.8302C279.395 62.2277 278.448 66.853 275.68 68.3766C272.004 70.8913 271.186 73.4993 271.186 73.4993C271.186 73.4993 269.072 65.1894 275.594 62.8302Z" fill="url(#paint24_linear_635_2024)"/>
<mask id="mask8_635_2024" style="mask-type:luminance" maskUnits="userSpaceOnUse" x="250" y="66" width="94" height="83">
<path d="M274.552 67.1211C274.552 67.1211 269.79 80.2817 259.674 89.7693C249.558 99.2569 244.437 121.994 260.414 132.485C305.613 169.918 367.105 134.525 333.797 110.769C321.337 107.415 335.202 90.5583 319.884 86.8115C311.298 84.7165 308.53 78.4238 305.718 73.3671C300.797 62.8068 283.454 67.5642 274.552 67.1211Z" fill="white"/>
</mask>
<g mask="url(#mask8_635_2024)">
<path style="mix-blend-mode:screen" opacity="0.4" d="M293.043 72.1379C288.624 72.0524 292.085 77.8553 296.68 79.0136C304.156 81.6138 306.158 84.8437 303.607 90.2269C301.057 95.6101 313.646 93.6434 318.824 97.0793C324.003 100.515 319.954 105.296 322.438 109.944C324.922 114.593 339.099 114.632 338.434 131.936C338.434 131.936 348.297 116.513 332.258 107.29C326.332 103.877 328.298 96.4924 329.739 89.3252C331.179 82.158 310.527 82.8265 308.595 75.8575C306.792 69.3433 301.442 75.1035 293.043 72.1379Z" fill="url(#paint25_linear_635_2024)"/>
</g>
<path d="M295.669 116.032C293.539 113.395 290.944 111.168 288.014 109.46C283.98 115.325 263.144 111.656 272.875 105.355C269.249 105.332 261.812 103.917 258.405 107.47C256.676 109.903 250.972 121.073 250.972 121.073C250.972 121.073 240.751 126.192 245.91 136.341C246.202 136.912 246.556 144.34 246.556 144.34L246.657 144.371C247.849 154.367 239.956 168.857 237.246 173.249C243.796 191.634 270.756 178.714 270.756 178.714C270.756 178.714 275.04 163.148 283.793 152.133C291.985 140.896 299.972 126.977 295.669 116.032Z" fill="url(#paint26_linear_635_2024)"/>
<mask id="mask9_635_2024" style="mask-type:luminance" maskUnits="userSpaceOnUse" x="237" y="105" width="60" height="79">
<path d="M295.673 116.032C293.542 113.395 290.948 111.168 288.018 109.46C283.984 115.325 263.148 111.656 272.878 105.355C269.253 105.332 261.816 103.917 258.409 107.47C256.68 109.903 250.976 121.073 250.976 121.073C250.976 121.073 240.754 126.192 245.914 136.341C246.206 136.912 246.56 144.34 246.56 144.34L246.661 144.371C247.853 154.367 239.96 168.857 237.25 173.249C243.799 191.634 270.76 178.714 270.76 178.714C270.76 178.714 275.043 163.148 283.797 152.133C291.989 140.896 299.976 126.977 295.673 116.032Z" fill="white"/>
</mask>
<g mask="url(#mask9_635_2024)">
<mask id="mask10_635_2024" style="mask-type:luminance" maskUnits="userSpaceOnUse" x="225" y="101" width="79" height="89">
<path d="M302.566 117.579C300.61 114.453 298.091 111.716 295.137 109.506C289.444 114.909 266.505 107.602 278.744 102.736C259.36 98.0949 261.673 103.595 250.883 115.356C250.883 115.356 238.306 118.944 242.196 130.297C242.418 130.934 241.398 138.677 241.398 138.677L241.507 138.723C240.853 149.567 229.07 163.043 225.309 167.023C229.202 187.129 270.411 189.201 270.411 189.201C269.757 187.312 274.581 161.787 280.819 155.429C280.819 155.429 285.569 150.994 287.178 148.724C294.015 140.95 300.417 127.005 302.858 123.266C304.022 121.474 303.711 119.363 302.566 117.579Z" fill="white"/>
</mask>
<g mask="url(#mask10_635_2024)">
<path opacity="0.7" d="M296.416 138.198C265.763 162.499 267.364 173.634 263.852 212.824C263.852 212.824 275.922 207.527 277.869 203.263C279.816 198.999 300.087 148.704 300.087 148.704L296.416 138.198Z" fill="url(#paint27_linear_635_2024)"/>
<path style="mix-blend-mode:screen" opacity="0.5" d="M246.744 108.986C252.756 103.218 263.129 108.78 260.536 116.351C259.309 120.961 256.883 124.696 269.554 128.828C280.928 132.046 281.274 131.995 281.235 138.051C281.196 144.106 270.987 157.096 269.199 160.668C252.226 194.759 223.735 184.63 223.735 184.63L222.77 162.242C259.017 120.483 221.886 131.447 246.744 108.986Z" fill="url(#paint28_linear_635_2024)"/>
</g>
</g>
<path d="M237.024 124.195C237.024 124.195 235.466 123.234 235.287 122.671C235.108 122.107 235.454 120.972 235.813 121.027C236.171 121.081 238.289 122.826 238.834 123.316C239.379 123.806 237.024 124.195 237.024 124.195Z" fill="#F8C098"/>
<path opacity="0.5" d="M237.024 124.195C237.024 124.195 235.466 123.234 235.287 122.671C235.108 122.107 235.454 120.972 235.813 121.027C236.171 121.081 238.289 122.826 238.834 123.316C239.379 123.806 237.024 124.195 237.024 124.195Z" fill="#DC7D68"/>
<path d="M275.304 152.984C269.568 149.186 260.262 138.991 255.582 132.069C248.604 125.431 242.775 116.911 229.781 117.459C230.809 120.957 237.588 119.756 240.466 122.714C240.466 122.714 236.315 123.32 235.287 123.646C229.193 126.67 226.549 130.254 235.396 126.954C234.98 127.487 228.333 132.85 233.983 131.144C235.069 130.538 237.067 128.699 238.067 128.524C237.958 128.761 234.084 131.284 236.339 131.774C237.982 131.642 239.746 130.374 240.77 129.994C244.85 129.904 247.354 137.441 252.716 136.912C256.699 146.326 263.373 165.18 272.555 164.87C276.601 163.521 278.037 156.093 275.304 152.984Z" fill="#F8C098"/>
<path d="M271.847 144.852C270.441 144.176 268.922 145.855 270.102 150.076C271.282 154.297 265.819 165.911 269.915 166.995C282.08 168.593 291.429 147.95 295.93 138.968C298.356 131.043 303.877 118.679 294.022 114.396C284.93 115.554 282.812 148.77 271.847 144.852Z" fill="url(#paint29_linear_635_2024)"/>
<path d="M186.48 240.471L187.31 255.357L176.216 254.863L175.379 250.071C175.379 250.071 179.21 241.159 178.809 237.583C178.408 234.007 186.48 240.471 186.48 240.471Z" fill="#F8C098"/>
<mask id="mask11_635_2024" style="mask-type:luminance" maskUnits="userSpaceOnUse" x="175" y="236" width="13" height="20">
<path d="M186.488 240.471L187.317 255.357L176.224 254.864L175.387 250.071C175.387 250.071 179.218 241.159 178.817 237.583C178.416 234.007 186.488 240.471 186.488 240.471Z" fill="white"/>
</mask>
<g mask="url(#mask11_635_2024)">
<path opacity="0.5" d="M182.43 239.841C182.43 239.841 183.66 249.17 181.195 253.056C178.731 256.943 190.883 264.534 193.223 255.909C195.564 247.284 187.262 236.207 182.43 239.841Z" fill="#DC7D68"/>
</g>
<path d="M129.523 230.828C129.523 230.828 132.385 243.911 134.955 245.112C138.612 246.826 142.899 245.683 145.41 242.364C150.235 235.974 158.863 228.426 158.863 228.426L149.444 219.657L138.098 232.903C136.205 234.1 132.841 231.803 129.523 230.828Z" fill="#F8C098"/>
<mask id="mask12_635_2024" style="mask-type:luminance" maskUnits="userSpaceOnUse" x="129" y="219" width="30" height="27">
<path d="M129.52 230.828C129.52 230.828 132.381 243.91 134.951 245.111C138.608 246.825 142.895 245.683 145.406 242.363C150.231 235.974 158.859 228.426 158.859 228.426L149.44 219.657L138.094 232.903C136.201 234.1 132.837 231.803 129.52 230.828Z" fill="white"/>
</mask>
<g mask="url(#mask12_635_2024)">
<path opacity="0.5" d="M152.219 228.014C152.219 228.014 142.212 237.342 138.097 232.903C135.153 229.735 131.925 252.337 143.762 248.598C155.599 244.859 158.2 232.445 158.2 232.445L152.219 228.014Z" fill="#DC7D68"/>
</g>
<path d="M115.383 222.258C115.383 222.258 115.62 220.792 115.052 220.917C114.483 221.041 111.439 222.926 111.497 225.165C111.563 227.862 114.374 232.394 117.891 235.659C121.407 238.924 126.667 242.892 127.952 244.21C129.237 245.528 134.735 252.691 135.985 252.298C137.235 251.906 140.459 248.05 140.459 248.05L115.383 222.258Z" fill="#161735"/>
<path d="M144.331 243.666C145.149 244.641 139.032 249.83 138.378 250.017C137.723 250.203 128.067 240.654 123.051 236.215C113.488 227.757 112.776 222.805 115.054 220.917C115.906 220.209 122.132 225.81 123.083 225.748C124.033 225.686 135.465 227.691 137.879 229.118C138.907 229.732 141.742 232.246 141.064 234.442C141.142 235.251 140.075 236.024 139.818 237.735C139.561 239.445 143.51 242.694 144.331 243.666Z" fill="url(#paint30_linear_635_2024)"/>
<path d="M136.748 233.894H136.694C136.635 233.88 136.585 233.843 136.553 233.791C136.522 233.739 136.512 233.677 136.526 233.619C136.749 232.525 136.646 231.391 136.231 230.355C135.816 229.319 135.107 228.427 134.19 227.788C134.166 227.771 134.146 227.749 134.13 227.724C134.115 227.699 134.104 227.671 134.099 227.641C134.095 227.612 134.096 227.582 134.103 227.554C134.11 227.525 134.122 227.498 134.139 227.474C134.157 227.45 134.179 227.429 134.204 227.414C134.229 227.398 134.257 227.388 134.287 227.383C134.316 227.378 134.346 227.38 134.375 227.386C134.404 227.393 134.431 227.406 134.455 227.423C137.858 229.872 136.959 233.696 136.951 233.735C136.938 233.779 136.911 233.819 136.875 233.847C136.839 233.876 136.794 233.892 136.748 233.894ZM132.73 233.288H132.675C132.618 233.273 132.568 233.237 132.536 233.186C132.505 233.135 132.495 233.074 132.508 233.016C132.73 231.923 132.627 230.789 132.212 229.753C131.797 228.717 131.088 227.825 130.172 227.186C130.148 227.169 130.127 227.147 130.112 227.121C130.096 227.096 130.086 227.068 130.081 227.039C130.076 227.01 130.077 226.98 130.084 226.951C130.091 226.922 130.104 226.895 130.121 226.871C130.138 226.847 130.16 226.827 130.186 226.811C130.211 226.796 130.239 226.785 130.268 226.781C130.298 226.776 130.327 226.777 130.356 226.784C130.385 226.791 130.412 226.803 130.436 226.821C133.844 229.269 132.94 233.098 132.932 233.133C132.918 233.176 132.891 233.214 132.855 233.242C132.819 233.27 132.775 233.286 132.73 233.288ZM129.058 232.379H129.003C128.974 232.372 128.947 232.36 128.922 232.343C128.898 232.326 128.877 232.304 128.862 232.278C128.846 232.253 128.836 232.224 128.831 232.195C128.827 232.166 128.829 232.135 128.836 232.107C129.057 231.013 128.954 229.879 128.539 228.844C128.124 227.808 127.415 226.916 126.5 226.276C126.476 226.259 126.455 226.237 126.44 226.212C126.424 226.187 126.414 226.159 126.409 226.13C126.404 226.1 126.406 226.07 126.412 226.042C126.419 226.013 126.432 225.986 126.449 225.962C126.466 225.937 126.488 225.916 126.513 225.901C126.538 225.885 126.567 225.874 126.596 225.87C126.626 225.865 126.656 225.866 126.685 225.873C126.713 225.88 126.741 225.893 126.765 225.911C130.168 228.36 129.268 232.184 129.26 232.223C129.246 232.266 129.219 232.304 129.183 232.332C129.147 232.359 129.103 232.376 129.058 232.379Z" fill="#8A6EC3"/>
<path d="M153.22 260.663C153.22 260.663 152.34 259.497 152.052 260.045C151.763 260.593 151.078 264.235 152.706 265.661C154.653 267.379 159.742 268.118 164.407 267.472C169.071 266.827 175.368 265.245 177.151 265.086C178.935 264.926 187.664 265.261 188.225 264.009C188.786 262.758 188.186 257.666 188.186 257.666L153.22 260.663Z" fill="#161735"/>
<path d="M187.639 251.704C188.873 251.704 188.491 259.963 188.188 260.604C187.884 261.246 174.696 262.657 168.216 263.714C155.861 265.766 151.862 263.084 152.049 260.029C152.115 258.887 160.226 257.616 160.81 256.819C161.394 256.022 170.409 248.245 173.021 247.281C174.139 246.865 177.803 246.266 178.913 248.245C179.536 248.711 179.376 250.067 180.423 251.393C181.471 252.718 186.401 251.715 187.639 251.704Z" fill="url(#paint31_linear_635_2024)"/>
<path d="M175.501 251.401C175.463 251.4 175.425 251.39 175.392 251.372C175.359 251.354 175.331 251.328 175.31 251.296C174.701 250.407 173.824 249.736 172.806 249.381C171.788 249.025 170.683 249.003 169.652 249.317C169.624 249.325 169.594 249.327 169.564 249.324C169.535 249.32 169.506 249.311 169.48 249.296C169.455 249.282 169.432 249.262 169.414 249.239C169.395 249.215 169.382 249.188 169.374 249.16C169.366 249.131 169.364 249.101 169.367 249.072C169.371 249.043 169.38 249.014 169.395 248.988C169.41 248.963 169.429 248.94 169.453 248.922C169.476 248.903 169.503 248.89 169.532 248.882C170.657 248.559 171.855 248.595 172.959 248.984C174.063 249.372 175.018 250.095 175.692 251.051C175.723 251.102 175.733 251.164 175.72 251.222C175.707 251.281 175.672 251.332 175.622 251.366C175.586 251.389 175.544 251.401 175.501 251.401ZM172.401 254.195C172.363 254.195 172.326 254.186 172.292 254.167C172.259 254.149 172.231 254.122 172.211 254.09C171.599 253.204 170.721 252.535 169.703 252.179C168.685 251.823 167.581 251.8 166.549 252.112C166.491 252.127 166.429 252.119 166.378 252.089C166.326 252.059 166.288 252.01 166.272 251.953C166.264 251.924 166.262 251.895 166.265 251.865C166.268 251.836 166.278 251.808 166.292 251.782C166.307 251.756 166.326 251.734 166.35 251.716C166.373 251.697 166.4 251.684 166.428 251.677C167.554 251.354 168.753 251.389 169.857 251.778C170.962 252.166 171.918 252.889 172.592 253.845C172.623 253.897 172.633 253.958 172.62 254.017C172.607 254.076 172.572 254.127 172.522 254.16C172.486 254.182 172.444 254.195 172.401 254.195ZM169.317 256.516C169.28 256.516 169.242 256.507 169.209 256.489C169.176 256.472 169.147 256.446 169.127 256.415C168.514 255.529 167.636 254.86 166.619 254.504C165.601 254.149 164.497 254.125 163.465 254.436C163.407 254.452 163.346 254.444 163.294 254.414C163.242 254.384 163.204 254.335 163.189 254.277C163.18 254.248 163.178 254.219 163.181 254.189C163.185 254.16 163.194 254.132 163.208 254.106C163.223 254.08 163.242 254.058 163.266 254.04C163.289 254.022 163.316 254.008 163.344 254.001C164.47 253.677 165.669 253.712 166.774 254.101C167.879 254.49 168.835 255.213 169.508 256.17C169.54 256.22 169.551 256.281 169.538 256.34C169.525 256.398 169.489 256.449 169.438 256.481C169.402 256.503 169.36 256.515 169.317 256.516Z" fill="#8A6EC3"/>
<path d="M171.112 153.924C180.161 142.968 231.466 159.21 239.254 166.65C245.944 173.059 240.103 187.063 230.076 183.988C221.899 181.485 205.288 176.324 195.538 174.404C194.169 174.192 192.784 174.1 191.399 174.128C192.614 211.627 186.921 243.405 186.921 243.405L177.576 243.479C175.66 239.624 171.887 218.138 170.567 208.564C164.391 163.404 169.002 156.474 171.112 153.924Z" fill="url(#paint32_linear_635_2024)"/>
<mask id="mask13_635_2024" style="mask-type:luminance" maskUnits="userSpaceOnUse" x="167" y="150" width="76" height="94">
<path d="M171.116 153.924C180.165 142.968 231.47 159.21 239.258 166.65C245.947 173.059 240.107 187.063 230.08 183.988C221.903 181.485 205.292 176.324 195.542 174.404C194.173 174.192 192.788 174.1 191.403 174.128C192.618 211.627 186.925 243.405 186.925 243.405L177.58 243.479C175.664 239.624 171.891 218.138 170.571 208.564C164.395 163.404 169.005 156.474 171.116 153.924Z" fill="white"/>
</mask>
<g mask="url(#mask13_635_2024)">
<path opacity="0.7" d="M190.882 174.12C196.692 193.363 199.721 221.861 198.382 236.716C196.084 262.198 182.876 256.512 182.709 246.643C182.682 244.875 182.615 243.145 182.522 241.443C181.315 219.941 175.124 204.301 169.832 196.438C177.429 192.512 185.275 182.5 190.882 174.12Z" fill="url(#paint33_linear_635_2024)"/>
</g>
<path d="M271.376 176.802C244.357 166.156 202.693 150.492 202.693 150.492C199.161 148.681 192.888 146.629 184.828 157.904C175.752 173.144 150.691 214.943 145.205 224.092C144.901 224.598 144.771 225.19 144.837 225.776C144.902 226.362 145.159 226.911 145.567 227.338L151.127 232.993C151.518 233.4 152.042 233.651 152.604 233.702C153.166 233.753 153.727 233.599 154.184 233.269C160.983 228.387 187.118 208.153 199.578 176.53C209.834 187.627 235.923 198.953 248.761 201.619C270.948 206.229 271.376 176.802 271.376 176.802Z" fill="url(#paint34_linear_635_2024)"/>
<mask id="mask14_635_2024" style="mask-type:luminance" maskUnits="userSpaceOnUse" x="144" y="149" width="128" height="85">
<path d="M271.376 176.802C244.357 166.156 202.693 150.492 202.693 150.492C199.161 148.681 192.888 146.629 184.828 157.905C175.752 173.145 150.691 214.943 145.205 224.092C144.901 224.598 144.771 225.19 144.837 225.776C144.902 226.362 145.159 226.911 145.567 227.338L151.127 232.993C151.518 233.4 152.042 233.651 152.604 233.702C153.166 233.753 153.727 233.599 154.184 233.269C160.983 228.387 187.118 208.153 199.578 176.53C209.834 187.627 235.923 198.953 248.761 201.619C270.948 206.229 271.376 176.802 271.376 176.802Z" fill="white"/>
</mask>
<g mask="url(#mask14_635_2024)">
<path opacity="0.7" d="M268.674 179.608C268.674 179.608 269.609 189.97 261.276 195.233C255.595 198.832 233.755 189.072 217.038 178.648C209.29 173.813 199.516 163.101 196.79 163.295C190.381 163.719 188.01 199.198 147.643 231.858C138.165 239.527 161.984 248.96 161.984 248.96L204.391 198.109L254.832 209.941C254.832 209.941 271.451 199.512 271.914 197.421C272.377 195.33 272.985 179.931 272.985 179.931L268.674 179.608Z" fill="url(#paint35_linear_635_2024)"/>
<path opacity="0.5" d="M200.362 149.591C206.176 152.86 201.091 159.012 192.622 162.452C188.977 163.933 183.666 173.117 181.551 171.05C176.762 166.366 189.744 143.617 200.362 149.591Z" fill="url(#paint36_linear_635_2024)"/>
<path opacity="0.5" d="M195.757 154.146C199.651 151.647 195.637 147.686 191.443 150.582C189.496 151.934 188.885 154.177 188.717 156.245C188.55 158.313 189.92 157.438 190.248 157.287C190.501 157.174 194.94 154.671 195.757 154.146Z" fill="url(#paint37_linear_635_2024)"/>
</g>
<defs>
<linearGradient id="paint0_linear_635_2024" x1="27.8027" y1="264.878" x2="99.3356" y2="261.298" gradientUnits="userSpaceOnUse">
<stop stop-color="#13AA76"/>
<stop offset="1" stop-color="#29E3A2"/>
</linearGradient>
<linearGradient id="paint1_linear_635_2024" x1="375.566" y1="60.5232" x2="297.978" y2="117.938" gradientUnits="userSpaceOnUse">
<stop stop-color="#FFC5E3"/>
<stop offset="1" stop-color="#CD3C83"/>
</linearGradient>
<linearGradient id="paint2_linear_635_2024" x1="38.5883" y1="264.109" x2="100.068" y2="256.474" gradientUnits="userSpaceOnUse">
<stop stop-color="#13AA76"/>
<stop offset="1" stop-color="#29E3A2"/>
</linearGradient>
<linearGradient id="paint3_linear_635_2024" x1="140.45" y1="130.126" x2="155.226" y2="151.563" gradientUnits="userSpaceOnUse">
<stop stop-color="#8441D1"/>
<stop offset="1" stop-color="#3F159C"/>
</linearGradient>
<linearGradient id="paint4_linear_635_2024" x1="135.88" y1="133.783" x2="150.089" y2="154.399" gradientUnits="userSpaceOnUse">
<stop stop-color="#8441D1"/>
<stop offset="1" stop-color="#3F159C"/>
</linearGradient>
<linearGradient id="paint5_linear_635_2024" x1="76.2773" y1="95.3469" x2="82.4563" y2="105.183" gradientUnits="userSpaceOnUse">
<stop stop-color="#FEBD30"/>
<stop offset="1" stop-color="#C54346"/>
</linearGradient>
<linearGradient id="paint6_linear_635_2024" x1="222.922" y1="-18.8852" x2="323.303" y2="70.7224" gradientUnits="userSpaceOnUse">
<stop offset="0.48" stop-color="#8441D1"/>
<stop offset="1" stop-color="#3F159C"/>
</linearGradient>
<linearGradient id="paint7_linear_635_2024" x1="299.145" y1="29.2096" x2="306.22" y2="29.2096" gradientUnits="userSpaceOnUse">
<stop stop-color="#8441D1"/>
<stop offset="1" stop-color="#3F159C"/>
</linearGradient>
<linearGradient id="paint8_linear_635_2024" x1="149.985" y1="7.48256" x2="165.113" y2="129.118" gradientUnits="userSpaceOnUse">
<stop offset="0.48" stop-color="#8441D1"/>
<stop offset="1" stop-color="#3F159C"/>
</linearGradient>
<linearGradient id="paint9_linear_635_2024" x1="157.665" y1="46.455" x2="179.494" y2="87.975" gradientUnits="userSpaceOnUse">
<stop stop-color="#8441D1"/>
<stop offset="1" stop-color="#3F159C"/>
</linearGradient>
<linearGradient id="paint10_linear_635_2024" x1="151.296" y1="49.813" x2="173.121" y2="91.3213" gradientUnits="userSpaceOnUse">
<stop stop-color="#8441D1"/>
<stop offset="1" stop-color="#3F159C"/>
</linearGradient>
<linearGradient id="paint11_linear_635_2024" x1="167.479" y1="41.2039" x2="189.429" y2="82.9534" gradientUnits="userSpaceOnUse">
<stop stop-color="#8441D1"/>
<stop offset="1" stop-color="#3F159C"/>
</linearGradient>
<linearGradient id="paint12_linear_635_2024" x1="160.077" y1="45.2345" x2="181.867" y2="86.6806" gradientUnits="userSpaceOnUse">
<stop stop-color="#8441D1"/>
<stop offset="1" stop-color="#3F159C"/>
</linearGradient>
<linearGradient id="paint13_linear_635_2024" x1="130.057" y1="60.9835" x2="151.882" y2="102.488" gradientUnits="userSpaceOnUse">
<stop stop-color="#8441D1"/>
<stop offset="1" stop-color="#3F159C"/>
</linearGradient>
<linearGradient id="paint14_linear_635_2024" x1="136.662" y1="56.1873" x2="159.268" y2="99.1777" gradientUnits="userSpaceOnUse">
<stop stop-color="#8441D1"/>
<stop offset="1" stop-color="#3F159C"/>
</linearGradient>
<linearGradient id="paint15_linear_635_2024" x1="137.725" y1="57.5011" x2="159.111" y2="98.1731" gradientUnits="userSpaceOnUse">
<stop stop-color="#8441D1"/>
<stop offset="1" stop-color="#3F159C"/>
</linearGradient>
<linearGradient id="paint16_linear_635_2024" x1="186.426" y1="42.5136" x2="152.695" y2="59.217" gradientUnits="userSpaceOnUse">
<stop stop-color="white" stop-opacity="0"/>
<stop offset="1" stop-color="white"/>
</linearGradient>
<linearGradient id="paint17_linear_635_2024" x1="168.44" y1="74.249" x2="166.652" y2="61.0526" gradientUnits="userSpaceOnUse">
<stop stop-color="white" stop-opacity="0"/>
<stop offset="1" stop-color="white"/>
</linearGradient>
<linearGradient id="paint18_linear_635_2024" x1="123.715" y1="-7.38456" x2="211.689" y2="107.301" gradientUnits="userSpaceOnUse">
<stop stop-color="#FEBD30"/>
<stop offset="1" stop-color="#C54346"/>
</linearGradient>
<linearGradient id="paint19_linear_635_2024" x1="256.21" y1="251.179" x2="174.788" y2="152.151" gradientUnits="userSpaceOnUse">
<stop stop-color="white" stop-opacity="0"/>
<stop offset="1" stop-color="white"/>
</linearGradient>
<linearGradient id="paint20_linear_635_2024" x1="241.5" y1="196.637" x2="311.943" y2="234.244" gradientUnits="userSpaceOnUse">
<stop stop-color="#D9C7FE"/>
<stop offset="0.29" stop-color="#D6C3FB"/>
<stop offset="0.57" stop-color="#CDB7F3" stop-opacity="0.25"/>
<stop offset="0.85" stop-color="#BEA4E6" stop-opacity="0.22"/>
<stop offset="1" stop-color="#B496DC"/>
</linearGradient>
<linearGradient id="paint21_linear_635_2024" x1="252.791" y1="122.817" x2="294.619" y2="213.887" gradientUnits="userSpaceOnUse">
<stop stop-color="#270564" stop-opacity="0"/>
<stop offset="0.19" stop-color="#270564" stop-opacity="0.13"/>
<stop offset="0.55" stop-color="#270564" stop-opacity="0.48"/>
<stop offset="0.847916" stop-color="#270564" stop-opacity="0.31"/>
</linearGradient>
<linearGradient id="paint22_linear_635_2024" x1="224.63" y1="133.071" x2="218.036" y2="102.542" gradientUnits="userSpaceOnUse">
<stop offset="0.17" stop-color="white" stop-opacity="0"/>
<stop offset="1" stop-color="white"/>
</linearGradient>
<linearGradient id="paint23_linear_635_2024" x1="305.913" y1="70.8246" x2="278.845" y2="62.3974" gradientUnits="userSpaceOnUse">
<stop offset="0.33" stop-color="white" stop-opacity="0"/>
<stop offset="0.39" stop-color="white" stop-opacity="0.03"/>
<stop offset="0.48" stop-color="white" stop-opacity="0.11"/>
<stop offset="0.58" stop-color="white" stop-opacity="0.24"/>
<stop offset="0.7" stop-color="white" stop-opacity="0.42"/>
<stop offset="0.83" stop-color="white" stop-opacity="0.65"/>
<stop offset="0.96" stop-color="white" stop-opacity="0.92"/>
<stop offset="1" stop-color="white"/>
</linearGradient>
<linearGradient id="paint24_linear_635_2024" x1="279.476" y1="72.0711" x2="262.824" y2="59.8413" gradientUnits="userSpaceOnUse">
<stop offset="0.17" stop-color="white" stop-opacity="0"/>
<stop offset="1" stop-color="white"/>
</linearGradient>
<linearGradient id="paint25_linear_635_2024" x1="313.355" y1="111.573" x2="327.361" y2="46.8026" gradientUnits="userSpaceOnUse">
<stop stop-color="white" stop-opacity="0"/>
<stop offset="1" stop-color="white"/>
</linearGradient>
<linearGradient id="paint26_linear_635_2024" x1="260.9" y1="92.7141" x2="271.256" y2="185.231" gradientUnits="userSpaceOnUse">
<stop stop-color="#FEBD30"/>
<stop offset="1" stop-color="#C54346"/>
</linearGradient>
<linearGradient id="paint27_linear_635_2024" x1="302.907" y1="134.204" x2="270.979" y2="191.428" gradientUnits="userSpaceOnUse">
<stop offset="0.05" stop-color="#270564" stop-opacity="0.1"/>
<stop offset="0.25" stop-color="#270564" stop-opacity="0.23"/>
<stop offset="0.61" stop-color="#270564" stop-opacity="0.58"/>
<stop offset="1" stop-color="#270564"/>
</linearGradient>
<linearGradient id="paint28_linear_635_2024" x1="260.304" y1="188.557" x2="232.54" y2="86.3797" gradientUnits="userSpaceOnUse">
<stop stop-color="white" stop-opacity="0"/>
<stop offset="1" stop-color="white"/>
</linearGradient>
<linearGradient id="paint29_linear_635_2024" x1="275.477" y1="122.445" x2="287.579" y2="151.808" gradientUnits="userSpaceOnUse">
<stop stop-color="#FEBD30"/>
<stop offset="1" stop-color="#C54346"/>
</linearGradient>
<linearGradient id="paint30_linear_635_2024" x1="124" y1="228.637" x2="140" y2="248.137" gradientUnits="userSpaceOnUse">
<stop stop-color="white"/>
<stop offset="1" stop-color="#D9C7FE"/>
</linearGradient>
<linearGradient id="paint31_linear_635_2024" x1="192" y1="255.137" x2="142" y2="258.137" gradientUnits="userSpaceOnUse">
<stop stop-color="#C1A7F6"/>
<stop offset="1" stop-color="white"/>
</linearGradient>
<linearGradient id="paint32_linear_635_2024" x1="167.07" y1="131.788" x2="208.607" y2="207.766" gradientUnits="userSpaceOnUse">
<stop stop-color="#8441D1"/>
<stop offset="1" stop-color="#3F159C"/>
</linearGradient>
<linearGradient id="paint33_linear_635_2024" x1="162.727" y1="170.46" x2="187.441" y2="215.664" gradientUnits="userSpaceOnUse">
<stop offset="0.05" stop-color="#270564" stop-opacity="0.1"/>
<stop offset="0.25" stop-color="#270564" stop-opacity="0.23"/>
<stop offset="0.61" stop-color="#270564" stop-opacity="0.58"/>
<stop offset="1" stop-color="#270564"/>
</linearGradient>
<linearGradient id="paint34_linear_635_2024" x1="195.61" y1="149.659" x2="211.386" y2="221.662" gradientUnits="userSpaceOnUse">
<stop stop-color="#8441D1"/>
<stop offset="1" stop-color="#3F159C"/>
</linearGradient>
<linearGradient id="paint35_linear_635_2024" x1="234.963" y1="174.5" x2="189.864" y2="244.944" gradientUnits="userSpaceOnUse">
<stop offset="0.05" stop-color="#270564" stop-opacity="0.1"/>
<stop offset="0.25" stop-color="#270564" stop-opacity="0.23"/>
<stop offset="0.61" stop-color="#270564" stop-opacity="0.58"/>
<stop offset="1" stop-color="#270564"/>
</linearGradient>
<linearGradient id="paint36_linear_635_2024" x1="194.202" y1="165.42" x2="186.075" y2="150.194" gradientUnits="userSpaceOnUse">
<stop stop-color="white" stop-opacity="0"/>
<stop offset="1" stop-color="#FFFFFE"/>
</linearGradient>
<linearGradient id="paint37_linear_635_2024" x1="194.014" y1="162.092" x2="192.204" y2="147.253" gradientUnits="userSpaceOnUse">
<stop offset="0.32" stop-color="white" stop-opacity="0"/>
<stop offset="1" stop-color="white"/>
</linearGradient>
</defs>
</svg>
