<svg xmlns="http://www.w3.org/2000/svg" width="30" height="30" viewBox="0 0 30 30">
  <g id="refresh" transform="translate(-0.046 0)">
    <path id="Path_486" data-name="Path 486" d="M15.036,2.527a12.534,12.534,0,0,1,8.931,3.79H20.052A1.259,1.259,0,0,0,18.8,7.581h0a1.259,1.259,0,0,0,1.254,1.263h5.2A2.339,2.339,0,0,0,27.577,6.5V1.264A1.259,1.259,0,0,0,26.323,0h0a1.259,1.259,0,0,0-1.254,1.263V3.889A14.938,14.938,0,0,0,9.53,1.044,15.124,15.124,0,0,0,.051,13.772a1.278,1.278,0,0,0,.323.973,1.259,1.259,0,0,0,.931.416h0a1.235,1.235,0,0,0,1.24-1.109A12.6,12.6,0,0,1,15.036,2.527Z" transform="translate(0 0)" fill="#fff"/>
    <path id="Path_487" data-name="Path 487" d="M28.273,12a1.235,1.235,0,0,0-1.24,1.109,12.6,12.6,0,0,1-8.251,10.786A12.456,12.456,0,0,1,5.609,20.844H9.524a1.259,1.259,0,0,0,1.254-1.263h0a1.259,1.259,0,0,0-1.254-1.263h-5.2A2.319,2.319,0,0,0,2.682,19,2.354,2.354,0,0,0,2,20.664V25.9a1.259,1.259,0,0,0,1.254,1.263h0A1.259,1.259,0,0,0,4.508,25.9V23.273a14.938,14.938,0,0,0,15.539,2.845A15.124,15.124,0,0,0,29.525,13.39a1.278,1.278,0,0,0-.323-.973A1.259,1.259,0,0,0,28.271,12Z" transform="translate(0.515 2.837)" fill="#fff"/>
  </g>
</svg>
