<svg xmlns="http://www.w3.org/2000/svg" width="29.517" height="32.201" viewBox="0 0 29.517 32.201">
  <path id="search-alt" d="M20.784,8.05a1.342,1.342,0,1,1,0,2.683H10.05a1.342,1.342,0,0,1,0-2.683Zm10.34,23.757a1.342,1.342,0,0,1-1.9,0L26,28.578a6.084,6.084,0,1,1,1.9-1.9l3.229,3.229A1.342,1.342,0,0,1,31.124,31.808ZM22.8,26.834a3.354,3.354,0,1,0-3.354-3.354A3.354,3.354,0,0,0,22.8,26.834Zm-6.038,2.683H8.708a4.025,4.025,0,0,1-4.025-4.025V6.708A4.025,4.025,0,0,1,8.708,2.683h16.1a1.342,1.342,0,0,1,1.342,1.342V14.759a1.342,1.342,0,1,0,2.683,0V4.025A4.025,4.025,0,0,0,24.809,0H8.708A6.717,6.717,0,0,0,2,6.708V25.492A6.717,6.717,0,0,0,8.708,32.2h8.05a1.342,1.342,0,1,0,0-2.683Z" transform="translate(-2)" fill="#fff"/>
</svg>
