<svg xmlns="http://www.w3.org/2000/svg" width="26.688" height="32.026" viewBox="0 0 26.688 32.026">
  <path id="shield_1_" data-name="shield (1)" d="M24.125,2.856,15.766.068a1.334,1.334,0,0,0-.843,0L6.561,2.856A6.663,6.663,0,0,0,2,9.185v6.828C2,26.1,14.276,31.678,14.8,31.911a1.334,1.334,0,0,0,1.084,0c.526-.232,12.8-5.806,12.8-15.9V9.185a6.663,6.663,0,0,0-4.562-6.329Zm1.893,13.157c0,7.279-8.432,12.054-10.675,13.2C13.1,28.07,4.669,23.31,4.669,16.013V9.185a4,4,0,0,1,2.737-3.8l7.938-2.646,7.937,2.646a4,4,0,0,1,2.738,3.8Z" transform="translate(-2 0)" fill="#fff"/>
</svg>
