<svg xmlns="http://www.w3.org/2000/svg" width="24.763" height="30" viewBox="0 0 24.763 30">
  <g id="shield-check" transform="translate(-2 0)">
    <path id="Path_494" data-name="Path 494" d="M22.53,2.675,14.773.064a1.227,1.227,0,0,0-.783,0L6.233,2.675A6.236,6.236,0,0,0,2,8.6V15c0,9.454,11.391,14.675,11.879,14.892a1.227,1.227,0,0,0,1.005,0c.488-.217,11.879-5.439,11.879-14.892V8.6A6.236,6.236,0,0,0,22.53,2.675ZM24.286,15c0,6.819-7.824,11.291-9.905,12.361C12.3,26.295,4.476,21.836,4.476,15V8.6a3.747,3.747,0,0,1,2.54-3.557l7.365-2.479,7.364,2.479A3.747,3.747,0,0,1,24.286,8.6Z" transform="translate(0)" fill="#212534"/>
    <path id="Path_495" data-name="Path 495" d="M17.246,8.37l-5.185,5.2-2.778-2.9A1.238,1.238,0,1,0,7.5,12.389l2.855,2.972a2.318,2.318,0,0,0,1.665.743h.041a2.319,2.319,0,0,0,1.653-.685L19,10.129A1.243,1.243,0,1,0,17.246,8.37Z" transform="translate(1.222 2.037)" fill="#212534"/>
  </g>
</svg>
