<svg xmlns="http://www.w3.org/2000/svg" width="24.667" height="30.401" viewBox="0 0 24.667 30.401">
  <g id="user_4_" data-name="user (4)" transform="translate(-3.4)">
    <path id="Path_488" data-name="Path 488" d="M13.6,15.2A7.6,7.6,0,1,0,6,7.6a7.6,7.6,0,0,0,7.6,7.6Zm0-12.667A5.067,5.067,0,1,1,8.533,7.6,5.067,5.067,0,0,1,13.6,2.533Z" transform="translate(2.401)" fill="#fff"/>
    <path id="Path_489" data-name="Path 489" d="M15.334,14C8.525,14.007,3.008,19.107,3,25.4a1.322,1.322,0,0,0,1.37,1.267A1.322,1.322,0,0,0,5.741,25.4c0-4.9,4.295-8.867,9.593-8.867s9.593,3.97,9.593,8.867a1.375,1.375,0,0,0,2.741,0C27.66,19.107,22.142,14.007,15.334,14Z" transform="translate(0.4 3.734)" fill="#fff"/>
  </g>
</svg>
