<svg xmlns="http://www.w3.org/2000/svg" width="17.5" height="17.5" viewBox="0 0 17.5 17.5">
  <g id="add-folder" transform="translate(-1.25 -1.25)">
    <path id="Path_5573" data-name="Path 5573" d="M11.921,16.041a.615.615,0,0,1-.61-.61V11.36a.61.61,0,1,1,1.221,0v4.07A.615.615,0,0,1,11.921,16.041Z" transform="translate(-1.872 -1.767)" fill="#676c7d"/>
    <path id="Path_5574" data-name="Path 5574" d="M13.43,14.471H9.36a.61.61,0,1,1,0-1.221h4.07a.61.61,0,1,1,0,1.221Z" transform="translate(-1.395 -2.233)" fill="#676c7d"/>
    <path id="Path_5575" data-name="Path 5575" d="M14.07,18.75H5.93c-3.59,0-4.68-1.091-4.68-4.68V5.93c0-3.59,1.091-4.68,4.68-4.68H7.151A2.517,2.517,0,0,1,9.593,2.471L10.814,4.1c.269.358.309.407.814.407H14.07c3.59,0,4.68,1.091,4.68,4.68V14.07C18.75,17.659,17.659,18.75,14.07,18.75ZM5.93,2.471c-2.906,0-3.459.553-3.459,3.459v8.14c0,2.906.553,3.459,3.459,3.459h8.14c2.906,0,3.459-.553,3.459-3.459V9.186c0-2.906-.553-3.459-3.459-3.459H11.628a1.869,1.869,0,0,1-1.791-.9L8.616,3.2a1.363,1.363,0,0,0-1.465-.733Z" fill="#676c7d"/>
  </g>
</svg>
