<svg xmlns="http://www.w3.org/2000/svg" width="12.403" height="7.262" viewBox="0 0 12.403 7.262">
  <path id="More" d="M18.36,23.98a.985.985,0,0,1-.392-.078,1.086,1.086,0,0,1-.34-.235l-5.179-5.179a.95.95,0,0,1-.275-.732,1.038,1.038,0,0,1,.3-.732.9.9,0,0,1,.745-.3,1.215,1.215,0,0,1,.719.327l4.42,4.42,4.42-4.42a1.1,1.1,0,0,1,.745-.314.861.861,0,0,1,.745.314.8.8,0,0,1,.3.719,1.24,1.24,0,0,1-.327.745l-5.153,5.153a1.086,1.086,0,0,1-.34.235A.985.985,0,0,1,18.36,23.98Z" transform="translate(-12.174 -16.717)" fill="#757c8a"/>
</svg>
