<svg xmlns="http://www.w3.org/2000/svg" width="25.38" height="17.766" viewBox="0 0 25.38 17.766">
  <path id="cloud-arrow-up-solid" d="M5.711,49.766a5.712,5.712,0,0,1-1.9-11.1q-.008-.161-.008-.321A6.346,6.346,0,0,1,15.652,35.18a3.527,3.527,0,0,1,2.114-.642,3.785,3.785,0,0,1,3.807,3.807,3.85,3.85,0,0,1-.254,1.372A5.076,5.076,0,0,1,20.3,49.766Zm3.133-8.605a.917.917,0,0,0,0,1.313.861.861,0,0,0,1.313,0l1.582-1.515v5.318a.952.952,0,0,0,1.9,0V40.958l1.547,1.515A.928.928,0,1,0,16.5,41.161l-3.173-3.173a.917.917,0,0,0-1.313,0Z" transform="translate(0 -32)" fill="#9cb0d9"/>
</svg>
