<svg xmlns="http://www.w3.org/2000/svg" width="22.888" height="22.888" viewBox="0 0 22.888 22.888">
  <path id="copy" d="M12.3,22.027h6.523a4.552,4.552,0,0,1-4.234,2.861H6.578A4.576,4.576,0,0,1,2,20.31V11.155A4.586,4.586,0,0,1,6.005,6.612v9.121A6.305,6.305,0,0,0,12.3,22.027ZM22.027,6.864h2.426a1.874,1.874,0,0,0-.24-.286l-3.9-3.9a1.324,1.324,0,0,0-.286-.229V4.861A2.012,2.012,0,0,0,22.027,6.864Zm0,1.717a3.726,3.726,0,0,1-3.719-3.719V2H12.3A4.576,4.576,0,0,0,7.722,6.578v9.155A4.576,4.576,0,0,0,12.3,20.31H20.31a4.576,4.576,0,0,0,4.578-4.578V8.58Z" transform="translate(-2 -2)" fill="#727ba5"/>
</svg>
