<svg xmlns="http://www.w3.org/2000/svg" width="16.736" height="11.506" viewBox="0 0 16.736 11.506">
  <g id="credit-card" transform="translate(0 -80)">
    <path id="Path_3936" data-name="Path 3936" d="M16.736,80.163v.883a1.83,1.83,0,0,1-1.83,1.83H1.83A1.83,1.83,0,0,1,0,81.046v-.883A.163.163,0,0,1,.163,80H16.573A.163.163,0,0,1,16.736,80.163Z" transform="translate(0 8.629)" fill="#676c7d"/>
    <path id="Path_3937" data-name="Path 3937" d="M0,207.42v-5.59A1.83,1.83,0,0,1,1.83,200H14.905a1.83,1.83,0,0,1,1.83,1.83v5.59a.163.163,0,0,1-.163.163H.163A.163.163,0,0,1,0,207.42Zm4.184-4.282a.523.523,0,0,0-.523-.523H3.138a.523.523,0,0,0-.523.523v.523a.523.523,0,0,0,.523.523h.523a.523.523,0,0,0,.523-.523Z" transform="translate(0 -120)" fill="#676c7d"/>
  </g>
</svg>
