<svg xmlns="http://www.w3.org/2000/svg" width="11.175" height="6.544" viewBox="0 0 11.175 6.544">
  <path id="More" d="M17.748,23.261a.888.888,0,0,1-.354-.071.979.979,0,0,1-.306-.212l-4.666-4.666a.856.856,0,0,1-.247-.66.935.935,0,0,1,.271-.66.814.814,0,0,1,.672-.271,1.1,1.1,0,0,1,.648.295L17.748,21l3.983-3.983a.993.993,0,0,1,.672-.283.776.776,0,0,1,.672.283.721.721,0,0,1,.271.648,1.117,1.117,0,0,1-.295.672l-4.643,4.643a.979.979,0,0,1-.306.212A.888.888,0,0,1,17.748,23.261Z" transform="translate(-12.174 -16.717)" fill="#fff"/>
</svg>
