<svg xmlns="http://www.w3.org/2000/svg" width="14.799" height="17.759" viewBox="0 0 14.799 17.759">
  <path id="duplicate" d="M16.174,2.421,14.484.676A2.235,2.235,0,0,0,12.889,0H9.4A3.706,3.706,0,0,0,5.774,2.96H5.7A3.7,3.7,0,0,0,2,6.66v7.4a3.7,3.7,0,0,0,3.7,3.7h4.44a3.7,3.7,0,0,0,3.7-3.7v-.074A3.706,3.706,0,0,0,16.8,10.36V3.966A2.211,2.211,0,0,0,16.174,2.421ZM10.14,16.279H5.7a2.22,2.22,0,0,1-2.22-2.22V6.66A2.22,2.22,0,0,1,5.7,4.44v5.92a3.7,3.7,0,0,0,3.7,3.7h2.96A2.22,2.22,0,0,1,10.14,16.279Zm2.96-3.7H9.4a2.22,2.22,0,0,1-2.22-2.22V3.7A2.22,2.22,0,0,1,9.4,1.48h2.96V2.96a1.48,1.48,0,0,0,1.48,1.48h1.48v5.92A2.22,2.22,0,0,1,13.1,12.579Z" transform="translate(-2)" fill="#fff"/>
</svg>
