<svg width="18" height="18" viewBox="0 0 18 18" fill="none" xmlns="http://www.w3.org/2000/svg">
<path d="M15.9375 6.86249C14.205 4.13999 11.67 2.57249 9 2.57249C7.665 2.57249 6.3675 2.96249 5.1825 3.68999C3.9975 4.42499 2.9325 5.49749 2.0625 6.86249C1.3125 8.03999 1.3125 9.95249 2.0625 11.13C3.795 13.86 6.33 15.42 9 15.42C10.335 15.42 11.6325 15.03 12.8175 14.3025C14.0025 13.5675 15.0675 12.495 15.9375 11.13C16.6875 9.95999 16.6875 8.03999 15.9375 6.86249ZM9 12.03C7.32 12.03 5.97 10.6725 5.97 8.99999C5.97 7.32749 7.32 5.96999 9 5.96999C10.68 5.96999 12.03 7.32749 12.03 8.99999C12.03 10.6725 10.68 12.03 9 12.03Z" fill="#99A1B7"/>
<path d="M9.00005 6.855C7.82255 6.855 6.86255 7.815 6.86255 9C6.86255 10.1775 7.82255 11.1375 9.00005 11.1375C10.1775 11.1375 11.145 10.1775 11.145 9C11.145 7.8225 10.1775 6.855 9.00005 6.855Z" fill="#99A1B7"/>
</svg>
