<svg width="18" height="18" viewBox="0 0 18 18" fill="none" xmlns="http://www.w3.org/2000/svg">
<path d="M15.9525 6.88501C15.735 6.54001 15.5025 6.21751 15.2625 5.91751C14.985 5.56501 14.46 5.53501 14.145 5.85001L11.895 8.10001C12.06 8.59501 12.09 9.16501 11.94 9.75751C11.6775 10.815 10.8225 11.67 9.76496 11.9325C9.17246 12.0825 8.60246 12.0525 8.10746 11.8875C8.10746 11.8875 7.03496 12.96 6.26246 13.7325C5.88746 14.1075 6.00746 14.7675 6.50996 14.9625C7.31246 15.27 8.14496 15.4275 8.99996 15.4275C10.335 15.4275 11.6325 15.0375 12.8175 14.31C14.025 13.56 15.1125 12.4575 15.99 11.055C16.7025 9.92251 16.665 8.01751 15.9525 6.88501Z" fill="#99A1B7"/>
<path d="M10.515 7.485L7.48498 10.515C7.10248 10.125 6.85498 9.585 6.85498 9C6.85498 7.8225 7.81498 6.855 8.99998 6.855C9.58498 6.855 10.125 7.1025 10.515 7.485Z" fill="#99A1B7"/>
<path d="M13.6875 4.31249L11.145 6.85499C10.5975 6.29999 9.84 5.96999 9 5.96999C7.32 5.96999 5.97 7.32749 5.97 8.99999C5.97 9.83999 6.3075 10.5975 6.855 11.145L4.32 13.6875H4.3125C3.48 13.0125 2.715 12.15 2.0625 11.13C1.3125 9.95249 1.3125 8.03999 2.0625 6.86249C2.9325 5.49749 3.9975 4.42499 5.1825 3.68999C6.3675 2.96999 7.665 2.57249 9 2.57249C10.6725 2.57249 12.2925 3.18749 13.6875 4.31249Z" fill="#99A1B7"/>
<path d="M11.1451 9C11.1451 10.1775 10.1851 11.145 9.00006 11.145C8.95506 11.145 8.91756 11.145 8.87256 11.13L11.1301 8.8725C11.1451 8.9175 11.1451 8.955 11.1451 9Z" fill="#99A1B7"/>
<path d="M16.3275 1.6725C16.1025 1.4475 15.735 1.4475 15.51 1.6725L1.67253 15.5175C1.44753 15.7425 1.44753 16.11 1.67253 16.335C1.78503 16.44 1.92753 16.5 2.07753 16.5C2.22753 16.5 2.37003 16.44 2.48253 16.3275L16.3275 2.4825C16.56 2.2575 16.56 1.8975 16.3275 1.6725Z" fill="#99A1B7"/>
</svg>
