<svg xmlns="http://www.w3.org/2000/svg" width="20.725" height="23.706" viewBox="0 0 20.725 23.706">
  <path id="html-5" d="M27.3.785l1.539,19.683a.728.728,0,0,0,.506.637l8.1,2.567a.728.728,0,0,0,.44,0l8.1-2.567a.728.728,0,0,0,.506-.637L48.018.785A.728.728,0,0,0,47.292,0H28.023A.728.728,0,0,0,27.3.785ZM44.072,6.892H34.045l.3,2.791h9.506l-.622,7.955-5.575,1.767-5.575-1.767-.325-4.156h2.926V15.52l3.052.819,3.034-.819L41,12.271H31.663l-.62-7.934H44.272Z" transform="translate(-27.295)" fill="#fc490b"/>
</svg>
