<svg xmlns="http://www.w3.org/2000/svg" width="12.992" height="16.385" viewBox="0 0 12.992 16.385">
  <g id="lock" transform="translate(-91.314 138.433)">
    <path id="Path_5619" data-name="Path 5619" d="M13.523,5.848V4.7a3.947,3.947,0,0,0-7.894,0V5.848A2.578,2.578,0,0,0,3.08,8.418v6.146a2.578,2.578,0,0,0,2.578,2.571h7.836a2.578,2.578,0,0,0,2.578-2.571V8.418a2.578,2.578,0,0,0-2.549-2.571ZM6.721,4.7a2.855,2.855,0,1,1,5.709,0V5.848H6.721Zm8.258,9.868a1.456,1.456,0,0,1-1.456,1.456H5.658A1.456,1.456,0,0,1,4.2,14.565V8.418A1.456,1.456,0,0,1,5.658,6.962h7.836A1.456,1.456,0,0,1,14.95,8.418Z" transform="translate(88.234 -139.183)" fill="#212534"/>
  </g>
</svg>
