<svg xmlns="http://www.w3.org/2000/svg" width="23.1" height="23.1" viewBox="0 0 23.1 23.1">
  <g id="page" transform="translate(-3 -3)">
    <path id="Path_504" data-name="Path 504" d="M17.116,3H6.85A3.861,3.861,0,0,0,3,6.85V17.116a3.861,3.861,0,0,0,3.85,3.85H17.116a3.861,3.861,0,0,0,3.85-3.85V6.85A3.861,3.861,0,0,0,17.116,3ZM14.55,13.266H13.266V14.55a1.283,1.283,0,0,1-2.567,0V13.266H9.417a1.283,1.283,0,1,1,0-2.567H10.7V9.417a1.283,1.283,0,1,1,2.567,0V10.7H14.55a1.283,1.283,0,0,1,0,2.567Z" transform="translate(0 0)" fill="#0a7efb"/>
    <path id="Path_505" data-name="Path 505" d="M18.833,25.25H7.283a1.283,1.283,0,1,1,0-2.567h11.55a3.85,3.85,0,0,0,3.85-3.85V7.283a1.283,1.283,0,1,1,2.567,0v11.55a6.424,6.424,0,0,1-6.417,6.417Z" transform="translate(0.85 0.85)" fill="#0a7efb"/>
  </g>
</svg>
