<svg xmlns="http://www.w3.org/2000/svg" width="17.738" height="16.303" viewBox="0 0 17.738 16.303">
  <path id="pulse" d="M14.042,1H3.7A3.7,3.7,0,0,0,0,4.7v8.913a3.7,3.7,0,0,0,3.7,3.7H14.042a3.7,3.7,0,0,0,3.7-3.7V4.7a3.7,3.7,0,0,0-3.7-3.7ZM16.26,13.608a2.217,2.217,0,0,1-2.217,2.217H3.7a2.217,2.217,0,0,1-2.217-2.217V4.7A2.217,2.217,0,0,1,3.7,2.478H14.042A2.217,2.217,0,0,1,16.26,4.7ZM14.781,9.652a.739.739,0,0,1-.739.739H11.851l-1.256,1.888a.739.739,0,0,1-.617.329H9.932a.739.739,0,0,1-.616-.407L7.669,8.9,6.9,10.062a.739.739,0,0,1-.615.329H3.7a.739.739,0,1,1,0-1.478H5.887L7.143,7.024A.729.729,0,0,1,7.806,6.7a.739.739,0,0,1,.616.407l1.647,3.3.772-1.158a.739.739,0,0,1,.615-.327h2.587A.739.739,0,0,1,14.781,9.652Z" transform="translate(0 -1)" fill="#676c7d"/>
</svg>
