<svg width="16" height="16" viewBox="0 0 16 16" fill="none" xmlns="http://www.w3.org/2000/svg">
<g clip-path="url(#clip0_627_1660)">
<path d="M6 9.49999L5.5 9.49899V9.49999H6ZM10.5 9.49999H11L10.5 9.49899V9.49999Z" fill="#FAFAFA"/>
<path d="M16.07 8.00001C16.07 6.89701 15.173 6.00001 14.07 6.00001C13.629 6.00001 13.21 6.14401 12.868 6.40501C11.752 5.63001 10.29 5.16801 8.735 5.05101L9.57401 3.08301L12.015 3.65301C12.093 4.40801 12.725 5.00001 13.5 5.00001C14.327 5.00001 15 4.32701 15 3.50001C15 2.67301 14.327 2.00001 13.5 2.00001C12.976 2.00001 12.515 2.27101 12.247 2.68001L9.394 2.01301C9.27924 1.98592 9.15858 2.00026 9.05337 2.05351C8.94815 2.10676 8.86514 2.19548 8.81901 2.30401L7.659 5.02401C5.98 5.08201 4.38 5.55501 3.172 6.37901C2.87322 6.16382 2.52088 6.0352 2.15373 6.00729C1.78659 5.97939 1.41885 6.05327 1.09098 6.22083C0.763104 6.38838 0.487789 6.64312 0.295312 6.95701C0.102836 7.2709 0.000653878 7.6318 4.69881e-06 8.00001C-0.000762907 8.3524 0.0925308 8.69861 0.270255 9.0029C0.44798 9.3072 0.703695 9.55855 1.011 9.73101C1.00328 9.82046 0.999614 9.91022 1 10C1 12.757 4.14001 15 8 15C11.859 15 15 12.757 15 10C15 9.92201 14.997 9.84501 14.992 9.76801C15.3174 9.60151 15.5903 9.34821 15.7805 9.03616C15.9708 8.72411 16.071 8.36549 16.07 8.00001Z" fill="#FF9800"/>
<path d="M13.5 4C13.7761 4 14 3.77614 14 3.5C14 3.22386 13.7761 3 13.5 3C13.2239 3 13 3.22386 13 3.5C13 3.77614 13.2239 4 13.5 4Z" fill="#FAFAFA"/>
<path d="M5.5 10.5C6.05228 10.5 6.5 10.0523 6.5 9.5C6.5 8.94772 6.05228 8.5 5.5 8.5C4.94772 8.5 4.5 8.94772 4.5 9.5C4.5 10.0523 4.94772 10.5 5.5 10.5Z" fill="#FAFAFA"/>
<path d="M10.3087 12.817C9.6371 13.3035 8.829 13.5654 7.9997 13.5654C7.17041 13.5654 6.36231 13.3035 5.6907 12.817C5.63588 12.7792 5.58916 12.7308 5.55329 12.6747C5.51743 12.6185 5.49313 12.5558 5.48184 12.4902C5.47055 12.4245 5.47249 12.3573 5.48755 12.2924C5.5026 12.2275 5.53047 12.1663 5.56951 12.1124C5.60855 12.0584 5.65798 12.0128 5.71489 11.9782C5.77181 11.9436 5.83506 11.9207 5.90094 11.9109C5.96682 11.9011 6.03399 11.9045 6.09852 11.921C6.16305 11.9375 6.22363 11.9668 6.2767 12.007C6.77762 12.3706 7.38073 12.5665 7.9997 12.5665C8.61868 12.5665 9.22179 12.3706 9.7227 12.007C9.77578 11.9668 9.83636 11.9375 9.90089 11.921C9.96541 11.9045 10.0326 11.9011 10.0985 11.9109C10.1643 11.9207 10.2276 11.9436 10.2845 11.9782C10.3414 12.0128 10.3909 12.0584 10.4299 12.1124C10.4689 12.1663 10.4968 12.2275 10.5119 12.2924C10.5269 12.3573 10.5289 12.4245 10.5176 12.4902C10.5063 12.5558 10.482 12.6185 10.4461 12.6747C10.4102 12.7308 10.3635 12.7792 10.3087 12.817Z" fill="#FAFAFA"/>
<path d="M10.5 10.5C11.0523 10.5 11.5 10.0523 11.5 9.5C11.5 8.94772 11.0523 8.5 10.5 8.5C9.94772 8.5 9.5 8.94772 9.5 9.5C9.5 10.0523 9.94772 10.5 10.5 10.5Z" fill="#FAFAFA"/>
</g>
<defs>
<clipPath id="clip0_627_1660">
<rect width="16" height="16" fill="white"/>
</clipPath>
</defs>
</svg>
