<svg width="17" height="9" viewBox="0 0 17 9" fill="none" xmlns="http://www.w3.org/2000/svg">
<path d="M12.4837 7.91717C12.2355 7.66782 12.2365 7.2645 12.4858 7.01633L14.7205 4.79244L1.23022 4.79244C0.878407 4.79244 0.593224 4.50726 0.593224 4.15544C0.593224 3.80363 0.878407 3.51844 1.23022 3.51844L14.7205 3.51844L12.4858 1.29456C12.2364 1.04638 12.2355 0.643065 12.4837 0.393712C12.7319 0.144327 13.1352 0.143404 13.3845 0.391547L16.713 3.70394C16.7128 3.70375 16.7132 3.70413 16.713 3.70394C16.9617 3.95211 16.9631 4.35734 16.7136 4.60634C16.7138 4.60615 16.7134 4.60653 16.7136 4.60634L13.3846 7.91934C13.1352 8.16745 12.7319 8.16659 12.4837 7.91717Z" fill="white"/>
</svg>
