<svg width="20" height="20" viewBox="0 0 20 20" fill="none" xmlns="http://www.w3.org/2000/svg">
<mask id="mask0_438_843" style="mask-type:alpha" maskUnits="userSpaceOnUse" x="0" y="0" width="20" height="20">
<rect width="20" height="20" fill="#D9D9D9"/>
</mask>
<g mask="url(#mask0_438_843)">
<path d="M10.8337 9.66666V6.66666C10.8337 6.43055 10.7538 6.23263 10.5941 6.07291C10.4344 5.91318 10.2364 5.83332 10.0003 5.83332C9.76421 5.83332 9.5663 5.91318 9.40658 6.07291C9.24685 6.23263 9.16699 6.43055 9.16699 6.66666V9.97916C9.16699 10.0903 9.18783 10.1979 9.22949 10.3021C9.27116 10.4062 9.33366 10.5 9.41699 10.5833L12.167 13.3333C12.3198 13.4861 12.5142 13.5625 12.7503 13.5625C12.9864 13.5625 13.1809 13.4861 13.3337 13.3333C13.4864 13.1805 13.5628 12.9861 13.5628 12.75C13.5628 12.5139 13.4864 12.3194 13.3337 12.1667L10.8337 9.66666ZM10.0003 18.3333C8.84755 18.3333 7.76421 18.1146 6.75033 17.6771C5.73644 17.2396 4.85449 16.6458 4.10449 15.8958C3.35449 15.1458 2.76074 14.2639 2.32324 13.25C1.88574 12.2361 1.66699 11.1528 1.66699 9.99999C1.66699 8.84721 1.88574 7.76388 2.32324 6.74999C2.76074 5.7361 3.35449 4.85416 4.10449 4.10416C4.85449 3.35416 5.73644 2.76041 6.75033 2.32291C7.76421 1.88541 8.84755 1.66666 10.0003 1.66666C11.1531 1.66666 12.2364 1.88541 13.2503 2.32291C14.2642 2.76041 15.1462 3.35416 15.8962 4.10416C16.6462 4.85416 17.2399 5.7361 17.6774 6.74999C18.1149 7.76388 18.3337 8.84721 18.3337 9.99999C18.3337 11.1528 18.1149 12.2361 17.6774 13.25C17.2399 14.2639 16.6462 15.1458 15.8962 15.8958C15.1462 16.6458 14.2642 17.2396 13.2503 17.6771C12.2364 18.1146 11.1531 18.3333 10.0003 18.3333ZM10.0003 16.6667C11.8475 16.6667 13.4205 16.0174 14.7191 14.7187C16.0177 13.4201 16.667 11.8472 16.667 9.99999C16.667 8.15277 16.0177 6.57985 14.7191 5.28124C13.4205 3.98263 11.8475 3.33332 10.0003 3.33332C8.1531 3.33332 6.58019 3.98263 5.28158 5.28124C3.98296 6.57985 3.33366 8.15277 3.33366 9.99999C3.33366 11.8472 3.98296 13.4201 5.28158 14.7187C6.58019 16.0174 8.1531 16.6667 10.0003 16.6667Z" fill="#212534"/>
</g>
</svg>
