<svg xmlns="http://www.w3.org/2000/svg" width="19.639" height="16.439" viewBox="0 0 19.639 16.439">
  <path id="share" d="M18.969,46.7l-4.446-4.446a1.6,1.6,0,0,0-1.106-.553c-.5,0-1.092.383-1.092,1.463v1.514A12.9,12.9,0,0,0,0,57.569a.575.575,0,0,0,1.035.346,14.712,14.712,0,0,1,11.29-5.921v1.49c0,1.08.588,1.463,1.092,1.463h0a1.6,1.6,0,0,0,1.106-.553l4.446-4.446a2.3,2.3,0,0,0,0-3.245Zm-.814,2.431L13.71,53.58a1.222,1.222,0,0,1-.208.172,1.222,1.222,0,0,1-.026-.269V51.407a.575.575,0,0,0-.575-.575,15.811,15.811,0,0,0-7.26,1.741,16.118,16.118,0,0,0-4.364,3.275A11.769,11.769,0,0,1,12.9,45.82a.575.575,0,0,0,.575-.575V43.168A1.224,1.224,0,0,1,13.5,42.9a1.222,1.222,0,0,1,.208.172l4.446,4.446a1.149,1.149,0,0,1,0,1.618Z" transform="translate(0 -41.705)" fill="#676c7d"/>
</svg>
