<svg width="16" height="16" viewBox="0 0 16 16" fill="none" xmlns="http://www.w3.org/2000/svg">
<g clip-path="url(#clip0_627_1676)">
<path d="M15.716 8.083C15.716 3.928 12.3 0.559005 8.085 0.559005C7.641 0.559005 7.205 0.597005 6.78 0.669005C6.07321 0.230537 5.25775 -0.00121594 4.426 4.79779e-06C1.981 4.79779e-06 8.19195e-07 1.953 8.19195e-07 4.364C-0.000478777 5.1411 0.209634 5.90379 0.608001 6.571C0.505019 7.06842 0.453083 7.57504 0.453001 8.083C0.453001 12.239 3.87 15.608 8.084 15.608C8.55283 15.6078 9.0207 15.5657 9.482 15.482C10.1268 15.8233 10.8455 16.0011 11.575 16C14.019 16 16 14.046 16 11.637C16 10.941 15.834 10.283 15.54 9.69901C15.6576 9.1684 15.7166 8.62649 15.716 8.083Z" fill="#03A9F4"/>
<path d="M11.9999 11.679C11.6469 12.172 11.1259 12.562 10.4489 12.838C9.77989 13.112 8.97889 13.253 8.06489 13.253C6.96889 13.253 6.04989 13.063 5.33189 12.687C4.83166 12.4255 4.40107 12.0484 4.07589 11.587C3.75089 11.127 3.58789 10.67 3.58789 10.227C3.58789 9.95301 3.69489 9.71301 3.90589 9.51801C4.11489 9.32301 4.38289 9.22601 4.70289 9.22601C4.96489 9.22601 5.19089 9.30301 5.37489 9.45601C5.54989 9.60401 5.70089 9.82201 5.82189 10.101C5.95689 10.407 6.10389 10.665 6.25889 10.866C6.40989 11.063 6.62489 11.227 6.89989 11.356C7.17689 11.484 7.54989 11.551 8.00789 11.551C8.63889 11.551 9.15689 11.417 9.54489 11.156C9.92589 10.901 10.1099 10.593 10.1099 10.217C10.1099 9.92101 10.0129 9.68701 9.81589 9.50401C9.58095 9.29732 9.30287 9.14564 9.00189 9.06001C8.54053 8.92528 8.0734 8.81117 7.60189 8.71801C6.80889 8.55101 6.13589 8.35401 5.60189 8.12801C5.05489 7.89801 4.61289 7.58001 4.29089 7.18301C3.96289 6.77701 3.79689 6.27001 3.79689 5.67401C3.79689 5.10601 3.97089 4.59401 4.31489 4.15201C4.65589 3.71301 5.15389 3.37001 5.79689 3.13701C6.42989 2.90601 7.18289 2.79001 8.03589 2.79001C8.71689 2.79001 9.31589 2.86801 9.81689 3.02201C10.3199 3.17601 10.7439 3.38401 11.0769 3.64101C11.4129 3.90101 11.6629 4.17601 11.8189 4.46401C11.9769 4.75401 12.0579 5.04301 12.0579 5.32201C12.0579 5.59101 11.9529 5.83601 11.7449 6.04801C11.5349 6.26201 11.2709 6.37001 10.9609 6.37001C10.6789 6.37001 10.4569 6.30101 10.3039 6.16801C10.1609 6.04301 10.0119 5.84801 9.84789 5.57001C9.68306 5.24485 9.44929 4.95956 9.16289 4.73401C8.90589 4.54101 8.47789 4.44501 7.88789 4.44501C7.34189 4.44501 6.89589 4.55301 6.56589 4.76701C6.24789 4.97201 6.09289 5.20801 6.09289 5.48801C6.09289 5.65901 6.14289 5.80201 6.24589 5.92501C6.35389 6.05701 6.50689 6.17001 6.70089 6.26601C6.90089 6.36501 7.10789 6.44501 7.31489 6.50101C7.52689 6.55901 7.88189 6.64601 8.37089 6.75701C8.98889 6.88701 9.55589 7.03401 10.0579 7.19301C10.5669 7.35201 11.0049 7.54901 11.3649 7.78001C11.7299 8.01501 12.0189 8.31501 12.2249 8.67501C12.4309 9.03801 12.5349 9.48301 12.5349 10.001C12.5394 10.603 12.352 11.1907 11.9999 11.679Z" fill="#FAFAFA"/>
</g>
<defs>
<clipPath id="clip0_627_1676">
<rect width="16" height="16" fill="white"/>
</clipPath>
</defs>
</svg>
