<svg xmlns="http://www.w3.org/2000/svg" width="14.324" height="17.579" viewBox="0 0 14.324 17.579">
  <g id="unlock" transform="translate(-5 -3)">
    <path id="Path_5571" data-name="Path 5571" d="M16.068,24.417H8.255A3.259,3.259,0,0,1,5,21.162V17.255A3.259,3.259,0,0,1,8.255,14h7.813a3.259,3.259,0,0,1,3.255,3.255v3.906A3.259,3.259,0,0,1,16.068,24.417ZM8.255,15.3A1.953,1.953,0,0,0,6.3,17.255v3.906a1.953,1.953,0,0,0,1.953,1.953h7.813a1.953,1.953,0,0,0,1.953-1.953V17.255A1.953,1.953,0,0,0,16.068,15.3Z" transform="translate(0 -3.838)" fill="#212534"/>
    <path id="Path_5572" data-name="Path 5572" d="M9.651,11.464A.651.651,0,0,1,9,10.813V7.558a4.558,4.558,0,0,1,9.115,0v.651a.651.651,0,1,1-1.3,0V7.558a3.255,3.255,0,0,0-6.511,0v3.255A.651.651,0,0,1,9.651,11.464Z" transform="translate(-1.396)" fill="#212534"/>
  </g>
</svg>
