<svg xmlns="http://www.w3.org/2000/svg" width="26.513" height="23.199" viewBox="0 0 26.513 23.199">
  <path id="vimeo" d="M22.643,1.506c-3.676-.134-6.16,1.974-7.47,6.29a4.764,4.764,0,0,1,1.963-.436c4.661,0-1.073,9.009-2.5,9.009-1.681,0-2.692-8.046-3.035-10.244q-.714-4.582-3.808-4.283-1.307.124-3.926,2.409Q1.962,6,0,7.741L1.247,9.368A8.169,8.169,0,0,1,3.325,8.1c3.416,0,3.19,16.594,8.6,16.594,5.194,0,14.336-12.727,14.564-17.828l.014-.011c.148-3.5-1.128-5.286-3.859-5.353Z" transform="translate(0 -1.5)" fill="#19b2e5"/>
</svg>
