<svg width="20" height="20" viewBox="0 0 20 20" fill="none" xmlns="http://www.w3.org/2000/svg">
<path d="M12.9975 10.8734L11.9783 9.85424C12.0232 9.32111 11.8595 8.86224 11.4871 8.47763C11.1148 8.09302 10.6674 7.93384 10.145 8.00007L9.12579 6.98086C9.26571 6.93278 9.40966 6.89939 9.55765 6.8807C9.70563 6.862 9.85281 6.85265 9.99917 6.85265C10.8752 6.85265 11.6188 7.15821 12.2299 7.76932C12.841 8.38043 13.1466 9.12402 13.1466 10.0001C13.1466 10.1464 13.1386 10.2941 13.1225 10.4432C13.1065 10.5922 13.0648 10.7356 12.9975 10.8734ZM15.7524 13.6122L14.9575 12.8334C15.4575 12.4445 15.9124 12.0174 16.3221 11.5522C16.7318 11.0869 17.0756 10.5695 17.3533 10.0001C16.6728 8.59729 15.6693 7.4966 14.3429 6.69799C13.0165 5.89938 11.5686 5.50007 9.99917 5.50007C9.63954 5.50007 9.28922 5.52264 8.94821 5.56778C8.60718 5.61292 8.26306 5.68063 7.91583 5.7709L7.02804 4.88311C7.50239 4.70149 7.98747 4.57836 8.48329 4.51372C8.97911 4.44908 9.4844 4.41676 9.99917 4.41676C11.7481 4.41676 13.3651 4.85773 14.8501 5.73968C16.3351 6.62162 17.468 7.84336 18.2485 9.40488C18.3024 9.50894 18.3383 9.60784 18.3565 9.70159C18.3747 9.79534 18.3838 9.89484 18.3838 10.0001C18.3838 10.1053 18.3733 10.2048 18.3525 10.2986C18.3317 10.3923 18.3004 10.4921 18.2588 10.5978C17.9639 11.1972 17.6006 11.745 17.169 12.2412C16.7374 12.7375 16.2652 13.1945 15.7524 13.6122ZM9.99917 15.5834C8.28657 15.5834 6.70645 15.1355 5.25881 14.2396C3.81116 13.3438 2.66269 12.1494 1.8134 10.6564C1.74495 10.5532 1.70165 10.4465 1.6835 10.3361C1.66533 10.2257 1.65625 10.1135 1.65625 9.99953C1.65625 9.88557 1.66667 9.77224 1.6875 9.65953C1.70833 9.54682 1.75347 9.44025 1.82292 9.33982C2.17442 8.70414 2.57583 8.11293 3.02715 7.56617C3.47847 7.01944 3.99693 6.52893 4.58254 6.09463L2.86779 4.38788C2.7524 4.27784 2.69204 4.15498 2.68671 4.0193C2.68136 3.88362 2.73905 3.75542 2.85977 3.6347C2.98049 3.51397 3.1095 3.45361 3.24679 3.45361C3.38407 3.45361 3.51307 3.51397 3.63379 3.6347L16.3645 16.3654C16.4799 16.4808 16.5376 16.6063 16.5376 16.742C16.5376 16.8777 16.4799 17.0032 16.3645 17.1186C16.2438 17.2394 16.1148 17.2997 15.9775 17.2997C15.8402 17.2997 15.7112 17.2394 15.5905 17.1186L13.387 14.9199C12.8483 15.1518 12.2953 15.3203 11.728 15.4255C11.1607 15.5308 10.5844 15.5834 9.99917 15.5834ZM5.35656 6.88947C4.78498 7.29438 4.26281 7.75219 3.79004 8.26288C3.31728 8.77356 2.9356 9.35263 2.645 10.0001C3.32556 11.4028 4.32903 12.5035 5.65542 13.3022C6.98181 14.1008 8.42972 14.5001 9.99917 14.5001C10.4433 14.5001 10.8796 14.4691 11.3082 14.4071C11.7368 14.3452 12.1568 14.2431 12.5681 14.101L11.3261 12.8751C11.1156 12.9765 10.8985 13.0473 10.6746 13.0874C10.4508 13.1275 10.2257 13.1475 9.99917 13.1475C9.12311 13.1475 8.37953 12.8419 7.76842 12.2308C7.15731 11.6197 6.85175 10.8761 6.85175 10.0001C6.85175 9.77357 6.88006 9.54841 6.93669 9.32459C6.99331 9.10076 7.05581 8.88361 7.12419 8.67313L5.35656 6.88947Z" fill="#676C7D"/>
</svg>
