<svg width="20" height="20" viewBox="0 0 20 20" fill="none" xmlns="http://www.w3.org/2000/svg">
<path d="M10.0024 13.1474C10.8772 13.1474 11.6201 12.8412 12.2312 12.2289C12.8423 11.6165 13.1479 10.8729 13.1479 9.9981C13.1479 9.12331 12.8417 8.38036 12.2293 7.76925C11.617 7.15814 10.8734 6.85258 9.99857 6.85258C9.12378 6.85258 8.38083 7.15876 7.76972 7.77112C7.15861 8.3835 6.85305 9.12709 6.85305 10.0019C6.85305 10.8767 7.15923 11.6196 7.77159 12.2307C8.38397 12.8419 9.12756 13.1474 10.0024 13.1474ZM10.0005 12C9.44491 12 8.97269 11.8056 8.5838 11.4167C8.19491 11.0278 8.00047 10.5556 8.00047 10C8.00047 9.44444 8.19491 8.97222 8.5838 8.58333C8.97269 8.19444 9.44491 8 10.0005 8C10.556 8 11.0282 8.19444 11.4171 8.58333C11.806 8.97222 12.0005 9.44444 12.0005 10C12.0005 10.5556 11.806 11.0278 11.4171 11.4167C11.0282 11.8056 10.556 12 10.0005 12ZM10.0016 15.5833C8.13255 15.5833 6.42952 15.0756 4.89253 14.0601C3.35553 13.0446 2.20776 11.6912 1.44922 10C2.20776 8.30876 3.35515 6.9554 4.89139 5.93992C6.42761 4.92443 8.13025 4.41669 9.99932 4.41669C11.8684 4.41669 13.5714 4.92443 15.1084 5.93992C16.6454 6.9554 17.7932 8.30876 18.5517 10C17.7932 11.6912 16.6458 13.0446 15.1096 14.0601C13.5733 15.0756 11.8707 15.5833 10.0016 15.5833ZM10.0005 14.5C11.556 14.5 12.9935 14.0972 14.313 13.2917C15.6324 12.4861 16.6463 11.3889 17.3546 10C16.6463 8.61111 15.6324 7.51389 14.313 6.70833C12.9935 5.90278 11.556 5.5 10.0005 5.5C8.44491 5.5 7.00741 5.90278 5.68797 6.70833C4.36852 7.51389 3.35464 8.61111 2.6463 10C3.35464 11.3889 4.36852 12.4861 5.68797 13.2917C7.00741 14.0972 8.44491 14.5 10.0005 14.5Z" fill="#676C7D"/>
</svg>
