<svg xmlns="http://www.w3.org/2000/svg" width="17.704" height="15.925" viewBox="0 0 17.704 15.925">
  <path id="warning" d="M8.541,3.284a2.65,2.65,0,0,1,4.577,0l6.2,10.626a2.65,2.65,0,0,1-2.289,3.985H4.631A2.65,2.65,0,0,1,2.343,13.91Zm3.052.89a.883.883,0,0,0-1.526,0L3.868,14.8a.883.883,0,0,0,.763,1.328h12.4a.883.883,0,0,0,.763-1.328ZM10.83,7.3a.883.883,0,0,1,.883.883v2.65a.883.883,0,1,1-1.766,0V8.179A.883.883,0,0,1,10.83,7.3Zm-.883,6.183a.883.883,0,0,1,.883-.883h.009a.883.883,0,0,1,0,1.766H10.83A.883.883,0,0,1,9.946,13.478Z" transform="translate(-1.978 -1.969)" fill="#e42f41" fill-rule="evenodd"/>
</svg>
