<svg xmlns="http://www.w3.org/2000/svg" width="26.582" height="18.707" viewBox="0 0 26.582 18.707">
  <path id="XMLID_823_" d="M25.546,47.523c-.96-1.141-2.731-1.606-6.114-1.606H7.15c-3.461,0-5.262.5-6.218,1.71C0,48.811,0,50.555,0,52.97v4.6c0,4.678,1.106,7.053,7.15,7.053H19.432c2.934,0,4.56-.411,5.612-1.417,1.079-1.032,1.539-2.718,1.539-5.635v-4.6C26.582,50.423,26.51,48.669,25.546,47.523Zm-8.48,8.383-5.577,2.915a.857.857,0,0,1-1.255-.76V52.25a.857.857,0,0,1,1.253-.761l5.577,2.9a.857.857,0,0,1,0,1.521Z" transform="translate(0 -45.917)" fill="#f33c67"/>
</svg>
