<svg width="32" height="32" viewBox="0 0 32 32" fill="none" xmlns="http://www.w3.org/2000/svg">
<path d="M21.0636 2.94682C20.517 2.40015 19.5703 2.77349 19.5703 3.53349V8.18682C19.5703 10.1335 21.2236 11.7468 23.237 11.7468C24.5036 11.7602 26.2636 11.7602 27.7703 11.7602C28.5303 11.7602 28.9303 10.8668 28.397 10.3335C26.477 8.40015 23.037 4.92015 21.0636 2.94682Z" fill="#19B363"/>
<path d="M27.3359 13.5865H23.4826C20.3226 13.5865 17.7493 11.0132 17.7493 7.85317V3.99984C17.7493 3.2665 17.1493 2.6665 16.4159 2.6665H10.7626C6.65594 2.6665 3.33594 5.33317 3.33594 10.0932V21.9065C3.33594 26.6665 6.65594 29.3332 10.7626 29.3332H21.2426C25.3493 29.3332 28.6693 26.6665 28.6693 21.9065V14.9198C28.6693 14.1865 28.0693 13.5865 27.3359 13.5865ZM15.3359 23.6665H10.0026C9.45594 23.6665 9.0026 23.2132 9.0026 22.6665C9.0026 22.1198 9.45594 21.6665 10.0026 21.6665H15.3359C15.8826 21.6665 16.3359 22.1198 16.3359 22.6665C16.3359 23.2132 15.8826 23.6665 15.3359 23.6665ZM18.0026 18.3332H10.0026C9.45594 18.3332 9.0026 17.8798 9.0026 17.3332C9.0026 16.7865 9.45594 16.3332 10.0026 16.3332H18.0026C18.5493 16.3332 19.0026 16.7865 19.0026 17.3332C19.0026 17.8798 18.5493 18.3332 18.0026 18.3332Z" fill="#19B363"/>
</svg>
