<svg width="40" height="40" viewBox="0 0 40 40" fill="none" xmlns="http://www.w3.org/2000/svg">
<path d="M20.0026 3.3335C10.8193 3.3335 3.33594 10.8168 3.33594 20.0002C3.33594 29.1835 10.8193 36.6668 20.0026 36.6668C29.1859 36.6668 36.6693 29.1835 36.6693 20.0002C36.6693 10.8168 29.1859 3.3335 20.0026 3.3335ZM27.2526 25.9502C27.0193 26.3502 26.6026 26.5668 26.1693 26.5668C25.9526 26.5668 25.7359 26.5168 25.5359 26.3835L20.3693 23.3002C19.0859 22.5335 18.1359 20.8502 18.1359 19.3668V12.5335C18.1359 11.8502 18.7026 11.2835 19.3859 11.2835C20.0693 11.2835 20.6359 11.8502 20.6359 12.5335V19.3668C20.6359 19.9668 21.1359 20.8502 21.6526 21.1502L26.8193 24.2335C27.4193 24.5835 27.6193 25.3502 27.2526 25.9502Z" fill="#7E6FFF"/>
</svg>
