<svg width="40" height="40" viewBox="0 0 40 40" fill="none" xmlns="http://www.w3.org/2000/svg">
<path d="M35.9354 17.8999L33.6688 15.2666C33.2354 14.7666 32.8854 13.8333 32.8854 13.1666V10.3333C32.8854 8.5666 31.4354 7.1166 29.6687 7.1166H26.8354C26.1854 7.1166 25.2354 6.7666 24.7354 6.33327L22.1021 4.0666C20.9521 3.08327 19.0688 3.08327 17.9021 4.0666L15.2854 6.34993C14.7854 6.7666 13.8354 7.1166 13.1854 7.1166H10.3021C8.53542 7.1166 7.08542 8.5666 7.08542 10.3333V13.1833C7.08542 13.8333 6.73542 14.7666 6.31875 15.2666L4.06875 17.9166C3.10208 19.0666 3.10208 20.9333 4.06875 22.0833L6.31875 24.7333C6.73542 25.2333 7.08542 26.1666 7.08542 26.8166V29.6666C7.08542 31.4333 8.53542 32.8833 10.3021 32.8833H13.1854C13.8354 32.8833 14.7854 33.2333 15.2854 33.6666L17.9188 35.9333C19.0688 36.9166 20.9521 36.9166 22.1188 35.9333L24.7521 33.6666C25.2521 33.2333 26.1854 32.8833 26.8521 32.8833H29.6854C31.4521 32.8833 32.9021 31.4333 32.9021 29.6666V26.8333C32.9021 26.1833 33.2521 25.2333 33.6854 24.7333L35.9521 22.0999C36.9188 20.9499 36.9188 19.0499 35.9354 17.8999ZM26.9354 16.8499L18.8854 24.8999C18.6521 25.1333 18.3354 25.2666 18.0021 25.2666C17.6688 25.2666 17.3521 25.1333 17.1188 24.8999L13.0854 20.8666C12.6021 20.3833 12.6021 19.5833 13.0854 19.0999C13.5688 18.6166 14.3687 18.6166 14.8521 19.0999L18.0021 22.2499L25.1688 15.0833C25.6521 14.5999 26.4521 14.5999 26.9354 15.0833C27.4188 15.5666 27.4188 16.3666 26.9354 16.8499Z" fill="#49B6EE"/>
</svg>
