<svg width="40" height="40" viewBox="0 0 40 40" fill="none" xmlns="http://www.w3.org/2000/svg">
<path d="M19.9974 19.2168C15.3974 19.2168 11.6641 22.9501 11.6641 27.5501C11.6641 28.7835 11.9307 29.9501 12.4307 30.9835C12.5641 31.2835 12.7141 31.5668 12.8807 31.8335C14.3141 34.2501 16.9641 35.8835 19.9974 35.8835C23.0307 35.8835 25.6807 34.2501 27.1141 31.8335C27.2807 31.5668 27.4307 31.2835 27.5641 30.9835C28.0641 29.9501 28.3307 28.7835 28.3307 27.5501C28.3307 22.9501 24.5974 19.2168 19.9974 19.2168ZM23.4474 26.8335L19.8974 30.1168C19.6641 30.3335 19.3474 30.4501 19.0474 30.4501C18.7307 30.4501 18.4141 30.3335 18.1641 30.0835L16.5141 28.4335C16.0307 27.9501 16.0307 27.1501 16.5141 26.6668C16.9974 26.1835 17.7974 26.1835 18.2807 26.6668L19.0807 27.4668L21.7474 25.0001C22.2641 24.5335 23.0474 24.5668 23.5141 25.0668C23.9807 25.5668 23.9474 26.3501 23.4474 26.8335Z" fill="#FF5F4A"/>
<path d="M33.6597 28.4502C33.0597 28.9835 32.4097 29.4335 31.7097 29.8002C31.1097 30.1002 30.5097 29.5169 30.6097 28.8502C30.6764 28.3669 30.7097 27.8669 30.7097 27.3502C30.7097 21.3835 25.843 16.5169 19.8764 16.5169C13.9097 16.5169 9.04304 21.3835 9.04304 27.3502C9.04304 28.1169 9.12637 28.8502 9.27637 29.5669C9.39304 30.1502 8.94304 30.7335 8.3597 30.5835C1.77637 28.9835 1.74304 18.8502 9.1097 18.3335H9.19304C3.84304 3.45021 26.4097 -2.49979 28.993 13.1335C36.2097 14.0502 39.1264 23.6669 33.6597 28.4502Z" fill="#FF5F4A"/>
</svg>
