<svg width="40" height="40" viewBox="0 0 40 40" fill="none" xmlns="http://www.w3.org/2000/svg">
<path d="M14.7421 7.66866C13.4088 1.90199 4.72543 1.88532 3.3921 7.66866C2.60877 11.052 4.75877 13.9187 6.62543 15.702C7.9921 16.9853 10.1421 16.9853 11.5088 15.702C13.3754 13.9187 15.5088 11.052 14.7421 7.66866ZM9.12543 10.3353C8.20877 10.3353 7.45877 9.58532 7.45877 8.66866C7.45877 7.75199 8.1921 7.00199 9.10877 7.00199H9.12543C10.0588 7.00199 10.7921 7.75199 10.7921 8.66866C10.7921 9.58532 10.0588 10.3353 9.12543 10.3353Z" fill="#19B363"/>
<path d="M36.5342 27.6687C35.2009 21.902 26.4842 21.8853 25.1342 27.6687C24.3509 31.052 26.5009 33.9187 28.3842 35.702C29.7509 36.9853 31.9176 36.9853 33.2842 35.702C35.1676 33.9187 37.3176 31.052 36.5342 27.6687ZM30.9009 30.3353C29.9842 30.3353 29.2342 29.5853 29.2342 28.6687C29.2342 27.752 29.9676 27.002 30.8842 27.002H30.9009C31.8176 27.002 32.5676 27.752 32.5676 28.6687C32.5676 29.5853 31.8176 30.3353 30.9009 30.3353Z" fill="#19B363"/>
<path d="M19.9971 32.9173H15.5305C13.5971 32.9173 11.9138 31.7507 11.2471 29.9507C10.5638 28.1507 11.0638 26.1673 12.5138 24.884L25.8305 13.234C26.6305 12.534 26.6471 11.584 26.4138 10.934C26.1638 10.284 25.5305 9.58399 24.4638 9.58399H19.9971C19.3138 9.58399 18.7471 9.01732 18.7471 8.33398C18.7471 7.65065 19.3138 7.08398 19.9971 7.08398H24.4638C26.3971 7.08398 28.0805 8.25065 28.7471 10.0507C29.4305 11.8507 28.9305 13.834 27.4805 15.1173L14.1638 26.7673C13.3638 27.4673 13.3471 28.4173 13.5805 29.0673C13.8305 29.7173 14.4638 30.4173 15.5305 30.4173H19.9971C20.6805 30.4173 21.2471 30.984 21.2471 31.6673C21.2471 32.3507 20.6805 32.9173 19.9971 32.9173Z" fill="#19B363"/>
</svg>
