<svg width="40" height="40" viewBox="0 0 40 40" fill="none" xmlns="http://www.w3.org/2000/svg">
<path d="M35 37.9165H5C4.31667 37.9165 3.75 37.3498 3.75 36.6665C3.75 35.9832 4.31667 35.4165 5 35.4165H35C35.6833 35.4165 36.25 35.9832 36.25 36.6665C36.25 37.3498 35.6833 37.9165 35 37.9165Z" fill="#008AFF"/>
<path d="M9.33333 13.9668H6.66667C5.75 13.9668 5 14.7168 5 15.6335V30.0001C5 30.9168 5.75 31.6668 6.66667 31.6668H9.33333C10.25 31.6668 11 30.9168 11 30.0001V15.6335C11 14.7001 10.25 13.9668 9.33333 13.9668Z" fill="#008AFF"/>
<path d="M21.3411 8.6499H18.6745C17.7578 8.6499 17.0078 9.3999 17.0078 10.3166V29.9999C17.0078 30.9166 17.7578 31.6666 18.6745 31.6666H21.3411C22.2578 31.6666 23.0078 30.9166 23.0078 29.9999V10.3166C23.0078 9.3999 22.2578 8.6499 21.3411 8.6499Z" fill="#008AFF"/>
<path d="M33.3333 3.3335H30.6667C29.75 3.3335 29 4.0835 29 5.00016V30.0002C29 30.9168 29.75 31.6668 30.6667 31.6668H33.3333C34.25 31.6668 35 30.9168 35 30.0002V5.00016C35 4.0835 34.25 3.3335 33.3333 3.3335Z" fill="#008AFF"/>
</svg>
