<svg width="32" height="32" viewBox="0 0 32 32" fill="none" xmlns="http://www.w3.org/2000/svg">
<path d="M19.6472 2.6665H12.3672V8.47984H19.6472V2.6665Z" fill="#0A7EFB"/>
<path d="M21.6328 2.6665V8.47984H29.1528C28.4728 4.81317 25.7661 2.67984 21.6328 2.6665Z" fill="#0A7EFB"/>
<path d="M2.66406 10.48V21.5866C2.66406 26.44 5.5574 29.3333 10.4107 29.3333H21.5841C26.4374 29.3333 29.3307 26.44 29.3307 21.5866V10.48H2.66406ZM19.2507 21.5733L16.4774 23.1733C15.8907 23.5066 15.3174 23.68 14.7841 23.68C14.3841 23.68 14.0241 23.5866 13.6907 23.4C12.9174 22.96 12.4907 22.0533 12.4907 20.88V17.68C12.4907 16.5066 12.9174 15.6 13.6907 15.16C14.4641 14.7066 15.4507 14.7866 16.4774 15.3866L19.2507 16.9866C20.2774 17.5733 20.8374 18.4 20.8374 19.2933C20.8374 20.1866 20.2641 20.9733 19.2507 21.5733Z" fill="#0A7EFB"/>
<path d="M10.3637 2.6665C6.23042 2.67984 3.52375 4.81317 2.84375 8.47984H10.3637V2.6665Z" fill="#0A7EFB"/>
</svg>
