<svg width="32" height="32" viewBox="0 0 32 32" fill="none" xmlns="http://www.w3.org/2000/svg">
<path d="M25.9974 10.6667C27.8383 10.6667 29.3307 9.17428 29.3307 7.33333C29.3307 5.49238 27.8383 4 25.9974 4C24.1564 4 22.6641 5.49238 22.6641 7.33333C22.6641 9.17428 24.1564 10.6667 25.9974 10.6667Z" fill="#0A7EFB"/>
<path d="M25.9974 10.6667C27.8383 10.6667 29.3307 9.17428 29.3307 7.33333C29.3307 5.49238 27.8383 4 25.9974 4C24.1564 4 22.6641 5.49238 22.6641 7.33333C22.6641 9.17428 24.1564 10.6667 25.9974 10.6667Z" fill="#0A7EFB"/>
<path d="M27.6241 12.4132C26.6907 12.7065 25.6641 12.7598 24.5974 12.4932C22.8107 12.0265 21.3574 10.5998 20.8641 8.81317C20.6241 7.9465 20.6107 7.09317 20.7574 6.31984C20.9307 5.4665 20.3307 4.6665 19.4774 4.6665H9.33073C5.33073 4.6665 2.66406 6.6665 2.66406 11.3332V20.6665C2.66406 25.3332 5.33073 27.3332 9.33073 27.3332H22.6641C26.6641 27.3332 29.3307 25.3332 29.3307 20.6665V13.6798C29.3307 12.7998 28.4774 12.1332 27.6241 12.4132ZM20.6907 14.8665L19.1174 16.1198C18.2374 16.8265 17.1174 17.1732 15.9974 17.1732C14.8774 17.1732 13.7441 16.8265 12.8774 16.1198L8.70406 12.7865C8.2774 12.4398 8.21073 11.7998 8.54406 11.3732C8.89073 10.9465 9.5174 10.8665 9.94406 11.2132L14.1174 14.5465C15.1307 15.3598 16.8507 15.3598 17.8641 14.5465L19.4374 13.2932C19.8641 12.9465 20.5041 13.0132 20.8374 13.4532C21.1841 13.8798 21.1174 14.5198 20.6907 14.8665Z" fill="#0A7EFB"/>
</svg>
