<svg width="36" height="36" viewBox="0 0 36 36" fill="none" xmlns="http://www.w3.org/2000/svg">
<path d="M16.5 3H13.5C6 3 3 6 3 13.5V22.5C3 30 6 33 13.5 33H22.5C30 33 33 30 33 22.5V19.5" stroke="#212534" stroke-width="2.25" stroke-linecap="round" stroke-linejoin="round"/>
<path d="M24.0569 4.52965L12.2369 16.3496C11.7869 16.7996 11.3369 17.6846 11.2469 18.3296L10.6019 22.8446C10.3619 24.4796 11.5169 25.6196 13.1519 25.3946L17.6669 24.7496C18.2969 24.6596 19.1819 24.2096 19.6469 23.7596L31.4669 11.9396C33.5069 9.89965 34.4669 7.52965 31.4669 4.52965C28.4669 1.52965 26.0969 2.48965 24.0569 4.52965Z" stroke="#212534" stroke-width="2.25" stroke-miterlimit="10" stroke-linecap="round" stroke-linejoin="round"/>
<path d="M22.3594 6.22485C23.3644 9.80985 26.1694 12.6149 29.7694 13.6349" stroke="#212534" stroke-width="2.25" stroke-miterlimit="10" stroke-linecap="round" stroke-linejoin="round"/>
</svg>
