<svg width="209" height="45" viewBox="0 0 209 45" fill="none" xmlns="http://www.w3.org/2000/svg">
<path d="M70.9089 19.5999C69.4543 18.6855 67.7603 18.2251 66.0429 18.2775C64.3638 18.2401 62.7068 18.6654 61.2532 19.5067C59.8731 20.3331 58.7606 21.5399 58.0487 22.9824C57.2444 24.6363 56.8491 26.4592 56.8958 28.2977C56.8549 30.0643 57.2571 31.813 58.0657 33.3842C58.8071 34.8032 59.9398 35.98 61.3295 36.7751C62.8219 37.6111 64.5107 38.0326 66.2209 37.9959C67.9598 38.0151 69.6683 37.5388 71.1463 36.6225C72.6263 35.7047 73.7822 34.3472 74.4525 32.7399L70.9089 31.6124C70.4909 32.5205 69.8198 33.2887 68.9761 33.825C68.09 34.3511 67.073 34.6156 66.0429 34.588C65.2992 34.632 64.5554 34.5017 63.871 34.2073C63.1866 33.9129 62.5805 33.4627 62.1009 32.8925C61.2933 31.8081 60.8323 30.505 60.7784 29.154H74.6983C74.8765 27.1906 74.6129 25.2122 73.9269 23.3639C73.3355 21.8267 72.2808 20.5114 70.9089 19.5999ZM62.1009 23.1944C62.6018 22.6116 63.2324 22.1547 63.9421 21.8602C64.6518 21.5657 65.4208 21.4419 66.187 21.4989C66.8757 21.4468 67.5668 21.5605 68.2025 21.8304C68.8381 22.1004 69.3999 22.5186 69.8408 23.0502C70.5213 24.0255 70.9202 25.1694 70.9937 26.3564H60.8208C60.9585 25.2073 61.4004 24.1157 62.1009 23.1944Z" fill="#293253"/>
<path d="M82.5315 12.0547H78.9202V37.4869H82.5315V12.0547Z" fill="#293253"/>
<path d="M100.698 19.5999C99.2439 18.6855 97.5498 18.2251 95.8325 18.2775C94.1533 18.2393 92.496 18.6646 91.0427 19.5067C89.6627 20.3331 88.5501 21.5399 87.8383 22.9824C87.034 24.6363 86.6386 26.4592 86.6854 28.2977C86.6444 30.0643 87.0466 31.813 87.8552 33.3842C88.5943 34.8049 89.7276 35.9823 91.119 36.7751C92.6114 37.6111 94.3003 38.0326 96.0105 37.9959C97.7494 38.0151 99.4578 37.5388 100.936 36.6225C102.414 35.7022 103.569 34.3454 104.242 32.7399L100.698 31.6124C100.278 32.5187 99.6071 33.2862 98.7656 33.825C97.8795 34.3511 96.8626 34.6156 95.8325 34.588C95.0886 34.6327 94.3447 34.5027 93.6602 34.2082C92.9756 33.9138 92.3696 33.4632 91.8905 32.8925C91.0828 31.8081 90.6218 30.505 90.568 29.154H104.488C104.662 27.1865 104.393 25.205 103.699 23.3554C103.108 21.8253 102.06 20.5142 100.698 19.5999ZM91.8905 23.1944C92.3909 22.6111 93.0215 22.1538 93.7313 21.8592C94.4411 21.5647 95.2102 21.4413 95.9766 21.4989C96.6652 21.4468 97.3563 21.5605 97.992 21.8304C98.6277 22.1004 99.1895 22.5186 99.6303 23.0502C100.304 24.0292 100.702 25.171 100.783 26.3564H90.6104C90.748 25.2073 91.19 24.1157 91.8905 23.1944Z" fill="#293253"/>
<path d="M127.513 18.3287C126.329 18.319 125.162 18.6107 124.122 19.1764C123.172 19.6914 122.377 20.4491 121.816 21.3721C121.351 20.4695 120.644 19.7149 119.773 19.1934C118.742 18.6045 117.569 18.3112 116.382 18.3456C115.198 18.3344 114.03 18.6262 112.991 19.1934C112.229 19.6192 111.563 20.1961 111.033 20.8888V18.7949H107.837V37.4452H111.473V25.8057C111.421 24.6852 111.793 23.5861 112.516 22.7284C112.875 22.3596 113.304 22.0663 113.778 21.8661C114.252 21.6659 114.761 21.5627 115.276 21.5627C115.79 21.5627 116.299 21.6659 116.773 21.8661C117.247 22.0663 117.676 22.3596 118.035 22.7284C118.753 23.627 119.115 24.7588 119.052 25.9075V37.4791H122.664V25.8057C122.635 24.9855 122.816 24.1715 123.189 23.4405C123.509 22.8461 123.991 22.3551 124.58 22.0248C125.158 21.7066 125.809 21.5431 126.47 21.5501C126.981 21.53 127.49 21.6203 127.962 21.8149C128.435 22.0095 128.86 22.3037 129.208 22.6776C129.94 23.5634 130.309 24.6929 130.242 25.8396V37.4791H133.854V24.9749C133.94 23.2122 133.349 21.4833 132.201 20.1428C131.595 19.5227 130.862 19.0398 130.054 18.7269C129.245 18.4139 128.378 18.2781 127.513 18.3287Z" fill="#293253"/>
<path d="M151.071 19.601C149.626 18.693 147.945 18.2328 146.239 18.2785C144.56 18.2412 142.903 18.6664 141.449 19.5077C140.069 20.3342 138.957 21.5409 138.245 22.9834C137.441 24.6374 137.045 26.4602 137.092 28.2988C137.051 30.0653 137.453 31.814 138.262 33.3852C139.003 34.8042 140.136 35.981 141.526 36.7762C143.018 37.6121 144.707 38.0336 146.417 37.9969C148.156 38.0162 149.865 37.5398 151.343 36.6236C152.823 35.7058 153.979 34.3482 154.649 32.7409L151.071 31.6134C150.653 32.5215 149.982 33.2898 149.138 33.826C148.252 34.3521 147.235 34.6166 146.205 34.589C145.462 34.6331 144.718 34.5027 144.033 34.2083C143.349 33.914 142.743 33.4637 142.263 32.8935C141.456 31.8092 140.995 30.506 140.941 29.155H154.861C155.035 27.1875 154.765 25.206 154.072 23.3564C153.484 21.8247 152.436 20.5128 151.071 19.601ZM142.297 23.1954C142.798 22.6127 143.429 22.1557 144.138 21.8612C144.848 21.5667 145.617 21.443 146.383 21.4999C147.072 21.4479 147.763 21.5616 148.399 21.8315C149.034 22.1014 149.596 22.5197 150.037 23.0513C150.718 24.0266 151.117 25.1704 151.19 26.3574H141.06C141.185 25.2124 141.612 24.1212 142.297 23.1954Z" fill="#293253"/>
<path d="M174.283 22.7623C173.992 21.9592 173.568 21.2111 173.028 20.5497C172.45 19.851 171.719 19.2942 170.892 18.922C169.869 18.4754 168.76 18.2611 167.645 18.2947C166.135 18.2491 164.643 18.628 163.338 19.3883C162.617 19.8369 161.983 20.4112 161.465 21.0838V18.7949H158.235V37.4451H161.897V27.7555C161.877 26.8038 162.003 25.8546 162.27 24.941C162.471 24.2506 162.818 23.6116 163.287 23.0675C163.704 22.6097 164.225 22.258 164.805 22.0417C165.391 21.8265 166.011 21.7175 166.636 21.7196C167.484 21.6815 168.324 21.8938 169.052 22.3299C169.661 22.7222 170.156 23.2693 170.485 23.9152C170.83 24.5854 171.064 25.3067 171.18 26.0515C171.296 26.7947 171.356 27.5457 171.358 28.298V37.479H175.029V27.1027C175.022 26.4304 174.971 25.7592 174.876 25.0936C174.759 24.298 174.56 23.5168 174.283 22.7623Z" fill="#293253"/>
<path d="M184.667 13.6064H181.031V18.7946H177.453V21.6684H181.031V30.1458C181.031 31.1631 181.031 32.0702 181.031 32.8671C181.064 33.6952 181.287 34.5045 181.683 35.2323C182.112 36.0767 182.818 36.7475 183.684 37.1312C184.638 37.5524 185.667 37.7773 186.71 37.7924C187.874 37.8225 189.037 37.723 190.178 37.4957V34.3845C189.121 34.5518 188.048 34.5889 186.982 34.4947C186.575 34.4734 186.181 34.3504 185.834 34.1372C185.488 33.9239 185.2 33.6271 184.998 33.274C184.772 32.8423 184.653 32.3626 184.65 31.8752C184.65 31.3101 184.65 30.6573 184.65 29.9169V21.6684H190.203V18.7946H184.65L184.667 13.6064Z" fill="#293253"/>
<path d="M208.268 29.6208C207.784 28.8639 207.096 28.2587 206.284 27.8745C205.093 27.2847 203.839 26.8324 202.546 26.5266C201.088 26.1621 200.002 25.8484 199.231 25.5771C198.666 25.4162 198.147 25.126 197.714 24.7294C197.456 24.4407 197.316 24.0652 197.324 23.6782C197.319 23.3279 197.413 22.9834 197.594 22.6837C197.775 22.384 198.037 22.1412 198.349 21.9827C199.164 21.5436 200.09 21.3548 201.011 21.4401C202.003 21.435 202.972 21.7305 203.792 22.2879C204.141 22.5328 204.434 22.8491 204.652 23.216C204.87 23.5828 205.007 23.9918 205.055 24.4157L208.76 23.7375C208.642 22.6686 208.208 21.659 207.513 20.8383C206.781 19.9878 205.849 19.3324 204.801 18.9308C203.582 18.4614 202.284 18.2311 200.977 18.2526C199.666 18.222 198.362 18.4585 197.146 18.9478C196.129 19.3422 195.247 20.0187 194.602 20.8976C193.996 21.7631 193.681 22.7995 193.704 23.8562C193.678 24.6737 193.883 25.482 194.297 26.1875C194.802 26.9231 195.496 27.5088 196.306 27.883C197.528 28.4596 198.807 28.9085 200.121 29.2224C201.579 29.6124 202.664 29.943 203.385 30.2058C203.923 30.3584 204.412 30.6509 204.801 31.0535C205.034 31.3915 205.15 31.7964 205.131 32.2064C205.146 32.5782 205.065 32.9475 204.898 33.2796C204.73 33.6118 204.481 33.8959 204.173 34.1054C203.385 34.6123 202.456 34.8557 201.52 34.8005C200.418 34.8388 199.331 34.5433 198.4 33.9528C197.608 33.4219 197.052 32.6045 196.849 31.6724L193.144 32.2403C193.272 33.0881 193.571 33.901 194.023 34.6297C194.475 35.3584 195.07 35.9875 195.772 36.479C197.423 37.5418 199.363 38.0661 201.325 37.9795C203.304 38.0923 205.265 37.5403 206.895 36.4112C207.552 35.8993 208.078 35.2373 208.427 34.4807C208.777 33.7242 208.94 32.8949 208.904 32.0623C208.918 31.2057 208.699 30.3614 208.268 29.6208Z" fill="#293253"/>
<path d="M23.1316 23.6839C21.612 26.7435 21.2513 30.2497 22.1162 33.5546C22.981 36.8595 25.0129 39.7397 27.8364 41.6628C28.0162 41.7864 28.1637 41.9514 28.2666 42.1437C28.3695 42.3361 28.4249 42.5504 28.428 42.7685C28.428 43.1366 28.2818 43.4895 28.0215 43.7498C27.7613 44.01 27.4083 44.1562 27.0403 44.1562H1.38767C1.02532 44.1563 0.677291 44.0147 0.417984 43.7615C0.158678 43.5084 0.00866193 43.1639 0 42.8017L0 17.138C-1.45574e-06 16.956 0.0359312 16.7759 0.105736 16.6078C0.175541 16.4398 0.277843 16.2871 0.406774 16.1587C0.535704 16.0303 0.688724 15.9286 0.857052 15.8595C1.02538 15.7904 1.2057 15.7551 1.38767 15.7559H27.0403C27.2223 15.7551 27.4026 15.7904 27.5709 15.8595C27.7392 15.9286 27.8923 16.0303 28.0212 16.1587C28.1501 16.2871 28.2524 16.4398 28.3222 16.6078C28.392 16.7759 28.428 16.956 28.428 17.138C28.4301 17.3598 28.3784 17.5788 28.2773 17.7762C28.1762 17.9736 28.0287 18.1435 27.8475 18.2714C25.836 19.6397 24.2116 21.504 23.1316 23.6839Z" fill="#FEC944"/>
<path d="M28.4279 23.6836V42.044C25.4059 40.2032 23.1838 37.2963 22.2002 33.8972C21.2166 30.4981 21.543 26.8538 23.115 23.6836H28.4279Z" fill="#FF5D79"/>
<path d="M49.9229 30.9592C49.7462 33.3801 48.9509 35.7151 47.613 37.7405C46.2751 39.7659 44.4396 41.4138 42.2822 42.5263C40.1248 43.6389 37.7179 44.1788 35.292 44.0943C32.8661 44.0099 30.5025 43.3039 28.4277 42.044V23.6836H35.7531C35.8695 23.6751 35.9778 23.6209 36.0545 23.5329C36.1311 23.4449 36.1698 23.3301 36.1622 23.2137C36.1556 23.1583 36.1407 23.1042 36.118 23.0533L32.2093 16.2863C34.3832 15.7218 36.6601 15.6817 38.8525 16.1693C41.0449 16.6569 43.0902 17.6583 44.8198 19.0911C46.5495 20.5238 47.9141 22.3469 48.8013 24.4103C49.6885 26.4736 50.0729 28.7182 49.9229 30.9592Z" fill="#49D3FE"/>
<path d="M35.687 23.6834H23.1316C24.3209 21.2927 26.163 19.2877 28.4446 17.9005C29.6183 17.1784 30.8927 16.6343 32.2261 16.2861L36.0961 22.9978C36.1292 23.0459 36.1523 23.1 36.1641 23.1571C36.1758 23.2142 36.1761 23.2731 36.1647 23.3303C36.1534 23.3875 36.1307 23.4419 36.098 23.4902C36.0654 23.5384 36.0234 23.5797 35.9745 23.6115C35.891 23.6705 35.7884 23.6962 35.687 23.6834Z" fill="#335EF2"/>
<path d="M32.2096 16.2862C30.8759 16.6334 29.6014 17.1775 28.4281 17.9005C26.1465 19.2877 24.3044 21.2927 23.1151 23.6834H9.54244C9.41878 23.6837 9.29723 23.6513 9.19009 23.5896C9.08296 23.5278 8.99403 23.4389 8.93231 23.3317C8.8706 23.2245 8.83828 23.103 8.83863 22.9793C8.83897 22.8557 8.87198 22.7343 8.9343 22.6275L12.9204 15.761L21.7938 0.352803C21.8885 0.191015 22.0432 0.0730403 22.2242 0.0244102C22.4053 -0.0242199 22.5982 0.000406565 22.7613 0.0929601C22.8705 0.157942 22.9617 0.249159 23.0267 0.358332L32.2096 16.2862Z" fill="#B577FC"/>
</svg>
