<svg width="48" height="48" viewBox="0 0 48 48" fill="none" xmlns="http://www.w3.org/2000/svg">
<path d="M27.0004 43.875C15.1879 46.2 7.83789 38.775 7.83789 28.3875V28.2375C10.2004 29.7375 15.9754 28.65 14.3254 24.75C12.0379 19.35 11.1004 13.1625 14.8504 8.25C16.3504 12.9375 23.2879 11.7375 23.1379 6.825C23.1004 5.475 22.9879 4.425 22.8004 3.75C22.8004 3.75 28.3879 4.8 28.8379 12.375C29.1379 17.325 34.6879 19.6125 36.6754 14.3625C36.7129 14.2875 36.7129 14.2125 36.7504 14.1375C36.7504 14.1375 38.3629 18.75 35.7379 24.2625C34.4629 27 37.2379 29.85 39.9754 28.575C40.0129 28.5375 40.0504 28.5375 40.0879 28.5C40.1254 28.5 40.2754 41.25 27.0004 43.875Z" fill="#FF6501"/>
<path d="M24.5996 43.9078C20.7746 44.2078 12.8996 43.2328 12.2246 34.3453C12.2246 34.3453 19.6871 32.0953 16.7246 23.1703C16.7246 23.1703 15.2996 19.9453 15.5621 16.3078C15.5621 16.3078 17.4371 19.4953 20.7371 18.9703C23.2496 18.5578 24.5996 16.3828 24.5996 14.3203C24.5996 14.3203 26.9621 23.5453 32.9246 21.5203C32.9246 21.5203 30.0371 28.9078 35.9996 31.7953C35.9996 31.7953 37.0871 42.9328 24.5996 43.9078Z" fill="#FE930E"/>
<path d="M16.8739 38.6303C15.9364 33.2303 20.5114 32.3678 19.1239 27.3803C19.1239 27.3803 22.3864 29.4803 22.7614 32.9678C22.7614 32.9678 26.8864 26.8178 25.6114 21.7178C25.6114 21.7178 31.4239 25.9928 32.2864 32.0303C34.4989 47.5178 18.1114 45.7553 16.8739 38.6303Z" fill="#FFFF01"/>
<path d="M27.0004 43.875C15.1879 46.2 7.83789 38.55 7.83789 28.2375C7.83789 28.2375 9.63789 29.1 11.3629 28.9125C13.0129 28.7625 15.3754 27.225 14.3629 24.75C12.0754 19.35 11.1379 13.1625 14.8879 8.25C16.3879 12.9375 23.3254 11.7375 23.1754 6.825C23.1379 5.475 23.0254 4.425 22.8379 3.75C22.8379 3.75 28.5004 4.575 28.8754 12C29.1754 17.5875 34.7254 19.6125 36.7129 14.3625C36.7504 14.2875 36.7504 14.2125 36.7879 14.1375C36.7879 14.1375 38.4004 18.75 35.7754 24.2625C34.5004 27 37.2754 29.85 40.0129 28.575C40.0504 28.5375 40.0879 28.5375 40.1254 28.5C40.1254 28.5 40.2754 41.25 27.0004 43.875Z" stroke="#31352E" stroke-width="2.25" stroke-miterlimit="10" stroke-linecap="round" stroke-linejoin="round"/>
<path d="M6.22526 15.9375C6.22526 15.9375 4.98776 18.525 6.15026 20.475" stroke="#31352E" stroke-width="2.25" stroke-miterlimit="10" stroke-linecap="round" stroke-linejoin="round"/>
<path d="M42.4871 20.25C42.5246 20.925 42.2996 22.125 41.4746 22.8" stroke="#31352E" stroke-width="2.25" stroke-miterlimit="10" stroke-linecap="round" stroke-linejoin="round"/>
<path d="M34.875 7.875C34.875 7.875 34.875 6.9 34.125 6" stroke="#31352E" stroke-width="2.25" stroke-miterlimit="10" stroke-linecap="round" stroke-linejoin="round"/>
</svg>
