<svg width="144" height="31" viewBox="0 0 144 31" fill="none" xmlns="http://www.w3.org/2000/svg">
<path d="M32.5534 23.2245C32.7978 23.3171 33.0716 23.1942 33.1574 22.9474C34.0113 20.4908 34.2917 17.8691 33.9744 15.2835C33.6378 12.5413 32.639 9.92215 31.0641 7.65195C29.4892 5.38175 27.3854 3.52868 24.9344 2.25261C22.4833 0.976533 19.7585 0.315762 16.9951 0.327297C14.2316 0.338832 11.5124 1.02233 9.07214 2.31882C6.63184 3.61531 4.54367 5.48587 2.98777 7.76914C1.43187 10.0524 0.454968 12.6798 0.141325 15.4247C-0.154401 18.0128 0.147893 20.6321 1.02225 23.0816C1.11008 23.3276 1.38494 23.4482 1.62854 23.3536L7.00961 21.2636C7.25321 21.169 7.37287 20.8951 7.2895 20.6475C6.80726 19.2152 6.64518 17.6925 6.81719 16.1871C7.00712 14.5249 7.59869 12.9339 8.54088 11.5512C9.48307 10.1686 10.7476 9.03583 12.2253 8.25073C13.7031 7.46563 15.3497 7.05173 17.0231 7.04475C18.6966 7.03776 20.3466 7.4379 21.8309 8.21064C23.3151 8.98338 24.589 10.1055 25.5427 11.4803C26.4964 12.855 27.1013 14.4411 27.3051 16.1016C27.4897 17.6055 27.3403 19.1295 26.8701 20.5658C26.7888 20.8141 26.9107 21.0869 27.1551 21.1795L32.5534 23.2245Z" fill="url(#paint0_linear_2849_2674)"/>
<path d="M32.5534 23.2245C32.7978 23.3171 33.0716 23.1942 33.1574 22.9474C34.0113 20.4908 34.2917 17.8691 33.9744 15.2835C33.6378 12.5413 32.639 9.92215 31.0641 7.65195C29.4892 5.38175 27.3854 3.52868 24.9344 2.25261C22.4833 0.976533 19.7585 0.315762 16.9951 0.327297C14.2316 0.338832 11.5124 1.02233 9.07214 2.31882C6.63184 3.61531 4.54367 5.48587 2.98777 7.76914C1.43187 10.0524 0.454968 12.6798 0.141325 15.4247C-0.154401 18.0128 0.147893 20.6321 1.02225 23.0816C1.11008 23.3276 1.38494 23.4482 1.62854 23.3536L7.00961 21.2636C7.25321 21.169 7.37287 20.8951 7.2895 20.6475C6.80726 19.2152 6.64518 17.6925 6.81719 16.1871C7.00712 14.5249 7.59869 12.9339 8.54088 11.5512C9.48307 10.1686 10.7476 9.03583 12.2253 8.25073C13.7031 7.46563 15.3497 7.05173 17.0231 7.04475C18.6966 7.03776 20.3466 7.4379 21.8309 8.21064C23.3151 8.98338 24.589 10.1055 25.5427 11.4803C26.4964 12.855 27.1013 14.4411 27.3051 16.1016C27.4897 17.6055 27.3403 19.1295 26.8701 20.5658C26.7888 20.8141 26.9107 21.0869 27.1551 21.1795L32.5534 23.2245Z" fill="url(#paint1_linear_2849_2674)"/>
<path fill-rule="evenodd" clip-rule="evenodd" d="M2.21236 25.9011C2.07109 25.6582 2.18143 25.3494 2.44126 25.2424L16.821 19.3218C16.9364 19.2743 17.0659 19.2743 17.1812 19.3218L31.4774 25.208C31.7368 25.3148 31.8473 25.6229 31.7068 25.8657C30.7642 27.4954 29.5592 28.9544 28.1496 30.1851C28.0166 30.3012 27.8291 30.3301 27.6659 30.2628L17.1812 25.946C17.0659 25.8985 16.9364 25.8985 16.821 25.946L6.26605 30.2918C6.10319 30.3588 5.91621 30.3303 5.78324 30.2148C4.36915 28.9868 3.15956 27.5296 2.21236 25.9011Z" fill="url(#paint2_linear_2849_2674)"/>
<path d="M45.2206 22.0827C44.4256 22.0827 43.6789 21.9436 42.9805 21.6653C42.2877 21.3814 41.6773 20.9669 41.1492 20.4218C40.6268 19.8766 40.218 19.2094 39.9227 18.4202C39.6274 17.6252 39.4798 16.7167 39.4798 15.6946C39.4798 14.3545 39.7296 13.2103 40.2293 12.262C40.729 11.3081 41.4133 10.5784 42.282 10.073C43.1508 9.56198 44.1303 9.30645 45.2206 9.30645C46.731 9.30645 47.9263 9.65851 48.8064 10.3626C49.6923 11.0611 50.2913 12.0434 50.6036 13.3097L48.5083 13.6419C48.2755 12.915 47.8951 12.3358 47.367 11.9043C46.8389 11.4671 46.166 11.2484 45.3483 11.2484C44.525 11.2371 43.8407 11.4159 43.2956 11.785C42.7505 12.1541 42.3388 12.6737 42.0606 13.3437C41.788 14.0138 41.6518 14.7974 41.6518 15.6946C41.6518 16.5917 41.788 17.3725 42.0606 18.0369C42.3332 18.6956 42.742 19.2094 43.2871 19.5785C43.8379 19.9476 44.525 20.1378 45.3483 20.1492C45.9673 20.1549 46.5096 20.0442 46.9752 19.817C47.4408 19.5842 47.8213 19.235 48.1165 18.7694C48.4118 18.2981 48.6105 17.7104 48.7127 17.0063H46.5493V15.3965H50.8932C50.9046 15.4873 50.9131 15.6207 50.9188 15.7968C50.9245 15.9728 50.9273 16.0778 50.9273 16.1119C50.9273 17.2703 50.6973 18.3009 50.2374 19.2038C49.7831 20.1009 49.1301 20.8051 48.2784 21.3161C47.4266 21.8271 46.4073 22.0827 45.2206 22.0827ZM52.638 21.8271V12.6283H54.4522V14.8684L54.2307 14.5788C54.3443 14.2721 54.4948 13.9939 54.6822 13.7441C54.8752 13.4885 55.1052 13.2784 55.3721 13.1138C55.5992 12.9605 55.8491 12.8412 56.1216 12.756C56.3999 12.6652 56.6838 12.6112 56.9734 12.5942C57.263 12.5715 57.544 12.5828 57.8166 12.6283V14.5447C57.544 14.4652 57.2289 14.4397 56.8712 14.468C56.5191 14.4964 56.2011 14.5958 55.9172 14.7662C55.6333 14.9195 55.4005 15.1154 55.2188 15.3539C55.0427 15.5924 54.9121 15.8649 54.827 16.1715C54.7418 16.4725 54.6992 16.799 54.6992 17.1511V21.8271H52.638ZM63.3385 22.0827C62.4186 22.0827 61.6151 21.8754 60.928 21.4609C60.2409 21.0464 59.7072 20.4757 59.3267 19.7489C58.952 19.0164 58.7646 18.176 58.7646 17.2277C58.7646 16.2624 58.9576 15.4163 59.3438 14.6895C59.7299 13.9627 60.2665 13.3948 60.9536 12.986C61.6406 12.5772 62.4356 12.3727 63.3385 12.3727C64.264 12.3727 65.0703 12.58 65.7574 12.9945C66.4445 13.409 66.9783 13.9825 67.3587 14.7151C67.7392 15.4419 67.9294 16.2794 67.9294 17.2277C67.9294 18.1817 67.7363 19.0249 67.3502 19.7574C66.9697 20.4842 66.436 21.0549 65.7489 21.4694C65.0618 21.8783 64.2583 22.0827 63.3385 22.0827ZM63.3385 20.1577C64.1561 20.1577 64.7637 19.8852 65.1612 19.34C65.5587 18.7949 65.7574 18.0908 65.7574 17.2277C65.7574 16.3362 65.5558 15.6264 65.1527 15.0983C64.7495 14.5646 64.1448 14.2977 63.3385 14.2977C62.7877 14.2977 62.3334 14.4226 61.9757 14.6725C61.6236 14.9166 61.3624 15.2602 61.1921 15.7031C61.0217 16.1403 60.9365 16.6485 60.9365 17.2277C60.9365 18.1192 61.1381 18.8318 61.5413 19.3656C61.9501 19.8937 62.5492 20.1577 63.3385 20.1577ZM71.4323 21.8271L68.6216 12.6112L70.6317 12.6283L72.4289 18.5309L74.2516 12.6283H75.9807L77.7949 18.5309L79.6006 12.6283H81.6107L78.7999 21.8271H77.1987L75.1119 15.4987L73.0336 21.8271H71.4323ZM88.088 22.0827C87.1113 22.0827 86.2511 21.8839 85.5072 21.4864C84.769 21.089 84.1898 20.5297 83.7696 19.8085C83.3551 19.0874 83.1479 18.2413 83.1479 17.2703V9.57901L85.2261 9.56198V17.2192C85.2261 17.6791 85.3028 18.0908 85.4561 18.4542C85.6151 18.8176 85.828 19.1271 86.0949 19.3826C86.3618 19.6325 86.6684 19.8227 87.0148 19.9533C87.3612 20.0839 87.7189 20.1492 88.088 20.1492C88.4684 20.1492 88.829 20.0839 89.1697 19.9533C89.5161 19.817 89.8227 19.624 90.0896 19.3741C90.3565 19.1186 90.5666 18.8091 90.7199 18.4457C90.8732 18.0823 90.9499 17.6735 90.9499 17.2192V9.56198H93.0281V17.2703C93.0281 18.2413 92.818 19.0874 92.3978 19.8085C91.9833 20.5297 91.4041 21.089 90.6603 21.4864C89.9221 21.8839 89.0647 22.0827 88.088 22.0827ZM99.8289 22.0827C98.9318 22.0827 98.1794 21.8697 97.5718 21.4439C96.9642 21.018 96.5071 20.4388 96.2005 19.7063C95.8939 18.9681 95.7405 18.1419 95.7405 17.2277C95.7405 16.3021 95.8939 15.4731 96.2005 14.7406C96.5071 14.0081 96.9557 13.4318 97.5463 13.0116C98.1425 12.5857 98.8778 12.3727 99.7523 12.3727C100.621 12.3727 101.373 12.5857 102.009 13.0116C102.651 13.4318 103.148 14.0081 103.5 14.7406C103.852 15.4674 104.028 16.2965 104.028 17.2277C104.028 18.1476 103.855 18.9738 103.508 19.7063C103.162 20.4388 102.674 21.018 102.043 21.4439C101.413 21.8697 100.675 22.0827 99.8289 22.0827ZM95.3913 25.9155V12.6283H97.2056V19.0845H97.4611V25.9155H95.3913ZM99.5138 20.2429C100.048 20.2429 100.488 20.1095 100.834 19.8426C101.18 19.5757 101.436 19.2151 101.601 18.7609C101.771 18.3009 101.856 17.7899 101.856 17.2277C101.856 16.6712 101.771 16.1659 101.601 15.7116C101.43 15.2517 101.166 14.8882 100.808 14.6214C100.451 14.3488 99.9964 14.2125 99.4457 14.2125C98.9232 14.2125 98.4974 14.3403 98.168 14.5958C97.8387 14.8457 97.5945 15.1977 97.4355 15.652C97.2822 16.1006 97.2056 16.6258 97.2056 17.2277C97.2056 17.8239 97.2822 18.3492 97.4355 18.8034C97.5945 19.2577 97.8415 19.6126 98.1765 19.8681C98.5172 20.118 98.963 20.2429 99.5138 20.2429ZM109.486 21.8271V9.56198H111.539V19.9022H116.956V21.8271H109.486ZM118.399 21.8271V9.56198H120.247L124.489 18.2498L128.731 9.56198H130.579V21.8271H128.662V13.9655L124.898 21.8271H124.08L120.324 13.9655V21.8271H118.399ZM137.512 22.0827C136.614 22.0827 135.805 21.9265 135.084 21.6142C134.369 21.3019 133.778 20.8562 133.312 20.277C132.853 19.6921 132.56 18.9993 132.435 18.1987L134.565 17.875C134.746 18.6019 135.118 19.164 135.68 19.5615C136.248 19.959 136.901 20.1577 137.639 20.1577C138.077 20.1577 138.488 20.0896 138.874 19.9533C139.261 19.817 139.573 19.6183 139.811 19.3571C140.055 19.0959 140.178 18.7751 140.178 18.3946C140.178 18.2243 140.149 18.0681 140.092 17.9261C140.036 17.7785 139.95 17.6479 139.837 17.5343C139.729 17.4208 139.587 17.3186 139.411 17.2277C139.241 17.1312 139.042 17.0488 138.815 16.9807L135.646 16.0438C135.374 15.9643 135.078 15.8592 134.76 15.7286C134.448 15.5924 134.15 15.4078 133.866 15.175C133.588 14.9365 133.358 14.6356 133.176 14.2721C133 13.9031 132.912 13.4488 132.912 12.9093C132.912 12.1201 133.111 11.4585 133.508 10.9248C133.912 10.3853 134.451 9.98217 135.127 9.71529C135.808 9.44841 136.563 9.31781 137.392 9.32349C138.233 9.32917 138.982 9.47396 139.641 9.75788C140.3 10.0361 140.85 10.4421 141.293 10.9759C141.736 11.5096 142.049 12.1541 142.23 12.9093L140.024 13.2926C139.933 12.8611 139.757 12.4948 139.496 12.1939C139.241 11.8872 138.926 11.6544 138.551 11.4954C138.182 11.3365 137.787 11.2513 137.367 11.2399C136.958 11.2342 136.578 11.2967 136.225 11.4273C135.879 11.5522 135.598 11.7339 135.382 11.9724C135.172 12.2109 135.067 12.4892 135.067 12.8071C135.067 13.1081 135.158 13.3551 135.34 13.5482C135.521 13.7355 135.746 13.886 136.013 13.9996C136.285 14.1075 136.56 14.1983 136.839 14.2721L139.036 14.8854C139.337 14.9649 139.675 15.0728 140.05 15.2091C140.425 15.3453 140.785 15.5356 141.132 15.7797C141.478 16.0239 141.762 16.3447 141.983 16.7422C142.21 17.1397 142.324 17.6451 142.324 18.2583C142.324 18.8943 142.191 19.4536 141.924 19.9363C141.662 20.4132 141.308 20.8107 140.859 21.1287C140.41 21.4467 139.896 21.6852 139.317 21.8442C138.744 22.0032 138.142 22.0827 137.512 22.0827Z" fill="#293253"/>
<defs>
<linearGradient id="paint0_linear_2849_2674" x1="34.6335" y1="18.5741" x2="2.56141" y2="14.2754" gradientUnits="userSpaceOnUse">
<stop stop-color="#0A7EFB"/>
<stop offset="0.679244" stop-color="#8A5FEE"/>
<stop offset="1" stop-color="#E05EC8"/>
</linearGradient>
<linearGradient id="paint1_linear_2849_2674" x1="0.563592" y1="24.0481" x2="39.3308" y2="9.60309" gradientUnits="userSpaceOnUse">
<stop stop-color="#0B8BFB"/>
<stop offset="0.56009" stop-color="#FF5496"/>
<stop offset="1" stop-color="#FFBB33"/>
</linearGradient>
<linearGradient id="paint2_linear_2849_2674" x1="4.75474" y1="30.7446" x2="43.08" y2="22.2312" gradientUnits="userSpaceOnUse">
<stop stop-color="#0B8BFB"/>
<stop offset="0.530839" stop-color="#FF5496"/>
<stop offset="1" stop-color="#FFBB33"/>
</linearGradient>
</defs>
</svg>
