<svg width="547" height="440" viewBox="0 0 547 440" fill="none" xmlns="http://www.w3.org/2000/svg">
<path d="M532.691 193.712C529.935 198.383 495.047 222.02 473.884 225.519C469.789 226.196 465.317 226.428 461.76 224.29C459.659 223.027 458.093 221.057 456.605 219.108C453.204 214.651 449.96 210.076 446.88 205.392C445.261 202.931 443.656 200.361 443.106 197.467C441.65 189.803 447.827 182.92 453.933 178.064C467.966 166.902 484.399 158.771 501.785 154.384C504.863 153.607 508.126 152.95 511.175 153.832C516.124 155.263 519.083 160.271 520.972 165.064C522.86 169.857 524.332 175.1 528.107 178.607C528.968 179.407 535.446 189.041 532.691 193.712Z" fill="#FFD076" fill-opacity="0.14"/>
<path fill-rule="evenodd" clip-rule="evenodd" d="M345.24 397.352C311.38 403.143 327.518 378.534 332.187 347.731C339.86 297.118 349.321 220.203 349.321 220.203C349.321 220.203 355.492 337.403 355.492 365.941C355.492 394.478 349.321 396.654 345.24 397.352Z" fill="#FFD076" fill-opacity="0.14"/>
<path d="M309.074 369.467C309.938 377.617 310.849 385.94 314.312 393.368C312.423 376.548 310.533 359.727 308.643 342.907C308.41 340.829 308.479 338.186 310.39 337.338C312.007 356.332 314.417 375.258 317.613 394.05C317.993 396.281 314.642 397.556 312.76 396.299C310.878 395.043 310.275 392.596 309.847 390.374C306.729 374.18 305.014 357.716 304.729 341.228C300.758 342.01 297.974 345.859 297.171 349.825C296.367 353.792 297.142 357.888 297.915 361.86C300.405 374.646 302.895 387.432 305.386 400.218C306.55 406.198 307.715 412.378 306.43 418.333C301.488 395.77 297.514 372.994 294.525 350.089C256.604 373.278 207.743 377.59 166.347 361.401C157.306 357.865 148.327 353.18 142.356 345.526C137.652 339.497 135.142 332.011 133.827 324.478C129.156 297.723 138.727 270.432 151.717 246.581C156.646 237.531 162.259 228.105 161.861 217.807C161.725 214.262 160.96 210.336 163.03 207.455C163.324 207.988 149.477 108.941 155.032 87.0324C168.404 34.2884 211.844 27.1453 239.658 27.7959C258.319 28.2324 376.61 51.7407 393.701 83.7093C416.163 125.725 411.394 161.05 407.405 184.342C406.217 191.278 349.35 219.692 349.334 219.835C346.083 250.059 324.266 315.914 305.968 340.188C307.003 349.948 308.038 359.708 309.074 369.467Z" fill="#FFD076" fill-opacity="0.14"/>
<path fill-rule="evenodd" clip-rule="evenodd" d="M36.0081 246.491C25.3434 242.233 12.6343 243.496 3.01937 249.768C2.08853 250.375 0.750247 249.698 0.289443 248.688C-0.171361 247.678 0.000999712 246.503 0.236709 245.418C3.30751 231.286 15.5407 220.473 29.1451 215.504C42.7495 210.535 57.6304 210.521 72.0921 211.371C73.527 211.455 75.0268 211.567 76.2508 212.319C77.4748 213.072 78.2984 214.68 77.6883 215.979C71.9995 228.093 67.7141 240.863 64.9449 253.953C64.4959 256.076 62.2964 257.484 60.1303 257.661C57.9641 257.838 55.8417 257.039 53.8758 256.114C47.7494 253.23 42.2972 249.001 36.0081 246.491Z" fill="#FFD076" fill-opacity="0.14"/>
<path fill-rule="evenodd" clip-rule="evenodd" d="M363.839 33.1581C364.369 25.0515 363.758 16.8713 362.029 8.93338L361.992 8.76423C361.699 7.42202 361.398 6.04143 361.668 4.69815C362.266 1.72737 365.565 -0.0607876 368.595 0.00157966C371.624 0.0639469 374.431 1.51019 377.112 2.92256C389.969 9.69581 403.059 16.64 413.182 27.0665C413.5 35.5074 411.51 43.8372 409.547 52.0602L409.547 52.0606L409.362 52.8335C401.164 87.2032 394.45 121.927 389.247 156.876C388.748 160.225 387.803 164.177 384.626 165.35C382.346 166.192 379.696 165.116 378.077 163.305C376.458 161.494 375.684 159.089 375.144 156.72C373.812 150.876 373.652 144.767 374.676 138.861C375.302 135.249 376.36 131.736 377.418 128.222C378.369 125.067 379.319 121.911 379.957 118.683C380.595 115.455 380.917 112.173 381.229 108.897C382.888 91.4777 384.296 74.0339 385.451 56.5734C385.614 54.106 385.763 51.5611 384.955 49.2242C383.517 45.0677 379.33 42.4406 375.1 41.236C374.371 41.0284 373.63 40.8519 372.89 40.6753C371.166 40.2644 369.444 39.8538 367.872 39.0528C365.624 37.9077 363.675 35.6752 363.839 33.1581ZM371.688 32.4917C377.667 33.7534 383.51 35.6586 389.084 38.1638C390.206 38.6682 391.386 39.2587 391.992 40.3293C392.488 41.2037 392.516 42.2568 392.531 43.2616C392.706 55.0628 392.743 66.8953 391.493 78.6315C390.745 85.6584 389.538 92.6239 388.331 99.5889L388.331 99.5909L388.33 99.5956L388.329 99.6003L388.329 99.605L388.328 99.6097L388.327 99.6144L388.326 99.619L388.325 99.6237C387.945 101.818 387.565 104.012 387.199 106.207C385.381 117.127 383.917 128.105 382.812 139.119C382.009 147.111 381.422 155.371 383.908 163.009C385.183 162.776 385.674 161.24 385.916 159.966L408.889 38.8766C409.446 35.9427 410.002 32.9094 409.346 29.9961C408.198 24.8957 403.671 21.3493 399.306 18.4717C390.903 12.932 381.959 8.21404 372.643 4.40674C371.868 13.7454 371.549 23.122 371.688 32.4917ZM383.496 112.017C387.703 90.4228 389.603 68.3798 389.155 46.3838C389.121 44.7225 389.031 42.9373 388.015 41.6225C387.271 40.6591 386.133 40.0948 385.022 39.597C380.849 37.7278 376.461 36.3368 371.974 35.4602C370.674 35.2064 368.765 35.4814 368.822 36.8037L384.953 43.4694C385.899 43.8604 386.907 44.3026 387.442 45.1757C387.966 46.032 387.915 47.1076 387.847 48.1094L383.496 112.017ZM368.506 2.27074C367.176 1.38915 365.254 2.29792 364.514 3.71103C363.773 5.12415 363.886 6.81584 364.054 8.40248C364.299 10.727 364.623 13.0527 364.947 15.3787L364.947 15.3802L364.948 15.3817L364.948 15.3832L364.948 15.3846L364.948 15.3861L364.948 15.3876L364.949 15.3891C365.848 21.8519 366.749 28.3174 365.984 34.7667C367.204 35.1854 368.566 34.3256 369.157 33.1796C369.749 32.0336 369.764 30.6874 369.767 29.3976L369.807 6.14013C369.81 4.7187 369.691 3.05616 368.506 2.27074ZM380.438 162.484C379.706 156.737 379.514 150.92 379.866 145.137C380.054 142.044 380.397 138.963 380.74 135.882C381.194 131.807 381.647 127.734 381.742 123.638C378.392 133.609 377.127 144.277 378.052 154.755C378.292 157.481 378.739 160.339 380.438 162.484ZM382.288 117.747C382.827 117.505 383.054 116.748 382.736 116.25C382.188 116.52 381.956 117.284 382.26 117.813L382.288 117.747ZM377.321 67.806C350.659 51.363 320.511 41.5113 290.361 33.0104C280.724 30.2929 271.005 27.6889 261.054 26.574C231.568 23.2707 201.675 33.4443 177.158 50.1545C167.325 56.8562 157.838 65.0997 153.589 76.2151C150.437 84.4622 150.459 93.5416 150.763 102.365C151.811 132.798 155.716 163.051 159.617 193.25C162.666 192.7 162.967 188.483 162.526 185.416C158.47 157.253 156.196 128.833 155.722 100.383C155.589 92.4055 155.631 84.2267 158.391 76.7408C163.389 63.1897 176.279 54.3273 188.927 47.3528C204.857 38.5682 222.174 31.1837 240.361 30.7917C262.392 30.3169 283.274 40.0894 302.52 50.8222C313.249 56.8057 324.128 63.4876 330.954 73.7019C337.152 82.9768 339.404 94.2802 341.03 105.316C346.191 140.342 346.38 175.887 346.559 211.291C346.567 212.723 346.479 214.364 345.357 215.255C344.59 215.863 343.542 215.94 342.565 215.99L306.622 217.861C323.371 222.677 341.95 220.778 357.378 212.673L397.314 191.693C401.042 189.734 404.889 187.678 407.458 184.342C410.994 179.751 411.5 173.575 411.667 167.783C412.283 146.391 410.144 124.921 405.319 104.072C406.992 126.626 407.224 149.288 406.013 171.872C405.807 175.728 405.498 179.775 403.4 183.018C401.16 186.482 397.266 188.444 393.555 190.247L350.456 211.195C352.239 177.708 350.856 144.052 346.329 110.823C344.807 99.6472 342.865 88.3148 337.75 78.2617C325.664 54.5041 298.911 42.7519 274.185 32.7937C311.151 43.6086 348.54 54.6023 381.796 74.0307C382.228 71.3466 379.635 69.2331 377.321 67.806ZM515.037 170.028C516.953 174.967 519.647 180.232 524.599 182.114C525.772 182.205 526.473 180.649 526.088 179.538C525.766 178.609 525.01 177.933 524.268 177.268C524.121 177.137 523.975 177.007 523.833 176.875C520.682 173.947 519.135 169.81 517.612 165.734C517.31 164.928 517.01 164.124 516.698 163.332C514.81 158.539 511.851 153.532 506.902 152.1C503.853 151.218 500.59 151.876 497.512 152.652C480.125 157.039 463.693 165.17 449.659 176.333C443.554 181.188 437.377 188.072 438.833 195.735C439.383 198.629 440.988 201.199 442.606 203.66C445.686 208.344 448.931 212.92 452.332 217.376C453.819 219.325 455.385 221.295 457.487 222.558C461.044 224.696 465.516 224.464 469.611 223.787C490.774 220.289 508.887 207.137 526.122 194.368C527.019 193.703 527.953 192.995 528.417 191.98C528.882 190.965 528.684 189.553 527.698 189.029C526.568 188.429 525.235 189.258 524.227 190.047C508.188 202.604 491.055 214.875 471.169 219.286C467.399 220.122 463.244 220.615 459.852 218.769C457.314 217.388 455.6 214.905 453.982 212.511L443.95 197.667C443.105 196.417 442.229 195.073 442.198 193.565C442.166 192.056 443.386 190.424 444.882 190.619C458.945 192.448 473.074 193.762 487.232 194.559C488.359 194.622 489.538 194.673 490.565 194.204C491.888 193.6 492.694 192.262 493.4 190.991C499.394 180.185 503.973 168.595 506.982 156.611C510.983 159.48 512.85 164.339 514.631 168.975C514.767 169.328 514.902 169.679 515.037 170.028ZM502.689 155.663C500.01 165.685 496.047 175.364 490.927 184.388C490.068 185.9 489.115 187.458 487.615 188.337C485.705 189.455 483.329 189.244 481.13 188.999L446.102 185.09C451.913 177.41 460.547 172.426 469.173 168.144C477.338 164.09 485.721 160.474 494.273 157.316C496.98 156.316 499.82 155.348 502.689 155.663ZM309.113 369.467C309.977 377.617 310.888 385.94 314.351 393.368L308.682 342.906C308.449 340.829 308.518 338.185 310.429 337.338C312.046 356.332 314.456 375.258 317.652 394.05C318.032 396.281 314.681 397.556 312.799 396.299C310.917 395.043 310.315 392.596 309.887 390.374C306.768 374.18 305.053 357.716 304.768 341.228C300.797 342.01 298.013 345.859 297.21 349.825C296.406 353.792 297.181 357.888 297.954 361.86L305.425 400.218C306.589 406.198 307.754 412.378 306.469 418.333C301.527 395.77 297.553 372.994 294.564 350.089C256.643 373.278 207.782 377.59 166.386 361.401C157.345 357.865 148.366 353.18 142.395 345.526C137.691 339.497 135.181 332.011 133.866 324.478C129.195 297.723 138.766 270.432 151.756 246.581C152.094 245.959 152.436 245.336 152.779 244.711C157.427 236.232 162.271 227.398 161.901 217.807C161.876 217.173 161.832 216.528 161.787 215.878L161.787 215.878C161.581 212.892 161.369 209.821 163.069 207.455C165.35 211.604 166.219 216.513 165.5 221.192C204.758 219.502 244.074 219.162 283.355 220.172C283.813 221.978 281.197 222.817 279.334 222.789C242.676 222.242 206 222.867 169.382 224.661C168.222 224.718 167.005 224.794 166.022 225.411C164.988 226.061 164.385 227.2 163.83 228.288C153.437 248.622 143.01 269.253 137.987 291.531C135.403 302.987 134.414 315.525 139.709 326.007C141.717 329.984 144.558 333.496 147.73 336.625C164.758 353.42 190.256 358.569 214.17 358.168C229.433 357.911 244.662 355.717 259.376 351.655C274.976 347.348 290.534 340.56 301.181 328.373C307.434 321.217 311.684 312.55 315.406 303.805C322.512 287.109 327.963 269.708 331.652 251.941C333.963 252.427 333.995 255.694 333.462 257.994C326.866 286.448 319.2 316.777 297.476 336.301C277.856 353.935 250.208 359.403 223.869 360.878C208.654 361.731 193.2 361.464 178.464 357.586C163.727 353.707 149.657 345.948 140.301 333.92C143.03 344.324 152.272 351.749 161.895 356.554C187.16 369.17 216.995 368.503 244.893 364.118C263.476 361.197 282.551 356.402 297.013 344.372C309.375 334.089 317.254 319.403 323.184 304.456C329.748 287.912 334.301 270.571 336.712 252.936C338.213 251.987 339.325 254.64 339.135 256.406C335.884 286.629 324.305 315.914 306.007 340.188L309.113 369.467ZM291.56 421.15C289.949 418.428 288.911 415.368 288.534 412.226L286.218 420.075L280.373 397.783C279.919 396.053 278.816 393.889 277.067 394.261C275.367 394.622 275.176 396.955 275.43 398.675C276.703 407.323 279.132 415.8 282.631 423.81L276.415 418.356C276.112 420.953 276.796 423.652 278.297 425.792C275.06 423.407 270.717 422.595 266.836 423.647C269.609 427.5 273.374 430.633 277.668 432.66L272.415 425.328C276.661 427.779 281.109 429.879 285.699 431.6L281.249 426.02L286.748 427.544C282.54 417.972 278.253 408.034 278.355 397.578C279.948 406.084 282.279 414.451 285.315 422.555C285.829 423.928 286.4 425.348 287.496 426.323C288.592 427.297 290.373 427.664 291.521 426.752C292.413 426.042 292.674 424.819 292.876 423.697L295.353 409.962L298.073 426.996C300.136 421.786 306.844 420.48 312.447 420.445C319.846 420.399 327.301 421.214 334.736 422.027C348.138 423.493 361.479 424.952 374.32 421.347C373.943 423.332 373.283 425.264 372.367 427.065C382.729 425.557 393.214 424.895 403.684 425.088C408.105 425.169 412.54 425.402 416.975 425.635H416.975H416.976H416.976H416.977H416.977H416.977H416.978H416.978H416.979C428.703 426.25 440.428 426.865 451.915 424.689L375.674 424.019C377.106 423.935 378.203 422.27 377.715 420.922C377.227 419.573 375.318 418.996 374.165 419.848C373.415 417.464 370.044 416.404 368.065 417.93C369.212 414.392 371.482 411.227 374.464 409.005C371.098 408.824 367.679 409.855 364.973 411.866L373.174 373.912C372.48 373.316 371.324 373.717 370.812 374.475C370.305 375.225 370.248 376.179 370.195 377.083L370.193 377.112C369.425 390.072 364.855 402.783 357.196 413.265L354.188 404.563L349.877 414.958C347.923 413.444 345.152 413.063 342.861 413.991C343.446 416.214 345.224 418.084 347.415 418.78L348.435 416.046L355.17 420.557C352.595 417.86 352.038 413.447 353.86 410.194L357.935 417.03L365.834 401.407C365.879 407.68 363.19 413.609 360.555 419.302C363.419 417.058 365.882 414.303 367.79 411.206C369.632 414.467 367.62 418.841 364.416 420.783C361.213 422.724 357.251 422.83 353.508 422.672C347.798 422.43 342.044 421.713 336.296 420.997C323.39 419.388 310.52 417.784 298.26 421.583L296.493 405.283C293.792 410.163 292.102 415.599 291.56 421.15ZM368.472 421.585C368.195 421.254 368.197 420.723 368.476 420.393L368.699 420.478C369.073 419.582 370.648 419.655 370.937 420.582C370.21 421.106 369.358 421.453 368.472 421.585ZM410.154 248.399C401.275 243.911 390.708 245.122 380.851 246.473C378.066 246.855 375.226 247.256 372.704 248.496C370.181 249.736 367.984 251.982 367.549 254.759C343.476 251.753 320.408 241.158 302.444 224.855C298.545 221.316 294.566 216.278 296.32 211.313C296.871 209.753 297.943 208.436 299.059 207.213C307.434 198.03 318.982 192.508 330.223 187.207C317.482 188.324 305.258 194.521 296.825 204.137C294.892 206.341 293.111 208.803 292.445 211.658C290.802 218.706 296.276 225.318 301.755 230.047C319.238 245.136 341.227 254.934 364.137 257.844C365.511 258.019 365.582 259.95 365.456 261.329C364.898 267.464 368.242 273.451 372.876 277.508C377.511 281.566 383.317 284.002 389.077 286.184C406.917 292.942 425.43 297.918 444.254 301.016C445.497 301.221 447.205 301.124 447.467 299.892C443.123 297.018 437.895 295.923 432.783 294.853L432.345 294.761L431.956 294.679C418.995 291.951 406.208 288.397 393.697 284.046C388.565 282.262 383.42 280.313 378.945 277.23C374.47 274.148 370.67 269.794 369.239 264.552C368.532 261.963 369.491 258.099 372.154 258.425C382.999 259.751 394.142 261.061 404.731 258.371C407.128 257.762 409.626 256.844 411.087 254.849C412.547 252.854 412.36 249.514 410.154 248.399ZM382.783 255.566C379.061 254.925 375.257 254.753 371.492 255.056C373.322 251.581 377.791 250.666 381.682 250.136C390.14 248.985 398.948 247.861 407.052 250.543C407.588 250.72 408.159 250.946 408.449 251.43C408.83 252.067 408.551 252.934 408.01 253.442C407.468 253.949 406.73 254.179 406.015 254.379C398.486 256.484 390.488 256.892 382.783 255.566ZM259.574 430.893C265.804 430.719 272.072 432.096 277.655 434.866C276.163 437.011 273.163 437.311 270.552 437.41L202.308 440C201.683 439.923 201.565 438.957 202.008 438.509C202.451 438.06 203.144 438.003 203.773 437.972L270.392 434.723C266.544 434.37 262.788 433.04 259.574 430.893ZM128.236 205.195C127.264 209.846 131.198 214.808 135.937 215.16C128.188 226.837 114.23 232.6 100.819 236.669C92.449 239.208 83.1642 241.293 75.1848 237.71C74.1945 238.315 75.2505 239.805 76.296 240.309C84.0612 244.051 93.2676 241.966 101.527 239.501C113.64 235.886 126.126 231.214 134.369 221.629C134.705 221.238 135.04 220.836 135.377 220.43L135.381 220.426L135.381 220.426C137.502 217.876 139.715 215.217 142.904 214.627C153.173 212.728 161.726 206.296 170.177 199.941L170.177 199.941L170.177 199.941L170.177 199.941L170.178 199.94C172.094 198.499 174.006 197.062 175.93 195.682C187.632 187.296 200.609 180.694 214.278 176.175C215.485 175.776 216.953 175.036 216.846 173.769C199.899 175.324 185.087 185.43 171.428 195.581L170.973 195.92C161.69 202.821 151.99 210.032 140.568 211.742C144.299 208.8 143.511 202 139.302 199.796C135.093 197.592 129.209 200.544 128.236 205.195ZM131.413 208.037C130.651 205.781 131.827 203.097 133.916 201.954C134.509 201.63 135.173 201.413 135.849 201.413C138.08 201.411 139.709 203.797 139.724 206.028C139.738 208.259 138.607 210.317 137.508 212.258C134.937 211.865 132.245 210.501 131.413 208.037ZM385 158.32C384.368 157.617 384.563 156.669 384.764 155.688C384.906 154.995 385.052 154.284 384.912 153.631C384.79 153.065 384.46 152.582 384.129 152.099C383.835 151.67 383.541 151.241 383.391 150.751C383.425 150.104 384.291 149.772 384.881 150.04C385.471 150.309 385.801 150.942 386.007 151.557C386.758 153.8 386.372 156.393 385 158.32ZM327.856 109.098C329.435 105.355 332.565 102.035 336.557 101.275C337.848 101.029 337.808 98.8996 336.677 98.2301C335.545 97.5607 334.091 97.9564 332.904 98.5215C327.374 101.154 323.883 106.948 322.515 112.917C321.147 118.887 321.599 125.104 322.059 131.211L324.504 163.673C324.587 164.776 324.689 165.935 325.303 166.856C326.555 168.731 329.24 168.79 331.489 168.647L342.877 167.923C340.346 165.94 336.95 165.105 333.788 165.689C331.941 166.03 330.086 164.812 329.107 163.209C328.129 161.607 327.842 159.688 327.6 157.826C326.013 145.644 325.43 133.33 325.861 121.052C326.003 116.991 326.277 112.842 327.856 109.098ZM356.927 397.237C356.28 397.706 355.632 396.637 355.537 395.844C351.137 358.85 350.473 321.526 349.814 284.278L349.37 259.167C349.357 258.452 349.368 257.668 349.827 257.12C350.619 256.177 352.283 256.609 352.974 257.628C353.666 258.647 353.667 259.967 353.644 261.199C352.966 297.853 353.411 334.579 356.921 371.071C356.963 371.515 357.006 371.959 357.05 372.404C357.854 380.694 358.671 389.108 356.927 397.237ZM320.346 164.052C319.383 163.523 318.193 163.822 317.139 164.134C268.349 178.565 219.671 193.444 171.71 210.426C170.812 210.744 169.785 211.202 169.579 212.132C169.361 213.117 170.288 214.057 171.28 214.24C172.272 214.423 173.275 214.068 174.222 213.72C222.287 196.038 271.075 180.323 320.424 166.628C321.484 166.334 321.31 164.581 320.346 164.052Z" fill="#0C131A"/>
<path fill-rule="evenodd" clip-rule="evenodd" d="M494.226 384.786C493.09 385.285 491.86 385.749 490.637 385.539C489.415 385.329 488.271 384.181 488.516 382.965C490.762 371.845 487.942 359.805 480.994 350.839C478.559 347.696 475.66 344.931 473.287 341.741C471.791 339.731 470.461 337.204 471.22 334.816C472.299 331.419 476.644 330.593 480.201 330.35C488.468 329.787 496.736 329.223 505.003 328.66C508.812 328.4 513.2 328.362 515.743 331.21C522.822 339.139 536.619 339.671 544.287 332.311C545.474 331.173 546.969 333.44 546.921 335.084C546.773 340.253 544.643 345.342 541.063 349.074C540.219 349.955 539.139 350.818 537.925 350.691C536.711 350.565 535.816 348.822 536.784 348.079C538.86 346.485 540.974 344.85 542.43 342.674C543.885 340.498 544.591 337.646 543.598 335.224C538.258 341.98 532.866 348.696 527.424 355.371C517.989 366.943 507.897 378.781 494.226 384.786ZM509.142 350.732C507.784 351.108 506.336 350.819 504.979 350.436C495.221 347.679 486.232 340.054 476.25 341.839C487.889 351.212 494.068 366.929 491.93 381.719C499.599 380.077 505.655 374.352 511.086 368.695C519.125 360.322 526.759 351.559 533.95 342.447C528.781 342.405 523.631 340.914 519.239 338.188C513.813 339.53 514.53 349.242 509.142 350.732ZM516.216 335.336C512.983 331.525 507.174 331.643 502.196 332.08C495.704 332.651 489.211 333.221 482.718 333.791C480.082 334.023 477.054 334.486 475.68 336.747C486.918 339.099 497.874 342.795 508.241 347.729C509.574 343.541 512.247 339.79 515.77 337.162C516.166 336.867 516.62 336.487 516.567 335.996C516.54 335.744 516.38 335.529 516.216 335.336V335.336Z" fill="#0A7EFB"/>
<path fill-rule="evenodd" clip-rule="evenodd" d="M34.8394 244.464C25.0599 240.553 13.4058 241.713 4.58904 247.475C3.73547 248.033 2.50828 247.411 2.08573 246.483C1.66318 245.555 1.82123 244.475 2.03737 243.479C4.85327 230.497 16.071 220.563 28.5461 215.998C41.0212 211.433 54.6668 211.42 67.9279 212.201C69.2437 212.278 70.6191 212.381 71.7415 213.072C72.8639 213.763 73.6191 215.241 73.0596 216.435C67.843 227.563 63.9134 239.294 61.3741 251.32C60.9623 253.27 58.9454 254.564 56.9591 254.726C54.9728 254.889 53.0265 254.154 51.2239 253.304C45.606 250.655 40.6064 246.771 34.8394 244.464ZM35.9465 231.327C35.0749 232.036 33.7127 231.662 32.8926 230.894C32.0725 230.127 31.6051 229.066 30.9605 228.146C27.5027 223.214 19.5679 223.623 14.8644 227.386C10.161 231.15 7.88506 237.096 5.8125 242.752C19.6112 236.759 36.6066 238.909 48.4771 248.152C50.0978 249.413 51.706 250.835 53.7017 251.321C55.6975 251.807 58.2117 250.934 58.7172 248.943C61.4178 238.307 64.7456 227.831 68.6778 217.587C61.133 226.965 45.2882 223.738 35.9465 231.327ZM32.9396 225.66C33.7145 226.634 35.1214 226.892 36.3461 226.672C37.5708 226.452 38.6835 225.842 39.8246 225.346C43.7534 223.639 48.1049 223.258 52.317 222.477C56.5291 221.696 60.8736 220.374 63.8388 217.282C57.1486 217.262 50.4584 217.242 43.7682 217.222C37.0449 217.202 29.7997 217.344 24.3984 221.348C27.6865 221.468 30.8906 223.086 32.9396 225.66Z" fill="#0A7EFB"/>
<path fill-rule="evenodd" clip-rule="evenodd" d="M349.03 243.568C349.014 237.683 348.998 231.799 348.982 225.914C348.978 224.224 348.973 222.534 348.969 220.844C348.966 219.679 349.161 218.221 350.269 217.858C351.106 217.584 352.028 218.186 352.42 218.976C352.812 219.765 352.807 220.685 352.794 221.567C352.672 229.779 352.55 237.991 352.427 246.203C352.41 247.384 352.212 248.837 351.106 249.252C349.262 248.207 349.035 245.688 349.03 243.568H349.03Z" fill="#0C131A"/>
<path fill-rule="evenodd" clip-rule="evenodd" d="M337.292 238.122C336.44 238.496 336.001 237.092 336.132 236.172C336.603 232.876 337.076 229.574 337.877 226.343C338.377 224.332 339.095 222.215 340.757 220.977C342.418 219.738 345.271 219.955 346.084 221.861C346.477 222.784 346.313 223.839 346.133 224.827C345.014 230.94 343.508 236.982 341.626 242.905C341.546 243.157 341.458 243.419 341.268 243.601C340.805 244.045 339.969 243.747 339.648 243.191C339.327 242.635 339.369 241.95 339.42 241.311C340.185 241.255 340.542 240.355 340.725 239.61C341.476 236.569 342.226 233.528 342.976 230.487C343.56 228.12 344.092 225.426 342.734 223.402C341.338 224.261 340.814 225.999 340.399 227.585C339.563 230.774 338.728 233.963 337.892 237.153C337.792 237.534 337.653 237.964 337.292 238.122L337.292 238.122Z" fill="#0C131A"/>
</svg>
