<svg xmlns="http://www.w3.org/2000/svg" viewBox="0 0 90 79.61"><defs><style>.cls-1{fill:#fec944;}.cls-2{fill:#ff5d79;}.cls-3{fill:#49d3fe;}.cls-4{fill:#335ef2;}.cls-5{fill:#b577fc;}</style></defs><g id="Layer_2" data-name="Layer 2"><g id="Layer_1-2" data-name="Layer 1"><g id="Layer_2-2" data-name="Layer 2"><g id="Layer_1-2-2" data-name="Layer 1-2"><path class="cls-1" d="M41.68,42.68a25.48,25.48,0,0,0,8.48,32.39,2.47,2.47,0,0,1,1.06,2h0a2.5,2.5,0,0,1-2.5,2.5H2.5A2.5,2.5,0,0,1,0,77.12V30.89A2.49,2.49,0,0,1,2.5,28.4H48.72a2.49,2.49,0,0,1,2.5,2.49h0a2.5,2.5,0,0,1-1,2A25.46,25.46,0,0,0,41.68,42.68Z"/><path class="cls-2" d="M51.22,42.68V75.75a25.46,25.46,0,0,1-9.57-33.07Z"/><path class="cls-3" d="M89.94,55.74a25.52,25.52,0,0,1-38.72,20V42.68H64.41a.81.81,0,0,0,.74-.86.68.68,0,0,0-.07-.28L58,29.35A25.52,25.52,0,0,1,89.17,47.61,25,25,0,0,1,89.94,55.74Z"/><path class="cls-4" d="M64.3,42.68H41.68a25.47,25.47,0,0,1,9.57-10.43,25,25,0,0,1,6.81-2.9l7,12.09a.81.81,0,0,1-.22,1.11A.87.87,0,0,1,64.3,42.68Z"/><path class="cls-5" d="M58,29.35a24.84,24.84,0,0,0-6.81,2.9,25.47,25.47,0,0,0-9.57,10.43H17.19a1.27,1.27,0,0,1-1.09-1.91L23.28,28.4,39.27.64A1.28,1.28,0,0,1,41,.17a1.3,1.3,0,0,1,.48.48Z"/></g></g></g></g></svg>