<svg xmlns="http://www.w3.org/2000/svg" xmlns:xlink="http://www.w3.org/1999/xlink" viewBox="0 0 540.56 127.93"><defs><style>.cls-1{fill:#fff;}.cls-2{fill:#68bc8c;}.cls-3{fill:#e09c8d;}.cls-4{fill:#9fb9de;}.cls-5{fill:url(#linear-gradient);}.cls-6{fill:url(#linear-gradient-2);}.cls-7{stroke-miterlimit:10;fill:url(#linear-gradient-3);stroke:url(#linear-gradient-4);}</style><linearGradient id="linear-gradient" y1="64.15" x2="28.38" y2="64.15" gradientUnits="userSpaceOnUse"><stop offset="0" stop-color="#18aa4e"/><stop offset="1" stop-color="#10aa97"/></linearGradient><linearGradient id="linear-gradient-2" x1="28.38" y1="96.04" x2="113.51" y2="96.04" gradientUnits="userSpaceOnUse"><stop offset="0" stop-color="#c03836"/><stop offset="1" stop-color="#d94c79"/></linearGradient><linearGradient id="linear-gradient-3" x1="28.86" y1="32.13" x2="113.3" y2="32.13" gradientUnits="userSpaceOnUse"><stop offset="0" stop-color="#745da8"/><stop offset="1" stop-color="#4c59a2"/></linearGradient><linearGradient id="linear-gradient-4" x1="27.86" y1="32.31" x2="113.8" y2="32.31" xlink:href="#linear-gradient-3"/></defs><g id="Layer_2" data-name="Layer 2"><g id="Layer_1-2" data-name="Layer 1"><path class="cls-1" d="M167.28,84.67a18.9,18.9,0,0,1-10.09-2.57,17,17,0,0,1-6.45-7.19,24.09,24.09,0,0,1-2.25-10.69,24.14,24.14,0,0,1,2.25-10.7,17,17,0,0,1,6.45-7.19,18.9,18.9,0,0,1,10.09-2.57,18.36,18.36,0,0,1,11.32,3.39A17.92,17.92,0,0,1,185,56.3l-6.63,1.83a11.62,11.62,0,0,0-3.9-6A11.2,11.2,0,0,0,167.28,50a11.56,11.56,0,0,0-6.59,1.77,10.77,10.77,0,0,0-3.95,5,20,20,0,0,0-1.35,7.52,19.64,19.64,0,0,0,1.32,7.51,10.74,10.74,0,0,0,4,5,11.6,11.6,0,0,0,6.6,1.77,11.2,11.2,0,0,0,7.15-2.18,11.67,11.67,0,0,0,3.9-6L185,72.13a17.92,17.92,0,0,1-6.36,9.15A18.36,18.36,0,0,1,167.28,84.67Z"/><path class="cls-1" d="M192.21,83.86V44.57h16.23c.39,0,.88,0,1.48,0a13.39,13.39,0,0,1,1.66.18,11.88,11.88,0,0,1,5.64,2.27,10.53,10.53,0,0,1,3.3,4.4,15.78,15.78,0,0,1,1.07,5.91,14,14,0,0,1-2.42,8.25,10.77,10.77,0,0,1-7.45,4.27l-2.81.24H198.79V83.86ZM198.79,64h9.38c.37,0,.77,0,1.23-.06a5.92,5.92,0,0,0,1.25-.22,4.94,4.94,0,0,0,2.58-1.44,6,6,0,0,0,1.34-2.35,9,9,0,0,0,.39-2.56,9.08,9.08,0,0,0-.39-2.58,6,6,0,0,0-1.34-2.36A5,5,0,0,0,210.65,51a6.67,6.67,0,0,0-1.25-.2c-.46,0-.86,0-1.23,0h-9.38Zm16,19.86-7.74-16,6.68-1.47,8.51,17.46Z"/><path class="cls-1" d="M229.48,83.86V44.57h25.37v6.17h-18.8v9.68h15.52v6.17H236.05v11.1h18.8v6.17Z"/><path class="cls-1" d="M259.92,83.86,272.3,44.57h9.63l12.39,39.29h-6.77L276.31,48.61h1.48l-11.1,35.25Zm6.9-8.52V69.21h20.62v6.13Z"/><path class="cls-1" d="M306.65,83.86V50.74H293.94V44.57h32v6.17H313.22V83.86Z"/><path class="cls-1" d="M332.1,83.86V44.57h6.57V83.86Z"/><path class="cls-1" d="M357,83.86,344.57,44.57h6.76l10.37,32.9,10.5-32.9H379L366.58,83.86Z"/><path class="cls-1" d="M384.31,83.86V44.57h25.37v6.17H390.89v9.68h15.52v6.17H390.89v11.1h18.79v6.17Z"/><path class="cls-1" d="M418,83.86V44.57h6.57V83.86Z"/><path class="cls-1" d="M443.48,83.86V50.74H430.77V44.57h32v6.17H450.05V83.86Z"/><path class="cls-1" d="M468.38,83.86V44.57h25.37v6.17H475v9.68h15.52v6.17H475v11.1h18.79v6.17Z"/><path class="cls-1" d="M501.56,83.86V44.57h5.92L521.06,72.4l13.59-27.83h5.91V83.86h-6.13V58.68L522.37,83.86h-2.62l-12-25.18V83.86Z"/><g id="LWPOLYLINE"><polygon class="cls-2" points="56.76 96.92 28.38 80.53 28.38 113.3 56.76 96.92"/></g><g id="LWPOLYLINE-2" data-name="LWPOLYLINE"><polygon class="cls-3" points="113.51 64.15 85.13 47.77 85.13 80.53 113.51 64.15"/></g><g id="LWPOLYLINE-3" data-name="LWPOLYLINE"><polygon class="cls-4" points="56.76 31.38 28.38 15 28.38 47.77 56.76 31.38"/></g><g id="LWPOLYLINE-4" data-name="LWPOLYLINE"><path class="cls-5" d="M28.38,15,5.68,28.11A11.32,11.32,0,0,0,0,37.94V90.36a11.35,11.35,0,0,0,5.68,9.84l22.7,13.1Z"/></g><g id="LWPOLYLINE-5" data-name="LWPOLYLINE"><path class="cls-6" d="M113.51,90.36V64.15L28.38,113.3l22.7,13.11a11.34,11.34,0,0,0,11.35,0l45.41-26.21A11.36,11.36,0,0,0,113.51,90.36Z"/></g><g id="LWPOLYLINE-6" data-name="LWPOLYLINE"><path class="cls-7" d="M62.64,2A11.27,11.27,0,0,0,51.38,2L28.86,15,113.3,63.76v-26A11.27,11.27,0,0,0,107.67,28Z"/></g></g></g></svg>