<svg xmlns="http://www.w3.org/2000/svg" xmlns:xlink="http://www.w3.org/1999/xlink" viewBox="0 0 90.33 101.54"><defs><style>.cls-1{fill:#68bc8c;}.cls-2{fill:#e09c8d;}.cls-3{fill:#9fb9de;}.cls-4{fill:url(#linear-gradient);}.cls-5{fill:url(#linear-gradient-2);}.cls-6{stroke-miterlimit:10;fill:url(#linear-gradient-3);stroke:url(#linear-gradient-4);}</style><linearGradient id="linear-gradient" y1="50.97" x2="22.5" y2="50.97" gradientUnits="userSpaceOnUse"><stop offset="0" stop-color="#18aa4e"/><stop offset="1" stop-color="#10aa97"/></linearGradient><linearGradient id="linear-gradient-2" x1="22.5" y1="76.25" x2="90" y2="76.25" gradientUnits="userSpaceOnUse"><stop offset="0" stop-color="#c03836"/><stop offset="1" stop-color="#d94c79"/></linearGradient><linearGradient id="linear-gradient-3" x1="22.89" y1="25.58" x2="89.83" y2="25.58" gradientUnits="userSpaceOnUse"><stop offset="0" stop-color="#745da8"/><stop offset="1" stop-color="#4c59a2"/></linearGradient><linearGradient id="linear-gradient-4" x1="21.89" y1="25.76" x2="90.33" y2="25.76" xlink:href="#linear-gradient-3"/></defs><g id="Layer_2" data-name="Layer 2"><g id="Layer_1-2" data-name="Layer 1"><g id="LWPOLYLINE"><polygon class="cls-1" points="45 76.95 22.5 63.96 22.5 89.94 45 76.95"/></g><g id="LWPOLYLINE-2" data-name="LWPOLYLINE"><polygon class="cls-2" points="90 50.97 67.5 37.98 67.5 63.96 90 50.97"/></g><g id="LWPOLYLINE-3" data-name="LWPOLYLINE"><polygon class="cls-3" points="45 24.99 22.5 11.99 22.5 37.98 45 24.99"/></g><g id="LWPOLYLINE-4" data-name="LWPOLYLINE"><path class="cls-4" d="M22.5,12,4.5,22.39A9,9,0,0,0,0,30.18V71.75a9,9,0,0,0,4.5,7.8l18,10.39Z"/></g><g id="LWPOLYLINE-5" data-name="LWPOLYLINE"><path class="cls-5" d="M90,71.75V51l-67.5,39,18,10.39a9,9,0,0,0,9,0l36-20.78A9,9,0,0,0,90,71.75Z"/></g><g id="LWPOLYLINE-6" data-name="LWPOLYLINE"><path class="cls-6" d="M49.66,1.7a8.89,8.89,0,0,0-8.92,0L22.89,12,89.83,50.65V30a8.92,8.92,0,0,0-4.46-7.73Z"/></g></g></g></svg>