<svg width="1140" height="489" viewBox="0 0 1140 489" fill="none" xmlns="http://www.w3.org/2000/svg">
<g clip-path="url(#clip0_3051_3441)">
<g filter="url(#filter0_i_3051_3441)">
<path d="M854.111 220.674C989.863 71.8232 1136.48 66.5371 1136.48 66.5371V488.759H854.111V220.674Z" fill="#0A7EFB"/>
</g>
<g filter="url(#filter1_i_3051_3441)">
<path d="M854.109 220.59V488.758H568.237V259.406C666.497 232.03 761.999 256.701 854.109 220.59Z" fill="#0A7EFB" fill-opacity="0.8"/>
</g>
<g filter="url(#filter2_i_3051_3441)">
<path d="M568.25 260.532V488.76H284.131V381.529C380.759 364 475.66 286.46 568.25 260.532Z" fill="#0A7EFB" fill-opacity="0.6"/>
</g>
<g filter="url(#filter3_i_3051_3441)">
<path d="M285.891 488.759H1.77164V398.598C97.9142 390.067 192.125 398.683 285.891 381.777V488.759Z" fill="#0A7EFB" fill-opacity="0.4"/>
</g>
</g>
<mask id="path-5-inside-1_3051_3441" fill="white">
<path d="M0 0H285V489H0V0Z"/>
</mask>
<path d="M283.241 0V489H286.759V0H283.241ZM1.75926 489V0H-1.75926V489H1.75926Z" fill="#F1F4F9" mask="url(#path-5-inside-1_3051_3441)"/>
<path d="M34.7684 50.4482C33.7351 50.4482 32.8018 50.2715 31.9684 49.9182C31.1418 49.5582 30.4584 49.0482 29.9184 48.3882C29.3851 47.7215 29.0384 46.9315 28.8784 46.0182L31.0584 45.6882C31.2784 46.5682 31.7384 47.2549 32.4384 47.7482C33.1384 48.2349 33.9551 48.4782 34.8884 48.4782C35.4684 48.4782 36.0018 48.3882 36.4884 48.2082C36.9751 48.0215 37.3651 47.7582 37.6584 47.4182C37.9584 47.0715 38.1084 46.6582 38.1084 46.1782C38.1084 45.9182 38.0618 45.6882 37.9684 45.4882C37.8818 45.2882 37.7584 45.1149 37.5984 44.9682C37.4451 44.8149 37.2551 44.6849 37.0284 44.5782C36.8084 44.4649 36.5651 44.3682 36.2984 44.2882L32.6084 43.1982C32.2484 43.0915 31.8818 42.9549 31.5084 42.7882C31.1351 42.6149 30.7918 42.3915 30.4784 42.1182C30.1718 41.8382 29.9218 41.4949 29.7284 41.0882C29.5351 40.6749 29.4384 40.1749 29.4384 39.5882C29.4384 38.7015 29.6651 37.9515 30.1184 37.3382C30.5784 36.7182 31.1984 36.2515 31.9784 35.9382C32.7584 35.6182 33.6318 35.4582 34.5984 35.4582C35.5718 35.4715 36.4418 35.6449 37.2084 35.9782C37.9818 36.3115 38.6218 36.7915 39.1284 37.4182C39.6418 38.0382 39.9951 38.7915 40.1884 39.6782L37.9484 40.0582C37.8484 39.5182 37.6351 39.0549 37.3084 38.6682C36.9818 38.2749 36.5818 37.9749 36.1084 37.7682C35.6351 37.5549 35.1218 37.4449 34.5684 37.4382C34.0351 37.4249 33.5451 37.5049 33.0984 37.6782C32.6584 37.8515 32.3051 38.0949 32.0384 38.4082C31.7784 38.7215 31.6484 39.0815 31.6484 39.4882C31.6484 39.8882 31.7651 40.2115 31.9984 40.4582C32.2318 40.7049 32.5184 40.9015 32.8584 41.0482C33.2051 41.1882 33.5484 41.3049 33.8884 41.3982L36.5484 42.1482C36.8818 42.2415 37.2584 42.3682 37.6784 42.5282C38.1051 42.6815 38.5151 42.8982 38.9084 43.1782C39.3084 43.4582 39.6384 43.8315 39.8984 44.2982C40.1584 44.7582 40.2884 45.3382 40.2884 46.0382C40.2884 46.7649 40.1418 47.4049 39.8484 47.9582C39.5551 48.5049 39.1518 48.9649 38.6384 49.3382C38.1318 49.7049 37.5451 49.9815 36.8784 50.1682C36.2118 50.3549 35.5084 50.4482 34.7684 50.4482ZM48.5995 50.1482C47.9195 50.2815 47.2529 50.3382 46.5995 50.3182C45.9462 50.2982 45.3629 50.1715 44.8495 49.9382C44.3362 49.7049 43.9495 49.3382 43.6895 48.8382C43.4562 48.3915 43.3295 47.9382 43.3095 47.4782C43.2962 47.0115 43.2895 46.4849 43.2895 45.8982V36.3482H45.3895V45.7982C45.3895 46.2315 45.3929 46.6082 45.3995 46.9282C45.4129 47.2482 45.4829 47.5182 45.6095 47.7382C45.8495 48.1515 46.2295 48.3882 46.7495 48.4482C47.2762 48.5015 47.8929 48.4782 48.5995 48.3782V50.1482ZM41.2195 41.0282V39.3482H48.5995V41.0282H41.2195ZM53.9266 50.4482C53.1266 50.4482 52.4566 50.3015 51.9166 50.0082C51.3766 49.7082 50.9666 49.3149 50.6866 48.8282C50.4132 48.3349 50.2766 47.7949 50.2766 47.2082C50.2766 46.6615 50.3732 46.1815 50.5666 45.7682C50.7599 45.3549 51.0466 45.0049 51.4266 44.7182C51.8066 44.4249 52.2732 44.1882 52.8266 44.0082C53.3066 43.8682 53.8499 43.7449 54.4566 43.6382C55.0632 43.5315 55.6999 43.4315 56.3666 43.3382C57.0399 43.2449 57.7066 43.1515 58.3666 43.0582L57.6066 43.4782C57.6199 42.6315 57.4399 42.0049 57.0666 41.5982C56.6999 41.1849 56.0666 40.9782 55.1666 40.9782C54.5999 40.9782 54.0799 41.1115 53.6066 41.3782C53.1332 41.6382 52.8032 42.0715 52.6166 42.6782L50.6666 42.0782C50.9332 41.1515 51.4399 40.4149 52.1866 39.8682C52.9399 39.3215 53.9399 39.0482 55.1866 39.0482C56.1532 39.0482 56.9932 39.2149 57.7066 39.5482C58.4266 39.8749 58.9532 40.3949 59.2866 41.1082C59.4599 41.4615 59.5666 41.8349 59.6066 42.2282C59.6466 42.6215 59.6666 43.0449 59.6666 43.4982V50.1482H57.8166V47.6782L58.1766 47.9982C57.7299 48.8249 57.1599 49.4415 56.4666 49.8482C55.7799 50.2482 54.9332 50.4482 53.9266 50.4482ZM54.2966 48.7382C54.8899 48.7382 55.3999 48.6349 55.8266 48.4282C56.2532 48.2149 56.5966 47.9449 56.8566 47.6182C57.1166 47.2915 57.2866 46.9515 57.3666 46.5982C57.4799 46.2782 57.5432 45.9182 57.5566 45.5182C57.5766 45.1182 57.5866 44.7982 57.5866 44.5582L58.2666 44.8082C57.6066 44.9082 57.0066 44.9982 56.4666 45.0782C55.9266 45.1582 55.4366 45.2382 54.9966 45.3182C54.5632 45.3915 54.1766 45.4815 53.8366 45.5882C53.5499 45.6882 53.2932 45.8082 53.0666 45.9482C52.8466 46.0882 52.6699 46.2582 52.5366 46.4582C52.4099 46.6582 52.3466 46.9015 52.3466 47.1882C52.3466 47.4682 52.4166 47.7282 52.5566 47.9682C52.6966 48.2015 52.9099 48.3882 53.1966 48.5282C53.4832 48.6682 53.8499 48.7382 54.2966 48.7382ZM62.2633 50.1482V39.3482H64.1233V41.9682L63.8633 41.6282C63.9966 41.2815 64.1699 40.9649 64.3833 40.6782C64.5966 40.3849 64.8433 40.1449 65.1233 39.9582C65.3966 39.7582 65.6999 39.6049 66.0333 39.4982C66.3733 39.3849 66.7199 39.3182 67.0733 39.2982C67.4266 39.2715 67.7666 39.2882 68.0933 39.3482V41.3082C67.7399 41.2149 67.3466 41.1882 66.9133 41.2282C66.4866 41.2682 66.0933 41.4049 65.7333 41.6382C65.3933 41.8582 65.1233 42.1249 64.9233 42.4382C64.7299 42.7515 64.5899 43.1015 64.5033 43.4882C64.4166 43.8682 64.3733 44.2715 64.3733 44.6982V50.1482H62.2633ZM76.1777 50.1482C75.4977 50.2815 74.831 50.3382 74.1777 50.3182C73.5243 50.2982 72.941 50.1715 72.4277 49.9382C71.9143 49.7049 71.5277 49.3382 71.2677 48.8382C71.0343 48.3915 70.9077 47.9382 70.8877 47.4782C70.8743 47.0115 70.8677 46.4849 70.8677 45.8982V36.3482H72.9677V45.7982C72.9677 46.2315 72.971 46.6082 72.9777 46.9282C72.991 47.2482 73.061 47.5182 73.1877 47.7382C73.4277 48.1515 73.8077 48.3882 74.3277 48.4482C74.8543 48.5015 75.471 48.4782 76.1777 48.3782V50.1482ZM68.7977 41.0282V39.3482H76.1777V41.0282H68.7977Z" fill="#212534"/>
<mask id="path-8-inside-2_3051_3441" fill="white">
<path d="M285 0H570V489H285V0Z"/>
</mask>
<path d="M568.241 0V489H571.759V0H568.241Z" fill="#F1F4F9" mask="url(#path-8-inside-2_3051_3441)"/>
<path d="M314.548 50.1482V35.7482H320.208C321.122 35.7482 321.888 35.9349 322.508 36.3082C323.128 36.6815 323.595 37.1649 323.908 37.7582C324.222 38.3449 324.378 38.9649 324.378 39.6182C324.378 40.4115 324.182 41.0915 323.788 41.6582C323.402 42.2249 322.878 42.6115 322.218 42.8182L322.198 42.3282C323.118 42.5549 323.825 42.9982 324.318 43.6582C324.812 44.3115 325.058 45.0749 325.058 45.9482C325.058 46.7949 324.888 47.5315 324.548 48.1582C324.215 48.7849 323.725 49.2749 323.078 49.6282C322.438 49.9749 321.662 50.1482 320.748 50.1482H314.548ZM316.668 48.1582H320.428C320.902 48.1582 321.325 48.0682 321.698 47.8882C322.078 47.7082 322.375 47.4515 322.588 47.1182C322.808 46.7782 322.918 46.3749 322.918 45.9082C322.918 45.4749 322.822 45.0849 322.628 44.7382C322.442 44.3849 322.168 44.1082 321.808 43.9082C321.455 43.7015 321.038 43.5982 320.558 43.5982H316.668V48.1582ZM316.668 41.6282H320.178C320.565 41.6282 320.912 41.5515 321.218 41.3982C321.532 41.2382 321.778 41.0115 321.958 40.7182C322.145 40.4182 322.238 40.0582 322.238 39.6382C322.238 39.0782 322.052 38.6182 321.678 38.2582C321.305 37.8982 320.805 37.7182 320.178 37.7182H316.668V41.6282ZM331.118 50.4382C330.372 50.4382 329.745 50.3182 329.238 50.0782C328.732 49.8382 328.318 49.5249 327.998 49.1382C327.685 48.7449 327.445 48.3182 327.278 47.8582C327.112 47.3982 326.998 46.9482 326.938 46.5082C326.878 46.0682 326.848 45.6815 326.848 45.3482V39.3482H328.968V44.6582C328.968 45.0782 329.002 45.5115 329.068 45.9582C329.142 46.3982 329.275 46.8082 329.468 47.1882C329.668 47.5682 329.945 47.8749 330.298 48.1082C330.658 48.3415 331.125 48.4582 331.698 48.4582C332.072 48.4582 332.425 48.3982 332.758 48.2782C333.092 48.1515 333.382 47.9515 333.628 47.6782C333.882 47.4049 334.078 47.0449 334.218 46.5982C334.365 46.1515 334.438 45.6082 334.438 44.9682L335.738 45.4582C335.738 46.4382 335.555 47.3049 335.188 48.0582C334.822 48.8049 334.295 49.3882 333.608 49.8082C332.922 50.2282 332.092 50.4382 331.118 50.4382ZM334.688 50.1482V47.0282H334.438V39.3482H336.548V50.1482H334.688ZM339.553 37.5782V35.5482H341.643V37.5782H339.553ZM339.553 50.1482V39.3482H341.643V50.1482H339.553ZM344.846 50.1482V35.4482H346.936V50.1482H344.846ZM354.229 50.4482C353.222 50.4482 352.352 50.1982 351.619 49.6982C350.892 49.1982 350.329 48.5182 349.929 47.6582C349.536 46.7915 349.339 45.8182 349.339 44.7382C349.339 43.6515 349.539 42.6815 349.939 41.8282C350.339 40.9682 350.906 40.2915 351.639 39.7982C352.379 39.2982 353.256 39.0482 354.269 39.0482C355.289 39.0482 356.146 39.2982 356.839 39.7982C357.539 40.2915 358.066 40.9682 358.419 41.8282C358.779 42.6882 358.959 43.6582 358.959 44.7382C358.959 45.8182 358.779 46.7882 358.419 47.6482C358.059 48.5082 357.529 49.1915 356.829 49.6982C356.129 50.1982 355.262 50.4482 354.229 50.4482ZM354.519 48.5582C355.206 48.5582 355.766 48.3949 356.199 48.0682C356.632 47.7415 356.949 47.2915 357.149 46.7182C357.349 46.1449 357.449 45.4849 357.449 44.7382C357.449 43.9915 357.346 43.3315 357.139 42.7582C356.939 42.1849 356.626 41.7382 356.199 41.4182C355.779 41.0982 355.242 40.9382 354.589 40.9382C353.896 40.9382 353.326 41.1082 352.879 41.4482C352.432 41.7882 352.099 42.2449 351.879 42.8182C351.666 43.3915 351.559 44.0315 351.559 44.7382C351.559 45.4515 351.666 46.0982 351.879 46.6782C352.099 47.2515 352.426 47.7082 352.859 48.0482C353.299 48.3882 353.852 48.5582 354.519 48.5582ZM357.449 50.1482V42.3782H357.209V35.7482H359.309V50.1482H357.449Z" fill="#212534"/>
<mask id="path-11-inside-3_3051_3441" fill="white">
<path d="M570 0.000244141H855V489H570V0.000244141Z"/>
</mask>
<path d="M853.241 0.000244141V489H856.759V0.000244141H853.241Z" fill="#F1F4F9" mask="url(#path-11-inside-3_3051_3441)"/>
<path d="M605.438 50.4484C604.472 50.4484 603.582 50.2818 602.768 49.9484C601.955 49.6084 601.248 49.1151 600.648 48.4684C600.048 47.8218 599.582 47.0351 599.248 46.1084C598.915 45.1818 598.748 44.1284 598.748 42.9484C598.748 41.3951 599.032 40.0618 599.598 38.9484C600.165 37.8284 600.952 36.9684 601.958 36.3684C602.965 35.7618 604.125 35.4584 605.438 35.4584C607.132 35.4584 608.482 35.8518 609.488 36.6384C610.502 37.4251 611.192 38.5118 611.558 39.8984L609.438 40.2784C609.145 39.4184 608.672 38.7318 608.018 38.2184C607.365 37.7051 606.545 37.4451 605.558 37.4384C604.538 37.4318 603.688 37.6584 603.008 38.1184C602.335 38.5784 601.828 39.2251 601.488 40.0584C601.148 40.8851 600.975 41.8484 600.968 42.9484C600.962 44.0484 601.128 45.0118 601.468 45.8384C601.808 46.6584 602.318 47.2984 602.998 47.7584C603.685 48.2184 604.538 48.4518 605.558 48.4584C606.378 48.4718 607.082 48.3218 607.668 48.0084C608.262 47.6884 608.732 47.2218 609.078 46.6084C609.425 45.9951 609.648 45.2418 609.748 44.3484H606.948V42.6684H611.968C611.982 42.7884 611.992 42.9484 611.998 43.1484C612.005 43.3418 612.008 43.4651 612.008 43.5184C612.008 44.8518 611.752 46.0418 611.238 47.0884C610.725 48.1351 609.978 48.9584 608.998 49.5584C608.018 50.1518 606.832 50.4484 605.438 50.4484ZM614.002 50.1484V39.3484H615.862V41.9684L615.602 41.6284C615.735 41.2818 615.908 40.9651 616.122 40.6784C616.335 40.3851 616.582 40.1451 616.862 39.9584C617.135 39.7584 617.438 39.6051 617.772 39.4984C618.112 39.3851 618.458 39.3184 618.812 39.2984C619.165 39.2718 619.505 39.2884 619.832 39.3484V41.3084C619.478 41.2151 619.085 41.1884 618.652 41.2284C618.225 41.2684 617.832 41.4051 617.472 41.6384C617.132 41.8584 616.862 42.1251 616.662 42.4384C616.468 42.7518 616.328 43.1018 616.242 43.4884C616.155 43.8684 616.112 44.2718 616.112 44.6984V50.1484H614.002ZM626.231 50.4484C625.151 50.4484 624.214 50.2051 623.421 49.7184C622.627 49.2318 622.014 48.5618 621.581 47.7084C621.154 46.8484 620.941 45.8584 620.941 44.7384C620.941 43.6118 621.161 42.6218 621.601 41.7684C622.041 40.9084 622.657 40.2418 623.451 39.7684C624.244 39.2884 625.171 39.0484 626.231 39.0484C627.311 39.0484 628.247 39.2918 629.041 39.7784C629.834 40.2651 630.447 40.9351 630.881 41.7884C631.314 42.6418 631.531 43.6251 631.531 44.7384C631.531 45.8651 631.311 46.8584 630.871 47.7184C630.437 48.5718 629.824 49.2418 629.031 49.7284C628.237 50.2084 627.304 50.4484 626.231 50.4484ZM626.231 48.4784C627.264 48.4784 628.034 48.1318 628.541 47.4384C629.054 46.7384 629.311 45.8384 629.311 44.7384C629.311 43.6118 629.051 42.7118 628.531 42.0384C628.017 41.3584 627.251 41.0184 626.231 41.0184C625.531 41.0184 624.954 41.1784 624.501 41.4984C624.047 41.8118 623.711 42.2484 623.491 42.8084C623.271 43.3618 623.161 44.0051 623.161 44.7384C623.161 45.8718 623.421 46.7784 623.941 47.4584C624.461 48.1384 625.224 48.4784 626.231 48.4784ZM635.638 50.1484L632.338 39.3384L634.408 39.3484L636.668 46.7584L638.948 39.3484H640.748L643.028 46.7584L645.288 39.3484H647.348L644.048 50.1484H642.368L639.848 42.3284L637.318 50.1484H635.638Z" fill="#212534"/>
<mask id="path-14-inside-4_3051_3441" fill="white">
<path d="M855 0H1140V489H855V0Z"/>
</mask>
<path d="M1138.24 0V489H1141.76V0H1138.24Z" fill="#F1F4F9" mask="url(#path-14-inside-4_3051_3441)"/>
<path d="M889.768 50.4482C888.735 50.4482 887.802 50.2715 886.968 49.9182C886.142 49.5582 885.458 49.0482 884.918 48.3882C884.385 47.7215 884.038 46.9315 883.878 46.0182L886.058 45.6882C886.278 46.5682 886.738 47.2549 887.438 47.7482C888.138 48.2349 888.955 48.4782 889.888 48.4782C890.468 48.4782 891.002 48.3882 891.488 48.2082C891.975 48.0215 892.365 47.7582 892.658 47.4182C892.958 47.0715 893.108 46.6582 893.108 46.1782C893.108 45.9182 893.062 45.6882 892.968 45.4882C892.882 45.2882 892.758 45.1149 892.598 44.9682C892.445 44.8149 892.255 44.6849 892.028 44.5782C891.808 44.4649 891.565 44.3682 891.298 44.2882L887.608 43.1982C887.248 43.0915 886.882 42.9549 886.508 42.7882C886.135 42.6149 885.792 42.3915 885.478 42.1182C885.172 41.8382 884.922 41.4949 884.728 41.0882C884.535 40.6749 884.438 40.1749 884.438 39.5882C884.438 38.7015 884.665 37.9515 885.118 37.3382C885.578 36.7182 886.198 36.2515 886.978 35.9382C887.758 35.6182 888.632 35.4582 889.598 35.4582C890.572 35.4715 891.442 35.6449 892.208 35.9782C892.982 36.3115 893.622 36.7915 894.128 37.4182C894.642 38.0382 894.995 38.7915 895.188 39.6782L892.948 40.0582C892.848 39.5182 892.635 39.0549 892.308 38.6682C891.982 38.2749 891.582 37.9749 891.108 37.7682C890.635 37.5549 890.122 37.4449 889.568 37.4382C889.035 37.4249 888.545 37.5049 888.098 37.6782C887.658 37.8515 887.305 38.0949 887.038 38.4082C886.778 38.7215 886.648 39.0815 886.648 39.4882C886.648 39.8882 886.765 40.2115 886.998 40.4582C887.232 40.7049 887.518 40.9015 887.858 41.0482C888.205 41.1882 888.548 41.3049 888.888 41.3982L891.548 42.1482C891.882 42.2415 892.258 42.3682 892.678 42.5282C893.105 42.6815 893.515 42.8982 893.908 43.1782C894.308 43.4582 894.638 43.8315 894.898 44.2982C895.158 44.7582 895.288 45.3382 895.288 46.0382C895.288 46.7649 895.142 47.4049 894.848 47.9582C894.555 48.5049 894.152 48.9649 893.638 49.3382C893.132 49.7049 892.545 49.9815 891.878 50.1682C891.212 50.3549 890.508 50.4482 889.768 50.4482ZM902.04 50.4482C900.933 50.4482 899.993 50.2015 899.22 49.7082C898.446 49.2149 897.853 48.5382 897.44 47.6782C897.033 46.8182 896.826 45.8415 896.82 44.7482C896.826 43.6349 897.04 42.6515 897.46 41.7982C897.88 40.9382 898.48 40.2649 899.26 39.7782C900.04 39.2915 900.976 39.0482 902.07 39.0482C903.25 39.0482 904.256 39.3415 905.09 39.9282C905.93 40.5149 906.483 41.3182 906.75 42.3382L904.67 42.9382C904.463 42.3315 904.123 41.8615 903.65 41.5282C903.183 41.1882 902.646 41.0182 902.04 41.0182C901.353 41.0182 900.79 41.1815 900.35 41.5082C899.91 41.8282 899.583 42.2682 899.37 42.8282C899.156 43.3882 899.046 44.0282 899.04 44.7482C899.046 45.8615 899.3 46.7615 899.8 47.4482C900.306 48.1349 901.053 48.4782 902.04 48.4782C902.713 48.4782 903.256 48.3249 903.67 48.0182C904.09 47.7049 904.41 47.2582 904.63 46.6782L906.75 47.1782C906.396 48.2315 905.813 49.0415 905 49.6082C904.186 50.1682 903.2 50.4482 902.04 50.4482ZM911.7 50.4482C910.9 50.4482 910.23 50.3015 909.69 50.0082C909.15 49.7082 908.74 49.3149 908.46 48.8282C908.187 48.3349 908.05 47.7949 908.05 47.2082C908.05 46.6615 908.147 46.1815 908.34 45.7682C908.533 45.3549 908.82 45.0049 909.2 44.7182C909.58 44.4249 910.047 44.1882 910.6 44.0082C911.08 43.8682 911.623 43.7449 912.23 43.6382C912.837 43.5315 913.473 43.4315 914.14 43.3382C914.813 43.2449 915.48 43.1515 916.14 43.0582L915.38 43.4782C915.393 42.6315 915.213 42.0049 914.84 41.5982C914.473 41.1849 913.84 40.9782 912.94 40.9782C912.373 40.9782 911.853 41.1115 911.38 41.3782C910.907 41.6382 910.577 42.0715 910.39 42.6782L908.44 42.0782C908.707 41.1515 909.213 40.4149 909.96 39.8682C910.713 39.3215 911.713 39.0482 912.96 39.0482C913.927 39.0482 914.767 39.2149 915.48 39.5482C916.2 39.8749 916.727 40.3949 917.06 41.1082C917.233 41.4615 917.34 41.8349 917.38 42.2282C917.42 42.6215 917.44 43.0449 917.44 43.4982V50.1482H915.59V47.6782L915.95 47.9982C915.503 48.8249 914.933 49.4415 914.24 49.8482C913.553 50.2482 912.707 50.4482 911.7 50.4482ZM912.07 48.7382C912.663 48.7382 913.173 48.6349 913.6 48.4282C914.027 48.2149 914.37 47.9449 914.63 47.6182C914.89 47.2915 915.06 46.9515 915.14 46.5982C915.253 46.2782 915.317 45.9182 915.33 45.5182C915.35 45.1182 915.36 44.7982 915.36 44.5582L916.04 44.8082C915.38 44.9082 914.78 44.9982 914.24 45.0782C913.7 45.1582 913.21 45.2382 912.77 45.3182C912.337 45.3915 911.95 45.4815 911.61 45.5882C911.323 45.6882 911.067 45.8082 910.84 45.9482C910.62 46.0882 910.443 46.2582 910.31 46.4582C910.183 46.6582 910.12 46.9015 910.12 47.1882C910.12 47.4682 910.19 47.7282 910.33 47.9682C910.47 48.2015 910.683 48.3882 910.97 48.5282C911.257 48.6682 911.623 48.7382 912.07 48.7382ZM920.237 50.1482V35.4482H922.327V50.1482H920.237ZM930.12 50.4482C929.046 50.4482 928.103 50.2149 927.29 49.7482C926.483 49.2749 925.853 48.6182 925.4 47.7782C924.953 46.9315 924.73 45.9515 924.73 44.8382C924.73 43.6582 924.95 42.6349 925.39 41.7682C925.836 40.9015 926.456 40.2315 927.25 39.7582C928.043 39.2849 928.966 39.0482 930.02 39.0482C931.12 39.0482 932.056 39.3049 932.83 39.8182C933.603 40.3249 934.18 41.0482 934.56 41.9882C934.946 42.9282 935.1 44.0449 935.02 45.3382H932.93V44.5782C932.916 43.3249 932.676 42.3982 932.21 41.7982C931.75 41.1982 931.046 40.8982 930.1 40.8982C929.053 40.8982 928.266 41.2282 927.74 41.8882C927.213 42.5482 926.95 43.5015 926.95 44.7482C926.95 45.9349 927.213 46.8549 927.74 47.5082C928.266 48.1549 929.026 48.4782 930.02 48.4782C930.673 48.4782 931.236 48.3315 931.71 48.0382C932.19 47.7382 932.563 47.3115 932.83 46.7582L934.88 47.4082C934.46 48.3749 933.823 49.1249 932.97 49.6582C932.116 50.1849 931.166 50.4482 930.12 50.4482ZM926.27 45.3382V43.7082H933.98V45.3382H926.27Z" fill="#212534"/>
<defs>
<filter id="filter0_i_3051_3441" x="854.113" y="66.5371" width="282.363" height="422.222" filterUnits="userSpaceOnUse" color-interpolation-filters="sRGB">
<feFlood flood-opacity="0" result="BackgroundImageFix"/>
<feBlend mode="normal" in="SourceGraphic" in2="BackgroundImageFix" result="shape"/>
<feColorMatrix in="SourceAlpha" type="matrix" values="0 0 0 0 0 0 0 0 0 0 0 0 0 0 0 0 0 0 127 0" result="hardAlpha"/>
<feOffset dy="14.0741"/>
<feComposite in2="hardAlpha" operator="arithmetic" k2="-1" k3="1"/>
<feColorMatrix type="matrix" values="0 0 0 0 1 0 0 0 0 1 0 0 0 0 1 0 0 0 0.2 0"/>
<feBlend mode="normal" in2="shape" result="effect1_innerShadow_3051_3441"/>
</filter>
<filter id="filter1_i_3051_3441" x="568.238" y="220.59" width="285.871" height="268.168" filterUnits="userSpaceOnUse" color-interpolation-filters="sRGB">
<feFlood flood-opacity="0" result="BackgroundImageFix"/>
<feBlend mode="normal" in="SourceGraphic" in2="BackgroundImageFix" result="shape"/>
<feColorMatrix in="SourceAlpha" type="matrix" values="0 0 0 0 0 0 0 0 0 0 0 0 0 0 0 0 0 0 127 0" result="hardAlpha"/>
<feOffset dy="14.0741"/>
<feComposite in2="hardAlpha" operator="arithmetic" k2="-1" k3="1"/>
<feColorMatrix type="matrix" values="0 0 0 0 1 0 0 0 0 1 0 0 0 0 1 0 0 0 0.2 0"/>
<feBlend mode="normal" in2="shape" result="effect1_innerShadow_3051_3441"/>
</filter>
<filter id="filter2_i_3051_3441" x="284.133" y="260.532" width="284.117" height="228.228" filterUnits="userSpaceOnUse" color-interpolation-filters="sRGB">
<feFlood flood-opacity="0" result="BackgroundImageFix"/>
<feBlend mode="normal" in="SourceGraphic" in2="BackgroundImageFix" result="shape"/>
<feColorMatrix in="SourceAlpha" type="matrix" values="0 0 0 0 0 0 0 0 0 0 0 0 0 0 0 0 0 0 127 0" result="hardAlpha"/>
<feOffset dy="14.0741"/>
<feComposite in2="hardAlpha" operator="arithmetic" k2="-1" k3="1"/>
<feColorMatrix type="matrix" values="0 0 0 0 1 0 0 0 0 1 0 0 0 0 1 0 0 0 0.2 0"/>
<feBlend mode="normal" in2="shape" result="effect1_innerShadow_3051_3441"/>
</filter>
<filter id="filter3_i_3051_3441" x="1.77344" y="381.777" width="284.117" height="106.982" filterUnits="userSpaceOnUse" color-interpolation-filters="sRGB">
<feFlood flood-opacity="0" result="BackgroundImageFix"/>
<feBlend mode="normal" in="SourceGraphic" in2="BackgroundImageFix" result="shape"/>
<feColorMatrix in="SourceAlpha" type="matrix" values="0 0 0 0 0 0 0 0 0 0 0 0 0 0 0 0 0 0 127 0" result="hardAlpha"/>
<feOffset dy="14.0741"/>
<feComposite in2="hardAlpha" operator="arithmetic" k2="-1" k3="1"/>
<feColorMatrix type="matrix" values="0 0 0 0 1 0 0 0 0 1 0 0 0 0 1 0 0 0 0.2 0"/>
<feBlend mode="normal" in2="shape" result="effect1_innerShadow_3051_3441"/>
</filter>
<clipPath id="clip0_3051_3441">
<rect width="1134.72" height="422.222" fill="white" transform="matrix(-1 0 0 1 1136.48 66.5371)"/>
</clipPath>
</defs>
</svg>
