<svg width="60" height="60" viewBox="0 0 60 60" fill="none" xmlns="http://www.w3.org/2000/svg">
<path d="M60 12.6829L30 15.0098L0 12.6829V7.31695C0 5.96988 1.09195 4.87793 2.43902 4.87793H57.561C58.908 4.87793 60 5.96988 60 7.31695V12.6829Z" fill="#60B7FF"/>
<path d="M57.5587 4.87793H53.6562C55.0033 4.87793 56.0953 5.96988 56.0953 7.31695V14.1189L59.9977 12.6829V7.31695C59.9977 5.96988 58.9058 4.87793 57.5587 4.87793Z" fill="#26A6FE"/>
<path d="M57.561 55.1216H2.43902C1.09195 55.1216 0 54.0296 0 52.6826V12.6826H60V52.6826C60 54.0296 58.908 55.1216 57.561 55.1216Z" fill="#E8EDF2"/>
<path d="M56.0953 12.6826V52.6826C56.0953 54.0296 55.0033 55.1216 53.6562 55.1216H57.5587C58.9058 55.1216 59.9977 54.0296 59.9977 52.6826V12.6826H56.0953Z" fill="#D9E7EC"/>
<path d="M46.4675 35.1224H13.5406C12.1935 35.1224 11.1016 34.0305 11.1016 32.6834V20.0005C11.1016 18.6535 12.1935 17.5615 13.5406 17.5615H46.4675C47.8145 17.5615 48.9065 18.6535 48.9065 20.0005V32.6835C48.9065 34.0305 47.8144 35.1224 46.4675 35.1224Z" fill="#FFD15B"/>
<path d="M46.4633 17.5615H42.8047C44.1518 17.5615 45.2437 18.6535 45.2437 20.0005V32.6835C45.2437 34.0306 44.1518 35.1225 42.8047 35.1225H46.4633C47.8104 35.1225 48.9023 34.0306 48.9023 32.6835V20.0005C48.9023 18.6535 47.8102 17.5615 46.4633 17.5615Z" fill="#FFC344"/>
<path d="M13.5367 45.0245C13.3117 45.0245 13.0868 44.9387 12.9151 44.767L10.4762 42.328C10.1329 41.9848 10.1329 41.4283 10.4762 41.0851L12.9151 38.6461C13.2584 38.3029 13.8149 38.3029 14.1581 38.6461C14.5013 38.9893 14.5013 39.5459 14.1581 39.889L12.3405 41.7066L14.1581 43.5241C14.5013 43.8674 14.5013 44.4239 14.1581 44.767C13.9865 44.9387 13.7615 45.0245 13.5367 45.0245Z" fill="#7A6D79"/>
<path d="M46.4649 51.1222C46.2399 51.1222 46.015 51.0364 45.8434 50.8647C45.5001 50.5215 45.5001 49.9649 45.8434 49.6218L47.6611 47.8042L45.8434 45.9866C45.5001 45.6434 45.5001 45.0869 45.8434 44.7438C46.1867 44.4005 46.7431 44.4005 47.0864 44.7438L49.5254 47.1828C49.6902 47.3475 49.7827 47.5711 49.7827 47.8042C49.7827 48.0373 49.6902 48.2609 49.5254 48.4257L47.0864 50.8647C46.9148 51.0364 46.6898 51.1222 46.4649 51.1222Z" fill="#7A6D79"/>
<path d="M41.7662 40.1465H27.1992C26.7137 40.1465 26.3203 39.753 26.3203 39.2676C26.3203 38.7822 26.7137 38.3887 27.1992 38.3887H41.7662C42.2517 38.3887 42.6451 38.7822 42.6451 39.2676C42.6451 39.753 42.2517 40.1465 41.7662 40.1465Z" fill="#7A6D79"/>
<path d="M23.2932 40.1467H18.2383C17.7528 40.1467 17.3594 39.7532 17.3594 39.2678C17.3594 38.7824 17.7528 38.3889 18.2383 38.3889H23.2932C23.7787 38.3889 24.1721 38.7824 24.1721 39.2678C24.1721 39.7532 23.7786 40.1467 23.2932 40.1467Z" fill="#7A6D79"/>
<path d="M32.8053 45.6348H18.2383C17.7528 45.6348 17.3594 45.2413 17.3594 44.7559C17.3594 44.2705 17.7528 43.877 18.2383 43.877H32.8053C33.2908 43.877 33.6842 44.2705 33.6842 44.7559C33.6842 45.2413 33.2907 45.6348 32.8053 45.6348Z" fill="#7A6D79"/>
<path d="M41.7619 45.6348H36.707C36.2215 45.6348 35.8281 45.2413 35.8281 44.7559C35.8281 44.2705 36.2215 43.877 36.707 43.877H41.7619C42.2474 43.877 42.6408 44.2705 42.6408 44.7559C42.6408 45.2413 42.2474 45.6348 41.7619 45.6348Z" fill="#7A6D79"/>
<path d="M23.2932 51.123H18.2383C17.7528 51.123 17.3594 50.7295 17.3594 50.2441C17.3594 49.7587 17.7528 49.3652 18.2383 49.3652H23.2932C23.7787 49.3652 24.1721 49.7587 24.1721 50.2441C24.1721 50.7295 23.7786 51.123 23.2932 51.123Z" fill="#7A6D79"/>
<path d="M41.7619 51.123H36.707C36.2215 51.123 35.8281 50.7295 35.8281 50.2441C35.8281 49.7587 36.2215 49.3652 36.707 49.3652H41.7619C42.2474 49.3652 42.6408 49.7587 42.6408 50.2441C42.6408 50.7295 42.2474 51.123 41.7619 51.123Z" fill="#7A6D79"/>
<path d="M32.8089 51.1221H27.1992C26.7137 51.1221 26.3203 50.7286 26.3203 50.2432C26.3203 49.7578 26.7137 49.3643 27.1992 49.3643H32.8089C33.2944 49.3643 33.6878 49.7578 33.6878 50.2432C33.6878 50.7286 33.2943 51.1221 32.8089 51.1221Z" fill="#7A6D79"/>
<path d="M38.249 22.4051C38.1535 21.9358 37.7529 21.5892 37.2747 21.5621C36.7975 21.5361 36.3594 21.8343 36.2115 22.2897C36.2083 22.2998 36.2052 22.31 36.2022 22.3202L34.7128 27.5451L33.1686 22.3112C33.1655 22.3006 33.1621 22.2901 33.1586 22.2797C33.0061 21.8257 32.5654 21.5312 32.0878 21.5632C31.61 21.5952 31.213 21.946 31.1203 22.4266L29.7485 30.0272C29.6623 30.5048 29.9797 30.962 30.4573 31.0482C30.9344 31.1343 31.3923 30.8171 31.4784 30.3394L32.3233 25.6581L33.7142 30.3726C33.7173 30.3831 33.7205 30.3935 33.7241 30.4038C33.8687 30.8346 34.2702 31.1231 34.7243 31.123H34.7295C35.1857 31.1208 35.5869 30.8277 35.728 30.3938C35.7312 30.3836 35.7344 30.3735 35.7373 30.3631L37.0802 25.6523L37.9776 30.3481C38.0688 30.825 38.5302 31.1376 39.0058 31.0465C39.4825 30.9554 39.7952 30.495 39.704 30.0183L38.249 22.4051Z" fill="#FE76A8"/>
<path d="M45.2315 29.3655H43.375V22.4395C43.375 21.9541 42.9816 21.5605 42.4961 21.5605C42.0106 21.5605 41.6172 21.9541 41.6172 22.4395V30.2444C41.6172 30.7298 42.0106 31.1233 42.4961 31.1233H45.2315C45.717 31.1233 46.1104 30.7298 46.1104 30.2444C46.1104 29.759 45.717 29.3655 45.2315 29.3655Z" fill="#FE76A8"/>
<path d="M20.1785 21.5605C19.693 21.5605 19.2996 21.9541 19.2996 22.4395V25.3292H15.6562V22.4395C15.6562 21.9541 15.2629 21.5605 14.7773 21.5605C14.2918 21.5605 13.8984 21.9541 13.8984 22.4395V30.2444C13.8984 30.7298 14.2918 31.1233 14.7773 31.1233C15.2629 31.1233 15.6562 30.7298 15.6562 30.2444V27.087H19.2996V30.2444C19.2996 30.7298 19.693 31.1233 20.1785 31.1233C20.664 31.1233 21.0574 30.7298 21.0574 30.2444V22.4395C21.0574 21.9541 20.6639 21.5605 20.1785 21.5605Z" fill="#FE76A8"/>
<path d="M28.2126 21.5605H23.9023C23.4168 21.5605 23.0234 21.9541 23.0234 22.4395C23.0234 22.9248 23.4168 23.3184 23.9023 23.3184H25.1697V30.2444C25.1697 30.7298 25.5631 31.1233 26.0486 31.1233C26.5341 31.1233 26.9275 30.7298 26.9275 30.2444V23.3184H28.2126C28.6981 23.3184 29.0915 22.9248 29.0915 22.4395C29.0915 21.9541 28.698 21.5605 28.2126 21.5605Z" fill="#FE76A8"/>
<path d="M47.8008 9.66016C48.2862 9.66016 48.6797 9.26666 48.6797 8.78125C48.6797 8.29584 48.2862 7.90234 47.8008 7.90234C47.3154 7.90234 46.9219 8.29584 46.9219 8.78125C46.9219 9.26666 47.3154 9.66016 47.8008 9.66016Z" fill="#FE76A8"/>
<path d="M51.4648 9.66016C51.9503 9.66016 52.3438 9.26666 52.3438 8.78125C52.3438 8.29584 51.9503 7.90234 51.4648 7.90234C50.9794 7.90234 50.5859 8.29584 50.5859 8.78125C50.5859 9.26666 50.9794 9.66016 51.4648 9.66016Z" fill="#FFD15B"/>
<path d="M55.1211 9.66016C55.6065 9.66016 56 9.26666 56 8.78125C56 8.29584 55.6065 7.90234 55.1211 7.90234C54.6357 7.90234 54.2422 8.29584 54.2422 8.78125C54.2422 9.26666 54.6357 9.66016 55.1211 9.66016Z" fill="#6CF5C2"/>
</svg>
