<svg width="118" height="25" viewBox="0 0 118 25" fill="none" xmlns="http://www.w3.org/2000/svg">
<g clip-path="url(#clip0_2532_1407)">
<path d="M26.728 18.8179C26.9288 18.894 27.1539 18.7931 27.2244 18.5902C27.9261 16.5713 28.1566 14.4166 27.8958 12.2917C27.6192 10.0381 26.7983 7.88555 25.504 6.01981C24.2097 4.15407 22.4807 2.63115 20.4664 1.58242C18.452 0.53369 16.2127 -0.00935784 13.9415 0.000122016C11.6704 0.00960187 9.4357 0.571325 7.43016 1.63683C5.42462 2.70234 3.70848 4.23964 2.42979 6.11612C1.15109 7.9926 0.348228 10.1519 0.0904636 12.4078C-0.152575 14.5348 0.0958619 16.6874 0.81444 18.7005C0.886627 18.9027 1.11252 19.0018 1.31272 18.924L5.73509 17.2064C5.93529 17.1286 6.03363 16.9036 5.96512 16.7001C5.5688 15.523 5.43559 14.2715 5.57695 13.0344C5.73304 11.6683 6.21922 10.3607 6.99355 9.22439C7.76788 8.08807 8.8071 7.15714 10.0216 6.51191C11.236 5.86668 12.5893 5.52653 13.9646 5.52079C15.3399 5.51505 16.696 5.84389 17.9158 6.47896C19.1356 7.11403 20.1826 8.03625 20.9663 9.16606C21.7501 10.2959 22.2472 11.5994 22.4147 12.9641C22.5664 14.2 22.4437 15.4525 22.0572 16.6329C21.9904 16.837 22.0906 17.0612 22.2914 17.1373L26.728 18.8179Z" fill="url(#paint0_linear_2532_1407)"/>
<path d="M26.728 18.8179C26.9288 18.894 27.1539 18.7931 27.2244 18.5902C27.9261 16.5713 28.1566 14.4166 27.8958 12.2917C27.6192 10.0381 26.7983 7.88555 25.504 6.01981C24.2097 4.15407 22.4807 2.63115 20.4664 1.58242C18.452 0.53369 16.2127 -0.00935784 13.9415 0.000122016C11.6704 0.00960187 9.4357 0.571325 7.43016 1.63683C5.42462 2.70234 3.70848 4.23964 2.42979 6.11612C1.15109 7.9926 0.348228 10.1519 0.0904636 12.4078C-0.152575 14.5348 0.0958619 16.6874 0.81444 18.7005C0.886627 18.9027 1.11252 19.0018 1.31272 18.924L5.73509 17.2064C5.93529 17.1286 6.03363 16.9036 5.96512 16.7001C5.5688 15.523 5.43559 14.2715 5.57695 13.0344C5.73304 11.6683 6.21922 10.3607 6.99355 9.22439C7.76788 8.08807 8.8071 7.15714 10.0216 6.51191C11.236 5.86668 12.5893 5.52653 13.9646 5.52079C15.3399 5.51505 16.696 5.84389 17.9158 6.47896C19.1356 7.11403 20.1826 8.03625 20.9663 9.16606C21.7501 10.2959 22.2472 11.5994 22.4147 12.9641C22.5664 14.2 22.4437 15.4525 22.0572 16.6329C21.9904 16.837 22.0906 17.0612 22.2914 17.1373L26.728 18.8179Z" fill="url(#paint1_linear_2532_1407)"/>
<path fill-rule="evenodd" clip-rule="evenodd" d="M1.79653 21.0185C1.68043 20.8188 1.77112 20.565 1.98465 20.4771L13.8025 15.6113C13.8973 15.5723 14.0037 15.5723 14.0986 15.6113L25.8477 20.4488C26.0609 20.5366 26.1517 20.7898 26.0362 20.9894C25.2615 22.3287 24.2712 23.5278 23.1128 24.5392C23.0035 24.6347 22.8494 24.6584 22.7152 24.6031L14.0986 21.0554C14.0037 21.0163 13.8973 21.0163 13.8025 21.0554L5.12801 24.6269C4.99418 24.682 4.84051 24.6586 4.73122 24.5637C3.56907 23.5545 2.57498 22.3569 1.79653 21.0185Z" fill="url(#paint2_linear_2532_1407)"/>
<path d="M37.197 12.0029C36.5437 12.0029 35.93 11.8886 35.356 11.6599C34.7867 11.4266 34.285 11.0859 33.851 10.6379C33.4217 10.1899 33.0857 9.64161 32.843 8.99291C32.6003 8.33961 32.479 7.59291 32.479 6.75291C32.479 5.65161 32.6843 4.71131 33.095 3.93193C33.5057 3.14793 34.068 2.54827 34.782 2.13293C35.496 1.71293 36.301 1.50293 37.197 1.50293C38.4383 1.50293 39.4207 1.79227 40.144 2.37093C40.872 2.94493 41.3643 3.75227 41.621 4.79291L39.899 5.06591C39.7077 4.46861 39.395 3.9926 38.961 3.63793C38.527 3.2786 37.974 3.09893 37.302 3.09893C36.6253 3.0896 36.063 3.2366 35.615 3.53993C35.167 3.84327 34.8287 4.27027 34.6 4.82091C34.376 5.37161 34.264 6.01561 34.264 6.75291C34.264 7.49031 34.376 8.13191 34.6 8.67791C34.824 9.21931 35.16 9.64161 35.608 9.94491C36.0607 10.2483 36.6253 10.4046 37.302 10.4139C37.8107 10.4186 38.2563 10.3276 38.639 10.1409C39.0217 9.94961 39.3343 9.66261 39.577 9.27991C39.8197 8.89261 39.983 8.40961 40.067 7.83091H38.289V6.50791H41.859C41.8683 6.58261 41.8753 6.69231 41.88 6.83691C41.8847 6.98161 41.887 7.06791 41.887 7.09591C41.887 8.04791 41.698 8.89491 41.32 9.63691C40.9467 10.3743 40.41 10.9529 39.71 11.3729C39.01 11.7929 38.1723 12.0029 37.197 12.0029ZM43.2929 11.7929V4.23293H44.7839V6.07391L44.6019 5.83591C44.6952 5.58391 44.8189 5.35531 44.9729 5.14991C45.1316 4.93991 45.3206 4.76731 45.5399 4.63191C45.7266 4.50591 45.9319 4.40793 46.1559 4.33793C46.3846 4.26327 46.6179 4.21893 46.8559 4.20493C47.0939 4.18627 47.3249 4.1956 47.5489 4.23293V5.80791C47.3249 5.74261 47.0659 5.72161 46.7719 5.74491C46.4826 5.76831 46.2212 5.84991 45.9879 5.98991C45.7546 6.11591 45.5632 6.27691 45.4139 6.47291C45.2692 6.66891 45.1619 6.89291 45.0919 7.14491C45.0219 7.39231 44.9869 7.66061 44.9869 7.94991V11.7929H43.2929ZM52.087 12.0029C51.331 12.0029 50.6707 11.8326 50.106 11.4919C49.5413 11.1513 49.1027 10.6823 48.79 10.0849C48.482 9.48291 48.328 8.79231 48.328 8.01291C48.328 7.21961 48.4867 6.52431 48.804 5.92691C49.1213 5.32961 49.5623 4.86291 50.127 4.52691C50.6917 4.19093 51.345 4.02293 52.087 4.02293C52.8477 4.02293 53.5103 4.19327 54.075 4.53391C54.6397 4.87461 55.0783 5.34591 55.391 5.94791C55.7037 6.54531 55.86 7.23361 55.86 8.01291C55.86 8.79691 55.7013 9.48991 55.384 10.0919C55.0713 10.6893 54.6327 11.1583 54.068 11.4989C53.5033 11.8349 52.843 12.0029 52.087 12.0029ZM52.087 10.4209C52.759 10.4209 53.2583 10.1969 53.585 9.74891C53.9117 9.30091 54.075 8.72231 54.075 8.01291C54.075 7.28031 53.9093 6.69691 53.578 6.26291C53.2467 5.82431 52.7497 5.60491 52.087 5.60491C51.6343 5.60491 51.261 5.70761 50.967 5.91291C50.6777 6.11361 50.463 6.39591 50.323 6.75991C50.183 7.11931 50.113 7.53691 50.113 8.01291C50.113 8.74561 50.2787 9.33131 50.61 9.76991C50.946 10.2039 51.4383 10.4209 52.087 10.4209ZM58.7388 11.7929L56.4288 4.21893L58.0808 4.23293L59.5578 9.08391L61.0558 4.23293H62.4768L63.9678 9.08391L65.4518 4.23293H67.1038L64.7938 11.7929H63.4778L61.7628 6.59191L60.0548 11.7929H58.7388ZM72.4271 12.0029C71.6245 12.0029 70.9175 11.8396 70.3061 11.5129C69.6995 11.1863 69.2235 10.7266 68.8781 10.1339C68.5375 9.54131 68.3671 8.84591 68.3671 8.04791V1.72693L70.0751 1.71293V8.00591C70.0751 8.38391 70.1381 8.72231 70.2641 9.02091C70.3948 9.31961 70.5698 9.57391 70.7891 9.78391C71.0085 9.98931 71.2605 10.1456 71.5451 10.2529C71.8298 10.3603 72.1238 10.4139 72.4271 10.4139C72.7398 10.4139 73.0361 10.3603 73.3161 10.2529C73.6008 10.1409 73.8528 9.98231 74.0721 9.77691C74.2915 9.56691 74.4641 9.31261 74.5901 9.01391C74.7161 8.71531 74.7791 8.37931 74.7791 8.00591V1.71293H76.4871V8.04791C76.4871 8.84591 76.3145 9.54131 75.9691 10.1339C75.6285 10.7266 75.1525 11.1863 74.5411 11.5129C73.9345 11.8396 73.2298 12.0029 72.4271 12.0029ZM82.0763 12.0029C81.339 12.0029 80.7206 11.8279 80.2213 11.4779C79.722 11.1279 79.3463 10.6519 79.0943 10.0499C78.8423 9.44331 78.7163 8.76431 78.7163 8.01291C78.7163 7.25231 78.8423 6.57091 79.0943 5.96891C79.3463 5.36691 79.715 4.89331 80.2003 4.54791C80.6903 4.19793 81.2946 4.02293 82.0133 4.02293C82.7273 4.02293 83.3456 4.19793 83.8683 4.54791C84.3956 4.89331 84.804 5.36691 85.0933 5.96891C85.3826 6.56631 85.5273 7.24761 85.5273 8.01291C85.5273 8.76891 85.385 9.44791 85.1003 10.0499C84.8156 10.6519 84.4143 11.1279 83.8963 11.4779C83.3783 11.8279 82.7716 12.0029 82.0763 12.0029ZM78.4293 15.1529V4.23293H79.9203V9.53891H80.1303V15.1529H78.4293ZM81.8173 10.4909C82.256 10.4909 82.6176 10.3813 82.9023 10.1619C83.187 9.94261 83.397 9.64631 83.5323 9.27291C83.6723 8.89491 83.7423 8.47491 83.7423 8.01291C83.7423 7.55561 83.6723 7.14031 83.5323 6.76691C83.3923 6.38891 83.1753 6.09031 82.8813 5.87091C82.5873 5.64691 82.214 5.53491 81.7613 5.53491C81.332 5.53491 80.982 5.63991 80.7113 5.84991C80.4406 6.05531 80.24 6.34461 80.1093 6.71791C79.9833 7.08661 79.9203 7.51831 79.9203 8.01291C79.9203 8.50291 79.9833 8.93461 80.1093 9.30791C80.24 9.68131 80.443 9.97291 80.7183 10.1829C80.9983 10.3883 81.3646 10.4909 81.8173 10.4909ZM90.013 11.7929V1.71293H91.7V10.2109H96.152V11.7929H90.013ZM97.3378 11.7929V1.71293H98.8568L102.343 8.85291L105.829 1.71293H107.348V11.7929H105.773V5.33191L102.679 11.7929H102.007L98.9198 5.33191V11.7929H97.3378ZM113.045 12.0029C112.308 12.0029 111.643 11.8746 111.05 11.6179C110.462 11.3613 109.977 10.9949 109.594 10.5189C109.216 10.0383 108.976 9.46891 108.873 8.81091L110.623 8.54491C110.773 9.14231 111.078 9.60431 111.54 9.93091C112.007 10.2576 112.544 10.4209 113.15 10.4209C113.51 10.4209 113.848 10.3649 114.165 10.2529C114.483 10.1409 114.739 9.97761 114.935 9.76291C115.136 9.54831 115.236 9.28461 115.236 8.97191C115.236 8.83191 115.213 8.70361 115.166 8.58691C115.12 8.46561 115.05 8.35831 114.956 8.26491C114.868 8.17161 114.751 8.08761 114.606 8.01291C114.466 7.93361 114.303 7.86591 114.116 7.80991L111.512 7.03991C111.288 6.97461 111.046 6.88831 110.784 6.78091C110.528 6.66891 110.283 6.51731 110.049 6.32591C109.821 6.12991 109.632 5.88261 109.482 5.58391C109.338 5.28061 109.265 4.90731 109.265 4.46393C109.265 3.81527 109.429 3.2716 109.755 2.83293C110.087 2.3896 110.53 2.05827 111.085 1.83893C111.645 1.6196 112.266 1.51227 112.947 1.51693C113.638 1.5216 114.254 1.6406 114.795 1.87393C115.337 2.1026 115.789 2.43627 116.153 2.87493C116.517 3.3136 116.774 3.84327 116.923 4.46393L115.11 4.77891C115.036 4.42427 114.891 4.12327 114.676 3.87593C114.466 3.62393 114.207 3.4326 113.899 3.30193C113.596 3.17127 113.272 3.10127 112.926 3.09193C112.59 3.08727 112.278 3.1386 111.988 3.24593C111.704 3.3486 111.473 3.49793 111.295 3.69393C111.123 3.88993 111.036 4.1186 111.036 4.37993C111.036 4.62731 111.111 4.83031 111.26 4.98891C111.41 5.14291 111.594 5.26661 111.813 5.35991C112.037 5.44861 112.264 5.52331 112.492 5.58391L114.298 6.08791C114.546 6.15331 114.823 6.24191 115.131 6.35391C115.439 6.46591 115.736 6.62231 116.02 6.82291C116.305 7.02361 116.538 7.28731 116.72 7.61391C116.907 7.94061 117 8.35591 117 8.85991C117 9.38261 116.891 9.84231 116.671 10.2389C116.457 10.6309 116.165 10.9576 115.796 11.2189C115.428 11.4803 115.005 11.6763 114.529 11.8069C114.058 11.9376 113.563 12.0029 113.045 12.0029Z" fill="#293253"/>
<path d="M100.178 22.1533V16.3351H102.309C102.722 16.3351 103.064 16.4033 103.335 16.5397C103.605 16.6742 103.808 16.8569 103.942 17.088C104.077 17.3171 104.144 17.5757 104.144 17.8635C104.144 18.106 104.1 18.3105 104.011 18.4772C103.922 18.642 103.802 18.7745 103.653 18.8749C103.505 18.9734 103.342 19.0454 103.164 19.0908V19.1476C103.357 19.1571 103.546 19.2196 103.729 19.3351C103.915 19.4488 104.068 19.6107 104.19 19.8209C104.311 20.0312 104.371 20.2868 104.371 20.588C104.371 20.8853 104.301 21.1524 104.161 21.3891C104.023 21.624 103.809 21.8105 103.519 21.9488C103.229 22.0851 102.859 22.1533 102.408 22.1533H100.178ZM101.056 21.4005H102.323C102.744 21.4005 103.045 21.319 103.227 21.1562C103.408 20.9933 103.499 20.7897 103.499 20.5454C103.499 20.3617 103.453 20.1931 103.36 20.0397C103.267 19.8863 103.135 19.7641 102.962 19.6732C102.792 19.5823 102.589 19.5368 102.354 19.5368H101.056V21.4005ZM101.056 18.8522H102.232C102.429 18.8522 102.606 18.8143 102.763 18.7385C102.923 18.6628 103.049 18.5567 103.141 18.4204C103.236 18.2821 103.283 18.1192 103.283 17.9317C103.283 17.6912 103.199 17.4895 103.031 17.3266C102.862 17.1637 102.603 17.0823 102.255 17.0823H101.056V18.8522ZM107.225 22.2414C106.795 22.2414 106.425 22.1495 106.114 21.9658C105.806 21.7802 105.567 21.5198 105.398 21.1846C105.232 20.8474 105.148 20.4526 105.148 19.9999C105.148 19.5529 105.232 19.159 105.398 18.8181C105.567 18.4772 105.802 18.2111 106.103 18.0198C106.406 17.8285 106.76 17.7329 107.165 17.7329C107.412 17.7329 107.65 17.7736 107.881 17.855C108.112 17.9365 108.32 18.0643 108.504 18.2385C108.687 18.4128 108.832 18.6391 108.938 18.9175C109.044 19.194 109.097 19.5302 109.097 19.926V20.2272H105.629V19.5908H108.265C108.265 19.3673 108.219 19.1694 108.129 18.9971C108.038 18.8228 107.91 18.6855 107.745 18.5851C107.582 18.4848 107.391 18.4346 107.171 18.4346C106.933 18.4346 106.724 18.4933 106.546 18.6107C106.37 18.7262 106.234 18.8778 106.137 19.0653C106.042 19.2509 105.995 19.4526 105.995 19.6704V20.1675C105.995 20.4592 106.046 20.7073 106.148 20.9118C106.253 21.1164 106.397 21.2726 106.583 21.3806C106.769 21.4867 106.986 21.5397 107.234 21.5397C107.395 21.5397 107.541 21.517 107.674 21.4715C107.807 21.4242 107.921 21.3541 108.018 21.2613C108.114 21.1685 108.188 21.0539 108.239 20.9175L109.043 21.0624C108.979 21.2992 108.863 21.5065 108.697 21.6846C108.532 21.8607 108.325 21.998 108.075 22.0965C107.826 22.1931 107.543 22.2414 107.225 22.2414ZM112.077 17.7897V18.4715H109.693V17.7897H112.077ZM110.332 16.7442H111.182V20.8721C111.182 21.0368 111.206 21.1609 111.256 21.2442C111.305 21.3257 111.368 21.3815 111.446 21.4118C111.526 21.4403 111.612 21.4545 111.705 21.4545C111.773 21.4545 111.832 21.4497 111.884 21.4403C111.935 21.4308 111.974 21.4232 112.003 21.4175L112.156 22.1192C112.107 22.1382 112.037 22.1571 111.946 22.176C111.855 22.1969 111.741 22.2082 111.605 22.2101C111.382 22.2139 111.173 22.1742 110.98 22.0908C110.787 22.0075 110.631 21.8787 110.511 21.7045C110.392 21.5302 110.332 21.3115 110.332 21.0482V16.7442ZM114.286 22.2499C114.01 22.2499 113.76 22.1988 113.536 22.0965C113.313 21.9923 113.136 21.8418 113.005 21.6448C112.876 21.4478 112.812 21.2064 112.812 20.9204C112.812 20.6742 112.859 20.4715 112.954 20.3124C113.049 20.1533 113.176 20.0274 113.337 19.9346C113.498 19.8418 113.678 19.7717 113.877 19.7243C114.076 19.677 114.279 19.641 114.485 19.6164C114.746 19.5861 114.959 19.5615 115.121 19.5425C115.284 19.5217 115.403 19.4885 115.477 19.4431C115.55 19.3976 115.587 19.3238 115.587 19.2215V19.2016C115.587 18.9535 115.517 18.7613 115.377 18.6249C115.239 18.4885 115.032 18.4204 114.758 18.4204C114.472 18.4204 114.246 18.4838 114.082 18.6107C113.919 18.7357 113.806 18.8749 113.744 19.0283L112.945 18.8465C113.04 18.5814 113.178 18.3673 113.36 18.2045C113.544 18.0397 113.755 17.9204 113.994 17.8465C114.232 17.7707 114.483 17.7329 114.746 17.7329C114.921 17.7329 115.105 17.7537 115.3 17.7954C115.497 17.8351 115.681 17.909 115.852 18.017C116.024 18.1249 116.165 18.2793 116.275 18.48C116.385 18.6789 116.44 18.9374 116.44 19.2556V22.1533H115.61V21.5567H115.576C115.521 21.6666 115.439 21.7745 115.329 21.8806C115.219 21.9867 115.078 22.0747 114.906 22.1448C114.733 22.2149 114.527 22.2499 114.286 22.2499ZM114.471 21.5681C114.706 21.5681 114.906 21.5217 115.073 21.4289C115.242 21.3361 115.37 21.2149 115.457 21.0653C115.546 20.9137 115.59 20.7518 115.59 20.5795V20.017C115.56 20.0473 115.501 20.0757 115.414 20.1022C115.329 20.1268 115.231 20.1486 115.121 20.1675C115.012 20.1846 114.905 20.2007 114.8 20.2158C114.696 20.2291 114.609 20.2404 114.539 20.2499C114.374 20.2707 114.224 20.3058 114.087 20.355C113.953 20.4043 113.845 20.4753 113.763 20.5681C113.684 20.659 113.644 20.7802 113.644 20.9317C113.644 21.142 113.722 21.301 113.877 21.409C114.032 21.5151 114.23 21.5681 114.471 21.5681Z" fill="#293253"/>
</g>
<defs>
<linearGradient id="paint0_linear_2532_1407" x1="28.4375" y1="14.996" x2="2.07939" y2="11.4632" gradientUnits="userSpaceOnUse">
<stop stop-color="#0A7EFB"/>
<stop offset="0.679244" stop-color="#8A5FEE"/>
<stop offset="1" stop-color="#E05EC8"/>
</linearGradient>
<linearGradient id="paint1_linear_2532_1407" x1="0.4375" y1="19.4949" x2="32.2979" y2="7.62333" gradientUnits="userSpaceOnUse">
<stop stop-color="#0B8BFB"/>
<stop offset="0.56009" stop-color="#FF5496"/>
<stop offset="1" stop-color="#FFBB33"/>
</linearGradient>
<linearGradient id="paint2_linear_2532_1407" x1="3.88594" y1="24.999" x2="35.3829" y2="18.0024" gradientUnits="userSpaceOnUse">
<stop stop-color="#0B8BFB"/>
<stop offset="0.530839" stop-color="#FF5496"/>
<stop offset="1" stop-color="#FFBB33"/>
</linearGradient>
<clipPath id="clip0_2532_1407">
<rect width="118" height="25" fill="white"/>
</clipPath>
</defs>
</svg>
