<svg width="145" height="32" viewBox="0 0 145 32" fill="none" xmlns="http://www.w3.org/2000/svg">
<path d="M32.5534 23.7245C32.7978 23.8171 33.0716 23.6942 33.1574 23.4474C34.0113 20.9908 34.2917 18.3691 33.9744 15.7835C33.6378 13.0413 32.639 10.4221 31.0641 8.15195C29.4892 5.88175 27.3854 4.02868 24.9344 2.75261C22.4833 1.47653 19.7585 0.815762 16.9951 0.827297C14.2316 0.838832 11.5124 1.52233 9.07214 2.81882C6.63184 4.11531 4.54367 5.98587 2.98777 8.26914C1.43187 10.5524 0.454968 13.1798 0.141325 15.9247C-0.154401 18.5128 0.147893 21.1321 1.02225 23.5816C1.11008 23.8276 1.38494 23.9482 1.62854 23.8536L7.00961 21.7636C7.25321 21.669 7.37287 21.3951 7.2895 21.1475C6.80726 19.7152 6.64518 18.1925 6.81719 16.6871C7.00712 15.0249 7.59869 13.4339 8.54088 12.0512C9.48307 10.6686 10.7476 9.53583 12.2253 8.75073C13.7031 7.96563 15.3497 7.55173 17.0231 7.54475C18.6966 7.53776 20.3466 7.9379 21.8309 8.71064C23.3151 9.48338 24.589 10.6055 25.5427 11.9803C26.4964 13.355 27.1013 14.9411 27.3051 16.6016C27.4897 18.1055 27.3403 19.6295 26.87 21.0658C26.7888 21.3141 26.9107 21.5869 27.1551 21.6795L32.5534 23.7245Z" fill="url(#paint0_linear_3131_1515)"/>
<path d="M32.5534 23.7245C32.7978 23.8171 33.0716 23.6942 33.1574 23.4474C34.0113 20.9908 34.2917 18.3691 33.9744 15.7835C33.6378 13.0413 32.639 10.4221 31.0641 8.15195C29.4892 5.88175 27.3854 4.02868 24.9344 2.75261C22.4833 1.47653 19.7585 0.815762 16.9951 0.827297C14.2316 0.838832 11.5124 1.52233 9.07214 2.81882C6.63184 4.11531 4.54367 5.98587 2.98777 8.26914C1.43187 10.5524 0.454968 13.1798 0.141325 15.9247C-0.154401 18.5128 0.147893 21.1321 1.02225 23.5816C1.11008 23.8276 1.38494 23.9482 1.62854 23.8536L7.00961 21.7636C7.25321 21.669 7.37287 21.3951 7.2895 21.1475C6.80726 19.7152 6.64518 18.1925 6.81719 16.6871C7.00712 15.0249 7.59869 13.4339 8.54088 12.0512C9.48307 10.6686 10.7476 9.53583 12.2253 8.75073C13.7031 7.96563 15.3497 7.55173 17.0231 7.54475C18.6966 7.53776 20.3466 7.9379 21.8309 8.71064C23.3151 9.48338 24.589 10.6055 25.5427 11.9803C26.4964 13.355 27.1013 14.9411 27.3051 16.6016C27.4897 18.1055 27.3403 19.6295 26.87 21.0658C26.7888 21.3141 26.9107 21.5869 27.1551 21.6795L32.5534 23.7245Z" fill="url(#paint1_linear_3131_1515)"/>
<path fill-rule="evenodd" clip-rule="evenodd" d="M2.2104 26.4011C2.06913 26.1582 2.17948 25.8494 2.4393 25.7424L16.819 19.8218C16.9344 19.7743 17.0639 19.7743 17.1793 19.8218L31.4754 25.708C31.7348 25.8148 31.8453 26.1229 31.7049 26.3657C30.7622 27.9954 29.5572 29.4544 28.1476 30.6851C28.0146 30.8012 27.8272 30.8301 27.6639 30.7628L17.1793 26.446C17.0639 26.3985 16.9344 26.3985 16.819 26.446L6.26409 30.7918C6.10124 30.8588 5.91426 30.8303 5.78129 30.7148C4.3672 29.4868 3.15761 28.0296 2.2104 26.4011Z" fill="url(#paint2_linear_3131_1515)"/>
<path d="M45.3534 15.5827C44.5584 15.5827 43.8117 15.4436 43.1133 15.1653C42.4205 14.8814 41.8101 14.4669 41.282 13.9218C40.7596 13.3766 40.3508 12.7094 40.0555 11.9202C39.7602 11.1252 39.6126 10.2167 39.6126 9.19456C39.6126 7.85448 39.8625 6.7103 40.3621 5.76202C40.8618 4.80806 41.5461 4.0784 42.4149 3.57303C43.2836 3.06198 44.2632 2.80645 45.3534 2.80645C46.8638 2.80645 48.0591 3.15851 48.9393 3.86262C49.8251 4.56105 50.4241 5.5434 50.7364 6.80967L48.6411 7.14185C48.4083 6.41502 48.0279 5.83584 47.4998 5.40428C46.9717 4.96705 46.2988 4.74844 45.4812 4.74844C44.6578 4.73708 43.9736 4.91595 43.4284 5.28504C42.8833 5.65413 42.4716 6.1737 42.1934 6.84374C41.9208 7.51378 41.7846 8.29739 41.7846 9.19456C41.7846 10.0917 41.9208 10.8725 42.1934 11.5369C42.466 12.1956 42.8748 12.7094 43.4199 13.0785C43.9707 13.4476 44.6578 13.6378 45.4812 13.6492C46.1001 13.6549 46.6424 13.5442 47.108 13.317C47.5736 13.0842 47.9541 12.735 48.2493 12.2694C48.5446 11.7981 48.7434 11.2104 48.8456 10.5063H46.6821V8.89645H51.026C51.0374 8.9873 51.0459 9.12074 51.0516 9.29677C51.0573 9.4728 51.0601 9.57785 51.0601 9.61192C51.0601 10.7703 50.8301 11.8009 50.3702 12.7038C49.9159 13.6009 49.2629 14.3051 48.4112 14.8161C47.5594 15.3271 46.5402 15.5827 45.3534 15.5827ZM52.7708 15.3271V6.12827H54.585V8.36837L54.3636 8.07877C54.4771 7.77214 54.6276 7.49391 54.815 7.24406C55.008 6.98854 55.238 6.77844 55.5049 6.61377C55.732 6.46045 55.9819 6.34121 56.2544 6.25603C56.5327 6.16518 56.8166 6.11123 57.1062 6.0942C57.3958 6.07149 57.6769 6.08284 57.9494 6.12827V8.0447C57.6769 7.96521 57.3617 7.93965 57.004 7.96805C56.6519 7.99644 56.3339 8.09581 56.05 8.26616C55.7661 8.41947 55.5333 8.61537 55.3516 8.85386C55.1756 9.09235 55.045 9.36491 54.9598 9.67154C54.8746 9.97249 54.832 10.299 54.832 10.6511V15.3271H52.7708ZM63.4713 15.5827C62.5514 15.5827 61.7479 15.3754 61.0608 14.9609C60.3737 14.5464 59.84 13.9757 59.4595 13.2489C59.0848 12.5164 58.8974 11.676 58.8974 10.7277C58.8974 9.76239 59.0904 8.91632 59.4766 8.1895C59.8627 7.46268 60.3993 6.89484 61.0864 6.486C61.7735 6.07716 62.5684 5.87275 63.4713 5.87275C64.3968 5.87275 65.2032 6.08 65.8902 6.49452C66.5773 6.90904 67.1111 7.48255 67.4915 8.21505C67.872 8.94188 68.0622 9.77943 68.0622 10.7277C68.0622 11.6817 67.8691 12.5249 67.483 13.2574C67.1026 13.9842 66.5688 14.5549 65.8817 14.9694C65.1946 15.3783 64.3912 15.5827 63.4713 15.5827ZM63.4713 13.6577C64.2889 13.6577 64.8965 13.3852 65.294 12.84C65.6915 12.2949 65.8902 11.5908 65.8902 10.7277C65.8902 9.83621 65.6887 9.12642 65.2855 8.59834C64.8823 8.06458 64.2776 7.7977 63.4713 7.7977C62.9205 7.7977 62.4662 7.92262 62.1085 8.17247C61.7564 8.41663 61.4952 8.76017 61.3249 9.20308C61.1545 9.64031 61.0693 10.1485 61.0693 10.7277C61.0693 11.6192 61.2709 12.3318 61.6741 12.8656C62.0829 13.3937 62.682 13.6577 63.4713 13.6577ZM71.5651 15.3271L68.7544 6.11124L70.7645 6.12827L72.5617 12.0309L74.3844 6.12827H76.1135L77.9277 12.0309L79.7334 6.12827H81.7435L78.9328 15.3271H77.3315L75.2447 8.99866L73.1664 15.3271H71.5651ZM88.2208 15.5827C87.2441 15.5827 86.3839 15.3839 85.64 14.9864C84.9018 14.589 84.3226 14.0297 83.9024 13.3085C83.4879 12.5874 83.2807 11.7413 83.2807 10.7703V3.07901L85.3589 3.06198V10.7192C85.3589 11.1791 85.4356 11.5908 85.5889 11.9542C85.7479 12.3176 85.9608 12.6271 86.2277 12.8826C86.4946 13.1325 86.8012 13.3227 87.1476 13.4533C87.494 13.5839 87.8517 13.6492 88.2208 13.6492C88.6013 13.6492 88.9618 13.5839 89.3025 13.4533C89.6489 13.317 89.9555 13.124 90.2224 12.8741C90.4893 12.6186 90.6994 12.3091 90.8527 11.9457C91.006 11.5823 91.0827 11.1735 91.0827 10.7192V3.06198H93.1609V10.7703C93.1609 11.7413 92.9508 12.5874 92.5306 13.3085C92.1161 14.0297 91.5369 14.589 90.7931 14.9864C90.0549 15.3839 89.1975 15.5827 88.2208 15.5827ZM99.9618 15.5827C99.0646 15.5827 98.3122 15.3697 97.7046 14.9439C97.097 14.518 96.6399 13.9388 96.3333 13.2063C96.0267 12.4681 95.8734 11.6419 95.8734 10.7277C95.8734 9.80214 96.0267 8.97311 96.3333 8.24061C96.6399 7.5081 97.0885 6.93175 97.6791 6.51156C98.2753 6.08568 99.0106 5.87275 99.8851 5.87275C100.754 5.87275 101.506 6.08568 102.142 6.51156C102.784 6.93175 103.281 7.5081 103.633 8.24061C103.985 8.96743 104.161 9.79646 104.161 10.7277C104.161 11.6476 103.988 12.4738 103.641 13.2063C103.295 13.9388 102.807 14.518 102.176 14.9439C101.546 15.3697 100.808 15.5827 99.9618 15.5827ZM95.5241 19.4155V6.12827H97.3384V12.5845H97.5939V19.4155H95.5241ZM99.6466 13.7429C100.18 13.7429 100.62 13.6095 100.967 13.3426C101.313 13.0757 101.569 12.7151 101.733 12.2609C101.904 11.8009 101.989 11.2899 101.989 10.7277C101.989 10.1712 101.904 9.66586 101.733 9.2116C101.563 8.75165 101.299 8.38824 100.941 8.12136C100.584 7.8488 100.129 7.71252 99.5785 7.71252C99.0561 7.71252 98.6302 7.84028 98.3008 8.09581C97.9715 8.34565 97.7273 8.69771 97.5683 9.15198C97.415 9.60056 97.3384 10.1258 97.3384 10.7277C97.3384 11.3239 97.415 11.8492 97.5683 12.3034C97.7273 12.7577 97.9743 13.1126 98.3094 13.3681C98.6501 13.618 99.0958 13.7429 99.6466 13.7429ZM109.619 15.3271V3.06198H111.672V13.4022H117.089V15.3271H109.619ZM118.532 15.3271V3.06198H120.38L124.622 11.7498L128.863 3.06198H130.712V15.3271H128.795V7.46551L125.031 15.3271H124.213L120.457 7.46551V15.3271H118.532ZM137.644 15.5827C136.747 15.5827 135.938 15.4265 135.217 15.1142C134.501 14.8019 133.911 14.3562 133.445 13.777C132.985 13.1921 132.693 12.4993 132.568 11.6987L134.697 11.375C134.879 12.1019 135.251 12.664 135.813 13.0615C136.381 13.459 137.034 13.6577 137.772 13.6577C138.209 13.6577 138.621 13.5896 139.007 13.4533C139.393 13.317 139.706 13.1183 139.944 12.8571C140.188 12.5959 140.31 12.2751 140.31 11.8946C140.31 11.7243 140.282 11.5681 140.225 11.4261C140.168 11.2785 140.083 11.1479 139.97 11.0343C139.862 10.9208 139.72 10.8186 139.544 10.7277C139.373 10.6312 139.175 10.5488 138.948 10.4807L135.779 9.54378C135.507 9.46428 135.211 9.35923 134.893 9.22863C134.581 9.09235 134.283 8.90781 133.999 8.675C133.721 8.43651 133.491 8.13556 133.309 7.77214C133.133 7.40305 133.045 6.94879 133.045 6.40935C133.045 5.62006 133.244 4.95854 133.641 4.42477C134.044 3.88533 134.584 3.48217 135.26 3.21529C135.941 2.94841 136.696 2.81781 137.525 2.82349C138.366 2.82917 139.115 2.97396 139.774 3.25788C140.432 3.53612 140.983 3.94212 141.426 4.47588C141.869 5.00964 142.181 5.65413 142.363 6.40935L140.157 6.79263C140.066 6.36108 139.89 5.99483 139.629 5.69388C139.373 5.38725 139.058 5.15444 138.684 4.99544C138.314 4.83645 137.92 4.75128 137.5 4.73992C137.091 4.73424 136.71 4.7967 136.358 4.9273C136.012 5.05223 135.731 5.23393 135.515 5.47242C135.305 5.71091 135.2 5.98915 135.2 6.30714C135.2 6.60809 135.291 6.85509 135.472 7.04816C135.654 7.23554 135.878 7.38602 136.145 7.49958C136.418 7.60747 136.693 7.69833 136.972 7.77214L139.169 8.3854C139.47 8.4649 139.808 8.57279 140.183 8.70907C140.557 8.84535 140.918 9.03557 141.264 9.27974C141.611 9.52391 141.895 9.84473 142.116 10.2422C142.343 10.6397 142.457 11.1451 142.457 11.7583C142.457 12.3943 142.323 12.9536 142.056 13.4363C141.795 13.9132 141.44 14.3107 140.992 14.6287C140.543 14.9467 140.029 15.1852 139.45 15.3442C138.877 15.5032 138.275 15.5827 137.644 15.5827Z" fill="#293253"/>
<path d="M113.082 29.3271V19.2471H117.079C117.76 19.2471 118.318 19.3848 118.752 19.6601C119.19 19.9308 119.515 20.2785 119.725 20.7031C119.939 21.1278 120.047 21.5665 120.047 22.0191C120.047 22.5745 119.914 23.0458 119.648 23.4331C119.386 23.8205 119.029 24.0818 118.577 24.2171V23.8671C119.211 24.0118 119.692 24.3128 120.019 24.7701C120.35 25.2275 120.516 25.7478 120.516 26.3311C120.516 26.9285 120.401 27.4511 120.173 27.8991C119.944 28.3471 119.603 28.6971 119.151 28.9491C118.703 29.2011 118.147 29.3271 117.485 29.3271H113.082ZM114.79 27.7381H117.275C117.569 27.7381 117.832 27.6798 118.066 27.5631C118.299 27.4418 118.481 27.2738 118.612 27.0591C118.747 26.8398 118.815 26.5808 118.815 26.2821C118.815 26.0115 118.756 25.7688 118.64 25.5541C118.523 25.3395 118.353 25.1691 118.129 25.0431C117.905 24.9125 117.636 24.8471 117.324 24.8471H114.79V27.7381ZM114.79 23.2721H117.058C117.3 23.2721 117.517 23.2255 117.709 23.1321C117.9 23.0388 118.052 22.9011 118.164 22.7191C118.276 22.5371 118.332 22.3131 118.332 22.0471C118.332 21.6971 118.22 21.4055 117.996 21.1721C117.772 20.9388 117.459 20.8221 117.058 20.8221H114.79V23.2721ZM125.351 29.5371C124.585 29.5371 123.913 29.3715 123.335 29.0401C122.756 28.7088 122.303 28.2491 121.977 27.6611C121.655 27.0731 121.494 26.3965 121.494 25.6311C121.494 24.8051 121.652 24.0888 121.97 23.4821C122.287 22.8708 122.728 22.3971 123.293 22.0611C123.857 21.7251 124.511 21.5571 125.253 21.5571C126.037 21.5571 126.702 21.7415 127.248 22.1101C127.798 22.4741 128.207 22.9898 128.473 23.6571C128.739 24.3245 128.839 25.1108 128.774 26.0161H127.101V25.4001C127.096 24.5788 126.951 23.9791 126.667 23.6011C126.382 23.2231 125.934 23.0341 125.323 23.0341C124.632 23.0341 124.119 23.2488 123.783 23.6781C123.447 24.1028 123.279 24.7258 123.279 25.5471C123.279 26.3125 123.447 26.9051 123.783 27.3251C124.119 27.7451 124.609 27.9551 125.253 27.9551C125.668 27.9551 126.025 27.8641 126.324 27.6821C126.627 27.4955 126.86 27.2271 127.024 26.8771L128.69 27.3811C128.4 28.0625 127.952 28.5921 127.346 28.9701C126.744 29.3481 126.079 29.5371 125.351 29.5371ZM122.747 26.0161V24.7421H127.948V26.0161H122.747ZM134.766 29.3271C134.267 29.4205 133.777 29.4601 133.296 29.4461C132.82 29.4368 132.393 29.3505 132.015 29.1871C131.637 29.0191 131.35 28.7555 131.154 28.3961C130.982 28.0695 130.891 27.7358 130.881 27.3951C130.872 27.0545 130.867 26.6695 130.867 26.2401V19.6671H132.547V26.1421C132.547 26.4455 132.55 26.7115 132.554 26.9401C132.564 27.1688 132.613 27.3555 132.701 27.5001C132.869 27.7801 133.138 27.9365 133.506 27.9691C133.875 28.0018 134.295 27.9831 134.766 27.9131V29.3271ZM129.495 23.0901V21.7671H134.766V23.0901H129.495ZM138.506 29.5371C137.96 29.5371 137.498 29.4345 137.12 29.2291C136.742 29.0191 136.455 28.7415 136.259 28.3961C136.068 28.0508 135.972 27.6705 135.972 27.2551C135.972 26.8911 136.033 26.5645 136.154 26.2751C136.275 25.9811 136.462 25.7291 136.714 25.5191C136.966 25.3045 137.293 25.1295 137.694 24.9941C137.997 24.8961 138.352 24.8075 138.758 24.7281C139.169 24.6488 139.612 24.5765 140.088 24.5111C140.569 24.4411 141.07 24.3665 141.593 24.2871L140.991 24.6301C140.996 24.1075 140.879 23.7225 140.641 23.4751C140.403 23.2278 140.002 23.1041 139.437 23.1041C139.096 23.1041 138.767 23.1835 138.45 23.3421C138.133 23.5008 137.911 23.7738 137.785 24.1611L136.245 23.6781C136.432 23.0388 136.786 22.5255 137.309 22.1381C137.836 21.7508 138.546 21.5571 139.437 21.5571C140.109 21.5571 140.699 21.6668 141.208 21.8861C141.721 22.1055 142.102 22.4648 142.349 22.9641C142.484 23.2301 142.566 23.5031 142.594 23.7831C142.622 24.0585 142.636 24.3595 142.636 24.6861V29.3271H141.159V27.6891L141.404 27.9551C141.063 28.5011 140.664 28.9025 140.207 29.1591C139.754 29.4111 139.187 29.5371 138.506 29.5371ZM138.842 28.1931C139.225 28.1931 139.551 28.1255 139.822 27.9901C140.093 27.8548 140.307 27.6891 140.466 27.4931C140.629 27.2971 140.739 27.1128 140.795 26.9401C140.884 26.7255 140.933 26.4805 140.942 26.2051C140.956 25.9251 140.963 25.6988 140.963 25.5261L141.481 25.6801C140.972 25.7595 140.536 25.8295 140.172 25.8901C139.808 25.9508 139.495 26.0091 139.234 26.0651C138.973 26.1165 138.742 26.1748 138.541 26.2401C138.345 26.3101 138.179 26.3918 138.044 26.4851C137.909 26.5785 137.804 26.6858 137.729 26.8071C137.659 26.9285 137.624 27.0708 137.624 27.2341C137.624 27.4208 137.671 27.5865 137.764 27.7311C137.857 27.8711 137.993 27.9831 138.17 28.0671C138.352 28.1511 138.576 28.1931 138.842 28.1931Z" fill="#293253"/>
<defs>
<linearGradient id="paint0_linear_3131_1515" x1="34.6335" y1="19.0741" x2="2.56141" y2="14.7754" gradientUnits="userSpaceOnUse">
<stop stop-color="#0A7EFB"/>
<stop offset="0.679244" stop-color="#8A5FEE"/>
<stop offset="1" stop-color="#E05EC8"/>
</linearGradient>
<linearGradient id="paint1_linear_3131_1515" x1="0.563592" y1="24.5481" x2="39.3308" y2="10.1031" gradientUnits="userSpaceOnUse">
<stop stop-color="#0B8BFB"/>
<stop offset="0.56009" stop-color="#FF5496"/>
<stop offset="1" stop-color="#FFBB33"/>
</linearGradient>
<linearGradient id="paint2_linear_3131_1515" x1="4.75279" y1="31.2446" x2="43.078" y2="22.7312" gradientUnits="userSpaceOnUse">
<stop stop-color="#0B8BFB"/>
<stop offset="0.530839" stop-color="#FF5496"/>
<stop offset="1" stop-color="#FFBB33"/>
</linearGradient>
</defs>
</svg>
