<svg width="61" height="60" viewBox="0 0 61 60" fill="none" xmlns="http://www.w3.org/2000/svg">
<path d="M19.0625 16.875H59.0938V54.375H19.0625V16.875Z" fill="#E2E7F6"/>
<path d="M53.375 50.4197C53.8806 50.4197 54.3654 50.2221 54.7229 49.8705C55.0804 49.5189 55.2812 49.042 55.2812 48.5447V16.875H19.0625V50.4197H53.375Z" fill="#EFF2F9"/>
<path d="M19.0625 16.875V1.875H49.5625L59.0938 11.25V16.875H19.0625Z" fill="#D23F34"/>
<path d="M55.1202 12.1941V7.34156L49.5625 1.875H19.0625V14.0691H53.2139C53.7195 14.0691 54.2044 13.8715 54.5618 13.5199C54.9193 13.1683 55.1202 12.6913 55.1202 12.1941Z" fill="#E24F4B"/>
<path d="M31.1863 54.3752L11.875 58.1252L1.90625 8.4593L19.0625 5.25586V54.3752H31.1863Z" fill="#A72B25"/>
<path d="M49.5625 1.875V11.25H59.0938" fill="#A72B25"/>
<path d="M27.6406 4.6875H24.7812C24.5285 4.6875 24.286 4.78627 24.1073 4.96209C23.9285 5.1379 23.8281 5.37636 23.8281 5.625V14.0625H25.7344V10.3125H27.6406C28.399 10.3125 29.1263 10.0162 29.6625 9.48874C30.1987 8.96129 30.5 8.24592 30.5 7.5C30.5 6.75408 30.1987 6.03871 29.6625 5.51126C29.1263 4.98382 28.399 4.6875 27.6406 4.6875ZM27.6406 8.4375H25.7344V6.5625H27.6406C27.8934 6.5625 28.1358 6.66127 28.3146 6.83709C28.4933 7.0129 28.5938 7.25136 28.5938 7.5C28.5938 7.74864 28.4933 7.9871 28.3146 8.16291C28.1358 8.33873 27.8934 8.4375 27.6406 8.4375Z" fill="#EFF2F9"/>
<path d="M35.2656 4.6875H32.4062C32.1535 4.6875 31.911 4.78627 31.7323 4.96209C31.5535 5.1379 31.4531 5.37636 31.4531 5.625V13.125C31.4531 13.3736 31.5535 13.6121 31.7323 13.7879C31.911 13.9637 32.1535 14.0625 32.4062 14.0625H35.2656C36.024 14.0625 36.7513 13.7662 37.2875 13.2387C37.8237 12.7113 38.125 11.9959 38.125 11.25V7.5C38.125 6.75408 37.8237 6.03871 37.2875 5.51126C36.7513 4.98382 36.024 4.6875 35.2656 4.6875ZM36.2188 11.25C36.2188 11.4986 36.1183 11.7371 35.9396 11.9129C35.7608 12.0887 35.5184 12.1875 35.2656 12.1875H33.3594V6.5625H35.2656C35.5184 6.5625 35.7608 6.66127 35.9396 6.83709C36.1183 7.0129 36.2188 7.25136 36.2188 7.5V11.25Z" fill="#EFF2F9"/>
<path d="M44.7969 6.5625V4.6875H40.0312C39.7785 4.6875 39.536 4.78627 39.3573 4.96209C39.1785 5.1379 39.0781 5.37636 39.0781 5.625V14.0625H40.9844V10.3125H44.7969V8.4375H40.9844V6.5625H44.7969Z" fill="#EFF2F9"/>
<path d="M50.5156 35.625V21.5625H27.6406V30.9375H36.2188L40.9844 35.625H50.5156Z" fill="#F29B99"/>
<path d="M53.375 37.5V47.8125C53.375 48.3098 53.1742 48.7867 52.8167 49.1383C52.4592 49.49 51.9743 49.6875 51.4688 49.6875H26.6875C26.1819 49.6875 25.6971 49.49 25.3396 49.1383C24.9821 48.7867 24.7812 48.3098 24.7812 47.8125V32.8125C24.7812 32.3152 24.9821 31.8383 25.3396 31.4867C25.6971 31.135 26.1819 30.9375 26.6875 30.9375H36.2188L40.9844 35.625H51.4688C51.9743 35.625 52.4592 35.8225 52.8167 36.1742C53.1742 36.5258 53.375 37.0027 53.375 37.5Z" fill="#A72B25"/>
<path d="M30.5 24.375H47.6562V26.25H30.5V24.375Z" fill="#F8CED7"/>
<path d="M30.5 27.1875H47.6562V29.0625H30.5V27.1875Z" fill="#F8CED7"/>
<path d="M50.5156 44.0625V35.625H40.9844L36.2188 30.9375H26.6875C26.1819 30.9375 25.6971 31.135 25.3396 31.4867C24.9821 31.8383 24.7812 32.3152 24.7812 32.8125V45.9375H48.6094C49.1149 45.9375 49.5998 45.74 49.9573 45.3883C50.3148 45.0367 50.5156 44.5598 50.5156 44.0625Z" fill="#D23F34"/>
</svg>
