<svg width="60" height="60" viewBox="0 0 60 60" fill="none" xmlns="http://www.w3.org/2000/svg">
<g clip-path="url(#clip0_2935_3431)">
<path d="M0 13.4069V53.3187C0 54.6522 1.08105 55.7332 2.41453 55.7332H57.5856C58.9191 55.7332 60.0001 54.6523 60.0001 53.3187V13.4069L27.9139 10.4016L0 13.4069Z" fill="#EDFBFF"/>
<path d="M55.1711 12.8159V48.7308C55.1711 50.0643 54.09 51.1454 52.7565 51.1454H0V53.3184C0 54.6519 1.08105 55.7329 2.41453 55.7329H57.5856C58.9191 55.7329 60.0001 54.652 60.0001 53.3184V13.4065L55.1711 12.8159Z" fill="#D6F6FD"/>
<path d="M60 13.4067V7.89072C60 5.89045 58.3785 4.26904 56.3783 4.26904H3.62168C1.62152 4.26893 0 5.89045 0 7.89072V13.4067H60Z" fill="#62DBFB"/>
<path d="M56.3758 4.2688H51.5469C53.5471 4.2688 55.1686 5.89032 55.1686 7.89048V13.4065H59.9975V7.89048C59.9975 5.89032 58.376 4.2688 56.3758 4.2688Z" fill="#01D0FB"/>
<path d="M44.3045 9.74267H43.2101C42.71 9.74267 42.3047 9.33731 42.3047 8.83728C42.3047 8.33724 42.71 7.93188 43.2101 7.93188H44.3045C44.8045 7.93188 45.2099 8.33724 45.2099 8.83728C45.2099 9.33731 44.8045 9.74267 44.3045 9.74267Z" fill="white"/>
<path d="M49.117 9.74267H48.0226C47.5225 9.74267 47.1172 9.33731 47.1172 8.83728C47.1172 8.33724 47.5225 7.93188 48.0226 7.93188H49.117C49.617 7.93188 50.0224 8.33724 50.0224 8.83728C50.0224 9.33731 49.617 9.74267 49.117 9.74267Z" fill="white"/>
<path d="M53.9372 9.74267H52.8429C52.3428 9.74267 51.9375 9.33731 51.9375 8.83728C51.9375 8.33724 52.3428 7.93188 52.8429 7.93188H53.9372C54.4372 7.93188 54.8426 8.33724 54.8426 8.83728C54.8427 9.33731 54.4373 9.74267 53.9372 9.74267Z" fill="white"/>
<path d="M50.5816 49.3952H9.41453C8.08105 49.3952 7 48.3141 7 46.9806V45.0336L8.20727 42.9843L7 40.935V21.3562C7 20.0227 8.08105 18.9417 9.41453 18.9417H50.5816C51.915 18.9417 52.9961 20.0227 52.9961 21.3562V40.935L51.7888 42.9843L52.9961 45.0336V46.9806C52.996 48.3141 51.915 49.3952 50.5816 49.3952Z" fill="#FE9738"/>
<path d="M7 40.9351H52.996V45.0336H7V40.9351Z" fill="#F46700"/>
<path d="M35.8845 28.5587L28.0963 24.0622C27.0465 23.4561 25.7344 24.2137 25.7344 25.4258V34.4188C25.7344 35.6309 27.0465 36.3884 28.0963 35.7824L35.8845 31.2859C36.9341 30.68 36.9341 29.1648 35.8845 28.5587L28.0963 24.0622C27.0465 23.4561 25.7344 24.2137 25.7344 25.4258V34.4188C25.7344 35.6309 27.0465 36.3884 28.0963 35.7824L35.8845 31.2859C36.9341 30.68 36.9341 29.1648 35.8845 28.5587Z" fill="white"/>
<path d="M16.4678 32.9847C16.2362 32.9847 16.0044 32.8963 15.8276 32.7195L13.6715 30.5634C13.3178 30.2097 13.3178 29.6366 13.6715 29.2828L15.8276 27.1267C16.1812 26.7732 16.7545 26.7732 17.1081 27.1267C17.4618 27.4803 17.4618 28.0535 17.1081 28.4073L15.5922 29.9232L17.1081 31.4392C17.4618 31.7928 17.4618 32.366 17.1081 32.7198C16.9313 32.8964 16.6995 32.9847 16.4678 32.9847Z" fill="#F46700"/>
<path d="M43.5461 32.9847C43.3144 32.9847 43.0826 32.8963 42.9059 32.7195C42.5522 32.3659 42.5522 31.7927 42.9059 31.4389L44.4218 29.923L42.9059 28.4073C42.5522 28.0536 42.5522 27.4804 42.9059 27.1267C43.2594 26.7732 43.8327 26.7732 44.1864 27.1267L46.3425 29.2828C46.6962 29.6365 46.6962 30.2096 46.3425 30.5634L44.1864 32.7195C44.0096 32.8964 43.7779 32.9847 43.5461 32.9847Z" fill="#F46700"/>
</g>
<defs>
<clipPath id="clip0_2935_3431">
<rect width="60" height="60" fill="white"/>
</clipPath>
</defs>
</svg>
