<svg width="60" height="60" viewBox="0 0 60 60" fill="none" xmlns="http://www.w3.org/2000/svg">
<g clip-path="url(#clip0_2935_3412)">
<path d="M51.2425 3.76256C42.9225 3.46006 37.3025 8.23006 34.3375 17.9976C35.8625 17.3151 37.345 17.0101 38.78 17.0101C49.3275 17.0101 36.3525 37.3976 33.1225 37.3976C29.3175 37.3976 27.03 19.1876 26.255 14.2151C25.1775 7.30256 22.305 4.07006 17.6375 4.52256C15.665 4.71006 12.7 6.52006 8.7525 9.97506C5.8775 12.6126 2.9625 15.2376 0 17.8751L2.8225 21.5551C5.51 19.6501 7.0775 18.6951 7.525 18.6951C15.255 18.6951 14.745 56.2501 26.9825 56.2501C38.7375 56.2501 59.4275 27.4476 59.9425 15.9026L59.975 15.8776C60.31 7.96506 57.4225 3.91506 51.2425 3.76256Z" fill="#19B2E5"/>
</g>
<defs>
<clipPath id="clip0_2935_3412">
<rect width="60" height="60" fill="white"/>
</clipPath>
</defs>
</svg>
