<svg width="60" height="60" viewBox="0 0 60 60" fill="none" xmlns="http://www.w3.org/2000/svg">
<path d="M58.7638 15.5969C58.0721 13.0266 56.0456 11.0005 53.4757 10.3084C48.7805 9.02344 29.9994 9.02344 29.9994 9.02344C29.9994 9.02344 11.2188 9.02344 6.52356 10.2594C4.00313 10.9511 1.92718 13.027 1.2355 15.5969C0 20.2917 0 30.0283 0 30.0283C0 30.0283 0 39.8139 1.2355 44.4597C1.92763 47.0296 3.95369 49.0561 6.52402 49.7482C11.2683 51.0331 29.9999 51.0331 29.9999 51.0331C29.9999 51.0331 48.7805 51.0331 53.4757 49.7972C56.0461 49.1055 58.0721 47.079 58.7642 44.5091C59.9997 39.8139 59.9997 30.0777 59.9997 30.0777C59.9997 30.0777 60.0492 20.2917 58.7638 15.5969Z" fill="#FF0000"/>
<path d="M24.0156 39.0232L39.6331 30.0282L24.0156 21.0332V39.0232Z" fill="white"/>
</svg>
