<svg width="720" height="400" viewBox="0 0 720 400" fill="none" xmlns="http://www.w3.org/2000/svg">
<g clip-path="url(#clip0_29_1613)">
<rect width="720" height="400" fill="white"/>
<rect x="-121.115" y="-8.40936" width="900.714" height="427.839" fill="url(#paint0_linear_29_1613)"/>
<path opacity="0.2" d="M100.136 343.168H558.361C558.361 343.168 549.355 291.136 496.175 310.265C496.175 310.265 516.07 263.59 467.099 256.704C467.099 256.704 470.16 214.619 434.962 221.123C434.962 221.123 366.862 111.704 286.137 185.543C278.535 192.498 273.424 225.714 289.706 239.078C289.706 239.078 229.813 206.512 207.133 272.225C184.454 337.938 158.87 288.508 126.886 308.858C94.9021 329.207 100.136 343.168 100.136 343.168Z" fill="white"/>
<path d="M373.006 207.595C373.006 207.595 356.651 218.338 360.94 230.623C360.94 230.623 380.157 227.122 390.632 228.48C401.107 229.839 418.721 221.376 417.711 214.826L387.61 213.472C387.61 213.472 382.005 210.556 380.019 209.764C378.34 209.08 373.006 207.595 373.006 207.595Z" fill="url(#paint1_linear_29_1613)"/>
<path d="M371.652 122.998C371.652 122.998 386.787 119.211 389.786 116.112C389.786 116.112 383.083 116.961 379.024 104.944C374.965 92.927 367.776 97.3612 367.776 97.3612L371.652 122.998Z" fill="url(#paint2_linear_29_1613)"/>
<path d="M369.972 96.7836C369.972 96.7836 348.33 101.971 344.84 110.733C344.84 110.733 342.132 125.998 362.305 154.527C382.479 183.056 388.287 209.363 387.61 213.472C387.61 213.472 401.176 229.697 417.348 217.902C417.348 217.902 429.797 205.334 401.153 167.818C366.881 122.918 369.972 96.7836 369.972 96.7836Z" fill="url(#paint3_linear_29_1613)"/>
<path d="M361.917 117.992L349.878 122.734C349.583 122.851 349.438 123.184 349.554 123.479C349.671 123.774 350.004 123.918 350.299 123.802L362.337 119.06C362.632 118.944 362.777 118.611 362.661 118.316C362.545 118.021 362.212 117.876 361.917 117.992Z" fill="white" fill-opacity="0.62"/>
<path d="M369.781 121.116L352.004 128.119C351.709 128.235 351.565 128.568 351.681 128.863C351.797 129.158 352.13 129.303 352.425 129.187L370.202 122.184C370.497 122.068 370.642 121.735 370.525 121.44C370.409 121.145 370.076 121 369.781 121.116Z" fill="white" fill-opacity="0.62"/>
<path d="M373.48 129.667L355.703 136.67C355.408 136.786 355.264 137.119 355.38 137.414C355.496 137.709 355.829 137.854 356.124 137.738L373.901 130.735C374.196 130.619 374.341 130.286 374.224 129.991C374.108 129.696 373.775 129.551 373.48 129.667Z" fill="white" fill-opacity="0.62"/>
<path d="M375.725 134.625L357.948 141.627C357.653 141.743 357.508 142.077 357.625 142.371C357.741 142.666 358.074 142.811 358.369 142.695L376.146 135.693C376.441 135.576 376.585 135.243 376.469 134.948C376.353 134.653 376.02 134.509 375.725 134.625Z" fill="white" fill-opacity="0.62"/>
<path d="M396.839 168.474L379.062 175.477C378.767 175.593 378.622 175.926 378.739 176.221C378.855 176.516 379.188 176.661 379.483 176.545L397.26 169.542C397.555 169.426 397.699 169.093 397.583 168.798C397.467 168.503 397.134 168.358 396.839 168.474Z" fill="white" fill-opacity="0.62"/>
<path d="M399.082 173.433L381.305 180.435C381.01 180.551 380.865 180.885 380.981 181.179C381.097 181.474 381.431 181.619 381.726 181.503L399.502 174.501C399.797 174.384 399.942 174.051 399.826 173.756C399.71 173.461 399.377 173.317 399.082 173.433Z" fill="white" fill-opacity="0.62"/>
<path d="M388.149 155.793L371.742 162.798C371.451 162.923 371.315 163.26 371.44 163.552C371.564 163.843 371.902 163.978 372.193 163.854L388.6 156.849C388.892 156.725 389.027 156.387 388.903 156.096C388.778 155.804 388.441 155.669 388.149 155.793Z" fill="white" fill-opacity="0.62"/>
<path d="M390.77 160.316L374.306 167.508C374.016 167.635 373.883 167.974 374.01 168.264C374.137 168.554 374.475 168.687 374.766 168.56L391.229 161.367C391.519 161.24 391.652 160.902 391.525 160.612C391.398 160.321 391.06 160.189 390.77 160.316Z" fill="white" fill-opacity="0.62"/>
<path d="M381.397 143.502L363.62 150.504C363.325 150.621 363.18 150.954 363.297 151.249C363.413 151.544 363.746 151.688 364.041 151.572L381.818 144.57C382.113 144.454 382.257 144.12 382.141 143.826C382.025 143.531 381.692 143.386 381.397 143.502Z" fill="white" fill-opacity="0.62"/>
<path d="M373.734 152.054L366.305 154.98C366.01 155.096 365.866 155.43 365.982 155.724C366.098 156.019 366.431 156.164 366.726 156.048L374.155 153.122C374.45 153.006 374.595 152.672 374.479 152.378C374.362 152.083 374.029 151.938 373.734 152.054Z" fill="white" fill-opacity="0.62"/>
<path d="M383.457 148.25L376.672 150.923C376.377 151.039 376.232 151.372 376.349 151.667C376.465 151.962 376.798 152.107 377.093 151.99L383.878 149.318C384.172 149.202 384.317 148.869 384.201 148.574C384.085 148.279 383.752 148.134 383.457 148.25Z" fill="white" fill-opacity="0.62"/>
<path d="M403.318 181.506L385.541 188.508C385.246 188.624 385.101 188.958 385.217 189.252C385.334 189.547 385.667 189.692 385.962 189.576L403.738 182.574C404.033 182.457 404.178 182.124 404.062 181.829C403.946 181.534 403.613 181.39 403.318 181.506Z" fill="white" fill-opacity="0.62"/>
<path d="M395.66 190.061L388.231 192.988C387.936 193.104 387.792 193.437 387.908 193.732C388.024 194.027 388.357 194.172 388.652 194.055L396.081 191.129C396.376 191.013 396.521 190.68 396.405 190.385C396.288 190.09 395.955 189.945 395.66 190.061Z" fill="white" fill-opacity="0.62"/>
<path d="M405.378 186.254L398.593 188.926C398.298 189.042 398.153 189.376 398.269 189.671C398.386 189.965 398.719 190.11 399.014 189.994L405.798 187.322C406.093 187.205 406.238 186.872 406.122 186.577C406.006 186.282 405.673 186.138 405.378 186.254Z" fill="white" fill-opacity="0.62"/>
<path d="M472.149 358.704C472.149 358.704 486.745 325.121 504.286 320.928C504.936 320.77 505.615 320.767 506.266 320.919C506.918 321.07 507.525 321.373 508.039 321.802C508.552 322.231 508.958 322.775 509.223 323.389C509.488 324.003 509.606 324.671 509.566 325.339C509.183 331.461 503.938 343.81 477.387 364.435L472.149 358.704Z" fill="url(#paint4_linear_29_1613)"/>
<path d="M474.184 361.008C474.425 360.713 506.057 323.583 506.057 323.583C499.297 333.106 475.011 361.195 474.77 361.49L474.184 361.008Z" fill="white"/>
<path d="M467.022 354.905C467.022 354.905 470.569 312.821 488.199 301.761C488.851 301.35 489.59 301.097 490.358 301.024C491.125 300.95 491.899 301.058 492.617 301.337C493.336 301.617 493.979 302.061 494.494 302.635C495.01 303.208 495.384 303.894 495.586 304.638C497.419 311.478 496.26 326.893 474.865 359.232L467.022 354.905Z" fill="url(#paint5_linear_29_1613)"/>
<path d="M470.095 356.669C470.251 356.26 491.098 304.014 491.098 304.014C487.231 316.915 471.066 356.558 470.925 356.983L470.095 356.669Z" fill="white"/>
<path d="M534.051 368.556C534.051 368.556 523.783 339.816 498.364 351.064C498.364 351.064 487.606 355.95 475.872 343.73C475.872 343.73 454.118 315.618 433.095 324.907C433.095 324.907 422.826 328.817 417.451 347.885C417.451 347.885 390.563 346.906 387.139 368.418L534.051 368.556Z" fill="url(#paint6_linear_29_1613)"/>
<path d="M179.755 349.289C179.755 349.289 164.835 315.855 173.577 300.07C173.901 299.485 174.357 298.985 174.91 298.609C175.462 298.233 176.095 297.992 176.757 297.904C177.42 297.817 178.093 297.886 178.724 298.106C179.355 298.326 179.926 298.69 180.391 299.171C184.645 303.597 190.223 315.786 187.522 349.289H179.755Z" fill="url(#paint7_linear_29_1613)"/>
<path d="M182.839 349.343C182.786 348.96 176.718 300.567 176.718 300.567C179.185 311.979 183.52 348.86 183.574 349.235L182.839 349.343Z" fill="white"/>
<path d="M170.746 355.632C170.746 355.632 133.884 321.682 136.344 297.097C136.436 296.188 136.74 295.314 137.23 294.543C137.721 293.773 138.385 293.128 139.17 292.661C139.954 292.193 140.837 291.915 141.748 291.85C142.659 291.784 143.573 291.933 144.416 292.284C152.163 295.544 165.764 307.848 180.505 351.439L170.746 355.632Z" fill="url(#paint8_linear_29_1613)"/>
<path d="M174.633 354.037C174.365 353.593 140.583 296.026 140.583 296.026C149.86 309.034 175.264 353.054 175.536 353.497L174.633 354.037Z" fill="white"/>
<path d="M122.391 368.694C122.391 368.694 135.016 333.496 166.22 347.296C166.22 347.296 179.43 353.299 193.842 338.29C193.842 338.29 220.558 303.765 246.379 315.174C246.379 315.174 258.985 319.975 265.592 343.393C265.592 343.393 298.613 342.192 302.817 368.61L122.391 368.694Z" fill="url(#paint9_linear_29_1613)"/>
<path d="M195.342 368.61C195.342 368.61 207.967 338.003 228.367 350.597C228.367 350.597 236.783 360.204 246.379 351.799C246.379 351.799 263.79 328.381 283.604 336.786C303.418 345.192 310.622 368.61 310.622 368.61H195.342Z" fill="url(#paint10_linear_29_1613)"/>
<path d="M209.62 288.267C208.251 288.269 206.938 288.814 205.97 289.782C205.002 290.75 204.457 292.063 204.455 293.432H203.307C203.307 291.758 203.972 290.152 205.156 288.968C206.34 287.784 207.946 287.119 209.62 287.119C211.294 287.119 212.9 287.784 214.084 288.968C215.268 290.152 215.933 291.758 215.933 293.432H214.785C214.783 292.063 214.238 290.75 213.27 289.782C212.302 288.814 210.989 288.269 209.62 288.267Z" fill="url(#paint11_linear_29_1613)"/>
<path d="M145.533 213.931L146.738 214.264C147.583 213.299 148.726 212.646 149.985 212.406C151.245 212.167 152.548 212.357 153.687 212.945C154.826 213.532 155.736 214.485 156.271 215.649C156.806 216.814 156.935 218.125 156.639 219.372C156.342 220.619 155.637 221.731 154.635 222.53C153.633 223.33 152.392 223.771 151.11 223.783C149.829 223.795 148.58 223.378 147.563 222.598C146.546 221.818 145.819 220.719 145.499 219.478L144.255 219.134C144.507 220.703 145.293 222.137 146.481 223.193C147.668 224.249 149.185 224.861 150.773 224.926C152.361 224.991 153.922 224.505 155.193 223.551C156.463 222.596 157.364 221.231 157.743 219.688C158.122 218.145 157.956 216.518 157.272 215.083C156.588 213.648 155.43 212.494 153.992 211.817C152.555 211.139 150.927 210.979 149.386 211.364C147.844 211.75 146.483 212.657 145.533 213.931Z" fill="url(#paint12_linear_29_1613)"/>
<path d="M196.547 121.177C196.096 120.906 195.714 120.534 195.431 120.091C195.148 119.647 194.97 119.144 194.913 118.621L194.829 117.898C194.79 117.531 194.663 117.179 194.459 116.871C194.254 116.564 193.979 116.31 193.655 116.132C193.332 115.953 192.971 115.856 192.602 115.847C192.232 115.838 191.867 115.918 191.535 116.081C191.033 116.326 190.479 116.445 189.92 116.428C189.362 116.41 188.816 116.258 188.33 115.982C187.844 115.707 187.432 115.318 187.13 114.848C186.828 114.377 186.644 113.841 186.596 113.284L186.531 112.546C186.502 112.195 186.392 111.856 186.211 111.555C186.03 111.253 185.782 110.997 185.486 110.807C185.19 110.617 184.855 110.497 184.505 110.457C184.156 110.416 183.801 110.457 183.47 110.576L183.088 109.489C183.583 109.316 184.112 109.258 184.633 109.32C185.154 109.382 185.654 109.563 186.095 109.848C186.536 110.133 186.905 110.515 187.176 110.964C187.446 111.414 187.611 111.92 187.656 112.443L187.721 113.177C187.752 113.55 187.873 113.909 188.074 114.224C188.276 114.538 188.551 114.799 188.876 114.984C189.201 115.168 189.566 115.27 189.939 115.281C190.313 115.293 190.683 115.213 191.019 115.048C191.515 114.806 192.062 114.687 192.614 114.701C193.166 114.715 193.707 114.862 194.19 115.128C194.674 115.395 195.086 115.774 195.392 116.234C195.699 116.693 195.89 117.219 195.95 117.768L196.034 118.491C196.073 118.853 196.198 119.201 196.398 119.505C196.597 119.81 196.867 120.062 197.183 120.242C197.5 120.422 197.854 120.523 198.218 120.539C198.582 120.555 198.944 120.484 199.275 120.332L199.539 120.213C200.03 119.989 200.568 119.884 201.108 119.907C201.648 119.929 202.175 120.078 202.646 120.342C203.118 120.605 203.52 120.976 203.822 121.424C204.124 121.873 204.316 122.386 204.382 122.922L203.235 123.071C203.191 122.713 203.063 122.37 202.862 122.07C202.661 121.77 202.392 121.522 202.077 121.346C201.762 121.17 201.41 121.07 201.05 121.055C200.689 121.041 200.33 121.111 200.002 121.261L199.738 121.38C199.242 121.604 198.7 121.707 198.157 121.681C197.614 121.655 197.084 121.501 196.612 121.231L196.547 121.177Z" fill="white"/>
<path d="M428.841 89.3232C427.472 89.3212 426.159 88.7764 425.191 87.8082C424.223 86.8401 423.678 85.5275 423.676 84.1583H422.528C422.528 85.8325 423.193 87.4382 424.377 88.622C425.561 89.8059 427.166 90.471 428.841 90.471C430.515 90.471 432.121 89.8059 433.304 88.622C434.488 87.4382 435.153 85.8325 435.153 84.1583H434.006C434.004 85.5275 433.459 86.8401 432.491 87.8082C431.522 88.7764 430.21 89.3212 428.841 89.3232Z" fill="white"/>
<path d="M423.775 300.318H406.739L415.538 286.809L423.775 300.318ZM409.478 298.834H421.131L415.507 289.606L409.478 298.834Z" fill="url(#paint13_linear_29_1613)"/>
<path d="M473.886 199.814C473.402 200.019 472.878 200.111 472.354 200.082C471.829 200.054 471.318 199.905 470.86 199.649L470.221 199.293C469.9 199.112 469.54 199.01 469.171 198.997C468.802 198.985 468.436 199.061 468.103 199.22C467.77 199.378 467.48 199.615 467.258 199.91C467.036 200.204 466.888 200.548 466.827 200.912C466.733 201.463 466.507 201.983 466.167 202.427C465.826 202.871 465.383 203.226 464.876 203.46C464.368 203.694 463.81 203.801 463.252 203.772C462.693 203.743 462.151 203.578 461.67 203.291L461.035 202.909C460.734 202.729 460.396 202.62 460.046 202.591C459.696 202.562 459.345 202.614 459.018 202.742C458.691 202.87 458.399 203.071 458.162 203.33C457.925 203.59 457.751 203.899 457.653 204.236L456.555 203.907C456.703 203.404 456.965 202.942 457.319 202.555C457.674 202.168 458.112 201.868 458.6 201.676C459.088 201.485 459.614 201.407 460.137 201.45C460.659 201.492 461.166 201.654 461.617 201.922L462.255 202.304C462.576 202.496 462.939 202.607 463.312 202.627C463.686 202.647 464.058 202.575 464.398 202.418C464.737 202.261 465.033 202.024 465.26 201.727C465.486 201.429 465.637 201.081 465.699 200.713C465.791 200.168 466.014 199.654 466.347 199.214C466.68 198.773 467.114 198.42 467.612 198.182C468.111 197.945 468.659 197.831 469.211 197.849C469.763 197.868 470.302 198.02 470.783 198.291L471.422 198.647C471.739 198.826 472.093 198.927 472.456 198.942C472.82 198.957 473.181 198.885 473.512 198.733C473.842 198.581 474.131 198.353 474.356 198.067C474.581 197.781 474.734 197.446 474.804 197.09L474.862 196.806C474.966 196.276 475.194 195.778 475.527 195.352C475.86 194.926 476.289 194.584 476.778 194.355C477.268 194.125 477.804 194.014 478.345 194.031C478.885 194.047 479.414 194.191 479.889 194.45L479.345 195.46C479.029 195.286 478.675 195.189 478.314 195.177C477.953 195.165 477.594 195.239 477.266 195.392C476.939 195.545 476.652 195.774 476.43 196.059C476.207 196.344 476.056 196.677 475.986 197.032L475.929 197.315C475.826 197.849 475.596 198.351 475.258 198.778C474.92 199.205 474.485 199.544 473.989 199.768L473.886 199.814Z" fill="white"/>
<path d="M229.706 95.0619C239.108 95.0619 246.731 87.4396 246.731 78.0369C246.731 68.6343 239.108 61.0119 229.706 61.0119C220.303 61.0119 212.681 68.6343 212.681 78.0369C212.681 87.4396 220.303 95.0619 229.706 95.0619Z" fill="url(#paint14_linear_29_1613)"/>
<path d="M225.742 88.0683L218.439 80.0685C218.138 79.739 217.981 79.3038 218.001 78.8584C218.021 78.413 218.217 77.9937 218.546 77.6927C218.709 77.5434 218.899 77.4278 219.107 77.3524C219.315 77.277 219.535 77.2433 219.756 77.2533C219.976 77.2632 220.193 77.3166 220.393 77.4104C220.593 77.5042 220.773 77.6365 220.921 77.7998L225.796 83.156L237.839 70.5307C237.992 70.3708 238.174 70.2425 238.376 70.1531C238.577 70.0636 238.795 70.0149 239.015 70.0096C239.236 70.0042 239.456 70.0424 239.661 70.122C239.867 70.2016 240.055 70.321 240.215 70.4733C240.538 70.7818 240.725 71.2058 240.735 71.652C240.745 72.0983 240.577 72.5303 240.269 72.853L225.742 88.0683Z" fill="white"/>
<path d="M337.319 55.847C337.322 53.371 336.675 50.9376 335.443 48.7897C334.211 46.6418 332.437 44.8546 330.299 43.6065C328.16 42.3584 325.732 41.693 323.256 41.6768C320.78 41.6606 318.343 42.2942 316.188 43.5142C314.034 44.7343 312.237 46.4981 310.977 48.6297C309.717 50.7613 309.038 53.1861 309.009 55.662C308.979 58.1378 309.599 60.5782 310.807 62.7395C312.016 64.9007 313.77 66.7073 315.894 67.9788C316.858 68.9198 317.434 70.188 317.509 71.533H328.516C328.516 71.533 328.642 69.4555 330.046 68.1892C332.246 66.9648 334.081 65.1756 335.359 63.0061C336.637 60.8365 337.314 58.3652 337.319 55.847Z" fill="url(#paint15_linear_29_1613)"/>
<path d="M317.44 77.8151V70.9592H328.604V77.8151C328.604 78.5482 328.459 79.2742 328.178 79.9515C327.897 80.6287 327.486 81.244 326.967 81.7621C326.448 82.2801 325.833 82.6909 325.155 82.9707C324.477 83.2506 323.751 83.3942 323.018 83.3931C321.539 83.3931 320.12 82.8055 319.074 81.7594C318.028 80.7133 317.44 79.2945 317.44 77.8151Z" fill="url(#paint16_linear_29_1613)"/>
<path d="M331.427 54.6764C331.281 54.0396 331.055 53.4239 330.754 52.8438L331.42 51.4091L329.308 49.2246L327.839 49.8023C327.28 49.4662 326.677 49.2088 326.048 49.0371L325.574 47.5068L322.513 47.4188L321.901 48.9032C321.264 49.0496 320.648 49.2758 320.068 49.5765L318.657 48.9108L316.468 50.973L317.05 52.4421C316.712 52.9999 316.454 53.6027 316.285 54.2326L314.754 54.7567L314.662 57.8174L316.147 58.4295C316.294 59.0673 316.52 59.6843 316.82 60.2659L316.158 61.6968L318.274 63.8814L319.743 63.3037C320.3 63.6434 320.903 63.9012 321.534 64.0688L322.058 65.5992L325.061 65.6872L325.673 64.2027C326.311 64.0557 326.928 63.8295 327.51 63.5294L328.94 64.1951L331.179 62.1329L330.597 60.6677C330.934 60.1092 331.191 59.5066 331.362 58.8772L332.892 58.3492L332.984 55.2885L331.427 54.6764ZM323.63 60.2545C322.892 60.2352 322.176 59.9974 321.574 59.5711C320.971 59.1448 320.508 58.5492 320.244 57.8598C319.98 57.1703 319.926 56.418 320.09 55.6981C320.254 54.9782 320.628 54.3231 321.164 53.8157C321.7 53.3084 322.375 52.9716 323.103 52.848C323.831 52.7244 324.579 52.8196 325.253 53.1215C325.926 53.4234 326.495 53.9184 326.888 54.5439C327.28 55.1694 327.478 55.8972 327.456 56.6352C327.444 57.1244 327.335 57.6064 327.135 58.0534C326.936 58.5004 326.651 58.9036 326.295 59.2399C325.94 59.5763 325.521 59.839 325.064 60.0131C324.607 60.1872 324.119 60.2692 323.63 60.2545Z" fill="white"/>
<path d="M281.328 83.6648L286.822 80.1679C286.822 80.1679 293.815 75.6726 296.815 81.6677C299.814 87.6628 294.814 93.654 294.814 93.654C294.814 93.654 290.318 103.146 291.818 106.643C293.318 110.14 303.296 117.133 295.315 129.621C287.334 142.108 281.328 144.607 281.328 144.607C281.328 144.607 273.833 90.1572 281.328 83.6648Z" fill="url(#paint17_linear_29_1613)"/>
<path d="M336.787 318.809L334.821 327.994L333.749 333.006L323.45 330.825L324.499 323.113L325.317 317.106L336.787 318.809Z" fill="url(#paint18_linear_29_1613)"/>
<path d="M320.481 335.83L323.576 329.138C323.576 329.138 328.845 334.051 334.166 331.051L349.263 345.081C349.44 345.243 349.556 345.462 349.592 345.7C349.628 345.938 349.582 346.181 349.461 346.389C349.34 346.597 349.152 346.757 348.927 346.843C348.703 346.93 348.455 346.937 348.226 346.863L321.694 338.577C321.422 338.493 321.171 338.351 320.959 338.162C320.746 337.973 320.577 337.74 320.462 337.48C320.347 337.219 320.289 336.937 320.292 336.653C320.296 336.368 320.36 336.087 320.481 335.83Z" fill="url(#paint19_linear_29_1613)"/>
<path d="M286.068 238.493L276.189 241.955L272.364 243.294L268.863 233.362L276.189 230.156L281.546 227.815L286.068 238.493Z" fill="url(#paint20_linear_29_1613)"/>
<path d="M263.044 233.435L270.367 232.601C270.367 232.601 268.917 239.66 274.246 242.644L270.129 262.856C270.08 263.089 269.953 263.299 269.769 263.451C269.585 263.603 269.355 263.689 269.117 263.694C268.878 263.7 268.645 263.624 268.454 263.48C268.264 263.336 268.127 263.133 268.067 262.902L261.342 235.906C261.271 235.631 261.26 235.344 261.31 235.063C261.36 234.783 261.469 234.517 261.63 234.283C261.791 234.049 262.001 233.852 262.245 233.706C262.489 233.559 262.761 233.467 263.044 233.435Z" fill="url(#paint21_linear_29_1613)"/>
<path d="M344.573 113.38C344.573 113.38 345.797 118.633 346.145 120.14C346.659 122.519 346.366 125.002 345.311 127.195C345.311 127.195 323.071 155.533 307.894 149.129L303.303 146.967L294.271 142.694L302.97 128.771C304.121 130.208 305.377 131.557 306.727 132.808C310.171 135.991 315.32 139.491 319.479 136.859C326.365 132.502 338.505 123.606 338.505 123.606L338.333 111.463C340.246 110.109 342.498 109.314 344.837 109.168L352.148 113.235C352.148 113.235 349.221 115.148 344.573 113.38Z" fill="url(#paint22_linear_29_1613)"/>
<path d="M286.068 238.493L276.19 241.955V230.156L281.546 227.815L286.068 238.493Z" fill="#FFCDD7"/>
<path d="M306.716 132.808L303.311 146.963L294.271 142.694L302.97 128.771C304.117 130.208 305.369 131.557 306.716 132.808Z" fill="#FFCDD7"/>
<path d="M332.812 228.392C327.211 230.202 322.796 234.946 318.094 236.557C312.497 238.47 307.542 240.245 303.265 241.806C289.944 246.691 283.015 249.714 283.015 249.714L276.293 229.502L297.878 220.634L303.705 218.242L319.039 211.941L285.754 168.709C285.754 168.709 330.566 183.798 347.17 191.469C363.775 199.14 364.238 207.297 364.238 207.297C364.238 207.297 365.741 217.768 332.812 228.392Z" fill="url(#paint23_linear_29_1613)"/>
<path opacity="0.25" d="M295.851 175.424C295.851 175.424 339.389 196.267 340.345 203.096C341.677 212.634 329.105 224.138 329.105 224.138L295.851 175.424Z" fill="#171321"/>
<path d="M336.787 318.809L334.821 327.994L324.499 323.113L325.317 317.106L336.787 318.809Z" fill="#FFCDD7"/>
<path opacity="0.35" d="M318.075 236.561C312.478 238.474 308.024 240.069 303.743 241.63C304.16 234.426 299.477 223.847 297.859 220.637L303.686 218.246L318.075 236.561Z" fill="#171321"/>
<path d="M307.022 132.039L290.598 117.16L287.189 141.504L298.177 145.808L307.022 132.039Z" fill="url(#paint24_linear_29_1613)"/>
<path d="M280.398 122.325L280.987 108.858C280.987 108.858 291.401 118.618 294.936 100.992L297.542 100.732C297.542 100.732 296.375 96.6076 295.629 92.9118C295.288 91.2131 295.598 89.6063 295.143 88.5312C294.378 86.7101 290.41 83.1559 290.41 83.1559L271.912 89.1663L272.211 99.6988L269.984 120.515L280.398 122.325Z" fill="url(#paint25_linear_29_1613)"/>
<path d="M345.365 326.296L324.212 322.718C324.212 322.718 320.638 262.783 315.596 237.574C314.448 231.836 308.962 225.684 297.167 216.391C289.58 210.411 278.447 205.9 278.447 205.9C277.027 205.288 275.681 204.653 274.399 204.014C268.213 200.953 258.208 195.088 257.47 191.553C257.419 191.339 257.41 191.117 257.443 190.899C260.634 170.932 253.533 163.089 253.533 163.089L284.939 156.138L300.675 174.352L306.031 180.523L307.347 182.054L336.228 209.286C351.941 241.783 345.365 326.296 345.365 326.296Z" fill="url(#paint26_linear_29_1613)"/>
<path opacity="0.25" d="M297.167 216.391C289.58 210.411 278.447 205.9 278.447 205.9C277.027 205.288 275.681 204.653 274.399 204.014C268.213 200.954 258.208 195.089 257.47 191.553L266.369 185.688L300.675 174.352L306.031 180.524C306.031 180.524 286.795 197.522 297.167 216.391Z" fill="#171321"/>
<path d="M302.687 174.521C302.687 174.521 298.793 183.202 291.875 183.443C281.982 183.776 272.987 193.03 267.053 194.277C262.673 195.199 248.881 188.833 248.881 188.833C251.176 182.712 251.49 171.797 251.176 161.811C250.954 155.571 250.499 149.695 250.12 145.586C249.795 142.043 249.52 139.817 249.52 139.817L238.142 125.022C242.817 120.29 248.349 116.292 253.196 114.164C258.213 111.955 263.674 110.936 269.15 111.188C276.844 121.238 281.048 114.398 281.048 114.398L291.194 117.424C285.949 157.316 302.687 174.521 302.687 174.521Z" fill="url(#paint27_linear_29_1613)"/>
<path d="M280 132.157L277.793 149.5L274.678 149.098L277.322 131.851L280 132.157Z" fill="url(#paint28_linear_29_1613)"/>
<path d="M275.906 152.147L274.678 149.098L277.793 149.5L275.906 152.147Z" fill="url(#paint29_linear_29_1613)"/>
<path d="M273.661 143.864C273.661 143.864 272.662 147.308 269.1 146.925C268.228 146.826 264.831 151.455 260.683 160.782C256.628 169.903 251.953 182.249 248.873 188.833C251.169 182.712 251.482 171.797 251.169 161.811C250.947 155.571 250.491 149.695 250.113 145.586L277.831 136.021C277.831 136.021 276.19 144.247 273.661 143.864Z" fill="url(#paint30_linear_29_1613)"/>
<path d="M282.751 136.572C282.545 137.043 282.198 137.439 281.757 137.703C281.316 137.968 280.804 138.089 280.291 138.049C279.438 137.988 278.597 137.815 277.789 137.536C277.789 137.536 278.095 140.635 275.252 139.939C275.252 139.939 274.755 142.961 272.192 142.479C272.192 142.479 272.375 145.433 268.595 144.974C266.605 144.769 264.639 144.369 262.726 143.78C262.726 143.78 233.497 169.241 224.013 160.855C217.448 155.051 230.67 137.399 239.569 127.21L239.737 127.015C240.012 126.702 249.512 139.794 249.512 139.794L248.605 140.559L247.878 141.175C247.878 141.175 267.666 132.165 276.737 133.837L282.751 136.572Z" fill="url(#paint31_linear_29_1613)"/>
<path d="M267.226 99.0064C264.46 101.472 262.558 104.76 261.801 108.387C261.169 111.249 257.684 113.281 254.7 115.894C248.636 121.204 250.086 130.906 258.017 135.352C262.16 137.674 275.83 135.126 278.256 125.917C280.681 116.709 278.971 113.698 278.971 113.698C278.971 113.698 282.942 106.918 281.488 102.557C281.488 102.557 276.863 98.3866 280.765 96.2709C280.765 96.2709 289.519 91.2514 290.487 88.3437C290.487 88.3437 289.033 93.1911 286.125 95.6128C286.125 95.6128 297.676 92.0012 296.222 82.7924C296.222 82.7924 283.926 67.3513 270.133 83.4964C267.57 86.4959 264.8 90.7655 267.226 99.0064Z" fill="url(#paint32_linear_29_1613)"/>
<path d="M249.508 139.809L248.601 140.574L235.444 149.446C236.906 148.383 246.184 141.163 242.14 131.981C241.684 130.948 240.495 128.84 239.565 127.226L239.733 127.031C240.009 126.717 249.508 139.809 249.508 139.809Z" fill="#FFCDD7"/>
<path d="M273.51 38.3152C164.017 49.5741 33.9766 -2.49843 -10.7776 -25.0163L812.531 -46.1267V168.637C791.42 139.927 756.518 108.965 695.719 101.647C634.921 94.3283 547.946 91.795 497 54.3591C446.053 16.9232 383.003 27.0562 273.51 38.3152Z" fill="#30E688"/>
<path d="M299.218 30.7921C189.383 37.9821 61.3632 -18.8778 17.475 -43.0401L841 -33.5991L833.034 181.017C813.003 151.543 779.273 119.308 718.788 109.74C658.303 100.172 571.482 94.4142 521.959 55.1144C472.436 15.8146 409.053 23.6021 299.218 30.7921Z" fill="#1CDB79"/>
</g>
<defs>
<linearGradient id="paint0_linear_29_1613" x1="319.953" y1="-70.6149" x2="318.787" y2="481.046" gradientUnits="userSpaceOnUse">
<stop stop-color="#41FB97"/>
<stop offset="0.742708" stop-color="#10DC74"/>
<stop offset="1" stop-color="#09A757"/>
</linearGradient>
<linearGradient id="paint1_linear_29_1613" x1="406.314" y1="232.853" x2="366.525" y2="209.133" gradientUnits="userSpaceOnUse">
<stop stop-color="#29056B"/>
<stop offset="1" stop-color="#6C93F5"/>
</linearGradient>
<linearGradient id="paint2_linear_29_1613" x1="367.776" y1="109.78" x2="389.786" y2="109.78" gradientUnits="userSpaceOnUse">
<stop stop-color="#29056B"/>
<stop offset="1" stop-color="#6C93F5"/>
</linearGradient>
<linearGradient id="paint3_linear_29_1613" x1="354.968" y1="111.184" x2="411.46" y2="215.362" gradientUnits="userSpaceOnUse">
<stop stop-color="#FA655C"/>
<stop offset="1" stop-color="#FFBF8A"/>
</linearGradient>
<linearGradient id="paint4_linear_29_1613" x1="496.223" y1="331.242" x2="473.077" y2="360.34" gradientUnits="userSpaceOnUse">
<stop stop-color="#AB53FF"/>
<stop offset="1" stop-color="#CF87FF"/>
</linearGradient>
<linearGradient id="paint5_linear_29_1613" x1="471.241" y1="352.633" x2="488.147" y2="313.237" gradientUnits="userSpaceOnUse">
<stop stop-color="#64D7FD"/>
<stop offset="1" stop-color="#6577FF"/>
</linearGradient>
<linearGradient id="paint6_linear_29_1613" x1="534.051" y1="345.792" x2="387.139" y2="345.792" gradientUnits="userSpaceOnUse">
<stop stop-color="#29056B"/>
<stop offset="1" stop-color="#6C93F5"/>
</linearGradient>
<linearGradient id="paint7_linear_29_1613" x1="284.45" y1="87.051" x2="261.302" y2="116.151" gradientUnits="userSpaceOnUse">
<stop stop-color="#AB53FF"/>
<stop offset="1" stop-color="#CF87FF"/>
</linearGradient>
<linearGradient id="paint8_linear_29_1613" x1="171.67" y1="350.047" x2="147.049" y2="305.526" gradientUnits="userSpaceOnUse">
<stop stop-color="#64D7FD"/>
<stop offset="1" stop-color="#6577FF"/>
</linearGradient>
<linearGradient id="paint9_linear_29_1613" x1="294.217" y1="341.611" x2="135.812" y2="340.463" gradientUnits="userSpaceOnUse">
<stop stop-color="#29056B"/>
<stop offset="1" stop-color="#6C93F5"/>
</linearGradient>
<linearGradient id="paint10_linear_29_1613" x1="302.95" y1="140.825" x2="403.893" y2="196.503" gradientUnits="userSpaceOnUse">
<stop stop-color="#64D7FD"/>
<stop offset="1" stop-color="#6577FF"/>
</linearGradient>
<linearGradient id="paint11_linear_29_1613" x1="203.307" y1="290.275" x2="215.933" y2="290.275" gradientUnits="userSpaceOnUse">
<stop stop-color="#FA655C"/>
<stop offset="1" stop-color="#FFBF8A"/>
</linearGradient>
<linearGradient id="paint12_linear_29_1613" x1="149.434" y1="224.744" x2="153.124" y2="211.474" gradientUnits="userSpaceOnUse">
<stop stop-color="#1EB5E7"/>
<stop offset="1" stop-color="#152CD7"/>
</linearGradient>
<linearGradient id="paint13_linear_29_1613" x1="428.351" y1="81.8095" x2="442.903" y2="90.6679" gradientUnits="userSpaceOnUse">
<stop stop-color="#C681E6"/>
<stop offset="1" stop-color="#7057E4"/>
</linearGradient>
<linearGradient id="paint14_linear_29_1613" x1="216.371" y1="90.3877" x2="248.177" y2="63.6477" gradientUnits="userSpaceOnUse">
<stop stop-color="#925CC9"/>
<stop offset="1" stop-color="#DAB9FC"/>
</linearGradient>
<linearGradient id="paint15_linear_29_1613" x1="309.023" y1="56.616" x2="337.319" y2="56.616" gradientUnits="userSpaceOnUse">
<stop stop-color="#FA655C"/>
<stop offset="1" stop-color="#FFBF8A"/>
</linearGradient>
<linearGradient id="paint16_linear_29_1613" x1="317.44" y1="77.1762" x2="328.596" y2="77.1762" gradientUnits="userSpaceOnUse">
<stop stop-color="#2B233C"/>
<stop offset="1" stop-color="#635C70"/>
</linearGradient>
<linearGradient id="paint17_linear_29_1613" x1="293.612" y1="81.8054" x2="285.284" y2="121.644" gradientUnits="userSpaceOnUse">
<stop stop-color="#2B233C"/>
<stop offset="1" stop-color="#635C70"/>
</linearGradient>
<linearGradient id="paint18_linear_29_1613" x1="330.119" y1="317.106" x2="330.119" y2="333.006" gradientUnits="userSpaceOnUse">
<stop stop-color="white"/>
<stop offset="1" stop-color="#FFD0D0"/>
</linearGradient>
<linearGradient id="paint19_linear_29_1613" x1="327.43" y1="345.626" x2="340.263" y2="334.568" gradientUnits="userSpaceOnUse">
<stop stop-color="#2B233C"/>
<stop offset="1" stop-color="#635C70"/>
</linearGradient>
<linearGradient id="paint20_linear_29_1613" x1="277.465" y1="227.815" x2="277.465" y2="243.294" gradientUnits="userSpaceOnUse">
<stop stop-color="white"/>
<stop offset="1" stop-color="#FFD0D0"/>
</linearGradient>
<linearGradient id="paint21_linear_29_1613" x1="258.266" y1="244.468" x2="274.389" y2="249.667" gradientUnits="userSpaceOnUse">
<stop stop-color="#2B233C"/>
<stop offset="1" stop-color="#635C70"/>
</linearGradient>
<linearGradient id="paint22_linear_29_1613" x1="323.209" y1="109.168" x2="323.209" y2="150.071" gradientUnits="userSpaceOnUse">
<stop stop-color="white"/>
<stop offset="1" stop-color="#FFD0D0"/>
</linearGradient>
<linearGradient id="paint23_linear_29_1613" x1="271.386" y1="201.359" x2="351.831" y2="236.755" gradientUnits="userSpaceOnUse">
<stop stop-color="#2B233C"/>
<stop offset="1" stop-color="#726885"/>
</linearGradient>
<linearGradient id="paint24_linear_29_1613" x1="304.754" y1="134.86" x2="288.991" y2="125.853" gradientUnits="userSpaceOnUse">
<stop stop-color="#64D7FD"/>
<stop offset="1" stop-color="#6577FF"/>
</linearGradient>
<linearGradient id="paint25_linear_29_1613" x1="283.763" y1="83.1559" x2="283.763" y2="122.325" gradientUnits="userSpaceOnUse">
<stop stop-color="white"/>
<stop offset="0.788022" stop-color="#FFD0D0"/>
</linearGradient>
<linearGradient id="paint26_linear_29_1613" x1="253.533" y1="241.217" x2="346.73" y2="241.217" gradientUnits="userSpaceOnUse">
<stop stop-color="#2B233C"/>
<stop offset="1" stop-color="#817990"/>
</linearGradient>
<linearGradient id="paint27_linear_29_1613" x1="323.049" y1="132.046" x2="247.614" y2="194.251" gradientUnits="userSpaceOnUse">
<stop stop-color="#78DBFC"/>
<stop offset="1" stop-color="#5A6DFF"/>
</linearGradient>
<linearGradient id="paint28_linear_29_1613" x1="274.079" y1="139.203" x2="280.981" y2="142.24" gradientUnits="userSpaceOnUse">
<stop stop-color="#2B233C"/>
<stop offset="1" stop-color="#635C70"/>
</linearGradient>
<linearGradient id="paint29_linear_29_1613" x1="274.383" y1="149.749" x2="277.143" y2="150.963" gradientUnits="userSpaceOnUse">
<stop stop-color="#2B233C"/>
<stop offset="1" stop-color="#635C70"/>
</linearGradient>
<linearGradient id="paint30_linear_29_1613" x1="268.162" y1="156.252" x2="238.607" y2="166.667" gradientUnits="userSpaceOnUse">
<stop stop-color="#6ED1F1"/>
<stop offset="1" stop-color="#3D7FE1"/>
</linearGradient>
<linearGradient id="paint31_linear_29_1613" x1="252.499" y1="127.01" x2="252.499" y2="162.55" gradientUnits="userSpaceOnUse">
<stop stop-color="white"/>
<stop offset="1" stop-color="#FFD0D0"/>
</linearGradient>
<linearGradient id="paint32_linear_29_1613" x1="282.705" y1="82.1497" x2="263.434" y2="128.76" gradientUnits="userSpaceOnUse">
<stop stop-color="#2B233C"/>
<stop offset="1" stop-color="#635C70"/>
</linearGradient>
<clipPath id="clip0_29_1613">
<rect width="720" height="400" fill="white"/>
</clipPath>
</defs>
</svg>
