<svg width="720" height="400" viewBox="0 0 720 400" fill="none" xmlns="http://www.w3.org/2000/svg">
<g clip-path="url(#clip0_118_715)">
<rect width="720" height="400" fill="white"/>
<rect width="720" height="400" fill="url(#paint0_linear_118_715)"/>
<path fill-rule="evenodd" clip-rule="evenodd" d="M515.338 331.463C616.498 281.479 580.917 185.397 544.003 130.904C492.317 54.6052 370.184 27.181 319.665 88.056C251.093 170.687 181.74 151.139 158.082 205.032C134.424 258.925 177.822 311.605 202.237 331.571C244.043 329.812 300.039 328.739 360.119 328.739C420.203 328.742 473.857 329.769 515.338 331.463ZM269.492 118.835C243.017 135.783 199.229 148.915 184.686 130.898C173.824 117.437 187.207 92.1809 213.416 73.0343C239.606 53.9002 274.699 42.317 293.824 56.4079C316.523 73.1271 289.881 105.783 269.492 118.835Z" fill="white" fill-opacity="0.16"/>
<path fill-rule="evenodd" clip-rule="evenodd" d="M561.937 186.683C562.549 188.353 561.693 190.202 560.023 190.814C558.353 191.426 556.504 190.57 555.892 188.9C552.803 180.505 549.083 172.283 544.986 164.422C540.446 155.709 535.493 147.518 530.453 140.078C526.009 133.52 520.966 127.351 515.443 121.606C509.732 115.659 503.505 110.18 496.909 105.192C488.718 99.002 479.859 93.5073 470.576 88.8443C461.319 84.1938 451.594 80.3409 441.643 77.422C439.939 76.921 438.965 75.1338 439.466 73.43C439.967 71.7262 441.755 70.7522 443.458 71.2532C453.743 74.268 463.82 78.2661 473.449 83.1022C483.14 87.9723 492.336 93.6712 500.787 100.056C507.63 105.227 514.108 110.935 520.078 117.147C525.817 123.121 531.093 129.574 535.768 136.476C541.015 144.222 546.111 152.635 550.703 161.448C554.908 169.515 558.736 177.988 561.937 186.683ZM418.149 65.9068C419.909 66.1295 421.155 67.7374 420.932 69.4937C420.709 71.2532 419.101 72.4993 417.345 72.2767C409.769 71.2964 401.943 70.8914 394.132 71.2284C386.953 71.5376 379.785 72.4807 372.843 74.1845C371.118 74.6081 369.377 73.5537 368.953 71.8283C368.53 70.1029 369.584 68.362 371.309 67.9384C378.662 66.1326 386.254 65.1338 393.857 64.806C402.024 64.4566 410.215 64.8802 418.149 65.9068ZM241.798 159.515C243.412 158.77 245.323 159.475 246.065 161.089C246.81 162.703 246.105 164.614 244.491 165.356C238.171 168.266 232.018 170.851 225.87 173.433C220.221 175.808 214.569 178.183 209.21 180.61C205.533 182.273 201.879 184.011 198.428 185.891C194.986 187.765 191.64 189.834 188.505 192.202C187.086 193.272 185.07 192.991 183.997 191.571C182.927 190.152 183.208 188.136 184.624 187.063C187.986 184.528 191.606 182.289 195.354 180.248C199.089 178.213 202.849 176.423 206.563 174.741C212.271 172.156 217.825 169.821 223.375 167.49C229.627 164.865 235.883 162.236 241.798 159.515ZM174.822 196.411C175.942 195.035 177.967 194.828 179.343 195.944C180.719 197.063 180.926 199.088 179.81 200.464C178.471 202.106 177.24 203.86 176.112 205.73C174.974 207.614 173.966 209.565 173.072 211.602C172.364 213.229 170.469 213.974 168.842 213.263C167.216 212.555 166.47 210.659 167.182 209.033C168.214 206.683 169.349 204.478 170.598 202.406C171.851 200.325 173.258 198.331 174.822 196.411ZM292.324 70.4615C292.719 72.1931 291.637 73.9186 289.906 74.3144C288.174 74.7102 286.449 73.6279 286.053 71.8963C285.966 71.5129 285.765 71.1604 285.502 70.8357C285.144 70.3935 284.655 69.9761 284.123 69.5834C281.953 67.9878 279.21 67.1344 276.303 66.7603C272.293 66.247 267.948 66.6459 264.235 67.3014C258.978 68.229 253.65 69.871 248.477 71.9612C242.577 74.3453 236.863 77.323 231.659 80.4986C230.144 81.4232 228.165 80.9439 227.24 79.4288C226.316 77.9136 226.795 75.9346 228.31 75.0101C233.783 71.6675 239.822 68.5259 246.084 65.9934C251.671 63.7331 257.432 61.9582 263.125 60.9532C267.318 60.2142 272.305 59.7751 277.104 60.3905C281.025 60.8945 284.801 62.1004 287.92 64.3979L287.933 64.4102C288.848 65.0843 289.729 65.8543 290.484 66.7819C291.34 67.8301 291.996 69.0392 292.324 70.4615ZM213.749 85.3657C215.113 84.234 217.135 84.4195 218.27 85.78C219.402 87.1437 219.216 89.1659 217.856 90.3007C214.337 93.2197 210.904 96.4634 207.837 99.9328C205.125 103 202.707 106.235 200.787 109.565C199.906 111.102 197.942 111.63 196.405 110.749C194.869 109.868 194.34 107.904 195.221 106.368C197.376 102.629 200.051 99.0422 203.026 95.678C206.316 91.955 209.989 88.4856 213.749 85.3657Z" fill="white" fill-opacity="0.36"/>
<path fill-rule="evenodd" clip-rule="evenodd" d="M212.015 331.182C214.39 308.578 206.499 312.258 195.791 296.905C191.372 290.57 191.557 284.899 194.634 278.145C196.653 273.714 198.703 268.198 196.258 263.535C193.601 258.476 188.487 258.248 183.586 257.165C171.001 254.389 166.984 244.157 160.648 234.395C159.01 231.868 156.74 229.571 153.84 228.832C139.878 225.285 134.909 248.025 140.525 256.983C144.031 262.58 149.523 266.309 153.085 271.936C156.267 276.967 156.211 280.941 155.624 286.581C154.69 295.539 159.167 303.94 165.37 310.035C168.889 313.495 172.782 316.726 175.299 321.061C177.94 325.61 182.108 329.379 186.966 332.277C194.733 331.887 203.107 331.519 212.015 331.182Z" fill="url(#paint1_linear_118_715)"/>
<path fill-rule="evenodd" clip-rule="evenodd" d="M206.267 331.407C201.325 326.441 197.231 321.714 193.774 317.174C193.62 313.244 194.117 309.045 195.271 304.589C193.808 308.037 192.469 311.253 191.931 314.701C184.288 304.119 180.042 294.583 176.517 285.508C177.97 279.63 180.716 273.708 184.751 267.743C180.645 272.215 177.537 277.184 175.422 282.65C170.098 268.597 165.843 255.52 152.401 241.207C158.014 249.246 161.984 256.599 165.212 263.649C160.395 261.04 155.172 259.342 149.538 258.547C156.186 260.526 161.866 263.254 166.585 266.723C171.737 278.553 175.144 289.667 181.239 301.911C176.406 299.283 171.161 297.573 165.506 296.775C172.346 298.813 178.162 301.639 182.958 305.251C187.244 313.328 192.825 321.955 200.908 331.627C202.667 331.553 204.455 331.479 206.267 331.407Z" fill="white" fill-opacity="0.36"/>
<path fill-rule="evenodd" clip-rule="evenodd" d="M202.525 331.562C197.494 317.081 193.05 321.525 181.353 314.481C176.356 311.475 174.754 307.489 174.822 301.852C174.868 298.154 174.602 293.695 171.483 291.228C168.1 288.553 164.488 289.994 160.762 290.773C151.198 292.78 145.292 286.951 137.923 282.168C136.019 280.931 133.743 280.047 131.51 280.442C120.759 282.344 124.265 299.642 130.886 304.091C135.023 306.874 139.964 307.74 144.151 310.526C147.893 313.015 149.064 315.783 150.382 319.873C152.472 326.37 158.137 330.789 164.293 333.074C164.711 333.228 165.131 333.38 165.555 333.531C176.186 332.805 188.604 332.146 202.525 331.562Z" fill="url(#paint2_linear_118_715)"/>
<path fill-rule="evenodd" clip-rule="evenodd" d="M191.888 332.035C189.85 331.089 187.939 330.124 186.146 329.144C184.835 326.47 183.901 323.408 183.341 319.961C183.385 322.805 183.437 325.449 184.117 328.003C175.592 323.065 169.739 317.784 164.526 312.601C163.737 308.074 163.83 303.118 164.801 297.728C163.323 302.107 162.689 306.516 162.893 310.962C154.915 302.892 147.977 295.168 134.297 289.45C140.639 293.266 145.633 297.119 150.024 300.993C145.892 300.69 141.755 301.145 137.612 302.354C142.822 301.652 147.587 301.763 151.913 302.694C159.093 309.277 164.847 315.907 172.81 322.487C168.66 322.178 164.504 322.629 160.345 323.844C165.704 323.121 170.596 323.263 175.017 324.265C178.446 326.949 182.299 329.624 186.823 332.283C188.484 332.202 190.175 332.119 191.888 332.035Z" fill="white" fill-opacity="0.36"/>
<path fill-rule="evenodd" clip-rule="evenodd" d="M515.979 331.166C510.796 309.428 518.709 312.205 527.092 296.361C530.512 289.898 529.686 284.602 526.022 278.628C523.619 274.71 521.065 269.775 522.825 265.112C524.736 260.056 529.507 259.24 533.981 257.651C545.468 253.572 548.063 243.501 552.883 233.6C554.13 231.04 555.997 228.615 558.632 227.583C571.319 222.617 578.588 243.365 574.352 252.428C571.705 258.093 566.98 262.233 564.284 267.929C561.872 273.022 562.382 276.741 563.582 281.964C565.487 290.257 562.249 298.662 557.132 305.109C554.225 308.767 550.948 312.255 549.083 316.615C546.294 323.148 540.4 328.556 533.666 332.292C528.251 332.017 522.543 331.757 516.563 331.506L515.979 331.166Z" fill="url(#paint3_linear_118_715)"/>
<path fill-rule="evenodd" clip-rule="evenodd" d="M519.887 331.652C524.571 325.773 528.294 320.297 531.309 315.136C531.003 311.429 530.054 307.551 528.461 303.507C530.227 306.571 531.853 309.431 532.753 312.601C538.712 301.778 541.6 292.335 543.863 283.408C541.825 278.065 538.569 272.833 534.101 267.709C538.464 271.42 541.952 275.718 544.562 280.597C547.942 266.788 550.434 254.026 561.399 239.02C557.057 247.221 554.179 254.586 551.958 261.577C556.176 258.566 560.882 256.358 566.074 254.954C560.066 257.595 555.047 260.814 551.022 264.623C547.546 276.324 545.626 287.146 541.312 299.351C545.545 296.318 550.267 294.101 555.483 292.691C549.302 295.405 544.169 298.739 540.085 302.691C536.754 311.392 532.085 320.863 524.741 331.871C523.146 331.794 521.526 331.723 519.887 331.652Z" fill="white" fill-opacity="0.36"/>
<path fill-rule="evenodd" clip-rule="evenodd" d="M510.128 331.256C509.358 327.746 511.226 325.038 511.164 318.538C511.127 314.348 509.275 311.918 505.815 309.936C503.545 308.637 500.923 306.868 500.54 304.039C500.125 300.971 502.299 299.237 504.111 297.199C508.768 291.964 507.336 286.191 507.067 279.883C506.996 278.253 507.277 276.519 508.319 275.27C513.338 269.255 522.621 277.647 522.951 283.371C523.162 286.945 521.916 290.338 522.107 293.943C522.281 297.165 523.548 298.893 525.564 301.179C528.774 304.812 529.43 309.929 528.613 314.583C528.149 317.224 527.451 319.886 527.698 322.592C527.979 325.656 527.197 328.893 525.775 331.911C520.775 331.686 515.558 331.463 510.128 331.256Z" fill="url(#paint4_linear_118_715)"/>
<path fill-rule="evenodd" clip-rule="evenodd" d="M518.063 331.575C518.227 329.902 518.332 328.309 518.381 326.788C517.222 325.01 515.691 323.331 513.793 321.741C515.509 322.79 517.104 323.773 518.415 325.112C518.465 318.028 517.349 312.487 516.065 307.379C513.592 305.263 510.537 303.541 506.903 302.212C510.101 302.864 513.016 304.051 515.654 305.774C513.601 297.904 511.384 290.811 512.815 280.239C512.862 285.557 513.418 290.053 514.201 294.178C515.5 291.494 517.262 289.082 519.485 286.933C517.188 289.926 515.543 292.935 514.556 295.962C515.991 302.799 517.964 308.764 519.114 316.083C520.413 313.387 522.182 310.962 524.414 308.807C522.049 311.884 520.379 314.982 519.402 318.099C519.921 322.082 520.181 326.491 519.98 331.652L518.063 331.575Z" fill="white" fill-opacity="0.36"/>
<path fill-rule="evenodd" clip-rule="evenodd" d="M565.118 226.834C560.969 223.643 561.086 220.514 562.376 219.729C563.665 218.94 566.284 222.208 565.607 226.72C565.873 227.221 566.136 227.722 566.389 228.226C568.532 232.477 570.192 236.973 571.38 241.584C572.567 246.197 573.278 250.934 573.526 255.693C573.773 260.455 573.544 265.242 572.858 269.96C572.171 274.688 571.012 279.351 569.385 283.844C567.759 288.337 565.662 292.654 563.115 296.695C562.948 296.961 562.521 296.723 562.685 296.457C562.991 295.965 563.291 295.474 563.585 294.976C565.993 290.891 567.951 286.543 569.45 282.044C570.941 277.57 571.974 272.944 572.549 268.263C573.13 263.55 573.235 258.779 572.883 254.045C572.53 249.339 571.711 244.67 570.427 240.13C569.135 235.566 567.369 231.139 565.149 226.949C565.131 226.908 565.118 226.868 565.118 226.834ZM568.309 231.429C568.309 231.429 569.791 230.625 571.021 229.401C571.633 228.788 572.165 228.074 572.419 227.301C572.669 226.528 572.641 225.696 572.082 224.914C570.975 223.334 569.889 224.079 569.16 225.641C568.789 226.423 568.532 227.394 568.362 228.414C568.189 229.438 568.18 230.477 568.309 231.429ZM568.111 234.432C567.836 234.051 567.509 233.69 567.137 233.362C566.76 233.04 566.349 232.75 565.922 232.496C565.084 231.989 564.154 231.661 563.34 231.531C561.717 231.271 560.517 231.794 560.925 233.291C561.034 233.665 561.21 233.962 561.454 234.197C561.698 234.429 562.008 234.599 562.36 234.716C562.713 234.834 563.108 234.905 563.523 234.939C563.934 234.976 564.361 234.979 564.784 234.96C566.485 234.88 568.111 234.432 568.111 234.432ZM571.098 239.126C571.098 239.126 572.663 238.507 574.021 237.443C574.701 236.912 575.325 236.262 575.678 235.526C576.021 234.793 576.071 233.974 575.635 233.124C574.726 231.429 573.541 232.038 572.648 233.489C572.202 234.212 571.779 235.158 571.51 236.142C571.377 236.633 571.259 237.14 571.182 237.647C571.108 238.152 571.077 238.649 571.098 239.126ZM570.545 242.082C570.087 241.259 569.382 240.502 568.606 239.899C567.808 239.302 566.943 238.853 566.16 238.622C565.369 238.393 564.648 238.374 564.169 238.603C563.684 238.832 563.445 239.299 563.541 240.081C563.761 241.621 565.465 242.085 567.178 242.211C568.885 242.332 570.545 242.082 570.545 242.082ZM572.948 247.097C572.948 247.097 574.577 246.664 576.058 245.764C576.803 245.313 577.49 244.744 577.917 244.057C578.334 243.374 578.52 242.561 578.161 241.673C577.462 239.889 576.228 240.35 575.149 241.686C574.605 242.354 574.123 243.232 573.708 244.184C573.507 244.657 573.34 245.149 573.214 245.638C573.09 246.126 572.982 246.621 572.948 247.097ZM572.057 249.967C571.875 249.534 571.637 249.104 571.355 248.702C571.071 248.297 570.731 247.92 570.378 247.573C570.022 247.227 569.645 246.921 569.265 246.658C568.872 246.395 568.476 246.182 568.096 246.021C566.575 245.381 565.285 245.6 565.338 247.162C565.353 248.73 567.032 249.379 568.696 249.707C570.372 250.028 572.057 249.967 572.057 249.967ZM573.767 253.983C573.767 253.983 574.188 253.918 574.797 253.767C575.409 253.615 576.216 253.374 576.995 253.009C577.778 252.647 578.532 252.159 579.042 251.525C579.559 250.891 579.781 250.112 579.555 249.187C579.333 248.263 578.857 247.879 578.328 247.879C577.793 247.876 577.171 248.26 576.568 248.856C575.95 249.456 575.338 250.276 574.846 251.173C574.351 252.072 573.94 253.046 573.767 253.983ZM191.448 264.71C194.754 260.65 193.919 257.632 192.484 257.162C191.046 256.692 189.25 260.474 190.947 264.71C190.802 265.257 190.663 265.805 190.53 266.355C189.423 270.987 188.839 275.743 188.743 280.501C188.65 285.266 189.043 290.038 189.896 294.725C190.753 299.419 192.073 304.023 193.823 308.458C195.58 312.901 197.778 317.171 200.394 321.172C203.007 325.171 206.04 328.89 209.451 332.236C209.677 332.456 210.038 332.128 209.813 331.905C209.401 331.497 208.996 331.089 208.597 330.671C205.314 327.252 202.407 323.467 199.918 319.435C197.438 315.421 195.369 311.157 193.733 306.735C192.085 302.282 190.883 297.663 190.14 292.975C189.401 288.315 189.126 283.581 189.333 278.869C189.541 274.132 190.242 269.416 191.439 264.827C191.455 264.781 191.458 264.744 191.448 264.71ZM189.398 269.914C189.398 269.914 187.772 269.475 186.291 268.563C185.555 268.108 184.871 267.533 184.448 266.84C184.024 266.148 183.86 265.331 184.228 264.438C184.939 262.644 186.17 263.124 187.237 264.475C187.778 265.152 188.251 266.036 188.653 266.992C189.058 267.947 189.306 268.955 189.398 269.914ZM190.28 272.79C190.462 272.357 190.697 271.927 190.981 271.525C191.275 271.123 191.609 270.746 191.965 270.406C192.664 269.719 193.495 269.187 194.256 268.872C195.777 268.244 197.064 268.476 197.008 270.028C196.99 270.415 196.884 270.746 196.702 271.03C196.516 271.312 196.254 271.547 195.938 271.745C195.623 271.942 195.255 272.1 194.859 272.23C194.469 272.36 194.052 272.462 193.635 272.539C191.965 272.852 190.28 272.79 190.28 272.79ZM188.452 278.046C188.452 278.046 186.785 277.805 185.221 277.082C184.439 276.72 183.681 276.234 183.168 275.597C182.664 274.96 182.429 274.178 182.657 273.247C183.152 271.389 184.448 271.71 185.651 272.916C186.251 273.519 186.878 274.342 187.37 275.239C187.611 275.687 187.843 276.154 188.032 276.627C188.22 277.097 188.366 277.576 188.452 278.046ZM189.674 280.792C189.93 279.886 190.443 278.986 191.059 278.223C191.699 277.459 192.438 276.825 193.146 276.417C193.863 276.012 194.559 275.829 195.079 275.941C195.601 276.052 195.941 276.454 196.028 277.233C196.167 278.782 194.618 279.626 192.979 280.143C191.343 280.656 189.674 280.792 189.674 280.792ZM188.486 286.228C188.486 286.228 186.801 286.182 185.153 285.647C184.324 285.378 183.523 284.985 182.951 284.413C182.385 283.841 182.02 283.096 182.166 282.15C182.435 280.251 183.743 280.415 185.1 281.469C185.784 281.995 186.458 282.737 187.076 283.569C187.382 283.983 187.657 284.422 187.892 284.871C188.121 285.316 188.341 285.774 188.486 286.228ZM190.011 288.816C190.088 288.352 190.221 287.882 190.403 287.422C190.586 286.964 190.83 286.516 191.096 286.101C191.365 285.684 191.659 285.297 191.971 284.954C192.293 284.611 192.627 284.308 192.96 284.064C194.293 283.09 195.601 283.009 195.907 284.54C196.254 286.067 194.766 287.088 193.223 287.79C191.668 288.488 190.011 288.816 190.011 288.816ZM189.272 293.121C189.272 293.121 188.848 293.155 188.22 293.148C187.589 293.142 186.751 293.093 185.904 292.92C185.06 292.746 184.213 292.446 183.573 291.945C182.923 291.448 182.528 290.74 182.537 289.79C182.543 288.841 182.917 288.359 183.43 288.235C183.95 288.111 184.643 288.337 185.366 288.782C186.105 289.224 186.891 289.883 187.574 290.641C188.263 291.392 188.888 292.245 189.272 293.121Z" fill="white" fill-opacity="0.36"/>
<path fill-rule="evenodd" clip-rule="evenodd" d="M524.324 331.784C527.373 315.115 532.005 319.509 542.648 311.154C546.99 307.746 548.035 303.822 547.324 298.541C546.857 295.078 546.594 290.863 549.238 288.182C552.104 285.276 555.657 286.203 559.241 286.5C568.443 287.261 573.313 281.098 579.677 275.749C581.322 274.366 583.356 273.269 585.493 273.38C595.796 273.903 594.494 290.538 588.792 295.492C585.23 298.587 580.694 299.979 577.085 303.083C573.86 305.857 573.078 308.593 572.314 312.582C571.099 318.921 566.291 323.729 560.781 326.596C557.651 328.222 554.315 329.614 551.693 332.05C551.241 332.471 550.765 332.867 550.27 333.241C542.469 332.746 533.802 332.282 524.374 331.856L524.324 331.784Z" fill="url(#paint5_linear_118_715)"/>
<path fill-rule="evenodd" clip-rule="evenodd" d="M529.256 332.078C533.276 329.886 536.76 327.681 539.834 325.474C540.756 322.811 541.281 319.83 541.414 316.531C541.702 319.206 541.955 321.689 541.609 324.169C549.039 318.535 553.922 312.898 558.217 307.422C558.436 303.083 557.781 298.445 556.253 293.501C558.14 297.434 559.243 301.497 559.562 305.693C566.12 297.187 571.742 289.125 583.919 282.162C578.409 286.485 574.166 290.684 570.493 294.833C574.333 294.064 578.266 294.005 582.289 294.654C577.323 294.605 572.864 295.269 568.916 296.649C562.935 303.668 558.3 310.56 551.587 317.666C555.443 316.887 559.392 316.825 563.433 317.477C558.325 317.425 553.752 318.133 549.72 319.592C545.595 323.736 540.666 327.96 534.268 332.329C532.623 332.242 530.95 332.162 529.256 332.078Z" fill="white" fill-opacity="0.36"/>
<path d="M360.122 350.777C490.394 350.777 596 345.844 596 339.759C596 333.675 490.394 328.742 360.122 328.742C229.85 328.742 124.244 333.675 124.244 339.759C124.244 345.844 229.85 350.777 360.122 350.777Z" fill="white" fill-opacity="0.26"/>
<path fill-rule="evenodd" clip-rule="evenodd" d="M265.326 159.086V222.273C265.326 224.964 263.146 227.14 260.459 227.14H157.438C154.751 227.14 152.571 224.961 152.571 222.273V159.086C152.571 156.398 154.748 154.219 157.438 154.219H260.459C263.146 154.219 265.326 156.395 265.326 159.086Z" fill="white"/>
<path fill-rule="evenodd" clip-rule="evenodd" d="M265.326 159.086V164.123H152.574V159.086C152.574 156.398 154.751 154.219 157.441 154.219H260.462C263.146 154.219 265.326 156.395 265.326 159.086Z" fill="url(#paint6_linear_118_715)"/>
<path fill-rule="evenodd" clip-rule="evenodd" d="M174.847 159.169C174.847 160.702 173.604 161.942 172.073 161.942C170.54 161.942 169.297 160.699 169.297 159.169C169.297 157.635 170.54 156.395 172.073 156.395C173.604 156.392 174.847 157.635 174.847 159.169ZM167.608 159.169C167.608 160.702 166.365 161.942 164.835 161.942C163.301 161.942 162.058 160.699 162.058 159.169C162.058 157.635 163.301 156.395 164.835 156.395C166.365 156.392 167.608 157.635 167.608 159.169ZM160.184 159.169C160.184 160.702 158.941 161.942 157.411 161.942C155.877 161.942 154.634 160.699 154.634 159.169C154.634 157.635 155.877 156.395 157.411 156.395C158.944 156.392 160.184 157.635 160.184 159.169Z" fill="white"/>
<path d="M224.926 178.875H195.711C194.705 178.875 193.889 179.691 193.889 180.698C193.889 181.705 194.705 182.521 195.711 182.521H224.926C225.933 182.521 226.749 181.705 226.749 180.698C226.749 179.691 225.933 178.875 224.926 178.875Z" fill="url(#paint7_linear_118_715)"/>
<path d="M256.14 178.875H231.044V182.521H256.14V178.875Z" fill="white"/>
<path d="M218.68 185.282H165.987C164.98 185.282 164.164 186.098 164.164 187.105C164.164 188.111 164.98 188.927 165.987 188.927H218.68C219.687 188.927 220.503 188.111 220.503 187.105C220.503 186.098 219.687 185.282 218.68 185.282Z" fill="url(#paint8_linear_118_715)"/>
<path d="M234.006 170.248H181.31C180.304 170.248 179.489 171.063 179.489 172.069C179.489 173.075 180.304 173.891 181.31 173.891H234.006C235.012 173.891 235.828 173.075 235.828 172.069C235.828 171.063 235.012 170.248 234.006 170.248Z" fill="url(#paint9_linear_118_715)"/>
<path d="M238.61 185.282H224.918V188.927H238.61V185.282Z" fill="#BCC9E7"/>
<path d="M256.143 185.282H242.912V188.927H256.143V185.282Z" fill="white"/>
<path d="M256.14 170.248H240.036V173.891H256.14V170.248Z" fill="white"/>
<path d="M192.068 191.692H165.985C164.979 191.692 164.164 192.508 164.164 193.513C164.164 194.519 164.979 195.335 165.985 195.335H192.068C193.073 195.335 193.889 194.519 193.889 193.513C193.889 192.508 193.073 191.692 192.068 191.692Z" fill="url(#paint10_linear_118_715)"/>
<path d="M236.792 191.692H200.128C199.123 191.692 198.307 192.508 198.307 193.513C198.307 194.519 199.123 195.335 200.128 195.335H236.792C237.798 195.335 238.613 194.519 238.613 193.513C238.613 192.508 237.798 191.692 236.792 191.692Z" fill="url(#paint11_linear_118_715)"/>
<path d="M192.066 198.099H177.465C176.458 198.099 175.642 198.915 175.642 199.922C175.642 200.929 176.458 201.745 177.465 201.745H192.066C193.073 201.745 193.889 200.929 193.889 199.922C193.889 198.915 193.073 198.099 192.066 198.099Z" fill="url(#paint12_linear_118_715)"/>
<path d="M256.143 198.099H198.187V201.745H256.143V198.099Z" fill="white"/>
<path d="M187.649 204.506H165.985C164.979 204.506 164.164 205.321 164.164 206.327C164.164 207.333 164.979 208.148 165.985 208.148H187.649C188.655 208.148 189.47 207.333 189.47 206.327C189.47 205.321 188.655 204.506 187.649 204.506Z" fill="url(#paint13_linear_118_715)"/>
<path d="M236.792 204.506H195.71C194.704 204.506 193.889 205.321 193.889 206.327C193.889 207.333 194.704 208.148 195.71 208.148H236.792C237.798 208.148 238.613 207.333 238.613 206.327C238.613 205.321 237.798 204.506 236.792 204.506Z" fill="url(#paint14_linear_118_715)"/>
<path d="M256.143 204.506H242.912V208.148H256.143V204.506Z" fill="white"/>
<path d="M204.721 210.913H165.985C164.979 210.913 164.164 211.728 164.164 212.734C164.164 213.74 164.979 214.555 165.985 214.555H204.721C205.726 214.555 206.542 213.74 206.542 212.734C206.542 211.728 205.726 210.913 204.721 210.913Z" fill="url(#paint15_linear_118_715)"/>
<path d="M226.749 210.913H210.96V214.555H226.749V210.913Z" fill="#BCC9E7"/>
<path d="M256.14 210.913H231.044V214.555H256.14V210.913Z" fill="white"/>
<path d="M236.79 217.32H184.524C183.517 217.32 182.701 218.136 182.701 219.142C182.701 220.149 183.517 220.965 184.524 220.965H236.79C237.797 220.965 238.613 220.149 238.613 219.142C238.613 218.136 237.797 217.32 236.79 217.32Z" fill="url(#paint16_linear_118_715)"/>
<path d="M256.143 217.32H242.912V220.965H256.143V217.32Z" fill="white"/>
<path d="M455.286 114.825H268.91V288.779H455.286V114.825Z" fill="url(#paint17_linear_118_715)"/>
<path d="M455.286 114.825H268.91V133.223H455.286V114.825Z" fill="url(#paint18_linear_118_715)"/>
<path fill-rule="evenodd" clip-rule="evenodd" d="M414.999 124.231C414.999 126.092 413.49 127.604 411.628 127.604C409.764 127.604 408.255 126.095 408.255 124.231C408.255 122.369 409.764 120.86 411.628 120.86C413.49 120.857 414.999 122.369 414.999 124.231ZM442.154 124.586C442.154 126.448 440.645 127.96 438.78 127.96C436.916 127.96 435.407 126.451 435.407 124.586C435.407 122.725 436.916 121.216 438.78 121.216C440.645 121.213 442.154 122.725 442.154 124.586ZM429.08 124.231C429.08 126.092 427.571 127.604 425.71 127.604C423.849 127.604 422.336 126.095 422.336 124.231C422.336 122.369 423.845 120.86 425.71 120.86C427.571 120.857 429.08 122.369 429.08 124.231ZM328.45 151.434C328.45 152.046 327.953 152.542 327.341 152.542H303.161C302.548 152.542 302.052 152.046 302.052 151.434V151.434C302.052 150.822 302.548 150.325 303.161 150.325H327.341C327.953 150.325 328.45 150.822 328.45 151.434V151.434ZM334.591 213.436C334.591 212.823 334.094 212.326 333.481 212.326H304.461C303.848 212.326 303.351 212.823 303.351 213.436V213.436C303.351 214.049 303.848 214.546 304.461 214.546H333.481C334.094 214.546 334.591 214.049 334.591 213.436V213.436ZM377.618 213.436C377.618 212.823 377.121 212.326 376.508 212.326H347.485C346.872 212.326 346.375 212.823 346.375 213.436V213.436C346.375 214.049 346.872 214.546 347.485 214.546H376.508C377.121 214.546 377.618 214.049 377.618 213.436V213.436ZM413.549 225.389C413.549 224.776 413.052 224.28 412.44 224.28H392.378C391.766 224.28 391.27 224.776 391.27 225.389V225.389C391.27 226.001 391.766 226.497 392.378 226.497H412.44C413.052 226.497 413.549 226.001 413.549 225.389V225.389ZM376.941 225.389C376.941 224.776 376.444 224.28 375.832 224.28H355.77C355.158 224.28 354.662 224.776 354.662 225.389V225.389C354.662 226.001 355.158 226.497 355.77 226.497H375.832C376.444 226.497 376.941 226.001 376.941 225.389V225.389ZM342.831 225.389C342.831 224.776 342.335 224.28 341.723 224.28H321.661C321.049 224.28 320.552 224.776 320.552 225.389V225.389C320.552 226.001 321.049 226.497 321.661 226.497H341.723C342.335 226.497 342.831 226.001 342.831 225.389V225.389ZM405.231 237.34C405.231 236.728 404.734 236.231 404.122 236.231H389.867C389.255 236.231 388.759 236.728 388.759 237.34V237.34C388.759 237.952 389.255 238.448 389.867 238.448H404.122C404.734 238.448 405.231 237.952 405.231 237.34V237.34ZM383.598 237.34C383.598 236.728 383.102 236.231 382.49 236.231H325.523C324.911 236.231 324.415 236.728 324.415 237.34V237.34C324.415 237.952 324.911 238.448 325.523 238.448H382.49C383.102 238.448 383.598 237.952 383.598 237.34V237.34ZM438.793 249.291C438.793 248.679 438.297 248.182 437.684 248.182H380.263C379.651 248.182 379.155 248.679 379.155 249.291V249.291C379.155 249.903 379.651 250.399 380.263 250.399H437.684C438.297 250.399 438.793 249.903 438.793 249.291V249.291ZM369.857 248.182H311.324C310.712 248.182 310.215 248.679 310.215 249.291V249.291C310.215 249.903 310.712 250.399 311.324 250.399H368.745C369.357 250.399 369.854 249.903 369.854 249.291V248.185C369.854 248.184 369.855 248.182 369.857 248.182V248.182ZM413.867 261.242C413.867 260.63 413.371 260.133 412.759 260.133H384.459C383.847 260.133 383.351 260.63 383.351 261.242V261.242C383.351 261.854 383.847 262.351 384.459 262.351H412.759C413.371 262.351 413.867 261.854 413.867 261.242V261.242ZM373.771 261.242C373.771 260.63 373.275 260.133 372.663 260.133H344.363C343.751 260.133 343.255 260.63 343.255 261.242V261.242C343.255 261.854 343.751 262.351 344.363 262.351H372.663C373.275 262.351 373.771 261.854 373.771 261.242V261.242ZM332.569 261.242C332.569 260.63 332.072 260.133 331.46 260.133H303.158C302.545 260.133 302.049 260.63 302.049 261.242V261.242C302.049 261.854 302.545 262.351 303.158 262.351H331.46C332.072 262.351 332.569 261.854 332.569 261.242V261.242ZM372.265 199.238C372.265 199.851 371.769 200.347 371.157 200.347H352.397C351.785 200.347 351.288 199.851 351.288 199.238V199.238C351.288 198.626 351.785 198.13 352.397 198.13H371.157C371.769 198.13 372.265 198.626 372.265 199.238V199.238ZM342.315 199.238C342.315 199.851 341.819 200.347 341.206 200.347H322.446C321.834 200.347 321.338 199.851 321.338 199.238V199.238C321.338 198.626 321.834 198.13 322.446 198.13H341.206C341.819 198.13 342.315 198.626 342.315 199.238V199.238ZM406.539 187.287C406.539 187.9 406.042 188.396 405.43 188.396H339.487C338.875 188.396 338.379 187.9 338.379 187.287V187.287C338.379 186.675 338.875 186.179 339.487 186.179H405.43C406.042 186.179 406.539 186.675 406.539 187.287V187.287ZM412.426 175.335C412.426 175.948 411.929 176.445 411.316 176.445H353.895C353.282 176.445 352.785 175.948 352.785 175.335V175.335C352.785 174.722 353.282 174.225 353.895 174.225H411.316C411.929 174.225 412.426 174.722 412.426 175.335V175.335ZM342.392 175.335C342.392 175.948 341.895 176.445 341.282 176.445H325.525C324.912 176.445 324.415 175.948 324.415 175.335V175.335C324.415 174.722 324.912 174.225 325.525 174.225H341.282C341.895 174.225 342.392 174.722 342.392 175.335V175.335ZM378.725 163.385C378.725 163.997 378.229 164.494 377.616 164.494H359.026C358.414 164.494 357.918 163.997 357.918 163.385V163.385C357.918 162.773 358.414 162.276 359.026 162.276H377.616C378.229 162.276 378.725 162.773 378.725 163.385V163.385ZM351.149 164.494H311.324C310.712 164.494 310.215 163.997 310.215 163.385V163.385C310.215 162.773 310.712 162.276 311.324 162.276H350.038C350.65 162.276 351.146 162.773 351.146 163.385V164.49C351.146 164.492 351.147 164.494 351.149 164.494V164.494ZM359.43 151.434C359.43 152.046 358.934 152.542 358.321 152.542H334.141C333.529 152.542 333.032 152.046 333.032 151.434V151.434C333.032 150.822 333.529 150.325 334.141 150.325H358.321C358.934 150.325 359.43 150.822 359.43 151.434V151.434ZM287.615 164.092C287.615 164.875 286.98 165.511 286.196 165.511V165.511C285.412 165.511 284.776 164.875 284.776 164.092V161.139C284.776 160.355 285.412 159.719 286.196 159.719V159.719C286.98 159.719 287.615 160.355 287.615 161.139V164.092ZM287.615 262.501C287.615 263.284 286.98 263.921 286.196 263.921V263.921C285.412 263.921 284.776 263.284 284.776 262.501V262.501C284.776 261.717 285.412 261.08 286.196 261.08V261.08C286.98 261.08 287.615 261.717 287.615 262.501V262.501ZM287.615 178.572C287.615 179.356 286.98 179.991 286.196 179.991V179.991C285.412 179.991 284.776 179.356 284.776 178.572V175.619C284.776 174.835 285.412 174.2 286.196 174.2V174.2C286.98 174.2 287.615 174.835 287.615 175.619V178.572ZM287.615 193.053C287.615 193.836 286.98 194.472 286.196 194.472V194.472C285.412 194.472 284.776 193.836 284.776 193.053V190.1C284.776 189.316 285.412 188.68 286.196 188.68V188.68C286.98 188.68 287.615 189.316 287.615 190.1V193.053ZM287.615 207.533C287.615 208.317 286.98 208.952 286.196 208.952V208.952C285.412 208.952 284.776 208.317 284.776 207.533V204.577C284.776 203.793 285.412 203.158 286.196 203.158V203.158C286.98 203.158 287.615 203.793 287.615 204.577V207.533ZM287.615 222.01C287.615 222.794 286.98 223.43 286.196 223.43V223.43C285.412 223.43 284.776 222.794 284.776 222.01V219.057C284.776 218.274 285.412 217.638 286.196 217.638V217.638C286.98 217.638 287.615 218.274 287.615 219.057V222.01ZM287.615 236.494C287.615 237.278 286.98 237.913 286.196 237.913V237.913C285.412 237.913 284.776 237.278 284.776 236.494V233.541C284.776 232.757 285.412 232.122 286.196 232.122V232.122C286.98 232.122 287.615 232.757 287.615 233.541V236.494ZM287.615 250.971C287.615 251.755 286.98 252.391 286.196 252.391V252.391C285.412 252.391 284.776 251.755 284.776 250.971V248.018C284.776 247.235 285.412 246.599 286.196 246.599V246.599C286.98 246.599 287.615 247.235 287.615 248.018V250.971Z" fill="white"/>
<path fill-rule="evenodd" clip-rule="evenodd" d="M523.69 199.466H441.482C440.279 199.466 439.302 198.492 439.302 197.289V141.519C439.302 140.316 440.279 139.342 441.482 139.342H523.69C524.893 139.342 525.867 140.316 525.867 141.519V197.286C525.87 198.489 524.893 199.466 523.69 199.466Z" fill="url(#paint19_linear_118_715)"/>
<path fill-rule="evenodd" clip-rule="evenodd" d="M440.614 196.559V145.613C440.614 144.849 441.232 144.231 441.996 144.231H523.18C523.944 144.231 524.562 144.849 524.562 145.613V196.559C524.562 197.323 523.944 197.944 523.18 197.944H441.996C441.232 197.941 440.614 197.323 440.614 196.559ZM523.95 141.788C523.95 142.45 523.412 142.988 522.75 142.988C522.089 142.988 521.548 142.45 521.548 141.788C521.548 141.123 522.086 140.585 522.75 140.585C523.412 140.585 523.95 141.123 523.95 141.788ZM519.983 141.788C519.983 142.45 519.445 142.988 518.78 142.988C518.115 142.988 517.58 142.45 517.58 141.788C517.58 141.123 518.118 140.585 518.78 140.585C519.442 140.585 519.983 141.123 519.983 141.788ZM516.013 141.788C516.013 142.45 515.475 142.988 514.813 142.988C514.148 142.988 513.61 142.45 513.61 141.788C513.61 141.123 514.148 140.585 514.813 140.585C515.475 140.585 516.013 141.123 516.013 141.788Z" fill="white"/>
<path fill-rule="evenodd" clip-rule="evenodd" d="M495.057 171.086C495.057 177.972 489.473 183.556 482.586 183.556C475.7 183.556 470.116 177.975 470.116 171.086C470.116 164.2 475.7 158.615 482.586 158.615C489.473 158.615 495.057 164.197 495.057 171.086Z" fill="url(#paint20_linear_118_715)"/>
<path fill-rule="evenodd" clip-rule="evenodd" d="M489.881 171.086L484.108 174.419L478.335 177.75V171.086V164.419L484.108 167.753L489.881 171.086Z" fill="white"/>
<path d="M524.562 192.313H440.614V193.968H524.562V192.313Z" fill="#E8EEFC"/>
<path d="M459.525 192.313H440.614V193.968H459.525V192.313Z" fill="url(#paint21_linear_118_715)"/>
<path fill-rule="evenodd" clip-rule="evenodd" d="M460.793 193.139C460.793 193.841 460.224 194.407 459.526 194.407C458.827 194.407 458.258 193.838 458.258 193.139C458.258 192.441 458.827 191.872 459.526 191.872C460.227 191.872 460.793 192.437 460.793 193.139Z" fill="url(#paint22_linear_118_715)"/>
<path d="M252.782 297.131H246.273V299.626H252.782V297.131Z" fill="#D0D9EE"/>
<path d="M264.838 124.831H177.374V150.848H264.838V124.831Z" fill="url(#paint23_linear_118_715)"/>
<path d="M194.297 126.596H181.699C180.594 126.596 179.699 127.492 179.699 128.596V140.035C179.699 141.14 180.594 142.035 181.699 142.035H194.297C195.402 142.035 196.297 141.14 196.297 140.035V128.596C196.297 127.492 195.402 126.596 194.297 126.596Z" fill="white"/>
<path d="M194.297 144.326H181.699C180.594 144.326 179.699 145.222 179.699 146.326V146.915C179.699 148.02 180.594 148.915 181.699 148.915H194.297C195.402 148.915 196.297 148.02 196.297 146.915V146.326C196.297 145.222 195.402 144.326 194.297 144.326Z" fill="white"/>
<path d="M215.448 133.476H202.849C201.745 133.476 200.849 134.372 200.849 135.476V146.915C200.849 148.02 201.745 148.915 202.849 148.915H215.448C216.552 148.915 217.448 148.02 217.448 146.915V135.476C217.448 134.372 216.552 133.476 215.448 133.476Z" fill="white"/>
<path d="M215.448 126.596H202.849C201.745 126.596 200.849 127.492 200.849 128.596V129.185C200.849 130.289 201.745 131.185 202.849 131.185H215.448C216.552 131.185 217.448 130.289 217.448 129.185V128.596C217.448 127.492 216.552 126.596 215.448 126.596Z" fill="white"/>
<path d="M238.236 126.596H225.638C224.533 126.596 223.638 127.492 223.638 128.596V140.035C223.638 141.14 224.533 142.035 225.638 142.035H238.236C239.341 142.035 240.236 141.14 240.236 140.035V128.596C240.236 127.492 239.341 126.596 238.236 126.596Z" fill="white"/>
<path d="M238.236 144.326H225.638C224.533 144.326 223.638 145.222 223.638 146.326V146.915C223.638 148.02 224.533 148.915 225.638 148.915H238.236C239.341 148.915 240.236 148.02 240.236 146.915V146.326C240.236 145.222 239.341 144.326 238.236 144.326Z" fill="white"/>
<path d="M259.39 133.476H246.792C245.687 133.476 244.792 134.372 244.792 135.476V146.915C244.792 148.02 245.687 148.915 246.792 148.915H259.39C260.495 148.915 261.39 148.02 261.39 146.915V135.476C261.39 134.372 260.495 133.476 259.39 133.476Z" fill="white"/>
<path d="M259.39 126.596H246.792C245.687 126.596 244.792 127.492 244.792 128.596V129.185C244.792 130.289 245.687 131.185 246.792 131.185H259.39C260.495 131.185 261.39 130.289 261.39 129.185V128.596C261.39 127.492 260.495 126.596 259.39 126.596Z" fill="white"/>
<path fill-rule="evenodd" clip-rule="evenodd" d="M565.654 201.961H541.677C539.776 201.961 538.229 200.418 538.229 198.513V174.537C538.229 172.635 539.772 171.092 541.677 171.092H565.654C567.555 171.092 569.098 172.635 569.098 174.537V198.513C569.098 200.421 567.555 201.961 565.654 201.961Z" fill="url(#paint24_linear_118_715)"/>
<path fill-rule="evenodd" clip-rule="evenodd" d="M549.767 185.35L545.469 186.825L549.767 188.3V190.709L542.534 188.087V185.564L549.767 182.941V185.35Z" fill="white"/>
<path fill-rule="evenodd" clip-rule="evenodd" d="M554.658 179.849H557.494L552.815 193.207H549.977L554.658 179.849Z" fill="white"/>
<path fill-rule="evenodd" clip-rule="evenodd" d="M564.794 185.564V188.087L557.562 190.709V188.3L561.86 186.825L557.562 185.35V182.941L564.794 185.564Z" fill="white"/>
<path fill-rule="evenodd" clip-rule="evenodd" d="M232.095 178.074C233.168 178.152 234.201 176.878 234.498 176.501C235.639 175.053 236.365 173.353 236.659 172.4C236.437 171.766 236.205 170.966 235.96 170.001C231.832 167.196 231.267 165.121 234.269 163.776C234.872 164.117 235.623 165.159 236.52 166.909C237.234 166.881 237.779 166.513 238.15 165.811C237.296 162.858 236.743 160.459 236.483 158.616C238.518 155.591 243.276 155.162 249.578 155.975C249.872 157.651 250.11 159.429 250.299 161.303C251.412 162.329 251.27 166.136 250.243 170.52C250.756 173.013 249.216 174.373 245.623 174.602C245.589 175.205 245.642 175.898 245.654 176.318C245.664 176.702 245.676 177.447 246.078 177.564L246.743 177.728C246.672 186.646 242.108 188.359 232.095 178.074Z" fill="url(#paint25_linear_118_715)"/>
<path fill-rule="evenodd" clip-rule="evenodd" d="M249.575 155.975C243.273 155.158 238.514 155.588 236.479 158.615C236.736 160.458 237.293 162.858 238.146 165.811C237.775 166.513 237.234 166.881 236.517 166.908C235.62 165.158 234.868 164.113 234.265 163.776C231.266 165.121 231.829 167.196 235.96 170C236.201 170.968 236.436 171.766 236.659 172.4C232.942 171.568 229.834 168.244 229.398 166.806C225.063 158.266 229.899 154.657 232.484 153.343C233.625 144.886 245.957 152.199 249.201 147.035C255.985 150.907 251.483 155.9 249.575 155.975Z" fill="#0F3970"/>
<path fill-rule="evenodd" clip-rule="evenodd" d="M241.479 173.736C242.488 174.234 243.867 174.521 245.62 174.605C245.586 175.198 245.611 175.882 245.648 176.305C243.885 175.962 242.497 175.109 241.479 173.736Z" fill="#FFA699"/>
<path fill-rule="evenodd" clip-rule="evenodd" d="M224.582 345.053C220.67 343.674 220.355 341.658 218.243 340.675C216.118 339.682 215.874 337.917 217.952 335.999C219.486 337.224 221.387 338.73 222.395 337.932C223.07 337.4 225.352 337.434 225.803 338.21C227.791 342.833 230.556 341.367 231.1 343.47C231.168 346.268 226.378 345.687 224.582 345.053ZM258.493 340.455C251.601 340.344 246.449 340.26 244.068 339.509C241.502 338.699 242.031 337.131 243.505 334.627C250.002 337.614 248.27 334.011 251.31 334.469C253.444 336.188 256.607 337.341 260.794 337.926C262.565 339.234 261.848 340.4 258.493 340.455Z" fill="#142D4D"/>
<path fill-rule="evenodd" clip-rule="evenodd" d="M255.051 179.082C251.609 178.083 248.52 177.477 245.784 177.267C245.289 184.824 241.347 184.772 233.953 177.109C226.835 177.706 225.444 177.799 221.492 179.079C212.948 187.242 212.163 196.661 207.695 207.428C212.639 207.65 214.859 208.244 218.22 209.444C218.944 206.865 219.547 204.787 220.032 203.213C219.896 217.409 219.844 227.134 219.875 232.391C236.229 238.872 249.702 236.652 255.206 231.602C255.283 218.983 255.388 208.996 255.521 201.636C257.478 203.94 259.29 205.73 260.963 206.998C264.974 202.4 267.689 200.551 269.964 197.839C264.93 189.574 257.72 181.884 255.051 179.082Z" fill="url(#paint26_linear_118_715)"/>
<path fill-rule="evenodd" clip-rule="evenodd" d="M288.01 192.91C279.417 196.482 273.403 199.429 269.961 201.76L268.434 199.5C267.014 200.922 265.391 202.32 263.412 204.345C265.243 206.259 267.206 207.836 269.491 209.166C275.462 208.529 282.061 204.008 289.287 195.604C291.535 195.155 293.189 194.342 294.25 193.161C294.306 192.079 293.761 190.993 292.614 189.905C295.611 187.951 296.804 186.556 296.192 185.712C291.501 188.612 288.771 191.012 288.01 192.91Z" fill="url(#paint27_linear_118_715)"/>
<path fill-rule="evenodd" clip-rule="evenodd" d="M255.209 231.605C254.888 232.833 256.224 240.041 256.446 243.801C258.62 257.224 256.758 274.694 255.587 297.159C253.49 305.075 250.398 315.625 250.602 330.474C246.953 331.59 245.633 331.704 242.34 330.866C240.036 315.368 241.607 302.96 243.688 297.23C242.355 288.371 240.367 278.455 237.473 264.153C234.211 279.741 229.848 291.305 227.958 298.853C227.584 307.267 225.883 318.625 224.993 332.923C222.284 333.739 220.596 333.974 217.788 333.631C214.139 320.489 214.755 306.188 216.298 290.73C217.943 272.147 215.231 251.163 217.946 243.887C219.334 239.577 219.514 235.749 219.885 232.394C233.524 236.933 245.302 236.67 255.209 231.605Z" fill="url(#paint28_linear_118_715)"/>
<path fill-rule="evenodd" clip-rule="evenodd" d="M222.395 217.972C221.52 218.102 220.691 218.216 219.912 218.321C219.872 224.583 219.863 229.274 219.881 232.391C220.654 232.737 221.74 233.136 222.587 233.235C222.581 232.833 222.457 231.905 222.451 231.506C222.395 226.723 222.377 222.208 222.395 217.972ZM262.383 205.427C259.974 203.42 257.683 200.164 255.506 195.659C255.75 197.227 255.849 199.329 255.8 201.961C257.652 204.11 259.374 205.789 260.967 207.001C261.455 206.435 261.928 205.913 262.383 205.427ZM223.075 193.216C222.015 196.63 221.001 199.963 220.036 203.21C220.008 205.953 219.986 208.529 219.965 210.94C220.667 210.876 221.486 210.829 222.46 210.807C222.562 204.144 222.766 198.278 223.075 193.216Z" fill="url(#paint29_linear_118_715)"/>
<path fill-rule="evenodd" clip-rule="evenodd" d="M244.665 198.126H262.67C263.496 198.126 264.062 198.801 263.932 199.626L259.89 225.133C259.761 225.959 258.978 226.633 258.153 226.633H240.147C239.321 226.633 238.753 225.959 238.885 225.133L242.927 199.626C243.057 198.804 243.839 198.126 244.665 198.126Z" fill="url(#paint30_linear_118_715)"/>
<path fill-rule="evenodd" clip-rule="evenodd" d="M209.356 207.521C208.576 210.678 208.252 213.569 208.889 217.397C210.83 220.22 218.675 218.64 238.864 215.266C239.587 215.928 241.087 216.584 243.36 216.29C245.472 215.764 245.574 215.211 247.942 212.978C248.517 211.24 248.4 209.914 247.59 208.996C244.924 210.566 243.517 211.401 240.515 211.5C241.316 209.441 241.433 208.114 240.877 207.514C239.853 208.337 239.185 209.571 238.876 211.222C222.958 210.529 218.759 210.622 216.641 211.735C216.869 210.736 217.073 209.858 217.253 209.101C214.77 208.257 212.754 207.768 209.356 207.521ZM243.966 331.228C244.127 332.579 244.151 333.791 244.037 334.864C249.473 337.227 248.548 334.499 250.722 334.431C250.175 333.473 249.822 332.245 249.662 330.752C247.287 331.432 245.939 331.584 243.966 331.228ZM218.638 333.717C218.641 334.7 218.545 335.566 218.351 336.311C219.804 337.462 221.474 338.658 222.398 337.929C222.84 337.579 223.978 337.474 224.835 337.663C224.482 336.475 224.204 334.988 224 333.201C222.095 333.717 220.629 333.887 218.638 333.717Z" fill="url(#paint31_linear_118_715)"/>
<path fill-rule="evenodd" clip-rule="evenodd" d="M256.446 243.798C246.848 252.746 234.015 252.774 217.939 243.884C215.224 251.16 217.936 272.143 216.291 290.727C214.745 306.185 214.133 320.486 217.782 333.627C218.079 333.665 218.363 333.692 218.638 333.717C220.63 333.887 222.095 333.717 224 333.201C224.315 333.117 224.643 333.021 224.989 332.919C225.877 318.621 227.581 307.264 227.955 298.85C229.844 291.302 234.207 279.738 237.469 264.15C240.364 278.451 242.355 288.368 243.685 297.227C241.604 302.956 240.033 315.368 242.336 330.863C242.936 331.015 243.471 331.135 243.966 331.225C245.942 331.58 247.29 331.429 249.659 330.749C249.955 330.662 250.268 330.569 250.602 330.467C250.401 315.619 253.493 305.068 255.586 297.152C256.755 274.691 258.62 257.221 256.446 243.798Z" fill="url(#paint32_linear_118_715)"/>
<path fill-rule="evenodd" clip-rule="evenodd" d="M241.298 320.217C244.801 321.169 248.005 321.454 250.917 321.076C250.979 320.306 251.05 319.552 251.131 318.813C247.94 319.227 244.637 319.014 241.23 318.173C241.242 318.844 241.267 319.527 241.298 320.217ZM215.71 322.882C219.52 323.337 222.89 323.086 225.831 322.125C225.905 321.324 225.979 320.535 226.053 319.759C222.757 320.835 219.238 321.203 215.5 320.863C215.562 321.54 215.633 322.214 215.71 322.882ZM225.336 327.913C225.398 327.122 225.46 326.339 225.525 325.566C222.584 326.37 219.473 326.63 216.193 326.339C216.304 327.023 216.425 327.7 216.554 328.377C219.801 328.742 222.729 328.59 225.336 327.913ZM250.747 323.535C247.779 324.026 244.693 323.971 241.493 323.374C241.545 324.051 241.604 324.738 241.672 325.433C244.946 326.126 247.937 326.25 250.645 325.804C250.67 325.034 250.704 324.28 250.747 323.535Z" fill="url(#paint33_linear_118_715)"/>
<path fill-rule="evenodd" clip-rule="evenodd" d="M436 270.301H535.533C535.957 270.301 536.303 269.58 536.303 268.69V267.886C536.303 266.998 535.96 266.275 535.533 266.275H436C435.577 266.275 435.23 266.995 435.23 267.886V268.69C435.234 269.58 435.577 270.301 436 270.301Z" fill="url(#paint34_linear_118_715)"/>
<path fill-rule="evenodd" clip-rule="evenodd" d="M503.536 218.999C503.149 218.201 502.716 216.785 502.506 214.259C502.54 214.509 502.976 217.697 504.201 219.5C509.235 222.802 518.879 233.838 518.687 235.928C518.687 235.928 522.086 230.165 522.144 230.131C522.144 230.131 528.412 222.162 520.982 217.595C517.206 215.276 517.228 212.295 517.382 209.71C517.54 207.122 516.353 195.987 508.789 198.9C508.789 198.9 507.574 198.359 507.03 198.442C507.03 198.442 507.472 198.529 507.701 198.761C506.823 198.708 505.57 198.773 504.525 199.37C501.755 200.941 499.275 215.075 503.536 218.999Z" fill="#0F3970"/>
<path fill-rule="evenodd" clip-rule="evenodd" d="M491.467 202.156C488.508 208.071 490.957 214.883 496.776 217.292C502.633 219.716 509.037 218.34 511.996 212.422C514.955 206.507 512.76 199.413 507.089 196.578C501.421 193.745 494.426 196.241 491.467 202.156Z" fill="#0F3970"/>
<path fill-rule="evenodd" clip-rule="evenodd" d="M498.369 225.177C495.001 225.931 490.75 235.288 488.669 241.281C486.569 247.326 483.01 254.828 480.678 257.156C478.35 259.487 463.035 264.889 463.035 264.889C463.035 264.889 500.867 264.964 500.094 264.889C499.321 264.815 498.369 225.177 498.369 225.177Z" fill="url(#paint35_linear_118_715)"/>
<path fill-rule="evenodd" clip-rule="evenodd" d="M478.282 261.884C480.354 261.587 487.825 262.552 484.643 261.219C481.461 259.889 481.906 258.185 481.906 258.185C481.906 258.185 486.421 261.958 487.231 258.659C487.933 255.814 488.202 245.774 490.864 235.706C493.063 230.715 495.945 225.721 498.366 225.18C498.366 225.18 498.452 228.724 498.591 233.696C497.664 244.691 496.084 260.851 495.685 264.923C490.669 264.929 482.277 264.923 475.255 264.914L470.586 264.691C470.589 264.685 476.211 262.181 478.282 261.884Z" fill="#215AB0"/>
<path fill-rule="evenodd" clip-rule="evenodd" d="M510.747 223.105C510.747 223.105 521.458 229.088 523.953 230.362C526.449 231.636 516.959 268.989 514.847 270.591C512.738 272.193 494.154 270.866 492.039 268.85C489.924 266.834 493.663 260.644 491.832 248.25C490.001 235.857 497.416 225.155 498.369 225.18C499.321 225.205 505.54 223.108 505.54 223.108H510.747V223.105Z" fill="url(#paint36_linear_118_715)"/>
<path fill-rule="evenodd" clip-rule="evenodd" d="M514.847 270.591C512.738 272.193 499.439 272.227 493.777 270.468C493.137 270.27 490.236 269.113 490.171 268.028C490.855 267.901 493.567 268.226 494.667 267.972C498.495 267.094 500.604 262.351 500.604 262.351C500.604 262.351 502.71 261.59 507.429 259.596C512.144 257.598 510.202 251.55 510.314 248.887C510.425 246.225 514.973 237.515 523.517 230.913L524.299 231.262C524.912 237.329 516.801 269.11 514.847 270.591Z" fill="#2A65BC"/>
<path fill-rule="evenodd" clip-rule="evenodd" d="M504.173 261.293C497.441 262.551 495.787 264.094 492.116 264.685C487.958 265.356 488.452 266.274 491.541 266.274C494.63 266.274 502.395 266.395 505.06 265.801C507.726 265.214 504.173 261.293 504.173 261.293Z" fill="url(#paint37_linear_118_715)"/>
<path fill-rule="evenodd" clip-rule="evenodd" d="M524.794 231.061C529.952 247.558 537.268 266.274 536.102 266.274C534.936 266.274 505.31 267.471 504.145 266.475C502.979 265.477 503.313 261.648 503.48 261.151C503.647 260.653 520.323 257.694 520.323 257.694C520.323 257.694 518.127 253.414 517.292 245.05C516.464 236.686 523.817 227.935 524.794 231.061Z" fill="url(#paint38_linear_118_715)"/>
<path fill-rule="evenodd" clip-rule="evenodd" d="M506.823 208.77L510.979 223.958C510.979 223.958 503.956 234.92 502.027 233.946C500.097 232.972 503.106 225.034 503.106 223.958C503.106 222.879 500.094 211.754 500.094 211.754L506.823 208.77Z" fill="url(#paint39_linear_118_715)"/>
<path fill-rule="evenodd" clip-rule="evenodd" d="M502.961 224.731C503.05 224.37 503.106 224.101 503.106 223.955C503.106 222.876 500.094 211.751 500.094 211.751L506.823 208.77L508.199 213.795C506.999 218.986 504.831 222.443 502.961 224.731Z" fill="#FDB2A8"/>
<path fill-rule="evenodd" clip-rule="evenodd" d="M491.272 208.52C490.48 212.923 491.003 218.773 494.911 220.26C498.823 221.748 503.532 218.9 505.434 213.906C507.333 208.909 505.703 203.653 501.791 202.165C497.883 200.678 492.218 203.257 491.272 208.52Z" fill="url(#paint40_linear_118_715)"/>
<path fill-rule="evenodd" clip-rule="evenodd" d="M504.507 210.996C503.96 212.536 504.436 214.11 505.571 214.515C506.705 214.917 508.072 213.999 508.619 212.459C509.167 210.919 508.691 209.345 507.556 208.94C506.421 208.538 505.057 209.456 504.507 210.996Z" fill="#F4AE7C"/>
<path fill-rule="evenodd" clip-rule="evenodd" d="M491.226 202.985C492.559 213.319 505.113 211.986 505.113 211.986C505.113 211.986 507.704 208.581 508.87 210.369C510.036 212.153 507.253 199.889 500.048 199.506C497.679 199.379 491.226 202.985 491.226 202.985Z" fill="#0F3970"/>
<path fill-rule="evenodd" clip-rule="evenodd" d="M524.336 341.37H522.781L512.738 294.843H516.161L524.336 341.37Z" fill="url(#paint41_linear_118_715)"/>
<path fill-rule="evenodd" clip-rule="evenodd" d="M475.988 341.37H477.543L489.228 293.198H485.808L475.988 341.37Z" fill="url(#paint42_linear_118_715)"/>
<path fill-rule="evenodd" clip-rule="evenodd" d="M506.591 296.587C512.821 296.587 516.767 295.471 519.287 293.015C522.407 289.973 523.053 285.263 523.062 279.125C523.072 274.296 523.186 271.148 523.446 268.606C523.545 267.647 522.849 266.791 521.891 266.692C520.932 266.593 520.079 267.292 519.98 268.247C519.704 270.913 519.584 274.166 519.578 279.119C519.568 285.341 518.777 288.643 516.853 290.517C514.878 292.44 511.306 293.235 505.276 293.083C499.454 292.938 495.443 292.125 492.225 291.469C487.988 290.61 484.927 289.985 481.297 291.72C480.428 292.134 480.06 293.176 480.474 294.045C480.889 294.914 481.931 295.282 482.8 294.864C485.375 293.634 487.562 294.079 491.529 294.883C494.884 295.566 499.058 296.414 505.187 296.565C505.669 296.581 506.136 296.587 506.591 296.587Z" fill="url(#paint43_linear_118_715)"/>
<path fill-rule="evenodd" clip-rule="evenodd" d="M473.671 268.931C465.61 267.706 462.867 268.093 457.932 277.276C452.997 286.46 446.43 302.994 442.654 305.13C436.965 308.346 435.081 316.231 432.744 315.879C430.409 315.523 428.903 316.556 431.445 318.668C433.987 320.78 438.09 322.579 439.494 322.202C440.898 321.828 441.986 315.764 445.65 313.795C449.315 311.825 448.214 310.208 447.973 308.467C447.731 306.726 458.671 298.708 466.918 288.736C471.955 282.641 474.553 278.622 474.936 274.976C475.329 271.33 473.671 268.931 473.671 268.931Z" fill="url(#paint44_linear_118_715)"/>
<path fill-rule="evenodd" clip-rule="evenodd" d="M453.684 302.23C455.558 297.48 457.435 289.639 459.2 282.449C461.711 272.227 464.343 269.799 466.009 268.708C468.025 268.204 470.413 268.433 473.672 268.927C473.672 268.927 475.329 271.327 474.946 274.972C474.559 278.618 471.965 282.638 466.928 288.733C462.583 293.983 457.497 298.692 453.684 302.23Z" fill="url(#paint45_linear_118_715)"/>
<path fill-rule="evenodd" clip-rule="evenodd" d="M471.217 277.014C471.217 277.014 473.363 293.201 475.36 294.846C476.789 296.021 477.8 296.101 478.799 291.272C479.797 286.445 477.243 268.427 477.243 268.427L471.217 277.014Z" fill="#142D4D"/>
<path fill-rule="evenodd" clip-rule="evenodd" d="M472.927 285.77L492.781 289.107L481.572 273.034L473.041 271.296L467.927 272.474L472.927 285.77Z" fill="#F19651"/>
<path fill-rule="evenodd" clip-rule="evenodd" d="M472.927 285.77L492.781 289.107L481.572 273.034L473.041 271.296L467.927 272.474L472.927 285.77Z" fill="url(#paint46_linear_118_715)"/>
<path fill-rule="evenodd" clip-rule="evenodd" d="M514.197 269.577C521.241 282.218 516.43 290.254 507.868 291.07C499.305 291.89 485.79 290.325 477.911 283.779C470.032 277.233 463.563 270.31 464.466 269.277C465.372 268.247 514.197 269.577 514.197 269.577Z" fill="#F29F65"/>
<path fill-rule="evenodd" clip-rule="evenodd" d="M514.197 269.577C521.241 282.218 516.43 290.254 507.868 291.07C499.305 291.89 485.79 290.325 477.911 283.779C470.032 277.233 463.563 270.31 464.466 269.277C465.372 268.247 514.197 269.577 514.197 269.577Z" fill="url(#paint47_linear_118_715)"/>
<path fill-rule="evenodd" clip-rule="evenodd" d="M474.25 279.011C472.809 274.682 471.145 271.364 467.927 271.302C464.541 271.24 462.46 273 462.314 278.538C462.141 285.133 461.909 306.973 462.215 316.682C462.447 324.032 460.304 326.386 460.484 334.048C460.62 339.821 454.466 336.905 456.844 339.898C458.48 341.958 463.344 341.283 466.331 340.903C468.993 340.566 464.952 332.585 468.638 330.452C471.801 328.621 471.863 325.65 469.865 323.399C467.868 321.147 469.643 314.49 470.975 309.83C472.308 305.17 474.374 300.127 475.728 289.11C476.115 285.965 475.131 281.655 474.25 279.011Z" fill="url(#paint48_linear_118_715)"/>
<path fill-rule="evenodd" clip-rule="evenodd" d="M458.947 337.542C459.968 337.855 461.223 338.198 462.318 338.235C464.538 338.309 465.202 335.866 465.351 332.552C465.481 329.654 467.583 325.097 469.742 323.247C469.782 323.3 469.822 323.353 469.865 323.402C471.863 325.65 471.801 328.625 468.638 330.455C464.952 332.589 468.993 340.57 466.331 340.907C463.344 341.287 458.477 341.961 456.844 339.902C455.298 337.954 457.215 337.799 458.947 337.542ZM432.985 315.873C433.848 316.64 434.93 317.549 436.025 318.111C438.239 319.252 440.292 317.44 442.311 314.611C444.074 312.14 445.997 308.538 449.232 307.966C449.244 308.031 449.253 308.096 449.272 308.161C450.036 311.095 451.078 314.299 446.832 314.367C441.885 314.447 441.495 323.387 438.598 322.391C435.345 321.275 430.02 319.506 429.516 316.915C429.043 314.466 431.078 315.257 432.985 315.873Z" fill="#142D4D"/>
<path fill-rule="evenodd" clip-rule="evenodd" d="M469.368 322.573C469.368 322.573 472.605 325.953 472.308 327.36C472.011 328.767 471.016 332.317 470.849 335.053C470.682 337.79 470.533 340.931 470.533 340.931C470.533 340.931 469.368 340.931 469.275 340.6C469.182 340.27 468.533 329.475 468.533 329.475L469.368 322.573ZM449.232 307.966C449.232 307.966 450.617 312.493 449.525 313.578C448.431 314.664 448.199 317.15 446.486 319.463C444.776 321.776 442.853 324.453 442.853 324.453C442.853 324.453 441.668 323.887 441.761 323.554C441.851 323.22 447.274 313.464 447.274 313.464L449.232 307.966Z" fill="#142D4D"/>
<path fill-rule="evenodd" clip-rule="evenodd" d="M517.59 268.427C517.59 268.427 521.767 286.16 516.489 291.074C511.21 295.99 489.29 291.568 484.126 291.272C480.629 291.074 477.246 295.338 477.246 295.338C477.246 295.338 479.689 285.443 478.023 277.456C476.359 269.466 473.672 268.931 473.672 268.931L477.246 268.427H517.59Z" fill="url(#paint49_linear_118_715)"/>
<path fill-rule="evenodd" clip-rule="evenodd" d="M518.536 263.788C516.748 267.579 520.459 274.125 519.16 276.012C517.858 277.898 510.416 276.274 505.536 272.35C500.66 268.423 491.427 267.561 491.427 267.561L518.536 263.788Z" fill="#6998D0"/>
<path fill-rule="evenodd" clip-rule="evenodd" d="M510.978 296.098C496.219 296.652 480.685 296.392 480.685 294.19C480.685 291.992 481.352 290.436 492.781 291.327C504.21 292.214 511.977 293.436 515.419 292.66C518.857 291.883 510.978 296.098 510.978 296.098Z" fill="url(#paint50_linear_118_715)"/>
<path fill-rule="evenodd" clip-rule="evenodd" d="M437.651 233.804H478.69C479.5 233.804 480.335 234.466 480.545 235.276L487.846 263.083C488.059 263.891 487.571 264.552 486.76 264.552H445.725C444.915 264.552 444.08 263.891 443.869 263.083L436.569 235.276C436.355 234.466 436.841 233.804 437.651 233.804Z" fill="url(#paint51_linear_118_715)"/>
<path fill-rule="evenodd" clip-rule="evenodd" d="M486.384 253.482L481.427 234.605C481.214 233.795 480.379 233.136 479.572 233.136H476.739H438.533C437.726 233.136 436.285 234.181 436.523 234.982C436.483 234.311 436.946 233.804 437.655 233.804H478.693C479.504 233.804 480.338 234.466 480.549 235.276L487.849 263.083C487.976 263.569 487.852 263.999 487.559 264.268C488.236 263.832 488.879 262.988 488.727 262.415L486.384 253.482Z" fill="#987EF8"/>
<path fill-rule="evenodd" clip-rule="evenodd" d="M486.767 264.552H445.725C445.573 264.552 445.422 264.531 445.273 264.487C446.09 266.602 448.31 266.29 449.176 266.284H497.834C500.471 266.173 500.403 264.324 500.437 262.542H488.746C488.783 263.108 488.183 263.863 487.555 264.268C487.364 264.444 487.088 264.552 486.767 264.552Z" fill="#987EF8"/>
<path fill-rule="evenodd" clip-rule="evenodd" d="M481.022 245.239C476.622 247.465 471.418 248.148 466.068 248.424C466.127 248.615 466.174 248.813 466.205 249.014C466.56 251.272 464.971 253.189 462.676 253.189C460.512 253.189 458.551 251.476 458.214 249.345C458.177 249.113 458.162 248.888 458.165 248.665C452.608 248.813 447.244 249.119 442.803 250.857L445.855 262.481H485.552L481.022 245.239Z" fill="#7525E9" fill-opacity="0.12"/>
<path fill-rule="evenodd" clip-rule="evenodd" d="M461.789 246.516C463.26 246.516 464.64 247.709 464.875 249.178C465.106 250.65 464.105 251.843 462.633 251.843C461.161 251.843 459.782 250.65 459.547 249.178C459.312 247.706 460.317 246.516 461.789 246.516Z" fill="#7525E9" fill-opacity="0.12"/>
</g>
<defs>
<linearGradient id="paint0_linear_118_715" x1="360" y1="-39.2" x2="360" y2="400" gradientUnits="userSpaceOnUse">
<stop stop-color="#FFC554"/>
<stop offset="1" stop-color="#FF8718"/>
</linearGradient>
<linearGradient id="paint1_linear_118_715" x1="168.488" y1="223.341" x2="249.258" y2="291.925" gradientUnits="userSpaceOnUse">
<stop stop-color="#88FFBF"/>
<stop offset="1" stop-color="#09B462"/>
</linearGradient>
<linearGradient id="paint2_linear_118_715" x1="196.909" y1="282.377" x2="170.832" y2="344.371" gradientUnits="userSpaceOnUse">
<stop stop-color="#FFC5E3"/>
<stop offset="1" stop-color="#CD3C83"/>
</linearGradient>
<linearGradient id="paint3_linear_118_715" x1="539.279" y1="221.626" x2="617.02" y2="275.267" gradientUnits="userSpaceOnUse">
<stop stop-color="#88FFBF"/>
<stop offset="1" stop-color="#09B462"/>
</linearGradient>
<linearGradient id="paint4_linear_118_715" x1="496.984" y1="273.192" x2="497.625" y2="327.582" gradientUnits="userSpaceOnUse">
<stop offset="0.13627" stop-color="#F68CFF"/>
<stop offset="0.921622" stop-color="#630285"/>
</linearGradient>
<linearGradient id="paint5_linear_118_715" x1="588.205" y1="275.657" x2="554.018" y2="339.477" gradientUnits="userSpaceOnUse">
<stop stop-color="#FFC5E3"/>
<stop offset="1" stop-color="#CD3C83"/>
</linearGradient>
<linearGradient id="paint6_linear_118_715" x1="208.95" y1="154.219" x2="208.95" y2="164.123" gradientUnits="userSpaceOnUse">
<stop stop-color="#D0D5FF"/>
<stop offset="1" stop-color="#7896FF"/>
</linearGradient>
<linearGradient id="paint7_linear_118_715" x1="210.319" y1="178.875" x2="210.319" y2="182.521" gradientUnits="userSpaceOnUse">
<stop stop-color="#D0D5FF"/>
<stop offset="1" stop-color="#7896FF"/>
</linearGradient>
<linearGradient id="paint8_linear_118_715" x1="192.333" y1="185.282" x2="192.333" y2="188.927" gradientUnits="userSpaceOnUse">
<stop stop-color="#D0D5FF"/>
<stop offset="1" stop-color="#7896FF"/>
</linearGradient>
<linearGradient id="paint9_linear_118_715" x1="207.658" y1="170.248" x2="207.658" y2="173.891" gradientUnits="userSpaceOnUse">
<stop stop-color="#D0D5FF"/>
<stop offset="1" stop-color="#7896FF"/>
</linearGradient>
<linearGradient id="paint10_linear_118_715" x1="179.026" y1="191.692" x2="179.026" y2="195.335" gradientUnits="userSpaceOnUse">
<stop stop-color="#D0D5FF"/>
<stop offset="1" stop-color="#7896FF"/>
</linearGradient>
<linearGradient id="paint11_linear_118_715" x1="218.46" y1="191.692" x2="218.46" y2="195.335" gradientUnits="userSpaceOnUse">
<stop stop-color="#D0D5FF"/>
<stop offset="1" stop-color="#7896FF"/>
</linearGradient>
<linearGradient id="paint12_linear_118_715" x1="184.765" y1="198.099" x2="184.765" y2="201.745" gradientUnits="userSpaceOnUse">
<stop stop-color="#D0D5FF"/>
<stop offset="1" stop-color="#7896FF"/>
</linearGradient>
<linearGradient id="paint13_linear_118_715" x1="176.817" y1="204.506" x2="176.817" y2="208.148" gradientUnits="userSpaceOnUse">
<stop stop-color="#D0D5FF"/>
<stop offset="1" stop-color="#7896FF"/>
</linearGradient>
<linearGradient id="paint14_linear_118_715" x1="216.251" y1="204.506" x2="216.251" y2="208.148" gradientUnits="userSpaceOnUse">
<stop stop-color="#D0D5FF"/>
<stop offset="1" stop-color="#7896FF"/>
</linearGradient>
<linearGradient id="paint15_linear_118_715" x1="185.353" y1="210.913" x2="185.353" y2="214.555" gradientUnits="userSpaceOnUse">
<stop stop-color="#D0D5FF"/>
<stop offset="1" stop-color="#7896FF"/>
</linearGradient>
<linearGradient id="paint16_linear_118_715" x1="210.657" y1="217.32" x2="210.657" y2="220.965" gradientUnits="userSpaceOnUse">
<stop stop-color="#D0D5FF"/>
<stop offset="1" stop-color="#7896FF"/>
</linearGradient>
<linearGradient id="paint17_linear_118_715" x1="361.858" y1="125.033" x2="362.098" y2="288.779" gradientUnits="userSpaceOnUse">
<stop stop-color="#F1F2FD"/>
<stop offset="1" stop-color="#9BB0FA"/>
</linearGradient>
<linearGradient id="paint18_linear_118_715" x1="362.098" y1="114.825" x2="362.098" y2="133.223" gradientUnits="userSpaceOnUse">
<stop stop-color="#D0D5FF"/>
<stop offset="1" stop-color="#7896FF"/>
</linearGradient>
<linearGradient id="paint19_linear_118_715" x1="482.585" y1="139.342" x2="482.585" y2="199.466" gradientUnits="userSpaceOnUse">
<stop stop-color="#D0D5FF"/>
<stop offset="1" stop-color="#7896FF"/>
</linearGradient>
<linearGradient id="paint20_linear_118_715" x1="482.586" y1="158.615" x2="482.586" y2="183.556" gradientUnits="userSpaceOnUse">
<stop stop-color="#D0D5FF"/>
<stop offset="1" stop-color="#7896FF"/>
</linearGradient>
<linearGradient id="paint21_linear_118_715" x1="450.07" y1="192.313" x2="450.07" y2="193.968" gradientUnits="userSpaceOnUse">
<stop stop-color="#D0D5FF"/>
<stop offset="1" stop-color="#7896FF"/>
</linearGradient>
<linearGradient id="paint22_linear_118_715" x1="459.526" y1="191.872" x2="459.526" y2="194.407" gradientUnits="userSpaceOnUse">
<stop stop-color="#D0D5FF"/>
<stop offset="1" stop-color="#7896FF"/>
</linearGradient>
<linearGradient id="paint23_linear_118_715" x1="221.106" y1="124.831" x2="221.106" y2="150.848" gradientUnits="userSpaceOnUse">
<stop stop-color="#D0D5FF"/>
<stop offset="1" stop-color="#7896FF"/>
</linearGradient>
<linearGradient id="paint24_linear_118_715" x1="553.664" y1="171.092" x2="553.664" y2="201.961" gradientUnits="userSpaceOnUse">
<stop stop-color="#D0D5FF"/>
<stop offset="1" stop-color="#7896FF"/>
</linearGradient>
<linearGradient id="paint25_linear_118_715" x1="240.769" y1="151.287" x2="241.563" y2="190.949" gradientUnits="userSpaceOnUse">
<stop stop-color="white"/>
<stop offset="0.671133" stop-color="#FFD0D0"/>
</linearGradient>
<linearGradient id="paint26_linear_118_715" x1="238.83" y1="177.109" x2="238.83" y2="236.392" gradientUnits="userSpaceOnUse">
<stop stop-color="#0F61C3"/>
<stop offset="1" stop-color="#4D9DFC"/>
</linearGradient>
<linearGradient id="paint27_linear_118_715" x1="254.699" y1="197.633" x2="323.975" y2="190.188" gradientUnits="userSpaceOnUse">
<stop stop-color="#FFD0D0"/>
<stop offset="1" stop-color="white"/>
</linearGradient>
<linearGradient id="paint28_linear_118_715" x1="236.266" y1="231.605" x2="236.266" y2="333.783" gradientUnits="userSpaceOnUse">
<stop stop-color="#0F61C3"/>
<stop offset="1" stop-color="#4D9DFC"/>
</linearGradient>
<linearGradient id="paint29_linear_118_715" x1="241.127" y1="193.216" x2="241.127" y2="233.235" gradientUnits="userSpaceOnUse">
<stop stop-color="#0B5DBD"/>
<stop offset="1" stop-color="#3988E7"/>
</linearGradient>
<linearGradient id="paint30_linear_118_715" x1="238.626" y1="212.635" x2="263.808" y2="212.635" gradientUnits="userSpaceOnUse">
<stop stop-color="#0F3D86"/>
<stop offset="1" stop-color="#4F8AE9"/>
</linearGradient>
<linearGradient id="paint31_linear_118_715" x1="229.636" y1="207.514" x2="229.227" y2="363.967" gradientUnits="userSpaceOnUse">
<stop stop-color="#FFD0D0"/>
<stop offset="1" stop-color="white"/>
</linearGradient>
<linearGradient id="paint32_linear_118_715" x1="236.262" y1="243.798" x2="236.262" y2="333.781" gradientUnits="userSpaceOnUse">
<stop stop-color="#002F6D"/>
<stop offset="1" stop-color="#004CB0"/>
</linearGradient>
<linearGradient id="paint33_linear_118_715" x1="212.907" y1="323.545" x2="258.45" y2="321.401" gradientUnits="userSpaceOnUse">
<stop stop-color="#122D50"/>
<stop offset="0.296875" stop-color="#6AA1E7"/>
<stop offset="0.630208" stop-color="#19375D"/>
<stop offset="1" stop-color="#73ADF7"/>
</linearGradient>
<linearGradient id="paint34_linear_118_715" x1="435.146" y1="268.556" x2="553.744" y2="289.719" gradientUnits="userSpaceOnUse">
<stop stop-color="#9D7558"/>
<stop offset="1" stop-color="#D09D77"/>
</linearGradient>
<linearGradient id="paint35_linear_118_715" x1="481.57" y1="225.177" x2="481.728" y2="266.691" gradientUnits="userSpaceOnUse">
<stop stop-color="#2E5B90"/>
<stop offset="1" stop-color="#84B8F7"/>
</linearGradient>
<linearGradient id="paint36_linear_118_715" x1="507.869" y1="223.105" x2="508.13" y2="273.448" gradientUnits="userSpaceOnUse">
<stop stop-color="#2E5B90"/>
<stop offset="1" stop-color="#84B8F7"/>
</linearGradient>
<linearGradient id="paint37_linear_118_715" x1="497.581" y1="261.293" x2="497.58" y2="267.271" gradientUnits="userSpaceOnUse">
<stop stop-color="#FFD0D0"/>
<stop offset="1" stop-color="white"/>
</linearGradient>
<linearGradient id="paint38_linear_118_715" x1="519.765" y1="230.413" x2="519.914" y2="268.494" gradientUnits="userSpaceOnUse">
<stop stop-color="#2E5B90"/>
<stop offset="1" stop-color="#84B8F7"/>
</linearGradient>
<linearGradient id="paint39_linear_118_715" x1="505.536" y1="208.77" x2="505.536" y2="234.007" gradientUnits="userSpaceOnUse">
<stop stop-color="white"/>
<stop offset="1" stop-color="#FFD0D0"/>
</linearGradient>
<linearGradient id="paint40_linear_118_715" x1="498.485" y1="205.67" x2="498.592" y2="220.655" gradientUnits="userSpaceOnUse">
<stop stop-color="white"/>
<stop offset="1" stop-color="#FFC5C5"/>
</linearGradient>
<linearGradient id="paint41_linear_118_715" x1="512.728" y1="321.208" x2="526.771" y2="321.233" gradientUnits="userSpaceOnUse">
<stop stop-color="#9D7558"/>
<stop offset="1" stop-color="#D09D77"/>
</linearGradient>
<linearGradient id="paint42_linear_118_715" x1="475.977" y1="320.494" x2="492.008" y2="320.526" gradientUnits="userSpaceOnUse">
<stop stop-color="#9D7558"/>
<stop offset="1" stop-color="#D09D77"/>
</linearGradient>
<linearGradient id="paint43_linear_118_715" x1="480.268" y1="283.628" x2="532.508" y2="284.164" gradientUnits="userSpaceOnUse">
<stop stop-color="#9D7558"/>
<stop offset="1" stop-color="#D09D77"/>
</linearGradient>
<linearGradient id="paint44_linear_118_715" x1="459.104" y1="268.358" x2="432.356" y2="340.102" gradientUnits="userSpaceOnUse">
<stop stop-color="#FFD0D0"/>
<stop offset="1" stop-color="white"/>
</linearGradient>
<linearGradient id="paint45_linear_118_715" x1="464.344" y1="268.425" x2="450.121" y2="339.697" gradientUnits="userSpaceOnUse">
<stop stop-color="#FFD0D0"/>
<stop offset="1" stop-color="white"/>
</linearGradient>
<linearGradient id="paint46_linear_118_715" x1="480.354" y1="271.296" x2="480.341" y2="292.627" gradientUnits="userSpaceOnUse">
<stop stop-color="#FFD0D0"/>
<stop offset="1" stop-color="white"/>
</linearGradient>
<linearGradient id="paint47_linear_118_715" x1="490.986" y1="268.886" x2="490.976" y2="295.694" gradientUnits="userSpaceOnUse">
<stop stop-color="#FFD0D0"/>
<stop offset="1" stop-color="white"/>
</linearGradient>
<linearGradient id="paint48_linear_118_715" x1="466.056" y1="271.301" x2="465.802" y2="355.156" gradientUnits="userSpaceOnUse">
<stop stop-color="#F2BABA"/>
<stop offset="1" stop-color="white"/>
</linearGradient>
<linearGradient id="paint49_linear_118_715" x1="496.415" y1="268.427" x2="496.415" y2="295.338" gradientUnits="userSpaceOnUse">
<stop stop-color="#01346D"/>
<stop offset="1" stop-color="#2A70BD"/>
</linearGradient>
<linearGradient id="paint50_linear_118_715" x1="480.655" y1="294.061" x2="523.662" y2="296.124" gradientUnits="userSpaceOnUse">
<stop stop-color="#9D7558"/>
<stop offset="1" stop-color="#D09D77"/>
</linearGradient>
<linearGradient id="paint51_linear_118_715" x1="462.207" y1="233.804" x2="462.207" y2="264.552" gradientUnits="userSpaceOnUse">
<stop stop-color="#F0F2FC"/>
<stop offset="1" stop-color="#C3B9FF"/>
</linearGradient>
<clipPath id="clip0_118_715">
<rect width="720" height="400" fill="white"/>
</clipPath>
</defs>
</svg>
