<svg width="720" height="400" viewBox="0 0 720 400" fill="none" xmlns="http://www.w3.org/2000/svg">
<g clip-path="url(#clip0_329_1452)">
<rect width="720" height="400" fill="white"/>
<rect x="-121.115" y="-8.40936" width="900.714" height="427.839" fill="url(#paint0_linear_329_1452)"/>
<mask id="mask0_329_1452" style="mask-type:luminance" maskUnits="userSpaceOnUse" x="100" y="55" width="528" height="288">
<path d="M627.951 342.279H100.975V55.0001H627.418L627.951 342.279Z" fill="white"/>
</mask>
<g mask="url(#mask0_329_1452)">
<path opacity="0.2" d="M201.108 212.095C242.523 195.131 263.05 221.187 292.486 204.587C326.356 185.485 311.972 143.751 340.054 120.094C382.97 83.9042 506.891 105.371 550.341 192.069C582.955 257.142 561.484 341.491 511.537 380.461C490.511 396.871 467.399 400.594 422.041 407.374C377.294 414.04 266.891 429.251 188.591 376.707C156.238 354.973 147.299 333.727 144.156 324.132C139.344 309.148 138.695 293.138 142.279 277.813C153.115 232.593 198.313 213.244 201.108 212.095Z" fill="white"/>
<path opacity="0.2" d="M303.558 133.218C312.651 149.418 310.184 168.818 297.856 182.797C287.953 194.008 271.451 204.613 244.877 202.767C191.031 199.018 189.703 184.151 197.826 162.177C204.959 142.951 278.097 87.9713 303.558 133.218Z" fill="white"/>
<path d="M438.515 129.367C438.496 128.885 438.369 128.413 438.143 127.987C437.916 127.561 437.597 127.191 437.207 126.906C437.634 126.543 437.959 126.076 438.149 125.549C438.339 125.022 438.388 124.455 438.29 123.903C438.193 123.352 437.952 122.835 437.593 122.406C437.234 121.976 436.769 121.648 436.243 121.454C436.243 121.393 436.243 121.336 436.202 121.28C436.621 120.949 436.95 120.518 437.16 120.027C437.369 119.536 437.452 119 437.401 118.468C437.35 117.937 437.167 117.427 436.868 116.984C436.569 116.542 436.164 116.182 435.689 115.936C436.067 115.522 436.328 115.017 436.449 114.47C436.57 113.923 436.545 113.354 436.376 112.82C436.208 112.286 435.903 111.805 435.491 111.426C435.079 111.047 434.574 110.783 434.028 110.659C434.171 110.274 434.237 109.865 434.223 109.454C434.208 109.031 434.11 108.615 433.935 108.23C433.759 107.845 433.51 107.498 433.2 107.209C432.891 106.921 432.527 106.696 432.131 106.548C431.734 106.4 431.312 106.331 430.889 106.347C430.698 106.354 430.507 106.38 430.32 106.423C430.449 106.058 430.508 105.672 430.495 105.285C430.465 104.432 430.098 103.625 429.474 103.042C428.85 102.459 428.02 102.148 427.166 102.177C427.032 102.184 426.898 102.201 426.766 102.229C426.785 102.096 426.794 101.962 426.792 101.829C426.763 100.975 426.395 100.168 425.771 99.5856C425.147 99.0029 424.317 98.6918 423.464 98.7209C423.075 98.7366 422.693 98.8235 422.336 98.9773C422.368 98.7858 422.381 98.5918 422.377 98.3978C422.346 97.5439 421.978 96.7372 421.353 96.1545C420.728 95.5719 419.897 95.261 419.043 95.2901C418.633 95.3066 418.229 95.4006 417.854 95.567C417.648 94.8908 417.225 94.3014 416.65 93.8905C416.075 93.4797 415.38 93.2704 414.674 93.2952C413.95 93.3217 413.257 93.5949 412.71 94.0696C412.488 93.5206 412.118 93.0439 411.641 92.6925C411.164 92.3411 410.6 92.1286 410.009 92.0787C409.419 92.0287 408.827 92.1433 408.298 92.4096C407.769 92.676 407.324 93.0837 407.013 93.5875C406.79 92.9942 406.397 92.4802 405.882 92.1107C405.368 91.7411 404.755 91.5327 404.121 91.5119C403.488 91.491 402.863 91.6586 402.325 91.9934C401.787 92.3282 401.361 92.8152 401.1 93.3926C400.824 92.8829 400.415 92.4579 399.916 92.163C399.416 91.8682 398.847 91.7146 398.267 91.7188C397.687 91.723 397.12 91.8849 396.625 92.1869C396.131 92.489 395.727 92.92 395.459 93.4337C395.061 93.0711 394.579 92.8147 394.056 92.6884C393.533 92.5621 392.987 92.5699 392.467 92.711C391.948 92.8522 391.473 93.1222 391.086 93.4959C390.699 93.8697 390.413 94.3351 390.254 94.8491C389.675 94.4117 388.964 94.1855 388.238 94.208C387.642 94.2306 387.064 94.4186 386.569 94.751C386.073 95.0834 385.68 95.547 385.433 96.0901C384.949 95.8609 384.414 95.758 383.878 95.7911C383.343 95.8241 382.825 95.992 382.372 96.2791C381.919 96.5662 381.546 96.9632 381.288 97.4332C381.03 97.9031 380.894 98.4308 380.895 98.967C380.542 98.847 380.17 98.7915 379.797 98.8029C379.124 98.8272 378.476 99.0627 377.944 99.4759C377.412 99.8891 377.023 100.459 376.833 101.105C376.655 101.08 376.475 101.069 376.295 101.075C375.617 101.095 374.963 101.329 374.427 101.744C373.89 102.158 373.499 102.732 373.309 103.383C373.119 104.034 373.139 104.728 373.368 105.367C373.597 106.005 374.022 106.554 374.582 106.936L374.526 107.003C374.042 106.873 373.534 106.86 373.044 106.963C372.553 107.067 372.094 107.285 371.704 107.599C371.314 107.913 371.003 108.315 370.798 108.772C370.592 109.229 370.497 109.728 370.521 110.229C370.536 110.616 370.623 110.996 370.777 111.352C370.587 111.322 370.395 111.31 370.203 111.316C369.596 111.331 369.006 111.519 368.503 111.857C367.999 112.195 367.601 112.67 367.357 113.225C367.112 113.78 367.03 114.393 367.121 114.993C367.212 115.593 367.471 116.155 367.869 116.613C367.329 116.824 366.857 117.178 366.502 117.636C366.148 118.094 365.924 118.64 365.856 119.216C365.788 119.791 365.877 120.375 366.114 120.904C366.351 121.432 366.727 121.887 367.203 122.218C366.497 122.354 365.858 122.722 365.387 123.264C364.916 123.806 364.641 124.491 364.605 125.208C364.57 125.925 364.776 126.633 365.191 127.219C365.607 127.805 366.207 128.235 366.895 128.439V128.659C366.205 128.749 365.564 129.062 365.067 129.549C364.571 130.037 364.247 130.673 364.144 131.361C364.042 132.049 364.166 132.751 364.499 133.362C364.831 133.973 365.354 134.459 365.987 134.747C365.434 135.044 364.981 135.498 364.684 136.052C364.387 136.605 364.259 137.234 364.317 137.86C364.375 138.485 364.616 139.08 365.01 139.57C365.403 140.059 365.932 140.422 366.531 140.613C366.093 141.192 365.866 141.903 365.89 142.629C365.917 143.335 366.176 144.012 366.626 144.556C367.077 145.1 367.694 145.481 368.382 145.639C368.24 146.024 368.173 146.434 368.187 146.844C368.213 147.518 368.449 148.166 368.863 148.698C369.277 149.23 369.848 149.618 370.495 149.808C370.424 150.274 370.457 150.749 370.592 151.201C370.727 151.652 370.961 152.067 371.277 152.417C371.592 152.766 371.982 153.041 372.417 153.222C372.852 153.402 373.322 153.483 373.792 153.459C373.926 153.459 374.06 153.45 374.192 153.434C374.185 153.567 374.185 153.701 374.192 153.834C374.222 154.687 374.589 155.494 375.213 156.077C375.837 156.66 376.667 156.971 377.521 156.942C377.655 156.932 377.788 156.915 377.921 156.89C377.902 157.023 377.893 157.156 377.895 157.29C377.924 158.144 378.291 158.95 378.916 159.533C379.54 160.116 380.37 160.427 381.223 160.398C381.944 160.371 382.635 160.1 383.182 159.629C383.024 160.119 382.986 160.64 383.073 161.148C383.159 161.656 383.367 162.135 383.679 162.545C383.991 162.955 384.397 163.283 384.863 163.503C385.33 163.722 385.842 163.825 386.356 163.803C386.767 163.787 387.171 163.693 387.546 163.526C387.708 164.062 388.007 164.545 388.414 164.929C388.821 165.313 389.321 165.584 389.865 165.715C390.409 165.845 390.978 165.831 391.515 165.674C392.052 165.517 392.538 165.222 392.926 164.818C393.182 165.235 393.53 165.587 393.943 165.848C394.357 166.108 394.824 166.271 395.31 166.324C395.796 166.376 396.288 166.317 396.747 166.15C397.207 165.984 397.622 165.714 397.961 165.362C398.285 165.888 398.754 166.308 399.311 166.573C399.868 166.839 400.49 166.937 401.102 166.857C401.714 166.777 402.289 166.521 402.759 166.121C403.229 165.721 403.574 165.194 403.751 164.603C404.099 165.088 404.575 165.466 405.126 165.695C405.677 165.924 406.28 165.996 406.869 165.901C407.458 165.806 408.009 165.549 408.46 165.159C408.911 164.768 409.245 164.26 409.423 163.69C409.747 164.155 410.188 164.525 410.702 164.763C411.215 165.002 411.783 165.1 412.346 165.048C412.91 164.996 413.45 164.795 413.911 164.467C414.372 164.138 414.738 163.693 414.972 163.177C415.42 163.389 415.912 163.491 416.407 163.475C416.902 163.466 417.388 163.341 417.826 163.111C418.265 162.88 418.643 162.551 418.931 162.148C419.219 161.745 419.409 161.281 419.485 160.792C419.562 160.303 419.523 159.803 419.372 159.331L419.505 159.254C420.037 159.59 420.655 159.762 421.284 159.748C421.913 159.733 422.523 159.534 423.039 159.174C423.555 158.814 423.953 158.31 424.184 157.725C424.414 157.14 424.467 156.5 424.336 155.885L424.387 155.839C424.734 155.954 425.098 156.008 425.464 155.998C426.319 155.969 427.127 155.601 427.71 154.976C428.294 154.351 428.606 153.519 428.577 152.665C428.565 152.532 428.547 152.4 428.52 152.27C428.653 152.278 428.787 152.278 428.92 152.27C429.343 152.255 429.759 152.157 430.144 151.982C430.53 151.806 430.876 151.557 431.165 151.247C431.454 150.938 431.678 150.574 431.826 150.178C431.975 149.781 432.043 149.359 432.028 148.936C432.018 148.804 432.001 148.672 431.977 148.542C432.108 148.549 432.24 148.549 432.371 148.542C432.957 148.52 433.525 148.34 434.015 148.019C434.506 147.698 434.899 147.25 435.153 146.722C435.407 146.194 435.512 145.607 435.456 145.024C435.401 144.441 435.187 143.884 434.838 143.413C435.418 143.306 435.958 143.041 436.397 142.647C436.836 142.253 437.158 141.745 437.328 141.18C437.497 140.615 437.507 140.014 437.356 139.443C437.205 138.873 436.9 138.355 436.474 137.947C436.909 137.68 437.274 137.314 437.538 136.878C437.802 136.441 437.958 135.948 437.992 135.439C438.026 134.931 437.938 134.421 437.734 133.953C437.531 133.486 437.218 133.074 436.823 132.752C436.823 132.593 436.853 132.429 436.869 132.27C437.384 131.985 437.81 131.563 438.101 131.05C438.391 130.538 438.535 129.956 438.515 129.367Z" fill="url(#paint1_linear_329_1452)"/>
<path d="M396.964 231.08L396.723 231.111C395.296 231.287 393.849 231.175 392.466 230.783C391.083 230.39 389.793 229.725 388.671 228.826C387.549 227.927 386.619 226.813 385.935 225.548C385.25 224.284 384.826 222.896 384.687 221.465L384.41 218.762L384.374 218.429C383.554 210.313 382.721 202.178 381.877 194.024C388.263 192.359 394.648 190.685 401.031 189.003C401.909 194.012 402.784 199.019 403.656 204.024C404.361 208.034 405.063 212.044 405.764 216.055C405.902 216.87 406.046 217.68 406.19 218.496C406.444 219.932 406.404 221.404 406.074 222.824C405.743 224.245 405.128 225.583 404.266 226.759C403.404 227.936 402.312 228.925 401.057 229.667C399.802 230.41 398.41 230.891 396.964 231.08Z" fill="url(#paint2_linear_329_1452)"/>
<path d="M403.497 202.342C402.23 206.36 400.014 210.013 397.036 212.993C393.657 216.344 389.131 218.286 384.374 218.424C383.547 210.311 382.715 202.178 381.877 194.024L401.031 189.009C401.858 193.457 402.68 197.901 403.497 202.342Z" fill="url(#paint3_linear_329_1452)"/>
<path d="M391.588 310.497C387.738 353.862 383.889 397.234 380.039 440.616H392.536C396.68 397.429 400.82 354.253 404.957 311.087L391.588 310.497Z" fill="url(#paint4_linear_329_1452)"/>
<path d="M483.379 310.498C479.533 353.863 475.683 397.235 471.83 440.617H484.333C488.473 397.43 492.613 354.254 496.753 311.088L483.379 310.498Z" fill="url(#paint5_linear_329_1452)"/>
<path d="M507.722 313.068L502.594 357.37C502.422 358.859 501.71 360.232 500.591 361.229C499.472 362.226 498.026 362.776 496.527 362.775H383.502C382.687 362.776 381.88 362.613 381.129 362.296C380.378 361.98 379.697 361.516 379.128 360.932C378.559 360.349 378.112 359.657 377.815 358.898C377.517 358.14 377.374 357.329 377.395 356.514L378.692 312.411C378.725 311.244 379.212 310.136 380.049 309.323C380.886 308.509 382.007 308.053 383.174 308.052H503.26C503.522 308.053 503.783 308.077 504.04 308.124C505.171 308.318 506.183 308.94 506.869 309.86C507.554 310.78 507.86 311.928 507.722 313.068Z" fill="url(#paint6_linear_329_1452)"/>
<path d="M507.725 313.066L501.991 362.774H497.745L504.043 308.138C505.17 308.332 506.181 308.952 506.866 309.868C507.551 310.785 507.858 311.93 507.725 313.066ZM472.222 398.236L463.176 342.22L398.843 339.323L392.689 379.441C392.689 379.441 448.479 400.333 472.222 398.236Z" fill="#21013C"/>
<path d="M382.396 227.536C382.396 227.536 364.294 231.762 357.181 251.08C350.068 270.398 330.002 314.48 330.002 314.48C330.002 314.48 319.007 339.839 340.345 336.823C361.684 333.808 390.13 249.269 390.13 249.269L382.396 227.536Z" fill="url(#paint7_linear_329_1452)"/>
<path d="M387.105 238.323C386.928 244.018 386.435 249.698 385.628 255.338C385.367 257.133 385.085 258.928 384.767 260.646C382.812 271.556 379.695 282.225 375.469 292.472C372.864 298.811 369.856 304.977 366.464 310.933C357.849 311.241 349.223 308.826 342.752 306.318C339.039 304.904 335.439 303.21 331.982 301.251C335.854 292.856 339.039 285.246 341.623 278.651C343.434 274.036 344.952 269.887 346.208 266.343C350.598 253.825 351.623 248.974 355.885 243.051C361.664 235.036 369.7 230.231 377.423 227.231C379.177 226.554 380.91 225.964 382.597 225.461C384.09 225.02 385.546 224.631 386.941 224.302C387.172 228.61 387.269 233.302 387.105 238.323Z" fill="url(#paint8_linear_329_1452)"/>
<path d="M384.767 260.644C381.572 278.316 375.383 295.313 366.464 310.901C357.849 311.208 349.223 308.793 342.752 306.285C339.039 304.871 335.439 303.178 331.982 301.219C335.854 292.824 339.039 285.213 341.623 278.618C349.603 278.106 357.275 276.336 361.726 272.121C374.033 260.485 377.967 245.808 377.967 245.808L384.767 260.644Z" fill="url(#paint9_linear_329_1452)"/>
<path d="M462.632 342.63L424.596 342.496L399.14 342.404C393.263 328.63 387.379 314.857 381.489 301.086C381.125 300.24 380.791 299.419 380.381 298.522C379.971 297.624 379.586 296.635 379.191 295.686L379.058 295.378C378.906 295.069 378.783 294.746 378.689 294.414L378.427 294.07C378.053 293.891 377.679 293.696 377.294 293.481C376.689 293.168 376.084 292.824 375.468 292.455C372.079 290.404 368.622 287.568 366.597 283.64C366.19 282.85 365.847 282.028 365.571 281.183C363.858 275.84 365.397 271.04 366.217 268.255C368.268 261.224 370.448 251.004 371.186 236.358C371.274 234.563 371.345 232.696 371.392 230.758C373.345 229.732 375.427 228.66 377.622 227.64C378.263 227.337 378.909 227.04 379.571 226.747C380.545 226.311 381.54 225.875 382.566 225.45C383.73 224.963 384.93 224.486 386.156 224.019C388.263 223.214 390.458 222.434 392.735 221.706C395.012 220.978 397.14 220.363 399.304 219.793C403.494 218.691 407.566 217.85 411.484 217.229L412.355 217.091C413.602 216.901 414.837 216.722 416.053 216.578L416.781 216.491C418.632 216.255 419.607 216.147 420.032 216.147C433.796 216.224 447.006 238.24 450.253 254.05C450.278 254.168 450.376 254.706 450.586 255.804C452.1 263.626 453.478 271.339 454.719 278.942C455.656 284.645 456.511 290.286 457.283 295.865C457.34 296.296 457.406 296.732 457.463 297.158C458.488 305.483 459.533 313.804 460.596 322.122C461.396 329.072 462.075 335.908 462.632 342.63Z" fill="url(#paint10_linear_329_1452)"/>
<path d="M462.634 342.63L424.599 342.496C420.938 338.29 417.627 333.792 414.701 329.045C412.84 326.019 411.224 323.045 409.824 320.173C407.546 315.466 404.192 311.362 400.032 308.194C395.872 305.026 391.024 302.882 385.881 301.937L385.609 301.891C384.204 301.63 382.83 301.378 381.471 301.086C380.958 299.912 380.506 298.778 379.86 297.46C379.581 296.853 379.333 296.232 379.117 295.599C379.035 295.378 378.932 295.153 378.84 294.932C390.563 296.291 409.773 296.866 417.301 285.727C418.481 283.978 419.004 282.486 419.865 279.907C424.399 266.679 428.274 255.3 431.491 245.768L450.598 255.799C456.158 284.507 460.176 313.492 462.634 342.63Z" fill="url(#paint11_linear_329_1452)"/>
<path d="M416.81 216.512C416.174 220.876 415.374 224.383 414.185 227.281C411.585 233.619 407.128 236.994 398.554 239.85C394.159 241.317 390.308 240.363 387.103 238.353C382.488 235.481 379.205 230.481 377.631 227.681C377.554 227.532 377.477 227.399 377.4 227.26C379.154 226.583 380.888 225.994 382.575 225.491C383.739 225.004 384.939 224.527 386.164 224.06C388.272 223.255 390.467 222.476 392.744 221.748C395.021 221.019 397.149 220.404 399.313 219.835C403.503 218.732 407.575 217.891 411.492 217.271L412.364 217.132C413.61 216.942 414.846 216.763 416.062 216.619L416.81 216.512Z" fill="url(#paint12_linear_329_1452)"/>
<path d="M359.664 313.764C359.074 313 354.408 306.913 355.746 305.416C356.259 304.826 357.531 305.164 358.166 305.339C361.243 306.159 362.028 308.605 365.038 311.718C364.766 313.385 364.413 315.872 364.228 318.672C362.553 317.186 361.025 315.543 359.664 313.764Z" fill="url(#paint13_linear_329_1452)"/>
<path d="M368.285 338.286C366.29 337.599 363.869 336.363 360.28 334.614C355.454 330.404 357.521 327.799 357.521 327.799C357.259 327.655 354.956 326.26 354.715 323.829C354.713 323.792 354.713 323.754 354.715 323.717C354.71 323.645 354.71 323.573 354.715 323.501C354.711 322.602 354.97 321.722 355.459 320.968C355.474 320.953 355.487 320.936 355.495 320.917C354.597 319.609 353.649 317.84 354.126 316.732C354.136 316.698 354.149 316.665 354.167 316.634C354.227 316.503 354.297 316.376 354.377 316.255C354.407 316.214 354.435 316.171 354.459 316.127L354.551 315.993C354.611 315.909 354.676 315.829 354.746 315.752C354.746 315.752 354.746 315.727 354.777 315.711C354.82 315.657 354.868 315.607 354.921 315.563C355.022 315.455 355.134 315.357 355.254 315.27C355.316 315.224 355.381 315.181 355.449 315.142C355.498 315.105 355.551 315.074 355.608 315.05C355.77 314.963 355.942 314.896 356.121 314.85C357.582 314.47 358.997 315.593 359.797 316.209C360.956 317.096 362.403 318.132 364.244 319.337C363.977 324.163 364.244 329.763 366.187 333.696C367.008 335.45 367.731 336.983 368.285 338.286Z" fill="url(#paint14_linear_329_1452)"/>
<path d="M408.881 206.449L410.593 211.782C411.147 214.859 411.703 217.952 412.26 221.059C411.108 224.41 409.064 227.384 406.347 229.659C398.004 236.511 386.922 233.095 385.937 232.767L381.512 225.634L380.522 224.044L382.906 223.28L379.142 222.208L378.589 222.049L376.881 216.716L408.881 206.449Z" fill="url(#paint15_linear_329_1452)"/>
<path d="M403.835 217.22C398.795 220.221 393.413 222.606 387.804 224.322C385.738 224.897 383.636 225.336 381.512 225.635L380.522 224.045L382.907 223.281L379.143 222.209C384.84 222.009 394.522 221.05 403.835 217.22Z" fill="url(#paint16_linear_329_1452)"/>
<path d="M409.316 161.789C409.829 167.43 409.573 171.814 409.065 179.773C408.496 188.66 408.209 193.107 406.942 195.671C402.506 204.594 392.906 208.23 387.937 210.061C382.624 212.009 379.219 213.261 374.891 212.286C374.029 212.095 373.186 211.825 372.373 211.481C370.499 210.663 368.768 209.552 367.245 208.189C364.317 205.65 361.722 202.266 358.988 198.696C357.504 196.72 356.168 194.635 354.994 192.46C354.594 191.681 354.188 190.855 353.794 189.953C352.568 187.137 351.363 184.358 351.081 180.512C350.932 178.542 351.117 176.235 351.491 171.63C351.671 169.342 351.758 169.03 351.896 166.917C351.968 165.794 352.024 164.763 352.06 163.809C352.112 162.671 352.137 161.645 352.168 160.676C352.168 160.496 352.168 160.327 352.168 160.163C352.199 159.255 352.219 158.399 352.26 157.553C352.371 154.809 352.772 152.084 353.455 149.424C353.453 149.392 353.453 149.359 353.455 149.327C353.677 148.452 353.965 147.595 354.317 146.763C355.808 143.125 358.436 140.067 361.809 138.045C365.305 135.933 369.107 134.378 373.081 133.435C373.522 133.327 373.963 133.229 374.419 133.137C377.583 132.506 393.619 129.317 402.48 138.753C407.557 144.137 408.296 151.117 409.316 161.789Z" fill="url(#paint17_linear_329_1452)"/>
<path d="M409.066 179.778C408.492 188.66 408.21 193.111 406.943 195.676C402.507 204.594 392.907 208.24 387.938 210.065C382.625 212.009 379.22 213.265 374.892 212.291C374.028 212.099 373.184 211.83 372.369 211.486C382.677 209.84 388.005 205.224 390.318 202.819C393.61 199.378 395.707 193.435 399.769 181.686C402.907 172.604 404.477 167.983 404.338 164.188C404.046 156.25 399.933 146.824 393.892 144.47C388.764 142.475 386.2 146.475 375.81 144.891C370.964 144.157 369.01 142.906 364.528 143.286C360.908 143.634 357.418 144.814 354.328 146.732C355.492 144.552 357.497 140.578 361.815 138.014C365.703 135.677 369.963 134.025 374.41 133.132C377.574 132.501 393.61 129.311 402.477 138.747C407.543 144.142 408.282 151.122 409.307 161.793C409.851 167.414 409.579 171.814 409.066 179.778Z" fill="url(#paint18_linear_329_1452)"/>
<path d="M412.135 181.127C412.017 181.162 411.897 181.189 411.776 181.209C409.417 181.773 407.817 181.491 406.755 180.727C406.837 176.142 406.796 172.424 406.34 169.347C407.002 168.304 407.725 167.301 408.504 166.342C410.145 164.357 412.232 162.48 414.145 162.711C418.047 163.178 422.653 178.357 412.135 181.127Z" fill="url(#paint19_linear_329_1452)"/>
<path d="M408.908 169.091C408.908 169.091 412.498 167.552 414.765 170.178C417.031 172.804 414.765 178.988 410.093 177.573C411.132 177.104 411.975 176.288 412.477 175.265C412.85 174.465 412.995 173.578 412.898 172.701C412.849 171.652 412.393 170.664 411.626 169.947C410.863 169.324 409.89 169.017 408.908 169.091Z" fill="url(#paint20_linear_329_1452)"/>
<path d="M348.805 324.173C348.677 324.521 348.544 324.886 348.385 325.26C345.646 332.034 339.231 342.091 332.108 340.937C327.421 340.183 323.651 334.783 321.851 328.183C321.683 327.548 321.61 326.891 321.636 326.234C322.046 314.255 322.882 304.578 323.544 298.132C325.051 283.46 326.682 275.337 330.01 252.224C331.036 244.89 331.939 238.49 332.615 233.383C332.858 231.574 333.807 229.935 335.256 228.825C336.704 227.715 338.534 227.224 340.344 227.46H340.569C342.266 227.685 343.819 228.531 344.928 229.834C346.037 231.137 346.623 232.805 346.574 234.516C346.243 245.821 346.758 257.134 348.113 268.362C349.754 281.824 350.067 291.562 350.677 311.034C350.931 315.495 350.294 319.961 348.805 324.173Z" fill="url(#paint21_linear_329_1452)"/>
<path d="M348.385 325.26C345.646 332.034 339.231 342.091 332.108 340.937C327.421 340.183 323.651 334.783 321.851 328.183C321.683 327.548 321.61 326.891 321.636 326.234C322.046 314.255 322.882 304.578 323.544 298.132C325.051 283.46 326.682 275.337 330.01 252.224C331.036 244.89 331.939 238.49 332.615 233.383C332.858 231.574 333.807 229.935 335.256 228.825C336.704 227.715 338.534 227.224 340.344 227.46H340.569C341.817 227.625 342.997 228.128 343.98 228.914C344.963 229.7 345.713 230.74 346.149 231.921C343.969 234.731 341.113 238.234 337.769 241.855C330.01 250.26 327.421 323.968 332.595 327.845C336.421 330.727 344.446 327.28 348.385 325.26Z" fill="url(#paint22_linear_329_1452)" fill-opacity="0.27"/>
<path d="M350.71 210.208C350.02 206.729 348.768 203.386 347.003 200.311C345.074 196.956 342.551 193.981 339.557 191.531C338.661 192.673 337.678 193.823 336.608 194.982C332.317 199.586 327.292 203.446 321.736 206.403C323.789 217.087 327.549 227.37 332.87 236.859L346.177 234.767L350.71 210.208Z" fill="url(#paint23_linear_329_1452)"/>
<path d="M344.773 229.331C347.029 228.459 349.083 227.134 350.809 225.439C354.911 221.336 354.645 217.234 358.804 212.347C360.008 210.821 361.328 209.391 362.752 208.07C364.291 206.762 365.127 206.362 364.993 205.921C364.757 205.141 361.742 205.316 361.434 205.336C356.788 205.629 354.547 208.629 350.152 210.465C342.045 213.854 339.081 213.367 337.845 216.172C337.065 217.983 337.183 221.639 344.773 229.331Z" fill="url(#paint24_linear_329_1452)"/>
<path d="M306.166 228.963L307.52 227.752L308.074 227.491L370.735 197.265L371.755 200.332L309.053 230.568L308.648 230.768H306.771L306.166 228.963Z" fill="url(#paint25_linear_329_1452)"/>
<path d="M304.137 230.768L305.367 229.675L306.162 228.962L307.516 227.752L308.07 227.491L309.05 230.568L308.644 230.768H304.137Z" fill="#FFD9BA"/>
<path d="M304.137 230.768L305.367 229.676L305.593 230.768H304.137Z" fill="#B72C3B"/>
<path d="M351.574 209.845C351.159 210.357 350.077 210.737 349.092 210.783C346.877 210.88 345.267 209.183 344.836 208.732C346.041 210.901 346.046 213.034 345.103 214.034C344.869 214.257 344.593 214.431 344.291 214.546C343.989 214.66 343.666 214.713 343.344 214.701C342.219 214.78 341.101 214.477 340.171 213.841C339.24 213.206 338.551 212.274 338.215 211.198C338.292 211.763 338.933 217.655 332.462 215.034C332.272 215.188 331.995 215.404 331.646 215.639C331.12 215.998 330.568 216.319 329.995 216.598C328.421 217.25 324.221 213.568 321.749 208.547C320.421 205.855 320.651 204.927 320.964 204.409C321.744 203.116 323.79 203.111 324.195 203.116C323.712 202.305 323.513 201.355 323.63 200.418C323.747 199.481 324.173 198.61 324.841 197.942C325.509 197.274 326.38 196.848 327.317 196.731C328.255 196.614 329.204 196.813 330.015 197.296C329.713 195.244 330.528 193.403 331.954 192.768C332.779 192.448 333.693 192.448 334.518 192.768C334.79 192.875 335.431 193.168 337.082 195.357C337.692 196.157 338.159 196.839 338.462 197.296C336.585 194.839 336.005 192.342 336.923 191.203C337.288 190.782 337.782 190.494 338.328 190.383C338.775 190.326 339.228 190.364 339.659 190.493C340.09 190.622 340.489 190.839 340.831 191.132L340.872 191.168C342.923 193.732 344.595 195.978 346 197.921C351.738 205.824 352.431 208.819 351.574 209.845Z" fill="url(#paint26_linear_329_1452)"/>
<path d="M351.575 209.844C351.16 210.357 350.078 210.736 349.093 210.782C346.878 210.88 345.268 209.182 344.837 208.731C346.042 210.9 346.047 213.034 345.104 214.034C344.87 214.257 344.594 214.431 344.292 214.545C343.99 214.66 343.668 214.712 343.345 214.7C342.22 214.779 341.102 214.476 340.172 213.841C339.241 213.205 338.552 212.274 338.217 211.198C338.293 211.762 338.935 217.654 332.463 215.034C332.273 215.187 331.996 215.403 331.647 215.639C331.121 215.998 330.569 216.318 329.996 216.598C328.837 217.111 324.396 213.008 321.75 208.546C329.165 205.608 339.96 200.721 346.052 197.921C351.74 205.823 352.432 208.818 351.575 209.844Z" fill="url(#paint27_linear_329_1452)"/>
<path d="M332.426 214.972C332.396 214.973 332.366 214.966 332.339 214.953C332.313 214.94 332.289 214.92 332.272 214.895L326.277 206.716C326.247 206.675 326.235 206.624 326.242 206.574C326.25 206.524 326.277 206.479 326.318 206.449C326.359 206.419 326.41 206.407 326.46 206.415C326.51 206.422 326.555 206.45 326.585 206.49L332.58 214.67C332.601 214.698 332.613 214.732 332.616 214.767C332.619 214.802 332.612 214.837 332.596 214.869C332.58 214.9 332.556 214.926 332.526 214.945C332.496 214.963 332.461 214.973 332.426 214.972Z" fill="url(#paint28_linear_329_1452)"/>
<path d="M338.286 212.214C338.252 212.214 338.219 212.205 338.19 212.188C338.161 212.171 338.138 212.146 338.122 212.117L332.645 202.306C332.627 202.264 332.626 202.216 332.641 202.172C332.657 202.128 332.687 202.092 332.728 202.069C332.768 202.046 332.815 202.039 332.86 202.049C332.906 202.059 332.946 202.085 332.973 202.122L338.45 211.932C338.474 211.976 338.479 212.028 338.465 212.076C338.45 212.124 338.417 212.165 338.373 212.188C338.347 212.206 338.317 212.215 338.286 212.214Z" fill="url(#paint29_linear_329_1452)"/>
<path d="M344.982 209.255C344.947 209.256 344.913 209.247 344.883 209.23C344.854 209.213 344.829 209.188 344.812 209.158L340.069 200.614C340.057 200.592 340.049 200.568 340.046 200.543C340.043 200.519 340.045 200.493 340.052 200.469C340.059 200.445 340.071 200.423 340.086 200.403C340.102 200.384 340.121 200.367 340.143 200.355C340.165 200.343 340.189 200.335 340.214 200.333C340.239 200.33 340.264 200.332 340.288 200.339C340.312 200.346 340.335 200.357 340.354 200.373C340.374 200.388 340.39 200.408 340.402 200.43L345.146 208.953C345.158 208.975 345.167 208.999 345.17 209.024C345.173 209.049 345.171 209.074 345.165 209.099C345.158 209.123 345.147 209.146 345.131 209.166C345.115 209.185 345.096 209.202 345.074 209.214C345.047 209.236 345.015 209.25 344.982 209.255Z" fill="url(#paint30_linear_329_1452)"/>
<path d="M424.706 272.257C426.074 287.74 427.451 303.223 428.839 318.703L386.065 337.231L380.204 339.765L378.773 340.083L375.532 339.462L372.824 338.949L372.696 338.908C358.679 334.371 344.662 329.828 330.645 325.277C326.99 316.334 322.91 307.074 318.404 297.498C314.62 289.501 310.797 281.881 306.938 274.636C307.732 274.78 308.527 274.928 309.337 275.087C315.814 276.326 322.218 277.915 328.522 279.846C342.757 284.233 356.444 290.233 369.317 297.729C369.624 297.913 369.932 298.088 370.24 298.241C370.24 298.241 395.927 278.626 424.321 272.334C424.444 272.313 424.568 272.282 424.706 272.257Z" fill="#21013C"/>
<path opacity="0.06" d="M372.696 338.897C358.679 334.36 344.662 329.817 330.645 325.266C326.99 316.323 322.91 307.063 318.404 297.487C314.62 289.49 310.797 281.87 306.938 274.625C307.732 274.769 308.527 274.917 309.337 275.076C317.03 286.558 338.922 316.246 372.604 338.82L372.696 338.897ZM424.301 272.348C418.762 285.133 402.763 320.01 386.065 337.23L380.204 339.764L378.773 340.082L375.532 339.461L369.296 297.717C369.604 297.902 369.911 298.076 370.219 298.23C370.219 298.256 395.906 278.64 424.301 272.348Z" fill="#FFFDFF"/>
<path d="M380.206 339.765L378.775 340.083L372.827 338.94L364.652 299.606L371.56 298.17L380.206 339.765Z" fill="#21013C"/>
<path d="M424.704 272.256L369.576 303.405L306.92 274.625C314.215 275.925 321.425 277.665 328.51 279.835C343.083 284.33 357.083 290.512 370.222 298.256C370.222 298.256 396.145 278.456 424.704 272.256Z" fill="url(#paint31_linear_329_1452)"/>
<path d="M478.728 322.153C476.395 328.471 407.318 335.312 393.744 336.594C392.267 336.738 391.441 336.809 391.441 336.809V324.717L394.267 323.63L444.385 304.327L444.246 303.922L435.723 278.45C431.094 260.19 426.462 241.925 421.826 223.655C429.072 223.804 439.456 225.24 447.687 232.301C457.61 240.804 455.231 252.189 463.369 273.327C471.928 295.486 480.21 318.132 478.728 322.153Z" fill="url(#paint32_linear_329_1452)"/>
<path d="M398.543 330.872C398.461 331.143 398.374 331.384 398.271 331.656C397.376 333.768 395.778 335.506 393.748 336.574C392.868 337.082 391.932 337.485 390.958 337.774C388.353 337.877 384.292 338.072 379.235 338.456C373.497 338.913 372.779 339.128 370.646 338.861C369.84 338.748 369.048 338.552 368.282 338.277C366.292 337.584 363.871 336.349 360.277 334.6C355.451 330.384 357.523 327.779 357.523 327.779C357.354 327.656 357.195 327.533 357.01 327.405C355.42 326.138 354.82 324.841 354.692 323.815C354.685 323.778 354.685 323.74 354.692 323.702C354.692 323.631 354.692 323.559 354.692 323.492C354.655 322.579 354.918 321.678 355.441 320.928C355.455 320.916 355.466 320.9 355.471 320.882C354.574 319.569 353.625 317.805 354.102 316.702C354.114 316.669 354.128 316.636 354.143 316.605C354.2 316.47 354.271 316.341 354.354 316.22C354.385 316.179 354.414 316.136 354.441 316.092C354.466 316.047 354.495 316.004 354.528 315.964C354.584 315.875 354.649 315.792 354.723 315.718C354.723 315.718 354.723 315.692 354.754 315.677C354.797 315.622 354.845 315.57 354.897 315.523C354.997 315.414 355.111 315.319 355.236 315.241C355.294 315.19 355.355 315.144 355.42 315.102L355.584 315.01C355.747 314.926 355.919 314.862 356.097 314.82C357.559 314.436 358.974 315.564 359.769 316.174C360.928 317.061 362.379 318.097 364.22 319.307C365.441 320.102 366.841 320.979 368.446 321.938C366.978 320.94 365.577 319.847 364.251 318.666C362.582 317.172 361.055 315.528 359.687 313.754C359.107 312.989 354.436 306.897 355.774 305.405C356.287 304.815 357.559 305.159 358.195 305.328C361.271 306.148 362.056 308.6 365.066 311.707C365.266 311.918 365.482 312.123 365.702 312.333C367.675 314.159 369.885 315.711 372.271 316.948C374.494 318.219 376.833 319.275 379.256 320.102C379.194 318.896 378.843 317.723 378.23 316.682C376.733 314.241 374.394 314.041 373.933 311.8C373.861 311.477 373.635 310.4 374.261 309.748C374.54 309.487 374.904 309.334 375.287 309.318C375.287 309.318 378.502 308.989 386.461 317.425C387.656 318.989 389.492 319.933 390.989 321.22C392.03 322.096 393.138 322.89 394.302 323.595C395.415 324.287 396.805 325.102 398.574 326.051C398.991 327.632 398.98 329.296 398.543 330.872Z" fill="url(#paint33_linear_329_1452)"/>
<path d="M478.726 322.153C476.393 328.471 407.316 335.312 393.742 336.594C392.862 337.101 391.926 337.504 390.952 337.794C388.347 337.896 384.286 338.091 379.229 338.476C373.491 338.932 372.773 339.147 370.64 338.881C369.834 338.767 369.042 338.571 368.276 338.296C366.286 337.604 363.865 336.368 360.271 334.619C355.445 330.404 357.517 327.799 357.517 327.799C357.347 327.676 357.189 327.553 357.004 327.424C367.137 330.46 382.701 332.953 387.773 332.953C388.445 332.953 389.701 332.84 391.419 332.64C393.224 332.424 395.522 332.127 398.245 331.696C421.055 328.255 471.111 318.44 469.013 311.614C466.916 304.788 450.552 304.004 444.229 303.922L435.721 278.45L463.367 273.322C471.926 295.486 480.208 318.132 478.726 322.153Z" fill="url(#paint34_linear_329_1452)" fill-opacity="0.22"/>
<path d="M476.145 290.208C476.145 290.208 475.258 290.588 473.714 291.167L472.883 291.465L472.345 291.665L471.56 291.942L471.145 292.085L470.273 292.383C468.776 292.896 467.047 293.408 465.145 293.962C464.791 294.06 464.432 294.167 464.063 294.265C463.263 294.475 462.427 294.69 461.581 294.901L460.96 295.049L460.145 295.239C459.878 295.301 459.632 295.362 459.345 295.413L459.053 295.48L457.822 295.737L456.442 295.998C456.104 296.065 455.76 296.121 455.417 296.183C455.073 296.244 454.765 296.29 454.427 296.337C454.089 296.383 453.704 296.449 453.345 296.501L453.078 296.531L452.653 296.593C452.34 296.629 452.032 296.67 451.719 296.701C451.644 296.706 451.569 296.706 451.494 296.701C451.114 296.747 450.735 296.788 450.355 296.819L449.678 296.875C449.294 296.911 448.919 296.937 448.54 296.957H448.314C447.894 296.957 447.478 297.003 447.063 297.008C446.648 297.013 446.083 297.034 445.596 297.034C444.673 297.034 443.755 297.008 442.858 296.947C442.253 296.906 441.653 296.855 441.063 296.783C440.473 296.711 439.889 296.634 439.314 296.531C438.74 296.429 438.176 296.306 437.612 296.178C436.799 295.992 435.998 295.761 435.212 295.485C434.17 295.116 433.163 294.656 432.201 294.111L431.689 292.219C427.319 267.046 422.957 241.877 418.602 216.711C420.967 216.238 423.369 215.968 425.781 215.906C430.55 215.793 436.242 216.588 441.525 219.803L441.678 219.9C444.215 221.487 446.469 223.488 448.345 225.818C462.565 242.731 476.145 290.208 476.145 290.208Z" fill="url(#paint35_linear_329_1452)"/>
<path d="M476.148 290.209C476.148 290.209 475.261 290.589 473.717 291.168L472.886 291.466L472.348 291.666L471.563 291.943L471.148 292.086L470.276 292.384C468.779 292.897 467.05 293.409 465.148 293.963C464.794 294.061 464.435 294.168 464.066 294.266C463.266 294.476 462.43 294.691 461.584 294.902L460.963 295.05L460.148 295.24C459.881 295.302 459.635 295.363 459.348 295.414L459.056 295.481L457.825 295.738L456.445 295.999L455.42 296.184C455.097 296.235 454.768 296.291 454.43 296.338C454.091 296.384 453.707 296.45 453.348 296.502L453.081 296.532L452.656 296.594C452.343 296.63 452.035 296.671 451.722 296.702C451.647 296.707 451.572 296.707 451.497 296.702C451.117 296.748 450.738 296.789 450.358 296.82L449.681 296.876C449.297 296.912 448.922 296.938 448.543 296.958H448.317C447.897 296.958 447.481 297.004 447.066 297.009C446.65 297.014 446.086 297.035 445.599 297.035C444.676 297.035 443.758 297.009 442.861 296.948C442.25 296.907 441.656 296.856 441.066 296.784C440.476 296.712 439.892 296.63 439.317 296.532C438.743 296.435 438.179 296.307 437.615 296.179C436.779 295.968 435.968 295.732 435.179 295.45C434.137 295.081 433.13 294.621 432.169 294.076L431.656 292.184C439.389 292.255 460.958 291.789 462.548 284.322C464.486 275.214 451.558 244.645 443.799 229.686C439.886 222.153 432.312 218.05 425.789 215.907C430.558 215.794 436.251 216.589 441.533 219.804L441.686 219.901C444.191 221.53 446.438 223.525 448.353 225.819C462.568 242.732 476.148 290.209 476.148 290.209Z" fill="url(#paint36_linear_329_1452)"/>
<path d="M375.838 120.783C377.579 119.23 379.576 117.991 381.74 117.122C389.166 114.168 397.935 116.019 403.653 120.322C415.648 129.358 415.212 149.958 411.109 151.896C410.72 152.066 410.287 152.105 409.874 152.009C409.874 152.009 408.033 117.835 375.838 120.783Z" fill="url(#paint37_linear_329_1452)"/>
<path d="M353.116 150.475C355.172 147.643 357.831 145.303 360.901 143.623C363.483 142.204 366.317 141.3 369.244 140.962C371.914 140.639 374.621 140.87 377.198 141.639C385.331 144.254 384.716 151.736 391.306 152.992C394.008 153.505 395.772 152.562 401.88 153.439C403.418 153.654 405.013 153.951 406.044 155.244C407.075 156.536 406.557 158.054 407.07 160.259C407.752 163.295 408.47 165.741 408.972 167.346C410.105 165.615 411.057 163.771 411.813 161.844C415.023 153.639 413.864 145.798 412.813 142.003C408.936 127.7 392.331 115.931 376.644 118.305C365.988 119.915 359.721 127.454 359.019 128.295C351.47 137.582 352.839 148.51 353.116 150.475Z" fill="url(#paint38_linear_329_1452)"/>
<path d="M382.48 128.091C381.377 126.624 381.567 125.762 381.639 125.527C382.054 124.091 384.27 123.66 384.583 123.598C385.539 123.425 386.524 123.491 387.449 123.788C393.911 125.778 398.803 127.28 400.634 131.86C400.962 132.686 401.772 134.716 400.931 135.598C399.824 136.757 397.249 134.465 389.598 132.009C386.972 131.157 384.265 130.46 382.48 128.091ZM398.808 137.875C398.537 137.053 397.96 136.367 397.198 135.957C395.367 134.932 391.501 133.014 390.716 134.691C389.742 136.716 400.034 141.937 398.808 137.875ZM404.131 101.639C403.731 101.308 403.219 101.141 402.7 101.173C402.265 101.19 401.837 101.29 401.439 101.465C401.249 101.557 401.075 101.65 400.926 101.747C400.926 101.696 400.89 101.65 400.875 101.603C400.767 101.342 400.639 101.091 400.516 100.819C400.367 100.557 400.205 100.304 400.029 100.06C399.633 99.4938 399.104 99.0326 398.49 98.7163C397.795 98.3901 397.002 98.3388 396.27 98.5727C395.665 98.7745 395.115 99.1112 394.659 99.5573C394.245 99.9355 393.879 100.364 393.572 100.834C392.967 101.716 392.514 102.694 392.234 103.727L392.342 103.783C392.852 102.908 393.45 102.086 394.126 101.332C394.76 100.551 395.595 99.9583 396.542 99.6188C397.014 99.488 397.519 99.543 397.952 99.7727C398.385 100.02 398.749 100.372 399.008 100.798C399.369 101.328 399.663 101.9 399.885 102.501L399.577 102.768L400.029 102.875C400.111 103.091 400.183 103.311 400.254 103.532L400.311 103.706L400.439 103.573C400.603 103.403 400.783 103.244 400.952 103.091L401.377 103.188L401.265 102.844C401.469 102.69 401.685 102.551 401.911 102.429C402.162 102.259 402.456 102.162 402.759 102.149C403.063 102.137 403.364 102.209 403.629 102.357C404.091 102.774 404.395 103.337 404.49 103.952C404.623 104.571 404.701 105.201 404.721 105.834H404.844C404.999 105.179 405.061 104.506 405.029 103.834C405.013 103.469 404.945 103.109 404.829 102.762C404.706 102.33 404.464 101.941 404.131 101.639ZM419.08 127.829C418.916 127.701 418.757 127.578 418.598 127.47L418.705 127.357C418.89 127.152 419.07 126.921 419.254 126.701C419.439 126.48 419.588 126.219 419.731 125.932C420.071 125.337 420.261 124.668 420.285 123.983C420.281 123.219 419.986 122.485 419.459 121.932C419.017 121.475 418.477 121.124 417.88 120.906C417.359 120.697 416.815 120.552 416.259 120.475C415.202 120.308 414.123 120.32 413.07 120.511V120.614C414.081 120.698 415.08 120.884 416.054 121.168C417.024 121.408 417.911 121.908 418.618 122.614C418.94 122.982 419.109 123.459 419.09 123.947C419.053 124.439 418.9 124.915 418.644 125.337C418.319 125.893 417.93 126.409 417.485 126.875C417.362 126.819 417.239 126.762 417.105 126.711L417.208 127.168C417.044 127.332 416.88 127.496 416.695 127.65L416.562 127.778L416.736 127.839C416.962 127.916 417.182 128.014 417.403 128.111L417.495 128.521L417.752 128.28C417.98 128.398 418.199 128.532 418.408 128.68C418.674 128.835 418.89 129.061 419.032 129.334C419.175 129.606 419.237 129.913 419.213 130.219C419.038 130.816 418.661 131.335 418.147 131.686C417.644 132.073 417.108 132.416 416.547 132.711L416.603 132.819C417.262 132.678 417.898 132.443 418.49 132.121C418.812 131.95 419.109 131.734 419.372 131.48C419.695 131.177 419.931 130.793 420.054 130.368C420.175 129.865 420.106 129.335 419.859 128.88C419.67 128.483 419.405 128.126 419.08 127.829Z" fill="#595567"/>
<path d="M353.886 144.634C353.476 142.779 352.679 141.031 351.547 139.505C350.409 138.028 348.814 136.875 347.04 136.69C345.265 136.505 343.271 137.203 342.368 138.741C341.908 139.534 341.665 140.435 341.666 141.352C341.635 141.787 341.691 142.225 341.831 142.639C341.971 143.052 342.192 143.434 342.481 143.762C343.035 144.275 344.019 144.075 344.948 143.762C345.44 143.592 345.944 143.455 346.455 143.352C347.014 143.237 347.594 143.268 348.137 143.444C348.681 143.64 349.151 143.998 349.486 144.47C349.811 144.918 350.034 145.433 350.137 145.977C350.249 146.52 350.225 147.082 350.065 147.613C349.887 148.129 349.596 148.598 349.214 148.987C348.487 149.731 347.614 150.315 346.65 150.705C346.17 150.883 345.681 151.032 345.183 151.152C344.727 151.285 344.158 151.393 344.065 151.829C343.973 152.264 344.368 152.695 344.717 153.018C345.078 153.359 345.513 153.61 345.989 153.752C346.979 153.976 348.017 153.83 348.906 153.341C348.02 153.869 346.97 154.051 345.958 153.854C345.456 153.724 344.991 153.48 344.599 153.141C344.404 152.973 344.232 152.78 344.086 152.567C343.912 152.342 343.83 152.06 343.855 151.777C343.882 151.636 343.942 151.503 344.031 151.391C344.121 151.278 344.236 151.189 344.368 151.131C344.605 151.021 344.85 150.93 345.101 150.859C345.574 150.719 346.038 150.551 346.491 150.357C347.391 149.956 348.2 149.375 348.865 148.649C349.183 148.302 349.419 147.888 349.558 147.439C349.671 146.989 349.671 146.519 349.558 146.07C349.474 145.625 349.279 145.21 348.99 144.863C348.701 144.515 348.328 144.248 347.906 144.085C347.081 143.823 346.137 144.177 345.189 144.516C344.692 144.708 344.176 144.845 343.65 144.926C343.34 144.967 343.026 144.946 342.724 144.863C342.423 144.78 342.141 144.638 341.896 144.444C341.443 144.055 341.106 143.55 340.922 142.982C340.745 142.453 340.646 141.9 340.63 141.341C340.587 140.222 340.843 139.112 341.373 138.126C341.939 137.122 342.82 136.332 343.881 135.88C344.911 135.433 346.031 135.228 347.153 135.28C348.284 135.364 349.379 135.716 350.348 136.305C351.286 136.882 352.123 137.61 352.824 138.459C354.187 140.146 355.175 142.104 355.722 144.203L353.886 144.634Z" fill="#21013C"/>
<path d="M376.673 336.218H184.29C183.233 336.218 182.377 337.074 182.377 338.13V340.366C182.377 341.423 183.233 342.279 184.29 342.279H376.673C377.73 342.279 378.586 341.423 378.586 340.366V338.13C378.586 337.074 377.73 336.218 376.673 336.218Z" fill="#21013C"/>
<path d="M311.645 342.28H172.64C172.093 342.268 171.567 342.06 171.16 341.694C170.752 341.328 170.49 340.828 170.42 340.285L170.251 339.187L155.779 245.854C155.738 245.582 155.738 245.305 155.779 245.033C155.86 244.501 156.126 244.015 156.53 243.661C156.935 243.306 157.451 243.105 157.989 243.095H298.624C299.182 243.107 299.716 243.321 300.127 243.699C300.538 244.077 300.796 244.591 300.855 245.146L301.434 249.331L313.85 339.49V339.608C313.897 339.931 313.877 340.26 313.789 340.575C313.701 340.889 313.549 341.182 313.341 341.434C313.133 341.686 312.875 341.891 312.583 342.037C312.29 342.182 311.971 342.265 311.645 342.28Z" fill="url(#paint39_linear_329_1452)"/>
<path d="M313.848 339.448C313.804 339.711 313.714 339.964 313.582 340.196L300.843 247.791C300.785 247.236 300.526 246.722 300.115 246.344C299.705 245.966 299.17 245.751 298.613 245.74H158.003C157.613 245.746 157.231 245.854 156.895 246.054C156.559 246.254 156.282 246.538 156.09 246.878L155.793 244.975C155.874 244.444 156.14 243.958 156.544 243.603C156.949 243.248 157.465 243.048 158.003 243.037H298.623C299.181 243.049 299.715 243.264 300.126 243.641C300.536 244.019 300.795 244.533 300.854 245.088L313.848 339.448Z" fill="url(#paint40_linear_329_1452)"/>
<path d="M311.648 342.278H172.644C172.096 342.267 171.571 342.059 171.163 341.693C170.756 341.327 170.493 340.827 170.423 340.284L170.254 339.186C200.777 335.422 236.489 328.714 252.735 317.93C268.981 307.145 287.853 287.617 301.453 249.288L313.868 339.448V339.566C313.923 339.893 313.906 340.228 313.821 340.549C313.735 340.869 313.582 341.168 313.372 341.424C313.162 341.681 312.899 341.89 312.602 342.037C312.305 342.185 311.979 342.267 311.648 342.278Z" fill="white" fill-opacity="0.28"/>
<path d="M312.927 342.279H306.809C307.324 342.264 307.83 342.139 308.292 341.912C308.755 341.685 309.163 341.36 309.489 340.961C309.815 340.563 310.051 340.098 310.181 339.6C310.312 339.101 310.334 338.581 310.245 338.073L298.163 250.355L297.594 246.196C297.554 245.902 297.477 245.614 297.363 245.34L300.035 243.165C300.219 243.247 300.378 243.374 300.498 243.535C300.619 243.696 300.696 243.884 300.722 244.083L301.497 249.724L314.055 340.879C314.086 341.046 314.08 341.219 314.037 341.384C313.995 341.549 313.918 341.703 313.811 341.836C313.704 341.969 313.57 342.077 313.417 342.153C313.265 342.23 313.098 342.272 312.927 342.279Z" fill="#21013C"/>
<path opacity="0.2" d="M169.259 314.227L160.157 253.755C159.644 250.878 161.695 248.202 164.485 248.202H237.259C237.259 248.202 216.105 265.196 198.864 282.048C188.417 292.227 178.534 302.97 169.259 314.227Z" fill="url(#paint41_linear_329_1452)"/>
<path d="M224.666 281.214H239.178C239.801 281.19 240.411 281.394 240.894 281.788C241.378 282.181 241.701 282.737 241.804 283.352L243.691 296.378C243.728 296.784 243.679 297.194 243.546 297.58C243.414 297.966 243.201 298.319 242.922 298.617C242.643 298.915 242.304 299.151 241.927 299.308C241.551 299.466 241.145 299.542 240.737 299.532H226.773C226.166 299.555 225.57 299.361 225.091 298.985C224.613 298.61 224.284 298.076 224.163 297.48L221.727 284.45C221.42 282.798 222.855 281.214 224.666 281.214Z" fill="url(#paint42_linear_329_1452)"/>
<path d="M189.907 105.376H252.409C255.097 105.376 257.675 106.444 259.576 108.344C261.477 110.244 262.546 112.822 262.547 115.51V147.715C262.547 150.404 261.479 152.983 259.578 154.884C257.676 156.785 255.098 157.853 252.409 157.853H211.194L200.85 171.382V157.853H189.907C188.576 157.853 187.257 157.591 186.028 157.082C184.798 156.572 183.681 155.825 182.74 154.884C181.799 153.942 181.052 152.824 180.543 151.594C180.034 150.364 179.773 149.046 179.773 147.715V115.51C179.773 114.179 180.036 112.861 180.545 111.632C181.054 110.402 181.8 109.285 182.741 108.344C183.682 107.403 184.799 106.657 186.029 106.148C187.258 105.638 188.576 105.376 189.907 105.376Z" fill="url(#paint43_linear_329_1452)"/>
<path d="M286.807 137.535H237.638C235.524 137.535 233.497 138.375 232.001 139.869C230.506 141.363 229.665 143.39 229.664 145.504V170.843C229.664 172.958 230.504 174.986 232 176.482C233.495 177.977 235.523 178.817 237.638 178.817H270.079L278.197 189.458V178.807H286.823C288.938 178.807 290.966 177.967 292.461 176.471C293.957 174.976 294.797 172.948 294.797 170.833V145.494C294.795 144.447 294.587 143.41 294.184 142.444C293.781 141.477 293.192 140.599 292.45 139.86C291.709 139.121 290.828 138.535 289.86 138.136C288.892 137.737 287.854 137.533 286.807 137.535Z" fill="url(#paint44_linear_329_1452)"/>
</g>
<path d="M514.879 134.772C514.137 137.081 512.863 139.184 511.158 140.91C509.454 142.637 507.368 143.938 505.069 144.71C504.161 145.016 503.33 145.513 502.631 146.169C501.933 146.825 501.384 147.623 501.023 148.51L498.705 154.274L496.412 159.977C495.838 161.4 494.736 162.545 493.335 163.172C491.922 163.814 490.32 163.906 488.843 163.428C487.375 162.974 486.132 161.982 485.364 160.651C484.595 159.32 484.358 157.747 484.7 156.249C485.182 154.259 485.665 152.269 486.151 150.28C486.664 148.269 487.13 146.249 487.623 144.238C487.845 143.307 487.864 142.338 487.678 141.398C487.492 140.458 487.106 139.569 486.546 138.792C485.126 136.831 484.187 134.564 483.803 132.173C483.419 129.783 483.602 127.335 484.336 125.028C486.966 116.823 495.935 112.32 504.366 115.018C512.797 117.715 517.515 126.546 514.879 134.772Z" fill="#FFB97F"/>
<path d="M492.757 154.932C492.819 154.722 494.296 149.686 496.291 144.435C496.906 142.794 497.475 141.389 497.993 140.178C496.948 139.886 495.92 139.531 494.916 139.117C494.655 140.312 494.337 141.681 493.957 143.189C492.532 148.83 490.88 154.255 490.839 154.307L489.783 153.978C489.783 153.922 491.568 148.225 493.009 142.414C493.357 141.009 493.645 139.763 493.88 138.666C493.121 138.322 492.583 138.04 492.378 137.932C490.763 137.076 490.004 136.358 489.675 135.368C489.493 134.696 489.477 133.989 489.627 133.309C489.777 132.628 490.089 131.994 490.537 131.46C491.614 130.014 493.234 129.112 494.639 129.158C494.819 129.165 494.995 129.215 495.151 129.304C495.307 129.394 495.44 129.519 495.537 129.671C495.998 130.317 496.383 131.922 495.127 138.035C496.19 138.488 497.283 138.868 498.398 139.173C501.003 133.399 502.332 132.973 502.829 132.814C503.111 132.703 503.414 132.653 503.717 132.666C504.02 132.679 504.317 132.756 504.588 132.891C505.234 133.245 505.701 134.04 505.901 135.122C506.121 136.342 506.014 138.199 504.962 139.43C503.68 140.922 501.373 140.968 499.045 140.455C497.017 145.288 495.257 150.229 493.773 155.255L492.757 154.932ZM503.988 133.804C503.731 133.74 503.461 133.756 503.214 133.85C502.245 134.163 500.927 136.373 499.547 139.419C501.501 139.804 503.275 139.732 504.162 138.691C504.911 137.819 505.05 136.363 504.855 135.307C504.831 135.026 504.753 134.753 504.623 134.503C504.494 134.253 504.316 134.031 504.101 133.85L503.988 133.804ZM494.65 130.266C493.588 130.23 492.301 130.978 491.445 132.122C491.105 132.514 490.864 132.982 490.743 133.486C490.622 133.99 490.623 134.516 490.747 135.019C490.901 135.481 491.204 136.045 492.916 136.953C493.28 137.148 493.691 137.348 494.132 137.558C495.47 130.866 494.68 130.291 494.65 130.266Z" fill="white"/>
<path d="M499.296 154.454L496.825 160.608C496.205 162.138 495.015 163.368 493.507 164.039C491.973 164.731 490.235 164.826 488.635 164.306C487.033 163.822 485.674 162.746 484.835 161.298C483.997 159.85 483.74 158.136 484.117 156.506C484.633 154.362 485.146 152.22 485.656 150.08L486.143 150.234L488.061 150.849L499.296 154.454Z" fill="url(#paint45_linear_329_1452)"/>
<path d="M627.771 339.574H93V344.974H627.771V339.574Z" fill="url(#paint46_linear_329_1452)"/>
<path d="M533.386 253.59L499.24 339.571L507.071 342.681L541.216 256.7L533.386 253.59Z" fill="url(#paint47_linear_329_1452)"/>
<path d="M538.36 256.086L504.215 342.067L507.232 343.265L541.377 257.284L538.36 256.086Z" fill="url(#paint48_linear_329_1452)"/>
<path d="M523.62 336.636H482.984V345H523.62V336.636Z" fill="url(#paint49_linear_329_1452)"/>
<path d="M513.959 331.641H498.128C496.726 331.641 495.59 332.777 495.59 334.179V337.466C495.59 338.868 496.726 340.005 498.128 340.005H513.959C515.361 340.005 516.497 338.868 516.497 337.466V334.179C516.497 332.777 515.361 331.641 513.959 331.641Z" fill="url(#paint50_linear_329_1452)"/>
<path d="M541.542 260.559L489.906 226.749L485.272 233.827L536.908 267.637L541.542 260.559Z" fill="url(#paint51_linear_329_1452)"/>
<path d="M536.305 265.058L484.975 231.237L483.62 233.292L534.951 267.114L536.305 265.058Z" fill="url(#paint52_linear_329_1452)"/>
<path d="M533.211 270.85C538.785 270.85 543.304 266.332 543.304 260.758C543.304 255.184 538.785 250.665 533.211 250.665C527.638 250.665 523.119 255.184 523.119 260.758C523.119 266.332 527.638 270.85 533.211 270.85Z" fill="url(#paint53_linear_329_1452)"/>
<path d="M533.204 266.378C536.309 266.378 538.825 263.862 538.825 260.758C538.825 257.653 536.309 255.137 533.204 255.137C530.1 255.137 527.584 257.653 527.584 260.758C527.584 263.862 530.1 266.378 533.204 266.378Z" fill="#21013C"/>
<path d="M486.67 216.943C484.209 214.8 481.007 213.704 477.749 213.89C474.491 214.076 471.435 215.529 469.234 217.938C463.63 216.26 457.661 216.232 452.042 217.857C446.422 219.482 441.39 222.692 437.547 227.102C437.547 227.102 443.188 240.497 456.885 251.569C471.803 263.636 483.465 267.133 483.465 267.133C487.333 262.694 489.832 257.228 490.66 251.398C491.487 245.568 490.607 239.622 488.126 234.282C490.184 231.769 491.183 228.554 490.911 225.318C490.639 222.081 489.118 219.078 486.67 216.943Z" fill="url(#paint54_linear_329_1452)"/>
<path d="M488.118 234.281C490.294 231.782 491.389 228.522 491.161 225.216C490.933 221.911 489.401 218.831 486.903 216.655C484.404 214.479 481.144 213.385 477.838 213.613C474.533 213.84 471.453 215.372 469.277 217.871C470.262 219.66 473.59 225.271 477.888 228.594C482.626 232.271 486.026 233.035 488.272 234.614C488.216 234.512 488.17 234.394 488.118 234.281Z" fill="url(#paint55_linear_329_1452)"/>
<path d="M486.67 216.942C492.029 227.48 485.429 232.537 485.429 232.537C485.429 232.537 488.101 250.065 476.275 264.055L480.419 265.932L483.46 267.132C487.329 262.692 489.828 257.227 490.655 251.396C491.482 245.566 490.602 239.621 488.121 234.28C490.18 231.768 491.179 228.553 490.909 225.317C490.638 222.081 489.118 219.077 486.67 216.942Z" fill="#34735C"/>
<path d="M486.74 220.876L482.396 217.368C482.027 217.067 481.721 216.696 481.496 216.276C481.271 215.857 481.13 215.397 481.083 214.923C481.035 214.449 481.081 213.97 481.219 213.514C481.356 213.058 481.582 212.634 481.883 212.265C482.488 211.518 483.365 211.042 484.32 210.941C485.276 210.84 486.233 211.123 486.981 211.727L491.324 215.235C491.699 215.534 492.011 215.905 492.241 216.325C492.471 216.746 492.616 217.208 492.667 217.685C492.717 218.162 492.673 218.644 492.536 219.104C492.398 219.564 492.171 219.991 491.868 220.363C491.566 220.735 491.193 221.043 490.771 221.27C490.35 221.498 489.887 221.639 489.41 221.687C488.934 221.735 488.452 221.687 487.994 221.548C487.536 221.409 487.109 221.18 486.74 220.876Z" fill="#21013C"/>
<path d="M488.013 234.574C483.849 233.111 479.996 230.885 476.649 228.009C470.146 222.543 468.956 218.194 468.91 218.015L469.5 217.861C469.5 217.902 470.705 222.215 477.038 227.548C480.322 230.368 484.103 232.553 488.187 233.989L488.013 234.574Z" fill="white"/>
<path opacity="0.38" d="M441.131 226.916C449.849 219.644 460.331 220.09 467.505 221.275C467.505 221.275 451.095 227.342 446.48 234.824L441.131 226.916Z" fill="white"/>
</g>
<defs>
<linearGradient id="paint0_linear_329_1452" x1="319.953" y1="-70.6149" x2="318.787" y2="481.046" gradientUnits="userSpaceOnUse">
<stop stop-color="#41FB97"/>
<stop offset="0.742708" stop-color="#10DC74"/>
<stop offset="1" stop-color="#09A757"/>
</linearGradient>
<linearGradient id="paint1_linear_329_1452" x1="401.313" y1="91.5101" x2="401.313" y2="166.884" gradientUnits="userSpaceOnUse">
<stop stop-color="#21013C"/>
<stop offset="1" stop-color="#4B1677"/>
</linearGradient>
<linearGradient id="paint2_linear_329_1452" x1="394.116" y1="189.003" x2="394.116" y2="231.192" gradientUnits="userSpaceOnUse">
<stop stop-color="white"/>
<stop offset="1" stop-color="#FFD0D0"/>
</linearGradient>
<linearGradient id="paint3_linear_329_1452" x1="392.687" y1="189.009" x2="396.223" y2="212.194" gradientUnits="userSpaceOnUse">
<stop stop-color="white"/>
<stop offset="1" stop-color="#FFD0D0"/>
</linearGradient>
<linearGradient id="paint4_linear_329_1452" x1="380.039" y1="375.544" x2="404.962" y2="375.544" gradientUnits="userSpaceOnUse">
<stop stop-color="#62B58B"/>
<stop offset="0.35" stop-color="#55A581"/>
<stop offset="1" stop-color="#408C70"/>
</linearGradient>
<linearGradient id="paint5_linear_329_1452" x1="471.83" y1="375.545" x2="496.753" y2="375.545" gradientUnits="userSpaceOnUse">
<stop stop-color="#62B58B"/>
<stop offset="0.35" stop-color="#55A581"/>
<stop offset="1" stop-color="#408C70"/>
</linearGradient>
<linearGradient id="paint6_linear_329_1452" x1="377.395" y1="335.421" x2="507.753" y2="335.421" gradientUnits="userSpaceOnUse">
<stop stop-color="#621F85"/>
<stop offset="1" stop-color="#804CD6"/>
</linearGradient>
<linearGradient id="paint7_linear_329_1452" x1="314.303" y1="267.149" x2="375.997" y2="279.701" gradientUnits="userSpaceOnUse">
<stop stop-color="#905452"/>
<stop offset="0.09" stop-color="#8B5150"/>
<stop offset="0.33" stop-color="#844C4E"/>
<stop offset="1" stop-color="#824B4D"/>
</linearGradient>
<linearGradient id="paint8_linear_329_1452" x1="304.203" y1="218.374" x2="375.193" y2="275.435" gradientUnits="userSpaceOnUse">
<stop stop-color="white"/>
<stop offset="0.79" stop-color="#E6ECF8"/>
<stop offset="1" stop-color="#DEE6F6"/>
</linearGradient>
<linearGradient id="paint9_linear_329_1452" x1="375.433" y1="266.208" x2="325.464" y2="332.921" gradientUnits="userSpaceOnUse">
<stop stop-color="#B2A5D9"/>
<stop offset="0.61" stop-color="#EBE9F5"/>
</linearGradient>
<linearGradient id="paint10_linear_329_1452" x1="422.289" y1="172.47" x2="416.165" y2="270.101" gradientUnits="userSpaceOnUse">
<stop stop-color="white"/>
<stop offset="0.79" stop-color="#E6ECF8"/>
<stop offset="1" stop-color="#DEE6F6"/>
</linearGradient>
<linearGradient id="paint11_linear_329_1452" x1="404.624" y1="267.44" x2="464.973" y2="325.542" gradientUnits="userSpaceOnUse">
<stop stop-color="#EBE9F5"/>
<stop offset="0.09" stop-color="#DFDBEF"/>
<stop offset="0.29" stop-color="#CBC3E5"/>
<stop offset="0.49" stop-color="#BDB2DE"/>
<stop offset="0.72" stop-color="#B5A8DA"/>
<stop offset="1" stop-color="#B2A5D9"/>
</linearGradient>
<linearGradient id="paint12_linear_329_1452" x1="411.585" y1="215.712" x2="381.185" y2="240.788" gradientUnits="userSpaceOnUse">
<stop stop-color="#EBE9F5"/>
<stop offset="1" stop-color="#B2A5D9"/>
</linearGradient>
<linearGradient id="paint13_linear_329_1452" x1="335.049" y1="311.877" x2="363.807" y2="311.877" gradientUnits="userSpaceOnUse">
<stop stop-color="#B1401C"/>
<stop offset="0.82" stop-color="#D0662D"/>
<stop offset="1" stop-color="#D76F31"/>
</linearGradient>
<linearGradient id="paint14_linear_329_1452" x1="310.413" y1="326.517" x2="375.028" y2="326.517" gradientUnits="userSpaceOnUse">
<stop stop-color="#B1401C"/>
<stop offset="0.82" stop-color="#D0662D"/>
<stop offset="1" stop-color="#D76F31"/>
</linearGradient>
<linearGradient id="paint15_linear_329_1452" x1="380.332" y1="227.455" x2="440.269" y2="208.235" gradientUnits="userSpaceOnUse">
<stop stop-color="#FFFDFD"/>
<stop offset="0.83" stop-color="#E6ECE7"/>
<stop offset="1" stop-color="#E0E8E2"/>
</linearGradient>
<linearGradient id="paint16_linear_329_1452" x1="379.864" y1="224.418" x2="432.247" y2="207.621" gradientUnits="userSpaceOnUse">
<stop stop-color="#B2A5D9"/>
<stop offset="0.61" stop-color="#EBE9F5"/>
</linearGradient>
<linearGradient id="paint17_linear_329_1452" x1="380.313" y1="132.111" x2="380.313" y2="212.624" gradientUnits="userSpaceOnUse">
<stop stop-color="white"/>
<stop offset="1" stop-color="#FFB9B9"/>
</linearGradient>
<linearGradient id="paint18_linear_329_1452" x1="381.967" y1="132.106" x2="381.967" y2="212.628" gradientUnits="userSpaceOnUse">
<stop stop-color="white"/>
<stop offset="1" stop-color="#FF9999"/>
</linearGradient>
<linearGradient id="paint19_linear_329_1452" x1="391.266" y1="174.194" x2="422.013" y2="171.049" gradientUnits="userSpaceOnUse">
<stop stop-color="#C36867"/>
<stop offset="0.36" stop-color="#C06766"/>
<stop offset="0.6" stop-color="#B86462"/>
<stop offset="0.8" stop-color="#A95E5C"/>
<stop offset="0.97" stop-color="#945654"/>
<stop offset="1" stop-color="#905452"/>
</linearGradient>
<linearGradient id="paint20_linear_329_1452" x1="409.36" y1="173.396" x2="415.686" y2="172.749" gradientUnits="userSpaceOnUse">
<stop stop-color="#905452"/>
<stop offset="0.09" stop-color="#8B5150"/>
<stop offset="0.33" stop-color="#844C4E"/>
<stop offset="1" stop-color="#824B4D"/>
</linearGradient>
<linearGradient id="paint21_linear_329_1452" x1="336.181" y1="227.402" x2="336.181" y2="341.028" gradientUnits="userSpaceOnUse">
<stop stop-color="white"/>
<stop offset="1" stop-color="#FFD0D0"/>
</linearGradient>
<linearGradient id="paint22_linear_329_1452" x1="308.482" y1="267.918" x2="334.684" y2="273.249" gradientUnits="userSpaceOnUse">
<stop stop-color="#C36867"/>
<stop offset="0.36" stop-color="#C06766"/>
<stop offset="0.6" stop-color="#B86462"/>
<stop offset="0.8" stop-color="#A95E5C"/>
<stop offset="0.97" stop-color="#945654"/>
<stop offset="1" stop-color="#905452"/>
</linearGradient>
<linearGradient id="paint23_linear_329_1452" x1="336.223" y1="191.531" x2="336.223" y2="236.859" gradientUnits="userSpaceOnUse">
<stop stop-color="white"/>
<stop offset="1" stop-color="#FFD0D0"/>
</linearGradient>
<linearGradient id="paint24_linear_329_1452" x1="351.268" y1="205.306" x2="351.268" y2="229.331" gradientUnits="userSpaceOnUse">
<stop stop-color="white"/>
<stop offset="1" stop-color="#FFD0D0"/>
</linearGradient>
<linearGradient id="paint25_linear_329_1452" x1="308.281" y1="230.901" x2="373.335" y2="199.91" gradientUnits="userSpaceOnUse">
<stop stop-color="#B72C3B"/>
<stop offset="1" stop-color="#ED727F"/>
</linearGradient>
<linearGradient id="paint26_linear_329_1452" x1="336.3" y1="190.357" x2="336.3" y2="216.673" gradientUnits="userSpaceOnUse">
<stop stop-color="white"/>
<stop offset="1" stop-color="#FFD0D0"/>
</linearGradient>
<linearGradient id="paint27_linear_329_1452" x1="336.815" y1="197.921" x2="336.815" y2="216.641" gradientUnits="userSpaceOnUse">
<stop stop-color="white"/>
<stop offset="1" stop-color="#FFD0D0"/>
</linearGradient>
<linearGradient id="paint28_linear_329_1452" x1="327.643" y1="196.787" x2="333.889" y2="198.057" gradientUnits="userSpaceOnUse">
<stop stop-color="#905452"/>
<stop offset="0.09" stop-color="#8B5150"/>
<stop offset="0.33" stop-color="#844C4E"/>
<stop offset="1" stop-color="#824B4D"/>
</linearGradient>
<linearGradient id="paint29_linear_329_1452" x1="334.594" y1="194.561" x2="340.328" y2="195.727" gradientUnits="userSpaceOnUse">
<stop stop-color="#905452"/>
<stop offset="0.09" stop-color="#8B5150"/>
<stop offset="0.33" stop-color="#844C4E"/>
<stop offset="1" stop-color="#824B4D"/>
</linearGradient>
<linearGradient id="paint30_linear_329_1452" x1="342.341" y1="193.772" x2="347.367" y2="194.794" gradientUnits="userSpaceOnUse">
<stop stop-color="#905452"/>
<stop offset="0.09" stop-color="#8B5150"/>
<stop offset="0.33" stop-color="#844C4E"/>
<stop offset="1" stop-color="#824B4D"/>
</linearGradient>
<linearGradient id="paint31_linear_329_1452" x1="315.689" y1="236.804" x2="410.781" y2="306.311" gradientUnits="userSpaceOnUse">
<stop stop-color="white"/>
<stop offset="0.79" stop-color="#E6ECF8"/>
<stop offset="1" stop-color="#DEE6F6"/>
</linearGradient>
<linearGradient id="paint32_linear_329_1452" x1="382.543" y1="295.676" x2="478.867" y2="305.169" gradientUnits="userSpaceOnUse">
<stop stop-color="white"/>
<stop offset="1" stop-color="#FFD0D0"/>
</linearGradient>
<linearGradient id="paint33_linear_329_1452" x1="376.427" y1="305.074" x2="376.427" y2="338.978" gradientUnits="userSpaceOnUse">
<stop stop-color="white"/>
<stop offset="1" stop-color="#FFD0D0"/>
</linearGradient>
<linearGradient id="paint34_linear_329_1452" x1="338.757" y1="296.462" x2="458.207" y2="320.764" gradientUnits="userSpaceOnUse">
<stop stop-color="#C36867"/>
<stop offset="0.36" stop-color="#C06766"/>
<stop offset="0.6" stop-color="#B86462"/>
<stop offset="0.8" stop-color="#A95E5C"/>
<stop offset="0.97" stop-color="#945654"/>
<stop offset="1" stop-color="#905452"/>
</linearGradient>
<linearGradient id="paint35_linear_329_1452" x1="441.755" y1="261.952" x2="388.16" y2="186.45" gradientUnits="userSpaceOnUse">
<stop stop-color="#DEE6F6"/>
<stop offset="0.21" stop-color="#E6ECF8"/>
<stop offset="1" stop-color="white"/>
</linearGradient>
<linearGradient id="paint36_linear_329_1452" x1="425.789" y1="256.486" x2="476.148" y2="256.486" gradientUnits="userSpaceOnUse">
<stop stop-color="#EBE9F5"/>
<stop offset="0.24" stop-color="#D5CEEA"/>
<stop offset="0.51" stop-color="#C2B8E1"/>
<stop offset="0.77" stop-color="#B6AADB"/>
<stop offset="1" stop-color="#B2A5D9"/>
</linearGradient>
<linearGradient id="paint37_linear_329_1452" x1="375.838" y1="133.855" x2="413.735" y2="133.855" gradientUnits="userSpaceOnUse">
<stop stop-color="#62B58B"/>
<stop offset="0.15" stop-color="#54A480"/>
<stop offset="0.34" stop-color="#499777"/>
<stop offset="0.58" stop-color="#428E72"/>
<stop offset="1" stop-color="#408C70"/>
</linearGradient>
<linearGradient id="paint38_linear_329_1452" x1="383.377" y1="117.999" x2="383.377" y2="167.346" gradientUnits="userSpaceOnUse">
<stop stop-color="#21013C"/>
<stop offset="1" stop-color="#54217F"/>
</linearGradient>
<linearGradient id="paint39_linear_329_1452" x1="202.902" y1="343.064" x2="287.533" y2="209.485" gradientUnits="userSpaceOnUse">
<stop stop-color="#FFD2AC"/>
<stop offset="1" stop-color="#E73F46"/>
</linearGradient>
<linearGradient id="paint40_linear_329_1452" x1="155.793" y1="291.632" x2="313.848" y2="291.632" gradientUnits="userSpaceOnUse">
<stop offset="0.39" stop-color="#EBE9F5"/>
<stop offset="1" stop-color="#B2A5D9"/>
</linearGradient>
<linearGradient id="paint41_linear_329_1452" x1="191.516" y1="348.582" x2="265.009" y2="325.015" gradientUnits="userSpaceOnUse">
<stop stop-color="#FFFDFD"/>
<stop offset="0.83" stop-color="#E6ECE7"/>
<stop offset="1" stop-color="#E0E8E2"/>
</linearGradient>
<linearGradient id="paint42_linear_329_1452" x1="221.686" y1="290.373" x2="243.717" y2="290.373" gradientUnits="userSpaceOnUse">
<stop stop-color="white"/>
<stop offset="0.79" stop-color="#E6ECF8"/>
<stop offset="1" stop-color="#DEE6F6"/>
</linearGradient>
<linearGradient id="paint43_linear_329_1452" x1="202.176" y1="167.241" x2="262.763" y2="105.259" gradientUnits="userSpaceOnUse">
<stop stop-color="#DBACF4" stop-opacity="0.94"/>
<stop offset="1" stop-color="#804CD6"/>
</linearGradient>
<linearGradient id="paint44_linear_329_1452" x1="278.119" y1="189.577" x2="246.568" y2="137.646" gradientUnits="userSpaceOnUse">
<stop stop-color="white" stop-opacity="0.26"/>
<stop offset="0.79" stop-color="#E6ECF8"/>
<stop offset="1" stop-color="#DEE6F6"/>
</linearGradient>
<linearGradient id="paint45_linear_329_1452" x1="491.622" y1="150.08" x2="491.622" y2="164.637" gradientUnits="userSpaceOnUse">
<stop stop-color="#21013C"/>
<stop offset="1" stop-color="#67378F"/>
</linearGradient>
<linearGradient id="paint46_linear_329_1452" x1="93" y1="342.02" x2="634.64" y2="344.812" gradientUnits="userSpaceOnUse">
<stop stop-color="#684883"/>
<stop offset="1" stop-color="#C8A8E3"/>
</linearGradient>
<linearGradient id="paint47_linear_329_1452" x1="519.919" y1="298.101" x2="483.235" y2="295.925" gradientUnits="userSpaceOnUse">
<stop stop-color="#DEE6F6"/>
<stop offset="0.21" stop-color="#E6ECF8"/>
<stop offset="1" stop-color="white"/>
</linearGradient>
<linearGradient id="paint48_linear_329_1452" x1="504.221" y1="299.663" x2="541.379" y2="299.663" gradientUnits="userSpaceOnUse">
<stop stop-color="#EBE9F5"/>
<stop offset="0.24" stop-color="#D5CEEA"/>
<stop offset="0.51" stop-color="#C2B8E1"/>
<stop offset="0.77" stop-color="#B6AADB"/>
<stop offset="1" stop-color="#B2A5D9"/>
</linearGradient>
<linearGradient id="paint49_linear_329_1452" x1="503.302" y1="336.636" x2="503.302" y2="345" gradientUnits="userSpaceOnUse">
<stop stop-color="#21013C"/>
<stop offset="1" stop-color="#3F0B6B"/>
</linearGradient>
<linearGradient id="paint50_linear_329_1452" x1="506.044" y1="331.641" x2="506.044" y2="340.005" gradientUnits="userSpaceOnUse">
<stop stop-color="#21013C"/>
<stop offset="1" stop-color="#56138E"/>
</linearGradient>
<linearGradient id="paint51_linear_329_1452" x1="512.179" y1="246.078" x2="516.205" y2="211.554" gradientUnits="userSpaceOnUse">
<stop stop-color="#DEE6F6"/>
<stop offset="0.21" stop-color="#E6ECF8"/>
<stop offset="1" stop-color="white"/>
</linearGradient>
<linearGradient id="paint52_linear_329_1452" x1="483.606" y1="249.206" x2="536.292" y2="249.206" gradientUnits="userSpaceOnUse">
<stop stop-color="#B2A5D9"/>
<stop offset="0.23" stop-color="#B6AADB"/>
<stop offset="0.49" stop-color="#C2B8E1"/>
<stop offset="0.76" stop-color="#D5CEEA"/>
<stop offset="1" stop-color="#EBE9F5"/>
</linearGradient>
<linearGradient id="paint53_linear_329_1452" x1="533.247" y1="260.086" x2="546.376" y2="244.964" gradientUnits="userSpaceOnUse">
<stop stop-color="#62B58B"/>
<stop offset="0.35" stop-color="#55A581"/>
<stop offset="1" stop-color="#408C70"/>
</linearGradient>
<linearGradient id="paint54_linear_329_1452" x1="464.68" y1="226.687" x2="487.357" y2="285.502" gradientUnits="userSpaceOnUse">
<stop stop-color="#62B58B"/>
<stop offset="0.15" stop-color="#54A480"/>
<stop offset="0.34" stop-color="#499777"/>
<stop offset="0.58" stop-color="#428E72"/>
<stop offset="1" stop-color="#408C70"/>
</linearGradient>
<linearGradient id="paint55_linear_329_1452" x1="469.277" y1="224.245" x2="490.949" y2="224.245" gradientUnits="userSpaceOnUse">
<stop offset="1" stop-color="#408C70"/>
</linearGradient>
<clipPath id="clip0_329_1452">
<rect width="720" height="400" fill="white"/>
</clipPath>
</defs>
</svg>
