<svg width="720" height="400" viewBox="0 0 720 400" fill="none" xmlns="http://www.w3.org/2000/svg">
<g clip-path="url(#clip0_21_1038)">
<rect width="720" height="400" fill="white"/>
<rect x="-53.6499" width="833.836" height="396.072" fill="url(#paint0_radial_21_1038)"/>
<path d="M124.157 313.907C35.8268 300.197 -54.3104 383.789 -88.3377 427.298L-87.1153 447.899L821.895 393.96L817.183 314.561C771.261 317.286 765.147 308.604 713.786 292.271C662.426 275.937 629.222 268.001 541.141 278.827C453.061 289.653 431.137 319.379 331.777 343.364C232.418 367.349 234.571 331.043 124.157 313.907Z" fill="#7A33E7"/>
<path d="M155.41 325.748C67.079 312.039 -23.0582 395.63 -57.0855 439.14L-55.8631 459.74L853.147 405.802L848.436 326.403C802.513 329.128 796.399 320.446 745.038 304.112C693.678 287.779 660.474 279.843 572.394 290.669C484.313 301.494 462.389 331.221 363.029 355.206C263.67 379.191 265.823 342.885 155.41 325.748Z" fill="#853FF0"/>
<path d="M441.549 296.333C440.32 289.87 440.413 283.171 441.877 276.754C442.564 273.745 443.473 270.668 444.957 267.936L444.993 268.223C445.384 268.947 448.143 273.885 452.686 274.247C456.38 274.541 459.708 271.688 462.369 269.407C463.306 268.603 464.031 267.862 464.53 267.319C462.967 267.414 460.679 267.373 458.094 266.6C456.047 265.987 455.325 265.368 453.966 264.988C452.21 264.496 449.6 264.462 445.842 266.465C447.569 263.882 449.992 261.96 452.518 260.194C455.026 258.441 457.671 256.812 459.846 254.632C461.507 252.967 462.706 251.037 463.368 248.837C464.119 250.138 466.772 254.226 470.89 254.554C474.583 254.848 477.912 251.995 480.572 249.714C481.51 248.91 482.234 248.169 482.734 247.626C481.171 247.721 478.883 247.68 476.297 246.907C474.251 246.295 473.529 245.676 472.169 245.295C470.375 244.793 467.69 244.767 463.799 246.905C464.325 243.586 464.187 240.086 463.966 236.751C463.858 235.108 463.651 233.479 463.436 231.852C464.45 233.465 466.969 236.806 470.676 237.101C474.369 237.396 477.697 234.542 480.358 232.262C481.296 231.458 482.02 230.716 482.519 230.174C480.956 230.269 478.668 230.228 476.082 229.454C474.037 228.842 473.314 228.223 471.955 227.842C470.095 227.321 467.278 227.313 463.154 229.696C463.048 228.857 462.95 228.016 462.873 227.173C462.537 223.503 462.917 219.832 465.287 216.883L465.361 217.48C465.752 218.204 468.511 223.142 473.054 223.504C476.747 223.798 480.076 220.945 482.736 218.664C483.674 217.86 484.399 217.119 484.898 216.576C483.335 216.671 481.047 216.63 478.461 215.857C476.415 215.245 475.693 214.626 474.333 214.245C472.622 213.765 470.1 213.721 466.493 215.574C468.415 213.746 470.812 212.454 473.236 211.338L474.056 211.859C474.894 212.02 480.669 213.05 483.954 209.623C486.625 206.837 486.533 202.27 486.459 198.62C486.434 197.333 486.317 196.261 486.212 195.5C485.257 196.824 483.716 198.643 481.392 200.219C479.553 201.466 478.581 201.641 477.379 202.487C475.732 203.646 473.864 205.921 473.057 210.843C470.673 211.942 468.339 213.201 466.388 214.962C464.399 216.757 463.075 219.013 462.53 221.583C462.326 219.68 461.591 216.307 458.923 214.6C456.029 212.749 452.072 213.632 448.908 214.338C447.793 214.587 446.879 214.877 446.236 215.104C447.556 215.707 449.409 216.738 451.19 218.498C452.598 219.89 452.921 220.712 453.868 221.616C455.197 222.884 457.582 224.151 462.211 223.922L462.252 223.816C462.111 226.61 462.614 229.406 462.982 232.166C463.256 234.225 463.437 236.295 463.526 238.369L463.491 238.214C463.065 237.584 460.072 233.285 455.852 233.368C452.421 233.436 449.614 236.371 447.369 238.717C446.578 239.544 445.978 240.293 445.567 240.84C446.999 240.609 449.112 240.437 451.565 240.912C453.506 241.289 454.228 241.793 455.516 242.019C457.295 242.332 459.925 242.072 463.564 239.427C463.6 240.732 463.6 242.038 463.56 243.344C463.518 244.683 463.408 245.998 463.164 247.268C463.125 247.291 463.088 247.312 463.05 247.335L463.087 247.638C462.672 249.565 461.927 251.383 460.607 253.011C459.289 254.635 457.661 255.954 455.964 257.173L455.839 256.307C455.462 255.645 452.811 251.126 448.597 250.88C445.172 250.68 442.146 253.387 439.726 255.551C438.874 256.314 438.217 257.014 437.766 257.527C439.211 257.408 441.331 257.401 443.74 258.067C445.646 258.593 446.327 259.152 447.593 259.478C449.071 259.859 451.188 259.879 454.121 258.456C453.855 258.637 453.591 258.818 453.328 258.999C450.808 260.726 448.25 262.508 446.318 264.913C445.785 265.576 445.309 266.279 444.878 267.009C444.867 267.015 444.857 267.021 444.846 267.028L444.849 267.057C443.481 269.39 442.585 272.012 441.875 274.604C439.932 281.701 439.659 289.208 441.033 296.435C441.097 296.769 441.613 296.667 441.549 296.333Z" fill="#DED9FF" fill-opacity="0.36"/>
<path d="M415.117 305.993C416.601 304.734 419.032 305.341 420.271 306.838C421.51 308.335 421.796 310.413 421.753 312.365C421.683 315.522 420.949 318.38 420.051 321.331C421.979 319.132 423.985 317.004 426.052 314.946C427.419 313.584 428.817 312.253 430.244 310.951C427.446 307.583 425.676 303.362 425.246 298.997C425.084 297.343 425.208 295.443 426.476 294.373C427.957 293.123 430.389 293.731 431.629 295.221C432.869 296.712 433.159 298.78 433.118 300.721C433.051 303.981 432.266 306.919 431.327 309.974C435.768 306.013 440.489 302.364 445.491 299.154C443.327 295.418 442.279 291.037 442.541 286.723C442.641 285.064 443.064 283.207 444.485 282.353C446.146 281.355 448.45 282.342 449.439 284.011C450.428 285.68 450.388 287.767 450.041 289.678C449.479 292.774 448.306 295.468 446.957 298.229C452.282 294.928 458.107 291.993 464.287 290.884C464.415 290.861 464.545 290.844 464.674 290.822C463.019 286.781 462.587 282.241 463.47 277.961C463.805 276.333 464.488 274.556 466.016 273.914C467.801 273.164 469.942 274.471 470.683 276.265C471.425 278.059 471.088 280.119 470.473 281.96C469.389 285.205 467.658 287.875 465.748 290.649C472.921 289.563 480.324 289.799 487.448 288.468C485.722 284.376 485.258 279.754 486.156 275.401C486.491 273.773 487.174 271.995 488.702 271.354C490.487 270.604 492.628 271.911 493.37 273.704C494.111 275.498 493.774 277.558 493.159 279.399C492.046 282.731 490.251 285.457 488.279 288.311C490.053 287.947 491.809 287.478 493.538 286.857C497.039 285.598 500.237 283.599 503.047 281.109C500.215 277.56 498.509 273.116 498.254 268.576C498.16 266.917 498.364 265.023 499.675 264.007C501.208 262.822 503.612 263.531 504.789 265.072C505.965 266.614 506.168 268.692 506.046 270.63C505.823 274.185 504.764 277.318 503.571 280.635C508.023 276.522 511.447 271.168 513.466 265.591C511.307 262.081 510.142 257.956 510.171 253.829C510.183 252.167 510.506 250.29 511.88 249.361C513.484 248.275 515.839 249.136 516.915 250.75C517.992 252.363 518.062 254.45 517.818 256.377C517.428 259.45 516.427 262.165 515.251 264.949C515.266 265.06 515.259 265.181 515.215 265.311C513.602 270.097 511.013 274.528 507.76 278.376C507.043 279.225 506.291 280.051 505.509 280.849C509.183 279.262 513.29 278.691 517.252 279.245C518.893 279.474 520.705 280.042 521.443 281.53C522.306 283.269 521.147 285.497 519.412 286.357C517.676 287.217 515.605 287.014 513.734 286.519C510.244 285.595 507.346 283.903 504.278 282.049C502.565 283.649 500.705 285.088 498.668 286.24C495.584 287.984 492.295 289.061 488.906 289.768C493.026 289.975 497.085 291.361 500.461 293.742C501.816 294.698 503.17 296.033 503.15 297.695C503.127 299.637 501.082 301.089 499.147 301.06C497.212 301.03 495.462 299.901 494.022 298.604C491.264 296.116 489.43 293.194 487.486 290.044C481.864 291.047 476.008 291.153 470.382 291.672C468.611 291.836 466.858 292.048 465.125 292.354C469.605 292.352 474.076 293.757 477.745 296.338C479.102 297.291 480.458 298.625 480.44 300.287C480.419 302.229 478.376 303.684 476.441 303.656C474.506 303.629 472.754 302.502 471.313 301.206C468.488 298.666 466.631 295.67 464.633 292.44C462.789 292.787 460.97 293.25 459.181 293.897C455.908 295.079 452.773 296.634 449.758 298.369C448.957 298.83 448.163 299.307 447.376 299.794C451.42 299.404 455.571 300.153 459.216 301.955C460.702 302.69 462.245 303.8 462.48 305.445C462.755 307.368 460.957 309.119 459.041 309.389C457.124 309.659 455.222 308.813 453.6 307.753C450.604 305.795 448.395 303.304 446.086 300.607C441.2 303.744 436.6 307.35 432.27 311.223C436.261 309.789 440.669 309.532 444.794 310.52C446.405 310.906 448.155 311.645 448.748 313.197C449.44 315.01 448.074 317.118 446.265 317.807C444.456 318.497 442.414 318.096 440.599 317.423C437.154 316.147 434.394 314.137 431.461 311.955C430.891 312.473 430.324 312.994 429.764 313.52C426.688 316.41 423.731 319.452 420.953 322.647C424.861 321.31 429.148 321.092 433.165 322.055C434.777 322.441 436.526 323.18 437.12 324.732C437.812 326.545 436.446 328.653 434.637 329.342C432.828 330.031 430.786 329.631 428.971 328.958C425.62 327.717 422.919 325.782 420.074 323.67C416.95 327.351 414.066 331.234 411.517 335.33C410.986 336.182 409.704 335.297 410.234 334.446C412.809 330.311 415.729 326.395 418.886 322.681C416.079 319.294 414.306 315.043 413.881 310.643C413.719 308.981 413.846 307.07 415.117 305.993Z" fill="#DED9FF" fill-opacity="0.36"/>
<path d="M289.162 296.333C290.392 289.87 290.299 283.171 288.835 276.754C288.148 273.745 287.239 270.668 285.755 267.936L285.719 268.223C285.328 268.947 282.569 273.885 278.026 274.247C274.332 274.541 271.004 271.688 268.343 269.407C267.406 268.603 266.681 267.862 266.182 267.319C267.745 267.414 270.033 267.373 272.618 266.6C274.665 265.987 275.387 265.368 276.746 264.988C278.502 264.496 281.112 264.462 284.87 266.465C283.143 263.882 280.72 261.96 278.194 260.194C275.686 258.441 273.041 256.812 270.866 254.632C269.205 252.967 268.006 251.037 267.344 248.837C266.592 250.138 263.94 254.226 259.822 254.554C256.128 254.848 252.8 251.995 250.14 249.714C249.202 248.91 248.478 248.169 247.978 247.626C249.541 247.721 251.829 247.68 254.415 246.907C256.461 246.295 257.183 245.676 258.543 245.295C260.337 244.793 263.022 244.767 266.913 246.905C266.387 243.586 266.525 240.086 266.746 236.751C266.854 235.108 267.061 233.479 267.276 231.852C266.262 233.465 263.743 236.806 260.036 237.101C256.343 237.396 253.015 234.542 250.354 232.262C249.416 231.458 248.692 230.716 248.193 230.174C249.756 230.269 252.044 230.228 254.629 229.454C256.675 228.842 257.398 228.223 258.757 227.842C260.617 227.321 263.433 227.313 267.558 229.696C267.664 228.857 267.762 228.016 267.839 227.173C268.174 223.503 267.794 219.832 265.424 216.883L265.351 217.48C264.96 218.204 262.201 223.142 257.657 223.504C253.964 223.798 250.636 220.945 247.975 218.664C247.037 217.86 246.313 217.119 245.814 216.576C247.377 216.671 249.665 216.63 252.25 215.857C254.296 215.245 255.019 214.626 256.378 214.245C258.09 213.765 260.612 213.721 264.218 215.574C262.296 213.746 259.9 212.454 257.476 211.338L256.656 211.859C255.818 212.02 250.043 213.05 246.757 209.623C244.087 206.837 244.179 202.27 244.252 198.62C244.278 197.333 244.394 196.261 244.5 195.5C245.455 196.824 246.996 198.643 249.319 200.219C251.158 201.466 252.131 201.641 253.332 202.487C254.98 203.646 256.847 205.921 257.655 210.843C260.039 211.942 262.372 213.201 264.323 214.962C266.313 216.757 267.637 219.013 268.182 221.583C268.386 219.68 269.121 216.307 271.789 214.6C274.683 212.749 278.64 213.632 281.804 214.338C282.919 214.587 283.832 214.877 284.476 215.104C283.156 215.707 281.302 216.738 279.522 218.498C278.113 219.89 277.79 220.712 276.843 221.616C275.514 222.884 273.13 224.151 268.5 223.922L268.46 223.816C268.6 226.61 268.097 229.406 267.729 232.166C267.455 234.225 267.275 236.295 267.185 238.369L267.22 238.214C267.647 237.584 270.639 233.285 274.86 233.368C278.291 233.436 281.098 236.371 283.342 238.717C284.133 239.544 284.734 240.293 285.144 240.84C283.712 240.609 281.6 240.437 279.147 240.912C277.206 241.289 276.483 241.793 275.195 242.019C273.417 242.332 270.786 242.072 267.147 239.427C267.112 240.732 267.111 242.038 267.152 243.344C267.193 244.683 267.304 245.998 267.548 247.268C267.586 247.291 267.624 247.312 267.662 247.335L267.625 247.638C268.039 249.565 268.784 251.383 270.105 253.011C271.422 254.635 273.05 255.954 274.748 257.173L274.873 256.307C275.249 255.645 277.9 251.126 282.114 250.88C285.539 250.68 288.565 253.387 290.985 255.551C291.837 256.314 292.494 257.014 292.945 257.527C291.5 257.408 289.38 257.401 286.972 258.067C285.065 258.593 284.384 259.152 283.118 259.478C281.64 259.859 279.523 259.879 276.591 258.456C276.856 258.637 277.12 258.818 277.384 258.999C279.903 260.726 282.461 262.508 284.393 264.913C284.926 265.576 285.402 266.279 285.833 267.009C285.844 267.015 285.854 267.021 285.865 267.028L285.862 267.057C287.23 269.39 288.126 272.012 288.836 274.604C290.778 281.701 291.052 289.208 289.677 296.435C289.615 296.769 289.099 296.667 289.162 296.333Z" fill="#DED9FF" fill-opacity="0.36"/>
<path d="M315.595 305.993C314.111 304.734 311.68 305.341 310.441 306.838C309.202 308.335 308.916 310.413 308.959 312.365C309.029 315.522 309.763 318.38 310.661 321.331C308.733 319.132 306.726 317.004 304.66 314.946C303.293 313.584 301.895 312.253 300.468 310.951C303.266 307.583 305.036 303.362 305.466 298.997C305.628 297.343 305.504 295.443 304.236 294.373C302.755 293.123 300.323 293.731 299.083 295.221C297.842 296.712 297.553 298.78 297.594 300.721C297.661 303.981 298.446 306.919 299.385 309.974C294.944 306.013 290.223 302.364 285.221 299.154C287.385 295.418 288.433 291.037 288.171 286.723C288.07 285.064 287.648 283.207 286.227 282.353C284.566 281.355 282.262 282.342 281.273 284.011C280.284 285.68 280.324 287.767 280.671 289.678C281.233 292.774 282.406 295.468 283.755 298.229C278.43 294.928 272.605 291.993 266.425 290.884C266.297 290.861 266.167 290.844 266.038 290.822C267.693 286.781 268.124 282.241 267.242 277.961C266.906 276.333 266.224 274.556 264.696 273.914C262.911 273.164 260.77 274.471 260.029 276.265C259.287 278.059 259.625 280.119 260.24 281.96C261.323 285.205 263.054 287.875 264.965 290.649C257.792 289.563 250.388 289.799 243.264 288.468C244.991 284.376 245.454 279.754 244.557 275.401C244.221 273.773 243.539 271.995 242.01 271.354C240.225 270.604 238.085 271.911 237.343 273.704C236.601 275.497 236.939 277.558 237.554 279.399C238.666 282.731 240.462 285.457 242.434 288.311C240.659 287.947 238.904 287.478 237.175 286.857C233.674 285.598 230.476 283.599 227.666 281.109C230.498 277.56 232.203 273.116 232.459 268.576C232.552 266.917 232.349 265.023 231.037 264.007C229.505 262.822 227.101 263.531 225.924 265.072C224.747 266.614 224.545 268.692 224.666 270.63C224.889 274.185 225.949 277.318 227.142 280.635C222.69 276.522 219.266 271.168 217.246 265.591C219.406 262.081 220.571 257.956 220.542 253.829C220.529 252.167 220.206 250.29 218.833 249.361C217.228 248.275 214.874 249.136 213.797 250.75C212.721 252.363 212.65 254.45 212.895 256.377C213.284 259.45 214.286 262.165 215.462 264.949C215.446 265.06 215.454 265.181 215.498 265.311C217.111 270.097 219.7 274.528 222.953 278.376C223.67 279.225 224.422 280.051 225.203 280.849C221.53 279.262 217.422 278.691 213.46 279.245C211.819 279.474 210.008 280.042 209.269 281.53C208.407 283.269 209.566 285.497 211.301 286.357C213.036 287.217 215.107 287.014 216.978 286.519C220.468 285.595 223.366 283.903 226.434 282.049C228.148 283.649 230.008 285.088 232.045 286.24C235.129 287.984 238.418 289.061 241.807 289.768C237.687 289.975 233.628 291.361 230.252 293.742C228.897 294.698 227.543 296.033 227.563 297.695C227.586 299.637 229.631 301.089 231.566 301.06C233.501 301.03 235.251 299.901 236.691 298.604C239.449 296.116 241.283 293.194 243.227 290.044C248.849 291.047 254.705 291.153 260.331 291.672C262.102 291.836 263.855 292.048 265.588 292.354C261.108 292.352 256.637 293.757 252.968 296.338C251.611 297.291 250.255 298.625 250.273 300.287C250.294 302.229 252.337 303.684 254.272 303.656C256.207 303.629 257.959 302.502 259.4 301.206C262.225 298.666 264.082 295.67 266.081 292.44C267.924 292.787 269.743 293.25 271.532 293.897C274.805 295.079 277.94 296.634 280.955 298.369C281.756 298.83 282.55 299.307 283.337 299.794C279.293 299.404 275.142 300.153 271.497 301.955C270.011 302.69 268.468 303.8 268.233 305.445C267.958 307.368 269.756 309.119 271.673 309.389C273.589 309.659 275.491 308.813 277.113 307.753C280.109 305.795 282.318 303.304 284.627 300.607C289.513 303.744 294.113 307.35 298.443 311.223C294.452 309.789 290.044 309.532 285.919 310.52C284.308 310.906 282.558 311.645 281.965 313.197C281.273 315.01 282.639 317.118 284.448 317.807C286.257 318.497 288.299 318.096 290.114 317.423C293.559 316.147 296.319 314.137 299.252 311.955C299.822 312.473 300.389 312.994 300.949 313.52C304.025 316.41 306.982 319.452 309.76 322.647C305.852 321.31 301.566 321.092 297.548 322.055C295.936 322.441 294.187 323.18 293.594 324.732C292.901 326.545 294.267 328.653 296.076 329.342C297.885 330.031 299.927 329.631 301.742 328.958C305.093 327.717 307.794 325.782 310.639 323.67C313.763 327.351 316.647 331.234 319.196 335.33C319.727 336.182 321.009 335.297 320.479 334.446C317.904 330.311 314.984 326.395 311.827 322.681C314.634 319.294 316.408 315.043 316.832 310.643C316.992 308.981 316.865 307.07 315.595 305.993Z" fill="#DED9FF" fill-opacity="0.36"/>
<path d="M187.238 266.512C186.227 266.512 185.407 267.335 185.407 268.349V327.859V333.949V338.201C185.407 339.216 186.227 340.038 187.238 340.038H191.62C192.631 340.038 193.451 339.216 193.451 338.201V335.786C193.451 334.771 194.271 333.949 195.281 333.949H250.729C251.74 333.949 252.559 334.772 252.559 335.786V338.201C252.559 339.216 253.379 340.038 254.39 340.038H258.772C259.784 340.038 260.603 339.216 260.603 338.201V333.949V327.859V268.35C260.603 267.335 259.784 266.513 258.772 266.513L187.238 266.512Z" fill="url(#paint1_linear_21_1038)"/>
<path d="M254.185 282.34H191.841C191.358 282.34 190.966 281.947 190.966 281.462V271.125C190.966 270.64 191.358 270.247 191.841 270.247H254.186C254.669 270.247 255.061 270.64 255.061 271.125V281.462C255.06 281.947 254.669 282.34 254.185 282.34Z" fill="white"/>
<path d="M253.148 270.247H253.11C253.138 270.379 253.155 270.515 253.155 270.655V274.74C253.155 278.103 250.439 280.828 247.088 280.828H191.011C191.198 281.692 191.962 282.34 192.879 282.34H253.148C254.205 282.34 255.061 281.481 255.061 280.421V272.167C255.06 271.106 254.204 270.247 253.148 270.247Z" fill="#E0E3FF"/>
<path d="M254.185 300.306H191.841C191.358 300.306 190.966 299.913 190.966 299.428V289.091C190.966 288.606 191.358 288.213 191.841 288.213H254.186C254.669 288.213 255.061 288.606 255.061 289.091V299.428C255.06 299.913 254.669 300.306 254.185 300.306Z" fill="white"/>
<path d="M253.147 288.213H253.035C253.108 288.416 253.155 288.633 253.155 288.863V294.94C253.155 297.202 251.327 299.036 249.073 299.036H191.086C191.352 299.775 192.051 300.306 192.879 300.306H253.147C254.204 300.306 255.06 299.446 255.06 298.386V290.133C255.06 289.072 254.204 288.213 253.147 288.213Z" fill="#E0E3FF"/>
<path d="M218.515 328.762H192.474C191.641 328.762 190.966 328.085 190.966 327.249V306.603C190.966 305.767 191.641 305.09 192.474 305.09H218.515C219.348 305.09 220.023 305.767 220.023 306.603V327.249C220.023 328.084 219.348 328.762 218.515 328.762Z" fill="white"/>
<path d="M217.799 305.123C217.821 305.26 217.835 305.4 217.835 305.543V321.388C217.835 324.258 215.516 326.585 212.656 326.585H191.399C191.264 326.585 191.132 326.572 191.002 326.552C191.203 327.804 192.282 328.762 193.587 328.762H217.402C218.85 328.762 220.023 327.584 220.023 326.132V307.72C220.023 306.403 219.057 305.315 217.799 305.123Z" fill="#E0E3FF"/>
<path d="M253.552 328.762H227.391C226.558 328.762 225.883 328.085 225.883 327.249V306.603C225.883 305.767 226.558 305.09 227.391 305.09H253.552C254.385 305.09 255.06 305.767 255.06 306.603V327.249C255.06 328.084 254.385 328.762 253.552 328.762Z" fill="white"/>
<path d="M253.15 305.19C253.315 305.535 253.411 305.92 253.411 306.329V321.979C253.411 324.957 251.005 327.371 248.038 327.371H226.854C226.608 327.371 226.37 327.335 226.144 327.271C226.567 328.152 227.463 328.762 228.503 328.762H252.439C253.887 328.762 255.06 327.585 255.06 326.132V307.72C255.06 306.514 254.252 305.501 253.15 305.19Z" fill="#E0E3FF"/>
<path d="M221.107 276.717C221.107 275.239 222.301 274.042 223.773 274.042C225.246 274.042 226.44 275.24 226.44 276.717C226.44 278.195 225.246 279.393 223.773 279.393C222.301 279.393 221.107 278.195 221.107 276.717Z" fill="#757FFF"/>
<path d="M224.655 274.194C225.273 274.684 225.672 275.442 225.672 276.294C225.672 277.772 224.478 278.97 223.006 278.97C222.697 278.97 222.401 278.914 222.125 278.817C222.579 279.176 223.151 279.393 223.774 279.393C225.246 279.393 226.44 278.195 226.44 276.717C226.44 275.55 225.694 274.56 224.655 274.194Z" fill="#6D59F0"/>
<path d="M221.107 293.715C221.107 292.238 222.301 291.04 223.773 291.04C225.246 291.04 226.44 292.238 226.44 293.715C226.44 295.193 225.246 296.391 223.773 296.391C222.301 296.391 221.107 295.193 221.107 293.715Z" fill="#757FFF"/>
<path d="M224.655 291.192C225.273 291.682 225.672 292.44 225.672 293.292C225.672 294.77 224.478 295.968 223.006 295.968C222.697 295.968 222.401 295.912 222.125 295.815C222.579 296.175 223.151 296.391 223.774 296.391C225.246 296.391 226.44 295.193 226.44 293.715C226.44 292.547 225.694 291.557 224.655 291.192Z" fill="#6D59F0"/>
<path d="M204.956 319.601C206.428 319.601 207.622 318.404 207.622 316.926C207.622 315.448 206.428 314.25 204.956 314.25C203.483 314.25 202.29 315.448 202.29 316.926C202.29 318.404 203.483 319.601 204.956 319.601Z" fill="#757FFF"/>
<path d="M205.837 314.403C206.456 314.893 206.854 315.65 206.854 316.503C206.854 317.981 205.66 319.178 204.188 319.178C203.878 319.178 203.583 319.123 203.307 319.025C203.761 319.385 204.333 319.601 204.956 319.601C206.428 319.601 207.622 318.403 207.622 316.926C207.622 315.758 206.876 314.768 205.837 314.403Z" fill="#6D59F0"/>
<path d="M240.471 319.601C241.944 319.601 243.138 318.404 243.138 316.926C243.138 315.448 241.944 314.25 240.471 314.25C238.999 314.25 237.805 315.448 237.805 316.926C237.805 318.404 238.999 319.601 240.471 319.601Z" fill="#757FFF"/>
<path d="M241.352 314.403C241.971 314.893 242.37 315.65 242.37 316.503C242.37 317.981 241.176 319.178 239.703 319.178C239.394 319.178 239.098 319.123 238.822 319.025C239.276 319.385 239.848 319.601 240.471 319.601C241.944 319.601 243.138 318.403 243.138 316.926C243.138 315.758 242.392 314.768 241.352 314.403Z" fill="#6D59F0"/>
<path d="M461.099 230.019C456.824 198.384 416.45 190.702 404.202 164.532C403.009 159.451 404.247 153.311 404.904 146.138C407.926 113.005 388.389 107.036 375.85 109.152C363.497 104.283 344.605 107.481 336.327 122.246C326.663 139.484 340.469 165.697 323.968 179.373C306.781 193.617 269.523 238.348 296.589 258.638C297.177 259.082 297.794 259.508 298.444 259.923H298.447C303.219 262.582 308.239 264.642 313.421 266.238C313.425 266.241 313.432 266.241 313.443 266.245C317.178 267.398 320.995 268.308 324.866 269.034C325.862 269.223 326.862 269.397 327.865 269.56C329.287 269.794 330.711 270.002 332.142 270.188C335.313 270.61 338.505 270.929 341.7 271.182H341.719C348.581 271.718 355.456 271.935 362.17 272.108H362.181C363.934 272.12 365.686 272.117 367.438 272.092C368.024 272.089 368.609 272.078 369.191 272.067C370.05 272.051 370.91 272.031 371.773 272.004C372.267 271.994 372.761 271.98 373.254 271.962C373.393 271.958 373.532 271.953 373.671 271.949C374.245 271.927 374.82 271.905 375.394 271.88C376.206 271.849 377.018 271.811 377.83 271.774C378.115 271.761 378.397 271.745 378.679 271.732C378.858 271.724 379.033 271.711 379.209 271.703C379.593 271.682 379.981 271.662 380.368 271.638C380.771 271.617 381.173 271.592 381.575 271.565C382.383 271.516 383.195 271.463 384.003 271.403C384.859 271.343 385.722 271.279 386.577 271.212C386.767 271.196 386.957 271.181 387.148 271.165C389.408 270.979 391.667 270.771 393.919 270.53C395.454 270.271 397.07 270.023 398.759 269.778H398.762C400.663 269.503 402.651 269.231 404.698 268.95C407.126 268.617 409.637 268.268 412.192 267.886H412.195C412.235 267.882 412.276 267.874 412.316 267.867C415.609 267.37 418.972 266.814 422.319 266.148C423.769 265.857 425.216 265.548 426.655 265.212H426.659C433.619 263.593 440.326 261.395 445.949 258.175C455.658 252.614 462.135 243.997 461.099 230.019ZM317.042 187.178C338.174 172.619 333.271 159.578 337.448 133.171C336.702 138.128 336.712 143.719 337.689 149.925C341.788 175.945 319.041 186.769 302.867 204.138C306.623 197.746 311.514 192.086 317.042 187.178ZM445.542 256.852C445.542 256.855 445.539 256.855 445.539 256.855C440.382 260.245 434.316 262.667 428.241 264.042C430.11 263.455 431.987 262.838 433.827 262.152C434.071 262.059 434.316 261.966 434.557 261.873C434.736 261.805 434.915 261.735 435.093 261.664C436.565 261.09 438.01 260.454 439.414 259.748C439.907 259.507 440.384 259.258 440.843 259.009C442.397 258.155 443.891 257.196 445.304 256.101C445.304 256.101 445.304 256.101 445.304 256.097L445.308 256.094C446.66 254.613 447.848 253.131 448.871 251.649C448.871 251.649 448.874 251.649 448.871 251.645C467.101 225.414 436.5 199.3 415.9 184.277C412.264 181.24 408.242 176.477 405.647 169.359C419.148 191.608 450.034 198.923 458.212 225C462.819 239.073 456.067 249.954 445.542 256.852Z" fill="#1F1C80"/>
<path d="M411.165 215.365C414.889 216.486 451.08 265.139 445.368 281.841C440.688 295.527 408.669 331.659 408.669 331.659L393.59 322.441L418.039 282.713L387.045 239.244L411.165 215.365Z" fill="#FF8FCF"/>
<path d="M368.864 181.486C388.768 181.486 404.904 165.294 404.904 145.319C404.904 125.345 388.768 109.152 368.864 109.152C348.959 109.152 332.824 125.345 332.824 145.319C332.824 165.294 348.959 181.486 368.864 181.486Z" fill="#1F1C80"/>
<path d="M410.984 331.893L325.364 330.728C340.626 319.038 320.05 250.152 320.23 222.975C320.32 209.399 354.022 201.251 357.543 200.35C363.065 200.325 371.86 200.563 379.306 200.841C395.306 201.438 420.8 216.787 417.698 230.853C410.193 264.886 396.193 327.073 410.984 331.893Z" fill="#FF8FCF"/>
<path d="M379.843 201.147C379.752 202.865 368.473 218.795 368.473 218.795L356.102 200.342C357 195.659 359.873 180.685 360.719 176.26L376.687 176.587L376.787 177.357L379.843 201.147Z" fill="url(#paint2_linear_21_1038)"/>
<path d="M379.843 201.147C375.682 196.203 374.123 181.28 359.458 183.013L360.715 176.443L376.682 176.769L376.786 177.357L379.843 201.147Z" fill="#FFE1E1"/>
<path d="M342.629 150.637L344.569 163.459C344.399 163.416 344.307 163.359 344.149 163.387C344.149 163.387 344.149 163.387 344.137 163.316C322.937 160.134 325.04 139.745 339.212 143.784C339.327 146.196 341.214 148.454 342.629 150.637ZM392.193 167.073C391.734 167.19 391.29 167.238 390.761 167.34C390.833 167.147 392.929 156.388 393.036 155.864C394.347 153.809 395.452 151.553 396.38 149.122C407.696 145.543 410.503 162.719 392.193 167.073Z" fill="url(#paint3_linear_21_1038)"/>
<path d="M399.159 147.232C398.258 189.603 341.635 196.688 337.218 145.554C340.053 96.8177 402.061 106.217 399.159 147.232Z" fill="url(#paint4_linear_21_1038)"/>
<path d="M399.653 132.756C398.036 125.924 392.282 111.534 374.054 110.225C370.11 109.945 346.948 106.558 338.009 128.653C336.308 132.846 333.239 152.573 344.804 167.223C335.837 137.413 350.836 136.913 351.277 123.569C354.2 122.961 357.019 122.757 359.731 122.883C361.715 123.189 363.653 123.675 365.482 124.394C370.74 126.434 374.833 130.367 377.855 134.856C380.948 139.345 383.17 144.354 385.484 149.336C386.634 151.833 387.809 154.339 389.172 156.77C390.568 159.165 392.131 161.589 394.395 163.357C392.454 161.305 391.129 158.89 390.032 156.392C388.894 153.911 387.92 151.359 386.891 148.815C384.86 143.727 382.687 138.594 379.492 133.891C377.873 131.564 376.002 129.344 373.752 127.46C373.06 126.886 372.324 126.356 371.569 125.851C385.638 132.536 394.744 149.454 395.651 167.223C397.546 165.322 399.914 152.039 400.252 146.829C400.541 142.2 400.401 135.91 399.653 132.756Z" fill="#1F1C80"/>
<path d="M365.356 257.185C365.29 252.618 372.438 252.618 372.371 257.185C372.437 261.752 365.289 261.752 365.356 257.185ZM365.356 268.976C365.29 264.41 372.438 264.409 372.371 268.976C372.437 273.543 365.289 273.543 365.356 268.976ZM365.356 230.853C365.29 226.287 372.438 226.286 372.371 230.854C372.437 235.42 365.289 235.42 365.356 230.853ZM365.356 242.645C365.29 238.078 372.438 238.078 372.371 242.645C372.437 247.211 365.289 247.211 365.356 242.645ZM405.754 239.244H385.577C383.744 239.272 383.736 236.232 385.577 236.26H405.754C407.587 236.232 407.595 239.272 405.754 239.244ZM356.102 200.342C351.865 200.94 341.932 202.815 339.449 206.133C348.482 208.418 361.946 212.104 368.473 218.794L356.102 200.342Z" fill="white"/>
<path d="M379.806 200.856C384.23 200.856 393.299 202.478 397.618 206.032C388.585 208.317 374.999 212.104 368.473 218.795L379.806 200.856Z" fill="white"/>
<path d="M332.089 209.568C316.98 215.426 282.559 266.538 291.394 284.642C297.735 297.637 325.031 331.659 325.031 331.659L340.11 322.441L315.661 282.713L346.655 239.244L332.089 209.568Z" fill="#FF8FCF"/>
<path d="M420.001 254.337H310.71C304.89 254.337 300.355 259.403 300.977 265.211L308.063 331.417C308.597 336.408 312.795 340.192 317.797 340.192H412.914C417.916 340.192 422.114 336.408 422.648 331.417L429.735 265.211C430.356 259.403 425.821 254.337 420.001 254.337Z" fill="url(#paint5_linear_21_1038)"/>
<path d="M420.001 254.337H418.552C418.543 254.465 418.535 254.592 418.521 254.721L413.396 302.605C411.746 318.017 398.784 329.703 383.338 329.703H307.88L308.063 331.417C308.597 336.408 312.795 340.192 317.797 340.192H412.914C417.916 340.192 422.113 336.408 422.648 331.417L429.734 265.211C430.356 259.403 425.821 254.337 420.001 254.337Z" fill="#7525E9" fill-opacity="0.12"/>
<path d="M369.701 287.249H359.705C357.927 287.249 356.485 288.696 356.485 290.481V300.512C356.485 302.296 357.927 303.743 359.705 303.743H369.701C371.479 303.743 372.921 302.296 372.921 300.512V290.481C372.921 288.696 371.48 287.249 369.701 287.249Z" fill="#7525E9" fill-opacity="0.12"/>
<path d="M559.023 341.494C559.023 341.941 558.819 342.343 558.493 342.635C558.167 342.928 557.714 343.111 557.221 343.111H165.292C164.3 343.111 163.494 342.388 163.494 341.494C163.494 341.051 163.693 340.645 164.019 340.353C164.345 340.06 164.798 339.877 165.292 339.877H557.221C558.212 339.877 559.023 340.605 559.023 341.494ZM154.571 343.113H124.538C123.754 343.113 123.119 342.475 123.119 341.689V341.303C123.119 340.517 123.754 339.88 124.538 339.88H154.571C155.355 339.88 155.99 340.517 155.99 341.303V341.689C155.99 342.475 155.355 343.113 154.571 343.113ZM593.512 343.113H563.478C562.695 343.113 562.06 342.475 562.06 341.689V341.303C562.06 340.517 562.695 339.88 563.478 339.88H593.512C594.295 339.88 594.93 340.517 594.93 341.303V341.689C594.93 342.475 594.295 343.113 593.512 343.113Z" fill="#DED9FF"/>
<path d="M223.358 242.938C222.597 241.705 222.137 240.307 221.895 238.865L221.997 239.007C223.014 239.591 224.397 239.221 225.193 238.398C225.99 237.575 226.299 236.413 226.39 235.286C225.608 235.889 224.585 236.101 223.645 236.441C222.908 236.708 222.162 237.124 221.747 237.74C221.631 236.468 221.666 235.185 221.805 233.967C221.85 233.577 221.917 233.19 221.977 232.802C223.062 233.364 224.461 232.971 225.358 232.176C226.262 231.375 226.771 230.253 227.254 229.164C226.767 229.668 226.04 229.888 225.332 230.015C224.625 230.142 223.894 230.199 223.232 230.464C222.86 230.613 222.51 230.849 222.257 231.147C222.587 229.423 222.982 227.709 223.277 225.979C223.337 225.627 223.382 225.274 223.43 224.921L223.467 225.088C224.244 225.666 225.383 225.645 226.23 225.188C227.076 224.731 227.652 223.908 227.983 223.029C228.313 222.15 228.423 221.209 228.531 220.277C227.665 221.11 226.172 220.855 225.093 221.413C224.427 221.758 223.998 222.367 223.664 223.035C223.683 222.861 223.704 222.687 223.723 222.513C223.809 221.694 223.884 220.868 223.85 220.042C223.81 219.063 223.541 218.182 223.107 217.372C223.495 216.511 223.412 215.462 222.972 214.602C222.458 213.597 221.524 212.833 220.495 212.307C219.466 211.781 218.338 211.471 217.219 211.17C216.936 212.277 216.831 213.445 217.08 214.566C217.328 215.688 217.956 216.76 218.927 217.432C219.898 218.104 221.227 218.326 222.312 217.87L222.589 217.83C222.925 218.515 223.133 219.253 223.171 220.067C223.21 220.905 223.119 221.743 223.03 222.574C222.99 222.941 222.946 223.307 222.903 223.674C222.255 223.019 221.54 222.42 220.716 221.991C219.74 221.483 218.601 221.219 217.518 221.407C216.279 221.622 215.091 222.41 213.863 222.114C214.877 223.495 216.169 224.762 217.806 225.366C219.444 225.969 221.473 225.775 222.666 224.565L222.813 224.434C222.74 224.994 222.66 225.554 222.562 226.111C222.219 228.054 221.758 230.005 221.427 231.965L221.461 231.542C221.44 230.898 220.967 230.325 220.391 229.988C219.816 229.65 219.146 229.505 218.489 229.366C217.684 229.196 216.878 229.025 216.073 228.854C215.971 228.833 215.861 228.812 215.769 228.856C215.627 228.925 215.602 229.108 215.604 229.263C215.628 230.55 216.377 231.813 217.521 232.497C218.647 233.169 220.118 233.254 221.306 232.726C221.075 234.271 220.948 235.822 221.043 237.376C220.8 236.776 220.209 236.334 219.57 236.119C218.876 235.887 218.129 235.876 217.398 235.868C216.561 235.859 215.724 235.849 214.887 235.84C214.793 235.839 214.688 235.842 214.621 235.905C214.535 235.986 214.553 236.121 214.582 236.234C214.91 237.504 215.866 238.619 217.103 239.172C218.34 239.726 219.832 239.707 221.037 239.122L221.086 237.91C221.162 238.701 221.294 239.493 221.51 240.286C221.745 241.153 222.081 241.995 222.512 242.785C221.783 242.209 220.695 242.251 219.774 242.481C218.805 242.723 217.837 243.122 216.839 243.001C217.299 244.199 218.445 245.138 219.747 245.384C221.049 245.63 222.46 245.175 223.33 244.228L222.995 243.581C223.555 244.42 224.239 245.181 225.067 245.813C225.414 246.078 225.842 245.572 225.495 245.307C225.116 245.018 224.776 244.701 224.462 244.369C224.871 244.416 225.324 244.272 225.639 244.004C226.133 243.584 226.367 242.957 226.584 242.356C226.785 241.801 226.986 241.245 227.187 240.689C225.756 241.189 224.239 241.771 223.358 242.938ZM241.923 225.123C241.272 225.321 240.588 225.381 239.921 225.518C239.255 225.656 238.581 225.887 238.09 226.359C237.636 226.795 237.383 227.478 237.558 228.074C236.53 228.649 235.598 229.384 234.763 230.223C235.193 229.424 235.152 228.401 234.788 227.557C234.38 226.61 233.629 225.855 232.833 225.204C232.44 226.23 232.101 227.328 232.273 228.414C232.444 229.499 233.272 230.552 234.363 230.631C233.855 231.183 233.387 231.773 232.963 232.393C232.573 232.965 232.232 233.562 231.917 234.171C231.916 233.728 231.744 233.277 231.477 232.915C231.095 232.397 230.552 232.025 230.02 231.664C229.902 231.584 229.756 231.501 229.626 231.56C229.533 231.603 229.485 231.706 229.45 231.803C229.203 232.493 229.273 233.29 229.636 233.926C230 234.563 230.65 235.026 231.369 235.161L231.498 235.038C231.011 236.116 230.619 237.236 230.307 238.382C230.104 237.985 229.773 237.644 229.397 237.398C228.827 237.024 228.162 236.829 227.508 236.639C228.008 237.115 227.732 237.98 228.016 238.61C228.179 238.971 228.522 239.228 228.894 239.359C229.255 239.486 229.645 239.505 230.028 239.494C229.857 240.237 229.712 240.986 229.593 241.736C229.556 241.973 229.527 242.211 229.493 242.448C229.103 241.803 228.375 241.365 227.62 241.361C227.738 241.87 227.867 242.402 228.215 242.79C228.507 243.115 229.004 243.287 229.396 243.143C229.25 244.288 229.139 245.438 229.042 246.589C228.629 246.113 228.02 245.806 227.39 245.803C227.507 246.311 227.637 246.844 227.985 247.232C228.226 247.501 228.609 247.664 228.956 247.631C228.946 247.762 228.935 247.893 228.924 248.023C228.897 248.361 229.417 248.472 229.445 248.13C229.454 248.012 229.464 247.892 229.474 247.773C230.061 247.946 230.704 247.928 231.276 247.708C232.021 247.421 232.631 246.798 232.904 246.045C232.592 246.288 232.164 246.314 231.771 246.272C231.379 246.23 230.988 246.13 230.594 246.159C230.2 246.189 229.784 246.386 229.643 246.756L229.548 246.867C229.62 246.022 229.7 245.168 229.797 244.312C230.529 244.886 231.616 244.991 232.419 244.512C233.212 244.038 233.638 243.143 234.019 242.3C233.615 242.618 233.06 242.657 232.548 242.611C232.037 242.565 231.525 242.447 231.015 242.505C230.599 242.552 230.173 242.753 229.947 243.092C230.108 241.888 230.311 240.688 230.583 239.511L230.578 239.844C231.061 240.477 231.975 240.674 232.737 240.449C233.499 240.223 234.116 239.643 234.555 238.979C233.95 238.94 233.344 238.901 232.738 238.863C231.998 238.815 231.158 238.81 230.631 239.321C230.919 238.109 231.285 236.926 231.751 235.791C232.063 236.298 232.607 236.643 233.191 236.764C233.814 236.892 234.466 236.792 235.063 236.575C235.707 236.341 236.301 235.97 236.795 235.495C236.253 235.678 235.655 235.547 235.123 235.338C234.591 235.128 234.087 234.841 233.534 234.698C233.096 234.586 232.61 234.585 232.206 234.767C232.797 233.545 233.531 232.398 234.436 231.349C234.416 231.731 234.571 232.135 234.842 232.415C235.252 232.839 235.852 233.023 236.438 233.088C237.513 233.207 238.678 232.941 239.433 232.163C238.405 231.724 237.378 231.284 236.35 230.844C235.955 230.675 235.491 230.517 235.1 230.629C235.304 230.424 235.505 230.216 235.725 230.02C236.333 229.477 236.996 229.002 237.7 228.601L237.758 228.829C238.291 229.404 239.22 229.489 239.929 229.156C240.638 228.825 241.141 228.148 241.431 227.419C241.721 226.69 241.823 225.902 241.923 225.123Z" fill="url(#paint6_linear_21_1038)"/>
<path d="M218.127 245.448C217.528 245.223 216.99 244.906 216.5 244.528C216.857 244.394 217.16 244.099 217.32 243.747C217.543 243.26 217.528 242.691 217.388 242.174C217.248 241.657 216.991 241.181 216.736 240.711C216.706 241.359 216.296 241.916 215.992 242.488C215.785 242.878 215.633 243.344 215.671 243.77C214.944 243.01 214.348 242.11 213.867 241.168C214.25 241.254 214.691 241.085 214.94 240.766C215.25 240.368 215.297 239.813 215.183 239.321C215.068 238.829 214.812 238.384 214.559 237.948C213.978 238.433 213.53 239.067 213.238 239.766C212.761 238.589 212.369 237.378 211.939 236.183C212.712 236.118 213.438 235.559 213.758 234.83C214.143 233.952 214.019 232.913 213.629 232.037C212.482 232.592 211.667 233.762 211.5 235.024C211.209 234.301 210.889 233.59 210.501 232.908C210.335 232.617 210.159 232.334 209.97 232.061C210.055 232.013 210.255 231.257 210.159 230.899C210.039 230.455 209.751 230.074 209.429 229.746C208.207 228.505 206.375 227.899 204.656 228.169C205.619 229.245 205.424 231.072 206.496 232.038C206.993 232.486 207.696 232.66 208.361 232.602C208.713 232.571 209.054 232.477 209.382 232.346C209.945 233.154 210.389 234.048 210.778 234.964C210.207 234.819 209.536 234.917 208.965 235.123C208.078 235.443 207.221 235.96 206.278 235.947C206.754 236.937 207.803 237.622 208.897 237.658C209.844 237.689 210.786 237.232 211.373 236.49C211.428 236.641 211.487 236.794 211.539 236.945C211.934 238.073 212.319 239.22 212.785 240.326C212.29 239.965 211.661 239.799 211.043 239.798C210.313 239.796 209.597 239.985 208.891 240.172C209.189 241.056 209.979 241.754 210.89 241.94C211.711 242.107 212.6 241.848 213.22 241.285C213.669 242.203 214.199 243.077 214.877 243.864C215.05 244.065 215.237 244.252 215.426 244.435C214.609 244.087 213.639 244.1 212.845 244.505C212.275 244.796 211.814 245.257 211.313 245.655C210.812 246.053 210.227 246.404 209.587 246.407C210.403 246.403 211.127 246.912 211.918 247.115C212.749 247.329 213.666 247.188 214.395 246.734C215.096 246.297 215.606 245.573 215.802 244.769C216.443 245.316 217.158 245.768 217.956 246.067C218.343 246.213 218.51 245.591 218.127 245.448Z" fill="url(#paint7_linear_21_1038)"/>
<path d="M232.994 248.376L232.696 250.749L230.707 266.512H213.196L211 250.749L210.671 248.376H232.994Z" fill="url(#paint8_linear_21_1038)"/>
<path d="M232.557 248.377H211.109C209.669 248.377 208.502 247.423 208.502 246.244C208.502 245.066 209.669 244.111 211.109 244.111H232.557C233.996 244.111 235.163 245.066 235.163 246.244C235.163 247.423 233.996 248.377 232.557 248.377Z" fill="#E3415B"/>
<path d="M545.811 327.684V337.868H516.313C513.515 337.868 511.238 335.586 511.238 332.778C511.238 329.969 513.515 327.684 516.313 327.684H545.811Z" fill="white"/>
<path d="M516.313 327.684C511.885 327.684 508.762 333.406 513.9 337.868H545.811V339.879H460.226V325.672H545.811V327.684L516.313 327.684Z" fill="url(#paint9_linear_21_1038)"/>
<path d="M511.238 332.778C511.238 335.586 513.515 337.868 516.313 337.868H545.81V339.879H516.313C512.408 339.879 509.233 336.692 509.233 332.777C509.233 328.859 512.408 325.672 516.313 325.672H545.81V327.684H516.313C513.515 327.684 511.238 329.97 511.238 332.778Z" fill="#18B881"/>
<path d="M492.025 325.672H490.126V339.88H492.025V325.672Z" fill="white"/>
<path d="M487.276 325.672H485.377V339.88H487.276V325.672Z" fill="white"/>
<path d="M518.234 331.328V335.75L520.475 334.187L522.716 335.75V331.328H518.234Z" fill="#26DB9D"/>
<path d="M496.141 333.539C496.141 331.259 497.984 329.41 500.256 329.41C502.528 329.41 504.37 331.259 504.37 333.539C504.37 335.819 502.528 337.667 500.256 337.667C497.984 337.667 496.141 335.819 496.141 333.539ZM468.328 313.477V323.661H497.825C500.623 323.661 502.901 321.38 502.901 318.571C502.901 315.763 500.623 313.477 497.825 313.477H468.328Z" fill="white"/>
<path d="M497.825 313.477C502.253 313.477 505.376 319.199 500.238 323.661H468.328V325.672H553.913V311.465H468.328V313.477L497.825 313.477Z" fill="url(#paint10_linear_21_1038)"/>
<path d="M502.901 318.571C502.901 321.379 500.623 323.66 497.825 323.66H468.328V325.672H497.825C501.73 325.672 504.905 322.485 504.905 318.57C504.905 314.651 501.73 311.465 497.825 311.465H468.328V313.476H497.825C500.623 313.477 502.901 315.762 502.901 318.571Z" fill="#FFA68B"/>
<path d="M522.114 325.672H524.013V311.465H522.114V325.672Z" fill="white"/>
<path d="M526.862 325.672H528.761V311.465H526.862V325.672Z" fill="white"/>
<path d="M495.905 317.121V321.542L493.664 319.98L491.423 321.542V317.121H495.905Z" fill="#F07C58"/>
<path d="M513.626 322.466C515.771 322.466 517.51 320.721 517.51 318.569C517.51 316.416 515.771 314.671 513.626 314.671C511.481 314.671 509.743 316.416 509.743 318.569C509.743 320.721 511.481 322.466 513.626 322.466Z" fill="white"/>
<path d="M535.775 157.214C535.95 157.214 535.95 157.486 535.775 157.486C535.601 157.486 535.6 157.214 535.775 157.214Z" fill="#D94559"/>
<path d="M541.847 195.997C542.142 196.238 542.33 196.585 542.367 196.979C542.416 197.499 542.192 197.99 541.768 198.293L537.673 201.215C537.249 201.517 536.713 201.568 536.239 201.351C535.767 201.134 535.454 200.694 535.405 200.174L534.931 195.154C534.882 194.634 535.106 194.142 535.53 193.84C535.954 193.537 536.49 193.486 536.963 193.704L541.532 195.801C541.648 195.855 541.753 195.92 541.847 195.997ZM536.644 200.273C536.67 200.294 536.695 200.308 536.711 200.316C536.76 200.338 536.885 200.379 537.015 200.287L541.11 197.365C541.239 197.272 541.242 197.139 541.237 197.087C541.232 197.034 541.205 196.905 541.06 196.838L536.491 194.74C536.346 194.673 536.23 194.738 536.187 194.768C536.144 194.799 536.046 194.888 536.061 195.046L536.534 200.067C536.545 200.169 536.596 200.234 536.644 200.273ZM208.662 114.98C208.957 115.22 209.145 115.568 209.182 115.961C209.232 116.481 209.008 116.973 208.583 117.275L204.488 120.197C204.064 120.5 203.528 120.551 203.055 120.334C202.582 120.116 202.27 119.676 202.22 119.156L201.746 114.136C201.697 113.616 201.921 113.125 202.345 112.822C202.77 112.519 203.305 112.468 203.779 112.686L208.348 114.784C208.463 114.837 208.568 114.903 208.662 114.98ZM203.459 119.255C203.485 119.277 203.51 119.29 203.527 119.298C203.575 119.32 203.701 119.361 203.83 119.269L207.925 116.347C208.054 116.255 208.057 116.122 208.052 116.069C208.047 116.017 208.02 115.887 207.876 115.82L203.306 113.722C203.162 113.655 203.046 113.72 203.003 113.751C202.96 113.782 202.861 113.87 202.876 114.029L203.35 119.049C203.36 119.152 203.411 119.217 203.459 119.255Z" fill="#10AA95"/>
<path d="M461.064 184.086L462.158 181.819C462.407 181.305 462.192 180.686 461.68 180.437C461.167 180.187 460.55 180.402 460.302 180.917L459.208 183.183L456.949 182.085C456.437 181.836 455.819 182.051 455.571 182.565C455.323 183.08 455.537 183.699 456.05 183.948L458.308 185.046L457.216 187.308C456.968 187.823 457.182 188.442 457.695 188.691C457.951 188.816 458.233 188.824 458.483 188.737C458.732 188.65 458.948 188.468 459.073 188.211L460.165 185.949L462.419 187.045C462.675 187.169 462.957 187.178 463.207 187.091C463.456 187.004 463.672 186.822 463.797 186.565C464.045 186.05 463.831 185.431 463.318 185.182L461.064 184.086ZM188.36 219.935L189.455 217.668C189.703 217.154 189.489 216.535 188.976 216.285C188.463 216.036 187.846 216.251 187.598 216.766L186.504 219.032L184.246 217.934C183.733 217.685 183.116 217.9 182.868 218.414C182.619 218.929 182.834 219.548 183.346 219.797L185.605 220.895L184.513 223.157C184.264 223.672 184.479 224.291 184.991 224.54C185.247 224.665 185.53 224.673 185.779 224.586C186.029 224.499 186.245 224.317 186.369 224.06L187.461 221.798L189.716 222.894C189.972 223.018 190.254 223.027 190.504 222.94C190.753 222.853 190.969 222.671 191.094 222.414C191.342 221.899 191.128 221.28 190.615 221.031L188.36 219.935Z" fill="#F03D5A"/>
<path d="M528.598 264.452C526.487 265.188 524.174 264.063 523.44 261.945C522.707 259.826 523.828 257.504 525.939 256.768C528.05 256.033 530.363 257.157 531.097 259.276C531.83 261.394 530.709 263.716 528.598 264.452ZM526.355 257.97C524.905 258.476 524.135 260.071 524.638 261.527C525.142 262.983 526.732 263.756 528.182 263.25C529.632 262.744 530.402 261.149 529.899 259.694C529.395 258.238 527.805 257.465 526.355 257.97ZM289.289 176.218C287.178 176.954 284.864 175.829 284.131 173.71C283.397 171.592 284.519 169.27 286.629 168.534C288.74 167.798 291.054 168.923 291.787 171.042C292.521 173.16 291.4 175.482 289.289 176.218ZM287.046 169.736C285.595 170.242 284.825 171.837 285.329 173.293C285.832 174.748 287.422 175.521 288.872 175.016C290.323 174.51 291.093 172.915 290.589 171.459C290.086 170.004 288.496 169.231 287.046 169.736ZM430.929 97.2362C428.818 97.9719 426.503 96.8469 425.77 94.7288C425.037 92.6103 426.158 90.2881 428.269 89.5524C430.38 88.8167 432.694 89.9417 433.427 92.0602C434.16 94.1783 433.04 96.5005 430.929 97.2362ZM428.685 90.7546C427.235 91.2602 426.465 92.8555 426.968 94.3113C427.472 95.7667 429.062 96.5397 430.512 96.034C431.963 95.5283 432.733 93.933 432.229 92.4776C431.725 91.0222 430.136 90.2493 428.685 90.7546Z" fill="white" fill-opacity="0.56"/>
<g clip-path="url(#clip1_21_1038)">
<path d="M164.96 132.572H151.054H144.101H130.195H123.242V139.525V144.16H130.195V139.525H144.101V178.925H134.831V185.878H144.101H151.054H160.325V178.925H151.054V139.525H164.96V144.16H171.913V139.525V132.572H164.96Z" fill="#FAD656"/>
<path d="M178.866 196.307H171.913C171.606 196.307 171.311 196.185 171.094 195.968C170.876 195.751 170.754 195.456 170.754 195.149C170.754 194.841 170.876 194.546 171.094 194.329C171.311 194.112 171.606 193.99 171.913 193.99H178.866C179.195 193.99 179.522 193.943 179.837 193.851C180.132 193.764 180.449 193.799 180.719 193.946C180.989 194.094 181.189 194.342 181.275 194.638C181.361 194.933 181.327 195.25 181.179 195.52C181.032 195.789 180.783 195.989 180.488 196.076C179.961 196.229 179.415 196.307 178.866 196.307ZM164.96 196.307H158.007C157.7 196.307 157.405 196.185 157.188 195.968C156.97 195.751 156.848 195.456 156.848 195.149C156.848 194.841 156.97 194.546 157.188 194.329C157.405 194.112 157.7 193.99 158.007 193.99H164.96C165.267 193.99 165.562 194.112 165.779 194.329C165.997 194.546 166.119 194.841 166.119 195.149C166.119 195.456 165.997 195.751 165.779 195.968C165.562 196.185 165.267 196.307 164.96 196.307ZM151.054 196.307H144.101C143.794 196.307 143.499 196.185 143.282 195.968C143.065 195.751 142.943 195.456 142.943 195.149C142.943 194.841 143.065 194.546 143.282 194.329C143.499 194.112 143.794 193.99 144.101 193.99H151.054C151.362 193.99 151.656 194.112 151.874 194.329C152.091 194.546 152.213 194.841 152.213 195.149C152.213 195.456 152.091 195.751 151.874 195.968C151.656 196.185 151.362 196.307 151.054 196.307ZM137.148 196.307H130.196C129.888 196.307 129.593 196.185 129.376 195.968C129.159 195.751 129.037 195.456 129.037 195.149C129.037 194.841 129.159 194.546 129.376 194.329C129.593 194.112 129.888 193.99 130.196 193.99H137.148C137.456 193.99 137.751 194.112 137.968 194.329C138.185 194.546 138.307 194.841 138.307 195.149C138.307 195.456 138.185 195.751 137.968 195.968C137.751 196.185 137.456 196.307 137.148 196.307ZM123.243 196.307H116.29C115.982 196.307 115.688 196.185 115.47 195.968C115.253 195.751 115.131 195.456 115.131 195.149C115.131 194.841 115.253 194.546 115.47 194.329C115.688 194.112 115.982 193.99 116.29 193.99H123.243C123.55 193.99 123.845 194.112 124.062 194.329C124.279 194.546 124.401 194.841 124.401 195.149C124.401 195.456 124.279 195.751 124.062 195.968C123.845 196.185 123.55 196.307 123.243 196.307ZM111.654 192.004C111.359 192.004 111.075 191.892 110.859 191.69C110.644 191.488 110.514 191.211 110.496 190.917C110.496 190.775 110.482 190.634 110.496 190.49V183.892C110.496 183.584 110.618 183.29 110.835 183.072C111.052 182.855 111.347 182.733 111.654 182.733C111.962 182.733 112.257 182.855 112.474 183.072C112.691 183.29 112.813 183.584 112.813 183.892V190.773C112.832 191.08 112.729 191.381 112.525 191.612C112.322 191.842 112.035 191.982 111.729 192.001L111.654 192.004ZM183.501 190.68C183.194 190.68 182.899 190.558 182.682 190.341C182.464 190.123 182.342 189.829 182.342 189.521V182.568C182.342 182.261 182.464 181.966 182.682 181.749C182.899 181.532 183.194 181.41 183.501 181.41C183.808 181.41 184.103 181.532 184.321 181.749C184.538 181.966 184.66 182.261 184.66 182.568V189.521C184.66 189.829 184.538 190.123 184.321 190.341C184.103 190.558 183.808 190.68 183.501 190.68ZM111.654 178.098C111.347 178.098 111.052 177.976 110.835 177.758C110.618 177.541 110.496 177.246 110.496 176.939V169.986C110.496 169.679 110.618 169.384 110.835 169.167C111.052 168.949 111.347 168.827 111.654 168.827C111.962 168.827 112.257 168.949 112.474 169.167C112.691 169.384 112.813 169.679 112.813 169.986V176.939C112.813 177.246 112.691 177.541 112.474 177.758C112.257 177.976 111.962 178.098 111.654 178.098ZM183.501 176.774C183.194 176.774 182.899 176.652 182.682 176.435C182.464 176.218 182.342 175.923 182.342 175.616V168.663C182.342 168.355 182.464 168.061 182.682 167.843C182.899 167.626 183.194 167.504 183.501 167.504C183.808 167.504 184.103 167.626 184.321 167.843C184.538 168.061 184.66 168.355 184.66 168.663V175.616C184.66 175.923 184.538 176.218 184.321 176.435C184.103 176.652 183.808 176.774 183.501 176.774ZM111.654 164.192C111.347 164.192 111.052 164.07 110.835 163.853C110.618 163.635 110.496 163.34 110.496 163.033V156.08C110.496 155.773 110.618 155.478 110.835 155.261C111.052 155.043 111.347 154.921 111.654 154.921C111.962 154.921 112.257 155.043 112.474 155.261C112.691 155.478 112.813 155.773 112.813 156.08V163.033C112.813 163.34 112.691 163.635 112.474 163.853C112.257 164.07 111.962 164.192 111.654 164.192ZM183.501 162.869C183.194 162.869 182.899 162.746 182.682 162.529C182.464 162.312 182.342 162.017 182.342 161.71V154.757C182.342 154.449 182.464 154.155 182.682 153.937C182.899 153.72 183.194 153.598 183.501 153.598C183.808 153.598 184.103 153.72 184.321 153.937C184.538 154.155 184.66 154.449 184.66 154.757V161.71C184.66 162.017 184.538 162.312 184.321 162.529C184.103 162.746 183.808 162.869 183.501 162.869ZM111.654 150.286C111.347 150.286 111.052 150.164 110.835 149.947C110.618 149.729 110.496 149.435 110.496 149.127V142.174C110.496 141.867 110.618 141.572 110.835 141.355C111.052 141.138 111.347 141.016 111.654 141.016C111.962 141.016 112.257 141.138 112.474 141.355C112.691 141.572 112.813 141.867 112.813 142.174V149.127C112.813 149.435 112.691 149.729 112.474 149.947C112.257 150.164 111.962 150.286 111.654 150.286ZM183.501 148.963C183.194 148.963 182.899 148.841 182.682 148.623C182.464 148.406 182.342 148.111 182.342 147.804V140.851C182.342 140.544 182.464 140.249 182.682 140.032C182.899 139.814 183.194 139.692 183.501 139.692C183.808 139.692 184.103 139.814 184.321 140.032C184.538 140.249 184.66 140.544 184.66 140.851V147.804C184.66 148.111 184.538 148.406 184.321 148.623C184.103 148.841 183.808 148.963 183.501 148.963ZM111.654 136.38C111.347 136.38 111.052 136.258 110.835 136.041C110.618 135.824 110.496 135.529 110.496 135.221V128.269C110.496 127.961 110.618 127.667 110.835 127.449C111.052 127.232 111.347 127.11 111.654 127.11C111.962 127.11 112.257 127.232 112.474 127.449C112.691 127.667 112.813 127.961 112.813 128.269V135.221C112.813 135.529 112.691 135.824 112.474 136.041C112.257 136.258 111.962 136.38 111.654 136.38ZM183.501 135.057C183.194 135.057 182.899 134.935 182.682 134.718C182.464 134.5 182.342 134.205 182.342 133.898V127.937C182.34 127.688 182.313 127.439 182.261 127.196C182.197 126.895 182.255 126.581 182.422 126.322C182.59 126.064 182.853 125.883 183.154 125.819C183.454 125.755 183.768 125.813 184.027 125.98C184.285 126.147 184.466 126.41 184.53 126.711C184.615 127.114 184.658 127.525 184.66 127.937V133.898C184.66 134.205 184.538 134.5 184.321 134.718C184.103 134.935 183.808 135.057 183.501 135.057ZM115.629 124.507C115.322 124.528 115.019 124.427 114.786 124.224C114.554 124.022 114.412 123.736 114.39 123.428C114.369 123.121 114.471 122.818 114.673 122.585C114.876 122.353 115.162 122.211 115.469 122.189C115.738 122.162 115.951 122.176 116.29 122.143H122.582C122.889 122.143 123.184 122.265 123.402 122.482C123.619 122.7 123.741 122.995 123.741 123.302C123.741 123.609 123.619 123.904 123.402 124.121C123.184 124.339 122.889 124.461 122.582 124.461H116.29C116.118 124.482 115.954 124.461 115.794 124.495C115.739 124.503 115.684 124.507 115.629 124.507ZM178.205 124.461H171.252C170.945 124.461 170.65 124.339 170.433 124.121C170.216 123.904 170.094 123.609 170.094 123.302C170.094 122.995 170.216 122.7 170.433 122.482C170.65 122.265 170.945 122.143 171.252 122.143H178.205C178.513 122.143 178.807 122.265 179.025 122.482C179.242 122.7 179.364 122.995 179.364 123.302C179.364 123.609 179.242 123.904 179.025 124.121C178.807 124.339 178.513 124.461 178.205 124.461ZM164.3 124.461H157.347C157.039 124.461 156.745 124.339 156.527 124.121C156.31 123.904 156.188 123.609 156.188 123.302C156.188 122.995 156.31 122.7 156.527 122.482C156.745 122.265 157.039 122.143 157.347 122.143H164.3C164.607 122.143 164.902 122.265 165.119 122.482C165.336 122.7 165.458 122.995 165.458 123.302C165.458 123.609 165.336 123.904 165.119 124.121C164.902 124.339 164.607 124.461 164.3 124.461ZM150.394 124.461H143.441C143.134 124.461 142.839 124.339 142.621 124.121C142.404 123.904 142.282 123.609 142.282 123.302C142.282 122.995 142.404 122.7 142.621 122.482C142.839 122.265 143.134 122.143 143.441 122.143H150.394C150.701 122.143 150.996 122.265 151.213 122.482C151.43 122.7 151.553 122.995 151.553 123.302C151.553 123.609 151.43 123.904 151.213 124.121C150.996 124.339 150.701 124.461 150.394 124.461ZM136.488 124.461H129.535C129.228 124.461 128.933 124.339 128.716 124.121C128.498 123.904 128.376 123.609 128.376 123.302C128.376 122.995 128.498 122.7 128.716 122.482C128.933 122.265 129.228 122.143 129.535 122.143H136.488C136.795 122.143 137.09 122.265 137.307 122.482C137.525 122.7 137.647 122.995 137.647 123.302C137.647 123.609 137.525 123.904 137.307 124.121C137.09 124.339 136.795 124.461 136.488 124.461Z" fill="#F3EDFC" fill-opacity="0.59"/>
</g>
<rect x="454.491" y="52.7126" width="160.952" height="104.146" rx="6.31186" fill="url(#paint11_linear_21_1038)"/>
<rect x="467.904" y="90.5839" width="20.5135" height="20.5135" rx="1.57796" fill="#CFC2FB"/>
<rect x="524.711" y="90.5839" width="20.5135" height="20.5135" rx="1.57796" fill="#CFC2FB"/>
<rect x="496.307" y="90.5839" width="20.5135" height="20.5135" rx="1.57796" fill="#CFC2FB"/>
<rect x="553.114" y="90.5839" width="20.5135" height="20.5135" rx="1.57796" fill="#CFC2FB"/>
<rect x="581.518" y="90.5839" width="20.5135" height="20.5135" rx="1.57796" fill="#CFC2FB"/>
<rect x="467.904" y="118.198" width="133.338" height="4.73389" rx="2.36695" fill="#BCABF6"/>
<rect x="493.152" y="65.3363" width="108.091" height="4.73389" rx="2.36695" fill="#BCABF6"/>
<rect x="467.904" y="128.455" width="133.338" height="4.73389" rx="2.36695" fill="#BCABF6"/>
<rect x="493.152" y="75.5929" width="67.8524" height="4.73389" rx="2.36695" fill="#BCABF6"/>
<rect x="467.904" y="138.712" width="133.338" height="4.73389" rx="2.36695" fill="#BCABF6"/>
<circle cx="478.161" cy="72.4374" r="10.2568" fill="#CFC2FB"/>
</g>
<defs>
<radialGradient id="paint0_radial_21_1038" cx="0" cy="0" r="1" gradientUnits="userSpaceOnUse" gradientTransform="translate(363.268 198.036) rotate(92.9598) scale(255.411 420.321)">
<stop stop-color="#8085FF"/>
<stop offset="0.540512" stop-color="#762CEF"/>
<stop offset="1" stop-color="#7000C8"/>
</radialGradient>
<linearGradient id="paint1_linear_21_1038" x1="223.005" y1="266.512" x2="223.005" y2="340.038" gradientUnits="userSpaceOnUse">
<stop stop-color="#E6E9FF"/>
<stop offset="1" stop-color="#B5BDFF"/>
</linearGradient>
<linearGradient id="paint2_linear_21_1038" x1="367.973" y1="176.26" x2="367.973" y2="218.795" gradientUnits="userSpaceOnUse">
<stop stop-color="white"/>
<stop offset="1" stop-color="#FFD0D0"/>
</linearGradient>
<linearGradient id="paint3_linear_21_1038" x1="366.896" y1="143.257" x2="366.896" y2="167.34" gradientUnits="userSpaceOnUse">
<stop stop-color="white"/>
<stop offset="1" stop-color="#FFD0D0"/>
</linearGradient>
<linearGradient id="paint4_linear_21_1038" x1="368.238" y1="112.609" x2="368.238" y2="181.487" gradientUnits="userSpaceOnUse">
<stop stop-color="white"/>
<stop offset="1" stop-color="#FFD0D0"/>
</linearGradient>
<linearGradient id="paint5_linear_21_1038" x1="365.356" y1="254.337" x2="365.356" y2="340.192" gradientUnits="userSpaceOnUse">
<stop stop-color="#F0F2FC"/>
<stop offset="1" stop-color="#C3B9FF"/>
</linearGradient>
<linearGradient id="paint6_linear_21_1038" x1="227.893" y1="211.17" x2="227.893" y2="248.338" gradientUnits="userSpaceOnUse">
<stop stop-color="#A0E1BE"/>
<stop offset="1" stop-color="#47C98B"/>
</linearGradient>
<linearGradient id="paint7_linear_21_1038" x1="211.5" y1="228.106" x2="211.5" y2="247.213" gradientUnits="userSpaceOnUse">
<stop stop-color="#A0E1BE"/>
<stop offset="1" stop-color="#47C98B"/>
</linearGradient>
<linearGradient id="paint8_linear_21_1038" x1="213.902" y1="266.597" x2="234.681" y2="244.011" gradientUnits="userSpaceOnUse">
<stop offset="0.0543805" stop-color="#CD4258"/>
<stop offset="1" stop-color="#FCABB8"/>
</linearGradient>
<linearGradient id="paint9_linear_21_1038" x1="462.349" y1="339.776" x2="509.779" y2="321.707" gradientUnits="userSpaceOnUse">
<stop stop-color="#13AA76"/>
<stop offset="1" stop-color="#29E3A2"/>
</linearGradient>
<linearGradient id="paint10_linear_21_1038" x1="519.265" y1="325.321" x2="541.399" y2="307.704" gradientUnits="userSpaceOnUse">
<stop stop-color="#F07C58"/>
<stop offset="1" stop-color="#FFA183"/>
</linearGradient>
<linearGradient id="paint11_linear_21_1038" x1="534.968" y1="52.7126" x2="534.968" y2="156.858" gradientUnits="userSpaceOnUse">
<stop stop-color="#F0F2FC"/>
<stop offset="1" stop-color="#C3B9FF"/>
</linearGradient>
<clipPath id="clip0_21_1038">
<rect width="720" height="400" fill="white"/>
</clipPath>
<clipPath id="clip1_21_1038">
<rect width="74.1643" height="74.1643" fill="white" transform="translate(110.496 122.143)"/>
</clipPath>
</defs>
</svg>
