<svg width="720" height="400" viewBox="0 0 720 400" fill="none" xmlns="http://www.w3.org/2000/svg">
<g clip-path="url(#clip0_49_494)">
<rect width="720" height="400" fill="white"/>
<rect width="720" height="400" fill="url(#paint0_linear_49_494)"/>
<path opacity="0.16" d="M630.679 312.027C630.189 319.416 625.884 326.627 618.369 333.492C611.407 339.846 606.173 347.972 589.701 351.534C573.228 355.096 160.318 356.368 151.519 351.534C142.72 346.7 135.056 338.489 128.621 329.635C126.332 326.487 124.244 323.197 122.37 319.786C67.7855 220.496 197.495 30.6041 241.107 39.9448C261.131 44.2324 249.301 87.5838 282.264 108.626C344.615 148.432 463.889 42.42 498.999 74.2862C517.803 91.3516 486.34 124.239 498.087 174.665C518.017 260.286 633.372 271.334 630.679 312.027Z" fill="white"/>
<path d="M486.874 70.6891C486.799 70.6893 486.724 70.6735 486.655 70.6425C486.586 70.6116 486.524 70.5663 486.474 70.5097C486.423 70.4531 486.386 70.3864 486.363 70.3141C486.341 70.2418 486.334 70.1655 486.343 70.0904C486.49 68.8695 486.593 67.6273 486.651 66.4C486.653 66.3293 486.668 66.2598 486.698 66.1955C486.727 66.1312 486.769 66.0735 486.822 66.026C486.874 65.9785 486.935 65.9421 487.002 65.9191C487.069 65.8961 487.14 65.8869 487.21 65.8922C487.505 65.905 487.734 66.1562 487.718 66.4502C487.659 67.7097 487.554 68.9667 487.405 70.2187C487.389 70.3483 487.326 70.4677 487.229 70.5544C487.131 70.6411 487.005 70.6889 486.874 70.6891ZM312.16 201.85C312.131 201.85 312.101 201.848 312.072 201.843C309.554 201.425 307.046 200.939 304.613 200.398C304.544 200.383 304.479 200.354 304.422 200.314C304.364 200.274 304.315 200.222 304.277 200.163C304.24 200.104 304.214 200.038 304.202 199.968C304.19 199.899 304.191 199.828 304.207 199.76C304.238 199.621 304.322 199.501 304.442 199.425C304.562 199.349 304.706 199.323 304.845 199.353C307.259 199.89 309.749 200.374 312.247 200.788C312.379 200.81 312.498 200.881 312.58 200.987C312.662 201.093 312.702 201.225 312.691 201.359C312.68 201.492 312.619 201.616 312.521 201.707C312.423 201.798 312.294 201.849 312.16 201.85ZM297.394 198.55C297.344 198.551 297.294 198.543 297.246 198.529C294.809 197.834 292.395 197.06 290.007 196.209C289.874 196.162 289.765 196.063 289.704 195.935C289.643 195.807 289.636 195.66 289.684 195.526C289.731 195.393 289.83 195.283 289.958 195.223C290.086 195.162 290.233 195.155 290.367 195.202C292.696 196.033 295.109 196.806 297.54 197.502C297.665 197.536 297.773 197.615 297.844 197.723C297.915 197.831 297.944 197.962 297.926 198.09C297.909 198.218 297.845 198.335 297.747 198.42C297.648 198.505 297.523 198.552 297.394 198.55ZM283.149 193.453C283.076 193.453 283.003 193.438 282.936 193.408C280.611 192.393 278.326 191.292 276.083 190.107C275.958 190.041 275.864 189.928 275.822 189.792C275.78 189.657 275.793 189.51 275.86 189.384C275.926 189.259 276.039 189.165 276.175 189.123C276.31 189.081 276.457 189.095 276.582 189.161C278.801 190.334 281.063 191.424 283.363 192.429C283.476 192.478 283.568 192.565 283.624 192.674C283.68 192.783 283.697 192.908 283.672 193.028C283.647 193.148 283.581 193.256 283.486 193.333C283.391 193.411 283.272 193.453 283.149 193.453ZM269.789 186.365C269.687 186.365 269.587 186.336 269.501 186.28C267.362 184.911 265.283 183.452 263.269 181.905C263.157 181.819 263.083 181.691 263.065 181.551C263.047 181.41 263.085 181.268 263.171 181.155C263.258 181.043 263.386 180.969 263.526 180.951C263.667 180.933 263.809 180.971 263.921 181.058C265.911 182.586 267.964 184.028 270.077 185.38C270.174 185.442 270.249 185.534 270.289 185.643C270.33 185.751 270.334 185.869 270.302 185.98C270.269 186.091 270.201 186.188 270.109 186.258C270.016 186.327 269.904 186.364 269.788 186.364L269.789 186.365ZM257.805 177.148C257.671 177.148 257.542 177.098 257.443 177.007C255.573 175.288 253.785 173.481 252.085 171.593C252.037 171.541 251.999 171.48 251.975 171.413C251.951 171.347 251.94 171.276 251.943 171.205C251.946 171.134 251.964 171.065 251.994 171.001C252.024 170.937 252.067 170.88 252.12 170.832C252.173 170.785 252.234 170.748 252.301 170.725C252.368 170.702 252.439 170.692 252.51 170.696C252.581 170.701 252.65 170.719 252.713 170.75C252.777 170.782 252.834 170.826 252.88 170.879C254.523 172.707 256.301 174.503 258.168 176.22C258.246 176.293 258.301 176.388 258.325 176.493C258.349 176.598 258.341 176.708 258.302 176.808C258.263 176.908 258.194 176.994 258.105 177.054C258.017 177.115 257.912 177.148 257.804 177.148H257.805ZM247.724 165.893C247.639 165.893 247.556 165.873 247.48 165.835C247.405 165.796 247.34 165.74 247.29 165.672C245.794 163.613 244.424 161.466 243.185 159.243C243.147 159.182 243.122 159.113 243.112 159.042C243.102 158.971 243.106 158.898 243.124 158.828C243.142 158.758 243.175 158.693 243.219 158.636C243.263 158.579 243.319 158.532 243.382 158.497C243.445 158.462 243.515 158.44 243.586 158.433C243.658 158.425 243.731 158.433 243.799 158.454C243.868 158.475 243.932 158.511 243.987 158.557C244.042 158.604 244.087 158.661 244.119 158.726C245.337 160.911 246.686 163.021 248.157 165.044C248.215 165.124 248.25 165.218 248.258 165.317C248.265 165.415 248.246 165.514 248.201 165.602C248.156 165.69 248.087 165.763 248.003 165.815C247.919 165.866 247.822 165.893 247.723 165.893H247.724ZM240.443 152.672C240.334 152.672 240.229 152.639 240.14 152.577C240.05 152.516 239.982 152.429 239.944 152.328C239.367 150.823 238.866 149.291 238.445 147.736C238.199 146.828 237.98 145.912 237.79 144.991C237.762 144.852 237.79 144.707 237.869 144.589C237.947 144.471 238.069 144.389 238.207 144.36C238.346 144.333 238.49 144.361 238.608 144.439C238.725 144.517 238.808 144.638 238.838 144.776C239.02 145.66 239.234 146.563 239.475 147.457C239.888 148.977 240.377 150.475 240.942 151.946C240.973 152.027 240.984 152.114 240.974 152.2C240.963 152.286 240.932 152.369 240.883 152.44C240.834 152.512 240.768 152.57 240.692 152.61C240.615 152.651 240.529 152.672 240.443 152.672ZM237.428 137.912C237.289 137.913 237.156 137.859 237.056 137.762C236.956 137.665 236.898 137.534 236.893 137.395C236.813 134.842 236.946 132.287 237.289 129.756C237.297 129.685 237.319 129.617 237.353 129.556C237.388 129.495 237.435 129.441 237.491 129.398C237.547 129.355 237.612 129.325 237.68 129.308C237.749 129.29 237.82 129.288 237.89 129.299C237.959 129.309 238.026 129.332 238.087 129.367C238.148 129.402 238.201 129.449 238.243 129.505C238.286 129.561 238.317 129.625 238.335 129.693C238.353 129.761 238.357 129.831 238.347 129.901C238.013 132.372 237.885 134.867 237.963 137.36C237.965 137.43 237.953 137.5 237.929 137.566C237.904 137.632 237.867 137.692 237.819 137.744C237.77 137.795 237.713 137.836 237.649 137.865C237.585 137.894 237.515 137.91 237.445 137.912H237.428ZM239.41 122.973C239.327 122.974 239.245 122.954 239.17 122.917C239.096 122.88 239.031 122.826 238.981 122.759C238.931 122.692 238.898 122.615 238.883 122.533C238.869 122.451 238.873 122.367 238.897 122.287C239.624 119.845 240.515 117.456 241.566 115.135C241.625 115.006 241.732 114.906 241.865 114.856C241.998 114.806 242.145 114.81 242.274 114.868C242.541 114.989 242.662 115.306 242.541 115.575C241.51 117.851 240.635 120.195 239.922 122.591C239.889 122.701 239.822 122.798 239.729 122.867C239.637 122.936 239.525 122.974 239.41 122.973ZM427.472 117.19H427.451C424.913 117.083 422.381 116.857 419.865 116.512C419.795 116.503 419.728 116.48 419.668 116.445C419.607 116.409 419.554 116.362 419.511 116.307C419.469 116.251 419.438 116.187 419.42 116.119C419.402 116.051 419.398 115.981 419.407 115.911C419.447 115.617 419.725 115.4 420.009 115.454C422.518 115.796 425.037 116.02 427.494 116.121C427.635 116.124 427.77 116.183 427.868 116.285C427.967 116.387 428.02 116.524 428.018 116.666C428.015 116.808 427.956 116.943 427.853 117.041C427.751 117.139 427.614 117.193 427.472 117.19ZM359.596 117.13H359.568C357.028 117 354.498 116.73 351.988 116.321C351.919 116.309 351.853 116.285 351.793 116.248C351.733 116.211 351.681 116.163 351.64 116.106C351.599 116.049 351.57 115.984 351.554 115.916C351.537 115.848 351.535 115.777 351.546 115.708C351.557 115.638 351.582 115.572 351.619 115.512C351.656 115.453 351.704 115.401 351.761 115.36C351.818 115.319 351.883 115.289 351.951 115.273C352.019 115.257 352.09 115.254 352.159 115.266C354.654 115.672 357.165 115.939 359.622 116.062C359.764 116.066 359.899 116.125 359.996 116.228C360.094 116.331 360.147 116.468 360.144 116.61C360.14 116.752 360.08 116.886 359.978 116.984C359.875 117.082 359.737 117.134 359.596 117.13ZM435.036 117.114C434.894 117.118 434.756 117.066 434.653 116.969C434.55 116.871 434.49 116.737 434.485 116.595C434.481 116.454 434.533 116.316 434.63 116.213C434.728 116.11 434.862 116.049 435.004 116.045C437.502 115.889 439.989 115.589 442.452 115.146C442.591 115.123 442.734 115.155 442.85 115.235C442.965 115.316 443.045 115.438 443.072 115.577C443.097 115.716 443.066 115.86 442.985 115.976C442.904 116.093 442.781 116.173 442.641 116.198C440.196 116.64 437.649 116.948 435.07 117.113H435.036V117.114ZM367.159 117.046C367.02 117.047 366.885 116.994 366.784 116.898C366.683 116.802 366.624 116.67 366.619 116.531C366.614 116.391 366.663 116.256 366.757 116.152C366.85 116.049 366.98 115.986 367.12 115.978C369.609 115.795 372.082 115.424 374.515 114.867C374.651 114.842 374.79 114.871 374.905 114.946C375.02 115.022 375.102 115.139 375.133 115.273C375.164 115.407 375.142 115.548 375.072 115.666C375.002 115.785 374.889 115.872 374.757 115.909C372.371 116.462 369.829 116.845 367.201 117.044L367.159 117.046ZM412.496 115.166C412.456 115.166 412.417 115.162 412.378 115.153C409.904 114.591 407.454 113.928 405.034 113.165C404.899 113.122 404.786 113.028 404.72 112.902C404.655 112.776 404.642 112.63 404.684 112.495C404.727 112.359 404.821 112.247 404.947 112.181C405.073 112.115 405.219 112.102 405.355 112.145C407.746 112.9 410.168 113.556 412.613 114.112C412.742 114.141 412.855 114.216 412.931 114.323C413.008 114.43 413.042 114.561 413.027 114.692C413.013 114.822 412.95 114.943 412.852 115.031C412.754 115.118 412.627 115.166 412.496 115.166ZM344.674 114.76C344.629 114.76 344.584 114.754 344.541 114.743C342.086 114.108 339.655 113.387 337.251 112.58C337.117 112.535 337.005 112.439 336.942 112.312C336.878 112.185 336.868 112.038 336.913 111.903C336.958 111.768 337.054 111.657 337.181 111.593C337.308 111.53 337.455 111.52 337.59 111.564C339.969 112.364 342.376 113.079 344.806 113.707C344.933 113.739 345.044 113.816 345.118 113.924C345.191 114.031 345.223 114.163 345.207 114.292C345.19 114.422 345.127 114.541 345.029 114.627C344.931 114.713 344.804 114.761 344.674 114.76ZM449.886 114.386C449.758 114.386 449.634 114.341 449.537 114.258C449.44 114.175 449.375 114.06 449.356 113.933C449.336 113.807 449.362 113.678 449.43 113.569C449.497 113.46 449.602 113.38 449.724 113.341C452.106 112.584 454.436 111.67 456.697 110.604C456.825 110.544 456.972 110.537 457.106 110.584C457.239 110.632 457.348 110.731 457.409 110.859C457.47 110.987 457.477 111.134 457.429 111.268C457.382 111.401 457.283 111.51 457.155 111.571C454.85 112.658 452.476 113.59 450.048 114.361C449.995 114.377 449.941 114.386 449.886 114.386ZM381.809 113.54C381.686 113.54 381.568 113.498 381.473 113.421C381.377 113.344 381.312 113.237 381.286 113.118C381.26 112.998 381.276 112.873 381.332 112.764C381.387 112.655 381.478 112.568 381.589 112.518C383.941 111.463 386.079 110.177 387.941 108.695C388.052 108.616 388.19 108.582 388.326 108.601C388.462 108.62 388.585 108.69 388.671 108.798C388.756 108.905 388.797 109.041 388.785 109.178C388.773 109.314 388.709 109.441 388.607 109.532C386.674 111.068 384.461 112.402 382.028 113.493C381.959 113.524 381.884 113.54 381.809 113.54ZM398.076 110.624C398.007 110.624 397.939 110.61 397.875 110.584C395.525 109.631 393.212 108.586 390.944 107.451C390.817 107.387 390.72 107.276 390.675 107.142C390.63 107.007 390.641 106.86 390.704 106.733C390.768 106.607 390.879 106.51 391.013 106.465C391.148 106.42 391.295 106.431 391.421 106.494C393.665 107.616 395.952 108.651 398.276 109.594C398.393 109.639 398.491 109.724 398.551 109.833C398.612 109.943 398.632 110.07 398.609 110.193C398.585 110.316 398.518 110.426 398.421 110.505C398.324 110.584 398.202 110.626 398.076 110.624ZM330.322 109.993C330.254 109.993 330.186 109.98 330.123 109.954C327.774 109.012 325.447 108.019 323.142 106.975C323.013 106.917 322.912 106.809 322.862 106.677C322.812 106.544 322.816 106.397 322.875 106.267C322.933 106.138 323.04 106.037 323.173 105.987C323.306 105.937 323.453 105.942 323.582 106C325.966 107.078 328.3 108.074 330.52 108.961C330.636 109.007 330.733 109.092 330.793 109.201C330.853 109.31 330.872 109.437 330.849 109.56C330.825 109.682 330.76 109.792 330.663 109.871C330.567 109.951 330.446 109.994 330.322 109.993ZM245.579 109.198C245.483 109.198 245.39 109.173 245.308 109.125C245.226 109.077 245.158 109.008 245.112 108.925C245.065 108.843 245.041 108.749 245.043 108.654C245.045 108.559 245.072 108.466 245.122 108.385C246.439 106.211 247.87 104.108 249.409 102.084C249.495 101.971 249.622 101.897 249.762 101.878C249.903 101.858 250.045 101.896 250.158 101.981C250.271 102.067 250.346 102.194 250.365 102.335C250.384 102.475 250.347 102.618 250.261 102.731C248.744 104.724 247.334 106.797 246.036 108.939C245.989 109.018 245.922 109.083 245.841 109.128C245.761 109.174 245.671 109.198 245.579 109.198ZM463.527 107.938C463.412 107.939 463.299 107.902 463.206 107.833C463.114 107.764 463.046 107.667 463.013 107.556C462.98 107.445 462.984 107.327 463.024 107.218C463.064 107.11 463.138 107.017 463.235 106.955C465.328 105.59 467.322 104.08 469.203 102.437C469.256 102.391 469.317 102.355 469.384 102.333C469.45 102.31 469.52 102.301 469.59 102.306C469.66 102.311 469.729 102.329 469.791 102.36C469.854 102.391 469.91 102.434 469.957 102.487C470.003 102.54 470.038 102.601 470.061 102.668C470.083 102.734 470.092 102.804 470.088 102.874C470.083 102.944 470.065 103.013 470.033 103.076C470.002 103.138 469.959 103.195 469.906 103.241C467.988 104.918 465.954 106.459 463.82 107.852C463.733 107.908 463.632 107.937 463.528 107.937L463.527 107.938ZM393.435 104.153C393.337 104.153 393.242 104.126 393.158 104.075C393.075 104.025 393.007 103.953 392.962 103.866C392.916 103.78 392.896 103.683 392.902 103.586C392.907 103.489 392.94 103.395 392.995 103.315C394.364 101.337 395.48 99.1121 396.312 96.7024C396.334 96.6344 396.369 96.5713 396.415 96.5169C396.461 96.4626 396.518 96.418 396.582 96.3859C396.646 96.3538 396.715 96.3348 396.786 96.33C396.858 96.3252 396.929 96.3348 396.996 96.358C397.064 96.3813 397.126 96.4179 397.179 96.4656C397.232 96.5132 397.275 96.5711 397.306 96.6357C397.336 96.7002 397.353 96.7703 397.356 96.8416C397.359 96.9129 397.348 96.9841 397.323 97.051C396.459 99.5526 395.298 101.865 393.874 103.922C393.825 103.993 393.76 104.051 393.683 104.091C393.607 104.132 393.521 104.153 393.435 104.153ZM384.555 103.858C384.458 103.858 384.362 103.831 384.279 103.781C382.106 102.47 379.987 101.073 377.927 99.5921C377.812 99.5093 377.734 99.3842 377.711 99.2442C377.688 99.1043 377.722 98.961 377.805 98.8459C377.888 98.7308 378.013 98.6533 378.153 98.6304C378.293 98.6076 378.436 98.6412 378.551 98.724C380.588 100.189 382.683 101.571 384.832 102.867C384.931 102.927 385.008 103.019 385.051 103.127C385.094 103.235 385.1 103.355 385.069 103.467C385.037 103.579 384.97 103.678 384.877 103.749C384.785 103.819 384.671 103.857 384.555 103.858ZM316.52 103.791C316.439 103.791 316.358 103.773 316.285 103.738C314.018 102.622 311.763 101.481 309.52 100.317C309.456 100.286 309.398 100.242 309.351 100.189C309.304 100.135 309.268 100.072 309.245 100.005C309.222 99.9369 309.214 99.8653 309.219 99.7941C309.225 99.7229 309.244 99.6535 309.277 99.59C309.31 99.5265 309.355 99.4703 309.41 99.4246C309.465 99.3789 309.529 99.3446 309.597 99.3239C309.665 99.3032 309.737 99.2963 309.808 99.3039C309.879 99.3114 309.948 99.333 310.011 99.3676C312.247 100.528 314.496 101.665 316.756 102.777C316.865 102.83 316.953 102.918 317.006 103.027C317.058 103.137 317.071 103.26 317.044 103.379C317.017 103.497 316.95 103.602 316.855 103.677C316.76 103.752 316.642 103.793 316.521 103.792L316.52 103.791ZM474.874 98.0013C474.772 98.0014 474.672 97.9721 474.586 97.917C474.5 97.8619 474.432 97.7833 474.389 97.6904C474.346 97.5976 474.331 97.4945 474.345 97.3933C474.359 97.2921 474.402 97.197 474.468 97.1194C476.092 95.2222 477.576 93.2096 478.908 91.0974C478.984 90.9796 479.104 90.8966 479.241 90.8665C479.379 90.8364 479.522 90.8615 479.641 90.9363C479.76 91.0112 479.844 91.1299 479.877 91.2666C479.909 91.4034 479.885 91.5473 479.812 91.6672C478.452 93.8233 476.937 95.8777 475.279 97.8143C475.229 97.8729 475.167 97.92 475.097 97.9523C475.027 97.9846 474.95 98.0014 474.873 98.0013H474.874ZM254.763 97.207C254.657 97.207 254.554 97.1758 254.466 97.1172C254.379 97.0587 254.31 96.9755 254.269 96.8781C254.229 96.7807 254.218 96.6735 254.238 96.5699C254.259 96.4664 254.309 96.3711 254.383 96.2962C256.282 94.3751 258.252 92.7138 260.237 91.3572C260.355 91.2776 260.499 91.2475 260.638 91.2736C260.777 91.2996 260.901 91.3796 260.981 91.4961C261.062 91.6134 261.092 91.7576 261.065 91.8971C261.039 92.0367 260.959 92.1601 260.841 92.2402C258.911 93.5583 256.994 95.1748 255.143 97.0477C255.094 97.0982 255.034 97.1382 254.969 97.1656C254.904 97.1929 254.834 97.207 254.763 97.207ZM303.063 96.8585C302.976 96.8585 302.891 96.8376 302.815 96.7976C300.79 95.7275 298.436 94.4906 296.096 93.3499C296.03 93.321 295.97 93.2791 295.921 93.2266C295.871 93.1742 295.833 93.1123 295.808 93.0446C295.783 92.977 295.772 92.905 295.776 92.833C295.78 92.761 295.798 92.6905 295.829 92.6257C295.861 92.5609 295.905 92.5032 295.96 92.456C296.014 92.4088 296.078 92.3732 296.146 92.3511C296.215 92.3291 296.287 92.3212 296.359 92.3278C296.431 92.3345 296.501 92.3556 296.564 92.3899C298.918 93.5359 301.283 94.7781 303.313 95.8515C303.418 95.9072 303.502 95.9967 303.551 96.1056C303.6 96.2145 303.611 96.3365 303.582 96.4523C303.553 96.5681 303.487 96.6711 303.393 96.7447C303.299 96.8183 303.182 96.8583 303.063 96.8585ZM372.283 95.024C372.156 95.0243 372.032 94.9788 371.936 94.8957C370.886 93.9993 369.858 93.0779 368.853 92.1322C368.008 91.3385 367.181 90.5258 366.372 89.6948C366.323 89.6444 366.285 89.5849 366.259 89.5197C366.233 89.4544 366.22 89.3847 366.221 89.3145C366.222 89.2442 366.237 89.1749 366.264 89.1104C366.292 89.0458 366.332 88.9874 366.383 88.9384C366.433 88.8894 366.492 88.8508 366.558 88.8248C366.623 88.7988 366.693 88.7859 366.763 88.7868C366.833 88.7878 366.902 88.8025 366.967 88.8303C367.032 88.858 367.09 88.8982 367.139 88.9486C367.937 89.7684 368.753 90.5704 369.586 91.3539C370.579 92.2879 371.593 93.1979 372.63 94.0833C372.714 94.1537 372.774 94.2483 372.802 94.3544C372.831 94.4604 372.826 94.5726 372.788 94.6756C372.75 94.7786 372.681 94.8673 372.591 94.9297C372.5 94.9921 372.393 95.025 372.283 95.024ZM289.405 90.3544C289.34 90.3544 289.276 90.3426 289.212 90.318C286.648 89.3345 284.308 88.6225 282.058 88.1457C281.919 88.1162 281.798 88.0328 281.721 87.914C281.644 87.7951 281.617 87.6504 281.646 87.5118C281.678 87.3745 281.762 87.2548 281.88 87.178C281.998 87.1012 282.141 87.0733 282.279 87.1002C284.586 87.5898 286.979 88.3157 289.596 89.3206C289.713 89.3653 289.81 89.4495 289.871 89.5586C289.932 89.6677 289.953 89.7947 289.93 89.9177C289.908 90.0406 289.842 90.1516 289.746 90.2314C289.65 90.3112 289.529 90.3547 289.403 90.3544H289.405ZM398.457 90.039C398.382 90.0392 398.307 90.0234 398.238 89.9927C398.169 89.962 398.107 89.917 398.057 89.8608C398.007 89.8045 397.969 89.7383 397.946 89.6663C397.923 89.5944 397.916 89.5185 397.925 89.4435C398.103 87.859 398.191 86.2657 398.189 84.6713C398.189 83.7818 398.163 82.8752 398.112 81.9762C398.104 81.8347 398.152 81.6958 398.246 81.5899C398.34 81.4841 398.473 81.42 398.614 81.4117C398.943 81.3754 399.164 81.6212 399.179 81.9152C399.232 82.8346 399.258 83.7626 399.258 84.6713C399.258 86.3443 399.167 87.9907 398.987 89.5643C398.973 89.6948 398.91 89.8152 398.813 89.9027C398.715 89.9903 398.588 90.0388 398.457 90.039ZM267.254 88.8908C267.128 88.8904 267.006 88.8456 266.91 88.7643C266.814 88.683 266.75 88.5704 266.729 88.4464C266.707 88.3224 266.731 88.1948 266.794 88.0863C266.858 87.9777 266.958 87.895 267.076 87.8528C269.508 86.9944 272.055 86.5036 274.632 86.3967C274.897 86.3753 275.175 86.6148 275.188 86.9099C275.194 87.0514 275.143 87.1894 275.047 87.2936C274.951 87.3977 274.818 87.4597 274.676 87.4658C272.205 87.5676 269.763 88.0379 267.431 88.8609C267.374 88.8809 267.314 88.8911 267.254 88.8908ZM482.906 85.24C482.817 85.24 482.73 85.2179 482.652 85.1756C482.573 85.1333 482.507 85.0722 482.458 84.9978C482.41 84.9234 482.381 84.8381 482.373 84.7495C482.366 84.661 482.381 84.572 482.416 84.4906C483.421 82.204 484.255 79.8464 484.913 77.437C484.95 77.3002 485.04 77.1838 485.164 77.1135C485.287 77.0433 485.433 77.0248 485.57 77.0622C485.706 77.0997 485.823 77.1899 485.893 77.3131C485.963 77.4363 485.982 77.5824 485.944 77.7192C485.273 80.179 484.421 82.5859 483.396 84.9204C483.354 85.0156 483.286 85.0967 483.199 85.1537C483.112 85.2106 483.01 85.24 482.906 85.24ZM361.771 84.1624C361.69 84.1624 361.61 84.1439 361.537 84.1081C361.464 84.0723 361.401 84.0203 361.351 83.9561C359.777 81.9532 358.337 79.8491 357.04 77.6572C357.002 77.5967 356.977 77.5292 356.965 77.4588C356.954 77.3884 356.957 77.3164 356.974 77.2472C356.991 77.1779 357.021 77.1127 357.064 77.0555C357.106 76.9982 357.16 76.9501 357.221 76.9138C357.283 76.8776 357.351 76.854 357.422 76.8445C357.492 76.8349 357.564 76.8397 357.633 76.8583C357.702 76.877 357.766 76.9092 357.822 76.9531C357.878 76.9971 357.925 77.0518 357.96 77.1141C359.234 79.266 360.649 81.3319 362.193 83.2986C362.256 83.3773 362.295 83.4721 362.306 83.572C362.317 83.672 362.299 83.773 362.255 83.8634C362.211 83.9537 362.143 84.0298 362.057 84.0827C361.972 84.1356 361.873 84.1633 361.772 84.1624H361.771ZM397.684 74.9792C397.56 74.979 397.44 74.9359 397.345 74.8571C397.249 74.7783 397.184 74.6688 397.16 74.5473C396.675 72.0923 396.046 69.6678 395.278 67.2862C395.242 67.1539 395.259 67.013 395.324 66.8926C395.39 66.7722 395.499 66.6815 395.629 66.6392C395.759 66.597 395.901 66.6064 396.025 66.6655C396.148 66.7246 396.244 66.829 396.293 66.957C397.075 69.3787 397.715 71.8442 398.208 74.341C398.223 74.4184 398.222 74.4984 398.202 74.575C398.183 74.6517 398.147 74.7231 398.097 74.7842C398.047 74.8452 397.984 74.8944 397.913 74.9281C397.841 74.9619 397.763 74.9793 397.684 74.9792ZM354.232 71.1038C354.123 71.1038 354.016 71.0703 353.927 71.0078C353.837 70.9453 353.769 70.8568 353.731 70.7543C352.792 68.2088 352.188 65.6955 351.938 63.2858C351.923 63.1449 351.965 63.004 352.054 62.8939C352.144 62.7839 352.273 62.7137 352.414 62.6989C352.697 62.6733 352.97 62.8817 353.001 63.1757C353.241 65.4956 353.825 67.9223 354.732 70.3844C354.763 70.4651 354.773 70.5518 354.762 70.6373C354.751 70.7227 354.72 70.8043 354.671 70.8749C354.621 70.9456 354.556 71.0034 354.479 71.0433C354.403 71.0831 354.318 71.1039 354.232 71.1038ZM392.933 60.6517C392.834 60.6518 392.736 60.6242 392.652 60.5718C392.567 60.5195 392.499 60.4446 392.455 60.3555C391.297 58.0335 389.986 55.8922 388.56 53.9904C388.517 53.9343 388.486 53.8704 388.469 53.8024C388.451 53.7343 388.447 53.6635 388.457 53.5939C388.467 53.5244 388.491 53.4574 388.527 53.3971C388.563 53.3367 388.61 53.284 388.667 53.242C388.722 53.1998 388.786 53.1691 388.854 53.1516C388.922 53.1342 388.993 53.1303 389.062 53.1402C389.131 53.1502 389.198 53.1737 389.258 53.2095C389.318 53.2454 389.371 53.2927 389.413 53.3489C390.879 55.3021 392.225 57.499 393.411 59.8798C393.452 59.9612 393.471 60.0516 393.467 60.1425C393.463 60.2334 393.435 60.3217 393.387 60.399C393.339 60.4764 393.273 60.5402 393.193 60.5844C393.114 60.6286 393.024 60.6518 392.933 60.6517ZM353.003 56.2643C352.92 56.2642 352.838 56.2449 352.764 56.2078C352.69 56.1708 352.625 56.117 352.576 56.0508C352.526 55.9845 352.492 55.9076 352.477 55.8261C352.462 55.7446 352.467 55.6607 352.49 55.5811C353.224 53.0772 354.494 50.7625 356.21 48.7969C356.256 48.7436 356.312 48.6999 356.375 48.6684C356.437 48.6369 356.506 48.6183 356.576 48.6135C356.646 48.6087 356.717 48.6179 356.783 48.6406C356.85 48.6633 356.911 48.699 356.964 48.7456C357.187 48.9391 357.21 49.2769 357.016 49.4993C355.402 51.3477 354.208 53.5241 353.516 55.8783C353.483 55.9893 353.416 56.0867 353.323 56.1561C353.231 56.2254 353.118 56.2641 353.003 56.2643ZM383.796 48.721C383.672 48.7214 383.552 48.6786 383.457 48.6002C381.482 46.9838 379.352 45.7137 377.123 44.8296C376.991 44.7772 376.885 44.6745 376.829 44.5442C376.773 44.4138 376.771 44.2666 376.824 44.1347C376.876 44.0029 376.979 43.8973 377.109 43.8411C377.239 43.785 377.387 43.7829 377.518 43.8354C379.849 44.7623 382.076 46.0868 384.134 47.7727C384.219 47.8425 384.281 47.937 384.31 48.0431C384.34 48.1493 384.336 48.262 384.299 48.3658C384.262 48.4697 384.194 48.5595 384.104 48.6231C384.014 48.6867 383.906 48.7209 383.796 48.721ZM362.613 45.1642C362.491 45.1643 362.373 45.1229 362.278 45.0468C362.183 44.9707 362.117 44.8645 362.09 44.7458C362.064 44.627 362.079 44.5028 362.133 44.3936C362.186 44.2845 362.276 44.1969 362.386 44.1454C364.747 43.0383 367.316 42.4458 369.923 42.4071C370.188 42.3751 370.46 42.638 370.466 42.9331C370.467 43.0033 370.454 43.073 370.428 43.1383C370.403 43.2036 370.364 43.2632 370.315 43.3136C370.266 43.364 370.208 43.4044 370.144 43.4323C370.079 43.4601 370.01 43.4751 369.94 43.4762C367.469 43.5157 365.081 44.0674 362.839 45.114C362.768 45.1473 362.691 45.1645 362.613 45.1642ZM323.549 203.294C323.532 203.294 323.517 203.294 323.5 203.292C322.26 203.182 321.015 203.053 319.769 202.914C319.699 202.907 319.631 202.885 319.57 202.851C319.508 202.817 319.454 202.772 319.41 202.717C319.366 202.662 319.334 202.599 319.314 202.531C319.295 202.464 319.289 202.393 319.296 202.323C319.314 202.183 319.386 202.055 319.496 201.967C319.607 201.879 319.747 201.837 319.888 201.851C321.126 201.991 322.364 202.116 323.596 202.227C323.733 202.239 323.86 202.304 323.951 202.407C324.041 202.511 324.089 202.646 324.082 202.783C324.076 202.92 324.018 203.05 323.918 203.145C323.819 203.241 323.687 203.294 323.549 203.294Z" fill="#953BEE"/>
<path d="M498.46 59.6094C498.472 59.6546 498.467 59.7024 498.447 59.7444C498.426 59.7863 498.392 59.8196 498.349 59.8382L489.017 63.9038C489.001 63.9128 488.982 63.918 488.964 63.9188C488.931 63.9226 488.898 63.9181 488.868 63.9055C488.838 63.893 488.812 63.8729 488.791 63.8472C488.765 63.8145 488.75 63.774 488.748 63.7319C488.747 63.6898 488.76 63.6484 488.784 63.6141L496.422 53.1534C496.444 53.1243 496.474 53.1019 496.508 53.0887C496.542 53.0755 496.579 53.072 496.615 53.0786C496.651 53.085 496.684 53.1015 496.711 53.1261C496.738 53.1507 496.757 53.1824 496.767 53.2175L498.459 59.6094H498.46Z" fill="url(#paint1_linear_49_494)"/>
<path d="M532.142 40.3054C532.156 40.342 532.159 40.3819 532.15 40.4201C532.141 40.4582 532.121 40.4928 532.092 40.5192L500.762 68.7167C500.737 68.7385 500.707 68.7538 500.675 68.7613C500.642 68.7688 500.609 68.7681 500.577 68.7595C500.545 68.7503 500.516 68.7331 500.493 68.7095C500.47 68.6859 500.454 68.6567 500.445 68.6248L495.184 48.751L487.254 42.0213C487.224 41.9961 487.202 41.9624 487.192 41.9246C487.181 41.8868 487.183 41.8467 487.195 41.8096C487.209 41.7728 487.233 41.7409 487.265 41.718C487.297 41.6951 487.335 41.6823 487.374 41.6813L531.954 40.1814C531.994 40.1798 532.034 40.191 532.068 40.2132C532.101 40.2354 532.127 40.2677 532.142 40.3054Z" fill="url(#paint2_linear_49_494)"/>
<path d="M521.274 43.1256C521.289 43.1716 521.286 43.2217 521.266 43.2657C521.246 43.3098 521.21 43.3445 521.165 43.3629L496.705 53.4259L489.099 63.8417C489.083 63.8629 489.063 63.8807 489.04 63.8939C489.017 63.9071 488.991 63.9156 488.965 63.9187C488.931 63.9235 488.896 63.9191 488.865 63.906C488.833 63.893 488.806 63.8718 488.785 63.8446C488.764 63.8174 488.751 63.7851 488.747 63.7512C488.743 63.7172 488.748 63.6828 488.762 63.6515L495.179 48.5671C495.192 48.5386 495.21 48.5134 495.234 48.4934C495.258 48.4734 495.286 48.4591 495.316 48.4516L521.05 42.9951C521.097 42.9841 521.147 42.9915 521.188 43.0158C521.23 43.04 521.26 43.0793 521.274 43.1256Z" fill="url(#paint3_linear_49_494)"/>
<path d="M504.216 128.486V339.081C504.216 348.262 496.773 355.704 487.592 355.704H202.656C193.476 355.704 186.034 348.262 186.034 339.081V128.486C186.034 119.306 193.476 111.863 202.657 111.863H487.593C496.773 111.863 504.216 119.306 504.216 128.487V128.486Z" fill="url(#paint4_linear_49_494)"/>
<path d="M284.057 111.863H202.657C193.476 111.863 186.033 119.306 186.033 128.487V339.081C186.033 348.262 193.476 355.704 202.657 355.704H284.057V111.863Z" fill="url(#paint5_linear_49_494)"/>
<path d="M267.72 311.034V322.398C267.72 322.993 267.603 323.582 267.375 324.131C267.148 324.681 266.814 325.18 266.393 325.601C265.973 326.021 265.473 326.355 264.924 326.583C264.374 326.81 263.785 326.927 263.191 326.927H206.901C206.307 326.927 205.718 326.81 205.168 326.583C204.618 326.355 204.119 326.021 203.699 325.601C203.278 325.18 202.944 324.681 202.717 324.131C202.489 323.582 202.372 322.993 202.372 322.398V311.034C202.372 309.832 202.849 308.68 203.699 307.831C204.548 306.981 205.7 306.504 206.901 306.504H263.191C264.392 306.504 265.544 306.981 266.393 307.831C267.243 308.68 267.72 309.832 267.72 311.034ZM267.72 271.919V283.283C267.72 283.878 267.603 284.467 267.376 285.017C267.148 285.566 266.814 286.066 266.394 286.487C265.973 286.907 265.474 287.241 264.924 287.469C264.375 287.697 263.785 287.814 263.191 287.814H206.901C205.7 287.814 204.548 287.336 203.699 286.487C202.849 285.638 202.372 284.485 202.372 283.284V271.92C202.372 270.719 202.849 269.567 203.699 268.717C204.548 267.868 205.7 267.39 206.901 267.39H263.191C264.392 267.39 265.544 267.868 266.393 268.717C267.243 269.567 267.72 270.718 267.72 271.919ZM267.72 232.806V244.17C267.72 245.372 267.243 246.524 266.393 247.373C265.544 248.223 264.392 248.7 263.191 248.7H206.901C205.7 248.7 204.548 248.223 203.699 247.373C202.849 246.524 202.372 245.372 202.372 244.17V232.806C202.372 231.605 202.849 230.453 203.699 229.604C204.548 228.754 205.7 228.277 206.901 228.277H263.191C264.392 228.277 265.544 228.754 266.393 229.604C267.243 230.453 267.72 231.605 267.72 232.806ZM233.197 210.997C233.161 210.996 233.124 210.995 233.088 210.991C231.279 210.805 229.495 210.43 227.764 209.872C227.631 209.829 227.507 209.76 227.4 209.669C227.293 209.577 227.205 209.466 227.142 209.341C227.078 209.216 227.039 209.08 227.028 208.94C227.017 208.8 227.033 208.66 227.077 208.526C227.12 208.392 227.189 208.269 227.28 208.162C227.371 208.055 227.482 207.967 227.607 207.904C227.732 207.84 227.869 207.801 228.008 207.79C228.148 207.779 228.289 207.795 228.423 207.839C230.005 208.35 231.647 208.694 233.305 208.864C233.575 208.896 233.822 209.028 233.997 209.236C234.172 209.443 234.262 209.709 234.249 209.98C234.235 210.251 234.119 210.507 233.924 210.696C233.729 210.884 233.468 210.992 233.197 210.997ZM238.41 210.99C238.137 210.988 237.875 210.883 237.678 210.694C237.481 210.506 237.363 210.249 237.349 209.976C237.335 209.704 237.425 209.436 237.602 209.228C237.779 209.021 238.028 208.888 238.3 208.858C239.957 208.684 241.599 208.335 243.18 207.819C243.45 207.731 243.743 207.754 243.996 207.883C244.249 208.011 244.44 208.235 244.528 208.505C244.616 208.774 244.593 209.068 244.465 209.321C244.336 209.573 244.112 209.765 243.843 209.853C242.117 210.414 240.328 210.796 238.523 210.984C238.485 210.988 238.448 210.99 238.41 210.99ZM223.325 207.809C223.138 207.809 222.954 207.759 222.792 207.665C221.218 206.757 219.743 205.687 218.391 204.473C218.286 204.379 218.201 204.266 218.14 204.139C218.08 204.013 218.045 203.875 218.037 203.735C218.029 203.595 218.049 203.455 218.096 203.322C218.143 203.19 218.215 203.068 218.309 202.963C218.403 202.859 218.516 202.774 218.643 202.713C218.769 202.652 218.907 202.617 219.047 202.61C219.187 202.602 219.327 202.622 219.46 202.669C219.592 202.715 219.714 202.788 219.819 202.881C221.061 203.996 222.416 204.979 223.861 205.814C224.065 205.931 224.224 206.113 224.314 206.331C224.404 206.548 224.42 206.789 224.359 207.017C224.298 207.244 224.163 207.445 223.977 207.588C223.79 207.731 223.561 207.809 223.325 207.809ZM248.274 207.778C248.038 207.779 247.809 207.702 247.622 207.559C247.434 207.416 247.3 207.215 247.238 206.987C247.177 206.76 247.193 206.518 247.283 206.301C247.373 206.083 247.533 205.901 247.737 205.784C249.18 204.948 250.532 203.963 251.771 202.846C251.982 202.656 252.259 202.558 252.542 202.572C252.826 202.587 253.091 202.713 253.281 202.924C253.471 203.135 253.57 203.412 253.555 203.696C253.541 203.979 253.414 204.245 253.203 204.435C251.854 205.651 250.381 206.724 248.809 207.634C248.646 207.729 248.462 207.778 248.274 207.778ZM215.607 200.877C215.438 200.877 215.272 200.838 215.122 200.761C214.972 200.685 214.842 200.575 214.743 200.439C213.671 198.971 212.755 197.396 212.012 195.738C211.954 195.61 211.922 195.472 211.918 195.331C211.914 195.191 211.938 195.051 211.988 194.92C212.037 194.789 212.113 194.669 212.209 194.567C212.305 194.465 212.421 194.383 212.549 194.325C212.677 194.268 212.815 194.236 212.955 194.232C213.095 194.228 213.235 194.251 213.366 194.301C213.498 194.351 213.618 194.426 213.72 194.523C213.822 194.619 213.904 194.734 213.961 194.862C214.645 196.384 215.485 197.83 216.469 199.177C216.586 199.336 216.656 199.525 216.672 199.722C216.688 199.918 216.649 200.116 216.56 200.292C216.47 200.468 216.334 200.615 216.166 200.719C215.998 200.822 215.804 200.877 215.607 200.877ZM255.978 200.834C255.78 200.834 255.587 200.78 255.418 200.677C255.25 200.573 255.114 200.426 255.024 200.25C254.935 200.074 254.896 199.876 254.912 199.68C254.928 199.483 254.998 199.295 255.115 199.135C256.098 197.787 256.936 196.34 257.616 194.816C257.674 194.688 257.755 194.573 257.857 194.476C257.959 194.379 258.079 194.304 258.21 194.254C258.341 194.203 258.481 194.179 258.621 194.183C258.761 194.187 258.899 194.218 259.028 194.275C259.156 194.333 259.271 194.414 259.368 194.516C259.465 194.618 259.54 194.738 259.59 194.869C259.641 195 259.665 195.14 259.661 195.28C259.657 195.42 259.626 195.558 259.569 195.687C258.827 197.347 257.914 198.925 256.842 200.395C256.743 200.531 256.613 200.642 256.463 200.718C256.313 200.795 256.146 200.834 255.978 200.834ZM211.366 191.413C211.121 191.412 210.884 191.328 210.695 191.174C210.505 191.02 210.373 190.806 210.322 190.567C209.944 188.789 209.752 186.977 209.749 185.16C209.749 185.019 209.777 184.88 209.83 184.75C209.884 184.621 209.963 184.503 210.062 184.403C210.161 184.304 210.279 184.225 210.408 184.171C210.538 184.117 210.677 184.09 210.817 184.089C210.958 184.089 211.097 184.117 211.227 184.17C211.356 184.224 211.474 184.303 211.574 184.402C211.673 184.501 211.752 184.619 211.806 184.748C211.86 184.878 211.887 185.017 211.888 185.157C211.889 186.825 212.065 188.489 212.412 190.12C212.446 190.276 212.444 190.437 212.407 190.592C212.37 190.747 212.299 190.892 212.199 191.016C212.098 191.14 211.972 191.24 211.828 191.309C211.684 191.377 211.526 191.413 211.367 191.413H211.366ZM260.206 191.361C260.046 191.361 259.889 191.326 259.745 191.258C259.601 191.189 259.474 191.09 259.374 190.966C259.274 190.842 259.202 190.698 259.165 190.543C259.127 190.388 259.125 190.227 259.158 190.071C259.502 188.447 259.677 186.777 259.677 185.106C259.677 184.516 260.154 183.987 260.746 183.987C261.337 183.987 261.815 184.413 261.815 185.005V185.106C261.815 186.927 261.624 188.745 261.251 190.513C261.201 190.753 261.069 190.968 260.879 191.123C260.688 191.277 260.451 191.361 260.206 191.361ZM211.348 181.04C211.189 181.041 211.031 181.005 210.888 180.937C210.744 180.869 210.617 180.769 210.517 180.646C210.417 180.523 210.345 180.378 210.307 180.224C210.27 180.069 210.267 179.908 210.3 179.752C210.673 177.972 211.232 176.236 211.969 174.573C212.023 174.441 212.104 174.322 212.205 174.221C212.307 174.121 212.427 174.042 212.559 173.989C212.692 173.937 212.833 173.911 212.976 173.913C213.118 173.916 213.259 173.947 213.389 174.005C213.52 174.063 213.637 174.146 213.735 174.25C213.833 174.353 213.909 174.476 213.958 174.609C214.008 174.743 214.03 174.885 214.024 175.028C214.018 175.17 213.984 175.31 213.923 175.439C213.248 176.965 212.735 178.557 212.392 180.191C212.342 180.431 212.211 180.646 212.02 180.801C211.83 180.955 211.593 181.04 211.348 181.04ZM260.184 180.89C259.94 180.89 259.703 180.806 259.513 180.653C259.323 180.5 259.192 180.286 259.14 180.047C258.786 178.417 258.262 176.828 257.577 175.307C257.519 175.179 257.487 175.041 257.483 174.901C257.478 174.761 257.502 174.621 257.551 174.49C257.601 174.358 257.676 174.238 257.772 174.136C257.868 174.034 257.984 173.951 258.111 173.894C258.239 173.835 258.377 173.803 258.518 173.798C258.658 173.794 258.798 173.817 258.929 173.867C259.061 173.916 259.181 173.992 259.283 174.088C259.385 174.184 259.468 174.3 259.525 174.428C260.272 176.086 260.844 177.817 261.23 179.594C261.264 179.75 261.262 179.912 261.225 180.067C261.189 180.223 261.117 180.368 261.017 180.492C260.917 180.616 260.79 180.717 260.646 180.785C260.502 180.854 260.344 180.89 260.184 180.89ZM215.547 171.557C215.35 171.557 215.157 171.502 214.989 171.399C214.821 171.296 214.685 171.149 214.595 170.973C214.506 170.798 214.466 170.601 214.482 170.405C214.497 170.208 214.566 170.02 214.682 169.86C215.749 168.389 216.965 167.032 218.313 165.813C218.416 165.718 218.538 165.645 218.67 165.598C218.802 165.551 218.943 165.53 219.083 165.537C219.223 165.544 219.361 165.578 219.487 165.639C219.614 165.699 219.728 165.783 219.822 165.888C219.916 165.992 219.989 166.113 220.036 166.245C220.084 166.378 220.105 166.518 220.098 166.658C220.091 166.798 220.056 166.936 219.996 167.062C219.936 167.189 219.851 167.303 219.747 167.397C218.51 168.518 217.393 169.763 216.413 171.114C216.314 171.251 216.184 171.363 216.033 171.44C215.883 171.517 215.716 171.557 215.547 171.557ZM255.92 171.435C255.592 171.435 255.267 171.284 255.057 170.999C254.07 169.654 252.945 168.415 251.701 167.303C251.597 167.21 251.512 167.096 251.451 166.97C251.39 166.844 251.355 166.706 251.347 166.566C251.339 166.426 251.359 166.286 251.405 166.154C251.451 166.021 251.523 165.899 251.617 165.795C251.71 165.69 251.824 165.605 251.95 165.544C252.076 165.483 252.214 165.448 252.354 165.44C252.494 165.432 252.634 165.452 252.766 165.498C252.899 165.545 253.021 165.617 253.125 165.71C254.481 166.92 255.706 168.269 256.782 169.733C256.898 169.892 256.968 170.081 256.984 170.278C257 170.475 256.962 170.672 256.873 170.848C256.783 171.024 256.647 171.173 256.479 171.276C256.311 171.38 256.117 171.435 255.92 171.435ZM223.239 164.595C223.003 164.597 222.773 164.521 222.585 164.378C222.397 164.235 222.262 164.035 222.2 163.807C222.139 163.579 222.154 163.337 222.245 163.119C222.335 162.902 222.495 162.72 222.7 162.602C224.271 161.688 225.935 160.941 227.663 160.375C227.93 160.293 228.219 160.32 228.467 160.449C228.715 160.578 228.902 160.799 228.989 161.064C229.076 161.33 229.056 161.619 228.933 161.87C228.809 162.121 228.592 162.313 228.329 162.406C226.743 162.926 225.217 163.611 223.774 164.45C223.612 164.545 223.427 164.595 223.239 164.595ZM248.183 164.524C247.997 164.524 247.814 164.475 247.653 164.382C246.205 163.553 244.674 162.877 243.086 162.365C242.951 162.323 242.826 162.255 242.718 162.164C242.61 162.073 242.521 161.962 242.456 161.837C242.391 161.712 242.352 161.575 242.34 161.434C242.328 161.294 242.344 161.152 242.387 161.018C242.43 160.883 242.5 160.759 242.591 160.652C242.683 160.544 242.795 160.456 242.92 160.392C243.046 160.328 243.183 160.29 243.324 160.279C243.465 160.268 243.606 160.285 243.74 160.33C245.471 160.887 247.138 161.623 248.715 162.528C248.921 162.644 249.083 162.825 249.174 163.043C249.266 163.261 249.283 163.503 249.222 163.732C249.161 163.96 249.026 164.162 248.838 164.305C248.65 164.448 248.419 164.525 248.183 164.524ZM233.092 161.366C232.819 161.365 232.557 161.259 232.359 161.071C232.161 160.883 232.043 160.626 232.028 160.353C232.014 160.081 232.104 159.813 232.281 159.604C232.458 159.396 232.707 159.264 232.979 159.234C234.785 159.044 236.607 159.039 238.414 159.219C238.696 159.247 238.955 159.387 239.135 159.606C239.314 159.826 239.399 160.107 239.371 160.39C239.342 160.672 239.203 160.931 238.984 161.11C238.764 161.29 238.482 161.375 238.2 161.346C236.54 161.179 234.867 161.183 233.208 161.359C233.169 161.363 233.131 161.366 233.092 161.366Z" fill="white"/>
<path d="M504.219 128.482V153.991H272.647C272.12 153.991 271.599 153.875 271.122 153.651C270.645 153.427 270.223 153.1 269.887 152.694L260.212 141.031C259.875 140.625 259.454 140.298 258.977 140.074C258.499 139.85 257.979 139.733 257.452 139.733H224.114C223.643 139.733 223.177 139.826 222.742 140.006C222.307 140.186 221.911 140.451 221.578 140.784C221.245 141.117 220.981 141.512 220.801 141.947C220.621 142.382 220.528 142.849 220.528 143.32V150.406C220.528 151.356 220.151 152.268 219.478 152.941C218.806 153.613 217.894 153.991 216.943 153.991H186.03V128.483C186.03 119.302 193.472 111.86 202.653 111.86H487.596C496.777 111.86 504.22 119.302 504.22 128.483L504.219 128.482Z" fill="url(#paint6_linear_49_494)"/>
<path d="M486.562 134.107C486.562 135.148 486.357 136.178 485.959 137.14C485.56 138.101 484.977 138.975 484.241 139.711C483.505 140.447 482.631 141.031 481.67 141.429C480.708 141.828 479.677 142.033 478.637 142.033H325.735C323.633 142.033 321.617 141.198 320.131 139.711C318.644 138.225 317.809 136.209 317.809 134.107C317.809 132.005 318.644 129.989 320.131 128.503C321.617 127.017 323.633 126.182 325.735 126.182H478.637C479.677 126.182 480.708 126.387 481.67 126.785C482.631 127.184 483.505 127.767 484.241 128.503C484.977 129.239 485.56 130.113 485.959 131.075C486.357 132.036 486.562 133.067 486.562 134.108V134.107Z" fill="url(#paint7_linear_49_494)"/>
<path d="M478.637 126.182H470.885V142.033H478.635C480.722 142.009 482.714 141.163 484.18 139.679C485.647 138.196 486.469 136.193 486.469 134.107C486.469 132.021 485.647 130.019 484.18 128.535C482.714 127.052 480.722 126.206 478.635 126.182H478.637Z" fill="url(#paint8_linear_49_494)"/>
<path d="M477.472 136.548C476.686 136.548 475.901 136.249 475.302 135.65C474.106 134.454 474.106 132.507 475.302 131.31C476.498 130.113 478.447 130.113 479.642 131.31C480.837 132.507 480.84 134.453 479.642 135.65C479.045 136.249 478.259 136.548 477.472 136.548ZM477.472 131.481C476.96 131.481 476.448 131.676 476.058 132.066C475.778 132.346 475.587 132.702 475.509 133.09C475.432 133.479 475.472 133.881 475.623 134.247C475.774 134.613 476.031 134.926 476.36 135.146C476.689 135.366 477.076 135.483 477.472 135.483C477.868 135.483 478.255 135.366 478.584 135.146C478.913 134.926 479.17 134.613 479.321 134.247C479.473 133.881 479.512 133.479 479.435 133.09C479.357 132.702 479.167 132.346 478.886 132.066C478.701 131.88 478.48 131.733 478.238 131.632C477.995 131.532 477.735 131.48 477.472 131.481Z" fill="white"/>
<path d="M481.258 137.799C481.187 137.799 481.118 137.786 481.053 137.759C480.988 137.732 480.929 137.693 480.879 137.643L478.887 135.651C478.836 135.602 478.796 135.543 478.768 135.478C478.74 135.413 478.725 135.343 478.724 135.272C478.724 135.201 478.737 135.13 478.764 135.065C478.791 134.999 478.831 134.939 478.881 134.889C478.931 134.839 478.991 134.799 479.056 134.772C479.122 134.745 479.193 134.732 479.263 134.732C479.334 134.733 479.405 134.748 479.47 134.776C479.535 134.804 479.594 134.845 479.643 134.896L481.635 136.887C481.709 136.962 481.76 137.057 481.781 137.161C481.801 137.264 481.791 137.372 481.75 137.469C481.71 137.567 481.642 137.65 481.554 137.709C481.466 137.768 481.363 137.799 481.258 137.799Z" fill="white"/>
<path d="M555.692 183.347C555.55 183.347 555.414 183.291 555.314 183.191C555.214 183.091 555.158 182.955 555.158 182.813V174.043C555.158 169.007 551.06 164.909 546.024 164.909H535.714C535.572 164.909 535.436 164.853 535.336 164.753C535.235 164.653 535.179 164.517 535.179 164.375C535.179 164.233 535.235 164.097 535.336 163.997C535.436 163.897 535.572 163.84 535.714 163.84H546.024C551.649 163.84 556.227 168.417 556.227 174.043V182.813C556.227 182.955 556.17 183.091 556.07 183.191C555.97 183.291 555.834 183.347 555.692 183.347Z" fill="url(#paint9_linear_49_494)"/>
<path d="M546.023 230.627H535.714C535.572 230.627 535.436 230.57 535.336 230.47C535.235 230.37 535.179 230.234 535.179 230.092C535.179 229.95 535.235 229.814 535.336 229.714C535.436 229.614 535.572 229.557 535.714 229.557H546.024C551.059 229.557 555.158 225.46 555.158 220.423V211.654C555.158 211.512 555.214 211.376 555.314 211.276C555.414 211.176 555.55 211.119 555.692 211.119C555.834 211.119 555.97 211.176 556.07 211.276C556.17 211.376 556.227 211.512 556.227 211.654V220.423C556.227 226.05 551.648 230.627 546.023 230.627Z" fill="url(#paint10_linear_49_494)"/>
<path d="M447.792 230.627H437.482C431.857 230.627 427.279 226.051 427.279 220.423V211.654C427.279 211.512 427.335 211.376 427.435 211.276C427.536 211.176 427.672 211.119 427.813 211.119C427.955 211.119 428.091 211.176 428.191 211.276C428.292 211.376 428.348 211.512 428.348 211.654V220.423C428.348 225.46 432.446 229.557 437.482 229.557H447.792C447.934 229.557 448.07 229.614 448.17 229.714C448.27 229.814 448.327 229.95 448.327 230.092C448.327 230.234 448.27 230.37 448.17 230.47C448.07 230.57 447.934 230.627 447.792 230.627Z" fill="url(#paint11_linear_49_494)"/>
<path d="M427.813 183.347C427.672 183.347 427.536 183.291 427.435 183.191C427.335 183.091 427.279 182.955 427.279 182.813V174.043C427.279 168.417 431.857 163.84 437.482 163.84H447.792C447.934 163.84 448.07 163.897 448.17 163.997C448.27 164.097 448.327 164.233 448.327 164.375C448.327 164.517 448.27 164.653 448.17 164.753C448.07 164.853 447.934 164.909 447.792 164.909H437.482C432.447 164.909 428.348 169.007 428.348 174.043V182.813C428.348 182.955 428.292 183.091 428.191 183.191C428.091 183.291 427.955 183.347 427.813 183.347Z" fill="url(#paint12_linear_49_494)"/>
<path d="M550.038 174.044V220.422C550.038 221.487 549.615 222.509 548.862 223.262C548.109 224.015 547.088 224.438 546.023 224.438H437.483C436.418 224.438 435.397 224.015 434.644 223.262C433.891 222.509 433.468 221.487 433.468 220.422V174.042C433.468 172.977 433.891 171.956 434.644 171.203C435.397 170.45 436.418 170.027 437.483 170.027H546.023C547.088 170.027 548.109 170.45 548.862 171.203C549.615 171.956 550.038 172.977 550.038 174.042V174.044Z" fill="url(#paint13_linear_49_494)"/>
<path d="M521.819 186.272V192.282C521.819 192.447 521.786 192.611 521.723 192.765C521.66 192.918 521.567 193.057 521.45 193.174C521.332 193.292 521.193 193.385 521.04 193.448C520.887 193.511 520.723 193.544 520.557 193.544H494.029C493.694 193.544 493.373 193.411 493.137 193.175C492.9 192.938 492.767 192.617 492.767 192.283V186.272C492.767 185.575 493.332 185.011 494.029 185.011H520.556C521.253 185.011 521.818 185.575 521.818 186.272H521.819ZM527.297 208.908V209.314C527.297 209.648 527.164 209.969 526.927 210.206C526.691 210.442 526.37 210.575 526.035 210.575H494.029C493.694 210.575 493.373 210.442 493.137 210.206C492.9 209.969 492.767 209.648 492.767 209.314V208.908C492.767 208.211 493.332 207.646 494.029 207.646H526.035C526.732 207.646 527.297 208.211 527.297 208.908ZM539.464 202.028V202.434C539.464 202.6 539.431 202.764 539.368 202.918C539.305 203.071 539.212 203.21 539.094 203.327C538.977 203.444 538.838 203.537 538.685 203.601C538.532 203.664 538.368 203.697 538.202 203.697H494.029C493.694 203.697 493.373 203.564 493.137 203.328C492.9 203.091 492.767 202.77 492.767 202.435V202.029C492.767 201.331 493.332 200.767 494.029 200.767H538.202C538.899 200.767 539.464 201.331 539.464 202.028Z" fill="white"/>
<path d="M483.643 197.1V197.234C483.643 197.435 483.643 197.617 483.635 197.809C483.511 202.885 481.432 207.718 477.833 211.3L472.374 205.832C474.501 203.736 475.841 200.824 475.936 197.579V197.234C475.936 190.684 470.698 185.323 464.187 185.141C464.073 185.131 463.959 185.131 463.844 185.131C460.493 185.131 457.448 186.5 455.255 188.712C453.006 190.978 451.742 194.041 451.741 197.234C451.741 203.908 457.17 209.327 463.843 209.327V217.035H463.833C452.91 217.035 444.043 208.159 444.043 197.234C444.043 191.795 446.245 186.855 449.806 183.274C453.398 179.664 458.357 177.424 463.833 177.424H463.844C463.959 177.424 464.073 177.424 464.188 177.434C474.903 177.625 483.577 186.357 483.644 197.1H483.643Z" fill="white"/>
<path d="M477.831 211.297C474.261 214.853 469.322 217.038 463.838 217.038V209.33C467.181 209.33 470.194 208.001 472.373 205.831L477.831 211.297Z" fill="url(#paint14_linear_49_494)"/>
<path d="M224.515 192.545C224.515 206.325 213.32 217.496 199.54 217.496C185.759 217.496 174.588 206.325 174.588 192.545C174.588 178.764 185.759 167.593 199.54 167.593C213.32 167.593 224.515 178.764 224.515 192.545Z" fill="url(#paint15_linear_49_494)"/>
<path d="M218.357 192.541C218.357 196.959 216.838 201.027 214.267 204.253C210.807 208.577 205.501 211.36 199.54 211.36C193.579 211.36 188.272 208.577 184.813 204.253C182.174 200.92 180.74 196.792 180.745 192.541C180.745 182.161 189.16 173.746 199.539 173.746C209.919 173.746 218.357 182.162 218.357 192.54V192.541Z" fill="url(#paint16_linear_49_494)"/>
<path d="M199.539 211.36C207.673 211.36 214.267 208.178 214.267 204.253C214.267 200.328 207.673 197.146 199.539 197.146C191.406 197.146 184.812 200.328 184.812 204.253C184.812 208.178 191.406 211.36 199.539 211.36Z" fill="white"/>
<path d="M206.622 191.828C206.622 195.732 203.467 198.912 199.562 198.912C198.632 198.912 197.711 198.73 196.851 198.374C195.991 198.018 195.21 197.496 194.553 196.838C193.895 196.18 193.373 195.399 193.018 194.54C192.662 193.68 192.479 192.759 192.48 191.828C192.479 190.898 192.662 189.977 193.018 189.117C193.374 188.258 193.895 187.477 194.553 186.819C195.211 186.161 195.992 185.639 196.851 185.284C197.711 184.928 198.632 184.745 199.562 184.746C203.467 184.746 206.622 187.924 206.622 191.828Z" fill="white"/>
<path d="M483.643 243.845V331.937C483.643 332.614 483.51 333.285 483.25 333.911C482.991 334.537 482.611 335.106 482.132 335.585C481.653 336.065 481.085 336.445 480.459 336.704C479.833 336.963 479.162 337.097 478.484 337.097H312.134C311.456 337.097 310.785 336.964 310.159 336.704C309.533 336.445 308.964 336.065 308.485 335.586C308.006 335.107 307.626 334.538 307.367 333.912C307.108 333.285 306.974 332.614 306.974 331.937V243.847C306.974 242.478 307.518 241.166 308.486 240.198C309.453 239.231 310.765 238.687 312.134 238.687H478.484C479.853 238.687 481.165 239.231 482.133 240.198C483.1 241.166 483.644 242.478 483.644 243.847L483.643 243.845Z" fill="white"/>
<path d="M404.992 251.053V298.287C404.992 299.392 404.554 300.451 403.773 301.232C402.991 302.013 401.932 302.452 400.827 302.452H318.805C317.701 302.452 316.641 302.013 315.861 301.232C315.08 300.451 314.641 299.392 314.641 298.287V251.053C314.641 249.949 315.08 248.89 315.861 248.109C316.642 247.328 317.701 246.889 318.805 246.889H400.826C401.931 246.889 402.99 247.328 403.77 248.109C404.551 248.89 404.99 249.949 404.99 251.053H404.992Z" fill="url(#paint17_linear_49_494)" fill-opacity="0.48"/>
<path d="M475.978 251.509V253.959C475.977 254.077 475.954 254.193 475.909 254.302C475.864 254.411 475.798 254.51 475.714 254.593C475.631 254.676 475.532 254.742 475.423 254.787C475.314 254.832 475.197 254.855 475.08 254.855H415.221C414.983 254.854 414.756 254.76 414.588 254.592C414.42 254.424 414.325 254.196 414.325 253.959V251.509C414.325 251.012 414.726 250.612 415.221 250.612H475.081C475.576 250.612 475.977 251.012 475.977 251.509H475.978Z" fill="url(#paint18_linear_49_494)" fill-opacity="0.48"/>
<path d="M475.978 261.059V263.51C475.978 263.628 475.954 263.744 475.909 263.853C475.864 263.962 475.798 264.061 475.715 264.144C475.631 264.228 475.532 264.294 475.423 264.339C475.314 264.384 475.197 264.407 475.08 264.407H415.221C414.983 264.406 414.755 264.312 414.587 264.144C414.419 263.975 414.325 263.747 414.325 263.51V261.059C414.325 260.565 414.726 260.164 415.221 260.164H475.081C475.576 260.164 475.977 260.565 475.977 261.059H475.978Z" fill="url(#paint19_linear_49_494)"/>
<path d="M445.151 270.611V273.062C445.151 273.18 445.128 273.296 445.083 273.405C445.038 273.514 444.972 273.613 444.888 273.696C444.805 273.78 444.706 273.846 444.597 273.891C444.488 273.936 444.371 273.959 444.253 273.959H415.221C415.103 273.959 414.986 273.935 414.878 273.89C414.769 273.845 414.67 273.779 414.587 273.695C414.504 273.612 414.438 273.513 414.393 273.404C414.348 273.295 414.325 273.179 414.325 273.061V270.611C414.325 270.117 414.726 269.715 415.221 269.715H444.254C444.749 269.715 445.151 270.117 445.151 270.611Z" fill="url(#paint20_linear_49_494)"/>
<path d="M475.978 280.162V282.613C475.978 282.731 475.955 282.847 475.91 282.956C475.864 283.066 475.798 283.165 475.715 283.248C475.631 283.331 475.532 283.398 475.423 283.443C475.314 283.488 475.198 283.511 475.08 283.511H415.221C415.103 283.511 414.986 283.487 414.878 283.442C414.769 283.397 414.67 283.331 414.587 283.247C414.504 283.164 414.438 283.065 414.393 282.956C414.348 282.847 414.325 282.73 414.325 282.613V280.162C414.325 279.667 414.726 279.267 415.221 279.267H475.081C475.576 279.267 475.977 279.667 475.977 280.162H475.978Z" fill="url(#paint21_linear_49_494)"/>
<path d="M448.276 288.818H415.221C414.983 288.818 414.755 288.913 414.587 289.081C414.419 289.249 414.325 289.477 414.325 289.715V292.165C414.325 292.66 414.726 293.062 415.221 293.062H448.276C448.514 293.061 448.742 292.967 448.91 292.799C449.078 292.63 449.172 292.403 449.172 292.165V289.715C449.172 289.477 449.078 289.249 448.91 289.081C448.742 288.913 448.514 288.818 448.276 288.818Z" fill="url(#paint22_linear_49_494)"/>
<path d="M460.637 289.715V292.165C460.637 292.66 461.039 293.062 461.535 293.062H470.325C470.563 293.062 470.791 292.967 470.959 292.799C471.127 292.631 471.222 292.403 471.222 292.165V289.715C471.222 289.597 471.198 289.48 471.153 289.371C471.108 289.262 471.042 289.163 470.959 289.08C470.875 288.997 470.776 288.931 470.667 288.886C470.558 288.841 470.442 288.817 470.324 288.818H461.534C461.296 288.818 461.068 288.912 460.9 289.08C460.731 289.249 460.637 289.477 460.637 289.715Z" fill="url(#paint23_linear_49_494)"/>
<path d="M409.875 311.432V326.998C409.875 327.99 409.071 328.794 408.079 328.794H386.359C385.882 328.794 385.425 328.605 385.088 328.268C384.751 327.931 384.562 327.474 384.562 326.998V311.432C384.562 310.44 385.366 309.635 386.358 309.635H408.078C409.071 309.635 409.875 310.44 409.875 311.432Z" fill="url(#paint24_linear_49_494)"/>
<path d="M400.079 319.895L395.356 323.38C395.23 323.473 395.082 323.528 394.927 323.541C394.772 323.554 394.616 323.524 394.477 323.454C394.338 323.384 394.222 323.277 394.14 323.144C394.058 323.012 394.015 322.859 394.015 322.703V315.726C394.015 315.57 394.058 315.417 394.14 315.284C394.221 315.152 394.338 315.044 394.477 314.974C394.617 314.904 394.772 314.874 394.928 314.887C395.083 314.9 395.231 314.956 395.357 315.049L400.08 318.542C400.186 318.62 400.272 318.722 400.331 318.839C400.39 318.957 400.421 319.087 400.421 319.218C400.421 319.35 400.39 319.48 400.331 319.597C400.272 319.715 400.186 319.817 400.08 319.895H400.079Z" fill="white"/>
<path d="M442.395 311.432V326.998C442.395 327.99 441.59 328.794 440.597 328.794H418.879C418.403 328.794 417.946 328.605 417.609 328.268C417.272 327.931 417.082 327.474 417.082 326.998V311.432C417.082 310.44 417.886 309.635 418.878 309.635H440.598C441.591 309.635 442.396 310.44 442.396 311.432H442.395Z" fill="url(#paint25_linear_49_494)"/>
<path d="M432.599 319.895L427.875 323.38C427.75 323.473 427.601 323.528 427.446 323.541C427.291 323.554 427.136 323.524 426.997 323.454C426.858 323.384 426.741 323.277 426.659 323.144C426.578 323.012 426.535 322.859 426.535 322.703V315.726C426.534 315.57 426.578 315.417 426.659 315.284C426.741 315.152 426.858 315.044 426.997 314.974C427.136 314.904 427.292 314.874 427.447 314.887C427.602 314.9 427.751 314.956 427.876 315.049L432.599 318.542C432.705 318.62 432.791 318.722 432.851 318.839C432.91 318.957 432.941 319.087 432.941 319.218C432.941 319.35 432.91 319.48 432.851 319.597C432.791 319.715 432.705 319.817 432.599 319.895Z" fill="white"/>
<path d="M474.915 311.432V326.998C474.915 327.99 474.11 328.794 473.118 328.794H451.398C450.921 328.794 450.464 328.605 450.127 328.268C449.79 327.931 449.601 327.474 449.601 326.998V311.432C449.601 310.44 450.406 309.635 451.398 309.635H473.118C474.11 309.635 474.915 310.44 474.915 311.432Z" fill="url(#paint26_linear_49_494)"/>
<path d="M465.119 319.895L460.395 323.38C460.27 323.473 460.122 323.528 459.967 323.541C459.811 323.554 459.656 323.524 459.517 323.454C459.378 323.384 459.261 323.277 459.18 323.144C459.098 323.012 459.055 322.859 459.055 322.703V315.726C459.055 315.57 459.098 315.417 459.18 315.284C459.261 315.152 459.378 315.044 459.517 314.974C459.656 314.904 459.812 314.874 459.967 314.887C460.123 314.9 460.271 314.956 460.396 315.049L465.119 318.542C465.225 318.62 465.311 318.722 465.371 318.839C465.43 318.957 465.461 319.087 465.461 319.218C465.461 319.35 465.43 319.48 465.371 319.597C465.311 319.715 465.225 319.817 465.119 319.895Z" fill="white"/>
<path d="M370.44 312.002C370.44 312.63 370.191 313.232 369.747 313.675C369.304 314.119 368.702 314.369 368.074 314.369H317.005C316.378 314.369 315.776 314.12 315.332 313.676C314.888 313.232 314.639 312.63 314.639 312.002C314.639 311.374 314.888 310.772 315.332 310.329C315.776 309.885 316.378 309.635 317.005 309.635H368.074C369.382 309.635 370.44 310.695 370.44 312.002Z" fill="url(#paint27_linear_49_494)"/>
<path d="M356.054 322.162C356.054 322.473 355.993 322.781 355.874 323.068C355.755 323.355 355.58 323.616 355.361 323.836C355.141 324.056 354.879 324.231 354.592 324.35C354.305 324.468 353.997 324.53 353.686 324.529H317.006C316.379 324.529 315.777 324.28 315.333 323.836C314.889 323.392 314.64 322.79 314.64 322.163C314.64 321.535 314.889 320.933 315.333 320.489C315.777 320.045 316.379 319.796 317.006 319.796H353.686C354.993 319.796 356.054 320.854 356.054 322.162Z" fill="url(#paint28_linear_49_494)"/>
<path d="M375.503 267.033C375.503 274.992 369.049 281.457 361.079 281.457C353.12 281.457 346.666 274.992 346.666 267.033C346.666 259.074 353.12 252.619 361.079 252.619C369.049 252.619 375.503 259.074 375.503 267.033Z" fill="white"/>
<path d="M366.587 268.289L360.421 273.27C359.369 274.119 357.803 273.371 357.803 272.019V262.058C357.803 260.707 359.369 259.958 360.421 260.807L366.587 265.788C366.774 265.939 366.924 266.129 367.028 266.346C367.131 266.562 367.185 266.799 367.185 267.039C367.185 267.279 367.131 267.515 367.028 267.732C366.924 267.948 366.774 268.139 366.587 268.289Z" fill="url(#paint29_linear_49_494)"/>
<path d="M329.305 293.073L324.465 296.982C323.64 297.649 322.411 297.061 322.411 296.001V288.184C322.411 287.123 323.64 286.536 324.465 287.202L329.305 291.111C329.451 291.229 329.569 291.378 329.651 291.548C329.732 291.718 329.774 291.904 329.774 292.092C329.774 292.28 329.732 292.466 329.651 292.636C329.569 292.806 329.451 292.955 329.305 293.073ZM399.064 292.092C399.064 292.541 398.701 292.904 398.253 292.904H338.657C338.447 292.896 338.248 292.807 338.102 292.656C337.957 292.505 337.875 292.303 337.875 292.093C337.875 291.883 337.957 291.681 338.102 291.529C338.248 291.378 338.447 291.289 338.657 291.282H398.254C398.703 291.282 399.065 291.645 399.065 292.092H399.064Z" fill="white"/>
<path d="M350.849 290.873V293.311C350.854 293.484 350.824 293.657 350.761 293.818C350.698 293.98 350.604 294.127 350.483 294.252C350.362 294.376 350.217 294.475 350.057 294.542C349.898 294.61 349.726 294.645 349.553 294.645C349.379 294.645 349.208 294.61 349.048 294.542C348.888 294.475 348.743 294.376 348.623 294.252C348.502 294.127 348.407 293.98 348.344 293.818C348.281 293.657 348.251 293.484 348.256 293.311V290.873C348.251 290.7 348.281 290.527 348.344 290.366C348.407 290.204 348.502 290.057 348.623 289.932C348.743 289.808 348.888 289.709 349.048 289.642C349.208 289.574 349.379 289.539 349.553 289.539C349.726 289.539 349.898 289.574 350.057 289.642C350.217 289.709 350.362 289.808 350.483 289.932C350.604 290.057 350.698 290.204 350.761 290.366C350.824 290.527 350.854 290.7 350.849 290.873Z" fill="url(#paint30_linear_49_494)"/>
<path d="M320.405 191.952V217.38C320.405 218.502 319.494 219.413 318.371 219.413H309.446C308.907 219.413 308.39 219.199 308.008 218.818C307.627 218.436 307.412 217.919 307.412 217.38V191.952C307.412 190.83 308.323 189.918 309.446 189.918H318.371C319.494 189.918 320.405 190.829 320.405 191.952ZM341.996 178.013V217.38C341.996 218.502 341.085 219.413 339.963 219.413H331.036C330.497 219.413 329.98 219.199 329.599 218.817C329.217 218.436 329.003 217.919 329.003 217.38V178.012C329.003 176.889 329.914 175.978 331.037 175.978H339.963C341.085 175.978 341.996 176.89 341.996 178.013ZM363.588 198.234V217.38C363.588 218.502 362.677 219.413 361.553 219.413H352.628C352.361 219.413 352.096 219.361 351.849 219.259C351.603 219.157 351.378 219.007 351.189 218.818C351 218.629 350.85 218.405 350.748 218.158C350.646 217.911 350.593 217.647 350.593 217.38V198.234C350.593 197.112 351.504 196.2 352.628 196.2H361.553C362.676 196.2 363.587 197.111 363.587 198.234H363.588ZM385.178 182.391V217.38C385.178 218.502 384.268 219.413 383.144 219.413H374.218C373.679 219.413 373.162 219.199 372.781 218.818C372.399 218.436 372.185 217.919 372.185 217.38V182.39C372.185 181.267 373.095 180.356 374.218 180.356H383.145C384.268 180.356 385.178 181.267 385.178 182.391ZM406.769 205.323V217.38C406.769 218.502 405.858 219.413 404.735 219.413H395.809C395.27 219.413 394.753 219.199 394.372 218.817C393.99 218.436 393.776 217.919 393.776 217.38V205.323C393.776 204.201 394.687 203.29 395.809 203.29H404.736C405.858 203.29 406.769 204.201 406.769 205.323Z" fill="#C2D5FF"/>
<path d="M301.257 218.879H412.924V219.948H301.257V218.879Z" fill="#C2D5FF"/>
</g>
<defs>
<linearGradient id="paint0_linear_49_494" x1="360" y1="-32.6316" x2="363.478" y2="399.972" gradientUnits="userSpaceOnUse">
<stop stop-color="#FF87EC"/>
<stop offset="1" stop-color="#8218D5"/>
</linearGradient>
<linearGradient id="paint1_linear_49_494" x1="495.363" y1="54.9688" x2="491.705" y2="70.7712" gradientUnits="userSpaceOnUse">
<stop stop-color="#FF3AF7"/>
<stop offset="1" stop-color="#B450F1"/>
</linearGradient>
<linearGradient id="paint2_linear_49_494" x1="489.03" y1="55.8702" x2="533.447" y2="50.1045" gradientUnits="userSpaceOnUse">
<stop stop-color="#EE2CE6"/>
<stop offset="1" stop-color="#B450F1"/>
</linearGradient>
<linearGradient id="paint3_linear_49_494" x1="495.363" y1="46.7219" x2="494.723" y2="70.0387" gradientUnits="userSpaceOnUse">
<stop stop-color="#FF3AF7"/>
<stop offset="1" stop-color="#B450F1"/>
</linearGradient>
<linearGradient id="paint4_linear_49_494" x1="342.609" y1="387.544" x2="348.274" y2="41.2366" gradientUnits="userSpaceOnUse">
<stop stop-color="#F7F9FF"/>
<stop offset="1" stop-color="#F4F7FF"/>
</linearGradient>
<linearGradient id="paint5_linear_49_494" x1="271.894" y1="233.962" x2="113.764" y2="232.974" gradientUnits="userSpaceOnUse">
<stop stop-color="#9FB3FF"/>
<stop offset="1" stop-color="#294D9A"/>
</linearGradient>
<linearGradient id="paint6_linear_49_494" x1="345.213" y1="95.6344" x2="345.213" y2="198.009" gradientUnits="userSpaceOnUse">
<stop stop-color="#EEDDFF"/>
<stop offset="1" stop-color="#925CC9"/>
</linearGradient>
<linearGradient id="paint7_linear_49_494" x1="317.81" y1="134.108" x2="486.562" y2="134.108" gradientUnits="userSpaceOnUse">
<stop stop-color="#F6F8FF"/>
<stop offset="1" stop-color="#EBF1FF"/>
</linearGradient>
<linearGradient id="paint8_linear_49_494" x1="466.925" y1="134.025" x2="491.95" y2="134.025" gradientUnits="userSpaceOnUse">
<stop stop-color="#01D670"/>
<stop offset="1" stop-color="#E7FFF2"/>
</linearGradient>
<linearGradient id="paint9_linear_49_494" x1="535.179" y1="173.593" x2="556.227" y2="173.593" gradientUnits="userSpaceOnUse">
<stop stop-color="#E7ECFF"/>
<stop offset="1" stop-color="#C2D5FF"/>
</linearGradient>
<linearGradient id="paint10_linear_49_494" x1="535.179" y1="220.872" x2="556.227" y2="220.872" gradientUnits="userSpaceOnUse">
<stop stop-color="#E7ECFF"/>
<stop offset="1" stop-color="#C2D5FF"/>
</linearGradient>
<linearGradient id="paint11_linear_49_494" x1="448.325" y1="220.875" x2="427.278" y2="220.875" gradientUnits="userSpaceOnUse">
<stop stop-color="#E7ECFF"/>
<stop offset="1" stop-color="#C2D5FF"/>
</linearGradient>
<linearGradient id="paint12_linear_49_494" x1="448.327" y1="173.594" x2="427.279" y2="173.594" gradientUnits="userSpaceOnUse">
<stop stop-color="#E7ECFF"/>
<stop offset="1" stop-color="#C2D5FF"/>
</linearGradient>
<linearGradient id="paint13_linear_49_494" x1="491.753" y1="170.027" x2="491.753" y2="224.438" gradientUnits="userSpaceOnUse">
<stop stop-color="#E5E8FF"/>
<stop offset="0.0001" stop-color="#E9ECFF"/>
<stop offset="1" stop-color="#B8C8FF"/>
</linearGradient>
<linearGradient id="paint14_linear_49_494" x1="463.838" y1="211.435" x2="477.831" y2="211.435" gradientUnits="userSpaceOnUse">
<stop stop-color="#FFE5D0"/>
<stop offset="1" stop-color="#FF9638"/>
</linearGradient>
<linearGradient id="paint15_linear_49_494" x1="199.551" y1="167.593" x2="199.551" y2="217.496" gradientUnits="userSpaceOnUse">
<stop stop-color="#E5E8FF"/>
<stop offset="0.0001" stop-color="#E9ECFF"/>
<stop offset="1" stop-color="#B8C8FF"/>
</linearGradient>
<linearGradient id="paint16_linear_49_494" x1="180.745" y1="192.553" x2="218.357" y2="192.553" gradientUnits="userSpaceOnUse">
<stop stop-color="#FFD2AE"/>
<stop offset="1" stop-color="#FF9D45"/>
</linearGradient>
<linearGradient id="paint17_linear_49_494" x1="359.817" y1="246.889" x2="359.817" y2="302.452" gradientUnits="userSpaceOnUse">
<stop stop-color="#D0D5FF"/>
<stop offset="1" stop-color="#8BA4FF"/>
</linearGradient>
<linearGradient id="paint18_linear_49_494" x1="445.151" y1="250.612" x2="445.151" y2="254.855" gradientUnits="userSpaceOnUse">
<stop stop-color="#D0D5FF"/>
<stop offset="1" stop-color="#8BA4FF"/>
</linearGradient>
<linearGradient id="paint19_linear_49_494" x1="445.138" y1="259.998" x2="445.163" y2="264.572" gradientUnits="userSpaceOnUse">
<stop stop-color="#E7ECFF"/>
<stop offset="1" stop-color="#C2D5FF"/>
</linearGradient>
<linearGradient id="paint20_linear_49_494" x1="429.726" y1="269.634" x2="429.75" y2="274.038" gradientUnits="userSpaceOnUse">
<stop stop-color="#E7ECFF"/>
<stop offset="1" stop-color="#C2D5FF"/>
</linearGradient>
<linearGradient id="paint21_linear_49_494" x1="445.138" y1="279.101" x2="445.163" y2="283.675" gradientUnits="userSpaceOnUse">
<stop stop-color="#E7ECFF"/>
<stop offset="1" stop-color="#C2D5FF"/>
</linearGradient>
<linearGradient id="paint22_linear_49_494" x1="431.737" y1="288.727" x2="431.761" y2="293.338" gradientUnits="userSpaceOnUse">
<stop stop-color="#E7ECFF"/>
<stop offset="1" stop-color="#C2D5FF"/>
</linearGradient>
<linearGradient id="paint23_linear_49_494" x1="465.916" y1="288.438" x2="465.942" y2="293.085" gradientUnits="userSpaceOnUse">
<stop stop-color="#E7ECFF"/>
<stop offset="1" stop-color="#C2D5FF"/>
</linearGradient>
<linearGradient id="paint24_linear_49_494" x1="384.562" y1="319.215" x2="409.875" y2="319.215" gradientUnits="userSpaceOnUse">
<stop stop-color="#E7ECFF"/>
<stop offset="1" stop-color="#C2D5FF"/>
</linearGradient>
<linearGradient id="paint25_linear_49_494" x1="417.081" y1="319.215" x2="442.395" y2="319.215" gradientUnits="userSpaceOnUse">
<stop stop-color="#E7ECFF"/>
<stop offset="1" stop-color="#C2D5FF"/>
</linearGradient>
<linearGradient id="paint26_linear_49_494" x1="449.601" y1="319.215" x2="474.915" y2="319.215" gradientUnits="userSpaceOnUse">
<stop stop-color="#E7ECFF"/>
<stop offset="1" stop-color="#C2D5FF"/>
</linearGradient>
<linearGradient id="paint27_linear_49_494" x1="314.64" y1="312.002" x2="370.441" y2="312.002" gradientUnits="userSpaceOnUse">
<stop stop-color="#E7ECFF"/>
<stop offset="1" stop-color="#C2D5FF"/>
</linearGradient>
<linearGradient id="paint28_linear_49_494" x1="314.64" y1="322.162" x2="356.054" y2="322.162" gradientUnits="userSpaceOnUse">
<stop stop-color="#E7ECFF"/>
<stop offset="1" stop-color="#C2D5FF"/>
</linearGradient>
<linearGradient id="paint29_linear_49_494" x1="355.419" y1="266.97" x2="370.484" y2="266.97" gradientUnits="userSpaceOnUse">
<stop stop-color="#FC0B31"/>
<stop offset="1" stop-color="#FCC5CE"/>
</linearGradient>
<linearGradient id="paint30_linear_49_494" x1="347.96" y1="290.75" x2="351.145" y2="293.434" gradientUnits="userSpaceOnUse">
<stop stop-color="#B3B3FF"/>
<stop offset="1" stop-color="#C2D5FF"/>
</linearGradient>
<clipPath id="clip0_49_494">
<rect width="720" height="400" fill="white"/>
</clipPath>
</defs>
</svg>
