<svg width="720" height="400" viewBox="0 0 720 400" fill="none" xmlns="http://www.w3.org/2000/svg">
<g clip-path="url(#clip0_69_252)">
<rect width="720" height="400" fill="white"/>
<rect width="720" height="400" fill="url(#paint0_linear_69_252)"/>
<path opacity="0.16" d="M143.141 243.535C140.898 236.204 139.485 227.913 143.084 221.143C147.805 212.282 158.911 209.573 168.544 206.743C185.496 201.764 202.766 192.368 209.46 176.033C215.841 160.472 211.138 142.258 216.502 126.319C224.091 103.788 253.884 92.0743 274.783 103.409C281.004 106.783 286.581 111.853 293.566 112.975C305.35 114.866 315.374 105.118 324.15 97.0223C335.108 86.909 347.675 78.0783 362.006 73.9782C376.338 69.878 392.668 70.9868 404.957 79.4348C414.954 86.2915 421.848 97.5092 432.976 102.288C447.603 108.57 464.708 101.827 480.274 105.214C500.325 109.562 513.818 133.119 507.454 152.637C502.89 166.637 489.88 178.994 492.814 193.425C494.509 201.764 501.212 207.986 507.159 214.086C524.254 231.678 538.121 256.435 531.227 279.98C526.302 296.789 511.479 309.28 495.148 315.672C478.817 322.063 461.026 323.246 443.53 324.046C379.489 326.994 312.744 329.698 248.751 325.294C201.557 322.055 157.116 289.232 143.141 243.535Z" fill="#FAFAFA"/>
<path d="M504.855 232.645C510.897 221.772 517.558 212.344 520.548 199.98C521.723 195 522.403 189.873 524.216 185.097C526.029 180.321 529.229 175.771 533.934 173.758C539.218 171.484 545.542 172.732 550.752 170.296C554.128 168.725 556.628 165.799 559.444 163.367C565.627 158.03 573.422 155.005 581.05 152.078C592.87 147.55 605.481 142.94 617.907 145.524C624.978 147 631.371 150.764 637.351 154.797C641.134 157.378 644.92 160.226 646.97 164.383C648.2 166.734 648.571 169.441 648.019 172.036C646.53 178.402 639.495 180.178 633.791 178.988C628.997 177.97 624.711 175.302 620.201 173.464C615.69 171.625 610.331 170.583 605.941 172.823C599.691 176.035 597.462 184.857 590.788 187.072C587.074 188.305 582.688 187.148 579.328 189.151C574.151 192.243 575.219 200.031 577.512 205.576C579.805 211.12 582.597 217.842 579.095 222.745C573.01 231.284 556.909 222.806 549.856 230.6C545.772 235.124 547.092 243.089 542.426 247.027C535.97 252.472 525.546 244.872 517.845 248.342C514.687 249.766 512.631 252.8 510.463 255.501C508.295 258.202 505.503 260.876 502.037 261.03C501.759 261.044 501.499 261.057 501.242 261.017C501.086 261.008 500.935 260.964 500.798 260.889C500.661 260.814 500.543 260.71 500.452 260.583C500.361 260.456 500.299 260.311 500.271 260.158C500.243 260.004 500.25 259.847 500.291 259.696C500.477 259.035 500.687 258.39 500.921 257.749C502.296 254.166 504.259 250.838 506.731 247.902C509.197 244.985 511.946 242.319 514.938 239.943C517.896 237.521 521.007 235.281 524.067 232.991C525.603 231.839 527.145 230.688 528.63 229.474C530.177 228.261 531.543 226.834 532.687 225.235C533.825 223.581 534.502 221.654 534.649 219.652C534.715 217.712 534.651 215.771 534.458 213.84C534.41 212.894 534.362 211.948 534.409 211.009C534.443 210.072 534.538 209.139 534.693 208.214C535.024 206.366 535.587 204.566 536.369 202.859C537.919 199.408 540.063 196.256 542.705 193.548C544.046 192.234 545.552 191.099 547.186 190.171C548.842 189.253 550.565 188.461 552.34 187.803C554.12 187.12 555.928 186.434 557.71 185.697C559.502 184.953 561.241 184.086 562.913 183.102C566.238 181.086 569.253 178.599 571.866 175.72C574.464 172.852 576.8 169.757 578.845 166.472C579.332 165.663 579.868 164.885 580.451 164.143C581.046 163.423 581.711 162.766 582.438 162.18C583.913 161.012 585.583 160.114 587.37 159.527C590.961 158.324 594.832 158.102 598.633 158.246C606.284 158.543 613.807 160.286 621.341 161.787C617.603 160.916 613.87 160.022 610.098 159.284C606.331 158.507 602.515 157.985 598.678 157.722C594.839 157.533 590.905 157.698 587.179 158.903C585.298 159.488 583.538 160.405 581.982 161.61C581.206 162.218 580.494 162.904 579.857 163.657C579.239 164.413 578.674 165.21 578.165 166.044C576.101 169.247 573.775 172.275 571.212 175.096C568.65 177.902 565.695 180.321 562.438 182.278C560.798 183.234 559.094 184.076 557.338 184.797C555.597 185.532 553.786 186.164 551.983 186.849C550.159 187.523 548.388 188.331 546.683 189.266C544.973 190.234 543.394 191.416 541.984 192.784C540.594 194.161 539.356 195.683 538.292 197.324C537.225 198.953 536.28 200.658 535.464 202.425C534.221 205.101 533.536 208.002 533.451 210.951C533.418 211.931 533.456 212.907 533.512 213.876C533.708 215.763 533.779 217.66 533.725 219.556C533.604 221.402 532.986 223.181 531.937 224.704C530.849 226.234 529.55 227.602 528.078 228.767C526.598 229.974 525.087 231.148 523.564 232.311C520.524 234.642 517.433 236.928 514.483 239.403C511.489 241.829 508.746 244.551 506.297 247.527C503.882 250.561 501.992 253.977 500.708 257.636C500.517 258.197 500.339 258.769 500.202 259.339C500.16 259.521 500.07 259.687 499.941 259.822C499.812 259.956 499.649 260.054 499.47 260.103C499.29 260.153 499.101 260.154 498.921 260.105C498.741 260.056 498.578 259.96 498.448 259.826C493.714 254.993 502.498 236.879 504.855 232.645Z" fill="white" fill-opacity="0.36"/>
<path d="M496.996 237.278C496.996 237.278 558.009 143.328 594.553 152.039C631.098 160.75 496.996 237.278 496.996 237.278Z" fill="url(#paint1_linear_69_252)"/>
<path d="M598.977 153.989C569.128 165.983 496.996 237.278 496.996 237.278C496.996 237.278 617.185 168.684 598.977 153.989Z" fill="url(#paint2_linear_69_252)"/>
<path d="M496.996 237.278C504.579 229.295 512.386 221.51 520.415 213.923C528.445 206.337 536.613 198.924 544.918 191.686C549.101 188.086 553.334 184.538 557.616 181.043C561.92 177.584 566.265 174.164 570.716 170.892C575.168 167.62 579.664 164.448 584.39 161.501C585.566 160.756 586.754 160.062 587.952 159.368C589.151 158.674 590.359 157.999 591.59 157.354C594.007 156.041 596.512 154.896 599.087 153.925C594.12 156.315 589.372 159.128 584.894 162.333C580.367 165.456 575.946 168.757 571.62 172.136C562.969 178.934 554.529 185.998 546.206 193.2C537.883 200.402 529.645 207.723 521.479 215.081L496.996 237.278Z" fill="url(#paint3_linear_69_252)"/>
<path d="M496.996 237.278C496.996 237.278 586.101 168.971 617.615 189.314C649.128 209.658 496.996 237.278 496.996 237.278Z" fill="url(#paint4_linear_69_252)"/>
<path d="M621.125 192.617C588.958 194.039 496.996 237.278 496.996 237.278C496.996 237.278 633.337 212.521 621.125 192.617Z" fill="url(#paint5_linear_69_252)"/>
<path d="M496.996 237.278C506.842 232.253 516.819 227.507 526.927 223.039C537.035 218.572 547.226 214.293 557.502 210.204C562.655 208.213 567.84 206.261 573.048 204.4C578.256 202.538 583.508 200.776 588.806 199.174C594.103 197.573 599.445 196.08 604.857 194.869C606.199 194.554 607.563 194.288 608.898 194.044C610.232 193.8 611.627 193.544 612.994 193.349C615.731 192.913 618.496 192.667 621.267 192.612C615.796 193.223 610.387 194.3 605.101 195.831C599.787 197.261 594.522 198.913 589.301 200.674C578.858 204.196 568.527 208.058 558.253 212.089C547.979 216.121 537.76 220.273 527.562 224.484L496.996 237.278Z" fill="url(#paint6_linear_69_252)"/>
<g clip-path="url(#clip1_69_252)">
<path d="M507.467 230.978L469.353 221.132L472.307 209.698C473.393 205.494 477.695 202.958 481.899 204.044L504.767 209.952C508.971 211.038 511.507 215.34 510.421 219.544L507.467 230.978ZM478.945 215.478L501.814 221.386L502.798 217.575L479.93 211.667L478.945 215.478Z" fill="#303C42"/>
<path d="M511.755 293.072L435.527 273.38C433.506 272.857 431.774 271.553 430.714 269.754C429.654 267.956 429.351 265.809 429.874 263.788L442.674 214.24C443.196 212.218 444.5 210.487 446.299 209.426C448.098 208.366 450.244 208.064 452.266 208.586L528.493 228.278C530.515 228.801 532.246 230.105 533.306 231.903C534.367 233.702 534.669 235.849 534.147 237.87L521.347 287.418C520.824 289.44 519.52 291.171 517.722 292.231C515.923 293.292 513.776 293.594 511.755 293.072Z" fill="url(#paint7_linear_69_252)"/>
<path opacity="0.1" d="M512.001 292.119L435.773 272.427C433.752 271.904 432.02 270.6 430.96 268.802C429.9 267.003 429.598 264.856 430.12 262.835L429.874 263.788C429.352 265.809 429.654 267.956 430.714 269.754C431.774 271.553 433.506 272.857 435.527 273.38L511.755 293.072C513.776 293.594 515.923 293.292 517.722 292.231C519.52 291.171 520.824 289.44 521.347 287.418L521.593 286.465C521.071 288.487 519.767 290.218 517.968 291.279C516.169 292.339 514.023 292.641 512.001 292.119Z" fill="black"/>
<path d="M528.493 228.278L452.266 208.586C450.244 208.064 448.098 208.366 446.299 209.426C444.5 210.487 443.196 212.218 442.674 214.24L441.689 218.051L479.549 260.357L532.67 243.587L534.147 237.87C534.669 235.849 534.367 233.702 533.306 231.903C532.246 230.105 530.515 228.801 528.493 228.278Z" fill="url(#paint8_linear_69_252)"/>
<path opacity="0.1" d="M441.935 217.098L441.689 218.051L479.549 260.357L532.67 243.587L532.916 242.635L479.795 259.405L441.935 217.098Z" fill="black"/>
<path opacity="0.2" d="M528.493 228.278L452.266 208.586C450.244 208.064 448.098 208.366 446.299 209.426C444.5 210.487 443.196 212.218 442.674 214.24L442.427 215.193C442.95 213.171 444.254 211.439 446.053 210.379C447.851 209.319 449.998 209.017 452.019 209.539L528.247 229.231C530.269 229.753 532 231.057 533.06 232.856C534.12 234.655 534.423 236.801 533.9 238.823L534.147 237.87C534.669 235.849 534.367 233.702 533.306 231.903C532.246 230.105 530.515 228.801 528.493 228.278Z" fill="white"/>
<path d="M481.025 254.64C478.925 254.098 477.656 251.944 478.199 249.844C478.741 247.744 480.895 246.475 482.995 247.018C485.095 247.56 486.364 249.713 485.821 251.814C485.279 253.914 483.125 255.183 481.025 254.64Z" fill="#F2F2F2"/>
<path d="M481.518 252.735C482.57 253.006 483.644 252.374 483.916 251.321C484.188 250.269 483.555 249.195 482.502 248.923C481.45 248.651 480.376 249.284 480.104 250.337C479.832 251.389 480.465 252.463 481.518 252.735Z" fill="url(#paint9_linear_69_252)"/>
<path d="M441.689 218.051L481.264 285.195L511.755 293.072C513.776 293.594 515.923 293.292 517.722 292.231C519.52 291.171 520.824 289.44 521.347 287.418L532.67 243.587L479.549 260.357L441.689 218.051Z" fill="url(#paint10_linear_69_252)"/>
<path d="M528.493 228.278L509.436 223.355L510.421 219.544C511.507 215.34 508.971 211.038 504.767 209.952L481.899 204.044C477.695 202.958 473.393 205.494 472.307 209.698L471.322 213.509L452.265 208.586C450.244 208.064 448.097 208.366 446.299 209.426C444.5 210.487 443.196 212.218 442.674 214.24L429.874 263.788C429.351 265.809 429.654 267.956 430.714 269.754C431.774 271.553 433.505 272.857 435.527 273.38L511.755 293.072C513.776 293.594 515.923 293.292 517.721 292.231C519.52 291.171 520.824 289.44 521.347 287.418L534.146 237.87C534.669 235.849 534.366 233.702 533.306 231.903C532.246 230.105 530.515 228.801 528.493 228.278ZM479.93 211.667L502.798 217.575L501.813 221.386L478.945 215.478L479.93 211.667Z" fill="url(#paint11_linear_69_252)"/>
</g>
<path d="M391.578 97.7078L395.389 141.71C395.701 145.315 392.99 148.536 389.372 148.85L315.258 155.268C315.017 155.291 314.775 155.299 314.533 155.291C313.628 155.265 312.738 155.057 311.917 154.677C311.095 154.297 310.36 153.754 309.756 153.081C309.547 152.844 309.354 152.595 309.176 152.334C308.571 151.416 308.202 150.364 308.102 149.269L303.275 93.5297C303.135 91.8236 303.676 90.1313 304.778 88.8209C305.881 87.5105 307.457 86.6881 309.164 86.5324L327.921 84.9081C329.362 84.7844 330.802 85.1461 332.013 85.9356C333.224 86.7251 334.136 87.8968 334.603 89.2641L335.603 92.1838C335.955 93.2242 336.647 94.1162 337.567 94.7171C338.487 95.318 339.583 95.593 340.678 95.498L384.437 91.7084C388.042 91.3955 391.265 94.0929 391.578 97.7078Z" fill="url(#paint12_linear_69_252)"/>
<path d="M407.601 106.75L406.376 110.362L397.169 137.622L394.302 146.123C394.063 146.827 393.627 147.446 393.046 147.905C392.464 148.364 391.763 148.642 391.026 148.707L314.851 155.304L314.866 155.266L318.193 144.461L326.578 117.272L328.643 110.581C328.808 110.044 329.09 109.551 329.468 109.137C329.846 108.722 330.31 108.397 330.827 108.185C331.183 108.034 331.561 107.941 331.946 107.907L403.664 101.696C406.396 101.459 408.481 104.131 407.601 106.75Z" fill="#EFEFEF"/>
<path opacity="0.39" d="M407.581 106.545L406.346 110.025L326.316 116.955L328.41 110.513C328.639 109.813 329.077 109.193 329.669 108.733C330.262 108.272 330.981 107.991 331.737 107.925L403.656 101.697C406.397 101.459 408.475 104.023 407.581 106.545Z" fill="url(#paint13_linear_69_252)"/>
<path opacity="0.48" d="M391.677 98.8429L391.981 102.352L331.742 107.569C330.982 107.635 330.259 107.923 329.664 108.397C329.069 108.87 328.63 109.508 328.401 110.229L317.812 143.846L314.438 154.561C313.373 154.534 312.331 154.254 311.399 153.744C310.468 153.234 309.674 152.509 309.085 151.631L312.505 140.77L323.094 107.154C323.322 106.433 323.762 105.795 324.357 105.322C324.951 104.848 325.674 104.56 326.434 104.494L391.677 98.8429Z" fill="url(#paint14_linear_69_252)"/>
<path opacity="0.59" d="M340.798 95.4665L303.721 98.6775L303.274 93.5177C303.201 92.6737 303.296 91.8234 303.553 91.0155C303.81 90.2075 304.225 89.4578 304.774 88.8089C305.323 88.1601 305.994 87.625 306.751 87.2341C307.507 86.8432 308.334 86.6042 309.183 86.5308L328.002 84.901C329.448 84.7756 330.894 85.1353 332.109 85.9228C333.324 86.7102 334.239 87.88 334.706 89.2452L335.706 92.1583C336.059 93.1971 336.753 94.0877 337.676 94.6874C338.6 95.2872 339.699 95.5615 340.798 95.4665Z" fill="#EFEFEF"/>
<path opacity="0.27" d="M397.339 137.265L394.483 146.034C394.246 146.761 393.811 147.399 393.229 147.871C392.647 148.342 391.944 148.628 391.206 148.691L314.851 155.304L318.174 144.12L397.339 137.265Z" fill="url(#paint15_linear_69_252)"/>
<path opacity="0.28" d="M330.988 107.99C330.991 108.447 330.923 108.902 330.787 109.34L329.582 113.237L320.45 142.662L317.602 151.836C317.159 153.225 316.093 154.238 314.784 154.531L318.164 143.85L326.679 116.975L328.776 110.362C328.945 109.83 329.231 109.342 329.613 108.932C329.995 108.522 330.465 108.2 330.988 107.99Z" fill="url(#paint16_linear_69_252)"/>
<path opacity="0.2" d="M302.705 91.7612L271.862 94.4323C269.074 94.6738 267.011 97.1542 267.256 99.9725L268.646 116.03C268.89 118.848 271.348 120.937 274.136 120.696L304.98 118.025C307.768 117.783 309.83 115.303 309.586 112.484L308.195 96.4271C307.951 93.6087 305.493 91.5198 302.705 91.7612Z" fill="white"/>
<path d="M311.032 98.0444L280.188 100.715C277.4 100.957 275.332 103.37 275.569 106.106L276.919 121.691C277.156 124.426 279.608 126.448 282.396 126.206L313.239 123.535C316.027 123.294 318.096 120.881 317.859 118.145L316.509 102.56C316.272 99.8247 313.82 97.8029 311.032 98.0444Z" fill="url(#paint17_linear_69_252)"/>
<path d="M302.911 112.086C303.041 112.141 303.154 112.23 303.236 112.343C303.319 112.456 303.369 112.589 303.381 112.728C303.393 112.867 303.367 113.007 303.305 113.132C303.243 113.258 303.147 113.365 303.028 113.442L298.299 116.545L293.493 119.699C293.379 119.775 293.246 119.821 293.107 119.831C292.969 119.841 292.831 119.816 292.706 119.757C292.581 119.699 292.475 119.609 292.397 119.497C292.318 119.386 292.272 119.256 292.261 119.12L291.801 113.717L291.341 108.314C291.329 108.179 291.353 108.043 291.411 107.919C291.469 107.796 291.559 107.69 291.672 107.611C291.785 107.532 291.917 107.484 292.055 107.47C292.193 107.457 292.332 107.48 292.458 107.536L297.727 109.831L302.911 112.086Z" fill="white"/>
<path opacity="0.1" d="M355.892 49.9564L328.613 52.1942C325.976 52.4105 324.014 54.7217 324.23 57.3564L325.565 73.6244C325.781 76.2591 328.094 78.2196 330.73 78.0033L358.009 75.7655C360.646 75.5492 362.608 73.238 362.392 70.6033L361.057 54.3353C360.841 51.7006 358.529 49.7401 355.892 49.9564Z" fill="url(#paint18_linear_69_252)"/>
<path d="M350.336 56.5592L323.058 58.7971C320.421 59.0133 318.459 61.3245 318.675 63.9592L320.009 80.2273C320.225 82.862 322.538 84.8224 325.175 84.6062L352.453 82.3683C355.09 82.152 357.052 79.8409 356.836 77.2062L355.502 60.9381C355.286 58.3034 352.973 56.3429 350.336 56.5592Z" fill="url(#paint19_linear_69_252)"/>
<path d="M340.993 64.3127L341.068 68.5963C341.07 68.7113 341.099 68.8243 341.151 68.9256C341.203 69.0269 341.277 69.1135 341.367 69.178L344.706 71.5813C344.81 71.6559 344.892 71.7598 344.944 71.8812C344.996 72.0027 345.015 72.1368 345 72.2685C344.984 72.4002 344.934 72.5241 344.856 72.6264C344.778 72.7286 344.674 72.805 344.557 72.847L340.774 74.1993C340.672 74.2357 340.58 74.2983 340.506 74.3816C340.432 74.4649 340.378 74.5664 340.35 74.6774L339.283 78.7927C339.25 78.9204 339.184 79.0352 339.093 79.1241C339.002 79.2131 338.889 79.2726 338.767 79.296C338.645 79.3194 338.519 79.3058 338.403 79.2566C338.287 79.2074 338.186 79.1247 338.111 79.0178L335.697 75.5697C335.632 75.4768 335.547 75.402 335.449 75.3517C335.351 75.3013 335.244 75.277 335.136 75.2808L331.137 75.4206C331.013 75.4248 330.89 75.3918 330.782 75.3253C330.674 75.2589 330.584 75.1615 330.525 75.0443C330.465 74.9271 330.437 74.7947 330.443 74.6621C330.45 74.5295 330.491 74.4019 330.562 74.2939L332.853 70.8109C332.915 70.717 332.954 70.6082 332.968 70.4938C332.981 70.3794 332.968 70.2628 332.931 70.1542L331.526 66.1254C331.482 66.0004 331.472 65.8653 331.496 65.7353C331.521 65.6053 331.579 65.4857 331.664 65.3898C331.749 65.294 331.857 65.2258 331.977 65.193C332.097 65.1602 332.224 65.1641 332.342 65.2042L336.172 66.4993C336.275 66.5342 336.385 66.5418 336.491 66.5214C336.597 66.5011 336.696 66.4534 336.781 66.3824L339.911 63.7529C340.009 63.671 340.126 63.6202 340.249 63.6062C340.373 63.5923 340.498 63.6158 340.611 63.6741C340.724 63.7324 340.819 63.8232 340.886 63.9361C340.954 64.0489 340.991 64.1794 340.993 64.3127Z" fill="white"/>
<g opacity="0.31">
<path d="M422.064 164.981L401.152 166.792C397.41 167.116 394.125 164.465 393.814 160.87L393.173 153.474L401.175 152.781C403.104 152.614 404.07 150.443 402.859 148.998L390.406 135.439C389.332 134.16 387.241 134.341 386.403 135.785L376.467 151.284C375.517 152.916 376.844 154.888 378.776 154.721L386.777 154.028L387.418 161.424C387.729 165.022 384.948 168.195 381.208 168.519L364.439 169.971C355.534 169.767 348.063 163.169 347.307 154.438C346.567 145.9 352.501 138.265 360.93 136.309C361.159 136.267 361.387 136.22 361.614 136.164C362.24 136.045 362.882 135.953 363.535 135.897C365.32 135.742 367.119 135.848 368.874 136.211C370.144 136.475 371.371 135.576 371.414 134.323C371.58 129.389 373.601 118.696 387.645 117.48C394.975 116.845 401.684 121.076 404.896 126.947L404.897 126.952C405.006 127.17 405.115 127.386 405.232 127.597L405.233 127.602C406.135 129.432 406.686 131.414 406.86 133.447C406.943 134.394 406.945 135.347 406.865 136.294C406.725 137.909 408.463 139.042 409.95 138.264C411.897 137.247 414.035 136.649 416.227 136.508C424.214 135.977 431.287 141.548 432.293 149.171C433.229 156.274 428.748 162.766 422.064 164.981Z" fill="white"/>
</g>
<path d="M421.431 167.865L402.576 169.497C400.956 169.638 399.347 169.127 398.102 168.079C396.857 167.03 396.078 165.529 395.938 163.906L395.336 156.951L402.55 156.326C404.291 156.175 405.154 154.137 404.056 152.776L392.78 139.988C392.555 139.71 392.265 139.491 391.936 139.351C391.606 139.211 391.248 139.154 390.892 139.185C390.536 139.216 390.193 139.334 389.893 139.528C389.593 139.722 389.345 139.988 389.171 140.3L380.261 154.836C379.409 156.367 380.614 158.226 382.354 158.075L389.569 157.45L390.171 164.405C390.241 165.209 390.152 166.018 389.909 166.787C389.666 167.556 389.275 168.27 388.757 168.888C388.239 169.505 387.605 170.014 386.89 170.386C386.176 170.758 385.396 170.985 384.593 171.054L369.474 172.363C361.444 172.141 354.682 165.911 353.971 157.704C353.275 149.673 358.599 142.519 366.194 140.707C366.4 140.668 366.606 140.624 366.811 140.573C367.383 140.462 367.96 140.38 368.54 140.329C370.153 140.189 371.778 140.294 373.359 140.64C373.628 140.701 373.907 140.701 374.176 140.642C374.445 140.582 374.698 140.463 374.916 140.295C375.134 140.126 375.313 139.911 375.438 139.666C375.564 139.42 375.635 139.149 375.644 138.873C375.778 134.236 377.565 124.191 390.227 123.094C396.838 122.521 402.901 126.521 405.818 132.05L405.818 132.056C405.918 132.261 406.016 132.462 406.123 132.664L406.123 132.668C406.944 134.398 407.448 136.262 407.61 138.171C407.688 139.061 407.693 139.957 407.623 140.849C407.503 142.367 409.075 143.436 410.412 142.71C412.157 141.763 414.086 141.207 416.067 141.081C423.269 140.608 429.666 145.871 430.599 153.038C431.472 159.716 427.45 165.804 421.431 167.865Z" fill="url(#paint20_linear_69_252)"/>
<path d="M402.241 156.435L394.975 157.064L395.573 163.976C395.713 165.589 396.495 167.08 397.747 168.121C399 169.162 400.62 169.667 402.251 169.526L384.144 171.094C384.952 171.024 385.738 170.797 386.457 170.427C387.177 170.057 387.816 169.55 388.338 168.936C388.861 168.321 389.256 167.612 389.501 166.847C389.746 166.082 389.836 165.278 389.767 164.479L389.168 157.567L381.904 158.196C380.151 158.348 378.94 156.502 379.8 154.98L388.787 140.522C388.963 140.211 389.213 139.947 389.515 139.754C389.818 139.56 390.163 139.443 390.522 139.412C390.88 139.381 391.241 139.437 391.572 139.575C391.903 139.714 392.195 139.931 392.422 140.207L403.761 152.904C404.865 154.257 403.993 156.283 402.241 156.435Z" fill="white"/>
<path opacity="0.2" d="M417.085 68.7163L418.606 86.7527C418.68 87.6038 418.41 88.3947 417.936 88.9376C417.758 89.1496 417.54 89.3251 417.293 89.4541C417.047 89.583 416.777 89.6629 416.499 89.6891L387.994 92.0938C387.717 92.1149 387.438 92.0815 387.174 91.9957C386.909 91.9098 386.665 91.7732 386.455 91.5937C385.893 91.1386 385.496 90.4042 385.425 89.5529L383.903 71.5165C383.722 69.3696 385.061 67.504 386.894 67.3491L413.438 65.1079C415.271 64.9542 416.904 66.5693 417.085 68.7163Z" fill="white"/>
<path d="M410.745 76.3938L412.316 94.9937C412.392 95.8715 412.124 96.6862 411.651 97.2446C411.474 97.4627 411.256 97.6431 411.01 97.7754C410.763 97.9077 410.493 97.9893 410.216 98.0156L381.711 100.418C381.433 100.439 381.154 100.404 380.89 100.315C380.625 100.226 380.381 100.084 380.17 99.8985C379.606 99.4278 379.208 98.6695 379.134 97.7916L377.563 79.1917C377.376 76.9777 378.711 75.0579 380.544 74.9031L407.088 72.6637C408.921 72.5109 410.559 74.1798 410.745 76.3938Z" fill="url(#paint21_linear_69_252)"/>
<path d="M382.676 92.0757L386.814 85.0543C386.874 84.9535 386.955 84.866 387.053 84.7978C387.15 84.7296 387.261 84.6823 387.379 84.6591C387.497 84.6359 387.618 84.6373 387.735 84.6632C387.851 84.6891 387.961 84.7389 388.056 84.8093L391.878 87.6818C391.969 87.7496 392.074 87.7983 392.186 87.825C392.298 87.8517 392.414 87.8558 392.528 87.8369C392.642 87.8181 392.751 87.7768 392.847 87.7155C392.944 87.6543 393.027 87.5745 393.091 87.4811L398.705 79.8661C398.777 79.7611 398.873 79.6735 398.985 79.6101C399.097 79.5466 399.223 79.5091 399.352 79.5004C399.482 79.4917 399.611 79.5122 399.731 79.5601C399.85 79.6081 399.956 79.6822 400.041 79.7767L407.867 89.9266C407.967 90.0393 408.033 90.1768 408.058 90.3239C408.082 90.4711 408.064 90.6221 408.006 90.7604C407.947 90.8987 407.85 91.0189 407.725 91.1077C407.601 91.1966 407.453 91.2506 407.3 91.2639L383.471 93.2768C383.32 93.2891 383.168 93.2614 383.032 93.1967C382.896 93.1319 382.781 93.0325 382.699 92.9091C382.617 92.7858 382.572 92.643 382.568 92.4962C382.564 92.3494 382.601 92.204 382.676 92.0757Z" fill="white"/>
<path d="M393.244 81.0578C393.147 79.9089 392.136 79.0564 390.986 79.1535C389.837 79.2506 388.983 80.2607 389.08 81.4096C389.178 82.5584 390.188 83.411 391.338 83.3138C392.488 83.2167 393.341 82.2066 393.244 81.0578Z" fill="white"/>
<path d="M161.825 241.44C160.645 239.834 159.113 238.518 157.346 237.594C155.553 236.665 153.607 236.064 151.602 235.821C149.587 235.57 147.545 235.637 145.551 236.02C143.557 236.412 141.622 237.058 139.791 237.94C136.108 239.65 132.896 242.121 129.925 244.765C126.954 247.409 124.265 250.277 121.437 252.926C120.036 254.26 118.614 255.559 117.122 256.749C116.375 257.347 115.617 257.928 114.825 258.449L113.647 259.252L112.428 259.988C110.795 260.973 109.096 261.843 107.342 262.592C105.57 263.311 103.756 263.925 101.911 264.43L100.51 264.798L99.0853 265.088C98.1435 265.307 97.1947 265.407 96.2433 265.564C95.292 265.72 94.329 265.759 93.3711 265.863C92.4084 265.886 91.4464 265.96 90.48 265.94C86.5822 265.932 82.7022 265.415 78.9383 264.402C82.6043 265.901 86.4819 266.819 90.4311 267.122C94.4175 267.427 98.4272 267.138 102.329 266.264C103.317 266.081 104.274 265.781 105.244 265.523C105.714 265.411 106.201 265.223 106.68 265.073L108.099 264.573C109.976 263.846 111.799 262.986 113.553 262C113.982 261.755 114.41 261.509 114.863 261.246L116.115 260.404C116.955 259.858 117.775 259.252 118.56 258.628C120.144 257.394 121.626 256.061 123.066 254.69C125.923 251.94 128.608 249.093 131.427 246.462C134.175 243.787 137.265 241.487 140.616 239.622C143.959 237.842 147.689 236.764 151.5 236.995C153.408 237.071 155.289 237.477 157.059 238.194C157.509 238.371 157.937 238.591 158.364 238.796C158.792 239 159.207 239.259 159.609 239.542C160.415 240.092 161.158 240.728 161.825 241.44Z" fill="#10AA95"/>
<path d="M174.019 229.491C167.898 221.42 161.444 214.584 157.612 204.959C156.093 201.079 154.956 197.023 152.945 193.381C150.935 189.739 147.832 186.438 143.807 185.356C139.286 184.13 134.331 185.863 129.85 184.498C126.947 183.619 124.595 181.547 122.045 179.91C116.447 176.318 109.815 174.775 103.329 173.292C93.2784 170.999 82.5816 168.732 72.8596 172.243C67.3288 174.246 62.607 178.015 58.2493 181.954C55.4954 184.47 52.7708 187.201 51.5957 190.788C50.8743 192.825 50.8862 195.05 51.6294 197.079C53.5612 202.04 59.4369 202.664 63.8992 201.048C67.6476 199.677 70.7965 197.033 74.2216 195.033C77.6468 193.032 81.8475 191.576 85.6449 192.878C91.0531 194.749 93.8637 201.606 99.4994 202.624C102.635 203.191 106.038 201.754 108.977 202.984C113.507 204.882 113.541 211.284 112.329 216.017C111.118 220.75 109.639 226.491 113.026 230.042C118.913 236.227 130.92 227.541 137.502 233.014C141.315 236.193 141.166 242.766 145.381 245.404C151.211 249.053 158.743 241.727 165.35 243.64C168.06 244.425 170.066 246.635 172.125 248.563C174.183 250.492 176.741 252.327 179.553 252.052C179.779 252.032 179.99 252.013 180.193 251.951C180.317 251.926 180.434 251.873 180.536 251.797C180.638 251.721 180.721 251.623 180.78 251.51C180.839 251.398 180.872 251.273 180.877 251.147C180.881 251.02 180.858 250.893 180.807 250.777C180.582 250.265 180.338 249.769 180.076 249.279C178.556 246.549 176.59 244.091 174.26 242.008C171.936 239.939 169.414 238.106 166.729 236.534C164.065 234.921 161.3 233.473 158.569 231.978C157.199 231.226 155.823 230.475 154.486 229.667C153.1 228.867 151.834 227.873 150.728 226.716C149.62 225.513 148.853 224.037 148.505 222.44C148.229 220.884 148.057 219.311 147.991 217.732C147.921 216.964 147.851 216.196 147.705 215.444C147.57 214.693 147.386 213.951 147.155 213.223C146.676 211.771 146.015 210.385 145.188 209.098C143.542 206.494 141.451 204.199 139.01 202.32C137.777 201.414 136.433 200.672 135.009 200.112C133.569 199.562 132.088 199.122 130.581 198.795C129.068 198.449 127.531 198.104 126.01 197.715C124.479 197.32 122.978 196.821 121.517 196.22C118.605 194.977 115.888 193.319 113.45 191.298C111.026 189.284 108.787 187.056 106.76 184.643C106.275 184.047 105.753 183.481 105.198 182.95C104.636 182.438 104.024 181.984 103.371 181.596C102.047 180.824 100.598 180.292 99.0889 180.024C96.0561 179.466 92.9093 179.733 89.8611 180.285C83.7271 181.404 77.8623 183.674 71.9604 185.749C74.8738 184.618 77.7807 183.468 80.7373 182.44C83.6851 181.38 86.7013 180.521 89.7651 179.868C92.8386 179.274 96.0291 178.956 99.1719 179.498C100.755 179.754 102.279 180.291 103.673 181.084C104.369 181.485 105.021 181.956 105.621 182.49C106.206 183.028 106.754 183.606 107.259 184.22C109.292 186.565 111.515 188.739 113.906 190.719C116.294 192.687 118.955 194.298 121.805 195.501C123.237 196.084 124.708 196.567 126.206 196.946C127.694 197.339 129.227 197.64 130.759 197.985C132.307 198.319 133.829 198.767 135.311 199.325C136.8 199.908 138.21 200.68 139.503 201.621C140.782 202.571 141.955 203.656 143.002 204.857C144.049 206.048 145.007 207.313 145.868 208.644C147.177 210.659 148.063 212.919 148.471 215.287C148.61 216.074 148.691 216.865 148.758 217.653C148.817 219.196 148.978 220.734 149.239 222.257C149.548 223.731 150.251 225.094 151.272 226.202C152.325 227.31 153.529 228.264 154.85 229.033C156.182 229.837 157.535 230.61 158.897 231.372C161.616 232.902 164.37 234.39 167.033 236.046C169.726 237.659 172.25 239.538 174.567 241.656C176.863 243.824 178.779 246.362 180.235 249.163C180.453 249.594 180.663 250.035 180.839 250.479C180.893 250.62 180.985 250.744 181.104 250.838C181.224 250.931 181.366 250.991 181.517 251.011C181.667 251.03 181.82 251.009 181.959 250.949C182.099 250.889 182.219 250.792 182.308 250.67C185.57 246.229 176.406 232.634 174.019 229.491Z" fill="white" fill-opacity="0.36"/>
<path d="M169.564 254.885C166.379 250.831 165.428 245.49 164.367 240.426C163.307 235.363 161.857 230.042 158.045 226.552C153.524 222.411 146.559 221.693 142.313 217.284C139.002 213.844 144.479 203.039 142.705 198.603C138.646 188.421 123.775 186.562 116.285 178.556C110.595 172.472 105.009 165.592 102.571 157.489C101.306 153.288 101.237 150.94 98.6234 147.484C95.5141 143.365 92.4167 139.768 90.817 134.727C88.9605 128.882 89.4433 122.021 93.2571 117.229C99.2907 109.604 111.641 109.787 119.702 115.214C127.763 120.641 132.48 129.793 136.21 138.73C139.939 147.666 143.288 157.131 149.738 164.412C154.72 170.041 161.258 174.01 167.184 178.651C173.109 183.292 178.703 189.018 180.522 196.309C183.377 207.758 176.279 220.067 179.585 231.394C180.952 236.079 183.996 240.117 185.65 244.687C187.205 248.99 187.152 254.483 183.896 257.524C182.691 254.688 181.486 251.852 180.281 249.017L172.556 231.085C169.999 225.101 167.35 219.161 164.749 213.195C162.147 207.23 159.596 201.233 156.646 195.397C153.696 189.561 150.182 183.958 145.877 179.006C143.751 176.509 141.498 174.138 139.186 171.841C136.875 169.544 134.5 167.302 132.135 165.072C127.403 160.613 122.691 156.122 118.6 151.093C116.535 148.594 114.685 145.925 113.069 143.115C111.474 140.282 110.195 137.282 109.256 134.169C110.069 137.331 111.25 140.386 112.775 143.273C114.326 146.151 116.115 148.894 118.123 151.475C122.153 156.629 126.817 161.226 131.469 165.771C136.122 170.315 140.862 174.787 145.004 179.749C149.218 184.654 152.597 190.199 155.523 195.972C158.448 201.745 161.037 207.719 163.702 213.66C166.366 219.6 168.971 225.56 171.669 231.479L179.723 249.267C181.031 252.098 182.331 254.931 183.624 257.766C183.49 257.879 183.356 257.987 183.22 258.09C179.03 261.151 172.749 258.955 169.564 254.885Z" fill="url(#paint22_linear_69_252)"/>
<path d="M116.293 200.547C119.593 196.34 126.25 196.316 130.926 198.873C135.603 201.429 138.943 205.865 142.468 209.909C145.993 213.953 150.173 217.893 155.447 218.792C158.854 219.377 162.465 218.615 165.741 219.685C169.495 220.894 172.151 224.245 174.145 227.627C178.092 234.338 185.63 252.641 177.951 259.013C177.679 257.643 177.292 256.299 176.793 254.995C176.202 253.503 175.484 252.065 174.648 250.696C173.801 249.334 172.856 248.036 171.819 246.812C170.782 245.593 169.673 244.437 168.497 243.351C167.317 242.273 166.084 241.255 164.803 240.3C163.496 239.355 162.203 238.452 160.903 237.53C158.309 235.701 155.675 233.888 153.017 232.129C150.359 230.37 147.666 228.662 144.916 227.043C143.535 226.248 142.173 225.432 140.856 224.536C139.54 223.64 138.255 222.683 137.039 221.69C135.823 220.696 134.614 219.625 133.512 218.495C132.93 217.945 132.389 217.331 131.84 216.786C131.29 216.241 130.758 215.609 130.268 214.994C129.239 213.778 128.282 212.502 127.403 211.173C126.53 209.839 125.755 208.444 125.085 206.998C125.747 208.447 126.511 209.847 127.373 211.188C128.246 212.522 129.196 213.805 130.218 215.03C130.716 215.652 131.258 216.22 131.793 216.831C132.328 217.441 132.883 218.005 133.453 218.549C134.576 219.682 135.774 220.732 136.987 221.766C138.201 222.801 139.487 223.747 140.798 224.655C142.108 225.563 143.482 226.386 144.851 227.19C147.587 228.818 150.276 230.526 152.917 232.312C155.554 234.083 158.155 235.936 160.748 237.761C162.047 238.682 163.344 239.595 164.649 240.535C165.919 241.489 167.139 242.508 168.304 243.589C169.463 244.671 170.557 245.822 171.581 247.034C172.593 248.252 173.518 249.541 174.35 250.89C175.167 252.245 175.867 253.667 176.444 255.14C176.954 256.497 177.343 257.897 177.608 259.322C176.737 259.96 175.759 260.438 174.72 260.732C163.609 263.971 149.689 257.292 143.457 248.175C140.449 243.767 138.638 238.615 135.504 234.287C129.786 226.407 119.979 221.729 115.862 212.909C114.009 208.963 113.627 203.969 116.293 200.547Z" fill="url(#paint23_linear_69_252)"/>
<path d="M227.525 242.237L184.109 258.6L182.77 259.121L163.819 266.26C163.386 266.4 162.915 266.367 162.506 266.168C162.097 265.968 161.781 265.618 161.624 265.191L147.591 229.904L142.751 217.737C142.688 217.571 142.663 217.393 142.678 217.216C142.692 217.039 142.747 216.868 142.837 216.714C142.927 216.561 143.05 216.43 143.198 216.331C143.345 216.232 143.513 216.168 143.689 216.142L204.883 203.092C205.198 203.062 205.514 203.124 205.795 203.271C206.075 203.417 206.307 203.641 206.462 203.916L208.666 207.704L216.354 220.931L227.797 240.618C228.198 241.299 228.076 242.031 227.525 242.237Z" fill="#FEFCFC"/>
<path d="M201.08 211.504C201.19 211.461 201.245 211.337 201.202 211.227C201.159 211.117 201.035 211.062 200.925 211.105C200.815 211.148 200.76 211.272 200.803 211.382C200.846 211.492 200.97 211.547 201.08 211.504Z" fill="#7D65F9"/>
<path d="M204.145 226.346C204.206 226.323 204.236 226.254 204.213 226.193C204.189 226.131 204.12 226.101 204.059 226.125C203.998 226.149 203.967 226.218 203.991 226.279C204.015 226.34 204.084 226.37 204.145 226.346Z" fill="#7D6DFB"/>
<path d="M196.197 237.584C196.206 237.563 196.219 237.544 196.236 237.528C196.252 237.513 196.271 237.5 196.293 237.492C196.314 237.484 196.336 237.48 196.359 237.48C196.382 237.481 196.404 237.486 196.425 237.495C196.466 237.515 196.498 237.549 196.514 237.592C196.531 237.634 196.53 237.681 196.514 237.723C196.495 237.765 196.461 237.798 196.418 237.815C196.375 237.831 196.328 237.83 196.286 237.812C196.244 237.793 196.211 237.759 196.194 237.716C196.178 237.673 196.179 237.626 196.197 237.584Z" fill="#7C64F9"/>
<path d="M209.817 244.002C209.978 243.939 210.058 243.758 209.995 243.596C209.932 243.435 209.751 243.355 209.589 243.418C209.428 243.481 209.348 243.662 209.411 243.824C209.474 243.985 209.655 244.065 209.817 244.002Z" fill="#7B55F7"/>
<path d="M167.592 217.506C167.612 217.453 167.649 217.407 167.696 217.375C167.743 217.343 167.798 217.326 167.855 217.326C167.912 217.326 167.968 217.343 168.015 217.375C168.062 217.407 168.098 217.453 168.119 217.506C168.139 217.559 168.144 217.617 168.131 217.673C168.118 217.728 168.088 217.778 168.046 217.817C168.004 217.855 167.952 217.88 167.895 217.888C167.839 217.896 167.781 217.887 167.73 217.862C167.667 217.831 167.617 217.777 167.592 217.711C167.566 217.645 167.566 217.572 167.592 217.506Z" fill="#7D66FA"/>
<path d="M194.948 222.192C194.968 222.139 195.005 222.093 195.052 222.061C195.099 222.029 195.154 222.011 195.211 222.011C195.268 222.011 195.324 222.029 195.371 222.061C195.418 222.093 195.454 222.139 195.475 222.192C195.495 222.245 195.5 222.303 195.487 222.358C195.474 222.414 195.444 222.464 195.402 222.503C195.36 222.541 195.308 222.566 195.251 222.574C195.195 222.582 195.137 222.573 195.086 222.548C195.022 222.517 194.972 222.463 194.947 222.397C194.921 222.331 194.921 222.258 194.948 222.192Z" fill="#7D6DFB"/>
<path d="M177.085 207.745C177.117 207.795 177.135 207.851 177.139 207.91C177.144 207.968 177.134 208.027 177.11 208.08C177.086 208.134 177.05 208.181 177.004 208.217C176.958 208.254 176.904 208.278 176.846 208.289C176.71 208.308 176.572 208.285 176.45 208.222C176.328 208.159 176.228 208.061 176.165 207.939C176.133 207.89 176.115 207.833 176.11 207.775C176.106 207.716 176.116 207.658 176.14 207.604C176.164 207.551 176.201 207.504 176.247 207.468C176.293 207.432 176.348 207.408 176.405 207.399C176.541 207.379 176.679 207.402 176.8 207.464C176.922 207.526 177.022 207.624 177.085 207.745Z" fill="#7D6AFA"/>
<path d="M274.727 251.8L217.35 299.086C214.152 301.7 209.636 303.284 204.669 300.129C204.669 300.129 165.773 276.909 163.692 275.522C163.097 275.095 162.671 274.475 162.486 273.767C162.302 273.059 162.37 272.31 162.68 271.647L231.326 246.58C232.359 246.178 234.323 246.021 235.733 246.23L274.305 250.135C274.905 250.496 275.47 251.191 274.727 251.8Z" fill="#091C3F" fill-opacity="0.34"/>
<path d="M274.743 251.207L216.975 298.461C213.779 301.078 209.223 302.265 204.261 299.111C204.261 299.111 165.489 275.072 163.428 273.652C161.563 272.369 162.702 270.733 165.579 269.614L230.455 244.373C231.488 243.971 233.452 243.814 234.862 244.023L272.024 249.518C274.239 249.837 275.48 250.584 274.743 251.207Z" fill="url(#paint24_radial_69_252)"/>
<path d="M162.274 270.391C162.261 270.4 162.246 270.405 162.231 270.408C161.419 270.265 160.657 269.914 160.022 269.389C159.386 268.864 158.898 268.182 158.605 267.411L139.253 217.671C139.086 217.265 139.011 216.826 139.033 216.387C139.056 215.948 139.176 215.519 139.385 215.132C139.632 214.704 139.97 214.336 140.374 214.053C140.779 213.769 141.24 213.578 141.727 213.491L204.169 200.729C205.559 200.447 207.382 201.39 208.232 202.838L230.364 240.513C230.372 240.533 230.373 240.555 230.366 240.575C230.359 240.595 230.345 240.612 230.327 240.622C230.308 240.633 230.287 240.637 230.266 240.633C230.245 240.629 230.227 240.617 230.214 240.601L208.082 202.925C207.263 201.538 205.549 200.631 204.206 200.899L141.762 213.645C141.301 213.727 140.864 213.908 140.48 214.176C140.097 214.445 139.776 214.793 139.541 215.198C139.345 215.563 139.232 215.967 139.21 216.38C139.189 216.794 139.26 217.208 139.419 217.591L158.772 267.334C159.053 268.076 159.521 268.733 160.131 269.24C160.742 269.747 161.473 270.087 162.255 270.226C162.277 270.231 162.296 270.244 162.309 270.262C162.322 270.281 162.328 270.303 162.326 270.326C162.323 270.34 162.317 270.353 162.308 270.365C162.299 270.376 162.287 270.385 162.274 270.391Z" fill="white" fill-opacity="0.79"/>
<path d="M267.64 257.123C267.623 257.131 267.603 257.132 267.585 257.128C267.567 257.123 267.551 257.112 267.539 257.097C267.532 257.088 267.527 257.078 267.524 257.067C267.52 257.056 267.52 257.045 267.521 257.034C267.522 257.022 267.526 257.012 267.532 257.002C267.537 256.992 267.545 256.983 267.554 256.976L274.687 251.139C274.84 251.014 274.894 250.89 274.86 250.76C274.757 250.39 273.832 249.868 272.019 249.602L234.861 244.106C234.838 244.102 234.818 244.09 234.803 244.072C234.789 244.054 234.783 244.031 234.786 244.008C234.79 243.984 234.803 243.963 234.821 243.949C234.84 243.935 234.864 243.929 234.888 243.931L272.046 249.428C273.733 249.677 274.877 250.171 275.031 250.726C275.084 250.861 275.06 251.075 274.804 251.29L267.669 257.124L267.64 257.123Z" fill="white"/>
<path d="M213.88 300.379C210.775 301.587 207.39 301.19 204.206 299.17C203.979 299.028 181.322 285.094 179.283 283.69C179.274 283.683 179.266 283.675 179.259 283.665C179.253 283.655 179.249 283.645 179.247 283.633C179.244 283.622 179.245 283.61 179.247 283.599C179.249 283.588 179.254 283.577 179.26 283.567C179.267 283.558 179.275 283.55 179.285 283.543C179.295 283.537 179.305 283.533 179.317 283.531C179.328 283.528 179.34 283.529 179.351 283.531C179.362 283.533 179.373 283.538 179.383 283.544C181.416 284.947 204.073 298.881 204.3 299.022C210.095 302.704 214.691 300.198 216.914 298.378L260.873 262.417C260.881 262.41 260.892 262.405 260.902 262.401C260.913 262.398 260.925 262.397 260.936 262.399C260.947 262.4 260.958 262.404 260.968 262.409C260.978 262.415 260.986 262.423 260.993 262.432C261.001 262.44 261.007 262.45 261.01 262.46C261.014 262.471 261.015 262.482 261.014 262.494C261.013 262.505 261.01 262.516 261.004 262.526C260.999 262.535 260.991 262.544 260.982 262.551L217.024 298.512C216.081 299.297 215.02 299.927 213.88 300.379Z" fill="white"/>
<g style="mix-blend-mode:multiply" opacity="0.36">
<path d="M190.763 282.417C189.589 283.066 187.945 283.214 187.143 282.743L168.458 271.777C167.925 271.46 168.394 270.843 169.486 270.405L231.34 245.594C231.902 245.422 232.495 245.379 233.075 245.469L250.842 248.396C251.542 248.509 251.827 248.767 251.475 248.969L190.763 282.417Z" fill="#B1B4B8"/>
</g>
<g style="mix-blend-mode:multiply" opacity="0.36">
<path d="M242.59 271.842C242.306 271.998 241.993 272.094 241.671 272.124C241.348 272.154 241.023 272.118 240.715 272.018L224.438 266.905C223.928 266.742 223.857 266.413 224.28 266.171L240.566 256.85C241.009 256.662 241.5 256.614 241.972 256.713L256.91 259.978C257.484 260.103 257.739 260.369 257.472 260.579L242.59 271.842Z" fill="#B1B4B8"/>
</g>
<path d="M297.912 260.324L297.86 336.432L402.53 336.433L402.581 260.324L297.912 260.324Z" fill="url(#paint25_linear_69_252)"/>
<path d="M399.411 260.317L349.895 260.316L349.845 333.958L399.361 333.959L399.411 260.317Z" fill="#F9C68C"/>
<path d="M349.808 261.119L300.292 261.119L300.243 333.171L349.759 333.171L349.808 261.119Z" fill="#F9C68C"/>
<path d="M399.367 333.948C383.688 328.717 367.183 328.717 349.851 333.949L349.898 260.307C366.928 255.679 383.433 255.679 399.414 260.306L399.367 333.948Z" fill="#EBF3FF"/>
<path d="M300.335 333.95C313.835 323.085 331.123 333.95 349.851 333.949L349.898 260.307C330.263 261.213 317.732 253.366 300.383 260.308L300.335 333.95Z" fill="white"/>
<path d="M353.233 267.146C353.233 266.918 353.233 266.69 353.233 266.462C353.234 266.453 353.241 266.444 353.249 266.443C362.818 265.083 372.482 264.625 382.115 265.069C382.124 265.069 382.132 265.077 382.131 265.086C382.131 265.314 382.131 265.542 382.131 265.77C382.131 265.78 382.124 265.787 382.114 265.786C372.482 265.342 362.818 265.8 353.249 267.16C353.24 267.161 353.232 267.155 353.233 267.146ZM368.939 276.979C368.741 276.986 368.58 276.832 368.58 276.634C368.581 276.437 368.741 276.269 368.94 276.261C378.033 275.905 387.149 276.351 396.181 277.601C396.379 277.628 396.538 277.812 396.538 278.01C396.537 278.207 396.378 278.346 396.181 278.319C387.148 277.069 378.032 276.622 368.939 276.979ZM385.002 265.946C384.804 265.933 384.642 265.762 384.642 265.564C384.642 265.367 384.804 265.216 385.002 265.229C388.813 265.476 392.617 265.864 396.406 266.394C396.603 266.421 396.762 266.605 396.763 266.803C396.763 267 396.602 267.139 396.405 267.111C392.616 266.581 388.812 266.193 385.002 265.946ZM353.587 272.426C353.389 272.454 353.229 272.315 353.23 272.118C353.23 271.92 353.39 271.736 353.587 271.708C355.091 271.498 356.598 271.31 358.106 271.144C358.303 271.122 358.465 271.266 358.465 271.464C358.465 271.662 358.304 271.84 358.106 271.862C356.597 272.027 355.091 272.215 353.587 272.426ZM353.583 278.35C353.386 278.377 353.225 278.239 353.226 278.041C353.226 277.844 353.386 277.66 353.583 277.632C357.12 277.138 360.669 276.766 364.225 276.518C364.424 276.504 364.583 276.654 364.584 276.852C364.584 277.05 364.422 277.222 364.224 277.235C360.669 277.484 357.12 277.855 353.583 278.35ZM390.969 271.763C390.771 271.742 390.61 271.566 390.611 271.367C390.611 271.17 390.771 271.025 390.969 271.045C392.783 271.234 394.594 271.455 396.402 271.707C396.599 271.734 396.759 271.919 396.759 272.116C396.759 272.314 396.598 272.453 396.402 272.425C394.594 272.172 392.783 271.951 390.969 271.763ZM361.982 271.485C361.785 271.502 361.624 271.355 361.624 271.157C361.624 270.959 361.785 270.784 361.983 270.767C370.363 270.059 378.787 270.036 387.169 270.698C387.367 270.713 387.527 270.888 387.528 271.086C387.528 271.284 387.366 271.431 387.168 271.416C378.786 270.754 370.362 270.777 361.982 271.485ZM353.579 284.154C353.382 284.181 353.221 284.043 353.222 283.846C353.222 283.648 353.382 283.464 353.58 283.437C362.924 282.13 372.356 281.683 381.761 282.095C381.96 282.104 382.12 282.273 382.12 282.47C382.12 282.669 381.959 282.821 381.76 282.813C372.356 282.4 362.923 282.848 353.579 284.154ZM368.928 294.021C368.73 294.028 368.569 293.874 368.569 293.676C368.57 293.479 368.73 293.311 368.929 293.303C378.022 292.947 387.138 293.393 396.17 294.643C396.368 294.67 396.527 294.854 396.527 295.051C396.526 295.249 396.367 295.387 396.17 295.36C387.137 294.111 378.021 293.664 368.928 294.021ZM384.991 282.988C384.793 282.976 384.631 282.804 384.632 282.607C384.631 282.409 384.793 282.258 384.991 282.271C388.802 282.518 392.606 282.906 396.395 283.436C396.592 283.463 396.752 283.647 396.752 283.845C396.752 284.043 396.591 284.181 396.394 284.153C392.605 283.623 388.801 283.235 384.991 282.988ZM353.576 289.468C353.378 289.495 353.218 289.357 353.219 289.159C353.219 288.962 353.379 288.778 353.576 288.75C355.081 288.54 356.587 288.352 358.096 288.186C358.293 288.164 358.454 288.308 358.454 288.506C358.454 288.703 358.293 288.882 358.095 288.904C356.587 289.07 355.08 289.257 353.576 289.468ZM353.572 295.392C353.375 295.419 353.214 295.282 353.215 295.083C353.215 294.886 353.375 294.702 353.572 294.674C357.109 294.18 360.658 293.809 364.214 293.56C364.413 293.546 364.572 293.697 364.573 293.894C364.573 294.092 364.411 294.263 364.213 294.278C360.658 294.526 357.108 294.897 353.572 295.392ZM390.958 288.805C390.76 288.785 390.599 288.607 390.6 288.409C390.6 288.212 390.76 288.067 390.958 288.088C392.772 288.276 394.583 288.497 396.391 288.749C396.588 288.777 396.748 288.961 396.748 289.158C396.748 289.356 396.588 289.494 396.391 289.466C394.583 289.214 392.772 288.993 390.958 288.805ZM361.971 288.527C361.774 288.544 361.613 288.396 361.613 288.199C361.613 288.001 361.774 287.826 361.972 287.809C370.352 287.101 378.775 287.078 387.158 287.74C387.356 287.756 387.516 287.93 387.517 288.128C387.517 288.326 387.355 288.473 387.157 288.458C378.775 287.796 370.352 287.819 361.971 288.527ZM353.568 301.196C353.371 301.224 353.21 301.086 353.211 300.888C353.211 300.69 353.371 300.507 353.569 300.479C362.913 299.172 372.346 298.725 381.75 299.137C381.949 299.146 382.109 299.314 382.109 299.512C382.109 299.71 381.948 299.863 381.749 299.855C372.345 299.442 362.912 299.889 353.568 301.196ZM368.917 311.063C368.719 311.07 368.558 310.916 368.558 310.719C368.559 310.52 368.719 310.354 368.918 310.345C378.011 309.989 387.127 310.435 396.159 311.685C396.357 311.712 396.516 311.896 396.516 312.094C396.515 312.292 396.356 312.43 396.159 312.403C387.126 311.153 378.01 310.706 368.917 311.063ZM384.98 300.03C384.782 300.017 384.62 299.846 384.62 299.648C384.62 299.451 384.782 299.3 384.98 299.312C388.791 299.56 392.595 299.948 396.384 300.477C396.581 300.505 396.741 300.689 396.741 300.887C396.741 301.085 396.58 301.223 396.383 301.195C392.594 300.665 388.79 300.277 384.98 300.03ZM353.565 306.51C353.367 306.538 353.207 306.399 353.208 306.202C353.208 306.003 353.368 305.82 353.565 305.793C355.069 305.582 356.576 305.394 358.084 305.228C358.282 305.207 358.443 305.35 358.443 305.548C358.443 305.746 358.282 305.924 358.084 305.946C356.575 306.111 355.069 306.3 353.565 306.51ZM353.561 312.433C353.364 312.461 353.203 312.323 353.204 312.125C353.204 311.928 353.364 311.744 353.561 311.716C357.098 311.221 360.647 310.85 364.203 310.602C364.401 310.588 364.561 310.738 364.562 310.936C364.562 311.133 364.4 311.306 364.202 311.319C360.647 311.568 357.098 311.939 353.561 312.433ZM390.947 305.847C390.749 305.826 390.589 305.649 390.589 305.451C390.589 305.253 390.749 305.109 390.948 305.129C392.761 305.318 394.572 305.538 396.38 305.791C396.577 305.818 396.737 306.003 396.737 306.2C396.737 306.398 396.577 306.537 396.38 306.508C394.572 306.256 392.761 306.035 390.947 305.847ZM361.96 305.569C361.763 305.586 361.602 305.438 361.602 305.241C361.602 305.043 361.763 304.868 361.961 304.851C370.341 304.143 378.764 304.12 387.147 304.782C387.345 304.798 387.505 304.972 387.506 305.17C387.506 305.368 387.344 305.515 387.146 305.5C378.764 304.838 370.341 304.861 361.96 305.569ZM353.557 318.238C353.36 318.265 353.199 318.127 353.2 317.93C353.2 317.732 353.36 317.548 353.558 317.52C362.901 316.214 372.334 315.767 381.739 316.179C381.938 316.188 382.098 316.356 382.098 316.554C382.098 316.752 381.937 316.904 381.738 316.897C372.334 316.484 362.901 316.931 353.557 318.238ZM384.969 317.072C384.77 317.059 384.609 316.888 384.609 316.69C384.609 316.493 384.771 316.342 384.969 316.354C388.78 316.601 392.584 316.99 396.373 317.52C396.57 317.547 396.73 317.731 396.73 317.929C396.73 318.127 396.569 318.265 396.372 318.237C392.583 317.707 388.779 317.319 384.969 317.072ZM353.554 323.552C353.356 323.579 353.196 323.442 353.197 323.243C353.197 323.045 353.357 322.862 353.554 322.834C355.059 322.624 356.565 322.436 358.074 322.27C358.271 322.249 358.432 322.392 358.432 322.59C358.432 322.787 358.271 322.967 358.073 322.988C356.565 323.154 355.058 323.342 353.554 323.552ZM390.936 322.889C390.738 322.869 390.578 322.691 390.578 322.493C390.578 322.296 390.738 322.151 390.937 322.172C392.75 322.36 394.561 322.58 396.369 322.833C396.566 322.86 396.726 323.044 396.726 323.242C396.726 323.44 396.566 323.578 396.369 323.551C394.561 323.298 392.75 323.077 390.936 322.889ZM361.949 322.611C361.752 322.627 361.59 322.481 361.591 322.283C361.591 322.085 361.752 321.91 361.95 321.893C370.33 321.185 378.753 321.162 387.136 321.824C387.334 321.839 387.494 322.013 387.495 322.212C387.495 322.409 387.333 322.557 387.135 322.542C378.753 321.88 370.33 321.903 361.949 322.611ZM303.717 267.805C303.717 267.577 303.717 267.348 303.717 267.12C303.717 267.111 303.724 267.102 303.733 267.1C313.351 264.832 322.965 267.08 332.581 267.853C332.591 267.854 332.597 267.862 332.597 267.871C332.597 268.099 332.597 268.327 332.597 268.555C332.597 268.564 332.59 268.571 332.58 268.57C322.965 267.797 313.35 265.549 303.733 267.817C303.724 267.82 303.717 267.814 303.717 267.805ZM319.437 278.4C319.238 278.382 319.078 278.207 319.077 278.009C319.078 277.811 319.239 277.664 319.437 277.682C328.512 278.507 337.586 280.448 346.662 278.471C346.86 278.428 347.021 278.552 347.021 278.75C347.02 278.947 346.859 279.145 346.661 279.189C337.585 281.166 328.511 279.224 319.437 278.4ZM335.465 268.752C335.267 268.744 335.105 268.574 335.106 268.377C335.106 268.179 335.267 268.026 335.465 268.035C339.272 268.2 343.08 268.041 346.887 267.186C347.086 267.141 347.247 267.264 347.246 267.461C347.246 267.659 347.086 267.858 346.887 267.903C343.079 268.759 339.272 268.918 335.465 268.752ZM304.072 273.052C303.874 273.096 303.713 272.974 303.713 272.776C303.714 272.578 303.874 272.379 304.073 272.335C305.584 271.995 307.096 271.765 308.607 271.622C308.805 271.603 308.967 271.75 308.966 271.948C308.966 272.146 308.805 272.32 308.607 272.339C307.095 272.482 305.584 272.712 304.072 273.052ZM304.068 278.976C303.87 279.02 303.71 278.898 303.71 278.7C303.71 278.502 303.87 278.303 304.069 278.258C307.622 277.46 311.176 277.268 314.729 277.381C314.926 277.387 315.088 277.554 315.087 277.752C315.088 277.949 314.925 278.104 314.728 278.098C311.175 277.985 307.622 278.177 304.068 278.976ZM341.433 274.006C341.236 274.021 341.075 273.87 341.075 273.672C341.075 273.473 341.237 273.303 341.434 273.288C343.25 273.157 345.067 272.907 346.884 272.499C347.082 272.455 347.243 272.577 347.243 272.775C347.242 272.973 347.082 273.172 346.884 273.216C345.067 273.625 343.25 273.875 341.433 274.006ZM312.487 272.146C312.289 272.148 312.128 271.99 312.128 271.792C312.129 271.594 312.29 271.431 312.487 271.429C320.869 271.36 329.249 273.341 337.63 273.405C337.829 273.407 337.989 273.568 337.989 273.765C337.989 273.963 337.828 274.124 337.63 274.122C329.248 274.058 320.868 272.078 312.487 272.146ZM304.065 284.781C303.866 284.825 303.706 284.702 303.706 284.505C303.707 284.307 303.866 284.108 304.065 284.063C313.454 281.953 322.84 284.078 332.228 284.867C332.425 284.883 332.586 285.057 332.587 285.255C332.586 285.452 332.426 285.601 332.227 285.584C322.84 284.796 313.454 282.671 304.065 284.781ZM319.426 295.442C319.227 295.424 319.067 295.249 319.067 295.051C319.067 294.853 319.228 294.706 319.426 294.724C328.501 295.549 337.575 297.49 346.651 295.513C346.849 295.47 347.011 295.594 347.01 295.792C347.009 295.99 346.848 296.188 346.651 296.231C337.574 298.208 328.5 296.267 319.426 295.442ZM335.453 285.794C335.256 285.785 335.094 285.617 335.095 285.419C335.095 285.221 335.256 285.068 335.454 285.077C339.261 285.243 343.069 285.084 346.877 284.228C347.075 284.183 347.236 284.306 347.236 284.504C347.235 284.702 347.075 284.901 346.876 284.946C343.068 285.801 339.261 285.96 335.453 285.794ZM304.061 290.094C303.863 290.139 303.703 290.016 303.703 289.818C303.703 289.621 303.863 289.421 304.062 289.377C305.573 289.037 307.085 288.807 308.596 288.664C308.794 288.645 308.956 288.792 308.955 288.99C308.955 289.188 308.794 289.362 308.596 289.381C307.085 289.525 305.573 289.754 304.061 290.094ZM304.057 296.018C303.859 296.063 303.699 295.94 303.699 295.742C303.699 295.544 303.859 295.345 304.058 295.3C307.611 294.502 311.165 294.31 314.718 294.423C314.915 294.429 315.077 294.596 315.076 294.794C315.076 294.991 314.914 295.147 314.717 295.14C311.164 295.027 307.611 295.219 304.057 296.018ZM341.422 291.048C341.225 291.062 341.064 290.912 341.064 290.714C341.064 290.516 341.226 290.344 341.423 290.33C343.239 290.199 345.056 289.949 346.873 289.541C347.071 289.497 347.232 289.619 347.232 289.817C347.231 290.015 347.071 290.214 346.872 290.258C345.056 290.667 343.239 290.916 341.422 291.048ZM312.476 289.188C312.278 289.19 312.117 289.032 312.117 288.834C312.118 288.636 312.279 288.473 312.476 288.471C320.858 288.402 329.238 290.383 337.619 290.447C337.818 290.448 337.978 290.609 337.978 290.807C337.978 291.005 337.817 291.166 337.619 291.165C329.237 291.1 320.857 289.12 312.476 289.188ZM304.054 301.823C303.855 301.867 303.695 301.745 303.695 301.547C303.695 301.349 303.855 301.15 304.054 301.105C313.443 298.995 322.83 301.12 332.217 301.909C332.415 301.925 332.576 302.099 332.576 302.297C332.575 302.495 332.415 302.642 332.216 302.626C322.829 301.838 313.443 299.712 304.054 301.823ZM319.415 312.484C319.216 312.466 319.056 312.291 319.056 312.093C319.056 311.895 319.217 311.748 319.415 311.767C328.49 312.591 337.564 314.532 346.64 312.556C346.838 312.512 347 312.636 346.999 312.834C346.999 313.032 346.837 313.23 346.64 313.273C337.563 315.25 328.489 313.309 319.415 312.484ZM335.442 302.836C335.245 302.827 335.083 302.659 335.083 302.461C335.084 302.262 335.245 302.11 335.443 302.118C339.25 302.284 343.057 302.125 346.865 301.269C347.064 301.224 347.225 301.347 347.224 301.545C347.224 301.743 347.064 301.943 346.865 301.987C343.057 302.843 339.25 303.002 335.442 302.836ZM304.05 307.136C303.852 307.181 303.692 307.059 303.692 306.86C303.692 306.663 303.852 306.463 304.051 306.419C305.562 306.079 307.074 305.849 308.585 305.706C308.783 305.687 308.945 305.834 308.944 306.032C308.944 306.23 308.783 306.404 308.585 306.423C307.073 306.567 305.562 306.796 304.05 307.136ZM304.046 313.06C303.848 313.105 303.688 312.982 303.688 312.784C303.688 312.586 303.848 312.387 304.047 312.343C307.6 311.544 311.154 311.352 314.707 311.465C314.904 311.471 315.066 311.638 315.065 311.836C315.065 312.033 314.903 312.188 314.706 312.182C311.153 312.069 307.6 312.261 304.046 313.06ZM341.411 308.09C341.214 308.105 341.053 307.953 341.053 307.756C341.053 307.558 341.215 307.386 341.412 307.373C343.228 307.241 345.045 306.991 346.862 306.583C347.06 306.539 347.221 306.661 347.221 306.859C347.22 307.057 347.06 307.256 346.861 307.3C345.045 307.709 343.228 307.959 341.411 308.09ZM312.465 306.23C312.267 306.232 312.106 306.074 312.106 305.876C312.107 305.678 312.268 305.515 312.465 305.513C320.846 305.445 329.227 307.425 337.608 307.489C337.806 307.491 337.967 307.652 337.967 307.849C337.967 308.047 337.806 308.209 337.607 308.207C329.226 308.142 320.846 306.162 312.465 306.23ZM304.043 318.864C303.844 318.909 303.684 318.787 303.684 318.588C303.684 318.391 303.844 318.192 304.043 318.147C313.432 316.037 322.819 318.162 332.206 318.951C332.404 318.967 332.564 319.141 332.565 319.339C332.564 319.537 332.404 319.685 332.205 319.668C322.818 318.88 313.432 316.754 304.043 318.864ZM335.431 319.878C335.233 319.869 335.072 319.701 335.072 319.503C335.073 319.305 335.234 319.152 335.432 319.161C339.239 319.326 343.046 319.167 346.854 318.311C347.052 318.267 347.214 318.39 347.213 318.587C347.213 318.785 347.053 318.984 346.854 319.029C343.046 319.885 339.239 320.044 335.431 319.878ZM304.039 324.178C303.841 324.223 303.681 324.1 303.68 323.902C303.681 323.705 303.841 323.505 304.04 323.461C305.551 323.121 307.063 322.891 308.574 322.748C308.772 322.729 308.934 322.876 308.933 323.074C308.933 323.272 308.772 323.446 308.574 323.465C307.062 323.609 305.551 323.839 304.039 324.178ZM341.401 325.132C341.203 325.147 341.042 324.995 341.042 324.798C341.042 324.6 341.204 324.428 341.401 324.414C343.218 324.283 345.034 324.033 346.851 323.625C347.049 323.58 347.21 323.703 347.21 323.901C347.209 324.099 347.05 324.298 346.851 324.342C345.034 324.751 343.217 325.001 341.401 325.132ZM312.454 323.272C312.256 323.274 312.095 323.116 312.095 322.918C312.096 322.72 312.257 322.557 312.454 322.555C320.836 322.486 329.216 324.467 337.597 324.531C337.796 324.533 337.956 324.693 337.956 324.891C337.956 325.089 337.795 325.25 337.597 325.249C329.215 325.185 320.835 323.204 312.454 323.272Z" fill="#ABA3FE"/>
</g>
<defs>
<linearGradient id="paint0_linear_69_252" x1="8.85233e-07" y1="187.895" x2="719.988" y2="186.165" gradientUnits="userSpaceOnUse">
<stop stop-color="#C0B9FC"/>
<stop offset="0.512305" stop-color="#9B92FF"/>
<stop offset="1" stop-color="#3931FF"/>
</linearGradient>
<linearGradient id="paint1_linear_69_252" x1="529.26" y1="220.215" x2="588.181" y2="158.161" gradientUnits="userSpaceOnUse">
<stop offset="0.184024" stop-color="#006D5E"/>
<stop offset="1" stop-color="#10F1D3"/>
</linearGradient>
<linearGradient id="paint2_linear_69_252" x1="529.275" y1="220.762" x2="586.107" y2="158.792" gradientUnits="userSpaceOnUse">
<stop offset="0.184024" stop-color="#006D5E"/>
<stop offset="1" stop-color="#10F1D3"/>
</linearGradient>
<linearGradient id="paint3_linear_69_252" x1="521.209" y1="212.666" x2="601.584" y2="199.351" gradientUnits="userSpaceOnUse">
<stop stop-color="#7B73FF"/>
<stop offset="1" stop-color="#766FFF"/>
</linearGradient>
<linearGradient id="paint4_linear_69_252" x1="535.591" y1="226.686" x2="562.144" y2="168.841" gradientUnits="userSpaceOnUse">
<stop offset="0.184024" stop-color="#006D5E"/>
<stop offset="1" stop-color="#10F1D3"/>
</linearGradient>
<linearGradient id="paint5_linear_69_252" x1="535.634" y1="228.172" x2="555.328" y2="176.642" gradientUnits="userSpaceOnUse">
<stop offset="0.184024" stop-color="#006D5E"/>
<stop offset="1" stop-color="#10F1D3"/>
</linearGradient>
<linearGradient id="paint6_linear_69_252" x1="526.575" y1="224.218" x2="615.388" y2="193.151" gradientUnits="userSpaceOnUse">
<stop stop-color="#7B73FF"/>
<stop offset="1" stop-color="#756DFF"/>
</linearGradient>
<linearGradient id="paint7_linear_69_252" x1="490.379" y1="218.432" x2="473.641" y2="283.226" gradientUnits="userSpaceOnUse">
<stop stop-color="#C96409"/>
<stop offset="1" stop-color="#FFBC81"/>
</linearGradient>
<linearGradient id="paint8_linear_69_252" x1="490.379" y1="218.432" x2="479.549" y2="260.357" gradientUnits="userSpaceOnUse">
<stop stop-color="#FBB785"/>
<stop offset="1" stop-color="#E77B2C"/>
</linearGradient>
<linearGradient id="paint9_linear_69_252" x1="481.117" y1="249.313" x2="482.7" y2="251.999" gradientUnits="userSpaceOnUse">
<stop stop-color="#3E2723" stop-opacity="0.2"/>
<stop offset="1" stop-color="#3E2723" stop-opacity="0.02"/>
</linearGradient>
<linearGradient id="paint10_linear_69_252" x1="472.616" y1="206.11" x2="513.824" y2="276.026" gradientUnits="userSpaceOnUse">
<stop stop-color="#3E2723" stop-opacity="0.2"/>
<stop offset="1" stop-color="#3E2723" stop-opacity="0.02"/>
</linearGradient>
<linearGradient id="paint11_linear_69_252" x1="440.05" y1="216.258" x2="523.97" y2="285.4" gradientUnits="userSpaceOnUse">
<stop stop-color="white" stop-opacity="0.2"/>
<stop offset="1" stop-color="white" stop-opacity="0"/>
</linearGradient>
<linearGradient id="paint12_linear_69_252" x1="349.944" y1="110.05" x2="344.042" y2="183.488" gradientUnits="userSpaceOnUse">
<stop stop-color="#DEE1E2"/>
<stop offset="1" stop-color="#B4BCBE"/>
</linearGradient>
<linearGradient id="paint13_linear_69_252" x1="323.94" y1="112.88" x2="401.899" y2="106.129" gradientUnits="userSpaceOnUse">
<stop stop-color="#FEFEFC"/>
<stop offset="0.09" stop-color="#FEFEFC" stop-opacity="0.96"/>
<stop offset="0.25" stop-color="#FEFEFC" stop-opacity="0.86"/>
<stop offset="0.44" stop-color="#FEFEFD" stop-opacity="0.7"/>
<stop offset="0.68" stop-color="#FFFFFE" stop-opacity="0.47"/>
<stop offset="0.93" stop-color="white" stop-opacity="0.18"/>
<stop offset="1" stop-color="white" stop-opacity="0.1"/>
</linearGradient>
<linearGradient id="paint14_linear_69_252" x1="346.995" y1="86.1373" x2="353.037" y2="155.905" gradientUnits="userSpaceOnUse">
<stop stop-color="#DEE1E2"/>
<stop offset="1" stop-color="#B4BCBE"/>
</linearGradient>
<linearGradient id="paint15_linear_69_252" x1="321.662" y1="149.266" x2="557.059" y2="128.881" gradientUnits="userSpaceOnUse">
<stop stop-color="#DEE1E2"/>
<stop offset="1" stop-color="#B4BCBE"/>
</linearGradient>
<linearGradient id="paint16_linear_69_252" x1="314.638" y1="159.265" x2="326.527" y2="117.821" gradientUnits="userSpaceOnUse">
<stop stop-color="#DEE1E2"/>
<stop offset="1" stop-color="#B4BCBE"/>
</linearGradient>
<linearGradient id="paint17_linear_69_252" x1="268.617" y1="134.261" x2="313.422" y2="97.6636" gradientUnits="userSpaceOnUse">
<stop stop-color="#FB9835"/>
<stop offset="1" stop-color="#FBBB3C"/>
</linearGradient>
<linearGradient id="paint18_linear_69_252" x1="317.234" y1="84.6902" x2="359.394" y2="51.1596" gradientUnits="userSpaceOnUse">
<stop stop-color="#2FA2FA"/>
<stop offset="1" stop-color="#37D3FB"/>
</linearGradient>
<linearGradient id="paint19_linear_69_252" x1="320.418" y1="84.7699" x2="353.843" y2="57.7684" gradientUnits="userSpaceOnUse">
<stop stop-color="#02855E"/>
<stop offset="1" stop-color="#87FFCD"/>
</linearGradient>
<linearGradient id="paint20_linear_69_252" x1="391.589" y1="176.203" x2="390.34" y2="129.19" gradientUnits="userSpaceOnUse">
<stop stop-color="#2FA2FA"/>
<stop offset="1" stop-color="#37D3FB"/>
</linearGradient>
<linearGradient id="paint21_linear_69_252" x1="395.665" y1="100.814" x2="390.744" y2="64.1874" gradientUnits="userSpaceOnUse">
<stop stop-color="#4622D9"/>
<stop offset="1" stop-color="#D8C0FF"/>
</linearGradient>
<linearGradient id="paint22_linear_69_252" x1="207.344" y1="266.923" x2="97.8338" y2="267.887" gradientUnits="userSpaceOnUse">
<stop offset="0.184024" stop-color="#006D5E"/>
<stop offset="1" stop-color="#10F1D3"/>
</linearGradient>
<linearGradient id="paint23_linear_69_252" x1="184.826" y1="263.078" x2="110.867" y2="247.553" gradientUnits="userSpaceOnUse">
<stop offset="0.184024" stop-color="#006D5E"/>
<stop offset="1" stop-color="#10F1D3"/>
</linearGradient>
<radialGradient id="paint24_radial_69_252" cx="0" cy="0" r="1" gradientUnits="userSpaceOnUse" gradientTransform="translate(244.981 241.054) rotate(-21.2591) scale(47.1248 47.1248)">
<stop stop-color="#EAF7FF"/>
<stop offset="0.99" stop-color="#C2C1FC"/>
</radialGradient>
<linearGradient id="paint25_linear_69_252" x1="297.886" y1="298.378" x2="402.556" y2="298.449" gradientUnits="userSpaceOnUse">
<stop stop-color="#ED2944"/>
<stop offset="1" stop-color="#FFA3AF"/>
</linearGradient>
<clipPath id="clip0_69_252">
<rect width="720" height="400" fill="white"/>
</clipPath>
<clipPath id="clip1_69_252">
<rect width="94.4759" height="94.4759" fill="white" transform="translate(449.566 187.56) rotate(14.4848)"/>
</clipPath>
</defs>
</svg>
