<svg width="720" height="400" viewBox="0 0 720 400" fill="none" xmlns="http://www.w3.org/2000/svg">
<g clip-path="url(#clip0_75_1519)">
<rect width="720" height="400" fill="white"/>
<rect width="720" height="400" fill="url(#paint0_linear_75_1519)"/>
<path opacity="0.24" d="M545.624 219.886C546.785 218.525 549.081 218.713 550.427 219.884C551.773 221.056 552.341 222.896 552.591 224.671C552.995 227.541 552.752 230.239 552.374 233.047C553.799 230.771 555.3 228.543 556.876 226.369C557.914 224.932 558.986 223.518 560.088 222.126C557.05 219.491 554.819 215.93 553.782 212.04C553.39 210.565 553.221 208.825 554.213 207.667C555.373 206.315 557.67 206.503 559.016 207.669C560.363 208.835 560.932 210.665 561.182 212.43C561.604 215.393 561.327 218.172 560.927 221.079C564.371 216.83 568.116 212.821 572.18 209.167C569.663 206.106 568.063 202.292 567.662 198.345C567.507 196.827 567.616 195.082 568.779 194.096C570.138 192.945 572.376 193.496 573.521 194.861C574.667 196.226 574.939 198.123 574.907 199.906C574.855 202.794 574.19 205.409 573.374 208.111C577.719 204.328 582.571 200.803 588.016 198.878C588.129 198.837 588.244 198.802 588.358 198.763C586.257 195.349 585.193 191.3 585.36 187.292C585.424 185.767 585.78 184.055 587.072 183.246C588.581 182.301 590.718 183.166 591.656 184.681C592.595 186.195 592.594 188.112 592.309 189.872C591.806 192.973 590.63 195.649 589.306 198.446C595.656 196.394 602.411 195.507 608.68 193.24C606.507 189.789 605.402 185.671 605.572 181.594C605.635 180.069 605.992 178.357 607.284 177.548C608.793 176.603 610.929 177.468 611.868 178.983C612.806 180.497 612.806 182.414 612.52 184.174C612.003 187.358 610.777 190.095 609.41 192.974C610.967 192.38 612.491 191.694 613.968 190.874C616.959 189.213 619.566 186.926 621.748 184.251C618.651 181.457 616.446 177.686 615.541 173.611C615.211 172.121 615.115 170.375 616.155 169.26C617.371 167.957 619.658 168.242 620.954 169.463C622.251 170.685 622.742 172.537 622.919 174.311C623.243 177.565 622.745 180.562 622.154 183.744C625.585 179.354 627.9 173.994 628.907 168.64C626.427 165.782 624.759 162.219 624.175 158.476C623.94 156.968 623.955 155.219 625.064 154.173C626.359 152.95 628.624 153.38 629.84 154.682C631.056 155.984 631.429 157.864 631.493 159.645C631.594 162.487 631.087 165.097 630.432 167.793C630.463 167.892 630.473 168.002 630.453 168.127C629.698 172.703 628.004 177.103 625.622 181.073C625.094 181.952 624.535 182.811 623.945 183.648C627.044 181.664 630.688 180.535 634.366 180.447C635.889 180.411 637.618 180.656 638.509 181.894C639.549 183.341 638.827 185.533 637.379 186.57C635.931 187.607 634.022 187.731 632.25 187.561C628.945 187.243 626.064 186.142 623.005 184.919C621.687 186.624 620.212 188.205 618.534 189.551C615.993 191.59 613.167 193.056 610.195 194.2C613.965 193.775 617.855 194.427 621.271 196.081C622.643 196.745 624.07 197.753 624.298 199.262C624.565 201.024 622.923 202.644 621.162 202.906C619.402 203.167 617.646 202.404 616.147 201.443C613.275 199.601 611.178 197.226 608.948 194.661C603.993 196.407 598.694 197.375 593.664 198.683C592.081 199.094 590.521 199.548 588.994 200.083C593.059 199.415 597.326 200.022 601.038 201.814C602.411 202.476 603.839 203.482 604.069 204.99C604.337 206.753 602.698 208.375 600.938 208.639C599.178 208.902 597.421 208.142 595.921 207.182C592.981 205.302 590.851 202.864 588.559 200.235C586.937 200.823 585.355 201.514 583.826 202.366C581.031 203.925 578.416 205.8 575.937 207.82C575.277 208.357 574.628 208.907 573.986 209.466C577.598 208.511 581.477 208.571 585.052 209.662C586.51 210.106 588.074 210.882 588.532 212.337C589.066 214.038 587.693 215.892 585.994 216.422C584.294 216.952 582.442 216.469 580.813 215.75C577.804 214.422 575.43 212.494 572.935 210.395C568.965 213.964 565.324 217.916 561.967 222.069C565.378 220.176 569.34 219.287 573.23 219.568C574.75 219.678 576.447 220.086 577.215 221.404C578.113 222.943 577.185 225.057 575.645 225.95C574.105 226.845 572.192 226.785 570.445 226.446C567.129 225.802 564.327 224.393 561.341 222.852C560.9 223.406 560.464 223.963 560.032 224.524C557.669 227.6 555.435 230.796 553.386 234.104C556.735 232.311 560.594 231.476 564.383 231.75C565.903 231.86 567.6 232.268 568.369 233.586C569.266 235.125 568.338 237.239 566.798 238.133C565.258 239.027 563.346 238.967 561.598 238.628C558.373 238.002 555.635 236.652 552.741 235.162C550.45 238.961 548.408 242.909 546.7 246.999C546.344 247.851 545.05 247.239 545.405 246.389C547.129 242.259 549.2 238.277 551.515 234.442C548.466 231.792 546.227 228.204 545.19 224.282C544.798 222.801 544.631 221.051 545.624 219.886Z" fill="white"/>
<path opacity="0.24" d="M480.395 162.779C480.868 161.053 483.027 160.244 484.742 160.731C486.458 161.218 487.753 162.642 488.733 164.142C490.317 166.568 491.243 169.114 492.093 171.816C492.416 169.148 492.829 166.493 493.332 163.853C493.662 162.111 494.031 160.374 494.438 158.645C490.569 157.554 487.038 155.282 484.449 152.203C483.467 151.035 482.576 149.532 482.982 148.062C483.458 146.343 485.616 145.535 487.33 146.017C489.044 146.498 490.336 147.913 491.312 149.403C492.952 151.906 493.881 154.539 494.753 157.34C496.066 152.027 497.754 146.804 499.881 141.766C496.303 140.067 493.236 137.297 491.197 133.896C490.413 132.588 489.77 130.961 490.405 129.574C491.146 127.954 493.405 127.499 495.021 128.247C496.637 128.994 497.689 130.595 498.417 132.222C499.596 134.858 500.104 137.509 500.513 140.302C502.839 135.027 505.734 129.769 509.845 125.708C509.93 125.624 510.02 125.543 510.106 125.459C506.755 123.264 504.073 120.052 502.523 116.353C501.932 114.946 501.528 113.245 502.354 111.962C503.319 110.464 505.62 110.337 507.112 111.308C508.605 112.279 509.418 114.014 509.906 115.729C510.768 118.749 510.84 121.673 510.83 124.768C515.705 120.206 521.442 116.526 526.154 111.804C522.722 109.606 519.974 106.35 518.397 102.587C517.807 101.18 517.403 99.4788 518.228 98.1964C519.193 96.698 521.494 96.5711 522.987 97.5423C524.479 98.5135 525.292 100.248 525.781 101.963C526.665 105.064 526.718 108.064 526.702 111.252C527.859 110.051 528.947 108.781 529.936 107.409C531.938 104.632 533.326 101.452 534.166 98.1013C530.177 96.892 526.58 94.4177 524.031 91.1148C523.099 89.9072 522.271 88.3678 522.739 86.9154C523.286 85.2191 525.477 84.5025 527.169 85.0555C528.861 85.609 530.092 87.0761 531.005 88.6063C532.68 91.4129 533.502 94.3374 534.318 97.4692C535.56 92.0348 535.38 86.1971 534.018 80.923C530.56 79.3924 527.537 76.8776 525.42 73.739C524.567 72.4744 523.838 70.8855 524.397 69.4662C525.051 67.8075 527.283 67.2325 528.936 67.8925C530.59 68.5525 531.726 70.0953 532.539 71.6808C533.838 74.2101 534.487 76.7875 535.039 79.507C535.108 79.5831 535.165 79.6787 535.199 79.8004C536.459 84.2636 536.793 88.9673 536.323 93.5755C536.219 94.5954 536.078 95.6111 535.899 96.6206C537.862 93.5049 540.68 90.9304 543.972 89.284C545.335 88.6024 547.003 88.0875 548.335 88.8287C549.891 89.695 550.168 91.9862 549.298 93.5417C548.428 95.0972 546.753 96.0231 545.076 96.624C541.95 97.744 538.876 97.974 535.587 98.1706C535.118 100.275 534.454 102.334 533.507 104.267C532.073 107.196 530.138 109.726 527.934 112.027C531.166 110.037 534.963 108.97 538.757 109.011C540.281 109.028 542 109.332 542.847 110.601C543.837 112.083 543.039 114.248 541.556 115.235C540.074 116.221 538.161 116.279 536.396 116.047C533.014 115.603 530.108 114.347 527.001 112.976C523.257 116.667 518.872 119.8 514.875 123.126C513.617 124.173 512.398 125.248 511.242 126.383C514.638 124.046 518.758 122.778 522.878 122.819C524.402 122.833 526.121 123.136 526.97 124.403C527.962 125.884 527.167 128.05 525.685 129.039C524.204 130.027 522.291 130.087 520.526 129.858C517.067 129.408 514.104 128.108 510.914 126.705C509.695 127.929 508.557 129.228 507.535 130.65C505.667 133.252 504.096 136.063 502.71 138.948C502.342 139.715 501.986 140.489 501.643 141.268C504.507 138.865 508.043 137.268 511.742 136.732C513.25 136.513 514.995 136.549 516.027 137.671C517.233 138.983 516.778 141.246 515.464 142.449C514.151 143.652 512.27 144.005 510.491 144.048C507.203 144.128 504.236 143.394 501.086 142.557C499.009 147.479 497.391 152.606 496.117 157.795C498.399 154.629 501.608 152.136 505.248 150.733C506.67 150.185 508.38 149.832 509.635 150.698C511.101 151.709 511.158 154.016 510.143 155.481C509.129 156.946 507.373 157.708 505.647 158.145C502.373 158.975 499.239 158.893 495.882 158.77C495.719 159.46 495.559 160.15 495.407 160.84C494.574 164.632 493.909 168.475 493.459 172.343C495.73 169.293 498.867 166.893 502.413 165.527C503.835 164.979 505.545 164.626 506.8 165.491C508.266 166.503 508.323 168.81 507.308 170.275C506.294 171.74 504.538 172.502 502.813 172.939C499.628 173.746 496.576 173.69 493.324 173.574C492.864 177.989 492.691 182.432 492.882 186.861C492.922 187.783 491.491 187.781 491.451 186.861C491.259 182.388 491.443 177.902 491.91 173.445C488.025 172.345 484.475 170.052 481.871 166.943C480.885 165.769 479.991 164.256 480.395 162.779Z" fill="white"/>
<path d="M526.189 158.678C519.493 173.631 497.968 178.886 490.286 193.858C486.211 202.645 490.32 210.738 492.399 218.67C494.875 233.265 496.798 249.783 491.593 265.877C488.711 273.217 483.336 280.2 481.757 287.598C488.491 286.896 496.496 284.933 504.275 281.819C504.415 281.643 504.556 281.457 504.692 281.277C509.994 274.159 513.524 265.509 512.409 256.502C511.396 248.3 507.081 240.201 508.924 231.811C509.931 227.219 512.807 223.379 515.509 219.651C518.295 215.798 520.748 211.927 521.822 207.238C523.621 199.415 522.523 190.435 527.146 183.469C529.971 179.221 534.579 176.871 538.684 174.087C540.982 172.534 543.155 170.774 544.764 168.487C546.138 166.535 547.1 164.341 547.83 162.077C549.27 157.611 549.889 152.931 551.258 148.445C552.643 143.892 554.995 139.775 558.032 136.124C564.666 128.154 573.687 122.818 581.934 116.741C589.393 111.24 596.93 104.633 600.51 95.8397C600.631 95.5412 600.749 95.238 600.857 94.9349C599.861 93.9125 598.53 93.11 596.836 92.5895C582.037 90.0662 572.284 111.298 559.673 118.032C544.527 124.337 531.639 123.549 529.42 143.228C528.711 148.37 528.544 153.605 526.189 158.678Z" fill="url(#paint1_linear_75_1519)"/>
<path d="M581.934 116.741C573.688 122.817 564.667 128.154 558.033 136.123C554.996 139.774 552.643 143.892 551.258 148.445C549.89 152.931 549.271 157.611 547.831 162.076C547.1 164.34 546.138 166.534 544.765 168.486C543.156 170.773 540.982 172.533 538.685 174.087C534.58 176.871 529.972 179.22 527.146 183.468C522.524 190.435 523.621 199.414 521.823 207.238C520.749 211.927 518.296 215.798 515.509 219.65C512.808 223.378 509.932 227.219 508.924 231.81C507.082 240.2 511.397 248.3 512.41 256.501C513.525 265.509 509.995 274.159 504.692 281.276C504.557 281.457 504.416 281.642 504.275 281.818C504.672 281.664 505.065 281.503 505.456 281.336C523.36 273.883 539.653 260.317 535.918 241.946C532.031 233.513 528.002 226.938 539.601 218.532C557.182 202.542 580.789 192.025 574.606 168.101C572.592 157.28 564.683 142.056 575.378 130.633C580.233 126.695 586.373 125.361 591.314 121.57C600.547 115.474 606.597 101.944 601.353 95.49C601.203 95.2919 601.037 95.106 600.857 94.934C600.748 95.2382 600.632 95.5398 600.51 95.8388C596.931 104.632 589.393 111.24 581.934 116.741Z" fill="url(#paint2_linear_75_1519)"/>
<path d="M581.934 116.741C573.688 122.817 564.667 128.154 558.033 136.123C554.996 139.774 552.643 143.892 551.258 148.445C549.89 152.931 549.271 157.611 547.831 162.076C547.1 164.341 546.138 166.534 544.765 168.486C543.156 170.773 540.982 172.533 538.685 174.087C534.58 176.871 529.972 179.22 527.146 183.468C522.524 190.435 523.621 199.415 521.823 207.238C520.749 211.927 518.296 215.798 515.509 219.65C512.808 223.378 509.932 227.219 508.924 231.81C507.082 240.2 511.397 248.3 512.41 256.501C513.525 265.509 509.995 274.159 504.692 281.277C504.557 281.457 504.416 281.642 504.275 281.819C504.672 281.664 505.065 281.503 505.456 281.336C506.724 279.606 507.877 277.794 508.906 275.912C510.828 272.376 512.257 268.56 512.891 264.584C513.563 260.352 513.186 256.165 512.245 252.001C511.279 247.755 509.874 243.591 509.335 239.259C508.71 234.307 509.698 229.769 512.272 225.487C514.793 221.297 518.154 217.657 520.367 213.268C522.225 209.573 522.929 205.504 523.403 201.433C523.891 197.182 524.13 192.842 525.407 188.732C526.954 183.738 530.275 180.353 534.565 177.516C538.718 174.774 543.146 172.315 545.865 167.983C548.272 164.146 549.251 159.635 550.22 155.272C551.288 150.457 552.471 145.753 555.004 141.475C557.707 136.921 561.43 133.07 565.445 129.67C577.522 119.43 595.596 111.144 601.354 95.4913C601.203 95.2932 601.038 95.1073 600.858 94.9353C600.749 95.2395 600.633 95.5412 600.511 95.8401C596.931 104.632 589.393 111.24 581.934 116.741Z" fill="white"/>
<path opacity="0.24" d="M174.389 218.772C173.228 217.411 170.931 217.599 169.585 218.771C168.239 219.942 167.672 221.782 167.422 223.557C167.017 226.428 167.26 229.126 167.639 231.933C166.214 229.657 164.712 227.43 163.137 225.255C162.097 223.817 161.026 222.403 159.924 221.012C162.962 218.377 165.194 214.817 166.23 210.926C166.623 209.452 166.791 207.711 165.799 206.554C164.64 205.201 162.343 205.389 160.996 206.555C159.65 207.721 159.081 209.551 158.83 211.316C158.409 214.28 158.686 217.058 159.086 219.966C155.641 215.716 151.897 211.707 147.832 208.054C150.349 204.992 151.95 201.178 152.351 197.232C152.505 195.713 152.396 193.968 151.233 192.982C149.874 191.831 147.636 192.382 146.491 193.747C145.346 195.112 145.074 197.009 145.106 198.792C145.157 201.681 145.823 204.295 146.638 206.998C142.294 203.214 137.441 199.689 131.997 197.764C131.884 197.724 131.768 197.689 131.655 197.65C133.756 194.236 134.819 190.186 134.652 186.178C134.589 184.653 134.232 182.941 132.941 182.132C131.431 181.187 129.295 182.052 128.356 183.567C127.417 185.081 127.419 186.998 127.704 188.758C128.207 191.859 129.383 194.536 130.706 197.333C124.357 195.281 117.602 194.393 111.333 192.126C113.506 188.676 114.611 184.557 114.441 180.48C114.378 178.956 114.021 177.244 112.729 176.434C111.22 175.489 109.083 176.355 108.145 177.869C107.206 179.384 107.207 181.301 107.493 183.06C108.01 186.244 109.235 188.981 110.603 191.861C109.046 191.266 107.522 190.58 106.045 189.76C103.054 188.099 100.447 185.812 98.2648 183.137C101.361 180.344 103.567 176.572 104.472 172.497C104.802 171.007 104.898 169.261 103.857 168.146C102.642 166.843 100.355 167.128 99.0588 168.35C97.7621 169.571 97.2704 171.423 97.0939 173.197C96.7702 176.451 97.2678 179.448 97.8592 182.63C94.4275 178.241 92.1126 172.88 91.1055 167.527C93.5858 164.668 95.2535 161.105 95.8381 157.362C96.0733 155.854 96.0581 154.106 94.9492 153.059C93.6533 151.836 91.3891 152.266 90.173 153.568C88.957 154.87 88.5834 156.75 88.5201 158.531C88.4188 161.374 88.9257 163.983 89.5808 166.679C89.5476 166.788 89.5403 166.902 89.5597 167.013C90.3149 171.589 92.0092 175.989 94.3912 179.959C94.9184 180.838 95.4777 181.697 96.0678 182.535C92.9687 180.55 89.325 179.421 85.6468 179.334C84.1238 179.297 82.3949 179.542 81.5042 180.78C80.4637 182.227 81.186 184.419 82.6338 185.456C84.0812 186.493 85.9908 186.617 87.7628 186.447C91.0675 186.129 93.9484 185.028 97.0078 183.805C98.326 185.51 99.8009 187.091 101.479 188.437C104.02 190.476 106.846 191.942 109.817 193.086C106.048 192.661 102.158 193.313 98.7414 194.967C97.3695 195.631 95.9428 196.639 95.7149 198.148C95.4485 199.91 97.0901 201.531 98.8507 201.792C100.611 202.053 102.367 201.29 103.866 200.329C106.738 198.487 108.835 196.112 111.066 193.548C116.02 195.293 121.319 196.261 126.349 197.569C127.932 197.981 129.492 198.434 131.019 198.969C126.954 198.301 122.687 198.908 118.975 200.7C117.602 201.362 116.174 202.368 115.944 203.876C115.676 205.639 117.315 207.261 119.075 207.525C120.835 207.789 122.592 207.028 124.092 206.069C127.032 204.188 129.162 201.75 131.454 199.121C133.076 199.71 134.658 200.4 136.187 201.252C138.982 202.811 141.597 204.686 144.076 206.707C144.735 207.245 145.386 207.793 146.027 208.352C142.415 207.397 138.536 207.457 134.961 208.548C133.503 208.992 131.939 209.768 131.481 211.224C130.947 212.924 132.32 214.778 134.019 215.308C135.718 215.838 137.571 215.356 139.2 214.636C142.209 213.308 144.583 211.38 147.078 209.281C151.048 212.85 154.689 216.802 158.045 220.956C154.635 219.062 150.673 218.173 146.783 218.454C145.263 218.564 143.565 218.973 142.798 220.29C141.9 221.83 142.828 223.943 144.368 224.837C145.908 225.731 147.821 225.672 149.568 225.333C152.884 224.689 155.686 223.279 158.672 221.739C159.113 222.292 159.549 222.85 159.981 223.41C162.344 226.486 164.578 229.682 166.627 232.991C163.277 231.197 159.419 230.362 155.63 230.636C154.11 230.746 152.413 231.155 151.644 232.472C150.747 234.012 151.675 236.125 153.215 237.019C154.755 237.913 156.667 237.854 158.415 237.515C161.64 236.888 164.378 235.538 167.272 234.048C169.563 237.848 171.605 241.795 173.313 245.885C173.668 246.737 174.963 246.125 174.608 245.275C172.884 241.145 170.813 237.163 168.498 233.328C171.547 230.678 173.786 227.09 174.823 223.168C175.214 221.687 175.382 219.937 174.389 218.772Z" fill="white"/>
<path opacity="0.24" d="M253.147 162.779C252.674 161.053 250.516 160.244 248.8 160.731C247.085 161.218 245.789 162.642 244.81 164.142C243.225 166.568 242.299 169.114 241.45 171.816C241.127 169.148 240.713 166.493 240.211 163.853C239.88 162.109 239.511 160.373 239.104 158.645C242.973 157.554 246.504 155.282 249.094 152.203C250.075 151.035 250.967 149.532 250.56 148.062C250.085 146.343 247.926 145.535 246.212 146.017C244.499 146.498 243.206 147.913 242.23 149.403C240.591 151.906 239.662 154.539 238.79 157.34C237.476 152.027 235.789 146.804 233.661 141.766C237.24 140.067 240.307 137.297 242.345 133.896C243.13 132.588 243.772 130.961 243.138 129.574C242.396 127.954 240.137 127.499 238.522 128.247C236.906 128.994 235.854 130.595 235.126 132.222C233.946 134.858 233.438 137.509 233.029 140.302C230.703 135.027 227.808 129.769 223.698 125.708C223.612 125.624 223.522 125.543 223.437 125.459C226.787 123.264 229.469 120.052 231.02 116.353C231.61 114.946 232.014 113.245 231.188 111.962C230.223 110.464 227.922 110.337 226.43 111.308C224.937 112.279 224.125 114.014 223.636 115.729C222.775 118.749 222.702 121.673 222.713 124.768C217.837 120.206 212.1 116.526 207.389 111.804C210.82 109.606 213.569 106.35 215.146 102.587C215.736 101.18 216.14 99.4788 215.314 98.1964C214.35 96.698 212.049 96.5711 210.556 97.5423C209.063 98.5135 208.25 100.248 207.762 101.963C206.877 105.064 206.825 108.064 206.84 111.252C205.683 110.051 204.595 108.781 203.606 107.409C201.604 104.632 200.216 101.452 199.377 98.1013C203.365 96.892 206.963 94.4177 209.512 91.1148C210.443 89.9072 211.271 88.3678 210.803 86.9154C210.257 85.2191 208.066 84.5025 206.374 85.0555C204.682 85.609 203.45 87.0761 202.537 88.6063C200.863 91.4129 200.041 94.3374 199.225 97.4692C197.983 92.0348 198.163 86.1971 199.525 80.923C202.983 79.3924 206.005 76.8776 208.123 73.739C208.977 72.4744 209.705 70.8855 209.146 69.4662C208.492 67.8075 206.26 67.2325 204.607 67.8925C202.953 68.5525 201.818 70.0953 201.004 71.6808C199.705 74.2101 199.057 76.7875 198.504 79.507C198.435 79.5831 198.378 79.6787 198.344 79.8004C197.085 84.2636 196.75 88.9673 197.22 93.5755C197.324 94.5919 197.465 95.6092 197.644 96.6206C195.681 93.5049 192.863 90.9304 189.571 89.284C188.208 88.6024 186.54 88.0875 185.208 88.8287C183.652 89.695 183.375 91.9862 184.245 93.5417C185.115 95.0972 186.791 96.0231 188.467 96.624C191.593 97.744 194.668 97.974 197.956 98.1706C198.425 100.275 199.089 102.334 200.036 104.267C201.47 107.196 203.406 109.726 205.609 112.027C202.377 110.037 198.58 108.97 194.786 109.011C193.262 109.028 191.543 109.332 190.696 110.601C189.707 112.083 190.504 114.248 191.987 115.235C193.469 116.221 195.382 116.279 197.147 116.047C200.529 115.603 203.435 114.347 206.543 112.976C210.286 116.667 214.671 119.8 218.668 123.126C219.926 124.173 221.145 125.248 222.301 126.383C218.905 124.046 214.785 122.778 210.665 122.819C209.142 122.833 207.422 123.136 206.573 124.403C205.582 125.884 206.376 128.05 207.858 129.039C209.339 130.027 211.252 130.087 213.017 129.858C216.477 129.408 219.439 128.108 222.63 126.705C223.848 127.929 224.987 129.228 226.008 130.65C227.876 133.252 229.447 136.063 230.833 138.948C231.202 139.715 231.557 140.489 231.9 141.268C229.036 138.865 225.5 137.268 221.801 136.732C220.293 136.513 218.548 136.549 217.516 137.671C216.311 138.983 216.766 141.246 218.079 142.449C219.392 143.652 221.273 144.005 223.053 144.048C226.34 144.128 229.307 143.394 232.457 142.557C234.534 147.479 236.153 152.606 237.427 157.795C235.144 154.629 231.935 152.136 228.295 150.733C226.873 150.185 225.163 149.832 223.909 150.698C222.443 151.709 222.386 154.016 223.4 155.481C224.414 156.946 226.17 157.708 227.896 158.145C231.171 158.975 234.305 158.893 237.661 158.77C237.825 159.46 237.984 160.15 238.136 160.84C238.969 164.632 239.634 168.475 240.084 172.343C237.814 169.293 234.676 166.893 231.13 165.527C229.708 164.979 227.998 164.626 226.743 165.491C225.277 166.503 225.221 168.81 226.235 170.275C227.249 171.74 229.005 172.502 230.731 172.939C233.915 173.746 236.967 173.69 240.219 173.574C240.679 177.989 240.852 182.432 240.661 186.861C240.621 187.783 242.052 187.781 242.092 186.861C242.285 182.388 242.101 177.902 241.633 173.445C245.518 172.345 249.068 170.052 251.672 166.943C252.657 165.769 253.551 164.256 253.147 162.779Z" fill="white"/>
<path d="M207.353 158.678C214.05 173.631 235.574 178.886 243.257 193.858C247.331 202.645 243.222 210.738 241.144 218.67C238.668 233.265 236.745 249.783 241.949 265.877C244.832 273.217 250.207 280.2 251.785 287.598C245.052 286.896 237.047 284.933 229.268 281.819C229.126 281.64 228.987 281.46 228.851 281.277C223.548 274.159 220.019 265.509 221.133 256.502C222.146 248.3 226.461 240.201 224.619 231.811C223.611 227.219 220.736 223.379 218.034 219.651C215.249 215.798 212.795 211.927 211.721 207.238C209.922 199.415 211.02 190.435 206.397 183.469C203.572 179.221 198.964 176.871 194.859 174.087C192.561 172.534 190.388 170.774 188.779 168.487C187.406 166.535 186.443 164.341 185.713 162.077C184.273 157.611 183.654 152.931 182.285 148.445C180.9 143.892 178.548 139.775 175.511 136.124C168.877 128.154 159.856 122.818 151.61 116.741C144.151 111.24 136.613 104.633 133.033 95.8397C132.911 95.5407 132.796 95.239 132.687 94.9349C133.682 93.9125 135.013 93.11 136.708 92.5895C151.506 90.0662 161.259 111.298 173.87 118.032C189.016 124.337 201.904 123.549 204.124 143.228C204.831 148.37 204.999 153.605 207.353 158.678Z" fill="url(#paint3_linear_75_1519)"/>
<path d="M151.608 116.741C159.855 122.817 168.876 128.154 175.51 136.123C178.546 139.774 180.899 143.892 182.284 148.445C183.653 152.931 184.271 157.611 185.712 162.076C186.442 164.34 187.405 166.534 188.778 168.486C190.386 170.773 192.56 172.533 194.858 174.087C198.962 176.871 203.571 179.22 206.396 183.468C211.019 190.435 209.921 199.414 211.72 207.238C212.793 211.927 215.247 215.798 218.033 219.65C220.734 223.378 223.61 227.219 224.618 231.81C226.46 240.2 222.145 248.3 221.132 256.501C220.017 265.509 223.547 274.159 228.85 281.276C228.985 281.457 229.127 281.642 229.267 281.818C228.87 281.664 228.477 281.503 228.086 281.336C210.182 273.883 193.889 260.317 197.624 241.946C201.511 233.513 205.54 226.938 193.941 218.532C176.36 202.542 152.753 192.025 158.936 168.101C160.95 157.28 168.859 142.056 158.164 130.633C153.309 126.695 147.168 125.361 142.228 121.57C132.995 115.474 126.945 101.944 132.188 95.49C132.335 95.2963 132.501 95.1107 132.685 94.934C132.793 95.2371 132.91 95.5403 133.032 95.8388C136.612 104.632 144.149 111.24 151.608 116.741Z" fill="url(#paint4_linear_75_1519)"/>
<path d="M151.608 116.741C159.855 122.817 168.876 128.154 175.509 136.123C178.546 139.774 180.899 143.892 182.284 148.445C183.653 152.931 184.271 157.611 185.712 162.076C186.442 164.341 187.404 166.534 188.778 168.486C190.386 170.773 192.56 172.533 194.858 174.087C198.962 176.871 203.571 179.22 206.396 183.468C211.018 190.435 209.921 199.415 211.72 207.238C212.793 211.927 215.247 215.798 218.033 219.65C220.734 223.378 223.61 227.219 224.617 231.81C226.46 240.2 222.145 248.3 221.132 256.501C220.017 265.509 223.547 274.159 228.849 281.277C228.985 281.457 229.126 281.642 229.267 281.819C228.87 281.664 228.477 281.503 228.086 281.336C226.817 279.606 225.665 277.794 224.636 275.912C222.714 272.376 221.284 268.56 220.651 264.584C219.978 260.352 220.356 256.165 221.297 252.001C222.263 247.755 223.668 243.591 224.207 239.259C224.832 234.307 223.844 229.769 221.27 225.487C218.748 221.297 215.388 217.657 213.175 213.268C211.317 209.573 210.613 205.504 210.139 201.433C209.651 197.182 209.411 192.842 208.135 188.732C206.588 183.738 203.267 180.353 198.977 177.516C194.824 174.774 190.396 172.315 187.677 167.983C185.269 164.146 184.291 159.635 183.322 155.272C182.253 150.457 181.071 145.753 178.538 141.475C175.834 136.921 172.112 133.07 168.097 129.67C156.019 119.43 137.946 111.144 132.188 95.4913C132.335 95.2977 132.5 95.112 132.684 94.9353C132.792 95.2385 132.91 95.5416 133.031 95.8401C136.611 104.632 144.149 111.24 151.608 116.741Z" fill="white"/>
<path d="M270.224 198.187L242.081 198.106V171.179L269.125 167.182L270.224 198.187Z" fill="url(#paint5_linear_75_1519)"/>
<path d="M241.149 188.725C214.261 198.304 201.339 236.049 184.907 238.577C168.475 241.105 140.266 202.751 140.266 202.751L124.193 216.828C124.193 216.828 154.508 274.241 189.468 272.871C220.657 271.649 232.511 241.232 232.511 241.232L241.149 188.725Z" fill="url(#paint6_linear_75_1519)"/>
<path d="M295.027 329.392C294.934 329.991 294.668 330.554 294.252 331.081C294.011 331.385 293.739 331.663 293.441 331.909H213.074C212.833 331.65 212.61 331.373 212.408 331.081C212.28 330.899 212.161 330.711 212.049 330.518C211.976 330.398 211.904 330.273 211.836 330.143C211.528 329.559 211.257 328.957 211.024 328.339C210.962 328.173 210.899 328.006 210.842 327.834C210.779 327.658 210.72 327.481 210.665 327.302C210.608 327.119 210.551 326.937 210.493 326.75C210.441 326.582 210.393 326.413 210.347 326.244C209.744 324.081 209.271 321.444 208.906 318.395C208.875 318.124 208.844 317.848 208.812 317.566C208.734 316.865 208.664 316.163 208.605 315.461C208.558 314.997 208.521 314.522 208.48 314.038C208.464 313.861 208.454 313.683 208.438 313.501C208.407 313.063 208.375 312.615 208.345 312.161V312.156C208.345 312.136 208.34 312.114 208.34 312.094C208.313 311.671 208.287 311.239 208.261 310.806C208.256 310.749 208.256 310.697 208.251 310.645L208.189 309.42L208.173 309.149C208.158 308.768 208.137 308.383 208.121 307.997C208.101 307.523 208.085 307.038 208.064 306.543C208.048 306.079 208.032 305.605 208.017 305.125C208.006 304.865 208.001 304.604 207.996 304.344C207.976 303.598 207.96 302.843 207.939 302.071C207.934 301.655 207.929 301.227 207.918 300.8C207.872 297.378 207.865 293.955 207.898 290.533C207.903 289.923 207.913 289.308 207.918 288.687C207.929 287.77 207.939 286.832 207.96 285.889C207.971 285.18 207.981 284.471 207.997 283.752C208.023 282.314 208.054 280.849 208.09 279.364C208.122 278.165 208.153 276.956 208.183 275.736L208.199 275.179C208.225 274.241 208.251 273.292 208.282 272.333C208.324 270.874 208.37 269.399 208.417 267.909C208.422 267.679 208.433 267.45 208.443 267.22C208.454 266.981 208.459 266.746 208.47 266.506L208.485 266.032C208.547 264.218 208.61 262.374 208.677 260.513C208.682 260.445 208.682 260.378 208.682 260.31C208.74 258.861 208.792 257.396 208.849 255.922C208.886 254.989 208.922 254.05 208.958 253.112C209 251.971 209.041 250.825 209.088 249.673C209.104 249.209 209.125 248.75 209.156 248.292C209.166 248.078 209.177 247.865 209.193 247.651C209.213 247.27 209.239 246.89 209.271 246.515C209.281 246.343 209.296 246.171 209.312 246.004C209.334 245.67 209.363 245.336 209.401 245.003C209.416 244.821 209.432 244.639 209.453 244.456C209.49 244.05 209.536 243.643 209.583 243.242C209.63 242.815 209.682 242.392 209.744 241.97C209.807 241.506 209.869 241.043 209.937 240.584C209.989 240.209 210.046 239.844 210.109 239.479C210.109 239.474 210.109 239.469 210.114 239.464C210.163 239.145 210.217 238.827 210.275 238.51C210.327 238.192 210.39 237.869 210.447 237.551C210.51 237.212 210.577 236.873 210.645 236.535V236.529C210.686 236.341 210.723 236.149 210.77 235.961C210.8 235.784 210.842 235.607 210.879 235.435C210.931 235.2 210.983 234.971 211.035 234.736C211.103 234.429 211.175 234.127 211.249 233.819C211.394 233.21 211.545 232.605 211.707 232.01C211.842 231.489 211.983 230.978 212.128 230.473C212.19 230.259 212.248 230.051 212.315 229.843C212.387 229.578 212.467 229.315 212.555 229.055C212.648 228.738 212.747 228.42 212.851 228.107C213.131 227.224 213.429 226.346 213.746 225.475V225.47H213.751C213.756 225.436 213.767 225.402 213.783 225.371C213.861 225.152 213.944 224.939 214.022 224.725C214.132 224.428 214.241 224.131 214.36 223.833C214.459 223.578 214.558 223.323 214.662 223.067C214.714 222.932 214.766 222.801 214.824 222.666C214.964 222.317 215.11 221.968 215.255 221.624C215.427 221.207 215.604 220.795 215.786 220.388C217.056 217.517 218.45 214.853 219.901 212.373C219.907 212.373 219.907 212.367 219.907 212.367C228.013 198.572 238.18 190.812 241.151 188.727V188.722C241.697 188.336 241.999 188.149 241.999 188.149C241.988 188.787 242.016 189.426 242.082 190.062C243.742 205.863 269.856 188.884 269.856 188.884C269.866 188.889 269.882 188.899 269.898 188.904C273.05 190.812 287.432 195.706 296.657 208.24C296.813 208.464 296.964 208.672 297.12 208.881C297.989 210.106 298.788 211.38 299.513 212.696C302.027 217.256 303.837 222.65 304.394 229.029C306.12 248.559 298.82 305.184 295.027 329.392Z" fill="url(#paint7_linear_75_1519)"/>
<path d="M295.958 243.243C295.346 326.949 230.828 300.119 256.92 331.909H213.074C204.87 319.109 208.652 284.173 208.418 267.91H208.423C208.9 258.457 208.634 248.847 210.114 239.465C210.889 234.707 212.109 229.992 213.751 225.472C214.359 223.755 215.054 222.058 215.785 220.39C223.683 217.923 216.246 214.291 227.037 216.728C246.985 222.797 235.107 249.589 242.081 259.661C249.892 268.604 286.258 246.867 295.958 243.243Z" fill="#DDE0F0"/>
<path d="M106.242 236.531H235.476V306.544H106.242V236.531Z" fill="url(#paint8_linear_75_1519)"/>
<path d="M235.476 225.473H106.242L120.506 212.373H221.212L235.476 225.473Z" fill="url(#paint9_linear_75_1519)"/>
<path d="M106.242 236.531V247.498H171.089C198.506 247.498 220.732 264.03 220.732 284.423V306.544H235.476V236.531H106.242Z" fill="#F0D8CC"/>
<path d="M238.584 225.473H102.655C101.123 225.473 99.8816 226.371 99.8816 227.48V234.524C99.8816 235.632 101.123 236.53 102.655 236.53H238.584C240.116 236.53 241.358 235.632 241.358 234.524V227.48C241.358 226.371 240.116 225.473 238.584 225.473Z" fill="#FFD89E"/>
<path d="M170.62 294.463C181.922 294.463 191.085 285.285 191.085 273.963C191.085 262.642 181.922 253.464 170.62 253.464C159.317 253.464 150.154 262.642 150.154 273.963C150.154 285.285 159.317 294.463 170.62 294.463Z" fill="white"/>
<path d="M170.911 288.293C170.827 288.255 170.742 288.216 170.658 288.177C141.809 275.124 160.727 253.891 170.911 267.495C170.986 267.345 171.069 267.199 171.161 267.056C173.727 262.948 181.683 261.172 184.666 266.338C189.729 275.109 180.86 283.84 170.911 288.293Z" fill="#E06978"/>
<path d="M170.911 288.293C170.827 288.254 170.743 288.216 170.658 288.177L171.162 267.056C173.727 262.948 181.683 261.172 184.667 266.338C189.729 275.109 180.86 283.84 170.911 288.293Z" fill="#E05768"/>
<path d="M201.895 221.119H139.178L142.045 216.727H199.028L201.895 221.119Z" fill="#A16440"/>
<path d="M106.242 300.799H235.849V302.07H106.242V300.799ZM106.242 241.971H235.849V243.242H106.242V241.971Z" fill="white"/>
<path d="M269.229 170.354C258.732 185.084 247.127 184.835 242.087 183.808V171.186L269.118 167.191L269.229 170.354Z" fill="#FFABAB"/>
<path d="M276.238 156.441C270.187 173.875 255.493 181.038 244.116 179.208C231.455 177.171 224.589 163.334 226.119 143.137C227.475 125.249 240.076 113.807 256.217 116.767C272.358 119.726 282.118 139.497 276.238 156.441Z" fill="url(#paint10_linear_75_1519)"/>
<path d="M283.392 150.009C282.872 154.416 279.449 157.633 275.748 157.195C272.047 156.756 269.468 152.828 269.988 148.421C270.509 144.014 273.932 140.797 277.633 141.235C281.334 141.674 283.913 145.602 283.392 150.009ZM176.229 314.231C176.229 314.231 151.166 333.197 144.64 312.705C139.036 295.113 162.398 302.819 164.193 301.725C165.621 300.854 152.681 301.45 155.106 295.782C156.427 292.693 172.397 296.65 172.397 296.65L176.229 314.231Z" fill="url(#paint11_linear_75_1519)"/>
<path d="M277.087 219.528C259.549 220.694 244.078 269.847 235.185 276.073C226.291 282.3 170.686 295.761 170.686 295.761L173.184 317.389C173.184 317.389 246.956 308.594 259.705 297.217C272.453 285.84 288.597 261.708 292.652 254.035C296.707 246.362 303.265 217.787 277.087 219.528Z" fill="url(#paint12_linear_75_1519)"/>
<path d="M222.403 116.161C220.177 119.979 218.663 132.07 230.319 134.459C241.945 136.843 252.071 132.513 255.342 129.863C258.612 127.212 256.023 138.781 265.271 146.137C265.271 146.137 266.148 143.342 266.993 142.069C266.993 142.069 267.35 148.462 272.982 153.378C272.917 150.646 273.602 147.793 277.87 143.379C281.037 142.965 282.374 145.234 282.973 146.706C282.973 146.706 290.784 120.429 277.752 114.054C277.752 114.054 276.698 110.723 279.523 109.933C279.523 109.933 275.577 109.438 273.143 112.163C273.143 112.163 272.546 109.175 274.487 106.906C271.904 106.37 269.336 108.032 267.803 110.284C266.304 112.484 232.079 99.5671 222.403 116.161ZM473.38 111.462C473.38 111.462 442.211 103.602 436.629 156.89C431.026 210.369 354.955 195.819 373.498 235.666C392.041 275.512 446.297 286.396 458.848 259.663C471.399 232.93 496.844 197.303 499.258 155.215C500.556 132.591 500.084 118.604 473.38 111.462Z" fill="#303670"/>
<path d="M496.844 127.588C498.731 132.435 499.868 137.555 500.653 142.701C501.422 147.855 501.823 153.074 501.779 158.291C501.807 159.596 501.711 160.899 501.669 162.202C501.603 163.504 501.599 164.81 501.448 166.107L501.069 169.999C500.944 171.296 500.706 172.581 500.513 173.868L500.21 175.798C500.122 176.443 499.988 177.081 499.843 177.716L499.005 181.528C498.738 182.799 498.345 184.043 497.984 185.291C497.618 186.536 497.238 187.777 496.844 189.013C497.028 187.726 497.223 186.444 497.433 185.168C497.628 183.889 497.901 182.629 498.022 181.339C498.343 178.777 498.737 176.235 498.935 173.667L499.117 171.747C499.176 171.107 499.267 170.471 499.291 169.828L499.522 165.981C499.628 164.701 499.635 163.416 499.678 162.133C499.705 160.85 499.781 159.567 499.742 158.284L499.741 154.433C499.695 153.15 499.632 151.868 499.599 150.584C499.495 148.019 499.312 145.455 499.08 142.895C498.598 137.773 497.918 132.664 496.844 127.588Z" fill="#303670"/>
<path d="M455.947 201.721L481.252 201.638V174.282L456.936 170.22L455.947 201.721Z" fill="url(#paint13_linear_75_1519)"/>
<path d="M455.314 173.444C465.979 188.41 477.769 188.156 482.89 187.113V174.289L455.427 170.23L455.314 173.444Z" fill="#FFABAB"/>
<path d="M449.144 160.744C455.043 177.74 473.751 189.773 486.741 181.876C497.269 175.477 499.399 161.517 496.689 147.667C493.37 130.705 484.399 119.179 468.663 122.064C452.927 124.95 443.411 144.224 449.144 160.744Z" fill="url(#paint14_linear_75_1519)"/>
<path d="M442.169 154.473C442.677 158.77 446.013 161.906 449.622 161.478C453.231 161.051 455.745 157.221 455.237 152.925C454.729 148.628 451.393 145.492 447.784 145.919C444.176 146.347 441.661 150.176 442.169 154.473Z" fill="#FFDBDB"/>
<path d="M496.797 149.954C499.204 134.088 498.592 129.324 489.55 119.4C486.442 115.989 480.075 114.715 480.075 114.715C482.27 128.021 495.671 135.554 496.797 149.954Z" fill="#303670"/>
<path d="M453.235 166.696C450.72 130.041 493.646 141.716 486.712 118.083C484.208 109.553 460.63 108.7 450.801 118.857C446.69 123.105 442.531 131.95 443.921 141.712C445.018 149.411 448.659 159.198 453.235 166.696Z" fill="#303670"/>
<path d="M484.446 195.358C510.74 203.712 522.409 239.164 538.116 241.581C553.822 243.998 580.786 207.335 580.786 207.335L596.151 220.791C596.151 220.791 567.173 275.671 533.755 274.361C503.942 273.193 492.019 244.92 492.019 244.92L484.446 195.358Z" fill="url(#paint15_linear_75_1519)"/>
<path d="M511.031 330.961C511.186 331.518 510.078 331.578 509.273 331.909H436.087C430.892 330.064 432.051 318.267 430.612 313.054C427.683 291.314 424.967 269.374 423.854 247.475C420.416 217.68 436.132 202.572 456.186 194.102C456.394 194.231 481.485 211.42 481.254 193.378C481.254 193.378 482.487 194.097 484.475 195.556C484.475 195.556 484.48 195.556 484.48 195.561C499.408 205.181 515.679 231.303 515.021 252.76C515.633 269.481 501.447 296.57 511.031 330.961Z" fill="url(#paint16_linear_75_1519)"/>
<path d="M492.406 239.037H621.64V309.05H492.406V239.037Z" fill="url(#paint17_linear_75_1519)"/>
<path d="M621.641 227.979H492.406L506.67 214.879H607.377L621.641 227.979Z" fill="url(#paint18_linear_75_1519)"/>
<path d="M492.406 239.037V250.004H557.253C584.67 250.004 606.896 266.537 606.896 286.93V309.05H621.641V239.037H492.406Z" fill="#F0D8CC"/>
<path d="M624.749 227.979H488.82C487.288 227.979 486.046 228.878 486.046 229.986V237.03C486.046 238.138 487.288 239.037 488.82 239.037H624.749C626.281 239.037 627.522 238.138 627.522 237.03V229.986C627.522 228.878 626.281 227.979 624.749 227.979Z" fill="#FFD89E"/>
<path d="M556.784 296.969C568.087 296.969 577.25 287.791 577.25 276.469C577.25 265.148 568.087 255.97 556.784 255.97C545.481 255.97 536.319 265.148 536.319 276.469C536.319 287.791 545.481 296.969 556.784 296.969Z" fill="white"/>
<path d="M557.076 290.799C556.991 290.761 556.907 290.722 556.823 290.684C527.973 277.631 546.892 256.398 557.076 270.001C557.151 269.851 557.234 269.705 557.326 269.563C559.892 265.454 567.848 263.679 570.831 268.844C575.893 277.615 567.024 286.346 557.076 290.799Z" fill="#E06978"/>
<path d="M557.076 290.799C556.991 290.761 556.907 290.722 556.823 290.684L557.326 269.563C559.891 265.454 567.847 263.679 570.831 268.844C575.893 277.615 567.024 286.346 557.076 290.799Z" fill="#E05768"/>
<path d="M588.06 223.625H525.342L528.209 219.234H585.193L588.06 223.625Z" fill="#A16440"/>
<path d="M492.406 303.306H622.013V304.577H492.406V303.306ZM492.406 244.477H622.013V245.748H492.406V244.477Z" fill="white"/>
<path d="M546.411 313.897C546.411 313.897 570.368 332.027 576.607 312.439C581.964 295.623 559.632 302.989 557.916 301.943C556.55 301.111 568.921 301.68 566.602 296.263C565.34 293.31 550.074 297.092 550.074 297.092L546.411 313.897Z" fill="url(#paint19_linear_75_1519)"/>
<path d="M450.002 223.372C466.766 224.487 481.555 271.471 490.056 277.422C498.557 283.374 551.709 296.242 551.709 296.242L549.322 316.916C549.322 316.916 478.805 308.509 466.618 297.634C454.432 286.759 439.001 263.691 435.124 256.356C431.247 249.022 424.979 221.707 450.002 223.372Z" fill="url(#paint20_linear_75_1519)"/>
<path d="M591.003 219.234C599.216 219.234 605.874 215.411 605.874 210.695C605.874 205.98 599.216 202.157 591.003 202.157C582.79 202.157 576.133 205.98 576.133 210.695C576.133 215.411 582.79 219.234 591.003 219.234Z" fill="#FFDBDB"/>
<path d="M469.432 112.056C467.901 111.794 466.342 111.899 464.824 112.133C463.303 112.371 461.81 112.761 460.356 113.259C457.457 114.27 454.708 115.673 452.187 117.429C449.672 119.17 447.393 121.23 445.406 123.557C443.435 125.884 441.744 128.443 440.396 131.175C439.043 133.905 438.032 136.796 437.298 139.753C436.932 141.234 436.637 142.731 436.413 144.24C436.303 144.996 436.209 145.753 436.129 146.512C436.051 147.277 435.994 148.02 435.927 148.814C435.797 150.383 435.603 151.947 435.346 153.5C435.078 155.056 434.74 156.599 434.332 158.124C433.513 161.176 432.377 164.155 430.905 166.967C429.443 169.784 427.603 172.4 425.514 174.78C423.423 177.16 421.07 179.291 418.568 181.2C413.535 184.997 407.976 187.915 402.425 190.663C399.648 192.042 396.872 193.401 394.164 194.868C391.457 196.328 388.812 197.908 386.416 199.809C384.015 201.691 381.878 203.944 380.383 206.621C378.872 209.287 378.074 212.342 377.873 215.436C377.882 213.885 378.028 212.327 378.358 210.799C378.696 209.266 379.22 207.78 379.919 206.375C381.32 203.549 383.445 201.128 385.827 199.09C388.224 197.055 390.869 195.356 393.56 193.786C396.259 192.224 399.02 190.8 401.757 189.355C404.493 187.907 407.22 186.464 409.868 184.905C412.516 183.345 415.083 181.665 417.492 179.794C419.907 177.932 422.159 175.87 424.15 173.583C426.146 171.3 427.861 168.784 429.281 166.11C430.7 163.433 431.801 160.587 432.604 157.653C433.405 154.718 433.927 151.702 434.23 148.659C434.304 147.908 434.376 147.106 434.466 146.329C434.557 145.547 434.669 144.767 434.79 143.988C435.042 142.432 435.368 140.888 435.766 139.362C436.563 136.304 437.7 133.346 439.156 130.542C442.059 124.936 446.419 120.09 451.708 116.71C454.352 115.027 457.209 113.675 460.208 112.796C461.707 112.362 463.238 112.032 464.789 111.872C466.338 111.722 467.918 111.707 469.432 112.056Z" fill="#303670"/>
<path d="M295.027 329.392C294.934 329.991 294.668 330.554 294.252 331.081C294.011 331.385 293.739 331.663 293.44 331.909H268.737C268.658 331.635 268.585 331.358 268.518 331.081C267.285 326.088 267.269 320.866 267.727 316.321L267.446 316.258L268.169 312.845C268.537 310.54 269.025 308.256 269.631 306.002L269.683 305.752C269.725 305.559 269.771 305.361 269.818 305.158C271.223 298.586 273.46 288.902 276.452 278.255C276.452 278.25 276.457 278.244 276.457 278.239C279.407 267.748 283.086 256.313 287.446 245.989C289.907 240.142 292.587 234.659 295.459 229.896C296.483 228.202 297.529 226.602 298.606 225.117C297.155 219.963 298.377 215.543 299.512 212.697C302.025 217.257 303.836 222.651 304.392 229.031C306.12 248.559 298.82 305.184 295.027 329.392Z" fill="#E6E7E8"/>
<path d="M466.946 331.081C466.905 331.358 466.856 331.635 466.801 331.909H436.087C435.615 331.669 435.162 331.392 434.734 331.081C433.667 330.293 433.012 329.397 432.856 328.386C432.777 327.891 432.699 327.38 432.616 326.859L432.538 326.328C432.278 324.645 432.008 322.825 431.722 320.892C431.717 320.841 431.71 320.791 431.701 320.741C431.373 318.469 431.024 316.035 430.671 313.481C430.65 313.341 430.634 313.195 430.613 313.054L430.426 311.689C430.359 311.225 430.296 310.756 430.234 310.287C430.135 309.567 430.036 308.838 429.937 308.103C429.911 307.894 429.885 307.681 429.854 307.467C429.791 306.987 429.729 306.508 429.661 306.024L429.568 305.305C429.386 303.892 429.199 302.454 429.011 301C428.887 300.031 428.767 299.051 428.642 298.065C428.538 297.216 428.429 296.366 428.325 295.507C428.185 294.37 428.049 293.229 427.909 292.083L427.58 289.32C427.271 286.676 426.973 284.03 426.686 281.383L426.358 278.35C426.353 278.308 426.348 278.267 426.348 278.225C426.289 277.7 426.234 277.176 426.181 276.651C425.957 274.509 425.744 272.382 425.547 270.272C425.499 269.801 425.454 269.33 425.411 268.859C425.131 265.854 424.873 262.847 424.636 259.838C424.594 259.353 424.558 258.869 424.521 258.384C424.486 257.905 424.454 257.425 424.418 256.951C424.381 256.476 424.35 256.002 424.318 255.533C424.282 255.064 424.251 254.595 424.225 254.136C424.178 253.386 424.131 252.651 424.085 251.921C424.069 251.603 424.049 251.285 424.033 250.973C423.965 249.779 423.908 248.612 423.856 247.476C423.836 247.056 423.819 246.635 423.803 246.215C423.585 240.675 423.596 235.943 423.903 232.451C424.61 224.404 427.326 217.999 430.927 212.897C430.216 215.69 429.142 218.378 427.732 220.891C428.939 221.986 430.152 223.242 431.374 224.706C431.52 224.874 431.661 225.051 431.791 225.233C432.621 226.078 433.415 226.96 434.168 227.875C434.381 228.135 434.59 228.391 434.797 228.662C437.149 231.633 439.386 235.14 441.499 239.018C449.772 254.163 456.229 274.947 460.563 291.572C462.164 297.725 463.636 303.911 464.98 310.126C465.676 312.225 468.496 321.549 466.946 331.081Z" fill="#F4F4FC"/>
<path d="M302.71 227.538V227.543C310.033 233.885 321.346 236.533 331.637 234.104C345.874 230.992 356.09 217.023 363.41 199.332C369.893 217.952 403.781 221.472 403.781 221.472C409.579 223.036 417.189 221.48 420.966 211.395C421.512 209.935 421.978 208.3 422.345 206.472C423.407 201.205 422.029 196.842 419.623 192.596C418.984 187.083 416.788 181.959 413.663 177.549C411.83 174.961 409.668 172.587 408.217 169.697C406.751 166.778 405.972 163.47 405.794 160.151C405.607 156.656 405.955 153.152 406.42 149.699C406.94 145.83 407.483 141.996 407.555 138.076C407.672 131.814 406.353 125.707 403.391 120.33C401.723 117.3 399.507 114.581 396.973 112.315C393.018 107.455 387.723 104.411 381.392 104.285C365.88 87.5277 349.026 94.3831 336.148 110.066C324.003 124.856 327.159 150.007 320.668 167.194C314.862 182.653 296.605 191.025 294.956 208.537C294.21 216.453 297.422 222.958 302.71 227.538ZM405.499 168.509C406.119 169.878 406.922 171.133 407.775 172.339C409.586 174.894 411.731 177.159 413.763 179.495C415.862 181.908 417.298 185.004 418.217 188.165C418.532 189.253 418.781 190.359 418.965 191.476C414.873 184.754 408.502 178.149 405.499 168.509ZM403.215 124.865C402.479 122.224 401.51 119.74 400.33 117.47C401.509 119.295 402.524 121.252 403.369 123.281C404.481 125.946 405.256 128.74 405.678 131.597C406.174 134.971 405.996 138.361 405.529 141.726C404.925 146.078 404.089 150.469 403.781 154.875C403.887 144.825 405.915 134.533 403.215 124.865Z" fill="#3E4485"/>
<path d="M365.56 139.826C364.075 138.662 361.966 138.776 360.537 139.958C360.291 140.162 360.309 140.574 360.52 140.792C360.755 141.036 361.111 141.014 361.358 140.81C361.833 140.416 362.477 140.182 363.076 140.175C363.767 140.166 364.385 140.396 364.94 140.832C365.192 141.029 365.602 140.886 365.755 140.637C365.94 140.338 365.812 140.024 365.56 139.826Z" fill="#282B6E"/>
<path d="M366.418 136.696C366.421 136.621 366.454 136.551 366.51 136.5C366.565 136.449 366.638 136.422 366.713 136.425C366.75 136.426 366.787 136.435 366.821 136.45C366.855 136.466 366.885 136.488 366.91 136.515C366.936 136.542 366.955 136.574 366.968 136.609C366.981 136.644 366.987 136.681 366.986 136.718C366.983 136.794 366.95 136.864 366.894 136.915C366.839 136.966 366.766 136.993 366.691 136.99C366.654 136.989 366.617 136.98 366.583 136.964C366.55 136.949 366.519 136.927 366.494 136.9C366.468 136.873 366.449 136.841 366.436 136.806C366.423 136.771 366.417 136.734 366.418 136.696Z" fill="white"/>
<path d="M306.718 217.533C307.478 216.608 308.292 215.729 309.158 214.903C309.251 214.721 309.35 214.554 309.46 214.422C314.964 207.85 319.597 207.487 327.727 204.56C333.032 202.648 338.509 201.007 343.647 198.977H348.064L376.344 198.981H381.887C385.467 199.625 389.954 200.552 394.613 201.799C401.973 203.767 413.326 208.129 418.247 212.678C418.302 212.711 418.351 212.749 418.4 212.787C420.185 214.034 421.853 215.639 423.415 217.533C437.5 234.64 448.084 276.854 452.226 296.295C450.904 296.559 449.559 296.691 448.211 296.688H421.867L413.515 279.545C411.67 292.869 410.16 306.902 409.943 320.344H318.58C319.384 311.054 317.914 296.501 315.858 281.106L308.267 296.688H281.924C280.54 296.688 279.193 296.554 277.908 296.295C282.049 276.854 292.634 234.64 306.718 217.533Z" fill="url(#paint21_linear_75_1519)"/>
<path d="M343.646 198.979C343.646 198.979 329.947 203.446 330.992 209.611C332.172 216.573 338.849 225.672 344.283 227.361C350.256 229.217 357.573 219.081 357.573 219.081C357.573 219.081 365.166 229.757 370.991 227.974C376.815 226.191 408.063 206.842 381.885 198.98C381.885 198.98 372.11 213.733 358.308 213.733C344.507 213.733 343.646 198.979 343.646 198.979Z" fill="white"/>
<path d="M373.137 170.669C373.137 170.669 376.085 199.509 381.887 198.981C381.887 198.981 373.11 213.725 358.771 213.725C344.432 213.725 343.646 198.979 343.646 198.979C348.483 189.893 349.761 178.32 347.716 170.22L373.137 170.669ZM389.181 158.58C388.746 158.754 388.315 158.864 387.807 159.035L387.842 158.148L388.003 148.568C388.939 146.572 389.592 144.439 390.109 142.174L390.112 142.11C391.927 141.356 394.814 140.515 397.336 141.756C400.697 143.41 403.372 153.481 389.181 158.58Z" fill="url(#paint22_linear_75_1519)"/>
<path d="M389.244 154.897C388.939 154.984 388.64 155.029 388.286 155.108L388.372 154.512L389.149 148.062C389.919 146.781 390.509 145.388 391.016 143.896L391.022 143.854C392.298 143.47 394.305 143.102 395.919 144.113C398.07 145.461 399.171 152.438 389.244 154.897Z" fill="#F5B3B3"/>
<path d="M393.658 138.751C392.759 162.379 381.997 180.285 357.67 180.36C331.728 180.441 321.528 146.465 340.266 116.402C350.267 100.357 369.238 120.857 386.727 118.967C390.551 126.651 393.899 129.217 393.658 138.751Z" fill="url(#paint23_linear_75_1519)"/>
<path d="M331.896 136.707C331.847 137.248 338.366 118.052 352.012 117.47C370.444 116.684 369.747 152.765 389.099 160.561C389.099 160.561 400.561 131.245 389.337 117.47C379.744 105.697 336.267 88.1293 331.896 136.707Z" fill="#3E4485"/>
<path d="M298.573 331.082H425.983V262.057H298.573V331.082Z" fill="url(#paint24_linear_75_1519)"/>
<path d="M298.573 251.156H425.983L411.921 238.24H312.635L298.573 251.156Z" fill="url(#paint25_linear_75_1519)"/>
<path d="M425.983 262.057V272.87H362.052C335.021 272.87 313.109 289.169 313.109 309.274V331.082H298.573V262.057H425.983Z" fill="#F0D8CC"/>
<path d="M295.509 251.156H429.52C431.03 251.156 432.254 252.041 432.254 253.134V260.079C432.254 261.171 431.03 262.057 429.52 262.057H295.509C293.999 262.057 292.774 261.171 292.774 260.079V253.134C292.774 252.041 293.999 251.156 295.509 251.156Z" fill="#FFD89E"/>
<path d="M362.514 319.172C373.657 319.172 382.691 310.123 382.691 298.962C382.691 287.8 373.657 278.751 362.514 278.751C351.371 278.751 342.337 287.8 342.337 298.962C342.337 310.123 351.371 319.172 362.514 319.172Z" fill="white"/>
<path d="M362.227 313.089C362.311 313.051 362.395 313.013 362.476 312.975C390.919 300.106 372.267 279.173 362.227 292.585C362.153 292.437 362.071 292.293 361.98 292.152C359.451 288.102 351.607 286.352 348.666 291.444C343.674 300.091 352.419 308.699 362.227 313.089Z" fill="#ED6376"/>
<path d="M362.227 313.089C362.311 313.051 362.395 313.013 362.476 312.975L361.98 292.152C359.45 288.102 351.607 286.352 348.666 291.444C343.675 300.091 352.419 308.699 362.227 313.089Z" fill="#E04E60"/>
<path d="M331.68 246.862H393.512L390.686 242.533H334.506L331.68 246.862Z" fill="#A16440"/>
<path d="M425.983 326.672H298.205V325.419H425.983V326.672ZM425.983 268.674H298.205V267.421H425.983V268.674Z" fill="white"/>
<path d="M334.967 304.961C334.967 304.961 359.759 310.073 357.427 292.898C355.425 278.154 341.088 291.861 339.403 291.688C338.063 291.549 347.686 287.496 343.962 284.212C341.933 282.423 331.68 290.84 331.68 290.84L334.967 304.961ZM394.342 304.961C394.342 304.961 369.55 310.073 371.882 292.898C373.884 278.154 388.221 291.861 389.906 291.688C391.246 291.549 381.623 287.496 385.347 284.212C387.376 282.423 397.629 290.84 397.629 290.84L394.342 304.961Z" fill="url(#paint26_linear_75_1519)"/>
<path d="M277.883 296.169C277.883 296.169 272.239 312.593 280.275 320.344C290.353 330.065 337.84 307.792 337.84 307.792L331.68 289.325L277.883 296.169Z" fill="url(#paint27_linear_75_1519)"/>
<path d="M452.15 296.169C452.15 296.169 457.767 314.607 450.405 323.002C444.106 330.185 392.193 307.792 392.193 307.792L397.067 290.155L452.15 296.169Z" fill="url(#paint28_linear_75_1519)"/>
<path d="M593.688 331.498C593.688 331.722 593.501 331.909 593.277 331.909H96.2361C96.1271 331.909 96.0227 331.866 95.9456 331.789C95.8686 331.711 95.8252 331.607 95.825 331.498C95.8246 331.443 95.835 331.389 95.8555 331.339C95.876 331.288 95.9061 331.243 95.9443 331.204C95.9825 331.165 96.0279 331.134 96.078 331.113C96.128 331.092 96.1818 331.081 96.2361 331.081H593.277C593.501 331.081 593.688 331.268 593.688 331.498ZM499.162 346.681H313.149C313.098 346.681 313.048 346.671 313.002 346.652C312.955 346.633 312.913 346.604 312.878 346.569C312.842 346.533 312.814 346.491 312.794 346.444C312.775 346.398 312.765 346.348 312.765 346.297V346.239C312.765 346.027 312.937 345.855 313.149 345.855H499.162C499.374 345.855 499.545 346.027 499.545 346.239V346.297C499.545 346.348 499.535 346.398 499.516 346.444C499.497 346.491 499.469 346.533 499.433 346.569C499.397 346.604 499.355 346.633 499.309 346.652C499.262 346.671 499.212 346.681 499.162 346.681ZM291.527 346.681H260.576C260.526 346.681 260.476 346.671 260.429 346.652C260.383 346.633 260.341 346.604 260.305 346.569C260.269 346.533 260.241 346.491 260.222 346.444C260.203 346.398 260.193 346.348 260.193 346.297V346.239C260.193 346.027 260.364 345.855 260.576 345.855H291.527C291.739 345.855 291.91 346.027 291.91 346.239V346.297C291.91 346.348 291.9 346.398 291.881 346.444C291.862 346.491 291.834 346.533 291.798 346.569C291.762 346.604 291.72 346.633 291.674 346.652C291.627 346.671 291.577 346.681 291.527 346.681Z" fill="#E9E8FD"/>
<path d="M138.908 216.613C146.442 216.613 152.549 213.576 152.549 209.83C152.549 206.084 146.442 203.047 138.908 203.047C131.374 203.047 125.267 206.084 125.267 209.83C125.267 213.576 131.374 216.613 138.908 216.613Z" fill="#FFDBDB"/>
<path d="M498.701 58.4439C498.832 58.6562 498.874 58.9124 498.813 59.1644C498.774 59.3264 498.693 59.4752 498.578 59.5956C498.463 59.7159 498.319 59.8035 498.159 59.8494L494.989 60.7753C494.83 60.8229 494.661 60.8272 494.499 60.7876C494.338 60.7481 494.19 60.6662 494.07 60.5504C493.949 60.436 493.861 60.2914 493.815 60.1316C493.768 59.9718 493.765 59.8024 493.806 59.6409L494.59 56.4284C494.628 56.2664 494.709 56.1175 494.824 55.9972C494.939 55.8769 495.084 55.7894 495.244 55.7439C495.403 55.6962 495.573 55.692 495.734 55.7316C495.896 55.7712 496.044 55.8533 496.163 55.9692L498.548 58.2558C498.607 58.3124 498.658 58.3759 498.701 58.4439ZM494.552 59.9694C494.575 60.0077 494.609 60.0374 494.651 60.0535C494.692 60.0696 494.737 60.0713 494.78 60.0582L497.949 59.1323C497.983 59.1227 498.014 59.1042 498.038 59.0787C498.063 59.0532 498.08 59.0216 498.088 58.9872C498.097 58.9531 498.096 58.9172 498.086 58.8833C498.076 58.8495 498.057 58.8189 498.032 58.7949L495.646 56.5083C495.621 56.4837 495.59 56.4662 495.556 56.4578C495.522 56.4494 495.486 56.4504 495.452 56.4605C495.418 56.4701 495.388 56.4885 495.363 56.514C495.339 56.5394 495.322 56.5709 495.314 56.6052L494.529 59.8176C494.523 59.8432 494.521 59.8698 494.525 59.8959C494.529 59.922 494.538 59.947 494.552 59.9694Z" fill="white"/>
<path d="M570.935 55.9346L572.101 54.7668C572.228 54.6395 572.3 54.4669 572.3 54.2869C572.3 54.1069 572.228 53.9343 572.101 53.807C571.974 53.6797 571.802 53.6082 571.622 53.6082C571.442 53.6082 571.27 53.6797 571.143 53.807L569.977 54.9748L568.811 53.807C568.748 53.744 568.674 53.694 568.591 53.6599C568.509 53.6258 568.421 53.6082 568.332 53.6082C568.243 53.6082 568.155 53.6258 568.073 53.6599C567.991 53.694 567.916 53.744 567.853 53.807C567.79 53.87 567.74 53.9449 567.706 54.0272C567.672 54.1095 567.655 54.1978 567.655 54.2869C567.655 54.376 567.672 54.4643 567.706 54.5466C567.74 54.629 567.79 54.7038 567.853 54.7668L569.019 55.9346L567.855 57.1003C567.728 57.2275 567.657 57.4002 567.657 57.5802C567.657 57.7602 567.728 57.9328 567.855 58.06C567.982 58.1873 568.154 58.2588 568.334 58.2588C568.514 58.2588 568.686 58.1873 568.813 58.06L569.977 56.8944L571.141 58.06C571.273 58.1928 571.446 58.2588 571.62 58.2588C571.754 58.2588 571.885 58.219 571.996 58.1444C572.108 58.0699 572.195 57.9639 572.246 57.8399C572.297 57.7159 572.311 57.5794 572.284 57.4478C572.258 57.3161 572.194 57.1952 572.099 57.1003L570.935 55.9346Z" fill="#A34FFF"/>
<path d="M604.733 164.846C604.087 164.845 603.468 164.588 603.011 164.13C602.554 163.673 602.297 163.052 602.296 162.405C602.297 161.758 602.554 161.138 603.011 160.68C603.468 160.223 604.087 159.965 604.733 159.964C605.379 159.965 605.999 160.223 606.455 160.68C606.912 161.138 607.169 161.758 607.17 162.405C607.169 163.052 606.912 163.673 606.455 164.13C605.999 164.588 605.379 164.845 604.733 164.846ZM604.733 160.728C604.289 160.728 603.864 160.905 603.55 161.22C603.236 161.534 603.059 161.961 603.059 162.405C603.059 162.85 603.236 163.276 603.55 163.59C603.864 163.905 604.289 164.082 604.733 164.082C605.177 164.082 605.603 163.905 605.916 163.59C606.23 163.276 606.407 162.85 606.407 162.405C606.407 161.961 606.23 161.534 605.917 161.22C605.603 160.905 605.177 160.729 604.733 160.728Z" fill="white"/>
<path d="M249.13 58.255L251.515 55.9684C251.635 55.8526 251.783 55.7707 251.944 55.7311C252.106 55.6915 252.275 55.6956 252.434 55.7431C252.594 55.7888 252.739 55.8763 252.854 55.9966C252.969 56.1168 253.05 56.2656 253.088 56.4276L253.873 59.6401C253.913 59.8016 253.91 59.9709 253.863 60.1307C253.817 60.2905 253.729 60.4351 253.608 60.5496C253.489 60.6654 253.341 60.7473 253.179 60.7868C253.018 60.8264 252.848 60.8221 252.689 60.7745L249.52 59.8485C249.36 59.8028 249.215 59.7153 249.1 59.5949C248.985 59.4745 248.904 59.3256 248.866 59.1636C248.825 59.0023 248.828 58.8331 248.875 58.6734C248.921 58.5137 249.009 58.3692 249.13 58.255ZM253.148 59.8177L252.364 56.6052C252.356 56.5709 252.339 56.5393 252.314 56.5139C252.29 56.4884 252.259 56.47 252.225 56.4606C252.192 56.4504 252.156 56.4494 252.122 56.4578C252.087 56.4662 252.056 56.4837 252.031 56.5084L249.646 58.7949C249.62 58.819 249.601 58.8496 249.591 58.8834C249.582 58.9172 249.581 58.9531 249.59 58.9873C249.598 59.0211 249.628 59.1027 249.728 59.1323L252.898 60.0582C252.94 60.0712 252.985 60.0695 253.027 60.0534C253.068 60.0373 253.103 60.0077 253.125 59.9695C253.139 59.947 253.148 59.922 253.152 59.8959C253.156 59.8698 253.155 59.8432 253.148 59.8177Z" fill="#A34FFF"/>
<path d="M176.743 55.9346L175.577 54.7668C175.45 54.6395 175.378 54.4669 175.378 54.2869C175.378 54.1069 175.45 53.9343 175.577 53.807C175.704 53.6797 175.876 53.6082 176.056 53.6082C176.236 53.6082 176.408 53.6797 176.535 53.807L177.701 54.9748L178.867 53.807C178.994 53.6797 179.166 53.6082 179.346 53.6082C179.526 53.6082 179.698 53.6797 179.825 53.807C179.952 53.9343 180.023 54.1069 180.023 54.2869C180.023 54.4669 179.952 54.6395 179.825 54.7668L178.659 55.9346L179.823 57.1003C179.95 57.2275 180.021 57.4002 180.021 57.5802C180.021 57.7602 179.95 57.9328 179.823 58.06C179.696 58.1873 179.523 58.2588 179.344 58.2588C179.164 58.2588 178.992 58.1873 178.865 58.06L177.701 56.8944L176.537 58.06C176.405 58.1928 176.232 58.2588 176.058 58.2588C175.924 58.2588 175.793 58.219 175.682 58.1444C175.57 58.0699 175.483 57.9639 175.432 57.8399C175.381 57.7159 175.367 57.5794 175.394 57.4478C175.42 57.3161 175.484 57.1952 175.579 57.1003L176.743 55.9346Z" fill="#A34FFF"/>
<path d="M140.508 162.405C140.508 161.758 140.765 161.138 141.222 160.68C141.679 160.223 142.298 159.965 142.944 159.964C143.59 159.965 144.21 160.223 144.667 160.68C145.123 161.138 145.38 161.758 145.381 162.405C145.38 163.052 145.123 163.673 144.667 164.13C144.21 164.588 143.59 164.845 142.944 164.846C142.298 164.845 141.679 164.588 141.222 164.13C140.765 163.673 140.508 163.052 140.508 162.405ZM141.27 162.405C141.27 162.85 141.447 163.276 141.761 163.59C142.075 163.905 142.5 164.082 142.944 164.082C143.388 164.082 143.813 163.905 144.127 163.59C144.441 163.276 144.618 162.85 144.618 162.405C144.618 161.961 144.441 161.534 144.127 161.22C143.813 160.905 143.388 160.729 142.944 160.728C142.5 160.729 142.075 160.906 141.761 161.22C141.447 161.534 141.27 161.961 141.27 162.405Z" fill="white"/>
</g>
<defs>
<linearGradient id="paint0_linear_75_1519" x1="360" y1="-39.2" x2="360" y2="439.2" gradientUnits="userSpaceOnUse">
<stop offset="0.0239582" stop-color="#E3C8FF"/>
<stop offset="1" stop-color="#AD61FF"/>
</linearGradient>
<linearGradient id="paint1_linear_75_1519" x1="501.169" y1="228.904" x2="617.766" y2="171.616" gradientUnits="userSpaceOnUse">
<stop offset="0.184024" stop-color="#019F82"/>
<stop offset="1" stop-color="#67FFD2"/>
</linearGradient>
<linearGradient id="paint2_linear_75_1519" x1="534.809" y1="245.651" x2="636.409" y2="182.013" gradientUnits="userSpaceOnUse">
<stop offset="0.184024" stop-color="#03AB8D"/>
<stop offset="1" stop-color="#67FFD2"/>
</linearGradient>
<linearGradient id="paint3_linear_75_1519" x1="169.411" y1="249.818" x2="281.337" y2="169.096" gradientUnits="userSpaceOnUse">
<stop offset="0.184024" stop-color="#03AB8D"/>
<stop offset="1" stop-color="#67FFD2"/>
</linearGradient>
<linearGradient id="paint4_linear_75_1519" x1="160.779" y1="245.651" x2="262.379" y2="182.013" gradientUnits="userSpaceOnUse">
<stop offset="0.184024" stop-color="#03AB8D"/>
<stop offset="1" stop-color="#67FFD2"/>
</linearGradient>
<linearGradient id="paint5_linear_75_1519" x1="256.152" y1="167.182" x2="256.152" y2="198.187" gradientUnits="userSpaceOnUse">
<stop stop-color="white"/>
<stop offset="0.84427" stop-color="#FFC4C4"/>
</linearGradient>
<linearGradient id="paint6_linear_75_1519" x1="172.57" y1="236.541" x2="311.147" y2="149.464" gradientUnits="userSpaceOnUse">
<stop stop-color="#AD88FF"/>
<stop offset="1" stop-color="#6038BA"/>
</linearGradient>
<linearGradient id="paint7_linear_75_1519" x1="213.976" y1="210.33" x2="292.061" y2="324.14" gradientUnits="userSpaceOnUse">
<stop stop-color="#AD88FF"/>
<stop offset="1" stop-color="#6038BA"/>
</linearGradient>
<linearGradient id="paint8_linear_75_1519" x1="170.859" y1="166.746" x2="170.859" y2="337.285" gradientUnits="userSpaceOnUse">
<stop stop-color="#FFE783"/>
<stop offset="1" stop-color="#FF7B3F"/>
</linearGradient>
<linearGradient id="paint9_linear_75_1519" x1="170.859" y1="166.746" x2="170.859" y2="337.285" gradientUnits="userSpaceOnUse">
<stop stop-color="#FFDD4F"/>
<stop offset="1" stop-color="#FF8F5C"/>
</linearGradient>
<linearGradient id="paint10_linear_75_1519" x1="251.936" y1="116.301" x2="251.936" y2="179.486" gradientUnits="userSpaceOnUse">
<stop stop-color="white"/>
<stop offset="0.84427" stop-color="#FFC4C4"/>
</linearGradient>
<linearGradient id="paint11_linear_75_1519" x1="263.108" y1="133.123" x2="279.536" y2="173.217" gradientUnits="userSpaceOnUse">
<stop stop-color="white"/>
<stop offset="0.84427" stop-color="#FFC4C4"/>
</linearGradient>
<linearGradient id="paint12_linear_75_1519" x1="170.529" y1="313.012" x2="302.564" y2="238.967" gradientUnits="userSpaceOnUse">
<stop stop-color="#AD88FF"/>
<stop offset="1" stop-color="#6038BA"/>
</linearGradient>
<linearGradient id="paint13_linear_75_1519" x1="468.6" y1="170.22" x2="468.6" y2="201.721" gradientUnits="userSpaceOnUse">
<stop stop-color="white"/>
<stop offset="0.84427" stop-color="#FFC4C4"/>
</linearGradient>
<linearGradient id="paint14_linear_75_1519" x1="472.611" y1="121.622" x2="472.611" y2="184.355" gradientUnits="userSpaceOnUse">
<stop stop-color="white"/>
<stop offset="0.84427" stop-color="#FFC4C4"/>
</linearGradient>
<linearGradient id="paint15_linear_75_1519" x1="484.446" y1="234.872" x2="596.151" y2="234.872" gradientUnits="userSpaceOnUse">
<stop stop-color="#94D2FF"/>
<stop offset="1" stop-color="#42BDFF"/>
</linearGradient>
<linearGradient id="paint16_linear_75_1519" x1="517.987" y1="224.602" x2="430.174" y2="312.269" gradientUnits="userSpaceOnUse">
<stop stop-color="#94D2FF"/>
<stop offset="1" stop-color="#2FA9EB"/>
</linearGradient>
<linearGradient id="paint17_linear_75_1519" x1="557.133" y1="187.974" x2="557.023" y2="322.505" gradientUnits="userSpaceOnUse">
<stop stop-color="#FFEC9E"/>
<stop offset="1" stop-color="#FF9564"/>
</linearGradient>
<linearGradient id="paint18_linear_75_1519" x1="557.023" y1="207.533" x2="557.023" y2="239.441" gradientUnits="userSpaceOnUse">
<stop stop-color="#FFDD4F"/>
<stop offset="1" stop-color="#FF8F5C"/>
</linearGradient>
<linearGradient id="paint19_linear_75_1519" x1="561.923" y1="295.135" x2="561.923" y2="321.539" gradientUnits="userSpaceOnUse">
<stop stop-color="white"/>
<stop offset="0.84427" stop-color="#FFC4C4"/>
</linearGradient>
<linearGradient id="paint20_linear_75_1519" x1="562.468" y1="310.241" x2="382.378" y2="224.412" gradientUnits="userSpaceOnUse">
<stop stop-color="#94D2FF"/>
<stop offset="1" stop-color="#2FA9EB"/>
</linearGradient>
<linearGradient id="paint21_linear_75_1519" x1="288.471" y1="310.218" x2="449.047" y2="213.788" gradientUnits="userSpaceOnUse">
<stop stop-color="#F04D8D"/>
<stop offset="1" stop-color="#FF7ACE"/>
</linearGradient>
<linearGradient id="paint22_linear_75_1519" x1="395.085" y1="131.731" x2="371.828" y2="213.725" gradientUnits="userSpaceOnUse">
<stop stop-color="#FFE1E1"/>
<stop offset="0.676838" stop-color="#FFF4F4"/>
<stop offset="0.84427" stop-color="#FFC4C4"/>
</linearGradient>
<linearGradient id="paint23_linear_75_1519" x1="362.165" y1="110.224" x2="362.165" y2="180.36" gradientUnits="userSpaceOnUse">
<stop stop-color="white"/>
<stop offset="0.84427" stop-color="#FFC4C4"/>
</linearGradient>
<linearGradient id="paint24_linear_75_1519" x1="362.23" y1="235.029" x2="362.278" y2="344.612" gradientUnits="userSpaceOnUse">
<stop stop-color="#FFE98D"/>
<stop offset="1" stop-color="#FE834B"/>
</linearGradient>
<linearGradient id="paint25_linear_75_1519" x1="362.278" y1="187.956" x2="362.278" y2="344.612" gradientUnits="userSpaceOnUse">
<stop stop-color="#FFDD4F"/>
<stop offset="1" stop-color="#FF8F5C"/>
</linearGradient>
<linearGradient id="paint26_linear_75_1519" x1="364.654" y1="283.963" x2="364.654" y2="305.673" gradientUnits="userSpaceOnUse">
<stop stop-color="white"/>
<stop offset="0.84427" stop-color="#FFC4C4"/>
</linearGradient>
<linearGradient id="paint27_linear_75_1519" x1="265.41" y1="314.897" x2="353.382" y2="292.128" gradientUnits="userSpaceOnUse">
<stop stop-color="#FF2E81"/>
<stop offset="1" stop-color="#FF7ACE"/>
</linearGradient>
<linearGradient id="paint28_linear_75_1519" x1="322.84" y1="367.448" x2="483.415" y2="271.018" gradientUnits="userSpaceOnUse">
<stop stop-color="#F04D8D"/>
<stop offset="1" stop-color="#FF7ACE"/>
</linearGradient>
<clipPath id="clip0_75_1519">
<rect width="720" height="400" fill="white"/>
</clipPath>
</defs>
</svg>
