<svg width="720" height="400" viewBox="0 0 720 400" fill="none" xmlns="http://www.w3.org/2000/svg">
<rect width="720" height="400" fill="url(#paint0_linear_203_167)"/>
<path opacity="0.16" d="M167.24 244.589C165.01 237.142 163.605 228.718 167.184 221.841C171.879 212.84 182.924 210.088 192.504 207.212C209.364 202.155 226.539 192.61 233.196 176.015C239.543 160.207 234.865 141.705 240.2 125.512C247.748 102.623 277.378 90.7241 298.163 102.239C304.349 105.667 309.895 110.817 316.842 111.956C328.562 113.878 338.531 103.975 347.259 95.7506C358.157 85.4768 370.655 76.506 384.908 72.3408C399.161 68.1756 415.403 69.3019 427.624 77.884C437.567 84.8496 444.423 96.2453 455.49 101.1C470.037 107.482 487.048 100.631 502.529 104.072C522.471 108.489 535.889 132.42 529.56 152.248C525.021 166.47 512.082 179.023 515 193.683C516.686 202.155 523.352 208.476 529.266 214.673C546.269 232.544 560.059 257.694 553.203 281.611C548.305 298.687 533.563 311.377 517.322 317.87C501.08 324.363 483.386 325.565 465.986 326.377C402.295 329.372 335.915 332.119 272.272 327.645C225.337 324.354 181.139 291.011 167.24 244.589Z" fill="#FAFAFA"/>
<path d="M556.801 262.636H160.953C158.606 262.636 156.691 260.69 156.691 258.27V249.065C156.691 246.661 158.591 244.7 160.953 244.7H556.816C559.163 244.7 561.078 246.645 561.078 249.065V258.27C561.063 260.69 559.163 262.636 556.801 262.636Z" fill="url(#paint1_linear_203_167)"/>
<path d="M178.387 244.716C180.163 248.195 188.084 250.837 197.596 250.837C207.108 250.837 215.045 248.211 216.806 244.716H178.387Z" fill="#8187F6" fill-opacity="0.33"/>
<path d="M506.924 240.762H588.255C591.436 240.762 594 238.121 594 234.878V193.882C594 190.624 591.421 187.998 588.255 187.998H506.924C503.743 187.998 501.18 190.64 501.18 193.882V234.878C501.18 238.121 503.743 240.762 506.924 240.762Z" fill="url(#paint2_linear_203_167)"/>
<path d="M588.255 187.982H506.924C503.743 187.982 501.18 190.624 501.18 193.866V217.464C501.18 220.722 503.758 223.348 506.924 223.348H588.255C591.436 223.348 594 220.706 594 217.464V193.866C594 190.624 591.436 187.982 588.255 187.982Z" fill="white"/>
<path d="M517.054 215.392H507.897C506.816 215.392 505.936 214.491 505.936 213.384V198.311C505.936 197.203 506.816 196.302 507.897 196.302H517.054C518.134 196.302 519.015 197.203 519.015 198.311V213.384C519.015 214.507 518.134 215.392 517.054 215.392ZM583.715 215.503H569.71C568.629 215.503 567.749 214.601 567.749 213.494V210.537C567.749 209.429 568.629 208.528 569.71 208.528H583.715C584.796 208.528 585.676 209.429 585.676 210.537V213.494C585.661 214.601 584.796 215.503 583.715 215.503ZM583.715 203.277H569.71C568.629 203.277 567.749 202.375 567.749 201.268V198.311C567.749 197.203 568.629 196.302 569.71 196.302H583.715C584.796 196.302 585.676 197.203 585.676 198.311V201.268C585.661 202.375 584.796 203.277 583.715 203.277ZM538.826 215.503H524.821C523.74 215.503 522.86 214.601 522.86 213.494V210.537C522.86 209.429 523.74 208.528 524.821 208.528H538.826C539.907 208.528 540.787 209.429 540.787 210.537V213.494C540.787 214.601 539.907 215.503 538.826 215.503ZM538.826 203.277H524.821C523.74 203.277 522.86 202.375 522.86 201.268V198.311C522.86 197.203 523.74 196.302 524.821 196.302H538.826C539.907 196.302 540.787 197.203 540.787 198.311V201.268C540.787 202.375 539.907 203.277 538.826 203.277ZM561.109 215.503H547.103C546.022 215.503 545.142 214.601 545.142 213.494V210.537C545.142 209.429 546.022 208.528 547.103 208.528H561.109C562.19 208.528 563.07 209.429 563.07 210.537V213.494C563.07 214.601 562.19 215.503 561.109 215.503ZM561.109 203.277H547.103C546.022 203.277 545.142 202.375 545.142 201.268V198.311C545.142 197.203 546.022 196.302 547.103 196.302H561.109C562.19 196.302 563.07 197.203 563.07 198.311V201.268C563.07 202.375 562.19 203.277 561.109 203.277Z" fill="url(#paint3_linear_203_167)"/>
<path d="M316.961 187.982H235.63C232.449 187.982 229.885 190.624 229.885 193.866V234.862C229.885 238.12 232.464 240.746 235.63 240.746H316.961C320.142 240.746 322.705 238.105 322.705 234.862V193.866C322.705 190.624 320.142 187.982 316.961 187.982Z" fill="white"/>
<path d="M241.374 228.631H238.162C237.452 228.631 236.865 229.232 236.865 229.959V232.79C236.865 233.518 237.452 234.119 238.162 234.119H241.374C242.085 234.119 242.671 233.518 242.671 232.79V229.959C242.656 229.232 242.085 228.631 241.374 228.631ZM250.701 228.631H247.489C246.779 228.631 246.192 229.232 246.192 229.959V232.79C246.192 233.518 246.779 234.119 247.489 234.119H250.701C251.411 234.119 251.998 233.518 251.998 232.79V229.959C251.998 229.232 251.427 228.631 250.701 228.631ZM260.537 228.631H257.325C256.615 228.631 256.028 229.232 256.028 229.959V232.79C256.028 233.518 256.615 234.119 257.325 234.119H260.537C261.248 234.119 261.834 233.518 261.834 232.79V229.959C261.834 229.232 261.248 228.631 260.537 228.631ZM270.266 228.631H267.054C266.343 228.631 265.757 229.232 265.757 229.959V232.79C265.757 233.518 266.343 234.119 267.054 234.119H270.266C270.976 234.119 271.563 233.518 271.563 232.79V229.959C271.563 229.232 270.976 228.631 270.266 228.631ZM279.731 228.631H276.519C275.809 228.631 275.222 229.232 275.222 229.959V232.79C275.222 233.518 275.809 234.119 276.519 234.119H279.731C280.442 234.119 281.028 233.518 281.028 232.79V229.959C281.028 229.232 280.442 228.631 279.731 228.631ZM289.614 228.631H286.402C285.692 228.631 285.105 229.232 285.105 229.959V232.79C285.105 233.518 285.692 234.119 286.402 234.119H289.614C290.324 234.119 290.911 233.518 290.911 232.79V229.959C290.911 229.232 290.324 228.631 289.614 228.631ZM300.778 228.631H297.566C296.856 228.631 296.269 229.232 296.269 229.959V232.79C296.269 233.518 296.856 234.119 297.566 234.119H300.778C301.489 234.119 302.075 233.518 302.075 232.79V229.959C302.075 229.232 301.504 228.631 300.778 228.631ZM311.958 228.631H308.746C308.036 228.631 307.449 229.232 307.449 229.959V232.79C307.449 233.518 308.036 234.119 308.746 234.119H311.958C312.668 234.119 313.255 233.518 313.255 232.79V229.959C313.255 229.232 312.668 228.631 311.958 228.631ZM241.374 219.773H238.162C237.452 219.773 236.865 220.374 236.865 221.102V223.933C236.865 224.661 237.452 225.262 238.162 225.262H241.374C242.085 225.262 242.671 224.661 242.671 223.933V221.102C242.656 220.374 242.085 219.773 241.374 219.773ZM250.701 219.773H247.489C246.779 219.773 246.192 220.374 246.192 221.102V223.933C246.192 224.661 246.779 225.262 247.489 225.262H250.701C251.411 225.262 251.998 224.661 251.998 223.933V221.102C251.998 220.374 251.427 219.773 250.701 219.773ZM260.537 219.773H257.325C256.615 219.773 256.028 220.374 256.028 221.102V223.933C256.028 224.661 256.615 225.262 257.325 225.262H260.537C261.248 225.262 261.834 224.661 261.834 223.933V221.102C261.834 220.374 261.248 219.773 260.537 219.773ZM270.266 219.773H267.054C266.343 219.773 265.757 220.374 265.757 221.102V223.933C265.757 224.661 266.343 225.262 267.054 225.262H270.266C270.976 225.262 271.563 224.661 271.563 223.933V221.102C271.563 220.374 270.976 219.773 270.266 219.773ZM279.731 219.773H276.519C275.809 219.773 275.222 220.374 275.222 221.102V223.933C275.222 224.661 275.809 225.262 276.519 225.262H279.731C280.442 225.262 281.028 224.661 281.028 223.933V221.102C281.028 220.374 280.442 219.773 279.731 219.773ZM289.614 219.773H286.402C285.692 219.773 285.105 220.374 285.105 221.102V223.933C285.105 224.661 285.692 225.262 286.402 225.262H289.614C290.324 225.262 290.911 224.661 290.911 223.933V221.102C290.911 220.374 290.324 219.773 289.614 219.773ZM300.778 219.773H297.566C296.856 219.773 296.269 220.374 296.269 221.102V223.933C296.269 224.661 296.856 225.262 297.566 225.262H300.778C301.489 225.262 302.075 224.661 302.075 223.933V221.102C302.075 220.374 301.504 219.773 300.778 219.773ZM311.958 219.773H308.746C308.036 219.773 307.449 220.374 307.449 221.102V223.933C307.449 224.661 308.036 225.262 308.746 225.262H311.958C312.668 225.262 313.255 224.661 313.255 223.933V221.102C313.255 220.374 312.668 219.773 311.958 219.773ZM241.374 210.916H238.162C237.452 210.916 236.865 211.517 236.865 212.245V215.076C236.865 215.803 237.452 216.404 238.162 216.404H241.374C242.085 216.404 242.671 215.803 242.671 215.076V212.245C242.656 211.517 242.085 210.916 241.374 210.916ZM250.701 210.916H247.489C246.779 210.916 246.192 211.517 246.192 212.245V215.076C246.192 215.803 246.779 216.404 247.489 216.404H250.701C251.411 216.404 251.998 215.803 251.998 215.076V212.245C251.998 211.517 251.427 210.916 250.701 210.916ZM260.537 210.916H257.325C256.615 210.916 256.028 211.517 256.028 212.245V215.076C256.028 215.803 256.615 216.404 257.325 216.404H260.537C261.248 216.404 261.834 215.803 261.834 215.076V212.245C261.834 211.517 261.248 210.916 260.537 210.916ZM270.266 210.916H267.054C266.343 210.916 265.757 211.517 265.757 212.245V215.076C265.757 215.803 266.343 216.404 267.054 216.404H270.266C270.976 216.404 271.563 215.803 271.563 215.076V212.245C271.563 211.517 270.976 210.916 270.266 210.916ZM279.731 210.916H276.519C275.809 210.916 275.222 211.517 275.222 212.245V215.076C275.222 215.803 275.809 216.404 276.519 216.404H279.731C280.442 216.404 281.028 215.803 281.028 215.076V212.245C281.028 211.517 280.442 210.916 279.731 210.916ZM289.614 210.916H286.402C285.692 210.916 285.105 211.517 285.105 212.245V215.076C285.105 215.803 285.692 216.404 286.402 216.404H289.614C290.324 216.404 290.911 215.803 290.911 215.076V212.245C290.911 211.517 290.324 210.916 289.614 210.916ZM300.778 210.916H297.566C296.856 210.916 296.269 211.517 296.269 212.245V215.076C296.269 215.803 296.856 216.404 297.566 216.404H300.778C301.489 216.404 302.075 215.803 302.075 215.076V212.245C302.075 211.517 301.504 210.916 300.778 210.916ZM311.958 210.916H308.746C308.036 210.916 307.449 211.517 307.449 212.245V215.076C307.449 215.803 308.036 216.404 308.746 216.404H311.958C312.668 216.404 313.255 215.803 313.255 215.076V212.245C313.255 211.517 312.668 210.916 311.958 210.916ZM241.374 201.11H238.162C237.452 201.11 236.865 201.711 236.865 202.439V205.27C236.865 205.997 237.452 206.598 238.162 206.598H241.374C242.085 206.598 242.671 205.997 242.671 205.27V202.439C242.656 201.711 242.085 201.11 241.374 201.11ZM250.701 201.11H247.489C246.779 201.11 246.192 201.711 246.192 202.439V205.27C246.192 205.997 246.779 206.598 247.489 206.598H250.701C251.411 206.598 251.998 205.997 251.998 205.27V202.439C251.998 201.711 251.427 201.11 250.701 201.11ZM260.537 201.11H257.325C256.615 201.11 256.028 201.711 256.028 202.439V205.27C256.028 205.997 256.615 206.598 257.325 206.598H260.537C261.248 206.598 261.834 205.997 261.834 205.27V202.439C261.834 201.711 261.248 201.11 260.537 201.11ZM270.266 201.11H267.054C266.343 201.11 265.757 201.711 265.757 202.439V205.27C265.757 205.997 266.343 206.598 267.054 206.598H270.266C270.976 206.598 271.563 205.997 271.563 205.27V202.439C271.563 201.711 270.976 201.11 270.266 201.11ZM279.731 201.11H276.519C275.809 201.11 275.222 201.711 275.222 202.439V205.27C275.222 205.997 275.809 206.598 276.519 206.598H279.731C280.442 206.598 281.028 205.997 281.028 205.27V202.439C281.028 201.711 280.442 201.11 279.731 201.11ZM289.614 201.11H286.402C285.692 201.11 285.105 201.711 285.105 202.439V205.27C285.105 205.997 285.692 206.598 286.402 206.598H289.614C290.324 206.598 290.911 205.997 290.911 205.27V202.439C290.911 201.711 290.324 201.11 289.614 201.11ZM300.778 201.11H297.566C296.856 201.11 296.269 201.711 296.269 202.439V205.27C296.269 205.997 296.856 206.598 297.566 206.598H300.778C301.489 206.598 302.075 205.997 302.075 205.27V202.439C302.075 201.711 301.504 201.11 300.778 201.11ZM311.958 201.11H308.746C308.036 201.11 307.449 201.711 307.449 202.439V205.27C307.449 205.997 308.036 206.598 308.746 206.598H311.958C312.668 206.598 313.255 205.997 313.255 205.27V202.439C313.255 201.711 312.668 201.11 311.958 201.11Z" fill="url(#paint4_linear_203_167)"/>
<path d="M402.74 240.762H484.072C487.253 240.762 489.816 238.121 489.816 234.878V193.882C489.816 190.624 487.237 187.998 484.072 187.998H402.74C399.559 187.998 396.996 190.64 396.996 193.882V234.878C396.996 238.121 399.575 240.762 402.74 240.762Z" fill="white"/>
<path d="M484.072 187.982H402.74C399.559 187.982 396.996 190.624 396.996 193.866V212.719C396.996 215.977 399.575 218.603 402.74 218.603H484.072C487.253 218.603 489.816 215.962 489.816 212.719V193.866C489.831 190.624 487.253 187.982 484.072 187.982Z" fill="#CCCFFF"/>
<path d="M196.222 186.654L187.312 220.865H208.251L199.342 186.654C198.925 185.009 196.655 185.009 196.222 186.654Z" fill="url(#paint5_linear_203_167)"/>
<path d="M182.525 198.279L189.536 232.395L203.047 226.685L184.517 197.441C183.853 196.397 182.278 197.061 182.525 198.279Z" fill="url(#paint6_linear_203_167)"/>
<path d="M205.966 212.039L203.526 202.692L187.467 220.295L187.312 220.849H202.492L205.966 212.039Z" fill="#A4B32D"/>
<path d="M210.274 195.305L187.019 220.77L199.357 228.82L212.096 196.492C212.544 195.337 211.108 194.404 210.274 195.305Z" fill="url(#paint7_linear_203_167)"/>
<path d="M210.861 220.786H183.468L179.067 227.397C178.959 227.555 178.851 227.729 178.743 227.903C174.249 235.258 179.654 244.811 188.131 244.779L206.09 244.716C214.459 244.684 219.802 235.305 215.478 227.966C215.37 227.792 215.262 227.618 215.154 227.444L210.861 220.786Z" fill="url(#paint8_linear_203_167)"/>
<path d="M182.696 224.075C182.788 223.791 182.896 223.522 183.02 223.253L184.008 220.801H183.468L179.067 227.413C178.959 227.571 178.851 227.745 178.743 227.919C174.249 235.273 179.654 244.827 188.131 244.795L191.683 244.779C184.24 241.537 179.576 232.79 182.696 224.075Z" fill="url(#paint9_linear_203_167)"/>
<path d="M498.631 246.123C498.631 249.35 506.985 251.96 517.3 251.96C527.615 251.96 535.969 249.35 535.969 246.123C535.969 245.633 535.784 245.174 535.428 244.716H499.187C498.816 245.159 498.631 245.633 498.631 246.123Z" fill="#8F94FF" fill-opacity="0.38"/>
<path d="M515.509 225.578C524.95 225.578 532.603 224.622 532.603 223.443C532.603 222.263 524.95 221.308 515.509 221.308C506.068 221.308 498.415 222.263 498.415 223.443C498.415 224.622 506.068 225.578 515.509 225.578Z" fill="#D8E1FF"/>
<path d="M515.508 247.737C519.747 247.737 523.183 246.299 523.183 244.526C523.183 242.753 519.747 241.315 515.508 241.315C511.27 241.315 507.834 242.753 507.834 244.526C507.834 246.299 511.27 247.737 515.508 247.737Z" fill="#C5C6D9"/>
<path d="M515.509 225.578C506.506 225.578 499.125 224.708 498.461 223.601C498.43 224.107 498.415 224.629 498.415 225.135C498.415 236.365 506.074 245.459 515.509 245.459C524.944 245.459 532.603 236.365 532.603 225.135C532.603 224.613 532.587 224.107 532.557 223.601C531.893 224.708 524.511 225.578 515.509 225.578Z" fill="url(#paint10_linear_203_167)"/>
<path d="M503.851 225.135C503.851 225.088 503.851 225.04 503.851 224.993C500.793 224.645 498.786 224.139 498.461 223.601C498.43 224.107 498.415 224.629 498.415 225.135C498.415 236.365 506.074 245.459 515.509 245.459C516.435 245.459 517.347 245.364 518.227 245.206C510.074 243.656 503.851 235.258 503.851 225.135ZM536.988 226.812C536.417 226.147 535.583 225.768 534.718 225.768H532.587C532.572 226.622 532.495 227.46 532.387 228.267H534.718C534.95 228.267 535.089 228.393 535.151 228.472C535.213 228.551 535.321 228.71 535.29 228.947C534.981 231.525 533.776 234.957 529.839 236.57C529.746 236.602 529.654 236.649 529.576 236.681C528.881 237.867 528.094 238.974 527.214 239.955C528.264 239.765 529.453 239.433 530.765 238.895C536.077 236.713 537.405 231.92 537.73 229.247C537.822 228.362 537.56 227.476 536.988 226.812Z" fill="url(#paint11_linear_203_167)"/>
<path d="M589.987 97.56H522.258C520.493 97.56 519.062 98.9907 519.062 100.755V165.064C519.062 166.829 520.493 168.259 522.258 168.259H589.987C591.752 168.259 593.183 166.829 593.183 165.064V100.755C593.183 98.9906 591.752 97.56 589.987 97.56Z" fill="white"/>
<path d="M593.183 110.814H519.062V151.953H593.183V110.814Z" fill="#FA7A7A"/>
<path d="M529.471 108.094C531.185 108.094 532.575 106.67 532.575 104.915C532.575 103.159 531.185 101.735 529.471 101.735C527.757 101.735 526.367 103.159 526.367 104.915C526.367 106.67 527.757 108.094 529.471 108.094Z" fill="url(#paint12_linear_203_167)"/>
<path d="M532.515 160.786C532.909 159.078 531.876 157.365 530.208 156.962C528.54 156.558 526.868 157.616 526.474 159.325C526.08 161.034 527.113 162.746 528.781 163.15C530.45 163.553 532.121 162.495 532.515 160.786Z" fill="url(#paint13_linear_203_167)"/>
<path d="M543.237 162.251C544.45 161.009 544.45 158.996 543.237 157.755C542.025 156.514 540.06 156.514 538.848 157.755C537.636 158.997 537.636 161.01 538.848 162.251C540.06 163.492 542.025 163.492 543.237 162.251Z" fill="url(#paint14_linear_203_167)"/>
<path d="M582.629 162.252C583.841 161.01 583.841 158.997 582.629 157.756C581.417 156.514 579.452 156.514 578.24 157.756C577.028 158.997 577.028 161.01 578.24 162.252C579.452 163.493 581.417 163.493 582.629 162.252Z" fill="url(#paint15_linear_203_167)"/>
<path opacity="0.5" d="M569.371 130.632C569.371 131.186 569.371 131.755 569.371 132.309C569.356 132.388 569.325 132.467 569.325 132.546C569.186 134.555 568.677 136.453 567.719 138.208C565.14 142.906 561.203 145.468 555.937 145.8C553.42 145.958 551.011 145.405 548.803 144.139C544.186 141.514 541.684 137.465 541.36 132.071C541.206 129.477 541.762 127.01 542.982 124.733C545.159 120.684 548.479 118.216 552.911 117.33C553.451 117.22 553.991 117.172 554.532 117.109C555.072 117.109 555.628 117.109 556.169 117.109C556.246 117.125 556.308 117.156 556.385 117.156C558.099 117.267 559.736 117.694 561.28 118.453C565.588 120.62 568.229 124.116 569.155 128.956C569.263 129.525 569.31 130.078 569.371 130.632Z" fill="white"/>
<path d="M551.861 131.47C551.861 130.015 551.861 128.56 551.861 127.105C551.861 126.599 552.093 126.267 552.51 126.14C552.819 126.045 553.081 126.156 553.328 126.33C554.919 127.342 556.509 128.37 558.1 129.383C558.764 129.81 559.412 130.221 560.076 130.648C560.802 131.122 560.802 131.866 560.076 132.34C557.837 133.78 555.598 135.203 553.359 136.642C553.035 136.848 552.695 136.974 552.325 136.753C551.954 136.547 551.861 136.199 551.861 135.788C551.861 134.333 551.861 132.91 551.861 131.47Z" fill="white"/>
<path d="M324.914 179.125H495.807C498.2 179.125 500.13 177.148 500.13 174.697V81.4905C500.13 79.039 498.2 77.0619 495.807 77.0619H324.914C322.52 77.0619 320.59 79.039 320.59 81.4905V174.697C320.59 177.148 322.52 179.125 324.914 179.125Z" fill="url(#paint16_linear_203_167)"/>
<path d="M329.222 170.568H492.502C494.741 170.568 496.563 168.702 496.563 166.409V84.9385C496.563 82.6451 494.741 80.7787 492.502 80.7787H329.222C326.983 80.7787 325.161 82.6451 325.161 84.9385V166.409C325.161 168.702 326.983 170.568 329.222 170.568Z" fill="white"/>
<path d="M496.563 150.513H334.426V161.585H496.563V150.513Z" fill="url(#paint17_linear_203_167)"/>
<path d="M484.163 150.513H455.643V161.585H484.163V150.513Z" fill="#8388E7"/>
<path d="M447.721 150.513H419.2V161.585H447.721V150.513Z" fill="#8388E7"/>
<path d="M401.397 150.513H372.876V161.585H401.397V150.513Z" fill="#8388E7"/>
<path d="M496.563 136.911H334.426V147.983H496.563V136.911Z" fill="url(#paint18_linear_203_167)"/>
<path d="M488.595 136.911H461.618V147.983H488.595V136.911Z" fill="#8388E7"/>
<path d="M447.722 136.911H405.211V147.983H447.722V136.911Z" fill="#8388E7"/>
<path d="M412.515 136.911H372.876V147.983H412.515V136.911Z" fill="#8388E7"/>
<path d="M449.898 129.557H446.887C446.131 129.557 445.528 130.173 445.528 130.948V133.526C445.528 133.985 445.745 134.412 446.115 134.665C446.115 134.665 446.409 134.871 446.733 135.108C447.412 135.583 447.814 136.373 447.814 137.212V161.601H448.987V137.212C448.987 136.373 449.389 135.583 450.068 135.108C450.408 134.871 450.686 134.665 450.686 134.665C451.056 134.412 451.273 133.985 451.273 133.526V130.948C451.257 130.173 450.64 129.557 449.898 129.557Z" fill="#0099F9"/>
<path d="M399.529 123.135H453.127C455.212 123.135 456.911 121.395 456.911 119.26V92.2456C456.911 90.1104 455.212 88.3706 453.127 88.3706H399.529C397.445 88.3706 395.746 90.1104 395.746 92.2456V119.26C395.746 121.395 397.429 123.135 399.529 123.135Z" fill="#EFEFFF"/>
<path d="M453.127 88.3548H399.529C397.445 88.3548 395.746 90.0946 395.746 92.2298V99.9799L456.911 114.974V92.2298C456.911 90.0946 455.212 88.3548 453.127 88.3548Z" fill="#EFEFFF"/>
<path d="M456.911 97.1487C455.891 96.9589 454.857 96.7691 454.008 96.5003C450.425 95.314 445.762 94.4758 445.762 94.4758C443.878 94.286 443.615 96.9589 447.198 100.359C450.549 103.539 451.244 106.085 456.911 102.621V97.1487ZM410.076 91.5497C414.014 92.8309 422.352 98.7145 418.322 97.6074C414.292 96.5003 412.948 94.7288 411.203 94.2385C409.458 93.7482 406.154 92.8308 406.54 91.0594C406.941 89.2721 410.076 91.5497 410.076 91.5497Z" fill="#A8A8FF"/>
<path d="M404.147 111.905C407.313 113.218 409.675 114.974 407.267 114.626C404.858 114.278 400.781 112.443 400.766 111.304C400.766 110.15 403.344 111.573 404.147 111.905Z" fill="#A8A8FF"/>
<path d="M402.911 92.2773C404.795 92.989 406.108 94.6972 404.702 94.4125C403.297 94.1436 400.966 92.9416 400.996 92.2773C401.027 91.5972 402.911 92.2773 402.911 92.2773Z" fill="#A8A8FF"/>
<path d="M402.51 115.606C400.718 114.99 398.526 113.629 395.746 112.206V113.693C398.973 115.29 402.556 116.935 405.104 117.916C407.389 118.786 414.122 121.3 414.631 120.193C415.033 119.292 410.03 118.169 402.51 115.606Z" fill="#A8A8FF"/>
<path d="M432.157 95.1875L431.2 90.7272C426.814 92.0242 425.517 94.4283 425.409 97.7655L425.239 103.633C425.425 103.633 425.594 103.633 425.78 103.665C425.872 103.633 425.98 103.618 426.089 103.618H427.725C427.787 103.618 427.849 103.618 427.911 103.602C428.76 104.06 429.717 104.329 430.752 104.329C431.308 104.329 431.864 104.25 432.373 104.108L432.157 95.1875Z" fill="#C7C7DA"/>
<path d="M441.762 116.714C439.924 117.52 437.793 116.65 437.006 114.768L434.473 108.726C433.686 106.844 434.535 104.662 436.373 103.855C438.21 103.048 440.341 103.918 441.129 105.8L443.661 111.842C444.449 113.74 443.599 115.907 441.762 116.714ZM419.078 116.761L418.846 116.619C417.518 115.844 417.071 114.104 417.827 112.744L422.043 105.263C422.799 103.902 425.193 103.127 426.737 103.934C428.482 104.835 427.833 106.876 427.061 108.236L422.846 115.717C422.089 117.077 420.391 117.536 419.078 116.761Z" fill="#B7B7CF"/>
<path d="M431.17 120.778C433.872 120.794 436.158 118.738 436.482 115.986L437.764 104.772C437.841 104.14 437.347 103.57 436.729 103.57H434.104C433.27 103.57 432.606 102.874 432.606 102.036V100.881C432.606 99.8375 431.772 98.9834 430.753 98.9834C429.734 98.9834 428.9 99.8375 428.9 100.881V102.431C428.9 103.08 428.39 103.602 427.757 103.602H426.121C425.503 103.602 425.024 104.14 425.07 104.756L425.966 115.796C426.151 118.596 428.421 120.763 431.17 120.778Z" fill="#B7B7CF"/>
<path d="M434.089 103.57C433.95 103.57 433.826 103.554 433.687 103.523C432.822 104.013 431.819 104.298 430.738 104.298C429.719 104.298 428.746 104.029 427.896 103.57C427.835 103.586 427.773 103.586 427.711 103.586H424.932L426.321 120.731L435.911 120.81L437.887 103.57H434.089Z" fill="#C7C7DA"/>
<path d="M424.854 123.135H438.397C436.976 120.937 435.942 120.557 435.942 120.557L426.321 120.747C425.766 121.522 425.287 122.328 424.854 123.135Z" fill="#B7B7CF"/>
<path d="M426.66 96.7217L427.448 100.802C427.618 101.672 428.405 102.289 429.27 102.21L431.246 102.052C433.022 101.909 434.443 100.502 434.644 98.6829L434.875 96.5161C435.061 94.8079 434.103 93.1788 432.544 92.562L431.787 92.2615C430.258 91.6446 428.513 92.1349 427.494 93.4635L427.355 93.6533C426.707 94.5232 426.444 95.6462 426.66 96.7217Z" fill="#DFDFED"/>
<path d="M426.367 96.0099C426.367 96.0099 429.379 95.0768 428.545 92.2931C427.51 92.388 426.059 93.7008 426.367 96.0099Z" fill="#B7B7CF"/>
<path d="M437.068 103.633C437.284 103.586 437.5 103.57 437.701 103.554L436.666 94.4916C436.419 92.2615 434.566 90.5691 432.373 90.5691H432.173C429.795 90.5691 427.864 92.5303 427.849 94.9661C427.849 94.9661 429.208 97.1487 432.651 96.6901C433.516 99.189 433.068 103.365 433.146 103.776C433.331 103.697 433.516 103.602 433.686 103.507C433.81 103.539 433.948 103.554 434.087 103.554H436.713C436.836 103.57 436.96 103.602 437.068 103.633ZM421.549 114.705H415.218C414.801 114.705 414.43 114.42 414.307 114.009L411.666 104.693C411.496 104.076 411.944 103.459 412.577 103.459H418.908C419.325 103.459 419.696 103.744 419.819 104.155L422.46 113.471C422.63 114.088 422.166 114.705 421.549 114.705Z" fill="#C7C7DA"/>
<path d="M417.426 108.979C417.642 109.438 417.55 109.944 417.21 110.102C416.87 110.276 416.422 110.039 416.206 109.58C415.99 109.122 416.083 108.616 416.422 108.457C416.762 108.299 417.21 108.521 417.426 108.979Z" fill="#B7B7CF"/>
<path d="M412.779 110.229L411.96 109.248C411.59 108.805 411.482 108.189 411.667 107.635L412.346 105.642C412.439 105.357 412.825 105.342 412.949 105.61L413.937 107.793C414.168 108.283 414.138 108.869 413.875 109.343L413.427 110.166C413.288 110.403 412.964 110.435 412.779 110.229Z" fill="#DFDFED"/>
<path d="M431.788 96.1523L431.417 101.166C431.386 101.593 431.726 101.957 432.143 101.957L433.533 101.925C433.733 101.925 433.934 101.83 434.073 101.672L434.413 101.245C434.505 101.134 434.552 101.008 434.567 100.866L435.169 96.2788C435.231 95.8359 434.891 95.4405 434.459 95.4564L432.498 95.488C432.127 95.4722 431.818 95.7727 431.788 96.1523Z" fill="#B7B7CF"/>
<path d="M432.56 100.549L432.344 102.89C432.328 103.017 432.359 103.143 432.406 103.27C432.622 103.76 433.255 103.871 433.61 103.475C434.073 102.969 434.444 102.368 434.706 101.72L434.954 101.103C434.954 101.103 435.525 99.4263 435.092 98.5406C434.66 97.6549 434.151 97.9712 433.626 98.4773C433.533 98.5564 433.456 98.6513 433.378 98.7304C432.915 99.2365 432.637 99.8691 432.56 100.549Z" fill="#E8E8F1"/>
<path d="M439.894 115.48C438.736 116.113 437.347 115.67 436.868 114.515L432.39 103.459C432.189 102.985 432.421 102.416 432.899 102.147C433.378 101.878 433.965 102.004 434.243 102.447L440.775 112.364C441.454 113.408 441.053 114.847 439.894 115.48Z" fill="#DFDFED"/>
<path d="M385.924 88.1808H360.691C359.514 88.1808 358.561 89.1346 358.561 90.3111V105.615C358.561 106.792 359.514 107.746 360.691 107.746H385.924C387.1 107.746 388.054 106.792 388.054 105.615V90.3111C388.054 89.1346 387.1 88.1808 385.924 88.1808Z" fill="url(#paint19_linear_203_167)"/>
<path d="M385.924 111.652H360.691C359.514 111.652 358.561 112.606 358.561 113.783V115.485C358.561 116.661 359.514 117.615 360.691 117.615H385.924C387.1 117.615 388.054 116.661 388.054 115.485V113.783C388.054 112.606 387.1 111.652 385.924 111.652Z" fill="url(#paint20_linear_203_167)"/>
<path d="M437.127 127.453H418.829V131.107H437.127V127.453Z" fill="url(#paint21_linear_203_167)"/>
<path d="M385.924 120.794H360.691C359.514 120.794 358.561 121.748 358.561 122.925V129.261C358.561 130.437 359.514 131.391 360.691 131.391H385.924C387.1 131.391 388.054 130.437 388.054 129.261V122.925C388.054 121.748 387.1 120.794 385.924 120.794Z" fill="url(#paint22_linear_203_167)"/>
<path d="M413.518 127.453H395.22V131.107H413.518V127.453Z" fill="url(#paint23_linear_203_167)"/>
<path d="M473.401 119.782C470.081 119.782 467.363 117.014 467.363 113.598C467.363 110.181 470.066 107.414 473.401 107.414C476.721 107.414 479.439 110.181 479.439 113.598C479.439 117.014 476.736 119.782 473.401 119.782ZM473.401 110.593C471.78 110.593 470.452 111.937 470.452 113.614C470.452 115.29 471.764 116.635 473.401 116.635C475.038 116.635 476.35 115.29 476.35 113.614C476.35 111.937 475.022 110.593 473.401 110.593Z" fill="url(#paint24_linear_203_167)"/>
<path d="M479.469 110.055C476.149 110.055 473.432 107.287 473.432 103.871C473.432 100.454 476.134 97.6865 479.469 97.6865C482.805 97.6865 485.507 100.454 485.507 103.871C485.507 107.287 482.789 110.055 479.469 110.055ZM479.469 100.866C477.848 100.866 476.52 102.21 476.52 103.887C476.52 105.563 477.833 106.907 479.469 106.907C481.106 106.907 482.419 105.563 482.419 103.887C482.419 102.21 481.091 100.866 479.469 100.866Z" fill="url(#paint25_linear_203_167)"/>
<path d="M466.823 110.055C463.503 110.055 460.785 107.287 460.785 103.871C460.785 100.454 463.487 97.6865 466.823 97.6865C470.143 97.6865 472.861 100.454 472.861 103.871C472.861 107.287 470.158 110.055 466.823 110.055ZM466.823 100.866C465.201 100.866 463.873 102.21 463.873 103.887C463.873 105.563 465.186 106.907 466.823 106.907C468.46 106.907 469.772 105.563 469.772 103.887C469.772 102.21 468.444 100.866 466.823 100.866Z" fill="url(#paint26_linear_203_167)"/>
<path d="M130.441 173.099H301.334C303.727 173.099 305.658 171.122 305.658 168.671V75.4645C305.658 73.0129 303.727 71.0359 301.334 71.0359H130.441C128.047 71.0359 126.117 73.0129 126.117 75.4645V168.671C126.117 171.122 128.063 173.099 130.441 173.099Z" fill="url(#paint27_linear_203_167)"/>
<path d="M131.846 164.542H300.963C301.596 164.542 302.106 164.021 302.106 163.372V76.5083C302.106 75.5435 301.334 74.7527 300.392 74.7527H132.263C131.398 74.7527 130.703 75.4644 130.703 76.3502V163.372C130.703 164.021 131.213 164.542 131.846 164.542Z" fill="white"/>
<path d="M296.239 146.86H270.142V158.453H296.239V146.86Z" fill="url(#paint28_linear_203_167)"/>
<path d="M265.201 133.574H142.084V158.248H265.201V133.574Z" fill="url(#paint29_linear_203_167)"/>
<path d="M166.582 151.446H146.461C145.579 151.446 144.863 152.162 144.863 153.044V153.803C144.863 154.685 145.579 155.401 146.461 155.401H166.582C167.465 155.401 168.18 154.685 168.18 153.803V153.044C168.18 152.162 167.465 151.446 166.582 151.446Z" fill="white"/>
<path d="M148.848 143.855H145.928C145.34 143.855 144.863 144.331 144.863 144.92V146.744C144.863 147.332 145.34 147.809 145.928 147.809H148.848C149.436 147.809 149.913 147.332 149.913 146.744V144.92C149.913 144.331 149.436 143.855 148.848 143.855Z" fill="white"/>
<path d="M157.85 143.855H154.931C154.343 143.855 153.866 144.331 153.866 144.92V146.744C153.866 147.332 154.343 147.809 154.931 147.809H157.85C158.438 147.809 158.915 147.332 158.915 146.744V144.92C158.915 144.331 158.438 143.855 157.85 143.855Z" fill="white"/>
<path d="M166.806 143.855H163.887C163.299 143.855 162.822 144.331 162.822 144.92V146.744C162.822 147.332 163.299 147.809 163.887 147.809H166.806C167.394 147.809 167.871 147.332 167.871 146.744V144.92C167.871 144.331 167.394 143.855 166.806 143.855Z" fill="white"/>
<path d="M148.848 137.528H145.928C145.34 137.528 144.863 138.005 144.863 138.593V140.417C144.863 141.005 145.34 141.482 145.928 141.482H148.848C149.436 141.482 149.913 141.005 149.913 140.417V138.593C149.913 138.005 149.436 137.528 148.848 137.528Z" fill="white"/>
<path d="M157.85 137.528H154.931C154.343 137.528 153.866 138.005 153.866 138.593V140.417C153.866 141.005 154.343 141.482 154.931 141.482H157.85C158.438 141.482 158.915 141.005 158.915 140.417V138.593C158.915 138.005 158.438 137.528 157.85 137.528Z" fill="white"/>
<path d="M166.806 137.528H163.887C163.299 137.528 162.822 138.005 162.822 138.593V140.417C162.822 141.005 163.299 141.482 163.887 141.482H166.806C167.394 141.482 167.871 141.005 167.871 140.417V138.593C167.871 138.005 167.394 137.528 166.806 137.528Z" fill="white"/>
<path d="M195.613 151.446H175.491C174.609 151.446 173.894 152.162 173.894 153.044V153.803C173.894 154.685 174.609 155.401 175.491 155.401H195.613C196.495 155.401 197.21 154.685 197.21 153.803V153.044C197.21 152.162 196.495 151.446 195.613 151.446Z" fill="white"/>
<path d="M195.613 137.797H175.491C174.609 137.797 173.894 138.512 173.894 139.395V146.353C173.894 147.236 174.609 147.951 175.491 147.951H195.613C196.495 147.951 197.21 147.236 197.21 146.353V139.395C197.21 138.512 196.495 137.797 195.613 137.797Z" fill="white"/>
<path d="M223.809 151.446H203.688C202.805 151.446 202.09 152.162 202.09 153.044V153.803C202.09 154.685 202.805 155.401 203.688 155.401H223.809C224.691 155.401 225.407 154.685 225.407 153.803V153.044C225.407 152.162 224.691 151.446 223.809 151.446Z" fill="white"/>
<path d="M296.3 84.0211H270.559V142.02H296.3V84.0211Z" fill="url(#paint30_linear_203_167)"/>
<path d="M282.34 133.837V100.112C282.34 97.8989 280.546 96.1048 278.333 96.1048C276.12 96.1048 274.326 97.8989 274.326 100.112V133.837C274.326 136.05 276.12 137.844 278.333 137.844C280.546 137.844 282.34 136.05 282.34 133.837Z" fill="white"/>
<path d="M291.544 133.884V95.9059C291.544 93.7184 289.771 91.9451 287.583 91.9451C285.396 91.9451 283.623 93.7184 283.623 95.9059V133.884C283.623 136.071 285.396 137.844 287.583 137.844C289.771 137.844 291.544 136.071 291.544 133.884Z" fill="white"/>
<path d="M281.977 87.4691H274.659C274.458 87.4691 274.295 87.632 274.295 87.8329C274.295 88.0338 274.458 88.1966 274.659 88.1966H281.977C282.178 88.1966 282.341 88.0338 282.341 87.8329C282.341 87.632 282.178 87.4691 281.977 87.4691Z" fill="white"/>
<path d="M291.057 87.4691H283.986C283.785 87.4691 283.623 87.632 283.623 87.8329C283.623 88.0338 283.785 88.1966 283.986 88.1966H291.057C291.258 88.1966 291.421 88.0338 291.421 87.8329C291.421 87.632 291.258 87.4691 291.057 87.4691Z" fill="white"/>
<path d="M144.863 83.5466C146.031 83.5466 146.979 82.5765 146.979 81.3798C146.979 80.1831 146.031 79.2129 144.863 79.2129C143.695 79.2129 142.748 80.1831 142.748 81.3798C142.748 82.5765 143.695 83.5466 144.863 83.5466Z" fill="url(#paint31_linear_203_167)"/>
<path d="M153.201 83.5466C154.37 83.5466 155.317 82.5765 155.317 81.3798C155.317 80.1831 154.37 79.2129 153.201 79.2129C152.033 79.2129 151.086 80.1831 151.086 81.3798C151.086 82.5765 152.033 83.5466 153.201 83.5466Z" fill="url(#paint32_linear_203_167)"/>
<path d="M162.05 83.5466C163.218 83.5466 164.166 82.5765 164.166 81.3798C164.166 80.1831 163.218 79.2129 162.05 79.2129C160.882 79.2129 159.935 80.1831 159.935 81.3798C159.935 82.5765 160.882 83.5466 162.05 83.5466Z" fill="url(#paint33_linear_203_167)"/>
<path d="M172.041 83.5466C173.209 83.5466 174.156 82.5765 174.156 81.3798C174.156 80.1831 173.209 79.2129 172.041 79.2129C170.872 79.2129 169.925 80.1831 169.925 81.3798C169.925 82.5765 170.872 83.5466 172.041 83.5466Z" fill="url(#paint34_linear_203_167)"/>
<path d="M182.325 83.5466C183.493 83.5466 184.44 82.5765 184.44 81.3798C184.44 80.1831 183.493 79.2129 182.325 79.2129C181.157 79.2129 180.209 80.1831 180.209 81.3798C180.209 82.5765 181.157 83.5466 182.325 83.5466Z" fill="url(#paint35_linear_203_167)"/>
<path d="M152.631 110.735H142.887C142.578 110.735 142.331 110.482 142.331 110.166V102.542C142.331 102.226 142.578 101.973 142.887 101.973H152.631C152.939 101.973 153.187 102.226 153.187 102.542V110.166C153.202 110.482 152.939 110.735 152.631 110.735Z" fill="url(#paint36_linear_203_167)"/>
<path d="M145.018 110.735H152.662C152.955 110.735 153.187 110.498 153.187 110.197V106.686L151.581 104.978C151.334 104.709 150.917 104.709 150.654 104.962L145.018 110.735Z" fill="#A0A4FE"/>
<path d="M144.292 107.05L142.331 108.964V110.197C142.331 110.498 142.563 110.735 142.856 110.735H145.018L146.917 108.79L145.049 107.034C144.848 106.844 144.508 106.844 144.292 107.05Z" fill="#676DDB"/>
<path d="M147.561 105.765C148.043 105.271 148.043 104.47 147.561 103.976C147.079 103.481 146.296 103.481 145.814 103.976C145.332 104.47 145.332 105.271 145.814 105.765C146.296 106.259 147.079 106.259 147.561 105.765Z" fill="white"/>
<path d="M152.631 123.91H142.887C142.578 123.91 142.331 123.657 142.331 123.341V115.717C142.331 115.401 142.578 115.148 142.887 115.148H152.631C152.939 115.148 153.187 115.401 153.187 115.717V123.341C153.202 123.657 152.939 123.91 152.631 123.91Z" fill="url(#paint37_linear_203_167)"/>
<path d="M145.018 123.91H152.662C152.955 123.91 153.187 123.673 153.187 123.372V119.861L151.581 118.153C151.334 117.884 150.917 117.884 150.654 118.153L145.018 123.91Z" fill="#A0A4FE"/>
<path d="M144.292 120.225L142.331 122.139V123.372C142.331 123.673 142.563 123.91 142.856 123.91H145.018L146.917 121.965L145.049 120.209C144.848 120.003 144.508 120.019 144.292 120.225Z" fill="#676DDB"/>
<path d="M147.562 118.939C148.045 118.445 148.045 117.644 147.562 117.15C147.08 116.656 146.298 116.656 145.815 117.15C145.333 117.644 145.333 118.445 145.815 118.939C146.298 119.434 147.08 119.434 147.562 118.939Z" fill="white"/>
<path d="M169.184 110.735H159.441C159.132 110.735 158.885 110.482 158.885 110.166V102.542C158.885 102.226 159.132 101.973 159.441 101.973H169.184C169.493 101.973 169.74 102.226 169.74 102.542V110.166C169.756 110.482 169.493 110.735 169.184 110.735Z" fill="url(#paint38_linear_203_167)"/>
<path d="M161.571 110.735H169.215C169.508 110.735 169.74 110.498 169.74 110.197V106.686L168.134 104.978C167.887 104.709 167.47 104.709 167.208 104.962L161.571 110.735Z" fill="#43B6F7"/>
<path d="M160.846 107.05L158.885 108.964V110.197C158.885 110.498 159.116 110.735 159.41 110.735H161.572L163.471 108.79L161.602 107.034C161.402 106.844 161.062 106.844 160.846 107.05Z" fill="#2077C7"/>
<path d="M164.114 105.765C164.597 105.271 164.597 104.47 164.114 103.975C163.632 103.481 162.85 103.481 162.367 103.976C161.885 104.47 161.885 105.271 162.367 105.765C162.85 106.259 163.632 106.259 164.114 105.765Z" fill="white"/>
<path d="M169.184 123.91H159.441C159.132 123.91 158.885 123.657 158.885 123.341V115.717C158.885 115.401 159.132 115.148 159.441 115.148H169.184C169.493 115.148 169.74 115.401 169.74 115.717V123.341C169.756 123.657 169.493 123.91 169.184 123.91Z" fill="url(#paint39_linear_203_167)"/>
<path d="M161.571 123.91H169.215C169.508 123.91 169.74 123.673 169.74 123.372V119.861L168.134 118.153C167.887 117.884 167.47 117.884 167.208 118.153L161.571 123.91Z" fill="#43B6F7"/>
<path d="M160.846 120.225L158.885 122.139V123.372C158.885 123.673 159.116 123.91 159.41 123.91H161.572L163.471 121.965L161.602 120.209C161.402 120.003 161.062 120.019 160.846 120.225Z" fill="#2077C7"/>
<path d="M164.115 118.939C164.598 118.445 164.598 117.644 164.115 117.15C163.633 116.656 162.851 116.656 162.368 117.15C161.886 117.644 161.886 118.445 162.368 118.939C162.851 119.434 163.633 119.434 164.115 118.939Z" fill="white"/>
<path d="M185.459 110.735H175.716C175.407 110.735 175.16 110.482 175.16 110.166V102.542C175.16 102.226 175.407 101.973 175.716 101.973H185.459C185.768 101.973 186.015 102.226 186.015 102.542V110.166C186.015 110.482 185.768 110.735 185.459 110.735Z" fill="url(#paint40_linear_203_167)"/>
<path d="M177.831 110.735H185.475C185.768 110.735 186 110.498 186 110.197V106.686L184.394 104.978C184.147 104.709 183.73 104.709 183.467 104.962L177.831 110.735Z" fill="#FF948E"/>
<path d="M177.105 107.05L175.144 108.964V110.197C175.144 110.498 175.376 110.735 175.669 110.735H177.831L179.73 108.79L177.862 107.034C177.661 106.844 177.321 106.844 177.105 107.05Z" fill="#F25B52"/>
<path d="M180.741 105.049C180.85 104.359 180.392 103.71 179.719 103.598C179.045 103.486 178.411 103.955 178.302 104.645C178.193 105.335 178.65 105.984 179.324 106.096C179.997 106.208 180.632 105.739 180.741 105.049Z" fill="white"/>
<path d="M185.459 123.91H175.716C175.407 123.91 175.16 123.657 175.16 123.341V115.717C175.16 115.401 175.407 115.148 175.716 115.148H185.459C185.768 115.148 186.015 115.401 186.015 115.717V123.341C186.015 123.657 185.768 123.91 185.459 123.91Z" fill="url(#paint41_linear_203_167)"/>
<path d="M177.831 123.91H185.475C185.768 123.91 186 123.673 186 123.372V119.861L184.394 118.153C184.147 117.884 183.73 117.884 183.467 118.153L177.831 123.91Z" fill="#FF948E"/>
<path d="M177.105 120.225L175.144 122.139V123.372C175.144 123.673 175.376 123.91 175.669 123.91H177.831L179.73 121.965L177.862 120.209C177.661 120.003 177.321 120.019 177.105 120.225Z" fill="#F25B52"/>
<path d="M180.743 118.222C180.852 117.532 180.395 116.883 179.721 116.771C179.048 116.659 178.413 117.128 178.304 117.818C178.195 118.508 178.653 119.157 179.326 119.269C180 119.381 180.634 118.912 180.743 118.222Z" fill="white"/>
<path d="M202.538 110.735H192.795C192.486 110.735 192.239 110.482 192.239 110.166V102.542C192.239 102.226 192.486 101.973 192.795 101.973H202.538C202.847 101.973 203.094 102.226 203.094 102.542V110.166C203.11 110.482 202.847 110.735 202.538 110.735Z" fill="url(#paint42_linear_203_167)"/>
<path d="M194.925 110.735H202.569C202.862 110.735 203.094 110.498 203.094 110.197V106.686L201.488 104.978C201.241 104.709 200.824 104.709 200.562 104.962L194.925 110.735Z" fill="#FAEC6E"/>
<path d="M194.2 107.05L192.239 108.964V110.197C192.239 110.498 192.47 110.735 192.764 110.735H194.926L196.825 108.79L194.957 107.034C194.756 106.844 194.416 106.844 194.2 107.05Z" fill="#FFB82E"/>
<path d="M197.468 105.765C197.951 105.271 197.951 104.47 197.468 103.976C196.986 103.482 196.204 103.482 195.721 103.976C195.239 104.47 195.239 105.271 195.721 105.765C196.204 106.259 196.986 106.259 197.468 105.765Z" fill="white"/>
<path d="M202.538 123.91H192.795C192.486 123.91 192.239 123.657 192.239 123.341V115.717C192.239 115.401 192.486 115.148 192.795 115.148H202.538C202.847 115.148 203.094 115.401 203.094 115.717V123.341C203.11 123.657 202.847 123.91 202.538 123.91Z" fill="url(#paint43_linear_203_167)"/>
<path d="M194.925 123.91H202.569C202.862 123.91 203.094 123.673 203.094 123.372V119.861L201.488 118.153C201.241 117.884 200.824 117.884 200.562 118.153L194.925 123.91Z" fill="#FAEC6E"/>
<path d="M194.2 120.225L192.239 122.139V123.372C192.239 123.673 192.47 123.91 192.764 123.91H194.926L196.825 121.965L194.957 120.209C194.756 120.003 194.416 120.019 194.2 120.225Z" fill="#FFB82E"/>
<path d="M197.469 118.94C197.952 118.445 197.952 117.644 197.469 117.15C196.987 116.656 196.205 116.656 195.722 117.15C195.24 117.644 195.24 118.445 195.722 118.94C196.205 119.434 196.987 119.434 197.469 118.94Z" fill="white"/>
<path d="M152.631 99.0467H142.887C142.578 99.0467 142.331 98.7936 142.331 98.4773V90.8538C142.331 90.5375 142.578 90.2844 142.887 90.2844H152.631C152.939 90.2844 153.187 90.5375 153.187 90.8538V98.4773C153.202 98.7778 152.939 99.0467 152.631 99.0467Z" fill="url(#paint44_linear_203_167)"/>
<path d="M145.018 99.0467H152.662C152.955 99.0467 153.187 98.8095 153.187 98.509V94.9819L151.581 93.2737C151.334 93.0048 150.917 93.0048 150.654 93.2579L145.018 99.0467Z" fill="#A0A4FE"/>
<path d="M144.292 95.3457L142.331 97.2595V98.4931C142.331 98.7936 142.563 99.0309 142.856 99.0309H145.018L146.917 97.0855L145.049 95.3298C144.848 95.14 144.508 95.1401 144.292 95.3457Z" fill="#676DDB"/>
<path d="M146.686 94.4283C147.368 94.4283 147.921 93.8618 147.921 93.163C147.921 92.4642 147.368 91.8977 146.686 91.8977C146.003 91.8977 145.45 92.4642 145.45 93.163C145.45 93.8618 146.003 94.4283 146.686 94.4283Z" fill="white"/>
<path d="M169.184 99.0467H159.441C159.132 99.0467 158.885 98.7937 158.885 98.4773V90.8538C158.885 90.5375 159.132 90.2844 159.441 90.2844H169.184C169.493 90.2844 169.74 90.5375 169.74 90.8538V98.4773C169.756 98.7778 169.493 99.0467 169.184 99.0467Z" fill="url(#paint45_linear_203_167)"/>
<path d="M161.571 99.0467H169.215C169.508 99.0467 169.74 98.8095 169.74 98.509V94.9819L168.134 93.2737C167.887 93.0049 167.47 93.0049 167.208 93.2579L161.571 99.0467Z" fill="#43B6F7"/>
<path d="M160.846 95.3457L158.885 97.2595V98.4931C158.885 98.7937 159.116 99.0309 159.41 99.0309H161.572L163.471 97.0855L161.602 95.3299C161.402 95.1401 161.062 95.1401 160.846 95.3457Z" fill="#2077C7"/>
<path d="M163.239 94.4283C163.921 94.4283 164.474 93.8618 164.474 93.163C164.474 92.4642 163.921 91.8977 163.239 91.8977C162.556 91.8977 162.003 92.4642 162.003 93.163C162.003 93.8618 162.556 94.4283 163.239 94.4283Z" fill="white"/>
<path d="M185.459 99.0467H175.716C175.407 99.0467 175.16 98.7937 175.16 98.4773V90.8538C175.16 90.5375 175.407 90.2845 175.716 90.2845H185.459C185.768 90.2845 186.015 90.5375 186.015 90.8538V98.4773C186.015 98.7779 185.768 99.0467 185.459 99.0467Z" fill="url(#paint46_linear_203_167)"/>
<path d="M177.831 99.0467H185.475C185.768 99.0467 186 98.8095 186 98.509V94.9819L184.394 93.2737C184.147 93.0049 183.73 93.0049 183.467 93.2579L177.831 99.0467Z" fill="#FF948E"/>
<path d="M177.105 95.3457L175.144 97.2595V98.4931C175.144 98.7937 175.376 99.0309 175.669 99.0309H177.831L179.73 97.0855L177.862 95.3299C177.661 95.1401 177.321 95.1401 177.105 95.3457Z" fill="#F25B52"/>
<path d="M179.514 94.4283C180.196 94.4283 180.749 93.8618 180.749 93.163C180.749 92.4642 180.196 91.8977 179.514 91.8977C178.832 91.8977 178.279 92.4642 178.279 93.163C178.279 93.8618 178.832 94.4283 179.514 94.4283Z" fill="white"/>
<path d="M202.538 99.0467H192.795C192.486 99.0467 192.239 98.7937 192.239 98.4773V90.8538C192.239 90.5375 192.486 90.2844 192.795 90.2844H202.538C202.847 90.2844 203.094 90.5375 203.094 90.8538V98.4773C203.11 98.7778 202.847 99.0467 202.538 99.0467Z" fill="url(#paint47_linear_203_167)"/>
<path d="M194.925 99.0467H202.569C202.862 99.0467 203.094 98.8095 203.094 98.509V94.9819L201.488 93.2737C201.241 93.0049 200.824 93.0049 200.562 93.2579L194.925 99.0467Z" fill="#FAEC6E"/>
<path d="M194.2 95.3457L192.239 97.2595V98.4931C192.239 98.7937 192.47 99.0309 192.764 99.0309H194.926L196.825 97.0855L194.957 95.3299C194.756 95.1401 194.416 95.1401 194.2 95.3457Z" fill="#FFB82E"/>
<path d="M196.593 94.4283C197.276 94.4283 197.829 93.8618 197.829 93.163C197.829 92.4642 197.276 91.8977 196.593 91.8977C195.911 91.8977 195.358 92.4642 195.358 93.163C195.358 93.8618 195.911 94.4283 196.593 94.4283Z" fill="white"/>
<path d="M268.598 239.544C268.598 239.544 265.51 246.978 269.216 255.993C272.922 265.008 285.43 261.529 288.981 255.36C292.533 249.192 268.598 239.544 268.598 239.544ZM330.103 114.389C330.103 114.389 332.141 137.259 331.616 146.607C331.276 152.728 316.869 177.797 329.361 178.287C341.854 178.777 362.052 163.388 361.557 150.339C359.751 101.261 349.111 111.874 342.456 110.909C335.785 109.928 329.732 104.883 330.103 114.389Z" fill="url(#paint48_linear_203_167)"/>
<path d="M365.078 132.72C369.047 128.655 371.533 121.949 371.533 114.072C371.533 106.196 373.154 86.6625 364.445 75.3696C353.034 60.5812 331.137 67.5405 323.061 74.1043C317.857 78.3272 312.484 86.5201 314.213 97.0855C315.618 105.737 317.796 108.916 319.772 109.739C326.011 112.333 328.389 112.633 329.238 115.116C337.422 139.015 361.11 136.8 365.078 132.72Z" fill="url(#paint49_linear_203_167)"/>
<path d="M366.329 139.995C363.148 132.182 364.043 130.727 364.26 130.506C368.29 126.425 366.051 114.863 365.943 114.373L364.429 114.689C365.047 117.789 366.02 126.488 363.163 129.383C362.298 130.253 361.542 132.372 364.893 140.612C366.653 144.946 368.769 148.995 368.784 149.042L370.143 148.299C370.143 148.236 368.058 144.25 366.329 139.995ZM325.192 126.393L323.648 126.425C323.679 127.975 324.019 141.688 326.922 144.867C329.608 147.825 331.554 150.94 331.57 150.972L332.867 150.118C332.789 149.991 330.844 146.86 328.049 143.776C325.933 141.466 325.269 130.442 325.192 126.393Z" fill="#331B3C"/>
<path d="M454.205 228.156C454.73 228.694 465.91 231.43 470.573 226.891C475.36 222.241 475.684 217.338 479.792 214.079C484.378 210.442 479.329 206.329 477.12 208.496C479.545 206.282 475.159 202.85 472.997 205.064C474.542 203.119 470.789 200.161 468.257 202.581C469.137 201.426 465.477 199.101 463.207 201.632C464.752 200.161 460.428 198.263 457.695 201.268C454.962 204.273 453.788 206.013 450.792 214.76C449.14 219.663 441.589 227.049 454.205 228.156Z" fill="url(#paint50_linear_203_167)"/>
<path d="M448.337 217.401C448.337 217.401 453.696 208.117 457.71 209.382C474.233 214.586 471.716 218.983 467.084 231.319C459.533 251.406 446.067 242.707 448.337 217.401Z" fill="url(#paint51_linear_203_167)"/>
<path d="M376.073 180.391C369.696 169.635 380.366 157.789 387.5 162.992C399.436 171.707 437.222 199.639 448.757 212.134C463.164 227.745 469.017 237.709 458.532 242.185C453.59 244.289 436.296 238.706 419.819 224.154C403.359 209.603 383.253 192.49 376.073 180.391Z" fill="url(#paint52_linear_203_167)"/>
<path d="M299.173 300.595C320.174 316.206 395.946 327.167 402.123 282.043C408.3 236.918 407.265 167.263 386.264 154.673C361.295 139.695 331.493 143.491 306.477 156.049C300.486 159.054 302.462 172.387 289.291 204.02C276.119 235.653 284.936 290.014 299.173 300.595Z" fill="url(#paint53_linear_203_167)"/>
<path d="M315.032 186.923C315.032 186.923 301.86 228.472 318.938 228.884C336.032 229.311 381.122 223.395 398 248.29C414.878 273.17 406.647 305.435 370.406 311.983C334.164 318.515 287.02 280.777 291.344 258.84C295.668 236.903 300.609 211.818 315.032 186.923Z" fill="url(#paint54_linear_203_167)"/>
<path d="M305.041 157.615C300.609 159.766 274.312 214.981 267.054 228.789C257.944 246.108 264.074 237.124 276.628 249.35C289.182 261.576 288.055 260.422 292.379 239.228C296.702 218.034 300.254 171.533 305.041 157.615Z" fill="url(#paint55_linear_203_167)"/>
<path d="M302.261 216.246C301.767 223.079 300.3 229.785 298.524 236.365C296.687 242.944 294.51 249.413 291.452 255.518C292.61 248.812 294.371 242.233 296.146 235.669C297.969 229.137 299.868 222.604 302.261 216.246Z" fill="url(#paint56_linear_203_167)"/>
<path d="M365.465 161.411L381.988 152.316C381.988 152.316 390.851 154.104 432.992 196.84C440.45 204.4 445.345 208.227 445.345 208.227C445.345 208.227 449.252 236.27 442.148 254.728C408.486 252.513 397.985 229.105 397.985 229.105C397.985 229.105 353.112 191.146 365.465 161.411Z" fill="url(#paint57_linear_203_167)"/>
<path d="M277.354 319.575C277.354 319.575 275.918 293.636 271.594 278.658C267.27 263.68 280.859 240.698 317.301 237.741C353.744 234.783 400.887 245.333 420.251 261.987C439.615 278.642 418.197 314.925 413.658 325.68C409.133 336.435 356.214 344.454 335.013 342.762C313.796 341.085 279.608 338.76 277.354 319.575Z" fill="url(#paint58_linear_203_167)"/>
<path d="M359.256 113.535C360.075 118.944 360.461 124.353 360.816 129.794C361.14 135.235 361.434 140.644 361.418 146.116C359.951 140.85 359.334 135.377 358.963 129.92C358.67 124.464 358.608 118.975 359.256 113.535ZM350.918 124.717C351.999 126.03 352.879 127.469 353.728 128.94C355.381 131.882 356.724 135.013 357.681 138.271C358.145 139.916 358.515 141.577 358.654 143.285C357.172 140.248 355.89 137.212 354.562 134.112C353.25 131.012 351.953 127.943 350.918 124.717Z" fill="#C37A6C"/>
<path d="M327.524 115.86C327.524 115.86 320.529 103.57 318.429 99.458C316.329 95.3457 304.192 99.3789 312.577 115.86C320.992 132.34 331.987 127.326 327.524 115.86Z" fill="#B7B7CF"/>
<path d="M324.42 126.409C325.548 124.559 325.687 121.569 324.281 117.932C324.281 117.932 317.286 105.642 315.186 101.53C314.553 100.296 313.04 99.7901 311.434 100.138C309.303 102.748 308.5 107.825 312.607 115.875C316.591 123.72 321.193 126.694 324.42 126.409Z" fill="#C7C7DA"/>
<path d="M364.924 86.536C367.935 83.7681 369.834 79.7349 369.834 75.2589C369.834 74.9742 369.819 74.6895 369.819 74.4206C370.112 74.4997 370.421 74.5471 370.745 74.5471C372.706 74.5471 374.282 72.918 374.282 70.9252C374.282 68.9165 372.691 67.3032 370.745 67.3032C369.757 67.3032 368.877 67.7144 368.228 68.3787C365.773 63.4756 360.801 60.1226 355.041 60.1226C349.559 60.1226 344.757 63.1909 342.209 67.7302C342.209 67.6828 342.209 67.6353 342.225 67.5721C342.487 64.2823 343.831 61.1823 345.668 58.446C342.919 59.743 341.113 62.2736 340.325 65.1364C338.364 60.2807 333.006 56.7695 327.802 58.2088C330.937 59.0945 333.886 60.5812 336.156 62.9379C337.762 64.5828 339.013 66.5915 339.877 68.79C339.877 68.8532 339.877 68.9165 339.893 68.9956C337.53 66.1486 334.025 64.3455 330.103 64.3455C323.092 64.3455 317.41 70.0869 317.255 77.2359C310.276 77.3783 304.67 83.2145 304.67 90.3952C304.67 96.5477 308.809 101.72 314.383 103.159C313.179 104.614 312.438 106.496 312.438 108.552C312.438 113.155 316.082 116.888 320.575 116.888C321.903 116.888 323.139 116.556 324.25 115.986C323.818 116.761 323.571 117.647 323.571 118.58C323.571 121.49 325.872 123.831 328.698 123.831C330.211 123.831 331.585 123.151 332.527 122.075C333.454 123.483 335.013 124.416 336.805 124.416C339.275 124.416 341.329 122.629 341.823 120.257C342.919 121.459 344.479 122.202 346.193 122.202C349.513 122.202 352.2 119.45 352.2 116.049C352.2 115.274 352.061 114.531 351.798 113.851C352.046 113.883 352.293 113.898 352.555 113.898C355.875 113.898 358.562 111.146 358.562 107.746C358.562 105.8 357.682 104.076 356.323 102.953C357.481 103.507 358.794 103.823 360.152 103.823C365.186 103.823 369.263 99.6478 369.263 94.4916C369.263 91.1227 367.534 88.1809 364.924 86.536Z" fill="#331B3C"/>
<path d="M379.462 85.2046C381.771 82.8388 381.771 79.0033 379.462 76.6377C377.152 74.272 373.407 74.2721 371.098 76.6378C368.788 79.0036 368.788 82.839 371.098 85.2047C373.408 87.5703 377.152 87.5703 379.462 85.2046Z" fill="#331B3C"/>
<path d="M323.941 149.027C326.783 150.102 331.091 151.209 337.685 152.142C344.402 153.091 362.87 153.186 369.88 147.603C354.871 143.364 338.982 144.44 323.941 149.027ZM444.433 246.819C419.649 235.353 389.198 191.936 389.198 191.936C389.198 191.936 399.281 212.561 403.62 237.235C409.813 244.226 421.718 253.383 442.163 254.728C442.904 252.324 444.294 249.556 444.433 246.819Z" fill="url(#paint59_linear_203_167)"/>
<path d="M389.198 191.936C393.059 198.057 395.993 204.779 398.494 211.58C402.509 222.778 405.227 234.577 405.551 246.535C405.566 247.499 405.566 248.543 405.551 249.524C405.52 250.457 405.474 251.564 405.412 252.513C404.918 249.904 404.486 247.31 403.961 244.747C400.502 226.733 394.989 209.303 389.198 191.936Z" fill="url(#paint60_linear_203_167)"/>
<path d="M455.748 248.717C459.361 248.543 463.006 248.591 466.418 247.642C468.889 246.946 470.912 245.538 471.9 243.055C472.255 242.233 472.487 241.331 472.734 240.382C472.996 241.268 473.089 242.217 473.027 243.15C472.904 245.317 471.653 247.436 469.862 248.622C465.878 251.295 459.825 250.774 455.748 248.717Z" fill="#E7A692"/>
<path d="M450.297 251.454C455.408 253.13 460.643 255.028 466.001 254.538C468.873 254.269 471.437 252.845 473.151 250.441C473.876 249.477 474.448 248.385 475.019 247.246C474.849 249.208 474.216 251.137 473.089 252.735C467.715 260.074 456.134 256.309 450.297 251.454Z" fill="#E7A692"/>
<path d="M354.624 95.235C354.624 95.235 357.372 109.296 358.021 113.93C358.669 118.564 373.401 119.339 370.791 100.85C368.166 82.3604 354.299 82.8982 354.624 95.235Z" fill="#B7B7CF"/>
<path d="M362.129 86.5992C360.183 87.912 358.855 90.6324 358.963 94.5549C358.963 94.5549 361.712 108.616 362.36 113.25C362.561 114.626 364.013 115.67 365.881 115.954C369.216 114.325 372.073 109.881 370.792 100.866C369.525 92.0242 365.727 87.5482 362.129 86.5992Z" fill="#E7E7F1"/>
<path d="M413.642 325.696C414.461 323.75 415.819 320.983 417.41 317.645C411.249 321.884 403.837 325.743 394.911 328.748C351.675 343.3 286.202 335.391 293.614 295.85C297.181 276.792 293.722 259.077 289.167 245.823C273.988 254.601 268.645 268.488 271.579 278.658C275.902 293.636 277.338 319.575 277.338 319.575C279.608 338.76 313.781 341.085 334.982 342.778C356.199 344.454 409.118 336.451 413.642 325.696Z" fill="url(#paint61_linear_203_167)"/>
<defs>
<linearGradient id="paint0_linear_203_167" x1="360" y1="-39.2" x2="360" y2="439.2" gradientUnits="userSpaceOnUse">
<stop offset="0.0239582" stop-color="#D84CEB"/>
<stop offset="1" stop-color="#7935D9"/>
</linearGradient>
<linearGradient id="paint1_linear_203_167" x1="358.885" y1="244.7" x2="358.885" y2="262.636" gradientUnits="userSpaceOnUse">
<stop stop-color="white"/>
<stop offset="1" stop-color="#9090DE"/>
</linearGradient>
<linearGradient id="paint2_linear_203_167" x1="547.456" y1="211.868" x2="547.596" y2="240.762" gradientUnits="userSpaceOnUse">
<stop stop-color="#F8F9FF"/>
<stop offset="0.0001" stop-color="#E9ECFF"/>
<stop offset="1" stop-color="#B8C8FF"/>
</linearGradient>
<linearGradient id="paint3_linear_203_167" x1="545.806" y1="196.302" x2="545.806" y2="215.503" gradientUnits="userSpaceOnUse">
<stop stop-color="#E5E8FF"/>
<stop offset="0.0001" stop-color="#E9ECFF"/>
<stop offset="1" stop-color="#B8C8FF"/>
</linearGradient>
<linearGradient id="paint4_linear_203_167" x1="275.06" y1="201.11" x2="275.06" y2="234.119" gradientUnits="userSpaceOnUse">
<stop stop-color="#E5E8FF"/>
<stop offset="0.0001" stop-color="#E9ECFF"/>
<stop offset="1" stop-color="#B8C8FF"/>
</linearGradient>
<linearGradient id="paint5_linear_203_167" x1="193.769" y1="214.005" x2="213.876" y2="199.963" gradientUnits="userSpaceOnUse">
<stop offset="0.184024" stop-color="#03AB8D"/>
<stop offset="1" stop-color="#67FFD2"/>
</linearGradient>
<linearGradient id="paint6_linear_203_167" x1="188.835" y1="225.53" x2="208.819" y2="211.845" gradientUnits="userSpaceOnUse">
<stop offset="0.184024" stop-color="#03AB8D"/>
<stop offset="1" stop-color="#67FFD2"/>
</linearGradient>
<linearGradient id="paint7_linear_203_167" x1="194.778" y1="222.264" x2="215.075" y2="204.442" gradientUnits="userSpaceOnUse">
<stop offset="0.184024" stop-color="#03AB8D"/>
<stop offset="1" stop-color="#67FFD2"/>
</linearGradient>
<linearGradient id="paint8_linear_203_167" x1="177.054" y1="230.61" x2="217.111" y2="230.851" gradientUnits="userSpaceOnUse">
<stop stop-color="#8585FC"/>
<stop offset="1" stop-color="white"/>
</linearGradient>
<linearGradient id="paint9_linear_203_167" x1="184.402" y1="220.801" x2="184.402" y2="244.795" gradientUnits="userSpaceOnUse">
<stop stop-color="white"/>
<stop offset="1" stop-color="#888EF6"/>
</linearGradient>
<linearGradient id="paint10_linear_203_167" x1="499.98" y1="234.662" x2="534.847" y2="233.455" gradientUnits="userSpaceOnUse">
<stop stop-color="#F0C4AB"/>
<stop offset="1" stop-color="#FFFDF8"/>
</linearGradient>
<linearGradient id="paint11_linear_203_167" x1="501.217" y1="223.518" x2="515.048" y2="246.274" gradientUnits="userSpaceOnUse">
<stop stop-color="white"/>
<stop offset="1" stop-color="#FFCCA7"/>
</linearGradient>
<linearGradient id="paint12_linear_203_167" x1="529.471" y1="101.735" x2="529.471" y2="108.094" gradientUnits="userSpaceOnUse">
<stop stop-color="#E5E8FF"/>
<stop offset="0.0001" stop-color="#E9ECFF"/>
<stop offset="1" stop-color="#B8C8FF"/>
</linearGradient>
<linearGradient id="paint13_linear_203_167" x1="526.474" y1="159.325" x2="532.53" y2="160.721" gradientUnits="userSpaceOnUse">
<stop stop-color="#E5E8FF"/>
<stop offset="0.0001" stop-color="#E9ECFF"/>
<stop offset="1" stop-color="#B8C8FF"/>
</linearGradient>
<linearGradient id="paint14_linear_203_167" x1="538.848" y1="157.755" x2="543.343" y2="162.143" gradientUnits="userSpaceOnUse">
<stop stop-color="#E5E8FF"/>
<stop offset="0.0001" stop-color="#E9ECFF"/>
<stop offset="1" stop-color="#B8C8FF"/>
</linearGradient>
<linearGradient id="paint15_linear_203_167" x1="578.24" y1="157.756" x2="582.734" y2="162.144" gradientUnits="userSpaceOnUse">
<stop stop-color="#E5E8FF"/>
<stop offset="0.0001" stop-color="#E9ECFF"/>
<stop offset="1" stop-color="#B8C8FF"/>
</linearGradient>
<linearGradient id="paint16_linear_203_167" x1="410.36" y1="77.0619" x2="410.36" y2="179.125" gradientUnits="userSpaceOnUse">
<stop stop-color="#E5E8FF"/>
<stop offset="0.0001" stop-color="#E9ECFF"/>
<stop offset="1" stop-color="#B8C8FF"/>
</linearGradient>
<linearGradient id="paint17_linear_203_167" x1="415.495" y1="150.513" x2="415.495" y2="161.585" gradientUnits="userSpaceOnUse">
<stop stop-color="#E5E8FF"/>
<stop offset="0.0001" stop-color="#E9ECFF"/>
<stop offset="1" stop-color="#B8C8FF"/>
</linearGradient>
<linearGradient id="paint18_linear_203_167" x1="415.495" y1="136.911" x2="415.495" y2="147.983" gradientUnits="userSpaceOnUse">
<stop stop-color="#E5E8FF"/>
<stop offset="0.0001" stop-color="#E9ECFF"/>
<stop offset="1" stop-color="#B8C8FF"/>
</linearGradient>
<linearGradient id="paint19_linear_203_167" x1="373.307" y1="88.1808" x2="373.307" y2="107.746" gradientUnits="userSpaceOnUse">
<stop stop-color="#E5E8FF"/>
<stop offset="0.0001" stop-color="#E9ECFF"/>
<stop offset="1" stop-color="#B8C8FF"/>
</linearGradient>
<linearGradient id="paint20_linear_203_167" x1="373.307" y1="111.652" x2="373.307" y2="117.615" gradientUnits="userSpaceOnUse">
<stop stop-color="#E5E8FF"/>
<stop offset="0.0001" stop-color="#E9ECFF"/>
<stop offset="1" stop-color="#B8C8FF"/>
</linearGradient>
<linearGradient id="paint21_linear_203_167" x1="427.978" y1="127.453" x2="427.978" y2="131.107" gradientUnits="userSpaceOnUse">
<stop stop-color="#E5E8FF"/>
<stop offset="0.0001" stop-color="#E9ECFF"/>
<stop offset="1" stop-color="#B8C8FF"/>
</linearGradient>
<linearGradient id="paint22_linear_203_167" x1="373.307" y1="120.794" x2="373.307" y2="131.391" gradientUnits="userSpaceOnUse">
<stop stop-color="#E5E8FF"/>
<stop offset="0.0001" stop-color="#E9ECFF"/>
<stop offset="1" stop-color="#B8C8FF"/>
</linearGradient>
<linearGradient id="paint23_linear_203_167" x1="404.369" y1="127.453" x2="404.369" y2="131.107" gradientUnits="userSpaceOnUse">
<stop stop-color="#E5E8FF"/>
<stop offset="0.0001" stop-color="#E9ECFF"/>
<stop offset="1" stop-color="#B8C8FF"/>
</linearGradient>
<linearGradient id="paint24_linear_203_167" x1="467.343" y1="113.365" x2="479.211" y2="113.365" gradientUnits="userSpaceOnUse">
<stop stop-color="#D97AFA"/>
<stop offset="1" stop-color="#F3D2FF"/>
</linearGradient>
<linearGradient id="paint25_linear_203_167" x1="473.771" y1="103.217" x2="485.642" y2="102.493" gradientUnits="userSpaceOnUse">
<stop stop-color="#0099F9"/>
<stop offset="1" stop-color="#D7EFFF"/>
</linearGradient>
<linearGradient id="paint26_linear_203_167" x1="460.914" y1="103.471" x2="473.524" y2="103.471" gradientUnits="userSpaceOnUse">
<stop stop-color="#57F788"/>
<stop offset="1" stop-color="#CBFFDB"/>
</linearGradient>
<linearGradient id="paint27_linear_203_167" x1="215.887" y1="71.0359" x2="215.887" y2="173.099" gradientUnits="userSpaceOnUse">
<stop stop-color="#E5E8FF"/>
<stop offset="0.0001" stop-color="#E9ECFF"/>
<stop offset="1" stop-color="#B8C8FF"/>
</linearGradient>
<linearGradient id="paint28_linear_203_167" x1="283.19" y1="146.86" x2="283.19" y2="158.453" gradientUnits="userSpaceOnUse">
<stop stop-color="#E5E8FF"/>
<stop offset="0.0001" stop-color="#E9ECFF"/>
<stop offset="1" stop-color="#B8C8FF"/>
</linearGradient>
<linearGradient id="paint29_linear_203_167" x1="203.642" y1="133.574" x2="203.642" y2="158.248" gradientUnits="userSpaceOnUse">
<stop stop-color="#E5E8FF"/>
<stop offset="0.0001" stop-color="#E9ECFF"/>
<stop offset="1" stop-color="#B8C8FF"/>
</linearGradient>
<linearGradient id="paint30_linear_203_167" x1="283.429" y1="84.0211" x2="283.429" y2="142.02" gradientUnits="userSpaceOnUse">
<stop stop-color="#E5E8FF"/>
<stop offset="0.0001" stop-color="#E9ECFF"/>
<stop offset="1" stop-color="#B8C8FF"/>
</linearGradient>
<linearGradient id="paint31_linear_203_167" x1="144.863" y1="79.2129" x2="144.863" y2="83.5466" gradientUnits="userSpaceOnUse">
<stop stop-color="#E5E8FF"/>
<stop offset="0.0001" stop-color="#E9ECFF"/>
<stop offset="1" stop-color="#B8C8FF"/>
</linearGradient>
<linearGradient id="paint32_linear_203_167" x1="153.201" y1="79.2129" x2="153.201" y2="83.5466" gradientUnits="userSpaceOnUse">
<stop stop-color="#E5E8FF"/>
<stop offset="0.0001" stop-color="#E9ECFF"/>
<stop offset="1" stop-color="#B8C8FF"/>
</linearGradient>
<linearGradient id="paint33_linear_203_167" x1="162.05" y1="79.2129" x2="162.05" y2="83.5466" gradientUnits="userSpaceOnUse">
<stop stop-color="#E5E8FF"/>
<stop offset="0.0001" stop-color="#E9ECFF"/>
<stop offset="1" stop-color="#B8C8FF"/>
</linearGradient>
<linearGradient id="paint34_linear_203_167" x1="172.041" y1="79.2129" x2="172.041" y2="83.5466" gradientUnits="userSpaceOnUse">
<stop stop-color="#E5E8FF"/>
<stop offset="0.0001" stop-color="#E9ECFF"/>
<stop offset="1" stop-color="#B8C8FF"/>
</linearGradient>
<linearGradient id="paint35_linear_203_167" x1="182.325" y1="79.2129" x2="182.325" y2="83.5466" gradientUnits="userSpaceOnUse">
<stop stop-color="#E5E8FF"/>
<stop offset="0.0001" stop-color="#E9ECFF"/>
<stop offset="1" stop-color="#B8C8FF"/>
</linearGradient>
<linearGradient id="paint36_linear_203_167" x1="147.759" y1="101.973" x2="147.759" y2="110.735" gradientUnits="userSpaceOnUse">
<stop stop-color="#E5E8FF"/>
<stop offset="0.0001" stop-color="#E9ECFF"/>
<stop offset="1" stop-color="#B8C8FF"/>
</linearGradient>
<linearGradient id="paint37_linear_203_167" x1="147.759" y1="115.148" x2="147.759" y2="123.91" gradientUnits="userSpaceOnUse">
<stop stop-color="#E5E8FF"/>
<stop offset="0.0001" stop-color="#E9ECFF"/>
<stop offset="1" stop-color="#B8C8FF"/>
</linearGradient>
<linearGradient id="paint38_linear_203_167" x1="164.313" y1="101.973" x2="164.313" y2="110.735" gradientUnits="userSpaceOnUse">
<stop stop-color="#E5E8FF"/>
<stop offset="0.0001" stop-color="#E9ECFF"/>
<stop offset="1" stop-color="#B8C8FF"/>
</linearGradient>
<linearGradient id="paint39_linear_203_167" x1="164.313" y1="115.148" x2="164.313" y2="123.91" gradientUnits="userSpaceOnUse">
<stop stop-color="#E5E8FF"/>
<stop offset="0.0001" stop-color="#E9ECFF"/>
<stop offset="1" stop-color="#B8C8FF"/>
</linearGradient>
<linearGradient id="paint40_linear_203_167" x1="180.587" y1="101.973" x2="180.587" y2="110.735" gradientUnits="userSpaceOnUse">
<stop stop-color="#E5E8FF"/>
<stop offset="0.0001" stop-color="#E9ECFF"/>
<stop offset="1" stop-color="#B8C8FF"/>
</linearGradient>
<linearGradient id="paint41_linear_203_167" x1="180.587" y1="115.148" x2="180.587" y2="123.91" gradientUnits="userSpaceOnUse">
<stop stop-color="#E5E8FF"/>
<stop offset="0.0001" stop-color="#E9ECFF"/>
<stop offset="1" stop-color="#B8C8FF"/>
</linearGradient>
<linearGradient id="paint42_linear_203_167" x1="197.667" y1="101.973" x2="197.667" y2="110.735" gradientUnits="userSpaceOnUse">
<stop stop-color="#E5E8FF"/>
<stop offset="0.0001" stop-color="#E9ECFF"/>
<stop offset="1" stop-color="#B8C8FF"/>
</linearGradient>
<linearGradient id="paint43_linear_203_167" x1="197.667" y1="115.148" x2="197.667" y2="123.91" gradientUnits="userSpaceOnUse">
<stop stop-color="#E5E8FF"/>
<stop offset="0.0001" stop-color="#E9ECFF"/>
<stop offset="1" stop-color="#B8C8FF"/>
</linearGradient>
<linearGradient id="paint44_linear_203_167" x1="147.759" y1="90.2844" x2="147.759" y2="99.0467" gradientUnits="userSpaceOnUse">
<stop stop-color="#E5E8FF"/>
<stop offset="0.0001" stop-color="#E9ECFF"/>
<stop offset="1" stop-color="#B8C8FF"/>
</linearGradient>
<linearGradient id="paint45_linear_203_167" x1="164.313" y1="90.2844" x2="164.313" y2="99.0467" gradientUnits="userSpaceOnUse">
<stop stop-color="#E5E8FF"/>
<stop offset="0.0001" stop-color="#E9ECFF"/>
<stop offset="1" stop-color="#B8C8FF"/>
</linearGradient>
<linearGradient id="paint46_linear_203_167" x1="180.587" y1="90.2845" x2="180.587" y2="99.0467" gradientUnits="userSpaceOnUse">
<stop stop-color="#E5E8FF"/>
<stop offset="0.0001" stop-color="#E9ECFF"/>
<stop offset="1" stop-color="#B8C8FF"/>
</linearGradient>
<linearGradient id="paint47_linear_203_167" x1="197.667" y1="90.2844" x2="197.667" y2="99.0467" gradientUnits="userSpaceOnUse">
<stop stop-color="#E5E8FF"/>
<stop offset="0.0001" stop-color="#E9ECFF"/>
<stop offset="1" stop-color="#B8C8FF"/>
</linearGradient>
<linearGradient id="paint48_linear_203_167" x1="384.756" y1="85.2355" x2="263.755" y2="253.715" gradientUnits="userSpaceOnUse">
<stop stop-color="white"/>
<stop offset="0.446875" stop-color="#FFC4C4"/>
<stop offset="0.952083" stop-color="#FFC4C4"/>
</linearGradient>
<linearGradient id="paint49_linear_203_167" x1="371.899" y1="87.2616" x2="346.504" y2="132.59" gradientUnits="userSpaceOnUse">
<stop stop-color="white"/>
<stop offset="1" stop-color="#FFB3B3"/>
</linearGradient>
<linearGradient id="paint50_linear_203_167" x1="475.503" y1="200.978" x2="467.756" y2="224.677" gradientUnits="userSpaceOnUse">
<stop stop-color="white"/>
<stop offset="0.84427" stop-color="#FFC4C4"/>
</linearGradient>
<linearGradient id="paint51_linear_203_167" x1="489.103" y1="190.594" x2="458.243" y2="241.77" gradientUnits="userSpaceOnUse">
<stop stop-color="white"/>
<stop offset="0.84427" stop-color="#FFC4C4"/>
</linearGradient>
<linearGradient id="paint52_linear_203_167" x1="418.995" y1="161.727" x2="418.995" y2="242.614" gradientUnits="userSpaceOnUse">
<stop stop-color="white"/>
<stop offset="0.84427" stop-color="#FFC4C4"/>
</linearGradient>
<linearGradient id="paint53_linear_203_167" x1="344.126" y1="144.945" x2="344.126" y2="314.185" gradientUnits="userSpaceOnUse">
<stop stop-color="#FFBA6B"/>
<stop offset="1" stop-color="#FF9314"/>
</linearGradient>
<linearGradient id="paint54_linear_203_167" x1="316.396" y1="191.274" x2="325.373" y2="314.435" gradientUnits="userSpaceOnUse">
<stop stop-color="#FFC27C"/>
<stop offset="1" stop-color="#FFA743"/>
</linearGradient>
<linearGradient id="paint55_linear_203_167" x1="283.869" y1="157.615" x2="283.869" y2="257.182" gradientUnits="userSpaceOnUse">
<stop stop-color="#FFBA6B"/>
<stop offset="1" stop-color="#FF9314"/>
</linearGradient>
<linearGradient id="paint56_linear_203_167" x1="293.826" y1="217.605" x2="302.687" y2="254.103" gradientUnits="userSpaceOnUse">
<stop stop-color="#FFC27C"/>
<stop offset="1" stop-color="#FFA743"/>
</linearGradient>
<linearGradient id="paint57_linear_203_167" x1="404.865" y1="152.316" x2="404.865" y2="254.728" gradientUnits="userSpaceOnUse">
<stop stop-color="#FFBA6B"/>
<stop offset="1" stop-color="#FF9314"/>
</linearGradient>
<linearGradient id="paint58_linear_203_167" x1="349.522" y1="237.245" x2="349.522" y2="342.988" gradientUnits="userSpaceOnUse">
<stop stop-color="#E1E1FF"/>
<stop offset="1" stop-color="#9D9DDC"/>
</linearGradient>
<linearGradient id="paint59_linear_203_167" x1="350.403" y1="148.737" x2="356.957" y2="256.386" gradientUnits="userSpaceOnUse">
<stop stop-color="#FFC27C"/>
<stop offset="1" stop-color="#FFA743"/>
</linearGradient>
<linearGradient id="paint60_linear_203_167" x1="392.792" y1="194.032" x2="406.689" y2="250.211" gradientUnits="userSpaceOnUse">
<stop stop-color="#FFC27C"/>
<stop offset="1" stop-color="#FFA743"/>
</linearGradient>
<linearGradient id="paint61_linear_203_167" x1="301.181" y1="247.832" x2="345.831" y2="342.185" gradientUnits="userSpaceOnUse">
<stop stop-color="white" stop-opacity="0"/>
<stop offset="1" stop-color="#9DA1F1"/>
</linearGradient>
</defs>
</svg>
