<svg width="720" height="400" viewBox="0 0 720 400" fill="none" xmlns="http://www.w3.org/2000/svg">
<rect width="720" height="400" fill="url(#paint0_linear_293_359)"/>
<path opacity="0.35" d="M606.923 304.65C606.864 304.87 606.804 305.091 606.743 305.31C605.462 305.345 603.995 305.376 602.347 305.408C601.074 305.433 599.685 305.457 598.199 305.479L598.003 305.484C597.929 305.484 597.859 305.484 597.788 305.487L595.825 305.518C594.123 305.545 592.307 305.571 590.379 305.595C590.118 305.598 589.851 305.602 589.585 305.605L589.174 305.611C588.696 305.616 588.21 305.622 587.715 305.631C587.361 305.633 586.997 305.637 586.635 305.641C585.9 305.652 585.152 305.659 584.39 305.667C583.17 305.679 581.914 305.692 580.622 305.706L580.127 305.71C579.542 305.715 578.953 305.722 578.353 305.728C578.287 305.728 578.221 305.728 578.155 305.73C578.086 305.73 578.021 305.731 577.95 305.731C576.678 305.745 575.37 305.76 574.034 305.773C573.82 305.773 573.609 305.776 573.392 305.779C573.139 305.779 572.885 305.783 572.627 305.784C571.837 305.788 571.039 305.796 570.232 305.805C568.44 305.823 566.599 305.836 564.714 305.853C560.177 305.886 555.368 305.925 550.3 305.958C544.888 305.994 539.182 306.028 533.198 306.061C532.277 306.066 531.355 306.07 530.419 306.078C503.808 306.22 472.002 306.328 436.882 306.394C428.274 306.409 419.471 306.424 410.497 306.432C409.048 306.433 407.6 306.436 406.142 306.436L402.865 306.441C400.861 306.443 398.846 306.447 396.823 306.447C389.947 306.449 382.98 306.454 375.936 306.456C373.454 306.457 370.959 306.459 368.456 306.459H353.027C342.754 306.457 332.641 306.45 322.716 306.447C317.472 306.439 312.278 306.435 307.144 306.427C293.887 306.409 281.017 306.388 268.637 306.355L262.399 306.342C260.957 306.338 259.516 306.333 258.088 306.33C255.746 306.324 253.428 306.317 251.127 306.312C248.783 306.303 246.463 306.295 244.163 306.289C231.267 306.249 219.038 306.202 207.591 306.149L202.469 306.126C201.635 306.12 200.804 306.117 199.981 306.114C195.76 306.095 191.661 306.07 187.684 306.051C184.48 306.028 181.352 306.012 178.311 305.992C177.692 305.986 177.075 305.984 176.46 305.98H176.318C176.099 305.978 175.88 305.978 175.661 305.976C170.747 305.943 166.063 305.909 161.621 305.877C157.843 305.846 154.244 305.819 150.833 305.787C149.832 305.779 148.844 305.768 147.874 305.758C147.149 305.751 146.434 305.745 145.729 305.739C145.398 305.735 145.071 305.731 144.744 305.73C144.357 305.724 143.972 305.723 143.593 305.718C143.392 305.717 143.191 305.712 142.988 305.712C142.521 305.708 142.053 305.703 141.586 305.697L141.115 305.693C140.853 305.688 140.593 305.684 140.332 305.682C139.666 305.676 139.011 305.667 138.366 305.663H138.339C138.294 305.661 138.248 305.661 138.201 305.661C137.975 305.657 137.754 305.657 137.532 305.654C137.094 305.649 136.66 305.642 136.232 305.637C135.833 305.633 135.436 305.631 135.045 305.625C134.856 305.622 134.668 305.619 134.475 305.614C133.587 305.605 132.699 305.594 131.812 305.581C131.099 305.574 130.403 305.563 129.724 305.554C129.526 305.174 129.33 304.792 129.133 304.41C118.018 282.813 108.583 260.253 107.147 236.014C105.274 204.457 121.409 169.323 150.709 161.19C168.378 156.285 187.024 161.8 205.308 161.611C231.877 161.336 257.055 148.95 279.129 133.52C290.457 125.6 301.211 116.83 312.006 108.12C312.6 107.642 313.193 107.162 313.788 106.684C313.891 106.601 313.994 106.517 314.098 106.433C314.374 106.21 314.652 105.988 314.927 105.764C315.103 105.625 315.278 105.486 315.452 105.344C316.048 104.866 316.642 104.388 317.239 103.912C325.75 97.0918 334.349 90.4004 343.331 84.279C365.572 69.116 391.105 57.3181 417.67 58.0079C444.233 58.6948 471.635 74.3512 480.746 100.383C487.828 120.623 483.427 144.247 492.806 163.447C500.46 179.115 515.935 188.874 531.426 195.814C546.919 202.754 563.417 207.844 577.202 217.97C595.277 231.248 607.376 253.018 609.436 275.979C610.298 285.595 609.396 295.347 606.923 304.65Z" fill="white" fill-opacity="0.16"/>
<path d="M613.077 304.977C613.077 305.058 611.984 305.138 609.882 305.215C608.836 305.252 607.789 305.284 606.743 305.309C605.462 305.344 603.995 305.376 602.348 305.407C601.074 305.432 599.686 305.457 598.2 305.479L598.003 305.483C597.93 305.483 597.859 305.483 597.788 305.486L595.826 305.518C594.123 305.545 592.307 305.57 590.379 305.594C590.118 305.597 589.851 305.602 589.586 305.605L589.174 305.611C588.696 305.615 588.21 305.621 587.715 305.63C587.362 305.633 586.997 305.636 586.636 305.641C585.901 305.651 585.152 305.659 584.391 305.666C583.17 305.678 581.915 305.691 580.622 305.705L580.127 305.71C579.542 305.714 578.953 305.722 578.353 305.728C578.287 305.728 578.221 305.728 578.155 305.729C578.086 305.729 578.022 305.731 577.95 305.731C576.678 305.745 575.371 305.76 574.034 305.773C573.82 305.773 573.61 305.776 573.392 305.779C573.139 305.779 572.885 305.782 572.627 305.783C571.837 305.788 571.039 305.796 570.233 305.804C568.44 305.823 566.599 305.836 564.714 305.852C560.177 305.885 555.368 305.924 550.301 305.957C544.888 305.993 539.183 306.028 533.199 306.061C532.278 306.065 531.356 306.07 530.42 306.078C503.809 306.22 472.002 306.328 436.882 306.394C428.274 306.409 419.471 306.424 410.497 306.431C409.048 306.433 407.6 306.436 406.142 306.436L402.865 306.44C400.862 306.443 398.846 306.446 396.823 306.446C389.948 306.449 382.98 306.454 375.936 306.455C373.454 306.457 370.959 306.458 368.456 306.458H353.027C342.755 306.457 332.641 306.449 322.716 306.446C317.472 306.439 312.279 306.434 307.144 306.427C293.887 306.409 281.017 306.388 268.637 306.355L262.399 306.342C260.958 306.337 259.517 306.333 258.089 306.33C255.746 306.324 253.428 306.316 251.127 306.311C248.783 306.303 246.463 306.295 244.163 306.289C231.267 306.249 219.038 306.202 207.591 306.148L202.469 306.126C201.636 306.119 200.805 306.117 199.981 306.113C195.76 306.094 191.661 306.07 187.684 306.05C184.481 306.028 181.352 306.011 178.311 305.992C177.692 305.986 177.076 305.983 176.46 305.98H176.318C176.099 305.977 175.88 305.977 175.661 305.975C170.747 305.942 166.064 305.908 161.621 305.877C157.844 305.845 154.245 305.818 150.833 305.787C149.832 305.779 148.844 305.767 147.874 305.758C147.149 305.751 146.434 305.745 145.73 305.739C145.398 305.734 145.071 305.731 144.744 305.73C144.358 305.724 143.972 305.722 143.593 305.718C143.392 305.716 143.191 305.712 142.988 305.712C142.521 305.708 142.054 305.703 141.586 305.697L141.116 305.692C140.853 305.688 140.594 305.683 140.333 305.682C139.667 305.676 139.011 305.667 138.366 305.662H138.339C138.294 305.661 138.248 305.661 138.201 305.661C137.975 305.656 137.755 305.656 137.533 305.653C137.095 305.649 136.66 305.641 136.233 305.637C135.834 305.632 135.436 305.631 135.045 305.625C134.856 305.622 134.669 305.618 134.475 305.614C133.587 305.605 132.7 305.594 131.812 305.581C131.099 305.573 130.404 305.563 129.724 305.554C129.511 305.549 129.3 305.546 129.09 305.543C128.4 305.535 127.727 305.524 127.071 305.515C126.611 305.509 126.15 305.502 125.69 305.494C125.51 305.492 125.326 305.489 125.149 305.486C115.407 305.329 110.094 305.155 110.094 304.976C110.094 304.805 115.049 304.639 124.168 304.487C124.335 304.486 124.498 304.483 124.664 304.48C125.502 304.465 126.372 304.451 127.277 304.438C127.481 304.433 127.686 304.432 127.893 304.429C128.301 304.421 128.713 304.415 129.133 304.409C129.634 304.403 130.145 304.396 130.667 304.39C131.774 304.376 132.922 304.36 134.109 304.344C134.569 304.336 135.04 304.335 135.515 304.327C135.565 304.327 135.617 304.324 135.67 304.324C136.033 304.321 136.406 304.317 136.777 304.312C137.092 304.312 137.408 304.307 137.726 304.3H137.735C137.987 304.298 138.236 304.297 138.492 304.294L138.825 304.289L139.085 304.285C139.167 304.283 139.251 304.283 139.337 304.282C139.626 304.28 139.914 304.278 140.208 304.278C140.325 304.276 140.44 304.273 140.559 304.273C141.043 304.267 141.533 304.26 142.033 304.252H142.034C143.371 304.242 144.743 304.23 146.154 304.212H146.301C146.319 304.209 146.337 304.209 146.356 304.209C148.112 304.195 149.928 304.178 151.797 304.163C154.974 304.131 158.306 304.104 161.794 304.077C165.417 304.05 169.208 304.023 173.151 303.996C174.469 303.989 175.804 303.983 177.16 303.971C179.505 303.956 181.906 303.939 184.35 303.929C188.789 303.9 193.393 303.876 198.15 303.851C199.425 303.844 200.713 303.839 202.009 303.831C204.061 303.824 206.136 303.813 208.241 303.804C219.19 303.755 230.853 303.712 243.125 303.669C243.743 303.666 244.359 303.665 244.977 303.665C245.241 303.663 245.505 303.663 245.769 303.662C246.201 303.66 246.63 303.66 247.062 303.659C250.541 303.647 254.066 303.638 257.638 303.628C259.09 303.623 260.543 303.62 262.012 303.616C263.66 303.611 265.317 303.608 266.98 303.602C280.194 303.575 293.962 303.548 308.183 303.528C313.273 303.524 318.423 303.518 323.625 303.514C333.438 303.505 343.438 303.497 353.589 303.497H369.658C371.614 303.497 373.56 303.499 375.501 303.499C385.819 303.503 395.968 303.509 405.917 303.518C407.367 303.52 408.82 303.524 410.261 303.524C419.205 303.535 427.982 303.548 436.558 303.564C471.623 303.627 503.393 303.737 530.009 303.878C530.718 303.881 531.423 303.887 532.119 303.89C539.017 303.926 545.559 303.967 551.709 304.009C557.181 304.044 562.344 304.086 567.172 304.124C569.033 304.142 570.843 304.157 572.599 304.173H572.647L575.464 304.201C575.605 304.202 575.744 304.202 575.884 304.202C577.173 304.217 578.461 304.23 579.749 304.241C579.778 304.243 579.809 304.243 579.836 304.243C580.204 304.244 580.563 304.252 580.919 304.253C581.319 304.258 581.715 304.261 582.108 304.264C583.167 304.279 584.198 304.291 585.208 304.301C586.406 304.314 587.604 304.328 588.802 304.343C589.31 304.348 589.815 304.357 590.311 304.363C590.488 304.364 590.665 304.366 590.84 304.369H590.926C592.58 304.391 594.147 304.414 595.625 304.435C595.841 304.439 596.06 304.442 596.275 304.447C597.092 304.459 597.884 304.472 598.649 304.485C600.006 304.507 601.363 304.531 602.721 304.558C604.294 304.588 605.696 304.62 606.923 304.651C607.127 304.657 607.323 304.662 607.517 304.668C608.12 304.686 608.673 304.702 609.18 304.718C611.739 304.801 613.077 304.89 613.077 304.977Z" fill="white" fill-opacity="0.16"/>
<path d="M609.757 280.951V294.831C609.757 300.291 605.331 304.717 599.872 304.717H436.701V300.038H442.962V275.743H436.701V271.066H599.872C603.041 271.066 605.862 272.557 607.672 274.877C609.027 276.612 609.761 278.75 609.757 280.951Z" fill="url(#paint1_linear_293_359)"/>
<path d="M527.814 275.744L527.815 275.745C529.847 279.471 530.912 283.647 530.912 287.892C530.912 292.136 529.847 296.312 527.814 300.038H442.959V275.744H527.814Z" fill="#FCEDEA"/>
<path d="M596.087 216.325V224.536C596.087 229.367 592.172 233.283 587.341 233.283H442.959V229.143H448.498V211.717H442.959V207.579H587.342C589.903 207.579 592.206 208.68 593.806 210.433C595.276 212.043 596.09 214.145 596.087 216.325Z" fill="url(#paint2_linear_293_359)"/>
<path d="M515.383 211.718L515.383 211.718C519.037 218.417 519.037 222.444 515.383 229.143H448.5V211.718H515.383Z" fill="#FCEDEA"/>
<path d="M587.012 233.284H442.443V237.578H448.19V266.771H442.443V271.066H587.012C592.023 271.066 596.086 267.004 596.086 261.993V242.358C596.086 237.345 592.024 233.284 587.012 233.284Z" fill="url(#paint3_linear_293_359)"/>
<path d="M514.166 237.578L514.166 237.579C516.757 242.007 518.122 247.045 518.122 252.175C518.122 257.306 516.757 262.343 514.166 266.772H448.191V237.578H514.166Z" fill="#FCEDEA"/>
<path d="M520.913 282.148C520.913 282.714 504.634 283.173 484.552 283.173C464.471 283.173 448.191 282.714 448.191 282.148C448.191 281.582 464.471 281.124 484.552 281.124C504.634 281.124 520.913 281.582 520.913 282.148ZM507.661 243.222C507.661 243.788 496.573 244.247 482.896 244.247C469.218 244.247 458.13 243.788 458.13 243.222C458.13 242.656 469.218 242.197 482.896 242.197C496.573 242.197 507.661 242.656 507.661 243.222Z" fill="#D0E3FA"/>
<path d="M485.666 217.763C497.816 217.763 507.665 217.305 507.665 216.739C507.665 216.173 497.816 215.714 485.666 215.714C473.516 215.714 463.666 216.173 463.666 216.739C463.666 217.305 473.516 217.763 485.666 217.763Z" fill="#D0E3FA"/>
<path d="M493.372 223.778C493.372 224.344 485.483 224.802 475.751 224.802C466.018 224.802 458.129 224.344 458.129 223.778C458.129 223.212 466.018 222.753 475.751 222.753C485.483 222.753 493.372 223.212 493.372 223.778ZM501.31 250.952C501.31 251.518 493.065 251.977 482.894 251.977C472.723 251.977 464.478 251.518 464.478 250.952C464.478 250.386 472.723 249.928 482.894 249.928C493.065 249.928 501.31 250.386 501.31 250.952Z" fill="#D0E3FA"/>
<path d="M478.81 259.707C491.237 259.707 501.31 259.248 501.31 258.682C501.31 258.116 491.237 257.658 478.81 257.658C466.384 257.658 456.311 258.116 456.311 258.682C456.311 259.248 466.384 259.707 478.81 259.707Z" fill="#D0E3FA"/>
<path d="M484.551 293.787C499.143 293.787 510.973 293.328 510.973 292.762C510.973 292.196 499.143 291.738 484.551 291.738C469.958 291.738 458.129 292.196 458.129 292.762C458.129 293.328 469.958 293.787 484.551 293.787Z" fill="#D0E3FA"/>
<path d="M470.043 250.952V263.017L475.564 260.44L481.085 263.017V250.952H470.043Z" fill="#2698A2"/>
<path d="M470.043 250.952V263.017L475.564 260.44L481.085 263.017V250.952H470.043Z" fill="url(#paint4_linear_293_359)"/>
<path opacity="0.25" d="M576.179 233.283H442.957V229.142C458.987 229.619 473.534 229.575 486.707 229.142H515.381C515.699 228.562 516.001 227.974 516.287 227.377C550.271 224.351 571.995 218.643 584.646 214.129C584.832 214.846 584.926 215.584 584.925 216.325V224.537C584.924 229.367 581.009 233.283 576.179 233.283Z" fill="url(#paint5_linear_293_359)"/>
<path opacity="0.25" d="M596.088 216.326V224.537C596.088 229.367 592.172 233.283 587.342 233.283H580.561C585.391 233.283 589.306 229.367 589.306 224.537V216.324C589.306 215.024 589.023 213.792 588.515 212.682C590.299 211.983 592.064 211.233 593.805 210.433C595.276 212.043 596.091 214.145 596.088 216.326Z" fill="url(#paint6_linear_293_359)"/>
<path opacity="0.5" d="M570.254 261.993V250.863C557.161 256.169 539.21 261.411 515.341 264.543C514.982 265.302 514.59 266.046 514.165 266.771H491.626C477.029 267.639 460.688 267.74 442.443 266.771V271.066H561.18C566.191 271.066 570.254 267.004 570.254 261.993Z" fill="url(#paint7_linear_293_359)"/>
<path opacity="0.5" d="M580.563 261.992V246.225C578.712 247.149 576.841 248.031 574.95 248.871V261.992C574.95 267.004 570.887 271.066 565.877 271.066H571.489C576.501 271.066 580.563 267.004 580.563 261.992Z" fill="url(#paint8_linear_293_359)"/>
<path opacity="0.5" d="M594.805 237.706C592.473 239.406 589.323 241.486 585.253 243.75V261.992C585.253 267.004 581.189 271.066 576.18 271.066H587.013C592.024 271.066 596.087 267.004 596.087 261.992V242.358C596.089 240.72 595.646 239.112 594.805 237.706Z" fill="url(#paint9_linear_293_359)"/>
<g opacity="0.25">
<path d="M591.643 294.831V283.068C579.031 288.005 559.45 293.216 529.376 296.578C528.943 297.769 528.42 298.926 527.813 300.038H472.8C461.655 300.26 449.642 300.272 436.697 300.038V304.717H581.759C587.218 304.717 591.643 300.292 591.643 294.831Z" fill="url(#paint10_linear_293_359)"/>
<path d="M599.19 294.831V280.952C599.19 280.565 599.168 280.184 599.124 279.809C597.871 280.419 596.605 281 595.325 281.552V294.831C595.325 300.292 590.899 304.717 585.439 304.717H589.304C594.763 304.717 599.19 300.292 599.19 294.831Z" fill="url(#paint11_linear_293_359)"/>
<path d="M607.669 274.877C606.267 275.858 604.549 276.942 602.451 278.091C602.731 279.019 602.873 279.983 602.872 280.952V294.831C602.872 300.292 598.447 304.717 592.986 304.717H599.871C605.33 304.717 609.756 300.292 609.756 294.831V280.952C609.759 278.751 609.024 276.612 607.669 274.877Z" fill="url(#paint12_linear_293_359)"/>
</g>
<path d="M587.34 233.283C587.34 233.625 555.018 233.902 515.148 233.902C475.278 233.902 442.957 233.625 442.957 233.283C442.957 232.941 475.278 232.664 515.148 232.664C555.018 232.664 587.34 232.941 587.34 233.283ZM601.882 271.066C601.882 271.408 566.306 271.685 522.42 271.685C478.534 271.685 442.957 271.408 442.957 271.066C442.957 270.725 478.534 270.448 522.42 270.448C566.306 270.448 601.882 270.724 601.882 271.066Z" fill="#4A1C40"/>
<path d="M578.879 207.57L499.216 207.567L499.201 200.811L578.864 200.813L578.879 207.57Z" fill="#DD970F"/>
<path opacity="0.5" d="M578.881 207.57L499.218 207.567L499.213 205.37L578.876 205.372L578.881 207.57Z" fill="url(#paint13_linear_293_359)"/>
<path d="M578.869 203.011L499.206 203.008L499.201 200.811L578.864 200.813L578.869 203.011Z" fill="url(#paint14_linear_293_359)"/>
<path d="M499.219 207.567L495.963 205.939L495.209 205.562L491.73 204.203L495.203 202.832L495.956 202.452L499.204 200.81C501.793 204.38 499.219 207.567 499.219 207.567Z" fill="url(#paint15_linear_293_359)"/>
<path d="M495.209 205.562L491.73 204.203L495.203 202.833C495.424 203.254 495.54 203.721 495.542 204.196C495.542 204.672 495.428 205.14 495.209 205.562Z" fill="url(#paint16_linear_293_359)"/>
<path d="M578.871 200.818L578.886 207.574L576.189 207.58L576.174 200.824L578.871 200.818Z" fill="#FFC8C7"/>
<path d="M583.608 205.137V205.142C583.608 206.48 582.245 207.566 580.578 207.569H578.879V200.813H580.578C582.247 200.809 583.602 201.892 583.604 203.232L583.608 205.137Z" fill="url(#paint17_linear_293_359)"/>
<path opacity="0.5" d="M423.333 127.787L167.529 126.75C161.231 126.724 156.103 131.808 156.077 138.107L155.432 300.514L434.044 301.647L434.69 139.24C434.716 132.942 429.632 127.814 423.333 127.787Z" fill="url(#paint18_linear_293_359)"/>
<path d="M425.743 144.259L425.634 172.124L425.608 178.512L425.328 249.885L425.304 255.867L425.233 273.916L425.188 285.202C425.172 288.951 422.12 291.977 418.372 291.962L317.389 291.553L310.534 291.524L170.216 290.956C166.801 290.943 163.986 288.41 163.525 285.124C163.478 284.798 163.455 284.469 163.457 284.14L163.568 255.867L163.592 249.885L163.872 178.512L163.898 172.123L164.012 143.195C164.028 139.448 167.08 136.421 170.829 136.436L268.819 136.834L275.676 136.861L418.984 137.441C422.733 137.458 425.76 140.51 425.743 144.259Z" fill="white"/>
<path d="M469.197 317.219L119.998 315.789L155.429 300.514L434.044 301.647L469.197 317.219Z" fill="url(#paint19_linear_293_359)"/>
<path opacity="0.5" d="M207.16 311.904L217.973 305.876L377.041 306.999L387.781 313.123L207.16 311.904Z" fill="white"/>
<path d="M465.57 327.241L123.54 325.841L119.998 315.789L469.197 317.219L465.57 327.241Z" fill="url(#paint20_linear_293_359)"/>
<path opacity="0.5" d="M465.57 327.241L123.54 325.841L119.998 315.789L469.197 317.219L465.57 327.241Z" fill="url(#paint21_linear_293_359)"/>
<path d="M297.469 132.718C297.467 132.988 297.413 133.255 297.309 133.504C297.204 133.753 297.052 133.979 296.86 134.169C296.668 134.359 296.441 134.51 296.191 134.612C295.941 134.715 295.673 134.767 295.403 134.765C295.133 134.764 294.866 134.71 294.617 134.606C294.368 134.501 294.142 134.349 293.952 134.157C293.762 133.965 293.611 133.738 293.509 133.488C293.406 133.238 293.354 132.97 293.355 132.7C293.358 132.155 293.577 131.633 293.964 131.249C294.351 130.865 294.875 130.65 295.421 130.652C295.966 130.655 296.488 130.874 296.872 131.261C297.256 131.648 297.471 132.172 297.469 132.718Z" fill="white"/>
<path d="M225.164 196.436H364.032V267.809H225.164V196.436Z" fill="url(#paint22_linear_293_359)"/>
<path d="M252.5 211.249H242.09V254.921H268.82V245.303H252.5V211.249ZM302.795 211.249L295.322 231.55C294.819 232.971 294.329 234.397 293.851 235.827C293.399 234.41 292.934 232.996 292.457 231.586L285.284 211.25H274.499L271.453 254.921H281.67L282.85 235.967C282.87 235.644 282.889 235.32 282.907 234.994L289.597 254.694H297.219L304.773 233.937L304.86 235.566L305.971 254.921H316.292L313.571 211.249H302.795ZM337.24 227.98C331.806 225.875 331.399 224.709 331.399 223.169C331.399 221.727 332.569 220.187 335.854 220.187C338.524 220.187 340.558 220.991 341.795 221.665L344.659 223.227L347.789 213.968L345.818 212.852C344.351 212.02 341.128 210.626 336.024 210.626C331.758 210.626 328.044 211.875 325.283 214.238C322.477 216.639 320.931 220.012 320.931 223.735C320.931 227.055 322.109 229.925 324.432 232.267C326.374 234.225 329.114 235.815 332.807 237.128C337.815 239.06 338.214 240.487 338.214 242.151C338.214 245.558 334.543 245.926 332.965 245.926C330.452 245.926 327.685 245.146 325.562 243.84L322.529 241.973L319.669 251.464L321.359 252.591C323.958 254.323 328.486 255.487 332.625 255.487C343.756 255.487 348.738 248.59 348.738 241.754C348.737 233.479 342.592 230.045 337.24 227.98Z" fill="white"/>
<path d="M425.607 196.435L425.327 267.809H370.411V196.435H425.607ZM425.742 144.259L425.633 190.011H275.675V136.861L418.984 137.441C422.733 137.458 425.759 140.51 425.742 144.259ZM170.828 136.436L189.337 136.512V190.012H163.897L164.011 143.196C164.028 139.448 167.079 136.422 170.828 136.436ZM268.819 136.834V190.011H196.194V136.54L268.819 136.834ZM425.232 273.915L425.187 285.202C425.171 288.951 422.119 291.977 418.371 291.962L317.388 291.553V273.915H425.232ZM310.533 273.915V291.524L170.215 290.956C166.8 290.943 163.985 288.41 163.523 285.124L163.567 273.915L310.533 273.915ZM218.832 196.435V267.809H163.591L163.872 196.435H218.832Z" fill="url(#paint23_linear_293_359)"/>
<path d="M398.214 252.415C400.518 252.09 402.752 251.277 404.702 250.046C406.433 248.956 407.94 247.537 409.075 245.845H419.473V239.503H401.917V245.845H402.866C402.578 246.057 402.279 246.254 401.972 246.437C399.293 248.023 395.906 248.528 392.871 247.586C388.381 246.193 384.858 241.678 384.496 236.848C384.176 232.583 386.197 228.184 389.624 225.434C389.862 225.242 390.107 225.06 390.358 224.886L396.784 231.313L403.191 224.906L385.491 207.204L379.084 213.611L387.119 221.647C385.533 222.869 384.156 224.343 383.044 226.009C380.837 229.309 379.685 233.287 379.977 237.188C380.484 243.904 385.232 249.96 391.527 251.912C392.259 252.138 393.007 252.305 393.76 252.414H379.151V259.323H419.813V252.414L398.214 252.415Z" fill="white"/>
<path d="M377.398 210.165L382.044 205.519L384.004 207.479L379.358 212.125L377.398 210.165Z" fill="white"/>
<path d="M396.859 232.994L404.868 224.985L406.71 226.827L398.701 234.836L396.859 232.994Z" fill="white"/>
<path d="M390.358 224.884C390.108 225.058 389.863 225.241 389.627 225.432C388.401 224.786 386.859 224.704 385.487 225.039C384.628 225.248 383.822 225.592 383.045 226.007C384.154 224.352 385.531 222.863 387.121 221.645V221.647L390.358 224.884ZM409.081 245.841C407.947 247.535 406.437 248.953 404.704 250.046C404.779 249.757 404.799 249.456 404.765 249.16C404.668 248.302 404.139 247.526 403.427 247.04C402.993 246.742 402.493 246.545 401.976 246.438C402.283 246.255 402.581 246.058 402.869 245.845H409.077L409.081 245.841Z" fill="white"/>
<path d="M209.493 222.561C209.324 224.085 208.907 225.602 208.213 227.194C207.552 228.722 206.653 230.296 205.381 232.147C204.856 232.912 204.306 233.674 203.778 234.407C202.366 236.366 201.028 238.213 200.012 240.266C198.969 242.368 198.43 244.482 198.455 246.383C198.459 246.716 198.33 247.038 198.097 247.276C197.864 247.515 197.545 247.651 197.212 247.655H197.197C196.662 247.655 196.209 247.324 196.029 246.853C195.97 246.714 195.94 246.563 195.939 246.411C195.911 244.115 196.54 241.603 197.758 239.148C198.868 236.912 200.328 234.889 201.736 232.937C202.258 232.211 202.797 231.464 203.307 230.727C204.483 229.009 205.309 227.568 205.906 226.195C206.499 224.832 206.851 223.553 206.995 222.284C207.509 217.605 204.713 212.505 200.199 209.885C197.654 208.411 194.574 207.635 191.278 207.635H191.16C187.857 207.635 184.773 208.412 182.232 209.885C177.718 212.505 174.922 217.605 175.435 222.284C175.575 223.553 175.931 224.832 176.525 226.191C177.121 227.567 177.944 229.009 179.123 230.723C179.63 231.463 180.169 232.211 180.694 232.937C182.103 234.889 183.562 236.912 184.669 239.148C185.89 241.602 186.52 244.114 186.491 246.411C186.491 246.565 186.458 246.716 186.404 246.853C186.313 247.089 186.152 247.292 185.942 247.435C185.733 247.578 185.486 247.655 185.233 247.655H185.218C184.967 247.652 184.723 247.574 184.516 247.431C184.31 247.289 184.151 247.087 184.061 246.853C184.003 246.703 183.973 246.543 183.974 246.382C183.999 244.481 183.46 242.368 182.414 240.269C181.397 238.213 180.064 236.366 178.652 234.407C178.107 233.66 177.573 232.907 177.049 232.146C175.776 230.295 174.874 228.721 174.213 227.194C173.523 225.602 173.102 224.085 172.933 222.561C172.304 216.832 175.535 210.862 180.97 207.71C183.895 206.014 187.414 205.119 191.151 205.119H191.285C195.015 205.119 198.534 206.014 201.459 207.71C206.894 210.863 210.122 216.832 209.493 222.561ZM198.168 248.034C193.976 250.196 188.771 250.191 184.584 248.02C184.289 247.881 183.951 247.861 183.642 247.965C183.333 248.069 183.077 248.289 182.927 248.579C182.777 248.868 182.745 249.205 182.838 249.517C182.931 249.83 183.142 250.094 183.426 250.254C185.882 251.526 188.636 252.163 191.39 252.163C194.132 252.163 196.875 251.532 199.322 250.27C199.469 250.194 199.599 250.09 199.706 249.964C199.813 249.838 199.894 249.692 199.944 249.535C199.995 249.377 200.014 249.211 200 249.047C199.986 248.882 199.94 248.722 199.864 248.575C199.788 248.428 199.684 248.297 199.558 248.191C199.432 248.084 199.286 248.003 199.128 247.953C198.971 247.903 198.805 247.884 198.64 247.898C198.476 247.912 198.315 247.958 198.168 248.034Z" fill="white"/>
<path d="M198.164 251.517C193.972 253.678 188.767 253.673 184.579 251.503C184.285 251.363 183.947 251.343 183.638 251.447C183.329 251.551 183.072 251.771 182.922 252.061C182.772 252.351 182.741 252.687 182.834 253C182.927 253.312 183.138 253.576 183.422 253.736C185.877 255.009 188.631 255.645 191.386 255.645C194.128 255.645 196.87 255.014 199.317 253.753C199.464 253.677 199.595 253.573 199.701 253.447C199.808 253.321 199.889 253.175 199.939 253.017C199.989 252.86 200.008 252.694 199.994 252.53C199.981 252.365 199.935 252.205 199.859 252.058C199.783 251.911 199.679 251.781 199.553 251.674C199.427 251.567 199.281 251.487 199.124 251.436C198.966 251.386 198.8 251.367 198.636 251.381C198.471 251.395 198.311 251.441 198.164 251.517Z" fill="white"/>
<path d="M196.854 255.589C193.367 256.954 189.369 256.951 185.886 255.58C185.732 255.519 185.568 255.49 185.403 255.493C185.238 255.496 185.075 255.531 184.923 255.597C184.772 255.663 184.635 255.758 184.52 255.877C184.405 255.995 184.315 256.136 184.255 256.289C184.194 256.443 184.164 256.607 184.167 256.772C184.17 256.938 184.206 257.101 184.272 257.252C184.337 257.404 184.433 257.541 184.551 257.655C184.67 257.77 184.81 257.86 184.964 257.921C187.003 258.723 189.191 259.124 191.38 259.124C193.56 259.124 195.739 258.727 197.771 257.931C197.925 257.871 198.066 257.781 198.185 257.667C198.304 257.552 198.399 257.415 198.465 257.264C198.531 257.113 198.567 256.95 198.57 256.784C198.574 256.619 198.544 256.455 198.484 256.301C198.424 256.148 198.334 256.007 198.219 255.888C198.105 255.769 197.968 255.674 197.817 255.608C197.665 255.541 197.502 255.506 197.337 255.502C197.172 255.499 197.008 255.529 196.854 255.589ZM188.437 248.227C188.769 248.267 189.102 248.175 189.365 247.969C189.628 247.764 189.798 247.462 189.839 247.131C189.9 246.64 191.231 234.967 184.231 222.897C184.063 222.608 183.788 222.398 183.466 222.312C183.143 222.227 182.8 222.272 182.512 222.44C182.223 222.607 182.013 222.882 181.927 223.205C181.841 223.527 181.887 223.871 182.055 224.159C188.598 235.442 187.362 246.658 187.342 246.826C187.322 246.99 187.334 247.156 187.378 247.315C187.422 247.474 187.498 247.623 187.599 247.753C187.701 247.883 187.827 247.992 187.971 248.073C188.115 248.155 188.273 248.207 188.437 248.227ZM200.226 222.44C200.084 222.357 199.926 222.303 199.762 222.282C199.598 222.26 199.432 222.27 199.272 222.313C199.112 222.355 198.963 222.429 198.831 222.529C198.7 222.629 198.59 222.754 198.507 222.897C191.507 234.967 192.838 246.641 192.899 247.132C192.939 247.462 193.11 247.764 193.372 247.969C193.635 248.174 193.968 248.267 194.299 248.227C194.63 248.186 194.931 248.016 195.137 247.754C195.343 247.491 195.436 247.158 195.396 246.827C195.382 246.715 194.124 235.47 200.683 224.159C200.766 224.016 200.82 223.858 200.842 223.695C200.864 223.531 200.853 223.365 200.811 223.205C200.769 223.045 200.695 222.896 200.595 222.765C200.494 222.633 200.369 222.523 200.226 222.44Z" fill="white"/>
<path d="M237.99 163.273C237.99 166.053 235.737 168.306 232.957 168.306C230.176 168.306 227.924 166.053 227.924 163.273C227.924 160.492 230.176 158.237 232.957 158.237C233.45 158.237 233.925 158.308 234.375 158.441C234.118 158.77 233.867 159.105 233.621 159.444C231.997 161.689 231.293 163.08 232.219 164.01C232.481 164.271 232.842 164.415 233.238 164.415C233.783 164.415 234.59 164.195 236.785 162.605C237.123 162.36 237.456 162.109 237.786 161.853C237.921 162.314 237.99 162.792 237.99 163.273Z" fill="white"/>
<path d="M244.661 155.717C244.095 156.295 243.518 156.862 242.932 157.419C242.383 157.939 241.828 158.451 241.264 158.955C241.961 160.287 242.324 161.769 242.322 163.272C242.322 168.438 238.121 172.639 232.955 172.639C227.79 172.639 223.589 168.438 223.589 163.272C223.589 158.107 227.79 153.904 232.955 153.904C234.511 153.904 235.982 154.285 237.276 154.961C237.779 154.399 238.29 153.844 238.809 153.296C239.366 152.709 239.933 152.131 240.51 151.564C238.261 150.106 235.636 149.331 232.955 149.335C225.27 149.335 219.02 155.588 219.02 163.272C219.02 170.955 225.27 177.208 232.955 177.208C240.641 177.208 246.891 170.955 246.891 163.272C246.894 160.591 246.12 157.967 244.661 155.717Z" fill="white"/>
<path d="M251.965 151.251L248.632 154.584C250.111 157.241 250.885 160.232 250.882 163.272C250.882 173.155 242.84 181.197 232.955 181.197C223.07 181.197 215.028 173.155 215.028 163.272C215.028 153.387 223.07 145.346 232.955 145.346C235.995 145.341 238.985 146.116 241.641 147.596L244.974 144.263C241.381 141.981 237.211 140.771 232.955 140.777C220.55 140.777 210.459 150.867 210.459 163.272C210.459 175.675 220.55 185.766 232.955 185.766C245.36 185.766 255.451 175.675 255.451 163.272C255.456 159.015 254.247 154.845 251.965 151.251Z" fill="white"/>
<path d="M253.8 147.801L248.755 147.472L248.425 142.427L241.874 148.979L242.402 151.34C241.451 152.224 240.529 153.139 239.636 154.082C237.523 156.312 235.743 158.465 234.545 160.114C233.35 161.765 232.737 162.913 233.026 163.201C233.314 163.49 234.462 162.877 236.113 161.682C237.762 160.484 239.915 158.704 242.145 156.591C243.088 155.698 244.003 154.776 244.887 153.825L247.248 154.353L253.8 147.801Z" fill="white"/>
<path d="M292.314 177.434H298.619V182.994H292.314V177.434ZM304.911 169.72H311.216V182.994H304.911V169.72ZM317.509 168.531H323.813V182.994H317.509V168.531ZM330.106 173.319H336.411V182.994H330.106V173.319ZM342.703 169.72H349.008V182.994H342.703V169.72ZM355.3 160.722H361.605V182.994H355.3V160.722ZM367.897 155.773H374.202V182.994H367.897V155.773ZM380.494 155.773H386.799V182.994H380.494V155.773ZM393.091 154.923H399.396V182.994H393.091V154.923Z" fill="white"/>
<path d="M289.04 183.965V141.365H287.498V185.508H406.17V183.965H289.04Z" fill="white"/>
<path d="M403.406 148.825L390.525 145.975L390.683 148.133L361.605 151.8L337.05 169.602L312.294 162.821L292.314 177.433L312.294 165.221L337.2 173.169L362.232 155.773L390.974 152.858L391.125 155.373L403.406 148.825Z" fill="white"/>
<path d="M500.734 107.246L457.909 113.267L454.644 113.726L393.635 122.302L326.271 81.2868L323.306 79.4813L301.258 66.0577L408.357 51L454.644 79.1828L457.909 81.1699L500.734 107.246Z" fill="url(#paint24_linear_293_359)"/>
<path d="M500.737 107.246L457.911 113.267L454.647 113.726L393.638 122.303L326.274 81.2868L323.309 79.4813C393.351 93.2945 408.36 51 408.36 51L454.647 79.1832L457.911 81.1703L500.737 107.246Z" fill="url(#paint25_linear_293_359)"/>
<path d="M445.982 103.945L434.901 157.615C407.931 128.796 344.44 127.475 344.01 127.466L352.436 86.6514L352.837 84.7107C366.493 82.53 383.308 82.9995 400.995 86.6514C418.681 90.3025 434.308 96.532 445.982 103.945Z" fill="url(#paint26_linear_293_359)"/>
<path opacity="0.25" d="M434.904 157.615C444.413 83.04 352.439 86.6511 352.439 86.6511L352.84 84.7104C366.496 82.5297 383.312 82.9993 400.998 86.6511C418.684 90.3026 434.312 96.5321 445.985 103.945L434.904 157.615Z" fill="url(#paint27_linear_293_359)"/>
<path d="M457.911 81.1614V123.531H454.646V79.1828H455.933C456.458 79.1829 456.961 79.3914 457.332 79.7624C457.703 80.1335 457.911 80.6367 457.911 81.1614Z" fill="url(#paint28_linear_293_359)"/>
<path d="M461.856 131.865L461.751 141.332C460.015 142.049 458.155 142.416 456.278 142.413C454.268 142.417 452.28 141.995 450.445 141.176L450.55 131.739C450.562 130.717 450.843 129.761 451.329 128.94C452.321 127.25 454.166 126.124 456.266 126.148C459.388 126.183 461.891 128.743 461.856 131.865Z" fill="url(#paint29_linear_293_359)"/>
<path opacity="0.5" d="M461.855 131.865L461.784 138.143C461.714 137.964 461.639 137.786 461.559 137.61C460.357 134.956 458.153 132.77 455.488 131.592C454.473 131.143 453.385 130.829 452.475 130.196C452.011 129.872 451.596 129.435 451.326 128.94C452.319 127.251 454.164 126.125 456.264 126.148C459.386 126.183 461.89 128.743 461.855 131.865Z" fill="#FAA339"/>
<path d="M459.274 128.598C461.201 126.952 461.428 124.056 459.782 122.13C458.137 120.204 455.241 119.976 453.314 121.622C451.388 123.268 451.16 126.164 452.806 128.09C454.452 130.016 457.348 130.244 459.274 128.598Z" fill="url(#paint30_linear_293_359)"/>
<path d="M200.001 88.7019C199.096 89.1259 198.032 89.138 197.073 88.8572C196.115 88.5765 195.254 88.0194 194.506 87.357C194.904 86.8023 195.245 86.2087 195.524 85.5854C195.575 85.472 195.624 85.3558 195.67 85.24C195.869 84.7459 196.018 84.2333 196.115 83.7096C197.974 83.1759 199.677 82.2784 201.122 80.9916C200.948 82.3914 201.038 83.8114 201.388 85.1779C201.389 85.1861 201.391 85.1942 201.394 85.2017C201.503 85.6293 201.639 86.0497 201.799 86.4599C202.161 87.3913 200.905 88.278 200.001 88.7019Z" fill="url(#paint31_linear_293_359)"/>
<path d="M201.417 85.1881C201.411 85.1934 201.403 85.1974 201.396 85.2014C200.879 85.5434 200.307 85.7928 199.704 85.9384C199.632 85.9549 199.561 85.9702 199.489 85.9839C199.243 86.0319 198.996 86.0622 198.746 86.0735C197.792 86.1134 196.844 85.8929 196.005 85.4358C195.891 85.3753 195.781 85.3091 195.672 85.2393C195.871 84.7453 196.02 84.2326 196.118 83.709C197.976 83.1753 199.679 82.2778 201.124 80.9911C200.95 82.3908 201.04 83.8108 201.39 85.1772C201.399 85.1813 201.408 85.1845 201.417 85.1881Z" fill="#FF808F"/>
<path d="M194.897 74.9088C194.658 76.2431 194.906 77.6188 195.597 78.7852C196.035 77.5489 195.717 75.9326 194.897 74.9088Z" fill="#4A1C40"/>
<path d="M201.316 80.3276C201.307 80.4051 201.297 80.4829 201.287 80.5608C201.094 81.9508 200.687 83.3788 199.709 84.3853C198.839 85.28 197.523 85.7532 196.3 85.5116C195.076 85.2699 194.008 84.274 193.78 83.0469C193.626 82.2199 193.839 81.3667 194.147 80.585C194.455 79.8028 194.86 79.0586 195.121 78.259C195.38 77.4583 195.566 76.3591 195.263 75.5745L195.362 75.5144C197.157 74.4357 199.204 74.1888 201.111 75.0723C201.463 76.8015 201.532 78.5763 201.316 80.3276Z" fill="url(#paint32_linear_293_359)"/>
<path d="M201.367 79.4336C200.75 79.0125 200.409 78.2727 200.304 77.5325C200.199 76.7922 200.302 76.0403 200.404 75.2997C199.475 75.6781 198.532 76.0218 197.531 76.0791C196.531 76.1367 195.495 75.9375 194.659 75.384C193.824 74.8306 193.216 73.8951 193.187 72.8935C193.157 71.8915 193.775 70.8673 194.723 70.5421C195.678 70.2142 196.725 70.6047 197.615 71.0843C198.504 71.5639 199.382 72.1517 200.388 72.2469C200.91 72.2965 201.471 72.2158 201.931 72.4687C202.569 72.8197 202.737 73.6551 202.746 74.3828C202.77 76.1428 202.325 77.9568 201.367 79.4336Z" fill="url(#paint33_linear_293_359)"/>
<path d="M201.23 79.0557C201.205 78.7415 201.288 78.4281 201.466 78.1683L201.47 78.163C201.593 77.9896 201.769 77.8436 201.977 77.8004C202.357 77.7222 202.738 78.0166 202.877 78.3792C203.016 78.7415 202.967 79.1472 202.882 79.526C202.817 79.8184 202.731 80.1105 202.574 80.365C202.417 80.6199 202.181 80.8361 201.893 80.9192C201.606 81.0019 201.266 80.9313 201.07 80.7042C201.18 80.1395 201.271 79.6107 201.23 79.0557Z" fill="url(#paint34_linear_293_359)"/>
<path d="M190.723 159.445C191.425 161.774 191.155 164.38 189.992 166.516C188.828 168.653 186.785 170.293 184.447 170.967C183.019 171.379 181.212 171.31 180.374 170.082C179.657 169.032 179.979 167.567 180.662 166.495C181.347 165.422 182.339 164.58 183.069 163.539C183.799 162.498 184.247 161.095 183.673 159.96C185.843 159.088 188.422 159.031 190.723 159.445ZM209.094 158.01C210.216 160.169 210.433 162.78 209.685 165.095C208.938 167.41 207.234 169.4 205.061 170.495C203.733 171.165 201.946 171.432 200.895 170.38C199.996 169.481 200.04 167.981 200.514 166.801C200.988 165.621 201.807 164.61 202.332 163.451C202.856 162.292 203.037 160.831 202.263 159.822C204.233 158.564 206.756 158.03 209.094 158.01Z" fill="url(#paint35_linear_293_359)"/>
<path d="M204.796 157.395C204.696 157.854 204.594 158.32 204.488 158.792C205.257 159.078 206.054 159.277 206.867 159.387C207.602 159.49 208.357 159.526 209.105 159.491L208.877 158.922C209.002 158.882 209.125 158.837 209.247 158.792C208.208 154.135 207.423 150.151 206.867 146.321C206.369 149.763 205.685 153.329 204.796 157.395Z" fill="url(#paint36_linear_293_359)"/>
<path d="M176.08 134.261C176.456 137.035 176.896 139.8 177.398 142.554C179.005 151.394 180.481 151.924 183.345 160.438C185.536 161.315 188.298 161.371 190.649 160.728C191.013 160.629 191.372 160.512 191.723 160.375C188.713 147.56 188.345 142.4 188.576 129.237C190.487 128.781 192.417 128.412 194.361 128.13C194.262 130.093 194.49 132.105 194.757 134.057C195.133 136.832 195.572 139.598 196.075 142.352C197.682 151.19 199.157 151.722 202.022 160.236C202.152 160.287 202.284 160.336 202.419 160.382C204.107 160.967 206.085 161.096 207.936 160.817C208.778 160.694 209.604 160.478 210.399 160.173C209.268 155.351 208.409 151.227 207.788 147.257C206.763 140.675 207.108 137.245 207.253 129.034C215.594 125.694 211.453 115.13 211.453 115.13C210.468 114.675 209.466 114.253 208.468 113.828C208.463 113.827 208.458 113.824 208.453 113.823C208.339 113.825 208.225 113.828 208.109 113.83C207.993 113.832 207.878 113.832 207.763 113.83C207.759 113.833 207.755 113.836 207.75 113.837C204.808 113.882 201.769 113.823 198.769 113.809C195.531 113.894 192.247 114.034 189.088 114.034C186.553 115.172 184.003 116.32 181.738 117.929C179.475 119.536 177.49 121.654 176.492 124.247C175.279 127.399 175.625 130.913 176.08 134.261Z" fill="url(#paint37_linear_293_359)"/>
<path d="M180.764 99.9053C180.764 99.9053 178.302 114.418 185.829 111.744L187.299 98.4713L180.764 99.9053Z" fill="url(#paint38_linear_293_359)"/>
<path d="M218.582 100.109C218.582 100.109 216.259 101.695 212.553 101.574C211.692 108.998 211.329 115.036 211.293 115.197L211.292 115.2C207.463 116.771 202.438 117.558 198.398 117.558C194.359 117.558 190.319 116.771 186.49 115.2C186.49 115.2 184.958 108.101 184.327 100.257C182.109 100.3 180.764 99.9049 180.764 99.9049C180.396 89.178 185.236 87.5366 187.488 87.353C188.585 87.2627 189.674 87.0944 190.756 86.8919C191.747 86.7054 192.747 86.5718 193.752 86.4918L193.931 86.4777C194.049 86.4684 194.158 86.4635 194.258 86.4575C194.352 86.4527 194.437 86.4482 194.513 86.445C194.823 86.4325 194.993 86.4341 194.993 86.4341L198.398 87.3155L201.802 86.4341C202.13 86.4578 202.459 86.4707 202.788 86.4728C202.819 86.4744 202.852 86.4761 202.884 86.4789L202.957 86.4837C203.982 86.5583 205.623 86.7483 207.61 87.2264C208.687 87.4849 209.776 87.6983 210.869 87.8835C213.25 88.2853 218.325 90.2953 218.582 100.109Z" fill="url(#paint39_linear_293_359)"/>
<path d="M200.749 101.632C200.864 102.366 201.064 103.196 201.372 104.103C201.635 104.875 201.956 105.625 202.332 106.349C202.443 106.566 202.563 106.785 202.69 107.007C202.986 107.514 203.311 108.036 203.699 108.55C203.886 108.81 204.105 109.069 204.322 109.333C204.435 109.464 204.555 109.592 204.675 109.721C204.741 109.792 204.851 109.908 204.917 109.979L205.036 110.097C205.551 110.626 206.108 111.111 206.703 111.548C207.335 112.019 208.006 112.433 208.71 112.785C209.435 113.146 210.207 113.473 211.024 113.722C211.862 113.98 212.722 114.163 213.593 114.268C214.482 114.375 215.38 114.148 216.111 113.63C216.841 113.113 217.354 112.342 217.549 111.468L217.701 110.783L217.877 110C217.905 109.869 217.933 109.737 217.962 109.604C217.977 109.528 217.994 109.453 218.009 109.377C218.022 109.32 218.034 109.265 218.045 109.208C218.342 107.725 218.538 106.224 218.632 104.714C218.695 103.603 218.718 102.516 218.674 101.468C218.661 101.142 218.641 100.815 218.613 100.49C218.605 100.362 218.595 100.235 218.583 100.107C218.583 100.107 214.783 102.706 209.142 101C209.157 101.117 209.17 101.234 209.179 101.354C209.205 101.622 209.233 101.893 209.265 102.168C209.302 102.443 209.318 102.722 209.35 103.004C209.381 103.284 209.418 103.569 209.44 103.858C209.466 104.146 209.494 104.437 209.521 104.732C209.542 105.054 209.563 105.381 209.584 105.709C209.318 105.605 209.056 105.488 208.801 105.358L208.658 105.285L208.519 105.203C208.427 105.148 208.333 105.098 208.242 105.042C208.062 104.925 207.88 104.818 207.703 104.687C207.342 104.439 207.006 104.165 206.678 103.89C206.033 103.328 205.466 102.728 204.962 102.148C204.459 101.564 204.033 100.996 203.65 100.482C203.556 100.353 203.465 100.228 203.376 100.108C203.29 99.9859 203.205 99.8673 203.123 99.7531C202.953 99.528 202.809 99.3154 202.661 99.1275C202.374 98.7467 202.118 98.4494 201.891 98.2549C201.662 98.0637 201.454 97.9774 201.27 98.0161C201.087 98.0577 200.937 98.2227 200.823 98.5123C200.706 98.8019 200.637 99.2122 200.617 99.7346C200.596 100.26 200.632 100.897 200.749 101.632Z" fill="url(#paint40_linear_293_359)"/>
<path d="M202.334 106.349C202.445 106.566 202.565 106.785 202.691 107.007C202.987 107.514 203.313 108.036 203.701 108.55C203.887 108.81 204.106 109.069 204.324 109.333C204.436 109.464 204.557 109.592 204.677 109.721C204.743 109.792 204.853 109.908 204.919 109.979L205.037 110.097C205.552 110.626 206.11 111.111 206.705 111.548C207.336 112.019 208.008 112.433 208.712 112.785C209.436 113.146 210.209 113.473 211.025 113.723C211.864 113.98 212.724 114.163 213.595 114.268C214.484 114.375 215.381 114.148 216.112 113.63C216.843 113.113 217.356 112.342 217.55 111.468L217.703 110.783L217.879 110C217.906 109.869 217.934 109.737 217.963 109.604C217.979 109.528 217.996 109.453 218.011 109.377C217.528 110.021 216.943 110.579 216.248 110.984C214.313 112.109 211.864 111.873 209.737 111.179C206.902 110.255 204.33 108.561 202.334 106.349Z" fill="#FFAEB8"/>
<g opacity="0.25">
<path d="M190.252 160.478L190.646 160.727C191.01 160.629 191.369 160.511 191.72 160.374C188.71 147.559 188.342 142.399 188.573 129.236C190.484 128.781 192.414 128.412 194.358 128.13C194.469 128.135 194.585 127.553 194.872 126.657C195.161 125.767 195.629 124.548 196.482 123.441C196.88 122.921 197.343 122.455 197.86 122.055C198.336 121.683 198.814 121.409 199.226 121.194C200.061 120.783 200.633 120.599 200.607 120.48C200.591 120.384 199.968 120.368 199.01 120.672C198.752 120.761 198.47 120.873 198.178 121.019C197.944 121.066 190.407 122.633 185.608 125.928C185.608 125.929 183.086 141.838 190.252 160.478Z" fill="url(#paint41_linear_293_359)"/>
</g>
<path d="M202.786 86.4728C202.554 87.3151 202.199 88.1001 201.715 88.7665C200.478 90.4652 198.351 91.2018 196.678 90.2348C195.667 89.6479 194.887 88.4829 194.61 87.1457C194.561 86.9153 194.529 86.6818 194.512 86.445C194.822 86.4325 194.991 86.4341 194.991 86.4341L198.397 87.3155L201.801 86.4341C202.129 86.4578 202.457 86.4707 202.786 86.4728Z" fill="url(#paint42_linear_293_359)"/>
<path d="M183.428 93.7045L183.336 92.2987C183.336 92.2987 187.885 90.988 190.313 93.934C190.313 93.934 193.906 90.4427 199.346 91.1631L199.914 92.4165C199.914 92.4165 191.849 98.4124 183.428 93.7045Z" fill="#FCEDEA"/>
<path d="M201.365 108.761C196.923 108.553 194.148 109.408 192.741 110.04C192.429 110.179 192.088 110.242 191.747 110.222C191.407 110.203 191.075 110.102 190.781 109.928C189.817 109.359 187.828 108.774 183.936 109.437L182.898 93.4951C187.614 92.6899 189.535 93.721 190.226 94.3329C190.722 93.9546 193.966 91.6875 200.273 91.9848L201.365 108.761Z" fill="url(#paint43_linear_293_359)"/>
<path d="M202.985 101.546C203.437 100.489 203.075 99.1758 202.223 98.4033C201.372 97.6305 200.112 97.3853 198.993 97.6535C198.45 97.7838 197.907 98.0496 197.611 98.5227C197.277 99.0572 197.321 99.7356 197.376 100.363C197.447 101.166 197.555 102.046 198.143 102.597C198.582 103.008 199.22 103.15 199.821 103.111C200.421 103.072 200.997 102.871 201.565 102.671C202.061 102.497 202.778 102.03 202.985 101.546Z" fill="url(#paint44_linear_293_359)"/>
<path d="M192.091 110.214C191.635 110.26 191.176 110.16 190.781 109.928C189.817 109.359 187.828 108.774 183.936 109.437L182.898 93.4954C187.614 92.6902 189.535 93.7213 190.226 94.3332L192.091 110.214Z" fill="#4C1A41"/>
<path d="M181.121 102.24C180.535 101.261 180.495 99.9697 180.946 99.1574C181.398 98.345 182.277 98.0062 183.172 98.1719C183.606 98.2526 184.073 98.4632 184.405 98.894C184.779 99.38 184.907 100.035 185.013 100.643C185.15 101.421 185.278 102.275 184.969 102.852C184.74 103.283 184.299 103.472 183.843 103.483C183.387 103.495 182.912 103.349 182.443 103.204C182.033 103.077 181.389 102.687 181.121 102.24Z" fill="url(#paint45_linear_293_359)"/>
<path d="M568.079 346.519C568.079 346.6 567.182 346.681 565.455 346.757C564.837 346.785 564.112 346.812 563.283 346.839C562.14 346.877 560.801 346.913 559.269 346.949C558.224 346.974 557.084 346.998 555.863 347.021L555.702 347.025C555.642 347.025 555.584 347.025 555.526 347.028C555.003 347.038 554.466 347.049 553.915 347.059C552.517 347.087 551.025 347.112 549.442 347.137C549.227 347.14 549.009 347.144 548.791 347.146C548.678 347.148 548.565 347.15 548.454 347.152C548.06 347.158 547.662 347.163 547.255 347.171C546.964 347.176 546.665 347.178 546.369 347.183C545.765 347.192 545.151 347.201 544.526 347.208C543.523 347.22 542.492 347.234 541.431 347.247L541.025 347.251C540.544 347.257 540.061 347.263 539.569 347.269C539.515 347.269 539.46 347.269 539.406 347.27C539.35 347.27 539.296 347.273 539.237 347.273C538.193 347.286 537.119 347.301 536.022 347.315C535.847 347.315 535.673 347.318 535.495 347.321C535.287 347.321 535.079 347.324 534.867 347.325C534.219 347.33 533.563 347.337 532.901 347.346C531.43 347.364 529.918 347.378 528.369 347.395C524.645 347.428 520.697 347.466 516.535 347.499C512.091 347.535 507.406 347.57 502.493 347.603C501.737 347.608 500.98 347.612 500.212 347.619C478.361 347.762 452.245 347.869 423.409 347.936C416.341 347.952 409.113 347.966 401.745 347.974C400.556 347.975 399.366 347.978 398.17 347.978L395.479 347.982C393.834 347.985 392.179 347.988 390.518 347.988C384.872 347.992 379.152 347.996 373.368 347.997C371.33 347.998 369.281 348 367.226 348H354.559C346.123 347.999 337.82 347.992 329.67 347.988C325.364 347.981 321.1 347.976 316.884 347.968C305.999 347.952 295.432 347.929 285.267 347.897C283.548 347.893 281.837 347.887 280.145 347.883L276.606 347.871C274.683 347.865 272.779 347.858 270.89 347.853C268.966 347.844 267.06 347.837 265.172 347.831C254.583 347.79 244.541 347.744 235.143 347.69C233.725 347.683 232.327 347.674 230.937 347.668C230.257 347.662 229.576 347.658 228.895 347.655C225.428 347.636 222.064 347.612 218.799 347.593C216.169 347.57 213.599 347.553 211.102 347.534C210.594 347.528 210.088 347.526 209.583 347.522H209.466C209.286 347.519 209.106 347.519 208.927 347.518C204.891 347.484 201.046 347.451 197.399 347.419C194.296 347.387 191.342 347.36 188.541 347.328C187.719 347.322 186.907 347.309 186.11 347.301C185.516 347.294 184.929 347.287 184.35 347.281C184.078 347.277 183.809 347.274 183.541 347.272C183.223 347.266 182.907 347.265 182.595 347.26C182.43 347.259 182.265 347.255 182.099 347.255C181.713 347.249 181.329 347.245 180.949 347.239L180.561 347.235C180.347 347.229 180.133 347.226 179.919 347.224C179.372 347.218 178.834 347.209 178.304 347.205H178.283C178.246 347.203 178.207 347.203 178.169 347.203C177.984 347.199 177.802 347.199 177.62 347.195C177.26 347.191 176.903 347.184 176.552 347.18C176.224 347.174 175.899 347.173 175.577 347.167C175.421 347.164 175.265 347.161 175.109 347.157C174.363 347.148 173.632 347.135 172.922 347.124C172.154 347.113 171.409 347.1 170.687 347.086C169.757 347.07 168.826 347.054 167.896 347.036C167.747 347.035 167.597 347.032 167.451 347.029C159.453 346.872 155.09 346.698 155.09 346.52C155.09 346.349 159.158 346.182 166.646 346.03C166.782 346.029 166.916 346.026 167.054 346.023C167.742 346.008 168.456 345.994 169.198 345.981C170.126 345.963 171.054 345.947 171.983 345.932C172.891 345.92 173.834 345.903 174.807 345.886C175.187 345.878 175.573 345.877 175.963 345.869C176.004 345.869 176.046 345.867 176.089 345.867C176.387 345.864 176.695 345.858 176.998 345.854C177.257 345.854 177.516 345.85 177.778 345.843H177.785C177.992 345.841 178.197 345.839 178.407 345.836L178.68 345.832L178.893 345.828C178.961 345.827 179.031 345.827 179.1 345.825C179.338 345.824 179.575 345.821 179.816 345.819C179.912 345.818 180.006 345.815 180.104 345.815C180.507 345.81 180.911 345.803 181.314 345.794H181.315C182.413 345.785 183.54 345.772 184.698 345.754H184.818C184.834 345.751 184.848 345.751 184.864 345.751C186.306 345.737 187.798 345.719 189.332 345.705C191.94 345.673 194.676 345.645 197.54 345.619C200.514 345.593 203.628 345.564 206.865 345.538C207.947 345.53 209.043 345.524 210.156 345.513C212.083 345.498 214.054 345.481 216.06 345.47C219.705 345.442 223.486 345.418 227.39 345.392C228.438 345.385 229.495 345.381 230.559 345.373C232.244 345.366 233.948 345.356 235.676 345.346C244.666 345.296 254.243 345.253 264.318 345.211C264.825 345.208 265.332 345.207 265.839 345.207C266.056 345.206 266.272 345.206 266.489 345.204C266.844 345.203 267.196 345.203 267.551 345.201C270.407 345.189 273.303 345.179 276.236 345.169L279.826 345.157C281.179 345.153 282.54 345.15 283.906 345.144C294.756 345.117 306.061 345.09 317.736 345.071C321.915 345.065 326.144 345.059 330.416 345.055C338.473 345.046 346.684 345.039 355.019 345.039H368.213C369.818 345.039 371.417 345.04 373.011 345.04C381.482 345.044 389.815 345.051 397.984 345.059C399.175 345.061 400.368 345.065 401.552 345.065C408.895 345.076 416.1 345.09 423.143 345.107C451.934 345.169 478.019 345.279 499.874 345.42C500.456 345.422 501.034 345.428 501.606 345.431C507.27 345.467 512.642 345.507 517.691 345.551C522.183 345.585 526.423 345.629 530.387 345.666C531.915 345.683 533.402 345.698 534.844 345.715H534.884C535.667 345.725 536.44 345.733 537.197 345.741C537.313 345.744 537.425 345.744 537.541 345.744C538.599 345.759 539.656 345.771 540.714 345.782C540.738 345.785 540.763 345.785 540.786 345.785C541.087 345.786 541.383 345.793 541.675 345.794C542.003 345.798 542.329 345.803 542.652 345.806C543.52 345.819 544.368 345.832 545.197 345.843C546.116 345.854 547.01 345.867 547.876 345.881C547.965 345.881 548.058 345.882 548.148 345.885C548.565 345.889 548.979 345.897 549.387 345.904C549.533 345.905 549.678 345.907 549.821 345.91H549.892C551.25 345.932 552.538 345.954 553.751 345.977C553.928 345.981 554.108 345.983 554.283 345.988C554.955 346 555.605 346.013 556.233 346.025C556.414 346.029 556.594 346.032 556.771 346.037C557.769 346.058 558.702 346.079 559.576 346.099C561.081 346.134 562.396 346.172 563.515 346.209C564.008 346.226 564.463 346.243 564.879 346.259C566.982 346.343 568.079 346.432 568.079 346.519Z" fill="white" fill-opacity="0.16"/>
<path d="M386.597 241.076C386.741 242.262 386.278 243.481 386.546 244.644C386.926 246.291 388.605 247.275 389.473 248.725C390.53 250.49 390.226 252.879 388.98 254.515C387.734 256.151 385.686 257.062 383.635 257.21C381.584 257.357 379.532 256.803 377.666 255.937C376.798 255.534 375.947 255.053 375.284 254.363C374.621 253.672 374.159 252.745 374.193 251.788C374.254 250.127 375.74 248.761 375.751 247.099C375.759 245.813 374.885 244.709 374.474 243.492C373.861 241.681 374.36 239.542 375.711 238.189C378.671 235.224 386.024 236.377 386.597 241.076Z" fill="url(#paint46_linear_293_359)"/>
<path d="M345.052 239.663C345.223 239.881 345.421 240.118 345.641 240.37C345.877 240.631 346.119 240.886 346.366 241.137L346.386 241.158C346.939 241.717 347.564 242.348 348.301 242.987C348.673 243.317 349.065 243.66 349.469 244.008C349.779 244.274 350.105 244.532 350.45 244.807C350.556 244.891 350.662 244.975 350.77 245.061L351.533 245.661C351.627 245.735 351.723 245.81 351.82 245.882L352.19 246.153C352.711 246.535 353.232 246.911 353.739 247.271C353.951 247.425 354.166 247.567 354.394 247.718L354.555 247.826C354.834 248.009 355.117 248.196 355.403 248.385L356.273 248.95L357.174 249.496C357.479 249.677 357.788 249.861 358.099 250.049L358.568 250.326C358.679 250.389 358.794 250.452 358.908 250.515L359.042 250.588C359.696 250.948 360.353 251.302 361.011 251.653C361.694 251.992 362.37 252.324 363.017 252.636L363.172 252.711C363.284 252.766 363.396 252.819 363.508 252.871L364.006 253.092L365.029 253.536C365.345 253.672 365.659 253.805 365.969 253.938L366.932 254.311C367.249 254.431 367.567 254.551 367.884 254.67L368.091 254.746C368.339 254.839 368.572 254.925 368.81 255.002C369.405 255.199 370.017 255.396 370.632 255.587C370.727 255.617 370.822 255.645 370.915 255.674L371.074 255.724C371.183 255.755 371.295 255.785 371.406 255.816L371.506 255.843L372.365 256.071L372.619 256.135C373.097 256.257 373.548 256.372 373.993 256.464C374.515 256.57 375.029 256.668 375.518 256.753C376.51 256.938 377.412 257.02 378.167 257.076C378.509 257.097 378.818 257.114 379.109 257.118C379.16 257.119 379.21 257.119 379.258 257.119H379.261C379.572 257.115 379.883 257.1 380.193 257.073C381.647 256.939 381.884 256.576 381.918 256.425C381.953 256.275 381.901 255.841 380.694 255.05C380.441 254.885 380.182 254.73 379.917 254.585L379.902 254.577C379.734 254.48 379.564 254.385 379.393 254.293C379.259 254.22 379.119 254.146 378.975 254.073C378.496 253.822 377.957 253.575 377.386 253.313C377.146 253.204 376.901 253.09 376.649 252.972C376.2 252.77 375.749 252.573 375.294 252.384C375.076 252.292 374.856 252.195 374.632 252.097C374.363 251.977 374.092 251.861 373.821 251.747L373.043 251.425C372.948 251.386 372.852 251.347 372.757 251.309L372.644 251.262C372.544 251.219 372.449 251.178 372.353 251.135L372.237 251.086C371.683 250.848 371.127 250.616 370.569 250.389C370.376 250.314 370.186 250.234 369.997 250.15C369.898 250.108 369.799 250.064 369.698 250.021L369.527 249.949L369.421 249.903L368.812 249.646L368.774 249.631C368.489 249.513 368.2 249.394 367.907 249.272C367.907 249.272 367.163 248.947 366.984 248.868C366.676 248.737 366.363 248.604 366.047 248.469C365.892 248.402 365.733 248.337 365.573 248.27L365.239 248.121L365.093 248.054C364.477 247.78 363.825 247.493 363.157 247.205C362.515 246.907 361.87 246.612 361.224 246.322L360.749 246.108L360.276 245.883L359.354 245.448L358.441 245.024L357.552 244.586L356.68 244.166C356.586 244.12 356.491 244.075 356.397 244.03C356.208 243.939 356.011 243.846 355.822 243.747C355.297 243.48 354.75 243.206 354.194 242.931C354.194 242.931 353.883 242.778 353.798 242.737L353.406 242.533C353.152 242.402 352.9 242.271 352.652 242.143C352.428 242.026 352.206 241.914 351.988 241.804C351.717 241.667 351.462 241.539 351.209 241.406C350.77 241.171 350.329 240.941 349.886 240.714C349.485 240.513 349.086 240.308 348.69 240.1C348.299 239.897 347.932 239.704 347.583 239.534C347.333 239.409 347.081 239.287 346.828 239.168L346.618 239.069C346.348 238.935 346.076 238.808 345.8 238.687C344.955 238.32 344.553 238.242 344.364 238.242C344.267 238.242 344.238 238.263 344.238 238.263C344.236 238.27 344.146 238.517 345.052 239.663Z" fill="url(#paint47_linear_293_359)"/>
<path d="M359.514 250.848C360.022 251.124 360.523 251.394 361.009 251.653C361.691 251.992 362.367 252.324 363.014 252.636L363.169 252.711C363.281 252.765 363.393 252.819 363.506 252.871L364.003 253.091L365.026 253.536C365.342 253.672 365.656 253.805 365.966 253.938L366.93 254.31C367.247 254.431 367.564 254.551 367.881 254.67L368.088 254.746C368.336 254.839 368.569 254.925 368.807 255.002C369.402 255.199 370.015 255.396 370.629 255.587C370.725 255.617 370.819 255.645 370.913 255.674L371.072 255.724C371.18 255.755 371.292 255.785 371.403 255.816L371.504 255.843L372.362 256.07L372.617 256.135C373.094 256.257 373.545 256.372 373.99 256.464C374.512 256.57 375.026 256.668 375.515 256.753C376.507 256.938 377.41 257.02 378.164 257.076C378.506 257.097 378.815 257.114 379.106 257.118C379.157 257.119 379.207 257.119 379.255 257.119H379.258C379.569 257.115 379.88 257.1 380.19 257.073C381.644 256.939 381.881 256.576 381.915 256.425C381.95 256.275 381.899 255.841 380.691 255.049C380.438 254.885 380.179 254.73 379.915 254.585L379.899 254.577C379.731 254.48 379.561 254.385 379.39 254.293C379.256 254.22 379.116 254.146 378.972 254.072C378.494 253.822 377.954 253.575 377.383 253.313C377.143 253.204 376.899 253.09 376.646 252.972C376.197 252.77 375.746 252.573 375.291 252.384C375.073 252.291 374.853 252.195 374.629 252.097C374.36 251.977 374.09 251.861 373.818 251.747L373.04 251.425C372.945 251.386 372.85 251.347 372.754 251.308L372.641 251.262C372.542 251.218 372.446 251.178 372.35 251.135L372.235 251.086C371.681 250.848 371.124 250.616 370.566 250.389C370.374 250.313 370.183 250.234 369.995 250.149C369.895 250.108 369.796 250.064 369.696 250.021L369.524 249.949L369.418 249.903L368.809 249.646L368.771 249.631C368.203 250.438 365.66 253.306 359.514 250.848Z" fill="#FF94A0"/>
<path d="M367.211 255.018C367.407 255.092 367.601 255.165 367.795 255.239C368.11 255.355 368.42 255.474 368.733 255.574C369.355 255.781 369.964 255.976 370.557 256.16C370.705 256.207 370.852 256.251 371 256.297C371.146 256.34 371.293 256.379 371.439 256.418L372.3 256.646C372.865 256.789 373.409 256.933 373.941 257.043C374.472 257.151 374.983 257.248 375.473 257.334C376.449 257.516 377.351 257.6 378.144 257.658C378.482 257.679 378.801 257.698 379.101 257.701C379.168 257.528 379.226 257.351 379.276 257.173C379.527 256.284 379.593 255.005 379.498 254.087C379.358 254.011 379.218 253.937 379.077 253.864C378.393 253.509 377.604 253.163 376.742 252.76C376.29 252.556 375.836 252.358 375.378 252.167C374.904 251.967 374.416 251.743 373.904 251.53C373.649 251.425 373.389 251.316 373.125 251.208C372.994 251.153 372.86 251.099 372.726 251.044C372.593 250.986 372.459 250.929 372.323 250.87C371.768 250.632 371.21 250.399 370.649 250.172C370.361 250.06 370.076 249.929 369.783 249.806C369.691 249.767 369.6 249.727 369.506 249.688C368.361 251.134 367.568 253.209 367.211 255.018Z" fill="url(#paint48_linear_293_359)"/>
<path d="M394.256 339.933C394.521 340.898 393.91 341.913 393.11 342.514C392.31 343.114 391.335 343.426 390.452 343.895C389.568 344.364 388.717 345.079 388.519 346.059C391.685 346.654 395.004 346.709 398.129 345.924C398.389 344.027 397.877 341.093 397.198 339.303C396.106 338.965 395.399 339.945 394.256 339.933ZM366.432 340.578C366.689 341.44 366.16 342.365 365.453 342.922C364.746 343.478 363.876 343.778 363.091 344.218C362.306 344.658 361.555 345.318 361.396 346.204C364.257 346.675 366.943 346.657 369.738 345.887C369.932 344.176 369.413 341.547 368.765 339.952C367.776 339.67 367.46 340.565 366.432 340.578Z" fill="url(#paint49_linear_293_359)"/>
<path d="M365.914 342.114C367.112 342.014 368.234 341.93 369.432 341.828C368.234 325.482 369.787 308.938 373.974 293.091C377.311 310.131 384.054 326.472 393.794 340.891C395.257 340.505 396.649 339.892 397.921 339.073C391.683 323.769 387.311 307.77 384.899 291.421C384.87 291.225 384.841 291.028 384.813 290.832C384.286 287.2 383.789 283.526 382.367 280.147C382.029 279.345 381.633 278.569 381.181 277.825L378.829 273.588L377.352 273.622L375.018 273.677L370.07 273.79L369.603 275.316L368.045 280.395L368.04 280.413C361.644 300.248 361.027 321.836 365.914 342.114Z" fill="url(#paint50_linear_293_359)"/>
<path d="M375.846 255.47C376.746 256.113 377.834 256.439 378.94 256.395C380.036 256.35 380.975 255.881 381.805 255.168C381.694 254.396 381.623 253.618 381.593 252.839C381.586 252.66 381.581 252.482 381.576 252.301L381.579 252.286C381.56 251.15 381.625 250.014 381.774 248.887C381.781 248.833 381.788 248.778 381.798 248.725C381.798 248.723 381.798 248.718 381.8 248.716C381.831 248.453 381.874 248.198 381.919 247.936V247.934C382.074 247.054 382.28 246.184 382.534 245.328C381.03 245.867 379.533 246.48 378.339 247.538C378.276 248.076 378.194 248.612 378.093 249.145C378.077 249.233 378.06 249.319 378.041 249.402C377.979 249.712 377.91 250.02 377.836 250.327C377.829 250.351 377.824 250.377 377.817 250.401C377.76 250.634 377.698 250.865 377.631 251.095C377.584 251.267 377.533 251.437 377.479 251.607C377.476 251.614 377.474 251.621 377.471 251.631C377.056 252.961 376.511 254.246 375.846 255.47Z" fill="url(#paint51_linear_293_359)"/>
<path d="M388.831 263.641C388.831 263.641 387.738 265.189 383.211 263.44C382.86 263.923 382.509 264.406 382.177 264.896C380.399 267.546 379.346 270.538 378.832 273.59C377.313 273.99 375.633 274.203 373.865 274.191C372.541 274.182 371.267 274.049 370.075 273.803C370.074 273.801 370.074 273.794 370.071 273.79C370.065 273.756 370.054 273.721 370.048 273.686C370.038 273.648 370.027 273.6 370.014 273.546C369.673 272.018 368.085 264.076 370.486 258.338C370.486 258.338 372.259 254.388 375.675 253.037C375.735 253.009 375.796 252.988 375.859 252.965C376.239 252.888 376.626 252.846 377.017 252.834C378.425 252.791 379.637 252.431 381.044 252.513C381.461 252.54 381.881 252.593 382.288 252.683C382.288 252.683 382.288 252.684 382.291 252.686C382.293 252.687 382.296 252.687 382.298 252.688C382.614 252.804 388.978 255.255 388.831 263.641Z" fill="url(#paint52_linear_293_359)"/>
<path d="M382.285 252.684C381.476 254.272 380.14 255.59 378.538 256.369C378.041 256.611 377.511 256.805 376.959 256.824C376.408 256.844 375.831 256.67 375.453 256.269C374.917 255.701 374.89 254.794 375.178 254.068C375.338 253.664 375.58 253.302 375.855 252.965C376.234 252.89 376.622 252.845 377.014 252.834C378.426 252.791 379.634 252.43 381.041 252.514C381.459 252.54 381.878 252.595 382.285 252.684Z" fill="url(#paint53_linear_293_359)"/>
<path d="M369.435 341.829C365.184 327.501 371.428 291.982 371.428 291.982L373.977 293.091C369.79 308.938 368.236 325.482 369.435 341.829Z" fill="url(#paint54_linear_293_359)"/>
<path d="M377.537 251.406C378.151 251.337 378.75 251.17 379.31 250.91C380.332 250.431 381.195 249.67 381.796 248.715C381.827 248.453 381.87 248.198 381.915 247.936V247.933C382.07 247.054 382.276 246.184 382.53 245.328C381.026 245.866 379.529 246.479 378.335 247.538C378.273 248.076 378.191 248.612 378.09 249.144C378.073 249.232 378.056 249.318 378.037 249.401C377.975 249.711 377.907 250.019 377.832 250.326C377.825 250.35 377.82 250.376 377.813 250.4C377.757 250.633 377.695 250.864 377.627 251.094C377.599 251.198 377.568 251.303 377.537 251.406Z" fill="#FF9CA8"/>
<path d="M382.319 246.568C382.205 246.908 382.081 247.251 381.999 247.6C381.966 247.73 381.941 247.861 381.923 247.993L381.8 248.149C381.097 249.02 380.187 249.78 379.098 250.036C378.009 250.293 376.73 249.94 376.127 248.998C375.569 248.128 375.689 246.975 376.07 246.014C376.452 245.054 377.063 244.201 377.48 243.255C377.691 242.779 377.847 242.258 377.893 241.738C377.932 241.314 377.895 240.891 377.751 240.497C378.087 240.868 378.505 241.176 378.935 241.435C379.676 241.881 380.482 242.221 381.183 242.727C381.886 243.233 382.496 243.954 382.605 244.813C382.68 245.406 382.51 246 382.319 246.568Z" fill="url(#paint55_linear_293_359)"/>
<path d="M382.337 246.013C382.41 245.807 382.536 245.581 382.752 245.547C382.965 245.514 383.156 245.688 383.264 245.876C383.542 246.356 383.484 247.007 383.127 247.432C382.77 247.856 382.138 248.024 381.617 247.833C381.822 247.23 382.126 246.614 382.337 246.013Z" fill="url(#paint56_linear_293_359)"/>
<path d="M381.871 247.8C381.869 247.868 381.881 247.936 381.906 248C381.931 248.063 381.968 248.121 382.016 248.17C382.063 248.219 382.12 248.258 382.183 248.285C382.246 248.312 382.314 248.325 382.382 248.325C382.45 248.325 382.518 248.312 382.581 248.285C382.644 248.258 382.701 248.219 382.749 248.17C382.796 248.121 382.834 248.063 382.858 248C382.883 247.936 382.895 247.868 382.893 247.8C382.889 247.667 382.834 247.54 382.738 247.448C382.643 247.355 382.515 247.303 382.382 247.303C382.249 247.303 382.121 247.355 382.026 247.448C381.931 247.54 381.875 247.667 381.871 247.8Z" fill="white"/>
<path d="M346.486 239.157C346.356 238.621 345.983 238.143 345.534 237.768C345.086 237.392 344.563 237.108 344.045 236.826L341.224 235.293C341.024 235.184 340.816 235.073 340.592 235.052C340.368 235.031 340.123 235.127 340.063 235.324C340.02 235.463 340.079 235.622 340.179 235.743C340.279 235.864 340.417 235.953 340.553 236.036C340.843 236.213 341.145 236.376 341.408 236.586C341.672 236.797 341.9 237.065 341.983 237.373C342.085 237.749 341.961 238.132 342.012 238.513C342.099 239.168 342.704 239.716 343.369 239.975C344.035 240.235 344.758 240.262 345.462 240.287C345.79 239.918 346.158 239.526 346.486 239.157ZM389.19 271.751C389.207 272.045 389.157 272.339 389.043 272.612C388.929 272.884 388.755 273.126 388.533 273.321C387.789 273.973 387.058 274.602 386.354 275.206C385.646 275.807 384.967 276.388 384.319 276.938C383.705 277.456 383.088 277.97 382.467 278.478C381.927 278.921 381.381 279.357 380.829 279.785C380.416 280.103 379.997 280.413 379.571 280.714C379.534 280.686 379.494 280.657 379.456 280.627C379.124 280.364 378.821 280.065 378.553 279.738C378.38 279.523 378.221 279.297 378.079 279.061C378.232 278.838 378.398 278.604 378.578 278.358C378.688 278.208 378.803 278.053 378.922 277.896C379.343 277.339 379.772 276.788 380.208 276.243C380.711 275.617 381.217 274.993 381.728 274.373C382.271 273.719 382.842 273.032 383.436 272.319C383.773 271.917 384.118 271.506 384.47 271.089C384.448 270.983 384.427 270.876 384.404 270.768L384.107 269.223C384.014 268.713 383.924 268.212 383.834 267.719C383.665 266.732 383.51 265.78 383.387 264.868C383.353 264.625 383.321 264.382 383.291 264.138C383.261 263.903 383.234 263.669 383.208 263.439C386.515 264.717 387.991 264.235 388.544 263.883C388.557 263.988 388.571 264.093 388.583 264.198C388.696 265.11 388.79 266.071 388.876 267.069C388.895 267.322 388.915 267.579 388.936 267.837L388.994 268.592C389.029 269.108 389.063 269.632 389.099 270.162L389.171 271.428L389.19 271.751Z" fill="url(#paint57_linear_293_359)"/>
<path d="M381.277 281.37C381.231 281.47 380.861 281.428 380.329 281.175C380.184 281.107 380.044 281.029 379.909 280.942C379.793 280.872 379.68 280.796 379.572 280.714C379.534 280.686 379.495 280.658 379.456 280.627C379.125 280.364 378.822 280.066 378.554 279.738C378.38 279.524 378.222 279.298 378.08 279.062C378.004 278.935 377.933 278.805 377.867 278.673C377.784 278.496 377.706 278.33 377.649 278.166C377.593 278.016 377.545 277.863 377.508 277.707C377.368 277.134 377.403 276.764 377.51 276.74C377.627 276.711 377.794 277.022 378.059 277.491C378.125 277.609 378.194 277.737 378.276 277.87C378.353 278.007 378.445 278.146 378.537 278.295C378.551 278.316 378.564 278.337 378.579 278.358C378.76 278.631 378.967 278.922 379.201 279.211C379.441 279.501 379.696 279.78 379.963 280.046L380.191 280.267C380.236 280.309 380.279 280.351 380.324 280.388C380.438 280.496 380.551 280.591 380.651 280.679C381.058 281.032 381.327 281.26 381.277 281.37Z" fill="#126984"/>
<path d="M388.936 267.837C387.438 266.118 385.471 264.805 383.292 264.139C383.262 263.903 383.235 263.669 383.209 263.44C386.515 264.717 387.991 264.236 388.544 263.884C388.558 263.989 388.571 264.093 388.583 264.199C388.696 265.11 388.79 266.072 388.876 267.069C388.895 267.322 388.915 267.578 388.936 267.837Z" fill="#FDA1AC"/>
<defs>
<linearGradient id="paint0_linear_293_359" x1="360" y1="-39.2" x2="360" y2="439.2" gradientUnits="userSpaceOnUse">
<stop offset="0.0239582" stop-color="#46BBFD"/>
<stop offset="1" stop-color="#003397"/>
</linearGradient>
<linearGradient id="paint1_linear_293_359" x1="609.965" y1="304.818" x2="436.601" y2="264.331" gradientUnits="userSpaceOnUse">
<stop stop-color="#52194E"/>
<stop offset="0.297" stop-color="#A34698"/>
<stop offset="0.703" stop-color="#6F1E63"/>
<stop offset="1" stop-color="#E15FCD"/>
</linearGradient>
<linearGradient id="paint2_linear_293_359" x1="595.948" y1="226.7" x2="446.201" y2="204.121" gradientUnits="userSpaceOnUse">
<stop stop-color="#B20E55"/>
<stop offset="0.482" stop-color="#F54E8B"/>
<stop offset="0.781" stop-color="#901E46"/>
<stop offset="1" stop-color="#DE5785"/>
</linearGradient>
<linearGradient id="paint3_linear_293_359" x1="598.544" y1="260.957" x2="442.309" y2="226.959" gradientUnits="userSpaceOnUse">
<stop stop-color="#0E6284"/>
<stop offset="0.207" stop-color="#269BBD"/>
<stop offset="0.665" stop-color="#15737F"/>
<stop offset="1" stop-color="#43CDD9"/>
</linearGradient>
<linearGradient id="paint4_linear_293_359" x1="475.564" y1="250.952" x2="475.564" y2="263.017" gradientUnits="userSpaceOnUse">
<stop stop-color="#18949F"/>
<stop offset="1" stop-color="#5AD2DC"/>
</linearGradient>
<linearGradient id="paint5_linear_293_359" x1="583.232" y1="229.555" x2="440.26" y2="211.016" gradientUnits="userSpaceOnUse">
<stop stop-color="#F89DC5"/>
<stop offset="0.24375" stop-color="#75314D"/>
</linearGradient>
<linearGradient id="paint6_linear_293_359" x1="595.657" y1="223.32" x2="442.692" y2="196.926" gradientUnits="userSpaceOnUse">
<stop stop-color="#FFA7CD"/>
<stop offset="0.100195" stop-color="#7F0F3D"/>
<stop offset="0.482" stop-color="#A62B58"/>
<stop offset="0.781" stop-color="#B83562"/>
<stop offset="1" stop-color="#BE3966"/>
</linearGradient>
<linearGradient id="paint7_linear_293_359" x1="573.37" y1="268.224" x2="439.812" y2="246.909" gradientUnits="userSpaceOnUse">
<stop stop-color="#74C4E5"/>
<stop offset="0.207" stop-color="#146177"/>
<stop offset="0.665" stop-color="#2592A1"/>
<stop offset="1" stop-color="#2698A2"/>
</linearGradient>
<linearGradient id="paint8_linear_293_359" x1="589.462" y1="261.217" x2="443.141" y2="231.167" gradientUnits="userSpaceOnUse">
<stop stop-color="#5AB1D4"/>
<stop offset="0.207" stop-color="#15718C"/>
<stop offset="0.665" stop-color="#2592A1"/>
<stop offset="1" stop-color="#178892"/>
</linearGradient>
<linearGradient id="paint9_linear_293_359" x1="599.287" y1="257.3" x2="444.523" y2="224.608" gradientUnits="userSpaceOnUse">
<stop stop-color="#72CEF4"/>
<stop offset="0.207" stop-color="#0E596E"/>
<stop offset="0.665" stop-color="#2592A1"/>
<stop offset="1" stop-color="#43B3BD"/>
</linearGradient>
<linearGradient id="paint10_linear_293_359" x1="608.171" y1="311.18" x2="432.045" y2="278.789" gradientUnits="userSpaceOnUse">
<stop stop-color="#D17BCB"/>
<stop offset="0.297" stop-color="#C15FB5"/>
<stop offset="0.703" stop-color="#C968BA"/>
<stop offset="1" stop-color="#521048"/>
</linearGradient>
<linearGradient id="paint11_linear_293_359" x1="611.018" y1="295.709" x2="434.891" y2="263.318" gradientUnits="userSpaceOnUse">
<stop stop-color="#D179CA"/>
<stop offset="0.297" stop-color="#7C3974"/>
<stop offset="0.703" stop-color="#8E3B81"/>
<stop offset="1" stop-color="#943C86"/>
</linearGradient>
<linearGradient id="paint12_linear_293_359" x1="611.721" y1="291.892" x2="435.596" y2="259.502" gradientUnits="userSpaceOnUse">
<stop stop-color="#B14EA9"/>
<stop offset="0.297" stop-color="#7C3974"/>
<stop offset="0.703" stop-color="#8E3B81"/>
<stop offset="1" stop-color="#B75BA8"/>
</linearGradient>
<linearGradient id="paint13_linear_293_359" x1="539.047" y1="205.37" x2="539.047" y2="207.57" gradientUnits="userSpaceOnUse">
<stop stop-color="#FFE6AE"/>
<stop offset="1" stop-color="#FFCE61"/>
</linearGradient>
<linearGradient id="paint14_linear_293_359" x1="539.035" y1="200.811" x2="539.035" y2="203.011" gradientUnits="userSpaceOnUse">
<stop stop-color="#FFCE61"/>
<stop offset="0.0001" stop-color="#F7C046"/>
<stop offset="1" stop-color="#FFE6AE"/>
</linearGradient>
<linearGradient id="paint15_linear_293_359" x1="496.045" y1="200.81" x2="496.045" y2="207.567" gradientUnits="userSpaceOnUse">
<stop stop-color="#F9A2A2"/>
<stop offset="1" stop-color="#FCEDED"/>
</linearGradient>
<linearGradient id="paint16_linear_293_359" x1="493.636" y1="202.833" x2="493.636" y2="205.562" gradientUnits="userSpaceOnUse">
<stop stop-color="#54254F"/>
<stop offset="1" stop-color="#9B5994"/>
</linearGradient>
<linearGradient id="paint17_linear_293_359" x1="581.244" y1="200.813" x2="581.244" y2="207.569" gradientUnits="userSpaceOnUse">
<stop stop-color="#D41E5C"/>
<stop offset="1" stop-color="#F687AD"/>
</linearGradient>
<linearGradient id="paint18_linear_293_359" x1="295.061" y1="126.75" x2="295.061" y2="301.647" gradientUnits="userSpaceOnUse">
<stop stop-color="#9BA6F4"/>
<stop offset="0.0001" stop-color="#E9ECFF"/>
<stop offset="1" stop-color="#7E9AFD"/>
</linearGradient>
<linearGradient id="paint19_linear_293_359" x1="294.598" y1="300.514" x2="294.598" y2="317.219" gradientUnits="userSpaceOnUse">
<stop stop-color="#9BA6F4"/>
<stop offset="0.0001" stop-color="#E9ECFF"/>
<stop offset="1" stop-color="#7E9AFD"/>
</linearGradient>
<linearGradient id="paint20_linear_293_359" x1="428.289" y1="404.11" x2="-394.392" y2="-122.919" gradientUnits="userSpaceOnUse">
<stop stop-color="#E58DEF"/>
<stop offset="0.191" stop-color="#E392F0"/>
<stop offset="0.423" stop-color="#DDA1F2"/>
<stop offset="0.675" stop-color="#D3B9F5"/>
<stop offset="0.94" stop-color="#C5DBFA"/>
<stop offset="1" stop-color="#C2E4FB"/>
</linearGradient>
<linearGradient id="paint21_linear_293_359" x1="294.598" y1="315.789" x2="294.598" y2="327.241" gradientUnits="userSpaceOnUse">
<stop stop-color="#9BA6F4"/>
<stop offset="0.0001" stop-color="#E9ECFF"/>
<stop offset="1" stop-color="#7E9AFD"/>
</linearGradient>
<linearGradient id="paint22_linear_293_359" x1="294.598" y1="196.436" x2="294.598" y2="267.809" gradientUnits="userSpaceOnUse">
<stop stop-color="#ECF2FF"/>
<stop offset="1" stop-color="#A59DFD"/>
</linearGradient>
<linearGradient id="paint23_linear_293_359" x1="294.633" y1="136.436" x2="294.633" y2="291.962" gradientUnits="userSpaceOnUse">
<stop stop-color="#ECF2FF"/>
<stop offset="1" stop-color="#A59DFD"/>
</linearGradient>
<linearGradient id="paint24_linear_293_359" x1="468.467" y1="121.281" x2="343.996" y2="57.3957" gradientUnits="userSpaceOnUse">
<stop stop-color="#313033"/>
<stop offset="0.0001" stop-color="#251646"/>
<stop offset="1" stop-color="#00068B"/>
</linearGradient>
<linearGradient id="paint25_linear_293_359" x1="450.679" y1="118.399" x2="361.301" y2="60.5131" gradientUnits="userSpaceOnUse">
<stop stop-color="#1D2448"/>
<stop offset="0.353" stop-color="#1B223B"/>
<stop offset="1" stop-color="#051252"/>
</linearGradient>
<linearGradient id="paint26_linear_293_359" x1="441.485" y1="158.838" x2="358.404" y2="81.7559" gradientUnits="userSpaceOnUse">
<stop stop-color="#53516B"/>
<stop offset="1" stop-color="#000532"/>
</linearGradient>
<linearGradient id="paint27_linear_293_359" x1="354.847" y1="88.891" x2="442.827" y2="138.201" gradientUnits="userSpaceOnUse">
<stop stop-color="#F6EFF4"/>
<stop offset="0.46352" stop-color="#3313B0"/>
<stop offset="1" stop-color="#0640D4"/>
</linearGradient>
<linearGradient id="paint28_linear_293_359" x1="456.279" y1="79.1828" x2="456.279" y2="123.531" gradientUnits="userSpaceOnUse">
<stop stop-color="#15136E"/>
<stop offset="1" stop-color="#1D2DBB"/>
</linearGradient>
<linearGradient id="paint29_linear_293_359" x1="456.151" y1="126.148" x2="456.151" y2="142.413" gradientUnits="userSpaceOnUse">
<stop stop-color="#F9C33D"/>
<stop offset="1" stop-color="#FFF1CF"/>
</linearGradient>
<linearGradient id="paint30_linear_293_359" x1="453.314" y1="121.622" x2="459.274" y2="128.598" gradientUnits="userSpaceOnUse">
<stop offset="0.135417" stop-color="#F9BC26"/>
<stop offset="1" stop-color="#F8E6B7"/>
</linearGradient>
<linearGradient id="paint31_linear_293_359" x1="197.125" y1="82.6971" x2="197.954" y2="89.0008" gradientUnits="userSpaceOnUse">
<stop stop-color="white"/>
<stop offset="0.84427" stop-color="#FFC4C4"/>
</linearGradient>
<linearGradient id="paint32_linear_293_359" x1="196.473" y1="76.8721" x2="197.941" y2="85.4072" gradientUnits="userSpaceOnUse">
<stop stop-color="white"/>
<stop offset="0.84427" stop-color="#FFC4C4"/>
</linearGradient>
<linearGradient id="paint33_linear_293_359" x1="203.195" y1="77.862" x2="194.116" y2="70.566" gradientUnits="userSpaceOnUse">
<stop stop-color="#170413"/>
<stop offset="0.353" stop-color="#2F0E29"/>
<stop offset="1" stop-color="#873E7F"/>
</linearGradient>
<linearGradient id="paint34_linear_293_359" x1="203.026" y1="74.617" x2="202.863" y2="80.9835" gradientUnits="userSpaceOnUse">
<stop stop-color="white"/>
<stop offset="0.84427" stop-color="#FFC4C4"/>
</linearGradient>
<linearGradient id="paint35_linear_293_359" x1="195.046" y1="158.01" x2="195.046" y2="171.194" gradientUnits="userSpaceOnUse">
<stop offset="0.369843" stop-color="#1F051A"/>
<stop offset="1" stop-color="#631A55"/>
</linearGradient>
<linearGradient id="paint36_linear_293_359" x1="206.716" y1="146.827" x2="206.882" y2="159.957" gradientUnits="userSpaceOnUse">
<stop stop-color="#4A1C40"/>
<stop offset="0.096" stop-color="#4D1E44"/>
<stop offset="0.441" stop-color="#52234C"/>
<stop offset="1" stop-color="#54254F"/>
</linearGradient>
<linearGradient id="paint37_linear_293_359" x1="193.952" y1="115.675" x2="194.547" y2="162.647" gradientUnits="userSpaceOnUse">
<stop stop-color="#4A1C40"/>
<stop offset="0.096" stop-color="#4D1E44"/>
<stop offset="0.441" stop-color="#52234C"/>
<stop offset="1" stop-color="#C334B3"/>
</linearGradient>
<linearGradient id="paint38_linear_293_359" x1="182.842" y1="101.351" x2="185.263" y2="111.607" gradientUnits="userSpaceOnUse">
<stop stop-color="white"/>
<stop offset="0.505021" stop-color="#FFC4C4"/>
</linearGradient>
<linearGradient id="paint39_linear_293_359" x1="209.026" y1="115.614" x2="190.652" y2="86.0283" gradientUnits="userSpaceOnUse">
<stop stop-color="#FAA339"/>
<stop offset="0.0001" stop-color="#FF9F2B"/>
<stop offset="1" stop-color="#FFEFC6"/>
</linearGradient>
<linearGradient id="paint40_linear_293_359" x1="199.391" y1="105.241" x2="219.691" y2="106.856" gradientUnits="userSpaceOnUse">
<stop stop-color="white"/>
<stop offset="0.84427" stop-color="#FFC4C4"/>
</linearGradient>
<linearGradient id="paint41_linear_293_359" x1="181.66" y1="155.719" x2="201.142" y2="120.765" gradientUnits="userSpaceOnUse">
<stop stop-color="#54254F"/>
<stop offset="0.559" stop-color="#52234C"/>
<stop offset="0.904" stop-color="#4D1E44"/>
<stop offset="1" stop-color="#4A1C40"/>
</linearGradient>
<linearGradient id="paint42_linear_293_359" x1="198.872" y1="81.6242" x2="197.297" y2="90.5685" gradientUnits="userSpaceOnUse">
<stop stop-color="white"/>
<stop offset="0.84427" stop-color="#FFC4C4"/>
</linearGradient>
<linearGradient id="paint43_linear_293_359" x1="201.571" y1="109.205" x2="186.155" y2="90.9672" gradientUnits="userSpaceOnUse">
<stop stop-color="#2A0522"/>
<stop offset="0.353" stop-color="#68265D"/>
<stop offset="1" stop-color="#D67ECD"/>
</linearGradient>
<linearGradient id="paint44_linear_293_359" x1="199.13" y1="96.6768" x2="200.012" y2="103.085" gradientUnits="userSpaceOnUse">
<stop stop-color="white"/>
<stop offset="0.84427" stop-color="#FFC4C4"/>
</linearGradient>
<linearGradient id="paint45_linear_293_359" x1="182.782" y1="96.9363" x2="183.047" y2="103.469" gradientUnits="userSpaceOnUse">
<stop stop-color="white"/>
<stop offset="0.84427" stop-color="#FFC4C4"/>
</linearGradient>
<linearGradient id="paint46_linear_293_359" x1="387.267" y1="256.843" x2="373.47" y2="236.147" gradientUnits="userSpaceOnUse">
<stop stop-color="#2E1428"/>
<stop offset="0.353" stop-color="#340A2D"/>
<stop offset="1" stop-color="#A6449B"/>
</linearGradient>
<linearGradient id="paint47_linear_293_359" x1="339.539" y1="235.783" x2="361.744" y2="252.377" gradientUnits="userSpaceOnUse">
<stop stop-color="white"/>
<stop offset="0.615652" stop-color="#FFC4C4"/>
</linearGradient>
<linearGradient id="paint48_linear_293_359" x1="382.935" y1="274.192" x2="370.937" y2="249.597" gradientUnits="userSpaceOnUse">
<stop stop-color="#7C1240"/>
<stop offset="0.228" stop-color="#851745"/>
<stop offset="0.800557" stop-color="#9C2553"/>
<stop offset="1" stop-color="#F66B9A"/>
</linearGradient>
<linearGradient id="paint49_linear_293_359" x1="379.797" y1="339.232" x2="379.797" y2="346.519" gradientUnits="userSpaceOnUse">
<stop stop-color="#5F3257"/>
<stop offset="1" stop-color="#34142E"/>
</linearGradient>
<linearGradient id="paint50_linear_293_359" x1="361.489" y1="274.368" x2="384.436" y2="344.006" gradientUnits="userSpaceOnUse">
<stop stop-color="#094D69"/>
<stop offset="0.369" stop-color="#076F8F"/>
<stop offset="1" stop-color="#57D3DE"/>
</linearGradient>
<linearGradient id="paint51_linear_293_359" x1="378.227" y1="247.672" x2="379.912" y2="256.15" gradientUnits="userSpaceOnUse">
<stop stop-color="white"/>
<stop offset="0.759851" stop-color="#FFC4C4"/>
</linearGradient>
<linearGradient id="paint52_linear_293_359" x1="381.542" y1="273.382" x2="372.444" y2="247.288" gradientUnits="userSpaceOnUse">
<stop stop-color="#500224"/>
<stop offset="0.228" stop-color="#760031"/>
<stop offset="0.594" stop-color="#9C2553"/>
<stop offset="1" stop-color="#FFBFD5"/>
</linearGradient>
<linearGradient id="paint53_linear_293_359" x1="381.061" y1="248.241" x2="377.642" y2="256.702" gradientUnits="userSpaceOnUse">
<stop stop-color="white"/>
<stop offset="0.84427" stop-color="#FFC4C4"/>
</linearGradient>
<linearGradient id="paint54_linear_293_359" x1="370.965" y1="291.982" x2="370.965" y2="341.829" gradientUnits="userSpaceOnUse">
<stop stop-color="#135E75"/>
<stop offset="1" stop-color="#238CAD"/>
</linearGradient>
<linearGradient id="paint55_linear_293_359" x1="378.194" y1="242.534" x2="379.445" y2="249.982" gradientUnits="userSpaceOnUse">
<stop stop-color="white"/>
<stop offset="0.84427" stop-color="#FFC4C4"/>
</linearGradient>
<linearGradient id="paint56_linear_293_359" x1="382.619" y1="244.348" x2="382.733" y2="247.903" gradientUnits="userSpaceOnUse">
<stop stop-color="white"/>
<stop offset="0.84427" stop-color="#FFA7A7"/>
</linearGradient>
<linearGradient id="paint57_linear_293_359" x1="340.056" y1="233.188" x2="346.853" y2="240.694" gradientUnits="userSpaceOnUse">
<stop stop-color="white"/>
<stop offset="0.84427" stop-color="#FFC4C4"/>
</linearGradient>
</defs>
</svg>
