<svg width="720" height="400" viewBox="0 0 720 400" fill="none" xmlns="http://www.w3.org/2000/svg">
<g clip-path="url(#clip0_333_1998)">
<rect width="720" height="400" fill="white"/>
<rect width="720" height="400" fill="url(#paint0_linear_333_1998)"/>
<path d="M458.806 243.448C456.999 248.491 454.834 253.399 452.328 258.133C447.834 266.67 442.214 274.875 435.74 282.461C428.792 290.603 420.949 297.938 412.36 304.327C374.305 332.575 323.46 339.872 289.061 295.61C283.371 288.287 281.12 280.935 280.638 273.359C280.224 266.832 281.126 260.123 282.27 253.106C282.614 250.979 282.982 248.823 283.343 246.637C285.26 235 285.226 223.125 283.242 211.5C281.658 202.157 278.754 193.087 274.617 184.562C259.733 154.068 226.309 141.395 225.834 103.386C225.282 58.7265 264.951 30.1888 305.653 26.2014C349.029 21.9514 394.316 37.0495 426.048 67.5261C429.886 71.2075 433.509 75.1064 436.9 79.2035C474.668 124.824 478.139 189.208 458.806 243.448Z" fill="#F4F4F5" fill-opacity="0.16"/>
<path d="M435.739 282.452C428.791 290.595 420.948 297.929 412.359 304.318C374.304 332.566 323.459 339.863 289.06 295.601C283.37 288.278 281.12 280.926 280.637 273.35C280.224 266.823 281.125 260.114 282.269 253.097C282.613 250.97 282.981 248.815 283.342 246.628C285.259 234.991 285.225 223.116 283.241 211.491C299.227 212.634 314.735 216.502 327.099 222.305C354.057 234.96 375.255 257.555 401.817 271.021C412.521 276.431 423.944 280.281 435.739 282.452Z" fill="#ECEDEF" fill-opacity="0.2"/>
<path d="M452.327 258.132C443.021 275.807 428.898 292.04 412.359 304.318C374.304 332.566 323.459 339.863 289.06 295.601C283.37 288.278 281.12 280.926 280.637 273.35C280.224 266.823 281.125 260.114 282.269 253.097C302.869 245.197 330.493 247.622 348.521 250.605C373.948 254.814 399.021 262.572 425.031 261.959C434.246 261.735 443.405 260.45 452.327 258.132Z" fill="#E1E3E6" fill-opacity="0.2"/>
<path d="M412.359 304.317C374.303 332.566 323.458 339.863 289.06 295.601C283.369 288.277 281.119 280.925 280.637 273.35C289.961 270.921 300.114 270.531 309.651 272.037C333.333 275.78 352.756 291.504 375.17 298.95C387.335 302.991 399.794 304.54 412.359 304.317Z" fill="#D4D8DC" fill-opacity="0.2"/>
<path d="M434.581 296.921C434.401 296.921 434.224 296.87 434.072 296.773C433.92 296.677 433.798 296.539 433.722 296.375C433.646 296.212 433.617 296.03 433.641 295.852C433.664 295.673 433.738 295.505 433.854 295.366C453.558 271.76 466.969 243.552 472.837 213.368C472.892 213.129 473.038 212.921 473.243 212.787C473.449 212.653 473.699 212.605 473.94 212.651C474.181 212.698 474.394 212.836 474.535 213.036C474.676 213.237 474.734 213.485 474.697 213.727C468.767 244.224 455.217 272.725 435.309 296.577C435.221 296.684 435.109 296.771 434.984 296.83C434.858 296.89 434.72 296.921 434.581 296.921Z" fill="#ECEDEF" fill-opacity="0.2"/>
<path d="M359.756 312.993L353.496 318.087L349.678 321.19C349.678 321.19 348.61 319.782 347.199 317.958C344.65 314.66 340.977 310.005 340.48 309.882L348.688 294.222L358.345 310.604L359.756 312.993Z" fill="#6A8295"/>
<path d="M365.609 323.033L362.198 327.253L357.845 335.675C357.736 335.888 357.621 336.1 357.507 336.31L357.5 336.324C357.396 336.511 357.294 336.697 357.184 336.882C357.169 336.913 357.15 336.947 357.132 336.979C356.927 337.33 356.718 337.677 356.501 338.017C356.447 338.107 356.389 338.198 356.329 338.285C356.239 338.426 356.148 338.564 356.056 338.702C355.908 338.928 355.76 339.147 355.599 339.37C355.47 339.548 355.344 339.726 355.214 339.902C355.186 339.942 355.157 339.984 355.126 340.021C355.008 340.181 354.886 340.34 354.763 340.497C354.758 340.507 354.752 340.515 354.744 340.521C354.74 340.527 354.736 340.532 354.732 340.537C354.481 340.856 354.227 341.172 353.968 341.481C353.952 341.501 353.935 341.521 353.917 341.54L353.526 341.994L353.161 342.402C353.124 342.446 353.084 342.489 353.042 342.532L352.664 342.934C352.548 343.058 352.429 343.179 352.309 343.301C351.804 343.815 351.28 344.31 350.738 344.784C350.645 344.867 350.55 344.949 350.457 345.029C349.899 345.51 349.323 345.971 348.73 346.413C348.602 346.508 348.473 346.604 348.343 346.696C348.169 346.822 347.996 346.944 347.819 347.066C347.642 347.187 347.467 347.308 347.289 347.425C347.284 347.43 347.277 347.434 347.27 347.437C347.106 347.545 346.941 347.653 346.775 347.757C346.609 347.861 346.431 347.977 346.254 348.08L342.777 350.185C342.455 350.368 342.09 350.464 341.719 350.463C341.349 350.462 340.985 350.365 340.663 350.18C340.342 349.995 340.075 349.73 339.887 349.41C339.7 349.09 339.599 348.727 339.595 348.356C339.566 346.515 340.021 344.698 340.914 343.087L342.51 340.218C343.824 337.855 344.843 335.339 345.545 332.727C345.652 332.336 345.75 331.941 345.842 331.54C346.32 329.48 346.606 327.379 346.695 325.266L346.951 319.084C346.967 318.69 347.053 318.302 347.203 317.938C347.41 317.431 347.741 316.983 348.165 316.637L351.625 313.818C351.966 313.542 352.359 313.337 352.781 313.216C353.175 313.102 353.586 313.061 353.994 313.096L355.648 313.234C356.197 313.283 356.742 313.117 357.169 312.77C357.597 312.423 357.872 311.923 357.936 311.376C357.969 311.068 358.117 310.783 358.35 310.578C358.587 310.373 358.89 310.26 359.204 310.261C359.404 310.26 359.601 310.305 359.781 310.392C359.961 310.479 360.119 310.605 360.243 310.762L363.358 314.584L364.595 316.104L365.546 317.273C366.909 318.985 366.945 321.385 365.609 323.033Z" fill="#234662"/>
<path d="M353.993 313.117L353.496 318.086L352.839 324.667C352.732 325.786 352.374 326.867 351.79 327.828C351.206 328.789 350.412 329.605 349.467 330.215L346 332.44L345.539 332.737C345.646 332.345 345.744 331.95 345.836 331.55C346.314 329.489 346.6 327.389 346.689 325.275L346.945 319.094C346.962 318.7 347.047 318.312 347.198 317.947C347.404 317.44 347.735 316.993 348.159 316.646L351.62 313.828C351.96 313.551 352.353 313.346 352.775 313.225L353.993 313.117Z" fill="#011533"/>
<path d="M365.612 323.034L362.2 327.254L357.848 335.675C357.738 335.889 357.624 336.101 357.51 336.31L357.502 336.325C357.399 336.512 357.296 336.698 357.186 336.883C357.172 336.914 357.152 336.948 357.134 336.979C356.932 337.33 356.722 337.677 356.504 338.018C356.449 338.108 356.391 338.199 356.332 338.286C356.241 338.427 356.151 338.565 356.059 338.703C355.911 338.929 355.762 339.148 355.602 339.371C355.473 339.549 355.347 339.727 355.216 339.903C355.188 339.943 355.16 339.985 355.129 340.022C355.01 340.182 354.889 340.341 354.765 340.498C354.761 340.507 354.754 340.515 354.746 340.522C354.743 340.528 354.739 340.533 354.734 340.538C354.484 340.857 354.23 341.173 353.97 341.482C353.955 341.502 353.938 341.522 353.92 341.541L353.528 341.995L353.163 342.403C353.126 342.447 353.086 342.49 353.045 342.533C352.922 342.668 352.796 342.805 352.666 342.935C352.537 343.066 352.432 343.18 352.312 343.302C351.807 343.816 351.283 344.31 350.741 344.785C350.648 344.868 350.553 344.95 350.459 345.03C349.901 345.51 349.326 345.972 348.732 346.414C348.605 346.509 348.476 346.605 348.345 346.697C348.172 346.823 347.998 346.945 347.822 347.067C347.645 347.188 347.47 347.308 347.292 347.426C347.286 347.43 347.28 347.434 347.273 347.437C347.108 347.546 346.943 347.654 346.777 347.758C346.611 347.862 346.433 347.977 346.257 348.081L342.78 350.186C342.457 350.369 342.093 350.465 341.722 350.464C341.351 350.463 340.987 350.365 340.666 350.181C340.345 349.996 340.077 349.731 339.89 349.411C339.702 349.091 339.602 348.728 339.598 348.357C339.839 348.267 340.077 348.175 340.313 348.08C342.781 347.096 345.112 345.8 347.251 344.223C351.08 341.389 354.237 337.744 356.497 333.55C358.637 329.592 360.316 326.726 361.565 324.715C361.929 324.121 362.257 323.612 362.547 323.163C363.758 321.284 364.449 319.117 364.55 316.884L364.589 316.121L365.539 317.29C366.912 318.986 366.947 321.386 365.612 323.034Z" fill="#060D16"/>
<path opacity="0.5" d="M363.347 314.607C363.044 318.023 362.446 321.406 361.559 324.719C360.594 328.341 359.285 331.863 357.652 335.238C356.96 336.66 356.212 338.053 355.41 339.418C355.191 339.789 354.965 340.16 354.74 340.523C354.737 340.529 354.734 340.534 354.73 340.539C354.479 340.857 354.225 341.174 353.966 341.483L353.917 341.542L353.524 341.996L353.16 342.404C353.122 342.449 353.081 342.49 353.041 342.535C352.917 342.67 352.789 342.806 352.663 342.937C352.537 343.067 352.426 343.181 352.307 343.301C351.8 343.818 351.278 344.312 350.735 344.785L350.454 345.028C349.896 345.511 349.321 345.972 348.729 346.412C348.6 346.507 348.471 346.602 348.34 346.696C348.167 346.822 347.993 346.942 347.818 347.065C347.643 347.188 347.465 347.307 347.287 347.424C347.287 346.354 347.287 345.288 347.247 344.218C347.12 340.264 346.704 336.324 346.004 332.43C345.951 332.133 345.899 331.836 345.841 331.54C346.32 329.479 346.606 327.378 346.694 325.265L346.951 319.083C346.967 318.689 347.052 318.301 347.203 317.937C344.654 314.638 340.981 309.984 340.484 309.863L344.556 302.092L348.694 294.201L358.349 310.585C358.507 310.447 358.696 310.349 358.901 310.302C358.998 310.278 359.098 310.266 359.198 310.266C359.397 310.266 359.594 310.31 359.774 310.397C359.954 310.484 360.112 310.61 360.236 310.766L363.347 314.607Z" fill="#081A35"/>
<path opacity="0.67" d="M360.09 322.555C359.878 325.442 359.257 328.281 358.638 331.108C358.341 332.488 358.028 333.876 357.653 335.24C356.961 336.662 356.214 338.055 355.412 339.42C354.433 338.339 353.939 336.86 353.483 335.449C352.062 330.999 350.638 326.541 349.573 321.993C348.063 315.539 347.182 308.975 344.813 302.749C344.734 302.543 344.648 302.332 344.555 302.109L348.692 294.218L358.347 310.602C358.505 310.463 358.695 310.366 358.899 310.319C359.849 314.349 360.39 318.436 360.09 322.555Z" fill="#081A35"/>
<path d="M355.887 329.583C356.545 330.206 358.674 346.028 358.674 346.028L373.327 343.545L372.882 318.61L355.887 329.583Z" fill="#6A8295"/>
<path d="M374.958 336.847L379.423 345.69C380.583 347.988 380.016 350.761 378.064 352.325L373.064 356.33L365.921 364.934C361.578 370.18 355.869 374.122 349.426 376.327L344.886 377.877C344.319 378.063 343.703 378.037 343.153 377.804C342.603 377.571 342.157 377.147 341.896 376.61C341.639 376.103 341.562 375.524 341.678 374.968C342.11 372.837 343.093 370.856 344.53 369.224L347.091 366.319C349.202 363.925 351.012 361.281 352.481 358.447C353.856 355.806 354.931 353.02 355.687 350.14L357.544 343.08C357.682 342.542 357.933 342.039 358.28 341.606C358.627 341.172 359.063 340.818 359.559 340.566L364.258 338.193C364.72 337.959 365.225 337.822 365.742 337.789C366.224 337.756 366.709 337.812 367.172 337.954L369.042 338.531C369.662 338.726 370.333 338.671 370.913 338.379C371.493 338.088 371.937 337.581 372.15 336.967C372.599 335.7 374.339 335.62 374.958 336.847Z" fill="#234662"/>
<path d="M367.186 337.964L362.948 350.985C362.543 352.249 361.857 353.405 360.942 354.366C360.026 355.327 358.904 356.068 357.661 356.533L352.496 358.462C353.87 355.82 354.946 353.034 355.703 350.155L357.559 343.095C357.696 342.556 357.947 342.052 358.294 341.617C358.641 341.182 359.078 340.826 359.573 340.573L364.273 338.2C364.735 337.968 365.24 337.831 365.756 337.798L367.186 337.964Z" fill="#011533"/>
<path d="M378.622 344.101L379.423 345.69C380.583 347.988 380.016 350.762 378.064 352.325L373.064 356.33L365.921 364.934C361.578 370.18 355.869 374.122 349.426 376.327L344.886 377.877C344.319 378.063 343.703 378.037 343.153 377.804C342.603 377.572 342.157 377.147 341.896 376.61C341.639 376.103 341.562 375.524 341.678 374.968C341.974 374.923 342.279 374.877 342.575 374.828C351.277 373.389 359.129 368.843 364.896 362.151C369.376 356.959 372.501 353.671 374.492 351.698C376.362 349.836 377.705 347.513 378.386 344.964L378.622 344.101Z" fill="#060D16"/>
<path d="M372.759 201.891C372.741 201.946 372.723 202.004 372.704 202.058C370.381 209.115 360.27 217.453 349.29 224.766C346.362 226.717 343.374 228.594 340.453 230.354L340.156 230.529C339.187 231.113 338.229 231.682 337.282 232.235C326.272 238.682 317.002 243.161 317.002 243.161C317.32 243.403 317.612 243.679 317.871 243.984C318.066 244.198 318.258 244.413 318.445 244.629C318.586 244.789 318.727 244.95 318.865 245.111C324.891 252.116 329.258 260.46 334.441 268.063C335.787 270.034 337.108 272.021 338.406 274.026C338.797 274.628 339.183 275.231 339.566 275.836C339.641 276.192 339.717 276.549 339.794 276.908C340.833 281.814 342.06 286.948 343.34 292.027C344.604 297.041 345.927 302 347.207 306.625C345.896 308.713 344.442 310.706 342.855 312.591C342.718 312.794 342.522 312.949 342.294 313.037C341.849 313.161 341.432 312.759 341.131 312.402C340.667 311.846 340.198 311.294 339.723 310.745C338.771 309.643 337.799 308.555 336.808 307.481C327.018 296.873 316.782 286.684 307.363 275.713C298.152 264.986 289.255 253.221 285.112 239.51C281.59 227.855 292.253 219.929 299.649 212.991C306.769 206.316 314.072 199.83 321.445 193.434C322.723 192.323 324.005 191.216 325.288 190.113C331.815 184.486 336.43 180.626 336.43 180.626L345.498 179.259L352.645 178.177L356.865 177.541C357.954 177.947 359.017 178.418 360.05 178.95C361.265 179.562 362.444 180.242 363.582 180.987C369.274 184.707 375.998 191.52 372.759 201.891Z" fill="#1D2F49"/>
<path opacity="0.3" d="M361.831 182.715C360.231 184.532 358.459 187.165 356.621 190.37C351.619 199.088 347.738 208.5 344.393 217.961C343.002 221.901 341.038 226.431 340.158 230.531C339.189 231.115 338.231 231.683 337.283 232.237C326.273 238.684 317.004 243.163 317.004 243.163C319.557 244.923 331.013 262.871 337.696 273.538C334.902 271.098 332.691 267.901 330.587 264.786C326.029 258.045 321.469 251.303 316.906 244.563C316.704 244.266 316.493 243.95 316.453 243.591C316.37 242.876 316.956 242.277 317.492 241.795C323.35 236.545 329.187 231.085 333.242 224.344C336.62 218.734 338.863 211.817 337.969 205.208C337.15 199.162 331.704 197.791 326.477 196.429C324.4 195.888 322.62 194.823 321.455 193.434C322.734 192.324 324.015 191.217 325.299 190.113C331.826 184.486 336.441 180.627 336.441 180.627L345.509 179.259C351.459 180.036 357.238 181.554 361.51 182.629L361.831 182.715Z" fill="#081A35"/>
<path d="M402.534 177.546V204.298C402.534 210.27 400.709 216.099 397.304 221.005L397.209 221.142L393.708 226.185C389.92 231.404 386.121 236.613 382.309 241.814C379.383 245.813 376.445 249.803 373.494 253.787C372.627 254.957 371.74 256.083 370.902 257.224C368.895 259.961 367.173 262.77 366.7 266.393C366.338 269.162 367.257 271.488 367.618 274.19C367.914 276.415 368.225 278.629 368.533 280.849C369.254 285.999 369.984 291.146 370.684 296.297C371.533 302.518 372.415 308.737 373.057 314.988C373.372 318.042 373.639 321.104 373.799 324.17C373.9 326.054 374.41 328.758 372.583 329.991C371.74 330.559 370.678 330.667 369.665 330.761C365.372 331.151 360.845 332.019 356.538 331.955C353.643 331.913 353.776 329.221 353.06 326.855C351.027 320.138 349.077 313.398 347.209 306.633C345.929 302.008 344.606 297.049 343.342 292.035C342.062 286.956 340.841 281.822 339.797 276.916C339.719 276.557 339.643 276.2 339.568 275.844C337.755 267.215 336.508 259.378 336.437 253.937C336.355 247.706 337.938 239.288 340.442 230.362C343.363 228.602 346.35 226.725 349.278 224.774C360.256 217.461 370.37 209.123 372.693 202.066C372.712 202.012 372.73 201.954 372.747 201.899C375.987 191.528 369.263 184.715 363.587 180.999C363.752 180.867 363.915 180.747 364.072 180.639C364.683 180.23 365.328 179.877 366.001 179.581C376.812 174.733 402.534 177.546 402.534 177.546Z" fill="#1D2F49"/>
<path d="M372.759 201.891C372.741 201.946 372.723 202.004 372.704 202.059C370.381 209.115 360.27 217.453 349.29 224.767C346.362 226.717 343.374 228.594 340.453 230.355C343.429 219.757 347.707 208.442 352.055 199.221C353.587 195.969 355.128 192.979 356.625 190.371C358.347 187.364 360.012 184.869 361.52 183.071L361.828 182.716C362.365 182.093 362.955 181.516 363.591 180.993C369.274 184.707 375.999 191.521 372.759 201.891Z" fill="#1D2F49"/>
<path opacity="0.3" d="M402.537 192.847V204.298C402.536 210.27 400.711 216.099 397.306 221.005L397.211 221.142C397.131 220.443 397.011 219.75 396.854 219.065C396.051 215.613 393.951 212.271 390.686 210.891C386.743 209.225 382.23 210.721 377.962 210.403C372.919 210.025 368.426 207.119 364.495 203.936C362.579 202.388 360.451 200.496 358.071 199.715C356.276 199.122 354.143 199.985 352.55 199.436C352.378 199.378 352.212 199.304 352.055 199.214C353.587 195.962 355.128 192.972 356.625 190.364C358.347 187.357 360.012 184.862 361.52 183.064C362.884 182.788 364.265 182.615 365.655 182.545C373.641 182.121 381.626 183.732 389.224 186.239C393.87 187.768 398.473 189.665 402.327 192.678L402.537 192.847Z" fill="#081A35"/>
<path opacity="0.35" d="M379.182 83.5272C378.715 83.7556 378.236 83.9722 377.782 84.2333C377.454 84.4177 377.083 84.5105 376.706 84.5019C376.33 84.4932 375.964 84.3836 375.644 84.1843C375.377 84.0197 375.091 83.8713 374.833 83.7052C373.716 82.9857 372.98 81.7767 372.574 80.5158C372.167 79.255 372.058 77.9125 371.949 76.5893C371.207 77.8459 370.767 79.2579 370.664 80.7137C370.561 82.1695 370.798 83.6293 371.356 84.9779C371.831 86.0979 372.523 87.12 372.925 88.2681C373.356 89.4964 373.436 90.8196 373.51 92.1146C373.518 92.334 373.572 92.5492 373.669 92.7465C374.155 93.69 375.312 93.331 376.131 92.9067C377.939 91.9677 379.727 90.9442 381.231 89.5691C382.513 88.3972 383.56 86.9939 384.598 85.601C386.365 83.2275 388.203 80.7488 388.958 77.8428C389.551 75.5346 387.789 77.4289 387.041 78.1246C384.699 80.3002 382.05 82.1204 379.179 83.5272H379.182Z" fill="#FF888A"/>
<path opacity="0.5" d="M402.535 190.878V200.416C401.744 201.213 400.845 201.893 399.864 202.438C398.031 203.42 395.923 203.736 393.86 203.994C387.726 204.769 381.489 205.196 375.367 204.315C374.246 204.153 373.127 203.944 372.019 203.687C367.08 202.536 362.358 200.409 358.58 197.058C358.225 196.743 357.868 196.401 357.713 195.956C357.541 195.466 357.641 194.928 357.598 194.409C357.498 193.222 356.648 192.275 355.571 191.729C355.097 191.489 354.585 191.331 354.058 191.261C352.364 191.04 350.676 191.574 349.037 192.06C344.134 193.514 339.039 194.582 333.936 194.257C330.77 194.053 326.744 193.154 323.531 191.471C330.207 185.716 334.93 181.767 334.93 181.767L351.514 179.263L359.091 180.052C361.118 180.263 363.145 180.474 365.173 180.687C366.063 180.778 366.954 180.871 367.844 180.964C373.629 181.567 379.46 182.176 385.042 183.83C391.065 185.618 396.685 188.592 402.535 190.878Z" fill="#081A35"/>
<path d="M350.099 149.923C349.265 144.62 347.804 139.412 347.22 134.083C347.169 133.621 347.125 133.159 347.088 132.698C346.784 128.841 347.005 124.984 347.511 121.153C347.74 119.411 348.027 117.677 348.352 115.961C349.626 109.181 351.467 102.493 354.084 96.1022C355.378 92.9137 356.877 89.8119 358.571 86.8161C359.952 84.3833 360.845 81.6761 363.693 81.0531L363.889 81.0086C365.764 80.5517 368.13 79.1484 369.708 80.2669C369.75 80.2966 369.791 80.3277 369.831 80.3618C369.962 80.4683 370.081 80.5876 370.187 80.7178C370.957 81.6524 371.198 83.8434 371.561 84.9812C372.394 87.6097 373.226 90.2373 374.058 92.864L374.105 93.0123L374.301 92.8907L385.14 86.2613C385.14 86.2613 390.756 82.2042 390.912 82.0944C391.633 81.5723 392.652 82.0944 393.536 82.7991C393.899 83.0941 394.242 83.4111 394.566 83.7484C394.775 83.965 394.953 84.1682 395.092 84.3418C395.392 84.733 395.717 85.1046 396.064 85.4544C397.271 86.5728 396.657 87.0713 396.361 88.4686C396.184 89.2697 396.039 90.0796 395.877 90.8836C395.503 92.7408 395.132 94.6005 394.764 96.4627C394.135 99.6095 393.507 102.757 392.879 105.905L392.066 109.954C390.005 120.3 387.95 130.645 385.901 140.992C385.032 145.38 384.165 149.769 383.301 154.16C382.574 157.853 381.601 161.495 380.981 165.189C380.067 170.63 380.239 172.852 375.741 176.675C372.085 179.79 369.048 183.383 364.197 184.633C359.992 185.697 355.538 185.097 351.764 182.959C351.342 182.717 350.912 182.436 350.687 182.005C350.477 181.603 350.477 181.128 350.482 180.67C350.532 176.024 350.145 171.989 350.605 167.319C351.181 161.523 351.011 155.676 350.099 149.923Z" fill="white"/>
<path d="M358.902 139.648L359.644 141.65L360.233 143.246L360.976 145.257L365.674 157.966L378.768 142.474L378.698 140.295L378.596 137.142L378.59 136.964L378.555 135.917L378.44 132.473L378.433 132.253L378.371 130.396L378.256 126.938V126.936L378.249 126.701L378.121 122.824L378.038 120.288V120.286V120.277V120.276L378.028 119.982L377.856 114.749L377.795 112.914V112.908L377.785 112.579L377.651 108.548L377.613 107.391V107.372L377.601 106.995L377.331 98.8823L377.326 98.7206L377.311 98.2592L377.252 96.4643L377.249 96.3798L377.28 96.3605L377.311 96.3427L377.31 96.2952L377.297 96.0045L378.092 95.5832L378.225 95.5135L378.331 95.4571L378.483 95.374L375.764 92.3123L375.57 92.3998L375.398 92.422H375.396L374.822 92.5036L374.797 92.5081L373.698 92.6609L373.652 92.6282L370.965 93.8639L371.12 94.2704L371.145 94.3371L371.271 94.4632L371.35 94.5418L371.896 95.0877L371.866 95.1841L371.821 95.3251L371.808 95.3696L371.854 95.4215L371.851 95.4304L371.835 95.4868L371.737 95.819L369.635 102.999L369.489 103.494L369.337 104.018L368.568 106.639L368.417 107.157L368.188 107.937L366.256 114.543L365.655 116.593L365.09 118.526L365.088 118.527L364.394 120.89L359.101 138.968L358.902 139.648Z" fill="#FDAC2A"/>
<path d="M371.119 94.2701L371.145 94.3369L371.271 94.463L371.349 94.5416L371.895 95.0875L371.866 95.1839L371.821 95.3248L371.957 95.4732L371.983 95.4999L371.898 95.7817L371.876 95.8618L371.923 95.8989C373.505 97.0803 375.263 98.0063 377.132 98.6432L377.222 98.6729L377.135 96.7445L377.121 96.4329V96.4077L377.215 96.3588L377.31 96.3054L378.106 95.8603L378.255 95.7788L378.093 95.5889L375.399 92.4277L374.825 92.5093H374.8L371.119 94.2701ZM368.417 107.156C371.426 109.149 374.743 110.908 377.795 112.912C377.818 112.927 377.839 112.943 377.863 112.957L377.715 108.959L377.66 107.419L377.608 107.391C374.976 105.939 372.264 104.638 369.485 103.492L369.336 104.018L368.568 106.639L368.417 107.156ZM365.069 118.849C369.596 121.439 374.18 123.955 378.292 126.96L378.163 123.116L378.068 120.298L366.239 114.897L365.637 116.931L365.069 118.849ZM359.863 139.818L360.568 141.806C366.496 139.959 372.506 138.403 378.6 137.141L378.568 136.102L378.458 132.469C372.079 134.137 365.717 136.108 360.053 139.145L359.863 139.818Z" fill="#FD922A"/>
<path d="M368.488 87.3397L369.147 89.0738L370.966 93.8637L371.12 94.2701L371.145 94.3369L371.206 94.4941L371.35 94.5416L376.557 96.2371L377.122 96.4226L377.252 96.4641L377.417 96.519L377.589 96.4226L378.547 95.89L383.787 92.9766L384.214 92.7393L381.487 89.7932L381.149 90.6388L380.817 91.4635L375.764 92.312L375.57 92.3996L375.398 92.4218H375.397L374.822 92.5034L374.797 92.5078L373.698 92.6606L373.652 92.628L369.743 88.8468L369.316 88.4329L368.488 87.3397Z" fill="#FD922A"/>
<path opacity="0.1" d="M396.07 85.4426C395.723 85.0929 395.399 84.7212 395.099 84.3301C394.959 84.1639 394.781 83.9607 394.572 83.7367C393.291 84.4941 392.143 85.4574 391.175 86.5878C391.785 85.5865 392.691 84.0972 393.535 82.7948C392.645 82.0842 391.632 81.568 390.911 82.0901C390.755 82.1999 385.139 86.257 385.139 86.257L374.3 92.8864L374.104 93.008L374.057 92.8597L374.012 92.8982C374.012 92.8982 367.374 82.863 369.831 80.3575C369.85 80.3367 369.872 80.3175 369.893 80.2967L369.707 80.2626L368.007 79.9451C367.054 81.1319 366.278 82.4105 366.079 83.6121C365.678 86.0419 366.589 88.3768 367.208 90.6761C367.398 91.3911 367.399 92.5793 368.108 93.0124C368.405 93.1949 370.277 93.1267 370.314 92.7158C370.43 94.9186 371.522 96.2285 373.858 96.3086C374.883 96.3457 376.426 96.6572 377.433 96.4243C377.623 96.3827 380.953 95.9481 380.953 95.9481C381.444 96.8382 381.953 97.7475 382.402 98.6316C382.836 98.4845 383.248 98.281 383.628 98.0264C381.922 100.495 380.145 102.913 378.427 105.391C377.455 106.795 376.481 108.197 375.65 109.693C374.258 112.188 373.276 114.885 372.315 117.576L365.917 135.328C364.198 132.866 359.521 134.484 357.882 131.97C357.328 131.118 357.322 130.041 357.336 129.025C357.345 128.42 357.352 127.815 357.364 127.209C357.413 124.493 357.512 121.774 357.882 119.086C357.923 118.778 357.968 118.468 358.018 118.159C358.665 114.164 359.957 110.297 360.558 106.292C361.589 99.44 360.627 92.1269 363.539 85.8387C363.937 84.9783 364.41 84.1283 364.536 83.1879C364.639 82.4105 364.435 81.5383 363.884 81.0117L363.688 81.0562C360.84 81.6792 359.947 84.3864 358.566 86.8192C356.872 89.815 355.373 92.9168 354.078 96.1053C351.467 102.496 349.628 109.185 348.346 115.964C348.021 117.686 347.735 119.42 347.505 121.156C347.505 121.273 347.505 121.391 347.496 121.509C347.37 125.699 347.266 129.893 347.214 134.086C347.078 144.651 347.26 155.218 348.232 165.735C348.545 169.124 348.94 172.548 348.468 175.92C348.023 179.048 346.85 182.101 347.011 185.257C347.062 186.227 347.376 187.363 348.296 187.68C349.216 187.998 350.137 187.318 351.062 187.022C352.86 186.448 354.752 187.356 356.508 188.048C359.772 189.336 363.795 189.818 366.527 187.621C368.129 186.332 368.991 184.34 369.584 182.371C369.664 182.107 369.733 181.845 369.81 181.581C370.152 180.311 370.422 179.024 370.62 177.724C372.078 168.31 370.253 158.31 372.943 149.107C374.447 143.957 377.294 139.324 379.858 134.613C384.883 125.376 388.907 115.636 392.871 105.894C393.499 102.746 394.127 99.5983 394.756 96.4525C395.125 94.5913 395.496 92.7316 395.869 90.8734C396.03 90.0694 396.176 89.2594 396.352 88.4584C396.664 87.0595 397.272 86.5611 396.07 85.4426ZM387.299 92.3197C386.897 93.0139 386.477 93.6993 386.052 94.3757C386.138 94.2066 386.224 94.0375 386.322 93.8654C386.698 93.189 387.12 92.5303 387.559 91.8762L387.299 92.3197Z" fill="#081A35"/>
<path opacity="0.2" d="M369.207 88.9657L370.952 93.7808L371.1 94.1917L371.124 94.2585L371.181 94.4157L371.33 94.4661C371.539 94.6812 371.858 94.8948 371.877 95.1856C372.128 95.1722 372.282 95.0135 372.447 94.8281C373.064 94.1294 373.93 92.9694 374.988 93.4114C375.559 93.6503 375.976 94.1932 376.335 94.6738C376.654 95.0996 376.811 96.3441 377.444 96.4213C377.759 96.4598 378.222 96.0756 378.505 95.9243L383.789 93.091C383.671 92.8351 383.512 92.6001 383.319 92.3953C382.725 91.71 382.019 91.0602 381.187 90.7131L380.843 91.5335L375.779 92.3048L375.583 92.3879L375.408 92.4087L374.834 92.4813H374.807L373.706 92.6178L373.66 92.5852L369.803 88.7432C369.592 88.7789 369.39 88.8544 369.207 88.9657Z" fill="#081A35"/>
<path d="M362.164 35.8672L363.785 47.3428L365.472 37.1934L362.164 35.8672Z" fill="#41211E"/>
<path d="M363.461 50.9618C362.632 51.975 362.274 53.2433 362.174 54.568C362.116 55.4045 362.126 56.2445 362.205 57.0794C362.515 60.8027 363.055 67.8533 367.1 69.54C367.649 69.7714 369.656 70.0191 370.997 70.4819C371.305 70.5763 371.598 70.7131 371.868 70.8884C371.964 70.9409 372.049 71.0141 372.114 71.1029C372.179 71.1916 372.224 71.2936 372.246 71.4016C372.246 71.4105 372.513 74.8328 371.949 77.8841C371.903 78.1304 371.853 78.3736 371.801 78.6154C371.458 80.0514 370.9 81.3316 370.003 82.0199C367.098 84.245 374.02 94.7045 374.02 94.7045L390.606 80.9637L390.548 80.8569C389.966 79.8096 389.458 78.7226 389.029 77.6038C388.396 75.9572 388.629 74.6577 388.707 72.9296C388.785 71.5686 388.979 70.2168 389.286 68.8887C389.879 66.1415 390.756 63.4491 390.992 60.6781C391.063 59.8148 390.87 59.8355 391.506 59.0671C391.99 58.4812 392.603 57.9902 393.138 57.4458C393.236 57.3464 393.332 57.247 393.426 57.1491C394.464 55.9891 395.651 54.5146 395.515 52.8472C395.39 51.3223 394.123 51.527 393.181 50.99C392.864 50.7979 392.591 50.5423 392.377 50.2394C391.843 49.5288 391.477 48.5557 391.226 47.7829C390.597 45.8544 391.413 43.9512 390.811 42.0317C390.547 41.1921 389.921 40.4237 389.066 40.2086C388.563 40.081 388.038 40.1537 387.521 40.1848C385.703 40.2976 384.247 39.6286 382.53 39.3126C381.149 39.0604 379.609 39.1509 378.211 39.0916C374.136 38.924 370.004 39.2637 365.98 38.4166C364.942 38.1986 363.814 37.8099 363.013 37.1379C362.973 38.5546 363.102 40.5423 363.258 42.3936C363.073 44.3998 363.218 46.4227 363.687 48.3821C363.687 48.7574 363.67 49.1357 363.663 49.514C363.663 49.9204 363.648 50.3254 363.65 50.7289C363.586 50.8105 363.526 50.8861 363.461 50.9618Z" fill="#FFD5CC"/>
<path d="M389.856 45.4563C389.813 44.4594 389.737 43.2059 389.347 42.1453C389.792 44.1108 389.199 45.8761 389.549 47.9306C389.568 48.0433 389.674 48.5106 389.81 49.1054C389.76 47.9172 389.911 46.7305 389.856 45.4563ZM363.113 37.2634C363.907 37.9354 365.027 38.324 366.073 38.5421C370.097 39.3876 374.231 39.0494 378.305 39.2171C379.702 39.2764 381.243 39.1859 382.623 39.4381C384.488 39.7807 385.998 40.6945 387.977 40.5862C388.08 40.5862 388.19 40.5744 388.296 40.5788H388.287C385.97 38.729 379.662 33.9435 379.662 33.9435L367.024 32.8562L363.505 35.378C363.257 35.556 363.14 36.268 363.113 37.2634Z" fill="#FFD5CC"/>
<path d="M375.871 55.8381C376.019 55.8504 376.168 55.8504 376.316 55.8381H375.871Z" stroke="#234662" stroke-width="0.148341" stroke-miterlimit="10"/>
<path d="M362.008 35.8535C362.143 36.293 362.385 36.6925 362.711 37.0165C362.789 37.0987 362.872 37.1764 362.959 37.2494C363.074 37.3459 363.194 37.436 363.319 37.5194C363.878 37.6203 364.665 37.2687 365.497 37.2865C367.178 37.3221 368.814 37.8724 370.429 38.2863C373.826 39.1571 377.207 38.9271 380.595 39.249C380.852 39.2579 381.107 39.2698 381.359 39.2891C381.731 39.3132 382.101 39.3583 382.469 39.4241L382.569 39.4434C382.998 39.5279 383.409 39.6421 383.813 39.7638H383.82C385.122 40.1599 386.342 40.6538 387.825 40.5722C387.932 40.5633 388.039 40.5604 388.146 40.5633C388.222 40.565 388.298 40.5765 388.371 40.5975C388.432 40.6116 388.489 40.6362 388.542 40.6701C388.629 40.7279 388.703 40.8044 388.757 40.8941C388.816 40.9915 388.866 41.0943 388.905 41.2012C389.026 41.5026 389.123 41.8131 389.194 42.1298C389.639 44.0953 389.046 45.8621 389.396 47.9151C389.415 48.0278 389.521 48.4951 389.659 49.09C389.853 49.9355 390.111 51.0421 390.27 51.7512C390.334 51.8791 390.429 51.9896 390.546 52.0731C391.071 52.4232 392.12 51.2453 392.704 51.1371C393.923 50.9116 395.353 51.7215 395.456 52.9572C395.592 54.6186 394.408 56.0946 393.367 57.2591C392.766 57.9311 392.016 58.4947 391.439 59.1875C390.802 59.9544 390.994 59.9292 390.924 60.797C390.688 63.568 389.819 66.2604 389.218 69.0091C390.117 67.861 391.016 66.7123 391.916 65.5632C393.195 63.9314 394.474 62.2997 395.641 60.5864C396.634 59.1321 397.545 57.6236 398.369 56.0679C399.688 54.5177 400.311 52.2214 400.658 50.2826C401.093 47.8335 401.047 45.3132 400.706 42.8567C400.765 42.1817 400.391 41.3451 400.28 40.6746C400.219 40.3126 400.142 39.9522 400.053 39.5947C399.964 39.2372 399.767 38.8915 399.977 38.5667C400.649 37.5283 401.481 36.6205 401.788 35.3788C401.975 34.6164 402.14 33.6685 401.556 33.0054C401.11 32.5085 400.495 32.2533 399.884 32.0397C396.567 30.8767 394.098 28.3772 390.965 26.9664C387.03 25.1864 383.39 23.1585 379.04 22.7669C373.635 22.2848 368.67 24.547 364.881 28.3341C363.38 29.8324 361.345 33.6729 362.008 35.8535Z" fill="#653E37"/>
<path d="M374.106 23.9004C374.845 23.2801 375.725 22.8507 376.669 22.6499C377.616 22.4097 378.594 22.3162 379.569 22.3725C380.548 22.4351 381.512 22.6451 382.428 22.9955C383.349 23.351 384.236 23.7874 385.08 24.2995C386.782 25.3126 388.375 26.5157 390.079 27.5481C390.928 28.0716 391.818 28.5255 392.74 28.9054C393.662 29.2852 394.629 29.544 395.617 29.6753C394.633 29.5253 393.674 29.249 392.761 28.8535C391.851 28.4572 390.975 27.9884 390.14 27.4517C388.461 26.3911 386.896 25.1598 385.199 24.1037C384.351 23.5669 383.458 23.1062 382.529 22.7271C381.591 22.3485 380.601 22.1134 379.593 22.0298C378.581 21.951 377.563 22.0286 376.574 22.2598C375.559 22.4581 374.608 22.9022 373.805 23.5533L374.106 23.9004Z" fill="#653E37"/>
<path d="M391.832 28.2681C392.486 28.2814 393.129 28.6018 393.753 28.9386C394.378 29.2753 395.009 29.6343 395.661 29.9502C396.308 30.2753 396.991 30.5241 397.696 30.6919C398.399 30.8634 399.131 30.8882 399.844 30.7646C399.132 30.8493 398.411 30.7872 397.724 30.5822C397.041 30.3787 396.384 30.097 395.766 29.7426C395.142 29.3984 394.539 29.0112 393.924 28.6359C393.614 28.44 393.292 28.2637 392.959 28.1079C392.611 27.945 392.237 27.8446 391.854 27.8112L391.832 28.2681Z" fill="#653E37"/>
<path d="M379.109 55.8898C379.332 55.8934 379.554 55.875 379.773 55.8349L379.109 55.8898Z" stroke="#234662" stroke-width="0.148341" stroke-miterlimit="10"/>
<path opacity="0.68" d="M367.081 50.9681C366.717 51.7974 366.413 52.6429 366.13 53.4899C365.846 54.337 365.593 55.2003 365.349 56.0622L365.177 56.7119C365.148 56.8291 365.121 56.9092 365.09 57.056C365.061 57.1961 365.055 57.3398 365.072 57.4818C365.107 57.7641 365.228 58.0287 365.419 58.2398C365.602 58.4435 365.844 58.5859 366.11 58.6477C366.975 58.8895 367.846 59.1091 368.738 59.2708C367.931 58.8599 367.106 58.5098 366.268 58.1805C366.181 58.1501 366.098 58.1076 366.023 58.0544C365.953 58.006 365.891 57.9475 365.839 57.8808C365.736 57.7491 365.676 57.5892 365.667 57.4224C365.663 57.3418 365.669 57.2611 365.686 57.1821C365.702 57.108 365.744 56.9759 365.772 56.8751L365.958 56.2298C366.189 55.365 366.415 54.4972 366.603 53.6205C366.791 52.7438 366.969 51.8671 367.081 50.9681Z" fill="#FF888A"/>
<path d="M388.398 40.2951C388.46 40.309 388.518 40.3336 388.57 40.3678C388.744 40.5024 388.871 40.6882 388.934 40.8988C389.057 41.2002 389.156 41.5107 389.231 41.8275C389.342 42.3278 389.399 42.8384 389.403 43.3509C389.431 44.7453 389.176 46.0997 389.432 47.6127C389.452 47.7255 389.557 48.1928 389.695 48.7876C389.71 48.8558 389.726 48.9256 389.744 48.9982C389.929 49.8097 390.161 50.7976 390.306 51.4473C390.37 51.576 390.465 51.6871 390.582 51.7707C391.107 52.1208 392.156 50.943 392.74 50.8332C393.96 50.6092 395.39 51.4266 395.492 52.6548C395.629 54.3162 394.445 55.7922 393.402 56.9567C392.801 57.6287 392.051 58.1924 391.474 58.8851C390.837 59.6521 391.029 59.6268 390.959 60.4946C390.721 63.2656 389.852 65.958 389.253 68.7068C390.152 67.5586 391.051 66.41 391.951 65.2608C393.228 63.6291 394.507 61.9973 395.675 60.284C396.668 58.8298 397.579 57.3213 398.404 55.7655C398.404 55.7655 403.081 50.2666 399.887 38.4408C397.205 41.3513 389.785 40.4865 388.398 40.2951Z" fill="#41211E"/>
<path opacity="0.35" d="M362.172 54.5679C364.916 56.3391 368.097 56.8554 371.462 57.7558C373.137 58.2008 374.84 58.6562 376.574 58.6458C377.966 58.6458 379.338 58.3313 380.691 58.0005C382.16 57.6396 383.622 57.2485 385.077 56.8272C386.116 56.5305 387.164 56.2071 388.243 56.2338C389.889 56.2798 391.401 57.1313 393.021 57.4309C393.059 57.4309 393.096 57.4443 393.135 57.4487C393.233 57.3493 393.329 57.2485 393.423 57.152C394.461 55.992 395.648 54.516 395.511 52.8502C395.387 51.3252 394.12 51.5299 393.178 50.9929C392.862 50.801 392.588 50.546 392.374 50.2438C391.784 50.046 391.182 49.8854 390.572 49.7632C386.366 48.9043 382.021 49.2588 377.73 49.1135C374.751 49.0126 371.777 48.6684 368.8 48.7663C367.064 48.8026 365.339 49.0552 363.666 49.5184C363.657 49.9234 363.651 50.3284 363.652 50.7319C363.589 50.8105 363.523 50.8802 363.459 50.9618C362.629 51.9735 362.277 53.2447 362.172 54.5679Z" fill="#FF888A"/>
<path d="M383.965 39.7774C383.529 39.6208 383.079 39.507 382.621 39.4375C383.075 39.525 383.524 39.6385 383.965 39.7774Z" fill="#41211E"/>
<path opacity="0.35" d="M363.322 41.4387C364.421 42.3391 366.231 42.2026 367.553 42.4993C369.135 42.8534 370.717 43.2267 372.3 43.6193C375.453 44.4045 378.587 45.2649 381.7 46.2004C382.418 46.4155 387.559 48.4092 389.737 48.9981C389.719 48.9254 389.703 48.8498 389.688 48.7875C389.55 48.1941 389.445 47.7254 389.426 47.6126C389.169 46.0995 389.426 44.7452 389.396 43.3508C388.896 43.1268 388.381 42.9265 387.889 42.6907C386.382 41.9638 385.051 40.8809 383.476 40.3172C381.534 39.6245 379.41 39.7847 377.349 39.8307C375.478 39.8705 373.606 39.8071 371.742 39.6408C370.555 39.5355 369.389 39.1498 368.201 39.0474C367.117 38.9584 366.025 39.1542 364.923 39.0207C364.306 38.9466 363.613 38.8338 363.122 39.2121C362.442 39.7387 362.66 40.8958 363.322 41.4387Z" fill="#FF888A"/>
<path d="M362.762 36.7426C362.788 36.841 362.822 36.9372 362.863 37.0303C362.89 37.0886 362.921 37.1447 362.957 37.198C363.014 37.2868 363.09 37.3625 363.178 37.4203C363.267 37.4781 363.367 37.5165 363.471 37.5332C364.031 37.6341 364.817 37.2825 365.651 37.3003C367.331 37.3359 368.967 37.8937 370.583 38.3001C373.98 39.1709 377.359 38.941 380.747 39.2629C381.004 39.2718 381.259 39.2836 381.513 39.3029C381.885 39.3263 382.255 39.3714 382.622 39.4379L382.723 39.4572C382.849 39.4453 382.972 39.4199 383.092 39.3815C382.563 39.3074 382.033 39.2139 381.51 39.1027C379.553 38.7083 377.67 38.0122 375.928 37.0392C374.171 36.0379 372.536 34.8393 370.884 33.6749C370.291 33.2551 369.687 32.8353 369.007 32.5831C367.147 31.8903 365.002 32.5757 363.457 33.8291C362.724 34.4284 362.526 35.8481 362.762 36.7426Z" fill="#41211E"/>
<path d="M351.887 42.5938L351.623 50.088C351.596 50.8569 351.864 51.6071 352.372 52.1845C352.88 52.7619 353.591 53.1227 354.357 53.1928L375.866 55.8377H376.311C377.043 55.7957 377.733 55.4883 378.254 54.9732C378.775 54.4582 379.09 53.7708 379.14 53.04L379.805 43.4112C379.85 42.7467 379.674 42.0858 379.304 41.5321C378.934 40.9784 378.391 40.563 377.759 40.3509C377.444 40.2432 377.112 40.19 376.779 40.1937L354.864 39.6834C354.089 39.6925 353.347 40 352.792 40.542C352.238 41.084 351.914 41.8189 351.887 42.5938Z" fill="#FECE62"/>
<path d="M352.779 43.1328L352.572 49.5856C352.527 50.9592 353.631 52.137 355.093 52.2706L357.409 52.5494L360.983 52.9811L362.763 53.1977L363.396 53.2733L364.341 53.3876L367.113 53.7228L368.152 53.8474L369.119 53.9646L370.507 54.1322L371.718 54.2806L373.105 54.4467L374.017 54.558L374.78 54.6499H375.194C376.555 54.5847 377.677 53.5745 377.767 52.2542L378.331 43.9664C378.411 42.756 377.6 41.6909 376.444 41.3215C376.154 41.2271 375.851 41.18 375.547 41.1821L371.516 41.0723L370.565 41.0471L369.19 41.01L367.778 40.9715L365.649 40.9151L365.388 40.9077L364.635 40.8869L361.727 40.8083L360.951 40.7875L360.54 40.7771L358.612 40.7252L355.82 40.6496L355.497 40.6407C354.024 40.6496 352.824 41.7443 352.779 43.1328Z" fill="#9E3A02"/>
<path d="M376.324 55.8438L379.112 55.8898L379.775 55.8349C380.531 55.6971 381.218 55.3069 381.724 54.7282C382.229 54.1494 382.524 53.4163 382.559 52.6485L382.948 44.291C382.977 43.6547 382.799 43.0261 382.441 42.4991C382.084 41.9721 381.565 41.575 380.963 41.3672L377.782 40.2725L377.772 40.357C378.403 40.5691 378.947 40.9845 379.317 41.5382C379.687 42.092 379.863 42.7528 379.818 43.4173L379.153 53.0461C379.103 53.7769 378.788 54.4643 378.267 54.9794C377.746 55.4944 377.056 55.8018 376.324 55.8438Z" fill="#FD922A"/>
<path d="M379.77 55.8621L384.325 55.4898C385.309 55.4087 386.235 54.9863 386.941 54.2957C387.647 53.605 388.089 52.6894 388.192 51.7071L388.661 47.1738C388.67 47.0892 388.676 47.0076 388.679 46.9246C388.71 46.1121 388.479 45.3112 388.021 44.6398C387.562 43.9684 386.9 43.462 386.132 43.1953L380.956 41.3959C381.559 41.6028 382.078 41.9995 382.436 42.5264C382.793 43.0533 382.971 43.682 382.941 44.3182L382.554 52.6757C382.519 53.4436 382.224 54.1769 381.719 54.7557C381.213 55.3345 380.526 55.7245 379.77 55.8621Z" fill="#F07222"/>
<path d="M387.773 53.1503C391.779 53.6902 400.439 54.6173 400.439 54.6173C402.235 54.5031 401.602 47.5103 401.602 47.5103C400.83 48.1304 392.581 47.3353 388.681 46.917C388.681 47 388.672 47.0816 388.663 47.1662L388.195 51.6995C388.143 52.2045 388 52.696 387.773 53.1503Z" fill="#9E3A02"/>
<g opacity="0.56">
<path d="M358.617 40.7306C359.237 44.7595 360.015 48.9887 360.977 52.9806L362.757 53.1972L363.391 53.2728L364.336 53.387L367.108 53.7223L368.147 53.8469C367.325 49.6518 366.453 45.1615 365.644 40.9205L365.383 40.9131L364.629 40.8923L361.722 40.8137L360.946 40.7929L360.535 40.7825L358.617 40.7306ZM369.192 41.0154C369.971 45.4879 370.836 50.1265 371.714 54.2786L373.101 54.4447L374.013 54.556C373.23 50.352 372.354 45.6259 371.512 41.0777L370.562 41.0525L369.192 41.0154Z" fill="#FECE62"/>
</g>
<path d="M363.645 60.5777C363.681 61.2941 363.882 62.6915 364.851 63.8693L364.863 63.8842C364.906 63.9376 364.951 63.988 364.997 64.0325C365.536 64.6503 366.267 65.0684 367.073 65.2192L369.116 65.5856H369.138C369.418 65.6344 369.705 65.6267 369.983 65.563C370.26 65.4993 370.521 65.3809 370.752 65.2148C370.81 65.1764 370.865 65.1348 370.918 65.0902C371.27 64.8113 371.539 64.4407 371.694 64.0192L371.872 63.5549L372.274 62.4972C372.296 62.4467 372.307 62.3923 372.308 62.3372C372.308 62.2822 372.297 62.2277 372.276 62.177C372.254 62.1263 372.223 62.0804 372.183 62.0421C372.144 62.0038 372.097 61.9739 372.046 61.9543C371.951 61.9305 371.842 61.8979 371.721 61.8653C370.166 61.4469 366.483 60.4723 364.6 60.1742C364.394 60.1415 364.21 60.1193 364.052 60.103C363.992 60.1034 363.934 60.1165 363.88 60.1415C363.826 60.1664 363.779 60.2026 363.74 60.2476C363.702 60.2927 363.673 60.3454 363.657 60.4023C363.64 60.4593 363.636 60.5191 363.645 60.5777Z" fill="#B52A2D"/>
<path d="M364.961 63.8852C364.96 63.9366 364.972 63.9875 364.995 64.0335C365.096 64.2679 365.44 64.4889 365.778 64.7322C366.101 64.9581 366.47 65.1101 366.858 65.1772C367.6 65.3107 368.351 65.511 369.097 65.5807H369.116C369.684 65.623 370.252 65.4949 370.748 65.2128C370.805 65.1744 370.861 65.1328 370.914 65.0882C371.266 64.8093 371.534 64.4387 371.69 64.0172L371.868 63.5529C370.989 63.6387 370.104 63.6317 369.227 63.5321C368.486 63.4357 367.754 63.2354 367.002 63.182C366.498 63.1449 365.749 63.1316 365.304 63.4253C365.068 63.5989 364.965 63.7457 364.961 63.8852Z" fill="#FA8887"/>
<path d="M364.605 60.1855C364.846 60.6378 365.133 61.063 365.464 61.4538C365.505 61.5038 365.555 61.5447 365.613 61.5739C367.293 62.3987 370.656 62.4462 371.499 62.4447C371.555 62.4402 371.607 62.4145 371.645 62.3729C371.683 62.3313 371.703 62.2769 371.702 62.2207L371.72 61.8765C370.17 61.4567 366.485 60.4836 364.605 60.1855Z" fill="white"/>
<path opacity="0.35" d="M370.992 70.4867C371.688 70.727 372.204 71.0252 372.241 71.4079C372.241 71.4168 372.553 75.4131 371.796 78.6202C372.252 78.3235 372.513 77.7405 372.78 77.2392C373.515 75.8724 374.679 74.7855 376.094 74.1462C376.953 73.7635 377.883 73.5529 378.722 73.1301C379.491 72.7429 380.16 72.1867 380.821 71.6348L384.233 68.7912C383.115 69.1487 382.19 69.3845 381.091 69.7895C376.961 71.3144 371.121 70.506 370.992 70.4867Z" fill="#FF888A"/>
<path d="M374.109 93.0094L380.251 91.5067L377.364 86.2436L374.109 93.0094Z" fill="#E0DBC4"/>
<path d="M375.08 85.3917L374.11 93.009L370.59 90.0348L375.08 85.3917Z" fill="#E0DBC4"/>
<path d="M371.724 76.8252C371.724 76.8252 370.139 81.1167 375.077 85.3919L368.524 92.1354C368.524 92.1354 365.6 82.7292 368.068 80.0739C368.068 80.0739 371.425 77.5432 371.724 76.8252ZM377.362 86.2434L380.249 91.5065L382.729 96.0294L393.538 82.7944C393.538 82.7944 390.977 78.0475 389.108 75.904C389.099 75.9025 385.452 81.6522 377.362 86.2434Z" fill="white"/>
<path d="M273.941 120.521C273.658 121.387 273.213 122.568 273.496 123.488C273.867 124.674 276.537 123.771 276.537 123.771C276.537 123.771 273.828 134.618 271.419 134.8C271.05 134.827 270.344 134.368 270.006 134.235C269.089 133.873 268.174 133.481 267.238 133.164C266.604 132.947 265.963 133.196 265.34 133.324C264.044 133.59 262.859 133.555 261.687 132.903C260.629 132.309 259.748 131.44 259.032 130.466C257.788 128.77 257.56 126.33 257.3 124.216C257.183 123.271 257.197 122.458 256.756 121.604C256.18 120.494 255.569 119.405 254.976 118.306C253.954 116.41 252.931 114.515 251.907 112.62C251.907 112.62 250.487 110.276 250.997 109.137C251.508 107.998 252.125 108.339 252.125 108.339L256.611 114.569L257.68 116.053L257.665 115.904L257.269 111.738L255.295 106.66C255.295 106.66 254.427 104.264 254.998 103.085L255.666 102.543L259.131 108.036L260.156 110.686L262.132 115.79L262.021 115.436C261.8 114.574 261.837 113.473 261.731 112.641C261.599 111.419 261.386 110.207 261.095 109.013C260.782 107.836 260.269 106.676 259.939 105.532C259.61 104.389 259.026 102.862 259.287 101.652C259.417 101.059 260.206 99.6597 260.948 99.9193C261.082 99.9758 261.188 100.082 261.245 100.216L262.936 103.752C263.594 105.126 264.254 106.501 264.913 107.878C264.271 106.501 263.93 105.002 263.913 103.482C263.931 102.704 264.09 101.936 264.382 101.214C264.52 100.907 264.688 100.582 264.937 100.413C265.53 100.008 265.679 100.763 265.906 101.208C267.122 103.64 268.048 106.155 269.062 108.659C269.225 109.057 269.317 109.481 269.335 109.91C269.406 111.628 269.632 116.225 269.94 116.634C270.331 117.136 273.607 112.23 276.144 113.902C276.144 113.902 277.641 115.109 277.691 115.445C277.751 115.832 276.687 116.447 276.427 116.622C275.876 116.996 275.396 117.466 275.012 118.011C274.456 118.748 274.223 119.656 273.941 120.521Z" fill="#FFD5CC"/>
<g opacity="0.35">
<path d="M264.922 107.871C265.162 108.277 265.382 108.696 265.579 109.125C265.69 109.345 265.775 109.576 265.833 109.816C265.888 110.056 265.916 110.302 265.917 110.549C265.917 111.017 265.917 111.488 265.892 111.958C265.867 112.428 265.662 115.666 265.595 116.137C265.515 115.668 265.644 112.428 265.613 111.961C265.582 111.494 265.567 111.022 265.56 110.552C265.562 110.102 265.481 109.655 265.322 109.234C265.166 108.787 265.032 108.332 264.922 107.871Z" fill="#FF888A"/>
</g>
<g opacity="0.35">
<path d="M269.113 120.97C268.366 121.35 267.719 121.903 267.228 122.582C266.743 123.255 266.382 124.009 266.16 124.807C265.9 125.598 265.819 126.439 265.731 127.265C265.731 127.685 265.7 128.105 265.694 128.528C265.688 128.951 265.722 129.372 265.721 129.799C265.642 129.382 265.572 128.959 265.517 128.537C265.482 128.112 265.466 127.684 265.449 127.256C265.458 127.041 265.469 126.828 265.483 126.613C265.49 126.398 265.51 126.183 265.543 125.97L265.651 125.333C265.668 125.226 265.693 125.12 265.725 125.017L265.813 124.704L265.905 124.392C265.94 124.29 265.985 124.19 266.026 124.095L266.149 123.799L266.212 123.65C266.237 123.603 266.265 123.555 266.29 123.502C266.4 123.314 266.495 123.118 266.618 122.938C266.741 122.759 266.863 122.578 267.008 122.416C267.287 122.083 267.607 121.787 267.962 121.536C268.31 121.282 268.699 121.09 269.113 120.97Z" fill="#FF888A"/>
</g>
<g opacity="0.35">
<path d="M259.645 123.612C259.798 123.578 259.955 123.564 260.112 123.572C260.269 123.572 260.426 123.586 260.582 123.602C260.895 123.637 261.204 123.693 261.509 123.771C262.123 123.928 262.712 124.168 263.261 124.485C263.812 124.806 264.304 125.221 264.713 125.71C265.119 126.196 265.416 126.764 265.584 127.374C265.292 126.835 264.929 126.339 264.503 125.898C264.079 125.47 263.6 125.099 263.079 124.796C262.555 124.491 262.002 124.238 261.429 124.041C261.141 123.942 260.848 123.851 260.551 123.776C260.403 123.736 260.254 123.703 260.106 123.672C260.03 123.656 259.958 123.642 259.879 123.63C259.802 123.615 259.723 123.609 259.645 123.612Z" fill="#FF888A"/>
</g>
<path d="M364.029 81.2255C363.992 81.3916 363.814 81.5949 363.752 81.764C363.683 81.9502 363.627 82.141 363.584 82.3351C363.444 82.9566 363.39 83.6197 363.181 84.219C362.936 84.9296 362.691 85.6401 362.456 86.3521C361.899 88.0432 361.344 89.7447 360.535 91.3334C358.955 94.4397 358.209 98.3381 357.393 101.707C355.422 109.833 354.466 118.171 354.546 126.532C354.622 134.064 355.544 141.573 355.406 149.109C355.386 150.234 355.353 151.355 355.317 152.475C355.131 157.955 354.788 163.397 354.832 168.902C354.881 174.521 353.942 179.835 351.09 184.761C348.875 188.59 345.398 192.073 341.014 192.686C337.094 193.23 323.524 191.401 327.355 185.654C328.443 184.023 330.401 182.548 331.626 180.884C332.724 179.408 333.707 177.849 334.565 176.221C335.605 174.261 336.378 172.171 336.862 170.006C338.413 162.905 337.208 154.644 336.417 147.331C336.417 147.322 336.417 147.316 336.417 147.308C336.368 146.872 336.324 146.44 336.279 146.013L336.235 145.583C336.205 145.304 336.179 145.028 336.147 144.749L336.058 143.944C336.036 143.745 336.015 143.551 335.993 143.351C335.616 143.689 335.232 144.03 334.84 144.37C327.321 150.897 317.216 157.438 313.171 157.983C312.997 158 312.822 158 312.649 157.983C311.665 157.937 310.662 157.649 309.692 157.3C309.007 157.056 308.336 156.777 307.702 156.529C305.104 155.513 302.565 154.349 300.046 153.156L299.841 153.059C293.809 150.198 287.886 147.109 281.999 143.969C279.427 142.598 276.864 141.214 274.309 139.816C273.335 139.284 272.362 138.748 271.389 138.209C270.372 137.647 268.414 137.254 269.609 136.043C269.66 135.993 269.717 135.938 269.78 135.883C273.396 132.732 275.633 128.298 277.447 123.888L277.68 123.32C279.653 121.35 312.244 135.566 313.795 131.728C316.179 125.855 321.757 120.35 325.623 115.44C331.215 108.339 337.431 101.913 341.086 93.5467C342.05 91.3394 344.637 89.4732 346.736 88.4497C349.228 87.2377 351.735 86.0584 354.242 84.8895C355.577 84.2665 356.894 83.6078 358.247 83.0041C358.603 82.8429 358.962 82.6857 359.323 82.5324C360.25 82.1422 361.152 81.6898 362.103 81.3545C362.577 81.1869 363.067 80.9674 363.576 80.9347C363.765 80.9229 364.004 80.9347 364.049 81.0935C364.052 81.1384 364.046 81.1835 364.029 81.2255Z" fill="#234662"/>
<path opacity="0.2" d="M364.765 154.694C363.84 153.973 362.865 153.323 361.957 152.561C361.696 152.311 361.396 152.108 361.067 151.958C360.314 151.677 359.493 152.027 358.749 151.748C358.173 151.533 357.482 150.858 357.023 150.451C356.251 149.765 355.596 148.949 354.798 148.292C353.296 147.066 351.379 146.467 349.446 146.618C347.791 146.756 346.278 147.292 344.612 146.964C343.088 146.667 341.592 146.191 340.067 145.878C339.522 145.767 338.956 145.654 338.51 145.322C337.23 144.366 337.699 142.331 338.536 140.971C341.354 136.372 346.975 133.813 352.357 134.193C357.738 134.573 362.751 137.681 365.93 142.039C368.6 145.701 371.936 153.322 370.11 157.763C368.453 157.361 366.709 156.32 365.418 155.219C365.203 155.04 364.985 154.864 364.765 154.694Z" fill="#081A35"/>
<path d="M364.03 81.2253C363.992 81.3915 363.814 81.5947 363.752 81.7638C363.683 81.95 363.627 82.1409 363.585 82.3349C363.444 82.9565 363.39 83.6195 363.181 84.2188C362.936 84.9294 362.692 85.6399 362.456 86.352C361.899 88.0431 361.345 89.7445 360.535 91.3333C358.955 94.4395 358.209 98.3379 357.393 101.707C355.423 109.832 354.466 118.171 354.546 126.532C354.622 134.064 355.545 141.573 355.407 149.109C355.386 150.233 355.353 151.355 355.318 152.475C354.902 153.633 354.549 153.762 354.303 152.398C353.364 147.206 352.908 141.906 352.336 136.674C351.467 128.725 350.658 120.771 349.909 112.811C349.612 109.705 349.316 106.599 349.062 103.49C348.678 98.8526 350.545 95.5758 352.91 91.7367C354.697 88.8382 356.497 85.944 358.229 83.0113C358.585 82.8501 358.944 82.6929 359.305 82.5396C360.232 82.1495 361.134 81.697 362.085 81.3618C362.56 81.1942 363.049 80.9746 363.558 80.942C363.748 80.9301 363.987 80.942 364.031 81.1007C364.039 81.1419 364.039 81.1844 364.03 81.2253Z" fill="#1D2F49"/>
<path opacity="0.36" d="M339.109 169.078C339.098 170.065 339.081 171.07 338.759 172.002C338.463 172.892 337.89 173.663 337.335 174.42C336.325 175.795 335.239 177.238 333.67 177.904C334.005 177.756 334.303 177.109 334.56 176.221C335.6 174.261 336.373 172.17 336.858 170.005C338.408 162.904 337.203 154.643 336.413 147.33C336.413 147.321 336.413 147.315 336.413 147.308C336.327 146.459 336.237 145.606 336.143 144.749L336.054 143.943C336.031 143.745 336.011 143.55 335.988 143.35C335.611 143.688 335.227 144.029 334.836 144.369C327.316 150.896 317.211 157.438 313.166 157.982C312.992 157.999 312.818 157.999 312.644 157.982C311.66 157.936 310.658 157.649 309.688 157.3C311.646 156.707 313.501 155.889 315.143 154.667C316.464 153.682 317.596 152.468 318.867 151.424C322.575 148.373 327.442 146.786 330.681 143.231C333.137 140.536 334.4 137.001 335.603 133.551C335.603 132.273 336.626 130.567 336.929 129.292C337.089 128.617 337.214 127.931 337.386 127.694C337.586 125.959 337.966 124.25 338.519 122.594C339.035 125.555 339.551 128.515 340.066 131.475C340.363 133.155 340.66 134.832 340.838 136.528C342.026 147.38 339.258 158.272 339.109 169.078Z" fill="#081A35"/>
<path d="M372.023 143.709L369.142 146.388L367.226 148.168L365.297 149.957L364.75 149.749L361.445 148.499C361.235 148.43 361.011 148.414 360.794 148.45C360.405 148.49 359.987 148.598 359.626 148.549C358.588 148.39 357.649 147.894 356.834 147.241C356.569 147.031 356.317 146.805 356.081 146.563C355.05 145.525 354.456 144.173 353.522 143.059C352.967 142.397 351.829 142.53 351.08 142.641C350.298 142.758 349.517 142.863 348.73 142.957C347.853 143.064 346.974 143.154 346.091 143.228C344.259 143.377 342.611 143.228 340.794 142.991C340.192 142.914 339.346 142.829 338.866 142.398C338.578 142.138 338.403 141.714 338.155 141.405C338.107 141.345 338.074 141.274 338.059 141.199C338.045 141.123 338.049 141.045 338.072 140.972C338.095 140.898 338.136 140.831 338.191 140.778C338.246 140.724 338.314 140.685 338.388 140.663L338.47 140.64L341.655 137.16C341.975 136.81 342.361 136.525 342.789 136.321L348.518 133.607C349.471 133.154 351.12 133.236 352.157 133.123C354.007 132.923 356.413 132.419 358.201 133.08C359.668 133.625 362.396 134.804 363.357 135.998C363.357 135.998 367.552 141.19 368.4 142.061C368.688 142.322 369.013 142.538 369.365 142.703C369.755 142.896 370.156 143.069 370.565 143.221C371.36 143.52 372.023 143.709 372.023 143.709Z" fill="#FFD5CC"/>
<path d="M422.445 133.687C422.372 140.61 422.179 147.539 421.678 154.447C421.478 157.223 421.233 160.003 420.838 162.754C420.525 164.935 419.727 167.353 418.54 169.672C416.136 174.352 412.141 178.585 407.351 179.462C407.303 179.471 407.259 179.493 407.222 179.524C407.174 179.569 407.145 179.631 407.14 179.696C407.123 180.002 407.102 180.306 407.084 180.606C406.954 182.571 406.807 184.412 406.639 186.08C406.129 191.107 405.414 194.55 404.423 195.088C403.224 195.739 402.017 196.628 400.763 197.56C397.351 200.093 393.582 202.94 388.648 202.183C381.939 201.145 364.35 201.479 361.094 195.191C361.078 195.158 361.068 195.123 361.067 195.086C361.065 195.05 361.071 195.014 361.085 194.98C361.643 193.569 367.447 178.599 366.854 167.731C366.706 165.094 366.916 161.151 367.373 156.551C367.433 155.947 367.497 155.331 367.566 154.705C367.578 154.59 367.593 154.473 367.605 154.357C367.609 154.313 367.602 154.27 367.584 154.23C367.567 154.19 367.541 154.154 367.507 154.127L367.099 153.801C366.991 153.716 366.885 153.63 366.784 153.547C365.099 152.194 364.004 151.254 363.74 150.923C363.644 150.791 363.575 150.641 363.539 150.481C363.503 150.322 363.5 150.156 363.53 149.996C363.558 149.778 363.611 149.564 363.688 149.358C364.185 147.969 365.225 146.751 366.192 145.666C366.762 145.026 367.516 144.455 368.019 143.768C368.214 143.503 368.338 143.227 368.57 142.976C368.848 142.684 369.142 142.407 369.45 142.147C369.962 141.702 370.392 141.166 370.908 140.721C371.107 140.535 371.335 140.385 371.585 140.276C371.705 140.232 371.833 140.211 371.961 140.216C374.025 140.321 376.597 143.479 378.488 144.382C379.847 145.037 381.27 145.56 382.664 146.142C383.987 146.692 385.284 147.296 386.474 148.11C387.254 148.643 387.981 149.263 388.822 149.692C389.575 150.079 390.399 150.301 391.218 150.522L400.943 153.136C399.768 150.509 400.219 147.478 400.691 144.642C401.185 141.708 401.675 138.774 402.159 135.84C402.241 135.35 402.324 134.862 402.404 134.371C402.69 132.656 403.285 131.225 403.788 129.615C404.105 128.596 404.322 127.538 404.616 126.509C404.958 125.307 404.912 122.926 405.654 121.949L400.326 128.952C398.623 131.194 397.254 133.333 396.264 135.952C395.453 138.105 394.371 140.276 392.321 141.494C389.325 143.274 385.523 142.346 382.152 141.442C378.259 140.4 374.338 139.461 370.391 138.624L369.919 138.541C369.874 138.792 369.827 139.042 369.782 139.294C369.77 139.292 369.757 139.292 369.744 139.294C371.714 127.724 374.342 116.434 376.606 112.123C379.214 107.15 382.528 102.518 385.759 97.9385C387.414 95.5918 389.095 93.2628 390.802 90.9517C392.106 89.1716 394.533 86.8575 394.529 84.4662C394.528 84.4182 394.541 84.371 394.566 84.33C394.591 84.289 394.627 84.2559 394.67 84.2346C394.713 84.2134 394.761 84.2047 394.809 84.2097C394.856 84.2148 394.902 84.2332 394.939 84.263C398.887 87.3351 403.478 89.7768 407.652 92.5107C411.61 95.1008 418.45 98.204 421.027 102.369C421.03 102.373 421.033 102.377 421.036 102.381C422.611 104.936 422.046 110.104 422.169 112.939C422.474 119.85 422.516 126.773 422.445 133.687Z" fill="#234662"/>
<path d="M405.646 121.958C404.904 122.936 404.953 125.316 404.607 126.518C404.311 127.545 404.097 128.605 403.78 129.624C403.277 131.234 402.682 132.665 402.396 134.38C402.315 134.871 402.232 135.359 402.151 135.849C401.656 138.783 401.167 141.717 400.682 144.651C400.21 147.487 399.76 150.518 400.934 153.145L391.209 150.531C390.39 150.31 389.567 150.086 388.813 149.701C387.972 149.272 387.245 148.652 386.465 148.119C385.278 147.305 383.979 146.701 382.656 146.151C381.261 145.569 379.837 145.046 378.48 144.392C376.593 143.484 374.021 140.33 371.953 140.225C371.825 140.22 371.697 140.241 371.576 140.285C371.327 140.394 371.098 140.545 370.9 140.731C370.304 141.252 369.745 141.815 369.227 142.414L369.32 141.821C369.455 140.98 369.596 140.134 369.738 139.299C369.751 139.297 369.764 139.297 369.777 139.299C369.821 139.047 369.869 138.796 369.913 138.545L370.385 138.629C374.33 139.457 378.251 140.397 382.147 141.447C385.517 142.35 389.319 143.28 392.316 141.499C394.366 140.281 395.447 138.109 396.259 135.957C397.248 133.337 398.617 131.198 400.32 128.957L405.646 121.958Z" fill="#234662"/>
<path d="M277.437 123.898C275.623 128.308 273.386 132.742 269.769 135.893C269.707 135.948 269.649 136.003 269.599 136.053L266.564 134.668C266.439 134.623 266.327 134.551 266.236 134.455C266.067 134.255 266.114 133.939 266.267 133.724C266.439 133.524 266.647 133.358 266.881 133.236C270.462 131.011 272.304 126.889 275.019 123.661C275.123 123.509 275.273 123.394 275.446 123.333C275.648 123.284 275.856 123.385 276.04 123.472C276.491 123.659 276.959 123.801 277.437 123.898Z" fill="#E0DBC4"/>
<path opacity="0.35" d="M338.48 140.645C340.606 140.189 342.745 139.824 344.887 139.48C347.029 139.136 349.179 138.836 351.342 138.617C349.217 139.074 347.078 139.439 344.935 139.78C342.791 140.121 340.643 140.425 338.48 140.645ZM339.405 139.633C340.126 138.86 340.842 138.099 341.612 137.363C342.413 136.642 343.368 136.112 344.405 135.816C346.429 135.232 348.459 134.669 350.514 134.184C348.525 134.886 346.509 135.505 344.491 136.099C343.495 136.391 342.571 136.887 341.778 137.556C341.579 137.719 341.389 137.9 341.192 138.077L340.599 138.605C340.209 138.943 339.816 139.293 339.405 139.633ZM355.522 145.009C355.844 145.814 356.288 146.564 356.839 147.234C356.574 147.024 356.322 146.798 356.086 146.556C355.055 145.518 354.461 144.166 353.527 143.052C352.972 142.391 351.834 142.523 351.085 142.634C350.303 142.751 349.521 142.856 348.735 142.95L349.234 142.739C350.732 142.101 352.554 141.49 353.89 142.419C354.739 143.015 355.114 144.059 355.522 145.009ZM369.145 142.822C366.932 144.762 364.425 147.498 363.755 149.368L361.45 148.496C361.24 148.428 361.016 148.411 360.798 148.447C361.865 148.016 362.727 147.054 363.598 146.241C365.069 144.865 366.739 143.985 368.551 143.144C368.733 143.06 368.935 142.932 369.145 142.822Z" fill="#FF888A"/>
<path opacity="0.22" d="M259.126 123.969C259.265 123.05 257.86 120.691 258.946 120.151C259.54 119.855 260.212 120.626 260.86 120.475C261.34 120.363 261.555 119.822 261.766 119.375C261.977 118.929 262.423 118.456 262.883 118.634C263.031 118.694 263.159 118.824 263.31 118.895C263.647 119.052 264.052 118.895 264.349 118.674C264.687 118.435 264.977 118.133 265.2 117.784C265.334 117.573 265.454 117.339 265.673 117.216C266.207 116.919 267.179 117.262 267.523 117.739C267.753 118.057 267.952 118.405 268.174 118.733C268.397 119.061 268.698 119.353 268.892 119.706C269.018 119.921 269.077 120.169 269.063 120.418C269.049 120.666 268.961 120.905 268.812 121.105C268.65 121.277 268.46 121.42 268.25 121.528C267.94 121.739 267.65 121.978 267.384 122.241C267.19 122.405 267.021 122.596 266.884 122.809C266.767 123.014 266.71 123.254 266.608 123.462C266.506 123.67 266.374 123.845 266.259 124.038C265.979 124.553 265.796 125.115 265.719 125.696C265.636 126.187 265.719 126.669 265.439 127.111C265.535 126.963 264.994 126.309 264.893 126.201C264.634 125.917 264.251 125.767 264.012 125.477C263.506 124.878 262.835 124.44 262.084 124.217C261.275 123.965 259.897 123.603 259.126 123.969Z" fill="#FF888A"/>
<path opacity="0.35" d="M257.773 117.842C257.763 118.435 257.736 119.042 257.675 119.644C257.607 118.967 257.675 118.309 257.559 117.631C257.415 116.906 257.207 116.194 256.939 115.505L256.605 114.557L257.675 116.041L257.66 115.892C257.685 115.928 257.709 115.959 257.736 115.992L257.748 116.008V116.036C257.774 116.64 257.78 117.242 257.773 117.842ZM262.36 117.842C261.626 116.215 261.036 114.527 260.596 112.798C260.379 111.927 260.243 111.23 260.151 110.689L262.127 115.793L262.36 117.842Z" fill="#FF888A"/>
<path d="M338.29 117.695C338.079 115.137 338.015 112.569 338.097 110.004C338.164 107.432 338.393 104.868 338.781 102.325C339.194 99.7874 339.772 97.2522 340.797 94.8714C341.293 93.6712 341.957 92.5478 342.77 91.5352C343.599 90.5458 344.645 89.6928 345.872 89.2908C345.287 89.5475 344.743 89.8878 344.256 90.301C343.775 90.7133 343.343 91.1803 342.969 91.6924C342.226 92.7195 341.621 93.8403 341.171 95.0256C340.71 96.2098 340.33 97.4241 340.035 98.66C339.738 99.8957 339.487 101.146 339.293 102.406C339.099 103.665 338.934 104.927 338.806 106.202C338.679 107.476 338.581 108.746 338.501 110.021C338.421 111.297 338.37 112.574 338.338 113.855C338.305 115.135 338.286 116.413 338.29 117.695ZM404.656 125.707C405.11 123.181 405.708 120.682 406.448 118.225C407.174 115.757 408.054 113.337 409.083 110.98C410.135 108.634 411.346 106.332 412.949 104.294C413.737 103.263 414.668 102.349 415.712 101.578C416.768 100.836 418 100.28 419.289 100.207C418.657 100.305 418.044 100.493 417.467 100.768C416.895 101.042 416.358 101.382 415.865 101.781C414.883 102.583 414.01 103.511 413.27 104.54C412.52 105.566 411.841 106.642 411.238 107.761C410.627 108.876 410.069 110.023 409.556 111.189C409.043 112.355 408.559 113.537 408.108 114.731C407.657 115.925 407.237 117.133 406.832 118.345C406.428 119.557 406.049 120.779 405.687 122.007C405.325 123.236 404.981 124.467 404.656 125.707Z" fill="#182841"/>
<path d="M371.584 140.285C371.335 140.394 371.106 140.544 370.908 140.73C370.196 141.345 369.619 142.091 368.99 142.783C368.361 143.476 367.693 144.087 367.05 144.752C365.873 145.968 364.664 147.302 363.915 148.836C363.829 149.008 363.754 149.186 363.688 149.367C363.611 149.573 363.558 149.787 363.53 150.005C363.164 149.8 362.808 149.578 362.463 149.339C362.018 149.033 361.573 148.661 361.448 148.14C361.223 147.238 361.959 146.67 362.361 145.982C362.699 145.37 363.09 144.79 363.53 144.246C364.599 142.965 365.785 141.785 367.072 140.723C367.726 140.185 368.589 139.24 369.494 139.271C369.579 139.272 369.663 139.28 369.746 139.294C369.759 139.292 369.772 139.292 369.785 139.294C370.175 139.364 370.547 139.516 370.874 139.739C371.122 139.906 371.36 140.088 371.584 140.285Z" fill="#E0DBC4"/>
<path opacity="0.36" d="M334.878 142.747C334.925 142.971 334.95 143.198 334.951 143.427C334.774 143.823 334.584 144.213 334.374 144.597C334.225 144.872 333.868 145.168 333.66 144.938L334.878 142.747Z" fill="#081A35"/>
<path opacity="0.2" d="M335.92 142.976C335.851 143.182 335.782 143.392 335.713 143.598C335.423 143.857 335.13 144.115 334.832 144.375C327.312 150.902 317.207 157.444 313.162 157.988C312.988 158.005 312.813 158.005 312.64 157.988C311.656 157.942 310.653 157.655 309.683 157.306C308.998 157.061 308.327 156.782 307.693 156.535C305.095 155.518 302.556 154.354 300.037 153.161L299.832 153.065C303.05 153.312 306.287 153.179 309.474 152.67C311.928 152.274 314.381 151.645 316.535 150.408C318.501 149.279 320.149 147.69 321.775 146.115C325.499 142.515 329.264 138.861 331.976 134.45C335.207 129.194 336.377 123.355 338.275 117.592C341.01 126.384 338.733 134.496 335.92 142.976ZM405.646 121.958C404.905 122.935 404.954 125.316 404.608 126.518C404.311 127.544 404.098 128.605 403.78 129.624C403.277 131.234 402.683 132.665 402.396 134.38C402.316 134.871 402.233 135.359 402.151 135.848C401.657 138.783 401.167 141.717 400.683 144.651C400.211 147.487 399.76 150.518 400.935 153.145L391.21 150.531C390.391 150.31 389.568 150.086 388.814 149.701C387.973 149.272 387.246 148.652 386.466 148.119C385.279 147.305 383.98 146.701 382.657 146.151C381.262 145.569 379.838 145.046 378.481 144.391C376.594 143.484 374.022 140.33 371.954 140.225C371.825 140.22 371.697 140.241 371.577 140.285C371.328 140.394 371.099 140.544 370.901 140.73C370.304 141.252 369.745 141.815 369.227 142.414L369.211 142.432L369.321 141.824C369.469 140.984 369.625 140.141 369.778 139.302C369.822 139.05 369.87 138.799 369.914 138.548L370.386 138.631C374.331 139.46 378.251 140.4 382.148 141.45C385.518 142.353 389.32 143.283 392.316 141.502C394.367 140.284 395.448 138.112 396.259 135.96C397.249 133.34 398.618 131.201 400.321 128.96L405.646 121.958Z" fill="#081A35"/>
<path opacity="0.36" d="M400.683 144.651C400.211 147.487 399.76 150.518 400.935 153.145L391.21 150.531C390.391 150.31 389.568 150.086 388.814 149.701C387.973 149.272 387.246 148.652 386.466 148.119C385.279 147.305 383.98 146.701 382.657 146.151C384.855 146.034 387.12 146.574 389.204 147.349C391.562 148.222 393.951 150.316 396.295 148.732C397.985 147.585 399.005 145.817 399.456 143.849C400.106 141.105 401.009 138.426 402.152 135.849C401.657 138.783 401.168 141.717 400.683 144.651ZM407.29 179.536C407.243 179.582 407.214 179.643 407.209 179.708C407.191 180.014 407.17 180.318 407.152 180.618C407.023 182.583 406.875 184.424 406.707 186.092C406.689 186.054 406.669 186.019 406.649 185.982C406.171 185.028 405.477 184.2 404.621 183.562C403.246 182.58 401.506 182.303 399.904 181.767C398.25 181.216 396.707 180.373 395.177 179.542L385.521 174.258C383.958 173.404 382.382 172.541 381.046 171.363C379.945 170.391 379.028 169.23 378.122 168.076C374.629 163.625 371.134 159.175 367.636 154.725C367.648 154.609 367.661 154.492 367.673 154.375L367.648 154.344L367.133 153.735C367.42 153.812 367.69 153.945 367.926 154.126C368.592 154.596 369.247 155.351 369.729 155.805C370.619 156.639 371.467 157.511 372.328 158.374C374.032 160.079 375.796 161.77 377.899 162.983C379.491 163.9 381.035 165.227 382.35 166.514C384.409 168.538 386.037 171.051 388.461 172.622C391.062 174.307 394.269 174.708 397.133 175.886C399.096 176.691 400.904 177.838 402.881 178.611C404.216 179.137 405.755 179.87 407.216 179.56C407.241 179.553 407.266 179.545 407.29 179.536Z" fill="#081A35"/>
<path opacity="0.2" d="M407.21 179.553C407.173 179.594 407.15 179.646 407.145 179.701C407.127 180.007 407.106 180.311 407.088 180.611C406.961 182.539 406.817 184.337 406.651 185.975C406.651 186.012 406.651 186.047 406.64 186.084C406.13 191.112 405.415 194.555 404.424 195.093C403.225 195.744 402.018 196.633 400.764 197.564C400.406 197.696 400.038 197.8 399.664 197.877C399.564 197.911 399.456 197.907 399.358 197.868C399.223 197.8 399.189 197.628 399.17 197.48C399.044 196.557 398.918 195.632 398.741 194.713C398.168 191.76 397.01 188.849 394.97 186.636C394.138 185.731 393.174 184.958 392.348 184.051C391.161 182.753 390.26 181.18 388.854 180.131C387.851 179.381 386.653 178.945 385.591 178.288C384.529 177.63 383.585 176.76 382.435 176.267C381.495 175.868 380.446 175.739 379.558 175.239C378.55 174.674 377.856 173.698 377.204 172.748C373.632 167.537 370.352 162.131 367.379 156.556C367.438 155.951 367.503 155.336 367.572 154.71C367.584 154.595 367.598 154.477 367.61 154.362L367.653 154.329L367.932 154.111C368.598 154.581 369.252 155.336 369.735 155.79C370.625 156.624 371.473 157.496 372.333 158.359C374.038 160.064 375.802 161.755 377.905 162.968C379.497 163.885 381.041 165.213 382.355 166.499C384.414 168.524 386.043 171.037 388.467 172.608C391.067 174.293 394.275 174.693 397.139 175.871C399.102 176.677 400.91 177.823 402.887 178.596C404.212 179.13 405.749 179.863 407.21 179.553Z" fill="#081A35"/>
<path opacity="0.3" d="M347.219 306.626C345.908 308.713 344.454 310.706 342.867 312.592C342.73 312.794 342.534 312.95 342.306 313.037C341.861 313.161 341.444 312.759 341.143 312.402C340.679 311.846 340.21 311.294 339.735 310.745C339.754 310.413 339.78 310.088 339.803 309.773C340.051 306.501 338.961 303.896 338.33 300.818C338.317 300.745 338.301 300.67 338.287 300.594C337.738 297.776 337.428 295.036 336.482 292.263C334.825 287.404 332.271 282.906 329.746 278.433C325.011 270.042 320.035 261.374 317.545 251.984C316.848 249.357 316.101 246.208 317.877 243.986C318.071 244.199 318.264 244.414 318.451 244.631C318.592 244.791 318.733 244.951 318.871 245.113C323.573 250.617 327.31 257.222 331.183 263.264C333.408 266.718 335.418 271.249 338.413 274.028C338.804 274.63 339.191 275.233 339.573 275.837C339.649 276.193 339.725 276.551 339.802 276.91C340.84 281.816 342.067 286.95 343.347 292.029C344.616 297.041 345.934 302 347.219 306.626ZM373.99 327.103C372.3 323.409 371.458 319.254 370.488 315.266C366.951 300.738 360.912 286.43 361.627 271.493C361.719 269.598 361.924 267.676 362.657 265.927C364.048 262.589 367.107 260.312 369.925 258.034C370.256 257.765 370.584 257.494 370.91 257.221C368.903 259.958 367.181 262.767 366.708 266.39C366.346 269.159 367.266 271.485 367.626 274.186C367.923 276.412 368.233 278.626 368.541 280.845C369.262 285.996 369.992 291.143 370.692 296.294C372.005 305.936 373.411 315.634 373.877 325.368C373.883 325.619 373.939 326.269 373.99 327.103Z" fill="#081A35"/>
<path opacity="0.6" d="M278.373 84.5374V123.796C264.917 128.458 228.707 122.24 228.707 122.24V82.9799C228.707 82.9799 264.917 89.1968 278.373 84.5374Z" fill="#FECE62"/>
<path opacity="0.6" d="M278.373 126.348V188.336C278.373 188.842 278.175 189.328 277.821 189.69C277.468 190.052 276.987 190.261 276.482 190.274C269.372 190.437 243.931 190.548 229.869 184.34C229.523 184.188 229.229 183.939 229.023 183.623C228.817 183.307 228.707 182.937 228.707 182.56V124.514C228.707 124.235 228.767 123.959 228.884 123.705C229.001 123.451 229.171 123.225 229.384 123.043C229.596 122.861 229.845 122.728 230.114 122.651C230.383 122.575 230.665 122.558 230.941 122.601C238.523 123.779 263.491 127.279 276.022 124.455C276.305 124.391 276.599 124.392 276.881 124.458C277.164 124.524 277.428 124.652 277.654 124.834C277.88 125.016 278.062 125.247 278.186 125.509C278.311 125.771 278.375 126.058 278.373 126.348Z" fill="#FDAC2A"/>
<path opacity="0.6" d="M307.002 141.445C325.56 140.796 430.655 137.33 448.178 141.546C448.789 141.692 449.333 142.04 449.722 142.533C450.111 143.026 450.323 143.636 450.323 144.264V190.531C450.323 190.9 450.25 191.266 450.109 191.606C449.967 191.947 449.759 192.256 449.497 192.516C449.235 192.776 448.924 192.981 448.582 193.12C448.24 193.259 447.874 193.329 447.505 193.326C429.496 193.157 330.642 192.335 309.125 194.364C308.747 194.4 308.367 194.358 308.006 194.241C307.645 194.124 307.311 193.935 307.026 193.685C306.74 193.435 306.509 193.13 306.346 192.788C306.182 192.445 306.09 192.073 306.075 191.694L304.307 144.353C304.292 143.985 304.35 143.617 304.477 143.271C304.605 142.926 304.799 142.609 305.05 142.338C305.3 142.068 305.602 141.85 305.937 141.697C306.272 141.544 306.634 141.458 307.002 141.445Z" fill="url(#paint1_linear_333_1998)"/>
<g opacity="0.77">
<path d="M336.774 150.583C333.528 150.536 330.308 150.478 327.113 150.411C325.855 151.285 323.943 152.599 322.913 153.281C327.582 153.388 332.309 153.477 337.096 153.548L336.774 150.583ZM509.502 128.316C501.294 126.375 489.571 124.634 474.658 123.143C444.069 120.084 403.412 118.396 360.173 118.396C349.196 118.396 338.383 118.504 327.86 118.717C296.94 119.34 268.514 120.857 245.691 123.142C230.776 124.632 219.052 126.374 210.845 128.314C201.269 130.581 197 132.969 197 136.052C197 139.134 201.269 141.524 210.845 143.789C219.052 145.729 230.776 147.472 245.691 148.962C261.104 150.504 279.068 151.697 298.649 152.5C298.659 152.498 298.67 152.498 298.68 152.5C296.845 151.595 293.727 150.049 292.112 149.249H292.082H291.934C275.07 148.462 259.539 147.379 245.994 146.025C200.492 141.472 199.968 136.112 199.968 136.058C199.968 136.003 200.492 130.646 245.994 126.094C269.135 123.776 298.078 122.253 329.55 121.652C339.539 121.458 349.785 121.356 360.181 121.356C403.324 121.356 443.876 123.036 474.369 126.088C519.869 130.64 520.396 136 520.396 136.052C520.396 136.104 519.869 141.466 474.369 146.019C459.11 147.545 441.335 148.727 421.976 149.528L421.809 152.495C441.341 151.69 459.277 150.499 474.665 148.959C489.578 147.475 501.302 145.726 509.509 143.786C519.088 141.521 523.357 139.136 523.357 136.049C523.357 132.962 519.08 130.584 509.502 128.316Z" fill="url(#paint2_linear_333_1998)"/>
<path d="M523.349 136.053C523.349 139.14 519.079 141.526 509.501 143.791C501.293 145.731 489.57 147.474 474.657 148.963C459.268 150.503 441.333 151.694 421.801 152.5L421.968 149.533C441.327 148.732 459.102 147.55 474.361 146.023C519.861 141.471 520.388 136.111 520.388 136.056C520.388 136.001 519.861 130.645 474.361 126.092C443.868 123.041 403.316 121.36 360.172 121.36C349.777 121.36 339.531 121.457 329.542 121.657C328.966 120.69 328.405 119.713 327.859 118.727C338.383 118.515 349.195 118.407 360.172 118.407C403.411 118.407 444.068 120.093 474.657 123.154C489.57 124.644 501.293 126.386 509.501 128.326C519.079 130.584 523.349 132.971 523.349 136.053Z" fill="url(#paint3_linear_333_1998)"/>
</g>
<path opacity="0.6" d="M228.707 82.9801V183.807C229.996 180.151 254.83 177.504 278.373 175.807C297.903 174.396 316.548 173.64 320.138 173.5C320.305 173.494 320.463 173.423 320.578 173.303C320.694 173.182 320.758 173.022 320.758 172.855V66.1568C320.759 65.9885 320.693 65.8268 320.576 65.7062C320.459 65.5856 320.299 65.5157 320.131 65.5115C312.659 65.2964 240.789 63.7492 228.707 82.9801Z" fill="url(#paint4_linear_333_1998)"/>
<g opacity="0.89">
<path d="M459.971 207.089C454.289 205.395 446.186 203.876 435.885 202.576C414.81 199.916 386.802 198.452 357.022 198.452C327.243 198.452 299.233 199.916 278.159 202.576C267.859 203.876 259.757 205.395 254.073 207.089C247.372 209.087 244.254 211.284 244.254 214C244.254 216.716 247.369 218.91 254.073 220.908C259.757 222.602 267.859 224.121 278.159 225.422C280.977 225.78 283.929 226.113 286.988 226.425C287.591 225.442 288.254 224.497 288.973 223.596C285.335 223.236 281.857 222.847 278.538 222.43C247.626 218.53 247.268 214.043 247.268 214C247.268 213.957 247.626 209.467 278.538 205.567C299.49 202.922 327.365 201.467 357.022 201.467C386.68 201.467 414.553 202.922 435.508 205.567C466.421 209.467 466.778 213.954 466.778 214C466.778 214.046 466.421 218.53 435.508 222.43C423.592 223.933 409.439 225.053 393.992 225.74C393.231 226.805 392.273 228.14 391.767 228.855C408.218 228.177 423.292 227.014 435.889 225.425C446.19 224.124 454.294 222.607 459.975 220.911C466.676 218.913 469.797 216.716 469.797 214.003C469.797 211.29 466.677 209.087 459.971 207.089Z" fill="url(#paint5_linear_333_1998)"/>
</g>
<path d="M418.124 259.297C417.049 259.298 416.009 258.918 415.186 258.226C414.364 257.534 413.813 256.574 413.629 255.515C413.446 254.456 413.643 253.366 414.185 252.438C414.727 251.51 415.579 250.803 416.592 250.442C417.604 250.081 418.712 250.09 419.719 250.466C420.725 250.842 421.567 251.562 422.095 252.498C422.623 253.435 422.803 254.527 422.603 255.583C422.404 256.64 421.838 257.591 421.005 258.271C420.192 258.935 419.174 259.297 418.124 259.297ZM418.115 251.683C417.314 251.682 416.543 251.994 415.969 252.553C415.394 253.112 415.061 253.874 415.039 254.675C415.018 255.476 415.311 256.254 415.855 256.843C416.399 257.432 417.151 257.784 417.952 257.826C418.752 257.868 419.537 257.595 420.14 257.066C420.742 256.537 421.114 255.794 421.176 254.995C421.238 254.196 420.986 253.404 420.472 252.788C419.959 252.173 419.226 251.782 418.428 251.699C418.32 251.689 418.219 251.683 418.115 251.683ZM225.062 201.332C223.987 201.332 222.947 200.952 222.126 200.26C221.304 199.567 220.753 198.607 220.57 197.548C220.388 196.489 220.585 195.4 221.127 194.473C221.669 193.545 222.522 192.839 223.534 192.479C224.547 192.118 225.654 192.127 226.66 192.504C227.666 192.88 228.507 193.6 229.034 194.537C229.562 195.473 229.741 196.565 229.541 197.621C229.342 198.677 228.775 199.628 227.942 200.307C227.129 200.97 226.111 201.332 225.062 201.332ZM225.051 193.717C224.25 193.717 223.481 194.029 222.907 194.587C222.333 195.145 222 195.906 221.979 196.707C221.957 197.507 222.25 198.284 222.793 198.872C223.337 199.46 224.089 199.813 224.888 199.855C225.688 199.896 226.472 199.624 227.074 199.096C227.676 198.567 228.047 197.825 228.11 197.026C228.172 196.228 227.919 195.437 227.407 194.822C226.894 194.207 226.161 193.816 225.364 193.734C225.26 193.723 225.155 193.717 225.051 193.717Z" fill="#FECE62"/>
<path d="M437.875 87.5405C436.801 87.5403 435.761 87.1606 434.939 86.4684C434.117 85.7761 433.566 84.8158 433.384 83.757C433.201 82.6982 433.398 81.6088 433.941 80.6812C434.483 79.7537 435.335 79.0475 436.348 78.6873C437.36 78.3271 438.467 78.336 439.473 78.7126C440.48 79.0891 441.321 79.809 441.848 80.7453C442.375 81.6815 442.555 82.7739 442.355 83.8297C442.155 84.8854 441.589 85.8366 440.756 86.5155C439.943 87.1789 438.925 87.541 437.875 87.5405ZM437.866 79.9277C437.065 79.9268 436.294 80.2391 435.72 80.7981C435.145 81.357 434.812 82.1183 434.79 82.9196C434.769 83.7209 435.062 84.4988 435.606 85.0875C436.15 85.6762 436.902 86.029 437.703 86.0707C438.503 86.1125 439.289 85.8398 439.891 85.3109C440.493 84.782 440.865 84.0387 440.927 83.2395C440.989 82.4403 440.737 81.6485 440.224 81.0328C439.71 80.4172 438.977 80.0265 438.179 79.944C438.075 79.9327 437.971 79.9272 437.866 79.9277ZM319.679 56.0211C318.604 56.0209 317.564 55.6412 316.743 54.949C315.921 54.2567 315.37 53.2964 315.187 52.2376C315.005 51.1788 315.202 50.0894 315.744 49.1619C316.287 48.2343 317.139 47.5281 318.151 47.1679C319.164 46.8077 320.271 46.8166 321.277 47.1932C322.283 47.5697 323.124 48.2897 323.652 49.2259C324.179 50.1621 324.358 51.2545 324.159 52.3103C323.959 53.366 323.392 54.3172 322.56 54.9961C321.746 55.6593 320.729 56.0214 319.679 56.0211ZM319.664 48.4038C318.864 48.4034 318.096 48.7155 317.522 49.2736C316.949 49.8317 316.617 50.5916 316.596 51.3912C316.575 52.1909 316.867 52.9672 317.41 53.5544C317.954 54.1417 318.705 54.4936 319.504 54.5351C320.302 54.5765 321.086 54.3043 321.687 53.7763C322.288 53.2484 322.659 52.5066 322.721 51.709C322.783 50.9115 322.531 50.1213 322.019 49.5069C321.506 48.8925 320.774 48.5025 319.979 48.4201C319.873 48.4127 319.768 48.4038 319.664 48.4038Z" fill="#FDAC2A"/>
<path d="M383.33 294.42C384.589 294.41 385.602 293.382 385.593 292.122C385.583 290.863 384.555 289.85 383.296 289.86C382.036 289.869 381.023 290.898 381.033 292.157C381.042 293.416 382.071 294.429 383.33 294.42Z" fill="#FECE62"/>
<path d="M240.416 282.712C241.675 282.702 242.688 281.674 242.679 280.414C242.669 279.155 241.641 278.142 240.381 278.152C239.122 278.161 238.109 279.19 238.119 280.449C238.128 281.708 239.157 282.721 240.416 282.712Z" fill="#FECE62"/>
<path d="M448.879 199.592C448.879 199.818 448.813 200.039 448.688 200.227C448.562 200.415 448.384 200.561 448.176 200.648C447.967 200.734 447.738 200.757 447.516 200.713C447.295 200.669 447.091 200.56 446.932 200.401C446.772 200.241 446.663 200.038 446.62 199.816C446.576 199.595 446.598 199.365 446.685 199.157C446.771 198.948 446.918 198.77 447.106 198.645C447.293 198.52 447.514 198.453 447.74 198.453C448.042 198.453 448.332 198.573 448.545 198.787C448.759 199.001 448.879 199.29 448.879 199.592Z" fill="#FECE62"/>
<path d="M279.516 291.022C280.146 291.022 280.656 290.511 280.656 289.881C280.656 289.251 280.146 288.74 279.516 288.74C278.886 288.74 278.375 289.251 278.375 289.881C278.375 290.511 278.886 291.022 279.516 291.022Z" fill="#FECE62"/>
<path d="M425.602 289.883C426.232 289.883 426.742 289.372 426.742 288.742C426.742 288.112 426.232 287.601 425.602 287.601C424.972 287.601 424.461 288.112 424.461 288.742C424.461 289.372 424.972 289.883 425.602 289.883Z" fill="#FECE62"/>
<path d="M259.647 245.13C260.906 245.13 261.927 244.109 261.927 242.85C261.927 241.59 260.906 240.57 259.647 240.57C258.388 240.57 257.367 241.59 257.367 242.85C257.367 244.109 258.388 245.13 259.647 245.13Z" fill="#FECE62"/>
<path d="M461.878 116.545C463.137 116.545 464.158 115.524 464.158 114.265C464.158 113.006 463.137 111.985 461.878 111.985C460.618 111.985 459.598 113.006 459.598 114.265C459.598 115.524 460.618 116.545 461.878 116.545Z" fill="#FDAC2A"/>
<path d="M389.077 344.323C390.336 344.323 391.357 343.303 391.357 342.043C391.357 340.784 390.336 339.763 389.077 339.763C387.818 339.763 386.797 340.784 386.797 342.043C386.797 343.303 387.818 344.323 389.077 344.323Z" fill="#FECE62"/>
<path d="M218.221 100.946C219.481 100.946 220.501 99.9248 220.501 98.6656C220.501 97.4063 219.481 96.3856 218.221 96.3856C216.962 96.3856 215.941 97.4063 215.941 98.6656C215.941 99.9248 216.962 100.946 218.221 100.946Z" fill="#FECE62"/>
</g>
<defs>
<linearGradient id="paint0_linear_333_1998" x1="360" y1="-32.6316" x2="363.478" y2="399.972" gradientUnits="userSpaceOnUse">
<stop stop-color="#87CDFF"/>
<stop offset="1" stop-color="#4918D5"/>
</linearGradient>
<linearGradient id="paint1_linear_333_1998" x1="379.412" y1="104.181" x2="376.346" y2="196.598" gradientUnits="userSpaceOnUse">
<stop stop-color="#F07222"/>
<stop offset="0.23" stop-color="#F17524"/>
<stop offset="0.43" stop-color="#F2802C"/>
<stop offset="0.63" stop-color="#F59238"/>
<stop offset="0.81" stop-color="#F9AB4A"/>
<stop offset="0.99" stop-color="#FECB60"/>
<stop offset="1" stop-color="#FECE62"/>
</linearGradient>
<linearGradient id="paint2_linear_333_1998" x1="197" y1="135.973" x2="523.349" y2="135.973" gradientUnits="userSpaceOnUse">
<stop stop-color="#F07222"/>
<stop offset="0.23" stop-color="#F17524"/>
<stop offset="0.43" stop-color="#F2802C"/>
<stop offset="0.63" stop-color="#F59238"/>
<stop offset="0.81" stop-color="#F9AB4A"/>
<stop offset="0.99" stop-color="#FECB60"/>
<stop offset="1" stop-color="#FECE62"/>
</linearGradient>
<linearGradient id="paint3_linear_333_1998" x1="327.859" y1="135.448" x2="523.349" y2="135.448" gradientUnits="userSpaceOnUse">
<stop stop-color="#F07222"/>
<stop offset="0.23" stop-color="#F17524"/>
<stop offset="0.43" stop-color="#F2802C"/>
<stop offset="0.63" stop-color="#F59238"/>
<stop offset="0.81" stop-color="#F9AB4A"/>
<stop offset="0.99" stop-color="#FECB60"/>
<stop offset="1" stop-color="#FECE62"/>
</linearGradient>
<linearGradient id="paint4_linear_333_1998" x1="275.971" y1="177.632" x2="273.323" y2="65.0709" gradientUnits="userSpaceOnUse">
<stop stop-color="#F07222"/>
<stop offset="1" stop-color="#FECE62"/>
</linearGradient>
<linearGradient id="paint5_linear_333_1998" x1="236.123" y1="229.323" x2="267.469" y2="225.351" gradientUnits="userSpaceOnUse">
<stop stop-color="#F07222"/>
<stop offset="1" stop-color="#FECE62"/>
</linearGradient>
<clipPath id="clip0_333_1998">
<rect width="720" height="400" fill="white"/>
</clipPath>
</defs>
</svg>
