<svg width="720" height="400" viewBox="0 0 720 400" fill="none" xmlns="http://www.w3.org/2000/svg">
<rect width="720" height="400" fill="url(#paint0_radial_215_5754)"/>
<path opacity="0.36" d="M181.415 239.619C164.694 210.203 153.532 175.104 164.167 143.726C174.26 113.947 203.537 98.7205 232.322 91.5569C262.42 84.0659 294.019 83.2117 324.44 76.8446C356.354 70.1659 387.724 60.8509 418.058 48.885C431.815 43.4583 445.419 37.4691 459.753 33.8254C485.593 27.2568 517.301 31.4032 534.181 54.1082C551.807 77.8164 552.606 112.133 539.878 138.242C525.337 168.071 499.255 191.458 489.678 223.853C483.873 243.491 485.241 264.827 478.388 284.094C471.676 302.963 461.526 320.777 447.605 335.266C431.717 351.803 410.763 363.82 388.094 367.283C356.794 372.065 325.271 360.571 297.186 345.952C259.633 326.406 224.627 300.288 198.998 266.278C192.921 258.215 186.873 249.22 181.416 239.62L181.415 239.619Z" fill="white" fill-opacity="0.16"/>
<path d="M540.854 345.929H167.688C165.505 345.929 163.735 347.698 163.735 349.881C163.735 352.063 165.505 353.832 167.688 353.832H540.854C543.037 353.832 544.806 352.063 544.806 349.881C544.806 347.698 543.037 345.929 540.854 345.929Z" fill="url(#paint1_linear_215_5754)"/>
<path d="M281.351 284.728C281.351 283.579 289.626 261.513 303.646 256.456C298.129 279.9 287.556 288.742 283.189 290.527C281.81 288.405 281.351 284.727 281.351 284.727V284.728Z" fill="#6DC38D"/>
<path d="M281.351 284.728C281.351 283.579 289.626 261.513 303.646 256.456C298.129 279.9 287.556 288.742 283.189 290.527C281.81 288.405 281.351 284.727 281.351 284.727V284.728Z" fill="url(#paint2_linear_215_5754)"/>
<path d="M287.785 284.931C287.785 284.931 294.911 271.83 310.08 273.669C301.346 279.186 287.785 287.381 287.785 287.381V284.931ZM280.883 289.162C280.883 289.162 273.757 271.693 280.883 262.959C284.33 268.245 283.87 281.348 280.883 289.162ZM279.995 290.158C279.995 290.158 255.171 274.758 240.689 275.677C251.493 268.781 273.329 275.677 279.995 290.158Z" fill="url(#paint3_linear_215_5754)"/>
<path d="M278.381 288.055C278.381 288.055 266.888 281.795 263.9 265.935C272.635 266.395 280.22 282.362 278.381 288.055Z" fill="url(#paint4_linear_215_5754)"/>
<path d="M279.493 286.648C279.493 286.648 273.057 274.466 275.586 267.341C279.263 272.598 280.642 282.051 279.493 286.648Z" fill="url(#paint5_linear_215_5754)"/>
<path d="M302.578 284.999H260.254C260.036 284.999 259.858 285.176 259.858 285.394V294.922C259.858 295.141 260.036 295.318 260.254 295.318H302.578C302.796 295.318 302.973 295.141 302.973 294.922V285.394C302.973 285.176 302.796 284.999 302.578 284.999Z" fill="url(#paint6_linear_215_5754)"/>
<path d="M290.303 319.486H272.53C271.26 319.486 270.149 318.633 269.819 317.406L263.9 295.318H298.932L293.013 317.406C292.685 318.633 291.573 319.486 290.303 319.486Z" fill="url(#paint7_linear_215_5754)"/>
<path d="M266.304 304.287L298.932 295.318H263.9L266.304 304.287Z" fill="url(#paint8_linear_215_5754)"/>
<path d="M513.775 201.874H498.81L485.146 280.499H422.685V294.895H498.159L513.775 201.874Z" fill="url(#paint9_linear_215_5754)"/>
<path d="M469.857 201.874H498.81L485.146 280.499H422.685L469.857 201.874Z" fill="url(#paint10_linear_215_5754)"/>
<path d="M376.509 339.405L387.224 339.359L392.421 322.317L382.427 320L376.509 339.405Z" fill="url(#paint11_linear_215_5754)"/>
<path d="M387.606 337.145C385.085 337.818 379.378 340.018 376.701 336.139L358.606 345.944L390.549 345.734L389.06 338.104C388.958 337.414 388.28 336.966 387.605 337.145H387.606Z" fill="url(#paint12_linear_215_5754)"/>
<path d="M358.607 348.725L390.55 348.513L390.531 345.745L358.589 345.957L358.607 348.725Z" fill="white"/>
<path d="M423.842 257.396L403.579 264.25C398.267 266.047 394.123 270.258 392.413 275.599L374.195 328.694L393.385 330.967L414.43 279.044L423.841 257.397L423.842 257.396Z" fill="#E9E9F2"/>
<path d="M430.423 339.382L441.138 339.337L435.573 322.34L424.858 322.385L430.423 339.382Z" fill="url(#paint13_linear_215_5754)"/>
<path d="M440.582 337.145C438.061 337.818 432.354 340.018 429.677 336.139L411.582 345.944L443.524 345.734L442.035 338.104C441.933 337.414 441.255 336.966 440.581 337.145H440.582Z" fill="url(#paint14_linear_215_5754)"/>
<path d="M411.582 348.729L443.524 348.517L443.506 345.749L411.563 345.961L411.582 348.729Z" fill="white"/>
<path d="M473.795 255.003C473.795 255.003 481.511 273.819 466.61 279.968C466.61 279.968 455.236 283.585 427.165 282.048L441.807 328.403L423.922 330.368L405.387 280.45C403.165 274.463 405.611 267.748 411.165 264.594L428.057 255.003H473.795Z" fill="white"/>
<path d="M428.148 240.262C429.49 243.294 433.061 244.641 436.132 243.287C439.193 241.938 440.59 238.392 439.247 235.365C437.907 232.344 434.333 230.996 431.268 232.344C428.199 233.696 426.81 237.244 428.148 240.261V240.262Z" fill="#F79F8C"/>
<path d="M408.508 253.108L405.048 246.599C417.572 238.54 422.489 235.725 430.182 231.811L436.163 242.317C432.253 245.002 419.15 251.113 408.508 253.108Z" fill="url(#paint15_linear_215_5754)"/>
<path d="M431.854 202.767C433.57 197.086 446.181 198.091 445.301 205.092C444.259 213.383 440.903 233.93 439.514 239.008L427.53 237.539C427.53 237.539 429.096 211.891 431.854 202.767Z" fill="url(#paint16_linear_215_5754)"/>
<path d="M438.882 240.707C437.265 243.605 433.583 244.617 430.651 242.989C427.731 241.363 426.663 237.703 428.281 234.81C429.89 231.929 433.572 230.911 436.502 232.537C439.432 234.166 440.497 237.826 438.882 240.707Z" fill="url(#paint17_linear_215_5754)"/>
<path d="M440.315 197.031C435.348 196.186 430.366 200.467 429.523 205.435L425.312 227.531C425.103 228.748 428.967 230.419 433.934 231.264C438.904 232.109 443.097 231.807 443.306 230.592L447.515 208.496C448.36 203.525 445.285 197.876 440.315 197.032V197.031Z" fill="url(#paint18_linear_215_5754)"/>
<path d="M400.834 244.686C401.341 244.662 401.888 244.655 402.482 244.677C403.15 244.704 405.841 244.927 407.519 246.791C407.895 247.209 405.27 247.961 403.615 248.385L400.834 244.686Z" fill="#F79F8C"/>
<path d="M402.231 246.543C404.155 245.604 406.17 245.028 407.647 246.737C409.499 248.879 410.363 251.91 408.16 254.429L402.231 246.543Z" fill="#F79F8C"/>
<path d="M440.43 220.217C440.389 220.217 440.389 220.284 440.43 220.284C440.473 220.284 440.473 220.217 440.43 220.217Z" fill="#010101"/>
<path d="M436.904 254.858C436.892 258.979 442.698 261.948 451.531 262.055C461.365 262.175 474.308 258.999 474.058 254.374C473.802 249.595 472.687 246.027 472.619 243.155C472.386 233.422 476.227 202.943 476.227 202.943C476.227 197.709 471.708 193.851 455.405 193.851C438.167 193.851 436.528 199.185 436.528 204.417C436.528 204.417 437.106 224.138 437.035 237.857C437.007 243.453 436.913 251.758 436.904 254.858Z" fill="url(#paint19_linear_215_5754)"/>
<path d="M476.166 234.716C474.309 237.461 475.063 241.205 477.84 243.088C480.608 244.966 484.355 244.266 486.209 241.523C488.055 238.784 487.302 235.037 484.533 233.158C481.757 231.275 478.012 231.978 476.166 234.717V234.716Z" fill="url(#paint20_linear_215_5754)"/>
<path d="M455.449 251.921L452.547 245.143C465.714 238.178 469.065 237.401 478.851 232.545L483.917 243.52C479.792 245.863 466.219 250.84 455.448 251.922L455.449 251.921Z" fill="url(#paint21_linear_215_5754)"/>
<path d="M480.49 202.08C478.491 196.49 465.9 198.298 467.212 205.232C468.764 213.443 473.386 233.741 475.085 238.727L486.954 236.518C487.015 232.219 484.475 213.233 480.49 202.08Z" fill="url(#paint22_linear_215_5754)"/>
<path d="M475.824 240.381C477.616 243.172 481.351 243.954 484.177 242.149C486.992 240.345 487.832 236.626 486.041 233.839C484.255 231.062 480.518 230.275 477.693 232.079C474.869 233.885 474.034 237.604 475.824 240.38V240.381Z" fill="url(#paint23_linear_215_5754)"/>
<path d="M471.693 196.878C476.599 195.728 481.834 199.692 482.982 204.597L488.552 226.391C488.833 227.592 485.085 229.499 480.176 230.649C475.27 231.8 471.063 231.758 470.784 230.557L465.213 208.764C464.063 203.856 466.783 198.027 471.693 196.877V196.878Z" fill="url(#paint24_linear_215_5754)"/>
<path d="M441.19 245.945C441.616 247.28 443.75 246.706 444.949 246.742C446.127 246.775 449.608 247.425 449.608 247.425C450.264 247.242 455.167 245.839 454.635 245.3C452.875 243.517 450.177 243.416 449.507 243.423C447.133 243.444 445.536 243.875 444.223 244.083C442.964 244.28 440.666 244.29 441.19 245.945Z" fill="#F79F8C"/>
<path d="M441.19 245.945C441.616 247.28 443.75 246.706 444.949 246.742C446.127 246.775 449.608 247.425 449.608 247.425C450.264 247.242 455.167 245.839 454.635 245.3C452.875 243.517 450.177 243.416 449.507 243.423C447.133 243.444 445.536 243.875 444.223 244.083C442.964 244.28 440.666 244.29 441.19 245.945Z" fill="url(#paint25_linear_215_5754)"/>
<path d="M446.417 249.565L438.576 251.553C437.867 251.74 437.174 251.447 437.015 250.782C436.853 250.12 437.42 249.598 438.134 249.413L447.798 246.353C448.512 246.166 447.129 249.375 446.416 249.565H446.417ZM450.693 253.288C451.03 253.885 451.881 254.649 451.228 254.988L443.239 258.583C442.581 258.921 441.508 258.83 441.169 258.234C440.833 257.639 441.138 257.01 441.788 256.674L448.998 253.017C449.653 252.678 450.352 252.693 450.693 253.289V253.288Z" fill="url(#paint26_linear_215_5754)"/>
<path d="M448.24 249.756C448.486 250.474 448.027 251.279 447.223 251.561L438.343 254.467C437.54 254.746 436.755 254.545 436.512 253.83C436.27 253.111 436.874 252.482 437.68 252.203L446.343 248.968C447.152 248.684 447.999 249.04 448.239 249.757L448.24 249.756Z" fill="url(#paint27_linear_215_5754)"/>
<path d="M449.73 251.479C450.023 252.173 450.151 253.184 449.361 253.508L440.262 256.609C439.472 256.933 438.538 256.88 438.241 256.181C437.943 255.486 438.493 254.889 439.278 254.566L447.761 250.802C448.548 250.479 449.429 250.782 449.729 251.479H449.73Z" fill="url(#paint28_linear_215_5754)"/>
<path d="M445.834 247.161C448.369 246.47 452.74 242.91 455.057 245.687C457.375 248.465 457.731 252.792 450.991 255.198C446.122 256.838 445.834 247.161 445.834 247.161Z" fill="#F79F8C"/>
<path d="M450.516 196.461C451.325 198.794 453.821 199.269 456.009 199.176C458.424 199.074 461.6 198.417 462.378 195.746C462.913 193.904 462.421 191.823 462.354 189.943C462.308 188.694 462.309 187.442 462.371 186.193C462.408 185.426 462.468 184.66 462.554 183.897C462.625 183.281 462.707 182.665 462.801 182.052C462.865 181.64 462.934 181.228 463.011 180.818C463.063 180.532 463.381 179.754 463.046 179.567C462.734 179.395 462.124 179.954 461.873 180.116C458.193 182.482 454.339 184.578 450.351 186.38C450.194 186.45 450.031 186.528 449.941 186.675C449.856 186.815 449.858 186.987 449.863 187.152C449.903 188.463 449.944 189.777 449.983 191.089C449.998 191.599 450 192.111 450.008 192.621C450.024 193.92 450.084 195.216 450.517 196.462L450.516 196.461Z" fill="url(#paint29_linear_215_5754)"/>
<path d="M450.007 192.62C453.484 191.545 456.811 190 459.828 187.978C460.668 187.416 461.531 186.822 462.371 186.193C462.408 185.426 462.468 184.66 462.554 183.897C462.625 183.281 462.707 182.665 462.801 182.052C462.865 181.64 462.934 181.228 463.011 180.818C463.063 180.532 463.381 179.754 463.046 179.567C462.734 179.395 462.124 179.954 461.873 180.116C458.193 182.482 454.339 184.578 450.351 186.38C450.194 186.45 450.031 186.528 449.941 186.675C449.856 186.815 449.858 186.987 449.863 187.152C449.903 188.463 449.944 189.777 449.983 191.089C449.998 191.599 450 192.111 450.008 192.621L450.007 192.62Z" fill="#FFB7AC"/>
<path d="M447.057 178.052C446.553 179.818 444.714 180.842 442.947 180.339C441.181 179.835 440.157 177.995 440.661 176.229C441.164 174.463 443.004 173.438 444.77 173.942C446.536 174.446 447.561 176.286 447.057 178.052Z" fill="url(#paint30_linear_215_5754)"/>
<path d="M443.662 166.669C443.662 166.669 441.261 177.822 442.787 182.23C444.313 186.638 447.92 189.373 453.673 188.151C453.673 188.151 460.354 187.71 461.868 177.759C464.148 162.777 450.491 158.599 443.662 166.668V166.669Z" fill="url(#paint31_linear_215_5754)"/>
<path d="M464.851 178.502C464.433 179.967 462.908 180.816 461.443 180.398C459.978 179.981 459.129 178.456 459.547 176.991C459.965 175.526 461.489 174.677 462.954 175.094C464.419 175.512 465.268 177.037 464.851 178.502Z" fill="url(#paint32_linear_215_5754)"/>
<path d="M463.43 176.92C463.43 176.92 461.399 176.374 460.898 178.607" stroke="#ED8B62" stroke-width="0.161617" stroke-linecap="round" stroke-linejoin="round"/>
<path d="M445.872 168.706C445.665 168.601 445.543 168.705 444.557 168.816C444.171 168.859 444.069 168.861 444.007 168.871C443.703 168.923 443.038 169.425 442.586 173.808C441.951 172.789 441.102 171.163 440.641 169.02C440.343 167.634 439.64 164.126 441.378 160.375C443.293 156.24 446.922 154.515 447.915 154.06C452.157 152.12 458.29 151.999 461.341 154.806C462.249 155.642 464.077 157.833 467.618 160.22C467.676 160.26 467.667 160.253 467.685 160.266C470.856 162.434 470.86 167.369 470.864 170.241C470.866 171.996 470.871 177.941 467.658 181.428C467.412 181.695 466.973 182.117 466.096 182.963C462.284 186.632 461.768 186.607 461.51 186.524C460.511 186.203 459.897 183.901 460.462 182.448C460.724 181.775 460.986 181.101 461.247 180.429C461.993 180.597 463.014 180.699 463.519 180.107C463.534 180.089 463.549 180.07 463.573 180.037C463.932 179.571 465.46 177.469 464.506 176.05C463.972 175.256 462.756 174.822 461.875 175.173C461.835 175.189 461.797 175.206 461.759 175.225C460.875 175.665 460.624 176.864 460.23 178.352C460.377 179.309 460.622 181.795 459.227 184.243C457.327 187.578 453.053 189.666 448.955 188.519C445.794 187.633 443.355 184.996 442.572 181.687C443.392 181.238 444.802 180.579 446.638 180.326C450.696 179.767 453.127 181.704 455.537 180.342C457.144 179.434 458.147 178.024 458.147 178.024C458.317 177.786 458.451 177.568 458.682 177.188C459.052 176.58 459.542 175.706 460.011 174.626C460.671 173.107 460.65 172.653 460.45 172.434C459.89 171.821 458.017 173.112 457.38 172.434C457.003 172.033 457.528 171.443 457.161 170.57C456.741 169.573 455.575 169.196 455.407 169.145C454 168.712 453.518 169.733 452.009 169.474C450.468 169.209 450.273 168.024 449.159 168.159C447.929 168.305 447.301 169.851 446.638 169.584C446.282 169.44 446.369 168.959 445.871 168.706H445.872Z" fill="url(#paint33_linear_215_5754)"/>
<path d="M447.527 243.553L447.848 247.098C448.859 247.263 449.72 247.424 449.72 247.424C450.376 247.241 455.279 245.838 454.747 245.3C452.987 243.517 450.288 243.416 449.619 243.423C448.845 243.43 448.155 243.48 447.528 243.553H447.527Z" fill="url(#paint34_linear_215_5754)"/>
<path d="M446.53 249.565L438.688 251.554C437.98 251.74 437.286 251.448 437.128 250.782C436.965 250.12 437.533 249.598 438.246 249.413L447.911 246.353C448.624 246.166 447.241 249.375 446.529 249.565H446.53ZM450.805 253.288C451.142 253.885 451.993 254.649 451.34 254.988L443.351 258.583C442.693 258.921 441.62 258.83 441.281 258.234C440.946 257.639 441.25 257.01 441.901 256.674L449.11 253.018C449.765 252.679 450.464 252.693 450.805 253.289V253.288Z" fill="url(#paint35_linear_215_5754)"/>
<path d="M448.353 249.756C448.598 250.474 448.14 251.279 447.335 251.561L438.455 254.467C437.653 254.746 436.868 254.546 436.624 253.83C436.383 253.111 436.986 252.482 437.792 252.203L446.456 248.968C447.266 248.684 448.112 249.04 448.353 249.757V249.756Z" fill="url(#paint36_linear_215_5754)"/>
<path d="M449.842 251.479C450.135 252.173 450.263 253.184 449.474 253.508L440.374 256.609C439.585 256.933 438.651 256.881 438.354 256.181C438.056 255.486 438.606 254.889 439.391 254.567L447.873 250.802C448.66 250.479 449.541 250.782 449.841 251.479H449.842Z" fill="url(#paint37_linear_215_5754)"/>
<path d="M445.946 247.162C448.482 246.47 452.853 242.91 455.169 245.687C457.487 248.465 457.843 252.792 451.103 255.198C446.234 256.839 445.946 247.162 445.946 247.162Z" fill="#F79F8C"/>
<path d="M445.946 247.162C448.482 246.47 452.853 242.91 455.169 245.687C457.487 248.465 457.843 252.792 451.103 255.198C446.234 256.839 445.946 247.162 445.946 247.162Z" fill="url(#paint38_linear_215_5754)"/>
<path d="M461.934 294.18H455.931C455.236 294.18 454.672 294.744 454.672 295.44V343.918C454.672 344.614 455.236 345.178 455.931 345.178H461.934C462.63 345.178 463.193 344.614 463.193 343.918V295.44C463.193 294.744 462.63 294.18 461.934 294.18Z" fill="url(#paint39_linear_215_5754)"/>
<path d="M414.291 216.977H372.136L387.944 259.264H430.685L414.291 216.977Z" fill="url(#paint40_linear_215_5754)"/>
<path d="M463.765 259.264V256.028H434.491L419.56 216.977H414.291L430.685 259.264H463.765Z" fill="url(#paint41_linear_215_5754)"/>
<path d="M406.585 239.332C407.261 236.47 405.488 233.602 402.626 232.926C399.764 232.251 396.896 234.023 396.22 236.886C395.545 239.748 397.317 242.616 400.18 243.291C403.042 243.967 405.91 242.194 406.585 239.332Z" fill="url(#paint42_linear_215_5754)"/>
<path d="M525.861 310.298C525.861 309.079 534.633 285.686 549.499 280.324C543.65 305.181 532.441 314.553 527.811 316.447C526.349 314.196 525.861 310.298 525.861 310.298ZM525.861 289.341C525.861 289.341 533.415 275.452 549.499 277.4C540.238 283.249 525.861 291.938 525.861 291.938V289.341ZM527.26 259.807C527.26 259.807 530.491 237.193 551.204 233.781C538.533 251.082 527.26 259.807 527.26 259.807ZM526.546 270.499C526.546 270.499 553.309 255.469 553.309 247.672C551.604 259.856 544.537 270.334 526.016 274.965C525.529 274.478 526.545 270.5 526.545 270.5L526.546 270.499ZM539.995 215.505C539.995 215.505 532.441 196.985 539.995 187.725C543.65 193.33 543.163 207.219 539.995 215.505ZM542.557 208.438C542.557 208.438 548.524 196.01 559.002 193.33C554.128 205.757 542.557 208.438 542.557 208.438ZM521.719 229.639C521.719 229.639 512.215 220.135 511.484 208.439C519.77 214.531 521.719 229.639 521.719 229.639ZM507.098 238.655C507.098 238.655 488.821 224.277 487.359 208.438C498.812 213.798 507.098 238.655 507.098 238.655ZM510.265 245.6C510.265 245.6 498.812 245.478 490.282 232.806C499.543 234.756 510.265 245.6 510.265 245.6ZM518.794 273.989C518.794 273.989 492.475 257.662 477.124 258.636C488.577 251.326 511.728 258.636 518.794 273.989ZM524.399 316.447C524.399 316.447 512.215 309.81 509.046 292.996C518.307 293.483 526.348 310.411 524.399 316.447Z" fill="url(#paint43_linear_215_5754)"/>
<path d="M525.861 279.35C525.861 279.35 519.037 266.435 521.719 258.881C525.617 264.455 527.079 274.477 525.861 279.35ZM513.677 255.783C513.677 255.783 519.525 240.848 529.76 238.655C526.836 245.478 513.677 255.783 513.677 255.783Z" fill="#6DC38D"/>
<path d="M506.286 236.4C506.286 236.4 522.799 276.914 526.28 314.196C518.796 254.737 542.557 208.438 542.557 208.438" stroke="#109490" stroke-width="0.260266" stroke-miterlimit="10"/>
<path d="M521.334 227.424C521.334 227.424 522.51 241.963 528.603 252.167L521.334 227.424Z" fill="#6DC38D"/>
<path d="M548.385 310.858H503.467C503.248 310.858 503.071 311.035 503.071 311.254V321.402C503.071 321.621 503.248 321.798 503.467 321.798H548.385C548.603 321.798 548.78 321.621 548.78 321.402V311.254C548.78 311.035 548.603 310.858 548.385 310.858Z" fill="url(#paint44_linear_215_5754)"/>
<path d="M535.354 347.147H516.512C515.166 347.147 513.987 346.243 513.639 344.942L507.363 321.525H544.504L538.228 344.942C537.879 346.243 536.701 347.147 535.354 347.147Z" fill="url(#paint45_linear_215_5754)"/>
<path d="M509.911 331.033L544.504 321.525H507.363L509.911 331.033Z" fill="url(#paint46_linear_215_5754)"/>
<path d="M402.471 55.2593H205.57C204.487 55.2593 203.609 56.137 203.609 57.2197V198.722C203.609 199.805 204.487 200.682 205.57 200.682H402.471C403.553 200.682 404.431 199.805 404.431 198.722V57.2197C404.431 56.137 403.553 55.2593 402.471 55.2593Z" fill="url(#paint47_linear_215_5754)"/>
<path d="M404.432 67.0552V57.418C404.432 56.2311 403.46 55.2593 402.273 55.2593H205.768C204.581 55.2593 203.609 56.2311 203.609 57.418V67.0552H404.431H404.432Z" fill="url(#paint48_linear_215_5754)"/>
<path d="M383.224 61.3124C383.485 60.2098 382.803 59.1041 381.701 58.8427C380.598 58.5812 379.493 59.2631 379.231 60.3656C378.97 61.4681 379.652 62.5739 380.754 62.8353C381.857 63.0968 382.962 62.4149 383.224 61.3124Z" fill="white"/>
<path d="M389.728 62.2884C390.529 61.4872 390.53 60.1881 389.728 59.3869C388.927 58.5856 387.628 58.5856 386.827 59.3869C386.025 60.1881 386.026 61.4871 386.827 62.2884C387.628 63.0896 388.927 63.0896 389.728 62.2884Z" fill="white"/>
<path d="M397.331 61.312C397.593 60.2095 396.911 59.1038 395.808 58.8423C394.706 58.5809 393.6 59.2627 393.339 60.3653C393.077 61.4678 393.759 62.5735 394.862 62.835C395.964 63.0964 397.07 62.4146 397.331 61.312Z" fill="white"/>
<path d="M397.654 73.7969H208.539V193.828H397.654V73.7969Z" fill="white"/>
<path d="M375.551 197.398L387.885 213.197V197.398H375.551Z" fill="url(#paint49_linear_215_5754)"/>
<path d="M281.972 155.47C280.497 158.804 276.572 160.282 273.197 158.794C269.832 157.311 268.296 153.414 269.772 150.086C271.246 146.766 275.173 145.284 278.544 146.766C281.917 148.251 283.445 152.152 281.973 155.469L281.972 155.47Z" fill="#8E5B59"/>
<path d="M278.036 184.814L286.04 183.555C284.848 167.227 284.074 161.047 282.43 151.702L269.249 153.386C269.474 158.596 272.758 174.144 278.035 184.812L278.036 184.814Z" fill="url(#paint50_linear_215_5754)"/>
<path d="M277.898 114.255C276.011 108.009 262.149 109.115 263.118 116.811C264.264 125.923 267.952 148.511 269.479 154.093L282.651 152.478C282.651 152.478 280.93 124.284 277.898 114.255Z" fill="#8E5B59"/>
<path d="M270.172 155.96C271.95 159.145 275.996 160.257 279.219 158.468C282.429 156.682 283.603 152.657 281.825 149.477C280.054 146.309 276.009 145.191 272.788 146.978C269.568 148.77 268.396 152.791 270.171 155.959L270.172 155.96Z" fill="#8E5B59"/>
<path d="M268.6 107.949C274.06 107.02 279.536 111.726 280.463 117.188L285.092 141.476C285.322 142.813 281.074 144.65 275.613 145.58C270.151 146.509 265.541 146.177 265.312 144.84L260.685 120.552C259.755 115.087 263.136 108.878 268.599 107.95L268.6 107.949Z" fill="url(#paint51_linear_215_5754)"/>
<path d="M293.112 193.354C291.683 193.932 290.674 191.72 289.804 190.724C288.952 189.753 285.959 187.257 285.959 187.257C285.657 186.579 283.409 181.44 284.24 181.513C286.985 181.755 288.96 183.973 289.424 184.543C291.066 186.57 291.821 188.222 292.565 189.485C293.278 190.689 294.88 192.64 293.112 193.355V193.354Z" fill="url(#paint52_linear_215_5754)"/>
<path d="M286.043 191.612L289.23 199.923C289.515 200.685 290.258 201.116 291.027 200.829C291.789 200.548 291.93 199.706 291.646 198.947L288.319 188.306C288.035 187.542 285.762 190.853 286.043 191.612ZM279.573 189.675C278.761 189.667 277.491 189.253 277.48 190.068L277.953 199.711C277.944 200.525 278.618 201.515 279.434 201.523C280.249 201.528 280.75 200.898 280.76 200.091L280.773 191.168C280.783 190.356 280.385 189.689 279.572 189.677L279.573 189.675Z" fill="url(#paint53_linear_215_5754)"/>
<path d="M284.221 190.318C283.346 190.562 282.848 191.492 283.101 192.395L286.064 202.231C286.317 203.132 287.031 203.708 287.898 203.464C288.77 203.217 288.995 202.272 288.744 201.366L286.251 191.512C286.002 190.606 285.091 190.075 284.221 190.317V190.318Z" fill="url(#paint54_linear_215_5754)"/>
<path d="M282.178 189.709C281.288 189.838 280.17 190.308 280.299 191.234L282.475 201.576C282.606 202.506 283.207 203.354 284.109 203.223C285.002 203.097 285.293 202.234 285.165 201.309L284.042 191.16C283.907 190.234 283.076 189.586 282.178 189.71V189.709Z" fill="url(#paint55_linear_215_5754)"/>
<path d="M288.811 190.589C287.828 187.866 288.481 181.655 284.202 181.363C279.921 181.071 275.398 183.54 277.446 191.132C279.025 196.562 288.81 190.588 288.81 190.588L288.811 190.589Z" fill="url(#paint56_linear_215_5754)"/>
<path d="M269.759 166.739C272.926 170.266 273.18 193.925 273.18 193.925H252.204L231.182 193.564C231.182 193.564 230.485 168.849 234.711 165.596C241.153 160.635 264.247 160.592 269.759 166.739Z" fill="url(#paint57_linear_215_5754)"/>
<path d="M268.469 133.435C268.514 133.435 268.514 133.509 268.469 133.509C268.421 133.509 268.421 133.435 268.469 133.435Z" fill="#030303"/>
<path d="M272.348 171.515C272.361 176.045 265.979 179.308 256.269 179.426C245.459 179.558 231.234 176.067 231.507 170.984C231.789 165.73 233.014 161.808 233.089 158.649C233.345 147.951 229.122 114.447 229.122 114.447C229.122 108.694 234.089 104.453 252.011 104.453C270.96 104.453 272.761 110.316 272.761 116.068C272.761 116.068 272.126 137.745 272.203 152.826C272.235 158.977 272.338 168.107 272.348 171.515Z" fill="url(#paint58_linear_215_5754)"/>
<path d="M229.187 149.373C231.228 152.391 230.4 156.505 227.346 158.575C224.304 160.639 220.185 159.871 218.147 156.855C216.117 153.844 216.945 149.725 219.99 147.659C223.041 145.589 227.156 146.361 229.186 149.372L229.187 149.373Z" fill="url(#paint59_linear_215_5754)"/>
<path d="M251.962 168.286L255.151 160.835C240.677 153.179 236.993 152.324 226.235 146.986L220.667 159.049C225.202 161.626 240.122 167.095 251.962 168.284V168.286Z" fill="url(#paint60_linear_215_5754)"/>
<path d="M224.433 113.499C226.629 107.353 240.471 109.342 239.028 116.962C237.323 125.988 232.242 148.301 230.373 153.782L217.326 151.353C217.259 146.628 220.052 125.757 224.432 113.499H224.433Z" fill="url(#paint61_linear_215_5754)"/>
<path d="M229.563 155.601C227.595 158.668 223.488 159.528 220.382 157.544C217.288 155.562 216.363 151.472 218.332 148.409C220.296 145.357 224.404 144.49 227.509 146.475C230.613 148.459 231.531 152.548 229.562 155.6L229.563 155.601Z" fill="url(#paint62_linear_215_5754)"/>
<path d="M234.106 107.78C228.713 106.517 222.959 110.873 221.697 116.265L215.573 140.221C215.263 141.542 219.385 143.639 224.781 144.903C230.174 146.167 234.798 146.122 235.105 144.802L241.229 120.847C242.494 115.452 239.503 109.044 234.106 107.78Z" fill="url(#paint63_linear_215_5754)"/>
<path d="M267.637 161.717C267.169 163.184 264.823 162.553 263.506 162.592C262.211 162.629 258.383 163.344 258.383 163.344C257.662 163.142 252.272 161.6 252.858 161.009C254.793 159.048 257.759 158.938 258.496 158.946C261.106 158.969 262.86 159.443 264.303 159.673C265.685 159.889 268.212 159.9 267.637 161.718V161.717Z" fill="#8E5B59"/>
<path d="M261.893 165.697L270.512 167.881C271.292 168.086 272.053 167.765 272.227 167.034C272.405 166.306 271.782 165.732 270.997 165.529L260.373 162.165C259.589 161.958 261.11 165.487 261.893 165.695V165.697ZM257.192 169.788C256.822 170.444 255.887 171.285 256.605 171.656L265.387 175.608C266.111 175.978 267.29 175.879 267.662 175.225C268.031 174.571 267.696 173.878 266.981 173.51L259.055 169.49C258.335 169.118 257.567 169.133 257.191 169.788H257.192Z" fill="#8E5B59"/>
<path d="M259.89 165.905C259.62 166.694 260.124 167.579 261.009 167.89L270.77 171.084C271.652 171.391 272.515 171.171 272.783 170.383C273.048 169.592 272.384 168.903 271.498 168.595L261.974 165.038C261.084 164.727 260.154 165.118 259.889 165.905H259.89Z" fill="#8E5B59"/>
<path d="M258.253 167.8C257.931 168.561 257.79 169.674 258.658 170.03L268.662 173.437C269.53 173.793 270.556 173.736 270.881 172.967C271.209 172.204 270.604 171.548 269.741 171.194L260.416 167.056C259.551 166.7 258.583 167.035 258.252 167.8H258.253Z" fill="#8E5B59"/>
<path d="M262.535 163.054C259.749 162.294 254.943 158.382 252.397 161.434C249.848 164.487 249.458 169.244 256.866 171.888C262.218 173.692 262.535 163.054 262.535 163.054Z" fill="#8E5B59"/>
<path d="M257.386 107.323C256.497 109.887 253.752 110.409 251.347 110.307C248.693 110.196 245.201 109.473 244.346 106.535C243.758 104.51 244.299 102.223 244.373 100.157C244.425 98.7842 244.424 97.4073 244.354 96.0356C244.313 95.1929 244.248 94.3513 244.153 93.5117C244.076 92.8338 243.986 92.1579 243.882 91.4831C243.812 91.0287 243.735 90.5764 243.651 90.1262C243.594 89.8103 243.244 88.956 243.614 88.7503C243.956 88.5604 244.626 89.1754 244.901 89.3538C248.947 91.9543 253.184 94.2589 257.567 96.2392C257.739 96.3158 257.92 96.4019 258.018 96.5625C258.112 96.7157 258.11 96.9056 258.104 97.0861C258.061 98.5291 258.016 99.9721 257.973 101.414C257.959 101.975 257.955 102.538 257.946 103.098C257.928 104.526 257.862 105.951 257.388 107.32H257.386V107.323Z" fill="url(#paint64_linear_215_5754)"/>
<path d="M257.945 103.1C254.123 101.917 250.465 100.219 247.149 97.9961C246.227 97.379 245.277 96.7273 244.354 96.0347C244.313 95.192 244.248 94.3503 244.153 93.5107C244.076 92.8328 243.986 92.1569 243.882 91.4821C243.812 91.0277 243.735 90.5754 243.651 90.1252C243.594 89.8093 243.244 88.955 243.614 88.7494C243.956 88.5594 244.626 89.1744 244.901 89.3528C248.947 91.9533 253.184 94.2579 257.567 96.2383C257.739 96.3149 257.92 96.4009 258.018 96.5615C258.112 96.7147 258.11 96.9047 258.104 97.0852C258.061 98.5282 258.016 99.9712 257.973 101.413C257.959 101.974 257.955 102.537 257.946 103.098L257.945 103.1ZM261.188 87.087C261.741 89.0285 263.763 90.1546 265.705 89.6015C267.647 89.0484 268.772 87.0261 268.219 85.0847C267.666 83.1421 265.644 82.0171 263.702 82.5702C261.761 83.1232 260.635 85.1455 261.188 87.087Z" fill="#EF8D8B"/>
<path d="M257.328 100.918C257.328 100.918 251.04 100.578 251.17 93.2001L257.981 97.0474L257.327 100.918H257.328Z" fill="#EF8D8B"/>
<path d="M264.92 74.5755C264.92 74.5755 267.559 86.8341 265.881 91.6805C264.203 96.5269 260.239 99.5325 253.914 98.1892C253.914 98.1892 246.571 97.7044 244.906 86.7659C242.4 70.2979 257.412 65.7055 264.919 74.5755H264.92Z" fill="url(#paint65_linear_215_5754)"/>
<path d="M241.627 87.5814C242.086 89.1912 243.763 90.1252 245.373 89.6666C246.983 89.208 247.917 87.531 247.458 85.9211C247 84.3113 245.323 83.3772 243.713 83.8359C242.103 84.2945 241.169 85.9715 241.627 87.5814Z" fill="url(#paint66_linear_215_5754)"/>
<path d="M262.49 76.8139C262.718 76.6985 262.851 76.8118 263.936 76.9346C264.361 76.9829 264.474 76.985 264.541 76.9955C264.876 77.0532 265.605 77.6052 266.104 82.4222C266.801 81.3014 267.734 79.5152 268.241 77.1603C268.57 75.6364 269.341 71.7797 267.431 67.6574C265.326 63.1123 261.337 61.2148 260.245 60.7153C255.583 58.5828 248.841 58.4495 245.488 61.5349C244.491 62.4532 242.48 64.8627 238.588 67.4853C238.524 67.5294 238.534 67.521 238.513 67.5357C235.028 69.919 235.023 75.3447 235.019 78.5004C235.017 80.4314 235.01 86.9653 238.542 90.7979C238.812 91.0918 239.295 91.5556 240.26 92.4855C244.449 96.5185 245.017 96.4902 245.3 96.3989C246.398 96.0462 247.073 93.516 246.451 91.9177C246.164 91.1778 245.876 90.438 245.588 89.6981C244.768 89.8818 243.645 89.9951 243.091 89.3444C243.074 89.3245 243.059 89.3035 243.032 89.2689C242.638 88.7567 240.959 86.4458 242.006 84.8863C242.594 84.0132 243.93 83.5346 244.897 83.9219C245.973 84.3522 246.254 85.7102 246.704 87.4166C246.544 88.4692 246.274 91.2009 247.806 93.8917C249.895 97.5575 254.592 99.8537 259.098 98.5922C262.573 97.6194 265.253 94.7187 266.114 91.0834C265.214 90.5901 263.662 89.865 261.644 89.5869C257.183 88.9719 254.511 91.1012 251.862 89.6036C250.096 88.6056 248.993 87.0566 248.993 87.0566C248.806 86.7943 248.659 86.555 248.406 86.1373C247.999 85.4698 247.461 84.5085 246.945 83.3216C246.218 81.6509 246.243 81.1534 246.463 80.9121C247.078 80.2383 249.136 81.6561 249.837 80.9121C250.25 80.4713 249.674 79.8238 250.078 78.8635C250.539 77.7679 251.823 77.3544 252.006 77.2967C253.553 76.8202 254.082 77.9432 255.741 77.6577C257.435 77.367 257.649 76.0646 258.874 76.2116C260.226 76.3732 260.916 78.0722 261.645 77.7784C262.036 77.621 261.941 77.0931 262.489 76.8139V76.8171L262.49 76.8139Z" fill="url(#paint67_linear_215_5754)"/>
<path d="M286.472 146.907L284.226 171.729L284.15 172.56C284.15 174.387 282.67 175.868 280.841 175.868H262.883C261.056 175.868 259.575 174.387 259.575 172.56L260.441 162.984L260.794 159.087L261.896 146.908C261.896 145.393 262.915 144.116 264.303 143.724C264.589 143.643 264.891 143.6 265.203 143.6H283.163C284.99 143.6 286.471 145.081 286.471 146.908L286.472 146.907Z" fill="url(#paint68_linear_215_5754)"/>
<path d="M260.793 159.087L260.44 162.984C259.329 163.166 258.383 163.343 258.383 163.343C257.662 163.142 252.272 161.6 252.858 161.008C254.793 159.047 257.759 158.937 258.494 158.944C259.345 158.952 260.104 159.007 260.793 159.086V159.087Z" fill="url(#paint69_linear_215_5754)"/>
<path d="M261.893 165.697L270.512 167.882C271.292 168.086 272.053 167.765 272.227 167.034C272.405 166.306 271.782 165.732 270.997 165.529L260.373 162.165C259.589 161.958 261.11 165.487 261.893 165.696V165.697ZM257.192 169.788C256.822 170.444 255.887 171.285 256.605 171.656L265.387 175.608C266.111 175.978 267.29 175.879 267.662 175.225C268.031 174.571 267.696 173.878 266.981 173.51L259.055 169.49C258.335 169.118 257.567 169.134 257.191 169.788H257.192Z" fill="url(#paint70_linear_215_5754)"/>
<path d="M259.89 165.905C259.62 166.695 260.124 167.579 261.009 167.89L270.77 171.085C271.652 171.391 272.515 171.172 272.783 170.384C273.048 169.592 272.384 168.903 271.498 168.595L261.974 165.039C261.084 164.727 260.154 165.118 259.889 165.905H259.89Z" fill="url(#paint71_linear_215_5754)"/>
<path d="M258.253 167.8C257.931 168.562 257.79 169.674 258.658 170.03L268.662 173.437C269.53 173.793 270.556 173.736 270.881 172.967C271.209 172.204 270.604 171.548 269.741 171.194L260.416 167.056C259.551 166.7 258.583 167.035 258.252 167.8H258.253Z" fill="url(#paint72_linear_215_5754)"/>
<path d="M262.535 163.054C259.749 162.294 254.943 158.382 252.397 161.434C249.848 164.488 249.458 169.244 256.866 171.888C262.218 173.692 262.535 163.054 262.535 163.054Z" fill="url(#paint73_linear_215_5754)"/>
<path d="M286.47 146.907L284.224 171.729C272.649 167.897 264.3 156.989 264.3 144.13C264.3 143.995 264.3 143.858 264.303 143.723C264.589 143.641 264.891 143.599 265.203 143.599H283.162C284.989 143.599 286.47 145.08 286.47 146.907Z" fill="url(#paint74_linear_215_5754)"/>
<path d="M410.645 86.9329H311.738C311.042 86.9329 310.479 87.4968 310.479 88.1923V165.192C310.479 165.887 311.042 166.451 311.738 166.451H410.645C411.34 166.451 411.904 165.887 411.904 165.192V88.1923C411.904 87.4968 411.34 86.9329 410.645 86.9329Z" fill="url(#paint75_linear_215_5754)"/>
<path d="M338.025 106.152V107.833H331.289V106.496L334.727 103.249C335.516 102.497 335.657 102.039 335.657 101.606C335.657 100.906 335.173 100.498 334.231 100.498C333.467 100.498 332.817 100.791 332.385 101.389L330.882 100.422C331.569 99.4152 332.817 98.7666 334.422 98.7666C336.408 98.7666 337.733 99.7856 337.733 101.403C337.733 102.269 337.49 103.058 336.242 104.217L334.192 106.153H338.024L338.025 106.152ZM347.257 107.832L345.755 105.731L344.201 107.832H342.036L344.673 104.381L342.126 100.981H344.354L345.805 102.98L347.295 100.981H349.409L346.862 104.33L349.511 107.832H347.256H347.257ZM357.099 98.9188V107.833H355.036V100.575H353.253V98.9199H357.098L357.099 98.9188ZM358.652 103.375C358.652 100.433 360.282 98.7656 362.472 98.7656C364.663 98.7656 366.292 100.434 366.292 103.375C366.292 106.315 364.675 107.984 362.472 107.984C360.27 107.984 358.652 106.315 358.652 103.375ZM364.217 103.375C364.217 101.35 363.504 100.51 362.472 100.51C361.441 100.51 360.741 101.35 360.741 103.375C360.741 105.399 361.453 106.24 362.472 106.24C363.491 106.24 364.217 105.399 364.217 103.375ZM371.194 101.02H377.256V102.573H371.194V101.02ZM371.194 104.178H377.256V105.731H371.194V104.178ZM388.793 106.152V107.833H382.056V106.496L385.494 103.249C386.283 102.497 386.424 102.039 386.424 101.606C386.424 100.906 385.94 100.498 384.998 100.498C384.234 100.498 383.584 100.791 383.152 101.389L381.649 100.422C382.337 99.4152 383.584 98.7666 385.189 98.7666C387.176 98.7666 388.5 99.7856 388.5 101.403C388.5 102.269 388.258 103.058 387.01 104.217L384.959 106.153H388.792L388.793 106.152ZM389.62 103.375C389.62 100.433 391.25 98.7656 393.44 98.7656C395.63 98.7656 397.26 100.434 397.26 103.375C397.26 106.315 395.643 107.984 393.44 107.984C391.237 107.984 389.62 106.315 389.62 103.375ZM395.184 103.375C395.184 101.35 394.471 100.51 393.44 100.51C392.408 100.51 391.708 101.35 391.708 103.375C391.708 105.399 392.421 106.24 393.44 106.24C394.459 106.24 395.184 105.399 395.184 103.375ZM338.025 121.431V123.112H331.289V121.775L334.727 118.528C335.516 117.776 335.657 117.318 335.657 116.885C335.657 116.185 335.173 115.777 334.231 115.777C333.467 115.777 332.817 116.07 332.385 116.668L330.882 115.701C331.569 114.694 332.817 114.046 334.422 114.046C336.408 114.046 337.733 115.065 337.733 116.682C337.733 117.548 337.49 118.337 336.242 119.497L334.192 121.432H338.024L338.025 121.431ZM338.852 118.655C338.852 115.713 340.482 114.046 342.672 114.046C344.863 114.046 346.492 115.714 346.492 118.655C346.492 121.595 344.875 123.264 342.672 123.264C340.47 123.264 338.852 121.595 338.852 118.655ZM344.417 118.655C344.417 116.63 343.704 115.79 342.672 115.79C341.641 115.79 340.941 116.63 340.941 118.655C340.941 120.679 341.653 121.52 342.672 121.52C343.691 121.52 344.417 120.679 344.417 118.655ZM351.267 118.731H354.871V120.323H351.267V118.731ZM366.356 120.311C366.356 121.89 365.198 123.265 362.651 123.265C361.416 123.265 360.116 122.921 359.251 122.31L360.066 120.731C360.741 121.24 361.671 121.532 362.6 121.532C363.632 121.532 364.269 121.099 364.269 120.374C364.269 119.649 363.81 119.215 362.193 119.215H359.914L360.372 114.198H365.81V115.853H362.091L361.952 117.547H362.678C365.314 117.547 366.359 118.73 366.359 120.31L366.356 120.311ZM371.093 116.3H377.154V117.853H371.093V116.3ZM371.093 119.458H377.154V121.011H371.093V119.458ZM385.469 114.198V123.112H383.406V115.854H381.623V114.199H385.468L385.469 114.198ZM393.758 120.311C393.758 121.89 392.599 123.265 390.052 123.265C388.817 123.265 387.518 122.921 386.652 122.31L387.467 120.731C388.142 121.24 389.072 121.532 390.002 121.532C391.033 121.532 391.67 121.099 391.67 120.374C391.67 119.649 391.212 119.215 389.595 119.215H387.315L387.774 114.198H393.211V115.853H389.493L389.353 117.547H390.079C392.716 117.547 393.76 118.73 393.76 120.31L393.758 120.311ZM338.725 135.578C338.725 137.399 337.235 138.545 335.351 138.545C332.894 138.545 331.366 137.005 331.366 134.127C331.366 131.046 333.224 129.327 335.912 129.327C336.854 129.327 337.771 129.543 338.395 129.938L337.631 131.453C337.134 131.122 336.561 131.007 335.962 131.007C334.472 131.007 333.517 131.885 333.454 133.592C333.976 133.07 334.727 132.803 335.657 132.803C337.376 132.803 338.725 133.897 338.725 135.578ZM336.726 135.68C336.726 134.865 336.128 134.343 335.211 134.343C334.293 134.343 333.67 134.904 333.67 135.68C333.67 136.457 334.243 137.005 335.236 137.005C336.114 137.005 336.726 136.496 336.726 135.68ZM349.434 134.712H347.219V136.877H345.576V134.712H343.373V133.158H345.576V130.993H347.219V133.158H349.434V134.712ZM361.671 135.578C361.671 137.399 360.18 138.545 358.297 138.545C355.839 138.545 354.311 137.005 354.311 134.127C354.311 131.046 356.17 129.327 358.857 129.327C359.799 129.327 360.717 129.543 361.34 129.938L360.576 131.453C360.08 131.122 359.507 131.007 358.908 131.007C357.418 131.007 356.463 131.885 356.4 133.592C356.922 133.07 357.673 132.803 358.603 132.803C360.322 132.803 361.672 133.897 361.672 135.578H361.671ZM359.671 135.68C359.671 134.865 359.073 134.343 358.156 134.343C357.239 134.343 356.615 134.904 356.615 135.68C356.615 136.457 357.188 137.005 358.181 137.005C359.06 137.005 359.671 136.496 359.671 135.68ZM366.318 131.58H372.379V133.133H366.318V131.58ZM366.318 134.738H372.379V136.291H366.318V134.738ZM380.694 129.478V138.392H378.631V131.134H376.848V129.479H380.693L380.694 129.478ZM388.907 136.711V138.392H382.171V137.055L385.609 133.808C386.398 133.057 386.539 132.598 386.539 132.166C386.539 131.466 386.055 131.057 385.112 131.057C384.348 131.057 383.699 131.35 383.266 131.948L381.764 130.981C382.451 129.974 383.699 129.326 385.303 129.326C387.29 129.326 388.614 130.345 388.614 131.962C388.614 132.828 388.372 133.617 387.124 134.777L385.073 136.712H388.906L388.907 136.711ZM337.949 150.947C337.949 152.449 336.79 153.824 334.256 153.824C333.008 153.824 331.721 153.48 330.855 152.869L331.657 151.29C332.332 151.799 333.274 152.092 334.204 152.092C335.236 152.092 335.873 151.672 335.873 150.946C335.873 150.271 335.377 149.85 334.204 149.85H333.262V148.488L335.095 146.412H331.3V144.757H337.54V146.094L335.529 148.386C337.133 148.641 337.948 149.634 337.948 150.946L337.949 150.947ZM347.283 153.672L345.78 151.571L344.227 153.672H342.062L344.698 150.221L342.151 146.821H344.379L345.83 148.82L347.32 146.821H349.434L346.887 150.17L349.536 153.672H347.282H347.283ZM360.346 151.991V153.672H353.61V152.335L357.048 149.088C357.837 148.337 357.978 147.878 357.978 147.446C357.978 146.746 357.494 146.337 356.551 146.337C355.787 146.337 355.138 146.63 354.705 147.228L353.203 146.261C353.89 145.254 355.138 144.606 356.742 144.606C358.729 144.606 360.053 145.625 360.053 147.242C360.053 148.108 359.811 148.897 358.563 150.057L356.513 151.992H360.345L360.346 151.991ZM365.096 146.859H371.158V148.412H365.096V146.859ZM365.096 150.017H371.158V151.57H365.096V150.017ZM383.393 150.857C383.393 152.678 381.903 153.824 380.019 153.824C377.561 153.824 376.033 152.284 376.033 149.406C376.033 146.325 377.892 144.606 380.58 144.606C381.522 144.606 382.439 144.822 383.063 145.217L382.299 146.732C381.802 146.4 381.229 146.286 380.63 146.286C379.14 146.286 378.185 147.164 378.122 148.871C378.643 148.348 379.395 148.082 380.325 148.082C382.044 148.082 383.393 149.177 383.393 150.857ZM381.394 150.959C381.394 150.144 380.796 149.622 379.879 149.622C378.961 149.622 378.338 150.183 378.338 150.959C378.338 151.736 378.911 152.284 379.904 152.284C380.782 152.284 381.394 151.775 381.394 150.959Z" fill="white"/>
<path d="M269.975 336.974H216.979C214.508 336.974 212.485 334.952 212.485 332.48C212.485 332.237 212.505 331.998 212.542 331.765C212.884 333.903 214.749 335.55 216.979 335.55H266.7C266.725 335.577 266.752 335.604 266.778 335.631C266.861 335.716 266.947 335.796 267.037 335.874C267.083 335.914 267.129 335.954 267.178 335.991C267.302 336.09 267.43 336.183 267.564 336.268C267.595 336.289 267.627 336.309 267.659 336.327C267.724 336.367 267.79 336.404 267.857 336.44C267.889 336.458 267.923 336.475 267.956 336.492C268.058 336.544 268.161 336.592 268.267 336.635C268.302 336.65 268.337 336.663 268.373 336.677C268.407 336.691 268.44 336.703 268.475 336.715C268.478 336.717 268.482 336.718 268.485 336.719C268.52 336.731 268.555 336.743 268.589 336.754C268.625 336.766 268.662 336.778 268.698 336.788C268.735 336.799 268.772 336.81 268.81 336.82C268.846 336.83 268.884 336.84 268.922 336.848C268.96 336.857 268.997 336.867 269.035 336.874C269.073 336.883 269.111 336.89 269.149 336.897C269.178 336.903 269.206 336.908 269.236 336.912C269.366 336.934 269.498 336.951 269.631 336.96C269.669 336.963 269.706 336.967 269.744 336.968C269.754 336.969 269.765 336.969 269.775 336.969C269.841 336.973 269.907 336.974 269.975 336.974Z" fill="url(#paint76_linear_215_5754)"/>
<path d="M269.975 327.985C268.739 327.985 267.615 328.491 266.801 329.306C266.77 329.336 266.74 329.367 266.711 329.399C266.693 329.417 266.676 329.435 266.66 329.454C266.532 329.592 266.415 329.739 266.306 329.893C266.27 329.943 266.235 329.993 266.203 330.044C266.123 330.167 266.048 330.294 265.981 330.425C265.958 330.47 265.935 330.516 265.913 330.562C265.866 330.661 265.822 330.763 265.782 330.867C265.772 330.889 265.764 330.912 265.756 330.935C265.742 330.973 265.728 331.011 265.716 331.05C265.705 331.079 265.696 331.109 265.686 331.139C265.663 331.211 265.642 331.286 265.623 331.36C265.616 331.388 265.609 331.416 265.602 331.444L265.58 331.542C265.575 331.566 265.57 331.59 265.566 331.615C265.555 331.666 265.547 331.716 265.538 331.767C265.529 331.823 265.522 331.88 265.514 331.937C265.514 331.941 265.512 331.946 265.512 331.95C265.506 332.002 265.501 332.053 265.496 332.106C265.495 332.115 265.494 332.125 265.494 332.136C265.49 332.189 265.487 332.244 265.485 332.3C265.482 332.359 265.481 332.419 265.481 332.48C265.481 332.527 265.481 332.576 265.483 332.623C265.484 332.652 265.485 332.682 265.487 332.711C265.495 332.891 265.515 333.068 265.546 333.242C265.557 333.306 265.569 333.369 265.582 333.432C265.592 333.473 265.601 333.514 265.612 333.555C265.619 333.587 265.628 333.62 265.637 333.652C265.709 333.92 265.807 334.178 265.926 334.424C265.941 334.456 265.957 334.489 265.974 334.521C266.12 334.805 266.295 335.071 266.497 335.317C266.519 335.343 266.541 335.369 266.563 335.396C266.585 335.422 266.607 335.448 266.631 335.473C266.653 335.499 266.677 335.525 266.701 335.55H216.98C214.75 335.55 212.885 333.903 212.543 331.765C212.697 330.814 213.153 329.959 213.807 329.306C214.621 328.491 215.744 327.985 216.98 327.985H269.975Z" fill="#FEB866"/>
<path d="M269.975 335.55H216.98C214.75 335.55 212.885 333.903 212.543 331.765C212.697 330.814 213.153 329.959 213.807 329.306C214.621 328.491 215.744 327.985 216.98 327.985H266.701C265.946 328.789 265.481 329.871 265.481 331.056C265.481 331.297 265.5 331.535 265.538 331.767C265.88 333.904 267.745 335.55 269.975 335.55Z" fill="url(#paint77_linear_215_5754)"/>
<path d="M325.496 336.973H269.975C269.908 336.973 269.842 336.972 269.776 336.968C269.765 336.968 269.755 336.968 269.744 336.967C269.707 336.966 269.669 336.962 269.632 336.959C269.499 336.95 269.367 336.933 269.236 336.911C269.208 336.907 269.179 336.902 269.149 336.896C269.112 336.889 269.074 336.882 269.036 336.873C268.998 336.865 268.96 336.856 268.923 336.847C268.885 336.839 268.847 336.829 268.81 336.819C268.774 336.809 268.736 336.798 268.699 336.787C268.662 336.777 268.626 336.765 268.59 336.753C268.555 336.742 268.521 336.729 268.486 336.718C268.483 336.717 268.479 336.716 268.476 336.714C268.442 336.702 268.407 336.69 268.374 336.676C268.338 336.662 268.302 336.649 268.268 336.634C268.162 336.591 268.059 336.543 267.957 336.491C267.924 336.474 267.89 336.457 267.857 336.439C267.79 336.403 267.725 336.366 267.66 336.326C267.629 336.306 267.596 336.287 267.565 336.267C267.43 336.182 267.302 336.089 267.178 335.99C267.13 335.953 267.084 335.913 267.038 335.873C266.948 335.795 266.862 335.715 266.779 335.63C266.752 335.603 266.726 335.576 266.701 335.549C266.678 335.524 266.654 335.498 266.631 335.472C266.607 335.447 266.584 335.421 266.562 335.395C266.54 335.368 266.518 335.342 266.496 335.316C266.295 335.07 266.12 334.804 265.974 334.52C265.958 334.488 265.941 334.455 265.925 334.423C265.807 334.177 265.709 333.919 265.637 333.651C265.627 333.619 265.619 333.586 265.612 333.554C265.601 333.513 265.592 333.472 265.582 333.431C265.569 333.368 265.557 333.305 265.546 333.241C265.515 333.067 265.495 332.889 265.487 332.71C265.485 332.681 265.484 332.651 265.483 332.622C265.482 332.575 265.48 332.526 265.48 332.479C265.48 332.418 265.48 332.358 265.485 332.299C265.487 332.243 265.49 332.188 265.494 332.135C265.494 332.124 265.494 332.114 265.496 332.104C265.5 332.052 265.506 332.001 265.512 331.949C265.512 331.945 265.513 331.94 265.514 331.936C265.521 331.88 265.529 331.823 265.538 331.769C265.54 331.784 265.542 331.801 265.546 331.817C265.557 331.881 265.569 331.944 265.582 332.007C265.592 332.048 265.601 332.089 265.612 332.13C265.619 332.162 265.627 332.195 265.637 332.227C265.709 332.495 265.807 332.753 265.925 332.999C265.941 333.031 265.958 333.064 265.974 333.096C266.12 333.38 266.295 333.646 266.496 333.892C266.518 333.918 266.54 333.944 266.562 333.97C266.584 333.997 266.607 334.023 266.631 334.048C266.654 334.074 266.678 334.099 266.701 334.125C266.726 334.152 266.752 334.179 266.779 334.205C266.862 334.29 266.948 334.371 267.038 334.449C267.084 334.489 267.13 334.529 267.178 334.565C267.302 334.665 267.43 334.757 267.565 334.843C267.596 334.862 267.629 334.882 267.66 334.902C267.725 334.942 267.79 334.979 267.857 335.015C267.89 335.032 267.924 335.05 267.957 335.067C268.059 335.118 268.162 335.167 268.268 335.21C268.302 335.225 268.338 335.238 268.374 335.252C268.407 335.265 268.442 335.278 268.476 335.29C268.479 335.292 268.483 335.293 268.486 335.294C268.521 335.305 268.555 335.318 268.59 335.328C268.626 335.341 268.662 335.353 268.699 335.363C268.736 335.374 268.774 335.385 268.81 335.395C268.847 335.405 268.885 335.414 268.923 335.423C268.96 335.432 268.998 335.441 269.036 335.449C269.074 335.457 269.112 335.465 269.149 335.472C269.179 335.477 269.208 335.483 269.236 335.487C269.367 335.509 269.499 335.526 269.632 335.535C269.669 335.538 269.707 335.541 269.744 335.542C269.755 335.542 269.765 335.542 269.776 335.542C269.842 335.547 269.908 335.548 269.975 335.548H322.221C323.042 336.423 324.208 336.972 325.496 336.972V336.973Z" fill="#EAEAEA"/>
<path d="M321.057 331.764C321.021 331.997 321.001 332.236 321.001 332.479C321.001 333.663 321.466 334.745 322.221 335.549H269.975C269.908 335.549 269.842 335.548 269.776 335.544C269.765 335.544 269.755 335.544 269.744 335.544C269.707 335.542 269.669 335.539 269.632 335.536C269.499 335.527 269.366 335.51 269.236 335.488C269.208 335.484 269.179 335.478 269.149 335.473C269.111 335.466 269.074 335.459 269.036 335.45C268.998 335.442 268.96 335.433 268.923 335.424C268.885 335.416 268.847 335.406 268.81 335.396C268.774 335.386 268.736 335.375 268.699 335.364C268.662 335.354 268.626 335.342 268.59 335.329C268.555 335.319 268.521 335.306 268.486 335.295C268.483 335.294 268.479 335.293 268.476 335.291C268.442 335.279 268.407 335.266 268.374 335.253C268.338 335.239 268.302 335.226 268.268 335.211C268.162 335.168 268.059 335.12 267.957 335.068C267.923 335.051 267.89 335.033 267.857 335.016C267.79 334.98 267.725 334.943 267.66 334.903C267.629 334.883 267.596 334.863 267.565 334.844C267.43 334.759 267.302 334.666 267.178 334.567C267.13 334.53 267.084 334.49 267.038 334.45C266.948 334.372 266.861 334.292 266.779 334.207C266.752 334.18 266.726 334.153 266.701 334.126C266.678 334.101 266.654 334.075 266.631 334.049C266.606 334.024 266.584 333.998 266.562 333.971C266.54 333.945 266.518 333.919 266.496 333.893C266.295 333.647 266.119 333.381 265.974 333.097C265.958 333.065 265.941 333.032 265.925 333C265.807 332.754 265.709 332.496 265.637 332.228C265.627 332.196 265.619 332.163 265.612 332.131C265.601 332.09 265.592 332.049 265.582 332.008C265.569 331.945 265.557 331.882 265.545 331.818C265.542 331.802 265.54 331.785 265.538 331.77V331.768C265.546 331.716 265.555 331.666 265.565 331.615C265.57 331.59 265.575 331.566 265.58 331.542L265.602 331.444C265.608 331.416 265.616 331.388 265.623 331.36C265.642 331.286 265.663 331.211 265.686 331.139C265.696 331.11 265.705 331.079 265.715 331.05C265.728 331.011 265.742 330.973 265.755 330.935C265.764 330.912 265.773 330.889 265.782 330.867C265.821 330.763 265.866 330.661 265.913 330.562C265.935 330.516 265.958 330.47 265.981 330.425C266.048 330.294 266.123 330.167 266.202 330.044C266.236 329.993 266.27 329.943 266.305 329.893C266.414 329.739 266.532 329.592 266.66 329.454C266.676 329.435 266.694 329.417 266.71 329.399C266.74 329.367 266.77 329.336 266.801 329.306C267.615 328.491 268.739 327.985 269.975 327.985H325.496C324.259 327.985 323.135 328.491 322.321 329.306C321.667 329.959 321.212 330.814 321.057 331.765V331.764Z" fill="white"/>
<path d="M325.496 335.549H269.975C269.908 335.549 269.842 335.548 269.776 335.544C269.765 335.544 269.755 335.544 269.744 335.544C269.707 335.542 269.669 335.539 269.632 335.536C269.499 335.527 269.366 335.51 269.236 335.488C269.208 335.484 269.179 335.478 269.149 335.473C269.111 335.466 269.074 335.459 269.036 335.45C268.998 335.442 268.96 335.433 268.923 335.424C268.885 335.416 268.847 335.406 268.81 335.396C268.774 335.386 268.736 335.375 268.699 335.364C268.662 335.354 268.626 335.342 268.59 335.329C268.555 335.319 268.521 335.306 268.486 335.295C268.483 335.294 268.479 335.293 268.476 335.291C268.442 335.279 268.407 335.266 268.374 335.253C268.338 335.239 268.302 335.226 268.268 335.211C268.162 335.168 268.059 335.12 267.957 335.068C267.923 335.051 267.89 335.033 267.857 335.016C267.79 334.98 267.725 334.943 267.66 334.903C267.629 334.883 267.596 334.863 267.565 334.844C267.43 334.759 267.302 334.666 267.178 334.567C267.13 334.53 267.084 334.49 267.038 334.45C266.948 334.372 266.861 334.292 266.779 334.207C266.752 334.18 266.726 334.153 266.701 334.126C266.678 334.101 266.654 334.075 266.631 334.049C266.606 334.024 266.584 333.998 266.562 333.971C266.54 333.945 266.518 333.919 266.496 333.893C266.295 333.647 266.119 333.381 265.974 333.097C265.958 333.065 265.941 333.032 265.925 333C265.807 332.754 265.709 332.496 265.637 332.228C265.627 332.196 265.619 332.163 265.612 332.131C265.601 332.09 265.592 332.049 265.582 332.008C265.569 331.945 265.557 331.882 265.545 331.818C265.542 331.802 265.54 331.785 265.538 331.77V331.768C265.546 331.716 265.555 331.666 265.565 331.615C265.57 331.59 265.575 331.566 265.58 331.542L265.602 331.444C265.608 331.416 265.616 331.388 265.623 331.36C265.642 331.286 265.663 331.211 265.686 331.139C265.696 331.11 265.705 331.079 265.715 331.05C265.728 331.011 265.742 330.973 265.755 330.935C265.764 330.912 265.773 330.889 265.782 330.867C265.821 330.763 265.866 330.661 265.913 330.562C265.935 330.516 265.958 330.47 265.981 330.425C266.048 330.294 266.123 330.167 266.202 330.044C266.236 329.993 266.27 329.943 266.305 329.893C266.414 329.739 266.532 329.592 266.66 329.454C266.676 329.435 266.694 329.417 266.71 329.399C266.74 329.367 266.77 329.336 266.801 329.306C267.615 328.491 268.739 327.985 269.975 327.985H322.221C321.466 328.789 321.001 329.871 321.001 331.056C321.001 331.297 321.02 331.535 321.057 331.765C321.4 333.903 323.264 335.55 325.496 335.55V335.549Z" fill="white"/>
<path d="M268.881 330.016H318.539" stroke="#D3E1FD" stroke-width="0.419783" stroke-miterlimit="10" stroke-linecap="round"/>
<path d="M268.881 331.652H318.539" stroke="#D3E1FD" stroke-width="0.419783" stroke-miterlimit="10" stroke-linecap="round"/>
<path d="M268.881 333.278H318.539" stroke="#D3E1FD" stroke-width="0.419783" stroke-miterlimit="10" stroke-linecap="round"/>
<path d="M279.236 344.293H328.894" stroke="#E9E9F2" stroke-width="0.419783" stroke-miterlimit="10"/>
<path d="M282.457 328.23H229.462C226.99 328.23 224.968 326.208 224.968 323.736C224.968 323.493 224.988 323.254 225.024 323.021C225.367 325.159 227.231 326.806 229.462 326.806H279.183C279.208 326.833 279.234 326.86 279.26 326.887C279.343 326.972 279.429 327.052 279.52 327.13C279.566 327.17 279.612 327.21 279.66 327.247C279.784 327.346 279.912 327.439 280.046 327.524C280.078 327.545 280.109 327.565 280.142 327.583C280.207 327.623 280.272 327.66 280.339 327.696C280.372 327.714 280.405 327.731 280.439 327.748C280.541 327.8 280.643 327.848 280.749 327.891C280.784 327.906 280.82 327.919 280.855 327.933C280.889 327.947 280.923 327.959 280.957 327.971C280.96 327.973 280.965 327.974 280.968 327.975C281.002 327.987 281.037 327.999 281.072 328.009C281.107 328.022 281.144 328.034 281.181 328.044C281.218 328.055 281.254 328.066 281.292 328.076C281.329 328.086 281.367 328.096 281.404 328.104C281.442 328.113 281.48 328.123 281.518 328.13C281.555 328.139 281.593 328.146 281.631 328.153C281.66 328.159 281.689 328.164 281.718 328.168C281.848 328.19 281.98 328.207 282.114 328.216C282.152 328.219 282.188 328.223 282.226 328.224C282.237 328.225 282.247 328.225 282.258 328.225C282.324 328.229 282.39 328.23 282.457 328.23Z" fill="url(#paint78_linear_215_5754)"/>
<path d="M282.458 319.241C281.222 319.241 280.098 319.747 279.283 320.561C279.253 320.592 279.222 320.623 279.193 320.655C279.175 320.673 279.158 320.691 279.143 320.709C279.015 320.848 278.897 320.995 278.788 321.149C278.752 321.198 278.718 321.249 278.685 321.3C278.605 321.423 278.531 321.55 278.464 321.681C278.441 321.726 278.417 321.771 278.395 321.818C278.348 321.917 278.304 322.019 278.264 322.123C278.255 322.145 278.246 322.168 278.238 322.191C278.224 322.229 278.211 322.267 278.198 322.306C278.188 322.335 278.178 322.364 278.169 322.395C278.146 322.467 278.125 322.542 278.106 322.616C278.098 322.644 278.091 322.672 278.085 322.7L278.063 322.798C278.058 322.822 278.052 322.846 278.048 322.871C278.038 322.922 278.029 322.972 278.021 323.022C278.011 323.079 278.004 323.136 277.997 323.192C277.997 323.197 277.995 323.202 277.995 323.206C277.988 323.258 277.983 323.309 277.979 323.361C277.978 323.371 277.977 323.381 277.977 323.392C277.973 323.445 277.969 323.5 277.967 323.556C277.964 323.615 277.963 323.675 277.963 323.736C277.963 323.783 277.963 323.832 277.965 323.879C277.966 323.908 277.967 323.938 277.969 323.967C277.978 324.146 277.998 324.324 278.028 324.498C278.04 324.562 278.051 324.625 278.065 324.688C278.074 324.729 278.084 324.77 278.094 324.811C278.102 324.843 278.11 324.876 278.119 324.908C278.192 325.176 278.289 325.434 278.408 325.68C278.424 325.712 278.44 325.745 278.456 325.777C278.602 326.061 278.777 326.327 278.979 326.573C279.001 326.599 279.023 326.625 279.045 326.651C279.067 326.678 279.089 326.704 279.113 326.729C279.135 326.755 279.159 326.781 279.184 326.806H229.462C227.232 326.806 225.368 325.159 225.025 323.021C225.18 322.07 225.635 321.215 226.289 320.561C227.103 319.747 228.226 319.241 229.462 319.241H282.458Z" fill="url(#paint79_linear_215_5754)"/>
<path d="M282.458 326.806H229.462C227.232 326.806 225.368 325.159 225.025 323.021C225.18 322.07 225.635 321.215 226.289 320.561C227.103 319.747 228.226 319.241 229.462 319.241H279.184C278.428 320.045 277.963 321.127 277.963 322.312C277.963 322.553 277.982 322.791 278.021 323.022C278.363 325.16 280.228 326.806 282.458 326.806Z" fill="url(#paint80_linear_215_5754)"/>
<path d="M337.976 328.229H282.456C282.389 328.229 282.322 328.228 282.256 328.224C282.246 328.224 282.235 328.224 282.225 328.223C282.187 328.221 282.149 328.218 282.113 328.215C281.979 328.206 281.847 328.189 281.717 328.167C281.689 328.163 281.659 328.157 281.63 328.152C281.592 328.145 281.554 328.138 281.516 328.129C281.479 328.121 281.441 328.112 281.403 328.103C281.365 328.094 281.328 328.085 281.291 328.075C281.254 328.065 281.216 328.054 281.18 328.043C281.143 328.033 281.106 328.021 281.07 328.008C281.036 327.998 281.001 327.985 280.967 327.974C280.963 327.973 280.959 327.972 280.956 327.97C280.922 327.958 280.888 327.945 280.854 327.932C280.819 327.918 280.783 327.905 280.748 327.89C280.642 327.847 280.539 327.799 280.438 327.747C280.404 327.73 280.37 327.712 280.338 327.695C280.271 327.659 280.206 327.622 280.141 327.582C280.109 327.562 280.077 327.542 280.045 327.523C279.911 327.438 279.783 327.345 279.659 327.245C279.611 327.209 279.565 327.169 279.518 327.129C279.428 327.051 279.342 326.971 279.259 326.886C279.233 326.859 279.207 326.832 279.181 326.805C279.158 326.78 279.134 326.754 279.111 326.728C279.087 326.703 279.065 326.677 279.043 326.65C279.021 326.624 278.999 326.598 278.977 326.572C278.775 326.326 278.6 326.06 278.454 325.776C278.438 325.744 278.422 325.711 278.406 325.679C278.287 325.433 278.19 325.175 278.117 324.907C278.108 324.875 278.099 324.842 278.092 324.81C278.082 324.769 278.072 324.728 278.063 324.687C278.049 324.624 278.038 324.561 278.026 324.497C277.996 324.323 277.976 324.145 277.967 323.966C277.965 323.937 277.964 323.907 277.963 323.878C277.962 323.831 277.961 323.782 277.961 323.735C277.961 323.674 277.961 323.614 277.965 323.555C277.967 323.499 277.97 323.444 277.975 323.391C277.975 323.38 277.975 323.37 277.977 323.36C277.981 323.308 277.986 323.257 277.992 323.205C277.992 323.201 277.993 323.196 277.995 323.191C278.002 323.136 278.009 323.079 278.019 323.025C278.021 323.04 278.023 323.057 278.026 323.073C278.038 323.137 278.049 323.2 278.063 323.263C278.072 323.304 278.082 323.345 278.092 323.386C278.099 323.418 278.108 323.451 278.117 323.483C278.19 323.751 278.287 324.009 278.406 324.255C278.422 324.287 278.438 324.32 278.454 324.352C278.6 324.635 278.775 324.902 278.977 325.148C278.999 325.174 279.021 325.2 279.043 325.226C279.065 325.253 279.087 325.279 279.111 325.304C279.134 325.33 279.158 325.355 279.181 325.381C279.207 325.408 279.233 325.435 279.259 325.461C279.342 325.546 279.428 325.627 279.518 325.705C279.565 325.745 279.611 325.785 279.659 325.821C279.783 325.921 279.911 326.013 280.045 326.098C280.077 326.118 280.109 326.138 280.141 326.158C280.206 326.198 280.271 326.235 280.338 326.271C280.37 326.288 280.404 326.306 280.438 326.323C280.539 326.374 280.642 326.423 280.748 326.466C280.783 326.48 280.819 326.494 280.854 326.508C280.888 326.521 280.922 326.534 280.956 326.545C280.959 326.548 280.963 326.549 280.967 326.55C281.001 326.561 281.036 326.574 281.07 326.584C281.106 326.597 281.143 326.608 281.18 326.619C281.216 326.629 281.254 326.641 281.291 326.65C281.328 326.661 281.365 326.67 281.403 326.679C281.441 326.688 281.479 326.697 281.516 326.705C281.554 326.713 281.592 326.721 281.63 326.728C281.659 326.733 281.689 326.739 281.717 326.743C281.847 326.765 281.979 326.782 282.113 326.791C282.149 326.794 282.187 326.797 282.225 326.798C282.235 326.798 282.246 326.798 282.256 326.798C282.322 326.803 282.389 326.804 282.456 326.804H334.702C335.523 327.679 336.688 328.228 337.976 328.228V328.229Z" fill="url(#paint81_linear_215_5754)"/>
<path d="M333.539 323.02C333.502 323.253 333.482 323.492 333.482 323.735C333.482 324.919 333.947 326.001 334.703 326.805H282.457C282.389 326.805 282.323 326.804 282.257 326.799C282.247 326.799 282.236 326.799 282.226 326.799C282.188 326.798 282.15 326.795 282.113 326.792C281.98 326.783 281.848 326.766 281.718 326.744C281.689 326.74 281.66 326.734 281.631 326.729C281.593 326.722 281.555 326.714 281.517 326.706C281.48 326.698 281.442 326.689 281.404 326.68C281.366 326.671 281.328 326.662 281.292 326.651C281.255 326.642 281.217 326.63 281.18 326.62C281.144 326.61 281.107 326.598 281.071 326.585C281.037 326.575 281.002 326.562 280.967 326.551C280.964 326.55 280.96 326.549 280.957 326.547C280.923 326.535 280.889 326.522 280.855 326.509C280.819 326.495 280.784 326.481 280.749 326.467C280.643 326.424 280.54 326.375 280.439 326.324C280.405 326.307 280.371 326.289 280.339 326.272C280.272 326.236 280.207 326.199 280.142 326.159C280.11 326.139 280.078 326.119 280.046 326.099C279.912 326.014 279.784 325.922 279.66 325.822C279.612 325.786 279.565 325.746 279.519 325.706C279.429 325.628 279.343 325.547 279.26 325.462C279.234 325.436 279.208 325.409 279.182 325.382C279.159 325.356 279.135 325.331 279.112 325.305C279.088 325.28 279.066 325.254 279.044 325.227C279.022 325.201 279 325.175 278.978 325.149C278.776 324.903 278.601 324.637 278.455 324.353C278.439 324.321 278.423 324.288 278.407 324.256C278.288 324.01 278.191 323.752 278.118 323.484C278.109 323.452 278.1 323.419 278.093 323.387C278.083 323.346 278.073 323.305 278.064 323.264C278.05 323.201 278.038 323.138 278.027 323.074C278.024 323.058 278.022 323.041 278.02 323.026V323.024C278.028 322.972 278.036 322.922 278.047 322.871C278.051 322.846 278.056 322.822 278.062 322.798L278.084 322.7C278.09 322.672 278.097 322.644 278.105 322.616C278.123 322.542 278.144 322.467 278.168 322.395C278.177 322.366 278.186 322.335 278.197 322.306C278.209 322.267 278.223 322.229 278.237 322.191C278.245 322.168 278.255 322.145 278.263 322.123C278.303 322.019 278.347 321.917 278.394 321.818C278.416 321.772 278.439 321.726 278.462 321.681C278.53 321.55 278.604 321.423 278.684 321.3C278.717 321.249 278.751 321.199 278.787 321.149C278.896 320.995 279.013 320.848 279.141 320.709C279.157 320.691 279.175 320.673 279.192 320.655C279.221 320.623 279.252 320.592 279.282 320.561C280.096 319.747 281.22 319.241 282.457 319.241H337.977C336.741 319.241 335.617 319.747 334.802 320.561C334.149 321.215 333.693 322.07 333.539 323.021V323.02Z" fill="white"/>
<path d="M337.977 326.805H282.457C282.389 326.805 282.323 326.804 282.257 326.799C282.247 326.799 282.236 326.799 282.226 326.799C282.188 326.798 282.15 326.795 282.113 326.792C281.98 326.783 281.848 326.766 281.718 326.744C281.689 326.74 281.66 326.734 281.631 326.729C281.593 326.722 281.555 326.714 281.517 326.706C281.48 326.698 281.442 326.689 281.404 326.68C281.366 326.671 281.328 326.662 281.292 326.651C281.255 326.642 281.217 326.63 281.18 326.62C281.144 326.61 281.107 326.598 281.071 326.585C281.037 326.575 281.002 326.562 280.967 326.551C280.964 326.55 280.96 326.549 280.957 326.547C280.923 326.535 280.889 326.522 280.855 326.509C280.819 326.495 280.784 326.481 280.749 326.467C280.643 326.424 280.54 326.375 280.439 326.324C280.405 326.307 280.371 326.289 280.339 326.272C280.272 326.236 280.207 326.199 280.142 326.159C280.11 326.139 280.078 326.119 280.046 326.099C279.912 326.014 279.784 325.922 279.66 325.822C279.612 325.786 279.565 325.746 279.519 325.706C279.429 325.628 279.343 325.547 279.26 325.462C279.234 325.436 279.208 325.409 279.182 325.382C279.159 325.356 279.135 325.331 279.112 325.305C279.088 325.28 279.066 325.254 279.044 325.227C279.022 325.201 279 325.175 278.978 325.149C278.776 324.903 278.601 324.637 278.455 324.353C278.439 324.321 278.423 324.288 278.407 324.256C278.288 324.01 278.191 323.752 278.118 323.484C278.109 323.452 278.1 323.419 278.093 323.387C278.083 323.346 278.073 323.305 278.064 323.264C278.05 323.201 278.038 323.138 278.027 323.074C278.024 323.058 278.022 323.041 278.02 323.026V323.024C278.028 322.972 278.036 322.922 278.047 322.871C278.051 322.846 278.056 322.822 278.062 322.798L278.084 322.7C278.09 322.672 278.097 322.644 278.105 322.616C278.123 322.542 278.144 322.467 278.168 322.395C278.177 322.366 278.186 322.335 278.197 322.306C278.209 322.267 278.223 322.229 278.237 322.191C278.245 322.168 278.255 322.145 278.263 322.123C278.303 322.019 278.347 321.917 278.394 321.818C278.416 321.772 278.439 321.726 278.462 321.681C278.53 321.55 278.604 321.423 278.684 321.3C278.717 321.249 278.751 321.199 278.787 321.149C278.896 320.995 279.013 320.848 279.141 320.709C279.157 320.691 279.175 320.673 279.192 320.655C279.221 320.623 279.252 320.592 279.282 320.561C280.096 319.747 281.22 319.241 282.457 319.241H334.703C333.947 320.045 333.482 321.127 333.482 322.312C333.482 322.553 333.501 322.791 333.539 323.021C333.881 325.159 335.746 326.806 337.977 326.806V326.805Z" fill="white"/>
<path d="M281.361 321.272H331.019" stroke="#D3E1FD" stroke-width="0.419783" stroke-miterlimit="10" stroke-linecap="round"/>
<path d="M281.361 322.908H331.019" stroke="#D3E1FD" stroke-width="0.419783" stroke-miterlimit="10" stroke-linecap="round"/>
<path d="M281.361 324.534H331.019" stroke="#D3E1FD" stroke-width="0.419783" stroke-miterlimit="10" stroke-linecap="round"/>
<path d="M280.043 345.838H227.047C224.576 345.838 222.554 343.815 222.554 341.344C222.554 341.1 222.574 340.862 222.61 340.629C222.953 342.767 224.817 344.413 227.047 344.413H276.769C276.794 344.441 276.82 344.468 276.846 344.494C276.929 344.579 277.015 344.66 277.105 344.738C277.152 344.778 277.198 344.818 277.246 344.854C277.37 344.954 277.498 345.046 277.632 345.131C277.664 345.152 277.695 345.172 277.728 345.191C277.793 345.231 277.858 345.268 277.925 345.303C277.958 345.321 277.991 345.339 278.025 345.356C278.127 345.407 278.229 345.456 278.335 345.499C278.37 345.513 278.406 345.527 278.441 345.541C278.475 345.554 278.509 345.567 278.543 345.578C278.546 345.58 278.551 345.582 278.554 345.583C278.588 345.595 278.623 345.607 278.658 345.617C278.693 345.63 278.73 345.641 278.767 345.652C278.803 345.662 278.84 345.674 278.878 345.683C278.915 345.694 278.952 345.703 278.99 345.712C279.028 345.721 279.066 345.731 279.104 345.738C279.141 345.746 279.179 345.754 279.217 345.761C279.246 345.766 279.275 345.771 279.304 345.776C279.434 345.798 279.566 345.815 279.7 345.824C279.737 345.827 279.774 345.83 279.812 345.831C279.822 345.832 279.833 345.832 279.843 345.832C279.91 345.837 279.976 345.838 280.043 345.838Z" fill="url(#paint82_linear_215_5754)"/>
<path d="M280.045 336.849C278.809 336.849 277.685 337.355 276.87 338.169C276.84 338.2 276.809 338.231 276.78 338.263C276.762 338.281 276.745 338.298 276.73 338.317C276.602 338.456 276.484 338.603 276.375 338.757C276.339 338.806 276.305 338.857 276.272 338.908C276.192 339.031 276.118 339.158 276.051 339.289C276.027 339.334 276.004 339.379 275.982 339.425C275.935 339.525 275.891 339.627 275.851 339.731C275.842 339.753 275.833 339.776 275.825 339.799C275.811 339.837 275.798 339.875 275.785 339.913C275.775 339.943 275.765 339.972 275.756 340.003C275.733 340.075 275.712 340.15 275.693 340.224C275.685 340.251 275.678 340.28 275.672 340.308L275.65 340.406C275.644 340.43 275.639 340.454 275.635 340.479C275.624 340.529 275.616 340.58 275.608 340.63C275.598 340.687 275.591 340.744 275.584 340.8C275.584 340.804 275.581 340.81 275.581 340.814C275.575 340.865 275.57 340.917 275.566 340.969C275.565 340.979 275.564 340.989 275.564 341C275.559 341.053 275.556 341.108 275.554 341.163C275.551 341.223 275.55 341.283 275.55 341.344C275.55 341.391 275.55 341.439 275.552 341.487C275.553 341.516 275.554 341.545 275.556 341.575C275.565 341.754 275.585 341.932 275.615 342.106C275.627 342.17 275.638 342.233 275.652 342.296C275.661 342.337 275.671 342.378 275.681 342.418C275.689 342.451 275.697 342.484 275.706 342.516C275.779 342.784 275.876 343.042 275.995 343.287C276.011 343.32 276.026 343.353 276.043 343.385C276.189 343.668 276.364 343.935 276.566 344.181C276.588 344.207 276.61 344.233 276.632 344.259C276.654 344.285 276.676 344.312 276.7 344.337C276.722 344.363 276.746 344.388 276.771 344.414H227.049C224.819 344.414 222.954 342.767 222.612 340.629C222.767 339.677 223.222 338.823 223.876 338.169C224.69 337.355 225.813 336.849 227.049 336.849H280.045Z" fill="#56E386"/>
<path d="M280.045 344.414H227.049C224.819 344.414 222.954 342.767 222.612 340.629C222.767 339.677 223.222 338.823 223.876 338.169C224.69 337.355 225.813 336.849 227.049 336.849H276.771C276.015 337.653 275.55 338.735 275.55 339.92C275.55 340.161 275.569 340.398 275.608 340.63C275.95 342.768 277.815 344.414 280.045 344.414Z" fill="url(#paint83_linear_215_5754)"/>
<path d="M335.564 345.838H280.044C279.976 345.838 279.91 345.837 279.844 345.832C279.834 345.832 279.823 345.832 279.813 345.831C279.775 345.83 279.737 345.827 279.7 345.824C279.567 345.814 279.435 345.798 279.305 345.776C279.276 345.771 279.247 345.766 279.218 345.761C279.18 345.754 279.142 345.746 279.104 345.738C279.067 345.729 279.029 345.721 278.991 345.712C278.953 345.703 278.915 345.694 278.879 345.683C278.842 345.674 278.804 345.662 278.767 345.652C278.731 345.641 278.694 345.63 278.658 345.617C278.624 345.607 278.589 345.594 278.554 345.583C278.551 345.581 278.547 345.58 278.544 345.578C278.51 345.567 278.476 345.554 278.442 345.541C278.406 345.527 278.371 345.513 278.336 345.499C278.23 345.456 278.127 345.407 278.026 345.356C277.992 345.339 277.958 345.321 277.926 345.303C277.859 345.268 277.794 345.231 277.729 345.191C277.697 345.171 277.665 345.151 277.633 345.131C277.499 345.046 277.371 344.954 277.247 344.854C277.199 344.817 277.152 344.778 277.106 344.738C277.016 344.66 276.93 344.579 276.847 344.494C276.821 344.468 276.795 344.441 276.769 344.413C276.746 344.388 276.722 344.363 276.699 344.337C276.675 344.312 276.653 344.285 276.631 344.259C276.609 344.233 276.587 344.207 276.565 344.18C276.363 343.935 276.188 343.668 276.042 343.385C276.026 343.352 276.01 343.32 275.994 343.287C275.875 343.042 275.778 342.784 275.705 342.516C275.696 342.484 275.687 342.451 275.68 342.418C275.67 342.377 275.66 342.337 275.651 342.296C275.637 342.233 275.625 342.17 275.614 342.106C275.583 341.931 275.564 341.754 275.555 341.575C275.553 341.545 275.552 341.516 275.551 341.487C275.55 341.439 275.549 341.391 275.549 341.344C275.549 341.283 275.549 341.223 275.553 341.163C275.555 341.108 275.558 341.053 275.562 341C275.562 340.989 275.562 340.979 275.565 340.969C275.569 340.917 275.574 340.865 275.58 340.814C275.58 340.81 275.581 340.804 275.582 340.8C275.59 340.745 275.597 340.688 275.607 340.633C275.609 340.649 275.611 340.666 275.614 340.682C275.625 340.746 275.637 340.809 275.651 340.872C275.66 340.912 275.67 340.953 275.68 340.994C275.687 341.027 275.696 341.059 275.705 341.092C275.778 341.36 275.875 341.618 275.994 341.863C276.01 341.896 276.026 341.928 276.042 341.961C276.188 342.244 276.363 342.511 276.565 342.756C276.587 342.783 276.609 342.809 276.631 342.835C276.653 342.861 276.675 342.888 276.699 342.913C276.722 342.939 276.746 342.964 276.769 342.989C276.795 343.017 276.821 343.044 276.847 343.07C276.93 343.155 277.016 343.236 277.106 343.314C277.152 343.353 277.199 343.393 277.247 343.43C277.371 343.53 277.499 343.622 277.633 343.707C277.665 343.727 277.697 343.747 277.729 343.767C277.794 343.807 277.859 343.844 277.926 343.879C277.958 343.897 277.992 343.915 278.026 343.932C278.127 343.983 278.23 344.031 278.336 344.074C278.371 344.089 278.406 344.103 278.442 344.116C278.476 344.13 278.51 344.143 278.544 344.154C278.547 344.156 278.551 344.157 278.554 344.158C278.589 344.17 278.624 344.183 278.658 344.193C278.694 344.206 278.731 344.217 278.767 344.228C278.804 344.238 278.842 344.25 278.879 344.259C278.915 344.27 278.953 344.279 278.991 344.288C279.029 344.297 279.067 344.305 279.104 344.314C279.142 344.322 279.18 344.329 279.218 344.337C279.247 344.342 279.276 344.347 279.305 344.352C279.435 344.374 279.567 344.39 279.7 344.4C279.737 344.403 279.775 344.406 279.813 344.407C279.823 344.407 279.834 344.407 279.844 344.407C279.91 344.411 279.976 344.412 280.044 344.412H332.29C333.11 345.288 334.276 345.837 335.564 345.837V345.838Z" fill="#EAEAEA"/>
<path d="M331.125 340.629C331.088 340.862 331.068 341.1 331.068 341.344C331.068 342.528 331.533 343.61 332.289 344.413H280.043C279.975 344.413 279.909 344.412 279.843 344.408C279.833 344.408 279.822 344.408 279.812 344.408C279.774 344.407 279.736 344.404 279.699 344.401C279.566 344.391 279.434 344.375 279.304 344.353C279.275 344.348 279.246 344.343 279.217 344.338C279.179 344.331 279.141 344.323 279.103 344.315C279.066 344.306 279.028 344.298 278.99 344.289C278.952 344.28 278.914 344.271 278.878 344.26C278.841 344.251 278.803 344.239 278.766 344.229C278.73 344.218 278.693 344.207 278.657 344.194C278.623 344.184 278.588 344.171 278.553 344.16C278.55 344.158 278.546 344.157 278.543 344.155C278.509 344.144 278.475 344.131 278.441 344.118C278.405 344.104 278.37 344.09 278.335 344.076C278.229 344.033 278.126 343.984 278.024 343.933C277.991 343.916 277.957 343.898 277.925 343.88C277.858 343.845 277.793 343.808 277.727 343.768C277.696 343.748 277.663 343.728 277.632 343.708C277.498 343.623 277.37 343.531 277.246 343.431C277.197 343.394 277.151 343.355 277.105 343.315C277.015 343.237 276.929 343.156 276.846 343.071C276.82 343.045 276.793 343.018 276.768 342.99C276.745 342.965 276.721 342.94 276.698 342.914C276.674 342.889 276.652 342.862 276.63 342.836C276.608 342.81 276.586 342.784 276.564 342.757C276.362 342.512 276.187 342.245 276.041 341.962C276.025 341.929 276.008 341.897 275.993 341.864C275.874 341.619 275.777 341.361 275.704 341.093C275.695 341.06 275.686 341.028 275.679 340.995C275.668 340.954 275.659 340.914 275.65 340.873C275.636 340.81 275.624 340.747 275.613 340.683C275.61 340.667 275.608 340.65 275.605 340.634V340.632C275.614 340.581 275.622 340.531 275.633 340.48C275.637 340.455 275.642 340.431 275.647 340.407L275.669 340.309C275.676 340.281 275.683 340.252 275.69 340.225C275.709 340.151 275.73 340.076 275.753 340.004C275.763 339.974 275.772 339.944 275.783 339.914C275.795 339.876 275.809 339.838 275.823 339.8C275.831 339.777 275.841 339.754 275.849 339.732C275.889 339.628 275.933 339.526 275.98 339.426C276.002 339.38 276.025 339.335 276.048 339.29C276.116 339.159 276.19 339.032 276.27 338.909C276.303 338.858 276.337 338.807 276.373 338.758C276.482 338.604 276.599 338.457 276.727 338.318C276.743 338.299 276.761 338.282 276.778 338.264C276.807 338.232 276.838 338.201 276.868 338.17C277.682 337.356 278.806 336.85 280.043 336.85H335.563C334.327 336.85 333.203 337.356 332.388 338.17C331.735 338.824 331.279 339.678 331.125 340.63V340.629Z" fill="white"/>
<path d="M335.563 344.413H280.043C279.975 344.413 279.909 344.412 279.843 344.408C279.833 344.408 279.822 344.408 279.812 344.408C279.774 344.407 279.736 344.404 279.699 344.401C279.566 344.391 279.434 344.375 279.304 344.353C279.275 344.348 279.246 344.343 279.217 344.338C279.179 344.331 279.141 344.323 279.103 344.315C279.066 344.306 279.028 344.298 278.99 344.289C278.952 344.28 278.914 344.271 278.878 344.26C278.841 344.251 278.803 344.239 278.766 344.229C278.73 344.218 278.693 344.207 278.657 344.194C278.623 344.184 278.588 344.171 278.553 344.16C278.55 344.158 278.546 344.157 278.543 344.155C278.509 344.144 278.475 344.131 278.441 344.118C278.405 344.104 278.37 344.09 278.335 344.076C278.229 344.033 278.126 343.984 278.024 343.933C277.991 343.916 277.957 343.898 277.925 343.88C277.858 343.845 277.793 343.808 277.727 343.768C277.696 343.748 277.663 343.728 277.632 343.708C277.498 343.623 277.37 343.531 277.246 343.431C277.197 343.394 277.151 343.355 277.105 343.315C277.015 343.237 276.929 343.156 276.846 343.071C276.82 343.045 276.793 343.018 276.768 342.99C276.745 342.965 276.721 342.94 276.698 342.914C276.674 342.889 276.652 342.862 276.63 342.836C276.608 342.81 276.586 342.784 276.564 342.757C276.362 342.512 276.187 342.245 276.041 341.962C276.025 341.929 276.008 341.897 275.993 341.864C275.874 341.619 275.777 341.361 275.704 341.093C275.695 341.06 275.686 341.028 275.679 340.995C275.668 340.954 275.659 340.914 275.65 340.873C275.636 340.81 275.624 340.747 275.613 340.683C275.61 340.667 275.608 340.65 275.605 340.634V340.632C275.614 340.581 275.622 340.531 275.633 340.48C275.637 340.455 275.642 340.431 275.647 340.407L275.669 340.309C275.676 340.281 275.683 340.252 275.69 340.225C275.709 340.151 275.73 340.076 275.753 340.004C275.763 339.974 275.772 339.944 275.783 339.914C275.795 339.876 275.809 339.838 275.823 339.8C275.831 339.777 275.841 339.754 275.849 339.732C275.889 339.628 275.933 339.526 275.98 339.426C276.002 339.38 276.025 339.335 276.048 339.29C276.116 339.159 276.19 339.032 276.27 338.909C276.303 338.858 276.337 338.807 276.373 338.758C276.482 338.604 276.599 338.457 276.727 338.318C276.743 338.299 276.761 338.282 276.778 338.264C276.807 338.232 276.838 338.201 276.868 338.17C277.682 337.356 278.806 336.85 280.043 336.85H332.289C331.533 337.654 331.068 338.736 331.068 339.921C331.068 340.162 331.087 340.399 331.125 340.63C331.467 342.768 333.332 344.415 335.563 344.415V344.413Z" fill="white"/>
<path d="M278.948 338.881H328.606" stroke="#D3E1FD" stroke-width="0.419783" stroke-miterlimit="10" stroke-linecap="round"/>
<path d="M278.948 340.516H328.606" stroke="#D3E1FD" stroke-width="0.419783" stroke-miterlimit="10" stroke-linecap="round"/>
<path d="M278.948 342.143H328.606" stroke="#D3E1FD" stroke-width="0.419783" stroke-miterlimit="10" stroke-linecap="round"/>
<defs>
<radialGradient id="paint0_radial_215_5754" cx="0" cy="0" r="1" gradientUnits="userSpaceOnUse" gradientTransform="translate(360 200) rotate(92.5312) scale(257.852 363.068)">
<stop stop-color="#8085FF"/>
<stop offset="0.540512" stop-color="#762CEF"/>
<stop offset="1" stop-color="#7000C8"/>
</radialGradient>
<linearGradient id="paint1_linear_215_5754" x1="354.554" y1="347.101" x2="354.554" y2="351.98" gradientUnits="userSpaceOnUse">
<stop stop-color="#E5E8FF"/>
<stop offset="0.0001" stop-color="#F6F7FF"/>
<stop offset="1" stop-color="#B8C8FF"/>
</linearGradient>
<linearGradient id="paint2_linear_215_5754" x1="284.806" y1="251.845" x2="271.583" y2="261.227" gradientUnits="userSpaceOnUse">
<stop offset="0.13627" stop-color="#F68CFF"/>
<stop offset="0.921622" stop-color="#630285"/>
</linearGradient>
<linearGradient id="paint3_linear_215_5754" x1="251.443" y1="259.278" x2="244.293" y2="279.059" gradientUnits="userSpaceOnUse">
<stop offset="0.13627" stop-color="#F68CFF"/>
<stop offset="0.921622" stop-color="#630285"/>
</linearGradient>
<linearGradient id="paint4_linear_215_5754" x1="266.187" y1="262.942" x2="257.55" y2="269.191" gradientUnits="userSpaceOnUse">
<stop offset="0.13627" stop-color="#F68CFF"/>
<stop offset="0.921622" stop-color="#630285"/>
</linearGradient>
<linearGradient id="paint5_linear_215_5754" x1="275.755" y1="264.728" x2="271.7" y2="265.841" gradientUnits="userSpaceOnUse">
<stop offset="0.13627" stop-color="#F68CFF"/>
<stop offset="0.921622" stop-color="#630285"/>
</linearGradient>
<linearGradient id="paint6_linear_215_5754" x1="259.788" y1="285.065" x2="303.255" y2="284.999" gradientUnits="userSpaceOnUse">
<stop stop-color="#FFBA3C"/>
<stop offset="1" stop-color="#FFDD9F"/>
</linearGradient>
<linearGradient id="paint7_linear_215_5754" x1="267.135" y1="307.105" x2="295.603" y2="307.105" gradientUnits="userSpaceOnUse">
<stop stop-color="#F4932F"/>
<stop offset="1" stop-color="#FFC282"/>
</linearGradient>
<linearGradient id="paint8_linear_215_5754" x1="281.416" y1="295.318" x2="281.416" y2="304.287" gradientUnits="userSpaceOnUse">
<stop stop-color="#F18421"/>
<stop offset="1" stop-color="#FFBC7E"/>
</linearGradient>
<linearGradient id="paint9_linear_215_5754" x1="509.017" y1="208.555" x2="468.23" y2="294.895" gradientUnits="userSpaceOnUse">
<stop stop-color="white"/>
<stop offset="1" stop-color="#CFCFFB"/>
</linearGradient>
<linearGradient id="paint10_linear_215_5754" x1="485.472" y1="201.63" x2="460.747" y2="280.499" gradientUnits="userSpaceOnUse">
<stop stop-color="#B5D1FB"/>
<stop offset="1" stop-color="#F7F7F7"/>
</linearGradient>
<linearGradient id="paint11_linear_215_5754" x1="384.892" y1="322.978" x2="383.372" y2="346.86" gradientUnits="userSpaceOnUse">
<stop offset="0.289707" stop-color="#FFC4C4"/>
<stop offset="0.755878" stop-color="white"/>
</linearGradient>
<linearGradient id="paint12_linear_215_5754" x1="387.069" y1="338.19" x2="369.341" y2="345.669" gradientUnits="userSpaceOnUse">
<stop stop-color="#0C0E0E"/>
<stop offset="1" stop-color="#4B4F4F"/>
</linearGradient>
<linearGradient id="paint13_linear_215_5754" x1="433.435" y1="324.956" x2="437.581" y2="339.202" gradientUnits="userSpaceOnUse">
<stop offset="0.335376" stop-color="#FFC4C4"/>
<stop offset="1" stop-color="white"/>
</linearGradient>
<linearGradient id="paint14_linear_215_5754" x1="440.045" y1="338.19" x2="422.317" y2="345.669" gradientUnits="userSpaceOnUse">
<stop stop-color="#0C0E0E"/>
<stop offset="1" stop-color="#4B4F4F"/>
</linearGradient>
<linearGradient id="paint15_linear_215_5754" x1="392.86" y1="228.148" x2="426.21" y2="260.99" gradientUnits="userSpaceOnUse">
<stop stop-color="white"/>
<stop offset="0.84427" stop-color="#FFC4C4"/>
</linearGradient>
<linearGradient id="paint16_linear_215_5754" x1="420.552" y1="192.227" x2="455.042" y2="202.601" gradientUnits="userSpaceOnUse">
<stop stop-color="white"/>
<stop offset="0.84427" stop-color="#FFC4C4"/>
</linearGradient>
<linearGradient id="paint17_linear_215_5754" x1="422.782" y1="229.698" x2="440.264" y2="241.588" gradientUnits="userSpaceOnUse">
<stop stop-color="white"/>
<stop offset="0.620497" stop-color="#FFC4C4"/>
</linearGradient>
<linearGradient id="paint18_linear_215_5754" x1="436.479" y1="196.924" x2="436.479" y2="231.743" gradientUnits="userSpaceOnUse">
<stop offset="0.336472" stop-color="#65CE8C"/>
<stop offset="1" stop-color="#B9E9CB"/>
</linearGradient>
<linearGradient id="paint19_linear_215_5754" x1="456.378" y1="193.851" x2="456.378" y2="262.059" gradientUnits="userSpaceOnUse">
<stop offset="0.336472" stop-color="#65CE8C"/>
<stop offset="1" stop-color="#B9E9CB"/>
</linearGradient>
<linearGradient id="paint20_linear_215_5754" x1="470.419" y1="230.031" x2="487.915" y2="241.855" gradientUnits="userSpaceOnUse">
<stop stop-color="white"/>
<stop offset="0.84427" stop-color="#FFC4C4"/>
</linearGradient>
<linearGradient id="paint21_linear_215_5754" x1="414.282" y1="261.185" x2="475.003" y2="266.6" gradientUnits="userSpaceOnUse">
<stop stop-color="white"/>
<stop offset="0.84427" stop-color="#FFC4C4"/>
</linearGradient>
<linearGradient id="paint22_linear_215_5754" x1="459.345" y1="191.906" x2="498.451" y2="212.808" gradientUnits="userSpaceOnUse">
<stop stop-color="white"/>
<stop offset="0.84427" stop-color="#FFC4C4"/>
<stop offset="0.930212" stop-color="#FFC4C4"/>
</linearGradient>
<linearGradient id="paint23_linear_215_5754" x1="470.142" y1="229.044" x2="487.626" y2="240.918" gradientUnits="userSpaceOnUse">
<stop stop-color="white"/>
<stop offset="0.341589" stop-color="#FFC4C4"/>
</linearGradient>
<linearGradient id="paint24_linear_215_5754" x1="476.759" y1="196.678" x2="476.759" y2="231.486" gradientUnits="userSpaceOnUse">
<stop offset="0.336472" stop-color="#65CE8C"/>
<stop offset="1" stop-color="#B9E9CB"/>
</linearGradient>
<linearGradient id="paint25_linear_215_5754" x1="435.801" y1="242.735" x2="440.406" y2="253.254" gradientUnits="userSpaceOnUse">
<stop stop-color="white"/>
<stop offset="0.84427" stop-color="#FFC4C4"/>
</linearGradient>
<linearGradient id="paint26_linear_215_5754" x1="431.315" y1="244.207" x2="450.23" y2="259.056" gradientUnits="userSpaceOnUse">
<stop stop-color="white"/>
<stop offset="0.84427" stop-color="#FFC4C4"/>
</linearGradient>
<linearGradient id="paint27_linear_215_5754" x1="431.817" y1="247.887" x2="440.294" y2="259.727" gradientUnits="userSpaceOnUse">
<stop stop-color="white"/>
<stop offset="0.84427" stop-color="#FFC4C4"/>
</linearGradient>
<linearGradient id="paint28_linear_215_5754" x1="433.538" y1="249.619" x2="442.818" y2="261.661" gradientUnits="userSpaceOnUse">
<stop stop-color="white"/>
<stop offset="0.84427" stop-color="#FFC4C4"/>
</linearGradient>
<linearGradient id="paint29_linear_215_5754" x1="455.556" y1="181.41" x2="461.14" y2="197.25" gradientUnits="userSpaceOnUse">
<stop stop-color="white"/>
<stop offset="0.937278" stop-color="#FFC4C4"/>
</linearGradient>
<linearGradient id="paint30_linear_215_5754" x1="437.926" y1="172.67" x2="440.953" y2="177.761" gradientUnits="userSpaceOnUse">
<stop stop-color="white"/>
<stop offset="0.84427" stop-color="#FFC4C4"/>
</linearGradient>
<linearGradient id="paint31_linear_215_5754" x1="434.507" y1="158.188" x2="467.534" y2="175.298" gradientUnits="userSpaceOnUse">
<stop stop-color="white"/>
<stop offset="0.84427" stop-color="#FFC4C4"/>
</linearGradient>
<linearGradient id="paint32_linear_215_5754" x1="462.203" y1="174.762" x2="463.402" y2="180.56" gradientUnits="userSpaceOnUse">
<stop stop-color="white"/>
<stop offset="0.84427" stop-color="#FFC4C4"/>
</linearGradient>
<linearGradient id="paint33_linear_215_5754" x1="463.589" y1="156.48" x2="450.293" y2="188.888" gradientUnits="userSpaceOnUse">
<stop stop-color="#11176A"/>
<stop offset="1" stop-color="#0F1122"/>
</linearGradient>
<linearGradient id="paint34_linear_215_5754" x1="444.684" y1="242.735" x2="450.825" y2="250.246" gradientUnits="userSpaceOnUse">
<stop stop-color="white"/>
<stop offset="0.84427" stop-color="#FFC4C4"/>
</linearGradient>
<linearGradient id="paint35_linear_215_5754" x1="431.427" y1="244.207" x2="450.342" y2="259.056" gradientUnits="userSpaceOnUse">
<stop stop-color="white"/>
<stop offset="0.93125" stop-color="#FFC4C4"/>
</linearGradient>
<linearGradient id="paint36_linear_215_5754" x1="431.929" y1="247.887" x2="440.406" y2="259.727" gradientUnits="userSpaceOnUse">
<stop stop-color="white"/>
<stop offset="0.93125" stop-color="#FFC4C4"/>
</linearGradient>
<linearGradient id="paint37_linear_215_5754" x1="433.65" y1="249.619" x2="442.931" y2="261.661" gradientUnits="userSpaceOnUse">
<stop stop-color="white"/>
<stop offset="0.93125" stop-color="#FFC4C4"/>
</linearGradient>
<linearGradient id="paint38_linear_215_5754" x1="441.741" y1="242.795" x2="457.333" y2="253.296" gradientUnits="userSpaceOnUse">
<stop stop-color="white"/>
<stop offset="0.84427" stop-color="#FFC4C4"/>
</linearGradient>
<linearGradient id="paint39_linear_215_5754" x1="458.933" y1="294.18" x2="458.933" y2="345.178" gradientUnits="userSpaceOnUse">
<stop stop-color="#21233E"/>
<stop offset="1" stop-color="#3541C1"/>
</linearGradient>
<linearGradient id="paint40_linear_215_5754" x1="401.542" y1="232.931" x2="401.41" y2="259.264" gradientUnits="userSpaceOnUse">
<stop stop-color="#393C5E"/>
<stop offset="1" stop-color="#595E99"/>
</linearGradient>
<linearGradient id="paint41_linear_215_5754" x1="442.537" y1="231.546" x2="428.687" y2="259.246" gradientUnits="userSpaceOnUse">
<stop stop-color="#2C2F44"/>
<stop offset="1" stop-color="#19278E"/>
</linearGradient>
<linearGradient id="paint42_linear_215_5754" x1="398.218" y1="234.039" x2="399.049" y2="244.288" gradientUnits="userSpaceOnUse">
<stop stop-color="white"/>
<stop offset="1" stop-color="white" stop-opacity="0"/>
</linearGradient>
<linearGradient id="paint43_linear_215_5754" x1="502.371" y1="291.535" x2="577.093" y2="235.35" gradientUnits="userSpaceOnUse">
<stop offset="0.184024" stop-color="#03AB8D"/>
<stop offset="1" stop-color="#67FFD2"/>
</linearGradient>
<linearGradient id="paint44_linear_215_5754" x1="502.997" y1="310.929" x2="549.079" y2="310.858" gradientUnits="userSpaceOnUse">
<stop stop-color="#FFBA3C"/>
<stop offset="1" stop-color="#FFDD9F"/>
</linearGradient>
<linearGradient id="paint45_linear_215_5754" x1="510.793" y1="334.021" x2="540.974" y2="334.021" gradientUnits="userSpaceOnUse">
<stop stop-color="#F4932F"/>
<stop offset="1" stop-color="#FFC282"/>
</linearGradient>
<linearGradient id="paint46_linear_215_5754" x1="525.933" y1="321.525" x2="525.933" y2="331.033" gradientUnits="userSpaceOnUse">
<stop stop-color="#F18421"/>
<stop offset="1" stop-color="#FFBC7E"/>
</linearGradient>
<linearGradient id="paint47_linear_215_5754" x1="304.169" y1="76.8331" x2="304.169" y2="166.59" gradientUnits="userSpaceOnUse">
<stop stop-color="#E5E8FF"/>
<stop offset="0.0001" stop-color="#F6F7FF"/>
<stop offset="1" stop-color="#B8C8FF"/>
</linearGradient>
<linearGradient id="paint48_linear_215_5754" x1="304.17" y1="57.0092" x2="304.17" y2="64.2898" gradientUnits="userSpaceOnUse">
<stop stop-color="#CED4FF"/>
<stop offset="0.0001" stop-color="#F6F7FF"/>
<stop offset="1" stop-color="#B8C8FF"/>
</linearGradient>
<linearGradient id="paint49_linear_215_5754" x1="381.727" y1="199.742" x2="381.727" y2="209.493" gradientUnits="userSpaceOnUse">
<stop stop-color="#E5E8FF"/>
<stop offset="0.0001" stop-color="#F6F7FF"/>
<stop offset="1" stop-color="#B8C8FF"/>
</linearGradient>
<linearGradient id="paint50_linear_215_5754" x1="275.508" y1="145.123" x2="294.793" y2="176.725" gradientUnits="userSpaceOnUse">
<stop stop-color="white"/>
<stop offset="0.84427" stop-color="#FFC4C4"/>
</linearGradient>
<linearGradient id="paint51_linear_215_5754" x1="272.816" y1="107.831" x2="285.203" y2="154.264" gradientUnits="userSpaceOnUse">
<stop stop-color="#FEB938"/>
<stop offset="1" stop-color="#FFF0D3"/>
</linearGradient>
<linearGradient id="paint52_linear_215_5754" x1="289.25" y1="183.344" x2="292.523" y2="193.066" gradientUnits="userSpaceOnUse">
<stop offset="0.129166" stop-color="#FFC4C4"/>
<stop offset="1" stop-color="white"/>
</linearGradient>
<linearGradient id="paint53_linear_215_5754" x1="285.015" y1="190.238" x2="287.95" y2="201.565" gradientUnits="userSpaceOnUse">
<stop offset="0.129166" stop-color="#FFC4C4"/>
<stop offset="1" stop-color="white"/>
</linearGradient>
<linearGradient id="paint54_linear_215_5754" x1="286.093" y1="192.294" x2="291.536" y2="200.862" gradientUnits="userSpaceOnUse">
<stop offset="0.129166" stop-color="#FFC4C4"/>
<stop offset="1" stop-color="white"/>
</linearGradient>
<linearGradient id="paint55_linear_215_5754" x1="282.873" y1="191.773" x2="288.804" y2="199.499" gradientUnits="userSpaceOnUse">
<stop offset="0.129166" stop-color="#FFC4C4"/>
<stop offset="1" stop-color="white"/>
</linearGradient>
<linearGradient id="paint56_linear_215_5754" x1="280.494" y1="158.419" x2="289.937" y2="192.253" gradientUnits="userSpaceOnUse">
<stop stop-color="white"/>
<stop offset="0.84427" stop-color="#FFC4C4"/>
</linearGradient>
<linearGradient id="paint57_linear_215_5754" x1="251.963" y1="181.41" x2="252.159" y2="193.925" gradientUnits="userSpaceOnUse">
<stop stop-color="#080D3A"/>
<stop offset="1" stop-color="#5F6173"/>
</linearGradient>
<linearGradient id="paint58_linear_215_5754" x1="250.941" y1="104.453" x2="250.941" y2="179.43" gradientUnits="userSpaceOnUse">
<stop stop-color="#FFB426"/>
<stop offset="1" stop-color="#F4D8A2"/>
</linearGradient>
<linearGradient id="paint59_linear_215_5754" x1="215.954" y1="142.353" x2="227.867" y2="158.295" gradientUnits="userSpaceOnUse">
<stop stop-color="white"/>
<stop offset="0.84427" stop-color="#FFC4C4"/>
</linearGradient>
<linearGradient id="paint60_linear_215_5754" x1="266.645" y1="168.391" x2="228.061" y2="155.347" gradientUnits="userSpaceOnUse">
<stop stop-color="white"/>
<stop offset="0.84427" stop-color="#FFC4C4"/>
</linearGradient>
<linearGradient id="paint61_linear_215_5754" x1="228.814" y1="116.607" x2="245.788" y2="146.924" gradientUnits="userSpaceOnUse">
<stop stop-color="white"/>
<stop offset="0.84427" stop-color="#FFC4C4"/>
</linearGradient>
<linearGradient id="paint62_linear_215_5754" x1="221.493" y1="136.813" x2="228.911" y2="157.887" gradientUnits="userSpaceOnUse">
<stop stop-color="white"/>
<stop offset="0.84427" stop-color="#FFC4C4"/>
</linearGradient>
<linearGradient id="paint63_linear_215_5754" x1="238.668" y1="113.268" x2="228.537" y2="145.822" gradientUnits="userSpaceOnUse">
<stop stop-color="#FFB222"/>
<stop offset="1" stop-color="#FED993"/>
</linearGradient>
<linearGradient id="paint64_linear_215_5754" x1="243.655" y1="82.5215" x2="260.108" y2="105.73" gradientUnits="userSpaceOnUse">
<stop stop-color="white"/>
<stop offset="0.84427" stop-color="#FFC4C4"/>
</linearGradient>
<linearGradient id="paint65_linear_215_5754" x1="256.119" y1="74.4886" x2="264.349" y2="97.243" gradientUnits="userSpaceOnUse">
<stop stop-color="white"/>
<stop offset="0.84427" stop-color="#FFC4C4"/>
</linearGradient>
<linearGradient id="paint66_linear_215_5754" x1="243.931" y1="83.6295" x2="246.263" y2="89.6105" gradientUnits="userSpaceOnUse">
<stop stop-color="white"/>
<stop offset="0.84427" stop-color="#FFC4C4"/>
</linearGradient>
<linearGradient id="paint67_linear_215_5754" x1="237.56" y1="65.6247" x2="261.659" y2="96.9254" gradientUnits="userSpaceOnUse">
<stop stop-color="#202C8A"/>
<stop offset="0.894287" stop-color="#0E133C"/>
</linearGradient>
<linearGradient id="paint68_linear_215_5754" x1="259.608" y1="159.658" x2="286.395" y2="159.658" gradientUnits="userSpaceOnUse">
<stop stop-color="#50B475"/>
<stop offset="1" stop-color="#72E89E"/>
</linearGradient>
<linearGradient id="paint69_linear_215_5754" x1="263.875" y1="161.189" x2="253.104" y2="160.599" gradientUnits="userSpaceOnUse">
<stop stop-color="white"/>
<stop offset="0.84427" stop-color="#FFC4C4"/>
</linearGradient>
<linearGradient id="paint70_linear_215_5754" x1="264.726" y1="164.254" x2="267.525" y2="175.977" gradientUnits="userSpaceOnUse">
<stop stop-color="white"/>
<stop offset="0.84427" stop-color="#FFC4C4"/>
</linearGradient>
<linearGradient id="paint71_linear_215_5754" x1="266.679" y1="165.896" x2="267.43" y2="171.495" gradientUnits="userSpaceOnUse">
<stop stop-color="white"/>
<stop offset="0.84427" stop-color="#FFC4C4"/>
</linearGradient>
<linearGradient id="paint72_linear_215_5754" x1="264.836" y1="167.947" x2="265.7" y2="173.929" gradientUnits="userSpaceOnUse">
<stop stop-color="white"/>
<stop offset="0.84427" stop-color="#FFC4C4"/>
</linearGradient>
<linearGradient id="paint73_linear_215_5754" x1="266.368" y1="169.776" x2="250.082" y2="164.864" gradientUnits="userSpaceOnUse">
<stop stop-color="white"/>
<stop offset="0.84427" stop-color="#FFC4C4"/>
</linearGradient>
<linearGradient id="paint74_linear_215_5754" x1="275.385" y1="143.599" x2="275.385" y2="171.729" gradientUnits="userSpaceOnUse">
<stop stop-color="#62F298"/>
<stop offset="1" stop-color="#D7FFE6" stop-opacity="0"/>
</linearGradient>
<linearGradient id="paint75_linear_215_5754" x1="310.603" y1="126.504" x2="411.617" y2="126.504" gradientUnits="userSpaceOnUse">
<stop stop-color="#50B475"/>
<stop offset="1" stop-color="#72E89E"/>
</linearGradient>
<linearGradient id="paint76_linear_215_5754" x1="212.594" y1="334.249" x2="265.89" y2="335.585" gradientUnits="userSpaceOnUse">
<stop stop-color="#FFFBD3"/>
<stop offset="1" stop-color="#FEB866"/>
</linearGradient>
<linearGradient id="paint77_linear_215_5754" x1="212.651" y1="331.593" x2="265.913" y2="332.511" gradientUnits="userSpaceOnUse">
<stop stop-color="#FC9F31"/>
<stop offset="1" stop-color="#FFF6A3"/>
</linearGradient>
<linearGradient id="paint78_linear_215_5754" x1="280.298" y1="327.307" x2="228.26" y2="327.307" gradientUnits="userSpaceOnUse">
<stop stop-color="#55E385"/>
<stop offset="1" stop-color="#9BFCBC"/>
</linearGradient>
<linearGradient id="paint79_linear_215_5754" x1="280.301" y1="325.466" x2="228.315" y2="325.466" gradientUnits="userSpaceOnUse">
<stop stop-color="#55E385"/>
<stop offset="1" stop-color="#9BFCBC"/>
</linearGradient>
<linearGradient id="paint80_linear_215_5754" x1="226.424" y1="323.022" x2="279.992" y2="323.022" gradientUnits="userSpaceOnUse">
<stop stop-color="#27C963"/>
<stop offset="1" stop-color="#90F9B7"/>
</linearGradient>
<linearGradient id="paint81_linear_215_5754" x1="338.151" y1="328.532" x2="279.685" y2="327.613" gradientUnits="userSpaceOnUse">
<stop stop-color="#FFF2F2"/>
<stop offset="1" stop-color="#E8FFF2"/>
</linearGradient>
<linearGradient id="paint82_linear_215_5754" x1="277.884" y1="344.915" x2="225.846" y2="344.915" gradientUnits="userSpaceOnUse">
<stop stop-color="#55E385"/>
<stop offset="1" stop-color="#9BFCBC"/>
</linearGradient>
<linearGradient id="paint83_linear_215_5754" x1="224.011" y1="340.63" x2="277.579" y2="340.63" gradientUnits="userSpaceOnUse">
<stop stop-color="#27C963"/>
<stop offset="1" stop-color="#90F9B7"/>
</linearGradient>
</defs>
</svg>
