<svg width="720" height="400" viewBox="0 0 720 400" fill="none" xmlns="http://www.w3.org/2000/svg">
<g clip-path="url(#clip0_49_494)">
<rect width="720" height="400" fill="white"/>
<rect width="720" height="400" fill="url(#paint0_linear_49_494)"/>
<path d="M425.42 207.021C432.027 195.132 439.311 184.822 442.581 171.302C443.865 165.856 444.609 160.25 446.591 155.027C448.574 149.805 452.073 144.83 457.218 142.628C462.996 140.142 469.911 141.507 475.609 138.843C479.3 137.125 482.034 133.925 485.113 131.266C491.874 125.43 500.398 122.123 508.739 118.922C521.664 113.97 535.454 108.929 549.042 111.754C556.774 113.369 563.765 117.484 570.304 121.895C574.441 124.717 578.58 127.831 580.822 132.377C582.167 134.948 582.573 137.908 581.969 140.746C580.341 147.707 572.649 149.649 566.411 148.347C561.169 147.234 556.482 144.317 551.55 142.307C546.618 140.296 540.758 139.157 535.957 141.606C529.123 145.119 526.686 154.766 519.387 157.187C515.327 158.535 510.53 157.27 506.857 159.461C501.195 162.842 502.363 171.358 504.87 177.421C507.378 183.483 510.43 190.834 506.601 196.196C499.948 205.533 482.341 196.262 474.629 204.785C470.163 209.732 471.606 218.442 466.504 222.748C459.444 228.703 448.045 220.391 439.624 224.186C436.171 225.743 433.923 229.06 431.552 232.014C429.181 234.968 426.129 237.892 422.339 238.06C422.035 238.075 421.75 238.09 421.469 238.046C421.299 238.036 421.133 237.988 420.984 237.906C420.834 237.824 420.705 237.71 420.605 237.571C420.506 237.433 420.438 237.274 420.408 237.106C420.377 236.939 420.385 236.766 420.43 236.602C420.632 235.878 420.862 235.173 421.118 234.473C422.621 230.555 424.769 226.915 427.471 223.705C430.168 220.515 433.174 217.599 436.445 215.001C439.681 212.353 443.082 209.904 446.428 207.399C448.108 206.14 449.794 204.881 451.418 203.553C453.11 202.227 454.604 200.667 455.855 198.919C457.099 197.11 457.839 195.003 457.999 192.813C458.072 190.692 458.002 188.569 457.791 186.458C457.738 185.424 457.686 184.389 457.737 183.362C457.775 182.338 457.878 181.317 458.047 180.306C458.41 178.285 459.026 176.317 459.881 174.45C461.575 170.676 463.92 167.23 466.809 164.269C468.276 162.832 469.923 161.59 471.708 160.576C473.519 159.572 475.404 158.706 477.345 157.987C479.291 157.239 481.268 156.49 483.217 155.684C485.177 154.87 487.078 153.922 488.906 152.846C492.542 150.641 495.84 147.923 498.697 144.774C501.538 141.638 504.092 138.253 506.328 134.661C506.86 133.776 507.447 132.926 508.084 132.114C508.734 131.327 509.462 130.608 510.256 129.968C511.87 128.691 513.696 127.709 515.651 127.067C519.576 125.751 523.81 125.509 527.967 125.666C536.332 125.991 544.558 127.897 552.797 129.538C548.71 128.586 544.628 127.609 540.503 126.802C536.384 125.951 532.211 125.38 528.015 125.093C523.817 124.886 519.516 125.067 515.441 126.384C513.385 127.024 511.46 128.027 509.758 129.345C508.909 130.01 508.131 130.76 507.435 131.584C506.759 132.41 506.14 133.282 505.585 134.193C503.327 137.696 500.784 141.007 497.981 144.091C495.18 147.159 491.948 149.805 488.387 151.945C486.594 152.991 484.731 153.911 482.81 154.7C480.907 155.504 478.926 156.195 476.955 156.944C474.96 157.681 473.023 158.564 471.159 159.587C469.289 160.645 467.562 161.938 466.02 163.434C464.5 164.939 463.147 166.603 461.983 168.398C460.817 170.179 459.784 172.043 458.891 173.975C457.532 176.902 456.783 180.074 456.69 183.299C456.654 184.371 456.696 185.438 456.756 186.498C456.97 188.561 457.048 190.636 456.989 192.709C456.857 194.727 456.182 196.673 455.034 198.338C453.845 200.011 452.424 201.507 450.814 202.78C449.196 204.101 447.544 205.385 445.878 206.656C442.554 209.205 439.174 211.705 435.948 214.411C432.674 217.064 429.675 220.041 426.997 223.295C424.356 226.612 422.29 230.348 420.885 234.348C420.676 234.962 420.481 235.588 420.332 236.211C420.286 236.41 420.187 236.592 420.046 236.739C419.905 236.886 419.727 236.992 419.531 237.047C419.335 237.101 419.128 237.102 418.931 237.049C418.735 236.995 418.556 236.89 418.414 236.743C413.237 231.459 422.843 211.651 425.42 207.021Z" fill="white" fill-opacity="0.36"/>
<path d="M416.826 212.087C416.826 212.087 483.544 109.353 523.505 118.879C563.466 128.404 416.826 212.087 416.826 212.087Z" fill="url(#paint1_linear_49_494)"/>
<path d="M528.342 121.012C495.702 134.127 416.826 212.087 416.826 212.087C416.826 212.087 548.253 137.08 528.342 121.012Z" fill="url(#paint2_linear_49_494)"/>
<path d="M416.826 212.087C425.118 203.358 433.655 194.845 442.435 186.549C451.216 178.253 460.147 170.148 469.229 162.232C473.803 158.296 478.432 154.416 483.114 150.594C487.82 146.812 492.572 143.072 497.439 139.494C502.307 135.917 507.223 132.448 512.391 129.225C513.678 128.411 514.977 127.652 516.287 126.893C517.597 126.134 518.919 125.396 520.264 124.691C522.907 123.256 525.646 122.003 528.462 120.941C523.031 123.555 517.839 126.631 512.943 130.135C507.992 133.55 503.158 137.16 498.428 140.855C488.967 148.289 479.739 156.013 470.637 163.889C461.536 171.764 452.528 179.769 443.598 187.816L416.826 212.087Z" fill="url(#paint3_linear_49_494)"/>
<path d="M416.826 212.087C416.826 212.087 514.262 137.394 548.722 159.639C583.182 181.885 416.826 212.087 416.826 212.087Z" fill="url(#paint4_linear_49_494)"/>
<path d="M552.561 163.251C517.387 164.806 416.826 212.087 416.826 212.087C416.826 212.087 565.914 185.015 552.561 163.251Z" fill="url(#paint5_linear_49_494)"/>
<path d="M416.826 212.087C427.593 206.593 438.503 201.403 449.556 196.518C460.609 191.632 471.753 186.954 482.99 182.483C488.625 180.305 494.294 178.171 499.989 176.135C505.684 174.1 511.427 172.173 517.22 170.421C523.013 168.67 528.854 167.038 534.772 165.713C536.24 165.369 537.731 165.078 539.191 164.811C540.65 164.544 542.175 164.264 543.67 164.051C546.663 163.574 549.686 163.305 552.717 163.246C546.734 163.914 540.819 165.091 535.039 166.765C529.229 168.329 523.471 170.135 517.761 172.061C506.342 175.912 495.046 180.135 483.811 184.544C472.576 188.953 461.401 193.492 450.251 198.097L416.826 212.087Z" fill="url(#paint6_linear_49_494)"/>
<path d="M122.198 98.1812C123.686 95.6524 126.702 94.3449 129.654 94.242C131.659 94.2216 133.652 94.547 135.545 95.2038C136.159 95.4031 137.391 96.1157 137.347 96.3027C137.319 96.367 137.28 96.4259 137.232 96.4766C138.273 96.5844 139.305 96.7551 140.325 96.9877C140.01 96.7339 139.733 96.4376 139.5 96.1073C138.735 95.0166 138.165 93.8023 137.813 92.5178C137.343 90.6272 137.645 88.4479 138.989 87.0467C139.189 86.788 139.458 86.5902 139.765 86.4754C140.071 86.3606 140.404 86.3334 140.725 86.3968C141.501 86.6648 142.017 87.7375 142.26 88.5201C142.947 90.775 141.815 93.2457 141.263 95.5416C141.093 96.0662 140.854 96.566 140.553 97.028C141.194 97.166 141.78 97.3295 142.377 97.5088C145.618 98.5241 148.693 100.007 151.506 101.911C153.294 103.101 155.002 104.407 156.619 105.819C156.608 105.784 156.599 105.748 156.592 105.711C155.869 103.84 155.475 101.857 155.427 99.8511C155.433 96.9206 156.651 93.8405 159.126 92.261C159.959 91.7326 161.073 91.4073 161.892 91.9437C162.932 92.6132 163.302 94.3709 163.366 95.6043C163.566 99.1931 161.004 102.353 159.368 105.506C158.995 106.084 158.575 106.628 158.111 107.135C158.537 107.532 158.956 107.925 159.366 108.333C161.775 110.717 164.026 113.255 166.106 115.93C167.192 117.298 168.226 118.703 169.233 120.12C168.756 118.28 168.594 116.373 168.753 114.478C169.058 111.558 170.591 108.624 173.217 107.305C174.097 106.868 175.235 106.664 176 107.28C176.963 108.054 177.146 109.84 177.088 111.073C176.908 114.641 174.037 117.538 172.082 120.504C171.641 121.075 171.147 121.604 170.607 122.083C171.088 122.776 171.56 123.478 172.042 124.152C173.947 126.936 175.852 129.719 177.82 132.42C178.144 132.867 178.472 133.307 178.801 133.753C178.502 132.131 178.456 130.473 178.665 128.838C179.077 125.934 180.716 123.058 183.394 121.853C184.289 121.455 185.436 121.285 186.179 121.931C187.108 122.743 187.231 124.532 187.131 125.764C186.803 129.326 183.856 132.108 181.774 134.979C181.425 135.393 181.044 135.779 180.636 136.135C183.082 139.323 185.79 142.301 188.731 145.039C188.291 143.377 188.117 141.656 188.216 139.94C188.435 137.017 189.873 134.04 192.47 132.654C193.337 132.19 194.471 131.945 195.249 132.54C196.236 133.289 196.483 135.065 196.451 136.304C196.385 139.868 193.605 142.858 191.742 145.88C191.484 146.238 191.199 146.577 190.89 146.892C191.004 146.985 191.119 147.084 191.232 147.171C193.804 149.231 196.645 150.933 199.675 152.229C200.814 152.722 201.979 153.151 203.166 153.514C202.254 151.972 201.6 150.291 201.232 148.537C200.671 145.644 201.285 142.405 203.423 140.394C204.141 139.718 205.168 139.19 206.078 139.558C207.229 140.018 207.925 141.67 208.223 142.87C209.084 146.337 207.191 149.943 206.182 153.353C206.071 153.647 205.939 153.933 205.789 154.209C206.895 154.464 208.009 154.676 209.131 154.846C212.811 155.362 216.515 155.688 220.229 155.824C218.308 154.259 216.654 152.392 215.332 150.297C213.263 146.851 212.499 142.384 214.291 138.785C214.895 137.579 215.969 136.409 217.313 136.451C219.006 136.503 220.684 138.3 221.638 139.7C224.396 143.745 223.656 149.284 223.973 154.147C223.972 154.769 223.923 155.389 223.827 156.003C225.63 156.107 227.436 156.222 229.25 156.396C230.105 156.469 230.962 156.577 231.812 156.675C232.661 156.773 233.514 156.913 234.369 157.058C236.104 157.338 237.815 157.752 239.486 158.298C242.846 159.397 246.022 160.996 248.906 163.04C251.883 165.11 254.375 167.801 256.209 170.928C257.13 172.555 257.788 174.318 258.156 176.151C258.514 178.014 258.55 179.926 258.262 181.801L254.731 181.211C254.991 179.747 254.998 178.25 254.753 176.784C254.485 175.3 253.984 173.867 253.268 172.538C251.724 169.802 249.606 167.432 247.06 165.591C244.468 163.67 241.602 162.15 238.559 161.081C237.032 160.539 235.465 160.117 233.873 159.82C233.065 159.669 232.257 159.518 231.435 159.407C230.613 159.296 229.8 159.17 228.97 159.079C227.171 158.865 225.355 158.71 223.524 158.565C223.301 159.383 223.011 160.181 222.656 160.952C220.252 165.188 218.497 170.475 214.258 172.942C212.788 173.786 210.497 174.671 208.948 173.976C207.716 173.433 207.264 171.908 207.244 170.561C207.197 166.54 209.826 162.842 213.194 160.653C214.887 159.581 216.723 158.755 218.648 158.2C215.371 157.947 212.075 157.638 208.789 157.059C207.458 156.826 206.124 156.509 204.82 156.19C204.444 156.719 204.026 157.216 203.57 157.677C200.853 159.972 198.318 163.167 194.775 163.774C193.559 163.979 191.765 164.007 190.878 163.148C190.174 162.462 190.25 161.303 190.578 160.378C191.558 157.612 194.279 155.747 197.151 155.106C198.236 154.87 199.343 154.758 200.452 154.771C199.914 154.559 199.379 154.334 198.853 154.095C195.702 152.66 192.759 150.807 190.103 148.585C189.967 148.474 189.834 148.355 189.703 148.242C189.194 148.67 188.647 149.052 188.07 149.382C184.849 150.892 181.568 153.308 178.014 152.966C176.772 152.85 175.043 152.407 174.415 151.344C173.914 150.498 174.289 149.398 174.847 148.592C176.515 146.177 179.641 145.091 182.569 145.206C184.273 145.309 185.952 145.675 187.544 146.292C184.649 143.478 181.992 140.428 179.602 137.174C179.06 137.568 178.484 137.914 177.882 138.208C174.563 139.494 171.134 141.704 167.601 141.102C166.38 140.902 164.677 140.343 164.106 139.242C163.663 138.363 164.113 137.293 164.724 136.529C166.583 134.248 169.746 133.359 172.663 133.677C174.637 133.939 176.551 134.541 178.32 135.455C177.772 134.698 177.236 133.939 176.712 133.18C174.804 130.386 172.944 127.561 171.091 124.74C170.611 124.005 170.118 123.266 169.638 122.53C169.155 122.899 168.642 123.229 168.107 123.517C164.821 124.94 161.481 127.238 157.943 126.789C156.693 126.639 154.992 126.139 154.395 125.057C153.921 124.198 154.324 123.11 154.927 122.317C156.669 119.955 159.825 118.965 162.748 119.16C164.726 119.346 166.657 119.874 168.454 120.72C167.483 119.251 166.457 117.808 165.387 116.406C163.38 113.714 161.2 111.154 158.862 108.743C158.496 108.367 158.125 107.998 157.756 107.635C157.207 108.214 156.598 108.731 155.938 109.179C152.839 110.913 149.75 113.561 146.171 113.486C144.951 113.455 143.17 113.146 142.462 112.127C141.903 111.32 142.195 110.198 142.694 109.353C144.182 106.824 147.199 105.516 150.151 105.413C152.153 105.395 154.144 105.721 156.036 106.377C156.306 106.474 156.568 106.592 156.821 106.728C155.068 105.077 153.198 103.555 151.226 102.175C148.483 100.227 145.47 98.6914 142.282 97.6172C142.017 97.5254 141.743 97.4479 141.475 97.3691C141.355 97.8997 141.171 98.4138 140.927 98.8999C139.701 100.921 138.78 103.46 136.688 104.587C135.966 104.972 134.844 105.366 134.101 105.011C133.83 104.829 133.614 104.576 133.478 104.279C133.342 103.982 133.292 103.653 133.331 103.329C133.364 101.386 134.687 99.632 136.351 98.618C137.505 97.9522 138.766 97.4931 140.077 97.2615C140.351 97.2147 140.629 97.1965 140.907 97.207C139.67 96.8691 138.411 96.6207 137.138 96.4637C136.618 96.9873 136.049 97.4597 135.439 97.8744C132.335 99.6101 129.252 102.262 125.666 102.183C124.446 102.153 122.665 101.843 121.963 100.823C121.413 100.147 121.704 99.0255 122.198 98.1812Z" fill="white" fill-opacity="0.36"/>
<path d="M189.52 85.2068C194.251 80.712 202.295 81.8709 207.521 85.7865C212.746 89.7021 215.951 95.6809 219.496 101.161C223.042 106.641 227.377 112.181 233.584 114.206C237.592 115.518 242.074 115.271 245.859 117.122C250.172 119.248 252.787 123.752 254.593 128.189C258.159 136.971 263.997 160.437 253.592 166.767C253.512 165.066 253.293 163.374 252.936 161.708C252.48 159.802 251.864 157.938 251.097 156.135C250.317 154.34 249.407 152.606 248.373 150.944C247.339 149.287 246.206 147.694 244.979 146.175C243.748 144.66 242.44 143.21 241.06 141.83C239.676 140.447 238.246 139.136 236.839 137.795C234.014 135.125 231.177 132.455 228.282 129.856C225.387 127.258 222.434 124.719 219.405 122.275C217.877 121.065 216.383 119.837 214.947 118.526C213.511 117.215 212.157 115.82 210.843 114.384C209.529 112.947 208.285 111.474 207.128 109.901C206.529 109.137 205.983 108.332 205.408 107.569C204.833 106.806 204.321 105.959 203.828 105.124C202.799 103.473 201.872 101.762 201.052 99.9985C200.235 98.2333 199.548 96.411 198.996 94.5459C199.54 96.413 200.215 98.2392 201.017 100.011C201.833 101.778 202.752 103.495 203.769 105.154C204.257 105.995 204.815 106.794 205.344 107.611C205.873 108.428 206.448 109.215 207.047 109.984C208.198 111.552 209.442 113.037 210.75 114.497C212.058 115.957 213.413 117.334 214.843 118.669C216.273 120.003 217.767 121.237 219.284 122.447C222.295 124.903 225.236 127.454 228.108 130.07C230.98 132.687 233.799 135.369 236.619 138.057C238.02 139.398 239.444 140.727 240.793 142.122C242.157 143.497 243.447 144.944 244.659 146.455C245.866 147.97 246.981 149.555 248 151.202C249.009 152.853 249.897 154.574 250.658 156.353C251.403 158.136 251.996 159.979 252.432 161.862C252.801 163.585 253.021 165.337 253.09 167.098C251.922 167.71 250.653 168.108 249.344 168.271C235.368 170.222 219.73 159.658 213.837 147.552C210.987 141.704 209.723 135.146 206.703 129.365C201.208 118.843 190.197 111.432 186.797 100.046C185.258 94.9398 185.689 88.8362 189.52 85.2068Z" fill="url(#paint7_linear_49_494)"/>
<path d="M198.555 224.757C198.555 224.757 201.736 190.144 224.604 176.213C247.472 162.282 265.909 146.101 268.786 130.377C271.664 114.653 291.981 64.591 347.997 80.5015C404.013 96.412 425.434 135.625 426.502 171.931C427.158 185.27 448.01 197.254 467.579 207.194C487.148 217.133 518.519 245.32 499.41 295.128C478.997 348.335 426.071 357.501 390.491 331.534C354.911 305.566 296.188 307.788 268.262 301.5C240.336 295.213 194.705 277.145 198.555 224.757Z" fill="#8F8CFF"/>
<path opacity="0.26" d="M433.762 354.468C431.621 354.276 429.485 353.983 427.361 353.591C422.108 352.621 416.927 351.042 411.963 348.897C406.936 346.725 402.115 343.966 397.635 340.696C372.037 322.014 334.804 318.013 304.886 314.798C293.326 313.556 283.343 312.484 275.553 310.73C267.216 308.852 259.383 306.397 252.273 303.432C243.135 299.621 235.176 294.955 228.618 289.565C211.599 275.575 203.833 256.734 205.535 233.567C205.544 233.473 206.378 224.738 210.006 214.416C212.139 208.349 214.806 202.924 217.934 198.291C221.853 192.488 226.51 187.919 231.775 184.711C244.034 177.244 253.964 169.778 261.29 162.523C269.56 154.332 274.432 146.466 275.772 139.144C276.687 134.148 279.354 125.818 284.099 117.425C286.739 112.755 289.769 108.488 293.105 104.742C296.98 100.391 301.287 96.7269 305.907 93.8528C319.804 85.2069 336.485 83.5597 355.486 88.9564C368.966 92.7854 381.03 98.1491 391.343 104.899C400.881 111.141 409.026 118.633 415.552 127.165C427.222 142.422 433.698 160.955 434.28 180.759C434.572 186.672 438.919 192.759 447.57 199.359C455.57 205.462 465.996 211.033 475.139 215.677C479.054 217.665 485.008 221.185 491.141 226.664C497.191 232.068 502.1 238.19 505.729 244.858C510.051 252.799 512.507 261.457 513.028 270.59C513.63 281.12 511.656 292.398 507.163 304.11C502.3 316.785 495.438 327.424 486.769 335.73C482.704 339.623 478.238 342.992 473.494 345.742C468.896 348.409 463.994 350.519 458.925 352.015C453.838 353.517 448.554 354.409 443.219 354.667C440.08 354.819 436.916 354.752 433.762 354.468ZM206.333 233.626C202.515 285.579 248.173 303.745 275.729 309.95C283.474 311.693 293.436 312.764 304.971 314.003C319.781 315.595 336.566 317.398 352.925 321.157C371.874 325.511 386.653 331.691 398.106 340.05C416.138 353.21 438.223 357.291 458.699 351.248C480.168 344.911 497.115 328.069 506.416 303.824C528.226 246.977 483.887 221.016 474.778 216.389C453.713 205.69 434.131 193.973 433.482 180.79C432.868 159.909 424.018 109.253 355.267 89.7256C336.493 84.3928 320.028 86.0098 306.33 94.5316C287.066 106.516 278.433 129.048 276.559 139.288C275.189 146.774 270.241 154.783 261.852 163.091C254.482 170.39 244.503 177.894 232.192 185.394C220.48 192.529 214.073 205.259 210.761 214.681C207.195 224.826 206.354 233.403 206.333 233.629L206.333 233.626Z" fill="white"/>
<path d="M343.371 332.198C343.371 332.198 344.072 327.031 344.231 324.118L358.807 325.083C358.807 325.083 356.565 332.908 359.733 334.418L359.202 339.574C359.202 339.574 344.722 340.139 343.371 332.198Z" fill="url(#paint8_linear_49_494)"/>
<path d="M344.231 324.118C344.129 325.982 343.805 328.77 343.585 330.536C346.726 331.438 352.636 332.748 358.155 331.854C357.678 329.026 358.807 325.083 358.807 325.083L344.231 324.118Z" fill="#FFA9A7"/>
<path d="M317.177 185.539C317.177 185.539 325.527 220.676 352.314 253.03C365.178 268.567 377.71 251.638 375.623 241.549C373.535 231.461 353.374 182.083 353.374 182.083L317.177 185.539Z" fill="url(#paint9_linear_49_494)"/>
<path d="M350.574 247.463C350.574 247.463 351.618 251.638 350.227 256.856C348.835 262.075 342.426 282.446 342.075 329.056C342.075 329.056 352.164 331.839 359.818 330.448C359.818 330.448 365.534 298.951 369.708 286.427C373.883 273.903 378.754 256.161 375.622 241.549L350.574 247.463Z" fill="url(#paint10_linear_49_494)"/>
<path d="M331.643 198.791L324.495 206.664C328.173 215.411 333.426 226.098 340.663 237.185C336.853 223.801 331.643 198.791 331.643 198.791Z" fill="#185A91"/>
<path d="M343.371 332.198C342.115 331.576 340.24 338.34 341.597 344.638C341.816 345.656 342.594 346.462 343.603 346.717C345.683 347.244 349.47 348.039 352.718 347.836C357.481 347.537 374.236 350.586 381.922 347.885C384.931 346.843 389.385 341.612 382.921 339.284C376.457 336.957 361.806 334.8 359.733 334.418C359.733 334.418 355.002 337.959 343.371 332.198Z" fill="url(#paint11_linear_49_494)"/>
<path d="M378.208 337.917C371.083 336.163 361.39 334.723 359.733 334.418C359.733 334.418 358.211 335.555 354.774 335.491C358.923 336.863 367.738 339.118 378.208 337.917Z" fill="#E3E3E3"/>
<path d="M352.718 347.836C357.481 347.537 374.236 350.586 381.923 347.885C383.273 347.417 384.915 346.105 385.73 344.59C380.33 349.382 358.563 346.205 354.291 345.688C350.72 345.255 344.148 343.598 341.297 342.855C341.371 343.449 341.47 344.046 341.597 344.638C341.817 345.656 342.594 346.462 343.603 346.717C345.683 347.244 349.47 348.039 352.718 347.836Z" fill="#1A253A"/>
<path d="M291.815 344.187C291.815 344.187 292.859 338.97 293.207 336.013L307.99 337.926C307.99 337.926 305.207 345.752 308.338 347.492L307.468 352.709C307.468 352.709 292.685 352.361 291.815 344.187Z" fill="url(#paint12_linear_49_494)"/>
<path d="M292.661 339.621C295.897 340.6 301.886 342.139 307.007 341.938C307.319 339.812 307.99 337.926 307.99 337.926L293.207 336.013C293.085 337.046 292.879 338.355 292.661 339.621Z" fill="#FFA9A7"/>
<path d="M298.877 189.968C298.877 189.968 296.304 209.891 297.347 224.503C298.391 239.114 301.522 261.727 301.87 266.25C302.218 270.772 316.829 282.6 323.439 270.076C330.049 257.552 332.136 200.846 334.571 186.235L298.877 189.968Z" fill="url(#paint13_linear_49_494)"/>
<path d="M301.87 266.249C301.87 266.249 296.652 280.513 294.912 290.254C293.173 299.995 293.52 327.826 291.433 337.915C291.433 337.915 302.565 341.394 308.828 340.35C308.828 340.35 322.743 282.948 325.178 263.814C325.178 263.814 311.263 258.596 301.87 266.249Z" fill="url(#paint14_linear_49_494)"/>
<path d="M291.815 344.187C290.576 343.474 288.235 350.243 289.215 356.744C289.374 357.794 290.114 358.665 291.125 358.989C293.211 359.658 297.017 360.709 300.337 360.709C305.207 360.709 322.077 364.883 330.077 362.623C333.208 361.753 338.078 356.709 331.643 353.927C325.208 351.144 310.425 348.014 308.337 347.492C308.337 347.492 303.294 350.796 291.815 344.187Z" fill="url(#paint15_linear_49_494)"/>
<path d="M326.93 352.233C319.785 349.993 310.006 347.909 308.337 347.492C308.337 347.492 306.715 348.553 303.219 348.269C307.356 349.931 316.19 352.789 326.93 352.233Z" fill="#DDD7D9"/>
<path d="M300.337 360.709C305.207 360.709 322.077 364.883 330.078 362.623C331.483 362.232 333.239 361 334.165 359.509C328.36 364.045 306.395 359.422 302.077 358.622C298.468 357.954 291.88 355.848 289.024 354.908C289.061 355.518 289.124 356.132 289.216 356.744C289.374 357.794 290.114 358.665 291.126 358.989C293.211 359.658 297.017 360.709 300.337 360.709Z" fill="#1A253A"/>
<path d="M353.374 182.083L317.177 185.539C317.177 185.539 317.382 186.404 317.832 187.986L298.877 189.968C298.877 189.968 298.671 191.559 298.4 194.171C302.355 195.139 314.602 197.579 327.118 194.386C328.848 193.945 330.476 195.392 330.262 197.165C329.535 203.194 329.212 213.559 340.557 215.562C350.313 217.283 361.824 219.234 368.438 220.347C361.901 202.967 353.374 182.083 353.374 182.083Z" fill="#185A91"/>
<path d="M315.086 67.9237C315.086 67.9237 315.574 76.7995 314.646 79.3504V85.148L330.416 96.0474L336.909 85.3799C336.909 85.3799 332.967 84.2205 332.735 82.829C332.503 81.4376 332.735 74.0168 332.735 74.0168L315.086 67.9237Z" fill="url(#paint16_linear_49_494)"/>
<path d="M332.735 74.0162L315.085 67.9233C315.085 67.9233 315.146 69.0252 315.184 70.5632C315.782 71.29 316.426 72.0287 317.12 72.7793C322.04 78.2854 327.789 80.062 332.632 80.204C332.624 77.5558 332.735 74.0162 332.735 74.0162Z" fill="#F9ABAB"/>
<path d="M324.549 36.0999C314.733 36.035 307.165 44.8783 308.664 54.5794C309.274 58.5252 311.134 63.2171 315.071 68.6771C322.342 79.1353 333.408 78.8807 338.129 77.4949C339.523 77.0858 340.713 76.1663 341.434 74.9058C342.316 73.3653 343.128 70.7726 342.65 66.6769C341.644 58.0465 339.58 36.1991 324.549 36.0999Z" fill="url(#paint17_linear_49_494)"/>
<path d="M324.549 36.0999C314.733 36.035 307.165 44.8783 308.664 54.5794C308.912 56.1794 309.364 57.9022 310.078 59.749C317.393 55.4692 330.513 47.6634 336.472 43.3079C333.859 39.1207 330.083 36.1364 324.549 36.0999Z" fill="url(#paint18_linear_49_494)"/>
<path d="M315.187 70.9476C315.187 70.9476 306.532 70.3584 303.051 55.5253C299.956 42.3381 313.259 28.7382 334.048 37.0439C334.048 37.0439 333.767 39.3458 330.165 40.7744C326.564 42.2029 324.802 43.2335 321.998 45.149C320.351 46.2742 311.757 52.6897 313.64 60.6367C315.54 68.6568 315.331 69.3732 315.187 70.9476Z" fill="#53383F"/>
<path d="M313.388 57.8035C313.751 51.2033 320.552 46.1368 321.998 45.1488C324.802 43.2334 326.564 42.2028 330.165 40.7742C333.767 39.3457 334.048 37.0438 334.048 37.0438C313.259 28.7379 299.956 42.338 303.051 55.5253C303.702 58.2983 304.531 60.5731 305.448 62.4392C306.639 61.7525 309.636 60.0187 313.388 57.8035Z" fill="#54343E"/>
<path d="M315.459 67.2668C317.196 65.7505 316.817 62.475 314.613 59.9506C312.409 57.4263 309.215 56.609 307.478 58.1252C305.741 59.6414 306.12 62.917 308.324 65.4413C310.528 67.9657 313.722 68.783 315.459 67.2668Z" fill="url(#paint19_linear_49_494)"/>
<path d="M310.689 62.7943C310.559 62.9285 310.452 63.0623 310.372 63.1803C310.283 63.3131 310.318 63.4933 310.451 63.5827C310.49 63.6091 310.533 63.6246 310.577 63.6299C310.682 63.6427 310.79 63.5977 310.853 63.504C310.862 63.4914 311.691 62.2836 312.73 62.6371C312.922 63.0044 313.07 63.4482 313.155 63.9845C313.176 64.1152 313.281 64.2117 313.406 64.227C313.432 64.2303 313.459 64.2299 313.487 64.2256C313.645 64.2006 313.753 64.0521 313.728 63.894C313.099 59.9113 309.294 60.3357 309.255 60.3404C309.097 60.36 308.984 60.5045 309.003 60.6631C309.023 60.8218 309.167 60.935 309.326 60.9159C309.425 60.9041 311.165 60.719 312.289 61.9934C311.633 62.0161 311.064 62.4068 310.689 62.7943Z" fill="#FF9D9D"/>
<path d="M313.368 58.7972C313.368 58.7972 314.339 59.9417 314.572 60.3607C314.805 60.7795 317.12 64.8634 318.842 65.2707C318.842 65.2707 318.563 68.5051 319.156 70.8554C319.156 70.8554 315.976 68.798 315.059 67.5521L315.119 67.7257C315.119 67.7257 317.225 70.1691 319.168 71.1231C319.168 71.1231 319.424 71.8212 319.517 71.9142C319.61 72.0073 323.705 75.5909 326.067 76.4518L341.617 58.8599C341.617 58.8599 337.016 63.8628 319.051 64.5843C319.051 64.5843 318.825 64.59 318.848 65.0729C318.848 65.0729 317.341 64.177 315.957 61.9432C314.572 59.7091 313.368 58.7972 313.368 58.7972Z" fill="#E57373"/>
<path d="M318.974 64.9793C318.901 65.983 318.715 69.4679 319.497 71.656C319.525 71.736 319.571 71.8073 319.631 71.8677C320.602 72.8499 329.21 81.1906 338.078 77.6694C340.685 76.7697 345.961 73.3801 341.617 58.8596C341.617 58.8596 337.408 64.1498 319.276 64.6924C319.117 64.6973 318.986 64.8206 318.974 64.9793Z" fill="white"/>
<path d="M313.391 58.7682C313.691 59.0079 313.96 59.2794 314.223 59.5573C314.485 59.8357 314.736 60.1239 314.98 60.4179C315.22 60.7152 315.457 61.0154 315.684 61.3234C315.913 61.6286 316.131 61.945 316.353 62.2492C316.577 62.5542 316.809 62.8517 317.053 63.1377C317.295 63.4249 317.54 63.7074 317.791 63.9822C318.042 64.257 318.308 64.5174 318.593 64.7537C318.881 64.9874 319.19 65.1945 319.544 65.334L319.536 65.3703C319.148 65.3329 318.775 65.1708 318.443 64.9669C318.108 64.762 317.806 64.51 317.525 64.2417C317.247 63.9706 316.993 63.6765 316.763 63.3674C316.534 63.057 316.317 62.7402 316.107 62.4197C315.896 62.0984 315.697 61.7776 315.485 61.4636C315.276 61.1475 315.056 60.839 314.833 60.5327C314.609 60.2269 314.378 59.9258 314.136 59.6338C313.893 59.3435 313.644 59.0552 313.368 58.7974L313.391 58.7682ZM315.086 67.5267C315.445 67.8649 315.811 68.1947 316.188 68.5106C316.563 68.8285 316.946 69.1363 317.334 69.4345L317.631 69.652L317.933 69.8596L318.233 70.0693L318.527 70.2873C318.914 70.5862 319.306 70.8721 319.689 71.1996L319.671 71.2325C319.432 71.1566 319.194 71.0694 318.972 70.956C318.859 70.902 318.747 70.8455 318.638 70.7846L318.315 70.5938C317.891 70.3297 317.519 69.9933 317.146 69.6655C316.772 69.339 316.41 68.9997 316.061 68.6474C315.716 68.2922 315.376 67.9328 315.059 67.5523L315.086 67.5267Z" fill="white"/>
<path d="M320.708 66.1716C321.623 66.3464 322.549 66.466 323.476 66.5623C324.403 66.657 325.333 66.7175 326.264 66.7479C327.195 66.7821 328.126 66.7788 329.055 66.7414C329.984 66.7016 330.912 66.6346 331.833 66.5128C332.753 66.3901 333.668 66.2297 334.569 66.0122C334.794 65.9592 335.017 65.8973 335.241 65.8404C335.353 65.8102 335.466 65.7848 335.576 65.7507L335.908 65.6506C336.354 65.5272 336.789 65.3717 337.228 65.2254C338.097 64.9093 338.943 64.5364 339.765 64.108C340.576 63.6615 341.356 63.1578 342.099 62.5922L342.124 62.6203C341.445 63.264 340.695 63.8387 339.895 64.3353C339.087 64.8189 338.234 65.2278 337.358 65.5744C336.477 65.9101 335.568 66.1663 334.65 66.3717C333.73 66.5656 332.8 66.7053 331.868 66.8088C330.935 66.9131 329.999 66.962 329.062 66.9835C328.126 67.0024 327.19 66.987 326.256 66.9339C325.322 66.8785 324.39 66.793 323.463 66.6734C322.536 66.552 321.613 66.4077 320.699 66.208L320.708 66.1716ZM320.713 67.8488C321.13 68.0639 321.562 68.2539 321.995 68.4357C322.429 68.6179 322.87 68.7834 323.313 68.9409C324.2 69.2525 325.103 69.5196 326.016 69.7376C327.841 70.1767 329.712 70.4354 331.585 70.4272L331.936 70.4267C332.052 70.4278 332.169 70.4178 332.286 70.4141C332.519 70.4017 332.753 70.397 332.986 70.3785L333.684 70.3134C333.8 70.3051 333.915 70.2855 334.031 70.2695L334.377 70.2199C335.3 70.0834 336.214 69.8931 337.107 69.6255L337.444 69.531C337.556 69.4985 337.665 69.4565 337.775 69.4197L338.437 69.1918L339.086 68.9287C339.194 68.8837 339.304 68.8434 339.41 68.7945L339.727 68.6453C339.938 68.5446 340.152 68.4487 340.361 68.3436L340.979 68.0094C341.082 67.9532 341.189 67.902 341.289 67.842L341.59 67.6578C341.789 67.5341 341.991 67.4125 342.194 67.2918L342.216 67.322C341.468 67.8958 340.692 68.4503 339.844 68.8798L339.53 69.0496C339.425 69.1049 339.315 69.15 339.207 69.2008L338.558 69.4973L337.891 69.7514C337.78 69.7922 337.669 69.8384 337.556 69.8751L337.215 69.9819L336.874 70.0865C336.76 70.1213 336.647 70.1582 336.53 70.1841L335.835 70.3508C335.72 70.3816 335.602 70.3986 335.485 70.4196L335.133 70.4808L334.781 70.5419L334.427 70.5855C333.483 70.7074 332.531 70.7439 331.582 70.7255C329.683 70.6961 327.799 70.3969 325.971 69.9186C325.057 69.6748 324.157 69.3824 323.275 69.0463C322.834 68.8764 322.396 68.6987 321.966 68.5046C321.536 68.3107 321.109 68.1092 320.695 67.882L320.713 67.8488ZM320.715 70.0375C321.505 70.5752 322.34 71.047 323.189 71.4836C324.041 71.9177 324.914 72.3086 325.804 72.6516C327.582 73.342 329.437 73.8456 331.325 74.0652C333.213 74.2885 335.128 74.1892 336.974 73.7852C337.897 73.5814 338.802 73.2912 339.674 72.9174L339.838 72.8484L340 72.7737L340.323 72.624C340.535 72.516 340.751 72.4156 340.958 72.2983C341.383 72.081 341.786 71.8243 342.194 71.5731L342.216 71.6033C340.721 72.8088 338.944 73.6881 337.059 74.1476C336.587 74.2627 336.109 74.3495 335.629 74.4152C335.148 74.4784 334.664 74.5105 334.18 74.5283C333.696 74.5437 333.212 74.5294 332.729 74.5023C332.247 74.4759 331.766 74.4273 331.288 74.3605C329.374 74.1001 327.512 73.5541 325.735 72.8244C324.847 72.4558 323.981 72.0402 323.137 71.5822C322.295 71.1218 321.472 70.6276 320.692 70.0674L320.715 70.0375Z" fill="#DADADA"/>
<path d="M343.607 30.1064C336.912 30.2306 332.265 32.884 329.297 33.3854C329.297 33.3854 319.532 25.1971 307.798 33.1133C300.638 37.9433 298.801 45.7984 300.388 52.589C300.502 53.0775 301.04 53.3341 301.492 53.116C302.223 52.7633 303.1 53.0965 303.412 53.8455L303.887 54.9855C304.157 55.632 303.912 56.3784 303.313 56.7403L302.836 57.0278C302.468 57.2504 302.351 57.7271 302.568 58.0992C302.972 58.7931 303.417 59.4555 303.9 60.0791C304.365 60.6795 305.213 60.8213 305.851 60.4088C310.211 57.588 326.642 46.9854 335.346 41.7481C345.44 35.6743 351.212 30.2507 343.607 30.1064Z" fill="url(#paint20_linear_49_494)"/>
<path d="M325.248 42.7128C319.019 48.271 308.089 57.0329 303.607 59.6877C303.703 59.8197 303.801 59.9506 303.901 60.0793C304.365 60.6794 305.214 60.8201 305.852 60.4078C310.213 57.5863 326.642 46.9845 335.346 41.7477C345.44 35.6741 351.212 30.2506 343.607 30.1061C336.912 30.2303 332.265 32.8838 329.296 33.3852C329.296 33.3852 331.599 37.0458 325.248 42.7128Z" fill="#D84545"/>
<path d="M345.854 30.4004C345.88 31.1724 345.562 32.2747 344.203 33.6134C341.677 36.0995 309.633 57.2029 304.542 60.5506C304.963 60.7076 305.449 60.6685 305.851 60.4083C310.211 57.5876 326.642 46.9849 335.346 41.7477C344.175 36.4356 349.696 31.6208 345.854 30.4004Z" fill="#C92929"/>
<path d="M307.798 33.1129C306.266 34.1465 304.978 35.3187 303.915 36.5891C307.629 38.691 319.39 43.9701 329.296 33.3852C329.296 33.3852 319.532 25.1967 307.798 33.1129Z" fill="#EB5F5F"/>
<path d="M325.99 32.001C326.909 32.4173 327.406 33.33 327.175 33.8404C326.944 34.3508 326.071 34.2656 325.153 33.8493C324.234 33.433 323.617 32.8432 323.848 32.3328C324.08 31.8225 325.071 31.5847 325.99 32.001Z" fill="#EA5454"/>
<path d="M325.921 31.8053C326.839 32.2216 327.337 33.1343 327.106 33.6447C326.875 34.1551 326.002 34.0698 325.083 33.6535C324.165 33.2373 323.548 32.6475 323.779 32.1371C324.01 31.6267 325.002 31.389 325.921 31.8053Z" fill="white"/>
<path d="M347.295 140.876C347.295 140.876 351.519 161.519 367.868 158.893C389.602 155.402 397.732 139.311 397.732 139.311L398.601 131.136C398.601 131.136 393.957 133.847 385.029 137.442C377.714 140.387 370.767 143.587 366.245 142.08C360.699 140.231 347.295 140.876 347.295 140.876Z" fill="#FFA197"/>
<path d="M366.361 149.849C366.361 149.849 367.539 146.117 368.269 142.449C367.551 142.408 366.875 142.29 366.245 142.08C365.598 141.864 364.842 141.683 364.015 141.53L366.361 149.849Z" fill="#F77F7C"/>
<path d="M397.755 131.615C397.755 131.615 401.384 129.397 402.776 128.528C404.167 127.658 407.216 124.544 408.509 126.484C409.205 127.528 407.123 129.224 407.123 129.224C407.123 129.224 402.694 132.917 402.016 134.601C398.769 142.66 395.349 140.051 393.088 140.573L397.755 131.615ZM344.513 88.3526C344.513 88.3526 359.47 106.614 363.992 129.224C368.513 151.833 366.469 153.436 362.078 155.485C354.252 159.138 347.122 148.876 341.556 118.093C341.556 118.093 335.295 86.6133 344.513 88.3526Z" fill="#FFA197"/>
<path d="M356.157 129.441C358.18 127.643 361.205 125.926 362.909 124.588C361.896 120.789 360.624 117.148 359.222 113.74C353.712 111.822 345.414 110.426 341.389 117.207C341.493 117.775 341.556 118.093 341.556 118.093C343.467 128.662 345.562 136.812 347.807 142.811C349.128 147.184 353.244 157.561 362.851 158.965C353.642 153.407 353.026 132.224 356.157 129.441Z" fill="#F77F7C"/>
<path d="M340.851 84.6838C340.851 84.6838 354.534 87.0029 363.81 121.325C363.81 121.325 353.374 129.441 342.011 130.833C342.011 130.833 333.43 92.3366 340.851 84.6838Z" fill="#EA5454"/>
<path d="M342.011 130.833C353.374 129.441 363.81 121.324 363.81 121.324C363.572 120.443 363.33 119.583 363.087 118.743C354.794 124.03 355.215 119.257 354.766 112.744C354.302 106.019 350.939 94.0759 350.939 94.0759C350.565 93.166 350.035 91.9719 349.378 90.7061C344.536 85.3091 340.852 84.6838 340.852 84.6838C333.431 92.3366 342.011 130.833 342.011 130.833Z" fill="#D84545"/>
<path d="M314.646 79.3499C314.646 79.3499 307.642 82.787 299.815 89.5699C292.378 96.0154 296.094 129.441 296.79 139.877C297.485 150.312 298.877 189.968 298.877 189.968C298.877 189.968 315.11 200.635 353.374 182.083C353.374 182.083 355.461 176.517 353.374 171.184C351.287 165.85 351.628 162.393 351.983 160.284C353.954 148.573 351.158 121.532 351.983 112.048C352.91 101.381 354.534 84.9155 332.851 82.8284C332.851 82.8284 333.46 88.8 328.561 89.0898C316.986 89.7749 314.646 79.3499 314.646 79.3499Z" fill="url(#paint21_linear_49_494)"/>
<path d="M329.73 90.9613C334.577 89.3457 335.087 85.6626 334.774 83.0921C334.154 82.9921 333.394 82.8811 332.731 82.8058C332.731 82.8058 333.46 88.8 328.561 89.0898C316.986 89.7748 314.646 79.35 314.646 79.35C314.646 79.35 313.672 79.8284 312.044 80.7798C314.197 85.0407 319.666 93.0256 329.73 90.9613ZM296.79 139.877C297.485 150.312 298.877 189.968 298.877 189.968C298.877 189.968 299.192 190.175 299.836 190.48C300.345 187.496 300.99 182.964 301.312 177.677C301.662 171.931 299.805 154.487 301.66 152.284C303.515 150.08 306.646 137.906 306.646 137.906C307.341 138.022 308.965 137.674 308.965 137.674C311.864 126.774 312.212 111.932 312.212 111.932L295.303 108.062C294.951 119.877 296.384 133.789 296.79 139.877Z" fill="#DB3232"/>
<path d="M300.655 180.151C300.655 180.151 303.283 188.267 331.421 184.248C331.421 184.248 319.903 187.262 311.4 186.567C302.897 185.871 301.196 184.402 300.037 185.33C300.037 185.33 298.723 182.934 300.655 180.151ZM353.375 171.184C351.287 165.85 351.628 162.393 351.983 160.284C352.004 160.161 352.023 160.034 352.043 159.908C351.093 161.615 346.22 169.656 337.837 171.416C337.837 171.416 342.823 171.647 347.461 170.024C347.461 170.024 346.417 173.271 344.91 174.198C344.91 174.198 348.505 172.807 350.94 171.416C352.493 170.528 353.622 172.803 354.266 175.289C354.177 173.973 353.917 172.57 353.375 171.184Z" fill="#D82C2C"/>
<path d="M353.862 180.337C354.317 178.274 354.742 174.679 353.374 171.184C351.287 165.85 351.628 162.393 351.983 160.284C353.512 151.198 352.172 132.884 351.88 120.701L324.262 127.471C324.357 138.244 331.413 136.713 331.413 136.713C331.068 137.575 330.205 142.579 329.515 147.41C328.825 152.241 324.857 158.625 324.857 158.625L327.272 160.868C332.103 159.142 331.931 149.998 331.931 149.998C331.931 149.998 332.276 151.378 331.931 159.66C331.586 167.941 330.205 165.526 330.205 165.526C323.994 161.903 306.913 153.966 306.913 153.966L308.552 146.029L312.175 146.806C319.422 120.839 315.367 111.522 315.367 111.522C315.367 111.522 304.352 113.53 295.359 118.094C295.662 126.947 296.496 135.466 296.79 139.877C297.259 146.908 298.043 167.201 298.505 179.695C303.487 181.111 309.577 182.446 315.022 182.78C322.149 183.216 338.228 185.798 343.1 186.598C344.508 186.046 345.953 185.451 347.435 184.81L353.862 180.337Z" fill="url(#paint22_linear_49_494)"/>
<path d="M301.047 88.5749C301.047 88.5749 309.122 88.4582 315.463 99.4568C321.803 110.455 327.497 120.807 327.497 120.807C327.497 120.807 323.485 122.36 324.521 128.959L357.905 115.631C357.905 115.631 351.677 88.3029 336.417 83.3989C336.417 83.3989 345.871 88.7171 349.365 97.7747C352.858 106.832 356.093 114.596 356.093 114.596L331.379 118.996C331.379 118.996 313.674 84.2921 301.047 88.5749Z" fill="#D84545"/>
<path d="M338.659 136.022C338.659 136.022 325.374 84.7791 307.43 83.744C307.43 83.744 302.599 84.4341 301.047 88.575C301.047 88.575 316.11 84.3177 334.691 137.575L338.659 136.022Z" fill="url(#paint23_linear_49_494)"/>
<path d="M332.387 131.211L336.904 129.928C335.974 126.894 334.696 122.96 333.113 118.668C331.901 118.881 328.883 120.034 328.883 120.034C328.883 120.034 323.936 107.611 318.3 99.2722C312.664 90.9328 308.466 89.4376 306.05 88.4023C303.635 87.3672 301.047 88.5748 301.047 88.5748C301.047 88.5748 314.88 84.6657 332.387 131.211Z" fill="#243044"/>
<path d="M336.143 83.2852C336.143 83.2852 348.667 83.2265 355.913 102.723C361.789 118.53 369.199 128.258 369.199 128.258L364.195 129.121C364.195 129.121 354.898 111.495 351.945 102.378C347.977 90.128 341.491 86.5634 336.143 83.2852Z" fill="url(#paint24_linear_49_494)"/>
<path d="M351.945 102.378C353.528 107.264 356.933 114.596 359.753 120.347L363.07 118.434C362.302 117.028 361.498 115.486 360.679 113.815L357.725 114.153C357.725 114.153 352.937 99.6601 347.977 92.8018C343.016 85.9434 336.143 83.2847 336.143 83.2847C341.491 86.5632 347.977 90.1278 351.945 102.378Z" fill="#243044"/>
<path d="M430.883 123.772L377.443 123.007L333.578 134.911L378.608 158.72L430.883 123.772Z" fill="#243044"/>
<path d="M377.443 123.007C377.604 124.197 377.687 125.387 377.747 126.577C377.804 127.767 377.831 128.957 377.831 130.147C377.832 131.337 377.805 132.527 377.749 133.718C377.689 134.908 377.605 136.098 377.443 137.288C377.282 136.098 377.198 134.908 377.138 133.718C377.081 132.527 377.055 131.337 377.055 130.147C377.056 128.957 377.082 127.767 377.139 126.577C377.199 125.387 377.283 124.197 377.443 123.007Z" fill="#1D293A"/>
<path d="M332.621 132.917C332.621 132.917 329.77 135.149 329.17 140.853C328.48 147.409 326.927 152.931 324.684 155.864L327.272 158.107C327.272 158.107 331.413 149.825 332.276 142.233C332.724 138.287 334.174 134.987 334.174 134.987L332.621 132.917Z" fill="#243044"/>
<path d="M377.821 122.87C380.825 121.626 382.252 118.182 381.007 115.178C379.763 112.174 376.319 110.747 373.315 111.992C370.311 113.236 368.884 116.68 370.129 119.684C371.373 122.688 374.817 124.115 377.821 122.87Z" fill="#394963"/>
<path d="M330.953 120.048L374.504 111.652L377.443 123.007L333.578 134.911L330.953 120.048Z" fill="url(#paint25_linear_49_494)"/>
<path d="M374.726 121.325C372.009 122.101 341.242 131.858 340.954 129.088C340.558 125.282 338.358 122.953 338.358 122.953C339.005 130.069 335.511 133.693 335.511 133.693L334.515 134.657L376.651 123.222C379.385 122.713 381.455 120.317 381.455 117.436C381.455 116.158 381.046 114.975 380.354 114.01C381.443 118.783 377.319 120.584 374.726 121.325Z" fill="#313D56"/>
<path d="M331.901 135.114C336.082 135.114 339.471 131.725 339.471 127.545C339.471 123.364 336.082 119.975 331.901 119.975C327.721 119.975 324.332 123.364 324.332 127.545C324.332 131.725 327.721 135.114 331.901 135.114Z" fill="url(#paint26_linear_49_494)"/>
<path d="M337.042 128.316C337.508 125.441 335.556 122.733 332.681 122.266C329.807 121.799 327.098 123.752 326.632 126.626C326.165 129.501 328.117 132.209 330.992 132.676C333.866 133.142 336.575 131.19 337.042 128.316Z" fill="#1E293A"/>
<path d="M335.209 120.71C335.546 120.77 335.873 120.882 336.188 121.021C336.504 121.159 336.804 121.333 337.091 121.529C337.659 121.928 338.161 122.432 338.545 123.018C338.647 123.162 338.731 123.315 338.821 123.466C338.9 123.622 338.984 123.777 339.051 123.939C339.196 124.258 339.305 124.592 339.403 124.928C339.583 125.604 339.668 126.301 339.688 126.995C339.702 127.689 339.656 128.386 339.526 129.072C339.453 129.413 339.371 129.753 339.254 130.083C339.202 130.249 339.132 130.411 339.068 130.573C338.994 130.732 338.924 130.892 338.839 131.045C338.673 131.352 338.489 131.651 338.271 131.925C338.055 132.198 337.816 132.454 337.556 132.684C337.295 132.912 337.013 133.116 336.714 133.288C336.415 133.459 336.1 133.604 335.77 133.693C335.928 133.629 336.078 133.549 336.224 133.463C336.371 133.379 336.512 133.286 336.649 133.187C336.922 132.99 337.179 132.772 337.41 132.53C337.878 132.051 338.256 131.494 338.538 130.894C339.104 129.69 339.294 128.338 339.257 127.005C339.245 126.338 339.166 125.674 339.008 125.03C338.925 124.71 338.832 124.391 338.703 124.086C338.646 123.931 338.569 123.784 338.501 123.633C338.424 123.487 338.351 123.338 338.262 123.198C338.093 122.914 337.897 122.645 337.68 122.394C337.463 122.142 337.223 121.909 336.964 121.697C336.706 121.484 336.428 121.293 336.135 121.127C335.988 121.042 335.837 120.967 335.683 120.896C335.53 120.825 335.372 120.76 335.209 120.71Z" fill="#243044"/>
<path d="M331.831 122.198C331.39 122.198 330.961 122.253 330.551 122.355C328.661 123.156 327.334 125.029 327.334 127.212C327.334 130.124 329.695 132.485 332.608 132.485C333.049 132.485 333.478 132.43 333.887 132.328C335.778 131.527 337.104 129.654 337.104 127.471C337.104 124.559 334.743 122.198 331.831 122.198Z" fill="#243044"/>
<path opacity="0.16" d="M384.972 118.673C384.972 118.673 382.694 117.078 383.787 114.526C384.881 111.974 386.431 112.02 385.884 110.926C385.337 109.832 383.149 107.371 384.243 105.002C385.337 102.632 387.342 102.085 387.615 99.3507C387.889 96.6163 384.608 95.8872 387.251 91.6034C387.251 91.6034 386.613 95.7049 388.436 97.5278C390.259 99.3507 390.35 101.538 388.892 102.996C387.433 104.455 386.704 106.278 387.433 107.463C388.162 108.647 389.074 110.015 387.889 112.476C386.704 114.936 384.471 114.481 384.972 118.673Z" fill="white"/>
<path opacity="0.78" d="M387.127 137.393H381.776C380.942 137.393 380.247 136.752 380.181 135.921L379.087 122.299C379.087 122.299 381.576 122.72 384.485 122.72C387.395 122.72 389.816 122.299 389.816 122.299L388.722 135.921C388.656 136.753 387.961 137.393 387.127 137.393Z" fill="#FFCBC7"/>
<path d="M389.816 122.299C389.816 122.668 387.414 122.967 384.452 122.967C381.489 122.967 379.087 122.668 379.087 122.299C379.087 121.93 381.489 121.631 384.452 121.631C387.414 121.631 389.816 121.93 389.816 122.299Z" fill="#FFE4E3"/>
<path d="M388.057 121.804C387.104 121.696 385.84 121.631 384.452 121.631C383.064 121.631 381.799 121.696 380.846 121.804H379.087V122.299C379.087 122.668 381.489 122.967 384.452 122.967C387.415 122.967 389.816 122.668 389.816 122.299V121.804H388.057Z" fill="#FFE4E3"/>
<path d="M389.816 121.804C389.816 122.173 387.414 122.472 384.452 122.472C381.489 122.472 379.087 122.173 379.087 121.804C379.087 121.435 381.489 121.136 384.452 121.136C387.414 121.136 389.816 121.435 389.816 121.804Z" fill="#FFE9E9"/>
<path d="M384.452 122.299C387.258 122.299 389.533 122.063 389.533 121.772C389.533 121.481 387.258 121.245 384.452 121.245C381.646 121.245 379.371 121.481 379.371 121.772C379.371 122.063 381.646 122.299 384.452 122.299Z" fill="#F9D7D7"/>
<path d="M384.452 121.336C381.793 121.336 379.613 121.548 379.391 121.818C379.613 122.087 381.793 122.299 384.452 122.299C387.11 122.299 389.29 122.087 389.513 121.818C389.29 121.548 387.11 121.336 384.452 121.336Z" fill="#FFE4E3"/>
<path d="M389.592 125.091H379.311C379.311 125.092 380.18 135.921 380.18 135.921C380.247 136.753 380.942 137.394 381.776 137.394H387.126C387.961 137.394 388.655 136.753 388.722 135.921L389.592 125.091V125.091Z" fill="#E87C56"/>
<path d="M384.451 124.609C381.751 124.609 379.537 124.821 379.311 125.091C379.537 125.36 381.751 125.572 384.451 125.572C387.152 125.572 389.366 125.36 389.592 125.091C389.366 124.821 387.152 124.609 384.451 124.609Z" fill="#F48967"/>
<path d="M383.677 128.256C383.677 128.256 383.778 127.791 384.061 127.791C384.344 127.791 384.606 128.034 384.485 128.135C384.364 128.236 384.202 128.357 384.202 128.64C384.202 128.923 383.414 128.761 383.677 128.256ZM381.445 126.843C381.445 126.843 381.92 126.864 381.968 127.143C382.016 127.421 381.821 127.721 381.701 127.619C381.581 127.516 381.435 127.377 381.156 127.425C380.877 127.473 380.903 126.669 381.445 126.843ZM387.466 126.762C387.466 126.762 387.941 126.783 387.989 127.062C388.037 127.34 387.842 127.64 387.722 127.538C387.602 127.435 387.455 127.297 387.177 127.344C386.898 127.392 386.924 126.588 387.466 126.762ZM386.687 129.812C386.687 129.812 387.589 130.038 387.637 130.317C387.685 130.596 387.496 130.64 387.136 130.811C386.994 130.879 386.283 130.943 386.263 130.559C386.248 130.277 386.145 129.638 386.687 129.812ZM381.995 133.964C381.995 133.964 382.762 134.156 382.802 134.394C382.843 134.631 382.682 134.668 382.376 134.814C382.255 134.871 381.651 134.926 381.634 134.6C381.621 134.359 381.534 133.816 381.995 133.964ZM383.324 131.409C383.324 131.409 383.799 131.43 383.847 131.709C383.895 131.987 383.7 132.287 383.58 132.185C383.46 132.083 383.313 131.944 383.035 131.991C382.756 132.039 382.782 131.235 383.324 131.409ZM381.662 129.488C381.662 129.488 382.458 129.523 382.538 129.99C382.618 130.457 382.292 130.959 382.091 130.788C381.89 130.616 381.414 130.741 381.177 130.463C380.869 130.103 380.754 129.197 381.662 129.488ZM386.653 133.529C386.653 133.529 387.448 133.564 387.528 134.031C387.608 134.498 387.282 135 387.081 134.829C386.88 134.657 386.404 134.782 386.168 134.504C385.86 134.144 385.745 133.238 386.653 133.529Z" fill="#AD715E"/>
<path d="M386.524 125.138C386.467 124.804 385.897 124.778 385.897 124.778C385.368 124.609 385.324 125.007 385.444 125.3C385.824 125.292 386.188 125.28 386.532 125.265C386.534 125.223 386.531 125.18 386.524 125.138ZM383.213 124.761C382.93 124.761 382.829 125.225 382.829 125.225C382.819 125.245 382.811 125.264 382.803 125.282C383.011 125.289 383.224 125.295 383.443 125.3C383.5 125.216 383.574 125.157 383.637 125.104C383.758 125.003 383.495 124.761 383.213 124.761Z" fill="#B77C6C"/>
<path opacity="0.16" d="M410.931 123.073C410.931 123.073 407.736 120.837 409.27 117.259C410.803 113.682 412.975 113.746 412.209 112.212C411.442 110.679 408.375 107.229 409.909 103.907C411.442 100.585 414.253 99.8184 414.636 95.9852C415.02 92.152 410.42 91.1298 414.125 85.1244C414.125 85.1244 413.231 90.8741 415.786 93.4297C418.342 95.9852 418.469 99.0517 416.425 101.096C414.381 103.141 413.358 105.696 414.381 107.357C415.403 109.018 416.681 110.935 415.02 114.385C413.359 117.834 410.228 117.196 410.931 123.073Z" fill="white"/>
<path d="M425.737 126.219C425.737 127.178 425.319 137.503 410.806 137.503C396.665 137.503 395.876 127.178 395.876 126.219C395.876 125.26 402.56 124.483 410.806 124.483C419.052 124.483 425.737 125.26 425.737 126.219Z" fill="#F9E1E1"/>
<path d="M418.174 124.709C415.956 125.45 414.302 126.254 414.302 126.254C414.302 126.254 413.256 136.055 398.742 133.093C400.853 135.452 404.503 137.503 410.806 137.503C425.319 137.503 425.737 127.178 425.737 126.219C425.737 125.572 422.69 125.007 418.174 124.709Z" fill="#EFD0D0"/>
<path d="M424.312 125.386C421.922 124.797 416.773 124.39 410.806 124.39C404.839 124.39 399.69 124.798 397.3 125.386H395.876V126.126C395.876 127.085 402.56 127.862 410.806 127.862C419.052 127.862 425.737 127.085 425.737 126.126V125.386H424.312Z" fill="#F9D7D7"/>
<path d="M410.806 127.122C419.052 127.122 425.737 126.345 425.737 125.386C425.737 124.427 419.052 123.65 410.806 123.65C402.561 123.65 395.876 124.427 395.876 125.386C395.876 126.345 402.561 127.122 410.806 127.122Z" fill="#FFE9E9"/>
<path d="M425.227 125.386C425.227 126.185 418.77 126.833 410.806 126.833C402.843 126.833 396.386 126.185 396.386 125.386C396.386 124.587 402.843 123.855 410.806 123.855C418.77 123.855 425.227 124.587 425.227 125.386Z" fill="#F2C9C9"/>
<path d="M396.476 125.547C397.277 126.27 403.387 126.833 410.806 126.833C418.226 126.833 424.336 126.27 425.137 125.547C424.336 124.814 418.226 124.179 410.806 124.179C403.387 124.179 397.277 124.814 396.476 125.547Z" fill="#F9D7D7"/>
<path opacity="0.16" d="M397.401 124.031C397.401 124.031 394.104 121.723 395.687 118.031C397.269 114.339 399.511 114.404 398.72 112.822C397.929 111.24 394.764 107.679 396.346 104.25C397.929 100.822 400.83 100.03 401.225 96.0745C401.621 92.1183 396.874 91.0634 400.698 84.8654C400.698 84.8654 399.775 90.7997 402.412 93.437C405.05 96.0745 405.182 99.2394 403.072 101.349C400.962 103.459 399.907 106.097 400.962 107.811C402.017 109.525 403.336 111.503 401.621 115.064C399.907 118.624 396.676 117.965 397.401 124.031Z" fill="white"/>
<path opacity="0.78" d="M400.538 143.288H394.579C393.65 143.288 392.877 142.574 392.802 141.648L391.584 126.478C391.584 126.478 394.356 126.947 397.596 126.947C400.836 126.947 403.533 126.478 403.533 126.478L402.315 141.648C402.24 142.574 401.467 143.288 400.538 143.288Z" fill="#FFCBC7"/>
<path d="M403.533 126.478C403.533 126.889 400.858 127.222 397.558 127.222C394.259 127.222 391.584 126.889 391.584 126.478C391.584 126.067 394.259 125.734 397.558 125.734C400.858 125.734 403.533 126.067 403.533 126.478Z" fill="#FFE4E3"/>
<path d="M401.573 125.927C400.513 125.807 399.104 125.733 397.558 125.733C396.013 125.733 394.604 125.807 393.544 125.927H391.584V126.478C391.584 126.889 394.259 127.222 397.558 127.222C400.858 127.222 403.533 126.889 403.533 126.478V125.927H401.573Z" fill="#FFE4E3"/>
<path d="M403.533 125.927C403.533 126.338 400.858 126.671 397.558 126.671C394.259 126.671 391.584 126.338 391.584 125.927C391.584 125.516 394.259 125.182 397.558 125.182C400.858 125.182 403.533 125.516 403.533 125.927Z" fill="#FFE9E9"/>
<path d="M403.217 125.891C403.217 126.215 400.683 126.478 397.558 126.478C394.433 126.478 391.9 126.215 391.9 125.891C391.9 125.567 394.433 125.304 397.558 125.304C400.684 125.304 403.217 125.567 403.217 125.891Z" fill="#F9D7D7"/>
<path d="M397.559 125.405C394.598 125.405 392.17 125.641 391.923 125.942C392.17 126.242 394.598 126.478 397.559 126.478C400.519 126.478 402.947 126.242 403.195 125.942C402.947 125.641 400.519 125.405 397.559 125.405Z" fill="#FFE4E3"/>
<path d="M403.283 129.587H391.834C391.834 129.588 392.802 141.648 392.802 141.648C392.877 142.574 393.65 143.288 394.579 143.288H400.538C401.467 143.288 402.24 142.574 402.315 141.648L403.283 129.587L403.283 129.587Z" fill="#E87C56"/>
<path d="M397.559 129.05C394.552 129.05 392.086 129.286 391.834 129.587C392.086 129.887 394.552 130.123 397.559 130.123C400.566 130.123 403.032 129.887 403.283 129.587C403.031 129.286 400.565 129.05 397.559 129.05Z" fill="#F48967"/>
<path d="M396.696 133.112C396.696 133.112 396.809 132.594 397.124 132.594C397.439 132.594 397.731 132.864 397.596 132.977C397.461 133.089 397.281 133.224 397.281 133.539C397.281 133.854 396.404 133.674 396.696 133.112ZM394.211 131.538C394.211 131.538 394.74 131.561 394.793 131.872C394.846 132.182 394.63 132.516 394.496 132.402C394.362 132.288 394.199 132.133 393.888 132.186C393.578 132.24 393.607 131.344 394.211 131.538ZM400.916 131.448C400.916 131.448 401.445 131.471 401.498 131.782C401.552 132.092 401.335 132.426 401.201 132.312C401.067 132.198 400.904 132.043 400.594 132.097C400.283 132.15 400.312 131.254 400.916 131.448ZM400.049 134.844C400.049 134.844 401.053 135.096 401.106 135.407C401.159 135.717 400.949 135.767 400.549 135.957C400.39 136.033 399.599 136.104 399.576 135.677C399.56 135.362 399.445 134.651 400.049 134.844ZM394.823 139.468C394.823 139.468 395.677 139.683 395.722 139.947C395.767 140.211 395.588 140.253 395.248 140.415C395.113 140.479 394.44 140.54 394.421 140.176C394.407 139.909 394.309 139.304 394.823 139.468ZM396.303 136.623C396.303 136.623 396.832 136.646 396.886 136.957C396.939 137.267 396.722 137.601 396.588 137.487C396.455 137.373 396.291 137.219 395.981 137.272C395.67 137.325 395.7 136.429 396.303 136.623ZM394.452 134.483C394.452 134.483 395.339 134.523 395.428 135.043C395.517 135.563 395.154 136.122 394.93 135.931C394.706 135.74 394.176 135.879 393.912 135.57C393.57 135.169 393.441 134.16 394.452 134.483ZM400.01 138.983C400.01 138.983 400.896 139.023 400.985 139.543C401.075 140.063 400.711 140.622 400.488 140.431C400.264 140.24 399.734 140.379 399.47 140.07C399.127 139.669 398.999 138.66 400.01 138.983Z" fill="#AD715E"/>
<path d="M399.866 129.639C399.803 129.267 399.168 129.239 399.168 129.239C398.579 129.05 398.53 129.493 398.664 129.82C399.087 129.811 399.492 129.798 399.876 129.781C399.877 129.734 399.874 129.686 399.866 129.639ZM396.179 129.219C395.864 129.219 395.751 129.737 395.751 129.737C395.74 129.758 395.731 129.779 395.723 129.8C395.954 129.808 396.192 129.814 396.435 129.819C396.498 129.726 396.581 129.661 396.651 129.602C396.786 129.489 396.494 129.219 396.179 129.219Z" fill="#B77C6C"/>
<path opacity="0.16" d="M373.069 126.446C373.069 126.446 369.039 123.625 370.973 119.112C372.908 114.598 375.648 114.678 374.681 112.744C373.714 110.809 369.845 106.457 371.779 102.265C373.714 98.074 377.26 97.1068 377.744 92.2705C378.228 87.4343 372.424 86.1446 377.099 78.5679C377.099 78.5679 375.971 85.8223 379.195 89.0464C382.419 92.2706 382.58 96.1396 380.001 98.7189C377.422 101.298 376.132 104.522 377.422 106.618C378.711 108.714 380.323 111.132 378.228 115.484C376.132 119.837 372.182 119.031 373.069 126.446Z" fill="white"/>
<path d="M395.855 130.456C395.855 131.65 395.335 144.506 377.263 144.506C359.654 144.506 358.672 131.65 358.672 130.456C358.672 129.262 366.996 128.294 377.263 128.294C387.531 128.294 395.855 129.262 395.855 130.456Z" fill="#FFE9E9"/>
<path d="M386.437 128.575C383.676 129.498 381.616 130.5 381.616 130.5C381.616 130.5 380.314 142.703 362.241 139.015C364.869 141.952 369.414 144.507 377.263 144.507C395.335 144.507 395.855 131.65 395.855 130.456C395.855 129.65 392.061 128.947 386.437 128.575Z" fill="#F9E1E1"/>
<path d="M394.081 129.418C391.105 128.686 384.694 128.179 377.263 128.179C369.833 128.179 363.422 128.686 360.445 129.418H358.672V130.341C358.672 131.535 366.996 132.502 377.263 132.502C387.531 132.502 395.855 131.535 395.855 130.341V129.418H394.081Z" fill="#F9D7D7"/>
<path d="M377.264 131.58C387.532 131.58 395.855 130.612 395.855 129.418C395.855 128.224 387.532 127.257 377.264 127.257C366.996 127.257 358.673 128.224 358.673 129.418C358.673 130.612 366.996 131.58 377.264 131.58Z" fill="#FFE9E9"/>
<path d="M395.22 129.418C395.22 130.413 387.181 131.22 377.264 131.22C367.347 131.22 359.308 130.413 359.308 129.418C359.308 128.423 367.347 127.512 377.264 127.512C387.181 127.512 395.22 128.423 395.22 129.418Z" fill="#F2C9C9"/>
<path d="M359.42 129.619C360.417 130.52 368.025 131.22 377.264 131.22C386.503 131.22 394.112 130.52 395.108 129.619C394.112 128.706 386.503 127.915 377.264 127.915C368.025 127.915 360.417 128.706 359.42 129.619Z" fill="#F9D7D7"/>
<path opacity="0.16" d="M355.009 128.387C355.009 128.387 350.695 125.368 352.766 120.537C354.836 115.706 357.769 115.792 356.734 113.722C355.699 111.651 351.558 106.993 353.629 102.507C355.699 98.021 359.495 96.9857 360.013 91.8097C360.53 86.6337 354.319 85.2534 359.322 77.1442C359.322 77.1442 358.115 84.9083 361.565 88.359C365.016 91.8097 365.189 95.9506 362.428 98.7112C359.667 101.472 358.287 104.922 359.667 107.165C361.048 109.408 362.773 111.996 360.53 116.655C358.287 121.313 354.06 120.451 355.009 128.387Z" fill="white"/>
<path opacity="0.78" d="M358.442 152.466H350.841C349.656 152.466 348.669 151.555 348.575 150.374L347.021 131.024C347.021 131.024 350.556 131.622 354.689 131.622C358.822 131.622 362.262 131.024 362.262 131.024L360.708 150.374C360.613 151.555 359.627 152.466 358.442 152.466Z" fill="#FFCBC7"/>
<path d="M362.262 131.024C362.262 131.549 358.85 131.974 354.641 131.974C350.433 131.974 347.021 131.549 347.021 131.024C347.021 130.5 350.433 130.075 354.641 130.075C358.85 130.075 362.262 130.5 362.262 131.024Z" fill="#FFE4E3"/>
<path d="M359.762 130.321C358.409 130.168 356.613 130.075 354.641 130.075C352.67 130.075 350.873 130.168 349.52 130.321H347.021V131.024C347.021 131.549 350.432 131.974 354.641 131.974C358.85 131.974 362.262 131.549 362.262 131.024V130.321H359.762Z" fill="#FFE4E3"/>
<path d="M362.262 130.321C362.262 130.845 358.851 131.271 354.642 131.271C350.433 131.271 347.021 130.845 347.021 130.321C347.021 129.797 350.433 129.372 354.642 129.372C358.851 129.372 362.262 129.797 362.262 130.321Z" fill="#FFE9E9"/>
<path d="M361.859 130.276C361.859 130.689 358.628 131.024 354.642 131.024C350.655 131.024 347.424 130.689 347.424 130.276C347.424 129.862 350.655 129.527 354.642 129.527C358.628 129.527 361.859 129.862 361.859 130.276Z" fill="#F9D7D7"/>
<path d="M354.641 129.656C350.865 129.656 347.768 129.957 347.452 130.34C347.768 130.723 350.865 131.024 354.641 131.024C358.417 131.024 361.514 130.723 361.83 130.34C361.514 129.957 358.417 129.656 354.641 129.656Z" fill="#FFE4E3"/>
<path d="M361.943 134.99H347.339C347.339 134.991 348.575 150.374 348.575 150.374C348.67 151.555 349.656 152.466 350.841 152.466H358.442C359.627 152.466 360.613 151.555 360.708 150.374L361.944 134.99L361.943 134.99Z" fill="#FFE5BD"/>
<path d="M354.641 134.306C350.806 134.306 347.66 134.606 347.339 134.99C347.66 135.373 350.806 135.674 354.641 135.674C358.477 135.674 361.623 135.373 361.944 134.99C361.623 134.606 358.477 134.306 354.641 134.306Z" fill="#FFEEC2"/>
<path d="M353.541 139.486C353.541 139.486 353.685 138.826 354.087 138.826C354.488 138.826 354.862 139.17 354.689 139.314C354.517 139.457 354.288 139.63 354.288 140.032C354.288 140.433 353.168 140.204 353.541 139.486ZM350.371 137.478C350.371 137.478 351.046 137.508 351.114 137.904C351.182 138.3 350.905 138.726 350.735 138.581C350.564 138.435 350.356 138.238 349.96 138.306C349.564 138.374 349.601 137.232 350.371 137.478ZM358.924 137.363C358.924 137.363 359.599 137.393 359.667 137.79C359.735 138.186 359.458 138.611 359.288 138.466C359.117 138.32 358.909 138.123 358.513 138.191C358.117 138.259 358.154 137.117 358.924 137.363ZM357.818 141.696C357.818 141.696 359.099 142.018 359.167 142.414C359.235 142.81 358.966 142.873 358.455 143.115C358.253 143.212 357.244 143.303 357.215 142.758C357.194 142.357 357.048 141.45 357.818 141.696ZM351.152 147.594C351.152 147.594 352.241 147.868 352.299 148.204C352.356 148.541 352.128 148.595 351.694 148.801C351.522 148.883 350.664 148.961 350.639 148.497C350.621 148.156 350.497 147.385 351.152 147.594ZM353.041 143.965C353.041 143.965 353.715 143.995 353.783 144.391C353.851 144.787 353.575 145.213 353.404 145.067C353.234 144.922 353.025 144.724 352.629 144.792C352.233 144.86 352.27 143.718 353.041 143.965ZM350.679 141.236C350.679 141.236 351.81 141.286 351.923 141.949C352.037 142.612 351.574 143.326 351.288 143.082C351.003 142.838 350.327 143.016 349.99 142.622C349.553 142.11 349.389 140.822 350.679 141.236ZM357.769 146.976C357.769 146.976 358.899 147.026 359.013 147.689C359.126 148.353 358.663 149.066 358.377 148.822C358.092 148.579 357.416 148.757 357.079 148.362C356.642 147.85 356.478 146.563 357.769 146.976ZM357.585 135.057C357.504 134.582 356.694 134.546 356.694 134.546C355.943 134.305 355.881 134.87 356.052 135.287C356.59 135.276 357.108 135.259 357.597 135.237C357.599 135.177 357.595 135.117 357.585 135.057ZM352.881 134.521C352.479 134.521 352.336 135.181 352.336 135.181C352.322 135.209 352.31 135.235 352.3 135.261C352.595 135.271 352.898 135.28 353.208 135.286C353.289 135.167 353.394 135.084 353.484 135.009C353.656 134.865 353.283 134.521 352.881 134.521Z" fill="#FFCBC7"/>
<path d="M333.578 134.911C333.578 134.911 340.225 136.483 355.568 137.23C370.911 137.977 378.608 137.402 378.608 137.402V214.36L340.841 211.316C336.739 210.985 333.578 207.559 333.578 203.444V134.911Z" fill="url(#paint27_linear_49_494)"/>
<path d="M333.578 153.706C333.578 153.706 342.788 155.144 354.866 156.179C366.943 157.214 378.608 157.507 378.608 157.507V152.676C378.608 152.676 364.379 151.926 355.223 151.378C346.066 150.83 333.578 148.875 333.578 148.875V153.706H333.578ZM333.578 196.323C333.578 196.323 345.732 198.15 354.878 198.998C364.023 199.846 378.608 200.124 378.608 200.124V195.293C378.608 195.293 365.566 195.131 355.392 194.21C345.217 193.29 333.578 191.492 333.578 191.492V196.323Z" fill="url(#paint28_linear_49_494)"/>
<path d="M370.004 178.121C370.004 178.121 355.856 175.59 355.453 174.958C355.051 174.325 356.086 173.29 357.121 172.772C358.156 172.255 361.204 169.839 360.917 169.092C360.629 168.344 356.546 168.286 353.325 170.127C350.105 171.967 346.136 172.657 344.296 172.082C343.096 171.707 337.399 168.961 333.578 167.095V185.218C335.467 185.644 339.884 186.714 342.456 187.956C345.791 189.566 360.227 193.017 363.39 190.486C364.253 189.508 364.425 187.553 364.425 187.553C364.425 187.553 368.745 188.401 367.477 183.836C367.477 183.836 369.486 184.39 369.659 182.549L369.544 180.767C369.544 180.767 370.464 179.846 370.004 178.121Z" fill="#2B374C"/>
<path d="M378.608 137.403C378.608 137.403 386.227 136.686 405.603 131.709C424.979 126.732 430.883 123.772 430.883 123.772C430.883 123.772 431.829 142.061 431.829 155.347C431.829 163.841 431.442 175.178 431.164 182.249C431.003 186.321 428.619 189.974 424.956 191.76L378.608 214.36L378.608 137.403Z" fill="url(#paint29_linear_49_494)"/>
<path d="M405.603 131.709C401.065 132.875 397.172 133.807 393.871 134.55V156.75C393.871 166.834 403.95 173.808 413.387 170.254L431.742 163.342C431.796 160.553 431.829 157.828 431.829 155.346C431.829 142.061 430.883 123.772 430.883 123.772C430.883 123.772 424.979 126.732 405.603 131.709Z" fill="#497FD7" fill-opacity="0.25"/>
<path d="M378.608 157.507L431.559 140.46C431.51 138.868 431.457 137.319 431.403 135.845L378.608 152.676V157.507ZM378.608 200.124L431.309 178.407C431.363 176.91 431.418 175.313 431.471 173.656L378.607 195.293L378.608 200.124Z" fill="url(#paint30_linear_49_494)"/>
<path d="M303.011 93.4673C303.011 93.4673 293.693 90.6201 287.222 120.127C280.752 149.633 281.997 163.574 290.587 166.198C299.178 168.823 306.635 152.222 310 130.739C313.364 109.256 312.329 93.9849 303.011 93.4673Z" fill="url(#paint31_linear_49_494)"/>
<path d="M283.932 138.421C288.119 140.268 298.548 144.574 306.806 145.532C307.591 142.786 308.3 139.85 308.921 136.77L285.806 126.97C284.999 131.145 284.374 134.957 283.932 138.421Z" fill="#F77F7C"/>
<path d="M299.494 154.369C300.52 154.266 303.008 154.712 303.534 154.81C303.982 153.788 304.416 152.711 304.835 151.584C303.227 152.149 299.494 154.369 299.494 154.369Z" fill="#E57373"/>
<path d="M301.199 153.516C301.199 153.516 324.494 165.681 338.212 172.152C341.836 173.705 344.424 173.446 347.53 171.375C350.636 169.304 356.871 167.728 359.46 168.504C362.048 169.281 359.921 169.88 358.368 170.742C356.815 171.605 354.015 173.031 354.274 173.98C354.515 174.863 363.929 176.715 368.786 177.456C370.192 177.67 370.307 179.407 368.958 179.858C368.691 179.947 367.916 180.27 367.539 180.295C367.539 180.295 371.956 183.13 367.211 183.734C367.211 183.734 369.103 186.773 364.1 187.118C364.1 187.118 365.316 189.767 361.348 189.94C357.38 190.112 351.341 188.904 344.526 186.834C337.711 184.764 310.753 180.702 302.6 178.466C288.16 174.506 282.327 167.769 283.189 152.068C284.569 149.48 291.086 148.666 301.199 153.516Z" fill="url(#paint32_linear_49_494)"/>
<path d="M368.077 180.278C369.897 180.157 370.352 179.182 370.222 178.405C370.146 177.951 369.779 177.602 369.324 177.536C364.683 176.859 354.815 174.915 354.565 173.999C354.307 173.05 357.035 171.91 358.588 171.047C360.141 170.185 362.284 169.046 359.695 168.269C357.107 167.493 350.575 169.163 347.469 171.233C344.711 173.072 342.413 173.316 339.391 172.275C339.043 172.155 338.666 172.363 338.583 172.722C338.021 175.131 336.671 180.27 337.259 185.147C337.29 185.4 337.479 185.604 337.729 185.653C340.641 186.224 343.068 186.586 344.521 187.027C351.337 189.098 357.402 190.293 361.371 190.121C365.339 189.948 364.368 187.265 364.368 187.265C369.371 186.92 367.474 183.815 367.474 183.815C372.218 183.211 368.077 180.278 368.077 180.278Z" fill="url(#paint33_linear_49_494)"/>
<path d="M368.079 180.299C367.239 180.385 366.396 180.431 365.552 180.469C364.708 180.499 363.863 180.51 363.017 180.504C362.594 180.505 362.172 180.495 361.748 180.492C361.325 180.477 360.902 180.459 360.482 180.409C360.271 180.383 360.061 180.36 359.851 180.332C359.642 180.298 359.432 180.269 359.224 180.23C359.12 180.211 359.015 180.195 358.911 180.174L358.6 180.107C358.393 180.059 358.186 180.012 357.981 179.954L357.987 179.912C358.838 179.898 359.675 179.948 360.515 179.979C361.354 180.014 362.189 180.115 363.028 180.159C363.867 180.209 364.708 180.24 365.55 180.253C366.391 180.274 367.234 180.274 368.076 180.257L368.079 180.299ZM367.477 183.836C367.111 183.906 366.743 183.963 366.374 184.013L365.819 184.084L365.264 184.147C364.522 184.219 363.777 184.266 363.031 184.292C362.658 184.308 362.284 184.312 361.91 184.321C361.722 184.323 361.535 184.316 361.348 184.309L361.068 184.295C360.975 184.288 360.882 184.277 360.789 184.269L360.231 184.203C360.046 184.172 359.861 184.144 359.676 184.108C359.584 184.09 359.492 184.074 359.401 184.055L359.127 183.988C358.945 183.941 358.764 183.893 358.585 183.836L358.591 183.793C359.344 183.78 360.078 183.826 360.817 183.839C361.554 183.855 362.289 183.934 363.029 183.946C363.768 183.964 364.509 183.96 365.249 183.931C365.99 183.91 366.731 183.863 367.47 183.793L367.477 183.836ZM364.371 187.287C364.06 187.347 363.747 187.394 363.433 187.433C363.276 187.453 363.118 187.469 362.961 187.487L362.487 187.531L362.013 187.562C361.854 187.572 361.696 187.575 361.537 187.583C361.378 187.59 361.22 187.588 361.061 187.59C360.902 187.592 360.743 187.593 360.584 187.587C360.425 187.585 360.266 187.585 360.106 187.579L359.628 187.561C359.469 187.557 359.31 187.536 359.151 187.519C358.993 187.499 358.835 187.479 358.678 187.446L358.209 187.344C358.055 187.303 357.901 187.259 357.748 187.21C357.672 187.186 357.595 187.163 357.52 187.138C357.445 187.11 357.37 187.079 357.296 187.05C357.148 186.988 357 186.926 356.856 186.855L356.869 186.813C357.508 186.865 358.121 186.961 358.743 187.02C358.896 187.042 359.052 187.053 359.206 187.073L359.438 187.105C359.515 187.117 359.592 187.128 359.669 187.136L360.134 187.198C360.289 187.216 360.445 187.228 360.6 187.243C360.756 187.258 360.912 187.266 361.069 187.274C361.225 187.282 361.381 187.293 361.538 187.296C361.695 187.301 361.851 187.308 362.008 187.311L362.479 187.316C363.107 187.319 363.737 187.295 364.365 187.244L364.371 187.287Z" fill="#B8C3CD"/>
<path d="M302.493 89.0671C302.493 89.0671 286.964 90.3612 282.305 135.398C282.305 135.398 297.576 144.198 309.741 143.939C309.741 143.939 327.859 93.4672 302.493 89.0671Z" fill="url(#paint34_linear_49_494)"/>
<path d="M316.23 109.624C314.16 89.0072 299.817 89.5699 299.816 89.57C299.452 89.8855 299.115 90.2666 298.802 90.7056C298.775 90.7245 298.747 90.7439 298.719 90.7632C313.258 92.2158 316.23 109.624 316.23 109.624Z" fill="#EB4D4D"/>
<path d="M490.826 369.878H421.59C418.325 369.878 415.676 367.23 415.676 363.965V236.8C415.676 233.535 418.325 230.886 421.59 230.886H490.826C494.092 230.886 496.74 233.535 496.74 236.8V363.967C496.74 367.232 494.092 369.878 490.826 369.878Z" fill="url(#paint35_linear_49_494)"/>
<path d="M496.74 361.637V251.255C496.74 246.703 493.051 243.012 488.496 243.012H423.917C419.367 243.012 415.679 246.7 415.679 251.255V361.637H496.74Z" fill="#EDF2F7"/>
<path d="M465.393 237.999H451.958C451.26 237.999 450.692 237.434 450.692 236.734V235.737C450.692 235.04 451.258 234.472 451.958 234.472H465.393C466.09 234.472 466.658 235.037 466.658 235.737V236.734C466.658 237.431 466.09 237.999 465.393 237.999Z" fill="#BCABF6"/>
<path d="M446.343 237.999C447.316 237.999 448.105 237.21 448.105 236.237C448.105 235.263 447.316 234.474 446.343 234.474C445.369 234.474 444.58 235.263 444.58 236.237C444.58 237.21 445.369 237.999 446.343 237.999Z" fill="#BCABF6"/>
<path d="M479.839 317.9V243.012H468.643L464.727 253.571H415.676V261.626H461.861L453.353 281.379V294.554L440.153 287.968V288.095L437.619 286.857V286.705L415.676 275.756V279.646L453.26 299.112V318.015H415.676V323.75H453.169V327.118L450.163 334.97L449.25 337.359L439.952 361.637H446.142L455.296 337.359L456.197 334.97L458.813 328.028V323.478H473.012V361.637H479.839V323.635H496.737V317.9H479.839ZM473.103 318.196H458.995V282.245L472.67 247.861H473.103V318.196Z" fill="#D1C6F7"/>
<path d="M473.012 346.366V350.449L457.516 337.356H455.296L456.197 334.97H459.565L473.012 346.366Z" fill="#D1C6F7"/>
<path d="M450.163 334.97L449.25 337.356H415.676V334.97H450.163Z" fill="#D1C6F7"/>
<path d="M491.034 361.637H486.257L479.839 356.216V352.15L491.034 361.637Z" fill="#D1C6F7"/>
<path d="M440.153 261.626V287.97L437.619 286.705V261.626H440.153Z" fill="#D1C6F7"/>
<path d="M469.429 258.748C469.429 263.43 460.95 273.705 460.95 273.705C460.95 273.705 452.472 263.43 452.472 258.748C452.472 254.065 456.268 250.269 460.95 250.269C465.633 250.269 469.429 254.065 469.429 258.748Z" fill="url(#paint36_linear_49_494)"/>
<path d="M460.95 264.681C457.678 264.681 455.017 262.018 455.017 258.748C455.017 255.475 457.68 252.815 460.95 252.815C464.223 252.815 466.884 255.478 466.884 258.748C466.884 262.02 464.22 264.681 460.95 264.681Z" fill="#EDF2F7"/>
<path d="M443.606 311.338C443.606 316.02 435.128 326.295 435.128 326.295C435.128 326.295 426.649 316.02 426.649 311.338C426.649 306.656 430.445 302.859 435.128 302.859C439.81 302.859 443.606 306.656 443.606 311.338Z" fill="url(#paint37_linear_49_494)"/>
<path d="M435.125 317.271C431.852 317.271 429.192 314.608 429.192 311.338C429.192 308.065 431.852 305.405 435.125 305.405C438.398 305.405 441.058 308.068 441.058 311.338C441.061 314.61 438.398 317.271 435.125 317.271Z" fill="#EDF2F7"/>
<path d="M488.318 311.338C488.318 316.02 479.839 326.295 479.839 326.295C479.839 326.295 471.36 316.02 471.36 311.338C471.36 306.656 475.157 302.859 479.839 302.859C484.521 302.859 488.318 306.656 488.318 311.338Z" fill="url(#paint38_linear_49_494)"/>
<path d="M479.839 317.271C476.567 317.271 473.906 314.608 473.906 311.338C473.906 308.065 476.567 305.405 479.839 305.405C483.112 305.405 485.772 308.068 485.772 311.338C485.775 314.61 483.112 317.271 479.839 317.271Z" fill="#EDF2F7"/>
</g>
<defs>
<linearGradient id="paint0_linear_49_494" x1="8.85233e-07" y1="187.895" x2="719.988" y2="186.165" gradientUnits="userSpaceOnUse">
<stop stop-color="#C6C1FB"/>
<stop offset="0.512305" stop-color="#776EFF"/>
<stop offset="1" stop-color="#605AFF"/>
</linearGradient>
<linearGradient id="paint1_linear_49_494" x1="452.107" y1="193.429" x2="516.537" y2="125.574" gradientUnits="userSpaceOnUse">
<stop offset="0.184024" stop-color="#006D5E"/>
<stop offset="1" stop-color="#10F1D3"/>
</linearGradient>
<linearGradient id="paint2_linear_49_494" x1="452.123" y1="194.028" x2="514.269" y2="126.263" gradientUnits="userSpaceOnUse">
<stop offset="0.184024" stop-color="#006D5E"/>
<stop offset="1" stop-color="#10F1D3"/>
</linearGradient>
<linearGradient id="paint3_linear_49_494" x1="443.303" y1="185.174" x2="531.193" y2="170.614" gradientUnits="userSpaceOnUse">
<stop stop-color="#7B73FF"/>
<stop offset="1" stop-color="#766FFF"/>
</linearGradient>
<linearGradient id="paint4_linear_49_494" x1="459.029" y1="200.505" x2="488.065" y2="137.252" gradientUnits="userSpaceOnUse">
<stop offset="0.184024" stop-color="#006D5E"/>
<stop offset="1" stop-color="#10F1D3"/>
</linearGradient>
<linearGradient id="paint5_linear_49_494" x1="459.077" y1="202.13" x2="480.612" y2="145.782" gradientUnits="userSpaceOnUse">
<stop offset="0.184024" stop-color="#006D5E"/>
<stop offset="1" stop-color="#10F1D3"/>
</linearGradient>
<linearGradient id="paint6_linear_49_494" x1="449.171" y1="197.806" x2="546.288" y2="163.835" gradientUnits="userSpaceOnUse">
<stop stop-color="#7B73FF"/>
<stop offset="1" stop-color="#756DFF"/>
</linearGradient>
<linearGradient id="paint7_linear_49_494" x1="222.752" y1="164.489" x2="227.989" y2="69.1101" gradientUnits="userSpaceOnUse">
<stop offset="0.184024" stop-color="#006D5E"/>
<stop offset="1" stop-color="#10F1D3"/>
</linearGradient>
<linearGradient id="paint8_linear_49_494" x1="351.552" y1="324.118" x2="351.552" y2="339.583" gradientUnits="userSpaceOnUse">
<stop stop-color="#FCAFAF"/>
<stop offset="1" stop-color="white"/>
</linearGradient>
<linearGradient id="paint9_linear_49_494" x1="324.996" y1="233.091" x2="368.056" y2="210.962" gradientUnits="userSpaceOnUse">
<stop stop-color="#275D92"/>
<stop offset="1" stop-color="#4193E3"/>
</linearGradient>
<linearGradient id="paint10_linear_49_494" x1="342.131" y1="292.463" x2="374.41" y2="291.055" gradientUnits="userSpaceOnUse">
<stop stop-color="#275D92"/>
<stop offset="1" stop-color="#4193E3"/>
</linearGradient>
<linearGradient id="paint11_linear_49_494" x1="372.679" y1="337.002" x2="336.573" y2="348.027" gradientUnits="userSpaceOnUse">
<stop stop-color="white"/>
<stop offset="1" stop-color="#CCDAE7"/>
</linearGradient>
<linearGradient id="paint12_linear_49_494" x1="300.076" y1="336.013" x2="300.076" y2="352.709" gradientUnits="userSpaceOnUse">
<stop stop-color="#F8A3A3"/>
<stop offset="1" stop-color="white"/>
</linearGradient>
<linearGradient id="paint13_linear_49_494" x1="298.261" y1="232.264" x2="330.233" y2="250.731" gradientUnits="userSpaceOnUse">
<stop stop-color="#275D92"/>
<stop offset="1" stop-color="#4193E3"/>
</linearGradient>
<linearGradient id="paint14_linear_49_494" x1="287.511" y1="307.51" x2="327.457" y2="299.144" gradientUnits="userSpaceOnUse">
<stop stop-color="#275D92"/>
<stop offset="1" stop-color="#4193E3"/>
</linearGradient>
<linearGradient id="paint15_linear_49_494" x1="321.033" y1="349.642" x2="283.716" y2="359.823" gradientUnits="userSpaceOnUse">
<stop stop-color="white"/>
<stop offset="1" stop-color="#CCDAE7"/>
</linearGradient>
<linearGradient id="paint16_linear_49_494" x1="325.778" y1="67.9237" x2="325.778" y2="96.0474" gradientUnits="userSpaceOnUse">
<stop offset="0.217545" stop-color="white"/>
<stop offset="0.782591" stop-color="#FFC2C2"/>
</linearGradient>
<linearGradient id="paint17_linear_49_494" x1="345.117" y1="36.295" x2="313.696" y2="78.19" gradientUnits="userSpaceOnUse">
<stop stop-color="white"/>
<stop offset="0.777119" stop-color="#FFC2C2"/>
</linearGradient>
<linearGradient id="paint18_linear_49_494" x1="322.473" y1="36.0995" x2="322.473" y2="59.749" gradientUnits="userSpaceOnUse">
<stop stop-color="#FE9696"/>
<stop offset="1" stop-color="#FFCECE"/>
</linearGradient>
<linearGradient id="paint19_linear_49_494" x1="307.478" y1="58.1252" x2="315.459" y2="67.2668" gradientUnits="userSpaceOnUse">
<stop stop-color="white"/>
<stop offset="1" stop-color="#FFC2C2"/>
</linearGradient>
<linearGradient id="paint20_linear_49_494" x1="340.431" y1="31.3339" x2="301.568" y2="52.557" gradientUnits="userSpaceOnUse">
<stop stop-color="#EE5252"/>
<stop offset="1" stop-color="#FF9A9A"/>
</linearGradient>
<linearGradient id="paint21_linear_49_494" x1="283.377" y1="130.834" x2="371.577" y2="128.078" gradientUnits="userSpaceOnUse">
<stop stop-color="#F24F4F"/>
<stop offset="1" stop-color="#F48080"/>
</linearGradient>
<linearGradient id="paint22_linear_49_494" x1="339.605" y1="143.789" x2="296.883" y2="181.549" gradientUnits="userSpaceOnUse">
<stop stop-color="#EA4B4B"/>
<stop offset="1" stop-color="#F05757"/>
</linearGradient>
<linearGradient id="paint23_linear_49_494" x1="319.853" y1="83.744" x2="319.853" y2="137.575" gradientUnits="userSpaceOnUse">
<stop stop-color="#313D56"/>
<stop offset="1" stop-color="#225ACD"/>
</linearGradient>
<linearGradient id="paint24_linear_49_494" x1="352.671" y1="83.2852" x2="352.671" y2="129.121" gradientUnits="userSpaceOnUse">
<stop stop-color="#313D56"/>
<stop offset="1" stop-color="#225ACD"/>
</linearGradient>
<linearGradient id="paint25_linear_49_494" x1="354.198" y1="111.652" x2="354.198" y2="134.911" gradientUnits="userSpaceOnUse">
<stop stop-color="#394963"/>
<stop offset="1" stop-color="#235098"/>
</linearGradient>
<linearGradient id="paint26_linear_49_494" x1="324.17" y1="121.187" x2="339.605" y2="132.764" gradientUnits="userSpaceOnUse">
<stop stop-color="#394963"/>
<stop offset="1" stop-color="#234B8E"/>
</linearGradient>
<linearGradient id="paint27_linear_49_494" x1="333.693" y1="178.332" x2="389.026" y2="171.349" gradientUnits="userSpaceOnUse">
<stop stop-color="#618BCE"/>
<stop offset="1" stop-color="#2B384E"/>
</linearGradient>
<linearGradient id="paint28_linear_49_494" x1="333.693" y1="174.547" x2="382.096" y2="162.385" gradientUnits="userSpaceOnUse">
<stop stop-color="#FFE2BE"/>
<stop offset="1" stop-color="#EB9A35"/>
</linearGradient>
<linearGradient id="paint29_linear_49_494" x1="378.743" y1="173.281" x2="444.066" y2="164.736" gradientUnits="userSpaceOnUse">
<stop stop-color="#2B384E"/>
<stop offset="1" stop-color="#618BCE"/>
</linearGradient>
<linearGradient id="paint30_linear_49_494" x1="378.743" y1="168.044" x2="436.073" y2="154.538" gradientUnits="userSpaceOnUse">
<stop stop-color="#F9A43C"/>
<stop offset="1" stop-color="#FFE2BE"/>
</linearGradient>
<linearGradient id="paint31_linear_49_494" x1="311.491" y1="109.06" x2="283.377" y2="163.358" gradientUnits="userSpaceOnUse">
<stop stop-color="white"/>
<stop offset="0.751658" stop-color="#FFC2C2"/>
</linearGradient>
<linearGradient id="paint32_linear_49_494" x1="337.675" y1="183.203" x2="283.377" y2="149.852" gradientUnits="userSpaceOnUse">
<stop stop-color="white"/>
<stop offset="1" stop-color="#FFC2C2"/>
</linearGradient>
<linearGradient id="paint33_linear_49_494" x1="336.848" y1="183.754" x2="360.001" y2="170.8" gradientUnits="userSpaceOnUse">
<stop stop-color="#D7E2EE"/>
<stop offset="1" stop-color="white"/>
</linearGradient>
<linearGradient id="paint34_linear_49_494" x1="275.53" y1="113.923" x2="325.85" y2="112.064" gradientUnits="userSpaceOnUse">
<stop offset="0.188191" stop-color="#FA6464"/>
<stop offset="1" stop-color="#C42727"/>
</linearGradient>
<linearGradient id="paint35_linear_49_494" x1="456.208" y1="230.886" x2="456.208" y2="369.878" gradientUnits="userSpaceOnUse">
<stop stop-color="white"/>
<stop offset="0.163135" stop-color="#C3B9FF"/>
</linearGradient>
<linearGradient id="paint36_linear_49_494" x1="452.61" y1="256.244" x2="469.699" y2="260.654" gradientUnits="userSpaceOnUse">
<stop stop-color="#EA2A48"/>
<stop offset="1" stop-color="#FF7C91"/>
</linearGradient>
<linearGradient id="paint37_linear_49_494" x1="427.528" y1="310.542" x2="443.79" y2="313.298" gradientUnits="userSpaceOnUse">
<stop stop-color="#EA2A48"/>
<stop offset="1" stop-color="#FF7C91"/>
</linearGradient>
<linearGradient id="paint38_linear_49_494" x1="469.974" y1="313.574" x2="489.544" y2="314.676" gradientUnits="userSpaceOnUse">
<stop stop-color="#EA2A48"/>
<stop offset="1" stop-color="#FF7C91"/>
</linearGradient>
<clipPath id="clip0_49_494">
<rect width="720" height="400" fill="white"/>
</clipPath>
</defs>
</svg>
