<svg width="720" height="400" viewBox="0 0 720 400" fill="none" xmlns="http://www.w3.org/2000/svg">
<rect width="720" height="400" fill="url(#paint0_radial_326_301)"/>
<path d="M577.389 316.663C577.389 332.866 480.15 346 360.197 346C240.244 346 143 332.866 143 316.663C143 300.459 240.244 287.326 360.197 287.326C480.15 287.326 577.389 300.459 577.389 316.663Z" fill="url(#paint1_linear_326_301)"/>
<path d="M360.194 334.729C306.74 334.729 255.397 332.085 215.625 327.275C200.214 325.408 186.914 323.274 176.108 320.936C174.351 320.553 173.221 318.88 173.221 316.663C173.221 314.446 174.329 312.784 176.108 312.391C186.903 310.057 200.197 307.924 215.625 306.056C255.402 301.252 306.745 298.603 360.194 298.603C413.643 298.603 464.985 301.252 504.763 306.056C520.191 307.924 533.491 310.057 544.28 312.391C546.031 312.773 547.167 314.446 547.167 316.663C547.167 318.88 546.059 320.542 544.28 320.936C533.48 323.274 520.185 325.408 504.763 327.27C464.991 332.08 413.648 334.729 360.194 334.729ZM180.918 316.663C190.854 318.664 202.708 320.503 216.229 322.138C255.807 326.921 306.934 329.558 360.194 329.558C413.454 329.558 464.581 326.921 504.153 322.138C517.68 320.503 529.534 318.664 539.47 316.663C529.539 314.663 517.686 312.828 504.153 311.188C464.575 306.406 413.449 303.773 360.194 303.773C306.939 303.773 255.813 306.406 216.229 311.188C202.702 312.828 190.848 314.663 180.918 316.663Z" fill="#E3FFFB" fill-opacity="0.78"/>
<path fill-rule="evenodd" clip-rule="evenodd" d="M203.727 55H328.34V301.091H203.727V55ZM274.775 157.985V188.126H278.178V157.985H274.775ZM253.889 157.985V188.126H257.297V157.985H253.889ZM264.329 55.5819V300.52H267.732V55.5819H264.329ZM332.796 55H457.409V301.091H332.796V55ZM403.844 157.985V188.126H407.247V157.985H403.844ZM382.958 157.985V188.126H386.361V157.985H382.958ZM393.399 55.5819V300.52H396.807V55.5819H393.399Z" fill="white" fill-opacity="0.16"/>
<path d="M237.744 326.419C237.356 326.427 236.977 326.299 236.674 326.057C236.37 325.815 236.161 325.475 236.082 325.095L209.482 202.997C209.387 202.561 209.469 202.105 209.711 201.73C209.952 201.355 210.332 201.091 210.768 200.996C211.204 200.901 211.659 200.984 212.034 201.225C212.409 201.466 212.673 201.846 212.768 202.282L239.368 324.38C239.418 324.595 239.424 324.819 239.386 325.037C239.348 325.254 239.267 325.463 239.148 325.649C239.029 325.835 238.874 325.996 238.692 326.121C238.51 326.247 238.304 326.335 238.088 326.38C237.975 326.403 237.86 326.416 237.744 326.419ZM150.641 326.419C150.522 326.417 150.404 326.404 150.287 326.38C150.07 326.336 149.864 326.248 149.681 326.123C149.498 325.998 149.343 325.837 149.223 325.651C149.103 325.464 149.022 325.256 148.984 325.038C148.946 324.819 148.952 324.596 149.001 324.38L175.468 202.465C175.515 202.249 175.604 202.045 175.729 201.864C175.855 201.683 176.015 201.529 176.201 201.41C176.386 201.29 176.594 201.209 176.811 201.17C177.028 201.131 177.25 201.135 177.466 201.182C177.681 201.229 177.885 201.318 178.066 201.444C178.247 201.569 178.402 201.73 178.521 201.915C178.64 202.101 178.721 202.308 178.76 202.525C178.799 202.742 178.795 202.964 178.748 203.18L152.282 325.072C152.208 325.453 152.004 325.796 151.704 326.042C151.405 326.287 151.029 326.421 150.641 326.419Z" fill="url(#paint2_linear_326_301)"/>
<path d="M241.936 284.531H146.149V281.167H241.936V284.531Z" fill="url(#paint3_linear_326_301)"/>
<path d="M232.967 248.189H155.107V244.825H232.967V248.189Z" fill="url(#paint4_linear_326_301)"/>
<path d="M220.189 204.078H167.882V200.714H220.189V204.078Z" fill="url(#paint5_linear_326_301)"/>
<path fill-rule="evenodd" clip-rule="evenodd" d="M217.085 183.959C217.124 184.286 217.145 184.616 217.146 184.945C217.146 193.313 204.805 200.096 189.582 200.096C174.359 200.096 162.023 193.313 162.023 184.945C162.025 184.616 162.044 184.287 162.079 183.959H217.085Z" fill="#C3B4AE"/>
<path fill-rule="evenodd" clip-rule="evenodd" d="M217.085 183.959C217.124 184.286 217.145 184.616 217.146 184.945C217.146 193.313 204.805 200.096 189.582 200.096C174.359 200.096 162.023 193.313 162.023 184.945C162.025 184.616 162.044 184.287 162.079 183.959H217.085Z" fill="#C3B4AE"/>
<path fill-rule="evenodd" clip-rule="evenodd" d="M217.085 183.959C217.124 184.286 217.145 184.616 217.146 184.945C217.146 193.313 204.805 200.096 189.582 200.096C174.359 200.096 162.023 193.313 162.023 184.945C162.025 184.616 162.044 184.287 162.079 183.959H217.085Z" fill="#C3B4AE"/>
<path fill-rule="evenodd" clip-rule="evenodd" d="M217.354 184.12C217.394 184.447 217.414 184.776 217.415 185.106C217.415 193.474 205.074 200.257 189.851 200.257C174.629 200.257 162.293 193.474 162.293 185.106C162.295 184.776 162.313 184.447 162.348 184.12H217.354Z" fill="url(#paint6_linear_326_301)"/>
<path fill-rule="evenodd" clip-rule="evenodd" d="M168.076 197.208H211.079C211.755 197.208 211.811 197.829 211.201 198.588L210.93 198.932C210.353 199.675 209.515 200.169 208.585 200.312H170.581C169.658 200.174 168.822 199.691 168.243 198.96L167.966 198.616C167.356 197.851 167.411 197.208 168.076 197.208Z" fill="url(#paint7_linear_326_301)"/>
<path fill-rule="evenodd" clip-rule="evenodd" d="M168.076 197.208H211.079C211.755 197.208 211.811 197.829 211.201 198.588L210.93 198.932C210.353 199.675 209.515 200.169 208.585 200.312H170.581C169.658 200.174 168.822 199.691 168.243 198.96L167.966 198.616C167.356 197.851 167.411 197.208 168.076 197.208Z" fill="url(#paint8_linear_326_301)"/>
<path fill-rule="evenodd" clip-rule="evenodd" d="M168.076 197.208H211.079C211.755 197.208 211.811 197.829 211.201 198.588L210.93 198.932C210.353 199.675 209.515 200.169 208.585 200.312H170.581C169.658 200.174 168.822 199.691 168.243 198.96L167.966 198.616C167.356 197.851 167.411 197.208 168.076 197.208Z" fill="url(#paint9_linear_326_301)"/>
<path fill-rule="evenodd" clip-rule="evenodd" d="M168.076 197.208H211.079C211.755 197.208 211.811 197.829 211.201 198.588L210.93 198.932C210.353 199.675 209.515 200.169 208.585 200.312H170.581C169.658 200.174 168.822 199.691 168.243 198.96L167.966 198.616C167.356 197.851 167.411 197.208 168.076 197.208Z" fill="url(#paint10_linear_326_301)"/>
<path fill-rule="evenodd" clip-rule="evenodd" d="M179.159 198.96C169.096 196.699 162.008 191.268 162.008 184.923C162.01 184.593 162.028 184.264 162.063 183.937H196.249C196.289 184.264 196.309 184.593 196.31 184.923C196.338 191.29 189.239 196.743 179.159 198.96Z" fill="url(#paint11_linear_326_301)"/>
<path fill-rule="evenodd" clip-rule="evenodd" d="M179.159 198.96C169.096 196.699 162.008 191.268 162.008 184.923C162.01 184.593 162.028 184.264 162.063 183.937H196.249C196.289 184.264 196.309 184.593 196.31 184.923C196.338 191.29 189.239 196.743 179.159 198.96Z" fill="url(#paint12_linear_326_301)"/>
<path fill-rule="evenodd" clip-rule="evenodd" d="M179.159 198.96C169.096 196.699 162.008 191.268 162.008 184.923C162.01 184.593 162.028 184.264 162.063 183.937H196.249C196.289 184.264 196.309 184.593 196.31 184.923C196.338 191.29 189.239 196.743 179.159 198.96Z" fill="url(#paint13_linear_326_301)"/>
<path fill-rule="evenodd" clip-rule="evenodd" d="M179.159 198.96C169.096 196.699 162.008 191.268 162.008 184.923C162.01 184.593 162.028 184.264 162.063 183.937H196.249C196.289 184.264 196.309 184.593 196.31 184.923C196.338 191.29 189.239 196.743 179.159 198.96Z" fill="url(#paint14_linear_326_301)"/>
<path fill-rule="evenodd" clip-rule="evenodd" d="M179.159 198.96C169.096 196.699 162.008 191.268 162.008 184.923C162.01 184.593 162.028 184.264 162.063 183.937H196.249C196.289 184.264 196.309 184.593 196.31 184.923C196.338 191.29 189.239 196.743 179.159 198.96Z" fill="url(#paint15_linear_326_301)"/>
<path fill-rule="evenodd" clip-rule="evenodd" d="M179.159 198.96C169.096 196.699 162.008 191.268 162.008 184.923C162.01 184.593 162.028 184.264 162.063 183.937H196.249C196.289 184.264 196.309 184.593 196.31 184.923C196.338 191.29 189.239 196.743 179.159 198.96Z" fill="url(#paint16_linear_326_301)"/>
<path fill-rule="evenodd" clip-rule="evenodd" d="M179.159 198.96C169.096 196.699 162.008 191.268 162.008 184.923C162.01 184.593 162.028 184.264 162.063 183.937H196.249C196.289 184.264 196.309 184.593 196.31 184.923C196.338 191.29 189.239 196.743 179.159 198.96Z" fill="url(#paint17_linear_326_301)"/>
<path fill-rule="evenodd" clip-rule="evenodd" d="M168.076 197.208H211.079C211.755 197.208 211.811 197.829 211.201 198.588L210.93 198.932C210.353 199.675 209.515 200.169 208.585 200.312H170.581C169.658 200.174 168.822 199.691 168.243 198.96L167.966 198.616C167.356 197.851 167.411 197.208 168.076 197.208Z" fill="url(#paint18_linear_326_301)"/>
<path fill-rule="evenodd" clip-rule="evenodd" d="M179.159 198.96C169.096 196.699 162.008 191.268 162.008 184.923C162.01 184.593 162.028 184.264 162.063 183.937H196.249C196.289 184.264 196.309 184.593 196.31 184.923C196.338 191.29 189.239 196.743 179.159 198.96Z" fill="url(#paint19_linear_326_301)"/>
<path d="M208.624 264.234H227.654C227.654 264.234 228.152 273.018 223.176 279.812C221.874 281.591 220.2 281.441 218.039 281.441C215.878 281.441 214.21 281.591 212.918 279.806C207.975 273.012 208.624 264.234 208.624 264.234Z" fill="url(#paint20_linear_326_301)"/>
<path d="M208.624 264.234H227.654C227.654 264.234 228.152 273.018 223.176 279.812C221.874 281.591 220.2 281.441 218.039 281.441C215.878 281.441 214.21 281.591 212.918 279.806C207.975 273.012 208.624 264.234 208.624 264.234Z" fill="url(#paint21_linear_326_301)"/>
<path d="M208.624 264.234H227.654C227.654 264.234 228.152 273.018 223.176 279.812C221.874 281.591 220.2 281.441 218.039 281.441C215.878 281.441 214.21 281.591 212.918 279.806C207.975 273.012 208.624 264.234 208.624 264.234Z" fill="url(#paint22_linear_326_301)"/>
<path d="M208.624 264.234H227.654C227.654 264.234 228.152 273.018 223.176 279.812C221.874 281.591 220.2 281.441 218.039 281.441C215.878 281.441 214.21 281.591 212.918 279.806C207.975 273.012 208.624 264.234 208.624 264.234Z" fill="url(#paint23_linear_326_301)"/>
<path fill-rule="evenodd" clip-rule="evenodd" d="M168.076 197.208H211.079C211.755 197.208 211.811 197.829 211.201 198.588L210.93 198.932C210.353 199.675 209.515 200.169 208.585 200.312H170.581C169.658 200.174 168.822 199.691 168.243 198.96L167.966 198.616C167.356 197.851 167.411 197.208 168.076 197.208Z" fill="url(#paint24_linear_326_301)"/>
<path fill-rule="evenodd" clip-rule="evenodd" d="M166.414 183.958C165.785 183.502 165.111 183.112 164.403 182.794C160.524 181.038 164.453 173.612 168.836 178.173C169.667 179.037 170.41 180.062 171.053 180.694C172.715 182.262 173.546 181.298 173.031 179.514C171.767 175.119 172.831 176.887 174.904 178.827C176.179 180.024 177.531 180.445 176.012 174.216C175.641 172.659 174.644 170.935 173.834 169.118C169.019 158.256 185.472 149.656 185.472 165.388C185.472 167.71 184.303 181.376 189.7 179.436C192.521 178.428 192.05 175.474 191.429 172.448C188.78 159.536 200.345 163.582 196.261 171.8C193.208 177.957 197.126 181.221 199.481 176.438C199.916 175.461 200.106 174.392 200.035 173.324C200.007 169.522 203.914 168.951 204.618 171.994C205 173.712 204.025 176.543 203.31 177.258C201.565 179.009 206.591 181.137 206.541 175.923C206.425 164.158 211.9 166.469 212.825 170.935C213.274 173.124 210.775 176.521 209.617 177.729C206.48 180.999 209.871 184.346 212.11 178.09C213.219 175.019 216.183 176.804 216.422 179.198C216.56 180.55 214.665 182.379 213.933 182.944C213.507 183.271 213.058 183.603 212.592 183.941L166.414 183.958Z" fill="url(#paint25_linear_326_301)"/>
<path fill-rule="evenodd" clip-rule="evenodd" d="M166.414 183.958C165.785 183.502 165.111 183.112 164.403 182.794C160.524 181.038 164.453 173.612 168.836 178.173C169.667 179.037 170.41 180.062 171.053 180.694C172.715 182.262 173.546 181.298 173.031 179.514C171.767 175.119 172.831 176.887 174.904 178.827C176.179 180.024 177.531 180.445 176.012 174.216C175.641 172.659 174.644 170.935 173.834 169.118C169.019 158.256 185.472 149.656 185.472 165.388C185.472 167.705 184.308 181.281 189.645 179.453C189.424 180.978 189.085 182.485 188.631 183.958H166.414Z" fill="url(#paint26_linear_326_301)"/>
<path d="M356.162 248.074H313.347C309.23 248.074 305.794 244.999 305.672 241.175L303.561 174.936C303.526 173.885 303.704 172.837 304.084 171.856C304.465 170.874 305.04 169.981 305.776 169.228C306.511 168.475 307.391 167.879 308.363 167.475C309.334 167.071 310.378 166.868 311.43 166.879H358.079C359.131 166.868 360.175 167.071 361.147 167.475C362.118 167.879 362.999 168.475 363.734 169.228C364.469 169.981 365.044 170.874 365.425 171.856C365.805 172.837 365.983 173.885 365.948 174.936L363.842 241.175C363.721 244.999 360.279 248.074 356.162 248.074ZM309.563 314.54H307.163L306.437 250.402H310.294L309.563 314.54ZM360.49 314.54H362.895L363.621 250.402H359.764L360.49 314.54Z" fill="url(#paint27_linear_326_301)"/>
<path d="M364.889 250.402H306.015C305.419 250.402 304.828 250.285 304.277 250.056C303.726 249.828 303.225 249.493 302.804 249.071C302.382 248.649 302.048 248.148 301.82 247.597C301.593 247.046 301.476 246.455 301.477 245.858C301.477 244.655 301.955 243.5 302.806 242.649C303.657 241.798 304.811 241.32 306.015 241.32H364.889C366.093 241.32 367.247 241.798 368.098 242.649C368.949 243.5 369.428 244.655 369.428 245.858C369.428 246.455 369.311 247.046 369.084 247.597C368.856 248.148 368.522 248.649 368.1 249.071C367.679 249.493 367.178 249.828 366.627 250.056C366.076 250.285 365.485 250.402 364.889 250.402Z" fill="url(#paint28_linear_326_301)"/>
<path d="M418.223 217.468H248.174C246.628 217.468 245.375 218.721 245.375 220.267V221.059C245.375 222.605 246.628 223.858 248.174 223.858H418.223C419.768 223.858 421.021 222.605 421.021 221.059V220.267C421.021 218.721 419.768 217.468 418.223 217.468Z" fill="url(#paint29_linear_326_301)"/>
<path d="M426.935 221.17H241.025C240.047 221.164 239.112 220.772 238.422 220.078C237.733 219.385 237.346 218.447 237.346 217.469C237.346 216.487 237.736 215.545 238.43 214.851C239.124 214.157 240.066 213.767 241.047 213.767H426.935C427.915 213.768 428.856 214.159 429.549 214.853C430.242 215.547 430.631 216.488 430.631 217.469C430.631 218.449 430.242 219.39 429.549 220.084C428.856 220.778 427.915 221.169 426.935 221.17Z" fill="url(#paint30_linear_326_301)"/>
<path d="M426.934 213.767H350.521C354.955 216.127 359.538 218.361 364.259 220.461C364.736 220.688 365.212 220.926 365.689 221.17H426.934C427.916 221.17 428.858 220.78 429.552 220.086C430.246 219.392 430.636 218.45 430.636 217.468C430.636 216.487 430.246 215.545 429.552 214.851C428.858 214.157 427.916 213.767 426.934 213.767Z" fill="#E9E1E0" fill-opacity="0.05"/>
<path d="M257.388 318.392H255.664L253.32 223.858H259.732L257.388 318.392ZM412.685 318.392H410.968L408.623 223.858H415.029L412.685 318.392Z" fill="#B5AAA7"/>
<path style="mix-blend-mode:screen" d="M303.652 155.857L322.953 162.39L301.84 205.886L274.73 165.843L303.652 155.857Z" fill="url(#paint31_linear_326_301)"/>
<path d="M275.528 209.821L262.129 166.902C262.129 166.902 296.381 145.617 304.943 155.564L266.612 169.224L282.317 209.821H275.528Z" fill="url(#paint32_linear_326_301)"/>
<path d="M299.411 154.688L269.342 164.662C268.134 163.992 288.566 154.859 292.323 154.228C297.244 153.391 299.411 154.688 299.411 154.688Z" fill="white"/>
<path d="M265.362 172.582L278.75 210.359L275.525 209.827L263.771 172.178L265.362 172.582Z" fill="url(#paint33_linear_326_301)"/>
<path d="M292.362 213.766H266.389C266.116 213.767 265.846 213.714 265.594 213.61C265.342 213.506 265.113 213.354 264.92 213.161C264.726 212.969 264.573 212.74 264.469 212.488C264.364 212.236 264.311 211.966 264.311 211.694C264.311 211.143 264.529 210.614 264.919 210.224C265.309 209.835 265.837 209.616 266.389 209.616H292.362C292.912 209.62 293.438 209.843 293.825 210.234C294.211 210.626 294.426 211.155 294.424 211.705C294.421 212.251 294.203 212.773 293.817 213.159C293.431 213.545 292.908 213.763 292.362 213.766Z" fill="#5E5E5E"/>
<path d="M266.879 172.269C268.903 171.436 269.867 169.12 269.034 167.097C268.2 165.073 265.884 164.109 263.861 164.942C261.837 165.776 260.873 168.092 261.707 170.115C262.54 172.139 264.856 173.103 266.879 172.269Z" fill="#5E5E5E"/>
<path d="M267.652 168.62C267.652 169.072 267.517 169.515 267.266 169.891C267.014 170.268 266.657 170.561 266.239 170.734C265.821 170.907 265.36 170.953 264.916 170.864C264.472 170.776 264.065 170.558 263.745 170.238C263.424 169.918 263.207 169.51 263.118 169.066C263.03 168.622 263.075 168.162 263.248 167.744C263.422 167.326 263.715 166.968 264.091 166.717C264.468 166.465 264.91 166.331 265.363 166.331C265.97 166.331 266.552 166.572 266.981 167.001C267.41 167.431 267.652 168.013 267.652 168.62Z" fill="#CAC4BE"/>
<path d="M213.515 233.278C211.265 227.327 211.769 217.668 213.803 214.038C215.582 221.552 221.561 243.553 221.173 250.413C216.618 247.288 213.515 233.278 213.515 233.278Z" fill="url(#paint34_linear_326_301)"/>
<path d="M217.95 245.182C216.043 238.92 221.18 223.292 221.674 219.136C224.339 225.559 220.959 241.968 222.067 247.077C220.294 250.551 218.986 247.077 218.986 247.077L217.95 245.182Z" fill="url(#paint35_linear_326_301)"/>
<path d="M220.129 251.001C220.944 241.685 226.169 223.57 239.724 218.56C235.806 225.764 231.777 232.658 229.106 235.927C226.435 239.197 222.274 249.737 222.274 249.737L220.129 251.001Z" fill="url(#paint36_linear_326_301)"/>
<path d="M208.584 233.905C205.22 226.274 202.25 221.37 197.928 216.942C204.705 217.674 208.49 220.866 211.965 224.989C215.439 229.112 221.84 242.993 221.524 251.849C217.606 256.349 216.736 255.174 216.736 255.174C216.736 255.174 211.948 241.536 208.584 233.905Z" fill="url(#paint37_linear_326_301)"/>
<path d="M217.362 254.47C217.833 246.712 209.504 230.641 196.221 232.304C206.312 242.046 213.267 252.713 216.22 261.58C217.334 260.045 217.362 254.47 217.362 254.47Z" fill="url(#paint38_linear_326_301)"/>
<path d="M216.477 260.792C215.058 255.129 219.586 242.599 232.326 241.69C233.689 247.487 230.054 252.219 226.025 254.913C221.996 257.606 218.51 259.412 218.111 261.479C217.53 261.773 216.477 260.792 216.477 260.792Z" fill="url(#paint39_linear_326_301)"/>
<path d="M207.503 260.471H229.033C229.11 260.471 229.187 260.488 229.257 260.521C229.327 260.555 229.388 260.604 229.436 260.665C229.485 260.726 229.518 260.797 229.535 260.873C229.551 260.949 229.55 261.028 229.531 261.103L228.711 264.517C228.685 264.629 228.621 264.729 228.531 264.801C228.44 264.872 228.328 264.911 228.212 264.91H208.318C208.203 264.911 208.091 264.872 208 264.801C207.909 264.729 207.846 264.629 207.819 264.517L206.999 261.103C206.98 261.027 206.979 260.948 206.996 260.872C207.013 260.795 207.047 260.724 207.096 260.663C207.144 260.602 207.207 260.553 207.277 260.52C207.348 260.486 207.425 260.47 207.503 260.471Z" fill="url(#paint40_linear_326_301)"/>
<path d="M208.624 264.234H227.654C227.654 264.234 228.152 273.018 223.176 279.812C221.874 281.591 220.2 281.441 218.039 281.441C215.878 281.441 214.21 281.591 212.918 279.806C207.975 273.012 208.624 264.234 208.624 264.234Z" fill="url(#paint41_linear_326_301)"/>
<path d="M210.851 264.506L210.031 261.092C210.012 261.017 210.011 260.938 210.028 260.862C210.044 260.786 210.078 260.715 210.126 260.654C210.174 260.593 210.235 260.544 210.305 260.511C210.375 260.477 210.452 260.46 210.529 260.46H207.504C207.426 260.46 207.349 260.477 207.279 260.511C207.209 260.544 207.148 260.593 207.1 260.654C207.052 260.715 207.018 260.786 207.002 260.862C206.985 260.938 206.986 261.017 207.005 261.092L207.825 264.506C207.852 264.618 207.915 264.718 208.006 264.79C208.096 264.861 208.209 264.9 208.324 264.899H211.35C211.234 264.9 211.122 264.861 211.031 264.79C210.941 264.718 210.877 264.618 210.851 264.506Z" fill="url(#paint42_linear_326_301)"/>
<path d="M215.944 279.806C211.023 273.012 211.649 264.234 211.649 264.234H208.623C208.623 264.234 207.997 273.012 212.918 279.806C214.209 281.591 215.877 281.441 218.039 281.441H219.557C218.105 281.397 216.919 281.153 215.944 279.806Z" fill="url(#paint43_linear_326_301)"/>
<path d="M208.654 266.96H227.474L227.651 264.899H208.621L208.654 266.96Z" fill="url(#paint44_linear_326_301)"/>
<path d="M228.258 260.471C228.558 259.302 227.222 257.468 223.482 257.767C221.227 258.009 218.951 257.976 216.704 257.667C214.864 257.468 212.271 258.571 210.027 258.504C207.782 258.438 206.552 259.269 207.505 260.471H228.258Z" fill="url(#paint45_linear_326_301)"/>
<path fill-rule="evenodd" clip-rule="evenodd" d="M424.329 321.102C420.017 320.836 412.813 322.022 408.502 321.75C428.801 314.712 432.68 249.25 434.06 234.226C435.828 214.98 436.387 200.844 442.549 197.098C455.007 189.572 474.513 212.548 462.289 237.551C457.695 246.972 451.266 253.977 452.153 259.357C455.29 278.343 439.607 297.002 427.77 311.947C425.204 315.267 430.485 321.811 424.329 321.102Z" fill="#FEBEA0"/>
<path fill-rule="evenodd" clip-rule="evenodd" d="M468.429 321.584H456.431C457.672 317.959 458.481 314.2 458.842 310.385C460.504 294.974 459.784 276.67 457.822 259.496L457.772 259.081L457.678 258.255L457.628 257.845L457.379 255.806L457.329 255.401L457.224 254.587L457.168 254.182L456.902 252.159L456.847 251.755L456.791 251.356L456.736 250.957L456.675 250.558L456.62 250.159L456.564 249.76L456.503 249.366L456.448 248.967L456.392 248.574L456.331 248.18L456.215 247.427V247.394L456.154 247L456.093 246.618L456.032 246.23L455.971 245.836L455.916 245.487V245.448L455.855 245.061L455.794 244.673L455.722 244.235L455.605 243.52V243.387L455.561 243.132L455.5 242.75L455.434 242.367V242.256L455.389 241.99L455.323 241.608L455.256 241.231V241.137L455.206 240.849L455.079 240.101V240.023L455.029 239.724L454.896 238.976V238.915L454.708 237.89V237.84L454.514 236.792V236.759L454.331 235.789V235.584L454.148 234.637C454.009 233.927 453.882 233.229 453.76 232.537C450.496 214.294 452.912 204.33 457.429 200.501C463.951 192.221 475.256 195.214 480.975 206.042C484.483 212.692 482.399 225.992 480.759 236.211L480.687 236.659L480.609 237.108L480.526 237.557L480.443 237.995L480.36 238.433L480.271 238.871L480.182 239.303L480.088 239.73L479.994 240.156L479.9 240.577L479.8 240.993L479.7 241.409L479.601 241.819L479.501 242.229L479.401 242.633L479.296 243.038L479.196 243.437L479.091 243.83L478.991 244.224L478.886 244.612L478.786 244.994L478.686 245.376L478.586 245.759L478.487 246.136L478.387 246.507L478.293 246.878L478.199 247.244L478.104 247.61L478.016 247.97L477.927 248.325L477.844 248.679L477.761 249.028L477.678 249.377L477.6 249.721L477.528 250.065L477.456 250.403L477.389 250.735L477.323 251.068L477.268 251.395L477.212 251.722L477.162 252.043L477.112 252.364L477.074 252.68L477.035 252.991V253.301L477.007 253.611V255.95C477.007 256.044 477.007 256.133 477.035 256.227C477.035 256.321 477.035 256.41 477.074 256.504C477.112 256.598 477.101 256.687 477.118 256.775C477.135 256.864 477.157 256.953 477.173 257.047C477.19 257.141 477.212 257.224 477.234 257.313C477.256 257.402 477.279 257.485 477.306 257.573C477.334 257.662 477.356 257.745 477.384 257.834C477.412 257.923 477.439 258.006 477.473 258.089C477.506 258.172 477.534 258.261 477.567 258.344C477.6 258.427 477.633 258.51 477.672 258.593C485.846 277.351 475.805 296.669 469.243 312.319C467.625 315.76 466.988 317.777 468.429 321.584ZM439.856 277.551C432.963 289.033 423.542 308.478 418.205 321.291C414.764 321.546 411.107 321.911 408.502 321.751C420.073 317.689 426.401 294.863 429.859 273.217C433.245 251.965 447.509 264.827 439.856 277.551Z" fill="#FECEB4"/>
<path fill-rule="evenodd" clip-rule="evenodd" d="M467.676 275.356C467.565 279.13 467.265 282.787 467.027 285.963C466.141 297.733 463.542 311.205 461.896 321.584H456.432C457.672 317.958 458.481 314.199 458.842 310.384C460.006 299.606 460 287.42 459.225 275.19C457.972 255.484 468.014 263.436 467.676 275.356Z" fill="#FEDFCD"/>
<path fill-rule="evenodd" clip-rule="evenodd" d="M383.146 134.954C385.667 136.29 385.063 134.832 384.204 133.364C382.891 131.147 382.93 130.527 383.234 130.166C383.622 129.701 384.459 130.238 386.05 132.073C388.006 134.339 390.677 137.614 392.018 140.524C392.406 141.255 390.15 144.242 387.973 145.034C386.354 145.062 379.865 143.483 375.521 141.649C374.922 141.394 371.691 140.141 374.252 140.269C375.36 140.324 376.961 140.269 375.737 139.526C374.379 138.734 372.146 137.454 371.348 136.351C371.301 136.267 371.279 136.171 371.287 136.075C371.294 135.979 371.329 135.887 371.389 135.811C371.448 135.736 371.528 135.679 371.619 135.649C371.711 135.619 371.809 135.616 371.902 135.641C373.121 135.869 375.986 136.999 375.87 136.434C375.781 136.002 373.132 134.167 372.323 133.225C371.941 132.788 372.406 132.355 373.121 132.549C374.601 132.959 377.416 134.938 377.809 134.433C378.363 133.746 376.834 132.294 376.03 131.336C375.382 130.56 375.631 130.177 376.662 130.499C378.846 131.18 380.874 133.73 383.146 134.954Z" fill="url(#paint46_linear_326_301)"/>
<path fill-rule="evenodd" clip-rule="evenodd" d="M387.694 147.079C387.14 145.067 390.071 138.068 391.573 138.129C399.846 139.143 423.249 158.838 437.596 143.837C446.545 134.472 454.442 138.124 458.421 144.364C464.062 153.23 459.585 165.377 453.179 171.346C436.138 187.195 402.102 172.36 387.694 147.079Z" fill="url(#paint47_linear_326_301)"/>
<path fill-rule="evenodd" clip-rule="evenodd" d="M414.678 316.103C422.514 306.644 426.415 287.231 428.022 278.37C429.601 269.676 430.726 260.881 431.629 252.098C432.239 246.113 432.688 240.133 433.237 234.149C433.647 229.682 434.012 225.21 434.445 220.749C434.799 217.069 435.198 213.345 435.847 209.705C436.611 205.349 438.063 198.865 442.136 196.405C443.485 195.581 444.999 195.064 446.57 194.892C454.289 194.05 460.85 201.054 463.904 207.399C468.614 217.169 467.783 228.352 463.089 237.961C460.956 242.317 458.34 246.24 455.935 250.419C454.577 252.785 452.56 256.42 453.026 259.252C456.267 278.847 439.853 298.148 428.498 312.512C428.339 312.712 428.213 312.936 428.127 313.177C427.881 314.025 427.83 314.917 427.978 315.787C427.978 316.059 428.055 316.341 428.099 316.663C426.559 316.635 424.996 316.591 423.422 316.541C420.419 316.441 417.498 316.28 414.678 316.103Z" fill="url(#paint48_linear_326_301)"/>
<path fill-rule="evenodd" clip-rule="evenodd" d="M457.347 198.76C460.081 201.165 462.301 204.098 463.875 207.382C468.585 217.152 467.754 228.335 463.06 237.944C460.927 242.3 458.311 246.223 455.906 250.402C454.548 252.768 452.531 256.403 452.997 259.235C453.64 263.296 453.529 267.44 452.67 271.46C452.648 267.499 452.55 263.543 452.376 259.59C451.96 250.413 451.057 241.751 450.082 232.647C449.167 224.168 448.236 206.418 456.299 199.863C456.637 199.475 456.987 199.109 457.347 198.76Z" fill="#FCBF3E"/>
<path fill-rule="evenodd" clip-rule="evenodd" d="M456.66 199.862C458.664 197.199 461.64 195.436 464.939 194.958C472.215 194.01 478.405 199.602 481.563 205.62C485.443 212.996 482.76 228.268 481.436 236.326L481.358 236.786L481.281 237.24L481.198 237.689L481.115 238.138L481.026 238.581L480.937 239.025L480.849 239.457L480.754 239.889L480.66 240.321L480.56 240.748L480.461 241.169L480.361 241.585L480.261 242.001L480.161 242.416L479.956 243.225L479.646 244.417L479.048 246.705L478.859 247.437L478.676 248.157L478.588 248.512L478.505 248.861L478.421 249.205L478.344 249.548L478.266 249.886L478.194 250.219L478.122 250.551L478.061 250.878L477.995 251.2L477.939 251.521L477.884 251.837L477.851 252.158L477.801 252.469L477.762 252.773L477.729 253.084V255.86L477.762 256.115C477.762 256.198 477.762 256.281 477.795 256.364C477.828 256.447 477.795 256.531 477.834 256.614L477.884 256.858C477.884 256.935 477.923 257.018 477.939 257.096L478.006 257.334L478.072 257.567C478.072 257.644 478.122 257.722 478.15 257.794C478.178 257.866 478.205 257.949 478.239 258.021C478.272 258.093 478.294 258.171 478.327 258.248C480.852 264.129 481.888 270.542 481.342 276.918C480.427 289.536 474.692 301.163 469.909 312.645C469.24 314.031 468.782 315.511 468.552 317.034C464.434 316.928 460.555 316.69 457.064 316.352C457.5 314.355 457.823 312.334 458.034 310.301C459.364 297.971 459.142 285.114 458.25 272.756C457.936 268.364 457.524 263.978 457.014 259.601L456.87 258.376L456.826 257.966L456.576 255.932L456.421 254.713L456.366 254.308L456.1 252.302L455.934 251.105L455.762 249.914L455.59 248.728L455.352 247.149L455.108 245.597L454.914 244.389L454.737 243.281L454.543 242.139L454.349 241.003L454.155 239.895L454.005 239.069L453.811 237.994L453.606 236.886L453.384 235.7L453.196 234.747C453.063 234.043 452.936 233.339 452.808 232.635C451.251 224.168 449.062 206.418 456.66 199.862Z" fill="url(#paint49_linear_326_301)"/>
<path fill-rule="evenodd" clip-rule="evenodd" d="M462.964 115.453C443.752 115.453 436.21 122.009 436.21 134.494C436.21 155.508 438.543 172.581 435.772 196.588C435.218 201.276 434.708 208.336 434.109 215.917C443.502 218.615 474.208 219.136 484.316 216.825C484.455 202.512 484.826 189.372 484.494 187.1C480.504 159.841 506.416 148.636 503.557 141.438C497.516 126.154 482.177 115.453 462.964 115.453Z" fill="url(#paint50_linear_326_301)"/>
<path fill-rule="evenodd" clip-rule="evenodd" d="M444.345 124.559C463.187 124.559 470.823 132.356 472.574 139.682C474.929 149.546 470.202 152.616 466.595 154.339C463.569 155.785 461.485 155.165 463.53 167.938C465.47 180.069 470.38 195.696 471.532 205.693C471.904 208.907 472.264 213.235 472.641 218.084C459.341 218.705 441.009 217.896 434.121 215.917C434.675 208.336 435.229 201.276 435.784 196.588C438.554 172.582 436.221 155.508 436.221 134.495C436.221 130.771 436.892 127.579 438.338 124.93C440.331 124.683 442.337 124.559 444.345 124.559Z" fill="url(#paint51_linear_326_301)"/>
<path fill-rule="evenodd" clip-rule="evenodd" d="M484.633 189.461C484.633 188.353 484.572 187.527 484.511 187.1C480.521 159.841 506.434 148.636 503.574 141.438C499.961 132.436 493.225 125.039 484.6 120.601C474.697 116.622 467.183 121.815 479.175 145.538C494.292 175.463 465.487 174.216 454.675 171.379C452.398 171.185 447.371 178.456 448.48 180.074C452.004 184.612 469.216 190.42 484.633 189.461Z" fill="#0A67B1"/>
<path fill-rule="evenodd" clip-rule="evenodd" d="M484.628 194.887C484.667 190.875 484.628 188.048 484.512 187.129C481.248 164.818 498.005 153.264 502.638 145.86C500.691 142.104 498.336 138.573 495.617 135.331C482.838 120.458 462.788 115.282 479.175 150.194C494.292 182.39 465.487 176.832 454.676 172.36C452.398 171.806 447.361 178.312 448.491 180.118C452.005 185.161 469.217 193.54 484.628 194.887Z" fill="#0A67B1"/>
<path fill-rule="evenodd" clip-rule="evenodd" d="M477.179 163.316H406.125V168.858C406.125 170.437 407.71 171.728 409.655 171.728H473.649C475.594 171.728 477.179 170.437 477.179 168.858V163.316Z" fill="url(#paint52_linear_326_301)"/>
<path fill-rule="evenodd" clip-rule="evenodd" d="M443.419 131.79H397.302C395.229 131.79 393.977 133.374 394.559 135.314L402.611 162.878C402.963 163.881 403.61 164.754 404.468 165.383C405.325 166.012 406.353 166.367 407.415 166.402H453.527C455.605 166.402 456.852 164.817 456.27 162.878L448.224 135.314C447.87 134.311 447.223 133.438 446.366 132.809C445.509 132.181 444.482 131.825 443.419 131.79Z" fill="url(#paint53_linear_326_301)"/>
<path fill-rule="evenodd" clip-rule="evenodd" d="M443.423 131.79H397.389C443.783 142.479 455.021 155.131 435.288 166.408H453.531C455.609 166.408 456.855 164.817 456.274 162.878L448.227 135.314C447.874 134.312 447.226 133.439 446.369 132.81C445.512 132.182 444.485 131.826 443.423 131.79Z" fill="#7525E9" fill-opacity="0.12"/>
<path fill-rule="evenodd" clip-rule="evenodd" d="M468.834 320.32C466.69 320.32 464.54 320.548 462.611 320.625C460.677 320.548 458.527 320.32 456.382 320.32C453.351 320.32 450.891 322.487 450.891 325.158C450.892 325.759 451.018 326.354 451.262 326.904H473.982C474.226 326.354 474.353 325.759 474.354 325.158C474.326 322.504 471.866 320.32 468.834 320.32Z" fill="#81CEC6"/>
<path fill-rule="evenodd" clip-rule="evenodd" d="M473.222 328.356H451.992C451.749 328.354 451.516 328.257 451.343 328.085C451.171 327.912 451.074 327.679 451.072 327.436V326.92H474.142V327.436C474.14 327.679 474.043 327.912 473.871 328.085C473.699 328.257 473.466 328.354 473.222 328.356Z" fill="url(#paint54_linear_326_301)"/>
<path fill-rule="evenodd" clip-rule="evenodd" d="M464.201 325.691C467.535 325.735 470.864 325.951 474.176 326.339C474.282 325.96 474.336 325.569 474.336 325.175C474.336 322.504 471.876 320.337 468.845 320.337C466.7 320.337 464.55 320.565 462.621 320.642C460.687 320.565 458.537 320.337 456.393 320.337C455.982 320.336 455.572 320.375 455.168 320.454C455.129 323.025 456.365 325.691 464.201 325.691ZM408.175 320.792C418.56 320.792 426.163 318.719 427.765 318.719C430.796 318.719 433.251 320.753 433.251 323.263C433.224 324.041 432.99 324.798 432.573 325.456C432.156 326.113 431.571 326.648 430.879 327.004H402.163C401.881 326.495 401.733 325.923 401.73 325.341C401.73 322.831 404.618 320.792 408.175 320.792Z" fill="#5CC2B7"/>
<path fill-rule="evenodd" clip-rule="evenodd" d="M408.175 320.791C418.56 320.791 426.163 318.718 427.765 318.718C428.556 318.715 429.342 318.858 430.081 319.139C424.745 324.055 412.498 325.928 401.847 326.222C401.769 325.938 401.73 325.646 401.73 325.352C401.73 322.83 404.618 320.791 408.175 320.791Z" fill="#81CEC6"/>
<path fill-rule="evenodd" clip-rule="evenodd" d="M403.036 328.356H430.345C430.575 328.356 430.794 328.265 430.957 328.103C431.119 327.94 431.21 327.721 431.21 327.491V327.004H402.172V327.491C402.172 327.721 402.263 327.94 402.425 328.103C402.587 328.265 402.807 328.356 403.036 328.356Z" fill="url(#paint55_linear_326_301)"/>
<path fill-rule="evenodd" clip-rule="evenodd" d="M440.562 166.586C444.175 168.121 443.494 164.663 442.812 163.111C441.759 160.734 441.87 160.146 442.214 159.82C442.646 159.404 443.422 160.036 444.79 162.036C446.32 164.253 448.331 167.423 449.44 170.249C451.219 172.964 452.853 172.914 454.715 172.598C452.798 174.466 451.496 177.896 449.578 179.769C447.362 175.641 442.252 174.566 438.085 172.698C436.43 171.996 434.811 171.21 433.236 170.343C432.682 170.022 429.606 168.409 432.128 168.825C433.236 169.002 434.821 169.113 433.685 168.27C432.433 167.328 430.36 165.799 429.69 164.613C429.65 164.522 429.638 164.421 429.657 164.324C429.676 164.226 429.725 164.137 429.796 164.068C429.867 163.999 429.957 163.953 430.055 163.936C430.153 163.92 430.254 163.934 430.343 163.976C432.56 164.657 433.413 165.084 431.452 162.158C430.898 161.321 431.191 160.961 432.178 161.404C434.267 162.324 438.168 165.572 440.562 166.586Z" fill="url(#paint56_linear_326_301)"/>
<path fill-rule="evenodd" clip-rule="evenodd" d="M448.498 180.302C447.389 178.639 452.404 171.513 454.682 171.784C465.494 174.899 494.299 176.888 479.181 146.565C462.795 113.698 482.833 116.402 495.623 129.646C501.863 136.091 508.347 148.199 510.164 161.056C516.415 205.062 455.48 189.49 448.498 180.302Z" fill="url(#paint57_linear_326_301)"/>
<path fill-rule="evenodd" clip-rule="evenodd" d="M451.666 176.471C461.558 184.651 489.349 189.455 499.678 181.204C505.802 176.316 506.389 168.563 505.342 161.503C503.912 151.928 498.786 140.246 491.66 133.241C488.783 130.336 485.381 128.002 481.635 126.364C480.205 125.81 477.002 124.763 475.539 125.71C474.276 126.525 474.431 129.202 474.553 130.404C475.107 135.419 477.966 141.487 480.299 145.954C484.179 153.346 488.146 165.227 480.854 171.999C474.353 178.034 463.148 174.737 454.731 172.625C453.478 173.705 452.438 175.009 451.666 176.471Z" fill="url(#paint58_linear_326_301)"/>
<path fill-rule="evenodd" clip-rule="evenodd" d="M473.865 247.797C473.606 249.478 473.252 251.143 472.807 252.785C472.341 254.344 471.971 255.93 471.698 257.534C471.602 258.236 471.602 258.948 471.698 259.651C471.771 260.224 471.959 260.776 472.252 261.274C474.35 264.727 475.393 268.719 475.25 272.756C475.062 279.49 468.728 305.552 464.954 316.906C462.139 316.779 459.468 316.59 456.991 316.352C457.426 314.355 457.75 312.334 457.961 310.301C459.291 297.971 459.069 285.114 458.177 272.756C457.828 267.946 457.357 263.164 456.797 258.376L456.753 257.966C455.727 249.349 454.253 241.169 452.735 232.658C452.458 231.1 452.153 229.227 451.893 227.166C460.67 214.171 477.112 225.005 473.865 247.797Z" fill="#FEE5A2"/>
<path fill-rule="evenodd" clip-rule="evenodd" d="M442.574 258.255C442.558 258.823 442.658 259.389 442.868 259.917C444.355 263.58 444.71 267.605 443.888 271.472C443.251 274.586 439.166 283.63 434.467 293.322C430.034 302.499 421.938 311.088 423.661 316.519H423.395C420.419 316.414 417.499 316.275 414.65 316.098C422.486 306.638 426.387 287.226 427.995 278.365C429.574 269.671 430.699 260.876 431.602 252.093C432.212 246.108 432.661 240.128 433.209 234.143C433.337 232.747 433.464 231.345 433.586 229.948C434.567 218.782 445.916 222.19 446.016 231.179C446.121 241.298 442.652 254.376 442.574 258.255Z" fill="#FEDB7F"/>
<path fill-rule="evenodd" clip-rule="evenodd" d="M471.428 312.18C470.53 314.325 469.909 315.954 469.765 317.639C464.639 317.5 459.79 317.206 455.462 316.791C455.856 315.023 456.166 313.25 456.416 311.404C457.893 311.548 459.393 311.676 460.915 311.787C464.578 312.047 468.119 312.175 471.428 312.18ZM413.989 315.56C414.951 314.383 415.821 313.135 416.594 311.825L416.871 311.36L417.425 311.41C418.496 311.517 419.566 311.606 420.633 311.676C423.171 311.859 425.721 311.964 428.264 311.992H429.677L429.012 313.239C428.973 313.305 428.941 313.376 428.918 313.449C428.722 314.171 428.686 314.928 428.813 315.666C428.846 315.948 428.89 316.22 428.935 316.508L429.084 317.55H428.065C426.502 317.517 424.939 317.478 423.377 317.422C420.451 317.323 417.528 317.182 414.61 317.001L412.947 316.902L413.989 315.56Z" fill="url(#paint59_linear_326_301)"/>
<path fill-rule="evenodd" clip-rule="evenodd" d="M388.426 146.626C387.993 145.085 390.243 139.726 391.385 139.776C392.227 139.876 394.876 140.713 395.048 141.993C395.957 148.643 399.481 159.726 399.365 159.626C394.986 155.965 391.284 151.565 388.426 146.626Z" fill="url(#paint60_linear_326_301)"/>
<path fill-rule="evenodd" clip-rule="evenodd" d="M454.137 123.04L472.596 117.93C476.503 117.554 474.979 121.876 470.38 124.082C464.284 126.991 453.905 127.733 453.894 124.242C447.244 126.614 445.166 117.038 449.865 117.975L454.298 122.752L454.137 123.04Z" fill="white"/>
<path fill-rule="evenodd" clip-rule="evenodd" d="M475.706 89.7904C475.706 100.364 470.674 106.127 462.96 106.615C440.921 108.017 428.84 74.3016 445.67 73.6976C450.181 68.3832 460.721 68.3943 467.837 73.4205C472.863 76.956 475.706 83.6336 475.706 89.7904Z" fill="url(#paint61_linear_326_301)"/>
<path fill-rule="evenodd" clip-rule="evenodd" d="M454.194 106.902C455.169 113.791 453.468 118.152 449.844 117.952C449.844 119.837 451.218 122.247 453.806 123.649C464.163 124.27 471.051 120.103 472.598 117.891C465.044 116.124 467.494 106.686 467.194 97.709C462.285 97.8364 460.528 106.287 454.194 106.902Z" fill="url(#paint62_linear_326_301)"/>
<path fill-rule="evenodd" clip-rule="evenodd" d="M454.46 110.876C461.664 108.028 463.182 113.752 461.437 123.25C458.918 123.689 456.357 123.828 453.806 123.666C451.218 122.264 449.849 119.853 449.844 117.969C452.709 118.108 454.371 115.415 454.46 110.876Z" fill="url(#paint63_linear_326_301)"/>
<path fill-rule="evenodd" clip-rule="evenodd" d="M443.843 81.1179C442.025 86.8811 444.696 98.3578 446.12 102.026C448.176 107.324 448.797 109.064 453.474 108.892C459.913 108.654 467.827 101.888 467.505 93.1985C467.134 83.1406 463.527 76.1748 452.105 76.9118C448.315 77.1556 444.713 78.3637 443.843 81.1179Z" fill="url(#paint64_linear_326_301)"/>
<path fill-rule="evenodd" clip-rule="evenodd" d="M444.641 90.738C444.876 94.7967 445.661 98.8048 446.974 102.652C448.636 106.975 449.157 108.393 452.975 108.255C456.793 108.116 461.227 105.168 463.294 100.874C463.925 99.5325 464.657 94.4065 464.662 91.2811C463.927 91.1892 463.187 91.1356 462.446 91.1203C454.987 90.9264 451.291 88.2443 448.802 84.8916C447.705 87.8619 445.239 90.9652 444.641 90.738Z" fill="#FEDFCD"/>
<path fill-rule="evenodd" clip-rule="evenodd" d="M444.641 90.738C444.876 94.7967 445.661 98.8048 446.974 102.652C448.636 106.975 449.157 108.393 452.975 108.255C456.793 108.116 461.227 105.168 463.294 100.874C463.925 99.5325 464.657 94.4065 464.662 91.2811C463.927 91.1892 463.187 91.1356 462.446 91.1203C454.987 90.9264 451.291 88.2443 448.802 84.8916C447.705 87.8619 445.239 90.9652 444.641 90.738Z" fill="url(#paint65_linear_326_301)"/>
<path fill-rule="evenodd" clip-rule="evenodd" d="M471.388 92.2293C471.942 94.4848 471.388 96.1084 469.836 97.8485C468.534 99.2672 466.849 100.137 465.957 98.9291C466.151 96.8067 466.511 91.5366 466.051 89.9961C467.32 88.4112 470.59 89.1205 471.388 92.2293Z" fill="url(#paint66_linear_326_301)"/>
<path fill-rule="evenodd" clip-rule="evenodd" d="M468.503 91.1028C469.839 91.2856 470.797 95.669 467.434 96.8826C467.729 96.2458 467.917 95.564 467.988 94.8655C468.133 93.785 468.06 92.6862 467.772 91.6347C467.539 90.8977 467.522 90.9698 468.503 91.1028Z" fill="#FEA682"/>
<path fill-rule="evenodd" clip-rule="evenodd" d="M452.112 72.8608C454.883 73.1767 457.576 70.5832 459.815 71.891C464.608 74.6951 469.008 73.9304 470.582 68.2114C471.086 66.3772 470.028 64.0442 467.867 62.8305C467.157 62.4316 465.511 62.0603 464.542 61.5172C461.616 59.8547 459.859 55.9146 455.032 59.09C453.37 60.1983 451.918 59.6441 449.768 60.625C444.348 63.03 444.57 71.9908 452.112 72.8608Z" fill="url(#paint67_linear_326_301)"/>
<path fill-rule="evenodd" clip-rule="evenodd" d="M452.11 72.8613C454.88 73.1771 457.574 70.5837 459.812 71.8915C464.179 74.4462 468.219 74.0361 470.092 69.625C469.623 68.3415 468.706 67.2708 467.51 66.6104C466.8 66.2114 465.149 65.8401 464.185 65.2915C461.259 63.629 459.496 59.6945 454.67 62.8698C453.007 63.9781 451.561 63.424 449.405 64.3993C447.916 65.0613 446.747 66.2838 446.152 67.8018C446.64 70.2623 448.568 72.4512 452.11 72.8613Z" fill="url(#paint68_linear_326_301)"/>
<path fill-rule="evenodd" clip-rule="evenodd" d="M467.162 89.2743C467.162 89.2743 466.193 88.5206 462.441 88.4209C452.267 88.1549 449.457 83.9876 447.512 80.175C448.066 83.5 448.382 85.2068 442.181 90.4713C441.172 91.3302 438.618 91.9841 441.516 96.2401C434.417 90.8093 436.323 72.0566 445.655 73.7191C450.166 68.4047 460.706 68.4158 467.822 73.442C471.756 76.1906 476.295 87.1851 467.162 89.2743Z" fill="url(#paint69_linear_326_301)"/>
<path d="M457.934 148.175L459.49 140.292L473.81 143.119L472.254 151.002L457.934 148.175Z" fill="white"/>
<path d="M464.406 144.191L465.495 138.679L468.909 139.353L467.82 144.866L464.406 144.191Z" fill="#112A82"/>
<defs>
<radialGradient id="paint0_radial_326_301" cx="0" cy="0" r="1" gradientUnits="userSpaceOnUse" gradientTransform="translate(360 200) rotate(92.5312) scale(257.852 363.068)">
<stop stop-color="#8085FF"/>
<stop offset="0.540512" stop-color="#762CEF"/>
<stop offset="1" stop-color="#7000C8"/>
</radialGradient>
<linearGradient id="paint1_linear_326_301" x1="360.194" y1="287.326" x2="360.194" y2="346" gradientUnits="userSpaceOnUse">
<stop stop-color="white" stop-opacity="0.76"/>
<stop offset="1" stop-color="#9AF8EA"/>
</linearGradient>
<linearGradient id="paint2_linear_326_301" x1="157.312" y1="262.145" x2="230.814" y2="262.145" gradientUnits="userSpaceOnUse">
<stop stop-color="#F4932F"/>
<stop offset="1" stop-color="#FFC282"/>
</linearGradient>
<linearGradient id="paint3_linear_326_301" x1="233.09" y1="282.89" x2="155.252" y2="282.89" gradientUnits="userSpaceOnUse">
<stop stop-color="#F4932F"/>
<stop offset="1" stop-color="#FFC282"/>
</linearGradient>
<linearGradient id="paint4_linear_326_301" x1="225.777" y1="246.548" x2="162.507" y2="246.548" gradientUnits="userSpaceOnUse">
<stop stop-color="#F4932F"/>
<stop offset="1" stop-color="#FFC282"/>
</linearGradient>
<linearGradient id="paint5_linear_326_301" x1="215.359" y1="202.437" x2="172.853" y2="202.437" gradientUnits="userSpaceOnUse">
<stop stop-color="#F4932F"/>
<stop offset="1" stop-color="#FFC282"/>
</linearGradient>
<linearGradient id="paint6_linear_326_301" x1="217.155" y1="187.444" x2="178.918" y2="192.432" gradientUnits="userSpaceOnUse">
<stop stop-color="#F3291C"/>
<stop offset="0.79" stop-color="white"/>
</linearGradient>
<linearGradient id="paint7_linear_326_301" x1="163.954" y1="200.19" x2="164.446" y2="193.437" gradientUnits="userSpaceOnUse">
<stop stop-color="#DC2626"/>
<stop offset="1" stop-color="#FFE0E0"/>
</linearGradient>
<linearGradient id="paint8_linear_326_301" x1="163.954" y1="200.19" x2="164.446" y2="193.437" gradientUnits="userSpaceOnUse">
<stop stop-color="#DC2626"/>
<stop offset="1" stop-color="#FFE0E0"/>
</linearGradient>
<linearGradient id="paint9_linear_326_301" x1="163.954" y1="200.19" x2="164.446" y2="193.437" gradientUnits="userSpaceOnUse">
<stop stop-color="#DC2626"/>
<stop offset="1" stop-color="#FFE0E0"/>
</linearGradient>
<linearGradient id="paint10_linear_326_301" x1="163.954" y1="200.19" x2="164.446" y2="193.437" gradientUnits="userSpaceOnUse">
<stop stop-color="#DC2626"/>
<stop offset="1" stop-color="#FFE0E0"/>
</linearGradient>
<linearGradient id="paint11_linear_326_301" x1="162.844" y1="192.709" x2="198.034" y2="191.324" gradientUnits="userSpaceOnUse">
<stop stop-color="#DFCDC7"/>
<stop offset="1" stop-color="#DFCDC7" stop-opacity="0"/>
</linearGradient>
<linearGradient id="paint12_linear_326_301" x1="162.844" y1="192.709" x2="198.034" y2="191.324" gradientUnits="userSpaceOnUse">
<stop stop-color="#DFCDC7"/>
<stop offset="1" stop-color="#DFCDC7" stop-opacity="0"/>
</linearGradient>
<linearGradient id="paint13_linear_326_301" x1="162.844" y1="192.709" x2="198.034" y2="191.324" gradientUnits="userSpaceOnUse">
<stop stop-color="#DFCDC7"/>
<stop offset="1" stop-color="#DFCDC7" stop-opacity="0"/>
</linearGradient>
<linearGradient id="paint14_linear_326_301" x1="162.844" y1="192.709" x2="198.034" y2="191.324" gradientUnits="userSpaceOnUse">
<stop stop-color="#DFCDC7"/>
<stop offset="1" stop-color="#DFCDC7" stop-opacity="0"/>
</linearGradient>
<linearGradient id="paint15_linear_326_301" x1="162.844" y1="192.709" x2="198.034" y2="191.324" gradientUnits="userSpaceOnUse">
<stop stop-color="#DFCDC7"/>
<stop offset="1" stop-color="#DFCDC7" stop-opacity="0"/>
</linearGradient>
<linearGradient id="paint16_linear_326_301" x1="162.844" y1="192.709" x2="198.034" y2="191.324" gradientUnits="userSpaceOnUse">
<stop stop-color="#DFCDC7"/>
<stop offset="1" stop-color="#DFCDC7" stop-opacity="0"/>
</linearGradient>
<linearGradient id="paint17_linear_326_301" x1="162.844" y1="192.709" x2="198.034" y2="191.324" gradientUnits="userSpaceOnUse">
<stop stop-color="#DFCDC7"/>
<stop offset="1" stop-color="#DFCDC7" stop-opacity="0"/>
</linearGradient>
<linearGradient id="paint18_linear_326_301" x1="163.954" y1="200.19" x2="164.446" y2="193.437" gradientUnits="userSpaceOnUse">
<stop stop-color="#DC2626"/>
<stop offset="1" stop-color="#FFE0E0"/>
</linearGradient>
<linearGradient id="paint19_linear_326_301" x1="162.844" y1="192.709" x2="198.034" y2="191.324" gradientUnits="userSpaceOnUse">
<stop stop-color="#E81818"/>
<stop offset="1" stop-color="#FCFCFC" stop-opacity="0.89"/>
</linearGradient>
<linearGradient id="paint20_linear_326_301" x1="231.456" y1="268.011" x2="217.186" y2="284.806" gradientUnits="userSpaceOnUse">
<stop stop-color="#DC2626"/>
<stop offset="1" stop-color="#FFE0E0"/>
</linearGradient>
<linearGradient id="paint21_linear_326_301" x1="231.456" y1="268.011" x2="217.186" y2="284.806" gradientUnits="userSpaceOnUse">
<stop stop-color="#DC2626"/>
<stop offset="1" stop-color="#FFE0E0"/>
</linearGradient>
<linearGradient id="paint22_linear_326_301" x1="231.456" y1="268.011" x2="217.186" y2="284.806" gradientUnits="userSpaceOnUse">
<stop stop-color="#DC2626"/>
<stop offset="1" stop-color="#FFE0E0"/>
</linearGradient>
<linearGradient id="paint23_linear_326_301" x1="231.456" y1="268.011" x2="217.186" y2="284.806" gradientUnits="userSpaceOnUse">
<stop stop-color="#DC2626"/>
<stop offset="1" stop-color="#FFE0E0"/>
</linearGradient>
<linearGradient id="paint24_linear_326_301" x1="163.954" y1="200.19" x2="164.446" y2="193.437" gradientUnits="userSpaceOnUse">
<stop stop-color="#DC2626"/>
<stop offset="1" stop-color="#FFE0E0"/>
</linearGradient>
<linearGradient id="paint25_linear_326_301" x1="179.349" y1="178.697" x2="191.251" y2="150.951" gradientUnits="userSpaceOnUse">
<stop offset="0.184024" stop-color="#03AB8D"/>
<stop offset="1" stop-color="#67FFD2"/>
</linearGradient>
<linearGradient id="paint26_linear_326_301" x1="171.09" y1="178.697" x2="187.323" y2="159.761" gradientUnits="userSpaceOnUse">
<stop offset="0.184024" stop-color="#03AB8D"/>
<stop offset="1" stop-color="#67FFD2"/>
</linearGradient>
<linearGradient id="paint27_linear_326_301" x1="334.755" y1="166.878" x2="334.755" y2="314.54" gradientUnits="userSpaceOnUse">
<stop stop-color="white"/>
<stop offset="1" stop-color="#867B7A"/>
</linearGradient>
<linearGradient id="paint28_linear_326_301" x1="335.452" y1="241.32" x2="335.452" y2="250.402" gradientUnits="userSpaceOnUse">
<stop stop-color="#ECCAC0"/>
<stop offset="1" stop-color="#77645E"/>
</linearGradient>
<linearGradient id="paint29_linear_326_301" x1="421.187" y1="222.356" x2="225.846" y2="224.018" gradientUnits="userSpaceOnUse">
<stop stop-color="#7C6C67"/>
<stop offset="1" stop-color="#FBCEC0"/>
</linearGradient>
<linearGradient id="paint30_linear_326_301" x1="237.207" y1="219.308" x2="430.609" y2="217.369" gradientUnits="userSpaceOnUse">
<stop stop-color="#604A41"/>
<stop offset="1" stop-color="#FFFEFD"/>
</linearGradient>
<linearGradient id="paint31_linear_326_301" x1="284.583" y1="152.587" x2="307.498" y2="178.583" gradientUnits="userSpaceOnUse">
<stop offset="0.02" stop-color="white"/>
<stop offset="1"/>
</linearGradient>
<linearGradient id="paint32_linear_326_301" x1="262.098" y1="195.51" x2="304.943" y2="195.497" gradientUnits="userSpaceOnUse">
<stop stop-color="#604A41"/>
<stop offset="1" stop-color="#FFFEFD"/>
</linearGradient>
<linearGradient id="paint33_linear_326_301" x1="263.761" y1="200.757" x2="278.75" y2="200.754" gradientUnits="userSpaceOnUse">
<stop stop-color="#604A41"/>
<stop offset="1" stop-color="#FFFEFD"/>
</linearGradient>
<linearGradient id="paint34_linear_326_301" x1="214.861" y1="243.374" x2="226.874" y2="239.801" gradientUnits="userSpaceOnUse">
<stop offset="0.184024" stop-color="#03AB8D"/>
<stop offset="1" stop-color="#67FFD2"/>
</linearGradient>
<linearGradient id="paint35_linear_326_301" x1="219.13" y1="242.915" x2="226.246" y2="241.432" gradientUnits="userSpaceOnUse">
<stop offset="0.184024" stop-color="#03AB8D"/>
<stop offset="1" stop-color="#67FFD2"/>
</linearGradient>
<linearGradient id="paint36_linear_326_301" x1="226.171" y1="244.722" x2="244.711" y2="231.484" gradientUnits="userSpaceOnUse">
<stop offset="0.184024" stop-color="#03AB8D"/>
<stop offset="1" stop-color="#67FFD2"/>
</linearGradient>
<linearGradient id="paint37_linear_326_301" x1="205.207" y1="247.886" x2="227.264" y2="231.844" gradientUnits="userSpaceOnUse">
<stop offset="0.184024" stop-color="#03AB8D"/>
<stop offset="1" stop-color="#67FFD2"/>
</linearGradient>
<linearGradient id="paint38_linear_326_301" x1="202.746" y1="255.891" x2="220.279" y2="240.971" gradientUnits="userSpaceOnUse">
<stop offset="0.184024" stop-color="#03AB8D"/>
<stop offset="1" stop-color="#67FFD2"/>
</linearGradient>
<linearGradient id="paint39_linear_326_301" x1="221.281" y1="257.694" x2="233.268" y2="245.989" gradientUnits="userSpaceOnUse">
<stop offset="0.184024" stop-color="#03AB8D"/>
<stop offset="1" stop-color="#67FFD2"/>
</linearGradient>
<linearGradient id="paint40_linear_326_301" x1="234.028" y1="261.445" x2="232.692" y2="268.657" gradientUnits="userSpaceOnUse">
<stop stop-color="#DC2626"/>
<stop offset="1" stop-color="#FFE0E0"/>
</linearGradient>
<linearGradient id="paint41_linear_326_301" x1="231.456" y1="268.011" x2="217.186" y2="284.806" gradientUnits="userSpaceOnUse">
<stop stop-color="#DC2626"/>
<stop offset="1" stop-color="#FFE0E0"/>
</linearGradient>
<linearGradient id="paint42_linear_326_301" x1="204.961" y1="263.641" x2="214.523" y2="262.504" gradientUnits="userSpaceOnUse">
<stop stop-color="#DC2626"/>
<stop offset="1" stop-color="#FFE0E0"/>
</linearGradient>
<linearGradient id="paint43_linear_326_301" x1="207.178" y1="276.664" x2="218.327" y2="279.937" gradientUnits="userSpaceOnUse">
<stop stop-color="#DC2626"/>
<stop offset="1" stop-color="#FFE0E0"/>
</linearGradient>
<linearGradient id="paint44_linear_326_301" x1="205.513" y1="266.135" x2="206.343" y2="261.791" gradientUnits="userSpaceOnUse">
<stop stop-color="#DC2626"/>
<stop offset="1" stop-color="#FFE0E0"/>
</linearGradient>
<linearGradient id="paint45_linear_326_301" x1="206.347" y1="260.593" x2="229.345" y2="258.931" gradientUnits="userSpaceOnUse">
<stop stop-color="#3F3F3F"/>
<stop offset="1" stop-color="#CECECE"/>
</linearGradient>
<linearGradient id="paint46_linear_326_301" x1="382.231" y1="132.314" x2="384.865" y2="145.41" gradientUnits="userSpaceOnUse">
<stop stop-color="white"/>
<stop offset="0.84427" stop-color="#FFC4C4"/>
</linearGradient>
<linearGradient id="paint47_linear_326_301" x1="447.259" y1="143.68" x2="437.899" y2="187.546" gradientUnits="userSpaceOnUse">
<stop stop-color="#2C89BE"/>
<stop offset="1" stop-color="#036FAD"/>
</linearGradient>
<linearGradient id="paint48_linear_326_301" x1="440.864" y1="194.823" x2="440.864" y2="316.663" gradientUnits="userSpaceOnUse">
<stop stop-color="#FFB426"/>
<stop offset="1" stop-color="#F4D8A2"/>
</linearGradient>
<linearGradient id="paint49_linear_326_301" x1="467.425" y1="194.853" x2="467.425" y2="317.034" gradientUnits="userSpaceOnUse">
<stop stop-color="#FFB426"/>
<stop offset="1" stop-color="#F4D8A2"/>
</linearGradient>
<linearGradient id="paint50_linear_326_301" x1="490.733" y1="129.811" x2="439.196" y2="218.477" gradientUnits="userSpaceOnUse">
<stop stop-color="#2C89BE"/>
<stop offset="1" stop-color="#036FAD"/>
</linearGradient>
<linearGradient id="paint51_linear_326_301" x1="453.664" y1="124.559" x2="453.664" y2="218.289" gradientUnits="userSpaceOnUse">
<stop stop-color="#30A3E6"/>
<stop offset="1" stop-color="#1D8AC9"/>
</linearGradient>
<linearGradient id="paint52_linear_326_301" x1="441.652" y1="163.316" x2="441.652" y2="171.728" gradientUnits="userSpaceOnUse">
<stop stop-color="#453260"/>
<stop offset="1" stop-color="#AE87E8"/>
</linearGradient>
<linearGradient id="paint53_linear_326_301" x1="425.415" y1="131.79" x2="425.415" y2="166.402" gradientUnits="userSpaceOnUse">
<stop stop-color="#F0F2FC"/>
<stop offset="1" stop-color="#C3B9FF"/>
</linearGradient>
<linearGradient id="paint54_linear_326_301" x1="451.111" y1="327.646" x2="474.94" y2="328.2" gradientUnits="userSpaceOnUse">
<stop stop-color="#254B4B"/>
<stop offset="1" stop-color="#49A8A8"/>
</linearGradient>
<linearGradient id="paint55_linear_326_301" x1="402.221" y1="327.687" x2="432.202" y2="328.619" gradientUnits="userSpaceOnUse">
<stop stop-color="#254B4B"/>
<stop offset="1" stop-color="#49A8A8"/>
</linearGradient>
<linearGradient id="paint56_linear_326_301" x1="442.855" y1="162.778" x2="446.715" y2="180.119" gradientUnits="userSpaceOnUse">
<stop stop-color="white"/>
<stop offset="0.84427" stop-color="#FFC4C4"/>
</linearGradient>
<linearGradient id="paint57_linear_326_301" x1="498.954" y1="130.201" x2="468.882" y2="197.886" gradientUnits="userSpaceOnUse">
<stop stop-color="#2C89BE"/>
<stop offset="1" stop-color="#036FAD"/>
</linearGradient>
<linearGradient id="paint58_linear_326_301" x1="478.713" y1="125.329" x2="478.713" y2="185.492" gradientUnits="userSpaceOnUse">
<stop stop-color="#30A3E6"/>
<stop offset="1" stop-color="#1D8AC9"/>
</linearGradient>
<linearGradient id="paint59_linear_326_301" x1="442.187" y1="311.36" x2="442.187" y2="317.639" gradientUnits="userSpaceOnUse">
<stop stop-color="#0A7BBC"/>
<stop offset="1" stop-color="#F6FCFF"/>
</linearGradient>
<linearGradient id="paint60_linear_326_301" x1="393.869" y1="139.776" x2="393.869" y2="159.627" gradientUnits="userSpaceOnUse">
<stop stop-color="#30A3E6"/>
<stop offset="1" stop-color="#1D8AC9"/>
</linearGradient>
<linearGradient id="paint61_linear_326_301" x1="440.636" y1="75.6897" x2="461.605" y2="108.715" gradientUnits="userSpaceOnUse">
<stop stop-color="#202C8A"/>
<stop offset="0.894287" stop-color="#0E133C"/>
</linearGradient>
<linearGradient id="paint62_linear_326_301" x1="461.831" y1="101.699" x2="468.636" y2="123.116" gradientUnits="userSpaceOnUse">
<stop stop-color="white"/>
<stop offset="0.84427" stop-color="#FFC4C4"/>
</linearGradient>
<linearGradient id="paint63_linear_326_301" x1="456.299" y1="112.228" x2="459.769" y2="123.48" gradientUnits="userSpaceOnUse">
<stop stop-color="white"/>
<stop offset="0.84427" stop-color="#FFC4C4"/>
</linearGradient>
<linearGradient id="paint64_linear_326_301" x1="456.024" y1="81.7762" x2="465.421" y2="107.387" gradientUnits="userSpaceOnUse">
<stop stop-color="white"/>
<stop offset="0.84427" stop-color="#FFC4C4"/>
</linearGradient>
<linearGradient id="paint65_linear_326_301" x1="455.189" y1="88.4784" x2="461.412" y2="107.652" gradientUnits="userSpaceOnUse">
<stop stop-color="white"/>
<stop offset="0.84427" stop-color="#FFC4C4"/>
</linearGradient>
<linearGradient id="paint66_linear_326_301" x1="468.929" y1="90.7632" x2="472.712" y2="98.1982" gradientUnits="userSpaceOnUse">
<stop stop-color="white"/>
<stop offset="0.84427" stop-color="#FFC4C4"/>
</linearGradient>
<linearGradient id="paint67_linear_326_301" x1="447.895" y1="60.4208" x2="454.762" y2="77.1199" gradientUnits="userSpaceOnUse">
<stop stop-color="#202C8A"/>
<stop offset="0.894287" stop-color="#0E133C"/>
</linearGradient>
<linearGradient id="paint68_linear_326_301" x1="447.96" y1="63.5855" x2="452.264" y2="76.9914" gradientUnits="userSpaceOnUse">
<stop stop-color="#202C8A"/>
<stop offset="0.894287" stop-color="#0E133C"/>
</linearGradient>
<linearGradient id="paint69_linear_326_301" x1="439.881" y1="74.0148" x2="453.022" y2="100.833" gradientUnits="userSpaceOnUse">
<stop stop-color="#202C8A"/>
<stop offset="0.894287" stop-color="#0E133C"/>
</linearGradient>
</defs>
</svg>
