<svg width="433" height="430" viewBox="0 0 433 430" fill="none" xmlns="http://www.w3.org/2000/svg">
<g filter="url(#filter0_d_850_13)">
<rect x="154" y="21" width="250" height="362" rx="8" fill="white"/>
</g>
<path fill-rule="evenodd" clip-rule="evenodd" d="M376 54.8607C376 51.6241 373.376 49 370.139 49C341.5 49 216.5 49 187.861 49C184.624 49 182 51.6241 182 54.8607C182 74.8808 182 164.567 182 184.587C182 187.824 184.624 190.448 187.861 190.448C216.5 190.448 341.5 190.448 370.139 190.448C373.376 190.448 376 187.824 376 184.587C376 164.567 376 74.8808 376 54.8607Z" fill="url(#paint0_linear_850_13)"/>
<path fill-rule="evenodd" clip-rule="evenodd" d="M364.813 60.2831C364.813 59.9468 362.467 59.6746 359.571 59.6746C333.963 59.6746 222.191 59.6746 196.58 59.6746C193.686 59.6746 191.34 59.9468 191.34 60.2831C191.34 62.3607 191.34 71.6682 191.34 73.7459C191.34 74.0821 193.686 74.3544 196.58 74.3544C222.189 74.3544 333.963 74.3544 359.571 74.3544C362.467 74.3544 364.813 74.0821 364.813 73.7459C364.813 71.6682 364.813 62.3607 364.813 60.2831Z" fill="url(#paint1_linear_850_13)"/>
<path fill-rule="evenodd" clip-rule="evenodd" d="M376 54.8607C376 51.6241 373.376 49 370.139 49C341.5 49 216.5 49 187.861 49C184.624 49 182 51.6241 182 54.8607C182 59.2522 182 64.5045 182 64.5045H376V54.8607Z" fill="url(#paint2_linear_850_13)"/>
<path d="M191.254 59.6486C192.681 59.6486 193.836 58.4917 193.836 57.0665C193.836 55.6394 192.679 54.4844 191.254 54.4844C189.827 54.4844 188.672 55.6414 188.672 57.0665C188.672 58.4917 189.827 59.6486 191.254 59.6486ZM207.265 59.5045C208.692 59.5045 209.847 58.3476 209.847 56.9224C209.847 55.4953 208.69 54.3403 207.265 54.3403C205.838 54.3403 204.683 55.4973 204.683 56.9224C204.683 58.3476 205.84 59.5045 207.265 59.5045ZM223.278 59.3584C224.705 59.3584 225.86 58.2014 225.86 56.7763C225.86 55.3491 224.703 54.1942 223.278 54.1942C221.851 54.1942 220.696 55.3511 220.696 56.7763C220.694 58.2034 221.851 59.3584 223.278 59.3584Z" fill="white"/>
<path d="M192.676 154.213C192.676 153.588 193.542 153.084 194.611 153.084H268.136C269.205 153.084 270.072 153.59 270.072 154.213C270.072 154.837 269.205 155.342 268.136 155.342H194.611C193.542 155.342 192.676 154.837 192.676 154.213ZM194.611 162.117C193.542 162.117 192.676 162.623 192.676 163.246C192.676 163.87 193.542 164.375 194.611 164.375H268.136C269.205 164.375 270.072 163.87 270.072 163.246C270.072 162.623 269.205 162.117 268.136 162.117H194.611ZM192.676 172.279C192.676 171.655 193.542 171.15 194.611 171.15H268.136C269.205 171.15 270.072 171.655 270.072 172.279C270.072 172.902 269.205 173.408 268.136 173.408H194.611C193.542 173.408 192.676 172.902 192.676 172.279ZM192.676 181.312C192.676 180.69 193.542 180.184 194.611 180.184H268.136C269.205 180.184 270.072 180.69 270.072 181.312C270.072 181.935 269.205 182.441 268.136 182.441H194.611C193.542 182.441 192.676 181.935 192.676 181.312ZM284.75 155.548C284.75 154.923 285.677 154.419 286.817 154.419H365.415C366.558 154.419 367.482 154.925 367.482 155.548C367.482 156.172 366.556 156.677 365.415 156.677H286.817C285.677 156.677 284.75 156.17 284.75 155.548ZM286.817 163.45C285.675 163.45 284.75 163.956 284.75 164.579C284.75 165.203 285.677 165.708 286.817 165.708H365.415C366.558 165.708 367.482 165.203 367.482 164.579C367.482 163.956 366.556 163.45 365.415 163.45H286.817ZM284.75 173.614C284.75 172.99 285.677 172.485 286.817 172.485H365.415C366.558 172.485 367.482 172.99 367.482 173.614C367.482 174.237 366.556 174.743 365.415 174.743H286.817C285.677 174.743 284.75 174.237 284.75 173.614ZM284.75 182.646C284.75 182.023 285.677 181.517 286.817 181.517H365.415C366.558 181.517 367.482 182.023 367.482 182.646C367.482 183.268 366.556 183.774 365.415 183.774H286.817C285.677 183.774 284.75 183.27 284.75 182.646Z" fill="url(#paint3_linear_850_13)"/>
<path d="M310.866 82.7071C310.52 80.5233 312.011 78.4737 314.195 78.1274L357.69 71.2418C359.874 70.8956 361.923 72.3868 362.27 74.5705L369.363 119.383C369.71 121.566 368.22 123.616 366.035 123.962L322.542 130.848C320.358 131.194 318.308 129.703 317.962 127.519L310.866 82.7071Z" fill="white"/>
<path d="M321.024 130.402C320.9 130.402 320.776 130.367 320.664 130.295C320.354 130.095 320.266 129.683 320.464 129.373L338.582 101.284L312.676 80.1671C312.389 79.9329 312.347 79.5146 312.579 79.2284C312.814 78.9441 313.232 78.9001 313.518 79.1323L339.311 100.155L357.347 72.1927C357.548 71.8804 357.962 71.7964 358.27 71.9925C358.578 72.1927 358.669 72.605 358.468 72.9153L340.352 101.002L366.259 122.119C366.545 122.353 366.587 122.771 366.355 123.058C366.121 123.344 365.702 123.386 365.416 123.154L339.621 102.133L321.585 130.095C321.457 130.293 321.242 130.402 321.024 130.402Z" fill="url(#paint4_linear_850_13)"/>
<path d="M191.34 92.2589C191.34 87.529 196.924 83.694 203.816 83.694H268.272C275.161 83.694 280.748 87.529 280.748 92.2589V136.512C280.748 141.242 275.163 145.077 268.272 145.077H203.816C196.926 145.077 191.34 141.242 191.34 136.512V92.2589Z" fill="white"/>
<path d="M215.828 107.427C216.56 106.206 218.728 106.01 219.815 107.067L235.221 122.039C236.084 122.877 237.705 122.96 238.708 122.219L253.99 110.904C255.113 110.071 256.969 110.295 257.703 111.35L273.794 134.435C274.627 135.63 273.492 137.073 271.719 137.073H201.698C199.985 137.073 198.846 135.718 199.561 134.529L215.828 107.427Z" fill="#96FFCC"/>
<path d="M255.393 102.375C258.341 102.375 260.731 100.284 260.731 97.7052C260.731 95.1261 258.341 93.0354 255.393 93.0354C252.445 93.0354 250.055 95.1261 250.055 97.7052C250.055 100.284 252.445 102.375 255.393 102.375Z" fill="#96FFCC"/>
<path fill-rule="evenodd" clip-rule="evenodd" d="M299.303 206.184C299.303 205.532 298.917 205 298.44 205C294.222 205 275.811 205 271.593 205C271.116 205 270.73 205.53 270.73 206.184C270.73 210.229 270.73 228.345 270.73 232.39C270.73 233.045 271.116 233.574 271.593 233.574C275.811 233.574 294.222 233.574 298.44 233.574C298.917 233.574 299.303 233.045 299.303 232.39C299.303 228.345 299.303 210.229 299.303 206.184Z" fill="url(#paint5_linear_850_13)"/>
<path fill-rule="evenodd" clip-rule="evenodd" d="M337.572 206.184C337.572 205.532 337.187 205 336.709 205C332.492 205 314.08 205 309.863 205C309.385 205 309 205.53 309 206.184C309 210.229 309 228.345 309 232.39C309 233.045 309.385 233.574 309.863 233.574C314.08 233.574 332.492 233.574 336.709 233.574C337.187 233.574 337.572 233.045 337.572 232.39C337.572 228.345 337.572 210.229 337.572 206.184Z" fill="url(#paint6_linear_850_13)"/>
<path fill-rule="evenodd" clip-rule="evenodd" d="M375.572 206.184C375.572 205.532 375.187 205 374.709 205C370.492 205 352.08 205 347.863 205C347.385 205 347 205.53 347 206.184C347 210.229 347 228.345 347 232.39C347 233.045 347.385 233.574 347.863 233.574C352.08 233.574 370.492 233.574 374.709 233.574C375.187 233.574 375.572 233.045 375.572 232.39C375.572 228.345 375.572 210.229 375.572 206.184Z" fill="url(#paint7_linear_850_13)"/>
<path fill-rule="evenodd" clip-rule="evenodd" d="M258.695 208.319C258.695 208.147 257.718 208.007 256.515 208.007C245.858 208.007 199.347 208.007 188.69 208.007C187.487 208.007 186.508 208.147 186.508 208.319C186.508 209.383 186.508 214.151 186.508 215.215C186.508 215.388 187.484 215.527 188.69 215.527C199.347 215.527 245.858 215.527 256.515 215.527C257.721 215.527 258.695 215.388 258.695 215.215C258.695 214.151 258.695 209.383 258.695 208.319ZM258.695 236.768C258.695 236.664 257.718 236.582 256.515 236.582C245.858 236.582 199.347 236.582 188.69 236.582C187.487 236.582 186.508 236.664 186.508 236.768C186.508 237.407 186.508 240.267 186.508 240.905C186.508 241.009 187.484 241.092 188.69 241.092C199.347 241.092 245.858 241.092 256.515 241.092C257.721 241.092 258.695 241.009 258.695 240.905C258.695 240.267 258.695 237.407 258.695 236.768ZM258.695 245.792C258.695 245.688 257.718 245.605 256.515 245.605C245.858 245.605 199.347 245.605 188.69 245.605C187.487 245.605 186.508 245.688 186.508 245.792C186.508 246.43 186.508 249.291 186.508 249.929C186.508 250.033 187.484 250.116 188.69 250.116C199.347 250.116 245.858 250.116 256.515 250.116C257.721 250.116 258.695 250.033 258.695 249.929C258.695 249.291 258.695 246.43 258.695 245.792ZM258.695 254.816C258.695 254.712 257.718 254.629 256.515 254.629C245.858 254.629 199.347 254.629 188.69 254.629C187.487 254.629 186.508 254.712 186.508 254.816C186.508 255.454 186.508 258.314 186.508 258.953C186.508 259.057 187.484 259.139 188.69 259.139C199.347 259.139 245.858 259.139 256.515 259.139C257.721 259.139 258.695 259.057 258.695 258.953C258.695 258.314 258.695 255.454 258.695 254.816ZM258.695 263.839C258.695 263.735 257.718 263.652 256.515 263.652C245.858 263.652 199.347 263.652 188.69 263.652C187.487 263.652 186.508 263.735 186.508 263.839C186.508 264.478 186.508 267.338 186.508 267.976C186.508 268.08 187.484 268.163 188.69 268.163C199.347 268.163 245.858 268.163 256.515 268.163C257.721 268.163 258.695 268.08 258.695 267.976C258.695 267.338 258.695 264.478 258.695 263.839ZM258.695 220.163C258.695 220.095 257.718 220.038 256.515 220.038C245.858 220.038 199.347 220.038 188.69 220.038C187.487 220.038 186.508 220.095 186.508 220.163C186.508 220.589 186.508 222.496 186.508 222.922C186.508 222.991 187.484 223.047 188.69 223.047C199.347 223.047 245.858 223.047 256.515 223.047C257.721 223.047 258.695 222.991 258.695 222.922C258.695 222.496 258.695 220.589 258.695 220.163Z" fill="url(#paint8_linear_850_13)"/>
<path d="M270.727 255.222C270.727 249.08 277.303 244.102 285.415 244.102H361.311C369.422 244.102 375.998 249.08 375.998 255.222V312.686C375.998 318.827 369.422 323.806 361.311 323.806H285.417C277.306 323.806 270.729 318.827 270.729 312.686V255.222H270.727Z" fill="url(#paint9_linear_850_13)"/>
<path d="M300.996 280.584C301.876 279.35 304.467 279.151 305.77 280.22L324.219 295.34C325.249 296.187 327.193 296.272 328.391 295.523L346.692 284.095C348.037 283.255 350.257 283.48 351.138 284.544L370.405 307.858C371.403 309.066 370.044 310.523 367.918 310.523H284.077C282.025 310.523 280.663 309.156 281.517 307.953L300.996 280.584Z" fill="white"/>
<path d="M346.678 269.669C351.247 269.669 354.95 266.302 354.95 262.149C354.95 257.996 351.247 254.629 346.678 254.629C342.11 254.629 338.406 257.996 338.406 262.149C338.406 266.302 342.11 269.669 346.678 269.669Z" fill="white"/>
<path d="M190.272 284.707H227.87C232.437 284.707 236.142 288.409 236.142 292.979C236.142 297.546 232.44 301.251 227.87 301.251H190.272C185.704 301.251 182 297.549 182 292.979C182 288.409 185.702 284.707 190.272 284.707ZM189.52 308.768H209.071C213.225 308.768 216.591 312.135 216.591 316.288C216.591 320.442 213.225 323.809 209.071 323.809H189.52C185.366 323.809 182 320.442 182 316.288C182 312.135 185.366 308.768 189.52 308.768Z" fill="url(#paint10_linear_850_13)"/>
<g filter="url(#filter1_d_850_13)">
<rect x="29" y="279" width="250" height="52" rx="8" fill="white"/>
</g>
<g filter="url(#filter2_d_850_13)">
<rect x="29" y="341" width="250" height="52" rx="8" fill="white"/>
</g>
<rect x="35" y="285" width="40" height="40" rx="4" fill="url(#paint11_linear_850_13)"/>
<rect x="35" y="347" width="40" height="40" rx="4" fill="url(#paint12_linear_850_13)"/>
<path d="M92.187 310.21C91.179 310.21 90.3203 309.991 89.611 309.552C88.9017 309.109 88.358 308.493 87.98 307.704C87.6067 306.915 87.42 306.001 87.42 304.96C87.42 303.919 87.6067 303.005 87.98 302.216C88.358 301.427 88.9017 300.814 89.611 300.375C90.3203 299.932 91.179 299.71 92.187 299.71C93.349 299.71 94.3103 300.004 95.071 300.592C95.8363 301.18 96.3683 301.971 96.667 302.965L95.183 303.364C94.987 302.659 94.637 302.106 94.133 301.705C93.6337 301.304 92.985 301.103 92.187 301.103C91.473 301.103 90.878 301.264 90.402 301.586C89.926 301.908 89.5667 302.358 89.324 302.937C89.086 303.516 88.967 304.19 88.967 304.96C88.9623 305.73 89.079 306.404 89.317 306.983C89.5597 307.562 89.919 308.012 90.395 308.334C90.8757 308.656 91.473 308.817 92.187 308.817C92.985 308.817 93.6337 308.616 94.133 308.215C94.637 307.809 94.987 307.256 95.183 306.556L96.667 306.955C96.3683 307.949 95.8363 308.74 95.071 309.328C94.3103 309.916 93.349 310.21 92.187 310.21ZM101.49 310.21C100.734 310.21 100.078 310.04 99.5226 309.699C98.9672 309.358 98.5379 308.889 98.2346 308.292C97.9359 307.69 97.7866 306.997 97.7866 306.213C97.7866 305.424 97.9406 304.731 98.2486 304.134C98.5566 303.532 98.9882 303.065 99.5436 302.734C100.099 302.398 100.748 302.23 101.49 302.23C102.246 302.23 102.901 302.4 103.457 302.741C104.012 303.082 104.441 303.551 104.745 304.148C105.048 304.745 105.2 305.434 105.2 306.213C105.2 307.002 105.046 307.697 104.738 308.299C104.434 308.896 104.005 309.365 103.45 309.706C102.894 310.042 102.241 310.21 101.49 310.21ZM101.49 308.831C102.213 308.831 102.752 308.588 103.107 308.103C103.466 307.613 103.646 306.983 103.646 306.213C103.646 305.424 103.464 304.794 103.1 304.323C102.74 303.847 102.204 303.609 101.49 303.609C101 303.609 100.596 303.721 100.279 303.945C99.9612 304.164 99.7256 304.47 99.5716 304.862C99.4176 305.249 99.3406 305.7 99.3406 306.213C99.3406 307.006 99.5226 307.641 99.8866 308.117C100.251 308.593 100.785 308.831 101.49 308.831ZM110.287 310.21C109.563 310.21 108.957 310.035 108.467 309.685C107.977 309.33 107.606 308.852 107.354 308.25C107.102 307.648 106.976 306.969 106.976 306.213C106.976 305.457 107.099 304.778 107.347 304.176C107.599 303.574 107.967 303.1 108.453 302.755C108.943 302.405 109.545 302.23 110.259 302.23C110.968 302.23 111.579 302.405 112.093 302.755C112.611 303.1 113.01 303.574 113.29 304.176C113.57 304.773 113.71 305.452 113.71 306.213C113.71 306.969 113.57 307.65 113.29 308.257C113.014 308.859 112.62 309.335 112.107 309.685C111.598 310.035 110.991 310.21 110.287 310.21ZM106.731 313.36V302.44H108.033V307.879H108.201V313.36H106.731ZM110.084 308.887C110.55 308.887 110.935 308.768 111.239 308.53C111.547 308.292 111.775 307.972 111.925 307.571C112.079 307.165 112.156 306.712 112.156 306.213C112.156 305.718 112.079 305.27 111.925 304.869C111.775 304.468 111.544 304.148 111.232 303.91C110.919 303.672 110.52 303.553 110.035 303.553C109.577 303.553 109.199 303.665 108.901 303.889C108.607 304.113 108.387 304.426 108.243 304.827C108.103 305.228 108.033 305.69 108.033 306.213C108.033 306.736 108.103 307.198 108.243 307.599C108.383 308 108.604 308.315 108.908 308.544C109.211 308.773 109.603 308.887 110.084 308.887ZM116.004 313.36L117.467 309.377L117.488 310.553L114.191 302.44H115.717L118.181 308.705H117.733L120.085 302.44H121.569L117.397 313.36H116.004ZM129.675 310.21C128.667 310.21 127.809 309.991 127.099 309.552C126.39 309.109 125.846 308.493 125.468 307.704C125.095 306.915 124.908 306.001 124.908 304.96C124.908 303.919 125.095 303.005 125.468 302.216C125.846 301.427 126.39 300.814 127.099 300.375C127.809 299.932 128.667 299.71 129.675 299.71C130.837 299.71 131.799 300.004 132.559 300.592C133.325 301.18 133.857 301.971 134.155 302.965L132.671 303.364C132.475 302.659 132.125 302.106 131.621 301.705C131.122 301.304 130.473 301.103 129.675 301.103C128.961 301.103 128.366 301.264 127.89 301.586C127.414 301.908 127.055 302.358 126.812 302.937C126.574 303.516 126.455 304.19 126.455 304.96C126.451 305.73 126.567 306.404 126.805 306.983C127.048 307.562 127.407 308.012 127.883 308.334C128.364 308.656 128.961 308.817 129.675 308.817C130.473 308.817 131.122 308.616 131.621 308.215C132.125 307.809 132.475 307.256 132.671 306.556L134.155 306.955C133.857 307.949 133.325 308.74 132.559 309.328C131.799 309.916 130.837 310.21 129.675 310.21ZM138.978 310.21C138.222 310.21 137.566 310.04 137.011 309.699C136.456 309.358 136.026 308.889 135.723 308.292C135.424 307.69 135.275 306.997 135.275 306.213C135.275 305.424 135.429 304.731 135.737 304.134C136.045 303.532 136.477 303.065 137.032 302.734C137.587 302.398 138.236 302.23 138.978 302.23C139.734 302.23 140.39 302.4 140.945 302.741C141.5 303.082 141.93 303.551 142.233 304.148C142.536 304.745 142.688 305.434 142.688 306.213C142.688 307.002 142.534 307.697 142.226 308.299C141.923 308.896 141.493 309.365 140.938 309.706C140.383 310.042 139.729 310.21 138.978 310.21ZM138.978 308.831C139.701 308.831 140.24 308.588 140.595 308.103C140.954 307.613 141.134 306.983 141.134 306.213C141.134 305.424 140.952 304.794 140.588 304.323C140.229 303.847 139.692 303.609 138.978 303.609C138.488 303.609 138.084 303.721 137.767 303.945C137.45 304.164 137.214 304.47 137.06 304.862C136.906 305.249 136.829 305.7 136.829 306.213C136.829 307.006 137.011 307.641 137.375 308.117C137.739 308.593 138.273 308.831 138.978 308.831ZM153.284 310L153.291 305.289C153.291 304.743 153.151 304.318 152.871 304.015C152.591 303.707 152.222 303.553 151.765 303.553C151.485 303.553 151.228 303.618 150.995 303.749C150.766 303.875 150.58 304.066 150.435 304.323C150.295 304.575 150.225 304.892 150.225 305.275L149.518 304.918C149.509 304.386 149.621 303.919 149.854 303.518C150.092 303.117 150.414 302.806 150.82 302.587C151.226 302.363 151.681 302.251 152.185 302.251C153.002 302.251 153.634 302.496 154.082 302.986C154.53 303.476 154.754 304.127 154.754 304.939L154.747 310H153.284ZM144.219 310V302.44H145.521V304.624H145.689V310H144.219ZM148.755 310L148.762 305.317C148.762 304.766 148.622 304.335 148.342 304.022C148.067 303.709 147.696 303.553 147.229 303.553C146.767 303.553 146.394 303.712 146.109 304.029C145.829 304.346 145.689 304.762 145.689 305.275L144.989 304.827C144.989 304.332 145.108 303.891 145.346 303.504C145.584 303.117 145.906 302.811 146.312 302.587C146.718 302.363 147.178 302.251 147.691 302.251C148.228 302.251 148.685 302.365 149.063 302.594C149.441 302.818 149.728 303.133 149.924 303.539C150.125 303.945 150.225 304.416 150.225 304.953L150.218 310H148.755ZM160.121 310.21C159.397 310.21 158.791 310.035 158.301 309.685C157.811 309.33 157.44 308.852 157.188 308.25C156.936 307.648 156.81 306.969 156.81 306.213C156.81 305.457 156.933 304.778 157.181 304.176C157.433 303.574 157.801 303.1 158.287 302.755C158.777 302.405 159.379 302.23 160.093 302.23C160.802 302.23 161.413 302.405 161.927 302.755C162.445 303.1 162.844 303.574 163.124 304.176C163.404 304.773 163.544 305.452 163.544 306.213C163.544 306.969 163.404 307.65 163.124 308.257C162.848 308.859 162.454 309.335 161.941 309.685C161.432 310.035 160.825 310.21 160.121 310.21ZM156.565 313.36V302.44H157.867V307.879H158.035V313.36H156.565ZM159.918 308.887C160.384 308.887 160.769 308.768 161.073 308.53C161.381 308.292 161.609 307.972 161.759 307.571C161.913 307.165 161.99 306.712 161.99 306.213C161.99 305.718 161.913 305.27 161.759 304.869C161.609 304.468 161.378 304.148 161.066 303.91C160.753 303.672 160.354 303.553 159.869 303.553C159.411 303.553 159.033 303.665 158.735 303.889C158.441 304.113 158.221 304.426 158.077 304.827C157.937 305.228 157.867 305.69 157.867 306.213C157.867 306.736 157.937 307.198 158.077 307.599C158.217 308 158.438 308.315 158.742 308.544C159.045 308.773 159.437 308.887 159.918 308.887ZM168.372 310.21C167.616 310.21 166.961 310.04 166.405 309.699C165.85 309.358 165.421 308.889 165.117 308.292C164.819 307.69 164.669 306.997 164.669 306.213C164.669 305.424 164.823 304.731 165.131 304.134C165.439 303.532 165.871 303.065 166.426 302.734C166.982 302.398 167.63 302.23 168.372 302.23C169.128 302.23 169.784 302.4 170.339 302.741C170.895 303.082 171.324 303.551 171.627 304.148C171.931 304.745 172.082 305.434 172.082 306.213C172.082 307.002 171.928 307.697 171.62 308.299C171.317 308.896 170.888 309.365 170.332 309.706C169.777 310.042 169.124 310.21 168.372 310.21ZM168.372 308.831C169.096 308.831 169.635 308.588 169.989 308.103C170.349 307.613 170.528 306.983 170.528 306.213C170.528 305.424 170.346 304.794 169.982 304.323C169.623 303.847 169.086 303.609 168.372 303.609C167.882 303.609 167.479 303.721 167.161 303.945C166.844 304.164 166.608 304.47 166.454 304.862C166.3 305.249 166.223 305.7 166.223 306.213C166.223 307.006 166.405 307.641 166.769 308.117C167.133 308.593 167.668 308.831 168.372 308.831ZM178.927 310V306.283C178.927 305.989 178.901 305.688 178.85 305.38C178.803 305.067 178.71 304.778 178.57 304.512C178.434 304.246 178.241 304.031 177.989 303.868C177.741 303.705 177.417 303.623 177.016 303.623C176.754 303.623 176.507 303.667 176.274 303.756C176.04 303.84 175.835 303.978 175.658 304.169C175.485 304.36 175.347 304.612 175.245 304.925C175.147 305.238 175.098 305.618 175.098 306.066L174.188 305.723C174.188 305.037 174.316 304.433 174.573 303.91C174.829 303.383 175.198 302.972 175.679 302.678C176.159 302.384 176.74 302.237 177.422 302.237C177.944 302.237 178.383 302.321 178.738 302.489C179.092 302.657 179.379 302.879 179.599 303.154C179.823 303.425 179.993 303.721 180.11 304.043C180.226 304.365 180.306 304.68 180.348 304.988C180.39 305.296 180.411 305.567 180.411 305.8V310H178.927ZM173.614 310V302.44H174.923V304.624H175.098V310H173.614ZM185.491 310.21C184.74 310.21 184.08 310.047 183.51 309.72C182.946 309.389 182.505 308.929 182.187 308.341C181.875 307.748 181.718 307.062 181.718 306.283C181.718 305.457 181.872 304.741 182.18 304.134C182.493 303.527 182.927 303.058 183.482 302.727C184.038 302.396 184.684 302.23 185.421 302.23C186.191 302.23 186.847 302.41 187.388 302.769C187.93 303.124 188.333 303.63 188.599 304.288C188.87 304.946 188.977 305.728 188.921 306.633H187.458V306.101C187.449 305.224 187.281 304.575 186.954 304.155C186.632 303.735 186.14 303.525 185.477 303.525C184.745 303.525 184.194 303.756 183.825 304.218C183.457 304.68 183.272 305.347 183.272 306.22C183.272 307.051 183.457 307.695 183.825 308.152C184.194 308.605 184.726 308.831 185.421 308.831C185.879 308.831 186.273 308.728 186.604 308.523C186.94 308.313 187.202 308.014 187.388 307.627L188.823 308.082C188.529 308.759 188.084 309.284 187.486 309.657C186.889 310.026 186.224 310.21 185.491 310.21ZM182.796 306.633V305.492H188.193V306.633H182.796ZM195.593 310V306.283C195.593 305.989 195.567 305.688 195.516 305.38C195.469 305.067 195.376 304.778 195.236 304.512C195.1 304.246 194.907 304.031 194.655 303.868C194.407 303.705 194.083 303.623 193.682 303.623C193.42 303.623 193.173 303.667 192.94 303.756C192.706 303.84 192.501 303.978 192.324 304.169C192.151 304.36 192.013 304.612 191.911 304.925C191.813 305.238 191.764 305.618 191.764 306.066L190.854 305.723C190.854 305.037 190.982 304.433 191.239 303.91C191.495 303.383 191.864 302.972 192.345 302.678C192.825 302.384 193.406 302.237 194.088 302.237C194.61 302.237 195.049 302.321 195.404 302.489C195.758 302.657 196.045 302.879 196.265 303.154C196.489 303.425 196.659 303.721 196.776 304.043C196.892 304.365 196.972 304.68 197.014 304.988C197.056 305.296 197.077 305.567 197.077 305.8V310H195.593ZM190.28 310V302.44H191.589V304.624H191.764V310H190.28ZM203.226 310C202.75 310.093 202.283 310.133 201.826 310.119C201.369 310.105 200.96 310.016 200.601 309.853C200.242 309.69 199.971 309.433 199.789 309.083C199.626 308.77 199.537 308.453 199.523 308.131C199.514 307.804 199.509 307.436 199.509 307.025V300.34H200.979V306.955C200.979 307.258 200.981 307.522 200.986 307.746C200.995 307.97 201.044 308.159 201.133 308.313C201.301 308.602 201.567 308.768 201.931 308.81C202.3 308.847 202.731 308.831 203.226 308.761V310ZM198.06 303.616V302.44H203.226V303.616H198.06Z" fill="#212534"/>
<path d="M47.032 310V308.824H48.208V310H47.032ZM50.6924 310V303.166C50.6924 302.998 50.7004 302.828 50.7164 302.656C50.7324 302.48 50.7684 302.31 50.8244 302.146C50.8804 301.978 50.9724 301.824 51.1004 301.684C51.2484 301.52 51.4104 301.404 51.5864 301.336C51.7624 301.264 51.9404 301.22 52.1204 301.204C52.3044 301.188 52.4784 301.18 52.6424 301.18H53.4644V302.068H52.7024C52.3864 302.068 52.1504 302.146 51.9944 302.302C51.8384 302.454 51.7604 302.686 51.7604 302.998V310H50.6924ZM49.5944 304.402V303.52H53.4644V304.402H49.5944ZM54.7244 302.374V301.27H55.7924V302.374H54.7244ZM54.7244 310V303.52H55.7924V310H54.7244ZM60.2198 313.06C59.8798 313.06 59.5478 313.008 59.2238 312.904C58.8998 312.8 58.6018 312.642 58.3298 312.43C58.0618 312.222 57.8378 311.958 57.6578 311.638L58.6358 311.122C58.7958 311.438 59.0218 311.668 59.3138 311.812C59.6098 311.956 59.9138 312.028 60.2258 312.028C60.6378 312.028 60.9798 311.952 61.2518 311.8C61.5238 311.652 61.7238 311.43 61.8518 311.134C61.9838 310.838 62.0478 310.47 62.0438 310.03V308.26H62.1698V303.52H63.1178V310.042C63.1178 310.218 63.1118 310.388 63.0998 310.552C63.0918 310.716 63.0718 310.878 63.0398 311.038C62.9558 311.498 62.7898 311.876 62.5418 312.172C62.2938 312.472 61.9738 312.694 61.5818 312.838C61.1898 312.986 60.7358 313.06 60.2198 313.06ZM60.1418 310.18C59.5378 310.18 59.0198 310.03 58.5878 309.73C58.1558 309.426 57.8218 309.016 57.5858 308.5C57.3538 307.984 57.2378 307.402 57.2378 306.754C57.2378 306.106 57.3538 305.524 57.5858 305.008C57.8218 304.492 58.1558 304.086 58.5878 303.79C59.0198 303.49 59.5358 303.34 60.1358 303.34C60.7478 303.34 61.2618 303.488 61.6778 303.784C62.0938 304.08 62.4078 304.486 62.6198 305.002C62.8358 305.518 62.9438 306.102 62.9438 306.754C62.9438 307.398 62.8358 307.98 62.6198 308.5C62.4078 309.016 62.0938 309.426 61.6778 309.73C61.2618 310.03 60.7498 310.18 60.1418 310.18ZM60.2738 309.202C60.7098 309.202 61.0678 309.098 61.3478 308.89C61.6278 308.678 61.8338 308.388 61.9658 308.02C62.1018 307.648 62.1698 307.226 62.1698 306.754C62.1698 306.274 62.1018 305.852 61.9658 305.488C61.8338 305.12 61.6298 304.834 61.3538 304.63C61.0778 304.422 60.7278 304.318 60.3038 304.318C59.8638 304.318 59.4998 304.426 59.2118 304.642C58.9278 304.858 58.7158 305.15 58.5758 305.518C58.4398 305.886 58.3718 306.298 58.3718 306.754C58.3718 307.214 58.4418 307.63 58.5818 308.002C58.7218 308.37 58.9318 308.662 59.2118 308.878C59.4958 309.094 59.8498 309.202 60.2738 309.202Z" fill="white"/>
<path d="M41.032 372V370.824H42.208V372H41.032ZM48.6884 372V368.754C48.6884 368.446 48.6604 368.15 48.6044 367.866C48.5524 367.582 48.4584 367.328 48.3224 367.104C48.1904 366.876 48.0104 366.696 47.7824 366.564C47.5584 366.432 47.2744 366.366 46.9304 366.366C46.6624 366.366 46.4184 366.412 46.1984 366.504C45.9824 366.592 45.7964 366.728 45.6404 366.912C45.4844 367.096 45.3624 367.328 45.2744 367.608C45.1904 367.884 45.1484 368.21 45.1484 368.586L44.4464 368.37C44.4464 367.742 44.5584 367.204 44.7824 366.756C45.0104 366.304 45.3284 365.958 45.7364 365.718C46.1484 365.474 46.6324 365.352 47.1884 365.352C47.6084 365.352 47.9664 365.418 48.2624 365.55C48.5584 365.682 48.8044 365.858 49.0004 366.078C49.1964 366.294 49.3504 366.538 49.4624 366.81C49.5744 367.078 49.6524 367.352 49.6964 367.632C49.7444 367.908 49.7684 368.17 49.7684 368.418V372H48.6884ZM44.0684 372V363.36H45.0284V368.13H45.1484V372H44.0684ZM54.9463 372C54.5623 372.076 54.1823 372.106 53.8063 372.09C53.4343 372.078 53.1023 372.004 52.8103 371.868C52.5183 371.728 52.2963 371.512 52.1443 371.22C52.0163 370.964 51.9463 370.706 51.9343 370.446C51.9263 370.182 51.9223 369.884 51.9223 369.552V363.72H52.9903V369.504C52.9903 369.768 52.9923 369.994 52.9963 370.182C53.0043 370.37 53.0463 370.532 53.1223 370.668C53.2663 370.924 53.4943 371.074 53.8063 371.118C54.1223 371.162 54.5023 371.15 54.9463 371.082V372ZM50.6083 366.402V365.52H54.9463V366.402H50.6083ZM64.0079 372L64.0139 367.854C64.0139 367.37 63.8839 366.992 63.6239 366.72C63.3679 366.444 63.0339 366.306 62.6219 366.306C62.3819 366.306 62.1539 366.362 61.9379 366.474C61.7219 366.582 61.5459 366.754 61.4099 366.99C61.2739 367.222 61.2059 367.52 61.2059 367.884L60.6419 367.656C60.6339 367.196 60.7279 366.794 60.9239 366.45C61.1239 366.102 61.3959 365.832 61.7399 365.64C62.0839 365.448 62.4719 365.352 62.9039 365.352C63.5799 365.352 64.1119 365.558 64.4999 365.97C64.8879 366.378 65.0819 366.928 65.0819 367.62L65.0759 372H64.0079ZM56.2559 372V365.52H57.2099V367.254H57.3299V372H56.2559ZM60.1379 372L60.1439 367.896C60.1439 367.4 60.0159 367.012 59.7599 366.732C59.5039 366.448 59.1639 366.306 58.7399 366.306C58.3199 366.306 57.9799 366.45 57.7199 366.738C57.4599 367.026 57.3299 367.408 57.3299 367.884L56.7659 367.548C56.7659 367.128 56.8659 366.752 57.0659 366.42C57.2659 366.088 57.5379 365.828 57.8819 365.64C58.2259 365.448 58.6159 365.352 59.0519 365.352C59.4879 365.352 59.8679 365.444 60.1919 365.628C60.5159 365.812 60.7659 366.076 60.9419 366.42C61.1179 366.76 61.2059 367.166 61.2059 367.638L61.1999 372H60.1379ZM66.7647 372V363.18H67.8327V372H66.7647Z" fill="white"/>
<path d="M87.98 372V361.92H91.137C91.2303 361.92 91.403 361.922 91.655 361.927C91.9117 361.932 92.1567 361.95 92.39 361.983C93.1787 362.081 93.8413 362.363 94.378 362.83C94.9193 363.297 95.3277 363.889 95.603 364.608C95.8783 365.322 96.016 366.106 96.016 366.96C96.016 367.819 95.8783 368.607 95.603 369.326C95.3277 370.04 94.9193 370.63 94.378 371.097C93.8413 371.559 93.1787 371.839 92.39 371.937C92.1567 371.97 91.9117 371.988 91.655 371.993C91.403 371.998 91.2303 372 91.137 372H87.98ZM89.478 370.607H91.137C91.2957 370.607 91.4847 370.602 91.704 370.593C91.9233 370.584 92.117 370.565 92.285 370.537C92.7983 370.439 93.2137 370.217 93.531 369.872C93.853 369.522 94.0887 369.093 94.238 368.584C94.3873 368.075 94.462 367.534 94.462 366.96C94.462 366.367 94.385 365.819 94.231 365.315C94.077 364.806 93.839 364.382 93.517 364.041C93.1997 363.696 92.789 363.476 92.285 363.383C92.117 363.35 91.921 363.332 91.697 363.327C91.4777 363.318 91.291 363.313 91.137 363.313H89.478V370.607ZM100.929 372.21C100.173 372.21 99.5173 372.04 98.962 371.699C98.4067 371.358 97.9773 370.889 97.674 370.292C97.3753 369.69 97.226 368.997 97.226 368.213C97.226 367.424 97.38 366.731 97.688 366.134C97.996 365.532 98.4277 365.065 98.983 364.734C99.5383 364.398 100.187 364.23 100.929 364.23C101.685 364.23 102.341 364.4 102.896 364.741C103.451 365.082 103.881 365.551 104.184 366.148C104.487 366.745 104.639 367.434 104.639 368.213C104.639 369.002 104.485 369.697 104.177 370.299C103.874 370.896 103.444 371.365 102.889 371.706C102.334 372.042 101.68 372.21 100.929 372.21ZM100.929 370.831C101.652 370.831 102.191 370.588 102.546 370.103C102.905 369.613 103.085 368.983 103.085 368.213C103.085 367.424 102.903 366.794 102.539 366.323C102.18 365.847 101.643 365.609 100.929 365.609C100.439 365.609 100.035 365.721 99.718 365.945C99.4007 366.164 99.165 366.47 99.011 366.862C98.857 367.249 98.78 367.7 98.78 368.213C98.78 369.006 98.962 369.641 99.326 370.117C99.69 370.593 100.224 370.831 100.929 370.831ZM107.514 372L105.204 364.433L106.653 364.44L108.235 369.627L109.831 364.44H111.091L112.687 369.627L114.269 364.44H115.711L113.401 372H112.225L110.461 366.526L108.69 372H107.514ZM122.27 372V368.283C122.27 367.989 122.245 367.688 122.193 367.38C122.147 367.067 122.053 366.778 121.913 366.512C121.778 366.246 121.584 366.031 121.332 365.868C121.085 365.705 120.761 365.623 120.359 365.623C120.098 365.623 119.851 365.667 119.617 365.756C119.384 365.84 119.179 365.978 119.001 366.169C118.829 366.36 118.691 366.612 118.588 366.925C118.49 367.238 118.441 367.618 118.441 368.066L117.531 367.723C117.531 367.037 117.66 366.433 117.916 365.91C118.173 365.383 118.542 364.972 119.022 364.678C119.503 364.384 120.084 364.237 120.765 364.237C121.288 364.237 121.727 364.321 122.081 364.489C122.436 364.657 122.723 364.879 122.942 365.154C123.166 365.425 123.337 365.721 123.453 366.043C123.57 366.365 123.649 366.68 123.691 366.988C123.733 367.296 123.754 367.567 123.754 367.8V372H122.27ZM116.957 372V364.44H118.266V366.624H118.441V372H116.957ZM125.718 372V361.71H127.181V372H125.718ZM132.566 372.21C131.81 372.21 131.154 372.04 130.599 371.699C130.043 371.358 129.614 370.889 129.311 370.292C129.012 369.69 128.863 368.997 128.863 368.213C128.863 367.424 129.017 366.731 129.325 366.134C129.633 365.532 130.064 365.065 130.62 364.734C131.175 364.398 131.824 364.23 132.566 364.23C133.322 364.23 133.977 364.4 134.533 364.741C135.088 365.082 135.517 365.551 135.821 366.148C136.124 366.745 136.276 367.434 136.276 368.213C136.276 369.002 136.122 369.697 135.814 370.299C135.51 370.896 135.081 371.365 134.526 371.706C133.97 372.042 133.317 372.21 132.566 372.21ZM132.566 370.831C133.289 370.831 133.828 370.588 134.183 370.103C134.542 369.613 134.722 368.983 134.722 368.213C134.722 367.424 134.54 366.794 134.176 366.323C133.816 365.847 133.28 365.609 132.566 365.609C132.076 365.609 131.672 365.721 131.355 365.945C131.037 366.164 130.802 366.47 130.648 366.862C130.494 367.249 130.417 367.7 130.417 368.213C130.417 369.006 130.599 369.641 130.963 370.117C131.327 370.593 131.861 370.831 132.566 370.831ZM139.949 372.21C139.389 372.21 138.92 372.107 138.542 371.902C138.164 371.692 137.877 371.417 137.681 371.076C137.49 370.731 137.394 370.353 137.394 369.942C137.394 369.559 137.462 369.223 137.597 368.934C137.732 368.645 137.933 368.4 138.199 368.199C138.465 367.994 138.792 367.828 139.179 367.702C139.515 367.604 139.895 367.518 140.32 367.443C140.745 367.368 141.19 367.298 141.657 367.233C142.128 367.168 142.595 367.102 143.057 367.037L142.525 367.331C142.534 366.738 142.408 366.3 142.147 366.015C141.89 365.726 141.447 365.581 140.817 365.581C140.42 365.581 140.056 365.674 139.725 365.861C139.394 366.043 139.163 366.346 139.032 366.771L137.667 366.351C137.854 365.702 138.208 365.187 138.731 364.804C139.258 364.421 139.958 364.23 140.831 364.23C141.508 364.23 142.096 364.347 142.595 364.58C143.099 364.809 143.468 365.173 143.701 365.672C143.822 365.919 143.897 366.181 143.925 366.456C143.953 366.731 143.967 367.028 143.967 367.345V372H142.672V370.271L142.924 370.495C142.611 371.074 142.212 371.505 141.727 371.79C141.246 372.07 140.654 372.21 139.949 372.21ZM140.208 371.013C140.623 371.013 140.98 370.941 141.279 370.796C141.578 370.647 141.818 370.458 142 370.229C142.182 370 142.301 369.762 142.357 369.515C142.436 369.291 142.481 369.039 142.49 368.759C142.504 368.479 142.511 368.255 142.511 368.087L142.987 368.262C142.525 368.332 142.105 368.395 141.727 368.451C141.349 368.507 141.006 368.563 140.698 368.619C140.395 368.67 140.124 368.733 139.886 368.808C139.685 368.878 139.506 368.962 139.347 369.06C139.193 369.158 139.069 369.277 138.976 369.417C138.887 369.557 138.843 369.727 138.843 369.928C138.843 370.124 138.892 370.306 138.99 370.474C139.088 370.637 139.237 370.768 139.438 370.866C139.639 370.964 139.895 371.013 140.208 371.013ZM148.788 372.21C148.083 372.21 147.474 372.035 146.961 371.685C146.452 371.335 146.058 370.859 145.778 370.257C145.502 369.65 145.365 368.969 145.365 368.213C145.365 367.452 145.505 366.773 145.785 366.176C146.065 365.574 146.461 365.1 146.975 364.755C147.493 364.405 148.106 364.23 148.816 364.23C149.53 364.23 150.129 364.405 150.615 364.755C151.105 365.1 151.473 365.574 151.721 366.176C151.973 366.778 152.099 367.457 152.099 368.213C152.099 368.969 151.973 369.648 151.721 370.25C151.469 370.852 151.098 371.33 150.608 371.685C150.118 372.035 149.511 372.21 148.788 372.21ZM148.991 370.887C149.471 370.887 149.863 370.773 150.167 370.544C150.47 370.315 150.692 370 150.832 369.599C150.972 369.198 151.042 368.736 151.042 368.213C151.042 367.69 150.969 367.228 150.825 366.827C150.685 366.426 150.465 366.113 150.167 365.889C149.873 365.665 149.497 365.553 149.04 365.553C148.554 365.553 148.155 365.672 147.843 365.91C147.53 366.148 147.297 366.468 147.143 366.869C146.993 367.27 146.919 367.718 146.919 368.213C146.919 368.712 146.993 369.165 147.143 369.571C147.297 369.972 147.525 370.292 147.829 370.53C148.137 370.768 148.524 370.887 148.991 370.887ZM151.042 372V366.561H150.874V361.92H152.344V372H151.042ZM157.105 372V361.92H163.545V363.299H158.568V366.127H162.705V367.506H158.568V370.621H163.545V372H157.105ZM165.366 372V361.71H166.829V372H165.366ZM172.284 372.21C171.533 372.21 170.873 372.047 170.303 371.72C169.739 371.389 169.298 370.929 168.98 370.341C168.668 369.748 168.511 369.062 168.511 368.283C168.511 367.457 168.665 366.741 168.973 366.134C169.286 365.527 169.72 365.058 170.275 364.727C170.831 364.396 171.477 364.23 172.214 364.23C172.984 364.23 173.64 364.41 174.181 364.769C174.723 365.124 175.126 365.63 175.392 366.288C175.663 366.946 175.77 367.728 175.714 368.633H174.251V368.101C174.242 367.224 174.074 366.575 173.747 366.155C173.425 365.735 172.933 365.525 172.27 365.525C171.538 365.525 170.987 365.756 170.618 366.218C170.25 366.68 170.065 367.347 170.065 368.22C170.065 369.051 170.25 369.695 170.618 370.152C170.987 370.605 171.519 370.831 172.214 370.831C172.672 370.831 173.066 370.728 173.397 370.523C173.733 370.313 173.995 370.014 174.181 369.627L175.616 370.082C175.322 370.759 174.877 371.284 174.279 371.657C173.682 372.026 173.017 372.21 172.284 372.21ZM169.589 368.633V367.492H174.986V368.633H169.589ZM186.138 372L186.145 367.289C186.145 366.743 186.005 366.318 185.725 366.015C185.445 365.707 185.076 365.553 184.619 365.553C184.339 365.553 184.082 365.618 183.849 365.749C183.62 365.875 183.433 366.066 183.289 366.323C183.149 366.575 183.079 366.892 183.079 367.275L182.372 366.918C182.362 366.386 182.474 365.919 182.708 365.518C182.946 365.117 183.268 364.806 183.674 364.587C184.08 364.363 184.535 364.251 185.039 364.251C185.855 364.251 186.488 364.496 186.936 364.986C187.384 365.476 187.608 366.127 187.608 366.939L187.601 372H186.138ZM177.073 372V364.44H178.375V366.624H178.543V372H177.073ZM181.609 372L181.616 367.317C181.616 366.766 181.476 366.335 181.196 366.022C180.92 365.709 180.549 365.553 180.083 365.553C179.621 365.553 179.247 365.712 178.963 366.029C178.683 366.346 178.543 366.762 178.543 367.275L177.843 366.827C177.843 366.332 177.962 365.891 178.2 365.504C178.438 365.117 178.76 364.811 179.166 364.587C179.572 364.363 180.031 364.251 180.545 364.251C181.081 364.251 181.539 364.365 181.917 364.594C182.295 364.818 182.582 365.133 182.778 365.539C182.978 365.945 183.079 366.416 183.079 366.953L183.072 372H181.609ZM192.683 372.21C191.931 372.21 191.271 372.047 190.702 371.72C190.137 371.389 189.696 370.929 189.379 370.341C189.066 369.748 188.91 369.062 188.91 368.283C188.91 367.457 189.064 366.741 189.372 366.134C189.684 365.527 190.118 365.058 190.674 364.727C191.229 364.396 191.875 364.23 192.613 364.23C193.383 364.23 194.038 364.41 194.58 364.769C195.121 365.124 195.525 365.63 195.791 366.288C196.061 366.946 196.169 367.728 196.113 368.633H194.65V368.101C194.64 367.224 194.472 366.575 194.146 366.155C193.824 365.735 193.331 365.525 192.669 365.525C191.936 365.525 191.385 365.756 191.017 366.218C190.648 366.68 190.464 367.347 190.464 368.22C190.464 369.051 190.648 369.695 191.017 370.152C191.385 370.605 191.917 370.831 192.613 370.831C193.07 370.831 193.464 370.728 193.796 370.523C194.132 370.313 194.393 370.014 194.58 369.627L196.015 370.082C195.721 370.759 195.275 371.284 194.678 371.657C194.08 372.026 193.415 372.21 192.683 372.21ZM189.988 368.633V367.492H195.385V368.633H189.988ZM202.784 372V368.283C202.784 367.989 202.758 367.688 202.707 367.38C202.66 367.067 202.567 366.778 202.427 366.512C202.292 366.246 202.098 366.031 201.846 365.868C201.599 365.705 201.274 365.623 200.873 365.623C200.612 365.623 200.364 365.667 200.131 365.756C199.898 365.84 199.692 365.978 199.515 366.169C199.342 366.36 199.205 366.612 199.102 366.925C199.004 367.238 198.955 367.618 198.955 368.066L198.045 367.723C198.045 367.037 198.173 366.433 198.43 365.91C198.687 365.383 199.055 364.972 199.536 364.678C200.017 364.384 200.598 364.237 201.279 364.237C201.802 364.237 202.24 364.321 202.595 364.489C202.95 364.657 203.237 364.879 203.456 365.154C203.68 365.425 203.85 365.721 203.967 366.043C204.084 366.365 204.163 366.68 204.205 366.988C204.247 367.296 204.268 367.567 204.268 367.8V372H202.784ZM197.471 372V364.44H198.78V366.624H198.955V372H197.471ZM210.417 372C209.941 372.093 209.475 372.133 209.017 372.119C208.56 372.105 208.152 372.016 207.792 371.853C207.433 371.69 207.162 371.433 206.98 371.083C206.817 370.77 206.728 370.453 206.714 370.131C206.705 369.804 206.7 369.436 206.7 369.025V362.34H208.17V368.955C208.17 369.258 208.173 369.522 208.177 369.746C208.187 369.97 208.236 370.159 208.324 370.313C208.492 370.602 208.758 370.768 209.122 370.81C209.491 370.847 209.923 370.831 210.417 370.761V372ZM205.251 365.616V364.44H210.417V365.616H205.251Z" fill="#212534"/>
<path d="M250.059 310.5C249.609 310.5 249.229 310.345 248.918 310.034C248.607 309.723 248.452 309.342 248.452 308.892V297.508C248.452 297.058 248.607 296.677 248.918 296.366C249.229 296.055 249.609 295.9 250.059 295.9H259.044C259.494 295.9 259.874 296.055 260.185 296.366C260.496 296.677 260.651 297.058 260.651 297.508V308.892C260.651 309.342 260.496 309.723 260.185 310.034C259.874 310.345 259.494 310.5 259.044 310.5H250.059ZM246.959 313.6C246.509 313.6 246.129 313.445 245.818 313.134C245.507 312.823 245.352 312.442 245.352 311.992V299.958C245.352 299.773 245.413 299.619 245.537 299.494C245.66 299.37 245.813 299.308 245.996 299.308C246.179 299.308 246.334 299.37 246.461 299.494C246.588 299.619 246.652 299.773 246.652 299.958V311.992C246.652 312.069 246.684 312.14 246.748 312.204C246.812 312.268 246.882 312.3 246.959 312.3H256.594C256.778 312.3 256.933 312.362 257.057 312.485C257.182 312.608 257.244 312.762 257.244 312.945C257.244 313.128 257.182 313.283 257.057 313.41C256.933 313.536 256.778 313.6 256.594 313.6H246.959Z" fill="url(#paint13_linear_850_13)"/>
<g clip-path="url(#clip0_850_13)">
<path d="M257.59 364H256V359C256 358.45 255.55 358 255 358H251C250.45 358 250 358.45 250 359V364H248.41C247.52 364 247.07 365.08 247.7 365.71L252.29 370.3C252.68 370.69 253.31 370.69 253.7 370.3L258.29 365.71C258.92 365.08 258.48 364 257.59 364ZM246 374C246 374.55 246.45 375 247 375H259C259.55 375 260 374.55 260 374C260 373.45 259.55 373 259 373H247C246.45 373 246 373.45 246 374Z" fill="url(#paint14_linear_850_13)"/>
</g>
<defs>
<filter id="filter0_d_850_13" x="125" y="0" width="308" height="420" filterUnits="userSpaceOnUse" color-interpolation-filters="sRGB">
<feFlood flood-opacity="0" result="BackgroundImageFix"/>
<feColorMatrix in="SourceAlpha" type="matrix" values="0 0 0 0 0 0 0 0 0 0 0 0 0 0 0 0 0 0 127 0" result="hardAlpha"/>
<feOffset dy="8"/>
<feGaussianBlur stdDeviation="14.5"/>
<feComposite in2="hardAlpha" operator="out"/>
<feColorMatrix type="matrix" values="0 0 0 0 0.104611 0 0 0 0 0.278863 0 0 0 0 0.896667 0 0 0 0.16 0"/>
<feBlend mode="normal" in2="BackgroundImageFix" result="effect1_dropShadow_850_13"/>
<feBlend mode="normal" in="SourceGraphic" in2="effect1_dropShadow_850_13" result="shape"/>
</filter>
<filter id="filter1_d_850_13" x="0" y="258" width="308" height="110" filterUnits="userSpaceOnUse" color-interpolation-filters="sRGB">
<feFlood flood-opacity="0" result="BackgroundImageFix"/>
<feColorMatrix in="SourceAlpha" type="matrix" values="0 0 0 0 0 0 0 0 0 0 0 0 0 0 0 0 0 0 127 0" result="hardAlpha"/>
<feOffset dy="8"/>
<feGaussianBlur stdDeviation="14.5"/>
<feComposite in2="hardAlpha" operator="out"/>
<feColorMatrix type="matrix" values="0 0 0 0 0.104611 0 0 0 0 0.278863 0 0 0 0 0.896667 0 0 0 0.16 0"/>
<feBlend mode="normal" in2="BackgroundImageFix" result="effect1_dropShadow_850_13"/>
<feBlend mode="normal" in="SourceGraphic" in2="effect1_dropShadow_850_13" result="shape"/>
</filter>
<filter id="filter2_d_850_13" x="0" y="320" width="308" height="110" filterUnits="userSpaceOnUse" color-interpolation-filters="sRGB">
<feFlood flood-opacity="0" result="BackgroundImageFix"/>
<feColorMatrix in="SourceAlpha" type="matrix" values="0 0 0 0 0 0 0 0 0 0 0 0 0 0 0 0 0 0 127 0" result="hardAlpha"/>
<feOffset dy="8"/>
<feGaussianBlur stdDeviation="14.5"/>
<feComposite in2="hardAlpha" operator="out"/>
<feColorMatrix type="matrix" values="0 0 0 0 0.104611 0 0 0 0 0.278863 0 0 0 0 0.896667 0 0 0 0.16 0"/>
<feBlend mode="normal" in2="BackgroundImageFix" result="effect1_dropShadow_850_13"/>
<feBlend mode="normal" in="SourceGraphic" in2="effect1_dropShadow_850_13" result="shape"/>
</filter>
<linearGradient id="paint0_linear_850_13" x1="279" y1="49" x2="279" y2="190.448" gradientUnits="userSpaceOnUse">
<stop stop-color="#FAFAFF"/>
<stop offset="1" stop-color="#D6E6FF"/>
</linearGradient>
<linearGradient id="paint1_linear_850_13" x1="278.077" y1="59.6746" x2="278.077" y2="74.3544" gradientUnits="userSpaceOnUse">
<stop stop-color="white"/>
<stop offset="1" stop-color="#F5FFB7"/>
</linearGradient>
<linearGradient id="paint2_linear_850_13" x1="279" y1="49" x2="279" y2="64.5045" gradientUnits="userSpaceOnUse">
<stop stop-color="#F2F2FF"/>
<stop offset="1" stop-color="#CECFFF"/>
</linearGradient>
<linearGradient id="paint3_linear_850_13" x1="280.079" y1="153.084" x2="280.079" y2="183.774" gradientUnits="userSpaceOnUse">
<stop stop-color="white" stop-opacity="0.46"/>
<stop offset="1" stop-color="#6C9EFF"/>
</linearGradient>
<linearGradient id="paint4_linear_850_13" x1="339.467" y1="71.8872" x2="339.467" y2="130.402" gradientUnits="userSpaceOnUse">
<stop stop-color="#FDFDFF"/>
<stop offset="1" stop-color="#C6C2FF"/>
</linearGradient>
<linearGradient id="paint5_linear_850_13" x1="285.017" y1="205" x2="285.017" y2="233.574" gradientUnits="userSpaceOnUse">
<stop stop-color="#8FDEFF"/>
<stop offset="1" stop-color="#3D8FCA" stop-opacity="0.1"/>
</linearGradient>
<linearGradient id="paint6_linear_850_13" x1="323.286" y1="205" x2="323.286" y2="233.574" gradientUnits="userSpaceOnUse">
<stop stop-color="#8FDEFF"/>
<stop offset="1" stop-color="#3D8FCA" stop-opacity="0.1"/>
</linearGradient>
<linearGradient id="paint7_linear_850_13" x1="361.286" y1="205" x2="361.286" y2="233.574" gradientUnits="userSpaceOnUse">
<stop stop-color="#8FDEFF"/>
<stop offset="1" stop-color="#3D8FCA" stop-opacity="0.1"/>
</linearGradient>
<linearGradient id="paint8_linear_850_13" x1="222.601" y1="208.007" x2="222.601" y2="268.163" gradientUnits="userSpaceOnUse">
<stop stop-color="white" stop-opacity="0.46"/>
<stop offset="1" stop-color="#6C9EFF"/>
</linearGradient>
<linearGradient id="paint9_linear_850_13" x1="392.171" y1="321.105" x2="320.158" y2="230.162" gradientUnits="userSpaceOnUse">
<stop stop-color="#FCC380"/>
<stop offset="1" stop-color="#FF7B1C"/>
</linearGradient>
<linearGradient id="paint10_linear_850_13" x1="209.071" y1="284.707" x2="209.071" y2="323.809" gradientUnits="userSpaceOnUse">
<stop stop-color="#F3F6FC"/>
<stop offset="1" stop-color="#9EBFFF"/>
</linearGradient>
<linearGradient id="paint11_linear_850_13" x1="81.1451" y1="323.644" x2="44.0537" y2="288.179" gradientUnits="userSpaceOnUse">
<stop stop-color="#FCC380"/>
<stop offset="1" stop-color="#FF7B1C"/>
</linearGradient>
<linearGradient id="paint12_linear_850_13" x1="75" y1="387" x2="39" y2="347" gradientUnits="userSpaceOnUse">
<stop stop-color="#A5D4FF"/>
<stop offset="1" stop-color="#0065FD"/>
</linearGradient>
<linearGradient id="paint13_linear_850_13" x1="263.002" y1="313" x2="246.866" y2="299.664" gradientUnits="userSpaceOnUse">
<stop stop-color="#FCC380"/>
<stop offset="1" stop-color="#FF7B1C"/>
</linearGradient>
<linearGradient id="paint14_linear_850_13" x1="260" y1="375" x2="244.675" y2="360.978" gradientUnits="userSpaceOnUse">
<stop stop-color="#A5D4FF"/>
<stop offset="1" stop-color="#0065FD"/>
</linearGradient>
<clipPath id="clip0_850_13">
<rect width="24" height="24" fill="white" transform="translate(241 355)"/>
</clipPath>
</defs>
</svg>
