<svg width="28" height="28" viewBox="0 0 28 28" fill="none" xmlns="http://www.w3.org/2000/svg">
<path d="M8.61986 13.125H21.875C22.1233 13.125 22.3312 13.2087 22.4987 13.3763C22.6662 13.5438 22.75 13.7517 22.75 14C22.75 14.2482 22.6662 14.4561 22.4987 14.6237C22.3312 14.7912 22.1233 14.8749 21.875 14.8749H8.61986L12.4609 18.716C12.6344 18.8895 12.7201 19.0926 12.7178 19.3251C12.7156 19.5577 12.6299 19.7645 12.4609 19.9455C12.2799 20.1264 12.072 20.2199 11.8372 20.2259C11.6024 20.2319 11.3945 20.1444 11.2135 19.9634L5.98821 14.7381C5.87903 14.6289 5.802 14.5137 5.75712 14.3926C5.71224 14.2714 5.6898 14.1406 5.6898 14C5.6898 13.8594 5.71224 13.7285 5.75712 13.6073C5.802 13.4862 5.87903 13.371 5.98821 13.2618L11.2135 8.03652C11.387 7.86301 11.593 7.77738 11.8316 7.77962C12.0702 7.78187 12.2799 7.87348 12.4609 8.05445C12.6299 8.23544 12.7174 8.44036 12.7234 8.6692C12.7294 8.89804 12.6419 9.10295 12.4609 9.28392L8.61986 13.125Z" fill="#0072EF"/>
</svg>
