<svg width="20" height="20" viewBox="0 0 20 20" fill="none" xmlns="http://www.w3.org/2000/svg">
<circle cx="10" cy="10" r="10" fill="#0072EF"/>
<mask id="mask0_197_73" style="mask-type:alpha" maskUnits="userSpaceOnUse" x="1" y="1" width="17" height="17">
<rect x="1.99902" y="1.99984" width="16" height="16" fill="#D9D9D9"/>
</mask>
<g mask="url(#mask0_197_73)">
<path d="M8.36615 12.0999L14.0162 6.44992C14.1495 6.31659 14.3078 6.24992 14.4912 6.24992C14.6745 6.24992 14.8328 6.31659 14.9662 6.44992C15.0995 6.58326 15.1662 6.74159 15.1662 6.92492C15.1662 7.10826 15.0995 7.26659 14.9662 7.39992L8.83282 13.5333C8.69949 13.6666 8.54393 13.7333 8.36615 13.7333C8.18838 13.7333 8.03282 13.6666 7.89949 13.5333L5.03282 10.6666C4.89949 10.5333 4.8356 10.3749 4.84115 10.1916C4.84671 10.0083 4.91615 9.84992 5.04949 9.71659C5.18282 9.58326 5.34115 9.51659 5.52449 9.51659C5.70782 9.51659 5.86615 9.58326 5.99949 9.71659L8.36615 12.0999Z" fill="white"/>
</g>
</svg>
