<svg width="26" height="27" viewBox="0 0 26 27" fill="none" xmlns="http://www.w3.org/2000/svg">
<path d="M22.7189 9.95403L21.9064 10.7665C20.8753 10.391 19.7862 10.2001 18.6889 10.2027C16.1764 10.2074 13.7682 11.2075 11.9917 12.9841C10.2151 14.7607 9.21496 17.1688 9.21023 19.6813C9.21023 20.8074 9.40523 21.8913 9.77411 22.8988L8.45136 24.2215L5.57998 21.3502L2.77361 18.5438L2.85973 18.4577L16.4334 4.89378L17.0297 4.29741L19.7711 7.02741L22.7075 9.94103L22.7189 9.95403ZM2.32186 19.6244L0.045234 25.9018C-0.00518453 26.0485 -0.0136448 26.2064 0.0208057 26.3577C0.0552563 26.509 0.13125 26.6477 0.240234 26.7582C0.351241 26.8657 0.489631 26.9408 0.640341 26.9752C0.79105 27.0096 0.948304 27.0019 1.09498 26.9532L7.37236 24.6765L2.32186 19.6244ZM24.7875 2.14266C24.0189 1.38378 23 1.00516 21.9389 0.972656C21.4117 0.977578 20.8906 1.08631 20.4055 1.29264C19.9203 1.49896 19.4806 1.79885 19.1114 2.17516L17.7886 3.52553L17.7951 3.53041L20.5365 6.26041L23.4712 9.17241L23.4761 9.17891L24.82 7.80741C25.5675 7.05991 25.9786 6.05241 25.9786 5.00103V4.95716C25.9784 4.43221 25.8729 3.91263 25.6683 3.42919C25.4637 2.94575 25.1642 2.50827 24.7875 2.14266Z" fill="#0072EF"/>
<path d="M18.6875 12.3701C14.6559 12.3701 11.375 15.651 11.375 19.6826C11.375 23.7142 14.6559 26.9951 18.6875 26.9951C22.7191 26.9951 26 23.7142 26 19.6826C26 15.651 22.7191 12.3701 18.6875 12.3701ZM21.6661 20.7649H19.7698V22.6612C19.7698 22.9487 19.6556 23.2244 19.4523 23.4277C19.249 23.6309 18.9733 23.7451 18.6859 23.7451C18.3984 23.7451 18.1227 23.6309 17.9195 23.4277C17.7162 23.2244 17.602 22.9487 17.602 22.6612V20.7649H15.7056C15.4182 20.7649 15.1425 20.6507 14.9392 20.4474C14.7359 20.2441 14.6217 19.9685 14.6217 19.681C14.6217 19.3935 14.7359 19.1178 14.9392 18.9146C15.1425 18.7113 15.4182 18.5971 15.7056 18.5971H17.602V16.7007C17.602 16.4133 17.7162 16.1376 17.9195 15.9343C18.1227 15.7311 18.3984 15.6169 18.6859 15.6169C18.9733 15.6169 19.249 15.7311 19.4523 15.9343C19.6556 16.1376 19.7698 16.4133 19.7698 16.7007V18.5971H21.6661C21.9536 18.5971 22.2293 18.7113 22.4325 18.9146C22.6358 19.1178 22.75 19.3935 22.75 19.681C22.75 19.9685 22.6358 20.2441 22.4325 20.4474C22.2293 20.6507 21.9536 20.7649 21.6661 20.7649Z" fill="#0072EF"/>
</svg>
