<svg width="28" height="22" viewBox="0 0 28 22" fill="none" xmlns="http://www.w3.org/2000/svg">
<path fill-rule="evenodd" clip-rule="evenodd" d="M14 1C12.6739 1 11.4021 1.47411 10.4645 2.31802C9.52678 3.16193 9 4.30653 9 5.5C9 6.69347 9.52678 7.83807 10.4645 8.68198C11.4021 9.52589 12.6739 10 14 10C15.3261 10 16.5978 9.52589 17.5355 8.68198C18.4732 7.83807 19 6.69347 19 5.5C19 4.30653 18.4732 3.16193 17.5355 2.31802C16.5978 1.47411 15.3261 1 14 1Z" fill="#0072EF"/>
<path fill-rule="evenodd" clip-rule="evenodd" d="M21.7395 2.61577C21.398 2.61577 21.0739 2.6747 20.7723 2.78043C20.652 2.82532 20.5239 2.8458 20.3956 2.84067C20.2673 2.83555 20.1413 2.80492 20.025 2.75059C19.9086 2.69625 19.8042 2.61929 19.718 2.52419C19.6317 2.42909 19.5652 2.31776 19.5224 2.19669C19.4795 2.07562 19.4613 1.94724 19.4686 1.81904C19.4759 1.69083 19.5087 1.56537 19.565 1.44997C19.6214 1.33457 19.7001 1.23155 19.7967 1.1469C19.8933 1.06226 20.0057 0.997691 20.1275 0.956967C20.7913 0.723548 21.498 0.637783 22.1983 0.705661C22.8987 0.773539 23.5758 0.993424 24.1824 1.34997C24.7889 1.70652 25.3104 2.19114 25.7104 2.77001C26.1104 3.34888 26.3792 4.00806 26.4982 4.70156C26.6171 5.39505 26.5833 6.10615 26.3991 6.78523C26.2149 7.4643 25.8847 8.095 25.4316 8.63331C24.9785 9.17162 24.4134 9.60457 23.7757 9.90195C23.138 10.1993 22.4431 10.354 21.7395 10.3551C21.6125 10.3551 21.4867 10.3301 21.3694 10.2815C21.252 10.2329 21.1454 10.1616 21.0556 10.0718C20.9658 9.982 20.8945 9.87538 20.8459 9.75803C20.7973 9.64068 20.7723 9.51491 20.7723 9.3879C20.7723 9.26089 20.7973 9.13511 20.8459 9.01777C20.8945 8.90042 20.9658 8.7938 21.0556 8.70399C21.1454 8.61417 21.252 8.54293 21.3694 8.49432C21.4867 8.44572 21.6125 8.4207 21.7395 8.4207C22.5095 8.4207 23.248 8.11482 23.7925 7.57033C24.3369 7.02585 24.6428 6.28738 24.6428 5.51737C24.6428 4.74735 24.3369 4.00888 23.7925 3.4644C23.248 2.91992 22.5095 2.61403 21.7395 2.61403V2.61577ZM7.22803 9.3879C7.22803 9.92177 6.7947 10.3551 6.26083 10.3551C5.55765 10.3533 4.86332 10.1981 4.22625 9.9004C3.58918 9.60272 3.02469 9.16968 2.57214 8.63148C2.11958 8.09327 1.78983 7.46285 1.60589 6.78414C1.42194 6.10544 1.38823 5.39479 1.50708 4.70171C1.62594 4.00864 1.89451 3.34983 2.29408 2.77119C2.69364 2.19256 3.21459 1.70802 3.82062 1.35135C4.42664 0.994687 5.10315 0.774471 5.80301 0.706058C6.50286 0.637645 7.20921 0.722679 7.87283 0.955233C7.99268 0.997572 8.10301 1.0631 8.19753 1.14808C8.29205 1.23306 8.36891 1.33582 8.42371 1.4505C8.47852 1.56518 8.51019 1.68953 8.51694 1.81646C8.52369 1.94338 8.50537 2.07039 8.46303 2.19023C8.42069 2.31008 8.35517 2.42041 8.27019 2.51493C8.18521 2.60945 8.08245 2.68631 7.96777 2.74111C7.85309 2.79592 7.72874 2.8276 7.60181 2.83434C7.47489 2.84109 7.34788 2.82277 7.22803 2.78043C6.82989 2.64108 6.40615 2.5902 5.98634 2.63136C5.56652 2.67251 5.16073 2.80471 4.79723 3.01873C4.43373 3.23275 4.12127 3.52346 3.88161 3.87059C3.64196 4.21773 3.48087 4.61294 3.40957 5.0287C3.33828 5.44446 3.35849 5.87076 3.4688 6.27791C3.57912 6.68506 3.77688 7.06326 4.0483 7.38616C4.31973 7.70906 4.65829 7.9689 5.04041 8.14757C5.42253 8.32624 5.83901 8.41945 6.26083 8.4207C6.7947 8.4207 7.22803 8.85403 7.22803 9.3879Z" fill="#0072EF"/>
<path fill-rule="evenodd" clip-rule="evenodd" d="M13.9987 11.6445C12.0227 11.6445 10.3067 12.7157 9.12109 14.2983C7.93203 15.8825 7.22656 18.0249 7.22656 20.3528C7.22656 20.8867 7.6599 21.32 8.19376 21.32H19.8036C20.3375 21.32 20.7708 20.8867 20.7708 20.3528C20.7708 18.0249 20.0654 15.8825 18.8763 14.2983C17.689 12.7157 15.9747 11.6445 13.9987 11.6445Z" fill="#0072EF"/>
<path fill-rule="evenodd" clip-rule="evenodd" d="M20.1268 12.6117C20.1268 12.0779 20.5601 11.6445 21.094 11.6445C23.07 11.6445 24.786 12.7157 25.9716 14.2983C27.1607 15.8825 27.8661 18.0249 27.8661 20.3528C27.8661 20.8867 27.4328 21.32 26.8989 21.32H23.0284C22.7717 21.32 22.5254 21.218 22.3439 21.0365C22.1623 20.8549 22.0603 20.6087 22.0603 20.3519C22.0603 20.0952 22.1623 19.849 22.3439 19.6674C22.5254 19.4859 22.7717 19.3839 23.0284 19.3839H25.8815C25.722 17.8343 25.1829 16.4719 24.4255 15.4596C23.512 14.2428 22.3247 13.5807 21.094 13.5807C20.8375 13.5807 20.5915 13.4788 20.4101 13.2974C20.2287 13.116 20.1268 12.8682 20.1268 12.6117ZM7.87215 12.6117C7.87215 12.3552 7.77024 12.1092 7.58886 11.9278C7.40747 11.7464 7.16146 11.6445 6.90495 11.6445C4.92895 11.6445 3.21295 12.7157 2.02561 14.2983C0.838279 15.8825 0.132812 18.0249 0.132812 20.3528C0.132812 20.8867 0.566145 21.32 1.10001 21.32H4.97055C5.22729 21.32 5.47352 21.218 5.65507 21.0365C5.83662 20.8549 5.93861 20.6087 5.93861 20.3519C5.93861 20.0952 5.83662 19.849 5.65507 19.6674C5.47352 19.4859 5.22729 19.3839 4.97055 19.3839H2.11748C2.27695 17.8343 2.81601 16.4719 3.57348 15.4596C4.48695 14.2428 5.67428 13.5807 6.90495 13.5807C7.43881 13.5807 7.87215 13.1456 7.87215 12.6117Z" fill="#0072EF"/>
</svg>
