<svg width="24" height="24" viewBox="0 0 24 24" fill="none" xmlns="http://www.w3.org/2000/svg">
<g clip-path="url(#clip0_225_144)">
<path d="M19.4932 8.12025C19.4947 8.16412 19.5 8.2065 19.5 8.25V15.75C19.5 18.2355 17.4855 20.25 15 20.25H7.5C5.01487 20.25 3 18.2355 3 15.75V8.25C3 5.76487 5.01487 3.75 7.5 3.75H15C15.2149 3.75 15.4249 3.77025 15.6319 3.7995C16.6868 2.85845 17.8383 2.03172 19.0672 1.33312C18.2656 0.949957 17.3885 0.750729 16.5 0.75H6C2.6865 0.75 0 3.4365 0 6.75V17.25C0 20.5639 2.6865 23.25 6 23.25H16.5C19.8139 23.25 22.5 20.5639 22.5 17.25V6.75C22.5 6.52388 22.485 6.3015 22.461 6.08212C21.4095 6.60112 20.4094 7.29338 19.4932 8.12025Z" fill="#0072EF"/>
<path d="M22.7801 1.39233C22.6286 1.39233 22.4651 1.42083 22.2923 1.48383C17.2819 3.30483 13.0785 7.72908 11.2384 12.7983C10.1573 11.4888 8.84551 10.4186 7.22926 9.58871C7.02361 9.4798 6.79483 9.4218 6.56213 9.41958C5.27588 9.41958 4.42538 11.307 5.80988 12.0176C8.03926 13.1625 9.44926 14.7225 10.5773 16.9455C10.8086 17.403 11.3044 17.625 11.7998 17.625C12.4193 17.625 13.0399 17.2777 13.1475 16.6098C13.9965 11.3343 17.9194 6.05696 23.0404 4.19583C24.5591 3.64383 24.1234 1.39233 22.7801 1.39233Z" fill="#0072EF"/>
</g>
<defs>
<clipPath id="clip0_225_144">
<rect width="24" height="24" fill="white"/>
</clipPath>
</defs>
</svg>
