<svg width="32" height="32" viewBox="0 0 32 32" fill="none" xmlns="http://www.w3.org/2000/svg">
<path d="M28.2223 23.3021H3.77874C2.60626 23.3021 1.65234 22.3482 1.65234 21.1757V6.36615C1.65234 5.19367 2.60626 4.23975 3.77874 4.23975H28.2226C29.3951 4.23975 30.349 5.19367 30.349 6.36615V21.1761C30.349 22.3485 29.3951 23.3025 28.2226 23.3025L28.2223 23.3021ZM3.77874 5.51975C3.31218 5.51975 2.93234 5.89959 2.93234 6.36615V21.1761C2.93234 21.6426 3.31218 22.0225 3.77874 22.0225H28.2226C28.6891 22.0225 29.069 21.6426 29.069 21.1761V6.36615C29.069 5.89959 28.6891 5.51975 28.2226 5.51975H3.77874Z" fill="#0072EF"/>
<path d="M24.4552 27.7604H7.54449C6.58417 27.7604 5.80273 26.9789 5.80273 26.0186C5.80273 25.0583 6.58417 24.2769 7.54449 24.2769H24.4555C25.4159 24.2769 26.1973 25.0583 26.1973 26.0186C26.1973 26.9789 25.4159 27.7604 24.4555 27.7604H24.4552ZM7.54417 25.5569C7.28945 25.5569 7.08241 25.7639 7.08241 26.0186C7.08241 26.2733 7.28945 26.4804 7.54417 26.4804H24.4552C24.7099 26.4804 24.917 26.2733 24.917 26.0186C24.917 25.7639 24.7099 25.5569 24.4552 25.5569H7.54417Z" fill="#0072EF"/>
<path d="M14.0179 19.1603C13.6998 19.1603 13.382 19.0768 13.0921 18.9094C12.5123 18.5747 12.166 17.9753 12.166 17.3059V10.2368C12.166 9.56732 12.5123 8.96796 13.0921 8.63324C13.6716 8.29852 14.3638 8.29884 14.9436 8.63324L21.0655 12.1676C21.6454 12.502 21.9913 13.1017 21.9913 13.7712C21.9913 14.4406 21.6451 15.04 21.0655 15.3747L14.9436 18.9091C14.6537 19.0764 14.3359 19.1603 14.0179 19.1603ZM14.0207 9.663C13.8889 9.663 13.7843 9.71132 13.7321 9.74172C13.646 9.79132 13.4463 9.93884 13.4463 10.2368V17.3059C13.4463 17.6038 13.6463 17.7513 13.7321 17.8009C13.8179 17.8505 14.0457 17.9494 14.3036 17.8009L20.4255 14.2665C20.6835 14.1177 20.7113 13.8707 20.7113 13.7715C20.7113 13.6723 20.6835 13.4252 20.4255 13.2764L14.3036 9.74204C14.2025 9.68348 14.1059 9.66332 14.0207 9.66332V9.663Z" fill="#0072EF"/>
</svg>
