<svg width="32" height="32" viewBox="0 0 32 32" fill="none" xmlns="http://www.w3.org/2000/svg">
<path d="M11.5707 23.0002C11.3181 22.9993 11.0751 22.9029 10.8907 22.7302C9.97749 21.8632 9.2503 20.8194 8.75337 19.6624C8.25644 18.5054 8.00017 17.2594 8.00017 16.0002C8.00017 14.741 8.25644 13.495 8.75337 12.338C9.2503 11.181 9.97749 10.1372 10.8907 9.2702C11.0875 9.11064 11.3375 9.03171 11.5902 9.04936C11.843 9.06702 12.0796 9.17995 12.2522 9.36533C12.4249 9.55071 12.5208 9.79472 12.5205 10.0481C12.5202 10.3014 12.4238 10.5452 12.2507 10.7302C11.5398 11.4116 10.9742 12.2297 10.5878 13.1354C10.2013 14.0411 10.0021 15.0155 10.0021 16.0002C10.0021 16.9849 10.2013 17.9594 10.5878 18.865C10.9742 19.7707 11.5398 20.5888 12.2507 21.2702C12.3969 21.4071 12.4986 21.5847 12.5427 21.7801C12.5868 21.9755 12.5712 22.1796 12.4979 22.366C12.4247 22.5524 12.2971 22.7126 12.1318 22.8256C11.9665 22.9387 11.771 22.9995 11.5707 23.0002ZM7.57069 25.6802C7.75694 25.4928 7.86148 25.2394 7.86148 24.9752C7.86148 24.711 7.75694 24.4576 7.57069 24.2702C6.45193 23.2029 5.56136 21.9196 4.95289 20.4981C4.34441 19.0766 4.03068 17.5464 4.03068 16.0002C4.03068 14.454 4.34441 12.9238 4.95289 11.5023C5.56136 10.0808 6.45193 8.79756 7.57069 7.7302C7.7643 7.54323 7.8757 7.287 7.88039 7.01788C7.88507 6.74877 7.78267 6.48881 7.59569 6.2952C7.40871 6.1016 7.15248 5.99019 6.88337 5.98551C6.61425 5.98082 6.3543 6.08323 6.16069 6.2702C4.84341 7.52541 3.79473 9.03502 3.07819 10.7075C2.36165 12.3801 1.99219 14.1807 1.99219 16.0002C1.99219 17.8198 2.36165 19.6204 3.07819 21.2929C3.79473 22.9654 4.84341 24.475 6.16069 25.7302C6.25691 25.8207 6.37012 25.8913 6.49378 25.9378C6.61743 25.9844 6.74908 26.0059 6.88111 26.0013C7.01315 25.9966 7.14295 25.9658 7.26303 25.9107C7.3831 25.8556 7.49107 25.7773 7.58069 25.6802H7.57069ZM21.1007 22.7302C22.0139 21.8632 22.7411 20.8194 23.238 19.6624C23.7349 18.5054 23.9912 17.2594 23.9912 16.0002C23.9912 14.741 23.7349 13.495 23.238 12.338C22.7411 11.181 22.0139 10.1372 21.1007 9.2702C21.0048 9.18025 20.8922 9.11006 20.7692 9.06363C20.6462 9.01721 20.5153 8.99547 20.3839 8.99965C20.2525 9.00383 20.1232 9.03384 20.0034 9.08799C19.8836 9.14213 19.7756 9.21934 19.6857 9.3152C19.5957 9.41107 19.5255 9.52371 19.4791 9.64671C19.4327 9.7697 19.411 9.90063 19.4151 10.032C19.4193 10.1634 19.4493 10.2927 19.5035 10.4125C19.5576 10.5323 19.6348 10.6402 19.7307 10.7302C20.4454 11.4093 21.0144 12.2268 21.4033 13.1327C21.7922 14.0387 21.9927 15.0143 21.9927 16.0002C21.9927 16.9861 21.7922 17.9617 21.4033 18.8677C21.0144 19.7736 20.4454 20.5911 19.7307 21.2702C19.5376 21.4509 19.424 21.7006 19.4146 21.9649C19.4053 22.2291 19.5009 22.4863 19.6807 22.6802C19.7751 22.782 19.8896 22.863 20.017 22.9181C20.1444 22.9732 20.2819 23.0011 20.4207 23.0002C20.6733 22.9993 20.9163 22.9029 21.1007 22.7302ZM25.8207 25.7302C27.1418 24.4772 28.1939 22.9684 28.9129 21.2955C29.6319 19.6227 30.0027 17.821 30.0027 16.0002C30.0027 14.1794 29.6319 12.3777 28.9129 10.7049C28.1939 9.03204 27.1418 7.52316 25.8207 6.2702C25.6239 6.11064 25.3739 6.03171 25.1212 6.04936C24.8684 6.06702 24.6318 6.17995 24.4591 6.36533C24.2864 6.55071 24.1906 6.79472 24.1909 7.04807C24.1911 7.30142 24.2876 7.54522 24.4607 7.7302C25.5794 8.79756 26.47 10.0808 27.0785 11.5023C27.687 12.9238 28.0007 14.454 28.0007 16.0002C28.0007 17.5464 27.687 19.0766 27.0785 20.4981C26.47 21.9196 25.5794 23.2029 24.4607 24.2702C24.2676 24.4509 24.154 24.7006 24.1446 24.9649C24.1353 25.2291 24.2309 25.4863 24.4107 25.6802C24.5039 25.7807 24.6168 25.861 24.7424 25.9161C24.868 25.9711 25.0036 25.9998 25.1407 26.0002C25.3933 25.9993 25.6363 25.9029 25.8207 25.7302ZM18.0007 16.0002C18.0007 15.6046 17.8834 15.218 17.6636 14.8891C17.4439 14.5602 17.1315 14.3038 16.7661 14.1524C16.4006 14.0011 15.9985 13.9615 15.6105 14.0386C15.2225 14.1158 14.8662 14.3063 14.5865 14.586C14.3068 14.8657 14.1163 15.2221 14.0391 15.61C13.9619 15.998 14.0016 16.4001 14.1529 16.7656C14.3043 17.131 14.5606 17.4434 14.8895 17.6631C15.2184 17.8829 15.6051 18.0002 16.0007 18.0002C16.5311 18.0002 17.0398 17.7895 17.4149 17.4144C17.79 17.0393 18.0007 16.5306 18.0007 16.0002Z" fill="#0072EF"/>
</svg>
