<svg width="32" height="32" viewBox="0 0 32 32" fill="none" xmlns="http://www.w3.org/2000/svg">
<path d="M15.5296 27.0899H5.03961C3.85961 27.0899 2.89961 26.1299 2.89961 24.9499V11.7269H29.0896V15.5399C29.0896 16.0369 29.4926 16.4399 29.9896 16.4399C30.4866 16.4399 30.8896 16.0369 30.8896 15.5399V7.03986C30.8896 4.87286 29.1256 3.10986 26.9586 3.10986H5.02961C2.86261 3.10986 1.09961 4.87286 1.09961 7.03986V24.9499C1.09961 27.1219 2.86761 28.8899 5.03961 28.8899H15.5296C16.0266 28.8899 16.4296 28.4869 16.4296 27.9899C16.4296 27.4929 16.0266 27.0899 15.5296 27.0899ZM5.02961 4.90986H26.9596C28.1346 4.90986 29.0896 5.86586 29.0896 7.03986V9.92686H2.89961V7.03986C2.89961 5.86486 3.85461 4.90986 5.02961 4.90986Z" fill="#0072EF"/>
<path d="M6.29564 8.27484C6.77264 8.27484 7.15964 7.88784 7.15964 7.41084C7.15964 6.93384 6.77264 6.54584 6.29564 6.54584C5.81864 6.54584 5.43164 6.93284 5.43164 7.40984C5.43164 7.88684 5.81764 8.27484 6.29564 8.27484Z" fill="#0072EF"/>
<path d="M9.34056 8.27484C9.81756 8.27484 10.2046 7.88784 10.2046 7.41084C10.2046 6.93384 9.81756 6.54584 9.34056 6.54584C8.86356 6.54584 8.47656 6.93284 8.47656 7.40984C8.47656 7.88684 8.86256 8.27484 9.34056 8.27484Z" fill="#0072EF"/>
<path d="M12.3855 8.27487C12.8625 8.27487 13.2495 7.88787 13.2495 7.41087C13.2495 6.93387 12.8625 6.54688 12.3855 6.54688C11.9085 6.54688 11.5215 6.93387 11.5215 7.41087C11.5215 7.88787 11.9075 8.27487 12.3855 8.27487Z" fill="#0072EF"/>
<path d="M30.2766 19.2928L24.2766 15.8068C23.6306 15.4308 22.8266 15.4308 22.1796 15.8068L16.1796 19.2928C15.7946 19.5158 15.5566 19.9308 15.5566 20.3748C15.5566 20.8188 15.7946 21.2338 16.1796 21.4578L17.7716 22.3828V25.1508C17.7716 25.8828 18.1666 26.5658 18.8016 26.9318L21.3056 28.3748C21.8986 28.7168 22.5636 28.8878 23.2286 28.8878C23.8926 28.8878 24.5576 28.7168 25.1506 28.3748L27.6566 26.9308C28.2906 26.5648 28.6846 25.8828 28.6846 25.1508V22.3828L30.2766 21.4578C30.6616 21.2348 30.8996 20.8198 30.8996 20.3758C30.8996 19.9318 30.6616 19.5168 30.2766 19.2928ZM23.0846 17.3638C23.1746 17.3118 23.2836 17.3118 23.3716 17.3638L28.5576 20.3758L23.3716 23.3878C23.2836 23.4398 23.1746 23.4388 23.0846 23.3878L17.8996 20.3758L23.0846 17.3638ZM26.8846 25.1508C26.8846 25.2418 26.8356 25.3268 26.7576 25.3718L24.2526 26.8148C23.6176 27.1788 22.8356 27.1778 22.2046 26.8148L19.7006 25.3718C19.6216 25.3258 19.5726 25.2418 19.5726 25.1508V23.4298L22.1796 24.9448C22.5036 25.1328 22.8666 25.2268 23.2286 25.2268C23.5906 25.2268 23.9536 25.1328 24.2766 24.9448L26.8836 23.4298L26.8846 25.1508Z" fill="#0072EF"/>
</svg>
