<svg width="32" height="32" viewBox="0 0 32 32" fill="none" xmlns="http://www.w3.org/2000/svg">
<g clip-path="url(#clip0_262_387)">
<path d="M29.0542 2H14.9958C13.3716 2 12.05 3.32153 12.05 4.9458V13.9641L9.4397 12.666C9.35156 12.6221 9.26196 12.5806 9.17163 12.5413C9.93799 11.7412 10.4104 10.6572 10.4104 9.4646C10.4104 7.00977 8.41333 5.01245 5.9585 5.01245C3.50342 5.01245 1.50635 7.00977 1.50635 9.4646C1.50635 10.7986 2.09692 11.9968 3.02954 12.8135C1.31201 13.7798 0 15.6648 0 18V21.0125C0 22.3093 0.842041 23.4131 2.0083 23.8054V29.0459C2.0083 29.5635 2.42798 29.9834 2.9458 29.9834H8.9707C9.48853 29.9834 9.9082 29.5635 9.9082 29.0459V18.5125L12.9097 20.0129C14.0583 20.5872 15.6165 20.2449 16.321 18.9375H19.6824L16.123 28.7253C15.946 29.2119 16.1973 29.75 16.6838 29.9268C17.24 30.1292 17.7346 29.7803 17.8853 29.3662L21.6775 18.9375H22.3347L26.1658 29.3691C26.3113 29.7649 26.8022 30.134 27.3691 29.9258C27.855 29.7473 28.1045 29.2087 27.9258 28.7227L24.332 18.9375H29.0542C30.647 18.9375 32 17.6526 32 15.9917V4.9458C32 3.28467 30.647 2 29.0542 2ZM3.38135 9.4646C3.38135 8.04346 4.53735 6.88745 5.95825 6.88745C7.37939 6.88745 8.5354 8.04346 8.5354 9.4646C8.5354 10.8855 7.37939 12.0415 5.95825 12.0415C4.53735 12.0415 3.38135 10.8855 3.38135 9.4646ZM14.7188 17.9351C14.7163 17.9419 14.7139 17.949 14.7117 17.9561C14.6477 18.1345 14.5032 18.2849 14.3262 18.3577C14.1389 18.4338 13.9282 18.4258 13.7483 18.3359C11.9656 17.4441 9.38965 16.1572 9.38965 16.1572C8.76758 15.8462 8.0332 16.2993 8.0332 16.9958V28.1084H3.8833V23.0208C3.8833 22.5032 3.46338 22.0833 2.9458 22.0833C2.35522 22.0833 1.875 21.603 1.875 21.0125V18C1.875 15.7092 3.74023 13.9167 5.95825 13.9167H6.78662C7.41504 13.9167 8.04272 14.0642 8.60352 14.3442C8.60352 14.3442 13.2537 16.6567 14.438 17.2466C14.6917 17.3726 14.8123 17.6685 14.7188 17.9351ZM30.125 15.9917C30.125 16.2781 30.0139 16.5469 29.8118 16.749C29.6128 16.9482 29.3367 17.0625 29.0542 17.0625H16.5249C16.5232 17.0574 16.522 17.0522 16.5203 17.0474L18.8469 12.3943C19.0784 11.9312 18.8909 11.3682 18.4277 11.1365C17.9648 10.905 17.4016 11.0925 17.1699 11.5557L15.1855 15.5242C14.8157 15.3398 14.3857 15.1257 13.925 14.8967V4.9458C13.925 4.35547 14.4053 3.875 14.9958 3.875H29.0542C29.3367 3.875 29.6128 3.98926 29.812 4.18896C30.0139 4.39062 30.125 4.65942 30.125 4.9458V15.9917Z" fill="#0072EF"/>
<path d="M27.0457 6.0166H17.0039C16.4861 6.0166 16.0664 6.43628 16.0664 6.9541C16.0664 7.47192 16.4861 7.8916 17.0039 7.8916H27.0457C27.5632 7.8916 27.9832 7.47192 27.9832 6.9541C27.9832 6.43628 27.5635 6.0166 27.0457 6.0166Z" fill="#0072EF"/>
<path d="M27.0464 9.53125H22.0254C21.5078 9.53125 21.0879 9.95093 21.0879 10.4688C21.0879 10.9866 21.5078 11.4062 22.0254 11.4062H27.0464C27.564 11.4062 27.9839 10.9866 27.9839 10.4688C27.9839 9.95093 27.5642 9.53125 27.0464 9.53125Z" fill="#0072EF"/>
<path d="M27.0464 13.0459H22.0254C21.5078 13.0459 21.0879 13.4656 21.0879 13.9834C21.0879 14.501 21.5078 14.9209 22.0254 14.9209H27.0464C27.564 14.9209 27.9839 14.501 27.9839 13.9834C27.9839 13.4656 27.5642 13.0459 27.0464 13.0459Z" fill="#0072EF"/>
</g>
<defs>
<clipPath id="clip0_262_387">
<rect width="32" height="32" fill="white"/>
</clipPath>
</defs>
</svg>
