<svg width="32" height="32" viewBox="0 0 32 32" fill="none" xmlns="http://www.w3.org/2000/svg">
<path d="M14.7029 21.9868C15.1568 21.9868 15.5249 21.6188 15.5249 21.1648C15.5249 20.7108 15.1568 20.3428 14.7029 20.3428C14.2489 20.3428 13.8809 20.7108 13.8809 21.1648C13.8809 21.6188 14.2489 21.9868 14.7029 21.9868Z" fill="#0072EF"/>
<path d="M27.4096 15.1698C26.9126 15.1698 26.5096 15.5728 26.5096 16.0698V22.3198C26.5096 22.9598 25.9886 23.4798 25.3496 23.4798H4.05961C3.41961 23.4798 2.89961 22.9588 2.89961 22.3198V8.16985C2.89961 7.53585 3.42061 7.01985 4.05961 7.01985H13.2396C13.7366 7.01985 14.1396 6.61685 14.1396 6.11985C14.1396 5.62285 13.7366 5.21985 13.2396 5.21985H4.05961C2.42761 5.21985 1.09961 6.54285 1.09961 8.16985V22.3198C1.09961 23.9518 2.42761 25.2799 4.05961 25.2799H10.5756V28.5218H8.49961C8.00261 28.5218 7.59961 28.9249 7.59961 29.4219C7.59961 29.9188 8.00261 30.3218 8.49961 30.3218H20.9056C21.4026 30.3218 21.8056 29.9188 21.8056 29.4219C21.8056 28.9249 21.4026 28.5218 20.9056 28.5218H18.8296V25.2799H25.3496C26.9826 25.2799 28.3106 23.9518 28.3106 22.3198V16.0698C28.3106 15.5728 27.9066 15.1698 27.4096 15.1698ZM17.0286 28.5218H12.3746V25.2799H17.0286V28.5218Z" fill="#0072EF"/>
<path d="M30.2804 5.37585L24.3954 1.95685C23.7574 1.58585 22.9614 1.58485 22.3224 1.95685L16.4384 5.37585C16.0564 5.59785 15.8184 6.00985 15.8184 6.45285C15.8184 6.89485 16.0564 7.30685 16.4384 7.52885L17.9914 8.43085V11.1358C17.9914 11.8608 18.3824 12.5358 19.0104 12.8968L21.4664 14.3128C22.0504 14.6498 22.7054 14.8178 23.3604 14.8178C24.0154 14.8178 24.6714 14.6498 25.2554 14.3128L27.7104 12.8968C28.3394 12.5358 28.7304 11.8598 28.7304 11.1348V8.43085L30.2824 7.52885C30.6624 7.30785 30.9004 6.89585 30.9004 6.45285C30.9004 6.00985 30.6624 5.59785 30.2804 5.37585ZM23.2274 3.51385C23.3094 3.46585 23.4104 3.46685 23.4924 3.51385L28.5514 6.45285L23.4924 9.39185C23.4104 9.43885 23.3094 9.43985 23.2274 9.39185L18.1684 6.45285L23.2274 3.51385ZM26.9274 11.1368C26.9274 11.2198 26.8834 11.2968 26.8114 11.3388L24.3554 12.7548C23.7404 13.1088 22.9794 13.1088 22.3644 12.7548L19.9074 11.3378C19.8364 11.2968 19.7924 11.2198 19.7924 11.1368V9.47785L22.3234 10.9488C22.6424 11.1348 23.0014 11.2268 23.3594 11.2268C23.7184 11.2268 24.0774 11.1338 24.3964 10.9488L26.9274 9.47785V11.1368Z" fill="#0072EF"/>
</svg>
