<svg width="32" height="32" viewBox="0 0 32 32" fill="none" xmlns="http://www.w3.org/2000/svg">
<path d="M15.9991 21.9C17.5991 21.9 19.0991 21.3 20.1991 20.15C21.2991 19.05 21.8991 17.6 21.8491 16.05V6.50002C21.8491 3.25002 19.1991 0.650024 15.9991 0.650024C12.7491 0.650024 10.1491 3.30002 10.1491 6.50002V16C10.0991 19.25 12.7491 21.9 15.9991 21.9ZM11.8491 6.50002C11.8491 4.25002 13.6991 2.40002 15.9491 2.40002C18.1991 2.40002 20.0491 4.25002 20.0491 6.50002V16.05C20.0491 17.15 19.6491 18.15 18.8991 18.95C18.0991 19.75 17.0491 20.2 15.9491 20.2C13.6991 20.2 11.8491 18.35 11.8491 16.1V6.50002Z" fill="#0072EF"/>
<path d="M26.35 15.75C26.35 15.25 25.95 14.85 25.45 14.85C24.95 14.85 24.55 15.25 24.55 15.75C24.55 20.5 20.7 24.35 15.9 24.35C11.15 24.35 7.3 20.5 7.3 15.75C7.3 15.25 6.9 14.85 6.4 14.85C5.9 14.85 5.5 15.25 5.5 15.75C5.5 21.15 9.65 25.6 14.95 26.05V29.6H11.45C10.95 29.6 10.55 30 10.55 30.5C10.55 31 10.95 31.4 11.45 31.4H20.2C20.7 31.4 21.1 31 21.1 30.5C21.1 30 20.7 29.6 20.2 29.6H16.7V26.05C22.15 25.65 26.35 21.2 26.35 15.75Z" fill="#0072EF"/>
</svg>
