<svg width="32" height="32" viewBox="0 0 32 32" fill="none" xmlns="http://www.w3.org/2000/svg">
<g clip-path="url(#clip0_262_358)">
<path d="M16.0006 30.6668C15.8046 30.6668 15.6179 30.5802 15.4899 30.4295L0.156604 12.2175C-0.0207299 12.0068 -0.0500632 11.7082 0.0819368 11.4682L5.45794 1.68016C5.57527 1.46683 5.79927 1.3335 6.04194 1.3335H25.9593C26.2033 1.3335 26.4273 1.46683 26.5433 1.68016L31.9179 11.4682C32.0513 11.7095 32.0206 12.0068 31.8433 12.2175L16.5099 30.4295C16.3833 30.5802 16.1966 30.6668 16.0006 30.6668ZM1.4726 11.7082L16.0006 28.9655L30.5286 11.7082L25.5646 2.66683H6.4366L1.4726 11.7082Z" fill="#0072EF"/>
<path d="M31.0007 12.6668H1.00065C0.632651 12.6668 0.333984 12.3682 0.333984 12.0002C0.333984 11.6322 0.632651 11.3335 1.00065 11.3335H31.0007C31.3687 11.3335 31.6673 11.6322 31.6673 12.0002C31.6673 12.3682 31.3687 12.6668 31.0007 12.6668Z" fill="#0072EF"/>
<path d="M22.7488 12.2922C22.5394 12.2922 22.3328 12.1935 22.2034 12.0082L16.0021 3.16416L9.87942 11.9615C9.67142 12.2642 9.25409 12.3375 8.95276 12.1282C8.64876 11.9175 8.57542 11.5028 8.78609 11.2002L15.4528 1.61883C15.5768 1.44016 15.7808 1.3335 15.9981 1.3335H15.9994C16.2168 1.3335 16.4194 1.43883 16.5448 1.6175L23.2941 11.2428C23.5061 11.5455 23.4328 11.9602 23.1314 12.1708C23.0168 12.2522 22.8821 12.2922 22.7488 12.2922Z" fill="#0072EF"/>
<path d="M16 30.6667C15.7174 30.6667 15.4667 30.4893 15.372 30.224L5.41336 2.22401C5.29069 1.87601 5.47203 1.49468 5.81736 1.37201C6.16669 1.24401 6.54669 1.42934 6.66936 1.77601L16 28.0107L25.3307 1.77601C25.4534 1.43068 25.8334 1.24668 26.1827 1.37201C26.5294 1.49468 26.7107 1.87601 26.5867 2.22401L16.628 30.224C16.5334 30.4893 16.2827 30.6667 16 30.6667Z" fill="#0072EF"/>
</g>
<defs>
<clipPath id="clip0_262_358">
<rect width="32" height="32" fill="white"/>
</clipPath>
</defs>
</svg>
