<svg width="36" height="36" viewBox="0 0 36 36" fill="none" xmlns="http://www.w3.org/2000/svg">
<g clip-path="url(#clip0_262_234)">
<path d="M31.836 33.033H4.15822C3.84255 33.0328 3.53985 32.9073 3.31663 32.6841C3.09341 32.4609 2.96794 32.1582 2.96777 31.8425V4.16478C2.9778 3.85574 3.10761 3.56271 3.32977 3.34764C3.55193 3.13257 3.84902 3.01233 4.15822 3.01233C4.46743 3.01233 4.76451 3.13257 4.98667 3.34764C5.20883 3.56271 5.33864 3.85574 5.34867 4.16478V30.6515H31.836C32.147 30.6586 32.443 30.7872 32.6605 31.0097C32.878 31.2322 32.9997 31.5311 32.9997 31.8422C32.9997 32.1534 32.878 32.4522 32.6605 32.6747C32.443 32.8973 32.147 33.0258 31.836 33.033Z" fill="#0072EF"/>
<path d="M24.7818 24.1927C24.4893 24.1927 24.2021 24.1035 23.9576 23.931L11.8578 15.372L6.07758 22.9845C5.96441 23.1336 5.82298 23.259 5.66137 23.3534C5.49975 23.4479 5.32111 23.5096 5.13565 23.535C4.76109 23.5863 4.38148 23.4868 4.08033 23.2582C3.77918 23.0297 3.58115 22.6909 3.52981 22.3163C3.47847 21.9418 3.57803 21.5621 3.80658 21.261L10.4201 12.5505C10.6435 12.2557 10.9728 12.0594 11.3384 12.003C11.704 11.9465 12.0772 12.0345 12.3791 12.2482L24.2036 20.6115L31.8731 3.94574C32.0311 3.60232 32.3191 3.33574 32.6737 3.20465C33.0283 3.07356 33.4204 3.0887 33.7638 3.24674C34.1073 3.40477 34.3738 3.69276 34.5049 4.04734C34.636 4.40193 34.6209 4.79407 34.4628 5.13749L26.0756 23.3625C25.9622 23.6104 25.78 23.8204 25.5506 23.9676C25.3213 24.1148 25.0544 24.193 24.7818 24.1927Z" fill="#0072EF"/>
<path d="M34.573 10.4174C34.2468 10.4171 33.9306 10.3049 33.6772 10.0996C33.4237 9.89437 33.2483 9.60841 33.1802 9.28945L32.4955 6.0802L29.0905 7.17895C28.7347 7.28076 28.3533 7.24034 28.0268 7.06622C27.7002 6.8921 27.4542 6.5979 27.3405 6.24575C27.2268 5.8936 27.2544 5.51105 27.4175 5.17887C27.5805 4.84669 27.8663 4.59088 28.2145 4.46545L33.1217 2.8807C33.3115 2.81943 33.5121 2.79867 33.7104 2.81976C33.9087 2.84085 34.1004 2.90331 34.2731 3.00312C34.4458 3.10292 34.5956 3.23785 34.7129 3.39918C34.8302 3.56051 34.9123 3.74465 34.954 3.9397L35.9695 8.6932C36.014 8.90125 36.0114 9.11664 35.9619 9.32356C35.9124 9.53048 35.8172 9.7237 35.6833 9.88904C35.5493 10.0544 35.3801 10.1877 35.188 10.2791C34.9959 10.3705 34.7857 10.4178 34.573 10.4174Z" fill="#0072EF"/>
</g>
<defs>
<clipPath id="clip0_262_234">
<rect width="36" height="36" fill="white"/>
</clipPath>
</defs>
</svg>
