<svg width="36" height="36" viewBox="0 0 36 36" fill="none" xmlns="http://www.w3.org/2000/svg">
<path d="M5.33682 4.68984C5.11885 4.47187 5.11885 4.11328 5.33682 3.89531C5.55479 3.67734 5.91338 3.67734 6.13135 3.89531L7.41104 5.175V0.5625C7.41104 0.253125 7.66416 0 7.97354 0C8.28291 0 8.53604 0.253125 8.53604 0.5625V5.16797L9.81573 3.88828C10.0337 3.67031 10.3923 3.67031 10.6103 3.88828C10.8282 4.10625 10.8282 4.46484 10.6103 4.68281L8.36729 6.92578C8.25479 7.03828 8.11416 7.0875 7.96651 7.0875C7.81885 7.0875 7.67823 7.03125 7.56573 6.92578L5.33682 4.68984ZM6.13135 10.8984L7.41104 9.61875V14.2242C7.41104 14.5336 7.66416 14.7867 7.97354 14.7867C8.28291 14.7867 8.53604 14.5336 8.53604 14.2242V9.61875L9.81573 10.8984C9.92823 11.0109 10.0689 11.0602 10.2165 11.0602C10.3642 11.0602 10.5048 11.0039 10.6173 10.8984C10.8353 10.6805 10.8353 10.3219 10.6173 10.1039L8.36729 7.86094C8.14932 7.64297 7.79072 7.64297 7.57276 7.86094L5.33682 10.0969C5.11885 10.3148 5.11885 10.6734 5.33682 10.8914C5.55479 11.1164 5.91338 11.1164 6.13135 10.8984ZM30.9657 18.1828C30.9657 22.0641 30.2064 25.3336 28.7017 27.9141C28.3571 28.5047 28.0618 28.9898 27.8298 29.3836C26.747 31.1906 26.747 31.1906 26.8103 32.9133C26.8313 33.5039 26.8595 34.3195 26.8595 35.4375C26.8595 35.7469 26.6063 36 26.297 36H15.1946C14.8853 36 14.6321 35.7469 14.6321 35.4375V31.1836C14.4915 30.9234 13.922 30.0164 12.2556 28.7648C10.4767 27.4289 10.097 26.2898 9.61182 24.8555C9.4501 24.3773 9.28838 23.8922 9.05635 23.3227C8.36026 21.6352 7.89619 21.3328 6.96104 20.7281C6.70791 20.5664 6.41963 20.3766 6.09619 20.1445C5.36494 19.6172 4.99229 18.8719 5.03448 18.0422C5.08369 17.1492 5.65323 16.2141 6.41963 15.7781C7.76963 15.0047 10.5259 16.5938 11.904 18.0773L12.2978 18.4992V3.88125C12.2978 2.3625 13.5353 1.13203 15.047 1.13203C16.5657 1.13203 17.8032 2.36953 17.8032 3.88125V9.66094C18.2603 9.32344 18.8228 9.12656 19.4345 9.12656C20.9532 9.12656 22.1907 10.3641 22.1907 11.8828V13.275C22.6478 12.9375 23.2103 12.7406 23.822 12.7406C25.3407 12.7406 26.5712 13.9781 26.5712 15.4969V15.975C27.0282 15.6375 27.5907 15.4406 28.2024 15.4406C29.7282 15.4266 30.9657 16.6641 30.9657 18.1828ZM29.8407 18.1828C29.8407 17.2828 29.1095 16.5516 28.2095 16.5516C27.3095 16.5516 26.5782 17.2828 26.5782 18.1828V19.8281C26.5782 20.1375 26.3251 20.3906 26.0157 20.3906C25.7063 20.3906 25.4532 20.1375 25.4532 19.8281V15.4898C25.4532 14.5898 24.722 13.8586 23.822 13.8586C22.922 13.8586 22.1907 14.5898 22.1907 15.4898V19.8281C22.1907 20.1375 21.9376 20.3906 21.6282 20.3906C21.3189 20.3906 21.0657 20.1375 21.0657 19.8281V11.8828C21.0657 10.9828 20.3345 10.2516 19.4345 10.2516C18.5345 10.2516 17.8032 10.9828 17.8032 11.8828V19.8281C17.8032 20.1375 17.5501 20.3906 17.2407 20.3906C16.9314 20.3906 16.6782 20.1375 16.6782 19.8281V3.88125C16.6782 2.98125 15.947 2.25 15.047 2.25C14.161 2.25 13.4298 2.98125 13.4298 3.88125V19.9266C13.4298 20.1586 13.2892 20.3625 13.0712 20.4469C12.8532 20.5312 12.6142 20.475 12.4524 20.3062L11.0814 18.8367C9.64698 17.2969 7.50947 16.4461 6.9751 16.7484C6.60244 16.9594 6.1876 17.5078 6.15948 18.0984C6.13838 18.5414 6.33526 18.9211 6.75713 19.2305C7.05948 19.4484 7.31963 19.6172 7.57276 19.7859C8.55713 20.4258 9.26729 20.8898 10.097 22.9008C10.3431 23.5055 10.5259 24.0328 10.6806 24.5039C11.1446 25.9031 11.4259 26.7398 12.9306 27.8719C15.1876 29.5664 15.6728 30.7336 15.722 30.8602C15.7431 30.9234 15.7571 30.9867 15.7571 31.057V34.875H25.7274C25.7204 34.0594 25.6993 33.4336 25.6782 32.9555C25.6079 30.9516 25.636 30.8391 26.8595 28.807C27.0915 28.4203 27.3798 27.9352 27.7243 27.3516C29.1235 24.9398 29.8407 21.8602 29.8407 18.1828Z" fill="#0072EF"/>
</svg>
