<svg width="36" height="36" viewBox="0 0 36 36" fill="none" xmlns="http://www.w3.org/2000/svg">
<path d="M24.8854 33.0274C20.3986 33.0274 16.748 29.3769 16.748 24.89C16.748 20.4032 20.3986 16.7527 24.8854 16.7527C29.3722 16.7527 33.0227 20.4032 33.0227 24.89C33.0227 29.3769 29.3722 33.0274 24.8854 33.0274ZM24.8854 18.6305C21.4339 18.6305 18.6259 21.4386 18.6259 24.89C18.6259 28.3415 21.4339 31.1496 24.8854 31.1496C28.3369 31.1496 31.1449 28.3415 31.1449 24.89C31.1449 21.4386 28.3369 18.6305 24.8854 18.6305Z" fill="#0072EF"/>
<path d="M24.8862 29.2716C24.6372 29.2716 24.3984 29.1727 24.2223 28.9966C24.0462 28.8205 23.9473 28.5817 23.9473 28.3327V21.4472C23.9473 21.1982 24.0462 20.9594 24.2223 20.7833C24.3984 20.6072 24.6372 20.5083 24.8862 20.5083C25.1352 20.5083 25.374 20.6072 25.5501 20.7833C25.7262 20.9594 25.8251 21.1982 25.8251 21.4472V28.3327C25.8251 28.5817 25.7262 28.8205 25.5501 28.9966C25.374 29.1727 25.1352 29.2716 24.8862 29.2716Z" fill="#0072EF"/>
<path d="M28.3283 25.829H21.4428C21.1938 25.829 20.955 25.73 20.7789 25.554C20.6028 25.3779 20.5039 25.139 20.5039 24.89C20.5039 24.641 20.6028 24.4022 20.7789 24.2261C20.955 24.05 21.1938 23.9511 21.4428 23.9511H28.3283C28.5773 23.9511 28.8161 24.05 28.9922 24.2261C29.1683 24.4022 29.2672 24.641 29.2672 24.89C29.2672 25.139 29.1683 25.3779 28.9922 25.554C28.8161 25.73 28.5773 25.829 28.3283 25.829ZM27.8538 14.2626C27.7305 14.2629 27.6083 14.2388 27.4944 14.1915C27.3805 14.1442 27.2772 14.0748 27.1903 13.9872L22.0137 8.81186C21.9265 8.72464 21.8573 8.6211 21.8101 8.50715C21.7629 8.3932 21.7386 8.27106 21.7386 8.14772C21.7386 8.02438 21.7629 7.90225 21.8101 7.7883C21.8573 7.67434 21.9265 7.5708 22.0137 7.48359C22.1009 7.39637 22.2045 7.32719 22.3184 7.27999C22.4324 7.23279 22.5545 7.2085 22.6778 7.2085C22.8012 7.2085 22.9233 7.23279 23.0373 7.27999C23.1512 7.32719 23.2547 7.39637 23.342 7.48359L28.5186 12.659C28.6502 12.7903 28.7399 12.9577 28.7763 13.1401C28.8126 13.3224 28.7941 13.5115 28.7228 13.6833C28.6516 13.855 28.531 14.0018 28.3763 14.1049C28.2216 14.2081 28.0398 14.263 27.8538 14.2626Z" fill="#0072EF"/>
<path d="M3.91554 33.0273C3.76465 33.0273 3.61598 32.9909 3.48213 32.9213C3.34827 32.8517 3.23317 32.7508 3.14658 32.6272C3.05998 32.5036 3.00444 32.361 2.98466 32.2114C2.96489 32.0619 2.98145 31.9097 3.03295 31.7679L6.01247 23.5554C6.05917 23.4262 6.134 23.3091 6.23156 23.2124L25.1102 4.34622C26.8528 2.58855 29.9125 2.58605 31.6614 4.34873C32.0925 4.77616 32.4347 5.28474 32.6683 5.84512C32.9019 6.4055 33.0221 7.00658 33.0222 7.61369C33.0222 8.86434 32.5352 10.0311 31.6526 10.8999L27.7279 14.8246C27.6407 14.9119 27.5372 14.981 27.4232 15.0282C27.3093 15.0754 27.1871 15.0997 27.0638 15.0997C26.9404 15.0997 26.8183 15.0754 26.7044 15.0282C26.5904 14.981 26.4869 14.9119 26.3997 14.8246C26.3124 14.7374 26.2433 14.6339 26.1961 14.5199C26.1489 14.406 26.1246 14.2838 26.1246 14.1605C26.1246 14.0372 26.1489 13.915 26.1961 13.8011C26.2433 13.6871 26.3124 13.5836 26.3997 13.4964L30.3306 9.5654C30.5884 9.31095 30.7931 9.00784 30.9327 8.67366C31.0724 8.33949 31.1444 7.98089 31.1444 7.61869C31.1444 7.25649 31.0724 6.8979 30.9327 6.56372C30.7931 6.22954 30.5884 5.92644 30.3306 5.67199C29.2878 4.62039 27.4775 4.62289 26.441 5.66948L7.70629 24.3929L5.48292 30.5222L11.6122 28.2989L13.4926 26.4172C13.5798 26.33 13.6833 26.2608 13.7973 26.2136C13.9112 26.1664 14.0334 26.1422 14.1567 26.1422C14.28 26.1422 14.4022 26.1664 14.5161 26.2136C14.6301 26.2608 14.7336 26.33 14.8208 26.4172C14.9081 26.5045 14.9772 26.608 15.0244 26.722C15.0716 26.8359 15.0959 26.958 15.0959 27.0814C15.0959 27.2047 15.0716 27.3269 15.0244 27.4408C14.9772 27.5548 14.9081 27.6583 14.8208 27.7455L12.7915 29.7723C12.6947 29.8698 12.5776 29.9446 12.4485 29.9914L4.23603 32.971C4.13323 33.008 4.02481 33.0271 3.91554 33.0273Z" fill="#0072EF"/>
<path d="M12.1261 30.0479C12.0027 30.0482 11.8806 30.024 11.7667 29.9767C11.6528 29.9295 11.5494 29.86 11.4626 29.7725L6.23212 24.5433C6.14491 24.4561 6.07573 24.3525 6.02853 24.2386C5.98133 24.1246 5.95703 24.0025 5.95703 23.8792C5.95703 23.7558 5.98133 23.6337 6.02853 23.5197C6.07573 23.4058 6.14491 23.3023 6.23212 23.215C6.31934 23.1278 6.42288 23.0586 6.53683 23.0114C6.65078 22.9642 6.77292 22.9399 6.89626 22.9399C7.0196 22.9399 7.14173 22.9642 7.25568 23.0114C7.36963 23.0586 7.47317 23.1278 7.56039 23.215L12.7908 28.4455C12.922 28.5769 13.0114 28.7442 13.0475 28.9263C13.0836 29.1085 13.0649 29.2972 12.9938 29.4688C12.9226 29.6403 12.8022 29.7868 12.6477 29.8899C12.4933 29.993 12.3118 30.048 12.1261 30.0479Z" fill="#0072EF"/>
</svg>
