<svg width="16" height="16" viewBox="0 0 16 16" fill="none" xmlns="http://www.w3.org/2000/svg">
<path d="M1.95108 0.334735C1.50477 -0.111578 0.781155 -0.111578 0.334841 0.334735C-0.111472 0.781048 -0.111472 1.50466 0.334841 1.95098L6.3838 7.99994L0.334735 14.049C-0.111578 14.4953 -0.111578 15.2189 0.334735 15.6653C0.781048 16.1116 1.50466 16.1116 1.95098 15.6653L8.00005 9.61619L14.0491 15.6653C14.4954 16.1116 15.2191 16.1116 15.6654 15.6653C16.1117 15.219 16.1117 14.4953 15.6654 14.049L9.61629 7.99994L15.6653 1.95098C16.1116 1.50467 16.1116 0.781049 15.6653 0.334736C15.2189 -0.111577 14.4953 -0.111576 14.049 0.334736L8.00005 6.3837L1.95108 0.334735Z" fill="white"/>
</svg>
