<svg width="12" height="7" viewBox="0 0 12 7" fill="none" xmlns="http://www.w3.org/2000/svg">
<path d="M5.57417 0.000376225C5.44847 0.000376225 5.33064 0.0239434 5.22066 0.0710778C5.11068 0.11821 5.00855 0.188916 4.91429 0.283183L0.247967 4.9495C0.0751423 5.12232 -0.0073448 5.34229 0.000512518 5.60938C0.00836793 5.87648 0.0987076 6.09644 0.271535 6.26926C0.475787 6.47351 0.699673 6.56386 0.943201 6.54029C1.18673 6.51672 1.40276 6.41852 1.5913 6.2457L5.57417 2.26283L9.55703 6.2457C9.72986 6.41853 9.95375 6.51279 10.2287 6.52851C10.5037 6.54422 10.7275 6.44995 10.9004 6.2457C11.1046 6.07287 11.195 5.85684 11.1714 5.5976C11.1478 5.33836 11.0496 5.11447 10.8768 4.92593L6.23405 0.283183C6.13978 0.18892 6.03766 0.11821 5.92768 0.0710778C5.8177 0.0239434 5.69986 0.000376225 5.57417 0.000376225Z" fill="#212534"/>
</svg>
