<svg width="136" height="40" viewBox="0 0 136 40" fill="none" xmlns="http://www.w3.org/2000/svg">
<path d="M20.9416 21.4432C19.5666 24.2132 19.2406 27.3873 20.0239 30.379C20.8072 33.3707 22.6468 35.9777 25.2028 37.7186C25.3685 37.8333 25.5036 37.9868 25.5965 38.1656C25.6894 38.3445 25.7373 38.5433 25.736 38.7448C25.736 39.0776 25.6038 39.3967 25.3685 39.632C25.1332 39.8673 24.8141 39.9995 24.4813 39.9995H1.25473C0.922649 39.9995 0.604109 39.8679 0.368916 39.6334C0.133724 39.399 0.00106096 39.0809 0 38.7488L0 15.5223C0 15.3575 0.0324546 15.1944 0.0955107 15.0421C0.158567 14.8899 0.25099 14.7516 0.367502 14.6351C0.484015 14.5186 0.622335 14.4261 0.774566 14.3631C0.926797 14.3 1.08996 14.2676 1.25473 14.2676H24.4813C24.8141 14.2676 25.1332 14.3998 25.3685 14.6351C25.6038 14.8704 25.736 15.1895 25.736 15.5223C25.7376 15.7224 25.6906 15.92 25.5992 16.098C25.5077 16.276 25.3745 16.4292 25.2109 16.5445C23.3909 17.7839 21.9207 19.4709 20.9416 21.4432Z" fill="#FEC944"/>
<path d="M25.7359 21.4434V38.0635C23.0005 36.397 20.9891 33.7657 20.0986 30.6889C19.208 27.6121 19.5031 24.3133 20.9255 21.4434H25.7359Z" fill="#FF5D79"/>
<path d="M45.1942 28.0096C45.0385 30.2033 44.3214 32.3202 43.1118 34.1569C41.9022 35.9936 40.2408 37.4885 38.2869 38.498C36.3331 39.5076 34.1525 39.9978 31.9546 39.9217C29.7566 39.8456 27.6152 39.2057 25.7358 38.0634V21.4433H32.3663C32.4314 21.4386 32.4945 21.4181 32.5499 21.3835C32.6053 21.3489 32.6515 21.3012 32.6843 21.2447C32.7171 21.1882 32.7356 21.1245 32.7381 21.0592C32.7407 20.9939 32.7273 20.929 32.699 20.8701L29.1593 14.7448C31.1258 14.2322 33.186 14.1942 35.1701 14.6339C37.1542 15.0736 39.0054 15.9784 40.5713 17.2738C42.1371 18.5692 43.3728 20.218 44.1766 22.0846C44.9803 23.9511 45.3291 25.9819 45.1942 28.0096Z" fill="#49D3FE"/>
<path d="M32.3106 21.4437H20.9419C22.0195 19.2787 23.6871 17.4624 25.7524 16.2043C26.8155 15.5521 27.9691 15.0604 29.1758 14.7451L32.6714 20.8223C32.7127 20.8846 32.7357 20.9572 32.7379 21.0319C32.7401 21.1066 32.7214 21.1804 32.6839 21.245C32.6464 21.3096 32.5915 21.3624 32.5256 21.3975C32.4596 21.4327 32.3852 21.4486 32.3106 21.4437Z" fill="#335EF2"/>
<path d="M29.1593 14.7451C27.9526 15.0604 26.799 15.5521 25.7359 16.2043C23.6706 17.4624 22.003 19.2787 20.9254 21.4437H8.63868C8.52674 21.4434 8.41685 21.4136 8.32006 21.3574C8.22327 21.3011 8.14301 21.2204 8.08734 21.1233C8.03167 21.0261 8.00256 20.9161 8.00293 20.8041C8.00331 20.6922 8.03316 20.5823 8.08949 20.4856L11.6973 14.2681L19.7308 0.321747C19.7872 0.223619 19.8686 0.142166 19.9667 0.0856569C20.0647 0.0291482 20.176 -0.000402987 20.2892 4.15073e-06C20.4024 0.000411288 20.5134 0.0307622 20.6111 0.087975C20.7088 0.145188 20.7895 0.227225 20.8452 0.325756L29.1593 14.7451Z" fill="#B577FC"/>
<path d="M55.12 30V18.48H62.56V20.288H57.048V23.128H61.6V24.936H57.048V28.192H62.56V30H55.12ZM64.6394 30V18.48H66.5674V28.192H71.6554V30H64.6394ZM73.0106 30V18.48H80.4506V20.288H74.9386V23.128H79.4906V24.936H74.9386V28.192H80.4506V30H73.0106ZM82.37 30V18.48H84.106L88.09 26.64L92.074 18.48H93.81V30H92.01V22.616L88.474 30H87.706L84.178 22.616V30H82.37ZM96.0575 30V18.48H103.498V20.288H97.9855V23.128H102.538V24.936H97.9855V28.192H103.498V30H96.0575ZM105.417 30V18.48H107.369L112.713 26.6V18.48H114.665V30H112.713L107.369 21.88V30H105.417ZM119.669 30V20.288H115.941V18.48H125.325V20.288H121.597V30H119.669ZM130.868 30.24C130.026 30.24 129.266 30.0933 128.588 29.8C127.916 29.5067 127.362 29.088 126.924 28.544C126.492 27.9947 126.218 27.344 126.1 26.592L128.1 26.288C128.271 26.9707 128.62 27.4987 129.148 27.872C129.682 28.2453 130.295 28.432 130.988 28.432C131.399 28.432 131.786 28.368 132.148 28.24C132.511 28.112 132.804 27.9253 133.028 27.68C133.258 27.4347 133.372 27.1333 133.372 26.776C133.372 26.616 133.346 26.4693 133.292 26.336C133.239 26.1973 133.159 26.0747 133.052 25.968C132.951 25.8613 132.818 25.7653 132.652 25.68C132.492 25.5893 132.306 25.512 132.092 25.448L129.116 24.568C128.86 24.4933 128.583 24.3947 128.284 24.272C127.991 24.144 127.711 23.9707 127.444 23.752C127.183 23.528 126.967 23.2453 126.796 22.904C126.631 22.5573 126.548 22.1307 126.548 21.624C126.548 20.8827 126.735 20.2613 127.108 19.76C127.487 19.2533 127.994 18.8747 128.628 18.624C129.268 18.3733 129.978 18.2507 130.756 18.256C131.546 18.2613 132.25 18.3973 132.868 18.664C133.487 18.9253 134.004 19.3067 134.42 19.808C134.836 20.3093 135.13 20.9147 135.3 21.624L133.228 21.984C133.143 21.5787 132.978 21.2347 132.732 20.952C132.492 20.664 132.196 20.4453 131.844 20.296C131.498 20.1467 131.127 20.0667 130.732 20.056C130.348 20.0507 129.991 20.1093 129.66 20.232C129.335 20.3493 129.071 20.52 128.868 20.744C128.671 20.968 128.572 21.2293 128.572 21.528C128.572 21.8107 128.658 22.0427 128.828 22.224C128.999 22.4 129.21 22.5413 129.46 22.648C129.716 22.7493 129.975 22.8347 130.236 22.904L132.3 23.48C132.583 23.5547 132.9 23.656 133.252 23.784C133.604 23.912 133.943 24.0907 134.268 24.32C134.594 24.5493 134.86 24.8507 135.068 25.224C135.282 25.5973 135.388 26.072 135.388 26.648C135.388 27.2453 135.263 27.7707 135.012 28.224C134.767 28.672 134.434 29.0453 134.012 29.344C133.591 29.6427 133.108 29.8667 132.564 30.016C132.026 30.1653 131.46 30.24 130.868 30.24Z" fill="black"/>
</svg>
