<svg width="208" height="40" viewBox="0 0 208 40" fill="none" xmlns="http://www.w3.org/2000/svg">
<path d="M69.2232 28.6207C67.7234 28.6601 66.2426 28.2793 64.9479 27.5214C63.7552 26.7929 62.802 25.7314 62.2055 24.4676C61.5407 23.0446 61.2125 21.4876 61.2466 19.9174C61.2119 18.3471 61.54 16.79 62.2055 15.3672C62.802 14.1034 63.7552 13.0419 64.9479 12.3134C66.2426 11.5555 67.7234 11.1747 69.2232 11.2141C70.9452 11.1519 72.6394 11.6608 74.0421 12.6616C75.334 13.6371 76.28 15.0004 76.7416 16.5521L73.9016 17.3278C73.6282 16.3224 73.0474 15.4276 72.2403 14.7687C71.3573 14.1222 70.2798 13.7968 69.1865 13.8464C68.1969 13.809 67.2193 14.0731 66.3831 14.6038C65.637 15.1286 65.0649 15.8646 64.7402 16.717C64.3425 17.7363 64.1474 18.8234 64.1661 19.9174C64.1401 21.0089 64.331 22.0946 64.728 23.1117C65.0611 23.9732 65.6492 24.7126 66.4137 25.231C67.2515 25.7629 68.2315 26.0271 69.2232 25.9884C70.3176 26.0393 71.3961 25.7114 72.277 25.06C73.0676 24.3958 73.6348 23.5045 73.9016 22.507L76.7172 23.2827C76.2556 24.8344 75.3096 26.1977 74.0177 27.1732C72.6217 28.1688 70.9369 28.6775 69.2232 28.6207Z" fill="#293253"/>
<path d="M79.2949 28.2732V15.7404H81.738V18.7942L81.4387 18.3972C81.5858 17.9889 81.7916 17.6042 82.0495 17.2551C82.3072 16.9164 82.6237 16.6268 82.9839 16.4C83.3019 16.1892 83.6471 16.0228 84.01 15.9053C84.3855 15.7899 84.7727 15.7161 85.1643 15.6854C85.5479 15.6603 85.9331 15.6788 86.3126 15.7404V18.3239C85.8944 18.2146 85.4603 18.1794 85.03 18.2201C84.5706 18.2545 84.1254 18.3946 83.729 18.6293C83.3582 18.8227 83.0349 19.096 82.7824 19.4294C82.5361 19.7613 82.3539 20.1362 82.2449 20.5349C82.1247 20.9726 82.0651 21.4247 82.0678 21.8785V28.2732H79.2949Z" fill="#293253"/>
<path d="M94.022 28.6204C92.8551 28.6454 91.7024 28.3609 90.6811 27.7958C89.7358 27.2581 88.9595 26.4669 88.4396 25.5116C87.8835 24.4785 87.6037 23.3193 87.6273 22.1463C87.5966 20.9084 87.8692 19.6818 88.4213 18.5734C88.9137 17.5986 89.6745 16.7849 90.614 16.2281C91.6001 15.6572 92.724 15.3678 93.8632 15.3913C95.0329 15.3561 96.1862 15.6731 97.1735 16.3014C98.0985 16.9288 98.8068 17.8269 99.2013 18.8727C99.6592 20.1216 99.8304 21.4575 99.7021 22.7815H96.9231V21.7615C97.0006 20.7179 96.7508 19.6761 96.2085 18.781C95.9406 18.4558 95.5978 18.2004 95.2096 18.0366C94.8213 17.8728 94.3992 17.8055 93.9792 17.8405C93.4976 17.8079 93.0151 17.89 92.5713 18.0801C92.1275 18.2701 91.7351 18.5627 91.4263 18.9337C90.8199 19.8323 90.5259 20.9054 90.5895 21.9875C90.5247 23.0374 90.8199 24.078 91.4263 24.9375C91.7225 25.2917 92.0981 25.5709 92.5227 25.7523C92.9472 25.9338 93.4086 26.0125 93.8693 25.9819C94.493 25.9994 95.1091 25.8407 95.6466 25.5238C96.1561 25.204 96.5598 24.7408 96.8071 24.1924L99.5555 25.0413C99.1077 26.1295 98.3302 27.0501 97.3323 27.6737C96.3425 28.3002 95.1934 28.6288 94.022 28.6204ZM89.71 22.7815V20.6683H98.334V22.7815H89.71Z" fill="#293253"/>
<path d="M105.57 28.6225C104.773 28.6489 103.982 28.4702 103.273 28.1034C102.676 27.7929 102.182 27.3155 101.85 26.7292C101.527 26.1532 101.361 25.5024 101.368 24.8419C101.358 24.2839 101.46 23.7295 101.667 23.2112C101.874 22.722 102.197 22.2902 102.608 21.9531C103.092 21.5697 103.643 21.2779 104.232 21.0919C104.813 20.908 105.404 20.7612 106.003 20.6521C106.681 20.5178 107.414 20.3956 108.208 20.2857L110.7 19.9192L109.699 20.4872C109.728 20.144 109.69 19.7983 109.585 19.4701C109.48 19.142 109.311 18.8379 109.088 18.5756C108.813 18.3444 108.495 18.1712 108.152 18.0662C107.808 17.9613 107.448 17.9268 107.091 17.9648C106.524 17.965 105.965 18.099 105.46 18.3557C105.192 18.4947 104.956 18.6873 104.765 18.9217C104.575 19.156 104.435 19.4269 104.354 19.7177L101.82 18.9359C102.105 17.9092 102.729 17.0093 103.591 16.3829C104.63 15.6918 105.863 15.3534 107.109 15.4179C108.117 15.3986 109.118 15.5835 110.053 15.9615C110.873 16.2982 111.544 16.921 111.94 17.7144C112.16 18.134 112.297 18.5924 112.343 19.0642C112.394 19.5634 112.418 20.0649 112.416 20.5666V28.2622H109.973V25.5565L110.377 26.0024C109.898 26.8227 109.217 27.5063 108.398 27.9874C107.525 28.439 106.551 28.6578 105.57 28.6225ZM106.126 26.3933C106.686 26.4105 107.243 26.2955 107.75 26.0574C108.161 25.8591 108.527 25.5785 108.825 25.2328C109.059 24.9629 109.241 24.6524 109.363 24.3167C109.517 23.9274 109.602 23.5139 109.613 23.0952C109.613 22.631 109.644 22.2584 109.644 21.9714L110.499 22.2279L108.33 22.576C107.72 22.6799 107.207 22.7715 106.773 22.8631C106.385 22.9375 106.001 23.0354 105.625 23.1562C105.333 23.2553 105.056 23.3929 104.8 23.5655C104.594 23.7044 104.419 23.8855 104.287 24.0968C104.162 24.3115 104.098 24.5567 104.104 24.8053C104.1 25.0949 104.181 25.3793 104.336 25.6237C104.509 25.8694 104.746 26.0636 105.02 26.1856C105.369 26.3356 105.746 26.4065 106.126 26.3933Z" fill="#293253"/>
<path d="M114.042 17.9327V15.7401H122.764V17.9327H114.042ZM122.764 28.2729C121.958 28.4244 121.14 28.492 120.321 28.4745C119.59 28.4688 118.868 28.3194 118.195 28.0347C117.583 27.776 117.078 27.3145 116.766 26.7277C116.486 26.2195 116.332 25.6522 116.314 25.0725C116.314 24.5045 116.314 23.851 116.314 23.1547V12.2588H119.099V22.9898C119.099 23.4968 119.099 23.9365 119.099 24.3152C119.097 24.64 119.179 24.9599 119.337 25.2435C119.476 25.4741 119.671 25.6659 119.904 25.8014C120.137 25.937 120.4 26.0119 120.669 26.0192C121.366 26.0708 122.067 26.04 122.758 25.9276L122.764 28.2729Z" fill="#293253"/>
<path d="M125.713 13.8366V11.2714H128.51V13.8366H125.713ZM125.713 28.2749V15.7421H128.51V28.2749H125.713Z" fill="#293253"/>
<path d="M135.382 28.2731L130.832 15.7404H133.629L136.811 24.8285L139.957 15.7404H142.76L138.216 28.2731H135.382Z" fill="#293253"/>
<path d="M150.058 28.6205C148.891 28.6455 147.739 28.361 146.717 27.796C145.772 27.2582 144.996 26.467 144.476 25.5117C143.92 24.4787 143.64 23.3195 143.663 22.1464C143.633 20.9085 143.905 19.6819 144.457 18.5735C144.95 17.5987 145.711 16.785 146.65 16.2282C147.636 15.6574 148.76 15.368 149.899 15.3914C151.069 15.3562 152.222 15.6733 153.21 16.3015C154.135 16.9289 154.843 17.827 155.237 18.8728C155.695 20.1217 155.867 21.4576 155.738 22.7816H152.959V21.7617C153.037 20.718 152.787 19.6762 152.245 18.7812C151.977 18.4559 151.634 18.2005 151.246 18.0367C150.857 17.8729 150.435 17.8056 150.015 17.8406C149.534 17.8081 149.051 17.8902 148.607 18.0802C148.164 18.2703 147.771 18.5628 147.462 18.9338C146.856 19.8324 146.562 20.9055 146.626 21.9876C146.561 23.0375 146.856 24.0781 147.462 24.9376C147.759 25.2918 148.134 25.571 148.559 25.7525C148.983 25.934 149.445 26.0126 149.905 25.982C150.529 25.9996 151.145 25.8408 151.683 25.5239C152.192 25.2041 152.596 24.7409 152.843 24.1925L155.598 25.0414C155.15 26.1296 154.372 27.0502 153.375 27.6738C152.383 28.3014 151.232 28.6301 150.058 28.6205ZM145.746 22.7816V20.6684H154.364V22.7816H145.746Z" fill="#293253"/>
<path d="M163.208 28.2729V11.5625H166.005V25.6527H173.383V28.2729H163.208Z" fill="#293253"/>
<path d="M175.355 28.2729V11.5625H177.878L183.656 23.399L189.434 11.5625H191.95V28.2729H189.336V17.5602L184.205 28.2729H183.094L177.976 17.5602V28.2729H175.355Z" fill="#293253"/>
<path d="M201.386 28.6216C200.255 28.6484 199.13 28.4404 198.082 28.0108C197.137 27.6124 196.307 26.9822 195.67 26.1785C195.02 25.3629 194.598 24.3891 194.448 23.3568L197.349 22.911C197.551 23.8413 198.094 24.6625 198.87 25.2135C199.659 25.7505 200.597 26.0261 201.551 26.0014C202.123 26.003 202.691 25.908 203.231 25.7205C203.719 25.5592 204.159 25.2802 204.514 24.9082C204.678 24.7325 204.807 24.5261 204.892 24.3008C204.977 24.0755 205.016 23.8357 205.008 23.595C205.008 23.376 204.969 23.1588 204.892 22.9537C204.813 22.7566 204.697 22.5763 204.55 22.4224C204.386 22.2531 204.199 22.1072 203.994 21.9887C203.733 21.8516 203.459 21.7411 203.176 21.6589L198.858 20.3824C198.485 20.2725 198.088 20.1259 197.636 19.9488C197.193 19.7599 196.781 19.5045 196.415 19.1914C196.018 18.8556 195.698 18.4392 195.474 17.9699C195.216 17.3944 195.091 16.7682 195.108 16.1376C195.083 15.1712 195.374 14.2231 195.939 13.4381C196.503 12.6929 197.268 12.1231 198.143 11.7951C199.119 11.4271 200.155 11.2468 201.197 11.2638C202.246 11.2605 203.284 11.4682 204.251 11.8745C205.126 12.2373 205.899 12.8075 206.505 13.5358C207.126 14.3065 207.562 15.209 207.781 16.1743L204.77 16.6934C204.663 16.1413 204.42 15.6247 204.062 15.191C203.711 14.7799 203.27 14.4558 202.773 14.2443C202.259 14.0296 201.711 13.9116 201.154 13.8962C200.626 13.8858 200.101 13.9706 199.603 14.1466C199.183 14.2882 198.804 14.5292 198.498 14.8489C198.212 15.1575 198.057 15.5645 198.064 15.985C198.056 16.1683 198.085 16.3514 198.149 16.5235C198.213 16.6955 198.311 16.853 198.437 16.9866C198.696 17.2551 199.01 17.4636 199.359 17.5974C199.723 17.7472 200.096 17.8737 200.476 17.976L203.469 18.8067C203.878 18.9166 204.343 19.0632 204.85 19.2525C205.375 19.4422 205.873 19.7032 206.328 20.0282C206.809 20.3724 207.206 20.8214 207.488 21.3413C207.819 21.9777 207.979 22.689 207.952 23.4057C207.969 24.1991 207.782 24.9835 207.409 25.6838C207.055 26.3311 206.558 26.8889 205.955 27.3146C205.318 27.7589 204.61 28.0895 203.86 28.2918C203.054 28.5116 202.222 28.6225 201.386 28.6216Z" fill="#293253"/>
<path d="M54.9685 12.5157C54.9703 14.3621 54.7841 16.2039 54.4127 18.0126C54.0348 19.9022 53.4532 21.7452 52.6781 23.5094C51.8287 25.4612 50.7525 27.3061 49.4716 29.0063C47.9055 31.0866 46.0552 32.9369 43.9748 34.5031C42.2732 35.7817 40.4285 36.8578 38.478 37.7096C36.7127 38.482 34.87 39.0635 32.9811 39.4441C31.1724 39.8155 29.3307 40.0017 27.4843 39.9999C25.6382 40.0007 23.7967 39.8166 21.9874 39.4502C18.0015 38.6363 14.2464 36.9465 10.9937 34.5031C8.91336 32.9369 7.06304 31.0866 5.49686 29.0063C4.21605 27.3061 3.13981 25.4612 2.29037 23.5094C1.51526 21.7452 0.933681 19.9022 0.555805 18.0126C0.184433 16.2039 -0.00179194 14.3621 1.29947e-05 12.5157H0.0855195C1.47935 12.5229 2.8288 13.0066 3.9098 13.8865C4.99081 14.7664 5.73832 15.9896 6.02822 17.353C6.07708 17.5728 6.13205 17.7927 6.18702 18.0126C6.68612 19.9384 7.44427 21.7875 8.44073 23.5094C9.16968 24.7736 10.0251 25.9604 10.9937 27.0518C11.6012 27.7438 12.252 28.3966 12.942 29.0063C14.0378 29.9722 15.2264 30.8273 16.4906 31.5592C18.2123 32.5544 20.0616 33.3106 21.9874 33.8068C25.5932 34.7351 29.3753 34.7351 32.9811 33.8068C34.9069 33.3106 36.7562 32.5544 38.478 31.5592C39.7421 30.8273 40.9307 29.9722 42.0265 29.0063C42.7166 28.3966 43.3673 27.7438 43.9748 27.0518C44.9435 25.9604 45.7988 24.7736 46.5278 23.5094C47.5242 21.7875 48.2824 19.9384 48.7815 18.0126C48.8365 17.7927 48.8914 17.5728 48.9403 17.353C49.2302 15.9896 49.9777 14.7664 51.0587 13.8865C52.1397 13.0066 53.4892 12.5229 54.883 12.5157H54.9685Z" fill="#3E96FC"/>
<path d="M18.8675 13.9258L27.5953 18.9646L22.0984 22.1344L10.9398 15.6848L7.88603 13.9258C7.63866 13.7833 7.4332 13.5782 7.29034 13.3311C7.14748 13.0839 7.07227 12.8035 7.07227 12.518C7.07227 12.2326 7.14748 11.9521 7.29034 11.705C7.4332 11.4578 7.63866 11.2527 7.88603 11.1102L10.9398 9.34513L22.0984 2.89551L27.5953 6.07146L18.8675 11.1102C18.6201 11.2527 18.4147 11.4578 18.2718 11.705C18.129 11.9521 18.0537 12.2326 18.0537 12.518C18.0537 12.8035 18.129 13.0839 18.2718 13.3311C18.4147 13.5782 18.6201 13.7833 18.8675 13.9258Z" fill="#785BFF"/>
<path d="M33.0914 2.89649L27.5945 6.07244L22.0977 2.89649L26.7089 0.23358C26.9789 0.0804781 27.2841 0 27.5945 0C27.9049 0 28.2101 0.0804781 28.4801 0.23358L33.0914 2.89649Z" fill="#00258C"/>
<path d="M47.3091 13.9258L45.1043 15.1962C44.7826 15.3812 44.5158 15.6483 44.3312 15.9703C44.1466 16.2922 44.0509 16.6574 44.0538 17.0285V17.2789C44.0573 18.6062 43.7418 19.9148 43.1338 21.0947C42.5258 22.2745 41.6432 23.2909 40.5602 24.0583C39.9176 24.52 39.2174 24.8957 38.4775 25.176V20.5342C38.4769 20.3809 38.436 20.2305 38.3588 20.098C38.2816 19.9655 38.1709 19.8557 38.0378 19.7795C37.9047 19.7034 37.754 19.6636 37.6006 19.6642C37.4473 19.6648 37.2968 19.7058 37.1644 19.783L33.0906 22.1344L27.5938 18.9646L36.3154 13.9258C36.5644 13.7846 36.7714 13.5799 36.9154 13.3326C37.0595 13.0853 37.1354 12.8042 37.1354 12.518C37.1354 12.2318 37.0595 11.9507 36.9154 11.7034C36.7714 11.4561 36.5644 11.2514 36.3154 11.1102L27.5938 6.07146L33.0906 2.89551L44.2492 9.34513L47.303 11.1102C47.5507 11.2522 47.7566 11.4569 47.9 11.7037C48.0434 11.9505 48.1192 12.2308 48.1198 12.5163C48.1204 12.8017 48.0458 13.0823 47.9035 13.3298C47.7612 13.5772 47.5562 13.7828 47.3091 13.9258Z" fill="#FE4C93"/>
<path d="M33.0914 22.1366L28.4801 24.7996C28.2101 24.9527 27.9049 25.0331 27.5945 25.0331C27.2841 25.0331 26.9789 24.9527 26.7089 24.7996L22.0977 22.1366L27.5945 18.9668L33.0914 22.1366Z" fill="#00258C"/>
</svg>
