<svg width="24" height="24" viewBox="0 0 24 24" fill="none" xmlns="http://www.w3.org/2000/svg">
<path d="M2.0617 11.3393H13.401C14.5396 11.3393 15.4626 10.4162 15.4626 9.27759V2.0617C15.4626 0.923072 14.5396 0 13.4009 0H2.0617C0.923072 0 0 0.923072 0 2.0617V9.27759C0 10.4162 0.923072 11.3393 2.0617 11.3393Z" fill="#1487E1"/>
<path d="M23.6476 0.909204C23.2645 0.340855 22.6238 9.66416e-05 21.9384 0H18.8459C17.7073 0 16.7842 0.923072 16.7842 2.0617V9.27759C16.7842 10.4162 17.7072 11.3393 18.8459 11.3393H21.9384C23.0771 11.3393 24.0001 10.4162 24.0001 9.27759V2.0617C24.0008 1.65088 23.878 1.24933 23.6476 0.909204Z" fill="#9DD3FE"/>
<path d="M6.30668 13.0132C5.96655 12.7829 5.56501 12.66 5.15418 12.6607H2.06165C0.923072 12.6607 0 13.5838 0 14.7224V21.9383C0 23.077 0.923072 24 2.0617 24H5.15423C6.29286 24 7.21593 23.0769 7.21593 21.9383V14.7224C7.21579 14.037 6.87503 13.3964 6.30668 13.0132Z" fill="#9DD3FE"/>
<path d="M23.0906 13.0132C22.7504 12.7829 22.3489 12.66 21.9381 12.6607H10.5988C9.46017 12.6607 8.53711 13.5838 8.53711 14.7224V21.9383C8.53711 23.077 9.46017 24 10.5988 24H21.9381C23.0768 24 23.9998 23.077 23.9998 21.9383V14.7224C23.9997 14.037 23.6589 13.3964 23.0906 13.0132Z" fill="#1487E1"/>
</svg>
