<svg width="24" height="25" viewBox="0 0 24 25" fill="none" xmlns="http://www.w3.org/2000/svg">
<g clip-path="url(#clip0_78_813)">
<path d="M23.498 6.61461C23.222 5.57561 22.409 4.75661 21.376 4.47861C19.505 3.97461 12 3.97461 12 3.97461C12 3.97461 4.495 3.97461 2.623 4.47861C1.591 4.75661 0.778 5.57461 0.502 6.61461C0 8.49861 0 12.4286 0 12.4286C0 12.4286 0 16.3586 0.502 18.2426C0.778 19.2816 1.591 20.1006 2.624 20.3786C4.495 20.8826 12 20.8826 12 20.8826C12 20.8826 19.505 20.8826 21.377 20.3786C22.409 20.1006 23.222 19.2826 23.499 18.2426C24 16.3586 24 12.4286 24 12.4286C24 12.4286 24 8.49861 23.498 6.61461ZM9.546 15.9976V8.85961L15.818 12.4286L9.546 15.9976Z" fill="#3D82F0"/>
</g>
<defs>
<clipPath id="clip0_78_813">
<rect width="24" height="24" fill="white" transform="translate(0 0.428711)"/>
</clipPath>
</defs>
</svg>
