<svg width="24" height="25" viewBox="0 0 24 25" fill="none" xmlns="http://www.w3.org/2000/svg">
<mask id="mask0_78_796" style="mask-type:alpha" maskUnits="userSpaceOnUse" x="0" y="0" width="24" height="25">
<rect y="0.428711" width="24" height="24" fill="#D9D9D9"/>
</mask>
<g mask="url(#mask0_78_796)">
<path d="M9 12.9287H10V10.9287H11C11.2833 10.9287 11.5208 10.8329 11.7125 10.6412C11.9042 10.4495 12 10.212 12 9.92871V8.92871C12 8.64538 11.9042 8.40788 11.7125 8.21621C11.5208 8.02454 11.2833 7.92871 11 7.92871H9V12.9287ZM10 9.92871V8.92871H11V9.92871H10ZM13 12.9287H15C15.2833 12.9287 15.5208 12.8329 15.7125 12.6412C15.9042 12.4495 16 12.212 16 11.9287V8.92871C16 8.64538 15.9042 8.40788 15.7125 8.21621C15.5208 8.02454 15.2833 7.92871 15 7.92871H13V12.9287ZM14 11.9287V8.92871H15V11.9287H14ZM17 12.9287H18V10.9287H19V9.92871H18V8.92871H19V7.92871H17V12.9287ZM8 18.4287C7.45 18.4287 6.97917 18.2329 6.5875 17.8412C6.19583 17.4495 6 16.9787 6 16.4287V4.42871C6 3.87871 6.19583 3.40788 6.5875 3.01621C6.97917 2.62454 7.45 2.42871 8 2.42871H20C20.55 2.42871 21.0208 2.62454 21.4125 3.01621C21.8042 3.40788 22 3.87871 22 4.42871V16.4287C22 16.9787 21.8042 17.4495 21.4125 17.8412C21.0208 18.2329 20.55 18.4287 20 18.4287H8ZM4 22.4287C3.45 22.4287 2.97917 22.2329 2.5875 21.8412C2.19583 21.4495 2 20.9787 2 20.4287V6.42871H4V20.4287H18V22.4287H4Z" fill="#3D82F0"/>
</g>
</svg>
