<svg width="24" height="25" viewBox="0 0 24 25" fill="none" xmlns="http://www.w3.org/2000/svg">
<g clip-path="url(#clip0_78_816)">
<path d="M23.988 6.84064C23.881 9.18164 22.249 12.3866 19.093 16.4546C15.83 20.7036 13.069 22.8286 10.811 22.8286C9.412 22.8286 8.228 21.5346 7.261 18.9466C6.615 16.5746 5.97 14.2026 5.324 11.8296C4.606 9.24264 3.836 7.94764 3.013 7.94764C2.833 7.94764 2.205 8.32664 1.13 9.08064L0 7.62364C1.185 6.58064 2.353 5.53864 3.503 4.49464C5.083 3.12664 6.269 2.40764 7.059 2.33464C8.927 2.15464 10.077 3.43364 10.508 6.17264C10.974 9.12764 11.297 10.9646 11.478 11.6836C12.016 14.1346 12.609 15.3586 13.256 15.3586C13.758 15.3586 14.513 14.5636 15.519 12.9736C16.524 11.3836 17.062 10.1736 17.135 9.34264C17.278 7.97064 16.74 7.28264 15.519 7.28264C14.944 7.28264 14.352 7.41464 13.743 7.67664C14.922 3.80564 17.176 1.92564 20.502 2.03264C22.968 2.10564 24.13 3.70764 23.988 6.84064Z" fill="#3D82F0"/>
</g>
<defs>
<clipPath id="clip0_78_816">
<rect width="24" height="24" fill="white" transform="translate(0 0.428711)"/>
</clipPath>
</defs>
</svg>
