<svg width="17" height="17" viewBox="0 0 17 17" fill="none" xmlns="http://www.w3.org/2000/svg">
<path d="M13.6347 8.99396H0.997742C0.776932 8.99396 0.594315 8.92169 0.449951 8.77734C0.305603 8.633 0.233398 8.4505 0.233398 8.22968C0.233398 8.00885 0.305603 7.82623 0.449951 7.68195C0.594315 7.53748 0.776932 7.46533 0.997742 7.46533H13.6347L7.85121 1.68182C7.69838 1.52887 7.62193 1.35065 7.62193 1.14667C7.62193 0.942932 7.69838 0.764648 7.85121 0.611694C8.00409 0.458862 8.18245 0.382446 8.38628 0.382446C8.59009 0.382446 8.76842 0.458862 8.92128 0.611694L16.0041 7.69452C16.089 7.77948 16.1485 7.86438 16.1824 7.9494C16.2164 8.03424 16.2334 8.12762 16.2334 8.22968C16.2334 8.33148 16.2164 8.42493 16.1824 8.50983C16.1485 8.59479 16.089 8.67969 16.0041 8.76459L8.92128 15.8475C8.76842 16.0003 8.59009 16.0767 8.38628 16.0767C8.18245 16.0767 8.00409 16.0003 7.85121 15.8475C7.69838 15.6945 7.62193 15.5162 7.62193 15.3124C7.62193 15.1086 7.69838 14.9302 7.85121 14.7773L13.6347 8.99396Z" fill="#676C7D"/>
</svg>
