<svg width="34" height="34" viewBox="0 0 34 34" fill="none" xmlns="http://www.w3.org/2000/svg">
<g clip-path="url(#clip0_78_1299)">
<path d="M27.568 11.3333L28.6871 8.85415L31.1663 7.73499C31.7188 7.47999 31.7188 6.70082 31.1663 6.44582L28.6871 5.32665L27.568 2.83332C27.313 2.28082 26.5338 2.28082 26.2788 2.83332L25.1596 5.31249L22.6663 6.43165C22.1138 6.68665 22.1138 7.46582 22.6663 7.72082L25.1455 8.83999L26.2646 11.3333C26.5196 11.8858 27.313 11.8858 27.568 11.3333ZM16.2913 13.4583L14.0388 8.49999C13.543 7.39499 11.9563 7.39499 11.4605 8.49999L9.20798 13.4583L4.24965 15.7108C3.14465 16.2208 3.14465 17.7933 4.24965 18.2892L9.20798 20.5417L11.4605 25.5C11.9705 26.605 13.543 26.605 14.0388 25.5L16.2913 20.5417L21.2496 18.2892C22.3546 17.7792 22.3546 16.2067 21.2496 15.7108L16.2913 13.4583ZM26.2646 22.6667L25.1455 25.1458L22.6663 26.265C22.1138 26.52 22.1138 27.2992 22.6663 27.5542L25.1455 28.6733L26.2646 31.1667C26.5196 31.7192 27.2988 31.7192 27.5538 31.1667L28.673 28.6875L31.1663 27.5683C31.7188 27.3133 31.7188 26.5342 31.1663 26.2792L28.6871 25.16L27.568 22.6667C27.313 22.1142 26.5196 22.1142 26.2646 22.6667Z" fill="white" fill-opacity="0.8"/>
</g>
<defs>
<clipPath id="clip0_78_1299">
<rect width="34" height="34" fill="white"/>
</clipPath>
</defs>
</svg>
