<svg width="49" height="60" viewBox="0 0 49 60" fill="none" xmlns="http://www.w3.org/2000/svg">
<path d="M48.804 50.8061C48.7666 50.3793 48.7171 49.9538 48.655 49.5299C48.655 49.5292 48.4072 48.154 48.3595 47.9443C47.8085 45.5268 46.3065 43.7542 44.2774 42.3791C43.8979 42.122 43.5041 41.8989 43.1052 41.6894C42.5796 41.413 34.6351 38.8023 34.4283 38.7374C34.4772 39.009 34.5106 39.3095 34.5216 39.6358C35.6278 40.4127 38.8884 43.2163 37.4077 48.4625C37.4077 48.4625 35.067 45.6722 32.6789 45.3136C30.4045 49.2784 26.5326 54.297 24.4472 55.6143C22.3619 54.297 18.4901 49.2783 16.2156 45.3135C13.8274 45.6722 11.4868 48.4624 11.4868 48.4624C10.0062 43.2164 13.2667 40.4127 14.373 39.6358C14.384 39.3095 14.4174 39.009 14.4662 38.7374C14.2593 38.8023 6.31484 41.4131 5.78924 41.6892C5.39056 41.8989 4.99667 42.1219 4.61711 42.3791C2.58801 43.754 1.08602 45.5266 0.535081 47.9442C0.487209 48.1543 0.239508 49.5295 0.239508 49.5298C0.17745 49.9539 0.127834 50.3794 0.0905079 50.8061C0.0889147 50.8239 -7.58173e-05 53.0448 4.84798e-08 53.0575C4.84798e-08 53.0575 0.0229115 54.0982 0.0358087 54.3466C0.107122 55.727 0.396702 57.0108 1.4042 58.0805C2.68807 59.4432 4.24757 60.001 6.07647 60C12.2 59.9972 18.3237 59.9964 24.4472 59.9963C30.571 59.9964 36.6946 59.9972 42.818 60C44.6468 60.0011 46.2064 59.4432 47.4903 58.0805C48.4977 57.0108 48.7874 55.7272 48.8586 54.3466C48.8716 54.0982 48.8945 53.0575 48.8945 53.0575C48.8946 53.0448 48.8057 50.8238 48.804 50.8061Z" fill="white"/>
<path d="M10.0379 25.8382C10.2281 26.5253 10.3498 27.1718 10.3452 27.7857C10.3436 27.9902 10.328 28.1912 10.2962 28.3887C10.1243 28.9696 8.90026 30.9274 8.70483 31.2564C10.8616 33.5817 13.718 34.1211 16.5352 34.7146C17.3681 34.89 18.2173 34.9954 19.1197 35.1122C19.4107 35.1651 19.7038 35.2194 19.9987 35.2756L18.5674 39.4594C18.5674 39.4594 18.5267 45.5644 24.4285 49.2794H24.4655C30.3673 45.5642 30.3266 39.4594 30.3266 39.4594L28.8954 35.2757C29.1903 35.2196 29.4834 35.1652 29.7744 35.1123C30.6769 34.9956 31.526 34.89 32.3589 34.7149C35.1761 34.1212 38.0325 33.5818 40.1893 31.2567C39.994 30.9276 38.7698 28.9697 38.5979 28.3888C38.566 28.1912 38.5505 27.9904 38.5489 27.7858C38.5442 27.172 38.6659 26.5255 38.8561 25.8383C39.0369 25.1852 39.245 24.5352 39.4435 23.8822C40.3971 21.7572 40.928 19.3982 40.928 16.9138C40.928 7.67587 33.5855 0.169256 24.4653 0.00128972V0C24.4591 7.58657e-05 24.453 0.000455194 24.4468 0.00053106C24.4406 0.000455194 24.4346 0.000151731 24.4284 0V0.00113799C15.3083 0.169105 7.96582 7.67571 7.96582 16.9137C7.96582 19.3979 8.4968 21.757 9.45044 23.882C9.64898 24.5351 9.85723 25.1849 10.0379 25.8382Z" fill="white"/>
</svg>
