<svg width="60" height="60" viewBox="0 0 60 60" fill="none" xmlns="http://www.w3.org/2000/svg">
<path fill-rule="evenodd" clip-rule="evenodd" d="M30 0C30.8787 0 31.5975 0.719951 31.5975 1.59996H40.2559L38.4374 4.84559L40.2557 8.09122H31.5974V10.7343H28.4025V1.59996C28.4026 0.720073 29.1214 0 30 0ZM47.069 33.5566V60H59.0264C59.5626 60 60 59.5619 60 59.0248V34.5318C60 33.9947 59.5626 33.5566 59.0264 33.5566H47.069ZM51.6845 39.5593H55.3843C55.6387 39.5593 55.8467 39.7676 55.8467 40.0224V43.7282C55.8467 43.983 55.6387 44.1915 55.3843 44.1915H51.6845C51.4301 44.1915 51.222 43.983 51.222 43.7282V40.0224C51.2221 39.7676 51.4301 39.5593 51.6845 39.5593ZM51.6845 49.3647H55.3843C55.6387 49.3647 55.8467 49.5733 55.8467 49.828V53.5338C55.8467 53.7886 55.6387 53.997 55.3843 53.997H51.6845C51.4301 53.997 51.222 53.7886 51.222 53.5338V49.828C51.2221 49.5733 51.4301 49.3647 51.6845 49.3647ZM12.931 60V33.5566H0.973631C0.437404 33.5566 0 33.9947 0 34.5318V59.0248C0 59.5619 0.437404 60 0.973631 60H12.931ZM4.61562 39.5593H8.31542C8.56978 39.5593 8.77789 39.7676 8.77789 40.0224V43.7282C8.77789 43.983 8.56978 44.1915 8.31542 44.1915H4.61562C4.36114 44.1915 4.15314 43.983 4.15314 43.7282V40.0224C4.15314 39.7676 4.36114 39.5593 4.61562 39.5593ZM4.61562 49.3647H8.31542C8.56978 49.3647 8.77789 49.5733 8.77789 49.828V53.5338C8.77789 53.7886 8.56978 53.997 8.31542 53.997H4.61562C4.36114 53.997 4.15314 53.7886 4.15314 53.5338V49.828C4.15314 49.5733 4.36114 49.3647 4.61562 49.3647ZM14.4628 12.8066H45.5372C46.6316 12.8066 47.5269 13.7035 47.5269 14.7997C47.5269 15.896 46.6317 16.7928 45.5372 16.7928H14.4628C13.3683 16.7928 12.4729 15.896 12.4729 14.7997C12.4729 13.7035 13.3684 12.8066 14.4628 12.8066ZM45 18.865V59.9996H38.5345V46.7782C38.5345 46.2061 38.0713 45.742 37.5 45.742H22.5C21.9287 45.742 21.4654 46.2061 21.4654 46.7782V59.9998H15V18.865H45ZM36.4655 59.9998V47.8143H23.5345V59.9998H36.4655ZM19.434 23.6489C19.1797 23.6489 18.9716 23.8575 18.9716 24.1123V27.8181C18.9716 28.0729 19.1797 28.2812 19.434 28.2812H23.1338C23.3883 28.2812 23.5963 28.0729 23.5963 27.8181V24.1123C23.5963 23.8575 23.3883 23.6489 23.1338 23.6489H19.434ZM19.434 33.4547C19.1797 33.4547 18.9716 33.663 18.9716 33.9178V37.6236C18.9716 37.8784 19.1797 38.087 19.434 38.087H23.1338C23.3883 38.087 23.5963 37.8784 23.5963 37.6236V33.9178C23.5963 33.663 23.3883 33.4547 23.1338 33.4547H19.434ZM28.15 23.6489C27.8957 23.6489 27.6875 23.8575 27.6875 24.1123V27.8181C27.6875 28.0729 27.8957 28.2812 28.15 28.2812H31.8499C32.1043 28.2812 32.3123 28.0729 32.3123 27.8181V24.1123C32.3123 23.8575 32.1043 23.6489 31.8499 23.6489H28.15ZM28.15 33.4547C27.8957 33.4547 27.6875 33.663 27.6875 33.9178V37.6236C27.6875 37.8784 27.8957 38.087 28.15 38.087H31.8499C32.1043 38.087 32.3123 37.8784 32.3123 37.6236V33.9178C32.3123 33.663 32.1043 33.4547 31.8499 33.4547H28.15ZM36.8662 23.6489C36.6117 23.6489 36.4037 23.8575 36.4037 24.1123V27.8181C36.4037 28.0729 36.6117 28.2812 36.8662 28.2812H40.566C40.8203 28.2812 41.0284 28.0729 41.0284 27.8181V24.1123C41.0284 23.8575 40.8203 23.6489 40.566 23.6489H36.8662ZM36.8662 33.4547C36.6117 33.4547 36.4037 33.663 36.4037 33.9178V37.6236C36.4037 37.8784 36.6117 38.087 36.8662 38.087H40.566C40.8203 38.087 41.0284 37.8784 41.0284 37.6236V33.9178C41.0284 33.663 40.8203 33.4547 40.566 33.4547H36.8662Z" fill="white"/>
</svg>
