<svg width="111" height="111" viewBox="0 0 111 111" fill="none" xmlns="http://www.w3.org/2000/svg">
<path d="M38.9411 30.5277C44.8122 30.1142 44.8673 30.0866 44.8673 29.3148C44.8673 28.2398 42.2763 25.814 41.5045 26.1724C41.4769 26.1999 40.1264 26.3102 38.5277 26.448C28.77 27.2474 28.2463 27.468 30.479 29.7282C31.7745 31.0237 31.995 31.0238 38.9411 30.5277Z" fill="#278EFD" fill-opacity="0.54"/>
<path d="M42.9098 38.7139C43.5162 40.0646 45.8867 40.1475 55.0931 39.2103C57.9322 38.9071 58.2628 37.887 55.975 36.371C54.4866 35.3787 53.4668 35.3237 48.7258 35.9853C43.4611 36.6744 42.2483 37.253 42.9098 38.7139Z" fill="#278EFD" fill-opacity="0.54"/>
<path d="M70.777 47.8099C70.777 45.7426 67.6346 45.0811 61.736 45.8804C57.3258 46.4868 56.1681 47.1759 57.1053 48.6368C58.4284 50.5939 70.777 49.8772 70.777 47.8099Z" fill="#278EFD" fill-opacity="0.54"/>
<path d="M65.9542 28.9016C67.36 27.7439 64.9342 25.2079 62.5638 25.3457C62.1503 25.3733 60.3036 25.4836 58.4017 25.6214C52.062 26.0624 51.0421 26.5586 52.6684 28.4881C53.7158 29.7009 64.576 30.0593 65.9542 28.9016Z" fill="#278EFD" fill-opacity="0.54"/>
<path d="M49.5529 49.2434C49.5529 48.0857 46.3279 46.5972 44.426 46.8453C44.2882 46.8728 43.1857 46.9831 41.9729 47.1209C35.6883 47.7824 33.6761 49.2433 36.5427 51.1177C38.169 52.1651 49.5529 50.5389 49.5529 49.2434Z" fill="#278EFD" fill-opacity="0.54"/>
<path d="M81.2518 37.2531C81.2518 35.4339 78.0544 34.4966 73.6718 34.9928C68.7654 35.5716 67.0288 36.3161 67.8282 37.5564C68.848 39.0724 81.2518 38.7966 81.2518 37.2531Z" fill="#278EFD" fill-opacity="0.54"/>
<path d="M51.8685 61.4267C53.8531 61.2613 56.7749 61.0683 58.3184 60.9581C61.4331 60.7651 61.9018 60.3516 60.3031 59.1664C58.9525 58.1741 50.132 57.7331 47.2378 58.5325C42.6898 59.8004 45.9974 61.8677 51.8685 61.4267Z" fill="#278EFD" fill-opacity="0.54"/>
<path d="M29.5966 59.0838C24.0012 59.9934 22.0991 61.2337 24.2491 62.6119C26.2337 63.8523 38.2791 61.9229 37.342 60.5171C36.2394 58.8633 33.8415 58.3947 29.5966 59.0838Z" fill="#278EFD" fill-opacity="0.54"/>
<path d="M31.3611 41.3877C31.3611 40.5607 30.231 39.4583 29.2663 39.2929C27.6676 39.0173 17.8824 39.1275 16.6421 39.4307C13.5273 40.175 16.449 43.6203 18.4888 43.4549C18.6266 43.4274 31.3611 42.5453 31.3611 41.3877Z" fill="#278EFD" fill-opacity="0.54"/>
<path d="M78.1095 80.6939C76.4281 81.0523 76.5934 82.4027 78.5504 83.8361C79.2119 84.3322 88.8317 83.4501 89.4381 82.8161C91.092 81.1899 82.9332 79.6465 78.1095 80.6939Z" fill="#278EFD" fill-opacity="0.54"/>
<path d="M94.7026 47.4244C93.6001 46.377 84.1733 45.3571 83.622 46.2115C83.0983 47.066 83.9527 49.1885 89.3001 49.0783C94.9231 48.9956 96.136 48.8026 94.7026 47.4244Z" fill="#278EFD" fill-opacity="0.54"/>
<path d="M85.1653 57.2097C84.6141 56.7136 74.4706 56.5756 71.2732 57.0442C68.5444 57.4576 67.8002 58.3675 69.5367 59.1944C70.6117 59.7181 72.7065 59.3322 83.5391 58.5053C85.7718 58.3123 86.1025 58.0642 85.1653 57.2097Z" fill="#278EFD" fill-opacity="0.54"/>
<path d="M73.7818 68.8965C72.9824 68.6209 68.1312 68.5384 65.8158 68.7864C60.5787 69.3101 59.0351 70.1093 60.4409 71.5151C61.3229 72.3971 62.3152 72.3972 68.5722 71.4876C71.2184 71.1017 73.8093 70.7985 74.3055 70.7985C75.6837 70.7985 75.3253 69.4202 73.7818 68.8965Z" fill="#278EFD" fill-opacity="0.54"/>
<path d="M51.0144 71.3225C49.4157 71.0469 41.2568 71.0744 39.9062 71.3225C36.2677 72.0392 40.0991 75.0435 41.6426 74.7954C44.7022 74.2993 50.9592 73.5551 52.2547 73.5551C54.5977 73.5551 53.6054 71.7635 51.0144 71.3225Z" fill="#278EFD" fill-opacity="0.54"/>
<path d="M63.9416 82.8438C63.1146 82.0996 54.6526 81.3277 52.6129 81.8239C49.829 82.513 51.8686 85.352 54.9007 85.0212C57.3814 84.7456 60.7441 84.3322 62.839 84.3046C64.6031 84.3046 64.989 83.781 63.9416 82.8438Z" fill="#278EFD" fill-opacity="0.54"/>
</svg>
