<svg width="42" height="43" viewBox="0 0 42 43" fill="none" xmlns="http://www.w3.org/2000/svg">
<path d="M24.7567 28.651C25.9612 28.4266 26.3308 33.5897 25.1673 34.3754C24.743 34.67 24.2913 34.4877 24.086 33.9405C23.1552 31.5834 23.4974 28.8896 24.7567 28.651Z" fill="#5B25EF"/>
<path d="M19.6379 27.7957C20.2949 27.445 22.7177 27.3468 22.8409 27.6695C23.1146 28.4131 21.1846 28.9602 19.501 28.6376C19.0356 28.5393 19.1177 28.0763 19.6379 27.7957Z" fill="#5B25EF"/>
<path d="M24.6457 21.705C25.5354 21.705 25.6997 25.7457 24.8373 26.4192C24.4814 26.6858 23.7423 26.6577 23.5917 26.3631C22.5925 24.469 23.2221 21.705 24.6457 21.705Z" fill="#5B25EF"/>
<path d="M24.3849 19.8395C23.9879 19.6291 23.8921 19.1941 23.7689 16.8791C23.6457 14.3396 25.74 12.1088 26.1232 17.735C26.2327 19.4186 25.4388 20.3727 24.3849 19.8395Z" fill="#5B25EF"/>
<path d="M28.9325 27.2617C30.2466 27.1635 30.6983 27.3459 30.4245 27.879C30.1234 28.4543 26.2907 28.9173 26.0991 28.3982C25.8801 27.823 26.9204 27.4161 28.9325 27.2617Z" fill="#5B25EF"/>
<path d="M12.6704 20.6533C11.329 20.7936 10.713 20.9339 10.3571 20.6674C9.70009 20.1763 11.1784 19.4888 12.9989 19.4187C14.7784 19.3626 14.4909 20.4569 12.6704 20.6533Z" fill="#5B25EF"/>
<path d="M21.7327 14.4797C20.8019 14.5919 19.2826 14.6621 19.0225 14.5919C17.8864 14.3113 19.3784 13.4414 21.2263 13.2871C23.5669 13.0907 24.046 14.1851 21.7327 14.4797Z" fill="#5B25EF"/>
<path d="M23.4556 11.9122C22.4154 9.93394 23.0313 7.53473 24.5781 7.53473C25.1941 7.53473 26.029 10.6775 25.6184 11.4773C25.3172 12.0525 23.6883 12.3752 23.4556 11.9122Z" fill="#5B25EF"/>
<path d="M15.8451 18.5625C15.2292 18.9694 14.4352 18.9974 14.271 18.6046C14.0657 18.0995 13.874 15.6442 14.0246 15.3496C14.2984 14.7884 15.9272 14.4517 16.1052 14.9147C16.3653 15.6442 16.1873 18.338 15.8451 18.5625Z" fill="#5B25EF"/>
<path d="M30.5204 13.8062C29.8497 14.4235 26.2908 14.7322 26.0855 14.199C25.8528 13.5676 26.7562 13.2029 28.8641 13.0906C30.8626 12.9784 31.2459 13.1468 30.5204 13.8062Z" fill="#5B25EF"/>
<path d="M14.5848 26.0967C13.9414 25.9844 13.7361 22.6172 14.3247 21.8876C14.8175 21.2843 16.3642 20.6529 16.3232 22.533C16.2684 25.2268 16.2137 26.3632 14.5848 26.0967Z" fill="#5B25EF"/>
<path d="M19.9258 20.6811C19.2687 20.9617 16.6132 20.9476 16.5174 20.653C16.2847 20.0497 17.3798 19.6007 19.0908 19.6007C20.8155 19.6007 21.2261 20.1199 19.9258 20.6811Z" fill="#5B25EF"/>
</svg>
