<svg width="11" height="6" viewBox="0 0 11 6" fill="none" xmlns="http://www.w3.org/2000/svg">
<path d="M5.41883 5.75076C5.30836 5.75076 5.2048 5.73004 5.10815 5.68862C5.01149 5.6472 4.92174 5.58506 4.83889 5.50221L0.737943 1.40126C0.586058 1.24938 0.513564 1.05607 0.52047 0.821332C0.527374 0.586595 0.606768 0.393287 0.758656 0.241403C0.93816 0.0618964 1.13492 -0.0175008 1.34894 0.00321493C1.56297 0.0239249 1.75283 0.110225 1.91852 0.262109L5.41883 3.76242L8.91913 0.262109C9.07102 0.110221 9.26778 0.0273772 9.50942 0.0135661C9.75106 -0.000241186 9.94782 0.0826064 10.0997 0.262109C10.2792 0.413997 10.3586 0.603856 10.3379 0.831687C10.3172 1.05952 10.2309 1.25628 10.079 1.42198L5.99876 5.50221C5.91591 5.58506 5.82616 5.6472 5.72951 5.68862C5.63285 5.73004 5.52929 5.75076 5.41883 5.75076Z" fill="white"/>
</svg>
