<svg width="29" height="29" viewBox="0 0 29 29" fill="none" xmlns="http://www.w3.org/2000/svg">
<mask id="mask0_1_329" style="mask-type:alpha" maskUnits="userSpaceOnUse" x="0" y="0" width="29" height="29">
<rect x="0.351318" y="0.40477" width="28.5405" height="28.5405" fill="#D9D9D9"/>
</mask>
<g mask="url(#mask0_1_329)">
<path d="M8.67741 25.3778V22.9994H13.4342V19.3129C12.463 19.0949 11.5959 18.6837 10.8328 18.0791C10.0698 17.4746 9.50984 16.7165 9.15309 15.8048C7.6666 15.6264 6.42291 14.9773 5.42201 13.8575C4.4211 12.7377 3.92065 11.4246 3.92065 9.91834V8.72915C3.92065 8.0751 4.15354 7.51519 4.6193 7.04942C5.08507 6.58366 5.64498 6.35077 6.29903 6.35077H8.67741V3.9724H20.5693V6.35077H22.9477C23.6017 6.35077 24.1616 6.58366 24.6274 7.04942C25.0932 7.51519 25.3261 8.0751 25.3261 8.72915V9.91834C25.3261 11.4246 24.8256 12.7377 23.8247 13.8575C22.8238 14.9773 21.5801 15.6264 20.0936 15.8048C19.7369 16.7165 19.177 17.4746 18.4139 18.0791C17.6508 18.6837 16.7837 19.0949 15.8125 19.3129V22.9994H20.5693V25.3778H8.67741ZM8.67741 13.2481V8.72915H6.29903V9.91834C6.29903 10.6715 6.51705 11.3503 6.95309 11.9548C7.38912 12.5593 7.9639 12.9904 8.67741 13.2481ZM20.5693 13.2481C21.2828 12.9904 21.8576 12.5593 22.2936 11.9548C22.7297 11.3503 22.9477 10.6715 22.9477 9.91834V8.72915H20.5693V13.2481Z" fill="#FEB202"/>
</g>
</svg>
