<svg width="138" height="298" viewBox="0 0 138 298" fill="none" xmlns="http://www.w3.org/2000/svg">
<g filter="url(#filter0_d_1009_271)">
<rect x="37.1641" y="23.9974" width="63.4981" height="223.079" rx="13.368" fill="#081021" shape-rendering="crispEdges"/>
<rect x="50.5312" y="37.3654" width="36.7621" height="36.7621" rx="18.381" fill="white"/>
<path d="M72.395 57.139V61.3165M70.3063 59.2277H74.4838M64.7363 54.354H66.1288C66.8978 54.354 67.5213 53.7305 67.5213 52.9615V51.569C67.5213 50.7999 66.8978 50.1765 66.1288 50.1765H64.7363C63.9672 50.1765 63.3438 50.7999 63.3438 51.569V52.9615C63.3438 53.7305 63.9672 54.354 64.7363 54.354ZM71.6988 54.354H73.0913C73.8603 54.354 74.4838 53.7305 74.4838 52.9615V51.569C74.4838 50.7999 73.8603 50.1765 73.0913 50.1765H71.6988C70.9297 50.1765 70.3063 50.7999 70.3063 51.569V52.9615C70.3063 53.7305 70.9297 54.354 71.6988 54.354ZM64.7363 61.3165H66.1288C66.8978 61.3165 67.5213 60.693 67.5213 59.924V58.5315C67.5213 57.7624 66.8978 57.139 66.1288 57.139H64.7363C63.9672 57.139 63.3438 57.7624 63.3438 58.5315V59.924C63.3438 60.693 63.9672 61.3165 64.7363 61.3165Z" stroke="#4F46E5" stroke-width="1.25325" stroke-linecap="round" stroke-linejoin="round"/>
<path d="M74.4838 96.5468V91.673C74.4838 90.9039 73.8603 90.2805 73.0913 90.2805H64.7363C63.9672 90.2805 63.3438 90.9039 63.3438 91.673V96.5468M74.4838 96.5468V100.028C74.4838 100.797 73.8603 101.421 73.0913 101.421H64.7363C63.9672 101.421 63.3438 100.797 63.3438 100.028V96.5468M74.4838 96.5468H72.6834C72.4988 96.5468 72.3217 96.6201 72.1911 96.7507L70.5102 98.4316C70.3796 98.5621 70.2025 98.6355 70.0179 98.6355H67.8097C67.625 98.6355 67.4479 98.5621 67.3173 98.4316L65.6364 96.7507C65.5059 96.6201 65.3288 96.5468 65.1441 96.5468H63.3438" stroke="white" stroke-width="1.25325" stroke-linecap="round" stroke-linejoin="round"/>
<path d="M66.1297 132.473V129.688M71.6997 132.473V129.688M65.4334 135.258H72.396M64.0409 142.221H73.7885C74.5575 142.221 75.181 141.597 75.181 140.828V132.473C75.181 131.704 74.5575 131.081 73.7885 131.081H64.0409C63.2719 131.081 62.6484 131.704 62.6484 132.473V140.828C62.6484 141.597 63.2719 142.221 64.0409 142.221Z" stroke="white" stroke-width="1.25325" stroke-linecap="round" stroke-linejoin="round"/>
<rect x="60.1369" y="138.879" width="5.84851" height="5.84851" rx="2.92426" fill="#F97316"/>
<rect x="60.1369" y="138.879" width="5.84851" height="5.84851" rx="2.92426" stroke="white" stroke-width="0.835502"/>
<path d="M69.611 178.844V171.881C69.611 171.497 69.2992 171.185 68.9147 171.185H63.3447C62.9602 171.185 62.6484 171.497 62.6484 171.881V178.844C62.6484 179.228 62.9602 179.54 63.3447 179.54H64.0409M69.611 178.844C69.611 179.228 69.2992 179.54 68.9147 179.54H66.8259M69.611 178.844L69.611 173.274C69.611 172.889 69.9227 172.577 70.3072 172.577H72.1076C72.2922 172.577 72.4693 172.651 72.5999 172.781L74.977 175.159C75.1076 175.289 75.181 175.466 75.181 175.651V178.844C75.181 179.228 74.8692 179.54 74.4847 179.54H73.7885M69.611 178.844C69.611 179.228 69.9227 179.54 70.3072 179.54H71.0035M64.0409 179.54C64.0409 180.309 64.6644 180.932 65.4334 180.932C66.2025 180.932 66.8259 180.309 66.8259 179.54M64.0409 179.54C64.0409 178.771 64.6644 178.147 65.4334 178.147C66.2025 178.147 66.8259 178.771 66.8259 179.54M71.0035 179.54C71.0035 180.309 71.6269 180.932 72.396 180.932C73.165 180.932 73.7885 180.309 73.7885 179.54M71.0035 179.54C71.0035 178.771 71.6269 178.147 72.396 178.147C73.165 178.147 73.7885 178.771 73.7885 179.54" stroke="white" stroke-width="1.25325"/>
<path d="M66.1297 216.859V216.163M68.9147 216.859V214.77M71.6997 216.859V213.378M66.1297 222.429L68.9147 219.644L71.6997 222.429M62.6484 210.593H75.181M63.3447 210.593H74.4847V218.948C74.4847 219.332 74.173 219.644 73.7885 219.644H64.0409C63.6564 219.644 63.3447 219.332 63.3447 218.948V210.593Z" stroke="white" stroke-width="1.25325" stroke-linecap="round" stroke-linejoin="round"/>
<rect x="60.1369" y="219.087" width="5.84851" height="5.84851" rx="2.92426" fill="#F97316"/>
<rect x="60.1369" y="219.087" width="5.84851" height="5.84851" rx="2.92426" stroke="white" stroke-width="0.835502"/>
</g>
<defs>
<filter id="filter0_d_1009_271" x="0.401985" y="0.603327" width="137.024" height="296.603" filterUnits="userSpaceOnUse" color-interpolation-filters="sRGB">
<feFlood flood-opacity="0" result="BackgroundImageFix"/>
<feColorMatrix in="SourceAlpha" type="matrix" values="0 0 0 0 0 0 0 0 0 0 0 0 0 0 0 0 0 0 127 0" result="hardAlpha"/>
<feOffset dy="13.368"/>
<feGaussianBlur stdDeviation="18.381"/>
<feComposite in2="hardAlpha" operator="out"/>
<feColorMatrix type="matrix" values="0 0 0 0 0 0 0 0 0 0 0 0 0 0 0 0 0 0 0.07 0"/>
<feBlend mode="normal" in2="BackgroundImageFix" result="effect1_dropShadow_1009_271"/>
<feBlend mode="normal" in="SourceGraphic" in2="effect1_dropShadow_1009_271" result="shape"/>
</filter>
</defs>
</svg>
