<svg width="274" height="248" viewBox="0 0 274 248" fill="none" xmlns="http://www.w3.org/2000/svg">
<g filter="url(#filter0_d_1011_662)">
<rect x="20.4766" y="20.5391" width="228.284" height="207.458" rx="22.3817" fill="white" shape-rendering="crispEdges"/>
<path d="M37.1581 39.9825H38.5959L40.3152 43.0916H40.3838L42.1031 39.9825H43.541L40.9844 44.3888V47.0106H39.7147V44.3888L37.1581 39.9825ZM49.9811 43.4966C49.9811 44.2538 49.8393 44.9024 49.5556 45.4423C49.2742 45.9799 48.8898 46.3917 48.4025 46.6777C47.9175 46.9637 47.3673 47.1067 46.7519 47.1067C46.1365 47.1067 45.5851 46.9637 45.0978 46.6777C44.6128 46.3895 44.2285 45.9765 43.9448 45.4389C43.6634 44.899 43.5227 44.2515 43.5227 43.4966C43.5227 42.7393 43.6634 42.0919 43.9448 41.5542C44.2285 41.0143 44.6128 40.6014 45.0978 40.3154C45.5851 40.0294 46.1365 39.8865 46.7519 39.8865C47.3673 39.8865 47.9175 40.0294 48.4025 40.3154C48.8898 40.6014 49.2742 41.0143 49.5556 41.5542C49.8393 42.0919 49.9811 42.7393 49.9811 43.4966ZM48.7011 43.4966C48.7011 42.9635 48.6176 42.514 48.4506 42.1479C48.2859 41.7796 48.0571 41.5016 47.7642 41.314C47.4714 41.1241 47.134 41.0292 46.7519 41.0292C46.3698 41.0292 46.0324 41.1241 45.7396 41.314C45.4467 41.5016 45.2168 41.7796 45.0498 42.1479C44.8851 42.514 44.8027 42.9635 44.8027 43.4966C44.8027 44.0296 44.8851 44.4803 45.0498 44.8486C45.2168 45.2147 45.4467 45.4926 45.7396 45.6825C46.0324 45.8701 46.3698 45.9639 46.7519 45.9639C47.134 45.9639 47.4714 45.8701 47.7642 45.6825C48.0571 45.4926 48.2859 45.2147 48.4506 44.8486C48.6176 44.4803 48.7011 44.0296 48.7011 43.4966ZM55.2699 39.9825H56.5431V44.5741C56.5431 45.0774 56.4241 45.5201 56.1862 45.9022C55.9505 46.2842 55.6188 46.5828 55.191 46.7978C54.7632 47.0106 54.2633 47.117 53.6913 47.117C53.1171 47.117 52.6161 47.0106 52.1883 46.7978C51.7605 46.5828 51.4287 46.2842 51.1931 45.9022C50.9575 45.5201 50.8396 45.0774 50.8396 44.5741V39.9825H52.1128V44.4677C52.1128 44.7606 52.1768 45.0214 52.305 45.2501C52.4354 45.4789 52.6184 45.6585 52.854 45.7889C53.0897 45.917 53.3688 45.9811 53.6913 45.9811C54.0139 45.9811 54.293 45.917 54.5287 45.7889C54.7666 45.6585 54.9496 45.4789 55.0777 45.2501C55.2059 45.0214 55.2699 44.7606 55.2699 44.4677V39.9825ZM57.5818 47.0106V39.9825H60.2173C60.7572 39.9825 61.2102 40.0763 61.5762 40.2639C61.9445 40.4515 62.2225 40.7146 62.4101 41.0532C62.6 41.3895 62.6949 41.7819 62.6949 42.2303C62.6949 42.681 62.5988 43.0722 62.4067 43.4039C62.2168 43.7333 61.9365 43.9884 61.5659 44.1692C61.1953 44.3476 60.74 44.4368 60.2001 44.4368H58.323V43.3799H60.0285C60.3442 43.3799 60.6028 43.3364 60.8041 43.2495C61.0054 43.1603 61.1541 43.031 61.2502 42.8617C61.3486 42.6901 61.3978 42.4796 61.3978 42.2303C61.3978 41.9809 61.3486 41.7681 61.2502 41.592C61.1518 41.4135 61.002 41.2786 60.8007 41.1871C60.5993 41.0933 60.3397 41.0464 60.0217 41.0464H58.8549V47.0106H57.5818ZM61.2125 43.826L62.9523 47.0106H61.5316L59.8226 43.826H61.2125ZM71.5893 42.3538H70.3059C70.2693 42.1433 70.2018 41.9569 70.1034 41.7945C70.005 41.6297 69.8826 41.4902 69.7362 41.3758C69.5898 41.2614 69.4228 41.1756 69.2352 41.1184C69.0499 41.0589 68.8497 41.0292 68.6347 41.0292C68.2526 41.0292 67.914 41.1253 67.6189 41.3175C67.3238 41.5073 67.0927 41.7865 66.9257 42.1548C66.7587 42.5208 66.6752 42.9681 66.6752 43.4966C66.6752 44.0342 66.7587 44.4872 66.9257 44.8555C67.095 45.2215 67.326 45.4984 67.6189 45.686C67.914 45.8713 68.2515 45.9639 68.6312 45.9639C68.8417 45.9639 69.0384 45.9365 69.2215 45.8816C69.4068 45.8244 69.5726 45.7409 69.7191 45.6311C69.8678 45.5212 69.9925 45.3863 70.0931 45.2261C70.1961 45.066 70.267 44.883 70.3059 44.6771L71.5893 44.6839C71.5413 45.0179 71.4372 45.3314 71.277 45.6242C71.1192 45.917 70.9121 46.1756 70.6559 46.3998C70.3997 46.6217 70.1 46.7955 69.7568 46.9214C69.4136 47.0449 69.0327 47.1067 68.6141 47.1067C67.9964 47.1067 67.445 46.9637 66.96 46.6777C66.475 46.3917 66.0929 45.9788 65.8138 45.4389C65.5347 44.899 65.3952 44.2515 65.3952 43.4966C65.3952 42.7393 65.5359 42.0919 65.8173 41.5542C66.0987 41.0143 66.4819 40.6014 66.9669 40.3154C67.4519 40.0294 68.0009 39.8865 68.6141 39.8865C69.0053 39.8865 69.369 39.9414 69.7053 40.0512C70.0416 40.161 70.3413 40.3223 70.6044 40.535C70.8675 40.7455 71.0837 41.004 71.253 41.3106C71.4246 41.6149 71.5367 41.9626 71.5893 42.3538ZM72.4101 47.0106V39.9825H75.0456C75.5855 39.9825 76.0385 40.0763 76.4046 40.2639C76.7729 40.4515 77.0509 40.7146 77.2385 41.0532C77.4283 41.3895 77.5233 41.7819 77.5233 42.2303C77.5233 42.681 77.4272 43.0722 77.235 43.4039C77.0451 43.7333 76.7649 43.9884 76.3943 44.1692C76.0236 44.3476 75.5684 44.4368 75.0285 44.4368H73.1513V43.3799H74.8569C75.1726 43.3799 75.4311 43.3364 75.6324 43.2495C75.8338 43.1603 75.9825 43.031 76.0786 42.8617C76.1769 42.6901 76.2261 42.4796 76.2261 42.2303C76.2261 41.9809 76.1769 41.7681 76.0786 41.592C75.9802 41.4135 75.8303 41.2786 75.629 41.1871C75.4277 41.0933 75.168 41.0464 74.85 41.0464H73.6833V47.0106H72.4101ZM76.0408 43.826L77.7807 47.0106H76.36L74.651 43.826H76.0408ZM78.3501 47.0106V39.9825H82.921V41.0498H79.6232V42.9578H82.6843V44.025H79.6232V45.9433H82.9485V47.0106H78.3501ZM86.2564 47.0106H83.8748V39.9825H86.3044C87.0022 39.9825 87.6016 40.1232 88.1026 40.4046C88.6059 40.6837 88.9926 41.0852 89.2625 41.6091C89.5325 42.133 89.6675 42.7599 89.6675 43.4897C89.6675 44.2218 89.5313 44.8509 89.2591 45.3771C88.9891 45.9033 88.5991 46.3071 88.0889 46.5885C87.581 46.8699 86.9702 47.0106 86.2564 47.0106ZM85.148 45.909H86.1946C86.6842 45.909 87.0926 45.8198 87.4197 45.6414C87.7469 45.4606 87.9928 45.1918 88.1575 44.8349C88.3222 44.4757 88.4046 44.0273 88.4046 43.4897C88.4046 42.9521 88.3222 42.506 88.1575 42.1514C87.9928 41.7945 87.7492 41.5279 87.4266 41.3518C87.1063 41.1733 86.7082 41.0841 86.2324 41.0841H85.148V45.909ZM91.8051 39.9825V47.0106H90.532V39.9825H91.8051ZM92.5298 41.0498V39.9825H98.1372V41.0498H95.9649V47.0106H94.7021V41.0498H92.5298ZM104.744 41.9146C104.712 41.6149 104.577 41.3815 104.339 41.2145C104.104 41.0475 103.797 40.964 103.42 40.964C103.154 40.964 102.927 41.004 102.737 41.0841C102.547 41.1642 102.402 41.2728 102.301 41.4101C102.2 41.5474 102.149 41.7041 102.147 41.8803C102.147 42.0267 102.18 42.1536 102.246 42.2612C102.315 42.3687 102.407 42.4602 102.524 42.5357C102.641 42.6089 102.77 42.6707 102.912 42.721C103.054 42.7713 103.197 42.8137 103.341 42.848L104 43.0127C104.265 43.0745 104.52 43.158 104.765 43.2632C105.012 43.3684 105.233 43.5011 105.427 43.6613C105.624 43.8214 105.78 44.0147 105.894 44.2412C106.008 44.4677 106.066 44.7331 106.066 45.0374C106.066 45.4492 105.96 45.8118 105.75 46.1252C105.539 46.4364 105.235 46.68 104.837 46.8562C104.441 47.03 103.962 47.117 103.399 47.117C102.852 47.117 102.378 47.0323 101.975 46.863C101.575 46.6937 101.261 46.4467 101.035 46.1218C100.811 45.7969 100.689 45.4011 100.671 44.9344H101.924C101.942 45.1792 102.017 45.3828 102.15 45.5453C102.283 45.7077 102.455 45.829 102.668 45.909C102.883 45.9891 103.123 46.0291 103.389 46.0291C103.666 46.0291 103.908 45.988 104.116 45.9056C104.327 45.8209 104.492 45.7043 104.611 45.5556C104.729 45.4046 104.79 45.2284 104.792 45.0271C104.79 44.8441 104.736 44.6931 104.631 44.5741C104.526 44.4529 104.378 44.3522 104.188 44.2721C104.001 44.1898 103.781 44.1166 103.53 44.0525L102.73 43.8466C102.151 43.6979 101.694 43.4725 101.357 43.1706C101.023 42.8663 100.856 42.4625 100.856 41.9592C100.856 41.5451 100.968 41.1825 101.193 40.8713C101.419 40.5602 101.727 40.3188 102.116 40.1473C102.505 39.9734 102.945 39.8865 103.437 39.8865C103.936 39.8865 104.373 39.9734 104.748 40.1473C105.125 40.3188 105.422 40.5579 105.637 40.8645C105.852 41.1688 105.963 41.5188 105.969 41.9146H104.744ZM112.871 42.3538H111.588C111.551 42.1433 111.484 41.9569 111.385 41.7945C111.287 41.6297 111.164 41.4902 111.018 41.3758C110.872 41.2614 110.705 41.1756 110.517 41.1184C110.332 41.0589 110.132 41.0292 109.916 41.0292C109.534 41.0292 109.196 41.1253 108.901 41.3175C108.606 41.5073 108.375 41.7865 108.208 42.1548C108.041 42.5208 107.957 42.9681 107.957 43.4966C107.957 44.0342 108.041 44.4872 108.208 44.8555C108.377 45.2215 108.608 45.4984 108.901 45.686C109.196 45.8713 109.533 45.9639 109.913 45.9639C110.124 45.9639 110.32 45.9365 110.503 45.8816C110.689 45.8244 110.854 45.7409 111.001 45.6311C111.15 45.5212 111.274 45.3863 111.375 45.2261C111.478 45.066 111.549 44.883 111.588 44.6771L112.871 44.6839C112.823 45.0179 112.719 45.3314 112.559 45.6242C112.401 45.917 112.194 46.1756 111.938 46.3998C111.682 46.6217 111.382 46.7955 111.039 46.9214C110.695 47.0449 110.315 47.1067 109.896 47.1067C109.278 47.1067 108.727 46.9637 108.242 46.6777C107.757 46.3917 107.375 45.9788 107.096 45.4389C106.817 44.899 106.677 44.2515 106.677 43.4966C106.677 42.7393 106.818 42.0919 107.099 41.5542C107.38 41.0143 107.764 40.6014 108.249 40.3154C108.734 40.0294 109.283 39.8865 109.896 39.8865C110.287 39.8865 110.651 39.9414 110.987 40.0512C111.323 40.161 111.623 40.3223 111.886 40.535C112.149 40.7455 112.366 41.004 112.535 41.3106C112.706 41.6149 112.819 41.9626 112.871 42.3538ZM119.972 43.4966C119.972 44.2538 119.83 44.9024 119.546 45.4423C119.265 45.9799 118.881 46.3917 118.393 46.6777C117.908 46.9637 117.358 47.1067 116.743 47.1067C116.127 47.1067 115.576 46.9637 115.089 46.6777C114.604 46.3895 114.219 45.9765 113.936 45.4389C113.654 44.899 113.513 44.2515 113.513 43.4966C113.513 42.7393 113.654 42.0919 113.936 41.5542C114.219 41.0143 114.604 40.6014 115.089 40.3154C115.576 40.0294 116.127 39.8865 116.743 39.8865C117.358 39.8865 117.908 40.0294 118.393 40.3154C118.881 40.6014 119.265 41.0143 119.546 41.5542C119.83 42.0919 119.972 42.7393 119.972 43.4966ZM118.692 43.4966C118.692 42.9635 118.608 42.514 118.441 42.1479C118.277 41.7796 118.048 41.5016 117.755 41.314C117.462 41.1241 117.125 41.0292 116.743 41.0292C116.361 41.0292 116.023 41.1241 115.73 41.314C115.438 41.5016 115.208 41.7796 115.041 42.1479C114.876 42.514 114.793 42.9635 114.793 43.4966C114.793 44.0296 114.876 44.4803 115.041 44.8486C115.208 45.2147 115.438 45.4926 115.73 45.6825C116.023 45.8701 116.361 45.9639 116.743 45.9639C117.125 45.9639 117.462 45.8701 117.755 45.6825C118.048 45.4926 118.277 45.2147 118.441 44.8486C118.608 44.4803 118.692 44.0296 118.692 43.4966ZM120.83 47.0106V39.9825H123.466C124.006 39.9825 124.459 40.0763 124.825 40.2639C125.193 40.4515 125.471 40.7146 125.659 41.0532C125.849 41.3895 125.944 41.7819 125.944 42.2303C125.944 42.681 125.848 43.0722 125.655 43.4039C125.465 43.7333 125.185 43.9884 124.815 44.1692C124.444 44.3476 123.989 44.4368 123.449 44.4368H121.572V43.3799H123.277C123.593 43.3799 123.851 43.3364 124.053 43.2495C124.254 43.1603 124.403 43.031 124.499 42.8617C124.597 42.6901 124.646 42.4796 124.646 42.2303C124.646 41.9809 124.597 41.7681 124.499 41.592C124.4 41.4135 124.251 41.2786 124.049 41.1871C123.848 41.0933 123.588 41.0464 123.27 41.0464H122.104V47.0106H120.83ZM124.461 43.826L126.201 47.0106H124.78L123.071 43.826H124.461ZM126.77 47.0106V39.9825H131.341V41.0498H128.044V42.9578H131.105V44.025H128.044V45.9433H131.369V47.0106H126.77Z" fill="#141451"/>
<g filter="url(#filter1_f_1011_662)">
<ellipse cx="12.0808" cy="10.1727" rx="12.0808" ry="10.1727" transform="matrix(0.999823 0.0188179 -0.0188208 0.999823 200.93 99.0082)" fill="#51B1FF"/>
</g>
<path d="M57.1273 154.169C56.5951 157.823 56.3082 161.529 56.2764 165.264L56.6215 165.267C56.6195 165.498 56.6186 165.729 56.6186 165.96H57.2539C57.2539 165.731 57.2549 165.502 57.2568 165.273L57.6019 165.276C57.6331 161.604 57.9152 157.96 58.4384 154.369L58.0969 154.319C58.163 153.865 58.2329 153.413 58.3066 152.961L58.6473 153.016C59.237 149.401 60.0715 145.843 61.1409 142.365L60.811 142.264C60.9456 141.826 61.084 141.389 61.2261 140.954L61.5542 141.061C62.6878 137.587 64.0573 134.198 65.6525 130.919L65.3422 130.768C65.5426 130.356 65.7465 129.945 65.954 129.537L66.2617 129.693C67.9128 126.443 69.7883 123.305 71.8778 120.306L71.5946 120.109C71.8565 119.733 72.1217 119.359 72.3902 118.988L72.6699 119.19C74.8 116.244 77.1403 113.437 79.681 110.794L79.4322 110.555C79.591 110.39 79.7506 110.225 79.911 110.061C80.0693 109.9 80.2282 109.739 80.3876 109.578L80.6322 109.822C83.1906 107.252 85.9065 104.883 88.7565 102.724L88.5481 102.449C88.9086 102.176 89.2713 101.906 89.6361 101.64L89.8397 101.919C92.7591 99.7866 95.8131 97.8715 98.9772 96.1836L98.8148 95.8791C99.2136 95.6663 99.6142 95.4572 100.016 95.2516L100.173 95.559C103.383 93.9188 106.702 92.5098 110.103 91.3424L109.991 91.0159C110.419 90.8692 110.848 90.7263 111.278 90.5873L111.384 90.9157C114.803 89.8098 118.303 88.9464 121.859 88.336L121.8 87.9958C122.246 87.9194 122.692 87.8469 123.139 87.7784L123.191 88.1195C126.732 87.5767 130.324 87.284 133.944 87.2516L133.941 86.9065C134.167 86.9044 134.393 86.9034 134.619 86.9034C134.845 86.9034 135.072 86.9044 135.298 86.9065L135.295 87.2516C138.915 87.284 142.507 87.5767 146.047 88.1195L146.099 87.7784C146.546 87.8469 146.993 87.9194 147.438 87.9958L147.38 88.336C150.935 88.9464 154.435 89.8098 157.855 90.9157L157.961 90.5873C158.391 90.7263 158.819 90.8692 159.247 91.0159L159.135 91.3424C162.537 92.5098 165.855 93.9188 169.065 95.559L169.222 95.2516C169.624 95.4572 170.025 95.6663 170.424 95.8791L170.261 96.1836C173.425 97.8715 176.479 99.7866 179.399 101.919L179.602 101.64C179.967 101.906 180.33 102.176 180.69 102.449L180.482 102.724C183.332 104.883 186.048 107.252 188.606 109.822L188.851 109.578C189.01 109.739 189.169 109.9 189.327 110.061C189.488 110.225 189.647 110.39 189.806 110.555L189.557 110.794C192.098 113.437 194.438 116.244 196.568 119.19L196.848 118.988C197.117 119.359 197.382 119.733 197.644 120.109L197.361 120.306C199.45 123.305 201.326 126.443 202.977 129.693L203.284 129.537C203.492 129.945 203.696 130.356 203.896 130.768L203.586 130.919C205.181 134.198 206.551 137.587 207.684 141.061L208.012 140.954C208.154 141.389 208.293 141.826 208.427 142.264L208.098 142.365C209.167 145.843 210.001 149.401 210.591 153.016L210.932 152.961C211.005 153.413 211.075 153.865 211.141 154.319L210.8 154.369C211.323 157.96 211.605 161.604 211.636 165.276L211.982 165.273C211.984 165.502 211.984 165.731 211.984 165.96H212.62C212.62 165.729 212.619 165.498 212.617 165.267L212.962 165.264C212.93 161.529 212.643 157.823 212.111 154.169L211.77 154.219C211.703 153.762 211.632 153.305 211.558 152.849L211.899 152.793C211.299 149.116 210.45 145.497 209.362 141.959L209.032 142.061C208.896 141.619 208.757 141.178 208.614 140.739L208.942 140.632C207.789 137.098 206.395 133.651 204.773 130.315L204.462 130.466C204.26 130.051 204.055 129.637 203.845 129.225L204.153 129.069C202.474 125.763 200.566 122.571 198.44 119.52L198.157 119.718C197.893 119.339 197.626 118.962 197.355 118.587L197.635 118.385C195.468 115.388 193.087 112.533 190.503 109.845L190.254 110.084C190.094 109.917 189.933 109.751 189.771 109.586C189.612 109.423 189.452 109.261 189.291 109.099L189.535 108.856C186.933 106.242 184.17 103.832 181.271 101.636L181.063 101.911C180.699 101.636 180.334 101.364 179.966 101.095L180.169 100.816C177.2 98.6477 174.093 96.6996 170.875 94.9827L170.712 95.2872C170.31 95.0727 169.906 94.8619 169.501 94.6546L169.658 94.3473C166.393 92.6789 163.017 91.2456 159.557 90.0581L159.445 90.3846C159.014 90.2367 158.582 90.0927 158.148 89.9525L158.254 89.6241C154.776 88.4992 151.216 87.621 147.599 87L147.541 87.3402C147.092 87.2631 146.642 87.19 146.192 87.1209L146.244 86.7798C142.643 86.2276 138.989 85.9299 135.306 85.897L135.303 86.2421C135.075 86.24 134.847 86.239 134.619 86.239C134.391 86.239 134.163 86.24 133.935 86.2421L133.932 85.897C130.25 85.9299 126.596 86.2276 122.995 86.7798L123.047 87.1209C122.596 87.19 122.147 87.2631 121.698 87.3402L121.639 87C118.022 87.621 114.462 88.4992 110.984 89.6241L111.09 89.9525C110.657 90.0927 110.224 90.2367 109.794 90.3846L109.682 90.0581C106.221 91.2456 102.846 92.6789 99.5806 94.3473L99.7377 94.6546C99.3321 94.8618 98.9283 95.0727 98.5262 95.2872L98.3638 94.9827C95.1452 96.6996 92.0387 98.6477 89.069 100.816L89.2725 101.095C88.9047 101.364 88.5391 101.636 88.1755 101.911L87.9671 101.636C85.0681 103.832 82.3055 106.242 79.7031 108.856L79.9476 109.099C79.7868 109.261 79.6266 109.423 79.4671 109.586C79.3053 109.751 79.1444 109.917 78.9843 110.084L78.7355 109.845C76.1511 112.533 73.7704 115.388 71.6037 118.385L71.8834 118.587C71.6126 118.962 71.3452 119.339 71.0812 119.718L70.798 119.52C68.6725 122.571 66.7648 125.763 65.0852 129.069L65.3929 129.225C65.1837 129.637 64.978 130.051 64.7759 130.466L64.4656 130.315C62.8429 133.651 61.4499 137.098 60.2967 140.632L60.6248 140.739C60.4815 141.178 60.342 141.619 60.2061 142.061L59.8762 141.959C58.7885 145.497 57.9396 149.116 57.3397 152.793L57.6804 152.849C57.606 153.305 57.5355 153.762 57.4688 154.219L57.1273 154.169Z" stroke="#7A7A7A" stroke-width="0.690255" stroke-dasharray="1.38 11.04"/>
<path d="M42.6555 170.806C39.6119 171 36.9704 168.689 36.948 165.64C36.7718 141.711 45.3947 118.474 61.2863 100.412C77.1779 82.3501 99.1291 70.8379 122.887 67.9645C125.914 67.5983 128.543 69.9238 128.738 72.9672L128.751 73.1771C128.946 76.2205 126.632 78.8273 123.607 79.2158C102.83 81.8841 83.6558 92.0252 69.7363 107.846C55.8168 123.666 48.2001 143.975 48.2 164.921C48.2 167.971 45.9091 170.598 42.8655 170.792L42.6555 170.806Z" fill="#7569FF"/>
<path d="M130.716 72.8622C130.587 69.8153 132.954 67.2243 136.004 67.2675C154.508 67.5297 172.562 73.0456 188.054 83.1701C190.607 84.8386 191.121 88.3101 189.311 90.7645L189.186 90.9338C187.376 93.3882 183.928 93.8942 181.363 92.2446C167.955 83.6217 152.418 78.8749 136.48 78.5317C133.431 78.4661 130.854 76.1193 130.725 73.0724L130.716 72.8622Z" fill="#FF51E5"/>
<path d="M191.079 92.0883C192.948 89.6778 196.428 89.2263 198.729 91.2274C207.477 98.8344 214.801 107.939 220.358 118.113C221.819 120.789 220.633 124.092 217.878 125.4L217.688 125.49C214.933 126.798 211.654 125.615 210.173 122.949C205.398 114.358 199.192 106.643 191.822 100.139C189.536 98.1207 189.082 94.6652 190.951 92.2546L191.079 92.0883Z" fill="#51B1FF"/>
<path d="M218.26 126.257C221.028 124.977 224.325 126.178 225.446 129.014C230.057 140.676 232.38 153.117 232.286 165.656C232.263 168.705 229.621 171.015 226.577 170.82L226.367 170.807C223.324 170.612 221.033 167.985 221.034 164.935C221.035 154.269 219.061 143.693 215.212 133.745C214.111 130.901 215.3 127.625 218.069 126.345L218.26 126.257Z" fill="#FFD371"/>
<path d="M208.103 116.264C211.915 116.264 215.005 113.174 215.005 109.362C215.005 105.549 211.915 102.459 208.103 102.459C204.29 102.459 201.2 105.549 201.2 109.362C201.2 113.174 204.29 116.264 208.103 116.264Z" fill="#F9F9F9" stroke="#51B1FF" stroke-width="5.52204"/>
<path d="M114.184 163.088C113.031 163.08 111.906 162.88 110.808 162.488C109.709 162.088 108.721 161.441 107.843 160.547C106.964 159.645 106.266 158.449 105.748 156.958C105.231 155.46 104.976 153.605 104.984 151.393C104.984 149.33 105.203 147.491 105.642 145.875C106.082 144.259 106.713 142.894 107.537 141.78C108.36 140.659 109.353 139.804 110.513 139.216C111.682 138.627 112.988 138.333 114.431 138.333C115.945 138.333 117.287 138.631 118.455 139.227C119.632 139.823 120.581 140.639 121.303 141.675C122.024 142.702 122.471 143.863 122.644 145.157H118.349C118.13 144.232 117.679 143.494 116.996 142.945C116.322 142.388 115.467 142.11 114.431 142.11C112.761 142.11 111.474 142.835 110.572 144.287C109.678 145.738 109.227 147.73 109.219 150.264H109.384C109.768 149.573 110.266 148.981 110.878 148.487C111.49 147.993 112.18 147.612 112.949 147.346C113.726 147.071 114.545 146.934 115.408 146.934C116.82 146.934 118.087 147.271 119.208 147.946C120.338 148.62 121.232 149.55 121.891 150.734C122.55 151.911 122.875 153.26 122.867 154.782C122.875 156.366 122.515 157.79 121.785 159.052C121.056 160.308 120.04 161.296 118.738 162.017C117.436 162.739 115.918 163.096 114.184 163.088ZM114.161 159.558C115.016 159.558 115.781 159.351 116.455 158.935C117.13 158.519 117.663 157.958 118.055 157.252C118.447 156.546 118.64 155.754 118.632 154.876C118.64 154.013 118.451 153.232 118.067 152.534C117.691 151.836 117.169 151.283 116.502 150.875C115.836 150.467 115.075 150.264 114.22 150.264C113.584 150.264 112.992 150.385 112.443 150.628C111.894 150.871 111.416 151.209 111.008 151.64C110.6 152.064 110.278 152.558 110.043 153.123C109.815 153.679 109.698 154.276 109.69 154.911C109.698 155.75 109.894 156.523 110.278 157.229C110.663 157.935 111.192 158.5 111.867 158.923C112.541 159.347 113.306 159.558 114.161 159.558ZM134.288 163.088C133.135 163.08 132.009 162.88 130.911 162.488C129.813 162.088 128.825 161.441 127.946 160.547C127.068 159.645 126.37 158.449 125.852 156.958C125.334 155.46 125.079 153.605 125.087 151.393C125.087 149.33 125.307 147.491 125.746 145.875C126.185 144.259 126.817 142.894 127.64 141.78C128.464 140.659 129.456 139.804 130.617 139.216C131.786 138.627 133.092 138.333 134.535 138.333C136.049 138.333 137.39 138.631 138.559 139.227C139.736 139.823 140.685 140.639 141.406 141.675C142.128 142.702 142.575 143.863 142.748 145.157H138.453C138.233 144.232 137.782 143.494 137.1 142.945C136.425 142.388 135.571 142.11 134.535 142.11C132.864 142.11 131.578 142.835 130.676 144.287C129.782 145.738 129.331 147.73 129.323 150.264H129.488C129.872 149.573 130.37 148.981 130.982 148.487C131.594 147.993 132.284 147.612 133.053 147.346C133.829 147.071 134.649 146.934 135.512 146.934C136.924 146.934 138.19 147.271 139.312 147.946C140.442 148.62 141.336 149.55 141.995 150.734C142.653 151.911 142.979 153.26 142.971 154.782C142.979 156.366 142.618 157.79 141.889 159.052C141.159 160.308 140.143 161.296 138.841 162.017C137.539 162.739 136.022 163.096 134.288 163.088ZM134.265 159.558C135.12 159.558 135.884 159.351 136.559 158.935C137.233 158.519 137.767 157.958 138.159 157.252C138.551 156.546 138.743 155.754 138.735 154.876C138.743 154.013 138.555 153.232 138.171 152.534C137.794 151.836 137.273 151.283 136.606 150.875C135.939 150.467 135.178 150.264 134.323 150.264C133.688 150.264 133.096 150.385 132.547 150.628C131.998 150.871 131.519 151.209 131.111 151.64C130.703 152.064 130.382 152.558 130.147 153.123C129.919 153.679 129.801 154.276 129.794 154.911C129.801 155.75 129.998 156.523 130.382 157.229C130.766 157.935 131.296 158.5 131.97 158.923C132.645 159.347 133.41 159.558 134.265 159.558ZM154.474 163.218C152.537 163.218 150.874 162.727 149.485 161.747C148.105 160.759 147.042 159.335 146.297 157.476C145.56 155.609 145.191 153.362 145.191 150.734C145.199 148.106 145.571 145.871 146.309 144.028C147.054 142.177 148.117 140.765 149.497 139.792C150.886 138.819 152.545 138.333 154.474 138.333C156.404 138.333 158.063 138.819 159.451 139.792C160.839 140.765 161.902 142.177 162.639 144.028C163.385 145.879 163.757 148.114 163.757 150.734C163.757 153.37 163.385 155.621 162.639 157.488C161.902 159.347 160.839 160.766 159.451 161.747C158.07 162.727 156.412 163.218 154.474 163.218ZM154.474 159.535C155.98 159.535 157.168 158.794 158.039 157.311C158.918 155.821 159.357 153.629 159.357 150.734C159.357 148.82 159.157 147.212 158.757 145.91C158.357 144.608 157.792 143.628 157.063 142.969C156.333 142.302 155.47 141.969 154.474 141.969C152.976 141.969 151.792 142.714 150.921 144.204C150.05 145.687 149.611 147.863 149.603 150.734C149.595 152.656 149.787 154.272 150.18 155.582C150.58 156.892 151.144 157.88 151.874 158.547C152.603 159.205 153.47 159.535 154.474 159.535Z" fill="#242424"/>
<path d="M63.8603 183.463H65.5036L67.4685 187.017H67.5469L69.5118 183.463H71.1551L68.2333 188.499V191.495H66.7822V188.499L63.8603 183.463ZM73.2837 191.613C72.6954 191.613 72.1856 191.484 71.7542 191.225C71.3227 190.966 70.9881 190.604 70.7501 190.138C70.5148 189.673 70.3972 189.129 70.3972 188.507C70.3972 187.885 70.5148 187.339 70.7501 186.871C70.9881 186.403 71.3227 186.04 71.7542 185.781C72.1856 185.522 72.6954 185.393 73.2837 185.393C73.872 185.393 74.3818 185.522 74.8132 185.781C75.2446 186.04 75.578 186.403 75.8133 186.871C76.0513 187.339 76.1702 187.885 76.1702 188.507C76.1702 189.129 76.0513 189.673 75.8133 190.138C75.578 190.604 75.2446 190.966 74.8132 191.225C74.3818 191.484 73.872 191.613 73.2837 191.613ZM73.2915 190.476C73.6105 190.476 73.8772 190.388 74.0916 190.213C74.306 190.035 74.4655 189.797 74.5701 189.499C74.6773 189.201 74.7309 188.869 74.7309 188.503C74.7309 188.134 74.6773 187.801 74.5701 187.503C74.4655 187.202 74.306 186.963 74.0916 186.785C73.8772 186.607 73.6105 186.518 73.2915 186.518C72.9647 186.518 72.6928 186.607 72.4758 186.785C72.2614 186.963 72.1006 187.202 71.9934 187.503C71.8888 187.801 71.8365 188.134 71.8365 188.503C71.8365 188.869 71.8888 189.201 71.9934 189.499C72.1006 189.797 72.2614 190.035 72.4758 190.213C72.6928 190.388 72.9647 190.476 73.2915 190.476ZM80.8696 188.962V185.471H82.2894V191.495H80.9128V190.425H80.85C80.7141 190.762 80.4905 191.038 80.1794 191.252C79.8709 191.467 79.4904 191.574 79.0381 191.574C78.6433 191.574 78.2943 191.486 77.991 191.311C77.6903 191.133 77.455 190.876 77.285 190.538C77.1151 190.198 77.0301 189.788 77.0301 189.307V185.471H78.4498V189.087C78.4498 189.469 78.5544 189.772 78.7636 189.997C78.9727 190.222 79.2473 190.334 79.5872 190.334C79.7963 190.334 79.999 190.283 80.1951 190.181C80.3912 190.08 80.552 189.928 80.6775 189.727C80.8056 189.523 80.8696 189.268 80.8696 188.962ZM83.4042 191.495V185.471H84.7808V186.475H84.8435C84.9533 186.128 85.1416 185.86 85.4083 185.671C85.6776 185.48 85.9848 185.385 86.3299 185.385C86.4083 185.385 86.4959 185.389 86.5927 185.397C86.692 185.402 86.7744 185.411 86.8398 185.424V186.73C86.7796 186.709 86.6842 186.691 86.5535 186.675C86.4253 186.657 86.3011 186.648 86.1809 186.648C85.922 186.648 85.6893 186.704 85.4828 186.817C85.2788 186.926 85.118 187.079 85.0004 187.275C84.8827 187.471 84.8239 187.698 84.8239 187.954V191.495H83.4042ZM96.77 186.173H95.3032C95.2614 185.933 95.1843 185.72 95.0718 185.534C94.9594 185.346 94.8195 185.186 94.6522 185.056C94.4849 184.925 94.294 184.827 94.0796 184.761C93.8678 184.693 93.639 184.659 93.3933 184.659C92.9566 184.659 92.5697 184.769 92.2324 184.989C91.8951 185.206 91.631 185.525 91.4401 185.946C91.2493 186.364 91.1538 186.875 91.1538 187.479C91.1538 188.094 91.2493 188.611 91.4401 189.032C91.6336 189.451 91.8977 189.767 92.2324 189.981C92.5697 190.193 92.9553 190.299 93.3893 190.299C93.6299 190.299 93.8547 190.268 94.0639 190.205C94.2757 190.14 94.4652 190.044 94.6326 189.919C94.8025 189.793 94.945 189.639 95.0601 189.456C95.1777 189.273 95.2588 189.064 95.3032 188.828L96.77 188.836C96.7151 189.218 96.5961 189.576 96.4131 189.911C96.2327 190.246 95.9961 190.541 95.7033 190.797C95.4104 191.051 95.0679 191.25 94.6757 191.393C94.2835 191.535 93.8482 191.605 93.3697 191.605C92.6638 191.605 92.0337 191.442 91.4794 191.115C90.9251 190.788 90.4884 190.316 90.1695 189.699C89.8505 189.082 89.691 188.342 89.691 187.479C89.691 186.614 89.8518 185.874 90.1734 185.26C90.495 184.642 90.9329 184.171 91.4872 183.844C92.0415 183.517 92.669 183.353 93.3697 183.353C93.8168 183.353 94.2325 183.416 94.6169 183.542C95.0012 183.667 95.3437 183.852 95.6444 184.095C95.9451 184.335 96.1922 184.631 96.3857 184.981C96.5818 185.329 96.7099 185.726 96.77 186.173ZM97.6946 191.495V185.471H99.0712V186.475H99.1339C99.2438 186.128 99.432 185.86 99.6987 185.671C99.968 185.48 100.275 185.385 100.62 185.385C100.699 185.385 100.786 185.389 100.883 185.397C100.982 185.402 101.065 185.411 101.13 185.424V186.73C101.07 186.709 100.975 186.691 100.844 186.675C100.716 186.657 100.592 186.648 100.471 186.648C100.212 186.648 99.9798 186.704 99.7732 186.817C99.5693 186.926 99.4085 187.079 99.2908 187.275C99.1732 187.471 99.1143 187.698 99.1143 187.954V191.495H97.6946ZM104.147 191.613C103.543 191.613 103.022 191.487 102.582 191.236C102.146 190.983 101.81 190.625 101.574 190.162C101.339 189.696 101.221 189.149 101.221 188.519C101.221 187.899 101.339 187.355 101.574 186.887C101.812 186.416 102.144 186.05 102.571 185.789C102.997 185.525 103.497 185.393 104.073 185.393C104.444 185.393 104.794 185.453 105.124 185.573C105.456 185.691 105.749 185.874 106.002 186.122C106.258 186.371 106.46 186.687 106.606 187.071C106.753 187.453 106.826 187.908 106.826 188.436V188.872H101.888V187.915H105.465C105.462 187.643 105.403 187.401 105.288 187.189C105.173 186.975 105.013 186.806 104.806 186.683C104.602 186.56 104.364 186.499 104.092 186.499C103.802 186.499 103.547 186.569 103.327 186.711C103.108 186.849 102.937 187.032 102.814 187.26C102.693 187.485 102.632 187.732 102.629 188.001V188.836C102.629 189.187 102.693 189.487 102.822 189.738C102.95 189.987 103.129 190.178 103.359 190.311C103.589 190.442 103.858 190.507 104.167 190.507C104.373 190.507 104.56 190.478 104.728 190.421C104.895 190.361 105.04 190.273 105.163 190.158C105.286 190.043 105.379 189.9 105.441 189.73L106.767 189.88C106.683 190.23 106.524 190.536 106.288 190.797C106.056 191.056 105.758 191.257 105.394 191.401C105.031 191.542 104.615 191.613 104.147 191.613ZM109.917 191.601C109.444 191.601 109.02 191.48 108.647 191.236C108.273 190.993 107.977 190.64 107.76 190.178C107.543 189.715 107.435 189.153 107.435 188.491C107.435 187.822 107.544 187.257 107.764 186.797C107.986 186.334 108.286 185.985 108.662 185.75C109.039 185.512 109.458 185.393 109.921 185.393C110.274 185.393 110.564 185.453 110.792 185.573C111.019 185.691 111.2 185.833 111.333 186.001C111.466 186.165 111.57 186.321 111.643 186.467H111.702V183.463H113.125V191.495H111.729V190.546H111.643C111.57 190.693 111.464 190.848 111.325 191.013C111.187 191.175 111.004 191.314 110.776 191.429C110.549 191.544 110.262 191.601 109.917 191.601ZM110.313 190.436C110.614 190.436 110.87 190.355 111.082 190.193C111.294 190.029 111.455 189.8 111.564 189.507C111.674 189.214 111.729 188.873 111.729 188.483C111.729 188.094 111.674 187.755 111.564 187.468C111.457 187.18 111.298 186.956 111.086 186.797C110.877 186.637 110.619 186.558 110.313 186.558C109.997 186.558 109.733 186.64 109.521 186.805C109.309 186.969 109.15 187.197 109.043 187.487C108.935 187.777 108.882 188.109 108.882 188.483C108.882 188.86 108.935 189.196 109.043 189.491C109.152 189.784 109.313 190.015 109.525 190.185C109.739 190.353 110.002 190.436 110.313 190.436ZM114.293 191.495V185.471H115.713V191.495H114.293ZM115.007 184.616C114.782 184.616 114.589 184.542 114.426 184.393C114.264 184.241 114.183 184.059 114.183 183.848C114.183 183.633 114.264 183.452 114.426 183.302C114.589 183.151 114.782 183.075 115.007 183.075C115.234 183.075 115.428 183.151 115.587 183.302C115.749 183.452 115.83 183.633 115.83 183.848C115.83 184.059 115.749 184.241 115.587 184.393C115.428 184.542 115.234 184.616 115.007 184.616ZM119.836 185.471V186.569H116.373V185.471H119.836ZM117.228 184.028H118.647V189.683C118.647 189.874 118.676 190.021 118.734 190.123C118.794 190.222 118.872 190.29 118.969 190.327C119.066 190.363 119.173 190.382 119.291 190.382C119.379 190.382 119.461 190.375 119.534 190.362C119.61 190.349 119.667 190.337 119.706 190.327L119.946 191.437C119.87 191.463 119.761 191.491 119.62 191.523C119.481 191.554 119.311 191.572 119.11 191.578C118.755 191.588 118.434 191.535 118.149 191.417C117.864 191.297 117.638 191.111 117.471 190.86C117.306 190.609 117.225 190.295 117.228 189.919V184.028ZM127.5 185.671C127.463 185.329 127.309 185.062 127.037 184.871C126.768 184.68 126.418 184.585 125.986 184.585C125.683 184.585 125.423 184.631 125.206 184.722C124.989 184.814 124.823 184.938 124.708 185.095C124.593 185.252 124.534 185.431 124.531 185.632C124.531 185.799 124.569 185.945 124.645 186.067C124.723 186.19 124.829 186.295 124.963 186.381C125.096 186.465 125.244 186.535 125.406 186.593C125.568 186.65 125.731 186.699 125.896 186.738L126.649 186.926C126.952 186.997 127.244 187.092 127.524 187.213C127.806 187.333 128.058 187.485 128.281 187.668C128.505 187.851 128.683 188.072 128.814 188.33C128.945 188.589 129.01 188.892 129.01 189.24C129.01 189.711 128.89 190.125 128.649 190.483C128.409 190.839 128.061 191.118 127.606 191.319C127.154 191.518 126.606 191.617 125.963 191.617C125.338 191.617 124.795 191.52 124.335 191.327C123.878 191.133 123.519 190.851 123.261 190.48C123.004 190.108 122.866 189.656 122.845 189.123H124.276C124.297 189.402 124.383 189.635 124.535 189.821C124.687 190.006 124.884 190.145 125.127 190.236C125.373 190.328 125.648 190.374 125.951 190.374C126.267 190.374 126.544 190.327 126.782 190.232C127.023 190.136 127.211 190.002 127.347 189.832C127.483 189.66 127.552 189.459 127.555 189.228C127.552 189.019 127.491 188.847 127.371 188.711C127.25 188.572 127.082 188.457 126.865 188.366C126.65 188.272 126.399 188.188 126.112 188.115L125.198 187.879C124.536 187.709 124.014 187.452 123.629 187.107C123.247 186.759 123.057 186.298 123.057 185.722C123.057 185.249 123.185 184.835 123.441 184.479C123.7 184.123 124.051 183.848 124.496 183.652C124.94 183.453 125.444 183.353 126.006 183.353C126.576 183.353 127.075 183.453 127.504 183.652C127.935 183.848 128.274 184.121 128.52 184.471C128.766 184.819 128.892 185.219 128.9 185.671H127.5ZM132.527 191.613C131.926 191.613 131.409 191.481 130.978 191.217C130.549 190.953 130.218 190.588 129.986 190.123C129.756 189.655 129.64 189.116 129.64 188.507C129.64 187.895 129.758 187.355 129.993 186.887C130.229 186.416 130.561 186.05 130.99 185.789C131.421 185.525 131.931 185.393 132.519 185.393C133.008 185.393 133.441 185.483 133.817 185.663C134.196 185.841 134.498 186.094 134.723 186.42C134.948 186.745 135.076 187.124 135.108 187.558H133.751C133.696 187.268 133.565 187.026 133.358 186.832C133.154 186.636 132.881 186.538 132.539 186.538C132.249 186.538 131.994 186.616 131.774 186.773C131.554 186.928 131.383 187.15 131.26 187.44C131.14 187.73 131.08 188.078 131.08 188.483C131.08 188.894 131.14 189.247 131.26 189.542C131.38 189.835 131.549 190.061 131.766 190.221C131.986 190.378 132.243 190.456 132.539 190.456C132.748 190.456 132.935 190.417 133.1 190.338C133.267 190.257 133.407 190.141 133.519 189.989C133.632 189.838 133.709 189.653 133.751 189.436H135.108C135.074 189.863 134.948 190.24 134.731 190.57C134.514 190.897 134.219 191.153 133.845 191.338C133.471 191.521 133.032 191.613 132.527 191.613ZM138.556 191.613C137.968 191.613 137.458 191.484 137.026 191.225C136.595 190.966 136.26 190.604 136.022 190.138C135.787 189.673 135.669 189.129 135.669 188.507C135.669 187.885 135.787 187.339 136.022 186.871C136.26 186.403 136.595 186.04 137.026 185.781C137.458 185.522 137.968 185.393 138.556 185.393C139.144 185.393 139.654 185.522 140.085 185.781C140.517 186.04 140.85 186.403 141.086 186.871C141.323 187.339 141.442 187.885 141.442 188.507C141.442 189.129 141.323 189.673 141.086 190.138C140.85 190.604 140.517 190.966 140.085 191.225C139.654 191.484 139.144 191.613 138.556 191.613ZM138.564 190.476C138.883 190.476 139.149 190.388 139.364 190.213C139.578 190.035 139.738 189.797 139.842 189.499C139.95 189.201 140.003 188.869 140.003 188.503C140.003 188.134 139.95 187.801 139.842 187.503C139.738 187.202 139.578 186.963 139.364 186.785C139.149 186.607 138.883 186.518 138.564 186.518C138.237 186.518 137.965 186.607 137.748 186.785C137.534 186.963 137.373 187.202 137.266 187.503C137.161 187.801 137.109 188.134 137.109 188.503C137.109 188.869 137.161 189.201 137.266 189.499C137.373 189.797 137.534 190.035 137.748 190.213C137.965 190.388 138.237 190.476 138.564 190.476ZM142.302 191.495V185.471H143.679V186.475H143.742C143.851 186.128 144.04 185.86 144.306 185.671C144.576 185.48 144.883 185.385 145.228 185.385C145.307 185.385 145.394 185.389 145.491 185.397C145.59 185.402 145.673 185.411 145.738 185.424V186.73C145.678 186.709 145.582 186.691 145.452 186.675C145.323 186.657 145.199 186.648 145.079 186.648C144.82 186.648 144.587 186.704 144.381 186.817C144.177 186.926 144.016 187.079 143.899 187.275C143.781 187.471 143.722 187.698 143.722 187.954V191.495H142.302ZM148.755 191.613C148.151 191.613 147.629 191.487 147.19 191.236C146.753 190.983 146.417 190.625 146.182 190.162C145.947 189.696 145.829 189.149 145.829 188.519C145.829 187.899 145.947 187.355 146.182 186.887C146.42 186.416 146.752 186.05 147.178 185.789C147.604 185.525 148.105 185.393 148.68 185.393C149.052 185.393 149.402 185.453 149.731 185.573C150.063 185.691 150.356 185.874 150.61 186.122C150.866 186.371 151.067 186.687 151.214 187.071C151.36 187.453 151.433 187.908 151.433 188.436V188.872H146.496V187.915H150.073C150.07 187.643 150.011 187.401 149.896 187.189C149.781 186.975 149.62 186.806 149.414 186.683C149.21 186.56 148.972 186.499 148.7 186.499C148.41 186.499 148.155 186.569 147.935 186.711C147.716 186.849 147.544 187.032 147.421 187.26C147.301 187.485 147.24 187.732 147.237 188.001V188.836C147.237 189.187 147.301 189.487 147.429 189.738C147.557 189.987 147.736 190.178 147.967 190.311C148.197 190.442 148.466 190.507 148.774 190.507C148.981 190.507 149.168 190.478 149.335 190.421C149.503 190.361 149.648 190.273 149.771 190.158C149.893 190.043 149.986 189.9 150.049 189.73L151.375 189.88C151.291 190.23 151.132 190.536 150.896 190.797C150.663 191.056 150.365 191.257 150.002 191.401C149.639 191.542 149.223 191.613 148.755 191.613ZM154.684 191.495V185.471H156.104V191.495H154.684ZM155.398 184.616C155.173 184.616 154.979 184.542 154.817 184.393C154.655 184.241 154.574 184.059 154.574 183.848C154.574 183.633 154.655 183.452 154.817 183.302C154.979 183.151 155.173 183.075 155.398 183.075C155.625 183.075 155.819 183.151 155.978 183.302C156.14 183.452 156.221 183.633 156.221 183.848C156.221 184.059 156.14 184.241 155.978 184.393C155.819 184.542 155.625 184.616 155.398 184.616ZM161.979 187.064L160.685 187.205C160.649 187.074 160.585 186.951 160.493 186.836C160.404 186.721 160.284 186.628 160.132 186.558C159.981 186.487 159.795 186.452 159.575 186.452C159.28 186.452 159.032 186.516 158.83 186.644C158.631 186.772 158.533 186.938 158.536 187.142C158.533 187.317 158.598 187.46 158.728 187.57C158.862 187.679 159.081 187.77 159.387 187.84L160.415 188.06C160.985 188.183 161.408 188.377 161.685 188.644C161.965 188.911 162.106 189.26 162.109 189.691C162.106 190.07 161.995 190.405 161.776 190.695C161.559 190.983 161.257 191.208 160.87 191.37C160.483 191.532 160.038 191.613 159.536 191.613C158.799 191.613 158.205 191.459 157.756 191.15C157.306 190.839 157.038 190.406 156.952 189.852L158.336 189.719C158.399 189.991 158.532 190.196 158.736 190.334C158.94 190.473 159.205 190.542 159.532 190.542C159.87 190.542 160.14 190.473 160.344 190.334C160.551 190.196 160.654 190.025 160.654 189.821C160.654 189.648 160.587 189.506 160.454 189.393C160.323 189.281 160.119 189.194 159.842 189.134L158.815 188.919C158.237 188.798 157.809 188.596 157.532 188.311C157.255 188.023 157.118 187.66 157.12 187.22C157.118 186.849 157.218 186.528 157.422 186.256C157.629 185.981 157.915 185.769 158.281 185.62C158.65 185.469 159.075 185.393 159.556 185.393C160.262 185.393 160.817 185.543 161.223 185.844C161.63 186.145 161.883 186.551 161.979 187.064ZM167.062 191.617C166.681 191.617 166.337 191.549 166.031 191.413C165.728 191.274 165.487 191.07 165.309 190.801C165.134 190.532 165.046 190.2 165.046 189.805C165.046 189.465 165.109 189.184 165.235 188.962C165.36 188.74 165.531 188.562 165.748 188.428C165.965 188.295 166.21 188.194 166.482 188.126C166.756 188.056 167.04 188.005 167.333 187.973C167.686 187.937 167.972 187.904 168.192 187.875C168.411 187.844 168.571 187.797 168.67 187.734C168.772 187.669 168.823 187.568 168.823 187.432V187.409C168.823 187.113 168.736 186.884 168.56 186.722C168.385 186.56 168.133 186.479 167.804 186.479C167.456 186.479 167.18 186.555 166.976 186.707C166.775 186.858 166.639 187.037 166.568 187.244L165.243 187.056C165.347 186.69 165.52 186.384 165.76 186.138C166.001 185.89 166.295 185.704 166.643 185.581C166.99 185.456 167.375 185.393 167.796 185.393C168.086 185.393 168.375 185.427 168.662 185.495C168.95 185.563 169.213 185.675 169.451 185.832C169.689 185.986 169.88 186.197 170.023 186.464C170.17 186.73 170.243 187.064 170.243 187.464V191.495H168.878V190.668H168.831C168.745 190.835 168.623 190.992 168.466 191.138C168.312 191.282 168.117 191.399 167.882 191.487C167.649 191.574 167.376 191.617 167.062 191.617ZM167.431 190.574C167.716 190.574 167.963 190.517 168.172 190.405C168.381 190.29 168.542 190.138 168.655 189.95C168.77 189.762 168.827 189.557 168.827 189.334V188.624C168.783 188.661 168.707 188.695 168.6 188.726C168.495 188.758 168.377 188.785 168.247 188.809C168.116 188.832 167.987 188.853 167.858 188.872C167.73 188.89 167.619 188.906 167.525 188.919C167.313 188.947 167.124 188.994 166.956 189.06C166.789 189.125 166.657 189.217 166.56 189.334C166.464 189.449 166.415 189.598 166.415 189.781C166.415 190.043 166.511 190.24 166.701 190.374C166.892 190.507 167.135 190.574 167.431 190.574ZM176.491 185.471L174.345 191.495H172.776L170.631 185.471H172.145L173.529 189.946H173.592L174.981 185.471H176.491ZM179.59 191.613C178.986 191.613 178.464 191.487 178.025 191.236C177.588 190.983 177.252 190.625 177.017 190.162C176.782 189.696 176.664 189.149 176.664 188.519C176.664 187.899 176.782 187.355 177.017 186.887C177.255 186.416 177.587 186.05 178.013 185.789C178.439 185.525 178.94 185.393 179.515 185.393C179.887 185.393 180.237 185.453 180.566 185.573C180.898 185.691 181.191 185.874 181.445 186.122C181.701 186.371 181.902 186.687 182.049 187.071C182.195 187.453 182.268 187.908 182.268 188.436V188.872H177.331V187.915H180.908C180.905 187.643 180.846 187.401 180.731 187.189C180.616 186.975 180.455 186.806 180.249 186.683C180.045 186.56 179.807 186.499 179.535 186.499C179.245 186.499 178.99 186.569 178.77 186.711C178.551 186.849 178.379 187.032 178.256 187.26C178.136 187.485 178.075 187.732 178.072 188.001V188.836C178.072 189.187 178.136 189.487 178.264 189.738C178.392 189.987 178.571 190.178 178.802 190.311C179.032 190.442 179.301 190.507 179.609 190.507C179.816 190.507 180.003 190.478 180.17 190.421C180.338 190.361 180.483 190.273 180.606 190.158C180.728 190.043 180.821 189.9 180.884 189.73L182.21 189.88C182.126 190.23 181.966 190.536 181.731 190.797C181.498 191.056 181.2 191.257 180.837 191.401C180.474 191.542 180.058 191.613 179.59 191.613ZM183.124 191.495V185.471H184.501V186.475H184.564C184.674 186.128 184.862 185.86 185.129 185.671C185.398 185.48 185.705 185.385 186.05 185.385C186.129 185.385 186.216 185.389 186.313 185.397C186.412 185.402 186.495 185.411 186.56 185.424V186.73C186.5 186.709 186.404 186.691 186.274 186.675C186.146 186.657 186.021 186.648 185.901 186.648C185.642 186.648 185.41 186.704 185.203 186.817C184.999 186.926 184.838 187.079 184.721 187.275C184.603 187.471 184.544 187.698 184.544 187.954V191.495H183.124ZM188.784 191.617C188.402 191.617 188.058 191.549 187.752 191.413C187.449 191.274 187.208 191.07 187.031 190.801C186.855 190.532 186.768 190.2 186.768 189.805C186.768 189.465 186.831 189.184 186.956 188.962C187.082 188.74 187.253 188.562 187.47 188.428C187.687 188.295 187.931 188.194 188.203 188.126C188.478 188.056 188.762 188.005 189.054 187.973C189.407 187.937 189.694 187.904 189.913 187.875C190.133 187.844 190.292 187.797 190.392 187.734C190.494 187.669 190.545 187.568 190.545 187.432V187.409C190.545 187.113 190.457 186.884 190.282 186.722C190.107 186.56 189.854 186.479 189.525 186.479C189.177 186.479 188.901 186.555 188.697 186.707C188.496 186.858 188.36 187.037 188.29 187.244L186.964 187.056C187.069 186.69 187.241 186.384 187.482 186.138C187.722 185.89 188.016 185.704 188.364 185.581C188.712 185.456 189.096 185.393 189.517 185.393C189.807 185.393 190.096 185.427 190.384 185.495C190.671 185.563 190.934 185.675 191.172 185.832C191.41 185.986 191.601 186.197 191.745 186.464C191.891 186.73 191.964 187.064 191.964 187.464V191.495H190.6V190.668H190.553C190.466 190.835 190.345 190.992 190.188 191.138C190.034 191.282 189.839 191.399 189.603 191.487C189.371 191.574 189.097 191.617 188.784 191.617ZM189.152 190.574C189.437 190.574 189.684 190.517 189.894 190.405C190.103 190.29 190.264 190.138 190.376 189.95C190.491 189.762 190.549 189.557 190.549 189.334V188.624C190.504 188.661 190.428 188.695 190.321 188.726C190.217 188.758 190.099 188.785 189.968 188.809C189.837 188.832 189.708 188.853 189.58 188.872C189.452 188.89 189.341 188.906 189.247 188.919C189.035 188.947 188.845 188.994 188.678 189.06C188.511 189.125 188.378 189.217 188.282 189.334C188.185 189.449 188.137 189.598 188.137 189.781C188.137 190.043 188.232 190.24 188.423 190.374C188.614 190.507 188.857 190.574 189.152 190.574ZM195.667 193.88C195.157 193.88 194.719 193.811 194.353 193.672C193.987 193.536 193.693 193.353 193.47 193.123C193.248 192.893 193.094 192.638 193.008 192.358L194.286 192.048C194.344 192.166 194.427 192.282 194.537 192.397C194.647 192.515 194.795 192.612 194.98 192.688C195.169 192.766 195.405 192.805 195.69 192.805C196.093 192.805 196.426 192.707 196.69 192.511C196.954 192.318 197.086 191.999 197.086 191.554V190.413H197.016C196.943 190.559 196.835 190.71 196.694 190.864C196.556 191.018 196.371 191.148 196.141 191.252C195.914 191.357 195.627 191.409 195.282 191.409C194.82 191.409 194.4 191.301 194.023 191.084C193.65 190.864 193.351 190.537 193.129 190.103C192.91 189.666 192.8 189.12 192.8 188.464C192.8 187.802 192.91 187.244 193.129 186.789C193.351 186.331 193.651 185.985 194.027 185.75C194.404 185.512 194.823 185.393 195.286 185.393C195.639 185.393 195.929 185.453 196.157 185.573C196.387 185.691 196.57 185.833 196.706 186.001C196.842 186.165 196.945 186.321 197.016 186.467H197.094V185.471H198.494V191.593C198.494 192.108 198.371 192.535 198.126 192.872C197.88 193.209 197.544 193.462 197.118 193.629C196.692 193.796 196.208 193.88 195.667 193.88ZM195.678 190.295C195.979 190.295 196.235 190.222 196.447 190.076C196.659 189.929 196.82 189.719 196.93 189.444C197.039 189.17 197.094 188.84 197.094 188.456C197.094 188.077 197.039 187.745 196.93 187.46C196.822 187.175 196.663 186.954 196.451 186.797C196.242 186.637 195.984 186.558 195.678 186.558C195.362 186.558 195.098 186.64 194.886 186.805C194.674 186.969 194.515 187.196 194.408 187.483C194.301 187.768 194.247 188.092 194.247 188.456C194.247 188.825 194.301 189.147 194.408 189.425C194.518 189.699 194.678 189.913 194.89 190.068C195.105 190.219 195.367 190.295 195.678 190.295ZM202.271 191.613C201.667 191.613 201.146 191.487 200.706 191.236C200.27 190.983 199.934 190.625 199.698 190.162C199.463 189.696 199.345 189.149 199.345 188.519C199.345 187.899 199.463 187.355 199.698 186.887C199.936 186.416 200.268 186.05 200.695 185.789C201.121 185.525 201.621 185.393 202.197 185.393C202.568 185.393 202.918 185.453 203.248 185.573C203.58 185.691 203.873 185.874 204.126 186.122C204.382 186.371 204.584 186.687 204.73 187.071C204.877 187.453 204.95 187.908 204.95 188.436V188.872H200.012V187.915H203.589C203.586 187.643 203.527 187.401 203.412 187.189C203.297 186.975 203.137 186.806 202.93 186.683C202.726 186.56 202.488 186.499 202.216 186.499C201.926 186.499 201.671 186.569 201.451 186.711C201.232 186.849 201.061 187.032 200.938 187.26C200.817 187.485 200.756 187.732 200.753 188.001V188.836C200.753 189.187 200.817 189.487 200.946 189.738C201.074 189.987 201.253 190.178 201.483 190.311C201.713 190.442 201.982 190.507 202.291 190.507C202.497 190.507 202.684 190.478 202.852 190.421C203.019 190.361 203.164 190.273 203.287 190.158C203.41 190.043 203.503 189.9 203.565 189.73L204.891 189.88C204.807 190.23 204.648 190.536 204.413 190.797C204.18 191.056 203.882 191.257 203.518 191.401C203.155 191.542 202.739 191.613 202.271 191.613Z" fill="#242424"/>
<path d="M89.3893 207.256V200.228H90.4497V206.344H93.6343V207.256H89.3893ZM95.9504 207.373C95.6164 207.373 95.3144 207.311 95.0445 207.188C94.7745 207.062 94.5606 206.88 94.4027 206.642C94.2472 206.404 94.1694 206.112 94.1694 205.767C94.1694 205.47 94.2266 205.225 94.341 205.033C94.4553 204.84 94.6098 204.688 94.8042 204.576C94.9987 204.464 95.216 204.379 95.4563 204.322C95.6965 204.265 95.9413 204.222 96.1906 204.192C96.5063 204.155 96.7626 204.126 96.9593 204.103C97.1561 204.077 97.2991 204.037 97.3883 203.983C97.4775 203.928 97.5221 203.838 97.5221 203.715V203.691C97.5221 203.391 97.4375 203.159 97.2682 202.994C97.1012 202.83 96.8518 202.747 96.5201 202.747C96.1746 202.747 95.9024 202.824 95.7033 202.977C95.5066 203.128 95.3705 203.296 95.295 203.482L94.3307 203.262C94.4451 202.942 94.6121 202.683 94.8317 202.486C95.0536 202.287 95.3087 202.143 95.5969 202.054C95.8852 201.962 96.1883 201.917 96.5063 201.917C96.7168 201.917 96.9399 201.942 97.1755 201.992C97.4134 202.04 97.6354 202.129 97.8413 202.26C98.0494 202.39 98.2199 202.577 98.3526 202.819C98.4853 203.059 98.5516 203.372 98.5516 203.756V207.256H97.5496V206.536H97.5084C97.442 206.668 97.3425 206.799 97.2098 206.927C97.0771 207.055 96.9067 207.161 96.6985 207.246C96.4903 207.331 96.241 207.373 95.9504 207.373ZM96.1735 206.549C96.4572 206.549 96.6997 206.493 96.901 206.381C97.1046 206.269 97.259 206.123 97.3643 205.942C97.4718 205.759 97.5255 205.563 97.5255 205.355V204.676C97.4889 204.712 97.418 204.747 97.3128 204.779C97.2098 204.808 97.092 204.835 96.9593 204.858C96.8266 204.878 96.6974 204.898 96.5715 204.916C96.4457 204.932 96.3405 204.946 96.2558 204.957C96.0568 204.982 95.8749 205.025 95.7102 205.084C95.5478 205.144 95.4174 205.229 95.319 205.341C95.2229 205.451 95.1749 205.598 95.1749 205.781C95.1749 206.035 95.2687 206.227 95.4563 206.357C95.6438 206.485 95.8829 206.549 96.1735 206.549ZM103.523 203.272L102.593 203.437C102.554 203.318 102.492 203.205 102.408 203.097C102.325 202.99 102.213 202.902 102.071 202.833C101.93 202.764 101.752 202.73 101.539 202.73C101.249 202.73 101.006 202.795 100.812 202.926C100.618 203.054 100.52 203.22 100.52 203.423C100.52 203.599 100.585 203.741 100.716 203.849C100.846 203.956 101.057 204.044 101.347 204.113L102.185 204.305C102.67 204.417 103.031 204.59 103.269 204.823C103.507 205.057 103.626 205.36 103.626 205.733C103.626 206.048 103.534 206.33 103.351 206.577C103.171 206.822 102.918 207.014 102.593 207.153C102.27 207.293 101.896 207.363 101.471 207.363C100.881 207.363 100.399 207.237 100.026 206.985C99.6532 206.731 99.4244 206.371 99.3398 205.904L100.332 205.753C100.393 206.012 100.52 206.207 100.712 206.34C100.905 206.471 101.155 206.536 101.464 206.536C101.8 206.536 102.069 206.466 102.27 206.326C102.472 206.185 102.572 206.012 102.572 205.808C102.572 205.643 102.511 205.505 102.387 205.393C102.266 205.281 102.079 205.196 101.828 205.139L100.936 204.943C100.444 204.831 100.08 204.653 99.8442 204.408C99.6109 204.163 99.4942 203.853 99.4942 203.478C99.4942 203.167 99.5812 202.895 99.755 202.661C99.9289 202.428 100.169 202.246 100.476 202.116C100.782 201.983 101.133 201.917 101.529 201.917C102.099 201.917 102.547 202.04 102.874 202.287C103.202 202.532 103.418 202.86 103.523 203.272ZM106.869 201.985V202.809H103.99V201.985H106.869ZM104.762 200.722H105.789V205.709C105.789 205.908 105.818 206.058 105.878 206.158C105.937 206.257 106.014 206.324 106.108 206.361C106.204 206.395 106.308 206.412 106.42 206.412C106.502 206.412 106.574 206.406 106.636 206.395C106.698 206.384 106.746 206.374 106.78 206.368L106.966 207.215C106.906 207.238 106.821 207.261 106.712 207.284C106.602 207.309 106.465 207.323 106.3 207.325C106.03 207.33 105.778 207.282 105.545 207.181C105.312 207.08 105.123 206.925 104.979 206.714C104.835 206.504 104.762 206.239 104.762 205.921V200.722ZM115.791 202.514H114.721C114.679 202.285 114.603 202.084 114.491 201.91C114.379 201.736 114.241 201.588 114.079 201.467C113.916 201.346 113.735 201.254 113.533 201.193C113.334 201.131 113.123 201.1 112.898 201.1C112.493 201.1 112.131 201.202 111.811 201.405C111.493 201.609 111.241 201.908 111.056 202.301C110.873 202.695 110.781 203.175 110.781 203.742C110.781 204.314 110.873 204.797 111.056 205.19C111.241 205.584 111.494 205.881 111.814 206.083C112.134 206.284 112.495 206.385 112.895 206.385C113.117 206.385 113.327 206.355 113.526 206.295C113.728 206.234 113.91 206.143 114.072 206.024C114.234 205.905 114.372 205.76 114.484 205.589C114.598 205.415 114.677 205.216 114.721 204.991L115.791 204.995C115.734 205.34 115.623 205.658 115.458 205.949C115.296 206.237 115.087 206.487 114.83 206.697C114.577 206.905 114.286 207.066 113.959 207.181C113.632 207.295 113.275 207.352 112.888 207.352C112.28 207.352 111.737 207.208 111.262 206.92C110.786 206.63 110.41 206.214 110.136 205.674C109.864 205.134 109.728 204.49 109.728 203.742C109.728 202.992 109.865 202.348 110.139 201.81C110.414 201.27 110.789 200.856 111.265 200.568C111.741 200.277 112.282 200.132 112.888 200.132C113.261 200.132 113.609 200.186 113.931 200.294C114.256 200.399 114.548 200.554 114.806 200.76C115.065 200.964 115.279 201.213 115.448 201.508C115.617 201.801 115.732 202.136 115.791 202.514ZM117.659 204.127V207.256H116.633V200.228H117.645V202.843H117.71C117.834 202.56 118.023 202.334 118.276 202.167C118.53 202 118.862 201.917 119.272 201.917C119.633 201.917 119.949 201.991 120.219 202.14C120.491 202.288 120.702 202.51 120.85 202.805C121.001 203.098 121.077 203.464 121.077 203.904V207.256H120.051V204.027C120.051 203.641 119.951 203.341 119.752 203.128C119.553 202.913 119.276 202.805 118.922 202.805C118.679 202.805 118.462 202.857 118.27 202.96C118.08 203.063 117.93 203.214 117.82 203.413C117.713 203.61 117.659 203.848 117.659 204.127ZM124.373 207.363C123.853 207.363 123.406 207.252 123.031 207.03C122.658 206.806 122.37 206.491 122.166 206.086C121.965 205.679 121.864 205.202 121.864 204.655C121.864 204.115 121.965 203.639 122.166 203.228C122.37 202.816 122.653 202.494 123.017 202.263C123.383 202.032 123.811 201.917 124.3 201.917C124.598 201.917 124.886 201.966 125.165 202.064C125.444 202.163 125.695 202.317 125.917 202.528C126.139 202.738 126.314 203.011 126.442 203.348C126.57 203.682 126.634 204.088 126.634 204.566V204.93H122.444V204.161H125.629C125.629 203.891 125.574 203.652 125.464 203.444C125.354 203.233 125.2 203.067 125.001 202.946C124.804 202.825 124.573 202.764 124.307 202.764C124.019 202.764 123.767 202.835 123.552 202.977C123.34 203.117 123.175 203.3 123.058 203.526C122.944 203.75 122.887 203.994 122.887 204.257V204.858C122.887 205.21 122.948 205.51 123.072 205.757C123.198 206.004 123.373 206.193 123.597 206.323C123.821 206.451 124.083 206.515 124.383 206.515C124.577 206.515 124.755 206.488 124.915 206.433C125.075 206.376 125.213 206.291 125.33 206.179C125.447 206.067 125.536 205.928 125.598 205.764L126.569 205.939C126.491 206.225 126.351 206.475 126.15 206.69C125.951 206.903 125.701 207.069 125.399 207.188C125.099 207.304 124.757 207.363 124.373 207.363ZM129.648 207.363C129.137 207.363 128.698 207.247 128.33 207.016C127.964 206.783 127.682 206.461 127.486 206.052C127.289 205.642 127.191 205.173 127.191 204.645C127.191 204.11 127.291 203.637 127.493 203.228C127.694 202.816 127.978 202.494 128.344 202.263C128.71 202.032 129.141 201.917 129.637 201.917C130.038 201.917 130.395 201.991 130.708 202.14C131.021 202.286 131.274 202.492 131.466 202.757C131.661 203.023 131.776 203.333 131.813 203.687H130.814C130.76 203.44 130.634 203.228 130.437 203.049C130.242 202.871 129.982 202.781 129.655 202.781C129.369 202.781 129.118 202.857 128.903 203.008C128.69 203.157 128.524 203.369 128.405 203.646C128.286 203.921 128.227 204.246 128.227 204.621C128.227 205.005 128.285 205.337 128.402 205.616C128.519 205.895 128.683 206.111 128.896 206.265C129.111 206.418 129.364 206.495 129.655 206.495C129.849 206.495 130.025 206.459 130.183 206.388C130.343 206.315 130.477 206.211 130.584 206.076C130.694 205.941 130.771 205.778 130.814 205.589H131.813C131.776 205.929 131.665 206.234 131.48 206.501C131.295 206.769 131.047 206.98 130.735 207.133C130.427 207.286 130.064 207.363 129.648 207.363ZM133.509 205.468L133.502 204.216H133.68L135.781 201.985H137.009L134.614 204.525H134.453L133.509 205.468ZM132.565 207.256V200.228H133.591V207.256H132.565ZM135.894 207.256L134.006 204.751L134.713 204.034L137.153 207.256H135.894ZM142.032 207.363C141.538 207.363 141.106 207.249 140.738 207.023C140.37 206.797 140.084 206.48 139.88 206.072C139.677 205.665 139.575 205.189 139.575 204.645C139.575 204.098 139.677 203.62 139.88 203.21C140.084 202.801 140.37 202.483 140.738 202.256C141.106 202.03 141.538 201.917 142.032 201.917C142.526 201.917 142.957 202.03 143.326 202.256C143.694 202.483 143.98 202.801 144.183 203.21C144.387 203.62 144.489 204.098 144.489 204.645C144.489 205.189 144.387 205.665 144.183 206.072C143.98 206.48 143.694 206.797 143.326 207.023C142.957 207.249 142.526 207.363 142.032 207.363ZM142.035 206.501C142.356 206.501 142.621 206.417 142.831 206.247C143.042 206.078 143.197 205.853 143.298 205.571C143.401 205.29 143.453 204.98 143.453 204.641C143.453 204.305 143.401 203.996 143.298 203.715C143.197 203.431 143.042 203.204 142.831 203.032C142.621 202.86 142.356 202.775 142.035 202.775C141.713 202.775 141.445 202.86 141.232 203.032C141.022 203.204 140.865 203.431 140.762 203.715C140.661 203.996 140.611 204.305 140.611 204.641C140.611 204.98 140.661 205.29 140.762 205.571C140.865 205.853 141.022 206.078 141.232 206.247C141.445 206.417 141.713 206.501 142.035 206.501ZM146.315 204.127V207.256H145.289V201.985H146.274V202.843H146.339C146.46 202.564 146.65 202.34 146.909 202.171C147.17 202.001 147.498 201.917 147.894 201.917C148.253 201.917 148.567 201.992 148.837 202.143C149.107 202.292 149.317 202.514 149.465 202.809C149.614 203.104 149.688 203.469 149.688 203.904V207.256H148.662V204.027C148.662 203.645 148.563 203.347 148.364 203.131C148.165 202.914 147.891 202.805 147.544 202.805C147.306 202.805 147.094 202.857 146.909 202.96C146.726 203.063 146.581 203.214 146.473 203.413C146.368 203.61 146.315 203.848 146.315 204.127ZM152.918 207.256V206.488L155.296 204.024C155.55 203.756 155.759 203.522 155.924 203.32C156.091 203.117 156.216 202.923 156.298 202.74C156.381 202.557 156.422 202.363 156.422 202.157C156.422 201.924 156.367 201.722 156.257 201.553C156.147 201.381 155.997 201.25 155.807 201.158C155.618 201.064 155.404 201.018 155.166 201.018C154.914 201.018 154.694 201.069 154.507 201.172C154.319 201.275 154.175 201.42 154.074 201.608C153.974 201.795 153.923 202.015 153.923 202.267H152.911C152.911 201.839 153.01 201.465 153.206 201.145C153.403 200.824 153.673 200.576 154.016 200.4C154.359 200.221 154.749 200.132 155.186 200.132C155.628 200.132 156.017 200.22 156.353 200.396C156.692 200.57 156.956 200.808 157.146 201.11C157.336 201.41 157.431 201.749 157.431 202.126C157.431 202.387 157.381 202.642 157.283 202.891C157.187 203.141 157.019 203.419 156.779 203.725C156.538 204.029 156.204 204.399 155.777 204.834L154.38 206.295V206.347H157.544V207.256H152.918ZM161.166 200.228V207.256H160.102V201.292H160.061L158.379 202.39V201.374L160.133 200.228H161.166ZM165.624 207.256H164.498L167.027 200.228H168.253L170.782 207.256H169.656L167.669 201.505H167.614L165.624 207.256ZM165.813 204.504H169.464V205.396H165.813V204.504ZM171.369 209.233V201.985H172.371V202.84H172.457C172.516 202.73 172.602 202.603 172.714 202.459C172.826 202.315 172.982 202.189 173.181 202.081C173.38 201.972 173.643 201.917 173.97 201.917C174.396 201.917 174.776 202.024 175.11 202.239C175.444 202.454 175.706 202.764 175.895 203.169C176.088 203.574 176.184 204.061 176.184 204.631C176.184 205.201 176.089 205.689 175.899 206.096C175.709 206.501 175.448 206.814 175.116 207.033C174.785 207.251 174.406 207.359 173.981 207.359C173.66 207.359 173.398 207.306 173.195 207.198C172.993 207.09 172.836 206.965 172.721 206.821C172.607 206.676 172.519 206.548 172.457 206.436H172.395V209.233H171.369ZM172.375 204.621C172.375 204.991 172.428 205.316 172.536 205.595C172.643 205.875 172.799 206.093 173.003 206.251C173.206 206.406 173.456 206.484 173.751 206.484C174.057 206.484 174.313 206.403 174.519 206.241C174.725 206.076 174.881 205.853 174.986 205.571C175.094 205.29 175.147 204.973 175.147 204.621C175.147 204.273 175.095 203.961 174.99 203.684C174.887 203.407 174.731 203.189 174.523 203.029C174.317 202.868 174.06 202.788 173.751 202.788C173.453 202.788 173.202 202.865 172.996 203.018C172.792 203.172 172.638 203.385 172.532 203.66C172.427 203.934 172.375 204.255 172.375 204.621ZM176.988 207.256V201.985H177.98V202.823H178.035C178.131 202.539 178.3 202.316 178.543 202.153C178.788 201.989 179.064 201.906 179.373 201.906C179.437 201.906 179.513 201.909 179.6 201.913C179.689 201.918 179.759 201.924 179.809 201.93V202.912C179.768 202.9 179.695 202.888 179.589 202.874C179.484 202.858 179.379 202.85 179.274 202.85C179.031 202.85 178.815 202.902 178.625 203.005C178.438 203.105 178.289 203.246 178.179 203.427C178.069 203.605 178.014 203.809 178.014 204.037V207.256H176.988Z" fill="#7A7A7A"/>
</g>
<defs>
<filter id="filter0_d_1011_662" x="0.710732" y="0.773232" width="267.813" height="246.99" filterUnits="userSpaceOnUse" color-interpolation-filters="sRGB">
<feFlood flood-opacity="0" result="BackgroundImageFix"/>
<feColorMatrix in="SourceAlpha" type="matrix" values="0 0 0 0 0 0 0 0 0 0 0 0 0 0 0 0 0 0 127 0" result="hardAlpha"/>
<feOffset/>
<feGaussianBlur stdDeviation="9.88292"/>
<feComposite in2="hardAlpha" operator="out"/>
<feColorMatrix type="matrix" values="0 0 0 0 0 0 0 0 0 0 0 0 0 0 0 0 0 0 0.08 0"/>
<feBlend mode="normal" in2="BackgroundImageFix" result="effect1_dropShadow_1011_662"/>
<feBlend mode="normal" in="SourceGraphic" in2="effect1_dropShadow_1011_662" result="shape"/>
</filter>
<filter id="filter1_f_1011_662" x="152.417" y="50.9152" width="120.8" height="116.983" filterUnits="userSpaceOnUse" color-interpolation-filters="sRGB">
<feFlood flood-opacity="0" result="BackgroundImageFix"/>
<feBlend mode="normal" in="SourceGraphic" in2="BackgroundImageFix" result="shape"/>
<feGaussianBlur stdDeviation="24.1589" result="effect1_foregroundBlur_1011_662"/>
</filter>
</defs>
</svg>
