<svg width="20" height="20" viewBox="0 0 20 20" fill="none" xmlns="http://www.w3.org/2000/svg">
<path d="M13.843 11.4584H4.375C4.19765 11.4584 4.04915 11.3986 3.9295 11.2789C3.80983 11.1593 3.75 11.0108 3.75 10.8334C3.75 10.6561 3.80983 10.5076 3.9295 10.3879C4.04915 10.2683 4.19765 10.2084 4.375 10.2084H13.843L11.0993 7.46481C10.9754 7.34088 10.9142 7.19586 10.9159 7.02973C10.9175 6.86361 10.9786 6.7159 11.0993 6.58663C11.2286 6.45736 11.3771 6.39059 11.5448 6.38631C11.7126 6.38204 11.8611 6.44454 11.9903 6.57381L15.7227 10.3062C15.8007 10.3842 15.8557 10.4664 15.8878 10.553C15.9198 10.6395 15.9359 10.733 15.9359 10.8334C15.9359 10.9338 15.9198 11.0273 15.8878 11.1139C15.8557 11.2004 15.8007 11.2827 15.7227 11.3606L11.9903 15.093C11.8664 15.217 11.7193 15.2781 11.5489 15.2765C11.3785 15.2749 11.2286 15.2095 11.0993 15.0802C10.9786 14.9509 10.9161 14.8046 10.9118 14.6411C10.9076 14.4776 10.9701 14.3313 11.0993 14.202L13.843 11.4584Z" fill="black"/>
</svg>
