<svg width="10" height="6" viewBox="0 0 10 6" fill="none" xmlns="http://www.w3.org/2000/svg">
<path d="M4.89881 5.75118C4.78834 5.75118 4.68478 5.73047 4.58813 5.68905C4.49147 5.64763 4.40172 5.58549 4.31887 5.50264L0.217923 1.40169C0.0660384 1.2498 -0.00645511 1.05649 0.000450447 0.821759C0.0073541 0.587022 0.0867484 0.393714 0.238636 0.24183C0.418141 0.0623237 0.614901 -0.0170735 0.828924 0.00364218C1.04295 0.0243522 1.23281 0.110652 1.3985 0.262536L4.89881 3.76284L8.39911 0.262536C8.551 0.110648 8.74776 0.0278045 8.9894 0.0139934C9.23104 0.000186061 9.4278 0.0830337 9.57969 0.262536C9.7592 0.414424 9.83859 0.604283 9.81788 0.832114C9.79716 1.05994 9.71086 1.25671 9.55898 1.4224L5.47874 5.50264C5.39589 5.58548 5.30614 5.64763 5.20949 5.68905C5.11283 5.73047 5.00927 5.75118 4.89881 5.75118Z" fill="#252938"/>
</svg>
