<svg width="20" height="20" viewBox="0 0 20 20" fill="none" xmlns="http://www.w3.org/2000/svg">
<mask id="mask0_78_837" style="mask-type:alpha" maskUnits="userSpaceOnUse" x="0" y="0" width="20" height="20">
<rect width="20" height="20" fill="#D9D9D9"/>
</mask>
<g mask="url(#mask0_78_837)">
<path d="M12.7292 10.3958L9.60417 7.25L11.9167 4.95833L11.3125 4.35417L7.33333 8.33333C7.16667 8.5 6.97222 8.58333 6.75 8.58333C6.52778 8.58333 6.33333 8.5 6.16667 8.33333C6 8.16667 5.91667 7.96875 5.91667 7.73958C5.91667 7.51042 6 7.3125 6.16667 7.14583L10.125 3.1875C10.4583 2.85417 10.8507 2.6875 11.3021 2.6875C11.7535 2.6875 12.1458 2.85417 12.4792 3.1875L13.0833 3.79167L14.125 2.75C14.2917 2.58333 14.4896 2.5 14.7188 2.5C14.9479 2.5 15.1458 2.58333 15.3125 2.75L17.25 4.6875C17.4167 4.85417 17.5 5.05208 17.5 5.28125C17.5 5.51042 17.4167 5.70833 17.25 5.875L12.7292 10.3958ZM3.33333 17.5C3.09722 17.5 2.89931 17.4201 2.73958 17.2604C2.57986 17.1007 2.5 16.9028 2.5 16.6667V15.0625C2.5 14.8403 2.54167 14.6285 2.625 14.4271C2.70833 14.2257 2.82639 14.0486 2.97917 13.8958L8.41667 8.4375L11.5625 11.5625L6.10417 17.0208C5.95139 17.1736 5.77431 17.2917 5.57292 17.375C5.37153 17.4583 5.15972 17.5 4.9375 17.5H3.33333Z" fill="#3D82F0"/>
</g>
</svg>
