<svg width="20" height="20" viewBox="0 0 20 20" fill="none" xmlns="http://www.w3.org/2000/svg">
<mask id="mask0_78_843" style="mask-type:alpha" maskUnits="userSpaceOnUse" x="0" y="0" width="20" height="20">
<rect width="20" height="20" fill="#D9D9D9"/>
</mask>
<g mask="url(#mask0_78_843)">
<path d="M9.99967 16.2919C9.8469 16.2919 9.69759 16.2711 9.55176 16.2294C9.40593 16.1877 9.27051 16.1322 9.14551 16.0627C8.57606 15.7155 7.97884 15.4516 7.35384 15.2711C6.72884 15.0905 6.08301 15.0002 5.41634 15.0002C4.83301 15.0002 4.26009 15.0766 3.69759 15.2294C3.13509 15.3822 2.5969 15.5974 2.08301 15.8752C1.79134 16.028 1.51009 16.0211 1.23926 15.8544C0.968424 15.6877 0.833008 15.4447 0.833008 15.1252V5.08355C0.833008 4.93077 0.871202 4.78494 0.947591 4.64605C1.02398 4.50716 1.13856 4.40299 1.29134 4.33355C1.93023 4.00022 2.5969 3.75022 3.29134 3.58355C3.98579 3.41688 4.69412 3.33355 5.41634 3.33355C6.2219 3.33355 7.01009 3.43772 7.78093 3.64605C8.55176 3.85438 9.29134 4.16688 9.99967 4.58355V14.6669C10.708 14.2224 11.4511 13.8891 12.2288 13.6669C13.0066 13.4447 13.7913 13.3336 14.583 13.3336C15.083 13.3336 15.5726 13.3752 16.0518 13.4586C16.5309 13.5419 17.0136 13.6669 17.4997 13.8336V3.83355C17.708 3.90299 17.9129 3.97591 18.1143 4.0523C18.3156 4.12869 18.5136 4.22244 18.708 4.33355C18.8608 4.40299 18.9754 4.50716 19.0518 4.64605C19.1281 4.78494 19.1663 4.93077 19.1663 5.08355V15.1252C19.1663 15.4447 19.0309 15.6877 18.7601 15.8544C18.4893 16.0211 18.208 16.028 17.9163 15.8752C17.4025 15.5974 16.8643 15.3822 16.3018 15.2294C15.7393 15.0766 15.1663 15.0002 14.583 15.0002C13.9163 15.0002 13.2705 15.0905 12.6455 15.2711C12.0205 15.4516 11.4233 15.7155 10.8538 16.0627C10.7288 16.1322 10.5934 16.1877 10.4476 16.2294C10.3018 16.2711 10.1525 16.2919 9.99967 16.2919ZM12.3538 11.8752C12.215 12.0002 12.0656 12.0245 11.9059 11.9481C11.7462 11.8717 11.6663 11.7433 11.6663 11.5627V4.75022C11.6663 4.69466 11.6768 4.64258 11.6976 4.59397C11.7184 4.54536 11.7497 4.50022 11.7913 4.45855L15.1247 1.12522C15.2636 0.986328 15.4163 0.951606 15.583 1.02105C15.7497 1.09049 15.833 1.22244 15.833 1.41688V8.56272C15.833 8.63216 15.8191 8.69119 15.7913 8.7398C15.7636 8.78841 15.7288 8.83355 15.6872 8.87522L12.3538 11.8752Z" fill="#3D82F0"/>
</g>
</svg>
