<svg width="20" height="20" viewBox="0 0 20 20" fill="none" xmlns="http://www.w3.org/2000/svg">
<mask id="mask0_78_840" style="mask-type:alpha" maskUnits="userSpaceOnUse" x="0" y="0" width="20" height="20">
<rect width="20" height="20" fill="#D9D9D9"/>
</mask>
<g mask="url(#mask0_78_840)">
<path d="M13.7503 8.60482L16.042 7.27148C16.1809 7.18815 16.2503 7.0701 16.2503 6.91732C16.2503 6.76454 16.1809 6.64648 16.042 6.56315L13.7503 5.22982C13.6253 5.16037 13.4864 5.12565 13.3337 5.12565C13.1809 5.12565 13.042 5.16037 12.917 5.22982L10.6253 6.56315C10.4864 6.64648 10.417 6.76454 10.417 6.91732C10.417 7.0701 10.4864 7.18815 10.6253 7.27148L12.917 8.60482C13.042 8.67426 13.1809 8.70898 13.3337 8.70898C13.4864 8.70898 13.6253 8.67426 13.7503 8.60482ZM13.7503 11.1257L15.2087 10.2923C15.3337 10.2229 15.4344 10.1222 15.5107 9.99023C15.5871 9.85829 15.6253 9.71593 15.6253 9.56315V8.29232L13.7503 9.37565C13.6253 9.4451 13.4864 9.47982 13.3337 9.47982C13.1809 9.47982 13.042 9.4451 12.917 9.37565L11.042 8.29232V9.56315C11.042 9.71593 11.0802 9.85829 11.1566 9.99023C11.233 10.1222 11.3337 10.2229 11.4587 10.2923L12.917 11.1257C13.042 11.1951 13.1809 11.2298 13.3337 11.2298C13.4864 11.2298 13.6253 11.1951 13.7503 11.1257ZM2.91699 16.6673C2.56977 16.6673 2.27463 16.5458 2.03158 16.3027C1.78852 16.0597 1.66699 15.7645 1.66699 15.4173C1.66699 15.0701 1.78852 14.775 2.03158 14.5319C2.27463 14.2888 2.56977 14.1673 2.91699 14.1673C3.26421 14.1673 3.55935 14.2888 3.80241 14.5319C4.04546 14.775 4.16699 15.0701 4.16699 15.4173C4.16699 15.7645 4.04546 16.0597 3.80241 16.3027C3.55935 16.5458 3.26421 16.6673 2.91699 16.6673ZM6.66699 16.6673C6.44477 16.6673 6.25033 16.6013 6.08366 16.4694C5.91699 16.3375 5.81283 16.1604 5.77116 15.9382C5.61838 15.0632 5.22602 14.3201 4.59408 13.709C3.96213 13.0979 3.20866 12.7159 2.33366 12.5632C2.12533 12.5354 1.96213 12.4347 1.84408 12.2611C1.72602 12.0875 1.66699 11.8895 1.66699 11.6673C1.66699 11.4312 1.73991 11.2333 1.88574 11.0736C2.03158 10.9138 2.20866 10.8479 2.41699 10.8757C3.72255 11.0423 4.8406 11.5909 5.77116 12.5215C6.70171 13.452 7.25727 14.5701 7.43783 15.8757C7.4656 16.0979 7.4031 16.2854 7.25033 16.4382C7.09755 16.5909 6.9031 16.6673 6.66699 16.6673ZM10.0003 16.6673C9.76421 16.6673 9.5663 16.5909 9.40658 16.4382C9.24685 16.2854 9.1531 16.0909 9.12533 15.8548C8.93088 14.077 8.20519 12.5701 6.94824 11.334C5.6913 10.0979 4.17394 9.38954 2.39616 9.20898C2.17394 9.18121 1.99685 9.08398 1.86491 8.91732C1.73296 8.75065 1.66699 8.55621 1.66699 8.33398C1.66699 8.09787 1.73991 7.89648 1.88574 7.72982C2.03158 7.56315 2.20866 7.49371 2.41699 7.52148C4.6531 7.70204 6.55588 8.57357 8.12533 10.1361C9.69477 11.6986 10.5837 13.5909 10.792 15.8132C10.8198 16.0493 10.7538 16.2507 10.5941 16.4173C10.4344 16.584 10.2364 16.6673 10.0003 16.6673ZM12.5003 16.6673C12.5003 15.1534 12.2191 13.7402 11.6566 12.4277C11.0941 11.1152 10.3232 9.9694 9.34408 8.99023C8.36491 8.01107 7.2156 7.24023 5.89616 6.67773C4.57671 6.11523 3.16699 5.83398 1.66699 5.83398V5.00065C1.66699 4.54232 1.83019 4.14996 2.15658 3.82357C2.48296 3.49718 2.87533 3.33398 3.33366 3.33398H16.667C17.1253 3.33398 17.5177 3.49718 17.8441 3.82357C18.1705 4.14996 18.3337 4.54232 18.3337 5.00065V15.0007C18.3337 15.459 18.1705 15.8513 17.8441 16.1777C17.5177 16.5041 17.1253 16.6673 16.667 16.6673H12.5003Z" fill="#3D82F0"/>
</g>
</svg>
