<svg width="80" height="80" viewBox="0 0 80 80" fill="none" xmlns="http://www.w3.org/2000/svg">
<circle cx="40" cy="40" r="40" fill="#0A7EFB"/>
<path d="M23.752 52.216C25.096 50.808 26.152 49.496 26.92 48.28C27.688 47.064 28.072 46.072 28.072 45.304C28.072 44.856 27.912 44.44 27.592 44.056C27.336 43.672 26.92 43.256 26.344 42.808C25.448 42.104 24.744 41.368 24.232 40.6C23.72 39.832 23.464 38.808 23.464 37.528C23.464 35.544 24.072 33.944 25.288 32.728C26.504 31.448 28.04 30.808 29.896 30.808C31.88 30.808 33.48 31.448 34.696 32.728C35.976 33.944 36.616 35.544 36.616 37.528C36.616 40.024 35.56 42.776 33.448 45.784C31.4 48.728 28.648 51.352 25.192 53.656L23.752 52.216ZM42.376 52.216C43.72 50.808 44.776 49.496 45.544 48.28C46.312 47.064 46.696 46.072 46.696 45.304C46.696 44.856 46.536 44.44 46.216 44.056C45.96 43.672 45.544 43.256 44.968 42.808C44.072 42.104 43.368 41.368 42.856 40.6C42.344 39.832 42.088 38.808 42.088 37.528C42.088 35.544 42.696 33.944 43.912 32.728C45.128 31.448 46.664 30.808 48.52 30.808C50.504 30.808 52.104 31.448 53.32 32.728C54.6 33.944 55.24 35.544 55.24 37.528C55.24 40.024 54.184 42.776 52.072 45.784C50.024 48.728 47.272 51.352 43.816 53.656L42.376 52.216Z" fill="white"/>
</svg>
