<svg width="118" height="25" viewBox="0 0 118 25" fill="none" xmlns="http://www.w3.org/2000/svg">
<g clip-path="url(#clip0_2532_1407)">
<path d="M26.728 18.8179C26.9288 18.894 27.1539 18.7931 27.2244 18.5902C27.9261 16.5713 28.1566 14.4166 27.8958 12.2917C27.6192 10.0381 26.7983 7.88555 25.504 6.01981C24.2097 4.15407 22.4807 2.63115 20.4664 1.58242C18.452 0.53369 16.2127 -0.00935784 13.9415 0.000122016C11.6704 0.00960187 9.4357 0.571325 7.43016 1.63683C5.42462 2.70234 3.70848 4.23964 2.42979 6.11612C1.15109 7.9926 0.348228 10.1519 0.0904636 12.4078C-0.152575 14.5348 0.0958619 16.6874 0.81444 18.7005C0.886627 18.9027 1.11252 19.0018 1.31272 18.924L5.73509 17.2064C5.93529 17.1286 6.03363 16.9036 5.96512 16.7001C5.5688 15.523 5.43559 14.2715 5.57695 13.0344C5.73304 11.6683 6.21922 10.3607 6.99355 9.22439C7.76788 8.08807 8.8071 7.15714 10.0216 6.51191C11.236 5.86668 12.5893 5.52653 13.9646 5.52079C15.3399 5.51505 16.696 5.84389 17.9158 6.47896C19.1356 7.11403 20.1826 8.03625 20.9663 9.16606C21.7501 10.2959 22.2472 11.5994 22.4147 12.9641C22.5664 14.2 22.4437 15.4525 22.0572 16.6329C21.9904 16.837 22.0906 17.0612 22.2914 17.1373L26.728 18.8179Z" fill="url(#paint0_linear_2532_1407)"/>
<path d="M26.728 18.8179C26.9288 18.894 27.1539 18.7931 27.2244 18.5902C27.9261 16.5713 28.1566 14.4166 27.8958 12.2917C27.6192 10.0381 26.7983 7.88555 25.504 6.01981C24.2097 4.15407 22.4807 2.63115 20.4664 1.58242C18.452 0.53369 16.2127 -0.00935784 13.9415 0.000122016C11.6704 0.00960187 9.4357 0.571325 7.43016 1.63683C5.42462 2.70234 3.70848 4.23964 2.42979 6.11612C1.15109 7.9926 0.348228 10.1519 0.0904636 12.4078C-0.152575 14.5348 0.0958619 16.6874 0.81444 18.7005C0.886627 18.9027 1.11252 19.0018 1.31272 18.924L5.73509 17.2064C5.93529 17.1286 6.03363 16.9036 5.96512 16.7001C5.5688 15.523 5.43559 14.2715 5.57695 13.0344C5.73304 11.6683 6.21922 10.3607 6.99355 9.22439C7.76788 8.08807 8.8071 7.15714 10.0216 6.51191C11.236 5.86668 12.5893 5.52653 13.9646 5.52079C15.3399 5.51505 16.696 5.84389 17.9158 6.47896C19.1356 7.11403 20.1826 8.03625 20.9663 9.16606C21.7501 10.2959 22.2472 11.5994 22.4147 12.9641C22.5664 14.2 22.4437 15.4525 22.0572 16.6329C21.9904 16.837 22.0906 17.0612 22.2914 17.1373L26.728 18.8179Z" fill="url(#paint1_linear_2532_1407)"/>
<path fill-rule="evenodd" clip-rule="evenodd" d="M1.79653 21.0185C1.68043 20.8188 1.77112 20.565 1.98465 20.4771L13.8025 15.6113C13.8973 15.5723 14.0037 15.5723 14.0986 15.6113L25.8477 20.4488C26.0609 20.5366 26.1517 20.7898 26.0362 20.9894C25.2615 22.3287 24.2712 23.5278 23.1128 24.5392C23.0035 24.6347 22.8494 24.6584 22.7152 24.6031L14.0986 21.0554C14.0037 21.0163 13.8973 21.0163 13.8025 21.0554L5.12801 24.6269C4.99418 24.682 4.84051 24.6586 4.73122 24.5637C3.56907 23.5545 2.57498 22.3569 1.79653 21.0185Z" fill="url(#paint2_linear_2532_1407)"/>
<path d="M37.718 21.5C37.0647 21.5 36.451 21.3857 35.877 21.157C35.3077 20.9237 34.806 20.583 34.372 20.135C33.9427 19.687 33.6067 19.1387 33.364 18.49C33.1213 17.8367 33 17.09 33 16.25C33 15.1487 33.2053 14.2084 33.616 13.429C34.0267 12.645 34.589 12.0453 35.303 11.63C36.017 11.21 36.822 11 37.718 11C38.9593 11 39.9417 11.2893 40.665 11.868C41.393 12.442 41.8853 13.2493 42.142 14.29L40.42 14.563C40.2287 13.9657 39.916 13.4897 39.482 13.135C39.048 12.7757 38.495 12.596 37.823 12.596C37.1463 12.5867 36.584 12.7337 36.136 13.037C35.688 13.3403 35.3497 13.7673 35.121 14.318C34.897 14.8687 34.785 15.5127 34.785 16.25C34.785 16.9874 34.897 17.629 35.121 18.175C35.345 18.7164 35.681 19.1387 36.129 19.442C36.5817 19.7454 37.1463 19.9017 37.823 19.911C38.3317 19.9157 38.7773 19.8247 39.16 19.638C39.5427 19.4467 39.8553 19.1597 40.098 18.777C40.3407 18.3897 40.504 17.9067 40.588 17.328H38.81V16.005H42.38C42.3893 16.0797 42.3963 16.1894 42.401 16.334C42.4057 16.4787 42.408 16.565 42.408 16.593C42.408 17.545 42.219 18.392 41.841 19.134C41.4677 19.8714 40.931 20.45 40.231 20.87C39.531 21.29 38.6933 21.5 37.718 21.5ZM43.8139 21.29V13.73H45.3049V15.571L45.1229 15.333C45.2162 15.081 45.3399 14.8524 45.4939 14.647C45.6526 14.437 45.8416 14.2644 46.0609 14.129C46.2476 14.003 46.4529 13.905 46.6769 13.835C46.9056 13.7603 47.1389 13.716 47.3769 13.702C47.6149 13.6833 47.8459 13.6927 48.0699 13.73V15.305C47.8459 15.2397 47.5869 15.2187 47.2929 15.242C47.0036 15.2654 46.7422 15.347 46.5089 15.487C46.2756 15.613 46.0842 15.774 45.9349 15.97C45.7902 16.166 45.6829 16.39 45.6129 16.642C45.5429 16.8894 45.5079 17.1577 45.5079 17.447V21.29H43.8139ZM52.608 21.5C51.852 21.5 51.1917 21.3297 50.627 20.989C50.0623 20.6484 49.6237 20.1794 49.311 19.582C49.003 18.98 48.849 18.2894 48.849 17.51C48.849 16.7167 49.0077 16.0214 49.325 15.424C49.6423 14.8267 50.0833 14.36 50.648 14.024C51.2127 13.688 51.866 13.52 52.608 13.52C53.3687 13.52 54.0313 13.6903 54.596 14.031C55.1607 14.3717 55.5993 14.843 55.912 15.445C56.2247 16.0424 56.381 16.7307 56.381 17.51C56.381 18.294 56.2223 18.987 55.905 19.589C55.5923 20.1864 55.1537 20.6554 54.589 20.996C54.0243 21.332 53.364 21.5 52.608 21.5ZM52.608 19.918C53.28 19.918 53.7793 19.694 54.106 19.246C54.4327 18.798 54.596 18.2194 54.596 17.51C54.596 16.7774 54.4303 16.194 54.099 15.76C53.7677 15.3214 53.2707 15.102 52.608 15.102C52.1553 15.102 51.782 15.2047 51.488 15.41C51.1987 15.6107 50.984 15.893 50.844 16.257C50.704 16.6164 50.634 17.034 50.634 17.51C50.634 18.2427 50.7997 18.8284 51.131 19.267C51.467 19.701 51.9593 19.918 52.608 19.918ZM59.2598 21.29L56.9498 13.716L58.6018 13.73L60.0788 18.581L61.5768 13.73H62.9978L64.4888 18.581L65.9728 13.73H67.6248L65.3148 21.29H63.9988L62.2838 16.089L60.5758 21.29H59.2598ZM72.9481 21.5C72.1455 21.5 71.4385 21.3367 70.8271 21.01C70.2205 20.6834 69.7445 20.2237 69.3991 19.631C69.0585 19.0384 68.8881 18.343 68.8881 17.545V11.224L70.5961 11.21V17.503C70.5961 17.881 70.6591 18.2194 70.7851 18.518C70.9158 18.8167 71.0908 19.071 71.3101 19.281C71.5295 19.4864 71.7815 19.6427 72.0661 19.75C72.3508 19.8574 72.6448 19.911 72.9481 19.911C73.2608 19.911 73.5571 19.8574 73.8371 19.75C74.1218 19.638 74.3738 19.4794 74.5931 19.274C74.8125 19.064 74.9851 18.8097 75.1111 18.511C75.2371 18.2124 75.3001 17.8764 75.3001 17.503V11.21H77.0081V17.545C77.0081 18.343 76.8355 19.0384 76.4901 19.631C76.1495 20.2237 75.6735 20.6834 75.0621 21.01C74.4555 21.3367 73.7508 21.5 72.9481 21.5ZM82.5973 21.5C81.86 21.5 81.2416 21.325 80.7423 20.975C80.243 20.625 79.8673 20.149 79.6153 19.547C79.3633 18.9404 79.2373 18.2614 79.2373 17.51C79.2373 16.7494 79.3633 16.068 79.6153 15.466C79.8673 14.864 80.236 14.3904 80.7213 14.045C81.2113 13.695 81.8156 13.52 82.5343 13.52C83.2483 13.52 83.8666 13.695 84.3893 14.045C84.9166 14.3904 85.325 14.864 85.6143 15.466C85.9036 16.0634 86.0483 16.7447 86.0483 17.51C86.0483 18.266 85.906 18.945 85.6213 19.547C85.3366 20.149 84.9353 20.625 84.4173 20.975C83.8993 21.325 83.2926 21.5 82.5973 21.5ZM78.9503 24.65V13.73H80.4413V19.036H80.6513V24.65H78.9503ZM82.3383 19.988C82.777 19.988 83.1386 19.8784 83.4233 19.659C83.708 19.4397 83.918 19.1434 84.0533 18.77C84.1933 18.392 84.2633 17.972 84.2633 17.51C84.2633 17.0527 84.1933 16.6374 84.0533 16.264C83.9133 15.886 83.6963 15.5874 83.4023 15.368C83.1083 15.144 82.735 15.032 82.2823 15.032C81.853 15.032 81.503 15.137 81.2323 15.347C80.9616 15.5524 80.761 15.8417 80.6303 16.215C80.5043 16.5837 80.4413 17.0154 80.4413 17.51C80.4413 18 80.5043 18.4317 80.6303 18.805C80.761 19.1784 80.964 19.47 81.2393 19.68C81.5193 19.8854 81.8856 19.988 82.3383 19.988ZM90.534 21.29V11.21H92.221V19.708H96.673V21.29H90.534ZM97.8588 21.29V11.21H99.3778L102.864 18.35L106.35 11.21H107.869V21.29H106.294V14.829L103.2 21.29H102.528L99.4408 14.829V21.29H97.8588ZM113.566 21.5C112.829 21.5 112.164 21.3717 111.571 21.115C110.983 20.8584 110.498 20.492 110.115 20.016C109.737 19.5354 109.497 18.966 109.394 18.308L111.144 18.042C111.294 18.6394 111.599 19.1014 112.061 19.428C112.528 19.7547 113.065 19.918 113.671 19.918C114.031 19.918 114.369 19.862 114.686 19.75C115.004 19.638 115.26 19.4747 115.456 19.26C115.657 19.0454 115.757 18.7817 115.757 18.469C115.757 18.329 115.734 18.2007 115.687 18.084C115.641 17.9627 115.571 17.8554 115.477 17.762C115.389 17.6687 115.272 17.5847 115.127 17.51C114.987 17.4307 114.824 17.363 114.637 17.307L112.033 16.537C111.809 16.4717 111.567 16.3854 111.305 16.278C111.049 16.166 110.804 16.0144 110.57 15.823C110.342 15.627 110.153 15.3797 110.003 15.081C109.859 14.7777 109.786 14.4044 109.786 13.961C109.786 13.3123 109.95 12.7687 110.276 12.33C110.608 11.8867 111.051 11.5553 111.606 11.336C112.166 11.1167 112.787 11.0093 113.468 11.014C114.159 11.0187 114.775 11.1377 115.316 11.371C115.858 11.5997 116.31 11.9333 116.674 12.372C117.038 12.8107 117.295 13.3403 117.444 13.961L115.631 14.276C115.557 13.9213 115.412 13.6203 115.197 13.373C114.987 13.121 114.728 12.9297 114.42 12.799C114.117 12.6683 113.793 12.5983 113.447 12.589C113.111 12.5843 112.799 12.6357 112.509 12.743C112.225 12.8457 111.994 12.995 111.816 13.191C111.644 13.387 111.557 13.6157 111.557 13.877C111.557 14.1244 111.632 14.3274 111.781 14.486C111.931 14.64 112.115 14.7637 112.334 14.857C112.558 14.9457 112.785 15.0204 113.013 15.081L114.819 15.585C115.067 15.6504 115.344 15.739 115.652 15.851C115.96 15.963 116.257 16.1194 116.541 16.32C116.826 16.5207 117.059 16.7844 117.241 17.111C117.428 17.4377 117.521 17.853 117.521 18.357C117.521 18.8797 117.412 19.3394 117.192 19.736C116.978 20.128 116.686 20.4547 116.317 20.716C115.949 20.9774 115.526 21.1734 115.05 21.304C114.579 21.4347 114.084 21.5 113.566 21.5Z" fill="#293253"/>
<path d="M100.639 8V2.18182H102.77C103.183 2.18182 103.525 2.25 103.795 2.38636C104.066 2.52083 104.269 2.7036 104.403 2.93466C104.538 3.16383 104.605 3.42235 104.605 3.71023C104.605 3.95265 104.561 4.1572 104.472 4.32386C104.383 4.48864 104.263 4.62121 104.114 4.72159C103.966 4.82008 103.803 4.89205 103.625 4.9375V4.99432C103.818 5.00379 104.007 5.06629 104.19 5.18182C104.376 5.29545 104.529 5.45739 104.651 5.66761C104.772 5.87784 104.832 6.13352 104.832 6.43466C104.832 6.73201 104.762 6.99905 104.622 7.2358C104.484 7.47064 104.27 7.6572 103.98 7.79545C103.69 7.93182 103.32 8 102.869 8H100.639ZM101.517 7.24716H102.784C103.205 7.24716 103.506 7.16572 103.688 7.00284C103.869 6.83996 103.96 6.63636 103.96 6.39205C103.96 6.20833 103.914 6.03977 103.821 5.88636C103.728 5.73295 103.596 5.6108 103.423 5.51989C103.253 5.42898 103.05 5.38352 102.815 5.38352H101.517V7.24716ZM101.517 4.69886H102.693C102.89 4.69886 103.067 4.66098 103.224 4.58523C103.384 4.50947 103.509 4.40341 103.602 4.26705C103.697 4.12879 103.744 3.96591 103.744 3.77841C103.744 3.53788 103.66 3.33617 103.491 3.1733C103.323 3.01042 103.064 2.92898 102.716 2.92898H101.517V4.69886ZM107.686 8.08807C107.256 8.08807 106.886 7.99621 106.575 7.8125C106.267 7.62689 106.028 7.36648 105.859 7.03125C105.693 6.69413 105.609 6.29924 105.609 5.84659C105.609 5.39962 105.693 5.00568 105.859 4.66477C106.028 4.32386 106.263 4.05777 106.564 3.86648C106.867 3.67519 107.221 3.57955 107.626 3.57955C107.873 3.57955 108.111 3.62027 108.342 3.7017C108.573 3.78314 108.781 3.91098 108.964 4.08523C109.148 4.25947 109.293 4.4858 109.399 4.7642C109.505 5.04072 109.558 5.37689 109.558 5.77273V6.07386H106.089V5.4375H108.726C108.726 5.21402 108.68 5.0161 108.589 4.84375C108.499 4.66951 108.371 4.5322 108.206 4.43182C108.043 4.33144 107.852 4.28125 107.632 4.28125C107.393 4.28125 107.185 4.33996 107.007 4.45739C106.831 4.57292 106.695 4.72443 106.598 4.91193C106.503 5.09754 106.456 5.29924 106.456 5.51705V6.0142C106.456 6.30587 106.507 6.55398 106.609 6.75852C106.714 6.96307 106.858 7.11932 107.044 7.22727C107.23 7.33333 107.446 7.38636 107.695 7.38636C107.856 7.38636 108.002 7.36364 108.135 7.31818C108.268 7.27083 108.382 7.20076 108.479 7.10795C108.575 7.01515 108.649 6.90057 108.7 6.7642L109.504 6.90909C109.44 7.14583 109.324 7.35322 109.158 7.53125C108.993 7.70739 108.786 7.8447 108.536 7.94318C108.287 8.03977 108.004 8.08807 107.686 8.08807ZM112.538 3.63636V4.31818H110.154V3.63636H112.538ZM110.793 2.59091H111.643V6.71875C111.643 6.88352 111.667 7.00758 111.717 7.09091C111.766 7.17235 111.829 7.22822 111.907 7.25852C111.987 7.28693 112.073 7.30114 112.165 7.30114C112.234 7.30114 112.293 7.2964 112.344 7.28693C112.396 7.27746 112.435 7.26989 112.464 7.2642L112.617 7.96591C112.568 7.98485 112.498 8.00379 112.407 8.02273C112.316 8.04356 112.202 8.05492 112.066 8.05682C111.843 8.06061 111.634 8.02083 111.441 7.9375C111.248 7.85417 111.092 7.72538 110.972 7.55114C110.853 7.37689 110.793 7.15814 110.793 6.89489V2.59091ZM114.747 8.09659C114.471 8.09659 114.221 8.04545 113.997 7.94318C113.774 7.83902 113.597 7.68845 113.466 7.49148C113.337 7.29451 113.273 7.05303 113.273 6.76705C113.273 6.52083 113.32 6.31818 113.415 6.15909C113.509 6 113.637 5.87405 113.798 5.78125C113.959 5.68845 114.139 5.61837 114.338 5.57102C114.537 5.52367 114.74 5.48769 114.946 5.46307C115.207 5.43277 115.42 5.40814 115.582 5.3892C115.745 5.36837 115.864 5.33523 115.938 5.28977C116.011 5.24432 116.048 5.17045 116.048 5.06818V5.0483C116.048 4.80019 115.978 4.60795 115.838 4.47159C115.7 4.33523 115.493 4.26705 115.219 4.26705C114.933 4.26705 114.707 4.33049 114.543 4.45739C114.38 4.58239 114.267 4.72159 114.205 4.875L113.406 4.69318C113.501 4.42803 113.639 4.21402 113.821 4.05114C114.005 3.88636 114.216 3.76705 114.455 3.69318C114.693 3.61742 114.944 3.57955 115.207 3.57955C115.382 3.57955 115.566 3.60038 115.761 3.64205C115.958 3.68182 116.142 3.75568 116.312 3.86364C116.485 3.97159 116.626 4.12595 116.736 4.3267C116.846 4.52557 116.901 4.78409 116.901 5.10227V8H116.071V7.40341H116.037C115.982 7.51326 115.9 7.62121 115.79 7.72727C115.68 7.83333 115.539 7.9214 115.366 7.99148C115.194 8.06155 114.988 8.09659 114.747 8.09659ZM114.932 7.41477C115.167 7.41477 115.367 7.36837 115.534 7.27557C115.703 7.18277 115.83 7.06155 115.918 6.91193C116.007 6.76042 116.051 6.59848 116.051 6.42614V5.86364C116.021 5.89394 115.962 5.92235 115.875 5.94886C115.79 5.97348 115.692 5.99527 115.582 6.0142C115.473 6.03125 115.366 6.04735 115.261 6.0625C115.157 6.07576 115.07 6.08712 115 6.09659C114.835 6.11742 114.685 6.15246 114.548 6.2017C114.414 6.25095 114.306 6.32197 114.224 6.41477C114.145 6.50568 114.105 6.62689 114.105 6.77841C114.105 6.98864 114.183 7.14773 114.338 7.25568C114.493 7.36174 114.691 7.41477 114.932 7.41477Z" fill="#293253"/>
</g>
<defs>
<linearGradient id="paint0_linear_2532_1407" x1="28.4375" y1="14.996" x2="2.07939" y2="11.4632" gradientUnits="userSpaceOnUse">
<stop stop-color="#0A7EFB"/>
<stop offset="0.679244" stop-color="#8A5FEE"/>
<stop offset="1" stop-color="#E05EC8"/>
</linearGradient>
<linearGradient id="paint1_linear_2532_1407" x1="0.4375" y1="19.4949" x2="32.2979" y2="7.62333" gradientUnits="userSpaceOnUse">
<stop stop-color="#0B8BFB"/>
<stop offset="0.56009" stop-color="#FF5496"/>
<stop offset="1" stop-color="#FFBB33"/>
</linearGradient>
<linearGradient id="paint2_linear_2532_1407" x1="3.88594" y1="24.999" x2="35.3829" y2="18.0024" gradientUnits="userSpaceOnUse">
<stop stop-color="#0B8BFB"/>
<stop offset="0.530839" stop-color="#FF5496"/>
<stop offset="1" stop-color="#FFBB33"/>
</linearGradient>
<clipPath id="clip0_2532_1407">
<rect width="118" height="25" fill="white"/>
</clipPath>
</defs>
</svg>
