<svg width="20" height="20" viewBox="0 0 20 20" fill="none" xmlns="http://www.w3.org/2000/svg">
<circle cx="10" cy="10" r="10" fill="#ACAEC3"/>
<path d="M7.77919 12.5749L14.8483 6.18094C14.9863 6.05564 15.1404 5.99542 15.3106 6.00027C15.4808 6.00514 15.6382 6.07327 15.7829 6.20466C15.9276 6.33603 16 6.47745 16 6.6289C16 6.78034 15.9276 6.92176 15.7829 7.05315L8.3882 13.7664C8.21668 13.9221 8.01804 14 7.79226 14C7.56648 14 7.36783 13.9221 7.19632 13.7664L4.21753 11.0622C4.07951 10.9369 4.00715 10.797 4.00044 10.6425C3.99375 10.488 4.06276 10.345 4.20747 10.2137C4.35219 10.0823 4.50796 10.0166 4.67477 10.0166C4.8416 10.0166 4.99737 10.0823 5.14208 10.2137L7.77919 12.5749Z" fill="white"/>
</svg>
