<svg width="25" height="22" viewBox="0 0 25 22" fill="none" xmlns="http://www.w3.org/2000/svg">
<path d="M11.5174 11.794C10.7611 13.3175 10.5819 15.0633 11.0127 16.7087C11.4435 18.3541 12.4552 19.788 13.861 20.7455C13.9521 20.8086 14.0264 20.893 14.0775 20.9914C14.1286 21.0897 14.1549 21.1991 14.1542 21.3099C14.1542 21.4929 14.0815 21.6685 13.9521 21.7979C13.8226 21.9273 13.6471 22 13.4641 22H0.690071C0.507434 22 0.332245 21.9276 0.202895 21.7987C0.0735447 21.6697 0.000583505 21.4948 0 21.3121L0 8.53754C0 8.44692 0.0178492 8.35718 0.0525285 8.27345C0.0872079 8.18973 0.138038 8.11365 0.202117 8.04957C0.266196 7.98549 0.342269 7.93465 0.425992 7.89997C0.509716 7.86529 0.59945 7.84744 0.690071 7.84744H13.4641C13.6471 7.84744 13.8226 7.92015 13.9521 8.04957C14.0815 8.17899 14.1542 8.35452 14.1542 8.53754C14.155 8.64762 14.1292 8.75626 14.0789 8.85418C14.0286 8.95209 13.9553 9.03636 13.8654 9.09976C12.8644 9.78144 12.0558 10.7093 11.5174 11.794Z" fill="#FEC944"/>
<path d="M14.1515 11.7941V20.9351C12.6471 20.0185 11.5408 18.5714 11.0511 16.8791C10.5613 15.1869 10.7236 13.3725 11.5058 11.7941H14.1515Z" fill="#FF5D79"/>
<path d="M24.8579 15.4055C24.7722 16.612 24.3779 17.7763 23.7126 18.7865C23.0474 19.7967 22.1336 20.6189 21.059 21.1741C19.9845 21.7294 18.7852 21.999 17.5764 21.9571C16.3676 21.9153 15.1898 21.5633 14.1562 20.9351V11.794H17.8028C17.8387 11.7915 17.8733 11.7802 17.9038 11.7611C17.9343 11.7421 17.9597 11.7159 17.9777 11.6848C17.9958 11.6537 18.0059 11.6187 18.0073 11.5828C18.0088 11.5469 18.0014 11.5111 17.9858 11.4787L16.0391 8.10982C17.1206 7.82792 18.2536 7.80703 19.3448 8.04887C20.436 8.2907 21.4542 8.78834 22.3154 9.50079C23.1766 10.2132 23.8562 11.1201 24.2982 12.1467C24.7402 13.1733 24.9321 14.2902 24.8579 15.4055Z" fill="#49D3FE"/>
<path d="M17.7721 11.7941H11.5195C12.1122 10.6034 13.0293 9.6044 14.1652 8.91244C14.7499 8.55372 15.3843 8.28329 16.048 8.10989L17.9705 11.4524C17.9932 11.4866 18.0058 11.5265 18.0071 11.5676C18.0083 11.6087 17.998 11.6493 17.9773 11.6848C17.9567 11.7204 17.9266 11.7494 17.8903 11.7687C17.854 11.788 17.8131 11.7968 17.7721 11.7941Z" fill="#335EF2"/>
<path d="M16.0379 8.10981C15.3742 8.2832 14.7397 8.55363 14.155 8.91235C13.0192 9.60431 12.102 10.6033 11.5094 11.794H4.75199C4.69043 11.7939 4.62999 11.7775 4.57676 11.7466C4.52353 11.7156 4.47938 11.6712 4.44877 11.6178C4.41815 11.5644 4.40214 11.5038 4.40235 11.4423C4.40255 11.3807 4.41897 11.3203 4.44995 11.2671L6.43418 7.84743L10.8524 0.176961C10.8834 0.122991 10.9282 0.0781911 10.9821 0.0471113C11.036 0.0160315 11.0972 -0.000221643 11.1595 2.2829e-06C11.2217 0.000226208 11.2828 0.0169192 11.3365 0.0483863C11.3902 0.0798533 11.4347 0.124974 11.4653 0.179166L16.0379 8.10981Z" fill="#B577FC"/>
</svg>
