<svg width="24" height="22" viewBox="0 0 24 22" fill="none" xmlns="http://www.w3.org/2000/svg">
<path d="M24 6V5C23.9967 2.23995 21.7601 0.00330687 19 4.76837e-07L5 0C2.23995 0.00330591 0.00330687 2.23995 0 5V6H24ZM10 2C10.5523 2 11 2.44772 11 3C11 3.55228 10.5523 4 10 4C9.44771 4 9 3.55228 9 3C9 2.44772 9.44772 2 10 2ZM7 2C7.55228 2 8 2.44772 8 3C8 3.55228 7.55228 4 7 4C6.44772 4 6 3.55228 6 3C6 2.44772 6.44772 2 7 2ZM4 2C4.55228 2 5 2.44772 5 3C5 3.55228 4.55228 4 4 4C3.44772 4 3 3.55228 3 3C3 2.44772 3.44772 2 4 2Z" fill="#FFA557"/>
<path d="M0 8V17C0.00330544 19.7601 2.23995 21.9967 5 22L19 22C21.7601 21.9967 23.9967 19.7601 24 17V8H0ZM14 18H6C5.44772 18 5 17.5523 5 17C5 16.4477 5.44772 16 6 16H14C14.5523 16 15 16.4477 15 17C15 17.5523 14.5523 18 14 18ZM18 14H6C5.44772 14 5 13.5523 5 13C5 12.4477 5.44772 12 6 12H18C18.5523 12 19 12.4477 19 13C19 13.5523 18.5523 14 18 14Z" fill="#EA6C00"/>
</svg>
