<svg width="24" height="26" viewBox="0 0 24 26" fill="none" xmlns="http://www.w3.org/2000/svg">
<path d="M16.0791 19.7124C16.0791 18.0782 14.9559 15.8447 12.9196 13.4228C12.6914 13.1505 12.3531 12.995 11.9979 12.999C11.6402 12.9973 11.3 13.1531 11.0675 13.425C8.83841 16.0365 7.74893 18.3462 7.93741 20.1166C8.08744 21.2488 8.71475 22.2628 9.66097 22.9024C10.3227 23.445 11.1429 23.7578 11.9979 23.7936C14.2509 23.7912 16.0767 21.9654 16.0791 19.7124Z" fill="#3BE0A0"/>
<path d="M17.0079 3.1365C16.1572 2.41353 15.2644 1.65594 14.3552 0.829084C13.6575 0.195597 12.7156 -0.097498 11.7816 0.0282002C10.8762 0.148104 10.0707 0.663438 9.58241 1.43516C8.29276 3.59087 7.38064 5.95094 6.88538 8.41366C6.69161 8.13309 6.5194 7.83823 6.37021 7.53161C6.05907 6.87607 5.44015 6.42004 4.72186 6.31708C4.00356 6.21413 3.28146 6.47794 2.79871 7.0197C0.984063 8.87515 -0.0218508 11.3738 0.0010265 13.969C-0.0506115 19.4236 3.61836 24.2128 8.89841 25.5829C9.88094 25.8301 10.8897 25.958 11.9028 25.9638C10.6081 25.9156 9.3637 25.4502 8.35511 24.637C6.94207 23.6425 6.01762 22.0949 5.81176 20.3793C5.56284 17.9875 6.77823 15.2028 9.4244 12.1031C10.0669 11.35 11.0081 10.9174 11.998 10.9202L12.0089 10.9202C12.996 10.921 13.9327 11.3565 14.5695 12.1107C16.2341 14.088 18.22 17.0188 18.22 19.7527C18.2151 23.0215 15.6814 25.7291 12.4201 25.9509C18.8814 25.7427 24.0091 20.4401 24.0005 13.9755C23.9951 9.07277 20.7569 6.32379 17.0079 3.1365Z" fill="#25CE8C"/>
</svg>
