<svg width="24" height="23" viewBox="0 0 24 23" fill="none" xmlns="http://www.w3.org/2000/svg">
<path d="M23.9999 7.50215V19.0222C23.9999 19.5744 23.5522 20.0222 22.9999 20.0222C22.4476 20.0222 21.9999 19.5744 21.9999 19.0222V10.7742L14.5999 14.3102C13.8197 14.7707 12.9289 15.0106 12.0229 15.0042C11.0728 15.0056 10.1399 14.7503 9.32291 14.2652L1.94291 10.7522C0.761513 10.1169 0.017768 8.89065 0.00031389 7.54938C-0.0171405 6.20812 0.694444 4.96297 1.85891 4.29715C1.88591 4.28115 1.91491 4.26615 1.94291 4.25215L9.39991 0.694153C11.0391 -0.247235 13.059 -0.230027 14.6819 0.739153L22.0569 4.25215C23.2416 4.90761 23.9833 6.14837 23.9999 7.50215ZM12.0219 17.0022C10.7425 17.005 9.48504 16.6697 8.37691 16.0302L3.99991 13.9412V16.6412C4.00113 18.8322 5.42683 20.768 7.51891 21.4192C8.97525 21.8373 10.4849 22.0404 11.9999 22.0222C13.5152 22.0391 15.0248 21.8346 16.4809 21.4152C18.573 20.764 19.9987 18.8282 19.9999 16.6372V13.9462L15.5409 16.0762C14.4706 16.6911 13.2563 17.0113 12.0219 17.0042L12.0219 17.0022Z" fill="#C69CFD"/>
<path d="M23.9999 7.50215V19.0222C23.9999 19.5744 23.5522 20.0222 22.9999 20.0222C22.4476 20.0222 21.9999 19.5744 21.9999 19.0222V10.7742L14.5999 14.3102C13.8197 14.7707 12.9289 15.0106 12.0229 15.0042C11.0728 15.0056 10.1399 14.7503 9.32291 14.2652L1.94291 10.7522C0.761513 10.1169 0.017768 8.89065 0.00031389 7.54938C-0.0171405 6.20812 0.694444 4.96297 1.85891 4.29715C1.88591 4.28115 1.91491 4.26615 1.94291 4.25215L9.39991 0.694153C11.0391 -0.247235 13.059 -0.230027 14.6819 0.739153L22.0569 4.25215C23.2416 4.90761 23.9833 6.14837 23.9999 7.50215Z" fill="#9E54FF"/>
</svg>
