<svg width="24" height="25" viewBox="0 0 24 25" fill="none" xmlns="http://www.w3.org/2000/svg">
<path d="M12 16.9287C12 19.4142 14.0145 21.4287 16.5 21.4287C18.9855 21.4287 21 19.4142 21 16.9287C21 14.4432 18.9855 12.4287 16.5 12.4287C14.0145 12.4287 12 14.4432 12 16.9287ZM17.058 14.9135L19.0732 16.9287H17.25V19.1787H15.75V16.9287H13.9095L15.9247 14.9135C16.2375 14.6007 16.7452 14.6007 17.058 14.9135ZM4.50075 16.9287C3.94725 16.928 3.4125 17.132 3.00075 17.5025V5.67871C3 4.43596 4.00725 3.42871 5.25 3.42871H6V16.9287H4.50075ZM10.5008 16.9287H7.50075V3.42871H16.5007C17.3295 3.42871 18.0007 4.09996 18.0007 4.92871V11.1177C17.5215 10.994 17.019 10.9287 16.5007 10.9287C13.1872 10.9287 10.5008 13.6152 10.5008 16.9287ZM12.5325 21.4287H4.5C3.67125 21.4287 3 20.7575 3 19.9287C3 19.1 3.67125 18.4287 4.5 18.4287H10.689C10.9927 19.6085 11.646 20.6472 12.5317 21.4287H12.5325Z" fill="#3D82F0"/>
</svg>
