<svg width="24" height="25" viewBox="0 0 24 25" fill="none" xmlns="http://www.w3.org/2000/svg">
<path d="M11.1669 13.0699C10.9616 12.8666 10.7179 12.7054 10.4496 12.5954C10.1813 12.4853 9.89376 12.4287 9.60336 12.4287C9.31296 12.4287 9.02541 12.4853 8.75713 12.5954C8.48885 12.7054 8.24511 12.8666 8.03983 13.0699L3 18.0572C3.06813 18.9716 3.48255 19.8268 4.16039 20.4519C4.83824 21.077 5.72955 21.4259 6.65609 21.4287H16.9715C17.6934 21.4286 18.3991 21.2173 19 20.8213L11.1669 13.0699Z" fill="#3D82F0"/>
<path d="M16.5 9.42871C17.3284 9.42871 18 8.75714 18 7.92871C18 7.10028 17.3284 6.42871 16.5 6.42871C15.6716 6.42871 15 7.10028 15 7.92871C15 8.75714 15.6716 9.42871 16.5 9.42871Z" fill="#3D82F0"/>
<path d="M17.25 3.42871H6.75C5.7558 3.42988 4.80267 3.81772 4.09966 4.50716C3.39666 5.1966 3.00119 6.13135 3 7.10636L3 15.6282L7.098 11.6093C7.44623 11.2677 7.85967 10.9967 8.31471 10.8118C8.76974 10.6269 9.25746 10.5318 9.75 10.5318C10.2425 10.5318 10.7303 10.6269 11.1853 10.8118C11.6403 10.9967 12.0538 11.2677 12.402 11.6093L20.3752 19.4287C20.7825 18.8289 20.9999 18.1244 21 17.4038V7.10636C20.9988 6.13135 20.6033 5.1966 19.9003 4.50716C19.1973 3.81772 18.2442 3.42988 17.25 3.42871ZM16.5 10.784C15.9067 10.784 15.3266 10.6115 14.8333 10.2882C14.3399 9.9649 13.9554 9.5054 13.7284 8.9678C13.5013 8.43019 13.4419 7.83863 13.5576 7.26792C13.6734 6.6972 13.9591 6.17296 14.3787 5.7615C14.7982 5.35004 15.3328 5.06983 15.9147 4.9563C16.4967 4.84278 17.0999 4.90105 17.6481 5.12373C18.1962 5.34641 18.6648 5.72351 18.9944 6.20734C19.3241 6.69117 19.5 7.26 19.5 7.8419C19.5 8.62219 19.1839 9.37054 18.6213 9.92229C18.0587 10.474 17.2956 10.784 16.5 10.784Z" fill="#3D82F0"/>
</svg>
