<svg width="24" height="25" viewBox="0 0 24 25" fill="none" xmlns="http://www.w3.org/2000/svg">
<mask id="mask0_78_793" style="mask-type:alpha" maskUnits="userSpaceOnUse" x="0" y="0" width="24" height="25">
<rect y="0.428711" width="24" height="24" fill="#D9D9D9"/>
</mask>
<g mask="url(#mask0_78_793)">
<path d="M10 21.4287C8.9 21.4287 7.95833 21.037 7.175 20.2537C6.39167 19.4704 6 18.5287 6 17.4287C6 16.3287 6.39167 15.387 7.175 14.6037C7.95833 13.8204 8.9 13.4287 10 13.4287C10.3833 13.4287 10.7375 13.4745 11.0625 13.5662C11.3875 13.6579 11.7 13.7954 12 13.9787V5.42871C12 4.87871 12.1958 4.40788 12.5875 4.01621C12.9792 3.62454 13.45 3.42871 14 3.42871H16C16.55 3.42871 17.0208 3.62454 17.4125 4.01621C17.8042 4.40788 18 4.87871 18 5.42871C18 5.97871 17.8042 6.44954 17.4125 6.84121C17.0208 7.23288 16.55 7.42871 16 7.42871H14V17.4287C14 18.5287 13.6083 19.4704 12.825 20.2537C12.0417 21.037 11.1 21.4287 10 21.4287Z" fill="#3D82F0"/>
</g>
</svg>
