<svg width="24" height="25" viewBox="0 0 24 25" fill="none" xmlns="http://www.w3.org/2000/svg">
<g clip-path="url(#clip0_78_808)">
<path d="M20 6.42871H12L10.59 5.01871C10.21 4.63871 9.7 4.42871 9.17 4.42871H4C2.9 4.42871 2.01 5.32871 2.01 6.42871L2 18.4287C2 19.5287 2.9 20.4287 4 20.4287H20C21.1 20.4287 22 19.5287 22 18.4287V8.42871C22 7.32871 21.1 6.42871 20 6.42871ZM13 13.4287V16.4287C13 16.9787 12.55 17.4287 12 17.4287C11.45 17.4287 11 16.9787 11 16.4287V13.4287H9.21C8.76 13.4287 8.54 12.8887 8.86 12.5787L11.66 9.78871C11.86 9.58871 12.17 9.59871 12.37 9.78871L15.16 12.5787C15.46 12.8887 15.24 13.4287 14.8 13.4287H13Z" fill="#3D82F0"/>
</g>
<defs>
<clipPath id="clip0_78_808">
<rect width="24" height="24" fill="white" transform="translate(0 0.428711)"/>
</clipPath>
</defs>
</svg>
