<svg width="24" height="25" viewBox="0 0 24 25" fill="none" xmlns="http://www.w3.org/2000/svg">
<g clip-path="url(#clip0_78_805)">
<path d="M9 5.92871C9 6.75871 9.67 7.42871 10.5 7.42871H14V17.9287C14 18.7587 14.67 19.4287 15.5 19.4287C16.33 19.4287 17 18.7587 17 17.9287V7.42871H20.5C21.33 7.42871 22 6.75871 22 5.92871C22 5.09871 21.33 4.42871 20.5 4.42871H10.5C9.67 4.42871 9 5.09871 9 5.92871ZM4.5 12.4287H6V17.9287C6 18.7587 6.67 19.4287 7.5 19.4287C8.33 19.4287 9 18.7587 9 17.9287V12.4287H10.5C11.33 12.4287 12 11.7587 12 10.9287C12 10.0987 11.33 9.42871 10.5 9.42871H4.5C3.67 9.42871 3 10.0987 3 10.9287C3 11.7587 3.67 12.4287 4.5 12.4287Z" fill="#3D82F0"/>
</g>
<defs>
<clipPath id="clip0_78_805">
<rect width="24" height="24" fill="white" transform="translate(0 0.428711)"/>
</clipPath>
</defs>
</svg>
