<svg width="60" height="60" viewBox="0 0 60 60" fill="none" xmlns="http://www.w3.org/2000/svg">
<mask id="mask0_1_141" style="mask-type:alpha" maskUnits="userSpaceOnUse" x="0" y="0" width="60" height="60">
<rect x="0.134766" y="0.791992" width="59.17" height="59.17" fill="#D9D9D9"/>
</mask>
<g mask="url(#mask0_1_141)">
<path d="M24.8753 38.9122L38.2503 30.3781L24.8753 21.8439V38.9122ZM29.7244 52.5668C26.6655 52.5668 23.7934 51.9846 21.1081 50.8201C18.4227 49.6556 16.0707 48.065 14.052 46.0482C12.0334 44.0314 10.4413 41.6816 9.2757 38.9987C8.11013 36.3159 7.52734 33.4451 7.52734 30.3863C7.52734 27.318 8.10957 24.4332 9.27403 21.7321C10.4385 19.0309 12.0292 16.6813 14.046 14.6832C16.0628 12.6851 18.4126 11.1032 21.0954 9.93768C23.7782 8.77212 26.649 8.18933 29.7078 8.18933C32.7762 8.18933 35.6609 8.77156 38.3621 9.93601C41.0632 11.1005 43.4129 12.6809 45.411 14.6771C47.4091 16.6734 48.991 19.0208 50.1565 21.7194C51.3221 24.418 51.9049 27.3015 51.9049 30.3698C51.9049 33.4286 51.3226 36.3007 50.1582 38.986C48.9937 41.6714 47.4133 44.0234 45.4171 46.0421C43.4208 48.0608 41.0734 49.6529 38.3748 50.8184C35.6761 51.984 32.7927 52.5668 29.7244 52.5668ZM29.7161 50.6703C35.3613 50.6703 40.1546 48.6972 44.0962 44.7509C48.0377 40.8047 50.0084 36.0137 50.0084 30.3781C50.0084 24.7329 48.0377 19.9395 44.0962 15.998C40.1546 12.0565 35.3613 10.0858 29.7161 10.0858C24.0804 10.0858 19.2894 12.0565 15.3432 15.998C11.3969 19.9395 9.4238 24.7329 9.4238 30.3781C9.4238 36.0137 11.3969 40.8047 15.3432 44.7509C19.2894 48.6972 24.0804 50.6703 29.7161 50.6703Z" fill="white"/>
</g>
</svg>
