<svg width="24" height="24" viewBox="0 0 24 24" fill="none" xmlns="http://www.w3.org/2000/svg">
<path d="M16.1442 7.80381L6.81147 17.1269C6.673 17.2654 6.49897 17.333 6.28937 17.3298C6.07975 17.3266 5.90572 17.2558 5.76727 17.1173C5.6288 16.9788 5.55957 16.8064 5.55957 16.6C5.55957 16.3936 5.6288 16.2212 5.76727 16.0827L15.0904 6.74998H6.89417C6.68167 6.74998 6.50355 6.67808 6.3598 6.53428C6.21606 6.39046 6.1442 6.21226 6.1442 5.99968C6.1442 5.78708 6.21606 5.60899 6.3598 5.46541C6.50355 5.32182 6.68167 5.25003 6.89417 5.25003H16.7403C16.9964 5.25003 17.2111 5.33665 17.3843 5.50988C17.5575 5.68311 17.6441 5.89777 17.6441 6.15386V16C17.6441 16.2125 17.5722 16.3906 17.4284 16.5344C17.2846 16.6781 17.1064 16.75 16.8938 16.75C16.6812 16.75 16.5032 16.6781 16.3596 16.5344C16.216 16.3906 16.1442 16.2125 16.1442 16V7.80381Z" fill="#212534"/>
</svg>
