<svg width="20" height="20" viewBox="0 0 20 20" fill="none" xmlns="http://www.w3.org/2000/svg">
<path d="M11.719 10.0095L6.74736 5.27095C6.58626 5.11742 6.50385 4.94754 6.50012 4.7613C6.49638 4.57507 6.57879 4.40164 6.74736 4.24099C6.91591 4.08033 7.09602 4 7.28769 4C7.47935 4 7.66274 4.08346 7.83787 4.25037L13.2315 9.39104C13.321 9.48373 13.3881 9.58119 13.4329 9.68341C13.4776 9.78562 13.5 9.89615 13.5 10.015C13.5 10.1339 13.4776 10.2444 13.4329 10.3466C13.3881 10.4488 13.321 10.5426 13.2315 10.6279L7.83787 15.7686C7.67021 15.9283 7.49352 16.0054 7.30781 15.9997C7.12212 15.994 6.945 15.9109 6.77645 15.7502C6.60788 15.5896 6.52359 15.4179 6.52359 15.2352C6.52359 15.0525 6.60788 14.8809 6.77645 14.7202L11.719 10.0095Z" fill="#181A1E"/>
</svg>
