<svg width="54" height="60" viewBox="0 0 54 60" fill="none" xmlns="http://www.w3.org/2000/svg">
<path d="M20.6322 42.3484L20.1748 44.6872L20.1795 44.6931C21.7299 47.2595 24.3443 48.5427 26.9588 48.5439C29.5744 48.545 32.1912 47.263 33.7439 44.6954L33.2834 42.3369C31.2882 43.2601 29.1125 43.7558 26.9494 43.743C24.7299 43.7371 22.5905 43.2562 20.6322 42.3484Z" fill="white"/>
<path d="M14.8236 25.5194V27.3095C14.8156 34.214 20.051 40.2089 26.9588 40.2273C33.6615 40.2273 39.094 34.4438 39.094 27.3095V25.5194C41.6519 25.3621 43.6784 23.2381 43.6784 20.6412C43.6784 18.0432 41.6555 15.8405 39.094 15.7619C37.3414 15.7081 35.664 15.0435 34.4534 13.7744L31.4686 10.645C28.4294 13.8458 24.0414 15.7712 19.517 15.7619H14.8236C12.2657 15.9202 10.2402 18.0432 10.2402 20.6412C10.2404 23.2381 12.2657 25.3609 14.8236 25.5194Z" fill="white"/>
<path d="M14.6061 12.2529C14.8214 12.2373 19.2903 12.2516 19.5493 12.2462C23.0248 12.2462 26.5276 10.7426 28.9189 8.22413L31.4626 5.54523L36.9969 11.3476C37.4913 11.876 38.4228 12.2473 39.3093 12.2528C40.2304 12.2584 41.1057 12.5153 41.9198 12.843V10.3571C41.9198 3.69144 35.7124 -1.23746 29.2202 0.274257L22.5358 1.83051C18.9736 2.64074 15.2656 1.9007 12.2104 3.84726e-05C10.3423 4.14027 9.88204 8.93535 10.8747 13.3961C11.9798 12.7446 13.2484 12.3515 14.6061 12.2529Z" fill="white"/>
<path d="M53.9191 60L52.0136 54.4043C50.9508 51.2813 48.423 48.879 45.2508 47.9743L37.2487 45.694C35.2196 49.5609 31.3281 52.0803 26.9574 52.0594C21.7503 51.9706 19.048 49.3253 16.5087 45.7341L8.66718 47.9731C5.49961 48.8778 2.97539 51.2778 1.91133 54.3961L0 60H9.79687V53.8864H13.3125V60H40.6066V53.8864H44.1222V60H53.9191Z" fill="white"/>
</svg>
