<svg width="60" height="60" viewBox="0 0 60 60" fill="none" xmlns="http://www.w3.org/2000/svg">
<path d="M29.0903 41.9346L10.5559 30.9658V39.5346C10.5476 40.3365 10.7344 41.1285 11.1002 41.8422C11.4661 42.5559 12 43.17 12.6559 43.6314C18.4122 47.4283 24.1903 49.3252 29.9903 49.3221C35.7903 49.3189 41.5716 47.4221 47.3341 43.6314C47.9892 43.1692 48.5225 42.555 48.8882 41.8414C49.254 41.1279 49.4413 40.3363 49.4341 39.5346V30.9658L31.9778 41.8877C31.5272 42.0994 31.0368 42.213 30.5391 42.2211C30.0413 42.2292 29.5475 42.1315 29.0903 41.9346Z" fill="white"/>
<path d="M55.2334 41.5003V25.1343L58.6216 23.0156C58.7639 22.9265 58.8797 22.8007 58.9568 22.6515C59.0339 22.5024 59.0695 22.3352 59.06 22.1675C59.0504 21.9999 58.9959 21.8379 58.9023 21.6984C58.8087 21.559 58.6794 21.4473 58.5278 21.375L29.5778 7.69683C29.4475 7.63387 29.3043 7.60195 29.1595 7.60357C29.0148 7.6052 28.8723 7.64033 28.7434 7.70621L1.44344 21.7312C1.29665 21.8099 1.17324 21.9259 1.08567 22.0676C0.998099 22.2092 0.949478 22.3715 0.944722 22.5379C0.939966 22.7044 0.979242 22.8692 1.05858 23.0156C1.13792 23.162 1.25451 23.2849 1.39656 23.3718L30.0091 40.3031C30.1571 40.3902 30.3261 40.4354 30.4979 40.4337C30.6696 40.432 30.8377 40.3837 30.9841 40.2937L53.3584 26.3062V41.4721L49.7809 51.1312C49.729 51.2733 49.7121 51.4258 49.7315 51.5758C49.7509 51.7258 49.8062 51.8689 49.8927 51.993C49.9791 52.1172 50.0941 52.2187 50.2281 52.289C50.362 52.3592 50.5109 52.3962 50.6622 52.3968H57.9184C58.0697 52.3962 58.2186 52.3592 58.3525 52.289C58.4865 52.2187 58.6015 52.1172 58.688 51.993C58.7744 51.8689 58.8297 51.7258 58.8491 51.5758C58.8686 51.4258 58.8516 51.2733 58.7997 51.1312L55.2334 41.5003Z" fill="white"/>
</svg>
