<svg width="588" height="398" viewBox="0 0 588 398" fill="none" xmlns="http://www.w3.org/2000/svg">
<mask id="mask0_2_332" style="mask-type:alpha" maskUnits="userSpaceOnUse" x="0" y="0" width="588" height="398">
<rect x="0.750977" y="71.8022" width="548.778" height="328.213" transform="rotate(-7.44844 0.750977 71.8022)" fill="#D9D9D9"/>
</mask>
<g mask="url(#mask0_2_332)">
<path fill-rule="evenodd" clip-rule="evenodd" d="M6.20377 147.426C9.47261 149.316 51.149 154.68 73.9113 156.351C116.647 159.454 164.925 149.021 259.345 116.545C316.123 97.0332 339.771 90.2199 367.232 85.6126C484.034 65.8335 543.281 90.7315 503.064 142.939L498.952 148.307L489.849 143.168C438.276 114.336 330.918 130.455 284.491 174.198C226.372 228.795 377.862 239.203 480.532 187.758L487.753 184.063C485.501 190.258 488.933 202.488 459.059 239.437C429.726 275.7 430.584 274.447 427.045 291.142C422.833 311.197 431.906 322.568 456.037 327.529C495.362 335.532 510.035 319.903 478.891 320.632C438.795 321.554 438.821 296.081 480.912 249.705C513.125 214.234 522.687 194.775 516.771 176.734L513.801 167.268L520.702 162.139C606.702 98.8037 506.095 49.7291 348.535 77.795C306.732 85.2274 298.351 87.6268 217.838 115.401C129.511 145.778 100.532 150.882 48.9025 144.634C13.1221 140.181 -4.94113 141.354 6.20377 147.426ZM477.528 165.28C448.78 190.51 360.943 217.422 326.043 211.604C267.605 201.917 339.556 139.95 411.95 137.592C449.869 136.41 490.782 153.704 477.528 165.28Z" fill="#0072EF" fill-opacity="0.12"/>
</g>
<path d="M392.984 96.5093C397.782 95.669 399.812 95.0111 399.351 94.451C399.109 94.1638 398.96 94.1105 398.272 94.0566C396.933 93.9699 391.279 95.0188 391.06 95.3986C390.756 95.9255 392.023 96.6735 392.984 96.5093Z" fill="#FEB84E"/>
<path d="M384.436 91.7045C384.996 91.6684 385 91.6052 384.414 88.9965C384.112 87.5965 383.758 86.6244 383.383 86.1138C382.874 85.4113 382.302 85.6369 382.374 86.1357C382.966 90.4309 383.469 91.7669 384.436 91.7045Z" fill="#FEB84E"/>
<path d="M393.033 101.995C392.413 101.343 389.291 97.9231 389.073 97.6501C388.966 97.5233 389.01 97.2216 389.201 96.7767C390.594 93.431 391.803 89.865 391.726 89.347C391.674 88.9571 390.913 88.6326 390.54 88.8257C390.168 89.0189 387.471 91.5954 385.63 93.5387L384.426 94.8039C376.193 92.9913 375.841 92.723 378.431 95.509L380.718 97.9726C382.015 99.3754 382.045 99.4088 381.904 99.8504C381.702 100.485 380.913 103.689 380.463 105.177C379.485 108.37 381.813 107.395 386.005 102.822L386.968 101.777C387.129 101.838 388.11 102.289 392.631 103.74C393.67 104.062 393.952 102.951 393.033 101.995ZM390.947 101.591C390.799 101.62 387.741 100.721 387.214 100.416C386.577 100.048 386.253 100.27 383.868 102.732C382.293 104.355 382.235 104.371 382.602 103.112C383.071 101.537 383.331 99.5304 383.464 99.101C383.589 98.7155 383.044 98.0743 380.753 95.902C379.602 94.8123 379.457 94.5817 380.044 94.7248C380.775 94.9018 384.343 95.6547 384.686 95.8528C385.017 96.0438 385.44 95.9614 385.751 95.6504L388.857 92.4773C389.403 91.927 389.403 91.9269 388.417 94.7392C387.32 97.9125 387.329 97.7546 388.106 98.4478C389.074 99.3173 391.114 101.557 390.947 101.591Z" fill="#FEB84E"/>
<path d="M386.836 103.562C386.68 103.832 388.026 108.971 388.374 109.416C389.103 110.36 389.645 109.987 389.359 108.728C388.608 105.304 387.331 102.704 386.836 103.562Z" fill="#FEB84E"/>
<path d="M376.946 98.8999C373.674 99.1345 373.192 99.3464 374.368 100.026C374.944 100.358 380.041 99.935 380.121 99.5405C380.247 98.9269 379.27 98.7224 376.946 98.8999Z" fill="#FEB84E"/>
</svg>
