<svg width="980" height="500" viewBox="0 0 980 500" fill="none" xmlns="http://www.w3.org/2000/svg">
<rect width="980" height="500" fill="url(#paint0_linear_329_1261)"/>
<g clip-path="url(#clip0_329_1261)">
<path d="M848.688 467.15C847.638 467.181 846.599 466.917 845.691 466.387C844.86 465.875 844.194 465.133 843.775 464.251C843.312 463.258 843.084 462.171 843.107 461.076C843.084 459.979 843.312 458.892 843.775 457.898C844.194 457.015 844.86 456.273 845.691 455.762C846.599 455.232 847.638 454.967 848.688 454.998C849.89 454.954 851.072 455.308 852.051 456.005C852.958 456.686 853.624 457.638 853.952 458.723L851.983 459.267C851.794 458.566 851.388 457.942 850.824 457.485C850.206 457.035 849.452 456.811 848.688 456.852C847.998 456.826 847.316 457.009 846.731 457.378C846.199 457.743 845.79 458.261 845.558 458.863C845.282 459.575 845.146 460.333 845.157 461.097C845.14 461.859 845.274 462.617 845.549 463.327C845.785 463.932 846.199 464.45 846.737 464.813C847.323 465.181 848.006 465.364 848.697 465.338C849.459 465.372 850.208 465.143 850.821 464.691C851.384 464.233 851.79 463.609 851.98 462.909L853.952 463.425C853.627 464.509 852.965 465.461 852.063 466.143C851.08 466.843 849.894 467.197 848.688 467.15Z" fill="white"/>
<path d="M856.094 466.91V455.239H860.915C861.031 455.239 861.176 455.239 861.354 455.239C861.52 455.247 861.684 455.264 861.847 455.292C862.455 455.368 863.032 455.6 863.523 455.967C863.959 456.308 864.298 456.759 864.503 457.274C864.72 457.833 864.828 458.429 864.821 459.029C864.844 459.901 864.593 460.759 864.102 461.48C863.84 461.832 863.508 462.126 863.127 462.344C862.747 462.562 862.325 462.7 861.889 462.748L861.054 462.819H858.048V466.91H856.094ZM858.048 461.01H860.834C860.944 461.01 861.063 461.01 861.2 460.993C861.326 460.984 861.45 460.962 861.571 460.927C861.864 460.866 862.132 460.717 862.337 460.5C862.522 460.3 862.658 460.061 862.736 459.802C862.811 459.555 862.85 459.299 862.851 459.041C862.85 458.781 862.811 458.523 862.736 458.275C862.658 458.014 862.522 457.774 862.337 457.574C862.131 457.358 861.863 457.21 861.571 457.149C861.45 457.117 861.325 457.098 861.2 457.09C861.063 457.09 860.944 457.09 860.834 457.09H858.048V461.01ZM862.801 466.91L860.502 462.157L862.486 461.72L865.014 466.907L862.801 466.91Z" fill="white"/>
<path d="M867.164 466.91V455.239H874.7V457.072H869.116V459.947H873.726V461.78H869.116V465.077H874.7V466.91H867.164Z" fill="white"/>
<path d="M876.207 466.91L879.884 455.239H882.745L886.425 466.91H884.414L881.075 456.439H881.515L878.218 466.91H876.207ZM878.257 464.379V462.558H884.381V464.379H878.257Z" fill="white"/>
<path d="M890.088 466.91V457.072H886.312V455.239H895.818V457.072H892.039V466.91H890.088Z" fill="white"/>
<path d="M897.645 466.91V455.239H899.596V466.91H897.645Z" fill="white"/>
<path d="M905.044 466.91L901.352 455.239H903.36L906.44 465.012L909.559 455.239H911.579L907.889 466.91H905.044Z" fill="white"/>
<path d="M913.156 466.91V455.239H920.692V457.072H915.111V459.947H919.721V461.78H915.111V465.077H920.692V466.91H913.156Z" fill="white"/>
<path d="M923.16 466.91V455.239H925.112V466.91H923.16Z" fill="white"/>
<path d="M930.728 466.91V457.072H926.953V455.239H936.458V457.072H932.68V466.91H930.728Z" fill="white"/>
<path d="M938.125 466.91V455.239H945.661V457.072H940.091V459.947H944.701V461.78H940.091V465.077H945.673V466.91H938.125Z" fill="white"/>
<path d="M947.98 466.91V455.239H949.739L953.773 463.506L957.809 455.239H959.565V466.91H957.744V459.43L954.162 466.91H953.384L949.819 459.43V466.91H947.98Z" fill="white"/>
<path d="M815.86 470.789L807.43 465.92V475.654L815.86 470.789Z" fill="white" fill-opacity="0.48"/>
<path d="M832.715 461.055L824.285 456.19V465.921L832.715 461.055Z" fill="white" fill-opacity="0.47"/>
<path d="M815.86 451.321L807.43 446.456V456.189L815.86 451.321Z" fill="white" fill-opacity="0.48"/>
<path d="M807.43 446.456L800.687 450.35C800.174 450.645 799.747 451.07 799.451 451.583C799.155 452.096 798.999 452.677 799 453.27V468.84C799 469.433 799.155 470.015 799.452 470.528C799.748 471.041 800.174 471.467 800.687 471.763L807.43 475.654V446.456Z" fill="url(#paint1_linear_329_1261)"/>
<path d="M832.716 468.84V461.055L807.43 475.654L814.172 479.549C814.685 479.845 815.266 480.001 815.858 480.001C816.45 480.001 817.031 479.845 817.544 479.549L831.032 471.763C831.545 471.467 831.97 471.04 832.266 470.527C832.561 470.014 832.717 469.433 832.716 468.84Z" fill="url(#paint2_linear_329_1261)"/>
<path d="M817.608 442.594C817.1 442.301 816.523 442.146 815.936 442.146C815.349 442.146 814.772 442.301 814.264 442.594L807.574 446.456L832.656 460.939V453.216C832.656 452.629 832.502 452.052 832.208 451.543C831.915 451.034 831.492 450.611 830.984 450.317L817.608 442.594Z" fill="url(#paint3_linear_329_1261)"/>
</g>
<path d="M260.903 456.878C260.903 456.878 251.003 443.178 252.803 409.778C254.603 376.478 269.603 353.778 267.603 324.878C265.503 295.978 244.303 259.478 244.003 224.478C243.703 189.578 264.203 119.378 304.103 86.6783C344.003 53.9783 428.803 35.6783 498.503 45.7783C568.303 55.8783 647.103 86.4783 667.503 114.578C687.903 142.678 700.503 185.478 698.403 212.278C696.303 239.078 685.303 290.778 683.503 314.278C681.703 337.678 685.603 350.278 689.703 364.178C693.803 377.978 703.703 435.078 694.903 456.878H260.903Z" fill="white" fill-opacity="0.16"/>
<path d="M666.202 367.778C663.602 355.078 651.302 346.878 638.602 349.378C625.902 351.978 617.702 364.278 620.202 376.978C622.802 389.678 635.102 397.878 647.802 395.378C660.502 392.778 668.702 380.478 666.202 367.778ZM630.602 374.878C629.202 367.878 633.702 361.178 640.702 359.778C647.702 358.378 654.402 362.878 655.802 369.878C657.202 376.878 652.702 383.578 645.702 384.978C638.702 386.378 632.002 381.878 630.602 374.878Z" fill="#D2E5EF"/>
<path d="M671.803 372.578L669.503 361.178C669.403 360.678 669.003 360.378 668.503 360.478L661.203 361.978C660.703 362.078 660.403 362.478 660.503 362.978L662.803 374.378C662.903 374.878 663.303 375.178 663.803 375.078L671.103 373.578C671.603 373.478 671.903 372.978 671.803 372.578ZM625.903 381.778L623.603 370.378C623.503 369.878 623.103 369.578 622.603 369.678L615.303 371.178C614.803 371.278 614.503 371.678 614.603 372.178L616.903 383.578C617.003 384.078 617.403 384.378 617.903 384.278L625.203 382.778C625.603 382.678 625.903 382.178 625.903 381.778ZM658.803 396.278L667.003 388.078C667.303 387.778 667.303 387.178 667.003 386.878L661.703 381.578C661.403 381.278 660.803 381.278 660.503 381.578L652.303 389.778C652.003 390.078 652.003 390.678 652.303 390.978L657.603 396.278C658.003 396.578 658.503 396.578 658.803 396.278ZM625.803 363.178L634.003 354.978C634.303 354.678 634.303 354.078 634.003 353.778L628.703 348.478C628.403 348.178 627.803 348.178 627.503 348.478L619.303 356.678C619.003 356.978 619.003 357.578 619.303 357.878L624.603 363.178C624.903 363.478 625.403 363.478 625.803 363.178ZM648.403 344.278L659.103 348.678C659.503 348.878 659.703 349.378 659.603 349.778L656.803 356.678C656.603 357.078 656.103 357.278 655.703 357.178L645.003 352.778C644.603 352.578 644.403 352.078 644.503 351.678L647.303 344.778C647.503 344.278 648.003 344.078 648.403 344.278ZM630.703 387.578L641.403 391.978C641.803 392.178 642.003 392.678 641.903 393.078L639.103 399.978C638.903 400.378 638.403 400.578 638.003 400.478L627.303 396.078C626.903 395.878 626.703 395.378 626.803 394.978L629.603 388.078C629.703 387.578 630.203 387.378 630.703 387.578ZM720.003 301.378C717.003 286.578 702.603 276.978 687.803 279.978C673.003 282.978 663.403 297.378 666.403 312.178C669.403 326.978 683.803 336.578 698.603 333.578C713.303 330.578 722.903 316.178 720.003 301.378ZM678.403 309.678C676.803 301.578 682.003 293.678 690.103 292.078C698.203 290.478 706.103 295.678 707.703 303.778C709.303 311.878 704.103 319.778 696.003 321.378C688.003 323.078 680.103 317.778 678.403 309.678Z" fill="#DBF3FF"/>
<path d="M726.502 306.978L723.803 293.678C723.703 293.178 723.203 292.778 722.603 292.878L714.103 294.578C713.603 294.678 713.203 295.178 713.303 295.778L716.002 309.078C716.102 309.578 716.602 309.978 717.202 309.878L725.702 308.178C726.202 307.978 726.602 307.478 726.502 306.978ZM673.002 317.678L670.303 304.378C670.203 303.878 669.703 303.478 669.103 303.578L660.603 305.278C660.103 305.378 659.703 305.878 659.803 306.478L662.502 319.778C662.602 320.278 663.102 320.678 663.702 320.578L672.202 318.878C672.702 318.778 673.102 318.278 673.002 317.678ZM711.403 334.578L721.002 324.978C721.402 324.578 721.402 323.978 721.002 323.578L714.803 317.378C714.403 316.978 713.803 316.978 713.403 317.378L703.803 326.978C703.403 327.378 703.403 327.978 703.803 328.378L710.002 334.578C710.402 334.978 711.003 334.978 711.403 334.578ZM672.803 295.978L682.403 286.378C682.803 285.978 682.803 285.378 682.403 284.978L676.202 278.778C675.802 278.378 675.203 278.378 674.803 278.778L665.202 288.378C664.802 288.778 664.802 289.378 665.202 289.778L671.403 295.978C671.803 296.378 672.503 296.378 672.803 295.978ZM699.202 273.978L711.702 279.078C712.202 279.278 712.502 279.878 712.202 280.378L708.903 288.478C708.703 288.978 708.103 289.278 707.603 288.978L695.103 283.878C694.603 283.678 694.303 283.078 694.603 282.578L697.903 274.478C698.103 273.978 698.702 273.778 699.202 273.978ZM678.603 324.478L691.103 329.578C691.603 329.778 691.903 330.378 691.603 330.878L688.303 338.978C688.103 339.478 687.502 339.778 687.002 339.478L674.502 334.378C674.002 334.178 673.702 333.578 674.002 333.078L677.303 324.978C677.503 324.478 678.103 324.278 678.603 324.478Z" fill="#DBF3FF"/>
<path d="M544.002 68.5783H518.302C516.402 68.5783 514.902 67.0783 514.902 65.1783C514.902 63.2783 516.402 61.7783 518.302 61.7783H544.002C545.902 61.7783 547.402 63.2783 547.402 65.1783C547.402 67.0783 545.902 68.5783 544.002 68.5783ZM583.702 68.5783H563.102C561.202 68.5783 559.702 67.0783 559.702 65.1783C559.702 63.2783 561.202 61.7783 563.102 61.7783H583.702C585.602 61.7783 587.102 63.2783 587.102 65.1783C587.102 67.0783 585.602 68.5783 583.702 68.5783ZM615.302 68.5783H594.702C592.802 68.5783 591.302 67.0783 591.302 65.1783C591.302 63.2783 592.802 61.7783 594.702 61.7783H615.302C617.202 61.7783 618.702 63.2783 618.702 65.1783C618.702 67.0783 617.202 68.5783 615.302 68.5783Z" fill="#A5C3CE"/>
<path d="M641.703 320.778H294.203C292.603 320.778 291.303 319.478 291.303 317.878V68.1783C291.303 66.5783 292.603 65.3783 294.203 65.3783H641.703C643.303 65.3783 644.503 66.6783 644.503 68.1783V317.878C644.603 319.478 643.303 320.778 641.703 320.778Z" fill="url(#paint4_linear_329_1261)"/>
<path opacity="0.55" d="M317.803 77.1783H634.803V308.878H317.803V77.1783Z" fill="white"/>
<path d="M614.904 296.778H337.704C335.104 296.778 333.004 294.678 333.004 292.078V97.7783C333.004 95.1783 335.104 93.1783 337.704 93.1783H614.904C617.504 93.1783 619.504 95.2783 619.504 97.7783V292.178C619.604 294.678 617.504 296.778 614.904 296.778Z" fill="white"/>
<path d="M465.104 202.678C465.104 202.678 475.104 180.278 483.504 169.678C491.904 159.078 498.004 154.278 502.004 156.278C505.904 158.278 508.404 167.678 513.104 167.178C517.804 166.678 524.903 160.378 528.703 160.378C532.403 160.378 533.303 165.078 537.303 164.278C541.303 163.478 544.504 158.578 546.904 158.978C549.304 159.378 550.003 162.578 553.303 163.078C556.603 163.578 560.703 160.078 560.703 160.078V186.678L465.104 202.678Z" fill="#A9E1FF"/>
<path d="M465.104 202.678C465.104 202.678 467.204 195.178 478.004 186.878C488.804 178.578 493.804 178.478 497.604 181.678C501.404 184.878 505.004 186.778 512.104 181.278C519.204 175.778 522.904 176.478 526.904 176.278C530.904 176.078 535.803 169.778 541.203 169.378C546.603 168.978 549.904 171.878 553.404 167.778C556.904 163.778 561.503 154.578 566.703 153.978V192.378L465.104 202.678Z" fill="#2EB3EF"/>
<path d="M465.104 202.678C465.104 202.678 475.004 187.578 488.604 189.378C502.204 191.178 508.204 192.878 516.504 186.378C524.704 179.878 528.204 178.878 533.904 181.178C539.604 183.478 541.104 180.978 545.504 179.478C549.904 177.978 553.404 178.678 556.604 171.478C559.904 164.278 565.603 147.078 572.203 146.678C578.803 146.278 584.604 159.578 592.504 164.078C600.404 168.578 609.604 176.478 612.404 184.978C615.204 193.478 612.904 202.578 612.904 202.578H465.104V202.678Z" fill="white"/>
<path d="M305.402 200.578C309.544 200.578 312.902 197.221 312.902 193.078C312.902 188.936 309.544 185.578 305.402 185.578C301.26 185.578 297.902 188.936 297.902 193.078C297.902 197.221 301.26 200.578 305.402 200.578Z" fill="#D3E8EF"/>
<path d="M613.104 93.0784H339.504C335.904 93.0784 333.004 95.9784 333.004 99.5784V111.878H619.504V99.5784C619.604 95.9784 616.704 93.0784 613.104 93.0784Z" fill="#BDC7FF"/>
<path d="M345.803 102.478C345.803 101.078 344.703 99.9783 343.303 99.9783C341.903 99.9783 340.803 101.078 340.803 102.478C340.803 103.878 341.903 104.978 343.303 104.978C344.703 104.978 345.803 103.878 345.803 102.478ZM354.803 102.478C354.803 101.078 353.703 99.9783 352.303 99.9783C350.903 99.9783 349.803 101.078 349.803 102.478C349.803 103.878 350.903 104.978 352.303 104.978C353.703 104.978 354.803 103.878 354.803 102.478Z" fill="white"/>
<path d="M361.303 104.978C362.683 104.978 363.803 103.859 363.803 102.478C363.803 101.098 362.683 99.9783 361.303 99.9783C359.922 99.9783 358.803 101.098 358.803 102.478C358.803 103.859 359.922 104.978 361.303 104.978Z" fill="white"/>
<path d="M345.803 102.478C345.803 101.078 344.703 99.9783 343.303 99.9783C341.903 99.9783 340.803 101.078 340.803 102.478C340.803 103.878 341.903 104.978 343.303 104.978C344.703 104.978 345.803 103.878 345.803 102.478Z" fill="white"/>
<path d="M410.402 144.278C419.202 147.778 425.502 156.378 425.502 166.478V167.178H444.302V166.478C444.302 148.578 433.202 133.178 417.602 126.878L410.402 144.278Z" fill="url(#paint5_linear_329_1261)"/>
<path d="M380.702 178.278C378.702 174.778 377.602 170.778 377.602 166.478C377.602 153.278 388.302 142.578 401.502 142.578C403.302 142.578 405.102 142.778 406.902 143.178L414.102 125.678C410.102 124.478 405.902 123.778 401.602 123.778C378.002 123.778 358.902 142.878 358.902 166.478C358.902 175.078 361.402 182.978 365.802 189.678L380.702 178.278Z" fill="url(#paint6_linear_329_1261)"/>
<path d="M425.102 170.878C423.002 181.978 413.302 190.478 401.602 190.478C394.002 190.478 387.202 186.878 382.802 181.278L367.902 192.678C375.702 202.678 387.902 209.178 401.602 209.178C423.702 209.178 441.902 192.378 444.102 170.878H425.102Z" fill="url(#paint7_linear_329_1261)"/>
<path d="M364.203 231.278C364.203 229.501 363.497 227.797 362.24 226.541C360.984 225.284 359.28 224.578 357.503 224.578C355.726 224.578 354.022 225.284 352.765 226.541C351.509 227.797 350.803 229.501 350.803 231.278C350.803 233.055 351.509 234.759 352.765 236.016C354.022 237.272 355.726 237.978 357.503 237.978C359.28 237.978 360.984 237.272 362.24 236.016C363.497 234.759 364.203 233.055 364.203 231.278ZM364.203 252.378C364.203 250.601 363.497 248.897 362.24 247.641C360.984 246.384 359.28 245.678 357.503 245.678C355.726 245.678 354.022 246.384 352.765 247.641C351.509 248.897 350.803 250.601 350.803 252.378C350.803 254.155 351.509 255.86 352.765 257.116C354.022 258.372 355.726 259.078 357.503 259.078C359.28 259.078 360.984 258.372 362.24 257.116C363.497 255.86 364.203 254.155 364.203 252.378ZM364.203 273.378C364.203 272.053 363.81 270.758 363.074 269.656C362.337 268.554 361.291 267.695 360.067 267.188C358.842 266.681 357.495 266.549 356.196 266.807C354.896 267.066 353.702 267.704 352.765 268.641C351.828 269.578 351.19 270.772 350.931 272.071C350.673 273.371 350.806 274.718 351.313 275.942C351.82 277.167 352.679 278.213 353.78 278.949C354.882 279.685 356.178 280.078 357.503 280.078C361.203 280.178 364.203 277.178 364.203 273.378Z" fill="white"/>
<path d="M369.703 227.678H477.803M369.703 234.878H477.803M369.703 248.778H477.803M369.703 255.978H477.803M369.703 269.778H477.803M369.703 276.978H477.803" stroke="#89B1FF" stroke-width="1.395" stroke-miterlimit="10" stroke-linecap="round" stroke-linejoin="round"/>
<path d="M589.403 369.378V455.278C589.403 456.378 590.303 457.278 591.403 457.278H592.403C593.503 457.278 594.403 456.378 594.403 455.278V369.578L589.403 369.378ZM536.203 369.378V455.278C536.203 456.378 537.103 457.278 538.203 457.278H539.203C540.303 457.278 541.203 456.378 541.203 455.278V369.578L536.203 369.378ZM626.603 369.378V455.278C626.603 456.378 627.503 457.278 628.603 457.278H629.603C630.703 457.278 631.603 456.378 631.603 455.278V369.578L626.603 369.378Z" fill="#31333A"/>
<path d="M524.303 368.278L637.203 370.378L664.003 259.278C664.003 259.278 661.203 250.078 658.803 249.278L601.303 247.378L575.903 334.578L524.303 349.278V368.278Z" fill="url(#paint8_linear_329_1261)"/>
<path d="M601.303 247.378L575.903 334.578L524.303 349.278V368.278L584.503 369.378C584.503 369.378 585.303 354.278 592.503 351.678H629.203C629.203 351.678 650.203 265.278 658.903 249.278L601.303 247.378Z" fill="url(#paint9_linear_329_1261)"/>
<path d="M584.803 366.278C584.803 366.278 584.903 355.078 592.403 351.678H629.103C629.103 351.678 646.803 281.978 651.803 267.778" stroke="#396099" stroke-width="1.275" stroke-miterlimit="10" stroke-linecap="round"/>
<path d="M443.502 425.278L434.902 445.978H468.002L475.502 427.178L443.502 425.278ZM514.802 429.478L522.002 446.278H555.702L550.402 430.578L514.802 429.478Z" fill="#A6C7ED"/>
<path d="M476.903 336.178L443.403 416.078C443.403 416.078 437.703 418.678 438.503 422.978C439.303 427.278 442.803 426.978 442.803 426.978L479.103 428.478C479.103 428.478 482.903 427.278 481.703 419.878L500.303 379.878L476.903 336.178Z" fill="#7A164D"/>
<path d="M458.803 419.678L481.103 419.978M493.803 373.978L473.803 419.678" stroke="#59113C" stroke-width="1.275" stroke-miterlimit="10" stroke-linecap="round"/>
<path d="M476.903 336.178L443.403 416.078C443.403 416.078 437.703 418.678 438.503 422.978C439.303 427.278 442.803 426.978 442.803 426.978L479.103 428.478C479.103 428.478 482.903 427.278 481.703 419.878L500.303 379.878L476.903 336.178Z" fill="url(#paint10_linear_329_1261)"/>
<path d="M509.604 311.378H494.304C494.304 311.378 483.104 313.478 478.804 321.878C474.504 330.278 477.804 340.478 477.804 340.478L509.604 422.878C509.604 422.878 507.204 424.578 507.804 428.178C508.404 431.678 512.804 431.978 512.804 431.978H555.504C555.504 431.978 558.104 425.278 551.204 422.678L525.404 351.778H599.004C599.004 351.778 622.504 347.378 624.204 318.978V297.078L509.604 311.378Z" fill="url(#paint11_linear_329_1261)"/>
<path d="M567.802 231.978L570.102 231.278L595.302 228.278L598.502 228.778L593.002 300.978H548.902C548.902 300.978 561.502 244.378 567.802 231.978Z" fill="#F0F3F7"/>
<path d="M613.404 318.278C613.404 318.278 613.104 319.278 612.504 320.978C608.104 332.078 597.204 339.078 585.304 339.078H520.604C515.104 339.078 511.304 344.478 513.104 349.578L538.304 422.578" stroke="#59113C" stroke-width="1.275" stroke-miterlimit="10" stroke-linecap="round"/>
<path d="M546.604 241.278C546.604 241.278 544.804 242.878 540.904 249.778C537.304 255.978 516.104 296.278 516.104 296.278L534.303 306.478L553.703 296.278C553.703 296.178 555.104 255.378 546.604 241.278Z" fill="url(#paint12_linear_329_1261)"/>
<path d="M547.402 251.078L550.402 270.378" stroke="#D8741A" stroke-width="1.275" stroke-miterlimit="10" stroke-linecap="round"/>
<path d="M567.803 231.978C567.803 231.978 555.903 270.078 560.303 303.478H556.203L546.604 241.278C546.604 241.278 561.703 233.778 567.803 231.978ZM604.904 229.878L598.604 228.778C598.604 228.778 585.804 256.878 584.604 285.078C583.404 313.378 589.104 323.078 589.104 323.078L626.303 318.778L604.904 229.878Z" fill="url(#paint13_linear_329_1261)"/>
<path d="M643.502 297.278L636.302 247.578C636.302 247.578 632.202 236.078 626.002 234.378C619.802 232.778 604.902 229.778 604.902 229.778L605.302 248.578L612.002 290.978L643.502 297.278Z" fill="url(#paint14_linear_329_1261)"/>
<path d="M594.303 283.078L643.503 297.278C643.503 297.278 645.803 305.578 645.803 309.578C645.803 313.578 645.303 323.378 631.903 322.978L590.703 309.578L594.303 283.078Z" fill="#FDA345"/>
<path d="M590.703 309.578L595.103 310.978C603.103 299.278 601.503 288.978 600.303 284.778L594.303 283.078L590.703 309.578Z" fill="#E58833"/>
<path d="M520.204 311.378H509.604C509.604 311.378 507.404 299.578 515.904 295.578L520.204 311.378Z" fill="url(#paint15_linear_329_1261)"/>
<path d="M583.103 308.378L568.803 267.678C568.503 266.678 567.503 266.078 566.503 266.078H503.903C501.703 266.078 500.103 268.378 501.003 270.378L517.403 309.478C517.903 310.578 519.003 311.278 520.203 311.278H581.103C582.503 311.378 583.603 309.878 583.103 308.378Z" fill="#BFD7E2"/>
<path opacity="0.44" d="M568.804 267.678C568.504 266.678 567.504 266.078 566.504 266.078H564.004L580.704 311.378H581.104C582.604 311.378 583.704 309.878 583.204 308.478L568.804 267.678Z" fill="#BFD7E2"/>
<path d="M560.303 188.978C560.303 188.978 555.103 199.678 559.603 210.878C563.403 220.278 573.003 222.978 573.003 222.978L574.703 229.878L570.203 231.178C570.203 231.178 569.103 240.978 577.303 241.878C585.603 242.778 594.503 235.178 595.403 228.178L592.403 227.478L591.203 217.178L593.803 214.878C593.803 214.878 604.303 211.878 606.003 205.978C607.903 199.278 603.303 197.278 603.303 197.278L587.303 178.478L560.303 188.978Z" fill="url(#paint16_linear_329_1261)"/>
<path opacity="0.33" d="M600.602 201.678C600.602 201.678 603.202 201.478 602.802 204.378C602.502 207.178 599.102 209.678 597.702 209.078C596.502 208.378 597.702 203.478 600.602 201.678ZM574.002 227.278C574.002 227.278 582.102 227.678 584.602 222.078C584.602 222.078 579.602 224.978 572.902 223.178L574.002 227.278Z" fill="#F4807D"/>
<path d="M557.303 173.478C557.303 173.478 549.303 182.178 556.103 189.178C560.903 194.078 575.503 187.178 575.503 187.178C575.503 187.178 580.003 188.478 585.503 185.878C585.503 185.878 584.803 189.578 586.203 190.478C587.603 191.378 589.303 190.078 589.303 190.078C589.303 190.078 590.703 199.678 594.103 201.478C594.103 201.478 598.403 196.878 599.003 196.578C599.603 196.278 602.003 196.378 603.303 197.578C603.303 197.578 605.103 185.878 599.703 179.378C594.303 172.978 589.903 171.578 586.203 171.878C582.503 172.178 572.603 174.578 569.103 172.878C565.503 171.178 566.703 168.578 566.703 168.578C566.703 168.578 559.303 171.778 559.303 179.478C559.203 179.378 557.203 178.778 557.303 173.478Z" fill="url(#paint17_linear_329_1261)"/>
<path d="M573.402 223.278C573.402 223.278 580.702 224.778 585.402 221.478" stroke="#E26060" stroke-width="0.85" stroke-miterlimit="10" stroke-linecap="round" stroke-linejoin="round"/>
<path d="M601.304 201.378C601.304 201.378 598.204 202.478 596.504 207.378M601.304 204.678C601.304 204.678 599.604 203.678 597.804 204.678" stroke="#E26060" stroke-width="1.275" stroke-miterlimit="10" stroke-linecap="round" stroke-linejoin="round"/>
<path d="M590.704 309.578C590.704 309.578 598.704 299.478 594.304 283.078C594.304 283.078 577.404 277.778 575.404 277.778C573.404 277.778 558.304 280.878 558.304 280.878C558.304 280.878 556.104 283.578 558.804 284.978C558.804 284.978 556.104 288.978 559.604 290.478C559.604 290.478 557.204 294.378 560.904 296.178C560.904 296.178 559.304 298.078 561.304 299.978C563.304 301.878 574.604 299.978 574.604 299.978C574.604 299.978 579.804 309.478 590.704 309.578Z" fill="url(#paint18_linear_329_1261)"/>
<path d="M538.604 286.278C538.604 283.978 539.603 281.978 541.203 280.678C541.003 280.678 540.804 280.578 540.604 280.578C536.504 280.578 533.104 283.978 533.104 288.078C533.104 292.178 536.504 295.578 540.604 295.578C542.504 295.578 544.204 294.878 545.504 293.778C541.604 293.378 538.604 290.178 538.604 286.278Z" fill="#DAEAEF"/>
<path d="M558.703 284.978L575.903 282.778M559.603 290.578L577.003 288.678M560.903 296.178L576.503 294.478" stroke="#E26060" stroke-width="0.85" stroke-miterlimit="10" stroke-linecap="round" stroke-linejoin="round"/>
<path d="M604.902 229.878L598.602 228.778C598.602 228.778 594.802 237.078 591.202 249.278C591.202 249.078 602.002 232.778 604.902 229.878ZM563.002 252.278C565.302 240.178 567.902 231.978 567.902 231.978C566.202 232.478 563.902 233.378 561.502 234.378C561.402 234.378 561.002 248.178 563.002 252.278Z" fill="#DD791E"/>
<path d="M605.303 248.578L611.403 287.178M595.603 283.478L631.203 293.678M590.703 309.578L631.903 322.978C631.903 322.978 640.603 323.878 644.103 317.578" stroke="#E37D21" stroke-width="1.275" stroke-miterlimit="10" stroke-linecap="round"/>
<path d="M528.604 423.478L551.203 422.578" stroke="#59113C" stroke-width="1.275" stroke-miterlimit="10" stroke-linecap="round"/>
<path d="M431.104 437.178H443.504L446.904 446.078H468.004L464.404 456.378C464.204 456.878 463.704 457.278 463.104 457.278H423.704C423.704 457.278 417.304 457.278 417.104 452.278C416.804 446.578 433.504 442.078 433.504 442.078L430.404 438.478C430.004 437.978 430.404 437.178 431.104 437.178ZM555.704 446.278H531.804L527.804 438.778H513.304L516.704 443.278C516.704 443.278 503.704 447.978 504.004 452.778C504.304 457.478 509.204 457.178 509.204 457.178H556.904C557.904 457.178 558.704 456.178 558.404 455.178L555.704 446.278Z" fill="url(#paint19_linear_329_1261)"/>
<path d="M429.402 443.678C429.402 443.678 432.402 445.178 434.302 447.678M433.202 442.278C433.202 442.278 436.202 443.778 438.102 446.278M512.602 445.578C512.602 445.578 517.202 445.778 521.302 448.978M516.502 443.778C516.502 443.778 522.002 444.078 525.902 447.578" stroke="#365B91" stroke-width="0.85" stroke-miterlimit="10" stroke-linecap="round"/>
<path d="M366.803 371.178C366.803 371.178 377.603 377.178 383.803 371.178C390.003 365.178 391.903 361.478 391.903 361.478C391.903 361.478 398.103 365.178 401.603 368.578C405.103 372.078 413.103 371.978 414.903 367.578C416.603 363.178 408.403 349.378 401.903 346.078C395.303 342.778 380.203 341.178 372.003 347.578C363.003 354.478 359.503 363.778 366.803 371.178ZM347.103 385.278C350.803 384.878 353.803 381.878 354.103 378.278C354.503 373.578 352.903 366.678 342.003 360.778C323.603 350.778 309.903 362.578 305.803 367.478C301.703 372.378 299.803 379.578 299.803 379.578C299.803 379.578 302.603 384.378 310.603 382.878C318.603 381.378 321.403 374.178 321.403 374.178C321.403 374.178 330.103 375.178 336.603 383.278C336.703 383.278 341.303 385.978 347.103 385.278ZM357.103 357.878C357.103 357.878 367.403 345.078 352.903 322.678C338.403 300.278 319.203 296.178 312.303 296.578C305.403 296.978 302.103 301.078 306.203 308.378C306.203 308.378 322.403 325.278 325.203 329.378C327.903 333.578 338.403 364.678 357.103 357.878Z" fill="url(#paint20_linear_329_1261)"/>
<path d="M405.104 348.578C405.104 348.578 396.904 340.278 384.904 344.278C364.904 350.978 362.704 394.678 362.504 405.078" stroke="white" stroke-width="1.275" stroke-miterlimit="10" stroke-linecap="round" stroke-linejoin="round"/>
<path d="M371.903 405.078C371.903 405.078 361.603 344.978 327.303 314.078M358.003 405.078C358.003 405.078 358.003 371.978 329.803 366.678" stroke="white" stroke-width="1.275" stroke-miterlimit="10" stroke-linecap="round" stroke-linejoin="round"/>
<path d="M342.703 411.278H341.103C340.203 411.278 339.403 410.678 339.203 409.778L338.103 405.678C337.803 404.578 338.603 403.378 339.803 403.378H385.403C386.603 403.378 387.403 404.478 387.103 405.678L386.003 409.778C385.803 410.678 385.003 411.278 384.103 411.278H382.503C382.503 411.278 389.303 421.178 388.403 434.978C387.503 448.778 375.603 456.378 375.603 456.378H349.803C349.803 456.378 337.903 448.678 337.003 434.978C335.803 421.178 342.703 411.278 342.703 411.278Z" fill="url(#paint21_linear_329_1261)"/>
<path opacity="0.55" d="M299.902 379.578C299.902 379.578 300.302 377.878 301.202 375.578C309.802 371.978 321.402 374.078 321.402 374.078C321.402 374.078 318.602 381.278 310.602 382.778C302.602 384.378 299.902 379.578 299.902 379.578ZM408.302 351.978C412.602 357.378 416.002 364.678 414.802 367.578C413.102 371.978 405.002 371.978 401.502 368.578C398.002 365.078 391.802 361.478 391.802 361.478C399.302 347.978 408.102 351.878 408.302 351.978Z" fill="url(#paint22_linear_329_1261)"/>
<path d="M253.504 456.878H724.504" stroke="#ACC7D1" stroke-width="1.7" stroke-miterlimit="10" stroke-linecap="round" stroke-linejoin="round"/>
<path d="M731.5 130L637.5 128C635.5 128 629.803 128.5 629.803 130.5V222.578C629.803 224.578 631.403 226.178 633.403 226.178H731.703C733.703 226.178 735.303 224.578 735.303 222.578V133C735.303 131 733.5 130 731.5 130Z" fill="white"/>
<path d="M729.203 125.078H635.903C632.503 125.078 629.803 127.778 629.803 131.178V138.978H735.203V131.178C735.303 127.878 732.503 125.078 729.203 125.078Z" fill="url(#paint23_linear_329_1261)"/>
<path d="M638.404 132.078C638.404 130.978 637.503 130.178 636.503 130.178C635.503 130.178 634.604 131.078 634.604 132.078C634.604 133.178 635.503 133.978 636.503 133.978C637.503 133.978 638.404 133.078 638.404 132.078ZM646.304 132.078C646.304 130.978 645.404 130.178 644.404 130.178C643.404 130.178 642.503 131.078 642.503 132.078C642.503 133.178 643.404 133.978 644.404 133.978C645.404 133.978 646.304 133.078 646.304 132.078ZM654.003 132.078C654.003 130.978 653.104 130.178 652.104 130.178C651.104 130.178 650.203 131.078 650.203 132.078C650.203 133.178 651.104 133.978 652.104 133.978C653.104 133.978 654.003 133.078 654.003 132.078Z" fill="white"/>
<path d="M637.303 147.378H679.903V196.978H637.303V147.378Z" fill="white"/>
<path d="M651.604 159.778L659.703 171.078L669.304 160.578M647.104 185.278L657.203 174.678H661.304L670.003 185.278" stroke="#B7CFFF" stroke-width="1.275" stroke-miterlimit="10" stroke-linecap="round" stroke-linejoin="round"/>
<path d="M661.898 179.769C666.091 178.782 668.691 174.583 667.704 170.39C666.718 166.196 662.518 163.597 658.325 164.583C654.132 165.57 651.532 169.769 652.519 173.962C653.505 178.156 657.704 180.755 661.898 179.769Z" fill="#B5CEFF"/>
<path d="M674.703 159.078C674.703 156.478 672.603 154.378 670.003 154.378C667.403 154.378 665.304 156.478 665.304 159.078C665.304 161.678 667.403 163.778 670.003 163.778C672.603 163.778 674.703 161.678 674.703 159.078ZM656.304 157.178C656.304 153.778 653.603 151.078 650.203 151.078C646.803 151.078 644.104 153.778 644.104 157.178C644.104 160.578 646.803 163.278 650.203 163.278C653.603 163.278 656.304 160.578 656.304 157.178ZM650.904 185.278C650.904 183.178 649.203 181.378 647.003 181.378C644.903 181.378 643.104 183.078 643.104 185.278C643.104 187.378 644.803 189.178 647.003 189.178C649.203 189.178 650.904 187.378 650.904 185.278ZM675.604 185.278C675.604 182.178 673.103 179.678 670.003 179.678C666.903 179.678 664.404 182.178 664.404 185.278C664.404 188.378 666.903 190.878 670.003 190.878C673.103 190.878 675.604 188.378 675.604 185.278Z" fill="#B5CEFF"/>
<path d="M684.703 170.878L691.503 163.778L697.703 170.878L710.103 152.878L716.703 170.378L725.703 158.478" stroke="#B5CEFF" stroke-width="1.275" stroke-miterlimit="10" stroke-linecap="round" stroke-linejoin="round"/>
<path d="M721.303 159.278L725.703 158.478L725.903 163.578" stroke="#CADEE5" stroke-width="1.275" stroke-miterlimit="10" stroke-linecap="round" stroke-linejoin="round"/>
<path d="M693.004 163.778C693.004 162.978 692.304 162.278 691.504 162.278C690.704 162.278 690.004 162.978 690.004 163.778C690.004 164.578 690.704 165.278 691.504 165.278C692.304 165.278 693.004 164.578 693.004 163.778ZM711.404 152.878C711.404 152.078 710.704 151.378 709.904 151.378C709.104 151.378 708.404 152.078 708.404 152.878C708.404 153.678 709.104 154.378 709.904 154.378C710.804 154.378 711.404 153.678 711.404 152.878Z" fill="#B2CCD3"/>
<path d="M716.902 171.578C717.731 171.578 718.402 170.907 718.402 170.078C718.402 169.25 717.731 168.578 716.902 168.578C716.074 168.578 715.402 169.25 715.402 170.078C715.402 170.907 716.074 171.578 716.902 171.578Z" fill="#B2CCD3"/>
<path d="M643.203 204.678H720.003M641.604 213.178H718.304" stroke="#B5CEFF" stroke-width="1.275" stroke-miterlimit="10" stroke-linecap="round" stroke-linejoin="round"/>
<path d="M294.403 115.478C294.403 115.478 276.803 133.678 272.903 144.878C272.603 145.678 273.503 146.378 274.203 145.878C277.703 143.578 285.903 136.878 298.003 118.978L294.403 115.478Z" fill="#7A164D"/>
<path d="M294.102 109.878L292.802 112.478C292.602 112.778 292.602 113.178 292.802 113.478C293.402 114.778 295.302 118.278 300.302 120.078C300.702 120.278 301.202 120.078 301.502 119.778L303.602 117.678C303.602 117.778 296.102 114.278 294.102 109.878Z" fill="#7A164D"/>
<path opacity="0.33" d="M294.102 109.878L292.802 112.478C292.602 112.778 292.602 113.178 292.802 113.478C293.402 114.778 295.302 118.278 300.302 120.078C300.702 120.278 301.202 120.078 301.502 119.778L303.602 117.678C303.602 117.778 296.102 114.278 294.102 109.878Z" fill="#7A164D"/>
<path d="M318.581 119.256C330.932 116.063 338.357 103.461 335.164 91.1098C331.97 78.7581 319.369 71.3337 307.017 74.5269C294.665 77.7201 287.241 90.3217 290.434 102.673C293.627 115.025 306.229 122.45 318.581 119.256Z" fill="url(#paint24_linear_329_1261)"/>
<path d="M331.756 98.1542C332.446 87.6839 324.517 78.6372 314.046 77.9478C303.576 77.2584 294.529 85.1875 293.84 95.6578C293.151 106.128 301.08 115.175 311.55 115.864C322.02 116.554 331.067 108.625 331.756 98.1542Z" fill="#BFC7EF"/>
<path d="M317.604 78.5784L294.304 92.6784C294.204 93.2784 294.104 93.8784 294.004 94.5784C293.804 95.8784 293.804 97.1784 293.904 98.4784L321.604 80.1784C320.304 79.4784 319.004 78.9784 317.604 78.5784ZM304.204 113.778L331.804 96.0784C331.604 91.7784 330.004 87.8784 327.404 84.7784L295.504 104.378C297.104 108.278 300.204 111.678 304.204 113.778ZM328.304 107.778C329.404 106.178 330.304 104.378 330.904 102.378L309.504 115.478C309.804 115.578 310.104 115.578 310.504 115.678C313.204 115.978 315.804 115.778 318.204 115.078L328.304 107.778Z" fill="#F1F8FF"/>
<path d="M705.504 226.778L708.004 204.178C696.104 204.278 686.504 213.978 686.504 225.878C686.504 237.878 696.204 247.578 708.204 247.578C720.204 247.578 729.904 237.878 729.904 225.878V225.378L705.504 226.778Z" fill="url(#paint25_linear_329_1261)"/>
<path d="M708.803 223.378L729.503 221.978C727.803 212.678 720.203 205.578 710.803 204.378L708.803 223.378Z" fill="url(#paint26_linear_329_1261)"/>
<path d="M341.904 251.678V235.378C341.904 232.878 339.904 230.878 337.404 230.878H279.504C277.004 230.878 275.004 232.878 275.004 235.378V265.978C275.004 268.478 277.004 270.478 279.504 270.478H337.404C339.904 270.478 341.904 268.478 341.904 265.978V251.678Z" fill="url(#paint27_linear_329_1261)"/>
<path d="M312.804 249.978C312.804 247.978 311.204 246.378 309.204 246.378C307.204 246.378 305.604 247.978 305.604 249.978C305.604 251.978 307.204 253.578 309.204 253.578C311.204 253.478 312.804 251.878 312.804 249.978ZM296.804 249.978C296.804 247.978 295.204 246.378 293.204 246.378C291.204 246.378 289.604 247.978 289.604 249.978C289.604 251.978 291.204 253.578 293.204 253.578C295.204 253.478 296.804 251.878 296.804 249.978ZM330.004 249.978C330.004 247.978 328.404 246.378 326.404 246.378C324.404 246.378 322.804 247.978 322.804 249.978C322.804 251.978 324.404 253.578 326.404 253.578C328.404 253.478 330.004 251.878 330.004 249.978Z" fill="white"/>
<defs>
<linearGradient id="paint0_linear_329_1261" x1="490" y1="-49" x2="490" y2="549" gradientUnits="userSpaceOnUse">
<stop offset="0.0239582" stop-color="#D84CEB"/>
<stop offset="1" stop-color="#7935D9"/>
</linearGradient>
<linearGradient id="paint1_linear_329_1261" x1="799" y1="461.055" x2="807.43" y2="461.055" gradientUnits="userSpaceOnUse">
<stop stop-color="white"/>
<stop offset="1" stop-color="white" stop-opacity="0.82"/>
</linearGradient>
<linearGradient id="paint2_linear_329_1261" x1="807.43" y1="470.528" x2="832.716" y2="470.528" gradientUnits="userSpaceOnUse">
<stop stop-color="white"/>
<stop offset="1" stop-color="white" stop-opacity="0.82"/>
</linearGradient>
<linearGradient id="paint3_linear_329_1261" x1="807.574" y1="451.543" x2="832.656" y2="451.543" gradientUnits="userSpaceOnUse">
<stop stop-color="white"/>
<stop offset="1" stop-color="white" stop-opacity="0.82"/>
</linearGradient>
<linearGradient id="paint4_linear_329_1261" x1="467.905" y1="65.3783" x2="467.905" y2="320.778" gradientUnits="userSpaceOnUse">
<stop stop-color="#B5BEFF"/>
<stop offset="1" stop-color="#7491FA"/>
</linearGradient>
<linearGradient id="paint5_linear_329_1261" x1="427.352" y1="126.878" x2="427.352" y2="167.178" gradientUnits="userSpaceOnUse">
<stop stop-color="#8E8C8C"/>
<stop offset="1" stop-color="white"/>
</linearGradient>
<linearGradient id="paint6_linear_329_1261" x1="386.502" y1="123.778" x2="381.499" y2="180.5" gradientUnits="userSpaceOnUse">
<stop stop-color="#F53434"/>
<stop offset="1" stop-color="#FFE1E1"/>
<stop offset="1" stop-color="#FFE1E1"/>
</linearGradient>
<linearGradient id="paint7_linear_329_1261" x1="372.999" y1="190" x2="440.499" y2="182.5" gradientUnits="userSpaceOnUse">
<stop stop-color="#3B9CF5"/>
<stop offset="1" stop-color="#E4E4FF"/>
</linearGradient>
<linearGradient id="paint8_linear_329_1261" x1="594.153" y1="247.378" x2="594.153" y2="370.378" gradientUnits="userSpaceOnUse">
<stop stop-color="#4385E3"/>
<stop offset="1" stop-color="#264D85"/>
</linearGradient>
<linearGradient id="paint9_linear_329_1261" x1="591.603" y1="247.378" x2="591.603" y2="369.378" gradientUnits="userSpaceOnUse">
<stop stop-color="#2663C0"/>
<stop offset="1" stop-color="#1A62CD"/>
</linearGradient>
<linearGradient id="paint10_linear_329_1261" x1="487.999" y1="327" x2="469.364" y2="428.478" gradientUnits="userSpaceOnUse">
<stop stop-color="#68063C"/>
<stop offset="1" stop-color="#B82A90"/>
</linearGradient>
<linearGradient id="paint11_linear_329_1261" x1="550.399" y1="297.078" x2="550.399" y2="431.978" gradientUnits="userSpaceOnUse">
<stop stop-color="#550531"/>
<stop offset="1" stop-color="#B00C66"/>
</linearGradient>
<linearGradient id="paint12_linear_329_1261" x1="534.946" y1="241.278" x2="534.946" y2="306.478" gradientUnits="userSpaceOnUse">
<stop stop-color="#F18A1E"/>
<stop offset="1" stop-color="#FFC07E"/>
</linearGradient>
<linearGradient id="paint13_linear_329_1261" x1="586.454" y1="228.778" x2="586.454" y2="323.078" gradientUnits="userSpaceOnUse">
<stop stop-color="#F78F22"/>
<stop offset="1" stop-color="#FFCF9E"/>
</linearGradient>
<linearGradient id="paint14_linear_329_1261" x1="624.202" y1="229.778" x2="624.202" y2="297.278" gradientUnits="userSpaceOnUse">
<stop stop-color="#EE8D27"/>
<stop offset="1" stop-color="#FFD3A5"/>
</linearGradient>
<linearGradient id="paint15_linear_329_1261" x1="514.776" y1="295.578" x2="514.776" y2="311.378" gradientUnits="userSpaceOnUse">
<stop stop-color="white"/>
<stop offset="0.84427" stop-color="#FFC4C4"/>
</linearGradient>
<linearGradient id="paint16_linear_329_1261" x1="582.116" y1="178.478" x2="582.116" y2="241.951" gradientUnits="userSpaceOnUse">
<stop stop-color="white"/>
<stop offset="0.84427" stop-color="#FFC4C4"/>
</linearGradient>
<linearGradient id="paint17_linear_329_1261" x1="559.5" y1="172.5" x2="596" y2="206" gradientUnits="userSpaceOnUse">
<stop stop-color="#A61566"/>
<stop offset="1" stop-color="#3F0023"/>
</linearGradient>
<linearGradient id="paint18_linear_329_1261" x1="576.542" y1="277.778" x2="576.542" y2="309.578" gradientUnits="userSpaceOnUse">
<stop stop-color="white"/>
<stop offset="0.84427" stop-color="#FFC4C4"/>
</linearGradient>
<linearGradient id="paint19_linear_329_1261" x1="487.784" y1="437.178" x2="487.784" y2="457.278" gradientUnits="userSpaceOnUse">
<stop stop-color="#17457D"/>
<stop offset="1" stop-color="#3781DB"/>
</linearGradient>
<linearGradient id="paint20_linear_329_1261" x1="335.364" y1="368.201" x2="384.473" y2="292.84" gradientUnits="userSpaceOnUse">
<stop offset="0.184024" stop-color="#03AB8D"/>
<stop offset="1" stop-color="#67FFD2"/>
</linearGradient>
<linearGradient id="paint21_linear_329_1261" x1="362.674" y1="403.378" x2="362.674" y2="456.378" gradientUnits="userSpaceOnUse">
<stop stop-color="#80084B"/>
<stop offset="1" stop-color="#EB2996"/>
</linearGradient>
<linearGradient id="paint22_linear_329_1261" x1="335.407" y1="376.965" x2="343.883" y2="340.603" gradientUnits="userSpaceOnUse">
<stop offset="0.184024" stop-color="#03AB8D"/>
<stop offset="1" stop-color="#67FFD2"/>
</linearGradient>
<linearGradient id="paint23_linear_329_1261" x1="682.504" y1="125.078" x2="682.504" y2="138.978" gradientUnits="userSpaceOnUse">
<stop stop-color="#E05353"/>
<stop offset="1" stop-color="#FFF5F5"/>
</linearGradient>
<linearGradient id="paint24_linear_329_1261" x1="307.017" y1="74.5269" x2="335" y2="118" gradientUnits="userSpaceOnUse">
<stop stop-color="#F50000"/>
<stop offset="1" stop-color="#FFA9A9"/>
</linearGradient>
<linearGradient id="paint25_linear_329_1261" x1="708.204" y1="204.178" x2="708.204" y2="247.578" gradientUnits="userSpaceOnUse">
<stop stop-color="#FF1C1C"/>
<stop offset="1" stop-color="#FFF5F5"/>
</linearGradient>
<linearGradient id="paint26_linear_329_1261" x1="719.153" y1="204.378" x2="719.153" y2="223.378" gradientUnits="userSpaceOnUse">
<stop stop-color="#FF3939"/>
<stop offset="1" stop-color="#FFE9E9"/>
</linearGradient>
<linearGradient id="paint27_linear_329_1261" x1="275.001" y1="251" x2="342.001" y2="251" gradientUnits="userSpaceOnUse">
<stop stop-color="#F93333"/>
<stop offset="1" stop-color="#FFEEEE"/>
</linearGradient>
<clipPath id="clip0_329_1261">
<rect width="160.567" height="38" fill="white" transform="translate(799 442)"/>
</clipPath>
</defs>
</svg>
