<svg width="980" height="500" viewBox="0 0 980 500" fill="none" xmlns="http://www.w3.org/2000/svg">
<rect width="980" height="500" fill="url(#paint0_radial_333_1821)"/>
<g clip-path="url(#clip0_333_1821)">
<path d="M848.688 477.15C847.638 477.181 846.599 476.917 845.691 476.387C844.86 475.875 844.194 475.133 843.775 474.251C843.312 473.258 843.084 472.171 843.107 471.076C843.084 469.979 843.312 468.892 843.775 467.898C844.194 467.015 844.86 466.273 845.691 465.762C846.599 465.232 847.638 464.967 848.688 464.998C849.89 464.954 851.072 465.308 852.051 466.005C852.958 466.686 853.624 467.638 853.952 468.723L851.983 469.267C851.794 468.566 851.388 467.942 850.824 467.485C850.206 467.035 849.452 466.811 848.688 466.852C847.998 466.826 847.316 467.009 846.731 467.378C846.199 467.743 845.79 468.261 845.558 468.863C845.282 469.575 845.146 470.333 845.157 471.097C845.14 471.859 845.274 472.617 845.549 473.327C845.785 473.932 846.199 474.45 846.737 474.813C847.323 475.181 848.006 475.364 848.697 475.338C849.459 475.372 850.208 475.143 850.821 474.691C851.384 474.233 851.79 473.609 851.98 472.909L853.952 473.425C853.627 474.509 852.965 475.461 852.063 476.143C851.08 476.843 849.894 477.197 848.688 477.15Z" fill="white"/>
<path d="M856.094 476.91V465.239H860.915C861.031 465.239 861.176 465.239 861.354 465.239C861.52 465.247 861.684 465.264 861.847 465.292C862.455 465.368 863.032 465.6 863.523 465.967C863.959 466.308 864.298 466.759 864.503 467.274C864.72 467.833 864.828 468.429 864.821 469.029C864.844 469.901 864.593 470.759 864.102 471.48C863.84 471.832 863.508 472.126 863.127 472.344C862.747 472.562 862.325 472.7 861.889 472.748L861.054 472.819H858.048V476.91H856.094ZM858.048 471.01H860.834C860.944 471.01 861.063 471.01 861.2 470.993C861.326 470.984 861.45 470.962 861.571 470.927C861.864 470.866 862.132 470.717 862.337 470.5C862.522 470.3 862.658 470.061 862.736 469.802C862.811 469.555 862.85 469.299 862.851 469.041C862.85 468.781 862.811 468.523 862.736 468.275C862.658 468.014 862.522 467.774 862.337 467.574C862.131 467.358 861.863 467.21 861.571 467.149C861.45 467.117 861.325 467.098 861.2 467.09C861.063 467.09 860.944 467.09 860.834 467.09H858.048V471.01ZM862.801 476.91L860.502 472.157L862.486 471.72L865.014 476.907L862.801 476.91Z" fill="white"/>
<path d="M867.164 476.91V465.239H874.7V467.072H869.116V469.947H873.726V471.78H869.116V475.077H874.7V476.91H867.164Z" fill="white"/>
<path d="M876.207 476.91L879.884 465.239H882.745L886.425 476.91H884.414L881.075 466.439H881.515L878.218 476.91H876.207ZM878.257 474.379V472.558H884.381V474.379H878.257Z" fill="white"/>
<path d="M890.088 476.91V467.072H886.312V465.239H895.818V467.072H892.039V476.91H890.088Z" fill="white"/>
<path d="M897.645 476.91V465.239H899.596V476.91H897.645Z" fill="white"/>
<path d="M905.044 476.91L901.352 465.239H903.36L906.44 475.012L909.559 465.239H911.579L907.889 476.91H905.044Z" fill="white"/>
<path d="M913.156 476.91V465.239H920.692V467.072H915.111V469.947H919.721V471.78H915.111V475.077H920.692V476.91H913.156Z" fill="white"/>
<path d="M923.16 476.91V465.239H925.112V476.91H923.16Z" fill="white"/>
<path d="M930.728 476.91V467.072H926.953V465.239H936.458V467.072H932.68V476.91H930.728Z" fill="white"/>
<path d="M938.125 476.91V465.239H945.661V467.072H940.091V469.947H944.701V471.78H940.091V475.077H945.673V476.91H938.125Z" fill="white"/>
<path d="M947.98 476.91V465.239H949.739L953.773 473.506L957.809 465.239H959.565V476.91H957.744V469.43L954.162 476.91H953.384L949.819 469.43V476.91H947.98Z" fill="white"/>
<path d="M815.86 480.789L807.43 475.92V485.654L815.86 480.789Z" fill="white" fill-opacity="0.48"/>
<path d="M832.715 471.055L824.285 466.19V475.921L832.715 471.055Z" fill="white" fill-opacity="0.47"/>
<path d="M815.86 461.321L807.43 456.456V466.189L815.86 461.321Z" fill="white" fill-opacity="0.48"/>
<path d="M807.43 456.456L800.687 460.35C800.174 460.645 799.747 461.07 799.451 461.583C799.155 462.096 798.999 462.677 799 463.27V478.84C799 479.433 799.155 480.015 799.452 480.528C799.748 481.041 800.174 481.467 800.687 481.763L807.43 485.654V456.456Z" fill="url(#paint1_linear_333_1821)"/>
<path d="M832.716 478.84V471.055L807.43 485.654L814.172 489.549C814.685 489.845 815.266 490.001 815.858 490.001C816.45 490.001 817.031 489.845 817.544 489.549L831.032 481.763C831.545 481.467 831.97 481.04 832.266 480.527C832.561 480.014 832.717 479.433 832.716 478.84Z" fill="url(#paint2_linear_333_1821)"/>
<path d="M817.608 452.594C817.1 452.301 816.523 452.146 815.936 452.146C815.349 452.146 814.772 452.301 814.264 452.594L807.574 456.456L832.656 470.939V463.216C832.656 462.629 832.502 462.052 832.208 461.543C831.915 461.034 831.492 460.611 830.984 460.317L817.608 452.594Z" fill="url(#paint3_linear_333_1821)"/>
</g>
<path d="M426.528 447.284C426.522 447.925 426.265 448.538 425.812 448.991C425.359 449.444 424.746 449.701 424.105 449.706H384.236C383.595 449.701 382.982 449.444 382.529 448.991C382.075 448.538 381.818 447.925 381.812 447.284C381.818 446.643 382.075 446.03 382.528 445.576C382.982 445.123 383.595 444.866 384.236 444.861H424.105C424.425 444.854 424.743 444.912 425.04 445.032C425.337 445.151 425.606 445.329 425.833 445.556C426.059 445.782 426.237 446.052 426.357 446.349C426.476 446.646 426.534 446.964 426.528 447.284Z" fill="white"/>
<path d="M333.488 161.908C346.153 136.907 346.373 112.126 336.681 91.9706C326.989 71.926 307.276 56.6173 279.961 51C254.851 101.002 278.86 150.674 333.488 161.908Z" fill="url(#paint4_linear_333_1821)"/>
<path d="M330.266 156.193L283.898 59.7136C283.898 59.6033 283.898 59.4935 284.009 59.4935C284.12 59.4935 284.229 59.4935 284.229 59.6033L331.037 155.863C331.061 155.914 331.074 155.969 331.076 156.025C331.078 156.081 331.069 156.137 331.049 156.19C331.029 156.242 330.999 156.291 330.96 156.331C330.921 156.372 330.874 156.404 330.822 156.426C330.771 156.448 330.715 156.46 330.659 156.46C330.603 156.46 330.547 156.449 330.495 156.428C330.443 156.406 330.396 156.374 330.357 156.334C330.318 156.293 330.287 156.245 330.266 156.193Z" fill="white"/>
<path d="M303.725 100.465C301.442 98.747 298.918 97.3739 296.236 96.3897C293.595 95.4052 290.794 94.9197 287.976 94.9578C287.862 94.9537 287.754 94.9055 287.674 94.8234C287.595 94.7412 287.551 94.6315 287.551 94.5173C287.551 94.4032 287.595 94.2935 287.674 94.2113C287.754 94.1292 287.862 94.081 287.976 94.0769C289.456 94.0596 290.934 94.2072 292.381 94.5171C293.81 94.8409 295.21 95.2829 296.566 95.8387C299.201 96.9578 301.622 98.5226 303.725 100.464C303.836 100.464 303.836 100.354 303.725 100.464V100.465ZM317.933 129.761C317.864 126.858 318.236 123.962 319.034 121.17C319.432 119.771 319.948 118.408 320.576 117.095C321.241 115.785 322.015 114.532 322.889 113.35C322.999 113.13 323.329 113.13 323.55 113.24C323.77 113.35 323.77 113.681 323.659 113.901C322.728 114.986 321.916 116.167 321.237 117.425C320.574 118.659 320.022 119.949 319.585 121.28C318.664 123.976 318.181 126.802 318.153 129.651C318.043 129.761 318.043 129.761 317.933 129.761ZM322.889 140.004C320.606 138.286 318.082 136.913 315.399 135.928C312.759 134.944 309.958 134.458 307.14 134.497C307.025 134.492 306.917 134.444 306.838 134.362C306.759 134.28 306.715 134.17 306.715 134.056C306.715 133.942 306.759 133.832 306.838 133.75C306.917 133.668 307.025 133.62 307.14 133.616C308.62 133.598 310.097 133.746 311.545 134.056C312.974 134.38 314.374 134.822 315.73 135.377C318.364 136.497 320.786 138.061 322.889 140.003V140.004ZM296.566 85.486C296.498 82.5833 296.869 79.6871 297.668 76.8956C298.066 75.4963 298.582 74.1331 299.209 72.8205C299.875 71.51 300.648 70.2574 301.522 69.0757C301.632 68.8557 301.963 68.8557 302.183 68.9654C302.403 69.0752 302.404 69.4062 302.293 69.6262C301.362 70.7109 300.549 71.8926 299.87 73.1509C299.208 74.3848 298.655 75.6746 298.218 77.0053C297.298 79.7012 296.814 82.527 296.786 85.3756C296.676 85.5963 296.676 85.5963 296.566 85.486Z" fill="white"/>
<path d="M333.574 162.031C357.914 148.153 371.791 127.557 374.765 105.421C377.738 83.2839 369.698 59.8245 349.985 39.9999C301.524 67.8644 294.145 122.492 333.574 162.03V162.031Z" fill="url(#paint5_linear_333_1821)"/>
<path d="M334.014 155.312L348.552 49.2512C348.552 49.1409 348.662 49.0311 348.772 49.1409C348.882 49.1409 348.993 49.2512 348.882 49.3616L334.895 155.532C334.895 155.753 334.675 155.973 334.454 155.863C334.324 155.847 334.204 155.78 334.122 155.677C334.04 155.574 334.001 155.443 334.014 155.312Z" fill="white"/>
<path d="M342.715 94.1871C341.346 90.1212 339.002 86.4529 335.886 83.5034C334.861 82.5648 333.755 81.7173 332.582 80.9705C332.362 80.8602 332.362 80.5298 332.472 80.3098C332.582 80.0897 332.913 80.0891 333.133 80.1994C334.346 81.0605 335.488 82.0181 336.547 83.0627C337.583 84.1004 338.506 85.2449 339.301 86.477C340.92 88.8889 342.181 91.5229 343.045 94.2968C342.825 94.1865 342.825 94.1871 342.715 94.1871ZM338.309 126.456C339.846 124.021 341.739 121.831 343.926 119.958C346.134 118.046 348.672 116.554 351.416 115.553C351.517 115.514 351.63 115.515 351.73 115.557C351.83 115.599 351.91 115.679 351.953 115.779C351.996 115.879 351.998 115.992 351.96 116.093C351.921 116.195 351.844 116.278 351.746 116.324C350.389 116.742 349.064 117.257 347.781 117.866C346.541 118.533 345.362 119.307 344.256 120.179C342.054 122.051 340.06 124.156 338.309 126.456ZM336.877 137.691C335.509 133.625 333.164 129.956 330.049 127.007C329.023 126.068 327.918 125.221 326.745 124.474C326.525 124.364 326.525 124.033 326.635 123.813C326.745 123.593 327.075 123.593 327.296 123.703C328.509 124.564 329.65 125.522 330.71 126.567C331.745 127.604 332.668 128.749 333.463 129.981C335.083 132.393 336.344 135.027 337.208 137.8C336.988 137.691 336.988 137.8 336.877 137.691ZM344.917 77.7763C346.454 75.3412 348.347 73.1507 350.534 71.2781C352.742 69.3663 355.28 67.8736 358.024 66.8731C358.074 66.8492 358.13 66.8358 358.186 66.8337C358.242 66.8316 358.298 66.8408 358.351 66.8608C358.403 66.8809 358.451 66.9112 358.492 66.9502C358.533 66.9891 358.565 67.0359 358.587 67.0876C358.609 67.1393 358.621 67.1949 358.621 67.2512C358.621 67.3075 358.61 67.3632 358.588 67.4151C358.567 67.467 358.535 67.514 358.494 67.5532C358.454 67.5925 358.406 67.6233 358.354 67.6437C356.997 68.0614 355.672 68.5769 354.389 69.1859C353.149 69.8531 351.97 70.627 350.864 71.4987C348.607 73.3124 346.606 75.4243 344.917 77.7763C344.917 77.8866 345.028 77.8866 344.917 77.7763Z" fill="white"/>
<path d="M333.57 161.92C328.283 134.497 313.304 114.562 293.37 104.65C273.436 94.7373 248.545 94.6275 223.434 106.852C234.006 161.7 283.348 186.371 333.57 161.92Z" fill="url(#paint6_linear_333_1821)"/>
<path d="M327.404 159.277L231.806 111.148C231.695 111.148 231.695 111.037 231.695 110.927C231.695 110.817 231.806 110.817 231.916 110.817L327.734 158.506C327.833 158.553 327.909 158.635 327.948 158.737C327.987 158.839 327.984 158.951 327.941 159.051C327.898 159.151 327.818 159.231 327.718 159.273C327.618 159.315 327.505 159.316 327.404 159.277Z" fill="white"/>
<path d="M272.338 131.303C269.46 131.302 266.599 131.748 263.858 132.624C262.499 133.081 261.174 133.633 259.893 134.276C258.653 134.944 257.474 135.717 256.368 136.589C256.266 136.66 256.14 136.688 256.017 136.667C255.894 136.646 255.785 136.577 255.712 136.475C255.64 136.374 255.61 136.248 255.63 136.125C255.65 136.002 255.717 135.892 255.818 135.818C256.999 134.944 258.252 134.171 259.562 133.505C260.875 132.878 262.238 132.362 263.637 131.964C266.433 131.194 269.33 130.86 272.228 130.972C272.287 131.074 272.324 131.186 272.338 131.303ZM301.414 145.951C299.549 143.71 298.061 141.18 297.009 138.461C296.439 137.12 296.032 135.715 295.797 134.276C295.482 132.83 295.334 131.351 295.357 129.871C295.355 129.812 295.364 129.753 295.386 129.697C295.407 129.642 295.439 129.592 295.48 129.549C295.521 129.507 295.57 129.473 295.625 129.45C295.679 129.426 295.738 129.414 295.797 129.414C295.856 129.414 295.915 129.426 295.969 129.45C296.024 129.473 296.073 129.507 296.114 129.549C296.155 129.592 296.187 129.642 296.209 129.697C296.23 129.753 296.24 129.812 296.238 129.871C296.198 131.269 296.272 132.669 296.458 134.056C296.671 135.44 297.002 136.803 297.449 138.131C298.413 140.904 299.746 143.534 301.414 145.951H301.414ZM311.547 151.017C308.669 151.016 305.808 151.462 303.066 152.339C301.707 152.795 300.382 153.347 299.101 153.991C297.862 154.658 296.682 155.432 295.577 156.303C295.471 156.366 295.347 156.39 295.226 156.37C295.105 156.349 294.995 156.287 294.916 156.194C294.696 155.973 294.806 155.753 295.026 155.533C296.208 154.659 297.46 153.885 298.771 153.22C300.084 152.592 301.447 152.076 302.846 151.678C305.642 150.908 308.539 150.574 311.436 150.687C311.657 150.907 311.657 150.907 311.547 151.017ZM257.47 123.923C255.604 121.683 254.116 119.153 253.064 116.434C252.495 115.093 252.088 113.687 251.853 112.249C251.537 110.802 251.39 109.324 251.412 107.844C251.417 107.73 251.465 107.622 251.547 107.542C251.629 107.463 251.739 107.419 251.853 107.419C251.967 107.419 252.077 107.463 252.159 107.542C252.241 107.622 252.289 107.73 252.293 107.844C252.254 109.243 252.327 110.642 252.513 112.029C252.727 113.413 253.058 114.776 253.505 116.104C254.445 118.887 255.781 121.52 257.469 123.924L257.47 123.923Z" fill="white"/>
<path d="M299.431 154.982H221.785C218.66 154.986 215.665 156.228 213.456 158.438C211.246 160.647 210.004 163.642 210 166.767V446.072C210.004 449.196 211.246 452.192 213.456 454.401C215.665 456.61 218.66 457.853 221.785 457.856H299.431V154.982Z" fill="#3777DA"/>
<path d="M580.167 166.767V446.072C580.163 449.196 578.921 452.191 576.711 454.401C574.502 456.61 571.507 457.853 568.383 457.856H236.542C233.418 457.853 230.423 456.61 228.213 454.401C226.004 452.192 224.761 449.196 224.758 446.072V166.767C224.761 163.642 226.004 160.647 228.213 158.438C230.423 156.228 233.418 154.986 236.542 154.982H568.383C571.507 154.986 574.502 156.229 576.711 158.438C578.921 160.647 580.163 163.642 580.167 166.767Z" fill="#3D84F2"/>
<path d="M242.156 436.269C240.199 436.269 238.323 435.492 236.939 434.108C235.555 432.724 234.777 430.847 234.777 428.89V176.899C234.777 174.942 235.555 173.065 236.939 171.681C238.323 170.298 240.199 169.52 242.156 169.52H562.653C564.61 169.52 566.487 170.298 567.87 171.681C569.254 173.065 570.032 174.942 570.032 176.899V428.89C570.032 430.847 569.254 432.724 567.87 434.108C566.487 435.492 564.61 436.269 562.653 436.269H242.156Z" fill="white"/>
<path d="M607.593 456.204C607.592 456.617 607.666 457.028 607.813 457.415C607.865 457.587 607.965 457.741 608.102 457.858C608.239 457.975 608.406 458.05 608.584 458.076H634.356C634.438 458.077 634.52 458.06 634.595 458.026C634.67 457.991 634.737 457.941 634.789 457.877C634.842 457.814 634.88 457.739 634.9 457.659C634.921 457.579 634.923 457.496 634.906 457.415L633.915 453.23L630.941 440.344C630.899 440.146 630.787 439.97 630.625 439.849C630.463 439.728 630.262 439.669 630.061 439.684L621.249 440.565C620.809 440.565 620.589 440.895 620.478 441.335C620.369 442.987 619.597 447.173 613.099 449.045C608.143 450.587 607.482 454.001 607.593 456.204Z" fill="url(#paint7_linear_333_1821)"/>
<path d="M616.512 447.834C619.926 445.741 620.476 442.878 620.476 441.556C620.474 441.455 620.492 441.353 620.53 441.258C620.568 441.164 620.625 441.078 620.697 441.006C620.769 440.933 620.855 440.877 620.95 440.839C621.044 440.801 621.146 440.783 621.248 440.785L630.059 439.904C630.261 439.889 630.461 439.948 630.623 440.069C630.785 440.191 630.897 440.367 630.94 440.565L632.702 447.944H616.512L616.512 447.834Z" fill="#E44000"/>
<path d="M642.71 444.322C645.904 439.366 649.979 429.564 647.336 419.652C643.261 403.903 658.35 389.695 658.35 389.695C658.35 389.695 708.131 395.642 724.101 387.602L687.536 357.976C687.536 357.976 651.191 351.478 640.177 362.051C630.925 370.862 614.956 426.811 610 444.322H642.71Z" fill="url(#paint8_linear_333_1821)"/>
<path d="M669.707 333.513V334.834C669.716 334.981 669.693 335.128 669.641 335.266C669.589 335.404 669.508 335.529 669.404 335.633C669.3 335.737 669.175 335.818 669.037 335.87C668.899 335.922 668.752 335.945 668.605 335.936H597.568C597.37 335.937 597.174 335.887 597.001 335.79C596.827 335.694 596.681 335.554 596.577 335.385L580.277 303.886C580.2 303.721 580.166 303.538 580.178 303.355C580.191 303.173 580.249 302.997 580.348 302.843C580.447 302.689 580.583 302.562 580.744 302.475C580.905 302.388 581.085 302.343 581.268 302.344H629.398C629.596 302.343 629.792 302.393 629.965 302.49C630.139 302.586 630.285 302.726 630.389 302.895L644.376 331.751C644.48 331.92 644.626 332.059 644.799 332.156C644.973 332.252 645.168 332.302 645.367 332.301H668.606C668.901 332.345 669.172 332.49 669.373 332.711C669.573 332.931 669.691 333.215 669.707 333.513Z" fill="url(#paint9_linear_333_1821)"/>
<path d="M734.8 286.594L735.791 279.986C735.791 279.986 723.016 279.215 722.796 275.251C722.685 273.378 723.787 243.201 741.849 246.836C759.911 250.58 749.118 273.928 749.118 273.928L747.796 290.339C746.805 293.753 733.809 289.898 734.8 286.594Z" fill="url(#paint10_linear_333_1821)"/>
<path d="M735.238 283.07C738.102 282.629 742.507 278.775 742.507 278.775C739.754 279.876 735.789 279.986 735.789 279.986L735.238 283.07Z" fill="#F1C0BA"/>
<path d="M723.013 245.954C719.379 258.179 742.727 261.813 742.507 262.364C742.397 262.915 741.516 270.184 742.727 270.184C743.939 270.294 744.27 263.245 748.454 265.338C752.639 267.43 747.904 271.615 746.362 274.809C744.821 278.004 748.454 280.977 748.454 280.977C748.454 280.977 755.503 282.299 756.714 274.7C757.375 270.514 760.79 263.906 760.46 254.434C760.129 245.073 750.217 241.989 742.728 244.742C735.348 247.496 726.648 233.729 723.013 245.954Z" fill="url(#paint11_linear_333_1821)"/>
<path d="M761.231 458.076C760.68 458.064 760.148 457.876 759.712 457.539C759.275 457.202 758.959 456.734 758.808 456.204L742.288 391.554C742.196 391.234 742.168 390.899 742.206 390.569C742.245 390.238 742.348 389.918 742.512 389.628C742.675 389.338 742.894 389.083 743.156 388.878C743.419 388.673 743.719 388.523 744.04 388.435C744.361 388.348 744.697 388.325 745.027 388.368C745.357 388.411 745.675 388.519 745.963 388.687C746.251 388.854 746.503 389.077 746.704 389.342C746.904 389.607 747.051 389.91 747.134 390.233L763.654 454.883C763.821 455.525 763.729 456.207 763.4 456.783C763.071 457.359 762.53 457.784 761.892 457.967C761.684 458.056 761.457 458.094 761.231 458.076ZM696.141 458.076C696.692 458.064 697.224 457.876 697.66 457.539C698.096 457.202 698.413 456.734 698.564 456.204L715.084 391.554C715.248 390.915 715.154 390.237 714.823 389.667C714.491 389.096 713.949 388.679 713.312 388.505C712.676 388.332 711.996 388.416 711.421 388.739C710.846 389.062 710.421 389.599 710.238 390.233L693.718 454.883C693.552 455.525 693.643 456.207 693.972 456.783C694.301 457.359 694.842 457.784 695.48 457.967C695.688 458.056 695.915 458.094 696.141 458.076Z" fill="url(#paint12_linear_333_1821)"/>
<path d="M649.44 456.204C649.439 456.617 649.514 457.028 649.66 457.415C649.713 457.587 649.813 457.741 649.95 457.858C650.086 457.975 650.253 458.05 650.432 458.076H676.203C676.286 458.077 676.368 458.06 676.443 458.026C676.518 457.992 676.584 457.941 676.637 457.878C676.69 457.814 676.728 457.74 676.748 457.66C676.769 457.579 676.771 457.496 676.754 457.415L675.763 453.23L672.79 440.344C672.747 440.146 672.635 439.97 672.473 439.849C672.311 439.727 672.11 439.669 671.908 439.684L663.097 440.565C662.657 440.565 662.436 440.895 662.327 441.335C662.216 442.987 661.445 447.173 654.947 449.045C649.991 450.587 649.331 454.001 649.44 456.204Z" fill="url(#paint13_linear_333_1821)"/>
<path d="M658.367 447.834C661.781 445.741 662.332 442.878 662.332 441.557C662.329 441.455 662.348 441.353 662.385 441.259C662.423 441.164 662.48 441.078 662.552 441.006C662.624 440.934 662.71 440.877 662.805 440.839C662.899 440.801 663.001 440.783 663.103 440.785L671.914 439.904C672.116 439.889 672.316 439.948 672.478 440.069C672.64 440.191 672.753 440.367 672.795 440.565L674.557 447.944H658.367V447.834Z" fill="#E44000"/>
<path d="M716.186 353.997C716.186 353.997 658.474 348.821 649.663 359.835C641.734 369.747 647.681 432.414 648.893 444.529H680.281C682.044 442.326 688.762 432.194 682.264 417.987C674.775 401.686 674.445 381.311 674.445 381.311C674.445 381.311 732.045 392.985 746.253 384.725C753.632 377.457 723.565 346.728 716.186 353.997Z" fill="url(#paint14_linear_333_1821)"/>
<path d="M709.137 354.218C715.194 369.416 729.182 376.906 755.945 378.337C755.945 378.337 759.799 376.024 760.46 370.298C760.79 367.985 760.57 365.121 759.359 361.597C755.284 349.372 759.249 343.314 761.892 333.842C767.399 313.798 762.993 299.921 752.861 289.788C743.61 280.537 726.098 286.044 723.234 301.022C722.991 302.477 722.917 303.955 723.014 305.428C725.217 343.094 709.137 354.218 709.137 354.218Z" fill="url(#paint15_linear_333_1821)"/>
<path d="M709.137 354.218C715.194 369.416 729.182 376.906 755.945 378.337C755.945 378.337 759.799 376.024 760.46 370.298C757.707 369.527 754.733 369.857 751.87 369.857C743.499 369.747 735.019 366.112 729.622 359.615C724.336 353.117 722.464 343.645 725.657 335.825C728.08 329.878 733.036 325.472 737.332 320.627C741.627 315.891 745.482 310.054 745.261 303.665C745.235 302.201 744.92 300.757 744.334 299.415C743.749 298.073 742.903 296.86 741.847 295.846C739.644 293.864 736.12 292.762 734.138 295.295C731.604 298.379 728.521 299.26 724.776 300.361C724.225 300.472 723.675 300.692 723.234 300.802C722.991 302.257 722.917 303.735 723.014 305.208C725.217 343.094 709.137 354.218 709.137 354.218Z" fill="#9148CF" fill-opacity="0.83"/>
<path d="M702.752 394.088H745.265C751.102 393.427 755.617 391.114 758.591 387.259C763.988 380.321 763.547 369.858 762.446 360.606C760.794 346.729 769.384 331.641 769.495 331.42C770.596 329.438 769.825 327.015 767.953 325.693C760.353 320.517 740.639 337.257 742.622 353.888C743.392 360.496 744.053 369.747 740.419 374.373C738.877 376.355 736.343 377.567 732.93 378.007C732.93 378.007 699.118 377.898 698.567 389.902C698.557 390.455 698.659 391.003 698.866 391.515C699.073 392.027 699.381 392.492 699.771 392.883C700.162 393.273 700.627 393.581 701.139 393.788C701.651 393.995 702.2 394.097 702.752 394.088Z" fill="url(#paint16_linear_333_1821)"/>
<path d="M668.825 335.385L668.494 326.905C668.494 326.905 652.414 316.552 652.635 329.328C652.855 341.993 668.825 335.385 668.825 335.385Z" fill="url(#paint17_linear_333_1821)"/>
<path d="M666.734 335.935H708.806C711.491 335.716 714.055 334.721 716.185 333.072C722.903 327.896 737.882 315.891 742.508 309.283C746.473 303.556 745.812 296.066 740.856 292.652C736.561 289.678 731.384 287.806 726.869 292.322C721.472 297.718 705.502 320.186 705.502 320.186L668.606 324.702L666.734 335.935Z" fill="url(#paint18_linear_333_1821)"/>
<path d="M563.781 335.894H721.386V345.696H563.781V335.894Z" fill="url(#paint19_linear_333_1821)"/>
<path d="M570.574 345.72H577.953V458.059H570.574V345.72ZM706.766 345.72H714.145V458.059H706.766V345.72Z" fill="url(#paint20_linear_333_1821)"/>
<path d="M259.668 202.75C259.668 197.779 263.697 193.75 268.668 193.75H544.842C549.812 193.75 553.842 197.779 553.842 202.75V341.253C553.842 346.224 549.812 350.253 544.842 350.253H268.668C263.697 350.253 259.668 346.224 259.668 341.253V202.75Z" fill="url(#paint21_linear_333_1821)"/>
<path d="M358.464 254.766C352.517 252.343 346.459 249.479 342.163 244.743C334.454 236.373 333.793 223.046 338.529 212.693C343.265 202.341 352.406 194.522 362.429 189.124C369.367 185.38 377.407 182.076 381.042 175.137C384.677 168.199 383.024 159.828 384.125 152.119C385.887 140.334 395.249 129.871 406.814 127.118C418.488 124.364 431.594 129.541 437.982 139.783C441.727 145.841 443.048 153.22 442.718 160.379C442.387 167.538 440.625 174.476 438.423 181.305C433.339 197.562 426.429 213.191 417.827 227.892C413.526 235.234 408.82 242.331 403.73 249.149C400.426 253.664 394.258 264.788 388.311 264.898C384.015 265.008 378.068 262.034 373.883 260.603C368.706 258.73 363.53 256.858 358.464 254.766Z" fill="url(#paint22_linear_333_1821)"/>
<path d="M456.155 350.143C453.401 337.477 445.912 305.648 438.643 298.489H372.892C372.892 298.489 359.676 328.226 354.059 350.143H456.155Z" fill="url(#paint23_linear_333_1821)"/>
<path d="M660.679 139.562V233.619C660.68 234.299 660.547 234.972 660.287 235.6C660.027 236.229 659.645 236.8 659.165 237.28C658.684 237.761 658.113 238.142 657.484 238.402C656.856 238.662 656.183 238.795 655.503 238.795H508.251C507.571 238.795 506.897 238.662 506.269 238.402C505.641 238.142 505.07 237.761 504.589 237.28C504.108 236.8 503.727 236.229 503.467 235.6C503.207 234.972 503.073 234.299 503.074 233.619V139.562C503.073 138.882 503.207 138.209 503.467 137.58C503.727 136.952 504.108 136.381 504.589 135.9C505.069 135.419 505.64 135.038 506.269 134.778C506.897 134.518 507.571 134.385 508.251 134.386H655.392C656.777 134.38 658.108 134.92 659.097 135.889C660.087 136.858 660.655 138.178 660.678 139.562H660.679Z" fill="url(#paint24_linear_333_1821)"/>
<path d="M507.918 197.053C507.918 197.053 512.324 196.503 512.434 203.772C512.544 210.931 504.063 211.592 504.063 211.592L494.922 200.689C494.922 200.689 495.032 187.912 498.777 188.353C502.411 188.793 500.099 194.3 500.099 194.3C500.099 194.3 515.958 179.762 517.5 184.828C519.042 189.784 507.918 197.053 507.918 197.053Z" fill="url(#paint25_linear_333_1821)"/>
<path d="M503.875 211.538C503.875 211.538 484.271 235.327 470.504 250.086C465.218 255.813 460.041 259.557 455.966 259.337C434.269 257.575 427 226.076 427 226.076L429.533 213.3L432.727 197C436.913 197.55 452.441 204.269 460.592 230.812L494.734 200.634L503.875 211.538Z" fill="url(#paint26_linear_333_1821)"/>
<path d="M470.692 250.14C465.405 255.867 460.229 259.612 456.153 259.391C434.456 257.629 427.188 226.13 427.188 226.13L429.721 213.354C431.211 211.289 433.404 209.84 435.888 209.279C442.496 207.848 446.351 214.345 446.461 219.963C446.571 225.249 446.021 230.425 447.122 235.602C448.003 239.787 449.876 243.862 453.18 246.505C454.694 247.73 456.441 248.636 458.315 249.166C460.189 249.696 462.152 249.84 464.083 249.589C466.396 249.258 469.149 248.598 470.691 250.14H470.692Z" fill="#EC8400"/>
<path d="M439.742 298.599C439.742 302.014 414.3 303.335 394.365 302.564C381.7 302.124 371.347 300.692 371.347 298.49C372.338 290.56 374.211 280.648 373.22 272.828C372.228 264.898 367.162 238.795 368.373 220.293C368.814 213.905 370.025 208.398 372.338 204.984C381.92 190.997 429.499 191.878 440.843 200.689C452.738 209.94 440.733 255.096 438.751 284.061C438.535 288.929 438.868 293.806 439.742 298.599Z" fill="url(#paint27_linear_333_1821)"/>
<path d="M399.762 295.296C398.671 298.171 396.802 300.688 394.366 302.565C381.7 302.124 371.347 300.693 371.347 298.49C372.338 290.56 374.211 280.648 373.22 272.828C372.228 264.899 367.162 238.796 368.373 220.293C371.035 217.83 373.83 215.514 376.744 213.355C380.929 210.271 383.021 207.848 387.316 211.813C390.621 214.786 393.705 218.531 394.586 222.937C396.899 234.281 384.674 243.972 384.784 255.537C384.894 262.806 389.85 268.974 394.035 274.921C398.331 280.978 402.186 288.357 399.762 295.296Z" fill="#EC8400"/>
<path d="M418.047 198.045L418.157 186.041C418.157 186.041 429.501 186.481 432.144 182.957C434.678 179.653 440.625 138.352 422.122 137.801C395.689 137.03 390.513 157.075 392.825 164.894C395.029 172.714 398.333 178.221 399.764 182.846C400.755 186.481 400.535 197.825 400.535 197.825C400.315 201.46 417.937 201.79 418.047 198.045" fill="url(#paint28_linear_333_1821)"/>
<path d="M406.263 162.471C405.712 162.471 404.17 152.008 398.443 157.185C393.266 161.811 401.527 170.181 401.527 170.181C406.483 178.331 400.536 195.512 400.536 195.512C400.536 195.512 394.258 189.895 390.624 182.406C386.989 174.916 386.218 154.983 395.8 140.113C402.849 129.21 433.246 131.743 435.118 143.308C436.88 154.762 406.923 162.471 406.262 162.471L406.263 162.471Z" fill="url(#paint29_linear_333_1821)"/>
<path d="M379.464 199.695C361.952 205.202 344 245.071 344 263.243C344 274.368 371.975 323.488 371.975 323.488L381.116 314.677L368.671 264.786C368.671 264.786 382.878 236.15 386.733 226.128C389.046 219.74 395.874 194.519 379.464 199.695L379.464 199.695Z" fill="url(#paint30_linear_333_1821)"/>
<path d="M380.708 314.679C380.708 314.679 405.818 336.927 390.62 343.645C375.421 350.363 371.566 323.601 371.566 323.601L380.708 314.679Z" fill="url(#paint31_linear_333_1821)"/>
<path d="M298.441 363.469V393.537C298.435 394.178 298.178 394.791 297.725 395.244C297.272 395.697 296.659 395.954 296.018 395.96H261.986C261.345 395.954 260.732 395.697 260.279 395.244C259.825 394.791 259.568 394.178 259.562 393.537V363.469C259.568 362.829 259.825 362.215 260.278 361.762C260.732 361.309 261.345 361.052 261.986 361.046H296.128C296.751 361.075 297.339 361.343 297.77 361.794C298.2 362.246 298.441 362.846 298.44 363.469H298.441Z" fill="url(#paint32_linear_333_1821)"/>
<path d="M553.734 380.21C553.737 380.443 553.693 380.673 553.606 380.888C553.518 381.104 553.389 381.299 553.224 381.463C553.06 381.627 552.865 381.757 552.649 381.845C552.434 381.932 552.204 381.976 551.972 381.973H309.672C309.21 381.964 308.77 381.775 308.446 381.446C308.123 381.116 307.941 380.673 307.941 380.211C307.941 379.749 308.123 379.305 308.446 378.976C308.77 378.646 309.21 378.457 309.672 378.449H551.972C552.204 378.446 552.434 378.489 552.649 378.577C552.864 378.664 553.06 378.794 553.224 378.958C553.388 379.122 553.518 379.317 553.606 379.533C553.693 379.748 553.737 379.978 553.734 380.21ZM553.734 394.198C553.737 394.43 553.693 394.661 553.606 394.876C553.518 395.091 553.388 395.286 553.224 395.45C553.06 395.615 552.864 395.744 552.649 395.832C552.434 395.919 552.204 395.963 551.972 395.96H309.672C309.21 395.952 308.77 395.762 308.446 395.433C308.123 395.103 307.941 394.66 307.941 394.198C307.941 393.736 308.123 393.292 308.446 392.963C308.77 392.633 309.21 392.444 309.672 392.436H551.972C552.204 392.433 552.434 392.476 552.649 392.564C552.865 392.651 553.06 392.781 553.224 392.945C553.389 393.109 553.518 393.305 553.606 393.52C553.693 393.735 553.737 393.966 553.734 394.198ZM553.734 408.185C553.737 408.417 553.693 408.648 553.606 408.863C553.518 409.078 553.389 409.274 553.224 409.438C553.06 409.602 552.865 409.732 552.649 409.819C552.434 409.907 552.204 409.95 551.972 409.947H260.551C260.084 409.947 259.636 409.762 259.305 409.431C258.975 409.101 258.789 408.653 258.789 408.185C258.789 407.718 258.975 407.269 259.305 406.939C259.636 406.608 260.084 406.423 260.551 406.423H552.082C552.534 406.44 552.96 406.635 553.269 406.965C553.579 407.295 553.745 407.733 553.734 408.185ZM553.734 422.172C553.737 422.404 553.693 422.635 553.606 422.85C553.518 423.065 553.389 423.261 553.224 423.425C553.06 423.589 552.865 423.719 552.649 423.807C552.434 423.894 552.204 423.938 551.972 423.935H260.551C260.089 423.926 259.649 423.737 259.326 423.407C259.002 423.078 258.82 422.634 258.82 422.173C258.82 421.711 259.002 421.267 259.326 420.937C259.649 420.608 260.089 420.419 260.551 420.41H552.082C552.533 420.428 552.96 420.623 553.269 420.952C553.578 421.282 553.745 421.72 553.734 422.172Z" fill="url(#paint33_linear_333_1821)"/>
<path d="M581.711 203.222H593.276V226.46H581.711V203.222ZM604.84 195.512H616.404V226.46H604.84V195.512ZM627.968 186.702H639.533V226.461H627.968V186.702ZM575.653 171.392C575.649 178.431 572.852 185.18 567.875 190.157C562.898 195.134 556.149 197.931 549.111 197.935C542.553 197.961 536.225 195.524 531.379 191.107L549.111 171.392V144.849C556.149 144.853 562.898 147.651 567.875 152.628C572.852 157.605 575.649 164.354 575.653 171.392Z" fill="white"/>
<path d="M549.109 144.849V171.392L531.378 191.107C527.381 187.522 524.566 182.808 523.306 177.588C522.047 172.368 522.401 166.889 524.323 161.876C526.245 156.862 529.644 152.55 534.07 149.51C538.495 146.469 543.74 144.844 549.109 144.849Z" fill="url(#paint34_linear_333_1821)"/>
<defs>
<radialGradient id="paint0_radial_333_1821" cx="0" cy="0" r="1" gradientUnits="userSpaceOnUse" gradientTransform="translate(490 250) rotate(90) scale(299 458.264)">
<stop offset="0.0239582" stop-color="#9A86F3"/>
<stop offset="1" stop-color="#5030BA"/>
</radialGradient>
<linearGradient id="paint1_linear_333_1821" x1="799" y1="471.055" x2="807.43" y2="471.055" gradientUnits="userSpaceOnUse">
<stop stop-color="white"/>
<stop offset="1" stop-color="white" stop-opacity="0.82"/>
</linearGradient>
<linearGradient id="paint2_linear_333_1821" x1="807.43" y1="480.528" x2="832.716" y2="480.528" gradientUnits="userSpaceOnUse">
<stop stop-color="white"/>
<stop offset="1" stop-color="white" stop-opacity="0.82"/>
</linearGradient>
<linearGradient id="paint3_linear_333_1821" x1="807.574" y1="461.543" x2="832.656" y2="461.543" gradientUnits="userSpaceOnUse">
<stop stop-color="white"/>
<stop offset="1" stop-color="white" stop-opacity="0.82"/>
</linearGradient>
<linearGradient id="paint4_linear_333_1821" x1="343.115" y1="216.865" x2="394.033" y2="186.376" gradientUnits="userSpaceOnUse">
<stop stop-color="#007D52"/>
<stop offset="1" stop-color="#29E3A2"/>
</linearGradient>
<linearGradient id="paint5_linear_333_1821" x1="374.998" y1="222.5" x2="425.661" y2="197.318" gradientUnits="userSpaceOnUse">
<stop stop-color="#007D52"/>
<stop offset="1" stop-color="#29E3A2"/>
</linearGradient>
<linearGradient id="paint6_linear_333_1821" x1="332.968" y1="207.999" x2="369.835" y2="158.387" gradientUnits="userSpaceOnUse">
<stop stop-color="#007D52"/>
<stop offset="1" stop-color="#29E3A2"/>
</linearGradient>
<linearGradient id="paint7_linear_333_1821" x1="621.25" y1="439.681" x2="621.25" y2="458.076" gradientUnits="userSpaceOnUse">
<stop stop-color="#FA5814"/>
<stop offset="1" stop-color="#FF8B5A"/>
</linearGradient>
<linearGradient id="paint8_linear_333_1821" x1="667.05" y1="356" x2="636.15" y2="445.632" gradientUnits="userSpaceOnUse">
<stop stop-color="#271F8E"/>
<stop offset="1" stop-color="#231C82"/>
</linearGradient>
<linearGradient id="paint9_linear_333_1821" x1="624.942" y1="302.344" x2="624.942" y2="335.938" gradientUnits="userSpaceOnUse">
<stop stop-color="#4C44C1"/>
<stop offset="1" stop-color="#292561"/>
</linearGradient>
<linearGradient id="paint10_linear_333_1821" x1="737.553" y1="246.532" x2="737.553" y2="291.669" gradientUnits="userSpaceOnUse">
<stop stop-color="white"/>
<stop offset="0.84427" stop-color="#FFD0D0"/>
</linearGradient>
<linearGradient id="paint11_linear_333_1821" x1="742.002" y1="244.5" x2="741.556" y2="281.065" gradientUnits="userSpaceOnUse">
<stop stop-color="#3C33B3"/>
<stop offset="1" stop-color="#161155"/>
</linearGradient>
<linearGradient id="paint12_linear_333_1821" x1="728.686" y1="388.347" x2="728.686" y2="458.081" gradientUnits="userSpaceOnUse">
<stop stop-color="#CEDDF0"/>
<stop offset="1" stop-color="#75B2FF"/>
</linearGradient>
<linearGradient id="paint13_linear_333_1821" x1="663.097" y1="439.681" x2="663.097" y2="458.076" gradientUnits="userSpaceOnUse">
<stop stop-color="#FA5814"/>
<stop offset="1" stop-color="#FF966A"/>
</linearGradient>
<linearGradient id="paint14_linear_333_1821" x1="696.511" y1="352.782" x2="660.498" y2="442.5" gradientUnits="userSpaceOnUse">
<stop stop-color="#181358"/>
<stop offset="1" stop-color="#39329B"/>
</linearGradient>
<linearGradient id="paint15_linear_333_1821" x1="736.711" y1="285.261" x2="736.711" y2="378.337" gradientUnits="userSpaceOnUse">
<stop stop-color="#D3A6FD"/>
<stop offset="1" stop-color="#985ECF"/>
</linearGradient>
<linearGradient id="paint16_linear_333_1821" x1="762.502" y1="336.5" x2="734.284" y2="394.088" gradientUnits="userSpaceOnUse">
<stop stop-color="#99FFF0"/>
<stop offset="1" stop-color="#25CCB3"/>
</linearGradient>
<linearGradient id="paint17_linear_333_1821" x1="660.729" y1="322.945" x2="660.729" y2="337.108" gradientUnits="userSpaceOnUse">
<stop stop-color="white"/>
<stop offset="0.84427" stop-color="#FFD0D0"/>
</linearGradient>
<linearGradient id="paint18_linear_333_1821" x1="705.909" y1="289.62" x2="705.909" y2="335.935" gradientUnits="userSpaceOnUse">
<stop stop-color="#D3A6FD"/>
<stop offset="1" stop-color="#985ECF"/>
</linearGradient>
<linearGradient id="paint19_linear_333_1821" x1="564" y1="341" x2="725" y2="341" gradientUnits="userSpaceOnUse">
<stop stop-color="#CB6E39"/>
<stop offset="1" stop-color="#F9A473"/>
</linearGradient>
<linearGradient id="paint20_linear_333_1821" x1="642.36" y1="345.72" x2="642.36" y2="458.059" gradientUnits="userSpaceOnUse">
<stop stop-color="#CB6E39"/>
<stop offset="1" stop-color="#F9A473"/>
</linearGradient>
<linearGradient id="paint21_linear_333_1821" x1="406.755" y1="193.75" x2="406.755" y2="350.253" gradientUnits="userSpaceOnUse">
<stop stop-color="#1F61B5"/>
<stop offset="1" stop-color="#6EAFFF"/>
</linearGradient>
<linearGradient id="paint22_linear_333_1821" x1="389.153" y1="126.385" x2="389.153" y2="264.901" gradientUnits="userSpaceOnUse">
<stop stop-color="#B35F5F"/>
<stop offset="1" stop-color="#591B1B"/>
</linearGradient>
<linearGradient id="paint23_linear_333_1821" x1="405.107" y1="298.489" x2="405.107" y2="350.143" gradientUnits="userSpaceOnUse">
<stop stop-color="#292561"/>
<stop offset="1" stop-color="#463CD1"/>
</linearGradient>
<linearGradient id="paint24_linear_333_1821" x1="509" y1="202" x2="713" y2="187" gradientUnits="userSpaceOnUse">
<stop stop-color="#AED3FF"/>
<stop offset="1" stop-color="#E3F0FF"/>
</linearGradient>
<linearGradient id="paint25_linear_333_1821" x1="506.284" y1="183.757" x2="506.284" y2="211.592" gradientUnits="userSpaceOnUse">
<stop stop-color="white"/>
<stop offset="0.84427" stop-color="#FFD0D0"/>
</linearGradient>
<linearGradient id="paint26_linear_333_1821" x1="440.5" y1="223.5" x2="504" y2="228" gradientUnits="userSpaceOnUse">
<stop stop-color="#FFBB56"/>
<stop offset="1" stop-color="#E27A00"/>
</linearGradient>
<linearGradient id="paint27_linear_333_1821" x1="407.11" y1="194.239" x2="407.11" y2="302.777" gradientUnits="userSpaceOnUse">
<stop stop-color="#FFBB56"/>
<stop offset="1" stop-color="#E27A00"/>
</linearGradient>
<linearGradient id="paint28_linear_333_1821" x1="413.716" y1="137.779" x2="413.716" y2="200.706" gradientUnits="userSpaceOnUse">
<stop stop-color="white"/>
<stop offset="0.804979" stop-color="#FFD0D0"/>
</linearGradient>
<linearGradient id="paint29_linear_333_1821" x1="429.002" y1="143" x2="386.502" y2="195" gradientUnits="userSpaceOnUse">
<stop stop-color="#B96060"/>
<stop offset="1" stop-color="#853E3E"/>
</linearGradient>
<linearGradient id="paint30_linear_333_1821" x1="367.06" y1="199" x2="367.06" y2="323.488" gradientUnits="userSpaceOnUse">
<stop stop-color="#FFBB56"/>
<stop offset="1" stop-color="#E27A00"/>
</linearGradient>
<linearGradient id="paint31_linear_333_1821" x1="383.536" y1="314.679" x2="383.536" y2="344.727" gradientUnits="userSpaceOnUse">
<stop stop-color="white"/>
<stop offset="0.84427" stop-color="#FFD0D0"/>
</linearGradient>
<linearGradient id="paint32_linear_333_1821" x1="279.002" y1="361.046" x2="279.002" y2="395.96" gradientUnits="userSpaceOnUse">
<stop stop-color="#FFCF1A"/>
<stop offset="1" stop-color="#FFEB9F"/>
</linearGradient>
<linearGradient id="paint33_linear_333_1821" x1="258.998" y1="412.5" x2="560.498" y2="405.5" gradientUnits="userSpaceOnUse">
<stop stop-color="#6FAAF4"/>
<stop offset="1" stop-color="#6FAAF4" stop-opacity="0"/>
</linearGradient>
<linearGradient id="paint34_linear_333_1821" x1="535.838" y1="144.849" x2="535.838" y2="191.107" gradientUnits="userSpaceOnUse">
<stop stop-color="#FA5814"/>
<stop offset="1" stop-color="#FFDACB"/>
</linearGradient>
<clipPath id="clip0_333_1821">
<rect width="160.567" height="38" fill="white" transform="translate(799 452)"/>
</clipPath>
</defs>
</svg>
