<svg width="980" height="500" viewBox="0 0 980 500" fill="none" xmlns="http://www.w3.org/2000/svg">
<rect width="980" height="500" fill="url(#paint0_linear_326_458)"/>
<rect width="63.0772" height="24.2605" transform="matrix(-1 0 0 1 390.73 323.652)" fill="#4053FF"/>
<rect width="14.5563" height="14.5563" transform="matrix(-1 0 0 1 385.879 328.504)" fill="white"/>
<rect width="14.5563" height="14.5563" transform="matrix(-1 0 0 1 366.471 328.504)" fill="white"/>
<rect width="14.5563" height="14.5563" transform="matrix(-1 0 0 1 347.062 328.504)" fill="white"/>
<path d="M636.118 101.587C571.909 47.1631 410.981 39.6423 339.17 83.1495C281.511 126.657 426.184 184.316 339.17 246.342C252.155 308.368 274.96 422.554 330.436 431.287C385.911 440.021 578.459 472.611 636.118 393.198C693.777 313.786 700.327 156.012 636.118 101.587Z" fill="white" fill-opacity="0.16"/>
<path d="M551.98 401.043L373.262 429.589L358.463 359.881L545.43 340.149L551.98 401.043Z" fill="url(#paint1_linear_326_458)"/>
<path d="M278 301.979L512.922 284.431L564.678 325.593L367.602 349.611L278 301.979Z" fill="#FFA28E"/>
<path d="M443.459 309.904C427.112 309.904 413.861 307.189 413.861 303.839C413.861 300.489 427.112 297.774 443.459 297.774C459.805 297.774 473.057 300.489 473.057 303.839C473.057 307.189 459.805 309.904 443.459 309.904Z" fill="url(#paint2_linear_326_458)"/>
<path d="M529.906 249.819L329.11 263.081L317.223 98.6762L517.938 107.087L529.906 249.819Z" fill="url(#paint3_linear_326_458)"/>
<path d="M277.999 301.979L278.97 316.05L285.601 383.656L373.262 429.589L387.657 427.163L382.562 363.18L546.32 341.443L545.35 327.857L367.601 349.61L277.999 301.979Z" fill="url(#paint4_linear_326_458)"/>
<path d="M419.52 302.788C425.408 279.708 424.583 269.179 413.779 257.259L452.434 254.752C444.767 269.308 446.595 279.692 454.617 299.893L419.52 302.788Z" fill="url(#paint5_linear_326_458)"/>
<path fill-rule="evenodd" clip-rule="evenodd" d="M422.529 273.4C425.796 272.883 429.289 272.025 432.847 270.812C439.511 268.548 445.236 265.459 449.215 262.208C449.991 259.798 451.059 257.34 452.434 254.736L413.779 257.243C418.534 262.515 421.364 267.497 422.529 273.4Z" fill="#242424" fill-opacity="0.51"/>
<path d="M536.939 143.073C538.169 148.2 538.848 148.119 540.012 144.771C556.251 194.068 581.66 203.53 613.36 198.791C618.616 198.791 626.299 190.462 628.482 187.793C630.342 185.529 627.835 178.898 627.188 174.935C640.208 158.033 643.475 137.283 644.575 132.883C645.675 128.484 626.752 115.092 617.161 108.946C611.274 103.092 606.745 102.218 597.672 102.639C580.479 102.412 557.367 101.587 552.547 104.094C537.15 112.084 527.882 133.288 534.271 147.197C535.452 149.785 536.503 145.822 536.939 143.073Z" fill="url(#paint6_linear_326_458)"/>
<path d="M325.388 108.36C325.258 106.687 326.61 105.272 328.287 105.325L510.141 111.05C511.584 111.095 512.759 112.223 512.864 113.662L521.524 232.271C521.64 233.862 520.414 235.232 518.82 235.293L338.448 242.194C336.935 242.252 335.647 241.105 335.53 239.595L325.388 108.36Z" fill="white"/>
<path d="M542.765 160.298L540.825 147.278C544.642 152.535 547.116 154.928 552.146 158.114L582.714 182.537C592.338 193.05 605.6 202.996 614.172 195.556C614.075 196.947 614.301 197.594 615.304 198.468C614.641 202.899 614.544 205.358 615.951 209.547L575.921 222.647C577.587 217.1 578.17 214.366 577.539 211.164C554.249 219.736 551.014 202.511 544.464 187.47C541.827 181.405 543.574 168.142 542.765 160.298Z" fill="url(#paint7_linear_326_458)"/>
<path d="M550.337 174.445C547.405 162.619 552.486 151.183 561.685 148.903C570.884 146.623 580.718 154.361 583.649 166.187C586.581 178.013 581.5 189.448 572.301 191.729C563.102 194.009 553.268 186.271 550.337 174.445Z" fill="#FBFFFC"/>
<path d="M549.603 172.643C548.41 161.883 552.927 152.552 559.692 151.802C566.457 151.052 572.908 159.167 574.101 169.927C575.295 180.687 570.778 190.018 564.012 190.768C557.247 191.518 550.796 183.403 549.603 172.643Z" fill="url(#paint8_linear_326_458)"/>
<path d="M548.951 171.941C548.199 164.386 551.229 157.899 555.718 157.453C560.207 157.006 564.455 162.769 565.206 170.325C565.957 177.88 562.928 184.367 558.439 184.813C553.95 185.26 549.702 179.497 548.951 171.941Z" fill="#FBFFFC"/>
<path d="M576.407 120.753C578.995 115.513 604.873 110.693 617.488 108.946C618.54 108.801 614.415 104.531 611.747 104.175C592.371 101.604 584.963 104.952 572.93 112.505C566.25 116.516 563.63 136.037 563.226 150.513L570.747 151.968C571.555 143.752 573.819 125.994 576.407 120.753Z" fill="#FBFFFC"/>
<path d="M455.633 116.252C455.481 114.031 457.283 112.165 459.508 112.24L505.069 113.765C507.003 113.83 508.572 115.353 508.694 117.285L510.572 147.084C510.709 149.249 508.99 151.079 506.822 151.079H461.527C459.551 151.079 457.912 149.549 457.778 147.577L455.633 116.252Z" fill="url(#paint9_linear_326_458)"/>
<path d="M476.613 129.083C476.613 133.385 478.716 137.04 481.627 138.302V140.242H478.716C472.732 140.242 467.88 145.095 467.88 151.079H499.58C499.58 145.095 494.728 140.242 488.744 140.242H485.994V138.382C488.986 137.186 491.17 133.482 491.17 129.083C491.17 123.729 487.903 119.378 483.892 119.378C479.881 119.378 476.613 123.729 476.613 129.083Z" fill="white"/>
<path d="M458.725 158.393C458.516 156.176 460.27 154.265 462.497 154.283L508.086 154.658C510.021 154.674 511.628 156.157 511.799 158.085L514.429 187.833C514.62 189.993 512.948 191.866 510.78 191.921L465.498 193.058C463.523 193.108 461.847 191.62 461.662 189.653L458.725 158.393Z" fill="url(#paint10_linear_326_458)"/>
<path d="M480.041 170.681C480.154 174.983 482.337 178.574 485.281 179.771L485.329 181.712L482.418 181.793C476.434 181.938 471.711 186.92 471.857 192.904L503.541 192.095C503.395 186.111 498.414 181.388 492.43 181.534L489.68 181.598L489.632 179.738C492.591 178.461 494.678 174.708 494.565 170.325C494.435 164.972 491.055 160.702 487.044 160.815C483.049 160.896 479.895 165.328 480.041 170.681Z" fill="#90D6CB"/>
<path d="M461.564 200.043C461.301 197.832 463.005 195.879 465.231 195.84L510.805 195.049C512.741 195.016 514.385 196.458 514.605 198.382L517.986 228.051C518.232 230.206 516.608 232.121 514.442 232.23L469.203 234.519C467.229 234.619 465.515 233.173 465.281 231.211L461.564 200.043Z" fill="url(#paint11_linear_326_458)"/>
<path d="M483.177 211.795C483.388 216.097 485.684 219.639 488.644 220.755L488.741 222.68L493.108 222.453L493.011 220.593C495.938 219.235 497.928 215.434 497.701 211.051C497.426 205.697 493.949 201.524 489.938 201.735C485.927 201.945 482.902 206.441 483.177 211.795Z" fill="white"/>
<path d="M495.864 222.324C501.832 222.017 506.927 226.626 507.234 232.594L475.566 234.195C475.259 228.227 479.869 223.133 485.837 222.825L495.864 222.324Z" fill="white"/>
<path d="M393.93 114.635C393.778 112.414 395.579 110.548 397.805 110.622L443.366 112.148C445.3 112.213 446.869 113.736 446.991 115.667L448.869 145.467C449.006 147.631 447.287 149.461 445.119 149.461H399.824C397.848 149.461 396.209 147.931 396.074 145.96L393.93 114.635Z" fill="url(#paint12_linear_326_458)"/>
<path d="M414.91 127.304C414.91 131.606 417.013 135.261 419.924 136.523V138.787H417.013C411.029 138.787 406.177 143.639 406.177 149.623H437.877C437.877 143.639 433.025 138.787 427.041 138.787H424.291V136.603C427.283 135.407 429.467 131.703 429.467 127.304C429.467 121.95 426.2 117.599 422.189 117.599C418.177 117.599 414.91 121.95 414.91 127.304Z" fill="#EEF3FF"/>
<path d="M396.363 158.36C396.155 156.143 397.909 154.232 400.136 154.251L445.724 154.625C447.66 154.641 449.267 156.124 449.437 158.052L452.067 187.8C452.258 189.961 450.586 191.834 448.418 191.888L403.137 193.026C401.162 193.076 399.486 191.587 399.301 189.621L396.363 158.36Z" fill="url(#paint13_linear_326_458)"/>
<path d="M417.663 170.487C417.776 174.789 419.959 178.38 422.903 179.577L422.951 181.841L427.318 181.728L427.27 179.544C430.229 178.267 432.316 174.514 432.203 170.131C432.073 164.778 428.693 160.508 424.682 160.621C420.671 160.718 417.533 165.134 417.663 170.487Z" fill="#E5A895"/>
<path d="M430.082 181.663C436.066 181.518 441.032 186.24 441.193 192.225L409.509 193.017C409.364 187.033 414.086 182.068 420.071 181.906L430.082 181.663Z" fill="#E5A895"/>
<path d="M400.832 201.611C400.568 199.401 402.273 197.447 404.498 197.409L450.073 196.618C452.009 196.585 453.653 198.027 453.872 199.95L457.254 229.62C457.499 231.775 455.875 233.689 453.71 233.799L408.471 236.088C406.497 236.188 404.783 234.742 404.549 232.78L400.832 201.611Z" fill="url(#paint14_linear_326_458)"/>
<path d="M422.432 213.202C422.642 217.504 424.939 221.046 427.898 222.162L428.012 224.41L425.1 224.556C419.116 224.863 414.523 229.942 414.83 235.926L446.498 234.325C446.191 228.357 441.112 223.747 435.128 224.054L432.378 224.2L432.265 222.017C435.193 220.658 437.182 216.857 436.956 212.474C436.681 207.121 433.203 202.948 429.192 203.142C425.197 203.352 422.173 207.848 422.432 213.202Z" fill="#EAC1B0"/>
<path d="M331.496 114.311C331.344 112.09 333.146 110.224 335.371 110.299L380.932 111.824C382.866 111.889 384.435 113.412 384.557 115.344L386.436 145.143C386.572 147.308 384.854 149.138 382.685 149.138H337.39C335.414 149.138 333.776 147.608 333.641 145.636L331.496 114.311Z" fill="#FEDAC1" fill-opacity="0.5"/>
<path d="M352.479 127.304C352.479 131.606 354.581 135.261 357.493 136.523V138.302H354.581C348.597 138.302 343.745 143.154 343.745 149.138H375.445C375.445 143.154 370.593 138.302 364.609 138.302H361.859V136.603C364.852 135.407 367.035 131.703 367.035 127.304C367.035 121.95 363.784 117.599 359.757 117.599C355.73 117.599 352.479 121.95 352.479 127.304Z" fill="#F6BD95"/>
<path d="M333.947 159.622C333.739 157.405 335.493 155.494 337.72 155.512L383.308 155.887C385.244 155.903 386.851 157.386 387.021 159.314L389.651 189.062C389.842 191.222 388.17 193.096 386.002 193.15L340.721 194.288C338.746 194.337 337.07 192.849 336.885 190.882L333.947 159.622Z" fill="url(#paint15_linear_326_458)"/>
<path d="M355.248 172.072C355.361 176.374 357.544 179.965 360.488 181.162L360.537 182.941L357.625 183.022C351.641 183.167 346.918 188.149 347.064 194.133L378.748 193.34C378.602 187.356 373.621 182.634 367.637 182.779L364.887 182.844L364.839 181.146C367.798 179.868 369.885 176.099 369.772 171.716C369.642 166.363 366.262 162.093 362.251 162.206C358.256 162.287 355.118 166.719 355.248 172.072Z" fill="#E5A895"/>
<path d="M338.14 204.458C337.877 202.248 339.581 200.294 341.807 200.256L387.382 199.465C389.317 199.432 390.962 200.874 391.181 202.797L394.562 232.467C394.808 234.621 393.184 236.536 391.018 236.646L345.779 238.935C343.806 239.035 342.092 237.589 341.858 235.627L338.14 204.458Z" fill="url(#paint16_linear_326_458)"/>
<path d="M359.759 216.372C359.969 220.674 362.266 224.216 365.225 225.332L365.323 227.095L369.689 226.869L369.609 225.17C372.536 223.812 374.525 220.011 374.299 215.628C374.024 210.274 370.547 206.102 366.536 206.312C362.524 206.506 359.5 211.018 359.759 216.372Z" fill="#F6BD95"/>
<path d="M372.44 226.739C378.425 226.432 383.503 231.041 383.811 237.01L352.143 238.611C351.835 232.643 356.445 227.548 362.413 227.241L372.44 226.739Z" fill="#F6BD95"/>
<path d="M649.185 430.398C676.438 410.262 664.421 396.967 654.523 397.646L517.451 395.544C503.784 405.49 480.737 421.001 504.997 427.972C541.307 438.404 607.7 461.047 649.185 430.398Z" fill="url(#paint17_linear_326_458)"/>
<path fill-rule="evenodd" clip-rule="evenodd" d="M647.326 420.289C653.99 413.043 655.332 397.808 654.766 392.39L585.381 370.232C552.743 362.129 502.265 361.336 483.083 370.232C454.375 383.559 436.939 425.966 438.977 444.178C454.989 445.132 471.6 445.569 488.161 445.213C489.924 442.69 490.959 439.746 492.075 436.576C493.677 432.047 495.44 427.082 499.661 422.23C507.489 413.238 531.232 418.866 545.19 426.354C574.868 438.97 640.663 427.535 647.326 420.289Z" fill="url(#paint18_linear_326_458)"/>
<path d="M566.767 366.641C535.956 362.145 498.886 362.889 483.084 370.232C474.237 374.34 466.458 381.214 459.988 389.284C466.911 396.546 488.535 396.223 516.289 395.835C534.598 395.576 555.575 395.269 576.746 397.08L566.767 366.641Z" fill="url(#paint19_linear_326_458)"/>
<path d="M422.352 306.588L432.299 308.448L426.153 330.364C420.266 328.277 416.077 326.304 413.376 327.048C405.92 328.892 400.582 326.45 391.137 320.174C387.643 320.514 386.091 320.029 383.616 318.638C379.67 318.929 378.246 316.196 378.764 312.977C378.99 311.586 380.381 311.602 380.705 308.934C381.077 305.877 384.829 306.022 384.587 303.677C383.859 296.723 387.74 298.663 395.504 296.723C395.229 295.073 395.18 291.531 397.121 290.496C399.547 289.202 403.267 295.105 411.354 295.105C414.184 295.105 419.198 303.435 422.352 306.588Z" fill="url(#paint20_linear_326_458)"/>
<path d="M492.706 293.65L509.041 298.016L493.514 321.792L472.489 312.977L492.706 293.65Z" fill="white" stroke="white" stroke-width="0.161737"/>
<path d="M617.163 209.466C623.47 209.466 624.36 209.466 628.727 215.207C659.845 222.55 661.786 226.416 676.148 255.043L676.277 255.318L666.977 341.038C660.233 355.756 654.249 374.55 655.818 378.076C659.214 385.678 657.031 391.613 655.252 392.551C632.414 404.601 571.229 417.329 545.999 398.455C542.521 395.851 543.767 348.963 544.058 316.454L503.543 350.743C495.537 356.969 468.575 347.378 445.722 342.009C441.468 342.3 439.22 341.491 435.29 339.421C411.838 330.768 427.527 308.287 432.54 305.375C436.6 303.014 440.352 304.567 442.406 306.427L479.444 307.64C480.625 308.691 483.439 310.163 485.186 307.64C486.932 305.117 490.814 306.152 492.545 306.993C505.403 289.655 531.847 253.733 534.758 248.687C537.669 243.641 557.482 231.866 567.024 226.61C581.661 217.795 609.804 209.466 617.163 209.466Z" fill="url(#paint21_linear_326_458)"/>
<path fill-rule="evenodd" clip-rule="evenodd" d="M544.059 316.551C546.145 313.867 548.555 311.327 551.094 309.176C552.049 321.921 551.094 341.798 543.768 341.071C543.8 338.143 543.833 335.232 543.881 332.353C543.946 326.886 544.01 321.549 544.059 316.551Z" fill="url(#paint22_linear_326_458)"/>
<path d="M577.052 193.858C577.294 194.958 577.504 196.009 577.666 197.012M577.666 197.012C578.378 201.217 578.507 204.969 578.184 211.487M577.666 197.012C577.294 198.742 572.733 205.487 570.34 206.797" stroke="#CE8E6A" stroke-width="0.970419"/>
<path d="M627.754 165.392C624.535 169.727 623.015 172.153 616.756 176.552M618.454 170.811C618.05 172.218 615.381 174.482 613.521 175.016M611.904 173.237C610.303 174.223 609.267 174.45 607.213 174.369" stroke="#1C4942" stroke-width="0.970419"/>
<path d="M602.447 284.916C612.265 265.297 687.747 248.202 694.96 256.24C710.164 273.19 689.283 296.156 685.256 309.775C681.714 321.743 637.625 352.683 609.887 358.587C582.149 364.49 590.883 308.044 602.447 284.916Z" fill="url(#paint23_linear_326_458)"/>
<path d="M628.079 353.735L656.141 345.243C649.881 373.208 648.862 392.956 647.73 421.502C647.472 427.972 631.961 437.611 625.168 433.147C618.375 428.683 624.327 376.831 628.079 353.735Z" fill="url(#paint24_linear_326_458)"/>
<path d="M610.208 303.354C614.672 281.875 695.605 264.877 700.538 271.573C705.956 278.932 694.861 311.489 690.834 325.107C687.292 337.076 647.165 354.139 619.427 360.043C591.69 365.946 604.629 330.202 610.208 303.354Z" fill="url(#paint25_linear_326_458)"/>
<path d="M626.381 216.178L579.801 225.235M566.862 227.095L575.919 225.963M541.146 245.533C548.262 244.886 558.452 267.853 556.592 288.07M612.067 392.552C607.296 393.538 604.401 393.781 597.43 391.5M485.589 309.985C481.336 312.476 479.007 315.193 474.915 321.064M478.473 328.908C481.449 319.059 483.632 314.093 490.522 308.449C483.81 324.477 482.84 336.025 491.25 339.583C492.786 340.23 485.686 323.814 492.059 307.478" stroke="#D36923" stroke-width="0.970419"/>
<path d="M319.082 310.713V322.115L354.422 340.149V327.857L319.082 310.713Z" fill="url(#paint26_linear_326_458)"/>
<path d="M354.177 307.397L319.08 310.713L354.42 327.857L394.611 324.784L354.177 307.397Z" fill="#E54357"/>
<path d="M394.611 335.62V324.784L354.42 327.857V340.149L394.611 335.62Z" fill="url(#paint27_linear_326_458)"/>
<path d="M355.554 331.011L391.379 327.614V333.356L355.554 337.076L320.215 319.77V313.624L355.554 331.011Z" fill="white"/>
<path d="M342.695 294.054L307.598 297.37L342.937 314.514L383.129 311.441L342.695 294.054Z" fill="url(#paint28_linear_326_458)"/>
<path fill-rule="evenodd" clip-rule="evenodd" d="M383.129 311.441V322.277L342.937 326.805V323.975L378.762 320.255V314.514L342.937 317.91V314.514L383.129 311.441ZM307.598 300.523V297.369L342.937 314.514V317.91L307.598 300.523ZM342.937 323.975V326.805L307.598 308.772V306.669L342.937 323.975Z" fill="url(#paint29_linear_326_458)"/>
<path d="M342.941 317.91L378.766 314.514V320.255L342.941 323.975L307.602 306.669V300.523L342.941 317.91Z" fill="white"/>
<path d="M330.805 302.351C330.223 302.125 329.657 301.785 329.172 301.3C328.913 301.041 328.687 300.75 328.493 300.459L323.608 295.17L330.514 294.572C331.145 294.41 331.841 294.41 332.504 294.572C332.973 294.685 333.442 294.879 333.862 295.17L354.662 304.163C355.179 304.389 355.664 304.713 356.101 305.133C357.783 306.799 357.912 309.387 356.408 310.907C355.131 312.201 353.06 312.314 351.427 311.279L330.805 302.351Z" fill="url(#paint30_linear_326_458)"/>
<path d="M330.52 294.572C329.905 294.733 329.339 295.041 328.87 295.526C327.592 296.804 327.495 298.841 328.498 300.459L323.613 295.17L330.52 294.572Z" fill="#756D6C"/>
<g clip-path="url(#clip0_326_458)">
<path d="M848.688 467.15C847.638 467.181 846.599 466.917 845.691 466.387C844.86 465.875 844.194 465.133 843.775 464.251C843.312 463.258 843.084 462.171 843.107 461.076C843.084 459.979 843.312 458.892 843.775 457.898C844.194 457.015 844.86 456.273 845.691 455.762C846.599 455.232 847.638 454.967 848.688 454.998C849.89 454.954 851.072 455.308 852.051 456.005C852.958 456.686 853.624 457.638 853.952 458.723L851.983 459.267C851.794 458.566 851.388 457.942 850.824 457.485C850.206 457.035 849.452 456.811 848.688 456.852C847.998 456.826 847.316 457.009 846.731 457.378C846.199 457.743 845.79 458.261 845.558 458.863C845.282 459.575 845.146 460.333 845.157 461.097C845.14 461.859 845.274 462.617 845.549 463.327C845.785 463.932 846.199 464.45 846.737 464.813C847.323 465.181 848.006 465.364 848.697 465.338C849.459 465.372 850.208 465.143 850.821 464.691C851.384 464.233 851.79 463.609 851.98 462.909L853.952 463.425C853.627 464.509 852.965 465.461 852.063 466.143C851.08 466.843 849.894 467.197 848.688 467.15Z" fill="white"/>
<path d="M856.094 466.91V455.239H860.915C861.031 455.239 861.176 455.239 861.354 455.239C861.52 455.247 861.684 455.264 861.847 455.292C862.455 455.368 863.032 455.6 863.523 455.967C863.959 456.308 864.298 456.759 864.503 457.274C864.72 457.833 864.828 458.429 864.821 459.029C864.844 459.901 864.593 460.759 864.102 461.48C863.84 461.832 863.508 462.126 863.127 462.344C862.747 462.562 862.325 462.7 861.889 462.748L861.054 462.819H858.048V466.91H856.094ZM858.048 461.01H860.834C860.944 461.01 861.063 461.01 861.2 460.993C861.326 460.984 861.45 460.962 861.571 460.927C861.864 460.866 862.132 460.717 862.337 460.5C862.522 460.3 862.658 460.061 862.736 459.802C862.811 459.555 862.85 459.299 862.851 459.041C862.85 458.781 862.811 458.523 862.736 458.275C862.658 458.014 862.522 457.774 862.337 457.574C862.131 457.358 861.863 457.21 861.571 457.149C861.45 457.117 861.325 457.098 861.2 457.09C861.063 457.09 860.944 457.09 860.834 457.09H858.048V461.01ZM862.801 466.91L860.502 462.157L862.486 461.72L865.014 466.907L862.801 466.91Z" fill="white"/>
<path d="M867.164 466.91V455.239H874.7V457.072H869.116V459.947H873.726V461.78H869.116V465.077H874.7V466.91H867.164Z" fill="white"/>
<path d="M876.205 466.91L879.882 455.239H882.743L886.423 466.91H884.412L881.074 456.439H881.513L878.216 466.91H876.205ZM878.255 464.379V462.558H884.38V464.379H878.255Z" fill="white"/>
<path d="M890.086 466.91V457.072H886.311V455.239H895.816V457.072H892.037V466.91H890.086Z" fill="white"/>
<path d="M897.646 466.91V455.239H899.598V466.91H897.646Z" fill="white"/>
<path d="M905.042 466.91L901.35 455.239H903.358L906.438 465.012L909.557 455.239H911.577L907.887 466.91H905.042Z" fill="white"/>
<path d="M913.154 466.91V455.239H920.69V457.072H915.109V459.947H919.719V461.78H915.109V465.077H920.69V466.91H913.154Z" fill="white"/>
<path d="M923.162 466.91V455.239H925.114V466.91H923.162Z" fill="white"/>
<path d="M930.73 466.91V457.072H926.955V455.239H936.46V457.072H932.682V466.91H930.73Z" fill="white"/>
<path d="M938.127 466.91V455.239H945.663V457.072H940.093V459.947H944.703V461.78H940.093V465.077H945.675V466.91H938.127Z" fill="white"/>
<path d="M947.982 466.91V455.239H949.741L953.775 463.506L957.811 455.239H959.567V466.91H957.746V459.43L954.164 466.91H953.386L949.821 459.43V466.91H947.982Z" fill="white"/>
<path d="M815.86 470.789L807.43 465.92V475.654L815.86 470.789Z" fill="white" fill-opacity="0.48"/>
<path d="M832.717 461.055L824.287 456.19V465.921L832.717 461.055Z" fill="white" fill-opacity="0.47"/>
<path d="M815.86 451.321L807.43 446.456V456.189L815.86 451.321Z" fill="white" fill-opacity="0.48"/>
<path d="M807.43 446.456L800.687 450.35C800.174 450.645 799.747 451.07 799.451 451.583C799.155 452.096 798.999 452.677 799 453.27V468.84C799 469.433 799.155 470.015 799.452 470.528C799.748 471.041 800.174 471.467 800.687 471.763L807.43 475.654V446.456Z" fill="url(#paint31_linear_326_458)"/>
<path d="M832.716 468.84V461.055L807.43 475.654L814.172 479.549C814.685 479.845 815.266 480.001 815.858 480.001C816.45 480.001 817.031 479.845 817.544 479.549L831.032 471.763C831.545 471.467 831.97 471.04 832.266 470.527C832.561 470.014 832.717 469.433 832.716 468.84Z" fill="url(#paint32_linear_326_458)"/>
<path d="M817.606 442.594C817.098 442.301 816.521 442.146 815.934 442.146C815.347 442.146 814.77 442.301 814.262 442.594L807.572 446.456L832.654 460.939V453.216C832.654 452.629 832.5 452.052 832.206 451.543C831.913 451.034 831.49 450.611 830.982 450.317L817.606 442.594Z" fill="url(#paint33_linear_326_458)"/>
</g>
<defs>
<linearGradient id="paint0_linear_326_458" x1="490" y1="-49" x2="490" y2="549" gradientUnits="userSpaceOnUse">
<stop stop-color="#FFC7C7"/>
<stop offset="1" stop-color="#E51E5A"/>
</linearGradient>
<linearGradient id="paint1_linear_326_458" x1="505.37" y1="388.068" x2="387.915" y2="380.114" gradientUnits="userSpaceOnUse">
<stop stop-color="#B25C4F"/>
<stop offset="1" stop-color="#A34436"/>
</linearGradient>
<linearGradient id="paint2_linear_326_458" x1="443.459" y1="297.774" x2="443.459" y2="309.904" gradientUnits="userSpaceOnUse">
<stop stop-color="#434343"/>
<stop offset="1" stop-color="#8B8989"/>
</linearGradient>
<linearGradient id="paint3_linear_326_458" x1="423.564" y1="98.6762" x2="423.564" y2="263.081" gradientUnits="userSpaceOnUse">
<stop stop-color="#434343"/>
<stop offset="1" stop-color="#8B8989"/>
</linearGradient>
<linearGradient id="paint4_linear_326_458" x1="412.16" y1="301.979" x2="412.16" y2="429.589" gradientUnits="userSpaceOnUse">
<stop stop-color="#C45D4E"/>
<stop offset="1" stop-color="#F79C8E"/>
</linearGradient>
<linearGradient id="paint5_linear_326_458" x1="434.198" y1="254.752" x2="434.198" y2="302.788" gradientUnits="userSpaceOnUse">
<stop stop-color="#434343"/>
<stop offset="1" stop-color="#8B8989"/>
</linearGradient>
<linearGradient id="paint6_linear_326_458" x1="588.424" y1="102.327" x2="588.424" y2="199.879" gradientUnits="userSpaceOnUse">
<stop stop-color="#520316"/>
<stop offset="1" stop-color="#BB3355"/>
</linearGradient>
<linearGradient id="paint7_linear_326_458" x1="645.379" y1="134.316" x2="536.096" y2="207.736" gradientUnits="userSpaceOnUse">
<stop stop-color="white"/>
<stop offset="0.84427" stop-color="#FFC4C4"/>
</linearGradient>
<linearGradient id="paint8_linear_326_458" x1="568.789" y1="158.35" x2="564.561" y2="187.006" gradientUnits="userSpaceOnUse">
<stop stop-color="#E5E7F1"/>
<stop offset="1" stop-color="#E5E7F1" stop-opacity="0"/>
</linearGradient>
<linearGradient id="paint9_linear_326_458" x1="455.578" y1="132.043" x2="511.011" y2="132.043" gradientUnits="userSpaceOnUse">
<stop stop-color="#E1E1E1"/>
<stop offset="1" stop-color="#FBFBFB"/>
</linearGradient>
<linearGradient id="paint10_linear_326_458" x1="458.392" y1="173.383" x2="514.765" y2="173.383" gradientUnits="userSpaceOnUse">
<stop stop-color="#2A7C6F"/>
<stop offset="1" stop-color="#5CD6C2"/>
</linearGradient>
<linearGradient id="paint11_linear_326_458" x1="461.309" y1="215.305" x2="518.633" y2="215.305" gradientUnits="userSpaceOnUse">
<stop stop-color="#E1E1E1"/>
<stop offset="1" stop-color="#FBFBFB"/>
</linearGradient>
<linearGradient id="paint12_linear_326_458" x1="393.567" y1="130.164" x2="449" y2="130.164" gradientUnits="userSpaceOnUse">
<stop stop-color="#AEC6FF"/>
<stop offset="1" stop-color="#DEE8FF"/>
</linearGradient>
<linearGradient id="paint13_linear_326_458" x1="396.385" y1="173.382" x2="450.409" y2="174.322" gradientUnits="userSpaceOnUse">
<stop stop-color="#FEDAC1"/>
<stop offset="1" stop-color="#FFF2E9"/>
<stop offset="1" stop-color="#FFF4ED"/>
</linearGradient>
<linearGradient id="paint14_linear_326_458" x1="400.142" y1="216.601" x2="457.454" y2="216.601" gradientUnits="userSpaceOnUse">
<stop stop-color="#F6EECA"/>
<stop offset="1" stop-color="#FFFCED"/>
</linearGradient>
<linearGradient id="paint15_linear_326_458" x1="333.435" y1="175.262" x2="389.808" y2="175.262" gradientUnits="userSpaceOnUse">
<stop stop-color="#F9D1C8"/>
<stop offset="1" stop-color="#FFF4F1"/>
</linearGradient>
<linearGradient id="paint16_linear_326_458" x1="337.192" y1="219.42" x2="393.094" y2="221.299" gradientUnits="userSpaceOnUse">
<stop stop-color="#F9D1C8"/>
<stop offset="1" stop-color="#F9D1C8" stop-opacity="0"/>
<stop offset="1" stop-color="#FFE2DC"/>
</linearGradient>
<linearGradient id="paint17_linear_326_458" x1="508.659" y1="431.757" x2="666.032" y2="415.315" gradientUnits="userSpaceOnUse">
<stop offset="0.0357439" stop-color="#F1F4FE"/>
<stop offset="1" stop-color="#C7CEF4"/>
</linearGradient>
<linearGradient id="paint18_linear_326_458" x1="606.841" y1="373.975" x2="472.957" y2="465.58" gradientUnits="userSpaceOnUse">
<stop stop-color="#0B0241"/>
<stop offset="1" stop-color="#5343BA"/>
</linearGradient>
<linearGradient id="paint19_linear_326_458" x1="544.363" y1="380.082" x2="467.321" y2="411.557" gradientUnits="userSpaceOnUse">
<stop stop-color="#24186B"/>
<stop offset="1" stop-color="#24186B" stop-opacity="0"/>
</linearGradient>
<linearGradient id="paint20_linear_326_458" x1="453.309" y1="283.422" x2="390.906" y2="339.745" gradientUnits="userSpaceOnUse">
<stop stop-color="white"/>
<stop offset="0.84427" stop-color="#FFC4C4"/>
</linearGradient>
<linearGradient id="paint21_linear_326_458" x1="549.512" y1="209.466" x2="549.512" y2="408.062" gradientUnits="userSpaceOnUse">
<stop stop-color="#CC6A2A"/>
<stop offset="1" stop-color="#F89B5E"/>
</linearGradient>
<linearGradient id="paint22_linear_326_458" x1="547.585" y1="309.176" x2="547.585" y2="341.09" gradientUnits="userSpaceOnUse">
<stop stop-color="#D26117"/>
<stop offset="1" stop-color="#FFD7BD"/>
</linearGradient>
<linearGradient id="paint23_linear_326_458" x1="595.098" y1="349.077" x2="700.797" y2="254.183" gradientUnits="userSpaceOnUse">
<stop stop-color="white"/>
<stop offset="1" stop-color="#D7DFF5"/>
</linearGradient>
<linearGradient id="paint24_linear_326_458" x1="638.785" y1="319.481" x2="639.105" y2="434.288" gradientUnits="userSpaceOnUse">
<stop stop-color="#F1F4FE"/>
<stop offset="1" stop-color="#C7CEF4"/>
</linearGradient>
<linearGradient id="paint25_linear_326_458" x1="652.143" y1="270.094" x2="652.143" y2="360.689" gradientUnits="userSpaceOnUse">
<stop stop-color="#F1F4FE"/>
<stop offset="1" stop-color="#C7CEF4"/>
</linearGradient>
<linearGradient id="paint26_linear_326_458" x1="345.65" y1="325.588" x2="350.348" y2="339.682" gradientUnits="userSpaceOnUse">
<stop stop-color="#C73C4E"/>
<stop offset="1" stop-color="#C73C4E" stop-opacity="0"/>
<stop offset="1" stop-color="#F68795"/>
</linearGradient>
<linearGradient id="paint27_linear_326_458" x1="394.503" y1="332.165" x2="358.331" y2="341.091" gradientUnits="userSpaceOnUse">
<stop stop-color="#C73C4E"/>
<stop offset="1" stop-color="#FFD9DE"/>
</linearGradient>
<linearGradient id="paint28_linear_326_458" x1="345.363" y1="294.054" x2="345.363" y2="314.514" gradientUnits="userSpaceOnUse">
<stop stop-color="#F1CB6C"/>
<stop offset="1" stop-color="#FFE7AB"/>
</linearGradient>
<linearGradient id="paint29_linear_326_458" x1="347.527" y1="310.556" x2="345.363" y2="326.805" gradientUnits="userSpaceOnUse">
<stop stop-color="#C99E35"/>
<stop offset="1" stop-color="#FFD97B"/>
</linearGradient>
<linearGradient id="paint30_linear_326_458" x1="340.532" y1="294.45" x2="340.532" y2="311.976" gradientUnits="userSpaceOnUse">
<stop stop-color="#F19353"/>
<stop offset="1" stop-color="#FFB887"/>
</linearGradient>
<linearGradient id="paint31_linear_326_458" x1="799" y1="461.055" x2="807.43" y2="461.055" gradientUnits="userSpaceOnUse">
<stop stop-color="white"/>
<stop offset="1" stop-color="white" stop-opacity="0.82"/>
</linearGradient>
<linearGradient id="paint32_linear_326_458" x1="807.43" y1="470.528" x2="832.716" y2="470.528" gradientUnits="userSpaceOnUse">
<stop stop-color="white"/>
<stop offset="1" stop-color="white" stop-opacity="0.82"/>
</linearGradient>
<linearGradient id="paint33_linear_326_458" x1="807.572" y1="451.543" x2="832.654" y2="451.543" gradientUnits="userSpaceOnUse">
<stop stop-color="white"/>
<stop offset="1" stop-color="white" stop-opacity="0.82"/>
</linearGradient>
<clipPath id="clip0_326_458">
<rect width="160.567" height="38" fill="white" transform="translate(799 442)"/>
</clipPath>
</defs>
</svg>
