<svg width="980" height="500" viewBox="0 0 980 500" fill="none" xmlns="http://www.w3.org/2000/svg">
<rect width="980" height="500" fill="url(#paint0_linear_329_1157)"/>
<g clip-path="url(#clip0_329_1157)">
<path d="M848.688 467.15C847.638 467.181 846.599 466.917 845.691 466.387C844.86 465.875 844.194 465.133 843.775 464.251C843.312 463.258 843.084 462.171 843.107 461.076C843.084 459.979 843.312 458.892 843.775 457.898C844.194 457.015 844.86 456.273 845.691 455.762C846.599 455.232 847.638 454.967 848.688 454.998C849.89 454.954 851.072 455.308 852.051 456.005C852.958 456.686 853.624 457.638 853.952 458.723L851.983 459.267C851.794 458.566 851.388 457.942 850.824 457.485C850.206 457.035 849.452 456.811 848.688 456.852C847.998 456.826 847.316 457.009 846.731 457.378C846.199 457.743 845.79 458.261 845.558 458.863C845.282 459.575 845.146 460.333 845.157 461.097C845.14 461.859 845.274 462.617 845.549 463.327C845.785 463.932 846.199 464.45 846.737 464.813C847.323 465.181 848.006 465.364 848.697 465.338C849.459 465.372 850.208 465.143 850.821 464.691C851.384 464.233 851.79 463.609 851.98 462.909L853.952 463.425C853.627 464.509 852.965 465.461 852.063 466.143C851.08 466.843 849.894 467.197 848.688 467.15Z" fill="white"/>
<path d="M856.094 466.91V455.239H860.915C861.031 455.239 861.176 455.239 861.354 455.239C861.52 455.247 861.684 455.264 861.847 455.292C862.455 455.368 863.032 455.6 863.523 455.967C863.959 456.308 864.298 456.759 864.503 457.274C864.72 457.833 864.828 458.429 864.821 459.029C864.844 459.901 864.593 460.759 864.102 461.48C863.84 461.832 863.508 462.126 863.127 462.344C862.747 462.562 862.325 462.7 861.889 462.748L861.054 462.819H858.048V466.91H856.094ZM858.048 461.01H860.834C860.944 461.01 861.063 461.01 861.2 460.993C861.326 460.984 861.45 460.962 861.571 460.927C861.864 460.866 862.132 460.717 862.337 460.5C862.522 460.3 862.658 460.061 862.736 459.802C862.811 459.555 862.85 459.299 862.851 459.041C862.85 458.781 862.811 458.523 862.736 458.275C862.658 458.014 862.522 457.774 862.337 457.574C862.131 457.358 861.863 457.21 861.571 457.149C861.45 457.117 861.325 457.098 861.2 457.09C861.063 457.09 860.944 457.09 860.834 457.09H858.048V461.01ZM862.801 466.91L860.502 462.157L862.486 461.72L865.014 466.907L862.801 466.91Z" fill="white"/>
<path d="M867.164 466.91V455.239H874.7V457.072H869.116V459.947H873.726V461.78H869.116V465.077H874.7V466.91H867.164Z" fill="white"/>
<path d="M876.207 466.91L879.884 455.239H882.745L886.425 466.91H884.414L881.075 456.439H881.515L878.218 466.91H876.207ZM878.257 464.379V462.558H884.381V464.379H878.257Z" fill="white"/>
<path d="M890.088 466.91V457.072H886.312V455.239H895.818V457.072H892.039V466.91H890.088Z" fill="white"/>
<path d="M897.645 466.91V455.239H899.596V466.91H897.645Z" fill="white"/>
<path d="M905.044 466.91L901.352 455.239H903.36L906.44 465.012L909.559 455.239H911.579L907.889 466.91H905.044Z" fill="white"/>
<path d="M913.156 466.91V455.239H920.692V457.072H915.111V459.947H919.721V461.78H915.111V465.077H920.692V466.91H913.156Z" fill="white"/>
<path d="M923.16 466.91V455.239H925.112V466.91H923.16Z" fill="white"/>
<path d="M930.728 466.91V457.072H926.953V455.239H936.458V457.072H932.68V466.91H930.728Z" fill="white"/>
<path d="M938.125 466.91V455.239H945.661V457.072H940.091V459.947H944.701V461.78H940.091V465.077H945.673V466.91H938.125Z" fill="white"/>
<path d="M947.98 466.91V455.239H949.739L953.773 463.506L957.809 455.239H959.565V466.91H957.744V459.43L954.162 466.91H953.384L949.819 459.43V466.91H947.98Z" fill="white"/>
<path d="M815.86 470.789L807.43 465.92V475.654L815.86 470.789Z" fill="white" fill-opacity="0.48"/>
<path d="M832.715 461.055L824.285 456.19V465.921L832.715 461.055Z" fill="white" fill-opacity="0.47"/>
<path d="M815.86 451.321L807.43 446.456V456.189L815.86 451.321Z" fill="white" fill-opacity="0.48"/>
<path d="M807.43 446.456L800.687 450.35C800.174 450.645 799.747 451.07 799.451 451.583C799.155 452.096 798.999 452.677 799 453.27V468.84C799 469.433 799.155 470.015 799.452 470.528C799.748 471.041 800.174 471.467 800.687 471.763L807.43 475.654V446.456Z" fill="url(#paint1_linear_329_1157)"/>
<path d="M832.716 468.84V461.055L807.43 475.654L814.172 479.549C814.685 479.845 815.266 480.001 815.858 480.001C816.45 480.001 817.031 479.845 817.544 479.549L831.032 471.763C831.545 471.467 831.97 471.04 832.266 470.527C832.561 470.014 832.717 469.433 832.716 468.84Z" fill="url(#paint2_linear_329_1157)"/>
<path d="M817.608 442.594C817.1 442.301 816.523 442.146 815.936 442.146C815.349 442.146 814.772 442.301 814.264 442.594L807.574 446.456L832.656 460.939V453.216C832.656 452.629 832.502 452.052 832.208 451.543C831.915 451.034 831.492 450.611 830.984 450.317L817.608 442.594Z" fill="url(#paint3_linear_329_1157)"/>
</g>
<path d="M735.303 429.755H252.488C245.643 419.157 247.336 408.411 254.868 398.254C262.4 388.097 272.9 380.492 280.505 370.384C297.188 348.231 297.556 317.613 291.398 290.577C289.656 282.972 287.448 275.465 285.068 268.031C279.009 249.067 271.722 230.422 267.601 210.942C264.215 194.873 263.087 178.043 266.546 162.072C266.987 160.06 267.503 158.048 268.091 156.061C273.342 138.348 285.485 122.132 302.463 114.845C330.872 102.628 364.237 118.059 386.047 139.967C407.858 161.876 422.651 189.966 444.167 212.144C465.682 234.322 498.483 250.539 527.335 239.401C546.839 231.869 559.351 214.156 573.285 198.038C578.977 191.463 584.89 185.133 591.636 179.859C604.982 169.432 621.714 163.667 638.618 162.955C650.59 162.44 662.66 164.476 673.7 169.211C700.294 180.619 719.749 207.213 722.57 236.015C724.975 260.843 715.947 285.425 715.897 310.376C715.848 330.886 730.078 412.582 735.303 429.779" fill="white" fill-opacity="0.16"/>
<path d="M462.051 430.687C462.002 430.368 461.928 430.073 461.879 429.754C460.063 421.364 456.482 413.415 451.673 406.325C436.585 383.975 412.224 370.899 388.475 359.54C372.308 351.714 355.772 343.888 341.2 333.191C317.378 315.625 299.125 293.153 285.068 268.031C279.008 249.066 271.721 230.421 267.6 210.942C264.214 194.872 263.086 178.042 266.545 162.071C266.766 163.445 266.962 164.819 267.183 166.193C276.751 229.881 301.431 296.955 356.558 334.688C382.268 352.278 412.665 363.22 435.628 384.834C448.484 396.831 459.107 412.188 461.928 429.779C461.977 430.098 462.026 430.392 462.051 430.711M638.617 162.93C631.747 165.702 625.025 168.769 618.622 172.4C610.183 177.208 602.602 182.9 596.37 190.26C579.295 210.77 576.4 239.449 579.197 265.258C582.239 293.104 591.243 320.238 595.659 348.034C598.039 363.097 598.995 378.799 594.972 393.666C590.826 409.22 580.154 424.087 564.747 429.754C564.06 430.024 563.373 430.245 562.662 430.466L564.403 429.754C579.172 423.4 588.814 408.337 591.881 392.93C594.162 381.89 593.574 370.457 591.783 359.393C586.68 329.658 574.855 301.936 569.016 272.177C563.741 246.122 564.06 220.264 573.285 198.013C578.976 191.438 584.889 185.108 591.635 179.833C604.981 169.407 621.713 163.641 638.617 162.93ZM543.894 251.103C543.898 251.905 543.665 252.691 543.222 253.361C542.779 254.03 542.147 254.553 541.406 254.862C540.665 255.172 539.849 255.254 539.062 255.099C538.274 254.943 537.551 254.557 536.983 253.99C536.416 253.422 536.03 252.698 535.874 251.911C535.719 251.123 535.801 250.307 536.111 249.567C536.42 248.826 536.943 248.194 537.612 247.751C538.281 247.308 539.067 247.074 539.87 247.079C540.937 247.079 541.961 247.503 542.715 248.258C543.47 249.012 543.894 250.036 543.894 251.103Z" fill="#F9CA7E"/>
<path d="M410.138 388.416C410.059 389.432 409.6 390.381 408.851 391.073C408.103 391.765 407.122 392.15 406.103 392.15C405.084 392.15 404.102 391.765 403.354 391.073C402.606 390.381 402.146 389.432 402.067 388.416C402.024 387.86 402.096 387.301 402.279 386.773C402.462 386.246 402.752 385.762 403.131 385.353C403.51 384.943 403.97 384.616 404.481 384.392C404.992 384.169 405.545 384.054 406.103 384.054C406.661 384.054 407.213 384.169 407.724 384.392C408.236 384.616 408.695 384.943 409.074 385.353C409.453 385.762 409.743 386.246 409.927 386.773C410.11 387.301 410.182 387.86 410.138 388.416ZM528.217 263.714C528.211 264.154 528.033 264.575 527.722 264.886C527.41 265.198 526.99 265.375 526.549 265.382C526.111 265.375 525.693 265.197 525.385 264.885C525.078 264.572 524.905 264.152 524.905 263.714C524.905 263.498 524.948 263.284 525.031 263.084C525.113 262.885 525.234 262.704 525.387 262.551C525.54 262.399 525.721 262.277 525.92 262.195C526.12 262.112 526.333 262.07 526.549 262.07C526.987 262.07 527.408 262.242 527.72 262.55C528.032 262.857 528.211 263.275 528.217 263.714ZM428.269 216.732C428.272 216.95 428.232 217.166 428.151 217.369C428.069 217.571 427.949 217.755 427.796 217.91C427.643 218.066 427.461 218.189 427.26 218.273C427.059 218.357 426.843 218.4 426.625 218.4C426.39 218.429 426.153 218.408 425.927 218.337C425.702 218.267 425.494 218.15 425.317 217.993C425.14 217.837 424.999 217.645 424.902 217.429C424.805 217.214 424.755 216.981 424.755 216.744C424.755 216.508 424.805 216.275 424.902 216.06C424.999 215.844 425.14 215.652 425.317 215.495C425.494 215.339 425.702 215.222 425.927 215.152C426.153 215.081 426.39 215.06 426.625 215.088C427.061 215.088 427.479 215.262 427.787 215.57C428.095 215.878 428.269 216.296 428.269 216.732Z" fill="#F9CA7E"/>
<path d="M518.332 116.244C518.332 143.991 540.829 166.489 568.576 166.489C596.324 166.489 618.796 143.991 618.796 116.244C618.796 88.4971 596.299 66 568.576 66C540.854 66 518.332 88.4971 518.332 116.244Z" fill="url(#paint4_linear_329_1157)"/>
<path d="M747.618 424.04H237.473V434H747.618V424.04Z" fill="#FFDABD"/>
<path d="M526.936 382.284L524.973 382.579L503.408 320.019C521.293 335.131 530.837 359.198 526.936 382.284ZM548.648 384.738C544.575 385.449 540.601 386.062 536.602 386.283L542.76 283.808C555.885 315.529 558.019 351.691 548.648 384.738Z" fill="url(#paint5_linear_329_1157)"/>
<path d="M542.762 283.808L536.604 386.283C533.495 386.499 530.373 386.408 527.281 386.013C518.4 351.716 524.117 313.91 542.762 283.808ZM524.975 382.579C522.252 383.02 519.431 383.536 516.732 383.928C504.343 365.381 499.46 341.976 503.41 320.019L524.975 382.579Z" fill="url(#paint6_linear_329_1157)"/>
<path d="M549.633 382.283L551.595 382.578L573.16 320.018C555.275 335.13 545.732 359.197 549.633 382.283Z" fill="#FA7F1B"/>
<path d="M551.596 382.578C554.319 383.019 557.14 383.534 559.839 383.927C572.228 365.38 577.11 341.975 573.161 320.018L551.596 382.578Z" fill="#F5A728"/>
<path d="M563.814 424.137H513.889L510.381 383.804H567.298L563.814 424.137Z" fill="#56187E"/>
<path d="M569.701 380.443H508V388.79H569.701V380.443Z" fill="#56187E"/>
<path d="M510.816 388.835L511.381 395.238L565.722 402.009L566.9 388.417L510.816 388.835Z" fill="#41125F"/>
<path d="M522.014 403.972C522.048 404.323 522.009 404.677 521.899 405.012C521.788 405.347 521.609 405.655 521.372 405.917C521.135 406.178 520.846 406.387 520.523 406.53C520.201 406.673 519.852 406.747 519.499 406.747C519.146 406.747 518.797 406.673 518.475 406.53C518.152 406.387 517.863 406.178 517.626 405.917C517.389 405.655 517.21 405.347 517.099 405.012C516.989 404.677 516.95 404.323 516.984 403.972C517.046 403.348 517.338 402.769 517.802 402.348C518.267 401.927 518.872 401.693 519.499 401.693C520.126 401.693 520.731 401.927 521.196 402.348C521.66 402.769 521.952 403.348 522.014 403.972ZM517.303 412.068C517.303 412.308 517.208 412.539 517.037 412.709C516.867 412.88 516.636 412.975 516.396 412.975C516.262 412.997 516.126 412.99 515.995 412.954C515.865 412.917 515.744 412.853 515.641 412.766C515.538 412.678 515.455 412.569 515.399 412.447C515.342 412.324 515.312 412.191 515.312 412.055C515.312 411.92 515.342 411.787 515.399 411.664C515.455 411.541 515.538 411.432 515.641 411.345C515.744 411.257 515.865 411.193 515.995 411.157C516.126 411.121 516.262 411.114 516.396 411.135C516.517 411.135 516.637 411.16 516.749 411.207C516.86 411.254 516.962 411.323 517.046 411.41C517.131 411.497 517.197 411.6 517.241 411.713C517.285 411.826 517.307 411.946 517.303 412.068Z" fill="#41125F"/>
<path d="M650.046 260.156H646.415C646.315 260.157 646.219 260.119 646.146 260.05C646.073 259.982 646.029 259.888 646.022 259.788C646.022 259.684 646.064 259.584 646.137 259.511C646.211 259.437 646.311 259.396 646.415 259.396H650.046C650.15 259.396 650.25 259.437 650.323 259.511C650.397 259.584 650.438 259.684 650.438 259.788C650.432 259.888 650.388 259.982 650.315 260.05C650.242 260.119 650.146 260.157 650.046 260.156ZM642.759 260.156H639.104C639.006 260.156 638.913 260.118 638.844 260.049C638.775 259.98 638.736 259.886 638.736 259.788C638.736 259.688 638.774 259.592 638.842 259.519C638.91 259.446 639.004 259.402 639.104 259.396H642.759C642.81 259.396 642.86 259.406 642.906 259.426C642.952 259.446 642.994 259.475 643.029 259.512C643.063 259.549 643.09 259.592 643.107 259.64C643.124 259.687 643.131 259.738 643.127 259.788C643.127 259.886 643.089 259.98 643.02 260.049C642.951 260.118 642.857 260.156 642.759 260.156ZM635.473 260.156H631.818C631.72 260.156 631.626 260.118 631.557 260.049C631.488 259.98 631.45 259.886 631.45 259.788C631.449 259.688 631.487 259.592 631.556 259.519C631.624 259.446 631.718 259.402 631.818 259.396H635.473C635.573 259.402 635.666 259.446 635.735 259.519C635.803 259.592 635.841 259.688 635.841 259.788C635.841 259.886 635.802 259.98 635.733 260.049C635.664 260.118 635.571 260.156 635.473 260.156ZM628.187 260.156H624.531C624.434 260.156 624.34 260.118 624.271 260.049C624.202 259.98 624.163 259.886 624.163 259.788C624.163 259.688 624.201 259.592 624.269 259.519C624.338 259.446 624.431 259.402 624.531 259.396H628.187C628.286 259.402 628.38 259.446 628.448 259.519C628.517 259.592 628.555 259.688 628.555 259.788C628.555 259.886 628.516 259.98 628.447 260.049C628.378 260.118 628.284 260.156 628.187 260.156ZM620.9 260.156H617.245C617.145 260.157 617.048 260.119 616.975 260.05C616.903 259.982 616.858 259.888 616.852 259.788C616.852 259.684 616.894 259.584 616.967 259.511C617.041 259.437 617.141 259.396 617.245 259.396H620.9C621 259.402 621.094 259.446 621.162 259.519C621.23 259.592 621.268 259.688 621.268 259.788C621.268 259.886 621.229 259.98 621.16 260.049C621.091 260.118 620.998 260.156 620.9 260.156ZM651.444 260.009C651.358 260.011 651.274 259.982 651.207 259.929C651.14 259.875 651.093 259.799 651.076 259.715C651.061 259.666 651.058 259.615 651.065 259.565C651.072 259.515 651.091 259.467 651.119 259.424C651.147 259.382 651.184 259.347 651.228 259.321C651.271 259.294 651.32 259.278 651.371 259.273C652.491 259.026 653.524 258.484 654.364 257.703C654.437 257.634 654.533 257.596 654.634 257.596C654.734 257.596 654.831 257.634 654.903 257.703C654.939 257.739 654.967 257.782 654.985 257.83C655.003 257.877 655.011 257.928 655.009 257.978C655.007 258.029 654.994 258.079 654.972 258.124C654.949 258.17 654.918 258.21 654.879 258.243C653.94 259.126 652.778 259.737 651.518 260.009H651.444ZM613.638 259.886H613.516C612.281 259.508 611.172 258.804 610.302 257.85C610.241 257.772 610.21 257.675 610.215 257.576C610.219 257.477 610.259 257.383 610.326 257.31C610.402 257.245 610.501 257.211 610.601 257.215C610.701 257.22 610.796 257.263 610.866 257.335C611.637 258.193 612.631 258.822 613.736 259.15C613.833 259.184 613.913 259.254 613.959 259.346C614.005 259.438 614.013 259.544 613.982 259.641C613.958 259.715 613.912 259.78 613.851 259.828C613.79 259.876 613.716 259.905 613.638 259.911M656.498 255.299H656.4C656.351 255.287 656.304 255.266 656.264 255.236C656.223 255.206 656.189 255.168 656.164 255.124C656.138 255.081 656.122 255.032 656.116 254.982C656.111 254.932 656.115 254.881 656.13 254.833C656.277 254.28 656.351 253.711 656.351 253.14V251.324C656.351 251.22 656.392 251.12 656.466 251.047C656.539 250.973 656.639 250.932 656.743 250.932C656.843 250.938 656.937 250.982 657.005 251.055C657.074 251.128 657.112 251.224 657.111 251.324V253.14C657.116 253.778 657.033 254.413 656.866 255.029C656.845 255.111 656.798 255.184 656.731 255.237C656.665 255.29 656.583 255.321 656.498 255.323M608.977 254.784C608.89 254.776 608.808 254.741 608.742 254.683C608.676 254.626 608.629 254.55 608.609 254.465C608.532 254.027 608.491 253.584 608.486 253.14V250.76C608.486 250.656 608.528 250.556 608.601 250.482C608.675 250.409 608.775 250.368 608.879 250.368C608.979 250.374 609.072 250.418 609.141 250.491C609.209 250.564 609.247 250.66 609.247 250.76V253.14C609.251 253.535 609.292 253.929 609.37 254.317C609.38 254.368 609.38 254.419 609.369 254.47C609.359 254.52 609.338 254.567 609.308 254.609C609.278 254.65 609.239 254.685 609.195 254.711C609.151 254.737 609.102 254.753 609.051 254.759H608.977M656.743 248.037C656.639 248.037 656.539 247.995 656.466 247.922C656.392 247.848 656.351 247.748 656.351 247.644V244.013C656.351 243.909 656.392 243.809 656.466 243.736C656.539 243.662 656.639 243.621 656.743 243.621C656.843 243.627 656.937 243.671 657.005 243.744C657.074 243.817 657.112 243.913 657.111 244.013V247.644C657.112 247.744 657.074 247.841 657.005 247.914C656.937 247.987 656.843 248.031 656.743 248.037ZM608.879 247.473C608.775 247.473 608.675 247.431 608.601 247.358C608.528 247.284 608.486 247.184 608.486 247.08V243.449C608.486 243.345 608.528 243.245 608.601 243.172C608.675 243.098 608.775 243.057 608.879 243.057C608.979 243.063 609.072 243.107 609.141 243.18C609.209 243.253 609.247 243.349 609.247 243.449V247.056C609.247 247.156 609.209 247.252 609.141 247.325C609.072 247.398 608.979 247.442 608.879 247.448M656.743 240.701C656.693 240.705 656.643 240.698 656.595 240.681C656.548 240.664 656.504 240.637 656.467 240.603C656.43 240.568 656.401 240.526 656.381 240.48C656.361 240.434 656.351 240.384 656.351 240.333V236.678C656.357 236.578 656.401 236.484 656.474 236.416C656.547 236.348 656.643 236.31 656.743 236.31C656.841 236.31 656.935 236.349 657.004 236.418C657.073 236.487 657.111 236.58 657.111 236.678V240.333C657.111 240.431 657.073 240.525 657.004 240.594C656.935 240.663 656.841 240.701 656.743 240.701ZM608.879 240.162C608.775 240.162 608.675 240.12 608.601 240.047C608.528 239.973 608.486 239.873 608.486 239.769V236.138C608.486 236.034 608.528 235.934 608.601 235.861C608.675 235.787 608.775 235.746 608.879 235.746C608.979 235.752 609.072 235.796 609.141 235.869C609.209 235.942 609.247 236.038 609.247 236.138V239.769C609.247 239.869 609.209 239.965 609.141 240.038C609.072 240.111 608.979 240.155 608.879 240.162ZM656.743 233.415C656.643 233.415 656.547 233.377 656.474 233.309C656.401 233.24 656.357 233.147 656.351 233.047V229.392C656.357 229.292 656.401 229.198 656.474 229.13C656.547 229.061 656.643 229.023 656.743 229.024C656.841 229.024 656.935 229.062 657.004 229.131C657.073 229.2 657.111 229.294 657.111 229.392V233.047C657.111 233.145 657.073 233.238 657.004 233.307C656.935 233.376 656.841 233.415 656.743 233.415ZM608.879 232.851C608.779 232.851 608.683 232.813 608.61 232.745C608.537 232.676 608.493 232.583 608.486 232.483V228.827C608.493 228.727 608.537 228.634 608.61 228.565C608.683 228.497 608.779 228.459 608.879 228.459C608.976 228.459 609.07 228.498 609.139 228.567C609.208 228.636 609.247 228.73 609.247 228.827V232.483C609.247 232.58 609.208 232.674 609.139 232.743C609.07 232.812 608.976 232.851 608.879 232.851ZM656.743 226.129C656.643 226.129 656.547 226.091 656.474 226.022C656.401 225.954 656.357 225.86 656.351 225.761V222.105C656.357 222.005 656.401 221.912 656.474 221.843C656.547 221.775 656.643 221.737 656.743 221.737C656.841 221.737 656.935 221.776 657.004 221.845C657.073 221.914 657.111 222.008 657.111 222.105V225.761C657.111 225.858 657.073 225.952 657.004 226.021C656.935 226.09 656.841 226.129 656.743 226.129ZM608.879 225.564C608.779 225.565 608.683 225.527 608.61 225.458C608.537 225.39 608.493 225.296 608.486 225.196V221.541C608.493 221.441 608.537 221.347 608.61 221.279C608.683 221.211 608.779 221.173 608.879 221.173C608.976 221.173 609.07 221.212 609.139 221.281C609.208 221.35 609.247 221.443 609.247 221.541V225.196C609.247 225.294 609.208 225.388 609.139 225.457C609.07 225.526 608.976 225.564 608.879 225.564ZM656.743 218.842C656.643 218.842 656.547 218.804 656.474 218.736C656.401 218.668 656.357 218.574 656.351 218.474C656.335 217.316 655.995 216.186 655.37 215.211C655.322 215.126 655.308 215.025 655.331 214.93C655.354 214.835 655.411 214.751 655.492 214.696C655.58 214.641 655.686 214.623 655.787 214.646C655.889 214.669 655.976 214.731 656.032 214.819C656.719 215.907 657.093 217.163 657.111 218.45C657.115 218.5 657.108 218.551 657.091 218.598C657.074 218.646 657.047 218.689 657.013 218.726C656.978 218.763 656.936 218.792 656.89 218.812C656.844 218.832 656.794 218.842 656.743 218.842ZM608.903 218.278H608.879C608.828 218.275 608.779 218.262 608.733 218.239C608.688 218.216 608.648 218.184 608.616 218.144C608.584 218.105 608.56 218.06 608.546 218.011C608.532 217.962 608.529 217.911 608.535 217.861C608.664 216.576 609.148 215.353 609.934 214.328C609.964 214.289 610.002 214.257 610.045 214.233C610.088 214.209 610.136 214.194 610.185 214.188C610.234 214.182 610.283 214.186 610.331 214.2C610.378 214.213 610.423 214.236 610.461 214.267C610.5 214.297 610.532 214.335 610.556 214.378C610.58 214.421 610.595 214.469 610.601 214.518C610.607 214.567 610.603 214.616 610.589 214.664C610.576 214.711 610.553 214.756 610.523 214.794C609.828 215.706 609.403 216.794 609.296 217.934C609.284 218.03 609.237 218.118 609.165 218.181C609.093 218.244 609 218.279 608.903 218.278ZM653.014 212.979H652.867C651.991 212.541 651.025 212.314 650.046 212.316H649.482C649.382 212.31 649.288 212.266 649.22 212.193C649.151 212.12 649.113 212.024 649.114 211.924C649.114 211.826 649.152 211.733 649.221 211.664C649.29 211.595 649.384 211.556 649.482 211.556H650.046C651.136 211.551 652.212 211.803 653.186 212.292C653.233 212.313 653.275 212.343 653.309 212.381C653.343 212.419 653.369 212.463 653.385 212.512C653.402 212.56 653.407 212.611 653.403 212.662C653.398 212.713 653.383 212.762 653.358 212.807C653.325 212.869 653.276 212.92 653.215 212.955C653.154 212.99 653.084 213.007 653.014 213.003M613.099 212.782C613.023 212.782 612.95 212.758 612.888 212.714C612.827 212.67 612.78 212.608 612.755 212.537C612.731 212.493 612.717 212.444 612.714 212.393C612.711 212.343 612.719 212.293 612.738 212.246C612.757 212.199 612.786 212.157 612.823 212.122C612.859 212.088 612.903 212.062 612.951 212.046C613.781 211.726 614.662 211.56 615.552 211.556H616.68C616.78 211.556 616.877 211.594 616.95 211.662C617.023 211.73 617.067 211.824 617.073 211.924C617.073 212.028 617.032 212.128 616.958 212.201C616.884 212.275 616.785 212.316 616.68 212.316H615.552C614.762 212.315 613.979 212.465 613.246 212.758H613.099M645.851 212.292H642.195C642.095 212.286 642.002 212.241 641.933 212.169C641.865 212.096 641.827 211.999 641.827 211.899C641.827 211.802 641.866 211.708 641.935 211.639C642.004 211.57 642.098 211.531 642.195 211.531H645.851C645.948 211.531 646.042 211.57 646.111 211.639C646.18 211.708 646.219 211.802 646.219 211.899C646.219 211.999 646.181 212.096 646.112 212.169C646.044 212.241 645.95 212.286 645.851 212.292ZM638.564 212.292H634.909C634.858 212.292 634.808 212.282 634.762 212.262C634.716 212.242 634.674 212.212 634.639 212.175C634.605 212.139 634.578 212.095 634.561 212.048C634.544 212 634.537 211.95 634.541 211.899C634.541 211.802 634.58 211.708 634.649 211.639C634.718 211.57 634.811 211.531 634.909 211.531H638.564C638.662 211.531 638.755 211.57 638.824 211.639C638.893 211.708 638.932 211.802 638.932 211.899C638.932 211.999 638.894 212.096 638.826 212.169C638.758 212.241 638.664 212.286 638.564 212.292ZM631.253 212.292H627.622C627.518 212.292 627.418 212.25 627.345 212.177C627.271 212.103 627.23 212.003 627.23 211.899C627.236 211.799 627.28 211.706 627.353 211.637C627.426 211.569 627.522 211.531 627.622 211.531H631.253C631.353 211.531 631.45 211.569 631.522 211.637C631.595 211.706 631.64 211.799 631.646 211.899C631.646 212.003 631.604 212.103 631.531 212.177C631.457 212.25 631.357 212.292 631.253 212.292ZM623.967 212.292H620.336C620.232 212.292 620.132 212.25 620.058 212.177C619.985 212.103 619.943 212.003 619.943 211.899C619.95 211.799 619.994 211.706 620.067 211.637C620.14 211.569 620.236 211.531 620.336 211.531H623.967C624.067 211.531 624.163 211.569 624.236 211.637C624.309 211.706 624.353 211.799 624.359 211.899C624.359 212.003 624.318 212.103 624.244 212.177C624.171 212.25 624.071 212.292 623.967 212.292Z" fill="white"/>
<path d="M303.271 370.459H268.777C267.898 370.459 267.028 370.285 266.217 369.949C265.406 369.612 264.669 369.118 264.049 368.496C263.429 367.873 262.938 367.135 262.604 366.322C262.271 365.51 262.1 364.64 262.104 363.761V329.267C262.104 328.391 262.276 327.523 262.612 326.714C262.947 325.904 263.438 325.168 264.058 324.549C264.678 323.929 265.413 323.438 266.223 323.102C267.033 322.767 267.9 322.594 268.777 322.594H303.271C304.149 322.591 305.019 322.761 305.832 323.095C306.644 323.429 307.383 323.92 308.005 324.54C308.627 325.16 309.121 325.897 309.458 326.708C309.795 327.519 309.968 328.389 309.968 329.267V363.761C309.968 365.538 309.262 367.241 308.006 368.497C306.75 369.753 305.047 370.459 303.271 370.459Z" fill="#56187E"/>
<path d="M299.026 332.922H277.24V337.275H299.026V332.922Z" fill="white"/>
<path d="M278.123 332.922H277.24V356.793H278.123V332.922Z" fill="white"/>
<path d="M268.385 356.793C268.385 354.953 270.568 353.457 273.242 353.457C275.917 353.457 278.1 354.953 278.1 356.793C278.1 358.633 275.941 360.13 273.242 360.13C270.544 360.13 268.385 358.633 268.385 356.793Z" fill="white"/>
<path d="M299.024 332.922H298.141V356.793H299.024V332.922Z" fill="white"/>
<path d="M289.285 356.793C289.285 354.953 291.469 353.457 294.143 353.457C296.817 353.457 299 354.953 299 356.793C299 358.633 296.841 360.13 294.143 360.13C291.444 360.13 289.285 358.633 289.285 356.793Z" fill="white"/>
<path d="M687.217 139.771H544.31C542.531 139.771 540.825 139.066 539.565 137.811C538.305 136.556 537.594 134.852 537.588 133.074V98.7514C537.588 96.9686 538.296 95.2588 539.557 93.9982C540.817 92.7375 542.527 92.0293 544.31 92.0293H687.217C689 92.0293 690.709 92.7375 691.97 93.9982C693.231 95.2588 693.939 96.9686 693.939 98.7514V133.074C693.932 134.852 693.221 136.556 691.961 137.811C690.701 139.066 688.995 139.771 687.217 139.771Z" fill="url(#paint7_linear_329_1157)"/>
<path d="M581.524 132.142H548.012C547.491 132.142 546.992 131.935 546.624 131.567C546.256 131.199 546.049 130.7 546.049 130.18V101.647C546.046 101.388 546.094 101.13 546.191 100.889C546.288 100.648 546.433 100.429 546.615 100.244C546.798 100.059 547.015 99.912 547.255 99.8119C547.495 99.7117 547.752 99.6601 548.012 99.6602H581.524C581.785 99.6602 582.044 99.7116 582.285 99.8114C582.526 99.9113 582.745 100.058 582.929 100.242C583.114 100.427 583.26 100.646 583.36 100.887C583.46 101.128 583.511 101.386 583.511 101.647V130.18C583.505 130.702 583.293 131.202 582.921 131.569C582.549 131.936 582.047 132.142 581.524 132.142Z" fill="white"/>
<path d="M578.781 103.561H551.107V128.234H578.781V103.561Z" fill="white"/>
<path d="M551.107 128.241L561.068 118.207L574.708 128.241H551.107Z" fill="#FA7F1B"/>
<path d="M578.777 123.236L571.368 118.207L566.707 122.353L574.705 128.241H578.777V123.236Z" fill="#F5A728"/>
<path d="M565.213 111.656C565.213 112.374 565 113.076 564.601 113.674C564.202 114.271 563.635 114.736 562.972 115.011C562.308 115.286 561.578 115.358 560.874 115.217C560.169 115.077 559.522 114.732 559.015 114.224C558.507 113.716 558.161 113.069 558.021 112.365C557.881 111.66 557.953 110.93 558.228 110.267C558.502 109.603 558.968 109.036 559.565 108.637C560.162 108.238 560.864 108.025 561.582 108.025C562.545 108.025 563.469 108.408 564.15 109.089C564.831 109.77 565.213 110.693 565.213 111.656Z" fill="#F5A728"/>
<path d="M686.432 100.125H592.494V103.734H686.432V100.125Z" fill="url(#paint8_linear_329_1157)"/>
<path d="M682.532 110.455H595.93C595.83 110.455 595.733 110.417 595.66 110.349C595.587 110.28 595.543 110.187 595.537 110.087C595.537 109.983 595.578 109.883 595.652 109.809C595.726 109.736 595.826 109.694 595.93 109.694H682.532C682.636 109.694 682.736 109.736 682.81 109.809C682.884 109.883 682.925 109.983 682.925 110.087C682.919 110.187 682.875 110.28 682.802 110.349C682.729 110.417 682.632 110.455 682.532 110.455ZM682.532 116.809H595.93C595.83 116.809 595.733 116.771 595.66 116.703C595.587 116.634 595.543 116.541 595.537 116.441C595.537 116.337 595.578 116.237 595.652 116.163C595.726 116.09 595.826 116.048 595.93 116.048H682.532C682.636 116.048 682.736 116.09 682.81 116.163C682.884 116.237 682.925 116.337 682.925 116.441C682.919 116.541 682.875 116.634 682.802 116.703C682.729 116.771 682.632 116.809 682.532 116.809ZM682.532 123.163H595.93C595.826 123.163 595.726 123.122 595.652 123.048C595.578 122.975 595.537 122.875 595.537 122.771C595.543 122.671 595.587 122.577 595.66 122.509C595.733 122.44 595.83 122.402 595.93 122.403H682.532C682.632 122.402 682.729 122.44 682.802 122.509C682.875 122.577 682.919 122.671 682.925 122.771C682.925 122.875 682.884 122.975 682.81 123.048C682.736 123.122 682.636 123.163 682.532 123.163ZM682.532 129.517H595.93C595.826 129.517 595.726 129.476 595.652 129.402C595.578 129.329 595.537 129.229 595.537 129.125C595.543 129.025 595.587 128.931 595.66 128.863C595.733 128.795 595.83 128.757 595.93 128.757H682.532C682.632 128.757 682.729 128.795 682.802 128.863C682.875 128.931 682.919 129.025 682.925 129.125C682.925 129.229 682.884 129.329 682.81 129.402C682.736 129.476 682.636 129.517 682.532 129.517Z" fill="white"/>
<path d="M385.164 196.37H242.233C241.351 196.37 240.478 196.196 239.664 195.858C238.85 195.52 238.11 195.024 237.488 194.4C236.866 193.775 236.373 193.034 236.038 192.219C235.703 191.403 235.532 190.53 235.535 189.648V155.326C235.535 153.55 236.241 151.846 237.497 150.59C238.753 149.334 240.456 148.628 242.233 148.628H385.164C386.94 148.628 388.644 149.334 389.9 150.59C391.156 151.846 391.862 153.55 391.862 155.326V189.648C391.865 190.53 391.694 191.403 391.359 192.219C391.024 193.034 390.531 193.775 389.909 194.4C389.286 195.024 388.547 195.52 387.733 195.858C386.919 196.196 386.046 196.37 385.164 196.37Z" fill="url(#paint9_linear_329_1157)"/>
<path d="M279.45 188.74H245.937C245.678 188.74 245.42 188.689 245.181 188.589C244.941 188.489 244.723 188.342 244.541 188.157C244.358 187.972 244.214 187.753 244.117 187.512C244.02 187.271 243.972 187.013 243.975 186.753V158.245C243.972 157.986 244.02 157.728 244.117 157.487C244.214 157.246 244.358 157.027 244.541 156.842C244.723 156.657 244.941 156.51 245.181 156.41C245.42 156.31 245.678 156.258 245.937 156.258H279.45C279.977 156.258 280.482 156.468 280.855 156.84C281.228 157.213 281.437 157.718 281.437 158.245V186.753C281.437 187.28 281.228 187.786 280.855 188.158C280.482 188.531 279.977 188.74 279.45 188.74Z" fill="white"/>
<path d="M271.178 169.433C271.178 174.463 267.106 184.693 262.052 184.693C256.998 184.693 252.95 174.463 252.95 169.433C252.886 168.197 253.074 166.96 253.503 165.798C253.932 164.637 254.593 163.575 255.445 162.677C256.298 161.778 257.325 161.063 258.462 160.575C259.6 160.086 260.826 159.834 262.064 159.834C263.302 159.834 264.528 160.086 265.665 160.575C266.803 161.063 267.83 161.778 268.682 162.677C269.535 163.575 270.196 164.637 270.625 165.798C271.054 166.96 271.242 168.197 271.178 169.433Z" fill="white"/>
<path d="M266.052 168.279C266.057 167.487 265.827 166.711 265.39 166.051C264.954 165.39 264.331 164.873 263.601 164.567C262.871 164.26 262.066 164.178 261.289 164.329C260.511 164.481 259.796 164.86 259.235 165.418C258.673 165.976 258.29 166.689 258.133 167.465C257.977 168.241 258.055 169.047 258.357 169.779C258.659 170.511 259.171 171.137 259.829 171.578C260.487 172.018 261.262 172.253 262.054 172.253C263.11 172.253 264.123 171.835 264.873 171.091C265.622 170.346 266.046 169.335 266.052 168.279Z" fill="white"/>
<path d="M271.178 169.433C271.178 174.463 267.106 184.693 262.052 184.693C256.998 184.693 252.95 174.463 252.95 169.433C252.886 168.197 253.074 166.96 253.503 165.798C253.932 164.637 254.593 163.575 255.445 162.677C256.298 161.778 257.325 161.063 258.462 160.575C259.6 160.086 260.826 159.834 262.064 159.834C263.302 159.834 264.528 160.086 265.665 160.575C266.803 161.063 267.83 161.778 268.682 162.677C269.535 163.575 270.196 164.637 270.625 165.798C271.054 166.96 271.242 168.197 271.178 169.433Z" fill="#F5A728"/>
<path d="M266.052 168.279C266.057 167.487 265.827 166.711 265.39 166.051C264.954 165.39 264.331 164.873 263.601 164.567C262.871 164.26 262.066 164.178 261.289 164.329C260.511 164.481 259.796 164.86 259.235 165.418C258.673 165.976 258.29 166.689 258.133 167.465C257.977 168.241 258.055 169.047 258.357 169.779C258.659 170.511 259.171 171.137 259.829 171.578C260.487 172.018 261.262 172.253 262.054 172.253C263.11 172.253 264.123 171.835 264.873 171.091C265.622 170.346 266.046 169.335 266.052 168.279Z" fill="white"/>
<path d="M384.35 156.699H290.412V160.308H384.35V156.699Z" fill="#F5A728"/>
<path d="M380.448 167.054H293.846C293.742 167.054 293.642 167.012 293.568 166.939C293.494 166.865 293.453 166.765 293.453 166.661C293.459 166.561 293.503 166.468 293.576 166.399C293.649 166.331 293.746 166.293 293.846 166.293H380.448C380.548 166.293 380.645 166.331 380.718 166.399C380.791 166.468 380.835 166.561 380.841 166.661C380.841 166.765 380.8 166.865 380.726 166.939C380.652 167.012 380.552 167.054 380.448 167.054ZM380.448 173.408H293.846C293.742 173.408 293.642 173.366 293.568 173.293C293.494 173.219 293.453 173.119 293.453 173.015C293.459 172.915 293.503 172.822 293.576 172.753C293.649 172.685 293.746 172.647 293.846 172.647H380.448C380.548 172.647 380.645 172.685 380.718 172.753C380.791 172.822 380.835 172.915 380.841 173.015C380.841 173.119 380.8 173.219 380.726 173.293C380.652 173.366 380.552 173.408 380.448 173.408ZM380.448 179.762H293.846C293.742 179.762 293.642 179.72 293.568 179.647C293.494 179.573 293.453 179.473 293.453 179.369C293.459 179.269 293.503 179.176 293.576 179.107C293.649 179.039 293.746 179.001 293.846 179.001H380.448C380.548 179.001 380.645 179.039 380.718 179.107C380.791 179.176 380.835 179.269 380.841 179.369C380.841 179.473 380.8 179.573 380.726 179.647C380.652 179.72 380.552 179.762 380.448 179.762ZM380.448 186.116H293.846C293.742 186.116 293.642 186.075 293.568 186.001C293.494 185.927 293.453 185.827 293.453 185.723C293.459 185.624 293.503 185.53 293.576 185.462C293.649 185.393 293.746 185.355 293.846 185.355H380.448C380.548 185.355 380.645 185.393 380.718 185.462C380.791 185.53 380.835 185.624 380.841 185.723C380.841 185.827 380.8 185.927 380.726 186.001C380.652 186.075 380.552 186.116 380.448 186.116Z" fill="white"/>
<path d="M417.544 316.069H383.075C382.196 316.072 381.326 315.902 380.513 315.568C379.701 315.234 378.962 314.743 378.34 314.123C377.718 313.503 377.224 312.766 376.887 311.955C376.55 311.144 376.377 310.274 376.377 309.396V274.902C376.377 273.125 377.083 271.422 378.339 270.166C379.595 268.91 381.298 268.204 383.075 268.204H417.544C419.32 268.204 421.024 268.91 422.28 270.166C423.536 271.422 424.242 273.125 424.242 274.902V309.396C424.242 310.274 424.068 311.144 423.731 311.955C423.394 312.766 422.901 313.503 422.278 314.123C421.656 314.743 420.918 315.234 420.105 315.568C419.293 315.902 418.422 316.072 417.544 316.069Z" fill="#F5A728"/>
<path d="M400.962 307.09H399.662C395.699 307.09 391.899 305.515 389.097 302.714C386.295 299.912 384.721 296.111 384.721 292.149C384.721 288.186 386.295 284.386 389.097 281.584C391.899 278.782 395.699 277.208 399.662 277.208H400.962C404.924 277.208 408.725 278.782 411.527 281.584C414.328 284.386 415.903 288.186 415.903 292.149C415.903 296.111 414.328 299.912 411.527 302.714C408.725 305.515 404.924 307.09 400.962 307.09Z" fill="white"/>
<path d="M395.857 297.276V287.021L406.112 292.148L395.857 297.276Z" fill="#56187E"/>
<path d="M481.894 400.489C481.894 400.489 476.399 416.043 482.557 424.041H526.398L523.478 417.098L506.378 409.517L504.759 400.489H481.894ZM438.176 393.767L433.073 412.854C433.073 412.854 423.112 419.625 424.56 424.041H456.6L459.495 396.563L438.176 393.767Z" fill="white"/>
<path d="M460.53 402.279L434.107 397.912L445.442 287.806C445.442 287.806 444.73 269.063 449.22 253.926C453.587 239.23 480.696 248.847 480.696 248.847L478.267 275.294L460.53 402.279Z" fill="url(#paint10_linear_329_1157)"/>
<path d="M473.803 260.476L478.538 322.153C478.538 322.153 474.661 357.653 479.617 402.279H505.843L510.75 256.379C510.75 256.379 492.399 251.104 490.952 251.104C489.504 251.104 473.803 260.476 473.803 260.476Z" fill="url(#paint11_linear_329_1157)"/>
<path d="M385.58 170.439C385.58 170.439 383.126 166.71 378.956 164.354C374.785 161.999 361.979 158.687 361.439 160.625C360.899 162.564 368.946 164.158 368.946 164.158C368.946 164.158 360.482 163.962 360.114 165.017C359.525 166.734 368.823 166.832 369.535 167.544C369.535 167.544 360.261 166.293 359.991 167.348C359.427 169.678 365.953 168.623 368.799 170.267C369.363 170.586 360.678 169.776 360.188 171.15C359.697 172.524 369.02 173.383 369.167 173.554C370.884 175.959 375.447 176.4 379.005 174.757L397.748 192.249C398.919 193.341 400.298 194.184 401.804 194.728C403.309 195.272 404.909 195.505 406.507 195.414L424.956 194.31C424.956 194.31 418.479 184.496 418.454 178.191L404.176 183.466L385.58 170.439Z" fill="url(#paint12_linear_329_1157)"/>
<path d="M381.774 166.562C379.45 164.356 378.055 161.346 377.873 158.147C377.874 157.941 377.824 157.739 377.726 157.558C377.661 157.474 377.574 157.408 377.475 157.37C377.375 157.331 377.267 157.32 377.162 157.337C376.948 157.348 376.742 157.425 376.573 157.558C375.984 157.951 375.641 158.638 375.469 159.325C375.33 160.027 375.264 160.743 375.273 161.459C375.287 162.165 375.188 162.869 374.979 163.544L378.487 166.071C378.953 166.444 379.474 166.743 380.032 166.954C380.597 167.151 381.308 166.905 381.774 166.562ZM539.205 121.053C539.712 117.897 538.992 114.666 537.193 112.024C537.057 111.865 536.972 111.668 536.948 111.46C536.95 111.353 536.977 111.248 537.029 111.154C537.08 111.06 537.153 110.98 537.242 110.92C537.433 110.823 537.642 110.765 537.855 110.749C538.569 110.753 539.257 111.014 539.794 111.485C540.338 111.947 540.824 112.475 541.241 113.055C541.707 113.594 542.173 114.159 542.787 114.527C542.37 115.901 541.928 117.299 541.535 118.673C541.394 119.253 541.162 119.808 540.849 120.317C540.505 120.807 539.794 121.053 539.205 121.053Z" fill="url(#paint13_linear_329_1157)"/>
<path d="M538.35 127.332C538.35 127.332 538.031 122.867 539.895 118.451C541.76 114.035 549.905 103.609 551.524 104.835C553.143 106.062 547.721 112.195 547.721 112.195C547.721 112.195 554.321 106.896 555.229 107.51C556.774 108.515 549.439 114.256 549.316 115.238C549.316 115.238 555.916 108.614 556.75 109.276C558.639 110.772 552.8 113.937 551.549 116.955C551.303 117.544 557.682 111.631 558.909 112.416C560.135 113.201 553.266 119.58 553.266 119.776C553.364 122.745 550.003 125.885 546.2 126.744L542.005 152.038C541.739 153.617 541.156 155.127 540.292 156.476C539.427 157.825 538.3 158.986 536.976 159.888L521.692 170.266C521.692 170.266 520.833 158.514 517.03 153.51L531.554 148.971L538.35 127.332ZM470.687 147.818L469.436 159.594C469.436 159.594 481.383 163.347 487.639 159.03L486.29 148.456L470.687 147.818Z" fill="url(#paint14_linear_329_1157)"/>
<path d="M477.626 151.498C477.626 151.498 499.46 158.22 496.958 134.497C494.455 110.773 479.367 116.735 478.68 117.323C477.994 117.912 466.389 126.867 467.812 131.626C469.235 136.386 477.626 151.498 477.626 151.498Z" fill="url(#paint15_linear_329_1157)"/>
<path d="M484.597 133.345C484.597 133.345 477.556 130.94 476.992 137.295C476.428 143.649 484.499 141.686 484.499 141.686L478.979 150.052C478.979 150.052 470.589 151.72 465.265 145.611C465.265 145.611 439.431 119.778 473.508 109.842C473.508 109.842 475.667 101.231 490.559 110.161C505.451 119.091 484.597 133.345 484.597 133.345Z" fill="url(#paint16_linear_329_1157)"/>
<path d="M495.246 126.179L501.085 133.76L497.16 137.489L495.246 126.179Z" fill="url(#paint17_linear_329_1157)"/>
<path d="M489.553 134.201C489.559 134.57 489.708 134.922 489.969 135.183C490.23 135.444 490.582 135.594 490.951 135.6C491.318 135.593 491.667 135.443 491.924 135.182C492.181 134.92 492.325 134.568 492.325 134.201C492.325 133.837 492.18 133.488 491.923 133.23C491.665 132.972 491.315 132.828 490.951 132.828C490.584 132.828 490.232 132.972 489.971 133.229C489.709 133.485 489.559 133.835 489.553 134.201Z" fill="black"/>
<path d="M483.171 139.085C483.121 139.086 483.071 139.072 483.027 139.046C482.984 139.02 482.949 138.982 482.926 138.937C481.822 136.926 479.516 135.674 479.491 135.65C479.451 135.636 479.414 135.614 479.383 135.585C479.352 135.556 479.328 135.52 479.312 135.481C479.296 135.441 479.289 135.399 479.291 135.356C479.294 135.314 479.305 135.272 479.325 135.234C479.344 135.197 479.372 135.164 479.406 135.138C479.439 135.112 479.478 135.094 479.52 135.084C479.561 135.075 479.604 135.074 479.646 135.083C479.688 135.092 479.727 135.109 479.761 135.135C479.859 135.184 482.239 136.484 483.441 138.643C483.477 138.715 483.485 138.798 483.462 138.876C483.439 138.953 483.388 139.019 483.318 139.06H483.171" fill="#F47847"/>
<path d="M487.834 134.301C487.787 134.298 487.741 134.286 487.699 134.265C487.656 134.244 487.619 134.214 487.589 134.178C487.374 133.772 487.305 133.304 487.393 132.853C487.589 131.97 488.325 131.087 489.576 130.253C489.642 130.212 489.722 130.197 489.799 130.21C489.875 130.224 489.945 130.265 489.993 130.326C490.031 130.396 490.043 130.477 490.024 130.554C490.006 130.631 489.96 130.699 489.895 130.744C487.245 132.485 488.055 133.81 488.079 133.859C488.102 133.889 488.118 133.924 488.127 133.96C488.136 133.997 488.136 134.035 488.129 134.072C488.123 134.109 488.108 134.144 488.087 134.175C488.065 134.206 488.038 134.232 488.006 134.252L487.834 134.301Z" fill="black"/>
<path d="M486.78 152.186C486.78 152.186 483.247 152.628 480.695 152.137C480.695 152.137 482.952 154.517 487.099 154.787L486.78 152.186Z" fill="#F9AB8D"/>
<path d="M494.922 140.778C494.75 142.005 493.965 144.581 490.604 144.262C490.212 140.827 486.434 139.846 486.434 139.846C486.457 139.67 486.498 139.498 486.556 139.331C488.323 139.993 492.788 141.539 494.922 140.778Z" fill="black"/>
<path d="M494.979 140.139C494.975 140.353 494.959 140.566 494.93 140.777C492.796 141.538 488.331 139.992 486.564 139.33C486.645 139.054 486.744 138.783 486.859 138.52L494.979 140.139Z" fill="white"/>
<path d="M490.603 144.261L489.793 144.139C486.383 143.452 486.162 141.268 486.432 139.845C486.432 139.845 490.21 140.827 490.603 144.261Z" fill="#F45C36"/>
<path d="M484.598 133.344C484.598 133.344 491.492 127.309 494.288 124.708C494.393 124.61 494.52 124.54 494.658 124.504C494.797 124.467 494.942 124.466 495.081 124.5C495.22 124.534 495.348 124.603 495.454 124.699C495.56 124.795 495.64 124.916 495.687 125.052C496.496 127.456 497.993 132.559 496.962 134.497C495.589 137.073 491.835 138.422 487.64 137.49L484.598 133.344Z" fill="black"/>
<path d="M490.256 137.17C489.498 137.169 488.743 137.095 487.999 136.949L485.398 133.417C486.944 132.067 492.317 127.357 494.697 125.149C494.718 125.125 494.745 125.106 494.774 125.093C494.804 125.08 494.836 125.074 494.868 125.075C494.922 125.077 494.973 125.093 495.017 125.124C495.061 125.155 495.094 125.197 495.114 125.247C496.586 129.639 497.076 133 496.414 134.202C495.433 136.042 493.077 137.17 490.256 137.17Z" fill="#2B0C3F"/>
<path d="M484.599 133.344C484.599 133.344 480.159 130.547 476.651 134.006C473.142 137.465 481.41 145.218 481.41 145.218C481.41 145.218 485.188 144.604 487.641 137.49L484.599 133.344Z" fill="white"/>
<path d="M485.749 138.495C485.706 138.537 485.656 138.569 485.6 138.591C485.544 138.612 485.485 138.622 485.425 138.62C485.365 138.617 485.307 138.603 485.253 138.577C485.199 138.552 485.151 138.516 485.111 138.471L481.873 135.036C481.831 134.991 481.798 134.938 481.776 134.881C481.755 134.823 481.745 134.762 481.747 134.7C481.749 134.638 481.764 134.578 481.79 134.522C481.815 134.466 481.852 134.416 481.898 134.374C481.94 134.332 481.991 134.3 482.047 134.279C482.103 134.257 482.162 134.248 482.222 134.25C482.281 134.252 482.34 134.266 482.394 134.292C482.448 134.318 482.496 134.354 482.535 134.398L485.774 137.833C485.816 137.878 485.849 137.931 485.87 137.989C485.892 138.046 485.902 138.108 485.9 138.169C485.897 138.231 485.883 138.292 485.857 138.348C485.831 138.403 485.795 138.454 485.749 138.495ZM484.228 139.918C484.142 139.999 484.028 140.045 483.909 140.045C483.791 140.045 483.677 139.999 483.59 139.918L480.352 136.459C480.271 136.373 480.226 136.259 480.226 136.14C480.226 136.022 480.271 135.908 480.352 135.821C480.442 135.739 480.561 135.693 480.683 135.693C480.806 135.693 480.924 135.739 481.014 135.821L484.253 139.281C484.294 139.323 484.327 139.374 484.348 139.43C484.369 139.486 484.379 139.545 484.377 139.605C484.374 139.664 484.36 139.723 484.335 139.777C484.309 139.831 484.273 139.879 484.228 139.918ZM482.707 141.366C482.662 141.408 482.609 141.441 482.552 141.463C482.494 141.484 482.432 141.494 482.371 141.492C482.309 141.49 482.249 141.475 482.193 141.449C482.137 141.423 482.086 141.387 482.045 141.341L478.806 137.907C478.727 137.813 478.685 137.693 478.69 137.571C478.694 137.448 478.745 137.332 478.831 137.244C478.876 137.202 478.929 137.169 478.986 137.148C479.044 137.126 479.106 137.116 479.167 137.118C479.229 137.121 479.289 137.135 479.345 137.161C479.401 137.187 479.452 137.223 479.493 137.269L482.732 140.703C482.811 140.797 482.853 140.917 482.848 141.039C482.844 141.162 482.793 141.279 482.707 141.366Z" fill="black"/>
<path d="M440.898 163.79C440.898 163.79 489.106 154.173 501.079 157.485C513.051 160.797 512.879 255.937 512.879 255.937C512.879 255.937 481.231 264.156 444.996 258.366C444.996 258.366 445.462 221.517 445.437 193.23C445.437 179.59 441.389 170.929 440.898 163.79Z" fill="url(#paint18_linear_329_1157)"/>
<path d="M500.562 157.361C500.562 157.361 517.024 152.7 521.563 150.05C521.563 150.05 527.328 163.396 524.016 171.419L500.562 184.618V157.361Z" fill="#F5A728"/>
<path d="M440.903 163.791L415.535 175.861L421.595 197.082L448.238 193.451L440.903 163.791Z" fill="#F5A728"/>
<path d="M754.369 346.465H611.462C610.58 346.465 609.705 346.291 608.89 345.953C608.074 345.615 607.333 345.12 606.709 344.496C606.085 343.872 605.59 343.131 605.252 342.315C604.914 341.5 604.74 340.626 604.74 339.743V305.421C604.747 303.642 605.458 301.939 606.718 300.683C607.978 299.428 609.684 298.723 611.462 298.723H754.369C756.148 298.723 757.854 299.428 759.114 300.683C760.374 301.939 761.085 303.642 761.091 305.421V339.743C761.091 340.626 760.917 341.5 760.58 342.315C760.242 343.131 759.747 343.872 759.122 344.496C758.498 345.12 757.757 345.615 756.942 345.953C756.126 346.291 755.252 346.465 754.369 346.465Z" fill="url(#paint19_linear_329_1157)"/>
<path d="M648.674 338.834H615.161C614.634 338.834 614.129 338.625 613.756 338.252C613.383 337.879 613.174 337.374 613.174 336.847V308.315C613.18 307.792 613.392 307.293 613.764 306.925C614.136 306.558 614.638 306.352 615.161 306.352H648.674C649.194 306.352 649.693 306.559 650.061 306.927C650.429 307.295 650.636 307.794 650.636 308.315V336.847C650.639 337.107 650.591 337.365 650.494 337.606C650.397 337.847 650.253 338.066 650.07 338.251C649.888 338.436 649.67 338.582 649.43 338.682C649.191 338.783 648.933 338.834 648.674 338.834Z" fill="white"/>
<path d="M644.087 319.331L631.919 326.691L619.75 319.331H644.087Z" fill="#FA7F1B"/>
<path d="M644.087 319.331V334.026H619.75V319.331L631.919 326.691L644.087 319.331Z" fill="#F5A728"/>
<path d="M619.75 319.332L631.919 311.138L644.087 319.332H619.75Z" fill="#F5A728"/>
<path d="M753.577 306.795H659.639V310.404H753.577V306.795Z" fill="url(#paint20_linear_329_1157)"/>
<path d="M749.679 317.149H663.052C662.952 317.142 662.858 317.098 662.79 317.025C662.721 316.952 662.683 316.856 662.684 316.756C662.684 316.659 662.722 316.565 662.791 316.496C662.86 316.427 662.954 316.388 663.052 316.388H749.679C749.776 316.388 749.87 316.427 749.939 316.496C750.008 316.565 750.047 316.659 750.047 316.756C750.047 316.856 750.009 316.952 749.941 317.025C749.872 317.098 749.779 317.142 749.679 317.149ZM749.679 323.478H663.052C662.954 323.478 662.86 323.44 662.791 323.371C662.722 323.302 662.684 323.208 662.684 323.11C662.683 323.01 662.721 322.914 662.79 322.841C662.858 322.768 662.952 322.724 663.052 322.718H749.679C749.779 322.724 749.872 322.768 749.941 322.841C750.009 322.914 750.047 323.01 750.047 323.11C750.047 323.208 750.008 323.302 749.939 323.371C749.87 323.44 749.776 323.478 749.679 323.478ZM749.679 329.832H663.052C662.954 329.832 662.86 329.794 662.791 329.725C662.722 329.656 662.684 329.562 662.684 329.464C662.683 329.364 662.721 329.268 662.79 329.195C662.858 329.122 662.952 329.078 663.052 329.072H749.679C749.779 329.078 749.872 329.122 749.941 329.195C750.009 329.268 750.047 329.364 750.047 329.464C750.047 329.562 750.008 329.656 749.939 329.725C749.87 329.794 749.776 329.832 749.679 329.832ZM749.679 336.187H663.052C662.954 336.187 662.86 336.148 662.791 336.079C662.722 336.01 662.684 335.916 662.684 335.819C662.683 335.719 662.721 335.622 662.79 335.549C662.858 335.476 662.952 335.432 663.052 335.426H749.679C749.779 335.432 749.872 335.476 749.941 335.549C750.009 335.622 750.047 335.719 750.047 335.819C750.047 335.916 750.008 336.01 749.939 336.079C749.87 336.148 749.776 336.187 749.679 336.187Z" fill="white"/>
<path d="M280.599 409.173C280.599 408.513 280.403 407.868 280.037 407.319C279.67 406.771 279.149 406.343 278.539 406.09C277.929 405.838 277.259 405.772 276.611 405.901C275.964 406.029 275.37 406.347 274.903 406.814C274.436 407.28 274.119 407.875 273.99 408.522C273.861 409.169 273.927 409.84 274.18 410.45C274.432 411.059 274.86 411.581 275.409 411.947C275.957 412.314 276.602 412.51 277.262 412.51C278.147 412.51 278.996 412.158 279.622 411.532C280.247 410.907 280.599 410.058 280.599 409.173ZM394.777 409.173C394.777 408.513 394.581 407.868 394.215 407.319C393.848 406.771 393.327 406.343 392.717 406.09C392.108 405.838 391.437 405.772 390.79 405.901C390.142 406.029 389.548 406.347 389.081 406.814C388.615 407.28 388.297 407.875 388.168 408.522C388.039 409.169 388.105 409.84 388.358 410.45C388.611 411.059 389.038 411.581 389.587 411.947C390.136 412.314 390.781 412.51 391.441 412.51C392.325 412.51 393.174 412.158 393.8 411.532C394.426 410.907 394.777 410.058 394.777 409.173Z" fill="#FA7F1B"/>
<path d="M386.317 405.05H282.37L272.458 413.023L270.029 424.137H398.682L396.253 413.023L386.317 405.05Z" fill="url(#paint21_linear_329_1157)"/>
<path d="M283.032 414.104H280.604V422.902H283.032V414.104Z" fill="#FA7F1B"/>
<path d="M294.831 414.104H292.402V422.902H294.831V414.104Z" fill="#FA7F1B"/>
<path d="M306.63 414.104H304.201V422.902H306.63V414.104Z" fill="#FA7F1B"/>
<path d="M318.431 414.104H316.002V422.902H318.431V414.104Z" fill="#FA7F1B"/>
<path d="M330.257 414.104H327.828V422.902H330.257V414.104Z" fill="#FA7F1B"/>
<path d="M342.056 414.104H339.627V422.902H342.056V414.104Z" fill="#FA7F1B"/>
<path d="M353.858 414.104H351.43V422.902H353.858V414.104Z" fill="#FA7F1B"/>
<path d="M365.683 414.104H363.254V422.902H365.683V414.104Z" fill="#FA7F1B"/>
<path d="M377.483 414.104H375.055V422.902H377.483V414.104Z" fill="#FA7F1B"/>
<path d="M389.282 414.104H386.854V422.902H389.282V414.104Z" fill="#FA7F1B"/>
<path d="M594.943 409.173C594.943 408.513 594.747 407.868 594.38 407.319C594.014 406.771 593.493 406.343 592.883 406.09C592.273 405.838 591.602 405.772 590.955 405.901C590.308 406.029 589.713 406.347 589.247 406.814C588.78 407.28 588.462 407.875 588.334 408.522C588.205 409.169 588.271 409.84 588.523 410.45C588.776 411.059 589.204 411.581 589.752 411.947C590.301 412.314 590.946 412.51 591.606 412.51C592.045 412.513 592.48 412.429 592.887 412.262C593.293 412.096 593.662 411.85 593.973 411.54C594.283 411.229 594.529 410.86 594.695 410.454C594.862 410.047 594.946 409.612 594.943 409.173ZM709.145 409.173C709.145 408.513 708.95 407.868 708.583 407.319C708.216 406.771 707.695 406.343 707.086 406.09C706.476 405.838 705.805 405.772 705.158 405.901C704.511 406.029 703.916 406.347 703.45 406.814C702.983 407.28 702.665 407.875 702.536 408.522C702.408 409.169 702.474 409.84 702.726 410.45C702.979 411.059 703.406 411.581 703.955 411.947C704.504 412.314 705.149 412.51 705.809 412.51C706.694 412.51 707.542 412.158 708.168 411.532C708.794 410.907 709.145 410.058 709.145 409.173Z" fill="#FA7F1B"/>
<path d="M700.688 405.05H596.74L586.804 413.023L584.375 424.137H713.052L710.599 413.023L700.688 405.05Z" fill="url(#paint22_linear_329_1157)"/>
<path d="M597.376 414.104H594.947V422.902H597.376V414.104Z" fill="#FA7F1B"/>
<path d="M609.198 414.104H606.77V422.902H609.198V414.104Z" fill="#FA7F1B"/>
<path d="M620.997 414.104H618.568V422.902H620.997V414.104Z" fill="#FA7F1B"/>
<path d="M632.802 414.104H630.373V422.902H632.802V414.104Z" fill="#FA7F1B"/>
<path d="M644.601 414.104H642.172V422.902H644.601V414.104Z" fill="#FA7F1B"/>
<path d="M656.423 414.104H653.994V422.902H656.423V414.104Z" fill="#FA7F1B"/>
<path d="M668.224 414.104H665.795V422.902H668.224V414.104Z" fill="#FA7F1B"/>
<path d="M680.026 414.104H677.598V422.902H680.026V414.104Z" fill="#FA7F1B"/>
<path d="M691.827 414.104H689.398V422.902H691.827V414.104Z" fill="#FA7F1B"/>
<path d="M703.657 414.104H701.229V422.902H703.657V414.104Z" fill="#FA7F1B"/>
<mask id="mask0_329_1157" style="mask-type:luminance" maskUnits="userSpaceOnUse" x="219" y="89" width="218" height="317">
<path d="M436.635 89.625H219V405.055H436.635V89.625Z" fill="white"/>
</mask>
<g mask="url(#mask0_329_1157)">
<mask id="mask1_329_1157" style="mask-type:luminance" maskUnits="userSpaceOnUse" x="218" y="89" width="219" height="317">
<path d="M287.373 405.051L218.998 89.6265H436.633L386.316 405.051H287.373Z" fill="white"/>
</mask>
<g mask="url(#mask1_329_1157)">
<mask id="mask2_329_1157" style="mask-type:luminance" maskUnits="userSpaceOnUse" x="213" y="86" width="229" height="323">
<path d="M436.546 86.2266L213.859 89.7248L218.869 408.589L441.555 405.091L436.546 86.2266Z" fill="url(#paint23_linear_329_1157)"/>
</mask>
<g mask="url(#mask2_329_1157)">
<path d="M436.546 86.2266L213.859 89.7248L218.869 408.589L441.555 405.091L436.546 86.2266Z" fill="url(#paint24_linear_329_1157)"/>
</g>
</g>
</g>
<mask id="mask3_329_1157" style="mask-type:luminance" maskUnits="userSpaceOnUse" x="533" y="89" width="219" height="317">
<path d="M751.005 89.6255H533.369V405.055H751.005V89.6255Z" fill="white"/>
</mask>
<g mask="url(#mask3_329_1157)">
<mask id="mask4_329_1157" style="mask-type:luminance" maskUnits="userSpaceOnUse" x="533" y="89" width="218" height="317">
<path d="M601.711 405.05L533.361 89.6255H750.997L700.679 405.05H601.711Z" fill="white"/>
</mask>
<g mask="url(#mask4_329_1157)">
<mask id="mask5_329_1157" style="mask-type:luminance" maskUnits="userSpaceOnUse" x="528" y="86" width="228" height="323">
<path d="M750.895 86.3691L528.209 89.8674L533.218 408.732L755.904 405.234L750.895 86.3691Z" fill="url(#paint25_linear_329_1157)"/>
</mask>
<g mask="url(#mask5_329_1157)">
<path d="M750.895 86.3691L528.209 89.8674L533.218 408.732L755.904 405.234L750.895 86.3691Z" fill="url(#paint26_linear_329_1157)"/>
</g>
</g>
</g>
<path d="M385.629 279.293L379.128 306.329L373.461 300.662L360.85 313.272L351.65 304.097L364.261 291.487L358.593 285.819L385.629 279.293Z" fill="url(#paint27_linear_329_1157)"/>
<path d="M374.635 261.09C374.215 261.242 373.752 261.225 373.344 261.042C372.936 260.859 372.616 260.524 372.452 260.108L369.753 253.043C369.599 252.624 369.616 252.162 369.801 251.756C369.986 251.35 370.324 251.034 370.74 250.875C371.157 250.717 371.62 250.73 372.028 250.91C372.435 251.091 372.755 251.425 372.918 251.841L375.616 258.906C375.769 259.326 375.752 259.789 375.569 260.197C375.386 260.605 375.051 260.925 374.635 261.09ZM367.815 265.285C367.632 265.695 367.295 266.015 366.876 266.176C366.458 266.337 365.992 266.325 365.582 266.144L358.688 263.052C358.476 262.968 358.283 262.842 358.121 262.682C357.959 262.521 357.831 262.33 357.745 262.118C357.659 261.907 357.616 261.681 357.619 261.453C357.623 261.225 357.672 261 357.765 260.791C357.858 260.583 357.992 260.395 358.159 260.24C358.326 260.084 358.522 259.964 358.737 259.886C358.951 259.809 359.179 259.776 359.407 259.788C359.635 259.801 359.858 259.86 360.062 259.961L366.956 263.052C367.361 263.24 367.678 263.578 367.838 263.995C367.998 264.411 367.99 264.874 367.815 265.285ZM382.51 259.691C382.921 259.866 383.384 259.875 383.801 259.715C384.217 259.554 384.555 259.238 384.743 258.833L387.834 251.939C387.935 251.734 387.994 251.511 388.007 251.284C388.02 251.056 387.986 250.828 387.909 250.613C387.831 250.399 387.711 250.202 387.556 250.035C387.4 249.868 387.213 249.734 387.004 249.641C386.796 249.549 386.571 249.499 386.342 249.496C386.114 249.492 385.888 249.535 385.677 249.621C385.465 249.707 385.274 249.836 385.113 249.998C384.953 250.16 384.827 250.353 384.743 250.565L381.652 257.459C381.47 257.869 381.458 258.334 381.619 258.753C381.78 259.171 382.101 259.509 382.51 259.691Z" fill="white"/>
<path d="M671.465 209.299C671.47 211.644 670.778 213.939 669.478 215.891C668.178 217.844 666.327 219.366 664.161 220.266C661.995 221.166 659.61 221.403 657.31 220.946C655.009 220.49 652.895 219.361 651.236 217.702C649.578 216.043 648.449 213.93 647.992 211.629C647.536 209.328 647.772 206.943 648.672 204.777C649.572 202.611 651.095 200.761 653.047 199.46C655 198.16 657.294 197.469 659.64 197.474C662.776 197.474 665.784 198.72 668.001 200.937C670.219 203.155 671.465 206.163 671.465 209.299Z" fill="url(#paint28_linear_329_1157)"/>
<path d="M657.996 214.671C657.81 214.675 657.628 214.614 657.481 214.5L653.433 211.654C653.235 211.514 653.1 211.301 653.058 211.062C653.017 210.822 653.072 210.576 653.212 210.378C653.352 210.18 653.565 210.045 653.804 210.003C654.044 209.962 654.289 210.017 654.488 210.157L657.824 212.537L664.596 204.269C664.67 204.176 664.761 204.098 664.866 204.04C664.97 203.982 665.085 203.945 665.203 203.931C665.321 203.918 665.441 203.927 665.556 203.96C665.671 203.993 665.778 204.048 665.871 204.122C666.062 204.276 666.184 204.499 666.211 204.742C666.239 204.985 666.17 205.23 666.019 205.422L658.708 214.328C658.623 214.435 658.514 214.522 658.391 214.581C658.268 214.641 658.133 214.671 657.996 214.671Z" fill="white"/>
<path d="M247.357 142.053C247.357 144.398 246.662 146.69 245.359 148.639C244.056 150.588 242.203 152.107 240.037 153.003C237.87 153.899 235.486 154.133 233.187 153.673C230.888 153.214 228.776 152.083 227.12 150.423C225.464 148.764 224.337 146.65 223.883 144.35C223.428 142.05 223.667 139.666 224.567 137.502C225.468 135.337 226.991 133.488 228.942 132.189C230.894 130.89 233.188 130.199 235.532 130.204C237.087 130.204 238.627 130.51 240.063 131.106C241.5 131.702 242.804 132.575 243.903 133.676C245.001 134.776 245.872 136.083 246.464 137.52C247.057 138.958 247.361 140.498 247.357 142.053Z" fill="#F5A728"/>
<path d="M233.891 147.427C233.704 147.43 233.522 147.37 233.375 147.255L229.327 144.409C229.229 144.34 229.146 144.252 229.081 144.15C229.017 144.048 228.973 143.935 228.953 143.817C228.932 143.698 228.935 143.577 228.962 143.46C228.988 143.342 229.037 143.231 229.107 143.133C229.176 143.035 229.264 142.951 229.365 142.887C229.467 142.823 229.58 142.779 229.699 142.759C229.817 142.738 229.939 142.741 230.056 142.767C230.173 142.794 230.284 142.843 230.382 142.912L233.719 145.268L240.49 137C240.566 136.906 240.659 136.829 240.765 136.771C240.871 136.714 240.987 136.678 241.106 136.666C241.226 136.653 241.347 136.664 241.462 136.698C241.577 136.733 241.685 136.789 241.778 136.865C241.872 136.941 241.949 137.034 242.007 137.14C242.064 137.245 242.1 137.361 242.112 137.481C242.125 137.601 242.114 137.721 242.08 137.837C242.045 137.952 241.989 138.059 241.913 138.153L234.602 147.083C234.517 147.19 234.409 147.277 234.286 147.336C234.163 147.396 234.027 147.427 233.891 147.427Z" fill="white"/>
<defs>
<linearGradient id="paint0_linear_329_1157" x1="490" y1="-49" x2="490" y2="549" gradientUnits="userSpaceOnUse">
<stop offset="0.0239582" stop-color="#528AF8"/>
<stop offset="1" stop-color="#092DA9"/>
</linearGradient>
<linearGradient id="paint1_linear_329_1157" x1="799" y1="461.055" x2="807.43" y2="461.055" gradientUnits="userSpaceOnUse">
<stop stop-color="white"/>
<stop offset="1" stop-color="white" stop-opacity="0.82"/>
</linearGradient>
<linearGradient id="paint2_linear_329_1157" x1="807.43" y1="470.528" x2="832.716" y2="470.528" gradientUnits="userSpaceOnUse">
<stop stop-color="white"/>
<stop offset="1" stop-color="white" stop-opacity="0.82"/>
</linearGradient>
<linearGradient id="paint3_linear_329_1157" x1="807.574" y1="451.543" x2="832.656" y2="451.543" gradientUnits="userSpaceOnUse">
<stop stop-color="white"/>
<stop offset="1" stop-color="white" stop-opacity="0.82"/>
</linearGradient>
<linearGradient id="paint4_linear_329_1157" x1="568.564" y1="66" x2="568.564" y2="166.489" gradientUnits="userSpaceOnUse">
<stop stop-color="#2B0C3F"/>
<stop offset="1" stop-color="white" stop-opacity="0"/>
</linearGradient>
<linearGradient id="paint5_linear_329_1157" x1="528.908" y1="283.808" x2="528.908" y2="386.283" gradientUnits="userSpaceOnUse">
<stop stop-color="#FFE3CC"/>
<stop offset="1" stop-color="#FA7F1B"/>
</linearGradient>
<linearGradient id="paint6_linear_329_1157" x1="522.416" y1="283.808" x2="522.416" y2="386.397" gradientUnits="userSpaceOnUse">
<stop stop-color="#FFF9F0"/>
<stop offset="1" stop-color="#F5A728"/>
</linearGradient>
<linearGradient id="paint7_linear_329_1157" x1="537.848" y1="124.306" x2="693.848" y2="116.306" gradientUnits="userSpaceOnUse">
<stop stop-color="#289FF5"/>
<stop offset="1" stop-color="#FFF9EF"/>
</linearGradient>
<linearGradient id="paint8_linear_329_1157" x1="592" y1="104" x2="686" y2="102" gradientUnits="userSpaceOnUse">
<stop stop-color="#FA7F1B"/>
<stop offset="1" stop-color="white" stop-opacity="0"/>
</linearGradient>
<linearGradient id="paint9_linear_329_1157" x1="236" y1="172" x2="396" y2="172" gradientUnits="userSpaceOnUse">
<stop stop-color="#56187E"/>
<stop offset="1" stop-color="#56187E" stop-opacity="0"/>
</linearGradient>
<linearGradient id="paint10_linear_329_1157" x1="457.402" y1="245.757" x2="457.402" y2="402.279" gradientUnits="userSpaceOnUse">
<stop stop-color="#56187E"/>
<stop offset="1" stop-color="#8B4AB5"/>
</linearGradient>
<linearGradient id="paint11_linear_329_1157" x1="492.276" y1="251.104" x2="492.276" y2="402.279" gradientUnits="userSpaceOnUse">
<stop stop-color="#56187E"/>
<stop offset="1" stop-color="#8B4AB5"/>
</linearGradient>
<linearGradient id="paint12_linear_329_1157" x1="446.62" y1="195.608" x2="375.972" y2="168.515" gradientUnits="userSpaceOnUse">
<stop stop-color="white"/>
<stop offset="0.84427" stop-color="#FFC4C4"/>
</linearGradient>
<linearGradient id="paint13_linear_329_1157" x1="598.718" y1="167.302" x2="447.951" y2="73.4278" gradientUnits="userSpaceOnUse">
<stop stop-color="white"/>
<stop offset="0.84427" stop-color="#FFC4C4"/>
</linearGradient>
<linearGradient id="paint14_linear_329_1157" x1="588.926" y1="170.589" x2="485.616" y2="141.087" gradientUnits="userSpaceOnUse">
<stop stop-color="white"/>
<stop offset="0.84427" stop-color="#FFC4C4"/>
</linearGradient>
<linearGradient id="paint15_linear_329_1157" x1="506.979" y1="152.556" x2="471.276" y2="146.479" gradientUnits="userSpaceOnUse">
<stop stop-color="white"/>
<stop offset="0.84427" stop-color="#FFC4C4"/>
</linearGradient>
<linearGradient id="paint16_linear_329_1157" x1="458.908" y1="113.283" x2="485.127" y2="149.781" gradientUnits="userSpaceOnUse">
<stop stop-color="#202C8A"/>
<stop offset="0.894287" stop-color="#0E133C"/>
</linearGradient>
<linearGradient id="paint17_linear_329_1157" x1="503.031" y1="137.545" x2="495.835" y2="136.769" gradientUnits="userSpaceOnUse">
<stop stop-color="white"/>
<stop offset="0.84427" stop-color="#FFC4C4"/>
</linearGradient>
<linearGradient id="paint18_linear_329_1157" x1="476.889" y1="156.791" x2="476.889" y2="260.432" gradientUnits="userSpaceOnUse">
<stop stop-color="#FFA005"/>
<stop offset="1" stop-color="#FCD79C"/>
</linearGradient>
<linearGradient id="paint19_linear_329_1157" x1="605" y1="331" x2="761" y2="323" gradientUnits="userSpaceOnUse">
<stop stop-color="#289FF5"/>
<stop offset="1" stop-color="#FFF9EF"/>
</linearGradient>
<linearGradient id="paint20_linear_329_1157" x1="660" y1="310" x2="758" y2="309" gradientUnits="userSpaceOnUse">
<stop stop-color="#FA7F1B"/>
<stop offset="1" stop-color="white" stop-opacity="0"/>
</linearGradient>
<linearGradient id="paint21_linear_329_1157" x1="334.356" y1="405.05" x2="334.356" y2="424.137" gradientUnits="userSpaceOnUse">
<stop stop-color="#FFF2DE"/>
<stop offset="1" stop-color="#F5A728"/>
</linearGradient>
<linearGradient id="paint22_linear_329_1157" x1="648.714" y1="405.05" x2="648.714" y2="424.137" gradientUnits="userSpaceOnUse">
<stop stop-color="#FFF2DE"/>
<stop offset="1" stop-color="#F5A728"/>
</linearGradient>
<linearGradient id="paint23_linear_329_1157" x1="325.186" y1="111.72" x2="330.471" y2="448.132" gradientUnits="userSpaceOnUse">
<stop/>
<stop offset="0.33"/>
<stop offset="1" stop-color="white"/>
</linearGradient>
<linearGradient id="paint24_linear_329_1157" x1="325.16" y1="111.59" x2="330.444" y2="448.002" gradientUnits="userSpaceOnUse">
<stop stop-color="white"/>
<stop offset="0.33" stop-color="white"/>
<stop offset="1" stop-color="white"/>
</linearGradient>
<linearGradient id="paint25_linear_329_1157" x1="638.756" y1="110.898" x2="644.041" y2="447.31" gradientUnits="userSpaceOnUse">
<stop/>
<stop offset="0.33"/>
<stop offset="1" stop-color="white"/>
</linearGradient>
<linearGradient id="paint26_linear_329_1157" x1="638.73" y1="110.766" x2="644.015" y2="447.178" gradientUnits="userSpaceOnUse">
<stop stop-color="white"/>
<stop offset="0.33" stop-color="white"/>
<stop offset="1" stop-color="white"/>
</linearGradient>
<linearGradient id="paint27_linear_329_1157" x1="380.5" y1="287.5" x2="352" y2="313" gradientUnits="userSpaceOnUse">
<stop stop-color="#FA7F1B"/>
<stop offset="1" stop-color="#FCE7D5"/>
</linearGradient>
<linearGradient id="paint28_linear_329_1157" x1="659.615" y1="197.474" x2="659.615" y2="221.173" gradientUnits="userSpaceOnUse">
<stop stop-color="#F5A728"/>
<stop offset="1" stop-color="white" stop-opacity="0.46"/>
</linearGradient>
<clipPath id="clip0_329_1157">
<rect width="160.567" height="38" fill="white" transform="translate(799 442)"/>
</clipPath>
</defs>
</svg>
