<svg width="980" height="500" viewBox="0 0 980 500" fill="none" xmlns="http://www.w3.org/2000/svg">
<rect width="980" height="500" fill="url(#paint0_linear_333_1850)"/>
<g clip-path="url(#clip0_333_1850)">
<path d="M848.688 467.15C847.638 467.181 846.599 466.917 845.691 466.387C844.86 465.875 844.194 465.133 843.775 464.251C843.312 463.258 843.084 462.171 843.107 461.076C843.084 459.979 843.312 458.892 843.775 457.898C844.194 457.015 844.86 456.273 845.691 455.762C846.599 455.232 847.638 454.967 848.688 454.998C849.89 454.954 851.072 455.308 852.051 456.005C852.958 456.686 853.624 457.638 853.952 458.723L851.983 459.267C851.794 458.566 851.388 457.942 850.824 457.485C850.206 457.035 849.452 456.811 848.688 456.852C847.998 456.826 847.316 457.009 846.731 457.378C846.199 457.743 845.79 458.261 845.558 458.863C845.282 459.575 845.146 460.333 845.157 461.097C845.14 461.859 845.274 462.617 845.549 463.327C845.785 463.932 846.199 464.45 846.737 464.813C847.323 465.181 848.006 465.364 848.697 465.338C849.459 465.372 850.208 465.143 850.821 464.691C851.384 464.233 851.79 463.609 851.98 462.909L853.952 463.425C853.627 464.509 852.965 465.461 852.063 466.143C851.08 466.843 849.894 467.197 848.688 467.15Z" fill="white"/>
<path d="M856.094 466.91V455.239H860.915C861.031 455.239 861.176 455.239 861.354 455.239C861.52 455.247 861.684 455.264 861.847 455.292C862.455 455.368 863.032 455.6 863.523 455.967C863.959 456.308 864.298 456.759 864.503 457.274C864.72 457.833 864.828 458.429 864.821 459.029C864.844 459.901 864.593 460.759 864.102 461.48C863.84 461.832 863.508 462.126 863.127 462.344C862.747 462.562 862.325 462.7 861.889 462.748L861.054 462.819H858.048V466.91H856.094ZM858.048 461.01H860.834C860.944 461.01 861.063 461.01 861.2 460.993C861.326 460.984 861.45 460.962 861.571 460.927C861.864 460.866 862.132 460.717 862.337 460.5C862.522 460.3 862.658 460.061 862.736 459.802C862.811 459.555 862.85 459.299 862.851 459.041C862.85 458.781 862.811 458.523 862.736 458.275C862.658 458.014 862.522 457.774 862.337 457.574C862.131 457.358 861.863 457.21 861.571 457.149C861.45 457.117 861.325 457.098 861.2 457.09C861.063 457.09 860.944 457.09 860.834 457.09H858.048V461.01ZM862.801 466.91L860.502 462.157L862.486 461.72L865.014 466.907L862.801 466.91Z" fill="white"/>
<path d="M867.164 466.91V455.239H874.7V457.072H869.116V459.947H873.726V461.78H869.116V465.077H874.7V466.91H867.164Z" fill="white"/>
<path d="M876.207 466.91L879.884 455.239H882.745L886.425 466.91H884.414L881.075 456.439H881.515L878.218 466.91H876.207ZM878.257 464.379V462.558H884.381V464.379H878.257Z" fill="white"/>
<path d="M890.088 466.91V457.072H886.312V455.239H895.818V457.072H892.039V466.91H890.088Z" fill="white"/>
<path d="M897.645 466.91V455.239H899.596V466.91H897.645Z" fill="white"/>
<path d="M905.044 466.91L901.352 455.239H903.36L906.44 465.012L909.559 455.239H911.579L907.889 466.91H905.044Z" fill="white"/>
<path d="M913.156 466.91V455.239H920.692V457.072H915.111V459.947H919.721V461.78H915.111V465.077H920.692V466.91H913.156Z" fill="white"/>
<path d="M923.16 466.91V455.239H925.112V466.91H923.16Z" fill="white"/>
<path d="M930.728 466.91V457.072H926.953V455.239H936.458V457.072H932.68V466.91H930.728Z" fill="white"/>
<path d="M938.125 466.91V455.239H945.661V457.072H940.091V459.947H944.701V461.78H940.091V465.077H945.673V466.91H938.125Z" fill="white"/>
<path d="M947.98 466.91V455.239H949.739L953.773 463.506L957.809 455.239H959.565V466.91H957.744V459.43L954.162 466.91H953.384L949.819 459.43V466.91H947.98Z" fill="white"/>
<path d="M815.86 470.789L807.43 465.92V475.654L815.86 470.789Z" fill="white" fill-opacity="0.48"/>
<path d="M832.715 461.055L824.285 456.19V465.921L832.715 461.055Z" fill="white" fill-opacity="0.47"/>
<path d="M815.86 451.321L807.43 446.456V456.189L815.86 451.321Z" fill="white" fill-opacity="0.48"/>
<path d="M807.43 446.456L800.687 450.35C800.174 450.645 799.747 451.07 799.451 451.583C799.155 452.096 798.999 452.677 799 453.27V468.84C799 469.433 799.155 470.015 799.452 470.528C799.748 471.041 800.174 471.467 800.687 471.763L807.43 475.654V446.456Z" fill="url(#paint1_linear_333_1850)"/>
<path d="M832.716 468.84V461.055L807.43 475.654L814.172 479.549C814.685 479.845 815.266 480.001 815.858 480.001C816.45 480.001 817.031 479.845 817.544 479.549L831.032 471.763C831.545 471.467 831.97 471.04 832.266 470.527C832.561 470.014 832.717 469.433 832.716 468.84Z" fill="url(#paint2_linear_333_1850)"/>
<path d="M817.608 442.594C817.1 442.301 816.523 442.146 815.936 442.146C815.349 442.146 814.772 442.301 814.264 442.594L807.574 446.456L832.656 460.939V453.216C832.656 452.629 832.502 452.052 832.208 451.543C831.915 451.034 831.492 450.611 830.984 450.317L817.608 442.594Z" fill="url(#paint3_linear_333_1850)"/>
</g>
<path d="M639.192 439.934C639.203 429.742 573.95 421.411 493.447 421.327C412.944 421.242 347.675 429.437 347.664 439.629C347.653 449.822 412.905 458.152 493.409 458.237C573.912 458.321 639.181 450.127 639.192 439.934Z" fill="#4D579E"/>
<g opacity="0.44">
<path opacity="0.5" d="M419.788 420.426C419.173 420.426 418.645 420.181 418.572 419.844C418.489 419.474 418.982 419.134 419.67 419.083C442.541 417.389 468.377 416.516 494.388 416.561C495.082 416.561 495.63 416.863 495.614 417.236C495.598 417.608 495.025 417.908 494.33 417.908C468.437 417.863 442.723 418.732 419.966 420.42C419.906 420.426 419.848 420.426 419.788 420.426Z" fill="url(#paint4_linear_333_1850)"/>
<path opacity="0.5" d="M338.836 445.215C338.482 445.215 338.135 445.135 337.893 444.979C335.152 443.212 333.802 441.375 333.878 439.515C334.098 434.188 345.895 429.243 367.999 425.215C368.658 425.094 369.365 425.282 369.578 425.636C369.788 425.989 369.425 426.371 368.766 426.492C348.076 430.265 336.578 434.892 336.387 439.522C336.323 441.05 337.486 442.594 339.835 444.107C340.275 444.39 340.195 444.814 339.66 445.056C339.418 445.161 339.125 445.215 338.836 445.215Z" fill="url(#paint5_linear_333_1850)"/>
<path opacity="0.5" d="M411.514 459.683C411.447 459.683 411.383 459.679 411.317 459.673C390.079 457.823 371.869 455.25 358.655 452.235C358.021 452.092 357.738 451.697 358.018 451.353C358.298 451.009 359.04 450.85 359.674 450.993C372.706 453.967 390.719 456.511 411.762 458.342C412.444 458.403 412.896 458.746 412.772 459.116C412.663 459.447 412.119 459.683 411.514 459.683Z" fill="url(#paint6_linear_333_1850)"/>
<path opacity="0.5" d="M492.48 462.998C480.511 462.979 468.59 462.769 457.041 462.371C456.35 462.349 455.838 462.027 455.895 461.655C455.952 461.282 456.557 460.999 457.248 461.024C480.24 461.811 504.812 461.852 527.858 461.142C528.546 461.117 529.132 461.403 529.161 461.776C529.186 462.148 528.648 462.467 527.954 462.486C516.383 462.849 504.446 463.018 492.48 462.998Z" fill="url(#paint7_linear_333_1850)"/>
<path opacity="0.5" d="M570.066 460.251C569.455 460.251 568.929 460.009 568.85 459.675C568.764 459.305 569.251 458.965 569.935 458.91C590.546 457.299 608.644 455.007 622.266 452.281C622.919 452.151 623.635 452.326 623.867 452.676C624.1 453.023 623.756 453.411 623.103 453.542C609.313 456.303 591.036 458.617 570.251 460.245C570.19 460.248 570.13 460.251 570.066 460.251Z" fill="url(#paint8_linear_333_1850)"/>
<path opacity="0.5" d="M651.71 440.722C651.016 440.722 650.469 440.42 650.485 440.047C650.784 432.733 623.171 425.633 578.426 421.516C577.744 421.452 577.298 421.105 577.429 420.739C577.559 420.372 578.215 420.124 578.897 420.188C601.106 422.232 619.631 425.056 632.466 428.355C646.259 431.902 653.166 435.838 652.994 440.05C652.978 440.423 652.401 440.722 651.71 440.722Z" fill="url(#paint9_linear_333_1850)"/>
</g>
<path d="M623.214 439.956C623.223 433.297 565.123 427.82 493.444 427.724C421.765 427.627 363.65 432.948 363.641 439.607C363.632 446.267 421.732 451.744 493.411 451.84C565.09 451.936 623.205 446.616 623.214 439.956Z" fill="white"/>
<path d="M547.284 81.6768C547.284 81.6768 558.39 84.5424 558.107 93.5694C557.827 102.599 557.808 109.35 567.885 111.811C577.963 114.272 587.47 123.315 580.988 140.337C574.505 157.36 554.429 154.542 556.572 163.957C558.718 173.372 542.973 184.918 529.45 175.369C515.927 165.82 513.281 142.732 495.67 145.037C478.059 147.342 471.984 133.119 482.73 123.522C493.476 113.929 487.955 95.6327 506.216 99.2721C524.477 102.915 547.284 81.6768 547.284 81.6768Z" fill="url(#paint10_linear_333_1850)"/>
<path d="M560.314 111.108C550.119 105.211 547.536 96.5822 546.578 89.5422C545.619 82.5021 549.701 75.1723 549.701 75.1723C561.632 58.4463 545.568 42.7932 545.174 42.4112C545.17 42.4048 545.164 42.4048 545.164 42.4048C541.971 40.3924 538.56 39.2748 535.134 39.4722C531.937 37.8388 525.401 36.1862 511.037 42.685C496.674 49.1869 503.902 76.1308 504.163 76.7867C504.166 76.7931 504.166 76.7962 504.166 76.7962C504.166 76.7962 505.535 77.4936 507.009 78.7194C506.799 80.9579 506.271 83.1199 505.261 85.1099C504.64 86.3516 503.841 87.4961 502.889 88.5074C497.139 94.6399 489.229 90.3 482.247 90.7267C476.471 91.0801 472.233 95.1589 472.462 101.368C472.663 106.838 476.054 110.93 479.811 114.394C475.863 116.368 472.65 116.967 484.396 124.628C487.421 126.599 490.786 128.541 494.359 130.388C499.374 132.976 504.803 135.371 510.302 137.386C521.755 141.593 533.501 144.153 542.397 143.404C542.442 139.278 544.241 135.702 548.351 134.511C563.912 130.015 570.509 117.005 560.314 111.108ZM483.479 102.763C486.16 109.328 483.829 112.057 481.12 113.69C476.484 109.427 471.714 103.616 474.541 96.9802C477.146 90.8636 483.826 91.908 489.449 92.7613C483.858 93.0097 480.164 94.6367 483.479 102.763ZM505.732 86.9981C506.045 86.5014 506.331 85.9792 506.592 85.4283C507.449 83.6357 507.968 81.773 508.242 79.8689C509.579 81.2731 510.7 83.0976 510.553 85.2054C510.531 85.5621 510.474 85.9346 510.369 86.3135C510.053 87.4693 509.34 88.6952 508.079 89.9752C507.793 90.2618 507.484 90.5229 507.149 90.7585C504.911 92.3315 501.641 92.7231 498.208 92.7804C501.303 91.9207 503.892 89.9752 505.732 86.9981Z" fill="url(#paint11_linear_333_1850)"/>
<path d="M544.336 115.81C544.336 115.81 526.409 152.969 512.313 147.441C498.405 141.987 497.173 127.251 497.141 126.856V126.85C495.447 118.928 502.051 107.723 502.051 107.723C502.051 107.723 510.034 107.102 512.409 104.676C513.813 103.236 514.953 101.469 515.033 99.492C515.243 94.1682 514.307 91.4489 514.307 91.4489L531.411 84.9215L532.427 84.5363C532.405 84.584 532.214 84.998 531.911 85.6857C530.921 88.0006 528.8 93.4263 528.25 98.5972C528.221 98.8456 528.246 99.0717 528.304 99.2786V99.285C528.533 101.543 529.689 108.662 535.216 110.197C537.222 110.754 539.302 111.076 541.222 111.251C545.622 111.649 544.336 115.81 544.336 115.81Z" fill="url(#paint12_linear_333_1850)"/>
<path d="M528.216 98.8335C528.152 98.6074 528.126 98.359 528.158 98.0884C528.158 98.0884 528.168 98.3622 528.216 98.8335Z" fill="url(#paint13_linear_333_1850)"/>
<path d="M528.259 98.5946C528.806 93.4237 530.93 87.998 531.92 85.6831C531.758 85.4284 531.589 85.1769 531.421 84.9189L514.316 91.4463C514.316 91.4463 515.252 94.1656 515.042 99.4894C514.962 101.467 513.822 103.234 512.418 104.673C517.43 103.049 523.406 100.648 528.259 98.5946Z" fill="#F078A5"/>
<path d="M504.102 78.1777V78.2031C504.159 78.6903 505.079 86.5168 506.706 89.6786C508.273 92.7194 506.884 96.2124 511.202 96.6104C511.212 96.6104 511.224 96.6136 511.237 96.6104C517.494 96.8747 529.176 96.0532 530.303 94.3338C531.759 92.1017 535.462 84.9662 535.462 84.9662C535.462 84.9662 541.285 83.4728 541.693 80.7663C542.1 78.0598 543.899 74.4905 541.394 73.2837C540.922 73.0544 540.441 73.0417 539.958 73.1691C538.713 73.4907 537.442 74.7134 536.264 75.5762C536.258 75.5794 536.258 75.5794 536.254 75.5858C535.755 75.9488 535.28 76.2449 534.825 76.385C534.822 76.385 534.815 76.3882 534.809 76.3914C534.79 76.3946 534.777 76.4009 534.761 76.3977C534.596 76.4455 534.436 76.471 534.277 76.471H534.268C525.222 77.4612 517.825 60.8498 517.825 60.8498C517.647 60.4709 517.487 60.0983 517.344 59.7226C517.344 59.7226 509.167 63.0086 506.776 59.3564C506.143 61.2382 505.627 63.5658 506.171 65.2279C507.235 68.4884 505.117 70.4594 504.293 75.554C504.188 76.2608 504.124 77.1587 504.102 78.1777Z" fill="url(#paint14_linear_333_1850)"/>
<path d="M509.704 71.6253C509.548 72.8035 508.927 73.6918 508.319 73.609C507.707 73.5263 507.338 72.5042 507.494 71.326C507.65 70.1479 508.271 69.2596 508.879 69.3424C509.49 69.422 509.86 70.444 509.704 71.6253ZM507.071 67.1835C506.953 67.2408 508.156 65.8303 508.866 65.7698C509.576 65.7093 510.277 65.7029 510.42 66.1869C510.563 66.6709 510.684 67.3077 510.28 67.2536C509.876 67.1995 508.172 66.6582 507.071 67.1835Z" fill="#152E51"/>
<path d="M510.121 70.2442C510.07 70.6422 509.768 70.9319 509.449 70.8874C509.131 70.8428 508.918 70.4862 508.968 70.0881C509.019 69.6901 509.322 69.4004 509.64 69.445C509.959 69.4895 510.172 69.8462 510.121 70.2442Z" fill="white"/>
<path d="M522.267 73.0317C522.326 71.9025 521.803 70.9571 521.099 70.9202C520.395 70.8832 519.776 71.7687 519.717 72.8978C519.657 74.027 520.18 74.9723 520.884 75.0093C521.589 75.0463 522.208 74.1608 522.267 73.0317Z" fill="#152E51"/>
<path d="M520.396 67.5435C520.396 67.5435 520.1 68.4 520.249 68.6674C520.399 68.9349 521.364 68.7184 522.287 69.4348C523.214 70.1512 524.038 70.7053 524.038 70.7053C524.038 70.7053 523.71 69.282 523.159 68.4223C522.609 67.5594 520.577 66.7634 520.396 67.5435Z" fill="#152E51"/>
<path d="M522.59 71.9049C522.539 72.2838 522.204 72.5513 521.841 72.5035C521.478 72.4557 521.224 72.1055 521.271 71.7266C521.319 71.3477 521.657 71.0802 522.02 71.128C522.383 71.1789 522.637 71.526 522.59 71.9049Z" fill="white"/>
<path d="M539.963 73.166C538.718 73.4876 537.448 74.7103 536.27 75.5732C537.215 75.0192 538.533 74.2008 539.963 73.166Z" fill="url(#paint15_linear_333_1850)"/>
<path d="M534.766 76.3944C534.778 76.3976 534.788 76.3913 534.803 76.3913C534.803 76.3913 534.806 76.3913 534.813 76.3882C534.791 76.3913 534.778 76.3976 534.766 76.3944Z" fill="url(#paint16_linear_333_1850)"/>
<path opacity="0.62" d="M513.514 73.5554C514.103 74.412 514.568 75.3799 514.03 76.3988C513.472 77.4496 510.798 78.6882 512.679 79.9459C513.227 80.3121 512.597 81.1463 512.052 80.7833C511.161 80.1879 510.75 79.0448 511.231 78.01C511.934 76.4912 514.1 76.2237 512.708 74.2018C512.326 73.6478 513.132 73.0014 513.514 73.5554Z" fill="#C14276"/>
<path d="M537.691 77.5833C537.691 77.5833 541.404 74.0904 541.591 75.9403C541.779 77.7871 539.735 82.6875 538.286 82.2512C536.838 81.815 539.044 80.5859 537.936 79.9969C536.828 79.411 536.159 80.4108 536.315 79.2327C536.468 78.0514 537.691 77.5833 537.691 77.5833Z" fill="#F078A5"/>
<path opacity="0.62" d="M515.961 84.5426C514.531 86.2398 512.29 85.9596 510.462 85.1667C509.819 84.8865 509.395 85.8991 510.038 86.1793C512.35 87.1823 515.06 87.3033 516.817 85.2177C517.269 84.6764 516.413 84.0045 515.961 84.5426Z" fill="#C14276"/>
<path d="M532.534 67.1558C532.534 67.1558 538.348 71.0467 541.392 71.8141C544.436 72.5815 550.67 72.9445 550.67 72.9445C550.67 72.9445 551.256 74.6065 550.205 76.8641C549.155 79.1216 547.282 81.6784 547.282 81.6784C547.282 81.6784 546.942 81.239 545.49 80.2679C544.038 79.2967 542.971 78.3702 542.971 78.3702C542.971 78.3702 543.93 76.8959 541.844 74.6543C539.755 72.4127 540.188 72.0656 538.459 73.4475C536.727 74.8263 535.336 76.6476 534.562 76.552C533.788 76.4565 531.855 76.2209 531.855 76.2209L532.534 67.1558Z" fill="#716EB7"/>
<path d="M534.624 63.4322L532.529 81.1231L530.593 82.817C524.894 82.6578 514.988 82.2821 513.963 81.5943C512.511 80.6232 511.056 79.6488 508.257 80.1042C506.101 80.4544 498.093 79.1489 494.527 78.528C494.514 78.3688 494.517 78.2032 494.54 78.0377L496.813 58.828C496.979 57.4206 498.24 56.4176 499.628 56.5864L532.414 60.5793C533.799 60.748 534.79 62.0248 534.624 63.4322Z" fill="#716EB7"/>
<path d="M522.656 80.865L492.977 77.251C492.407 77.181 492.003 76.6556 492.07 76.0793L494.248 57.6911C494.314 57.1148 494.834 56.7009 495.403 56.7709L525.082 60.3849C525.652 60.4549 526.057 60.9803 525.99 61.5566L523.812 79.9448C523.742 80.5211 523.226 80.935 522.656 80.865Z" fill="url(#paint17_linear_333_1850)"/>
<path d="M524.864 62.8398L523.017 78.426C522.916 79.2889 522.256 79.9257 521.55 79.8365L494.297 76.5155C493.587 76.4296 493.097 75.6526 493.202 74.7897L495.048 59.2036C495.15 58.3375 495.809 57.7039 496.516 57.793L523.769 61.114C524.476 61.2032 524.966 61.9738 524.864 62.8398Z" fill="url(#paint18_linear_333_1850)"/>
<path opacity="0.46" d="M506.906 64.6298L497.727 63.5122C497.379 63.4708 497.131 63.1492 497.172 62.799L497.3 61.7228C497.341 61.3693 497.656 61.1178 498.004 61.1623L507.183 62.28C507.53 62.3214 507.779 62.643 507.737 62.9932L507.61 64.0694C507.569 64.4229 507.253 64.6744 506.906 64.6298Z" fill="#C2FFF3"/>
<path d="M523.607 73.4243L523.514 74.2108L493.695 70.5777L493.788 69.7944L523.607 73.4243Z" fill="url(#paint19_linear_333_1850)"/>
<path d="M526.943 77.9971L528.449 78.1817C528.78 78.2231 529.079 77.9812 529.121 77.6468L530.557 65.5345C530.595 65.2002 530.359 64.8945 530.028 64.8531L528.522 64.6684C528.191 64.627 527.892 64.869 527.85 65.2034L526.414 77.3157C526.376 77.6532 526.612 77.9557 526.943 77.9971Z" fill="#4C2359"/>
<path d="M539.989 208.198L539.741 222.109L539.639 227.856C539.639 227.856 515.659 233.874 500.159 226.067C484.659 218.262 476.457 212.474 476.457 212.474L478.253 206.918L481.829 195.856C481.822 195.856 540.107 201.603 539.989 208.198Z" fill="url(#paint20_linear_333_1850)"/>
<path d="M539.989 208.198L539.741 222.109C532.449 219.109 519.009 213.515 517.605 212.474C515.666 211.035 495.043 206.761 490.725 205.51C488.114 204.756 482.377 205.895 478.25 206.918L481.826 195.856C481.823 195.856 540.107 201.603 539.989 208.198Z" fill="#F078A5"/>
<path d="M420.978 142.498C420.978 142.498 416.902 137.69 416.568 136.591C416.237 135.496 413.919 125.288 412.142 122.502C410.365 119.719 410.461 118.187 408.897 119.155C408.034 119.69 408.821 125.921 408.573 125.835C408.324 125.752 405.089 118.451 404.589 117.525C404.089 116.598 393.693 112.211 393.611 112.631C393.528 113.051 393.279 113.981 394.693 114.907C396.107 115.834 400.848 118.451 401.099 119.04C401.348 119.629 402.596 123.259 402.596 123.259C402.596 123.259 399.851 119.126 398.852 118.451C397.855 117.776 389.287 114.656 389.287 115.582C389.287 116.509 389.535 117.101 390.452 117.859C391.366 118.617 395.276 120.053 395.61 120.473C395.941 120.894 398.52 124.861 398.52 124.861C398.52 124.861 394.445 120.728 393.779 120.473C393.114 120.222 387.207 120.39 387.125 120.725C387.042 121.062 387.207 121.4 388.038 121.989C388.869 122.578 391.531 122.664 392.114 123.084C392.697 123.505 396.607 128.822 396.107 128.653C395.607 128.484 393.114 128.064 391.697 128.147C390.283 128.23 388.038 129.074 388.37 129.411C388.701 129.749 389.7 129.917 390.697 130C391.694 130.083 394.855 131.181 395.355 131.688C395.855 132.194 397.769 137.425 401.179 140.122C404.589 142.822 407.003 142.02 409.413 144.278C411.827 146.535 414.071 148.56 414.071 148.56C414.071 148.56 422.426 144.255 420.978 142.498Z" fill="url(#paint21_linear_333_1850)"/>
<path d="M404.339 123.647C400.732 124.268 398.277 127.006 396.233 129.878C395.94 130.289 395.261 129.894 395.558 129.477C397.716 126.446 400.324 123.539 404.132 122.883C404.623 122.797 404.833 123.561 404.339 123.647ZM408.259 126.038C406.52 129.385 406.081 133.18 407.004 136.845C407.129 137.339 406.374 137.552 406.25 137.055C405.275 133.183 405.747 129.171 407.584 125.637C407.82 125.188 408.495 125.586 408.259 126.038Z" fill="#F078A5"/>
<path d="M568.076 209.315C568.076 209.315 563.071 218.164 562.38 220.329C561.689 222.498 562.377 232.89 563.249 232.839C564.125 232.785 564.348 233.9 564.841 231.649C565.335 229.394 565.883 226.293 566.115 225.742C566.351 225.191 567.758 222.975 567.758 222.975C567.758 222.975 568.494 232.158 568.627 233.667C568.758 235.177 565.15 243.474 565.529 244.586C565.908 245.697 566.144 246.235 566.612 245.859C567.08 245.484 569.675 240.663 569.675 240.663C569.675 240.663 567.761 246.799 568.427 247.235C569.092 247.671 569.42 247.814 570.111 247.464C570.802 247.114 571.531 246.127 571.531 246.127C571.531 246.127 570.512 248.524 571.856 248.817C573.203 249.11 573.06 248.54 573.658 248.222C574.257 247.903 577.53 241.857 577.53 241.857C577.53 241.857 578.119 243.567 578.915 242.608C579.711 241.65 583.214 230.327 583.108 229.12C583.003 227.914 581.198 220.148 579.877 216.158C578.555 212.165 579.007 208.198 579.007 208.198L568.076 209.315Z" fill="url(#paint22_linear_333_1850)"/>
<path d="M577.428 242.098C577.441 242.105 577.454 242.108 577.467 242.111C577.616 242.156 577.769 242.073 577.807 241.93L579.89 233.762C579.925 233.619 579.832 233.47 579.683 233.425C579.533 233.38 579.38 233.463 579.342 233.606L577.26 241.774C577.225 241.904 577.301 242.041 577.428 242.098ZM571.43 246.372C571.554 246.426 571.7 246.391 571.774 246.282C571.844 246.177 573.49 243.719 574.308 241.977C575.136 240.22 576.222 233.46 576.266 233.173C576.289 233.027 576.183 232.884 576.031 232.852C575.878 232.82 575.735 232.916 575.709 233.062C575.699 233.132 574.588 240.038 573.792 241.732C572.99 243.442 571.312 245.948 571.296 245.974C571.213 246.095 571.255 246.263 571.385 246.349C571.398 246.356 571.414 246.365 571.43 246.372ZM569.28 241.446C569.417 241.506 569.577 241.455 569.64 241.328C569.71 241.185 571.369 237.781 571.525 237.411C571.688 237.033 572.503 232.982 572.595 232.524C572.624 232.381 572.525 232.231 572.372 232.196C572.219 232.161 572.073 232.247 572.044 232.393C571.7 234.113 571.111 236.934 571.006 237.185C570.853 237.542 569.15 241.045 569.131 241.08C569.067 241.213 569.128 241.376 569.271 241.446C569.274 241.439 569.277 241.443 569.28 241.446Z" fill="#F078A5"/>
<path d="M493.629 133.473C490.458 146.343 477.9 153.135 477.9 153.135C477.9 153.135 461.11 169.625 459.525 170.698C457.939 171.772 455.163 172.845 453.707 173.246C452.252 173.647 451.858 173.246 448.836 171.905C445.811 170.565 413.126 151.527 411.143 149.381C409.707 147.827 410.073 147.47 411.235 146.12C411.678 145.605 412.241 144.946 412.862 144.019C415.11 140.666 415.769 134.231 416.696 132.891C417.622 131.55 451.463 147.907 451.858 147.773C452.256 147.639 451.991 145.627 453.841 146.432C455.691 147.238 474.993 118.68 476.974 116.215C478.957 113.748 487.462 111.13 487.462 111.13C487.462 111.13 493.438 117.19 494.206 126.201C494.4 128.455 494.266 130.897 493.629 133.473Z" fill="url(#paint23_linear_333_1850)"/>
<g opacity="0.56">
<path d="M493.63 133.473C490.458 146.343 477.9 153.134 477.9 153.134C477.9 153.134 461.11 169.625 459.525 170.698C457.939 171.771 455.163 172.844 453.707 173.245C452.252 173.646 451.858 173.245 448.836 171.905C445.811 170.564 413.126 151.527 411.143 149.38C409.707 147.827 410.073 147.47 411.235 146.12C423.653 153.743 448.062 168.686 448.552 168.686C449.215 168.686 455.822 169.625 456.484 165.4C457.146 161.178 455.647 150.097 454.765 148.845C453.883 147.594 451.858 147.772 451.858 147.772C452.256 147.639 451.991 145.626 453.841 146.432C453.841 146.432 456.704 148.397 458.203 152.778C459.703 157.156 459.967 164.04 460.143 165.288C460.321 166.54 470.895 156.889 475.124 147.416C479.355 137.94 488.296 125.974 488.296 125.974L494.209 126.2C494.4 128.455 494.266 130.897 493.63 133.473Z" fill="#E8287F"/>
</g>
<path d="M505.793 104.695L507.118 104.335C507.118 104.335 502.711 116.489 508.618 119.797C514.521 123.106 519.281 120.74 524.041 118.572C528.801 116.403 534.616 104.339 535.144 104.695C535.673 105.052 538.405 106.125 538.405 106.125C538.405 106.125 526.773 132.043 510.732 127.573C494.69 123.103 505.793 104.695 505.793 104.695Z" fill="white"/>
<path d="M549.915 137.94C549.721 138.679 549.527 139.408 549.329 140.121C548.747 142.252 548.148 144.258 547.568 145.983C546.998 147.677 546.378 149.756 545.738 152.036C543.018 161.802 540.089 175.293 540.516 178.337C541.044 182.091 541.926 207.831 541.926 210.869C541.926 213.91 540.691 221.058 539.634 219.81C538.577 218.558 519.364 208.188 517.074 207.475C514.782 206.758 489.402 202.113 488.166 202.288C486.934 202.466 476.71 208.01 477.238 205.507C477.27 205.354 477.318 205.147 477.382 204.889C478.35 200.928 482.702 185.323 482.702 182.807C482.702 180.728 477.933 166.18 476.449 157.5C476.019 154.985 475.863 152.963 476.178 151.88C477.589 147.053 486.931 131.862 487.988 128.108C489.045 124.354 487.459 111.124 487.459 111.124L505.787 104.692C505.656 104.937 497.801 120.09 512.486 123.281C527.292 126.5 536.809 105.224 538.395 106.122C539.981 107.013 553.026 115.951 553.555 118.275C553.953 120.004 552.115 129.502 549.915 137.94Z" fill="url(#paint24_linear_333_1850)"/>
<g opacity="0.56">
<path d="M549.912 137.94C549.717 138.678 549.523 139.408 549.326 140.121C548.743 142.251 548.144 144.257 547.565 145.983C546.995 147.677 546.374 149.756 545.734 152.036C543.015 161.801 540.086 175.292 540.512 178.336C541.041 182.09 541.923 207.831 541.923 210.868C541.923 213.909 540.687 221.057 539.63 219.809C538.573 218.558 519.36 208.187 517.071 207.474C514.778 206.758 489.398 202.112 488.163 202.287C486.931 202.465 476.706 208.009 477.235 205.506C477.267 205.353 477.315 205.146 477.378 204.889C485.908 197.444 495.585 200.892 499.708 201.128C504.468 201.396 532.227 210.244 533.813 210.512C535.399 210.779 533.106 184.055 531.874 182.807C530.638 181.559 488.338 177.801 485.87 177.801C483.399 177.801 482.699 182.807 482.699 182.807C482.699 180.728 477.929 166.179 476.445 157.5C484.119 161.034 497.53 167.077 502.087 168.326C508.608 170.112 531.345 165.106 533.991 164.129C536.634 163.151 547.033 135.077 547.033 135.077L549.912 137.94Z" fill="#E8287F"/>
</g>
<g opacity="0.56">
<path d="M549.329 140.122C548.746 142.252 548.148 144.258 547.568 145.984C546.998 147.678 546.377 149.757 545.737 152.037C541.095 141.943 541.168 131.483 541.168 131.483C541.168 131.483 544.734 135.11 549.329 140.122Z" fill="#E8287F"/>
</g>
<path d="M588.639 164.133C588.639 168.693 581.765 211.229 581.765 212.471C581.765 213.713 581.236 214.448 575.597 212.302C573.266 211.414 570.933 211.414 568.965 211.656C566.169 211.997 564.096 212.824 563.787 212.302C563.259 211.407 568.901 172.619 568.194 171.902C567.952 171.654 567.854 171.297 567.841 170.899C567.815 170.154 568.08 169.266 568.194 168.683C568.21 168.6 568.057 168.358 567.758 167.98C564.838 164.248 548.058 147.101 542.461 135.257C538.917 127.761 541.97 122.062 545.212 118.569C547.619 115.98 550.125 114.598 550.125 114.598C560.957 116.642 588.639 159.57 588.639 164.133Z" fill="url(#paint25_linear_333_1850)"/>
<g opacity="0.56">
<path d="M567.754 167.983C564.834 164.251 548.054 147.104 542.457 135.26C538.913 127.764 541.966 122.065 545.208 118.572C543.348 122.574 541.587 127.901 543.16 131.486C545.978 137.902 566.073 163.066 567.926 164.136C569.776 165.203 573.345 164.935 572.288 165.604C571.569 166.059 569.193 167.26 567.754 167.983Z" fill="#E8287F"/>
</g>
<g opacity="0.56">
<path d="M572.48 170.43C572.286 171.369 570.041 174.687 569.512 177.518C569.054 179.976 568.494 204.353 568.958 211.658C566.163 211.998 564.09 212.826 563.781 212.304C563.253 211.409 568.895 172.621 568.188 171.904C567.946 171.656 567.847 171.299 567.834 170.901C569.598 170.446 572.617 169.765 572.48 170.43Z" fill="#E8287F"/>
</g>
<path d="M459.371 404.087C459.371 404.087 457.18 415.378 450.729 418.091C444.285 420.8 442.199 420.937 439.512 420.221C436.828 419.501 439.579 409.978 439.579 409.978C439.579 409.978 441.89 405.721 442.505 402.189C442.546 401.957 442.581 401.725 442.607 401.498C442.756 400.136 442.279 396.888 441.629 393.366C440.537 387.488 438.958 380.834 438.958 380.834L451.978 375.026C451.978 375.026 452.239 378.503 452.796 382.811C453.267 386.419 453.945 390.612 454.856 393.822C455.018 394.404 455.19 394.962 455.362 395.493C457.247 401.377 459.371 404.087 459.371 404.087Z" fill="url(#paint26_linear_333_1850)"/>
<path d="M442.602 401.495C442.752 400.132 442.274 396.884 441.625 393.362C440.532 387.485 438.953 380.83 438.953 380.83L451.973 375.022C451.973 375.022 452.234 378.499 452.791 382.807C453.262 386.415 453.941 390.608 454.851 393.818C455.014 394.4 455.186 394.958 455.358 395.489C451.667 398.046 447.334 400.479 442.503 402.189C442.545 401.953 442.58 401.724 442.602 401.495Z" fill="#F078A5"/>
<path d="M439.574 409.977C439.574 409.977 426.233 432.89 422.651 437.201C419.069 441.513 423.004 442.149 426.637 443.952C430.27 445.754 437.922 441.563 439.377 440.704C440.832 439.844 450.547 429.827 453.352 425.863C456.157 421.899 456.896 419.6 458.239 419.682C459.586 419.765 460.742 419.52 461.751 418.265C462.761 417.011 465.238 416.425 463.302 412.302C461.366 408.178 459.344 403.338 458.86 403.625C458.376 403.912 455.877 406.156 455.453 406.736C455.03 407.315 451.384 413.967 446.379 416.925C441.37 419.883 438.8 417.67 438.925 415.626C439.046 413.578 441.485 408.407 439.574 409.977Z" fill="url(#paint27_linear_333_1850)"/>
<path d="M559.469 413.356C553.916 417.645 551.935 418.317 549.159 418.317C546.382 418.317 546.646 408.395 546.646 408.395C546.646 408.395 547.968 403.033 547.439 399.413C547.242 398.056 545.965 395.041 544.449 391.799C541.918 386.399 538.715 380.375 538.715 380.375L549.843 371.393C549.843 371.393 550.974 374.685 552.594 378.703C553.957 382.072 555.67 385.947 557.354 388.819C561.054 395.12 564.302 397.579 564.302 397.579C564.302 397.579 565.019 409.067 559.469 413.356Z" fill="url(#paint28_linear_333_1850)"/>
<path d="M552.591 378.706C550.744 383.833 548.07 389.169 544.449 391.802C541.918 386.402 538.715 380.378 538.715 380.378L549.843 371.396C549.84 371.392 550.97 374.685 552.591 378.706Z" fill="#F078A5"/>
<path d="M551.27 376.219C550.996 376.776 550.49 377.544 549.84 378.4C549.668 378.629 549.487 378.862 549.292 379.101C549.241 379.161 549.194 379.222 549.146 379.282C546.599 382.393 542.676 386.036 540.96 385.068C539.342 384.157 519.642 359.331 505.199 341.165C498.398 332.61 492.759 325.535 490.728 323.127C484.382 315.619 484.382 315.887 483.06 312.671C482.506 311.321 481.812 309.121 481.194 306.831C480.338 303.66 479.625 300.32 479.625 298.849C479.625 296.368 484.955 268.514 485.171 267.393C485.175 267.374 485.175 267.364 485.175 267.364C485.175 267.364 485.175 267.367 485.171 267.371C484.802 267.721 452.923 298.479 453.187 300.877C453.222 301.192 453.321 301.819 453.461 302.714C454.404 308.691 457.314 326.579 456.623 342.439C455.83 360.671 455.83 371.128 455.037 378.101C454.244 385.071 456.094 390.704 455.302 392.044C455.06 392.455 453.623 393.069 451.719 393.681C447.411 395.069 440.699 396.46 439.967 395.531C439.55 395.002 437.155 383.867 434.232 369.771C434.232 369.771 434.229 369.762 434.226 369.746C429.743 348.126 424.012 319.558 422.251 311.607C419.344 298.47 418.287 296.324 418.551 294.983C418.567 294.904 418.583 294.77 418.595 294.588C418.669 293.69 418.742 291.624 418.914 289.166C419.067 286.991 419.296 284.504 419.678 282.244C420.232 278.951 421.104 276.124 422.518 275.411C426.218 273.535 453.716 239.749 459.797 232.24C462.727 228.623 466.701 223.905 470.034 219.988C470.041 219.979 470.044 219.975 470.047 219.969L470.053 219.963C471.607 218.135 473.021 216.482 474.123 215.199C475.555 213.528 476.46 212.48 476.46 212.48C476.46 212.48 492.581 215.705 503.862 218.386C512.449 220.427 521.139 222.781 526.434 224.022C526.708 224.086 526.969 224.15 527.22 224.204C528.516 224.5 529.564 224.713 530.303 224.822C534.002 225.356 539.113 226.611 539.645 227.862C539.944 228.569 540.186 236.456 539.38 246.184C539.358 246.448 539.336 246.709 539.31 246.973C538.674 254.214 537.448 262.384 535.238 269.329C529.949 285.953 514.264 299.718 515.85 302.042C516.627 303.179 516.77 303.972 516.818 304.596C516.866 305.242 516.812 305.701 517.261 306.156C518.143 307.048 535.187 321.529 539.928 342.175C544.669 362.82 552.591 373.538 551.27 376.219Z" fill="url(#paint29_linear_333_1850)"/>
<path opacity="0.38" d="M453.458 302.711C454.4 308.688 457.311 326.576 456.62 342.436C455.827 360.668 455.827 371.125 455.034 378.098C454.241 385.068 456.091 390.7 455.298 392.041C455.056 392.452 453.62 393.066 451.716 393.678C447.408 395.066 440.696 396.457 439.964 395.528C438.907 394.187 425.158 324.742 422.251 311.604C419.344 298.467 418.287 296.321 418.551 294.98C418.646 294.502 418.707 292.118 418.914 289.166C426.314 294.206 437.261 299.24 453.458 302.711ZM551.27 376.219C550.996 376.776 550.49 377.544 549.84 378.4C549.668 378.63 549.487 378.862 549.292 379.101C549.241 379.161 549.194 379.222 549.146 379.282C546.599 382.393 542.676 386.036 540.96 385.068C538.581 383.727 497.073 330.639 490.728 323.131C484.382 315.623 484.382 315.89 483.06 312.674C482.506 311.324 481.812 309.124 481.194 306.834C496.739 308.235 507.568 307.296 516.812 304.59C516.859 305.236 516.805 305.695 517.254 306.15C518.136 307.041 535.181 321.523 539.922 342.168C544.663 362.814 552.591 373.538 551.27 376.219Z" fill="#0D1942"/>
<path opacity="0.38" d="M551.267 376.219C550.993 376.776 550.487 377.544 549.837 378.4C549.665 378.63 549.484 378.862 549.289 379.101C549.238 379.161 549.191 379.222 549.143 379.282C543.077 357.315 520.168 318.791 517.318 315.858C513.749 312.19 512.37 312.553 507.403 312.693C502.432 312.833 510.332 309.471 511.367 306.258C512.402 303.042 510.969 303.443 508.988 301.555C507.005 299.67 516.127 295.802 519.693 284.539C523.263 273.277 535.158 235.476 534.764 234.005C534.436 232.792 489.683 219.705 474.113 215.19C475.546 213.518 476.45 212.471 476.45 212.471C476.45 212.471 492.571 215.696 503.853 218.377C512.44 220.418 521.129 222.771 526.425 224.013C526.698 224.077 526.959 224.14 527.211 224.194C528.507 224.491 529.554 224.704 530.293 224.812C533.993 225.347 539.104 226.602 539.635 227.853C539.935 228.56 540.177 236.447 539.371 246.174C539.349 246.439 539.326 246.7 539.301 246.964C538.664 254.205 537.438 262.375 535.229 269.319C529.94 285.944 514.255 299.709 515.841 302.033C517.426 304.357 516.369 305.252 517.251 306.147C518.133 307.038 535.178 321.52 539.919 342.165C544.66 362.811 552.588 373.538 551.267 376.219Z" fill="#0D1942"/>
<path opacity="0.38" d="M493.897 244.458L493.747 244.853L485.172 267.361C485.172 267.361 485.172 267.364 485.169 267.367C484.921 267.603 452.918 298.476 453.182 300.877C453.446 303.29 457.414 324.203 456.618 342.436C455.825 360.668 455.825 371.124 455.032 378.098C454.239 385.068 456.089 390.7 455.296 392.041C455.054 392.451 453.618 393.066 451.714 393.677C454.647 365.352 448.587 311.05 448.157 307.579C447.629 303.29 446.043 300.339 444.193 297.123C442.343 293.904 447.365 295.515 451.068 293.636C454.771 291.757 484.644 251.807 484.962 248.409C485.185 246.05 482.218 241.961 480.39 239.688L480.387 239.685C479.588 238.691 479.008 238.045 479.008 238.045L480.107 238.516C481.718 239.685 483.498 240.611 485.287 241.481C487.694 242.656 490.114 243.639 492.747 243.958L493.897 244.458Z" fill="#0D1942"/>
<path d="M493.896 244.859L493.747 244.85C490.719 244.687 487.961 243.659 485.239 242.347C483.58 241.548 481.924 240.707 480.386 239.685L480.383 239.682C479.422 239.045 478.505 238.332 477.664 237.52C477.295 237.16 477.855 236.593 478.224 236.95C478.813 237.52 479.444 238.036 480.1 238.51C481.711 239.679 483.491 240.605 485.28 241.474C487.687 242.649 490.107 243.633 492.741 243.952C493.123 243.999 493.508 244.031 493.896 244.047C494.409 244.076 494.409 244.881 493.896 244.859Z" fill="white"/>
<path d="M549.836 378.401C549.664 378.63 549.483 378.863 549.289 379.102C546.821 373.835 542.984 365.881 538.491 357.376C530.471 342.191 510.669 311.188 509.714 309.978C509.417 309.602 508.704 309.02 507.883 308.351C505.803 306.66 503.218 304.555 503.021 302.527C502.756 299.853 526.752 250.467 530.174 243.437C528.337 242.109 526.812 240.383 526.042 238.18C524.539 233.894 525.472 227.965 526.424 224.017C526.697 224.08 526.959 224.144 527.21 224.198C526.287 228.067 525.366 233.852 526.787 237.909C528.633 243.176 535.129 245.576 539.37 246.175C539.348 246.439 539.326 246.7 539.3 246.965C536.801 246.605 533.556 245.646 530.84 243.886C519.839 266.47 503.699 300.422 503.81 302.441C503.976 304.132 506.523 306.202 508.379 307.714C509.277 308.443 509.984 309.02 510.334 309.465C511.293 310.682 531.155 341.771 539.192 356.985C543.589 365.321 547.362 373.125 549.836 378.401ZM423.043 299.802C423.304 302.982 433.974 368.209 434.222 369.737C429.739 348.117 424.008 319.549 422.247 311.599C419.34 298.461 418.283 296.315 418.547 294.974C418.563 294.895 418.579 294.761 418.592 294.58C420.722 296.662 422.88 297.827 423.043 299.802ZM470.027 219.979C469.276 220.989 445.195 253.288 437.613 262.264C429.914 271.38 426.478 274.061 426.214 277.01C425.95 279.958 422.514 277.545 421.983 280.229C421.814 281.082 420.846 281.649 419.671 282.238C420.225 278.946 421.097 276.118 422.511 275.405C426.211 273.53 453.709 239.743 459.79 232.235C462.72 228.618 466.693 223.899 470.027 219.979ZM505.195 341.166C498.394 332.611 492.755 325.535 490.724 323.128C484.378 315.62 484.378 315.888 483.056 312.672C482.502 311.322 481.808 309.121 481.191 306.832C480.334 303.661 479.621 300.321 479.621 298.85C479.621 296.369 484.951 268.515 485.167 267.394C485.04 268.46 481.484 298.455 481.999 301.556C482.528 304.718 485.167 309.902 485.171 311.513C485.174 313.124 505.195 341.166 505.195 341.166Z" fill="#C5AAF9"/>
<path d="M546.642 408.394C546.642 408.394 539.503 434 537.124 439.095C534.746 444.189 538.71 443.788 542.677 444.591C546.642 445.396 552.987 439.362 554.178 438.156C555.369 436.949 562.244 424.751 563.96 420.191C565.679 415.631 565.81 413.221 567.131 412.95C568.453 412.683 569.51 412.145 570.172 410.67C570.834 409.196 573.079 407.989 570.172 404.503C567.265 401.016 564.09 396.861 563.695 397.262C563.297 397.663 561.448 400.481 561.183 401.15C560.919 401.822 559.069 409.193 554.971 413.351C550.873 417.507 547.832 416.032 547.438 414.023C547.036 412.014 548.093 406.385 546.642 408.394Z" fill="url(#paint30_linear_333_1850)"/>
<path d="M573.837 295.877C573.782 296.32 573.754 296.766 573.754 297.212V295.877H573.837Z" fill="white"/>
<path d="M671.79 329.98V331.349C671.79 330.888 671.761 330.432 671.707 329.98H671.79Z" fill="#D63C86"/>
<path d="M703.469 240.031C707.073 240.031 709.994 237.069 709.994 233.415C709.994 229.761 707.073 226.798 703.469 226.798C699.866 226.798 696.945 229.761 696.945 233.415C696.945 237.069 699.866 240.031 703.469 240.031Z" fill="white" fill-opacity="0.16"/>
<path d="M552.879 285.37C555.323 285.37 557.305 283.36 557.305 280.881C557.305 278.401 555.323 276.391 552.879 276.391C550.435 276.391 548.453 278.401 548.453 280.881C548.453 283.36 550.435 285.37 552.879 285.37Z" fill="white" fill-opacity="0.18"/>
<path d="M372.894 248.015C376.101 248.015 378.701 245.378 378.701 242.124C378.701 238.871 376.101 236.234 372.894 236.234C369.686 236.234 367.086 238.871 367.086 242.124C367.086 245.378 369.686 248.015 372.894 248.015Z" fill="white" fill-opacity="0.18"/>
<path d="M275.767 242.185C278.399 242.185 280.533 240.021 280.533 237.352C280.533 234.682 278.399 232.518 275.767 232.518C273.134 232.518 271 234.682 271 237.352C271 240.021 273.134 242.185 275.767 242.185Z" fill="white" fill-opacity="0.16"/>
<path d="M474.12 82.0913C475.892 82.0913 477.329 80.6344 477.329 78.8372C477.329 77.0399 475.892 75.583 474.12 75.583C472.347 75.583 470.91 77.0399 470.91 78.8372C470.91 80.6344 472.347 82.0913 474.12 82.0913Z" fill="white" fill-opacity="0.16"/>
<path d="M314.195 383.393C321.244 383.393 326.957 377.598 326.957 370.45C326.957 363.301 321.244 357.506 314.195 357.506C307.147 357.506 301.434 363.301 301.434 370.45C301.434 377.598 307.147 383.393 314.195 383.393Z" fill="white" fill-opacity="0.16"/>
<path d="M446.962 123.293C449.956 123.293 452.384 120.831 452.384 117.794C452.384 114.757 449.956 112.295 446.962 112.295C443.967 112.295 441.539 114.757 441.539 117.794C441.539 120.831 443.967 123.293 446.962 123.293Z" fill="white" fill-opacity="0.16"/>
<path opacity="0.32" d="M616.624 437.139C620.881 436.011 624.123 432.617 625.202 428.347L675.963 227.556C677.977 219.59 671.838 211.9 663.625 212.098L327.175 220.209C319.334 220.398 313.63 227.718 315.363 235.367L361.644 439.655C361.848 440.555 362.325 441.074 363.236 441.221C377.859 443.575 514.19 464.3 616.624 437.139Z" fill="url(#paint31_linear_333_1850)"/>
<defs>
<linearGradient id="paint0_linear_333_1850" x1="490" y1="-40.7895" x2="493.992" y2="499.971" gradientUnits="userSpaceOnUse">
<stop stop-color="#FF87EC"/>
<stop offset="1" stop-color="#8218D5"/>
</linearGradient>
<linearGradient id="paint1_linear_333_1850" x1="799" y1="461.055" x2="807.43" y2="461.055" gradientUnits="userSpaceOnUse">
<stop stop-color="white"/>
<stop offset="1" stop-color="white" stop-opacity="0.82"/>
</linearGradient>
<linearGradient id="paint2_linear_333_1850" x1="807.43" y1="470.528" x2="832.716" y2="470.528" gradientUnits="userSpaceOnUse">
<stop stop-color="white"/>
<stop offset="1" stop-color="white" stop-opacity="0.82"/>
</linearGradient>
<linearGradient id="paint3_linear_333_1850" x1="807.574" y1="451.543" x2="832.656" y2="451.543" gradientUnits="userSpaceOnUse">
<stop stop-color="white"/>
<stop offset="1" stop-color="white" stop-opacity="0.82"/>
</linearGradient>
<linearGradient id="paint4_linear_333_1850" x1="419.39" y1="413.574" x2="494.83" y2="423.415" gradientUnits="userSpaceOnUse">
<stop offset="0.019" stop-color="white"/>
<stop offset="1" stop-color="#CEEDE0"/>
</linearGradient>
<linearGradient id="paint5_linear_333_1850" x1="334.771" y1="432.738" x2="368.194" y2="437.098" gradientUnits="userSpaceOnUse">
<stop offset="0.019" stop-color="white"/>
<stop offset="1" stop-color="#CEEDE0"/>
</linearGradient>
<linearGradient id="paint6_linear_333_1850" x1="357.881" y1="452.013" x2="412.798" y2="459.177" gradientUnits="userSpaceOnUse">
<stop offset="0.019" stop-color="white"/>
<stop offset="1" stop-color="#CEEDE0"/>
</linearGradient>
<linearGradient id="paint7_linear_333_1850" x1="456.521" y1="457.055" x2="528.583" y2="466.455" gradientUnits="userSpaceOnUse">
<stop offset="0.019" stop-color="white"/>
<stop offset="1" stop-color="#CEEDE0"/>
</linearGradient>
<linearGradient id="paint8_linear_333_1850" x1="569.754" y1="452.755" x2="623.08" y2="459.711" gradientUnits="userSpaceOnUse">
<stop offset="0.019" stop-color="white"/>
<stop offset="1" stop-color="#CEEDE0"/>
</linearGradient>
<linearGradient id="paint9_linear_333_1850" x1="576.854" y1="425.215" x2="653.644" y2="435.232" gradientUnits="userSpaceOnUse">
<stop offset="0.019" stop-color="white"/>
<stop offset="1" stop-color="#CEEDE0"/>
</linearGradient>
<linearGradient id="paint10_linear_333_1850" x1="477.398" y1="130.314" x2="583.111" y2="130.314" gradientUnits="userSpaceOnUse">
<stop stop-color="#4C5F9B"/>
<stop offset="0.761" stop-color="#27316F"/>
</linearGradient>
<linearGradient id="paint11_linear_333_1850" x1="472.454" y1="90.7687" x2="565.203" y2="90.7687" gradientUnits="userSpaceOnUse">
<stop stop-color="#4C5F9B"/>
<stop offset="0.761" stop-color="#27316F"/>
</linearGradient>
<linearGradient id="paint12_linear_333_1850" x1="528.706" y1="89.4189" x2="509.755" y2="157.541" gradientUnits="userSpaceOnUse">
<stop offset="0.387" stop-color="#FFBD9F"/>
<stop offset="1" stop-color="#EF72A6"/>
</linearGradient>
<linearGradient id="paint13_linear_333_1850" x1="530.929" y1="88.6541" x2="510.134" y2="163.386" gradientUnits="userSpaceOnUse">
<stop offset="0.387" stop-color="#FFBD9F"/>
<stop offset="1" stop-color="#EF72A6"/>
</linearGradient>
<linearGradient id="paint14_linear_333_1850" x1="519.864" y1="79.3838" x2="506.172" y2="107.914" gradientUnits="userSpaceOnUse">
<stop offset="0.387" stop-color="#FFBD9F"/>
<stop offset="1" stop-color="#EF72A6"/>
</linearGradient>
<linearGradient id="paint15_linear_333_1850" x1="538.229" y1="74.2365" x2="536.806" y2="77.202" gradientUnits="userSpaceOnUse">
<stop offset="0.387" stop-color="#FFBD9F"/>
<stop offset="1" stop-color="#EF72A6"/>
</linearGradient>
<linearGradient id="paint16_linear_333_1850" x1="534.835" y1="76.3948" x2="534.825" y2="76.4159" gradientUnits="userSpaceOnUse">
<stop offset="0.387" stop-color="#FFBD9F"/>
<stop offset="1" stop-color="#EF72A6"/>
</linearGradient>
<linearGradient id="paint17_linear_333_1850" x1="493.142" y1="66.9087" x2="524.918" y2="70.7236" gradientUnits="userSpaceOnUse">
<stop stop-color="#4C5F9B"/>
<stop offset="0.761" stop-color="#27316F"/>
</linearGradient>
<linearGradient id="paint18_linear_333_1850" x1="499.458" y1="31.1499" x2="525.728" y2="94.7784" gradientUnits="userSpaceOnUse">
<stop offset="0.019" stop-color="white"/>
<stop offset="1" stop-color="#CEEDE0"/>
</linearGradient>
<linearGradient id="paint19_linear_333_1850" x1="522.545" y1="77.4036" x2="494.097" y2="68.7781" gradientUnits="userSpaceOnUse">
<stop stop-color="#4C5F9B"/>
<stop offset="0.761" stop-color="#27316F"/>
</linearGradient>
<linearGradient id="paint20_linear_333_1850" x1="476.454" y1="212.963" x2="539.988" y2="212.963" gradientUnits="userSpaceOnUse">
<stop offset="0.387" stop-color="#FFBD9F"/>
<stop offset="1" stop-color="#EF72A6"/>
</linearGradient>
<linearGradient id="paint21_linear_333_1850" x1="396.219" y1="117.065" x2="409.296" y2="145.67" gradientUnits="userSpaceOnUse">
<stop offset="0.387" stop-color="#FFBD9F"/>
<stop offset="1" stop-color="#EF72A6"/>
</linearGradient>
<linearGradient id="paint22_linear_333_1850" x1="583.551" y1="232.021" x2="561.423" y2="222.467" gradientUnits="userSpaceOnUse">
<stop offset="0.387" stop-color="#FFBD9F"/>
<stop offset="1" stop-color="#EF72A6"/>
</linearGradient>
<linearGradient id="paint23_linear_333_1850" x1="452.248" y1="125.56" x2="452.248" y2="171.779" gradientUnits="userSpaceOnUse">
<stop offset="0.019" stop-color="#FDB6A7"/>
<stop offset="1" stop-color="#FB5C88"/>
</linearGradient>
<linearGradient id="paint24_linear_333_1850" x1="514.816" y1="126.048" x2="514.816" y2="213.871" gradientUnits="userSpaceOnUse">
<stop offset="0.019" stop-color="#FDB6A7"/>
<stop offset="1" stop-color="#FB5C88"/>
</linearGradient>
<linearGradient id="paint25_linear_333_1850" x1="564.757" y1="121.431" x2="564.757" y2="192.408" gradientUnits="userSpaceOnUse">
<stop offset="0.019" stop-color="#FDB6A7"/>
<stop offset="1" stop-color="#FB5C88"/>
</linearGradient>
<linearGradient id="paint26_linear_333_1850" x1="438.336" y1="397.808" x2="459.369" y2="397.808" gradientUnits="userSpaceOnUse">
<stop offset="0.387" stop-color="#FFBD9F"/>
<stop offset="1" stop-color="#EF72A6"/>
</linearGradient>
<linearGradient id="paint27_linear_333_1850" x1="442.63" y1="403.616" x2="442.63" y2="444.398" gradientUnits="userSpaceOnUse">
<stop stop-color="#FB5C88"/>
<stop offset="0.981" stop-color="#FDB6A7"/>
</linearGradient>
<linearGradient id="paint28_linear_333_1850" x1="538.714" y1="394.855" x2="564.331" y2="394.855" gradientUnits="userSpaceOnUse">
<stop offset="0.387" stop-color="#FFBD9F"/>
<stop offset="1" stop-color="#EF72A6"/>
</linearGradient>
<linearGradient id="paint29_linear_333_1850" x1="418.508" y1="304.15" x2="551.415" y2="304.15" gradientUnits="userSpaceOnUse">
<stop stop-color="#204CE0"/>
<stop offset="1" stop-color="#955BED"/>
</linearGradient>
<linearGradient id="paint30_linear_333_1850" x1="554.013" y1="397.24" x2="554.013" y2="444.665" gradientUnits="userSpaceOnUse">
<stop stop-color="#FB5C88"/>
<stop offset="0.981" stop-color="#FDB6A7"/>
</linearGradient>
<linearGradient id="paint31_linear_333_1850" x1="459.339" y1="200.877" x2="464.86" y2="454.7" gradientUnits="userSpaceOnUse">
<stop offset="0.196056" stop-color="white" stop-opacity="0"/>
<stop offset="1" stop-color="white"/>
</linearGradient>
<clipPath id="clip0_333_1850">
<rect width="160.567" height="38" fill="white" transform="translate(799 442)"/>
</clipPath>
</defs>
</svg>
