<svg width="980" height="500" viewBox="0 0 980 500" fill="none" xmlns="http://www.w3.org/2000/svg">
<rect width="980" height="500" fill="url(#paint0_linear_326_581)"/>
<g clip-path="url(#clip0_326_581)">
<path d="M848.688 467.15C847.638 467.181 846.599 466.917 845.691 466.387C844.86 465.875 844.194 465.133 843.775 464.251C843.312 463.258 843.084 462.171 843.107 461.076C843.084 459.979 843.312 458.892 843.775 457.898C844.194 457.015 844.86 456.273 845.691 455.762C846.599 455.232 847.638 454.967 848.688 454.998C849.89 454.954 851.072 455.308 852.051 456.005C852.958 456.686 853.624 457.638 853.952 458.723L851.983 459.267C851.794 458.566 851.388 457.942 850.824 457.485C850.206 457.035 849.452 456.811 848.688 456.852C847.998 456.826 847.316 457.009 846.731 457.378C846.199 457.743 845.79 458.261 845.558 458.863C845.282 459.575 845.146 460.333 845.157 461.097C845.14 461.859 845.274 462.617 845.549 463.327C845.785 463.932 846.199 464.45 846.737 464.813C847.323 465.181 848.006 465.364 848.697 465.338C849.459 465.372 850.208 465.143 850.821 464.691C851.384 464.233 851.79 463.609 851.98 462.909L853.952 463.425C853.627 464.509 852.965 465.461 852.063 466.143C851.08 466.843 849.894 467.197 848.688 467.15Z" fill="white"/>
<path d="M856.094 466.91V455.239H860.915C861.031 455.239 861.176 455.239 861.354 455.239C861.52 455.247 861.684 455.264 861.847 455.292C862.455 455.368 863.032 455.6 863.523 455.967C863.959 456.308 864.298 456.759 864.503 457.274C864.72 457.833 864.828 458.429 864.821 459.029C864.844 459.901 864.593 460.759 864.102 461.48C863.84 461.832 863.508 462.126 863.127 462.344C862.747 462.562 862.325 462.7 861.889 462.748L861.054 462.819H858.048V466.91H856.094ZM858.048 461.01H860.834C860.944 461.01 861.063 461.01 861.2 460.993C861.326 460.984 861.45 460.962 861.571 460.927C861.864 460.866 862.132 460.717 862.337 460.5C862.522 460.3 862.658 460.061 862.736 459.802C862.811 459.555 862.85 459.299 862.851 459.041C862.85 458.781 862.811 458.523 862.736 458.275C862.658 458.014 862.522 457.774 862.337 457.574C862.131 457.358 861.863 457.21 861.571 457.149C861.45 457.117 861.325 457.098 861.2 457.09C861.063 457.09 860.944 457.09 860.834 457.09H858.048V461.01ZM862.801 466.91L860.502 462.157L862.486 461.72L865.014 466.907L862.801 466.91Z" fill="white"/>
<path d="M867.164 466.91V455.239H874.7V457.072H869.116V459.947H873.726V461.78H869.116V465.077H874.7V466.91H867.164Z" fill="white"/>
<path d="M876.205 466.91L879.882 455.239H882.743L886.423 466.91H884.412L881.074 456.439H881.513L878.216 466.91H876.205ZM878.255 464.379V462.558H884.38V464.379H878.255Z" fill="white"/>
<path d="M890.086 466.91V457.072H886.311V455.239H895.816V457.072H892.037V466.91H890.086Z" fill="white"/>
<path d="M897.646 466.91V455.239H899.598V466.91H897.646Z" fill="white"/>
<path d="M905.042 466.91L901.35 455.239H903.358L906.438 465.012L909.557 455.239H911.577L907.887 466.91H905.042Z" fill="white"/>
<path d="M913.154 466.91V455.239H920.69V457.072H915.109V459.947H919.719V461.78H915.109V465.077H920.69V466.91H913.154Z" fill="white"/>
<path d="M923.162 466.91V455.239H925.114V466.91H923.162Z" fill="white"/>
<path d="M930.73 466.91V457.072H926.955V455.239H936.46V457.072H932.682V466.91H930.73Z" fill="white"/>
<path d="M938.127 466.91V455.239H945.663V457.072H940.093V459.947H944.703V461.78H940.093V465.077H945.675V466.91H938.127Z" fill="white"/>
<path d="M947.982 466.91V455.239H949.741L953.775 463.506L957.811 455.239H959.567V466.91H957.746V459.43L954.164 466.91H953.386L949.821 459.43V466.91H947.982Z" fill="white"/>
<path d="M815.86 470.789L807.43 465.92V475.654L815.86 470.789Z" fill="white" fill-opacity="0.48"/>
<path d="M832.717 461.055L824.287 456.19V465.921L832.717 461.055Z" fill="white" fill-opacity="0.47"/>
<path d="M815.86 451.321L807.43 446.456V456.189L815.86 451.321Z" fill="white" fill-opacity="0.48"/>
<path d="M807.43 446.456L800.687 450.35C800.174 450.645 799.747 451.07 799.451 451.583C799.155 452.096 798.999 452.677 799 453.27V468.84C799 469.433 799.155 470.015 799.452 470.528C799.748 471.041 800.174 471.467 800.687 471.763L807.43 475.654V446.456Z" fill="url(#paint1_linear_326_581)"/>
<path d="M832.716 468.84V461.055L807.43 475.654L814.172 479.549C814.685 479.845 815.266 480.001 815.858 480.001C816.45 480.001 817.031 479.845 817.544 479.549L831.032 471.763C831.545 471.467 831.97 471.04 832.266 470.527C832.561 470.014 832.717 469.433 832.716 468.84Z" fill="url(#paint2_linear_326_581)"/>
<path d="M817.606 442.594C817.098 442.301 816.521 442.146 815.934 442.146C815.347 442.146 814.77 442.301 814.262 442.594L807.572 446.456L832.654 460.939V453.216C832.654 452.629 832.5 452.052 832.206 451.543C831.913 451.034 831.49 450.611 830.982 450.317L817.606 442.594Z" fill="url(#paint3_linear_326_581)"/>
</g>
<path opacity="0.16" d="M815.877 274.058C813.009 262.348 791.829 175.871 735.022 161.755C674.891 146.813 620.502 224.296 589.132 203.869C562.093 186.262 592.147 121.957 561.008 102.095C536.177 86.2558 501.028 116.918 456.041 93.1646C446.158 87.9465 447.426 85.5547 438.1 80.7634C388.202 55.1287 310.225 65.975 281.907 107.697C253.536 149.495 299.308 186.479 274.807 243.78C247.343 308.009 171.001 305.577 161.212 354.346C159.207 364.335 159.088 379.885 165.575 398.792C181.54 445.325 225.804 476.254 275.074 476.254H656.505C761.384 476.254 839.864 379.197 816.598 277.105C816.366 276.09 816.126 275.075 815.877 274.058Z" fill="#FFEBDE"/>
<path d="M336.887 288.432C340.53 288.325 343.863 290.634 346.179 293.441C348.494 296.249 350.092 299.585 352.151 302.589C352.866 303.628 353.669 304.654 354.764 305.277C356.178 306.08 357.883 306.109 359.471 306.456C361.366 306.891 363.126 307.785 364.593 309.061C366.061 310.337 367.192 311.955 367.886 313.772C370.361 320.43 366.714 328.958 371.233 334.437C372.499 335.968 374.251 337.007 375.743 338.323C379.369 341.518 381.327 346.274 382.039 351.055C382.75 355.836 382.309 360.704 381.839 365.517C381.377 370.27 380.88 375.018 380.349 379.76C380.026 382.653 378.862 386.336 375.956 386.365C374.744 386.379 373.654 385.685 372.66 384.982C365.283 379.834 358.588 373.773 352.733 366.943C347.921 361.328 343.494 353.682 346.473 346.915C347.171 345.329 348.278 343.733 347.955 342.032C347.763 341.011 347.082 340.16 346.378 339.41C343.315 336.113 339.39 333.637 336.649 330.065C333.908 326.494 332.649 321.1 335.494 317.609C336.773 316.037 338.905 314.534 338.386 312.574C338.168 311.749 337.503 311.133 336.899 310.533C332.276 305.942 324.018 288.808 336.887 288.432Z" fill="url(#paint4_linear_326_581)"/>
<path d="M337.259 297.659C340.235 301.307 343.017 305.108 345.662 309.003C348.308 312.898 350.767 316.916 353.103 321.005C355.439 325.094 357.613 329.272 359.657 333.514C361.7 337.756 363.604 342.064 365.377 346.425C367.15 350.786 368.761 355.213 370.253 359.678L371.346 363.035C371.701 364.156 372.04 365.284 372.389 366.407C372.737 367.53 373.049 368.666 373.379 369.796C373.709 370.926 373.998 372.068 374.308 373.199C375.509 377.749 376.569 382.334 377.486 386.954C377.711 388.109 377.915 389.268 378.129 390.425C378.344 391.582 378.521 392.744 378.716 393.904L379.244 397.394L379.7 400.892C379.712 401.002 379.681 401.113 379.613 401.2C379.545 401.287 379.445 401.345 379.336 401.36C379.226 401.375 379.115 401.347 379.026 401.282C378.936 401.216 378.876 401.119 378.858 401.01C378.177 396.375 377.369 391.76 376.392 387.182C375.416 382.603 374.332 378.045 373.09 373.533C372.77 372.406 372.46 371.278 372.133 370.154C371.807 369.029 371.478 367.906 371.138 366.786C370.798 365.667 370.447 364.551 370.092 363.436L368.996 360.101C367.502 355.666 365.876 351.278 364.116 346.935C362.357 342.593 360.479 338.307 358.481 334.077C356.477 329.851 354.316 325.693 352.053 321.599C349.79 317.505 347.359 313.5 344.793 309.585C342.227 305.67 339.518 301.85 336.655 298.144C336.596 298.063 336.57 297.962 336.584 297.862C336.597 297.763 336.648 297.672 336.727 297.61C336.806 297.547 336.905 297.517 337.005 297.527C337.106 297.536 337.198 297.583 337.264 297.659H337.259Z" fill="white"/>
<path d="M355.447 328.117C355.394 328.118 355.341 328.112 355.289 328.099L339.234 324.257C339.147 324.236 339.065 324.198 338.992 324.145C338.92 324.093 338.858 324.026 338.812 323.95C338.765 323.873 338.733 323.789 338.719 323.7C338.705 323.612 338.709 323.521 338.73 323.434C338.751 323.347 338.788 323.265 338.841 323.192C338.894 323.12 338.96 323.058 339.037 323.011C339.113 322.965 339.198 322.933 339.286 322.919C339.375 322.905 339.465 322.909 339.552 322.93L355.606 326.771C355.771 326.807 355.918 326.903 356.016 327.041C356.115 327.179 356.158 327.348 356.139 327.516C356.119 327.685 356.037 327.839 355.909 327.951C355.781 328.062 355.617 328.121 355.447 328.117ZM360.933 336.997C360.855 336.998 360.778 336.984 360.705 336.958C360.62 336.929 360.542 336.883 360.475 336.823C360.408 336.763 360.354 336.69 360.315 336.609C360.276 336.528 360.254 336.441 360.249 336.351C360.245 336.261 360.258 336.172 360.288 336.087C362.079 331.024 363.466 325.828 364.436 320.546C364.469 320.368 364.571 320.21 364.72 320.107C364.869 320.005 365.053 319.965 365.231 319.998C365.409 320.031 365.566 320.133 365.669 320.282C365.772 320.431 365.811 320.615 365.778 320.793C364.794 326.145 363.389 331.411 361.576 336.543C361.529 336.676 361.442 336.791 361.327 336.873C361.211 336.954 361.074 336.998 360.933 336.997ZM369.877 359.824C369.753 359.825 369.63 359.792 369.524 359.728C369.417 359.664 369.33 359.572 369.271 359.462C369.213 359.352 369.186 359.228 369.193 359.104C369.201 358.98 369.242 358.86 369.312 358.757C371.62 355.349 373.627 351.746 375.312 347.99C375.348 347.909 375.401 347.835 375.466 347.773C375.531 347.712 375.608 347.664 375.691 347.632C375.775 347.6 375.864 347.585 375.954 347.587C376.043 347.59 376.132 347.61 376.213 347.647C376.295 347.683 376.369 347.736 376.431 347.801C376.492 347.866 376.54 347.943 376.572 348.026C376.604 348.11 376.619 348.199 376.617 348.289C376.614 348.379 376.594 348.467 376.557 348.549C374.841 352.377 372.796 356.049 370.444 359.523C370.381 359.616 370.297 359.692 370.198 359.745C370.099 359.797 369.989 359.824 369.877 359.824Z" fill="white"/>
<path d="M388.147 262.26C391.642 264.472 393.403 268.576 394.624 272.527C395.846 276.478 396.8 280.663 399.353 283.911C401.857 287.081 405.631 288.994 408.432 291.908C414.419 298.141 414.94 308.189 411.724 316.212C409.774 321.075 406.557 326.053 407.875 331.125C408.386 333.09 409.546 334.814 410.412 336.653C412.854 341.841 412.884 347.929 411.448 353.481C410.012 359.033 407.207 364.13 404.132 368.964C402.643 371.304 400.899 373.745 398.267 374.625C393.947 376.069 389.59 372.714 386.476 369.393C381.818 364.425 377.64 358.874 375.158 352.535C372.676 346.195 372.002 338.972 374.292 332.56C375.008 330.555 376.007 328.633 376.388 326.538C377.722 319.201 371.301 312.504 371.185 305.047C371.056 296.665 378.872 289.436 377.862 281.114C377.491 278.051 375.941 275.273 375.281 272.266C373.744 265.272 381.441 258.02 388.147 262.26Z" fill="url(#paint5_linear_326_581)"/>
<path d="M385.465 271.799C388.371 282.294 390.221 293.037 391.693 303.804C392.431 309.19 393.025 314.594 393.539 320.003C394.053 325.412 394.475 330.831 394.817 336.256C395.159 341.68 395.376 347.109 395.533 352.542C395.579 353.903 395.604 355.264 395.633 356.626L395.674 358.667L395.7 360.709L395.723 362.751V364.793C395.723 366.154 395.723 367.515 395.708 368.876C395.66 374.311 395.518 379.745 395.238 385.175L395.126 387.216L394.988 389.258L394.849 391.3L394.679 393.333C394.577 394.694 394.435 396.04 394.306 397.395C394.243 398.075 394.161 398.756 394.083 399.423L393.847 401.449C393.841 401.505 393.824 401.559 393.797 401.608C393.77 401.658 393.733 401.701 393.69 401.736C393.646 401.772 393.596 401.798 393.542 401.814C393.488 401.83 393.431 401.835 393.375 401.829C393.32 401.822 393.265 401.806 393.216 401.779C393.167 401.752 393.123 401.715 393.088 401.671C393.053 401.628 393.027 401.577 393.011 401.524C392.995 401.47 392.99 401.413 392.996 401.357C393.542 395.97 393.903 390.563 394.114 385.149C394.325 379.735 394.437 374.318 394.435 368.898V366.857L394.418 364.825L394.406 362.783L394.376 360.752L394.345 358.72L394.299 356.678C394.267 355.317 394.238 353.97 394.19 352.615C394.024 347.198 393.774 341.783 393.442 336.371C393.109 330.96 392.704 325.555 392.225 320.158C391.735 314.761 391.152 309.373 390.474 303.994C389.794 298.618 389.008 293.256 388.067 287.922C387.126 282.588 386.037 277.279 384.696 272.036C384.675 271.938 384.692 271.835 384.745 271.75C384.797 271.665 384.88 271.602 384.977 271.577C385.073 271.551 385.176 271.563 385.264 271.611C385.352 271.659 385.418 271.739 385.448 271.835L385.465 271.799Z" fill="white"/>
<path d="M391.835 312.836C391.691 312.836 391.55 312.79 391.434 312.705L385.528 308.39C382.758 306.365 379.893 304.274 376.987 302.36C376.836 302.261 376.73 302.105 376.694 301.928C376.657 301.751 376.693 301.566 376.792 301.415C376.892 301.264 377.047 301.158 377.224 301.122C377.402 301.085 377.586 301.121 377.737 301.22C380.672 303.151 383.549 305.254 386.333 307.288L392.239 311.603C392.356 311.687 392.444 311.806 392.489 311.944C392.534 312.081 392.534 312.23 392.489 312.367C392.444 312.504 392.356 312.624 392.239 312.708C392.121 312.793 391.98 312.837 391.835 312.836ZM393.93 327.744C393.798 327.745 393.67 327.707 393.559 327.636C393.449 327.565 393.361 327.463 393.307 327.343C393.253 327.223 393.235 327.091 393.255 326.961C393.275 326.831 393.332 326.709 393.419 326.611C398.03 321.374 402.555 315.936 406.861 310.447C406.917 310.377 406.986 310.318 407.065 310.274C407.143 310.23 407.23 310.203 407.319 310.192C407.408 310.182 407.499 310.189 407.585 310.214C407.672 310.239 407.753 310.28 407.823 310.336C407.894 310.392 407.952 310.461 407.996 310.539C408.04 310.618 408.068 310.704 408.078 310.794C408.088 310.883 408.081 310.974 408.056 311.06C408.032 311.147 407.99 311.227 407.935 311.298C403.606 316.806 399.067 322.264 394.439 327.52C394.374 327.591 394.296 327.648 394.208 327.686C394.121 327.725 394.026 327.745 393.93 327.744ZM394.622 353.695C394.489 353.695 394.358 353.655 394.246 353.581C389.301 350.314 384.716 346.533 380.565 342.302C380.502 342.238 380.453 342.162 380.419 342.079C380.386 341.996 380.369 341.907 380.37 341.817C380.371 341.728 380.389 341.639 380.424 341.557C380.459 341.474 380.51 341.399 380.574 341.337C380.638 341.274 380.714 341.224 380.797 341.191C380.881 341.157 380.969 341.14 381.059 341.141C381.149 341.142 381.237 341.161 381.32 341.196C381.402 341.231 381.477 341.282 381.54 341.346C385.623 345.509 390.134 349.228 394.998 352.443C395.122 352.523 395.217 352.641 395.268 352.779C395.319 352.918 395.323 353.069 395.281 353.21C395.239 353.352 395.151 353.475 395.033 353.563C394.914 353.65 394.77 353.697 394.622 353.695ZM395.87 363.681C395.738 363.682 395.607 363.659 395.483 363.611C395.34 363.557 395.213 363.468 395.114 363.352C395.014 363.235 394.946 363.096 394.915 362.946C394.886 362.81 394.9 362.668 394.954 362.54C395.008 362.412 395.1 362.303 395.218 362.229C395.336 362.155 395.473 362.119 395.612 362.125C395.751 362.132 395.885 362.181 395.995 362.265L405.403 355.517C405.55 355.412 405.733 355.369 405.911 355.399C406.09 355.428 406.249 355.528 406.355 355.675C406.46 355.822 406.503 356.005 406.473 356.183C406.444 356.362 406.344 356.521 406.197 356.627L396.8 363.37C396.529 363.565 396.204 363.674 395.87 363.681Z" fill="white"/>
<path d="M440.886 290.193C437.417 290.261 434.363 292.611 432.286 295.389C430.208 298.168 428.857 301.414 427.035 304.368C426.404 305.389 425.689 306.41 424.675 307.046C423.37 307.876 421.75 307.984 420.251 308.389C418.47 308.89 416.841 309.822 415.505 311.102C414.17 312.383 413.17 313.972 412.595 315.73C410.553 322.177 414.42 330.115 410.383 335.535C409.251 337.053 407.633 338.123 406.277 339.449C402.978 342.658 401.343 347.276 400.892 351.851C400.441 356.426 401.088 361.039 401.76 365.59C402.422 370.085 403.117 374.576 403.844 379.062C404.285 381.795 405.564 385.246 408.329 385.138C409.483 385.094 410.485 384.374 411.392 383.668C418.165 378.427 424.248 372.35 429.495 365.582C433.808 360.02 437.662 352.538 434.509 346.243C433.773 344.768 432.638 343.303 432.871 341.669C433.007 340.694 433.614 339.855 434.249 339.102C437.01 335.823 440.623 333.286 443.063 329.762C445.502 326.239 446.447 321.049 443.573 317.864C442.282 316.428 440.185 315.099 440.585 313.212C440.755 312.418 441.356 311.8 441.904 311.201C446.089 306.626 453.142 289.948 440.886 290.193Z" fill="url(#paint6_linear_326_581)"/>
<path d="M441.58 299.425C439.035 303.086 436.637 306.84 434.385 310.689C432.133 314.538 430.021 318.459 428.049 322.453C426.085 326.451 424.231 330.504 422.517 334.617C420.804 338.729 419.218 342.894 417.764 347.105C416.309 351.316 414.953 355.563 413.74 359.849L412.853 363.072C412.567 364.149 412.295 365.229 412.016 366.305C411.737 367.38 411.49 368.471 411.227 369.553C410.963 370.635 410.726 371.724 410.475 372.809C409.505 377.158 408.671 381.535 407.972 385.94C407.255 390.34 406.701 394.765 406.27 399.211C406.26 399.324 406.206 399.428 406.119 399.501C406.033 399.574 405.92 399.609 405.808 399.599C405.695 399.589 405.59 399.535 405.518 399.448C405.445 399.361 405.41 399.249 405.42 399.136L405.687 395.786L406.027 392.443C406.158 391.331 406.281 390.217 406.42 389.106C406.56 387.995 406.709 386.884 406.869 385.774C407.52 381.342 408.314 376.931 409.251 372.544C409.493 371.45 409.721 370.352 409.973 369.262C410.224 368.171 410.483 367.08 410.757 365.993C411.031 364.906 411.305 363.819 411.591 362.737L412.472 359.492C413.682 355.177 415.011 350.893 416.488 346.661C417.964 342.43 419.582 338.244 421.325 334.115C423.067 329.985 424.937 325.907 426.974 321.912C429.01 317.917 431.169 313.986 433.492 310.153C435.814 306.319 438.297 302.58 440.956 298.974C441.018 298.896 441.108 298.845 441.207 298.832C441.306 298.818 441.406 298.843 441.487 298.901C441.568 298.959 441.624 299.046 441.643 299.143C441.662 299.241 441.642 299.343 441.589 299.427L441.58 299.425Z" fill="white"/>
<path d="M423.874 328.612C423.102 327.634 422.374 326.64 421.663 325.613C420.943 324.577 420.29 323.497 419.706 322.38C419.413 321.818 419.146 321.243 418.894 320.667C418.771 320.375 418.652 320.084 418.537 319.792C418.418 319.499 418.312 319.205 418.205 318.911C417.781 317.734 417.422 316.536 417.128 315.321C417.103 315.211 417.122 315.096 417.181 315.001C417.24 314.905 417.334 314.837 417.443 314.81C417.54 314.787 417.642 314.799 417.731 314.843C417.821 314.887 417.892 314.961 417.933 315.052C418.443 316.183 418.901 317.325 419.384 318.455C419.633 319.014 419.864 319.579 420.126 320.127C420.249 320.406 420.383 320.677 420.511 320.952L420.917 321.766C421.46 322.85 422.071 323.901 422.69 324.961C423.31 326.021 423.953 327.091 424.53 328.194C424.575 328.28 424.587 328.381 424.563 328.475C424.539 328.57 424.48 328.652 424.398 328.706C424.316 328.759 424.217 328.78 424.12 328.764C424.024 328.748 423.937 328.696 423.876 328.619L423.874 328.612ZM422.518 333.353C423.985 332.766 425.46 332.216 426.942 331.673C428.424 331.131 429.901 330.598 431.381 330.065L433.605 329.274L434.72 328.885C435.09 328.754 435.461 328.623 435.834 328.497C437.321 327.986 438.813 327.476 440.321 327.008C440.423 326.977 440.534 326.986 440.63 327.033C440.726 327.081 440.801 327.162 440.84 327.262C440.879 327.362 440.879 327.472 440.84 327.572C440.802 327.672 440.727 327.754 440.63 327.801C439.201 328.481 437.738 329.099 436.276 329.684C435.543 329.982 434.803 330.258 434.064 330.535C433.326 330.812 432.581 331.08 431.836 331.342C430.343 331.862 428.843 332.362 427.33 332.822C425.818 333.281 424.298 333.717 422.758 334.088C422.661 334.114 422.558 334.102 422.469 334.054C422.381 334.006 422.315 333.926 422.284 333.83C422.253 333.735 422.261 333.631 422.305 333.54C422.35 333.45 422.427 333.38 422.522 333.346L422.518 333.353ZM411.82 361.623C411.139 360.573 410.544 359.484 409.979 358.376C409.414 357.269 408.895 356.134 408.412 354.989C408.172 354.413 407.946 353.833 407.721 353.253C407.496 352.673 407.292 352.086 407.098 351.494C406.7 350.314 406.364 349.114 406.091 347.899C406.069 347.795 406.087 347.687 406.14 347.596C406.194 347.505 406.279 347.437 406.38 347.405C406.481 347.373 406.59 347.379 406.686 347.423C406.782 347.467 406.859 347.545 406.901 347.642C407.382 348.778 407.833 349.92 408.289 351.058L408.97 352.76L409.31 353.61C409.426 353.894 409.547 354.177 409.65 354.461C410.111 355.596 410.59 356.724 411.066 357.856C411.542 358.987 412.029 360.115 412.493 361.258C412.531 361.349 412.534 361.451 412.5 361.543C412.467 361.635 412.4 361.712 412.313 361.757C412.225 361.802 412.124 361.813 412.03 361.787C411.935 361.761 411.853 361.701 411.801 361.617L411.82 361.623ZM411.056 368.134C412.34 367.197 413.637 366.283 414.927 365.362C416.216 364.442 417.504 363.521 418.782 362.587L419.742 361.888L420.698 361.184L422.612 359.776C423.885 358.834 425.156 357.886 426.447 356.959C426.534 356.894 426.643 356.866 426.75 356.879C426.858 356.892 426.957 356.945 427.026 357.028C427.095 357.112 427.131 357.218 427.124 357.326C427.118 357.434 427.07 357.536 426.992 357.611C425.838 358.72 424.628 359.766 423.388 360.777C422.77 361.287 422.137 361.772 421.508 362.264C420.878 362.756 420.228 363.222 419.58 363.69C418.28 364.621 416.96 365.522 415.607 366.375C414.254 367.227 412.885 368.047 411.468 368.794C411.38 368.842 411.278 368.855 411.182 368.83C411.085 368.804 411.002 368.743 410.95 368.659C410.897 368.574 410.879 368.473 410.898 368.375C410.918 368.278 410.974 368.191 411.056 368.134Z" fill="white"/>
<path d="M418.99 404.775L411.993 473.735C398.8 476.732 385.105 476.755 371.902 473.802L371.608 473.735L365.357 412.773L364.613 404.777L418.99 404.775Z" fill="url(#paint7_linear_326_581)"/>
<path d="M418.99 404.775L411.993 473.735C408.78 474.466 405.53 475.021 402.256 475.398C413.344 386.496 365.357 412.773 365.357 412.773L364.613 404.777L418.99 404.775Z" fill="url(#paint8_linear_326_581)"/>
<path d="M422.507 391.186V401.197C422.507 402.145 422.131 403.054 421.46 403.724C420.79 404.394 419.882 404.77 418.934 404.77L399.313 405.516C394.312 405.703 389.31 405.703 384.308 405.516L364.677 404.77C363.729 404.77 362.82 404.394 362.15 403.724C361.48 403.054 361.104 402.145 361.104 401.197V391.186C361.104 390.238 361.48 389.329 362.15 388.659C362.82 387.989 363.729 387.613 364.677 387.613L384.463 388.358C389.462 388.545 394.463 388.545 399.468 388.358L418.934 387.616C419.881 387.616 420.789 387.992 421.459 388.662C422.129 389.331 422.506 390.239 422.507 391.186Z" fill="url(#paint9_linear_326_581)"/>
<path d="M432.265 23H358.792C350.244 23 343.314 29.9292 343.314 38.4769V187.523C343.314 196.071 350.244 203 358.792 203H432.265C440.813 203 447.743 196.071 447.743 187.523V38.4769C447.743 29.9292 440.813 23 432.265 23Z" fill="url(#paint10_linear_326_581)"/>
<path d="M432.64 30.0283H358.142C352.478 30.0283 347.887 34.6197 347.887 40.2835V187.549C347.887 193.212 352.478 197.804 358.142 197.804H432.64C438.304 197.804 442.896 193.212 442.896 187.549V40.2835C442.896 34.6197 438.304 30.0283 432.64 30.0283Z" fill="white"/>
<path d="M416.368 26.1841H372.682C370.339 26.1841 368.439 28.0837 368.439 30.4269V30.4298C368.439 32.7731 370.339 34.6726 372.682 34.6726H416.368C418.711 34.6726 420.611 32.7731 420.611 30.4298V30.4269C420.611 28.0837 418.711 26.1841 416.368 26.1841Z" fill="#E1E6FB"/>
<path d="M404.785 26.9119H384.911C384.022 26.9119 383.301 27.6328 383.301 28.5221V28.525C383.301 29.4143 384.022 30.1353 384.911 30.1353H404.785C405.674 30.1353 406.395 29.4143 406.395 28.525V28.5221C406.395 27.6328 405.674 26.9119 404.785 26.9119Z" fill="white"/>
<path d="M432.046 51.5411H360.462C358.125 51.5411 356.23 53.4355 356.23 55.7724V71.2724C356.23 73.6093 358.125 75.5037 360.462 75.5037H432.046C434.383 75.5037 436.278 73.6093 436.278 71.2724V55.7724C436.278 53.4355 434.383 51.5411 432.046 51.5411Z" fill="#F5F5FC"/>
<path d="M368.431 71.9837C373.195 71.9837 377.056 68.1223 377.056 63.359C377.056 58.5958 373.195 54.7344 368.431 54.7344C363.668 54.7344 359.807 58.5958 359.807 63.359C359.807 68.1223 363.668 71.9837 368.431 71.9837Z" fill="#BAC5F4"/>
<path d="M428.019 55.4866H383.352C382.341 55.4866 381.521 56.306 381.521 57.3169C381.521 58.3278 382.341 59.1473 383.352 59.1473H428.019C429.03 59.1473 429.85 58.3278 429.85 57.3169C429.85 56.306 429.03 55.4866 428.019 55.4866Z" fill="#BAC5F4"/>
<path d="M417.767 61.569H383.352C382.341 61.569 381.521 62.3884 381.521 63.3993C381.521 64.4102 382.341 65.2297 383.352 65.2297H417.767C418.778 65.2297 419.597 64.4102 419.597 63.3993C419.597 62.3884 418.778 61.569 417.767 61.569Z" fill="#BAC5F4"/>
<path d="M391.45 68.3167H383.352C382.341 68.3167 381.521 69.1361 381.521 70.147C381.521 71.1579 382.341 71.9774 383.352 71.9774H391.45C392.46 71.9774 393.28 71.1579 393.28 70.147C393.28 69.1361 392.46 68.3167 391.45 68.3167Z" fill="#BAC5F4"/>
<path d="M432.046 113.363H360.462C358.125 113.363 356.23 115.258 356.23 117.595V133.095C356.23 135.431 358.125 137.326 360.462 137.326H432.046C434.383 137.326 436.278 135.431 436.278 133.095V117.595C436.278 115.258 434.383 113.363 432.046 113.363Z" fill="#F5F5FC"/>
<path d="M368.431 133.807C373.195 133.807 377.056 129.946 377.056 125.183C377.056 120.42 373.195 116.558 368.431 116.558C363.668 116.558 359.807 120.42 359.807 125.183C359.807 129.946 363.668 133.807 368.431 133.807Z" fill="#BAC5F4"/>
<path d="M428.019 117.313H383.352C382.341 117.313 381.521 118.132 381.521 119.143C381.521 120.154 382.341 120.974 383.352 120.974H428.019C429.03 120.974 429.85 120.154 429.85 119.143C429.85 118.132 429.03 117.313 428.019 117.313Z" fill="#BAC5F4"/>
<path d="M417.767 123.395H383.352C382.341 123.395 381.521 124.214 381.521 125.225C381.521 126.236 382.341 127.056 383.352 127.056H417.767C418.778 127.056 419.597 126.236 419.597 125.225C419.597 124.214 418.778 123.395 417.767 123.395Z" fill="#BAC5F4"/>
<path d="M391.45 130.143H383.352C382.341 130.143 381.521 130.962 381.521 131.973C381.521 132.984 382.341 133.803 383.352 133.803H391.45C392.46 133.803 393.28 132.984 393.28 131.973C393.28 130.962 392.46 130.143 391.45 130.143Z" fill="#BAC5F4"/>
<path d="M432.046 142.682H360.462C358.125 142.682 356.23 144.577 356.23 146.913V162.414C356.23 164.75 358.125 166.645 360.462 166.645H432.046C434.383 166.645 436.278 164.75 436.278 162.414V146.913C436.278 144.577 434.383 142.682 432.046 142.682Z" fill="#F5F5FC"/>
<path d="M368.431 163.12C373.195 163.12 377.056 159.259 377.056 154.495C377.056 149.732 373.195 145.871 368.431 145.871C363.668 145.871 359.807 149.732 359.807 154.495C359.807 159.259 363.668 163.12 368.431 163.12Z" fill="#BAC5F4"/>
<path d="M428.019 146.628H383.352C382.341 146.628 381.521 147.448 381.521 148.459C381.521 149.469 382.341 150.289 383.352 150.289H428.019C429.03 150.289 429.85 149.469 429.85 148.459C429.85 147.448 429.03 146.628 428.019 146.628Z" fill="#BAC5F4"/>
<path d="M417.767 152.711H383.352C382.341 152.711 381.521 153.53 381.521 154.541C381.521 155.552 382.341 156.371 383.352 156.371H417.767C418.778 156.371 419.597 155.552 419.597 154.541C419.597 153.53 418.778 152.711 417.767 152.711Z" fill="#BAC5F4"/>
<path d="M391.45 159.456H383.352C382.341 159.456 381.521 160.276 381.521 161.287C381.521 162.298 382.341 163.117 383.352 163.117H391.45C392.46 163.117 393.28 162.298 393.28 161.287C393.28 160.276 392.46 159.456 391.45 159.456Z" fill="#BAC5F4"/>
<path d="M413.287 84.7324H341.702C339.365 84.7324 337.471 86.6268 337.471 88.9637V104.464C337.471 106.801 339.365 108.695 341.702 108.695H413.287C415.623 108.695 417.518 106.801 417.518 104.464V88.9637C417.518 86.6268 415.623 84.7324 413.287 84.7324Z" fill="#F5F5FC"/>
<path d="M409.816 80.6777H338.231C335.894 80.6777 334 82.5721 334 84.909V100.409C334 102.746 335.894 104.64 338.231 104.64H409.816C412.153 104.64 414.047 102.746 414.047 100.409V84.909C414.047 82.5721 412.153 80.6777 409.816 80.6777Z" fill="url(#paint11_linear_326_581)"/>
<path d="M346.203 101.115C350.966 101.115 354.828 97.2532 354.828 92.4899C354.828 87.7266 350.966 83.8652 346.203 83.8652C341.44 83.8652 337.578 87.7266 337.578 92.4899C337.578 97.2532 341.44 101.115 346.203 101.115Z" fill="white"/>
<path d="M405.789 84.6245H361.121C360.111 84.6245 359.291 85.444 359.291 86.4549C359.291 87.4657 360.111 88.2852 361.121 88.2852H405.789C406.8 88.2852 407.619 87.4657 407.619 86.4549C407.619 85.444 406.8 84.6245 405.789 84.6245Z" fill="white"/>
<path d="M395.537 90.7075H361.121C360.111 90.7075 359.291 91.527 359.291 92.5379C359.291 93.5487 360.111 94.3682 361.121 94.3682H395.537C396.547 94.3682 397.367 93.5487 397.367 92.5379C397.367 91.527 396.547 90.7075 395.537 90.7075Z" fill="white"/>
<path d="M369.219 97.4546H361.121C360.111 97.4546 359.291 98.2741 359.291 99.2849C359.291 100.296 360.111 101.115 361.121 101.115H369.219C370.23 101.115 371.049 100.296 371.049 99.2849C371.049 98.2741 370.23 97.4546 369.219 97.4546Z" fill="white"/>
<path d="M522.911 435.581L519.996 449.052C519.996 449.052 528.038 454.983 533.768 451.766L536.683 438.597L522.911 435.581Z" fill="url(#paint12_linear_326_581)"/>
<path d="M522.71 448.147C522.71 448.147 520.498 443.523 518.086 443.322C515.673 443.02 494.663 454.279 488.129 454.279C481.595 454.279 480.59 462.221 482.902 463.527C485.515 465.035 532.461 472.072 532.461 472.072C532.461 472.072 537.085 455.787 536.281 450.962C535.477 446.338 527.435 450.158 522.71 448.147Z" fill="url(#paint13_linear_326_581)"/>
<path d="M585.739 258.255C584.532 263.382 581.316 286.905 580.009 292.333C572.771 324.602 570.76 323.898 559.3 361.092C555.078 394.366 547.841 407.234 537.989 440.709C536.984 440.91 535.576 440.91 533.968 440.809C533.365 440.809 532.661 440.709 532.058 440.608C527.936 440.105 523.111 438.799 519.995 436.487C519.995 436.487 517.582 429.349 525.825 383.61C530.249 359.182 537.989 299.47 541.708 270.519C543.015 260.567 543.719 254.334 543.719 254.334L574.982 262.075L575.485 262.175L576.792 262.477L585.739 258.255Z" fill="url(#paint14_linear_326_581)"/>
<path d="M594.484 434.375L595.691 452.068L608.558 448.952V434.375H594.484Z" fill="url(#paint15_linear_326_581)"/>
<path d="M600.218 448.449C600.218 448.449 607.054 446.639 608.964 446.639C610.874 446.639 623.54 460.914 627.762 461.718C635.502 463.226 635.502 475.289 630.778 475.892C617.106 477.601 593.885 471.871 593.885 471.871C593.885 471.871 591.774 456.39 592.679 451.465C593.583 446.639 596.398 449.856 600.218 448.449Z" fill="url(#paint16_linear_326_581)"/>
<path d="M610.367 436.286C607.351 437.593 603.029 437.995 598.807 437.894C598.204 437.894 597.5 437.894 596.897 437.794C595.389 437.693 593.881 437.593 592.474 437.492L573.072 254.435L580.813 263.683L584.331 263.382L586.241 263.281L617.907 260.969C617.907 260.969 617.907 264.789 617.907 271.122C617.907 292.735 618.007 342.998 619.214 364.712C620.822 392.758 610.367 436.286 610.367 436.286Z" fill="url(#paint17_linear_326_581)"/>
<path d="M610.268 168.485L618.812 195.828L628.161 221.864C629.669 227.293 635.701 230.107 640.827 227.795C640.928 227.795 641.028 227.695 641.129 227.695C649.975 223.473 645.15 206.082 645.15 206.082L643.441 205.981C642.737 204.071 640.928 199.246 638.616 193.114C638.314 192.41 638.013 191.606 637.711 190.802C637.208 189.495 636.706 188.188 636.203 186.781C635.5 184.871 634.695 182.86 633.891 180.85C628.161 165.972 623.336 149.787 623.336 149.787L619.415 138.026L610.268 168.485Z" fill="#2B3823"/>
<path d="M635.5 212.013C635.5 212.013 636.706 192.209 640.928 187.987C645.15 183.765 648.97 182.157 652.991 182.257C656.912 182.358 660.732 182.86 660.43 184.569C660.43 184.569 669.578 183.162 673.599 185.575C677.62 187.887 661.536 189.998 656.811 190.098C651.986 190.199 649.473 192.913 649.272 195.728C649.071 198.542 646.357 217.441 646.357 217.441L635.5 212.013Z" fill="url(#paint18_linear_326_581)"/>
<path d="M611.574 175.723C611.574 175.723 626.653 223.774 630.071 227.092C633.489 230.309 641.229 233.726 645.451 224.88C649.673 216.134 650.478 192.611 650.478 192.611L639.922 187.686L638.314 192.913L619.315 137.724C619.415 137.724 612.68 172.104 611.574 175.723Z" fill="url(#paint19_linear_326_581)"/>
<path d="M630.676 185.876L691.092 186.278C693.404 186.278 695.214 184.468 695.214 182.156C695.214 179.844 693.404 178.035 691.092 178.035L630.676 177.633C628.364 177.633 626.555 179.442 626.555 181.754C626.555 183.966 628.364 185.876 630.676 185.876Z" fill="url(#paint20_linear_326_581)"/>
<path d="M695.113 186.278L708.382 138.026C709.086 135.312 707.076 132.598 704.261 132.598L675.913 132.397C674.003 132.397 672.294 133.603 671.791 135.513L657.215 186.077L695.113 186.278Z" fill="url(#paint21_linear_326_581)"/>
<path d="M671.793 135.614L657.418 185.676H654.201L668.576 135.614C669.079 133.804 670.788 132.498 672.698 132.498H675.915C674.005 132.498 672.296 133.704 671.793 135.614ZM678.83 161.549C678.026 164.766 680.036 167.279 683.253 167.38C686.47 167.38 689.687 164.867 690.39 161.65C691.195 158.433 689.184 155.92 685.967 155.819C682.851 155.719 679.634 158.333 678.83 161.549Z" fill="white"/>
<path d="M450.936 118.825C449.73 118.926 448.624 118.825 447.619 118.323C445.106 117.016 442.894 115.709 441.688 114.804C440.984 114.302 440.582 114 440.582 114C440.281 114 438.974 114.201 436.662 112.894C434.048 111.386 432.741 108.873 433.043 107.466C433.344 106.059 435.154 105.757 435.154 105.757C435.154 105.757 434.249 104.45 434.651 103.043C435.053 101.635 437.968 100.831 437.968 100.831C437.968 100.831 437.164 99.0218 438.572 97.8155C439.979 96.7097 442.995 98.8207 443.296 99.0218C442.894 98.6197 433.746 88.9692 436.461 88.9692C439.275 88.8687 448.926 97.715 449.328 97.916C449.73 98.1171 452.143 97.916 454.455 98.3181C456.767 98.6197 457.872 99.6249 458.878 103.143C459.883 106.561 459.581 112.191 459.581 112.191C460.285 112.693 461.692 114 462.497 114.503C462.497 114.503 462.999 114.804 463.1 114.804C464.809 115.81 491.75 130.788 500.395 137.523C500.696 137.724 501.199 137.925 501.802 138.126C510.648 140.539 548.848 137.624 548.848 137.624L550.859 158.533C550.859 158.533 512.458 160.845 494.162 151.697C479.687 144.56 456.566 122.947 456.566 122.947L450.936 118.825Z" fill="url(#paint22_linear_326_581)"/>
<path d="M621.126 261.572C606.047 265.09 593.884 266.799 581.821 267C581.72 267 581.72 267 581.62 267C581.519 267 581.519 267 581.419 267C569.356 266.9 557.192 265.09 542.113 261.572C540.002 234.531 549.251 234.129 548.245 203.77C548.245 203.468 548.245 203.267 548.245 202.966C548.245 201.659 548.145 200.352 548.044 199.045C547.944 196.632 547.743 194.119 547.642 191.807C547.542 190.5 547.441 189.194 547.341 187.887C545.23 161.65 541.108 140.941 543.32 138.026C545.732 134.91 551.965 131.291 558.298 127.873C564.329 124.656 570.361 121.741 573.377 119.63C576.392 120.937 578.805 121.64 581.419 121.64C581.519 121.64 581.519 121.64 581.62 121.64C581.72 121.64 581.72 121.64 581.821 121.64C584.434 121.64 586.847 120.937 589.863 119.63C592.678 121.54 598.005 124.154 603.434 126.968C610.069 130.487 616.804 134.307 619.417 137.624C621.729 140.539 617.507 163.258 615.698 191.204C615.597 192.41 615.497 193.717 615.497 195.024C615.296 197.738 615.195 200.553 615.095 203.368C615.095 203.468 615.095 203.569 615.095 203.669C615.095 204.775 614.994 205.881 614.994 206.987C614.693 235.335 623.237 235.536 621.126 261.572Z" fill="url(#paint23_linear_326_581)"/>
<path d="M588.554 96.4082L593.38 121.841C593.38 121.841 586.443 125.561 581.819 125.963C577.195 126.365 569.052 122.947 569.052 122.947L568.449 108.27L588.554 96.4082Z" fill="url(#paint24_linear_326_581)"/>
<path d="M462.495 114L454.855 124.053C454.855 124.053 483.505 148.581 497.679 153.406C511.853 158.231 544.625 162.755 544.625 162.755C547.037 154.512 545.932 146.369 543.217 138.126C543.217 138.126 509.441 138.93 499.69 134.005C478.982 123.45 462.495 114 462.495 114Z" fill="url(#paint25_linear_326_581)"/>
<path d="M569.153 113.699C569.153 116.111 568.248 121.54 572.571 121.54C576.893 121.54 584.835 106.561 584.835 104.249C584.835 101.937 581.317 109.477 576.994 109.477C572.671 109.477 569.153 111.286 569.153 113.699Z" fill="#FF7F7F"/>
<path d="M556.893 60.7222C556.893 61.2248 552.269 85.2504 555.687 87.8641C559.205 90.5783 564.533 62.1296 564.533 62.1296L556.893 60.7222Z" fill="#2B2419"/>
<path d="M551.866 92.1866C552.168 95.8055 554.882 98.5197 557.998 98.2181C561.115 97.9165 563.326 94.6997 563.025 91.0808C562.723 87.4619 560.009 84.7477 556.893 85.0493C553.877 85.3508 551.565 88.5677 551.866 92.1866Z" fill="url(#paint26_linear_326_581)"/>
<path d="M558.502 68.8642C560.312 61.2243 548.148 114.101 566.946 116.513C577.703 117.921 587.655 108.17 588.961 104.551C591.575 96.7098 594.189 83.742 593.083 75.1974C592.681 71.679 597.104 67.5574 594.892 64.8432C589.967 58.7112 581.221 55.0922 573.883 55.3938C565.941 55.7959 560.312 60.6211 558.502 68.8642Z" fill="url(#paint27_linear_326_581)"/>
<path d="M589.663 89.6729V74.192C589.663 74.192 565.335 77.4088 557.595 69.1657C541.712 52.579 561.013 35.6906 586.245 56.2984C592.075 61.0231 597.202 63.1341 599.213 64.642C600.62 65.7478 601.525 67.4567 601.525 69.3667C601.525 73.2872 599.715 92.2866 596.197 98.8207L589.663 89.6729Z" fill="url(#paint28_linear_326_581)"/>
<path d="M600.217 96.3078C599.212 100.329 595.593 102.741 592.175 101.837C588.757 100.831 586.847 96.8104 587.953 92.8899C588.958 88.8689 592.577 86.4563 595.995 87.361C599.413 88.3663 601.323 92.3873 600.217 96.3078Z" fill="url(#paint29_linear_326_581)"/>
<path d="M590.769 61.9281C588.054 57.3039 582.023 49.1614 571.468 46.1456C567.849 45.1403 564.029 44.8388 560.108 45.3414L560.008 44.2356C564.029 43.733 567.949 44.0346 571.769 45.1403C582.626 48.1561 588.859 56.6003 591.673 61.325L590.769 61.9281Z" fill="#2B2419"/>
<defs>
<linearGradient id="paint0_linear_326_581" x1="490" y1="-49" x2="490" y2="549" gradientUnits="userSpaceOnUse">
<stop offset="0.0239582" stop-color="#46BBFD"/>
<stop offset="1" stop-color="#003397"/>
</linearGradient>
<linearGradient id="paint1_linear_326_581" x1="799" y1="461.055" x2="807.43" y2="461.055" gradientUnits="userSpaceOnUse">
<stop stop-color="white"/>
<stop offset="1" stop-color="white" stop-opacity="0.82"/>
</linearGradient>
<linearGradient id="paint2_linear_326_581" x1="807.43" y1="470.528" x2="832.716" y2="470.528" gradientUnits="userSpaceOnUse">
<stop stop-color="white"/>
<stop offset="1" stop-color="white" stop-opacity="0.82"/>
</linearGradient>
<linearGradient id="paint3_linear_326_581" x1="807.572" y1="451.543" x2="832.654" y2="451.543" gradientUnits="userSpaceOnUse">
<stop stop-color="white"/>
<stop offset="1" stop-color="white" stop-opacity="0.82"/>
</linearGradient>
<linearGradient id="paint4_linear_326_581" x1="346.161" y1="367.412" x2="399.635" y2="333.583" gradientUnits="userSpaceOnUse">
<stop offset="0.184024" stop-color="#03AB8D"/>
<stop offset="1" stop-color="#67FFD2"/>
</linearGradient>
<linearGradient id="paint5_linear_326_581" x1="377.769" y1="245.576" x2="345.202" y2="258.744" gradientUnits="userSpaceOnUse">
<stop offset="0.13627" stop-color="#F68CFF"/>
<stop offset="0.921622" stop-color="#630285"/>
</linearGradient>
<linearGradient id="paint6_linear_326_581" x1="415.238" y1="366.765" x2="465.262" y2="337.487" gradientUnits="userSpaceOnUse">
<stop offset="0.184024" stop-color="#03AB8D"/>
<stop offset="1" stop-color="#67FFD2"/>
</linearGradient>
<linearGradient id="paint7_linear_326_581" x1="391.802" y1="404.775" x2="391.802" y2="476" gradientUnits="userSpaceOnUse">
<stop stop-color="#5555CD"/>
<stop offset="1" stop-color="#B9B9FF"/>
</linearGradient>
<linearGradient id="paint8_linear_326_581" x1="391.802" y1="404.775" x2="391.802" y2="475.398" gradientUnits="userSpaceOnUse">
<stop stop-color="#B4B3FE"/>
<stop offset="1" stop-color="#4746CA"/>
</linearGradient>
<linearGradient id="paint9_linear_326_581" x1="422.556" y1="403.033" x2="360.929" y2="402.628" gradientUnits="userSpaceOnUse">
<stop stop-color="#FFA536"/>
<stop offset="1" stop-color="#FFCE91"/>
</linearGradient>
<linearGradient id="paint10_linear_326_581" x1="395.529" y1="23" x2="395.529" y2="203" gradientUnits="userSpaceOnUse">
<stop stop-color="#ACBBFB"/>
<stop offset="1" stop-color="#E1E6FB"/>
</linearGradient>
<linearGradient id="paint11_linear_326_581" x1="334" y1="93" x2="419.5" y2="93" gradientUnits="userSpaceOnUse">
<stop stop-color="#4163F0"/>
<stop offset="1" stop-color="#DCE3FF"/>
</linearGradient>
<linearGradient id="paint12_linear_326_581" x1="513.46" y1="432.633" x2="538.087" y2="448.793" gradientUnits="userSpaceOnUse">
<stop stop-color="white"/>
<stop offset="0.84427" stop-color="#FFC4C4"/>
</linearGradient>
<linearGradient id="paint13_linear_326_581" x1="533.104" y1="453.159" x2="486.897" y2="467.892" gradientUnits="userSpaceOnUse">
<stop stop-color="#090C08"/>
<stop offset="1" stop-color="#6C6C6C"/>
</linearGradient>
<linearGradient id="paint14_linear_326_581" x1="552.702" y1="254.334" x2="552.702" y2="440.875" gradientUnits="userSpaceOnUse">
<stop offset="0.218451" stop-color="#232326"/>
<stop offset="1" stop-color="#43436A"/>
</linearGradient>
<linearGradient id="paint15_linear_326_581" x1="588.972" y1="431.333" x2="612.05" y2="443.706" gradientUnits="userSpaceOnUse">
<stop stop-color="white"/>
<stop offset="0.84427" stop-color="#FFC4C4"/>
</linearGradient>
<linearGradient id="paint16_linear_326_581" x1="592.039" y1="457.178" x2="633.558" y2="475.928" gradientUnits="userSpaceOnUse">
<stop offset="0.308504" stop-color="#131A0F"/>
<stop offset="1" stop-color="#8B8B8B"/>
</linearGradient>
<linearGradient id="paint17_linear_326_581" x1="596.227" y1="254.435" x2="596.227" y2="437.909" gradientUnits="userSpaceOnUse">
<stop offset="0.296631" stop-color="#232326"/>
<stop offset="1" stop-color="#43436A"/>
</linearGradient>
<linearGradient id="paint18_linear_326_581" x1="676.414" y1="182.613" x2="628.731" y2="202.515" gradientUnits="userSpaceOnUse">
<stop stop-color="white"/>
<stop offset="0.84427" stop-color="#FFC4C4"/>
</linearGradient>
<linearGradient id="paint19_linear_326_581" x1="614.026" y1="152.042" x2="667.796" y2="200.849" gradientUnits="userSpaceOnUse">
<stop stop-color="#6038BA"/>
<stop offset="1" stop-color="#AD88FF"/>
</linearGradient>
<linearGradient id="paint20_linear_326_581" x1="660.935" y1="178.915" x2="660.935" y2="184.251" gradientUnits="userSpaceOnUse">
<stop stop-color="#E5E8FF"/>
<stop offset="0.0001" stop-color="#F6F7FF"/>
<stop offset="1" stop-color="#B8C8FF"/>
</linearGradient>
<linearGradient id="paint21_linear_326_581" x1="682.907" y1="140.39" x2="682.907" y2="173.647" gradientUnits="userSpaceOnUse">
<stop stop-color="#E5E8FF"/>
<stop offset="0.0001" stop-color="#F6F7FF"/>
<stop offset="1" stop-color="#B8C8FF"/>
</linearGradient>
<linearGradient id="paint22_linear_326_581" x1="410.556" y1="86.1797" x2="438.794" y2="141.626" gradientUnits="userSpaceOnUse">
<stop stop-color="white"/>
<stop offset="0.748538" stop-color="#FFC4C4"/>
</linearGradient>
<linearGradient id="paint23_linear_326_581" x1="546.819" y1="142.368" x2="631.562" y2="241.55" gradientUnits="userSpaceOnUse">
<stop stop-color="#6038BA"/>
<stop offset="1" stop-color="#AD88FF"/>
</linearGradient>
<linearGradient id="paint24_linear_326_581" x1="558.684" y1="91.3195" x2="598.481" y2="113.921" gradientUnits="userSpaceOnUse">
<stop stop-color="white"/>
<stop offset="0.84427" stop-color="#FFC4C4"/>
</linearGradient>
<linearGradient id="paint25_linear_326_581" x1="460.596" y1="121.523" x2="473.82" y2="175.021" gradientUnits="userSpaceOnUse">
<stop stop-color="#AD88FF"/>
<stop offset="1" stop-color="#6038BA"/>
</linearGradient>
<linearGradient id="paint26_linear_326_581" x1="547.448" y1="82.7536" x2="565.286" y2="92.9547" gradientUnits="userSpaceOnUse">
<stop stop-color="white"/>
<stop offset="0.84427" stop-color="#FFC4C4"/>
</linearGradient>
<linearGradient id="paint27_linear_326_581" x1="540.916" y1="44.8378" x2="605.808" y2="84.633" gradientUnits="userSpaceOnUse">
<stop offset="0.248642" stop-color="white"/>
<stop offset="0.84427" stop-color="#FFC4C4"/>
</linearGradient>
<linearGradient id="paint28_linear_326_581" x1="576.673" y1="46.7883" x2="576.673" y2="98.8207" gradientUnits="userSpaceOnUse">
<stop stop-color="#2B2419"/>
<stop offset="1" stop-color="#172A59"/>
</linearGradient>
<linearGradient id="paint29_linear_326_581" x1="582.589" y1="84.6165" x2="602.868" y2="96.4791" gradientUnits="userSpaceOnUse">
<stop stop-color="white"/>
<stop offset="0.84427" stop-color="#FFC4C4"/>
</linearGradient>
<clipPath id="clip0_326_581">
<rect width="160.567" height="38" fill="white" transform="translate(799 442)"/>
</clipPath>
</defs>
</svg>
