<svg width="980" height="500" viewBox="0 0 980 500" fill="none" xmlns="http://www.w3.org/2000/svg">
<g clip-path="url(#clip0_200_4)">
<rect width="980" height="500" fill="url(#paint0_linear_200_4)"/>
<g opacity="0.12">
<rect x="-11.3271" y="500.189" width="55.0215" height="45.3113" stroke="#3F3BFF" stroke-opacity="0.3"/>
<rect x="44.6943" y="500.189" width="54.4318" height="45.3113" stroke="#3F3BFF" stroke-opacity="0.3"/>
<rect x="267.6" y="500.189" width="54.4318" height="45.3113" stroke="#3F3BFF" stroke-opacity="0.3"/>
<rect x="100.126" y="500.189" width="55.0215" height="45.3113" stroke="#3F3BFF" stroke-opacity="0.3"/>
<rect x="323.031" y="500.189" width="55.0215" height="45.3113" stroke="#3F3BFF" stroke-opacity="0.3"/>
<rect x="156.147" y="500.189" width="54.4318" height="45.3113" stroke="#3F3BFF" stroke-opacity="0.3"/>
<rect x="379.054" y="500.189" width="54.4318" height="45.3113" stroke="#3F3BFF" stroke-opacity="0.3"/>
<rect x="211.58" y="500.189" width="55.0215" height="45.3113" stroke="#3F3BFF" stroke-opacity="0.3"/>
<rect x="434.485" y="500.189" width="55.0215" height="45.3113" stroke="#3F3BFF" stroke-opacity="0.3"/>
<rect x="-11.3271" y="455.422" width="55.0215" height="45.3113" stroke="#3F3BFF" stroke-opacity="0.3"/>
<rect x="44.6934" y="455.422" width="54.4318" height="45.3113" stroke="#3F3BFF" stroke-opacity="0.3"/>
<rect x="267.6" y="455.422" width="54.4318" height="45.3113" stroke="#3F3BFF" stroke-opacity="0.3"/>
<rect x="100.126" y="455.422" width="55.0215" height="45.3113" stroke="#3F3BFF" stroke-opacity="0.3"/>
<rect x="323.032" y="455.422" width="55.0215" height="45.3113" stroke="#3F3BFF" stroke-opacity="0.3"/>
<rect x="156.147" y="455.422" width="54.4318" height="45.3113" stroke="#3F3BFF" stroke-opacity="0.3"/>
<rect x="379.053" y="455.422" width="54.4318" height="45.3113" stroke="#3F3BFF" stroke-opacity="0.3"/>
<rect x="211.58" y="455.422" width="55.0215" height="45.3113" stroke="#3F3BFF" stroke-opacity="0.3"/>
<rect x="434.484" y="455.422" width="55.0215" height="45.3113" stroke="#3F3BFF" stroke-opacity="0.3"/>
<rect x="-11.3271" y="409.795" width="55.0215" height="45.3113" stroke="#3F3BFF" stroke-opacity="0.3"/>
<rect x="44.6934" y="409.795" width="54.4318" height="45.3113" stroke="#3F3BFF" stroke-opacity="0.3"/>
<rect x="267.6" y="409.795" width="54.4318" height="45.3113" stroke="#3F3BFF" stroke-opacity="0.3"/>
<rect x="100.126" y="409.795" width="55.0215" height="45.3113" stroke="#3F3BFF" stroke-opacity="0.3"/>
<rect x="323.031" y="409.795" width="55.0215" height="45.3113" stroke="#3F3BFF" stroke-opacity="0.3"/>
<rect x="156.147" y="409.795" width="54.4318" height="45.3113" stroke="#3F3BFF" stroke-opacity="0.3"/>
<rect x="379.052" y="409.795" width="54.4318" height="45.3113" stroke="#3F3BFF" stroke-opacity="0.3"/>
<rect x="211.579" y="409.795" width="55.0215" height="45.3113" stroke="#3F3BFF" stroke-opacity="0.3"/>
<rect x="434.485" y="409.795" width="55.0215" height="45.3113" stroke="#3F3BFF" stroke-opacity="0.3"/>
<rect x="-11.3271" y="364.165" width="55.0215" height="45.3113" stroke="#3F3BFF" stroke-opacity="0.3"/>
<rect x="44.6943" y="364.165" width="54.4318" height="45.3113" stroke="#3F3BFF" stroke-opacity="0.3"/>
<rect x="267.6" y="364.165" width="54.4318" height="45.3113" stroke="#3F3BFF" stroke-opacity="0.3"/>
<rect x="100.126" y="364.165" width="55.0215" height="45.3113" stroke="#3F3BFF" stroke-opacity="0.3"/>
<rect x="323.031" y="364.165" width="55.0215" height="45.3113" stroke="#3F3BFF" stroke-opacity="0.3"/>
<rect x="156.147" y="364.165" width="54.4318" height="45.3113" stroke="#3F3BFF" stroke-opacity="0.3"/>
<rect x="379.054" y="364.165" width="54.4318" height="45.3113" stroke="#3F3BFF" stroke-opacity="0.3"/>
<rect x="211.58" y="364.165" width="55.0215" height="45.3113" stroke="#3F3BFF" stroke-opacity="0.3"/>
<rect x="434.485" y="364.165" width="55.0215" height="45.3113" stroke="#3F3BFF" stroke-opacity="0.3"/>
<rect x="-11.3271" y="318.532" width="55.0215" height="45.3113" stroke="#3F3BFF" stroke-opacity="0.3"/>
<rect x="44.6934" y="318.532" width="54.4318" height="45.3113" stroke="#3F3BFF" stroke-opacity="0.3"/>
<rect x="267.6" y="318.532" width="54.4318" height="45.3113" stroke="#3F3BFF" stroke-opacity="0.3"/>
<rect x="100.126" y="318.532" width="55.0215" height="45.3113" stroke="#3F3BFF" stroke-opacity="0.3"/>
<rect x="323.031" y="318.532" width="55.0215" height="45.3113" stroke="#3F3BFF" stroke-opacity="0.3"/>
<rect x="156.147" y="318.532" width="54.4318" height="45.3113" stroke="#3F3BFF" stroke-opacity="0.3"/>
<rect x="379.053" y="318.532" width="54.4318" height="45.3113" stroke="#3F3BFF" stroke-opacity="0.3"/>
<rect x="211.58" y="318.532" width="55.0215" height="45.3113" stroke="#3F3BFF" stroke-opacity="0.3"/>
<rect x="434.484" y="318.532" width="55.0215" height="45.3113" stroke="#3F3BFF" stroke-opacity="0.3"/>
<rect x="-11.3271" y="272.9" width="55.0215" height="45.3113" stroke="#3F3BFF" stroke-opacity="0.3"/>
<rect x="44.6943" y="272.9" width="54.4318" height="45.3113" stroke="#3F3BFF" stroke-opacity="0.3"/>
<rect x="267.6" y="272.9" width="54.4318" height="45.3113" stroke="#3F3BFF" stroke-opacity="0.3"/>
<rect x="100.126" y="272.9" width="55.0215" height="45.3113" stroke="#3F3BFF" stroke-opacity="0.3"/>
<rect x="323.031" y="272.9" width="55.0215" height="45.3113" stroke="#3F3BFF" stroke-opacity="0.3"/>
<rect x="156.147" y="272.9" width="54.4318" height="45.3113" stroke="#3F3BFF" stroke-opacity="0.3"/>
<rect x="379.054" y="272.9" width="54.4318" height="45.3113" stroke="#3F3BFF" stroke-opacity="0.3"/>
<rect x="211.58" y="272.9" width="55.0215" height="45.3113" stroke="#3F3BFF" stroke-opacity="0.3"/>
<rect x="434.485" y="272.9" width="55.0215" height="45.3113" stroke="#3F3BFF" stroke-opacity="0.3"/>
<rect x="-11.3271" y="227.277" width="55.0215" height="45.3113" stroke="#3F3BFF" stroke-opacity="0.3"/>
<rect x="44.6943" y="227.277" width="54.4318" height="45.3113" stroke="#3F3BFF" stroke-opacity="0.3"/>
<rect x="267.6" y="227.277" width="54.4318" height="45.3113" stroke="#3F3BFF" stroke-opacity="0.3"/>
<rect x="100.126" y="227.277" width="55.0215" height="45.3113" stroke="#3F3BFF" stroke-opacity="0.3"/>
<rect x="323.031" y="227.277" width="55.0215" height="45.3113" stroke="#3F3BFF" stroke-opacity="0.3"/>
<rect x="156.147" y="227.277" width="54.4318" height="45.3113" stroke="#3F3BFF" stroke-opacity="0.3"/>
<rect x="379.053" y="227.277" width="54.4318" height="45.3113" stroke="#3F3BFF" stroke-opacity="0.3"/>
<rect x="211.58" y="227.277" width="55.0215" height="45.3113" stroke="#3F3BFF" stroke-opacity="0.3"/>
<rect x="434.484" y="227.277" width="55.0215" height="45.3113" stroke="#3F3BFF" stroke-opacity="0.3"/>
<rect x="-11.3271" y="181.639" width="55.0215" height="45.3113" stroke="#3F3BFF" stroke-opacity="0.3"/>
<rect x="44.6934" y="181.639" width="54.4318" height="45.3113" stroke="#3F3BFF" stroke-opacity="0.3"/>
<rect x="267.6" y="181.639" width="54.4318" height="45.3113" stroke="#3F3BFF" stroke-opacity="0.3"/>
<rect x="100.126" y="181.639" width="55.0215" height="45.3113" stroke="#3F3BFF" stroke-opacity="0.3"/>
<rect x="323.031" y="181.639" width="55.0215" height="45.3113" stroke="#3F3BFF" stroke-opacity="0.3"/>
<rect x="156.147" y="181.639" width="54.4318" height="45.3113" stroke="#3F3BFF" stroke-opacity="0.3"/>
<rect x="379.054" y="181.639" width="54.4318" height="45.3113" stroke="#3F3BFF" stroke-opacity="0.3"/>
<rect x="211.58" y="181.639" width="55.0215" height="45.3113" stroke="#3F3BFF" stroke-opacity="0.3"/>
<rect x="434.485" y="181.639" width="55.0215" height="45.3113" stroke="#3F3BFF" stroke-opacity="0.3"/>
<rect x="-11.3271" y="136.016" width="55.0215" height="45.3113" stroke="#3F3BFF" stroke-opacity="0.3"/>
<rect x="44.6934" y="136.016" width="54.4318" height="45.3113" stroke="#3F3BFF" stroke-opacity="0.3"/>
<rect x="267.6" y="136.016" width="54.4318" height="45.3113" stroke="#3F3BFF" stroke-opacity="0.3"/>
<rect x="100.126" y="136.016" width="55.0215" height="45.3113" stroke="#3F3BFF" stroke-opacity="0.3"/>
<rect x="323.031" y="136.016" width="55.0215" height="45.3113" stroke="#3F3BFF" stroke-opacity="0.3"/>
<rect x="156.147" y="136.016" width="54.4318" height="45.3113" stroke="#3F3BFF" stroke-opacity="0.3"/>
<rect x="379.052" y="136.016" width="54.4318" height="45.3113" stroke="#3F3BFF" stroke-opacity="0.3"/>
<rect x="211.579" y="136.016" width="55.0215" height="45.3113" stroke="#3F3BFF" stroke-opacity="0.3"/>
<rect x="434.485" y="136.016" width="55.0215" height="45.3113" stroke="#3F3BFF" stroke-opacity="0.3"/>
<rect x="-11.3271" y="90.3892" width="55.0215" height="45.3113" stroke="#3F3BFF" stroke-opacity="0.3"/>
<rect x="44.6934" y="90.3892" width="54.4318" height="45.3113" stroke="#3F3BFF" stroke-opacity="0.3"/>
<rect x="267.6" y="90.3892" width="54.4318" height="45.3113" stroke="#3F3BFF" stroke-opacity="0.3"/>
<rect x="100.126" y="90.3892" width="55.0215" height="45.3113" stroke="#3F3BFF" stroke-opacity="0.3"/>
<rect x="323.031" y="90.3892" width="55.0215" height="45.3113" stroke="#3F3BFF" stroke-opacity="0.3"/>
<rect x="156.147" y="90.3892" width="54.4318" height="45.3113" stroke="#3F3BFF" stroke-opacity="0.3"/>
<rect x="379.054" y="90.3892" width="54.4318" height="45.3113" stroke="#3F3BFF" stroke-opacity="0.3"/>
<rect x="211.578" y="90.3892" width="55.0215" height="45.3113" stroke="#3F3BFF" stroke-opacity="0.3"/>
<rect x="434.485" y="90.3892" width="55.0215" height="45.3113" stroke="#3F3BFF" stroke-opacity="0.3"/>
<rect x="-11.3271" y="44.7662" width="55.0215" height="45.3113" stroke="#3F3BFF" stroke-opacity="0.3"/>
<rect x="44.6934" y="44.7662" width="54.4318" height="45.3113" stroke="#3F3BFF" stroke-opacity="0.3"/>
<rect x="267.6" y="44.7662" width="54.4318" height="45.3113" stroke="#3F3BFF" stroke-opacity="0.3"/>
<rect x="100.126" y="44.7662" width="55.0215" height="45.3113" stroke="#3F3BFF" stroke-opacity="0.3"/>
<rect x="323.031" y="44.7662" width="55.0215" height="45.3113" stroke="#3F3BFF" stroke-opacity="0.3"/>
<rect x="156.147" y="44.7662" width="54.4318" height="45.3113" stroke="#3F3BFF" stroke-opacity="0.3"/>
<rect x="379.054" y="44.7662" width="54.4318" height="45.3113" stroke="#3F3BFF" stroke-opacity="0.3"/>
<rect x="211.58" y="44.7662" width="55.0215" height="45.3113" stroke="#3F3BFF" stroke-opacity="0.3"/>
<rect x="434.485" y="44.7662" width="55.0215" height="45.3113" stroke="#3F3BFF" stroke-opacity="0.3"/>
<rect x="-11.3271" y="-0.877502" width="55.0215" height="45.3113" stroke="#3F3BFF" stroke-opacity="0.3"/>
<rect x="44.6934" y="-0.877502" width="54.4318" height="45.3113" stroke="#3F3BFF" stroke-opacity="0.3"/>
<rect x="267.6" y="-0.877502" width="54.4318" height="45.3113" stroke="#3F3BFF" stroke-opacity="0.3"/>
<rect x="100.126" y="-0.877502" width="55.0215" height="45.3113" stroke="#3F3BFF" stroke-opacity="0.3"/>
<rect x="323.031" y="-0.877502" width="55.0215" height="45.3113" stroke="#3F3BFF" stroke-opacity="0.3"/>
<rect x="156.147" y="-0.877502" width="54.4318" height="45.3113" stroke="#3F3BFF" stroke-opacity="0.3"/>
<rect x="379.052" y="-0.877502" width="54.4318" height="45.3113" stroke="#3F3BFF" stroke-opacity="0.3"/>
<rect x="211.579" y="-0.877502" width="55.0215" height="45.3113" stroke="#3F3BFF" stroke-opacity="0.3"/>
<rect x="434.485" y="-0.877502" width="55.0215" height="45.3113" stroke="#3F3BFF" stroke-opacity="0.3"/>
</g>
<g opacity="0.12">
<rect x="490.51" y="500.189" width="55.0215" height="45.3113" stroke="#3F3BFF" stroke-opacity="0.3"/>
<rect x="713.416" y="500.189" width="55.0215" height="45.3113" stroke="#3F3BFF" stroke-opacity="0.3"/>
<rect x="546.529" y="500.189" width="54.4318" height="45.3113" stroke="#3F3BFF" stroke-opacity="0.3"/>
<rect x="769.438" y="500.189" width="54.4318" height="45.3113" stroke="#3F3BFF" stroke-opacity="0.3"/>
<rect x="601.962" y="500.189" width="55.0215" height="45.3113" stroke="#3F3BFF" stroke-opacity="0.3"/>
<rect x="824.869" y="500.189" width="55.0215" height="45.3113" stroke="#3F3BFF" stroke-opacity="0.3"/>
<rect x="657.984" y="500.189" width="54.4318" height="45.3113" stroke="#3F3BFF" stroke-opacity="0.3"/>
<rect x="880.892" y="500.189" width="54.4318" height="45.3113" stroke="#3F3BFF" stroke-opacity="0.3"/>
<rect x="713.416" y="500.189" width="55.0215" height="45.3113" stroke="#3F3BFF" stroke-opacity="0.3"/>
<rect x="936.323" y="500.189" width="55.0215" height="45.3113" stroke="#3F3BFF" stroke-opacity="0.3"/>
<rect x="490.51" y="455.422" width="55.0215" height="45.3113" stroke="#3F3BFF" stroke-opacity="0.3"/>
<rect x="713.417" y="455.422" width="55.0215" height="45.3113" stroke="#3F3BFF" stroke-opacity="0.3"/>
<rect x="546.53" y="455.422" width="54.4318" height="45.3113" stroke="#3F3BFF" stroke-opacity="0.3"/>
<rect x="769.438" y="455.422" width="54.4318" height="45.3113" stroke="#3F3BFF" stroke-opacity="0.3"/>
<rect x="601.963" y="455.422" width="55.0215" height="45.3113" stroke="#3F3BFF" stroke-opacity="0.3"/>
<rect x="824.87" y="455.422" width="55.0215" height="45.3113" stroke="#3F3BFF" stroke-opacity="0.3"/>
<rect x="657.984" y="455.422" width="54.4318" height="45.3113" stroke="#3F3BFF" stroke-opacity="0.3"/>
<rect x="880.892" y="455.422" width="54.4318" height="45.3113" stroke="#3F3BFF" stroke-opacity="0.3"/>
<rect x="713.417" y="455.422" width="55.0215" height="45.3113" stroke="#3F3BFF" stroke-opacity="0.3"/>
<rect x="936.323" y="455.422" width="55.0215" height="45.3113" stroke="#3F3BFF" stroke-opacity="0.3"/>
<rect x="490.51" y="409.79" width="55.0215" height="45.3113" stroke="#3F3BFF" stroke-opacity="0.3"/>
<rect x="713.416" y="409.79" width="55.0215" height="45.3113" stroke="#3F3BFF" stroke-opacity="0.3"/>
<rect x="546.529" y="409.79" width="54.4318" height="45.3113" stroke="#3F3BFF" stroke-opacity="0.3"/>
<rect x="769.438" y="409.79" width="54.4318" height="45.3113" stroke="#3F3BFF" stroke-opacity="0.3"/>
<rect x="601.962" y="409.79" width="55.0215" height="45.3113" stroke="#3F3BFF" stroke-opacity="0.3"/>
<rect x="824.869" y="409.79" width="55.0215" height="45.3113" stroke="#3F3BFF" stroke-opacity="0.3"/>
<rect x="657.984" y="409.79" width="54.4318" height="45.3113" stroke="#3F3BFF" stroke-opacity="0.3"/>
<rect x="880.892" y="409.79" width="54.4318" height="45.3113" stroke="#3F3BFF" stroke-opacity="0.3"/>
<rect x="713.416" y="409.79" width="55.0215" height="45.3113" stroke="#3F3BFF" stroke-opacity="0.3"/>
<rect x="936.323" y="409.79" width="55.0215" height="45.3113" stroke="#3F3BFF" stroke-opacity="0.3"/>
<rect x="490.51" y="364.165" width="55.0215" height="45.3113" stroke="#3F3BFF" stroke-opacity="0.3"/>
<rect x="713.416" y="364.165" width="55.0215" height="45.3113" stroke="#3F3BFF" stroke-opacity="0.3"/>
<rect x="546.529" y="364.165" width="54.4318" height="45.3113" stroke="#3F3BFF" stroke-opacity="0.3"/>
<rect x="769.438" y="364.165" width="54.4318" height="45.3113" stroke="#3F3BFF" stroke-opacity="0.3"/>
<rect x="601.962" y="364.165" width="55.0215" height="45.3113" stroke="#3F3BFF" stroke-opacity="0.3"/>
<rect x="824.869" y="364.165" width="55.0215" height="45.3113" stroke="#3F3BFF" stroke-opacity="0.3"/>
<rect x="657.984" y="364.165" width="54.4318" height="45.3113" stroke="#3F3BFF" stroke-opacity="0.3"/>
<rect x="880.892" y="364.165" width="54.4318" height="45.3113" stroke="#3F3BFF" stroke-opacity="0.3"/>
<rect x="713.416" y="364.165" width="55.0215" height="45.3113" stroke="#3F3BFF" stroke-opacity="0.3"/>
<rect x="936.323" y="364.165" width="55.0215" height="45.3113" stroke="#3F3BFF" stroke-opacity="0.3"/>
<rect x="490.51" y="318.532" width="55.0215" height="45.3113" stroke="#3F3BFF" stroke-opacity="0.3"/>
<rect x="713.416" y="318.532" width="55.0215" height="45.3113" stroke="#3F3BFF" stroke-opacity="0.3"/>
<rect x="546.53" y="318.532" width="54.4318" height="45.3113" stroke="#3F3BFF" stroke-opacity="0.3"/>
<rect x="769.438" y="318.532" width="54.4318" height="45.3113" stroke="#3F3BFF" stroke-opacity="0.3"/>
<rect x="601.963" y="318.532" width="55.0215" height="45.3113" stroke="#3F3BFF" stroke-opacity="0.3"/>
<rect x="824.869" y="318.532" width="55.0215" height="45.3113" stroke="#3F3BFF" stroke-opacity="0.3"/>
<rect x="657.984" y="318.532" width="54.4318" height="45.3113" stroke="#3F3BFF" stroke-opacity="0.3"/>
<rect x="880.892" y="318.532" width="54.4318" height="45.3113" stroke="#3F3BFF" stroke-opacity="0.3"/>
<rect x="713.416" y="318.532" width="55.0215" height="45.3113" stroke="#3F3BFF" stroke-opacity="0.3"/>
<rect x="936.323" y="318.532" width="55.0215" height="45.3113" stroke="#3F3BFF" stroke-opacity="0.3"/>
<rect x="490.51" y="272.899" width="55.0215" height="45.3113" stroke="#3F3BFF" stroke-opacity="0.3"/>
<rect x="713.416" y="272.899" width="55.0215" height="45.3113" stroke="#3F3BFF" stroke-opacity="0.3"/>
<rect x="546.53" y="272.899" width="54.4318" height="45.3113" stroke="#3F3BFF" stroke-opacity="0.3"/>
<rect x="769.438" y="272.899" width="54.4318" height="45.3113" stroke="#3F3BFF" stroke-opacity="0.3"/>
<rect x="601.962" y="272.899" width="55.0215" height="45.3113" stroke="#3F3BFF" stroke-opacity="0.3"/>
<rect x="824.869" y="272.899" width="55.0215" height="45.3113" stroke="#3F3BFF" stroke-opacity="0.3"/>
<rect x="657.984" y="272.899" width="54.4318" height="45.3113" stroke="#3F3BFF" stroke-opacity="0.3"/>
<rect x="880.892" y="272.899" width="54.4318" height="45.3113" stroke="#3F3BFF" stroke-opacity="0.3"/>
<rect x="713.416" y="272.899" width="55.0215" height="45.3113" stroke="#3F3BFF" stroke-opacity="0.3"/>
<rect x="936.323" y="272.899" width="55.0215" height="45.3113" stroke="#3F3BFF" stroke-opacity="0.3"/>
<rect x="490.51" y="227.277" width="55.0215" height="45.3113" stroke="#3F3BFF" stroke-opacity="0.3"/>
<rect x="713.416" y="227.277" width="55.0215" height="45.3113" stroke="#3F3BFF" stroke-opacity="0.3"/>
<rect x="546.53" y="227.277" width="54.4318" height="45.3113" stroke="#3F3BFF" stroke-opacity="0.3"/>
<rect x="769.438" y="227.277" width="54.4318" height="45.3113" stroke="#3F3BFF" stroke-opacity="0.3"/>
<rect x="601.962" y="227.277" width="55.0215" height="45.3113" stroke="#3F3BFF" stroke-opacity="0.3"/>
<rect x="824.869" y="227.277" width="55.0215" height="45.3113" stroke="#3F3BFF" stroke-opacity="0.3"/>
<rect x="657.984" y="227.277" width="54.4318" height="45.3113" stroke="#3F3BFF" stroke-opacity="0.3"/>
<rect x="880.892" y="227.277" width="54.4318" height="45.3113" stroke="#3F3BFF" stroke-opacity="0.3"/>
<rect x="713.416" y="227.277" width="55.0215" height="45.3113" stroke="#3F3BFF" stroke-opacity="0.3"/>
<rect x="936.323" y="227.277" width="55.0215" height="45.3113" stroke="#3F3BFF" stroke-opacity="0.3"/>
<rect x="490.51" y="181.639" width="55.0215" height="45.3113" stroke="#3F3BFF" stroke-opacity="0.3"/>
<rect x="713.416" y="181.639" width="55.0215" height="45.3113" stroke="#3F3BFF" stroke-opacity="0.3"/>
<rect x="546.529" y="181.639" width="54.4318" height="45.3113" stroke="#3F3BFF" stroke-opacity="0.3"/>
<rect x="769.438" y="181.639" width="54.4318" height="45.3113" stroke="#3F3BFF" stroke-opacity="0.3"/>
<rect x="601.963" y="181.639" width="55.0215" height="45.3113" stroke="#3F3BFF" stroke-opacity="0.3"/>
<rect x="824.869" y="181.639" width="55.0215" height="45.3113" stroke="#3F3BFF" stroke-opacity="0.3"/>
<rect x="657.984" y="181.639" width="54.4318" height="45.3113" stroke="#3F3BFF" stroke-opacity="0.3"/>
<rect x="880.892" y="181.639" width="54.4318" height="45.3113" stroke="#3F3BFF" stroke-opacity="0.3"/>
<rect x="713.416" y="181.639" width="55.0215" height="45.3113" stroke="#3F3BFF" stroke-opacity="0.3"/>
<rect x="936.323" y="181.639" width="55.0215" height="45.3113" stroke="#3F3BFF" stroke-opacity="0.3"/>
<rect x="490.51" y="136.016" width="55.0215" height="45.3113" stroke="#3F3BFF" stroke-opacity="0.3"/>
<rect x="713.416" y="136.016" width="55.0215" height="45.3113" stroke="#3F3BFF" stroke-opacity="0.3"/>
<rect x="546.529" y="136.016" width="54.4318" height="45.3113" stroke="#3F3BFF" stroke-opacity="0.3"/>
<rect x="769.438" y="136.016" width="54.4318" height="45.3113" stroke="#3F3BFF" stroke-opacity="0.3"/>
<rect x="601.963" y="136.016" width="55.0215" height="45.3113" stroke="#3F3BFF" stroke-opacity="0.3"/>
<rect x="824.869" y="136.016" width="55.0215" height="45.3113" stroke="#3F3BFF" stroke-opacity="0.3"/>
<rect x="657.984" y="136.016" width="54.4318" height="45.3113" stroke="#3F3BFF" stroke-opacity="0.3"/>
<rect x="880.892" y="136.016" width="54.4318" height="45.3113" stroke="#3F3BFF" stroke-opacity="0.3"/>
<rect x="713.416" y="136.016" width="55.0215" height="45.3113" stroke="#3F3BFF" stroke-opacity="0.3"/>
<rect x="936.323" y="136.016" width="55.0215" height="45.3113" stroke="#3F3BFF" stroke-opacity="0.3"/>
<rect x="490.51" y="90.3875" width="55.0215" height="45.3113" stroke="#3F3BFF" stroke-opacity="0.3"/>
<rect x="713.416" y="90.3875" width="55.0215" height="45.3113" stroke="#3F3BFF" stroke-opacity="0.3"/>
<rect x="546.529" y="90.3875" width="54.4318" height="45.3113" stroke="#3F3BFF" stroke-opacity="0.3"/>
<rect x="769.438" y="90.3875" width="54.4318" height="45.3113" stroke="#3F3BFF" stroke-opacity="0.3"/>
<rect x="601.962" y="90.3875" width="55.0215" height="45.3113" stroke="#3F3BFF" stroke-opacity="0.3"/>
<rect x="824.869" y="90.3875" width="55.0215" height="45.3113" stroke="#3F3BFF" stroke-opacity="0.3"/>
<rect x="657.984" y="90.3875" width="54.4318" height="45.3113" stroke="#3F3BFF" stroke-opacity="0.3"/>
<rect x="880.892" y="90.3875" width="54.4318" height="45.3113" stroke="#3F3BFF" stroke-opacity="0.3"/>
<rect x="713.416" y="90.3875" width="55.0215" height="45.3113" stroke="#3F3BFF" stroke-opacity="0.3"/>
<rect x="936.323" y="90.3875" width="55.0215" height="45.3113" stroke="#3F3BFF" stroke-opacity="0.3"/>
<rect x="490.51" y="44.7662" width="55.0215" height="45.3113" stroke="#3F3BFF" stroke-opacity="0.3"/>
<rect x="713.416" y="44.7662" width="55.0215" height="45.3113" stroke="#3F3BFF" stroke-opacity="0.3"/>
<rect x="546.529" y="44.7662" width="54.4318" height="45.3113" stroke="#3F3BFF" stroke-opacity="0.3"/>
<rect x="769.438" y="44.7662" width="54.4318" height="45.3113" stroke="#3F3BFF" stroke-opacity="0.3"/>
<rect x="601.963" y="44.7662" width="55.0215" height="45.3113" stroke="#3F3BFF" stroke-opacity="0.3"/>
<rect x="824.869" y="44.7662" width="55.0215" height="45.3113" stroke="#3F3BFF" stroke-opacity="0.3"/>
<rect x="657.984" y="44.7662" width="54.4318" height="45.3113" stroke="#3F3BFF" stroke-opacity="0.3"/>
<rect x="880.892" y="44.7662" width="54.4318" height="45.3113" stroke="#3F3BFF" stroke-opacity="0.3"/>
<rect x="713.416" y="44.7662" width="55.0215" height="45.3113" stroke="#3F3BFF" stroke-opacity="0.3"/>
<rect x="936.323" y="44.7662" width="55.0215" height="45.3113" stroke="#3F3BFF" stroke-opacity="0.3"/>
<rect x="490.51" y="-0.877441" width="55.0215" height="45.3113" stroke="#3F3BFF" stroke-opacity="0.3"/>
<rect x="713.416" y="-0.877441" width="55.0215" height="45.3113" stroke="#3F3BFF" stroke-opacity="0.3"/>
<rect x="546.529" y="-0.877441" width="54.4318" height="45.3113" stroke="#3F3BFF" stroke-opacity="0.3"/>
<rect x="769.438" y="-0.877441" width="54.4318" height="45.3113" stroke="#3F3BFF" stroke-opacity="0.3"/>
<rect x="601.963" y="-0.877441" width="55.0215" height="45.3113" stroke="#3F3BFF" stroke-opacity="0.3"/>
<rect x="824.869" y="-0.877441" width="55.0215" height="45.3113" stroke="#3F3BFF" stroke-opacity="0.3"/>
<rect x="657.984" y="-0.877441" width="54.4318" height="45.3113" stroke="#3F3BFF" stroke-opacity="0.3"/>
<rect x="880.892" y="-0.877441" width="54.4318" height="45.3113" stroke="#3F3BFF" stroke-opacity="0.3"/>
<rect x="713.416" y="-0.877441" width="55.0215" height="45.3113" stroke="#3F3BFF" stroke-opacity="0.3"/>
<rect x="936.323" y="-0.877441" width="55.0215" height="45.3113" stroke="#3F3BFF" stroke-opacity="0.3"/>
</g>
<path fill-rule="evenodd" clip-rule="evenodd" d="M142.704 259.41C154.037 239.23 167.078 214.939 179.265 195.839C187.389 183.382 196.692 172.462 206.035 172.337C221.675 172.337 227.931 185.749 234.675 197.541C245.034 215.604 254.052 233.251 264.452 252.185C247.187 246.331 238.006 247.618 219.766 253.431C212.698 240.061 204.695 223.244 191.33 248.407L177.477 279.175C160.293 286.608 136.529 285.113 142.704 259.41Z" fill="url(#paint1_linear_200_4)"/>
<path fill-rule="evenodd" clip-rule="evenodd" d="M142.707 258.994C131.82 276.06 126.458 288.931 125.198 299.686C123.777 313.928 129.952 327.382 144.982 329.665C170.453 333.527 210.792 302.883 227.773 292.295C255.925 274.606 280.583 289.388 289.032 320.655C301.219 279.132 266.974 239.976 214.935 262.523L177.481 278.842C158.713 287.022 136.817 283.617 142.707 258.994Z" fill="url(#paint2_linear_200_4)"/>
<path d="M336.147 295L362.7 210.779H383.346L409.899 295H395.394L371.298 219.435H374.456L350.652 295H336.147ZM350.944 276.752V263.593H395.16V276.752H350.944ZM447.903 296.755C441.392 296.755 435.836 295.312 431.235 292.427C426.634 289.502 423.105 285.525 420.649 280.495C418.231 275.465 417.003 269.773 416.964 263.417C417.003 256.945 418.27 251.213 420.766 246.222C423.3 241.192 426.887 237.254 431.527 234.408C436.167 231.522 441.684 230.08 448.079 230.08C455.253 230.08 461.316 231.893 466.268 235.519C471.259 239.106 474.515 244.019 476.035 250.258L461.999 254.059C460.907 250.667 459.094 248.035 456.559 246.164C454.025 244.253 451.14 243.298 447.903 243.298C444.238 243.298 441.216 244.175 438.838 245.93C436.459 247.645 434.705 250.024 433.574 253.065C432.443 256.106 431.878 259.557 431.878 263.417C431.878 269.422 433.223 274.276 435.914 277.98C438.604 281.685 442.601 283.537 447.903 283.537C451.647 283.537 454.59 282.679 456.735 280.963C458.918 279.248 460.556 276.772 461.648 273.535L476.035 276.752C474.086 283.186 470.674 288.138 465.8 291.608C460.926 295.039 454.961 296.755 447.903 296.755ZM504.391 296.755C499.829 296.755 495.968 295.897 492.81 294.181C489.652 292.427 487.254 290.107 485.616 287.221C484.018 284.336 483.218 281.158 483.218 277.688C483.218 274.647 483.725 271.917 484.739 269.5C485.753 267.043 487.312 264.938 489.418 263.183C491.523 261.39 494.253 259.927 497.606 258.797C500.141 257.978 503.104 257.237 506.496 256.574C509.927 255.911 513.631 255.307 517.609 254.761C521.625 254.176 525.816 253.552 530.183 252.89L525.153 255.755C525.192 251.388 524.218 248.172 522.229 246.105C520.24 244.039 516.887 243.005 512.169 243.005C509.323 243.005 506.574 243.668 503.923 244.994C501.271 246.32 499.419 248.601 498.366 251.837L485.499 247.801C487.059 242.459 490.022 238.17 494.389 234.934C498.795 231.698 504.722 230.08 512.169 230.08C517.784 230.08 522.716 230.996 526.966 232.829C531.255 234.661 534.433 237.664 536.5 241.836C537.631 244.058 538.313 246.339 538.547 248.679C538.781 250.979 538.898 253.494 538.898 256.223V295H526.557V281.314L528.604 283.537C525.758 288.099 522.424 291.452 518.603 293.596C514.821 295.702 510.083 296.755 504.391 296.755ZM507.198 285.525C510.395 285.525 513.125 284.96 515.386 283.829C517.648 282.698 519.441 281.314 520.767 279.676C522.132 278.039 523.048 276.499 523.516 275.056C524.257 273.262 524.666 271.215 524.744 268.915C524.861 266.575 524.919 264.684 524.919 263.242L529.247 264.528C524.997 265.191 521.352 265.776 518.31 266.283C515.269 266.79 512.657 267.277 510.473 267.745C508.29 268.174 506.36 268.661 504.683 269.207C503.045 269.792 501.661 270.475 500.53 271.254C499.4 272.034 498.522 272.931 497.899 273.945C497.314 274.959 497.021 276.148 497.021 277.512C497.021 279.072 497.411 280.456 498.191 281.665C498.971 282.835 500.102 283.771 501.583 284.472C503.104 285.174 504.975 285.525 507.198 285.525ZM579.449 296.755C573.639 296.755 568.571 295.292 564.243 292.368C559.915 289.444 556.561 285.467 554.183 280.437C551.804 275.407 550.615 269.734 550.615 263.417C550.615 257.023 551.804 251.33 554.183 246.339C556.6 241.309 560.012 237.352 564.418 234.466C568.824 231.542 574.01 230.08 579.976 230.08C585.98 230.08 591.01 231.542 595.065 234.466C599.159 237.352 602.259 241.309 604.365 246.339C606.47 251.369 607.523 257.062 607.523 263.417C607.523 269.695 606.47 275.368 604.365 280.437C602.259 285.467 599.12 289.444 594.948 292.368C590.776 295.292 585.61 296.755 579.449 296.755ZM581.613 284.121C585.395 284.121 588.437 283.264 590.737 281.548C593.077 279.793 594.773 277.357 595.825 274.237C596.917 271.118 597.463 267.511 597.463 263.417C597.463 259.284 596.917 255.677 595.825 252.597C594.773 249.478 593.116 247.06 590.854 245.345C588.593 243.59 585.668 242.713 582.081 242.713C578.299 242.713 575.18 243.649 572.723 245.52C570.267 247.353 568.454 249.848 567.284 253.007C566.114 256.126 565.529 259.596 565.529 263.417C565.529 267.277 566.095 270.786 567.225 273.945C568.395 277.064 570.169 279.54 572.548 281.373C574.926 283.205 577.948 284.121 581.613 284.121ZM597.463 295V250.667H595.708V210.779H609.921V295H597.463ZM655.036 296.755C648.641 296.755 643.027 295.37 638.192 292.602C633.357 289.834 629.575 285.993 626.845 281.08C624.155 276.167 622.81 270.514 622.81 264.119C622.81 257.218 624.135 251.232 626.787 246.164C629.438 241.056 633.123 237.098 637.841 234.291C642.559 231.483 648.018 230.08 654.217 230.08C660.768 230.08 666.324 231.62 670.886 234.7C675.487 237.741 678.899 242.05 681.121 247.626C683.344 253.201 684.182 259.771 683.636 267.336H669.658V262.189C669.619 255.326 668.41 250.316 666.031 247.158C663.653 244 659.91 242.42 654.802 242.42C649.031 242.42 644.742 244.214 641.935 247.801C639.128 251.349 637.724 256.555 637.724 263.417C637.724 269.812 639.128 274.764 641.935 278.273C644.742 281.782 648.836 283.537 654.217 283.537C657.687 283.537 660.67 282.776 663.166 281.256C665.7 279.696 667.65 277.454 669.014 274.53L682.934 278.741C680.517 284.433 676.774 288.859 671.705 292.017C666.675 295.175 661.119 296.755 655.036 296.755ZM633.279 267.336V256.691H676.735V267.336H633.279ZM770.83 295V256.633C770.83 252.305 769.757 248.932 767.613 246.514C765.468 244.058 762.564 242.83 758.898 242.83C756.637 242.83 754.609 243.356 752.816 244.409C751.022 245.423 749.599 246.943 748.546 248.971C747.493 250.959 746.967 253.338 746.967 256.106L740.709 252.422C740.67 248.055 741.645 244.214 743.633 240.9C745.661 237.547 748.39 234.934 751.821 233.063C755.253 231.191 759.074 230.255 763.285 230.255C770.264 230.255 775.606 232.361 779.31 236.572C783.053 240.744 784.925 246.242 784.925 253.065V295H770.83ZM694.855 295V231.834H707.313V251.427H709.068V295H694.855ZM732.93 295V256.808C732.93 252.402 731.858 248.971 729.713 246.514C727.569 244.058 724.645 242.83 720.94 242.83C717.353 242.83 714.468 244.058 712.284 246.514C710.14 248.971 709.068 252.168 709.068 256.106L702.751 251.895C702.751 247.801 703.765 244.117 705.792 240.841C707.82 237.566 710.549 234.993 713.981 233.121C717.451 231.21 721.33 230.255 725.619 230.255C730.337 230.255 734.275 231.269 737.434 233.296C740.631 235.285 743.009 238.014 744.569 241.485C746.168 244.916 746.967 248.795 746.967 253.123V295H732.93ZM806.2 323.074L818.366 289.678L818.6 299.503L791.052 231.834H805.733L825.267 281.899H821.524L840.532 231.834H854.627L819.418 323.074H806.2Z" fill="#1F2841"/>
<path d="M336.147 295L362.7 210.779H383.346L409.899 295H395.394L371.298 219.435H374.456L350.652 295H336.147ZM350.944 276.752V263.593H395.16V276.752H350.944ZM447.903 296.755C441.392 296.755 435.836 295.312 431.235 292.427C426.634 289.502 423.105 285.525 420.649 280.495C418.231 275.465 417.003 269.773 416.964 263.417C417.003 256.945 418.27 251.213 420.766 246.222C423.3 241.192 426.887 237.254 431.527 234.408C436.167 231.522 441.684 230.08 448.079 230.08C455.253 230.08 461.316 231.893 466.268 235.519C471.259 239.106 474.515 244.019 476.035 250.258L461.999 254.059C460.907 250.667 459.094 248.035 456.559 246.164C454.025 244.253 451.14 243.298 447.903 243.298C444.238 243.298 441.216 244.175 438.838 245.93C436.459 247.645 434.705 250.024 433.574 253.065C432.443 256.106 431.878 259.557 431.878 263.417C431.878 269.422 433.223 274.276 435.914 277.98C438.604 281.685 442.601 283.537 447.903 283.537C451.647 283.537 454.59 282.679 456.735 280.963C458.918 279.248 460.556 276.772 461.648 273.535L476.035 276.752C474.086 283.186 470.674 288.138 465.8 291.608C460.926 295.039 454.961 296.755 447.903 296.755ZM504.391 296.755C499.829 296.755 495.968 295.897 492.81 294.181C489.652 292.427 487.254 290.107 485.616 287.221C484.018 284.336 483.218 281.158 483.218 277.688C483.218 274.647 483.725 271.917 484.739 269.5C485.753 267.043 487.312 264.938 489.418 263.183C491.523 261.39 494.253 259.927 497.606 258.797C500.141 257.978 503.104 257.237 506.496 256.574C509.927 255.911 513.631 255.307 517.609 254.761C521.625 254.176 525.816 253.552 530.183 252.89L525.153 255.755C525.192 251.388 524.218 248.172 522.229 246.105C520.24 244.039 516.887 243.005 512.169 243.005C509.323 243.005 506.574 243.668 503.923 244.994C501.271 246.32 499.419 248.601 498.366 251.837L485.499 247.801C487.059 242.459 490.022 238.17 494.389 234.934C498.795 231.698 504.722 230.08 512.169 230.08C517.784 230.08 522.716 230.996 526.966 232.829C531.255 234.661 534.433 237.664 536.5 241.836C537.631 244.058 538.313 246.339 538.547 248.679C538.781 250.979 538.898 253.494 538.898 256.223V295H526.557V281.314L528.604 283.537C525.758 288.099 522.424 291.452 518.603 293.596C514.821 295.702 510.083 296.755 504.391 296.755ZM507.198 285.525C510.395 285.525 513.125 284.96 515.386 283.829C517.648 282.698 519.441 281.314 520.767 279.676C522.132 278.039 523.048 276.499 523.516 275.056C524.257 273.262 524.666 271.215 524.744 268.915C524.861 266.575 524.919 264.684 524.919 263.242L529.247 264.528C524.997 265.191 521.352 265.776 518.31 266.283C515.269 266.79 512.657 267.277 510.473 267.745C508.29 268.174 506.36 268.661 504.683 269.207C503.045 269.792 501.661 270.475 500.53 271.254C499.4 272.034 498.522 272.931 497.899 273.945C497.314 274.959 497.021 276.148 497.021 277.512C497.021 279.072 497.411 280.456 498.191 281.665C498.971 282.835 500.102 283.771 501.583 284.472C503.104 285.174 504.975 285.525 507.198 285.525ZM579.449 296.755C573.639 296.755 568.571 295.292 564.243 292.368C559.915 289.444 556.561 285.467 554.183 280.437C551.804 275.407 550.615 269.734 550.615 263.417C550.615 257.023 551.804 251.33 554.183 246.339C556.6 241.309 560.012 237.352 564.418 234.466C568.824 231.542 574.01 230.08 579.976 230.08C585.98 230.08 591.01 231.542 595.065 234.466C599.159 237.352 602.259 241.309 604.365 246.339C606.47 251.369 607.523 257.062 607.523 263.417C607.523 269.695 606.47 275.368 604.365 280.437C602.259 285.467 599.12 289.444 594.948 292.368C590.776 295.292 585.61 296.755 579.449 296.755ZM581.613 284.121C585.395 284.121 588.437 283.264 590.737 281.548C593.077 279.793 594.773 277.357 595.825 274.237C596.917 271.118 597.463 267.511 597.463 263.417C597.463 259.284 596.917 255.677 595.825 252.597C594.773 249.478 593.116 247.06 590.854 245.345C588.593 243.59 585.668 242.713 582.081 242.713C578.299 242.713 575.18 243.649 572.723 245.52C570.267 247.353 568.454 249.848 567.284 253.007C566.114 256.126 565.529 259.596 565.529 263.417C565.529 267.277 566.095 270.786 567.225 273.945C568.395 277.064 570.169 279.54 572.548 281.373C574.926 283.205 577.948 284.121 581.613 284.121ZM597.463 295V250.667H595.708V210.779H609.921V295H597.463ZM655.036 296.755C648.641 296.755 643.027 295.37 638.192 292.602C633.357 289.834 629.575 285.993 626.845 281.08C624.155 276.167 622.81 270.514 622.81 264.119C622.81 257.218 624.135 251.232 626.787 246.164C629.438 241.056 633.123 237.098 637.841 234.291C642.559 231.483 648.018 230.08 654.217 230.08C660.768 230.08 666.324 231.62 670.886 234.7C675.487 237.741 678.899 242.05 681.121 247.626C683.344 253.201 684.182 259.771 683.636 267.336H669.658V262.189C669.619 255.326 668.41 250.316 666.031 247.158C663.653 244 659.91 242.42 654.802 242.42C649.031 242.42 644.742 244.214 641.935 247.801C639.128 251.349 637.724 256.555 637.724 263.417C637.724 269.812 639.128 274.764 641.935 278.273C644.742 281.782 648.836 283.537 654.217 283.537C657.687 283.537 660.67 282.776 663.166 281.256C665.7 279.696 667.65 277.454 669.014 274.53L682.934 278.741C680.517 284.433 676.774 288.859 671.705 292.017C666.675 295.175 661.119 296.755 655.036 296.755ZM633.279 267.336V256.691H676.735V267.336H633.279ZM770.83 295V256.633C770.83 252.305 769.757 248.932 767.613 246.514C765.468 244.058 762.564 242.83 758.898 242.83C756.637 242.83 754.609 243.356 752.816 244.409C751.022 245.423 749.599 246.943 748.546 248.971C747.493 250.959 746.967 253.338 746.967 256.106L740.709 252.422C740.67 248.055 741.645 244.214 743.633 240.9C745.661 237.547 748.39 234.934 751.821 233.063C755.253 231.191 759.074 230.255 763.285 230.255C770.264 230.255 775.606 232.361 779.31 236.572C783.053 240.744 784.925 246.242 784.925 253.065V295H770.83ZM694.855 295V231.834H707.313V251.427H709.068V295H694.855ZM732.93 295V256.808C732.93 252.402 731.858 248.971 729.713 246.514C727.569 244.058 724.645 242.83 720.94 242.83C717.353 242.83 714.468 244.058 712.284 246.514C710.14 248.971 709.068 252.168 709.068 256.106L702.751 251.895C702.751 247.801 703.765 244.117 705.792 240.841C707.82 237.566 710.549 234.993 713.981 233.121C717.451 231.21 721.33 230.255 725.619 230.255C730.337 230.255 734.275 231.269 737.434 233.296C740.631 235.285 743.009 238.014 744.569 241.485C746.168 244.916 746.967 248.795 746.967 253.123V295H732.93ZM806.2 323.074L818.366 289.678L818.6 299.503L791.052 231.834H805.733L825.267 281.899H821.524L840.532 231.834H854.627L819.418 323.074H806.2Z" fill="#1F2841"/>
</g>
<defs>
<linearGradient id="paint0_linear_200_4" x1="490" y1="0" x2="490" y2="500" gradientUnits="userSpaceOnUse">
<stop stop-color="#C1FFF4"/>
<stop offset="0.0001" stop-color="#D1FBFE"/>
<stop offset="1" stop-color="#82C3FF"/>
</linearGradient>
<linearGradient id="paint1_linear_200_4" x1="313.078" y1="64.8347" x2="179.477" y2="287.332" gradientUnits="userSpaceOnUse">
<stop stop-color="#8D76FF"/>
<stop offset="0.64" stop-color="#754FFE"/>
<stop offset="0.74" stop-color="#6E4AF5"/>
<stop offset="0.9" stop-color="#593BDB"/>
<stop offset="1" stop-color="#4B31C9"/>
</linearGradient>
<linearGradient id="paint2_linear_200_4" x1="104.196" y1="261.361" x2="263.121" y2="312.123" gradientUnits="userSpaceOnUse">
<stop stop-color="#8D76FF"/>
<stop offset="0.64" stop-color="#754FFE"/>
<stop offset="0.74" stop-color="#6E4AF5"/>
<stop offset="0.9" stop-color="#593BDB"/>
<stop offset="1" stop-color="#4B31C9"/>
</linearGradient>
<clipPath id="clip0_200_4">
<rect width="980" height="500" fill="white"/>
</clipPath>
</defs>
</svg>
