<svg width="980" height="500" viewBox="0 0 980 500" fill="none" xmlns="http://www.w3.org/2000/svg">
<rect width="980" height="500" fill="url(#paint0_radial_69_502)"/>
<g clip-path="url(#clip0_69_502)">
<path d="M848.688 467.15C847.638 467.181 846.599 466.917 845.691 466.387C844.86 465.875 844.194 465.133 843.775 464.251C843.312 463.258 843.084 462.171 843.107 461.076C843.084 459.979 843.312 458.892 843.775 457.898C844.194 457.015 844.86 456.273 845.691 455.762C846.599 455.232 847.638 454.967 848.688 454.998C849.89 454.954 851.072 455.308 852.051 456.005C852.958 456.686 853.624 457.638 853.952 458.723L851.983 459.267C851.794 458.566 851.388 457.942 850.824 457.485C850.206 457.035 849.452 456.811 848.688 456.852C847.998 456.826 847.316 457.009 846.731 457.378C846.199 457.743 845.79 458.261 845.558 458.863C845.282 459.575 845.146 460.333 845.157 461.097C845.14 461.859 845.274 462.617 845.549 463.327C845.785 463.932 846.199 464.45 846.737 464.813C847.323 465.181 848.006 465.364 848.697 465.338C849.459 465.372 850.208 465.143 850.821 464.691C851.384 464.233 851.79 463.609 851.98 462.909L853.952 463.425C853.627 464.509 852.965 465.461 852.063 466.143C851.08 466.843 849.894 467.197 848.688 467.15Z" fill="white"/>
<path d="M856.094 466.91V455.239H860.915C861.03 455.239 861.176 455.239 861.354 455.239C861.519 455.247 861.684 455.264 861.847 455.292C862.455 455.368 863.032 455.6 863.523 455.967C863.959 456.308 864.298 456.759 864.503 457.274C864.72 457.833 864.828 458.429 864.821 459.029C864.844 459.901 864.592 460.759 864.102 461.48C863.84 461.832 863.508 462.126 863.127 462.344C862.746 462.562 862.325 462.7 861.889 462.748L861.054 462.819H858.048V466.91H856.094ZM858.048 461.01H860.834C860.944 461.01 861.063 461.01 861.2 460.993C861.325 460.984 861.45 460.962 861.571 460.927C861.864 460.866 862.132 460.717 862.337 460.5C862.521 460.3 862.658 460.061 862.735 459.802C862.81 459.555 862.849 459.299 862.851 459.041C862.85 458.781 862.811 458.523 862.735 458.275C862.658 458.014 862.522 457.774 862.337 457.574C862.13 457.358 861.863 457.21 861.571 457.149C861.449 457.117 861.325 457.098 861.2 457.09C861.063 457.09 860.944 457.09 860.834 457.09H858.048V461.01ZM862.801 466.91L860.502 462.157L862.486 461.72L865.014 466.907L862.801 466.91Z" fill="white"/>
<path d="M867.164 466.91V455.239H874.7V457.072H869.116V459.947H873.726V461.78H869.116V465.077H874.7V466.91H867.164Z" fill="white"/>
<path d="M876.206 466.91L879.883 455.239H882.744L886.424 466.91H884.413L881.074 456.439H881.514L878.217 466.91H876.206ZM878.255 464.379V462.558H884.38V464.379H878.255Z" fill="white"/>
<path d="M890.087 466.91V457.072H886.311V455.239H895.816V457.072H892.038V466.91H890.087Z" fill="white"/>
<path d="M897.646 466.91V455.239H899.598V466.91H897.646Z" fill="white"/>
<path d="M905.042 466.91L901.35 455.239H903.358L906.438 465.012L909.557 455.239H911.577L907.888 466.91H905.042Z" fill="white"/>
<path d="M913.154 466.91V455.239H920.69V457.072H915.109V459.947H919.719V461.78H915.109V465.077H920.69V466.91H913.154Z" fill="white"/>
<path d="M923.162 466.91V455.239H925.113V466.91H923.162Z" fill="white"/>
<path d="M930.73 466.91V457.072H926.955V455.239H936.46V457.072H932.682V466.91H930.73Z" fill="white"/>
<path d="M938.126 466.91V455.239H945.662V457.072H940.093V459.947H944.703V461.78H940.093V465.077H945.674V466.91H938.126Z" fill="white"/>
<path d="M947.982 466.91V455.239H949.741L953.774 463.506L957.811 455.239H959.567V466.91H957.746V459.43L954.164 466.91H953.385L949.821 459.43V466.91H947.982Z" fill="white"/>
<path d="M815.86 470.789L807.43 465.92V475.654L815.86 470.789Z" fill="white" fill-opacity="0.48"/>
<path d="M832.717 461.055L824.287 456.19V465.921L832.717 461.055Z" fill="white" fill-opacity="0.47"/>
<path d="M815.86 451.321L807.43 446.456V456.189L815.86 451.321Z" fill="white" fill-opacity="0.48"/>
<path d="M807.43 446.456L800.687 450.35C800.174 450.645 799.747 451.07 799.451 451.583C799.155 452.096 798.999 452.677 799 453.27V468.84C799 469.433 799.155 470.015 799.452 470.528C799.748 471.041 800.174 471.467 800.687 471.763L807.43 475.654V446.456Z" fill="url(#paint1_linear_69_502)"/>
<path d="M832.717 468.84V461.055L807.43 475.654L814.173 479.549C814.685 479.845 815.267 480.001 815.858 480.001C816.45 480.001 817.032 479.845 817.544 479.549L831.033 471.763C831.545 471.467 831.97 471.04 832.266 470.527C832.562 470.014 832.717 469.433 832.717 468.84Z" fill="url(#paint2_linear_69_502)"/>
<path d="M817.606 442.594C817.098 442.301 816.521 442.146 815.934 442.146C815.347 442.146 814.77 442.301 814.262 442.594L807.573 446.456L832.654 460.939V453.216C832.654 452.629 832.5 452.052 832.206 451.543C831.913 451.034 831.491 450.611 830.982 450.317L817.606 442.594Z" fill="url(#paint3_linear_69_502)"/>
</g>
<path d="M477 441C632.744 441 759 436.747 759 431.5C759 426.253 632.744 422 477 422C321.256 422 195 426.253 195 431.5C195 436.747 321.256 441 477 441Z" fill="white" fill-opacity="0.16"/>
<path opacity="0.36" d="M272.568 314.051C271.373 311.581 273.048 308.464 275.518 307.29C277.989 306.116 280.918 306.448 283.561 307.187C287.836 308.383 291.471 310.383 295.177 312.641C292.855 309.236 290.657 305.746 288.576 302.2C287.199 299.853 285.873 297.476 284.6 295.07C279.037 297.726 272.672 298.679 266.579 297.746C264.27 297.393 261.725 296.56 260.711 294.452C259.527 291.988 261.202 288.871 263.665 287.692C266.128 286.514 269.044 286.838 271.674 287.57C276.09 288.799 279.816 290.896 283.648 293.247C279.805 285.787 276.483 278.051 273.857 270.086C268.016 271.747 261.685 271.655 255.903 269.793C253.678 269.077 251.297 267.851 250.63 265.608C249.85 262.988 251.998 260.177 254.616 259.404C257.234 258.632 260.062 259.415 262.543 260.556C266.563 262.404 269.821 264.948 273.11 267.757C270.473 259.316 268.511 250.32 269.158 241.474C269.171 241.289 269.193 241.106 269.208 240.922C263.128 241.78 256.795 240.788 251.276 238.089C249.177 237.063 246.995 235.509 246.654 233.193C246.256 230.488 248.783 228.013 251.484 227.623C254.185 227.232 256.872 228.412 259.165 229.896C263.205 232.51 266.237 235.81 269.346 239.392C270.371 229.194 273.277 219.141 273.95 208.924C267.775 209.862 261.32 208.885 255.706 206.14C253.607 205.113 251.425 203.559 251.084 201.244C250.686 198.539 253.213 196.064 255.914 195.673C258.615 195.283 261.303 196.463 263.596 197.947C267.744 200.631 270.829 204.038 274.027 207.732C274.151 205.176 274.126 202.609 273.882 200.026C273.39 194.795 271.785 189.72 269.375 185.005C263.554 187.646 256.908 188.432 250.637 187.2C248.344 186.75 245.837 185.812 244.912 183.662C243.832 181.151 245.637 178.107 248.146 177.033C250.657 175.959 253.557 176.406 256.153 177.248C260.915 178.791 264.813 181.335 268.912 184.122C264.866 176.595 258.77 170.041 251.88 165.333C246.347 167.067 240.324 167.224 234.716 165.746C232.457 165.151 230.014 164.054 229.227 161.85C228.309 159.275 230.304 156.353 232.876 155.441C235.449 154.529 238.315 155.16 240.853 156.165C244.902 157.77 248.25 160.088 251.629 162.667C251.801 162.686 251.967 162.747 252.111 162.843C258.063 166.719 263.194 171.807 267.299 177.601C268.207 178.883 269.068 180.198 269.88 181.544C269.002 175.962 269.657 170.139 271.795 164.908C272.68 162.742 274.085 160.459 276.369 159.967C279.037 159.392 281.668 161.756 282.233 164.431C282.799 167.106 281.8 169.87 280.472 172.259C277.995 176.716 274.68 180.093 271.085 183.647C272.666 186.551 273.976 189.599 274.833 192.788C276.132 197.618 276.45 202.496 276.229 207.382C277.95 201.814 281.254 196.74 285.675 192.948C287.449 191.426 289.739 190.037 291.995 190.644C294.631 191.352 295.895 194.658 295.179 197.297C294.464 199.935 292.315 201.938 290.046 203.456C285.696 206.366 281.077 207.858 276.109 209.421C275.513 217.468 273.614 225.521 272.357 233.404C271.961 235.886 271.638 238.36 271.45 240.838C273.012 234.706 276.487 229.074 281.28 224.95C283.052 223.425 285.341 222.033 287.598 222.637C290.235 223.342 291.502 226.647 290.791 229.286C290.079 231.925 287.933 233.931 285.665 235.452C281.22 238.435 276.493 239.934 271.397 241.543C271.225 244.187 271.221 246.839 271.476 249.514C271.945 254.407 272.969 259.24 274.279 263.972C274.628 265.23 274.998 266.483 275.387 267.729C276.268 262.058 278.736 256.636 282.463 252.274C283.982 250.496 286.032 248.77 288.354 249.022C291.067 249.315 292.824 252.387 292.523 255.104C292.222 257.821 290.407 260.132 288.398 261.982C284.685 265.402 280.522 267.557 276.045 269.779C278.611 277.561 281.915 285.115 285.679 292.392C285.119 286.428 286.307 280.304 289.092 275.002C290.179 272.931 291.796 270.793 294.116 270.522C296.827 270.205 299.22 272.81 299.528 275.526C299.835 278.243 298.577 280.899 297.027 283.15C294.087 287.422 290.387 290.499 286.392 293.754C286.897 294.715 287.411 295.671 287.932 296.623C290.794 301.841 293.903 306.948 297.284 311.866C296.827 306.05 298.027 300.106 300.74 294.94C301.828 292.869 303.444 290.731 305.765 290.46C308.476 290.143 310.868 292.748 311.176 295.465C311.484 298.182 310.225 300.838 308.676 303.089C305.815 307.243 302.239 310.267 298.369 313.424C302.292 318.984 306.572 324.285 311.259 329.202C312.235 330.226 310.582 331.673 309.608 330.65C304.876 325.685 300.563 320.323 296.607 314.707C291.016 317.369 284.609 318.316 278.47 317.364C276.15 317.005 273.592 316.165 272.568 314.051ZM734.431 314.051C735.626 311.581 733.952 308.464 731.481 307.29C729.011 306.116 726.081 306.448 723.438 307.187C719.163 308.383 715.529 310.383 711.823 312.641C714.144 309.236 716.342 305.746 718.423 302.2C719.8 299.853 721.126 297.476 722.399 295.07C727.962 297.726 734.327 298.679 740.42 297.746C742.729 297.393 745.274 296.56 746.288 294.452C747.472 291.988 745.797 288.871 743.334 287.692C740.871 286.514 737.955 286.838 735.325 287.57C730.91 288.799 727.183 290.896 723.352 293.247C727.194 285.787 730.516 278.051 733.142 270.086C738.984 271.747 745.315 271.655 751.097 269.793C753.321 269.077 755.702 267.851 756.37 265.608C757.149 262.988 755.002 260.177 752.383 259.404C749.765 258.632 746.937 259.415 744.456 260.556C740.436 262.404 737.178 264.948 733.89 267.757C736.526 259.316 738.488 250.32 737.842 241.474C737.828 241.289 737.807 241.106 737.792 240.922C743.872 241.78 750.204 240.788 755.723 238.089C757.823 237.063 760.004 235.509 760.345 233.193C760.743 230.488 758.217 228.013 755.516 227.623C752.814 227.232 750.127 228.412 747.834 229.896C743.795 232.51 740.763 235.81 737.654 239.392C736.629 229.194 733.723 219.141 733.049 208.924C739.224 209.862 745.679 208.885 751.293 206.14C753.392 205.113 755.574 203.559 755.915 201.244C756.313 198.539 753.787 196.064 751.086 195.673C748.384 195.283 745.697 196.463 743.404 197.947C739.256 200.631 736.171 204.038 732.973 207.732C732.85 205.176 732.874 202.609 733.117 200.026C733.61 194.795 735.215 189.72 737.625 185.005C743.446 187.646 750.091 188.432 756.363 187.2C758.655 186.75 761.163 185.812 762.088 183.662C763.168 181.151 761.363 178.107 758.853 177.033C756.343 175.959 753.443 176.406 750.846 177.248C746.085 178.791 742.187 181.335 738.087 184.122C742.134 176.595 748.23 170.041 755.119 165.333C760.653 167.067 766.675 167.224 772.284 165.746C774.544 165.151 776.987 164.054 777.773 161.85C778.691 159.275 776.696 156.353 774.124 155.441C771.55 154.529 768.684 155.16 766.147 156.165C762.098 157.77 758.75 160.088 755.371 162.667C755.199 162.686 755.033 162.747 754.889 162.843C748.936 166.719 743.806 171.807 739.701 177.601C738.793 178.883 737.932 180.198 737.119 181.544C737.998 175.962 737.343 170.139 735.205 164.908C734.32 162.742 732.915 160.459 730.631 159.967C727.962 159.392 725.332 161.756 724.767 164.431C724.201 167.106 725.201 169.87 726.529 172.259C729.005 176.716 732.32 180.093 735.915 183.647C734.334 186.551 733.024 189.599 732.167 192.788C730.869 197.618 730.55 202.496 730.77 207.382C729.05 201.814 725.745 196.74 721.326 192.948C719.551 191.426 717.261 190.037 715.005 190.644C712.369 191.352 711.105 194.658 711.821 197.297C712.536 199.935 714.685 201.938 716.954 203.456C721.303 206.366 725.923 207.858 730.891 209.421C731.487 217.468 733.386 225.521 734.643 233.404C735.039 235.886 735.362 238.36 735.549 240.838C733.988 234.706 730.514 229.074 725.72 224.95C723.948 223.425 721.66 222.033 719.403 222.637C716.765 223.342 715.497 226.647 716.209 229.286C716.922 231.925 719.067 233.931 721.335 235.452C725.78 238.435 730.508 239.934 735.604 241.543C735.775 244.187 735.779 246.839 735.523 249.514C735.055 254.407 734.032 259.24 732.722 263.972C732.372 265.23 732.002 266.483 731.613 267.729C730.733 262.058 728.264 256.636 724.537 252.274C723.018 250.496 720.968 248.77 718.646 249.022C715.933 249.315 714.176 252.387 714.477 255.104C714.779 257.821 716.593 260.132 718.603 261.982C722.315 265.402 726.477 267.557 730.955 269.779C728.388 277.561 725.085 285.115 721.321 292.392C721.882 286.428 720.693 280.304 717.909 275.002C716.82 272.931 715.204 270.793 712.884 270.522C710.173 270.205 707.78 272.81 707.473 275.526C707.165 278.243 708.424 280.899 709.973 283.15C712.913 287.422 716.612 290.499 720.608 293.754C720.103 294.715 719.589 295.671 719.069 296.623C716.206 301.841 713.097 306.948 709.716 311.866C710.173 306.05 708.973 300.106 706.26 294.94C705.172 292.869 703.556 290.731 701.235 290.46C698.524 290.143 696.131 292.748 695.824 295.465C695.516 298.182 696.775 300.838 698.324 303.089C701.184 307.243 704.761 310.267 708.63 313.424C704.708 318.984 700.427 324.285 695.741 329.202C694.764 330.226 696.418 331.673 697.392 330.65C702.124 325.685 706.437 320.323 710.392 314.707C715.984 317.369 722.391 318.316 728.53 317.364C730.85 317.005 733.407 316.165 734.431 314.051Z" fill="white"/>
<path d="M235.391 373.51C229.814 373.332 227.103 381.433 230.304 386.017C233.492 390.584 239.717 391.886 245.332 391.745C250.921 391.624 256.585 390.453 262.064 391.604C259.906 396.832 262.18 403.129 266.361 406.972C270.53 410.798 276.252 412.555 281.883 413.375C293.415 415.078 305.455 413.274 315.998 408.302C316.563 408.055 317.132 407.763 317.679 407.476C317.876 407.381 318.058 407.286 318.248 407.183L318.307 407.106C318.307 407.106 318.365 406.977 318.471 406.724C319.682 403.83 327.41 385.27 328.944 378.335C330.63 370.822 330.619 362.447 326.508 355.912C322.36 349.367 313.18 345.693 306.454 349.525C305.023 343.793 303.223 338.146 301.092 332.65C298.827 326.825 295.81 320.744 290.276 317.759C284.771 314.792 276.238 316.853 274.886 322.965C274.834 315.284 271.305 308.061 267.191 301.556C263.71 296.092 259.169 290.53 252.826 289.202C246.44 287.855 238.663 293.449 240.407 299.69C229.579 292.288 215.685 291.124 202.572 291.608C193.016 291.947 183.385 293.036 173.854 292.711C171.086 292.613 169.93 296.217 172.219 297.74C180.926 303.507 189.076 309.282 192.644 318.983C194.751 324.732 195.716 330.946 198.622 336.35C200.81 340.345 204.551 343.907 208.791 345.025C206.384 344.998 203.991 345.152 201.697 345.937C197.988 347.206 194.643 350.465 194.549 354.385C194.443 359.33 199.192 362.895 203.612 365.14C213.445 370.141 224.373 373.002 235.391 373.51Z" fill="#FFC3D7"/>
<path d="M235.391 373.51C229.814 373.332 227.103 381.433 230.304 386.017C233.492 390.584 239.717 391.886 245.332 391.745C250.921 391.624 256.585 390.453 262.064 391.604C259.906 396.832 262.18 403.129 266.361 406.972C270.53 410.798 276.252 412.555 281.883 413.375C293.415 415.078 305.455 413.274 315.998 408.302C316.563 408.055 317.132 407.763 317.679 407.476C317.876 407.381 318.058 407.286 318.248 407.183L318.307 407.106C318.307 407.106 318.365 406.977 318.471 406.724C319.682 403.83 327.41 385.27 328.944 378.335C330.63 370.822 330.619 362.447 326.508 355.912C322.36 349.367 313.18 345.693 306.454 349.525C305.023 343.793 303.223 338.146 301.092 332.65C298.827 326.825 295.81 320.744 290.276 317.759C284.771 314.792 276.238 316.853 274.886 322.965C274.834 315.284 271.305 308.061 267.191 301.556C263.71 296.092 259.169 290.53 252.826 289.202C246.44 287.855 238.663 293.449 240.407 299.69C229.579 292.288 215.685 291.124 202.572 291.608C193.016 291.947 183.385 293.036 173.854 292.711C171.086 292.613 169.93 296.217 172.219 297.74C180.926 303.507 189.076 309.282 192.644 318.983C194.751 324.732 195.716 330.946 198.622 336.35C200.81 340.345 204.551 343.907 208.791 345.025C206.384 344.998 203.991 345.152 201.697 345.937C197.988 347.206 194.643 350.465 194.549 354.385C194.443 359.33 199.192 362.895 203.612 365.14C213.445 370.141 224.373 373.002 235.391 373.51Z" fill="url(#paint4_linear_69_502)"/>
<path d="M317.255 407.819C312.451 404.373 307.537 400.503 302.646 396.313C298.45 395.547 294.22 395.299 290.074 395.576C289.489 395.617 288.888 395.684 288.307 395.748L288.262 395.753C286.895 398.915 285.031 403.205 281.017 404.989C280.94 405.023 280.859 405.048 280.777 405.065C280.251 405.164 279.751 404.849 279.586 404.316C279.427 403.799 279.662 403.286 280.158 403.07C282.953 401.827 284.45 399.18 285.85 396.035C285.225 396.13 284.624 396.232 284.054 396.34C283.889 396.372 283.725 396.404 283.561 396.437C282.679 396.609 281.785 396.846 280.92 397.075C280.004 397.318 279.058 397.57 278.108 397.749C277.78 397.812 277.451 397.866 277.121 397.908C274.294 398.277 271.91 397.316 270.743 395.338C270.576 395.055 270.551 394.731 270.678 394.451C270.815 394.149 271.107 393.928 271.462 393.861C271.923 393.774 272.373 393.975 272.611 394.373C273.657 396.156 276.141 395.981 277.528 395.718L277.659 395.692C278.598 395.499 279.551 395.256 280.472 395.021C281.543 394.748 282.651 394.465 283.76 394.255L283.837 394.24C287.939 393.488 292.147 393.22 296.346 393.442C297.409 393.503 298.509 393.608 299.727 393.766C289.278 384.532 279.668 374.574 269.139 363.502C268.287 362.599 267.431 361.699 266.573 360.801C265.367 360.704 264.125 360.78 262.781 361.035C260.61 361.446 258.456 362.278 256.373 363.082C256.023 363.217 255.674 363.351 255.325 363.485L255.313 363.518C254.645 365.376 253.394 366.852 252.183 368.28C251.899 368.613 251.618 368.948 251.341 369.287C250.221 370.653 248.955 372.472 249.104 374.434C249.145 374.992 248.769 375.473 248.209 375.579C247.911 375.636 247.612 375.57 247.388 375.398C247.172 375.232 247.041 374.979 247.019 374.687C246.787 371.5 248.65 369.281 250.453 367.135C251.172 366.279 251.908 365.402 252.496 364.471C251.59 364.752 250.691 364.979 249.83 365.142C245.803 365.906 242.457 365.337 239.885 363.452C239.544 363.206 239.387 362.799 239.477 362.392C239.572 361.967 239.911 361.628 240.321 361.551C240.589 361.5 240.866 361.564 241.1 361.734C243.232 363.303 245.937 363.747 249.374 363.095C250.613 362.861 251.941 362.484 253.435 361.945C254.117 361.699 254.8 361.439 255.485 361.179C257.717 360.331 260.025 359.454 262.399 359.004C263.16 358.86 263.889 358.766 264.598 358.721C254.235 347.828 244.77 338.047 234.604 329.018C233.746 328.26 232.887 327.506 232.024 326.754C231.962 326.757 231.899 326.753 231.838 326.742C230.628 326.594 229.323 326.654 227.874 326.93C226.503 327.189 225.145 327.619 224.072 327.985C224.045 328.033 224.015 328.079 223.981 328.123C223.267 329 222.741 329.951 222.412 330.961C222.085 331.942 222.015 332.94 221.94 333.998L221.913 334.367C221.813 335.752 221.495 336.82 220.911 337.728C220.237 338.799 219.254 339.663 218.463 340.357C218.326 340.484 218.156 340.57 217.972 340.606C217.527 340.69 217.068 340.444 216.854 340.008C216.641 339.573 216.737 339.084 217.1 338.763C217.854 338.099 218.709 337.348 219.262 336.416C219.742 335.599 219.799 334.639 219.859 333.623L219.885 333.209C219.97 331.776 220.322 330.378 220.912 329.102C219.318 329.671 217.69 330.209 216.067 330.517C213.053 331.088 210.542 330.775 208.166 329.53C207.786 329.326 207.59 328.949 207.653 328.545C207.721 328.096 208.1 327.709 208.553 327.623C208.792 327.578 209.039 327.616 209.254 327.731C211.081 328.69 213.26 328.911 215.915 328.407C217.571 328.093 219.19 327.54 220.415 327.093L221.298 326.77C223.298 326.036 225.367 325.275 227.493 324.873C228.203 324.738 228.88 324.65 229.538 324.607C226.318 321.87 222.24 318.576 217.792 315.745C211.536 311.758 205.879 309.628 200.496 309.23C199.056 309.125 197.567 309.146 196.07 309.291C195.537 309.348 195.089 309.005 195.012 308.475C194.934 307.948 195.243 307.328 195.895 307.205C195.929 307.198 195.964 307.193 195.999 307.19C198.45 306.955 200.967 307.058 203.494 307.495C203.02 305.752 202.184 304.094 201.052 302.661C200.821 302.364 200.764 302.001 200.893 301.66C201.026 301.306 201.348 301.033 201.713 300.964C202.081 300.894 202.444 301.036 202.684 301.344C204.204 303.259 205.272 305.548 205.769 307.957C205.77 307.961 205.771 307.966 205.771 307.97C209.73 308.962 213.79 310.767 218.135 313.468C217.853 312.236 217.734 310.972 217.618 309.738C217.574 309.266 217.53 308.795 217.476 308.326C217.097 304.875 216.043 302.88 214.16 302.044C213.725 301.848 213.481 301.415 213.537 300.939C213.592 300.468 213.917 300.098 214.346 300.016C214.544 299.979 214.755 300.007 214.952 300.097C218.887 301.845 219.284 305.675 219.668 309.378C219.889 311.514 220.098 313.531 220.944 315.156C220.979 315.221 221.007 315.29 221.025 315.363C224.255 317.593 227.297 320.048 229.599 321.95C234.802 326.258 240.219 331.145 246.121 336.855C245.478 333.164 246.13 329.414 246.816 326.445C246.995 325.668 247.194 324.893 247.393 324.119C247.794 322.555 248.21 320.938 248.448 319.332C248.749 317.403 248.711 314.823 246.824 313.462C246.481 313.214 246.324 312.81 246.413 312.406C246.507 311.983 246.847 311.646 247.258 311.568C247.525 311.518 247.802 311.58 248.037 311.746C252.039 314.626 250.627 320.011 249.596 323.944C249.488 324.358 249.383 324.758 249.288 325.14L249.067 326.052C250.393 325.636 251.366 324.434 252.309 323.269C252.642 322.857 252.987 322.432 253.34 322.05C254.878 320.377 256.88 319.268 259.128 318.841L259.255 318.817C259.821 318.715 260.332 319.074 260.44 319.655C260.549 320.244 260.199 320.769 259.625 320.878L259.535 320.894C257.432 321.293 255.678 322.435 254.016 324.485C252.818 325.958 251.329 327.791 249.136 328.207C248.947 328.242 248.757 328.267 248.565 328.282C247.893 331.558 247.456 335.318 248.796 338.841C248.83 338.919 248.843 338.997 248.847 339.064C248.862 339.087 248.876 339.11 248.891 339.134C248.939 339.208 249.01 339.317 249.067 339.465C249.117 339.57 249.164 339.711 249.201 339.868L249.206 339.89C254.966 345.585 260.555 351.412 264.791 355.863C266.241 357.384 267.689 358.908 269.137 360.433C274.163 365.724 279.345 371.179 284.581 376.458C283.856 372.832 284.552 369.037 285.228 365.346C285.3 364.954 285.371 364.563 285.44 364.175C286.419 358.608 286.614 353.028 286.018 347.592C285.683 344.665 285.111 341.416 282.545 339.946C282.179 339.737 281.993 339.356 282.061 338.954C282.137 338.506 282.502 338.134 282.95 338.049C283.197 338.002 283.447 338.045 283.673 338.175C285.794 339.394 287.137 341.67 287.78 345.131C288.342 348.106 288.436 351.183 288.455 353.531C288.457 354.041 288.438 354.548 288.417 355.04C290.026 354.404 291.754 353.661 293.197 352.58C294.777 351.413 295.973 349.8 296.633 347.949C296.767 347.592 297.046 347.352 297.401 347.285C297.592 347.25 297.789 347.266 297.972 347.331C298.155 347.396 298.317 347.508 298.444 347.656C298.683 347.94 298.743 348.311 298.607 348.673C297.83 350.825 296.473 352.697 294.687 354.081C292.771 355.573 290.52 356.47 288.338 357.334C288.234 359.119 288.089 360.678 287.897 362.087C287.723 363.331 287.493 364.579 287.27 365.786C286.97 367.41 286.659 369.09 286.493 370.747C286.131 374.276 286.579 377.096 287.863 379.365L287.91 379.418L287.927 379.446C288 379.559 288.067 379.67 288.135 379.783C288.189 379.871 288.243 379.96 288.299 380.049C288.375 380.135 288.422 380.226 288.45 380.3L288.452 380.303C291.981 383.789 295.239 386.887 298.408 389.769C300.127 391.332 301.87 392.868 303.636 394.377C303.862 394.463 304.05 394.627 304.166 394.84C306.608 396.917 309.091 398.946 311.612 400.927C312.564 397.43 313.321 393.5 311.909 389.93C311.791 389.628 311.81 389.312 311.962 389.039C312.043 388.897 312.153 388.774 312.286 388.678C312.419 388.583 312.571 388.517 312.732 388.486C313.214 388.395 313.66 388.644 313.843 389.106C315.571 393.491 314.557 398.205 313.406 402.323C315.316 403.787 317.037 405.061 318.657 406.211L319 406.454L318.837 406.842C318.728 407.101 318.67 407.233 318.67 407.233L318.644 407.292L318.477 407.508L318.378 407.561C318.181 407.667 317.993 407.767 317.789 407.865L317.508 408L317.255 407.819Z" fill="#783EF2"/>
<path d="M738.281 421.879C731.887 422.498 725.507 420.66 719.563 418.234C713.624 415.801 707.943 412.754 701.84 410.746C698.799 409.739 693.726 407.482 688.647 405.706C683.765 404.002 678.883 402.76 675.8 403.541C675.673 403.57 675.559 403.6 675.438 403.637C675.703 402.964 675.818 402.148 675.831 401.224C675.883 394.002 668.99 380.14 667.487 374.678C665.81 368.518 663.054 362.705 660.941 356.685C658.829 350.653 657.332 344.22 658.302 337.908C659.273 331.596 663.124 325.428 669.099 323.107C675.082 320.781 682.992 323.466 685.125 329.493C685.649 330.979 685.913 332.71 687.176 333.655C688.829 334.889 691.346 333.987 692.592 332.363C693.847 330.733 694.203 328.611 694.677 326.622C696.406 319.287 700.228 312.465 705.569 307.13C708.035 304.668 710.993 302.451 714.448 301.924C717.903 301.398 721.883 303.051 723.014 306.343C724.694 311.216 719.814 317.158 722.787 321.365C724.827 324.253 729.45 324.016 732.33 321.962C735.21 319.894 736.882 316.612 738.809 313.653C749.247 297.635 770.549 289.492 789.099 294.44C793.049 313.115 783.71 333.818 767.042 343.296C763.965 345.048 760.576 346.527 758.348 349.279C756.127 352.025 755.629 356.594 758.419 358.776C762.49 361.964 768.725 357.445 773.528 359.378C776.767 360.675 778.217 364.722 777.499 368.123C776.78 371.524 774.385 374.331 771.777 376.644C766.132 381.66 759.063 385.073 751.607 386.395C749.578 386.75 747.432 386.995 745.727 388.15C744.028 389.299 742.983 391.747 744.132 393.455C745.013 394.76 746.737 395.117 748.202 395.718C754.14 398.165 756.397 406.156 753.734 411.967C751.075 417.77 744.668 421.254 738.281 421.879Z" fill="url(#paint5_linear_69_502)"/>
<path d="M743.079 404.022C743.985 404.02 744.03 402.613 743.117 402.621C735.456 402.671 728.772 398.441 722.764 394.169C717.304 390.283 711.837 386.198 705.425 384.224C711.322 378.747 722.525 382.286 726.635 374.175C727.037 373.372 725.83 372.638 725.422 373.447C723.328 377.578 718.509 378.499 714.341 379.259C710.557 379.944 706.545 380.827 703.87 383.791C703.181 383.627 702.472 383.469 701.762 383.35C698.257 382.786 694.678 382.839 691.192 383.507C695.746 377.888 700.451 372.398 705.461 367.175C705.65 367.115 705.82 366.98 705.894 366.731C705.901 366.724 705.901 366.711 705.908 366.705C707.464 365.086 709.05 363.497 710.666 361.938C712.154 360.514 713.669 359.117 715.208 357.748C715.274 357.776 715.353 357.805 715.433 357.807C720.575 358.218 725.378 359.797 730.092 361.705C730.218 361.821 730.383 361.886 730.554 361.889C734.377 363.462 738.149 365.225 741.993 366.739C744.439 371.846 747.398 377.451 753.256 379.198C754.128 379.46 754.52 378.114 753.647 377.852C748.721 376.376 746.053 371.824 743.906 367.465C748.111 369.002 752.405 370.158 756.98 370.341C760.61 370.486 764.204 369.968 767.574 368.618C768.417 368.277 767.745 367.041 766.909 367.375C754.984 372.139 743.036 365.643 731.906 360.954C735.953 358.027 742.682 358.428 744.362 352.857C744.619 351.997 743.264 351.597 743.006 352.469C742.215 355.068 739.58 356.319 737.185 357.141C734.809 357.97 732.349 358.67 730.43 360.345C729.294 359.877 728.148 359.433 726.993 359.015C723.62 357.818 720.144 356.936 716.588 356.542C721.335 352.417 726.341 348.59 731.61 345.107C738.882 340.31 746.454 335.99 753.695 331.145C757.156 331.835 760.706 331.951 764.177 331.522C764.091 331.771 764.109 332.076 764.31 332.247C766.111 333.685 767.493 335.529 768.375 337.65C768.525 337.998 769.022 338.111 769.34 337.941C769.699 337.746 769.77 337.344 769.627 336.99C768.713 334.808 767.261 332.85 765.422 331.344C769.748 330.655 773.93 329.121 777.662 326.761C778.422 326.279 777.769 325.037 777.002 325.526C770.599 329.56 762.827 331.181 755.346 330.019C759.436 327.206 763.38 324.17 767.012 320.822C767.079 320.81 767.139 320.805 767.208 320.767C767.363 320.686 767.495 320.511 767.547 320.32C770.311 317.722 772.887 314.941 775.186 311.881C775.726 311.154 774.519 310.433 773.972 311.153C771.854 313.98 769.51 316.569 766.99 318.975C765.492 316.248 765.366 312.851 766.829 310.072C767.251 309.277 766.044 308.543 765.622 309.352C763.885 312.646 763.978 316.783 765.916 319.972C762.017 323.558 757.756 326.737 753.321 329.719C753.152 329.761 753.024 329.857 752.927 329.987C747.425 333.674 741.692 337.065 736.109 340.559C738.88 336.525 740.43 331.797 742.031 327.177C742.139 326.868 742.248 326.56 742.363 326.246C742.39 326.247 742.417 326.247 742.45 326.241C746.26 325.419 749.806 323.722 752.846 321.304C753.555 320.741 752.583 319.722 751.874 320.285C749.25 322.377 746.189 323.862 742.933 324.68C744.897 319.461 747.521 314.239 752.462 311.284C753.242 310.822 752.582 309.586 751.803 310.048C740.171 316.997 741.638 332.736 733.153 342.059C733.031 342.196 732.964 342.374 732.967 342.557C732.736 342.71 732.492 342.862 732.261 343.014C724.882 347.809 717.947 353.178 711.521 359.189C709.805 360.792 708.123 362.432 706.479 364.107C707.196 359.171 705.813 354.172 704.606 349.369C704.179 347.697 703.778 346.012 703.472 344.303C703.52 344.258 703.581 344.214 703.629 344.142C704.521 342.751 706.091 342.165 707.623 341.717C709.055 341.299 710.472 340.908 711.818 340.223C714.394 338.897 716.531 336.838 717.999 334.363C718.454 333.588 717.254 332.861 716.785 333.636C715.241 336.247 712.903 338.314 710.079 339.474C707.732 340.443 704.992 340.673 703.182 342.476C703.089 341.752 703.015 341.022 702.989 340.301C702.838 336.81 703.581 333.344 705.167 330.218C706.971 326.681 709.727 323.692 713.176 321.662C713.956 321.201 713.29 319.959 712.511 320.42C706.541 323.93 702.455 330.177 701.679 337.024C700.974 343.263 703.315 349.268 704.576 355.283C702.715 353.769 700.857 352.252 699.002 350.732C697.913 349.849 696.763 348.997 695.749 348.03C694.814 347.145 693.953 345.97 694.271 344.616C694.474 343.742 693.119 343.341 692.908 344.222C692.218 347.239 694.878 349.171 696.938 350.854L704.696 357.192C704.782 357.253 704.86 357.295 704.947 357.317C705.393 360.221 705.445 363.16 704.627 366.015C700.605 370.193 696.772 374.555 693.055 379.013C688.925 383.988 684.938 389.086 681.016 394.226C682.371 388.11 682.599 381.778 681.643 375.58C681.067 371.832 680.048 368.166 678.638 364.648C677.559 361.953 676.149 359.4 674.862 356.798C675.503 355.552 676.509 354.607 677.522 353.629C678.515 352.67 679.43 351.656 680.214 350.519C681.75 348.265 682.694 345.704 683.094 343.036C683.225 342.139 681.806 342.108 681.682 342.997C681.291 345.593 680.262 348.08 678.71 350.207C677.373 352.043 675.382 353.398 674.124 355.276C673.663 354.304 673.224 353.313 672.845 352.304C671.273 348.14 670.648 343.28 672.952 339.26C673.4 338.479 672.2 337.752 671.745 338.539C667.41 346.09 672.103 354.342 675.52 361.189C677.574 365.301 679.034 369.634 679.905 374.097C677.447 372.542 675.177 370.747 673.134 368.687C672.491 368.054 671.458 369.012 672.107 369.651C674.474 372.038 677.15 374.122 680.043 375.847C680.109 375.889 680.175 375.904 680.241 375.919C680.688 378.809 680.893 381.746 680.805 384.701C680.696 388.912 680.002 393.068 678.81 397.111C677.695 398.57 676.588 400.035 675.489 401.506C675.476 402.432 675.361 403.25 675.096 403.924C675.215 403.888 675.336 403.856 675.458 403.828C675.506 403.796 675.54 403.75 675.574 403.705C676.799 402.091 678.017 400.47 679.242 398.856C679.266 398.856 679.289 398.849 679.314 398.848C679.32 398.836 679.329 398.826 679.336 398.815C679.41 398.683 679.494 398.562 679.588 398.448C679.621 398.406 679.662 398.366 679.696 398.324C679.725 398.296 679.747 398.26 679.776 398.233L679.786 398.224C679.842 398.162 679.891 398.099 679.954 398.037C679.98 398.011 680.009 397.989 680.036 397.965C680.058 397.884 680.082 397.802 680.106 397.722C683.296 393.514 686.518 389.328 689.811 385.203C689.885 385.212 689.944 385.22 690.025 385.196C697.73 383.315 705.442 384.814 712.247 388.736C713.756 389.611 715.224 390.564 716.663 391.556C716.66 391.635 716.664 391.721 716.695 391.808C718.084 396.08 719.206 400.603 721.229 404.627C722.928 408.014 725.666 411.02 729.472 411.977C730.353 412.192 730.75 410.853 729.869 410.625C726.116 409.683 723.661 406.579 722.121 403.223C720.592 399.906 719.591 396.326 718.501 392.83C722.784 395.864 726.955 399.067 731.746 401.3C735.308 402.965 739.117 404.047 743.079 404.022Z" fill="#762CEF"/>
<path d="M677.791 415H324.21C311.391 415 301 404.631 301 391.84V153.846C301 140.676 311.699 130 324.897 130H677.104C690.301 130 701 140.676 701 153.846V391.84C701 404.631 690.609 415 677.791 415Z" fill="white"/>
<path d="M408 415H324.282C311.424 415 301 404.631 301 391.84V153.846C301 140.676 311.733 130 324.971 130H408V415Z" fill="url(#paint6_linear_69_502)"/>
<path d="M701 165H301V153.523C301 140.532 311.699 130 324.897 130H677.104C690.301 130 701 140.532 701 153.523V165Z" fill="url(#paint7_linear_69_502)"/>
<path d="M320.484 151.187C322.615 151.187 324.343 149.459 324.343 147.328C324.343 145.196 322.615 143.469 320.484 143.469C318.353 143.469 316.625 145.196 316.625 147.328C316.625 149.459 318.353 151.187 320.484 151.187Z" fill="white"/>
<path d="M331.29 151.187C333.422 151.187 335.15 149.459 335.15 147.328C335.15 145.196 333.422 143.468 331.29 143.468C329.159 143.468 327.431 145.196 327.431 147.328C327.431 149.459 329.159 151.187 331.29 151.187Z" fill="white"/>
<path d="M342.097 151.187C344.229 151.187 345.957 149.459 345.957 147.328C345.957 145.196 344.229 143.468 342.097 143.468C339.965 143.468 338.237 145.196 338.237 147.328C338.237 149.459 339.965 151.187 342.097 151.187Z" fill="white"/>
<path d="M621.537 154.043H361.738C358.569 154.043 356 151.489 356 148.338V146.704C356 143.554 358.569 141 361.738 141H621.537C624.706 141 627.275 143.554 627.275 146.704V148.338C627.275 151.489 624.706 154.043 621.537 154.043ZM678.262 154.043H641.117C637.948 154.043 635.379 151.489 635.379 148.338V146.704C635.379 143.554 637.948 141 641.117 141H678.262C681.431 141 684 143.554 684 146.704V148.338C684 151.489 681.431 154.043 678.262 154.043Z" fill="white"/>
<path d="M354 246C372.225 246 387 231.225 387 213C387 194.775 372.225 180 354 180C335.775 180 321 194.775 321 213C321 231.225 335.775 246 354 246Z" fill="white"/>
<path d="M551.602 69.6652C551.494 69.1576 551.378 68.6403 551.101 68.1941C550.459 67.1587 548.918 66.7333 547.789 67.2795C547.709 67.3181 547.628 67.362 547.538 67.3642C547.266 67.3699 547.165 67.0383 547.096 66.7888C546.813 65.7644 545.696 65.0814 544.581 65.0081C543.466 64.9347 542.375 65.3679 541.444 65.9534C540.769 66.3779 540.097 67.0011 540.134 67.7674C540.14 67.8882 540.162 68.018 540.098 68.1226C540.05 68.202 539.962 68.2503 539.879 68.2976C538.829 68.9026 538.112 70.0009 538.011 71.1622C537.91 72.3234 538.512 74.6275 539.444 75.387L548.76 77C550.306 76.8351 551.474 75.4789 551.832 74.0447C552.19 72.6109 551.91 71.11 551.602 69.6652Z" fill="#3D415F"/>
<path d="M555.676 100.83L556.206 116H533.391L531.547 102.242L530 87.6989C532.002 86.1142 537.194 86.5378 541.903 86.5186L542.451 83.6138L542.757 82H547.238L547.642 83.8837L548.241 86.6537C551.52 86.3984 555.207 86.8993 557 87.4918L555.676 100.83Z" fill="url(#paint8_linear_69_502)"/>
<path d="M541.9 86.0357C537.192 86.059 532.001 85.6282 530 87.2369L531.543 102.017L533.388 116H556.202L555.672 100.582L557 87.0256C555.203 86.4262 551.517 85.9155 548.239 86.1736C547.271 90.5276 541.902 89.6098 541.9 86.0357Z" fill="url(#paint9_linear_69_502)"/>
<path d="M569.325 159.262C569.771 154.438 568.958 148.225 567.803 142.785C566.492 136.619 564.738 131.437 563.859 130.358C561.844 127.886 558.038 132.386 545.558 131.67C533.074 132.386 529.267 127.886 527.252 130.358C526.406 131.394 524.748 136.237 523.46 142.093C522.225 147.695 521.326 154.233 521.792 159.263L523.094 163.524L506 168L516.374 159.291C515.666 156.046 514.882 149.041 514.858 141.516C514.825 130.764 516.35 118.968 521.906 115.646C526.896 112.669 545.297 114.64 545.297 114.64C545.297 114.64 564.215 112.669 569.205 115.646C574.951 119.078 576.386 131.561 576.248 142.589C576.158 149.699 575.412 156.204 574.741 159.292L583 167.447L568.017 163.524L569.325 159.262Z" fill="url(#paint10_linear_69_502)"/>
<path d="M577.995 144.084L567.117 145.258C565.783 138.869 564.265 132.097 563.371 130.98C561.321 128.418 558.287 132.053 545.591 131.311C532.891 132.053 530.974 128.418 528.924 130.98C528.063 132.053 525.913 139.932 524.603 146L513 144.517C512.966 133.375 515.877 118.148 521.529 114.706C526.605 111.62 545.325 113.663 545.325 113.663C545.325 113.663 564.571 111.62 569.647 114.706C575.493 118.261 578.135 132.656 577.995 144.084Z" fill="url(#paint11_linear_69_502)"/>
<path d="M545 108.541C544.991 109.815 544.484 111.616 543.359 113.001C541.958 114.724 539.607 115.805 536.087 114.435C535.274 114.116 518.413 119.411 515.39 112.142C514.841 110.82 514.903 109.144 515.381 107.286C517.477 99.1479 527.993 87.5309 529.999 87.0189C532.468 86.3867 531.158 101.817 531.158 101.817C531.158 101.817 527.439 105.153 526.73 107.291C526.597 107.691 526.569 108.049 526.687 108.338C527.567 110.462 535.614 109.787 535.614 109.787C535.614 109.787 536.868 108.218 537.951 107.335C538.675 106.75 539.323 106.47 539.48 107.165C539.493 107.224 539.502 107.286 539.507 107.344C539.659 108.565 538.547 109.767 538.547 109.767C539.461 110.023 540.624 109.299 541.712 108.541C542.299 108.131 542.862 107.716 543.353 107.436C543.401 107.412 543.448 107.383 543.491 107.364C544.058 107.06 544.518 106.982 544.768 107.373C544.862 107.513 544.929 107.711 544.967 107.976C544.991 108.15 545 108.338 545 108.541Z" fill="url(#paint12_linear_69_502)"/>
<path d="M571.609 112.14C568.59 119.414 551.723 114.115 550.909 114.434C547.389 115.805 545.042 114.724 543.647 113C542.516 111.613 542.009 109.811 542 108.536C542 108.333 542.009 108.145 542.033 107.971C542.071 107.691 542.142 107.488 542.241 107.348C542.497 106.976 542.946 107.058 543.505 107.358C543.552 107.377 543.594 107.401 543.642 107.43C544.134 107.711 544.702 108.13 545.288 108.536C546.376 109.295 547.536 110.019 548.448 109.763C548.448 109.763 547.36 108.585 547.484 107.377C547.488 107.305 547.503 107.232 547.517 107.16C547.677 106.445 548.364 106.764 549.111 107.387C550.18 108.275 551.382 109.783 551.382 109.783C551.382 109.783 559.43 110.459 560.315 108.333C560.419 108.077 560.414 107.778 560.329 107.449C559.794 105.406 556.094 102.252 556.094 102.252C556.094 102.252 554.916 86.3858 557.381 87.0184C559.42 87.5353 569.825 99.4849 571.708 107.638C572.102 109.353 572.125 110.903 571.609 112.14Z" fill="url(#paint13_linear_69_502)"/>
<path d="M532.207 101.051C532.207 101.051 527.536 105.42 526.81 107.683C522.616 107.673 517.386 107.052 514 107.062C518.964 95.0486 528.015 87.7697 530 87.0001C536.765 85.4253 532.207 101.051 532.207 101.051ZM572 108C568.575 107.878 563.772 107.821 560.366 107.801C559.819 105.64 555.155 101.508 555.155 101.508C555.155 101.508 553.991 87.7522 557 87C559 86.5 570.075 99.3761 572 108Z" fill="url(#paint14_linear_69_502)"/>
<path d="M548 84.4282C547.152 84.7049 546.073 85.0135 545 84.9995C543.653 84.9807 542.735 84.8847 542 84.5L542.5 81H547.5L548 84.4282Z" fill="#FFBFC0"/>
<path d="M540.709 73.5438L540.817 75.1357C540.817 75.1357 539 73.7305 539 75.5502C539 77.3698 540.773 77.9065 540.773 77.9065C540.773 77.9065 541.036 83 545.167 83C550.035 83 549.51 78.2113 549.51 78.2113C549.51 78.2113 551.439 76.4471 550.907 75.3101C550.375 74.1728 549.047 75.4193 549.047 75.4193C548.084 72.5391 544.894 73.994 542.434 71.1428C541.816 70.4252 540.709 72.5975 540.709 73.5438Z" fill="url(#paint15_linear_69_502)"/>
<path d="M522.65 163.391C523.084 161.664 522.557 159.988 521.312 159L515.913 159.384C512.309 162.184 506.555 162.509 506 167.507L522.65 163.391ZM567.756 163.518C567.358 161.791 567.841 160.115 568.983 159.127L574.431 159.384C577.739 162.184 584.343 162.664 583.986 168L567.756 163.518Z" fill="#1C2461"/>
<path d="M555.956 94H534.043C532.362 94 531 95.3551 531 97.0267V114.973C531 116.645 532.362 118 534.043 118H555.956C557.637 118 559 116.645 559 114.973V97.0267C559 95.3551 557.637 94 555.956 94Z" fill="url(#paint16_linear_69_502)"/>
<path opacity="0.47" d="M545 109C546.105 109 547 108.105 547 107C547 105.895 546.105 105 545 105C543.895 105 543 105.895 543 107C543 108.105 543.895 109 545 109Z" fill="#293C64"/>
<path d="M619.04 59H586.959C583.668 59 581 61.6316 581 64.8779V80.4892C581 83.7357 583.668 86.3673 586.959 86.3673V91L592.75 86.3673H619.04C622.332 86.3673 625 83.7357 625 80.4892V64.8779C625 61.6318 622.332 59 619.04 59Z" fill="url(#paint17_linear_69_502)"/>
<path d="M596.33 78.9996C596.224 78.9997 596.12 78.9785 596.022 78.9371C595.924 78.8958 595.836 78.8352 595.761 78.7587L589.236 72.0817C589.161 72.0054 589.102 71.9147 589.061 71.8148C589.021 71.715 589 71.6079 589 71.4998C589 71.3917 589.021 71.2847 589.061 71.1848C589.102 71.085 589.161 70.9943 589.236 70.918L595.761 64.2412C595.836 64.1647 595.925 64.1041 596.022 64.0627C596.12 64.0213 596.224 64 596.33 64C596.435 64 596.54 64.0213 596.637 64.0627C596.735 64.1041 596.824 64.1647 596.898 64.2412C597.049 64.3956 597.134 64.6049 597.134 64.8231C597.134 65.0414 597.049 65.2507 596.898 65.4051L590.941 71.5003L596.898 77.5952C597.049 77.7497 597.134 77.959 597.134 78.1772C597.134 78.3954 597.049 78.6047 596.898 78.7591C596.824 78.8355 596.735 78.8961 596.637 78.9373C596.54 78.9786 596.435 78.9997 596.33 78.9996ZM610.671 78.9996C610.776 78.9997 610.881 78.9785 610.979 78.9372C611.076 78.8958 611.165 78.8352 611.239 78.7587L617.764 72.0817C617.839 72.0053 617.898 71.9146 617.939 71.8148C617.979 71.7149 618 71.6079 618 71.4998C618 71.3917 617.979 71.2847 617.939 71.1849C617.898 71.085 617.839 70.9943 617.764 70.918L611.239 64.2412C611.165 64.1647 611.076 64.1041 610.979 64.0627C610.881 64.0213 610.776 64 610.671 64C610.565 64 610.46 64.0213 610.363 64.0627C610.265 64.1041 610.177 64.1647 610.102 64.2412C609.951 64.3956 609.867 64.6049 609.867 64.8231C609.867 65.0414 609.951 65.2507 610.102 65.4051L616.059 71.5003L610.102 77.5952C609.989 77.7102 609.913 77.8569 609.882 78.0165C609.85 78.1762 609.866 78.3417 609.927 78.4921C609.988 78.6425 610.091 78.7711 610.224 78.8614C610.356 78.9517 610.512 78.9998 610.671 78.9996ZM600.273 79C600.14 78.9999 600.008 78.9658 599.891 78.9007C599.773 78.8357 599.674 78.7419 599.601 78.6276C599.528 78.5133 599.483 78.3822 599.472 78.2461C599.461 78.1101 599.483 77.9732 599.536 77.848L605.228 64.4937C605.313 64.2938 605.473 64.1367 605.671 64.0569C605.87 63.9772 606.091 63.9815 606.286 64.0687C606.383 64.1118 606.471 64.1741 606.544 64.2519C606.617 64.3297 606.675 64.4215 606.713 64.5221C606.752 64.6227 606.771 64.7301 606.769 64.8382C606.767 64.9462 606.744 65.0528 606.702 65.1519L601.011 78.5057C600.948 78.6527 600.845 78.7777 600.714 78.8655C600.583 78.9533 600.43 79 600.273 79Z" fill="white"/>
<rect x="311" y="258" width="87" height="16" rx="4" fill="white"/>
<rect x="311" y="290" width="87" height="16" rx="4" fill="white"/>
<rect x="311" y="322" width="87" height="16" rx="4" fill="white"/>
<rect x="424" y="181" width="115" height="79" rx="2.37489" fill="url(#paint18_linear_69_502)" fill-opacity="0.48"/>
<rect x="424" y="306" width="115" height="79" rx="2.37489" fill="url(#paint19_linear_69_502)" fill-opacity="0.48"/>
<rect x="561" y="181" width="115" height="79" rx="2.37489" fill="url(#paint20_linear_69_502)" fill-opacity="0.48"/>
<rect x="561" y="306" width="115" height="79" rx="2.37489" fill="url(#paint21_linear_69_502)" fill-opacity="0.48"/>
<rect x="424" y="270" width="89" height="8" rx="4" fill="url(#paint22_linear_69_502)" fill-opacity="0.48"/>
<rect x="424" y="395" width="89" height="8" rx="4" fill="url(#paint23_linear_69_502)" fill-opacity="0.48"/>
<rect x="561" y="270" width="89" height="8" rx="4" fill="url(#paint24_linear_69_502)" fill-opacity="0.48"/>
<rect x="561" y="395" width="89" height="8" rx="4" fill="url(#paint25_linear_69_502)" fill-opacity="0.48"/>
<rect x="424" y="285" width="52" height="8" rx="4" fill="url(#paint26_linear_69_502)" fill-opacity="0.48"/>
<path d="M424 415C424 412.239 426.239 410 429 410H471C473.761 410 476 412.239 476 415V415H424V415Z" fill="url(#paint27_linear_69_502)" fill-opacity="0.48"/>
<rect x="561" y="285" width="52" height="8" rx="4" fill="url(#paint28_linear_69_502)" fill-opacity="0.48"/>
<path d="M561 415C561 412.239 563.239 410 566 410H608C610.761 410 613 412.239 613 415V415H561V415Z" fill="url(#paint29_linear_69_502)" fill-opacity="0.48"/>
<mask id="mask0_69_502" style="mask-type:alpha" maskUnits="userSpaceOnUse" x="327" y="185" width="54" height="54">
<rect x="327" y="185" width="54" height="54" fill="#D9D9D9"/>
</mask>
<g mask="url(#mask0_69_502)">
<path d="M354 212C351.525 212 349.406 211.119 347.644 209.356C345.881 207.594 345 205.475 345 203C345 200.525 345.881 198.406 347.644 196.644C349.406 194.881 351.525 194 354 194C356.475 194 358.594 194.881 360.356 196.644C362.119 198.406 363 200.525 363 203C363 205.475 362.119 207.594 360.356 209.356C358.594 211.119 356.475 212 354 212ZM363 230V215.6C363.937 215.9 364.856 216.219 365.756 216.556C366.656 216.894 367.538 217.288 368.4 217.738C369.525 218.3 370.406 219.116 371.044 220.184C371.681 221.253 372 222.425 372 223.7V230H363ZM349.5 222.125V214.588C350.25 214.475 351 214.391 351.75 214.334C352.5 214.278 353.25 214.25 354 214.25C354.75 214.25 355.5 214.278 356.25 214.334C357 214.391 357.75 214.475 358.5 214.588V222.125H349.5ZM336 230V223.7C336 222.425 336.319 221.253 336.956 220.184C337.594 219.116 338.475 218.3 339.6 217.738C340.463 217.288 341.344 216.894 342.244 216.556C343.144 216.219 344.063 215.9 345 215.6V230H336Z" fill="#7E6CE2"/>
</g>
<defs>
<radialGradient id="paint0_radial_69_502" cx="0" cy="0" r="1" gradientUnits="userSpaceOnUse" gradientTransform="translate(490 250) rotate(92.7559) scale(322.373 494.087)">
<stop stop-color="#8085FF"/>
<stop offset="0.540512" stop-color="#762CEF"/>
<stop offset="1" stop-color="#7000C8"/>
</radialGradient>
<linearGradient id="paint1_linear_69_502" x1="799" y1="461.055" x2="807.43" y2="461.055" gradientUnits="userSpaceOnUse">
<stop stop-color="white"/>
<stop offset="1" stop-color="white" stop-opacity="0.82"/>
</linearGradient>
<linearGradient id="paint2_linear_69_502" x1="807.43" y1="470.528" x2="832.717" y2="470.528" gradientUnits="userSpaceOnUse">
<stop stop-color="white"/>
<stop offset="1" stop-color="white" stop-opacity="0.82"/>
</linearGradient>
<linearGradient id="paint3_linear_69_502" x1="807.573" y1="451.543" x2="832.654" y2="451.543" gradientUnits="userSpaceOnUse">
<stop stop-color="white"/>
<stop offset="1" stop-color="white" stop-opacity="0.82"/>
</linearGradient>
<linearGradient id="paint4_linear_69_502" x1="272.5" y1="425" x2="181.027" y2="301.648" gradientUnits="userSpaceOnUse">
<stop offset="0.184024" stop-color="#00957A"/>
<stop offset="1" stop-color="#10F1D3"/>
</linearGradient>
<linearGradient id="paint5_linear_69_502" x1="678.5" y1="407.5" x2="790.956" y2="324.651" gradientUnits="userSpaceOnUse">
<stop offset="0.184024" stop-color="#00957A"/>
<stop offset="1" stop-color="#10F1D3"/>
</linearGradient>
<linearGradient id="paint6_linear_69_502" x1="394.722" y1="272.709" x2="222.112" y2="271.702" gradientUnits="userSpaceOnUse">
<stop stop-color="#9FB3FF"/>
<stop offset="1" stop-color="#294D9A"/>
</linearGradient>
<linearGradient id="paint7_linear_69_502" x1="501" y1="130" x2="501" y2="165" gradientUnits="userSpaceOnUse">
<stop stop-color="#F0F2FC"/>
<stop offset="1" stop-color="#C3B9FF"/>
</linearGradient>
<linearGradient id="paint8_linear_69_502" x1="546" y1="89" x2="546.5" y2="79.5" gradientUnits="userSpaceOnUse">
<stop stop-color="white"/>
<stop offset="0.84427" stop-color="#FFD0D0"/>
</linearGradient>
<linearGradient id="paint9_linear_69_502" x1="543.5" y1="86" x2="545" y2="105.5" gradientUnits="userSpaceOnUse">
<stop stop-color="#6D56EE"/>
<stop offset="1" stop-color="#C2B7FF"/>
</linearGradient>
<linearGradient id="paint10_linear_69_502" x1="548.5" y1="185.5" x2="548" y2="118" gradientUnits="userSpaceOnUse">
<stop stop-color="white"/>
<stop offset="0.629578" stop-color="#FFD0D0"/>
</linearGradient>
<linearGradient id="paint11_linear_69_502" x1="545.5" y1="113" x2="556.981" y2="145.892" gradientUnits="userSpaceOnUse">
<stop stop-color="#383F76"/>
<stop offset="1" stop-color="#6F78BE"/>
</linearGradient>
<linearGradient id="paint12_linear_69_502" x1="541.5" y1="108.5" x2="507.5" y2="111" gradientUnits="userSpaceOnUse">
<stop stop-color="white"/>
<stop offset="0.84427" stop-color="#FFD0D0"/>
</linearGradient>
<linearGradient id="paint13_linear_69_502" x1="548.5" y1="108.5" x2="580.5" y2="113.5" gradientUnits="userSpaceOnUse">
<stop stop-color="white"/>
<stop offset="0.84427" stop-color="#FFD0D0"/>
</linearGradient>
<linearGradient id="paint14_linear_69_502" x1="573" y1="100" x2="516.5" y2="99" gradientUnits="userSpaceOnUse">
<stop stop-color="#A595FF"/>
<stop offset="0.315625" stop-color="#705CE0"/>
<stop offset="0.638542" stop-color="#6955D9"/>
<stop offset="1" stop-color="#A898FF"/>
</linearGradient>
<linearGradient id="paint15_linear_69_502" x1="545" y1="71" x2="545" y2="83" gradientUnits="userSpaceOnUse">
<stop stop-color="white"/>
<stop offset="0.84427" stop-color="#FFD0D0"/>
</linearGradient>
<linearGradient id="paint16_linear_69_502" x1="545" y1="94" x2="545" y2="118" gradientUnits="userSpaceOnUse">
<stop stop-color="#F0F2FC"/>
<stop offset="1" stop-color="#C3B9FF"/>
</linearGradient>
<linearGradient id="paint17_linear_69_502" x1="581" y1="72" x2="630" y2="73" gradientUnits="userSpaceOnUse">
<stop stop-color="#31A2FE"/>
<stop offset="1" stop-color="#ADDAFF"/>
</linearGradient>
<linearGradient id="paint18_linear_69_502" x1="481.5" y1="181" x2="481.5" y2="260" gradientUnits="userSpaceOnUse">
<stop stop-color="#D0D5FF"/>
<stop offset="1" stop-color="#8BA4FF"/>
</linearGradient>
<linearGradient id="paint19_linear_69_502" x1="481.5" y1="306" x2="481.5" y2="385" gradientUnits="userSpaceOnUse">
<stop stop-color="#D0D5FF"/>
<stop offset="1" stop-color="#8BA4FF"/>
</linearGradient>
<linearGradient id="paint20_linear_69_502" x1="618.5" y1="181" x2="618.5" y2="260" gradientUnits="userSpaceOnUse">
<stop stop-color="#D0D5FF"/>
<stop offset="1" stop-color="#8BA4FF"/>
</linearGradient>
<linearGradient id="paint21_linear_69_502" x1="618.5" y1="306" x2="618.5" y2="385" gradientUnits="userSpaceOnUse">
<stop stop-color="#D0D5FF"/>
<stop offset="1" stop-color="#8BA4FF"/>
</linearGradient>
<linearGradient id="paint22_linear_69_502" x1="468.5" y1="270" x2="468.5" y2="278" gradientUnits="userSpaceOnUse">
<stop stop-color="#D0D5FF"/>
<stop offset="1" stop-color="#8BA4FF"/>
</linearGradient>
<linearGradient id="paint23_linear_69_502" x1="468.5" y1="395" x2="468.5" y2="403" gradientUnits="userSpaceOnUse">
<stop stop-color="#D0D5FF"/>
<stop offset="1" stop-color="#8BA4FF"/>
</linearGradient>
<linearGradient id="paint24_linear_69_502" x1="605.5" y1="270" x2="605.5" y2="278" gradientUnits="userSpaceOnUse">
<stop stop-color="#D0D5FF"/>
<stop offset="1" stop-color="#8BA4FF"/>
</linearGradient>
<linearGradient id="paint25_linear_69_502" x1="605.5" y1="395" x2="605.5" y2="403" gradientUnits="userSpaceOnUse">
<stop stop-color="#D0D5FF"/>
<stop offset="1" stop-color="#8BA4FF"/>
</linearGradient>
<linearGradient id="paint26_linear_69_502" x1="450" y1="285" x2="450" y2="293" gradientUnits="userSpaceOnUse">
<stop stop-color="#D0D5FF"/>
<stop offset="1" stop-color="#8BA4FF"/>
</linearGradient>
<linearGradient id="paint27_linear_69_502" x1="450" y1="410" x2="450" y2="415" gradientUnits="userSpaceOnUse">
<stop stop-color="#D0D5FF"/>
<stop offset="1" stop-color="#8BA4FF"/>
</linearGradient>
<linearGradient id="paint28_linear_69_502" x1="587" y1="285" x2="587" y2="293" gradientUnits="userSpaceOnUse">
<stop stop-color="#D0D5FF"/>
<stop offset="1" stop-color="#8BA4FF"/>
</linearGradient>
<linearGradient id="paint29_linear_69_502" x1="587" y1="410" x2="587" y2="415" gradientUnits="userSpaceOnUse">
<stop stop-color="#D0D5FF"/>
<stop offset="1" stop-color="#8BA4FF"/>
</linearGradient>
<clipPath id="clip0_69_502">
<rect width="160.567" height="38" fill="white" transform="translate(799 442)"/>
</clipPath>
</defs>
</svg>
