<svg width="980" height="500" viewBox="0 0 980 500" fill="none" xmlns="http://www.w3.org/2000/svg">
<rect width="980" height="500" fill="url(#paint0_radial_49_199)"/>
<g clip-path="url(#clip0_49_199)">
<path d="M848.688 467.15C847.638 467.181 846.599 466.917 845.691 466.387C844.86 465.875 844.194 465.133 843.775 464.251C843.312 463.258 843.084 462.171 843.107 461.076C843.084 459.979 843.312 458.892 843.775 457.897C844.194 457.015 844.86 456.273 845.691 455.762C846.599 455.232 847.638 454.967 848.688 454.998C849.89 454.954 851.072 455.308 852.051 456.005C852.958 456.686 853.624 457.638 853.952 458.723L851.983 459.267C851.794 458.566 851.388 457.942 850.824 457.485C850.206 457.035 849.452 456.811 848.688 456.852C847.998 456.826 847.316 457.009 846.731 457.378C846.199 457.743 845.79 458.261 845.558 458.863C845.282 459.575 845.146 460.333 845.157 461.097C845.14 461.859 845.274 462.616 845.549 463.327C845.785 463.932 846.199 464.45 846.737 464.812C847.323 465.181 848.006 465.364 848.697 465.338C849.459 465.372 850.208 465.143 850.821 464.691C851.384 464.233 851.79 463.609 851.98 462.908L853.952 463.425C853.627 464.509 852.965 465.461 852.063 466.143C851.08 466.843 849.894 467.197 848.688 467.15Z" fill="white"/>
<path d="M856.094 466.91V455.239H860.914C861.03 455.239 861.176 455.239 861.354 455.239C861.519 455.246 861.684 455.264 861.847 455.292C862.455 455.368 863.032 455.6 863.522 455.967C863.959 456.308 864.297 456.759 864.503 457.274C864.72 457.833 864.828 458.429 864.82 459.029C864.844 459.901 864.592 460.758 864.102 461.48C863.839 461.832 863.508 462.126 863.127 462.344C862.746 462.562 862.325 462.7 861.889 462.748L861.054 462.819H858.048V466.91H856.094ZM858.048 461.01H860.834C860.944 461.01 861.063 461.01 861.2 460.993C861.325 460.984 861.45 460.962 861.571 460.927C861.864 460.866 862.131 460.717 862.337 460.499C862.521 460.3 862.657 460.061 862.735 459.801C862.81 459.555 862.849 459.299 862.851 459.041C862.85 458.781 862.811 458.523 862.735 458.275C862.658 458.014 862.522 457.774 862.337 457.574C862.13 457.358 861.863 457.21 861.571 457.149C861.449 457.117 861.325 457.097 861.2 457.089C861.063 457.089 860.944 457.089 860.834 457.089H858.048V461.01ZM862.801 466.91L860.502 462.157L862.486 461.72L865.014 466.907L862.801 466.91Z" fill="white"/>
<path d="M867.164 466.91V455.239H874.7V457.072H869.116V459.947H873.726V461.78H869.116V465.077H874.7V466.91H867.164Z" fill="white"/>
<path d="M876.206 466.91L879.883 455.239H882.744L886.424 466.91H884.413L881.074 456.439H881.514L878.217 466.91H876.206ZM878.256 464.379V462.558H884.381V464.379H878.256Z" fill="white"/>
<path d="M890.087 466.91V457.072H886.311V455.239H895.816V457.072H892.038V466.91H890.087Z" fill="white"/>
<path d="M897.646 466.91V455.239H899.598V466.91H897.646Z" fill="white"/>
<path d="M905.042 466.91L901.35 455.239H903.358L906.438 465.011L909.557 455.239H911.577L907.888 466.91H905.042Z" fill="white"/>
<path d="M913.155 466.91V455.239H920.69V457.072H915.109V459.947H919.719V461.78H915.109V465.077H920.69V466.91H913.155Z" fill="white"/>
<path d="M923.162 466.91V455.239H925.113V466.91H923.162Z" fill="white"/>
<path d="M930.73 466.91V457.072H926.955V455.239H936.46V457.072H932.682V466.91H930.73Z" fill="white"/>
<path d="M938.126 466.91V455.239H945.662V457.072H940.093V459.947H944.703V461.78H940.093V465.077H945.674V466.91H938.126Z" fill="white"/>
<path d="M947.982 466.91V455.239H949.741L953.774 463.506L957.811 455.239H959.567V466.91H957.746V459.43L954.164 466.91H953.385L949.821 459.43V466.91H947.982Z" fill="white"/>
<path d="M815.86 470.789L807.43 465.92V475.654L815.86 470.789Z" fill="white" fill-opacity="0.48"/>
<path d="M832.717 461.055L824.287 456.189V465.92L832.717 461.055Z" fill="white" fill-opacity="0.47"/>
<path d="M815.86 451.321L807.43 446.456V456.189L815.86 451.321Z" fill="white" fill-opacity="0.48"/>
<path d="M807.43 446.456L800.687 450.35C800.174 450.645 799.747 451.07 799.451 451.583C799.155 452.096 798.999 452.677 799 453.27V468.84C799 469.433 799.155 470.015 799.452 470.528C799.748 471.041 800.174 471.467 800.687 471.763L807.43 475.654V446.456Z" fill="url(#paint1_linear_49_199)"/>
<path d="M832.717 468.84V461.055L807.43 475.654L814.173 479.548C814.685 479.845 815.267 480.001 815.858 480.001C816.45 480.001 817.032 479.845 817.544 479.548L831.033 471.763C831.545 471.467 831.97 471.04 832.266 470.527C832.562 470.014 832.717 469.432 832.717 468.84Z" fill="url(#paint2_linear_49_199)"/>
<path d="M817.606 442.594C817.098 442.301 816.521 442.146 815.934 442.146C815.347 442.146 814.77 442.301 814.262 442.594L807.573 446.456L832.654 460.939V453.216C832.654 452.629 832.5 452.051 832.206 451.543C831.913 451.034 831.491 450.611 830.982 450.317L817.606 442.594Z" fill="url(#paint3_linear_49_199)"/>
</g>
<path d="M615.577 248.24H615.559C613.252 248.157 610.824 247.87 608.131 247.366L607.547 247.254C607.417 247.228 607.303 247.152 607.229 247.042C607.156 246.931 607.129 246.797 607.154 246.667C607.18 246.537 607.256 246.422 607.366 246.348C607.476 246.275 607.611 246.248 607.741 246.273L608.315 246.383C610.958 246.879 613.339 247.159 615.595 247.241C615.724 247.249 615.845 247.306 615.933 247.4C616.02 247.495 616.068 247.62 616.066 247.749C616.063 247.878 616.011 248.001 615.92 248.093C615.829 248.184 615.706 248.237 615.577 248.24ZM623.525 247.568C623.402 247.568 623.283 247.523 623.191 247.441C623.099 247.359 623.041 247.246 623.027 247.123C623.013 247.001 623.045 246.878 623.117 246.777C623.189 246.677 623.295 246.607 623.415 246.58C623.654 246.526 623.893 246.469 624.132 246.407C626.33 245.843 628.543 244.947 630.712 243.741C630.828 243.677 630.965 243.661 631.092 243.697C631.22 243.734 631.328 243.819 631.392 243.935C631.457 244.051 631.472 244.188 631.436 244.315C631.4 244.443 631.314 244.551 631.198 244.615C628.955 245.862 626.661 246.79 624.38 247.375C624.131 247.439 623.884 247.499 623.635 247.555C623.599 247.563 623.562 247.568 623.525 247.568ZM599.901 245.278C599.851 245.278 599.801 245.27 599.751 245.254C597.192 244.442 594.676 243.499 592.214 242.428C592.092 242.375 591.997 242.276 591.948 242.153C591.9 242.029 591.902 241.892 591.955 241.77C592.008 241.648 592.107 241.553 592.23 241.504C592.354 241.456 592.491 241.458 592.613 241.511C595.043 242.568 597.526 243.499 600.051 244.301C600.164 244.337 600.261 244.413 600.323 244.514C600.386 244.615 600.41 244.735 600.392 244.853C600.374 244.97 600.315 245.078 600.225 245.155C600.135 245.233 600.02 245.276 599.901 245.277V245.278ZM637.487 240.081C637.385 240.081 637.285 240.049 637.202 239.991C637.118 239.932 637.054 239.85 637.019 239.754C636.984 239.658 636.978 239.554 637.004 239.455C637.03 239.356 637.085 239.267 637.163 239.201C638.593 237.974 639.964 236.679 641.27 235.321C641.799 234.774 642.318 234.218 642.829 233.654C642.918 233.556 643.042 233.497 643.175 233.49C643.307 233.483 643.437 233.529 643.536 233.618C643.634 233.707 643.693 233.832 643.7 233.964C643.706 234.097 643.66 234.227 643.571 234.325C643.053 234.897 642.526 235.46 641.989 236.015C640.66 237.397 639.266 238.714 637.811 239.962C637.721 240.04 637.606 240.082 637.487 240.082V240.081ZM585.237 238.941C585.153 238.941 585.07 238.919 584.996 238.878C582.648 237.583 580.356 236.19 578.126 234.701C578.02 234.626 577.947 234.512 577.924 234.384C577.9 234.256 577.927 234.124 577.999 234.016C578.071 233.908 578.183 233.832 578.31 233.804C578.437 233.777 578.57 233.8 578.68 233.869C580.887 235.342 583.155 236.721 585.478 238.002C585.575 238.055 585.652 238.14 585.696 238.242C585.74 238.343 585.749 238.457 585.721 238.564C585.694 238.672 585.631 238.767 585.543 238.835C585.456 238.903 585.348 238.94 585.237 238.94V238.941ZM571.928 230.09C571.816 230.09 571.708 230.052 571.62 229.983C569.592 228.389 567.62 226.726 565.706 224.996L565.484 224.794C565.386 224.705 565.328 224.58 565.321 224.447C565.315 224.315 565.362 224.185 565.452 224.087C565.541 223.989 565.666 223.931 565.798 223.925C565.931 223.919 566.06 223.966 566.158 224.055L566.374 224.252C568.271 225.967 570.227 227.616 572.237 229.197C572.319 229.261 572.378 229.349 572.408 229.449C572.437 229.549 572.434 229.655 572.4 229.753C572.366 229.852 572.303 229.937 572.218 229.997C572.133 230.058 572.032 230.09 571.928 230.09ZM648.226 228.27C648.134 228.27 648.044 228.245 647.965 228.197C647.887 228.149 647.823 228.08 647.781 227.998C647.739 227.916 647.72 227.824 647.727 227.733C647.734 227.641 647.766 227.553 647.82 227.478C649.368 225.328 650.794 223.094 652.093 220.786C652.124 220.726 652.166 220.673 652.218 220.631C652.27 220.588 652.33 220.556 652.394 220.536C652.458 220.517 652.526 220.511 652.593 220.519C652.659 220.526 652.724 220.547 652.782 220.58C652.841 220.613 652.892 220.657 652.933 220.71C652.974 220.763 653.004 220.824 653.021 220.889C653.038 220.954 653.042 221.022 653.032 221.088C653.022 221.155 652.999 221.219 652.964 221.276C651.647 223.617 650.201 225.883 648.632 228.063C648.586 228.127 648.525 228.18 648.454 228.216C648.384 228.252 648.305 228.27 648.226 228.27ZM560.071 219.364C560.004 219.364 559.938 219.351 559.876 219.324C559.814 219.298 559.759 219.26 559.712 219.212C557.848 217.293 556.035 215.325 554.275 213.31C554.229 213.261 554.193 213.203 554.169 213.14C554.146 213.077 554.136 213.01 554.139 212.943C554.142 212.876 554.159 212.81 554.188 212.749C554.217 212.688 554.258 212.634 554.309 212.59C554.36 212.546 554.419 212.512 554.483 212.491C554.547 212.47 554.614 212.462 554.681 212.468C554.748 212.474 554.813 212.493 554.873 212.525C554.932 212.556 554.985 212.6 555.027 212.652C556.775 214.654 558.577 216.609 560.429 218.515C560.498 218.585 560.544 218.674 560.562 218.771C560.581 218.868 560.57 218.968 560.532 219.058C560.494 219.149 560.429 219.226 560.348 219.281C560.266 219.335 560.169 219.364 560.071 219.364ZM656.047 214.35C655.965 214.35 655.884 214.329 655.811 214.29C655.738 214.251 655.677 214.195 655.631 214.126C655.586 214.058 655.558 213.979 655.55 213.897C655.542 213.815 655.555 213.732 655.587 213.656C656.614 211.216 657.496 208.717 658.227 206.172C658.242 206.106 658.271 206.043 658.311 205.989C658.351 205.934 658.402 205.888 658.46 205.853C658.519 205.819 658.584 205.797 658.651 205.788C658.718 205.78 658.787 205.785 658.852 205.803C658.917 205.822 658.978 205.854 659.031 205.897C659.083 205.94 659.126 205.993 659.158 206.053C659.189 206.113 659.208 206.179 659.213 206.247C659.218 206.315 659.209 206.383 659.187 206.447C658.445 209.03 657.551 211.567 656.508 214.044C656.47 214.135 656.406 214.212 656.324 214.266C656.242 214.321 656.146 214.35 656.048 214.35H656.047ZM549.527 207.338C549.452 207.338 549.378 207.321 549.31 207.288C549.243 207.255 549.184 207.208 549.137 207.149C547.472 205.058 545.845 202.938 544.257 200.788C544.178 200.681 544.145 200.548 544.164 200.417C544.184 200.285 544.255 200.167 544.362 200.088C544.468 200.01 544.602 199.976 544.733 199.996C544.864 200.015 544.982 200.086 545.061 200.193C546.641 202.333 548.26 204.445 549.917 206.526C549.976 206.599 550.013 206.688 550.023 206.782C550.034 206.875 550.018 206.97 549.977 207.054C549.936 207.139 549.872 207.211 549.793 207.261C549.713 207.311 549.621 207.338 549.527 207.338ZM626.207 202.585C623.701 202.585 621.141 201.963 618.6 200.735C618.481 200.677 618.389 200.574 618.346 200.449C618.302 200.324 618.31 200.186 618.368 200.067C618.426 199.948 618.529 199.856 618.654 199.813C618.779 199.769 618.917 199.777 619.036 199.835C621.44 200.996 623.853 201.585 626.207 201.585H626.21L626.522 201.582C626.807 201.599 627.028 201.794 627.034 202.071C627.037 202.203 626.987 202.332 626.895 202.427C626.803 202.523 626.677 202.578 626.545 202.581L626.21 202.585H626.207ZM634.094 200.299C633.985 200.299 633.88 200.264 633.793 200.199C633.706 200.134 633.643 200.042 633.613 199.937C633.583 199.833 633.587 199.722 633.626 199.62C633.665 199.519 633.736 199.433 633.828 199.375C635.876 198.094 637.735 196.268 639.353 193.948C639.39 193.893 639.438 193.845 639.493 193.809C639.549 193.772 639.611 193.747 639.676 193.734C639.742 193.722 639.809 193.723 639.874 193.737C639.939 193.751 640 193.777 640.055 193.816C640.11 193.854 640.156 193.902 640.191 193.958C640.227 194.015 640.251 194.077 640.262 194.143C640.273 194.209 640.271 194.276 640.256 194.34C640.24 194.405 640.212 194.466 640.173 194.52C638.478 196.951 636.521 198.87 634.359 200.223C634.28 200.273 634.188 200.299 634.094 200.299ZM660.432 199.003C660.36 199.003 660.288 198.988 660.223 198.957C660.157 198.927 660.099 198.883 660.052 198.829C660.005 198.774 659.97 198.709 659.95 198.64C659.93 198.57 659.926 198.497 659.937 198.426C660.344 195.794 660.577 193.137 660.627 190.53C660.633 190.398 660.689 190.274 660.784 190.183C660.879 190.092 661.005 190.041 661.137 190.04C661.203 190.041 661.268 190.056 661.328 190.082C661.388 190.108 661.442 190.146 661.488 190.193C661.533 190.241 661.569 190.297 661.593 190.358C661.617 190.419 661.628 190.484 661.627 190.55C661.572 193.239 661.337 195.922 660.925 198.58C660.907 198.698 660.847 198.805 660.757 198.882C660.666 198.96 660.551 199.003 660.432 199.003ZM612.272 196.232C612.148 196.232 612.028 196.185 611.936 196.101C610.06 194.388 608.24 192.367 606.525 190.095C606.445 189.989 606.411 189.856 606.429 189.724C606.448 189.593 606.518 189.474 606.624 189.394C606.73 189.315 606.863 189.28 606.994 189.299C607.126 189.317 607.244 189.387 607.324 189.493C609 191.716 610.78 193.691 612.61 195.363C612.684 195.431 612.737 195.52 612.759 195.618C612.782 195.716 612.775 195.819 612.739 195.913C612.702 196.007 612.638 196.087 612.555 196.144C612.472 196.201 612.374 196.232 612.273 196.232H612.272ZM539.998 194.488C539.918 194.488 539.838 194.469 539.767 194.431C539.695 194.394 539.634 194.34 539.588 194.274C538.064 192.082 536.562 189.873 535.084 187.65C535.048 187.595 535.022 187.534 535.01 187.47C534.997 187.405 534.997 187.339 535.01 187.275C535.023 187.21 535.048 187.149 535.084 187.094C535.121 187.04 535.168 186.993 535.223 186.956C535.277 186.92 535.338 186.895 535.403 186.882C535.467 186.869 535.534 186.869 535.598 186.882C535.662 186.895 535.724 186.92 535.778 186.957C535.833 186.993 535.88 187.04 535.916 187.095C537.391 189.313 538.889 191.515 540.409 193.702C540.461 193.777 540.492 193.865 540.498 193.956C540.504 194.047 540.485 194.138 540.442 194.219C540.4 194.3 540.336 194.368 540.258 194.415C540.18 194.463 540.09 194.488 539.999 194.488H539.998ZM643.39 187.625C643.31 187.625 643.23 187.606 643.159 187.569C643.088 187.531 643.027 187.478 642.98 187.412C642.934 187.346 642.905 187.27 642.894 187.19C642.884 187.111 642.893 187.03 642.92 186.954C643.584 185.128 644.106 183.253 644.48 181.346C644.615 180.666 644.737 179.983 644.848 179.298C644.856 179.231 644.877 179.166 644.91 179.107C644.944 179.048 644.989 178.997 645.043 178.956C645.097 178.915 645.159 178.886 645.224 178.87C645.29 178.853 645.358 178.85 645.425 178.861C645.492 178.872 645.556 178.896 645.613 178.933C645.67 178.969 645.719 179.016 645.757 179.072C645.795 179.128 645.822 179.191 645.835 179.257C645.848 179.323 645.848 179.392 645.834 179.458C645.721 180.154 645.597 180.848 645.461 181.538C645.078 183.496 644.542 185.421 643.86 187.296C643.825 187.392 643.761 187.476 643.677 187.535C643.593 187.593 643.493 187.625 643.39 187.625ZM602.514 183.624C602.426 183.624 602.34 183.601 602.264 183.557C602.188 183.513 602.125 183.45 602.081 183.374C600.668 180.925 599.49 178.479 598.579 176.103C598.535 175.98 598.541 175.845 598.596 175.726C598.65 175.608 598.749 175.515 598.871 175.469C598.992 175.422 599.127 175.424 599.247 175.476C599.367 175.527 599.462 175.623 599.512 175.744C600.405 178.072 601.56 180.47 602.947 182.874C602.991 182.95 603.014 183.036 603.014 183.124C603.014 183.212 602.991 183.298 602.947 183.374C602.903 183.45 602.84 183.513 602.764 183.557C602.688 183.601 602.602 183.624 602.514 183.624ZM660.719 183.057C660.597 183.057 660.479 183.012 660.388 182.931C660.297 182.85 660.239 182.738 660.224 182.617C659.911 179.994 659.387 177.401 658.659 174.862C658.633 174.738 658.654 174.609 658.719 174.5C658.784 174.391 658.888 174.311 659.01 174.276C659.131 174.241 659.262 174.253 659.375 174.31C659.488 174.367 659.575 174.465 659.619 174.584C660.362 177.174 660.896 179.82 661.216 182.496C661.225 182.566 661.218 182.638 661.197 182.705C661.176 182.773 661.141 182.835 661.094 182.888C661.047 182.941 660.989 182.983 660.924 183.012C660.86 183.041 660.79 183.056 660.719 183.056V183.057ZM646.203 171.93H646.171C646.106 171.926 646.041 171.909 645.983 171.88C645.924 171.851 645.871 171.811 645.828 171.761C645.784 171.712 645.751 171.655 645.73 171.592C645.709 171.53 645.7 171.465 645.704 171.399C645.85 169.09 645.935 166.632 645.981 163.429C645.983 163.298 646.036 163.172 646.13 163.08C646.224 162.988 646.35 162.936 646.481 162.936H646.488C646.554 162.937 646.619 162.951 646.679 162.977C646.739 163.003 646.794 163.04 646.84 163.087C646.885 163.134 646.921 163.19 646.946 163.251C646.97 163.312 646.982 163.377 646.981 163.443C646.935 166.663 646.849 169.136 646.701 171.463C646.693 171.589 646.637 171.708 646.544 171.795C646.452 171.881 646.33 171.93 646.203 171.93ZM596.956 168.718C596.837 168.718 596.722 168.675 596.631 168.597C596.541 168.519 596.481 168.412 596.463 168.294C596.214 166.693 596.088 165.076 596.085 163.456C596.088 162.314 596.159 161.244 596.295 160.183C596.314 160.052 596.383 159.934 596.487 159.853C596.591 159.772 596.723 159.735 596.854 159.75C596.919 159.758 596.982 159.779 597.039 159.812C597.096 159.845 597.146 159.888 597.187 159.94C597.227 159.992 597.257 160.052 597.274 160.115C597.291 160.179 597.295 160.245 597.287 160.31C597.157 161.323 597.089 162.344 597.085 163.366C597.085 164.99 597.208 166.566 597.452 168.142C597.463 168.213 597.458 168.286 597.439 168.356C597.419 168.425 597.384 168.49 597.337 168.544C597.29 168.599 597.231 168.643 597.165 168.673C597.1 168.703 597.028 168.718 596.956 168.718ZM656.184 167.803C656.093 167.803 656.004 167.778 655.926 167.731C655.848 167.684 655.784 167.617 655.742 167.536C655.26 166.619 654.736 165.725 654.172 164.856C653.299 163.522 652.339 162.248 651.298 161.041C651.254 160.991 651.22 160.934 651.198 160.871C651.177 160.808 651.168 160.741 651.172 160.675C651.177 160.609 651.194 160.544 651.224 160.485C651.253 160.425 651.295 160.372 651.345 160.329C651.395 160.286 651.454 160.253 651.517 160.232C651.58 160.212 651.647 160.204 651.713 160.21C651.779 160.215 651.844 160.234 651.903 160.265C651.962 160.296 652.014 160.338 652.056 160.389C653.126 161.629 654.113 162.94 655.01 164.311C655.591 165.206 656.13 166.127 656.626 167.071C656.666 167.147 656.686 167.232 656.683 167.318C656.68 167.404 656.656 167.488 656.611 167.561C656.567 167.635 656.504 167.696 656.429 167.738C656.354 167.781 656.27 167.803 656.184 167.803ZM646.55 155.933H646.544C646.442 155.932 646.343 155.899 646.26 155.84C646.176 155.78 646.114 155.697 646.079 155.601C646.005 155.615 645.928 155.613 645.855 155.594C645.782 155.575 645.714 155.54 645.656 155.491C643.917 154.007 642.002 152.511 639.446 150.64C639.223 150.478 639.142 150.142 639.303 149.92C639.464 149.697 639.745 149.622 639.966 149.782C642.492 151.63 644.368 153.09 646.061 154.523C646.089 152.458 646.144 149.933 646.283 147.407C646.295 147.276 646.355 147.155 646.453 147.068C646.551 146.98 646.678 146.933 646.809 146.936C646.941 146.943 647.065 147.003 647.154 147.101C647.242 147.2 647.288 147.33 647.281 147.462C647.122 150.352 647.075 153.242 647.051 155.439C647.049 155.571 646.996 155.696 646.903 155.789C646.809 155.881 646.683 155.933 646.551 155.933H646.55ZM598.996 153.087C598.912 153.088 598.829 153.067 598.755 153.027C598.681 152.987 598.618 152.928 598.573 152.857C598.528 152.786 598.501 152.705 598.496 152.621C598.491 152.537 598.507 152.453 598.543 152.377C599.736 149.807 601.288 147.553 603.155 145.678C603.249 145.584 603.376 145.531 603.508 145.531C603.641 145.53 603.769 145.583 603.863 145.676C603.957 145.77 604.01 145.897 604.01 146.03C604.01 146.163 603.958 146.29 603.864 146.384C602.079 148.177 600.594 150.334 599.45 152.797C599.41 152.884 599.346 152.957 599.266 153.009C599.185 153.06 599.092 153.087 598.996 153.087ZM633.004 146.277C632.915 146.277 632.828 146.253 632.752 146.208C630.276 144.763 627.88 143.61 625.63 142.782C625.508 142.734 625.41 142.641 625.357 142.521C625.303 142.402 625.299 142.266 625.344 142.144C625.389 142.021 625.481 141.921 625.599 141.865C625.717 141.809 625.852 141.801 625.976 141.844C628.281 142.692 630.73 143.87 633.256 145.345C633.351 145.4 633.425 145.485 633.467 145.587C633.509 145.689 633.516 145.801 633.487 145.907C633.458 146.014 633.395 146.107 633.308 146.174C633.221 146.241 633.114 146.277 633.004 146.277ZM610.158 142.2C610.041 142.2 609.928 142.158 609.838 142.083C609.748 142.008 609.688 141.904 609.667 141.789C609.646 141.674 609.666 141.555 609.724 141.453C609.782 141.351 609.874 141.273 609.983 141.232C610.133 141.176 610.285 141.122 610.437 141.072C612.833 140.258 615.43 139.932 618.051 140.088C618.327 140.105 618.537 140.342 618.52 140.617C618.503 140.892 618.286 141.103 617.99 141.087C615.508 140.936 613.034 141.245 610.758 142.018C610.615 142.067 610.473 142.116 610.332 142.169C610.276 142.189 610.217 142.2 610.158 142.2ZM647.562 139.974C647.49 139.974 647.419 139.959 647.354 139.929C647.288 139.899 647.23 139.855 647.183 139.801C647.136 139.746 647.101 139.682 647.081 139.613C647.061 139.544 647.056 139.471 647.067 139.4C647.496 136.552 648.067 133.978 648.815 131.53C648.854 131.403 648.941 131.297 649.058 131.234C649.176 131.172 649.313 131.159 649.44 131.197C649.566 131.236 649.673 131.324 649.735 131.441C649.798 131.558 649.811 131.695 649.772 131.822C649.038 134.222 648.477 136.75 648.055 139.549C648.037 139.667 647.978 139.775 647.887 139.853C647.797 139.931 647.681 139.974 647.562 139.974ZM652.316 124.784C652.23 124.783 652.146 124.761 652.072 124.718C651.997 124.676 651.935 124.615 651.89 124.542C651.846 124.469 651.821 124.385 651.818 124.3C651.815 124.214 651.834 124.129 651.873 124.053C653.134 121.67 654.592 119.396 656.232 117.256C656.271 117.202 656.321 117.156 656.378 117.121C656.435 117.086 656.498 117.063 656.564 117.054C656.63 117.044 656.698 117.047 656.762 117.064C656.827 117.081 656.888 117.11 656.941 117.151C656.994 117.191 657.039 117.242 657.072 117.3C657.105 117.358 657.126 117.422 657.134 117.488C657.142 117.554 657.137 117.622 657.118 117.686C657.1 117.75 657.069 117.81 657.027 117.862C655.422 119.958 653.994 122.184 652.758 124.517C652.716 124.598 652.652 124.666 652.575 124.713C652.497 124.76 652.407 124.784 652.316 124.784ZM661.896 112.046C661.797 112.046 661.701 112.017 661.619 111.962C661.537 111.907 661.473 111.829 661.435 111.738C661.397 111.647 661.387 111.547 661.405 111.45C661.424 111.353 661.472 111.264 661.541 111.194C663.437 109.294 665.425 107.488 667.497 105.782C667.599 105.698 667.731 105.657 667.863 105.67C667.995 105.682 668.117 105.747 668.201 105.849C668.286 105.951 668.326 106.083 668.313 106.215C668.301 106.347 668.236 106.469 668.134 106.553C666.087 108.238 664.124 110.022 662.25 111.898C662.204 111.945 662.149 111.982 662.088 112.008C662.027 112.033 661.962 112.046 661.896 112.046ZM736.403 102.159C736.27 102.162 736.142 102.112 736.046 102.02C735.95 101.929 735.895 101.803 735.892 101.67C735.889 101.537 735.939 101.409 736.031 101.313C736.122 101.217 736.248 101.162 736.381 101.159C736.801 101.141 737.221 101.116 737.641 101.084C737.772 101.079 737.9 101.123 737.999 101.209C738.099 101.294 738.162 101.414 738.177 101.544C738.187 101.676 738.145 101.807 738.058 101.908C737.972 102.008 737.849 102.071 737.717 102.081C737.287 102.114 736.856 102.14 736.424 102.158L736.403 102.159ZM674.226 101.888C674.118 101.888 674.013 101.853 673.927 101.789C673.841 101.724 673.777 101.634 673.747 101.53C673.716 101.427 673.719 101.317 673.757 101.215C673.794 101.114 673.863 101.028 673.953 100.969C676.412 99.366 678.748 98.129 681.097 97.186C681.158 97.1615 681.223 97.1492 681.289 97.1499C681.355 97.1506 681.419 97.1642 681.48 97.19C681.54 97.2158 681.595 97.2532 681.641 97.3001C681.687 97.347 681.723 97.4025 681.748 97.4635C681.772 97.5244 681.784 97.5896 681.784 97.6552C681.783 97.7209 681.769 97.7858 681.744 97.8462C681.718 97.9066 681.68 97.9613 681.633 98.0073C681.587 98.0532 681.531 98.0895 681.47 98.114C679.183 99.032 676.903 100.24 674.5 101.807C674.418 101.86 674.323 101.888 674.226 101.888ZM728.42 101.814C728.4 101.814 728.38 101.813 728.36 101.81C725.99 101.53 723.47 101.102 720.432 100.465C720.366 100.454 720.302 100.429 720.246 100.393C720.189 100.357 720.14 100.309 720.102 100.254C720.065 100.198 720.038 100.135 720.025 100.069C720.012 100.003 720.012 99.9353 720.026 99.8694C720.04 99.8036 720.067 99.7412 720.106 99.686C720.144 99.6308 720.193 99.584 720.25 99.5482C720.307 99.5125 720.371 99.4887 720.437 99.4782C720.504 99.4677 720.572 99.4706 720.637 99.487C723.646 100.117 726.137 100.54 728.477 100.817C728.604 100.831 728.721 100.893 728.804 100.991C728.887 101.089 728.929 101.215 728.922 101.343C728.914 101.47 728.858 101.591 728.765 101.678C728.672 101.766 728.548 101.815 728.42 101.814ZM712.73 98.707C712.692 98.7071 712.655 98.7027 712.618 98.694C710.248 98.142 707.496 97.512 704.82 97.011C704.755 96.999 704.694 96.9743 704.639 96.9384C704.584 96.9026 704.536 96.8562 704.499 96.8019C704.462 96.7477 704.436 96.6867 704.422 96.6223C704.409 96.558 704.408 96.4916 704.42 96.427C704.446 96.2975 704.521 96.1833 704.63 96.1086C704.739 96.0339 704.873 96.0046 705.003 96.027C707.701 96.532 710.465 97.166 712.844 97.72C712.964 97.7478 713.069 97.8186 713.139 97.9189C713.21 98.0191 713.241 98.1419 713.228 98.2639C713.214 98.3858 713.155 98.4983 713.064 98.58C712.972 98.6617 712.853 98.7069 712.73 98.707ZM689.004 96.143C688.878 96.1412 688.758 96.0919 688.666 96.0051C688.575 95.9183 688.52 95.8003 688.512 95.6746C688.504 95.549 688.544 95.4249 688.624 95.3273C688.703 95.2297 688.816 95.1656 688.941 95.148C691.447 94.822 694.122 94.758 697.021 94.955C697.087 94.9593 697.151 94.9765 697.21 95.0058C697.269 95.035 697.322 95.0755 697.365 95.1252C697.408 95.1748 697.441 95.2325 697.462 95.2949C697.483 95.3573 697.492 95.4233 697.487 95.489C697.474 95.6196 697.411 95.7403 697.312 95.8265C697.213 95.9127 697.085 95.958 696.954 95.953C694.122 95.759 691.51 95.822 689.07 96.139C689.048 96.1418 689.026 96.1431 689.004 96.143Z" fill="#E28127"/>
<path d="M734.783 108.564L766.676 75L695.156 84.12L734.783 108.564Z" fill="#E79A40"/>
<path d="M762.753 76.1329L708.546 92.3789L711.33 112.016L713.856 95.6539L762.753 76.1329Z" fill="#FFCD92"/>
<path d="M711.33 112.016L725.295 102.71L713.855 95.6539L711.33 112.016Z" fill="#FFCD92"/>
<path d="M365.292 165.361C339.581 200.571 293.438 219.57 250.472 212.623C240.432 210.986 229.521 207.179 224.954 198.013C219.662 187.355 225.812 173.994 235.091 166.525C244.322 158.996 256.091 155.48 266.76 150.266C270.372 148.496 273.9 146.496 277.296 144.313C278.83 143.319 280.34 142.301 281.826 141.222C285.475 138.603 288.955 135.753 292.254 132.686C298.259 127.097 303.623 120.816 308.142 114.002C312.782 106.994 314.896 101.478 321.928 96.4338C321.964 96.3974 322.001 96.3732 322.037 96.3489C325.565 93.8392 329.335 91.4991 333.31 89.7168C334.989 88.9772 336.705 88.3225 338.469 87.8133C341.876 86.7948 345.429 86.2735 349.09 86.4675C365.486 87.3283 378.366 103.102 380.238 119.446C382.063 135.85 374.995 152.097 365.292 165.361ZM754.179 240.146C749.515 242.802 743.74 242.123 738.508 241.068C700.919 233.49 667.185 208.514 648.82 174.747C644.591 166.987 641.087 158.161 642.863 149.528C644.313 142.484 649.061 136.603 654.547 132.02C659.489 127.825 667.04 122.139 673.722 121.314C680.162 120.49 686.167 126.14 691.314 129.414C696.413 132.699 701.463 136.07 706.393 139.598C707.359 140.277 708.302 140.968 709.256 141.671C713.244 144.593 717.146 147.649 720.916 150.85C724.057 153.505 727.114 156.281 730.05 159.179C737.964 166.951 745.081 175.802 750.578 185.441C753.092 189.842 755.266 194.401 757.043 199.105C757.465 200.245 757.876 201.397 758.251 202.548C759.858 207.423 761.03 212.442 761.67 217.583C762.733 225.973 761.477 236.048 754.179 240.146ZM632.5 143.971C631.226 123.491 628.855 103.448 618.457 86.499C605.624 65.5782 582.378 54.0418 558.25 52C557.063 74.0847 558.011 93.9519 567.287 111.227C575.301 126.159 589.794 137.809 606.072 142.394C614.574 144.786 623.675 145.287 632.5 143.971Z" fill="white" fill-opacity="0.16"/>
<path d="M785.186 378.728C784.339 380.86 783.421 382.963 782.434 385.034C779.578 390.979 776.137 396.625 772.163 401.891C766.116 409.909 758.887 417.011 750.897 422.666C750.668 422.835 750.438 422.992 750.209 423.148C745.019 426.766 739.6 429.901 734 432.626C731.995 433.611 729.962 434.539 727.905 435.411C710.235 442.971 691.009 446.842 671.578 449H245.241C248.065 445.937 250.624 442.646 252.893 439.137C261.438 425.91 264.13 411.681 260.279 400.082C256.067 387.361 245.072 378.921 233.823 371.71L231.289 370.107C222.032 364.21 212.449 358.121 207.126 349.114C201.417 339.444 201.079 327.266 200.754 315.485C200.693 313.194 200.633 310.915 200.524 308.649C200.162 300.534 198.991 293.444 197 287.427C199.004 285.428 201.141 283.567 203.397 281.856C233.015 259.296 274.063 264.349 309.064 252.592C340.709 241.982 366.393 217.818 387.55 191.448C408.78 165.005 426.498 135.753 448.476 110.046C470.467 84.2912 497.888 61.7433 530.33 54.2676C537.081 52.7335 543.985 51.973 550.908 52.0007C549.677 75.1033 550.703 96.0354 560.817 114.797C569.918 131.63 585.704 144.266 604.146 149.439C610.355 151.171 616.77 152.052 623.216 152.055C626.499 152.055 629.769 151.826 632.992 151.38C634.307 175.375 635.261 199.527 647.089 219.603C662.163 245.213 691.166 257.669 717.96 269.328C744.79 280.988 773.406 295.518 785.5 322.816C793.441 340.638 792.295 360.569 785.186 378.728Z" fill="white" fill-opacity="0.16"/>
<path d="M739.545 359.023C717.125 364.077 702.979 386.479 708.019 408.966C710.677 420.836 718.159 430.39 727.914 436C729.959 435.131 731.979 434.203 733.988 433.213C723.788 428.69 715.765 419.545 713.131 407.82C708.729 388.156 721.094 368.565 740.7 364.15C758.153 360.217 775.546 369.627 782.258 385.599C783.241 383.527 784.156 381.422 785 379.29C776.207 363.631 757.9 354.885 739.545 359.023Z" fill="white" fill-opacity="0.3"/>
<path d="M771.85 402.157C765.82 410.162 758.611 417.251 750.644 422.896C739.054 423.992 728.199 416.312 725.575 404.661C722.735 391.998 730.69 379.42 743.351 376.58C756.012 373.727 768.576 381.683 771.428 394.346C772.018 396.982 772.138 399.618 771.85 402.157Z" fill="white" fill-opacity="0.3"/>
<path d="M187.553 398.837C199.515 419.055 217.123 434.553 237.368 446C240.644 442.714 243.569 439.098 246.096 435.21C253.384 423.974 255.783 412.143 252.661 402.752C249.18 392.285 239.381 384.889 229.321 378.46L226.822 376.873C216.836 370.543 206.516 364.002 200.298 353.509C193.633 342.249 193.272 329.154 192.912 316.493C192.849 314.262 192.787 312.033 192.7 309.816C192.464 304.303 191.817 299.361 190.76 295C169 322.973 168.961 367.298 187.553 398.837Z" fill="white" fill-opacity="0.16"/>
<path d="M756.784 198.96C752.27 202.706 746.938 205.327 741.223 206.607C721.029 211.164 700.909 198.373 696.374 178.081C693.213 163.959 698.429 149.873 708.702 141.089C707.741 140.38 706.793 139.684 705.82 139C695.024 148.627 689.614 163.714 693.006 178.851C697.954 201 719.923 214.976 741.976 209.991C747.806 208.685 753.277 206.103 758 202.429C757.623 201.269 757.21 200.108 756.784 198.96Z" fill="white" fill-opacity="0.35"/>
<path d="M751 185.115C747.739 188.799 743.392 191.358 738.582 192.426C725.955 195.257 713.413 187.343 710.574 174.752C708.365 164.93 712.697 155.169 720.696 150C723.906 152.695 727.029 155.514 730.028 158.456C738.113 166.345 745.384 175.33 751 185.115Z" fill="white" fill-opacity="0.35"/>
<path d="M229.69 324.936C251.715 331.809 275.226 319.488 282.099 297.464C285.729 285.839 282.279 269.9 276.605 260.14C274.392 259.866 272.205 260.894 269.963 260.743C276.567 269.785 280.659 284.404 277.081 295.891C271.066 315.148 250.509 325.925 231.253 319.911C214.109 314.559 203.696 297.671 205.855 280.455C203.963 281.757 202.114 283.123 200.312 284.548C200.12 302.536 211.66 319.309 229.69 324.936Z" fill="white" fill-opacity="0.3"/>
<path d="M223.196 270.973C232.451 267.043 242.272 264.5 252.028 263.592C262.648 268.455 268.229 280.574 264.664 292.014C260.78 304.441 247.558 311.378 235.131 307.495C222.698 303.621 215.77 290.404 219.644 277.971C220.454 275.385 221.671 273.034 223.196 270.973Z" fill="white" fill-opacity="0.3"/>
<path d="M555.36 96H433.64C419.48 96 408 107.51 408 121.709V369.291C408 383.49 419.48 395 433.64 395H555.36C569.52 395 581 383.49 581 369.291V121.709C581 107.51 569.52 96 555.36 96Z" fill="url(#paint4_linear_49_199)"/>
<path d="M732.585 201H640.415C629.693 201 621 209.816 621 220.69V410.31C621 421.184 629.693 430 640.415 430H732.585C743.307 430 752 421.184 752 410.31V220.69C752 209.816 743.307 201 732.585 201Z" fill="url(#paint5_linear_49_199)"/>
<path d="M356.585 201H264.415C253.693 201 245 209.816 245 220.69V410.31C245 421.184 253.693 430 264.415 430H356.585C367.307 430 376 421.184 376 410.31V220.69C376 209.816 367.307 201 356.585 201Z" fill="url(#paint6_linear_49_199)"/>
<path d="M556.053 108H432.947C423.587 108 416 115.635 416 125.054V369.946C416 379.365 423.587 387 432.947 387H556.053C565.413 387 573 379.365 573 369.946V125.054C573 115.635 565.413 108 556.053 108Z" fill="white"/>
<path d="M733.155 211H639.845C632.751 211 627 216.829 627 224.02V410.98C627 418.171 632.751 424 639.845 424H733.155C740.249 424 746 418.171 746 410.98V224.02C746 216.829 740.249 211 733.155 211Z" fill="white"/>
<path d="M357.155 211H263.845C256.751 211 251 216.829 251 224.02V410.98C251 418.171 256.751 424 263.845 424H357.155C364.249 424 370 418.171 370 410.98V224.02C370 216.829 364.249 211 357.155 211Z" fill="white"/>
<path d="M529.006 102H456.994C453.131 102 450 105.133 450 108.998V109.002C450 112.867 453.131 116 456.994 116H529.006C532.869 116 536 112.867 536 109.002V108.998C536 105.133 532.869 102 529.006 102Z" fill="#E1E6FB"/>
<path d="M529.006 102H456.994C453.131 102 450 105.133 450 108.998V109.002C450 112.867 453.131 116 456.994 116H529.006C532.869 116 536 112.867 536 109.002V108.998C536 105.133 532.869 102 529.006 102Z" fill="url(#paint7_linear_49_199)"/>
<path d="M712.633 206H657.367C654.403 206 652 208.238 652 210.998V211.002C652 213.762 654.403 216 657.367 216H712.633C715.597 216 718 213.762 718 211.002V210.998C718 208.238 715.597 206 712.633 206Z" fill="#E1E6FB"/>
<path d="M712.633 206H657.367C654.403 206 652 208.238 652 210.998V211.002C652 213.762 654.403 216 657.367 216H712.633C715.597 216 718 213.762 718 211.002V210.998C718 208.238 715.597 206 712.633 206Z" fill="url(#paint8_linear_49_199)"/>
<path d="M336.633 206H281.367C278.403 206 276 208.238 276 210.998V211.002C276 213.762 278.403 216 281.367 216H336.633C339.597 216 342 213.762 342 211.002V210.998C342 208.238 339.597 206 336.633 206Z" fill="#E1E6FB"/>
<path d="M336.633 206H281.367C278.403 206 276 208.238 276 210.998V211.002C276 213.762 278.403 216 281.367 216H336.633C339.597 216 342 213.762 342 211.002V210.998C342 208.238 339.597 206 336.633 206Z" fill="url(#paint9_linear_49_199)"/>
<path d="M510.35 103H477.65C476.186 103 475 104.342 475 105.997V106.003C475 107.658 476.186 109 477.65 109H510.35C511.814 109 513 107.658 513 106.003V105.997C513 104.342 511.814 103 510.35 103Z" fill="white"/>
<path d="M698.978 207H674.022C672.905 207 672 208.118 672 209.498V209.502C672 210.882 672.905 212 674.022 212H698.978C700.095 212 701 210.882 701 209.502V209.498C701 208.118 700.095 207 698.978 207Z" fill="white"/>
<path d="M322.978 207H298.022C296.905 207 296 208.118 296 209.498V209.502C296 210.882 296.905 212 298.022 212H322.978C324.095 212 325 210.882 325 209.502V209.498C325 208.118 324.095 207 322.978 207Z" fill="white"/>
<rect x="349.167" y="218.088" width="15.8326" height="15.8326" rx="2.37489" fill="url(#paint10_linear_49_199)" fill-opacity="0.48"/>
<rect x="257.338" y="254.503" width="47.4978" height="47.4978" rx="2.37489" fill="url(#paint11_linear_49_199)" fill-opacity="0.48"/>
<rect x="257.338" y="328.125" width="47.4978" height="47.4978" rx="2.37489" fill="url(#paint12_linear_49_199)" fill-opacity="0.48"/>
<path d="M257.338 404.121C257.338 402.81 258.402 401.746 259.713 401.746H302.461C303.773 401.746 304.836 402.81 304.836 404.121V423.912H257.338V404.121Z" fill="url(#paint13_linear_49_199)" fill-opacity="0.48"/>
<rect x="315.127" y="254.503" width="47.4978" height="47.4978" rx="2.37489" fill="url(#paint14_linear_49_199)" fill-opacity="0.48"/>
<rect x="315.127" y="328.125" width="47.4978" height="47.4978" rx="2.37489" fill="url(#paint15_linear_49_199)" fill-opacity="0.48"/>
<path d="M315.127 404.121C315.127 402.81 316.191 401.746 317.502 401.746H360.25C361.562 401.746 362.625 402.81 362.625 404.121V423.912H315.127V404.121Z" fill="url(#paint16_linear_49_199)" fill-opacity="0.48"/>
<rect x="257.338" y="240.254" width="67.2886" height="4.74978" rx="2.37489" fill="url(#paint17_linear_49_199)" fill-opacity="0.48"/>
<rect x="257.338" y="307.542" width="41.1648" height="3.16652" rx="1.58326" fill="url(#paint18_linear_49_199)" fill-opacity="0.48"/>
<rect x="257.338" y="381.164" width="41.1648" height="3.16652" rx="1.58326" fill="url(#paint19_linear_49_199)" fill-opacity="0.48"/>
<rect x="315.127" y="307.542" width="41.1648" height="3.16652" rx="1.58326" fill="url(#paint20_linear_49_199)" fill-opacity="0.48"/>
<rect x="315.127" y="381.164" width="41.1648" height="3.16652" rx="1.58326" fill="url(#paint21_linear_49_199)" fill-opacity="0.48"/>
<rect x="257.338" y="313.875" width="23.7489" height="3.16652" rx="1.58326" fill="url(#paint22_linear_49_199)" fill-opacity="0.48"/>
<rect x="257.338" y="387.497" width="23.7489" height="3.16652" rx="1.58326" fill="url(#paint23_linear_49_199)" fill-opacity="0.48"/>
<rect x="315.127" y="313.875" width="23.7489" height="3.16652" rx="1.58326" fill="url(#paint24_linear_49_199)" fill-opacity="0.48"/>
<rect x="315.127" y="387.497" width="23.7489" height="3.16652" rx="1.58326" fill="url(#paint25_linear_49_199)" fill-opacity="0.48"/>
<path d="M498.916 251.507C529.955 249.823 553.75 223.295 552.066 192.257C550.381 161.219 523.853 137.423 492.815 139.108C461.777 140.793 437.981 167.32 439.666 198.358C441.351 229.396 467.878 253.192 498.916 251.507Z" fill="url(#paint26_linear_49_199)" fill-opacity="0.28"/>
<path d="M436.755 155.134C436.755 155.513 436.566 155.703 436.187 155.703C433.913 155.703 432.018 157.598 432.018 159.872C432.018 160.251 431.828 160.441 431.449 160.441C431.07 160.441 430.881 160.251 430.881 159.872C430.881 158.735 430.502 157.598 429.554 156.84C428.796 156.082 427.659 155.513 426.522 155.513C426.143 155.513 425.953 155.324 425.953 154.945C425.953 154.566 426.143 154.376 426.522 154.376C427.659 154.376 428.796 153.997 429.554 153.05C430.312 152.292 430.881 151.155 430.881 150.018C430.881 149.639 431.07 149.449 431.449 149.449C431.828 149.449 432.018 149.639 432.018 150.018C432.018 151.155 432.397 152.292 433.344 153.05C434.102 153.808 435.239 154.376 436.376 154.376C436.376 154.566 436.755 154.755 436.755 155.134Z" fill="url(#paint27_linear_49_199)"/>
<path d="M533.973 131.067L527.909 135.236C527.151 135.804 526.203 135.046 526.203 134.288L527.53 125.002C527.719 124.055 528.667 123.865 529.425 124.434L534.163 129.551C534.542 129.93 534.542 130.688 533.973 131.067Z" fill="url(#paint28_linear_49_199)"/>
<path d="M529.046 190.004C528.856 190.762 528.098 191.331 527.34 191.52C526.582 191.71 525.824 191.71 524.877 191.899C521.845 192.847 520.897 196.447 518.623 198.721C516.349 200.996 512.938 201.564 509.906 201.754C506.684 201.943 503.462 201.754 500.62 203.08C497.777 204.407 495.313 207.439 496.261 210.471C496.64 211.798 497.588 212.935 497.967 214.261C498.346 215.588 497.587 217.483 496.071 217.293C494.934 217.293 494.366 215.967 494.176 215.019C493.987 213.882 493.797 212.745 493.039 211.987C491.902 210.661 489.628 211.229 488.302 212.366C486.975 213.503 486.217 215.209 484.89 216.156C483.564 217.293 482.048 217.672 480.342 218.241C478.068 218.999 475.604 219.757 473.33 220.515C472.004 220.894 470.488 221.273 469.161 220.894C467.266 220.325 466.508 218.051 467.266 216.346C467.266 216.535 467.456 216.725 467.456 216.725C468.403 217.862 470.298 217.104 471.625 216.346C488.87 205.923 507.631 195.689 525.824 186.972C525.824 186.593 525.824 186.403 525.635 186.024C526.203 186.214 526.961 186.593 527.53 186.972C528.477 187.919 529.425 189.056 529.046 190.004Z" fill="url(#paint29_linear_49_199)"/>
<path d="M525.824 187.351C521.466 189.436 517.107 191.52 512.938 193.794C508.39 196.068 503.841 198.532 499.293 200.996C489.818 206.112 480.721 211.419 471.814 216.725C470.488 217.483 468.593 218.241 467.645 217.104C467.077 216.346 467.266 215.209 467.456 214.261C468.593 209.334 469.919 204.596 471.435 199.859C474.088 191.331 477.31 183.182 481.1 175.033C482.048 172.948 482.995 171.053 484.132 168.969C484.89 167.453 485.459 165.936 486.975 165.178C490.576 163.283 495.124 163.473 498.914 164.42C503.083 165.557 506.873 167.832 510.664 170.295C514.075 172.38 517.296 174.654 519.95 177.497C522.224 180.339 525.445 183.371 525.824 187.351Z" fill="url(#paint30_linear_49_199)"/>
<path d="M512.748 193.794C508.2 196.068 503.652 198.532 499.104 200.996C497.967 201.185 496.64 200.806 495.503 200.427C494.555 200.048 493.797 199.29 493.229 198.532C492.66 197.584 492.66 196.637 493.039 195.689C493.418 195.121 493.797 193.984 494.366 193.415C496.45 190.952 498.535 190.004 501.378 188.678C503.462 187.73 505.736 187.161 508.011 187.73C510.285 188.109 512.369 189.815 512.748 192.089C512.938 192.468 512.938 193.036 512.748 193.794Z" fill="url(#paint31_linear_49_199)"/>
<path d="M512.748 193.794C508.2 196.068 503.652 198.532 499.104 200.996C497.967 201.185 496.64 200.806 495.503 200.427C494.556 200.048 493.798 199.29 493.229 198.532C493.608 198.721 493.798 198.911 494.177 199.1C495.314 199.669 496.451 199.859 497.777 199.669C502.325 197.205 506.874 194.742 511.422 192.468C511.611 191.899 511.611 191.141 511.611 190.573C511.422 190.004 511.232 189.436 510.853 188.867C511.801 189.625 512.559 190.573 512.748 191.899C512.938 192.468 512.938 193.036 512.748 193.794Z" fill="#E90F4E"/>
<path d="M509.717 172.38C502.326 167.832 493.798 165.557 485.27 165.557C484.322 163.662 484.891 161.009 486.407 159.493C487.923 157.977 490.197 157.219 492.471 157.03C494.745 157.03 496.83 157.598 498.915 158.167C511.991 162.146 523.93 170.106 532.647 180.718C533.595 182.045 534.732 183.182 535.3 184.698C535.869 186.214 536.058 187.92 535.49 189.436C534.732 191.141 533.026 192.278 531.321 192.468C529.804 192.657 527.53 192.278 526.772 190.762C526.014 189.246 525.256 187.54 524.119 186.024C521.656 182.424 518.813 179.392 515.591 176.549C513.696 175.033 511.801 173.706 509.717 172.38Z" fill="url(#paint32_linear_49_199)"/>
<path d="M535.489 189.436C535.11 190.383 534.352 191.141 533.405 191.71C533.784 190.383 533.594 188.867 533.026 187.54C532.457 186.024 531.51 184.698 530.373 183.561C521.655 172.948 509.716 164.989 496.64 161.009C494.556 160.441 492.281 159.872 490.197 159.872C488.491 159.872 486.596 160.441 485.08 161.388C485.459 160.63 485.838 160.062 486.407 159.493C487.923 157.977 490.197 157.219 492.471 157.03C494.745 157.03 496.83 157.598 498.914 158.167C511.99 162.146 523.929 170.106 532.647 180.718C533.594 182.045 534.731 183.182 535.3 184.698C536.058 186.214 536.248 187.92 535.489 189.436Z" fill="#E90F4E"/>
<path d="M504.221 173.896C505.358 175.791 503.652 178.823 500.431 180.908C497.209 182.803 493.608 182.992 492.471 181.097C491.334 179.202 493.04 176.17 496.261 174.085C499.483 172.19 503.084 172.001 504.221 173.896Z" fill="#F45170"/>
<path d="M500.43 180.908C497.209 182.803 493.608 182.992 492.471 181.097C492.092 180.339 492.092 179.581 492.281 178.633C492.281 178.823 492.471 179.013 492.471 179.013C493.608 180.908 497.209 180.718 500.43 178.823C502.515 177.496 503.842 175.791 504.41 174.275C504.979 176.17 503.463 179.013 500.43 180.908Z" fill="#E90F4E"/>
<path d="M479.774 173.706C480.153 172.948 480.721 172.19 481.479 171.811C482.616 171.053 484.132 171.243 485.269 172.19C486.407 172.948 486.975 174.275 487.165 175.791C487.354 177.117 486.975 178.444 486.596 179.771C485.648 182.424 483.753 184.887 481.479 186.593C480.721 187.161 480.153 187.54 479.205 187.73C478.447 187.919 477.5 187.919 476.742 187.54C474.846 186.593 475.605 184.319 475.984 182.803C476.552 180.718 477.121 178.823 478.068 176.928C478.637 175.601 479.205 174.654 479.774 173.706Z" fill="url(#paint33_linear_49_199)"/>
<path d="M486.596 179.581C485.649 182.234 483.753 184.698 481.479 186.403C480.721 186.972 480.153 187.351 479.205 187.54C478.447 187.73 477.5 187.73 476.742 187.351C476.552 187.161 476.363 187.161 476.173 186.972C476.552 186.972 476.931 186.972 477.31 186.782C478.068 186.593 478.826 186.214 479.584 185.645C481.858 183.94 483.753 181.476 484.701 178.823C485.08 177.496 485.459 176.17 485.27 174.843C485.08 173.517 484.511 172.19 483.374 171.243C483.943 171.243 484.701 171.622 485.08 172.001C486.217 172.759 486.786 174.085 486.975 175.601C487.354 176.928 486.975 178.255 486.596 179.581Z" fill="#E90F4E"/>
<path d="M471.056 199.669C472.572 198.153 474.657 197.205 476.931 197.205C477.689 197.205 478.447 197.395 479.205 197.584C479.963 197.963 480.532 198.532 480.721 199.29C481.1 200.238 480.721 201.185 480.342 202.133C479.774 203.838 478.826 205.354 477.499 206.681C476.173 208.007 474.467 208.765 472.762 208.576C471.246 208.576 469.54 207.628 468.782 206.302C468.403 205.733 468.782 205.165 468.782 204.596C468.971 203.649 469.161 202.891 469.54 202.133C469.919 201.185 470.298 200.427 471.056 199.669Z" fill="url(#paint34_linear_49_199)"/>
<path d="M480.342 202.133C479.774 203.838 478.826 205.354 477.5 206.681C476.173 207.818 474.467 208.765 472.762 208.576C471.814 208.576 470.677 208.197 469.919 207.628C470.298 207.628 470.488 207.818 470.867 207.818C472.572 207.818 474.467 207.06 475.604 205.923C476.931 204.786 477.879 203.08 478.447 201.375C478.826 200.427 479.016 199.479 478.826 198.532C478.637 198.153 478.447 197.584 478.068 197.395C478.447 197.395 478.826 197.584 479.205 197.774C479.963 198.153 480.532 198.721 480.721 199.479C481.1 200.238 480.721 201.375 480.342 202.133Z" fill="#E90F4E"/>
<path d="M490.386 195.879C490.386 196.258 489.818 196.637 489.249 196.637C488.681 196.637 488.112 196.258 488.112 195.879C488.112 195.5 488.681 195.121 489.249 195.121C489.818 195.121 490.386 195.31 490.386 195.879ZM485.838 196.826C485.838 197.205 485.459 197.395 484.89 197.395C484.322 197.395 483.943 197.205 483.943 196.826C483.943 196.447 484.322 196.258 484.89 196.258C485.459 196.258 485.838 196.447 485.838 196.826ZM494.555 186.214C494.555 186.593 493.987 186.972 493.229 186.972C492.471 186.972 491.902 186.593 491.902 186.214C491.902 185.835 492.471 185.456 493.229 185.456C493.987 185.456 494.555 185.835 494.555 186.214ZM494.555 173.327C494.555 173.706 493.987 174.085 493.229 174.085C492.471 174.085 491.902 173.706 491.902 173.327C491.902 172.948 492.471 172.569 493.229 172.569C493.987 172.569 494.555 172.948 494.555 173.327ZM509.337 182.045C509.337 182.424 508.769 182.613 508.2 182.613C507.632 182.613 507.063 182.234 507.063 182.045C507.063 181.666 507.632 181.476 508.2 181.476C508.769 181.476 509.337 181.666 509.337 182.045ZM504.22 184.129C504.22 184.319 503.841 184.508 503.462 184.508C503.083 184.508 502.704 184.319 502.704 184.129C502.704 183.94 503.083 183.75 503.462 183.75C503.841 183.75 504.22 183.94 504.22 184.129ZM482.616 192.847C482.616 193.226 482.048 193.605 481.29 193.605C480.532 193.605 479.963 193.226 479.963 192.847C479.963 192.468 480.532 192.089 481.29 192.089C481.858 191.899 482.616 192.278 482.616 192.847ZM490.197 188.488C490.197 188.867 489.628 189.246 488.87 189.246C488.112 189.246 487.544 188.867 487.544 188.488C487.544 188.109 488.112 187.73 488.87 187.73C489.628 187.73 490.197 187.919 490.197 188.488ZM488.87 193.036C488.87 193.415 488.491 193.605 487.923 193.605C487.354 193.605 486.975 193.415 486.975 193.036C486.975 192.657 487.354 192.468 487.923 192.468C488.302 192.468 488.87 192.847 488.87 193.036ZM495.124 188.867C495.124 189.246 494.745 189.436 494.176 189.436C493.608 189.436 493.229 189.246 493.229 188.867C493.229 188.488 493.608 188.299 494.176 188.299C494.745 188.299 495.124 188.488 495.124 188.867ZM514.075 184.508C514.075 184.698 513.696 184.887 513.317 184.887C512.938 184.887 512.559 184.698 512.559 184.508C512.559 184.319 512.938 184.129 513.317 184.129C513.696 183.94 514.075 184.129 514.075 184.508ZM487.544 204.407C487.544 204.786 487.165 204.975 486.596 204.975C486.028 204.975 485.649 204.786 485.649 204.407C485.649 204.028 486.028 203.838 486.596 203.838C486.975 203.838 487.544 204.028 487.544 204.407ZM475.415 210.661C475.415 211.04 475.036 211.229 474.467 211.229C473.899 211.229 473.52 211.04 473.52 210.661C473.52 210.282 473.899 210.092 474.467 210.092C474.847 210.092 475.415 210.471 475.415 210.661ZM477.689 211.987C477.689 212.177 477.31 212.366 477.121 212.366C476.742 212.366 476.552 212.177 476.552 211.987C476.552 211.798 476.931 211.608 477.121 211.608C477.31 211.608 477.689 211.798 477.689 211.987ZM473.52 213.124C473.52 213.503 472.951 213.882 472.383 213.882C471.814 213.882 471.246 213.503 471.246 213.124C471.246 212.745 471.814 212.366 472.383 212.366C472.951 212.366 473.52 212.745 473.52 213.124Z" fill="#EF9645"/>
<path d="M518.623 229.232C518.623 230.37 508.011 231.507 494.934 231.507C481.858 231.507 471.246 230.559 471.246 229.232C471.246 228.095 481.858 226.958 494.934 226.958C508.011 227.148 518.623 228.095 518.623 229.232Z" fill="#D0CEF2"/>
<path d="M461.771 236.244C456.654 235.676 451.537 235.865 446.42 236.434C443.957 236.623 441.304 237.002 438.84 237.381C436.377 237.761 433.723 238.329 431.26 238.708C433.723 237.95 436.187 237.381 438.84 237.002C441.304 236.623 443.957 236.244 446.61 236.055C451.348 235.676 456.654 235.676 461.771 236.244Z" fill="url(#paint35_linear_49_199)"/>
<path d="M551.787 240.792L556.714 247.046C557.093 247.425 556.904 247.994 556.525 248.373L553.682 250.647C553.303 251.026 552.735 250.836 552.356 250.457L547.429 244.204C547.049 243.825 547.239 243.256 547.618 242.877L550.461 240.603C550.84 240.224 551.408 240.224 551.787 240.792Z" fill="url(#paint36_linear_49_199)"/>
<path d="M566 303.178V368.369C566 370.265 565.053 371.97 563.726 372.918C562.778 373.676 561.641 374.055 560.315 374.055H428.985C425.763 374.055 423.3 371.402 423.3 368.369V303.178C423.3 299.957 425.953 297.493 428.985 297.493H560.315C563.347 297.304 566 299.957 566 303.178Z" fill="#E4E9FF"/>
<path d="M447.179 317.202C447.179 317.96 443.578 318.718 439.219 318.718C434.86 318.718 431.26 317.96 431.26 317.202C431.26 316.444 434.86 315.686 439.219 315.686C443.578 315.686 447.179 316.444 447.179 317.202ZM535.49 365.148C535.49 365.906 531.889 366.664 527.53 366.664C523.172 366.664 519.571 365.906 519.571 365.148C519.571 364.39 523.172 363.632 527.53 363.632C531.889 363.632 535.49 364.39 535.49 365.148Z" fill="#D0CEF2"/>
<path d="M486.785 297.304L423.3 349.987V345.628L481.479 297.304H486.785Z" fill="white"/>
<path d="M501.378 374.055H494.935L435.05 337.29L436.755 334.447L501.378 374.055Z" fill="white"/>
<path d="M563.726 372.918C562.779 373.676 561.641 374.055 560.315 374.055H559.178L462.718 314.738L464.423 311.896L563.726 372.918Z" fill="white"/>
<path d="M548.944 297.304L504.599 340.512L502.136 338.048L544.207 297.304H548.944Z" fill="white"/>
<path d="M466.319 353.209L444.715 374.055H439.977L463.855 350.745L466.319 353.209Z" fill="white"/>
<path d="M443.767 288.586C442.63 288.207 441.303 287.828 439.977 287.828C433.913 287.828 428.796 292.755 428.796 299.009C428.796 302.799 432.965 309.243 435.997 313.601C436.945 314.928 437.703 315.875 438.271 316.823C438.84 317.581 439.787 317.581 440.356 316.823C443.199 313.412 450.968 304.126 450.968 299.199C451.158 294.082 448.126 290.102 443.767 288.586ZM439.977 303.557C437.134 303.557 434.86 301.283 434.86 298.441C434.86 295.598 437.134 293.324 439.977 293.324C442.82 293.324 445.094 295.598 445.094 298.441C445.094 301.283 442.82 303.557 439.977 303.557Z" fill="url(#paint37_linear_49_199)"/>
<path d="M439.977 291.05C435.998 291.05 432.776 294.271 432.776 298.251C432.776 302.231 435.998 305.452 439.977 305.452C443.957 305.452 447.179 302.231 447.179 298.251C447.179 294.271 443.957 291.05 439.977 291.05ZM439.977 303.557C437.135 303.557 434.86 301.283 434.86 298.441C434.86 295.598 437.135 293.324 439.977 293.324C442.82 293.324 445.094 295.598 445.094 298.441C445.094 301.283 442.82 303.557 439.977 303.557Z" fill="#8A4852"/>
<path d="M532.836 329.331C531.32 328.762 529.614 328.383 528.098 328.383C520.328 328.383 514.264 334.637 514.264 342.217C514.264 346.955 519.381 354.914 523.361 360.41C524.498 361.926 525.445 363.442 526.393 364.39C526.961 365.337 528.288 365.337 529.046 364.39C532.647 360.221 542.311 348.471 542.311 342.217C541.932 336.342 538.142 331.226 532.836 329.331ZM527.909 348.092C524.308 348.092 521.466 345.249 521.466 341.649C521.466 338.048 524.308 335.205 527.909 335.205C531.51 335.205 534.352 338.048 534.352 341.649C534.352 345.249 531.51 348.092 527.909 348.092Z" fill="url(#paint38_linear_49_199)"/>
<path d="M527.909 332.552C522.982 332.552 519.002 336.532 519.002 341.649C519.002 346.576 522.982 350.556 527.909 350.556C532.836 350.556 537.005 346.576 537.005 341.649C537.005 336.722 532.836 332.552 527.909 332.552ZM527.909 348.092C524.308 348.092 521.466 345.249 521.466 341.649C521.466 338.048 524.308 335.205 527.909 335.205C531.51 335.205 534.352 338.048 534.352 341.649C534.352 345.249 531.51 348.092 527.909 348.092Z" fill="#43BE1C"/>
<path d="M465.488 314.093L465.291 314.417L466.099 314.911L466.297 314.587L465.488 314.093Z" fill="#DB2157"/>
<path d="M511.421 342.786L509.716 341.838L509.905 341.459L511.611 342.407L511.421 342.786ZM508.2 340.701L506.494 339.754L506.684 339.375L508.389 340.322L508.2 340.701ZM504.978 338.806L503.273 337.859L503.462 337.48L505.168 338.427L504.978 338.806ZM501.756 336.721L500.051 335.774L500.24 335.395L501.946 336.342L501.756 336.721ZM498.535 334.826L496.829 333.879L497.019 333.5L498.724 334.447L498.535 334.826ZM495.124 332.742L493.418 331.794L493.608 331.415L495.313 332.363L495.124 332.742ZM491.902 330.847L490.196 329.899L490.386 329.52L492.091 330.468L491.902 330.847ZM488.68 328.952L486.975 328.004L487.164 327.625L488.87 328.573L488.68 328.952ZM485.459 326.867L483.753 325.919L483.943 325.54L485.648 326.488L485.459 326.867ZM482.237 324.972L480.531 324.024L480.721 323.645L482.427 324.593L482.237 324.972ZM479.015 322.887L477.31 321.94L477.499 321.561L479.205 322.508L479.015 322.887ZM475.794 320.992L474.088 320.045L474.278 319.666L475.983 320.613L475.794 320.992ZM472.383 318.908L470.677 317.96L470.866 317.581L472.572 318.529L472.383 318.908ZM469.161 317.013L467.455 316.065L467.645 315.686L469.35 316.634L469.161 317.013Z" fill="#DB2157"/>
<path d="M513.212 343.451L513.014 343.774L513.822 344.269L514.02 343.946L513.212 343.451Z" fill="#DB2157"/>
<path d="M450.589 325.351L450.4 324.972L451.916 323.835L452.105 324.214L450.589 325.351ZM453.432 322.887L453.242 322.508L454.758 321.371L454.948 321.75L453.432 322.887ZM456.464 320.424L456.274 320.045L457.79 318.908L457.98 319.287L456.464 320.424ZM459.307 318.15L459.117 317.771L460.633 316.633L460.823 317.012L459.307 318.15ZM462.339 315.686L462.149 315.307L463.665 314.17L463.855 314.549L462.339 315.686Z" fill="#DB2157"/>
<rect x="423" y="261" width="143" height="19" rx="4" fill="url(#paint39_linear_49_199)"/>
<path d="M734.291 222H637.709C634.556 222 632 224.53 632 227.65V248.35C632 251.47 634.556 254 637.709 254H734.291C737.444 254 740 251.47 740 248.35V227.65C740 224.53 737.444 222 734.291 222Z" fill="#F5F5FC"/>
<path d="M648.5 249C654.851 249 660 243.851 660 237.5C660 231.149 654.851 226 648.5 226C642.149 226 637 231.149 637 237.5C637 243.851 642.149 249 648.5 249Z" fill="url(#paint40_linear_49_199)" fill-opacity="0.48"/>
<path d="M729.5 228H668.5C667.119 228 666 229.119 666 230.5C666 231.881 667.119 233 668.5 233H729.5C730.881 233 732 231.881 732 230.5C732 229.119 730.881 228 729.5 228Z" fill="url(#paint41_linear_49_199)" fill-opacity="0.48"/>
<path d="M715.5 235H668.5C667.119 235 666 236.119 666 237.5C666 238.881 667.119 240 668.5 240H715.5C716.881 240 718 238.881 718 237.5C718 236.119 716.881 235 715.5 235Z" fill="url(#paint42_linear_49_199)" fill-opacity="0.48"/>
<path d="M680.354 244H668.646C667.185 244 666 245.119 666 246.5C666 247.881 667.185 249 668.646 249H680.354C681.815 249 683 247.881 683 246.5C683 245.119 681.815 244 680.354 244Z" fill="url(#paint43_linear_49_199)" fill-opacity="0.48"/>
<path d="M734.291 302H637.709C634.556 302 632 304.451 632 307.474V327.526C632 330.549 634.556 333 637.709 333H734.291C737.444 333 740 330.549 740 327.526V307.474C740 304.451 737.444 302 734.291 302Z" fill="#F5F5FC"/>
<path d="M648.5 329C654.851 329 660 323.851 660 317.5C660 311.149 654.851 306 648.5 306C642.149 306 637 311.149 637 317.5C637 323.851 642.149 329 648.5 329Z" fill="url(#paint44_linear_49_199)" fill-opacity="0.48"/>
<path d="M729.5 307H668.5C667.119 307 666 308.119 666 309.5C666 310.881 667.119 312 668.5 312H729.5C730.881 312 732 310.881 732 309.5C732 308.119 730.881 307 729.5 307Z" fill="url(#paint45_linear_49_199)" fill-opacity="0.48"/>
<path d="M715.5 315H668.5C667.119 315 666 316.119 666 317.5C666 318.881 667.119 320 668.5 320H715.5C716.881 320 718 318.881 718 317.5C718 316.119 716.881 315 715.5 315Z" fill="url(#paint46_linear_49_199)" fill-opacity="0.48"/>
<path d="M680.354 324H668.646C667.185 324 666 325.119 666 326.5C666 327.881 667.185 329 668.646 329H680.354C681.815 329 683 327.881 683 326.5C683 325.119 681.815 324 680.354 324Z" fill="url(#paint47_linear_49_199)" fill-opacity="0.48"/>
<path d="M734.291 341H637.709C634.556 341 632 343.53 632 346.65V367.35C632 370.47 634.556 373 637.709 373H734.291C737.444 373 740 370.47 740 367.35V346.65C740 343.53 737.444 341 734.291 341Z" fill="#F5F5FC"/>
<path d="M734.291 381H637.709C634.556 381 632 383.53 632 386.65V407.35C632 410.47 634.556 413 637.709 413H734.291C737.444 413 740 410.47 740 407.35V386.65C740 383.53 737.444 381 734.291 381Z" fill="#F5F5FC"/>
<path d="M648.5 368C654.851 368 660 362.851 660 356.5C660 350.149 654.851 345 648.5 345C642.149 345 637 350.149 637 356.5C637 362.851 642.149 368 648.5 368Z" fill="url(#paint48_linear_49_199)" fill-opacity="0.48"/>
<path d="M648.5 408C654.851 408 660 402.851 660 396.5C660 390.149 654.851 385 648.5 385C642.149 385 637 390.149 637 396.5C637 402.851 642.149 408 648.5 408Z" fill="url(#paint49_linear_49_199)" fill-opacity="0.48"/>
<path d="M729.5 347H668.5C667.119 347 666 347.895 666 349C666 350.105 667.119 351 668.5 351H729.5C730.881 351 732 350.105 732 349C732 347.895 730.881 347 729.5 347Z" fill="url(#paint50_linear_49_199)" fill-opacity="0.48"/>
<path d="M729.5 387H668.5C667.119 387 666 387.895 666 389C666 390.105 667.119 391 668.5 391H729.5C730.881 391 732 390.105 732 389C732 387.895 730.881 387 729.5 387Z" fill="url(#paint51_linear_49_199)" fill-opacity="0.48"/>
<path d="M715.5 354H668.5C667.119 354 666 355.119 666 356.5C666 357.881 667.119 359 668.5 359H715.5C716.881 359 718 357.881 718 356.5C718 355.119 716.881 354 715.5 354Z" fill="url(#paint52_linear_49_199)" fill-opacity="0.48"/>
<path d="M715.5 394H668.5C667.119 394 666 395.119 666 396.5C666 397.881 667.119 399 668.5 399H715.5C716.881 399 718 397.881 718 396.5C718 395.119 716.881 394 715.5 394Z" fill="url(#paint53_linear_49_199)" fill-opacity="0.48"/>
<path d="M680.354 363H668.646C667.185 363 666 364.119 666 365.5C666 366.881 667.185 368 668.646 368H680.354C681.815 368 683 366.881 683 365.5C683 364.119 681.815 363 680.354 363Z" fill="url(#paint54_linear_49_199)" fill-opacity="0.48"/>
<path d="M680.354 403H668.646C667.185 403 666 404.119 666 405.5C666 406.881 667.185 408 668.646 408H680.354C681.815 408 683 406.881 683 405.5C683 404.119 681.815 403 680.354 403Z" fill="url(#paint55_linear_49_199)" fill-opacity="0.48"/>
<path d="M734.291 262H637.709C634.556 262 632 264.53 632 267.65V288.35C632 291.47 634.556 294 637.709 294H734.291C737.444 294 740 291.47 740 288.35V267.65C740 264.53 737.444 262 734.291 262Z" fill="url(#paint56_linear_49_199)" fill-opacity="0.48"/>
<path d="M648.5 290C654.851 290 660 284.851 660 278.5C660 272.149 654.851 267 648.5 267C642.149 267 637 272.149 637 278.5C637 284.851 642.149 290 648.5 290Z" fill="white"/>
<path d="M729.5 268H668.5C667.119 268 666 269.119 666 270.5C666 271.881 667.119 273 668.5 273H729.5C730.881 273 732 271.881 732 270.5C732 269.119 730.881 268 729.5 268Z" fill="white"/>
<path d="M715.5 276H668.5C667.119 276 666 277.119 666 278.5C666 279.881 667.119 281 668.5 281H715.5C716.881 281 718 279.881 718 278.5C718 277.119 716.881 276 715.5 276Z" fill="white"/>
<path d="M679.509 285H668.491C667.115 285 666 286.119 666 287.5C666 288.881 667.115 290 668.491 290H679.509C680.885 290 682 288.881 682 287.5C682 286.119 680.885 285 679.509 285Z" fill="white"/>
<defs>
<radialGradient id="paint0_radial_49_199" cx="0" cy="0" r="1" gradientUnits="userSpaceOnUse" gradientTransform="translate(490 250) rotate(90) scale(299 458.264)">
<stop offset="0.0239582" stop-color="#FEEE9B"/>
<stop offset="1" stop-color="#FF9B3F"/>
</radialGradient>
<linearGradient id="paint1_linear_49_199" x1="799" y1="461.055" x2="807.43" y2="461.055" gradientUnits="userSpaceOnUse">
<stop stop-color="white"/>
<stop offset="1" stop-color="white" stop-opacity="0.82"/>
</linearGradient>
<linearGradient id="paint2_linear_49_199" x1="807.43" y1="470.528" x2="832.717" y2="470.528" gradientUnits="userSpaceOnUse">
<stop stop-color="white"/>
<stop offset="1" stop-color="white" stop-opacity="0.82"/>
</linearGradient>
<linearGradient id="paint3_linear_49_199" x1="807.573" y1="451.543" x2="832.654" y2="451.543" gradientUnits="userSpaceOnUse">
<stop stop-color="white"/>
<stop offset="1" stop-color="white" stop-opacity="0.82"/>
</linearGradient>
<linearGradient id="paint4_linear_49_199" x1="494.5" y1="96" x2="494.5" y2="395" gradientUnits="userSpaceOnUse">
<stop stop-color="#D0D5FF"/>
<stop offset="1" stop-color="#8BA4FF"/>
</linearGradient>
<linearGradient id="paint5_linear_49_199" x1="686.5" y1="201" x2="686.5" y2="430" gradientUnits="userSpaceOnUse">
<stop stop-color="#D0D5FF"/>
<stop offset="1" stop-color="#8BA4FF"/>
</linearGradient>
<linearGradient id="paint6_linear_49_199" x1="310.5" y1="201" x2="310.5" y2="430" gradientUnits="userSpaceOnUse">
<stop stop-color="#D0D5FF"/>
<stop offset="1" stop-color="#8BA4FF"/>
</linearGradient>
<linearGradient id="paint7_linear_49_199" x1="493" y1="102" x2="493" y2="182" gradientUnits="userSpaceOnUse">
<stop stop-color="#D0D5FF"/>
<stop offset="1" stop-color="#7896FF"/>
</linearGradient>
<linearGradient id="paint8_linear_49_199" x1="685" y1="206" x2="685" y2="263.143" gradientUnits="userSpaceOnUse">
<stop stop-color="#D0D5FF"/>
<stop offset="1" stop-color="#7896FF"/>
</linearGradient>
<linearGradient id="paint9_linear_49_199" x1="309" y1="206" x2="309" y2="263.143" gradientUnits="userSpaceOnUse">
<stop stop-color="#D0D5FF"/>
<stop offset="1" stop-color="#7896FF"/>
</linearGradient>
<linearGradient id="paint10_linear_49_199" x1="357.084" y1="218.088" x2="357.084" y2="233.921" gradientUnits="userSpaceOnUse">
<stop stop-color="#D0D5FF"/>
<stop offset="1" stop-color="#8BA4FF"/>
</linearGradient>
<linearGradient id="paint11_linear_49_199" x1="281.087" y1="254.503" x2="281.087" y2="302.001" gradientUnits="userSpaceOnUse">
<stop stop-color="#D0D5FF"/>
<stop offset="1" stop-color="#8BA4FF"/>
</linearGradient>
<linearGradient id="paint12_linear_49_199" x1="281.087" y1="328.125" x2="281.087" y2="375.622" gradientUnits="userSpaceOnUse">
<stop stop-color="#D0D5FF"/>
<stop offset="1" stop-color="#8BA4FF"/>
</linearGradient>
<linearGradient id="paint13_linear_49_199" x1="281.087" y1="401.746" x2="281.087" y2="423.912" gradientUnits="userSpaceOnUse">
<stop stop-color="#D0D5FF"/>
<stop offset="1" stop-color="#8BA4FF"/>
</linearGradient>
<linearGradient id="paint14_linear_49_199" x1="338.876" y1="254.503" x2="338.876" y2="302.001" gradientUnits="userSpaceOnUse">
<stop stop-color="#D0D5FF"/>
<stop offset="1" stop-color="#8BA4FF"/>
</linearGradient>
<linearGradient id="paint15_linear_49_199" x1="338.876" y1="328.125" x2="338.876" y2="375.622" gradientUnits="userSpaceOnUse">
<stop stop-color="#D0D5FF"/>
<stop offset="1" stop-color="#8BA4FF"/>
</linearGradient>
<linearGradient id="paint16_linear_49_199" x1="338.876" y1="401.746" x2="338.876" y2="423.912" gradientUnits="userSpaceOnUse">
<stop stop-color="#D0D5FF"/>
<stop offset="1" stop-color="#8BA4FF"/>
</linearGradient>
<linearGradient id="paint17_linear_49_199" x1="290.983" y1="240.254" x2="290.983" y2="245.004" gradientUnits="userSpaceOnUse">
<stop stop-color="#D0D5FF"/>
<stop offset="1" stop-color="#8BA4FF"/>
</linearGradient>
<linearGradient id="paint18_linear_49_199" x1="277.921" y1="307.542" x2="277.921" y2="310.709" gradientUnits="userSpaceOnUse">
<stop stop-color="#D0D5FF"/>
<stop offset="1" stop-color="#8BA4FF"/>
</linearGradient>
<linearGradient id="paint19_linear_49_199" x1="277.921" y1="381.164" x2="277.921" y2="384.33" gradientUnits="userSpaceOnUse">
<stop stop-color="#D0D5FF"/>
<stop offset="1" stop-color="#8BA4FF"/>
</linearGradient>
<linearGradient id="paint20_linear_49_199" x1="335.71" y1="307.542" x2="335.71" y2="310.709" gradientUnits="userSpaceOnUse">
<stop stop-color="#D0D5FF"/>
<stop offset="1" stop-color="#8BA4FF"/>
</linearGradient>
<linearGradient id="paint21_linear_49_199" x1="335.71" y1="381.164" x2="335.71" y2="384.33" gradientUnits="userSpaceOnUse">
<stop stop-color="#D0D5FF"/>
<stop offset="1" stop-color="#8BA4FF"/>
</linearGradient>
<linearGradient id="paint22_linear_49_199" x1="269.213" y1="313.875" x2="269.213" y2="317.042" gradientUnits="userSpaceOnUse">
<stop stop-color="#D0D5FF"/>
<stop offset="1" stop-color="#8BA4FF"/>
</linearGradient>
<linearGradient id="paint23_linear_49_199" x1="269.213" y1="387.497" x2="269.213" y2="390.663" gradientUnits="userSpaceOnUse">
<stop stop-color="#D0D5FF"/>
<stop offset="1" stop-color="#8BA4FF"/>
</linearGradient>
<linearGradient id="paint24_linear_49_199" x1="327.002" y1="313.875" x2="327.002" y2="317.042" gradientUnits="userSpaceOnUse">
<stop stop-color="#D0D5FF"/>
<stop offset="1" stop-color="#8BA4FF"/>
</linearGradient>
<linearGradient id="paint25_linear_49_199" x1="327.002" y1="387.497" x2="327.002" y2="390.663" gradientUnits="userSpaceOnUse">
<stop stop-color="#D0D5FF"/>
<stop offset="1" stop-color="#8BA4FF"/>
</linearGradient>
<linearGradient id="paint26_linear_49_199" x1="492.815" y1="139.108" x2="498.916" y2="251.507" gradientUnits="userSpaceOnUse">
<stop stop-color="#D0D5FF"/>
<stop offset="1" stop-color="#8BA4FF"/>
</linearGradient>
<linearGradient id="paint27_linear_49_199" x1="426.022" y1="155.064" x2="436.7" y2="155.064" gradientUnits="userSpaceOnUse">
<stop stop-color="#6CC2FC"/>
<stop offset="1" stop-color="#D9F1FF"/>
</linearGradient>
<linearGradient id="paint28_linear_49_199" x1="530.315" y1="124.114" x2="530.315" y2="135.434" gradientUnits="userSpaceOnUse">
<stop stop-color="#FC2F56"/>
<stop offset="1" stop-color="#FFC4CF"/>
</linearGradient>
<linearGradient id="paint29_linear_49_199" x1="493" y1="197.5" x2="496.5" y2="214" gradientUnits="userSpaceOnUse">
<stop stop-color="#F6BF44"/>
<stop offset="1" stop-color="#FFEBB9"/>
</linearGradient>
<linearGradient id="paint30_linear_49_199" x1="496.545" y1="163.723" x2="496.545" y2="217.684" gradientUnits="userSpaceOnUse">
<stop stop-color="#F6BC3B"/>
<stop offset="1" stop-color="#FEECC6"/>
</linearGradient>
<linearGradient id="paint31_linear_49_199" x1="502.833" y1="187.503" x2="502.833" y2="201.046" gradientUnits="userSpaceOnUse">
<stop stop-color="#E6294D"/>
<stop offset="1" stop-color="#FF8EA4"/>
</linearGradient>
<linearGradient id="paint32_linear_49_199" x1="510.32" y1="157.03" x2="510.32" y2="192.513" gradientUnits="userSpaceOnUse">
<stop stop-color="#E6294D"/>
<stop offset="1" stop-color="#FF8EA4"/>
</linearGradient>
<linearGradient id="paint33_linear_49_199" x1="481.362" y1="171.343" x2="481.362" y2="187.854" gradientUnits="userSpaceOnUse">
<stop stop-color="#E6294D"/>
<stop offset="1" stop-color="#FF8EA4"/>
</linearGradient>
<linearGradient id="paint34_linear_49_199" x1="474.746" y1="197.205" x2="474.746" y2="208.605" gradientUnits="userSpaceOnUse">
<stop stop-color="#E6294D"/>
<stop offset="1" stop-color="#FF8EA4"/>
</linearGradient>
<linearGradient id="paint35_linear_49_199" x1="446.515" y1="235.791" x2="446.515" y2="238.708" gradientUnits="userSpaceOnUse">
<stop stop-color="#FC3010"/>
<stop offset="1" stop-color="#FC7762" stop-opacity="0"/>
</linearGradient>
<linearGradient id="paint36_linear_49_199" x1="547.336" y1="245.581" x2="557.039" y2="245.581" gradientUnits="userSpaceOnUse">
<stop stop-color="#D9C5FF"/>
<stop offset="1" stop-color="#986FF9"/>
</linearGradient>
<linearGradient id="paint37_linear_49_199" x1="439.886" y1="287.828" x2="439.886" y2="317.392" gradientUnits="userSpaceOnUse">
<stop stop-color="#EE2F2F"/>
<stop offset="1" stop-color="#FCAFAF"/>
</linearGradient>
<linearGradient id="paint38_linear_49_199" x1="528.288" y1="328.383" x2="528.288" y2="365.1" gradientUnits="userSpaceOnUse">
<stop stop-color="#60EA30"/>
<stop offset="1" stop-color="#D8FFCA"/>
</linearGradient>
<linearGradient id="paint39_linear_49_199" x1="436" y1="258" x2="572" y2="283" gradientUnits="userSpaceOnUse">
<stop offset="0.356778" stop-color="#F63251"/>
<stop offset="1" stop-color="#FFB0BD"/>
</linearGradient>
<linearGradient id="paint40_linear_49_199" x1="648.5" y1="226" x2="648.5" y2="249" gradientUnits="userSpaceOnUse">
<stop stop-color="#D0D5FF"/>
<stop offset="1" stop-color="#8BA4FF"/>
</linearGradient>
<linearGradient id="paint41_linear_49_199" x1="699" y1="228" x2="699" y2="233" gradientUnits="userSpaceOnUse">
<stop stop-color="#D0D5FF"/>
<stop offset="1" stop-color="#8BA4FF"/>
</linearGradient>
<linearGradient id="paint42_linear_49_199" x1="692" y1="235" x2="692" y2="240" gradientUnits="userSpaceOnUse">
<stop stop-color="#D0D5FF"/>
<stop offset="1" stop-color="#8BA4FF"/>
</linearGradient>
<linearGradient id="paint43_linear_49_199" x1="674.5" y1="244" x2="674.5" y2="249" gradientUnits="userSpaceOnUse">
<stop stop-color="#D0D5FF"/>
<stop offset="1" stop-color="#8BA4FF"/>
</linearGradient>
<linearGradient id="paint44_linear_49_199" x1="648.5" y1="306" x2="648.5" y2="329" gradientUnits="userSpaceOnUse">
<stop stop-color="#D0D5FF"/>
<stop offset="1" stop-color="#8BA4FF"/>
</linearGradient>
<linearGradient id="paint45_linear_49_199" x1="699" y1="307" x2="699" y2="312" gradientUnits="userSpaceOnUse">
<stop stop-color="#D0D5FF"/>
<stop offset="1" stop-color="#8BA4FF"/>
</linearGradient>
<linearGradient id="paint46_linear_49_199" x1="692" y1="315" x2="692" y2="320" gradientUnits="userSpaceOnUse">
<stop stop-color="#D0D5FF"/>
<stop offset="1" stop-color="#8BA4FF"/>
</linearGradient>
<linearGradient id="paint47_linear_49_199" x1="674.5" y1="324" x2="674.5" y2="329" gradientUnits="userSpaceOnUse">
<stop stop-color="#D0D5FF"/>
<stop offset="1" stop-color="#8BA4FF"/>
</linearGradient>
<linearGradient id="paint48_linear_49_199" x1="648.5" y1="345" x2="648.5" y2="368" gradientUnits="userSpaceOnUse">
<stop stop-color="#D0D5FF"/>
<stop offset="1" stop-color="#8BA4FF"/>
</linearGradient>
<linearGradient id="paint49_linear_49_199" x1="648.5" y1="385" x2="648.5" y2="408" gradientUnits="userSpaceOnUse">
<stop stop-color="#D0D5FF"/>
<stop offset="1" stop-color="#8BA4FF"/>
</linearGradient>
<linearGradient id="paint50_linear_49_199" x1="699" y1="347" x2="699" y2="351" gradientUnits="userSpaceOnUse">
<stop stop-color="#D0D5FF"/>
<stop offset="1" stop-color="#8BA4FF"/>
</linearGradient>
<linearGradient id="paint51_linear_49_199" x1="699" y1="387" x2="699" y2="391" gradientUnits="userSpaceOnUse">
<stop stop-color="#D0D5FF"/>
<stop offset="1" stop-color="#8BA4FF"/>
</linearGradient>
<linearGradient id="paint52_linear_49_199" x1="692" y1="354" x2="692" y2="359" gradientUnits="userSpaceOnUse">
<stop stop-color="#D0D5FF"/>
<stop offset="1" stop-color="#8BA4FF"/>
</linearGradient>
<linearGradient id="paint53_linear_49_199" x1="692" y1="394" x2="692" y2="399" gradientUnits="userSpaceOnUse">
<stop stop-color="#D0D5FF"/>
<stop offset="1" stop-color="#8BA4FF"/>
</linearGradient>
<linearGradient id="paint54_linear_49_199" x1="674.5" y1="363" x2="674.5" y2="368" gradientUnits="userSpaceOnUse">
<stop stop-color="#D0D5FF"/>
<stop offset="1" stop-color="#8BA4FF"/>
</linearGradient>
<linearGradient id="paint55_linear_49_199" x1="674.5" y1="403" x2="674.5" y2="408" gradientUnits="userSpaceOnUse">
<stop stop-color="#D0D5FF"/>
<stop offset="1" stop-color="#8BA4FF"/>
</linearGradient>
<linearGradient id="paint56_linear_49_199" x1="686" y1="262" x2="686" y2="294" gradientUnits="userSpaceOnUse">
<stop stop-color="#D0D5FF"/>
<stop offset="1" stop-color="#8BA4FF"/>
</linearGradient>
<clipPath id="clip0_49_199">
<rect width="160.567" height="38" fill="white" transform="translate(799 442)"/>
</clipPath>
</defs>
</svg>
