<svg width="980" height="500" viewBox="0 0 980 500" fill="none" xmlns="http://www.w3.org/2000/svg">
<rect width="980" height="500" fill="url(#paint0_linear_49_303)"/>
<g clip-path="url(#clip0_49_303)">
<path d="M848.688 467.15C847.638 467.181 846.599 466.917 845.691 466.387C844.86 465.875 844.194 465.133 843.775 464.251C843.312 463.258 843.084 462.171 843.107 461.076C843.084 459.979 843.312 458.892 843.775 457.898C844.194 457.015 844.86 456.273 845.691 455.762C846.599 455.232 847.638 454.967 848.688 454.998C849.89 454.954 851.072 455.308 852.051 456.005C852.958 456.686 853.624 457.638 853.952 458.723L851.983 459.267C851.794 458.566 851.388 457.942 850.824 457.485C850.206 457.035 849.452 456.811 848.688 456.852C847.998 456.826 847.316 457.009 846.731 457.378C846.199 457.743 845.79 458.261 845.558 458.863C845.282 459.575 845.146 460.333 845.157 461.097C845.14 461.859 845.274 462.617 845.549 463.327C845.785 463.932 846.199 464.45 846.737 464.813C847.323 465.181 848.006 465.364 848.697 465.338C849.459 465.372 850.208 465.143 850.821 464.691C851.384 464.233 851.79 463.609 851.98 462.909L853.952 463.425C853.627 464.509 852.965 465.461 852.063 466.143C851.08 466.843 849.894 467.197 848.688 467.15Z" fill="white"/>
<path d="M856.094 466.91V455.239H860.914C861.03 455.239 861.176 455.239 861.354 455.239C861.519 455.247 861.684 455.264 861.847 455.292C862.455 455.368 863.032 455.6 863.522 455.967C863.959 456.308 864.298 456.759 864.503 457.274C864.72 457.833 864.828 458.429 864.821 459.029C864.844 459.901 864.592 460.759 864.102 461.48C863.84 461.832 863.508 462.126 863.127 462.344C862.746 462.562 862.325 462.7 861.889 462.748L861.054 462.819H858.048V466.91H856.094ZM858.048 461.01H860.834C860.944 461.01 861.063 461.01 861.2 460.993C861.325 460.984 861.45 460.962 861.571 460.927C861.864 460.866 862.131 460.717 862.337 460.5C862.521 460.3 862.658 460.061 862.735 459.802C862.81 459.555 862.849 459.299 862.851 459.041C862.85 458.781 862.811 458.523 862.735 458.275C862.658 458.014 862.522 457.774 862.337 457.574C862.13 457.358 861.863 457.21 861.571 457.149C861.449 457.117 861.325 457.098 861.2 457.09C861.063 457.09 860.944 457.09 860.834 457.09H858.048V461.01ZM862.801 466.91L860.502 462.157L862.486 461.72L865.014 466.907L862.801 466.91Z" fill="white"/>
<path d="M867.164 466.91V455.239H874.7V457.072H869.116V459.947H873.726V461.78H869.116V465.077H874.7V466.91H867.164Z" fill="white"/>
<path d="M876.206 466.91L879.883 455.239H882.744L886.424 466.91H884.413L881.074 456.439H881.514L878.217 466.91H876.206ZM878.255 464.379V462.558H884.38V464.379H878.255Z" fill="white"/>
<path d="M890.087 466.91V457.072H886.311V455.239H895.816V457.072H892.038V466.91H890.087Z" fill="white"/>
<path d="M897.646 466.91V455.239H899.598V466.91H897.646Z" fill="white"/>
<path d="M905.042 466.91L901.35 455.239H903.358L906.438 465.012L909.557 455.239H911.577L907.888 466.91H905.042Z" fill="white"/>
<path d="M913.154 466.91V455.239H920.69V457.072H915.109V459.947H919.719V461.78H915.109V465.077H920.69V466.91H913.154Z" fill="white"/>
<path d="M923.162 466.91V455.239H925.113V466.91H923.162Z" fill="white"/>
<path d="M930.73 466.91V457.072H926.955V455.239H936.46V457.072H932.682V466.91H930.73Z" fill="white"/>
<path d="M938.126 466.91V455.239H945.662V457.072H940.093V459.947H944.703V461.78H940.093V465.077H945.674V466.91H938.126Z" fill="white"/>
<path d="M947.982 466.91V455.239H949.741L953.774 463.506L957.811 455.239H959.567V466.91H957.746V459.43L954.163 466.91H953.385L949.821 459.43V466.91H947.982Z" fill="white"/>
<path d="M815.86 470.789L807.43 465.92V475.654L815.86 470.789Z" fill="white" fill-opacity="0.48"/>
<path d="M832.717 461.055L824.287 456.19V465.921L832.717 461.055Z" fill="white" fill-opacity="0.47"/>
<path d="M815.86 451.321L807.43 446.456V456.189L815.86 451.321Z" fill="white" fill-opacity="0.48"/>
<path d="M807.43 446.456L800.687 450.35C800.174 450.645 799.747 451.07 799.451 451.583C799.155 452.096 798.999 452.677 799 453.27V468.84C799 469.433 799.155 470.015 799.452 470.528C799.748 471.041 800.174 471.467 800.687 471.763L807.43 475.654V446.456Z" fill="url(#paint1_linear_49_303)"/>
<path d="M832.717 468.84V461.055L807.43 475.654L814.173 479.549C814.685 479.845 815.267 480.001 815.858 480.001C816.45 480.001 817.032 479.845 817.544 479.549L831.033 471.763C831.545 471.467 831.97 471.04 832.266 470.527C832.562 470.014 832.717 469.433 832.717 468.84Z" fill="url(#paint2_linear_49_303)"/>
<path d="M817.606 442.594C817.098 442.301 816.521 442.146 815.934 442.146C815.347 442.146 814.77 442.301 814.262 442.594L807.573 446.456L832.654 460.939V453.216C832.654 452.629 832.5 452.052 832.206 451.543C831.913 451.034 831.491 450.611 830.982 450.317L817.606 442.594Z" fill="url(#paint3_linear_49_303)"/>
</g>
<path d="M772.2 372H220.933C220.512 372 220.094 372.011 219.677 372.041C209.638 372.772 196.404 376.997 196.01 380.729C195.553 385.053 210.875 386.678 222.47 386.895L298.658 388.317C300.987 388.361 303.424 388.416 305.42 388.866C310.948 390.111 309.156 393.498 304.083 394.989C299.01 396.479 292.219 396.785 286.141 397.6C280.064 398.417 273.854 400.254 274.252 402.657C274.793 405.926 286.009 407.083 294.777 407.305C331.358 408.228 367.957 408.057 404.528 406.792C419.898 406.26 437.365 405.775 448.735 409.667C452.017 410.79 454.566 412.227 458.319 413.122C487.353 420.05 535.707 415.475 567.014 415.999C600.051 416.552 633.772 417.077 665.569 413.691C674.436 412.747 684.08 411.139 687.126 407.895C690.364 404.447 684.762 400.827 680.465 397.545C676.168 394.261 673.625 389.78 681.021 387.383C684.947 386.11 690.527 385.878 695.729 385.818C721.702 385.518 749.027 387.976 772.906 384.155C780.748 382.9 783.488 380.355 782.93 377.516C782.305 374.335 777.579 372 772.2 372Z" fill="#E8EBFF" fill-opacity="0.16"/>
<path d="M297.853 322.099L295.221 345C293.349 343.117 291.274 341.414 289.28 339.693C287.319 338 285.382 336.247 283.734 334.225C282.057 332.169 280.887 329.884 279.942 327.412C279.028 325.02 278.226 322.558 276.833 320.388C275.741 318.679 274.286 317.246 272.691 316.014C269.389 313.454 265.554 311.724 262.186 309.264C260.488 308.03 258.93 306.603 257.721 304.869C256.26 302.781 255.34 300.371 254.501 297.977C253.663 295.588 252.899 293.159 251.759 290.892C250.784 288.961 249.539 287.182 248.063 285.609C245.117 282.447 241.378 280.112 237.392 278.537C227.636 274.676 216.919 275.71 206.798 277.256C206.2 277.349 205.602 277.441 205 277.539C205.134 271.501 214.345 268.176 219.846 268.005C223.609 267.889 227.156 269.741 230.889 270.204C249.804 272.569 263.054 268.001 268.531 291.231C269.143 293.831 269.592 296.575 271.136 298.746C278.302 307.414 299.989 305.648 297.853 322.099Z" fill="url(#paint4_linear_49_303)"/>
<path d="M276.022 364.591C259.917 367.723 246.483 352.318 259.014 336.995C267.253 329.371 259.226 322.608 251.589 319.432C247.799 317.85 243.01 316.915 241.458 313.158C239.047 304.784 250.992 296.337 234.588 289.737C225.332 286.007 206.134 291.608 205.01 278.845C205.005 278.785 205 278.722 205 278.661C214.605 277.17 224.629 275.861 234.108 278.576C238.269 279.767 242.263 281.693 245.588 284.456C247.212 285.803 248.666 287.358 249.866 289.089C251.2 291.018 252.128 293.151 252.934 295.34C253.783 297.657 254.518 300.024 255.593 302.255C256.538 304.219 257.773 306.001 259.375 307.505C262.269 310.221 265.902 311.975 269.276 314.026C270.99 315.073 272.675 316.208 274.132 317.595C275.794 319.187 276.986 321.082 277.895 323.177C278.885 325.467 279.602 327.869 280.773 330.082C281.9 332.222 283.457 334.103 285.179 335.807C288.28 338.886 291.915 341.407 295 344.503C294.999 344.503 294.14 361.068 276.022 364.591Z" fill="url(#paint5_linear_49_303)"/>
<path d="M295 344.415L294.93 345C291.848 341.856 288.216 339.295 285.117 336.167C283.397 334.437 281.842 332.526 280.716 330.352C279.545 328.105 278.83 325.665 277.84 323.338C276.932 321.211 275.741 319.286 274.081 317.669C272.626 316.26 270.942 315.108 269.23 314.044C265.859 311.96 262.229 310.179 259.337 307.42C257.737 305.892 256.502 304.083 255.559 302.088C254.485 299.821 253.751 297.417 252.902 295.064C252.097 292.84 251.17 290.673 249.837 288.714C248.639 286.956 247.185 285.377 245.563 284.008C242.241 281.202 238.251 279.246 234.093 278.036C224.623 275.279 214.608 276.608 205.012 278.123C205.001 277.967 204.998 277.81 205.001 277.654C205.602 277.557 206.198 277.466 206.795 277.374C216.892 275.844 227.582 274.82 237.313 278.642C241.289 280.2 245.019 282.511 247.958 285.64C249.431 287.197 250.673 288.958 251.645 290.869C252.782 293.112 253.544 295.516 254.38 297.88C255.216 300.249 256.135 302.634 257.592 304.701C258.798 306.416 260.352 307.828 262.046 309.05C265.405 311.483 269.231 313.197 272.525 315.73C274.116 316.949 275.568 318.367 276.657 320.058C278.047 322.206 278.847 324.642 279.758 327.009C280.7 329.456 281.868 331.718 283.541 333.751C285.185 335.752 287.117 337.487 289.073 339.163C291.062 340.866 293.133 342.552 295 344.415Z" fill="#035875"/>
<path d="M295 344.415L294.93 345C291.848 341.856 288.216 339.295 285.117 336.167C283.397 334.437 281.842 332.526 280.716 330.352C279.545 328.105 278.83 325.665 277.84 323.338C276.932 321.211 275.741 319.286 274.081 317.669C272.626 316.26 270.942 315.108 269.23 314.044C265.859 311.96 262.229 310.179 259.337 307.42C257.737 305.892 256.502 304.083 255.559 302.088C254.485 299.821 253.751 297.417 252.902 295.064C252.097 292.84 251.17 290.673 249.837 288.714C248.639 286.956 247.185 285.377 245.563 284.008C242.241 281.202 238.251 279.246 234.093 278.036C224.623 275.279 214.608 276.608 205.012 278.123C205.001 277.967 204.998 277.81 205.001 277.654C205.602 277.557 206.198 277.466 206.795 277.374C216.892 275.844 227.582 274.82 237.313 278.642C241.289 280.2 245.019 282.511 247.958 285.64C249.431 287.197 250.673 288.958 251.645 290.869C252.782 293.112 253.544 295.516 254.38 297.88C255.216 300.249 256.135 302.634 257.592 304.701C258.798 306.416 260.352 307.828 262.046 309.05C265.405 311.483 269.231 313.197 272.525 315.73C274.116 316.949 275.568 318.367 276.657 320.058C278.047 322.206 278.847 324.642 279.758 327.009C280.7 329.456 281.868 331.718 283.541 333.751C285.185 335.752 287.117 337.487 289.073 339.163C291.062 340.866 293.133 342.552 295 344.415Z" fill="#1A66BD"/>
<path d="M723.639 244.166C718.154 253.424 703.764 255.214 697.637 264.409C694.324 269.839 696.382 275.439 697.134 280.779C697.639 290.503 697.639 301.441 693.038 311.557C690.608 316.133 686.586 320.285 685 324.997C689.43 325.052 694.782 324.381 700.075 322.94C700.179 322.836 700.285 322.725 700.387 322.618C704.372 318.373 707.321 312.991 707.279 307.021C707.241 301.586 705.048 295.966 706.881 290.625C707.883 287.703 710.043 285.414 712.082 283.184C714.184 280.879 716.072 278.538 717.125 275.556C718.886 270.583 718.852 264.633 722.385 260.434C724.543 257.875 727.716 256.692 730.595 255.186C732.206 254.346 733.752 253.362 734.971 251.991C736.011 250.821 736.803 249.461 737.449 248.038C738.724 245.23 739.48 242.22 740.709 239.394C741.954 236.526 743.795 234.015 746.045 231.861C750.961 227.161 757.228 224.363 763.049 221.023C768.314 217.999 773.714 214.257 776.706 208.786C776.808 208.6 776.906 208.412 777 208.222C776.43 207.478 775.626 206.852 774.564 206.383C765.135 203.606 757.188 216.732 748.481 220.168C738.158 223.131 729.84 221.633 726.908 234.32C726.058 237.624 725.553 241.031 723.639 244.166Z" fill="url(#paint6_linear_49_303)"/>
<path d="M763.729 221.722C757.839 225.042 751.496 227.822 746.522 232.492C744.245 234.632 742.381 237.127 741.122 239.978C739.878 242.786 739.112 245.777 737.823 248.567C737.169 249.982 736.368 251.333 735.315 252.496C734.081 253.859 732.517 254.836 730.886 255.671C727.973 257.167 724.761 258.343 722.577 260.886C719.003 265.058 719.037 270.971 717.255 275.914C716.19 278.876 714.279 281.203 712.151 283.493C710.089 285.708 707.903 287.984 706.888 290.888C705.033 296.195 707.252 301.78 707.29 307.181C707.333 313.114 704.349 318.461 700.316 322.68C700.213 322.786 700.106 322.896 700 323C700.272 322.93 700.544 322.855 700.814 322.776C713.162 319.296 724.919 311.724 723.869 299.514C721.958 293.745 719.812 289.171 728.085 284.594C740.876 275.546 757.21 270.509 754.975 254.508C754.479 247.331 750.442 236.848 758.353 230.243C761.848 228.055 765.99 227.655 769.53 225.568C776.071 222.311 781.087 213.986 778.132 209.399C778.048 209.259 777.953 209.125 777.848 209C777.754 209.189 777.653 209.377 777.551 209.561C774.522 214.999 769.058 218.716 763.729 221.722Z" fill="url(#paint7_linear_49_303)"/>
<path d="M763.622 221.723C757.742 225.043 751.41 227.823 746.444 232.493C744.171 234.633 742.31 237.128 741.053 239.979C739.811 242.787 739.047 245.778 737.759 248.568C737.106 249.983 736.307 251.334 735.256 252.497C734.024 253.859 732.462 254.837 730.834 255.672C727.926 257.168 724.72 258.344 722.54 260.887C718.971 265.059 719.005 270.972 717.226 275.914C716.162 278.876 714.255 281.204 712.131 283.493C710.072 285.709 707.889 287.984 706.876 290.888C705.025 296.195 707.24 301.781 707.278 307.182C707.321 313.114 704.342 318.461 700.315 322.68C700.212 322.786 700.106 322.896 700 323C700.272 322.93 700.543 322.855 700.812 322.776C701.778 321.749 702.673 320.661 703.493 319.517C705.025 317.367 706.255 314.998 706.975 312.465C707.74 309.769 707.813 307.022 707.513 304.247C707.204 301.418 706.6 298.608 706.576 295.755C706.544 292.492 707.54 289.622 709.558 287.036C711.534 284.508 714.019 282.399 715.808 279.718C717.311 277.46 718.084 274.872 718.707 272.265C719.352 269.542 719.842 266.743 720.994 264.172C722.392 261.047 724.832 259.101 727.867 257.584C730.803 256.119 733.899 254.859 736.016 252.252C737.891 249.944 738.878 247.09 739.848 244.331C740.918 241.286 742.054 238.322 744.045 235.736C746.168 232.985 748.908 230.767 751.804 228.864C760.519 223.133 773.021 219.124 778 209.399C777.916 209.259 777.821 209.125 777.717 209C777.623 209.189 777.522 209.377 777.42 209.561C774.397 215 768.942 218.718 763.622 221.723Z" fill="#1F6FC4"/>
<path d="M269.589 281.287C268.922 280.155 269.619 278.614 270.771 277.968C271.922 277.322 273.35 277.376 274.653 277.633C276.762 278.049 278.591 278.871 280.463 279.812C278.401 277.26 276.484 274.598 274.719 271.838C272.127 273.298 269.085 273.977 266.107 273.75C264.979 273.664 263.719 273.359 263.153 272.393C262.492 271.265 263.19 269.724 264.337 269.076C265.485 268.429 266.906 268.479 268.203 268.733C270.381 269.16 272.257 270.024 274.193 271.005C272.067 267.597 270.184 264.038 268.628 260.346C265.865 261.343 262.802 261.525 259.941 260.845C258.84 260.584 257.646 260.086 257.242 259.044C256.771 257.827 257.708 256.414 258.945 255.954C260.182 255.494 261.577 255.766 262.817 256.22C264.826 256.955 266.492 258.048 268.183 259.266C266.605 255.349 265.332 251.143 265.326 246.916C265.326 246.828 265.33 246.74 265.331 246.652C262.424 247.276 259.328 247.029 256.564 245.943C255.512 245.53 254.402 244.868 254.154 243.781C253.864 242.509 254.996 241.243 256.287 240.962C257.578 240.68 258.919 241.145 260.08 241.769C262.127 242.867 263.711 244.328 265.342 245.92C265.47 241.037 266.512 236.156 266.47 231.276C263.519 231.941 260.365 231.707 257.554 230.602C256.502 230.189 255.392 229.528 255.144 228.439C254.854 227.168 255.986 225.901 257.277 225.62C258.568 225.339 259.909 225.804 261.071 226.427C263.172 227.555 264.785 229.065 266.464 230.707C266.431 229.488 266.327 228.269 266.116 227.05C265.69 224.581 264.731 222.226 263.397 220.071C260.679 221.533 257.496 222.143 254.421 221.781C253.297 221.648 252.052 221.291 251.528 220.302C250.915 219.148 251.678 217.637 252.852 217.037C254.026 216.438 255.444 216.547 256.729 216.855C259.086 217.419 261.061 218.489 263.142 219.668C260.916 216.235 257.734 213.337 254.235 211.344C251.624 212.365 248.719 212.654 245.956 212.151C244.842 211.948 243.622 211.514 243.163 210.494C242.626 209.303 243.485 207.843 244.696 207.319C245.906 206.794 247.314 206.992 248.577 207.379C250.591 207.998 252.292 208.98 254.018 210.086C254.095 210.088 254.175 210.108 254.257 210.152C257.274 211.782 259.936 214.019 262.128 216.626C262.613 217.203 263.077 217.798 263.517 218.408C262.892 215.787 262.999 212.997 263.843 210.434C264.193 209.373 264.79 208.238 265.876 207.923C267.145 207.555 268.501 208.585 268.87 209.836C269.24 211.087 268.856 212.437 268.301 213.619C267.264 215.825 265.784 217.548 264.175 219.365C265.043 220.689 265.786 222.09 266.315 223.576C267.117 225.825 267.447 228.132 267.516 230.462C268.147 227.755 269.561 225.226 271.56 223.266C272.363 222.48 273.42 221.738 274.532 221.946C275.831 222.189 276.561 223.716 276.311 224.995C276.06 226.275 275.094 227.302 274.052 228.105C272.055 229.643 269.876 230.516 267.532 231.436C267.533 235.281 266.906 239.176 266.583 242.967C266.481 244.161 266.414 245.348 266.412 246.533C266.946 243.563 268.422 240.762 270.59 238.632C271.391 237.845 272.447 237.102 273.559 237.308C274.859 237.55 275.591 239.075 275.342 240.355C275.093 241.634 274.128 242.664 273.087 243.467C271.046 245.043 268.816 245.923 266.411 246.87C266.424 248.133 266.517 249.393 266.737 250.655C267.139 252.964 267.808 255.224 268.612 257.427C268.825 258.012 269.05 258.594 269.283 259.173C269.504 256.446 270.502 253.782 272.145 251.576C272.815 250.677 273.744 249.784 274.875 249.821C276.197 249.864 277.156 251.262 277.108 252.564C277.061 253.866 276.267 255.029 275.363 255.98C273.692 257.737 271.758 258.909 269.674 260.124C271.194 263.731 273.063 267.204 275.144 270.528C274.659 267.714 275.012 264.761 276.167 262.142C276.618 261.12 277.322 260.046 278.434 259.834C279.732 259.587 280.982 260.74 281.229 262.021C281.475 263.301 280.963 264.608 280.295 265.733C279.028 267.867 277.352 269.461 275.538 271.151C275.817 271.589 276.099 272.026 276.385 272.459C277.956 274.837 279.642 277.154 281.453 279.371C281.023 276.623 281.389 273.755 282.513 271.204C282.964 270.181 283.669 269.107 284.78 268.896C286.079 268.649 287.329 269.802 287.575 271.083C287.822 272.363 287.309 273.67 286.641 274.794C285.409 276.871 283.79 278.435 282.034 280.073C284.129 282.576 286.388 284.943 288.83 287.113C289.338 287.565 288.592 288.311 288.085 287.86C285.619 285.668 283.342 283.274 281.228 280.745C278.596 282.217 275.577 282.881 272.559 282.653C271.426 282.563 270.159 282.255 269.589 281.287Z" fill="white" fill-opacity="0.36"/>
<path d="M720.99 237.287C721.642 236.155 720.959 234.614 719.833 233.969C718.707 233.322 717.31 233.376 716.035 233.633C713.972 234.049 712.183 234.871 710.352 235.812C712.369 233.26 714.244 230.598 715.971 227.838C718.507 229.298 721.482 229.977 724.395 229.75C725.499 229.664 726.731 229.359 727.285 228.393C727.932 227.265 727.249 225.724 726.127 225.076C725.004 224.429 723.614 224.479 722.345 224.733C720.215 225.16 718.379 226.024 716.485 227.005C718.565 223.597 720.407 220.038 721.929 216.346C724.632 217.343 727.628 217.524 730.428 216.845C731.504 216.584 732.673 216.086 733.067 215.044C733.528 213.826 732.612 212.414 731.402 211.954C730.191 211.494 728.827 211.765 727.614 212.219C725.648 212.955 724.019 214.048 722.365 215.266C723.908 211.349 725.153 207.143 725.159 202.916C725.159 202.828 725.156 202.739 725.155 202.652C727.999 203.276 731.027 203.029 733.731 201.943C734.76 201.53 735.846 200.868 736.089 199.781C736.373 198.509 735.266 197.243 734.002 196.961C732.739 196.68 731.427 197.145 730.291 197.769C728.289 198.867 726.74 200.328 725.144 201.92C725.019 197.036 723.999 192.156 724.041 187.276C726.927 187.941 730.012 187.707 732.763 186.602C733.792 186.189 734.878 185.528 735.121 184.439C735.404 183.168 734.297 181.901 733.034 181.62C731.771 181.338 730.459 181.803 729.322 182.427C727.267 183.555 725.688 185.065 724.046 186.707C724.078 185.488 724.181 184.269 724.387 183.049C724.803 180.581 725.741 178.226 727.047 176.071C729.705 177.533 732.819 178.143 735.827 177.781C736.927 177.648 738.145 177.291 738.658 176.302C739.257 175.147 738.511 173.637 737.362 173.037C736.214 172.437 734.827 172.546 733.57 172.855C731.264 173.419 729.332 174.489 727.296 175.668C729.474 172.235 732.587 169.337 736.009 167.344C738.564 168.365 741.405 168.653 744.109 168.151C745.198 167.948 746.391 167.514 746.84 166.494C747.365 165.303 746.525 163.843 745.341 163.319C744.157 162.794 742.78 162.992 741.545 163.379C739.574 163.998 737.91 164.98 736.222 166.086C736.139 166.089 736.059 166.112 735.988 166.152C733.037 167.782 730.433 170.019 728.288 172.626C727.813 173.203 727.36 173.798 726.929 174.408C727.541 171.787 727.436 168.997 726.61 166.434C726.268 165.373 725.684 164.238 724.622 163.923C723.381 163.555 722.054 164.585 721.692 165.836C721.331 167.087 721.706 168.437 722.249 169.619C723.263 171.825 724.711 173.548 726.285 175.365C725.436 176.689 724.709 178.09 724.191 179.576C723.407 181.825 723.085 184.132 723.017 186.462C722.399 183.755 721.017 181.226 719.06 179.266C718.275 178.48 717.241 177.738 716.153 177.946C714.882 178.189 714.169 179.716 714.414 180.995C714.659 182.275 715.604 183.302 716.624 184.105C718.577 185.643 720.708 186.516 723.002 187.435C723 191.281 723.614 195.176 723.93 198.967C724.03 200.16 724.095 201.348 724.097 202.532C723.575 199.562 722.131 196.762 720.011 194.632C719.227 193.844 718.194 193.102 717.105 193.308C715.834 193.55 715.118 195.075 715.362 196.355C715.605 197.634 716.549 198.664 717.567 199.468C719.563 201.043 721.746 201.923 724.098 202.87C724.086 204.133 723.994 205.393 723.779 206.655C723.386 208.964 722.732 211.224 721.945 213.427C721.736 214.012 721.517 214.595 721.289 215.173C721.072 212.447 720.096 209.782 718.489 207.577C717.833 206.677 716.925 205.785 715.819 205.821C714.525 205.864 713.586 207.262 713.633 208.564C713.68 209.866 714.457 211.029 715.341 211.98C716.976 213.737 718.867 214.909 720.906 216.124C719.419 219.731 717.591 223.204 715.555 226.528C716.03 223.714 715.684 220.762 714.555 218.143C714.113 217.12 713.424 216.046 712.337 215.835C711.067 215.588 709.844 216.741 709.603 218.021C709.362 219.301 709.862 220.608 710.516 221.733C711.756 223.868 713.396 225.461 715.17 227.151C714.897 227.589 714.621 228.026 714.341 228.459C712.804 230.837 711.155 233.154 709.383 235.371C709.804 232.623 709.446 229.755 708.346 227.204C707.905 226.181 707.216 225.108 706.129 224.896C704.858 224.649 703.635 225.802 703.394 227.083C703.153 228.363 703.654 229.67 704.307 230.794C705.513 232.871 707.097 234.435 708.815 236.073C706.765 238.576 704.555 240.943 702.166 243.113C701.669 243.565 702.399 244.311 702.895 243.86C705.307 241.668 707.535 239.274 709.603 236.745C712.178 238.217 715.131 238.881 718.083 238.653C719.193 238.563 720.431 238.255 720.99 237.287Z" fill="white" fill-opacity="0.36"/>
<path d="M679.341 366H307.66C298.459 366 291 358.536 291 349.329V113.961C291 107.355 296.352 102 302.952 102H684.048C690.649 102 696 107.355 696 113.961V349.329C696.001 358.536 688.542 366 679.341 366Z" fill="white"/>
<path d="M696 147H291V107.165C291 103.76 293.742 101 297.125 101H689.875C693.258 101 696 103.76 696 107.165L696 147Z" fill="#E0E4FF"/>
<path d="M609.109 118H365.425C363.65 118 362.21 119.399 362.21 121.126V128.874C362.21 130.601 363.65 132 365.425 132H609.109C610.885 132 612.324 130.601 612.324 128.874V121.126C612.324 119.4 610.885 118 609.109 118ZM350.191 118H313.969C312.329 118 311 119.399 311 121.126V128.874C311 130.601 312.329 132 313.969 132H350.191C351.831 132 353.16 130.601 353.16 128.874V121.126C353.16 119.4 351.831 118 350.191 118ZM640.785 118H625.001C623.225 118 621.786 119.399 621.786 121.126V128.874C621.786 130.601 623.225 132 625.001 132H640.785C642.56 132 644 130.601 644 128.874V121.126C644 119.4 642.56 118 640.785 118Z" fill="white"/>
<path d="M634.598 126.247C634.563 126.222 634.525 126.2 634.487 126.181C634.784 125.581 634.94 124.91 634.94 124.227C634.94 121.896 633.159 120 630.97 120C628.781 120 627 121.896 627 124.227C627 126.557 628.781 128.453 630.97 128.453C631.924 128.455 632.848 128.085 633.576 127.408C633.62 127.466 633.669 127.521 633.73 127.566L636.795 129.854C636.966 129.982 637.169 130.023 637.359 129.988C637.771 129.91 638.124 129.472 637.958 128.756L634.598 126.247ZM630.97 127.245C629.406 127.245 628.134 125.891 628.134 124.226C628.134 122.561 629.406 121.207 630.97 121.207C632.534 121.207 633.806 122.561 633.806 124.226C633.806 125.891 632.534 127.245 630.97 127.245Z" fill="#C8CBE3"/>
<path d="M655 129C657.209 129 659 127.209 659 125C659 122.791 657.209 121 655 121C652.791 121 651 122.791 651 125C651 127.209 652.791 129 655 129Z" fill="white"/>
<path d="M665 129C667.209 129 669 127.209 669 125C669 122.791 667.209 121 665 121C662.791 121 661 122.791 661 125C661 127.209 662.791 129 665 129Z" fill="white"/>
<path d="M671 125C671 122.791 672.791 121 675 121C677.209 121 679 122.791 679 125C679 127.209 677.209 129 675 129C672.791 129.001 671 127.21 671 125Z" fill="white"/>
<path d="M691.497 93H296.498C290.156 93 285 98.1307 285 104.465V362.535C285 368.869 290.156 374 296.498 374H691.497C697.844 374 703 368.869 703 362.535V104.465C703 98.1307 697.844 93 691.497 93ZM695.971 353.866C695.971 358.054 692.469 361.443 688.161 361.443H299.116C294.796 361.443 291.301 358.054 291.301 353.866V109.763C291.301 105.58 294.796 102.18 299.116 102.18H688.161C692.469 102.18 695.971 105.58 695.971 109.763V353.866Z" fill="url(#paint8_linear_49_303)"/>
<path d="M331 154.679L654.578 154L655 354.321L331.421 355L331 154.679Z" fill="#E4E9FF"/>
<path d="M652.327 212.217L653 212.216L652.882 156.058L589.76 156.192L632.363 212.625C643.814 211.889 651.359 212.176 652.327 212.217ZM552.823 154.034L568.937 154C563.058 176.144 555.839 194.56 547.332 209.077C540.211 221.227 531.997 230.973 522.922 238.044C514.819 244.355 505.798 248.726 496.115 251.031C481.422 254.525 468.42 252.566 454.653 250.493C440.871 248.416 425.248 246.063 403.998 248.54C379.052 251.449 354.954 259.986 332.033 274L332 258.335C354.243 246.23 377.583 238.71 401.773 235.892C425.592 233.113 443.311 235.781 457.546 237.927C470.434 239.867 480.61 241.402 491.691 238.765C507.727 234.951 521.657 223.119 533.097 203.599C540.768 190.512 547.356 173.941 552.823 154.034Z" fill="#A4C8FF"/>
<path d="M374.08 154.445L366.632 154.46L367.85 156.054L395.698 192.538L332 208.945L332.011 214.326L399.132 197.039L427.849 234.659L438.128 248.135L440.883 251.741L332.149 279.314L332.16 284.691L439.288 257.523L375.119 355L382.32 354.985L447.02 256.695L512.34 285.531L571.892 354.583L579.612 354.567L517.524 282.565C517.239 280.955 516.584 275.24 519.852 267.96C525 256.534 537.51 246.425 556.043 238.715C560.823 236.725 565.648 234.977 570.447 233.427L655 319.439L654.983 311.173L576.681 231.517C593.832 226.558 610.206 224.115 622.326 222.92C640.756 221.095 653.632 221.667 653.76 221.671L653.852 221.68L654.794 221.678L654.783 216.544L654.03 216.546C652.947 216.5 644.504 216.182 631.688 217.003L585.222 155.594L584.017 154L576.583 154.016L577.788 155.61L624.655 217.534C623.692 217.62 622.715 217.711 621.716 217.81C604.218 219.531 578.116 223.76 553.146 234.151C550.417 235.281 547.729 236.505 545.085 237.82C542.688 236.538 537.871 233.897 531.635 230.196C527.409 227.69 523.227 225.109 519.092 222.456C511.202 217.391 502.426 211.367 493.911 204.725C479.247 193.288 468.224 182.293 461.155 172.044C457.262 166.411 454.578 161.009 453.115 155.874C452.959 155.345 452.817 154.813 452.689 154.278L446.236 154.292C446.352 154.821 446.476 155.354 446.614 155.888C448.145 161.856 451.156 168.105 455.633 174.583C461.112 182.506 468.806 190.817 478.574 199.389L409.62 201.008L375.298 156.038L374.08 154.445ZM489.575 208.474C498.159 215.165 506.997 221.237 514.967 226.359C519.117 229.026 523.314 231.619 527.554 234.14C531.447 236.458 535.38 238.708 539.352 240.889C534.213 243.847 529.721 247.032 525.929 250.419C520.345 255.401 516.25 260.831 513.739 266.557C511.545 271.568 510.955 275.931 510.922 279.054L447.986 251.272L446.326 249.101L435.631 235.084L413.469 206.051L484.465 204.388C486.151 205.771 487.855 207.133 489.575 208.474Z" fill="#FCFEFD"/>
<path d="M335 288.076L335.133 351L373.583 350.919L431.216 263.792L335 288.076ZM557.206 243.825C540.214 250.861 528.743 260.087 524.025 270.512C521.025 277.152 521.629 282.37 521.889 283.839L578.814 349.533L648 349.387L647.932 317.481L570.41 239C566.012 240.415 561.585 242.012 557.206 243.825Z" fill="#A4C8FF"/>
<path d="M469.834 279.098C469.84 281.727 467.191 283.884 463.946 283.891L450.185 283.92C446.941 283.927 444.282 281.782 444.277 279.153C444.271 276.524 446.921 274.367 450.165 274.36L463.926 274.331C467.17 274.323 469.829 276.469 469.834 279.098ZM451.917 217.136C451.923 219.765 449.274 221.921 446.029 221.928L432.268 221.958C429.024 221.965 426.365 219.819 426.36 217.19C426.354 214.561 429.004 212.405 432.248 212.398L446.009 212.368C449.253 212.362 451.912 214.507 451.917 217.136ZM539.203 166.915C539.209 169.544 536.56 171.701 533.315 171.708L519.554 171.737C516.31 171.744 513.651 169.599 513.646 166.97C513.64 164.341 516.289 162.184 519.534 162.177L533.295 162.148C536.539 162.141 539.198 164.286 539.203 166.915ZM645.472 265.799C645.478 268.428 642.829 270.585 639.584 270.592L625.823 270.621C622.579 270.628 619.92 268.483 619.915 265.854C619.909 263.225 622.559 261.068 625.803 261.061L639.564 261.032C642.809 261.025 645.467 263.17 645.472 265.799ZM362.697 233.896C362.703 236.525 360.054 238.682 356.81 238.688L343.048 238.718C339.804 238.725 337.145 236.58 337.14 233.95C337.134 231.321 339.784 229.164 343.028 229.157L356.79 229.128C360.033 229.121 362.692 231.267 362.697 233.896ZM493.307 174.492C493.317 178.786 488.989 182.308 483.691 182.319C478.392 182.33 474.05 178.827 474.041 174.533C474.032 170.238 478.359 166.716 483.658 166.705C488.956 166.694 493.299 170.198 493.307 174.492ZM523.317 196.837C523.326 201.131 518.998 204.654 513.7 204.665C508.401 204.676 504.059 201.172 504.05 196.878C504.041 192.584 508.369 189.061 513.667 189.05C518.965 189.039 523.307 192.543 523.317 196.837ZM386.254 217.434C386.263 221.728 381.936 225.251 376.638 225.262C371.34 225.273 366.997 221.769 366.988 217.475C366.979 213.182 371.307 209.659 376.605 209.648C381.903 209.637 386.245 213.141 386.254 217.434ZM481.812 222.649C481.821 226.943 477.493 230.466 472.195 230.477C466.897 230.488 462.555 226.984 462.545 222.69C462.536 218.396 466.864 214.874 472.162 214.862C477.461 214.851 481.803 218.355 481.812 222.649ZM621.437 241.791C621.446 246.085 617.118 249.608 611.82 249.619C606.522 249.63 602.18 246.126 602.171 241.832C602.161 237.538 606.489 234.016 611.787 234.005C617.086 233.993 621.428 237.497 621.437 241.791ZM355.873 167.628L355.918 188.978C355.927 193.185 351.688 196.635 346.498 196.646C341.308 196.657 337.054 193.225 337.045 189.018L337 167.668C336.991 163.462 341.23 160.011 346.42 160C351.611 159.989 355.865 163.422 355.873 167.628ZM602.095 205.823L602.105 210.921C602.112 214.164 598.844 216.824 594.843 216.832C590.842 216.84 587.564 214.195 587.557 210.952L587.546 205.854C587.539 202.611 590.808 199.951 594.808 199.943C598.809 199.935 602.088 202.581 602.095 205.823ZM376.737 178.897L376.747 183.995C376.754 187.238 373.486 189.898 369.486 189.906C365.485 189.914 362.206 187.268 362.199 184.026L362.189 178.927C362.182 175.685 365.45 173.025 369.45 173.017C373.451 173.008 376.73 175.654 376.737 178.897ZM646.989 239.188L647 244.286C647.007 247.529 643.739 250.189 639.738 250.197C635.737 250.205 632.459 247.559 632.452 244.317L632.441 239.218C632.434 235.976 635.702 233.316 639.703 233.308C643.703 233.299 646.983 235.945 646.989 239.188ZM409.064 219.298L409.075 224.397C409.081 227.639 405.814 230.299 401.813 230.307C397.812 230.316 394.533 227.67 394.526 224.428L394.516 219.329C394.509 216.087 397.777 213.427 401.777 213.419C405.778 213.41 409.057 216.056 409.064 219.298ZM580.44 192.166L580.492 216.703C580.498 219.771 577.407 222.286 573.623 222.295C569.838 222.303 566.736 219.8 566.73 216.733L566.678 192.196C566.672 189.129 569.763 186.612 573.548 186.605C577.332 186.596 580.433 189.099 580.44 192.166ZM520.731 314.872L520.783 339.409C520.789 342.476 517.698 344.992 513.914 345C510.129 345.008 507.027 342.505 507.021 339.438L506.969 314.901C506.963 311.834 510.054 309.318 513.838 309.31C517.623 309.302 520.725 311.804 520.731 314.872ZM471.544 342.861L437.053 342.66C430.258 342.621 424.738 335.676 424.787 327.228C424.836 318.78 430.436 311.9 437.231 311.94L471.721 312.141C478.516 312.18 484.036 319.125 483.987 327.573C483.938 336.021 478.339 342.901 471.544 342.861Z" fill="url(#paint9_linear_49_303)"/>
<path d="M623.938 273.14C625.56 271.685 627.44 282.004 629.262 284.788C631.084 287.572 631.657 279.845 633.109 280.987C636.201 283.42 633.043 291.629 633.243 292.21C633.746 293.675 637 297.107 637 297.107C637 297.107 630.289 302.089 629.924 300.781C629.559 299.473 627.241 294.943 625.04 291.751C620.073 284.551 622.315 274.595 623.938 273.14Z" fill="url(#paint10_linear_49_303)"/>
<path d="M684.949 304.722C681.572 313.213 666.361 334.818 655.18 335.97C642.968 337.227 628 298.446 628 298.446L636.139 293.349L653.681 316.833C659.195 314.467 662.367 292.742 671.82 286.683C677.038 283.338 689.712 292.745 684.949 304.722Z" fill="url(#paint11_linear_49_303)"/>
<path d="M636 291.236L632.682 293L621 270.764L624.318 269L636 291.236Z" fill="#414C96"/>
<path d="M625.155 275.126C627.114 273.639 628.063 285.757 629.777 289.183C631.491 292.608 632.976 283.766 634.46 285.254C637.62 288.424 633.215 297.516 633.373 298.209C633.77 299.958 637 304.298 637 304.298C637 304.298 629.011 309.251 628.751 307.699C628.49 306.148 626.418 300.651 624.328 296.712C619.615 287.825 623.196 276.612 625.155 275.126Z" fill="url(#paint12_linear_49_303)"/>
<path d="M714.934 326.12C713.443 322.479 711.05 319.018 711.055 315.069C711.062 310.839 713.85 307.067 714.174 302.85C714.652 296.631 709.79 291.402 704.916 287.654C702.46 285.764 699.76 283.828 698.706 280.874C697.402 277.223 699.011 273.2 698.902 269.314C698.766 264.438 695.628 259.783 691.223 257.922C688.949 256.963 686.356 256.669 684.402 255.14C682.681 253.794 681.717 251.687 680.312 249.999C676.324 245.211 668.405 244.624 663.783 248.771C659.161 252.919 658.697 261.03 662.817 265.701C662.865 281.504 666.328 295.45 672.488 307.932C675.935 314.081 676.861 321.658 674.997 328.484C674.283 331.103 673.167 333.685 673.257 336.401C673.393 340.521 676.689 344.297 680.674 344.898C688.141 346.027 694.051 337.378 701.597 337.152C705.659 337.031 710.168 339.311 713.512 336.95C716.688 334.708 716.424 329.763 714.934 326.12Z" fill="#1F1C80"/>
<path d="M687.347 386C682.826 382.48 660.313 369.216 652 362.878C654.362 360.039 663.932 339.684 659.442 323.835C654.406 306.062 668.775 288.951 668.775 288.951L679.774 285C679.774 285 696.982 290.443 699.385 309.708C702.183 332.136 694.962 362.499 687.347 386Z" fill="url(#paint13_linear_49_303)"/>
<path d="M680 285.61C675.291 289.576 670.786 293.072 669.383 289.542L669.147 288.162L668.085 281.717L668 281.242L668.904 280.419L677.051 273L679.257 282.42L680 285.61Z" fill="#F7C1CE"/>
<path d="M680 285.61C675.291 289.576 670.786 293.072 669.383 289.542L669.147 288.162L668.085 281.717L668 281.242L668.904 280.419L677.051 273L679.257 282.42L680 285.61Z" fill="url(#paint14_linear_49_303)"/>
<path d="M679.5 283C675.98 286.069 673 286 669 287L667 280.612L667.954 279.33L677.452 272L679.5 283Z" fill="url(#paint15_linear_49_303)"/>
<path d="M677.303 269.007C671.346 270.271 664.25 254.856 663.166 260.087C660.65 272.23 662.535 280.969 665.695 282.421C670.457 284.609 679.313 280.353 680.323 273.688C680.323 273.688 685.282 270.617 683.682 268.169C681.481 264.8 677.303 269.007 677.303 269.007Z" fill="url(#paint16_linear_49_303)"/>
<path d="M691.108 318.9C686.238 327.886 666.196 350 653.141 350C638.883 350 626 305.501 626 305.501L635.987 300.802L653.589 328.711C660.232 326.727 666.372 303.11 677.989 297.499C684.401 294.403 697.979 306.223 691.108 318.9Z" fill="url(#paint17_linear_49_303)"/>
<path d="M565 391.11C560.867 393.068 557.183 394.472 552.881 396C550.133 393.392 546.781 390.963 544 388.394C547.503 385.098 550.765 381.613 553.945 378C557.66 382.344 561.277 386.773 565 391.11Z" fill="#F7C1CE"/>
<path d="M565 391.11C560.867 393.068 557.183 394.472 552.881 396C550.133 393.392 546.781 390.963 544 388.394C547.503 385.098 550.765 381.613 553.945 378C557.66 382.344 561.277 386.773 565 391.11Z" fill="url(#paint18_linear_49_303)"/>
<path d="M689 384.65C684.639 407.044 663.112 412.164 648.381 410.245C635.745 408.598 622.919 394.752 599.097 375.017C587.516 383.893 572.77 390.941 559.149 395.769C555.022 391.434 551.114 386.047 549.069 379.964C566.268 367.347 592.449 340.681 603.773 342.051C628.993 345.102 664.271 371.825 689 384.65ZM553.062 396.643C552.161 399.452 552.907 400.085 551.481 403.328C550.056 406.572 548.129 409.268 546.434 413C545.395 412.866 543.747 412.203 542.763 411.938C543.339 407.543 543.617 406.304 544.042 401.935C542.005 403.75 538.537 406.528 536.852 408.183C535.167 409.838 534.742 410.672 532.806 410.232C527.698 409.071 510.262 403.534 511.024 397.531C511.788 391.528 525.399 398.355 529.472 395.932C533.545 393.508 538.388 390.765 542.549 388.345C546.368 390.755 549.189 394.346 553.062 396.643Z" fill="url(#paint19_linear_49_303)"/>
<path d="M515.379 77.4907L517.619 75.2365C517.863 74.9908 518 74.6575 518 74.3101C518 73.9626 517.863 73.6294 517.619 73.3837C517.498 73.2621 517.354 73.1656 517.196 73.0997C517.038 73.0339 516.869 73 516.698 73C516.353 73 516.022 73.138 515.778 73.3837L513.537 75.6379L511.297 73.3837C511.053 73.138 510.722 73 510.377 73C510.031 73 509.7 73.138 509.456 73.3837C509.212 73.6294 509.075 73.9626 509.075 74.3101C509.075 74.6575 509.212 74.9908 509.456 75.2365L511.696 77.4907L509.46 79.7407C509.336 79.8617 509.238 80.0062 509.17 80.1659C509.102 80.3256 509.066 80.4973 509.065 80.671C509.064 80.8447 509.097 81.0169 509.162 81.1777C509.228 81.3384 509.324 81.4844 509.446 81.6073C509.568 81.7301 509.713 81.8273 509.873 81.8932C510.033 81.9591 510.204 81.9923 510.376 81.9911C510.549 81.9898 510.72 81.954 510.878 81.8857C511.037 81.8175 511.181 81.7181 511.301 81.5935L513.537 79.3434L515.773 81.5935C516.027 81.8491 516.36 81.9774 516.693 81.9774C517.026 81.9774 517.36 81.8496 517.614 81.5935C517.734 81.4718 517.83 81.3274 517.896 81.1685C517.961 81.0095 517.995 80.8392 517.995 80.6671C517.995 80.4951 517.961 80.3247 517.896 80.1658C517.83 80.0068 517.734 79.8624 517.614 79.7407L515.379 77.4907ZM224.314 195.5L226.554 193.246C226.675 193.124 226.771 192.98 226.836 192.821C226.901 192.662 226.935 192.492 226.935 192.319C226.935 192.147 226.901 191.977 226.836 191.818C226.771 191.659 226.675 191.515 226.554 191.393C226.433 191.271 226.289 191.175 226.131 191.109C225.973 191.043 225.804 191.009 225.633 191.009C225.462 191.009 225.293 191.043 225.135 191.109C224.977 191.175 224.833 191.271 224.713 191.393L222.472 193.647L220.232 191.393C220.111 191.271 219.968 191.175 219.81 191.109C219.652 191.043 219.483 191.009 219.312 191.009C219.141 191.009 218.972 191.043 218.814 191.109C218.656 191.175 218.512 191.271 218.391 191.393C218.27 191.515 218.174 191.659 218.109 191.818C218.044 191.977 218.01 192.147 218.01 192.319C218.01 192.492 218.044 192.662 218.109 192.821C218.174 192.98 218.27 193.124 218.391 193.246L220.631 195.5L218.395 197.75C218.271 197.871 218.173 198.015 218.105 198.175C218.037 198.335 218.001 198.506 218 198.68C217.999 198.854 218.032 199.026 218.097 199.187C218.163 199.347 218.259 199.493 218.381 199.616C218.503 199.739 218.648 199.836 218.808 199.902C218.968 199.968 219.139 200.001 219.311 200C219.484 199.999 219.655 199.963 219.813 199.895C219.972 199.826 220.116 199.727 220.236 199.602L222.472 197.352L224.708 199.602C224.829 199.724 224.972 199.821 225.13 199.887C225.288 199.953 225.457 199.986 225.628 199.986C225.886 199.986 226.138 199.909 226.352 199.766C226.566 199.622 226.733 199.417 226.831 199.177C226.93 198.938 226.955 198.675 226.905 198.42C226.855 198.166 226.731 197.933 226.549 197.75L224.314 195.5Z" fill="white"/>
<path d="M748.928 135C745.58 135 742.855 132.292 742.855 128.963C742.855 125.634 745.579 122.926 748.928 122.926C752.276 122.926 755 125.634 755 128.963C755 132.291 752.276 135 748.928 135ZM748.928 124.815C746.627 124.815 744.756 126.676 744.756 128.963C744.756 131.25 746.628 133.111 748.928 133.111C751.228 133.111 753.1 131.25 753.1 128.963C753.1 126.676 751.228 124.815 748.928 124.815ZM424.072 64.0744C420.724 64.0744 418 61.3663 418 58.0372C418 54.7086 420.724 52 424.072 52C427.42 52 430.145 54.7081 430.145 58.0372C430.145 61.3663 427.421 64.0744 424.072 64.0744ZM424.072 53.8894C421.772 53.8894 419.9 55.7501 419.9 58.0372C419.9 60.3243 421.772 62.1849 424.072 62.1849C426.373 62.1849 428.244 60.3243 428.244 58.0372C428.245 55.7501 426.373 53.8894 424.072 53.8894Z" fill="white"/>
<path d="M632.65 51.7838C632.815 52.0476 632.924 52.3413 632.972 52.6478C633.02 52.9542 633.006 53.267 632.93 53.5678C632.833 53.969 632.631 54.3375 632.343 54.6354C632.055 54.9334 631.692 55.1501 631.292 55.2632L623.352 57.5562C622.953 57.674 622.53 57.6845 622.125 57.5866C621.721 57.4887 621.35 57.2859 621.051 56.9991C620.748 56.7156 620.528 56.3576 620.411 55.9617C620.295 55.5659 620.286 55.1465 620.388 54.7466L622.352 46.7921C622.448 46.3909 622.651 46.0224 622.939 45.7244C623.227 45.4265 623.589 45.2098 623.99 45.0967C624.389 44.979 624.812 44.9685 625.217 45.0665C625.621 45.1645 625.992 45.3674 626.291 45.6543L632.266 51.3158C632.416 51.4585 632.545 51.6157 632.65 51.7838ZM622.26 55.5613C622.289 55.6077 622.32 55.6418 622.342 55.6627C622.405 55.7222 622.579 55.8531 622.829 55.7804L630.768 53.4879C631.019 53.4151 631.094 53.2129 631.115 53.1289C631.137 53.0443 631.135 52.9555 631.11 52.8717C631.086 52.788 631.039 52.7123 630.974 52.6526L624.999 46.9912C624.936 46.9301 624.858 46.8869 624.772 46.8661C624.687 46.8454 624.597 46.8477 624.513 46.873C624.429 46.8971 624.228 46.9802 624.166 47.2315L622.202 55.186C622.185 55.2492 622.182 55.3151 622.192 55.3796C622.202 55.4441 622.225 55.5059 622.26 55.5613ZM282.333 80.1308C282.497 80.3946 282.607 80.6883 282.655 80.9948C282.703 81.3012 282.689 81.614 282.613 81.9148C282.516 82.316 282.313 82.6845 282.025 82.9824C281.738 83.2804 281.375 83.4971 280.974 83.6102L273.035 85.9032C272.636 86.021 272.213 86.0315 271.808 85.9336C271.404 85.8357 271.033 85.6329 270.733 85.3461C270.431 85.0626 270.21 84.7046 270.094 84.3087C269.977 83.9129 269.969 83.4935 270.07 83.0936L272.034 75.1391C272.131 74.7379 272.333 74.3694 272.621 74.0714C272.909 73.7735 273.272 73.5568 273.673 73.4437C274.072 73.326 274.495 73.3155 274.9 73.4135C275.304 73.5115 275.675 73.7144 275.974 74.0013L281.949 79.6628C282.099 79.8055 282.228 79.9627 282.333 80.1308ZM271.943 83.9079C271.972 83.9542 272.003 83.9883 272.025 84.0092C272.088 84.0687 272.262 84.1996 272.512 84.1269L280.451 81.8344C280.702 81.7617 280.777 81.5595 280.798 81.4754C280.819 81.3909 280.818 81.3021 280.793 81.2183C280.768 81.1345 280.721 81.0588 280.657 80.9992L274.682 75.3377C274.619 75.2766 274.541 75.2335 274.455 75.2127C274.369 75.1919 274.28 75.1943 274.195 75.2196C274.112 75.2436 273.911 75.3268 273.848 75.5781L271.884 83.5325C271.845 83.6961 271.889 83.8224 271.943 83.9079Z" fill="white"/>
<ellipse cx="460.5" cy="299.5" rx="18.5" ry="3.5" fill="#D0CEF2"/>
<path d="M470.748 235.692C468.185 234.846 465.194 234 462.204 234C448.534 234 437 245 437 258.962C437 267.423 446.398 281.808 453.233 291.538C455.369 294.5 457.078 296.615 458.359 298.731C459.641 300.423 461.777 300.423 463.058 298.731C469.466 291.115 486.981 270.385 486.981 259.385C487.408 247.962 480.573 239.077 470.748 235.692ZM462.204 269.115C455.796 269.115 450.67 264.038 450.67 257.692C450.67 251.346 455.796 246.269 462.204 246.269C468.612 246.269 473.738 251.346 473.738 257.692C473.738 264.038 468.612 269.115 462.204 269.115Z" fill="url(#paint20_linear_49_303)"/>
<path d="M462 241C453.158 241 446 248.158 446 257C446 265.842 453.158 273 462 273C470.842 273 478 265.842 478 257C478 248.158 470.842 241 462 241ZM462 268.789C455.684 268.789 450.632 263.737 450.632 257.421C450.632 251.105 455.684 246.053 462 246.053C468.316 246.053 473.368 251.105 473.368 257.421C473.368 263.737 468.316 268.789 462 268.789Z" fill="#10AA95"/>
<defs>
<linearGradient id="paint0_linear_49_303" x1="490" y1="-49" x2="490" y2="549" gradientUnits="userSpaceOnUse">
<stop offset="0.0239582" stop-color="#46BBFD"/>
<stop offset="1" stop-color="#003397"/>
</linearGradient>
<linearGradient id="paint1_linear_49_303" x1="799" y1="461.055" x2="807.43" y2="461.055" gradientUnits="userSpaceOnUse">
<stop stop-color="white"/>
<stop offset="1" stop-color="white" stop-opacity="0.82"/>
</linearGradient>
<linearGradient id="paint2_linear_49_303" x1="807.43" y1="470.528" x2="832.717" y2="470.528" gradientUnits="userSpaceOnUse">
<stop stop-color="white"/>
<stop offset="1" stop-color="white" stop-opacity="0.82"/>
</linearGradient>
<linearGradient id="paint3_linear_49_303" x1="807.573" y1="451.543" x2="832.654" y2="451.543" gradientUnits="userSpaceOnUse">
<stop stop-color="white"/>
<stop offset="1" stop-color="white" stop-opacity="0.82"/>
</linearGradient>
<linearGradient id="paint4_linear_49_303" x1="298" y1="342" x2="309.553" y2="289.512" gradientUnits="userSpaceOnUse">
<stop stop-color="#007D52"/>
<stop offset="1" stop-color="#29E3A2"/>
</linearGradient>
<linearGradient id="paint5_linear_49_303" x1="307.5" y1="357" x2="320.874" y2="301.262" gradientUnits="userSpaceOnUse">
<stop stop-color="#007D52"/>
<stop offset="0.935613" stop-color="#29E3A2"/>
</linearGradient>
<linearGradient id="paint6_linear_49_303" x1="706" y1="293" x2="743.811" y2="296.301" gradientUnits="userSpaceOnUse">
<stop stop-color="#008054"/>
<stop offset="1" stop-color="#29E3A2"/>
</linearGradient>
<linearGradient id="paint7_linear_49_303" x1="707.5" y1="309.5" x2="746.06" y2="318.155" gradientUnits="userSpaceOnUse">
<stop stop-color="#007D52"/>
<stop offset="1" stop-color="#29E3A2"/>
</linearGradient>
<linearGradient id="paint8_linear_49_303" x1="494" y1="93" x2="494" y2="374" gradientUnits="userSpaceOnUse">
<stop stop-color="#BCC4FF"/>
<stop offset="1" stop-color="#86A0FC"/>
</linearGradient>
<linearGradient id="paint9_linear_49_303" x1="491.876" y1="156.505" x2="496.519" y2="348.342" gradientUnits="userSpaceOnUse">
<stop stop-color="#C7D9FF"/>
<stop offset="1" stop-color="#C7D9FF"/>
</linearGradient>
<linearGradient id="paint10_linear_49_303" x1="626.5" y1="273" x2="629.5" y2="301" gradientUnits="userSpaceOnUse">
<stop stop-color="#FFD0D0"/>
<stop offset="0.810968" stop-color="#FFD0D0"/>
</linearGradient>
<linearGradient id="paint11_linear_49_303" x1="657" y1="286" x2="657" y2="336" gradientUnits="userSpaceOnUse">
<stop offset="0.0656249" stop-color="#DD32B3"/>
<stop offset="0.468526" stop-color="#FF60D7"/>
<stop offset="1" stop-color="#FFC8F1"/>
</linearGradient>
<linearGradient id="paint12_linear_49_303" x1="624.5" y1="260" x2="629.5" y2="308" gradientUnits="userSpaceOnUse">
<stop stop-color="white"/>
<stop offset="0.801844" stop-color="#FFD0D0"/>
</linearGradient>
<linearGradient id="paint13_linear_49_303" x1="676" y1="285" x2="676" y2="386" gradientUnits="userSpaceOnUse">
<stop offset="0.468526" stop-color="#FF60D7"/>
<stop offset="1" stop-color="#FFC8F1"/>
</linearGradient>
<linearGradient id="paint14_linear_49_303" x1="674" y1="273" x2="674" y2="291" gradientUnits="userSpaceOnUse">
<stop stop-color="white"/>
<stop offset="1" stop-color="#FFD0D0"/>
</linearGradient>
<linearGradient id="paint15_linear_49_303" x1="673.25" y1="272" x2="673.25" y2="287" gradientUnits="userSpaceOnUse">
<stop offset="0.629075" stop-color="#F8BAC9"/>
<stop offset="1" stop-color="#FFE4EB"/>
</linearGradient>
<linearGradient id="paint16_linear_49_303" x1="673" y1="259" x2="673" y2="283" gradientUnits="userSpaceOnUse">
<stop stop-color="white"/>
<stop offset="0.84427" stop-color="#FFD0D0"/>
</linearGradient>
<linearGradient id="paint17_linear_49_303" x1="659.5" y1="297" x2="659.5" y2="350" gradientUnits="userSpaceOnUse">
<stop stop-color="#FA4ACE"/>
<stop offset="0.468526" stop-color="#FF60D7"/>
<stop offset="1" stop-color="#FFC8F1"/>
</linearGradient>
<linearGradient id="paint18_linear_49_303" x1="554.5" y1="378" x2="554.5" y2="396" gradientUnits="userSpaceOnUse">
<stop stop-color="white"/>
<stop offset="1" stop-color="#FFD0D0"/>
</linearGradient>
<linearGradient id="paint19_linear_49_303" x1="600" y1="342" x2="600" y2="413" gradientUnits="userSpaceOnUse">
<stop stop-color="#180776"/>
<stop offset="1" stop-color="#9987FF"/>
</linearGradient>
<linearGradient id="paint20_linear_49_303" x1="462" y1="234" x2="462" y2="300" gradientUnits="userSpaceOnUse">
<stop stop-color="#08E6A3"/>
<stop offset="1" stop-color="#D8FFE1"/>
</linearGradient>
<clipPath id="clip0_49_303">
<rect width="160.567" height="38" fill="white" transform="translate(799 442)"/>
</clipPath>
</defs>
</svg>
