<svg width="980" height="500" viewBox="0 0 980 500" fill="none" xmlns="http://www.w3.org/2000/svg">
<rect width="980" height="500" fill="url(#paint0_linear_215_7128)"/>
<path d="M722.686 180.094C697.441 169.382 666.238 168.747 638.613 163.285C623.338 160.265 608.268 155.822 595.341 148.745C588.88 145.207 582.937 141.015 578.085 136.024C573.781 131.596 571.922 125.309 567.313 121.39C546.45 103.643 509.687 120.109 486.356 128.54C459.706 138.169 428.467 135.428 401.986 131.292C369.177 126.167 328.373 113.362 293.901 121.664C247.751 132.779 269.978 215.545 269.978 215.545C140.943 207.069 91.8893 347.952 312.53 389.31C392.863 404.369 481.648 399.843 562.888 377.092C588.896 369.807 633.849 371.625 657.682 359.787C664.892 356.204 671.994 352.467 678.988 348.574C680.544 347.708 682.099 346.841 683.651 345.974C720.957 324.983 764.3 298.705 770.937 259.598C776.453 227.081 756.585 194.479 722.686 180.094Z" fill="white" fill-opacity="0.16"/>
<path d="M302.337 444.064C369.394 444.064 423.754 437.178 423.754 428.684C423.754 420.189 369.394 413.303 302.337 413.303C235.281 413.303 180.921 420.189 180.921 428.684C180.921 437.178 235.281 444.064 302.337 444.064Z" fill="white" fill-opacity="0.16"/>
<path d="M395.026 122.126H392.064C390.79 122.126 389.758 123.158 389.758 124.432V162.054C389.758 163.327 390.79 164.36 392.064 164.36H395.026C396.3 164.36 397.332 163.327 397.332 162.054V124.432C397.332 123.158 396.3 122.126 395.026 122.126Z" fill="url(#paint1_linear_215_7128)"/>
<path d="M201.813 122.126H198.851C197.577 122.126 196.545 123.158 196.545 124.432V204.679C196.545 205.953 197.577 206.985 198.851 206.985H201.813C203.087 206.985 204.119 205.953 204.119 204.679V124.432C204.119 123.158 203.087 122.126 201.813 122.126Z" fill="url(#paint2_linear_215_7128)"/>
<path d="M374.68 54.0643H218.926C208.655 54.0643 200.329 62.3903 200.329 72.6608V410.087C200.329 420.358 208.655 428.684 218.926 428.684H374.68C384.95 428.684 393.276 420.358 393.276 410.087V72.6608C393.276 62.3903 384.95 54.0643 374.68 54.0643Z" fill="url(#paint3_linear_215_7128)"/>
<path d="M381.992 84.9945H211.616C209.662 84.9945 208.078 86.5783 208.078 88.5321V395.62C208.078 397.573 209.662 399.157 211.616 399.157H381.992C383.946 399.157 385.529 397.573 385.529 395.62V88.5321C385.529 86.5783 383.946 84.9945 381.992 84.9945Z" fill="white"/>
<path d="M314.632 406.818H278.975C276.775 406.818 274.992 408.601 274.992 410.801V416.392C274.992 418.592 276.775 420.375 278.975 420.375H314.632C316.832 420.375 318.615 418.592 318.615 416.392V410.801C318.615 408.601 316.832 406.818 314.632 406.818Z" fill="white"/>
<path d="M307.663 65.0087H271.53C270.256 65.0087 269.224 66.0411 269.224 67.3146V70.5532C269.224 71.8267 270.256 72.8591 271.53 72.8591H307.663C308.936 72.8591 309.969 71.8267 309.969 70.5532V67.3146C309.969 66.0411 308.936 65.0087 307.663 65.0087Z" fill="white"/>
<path d="M322.078 65.0087H319.115C317.842 65.0087 316.81 66.0411 316.81 67.3146V70.5532C316.81 71.8267 317.842 72.8591 319.115 72.8591H322.078C323.351 72.8591 324.384 71.8267 324.384 70.5532V67.3146C324.384 66.0411 323.351 65.0087 322.078 65.0087Z" fill="white"/>
<path d="M370.55 98.8867H272.226C271.305 98.8867 270.394 99.0682 269.543 99.4208C268.692 99.7735 267.919 100.29 267.268 100.942C266.617 101.593 266.101 102.367 265.749 103.218C265.398 104.069 265.217 104.981 265.218 105.902C265.218 107.761 265.956 109.543 267.271 110.858C268.585 112.172 270.368 112.91 272.226 112.91H370.55C372.409 112.91 374.192 112.172 375.506 110.858C376.82 109.543 377.559 107.761 377.559 105.902C377.56 104.981 377.379 104.069 377.027 103.218C376.675 102.367 376.159 101.593 375.508 100.942C374.857 100.29 374.084 99.7735 373.234 99.4208C372.383 99.0682 371.471 98.8867 370.55 98.8867Z" fill="url(#paint4_linear_215_7128)"/>
<path d="M272.394 101.882C271.718 101.57 270.947 101.533 270.244 101.779C269.542 102.025 268.962 102.534 268.627 103.199C268.471 103.528 268.382 103.884 268.366 104.247C268.35 104.611 268.407 104.973 268.533 105.314C268.66 105.655 268.853 105.967 269.103 106.232C269.352 106.497 269.652 106.709 269.984 106.856C270.596 107.135 271.285 107.192 271.934 107.018C272.069 106.982 272.201 106.937 272.329 106.883C272.949 106.622 273.454 106.144 273.749 105.54C273.906 105.211 273.995 104.855 274.012 104.491C274.028 104.128 273.972 103.765 273.845 103.424C273.719 103.083 273.525 102.771 273.276 102.506C273.027 102.241 272.727 102.029 272.394 101.882ZM273.278 105.323C273.006 105.866 272.533 106.282 271.96 106.482C271.387 106.683 270.758 106.652 270.207 106.397C269.935 106.278 269.69 106.105 269.487 105.889C269.283 105.673 269.125 105.418 269.022 105.14C268.918 104.862 268.872 104.566 268.886 104.269C268.899 103.973 268.972 103.682 269.1 103.414C269.373 102.871 269.846 102.456 270.42 102.256C270.993 102.055 271.622 102.085 272.173 102.34C272.445 102.459 272.69 102.632 272.894 102.848C273.098 103.064 273.256 103.318 273.359 103.597C273.463 103.875 273.509 104.171 273.496 104.468C273.482 104.765 273.41 105.056 273.281 105.323H273.278Z" fill="#068480"/>
<path d="M272.173 102.34C271.621 102.085 270.992 102.055 270.419 102.256C269.846 102.456 269.373 102.871 269.1 103.414C268.972 103.682 268.899 103.972 268.885 104.269C268.872 104.566 268.918 104.862 269.021 105.14C269.124 105.418 269.282 105.673 269.486 105.889C269.69 106.105 269.935 106.278 270.206 106.397C270.758 106.652 271.386 106.683 271.959 106.482C272.533 106.282 273.005 105.866 273.278 105.323C273.406 105.056 273.479 104.765 273.492 104.468C273.506 104.172 273.46 103.876 273.357 103.598C273.254 103.319 273.096 103.065 272.892 102.848C272.689 102.632 272.444 102.459 272.173 102.34Z" fill="white"/>
<path d="M272.329 106.877C272.201 106.931 272.069 106.977 271.934 107.012L273.876 110.999C273.897 111.042 273.932 111.076 273.975 111.095C274.003 111.108 274.034 111.115 274.065 111.115C274.096 111.115 274.126 111.108 274.154 111.095C274.179 111.084 274.201 111.069 274.219 111.049C274.237 111.03 274.252 111.007 274.261 110.981C274.27 110.956 274.274 110.93 274.273 110.903C274.272 110.876 274.265 110.85 274.253 110.826L272.329 106.877ZM271.449 102.439C271.203 102.405 270.954 102.4 270.708 102.423C270.688 102.424 270.669 102.433 270.655 102.447C270.641 102.461 270.632 102.479 270.63 102.499C270.629 102.505 270.629 102.511 270.63 102.517C270.631 102.528 270.635 102.539 270.64 102.549C270.646 102.559 270.654 102.568 270.663 102.575C270.672 102.582 270.682 102.587 270.693 102.59C270.704 102.593 270.716 102.593 270.727 102.592C270.738 102.592 271.986 102.454 272.476 103.141C272.489 103.16 272.509 103.173 272.532 103.177C272.555 103.181 272.578 103.175 272.597 103.162C272.607 103.156 272.615 103.148 272.621 103.138C272.627 103.129 272.632 103.119 272.634 103.108C272.636 103.097 272.636 103.085 272.633 103.074C272.631 103.063 272.627 103.053 272.62 103.043C272.391 102.722 271.98 102.512 271.449 102.439Z" fill="#068480"/>
<path d="M243.917 98.8867H243.915C240.075 98.8867 236.962 102 236.962 105.84V105.952C236.962 109.792 240.075 112.906 243.915 112.906H243.917C247.757 112.906 250.87 109.792 250.87 105.952V105.84C250.87 102 247.757 98.8867 243.917 98.8867Z" fill="url(#paint5_linear_215_7128)"/>
<path d="M240.554 103.04L246.264 105.881V105.91L240.554 108.751V109.75L247.276 106.302V105.491L240.554 102.041V103.04Z" fill="#068480"/>
<path d="M227.327 98.8867C225.483 98.8867 223.715 99.6193 222.411 100.923C221.107 102.227 220.374 103.996 220.374 105.84V105.951C220.374 107.795 221.107 109.563 222.411 110.867C223.715 112.171 225.483 112.904 227.327 112.904C229.172 112.904 230.94 112.171 232.244 110.867C233.548 109.563 234.281 107.795 234.281 105.951V105.84C234.28 103.996 233.548 102.228 232.244 100.924C230.94 99.6199 229.171 98.8871 227.327 98.8867Z" fill="url(#paint6_linear_215_7128)"/>
<path d="M223.967 106.302L230.689 109.75V108.751L224.981 105.91V105.881L230.689 103.04V102.041L223.967 105.491V106.302Z" fill="#068480"/>
<path d="M270.295 150.183H267.248V147.827H270.079C270.264 147.834 270.449 147.801 270.62 147.73C270.792 147.66 270.946 147.554 271.073 147.419C271.195 147.296 271.291 147.15 271.355 146.99C271.419 146.829 271.449 146.657 271.445 146.485C271.45 146.137 271.323 145.8 271.091 145.54C270.958 145.409 270.8 145.307 270.626 145.241C270.451 145.174 270.265 145.144 270.079 145.152H267.248V142.859H270.295C270.75 142.859 271.094 142.736 271.325 142.487C271.543 142.221 271.658 141.886 271.65 141.543C271.661 141.362 271.634 141.18 271.57 141.01C271.506 140.84 271.406 140.685 271.278 140.557C271.148 140.435 270.994 140.341 270.827 140.28C270.659 140.219 270.481 140.193 270.303 140.202H265.758C265.402 140.201 265.059 140.334 264.798 140.574C264.515 140.799 264.373 141.159 264.373 141.657V151.421C264.365 151.797 264.505 152.161 264.763 152.434C264.909 152.573 265.082 152.681 265.271 152.751C265.46 152.821 265.661 152.852 265.862 152.842H270.295C270.802 152.842 271.169 152.712 271.393 152.452C271.638 152.179 271.766 151.821 271.749 151.455C271.752 151.289 271.723 151.124 271.661 150.97C271.6 150.815 271.509 150.674 271.393 150.555C271.169 150.308 270.797 150.183 270.295 150.183ZM277.635 146.738H273.696C273.332 146.726 272.976 146.853 272.702 147.092C272.579 147.195 272.479 147.322 272.408 147.466C272.338 147.61 272.299 147.767 272.294 147.928C272.299 148.08 272.337 148.23 272.404 148.366C272.471 148.503 272.566 148.625 272.684 148.722C272.967 148.957 273.328 149.077 273.696 149.059H277.635C277.808 149.07 277.982 149.045 278.146 148.988C278.309 148.93 278.459 148.84 278.587 148.722C278.7 148.623 278.791 148.501 278.852 148.364C278.914 148.227 278.945 148.078 278.943 147.928C278.946 147.769 278.915 147.611 278.854 147.464C278.793 147.317 278.702 147.185 278.587 147.074C278.459 146.957 278.309 146.867 278.146 146.809C277.982 146.751 277.808 146.727 277.635 146.738ZM292.457 146.496C292.061 146.181 291.589 145.978 291.088 145.908C292.082 145.366 292.579 144.554 292.579 143.47C292.587 142.875 292.428 142.29 292.119 141.782C291.816 141.289 291.382 140.89 290.864 140.631C290.322 140.346 289.718 140.2 289.106 140.207H285.653C285.46 140.194 285.268 140.222 285.087 140.29C284.906 140.357 284.742 140.462 284.605 140.597C284.476 140.734 284.377 140.896 284.313 141.073C284.249 141.25 284.222 141.438 284.233 141.626V151.392C284.233 151.872 284.38 152.233 284.675 152.474C284.945 152.711 285.291 152.843 285.65 152.846H289.285C289.972 152.866 290.657 152.751 291.301 152.508C291.829 152.314 292.308 152.006 292.705 151.608C293.037 151.216 293.29 150.764 293.45 150.276C293.547 149.881 293.602 149.478 293.612 149.072C293.623 148.569 293.525 148.07 293.326 147.609C293.129 147.174 292.831 146.793 292.457 146.496ZM287.107 142.773H288.407C289.259 142.773 289.702 143.152 289.736 143.911C289.736 144.736 289.282 145.149 288.373 145.149H287.106L287.107 142.773ZM288.95 150.264H287.107V147.682H288.835C289.403 147.682 289.842 147.794 290.146 148.019C290.302 148.118 290.43 148.257 290.515 148.421C290.601 148.585 290.642 148.769 290.633 148.955C290.631 149.828 290.07 150.264 288.95 150.264ZM304.807 141.725C304.537 141.433 304.237 141.17 303.911 140.942C303.58 140.709 303.221 140.518 302.842 140.375C301.206 139.763 299.405 139.763 297.769 140.375C297.397 140.52 297.044 140.707 296.716 140.934C296.385 141.165 296.079 141.431 295.802 141.725C295.23 142.326 294.798 143.048 294.54 143.837C294.231 144.707 294.082 145.625 294.098 146.548C294.084 147.459 294.233 148.365 294.54 149.223C294.809 150.002 295.239 150.716 295.802 151.317C296.35 151.907 297.022 152.368 297.769 152.668C299.404 153.281 301.206 153.281 302.842 152.668C303.59 152.38 304.262 151.924 304.807 151.335C305.36 150.728 305.787 150.016 306.061 149.241C306.371 148.377 306.523 147.465 306.511 146.548C306.525 145.619 306.373 144.696 306.061 143.821C305.792 143.043 305.365 142.329 304.807 141.725ZM303.087 148.477C302.885 149.039 302.525 149.532 302.051 149.895C301.548 150.279 300.927 150.475 300.296 150.45C299.259 150.45 298.486 150.07 297.978 149.312C297.442 148.554 297.171 147.633 297.166 146.55C297.156 145.882 297.266 145.217 297.491 144.588C297.696 144.021 298.053 143.523 298.524 143.147C299.029 142.767 299.648 142.571 300.279 142.593C300.911 142.568 301.531 142.764 302.034 143.147C302.507 143.52 302.866 144.017 303.071 144.583C303.294 145.215 303.404 145.88 303.396 146.55C303.41 147.205 303.305 147.858 303.087 148.477ZM317.623 141.725C317.353 141.433 317.053 141.171 316.728 140.942C316.396 140.709 316.037 140.518 315.658 140.375C314.022 139.763 312.221 139.763 310.585 140.375C310.214 140.52 309.861 140.707 309.532 140.934C309.201 141.165 308.895 141.431 308.619 141.725C308.046 142.326 307.615 143.048 307.356 143.837C307.048 144.707 306.898 145.625 306.914 146.548C306.9 147.459 307.05 148.365 307.356 149.223C307.625 150.002 308.055 150.716 308.619 151.317C309.167 151.907 309.838 152.368 310.585 152.668C312.221 153.281 314.023 153.281 315.658 152.668C316.406 152.379 317.078 151.923 317.623 151.335C318.177 150.728 318.603 150.016 318.877 149.241C319.187 148.377 319.34 147.465 319.328 146.548C319.342 145.619 319.189 144.696 318.877 143.821C318.609 143.043 318.182 142.329 317.623 141.725ZM315.909 148.477C315.706 149.039 315.346 149.531 314.872 149.895C314.369 150.279 313.749 150.475 313.117 150.45C312.08 150.45 311.308 150.07 310.8 149.312C310.258 148.554 309.987 147.633 309.987 146.55C309.977 145.882 310.087 145.217 310.312 144.588C310.517 144.021 310.874 143.523 311.346 143.147C311.85 142.767 312.469 142.571 313.101 142.593C313.732 142.568 314.353 142.764 314.856 143.147C315.328 143.52 315.688 144.017 315.892 144.583C316.115 145.215 316.225 145.88 316.217 146.55C316.231 147.205 316.126 147.858 315.909 148.477ZM325.691 146.088L329.094 142.627C329.423 142.342 329.633 141.943 329.682 141.51C329.671 141.15 329.519 140.808 329.258 140.558C328.999 140.279 328.642 140.112 328.262 140.092C328.017 140.098 327.777 140.157 327.558 140.264C327.338 140.372 327.144 140.525 326.989 140.714L322.927 145.111V141.652C322.927 140.653 322.454 140.131 321.507 140.085C321.317 140.078 321.128 140.109 320.95 140.178C320.773 140.246 320.612 140.35 320.476 140.483C320.331 140.625 320.218 140.797 320.145 140.986C320.071 141.176 320.04 141.379 320.052 141.582V151.451C320.035 151.837 320.161 152.217 320.407 152.517C320.526 152.651 320.673 152.759 320.837 152.832C321.001 152.905 321.179 152.942 321.359 152.941C321.761 152.954 322.156 152.829 322.477 152.585C322.776 152.361 322.927 151.971 322.927 151.416V147.274L327.28 152.149C327.759 152.679 328.233 152.944 328.701 152.946C328.901 152.957 329.101 152.925 329.288 152.851C329.475 152.778 329.643 152.666 329.783 152.521C330.066 152.2 330.211 151.781 330.189 151.353C330.123 151.012 329.957 150.698 329.713 150.451L325.691 146.088Z" fill="#0063BE"/>
<path d="M754.377 282.963L754.304 283.011C751.216 282.109 688.686 264.599 649.917 310.059C634.502 328.133 639.985 350.497 643.312 355.931C646.237 360.723 665.312 375.07 688.027 368.118C745.155 350.627 753.956 286.295 754.361 283.098L754.434 283.048L754.37 283.03C754.375 282.988 754.377 282.963 754.377 282.963Z" fill="url(#paint7_linear_215_7128)"/>
<path d="M752.702 284.429C740.794 292.229 728.977 299.852 717.55 307.229C692.348 323.502 668.541 338.871 643.466 356.106C643.443 356.122 643.423 356.142 643.408 356.165C643.392 356.188 643.382 356.214 643.377 356.242C643.372 356.269 643.372 356.297 643.378 356.324C643.384 356.352 643.395 356.377 643.411 356.4C643.43 356.428 643.456 356.451 643.487 356.467C643.517 356.483 643.551 356.491 643.585 356.491C643.628 356.491 643.669 356.478 643.705 356.454C668.775 339.229 692.578 323.855 717.779 307.585C729.207 300.206 741.024 292.577 752.932 284.782C752.958 284.768 752.98 284.748 752.997 284.725C753.015 284.702 753.028 284.676 753.035 284.648C753.042 284.62 753.043 284.59 753.038 284.562C753.033 284.533 753.022 284.506 753.006 284.481C752.991 284.457 752.97 284.436 752.946 284.42C752.921 284.405 752.894 284.394 752.865 284.389C752.837 284.384 752.807 284.385 752.779 284.392C752.751 284.399 752.725 284.412 752.702 284.429Z" fill="white"/>
<path d="M744.129 313.902C732.601 316.343 720.65 315.912 709.328 312.647C709.302 312.639 709.274 312.637 709.246 312.64C709.219 312.642 709.192 312.651 709.168 312.664C709.143 312.677 709.122 312.695 709.104 312.717C709.087 312.739 709.074 312.764 709.067 312.79C709.059 312.817 709.057 312.845 709.06 312.872C709.063 312.9 709.071 312.927 709.085 312.951C709.098 312.975 709.116 312.997 709.138 313.014C709.16 313.031 709.185 313.044 709.211 313.052C720.6 316.336 732.621 316.77 744.217 314.314C744.272 314.303 744.319 314.27 744.35 314.223C744.38 314.176 744.391 314.119 744.379 314.064C744.374 314.037 744.363 314.011 744.348 313.988C744.332 313.965 744.312 313.945 744.289 313.93C744.265 313.915 744.239 313.905 744.212 313.9C744.184 313.895 744.156 313.896 744.129 313.902ZM736.864 282.005C734.709 284.93 732.616 287.977 730.645 291.038L730.068 291.93C727.619 295.72 726.006 298.222 724.632 302.913C724.617 302.967 724.623 303.025 724.65 303.074C724.677 303.123 724.722 303.159 724.775 303.175C724.795 303.178 724.816 303.178 724.836 303.175C724.881 303.175 724.925 303.161 724.962 303.134C724.998 303.106 725.025 303.068 725.037 303.024C726.389 298.391 727.907 296.036 730.422 292.151L730.999 291.259C732.967 288.204 735.054 285.172 737.205 282.247C737.238 282.201 737.252 282.145 737.244 282.089C737.235 282.034 737.205 281.984 737.16 281.951C737.114 281.918 737.058 281.904 737.002 281.912C736.947 281.921 736.897 281.951 736.864 281.997V282.005ZM714.653 282.651C714.629 282.637 714.603 282.628 714.575 282.624C714.548 282.621 714.52 282.622 714.493 282.63C714.466 282.637 714.441 282.649 714.419 282.666C714.397 282.683 714.378 282.704 714.364 282.728C707.471 294.444 701.859 306.869 697.627 319.787C697.618 319.814 697.614 319.842 697.616 319.869C697.618 319.897 697.626 319.924 697.638 319.949C697.651 319.974 697.668 319.996 697.689 320.014C697.711 320.032 697.735 320.046 697.762 320.054C697.783 320.06 697.805 320.064 697.827 320.064C697.871 320.064 697.914 320.05 697.95 320.024C697.986 319.998 698.013 319.961 698.026 319.919C702.248 307.03 707.845 294.632 714.72 282.941C714.749 282.893 714.759 282.836 714.746 282.782C714.734 282.728 714.7 282.681 714.653 282.651ZM730.614 335.058C715.817 337.008 699.504 334.484 685.857 328.146C685.806 328.124 685.749 328.123 685.697 328.142C685.645 328.162 685.603 328.201 685.58 328.251C685.557 328.302 685.554 328.359 685.573 328.411C685.591 328.463 685.63 328.506 685.68 328.53C696.359 333.489 708.662 336.122 720.609 336.122C723.972 336.124 727.332 335.907 730.668 335.472C730.697 335.471 730.726 335.463 730.752 335.45C730.778 335.437 730.801 335.419 730.82 335.397C730.839 335.375 730.853 335.349 730.861 335.32C730.869 335.292 730.871 335.263 730.868 335.234C730.864 335.205 730.854 335.177 730.839 335.152C730.824 335.127 730.804 335.105 730.78 335.089C730.757 335.072 730.729 335.06 730.701 335.054C730.672 335.048 730.643 335.048 730.614 335.054V335.058ZM694.871 284.063C694.846 284.051 694.819 284.043 694.792 284.04C694.764 284.038 694.736 284.041 694.71 284.049C694.683 284.057 694.659 284.071 694.638 284.088C694.616 284.106 694.599 284.128 694.586 284.153C686.882 299.048 678.151 315.928 676.282 333.845C676.277 333.901 676.294 333.957 676.329 334C676.364 334.044 676.415 334.072 676.471 334.078H676.494C676.546 334.077 676.596 334.058 676.635 334.023C676.673 333.987 676.698 333.939 676.703 333.888C678.562 316.05 687.274 299.207 694.96 284.346C694.985 284.297 694.99 284.239 694.973 284.187C694.957 284.134 694.92 284.089 694.871 284.063ZM714.865 352.39C698.693 353.04 682.277 348.608 668.637 339.9C668.59 339.872 668.533 339.863 668.479 339.875C668.426 339.888 668.379 339.921 668.349 339.967C668.32 340.013 668.309 340.07 668.32 340.124C668.332 340.178 668.363 340.225 668.409 340.256C681.237 348.444 696.505 352.876 711.73 352.876C712.78 352.876 713.83 352.855 714.881 352.812C714.937 352.81 714.99 352.786 715.028 352.745C715.066 352.704 715.086 352.649 715.084 352.593C715.082 352.537 715.058 352.484 715.016 352.446C714.975 352.408 714.921 352.388 714.865 352.39ZM671.464 292.991C671.44 292.977 671.414 292.968 671.386 292.964C671.359 292.96 671.331 292.962 671.304 292.969C671.277 292.976 671.252 292.988 671.23 293.005C671.208 293.021 671.189 293.042 671.175 293.066C665.435 302.772 661.147 311.693 658.066 320.343C654.449 330.493 652.52 340.386 652.332 349.746C652.331 349.774 652.336 349.801 652.346 349.827C652.357 349.853 652.372 349.876 652.391 349.896C652.41 349.916 652.433 349.932 652.459 349.943C652.484 349.954 652.512 349.96 652.539 349.96C652.595 349.96 652.648 349.939 652.687 349.9C652.727 349.862 652.749 349.809 652.751 349.754C652.938 340.44 654.863 330.592 658.459 320.485C661.532 311.861 665.809 302.962 671.534 293.28C671.563 293.233 671.572 293.176 671.559 293.121C671.546 293.067 671.512 293.02 671.464 292.991ZM684.542 365.881C672.125 364.922 660.419 359.706 651.404 351.114C651.384 351.095 651.36 351.08 651.334 351.07C651.308 351.06 651.281 351.055 651.253 351.056C651.225 351.056 651.198 351.062 651.172 351.073C651.147 351.085 651.124 351.101 651.105 351.121C651.085 351.141 651.07 351.164 651.06 351.19C651.05 351.216 651.045 351.244 651.046 351.272C651.047 351.299 651.053 351.327 651.064 351.352C651.075 351.378 651.091 351.401 651.111 351.42C660.2 360.076 671.997 365.33 684.511 366.295H684.528C684.581 366.293 684.631 366.27 684.668 366.232C684.705 366.195 684.727 366.144 684.729 366.091C684.731 366.038 684.713 365.986 684.678 365.946C684.643 365.906 684.595 365.88 684.542 365.874V365.881Z" fill="white"/>
<path d="M634.72 252.964C632.715 251.151 629.72 250.223 627.227 251.269C625.44 252.019 624.17 253.631 623.155 255.28C622.525 256.307 621.962 257.374 621.47 258.473C621.761 256.942 622.019 255.403 622.212 253.853C623.179 246.078 622.775 238.042 620.222 230.634C619.208 227.689 617.82 224.798 615.615 222.6C613.41 220.401 610.28 218.968 607.191 219.372C606.112 219.522 605.073 219.876 604.128 220.417C602.898 220.711 601.931 221.649 601.266 222.855C600.996 223.181 600.747 223.523 600.52 223.88C600.325 224.192 600.146 224.513 599.982 224.844C599.774 221.228 599.412 217.596 598.289 214.158C597.075 210.441 594.895 206.928 591.636 204.768C589.721 203.498 587.304 202.726 585.104 203.394C582.775 204.102 581.155 206.286 580.361 208.594C580.032 209.54 579.818 210.522 579.722 211.519C577.392 203.754 574.41 197.956 567.773 191.471C565.61 189.359 559.938 186.369 556.915 186.253C550.204 185.995 547.68 192.323 547.241 197.843C546.286 209.843 552.061 222.11 561.762 229.192C559.569 228.269 556.582 227.995 555.087 229.517C554.337 230.325 553.758 231.276 553.384 232.312C577.836 265.877 608.082 294.808 642.7 317.745C645.448 297.793 644.283 271.642 640.008 260.623C639.029 258.096 636.727 254.781 634.72 252.964ZM618.145 271.298C618.145 271.194 618.145 271.091 618.156 270.989C618.156 270.973 618.168 270.956 618.173 270.938C618.166 271.062 618.158 271.181 618.15 271.301L618.145 271.298Z" fill="url(#paint8_linear_215_7128)"/>
<path d="M553.386 232.307C552.7 234.113 552.41 236.427 553.01 239.012C555.084 247.966 561.202 255.81 567.43 262.574C573.659 269.339 581.503 274.393 589.568 278.802C585.679 277.562 581.81 281.873 581.943 285.952C582.076 290.03 584.418 293.976 587.213 296.95C597.298 307.675 627.981 319.76 638.361 323.476C640.186 324.126 641.912 322.826 642.227 320.912C642.39 319.878 642.552 318.819 642.702 317.746C608.083 294.808 577.837 265.874 553.386 232.307Z" fill="#979797"/>
<path d="M555.283 198.819C555.237 198.733 555.159 198.669 555.066 198.64C554.972 198.611 554.872 198.621 554.785 198.667C554.699 198.712 554.635 198.79 554.606 198.884C554.577 198.977 554.587 199.078 554.633 199.164C578.374 243.799 610.476 283.826 641.523 322.535C641.557 322.578 641.601 322.612 641.65 322.636C641.7 322.66 641.754 322.672 641.809 322.672C641.892 322.672 641.973 322.644 642.038 322.592C642.076 322.562 642.107 322.525 642.13 322.483C642.153 322.44 642.167 322.394 642.173 322.346C642.178 322.298 642.173 322.25 642.16 322.204C642.146 322.158 642.124 322.115 642.093 322.077C611.072 283.394 578.991 243.395 555.283 198.819Z" fill="white"/>
<path d="M589.608 255.087C578.603 252.406 568.667 246.458 561.106 238.024C561.074 237.988 561.035 237.959 560.992 237.938C560.948 237.917 560.901 237.905 560.853 237.902C560.757 237.897 560.661 237.93 560.589 237.995C560.517 238.059 560.473 238.15 560.467 238.247C560.462 238.344 560.495 238.439 560.56 238.512C568.22 247.056 578.286 253.082 589.436 255.797C589.464 255.803 589.493 255.806 589.522 255.806C589.612 255.807 589.699 255.774 589.766 255.715C589.834 255.656 589.877 255.573 589.887 255.484C589.898 255.395 589.876 255.305 589.824 255.231C589.773 255.158 589.696 255.106 589.608 255.085V255.087ZM584.969 215.216C584.962 215.168 584.946 215.122 584.922 215.081C584.898 215.039 584.865 215.003 584.827 214.974C584.789 214.945 584.745 214.924 584.699 214.912C584.652 214.9 584.604 214.897 584.556 214.904C584.509 214.91 584.463 214.926 584.421 214.95C584.38 214.975 584.344 215.007 584.315 215.045C584.286 215.084 584.265 215.127 584.252 215.174C584.24 215.22 584.237 215.269 584.244 215.316C585.549 224.798 584.946 234.446 582.473 243.692C582.372 244.064 582.348 244.584 582.58 244.924C582.64 245.015 582.72 245.091 582.813 245.147C582.907 245.203 583.011 245.238 583.12 245.249H583.159C583.248 245.248 583.334 245.215 583.4 245.155C583.467 245.095 583.509 245.013 583.518 244.924C583.528 244.827 583.499 244.731 583.438 244.655C583.377 244.58 583.289 244.531 583.193 244.521C583.141 244.475 583.099 244.196 583.183 243.885C585.682 234.543 586.289 224.796 584.969 215.216ZM605.429 233.541C605.333 233.554 605.246 233.606 605.188 233.683C605.129 233.761 605.104 233.859 605.117 233.955C606.909 246.96 606.136 260.19 602.842 272.898C602.818 272.992 602.832 273.092 602.881 273.176C602.93 273.259 603.01 273.32 603.104 273.345C603.134 273.353 603.165 273.357 603.196 273.356C603.277 273.356 603.356 273.329 603.42 273.28C603.484 273.231 603.53 273.162 603.551 273.083C606.866 260.281 607.642 246.953 605.835 233.853C605.822 233.758 605.772 233.672 605.696 233.614C605.62 233.556 605.524 233.53 605.429 233.541ZM626.626 303.351C620.522 303.326 613.983 301.563 607.191 298.115C601.115 295.027 595.491 290.965 590.05 287.047C590.011 287.018 589.967 286.996 589.92 286.984C589.873 286.972 589.823 286.97 589.775 286.977C589.727 286.984 589.681 287.001 589.639 287.027C589.598 287.052 589.562 287.085 589.533 287.125C589.505 287.165 589.484 287.209 589.473 287.257C589.463 287.304 589.461 287.353 589.47 287.401C589.478 287.449 589.496 287.495 589.522 287.536C589.548 287.577 589.583 287.613 589.623 287.64C595.084 291.581 600.733 295.656 606.859 298.768C613.756 302.268 620.404 304.058 626.622 304.082C626.719 304.082 626.812 304.043 626.881 303.975C626.95 303.906 626.988 303.813 626.988 303.716C626.988 303.619 626.95 303.526 626.881 303.458C626.812 303.389 626.719 303.351 626.622 303.351H626.626ZM629.144 259.487C629.096 259.488 629.049 259.498 629.005 259.517C628.961 259.536 628.921 259.563 628.887 259.598C628.854 259.632 628.827 259.673 628.81 259.717C628.792 259.762 628.783 259.81 628.784 259.858C628.943 273.296 627.103 286.684 623.325 299.582C623.312 299.628 623.308 299.677 623.313 299.724C623.318 299.772 623.333 299.818 623.356 299.86C623.379 299.903 623.41 299.94 623.447 299.97C623.485 300 623.528 300.022 623.574 300.036C623.607 300.047 623.642 300.052 623.676 300.052C623.756 300.052 623.833 300.026 623.896 299.979C623.96 299.932 624.006 299.865 624.029 299.789C627.827 286.821 629.676 273.361 629.515 259.849C629.513 259.753 629.473 259.66 629.404 259.593C629.334 259.525 629.241 259.487 629.144 259.487Z" fill="white"/>
<path d="M592.243 222.783C590.148 222.432 588.921 225.263 589.556 226.932C590.284 228.838 592.732 230.31 594.058 228.02C594.628 227.036 594.545 225.785 594.145 224.719C593.817 223.828 593.179 222.939 592.243 222.783ZM573.854 212.094C572.613 211.886 571.885 213.556 572.262 214.554C572.694 215.683 574.145 216.558 574.931 215.204C575.268 214.619 575.217 213.878 574.983 213.254C574.787 212.715 574.41 212.186 573.854 212.094ZM565.515 197.81C564.306 199.157 564.135 201.686 566.49 201.804C567.497 201.855 568.449 201.278 569.13 200.534C569.699 199.913 570.143 199.048 569.886 198.247C569.306 196.452 566.572 196.632 565.515 197.81ZM557.817 217.947C556.715 219.174 556.561 221.477 558.698 221.584C559.616 221.629 560.485 221.106 561.103 220.428C561.621 219.863 562.024 219.076 561.79 218.345C561.26 216.71 558.772 216.875 557.817 217.947ZM613.603 237.364C612.781 238.279 612.666 240 614.253 240.08C614.939 240.114 615.586 239.722 616.041 239.217C616.427 238.794 616.728 238.208 616.554 237.662C616.179 236.435 614.323 236.552 613.603 237.364ZM598.096 238.313C596.981 237.683 595.702 239.035 595.718 240.112C595.738 241.342 596.823 242.681 598.047 241.656C598.572 241.216 598.78 240.487 598.777 239.802C598.767 239.23 598.595 238.594 598.096 238.313ZM607.782 225.62C606.851 226.433 606.52 228.115 608.091 228.396C608.767 228.516 609.458 228.209 609.981 227.767C610.418 227.396 610.794 226.852 610.688 226.29C610.454 225.029 608.597 224.917 607.782 225.62Z" fill="#B6B6B6"/>
<path d="M683.374 216.748C691.564 209.803 700.71 204.073 709.189 197.485C713.861 193.853 718.476 189.766 720.834 184.339C723.192 178.911 722.672 171.827 718.159 167.99C714.17 164.605 708.102 164.631 703.337 166.791C698.573 168.95 694.858 172.876 691.475 176.866C683.363 186.468 676.444 197.016 670.868 208.282C674.807 183.132 698.818 163.702 699.385 138.244C699.574 129.934 690.724 128.27 685.792 132.606C679.024 138.555 676.335 144.102 672.467 152.578C670.322 157.28 667.233 165.045 666.003 170.063C663.179 181.577 662.058 195.56 661.815 206.655C655.22 188.052 661.721 166.042 652.405 148.643C651.736 147.391 650.96 146.148 649.805 145.316C647.382 143.568 643.82 144.167 641.496 146.044C639.173 147.921 637.874 150.791 637.02 153.654C633.877 164.178 635.72 175.636 639.566 185.925C643.412 196.215 649.153 205.661 654.119 215.461C655.257 217.699 655.783 221.311 653.346 221.917C644.597 214.752 637.838 205.457 633.719 194.926C631.686 189.71 630.159 183.973 626.049 180.173C621.94 176.372 614.06 176.042 611.649 181.092C610.272 183.975 611.174 187.404 612.385 190.355C620.167 209.367 639.197 222.119 646.55 241.299C644.971 242.134 643.185 240.694 641.979 239.375C636.743 233.644 631.509 227.912 626.275 222.179C621.597 217.057 616.597 211.724 609.973 209.658C608.051 209.059 605.883 208.777 604.083 209.678C601.359 211.041 600.493 214.728 601.408 217.64C602.323 220.552 604.564 222.816 606.811 224.871C615.544 232.863 621.348 237.568 629.046 246.562C636.743 255.556 642.291 270.514 641.059 280.752C640.679 283.908 639.423 288.791 639.191 291.964C638.958 295.138 651.765 305.156 653.643 304.29C668.02 290.999 671.01 277.965 686.057 272.562C694.114 269.674 702.928 267.224 708.446 260.682C710.37 258.407 711.839 255.381 711.111 252.485C710.013 248.109 704.602 246.346 700.104 246.716C693.212 247.282 687.016 250.954 681.091 254.533L659.316 267.695C667.947 255.536 679.862 246.086 693.667 240.452C703.768 236.347 715.916 233.383 720.718 223.594C721.898 221.188 722.506 218.373 721.729 215.809C720.466 211.654 715.806 209.271 711.464 209.333C707.122 209.395 703.055 211.373 699.268 213.498C686.017 220.95 674.189 230.687 664.331 242.261C667.838 232.103 675.183 223.693 683.374 216.748Z" fill="white" fill-opacity="0.17"/>
<path d="M785.364 152.276C773.354 154.988 763.279 162.977 754.192 171.289C729.786 193.606 709.714 219.978 693.063 248.489C687.286 258.379 682.175 265.324 675.818 274.868C662.038 295.575 658.411 327.878 651.666 335.984C687.458 292.978 742.029 247.79 788.229 216.23C797.227 210.082 806.592 203.992 813.051 195.218C819.51 186.445 822.51 174.179 817.447 164.532C811.725 153.626 797.376 149.564 785.364 152.276Z" fill="url(#paint9_linear_215_7128)"/>
<path d="M799.191 170.647C771.078 190.685 743.384 214.944 719.103 240.804C705.758 255.018 693.496 269.666 682.657 284.341C671.013 300.104 660.902 316.061 652.606 331.754C652.55 331.86 652.538 331.985 652.574 332.1C652.609 332.215 652.689 332.311 652.796 332.367C652.902 332.424 653.026 332.435 653.142 332.4C653.257 332.364 653.353 332.285 653.409 332.178C661.682 316.525 671.772 300.613 683.387 284.881C694.205 270.233 706.442 255.613 719.764 241.425C744.004 215.607 771.652 191.388 799.714 171.388C799.763 171.353 799.804 171.309 799.835 171.259C799.867 171.208 799.888 171.152 799.898 171.093C799.908 171.034 799.906 170.974 799.893 170.916C799.88 170.858 799.855 170.803 799.82 170.755C799.786 170.706 799.742 170.665 799.692 170.633C799.641 170.602 799.585 170.58 799.526 170.57C799.467 170.561 799.407 170.562 799.349 170.576C799.291 170.589 799.236 170.614 799.188 170.648L799.191 170.647Z" fill="#E8E8E8"/>
<path d="M699.984 185.426C692.94 180.714 682.922 182.974 676.556 188.562C670.191 194.151 666.719 202.294 663.956 210.305C656.535 231.823 653.069 254.367 652.368 277.079C652.126 284.959 651.317 290.84 650.613 298.692C649.087 315.743 657.513 336.468 656.098 343.586C663.605 305.817 681.748 260.548 699.31 226.285C702.73 219.61 706.39 212.85 707.412 205.42C708.434 197.991 706.216 189.589 699.984 185.426Z" fill="url(#paint10_linear_215_7128)"/>
<path d="M691.375 194.983C691.338 194.965 691.298 194.954 691.257 194.951C691.217 194.949 691.176 194.954 691.137 194.968C691.098 194.981 691.062 195.002 691.031 195.029C691.001 195.056 690.976 195.089 690.958 195.126C680.545 216.483 671.773 240.257 665.591 263.875C658.471 291.084 655.001 316.941 655.279 340.727C655.28 340.809 655.314 340.888 655.372 340.945C655.43 341.003 655.509 341.036 655.591 341.036C655.632 341.035 655.673 341.027 655.71 341.01C655.748 340.994 655.782 340.971 655.81 340.941C655.839 340.912 655.861 340.877 655.876 340.839C655.891 340.801 655.899 340.76 655.898 340.719C655.622 316.994 659.083 291.188 666.191 264.032C672.366 240.453 681.118 216.72 691.513 195.4C691.55 195.327 691.556 195.241 691.53 195.163C691.504 195.085 691.449 195.02 691.375 194.983Z" fill="#E8E8E8"/>
<path d="M605.089 420.373C669.775 420.373 722.214 414.503 722.214 407.261C722.214 400.02 669.775 394.149 605.089 394.149C540.402 394.149 487.964 400.02 487.964 407.261C487.964 414.503 540.402 420.373 605.089 420.373Z" fill="white" fill-opacity="0.16"/>
<path d="M676.999 325.571H430.843C427.183 325.571 424.221 326.98 424.221 328.733V358.264C424.221 360.016 427.183 361.431 430.843 361.431H676.999C680.655 361.431 683.621 360.016 683.621 358.264V328.733C683.621 326.98 680.655 325.571 676.999 325.571Z" fill="url(#paint11_linear_215_7128)"/>
<path d="M646.117 289.701H430.033C426.824 289.701 424.221 291.113 424.221 292.86V322.401C424.221 324.148 426.821 325.571 430.033 325.571H646.117C649.332 325.571 651.93 324.148 651.93 322.401V292.86C651.93 291.113 649.332 289.701 646.117 289.701Z" fill="url(#paint12_linear_215_7128)"/>
<path d="M424.221 323.393C424.221 324.591 426.821 325.571 430.033 325.571H646.117C649.327 325.571 651.93 324.596 651.93 323.393V318.939H424.221V323.393Z" fill="url(#paint13_linear_215_7128)"/>
<path d="M523.354 289.701H634.309V325.571H523.354V289.701Z" fill="url(#paint14_linear_215_7128)"/>
<path d="M523.732 318.936H634.31V325.569H523.732V318.936Z" fill="url(#paint15_linear_215_7128)"/>
<path d="M424.221 357.757C424.221 359.788 427.19 361.438 430.854 361.438H677.397C681.055 361.438 684.024 359.788 684.024 357.757V350.219H424.221V357.757Z" fill="url(#paint16_linear_215_7128)"/>
<path d="M570.613 325.571H625.579V361.44H570.613V325.571Z" fill="url(#paint17_linear_215_7128)"/>
<path d="M503.315 325.571H511.023V361.44H503.315V325.571Z" fill="#B2B2B2" stroke="black" stroke-width="0.193375" stroke-miterlimit="10"/>
<path d="M570.613 350.219H625.579V361.44H570.613V350.219Z" fill="url(#paint18_linear_215_7128)"/>
<path d="M503.315 350.219H511.023V361.44H503.315V350.219Z" fill="#9E9E9E" stroke="black" stroke-width="0.193375" stroke-miterlimit="10"/>
<path d="M697.966 361.438H431.393C427.435 361.438 424.221 363.3 424.221 365.596V404.414C424.221 406.71 427.435 408.571 431.393 408.571H697.966C701.928 408.571 705.137 406.71 705.137 404.414V365.596C705.137 363.302 701.928 361.438 697.966 361.438Z" fill="#2E2E2E" stroke="black" stroke-width="0.193375" stroke-miterlimit="10"/>
<path d="M697.966 361.438H431.393C427.435 361.438 424.221 363.3 424.221 365.596V404.414C424.221 406.71 427.435 408.571 431.393 408.571H697.966C701.928 408.571 705.137 406.71 705.137 404.414V365.596C705.137 363.302 701.928 361.438 697.966 361.438Z" fill="url(#paint19_linear_215_7128)"/>
<path d="M423.755 404.414C423.755 406.71 426.969 408.571 430.923 408.571H697.495C701.457 408.571 704.668 406.71 704.668 404.414V395.899H423.755V404.414Z" fill="url(#paint20_linear_215_7128)"/>
<path d="M470.926 361.438H481.394V408.565H470.926V361.438Z" fill="#1DDBDB"/>
<path d="M471.243 395.893H481.395V408.566H471.243V395.893Z" fill="#505050" stroke="black" stroke-width="0.193375" stroke-miterlimit="10"/>
<path d="M597.456 361.438H680.222V408.565H597.456V361.438Z" fill="#1DDBDB"/>
<path d="M597.456 395.895H680.222V408.565H597.456V395.895Z" fill="#22ADA9"/>
<path d="M617.775 361.438H654.447V408.565H617.775V361.438Z" fill="url(#paint21_linear_215_7128)"/>
<path d="M617.646 395.895H654.445V408.565H617.646V395.895Z" fill="url(#paint22_linear_215_7128)"/>
<path d="M584.933 289.701H595.402V325.571H584.933V289.701ZM568.493 289.701H578.966V325.571H568.493V289.701Z" fill="#FFD002"/>
<path d="M584.933 318.936H595.402V325.569H584.933V318.936ZM568.493 318.936H578.966V325.569H568.493V318.936Z" fill="url(#paint23_linear_215_7128)"/>
<path d="M240.663 173.867L236.245 361.438H503.451L500.08 173.867H240.663Z" fill="url(#paint24_linear_215_7128)"/>
<path d="M371.278 174.6C371.721 175.068 370.67 354.847 370.67 354.847C370.67 354.847 379.404 348.1 395.445 346.675C430.961 343.535 495.115 354.847 495.115 354.847V175.226C495.115 175.226 433.643 167.405 410.369 166.149C387.094 164.893 371.278 174.6 371.278 174.6Z" fill="white"/>
<path d="M330.631 166.296C307.357 167.551 246.333 175.333 246.333 175.333V354.941C246.333 354.941 310.493 343.639 346.001 346.779C362.039 348.201 370.77 354.941 370.77 354.941C370.77 354.941 370.608 175.461 371.047 174.992C371.047 174.992 353.905 165.037 330.631 166.296Z" fill="white"/>
<path d="M317.776 186.237C300.086 188.476 255.863 194.066 255.863 194.066L255.972 194.931L317.885 187.103C325.906 186.088 335.824 186.027 345.095 186.941C353.545 187.771 360.37 189.308 362.925 190.954L363.397 190.222C357.827 186.624 335.228 184.029 317.776 186.237ZM317.776 203.98C300.086 206.22 255.863 211.81 255.863 211.81L255.972 212.674L317.885 204.847C325.906 203.831 335.824 203.771 345.095 204.684C353.545 205.513 360.37 207.05 362.925 208.696L363.397 207.963C357.827 204.367 335.228 201.777 317.776 203.98ZM317.776 221.725L255.863 229.553L255.972 230.418C255.972 230.418 300.198 224.829 317.885 222.59C325.906 221.574 335.824 221.514 345.095 222.427C353.545 223.256 360.37 224.793 362.925 226.44L363.397 225.707C357.827 222.111 335.228 219.515 317.776 221.725ZM317.776 239.477L255.863 247.305L255.972 248.169C255.972 248.169 300.198 242.581 317.885 240.341C325.906 239.326 335.824 239.267 345.095 240.179C353.545 241.008 360.37 242.545 362.925 244.191L363.397 243.458C357.827 239.854 335.228 237.259 317.776 239.477ZM317.776 257.212L255.863 265.04L255.972 265.906C255.972 265.906 300.198 260.316 317.885 258.077C325.906 257.061 335.824 257.002 345.095 257.914C353.545 258.743 360.37 260.28 362.925 261.926L363.397 261.193C357.827 257.597 335.228 255.004 317.776 257.212ZM317.776 274.955L255.863 282.783L255.972 283.649C255.972 283.649 300.198 278.059 317.885 275.82C325.906 274.806 335.824 274.746 345.095 275.658C353.545 276.486 360.37 278.023 362.925 279.67L363.397 278.937C357.827 275.341 335.228 272.747 317.776 274.955ZM317.776 292.699L255.863 300.526L255.972 301.393C255.972 301.393 300.198 295.803 317.885 293.563C325.906 292.549 335.824 292.489 345.095 293.401C353.545 294.23 360.37 295.769 362.925 297.413L363.397 296.68C357.825 293.086 335.228 290.491 317.776 292.699ZM317.776 310.442C300.086 312.681 255.863 318.27 255.863 318.27L255.972 319.136C255.972 319.136 300.198 313.546 317.885 311.307C325.906 310.293 335.824 310.233 345.095 311.144C353.545 311.973 360.37 313.512 362.925 315.156L363.397 314.423C357.827 310.829 335.228 308.234 317.776 310.442ZM317.776 328.186C300.086 330.425 255.863 336.013 255.863 336.013L255.972 336.879L317.885 329.052C325.906 328.036 335.824 327.976 345.095 328.889C353.545 329.72 360.37 331.257 362.925 332.903L363.397 332.17C357.825 328.572 335.228 325.977 317.776 328.186ZM380.479 190.218L380.952 190.951C383.504 189.305 390.335 187.768 398.78 186.937C408.052 186.027 417.971 186.088 425.992 187.1L487.905 194.928L488.014 194.063C488.014 194.063 443.789 188.473 426.101 186.234C408.642 184.029 386.055 186.624 380.479 190.218ZM380.479 207.962L380.952 208.695C383.504 207.048 390.335 205.511 398.78 204.682C408.052 203.772 417.971 203.831 425.992 204.845L487.905 212.673L488.014 211.808C488.014 211.808 443.789 206.218 426.101 203.979C408.642 201.777 386.055 204.367 380.479 207.962ZM380.479 225.705L380.952 226.438C383.504 224.792 390.335 223.255 398.78 222.426C408.052 221.514 417.971 221.574 425.992 222.588C443.682 224.828 487.905 230.416 487.905 230.416L488.014 229.551L426.101 221.724C408.642 219.517 386.055 222.111 380.479 225.705ZM380.479 243.448L380.952 244.181C383.504 242.535 390.335 240.998 398.78 240.169C408.052 239.259 417.971 239.319 425.992 240.332C443.682 242.571 487.905 248.159 487.905 248.159L488.014 247.295L426.101 239.467C408.642 237.26 386.055 239.854 380.479 243.448ZM380.479 261.192L380.952 261.925C383.504 260.279 390.335 258.741 398.78 257.912C408.052 257.002 417.971 257.063 425.992 258.075C443.682 260.314 487.905 265.904 487.905 265.904L488.014 265.038L426.101 257.211C408.642 255.004 386.055 257.597 380.479 261.192ZM380.479 278.935L380.952 279.668C383.504 278.022 390.335 276.485 398.78 275.656C408.052 274.746 417.971 274.806 425.992 275.818C443.682 278.058 487.905 283.648 487.905 283.648L488.014 282.781L426.101 274.954C408.642 272.747 386.055 275.341 380.479 278.935ZM380.479 296.677L380.952 297.41C383.504 295.765 390.335 294.226 398.78 293.398C408.052 292.488 417.971 292.548 425.992 293.56C443.682 295.799 487.905 301.389 487.905 301.389L488.014 300.523L426.101 292.696C408.642 290.49 386.055 293.086 380.479 296.677ZM380.479 314.422L380.952 315.155C383.504 313.51 390.335 311.971 398.78 311.143C408.052 310.233 417.971 310.293 425.992 311.305C443.682 313.544 487.905 319.134 487.905 319.134L488.014 318.268C488.014 318.268 443.789 312.68 426.101 310.441C408.642 308.234 386.055 310.829 380.479 314.422ZM380.479 332.167L380.952 332.9C383.504 331.254 390.335 329.716 398.78 328.886C408.052 327.976 417.971 328.036 425.992 329.048L487.905 336.876L488.014 336.01C488.014 336.01 443.789 330.422 426.101 328.182C408.642 325.977 386.055 328.572 380.479 332.167Z" fill="#C1D2F1"/>
<path d="M393.664 196.712L401.948 207.921L410.244 196.712V165.419H393.664V196.712Z" fill="url(#paint25_linear_215_7128)"/>
<path d="M457.881 428.682C494.041 428.682 523.354 423.098 523.354 416.21C523.354 409.322 494.041 403.738 457.881 403.738C421.721 403.738 392.408 409.322 392.408 416.21C392.408 423.098 421.721 428.682 457.881 428.682Z" fill="white" fill-opacity="0.16"/>
<path d="M632.639 193.637C620.348 190.875 590.245 181.263 572.787 158.641C555.33 136.02 542.325 143.144 542.325 143.144C526.114 142.074 520.419 153.475 520.342 160.778C520.266 168.081 530.037 171.287 535.395 186.629C540.752 201.97 601.467 241.471 628.182 235.088C654.897 228.705 644.929 196.403 632.639 193.637Z" fill="url(#paint26_linear_215_7128)"/>
<path d="M427.55 390.408C427.55 390.408 462.609 393.559 464.991 389.237C464.991 389.237 472.767 380.533 472.754 370.762L441.899 363.695L427.55 390.408Z" fill="#FBC5A9"/>
<path d="M415.706 397.667L400.782 409.663C400.587 409.819 400.445 410.032 400.375 410.272C400.305 410.512 400.31 410.768 400.391 411.004C400.472 411.241 400.624 411.447 400.826 411.594C401.028 411.742 401.27 411.823 401.52 411.828L465.816 413.069L466.304 387.573L429.163 386.864L415.706 397.667Z" fill="url(#paint27_linear_215_7128)"/>
<path d="M454.794 392.714C453.091 392.682 451.417 393.156 449.984 394.075C448.55 394.995 447.422 396.318 446.74 397.879C446.059 399.439 445.855 401.167 446.155 402.843C446.456 404.52 447.246 406.069 448.426 407.296C449.607 408.524 451.125 409.373 452.788 409.738C454.452 410.103 456.186 409.966 457.772 409.345C459.358 408.725 460.724 407.648 461.698 406.251C462.672 404.854 463.21 403.2 463.244 401.497C463.266 400.366 463.066 399.241 462.653 398.186C462.241 397.132 461.624 396.17 460.84 395.354C460.055 394.538 459.117 393.885 458.079 393.432C457.042 392.979 455.926 392.735 454.794 392.714Z" fill="white"/>
<path d="M415.872 397.669L400.948 409.665C400.754 409.821 400.612 410.034 400.542 410.273C400.473 410.513 400.479 410.768 400.559 411.005C400.64 411.241 400.791 411.447 400.993 411.594C401.194 411.741 401.437 411.823 401.686 411.828L425.588 412.289C423.88 403.954 418.827 399.58 415.872 397.669Z" fill="url(#paint28_linear_215_7128)"/>
<path d="M400.688 416.498L400.784 411.57L465.843 412.831L465.748 417.758L400.688 416.498Z" fill="url(#paint29_linear_215_7128)"/>
<path d="M420.046 393.928C419.963 393.907 419.874 393.919 419.8 393.963C419.725 394.007 419.671 394.079 419.65 394.162C419.628 394.246 419.641 394.335 419.685 394.409C419.729 394.483 419.8 394.537 419.884 394.559C419.928 394.57 424.224 395.717 426.033 400.562C426.056 400.623 426.098 400.677 426.152 400.715C426.206 400.752 426.271 400.773 426.337 400.773C426.376 400.773 426.414 400.766 426.451 400.753C426.491 400.738 426.528 400.716 426.559 400.687C426.59 400.658 426.616 400.623 426.634 400.584C426.651 400.545 426.661 400.502 426.663 400.46C426.664 400.417 426.657 400.374 426.642 400.334C424.713 395.16 420.237 393.977 420.046 393.928ZM424.444 390.734C424.362 390.716 424.276 390.73 424.204 390.774C424.133 390.818 424.081 390.888 424.06 390.97C424.039 391.051 424.05 391.138 424.091 391.211C424.133 391.284 424.201 391.338 424.281 391.362C424.325 391.374 428.622 392.521 430.43 397.365C430.453 397.427 430.495 397.481 430.549 397.518C430.603 397.556 430.668 397.576 430.734 397.576C430.773 397.576 430.811 397.57 430.848 397.557C430.888 397.542 430.925 397.519 430.956 397.49C430.988 397.461 431.013 397.426 431.031 397.387C431.049 397.348 431.059 397.306 431.06 397.263C431.062 397.22 431.055 397.178 431.04 397.138C429.117 391.964 424.634 390.781 424.444 390.734Z" fill="white"/>
<path d="M471.84 366.674L480.365 390.701C480.365 390.701 511.766 393.559 514.148 389.238C514.148 389.238 506.386 374.743 506.373 364.971L471.84 366.674Z" fill="#FBC5A9"/>
<path d="M464.868 397.667L449.944 409.663C449.749 409.819 449.607 410.032 449.537 410.272C449.467 410.512 449.473 410.768 449.553 411.004C449.634 411.241 449.786 411.447 449.988 411.594C450.19 411.742 450.432 411.823 450.682 411.828L514.979 413.069L515.466 387.573L478.32 386.864L464.868 397.667Z" fill="url(#paint30_linear_215_7128)"/>
<path d="M503.952 392.714C502.249 392.682 500.576 393.156 499.142 394.075C497.709 394.995 496.58 396.318 495.898 397.879C495.217 399.439 495.013 401.167 495.314 402.843C495.614 404.52 496.404 406.069 497.585 407.296C498.765 408.524 500.283 409.373 501.947 409.738C503.61 410.103 505.344 409.966 506.93 409.345C508.516 408.725 509.882 407.648 510.856 406.251C511.83 404.854 512.368 403.2 512.402 401.497C512.425 400.366 512.224 399.241 511.811 398.186C511.399 397.132 510.783 396.17 509.998 395.354C509.213 394.538 508.275 393.885 507.238 393.432C506.2 392.979 505.084 392.735 503.952 392.714Z" fill="white"/>
<path d="M465.03 397.669L450.106 409.665C449.911 409.821 449.769 410.034 449.7 410.273C449.63 410.513 449.636 410.768 449.716 411.005C449.797 411.241 449.948 411.447 450.15 411.594C450.352 411.741 450.594 411.823 450.843 411.828L474.745 412.289C473.036 403.954 467.982 399.58 465.03 397.669Z" fill="url(#paint31_linear_215_7128)"/>
<path d="M449.848 416.497L449.943 411.57L515.002 412.83L514.907 417.758L449.848 416.497Z" fill="url(#paint32_linear_215_7128)"/>
<path d="M469.204 393.928C469.12 393.907 469.031 393.919 468.957 393.963C468.883 394.007 468.829 394.079 468.807 394.162C468.786 394.246 468.798 394.335 468.842 394.409C468.886 394.483 468.958 394.537 469.041 394.559C469.085 394.57 473.382 395.717 475.19 400.562C475.213 400.623 475.255 400.677 475.309 400.715C475.363 400.752 475.428 400.773 475.494 400.773C475.533 400.773 475.571 400.766 475.608 400.753C475.648 400.738 475.685 400.716 475.716 400.687C475.748 400.658 475.773 400.623 475.791 400.584C475.809 400.545 475.819 400.502 475.82 400.46C475.822 400.417 475.815 400.374 475.8 400.334C473.871 395.16 469.394 393.977 469.204 393.928ZM473.601 390.734C473.519 390.716 473.433 390.73 473.361 390.774C473.29 390.818 473.238 390.888 473.217 390.97C473.196 391.051 473.207 391.138 473.249 391.211C473.29 391.284 473.358 391.338 473.438 391.362C473.482 391.374 477.779 392.521 479.587 397.365C479.611 397.427 479.652 397.481 479.706 397.518C479.761 397.556 479.825 397.576 479.891 397.576C479.93 397.576 479.968 397.57 480.005 397.557C480.045 397.542 480.082 397.519 480.114 397.49C480.145 397.461 480.17 397.426 480.188 397.387C480.206 397.348 480.216 397.306 480.217 397.263C480.219 397.22 480.212 397.178 480.197 397.138C478.268 391.964 473.791 390.781 473.601 390.734Z" fill="white"/>
<path d="M554.036 188.388C552.755 187.34 551.879 186.466 551.257 185.649C550.334 184.435 549.973 183.348 549.686 182.002L546.587 181.914C546.587 181.914 541.73 185.021 539.455 185.884C540.343 187.131 541.07 188.485 541.619 189.914C541.929 190.708 542.135 191.538 542.233 192.384C537.635 194.892 535.634 197.518 535.634 197.518C535.634 197.518 535.499 200.899 539.455 203.324C543.41 205.748 538.462 211.249 548.155 207.211C557.848 203.173 562.796 201 563.402 197.113C564.008 193.226 563.402 187.612 563.402 187.612C563.402 187.612 561.082 186.918 554.036 188.388Z" fill="url(#paint33_linear_215_7128)"/>
<path d="M546.589 181.914C546.589 181.914 541.732 185.021 539.457 185.884C540.345 187.131 541.073 188.485 541.622 189.914C545.13 189.292 548.436 187.828 551.255 185.649C550.332 184.435 549.971 183.348 549.683 182.002L546.589 181.914Z" fill="#FF9D97"/>
<path d="M596.981 202.168C573.532 184.579 562.113 187.357 562.113 187.357L562.149 187.387L562.113 187.358L544.833 203.712L537.428 195.535C537.428 195.535 522.925 201.244 517.062 215.129C511.199 229.015 500.399 255.86 495.462 257.095C490.525 258.33 541.44 265.735 541.44 265.735L594.514 262.341C594.514 262.341 597.809 252.686 595.258 238.365C604.291 246.417 605.847 258.369 599.761 261.107C599.761 261.107 634.627 261.569 638.332 250.925C642.037 240.281 620.437 219.759 596.981 202.168Z" fill="url(#paint34_linear_215_7128)"/>
<path d="M596.135 239.176C595.532 238.588 594.891 238.021 594.213 237.475L594.107 237.39C592.916 236.438 591.444 235.491 589.892 235.19L588.527 235.102C588.363 235.112 588.2 235.133 588.039 235.164C586.318 235.489 585.171 236.687 584.542 238.17C584.263 238.842 584.082 239.55 584.004 240.273C583.985 240.447 583.974 240.616 583.964 240.785C583.751 244.47 585.634 247.67 587.225 250.86C588.442 253.312 589.874 255.735 591.733 257.778C592.208 258.303 592.714 258.8 593.249 259.264C593.628 259.589 594.026 259.905 594.434 260.196C595.295 260.829 596.293 261.252 597.347 261.429C597.983 261.525 598.631 261.479 599.247 261.296C599.427 261.242 599.603 261.176 599.773 261.099C601.472 260.335 602.573 258.857 603.085 256.947C604.345 252.235 602.019 244.885 596.135 239.176Z" fill="#E0195B"/>
<path d="M527.488 217.182C527.457 217.081 527.388 216.996 527.295 216.945C527.203 216.895 527.094 216.882 526.992 216.91C526.891 216.938 526.804 217.004 526.75 217.095C526.696 217.186 526.68 217.294 526.705 217.396C526.718 217.443 528.016 222.281 528.655 229.475C529.249 236.107 529.391 246.157 526.705 256.374C526.677 256.478 526.693 256.589 526.747 256.682C526.801 256.775 526.89 256.843 526.994 256.871C527.028 256.879 527.063 256.884 527.098 256.884C527.188 256.884 527.275 256.854 527.346 256.799C527.417 256.745 527.468 256.668 527.491 256.582C530.215 246.243 530.07 236.085 529.469 229.384C528.816 222.122 527.501 217.231 527.488 217.182Z" fill="#D31A58"/>
<path d="M473.644 279.158C474.598 284.32 474.806 293.321 474.575 303.996C473.852 337.338 468.836 387.004 468.836 387.004L480.325 386.66L515.122 385.615L520.72 318.302L521.185 312.707L522.937 291.656L570.843 265.735L526.294 257.061C526.294 257.061 469.702 257.867 473.644 279.158Z" fill="url(#paint35_linear_215_7128)"/>
<path d="M468.83 387.004L480.319 386.66L520.715 318.302L521.527 308.608C514.362 307.246 493.047 307.371 474.576 303.996C473.846 337.338 468.83 387.004 468.83 387.004Z" fill="#15157D"/>
<path d="M496.779 268.975C489.374 270.6 423.88 382.605 423.88 382.605L474.794 386.309C474.794 386.309 504.647 333.774 518.669 312.714C532.691 291.654 534.269 300.218 570.146 299.064C606.023 297.91 594.428 260.207 594.428 260.207C594.428 260.207 504.184 267.355 496.779 268.975Z" fill="url(#paint36_linear_215_7128)"/>
<path d="M553.224 164.522C554.801 149.465 524.67 145.224 523.104 163.682C523.104 163.682 524.283 182.339 532.896 186.154C541.508 189.97 549.944 185.556 553.22 181.365C556.496 177.174 556.541 173.515 556.541 173.515C556.541 173.515 561.601 173.027 561.548 168.619C561.595 164.311 557.831 159.628 553.224 164.522Z" fill="url(#paint37_linear_215_7128)"/>
<path d="M547.713 160.396C547.614 158.882 546.967 156.681 546.967 156.681C546.967 156.681 547.241 158.243 547.713 160.396Z" fill="#0D0D0D" stroke="black" stroke-width="0.196625" stroke-miterlimit="10"/>
<path d="M525.968 151.462C525.968 151.462 520.594 152.941 519.883 160.957C519.171 168.973 524.772 165.32 525.222 165.053C525.673 164.787 526.685 160.154 526.685 160.154C526.685 160.154 526.537 164.608 527.532 164.608C528.526 164.608 528.703 158.787 528.703 158.787C528.703 158.787 529.23 163.175 531.415 163.36C533.601 163.545 535.57 156.948 535.57 156.948C535.57 156.948 534.881 162.473 537.715 162.648C540.549 162.824 547.049 162.559 547.584 161.579C547.719 161.334 547.747 160.903 547.712 160.396C547.241 158.243 546.967 156.681 546.967 156.681C546.967 156.681 547.617 158.882 547.712 160.396C548.661 164.722 550.402 171.43 552.305 172.657C555.155 174.493 553.106 152.842 553.106 152.842C553.106 152.842 546.04 140.633 525.968 151.462Z" fill="#00256C"/>
<path d="M527.529 256.38L486.465 228.716L481.257 235.166L527.529 267.513L573.588 235.309L567.609 228.716L527.529 256.38Z" fill="white"/>
<path d="M481.28 235.177L521.418 262.341C521.418 262.341 525.238 265.283 527.422 264.952L527.528 261.539C527.528 261.539 485.106 234.092 483.263 232.686L481.28 235.177Z" fill="#D7D7D7"/>
<path d="M527.332 261.902L527.439 265.314C529.622 265.639 533.442 262.704 533.442 262.704L573.589 235.539L571.599 233.043C569.756 234.439 527.332 261.902 527.332 261.902Z" fill="#D7D7D7"/>
<path d="M531.55 263.754C531.55 263.754 527.511 266.463 523.507 263.754L523.495 263.77L523.507 263.751L478.117 233.038L476.362 235.638L519.683 264.955C519.683 264.955 522.496 270.355 527.529 270.355C532.561 270.355 535.368 264.958 535.368 264.958L578.695 235.638L576.94 233.038L531.55 263.754Z" fill="url(#paint38_linear_215_7128)"/>
<path d="M527.564 261.993C527.564 261.993 546.089 232.429 570.802 232.228C571.111 232.228 558.023 225.971 558.023 225.971C527.36 226.79 527.564 261.993 527.564 261.993Z" fill="url(#paint39_linear_215_7128)"/>
<path d="M527.566 261.993C527.566 261.993 535.221 227.504 558.335 218.313C558.624 218.199 544.29 217.099 544.29 217.099C516.46 229.641 527.566 261.993 527.566 261.993Z" fill="url(#paint40_linear_215_7128)"/>
<path d="M531.55 263.754C531.55 263.754 528.329 266.271 523.495 263.771L514.044 257.352L511.731 259.575L519.683 264.955C519.683 264.955 522.027 270.331 527.528 270.355C527.528 270.355 532.585 270.064 535.367 264.959L543.521 259.434L541.349 257.352L531.55 263.754Z" fill="url(#paint41_linear_215_7128)"/>
<path d="M596.134 239.176C595.53 238.588 594.89 238.021 594.212 237.475L594.106 237.39L590.596 237.676L584.533 238.164L569.944 239.352C567.641 238.104 559.706 233.91 556.346 233.339C552.382 232.673 556.139 242.026 556.139 242.026C556.139 242.026 543.962 243.426 535.583 238.279C527.205 233.133 533.435 245.231 537.132 247.301C537.132 247.301 536.381 249.794 539.353 253.271C539.353 253.271 537.996 256.557 540.41 257.973C540.41 257.973 540.548 261.999 542.901 262.768C545.107 263.488 553.994 268.407 567.344 263.58L578.73 262.757C585.025 262.302 592.525 261.764 597.338 261.421L597.813 261.387C598.324 261.349 598.802 261.317 599.238 261.288C599.417 261.234 599.593 261.168 599.764 261.091C601.462 260.327 602.564 258.848 603.076 256.939C604.343 252.235 602.018 244.885 596.134 239.176ZM519.439 258.925C516.589 258.033 510.622 256.7 506.792 254.563C502.961 252.426 497.084 246.637 493.164 244.766C489.245 242.896 494.13 255.139 494.13 255.139C490.392 263.689 509.819 265.339 513.828 264.978C517.837 264.617 522.289 259.817 519.439 258.925Z" fill="url(#paint42_linear_215_7128)"/>
<path d="M573.106 205.277C573.038 205.196 572.941 205.145 572.836 205.135C572.731 205.124 572.626 205.155 572.543 205.22C572.46 205.286 572.406 205.381 572.392 205.485C572.378 205.59 572.406 205.696 572.469 205.781L595.082 234.43C595.149 234.514 595.247 234.569 595.354 234.582C595.461 234.594 595.569 234.564 595.653 234.497C595.738 234.43 595.793 234.332 595.805 234.225C595.818 234.118 595.788 234.01 595.721 233.926L573.106 205.277Z" fill="#D31A58"/>
<path d="M596.134 239.176C595.53 238.588 594.889 238.021 594.211 237.475L594.106 237.39L590.596 237.676C592.853 239.6 599.718 246.229 598.972 255.139C598.813 257.262 598.424 259.363 597.812 261.403C598.324 261.366 598.802 261.333 599.237 261.304C599.417 261.25 599.593 261.185 599.764 261.107C601.462 260.343 602.564 258.865 603.076 256.955C604.343 252.235 602.018 244.885 596.134 239.176ZM552.498 248.296C552.106 248.312 551.718 248.348 551.326 248.349C550.546 248.362 549.768 248.408 548.989 248.4C548.599 248.4 548.211 248.419 547.822 248.4L546.656 248.383C545.101 248.343 543.549 248.257 542.002 248.097C541.617 248.05 541.228 248.014 540.843 247.958C540.458 247.901 540.07 247.857 539.686 247.795C538.914 247.675 538.147 247.527 537.382 247.334C538.094 247.682 538.836 247.966 539.598 248.182C540.359 248.404 541.131 248.587 541.911 248.729C543.471 249.01 545.051 249.167 546.636 249.201L547.824 249.209C548.221 249.209 548.615 249.185 549.01 249.17C549.802 249.146 550.588 249.064 551.375 248.98C552.161 248.895 552.938 248.756 553.718 248.635C554.491 248.481 555.262 248.31 556.025 248.114C555.234 248.132 554.452 248.197 553.669 248.24L552.498 248.296ZM557.303 253.637L556.051 253.778C555.843 253.806 555.634 253.826 555.424 253.84L554.799 253.89L554.173 253.943L553.859 253.97L553.546 253.985L552.293 254.051C551.875 254.077 551.458 254.074 551.04 254.087L550.413 254.105H549.785C548.113 254.118 546.443 254.038 544.772 253.913C543.102 253.788 541.433 253.588 539.761 253.314C541.359 253.896 543.014 254.307 544.699 254.54C546.383 254.799 548.084 254.925 549.787 254.918C551.49 254.922 553.191 254.791 554.873 254.524L555.504 254.425L555.817 254.375C555.923 254.357 556.025 254.331 556.129 254.308L557.374 254.032C557.789 253.942 558.196 253.819 558.603 253.696C559.009 253.572 559.415 253.449 559.815 253.314C559.391 253.361 558.973 253.418 558.556 253.476C558.138 253.535 557.724 253.605 557.303 253.637ZM551.718 259.139C551.438 259.139 551.159 259.167 550.879 259.16C550.322 259.16 549.766 259.183 549.21 259.16C548.932 259.151 548.654 259.16 548.378 259.144L547.546 259.107C546.441 259.04 545.339 258.944 544.243 258.764C543.971 258.715 543.693 258.681 543.422 258.622L543.012 258.544C542.876 258.518 542.741 258.481 542.605 258.454C542.056 258.335 541.513 258.187 540.98 258.012C541.449 258.338 541.954 258.61 542.484 258.824C543.013 259.045 543.556 259.23 544.109 259.38C545.219 259.671 546.356 259.849 547.502 259.911L548.36 259.94C548.646 259.94 548.932 259.931 549.218 259.924C549.79 259.916 550.356 259.851 550.925 259.789C551.493 259.728 552.051 259.604 552.61 259.507C553.164 259.373 553.713 259.229 554.254 259.055C553.682 259.055 553.117 259.089 552.559 259.11L551.718 259.139Z" fill="#FF9D97"/>
<g clip-path="url(#clip0_215_7128)">
<path d="M848.688 467.15C847.638 467.181 846.599 466.917 845.691 466.387C844.86 465.875 844.194 465.133 843.775 464.251C843.312 463.258 843.084 462.171 843.107 461.076C843.084 459.979 843.312 458.892 843.775 457.898C844.194 457.015 844.86 456.273 845.691 455.762C846.599 455.232 847.638 454.967 848.688 454.998C849.89 454.954 851.072 455.308 852.051 456.005C852.958 456.686 853.624 457.638 853.952 458.723L851.983 459.267C851.794 458.566 851.388 457.942 850.824 457.485C850.206 457.035 849.452 456.811 848.688 456.852C847.998 456.826 847.316 457.009 846.731 457.378C846.199 457.743 845.79 458.261 845.558 458.863C845.282 459.575 845.146 460.333 845.157 461.097C845.14 461.859 845.274 462.617 845.549 463.327C845.785 463.932 846.199 464.45 846.737 464.813C847.323 465.181 848.006 465.364 848.697 465.338C849.459 465.372 850.208 465.143 850.821 464.691C851.384 464.233 851.79 463.609 851.98 462.909L853.952 463.425C853.627 464.509 852.965 465.461 852.063 466.143C851.08 466.843 849.894 467.197 848.688 467.15Z" fill="white"/>
<path d="M856.094 466.91V455.239H860.915C861.031 455.239 861.176 455.239 861.354 455.239C861.52 455.247 861.684 455.264 861.847 455.292C862.455 455.368 863.032 455.6 863.523 455.967C863.959 456.308 864.298 456.759 864.503 457.274C864.72 457.833 864.828 458.429 864.821 459.029C864.844 459.901 864.593 460.759 864.102 461.48C863.84 461.832 863.508 462.126 863.127 462.344C862.747 462.562 862.325 462.7 861.889 462.748L861.054 462.819H858.048V466.91H856.094ZM858.048 461.01H860.834C860.944 461.01 861.063 461.01 861.2 460.993C861.326 460.984 861.45 460.962 861.571 460.927C861.864 460.866 862.132 460.717 862.337 460.5C862.522 460.3 862.658 460.061 862.736 459.802C862.811 459.555 862.85 459.299 862.851 459.041C862.85 458.781 862.811 458.523 862.736 458.275C862.658 458.014 862.522 457.774 862.337 457.574C862.131 457.358 861.863 457.21 861.571 457.149C861.45 457.117 861.325 457.098 861.2 457.09C861.063 457.09 860.944 457.09 860.834 457.09H858.048V461.01ZM862.801 466.91L860.502 462.157L862.486 461.72L865.014 466.907L862.801 466.91Z" fill="white"/>
<path d="M867.164 466.91V455.239H874.7V457.072H869.116V459.947H873.726V461.78H869.116V465.077H874.7V466.91H867.164Z" fill="white"/>
<path d="M876.206 466.91L879.883 455.239H882.744L886.424 466.91H884.413L881.074 456.439H881.514L878.217 466.91H876.206ZM878.256 464.379V462.558H884.381V464.379H878.256Z" fill="white"/>
<path d="M890.087 466.91V457.072H886.312V455.239H895.817V457.072H892.038V466.91H890.087Z" fill="white"/>
<path d="M897.646 466.91V455.239H899.598V466.91H897.646Z" fill="white"/>
<path d="M905.043 466.91L901.351 455.239H903.359L906.439 465.012L909.558 455.239H911.578L907.888 466.91H905.043Z" fill="white"/>
<path d="M913.154 466.91V455.239H920.69V457.072H915.109V459.947H919.719V461.78H915.109V465.077H920.69V466.91H913.154Z" fill="white"/>
<path d="M923.162 466.91V455.239H925.114V466.91H923.162Z" fill="white"/>
<path d="M930.73 466.91V457.072H926.955V455.239H936.46V457.072H932.682V466.91H930.73Z" fill="white"/>
<path d="M938.126 466.91V455.239H945.662V457.072H940.092V459.947H944.702V461.78H940.092V465.077H945.674V466.91H938.126Z" fill="white"/>
<path d="M947.982 466.91V455.239H949.741L953.775 463.506L957.811 455.239H959.567V466.91H957.746V459.43L954.164 466.91H953.386L949.821 459.43V466.91H947.982Z" fill="white"/>
<path d="M815.86 470.789L807.43 465.92V475.654L815.86 470.789Z" fill="white" fill-opacity="0.48"/>
<path d="M832.717 461.055L824.287 456.19V465.921L832.717 461.055Z" fill="white" fill-opacity="0.47"/>
<path d="M815.86 451.321L807.43 446.456V456.189L815.86 451.321Z" fill="white" fill-opacity="0.48"/>
<path d="M807.43 446.456L800.687 450.35C800.174 450.645 799.747 451.07 799.451 451.583C799.155 452.096 798.999 452.677 799 453.27V468.84C799 469.433 799.155 470.015 799.452 470.528C799.748 471.041 800.174 471.467 800.687 471.763L807.43 475.654V446.456Z" fill="url(#paint43_linear_215_7128)"/>
<path d="M832.716 468.84V461.055L807.43 475.654L814.172 479.549C814.685 479.845 815.266 480.001 815.858 480.001C816.45 480.001 817.031 479.845 817.544 479.549L831.032 471.763C831.545 471.467 831.97 471.04 832.266 470.527C832.561 470.014 832.717 469.433 832.716 468.84Z" fill="url(#paint44_linear_215_7128)"/>
<path d="M817.606 442.594C817.098 442.301 816.521 442.146 815.934 442.146C815.347 442.146 814.77 442.301 814.262 442.594L807.572 446.456L832.654 460.939V453.216C832.654 452.629 832.5 452.052 832.206 451.543C831.913 451.034 831.49 450.611 830.982 450.317L817.606 442.594Z" fill="url(#paint45_linear_215_7128)"/>
</g>
<defs>
<linearGradient id="paint0_linear_215_7128" x1="490" y1="-49" x2="490" y2="549" gradientUnits="userSpaceOnUse">
<stop stop-color="#FFC7C7"/>
<stop offset="1" stop-color="#E51E5A"/>
</linearGradient>
<linearGradient id="paint1_linear_215_7128" x1="393.545" y1="122.126" x2="393.545" y2="164.36" gradientUnits="userSpaceOnUse">
<stop stop-color="#3359DE"/>
<stop offset="1" stop-color="#C2D0FF"/>
</linearGradient>
<linearGradient id="paint2_linear_215_7128" x1="200.332" y1="122.126" x2="200.332" y2="206.985" gradientUnits="userSpaceOnUse">
<stop stop-color="#3359DE"/>
<stop offset="1" stop-color="#C2D0FF"/>
</linearGradient>
<linearGradient id="paint3_linear_215_7128" x1="296.946" y1="109.64" x2="296.946" y2="340.86" gradientUnits="userSpaceOnUse">
<stop stop-color="#E5E8FF"/>
<stop offset="0.0001" stop-color="#F6F7FF"/>
<stop offset="1" stop-color="#B8C8FF"/>
</linearGradient>
<linearGradient id="paint4_linear_215_7128" x1="321.472" y1="100.967" x2="321.472" y2="109.623" gradientUnits="userSpaceOnUse">
<stop stop-color="#E5E8FF"/>
<stop offset="0.0001" stop-color="#F6F7FF"/>
<stop offset="1" stop-color="#B8C8FF"/>
</linearGradient>
<linearGradient id="paint5_linear_215_7128" x1="243.926" y1="100.966" x2="243.926" y2="109.619" gradientUnits="userSpaceOnUse">
<stop stop-color="#E5E8FF"/>
<stop offset="0.0001" stop-color="#F6F7FF"/>
<stop offset="1" stop-color="#B8C8FF"/>
</linearGradient>
<linearGradient id="paint6_linear_215_7128" x1="227.338" y1="100.966" x2="227.338" y2="109.618" gradientUnits="userSpaceOnUse">
<stop stop-color="#E5E8FF"/>
<stop offset="0.0001" stop-color="#F6F7FF"/>
<stop offset="1" stop-color="#B8C8FF"/>
</linearGradient>
<linearGradient id="paint7_linear_215_7128" x1="674.996" y1="352.368" x2="725.881" y2="276.474" gradientUnits="userSpaceOnUse">
<stop offset="0.184024" stop-color="#03AB8D"/>
<stop offset="1" stop-color="#67FFD2"/>
</linearGradient>
<linearGradient id="paint8_linear_215_7128" x1="577.063" y1="292.296" x2="655.786" y2="223.618" gradientUnits="userSpaceOnUse">
<stop offset="0.184024" stop-color="#03AB8D"/>
<stop offset="1" stop-color="#67FFD2"/>
</linearGradient>
<linearGradient id="paint9_linear_215_7128" x1="703.572" y1="300.274" x2="814.75" y2="180.377" gradientUnits="userSpaceOnUse">
<stop offset="0.184024" stop-color="#03AB8D"/>
<stop offset="1" stop-color="#67FFD2"/>
</linearGradient>
<linearGradient id="paint10_linear_215_7128" x1="659.296" y1="161.125" x2="614.892" y2="178.269" gradientUnits="userSpaceOnUse">
<stop offset="0.13627" stop-color="#F68CFF"/>
<stop offset="0.921622" stop-color="#630285"/>
</linearGradient>
<linearGradient id="paint11_linear_215_7128" x1="498.85" y1="339.113" x2="683.717" y2="341.327" gradientUnits="userSpaceOnUse">
<stop stop-color="#1C8DDA"/>
<stop offset="1" stop-color="#B1E0FF"/>
</linearGradient>
<linearGradient id="paint12_linear_215_7128" x1="512.134" y1="310.885" x2="655.489" y2="309.225" gradientUnits="userSpaceOnUse">
<stop stop-color="#FFD002"/>
<stop offset="1" stop-color="#FFF7D5"/>
</linearGradient>
<linearGradient id="paint13_linear_215_7128" x1="659.917" y1="321.955" x2="567.483" y2="321.955" gradientUnits="userSpaceOnUse">
<stop stop-color="#F7A52B"/>
<stop offset="1" stop-color="#FFF4F0"/>
</linearGradient>
<linearGradient id="paint14_linear_215_7128" x1="578.832" y1="289.701" x2="578.832" y2="325.571" gradientUnits="userSpaceOnUse">
<stop stop-color="#FF9C02"/>
<stop offset="1" stop-color="#FFF6E8"/>
</linearGradient>
<linearGradient id="paint15_linear_215_7128" x1="579.021" y1="318.936" x2="579.021" y2="325.569" gradientUnits="userSpaceOnUse">
<stop stop-color="#FF4E02"/>
<stop offset="1" stop-color="#FFE9E0"/>
</linearGradient>
<linearGradient id="paint16_linear_215_7128" x1="687.038" y1="356.272" x2="499.404" y2="356.272" gradientUnits="userSpaceOnUse">
<stop stop-color="#1D9BE0"/>
<stop offset="1" stop-color="#A0DDFF"/>
</linearGradient>
<linearGradient id="paint17_linear_215_7128" x1="598.096" y1="325.571" x2="598.096" y2="361.44" gradientUnits="userSpaceOnUse">
<stop stop-color="#2F85EA"/>
<stop offset="1" stop-color="#C6E0FF"/>
</linearGradient>
<linearGradient id="paint18_linear_215_7128" x1="598.096" y1="350.219" x2="598.096" y2="361.44" gradientUnits="userSpaceOnUse">
<stop stop-color="#B1C5FF"/>
<stop offset="1" stop-color="#18A6F6"/>
</linearGradient>
<linearGradient id="paint19_linear_215_7128" x1="424.683" y1="380.626" x2="704.751" y2="380.626" gradientUnits="userSpaceOnUse">
<stop stop-color="#0EAFB6"/>
<stop offset="1" stop-color="#5FE6EC"/>
</linearGradient>
<linearGradient id="paint20_linear_215_7128" x1="704.75" y1="402.765" x2="498.85" y2="402.765" gradientUnits="userSpaceOnUse">
<stop stop-color="#0D9591"/>
<stop offset="1" stop-color="#3DCFCB"/>
</linearGradient>
<linearGradient id="paint21_linear_215_7128" x1="636.111" y1="361.438" x2="648.294" y2="412.175" gradientUnits="userSpaceOnUse">
<stop stop-color="#08A0A7"/>
<stop offset="1" stop-color="#36D5DC"/>
</linearGradient>
<linearGradient id="paint22_linear_215_7128" x1="636.045" y1="395.895" x2="636.045" y2="408.565" gradientUnits="userSpaceOnUse">
<stop stop-color="#44D9D4"/>
<stop offset="1" stop-color="#109995"/>
</linearGradient>
<linearGradient id="paint23_linear_215_7128" x1="608.998" y1="323.616" x2="564.718" y2="323.616" gradientUnits="userSpaceOnUse">
<stop stop-color="#FFB202"/>
<stop offset="1" stop-color="#FFFDFA"/>
</linearGradient>
<linearGradient id="paint24_linear_215_7128" x1="236.496" y1="252.215" x2="506.6" y2="248.894" gradientUnits="userSpaceOnUse">
<stop stop-color="#FF9C02"/>
<stop offset="1" stop-color="#FFE7C2"/>
</linearGradient>
<linearGradient id="paint25_linear_215_7128" x1="393.687" y1="180.814" x2="410.292" y2="181.921" gradientUnits="userSpaceOnUse">
<stop stop-color="#F91D49"/>
<stop offset="1" stop-color="#FFB4C3"/>
</linearGradient>
<linearGradient id="paint26_linear_215_7128" x1="582.725" y1="142.08" x2="582.725" y2="235.779" gradientUnits="userSpaceOnUse">
<stop stop-color="#00256C"/>
<stop offset="1" stop-color="#374154"/>
</linearGradient>
<linearGradient id="paint27_linear_215_7128" x1="452.358" y1="387.267" x2="415.827" y2="411.068" gradientUnits="userSpaceOnUse">
<stop stop-color="#B60B2D"/>
<stop offset="1" stop-color="#F76D88"/>
</linearGradient>
<linearGradient id="paint28_linear_215_7128" x1="425.34" y1="407.747" x2="400.986" y2="412.728" gradientUnits="userSpaceOnUse">
<stop stop-color="#FCAE50"/>
<stop offset="1" stop-color="#FCE5C9"/>
</linearGradient>
<linearGradient id="paint29_linear_215_7128" x1="400.736" y1="414.034" x2="465.795" y2="415.295" gradientUnits="userSpaceOnUse">
<stop stop-color="#FF4E02"/>
<stop offset="1" stop-color="#FFC0A5"/>
</linearGradient>
<linearGradient id="paint30_linear_215_7128" x1="501.52" y1="387.267" x2="464.989" y2="411.068" gradientUnits="userSpaceOnUse">
<stop stop-color="#B60B2D"/>
<stop offset="1" stop-color="#F76D88"/>
</linearGradient>
<linearGradient id="paint31_linear_215_7128" x1="474.497" y1="407.747" x2="450.143" y2="412.728" gradientUnits="userSpaceOnUse">
<stop stop-color="#FCAE50"/>
<stop offset="1" stop-color="#FCE5C9"/>
</linearGradient>
<linearGradient id="paint32_linear_215_7128" x1="449.895" y1="414.034" x2="514.955" y2="415.294" gradientUnits="userSpaceOnUse">
<stop stop-color="#FF4E02"/>
<stop offset="1" stop-color="#FFC0A5"/>
</linearGradient>
<linearGradient id="paint33_linear_215_7128" x1="524.651" y1="177.316" x2="549.532" y2="204.779" gradientUnits="userSpaceOnUse">
<stop stop-color="white"/>
<stop offset="0.84427" stop-color="#FFC4C4"/>
</linearGradient>
<linearGradient id="paint34_linear_215_7128" x1="557.522" y1="194.652" x2="566.937" y2="265.735" gradientUnits="userSpaceOnUse">
<stop stop-color="#D30A43"/>
<stop offset="1" stop-color="#FF7DA2"/>
</linearGradient>
<linearGradient id="paint35_linear_215_7128" x1="551.544" y1="277.343" x2="410.643" y2="363.886" gradientUnits="userSpaceOnUse">
<stop offset="0.246261" stop-color="#22217E"/>
<stop offset="1" stop-color="#6867BF"/>
</linearGradient>
<linearGradient id="paint36_linear_215_7128" x1="563.611" y1="279.89" x2="468.41" y2="407.746" gradientUnits="userSpaceOnUse">
<stop stop-color="#22217E"/>
<stop offset="1" stop-color="#6867BF"/>
</linearGradient>
<linearGradient id="paint37_linear_215_7128" x1="508.044" y1="145.245" x2="561.661" y2="183.677" gradientUnits="userSpaceOnUse">
<stop stop-color="white"/>
<stop offset="0.84427" stop-color="#FFC4C4"/>
</linearGradient>
<linearGradient id="paint38_linear_215_7128" x1="481.138" y1="238.378" x2="563.055" y2="248.894" gradientUnits="userSpaceOnUse">
<stop stop-color="#00B6BE"/>
<stop offset="1" stop-color="#54EDF4"/>
</linearGradient>
<linearGradient id="paint39_linear_215_7128" x1="573.366" y1="224.392" x2="552.189" y2="267.821" gradientUnits="userSpaceOnUse">
<stop stop-color="#B9F2EF"/>
<stop offset="1" stop-color="white"/>
</linearGradient>
<linearGradient id="paint40_linear_215_7128" x1="560.289" y1="215.131" x2="527.633" y2="256.089" gradientUnits="userSpaceOnUse">
<stop stop-color="#B9F2EF"/>
<stop offset="1" stop-color="white"/>
</linearGradient>
<linearGradient id="paint41_linear_215_7128" x1="531.506" y1="269.927" x2="529.845" y2="262.178" gradientUnits="userSpaceOnUse">
<stop stop-color="#018E85"/>
<stop offset="1" stop-color="#44D9CF"/>
</linearGradient>
<linearGradient id="paint42_linear_215_7128" x1="478.372" y1="244.466" x2="513.108" y2="310.375" gradientUnits="userSpaceOnUse">
<stop stop-color="white"/>
<stop offset="0.727443" stop-color="#FFC4C4"/>
</linearGradient>
<linearGradient id="paint43_linear_215_7128" x1="799" y1="461.055" x2="807.43" y2="461.055" gradientUnits="userSpaceOnUse">
<stop stop-color="white"/>
<stop offset="1" stop-color="white" stop-opacity="0.82"/>
</linearGradient>
<linearGradient id="paint44_linear_215_7128" x1="807.43" y1="470.528" x2="832.716" y2="470.528" gradientUnits="userSpaceOnUse">
<stop stop-color="white"/>
<stop offset="1" stop-color="white" stop-opacity="0.82"/>
</linearGradient>
<linearGradient id="paint45_linear_215_7128" x1="807.572" y1="451.543" x2="832.654" y2="451.543" gradientUnits="userSpaceOnUse">
<stop stop-color="white"/>
<stop offset="1" stop-color="white" stop-opacity="0.82"/>
</linearGradient>
<clipPath id="clip0_215_7128">
<rect width="160.567" height="38" fill="white" transform="translate(799 442)"/>
</clipPath>
</defs>
</svg>
