<svg width="980" height="500" viewBox="0 0 980 500" fill="none" xmlns="http://www.w3.org/2000/svg">
<rect width="980" height="500" fill="url(#paint0_linear_69_474)"/>
<g clip-path="url(#clip0_69_474)">
<path d="M848.688 467.15C847.638 467.181 846.599 466.917 845.691 466.387C844.86 465.875 844.194 465.133 843.775 464.251C843.312 463.258 843.084 462.171 843.107 461.076C843.084 459.979 843.312 458.892 843.775 457.898C844.194 457.015 844.86 456.273 845.691 455.762C846.599 455.232 847.638 454.967 848.688 454.998C849.89 454.954 851.072 455.308 852.051 456.005C852.958 456.686 853.624 457.638 853.952 458.723L851.983 459.267C851.794 458.566 851.388 457.942 850.824 457.485C850.206 457.035 849.452 456.811 848.688 456.852C847.998 456.826 847.316 457.009 846.731 457.378C846.199 457.743 845.79 458.261 845.558 458.863C845.282 459.575 845.146 460.333 845.157 461.097C845.14 461.859 845.274 462.617 845.549 463.327C845.785 463.932 846.199 464.45 846.737 464.813C847.323 465.181 848.006 465.364 848.697 465.338C849.459 465.372 850.208 465.143 850.821 464.691C851.384 464.233 851.79 463.609 851.98 462.909L853.952 463.425C853.627 464.509 852.965 465.461 852.063 466.143C851.08 466.843 849.894 467.197 848.688 467.15Z" fill="white"/>
<path d="M856.094 466.91V455.239H860.915C861.03 455.239 861.176 455.239 861.354 455.239C861.519 455.247 861.684 455.264 861.847 455.292C862.455 455.368 863.032 455.6 863.523 455.967C863.959 456.308 864.298 456.759 864.503 457.274C864.72 457.833 864.828 458.429 864.821 459.029C864.844 459.901 864.592 460.759 864.102 461.48C863.84 461.832 863.508 462.126 863.127 462.344C862.746 462.562 862.325 462.7 861.889 462.748L861.054 462.819H858.048V466.91H856.094ZM858.048 461.01H860.834C860.944 461.01 861.063 461.01 861.2 460.993C861.325 460.984 861.45 460.962 861.571 460.927C861.864 460.866 862.132 460.717 862.337 460.5C862.521 460.3 862.658 460.061 862.735 459.802C862.81 459.555 862.849 459.299 862.851 459.041C862.85 458.781 862.811 458.523 862.735 458.275C862.658 458.014 862.522 457.774 862.337 457.574C862.13 457.358 861.863 457.21 861.571 457.149C861.449 457.117 861.325 457.098 861.2 457.09C861.063 457.09 860.944 457.09 860.834 457.09H858.048V461.01ZM862.801 466.91L860.502 462.157L862.486 461.72L865.014 466.907L862.801 466.91Z" fill="white"/>
<path d="M867.164 466.91V455.239H874.7V457.072H869.116V459.947H873.726V461.78H869.116V465.077H874.7V466.91H867.164Z" fill="white"/>
<path d="M876.206 466.91L879.883 455.239H882.744L886.424 466.91H884.413L881.074 456.439H881.514L878.217 466.91H876.206ZM878.255 464.379V462.558H884.38V464.379H878.255Z" fill="white"/>
<path d="M890.087 466.91V457.072H886.311V455.239H895.816V457.072H892.038V466.91H890.087Z" fill="white"/>
<path d="M897.646 466.91V455.239H899.598V466.91H897.646Z" fill="white"/>
<path d="M905.042 466.91L901.35 455.239H903.358L906.438 465.012L909.557 455.239H911.577L907.888 466.91H905.042Z" fill="white"/>
<path d="M913.154 466.91V455.239H920.69V457.072H915.109V459.947H919.719V461.78H915.109V465.077H920.69V466.91H913.154Z" fill="white"/>
<path d="M923.162 466.91V455.239H925.113V466.91H923.162Z" fill="white"/>
<path d="M930.73 466.91V457.072H926.955V455.239H936.46V457.072H932.682V466.91H930.73Z" fill="white"/>
<path d="M938.126 466.91V455.239H945.662V457.072H940.093V459.947H944.703V461.78H940.093V465.077H945.674V466.91H938.126Z" fill="white"/>
<path d="M947.982 466.91V455.239H949.741L953.774 463.506L957.811 455.239H959.567V466.91H957.746V459.43L954.164 466.91H953.385L949.821 459.43V466.91H947.982Z" fill="white"/>
<path d="M815.86 470.789L807.43 465.92V475.654L815.86 470.789Z" fill="white" fill-opacity="0.48"/>
<path d="M832.717 461.055L824.287 456.19V465.921L832.717 461.055Z" fill="white" fill-opacity="0.47"/>
<path d="M815.86 451.321L807.43 446.456V456.189L815.86 451.321Z" fill="white" fill-opacity="0.48"/>
<path d="M807.43 446.456L800.687 450.35C800.174 450.645 799.747 451.07 799.451 451.583C799.155 452.096 798.999 452.677 799 453.27V468.84C799 469.433 799.155 470.015 799.452 470.528C799.748 471.041 800.174 471.467 800.687 471.763L807.43 475.654V446.456Z" fill="url(#paint1_linear_69_474)"/>
<path d="M832.717 468.84V461.055L807.43 475.654L814.173 479.549C814.685 479.845 815.267 480.001 815.858 480.001C816.45 480.001 817.032 479.845 817.544 479.549L831.033 471.763C831.545 471.467 831.97 471.04 832.266 470.527C832.562 470.014 832.717 469.433 832.717 468.84Z" fill="url(#paint2_linear_69_474)"/>
<path d="M817.606 442.594C817.098 442.301 816.521 442.146 815.934 442.146C815.347 442.146 814.77 442.301 814.262 442.594L807.573 446.456L832.654 460.939V453.216C832.654 452.629 832.5 452.052 832.206 451.543C831.913 451.034 831.491 450.611 830.982 450.317L817.606 442.594Z" fill="url(#paint3_linear_69_474)"/>
</g>
<path opacity="0.16" d="M329.032 402.527C299.812 398.291 181.156 274.438 340.035 171.165C375.463 148.133 408.052 161.523 445.199 123.415C473.441 94.4482 494.79 75.9309 530.944 72.9352C574.481 69.3265 637.632 74.2449 654.983 122.384C662.91 144.385 666.755 163.362 666.992 186.255C667.579 244.746 708.529 249.832 718.833 288.985C735.401 351.935 698.729 401.329 676.024 402.471C654.829 403.558 351.43 405.258 329.032 402.527Z" fill="white"/>
<path d="M430.755 210.226C445.252 224.962 455.651 243.879 465.911 261.905C476.061 279.721 492.649 303.56 493.992 325.795C494.671 337.115 451.649 368.44 444.629 364.69C438.869 361.623 435.491 351.433 431.849 346.275C415.482 323.133 397.426 302.026 382.237 277.728C364.25 248.94 358.448 218.967 356.842 183.125C356.718 180.393 354.267 170.704 358.352 167.804C364.181 163.678 380.451 176.643 385.477 179.18C402.397 187.74 417.684 196.955 430.755 210.226Z" fill="url(#paint4_linear_69_474)"/>
<path d="M454.912 334.33C454.829 334.512 454.677 334.693 454.497 334.819C454.041 335.112 453.502 335.042 453.294 334.665L361.092 173.395C360.871 173.019 361.064 172.474 361.507 172.181C361.949 171.888 362.502 171.958 362.709 172.335L454.912 333.605C455.036 333.814 455.022 334.079 454.912 334.33Z" fill="#47ED96"/>
<path d="M600.315 312.944C600.397 312.778 602.372 308.842 606.768 302.918C608.306 300.837 610.268 298.356 612.663 295.619C612.707 295.558 612.75 295.497 612.817 295.455C612.93 295.339 613.033 295.206 613.15 295.077C614.168 292.587 616.467 285.997 615.856 282.809C615.849 282.779 615.845 282.735 615.838 282.705L615.841 282.691C615.841 282.691 615.844 282.678 615.831 282.675C615.765 282.345 615.139 279.096 614.878 275.519C614.5 270.184 615.159 267.024 616.906 265.821C617.674 265.302 619.003 264.901 620.996 265.999C622.75 266.956 623.786 268.344 624.072 270.112C624.856 274.941 619.518 281.214 618.047 282.826C618.355 285.171 617.627 288.443 616.819 291.14C619.531 288.335 622.652 285.383 626.192 282.417C626.208 282.349 626.224 282.281 626.257 282.203L630.978 271.126C630.862 270.584 630.126 267.195 629.785 263.47C629.269 257.746 629.924 254.299 631.797 252.925C632.632 252.308 634.108 251.827 636.431 252.989C638.716 254.128 639.993 255.83 640.218 258.041C640.742 263.238 635.08 269.549 633.223 271.34L629.724 279.548C630.919 278.615 632.142 277.688 633.372 276.792C633.388 276.782 633.388 276.782 633.392 276.768C638.462 273.091 643.823 269.767 649.422 266.828C649.798 266.574 653.616 263.887 654.244 258.79C654.087 257.995 653.402 254.575 653.131 250.796C652.672 244.771 653.432 241.12 655.429 239.647C656.314 238.998 657.888 238.469 660.35 239.65C662.488 240.683 663.746 242.223 664.106 244.223C665.12 249.964 657.886 257.705 656.38 259.222C656.108 261.23 655.427 262.899 654.62 264.252C655.364 263.899 656.121 263.548 656.888 263.215C656.905 263.205 656.935 263.197 656.952 263.187C659.919 261.857 662.936 260.625 666.011 259.507C667.659 258.909 669.313 258.341 670.978 257.791L676.922 249.317C676.956 248.138 677.095 245.785 677.499 243.279C678.311 238.254 679.738 235.303 681.863 234.261C682.886 233.759 684.588 233.474 686.865 235.012C688.76 236.287 689.68 237.862 689.583 239.668C689.465 242.056 687.519 244.713 683.835 247.56C681.202 249.597 678.625 250.976 678.524 251.038L678.245 251.187L674.333 256.767C676.167 256.227 678.009 255.718 679.874 255.229C679.922 255.212 679.982 255.198 680.026 255.194C687.81 253.213 695.9 251.819 704.269 251.006L708.72 245.152C708.914 244.512 709.577 242.368 710.672 240.096C712.494 236.324 714.569 234.098 716.842 233.462C718.714 232.946 720.594 233.489 722.436 235.11C724.182 236.65 724.83 238.218 724.348 239.777C723.711 241.87 721.105 243.614 716.382 245.087C713.779 245.902 711.311 246.392 710.338 246.563L707.154 250.757C712.607 250.328 718.188 250.143 723.857 250.194C724.634 249.82 727.117 248.661 730.089 247.676C734.979 246.042 738.679 245.685 741.089 246.597C742.499 247.129 743.464 248.086 743.964 249.433C744.329 250.319 744.569 252.162 743.221 253.559C740.661 256.2 733.998 255.801 722.852 252.329C722.797 252.316 722.746 252.29 722.695 252.264C716.505 252.233 710.6 252.513 704.979 253.046C697.702 253.731 690.881 254.852 684.526 256.312L699.677 260.442C702.19 260.005 711.285 258.734 715.701 262.091C717.296 263.296 718.126 264.949 718.186 267.007C718.243 269.321 717.227 270.282 716.342 270.688C715.582 271.052 714.608 271.108 713.423 270.9C711.403 270.524 708.761 269.315 705.46 267.251C701.794 264.971 698.691 262.496 698.557 262.393L698.413 262.273L680.321 257.35C677.464 258.091 674.709 258.885 672.039 259.742C669.103 260.693 666.283 261.7 663.579 262.763C666.484 262.734 669.724 262.926 671.809 263.76C672.695 263.712 675.579 263.592 678.857 263.865C684.231 264.317 687.862 265.588 689.686 267.647C690.919 269.052 691.305 270.759 690.815 272.715C690.239 275.038 688.862 275.828 687.826 276.084C687.171 276.244 686.453 276.246 685.642 276.097C683.401 275.683 680.544 274.052 677.001 271.187C674.051 268.791 671.608 266.314 670.976 265.651C667.88 264.42 660.795 264.836 657.853 265.143C655.289 266.282 652.841 267.477 650.516 268.701C645.689 271.222 641.348 273.871 637.452 276.525C640.82 276.476 645.52 276.441 647.846 276.675L647.941 276.64C648.331 276.504 657.667 273.417 662.089 276.203C663.5 277.093 664.285 278.45 664.415 280.21C664.576 282.264 663.679 283.21 662.886 283.651C662.029 284.121 660.873 284.22 659.403 283.945C657.834 283.661 655.894 282.946 653.568 281.797C651.215 280.642 649.131 279.379 648.192 278.8C646.731 278.484 639.461 278.528 634.394 278.662C632.558 280.002 630.839 281.326 629.226 282.632C628.854 282.93 628.479 283.242 628.121 283.543C624.072 286.905 620.555 290.263 617.576 293.405C620.742 292.265 624.939 291.139 628.113 291.673C628.83 291.185 630.541 290.073 632.616 289.062C636.393 287.223 639.392 286.672 641.566 287.428C642.706 287.825 644.21 288.809 644.844 291.231C645.45 293.532 644.652 294.787 643.868 295.431C642.476 296.589 640.025 296.826 636.382 296.153C635.736 296.029 635.054 295.882 634.32 295.709C631.771 295.08 629.481 294.268 628.504 293.909L628.49 293.906C624.673 292.691 617.111 295.682 614.248 297.051C611.95 299.681 610.054 302.064 608.575 304.073C606.429 306.969 604.849 309.412 603.814 311.126C602.778 312.839 602.271 313.834 602.265 313.862C602.048 314.296 601.563 314.525 601.084 314.426C600.989 314.404 600.908 314.385 600.819 314.335C600.29 314.082 600.065 313.457 600.315 312.944Z" fill="white" fill-opacity="0.36"/>
<path d="M434.463 297.145C434.293 297.507 433.882 297.758 433.512 297.702C433.115 297.646 432.902 297.284 433.044 296.881L448.928 252.647C449.07 252.243 449.51 251.951 449.921 252.007C450.319 252.063 450.532 252.425 450.39 252.828L434.506 297.062L434.463 297.145ZM449.751 321.427C449.566 321.817 449.112 322.067 448.729 321.984C448.346 321.9 448.175 321.511 448.346 321.107L466.529 280.883C466.713 280.479 467.167 280.229 467.551 280.312C467.934 280.396 468.104 280.786 467.934 281.189L449.751 321.413C449.765 321.413 449.765 321.413 449.751 321.427Z" fill="#47ED96"/>
<path d="M447.616 320.798C447.963 320.924 448.101 321.273 447.921 321.595C447.741 321.916 447.298 322.084 446.938 321.958L410.713 309.62C410.353 309.494 410.215 309.145 410.395 308.823C410.575 308.502 411.018 308.334 411.378 308.46L447.603 320.798H447.616ZM432.487 296.024C432.833 296.149 432.972 296.499 432.792 296.82C432.612 297.142 432.169 297.309 431.809 297.183L395.584 284.845C395.224 284.719 395.086 284.37 395.266 284.049C395.446 283.727 395.888 283.559 396.248 283.685L432.473 296.024H432.487ZM380.219 205.057L363.318 197.288C362.972 197.135 362.903 196.701 363.138 196.324C363.373 195.947 363.844 195.765 364.19 195.919L378.793 202.626L379.403 182.882C379.416 182.477 379.762 182.085 380.178 182.015C380.593 181.932 380.925 182.197 380.911 182.602L380.219 205.057ZM396.47 234.639L366.82 223.251C366.474 223.111 366.363 222.692 366.585 222.301C366.806 221.909 367.277 221.714 367.623 221.853L395.418 232.529L402.131 199.091C402.214 198.686 402.616 198.336 403.017 198.336C403.432 198.322 403.695 198.644 403.612 199.063L396.47 234.639ZM414.686 267.644L372.869 252.106C372.509 251.98 372.398 251.547 372.62 251.169C372.841 250.778 373.298 250.582 373.658 250.708L413.676 265.59L423.946 219.701C424.043 219.296 424.445 218.961 424.846 218.961C425.248 218.961 425.511 219.296 425.414 219.701L414.686 267.644Z" fill="#47ED96"/>
<path d="M634.832 282.848C619.626 285.887 605.249 293.2 591.306 300.014C577.532 306.758 557.23 314.515 547.12 327.614C541.981 334.289 555.854 371.354 561.807 371.964C566.693 372.464 573.039 367.607 577.476 365.942C597.358 358.504 617.45 353.036 637.065 344.405C660.302 334.178 676.421 318.178 692.357 296.822C693.579 295.199 699.139 290.258 697.791 286.789C695.867 281.835 680.282 283.056 676.07 282.529C661.945 280.781 648.536 280.101 634.832 282.848Z" fill="url(#paint5_linear_69_474)"/>
<path d="M569.011 349.066C568.983 349.221 569.011 349.39 569.08 349.544C569.233 349.91 569.609 350.093 569.888 349.953L693.685 288.385C693.978 288.244 694.089 287.822 693.922 287.456C693.769 287.09 693.393 286.907 693.115 287.047L569.317 348.615C569.15 348.7 569.039 348.869 569.011 349.066Z" fill="#3AE48D"/>
<path d="M597.308 334.589C597.266 334.877 597.405 335.191 597.656 335.315C597.921 335.438 598.199 335.301 598.283 335L606.977 301.826C607.061 301.524 606.907 301.168 606.643 301.045C606.378 300.922 606.099 301.059 606.016 301.36L597.321 334.534C597.321 334.548 597.308 334.575 597.308 334.589ZM578.01 343.228C577.954 343.543 578.136 343.872 578.4 343.968C578.665 344.077 578.93 343.899 578.985 343.584L584.614 311.93C584.67 311.615 584.503 311.273 584.224 311.177C583.96 311.067 583.695 311.245 583.639 311.56L578.01 343.228C578.01 343.215 578.01 343.215 578.01 343.228Z" fill="#3AE48D"/>
<path d="M578.515 343.507C578.251 343.437 578.015 343.604 578.001 343.869C577.987 344.148 578.195 344.427 578.459 344.497L605.963 351.983C606.24 352.053 606.477 351.9 606.49 351.621C606.504 351.342 606.296 351.063 606.032 350.993L578.515 343.507C578.529 343.507 578.529 343.507 578.515 343.507ZM598.073 334.556C597.809 334.487 597.573 334.654 597.559 334.919C597.545 335.198 597.753 335.476 598.017 335.546L625.521 343.033C625.798 343.103 626.035 342.949 626.048 342.67C626.062 342.391 625.854 342.113 625.59 342.043L598.073 334.556ZM667.832 300.316L681.486 302.574C681.764 302.616 681.986 302.393 682 302.059C682 301.724 681.792 301.417 681.514 301.375L669.721 299.424L677.472 287.016C677.624 286.765 677.569 286.374 677.347 286.151C677.124 285.928 676.805 285.956 676.652 286.207L667.832 300.316ZM645.606 311.762L668.651 317.102C668.929 317.171 669.165 316.948 669.179 316.614C669.207 316.279 668.998 315.958 668.721 315.903L647.121 310.898L656.705 287.518C656.816 287.239 656.719 286.862 656.469 286.681C656.219 286.5 655.927 286.597 655.802 286.876L645.606 311.762ZM620.756 324.491L653.038 332.34C653.316 332.409 653.552 332.186 653.58 331.866C653.607 331.531 653.399 331.21 653.121 331.155L622.229 323.654L634.73 291.128C634.841 290.836 634.73 290.473 634.48 290.292C634.23 290.125 633.938 290.222 633.827 290.515L620.756 324.491Z" fill="#3AE48D"/>
<path d="M449 376C438.268 327.191 408.03 330.951 381.831 303.751C365.185 286.475 355.675 278.829 335.682 285.259C323.118 289.298 306.721 283.148 295.517 288.236C254.894 306.672 333.433 351.106 350.857 349.024C367.878 346.997 379.832 339.533 397.825 351.414C413.93 362.051 430.701 374.071 449 376Z" fill="url(#paint6_linear_69_474)"/>
<path d="M446.976 370.979C446.934 370.783 446.837 370.601 446.712 370.475C446.447 370.222 420.533 344.506 384.511 324.938C383.468 324.378 382.384 323.79 381.175 323.146C379.02 321.913 376.754 320.736 374.237 319.532C373.125 318.999 371.971 318.467 370.706 317.907L369.9 317.557C358.221 312.514 346.154 307.304 334.156 305.427C333.085 305.231 331.973 305.049 330.875 304.867C328.789 304.53 326.621 304.208 324.229 303.886C323.117 303.732 322.005 303.592 320.893 303.452C319.836 303.326 318.71 303.172 317.57 303.004C317.25 302.962 317 303.284 317 303.746C317 304.208 317.264 304.614 317.598 304.671C318.752 304.839 319.892 304.993 320.948 305.119C322.061 305.259 323.159 305.399 324.271 305.553C326.648 305.875 328.817 306.197 330.889 306.533C331.987 306.716 333.085 306.898 334.17 307.094C346.07 308.957 358.082 314.139 369.705 319.168L370.511 319.518C371.762 320.078 372.902 320.61 374.001 321.129C376.489 322.319 378.742 323.496 380.897 324.714C382.12 325.359 383.204 325.947 384.247 326.507C420.116 346.005 445.905 371.567 446.155 371.833C446.434 372.113 446.795 372.029 446.948 371.665C447.004 371.455 447.017 371.217 446.976 370.979Z" fill="#3FE791"/>
<path d="M386.46 327.6C386.39 327.311 386.223 327.064 386.001 326.967C385.236 326.651 384.429 326.348 383.609 326.073C382.816 325.812 381.981 325.55 381.119 325.33H381.091C375.931 324.271 370.659 323.624 365.429 323.418C364.163 323.404 362.87 323.418 361.548 323.446C359.699 323.501 357.821 323.597 355.79 323.762C353.996 323.9 352.118 324.092 350.045 324.326C348.613 324.505 347.208 324.698 345.887 324.904C340.824 325.688 337.458 326.486 337.416 326.5C337.11 326.568 336.929 326.995 337.026 327.449C337.124 327.903 337.444 328.206 337.75 328.123C337.778 328.109 341.116 327.311 346.151 326.541C347.472 326.335 348.863 326.142 350.282 325.963C352.341 325.729 354.204 325.537 355.985 325.399C358.002 325.234 359.865 325.138 361.701 325.083C363.009 325.041 364.289 325.041 365.526 325.055C370.701 325.262 375.917 325.894 381.035 326.954C381.87 327.174 382.677 327.421 383.456 327.683C384.248 327.958 385.041 328.247 385.778 328.55C386.098 328.687 386.39 328.439 386.446 327.999C386.502 327.862 386.502 327.724 386.46 327.6ZM403.972 338.014C403.944 337.863 403.874 337.726 403.791 337.602C400.161 332.773 394.778 327.614 387.795 322.263C386.78 321.478 385.737 320.694 384.721 319.938L384.04 319.429C382.51 318.122 380.896 316.856 379.227 315.632C377.669 314.49 376.056 313.389 374.303 312.261C370.13 309.606 365.86 307.253 361.729 304.97C357.793 302.796 353.718 300.54 349.809 298.077C349.503 297.885 349.169 298.064 349.072 298.476C348.974 298.889 349.141 299.384 349.447 299.577C353.384 302.067 357.473 304.323 361.437 306.511C365.554 308.781 369.797 311.119 373.942 313.761C375.68 314.875 377.28 315.962 378.81 317.09C380.451 318.287 382.051 319.552 383.567 320.832L383.595 320.859L384.304 321.382C385.319 322.139 386.363 322.923 387.378 323.693C394.249 328.962 399.535 334.025 403.081 338.744C403.332 339.074 403.693 339.087 403.902 338.771C403.999 338.578 404.027 338.29 403.972 338.014Z" fill="#3FE791"/>
<path d="M500.103 240.301C489.623 253.117 507.187 267.091 507.355 280.367C507.55 295.901 491.747 295.065 486.032 307.032C481.379 316.756 485.808 334.463 488.491 344.438C492.376 358.843 498.803 360.138 510.54 351.988C517.01 347.489 522.781 341.86 530.731 339.52C537.802 337.444 545.613 339.868 552.431 338.001C565.957 334.296 562.478 324.502 564.113 314.081C567.872 290.091 614.905 295.246 618.146 265.475C619.767 250.596 606.255 250.888 600.61 240.663C592.604 226.174 612.795 214.541 620.228 204.33C635.668 183.112 624.071 152.171 591.905 155.208C561.556 158.078 552.543 190.9 548.757 213.803C547.108 223.778 546.996 236.79 533.135 237.612C519.693 238.406 511.323 225.77 500.103 240.301Z" fill="url(#paint7_linear_69_474)"/>
<path d="M497.469 354.923C497.455 354.923 497.455 354.909 497.441 354.909C497.038 354.714 496.884 354.239 497.093 353.862L504.316 341.319C505.874 338.612 507.558 335.71 509.506 332.542C513.626 325.817 518.441 319.426 523.089 313.259C527.097 307.943 531.244 302.446 534.959 296.711C540.748 287.418 545.021 277.344 549.154 267.591L549.808 266.042C550.587 264.214 551.52 262.038 552.48 259.805C557.587 244.54 563.738 230.294 570.752 217.472C578.448 203.407 587.451 190.556 597.527 179.282C597.819 178.947 598.348 178.905 598.696 179.184C599.058 179.449 599.099 179.938 598.807 180.273C579.463 201.928 564.824 228.104 554.052 260.307L554.025 260.363C553.05 262.596 552.132 264.786 551.339 266.628L550.685 268.177C546.524 277.972 542.224 288.116 536.379 297.506L536.365 297.52C532.621 303.297 528.46 308.822 524.425 314.166C519.791 320.305 515.003 326.668 510.926 333.338C508.992 336.491 507.308 339.379 505.749 342.072L498.527 354.616C498.36 354.951 497.872 355.104 497.469 354.923Z" fill="#29EB85"/>
<path d="M533.155 301.788C533.099 301.76 533.043 301.732 532.987 301.691C532.624 301.425 532.583 300.936 532.876 300.601C541.262 291.215 550.066 283.463 559.024 277.568C566.224 272.833 573.535 269.271 580.777 266.981C593.182 263.056 600.982 264.215 601.303 264.257C601.763 264.327 602.07 264.732 601.986 265.151C601.903 265.57 601.484 265.849 601.023 265.779C600.898 265.765 593.196 264.662 581.196 268.475C570.061 272.023 552.871 280.641 534.159 301.579C533.908 301.872 533.49 301.942 533.155 301.788ZM517.471 322.908C517.094 322.74 516.899 322.321 517.053 321.958C528.02 293.98 527.559 277.303 525.243 268.238C522.773 258.6 517.82 255.443 517.764 255.415C517.373 255.178 517.276 254.703 517.527 254.34C517.778 253.99 518.308 253.893 518.685 254.13C518.908 254.27 524.239 257.65 526.862 267.874C528.383 273.797 528.676 280.823 527.741 288.77C526.583 298.646 523.513 309.987 518.615 322.489C518.462 322.894 517.974 323.103 517.541 322.95C517.527 322.936 517.499 322.922 517.471 322.908Z" fill="#29EB85"/>
<path d="M369.265 376.749C369.168 376.587 366.987 372.759 362.289 367.067C360.63 365.063 358.549 362.69 356.004 360.071C355.96 360.01 355.903 359.953 355.849 359.909C355.734 359.793 355.616 359.665 355.501 359.549C354.342 357.121 351.707 350.633 352.137 347.412C352.141 347.368 352.148 347.337 352.155 347.307L352.151 347.293C352.151 347.293 352.148 347.28 352.162 347.277C352.21 346.949 352.664 343.649 352.73 340.058C352.822 334.708 351.991 331.567 350.193 330.459C349.398 329.98 348.051 329.651 346.117 330.86C344.419 331.91 343.45 333.355 343.257 335.14C342.732 340.022 348.408 346.004 349.954 347.547C349.772 349.904 350.67 353.143 351.629 355.808C348.756 353.141 345.48 350.358 341.8 347.574C341.784 347.507 341.767 347.439 341.72 347.364L336.402 336.527C336.496 335.972 337.035 332.551 337.176 328.798C337.385 323.046 336.542 319.621 334.601 318.347C333.729 317.786 332.23 317.366 329.971 318.655C327.749 319.92 326.56 321.692 326.459 323.913C326.207 329.144 332.209 335.162 334.168 336.862L338.104 344.895C336.853 344.026 335.589 343.16 334.305 342.327L334.271 342.307C328.998 338.896 323.469 335.85 317.709 333.205C317.32 332.97 313.368 330.483 312.45 325.411C312.568 324.607 313.053 321.142 313.143 317.357C313.279 311.308 312.318 307.696 310.239 306.327C309.313 305.723 307.719 305.268 305.324 306.59C303.246 307.734 302.06 309.347 301.821 311.359C301.12 317.16 308.773 324.508 310.357 325.97C310.745 327.956 311.511 329.605 312.38 330.913C311.612 330.6 310.831 330.29 310.066 329.99C310.049 329.98 310.018 329.973 310.002 329.963C306.963 328.787 303.88 327.723 300.735 326.76C299.07 326.251 297.381 325.763 295.671 325.308L289.269 317.135C289.165 315.955 288.907 313.62 288.364 311.126C287.283 306.152 285.709 303.266 283.52 302.326C282.458 301.87 280.74 301.675 278.558 303.333C276.739 304.714 275.899 306.328 276.098 308.131C276.353 310.509 278.424 313.072 282.273 315.728C285.014 317.623 287.652 318.869 287.767 318.927L288.058 319.056L292.276 324.435C290.424 323.987 288.551 323.572 286.659 323.191C286.611 323.174 286.554 323.174 286.506 323.157C278.623 321.595 270.466 320.618 262.043 320.251L257.277 314.634C257.049 314.001 256.271 311.895 255.047 309.669C253.021 306.004 250.827 303.874 248.528 303.363C246.625 302.942 244.786 303.596 243.033 305.305C241.376 306.934 240.807 308.539 241.371 310.065C242.121 312.12 244.819 313.725 249.63 314.966C252.274 315.65 254.764 315.999 255.759 316.127L259.169 320.155C253.693 320.011 248.108 320.123 242.437 320.471C241.649 320.134 239.108 319.109 236.068 318.278C231.095 316.904 227.368 316.731 225.008 317.786C223.633 318.397 222.714 319.399 222.288 320.767C221.966 321.68 221.833 323.536 223.254 324.866C225.959 327.373 232.594 326.615 243.557 322.565C243.611 322.551 243.662 322.524 243.713 322.497C249.899 322.137 255.806 322.103 261.465 322.347C268.781 322.655 275.647 323.42 282.095 324.531L267.16 329.459C264.623 329.15 255.463 328.362 251.222 331.948C249.699 333.242 248.95 334.935 248.996 336.991C249.061 339.301 250.138 340.227 251.031 340.582C251.813 340.892 252.782 340.912 253.952 340.638C255.95 340.16 258.525 338.808 261.726 336.555C265.261 334.076 268.237 331.433 268.356 331.332L268.499 331.211L286.321 325.328C289.213 325.908 292.023 326.565 294.721 327.294C297.707 328.08 300.584 328.951 303.346 329.879C300.441 330.006 297.207 330.372 295.18 331.316C294.302 331.317 291.401 331.342 288.132 331.803C282.788 332.545 279.22 334.012 277.52 336.168C276.355 337.632 276.064 339.37 276.669 341.303C277.379 343.598 278.779 344.315 279.835 344.515C280.499 344.638 281.224 344.603 282.015 344.423C284.243 343.888 287.002 342.118 290.377 339.047C293.2 336.485 295.508 333.877 296.101 333.186C299.126 331.794 306.229 331.825 309.19 331.986C311.813 332.992 314.32 334.054 316.721 335.157C321.67 337.427 326.164 339.838 330.194 342.292C326.828 342.417 322.12 342.643 319.818 342.995L319.723 342.961C319.32 342.845 309.828 340.243 305.552 343.278C304.193 344.245 303.472 345.643 303.434 347.418C303.382 349.484 304.338 350.383 305.139 350.774C306.022 351.203 307.181 351.234 308.636 350.889C310.186 350.522 312.084 349.696 314.35 348.434C316.639 347.152 318.661 345.778 319.555 345.142C321 344.757 328.267 344.403 333.345 344.272C335.248 345.512 337.049 346.749 338.718 347.974C339.103 348.253 339.492 348.545 339.877 348.823C344.107 351.974 347.795 355.144 350.949 358.129C347.73 357.156 343.477 356.25 340.325 356.955C339.582 356.506 337.803 355.48 335.682 354.581C331.808 352.936 328.777 352.548 326.645 353.418C325.521 353.881 324.084 354.939 323.582 357.403C323.108 359.745 323.968 360.955 324.779 361.559C326.225 362.639 328.698 362.748 332.301 361.889C332.939 361.732 333.614 361.551 334.336 361.33C336.854 360.567 339.101 359.64 340.049 359.22L340.062 359.217C343.813 357.79 351.533 360.383 354.469 361.613C356.913 364.112 358.916 366.404 360.515 368.337C362.829 371.127 364.531 373.479 365.659 375.139C366.788 376.8 367.343 377.768 367.35 377.796C367.585 378.226 368.093 378.417 368.554 378.303C368.649 378.28 368.727 378.246 368.819 378.209C369.356 377.876 369.545 377.241 369.265 376.749ZM286.642 323.181C286.594 323.164 286.537 323.164 286.489 323.147Z" fill="white" fill-opacity="0.36"/>
<path d="M647.529 378.888L352.362 379C346.727 359.662 349.718 353.622 350.428 351.692C353.183 344.267 362.393 342.953 365.426 336.129C368.542 329.152 351.151 324.999 363.492 317.84C381.23 307.549 392.986 323.224 403.838 326.481C438.091 336.759 415.705 323.587 424.846 317.127C435.837 309.367 456.232 319.043 471.703 316.987C494.923 313.911 496.412 328.649 513.427 328.439C520.689 326.719 526.045 323.853 529.523 319.812C539.499 313.506 544.758 312.499 568.325 315.981C586.078 318.609 583.073 324.244 605.374 320.888C654.513 313.52 668.593 365.199 647.529 378.888Z" fill="url(#paint8_linear_69_474)"/>
<g opacity="0.88">
<path d="M253.377 214.451H210.969C210.969 214.451 197.275 213.99 205.79 205.434C205.79 205.434 209.363 202.294 214.794 205.434C214.794 205.434 212.476 200.145 220.573 195.776C220.573 195.776 227.943 191.91 236.863 194.813C236.863 194.813 245.881 197.395 245.434 204.095C245.434 204.095 253.475 201.75 256.755 207.054C260.845 213.627 253.377 214.451 253.377 214.451ZM374.571 110.329H328.911C328.911 110.329 314.17 109.841 323.341 100.615C323.341 100.615 327.194 97.2371 333.043 100.615C333.043 100.615 330.544 94.9202 339.268 90.2026C339.268 90.2026 347.211 86.0434 356.815 89.1558C356.815 89.1558 366.531 91.9473 366.056 99.1633C366.056 99.1633 374.711 96.637 378.243 102.346C382.626 109.436 374.571 110.329 374.571 110.329ZM771.629 171.113H722.101C722.101 171.113 706.104 170.583 716.057 160.576C716.057 160.576 720.231 156.905 726.582 160.576C726.582 160.576 723.874 154.392 733.325 149.284C733.325 149.284 741.937 144.762 752.365 148.154C752.365 148.154 762.904 151.182 762.388 158.998C762.388 158.998 771.782 156.249 775.621 162.446C780.353 170.15 771.629 171.113 771.629 171.113Z" fill="white"/>
</g>
<path d="M621.766 415.015H660.894C661.076 415.015 661.229 414.946 661.229 414.848C661.355 413.606 662.723 405.468 676.696 399.844C676.947 399.746 676.822 399.537 676.501 399.537C674.016 399.509 666.324 400.053 655.562 406.864C655.352 407.004 654.934 406.906 654.962 406.739C655.227 405.175 656.33 400.639 660.238 397.555C660.434 397.401 660.071 397.206 659.764 397.317C656.539 398.406 648.847 401.295 646.377 404.98C646.251 405.161 645.721 405.12 645.721 404.924C645.637 401.965 644.813 395.503 639.467 391.427C639.271 391.274 638.811 391.358 638.839 391.539C639.285 394.191 640.625 404.31 635.419 407.213C635.223 407.325 634.874 407.269 634.832 407.129C634.4 405.748 632.264 400.5 624.572 398.825C624.265 398.755 623.958 398.936 624.154 399.076C625.647 400.221 629.081 403.417 627.099 407.255C627.015 407.422 626.541 407.422 626.443 407.255C625.857 406.25 623.874 404.338 617.16 402.97C616.867 402.914 616.574 403.068 616.741 403.221C618.5 404.757 624.084 410.186 621.445 414.792C621.376 414.904 621.529 415.015 621.766 415.015ZM372.063 403.668H332.935C332.754 403.668 332.6 403.598 332.6 403.5C332.475 402.258 331.107 394.121 317.133 388.496C316.882 388.399 317.008 388.189 317.329 388.189C319.814 388.161 327.505 388.706 338.268 395.517C338.477 395.656 338.896 395.559 338.868 395.391C338.603 393.828 337.5 389.292 333.591 386.207C333.396 386.054 333.759 385.858 334.066 385.97C337.29 387.059 344.982 389.948 347.453 393.633C347.578 393.814 348.109 393.772 348.109 393.577C348.193 390.618 349.016 384.156 354.363 380.08C354.558 379.927 355.019 380.01 354.991 380.192C354.544 382.844 353.204 392.963 358.411 395.866C358.606 395.977 358.955 395.922 358.997 395.782C359.43 394.4 361.566 389.152 369.257 387.477C369.564 387.408 369.871 387.589 369.676 387.729C368.182 388.873 364.748 392.069 366.731 395.908C366.814 396.075 367.289 396.075 367.387 395.908C367.973 394.903 369.955 392.991 376.67 391.623C376.963 391.567 377.256 391.72 377.088 391.874C375.33 393.409 369.746 398.839 372.384 403.445C372.454 403.556 372.3 403.668 372.063 403.668Z" fill="url(#paint9_linear_69_474)"/>
<path d="M631.5 102C629.576 102 628 100.649 628 99C628 97.3506 629.576 96 631.5 96C633.424 96 635 97.3506 635 99C635 100.649 633.439 102 631.5 102ZM631.5 96.2208C629.712 96.2208 628.258 97.4675 628.258 99C628.258 100.532 629.712 101.779 631.5 101.779C633.288 101.779 634.742 100.532 634.742 99C634.742 97.4675 633.288 96.2208 631.5 96.2208Z" fill="#B7DBFE"/>
<path d="M557.598 300.029C550.687 281.916 537.411 266.779 537.411 266.779C534.644 263.255 529.109 261.093 524.347 259.815C524.024 259.731 515.918 258.186 515.918 258.186C502.095 254.634 504.329 241 504.329 241L486.207 243.429C490.323 255.013 480.602 256.88 480.602 256.88C480.082 256.979 478.986 257.246 477.623 257.597C477.23 257.639 455.962 262.314 449.696 276.131C448.614 277.774 447.575 279.501 446.549 281.256C436.322 298.92 429.032 321.329 429.032 321.329C423.426 336.269 442.49 356.446 442.49 356.446L460.246 341.689L453.447 327.03L460.724 314.337C461.44 319.279 463.814 324.713 469.04 330.301H524.164C524.164 330.301 529.826 322.045 530.387 311.992C545.32 332.857 528.744 335.623 528.744 335.623L540.685 364C550.968 355.786 557.598 341.675 557.598 341.675C567.502 325.429 557.598 300.029 557.598 300.029Z" fill="url(#paint10_linear_69_474)"/>
<path d="M457 376H537V401H457V376Z" fill="#203954"/>
<path d="M468 387H521V389H468V387Z" fill="#F29D0E"/>
<path d="M499.185 401L472 411.652L472.968 424L504 413.391L499.185 401Z" fill="#406081"/>
<path d="M538.914 375.613L541.117 353.247L551.738 350C551.738 350 578.663 349.821 596.426 361.549C596.426 361.549 611.452 372.905 599.175 384.634C599.175 384.634 588.372 396.362 537.637 407.359C537.637 407.359 512.41 411.365 501.018 416.794C500.204 417.181 499.222 417.016 498.604 416.352C496.528 414.156 492.333 408.975 493.09 403.408C493.189 402.745 493.609 402.165 494.227 401.875C497.033 400.562 505.732 396.307 512.537 390.933C512.537 390.933 537.637 372.905 559.062 370.197" fill="url(#paint11_linear_69_474)"/>
<path d="M442.015 416.705C443.013 405.871 454.557 409.194 454.557 409.194C462.407 410.171 469.259 409.432 474.894 408.035C475.687 407.84 476.412 408.482 476.289 409.264C476.043 410.814 475.852 413.229 476.412 415.854C477.096 419.051 478.737 419.791 479.873 421.159C480.351 421.745 479.38 422.904 478.642 423.114C465.785 426.743 457.169 425.92 457.169 425.92C440.934 425.668 442.015 416.705 442.015 416.705Z" fill="url(#paint12_linear_69_474)"/>
<path d="M545.525 373C545.33 373 545.149 372.896 545.052 372.728C544.926 372.482 545.038 372.184 545.288 372.067C545.372 372.028 554.294 367.987 564.413 367.002C564.705 366.976 564.956 367.171 564.998 367.443C565.025 367.715 564.817 367.961 564.524 367.987C554.6 368.945 545.845 372.909 545.748 372.948C545.678 372.987 545.608 373 545.525 373Z" fill="#EDF9FF"/>
<path d="M502 416.476L522.491 421L526 410.444L503.123 404L502 416.476Z" fill="#406081"/>
<path d="M455.663 379.104L454.092 367.284L441.4 351C441.4 351 414.085 351.863 399.475 363.682C399.475 363.682 391.649 370.188 396.695 380.473C396.695 380.473 402.089 392.978 437.925 401.551C437.925 401.551 492.542 417.151 502.634 418C502.634 418 513.935 414.74 508.541 401.031C508.541 401.031 491.847 396.58 478.099 389.211C478.099 389.211 444.181 373.954 432.698 372.763" fill="url(#paint13_linear_69_474)"/>
<path d="M556.853 409.154C554.485 397.653 543.357 403.472 543.357 403.472C534.323 407.297 527.342 406.067 520.909 404.838C520.074 404.674 519.581 405.794 519.814 406.614C520.266 408.239 521.032 409.906 520.772 412.788C520.457 416.312 518.09 416.613 517.077 418.224C516.639 418.907 518.185 420.738 518.993 420.82C535.144 422.459 542.536 421.913 542.536 421.913C559.481 419.481 556.853 409.154 556.853 409.154Z" fill="url(#paint14_linear_69_474)"/>
<path d="M445.522 376C445.462 376 445.387 375.988 445.327 375.963C437.971 373.053 428.486 371.792 428.396 371.78C428.142 371.742 427.962 371.543 428.007 371.33C428.052 371.118 428.292 370.968 428.546 371.006C428.636 371.018 438.255 372.304 445.732 375.251C445.972 375.338 446.062 375.575 445.957 375.775C445.867 375.925 445.702 376 445.522 376Z" fill="#EDF9FF"/>
<path d="M448.554 278.059C448.554 278.059 484.204 313.813 542.012 278.228C542.012 278.228 549.527 272.52 543.925 267.346C543.925 267.346 534.247 260.822 533.012 243.121C533.012 243.121 532.777 200.76 523.889 186.574C523.889 186.574 517.108 166.539 491.927 168.085C491.927 168.085 469.437 169.055 461.422 194.686C461.422 194.686 457.942 208.113 457.179 221.54C457.054 223.775 456.999 226.025 457.04 228.19C457.456 242.77 457.137 259.318 447.903 271.522C447.376 272.59 446.974 273.771 447.001 274.91C447.001 276.063 447.431 277.16 448.554 278.059Z" fill="#1F1C80"/>
<path d="M517.723 212.04C503.513 206.103 494.058 195.332 489.454 189C485.565 197.919 475.368 210.768 472.001 214.895C471.918 232.309 480.892 241.949 480.892 241.949C494.965 259.307 509.532 243.193 509.532 243.193C519.894 233.214 517.833 213.114 517.833 213.114C517.792 212.747 517.764 212.393 517.723 212.04Z" fill="url(#paint15_linear_69_474)"/>
<path d="M489.46 192.41C494.08 198.846 503.538 209.806 517.74 215.825C517.781 216.184 517.809 216.544 517.836 216.917C517.836 216.917 517.919 217.678 517.96 219C518.098 215.15 517.836 212.507 517.836 212.507C517.809 212.133 517.768 211.774 517.74 211.415C503.524 205.382 494.066 194.436 489.46 188C485.569 197.064 475.368 210.122 472 214.317C472 215.782 472.055 217.19 472.151 218.54C475.671 214.145 485.611 201.345 489.46 192.41Z" fill="#FFB5C1"/>
<path d="M441.886 324H546.994C548.769 324 550.166 325.56 549.984 327.361L545.527 373.2C545.527 373.2 526.568 381.951 519.093 387H472.735C472.735 387 455.69 379.228 444.764 375.909L439.022 327.262C438.812 325.532 440.153 324 441.886 324Z" fill="url(#paint16_linear_69_474)"/>
<path opacity="0.42" d="M497.13 363.244C499.958 362.576 501.71 359.742 501.042 356.914C500.374 354.085 497.54 352.334 494.711 353.002C491.882 353.67 490.131 356.504 490.799 359.332C491.466 362.16 494.301 363.912 497.13 363.244Z" fill="white"/>
<path d="M365 369.826H390L385.746 403.285C385.693 403.692 385.358 404 384.971 404H370.377C370.003 404 369.682 403.706 369.628 403.313L365 369.826ZM389.465 367.177H365.548L366.244 364.5C366.471 363.617 367.247 363 368.117 363H386.87C387.766 363 388.542 363.631 388.783 364.528L389.465 367.177Z" fill="url(#paint17_linear_69_474)"/>
<path d="M390.306 372H363.694C363.313 372 363 371.674 363 371.278V367.722C363 367.326 363.313 367 363.694 367H390.306C390.687 367 391 367.326 391 367.722V371.278C391 371.674 390.687 372 390.306 372Z" fill="url(#paint18_linear_69_474)"/>
<path d="M388.471 388H366.661L366 384H389L388.471 388Z" fill="#FFF4E1"/>
<defs>
<linearGradient id="paint0_linear_69_474" x1="479.894" y1="-72.6974" x2="478.43" y2="572.009" gradientUnits="userSpaceOnUse">
<stop stop-color="#41FB97"/>
<stop offset="0.742708" stop-color="#10DC74"/>
<stop offset="1" stop-color="#09A757"/>
</linearGradient>
<linearGradient id="paint1_linear_69_474" x1="799" y1="461.055" x2="807.43" y2="461.055" gradientUnits="userSpaceOnUse">
<stop stop-color="white"/>
<stop offset="1" stop-color="white" stop-opacity="0.82"/>
</linearGradient>
<linearGradient id="paint2_linear_69_474" x1="807.43" y1="470.528" x2="832.717" y2="470.528" gradientUnits="userSpaceOnUse">
<stop stop-color="white"/>
<stop offset="1" stop-color="white" stop-opacity="0.82"/>
</linearGradient>
<linearGradient id="paint3_linear_69_474" x1="807.573" y1="451.543" x2="832.654" y2="451.543" gradientUnits="userSpaceOnUse">
<stop stop-color="white"/>
<stop offset="1" stop-color="white" stop-opacity="0.82"/>
</linearGradient>
<linearGradient id="paint4_linear_69_474" x1="339" y1="167" x2="340.502" y2="350.413" gradientUnits="userSpaceOnUse">
<stop offset="0.13627" stop-color="#F68CFF"/>
<stop offset="0.921622" stop-color="#630285"/>
</linearGradient>
<linearGradient id="paint5_linear_69_474" x1="528" y1="230.5" x2="498.522" y2="319.079" gradientUnits="userSpaceOnUse">
<stop offset="0.13627" stop-color="#F68CFF"/>
<stop offset="0.921622" stop-color="#630285"/>
</linearGradient>
<linearGradient id="paint6_linear_69_474" x1="337.077" y1="362.418" x2="265.787" y2="327.673" gradientUnits="userSpaceOnUse">
<stop stop-color="#1E37F6"/>
<stop offset="1" stop-color="#64D7FD"/>
</linearGradient>
<linearGradient id="paint7_linear_69_474" x1="530" y1="327.5" x2="573.987" y2="120.249" gradientUnits="userSpaceOnUse">
<stop offset="0.154167" stop-color="#3D54FF"/>
<stop offset="1" stop-color="#64D7FD"/>
</linearGradient>
<linearGradient id="paint8_linear_69_474" x1="503" y1="314" x2="503" y2="379" gradientUnits="userSpaceOnUse">
<stop stop-color="#E6E9FF"/>
<stop offset="1" stop-color="#B5BDFF"/>
</linearGradient>
<linearGradient id="paint9_linear_69_474" x1="676.829" y1="397.509" x2="317" y2="397.509" gradientUnits="userSpaceOnUse">
<stop stop-color="#6C93F5"/>
<stop offset="0.26875" stop-color="#29056B"/>
<stop offset="0.732292" stop-color="#2F1277"/>
<stop offset="1" stop-color="#6C93F5"/>
</linearGradient>
<linearGradient id="paint10_linear_69_474" x1="495" y1="268.5" x2="495" y2="357.5" gradientUnits="userSpaceOnUse">
<stop stop-color="#214C78"/>
<stop offset="1" stop-color="#007EFF"/>
</linearGradient>
<linearGradient id="paint11_linear_69_474" x1="604" y1="350" x2="526" y2="407" gradientUnits="userSpaceOnUse">
<stop stop-color="#1F466E"/>
<stop offset="1" stop-color="#3273B5"/>
</linearGradient>
<linearGradient id="paint12_linear_69_474" x1="483.325" y1="401.25" x2="452.899" y2="427.614" gradientUnits="userSpaceOnUse">
<stop stop-color="#FFF4B8"/>
<stop offset="1" stop-color="#FDB259"/>
</linearGradient>
<linearGradient id="paint13_linear_69_474" x1="481.5" y1="373" x2="426.372" y2="398.86" gradientUnits="userSpaceOnUse">
<stop stop-color="#3273B5"/>
<stop offset="1" stop-color="#1F466E"/>
</linearGradient>
<linearGradient id="paint14_linear_69_474" x1="560.5" y1="394.5" x2="527" y2="422" gradientUnits="userSpaceOnUse">
<stop stop-color="#FFF4B8"/>
<stop offset="1" stop-color="#FDB259"/>
</linearGradient>
<linearGradient id="paint15_linear_69_474" x1="495" y1="189" x2="495" y2="250" gradientUnits="userSpaceOnUse">
<stop stop-color="white"/>
<stop offset="0.84427" stop-color="#FFC4C4"/>
</linearGradient>
<linearGradient id="paint16_linear_69_474" x1="495" y1="316" x2="494.5" y2="387" gradientUnits="userSpaceOnUse">
<stop stop-color="#FFE9C4"/>
<stop offset="1" stop-color="#FFAF27"/>
</linearGradient>
<linearGradient id="paint17_linear_69_474" x1="365" y1="384" x2="394.5" y2="384" gradientUnits="userSpaceOnUse">
<stop stop-color="#FDCB5E"/>
<stop offset="1" stop-color="#FFE2D5"/>
</linearGradient>
<linearGradient id="paint18_linear_69_474" x1="358.5" y1="370" x2="396.5" y2="370" gradientUnits="userSpaceOnUse">
<stop stop-color="#FC8A05"/>
<stop offset="1" stop-color="#FFDDB6"/>
</linearGradient>
<clipPath id="clip0_69_474">
<rect width="160.567" height="38" fill="white" transform="translate(799 442)"/>
</clipPath>
</defs>
</svg>
