<svg width="980" height="500" viewBox="0 0 980 500" fill="none" xmlns="http://www.w3.org/2000/svg">
<g clip-path="url(#clip0_4_15)">
<rect width="980" height="500" fill="white"/>
<rect width="980" height="500" fill="url(#paint0_radial_4_15)"/>
<g clip-path="url(#clip1_4_15)">
<path d="M848.688 467.15C847.638 467.181 846.599 466.917 845.691 466.387C844.86 465.875 844.194 465.133 843.775 464.251C843.312 463.258 843.084 462.171 843.107 461.076C843.084 459.979 843.312 458.892 843.775 457.897C844.194 457.015 844.86 456.273 845.691 455.762C846.599 455.232 847.638 454.967 848.688 454.998C849.89 454.954 851.072 455.308 852.051 456.005C852.958 456.686 853.624 457.638 853.952 458.723L851.983 459.267C851.794 458.566 851.388 457.942 850.824 457.485C850.206 457.035 849.452 456.811 848.688 456.852C847.998 456.826 847.316 457.009 846.731 457.378C846.199 457.743 845.79 458.261 845.558 458.863C845.282 459.575 845.146 460.333 845.157 461.097C845.14 461.859 845.274 462.616 845.549 463.327C845.785 463.932 846.199 464.45 846.737 464.812C847.323 465.181 848.006 465.364 848.697 465.338C849.459 465.372 850.208 465.143 850.821 464.691C851.384 464.233 851.79 463.609 851.98 462.908L853.952 463.425C853.627 464.509 852.965 465.461 852.063 466.143C851.08 466.843 849.894 467.197 848.688 467.15Z" fill="white"/>
<path d="M856.094 466.91V455.239H860.915C861.03 455.239 861.176 455.239 861.354 455.239C861.519 455.246 861.684 455.264 861.847 455.292C862.455 455.368 863.032 455.6 863.523 455.967C863.959 456.308 864.298 456.759 864.503 457.274C864.72 457.833 864.828 458.429 864.821 459.029C864.844 459.901 864.592 460.758 864.102 461.48C863.84 461.832 863.508 462.126 863.127 462.344C862.746 462.562 862.325 462.7 861.889 462.748L861.054 462.819H858.048V466.91H856.094ZM858.048 461.01H860.834C860.944 461.01 861.063 461.01 861.2 460.993C861.325 460.984 861.45 460.962 861.571 460.927C861.864 460.866 862.132 460.717 862.337 460.499C862.521 460.3 862.658 460.061 862.735 459.801C862.81 459.555 862.849 459.299 862.851 459.041C862.85 458.781 862.811 458.523 862.735 458.275C862.658 458.014 862.522 457.774 862.337 457.574C862.13 457.358 861.863 457.21 861.571 457.149C861.449 457.117 861.325 457.097 861.2 457.089C861.063 457.089 860.944 457.089 860.834 457.089H858.048V461.01ZM862.801 466.91L860.502 462.157L862.486 461.72L865.014 466.907L862.801 466.91Z" fill="white"/>
<path d="M867.164 466.91V455.239H874.7V457.072H869.116V459.947H873.726V461.78H869.116V465.077H874.7V466.91H867.164Z" fill="white"/>
<path d="M876.206 466.91L879.883 455.239H882.744L886.424 466.91H884.413L881.074 456.439H881.514L878.217 466.91H876.206ZM878.255 464.379V462.558H884.38V464.379H878.255Z" fill="white"/>
<path d="M890.087 466.91V457.072H886.311V455.239H895.816V457.072H892.038V466.91H890.087Z" fill="white"/>
<path d="M897.646 466.91V455.239H899.598V466.91H897.646Z" fill="white"/>
<path d="M905.042 466.91L901.35 455.239H903.358L906.438 465.011L909.557 455.239H911.577L907.888 466.91H905.042Z" fill="white"/>
<path d="M913.154 466.91V455.239H920.69V457.072H915.109V459.947H919.719V461.78H915.109V465.077H920.69V466.91H913.154Z" fill="white"/>
<path d="M923.162 466.91V455.239H925.113V466.91H923.162Z" fill="white"/>
<path d="M930.73 466.91V457.072H926.955V455.239H936.46V457.072H932.682V466.91H930.73Z" fill="white"/>
<path d="M938.126 466.91V455.239H945.662V457.072H940.093V459.947H944.703V461.78H940.093V465.077H945.674V466.91H938.126Z" fill="white"/>
<path d="M947.982 466.91V455.239H949.741L953.774 463.506L957.811 455.239H959.567V466.91H957.746V459.43L954.164 466.91H953.385L949.821 459.43V466.91H947.982Z" fill="white"/>
<path d="M815.86 470.789L807.43 465.92V475.654L815.86 470.789Z" fill="white" fill-opacity="0.48"/>
<path d="M832.717 461.055L824.287 456.189V465.92L832.717 461.055Z" fill="white" fill-opacity="0.47"/>
<path d="M815.86 451.321L807.43 446.456V456.189L815.86 451.321Z" fill="white" fill-opacity="0.48"/>
<path d="M807.43 446.456L800.687 450.35C800.174 450.645 799.747 451.07 799.451 451.583C799.155 452.096 798.999 452.677 799 453.27V468.84C799 469.433 799.155 470.015 799.452 470.528C799.748 471.041 800.174 471.467 800.687 471.763L807.43 475.654V446.456Z" fill="url(#paint1_linear_4_15)"/>
<path d="M832.717 468.84V461.055L807.43 475.654L814.173 479.548C814.685 479.845 815.267 480.001 815.858 480.001C816.45 480.001 817.032 479.845 817.544 479.548L831.033 471.763C831.545 471.467 831.97 471.04 832.266 470.527C832.562 470.014 832.717 469.432 832.717 468.84Z" fill="url(#paint2_linear_4_15)"/>
<path d="M817.606 442.594C817.098 442.301 816.521 442.146 815.934 442.146C815.347 442.146 814.77 442.301 814.262 442.594L807.573 446.456L832.654 460.939V453.216C832.654 452.629 832.5 452.051 832.206 451.543C831.913 451.034 831.491 450.611 830.982 450.317L817.606 442.594Z" fill="url(#paint3_linear_4_15)"/>
</g>
<g clip-path="url(#clip2_4_15)">
<path opacity="0.16" d="M220.137 307.052C217.014 296.855 215.047 285.322 220.058 275.906C226.631 263.58 242.094 259.813 255.506 255.875C279.109 248.951 303.155 235.881 312.475 213.16C321.36 191.514 314.811 166.18 322.28 144.009C332.847 112.669 374.329 96.3761 403.428 112.143C412.088 116.836 419.853 123.888 429.579 125.448C445.987 128.079 459.943 114.52 472.163 103.259C487.42 89.1913 504.917 76.9082 524.871 71.2051C544.826 65.502 567.564 67.0442 584.673 78.7951C598.593 88.3325 608.192 103.936 623.686 110.582C644.052 119.322 667.867 109.941 689.54 114.653C717.459 120.7 736.245 153.468 727.384 180.616C721.03 200.09 702.915 217.278 707.001 237.351C709.361 248.951 718.693 257.605 726.973 266.09C750.776 290.56 770.083 324.996 760.484 357.745C753.627 381.126 732.989 398.501 710.251 407.392C687.512 416.282 662.741 417.927 638.381 419.04C549.213 423.14 456.282 426.902 367.181 420.775C301.472 416.27 239.594 370.615 220.137 307.052Z" fill="#FAFAFA"/>
<path d="M642.864 385.776C643.675 383.408 645.017 381.257 646.787 379.487C648.587 377.7 650.692 376.25 653.004 375.207C655.324 374.149 657.796 373.463 660.329 373.173C662.865 372.895 665.426 372.942 667.95 373.312C673.005 373.978 677.781 375.733 682.334 377.785C686.886 379.838 691.184 382.265 695.567 384.378C697.746 385.449 699.938 386.472 702.171 387.338C703.291 387.774 704.417 388.186 705.561 388.512L707.275 389.033L709.012 389.457C711.338 390.024 713.701 390.428 716.083 390.668C718.477 390.864 720.88 390.919 723.28 390.831L725.097 390.746L726.913 390.559C728.123 390.468 729.298 390.232 730.496 390.062C731.695 389.893 732.863 389.578 734.05 389.342C735.212 389.009 736.393 388.736 737.543 388.349C742.21 386.876 746.665 384.8 750.794 382.174C746.965 385.347 742.663 387.902 738.045 389.747C733.383 391.609 728.471 392.768 723.468 393.186C722.215 393.337 720.956 393.337 719.697 393.392C719.091 393.434 718.438 393.392 717.808 393.392L715.919 393.325C713.398 393.159 710.891 392.813 708.419 392.29C707.813 392.157 707.208 392.024 706.566 391.878L704.75 391.34C703.54 391.001 702.329 390.583 701.154 390.129C698.793 389.245 696.517 388.204 694.277 387.102C689.822 384.88 685.536 382.477 681.171 380.382C676.874 378.209 672.308 376.613 667.593 375.636C662.92 374.759 658.046 374.868 653.567 376.575C651.309 377.382 649.207 378.574 647.356 380.098C646.883 380.479 646.454 380.903 646.018 381.309C645.582 381.714 645.182 382.18 644.807 382.671C644.047 383.632 643.396 384.673 642.864 385.776Z" fill="#10AA95"/>
<path opacity="0.2" d="M464.195 431.086C588.724 431.086 689.675 428.685 689.675 425.723C689.675 422.76 588.724 420.359 464.195 420.359C339.666 420.359 238.715 422.76 238.715 425.723C238.715 428.685 339.666 431.086 464.195 431.086Z" fill="#9D66FF"/>
<path d="M230.309 255.29C232.422 253.135 235.758 252.578 238.73 253.207C240.736 253.684 242.645 254.503 244.372 255.629C244.935 255.98 245.988 256.997 245.898 257.172C245.854 257.23 245.801 257.279 245.74 257.318C246.752 257.683 247.74 258.11 248.7 258.595C248.449 258.264 248.246 257.899 248.095 257.511C247.603 256.233 247.334 254.879 247.302 253.51C247.302 251.506 248.143 249.406 249.832 248.34C250.097 248.132 250.414 248.001 250.749 247.962C251.084 247.924 251.422 247.979 251.727 248.122C252.436 248.582 252.684 249.781 252.732 250.622C252.859 253.044 251.116 255.229 249.996 257.384C249.696 257.866 249.334 258.305 248.918 258.692C249.524 258.989 250.069 259.297 250.619 259.624C253.603 261.442 256.305 263.685 258.641 266.283C260.13 267.915 261.511 269.642 262.775 271.453C262.772 271.415 262.772 271.376 262.775 271.338C262.517 269.29 262.615 267.214 263.066 265.2C263.798 262.276 265.778 259.503 268.641 258.541C269.604 258.22 270.796 258.171 271.48 258.91C272.352 259.836 272.285 261.682 272.043 262.929C271.353 266.562 268.012 269.08 265.596 271.822C265.081 272.306 264.526 272.745 263.937 273.136C264.264 273.638 264.585 274.135 264.894 274.643C266.707 277.621 268.324 280.713 269.737 283.899C270.481 285.534 271.166 287.193 271.819 288.857C271.8 286.902 272.111 284.958 272.739 283.106C273.769 280.267 276.027 277.719 278.975 277.053C279.961 276.835 281.148 276.913 281.759 277.719C282.528 278.73 282.268 280.558 281.905 281.774C280.839 285.292 277.256 287.471 274.568 289.947C273.986 290.408 273.361 290.813 272.703 291.158C273.012 291.969 273.309 292.786 273.623 293.579C274.834 296.83 276.045 300.081 277.34 303.265C277.552 303.792 277.77 304.312 277.988 304.839C278.092 303.146 278.458 301.48 279.072 299.899C280.204 297.102 282.552 294.638 285.525 294.1C286.518 293.924 287.704 294.039 288.285 294.869C289.012 295.91 288.691 297.726 288.285 298.931C287.075 302.405 283.442 304.451 280.652 306.8C280.2 307.127 279.725 307.418 279.229 307.672C280.88 311.461 282.844 315.106 285.101 318.569C285.074 316.8 285.327 315.039 285.852 313.35C286.796 310.487 288.969 307.872 291.905 307.133C292.886 306.885 294.079 306.921 294.708 307.708C295.507 308.701 295.314 310.535 294.975 311.764C294.024 315.306 290.507 317.6 287.898 320.155C287.551 320.448 287.183 320.715 286.796 320.954C286.887 321.075 286.978 321.202 287.068 321.317C289.125 324.012 291.539 326.415 294.242 328.46C295.256 329.235 296.314 329.953 297.408 330.609C296.88 328.843 296.645 327.003 296.712 325.161C296.869 322.134 298.286 319.053 300.919 317.576C301.803 317.079 302.959 316.807 303.777 317.4C304.812 318.145 305.096 319.967 305.096 321.238C305.096 324.913 302.312 328.043 300.459 331.197C300.275 331.462 300.073 331.715 299.854 331.953C300.895 332.482 301.954 332.97 303.032 333.418C306.578 334.846 310.194 336.091 313.868 337.147C312.339 335.109 311.151 332.835 310.351 330.416C309.14 326.463 309.485 321.813 312.167 318.665C313.069 317.612 314.431 316.71 315.763 317.085C317.44 317.558 318.669 319.767 319.274 321.402C321.023 326.124 318.911 331.469 318.021 336.403C317.866 337.023 317.663 337.63 317.415 338.219C319.189 338.77 320.963 339.333 322.731 339.956C323.566 340.241 324.395 340.562 325.219 340.87C326.042 341.179 326.859 341.53 327.676 341.887C329.339 342.597 330.944 343.435 332.477 344.393C335.558 346.324 338.332 348.708 340.704 351.464C343.162 354.269 344.982 357.573 346.037 361.15C346.553 363.003 346.772 364.925 346.685 366.846C346.58 368.795 346.142 370.712 345.389 372.513L342.011 371.048C342.633 369.651 343.012 368.159 343.131 366.635C343.232 365.086 343.087 363.531 342.702 362.028C341.839 358.913 340.313 356.022 338.228 353.553C336.117 350.992 333.634 348.764 330.861 346.942C329.471 346.022 328.012 345.212 326.496 344.521C325.727 344.17 324.958 343.818 324.165 343.504C323.372 343.189 322.591 342.862 321.786 342.565C320.043 341.905 318.269 341.3 316.477 340.701C316.052 341.462 315.564 342.187 315.018 342.868C311.568 346.5 308.504 351.343 303.662 352.754C301.985 353.232 299.478 353.547 298.104 352.469C297.009 351.622 296.936 349.987 297.251 348.637C298.201 344.611 301.743 341.572 305.647 340.223C307.603 339.573 309.641 339.204 311.701 339.127C308.492 338.061 305.278 336.935 302.142 335.543C300.871 334.98 299.618 334.332 298.395 333.691C297.889 334.125 297.348 334.518 296.779 334.865C293.497 336.481 290.174 339.042 286.487 338.77C285.222 338.673 283.424 338.255 282.752 337.178C282.219 336.318 282.583 335.18 283.14 334.338C284.804 331.82 287.983 330.634 291.009 330.706C292.15 330.74 293.283 330.902 294.387 331.19C293.903 330.845 293.425 330.488 292.959 330.119C290.17 327.905 287.692 325.325 285.591 322.449C285.482 322.304 285.38 322.152 285.277 322.007C284.662 322.308 284.022 322.553 283.364 322.74C279.774 323.448 275.899 325.046 272.437 323.823C271.226 323.399 269.61 322.528 269.247 321.311C268.956 320.342 269.604 319.337 270.36 318.672C272.624 316.674 276.015 316.365 278.908 317.207C280.584 317.732 282.169 318.514 283.606 319.525C281.413 315.998 279.518 312.294 277.94 308.453C277.3 308.711 276.64 308.914 275.966 309.058C272.334 309.518 268.363 310.874 264.985 309.397C263.816 308.895 262.255 307.914 261.958 306.673C261.734 305.686 262.448 304.73 263.247 304.119C265.669 302.302 269.047 302.2 271.88 303.241C273.785 303.992 275.547 305.068 277.086 306.419C276.727 305.527 276.38 304.637 276.045 303.749C274.834 300.486 273.678 297.205 272.528 293.93C272.231 293.077 271.922 292.217 271.626 291.363C271.051 291.612 270.458 291.815 269.852 291.969C266.22 292.574 262.315 294.039 258.895 292.713C257.684 292.253 256.11 291.333 255.783 290.104C255.523 289.13 256.195 288.143 256.994 287.501C259.319 285.576 262.715 285.37 265.584 286.291C267.512 286.967 269.309 287.972 270.893 289.263C270.288 287.556 269.622 285.861 268.901 284.196C267.565 281.01 266.025 277.914 264.289 274.928C264.016 274.462 263.738 274.002 263.459 273.548C262.768 273.989 262.031 274.354 261.262 274.637C257.739 275.6 253.997 277.476 250.444 276.514C249.233 276.181 247.532 275.43 247.078 274.238C246.721 273.293 247.29 272.246 247.998 271.526C250.111 269.371 253.446 268.814 256.419 269.443C258.422 269.921 260.329 270.74 262.055 271.865C262.3 272.029 262.532 272.211 262.751 272.41C261.411 270.327 259.922 268.344 258.295 266.477C256.041 263.852 253.414 261.572 250.498 259.709C250.256 259.552 250.002 259.406 249.754 259.261C249.503 259.761 249.192 260.229 248.828 260.653C247.102 262.366 245.553 264.673 243.186 265.278C242.368 265.484 241.152 265.599 240.498 265.06C240.272 264.812 240.119 264.505 240.058 264.175C239.996 263.845 240.026 263.504 240.147 263.19C240.661 261.259 242.417 259.836 244.33 259.237C245.646 258.858 247.019 258.713 248.386 258.807C248.671 258.828 248.953 258.879 249.227 258.958C248.076 258.314 246.881 257.754 245.649 257.281C245.001 257.675 244.315 258.006 243.603 258.268C240.074 259.231 236.339 261.113 232.779 260.145C231.569 259.812 229.868 259.061 229.42 257.869C229.038 257.057 229.607 256.01 230.309 255.29Z" fill="white" fill-opacity="0.36"/>
<path d="M414.924 320.268C389.662 320.722 363.208 310.867 348.473 290.339C333.739 269.811 331.91 246.843 343.328 224.317C350.846 209.522 387.108 170.652 434.526 184.315C516.747 208.009 555.387 205.024 635.295 193.855C644.981 192.506 656.338 187.929 663.493 181.282C673.494 172.008 672.095 154.598 663.154 144.288C654.213 133.979 639.987 129.759 626.366 129.112C612.745 128.464 599.155 130.789 585.522 131.176C561.641 131.854 507.945 140.686 516.365 115.436" stroke="#3D4B9A" stroke-width="1.8161" stroke-linecap="round" stroke-linejoin="round" stroke-dasharray="7.26 7.26"/>
<path d="M553.408 85.6706L534.018 109.988L526.917 108.444L520.936 115.467L516.087 106.828L515.554 105.878L515.021 105.732L505.457 103.111L553.408 85.6706Z" fill="#3D4B9A"/>
<path opacity="0.35" d="M520.869 106.943L526.917 108.444L520.936 115.467L521.765 108.178L520.536 112.809L520.216 107.688L516.087 106.828L515.554 105.878L515.021 105.732L541.518 93.4133L520.869 106.943Z" fill="#05287F"/>
<path d="M623.768 376.037C628.072 364.069 633.239 353.456 634.217 340.485C634.58 335.266 634.422 329.98 635.463 324.861C636.505 319.743 638.984 314.623 643.399 311.816C648.357 308.65 654.944 308.866 659.801 305.548C662.948 303.405 664.988 300.04 667.429 297.121C672.788 290.716 680.155 286.378 687.37 282.166C698.551 275.647 710.517 268.914 723.483 269.472C730.862 269.795 737.934 272.539 744.634 275.623C748.878 277.604 753.167 279.853 755.922 283.71C757.551 285.88 758.372 288.55 758.243 291.26C757.791 297.929 750.985 300.882 745.032 300.622C740.026 300.385 735.261 298.4 730.406 297.289C725.551 296.178 719.971 296.01 715.91 298.995C710.133 303.267 709.339 312.537 702.969 315.873C699.425 317.73 694.808 317.286 691.748 319.862C687.034 323.836 689.396 331.519 692.624 336.736C695.852 341.952 699.779 348.275 697.054 353.801C692.322 363.422 674.675 357.522 668.843 366.551C665.468 371.79 668.114 379.61 664.055 384.353C658.438 390.914 646.665 384.963 639.466 389.735C636.514 391.693 634.94 395.094 633.197 398.177C631.455 401.261 629.079 404.42 625.607 405.146C625.329 405.206 625.068 405.263 624.802 405.265C624.644 405.281 624.483 405.262 624.333 405.209C624.183 405.156 624.046 405.07 623.934 404.957C623.821 404.844 623.734 404.708 623.681 404.558C623.628 404.407 623.609 404.247 623.625 404.088C623.703 403.39 623.809 402.705 623.939 402.02C624.736 398.177 626.168 394.495 628.178 391.125C630.186 387.774 632.52 384.63 635.147 381.738C637.733 378.807 640.503 376.033 643.213 373.217C644.573 371.802 645.939 370.385 647.237 368.915C648.599 367.436 649.742 365.771 650.633 363.969C651.508 362.112 651.874 360.055 651.691 358.011C651.438 356.043 651.053 354.094 650.54 352.177C650.336 351.231 650.131 350.284 650.023 349.329C649.903 348.378 649.845 347.42 649.849 346.462C649.878 344.541 650.15 342.633 650.657 340.78C651.652 337.042 653.296 333.508 655.515 330.34C656.652 328.792 657.985 327.398 659.48 326.193C660.999 324.993 662.608 323.91 664.291 322.953C665.974 321.97 667.686 320.98 669.363 319.942C671.048 318.895 672.659 317.734 674.185 316.465C677.207 313.882 679.84 310.875 682.002 307.539C684.151 304.216 685.997 300.707 687.519 297.055C687.877 296.158 688.29 295.285 688.756 294.44C689.237 293.615 689.8 292.842 690.437 292.131C691.733 290.709 693.27 289.528 694.977 288.64C698.402 286.834 702.272 285.972 706.132 285.49C713.901 284.527 721.78 285.046 729.63 285.317C725.715 285.055 721.801 284.769 717.872 284.647C713.942 284.483 710.006 284.586 706.09 284.954C702.184 285.396 698.242 286.212 694.68 288.042C692.88 288.942 691.255 290.158 689.883 291.632C689.2 292.373 688.594 293.183 688.077 294.048C687.577 294.912 687.138 295.81 686.763 296.735C685.207 300.308 683.36 303.747 681.239 307.016C679.116 310.271 676.533 313.2 673.57 315.712C672.072 316.947 670.492 318.078 668.839 319.095C667.203 320.124 665.48 321.061 663.773 322.049C662.044 323.03 660.389 324.138 658.823 325.363C657.257 326.621 655.859 328.075 654.662 329.688C653.486 331.306 652.488 333.047 651.684 334.879C650.877 336.698 650.204 338.574 649.672 340.492C648.86 343.397 648.647 346.438 649.047 349.428C649.176 350.422 649.375 351.401 649.591 352.37C650.1 354.242 650.485 356.145 650.743 358.067C650.926 359.95 650.596 361.847 649.788 363.557C648.943 365.28 647.857 366.875 646.564 368.293C645.27 369.756 643.939 371.19 642.593 372.614C639.91 375.468 637.168 378.285 634.599 381.269C631.978 384.211 629.659 387.411 627.678 390.818C625.741 394.277 624.399 398.037 623.705 401.94C623.605 402.538 623.52 403.145 623.476 403.743C623.463 403.933 623.4 404.116 623.292 404.273C623.184 404.43 623.036 404.555 622.863 404.635C622.69 404.715 622.499 404.747 622.31 404.727C622.12 404.707 621.939 404.637 621.787 404.523C616.212 400.428 622.089 380.699 623.768 376.037Z" fill="white" fill-opacity="0.36"/>
<path d="M638.638 404.791C640.932 398.737 640.067 391.981 639.437 385.516C638.808 379.051 638.547 372.131 641.804 366.52C645.666 359.861 653.742 356.386 657.174 349.509C659.85 344.145 649.232 333.255 649.692 327.274C650.733 313.55 667.853 305.741 673.822 293.337C678.356 283.911 682.467 273.572 682.345 262.948C682.285 257.439 681.486 254.6 683.32 249.478C685.499 243.376 687.86 237.904 687.885 231.263C687.915 223.563 684.761 215.523 678.392 211.213C668.301 204.342 653.572 209.197 645.951 218.726C638.329 228.254 636.114 240.991 635 253.098C633.886 265.206 633.426 277.803 628.432 288.948C624.575 297.562 618.231 304.772 612.874 312.557C607.516 320.342 602.964 329.302 603.521 338.721C604.399 353.51 617.523 365.593 617.814 380.407C617.935 386.533 615.804 392.514 615.537 398.61C615.289 404.349 617.414 410.911 622.457 413.332C622.836 409.482 623.215 405.632 623.595 401.782L626.119 377.398C626.936 369.268 627.881 361.156 628.759 353.032C629.636 344.908 630.441 336.766 631.785 328.666C633.129 320.566 635.236 312.533 638.535 304.984C640.145 301.195 641.956 297.508 643.862 293.888C645.769 290.268 647.773 286.69 649.771 283.131C653.766 276.011 657.725 268.862 660.74 261.301C662.276 257.532 663.491 253.639 664.372 249.666C665.22 245.673 665.626 241.598 665.583 237.516C665.795 241.61 665.527 245.714 664.784 249.745C664.005 253.775 662.892 257.734 661.454 261.58C658.561 269.268 654.698 276.526 650.83 283.718C646.962 290.909 642.96 298.047 639.861 305.547C636.653 313.005 634.685 320.917 633.347 328.932C632.009 336.948 631.15 345.078 630.187 353.195C629.225 361.313 628.341 369.431 627.33 377.537L624.358 401.873C623.853 405.755 623.359 409.638 622.874 413.52C623.076 413.605 623.278 413.684 623.48 413.756C629.648 415.851 636.35 410.863 638.638 404.791Z" fill="url(#paint4_linear_4_15)"/>
<path d="M682.067 319.688C676.534 315.887 668.55 318.357 663.906 323.175C659.263 327.994 656.927 334.562 654.221 340.731C651.515 346.9 647.985 353.189 642.004 356.246C638.142 358.226 633.529 358.668 630.006 361.18C625.962 364.038 624.037 369.05 622.917 373.85C620.708 383.373 618.546 408.132 630.139 412.884C629.951 411.142 629.91 409.386 630.018 407.636C630.166 405.627 630.486 403.634 630.975 401.679C631.478 399.73 632.123 397.82 632.906 395.964C633.691 394.115 634.586 392.313 635.587 390.571C636.596 388.836 637.691 387.153 638.869 385.528C640.079 383.906 641.29 382.338 642.501 380.746C644.922 377.58 647.398 374.42 649.923 371.314C652.447 368.209 655.032 365.151 657.72 362.179C659.076 360.708 660.401 359.219 661.642 357.651C662.883 356.083 664.064 354.455 665.147 352.808C666.231 351.161 667.278 349.424 668.174 347.656C668.665 346.779 669.082 345.84 669.536 344.981C669.99 344.121 670.39 343.165 670.747 342.244C671.523 340.401 672.19 338.513 672.745 336.59C673.29 334.665 673.695 332.702 673.956 330.718C673.706 332.703 673.316 334.667 672.787 336.596C672.241 338.523 671.584 340.417 670.82 342.269C670.457 343.201 670.021 344.085 669.609 345.017C669.197 345.949 668.743 346.833 668.265 347.699C667.345 349.479 666.304 351.186 665.238 352.881C664.173 354.576 662.986 356.192 661.757 357.772C660.529 359.352 659.191 360.853 657.853 362.33C655.185 365.309 652.604 368.364 650.11 371.496C647.616 374.607 645.195 377.804 642.773 380.964C641.562 382.556 640.352 384.136 639.141 385.752C637.977 387.372 636.898 389.051 635.908 390.783C634.926 392.515 634.046 394.304 633.275 396.14C632.52 397.981 631.894 399.872 631.404 401.8C630.934 403.73 630.629 405.697 630.49 407.678C630.39 409.496 630.448 411.319 630.666 413.127C631.949 413.564 633.3 413.769 634.655 413.732C649.184 413.441 663.356 400.214 667.399 386.951C669.349 380.54 669.585 373.687 671.716 367.325C675.608 355.738 685.603 346.452 687.225 334.338C687.964 328.914 686.547 322.788 682.067 319.688Z" fill="url(#paint5_linear_4_15)"/>
<path d="M261.783 318.875C266.711 314.316 274.968 315.618 280.289 319.716C285.61 323.814 288.825 330.007 292.397 335.692C295.968 341.376 300.351 347.133 306.707 349.3C310.812 350.705 315.425 350.511 319.293 352.466C323.7 354.712 326.327 359.38 328.125 363.968C331.673 373.049 337.357 397.263 326.57 403.632C326.51 401.881 326.308 400.138 325.964 398.42C325.521 396.453 324.913 394.527 324.148 392.663C323.371 390.806 322.458 389.01 321.418 387.287C320.377 385.569 319.233 383.915 317.991 382.335C316.746 380.761 315.421 379.251 314.02 377.813C312.616 376.372 311.163 375.004 309.734 373.606C306.865 370.821 303.983 368.036 301.041 365.324C298.099 362.612 295.097 359.961 292.015 357.406C290.459 356.141 288.94 354.857 287.481 353.489C286.022 352.121 284.648 350.668 283.316 349.173C281.984 347.678 280.725 346.146 279.557 344.512C278.951 343.719 278.401 342.883 277.819 342.09C277.238 341.297 276.724 340.42 276.227 339.554C275.192 337.842 274.262 336.069 273.443 334.245C272.627 332.418 271.945 330.535 271.403 328.609C271.936 330.537 272.606 332.424 273.406 334.257C274.221 336.085 275.143 337.864 276.167 339.584C276.657 340.456 277.22 341.285 277.753 342.133C278.286 342.98 278.867 343.797 279.472 344.597C280.634 346.225 281.894 347.769 283.219 349.288C284.545 350.808 285.919 352.242 287.372 353.635C288.825 355.027 290.344 356.316 291.888 357.582C294.951 360.148 297.942 362.812 300.86 365.542C303.778 368.272 306.641 371.069 309.504 373.872C310.927 375.27 312.374 376.657 313.742 378.11C315.126 379.543 316.433 381.048 317.659 382.62C318.879 384.194 320.005 385.839 321.03 387.547C322.045 389.259 322.936 391.041 323.694 392.88C324.435 394.725 325.021 396.628 325.444 398.571C325.799 400.348 326.002 402.153 326.049 403.965C324.839 404.579 323.529 404.971 322.181 405.121C307.779 406.937 291.84 395.859 285.943 383.328C283.092 377.274 281.881 370.512 278.855 364.525C273.346 353.629 262.122 345.856 258.781 334.1C257.267 328.827 257.794 322.555 261.783 318.875Z" fill="url(#paint6_linear_4_15)"/>
<path d="M310.547 170.343C314.964 170.343 318.544 166.763 318.544 162.346C318.544 157.93 314.964 154.349 310.547 154.349C306.131 154.349 302.55 157.93 302.55 162.346C302.55 166.763 306.131 170.343 310.547 170.343Z" stroke="#6820FF" stroke-width="0.605365" stroke-miterlimit="10"/>
<path d="M584.36 245.463C586.456 245.463 588.155 243.764 588.155 241.667C588.155 239.571 586.456 237.872 584.36 237.872C582.264 237.872 580.564 239.571 580.564 241.667C580.564 243.764 582.264 245.463 584.36 245.463Z" fill="#3D4B9A" stroke="#3D4B9A" stroke-width="0.605365" stroke-miterlimit="10"/>
<path d="M642.826 408.482C644.922 408.482 646.622 406.782 646.622 404.686C646.622 402.59 644.922 400.89 642.826 400.89C640.73 400.89 639.031 402.59 639.031 404.686C639.031 406.782 640.73 408.482 642.826 408.482Z" stroke="#6820FF" stroke-width="0.605365" stroke-miterlimit="10"/>
<path d="M681.176 282.868C681.176 284.797 679.612 286.361 677.683 286.361C675.754 286.361 674.19 284.797 674.19 282.868C674.19 280.939 675.754 279.375 677.683 279.375C679.612 279.375 681.176 280.939 681.176 282.868Z" fill="#3D4B9A" stroke="#3D4B9A" stroke-width="0.605365"/>
<path d="M275.248 253.466C277.345 253.466 279.044 251.766 279.044 249.67C279.044 247.574 277.345 245.875 275.248 245.875C273.152 245.875 271.453 247.574 271.453 249.67C271.453 251.766 273.152 253.466 275.248 253.466Z" fill="#3D4B9A"/>
<path opacity="0.12" d="M640.555 238.811V404.381H343.954V238.811C343.954 225.119 355.382 214 369.453 214H615.062C629.146 214 640.555 225.119 640.555 238.811Z" fill="#1B91FB"/>
<path d="M624.294 251.514V404.379H327.688V251.514C327.688 238.873 339.116 228.606 353.187 228.606H598.794C612.88 228.61 624.294 238.873 624.294 251.514Z" fill="url(#paint7_linear_4_15)"/>
<path d="M356.689 238.141H595.293C600.177 238.141 604.862 240.081 608.315 243.534C611.769 246.987 613.709 251.671 613.709 256.554V406.331H338.273V256.554C338.273 251.671 340.213 246.987 343.667 243.534C347.121 240.081 351.805 238.141 356.689 238.141Z" fill="url(#paint8_linear_4_15)"/>
<path d="M647.319 404.379H309.129C304.087 404.379 300 408.465 300 413.506C300 418.547 304.087 422.634 309.129 422.634H647.319C652.361 422.634 656.448 418.547 656.448 413.506C656.448 408.465 652.361 404.379 647.319 404.379Z" fill="#3D4B9A"/>
<path d="M460.203 303.232H582.583C585.844 303.232 588.971 304.527 591.277 306.833C593.583 309.138 594.878 312.265 594.878 315.525V387.321C594.878 388.889 594.255 390.393 593.146 391.502C592.037 392.611 590.532 393.234 588.964 393.234H453.825C452.256 393.234 450.752 392.611 449.643 391.502C448.533 390.393 447.91 388.889 447.91 387.321V315.525C447.91 312.265 449.205 309.139 451.511 306.833C453.816 304.528 456.943 303.233 460.203 303.232Z" fill="#C2CBFB"/>
<path d="M355.444 303H429.554C431.529 303 433.423 304.295 434.819 306.6C436.216 308.906 437 312.032 437 315.292V387.087C437 388.655 436.623 390.159 435.951 391.268C435.279 392.377 434.368 393 433.419 393H351.582C350.632 393 349.721 392.377 349.049 391.268C348.377 390.159 348 388.655 348 387.087V315.292C348 312.033 348.784 308.906 350.18 306.601C351.576 304.296 353.47 303 355.444 303Z" fill="#C2CBFB"/>
<path d="M594.877 335.09V386.901C594.877 390.399 591.715 393.236 587.816 393.236H454.97C451.07 393.236 447.908 390.399 447.908 386.901V372.538L466.627 355.748C467.504 354.992 468.624 354.576 469.783 354.576C470.941 354.576 472.061 354.992 472.938 355.748L486.778 368.161C487.655 368.918 488.775 369.334 489.933 369.334C491.092 369.334 492.211 368.918 493.089 368.161L521.668 342.529C522.546 341.772 523.665 341.356 524.824 341.356C525.982 341.356 527.102 341.772 527.979 342.529L542.193 355.276C543.07 356.033 544.19 356.449 545.349 356.449C546.507 356.449 547.627 356.033 548.504 355.276L579.795 327.216C580.672 326.459 581.792 326.043 582.95 326.043C584.109 326.043 585.229 326.459 586.106 327.216L594.877 335.09Z" fill="#3D4B9A"/>
<path d="M357.686 253.821C360.351 253.821 362.511 251.661 362.511 248.997C362.511 246.333 360.351 244.173 357.686 244.173C355.021 244.173 352.861 246.333 352.861 248.997C352.861 251.661 355.021 253.821 357.686 253.821Z" fill="url(#paint9_linear_4_15)"/>
<path d="M376.589 253.821C379.254 253.821 381.414 251.661 381.414 248.997C381.414 246.333 379.254 244.173 376.589 244.173C373.925 244.173 371.764 246.333 371.764 248.997C371.764 251.661 373.925 253.821 376.589 253.821Z" fill="url(#paint10_linear_4_15)"/>
<path d="M395.495 253.821C398.16 253.821 400.32 251.661 400.32 248.997C400.32 246.333 398.16 244.173 395.495 244.173C392.83 244.173 390.67 246.333 390.67 248.997C390.67 251.661 392.83 253.821 395.495 253.821Z" fill="url(#paint11_linear_4_15)"/>
<path d="M584.434 260.33H364.138C355.15 260.33 347.863 267.616 347.863 276.603C347.863 285.59 355.15 292.875 364.138 292.875H584.434C593.422 292.875 600.709 285.59 600.709 276.603C600.709 267.616 593.422 260.33 584.434 260.33Z" fill="#C2CBFB"/>
<rect x="358" y="346" width="69" height="8" rx="4" fill="#7B8BE3"/>
<rect x="358" y="360" width="69" height="8" rx="4" fill="#7B8BE3"/>
<rect x="378" y="376" width="29" height="8" rx="4" fill="url(#paint12_linear_4_15)"/>
<circle cx="392" cy="324" r="13" fill="#E9E8FC"/>
</g>
</g>
<defs>
<radialGradient id="paint0_radial_4_15" cx="0" cy="0" r="1" gradientUnits="userSpaceOnUse" gradientTransform="translate(490 250) rotate(92.7559) scale(322.373 494.087)">
<stop stop-color="#535AF8"/>
<stop offset="0.540512" stop-color="#3450E6"/>
<stop offset="1" stop-color="#1C00C8"/>
</radialGradient>
<linearGradient id="paint1_linear_4_15" x1="799" y1="461.055" x2="807.43" y2="461.055" gradientUnits="userSpaceOnUse">
<stop stop-color="white"/>
<stop offset="1" stop-color="white" stop-opacity="0.82"/>
</linearGradient>
<linearGradient id="paint2_linear_4_15" x1="807.43" y1="470.528" x2="832.717" y2="470.528" gradientUnits="userSpaceOnUse">
<stop stop-color="white"/>
<stop offset="1" stop-color="white" stop-opacity="0.82"/>
</linearGradient>
<linearGradient id="paint3_linear_4_15" x1="807.573" y1="451.543" x2="832.654" y2="451.543" gradientUnits="userSpaceOnUse">
<stop stop-color="white"/>
<stop offset="1" stop-color="white" stop-opacity="0.82"/>
</linearGradient>
<linearGradient id="paint4_linear_4_15" x1="605.568" y1="412.747" x2="659.101" y2="411.361" gradientUnits="userSpaceOnUse">
<stop stop-color="#13AA76"/>
<stop offset="1" stop-color="#29E3A2"/>
</linearGradient>
<linearGradient id="paint5_linear_4_15" x1="616.5" y1="405.5" x2="655.605" y2="416.465" gradientUnits="userSpaceOnUse">
<stop offset="0.119175" stop-color="#07855A"/>
<stop offset="1" stop-color="#49E9B2"/>
</linearGradient>
<linearGradient id="paint6_linear_4_15" x1="332.788" y1="395.202" x2="345.352" y2="354.676" gradientUnits="userSpaceOnUse">
<stop stop-color="#13AA76"/>
<stop offset="1" stop-color="#29E3A2"/>
</linearGradient>
<linearGradient id="paint7_linear_4_15" x1="475.991" y1="228.606" x2="475.991" y2="404.379" gradientUnits="userSpaceOnUse">
<stop stop-color="#D0D5FF"/>
<stop offset="1" stop-color="#89A3FF"/>
</linearGradient>
<linearGradient id="paint8_linear_4_15" x1="475.991" y1="238.141" x2="476.076" y2="439.448" gradientUnits="userSpaceOnUse">
<stop offset="0.353479" stop-color="#F0F2FC"/>
<stop offset="1" stop-color="#C3B9FF"/>
</linearGradient>
<linearGradient id="paint9_linear_4_15" x1="362.459" y1="246.717" x2="354.131" y2="252.07" gradientUnits="userSpaceOnUse">
<stop stop-color="white"/>
<stop offset="1" stop-color="#FF5252"/>
</linearGradient>
<linearGradient id="paint10_linear_4_15" x1="372.572" y1="253.26" x2="380.9" y2="246.717" gradientUnits="userSpaceOnUse">
<stop stop-color="#FFDE2E"/>
<stop offset="1" stop-color="white"/>
</linearGradient>
<linearGradient id="paint11_linear_4_15" x1="392.202" y1="252.665" x2="399.34" y2="244.932" gradientUnits="userSpaceOnUse">
<stop stop-color="#4BFF5D"/>
<stop offset="1" stop-color="white"/>
</linearGradient>
<linearGradient id="paint12_linear_4_15" x1="379" y1="384" x2="408" y2="372" gradientUnits="userSpaceOnUse">
<stop stop-color="#3D4B9A"/>
<stop offset="1" stop-color="#5369E5"/>
</linearGradient>
<clipPath id="clip0_4_15">
<rect width="980" height="500" fill="white"/>
</clipPath>
<clipPath id="clip1_4_15">
<rect width="160.567" height="38" fill="white" transform="translate(799 442)"/>
</clipPath>
<clipPath id="clip2_4_15">
<rect width="546.1" height="363.086" fill="white" transform="translate(217 68)"/>
</clipPath>
</defs>
</svg>
