<svg width="980" height="500" viewBox="0 0 980 500" fill="none" xmlns="http://www.w3.org/2000/svg">
<rect width="980" height="500" fill="url(#paint0_linear_29_1414)"/>
<g clip-path="url(#clip0_29_1414)">
<path d="M848.688 467.15C847.638 467.181 846.599 466.917 845.691 466.387C844.86 465.875 844.194 465.133 843.775 464.251C843.312 463.258 843.084 462.171 843.107 461.076C843.084 459.979 843.312 458.892 843.775 457.897C844.194 457.015 844.86 456.273 845.691 455.762C846.599 455.232 847.638 454.967 848.688 454.998C849.89 454.954 851.072 455.308 852.051 456.005C852.958 456.686 853.624 457.638 853.952 458.723L851.983 459.267C851.794 458.566 851.388 457.942 850.824 457.485C850.206 457.035 849.452 456.811 848.688 456.852C847.998 456.826 847.316 457.009 846.731 457.378C846.199 457.743 845.79 458.261 845.558 458.863C845.282 459.575 845.146 460.333 845.157 461.097C845.14 461.859 845.274 462.616 845.549 463.327C845.785 463.932 846.199 464.45 846.737 464.812C847.323 465.181 848.006 465.364 848.697 465.338C849.459 465.372 850.208 465.143 850.821 464.691C851.384 464.233 851.79 463.609 851.98 462.908L853.952 463.425C853.627 464.509 852.965 465.461 852.063 466.143C851.08 466.843 849.894 467.197 848.688 467.15Z" fill="white"/>
<path d="M856.094 466.91V455.239H860.915C861.03 455.239 861.176 455.239 861.354 455.239C861.519 455.246 861.684 455.264 861.847 455.292C862.455 455.368 863.032 455.6 863.523 455.967C863.959 456.308 864.298 456.759 864.503 457.274C864.72 457.833 864.828 458.429 864.821 459.029C864.844 459.901 864.592 460.758 864.102 461.48C863.84 461.832 863.508 462.126 863.127 462.344C862.746 462.562 862.325 462.7 861.889 462.748L861.054 462.819H858.048V466.91H856.094ZM858.048 461.01H860.834C860.944 461.01 861.063 461.01 861.2 460.993C861.325 460.984 861.45 460.962 861.571 460.927C861.864 460.866 862.132 460.717 862.337 460.499C862.521 460.3 862.658 460.061 862.735 459.801C862.81 459.555 862.849 459.299 862.851 459.041C862.85 458.781 862.811 458.523 862.735 458.275C862.658 458.014 862.522 457.774 862.337 457.574C862.13 457.358 861.863 457.21 861.571 457.149C861.449 457.117 861.325 457.097 861.2 457.089C861.063 457.089 860.944 457.089 860.834 457.089H858.048V461.01ZM862.801 466.91L860.502 462.157L862.486 461.72L865.014 466.907L862.801 466.91Z" fill="white"/>
<path d="M867.164 466.91V455.239H874.7V457.072H869.116V459.947H873.726V461.78H869.116V465.077H874.7V466.91H867.164Z" fill="white"/>
<path d="M876.206 466.91L879.883 455.239H882.744L886.424 466.91H884.413L881.074 456.439H881.514L878.217 466.91H876.206ZM878.255 464.379V462.558H884.38V464.379H878.255Z" fill="white"/>
<path d="M890.087 466.91V457.072H886.311V455.239H895.816V457.072H892.038V466.91H890.087Z" fill="white"/>
<path d="M897.646 466.91V455.239H899.598V466.91H897.646Z" fill="white"/>
<path d="M905.042 466.91L901.35 455.239H903.358L906.438 465.011L909.557 455.239H911.577L907.888 466.91H905.042Z" fill="white"/>
<path d="M913.154 466.91V455.239H920.69V457.072H915.109V459.947H919.719V461.78H915.109V465.077H920.69V466.91H913.154Z" fill="white"/>
<path d="M923.162 466.91V455.239H925.113V466.91H923.162Z" fill="white"/>
<path d="M930.73 466.91V457.072H926.955V455.239H936.46V457.072H932.682V466.91H930.73Z" fill="white"/>
<path d="M938.126 466.91V455.239H945.662V457.072H940.093V459.947H944.703V461.78H940.093V465.077H945.674V466.91H938.126Z" fill="white"/>
<path d="M947.982 466.91V455.239H949.741L953.774 463.506L957.811 455.239H959.567V466.91H957.746V459.43L954.164 466.91H953.385L949.821 459.43V466.91H947.982Z" fill="white"/>
<path d="M815.86 470.789L807.43 465.92V475.654L815.86 470.789Z" fill="white" fill-opacity="0.48"/>
<path d="M832.717 461.055L824.287 456.189V465.92L832.717 461.055Z" fill="white" fill-opacity="0.47"/>
<path d="M815.86 451.321L807.43 446.456V456.189L815.86 451.321Z" fill="white" fill-opacity="0.48"/>
<path d="M807.43 446.456L800.687 450.35C800.174 450.645 799.747 451.07 799.451 451.583C799.155 452.096 798.999 452.677 799 453.27V468.84C799 469.433 799.155 470.015 799.452 470.528C799.748 471.041 800.174 471.467 800.687 471.763L807.43 475.654V446.456Z" fill="url(#paint1_linear_29_1414)"/>
<path d="M832.717 468.84V461.055L807.43 475.654L814.173 479.548C814.685 479.845 815.267 480.001 815.858 480.001C816.45 480.001 817.032 479.845 817.544 479.548L831.033 471.763C831.545 471.467 831.97 471.04 832.266 470.527C832.562 470.014 832.717 469.432 832.717 468.84Z" fill="url(#paint2_linear_29_1414)"/>
<path d="M817.606 442.594C817.098 442.301 816.521 442.146 815.934 442.146C815.347 442.146 814.77 442.301 814.262 442.594L807.573 446.456L832.654 460.939V453.216C832.654 452.629 832.5 452.051 832.206 451.543C831.913 451.034 831.491 450.611 830.982 450.317L817.606 442.594Z" fill="url(#paint3_linear_29_1414)"/>
</g>
<path d="M195.068 307.309C196.477 304.64 199.514 303.152 202.542 302.906C204.601 302.79 206.664 303.029 208.641 303.613C209.281 303.789 210.581 304.462 210.544 304.656C210.519 304.724 210.482 304.786 210.435 304.841C211.509 304.902 212.578 305.028 213.637 305.218C213.301 304.973 213.002 304.681 212.747 304.353C211.909 303.269 211.265 302.048 210.843 300.745C210.27 298.825 210.476 296.572 211.79 295.068C211.984 294.793 212.25 294.576 212.56 294.444C212.87 294.311 213.21 294.268 213.543 294.317C214.353 294.556 214.934 295.633 215.221 296.426C216.035 298.71 214.989 301.303 214.532 303.688C214.382 304.235 214.161 304.76 213.873 305.249C214.538 305.36 215.148 305.5 215.77 305.656C219.148 306.545 222.379 307.922 225.36 309.744C227.253 310.881 229.071 312.141 230.8 313.516C230.786 313.48 230.775 313.443 230.767 313.406C229.934 311.517 229.435 309.499 229.291 307.44C229.157 304.429 230.261 301.206 232.729 299.465C233.56 298.883 234.689 298.495 235.556 299.007C236.656 299.646 237.12 301.434 237.244 302.698C237.621 306.376 235.139 309.745 233.609 313.063C233.254 313.674 232.847 314.254 232.395 314.796C232.852 315.184 233.301 315.568 233.742 315.967C236.331 318.302 238.765 320.802 241.029 323.452C242.21 324.806 243.34 326.2 244.442 327.608C243.864 325.74 243.607 323.788 243.68 321.834C243.854 318.819 245.29 315.731 247.924 314.25C248.807 313.76 249.967 313.496 250.783 314.092C251.809 314.841 252.082 316.668 252.082 317.938C252.066 321.613 249.255 324.725 247.387 327.866C246.961 328.475 246.479 329.042 245.947 329.56C246.475 330.249 246.993 330.947 247.521 331.617C249.61 334.386 251.7 337.155 253.852 339.836C254.205 340.28 254.563 340.717 254.923 341.159C254.539 339.507 254.413 337.806 254.549 336.116C254.834 333.112 256.38 330.079 259.074 328.713C259.976 328.261 261.146 328.032 261.94 328.661C262.933 329.451 263.145 331.283 263.101 332.553C262.934 336.229 260.038 339.228 258.036 342.277C257.697 342.719 257.324 343.134 256.922 343.519C259.587 346.678 262.511 349.609 265.664 352.282C265.132 350.596 264.872 348.835 264.891 347.067C264.978 344.053 266.313 340.926 268.915 339.379C269.784 338.861 270.937 338.554 271.765 339.129C272.815 339.852 273.153 341.665 273.18 342.939C273.282 346.604 270.567 349.809 268.797 353.002C268.549 353.383 268.273 353.744 267.97 354.083C268.092 354.173 268.215 354.269 268.335 354.353C271.076 356.348 274.076 357.96 277.251 359.148C278.445 359.6 279.663 359.985 280.9 360.302C279.889 358.761 279.137 357.064 278.675 355.28C277.96 352.334 278.437 348.977 280.538 346.809C281.243 346.08 282.273 345.489 283.226 345.823C284.431 346.241 285.224 347.906 285.588 349.124C286.638 352.645 284.865 356.44 283.991 359.992C283.891 360.3 283.769 360.6 283.627 360.89C284.776 361.099 285.931 361.264 287.092 361.386C290.898 361.74 294.719 361.899 298.542 361.861C296.493 360.345 294.705 358.506 293.247 356.416C290.956 352.974 289.958 348.42 291.628 344.637C292.191 343.37 293.238 342.116 294.622 342.095C296.364 342.068 298.173 343.834 299.22 345.227C302.247 349.252 301.75 354.978 302.308 359.96C302.337 360.599 302.316 361.238 302.247 361.874C304.105 361.895 305.965 361.927 307.837 362.019C308.719 362.053 309.606 362.123 310.483 362.184C311.36 362.244 312.244 362.347 313.129 362.456C314.925 362.66 316.703 363.004 318.445 363.485C321.95 364.454 325.289 365.945 328.35 367.908C331.508 369.893 334.196 372.54 336.23 375.665C337.254 377.293 338.014 379.073 338.48 380.939C338.937 382.836 339.065 384.798 338.858 386.739L335.202 386.301C335.399 384.785 335.335 383.246 335.014 381.752C334.668 380.239 334.084 378.79 333.285 377.46C331.568 374.722 329.279 372.388 326.575 370.618C323.821 368.767 320.804 367.342 317.625 366.389C316.031 365.904 314.401 365.546 312.75 365.317C311.913 365.2 311.076 365.083 310.226 365.008C309.376 364.933 308.535 364.843 307.678 364.789C305.819 364.655 303.946 364.582 302.058 364.52C301.868 365.372 301.607 366.206 301.279 367.014C299.011 371.481 297.46 376.998 293.223 379.734C291.753 380.672 289.441 381.69 287.816 381.05C286.524 380.551 285.987 379.006 285.903 377.622C285.663 373.493 288.187 369.568 291.543 367.158C293.232 365.977 295.079 365.04 297.031 364.378C293.652 364.274 290.249 364.114 286.846 363.676C285.467 363.5 284.081 363.238 282.726 362.972C282.366 363.534 281.96 364.065 281.513 364.56C278.831 367.047 276.378 370.451 272.768 371.244C271.527 371.513 269.685 371.626 268.733 370.786C267.977 370.114 268 368.92 268.293 367.954C269.168 365.065 271.874 363.02 274.796 362.224C275.898 361.93 277.031 361.762 278.171 361.722C277.608 361.53 277.048 361.325 276.496 361.104C273.19 359.78 270.078 358.016 267.243 355.86C267.097 355.752 266.955 355.637 266.815 355.527C266.312 355.991 265.769 356.409 265.191 356.776C261.954 358.481 258.698 361.12 255.03 360.938C253.749 360.878 251.951 360.505 251.255 359.443C250.7 358.598 251.033 357.449 251.568 356.595C253.166 354.033 256.327 352.768 259.34 352.747C261.097 352.772 262.839 353.068 264.504 353.626C261.395 350.873 258.52 347.866 255.909 344.636C255.371 345.066 254.796 345.449 254.191 345.78C250.842 347.26 247.424 349.694 243.765 349.245C242.502 349.097 240.725 348.604 240.086 347.5C239.589 346.618 240 345.497 240.591 344.683C242.392 342.25 245.6 341.186 248.612 341.374C250.653 341.549 252.648 342.076 254.51 342.931C253.911 342.179 253.324 341.425 252.749 340.67C250.656 337.89 248.61 335.076 246.571 332.267C246.043 331.534 245.501 330.798 244.973 330.065C244.494 330.467 243.984 330.831 243.447 331.152C240.139 332.771 236.816 335.291 233.16 334.998C231.868 334.904 230.097 334.472 229.432 333.388C228.904 332.528 229.266 331.39 229.848 330.547C231.525 328.038 234.721 326.87 237.733 326.931C239.775 327.028 241.784 327.478 243.671 328.262C242.603 326.799 241.48 325.365 240.314 323.975C238.123 321.305 235.761 318.779 233.244 316.413C232.849 316.044 232.451 315.683 232.054 315.327C231.518 315.948 230.917 316.509 230.26 317C227.159 318.929 224.11 321.797 220.43 321.891C219.175 321.918 217.33 321.685 216.554 320.672C215.942 319.869 216.188 318.703 216.66 317.81C218.069 315.141 221.106 313.654 224.134 313.407C226.191 313.292 228.252 313.532 230.227 314.116C230.509 314.204 230.784 314.312 231.05 314.439C229.171 312.827 227.177 311.353 225.085 310.028C222.174 308.158 219.005 306.724 215.678 305.772C215.401 305.69 215.116 305.624 214.836 305.555C214.739 306.106 214.574 306.643 214.347 307.154C213.183 309.289 212.358 311.943 210.263 313.199C209.538 313.63 208.405 314.088 207.625 313.759C207.337 313.585 207.103 313.335 206.95 313.036C206.796 312.737 206.728 312.402 206.753 312.067C206.694 310.069 207.97 308.204 209.632 307.083C210.785 306.344 212.059 305.812 213.396 305.511C213.675 305.45 213.959 305.418 214.245 305.416C212.958 305.128 211.652 304.933 210.337 304.832C209.828 305.395 209.266 305.907 208.659 306.362C205.552 308.294 202.511 311.166 198.823 311.255C197.568 311.282 195.723 311.049 194.953 310.035C194.355 309.366 194.601 308.2 195.068 307.309Z" fill="white" fill-opacity="0.36"/>
<path opacity="0.16" d="M437.064 197.55C408.681 220.191 373.042 231.274 340.985 248.32C308.93 265.368 278.03 292.323 273.382 328.331C268.422 366.757 296.357 403.635 331.305 420.362C366.253 437.091 406.608 437.656 445.281 435.265C493.105 432.31 541.425 425.114 585.014 405.22C628.606 385.324 667.343 351.439 685.084 306.929C704.478 258.276 696.964 202.569 678.612 153.514C667.905 124.894 653.047 96.8459 629.536 77.3272C599.552 52.4353 556.947 46.3849 519.599 56.6972C487.844 65.4662 486.694 125.085 478.473 143.501C469.137 164.414 454.995 183.246 437.064 197.55Z" fill="#F5F7FF"/>
<path d="M625.471 345.087C629.775 333.118 634.942 322.505 635.92 309.535C636.283 304.315 636.124 299.029 637.166 293.911C638.208 288.792 640.686 283.673 645.102 280.865C650.06 277.699 656.647 277.915 661.503 274.598C664.651 272.455 666.691 269.09 669.132 266.171C674.491 259.766 681.858 255.428 689.073 251.216C700.254 244.696 712.219 237.964 725.186 238.521C732.564 238.845 739.637 241.589 746.337 244.673C750.581 246.653 754.87 248.902 757.625 252.76C759.254 254.929 760.075 257.599 759.946 260.309C759.494 266.979 752.688 269.932 746.735 269.671C741.729 269.435 736.964 267.45 732.109 266.339C727.254 265.227 721.674 265.06 717.613 268.044C711.836 272.317 711.042 281.587 704.672 284.923C701.128 286.779 696.511 286.335 693.451 288.911C688.736 292.886 691.099 300.569 694.327 305.785C697.555 311.002 701.481 317.325 698.756 322.851C694.025 332.471 676.378 326.572 670.546 335.6C667.171 340.84 669.817 348.66 665.758 353.403C660.141 359.963 648.368 354.013 641.169 358.785C638.217 360.743 636.642 364.143 634.9 367.227C633.158 370.31 630.782 373.469 627.31 374.196C627.031 374.256 626.771 374.312 626.505 374.314C626.347 374.331 626.186 374.312 626.036 374.259C625.886 374.205 625.749 374.119 625.636 374.007C625.524 373.894 625.437 373.757 625.384 373.607C625.331 373.457 625.311 373.297 625.328 373.138C625.406 372.44 625.512 371.754 625.642 371.07C626.438 367.227 627.871 363.545 629.881 360.174C631.889 356.823 634.223 353.679 636.85 350.788C639.436 347.856 642.205 345.083 644.916 342.267C646.276 340.852 647.642 339.435 648.94 337.965C650.301 336.486 651.445 334.82 652.336 333.018C653.211 331.162 653.577 329.105 653.394 327.06C653.141 325.092 652.756 323.144 652.243 321.227C652.038 320.28 651.834 319.334 651.726 318.378C651.606 317.427 651.548 316.47 651.552 315.511C651.581 313.591 651.853 311.682 652.36 309.83C653.355 306.092 654.999 302.558 657.218 299.389C658.355 297.842 659.687 296.448 661.183 295.243C662.702 294.043 664.311 292.96 665.994 292.003C667.677 291.019 669.389 290.03 671.065 288.992C672.751 287.945 674.362 286.783 675.887 285.514C678.91 282.931 681.543 279.925 683.705 276.588C685.854 273.265 687.7 269.757 689.222 266.104C689.58 265.208 689.993 264.334 690.459 263.489C690.94 262.665 691.503 261.892 692.14 261.181C693.436 259.759 694.973 258.577 696.68 257.69C700.104 255.884 703.975 255.021 707.834 254.539C715.604 253.577 723.483 254.096 731.333 254.367C727.418 254.105 723.503 253.819 719.575 253.696C715.645 253.533 711.709 253.635 707.793 254.003C703.887 254.446 699.945 255.262 696.383 257.091C694.582 257.992 692.958 259.208 691.586 260.681C690.903 261.423 690.297 262.232 689.779 263.097C689.28 263.962 688.841 264.86 688.466 265.785C686.91 269.358 685.063 272.797 682.942 276.066C680.819 279.32 678.236 282.249 675.272 284.762C673.775 285.997 672.195 287.127 670.542 288.145C668.906 289.174 667.183 290.11 665.476 291.099C663.747 292.08 662.092 293.187 660.526 294.412C658.96 295.671 657.561 297.124 656.364 298.738C655.189 300.356 654.191 302.096 653.387 303.928C652.58 305.747 651.907 307.624 651.375 309.542C650.562 312.447 650.35 315.488 650.75 318.478C650.879 319.472 651.078 320.451 651.294 321.42C651.803 323.292 652.188 325.195 652.446 327.117C652.629 328.999 652.299 330.896 651.491 332.607C650.646 334.33 649.56 335.925 648.267 337.343C646.973 338.805 645.642 340.239 644.296 341.664C641.612 344.518 638.871 347.334 636.302 350.318C633.681 353.261 631.362 356.46 629.381 359.867C627.444 363.327 626.101 367.087 625.408 370.99C625.308 371.588 625.223 372.195 625.179 372.793C625.166 372.983 625.103 373.166 624.995 373.323C624.887 373.48 624.739 373.605 624.566 373.685C624.393 373.765 624.202 373.796 624.012 373.777C623.823 373.757 623.642 373.687 623.489 373.573C617.915 369.477 623.791 349.749 625.471 345.087Z" fill="white" fill-opacity="0.36"/>
<path d="M663.688 329.255C663.688 329.255 721.176 295.366 769.765 340.701C767.727 342.189 756.888 341.349 749.637 342.334C746.548 342.754 745.037 336.541 743.433 335.917C741.83 335.294 745.255 343.096 743.871 344.158C742.487 345.22 733.907 346.217 726.388 350.21C718.868 354.204 719.215 347.286 714.635 339.081C710.055 330.876 712.116 343.556 715.805 350.666C718.093 355.086 701.295 363.026 694.652 361.623C688.008 360.221 687.184 351.225 687.634 346.844C688.083 342.464 684.358 345.382 685.246 358.28C685.246 358.28 687.335 364.948 682.769 367.634C676.417 371.379 660.658 376.25 656.508 374.794C652.358 373.338 651.153 365.686 652.798 359.578C654.443 353.47 650.331 354.567 648.826 362.886C647.322 371.205 646.742 376.327 638.712 377.978C630.682 379.629 606.938 385.531 604.443 384.6C601.947 383.67 629.745 347.118 663.688 329.255Z" fill="url(#paint4_linear_29_1414)"/>
<path d="M769.765 340.701C721.176 295.366 663.688 329.255 663.688 329.255C631.799 346.04 605.358 379.329 604.349 384.046L604.473 384.596C604.473 384.596 639.337 349.051 685.48 332.075C731.623 315.099 769.765 340.701 769.765 340.701Z" fill="url(#paint5_linear_29_1414)"/>
<path d="M618.304 351.059C618.304 351.059 664.378 246.186 702.693 248.948C741.008 251.711 618.304 351.059 618.304 351.059Z" fill="url(#paint6_linear_29_1414)"/>
<path d="M707.479 250.187C679.335 267.214 618.304 351.059 618.304 351.059C618.304 351.059 728.277 262.013 707.479 250.187Z" fill="url(#paint7_linear_29_1414)"/>
<path d="M618.304 351.059C624.64 341.752 631.234 332.608 638.086 323.628C644.937 314.647 651.957 305.82 659.144 297.145C662.772 292.822 666.458 288.544 670.203 284.31C673.975 280.11 677.796 275.942 681.748 271.906C685.701 267.87 689.714 263.927 693.998 260.173C695.062 259.228 696.146 258.332 697.241 257.433C698.335 256.535 699.444 255.655 700.579 254.801C702.802 253.078 705.141 251.509 707.579 250.104C702.962 253.335 698.633 256.957 694.644 260.93C690.59 264.828 686.674 268.889 682.865 273.012C675.257 281.299 667.905 289.82 660.694 298.461C653.483 307.102 646.377 315.848 639.35 324.621L618.304 351.059Z" fill="url(#paint8_linear_29_1414)"/>
<path d="M618.304 351.059C618.304 351.059 696.956 267.43 732.114 282.761C767.271 298.092 618.304 351.059 618.304 351.059Z" fill="url(#paint9_linear_29_1414)"/>
<path d="M736.201 285.514C703.975 292.255 618.304 351.059 618.304 351.059C618.304 351.059 751.807 303.586 736.201 285.514Z" fill="url(#paint10_linear_29_1414)"/>
<path d="M618.304 351.059C627.412 344.364 636.697 337.929 646.16 331.753C655.623 325.577 665.203 319.579 674.898 313.757C679.77 310.898 684.68 308.073 689.628 305.335C694.577 302.598 699.586 299.953 704.668 297.463C709.75 294.973 714.894 292.586 720.155 290.47C721.458 289.931 722.791 289.438 724.097 288.971C725.404 288.505 726.769 288.016 728.116 287.594C730.807 286.702 733.556 285.998 736.344 285.486C730.923 287.005 725.643 288.984 720.56 291.401C715.435 293.721 710.393 296.256 705.415 298.894C695.457 304.171 685.67 309.772 675.967 315.536C666.264 321.299 656.636 327.174 647.04 333.106L618.304 351.059Z" fill="url(#paint11_linear_29_1414)"/>
<path d="M263.948 298.103C268.595 293.259 276.915 294.066 282.471 297.84C288.027 301.614 291.605 307.604 295.509 313.066C299.413 318.527 304.131 324.013 310.605 325.797C314.786 326.955 319.379 326.487 323.357 328.208C327.89 330.187 330.791 334.69 332.859 339.163C336.941 348.016 344.058 371.849 333.669 378.849C333.506 377.105 333.2 375.377 332.754 373.682C332.194 371.746 331.473 369.86 330.598 368.044C329.712 366.237 328.694 364.498 327.553 362.84C326.411 361.187 325.17 359.604 323.837 358.101C322.5 356.604 321.087 355.176 319.604 353.824C318.116 352.469 316.584 351.19 315.075 349.879C312.044 347.271 309.002 344.663 305.904 342.131C302.805 339.599 299.65 337.131 296.422 334.764C294.794 333.594 293.2 332.403 291.662 331.125C290.125 329.846 288.666 328.477 287.248 327.064C285.829 325.651 284.481 324.197 283.217 322.635C282.566 321.88 281.966 321.079 281.339 320.322C280.711 319.565 280.145 318.719 279.598 317.884C278.463 316.238 277.429 314.523 276.502 312.751C275.579 310.976 274.786 309.136 274.13 307.246C274.777 309.139 275.558 310.983 276.467 312.765C277.389 314.542 278.415 316.262 279.54 317.918C280.081 318.759 280.693 319.554 281.275 320.368C281.857 321.182 282.486 321.963 283.138 322.725C284.395 324.281 285.744 325.747 287.158 327.185C288.572 328.623 290.029 329.973 291.562 331.276C293.096 332.58 294.689 333.776 296.305 334.947C299.516 337.327 302.66 339.807 305.735 342.359C308.811 344.91 311.836 347.532 314.861 350.159C316.364 351.47 317.891 352.768 319.343 354.136C320.81 355.485 322.205 356.91 323.522 358.405C324.834 359.904 326.056 361.479 327.181 363.123C328.297 364.771 329.291 366.497 330.158 368.288C331.008 370.085 331.706 371.95 332.244 373.864C332.705 375.617 333.014 377.406 333.169 379.212C331.998 379.898 330.714 380.367 329.377 380.597C315.109 383.268 298.538 373.159 291.905 361.002C288.698 355.129 287.087 348.451 283.709 342.655C277.561 332.106 265.894 325.016 261.858 313.479C260.033 308.306 260.185 302.014 263.948 298.103Z" fill="url(#paint12_linear_29_1414)"/>
<path opacity="0.26" d="M660.958 163.461C660.814 163.461 660.676 163.404 660.574 163.302C660.472 163.201 660.415 163.063 660.415 162.919V145.427C660.415 130.213 648.039 117.836 632.824 117.836H614.691C614.547 117.836 614.409 117.779 614.308 117.677C614.206 117.576 614.149 117.438 614.149 117.294C614.149 117.15 614.206 117.012 614.308 116.91C614.409 116.808 614.547 116.751 614.691 116.751H632.824C648.637 116.751 661.5 129.615 661.5 145.427V162.919C661.5 163.063 661.443 163.201 661.341 163.302C661.24 163.404 661.102 163.461 660.958 163.461ZM632.503 402.191H615.011C614.868 402.191 614.729 402.133 614.628 402.032C614.526 401.93 614.469 401.792 614.469 401.648C614.469 401.504 614.526 401.366 614.628 401.264C614.729 401.162 614.868 401.105 615.011 401.105H632.503C647.717 401.105 660.094 388.728 660.094 373.514V355.379C660.094 355.235 660.151 355.097 660.253 354.996C660.355 354.894 660.493 354.837 660.636 354.837C660.78 354.837 660.918 354.894 661.02 354.996C661.122 355.097 661.179 355.235 661.179 355.379V373.513C661.179 389.326 648.315 402.191 632.503 402.191ZM308.322 163.461C308.178 163.461 308.04 163.404 307.938 163.302C307.837 163.201 307.78 163.063 307.78 162.919V145.427C307.78 129.615 320.643 116.751 336.455 116.751H354.59C354.734 116.751 354.872 116.808 354.973 116.91C355.075 117.012 355.132 117.15 355.132 117.294C355.132 117.438 355.075 117.576 354.973 117.677C354.872 117.779 354.734 117.836 354.59 117.836H336.455C321.241 117.836 308.864 130.213 308.864 145.427V162.919C308.864 163.063 308.807 163.201 308.705 163.302C308.603 163.404 308.465 163.461 308.321 163.461H308.322ZM354.267 402.191H336.776C320.963 402.191 308.1 389.326 308.1 373.514V355.379C308.1 355.235 308.157 355.097 308.259 354.996C308.36 354.894 308.498 354.837 308.642 354.837C308.786 354.837 308.924 354.894 309.026 354.996C309.128 355.097 309.185 355.235 309.185 355.379V373.513C309.185 388.727 321.563 401.104 336.776 401.104H354.267C354.411 401.104 354.549 401.161 354.651 401.263C354.753 401.365 354.81 401.503 354.81 401.647C354.81 401.791 354.753 401.929 354.651 402.031C354.549 402.132 354.411 402.191 354.267 402.191Z" fill="white"/>
<path d="M646.601 145.426V373.514C646.601 381.122 640.433 387.291 632.824 387.291H336.455C328.847 387.291 322.679 381.122 322.679 373.514V145.426C322.679 137.818 328.847 131.65 336.455 131.65H632.824C640.432 131.65 646.601 137.818 646.601 145.426Z" fill="white"/>
<path d="M646.603 145.424V178.349H420.116C418.938 178.349 417.777 178.061 416.735 177.51C415.694 176.96 414.802 176.163 414.139 175.189L405.308 162.224C404.644 161.25 403.753 160.453 402.711 159.902C401.669 159.351 400.509 159.063 399.33 159.063H368.311C367.132 159.063 365.972 159.351 364.93 159.902C363.888 160.453 362.996 161.25 362.333 162.224L353.502 175.189C352.839 176.162 351.947 176.959 350.906 177.51C349.864 178.061 348.704 178.349 347.526 178.349H322.684V145.425C322.684 137.812 328.854 131.641 336.467 131.641H632.82C640.432 131.641 646.603 137.812 646.603 145.424Z" fill="url(#paint13_linear_29_1414)"/>
<path d="M631.594 155.378C631.594 156.714 631.331 158.036 630.82 159.27C630.309 160.503 629.56 161.624 628.616 162.569C627.672 163.513 626.551 164.262 625.317 164.773C624.083 165.284 622.761 165.547 621.425 165.547H507.541C504.844 165.547 502.257 164.476 500.35 162.569C498.443 160.661 497.371 158.075 497.371 155.378C497.371 152.68 498.443 150.094 500.35 148.187C502.257 146.279 504.844 145.208 507.541 145.208H621.424C622.76 145.208 624.083 145.471 625.316 145.982C626.55 146.493 627.672 147.242 628.616 148.186C629.56 149.131 630.31 150.252 630.821 151.486C631.332 152.72 631.595 154.043 631.594 155.378Z" fill="url(#paint14_linear_29_1414)"/>
<path d="M621.424 145.209H611.479V165.547H621.425C624.122 165.547 626.709 164.476 628.616 162.569C630.523 160.662 631.594 158.075 631.594 155.378C631.594 152.681 630.523 150.095 628.616 148.187C626.709 146.28 624.122 145.209 621.425 145.209H621.424Z" fill="#3D79F3"/>
<path d="M617.248 157.258C616.537 156.545 616.138 155.58 616.138 154.574C616.138 153.568 616.537 152.602 617.248 151.89C618.675 150.463 621.19 150.465 622.615 151.89C623.326 152.602 623.726 153.567 623.726 154.574C623.726 155.58 623.326 156.546 622.615 157.258C621.903 157.969 620.938 158.368 619.931 158.368C618.925 158.368 617.96 157.969 617.248 157.258ZM618.015 152.657C617.508 153.166 617.223 153.855 617.223 154.574C617.223 155.293 617.508 155.982 618.015 156.49C618.529 156.973 619.21 157.236 619.914 157.226C620.618 157.215 621.291 156.93 621.789 156.432C622.287 155.934 622.572 155.261 622.583 154.557C622.593 153.853 622.33 153.172 621.847 152.658C621.338 152.153 620.649 151.87 619.931 151.87C619.214 151.87 618.525 152.153 618.015 152.658V152.657Z" fill="white"/>
<path d="M624.403 159.814L621.847 157.258C621.796 157.208 621.754 157.148 621.726 157.082C621.697 157.015 621.682 156.944 621.682 156.872C621.681 156.8 621.695 156.729 621.722 156.662C621.75 156.595 621.79 156.535 621.841 156.484C621.892 156.433 621.952 156.393 622.019 156.365C622.086 156.338 622.157 156.324 622.229 156.325C622.301 156.325 622.372 156.34 622.439 156.369C622.505 156.397 622.565 156.439 622.615 156.49L625.172 159.046C625.222 159.097 625.262 159.157 625.289 159.223C625.316 159.288 625.33 159.359 625.33 159.43C625.33 159.502 625.316 159.572 625.289 159.638C625.262 159.704 625.222 159.764 625.171 159.814C625.121 159.865 625.061 159.904 624.995 159.932C624.929 159.959 624.858 159.973 624.787 159.973C624.716 159.973 624.645 159.959 624.579 159.931C624.513 159.904 624.454 159.864 624.403 159.814Z" fill="white"/>
<path opacity="0.26" d="M349.1 79.0354C348.956 79.0354 348.818 78.9782 348.717 78.8765C348.615 78.7747 348.558 78.6367 348.558 78.4928V72.4511C348.558 65.8341 353.941 60.4501 360.561 60.4501H369.102C369.246 60.4501 369.384 60.5072 369.486 60.609C369.587 60.7108 369.645 60.8488 369.645 60.9927C369.645 61.1366 369.587 61.2746 369.486 61.3764C369.384 61.4782 369.246 61.5353 369.102 61.5353H360.561C354.54 61.5353 349.643 66.4321 349.643 72.4511V78.4928C349.643 78.6367 349.586 78.7747 349.484 78.8765C349.382 78.9782 349.244 79.0354 349.1 79.0354ZM369.102 199.177H360.561C353.941 199.177 348.558 193.794 348.558 187.176V181.135C348.558 180.991 348.615 180.853 348.717 180.751C348.818 180.649 348.956 180.592 349.1 180.592C349.244 180.592 349.382 180.649 349.484 180.751C349.586 180.853 349.643 180.991 349.643 181.135V187.176C349.643 193.195 354.54 198.091 360.561 198.091H369.102C369.246 198.091 369.384 198.148 369.486 198.25C369.587 198.352 369.645 198.49 369.645 198.634C369.645 198.778 369.587 198.916 369.486 199.018C369.384 199.119 369.246 199.177 369.102 199.177Z" fill="white"/>
<path d="M488.334 72.4521V187.176C488.333 188.552 487.786 189.873 486.813 190.847C485.839 191.82 484.519 192.367 483.142 192.368H360.56C359.183 192.368 357.862 191.821 356.888 190.847C355.914 189.873 355.367 188.553 355.367 187.176V72.4511C355.367 71.074 355.914 69.7534 356.888 68.7797C357.862 67.8061 359.183 67.2591 360.56 67.2591H483.142C484.519 67.2594 485.839 67.8066 486.813 68.7805C487.787 69.7543 488.334 71.075 488.334 72.4521Z" fill="url(#paint15_linear_29_1414)"/>
<path opacity="0.26" d="M483.066 199.177H474.524C474.38 199.177 474.242 199.119 474.14 199.018C474.038 198.916 473.981 198.778 473.981 198.634C473.981 198.49 474.038 198.352 474.14 198.25C474.242 198.148 474.38 198.091 474.524 198.091H483.066C489.086 198.091 493.984 193.195 493.984 187.176V181.135C493.984 180.991 494.041 180.853 494.143 180.751C494.244 180.649 494.382 180.592 494.526 180.592C494.67 180.592 494.808 180.649 494.91 180.751C495.012 180.853 495.069 180.991 495.069 181.135V187.176C495.069 193.793 489.685 199.177 483.066 199.177ZM494.526 79.0354C494.382 79.0354 494.244 78.9782 494.143 78.8765C494.041 78.7747 493.984 78.6367 493.984 78.4928V72.4511C493.984 66.4321 489.086 61.5353 483.066 61.5353H474.524C474.38 61.5353 474.242 61.4782 474.14 61.3764C474.038 61.2746 473.981 61.1366 473.981 60.9927C473.981 60.8488 474.038 60.7108 474.14 60.609C474.242 60.5072 474.38 60.4501 474.524 60.4501H483.066C489.685 60.4501 495.069 65.833 495.069 72.4511V78.4928C495.069 78.6367 495.012 78.7747 494.91 78.8765C494.808 78.9782 494.67 79.0354 494.526 79.0354Z" fill="#ADC8F7"/>
<path d="M384.161 124.309V169.912C384.14 171.505 383.492 173.025 382.359 174.143C381.225 175.262 379.696 175.889 378.104 175.889C376.511 175.889 374.983 175.262 373.849 174.143C372.715 173.025 372.068 171.505 372.046 169.912V124.309C372.036 123.506 372.184 122.71 372.484 121.966C372.783 121.221 373.228 120.544 373.791 119.973C374.355 119.402 375.026 118.948 375.767 118.639C376.507 118.329 377.301 118.17 378.104 118.17C378.906 118.17 379.7 118.329 380.441 118.639C381.181 118.948 381.852 119.402 382.416 119.973C382.98 120.544 383.424 121.221 383.724 121.966C384.023 122.71 384.172 123.506 384.161 124.309ZM406.035 124.309V169.912C406.014 171.505 405.366 173.025 404.232 174.143C403.099 175.262 401.57 175.889 399.977 175.889C398.385 175.889 396.856 175.262 395.723 174.143C394.589 173.025 393.941 171.505 393.92 169.912V124.309C393.909 123.506 394.058 122.71 394.358 121.966C394.657 121.221 395.102 120.544 395.665 119.973C396.229 119.402 396.9 118.948 397.64 118.639C398.381 118.329 399.175 118.17 399.977 118.17C400.78 118.17 401.574 118.329 402.314 118.639C403.055 118.948 403.726 119.402 404.29 119.973C404.853 120.544 405.298 121.221 405.597 121.966C405.897 122.71 406.046 123.506 406.035 124.309ZM427.909 124.309V169.912C427.887 171.505 427.24 173.025 426.106 174.143C424.972 175.262 423.444 175.889 421.851 175.889C420.259 175.889 418.73 175.262 417.596 174.143C416.463 173.025 415.815 171.505 415.794 169.912V124.309C415.783 123.506 415.932 122.71 416.231 121.966C416.531 121.221 416.975 120.544 417.539 119.973C418.103 119.402 418.774 118.948 419.514 118.639C420.254 118.329 421.049 118.17 421.851 118.17C422.654 118.17 423.448 118.329 424.188 118.639C424.928 118.948 425.6 119.402 426.163 119.973C426.727 120.544 427.171 121.221 427.471 121.966C427.771 122.71 427.919 123.506 427.909 124.309ZM449.781 124.309V169.912C449.76 171.505 449.112 173.025 447.979 174.143C446.845 175.262 445.317 175.889 443.724 175.889C442.131 175.889 440.603 175.262 439.469 174.143C438.335 173.025 437.688 171.505 437.666 169.912V124.309C437.656 123.506 437.804 122.71 438.104 121.966C438.404 121.221 438.848 120.544 439.412 119.973C439.975 119.402 440.647 118.948 441.387 118.639C442.127 118.329 442.921 118.17 443.724 118.17C444.526 118.17 445.321 118.329 446.061 118.639C446.801 118.948 447.473 119.402 448.036 119.973C448.6 120.544 449.044 121.221 449.344 121.966C449.643 122.71 449.792 123.506 449.781 124.309ZM471.655 124.309V169.912C471.634 171.505 470.986 173.025 469.853 174.143C468.719 175.262 467.19 175.889 465.598 175.889C464.005 175.889 462.476 175.262 461.343 174.143C460.209 173.025 459.561 171.505 459.54 169.912V124.309C459.529 123.506 459.678 122.71 459.978 121.966C460.277 121.221 460.722 120.544 461.285 119.973C461.849 119.402 462.52 118.948 463.261 118.639C464.001 118.329 464.795 118.17 465.598 118.17C466.4 118.17 467.194 118.329 467.935 118.639C468.675 118.948 469.346 119.402 469.91 119.973C470.473 120.544 470.918 121.221 471.217 121.966C471.517 122.71 471.666 123.506 471.655 124.309Z" fill="white"/>
<path d="M378.103 132.767C376.497 132.767 374.956 133.406 373.82 134.541C372.684 135.677 372.046 137.218 372.045 138.824V169.912C372.034 170.714 372.183 171.511 372.483 172.255C372.782 173 373.227 173.677 373.79 174.248C374.354 174.819 375.025 175.273 375.766 175.582C376.506 175.892 377.3 176.051 378.103 176.051C378.905 176.051 379.699 175.892 380.44 175.582C381.18 175.273 381.851 174.819 382.415 174.248C382.978 173.677 383.423 173 383.723 172.255C384.022 171.511 384.171 170.714 384.16 169.912V138.823C384.16 137.217 383.522 135.677 382.386 134.541C381.251 133.405 379.71 132.767 378.104 132.766L378.103 132.767Z" fill="url(#paint16_linear_29_1414)"/>
<path d="M393.919 144.866V169.652C393.919 172.815 396.233 175.641 399.382 175.941C400.224 176.024 401.074 175.929 401.876 175.664C402.679 175.399 403.418 174.969 404.045 174.401C404.671 173.833 405.172 173.14 405.515 172.367C405.858 171.594 406.035 170.758 406.035 169.912V144.866C406.046 144.064 405.897 143.267 405.597 142.523C405.298 141.779 404.853 141.101 404.29 140.53C403.726 139.959 403.055 139.505 402.315 139.196C401.574 138.886 400.78 138.727 399.978 138.727C399.175 138.727 398.381 138.886 397.641 139.196C396.9 139.505 396.229 139.959 395.665 140.53C395.102 141.101 394.657 141.779 394.358 142.523C394.058 143.267 393.908 144.064 393.919 144.866Z" fill="url(#paint17_linear_29_1414)"/>
<path d="M415.793 155.479V169.653C415.793 172.815 418.107 175.641 421.256 175.941C422.098 176.024 422.947 175.929 423.75 175.664C424.553 175.399 425.292 174.969 425.918 174.401C426.545 173.833 427.046 173.14 427.389 172.367C427.731 171.594 427.909 170.758 427.909 169.912V155.479C427.919 154.677 427.771 153.88 427.471 153.136C427.172 152.392 426.727 151.714 426.164 151.143C425.6 150.572 424.929 150.118 424.188 149.809C423.448 149.499 422.654 149.34 421.851 149.34C421.049 149.34 420.255 149.499 419.514 149.809C418.774 150.118 418.103 150.572 417.539 151.143C416.976 151.714 416.531 152.392 416.231 153.136C415.932 153.88 415.783 154.677 415.794 155.479H415.793Z" fill="url(#paint18_linear_29_1414)"/>
<path d="M437.666 137.682V169.652C437.666 172.815 439.979 175.64 443.129 175.941C443.97 176.024 444.82 175.929 445.623 175.664C446.426 175.399 447.164 174.969 447.791 174.401C448.418 173.833 448.918 173.14 449.261 172.367C449.604 171.594 449.781 170.758 449.781 169.912V137.682C449.76 136.089 449.112 134.569 447.979 133.45C446.845 132.332 445.317 131.705 443.724 131.705C442.131 131.705 440.603 132.332 439.469 133.45C438.335 134.569 437.688 136.089 437.666 137.682Z" fill="url(#paint19_linear_29_1414)"/>
<path d="M459.54 147.402V169.652C459.54 172.815 461.853 175.64 465.002 175.941C465.844 176.024 466.694 175.929 467.497 175.664C468.3 175.399 469.038 174.969 469.665 174.401C470.291 173.833 470.792 173.14 471.135 172.367C471.478 171.594 471.655 170.758 471.655 169.912V147.402C471.666 146.6 471.517 145.804 471.218 145.059C470.918 144.315 470.473 143.638 469.91 143.066C469.346 142.495 468.675 142.042 467.935 141.732C467.194 141.423 466.4 141.263 465.598 141.263C464.795 141.263 464.001 141.423 463.261 141.732C462.52 142.042 461.849 142.495 461.285 143.066C460.722 143.638 460.277 144.315 459.978 145.059C459.678 145.804 459.529 146.6 459.54 147.402Z" fill="url(#paint20_linear_29_1414)"/>
<path d="M583.181 200.637V287.559C583.181 289.216 582.523 290.804 581.352 291.976C580.181 293.147 578.592 293.805 576.936 293.805H511.073C509.417 293.805 507.828 293.147 506.657 291.976C505.486 290.804 504.828 289.216 504.828 287.559V200.637C504.828 198.981 505.486 197.392 506.657 196.221C507.828 195.05 509.417 194.392 511.073 194.392H576.936C578.592 194.392 580.181 195.05 581.352 196.221C582.523 197.392 583.181 198.981 583.181 200.637Z" fill="url(#paint21_linear_29_1414)"/>
<path d="M544.01 205.354H544.005V214.067H544.01C551.459 214.067 557.505 220.113 557.505 227.561C557.505 235.021 551.46 241.067 544.01 241.067H544.005V249.78H544.01C556.263 249.78 566.218 239.839 566.218 227.561C566.218 215.308 556.263 205.354 544.01 205.354Z" fill="url(#paint22_linear_29_1414)"/>
<path opacity="0.24" d="M530.504 227.561C530.504 220.116 536.547 214.07 544.005 214.067V205.354C531.731 205.357 521.792 215.309 521.792 227.561C521.792 239.835 531.731 249.777 544.005 249.78V241.067C536.547 241.064 530.504 235.019 530.504 227.561Z" fill="url(#paint23_linear_29_1414)"/>
<path d="M573.783 265.445C573.783 266.31 573.439 267.14 572.827 267.751C572.216 268.363 571.386 268.707 570.521 268.707H517.489C516.623 268.707 515.794 268.363 515.182 267.751C514.57 267.14 514.226 266.31 514.226 265.445C514.226 264.579 514.57 263.75 515.182 263.138C515.794 262.526 516.623 262.182 517.489 262.182H570.521C571.386 262.182 572.216 262.526 572.827 263.138C573.439 263.75 573.783 264.579 573.783 265.445Z" fill="white"/>
<path d="M573.783 278.712C573.783 279.577 573.439 280.407 572.827 281.019C572.216 281.631 571.386 281.975 570.521 281.975H517.489C516.623 281.975 515.794 281.631 515.182 281.019C514.57 280.407 514.226 279.577 514.226 278.712C514.226 277.847 514.57 277.017 515.182 276.405C515.794 275.794 516.623 275.45 517.489 275.45H570.521C571.386 275.45 572.216 275.794 572.827 276.405C573.439 277.017 573.783 277.847 573.783 278.712Z" fill="white"/>
<path d="M669.006 244H662.732C662.538 244 662.352 243.92 662.214 243.777C662.077 243.634 662 243.44 662 243.237C662 243.035 662.077 242.841 662.214 242.698C662.352 242.555 662.538 242.475 662.732 242.475H669.006C671.003 242.472 672.917 241.645 674.329 240.173C675.74 238.702 676.534 236.708 676.536 234.627V228.763C676.536 228.56 676.613 228.366 676.75 228.223C676.888 228.08 677.074 228 677.268 228C677.462 228 677.648 228.08 677.786 228.223C677.923 228.366 678 228.56 678 228.763V234.627C677.997 237.112 677.049 239.494 675.363 241.251C673.677 243.008 671.391 243.997 669.006 244Z" fill="url(#paint24_linear_29_1414)"/>
<path d="M677.268 210C677.074 210 676.888 209.92 676.75 209.777C676.613 209.634 676.536 209.44 676.536 209.237V203.372C676.534 201.292 675.74 199.297 674.328 197.826C672.916 196.355 671.002 195.528 669.006 195.525H662.732C662.538 195.525 662.352 195.445 662.214 195.302C662.077 195.159 662 194.965 662 194.763C662 194.56 662.077 194.366 662.214 194.223C662.352 194.08 662.538 194 662.732 194H669.006C671.39 194.003 673.676 194.992 675.362 196.749C677.048 198.505 677.997 200.887 678 203.372V209.237C678 209.44 677.923 209.634 677.786 209.777C677.648 209.92 677.462 210 677.268 210Z" fill="url(#paint25_linear_29_1414)"/>
<path d="M609.222 244H602.556C600.022 243.997 597.593 243.008 595.802 241.251C594.011 239.494 593.003 237.112 593 234.627V228.763C593 228.56 593.082 228.366 593.228 228.223C593.374 228.08 593.571 228 593.778 228C593.984 228 594.182 228.08 594.328 228.223C594.473 228.366 594.555 228.56 594.555 228.763V234.627C594.557 236.708 595.401 238.702 596.901 240.173C598.401 241.645 600.435 242.472 602.556 242.475H609.222C609.429 242.475 609.626 242.555 609.772 242.698C609.918 242.841 610 243.035 610 243.237C610 243.44 609.918 243.634 609.772 243.777C609.626 243.92 609.429 244 609.222 244Z" fill="url(#paint26_linear_29_1414)"/>
<path d="M593.778 210C593.571 210 593.374 209.92 593.228 209.777C593.082 209.634 593 209.44 593 209.237V203.372C593.003 200.887 594.011 198.505 595.803 196.749C597.594 194.992 600.023 194.003 602.556 194H609.222C609.429 194 609.626 194.08 609.772 194.223C609.918 194.366 610 194.56 610 194.763C610 194.965 609.918 195.159 609.772 195.302C609.626 195.445 609.429 195.525 609.222 195.525H602.556C600.435 195.528 598.401 196.355 596.901 197.826C595.402 199.297 594.558 201.292 594.555 203.372V209.237C594.555 209.44 594.473 209.634 594.328 209.777C594.182 209.92 593.984 210 593.778 210Z" fill="url(#paint27_linear_29_1414)"/>
<path d="M672 203.477V234.523C672 235.445 671.637 236.329 670.991 236.982C670.345 237.634 669.469 238 668.555 238H602.445C601.531 238 600.655 237.634 600.009 236.982C599.363 236.329 599 235.445 599 234.523V203.477C599 202.555 599.363 201.671 600.009 201.018C600.655 200.366 601.531 200 602.445 200H668.555C669.469 200 670.345 200.366 670.991 201.018C671.637 201.671 672 202.555 672 203.477Z" fill="url(#paint28_linear_29_1414)"/>
<path d="M662.999 214.5C662.999 215.163 662.779 215.798 662.389 216.267C661.999 216.736 661.469 217 660.917 217H635.083C634.809 217 634.539 216.935 634.286 216.81C634.033 216.684 633.804 216.5 633.61 216.268C633.417 216.036 633.263 215.76 633.159 215.457C633.054 215.153 633 214.828 633 214.5C633 214.172 633.054 213.847 633.159 213.543C633.263 213.24 633.417 212.964 633.61 212.732C633.804 212.5 634.033 212.316 634.286 212.19C634.539 212.065 634.809 212 635.083 212H660.917C662.067 212 663 213.12 663 214.5H662.999Z" fill="url(#paint29_linear_29_1414)"/>
<path d="M651.998 223.5C651.998 224.163 651.773 224.799 651.371 225.268C650.97 225.737 650.425 226 649.858 226H635.141C634.86 226 634.581 225.935 634.322 225.81C634.062 225.684 633.826 225.5 633.627 225.268C633.428 225.036 633.271 224.76 633.163 224.457C633.055 224.153 633 223.828 633 223.5C633 223.172 633.055 222.847 633.163 222.543C633.271 222.24 633.428 221.964 633.627 221.732C633.826 221.5 634.062 221.316 634.322 221.19C634.581 221.065 634.86 221 635.141 221H649.859C651.041 221 652 222.12 652 223.5H651.998Z" fill="url(#paint30_linear_29_1414)"/>
<path d="M625 219.507C624.999 221.188 624.499 222.83 623.564 224.227C622.63 225.624 621.302 226.712 619.749 227.355C618.196 227.997 616.488 228.165 614.839 227.836C613.191 227.508 611.677 226.698 610.489 225.51C609.301 224.321 608.492 222.807 608.164 221.159C607.835 219.511 608.003 217.802 608.646 216.25C609.289 214.697 610.377 213.369 611.774 212.435C613.171 211.5 614.814 211.001 616.494 211C617.611 211 618.717 211.22 619.749 211.648C620.782 212.075 621.719 212.702 622.509 213.492C623.299 214.282 623.926 215.22 624.353 216.252C624.78 217.284 625 218.39 625 219.507Z" fill="url(#paint31_linear_29_1414)"/>
<path d="M418.168 375H409.747C409.549 375 409.359 374.922 409.219 374.783C409.079 374.643 409 374.455 409 374.258C409 374.061 409.079 373.872 409.219 373.733C409.359 373.594 409.549 373.516 409.747 373.516H418.166C420.908 373.513 423.536 372.429 425.474 370.504C427.412 368.578 428.503 365.967 428.506 363.244V355.742C428.506 355.545 428.585 355.357 428.725 355.217C428.865 355.078 429.055 355 429.253 355C429.451 355 429.641 355.078 429.781 355.217C429.921 355.357 430 355.545 430 355.742V363.244C430 369.726 424.691 375 418.166 375H418.168Z" fill="url(#paint32_linear_29_1414)"/>
<path d="M429.254 331C429.056 331 428.866 330.922 428.726 330.783C428.586 330.643 428.507 330.455 428.507 330.258V322.755C428.504 320.032 427.414 317.421 425.476 315.496C423.537 313.571 420.909 312.487 418.168 312.484H409.747C409.549 312.484 409.359 312.406 409.219 312.267C409.079 312.128 409 311.939 409 311.742C409 311.545 409.079 311.357 409.219 311.217C409.359 311.078 409.549 311 409.747 311H418.166C424.691 311 430 316.273 430 322.755V330.258C430 330.455 429.921 330.643 429.781 330.783C429.641 330.922 429.451 331 429.253 331H429.254Z" fill="url(#paint33_linear_29_1414)"/>
<path d="M379.288 375H371.271C365.055 375 360 369.726 360 363.244V355.742C360 355.545 360.075 355.357 360.208 355.217C360.342 355.078 360.523 355 360.712 355C360.9 355 361.081 355.078 361.215 355.217C361.348 355.357 361.423 355.545 361.423 355.742V363.244C361.426 365.967 362.465 368.578 364.311 370.504C366.157 372.429 368.66 373.513 371.271 373.516H379.288C379.477 373.516 379.658 373.594 379.792 373.733C379.925 373.872 380 374.061 380 374.258C380 374.455 379.925 374.643 379.792 374.783C379.658 374.922 379.477 375 379.288 375Z" fill="url(#paint34_linear_29_1414)"/>
<path d="M360.712 331C360.523 331 360.342 330.922 360.208 330.783C360.075 330.643 360 330.455 360 330.258V322.755C360 316.273 365.055 311 371.271 311H379.288C379.477 311 379.658 311.078 379.792 311.217C379.925 311.357 380 311.545 380 311.742C380 311.939 379.925 312.128 379.792 312.267C379.658 312.406 379.477 312.484 379.288 312.484H371.271C368.66 312.487 366.157 313.571 364.311 315.496C362.465 317.421 361.426 320.032 361.423 322.755V330.258C361.423 330.455 361.348 330.643 361.215 330.783C361.081 330.922 360.9 331 360.712 331Z" fill="url(#paint35_linear_29_1414)"/>
<path d="M423 322.483V362.515C423 363.104 422.883 363.687 422.656 364.231C422.429 364.776 422.096 365.27 421.676 365.686C421.256 366.103 420.757 366.433 420.209 366.659C419.66 366.884 419.072 367 418.478 367H371.522C370.928 367 370.34 366.884 369.791 366.659C369.243 366.433 368.744 366.103 368.324 365.686C367.904 365.27 367.571 364.776 367.344 364.231C367.117 363.687 367 363.104 367 362.515V322.483C367 321.894 367.117 321.311 367.344 320.768C367.572 320.224 367.905 319.729 368.325 319.313C368.744 318.897 369.243 318.567 369.792 318.341C370.34 318.116 370.928 318 371.522 318H418.476C419.07 318 419.658 318.116 420.207 318.341C420.756 318.567 421.254 318.897 421.674 319.313C422.094 319.729 422.427 320.224 422.654 320.768C422.882 321.311 423 321.894 423 322.483Z" fill="url(#paint36_linear_29_1414)"/>
<path d="M381 335.186V359.813C381 360.128 380.862 360.43 380.615 360.652C380.369 360.875 380.035 361 379.687 361H375.313C374.965 361 374.631 360.875 374.385 360.652C374.138 360.43 374 360.128 374 359.813V335.186C374 334.53 374.588 334 375.313 334H379.689C380.412 334 381 334.53 381 335.186Z" fill="white"/>
<path d="M403 343.172V359.828C403 360.138 402.882 360.436 402.671 360.656C402.46 360.876 402.174 361 401.876 361H398.124C397.826 361 397.54 360.876 397.329 360.656C397.118 360.436 397 360.138 397 359.828V343.172C397 342.525 397.503 342 398.124 342H401.876C402.496 342 403 342.525 403 343.172Z" fill="white"/>
<path d="M391.999 347.131V359.868C391.999 360.168 391.88 360.456 391.669 360.668C391.459 360.88 391.173 361 390.875 361H387.124C386.826 361 386.54 360.88 386.329 360.668C386.118 360.456 386 360.168 386 359.868V347.131C386 346.507 386.504 346 387.125 346H390.876C391.496 346 392 346.507 392 347.131H391.999Z" fill="white"/>
<path d="M415 347.178V359.82C415 360.133 414.882 360.433 414.671 360.654C414.46 360.875 414.174 361 413.876 361H410.124C409.826 361 409.54 360.875 409.329 360.654C409.118 360.433 409 360.133 409 359.82V347.178C409 346.527 409.504 346 410.126 346H413.876C414.497 346 415 346.527 415 347.178Z" fill="white"/>
<path d="M394 331C394 330.448 394.448 330 395 330H415C415.552 330 416 330.448 416 331V331C416 331.552 415.552 332 415 332H395C394.448 332 394 331.552 394 331V331Z" fill="white"/>
<path d="M405 325.5C405 324.672 405.672 324 406.5 324H414.5C415.328 324 416 324.672 416 325.5V325.5C416 326.328 415.328 327 414.5 327H406.5C405.672 327 405 326.328 405 325.5V325.5Z" fill="white"/>
<path d="M572 320.055V370.946C572 372.552 571.365 374.091 570.235 375.226C569.105 376.362 567.573 377 565.975 377H466.025C464.427 377 462.895 376.362 461.765 375.226C460.635 374.091 460 372.552 460 370.946V320.055C460 318.449 460.635 316.909 461.765 315.774C462.895 314.638 464.428 314 466.026 314H565.975C567.573 314 569.105 314.638 570.235 315.774C571.365 316.91 572 318.449 572 320.055Z" fill="url(#paint37_linear_29_1414)"/>
<path d="M475.852 368C475.328 368 474.814 367.866 474.367 367.614C473.919 367.362 473.556 367.001 473.316 366.571C473.076 366.141 472.97 365.659 473.008 365.177C473.045 364.695 473.227 364.231 473.531 363.838C475.418 361.399 492.305 340.008 503.94 340H503.948C510.477 340 515.237 346.131 519.839 352.062C523.427 356.683 527.491 361.917 531.079 361.917H531.108C536.942 361.873 548.494 349.747 554.832 341.152C555.268 340.598 555.921 340.222 556.652 340.104C557.383 339.986 558.136 340.136 558.75 340.521C559.364 340.906 559.791 341.496 559.941 342.166C560.091 342.836 559.952 343.534 559.554 344.112C556.723 347.95 542.053 367.098 531.155 367.181C524.574 367.292 519.817 361.078 515.197 355.127C511.61 350.504 507.542 345.264 503.949 345.264H503.945C497.371 345.269 484.653 358.536 478.179 366.897C477.915 367.239 477.566 367.517 477.161 367.709C476.756 367.901 476.307 368.001 475.852 368Z" fill="url(#paint38_linear_29_1414)"/>
<path d="M502.999 320.072C503 320.072 503 320.072 503 320.073V323.928C503 324.069 502.968 324.209 502.905 324.339C502.843 324.469 502.752 324.587 502.636 324.687C502.521 324.786 502.384 324.865 502.234 324.919C502.083 324.973 501.922 325 501.759 325H469.239C468.911 325 468.595 324.887 468.363 324.686C468.131 324.485 468 324.213 468 323.928V320.072C468 319.48 468.555 319 469.239 319H501.759C502.443 319 502.998 319.479 502.998 320.071C502.998 320.071 502.999 320.072 502.999 320.072V320.072Z" fill="url(#paint39_linear_29_1414)"/>
<path d="M491 328.893V332.107C491 332.224 490.969 332.341 490.908 332.449C490.847 332.557 490.758 332.656 490.646 332.739C490.533 332.822 490.4 332.888 490.253 332.932C490.106 332.977 489.949 333 489.79 333H469.208C468.888 333 468.58 332.906 468.354 332.738C468.127 332.571 468 332.344 468 332.107V328.893C468 328.4 468.541 328 469.208 328H489.79C490.458 328 491 328.4 491 328.893Z" fill="url(#paint40_linear_29_1414)"/>
<path d="M755 84.6724V116.854C755 117.589 754.708 118.293 754.189 118.813C753.669 119.332 752.965 119.624 752.23 119.624H704.296L696.419 127.659C695.583 128.512 694.133 127.92 694.133 126.726V84.6724C694.133 83.9378 694.425 83.2334 694.945 82.714C695.464 82.1946 696.168 81.9028 696.903 81.9028H752.229C752.964 81.9031 753.668 82.195 754.187 82.7144C754.706 83.2337 754.998 83.938 754.998 84.6724H755Z" fill="url(#paint41_linear_29_1414)"/>
<path d="M745.051 92.0251C745.051 92.8933 744.347 93.5966 743.479 93.5966H707.289C707.079 93.6021 706.87 93.5655 706.675 93.489C706.479 93.4124 706.301 93.2975 706.15 93.151C706 93.0045 705.881 92.8293 705.799 92.6359C705.717 92.4424 705.675 92.2345 705.675 92.0245C705.675 91.8145 705.717 91.6067 705.799 91.4132C705.881 91.2197 706 91.0446 706.15 90.8981C706.301 90.7515 706.479 90.6366 706.675 90.5601C706.87 90.4836 707.079 90.447 707.289 90.4525H743.479C744.347 90.4525 745.051 91.1569 745.051 92.0251ZM749.806 99.6079C749.806 100.476 749.1 101.18 748.232 101.18H702.534C702.125 101.17 701.735 100.999 701.449 100.706C701.163 100.412 701.003 100.018 701.003 99.6084C701.003 99.1985 701.163 98.8048 701.449 98.5112C701.735 98.2175 702.125 98.0472 702.534 98.0364H748.233C749.102 98.0364 749.806 98.7397 749.806 99.6079ZM725.873 105.618H702.534C702.125 105.629 701.735 105.799 701.449 106.093C701.163 106.387 701.003 106.78 701.003 107.19C701.003 107.6 701.163 107.994 701.449 108.287C701.735 108.581 702.125 108.751 702.534 108.762H725.873C726.083 108.768 726.292 108.731 726.488 108.655C726.683 108.578 726.861 108.463 727.012 108.317C727.162 108.17 727.282 107.995 727.364 107.802C727.445 107.608 727.487 107.4 727.487 107.19C727.487 106.98 727.445 106.772 727.364 106.579C727.282 106.385 727.162 106.21 727.012 106.064C726.861 105.917 726.683 105.802 726.488 105.726C726.292 105.649 726.083 105.613 725.873 105.618Z" fill="#3768DB"/>
<path d="M477.595 216.902V283.843C477.595 286.735 476.446 289.508 474.402 291.552C472.357 293.597 469.584 294.745 466.693 294.745H394.904C393.472 294.746 392.054 294.464 390.731 293.916C389.408 293.368 388.206 292.565 387.194 291.553C386.181 290.54 385.378 289.339 384.83 288.016C384.282 286.693 384 285.275 384 283.843V216.902C384 214.011 385.149 211.238 387.193 209.193C389.238 207.149 392.011 206 394.902 206H466.693C469.584 206 472.357 207.149 474.402 209.193C476.446 211.238 477.595 214.011 477.595 216.902Z" fill="url(#paint42_linear_29_1414)"/>
<path d="M456.935 250.452V250.62C456.935 250.865 456.935 251.1 456.925 251.335C456.768 257.659 454.177 263.68 449.692 268.143L442.892 261.331C445.643 258.605 447.233 254.922 447.331 251.051V250.62C447.331 242.456 440.805 235.782 432.7 235.548C432.553 235.537 432.406 235.537 432.259 235.537V225.943C432.406 225.943 432.553 225.943 432.698 225.952C446.048 226.189 456.845 237.065 456.935 250.452Z" fill="url(#paint43_linear_29_1414)"/>
<path d="M441.089 232.583C441.002 232.583 440.918 232.559 440.844 232.513C440.771 232.467 440.712 232.402 440.674 232.325C440.636 232.247 440.621 232.161 440.629 232.075C440.638 231.989 440.671 231.907 440.723 231.839L449.684 220.251C449.727 220.195 449.782 220.15 449.845 220.119C449.909 220.088 449.978 220.071 450.049 220.071H463.53C463.591 220.071 463.651 220.083 463.707 220.107C463.763 220.13 463.814 220.164 463.856 220.207C463.899 220.249 463.933 220.3 463.956 220.356C463.98 220.412 463.992 220.472 463.992 220.533C463.992 220.594 463.98 220.654 463.956 220.709C463.933 220.765 463.899 220.816 463.856 220.859C463.814 220.902 463.763 220.936 463.707 220.959C463.651 220.982 463.591 220.994 463.53 220.994H450.277L441.454 232.404C441.411 232.46 441.355 232.505 441.292 232.537C441.229 232.568 441.159 232.584 441.089 232.584V232.583Z" fill="#3D4B9A"/>
<path d="M449.692 268.142C445.243 272.571 439.089 275.296 432.259 275.296V265.692C436.424 265.692 440.178 264.035 442.89 261.331L449.692 268.142Z" fill="url(#paint44_linear_29_1414)"/>
<path d="M421.566 240.006C418.759 242.825 417.183 246.641 417.185 250.62C417.185 258.931 423.948 265.692 432.259 265.692V275.296H432.249C418.645 275.296 407.591 264.231 407.591 250.618C407.591 243.838 410.336 237.684 414.775 233.225C417.061 230.916 419.783 229.083 422.782 227.833C425.781 226.583 428.999 225.941 432.249 225.943H432.259V235.537C430.269 235.538 428.3 235.933 426.464 236.7C424.629 237.467 422.964 238.591 421.566 240.006Z" fill="url(#paint45_linear_29_1414)"/>
<path d="M410.503 278.204H397.024C396.901 278.204 396.784 278.156 396.697 278.069C396.611 277.983 396.562 277.865 396.562 277.743C396.562 277.621 396.611 277.503 396.697 277.417C396.784 277.33 396.901 277.282 397.024 277.282H410.275L419.098 265.872C419.134 265.821 419.18 265.778 419.233 265.745C419.286 265.712 419.345 265.69 419.407 265.681C419.468 265.672 419.531 265.675 419.592 265.69C419.652 265.706 419.708 265.734 419.758 265.772C419.807 265.81 419.848 265.858 419.879 265.912C419.909 265.966 419.928 266.026 419.935 266.088C419.942 266.15 419.936 266.213 419.917 266.273C419.899 266.332 419.869 266.388 419.829 266.435L410.869 278.025C410.825 278.081 410.77 278.126 410.707 278.157C410.643 278.188 410.574 278.204 410.503 278.204ZM450.397 282.626H463.877C463.999 282.626 464.116 282.578 464.203 282.491C464.29 282.404 464.338 282.287 464.338 282.165C464.338 282.042 464.29 281.925 464.203 281.838C464.116 281.752 463.999 281.703 463.877 281.703H450.625L441.802 270.294C441.766 270.243 441.72 270.2 441.667 270.167C441.614 270.134 441.555 270.112 441.494 270.103C441.432 270.093 441.369 270.097 441.309 270.112C441.248 270.128 441.192 270.155 441.142 270.194C441.093 270.232 441.052 270.279 441.022 270.334C440.991 270.388 440.972 270.448 440.965 270.51C440.959 270.572 440.965 270.635 440.983 270.694C441.001 270.754 441.032 270.809 441.072 270.857L450.032 282.447C450.075 282.503 450.13 282.548 450.194 282.579C450.257 282.61 450.326 282.626 450.397 282.626Z" fill="#3D4B9A"/>
<path d="M400.341 214.911V220.597C400.341 220.906 400.219 221.203 400 221.422C399.781 221.641 399.485 221.763 399.175 221.763H393.491C393.182 221.763 392.885 221.641 392.666 221.422C392.447 221.203 392.325 220.906 392.325 220.597V214.911C392.325 214.602 392.447 214.305 392.666 214.086C392.885 213.868 393.182 213.745 393.491 213.745H399.175C399.485 213.745 399.781 213.868 400 214.086C400.219 214.305 400.341 214.602 400.341 214.911Z" fill="url(#paint46_linear_29_1414)"/>
<path d="M412.397 214.911V220.597C412.397 220.906 412.274 221.203 412.055 221.422C411.836 221.641 411.54 221.763 411.23 221.763H405.544C405.235 221.763 404.938 221.641 404.72 221.422C404.501 221.203 404.378 220.906 404.378 220.597V214.911C404.378 214.602 404.501 214.305 404.72 214.086C404.938 213.868 405.235 213.745 405.544 213.745H411.23C411.54 213.745 411.836 213.868 412.055 214.086C412.274 214.305 412.397 214.602 412.397 214.911Z" fill="url(#paint47_linear_29_1414)"/>
<path d="M424.451 214.911V220.597C424.451 220.906 424.329 221.203 424.11 221.422C423.891 221.641 423.594 221.763 423.285 221.763H417.599C417.29 221.763 416.993 221.641 416.774 221.422C416.556 221.203 416.433 220.906 416.433 220.597V214.911C416.433 214.602 416.556 214.305 416.774 214.086C416.993 213.868 417.29 213.745 417.599 213.745H423.285C423.594 213.745 423.891 213.868 424.11 214.086C424.329 214.305 424.451 214.602 424.451 214.911Z" fill="url(#paint48_linear_29_1414)"/>
<rect x="370" y="78" width="80" height="9" rx="4.5" fill="url(#paint49_linear_29_1414)"/>
<rect x="370" y="95" width="55" height="9" rx="4.5" fill="url(#paint50_linear_29_1414)"/>
<path d="M351.866 217.77V249.951C351.866 250.686 351.574 251.39 351.054 251.91C350.535 252.429 349.83 252.721 349.096 252.721H301.164L293.287 260.756C292.45 261.609 291 261.017 291 259.823V217.77C291 217.035 291.292 216.331 291.811 215.811C292.331 215.292 293.035 215 293.77 215H349.096C349.83 215 350.535 215.292 351.054 215.811C351.574 216.331 351.866 217.035 351.866 217.77Z" fill="url(#paint51_linear_29_1414)"/>
<path d="M341.048 223.573C341.048 224.441 340.344 225.145 339.475 225.145H303.286C303.076 225.15 302.867 225.114 302.672 225.037C302.476 224.96 302.298 224.846 302.147 224.699C301.997 224.553 301.877 224.377 301.796 224.184C301.714 223.99 301.672 223.783 301.672 223.573C301.672 223.363 301.714 223.155 301.796 222.961C301.877 222.768 301.997 222.593 302.147 222.446C302.298 222.3 302.476 222.185 302.672 222.108C302.867 222.032 303.076 221.995 303.286 222.001H339.475C340.344 222.001 341.048 222.705 341.048 223.573ZM345.803 231.156C345.803 232.024 345.097 232.729 344.229 232.729H298.531C298.121 232.718 297.732 232.547 297.446 232.254C297.16 231.96 297 231.566 297 231.156C297 230.747 297.16 230.353 297.446 230.059C297.732 229.766 298.121 229.595 298.531 229.584H344.23C345.098 229.584 345.803 230.288 345.803 231.156ZM321.87 237.166H298.531C298.121 237.177 297.732 237.347 297.446 237.641C297.16 237.935 297 238.328 297 238.738C297 239.148 297.16 239.542 297.446 239.835C297.732 240.129 298.121 240.299 298.531 240.31H321.87C322.08 240.316 322.289 240.279 322.485 240.203C322.68 240.126 322.858 240.011 323.009 239.865C323.159 239.718 323.279 239.543 323.36 239.35C323.442 239.156 323.484 238.948 323.484 238.738C323.484 238.528 323.442 238.32 323.36 238.127C323.279 237.933 323.159 237.758 323.009 237.612C322.858 237.465 322.68 237.35 322.485 237.274C322.289 237.197 322.08 237.161 321.87 237.166Z" fill="#305ED3"/>
<defs>
<linearGradient id="paint0_linear_29_1414" x1="490" y1="-49" x2="490" y2="549" gradientUnits="userSpaceOnUse">
<stop offset="0.0239582" stop-color="#528AF8"/>
<stop offset="1" stop-color="#092DA9"/>
</linearGradient>
<linearGradient id="paint1_linear_29_1414" x1="799" y1="461.055" x2="807.43" y2="461.055" gradientUnits="userSpaceOnUse">
<stop stop-color="white"/>
<stop offset="1" stop-color="white" stop-opacity="0.82"/>
</linearGradient>
<linearGradient id="paint2_linear_29_1414" x1="807.43" y1="470.528" x2="832.717" y2="470.528" gradientUnits="userSpaceOnUse">
<stop stop-color="white"/>
<stop offset="1" stop-color="white" stop-opacity="0.82"/>
</linearGradient>
<linearGradient id="paint3_linear_29_1414" x1="807.573" y1="451.543" x2="832.654" y2="451.543" gradientUnits="userSpaceOnUse">
<stop stop-color="white"/>
<stop offset="1" stop-color="white" stop-opacity="0.82"/>
</linearGradient>
<linearGradient id="paint4_linear_29_1414" x1="796.478" y1="331.202" x2="685.672" y2="347.525" gradientUnits="userSpaceOnUse">
<stop stop-color="#A643D3"/>
<stop offset="1" stop-color="#140F1E"/>
</linearGradient>
<linearGradient id="paint5_linear_29_1414" x1="774.659" y1="335" x2="661.667" y2="350.806" gradientUnits="userSpaceOnUse">
<stop stop-color="#A643D3"/>
<stop offset="1" stop-color="#140F1E"/>
</linearGradient>
<linearGradient id="paint6_linear_29_1414" x1="648.049" y1="328.518" x2="697.272" y2="256.178" gradientUnits="userSpaceOnUse">
<stop offset="0.184024" stop-color="#006D5E"/>
<stop offset="1" stop-color="#10F1D3"/>
</linearGradient>
<linearGradient id="paint7_linear_29_1414" x1="648.154" y1="329.068" x2="695.283" y2="257.157" gradientUnits="userSpaceOnUse">
<stop offset="0.184024" stop-color="#006D5E"/>
<stop offset="1" stop-color="#10F1D3"/>
</linearGradient>
<linearGradient id="paint8_linear_29_1414" x1="638.679" y1="322.228" x2="717.592" y2="295.533" gradientUnits="userSpaceOnUse">
<stop stop-color="#5D87F6"/>
<stop offset="1" stop-color="#2753C9"/>
</linearGradient>
<linearGradient id="paint9_linear_29_1414" x1="655.504" y1="334.003" x2="672.759" y2="271.251" gradientUnits="userSpaceOnUse">
<stop offset="0.184024" stop-color="#006D5E"/>
<stop offset="1" stop-color="#10F1D3"/>
</linearGradient>
<linearGradient id="paint10_linear_29_1414" x1="655.793" y1="335.496" x2="667.168" y2="280.246" gradientUnits="userSpaceOnUse">
<stop offset="0.184024" stop-color="#006D5E"/>
<stop offset="1" stop-color="#10F1D3"/>
</linearGradient>
<linearGradient id="paint11_linear_29_1414" x1="646" y1="333" x2="730.5" y2="287" gradientUnits="userSpaceOnUse">
<stop stop-color="#5D87F6"/>
<stop offset="1" stop-color="#2753C9"/>
</linearGradient>
<linearGradient id="paint12_linear_29_1414" x1="339.374" y1="370.064" x2="349.502" y2="328.861" gradientUnits="userSpaceOnUse">
<stop stop-color="#13AA76"/>
<stop offset="1" stop-color="#29E3A2"/>
</linearGradient>
<linearGradient id="paint13_linear_29_1414" x1="484.643" y1="131.641" x2="484.643" y2="178.349" gradientUnits="userSpaceOnUse">
<stop stop-color="#D0D5FF"/>
<stop offset="1" stop-color="#7896FF"/>
</linearGradient>
<linearGradient id="paint14_linear_29_1414" x1="497.373" y1="155.378" x2="631.594" y2="155.378" gradientUnits="userSpaceOnUse">
<stop stop-color="#F3F5FF"/>
<stop offset="1" stop-color="#E1EAFF"/>
</linearGradient>
<linearGradient id="paint15_linear_29_1414" x1="421.85" y1="67.2591" x2="422" y2="199.5" gradientUnits="userSpaceOnUse">
<stop offset="0.237235" stop-color="#F8F9FF"/>
<stop offset="1" stop-color="#AAC7FF"/>
</linearGradient>
<linearGradient id="paint16_linear_29_1414" x1="378.121" y1="138.911" x2="378.121" y2="174.049" gradientUnits="userSpaceOnUse">
<stop stop-color="#ECF0FF"/>
<stop offset="1" stop-color="#7894FF"/>
</linearGradient>
<linearGradient id="paint17_linear_29_1414" x1="399.996" y1="144.014" x2="399.996" y2="174.247" gradientUnits="userSpaceOnUse">
<stop stop-color="#ECF0FF"/>
<stop offset="1" stop-color="#7894FF"/>
</linearGradient>
<linearGradient id="paint18_linear_29_1414" x1="421.869" y1="153.12" x2="421.869" y2="174.738" gradientUnits="userSpaceOnUse">
<stop stop-color="#ECF0FF"/>
<stop offset="1" stop-color="#7894FF"/>
</linearGradient>
<linearGradient id="paint19_linear_29_1414" x1="443.742" y1="137.988" x2="443.742" y2="173.922" gradientUnits="userSpaceOnUse">
<stop stop-color="#ECF0FF"/>
<stop offset="1" stop-color="#7894FF"/>
</linearGradient>
<linearGradient id="paint20_linear_29_1414" x1="465.616" y1="146.19" x2="465.616" y2="174.365" gradientUnits="userSpaceOnUse">
<stop stop-color="#ECF0FF"/>
<stop offset="1" stop-color="#7894FF"/>
</linearGradient>
<linearGradient id="paint21_linear_29_1414" x1="544.004" y1="194.392" x2="544.004" y2="293.805" gradientUnits="userSpaceOnUse">
<stop stop-color="#F8F9FF"/>
<stop offset="1" stop-color="#AAC7FF"/>
</linearGradient>
<linearGradient id="paint22_linear_29_1414" x1="557.226" y1="248.682" x2="566.569" y2="248.064" gradientUnits="userSpaceOnUse">
<stop stop-color="#F07C58"/>
<stop offset="1" stop-color="#FFA183"/>
</linearGradient>
<linearGradient id="paint23_linear_29_1414" x1="535.012" y1="248.682" x2="544.356" y2="248.064" gradientUnits="userSpaceOnUse">
<stop stop-color="#F07C58"/>
<stop offset="1" stop-color="#FFA183"/>
</linearGradient>
<linearGradient id="paint24_linear_29_1414" x1="662" y1="236.002" x2="678" y2="236.002" gradientUnits="userSpaceOnUse">
<stop stop-color="#E7ECFF"/>
<stop offset="1" stop-color="#C2D5FF"/>
</linearGradient>
<linearGradient id="paint25_linear_29_1414" x1="662" y1="202.001" x2="678" y2="202.001" gradientUnits="userSpaceOnUse">
<stop stop-color="#E7ECFF"/>
<stop offset="1" stop-color="#C2D5FF"/>
</linearGradient>
<linearGradient id="paint26_linear_29_1414" x1="609.998" y1="236" x2="592.998" y2="236" gradientUnits="userSpaceOnUse">
<stop stop-color="#E7ECFF"/>
<stop offset="1" stop-color="#C2D5FF"/>
</linearGradient>
<linearGradient id="paint27_linear_29_1414" x1="610" y1="202.001" x2="593" y2="202.001" gradientUnits="userSpaceOnUse">
<stop stop-color="#E7ECFF"/>
<stop offset="1" stop-color="#C2D5FF"/>
</linearGradient>
<linearGradient id="paint28_linear_29_1414" x1="635.5" y1="200" x2="635.5" y2="238" gradientUnits="userSpaceOnUse">
<stop stop-color="#F8F9FF"/>
<stop offset="1" stop-color="#AAC7FF"/>
</linearGradient>
<linearGradient id="paint29_linear_29_1414" x1="634.765" y1="216.412" x2="637.073" y2="206.891" gradientUnits="userSpaceOnUse">
<stop stop-color="#10AA95"/>
<stop offset="1" stop-color="#10F1D3"/>
</linearGradient>
<linearGradient id="paint30_linear_29_1414" x1="634.118" y1="225.412" x2="637.483" y2="216.62" gradientUnits="userSpaceOnUse">
<stop stop-color="#10AA95"/>
<stop offset="1" stop-color="#10F1D3"/>
</linearGradient>
<linearGradient id="paint31_linear_29_1414" x1="609" y1="226" x2="625" y2="215" gradientUnits="userSpaceOnUse">
<stop stop-color="#10AA95"/>
<stop offset="1" stop-color="#10F1D3"/>
</linearGradient>
<linearGradient id="paint32_linear_29_1414" x1="409" y1="365.001" x2="430" y2="365.001" gradientUnits="userSpaceOnUse">
<stop stop-color="#E7ECFF"/>
<stop offset="1" stop-color="#C2D5FF"/>
</linearGradient>
<linearGradient id="paint33_linear_29_1414" x1="409" y1="320.999" x2="430" y2="320.999" gradientUnits="userSpaceOnUse">
<stop stop-color="#E7ECFF"/>
<stop offset="1" stop-color="#C2D5FF"/>
</linearGradient>
<linearGradient id="paint34_linear_29_1414" x1="379.999" y1="365" x2="359.997" y2="365" gradientUnits="userSpaceOnUse">
<stop stop-color="#E7ECFF"/>
<stop offset="1" stop-color="#C2D5FF"/>
</linearGradient>
<linearGradient id="paint35_linear_29_1414" x1="380" y1="321.001" x2="359.999" y2="321.001" gradientUnits="userSpaceOnUse">
<stop stop-color="#E7ECFF"/>
<stop offset="1" stop-color="#C2D5FF"/>
</linearGradient>
<linearGradient id="paint36_linear_29_1414" x1="395" y1="318" x2="395" y2="367" gradientUnits="userSpaceOnUse">
<stop stop-color="#F8F9FF"/>
<stop offset="1" stop-color="#AAC7FF"/>
</linearGradient>
<linearGradient id="paint37_linear_29_1414" x1="516" y1="314" x2="516" y2="377" gradientUnits="userSpaceOnUse">
<stop stop-color="#F8F9FF"/>
<stop offset="1" stop-color="#AAC7FF"/>
</linearGradient>
<linearGradient id="paint38_linear_29_1414" x1="567.457" y1="354" x2="468.101" y2="354.441" gradientUnits="userSpaceOnUse">
<stop stop-color="#ECF0FF"/>
<stop offset="1" stop-color="#7894FF"/>
</linearGradient>
<linearGradient id="paint39_linear_29_1414" x1="506" y1="322" x2="466.031" y2="322.333" gradientUnits="userSpaceOnUse">
<stop stop-color="#ECF0FF"/>
<stop offset="1" stop-color="#7894FF"/>
</linearGradient>
<linearGradient id="paint40_linear_29_1414" x1="492.725" y1="330.778" x2="466.706" y2="330.778" gradientUnits="userSpaceOnUse">
<stop stop-color="#ECF0FF"/>
<stop offset="1" stop-color="#7894FF"/>
</linearGradient>
<linearGradient id="paint41_linear_29_1414" x1="724.567" y1="81.9028" x2="724.567" y2="128.062" gradientUnits="userSpaceOnUse">
<stop stop-color="#F8F9FF"/>
<stop offset="1" stop-color="#AAC7FF"/>
</linearGradient>
<linearGradient id="paint42_linear_29_1414" x1="430.797" y1="206" x2="430.797" y2="294.745" gradientUnits="userSpaceOnUse">
<stop stop-color="#F8F9FF"/>
<stop offset="1" stop-color="#AAC7FF"/>
</linearGradient>
<linearGradient id="paint43_linear_29_1414" x1="435.5" y1="226" x2="450" y2="268" gradientUnits="userSpaceOnUse">
<stop stop-color="#FFE0C6"/>
<stop offset="1" stop-color="#FF973A"/>
</linearGradient>
<linearGradient id="paint44_linear_29_1414" x1="432" y1="270" x2="451.5" y2="266.5" gradientUnits="userSpaceOnUse">
<stop stop-color="#F83352"/>
<stop offset="1" stop-color="#FFADBA"/>
</linearGradient>
<linearGradient id="paint45_linear_29_1414" x1="441.5" y1="278" x2="424.745" y2="228.881" gradientUnits="userSpaceOnUse">
<stop stop-color="#ECF0FF"/>
<stop offset="1" stop-color="#7894FF"/>
</linearGradient>
<linearGradient id="paint46_linear_29_1414" x1="403.345" y1="222.203" x2="401.868" y2="213.545" gradientUnits="userSpaceOnUse">
<stop stop-color="#ECF0FF"/>
<stop offset="1" stop-color="#7894FF"/>
</linearGradient>
<linearGradient id="paint47_linear_29_1414" x1="404.259" y1="218.723" x2="413.33" y2="217.419" gradientUnits="userSpaceOnUse">
<stop stop-color="#F83352"/>
<stop offset="1" stop-color="#FFADBA"/>
</linearGradient>
<linearGradient id="paint48_linear_29_1414" x1="417.486" y1="213.755" x2="419.219" y2="222.338" gradientUnits="userSpaceOnUse">
<stop stop-color="#FFE0C6"/>
<stop offset="1" stop-color="#FF973A"/>
</linearGradient>
<linearGradient id="paint49_linear_29_1414" x1="456" y1="83" x2="365.5" y2="83" gradientUnits="userSpaceOnUse">
<stop stop-color="#ECF0FF"/>
<stop offset="1" stop-color="#7894FF"/>
</linearGradient>
<linearGradient id="paint50_linear_29_1414" x1="437" y1="104" x2="370" y2="100" gradientUnits="userSpaceOnUse">
<stop stop-color="#ECF0FF"/>
<stop offset="1" stop-color="#7894FF"/>
</linearGradient>
<linearGradient id="paint51_linear_29_1414" x1="321.433" y1="215" x2="321.433" y2="261.159" gradientUnits="userSpaceOnUse">
<stop stop-color="#F8F9FF"/>
<stop offset="1" stop-color="#AAC7FF"/>
</linearGradient>
<clipPath id="clip0_29_1414">
<rect width="160.567" height="38" fill="white" transform="translate(799 442)"/>
</clipPath>
</defs>
</svg>
