<svg width="980" height="500" viewBox="0 0 980 500" fill="none" xmlns="http://www.w3.org/2000/svg">
<rect width="980" height="500" fill="url(#paint0_linear_29_1476)"/>
<g clip-path="url(#clip0_29_1476)">
<path d="M848.688 467.15C847.638 467.181 846.599 466.917 845.691 466.387C844.86 465.875 844.194 465.133 843.775 464.251C843.312 463.258 843.084 462.171 843.107 461.076C843.084 459.979 843.312 458.892 843.775 457.898C844.194 457.015 844.86 456.273 845.691 455.762C846.599 455.232 847.638 454.967 848.688 454.998C849.89 454.954 851.072 455.308 852.051 456.005C852.958 456.686 853.624 457.638 853.952 458.723L851.983 459.267C851.794 458.566 851.388 457.942 850.824 457.485C850.206 457.035 849.452 456.811 848.688 456.852C847.998 456.826 847.316 457.009 846.731 457.378C846.199 457.743 845.79 458.261 845.558 458.863C845.282 459.575 845.146 460.333 845.157 461.097C845.14 461.859 845.274 462.617 845.549 463.327C845.785 463.932 846.199 464.45 846.737 464.813C847.323 465.181 848.006 465.364 848.697 465.338C849.459 465.372 850.208 465.143 850.821 464.691C851.384 464.233 851.79 463.609 851.98 462.909L853.952 463.425C853.627 464.509 852.965 465.461 852.063 466.143C851.08 466.843 849.894 467.197 848.688 467.15Z" fill="white"/>
<path d="M856.094 466.91V455.239H860.915C861.03 455.239 861.176 455.239 861.354 455.239C861.519 455.247 861.684 455.264 861.847 455.292C862.455 455.368 863.032 455.6 863.523 455.967C863.959 456.308 864.298 456.759 864.503 457.274C864.72 457.833 864.828 458.429 864.821 459.029C864.844 459.901 864.592 460.759 864.102 461.48C863.84 461.832 863.508 462.126 863.127 462.344C862.746 462.562 862.325 462.7 861.889 462.748L861.054 462.819H858.048V466.91H856.094ZM858.048 461.01H860.834C860.944 461.01 861.063 461.01 861.2 460.993C861.325 460.984 861.45 460.962 861.571 460.927C861.864 460.866 862.132 460.717 862.337 460.5C862.521 460.3 862.658 460.061 862.735 459.802C862.81 459.555 862.849 459.299 862.851 459.041C862.85 458.781 862.811 458.523 862.735 458.275C862.658 458.014 862.522 457.774 862.337 457.574C862.13 457.358 861.863 457.21 861.571 457.149C861.449 457.117 861.325 457.098 861.2 457.09C861.063 457.09 860.944 457.09 860.834 457.09H858.048V461.01ZM862.801 466.91L860.502 462.157L862.486 461.72L865.014 466.907L862.801 466.91Z" fill="white"/>
<path d="M867.164 466.91V455.239H874.7V457.072H869.116V459.947H873.726V461.78H869.116V465.077H874.7V466.91H867.164Z" fill="white"/>
<path d="M876.206 466.91L879.883 455.239H882.744L886.424 466.91H884.413L881.074 456.439H881.514L878.217 466.91H876.206ZM878.255 464.379V462.558H884.38V464.379H878.255Z" fill="white"/>
<path d="M890.087 466.91V457.072H886.311V455.239H895.816V457.072H892.038V466.91H890.087Z" fill="white"/>
<path d="M897.646 466.91V455.239H899.598V466.91H897.646Z" fill="white"/>
<path d="M905.042 466.91L901.35 455.239H903.358L906.438 465.012L909.557 455.239H911.577L907.888 466.91H905.042Z" fill="white"/>
<path d="M913.154 466.91V455.239H920.69V457.072H915.109V459.947H919.719V461.78H915.109V465.077H920.69V466.91H913.154Z" fill="white"/>
<path d="M923.162 466.91V455.239H925.113V466.91H923.162Z" fill="white"/>
<path d="M930.73 466.91V457.072H926.955V455.239H936.46V457.072H932.682V466.91H930.73Z" fill="white"/>
<path d="M938.126 466.91V455.239H945.662V457.072H940.093V459.947H944.703V461.78H940.093V465.077H945.674V466.91H938.126Z" fill="white"/>
<path d="M947.982 466.91V455.239H949.741L953.774 463.506L957.811 455.239H959.567V466.91H957.746V459.43L954.164 466.91H953.385L949.821 459.43V466.91H947.982Z" fill="white"/>
<path d="M815.86 470.789L807.43 465.92V475.654L815.86 470.789Z" fill="white" fill-opacity="0.48"/>
<path d="M832.717 461.055L824.287 456.19V465.921L832.717 461.055Z" fill="white" fill-opacity="0.47"/>
<path d="M815.86 451.321L807.43 446.456V456.189L815.86 451.321Z" fill="white" fill-opacity="0.48"/>
<path d="M807.43 446.456L800.687 450.35C800.174 450.645 799.747 451.07 799.451 451.583C799.155 452.096 798.999 452.677 799 453.27V468.84C799 469.433 799.155 470.015 799.452 470.528C799.748 471.041 800.174 471.467 800.687 471.763L807.43 475.654V446.456Z" fill="url(#paint1_linear_29_1476)"/>
<path d="M832.717 468.84V461.055L807.43 475.654L814.173 479.549C814.685 479.845 815.267 480.001 815.858 480.001C816.45 480.001 817.032 479.845 817.544 479.549L831.033 471.763C831.545 471.467 831.97 471.04 832.266 470.527C832.562 470.014 832.717 469.433 832.717 468.84Z" fill="url(#paint2_linear_29_1476)"/>
<path d="M817.606 442.594C817.098 442.301 816.521 442.146 815.934 442.146C815.347 442.146 814.77 442.301 814.262 442.594L807.573 446.456L832.654 460.939V453.216C832.654 452.629 832.5 452.052 832.206 451.543C831.913 451.034 831.491 450.611 830.982 450.317L817.606 442.594Z" fill="url(#paint3_linear_29_1476)"/>
</g>
<path opacity="0.26" d="M530.424 121.084C517.313 118.407 504.964 126.778 491.945 124.766C484.737 123.651 479.596 118.378 473.909 114.308C468.101 110.152 461.776 106.605 455.21 103.784C447.882 100.635 440.176 98.444 432.301 97.1845C431.184 97.006 430.7 98.7079 431.829 98.8937C446.166 101.252 459.912 106.744 471.729 115.205C477.248 119.157 482.197 124.423 488.909 126.328C494.903 128.03 501.218 126.988 507.181 125.697C514.591 124.092 522.16 121.871 529.777 123.426C531.307 123.738 531.961 121.398 530.424 121.084Z" fill="#FFEBDE"/>
<path opacity="0.16" d="M734.804 257.172C732.691 248.548 717.082 184.869 675.218 174.475C630.903 163.472 590.821 220.528 567.702 205.486C547.774 192.521 569.924 145.169 546.976 130.543C528.676 118.879 502.772 141.458 469.618 123.967C462.335 120.124 463.27 118.363 456.396 114.835C419.623 95.9583 362.158 103.945 341.288 134.668C320.38 165.447 354.112 192.681 336.056 234.876C315.816 282.172 259.554 280.381 252.34 316.294C250.863 323.649 250.775 335.1 255.555 349.022C267.321 383.288 299.942 406.063 336.252 406.063H617.353C694.645 406.063 752.482 334.593 735.336 259.415C735.165 258.668 734.988 257.92 734.804 257.172Z" fill="#FFEBDE"/>
<path opacity="0.26" d="M333.155 204.631C332.982 197.989 331.866 191.496 330.306 185.047C328.387 177.119 325.951 169.274 325.157 161.123C324.78 157.252 324.874 153.356 325.443 149.506C326 145.733 327.32 142.219 328.581 138.641C328.788 138.055 327.967 137.821 327.649 138.249C323.907 143.295 323.06 150.301 323.196 156.418C323.348 163.194 324.528 169.739 326.13 176.311C327.909 183.61 330.047 190.871 330.977 198.343C331.735 204.429 331.646 210.941 330.788 217.015C329.054 229.29 322.902 241.617 314.919 251.023C306.308 261.17 295.119 268.376 283.694 274.974C277.454 278.578 271.012 281.96 265.062 286.035C259.918 289.557 255.102 293.975 253.548 300.22C253.151 301.819 255.572 302.489 256.024 300.901C257.737 294.877 262.654 290.737 267.707 287.412C273.096 283.866 278.768 280.74 284.333 277.483C295.432 270.986 306.877 264.106 315.366 254.275C323.194 245.201 328.59 234.296 331.048 222.578C332.299 216.614 333.315 210.749 333.155 204.631ZM672.98 167.486C664.51 163.95 654.633 165.884 646.154 168.416C637.281 171.066 628.658 174.607 620.422 178.826C612.266 183.005 604.921 188.245 597.236 193.18C593.372 195.662 589.383 197.926 584.953 199.23C580.792 200.455 574.366 201.77 571.548 197.488C570.187 195.419 569.59 192.95 568.867 190.616C568.03 187.914 567.284 185.2 566.896 182.395C566.134 176.89 566.173 171.631 566.297 166.098C566.317 165.189 564.872 164.96 564.681 165.88C562.727 175.25 564.528 186.012 568.261 194.716C569.716 198.11 571.329 201.218 575.284 201.936C579.239 202.655 583.689 201.74 587.371 200.279C596.129 196.805 603.498 190.787 611.563 186.048C620.152 181.003 629.154 176.719 638.524 173.323C649.494 169.347 660.872 166.173 672.455 169.384C673.717 169.735 674.115 167.959 672.98 167.486Z" fill="#FFEBDE"/>
<path d="M630.969 341.277C630.969 341.277 694.52 303.132 748.426 353.026C746.145 354.694 734.18 353.86 726.153 355.021C722.727 355.509 721.035 348.625 719.259 347.977C717.482 347.33 721.298 355.975 719.773 357.124C718.249 358.273 708.747 359.49 700.432 363.998C692.118 368.505 692.487 360.818 687.395 351.747C682.303 342.675 684.619 356.738 688.724 364.597C691.269 369.49 672.701 378.454 665.342 376.961C657.982 375.468 657.023 365.454 657.554 360.589C658.084 355.724 653.927 359.006 654.949 373.319C654.949 373.319 657.279 380.699 652.24 383.723C645.217 387.945 627.784 393.495 623.19 391.918C618.597 390.341 617.233 381.857 619.065 375.064C620.897 368.27 616.318 369.52 614.679 378.782C613.04 388.044 612.378 393.727 603.495 395.627C594.611 397.527 568.346 404.304 565.573 403.296C562.8 402.288 593.458 361.424 630.969 341.277Z" fill="url(#paint4_linear_29_1476)"/>
<path d="M748.426 353.026C694.52 303.132 630.969 341.277 630.969 341.277C595.726 360.202 566.557 397.417 565.452 402.675L565.588 403.284C565.588 403.284 604.055 363.521 655.096 344.231C706.137 324.942 748.426 353.026 748.426 353.026Z" fill="url(#paint5_linear_29_1476)"/>
<path d="M338.688 341.058C338.688 341.058 273.21 306.323 222.017 358.994C224.383 360.539 236.287 359.074 244.364 359.81C247.811 360.116 249.136 353.153 250.876 352.412C252.616 351.671 249.263 360.506 250.846 361.573C252.429 362.639 261.982 363.353 270.523 367.415C279.064 371.478 278.289 363.821 282.895 354.493C287.5 345.166 285.931 359.331 282.248 367.396C279.964 372.416 298.981 380.387 306.251 378.507C313.521 376.628 313.949 366.578 313.162 361.747C312.375 356.917 316.7 359.975 316.436 374.322C316.436 374.322 314.499 381.814 319.691 384.569C326.928 388.413 344.63 393.035 349.134 391.217C353.637 389.4 354.55 380.856 352.362 374.169C350.173 367.482 354.812 368.488 356.939 377.65C359.066 386.813 360.027 392.453 368.998 393.881C377.97 395.31 404.557 400.69 407.272 399.537C409.988 398.384 377.212 359.196 338.688 341.058Z" fill="url(#paint6_linear_29_1476)"/>
<path d="M222.017 358.994C273.209 306.323 338.688 341.058 338.688 341.058C374.883 358.096 405.979 393.719 407.361 398.91L407.256 399.526C407.256 399.526 366.741 361.85 314.751 345.283C262.761 328.715 222.017 358.994 222.017 358.994Z" fill="url(#paint7_linear_29_1476)"/>
<path d="M604.225 389.774L609.599 395.788C610.69 388.483 611.795 381.102 614.483 374.22C622.475 353.771 642.994 340.97 663.526 333.077C684.049 325.177 706.06 320.593 724.971 309.369C730.337 306.19 735.962 301.387 735.591 295.176C735.508 293.891 735.172 292.669 734.636 291.523C724.78 292.212 714.972 293.442 705.286 295.404C690.222 298.453 675.432 303.275 661.845 310.519C650.658 316.489 640.346 324.136 631.553 333.273C622.88 342.273 615.679 352.775 610.953 364.362C608.504 370.364 606.89 376.576 605.619 382.919C605.16 385.203 604.725 387.489 604.225 389.774Z" fill="url(#paint8_linear_29_1476)"/>
<path d="M596.299 380.893L603.576 389.046L604.225 389.774C604.725 387.489 605.16 385.203 605.619 382.92C606.89 376.575 608.504 370.364 610.953 364.362C615.68 352.775 622.88 342.273 631.553 333.273C640.346 324.136 650.658 316.49 661.845 310.52C675.432 303.276 690.223 298.453 705.286 295.404C714.972 293.442 724.78 292.213 734.636 291.523C734.52 291.26 734.389 291.003 734.245 290.754C733.05 288.557 731.167 286.657 729.137 285.143C719.105 277.64 705.43 277.229 693.026 279.093C654.269 284.913 619.191 311.136 602.693 346.606C597.718 357.315 594.309 369.257 596.299 380.893Z" fill="url(#paint9_linear_29_1476)"/>
<path opacity="0.64" d="M603.576 389.046L604.225 389.774C604.725 387.489 605.16 385.203 605.619 382.92C606.89 376.576 608.504 370.364 610.953 364.362C615.68 352.775 622.88 342.274 631.553 333.273C640.346 324.137 650.658 316.49 661.845 310.52C675.432 303.276 690.223 298.453 705.286 295.404C714.972 293.443 724.78 292.213 734.636 291.523C734.52 291.26 734.389 291.003 734.245 290.754C722.596 291.59 711.001 293.184 699.627 295.833C684.957 299.245 670.589 304.447 657.54 312.018C646.596 318.364 636.567 326.353 628.144 335.794C619.82 345.111 613.072 355.888 608.847 367.656C606.604 373.922 605.334 380.396 604.021 386.896C603.879 387.614 603.727 388.326 603.576 389.046Z" fill="#B55BE1"/>
<path d="M775.391 330.956C776.956 328.516 775.678 324.913 772.536 322.908C769.394 320.903 765.579 321.256 764.014 323.695C762.449 326.134 763.728 329.737 766.87 331.743C770.011 333.748 773.827 333.395 775.391 330.956Z" fill="#10AA95"/>
<path d="M750.135 320.381C751.612 320.381 752.808 319.376 752.808 318.137C752.808 316.897 751.612 315.893 750.135 315.893C748.659 315.893 747.462 316.897 747.462 318.137C747.462 319.376 748.659 320.381 750.135 320.381Z" fill="#10AA95"/>
<path d="M375.774 389.774L370.401 395.788C369.31 388.483 368.205 381.102 365.517 374.22C357.525 353.771 337.006 340.97 316.474 333.077C295.951 325.177 273.94 320.593 255.029 309.369C249.663 306.19 244.038 301.387 244.408 295.176C244.492 293.891 244.827 292.669 245.364 291.523C255.22 292.212 265.027 293.442 274.714 295.404C289.777 298.453 304.568 303.275 318.155 310.519C329.342 316.489 339.653 324.136 348.447 333.273C357.12 342.273 364.32 352.775 369.047 364.362C371.496 370.364 373.11 376.576 374.381 382.919C374.84 385.203 375.275 387.489 375.774 389.774Z" fill="#13AA76"/>
<path d="M375.774 389.774L370.401 395.788C369.31 388.483 368.205 381.102 365.517 374.22C357.525 353.771 337.006 340.97 316.474 333.077C295.951 325.177 273.94 320.593 255.029 309.369C249.663 306.19 244.038 301.387 244.408 295.176C244.492 293.891 244.827 292.669 245.364 291.523C255.22 292.212 265.027 293.442 274.714 295.404C289.777 298.453 304.568 303.275 318.155 310.519C329.342 316.489 339.653 324.136 348.447 333.273C357.12 342.273 364.32 352.775 369.047 364.362C371.496 370.364 373.11 376.576 374.381 382.919C374.84 385.203 375.275 387.489 375.774 389.774Z" fill="url(#paint10_linear_29_1476)"/>
<path d="M383.7 380.893L376.424 389.046L375.775 389.774C375.275 387.489 374.84 385.203 374.381 382.92C373.11 376.575 371.496 370.364 369.047 364.362C364.32 352.775 357.119 342.273 348.447 333.273C339.653 324.136 329.342 316.49 318.155 310.52C304.568 303.276 289.777 298.453 274.714 295.404C265.028 293.442 255.22 292.213 245.364 291.523C245.48 291.26 245.611 291.002 245.755 290.754C246.95 288.557 248.833 286.657 250.863 285.143C260.895 277.64 274.57 277.229 286.974 279.093C325.731 284.913 360.809 311.136 377.307 346.606C382.282 357.315 385.691 369.257 383.7 380.893Z" fill="#13AA76"/>
<path d="M383.7 380.893L376.424 389.046L375.775 389.774C375.275 387.489 374.84 385.203 374.381 382.92C373.11 376.575 371.496 370.364 369.047 364.362C364.32 352.775 357.119 342.273 348.447 333.273C339.653 324.136 329.342 316.49 318.155 310.52C304.568 303.276 289.777 298.453 274.714 295.404C265.028 293.442 255.22 292.213 245.364 291.523C245.48 291.26 245.611 291.002 245.755 290.754C246.95 288.557 248.833 286.657 250.863 285.143C260.895 277.64 274.57 277.229 286.974 279.093C325.731 284.913 360.809 311.136 377.307 346.606C382.282 357.315 385.691 369.257 383.7 380.893Z" fill="url(#paint11_linear_29_1476)"/>
<path opacity="0.64" d="M376.424 389.046L375.774 389.774C375.275 387.489 374.84 385.203 374.381 382.92C373.11 376.576 371.496 370.364 369.047 364.362C364.32 352.775 357.119 342.274 348.447 333.273C339.653 324.137 329.342 316.49 318.155 310.52C304.568 303.276 289.777 298.453 274.714 295.404C265.028 293.443 255.22 292.213 245.364 291.523C245.48 291.261 245.611 291.002 245.755 290.754C257.404 291.59 268.999 293.184 280.373 295.833C295.043 299.245 309.411 304.447 322.46 312.018C333.404 318.364 343.433 326.353 351.856 335.794C360.18 345.111 366.928 355.888 371.153 367.656C373.396 373.922 374.666 380.396 375.979 386.896C376.121 387.614 376.273 388.326 376.424 389.046Z" fill="#B55BE1"/>
<path d="M225.054 339.038C228.195 337.033 229.474 333.43 227.909 330.991C226.345 328.551 222.529 328.199 219.388 330.204C216.246 332.209 214.967 335.812 216.532 338.252C218.097 340.691 221.912 341.043 225.054 339.038Z" fill="#F03D5A"/>
<path d="M241.801 327.702C243.277 327.702 244.474 326.698 244.474 325.458C244.474 324.219 243.277 323.214 241.801 323.214C240.325 323.214 239.128 324.219 239.128 325.458C239.128 326.698 240.325 327.702 241.801 327.702Z" fill="#F03D5A"/>
<path d="M563.662 157.706C563.636 157.706 563.636 157.746 563.662 157.746C563.688 157.747 563.688 157.706 563.662 157.706Z" fill="#30334D"/>
<path d="M411.904 241.326C390.753 254.865 353.985 328.401 342.66 378.475L397.66 381.423L431.478 327.977L411.904 241.326Z" fill="url(#paint12_linear_29_1476)"/>
<path d="M586.804 408.904L573.922 408.862L568.762 408.849L512.694 408.676L507.514 408.662L497.72 408.628L492.56 408.614L480.806 408.579L475.646 408.566L465.998 408.538L460.859 408.524L404.521 408.345H404.514L399.354 408.331L393.307 408.317H393.3L387.067 408.296C390.599 400.393 392.961 391.798 394.526 382.802C394.617 382.291 394.699 381.78 394.783 381.269C394.817 381.041 394.859 380.813 394.894 380.585V380.578C395.642 375.893 396.175 371.105 396.556 366.249V366.242C396.653 365.026 396.736 363.81 396.812 362.587C397.775 347.366 397.359 331.607 397.082 316.456C397.069 316.122 397.062 315.788 397.061 315.454C397.055 315.357 397.055 315.267 397.055 315.171C397.055 314.964 397.047 314.763 397.047 314.563C397.047 314.487 397.047 314.404 397.04 314.328V314.106C397.013 312.835 396.999 311.571 396.978 310.314C396.978 310.189 396.978 310.058 396.971 309.933C396.971 309.692 396.964 309.443 396.964 309.201C396.957 308.89 396.957 308.586 396.957 308.275C396.95 308.185 396.95 308.095 396.95 308.006C396.943 307.605 396.943 307.211 396.936 306.817C396.742 286.919 397.414 268.576 402.629 254.544C404.333 249.964 406.992 245.956 410.303 242.447C421.538 230.508 440.183 224.345 453.71 221.278C454.652 221.071 455.559 220.87 456.446 220.691C459.046 220.151 461.661 219.682 464.286 219.281C464.937 219.177 465.54 219.095 466.101 219.012C466.613 218.942 467.084 218.881 467.507 218.825C467.833 218.784 468.124 218.749 468.394 218.714C469.613 218.569 470.284 218.507 470.284 218.507H508.794C508.794 218.507 509.369 218.494 510.415 218.507H510.518C510.962 218.514 511.488 218.528 512.091 218.549C512.416 218.562 512.763 218.583 513.13 218.597C516.219 218.742 520.762 219.095 526.082 219.951C526.885 220.082 527.702 220.221 528.534 220.373C542.871 222.978 561.752 229.202 573.527 244.05C574.133 244.809 574.716 245.588 575.272 246.385C575.943 247.35 576.551 248.356 577.094 249.397C583.95 262.552 582.946 284.612 580.792 308.71L580.688 309.83C580.681 309.885 580.681 309.94 580.675 309.995C580.564 311.26 580.439 312.531 580.321 313.809C580.308 313.94 580.294 314.072 580.287 314.203C580.273 314.314 580.266 314.424 580.252 314.534C580.245 314.59 580.245 314.638 580.238 314.693C580.204 315.032 580.176 315.37 580.141 315.709C578.548 332.567 576.72 350.081 576.858 366.013C576.865 366.987 576.886 367.961 576.907 368.922C576.754 368.701 576.595 368.48 576.436 368.259L575.307 374.228C575.969 375.149 576.641 376.063 577.323 376.971C577.323 377.068 577.329 377.164 577.343 377.261C577.572 380.101 577.897 382.871 578.327 385.538V385.552C579.684 394.098 582.122 401.705 586.112 407.874C586.341 408.219 586.569 408.565 586.804 408.904Z" fill="url(#paint13_linear_29_1476)"/>
<path d="M635.454 383.693C634.72 390.388 632.642 396.191 628.909 400.703C628.555 401.133 628.185 401.55 627.801 401.953C614.038 416.441 594.936 400.102 578.41 378.408C580.148 380.176 581.922 381.517 583.639 381.42C584.616 381.372 585.516 381.324 586.341 381.275C583.113 377.378 579.948 373.205 576.907 368.922C576.755 368.701 576.596 368.48 576.436 368.259L575.307 374.228C559.204 352.05 546.148 326.155 543.946 321.72C543.731 321.285 543.62 321.057 543.62 321.057L544.16 319.565L544.679 318.142L546.043 314.369L546.501 313.105L547.727 309.713L548.745 306.908L571.685 243.594C572.162 244.043 572.654 244.533 573.167 245.059C574.379 246.309 575.695 247.76 577.094 249.398C598.725 274.801 639.776 344.616 635.454 383.693Z" fill="url(#paint14_linear_29_1476)"/>
<path d="M545.975 286.111C546.813 286.246 544.991 294.844 546.358 304.979C547.45 313.072 550.224 319.542 552.64 324.038C551.501 324.714 550.635 324.76 550.06 324.681C544.574 323.933 540.973 308.485 542.966 295.592C543.744 290.56 545.359 286.011 545.975 286.111ZM431.09 286.112C430.258 285.947 428.963 294.64 424.143 303.666C420.293 310.872 415.434 315.973 411.599 319.349C412.431 320.377 413.226 320.722 413.792 320.848C419.196 322.052 427.966 308.823 430.6 296.045C431.628 291.057 431.702 286.232 431.09 286.112Z" fill="#EBA12A"/>
<path d="M586.341 381.275C585.516 381.323 584.616 381.371 583.639 381.42C581.922 381.517 580.148 380.176 578.41 378.408C578.41 378.408 578.41 378.401 578.403 378.401L577.323 376.971C576.641 376.063 575.969 375.149 575.307 374.228L576.436 368.259C576.595 368.48 576.754 368.701 576.907 368.922C579.948 373.205 583.113 377.378 586.341 381.275Z" fill="#FFB947"/>
<path d="M512.694 222.01C510.616 233.355 502.658 239.911 493.737 241.867C493.73 241.873 493.723 241.873 493.716 241.873C488.791 242.951 483.562 242.633 478.88 240.941C478.113 240.671 477.361 240.36 476.628 240.008C470.049 236.885 464.903 230.847 463.774 222.01L464.286 219.281L464.612 217.533L465.062 215.184L465.38 213.498L467.264 203.474L469.716 190.43V190.423L473.422 170.718L473.547 170.014H503.676L503.801 170.718L507.27 190.789V190.796L509.771 205.18L511.8 216.877V216.884L511.821 217.001L512.091 218.549L512.694 222.01Z" fill="url(#paint15_linear_29_1476)"/>
<path d="M511.821 217.001C511.344 218.432 510.56 220.116 509.342 220.287C506.596 220.673 505.973 212.762 500.299 209.046C494.511 205.257 489.443 209.744 477.552 207.589C472.954 206.756 469.359 205.296 467.118 204.244L473.299 171.369H503.793L511.821 217.001Z" fill="#FFC7C7"/>
<path d="M445.507 126.361C445.507 126.361 432.725 113.892 431.521 125.993C430.092 140.315 447.186 150.966 447.186 150.966C447.186 150.966 451.355 195.247 488.803 195.247C525.955 195.247 532.173 150.798 532.173 150.798C532.173 150.798 551.712 145.481 547.564 128.649C545.601 120.658 535.414 128.825 535.414 128.825V107.793C535.414 107.793 524.994 113.072 504.892 104.47C490.337 98.2427 485.151 89.5892 472.71 90.0786C458.535 90.6394 444.952 106.16 445.507 126.361Z" fill="url(#paint16_linear_29_1476)"/>
<path d="M434.89 115.751C434.78 119.116 435.05 122.253 435.61 125.182V125.196C435.811 126.322 436.058 127.44 436.352 128.546C439.891 141.646 448.431 149.301 448.777 149.605C448.465 148.907 448.333 147.58 448.313 145.936C448.369 145.998 448.431 146.047 448.479 146.109C448.59 146.198 448.666 146.267 448.715 146.316C448.742 146.343 448.756 146.357 448.777 146.364C448.727 146.26 448.688 146.151 448.659 146.039C448.631 145.95 448.604 145.86 448.576 145.756C448.569 145.701 448.556 145.646 448.548 145.584C448.514 145.473 448.5 145.362 448.479 145.252C448.479 145.231 448.472 145.218 448.472 145.197C448.451 145.031 448.431 144.866 448.41 144.693C448.376 144.353 448.35 144.012 448.333 143.67V143.608C448.521 138.295 449.394 131.434 449.608 129.769C449.608 131.676 453.355 133.307 453.355 133.804C453.355 133.804 453.168 120.615 457.975 113.298C458.279 112.835 458.656 112.422 459.09 112.076C460.69 110.777 462.851 110.5 463.945 111.06C464.001 111.074 464.049 111.101 464.098 111.129C464.908 111.654 465.268 113.375 465.372 115.502V115.509C465.365 115.689 465.358 115.883 465.351 116.062L465.31 116.794C465.178 118.867 464.936 120.815 464.735 121.997C464.707 122.114 464.686 122.218 464.665 122.314C464.648 122.459 464.62 122.602 464.582 122.743C464.562 122.805 464.554 122.874 464.534 122.923C464.525 122.984 464.509 123.045 464.486 123.102C464.624 123.116 464.763 123.123 464.901 123.116H465.026C464.839 124.754 464.617 125.99 464.486 126.329C469.251 126.833 475.062 118.763 478.643 114.694C478.594 114.832 478.567 114.957 478.532 115.088L478.408 115.482C478.318 115.786 478.221 116.082 478.124 116.373C477.764 117.451 477.355 118.57 476.891 119.641C476.78 119.904 476.655 120.173 476.544 120.422C476.414 120.703 476.278 120.982 476.136 121.257C476.074 121.382 476.011 121.513 475.942 121.644C475.777 121.953 475.609 122.259 475.436 122.563C475.34 122.735 475.238 122.903 475.131 123.068C474.977 123.315 474.817 123.559 474.653 123.8C474.499 124.022 474.337 124.239 474.169 124.45C474.078 124.588 473.961 124.726 473.864 124.85C473.63 125.114 473.387 125.37 473.136 125.618C473.011 125.742 472.901 125.852 472.776 125.949C472.659 126.06 472.52 126.157 472.402 126.253C473.011 126.281 473.614 126.274 474.196 126.247C474.542 126.226 474.868 126.198 475.208 126.177C474.369 127.545 473.435 128.713 472.402 129.487C482.674 129.908 489.51 122.751 491.276 120.671L491.284 120.664C491.27 120.733 491.263 120.795 491.249 120.865C491.235 120.927 491.228 120.996 491.221 121.058C491.138 121.611 491.069 122.177 490.979 122.737C490.868 123.497 490.757 124.236 490.66 124.872C490.626 125.114 490.598 125.335 490.556 125.542C490.552 125.605 490.543 125.667 490.528 125.729C490.501 125.922 490.473 126.095 490.459 126.247C490.383 126.71 490.342 126.979 490.342 126.979C490.432 126.951 490.515 126.931 490.598 126.91C490.681 126.882 490.764 126.855 490.854 126.834V126.841C490.577 128.706 490.342 130.212 490.342 130.212C498.84 128.16 505.655 113.423 505.655 113.423C506.084 113.99 506.313 114.881 506.417 115.952C506.397 116.229 506.369 116.498 506.348 116.754C506.299 117.249 506.246 117.745 506.189 118.239C506.175 118.336 506.161 118.426 506.154 118.502C506.085 119.082 505.995 119.635 505.912 120.181C505.863 120.443 505.822 120.706 505.774 120.955C505.469 122.723 505.157 124.071 505.095 124.382C505.081 124.423 505.067 124.444 505.067 124.444C505.213 124.43 505.351 124.396 505.49 124.361C505.58 124.341 505.67 124.326 505.76 124.299V124.306C505.413 126.268 505.067 127.684 505.067 127.684C513.947 126.24 523.532 110.771 523.532 110.771C528.734 120.948 529.648 135.512 529.773 142.615V142.732C529.759 143.292 529.745 143.602 529.745 143.602L529.78 143.568C529.807 145.606 529.745 146.836 529.745 146.836C538.742 138.89 540.536 127.76 540.889 124.334C540.959 123.67 540.966 123.29 540.966 123.29L541.437 124.168L543.093 127.284C543.093 127.284 543.321 125.971 543.522 123.975C543.619 123.035 543.702 121.957 543.758 120.783V120.776C543.82 119.512 543.841 118.143 543.792 116.755C543.896 113.646 543.743 110.081 542.885 107.179C542.553 106.053 542.22 105.024 541.867 104.098C541.77 103.842 541.673 103.593 541.576 103.331C541.209 102.391 540.849 101.562 540.489 100.823C540.329 100.491 540.163 100.187 540.011 99.89C539.893 99.6551 539.761 99.4339 539.637 99.2199C539.536 99.0455 539.432 98.8728 539.325 98.7019C538.909 98.0318 538.508 97.465 538.12 96.9884C538.023 96.8641 537.933 96.7535 537.836 96.6361C537.656 96.4221 537.483 96.2077 537.302 96.0352C537.212 95.9387 537.129 95.8485 537.039 95.7657C536.921 95.6283 536.793 95.499 536.658 95.3787C536.61 95.3164 536.547 95.2613 536.499 95.213C536.339 95.061 536.18 94.9158 536.041 94.7778C535.501 94.2598 535.127 93.8728 534.996 93.3753C534.844 92.7881 535.252 92.194 535.876 91.6755C536.575 91.0883 537.552 90.577 538.314 90.2106C538.445 90.1623 538.577 90.1 538.688 90.0517C539.214 89.8237 539.581 89.6926 539.581 89.6926C537.794 88.366 532.711 88.0205 532.711 88.0205C533.999 85.9684 530.418 80.3446 530.037 79.7573C530.889 81.3119 528.977 86.7077 528.402 85.4294C523.035 73.5804 495.918 68.7027 495.073 68.5579C496.528 69.4424 496.472 71.8742 496.472 71.8742C489.623 66.8722 475.756 68.9794 475.756 68.9794C475.88 69.0209 476.005 69.0623 476.123 69.1037C476.206 69.1315 476.275 69.1661 476.359 69.2007C476.393 69.2143 476.442 69.2284 476.47 69.263C476.553 69.284 476.629 69.3254 476.698 69.3736C477.156 69.6224 477.564 69.9526 477.903 70.3478C478.021 70.4789 478.139 70.6036 478.235 70.7416C478.346 70.8868 478.443 71.0247 478.526 71.1631C478.616 71.3015 478.686 71.4326 478.755 71.5501C478.762 71.5501 478.762 71.5637 478.762 71.5637C478.824 71.6812 478.88 71.7986 478.921 71.9024L478.533 71.9233H478.526C478.443 71.8682 478.353 71.8195 478.262 71.7576C478.219 71.7284 478.176 71.7007 478.131 71.6748C478.041 71.6197 477.937 71.571 477.833 71.5159C477.783 71.4878 477.733 71.4625 477.681 71.4399C477.487 71.3502 477.258 71.2532 477.023 71.1704C476.898 71.129 476.78 71.0875 476.656 71.0529C476.528 71.0088 476.399 70.9696 476.268 70.9355C476.136 70.9077 476.011 70.8663 475.88 70.8317C475.441 70.7325 474.997 70.6541 474.55 70.5968C474.384 70.5831 474.232 70.5622 474.079 70.5485C473.906 70.5349 473.747 70.5071 473.573 70.5003C473.421 70.4866 473.262 70.4794 473.082 70.4657C465.934 70.1133 454.416 73.3741 445.862 83.2816C445.516 83.6749 445.179 84.0757 444.85 84.4838C442.544 87.3927 440.48 90.8055 438.838 94.8129C438.125 96.5541 437.508 98.2603 437.003 99.9255C436.878 100.347 436.761 100.754 436.643 101.169C436.417 101.979 436.211 102.795 436.026 103.615C435.943 104.016 435.853 104.416 435.77 104.81C435.539 105.975 435.352 107.148 435.209 108.327C435.154 108.707 435.112 109.094 435.071 109.467C435.029 109.847 435.009 110.22 434.981 110.6C434.877 112.023 434.835 113.405 434.87 114.752L434.89 115.595V115.751ZM473.456 75.6099C473.456 75.7688 466.121 75.2298 458.309 79.0919C456.626 79.935 450.655 82.9745 446.284 89.5243C445.308 90.996 444.581 92.4122 443.888 94.0633C442.967 96.2812 442.15 98.9133 440.993 102.603C439.067 108.8 438.299 113.332 437.987 113.277C437.682 113.229 437.918 109 438.596 105.359C439.019 103.045 442.732 84.3698 457.47 77.6612C465.526 73.9866 473.435 75.4579 473.456 75.6099ZM542.406 117.444C542.399 117.457 542.385 117.464 542.378 117.464C542.357 117.464 542.337 117.409 542.309 117.277C542.294 117.242 542.287 117.205 542.289 117.167C542.261 116.987 542.233 116.738 542.184 116.407C542.177 116.291 542.163 116.176 542.143 116.062C542.101 115.737 542.046 115.35 541.991 114.928C541.963 114.818 541.949 114.707 541.935 114.597C541.907 114.431 541.887 114.279 541.859 114.114C541.829 113.903 541.795 113.694 541.755 113.485C541.755 113.478 541.755 113.471 541.748 113.45C541.707 113.229 541.665 112.994 541.609 112.739C541.514 112.219 541.408 111.7 541.291 111.184C541.229 110.915 541.173 110.645 541.097 110.362C541.097 110.355 541.097 110.355 541.09 110.341C541.028 110.078 540.964 109.815 540.896 109.554C540.888 109.512 540.875 109.491 540.868 109.457C540.677 108.677 540.462 107.903 540.224 107.135C539.039 103.329 537.682 100.455 536.92 98.8723C536.511 98.0224 536.276 97.5321 536.338 97.5112C536.352 97.4975 536.366 97.5112 536.386 97.5248C536.405 97.5361 536.421 97.5501 536.435 97.5663C536.456 97.5868 536.484 97.6009 536.505 97.6423C536.522 97.6525 536.536 97.6667 536.546 97.6837L536.595 97.732C536.684 97.8358 536.795 97.9946 536.927 98.174C537.024 98.2983 537.121 98.4435 537.224 98.5955C537.585 99.1277 538.028 99.8597 538.499 100.716C538.506 100.716 538.506 100.723 538.506 100.723C539.313 102.207 540.005 103.75 540.577 105.338C542.78 111.446 542.614 117.002 542.406 117.444Z" fill="#EB9C83"/>
<path d="M514.121 149.461C514.377 149.461 514.584 149.254 514.584 148.999C514.584 148.743 514.377 148.536 514.121 148.536C513.865 148.536 513.657 148.743 513.657 148.999C513.657 149.254 513.865 149.461 514.121 149.461Z" fill="white"/>
<path d="M434.87 114.749L434.89 115.592V115.751C435.029 119.192 435.576 122.391 436.352 125.306V125.313C439.462 136.83 446.444 144.147 448.314 145.936C448.369 145.998 448.432 146.047 448.48 146.109C448.591 146.198 448.667 146.267 448.716 146.316C448.743 146.344 448.757 146.357 448.778 146.364C448.728 146.26 448.689 146.151 448.66 146.039C448.632 145.95 448.605 145.86 448.577 145.756C448.57 145.701 448.557 145.646 448.549 145.584C448.515 145.473 448.501 145.363 448.48 145.252C448.48 145.231 448.473 145.218 448.473 145.197C448.452 145.032 448.432 144.866 448.411 144.693C448.377 144.353 448.351 144.012 448.334 143.67V143.608C448.099 138.385 449.332 128.56 449.609 126.529C449.609 128.443 453.356 130.067 453.356 130.578C453.356 130.578 453.169 117.389 457.975 110.065C458.278 109.602 458.655 109.192 459.091 108.849H459.098L459.105 108.843C460.705 107.537 462.852 107.26 463.946 107.82H463.953C464.009 107.841 464.05 107.862 464.099 107.903C465.297 108.656 465.512 112.09 465.373 115.503V115.51C465.366 115.69 465.359 115.883 465.353 116.062L465.311 116.795C465.18 118.868 464.937 120.816 464.736 121.997C464.708 122.115 464.688 122.218 464.667 122.315C464.649 122.46 464.621 122.603 464.584 122.743C464.563 122.806 464.556 122.874 464.535 122.923C464.527 122.985 464.51 123.045 464.487 123.103C464.625 123.117 464.764 123.123 464.902 123.117H465.027C470.208 122.965 476.421 113.603 479.711 110.308C479.482 111.565 479.088 113.251 478.534 115.088L478.409 115.482C478.319 115.786 478.222 116.083 478.125 116.373C477.765 117.451 477.357 118.57 476.892 119.641C476.782 119.904 476.657 120.174 476.546 120.422C476.415 120.703 476.279 120.982 476.137 121.258C476.075 121.382 476.013 121.514 475.943 121.645C475.779 121.953 475.61 122.26 475.437 122.564C475.341 122.735 475.24 122.904 475.132 123.068C474.978 123.316 474.819 123.56 474.655 123.801C474.5 124.023 474.339 124.239 474.17 124.45C474.08 124.589 473.962 124.727 473.865 124.851C473.631 125.115 473.389 125.371 473.138 125.618C473.013 125.742 472.902 125.853 472.778 125.95C472.66 126.06 472.521 126.157 472.403 126.254C473.013 126.282 473.615 126.274 474.197 126.247C474.544 126.226 474.87 126.199 475.209 126.178C485.55 125.211 491.728 116.872 491.728 116.872C491.728 117.321 491.527 118.903 491.278 120.672C491.264 120.734 491.257 120.803 491.25 120.865C491.236 120.927 491.229 120.996 491.222 121.058C491.139 121.611 491.07 122.178 490.98 122.737C490.869 123.497 490.758 124.236 490.661 124.872C490.626 125.114 490.599 125.335 490.557 125.542C490.553 125.605 490.544 125.668 490.529 125.729C490.501 125.923 490.474 126.095 490.46 126.247C490.384 126.71 490.343 126.98 490.343 126.98C490.432 126.952 490.515 126.931 490.599 126.91C490.682 126.89 490.765 126.869 490.855 126.841C499.104 124.333 505.656 110.184 505.656 110.184C506.467 111.254 506.577 113.535 506.418 115.953C506.397 116.229 506.37 116.499 506.349 116.754C506.3 117.25 506.247 117.745 506.19 118.24C506.176 118.337 506.162 118.426 506.155 118.502C506.086 119.083 505.996 119.635 505.913 120.181C505.864 120.444 505.823 120.706 505.774 120.955C505.47 122.724 505.158 124.071 505.096 124.382C505.082 124.423 505.068 124.444 505.068 124.444C505.214 124.431 505.352 124.396 505.491 124.362C505.581 124.348 505.664 124.334 505.761 124.306C514.433 122.22 523.533 107.531 523.533 107.531C529.746 119.705 529.843 138.145 529.774 142.615V142.733C529.76 143.292 529.746 143.603 529.746 143.603L529.78 143.568C538.75 135.637 540.537 124.534 540.89 121.108V121.094C540.96 120.431 540.967 120.057 540.967 120.057L541.438 120.935L543.093 124.058C543.093 124.058 543.322 122.745 543.523 120.748V120.742C543.641 119.595 543.744 118.227 543.793 116.755C543.897 113.646 543.744 110.081 542.886 107.18C542.554 106.053 542.221 105.024 541.868 104.098C541.771 103.842 541.674 103.594 541.577 103.331C541.21 102.392 540.85 101.563 540.489 100.823C540.33 100.491 540.164 100.188 540.012 99.8905C539.893 99.6556 539.762 99.4344 539.637 99.2204C539.537 99.046 539.433 98.8733 539.326 98.7024C538.91 98.0323 538.508 97.4655 538.12 96.9889C538.024 96.8646 537.934 96.754 537.837 96.6366C537.656 96.4226 537.483 96.2082 537.303 96.0357C537.213 95.9391 537.13 95.849 537.04 95.7662C536.922 95.6288 536.794 95.4995 536.659 95.3792C536.61 95.3169 536.548 95.2618 536.499 95.2135C536.34 95.0615 536.181 94.9163 536.042 94.7783C535.502 94.2603 535.128 93.8733 534.997 93.3758C534.845 92.7885 535.253 92.1945 535.877 91.676C536.576 91.0888 537.553 90.5775 538.314 90.2111C538.446 90.1628 538.578 90.1005 538.689 90.0522C539.215 89.8242 539.582 89.693 539.582 89.693C537.795 88.3665 532.712 88.021 532.712 88.021C534 85.9689 530.419 80.345 530.038 79.7578C530.89 81.3124 528.978 86.7082 528.403 85.4299C523.035 73.5809 495.919 68.7032 495.074 68.5584C496.528 69.4429 496.473 71.8747 496.473 71.8747C489.624 66.8727 475.757 68.9799 475.757 68.9799C475.881 69.0214 476.006 69.0628 476.124 69.1042C476.207 69.132 476.276 69.1666 476.359 69.2012C476.394 69.2148 476.443 69.2289 476.47 69.2635C476.553 69.2844 476.63 69.3259 476.699 69.3741C477.157 69.6229 477.565 69.9531 477.904 70.3483C478.022 70.4794 478.14 70.6041 478.236 70.7421C478.347 70.8873 478.444 71.0252 478.527 71.1636C478.617 71.302 478.687 71.4331 478.755 71.5505C478.763 71.5505 478.763 71.5642 478.763 71.5642C478.825 71.6817 478.88 71.7991 478.922 71.9029C479.061 72.207 479.137 72.4209 479.143 72.4696C478.963 72.2635 478.759 72.0802 478.534 71.9238H478.526C478.443 71.8687 478.353 71.82 478.262 71.7581C478.219 71.7289 478.176 71.7012 478.131 71.6753C478.035 71.6167 477.935 71.5637 477.833 71.5164C477.783 71.4883 477.733 71.4629 477.681 71.4404C477.487 71.3507 477.258 71.2537 477.023 71.1709C476.898 71.1294 476.78 71.088 476.656 71.0534C476.528 71.0093 476.399 70.9701 476.268 70.936C476.136 70.9082 476.011 70.8668 475.88 70.8322C475.441 70.733 474.997 70.6546 474.55 70.5973C474.384 70.5836 474.232 70.5627 474.079 70.549C473.906 70.5354 473.747 70.5076 473.573 70.5008C473.421 70.4871 473.262 70.4798 473.082 70.4662C465.934 70.1138 454.416 73.3746 445.862 83.2821C445.516 83.6754 445.179 84.0762 444.85 84.4843C442.544 87.3932 440.48 90.806 438.838 94.8133C438.125 96.5546 437.509 98.2608 437.003 99.926C436.878 100.347 436.761 100.755 436.643 101.17C436.417 101.98 436.211 102.795 436.026 103.616C435.943 104.016 435.853 104.417 435.77 104.811C435.539 105.976 435.352 107.149 435.209 108.328C435.154 108.708 435.112 109.095 435.071 109.467C435.029 109.848 435.009 110.22 434.981 110.6C434.877 112.02 434.835 113.402 434.87 114.749ZM540.869 109.457C540.678 108.676 540.463 107.902 540.224 107.135C539.04 103.329 537.682 100.454 536.921 98.8719C536.512 98.022 536.276 97.5317 536.339 97.5108C536.353 97.4971 536.367 97.5108 536.387 97.5245C536.406 97.5357 536.422 97.5497 536.436 97.5659C536.457 97.5864 536.485 97.6005 536.506 97.6419C536.523 97.6522 536.537 97.6664 536.547 97.6833L536.595 97.7316C536.685 97.8354 536.796 97.9943 536.928 98.1736C537.025 98.2979 537.122 98.4431 537.225 98.5952C537.586 99.1273 538.029 99.8593 538.5 100.716C538.507 100.716 538.507 100.723 538.507 100.723C539.314 102.206 540.006 103.749 540.578 105.338C542.781 111.446 542.614 117 542.406 117.442C542.399 117.456 542.385 117.463 542.378 117.463C542.357 117.463 542.337 117.408 542.309 117.276C542.294 117.241 542.287 117.204 542.289 117.166C542.261 116.986 542.233 116.737 542.185 116.406C542.177 116.29 542.163 116.175 542.143 116.06C542.101 115.736 542.046 115.349 541.991 114.927C541.963 114.817 541.949 114.706 541.935 114.596C541.908 114.43 541.887 114.278 541.859 114.112C541.829 113.902 541.795 113.692 541.755 113.484C541.755 113.477 541.755 113.47 541.748 113.449C541.707 113.228 541.665 112.993 541.609 112.738C541.514 112.217 541.408 111.699 541.291 111.183C541.229 110.914 541.173 110.644 541.097 110.361C541.097 110.354 541.097 110.354 541.09 110.34C541.029 110.077 540.964 109.814 540.896 109.552C540.889 109.512 540.876 109.491 540.869 109.457ZM458.309 79.092C456.626 79.935 450.655 82.9746 446.284 89.5243C445.308 90.9961 444.581 92.4123 443.888 94.0634C442.967 96.2812 442.15 98.9133 440.993 102.603C439.067 108.8 438.299 113.333 437.987 113.277C437.682 113.229 437.918 109 438.596 105.359C439.019 103.045 442.732 84.3699 457.47 77.6613C465.526 73.9858 473.435 75.4575 473.456 75.6091C473.456 75.7688 466.121 75.2303 458.309 79.092Z" fill="#30334D"/>
<path d="M528.534 220.373C523.485 227.24 511.953 239.752 493.813 241.859C493.785 241.859 493.764 241.866 493.736 241.866C493.73 241.873 493.723 241.873 493.716 241.873C492.282 242.053 490.814 242.142 489.304 242.17C485.529 242.239 482.059 241.783 478.88 240.941C477.731 240.642 476.598 240.284 475.486 239.87C464.632 235.862 457.602 227.42 453.71 221.278C454.652 221.071 455.559 220.87 456.446 220.691C459.046 220.151 461.661 219.682 464.286 219.281C480.476 234.396 496.449 236.461 512.09 218.549C512.416 218.562 512.762 218.583 513.129 218.597C516.218 218.742 520.762 219.095 526.081 219.951C526.886 220.082 527.703 220.221 528.534 220.373Z" fill="white"/>
<path d="M581.333 362.43C582.092 362.372 582.807 364.544 583.531 366.718C587.09 377.407 587.81 379.232 586.779 380.441C586.146 381.183 584.8 381.192 584.008 380.822C582.56 380.144 582.942 378.116 582.098 374.151C581.06 369.276 579.486 367.602 580.282 364.336C580.393 363.883 580.736 362.475 581.333 362.43Z" fill="#F0A052"/>
<path d="M635.28 369.424L585.468 372.541C583.374 375.118 586.407 377.477 588.74 380.966C589.82 382.582 591.684 383.6 593.557 383.559L631.501 382.738C632.997 382.706 634.355 382.03 635.083 380.845C637.365 377.131 637.472 373.925 635.28 369.424Z" fill="white"/>
<path d="M527.674 344.16L524.68 347.638L522.312 350.387L522.32 346.828L522.329 342.179L527.674 344.16Z" fill="#FFE68A"/>
<path d="M529.962 338.047L527.699 344.121C527.575 344.452 527.174 344.607 526.804 344.47C526.434 344.333 526.233 343.954 526.356 343.623C526.233 343.954 525.834 344.111 525.464 343.974C525.094 343.837 524.892 343.457 525.016 343.126C524.892 343.457 524.493 343.614 524.123 343.477C523.753 343.34 523.552 342.961 523.675 342.63C523.552 342.961 523.153 343.117 522.783 342.98C522.413 342.843 522.211 342.464 522.334 342.133L524.597 336.059C524.608 336.031 524.621 336.007 524.636 335.982L546.292 277.852L551.636 279.833L529.981 337.962C529.975 337.991 529.972 338.019 529.962 338.047Z" fill="#30334D"/>
<path d="M544.706 282.077L545.734 279.317L551.078 281.298L550.05 284.058L544.706 282.077Z" fill="white"/>
<path d="M550.926 281.743L545.582 279.762L546.958 276.067C547.017 275.911 547.105 275.768 547.218 275.646C547.332 275.524 547.468 275.425 547.62 275.356C547.772 275.287 547.936 275.248 548.102 275.242C548.269 275.235 548.435 275.262 548.592 275.32L551.555 276.418C551.711 276.476 551.854 276.564 551.977 276.677C552.099 276.791 552.198 276.927 552.267 277.078C552.337 277.229 552.376 277.393 552.382 277.559C552.388 277.726 552.361 277.891 552.303 278.047L550.926 281.743Z" fill="#D93D52"/>
<path d="M524.68 347.638L522.312 350.387L522.32 346.828C522.774 346.796 523.23 346.861 523.657 347.02C524.034 347.159 524.381 347.369 524.68 347.638Z" fill="#5C5C5C"/>
<path d="M397.198 362.43C396.44 362.372 395.725 364.544 395.001 366.718C391.442 377.407 390.722 379.232 391.753 380.441C392.386 381.183 393.732 381.192 394.524 380.822C395.972 380.144 395.59 378.116 396.434 374.151C397.472 369.276 399.045 367.602 398.249 364.336C398.139 363.883 397.797 362.475 397.198 362.43Z" fill="#F0A052"/>
<path d="M345.208 368.334L392.721 373.59C392.922 377.324 389.402 386.286 387.069 389.774C385.989 391.39 346.976 382.738 346.976 382.738C345.48 382.705 344.122 382.029 343.394 380.845C341.112 377.131 343.016 372.834 345.208 368.334Z" fill="white"/>
<path d="M605.415 421.533C573.478 417.102 562.122 396.859 540.673 380.381C518.875 363.588 528.866 330.62 536.056 332.521C543.233 334.428 600.094 376.453 601.161 378.494H636.173C639.749 409.548 626.585 424.47 605.415 421.533Z" fill="url(#paint17_linear_29_1476)"/>
<path d="M500.602 335.745H477.501L477.356 329.338H500.741L500.602 335.745Z" fill="#B4B4D6"/>
<path d="M497.31 430.44C491.939 431.804 486.593 431.804 481.222 430.44L479.352 331.383C485.974 333.456 492.557 333.456 499.18 331.383L497.31 430.44Z" fill="#DC6641"/>
<path d="M489.266 329.338C483.575 324.333 441.749 305.339 405.673 305.41L401.836 308.209L489.266 329.338Z" fill="#B4B4D6"/>
<path d="M395.909 309.863L400.881 306.726C400.881 306.726 457.028 310.504 489.266 329.338L394.396 313.902L395.909 309.863Z" fill="#D3D3EB"/>
<path d="M479.352 331.383L489.266 329.338C464.407 317.44 421.184 311.253 392.931 309.684L386.568 313.421L479.352 331.383Z" fill="white"/>
<path d="M481.222 430.44C455.356 423.783 430.087 419.492 406.473 418.69L386.568 313.421C419.114 315.052 450.28 321.138 479.353 331.383L481.222 430.44Z" fill="#78B7FF"/>
<path d="M481.222 430.44C455.356 423.783 430.087 419.492 406.473 418.69L386.568 313.421C419.114 315.052 450.28 321.138 479.353 331.383L481.222 430.44Z" fill="url(#paint18_linear_29_1476)"/>
<path d="M471.608 328.771L473.715 391.722C474.259 408 455.644 419.406 435.215 416.135C425.024 414.504 415.046 413.36 405.355 412.775L406.473 418.691C430.087 419.492 455.356 423.783 481.222 430.44L479.352 331.384C476.783 330.478 474.201 329.607 471.608 328.771Z" fill="#E8704B"/>
<path d="M489.266 329.338C494.957 324.333 536.783 305.339 572.86 305.41L576.697 308.209L489.266 329.338Z" fill="#B4B4D6"/>
<path d="M582.623 309.863L577.652 306.726C577.652 306.726 521.504 310.504 489.266 329.338L584.137 313.902L582.623 309.863Z" fill="#D3D3EB"/>
<path d="M499.18 331.383L489.266 329.338C514.125 317.44 557.348 311.253 585.6 309.684L591.964 313.421L499.18 331.383Z" fill="white"/>
<path d="M591.963 313.422L582.484 363.543L582.017 366.012L581.594 368.258L580.465 374.227L580.354 374.794L574.869 403.819L573.92 408.849L573.179 412.773L572.057 418.694C548.445 419.495 523.178 423.785 497.309 430.439L497.476 421.533L497.531 418.569L497.718 408.614L498.355 375.188L498.425 371.554L498.508 366.898L498.577 363.139L499.096 335.746L499.18 331.386C499.685 331.206 500.198 331.027 500.71 330.854C501.23 330.667 501.749 330.488 502.276 330.315C502.823 330.128 503.37 329.941 503.917 329.762C504.776 329.472 505.635 329.189 506.501 328.912C506.639 328.864 506.785 328.823 506.923 328.774C512.908 326.838 518.95 325.084 525.042 323.516C533.233 321.401 541.505 319.608 549.838 318.141C550.551 318.017 551.265 317.893 551.985 317.775C562.499 315.986 573.207 314.701 584.074 313.906C584.545 313.872 585.016 313.837 585.48 313.809C587.64 313.659 589.801 313.53 591.963 313.422Z" fill="#78B7FF"/>
<path d="M591.963 313.422L582.484 363.543L582.017 366.012L581.594 368.258L580.465 374.227L580.354 374.794L574.869 403.819L573.92 408.849L573.179 412.773L572.057 418.694C548.445 419.495 523.178 423.785 497.309 430.439L497.476 421.533L497.531 418.569L497.718 408.614L498.355 375.188L498.425 371.554L498.508 366.898L498.577 363.139L499.096 335.746L499.18 331.386C499.685 331.206 500.198 331.027 500.71 330.854C501.23 330.667 501.749 330.488 502.276 330.315C502.823 330.128 503.37 329.941 503.917 329.762C504.776 329.472 505.635 329.189 506.501 328.912C506.639 328.864 506.785 328.823 506.923 328.774C512.908 326.838 518.95 325.084 525.042 323.516C533.233 321.401 541.505 319.608 549.838 318.141C550.551 318.017 551.265 317.893 551.985 317.775C562.499 315.986 573.207 314.701 584.074 313.906C584.545 313.872 585.016 313.837 585.48 313.809C587.64 313.659 589.801 313.53 591.963 313.422Z" fill="url(#paint19_linear_29_1476)"/>
<path d="M506.924 328.771L504.818 391.722C504.273 408 522.888 419.406 543.317 416.135C553.508 414.504 563.486 413.36 573.178 412.775L572.059 418.691C548.445 419.492 523.177 423.783 497.31 430.44L499.18 331.384C501.75 330.478 504.331 329.607 506.924 328.771Z" fill="#E8704B"/>
<path d="M498.509 366.898H480.023L479.952 363.139H498.581L498.509 366.898ZM498.353 375.187H480.179L480.111 371.556H498.422L498.353 375.187ZM497.478 421.533H481.054L480.998 418.57H497.535L497.478 421.533ZM483.057 349.401C483.024 346.591 485.709 344.289 489.055 344.289C492.401 344.289 495.088 346.591 495.056 349.401C495.024 352.179 492.339 354.41 489.059 354.41C485.779 354.41 483.093 352.18 483.057 349.401Z" fill="white"/>
<path d="M448.034 368.334C442.054 367.199 422.581 379.03 417.74 380.227C412.897 381.424 420.933 366.645 414.631 366.108C410.918 365.793 402.622 381.69 397.66 381.423C389.775 380.998 387.119 380.858 387.119 380.858L342.361 376.684C339.114 389.403 339.95 411.702 352.048 413.654C373.835 417.17 390.646 409.651 413.099 407.383C460.294 402.615 454.015 369.471 448.034 368.334Z" fill="url(#paint20_linear_29_1476)"/>
<path d="M583.153 179.418C583.361 179.752 583.427 180.157 583.33 180.554C583.269 180.809 583.14 181.044 582.959 181.233C582.777 181.423 582.547 181.561 582.294 181.633L577.277 183.093C577.024 183.168 576.757 183.175 576.501 183.112C576.245 183.05 576.011 182.921 575.822 182.738C575.631 182.558 575.491 182.33 575.418 182.078C575.344 181.826 575.339 181.559 575.403 181.304L576.644 176.24C576.705 175.984 576.833 175.75 577.015 175.56C577.197 175.37 577.426 175.232 577.68 175.16C577.932 175.085 578.199 175.079 578.455 175.141C578.711 175.204 578.945 175.333 579.134 175.515L582.91 179.12C583.005 179.21 583.086 179.31 583.153 179.418ZM576.586 181.823C576.604 181.852 576.624 181.874 576.638 181.887C576.678 181.926 576.727 181.953 576.782 181.967C576.836 181.98 576.892 181.978 576.946 181.962L581.963 180.502C582.017 180.487 582.066 180.458 582.104 180.418C582.143 180.378 582.17 180.328 582.182 180.274C582.196 180.22 582.195 180.164 582.18 180.11C582.164 180.057 582.135 180.009 582.094 179.971L578.318 176.366C578.278 176.327 578.228 176.3 578.174 176.287C578.12 176.273 578.063 176.275 578.01 176.291C577.956 176.306 577.907 176.335 577.869 176.375C577.83 176.415 577.803 176.465 577.791 176.519L576.549 181.583C576.539 181.624 576.536 181.666 576.543 181.707C576.549 181.748 576.564 181.787 576.586 181.823ZM351.827 260.715C352.035 261.05 352.101 261.454 352.003 261.851C351.942 262.106 351.814 262.341 351.632 262.53C351.451 262.72 351.221 262.858 350.968 262.93L345.951 264.39C345.698 264.465 345.431 264.472 345.175 264.41C344.919 264.347 344.685 264.218 344.496 264.035C344.305 263.855 344.165 263.627 344.092 263.375C344.018 263.123 344.013 262.856 344.077 262.601L345.318 257.537C345.379 257.281 345.507 257.047 345.689 256.857C345.871 256.667 346.1 256.529 346.354 256.457C346.606 256.383 346.873 256.376 347.129 256.438C347.385 256.501 347.619 256.63 347.808 256.812L351.584 260.417C351.679 260.508 351.76 260.607 351.827 260.715ZM345.26 263.12C345.278 263.149 345.299 263.171 345.312 263.184C345.352 263.223 345.402 263.25 345.456 263.264C345.51 263.277 345.567 263.275 345.62 263.259L350.638 261.799C350.691 261.784 350.74 261.755 350.779 261.715C350.817 261.675 350.844 261.625 350.857 261.571C350.871 261.517 350.87 261.461 350.854 261.407C350.839 261.354 350.809 261.306 350.768 261.268L346.992 257.663C346.952 257.624 346.902 257.597 346.848 257.584C346.794 257.57 346.737 257.572 346.684 257.588C346.63 257.603 346.582 257.632 346.543 257.672C346.505 257.712 346.478 257.762 346.465 257.816L345.224 262.88C345.213 262.921 345.211 262.963 345.217 263.004C345.223 263.045 345.238 263.084 345.26 263.12Z" fill="white"/>
<path d="M622.22 283.247C620.398 283.247 618.915 281.768 618.915 279.95C618.915 278.131 620.398 276.653 622.22 276.653C624.043 276.653 625.526 278.131 625.526 279.95C625.526 281.768 624.043 283.247 622.22 283.247ZM622.22 277.684C621.618 277.685 621.041 277.924 620.615 278.349C620.19 278.773 619.95 279.349 619.949 279.95C619.95 280.55 620.19 281.126 620.615 281.551C621.041 281.975 621.618 282.214 622.22 282.215C622.822 282.214 623.4 281.975 623.825 281.551C624.251 281.126 624.491 280.55 624.491 279.95C624.491 279.349 624.251 278.773 623.825 278.349C623.4 277.924 622.822 277.685 622.22 277.684ZM443.922 207.96C442.1 207.96 440.617 206.481 440.617 204.663C440.617 202.845 442.1 201.366 443.922 201.366C445.745 201.366 447.228 202.845 447.228 204.663C447.228 206.481 445.744 207.96 443.922 207.96ZM443.922 202.398C443.32 202.399 442.743 202.638 442.317 203.062C441.892 203.487 441.652 204.063 441.651 204.663C441.652 205.264 441.892 205.84 442.317 206.264C442.743 206.689 443.32 206.928 443.922 206.929C444.524 206.928 445.102 206.689 445.527 206.264C445.953 205.84 446.193 205.264 446.193 204.663C446.193 204.063 445.953 203.487 445.527 203.062C445.102 202.638 444.524 202.399 443.922 202.398ZM337.961 161.148C337.799 161.148 337.799 161.399 337.961 161.399C338.123 161.399 338.124 161.148 337.961 161.148Z" fill="white"/>
<defs>
<linearGradient id="paint0_linear_29_1476" x1="490" y1="-49" x2="490" y2="549" gradientUnits="userSpaceOnUse">
<stop offset="0.0239582" stop-color="#D84CEB"/>
<stop offset="1" stop-color="#7935D9"/>
</linearGradient>
<linearGradient id="paint1_linear_29_1476" x1="799" y1="461.055" x2="807.43" y2="461.055" gradientUnits="userSpaceOnUse">
<stop stop-color="white"/>
<stop offset="1" stop-color="white" stop-opacity="0.82"/>
</linearGradient>
<linearGradient id="paint2_linear_29_1476" x1="807.43" y1="470.528" x2="832.717" y2="470.528" gradientUnits="userSpaceOnUse">
<stop stop-color="white"/>
<stop offset="1" stop-color="white" stop-opacity="0.82"/>
</linearGradient>
<linearGradient id="paint3_linear_29_1476" x1="807.573" y1="451.543" x2="832.654" y2="451.543" gradientUnits="userSpaceOnUse">
<stop stop-color="white"/>
<stop offset="1" stop-color="white" stop-opacity="0.82"/>
</linearGradient>
<linearGradient id="paint4_linear_29_1476" x1="777.035" y1="342.579" x2="654.333" y2="360.66" gradientUnits="userSpaceOnUse">
<stop stop-color="#F4B46D"/>
<stop offset="0.49" stop-color="#F66572"/>
<stop offset="0.98" stop-color="#140F1E"/>
</linearGradient>
<linearGradient id="paint5_linear_29_1476" x1="752.906" y1="346.937" x2="627.782" y2="364.449" gradientUnits="userSpaceOnUse">
<stop stop-color="#F4B46D"/>
<stop offset="0.49" stop-color="#F66572"/>
<stop offset="0.8" stop-color="#140F1E"/>
</linearGradient>
<linearGradient id="paint6_linear_29_1476" x1="192.895" y1="350.072" x2="316.382" y2="361.64" gradientUnits="userSpaceOnUse">
<stop stop-color="#F4B46D"/>
<stop offset="0.49" stop-color="#F66572"/>
<stop offset="0.98" stop-color="#140F1E"/>
</linearGradient>
<linearGradient id="paint7_linear_29_1476" x1="217.221" y1="353.15" x2="343.097" y2="364.021" gradientUnits="userSpaceOnUse">
<stop stop-color="#F4B46D"/>
<stop offset="0.49" stop-color="#F66572"/>
<stop offset="0.773958" stop-color="#271625"/>
<stop offset="0.8" stop-color="#140F1E"/>
</linearGradient>
<linearGradient id="paint8_linear_29_1476" x1="636.157" y1="360.199" x2="696.941" y2="360.946" gradientUnits="userSpaceOnUse">
<stop stop-color="#079463"/>
<stop offset="1" stop-color="#29E3A2"/>
</linearGradient>
<linearGradient id="paint9_linear_29_1476" x1="629.484" y1="351.676" x2="693.752" y2="352.457" gradientUnits="userSpaceOnUse">
<stop stop-color="#079463"/>
<stop offset="1" stop-color="#29E3A2"/>
</linearGradient>
<linearGradient id="paint10_linear_29_1476" x1="326.15" y1="342.584" x2="334.641" y2="294.823" gradientUnits="userSpaceOnUse">
<stop stop-color="#068157"/>
<stop offset="0.774171" stop-color="#29E3A2"/>
</linearGradient>
<linearGradient id="paint11_linear_29_1476" x1="331.808" y1="332.82" x2="341.004" y2="281.731" gradientUnits="userSpaceOnUse">
<stop stop-color="#068157"/>
<stop offset="0.774171" stop-color="#29E3A2"/>
</linearGradient>
<linearGradient id="paint12_linear_29_1476" x1="375.097" y1="375.707" x2="462.346" y2="312.082" gradientUnits="userSpaceOnUse">
<stop stop-color="#EBA32E"/>
<stop offset="1" stop-color="#FCD699"/>
</linearGradient>
<linearGradient id="paint13_linear_29_1476" x1="460.013" y1="401.135" x2="582.384" y2="253.474" gradientUnits="userSpaceOnUse">
<stop stop-color="#EBA32E"/>
<stop offset="1" stop-color="#FCD699"/>
</linearGradient>
<linearGradient id="paint14_linear_29_1476" x1="577.274" y1="400.766" x2="675.028" y2="337.529" gradientUnits="userSpaceOnUse">
<stop stop-color="#EBA32E"/>
<stop offset="1" stop-color="#FCD699"/>
</linearGradient>
<linearGradient id="paint15_linear_29_1476" x1="488.234" y1="170.014" x2="488.234" y2="242.499" gradientUnits="userSpaceOnUse">
<stop stop-color="white"/>
<stop offset="1" stop-color="#FFD0D0"/>
</linearGradient>
<linearGradient id="paint16_linear_29_1476" x1="489.789" y1="90.0587" x2="489.789" y2="195.247" gradientUnits="userSpaceOnUse">
<stop stop-color="white"/>
<stop offset="1" stop-color="#FFD0D0"/>
</linearGradient>
<linearGradient id="paint17_linear_29_1476" x1="582.081" y1="332.443" x2="582.081" y2="421.896" gradientUnits="userSpaceOnUse">
<stop stop-color="white"/>
<stop offset="1" stop-color="#FFD0D0"/>
</linearGradient>
<linearGradient id="paint18_linear_29_1476" x1="442.903" y1="427.547" x2="482.439" y2="423.322" gradientUnits="userSpaceOnUse">
<stop stop-color="#FFA183"/>
<stop offset="1" stop-color="#F07C58"/>
</linearGradient>
<linearGradient id="paint19_linear_29_1476" x1="553.644" y1="427.546" x2="593.18" y2="423.321" gradientUnits="userSpaceOnUse">
<stop stop-color="#F07C58"/>
<stop offset="1" stop-color="#FFA183"/>
</linearGradient>
<linearGradient id="paint20_linear_29_1476" x1="396.429" y1="366.104" x2="396.429" y2="414.576" gradientUnits="userSpaceOnUse">
<stop stop-color="white"/>
<stop offset="1" stop-color="#FFD0D0"/>
</linearGradient>
<clipPath id="clip0_29_1476">
<rect width="160.567" height="38" fill="white" transform="translate(799 442)"/>
</clipPath>
</defs>
</svg>
