<svg width="980" height="500" viewBox="0 0 980 500" fill="none" xmlns="http://www.w3.org/2000/svg">
<rect width="980" height="500" fill="url(#paint0_linear_49_303)"/>
<g clip-path="url(#clip0_49_303)">
<path d="M848.688 467.15C847.638 467.181 846.599 466.917 845.691 466.387C844.86 465.875 844.194 465.133 843.775 464.251C843.312 463.258 843.084 462.171 843.107 461.076C843.084 459.979 843.312 458.892 843.775 457.898C844.194 457.015 844.86 456.273 845.691 455.762C846.599 455.232 847.638 454.967 848.688 454.998C849.89 454.954 851.072 455.308 852.051 456.005C852.958 456.686 853.624 457.638 853.952 458.723L851.983 459.267C851.794 458.566 851.388 457.942 850.824 457.485C850.206 457.035 849.452 456.811 848.688 456.852C847.998 456.826 847.316 457.009 846.731 457.378C846.199 457.743 845.79 458.261 845.558 458.863C845.282 459.575 845.146 460.333 845.157 461.097C845.14 461.859 845.274 462.617 845.549 463.327C845.785 463.932 846.199 464.45 846.737 464.813C847.323 465.181 848.006 465.364 848.697 465.338C849.459 465.372 850.208 465.143 850.821 464.691C851.384 464.233 851.79 463.609 851.98 462.909L853.952 463.425C853.627 464.509 852.965 465.461 852.063 466.143C851.08 466.843 849.894 467.197 848.688 467.15Z" fill="white"/>
<path d="M856.094 466.91V455.239H860.914C861.03 455.239 861.176 455.239 861.354 455.239C861.519 455.247 861.684 455.264 861.847 455.292C862.455 455.368 863.032 455.6 863.522 455.967C863.959 456.308 864.297 456.759 864.503 457.274C864.72 457.833 864.828 458.429 864.82 459.029C864.844 459.901 864.592 460.759 864.102 461.48C863.839 461.832 863.508 462.126 863.127 462.344C862.746 462.562 862.325 462.7 861.889 462.748L861.054 462.819H858.048V466.91H856.094ZM858.048 461.01H860.834C860.944 461.01 861.063 461.01 861.2 460.993C861.325 460.984 861.45 460.962 861.571 460.927C861.864 460.866 862.131 460.717 862.337 460.5C862.521 460.3 862.657 460.061 862.735 459.802C862.81 459.555 862.849 459.299 862.851 459.041C862.85 458.781 862.811 458.523 862.735 458.275C862.658 458.014 862.522 457.774 862.337 457.574C862.13 457.358 861.863 457.21 861.571 457.149C861.449 457.117 861.325 457.098 861.2 457.09C861.063 457.09 860.944 457.09 860.834 457.09H858.048V461.01ZM862.801 466.91L860.502 462.157L862.486 461.72L865.014 466.907L862.801 466.91Z" fill="white"/>
<path d="M867.164 466.91V455.239H874.7V457.072H869.116V459.947H873.726V461.78H869.116V465.077H874.7V466.91H867.164Z" fill="white"/>
<path d="M876.206 466.91L879.883 455.239H882.744L886.424 466.91H884.413L881.074 456.439H881.514L878.217 466.91H876.206ZM878.256 464.379V462.558H884.381V464.379H878.256Z" fill="white"/>
<path d="M890.087 466.91V457.072H886.311V455.239H895.816V457.072H892.038V466.91H890.087Z" fill="white"/>
<path d="M897.646 466.91V455.239H899.598V466.91H897.646Z" fill="white"/>
<path d="M905.042 466.91L901.35 455.239H903.358L906.438 465.012L909.557 455.239H911.577L907.888 466.91H905.042Z" fill="white"/>
<path d="M913.155 466.91V455.239H920.69V457.072H915.109V459.947H919.719V461.78H915.109V465.077H920.69V466.91H913.155Z" fill="white"/>
<path d="M923.162 466.91V455.239H925.113V466.91H923.162Z" fill="white"/>
<path d="M930.73 466.91V457.072H926.955V455.239H936.46V457.072H932.682V466.91H930.73Z" fill="white"/>
<path d="M938.126 466.91V455.239H945.662V457.072H940.093V459.947H944.703V461.78H940.093V465.077H945.674V466.91H938.126Z" fill="white"/>
<path d="M947.982 466.91V455.239H949.741L953.774 463.506L957.811 455.239H959.567V466.91H957.746V459.43L954.164 466.91H953.385L949.821 459.43V466.91H947.982Z" fill="white"/>
<path d="M815.86 470.789L807.43 465.92V475.654L815.86 470.789Z" fill="white" fill-opacity="0.48"/>
<path d="M832.717 461.055L824.287 456.19V465.921L832.717 461.055Z" fill="white" fill-opacity="0.47"/>
<path d="M815.86 451.321L807.43 446.456V456.189L815.86 451.321Z" fill="white" fill-opacity="0.48"/>
<path d="M807.43 446.456L800.687 450.35C800.174 450.645 799.747 451.07 799.451 451.583C799.155 452.096 798.999 452.677 799 453.27V468.84C799 469.433 799.155 470.015 799.452 470.528C799.748 471.041 800.174 471.467 800.687 471.763L807.43 475.654V446.456Z" fill="url(#paint1_linear_49_303)"/>
<path d="M832.717 468.84V461.055L807.43 475.654L814.173 479.549C814.685 479.845 815.267 480.001 815.858 480.001C816.45 480.001 817.032 479.845 817.544 479.549L831.033 471.763C831.545 471.467 831.97 471.04 832.266 470.527C832.562 470.014 832.717 469.433 832.717 468.84Z" fill="url(#paint2_linear_49_303)"/>
<path d="M817.606 442.594C817.098 442.301 816.521 442.146 815.934 442.146C815.347 442.146 814.77 442.301 814.262 442.594L807.573 446.456L832.654 460.939V453.216C832.654 452.629 832.5 452.052 832.206 451.543C831.913 451.034 831.491 450.611 830.982 450.317L817.606 442.594Z" fill="url(#paint3_linear_49_303)"/>
</g>
<path opacity="0.16" d="M765.912 252.184C763.485 242.276 745.567 169.111 697.504 157.169C646.629 144.527 600.613 210.082 574.072 192.8C551.195 177.903 576.623 123.497 550.278 106.692C529.269 93.2916 499.531 119.234 461.469 99.1369C453.107 94.722 454.18 92.6984 446.29 88.6447C404.073 66.9561 338.1 76.1328 314.141 111.432C290.137 146.796 328.864 178.086 308.134 226.567C284.898 280.909 220.308 278.851 212.026 320.113C210.329 328.564 210.228 341.72 215.717 357.717C229.224 397.086 266.675 423.254 308.36 423.254H631.074C719.808 423.254 786.207 341.138 766.522 254.762C766.326 253.903 766.123 253.044 765.912 252.184Z" fill="#FFEBDE"/>
<path d="M749.664 243.451C750.111 243.815 750.396 244.341 750.452 244.937C750.527 245.724 750.187 246.467 749.543 246.925L743.332 251.347C742.688 251.805 741.876 251.883 741.158 251.554C740.44 251.225 739.967 250.559 739.892 249.772L739.173 242.174C739.099 241.387 739.439 240.644 740.082 240.186C740.725 239.728 741.538 239.65 742.256 239.98L749.186 243.155C749.361 243.235 749.52 243.334 749.664 243.451ZM741.771 249.922C741.81 249.954 741.848 249.975 741.874 249.987C741.947 250.02 742.137 250.083 742.334 249.943L748.545 245.521C748.741 245.381 748.745 245.18 748.737 245.1C748.73 245.021 748.689 244.825 748.469 244.723L741.539 241.548C741.32 241.447 741.144 241.545 741.079 241.591C741.013 241.638 740.864 241.772 740.886 242.012L741.605 249.61C741.621 249.765 741.698 249.863 741.771 249.922ZM244.295 120.834C244.742 121.197 245.027 121.724 245.083 122.32C245.158 123.107 244.818 123.851 244.175 124.309L237.963 128.731C237.32 129.189 236.507 129.266 235.789 128.937C235.071 128.608 234.598 127.942 234.523 127.155L233.804 119.557C233.73 118.77 234.07 118.027 234.713 117.569C235.357 117.111 236.169 117.034 236.887 117.363L243.817 120.538C243.992 120.619 244.152 120.718 244.295 120.834ZM236.402 127.305C236.442 127.338 236.48 127.358 236.505 127.37C236.578 127.403 236.769 127.466 236.965 127.326L243.176 122.904C243.372 122.764 243.376 122.563 243.369 122.483C243.361 122.404 243.321 122.208 243.101 122.107L236.17 118.931C235.951 118.83 235.775 118.928 235.71 118.975C235.645 119.021 235.496 119.155 235.518 119.395L236.237 126.993C236.252 127.148 236.329 127.247 236.402 127.305Z" fill="#10AA95"/>
<path d="M731.902 150.084L733.558 146.642C733.934 145.861 733.61 144.921 732.834 144.542C732.058 144.163 731.124 144.49 730.748 145.271L729.092 148.713L725.674 147.046C724.899 146.667 723.964 146.994 723.589 147.775C723.213 148.556 723.537 149.496 724.313 149.875L727.731 151.543L726.079 154.978C725.702 155.76 726.027 156.7 726.803 157.079C727.19 157.268 727.618 157.281 727.995 157.149C728.373 157.017 728.7 156.74 728.888 156.349L730.541 152.914L733.952 154.578C734.34 154.768 734.768 154.78 735.145 154.649C735.522 154.517 735.85 154.24 736.038 153.849C736.414 153.068 736.09 152.128 735.314 151.749L731.902 150.084ZM319.173 204.529L320.829 201.087C321.205 200.306 320.881 199.366 320.105 198.987C319.329 198.608 318.395 198.935 318.019 199.716L316.363 203.158L312.945 201.491C312.17 201.112 311.236 201.439 310.86 202.22C310.484 203.001 310.808 203.941 311.584 204.32L315.002 205.988L313.35 209.424C312.974 210.205 313.298 211.145 314.074 211.524C314.462 211.713 314.889 211.726 315.267 211.594C315.644 211.462 315.971 211.185 316.159 210.794L317.812 207.359L321.224 209.023C321.612 209.213 322.04 209.225 322.417 209.094C322.794 208.962 323.122 208.685 323.31 208.294C323.686 207.513 323.361 206.573 322.585 206.194L319.173 204.529Z" fill="#F03D5A"/>
<path d="M728.973 346.932C725.778 348.048 722.276 346.342 721.166 343.129C720.057 339.917 721.753 336.395 724.948 335.279C728.143 334.163 731.645 335.869 732.755 339.082C733.865 342.294 732.168 345.816 728.973 346.932ZM725.578 337.102C723.383 337.869 722.217 340.288 722.979 342.496C723.742 344.703 726.148 345.876 728.343 345.109C730.538 344.342 731.704 341.923 730.941 339.715C730.179 337.508 727.773 336.335 725.578 337.102ZM366.767 213.118C363.571 214.234 360.069 212.528 358.959 209.316C357.85 206.103 359.546 202.581 362.741 201.465C365.936 200.349 369.439 202.056 370.548 205.268C371.658 208.481 369.962 212.002 366.767 213.118ZM363.371 203.288C361.176 204.055 360.01 206.475 360.772 208.682C361.535 210.889 363.941 212.061 366.136 211.295C368.331 210.528 369.497 208.109 368.735 205.902C367.973 203.694 365.566 202.522 363.371 203.288ZM581.145 93.3367C577.95 94.4524 574.448 92.7462 573.338 89.534C572.229 86.3212 573.925 82.7993 577.12 81.6836C580.315 80.5679 583.818 82.274 584.927 85.4868C586.037 88.6991 584.341 92.2209 581.145 93.3367ZM577.75 83.5068C575.555 84.2737 574.389 86.6931 575.151 88.9009C575.914 91.1081 578.32 92.2803 580.515 91.5135C582.71 90.7466 583.876 88.3272 583.113 86.1199C582.351 83.9127 579.945 82.7405 577.75 83.5068Z" fill="white" fill-opacity="0.56"/>
<path d="M303.721 257.583C303.721 251.389 308.742 246.367 314.936 246.367H399.218C405.412 246.367 410.433 251.389 410.433 257.583V257.583C410.433 263.776 405.412 268.798 399.218 268.798H314.936C308.742 268.798 303.721 263.776 303.721 257.583V257.583Z" fill="#EAE3FF" fill-opacity="0.7"/>
<path d="M679.701 185.878H336.933C334.358 185.878 332.271 187.965 332.271 190.539V190.734C332.271 193.308 334.358 195.395 336.933 195.395H679.701C682.275 195.395 684.362 193.308 684.362 190.734V190.539C684.362 187.965 682.275 185.878 679.701 185.878Z" fill="#F1EDFF" fill-opacity="0.66"/>
<path d="M334.696 293.174L331.25 291.852L318.694 287.053L311.122 287.929V327.804L329.005 330.625L334.987 331.573L334.696 293.174ZM316.108 324.788C315.566 324.785 315.038 324.621 314.59 324.317C314.142 324.013 313.795 323.583 313.592 323.081C313.389 322.579 313.339 322.028 313.45 321.499C313.561 320.969 313.826 320.483 314.213 320.105C314.6 319.726 315.09 319.471 315.622 319.371C316.154 319.272 316.704 319.333 317.201 319.546C317.699 319.759 318.122 320.116 318.416 320.57C318.711 321.024 318.864 321.556 318.856 322.097C318.855 322.456 318.783 322.812 318.644 323.144C318.505 323.475 318.302 323.776 318.047 324.029C317.792 324.282 317.489 324.482 317.156 324.618C316.823 324.754 316.467 324.823 316.108 324.821V324.788Z" fill="url(#paint4_linear_49_303)"/>
<path d="M315.199 294.625L311.146 295.208L310.603 255.722C310.593 254.933 310.833 254.162 311.289 253.518C311.744 252.874 312.393 252.391 313.14 252.139C313.72 251.949 314.337 251.904 314.937 252.008C315.538 252.113 316.104 252.363 316.585 252.738C317.065 253.113 317.446 253.601 317.694 254.158C317.942 254.715 318.048 255.325 318.004 255.933L315.199 294.625Z" fill="url(#paint5_linear_49_303)"/>
<path d="M334.987 331.589L329.005 330.641L331.25 291.852L334.703 293.173L334.987 331.589Z" fill="#F0EBFF"/>
<path d="M391.464 371.505C360.392 375.323 335.53 370.516 335.23 370.451L335.579 368.708C336.016 368.798 380.455 377.382 424.748 362.183L425.324 363.861C414.332 367.575 402.985 370.137 391.464 371.505Z" fill="#69DFD4"/>
<path d="M349.741 371.156C349.741 371.156 358.301 366.455 367.802 365.741L377.302 365.036C377.302 365.036 358.171 372.826 349.741 371.156ZM372.503 372.437C372.503 372.437 384.574 379.628 396.522 376.563C396.522 376.563 380.18 371.724 372.503 372.437ZM395.242 369.876C397.031 367.18 399.375 364.898 402.118 363.182C404.861 361.467 407.939 360.358 411.146 359.929C411.146 359.929 402.505 367.614 395.242 369.876ZM410.709 367.517C410.709 367.517 418.815 373.831 430.934 370.516C430.934 370.516 421.806 365.012 410.709 367.517Z" fill="#69DFD4"/>
<path d="M562.695 246.031C562.695 240.213 567.411 235.497 573.229 235.497H675.19C681.008 235.497 685.725 240.213 685.725 246.031V246.031C685.725 251.849 681.008 256.565 675.19 256.565H573.229C567.411 256.565 562.695 251.849 562.695 246.031V246.031Z" fill="#EAE3FF" fill-opacity="0.7"/>
<path d="M620.809 307.206L621.49 246.708C621.49 246.708 620.59 243.117 617.704 244.868C616.98 245.324 616.39 245.964 615.995 246.723C615.6 247.483 615.415 248.334 615.459 249.189L617.753 307.206C617.753 307.206 612.305 312.613 612.727 320.176C613.335 330.9 627.529 328.639 627.683 321.238C627.837 313.837 620.809 307.206 620.809 307.206Z" fill="url(#paint6_linear_49_303)"/>
<g style="mix-blend-mode:multiply" opacity="0.59">
<path d="M621.165 310.797C620.997 310.506 620.756 310.263 620.466 310.093C620.176 309.924 619.847 309.832 619.511 309.828C619.175 309.824 618.844 309.907 618.549 310.07C618.255 310.233 618.009 310.469 617.834 310.756C615.864 313.999 613.197 319.584 615.337 322.916C618.506 327.901 624.546 326.539 625.3 322.316C625.81 319.503 623.038 314.055 621.165 310.797Z" fill="url(#paint7_linear_49_303)"/>
</g>
<path d="M659.889 324.764C655.374 326.701 651.848 326.645 649.116 325.575C642.266 322.908 640.41 313.869 640.41 313.869L663.197 303.55C662.141 298.938 660.847 294.385 659.322 289.907C657.208 283.587 655.449 277.154 654.053 270.638C650.275 251.248 664.194 244.762 664.331 244.698L665.426 247.13C664.931 247.357 653.266 252.877 656.663 270.127C658.037 276.544 659.777 282.878 661.875 289.096C663.667 294.77 665.329 299.975 666.066 304.555C666.155 305.082 666.228 305.609 666.293 306.127C668.676 310.886 671.23 319.908 659.889 324.764Z" fill="url(#paint8_linear_49_303)"/>
<g style="mix-blend-mode:multiply" opacity="0.59">
<path d="M659.89 324.764C655.374 326.701 651.848 326.645 649.116 325.575C651.816 323.378 654.742 323.143 659.217 320.897C663.691 318.652 661.024 313.642 664.194 311.17C665.759 309.937 666.115 307.116 666.067 304.555C666.156 305.082 666.229 305.609 666.294 306.127C668.677 310.886 671.23 319.908 659.89 324.764Z" fill="url(#paint9_linear_49_303)"/>
</g>
<path d="M620.168 246.522C620.168 246.94 620.044 247.349 619.812 247.697C619.579 248.045 619.249 248.316 618.862 248.476C618.476 248.636 618.05 248.678 617.64 248.597C617.229 248.515 616.852 248.314 616.557 248.018C616.261 247.722 616.059 247.345 615.978 246.934C615.896 246.524 615.938 246.099 616.098 245.712C616.258 245.325 616.529 244.995 616.877 244.762C617.225 244.53 617.634 244.406 618.053 244.406C618.614 244.406 619.152 244.629 619.549 245.026C619.945 245.422 620.168 245.961 620.168 246.522ZM666.991 246.522C666.991 246.94 666.867 247.349 666.634 247.697C666.402 248.045 666.071 248.316 665.685 248.476C665.298 248.636 664.872 248.678 664.462 248.597C664.052 248.515 663.675 248.314 663.379 248.018C663.083 247.722 662.881 247.345 662.8 246.934C662.718 246.524 662.76 246.099 662.92 245.712C663.08 245.325 663.351 244.995 663.699 244.762C664.047 244.53 664.456 244.406 664.875 244.406C665.436 244.406 665.974 244.629 666.371 245.026C666.768 245.422 666.991 245.961 666.991 246.522ZM437.208 370.678C437.208 370.678 434.898 406.97 434.898 420.719C434.898 420.719 485.271 420.038 487.241 420.038C489.21 420.038 491.351 393.96 491.351 393.96L495.055 420.038L547.049 420.719L549.416 372.64L437.208 370.678Z" fill="#0C1E42"/>
<path d="M511.195 196.505C510.587 203.801 508.244 213.983 500.267 217.582C487.224 223.475 471.23 213.383 471.23 213.383L468.288 185.392L508.755 178.226L509.938 182.984L511.276 188.326C511.459 191.051 511.432 193.785 511.195 196.505Z" fill="url(#paint10_linear_49_303)"/>
<path d="M552.651 372.64C544.714 376.612 533.195 379.166 522.317 380.795C512.426 382.246 502.466 383.177 492.477 383.583L489.089 370.54L486.17 299.821L484.484 217.768C512.257 209.354 511.835 187.053 514.364 187.475C516.894 187.896 551.394 206.833 551.394 206.833C551.394 206.833 547.179 247.227 546.765 259.005C546.622 261.881 546.848 264.763 547.438 267.582C548.727 273.548 551.491 278.12 553.923 288.885C557.279 304.052 552.651 372.64 552.651 372.64Z" fill="#F0EBFF"/>
<path d="M552.651 372.64C544.714 376.612 533.195 379.166 522.317 380.795C527.813 369.738 527.683 352.901 526.564 343.611C525.3 333.073 540.451 325.518 538.773 317.947C537.095 310.375 534.136 309.524 531.615 303.217C529.094 296.911 531.193 289.753 538.343 283.016C545.493 276.28 543.539 261.559 543.539 261.559L547.438 267.606C548.727 273.572 551.491 278.144 553.923 288.91C557.279 304.052 552.651 372.64 552.651 372.64Z" fill="url(#paint11_linear_49_303)"/>
<path d="M531.477 334.021L524.757 339.355L519.99 343.846L517.088 347.21C517.088 347.21 515.224 350.453 516.715 352.163C518.207 353.874 521.765 348.516 521.765 348.516C521.765 348.516 528.591 344.033 531.209 343.652C533.828 343.271 531.477 334.021 531.477 334.021Z" fill="url(#paint12_linear_49_303)"/>
<path d="M486.17 217.793C486.17 217.793 469.342 212.329 460.506 187.499C460.506 187.499 435.676 204.75 431.469 208.957C427.262 213.164 432.28 241.779 433.155 252.731C434.031 263.683 436.519 272.502 436.098 273.767C435.676 275.032 428.105 342.355 434.833 371.854C434.833 371.854 473.549 385.318 495.428 379.003L486.17 217.793Z" fill="url(#paint13_linear_49_303)"/>
<path d="M481.533 369.373C480.261 373.426 457.814 371.546 455.504 368.441C455.068 367.84 454.789 367.14 454.693 366.403C454.596 365.667 454.686 364.918 454.953 364.226C455.278 363.281 455.766 362.4 456.396 361.623C455.834 361.01 455.372 360.312 455.026 359.556C454.466 358.308 454.329 356.76 456.128 355.738C456.128 355.738 470.136 350.469 476.921 354.06C483.706 357.651 478.177 363.245 478.177 363.245C478.177 363.245 482.798 365.328 481.533 369.373Z" fill="#F95D6C"/>
<path d="M476.249 354.611C476.249 354.611 472.463 352.909 470.315 354.911C468.167 356.914 468.037 358.786 468.037 358.786C468.037 358.786 464.203 359.548 464.494 362.839C464.786 366.13 467.972 367.419 467.972 367.419C467.972 367.419 466.059 368.044 469.261 369.851C472.463 371.659 480.61 373.037 480.61 368.781C480.677 367.646 480.334 366.525 479.643 365.622C478.953 364.719 477.961 364.094 476.848 363.861C477.628 363.411 478.25 362.731 478.629 361.914C479.008 361.097 479.125 360.183 478.964 359.297C478.911 358.357 478.638 357.444 478.166 356.63C477.694 355.816 477.037 355.124 476.249 354.611Z" fill="#722B36"/>
<g style="mix-blend-mode:multiply">
<path d="M454.953 364.226C455.278 363.281 455.766 362.4 456.396 361.624C455.834 361.01 455.372 360.313 455.026 359.557H455.115C457.625 360.866 460.338 361.743 463.14 362.151C463.14 362.151 457.814 362.888 454.953 364.226Z" fill="#F95D6C"/>
</g>
<path d="M516.464 346.554L518.15 357.903L521.093 357.481L521.514 354.814C521.514 354.814 545.639 352.852 550.13 354.109C554.62 355.365 554.758 348.921 553.072 345.84C551.386 342.76 516.464 346.554 516.464 346.554Z" fill="#7B4FC9"/>
<g style="mix-blend-mode:multiply">
<path d="M511.195 196.505C510.1 197.543 509.314 198.127 509.314 198.127C505.389 197.21 501.26 197.865 497.811 199.951C494.39 201.985 490.013 202.229 486.957 202.066C495.817 199.635 506.274 192.209 509.938 182.968L511.276 188.31C511.46 191.04 511.433 193.78 511.195 196.505Z" fill="#FFEBE5"/>
</g>
<path d="M438.343 268.011C437.815 269.311 437.066 270.509 436.13 271.554C431.46 276.985 422.146 280.973 418.425 283.997C416.075 285.91 413.951 290.288 412.143 293.976C410.522 297.332 409.111 300.121 408.049 299.991C405.804 299.707 408.86 296.343 405.804 292.411C402.748 288.48 382.798 283.997 372.698 287.645C362.597 291.293 364.251 298.305 361.203 293.254C358.155 288.204 362.013 277.852 367.088 275.023C372.163 272.194 375.502 261.243 384.2 256.508C392.899 251.774 395.703 248.653 409.168 228.177C422.633 207.7 434.411 207.692 434.411 207.692C435.822 209.938 441.148 260.716 438.343 268.011ZM618.652 290.012C617.72 293.481 616.155 295.159 615.912 293.814C615.345 290.733 604.969 289.331 591.22 288.764C577.472 288.196 571.027 296.343 571.027 296.343C571.027 296.343 569.066 291.576 566.82 286.526C564.575 281.476 560.084 275.299 556.444 270.257C552.804 265.215 545.217 263.772 543.539 261.559C541.861 259.346 538.772 252.861 539.332 236.307C539.891 219.754 548.305 206.314 548.305 206.314C549.302 206.484 550.291 206.687 551.248 206.938C572.438 212.272 584.743 234.84 590.418 245.565C596.311 256.792 605.56 255.949 614.818 269.973C620.022 277.933 619.876 285.489 618.652 290.012Z" fill="#F0EBFF"/>
<path d="M446.83 338.139L441.966 351.182C441.642 351.053 420.525 342.938 412.727 337.929C408.674 335.335 397.762 329.303 387.532 322.762C377.878 316.585 368.839 309.945 366.796 305.317C362.581 295.784 365.394 291.009 365.394 291.009C394.86 275.648 405.561 288.78 407.636 297.308C407.86 298.186 407.993 299.085 408.033 299.991C408.121 300.432 408.313 300.846 408.593 301.199C413.392 308.381 446.83 338.139 446.83 338.139ZM615.912 293.814C615.912 293.814 615.345 303.428 609.249 309.313C603.153 315.198 558.544 331.825 548.451 340.871L548.354 340.806L547.211 339.996L533.511 329.936L571.027 296.343C571.027 296.343 592.371 279.506 608.916 288.123C611.598 289.544 613.975 291.478 615.912 293.814Z" fill="url(#paint14_linear_49_303)"/>
<path d="M460.506 187.499L464.713 183.576C464.713 183.576 479.159 207.408 481.964 209.84L481.153 216.431C481.153 216.431 464.567 204.895 460.506 187.499ZM491.78 215.969L490.378 209.662C490.378 209.662 506.226 196.894 510.295 183.722L514.348 187.507C514.348 187.507 509.355 208.397 491.78 215.969Z" fill="url(#paint15_linear_49_303)"/>
<path d="M511.454 177.812C511.128 179.386 510.695 180.935 510.157 182.449C507.563 189.558 500.916 195.63 493.944 199.286C491.72 200.471 489.375 201.415 486.949 202.099C483.366 203.096 480.042 203.274 477.537 202.439C468.701 199.489 463.44 184.978 459.022 171.092C456.469 163.051 456.023 153.955 456.104 147.721C456.155 140.527 458.79 133.59 463.529 128.177C480.715 108.762 506.566 124.805 510.36 135.53C511.089 137.605 511.835 141.909 512.346 147.235C513.229 156.493 513.408 168.822 511.454 177.812Z" fill="url(#paint16_linear_49_303)"/>
<path d="M516.601 161.697C516.464 165.896 512.548 171.789 512.548 171.789C512.503 171.772 512.46 171.75 512.419 171.724C511.04 170.963 509.914 169.816 509.176 168.425C507.766 165.896 509.452 164.915 508.471 162.394C507.49 159.873 506.509 160.991 504.685 158.049C504.155 157.253 503.807 156.35 503.667 155.404C503.527 154.458 503.598 153.492 503.875 152.577C501.31 153.788 498.667 154.825 495.963 155.682C474.838 162.386 460.538 154.117 460.538 154.117C460.96 155.382 458.43 168.141 458.43 168.141C456.923 167.021 455.678 165.585 454.783 163.934C453.242 161.129 454.645 161.972 455.35 159.168C456.055 156.363 453.939 155.925 453.664 150.891C453.388 145.857 455.763 140.653 455.763 140.653C467.112 100.007 501.208 119.892 505.698 124.383C509.8 128.485 513.132 137.848 513.132 137.848C514.285 139.465 515.01 141.347 515.24 143.32C515.661 146.684 515.094 147.527 514.68 151.596C514.267 155.666 516.747 157.489 516.601 161.697Z" fill="#0C1E42"/>
<path d="M514.267 139.721C510.299 143.109 505.978 146.06 501.378 148.524C473.314 163.278 454.053 144.86 454.053 144.86L451.386 127.472C467.517 133.734 485.442 133.53 501.427 126.904C505.406 125.346 509.21 123.374 512.776 121.019L512.978 120.873V121.084L514.267 139.721Z" fill="url(#paint17_linear_49_303)"/>
<g style="mix-blend-mode:multiply">
<path d="M514.267 139.72C510.299 143.109 505.977 146.06 501.378 148.524C500.937 146.567 499.97 144.767 498.581 143.32C495.428 140.158 496.903 135.748 496.903 135.748L501.426 126.904L505.528 118.911L512.759 121.019L512.978 121.084L514.267 139.72Z" fill="#E0D1FC"/>
</g>
<path d="M444.885 118.49C444.885 118.49 439.089 119.147 439.834 126.596C440.58 134.046 449.189 139.777 459.006 132.109C459.006 132.109 458.536 144.082 470.598 143.052C482.66 142.023 483.317 133.422 483.317 133.422C483.317 133.422 485.189 142.679 496.781 138.748C508.373 134.816 504.734 126.783 504.734 126.783C504.734 126.783 514.267 130.52 519.131 124.724C523.994 118.928 520.444 115.653 520.444 115.653C520.444 115.653 520.817 107.546 515.345 106.12C509.873 104.693 509.354 105.025 509.354 105.025C509.354 105.025 503.883 96.919 490.418 101.661C489.244 100.665 487.842 99.9772 486.336 99.6588C484.83 99.3404 483.269 99.4017 481.793 99.8373C476.597 101.24 476.037 102.926 476.037 102.926C476.037 102.926 466.083 98.2971 459.906 106.979C459.906 106.987 444.423 104.328 444.885 118.49Z" fill="url(#paint18_linear_49_303)"/>
<path d="M486.17 217.793C483.212 248.459 483.212 279.514 484.103 310.57C484.103 321.221 484.103 331.873 485.879 342.995V347.429C486.316 350.542 486.316 353.647 487.013 356.622" stroke="#7B4FC9" stroke-width="2.09" stroke-miterlimit="10"/>
<path d="M494.763 230.844C494.708 231.414 494.489 231.957 494.131 232.405C493.774 232.853 493.294 233.188 492.75 233.368C492.206 233.549 491.621 233.567 491.067 233.422C490.512 233.276 490.012 232.973 489.627 232.548C489.242 232.124 488.988 231.597 488.897 231.031C488.806 230.465 488.881 229.885 489.113 229.361C489.345 228.837 489.725 228.391 490.206 228.079C490.686 227.767 491.247 227.601 491.821 227.601C492.641 227.641 493.411 228.005 493.963 228.613C494.515 229.221 494.803 230.024 494.763 230.844Z" fill="#0C1E42"/>
<path d="M436.13 271.554C431.461 276.985 422.147 280.974 418.426 283.997C416.075 285.91 413.951 290.288 412.144 293.976L405.804 284.249C405.804 284.249 412.743 284.881 413.165 277.934C413.587 270.987 405.594 260.473 411.9 261.721C418.207 262.969 418.426 269.503 422.439 267.395C426.451 265.288 424.546 263.602 428.964 260.027C433.382 256.452 435.693 256.03 436.746 251.823C437.508 248.751 437.362 262.321 436.13 271.554Z" fill="url(#paint19_linear_49_303)"/>
<path d="M446.83 338.139C446.83 338.139 463.854 342.347 467.655 344.868C469.819 346.248 471.622 348.123 472.916 350.339C472.916 350.339 474.181 357.497 459.873 359.175C445.566 360.853 441.991 351.183 441.991 351.183C441.991 351.183 441.78 338.139 446.83 338.139Z" fill="url(#paint20_linear_49_303)"/>
<path d="M468.012 345.216C468.012 345.216 474.498 348.37 475.592 349.634C476.686 350.899 477.213 356.363 477.213 356.363L476.646 361.275C476.646 361.275 476.929 363.658 475.835 363.585C474.741 363.512 474.149 363.375 473.59 360.78C473.03 358.186 472.114 355.309 471.555 355.033C470.996 354.757 466.367 355.106 466.156 352.366C465.945 349.626 465.135 345.362 468.012 345.216Z" fill="url(#paint21_linear_49_303)"/>
<path d="M463.586 346.902C463.586 346.902 470.071 350.064 471.166 351.32C472.26 352.577 472.787 358.057 472.787 358.057L472.219 362.961C472.219 362.961 472.503 365.352 471.409 365.279C470.315 365.206 469.723 365.069 469.163 362.475C468.604 359.881 467.688 357.003 467.129 356.727C466.569 356.452 461.941 356.792 461.73 354.06C461.519 351.328 460.717 347.048 463.586 346.902Z" fill="url(#paint22_linear_49_303)"/>
<path d="M460.36 349.148C460.36 349.148 466.845 352.301 467.939 353.566C469.034 354.83 469.561 360.302 469.561 360.302L468.993 365.206C468.993 365.206 469.277 367.59 468.183 367.525C467.088 367.46 466.496 367.314 465.937 364.72C465.378 362.126 464.462 359.248 463.902 358.965C463.343 358.681 458.714 359.038 458.504 356.306C458.293 353.574 457.474 349.269 460.36 349.148Z" fill="url(#paint23_linear_49_303)"/>
<path d="M454.896 349.221C454.896 349.221 461.341 352.374 462.467 353.639C463.594 354.903 464.089 360.367 464.089 360.367L463.529 365.279C463.529 365.279 463.805 367.663 462.719 367.59C461.632 367.517 461.032 367.379 460.473 364.785C459.914 362.191 458.998 359.321 458.438 359.037C457.879 358.754 453.25 359.11 453.04 356.371C452.829 353.631 452.018 349.359 454.896 349.221Z" fill="url(#paint24_linear_49_303)"/>
<path d="M495.712 278.671C495.657 279.241 495.438 279.784 495.08 280.232C494.723 280.68 494.244 281.014 493.7 281.195C493.157 281.376 492.573 281.395 492.018 281.25C491.464 281.105 490.964 280.803 490.578 280.379C490.193 279.955 489.938 279.429 489.846 278.863C489.754 278.298 489.828 277.718 490.059 277.194C490.29 276.67 490.669 276.224 491.148 275.91C491.628 275.597 492.188 275.43 492.761 275.429C493.582 275.469 494.353 275.832 494.907 276.44C495.46 277.048 495.749 277.85 495.712 278.671ZM496.693 326.499C496.638 327.069 496.418 327.611 496.061 328.059C495.704 328.507 495.225 328.842 494.681 329.023C494.138 329.203 493.553 329.222 492.999 329.078C492.445 328.933 491.945 328.63 491.559 328.206C491.174 327.783 490.919 327.256 490.827 326.691C490.735 326.125 490.809 325.545 491.04 325.021C491.271 324.497 491.65 324.051 492.129 323.738C492.609 323.425 493.169 323.257 493.742 323.256C494.149 323.275 494.548 323.374 494.916 323.547C495.285 323.72 495.616 323.964 495.89 324.265C496.164 324.567 496.376 324.919 496.514 325.302C496.651 325.685 496.712 326.092 496.693 326.499ZM509.598 263.804L533.439 260.432L534.282 266.05L511.835 269.689L509.598 263.804ZM365.2 299.821C365.2 299.821 356.574 296.246 358.463 289.096C360.352 281.946 361.406 280.26 361.406 280.26C361.406 280.26 395.704 269.317 406.639 280.26C417.575 291.204 415.483 293.336 415.483 293.336L408.115 300.421C408.115 300.421 407.693 286.599 393.175 284.289C383.382 282.724 373.59 286.624 368.256 289.323C367.366 289.769 366.575 290.388 365.928 291.144C365.281 291.9 364.792 292.778 364.49 293.726C364.188 294.674 364.079 295.673 364.168 296.664C364.258 297.655 364.545 298.618 365.013 299.496C365.062 299.61 365.127 299.732 365.2 299.821ZM620.817 286.591C619.599 290.144 617.826 293.482 615.564 296.481C613.72 293.322 611.019 290.75 607.774 289.064C603.691 286.991 599.053 286.279 594.536 287.029C579.385 289.137 571.028 296.359 571.028 296.359L566.334 289.558C566.334 289.558 584.841 276.093 600.624 277.561C616.407 279.028 620.817 286.591 620.817 286.591Z" fill="url(#paint25_linear_49_303)"/>
<path d="M465.135 349.918C465.135 349.918 469.342 356.654 480.277 359.175C491.213 361.696 518.15 357.919 518.15 357.919L516.464 346.57L465.135 349.918Z" fill="url(#paint26_linear_49_303)"/>
<path d="M547.836 357.311C547.644 357.628 547.39 357.904 547.09 358.122C542.85 361.429 526.954 360.618 525.568 357.116C524.092 353.331 524.66 357.076 526.378 345.711C528.097 334.346 533.536 329.936 533.536 329.936L547.406 339.445L548.217 340.028C548.217 340.028 548.265 340.312 548.33 340.839C548.76 343.668 549.992 353.72 547.836 357.311Z" fill="url(#paint27_linear_49_303)"/>
<path d="M524.603 354.62C524.43 356.44 524.984 358.255 526.143 359.67C528.105 362.102 531.193 359.743 531.688 358.616C532.182 357.489 525.089 355.041 524.603 354.62Z" fill="url(#paint28_linear_49_303)"/>
<path d="M530.285 357.424C530.749 359.193 531.895 360.705 533.471 361.632C536.154 363.253 538.238 359.97 538.335 358.746C538.432 357.522 530.893 357.643 530.285 357.424Z" fill="url(#paint29_linear_49_303)"/>
<path d="M536.6 357.278C537.061 359.048 538.204 360.563 539.777 361.494C542.469 363.115 544.552 359.824 544.641 358.608C544.73 357.392 537.208 357.505 536.6 357.278Z" fill="url(#paint30_linear_49_303)"/>
<path d="M539.964 356.014C540.427 357.785 541.572 359.301 543.15 360.229C545.833 361.85 548.232 357.311 548.305 356.095C548.378 354.879 540.572 356.241 539.964 356.014Z" fill="url(#paint31_linear_49_303)"/>
<path d="M490.24 352.35C490.24 352.35 485.279 351.418 483.69 354.036C482.717 355.657 482.879 356.679 483.13 357.279C483.159 357.342 483.172 357.412 483.171 357.481C483.169 357.551 483.152 357.62 483.121 357.682C483.09 357.745 483.046 357.8 482.992 357.844C482.937 357.887 482.874 357.919 482.806 357.935C481.967 358.076 481.21 358.524 480.682 359.192C480.155 359.861 479.895 360.701 479.953 361.551C480.083 364.323 483.414 366.22 483.414 366.22C483.269 366.803 483.288 367.414 483.47 367.987C483.651 368.559 483.989 369.07 484.444 369.462C486.065 370.678 492.858 371.335 493.417 368.717L493.977 366.098C493.977 366.098 497.341 366.001 497.625 361.234C497.908 356.468 494.163 356.557 494.163 356.557C494.163 356.557 495.006 353.006 490.24 352.35Z" stroke="url(#paint32_linear_49_303)" stroke-width="4.88" stroke-miterlimit="10"/>
<g style="mix-blend-mode:multiply" opacity="0.43">
<path d="M512.411 171.741C512.176 173.881 511.86 175.923 511.454 177.828C511.129 179.402 510.695 180.951 510.157 182.465C507.563 189.575 500.916 195.646 493.945 199.302C489.948 201.045 487.095 202.066 486.949 202.115C487.159 201.993 493.953 197.965 494.155 193.62C494.358 189.275 498.784 189.412 500.681 184.994C502.578 180.576 500.049 182.254 499.87 178.68C499.692 175.105 502.602 175.526 503.234 171.108C503.867 166.69 503.024 165.215 499.027 161.429C496.441 158.997 495.971 156.874 495.955 155.698C498.659 154.841 501.302 153.804 503.867 152.593C503.59 153.509 503.519 154.474 503.659 155.42C503.799 156.366 504.147 157.269 504.677 158.065C506.501 161.008 507.482 159.889 508.463 162.41C509.444 164.931 507.758 165.912 509.168 168.441C509.906 169.833 511.032 170.979 512.411 171.741Z" fill="url(#paint33_linear_49_303)"/>
</g>
<g style="mix-blend-mode:multiply">
<path d="M618.652 290.012L610.303 285.399C610.303 285.399 610.303 282.035 609.743 276.142C609.184 270.249 599.075 263.245 590.945 256.792C582.814 250.34 580.285 255.665 573.832 252.577C567.38 249.488 576.637 246.967 573.832 239.112C571.028 231.257 553.631 229.02 554.758 218.36C555.204 214.129 553.485 210.165 551.248 206.922C572.438 212.272 584.743 234.84 590.418 245.565C596.311 256.792 605.561 255.949 614.818 269.973C620.022 277.934 619.876 285.489 618.652 290.012Z" fill="url(#paint34_linear_49_303)"/>
</g>
<g style="mix-blend-mode:multiply" opacity="0.67">
<path d="M548.443 340.871L548.346 340.806C548.759 343.668 549.967 353.72 547.835 357.311C547.643 357.628 547.39 357.904 547.089 358.122C547.778 351.969 547.178 340.036 547.178 340.036V339.971C547.227 339.801 547.292 339.631 547.357 339.453C552.221 326.815 593.385 314.218 602.91 304.271C610.829 296.019 608.754 290.709 607.733 289.056C610.978 290.742 613.679 293.314 615.523 296.473C614.915 299.715 613.318 305.39 609.224 309.321C603.145 315.223 558.544 331.825 548.443 340.871ZM408.609 301.199C408.588 301.242 408.564 301.282 408.536 301.32C408.536 301.32 399.278 296.457 392.128 293.538C384.979 290.62 405.172 294.584 407.482 297.113C407.543 297.174 407.6 297.239 407.652 297.308C407.876 298.186 408.009 299.085 408.049 299.991C408.137 300.432 408.329 300.846 408.609 301.199Z" fill="#FFD8C6"/>
</g>
<g style="mix-blend-mode:multiply" opacity="0.43">
<path d="M441.983 351.183C441.658 351.053 420.541 342.938 412.743 337.929C408.69 335.335 397.779 329.304 387.549 322.762C397.779 327.95 413.157 335.732 421.157 337.929C433.366 341.293 441.14 348.791 441.983 351.183Z" fill="#FFB592"/>
</g>
<path d="M283.334 373.515H697.276V382.124H283.334V373.515Z" fill="#B6B0DE"/>
<path d="M445.785 371.886H527.01V373.677H445.785V371.886Z" fill="#0C1E42"/>
<path d="M395.193 367.363C393.62 370.905 386.762 373.905 380.334 373.402C376.151 373.078 372.155 371.278 369.909 367.177C369.388 366.231 368.983 365.227 368.701 364.185C366.691 356.89 370.655 354.458 374.943 353.866C377.696 353.569 380.479 353.712 383.187 354.287C384.575 353.976 385.997 353.843 387.419 353.89C395.59 354.231 397.641 361.851 395.193 367.363Z" fill="url(#paint35_linear_49_303)"/>
<g style="mix-blend-mode:multiply">
<path d="M395.193 367.363C393.62 370.905 386.762 373.905 380.334 373.402C382.101 370.751 386.876 371.456 386.876 368.635C386.876 365.814 390.402 366.69 391.286 360.861C391.877 356.962 389.219 354.879 387.395 353.931C395.59 354.23 397.641 361.85 395.193 367.363Z" fill="url(#paint36_linear_49_303)"/>
</g>
<g style="mix-blend-mode:screen">
<path d="M369.925 367.176C369.405 366.231 368.999 365.227 368.718 364.185C366.707 356.889 370.671 354.457 374.959 353.866C373.395 355.487 370.517 358.73 370.136 360.999C369.609 364.08 371.247 365.336 369.925 367.176Z" fill="#F95D6C"/>
</g>
<path d="M382.596 354.287C382.596 354.287 371.53 351.815 372.236 343.344C372.236 343.344 381.185 341.812 382.596 354.287Z" fill="#69DFD4"/>
<path d="M390.483 342.047C390.483 342.047 390.37 349.107 382.596 354.287C382.596 354.287 381.072 343.108 390.483 342.047Z" fill="#69DFD4"/>
<g style="mix-blend-mode:multiply">
<path d="M390.483 342.047C390.483 342.047 390.37 349.107 382.596 354.287L390.483 342.047ZM382.596 354.287C382.596 354.287 380.48 350.404 378.364 349.812C376.248 349.221 377.067 349.229 376.24 346.4C375.414 343.57 372.236 343.344 372.236 343.344C372.236 343.344 381.185 341.811 382.596 354.287Z" fill="#69DFD4"/>
</g>
<path d="M364.251 298.937V366.901C364.252 367.674 364.101 368.44 363.805 369.155C363.51 369.87 363.077 370.52 362.53 371.067C361.984 371.615 361.335 372.049 360.62 372.345C359.905 372.642 359.139 372.794 358.366 372.794H343.402C342.627 372.795 341.861 372.643 341.145 372.348C340.43 372.052 339.779 371.618 339.232 371.07C338.685 370.523 338.251 369.873 337.955 369.157C337.659 368.442 337.507 367.675 337.508 366.901V298.937C337.507 297.778 337.847 296.644 338.488 295.678C339.128 294.712 340.039 293.956 341.108 293.506C341.845 293.179 342.484 292.666 342.964 292.019C343.445 291.371 343.749 290.61 343.847 289.809L345.217 279.903H346.733V291.852H354.442V279.903H356.064L357.766 289.785C357.863 290.352 358.052 290.9 358.325 291.406C358.827 292.357 359.64 293.106 360.628 293.53C361.696 293.976 362.609 294.726 363.254 295.688C363.898 296.65 364.245 297.78 364.251 298.937Z" fill="url(#paint37_linear_49_303)"/>
<path opacity="0.47" d="M346.733 279.903H354.434V291.852H346.733V279.903Z" fill="#FEB500"/>
<path d="M355.075 272.656V278.769H354.434V279.903H346.733V278.769H345.671V272.656H355.075ZM340.005 319.779V367.582H361.527V320.232L340.005 319.779Z" fill="url(#paint38_linear_49_303)"/>
<g style="mix-blend-mode:multiply">
<path d="M364.251 298.937V366.901C364.252 367.674 364.1 368.44 363.805 369.155C363.51 369.87 363.076 370.52 362.53 371.067C361.983 371.615 361.334 372.049 360.62 372.345C359.905 372.642 359.139 372.794 358.366 372.794H347.292C349.878 370.467 351.848 367.387 352.01 360.335C352.237 350.364 351.329 340.879 355.861 332.919C360.392 324.958 356.315 316.382 354.239 309.581C353.259 306.338 352.432 298.953 352.27 291.852H354.401V279.903H356.023L357.725 289.785C357.822 290.352 358.011 290.9 358.284 291.406C358.787 292.357 359.599 293.106 360.587 293.53C361.662 293.97 362.584 294.718 363.236 295.68C363.888 296.642 364.241 297.775 364.251 298.937Z" fill="#F0EBFF"/>
</g>
<path d="M368.304 370.346C368.304 370.568 368.288 370.791 368.256 371.011C368.087 372.158 367.515 373.208 366.641 373.971C365.767 374.733 364.649 375.158 363.489 375.169H363.23L308.496 372.283L323.517 370.346L362.889 365.482C363.574 365.396 364.27 365.458 364.928 365.664C365.587 365.871 366.194 366.216 366.707 366.677C367.221 367.139 367.629 367.705 367.905 368.338C368.18 368.971 368.317 369.656 368.304 370.346Z" fill="url(#paint39_linear_49_303)"/>
<g style="mix-blend-mode:multiply" opacity="0.41">
<path d="M368.247 370.978C368.079 372.126 367.506 373.176 366.632 373.938C365.758 374.701 364.641 375.126 363.481 375.137H363.221L308.487 372.251C308.885 372.04 316.002 370.986 323.516 370.395C330.301 369.876 337.411 369.73 340.199 370.954C346.093 373.524 355.763 371.854 359.841 370.654C363.918 369.454 364.364 373.824 367.842 371.254C367.968 371.149 368.104 371.057 368.247 370.978Z" fill="#FC7E0D"/>
</g>
<path d="M366.334 368.068L378.413 365.044L378.721 367.16L369.658 369.122L376.751 369.276L376.605 370.938L370.712 370.63L378.413 373.499L376.751 375.615L366.334 372.292C366.334 372.292 364.251 370.484 366.334 368.068Z" fill="#69DFD4"/>
<path d="M591.528 358.186C590.511 358.164 589.516 357.885 588.634 357.376C585.238 355.479 584.8 352.82 585.132 351.126C584.534 350.637 584.04 350.033 583.681 349.349C583.321 348.665 583.104 347.916 583.041 347.146V346.983L583.082 346.821C583.146 346.529 584.849 339.526 590.321 339.323C591.014 339.283 591.706 339.437 592.317 339.768C592.928 340.099 593.436 340.593 593.782 341.195C593.952 341.082 594.131 340.944 594.252 340.855C594.603 340.56 594.997 340.32 595.419 340.142C597.204 339.601 599.128 339.776 600.786 340.628C601.386 340.838 601.924 341.196 602.349 341.67C602.774 342.143 603.073 342.716 603.218 343.336C603.336 344.128 603.191 344.937 602.804 345.638C603.892 346.073 604.805 346.857 605.398 347.867C605.574 348.238 605.666 348.644 605.666 349.055C605.666 349.465 605.574 349.871 605.398 350.242C604.28 352.804 599.943 356.962 596.716 356.16L595.282 355.754C594.821 356.699 594.047 357.455 593.093 357.895C592.597 358.099 592.064 358.198 591.528 358.186ZM585.27 347.121C585.353 347.647 585.548 348.148 585.841 348.592C586.135 349.035 586.521 349.41 586.973 349.691L587.832 350.202L587.427 351.11C587.329 351.353 586.494 353.59 589.713 355.39C590.065 355.644 590.47 355.817 590.898 355.894C591.326 355.971 591.766 355.951 592.185 355.836C592.827 355.46 593.298 354.849 593.498 354.133L593.782 353.071L597.26 353.939C598.929 354.36 602.431 351.434 603.38 349.286C603.421 349.204 603.442 349.114 603.442 349.022C603.442 348.931 603.421 348.841 603.38 348.759C603.064 348.078 601.661 347.421 600.761 347.137L598.938 346.619L600.275 345.281C600.502 345.046 601.134 344.243 601.013 343.611C600.924 343.133 600.332 342.801 599.845 342.541C598.696 341.929 597.354 341.784 596.1 342.136C596.044 342.136 595.76 342.387 595.565 342.525C594.755 343.141 593.725 343.903 592.769 343.336C592.434 343.115 592.156 342.817 591.958 342.468C591.829 342.151 591.602 341.883 591.311 341.702C591.02 341.521 590.679 341.438 590.337 341.463C586.973 341.617 585.554 346.221 585.27 347.137V347.121Z" fill="#F95D6C"/>
<path d="M697.276 380.957V402.998C697.277 405.28 696.828 407.54 695.956 409.649C695.083 411.757 693.804 413.673 692.19 415.287C690.577 416.901 688.662 418.182 686.554 419.055C684.445 419.929 682.186 420.378 679.904 420.378H300.705C296.999 420.375 293.39 419.189 290.405 416.991C287.42 414.794 285.215 411.7 284.112 408.162C284.108 408.124 284.108 408.086 284.112 408.048C283.615 406.411 283.363 404.709 283.366 402.998V380.957H697.276Z" fill="url(#paint40_linear_49_303)"/>
<path d="M676.888 345.151C676.887 345.36 676.839 345.566 676.746 345.753C676.653 345.94 676.519 346.103 676.353 346.229C675.251 347.194 672.819 347.535 672.811 350.283C672.811 353.793 653.777 358.097 645.249 357.416C636.721 356.735 626.45 354.928 626.45 354.928L626.677 354.692C628.38 353.023 639.226 342.59 647.973 340.101C657.49 337.377 656.128 345.873 664.291 342.136C672.454 338.399 676.888 343.117 676.888 345.151Z" fill="#69DFD4"/>
<g style="mix-blend-mode:multiply">
<path d="M676.345 346.229C675.243 347.194 672.811 347.534 672.803 350.283C672.803 353.793 653.769 358.097 645.241 357.416C636.713 356.735 626.442 354.927 626.442 354.927L626.669 354.692C629.596 355.227 637.483 356.314 641.844 353.566C647.284 350.169 648.192 344.276 650.907 348.134C653.623 351.993 656.347 354.02 660.197 350.623C664.048 347.226 665.41 345.638 667.493 346.319C670.404 347.038 673.449 347.007 676.345 346.229Z" fill="#69DFD4"/>
</g>
<path d="M591.528 358.186C590.511 358.164 589.516 357.885 588.634 357.376C585.238 355.479 584.8 352.82 585.132 351.126C584.534 350.637 584.04 350.033 583.681 349.349C583.321 348.665 583.104 347.916 583.041 347.146V346.983L583.082 346.821C583.146 346.529 584.849 339.526 590.321 339.323C591.014 339.283 591.706 339.437 592.317 339.768C592.928 340.099 593.436 340.593 593.782 341.195C593.952 341.082 594.131 340.944 594.252 340.855C594.603 340.56 594.997 340.32 595.419 340.142C597.204 339.601 599.128 339.776 600.786 340.628C601.386 340.838 601.924 341.196 602.349 341.67C602.774 342.143 603.073 342.716 603.218 343.336C603.336 344.128 603.191 344.937 602.804 345.638C603.892 346.073 604.805 346.857 605.398 347.867C605.574 348.238 605.666 348.644 605.666 349.055C605.666 349.465 605.574 349.871 605.398 350.242C604.28 352.804 599.943 356.962 596.716 356.16L595.282 355.754C594.821 356.699 594.047 357.455 593.093 357.895C592.597 358.099 592.064 358.198 591.528 358.186ZM585.27 347.121C585.353 347.647 585.548 348.148 585.841 348.592C586.135 349.035 586.521 349.41 586.973 349.691L587.832 350.202L587.427 351.11C587.329 351.353 586.494 353.59 589.713 355.39C590.065 355.644 590.47 355.817 590.898 355.894C591.326 355.971 591.766 355.951 592.185 355.836C592.827 355.46 593.298 354.849 593.498 354.133L593.782 353.071L597.26 353.939C598.929 354.36 602.431 351.434 603.38 349.286C603.421 349.204 603.442 349.114 603.442 349.022C603.442 348.931 603.421 348.841 603.38 348.759C603.064 348.078 601.661 347.421 600.761 347.137L598.938 346.619L600.275 345.281C600.502 345.046 601.134 344.243 601.013 343.611C600.924 343.133 600.332 342.801 599.845 342.541C598.696 341.929 597.354 341.784 596.1 342.136C596.044 342.136 595.76 342.387 595.565 342.525C594.755 343.141 593.725 343.903 592.769 343.336C592.434 343.115 592.156 342.817 591.958 342.468C591.829 342.151 591.602 341.883 591.311 341.702C591.02 341.521 590.679 341.438 590.337 341.463C586.973 341.617 585.554 346.221 585.27 347.137V347.121Z" fill="#F95D6C"/>
<path d="M621.222 348.929C618.733 348.783 622.519 352.852 620.695 354.198C620.637 354.25 620.571 354.294 620.501 354.328C618.231 355.536 610.497 357.238 606.72 353.914C602.942 350.591 591.61 353.614 591.61 350.591C591.61 347.567 587.71 346.7 590.799 343.408C590.865 343.331 590.935 343.258 591.01 343.19C594.479 339.712 598.865 339.866 604.45 342.736C610.035 345.605 609.314 341.528 615.329 342.89C621.344 344.252 622.033 348.978 621.222 348.929Z" fill="#69DFD4"/>
<g style="mix-blend-mode:multiply">
<path d="M620.663 354.198C620.604 354.251 620.539 354.294 620.468 354.328C618.198 355.536 610.465 357.238 606.687 353.914C602.91 350.591 591.577 353.614 591.577 350.591C591.577 347.567 587.678 346.7 590.766 343.409C592.307 343.741 594.406 344.608 595.055 346.813C596.117 350.437 601.702 345.459 606.087 348.175C610.473 350.891 607.141 353.46 611.519 354.068C614.557 354.372 617.616 354.415 620.663 354.198Z" fill="#69DFD4"/>
</g>
<path d="M660.514 356.16C659.494 356.126 658.5 355.83 657.628 355.301C654.231 353.404 653.785 350.745 654.118 349.059C653.519 348.569 653.026 347.963 652.668 347.278C652.31 346.592 652.094 345.842 652.034 345.07V344.754C652.107 344.454 653.802 337.459 659.273 337.248C659.969 337.209 660.662 337.365 661.275 337.697C661.887 338.029 662.396 338.524 662.743 339.128L663.213 338.78C663.562 338.486 663.953 338.246 664.372 338.067C666.157 337.526 668.083 337.703 669.739 338.561C670.338 338.77 670.875 339.127 671.3 339.599C671.726 340.071 672.025 340.642 672.171 341.26C672.289 342.055 672.144 342.867 671.757 343.571C672.845 344.005 673.758 344.79 674.351 345.8C674.525 346.17 674.616 346.574 674.616 346.984C674.616 347.393 674.525 347.797 674.351 348.167C673.232 350.729 668.896 354.895 665.661 354.085L664.178 353.712C663.723 354.658 662.951 355.415 661.997 355.852C661.527 356.049 661.023 356.154 660.514 356.16ZM654.264 345.103C654.349 345.627 654.545 346.128 654.839 346.571C655.132 347.014 655.516 347.389 655.966 347.673L656.825 348.175L656.42 349.091C656.315 349.326 655.488 351.564 658.706 353.363C659.057 353.62 659.462 353.794 659.891 353.871C660.319 353.948 660.759 353.927 661.178 353.809C661.82 353.44 662.291 352.835 662.492 352.123L662.767 351.061L666.253 351.937C667.923 352.358 671.425 349.432 672.365 347.275C672.408 347.196 672.43 347.106 672.43 347.016C672.43 346.925 672.408 346.836 672.365 346.757C672.041 346.076 670.638 345.419 669.747 345.135L667.923 344.625L669.26 343.279C669.702 342.851 669.966 342.272 669.998 341.658C669.909 341.171 669.309 340.807 668.823 340.58C667.675 339.969 666.336 339.827 665.086 340.182C665.021 340.182 664.737 340.426 664.551 340.563C663.74 341.179 662.71 341.941 661.754 341.374C661.433 341.148 661.17 340.851 660.984 340.507C660.603 339.923 660.311 339.461 659.363 339.501C655.966 339.542 654.515 344.179 654.264 345.103ZM619.447 335.748C619.447 335.748 612.654 361.429 642.218 346.4L619.447 335.748Z" fill="#F95D6C"/>
<g style="mix-blend-mode:multiply">
<path d="M639.534 345.216C616.731 356.808 621.976 337.004 621.976 337.004L626.783 339.25L630.56 341.009L639.534 345.216Z" fill="#F95D6C"/>
</g>
<path d="M622.689 339.672C622.674 339.787 622.686 339.904 622.726 340.013C622.765 340.122 622.829 340.221 622.914 340.3C622.999 340.379 623.102 340.437 623.213 340.469C623.325 340.5 623.443 340.505 623.557 340.482L626.418 339.89L623.621 339.08C623.521 339.048 623.415 339.039 623.311 339.052C623.206 339.066 623.106 339.102 623.018 339.159C622.929 339.215 622.853 339.29 622.797 339.379C622.74 339.467 622.703 339.567 622.689 339.672ZM626.588 340.847L623.654 342.039C623.455 342.118 623.291 342.265 623.191 342.453C623.09 342.641 623.059 342.859 623.103 343.068C623.138 343.24 623.222 343.399 623.345 343.524C623.468 343.649 623.626 343.736 623.797 343.774C623.969 343.812 624.148 343.799 624.312 343.737C624.477 343.675 624.62 343.566 624.724 343.425L626.588 340.847ZM627.212 341.301L624.999 345.159C624.915 345.303 624.864 345.464 624.849 345.63C624.835 345.795 624.859 345.962 624.918 346.118C624.977 346.274 625.07 346.414 625.191 346.529C625.312 346.644 625.457 346.73 625.616 346.781C625.78 346.835 625.955 346.85 626.127 346.825C626.298 346.8 626.462 346.735 626.604 346.636C626.746 346.537 626.864 346.406 626.947 346.254C627.03 346.102 627.076 345.933 627.083 345.759L627.212 341.301ZM628.339 341.641L628.25 346.205C628.248 346.356 628.278 346.505 628.338 346.643C628.398 346.78 628.488 346.903 628.6 347.003C628.713 347.103 628.845 347.178 628.989 347.222C629.133 347.266 629.284 347.279 629.434 347.259C629.596 347.239 629.751 347.18 629.886 347.088C630.021 346.997 630.133 346.874 630.212 346.731C630.291 346.588 630.335 346.429 630.341 346.265C630.346 346.102 630.313 345.94 630.244 345.792L628.339 341.641ZM629.701 342.039L631.574 345.881C631.664 346.071 631.822 346.222 632.016 346.303C632.211 346.383 632.429 346.389 632.628 346.319C632.768 346.269 632.893 346.183 632.991 346.07C633.088 345.957 633.154 345.82 633.183 345.674C633.211 345.528 633.201 345.376 633.154 345.235C633.106 345.093 633.023 344.967 632.911 344.868L629.701 342.039ZM631.574 342.663L635.084 344.884C635.18 344.944 635.294 344.97 635.407 344.959C635.52 344.947 635.626 344.898 635.708 344.819C635.764 344.758 635.803 344.685 635.824 344.605C635.845 344.526 635.845 344.442 635.826 344.362C635.807 344.282 635.768 344.208 635.714 344.146C635.659 344.084 635.59 344.037 635.513 344.008L631.574 342.663Z" fill="#FEB500"/>
<path d="M630.56 340.993C628.007 342.12 627.091 340.28 626.783 339.234L630.56 340.993Z" fill="#F95D6C"/>
<path d="M676.661 348.783L672.949 357.278C670.823 362.153 667.313 366.297 662.855 369.196C658.397 372.095 653.186 373.622 647.868 373.588L622.081 373.426L608.9 373.345C604.147 373.316 599.485 372.041 595.378 369.647C591.272 367.253 587.865 363.824 585.497 359.702L579.231 348.783H676.661Z" fill="url(#paint41_linear_49_303)"/>
<g style="mix-blend-mode:multiply" opacity="0.53">
<path d="M676.661 348.783L672.949 357.278C670.823 362.153 667.313 366.297 662.855 369.196C658.397 372.095 653.186 373.622 647.868 373.588L622.081 373.426C623.416 372.794 624.919 372.129 626.588 371.432C644.601 363.958 633.073 359.881 642.898 360.221C649.116 360.44 652.772 353.736 654.612 348.783H676.661Z" fill="url(#paint42_linear_49_303)"/>
</g>
<g style="mix-blend-mode:multiply">
<path d="M697.276 380.957V402.998C697.277 405.28 696.828 407.54 695.956 409.649C695.083 411.757 693.804 413.673 692.191 415.287C690.577 416.901 688.662 418.182 686.554 419.055C684.446 419.929 682.186 420.378 679.904 420.378H528.413C524.911 417.946 521.612 415.514 518.515 413.082C488.157 389.971 455.983 402.666 399.789 405.381C343.596 408.097 283.334 380.957 283.334 380.957H697.276Z" fill="#7525E9" fill-opacity="0.12"/>
</g>
<path d="M322.836 186.543H300.016C297.809 186.543 296.02 188.332 296.02 190.539V190.701C296.02 192.908 297.809 194.698 300.016 194.698H322.836C325.043 194.698 326.832 192.908 326.832 190.701V190.539C326.832 188.332 325.043 186.543 322.836 186.543Z" fill="#F1EDFF" fill-opacity="0.66"/>
<defs>
<linearGradient id="paint0_linear_49_303" x1="490" y1="-49" x2="490" y2="549" gradientUnits="userSpaceOnUse">
<stop offset="0.0239582" stop-color="#46BBFD"/>
<stop offset="1" stop-color="#003397"/>
</linearGradient>
<linearGradient id="paint1_linear_49_303" x1="799" y1="461.055" x2="807.43" y2="461.055" gradientUnits="userSpaceOnUse">
<stop stop-color="white"/>
<stop offset="1" stop-color="white" stop-opacity="0.82"/>
</linearGradient>
<linearGradient id="paint2_linear_49_303" x1="807.43" y1="470.528" x2="832.717" y2="470.528" gradientUnits="userSpaceOnUse">
<stop stop-color="white"/>
<stop offset="1" stop-color="white" stop-opacity="0.82"/>
</linearGradient>
<linearGradient id="paint3_linear_49_303" x1="807.573" y1="451.543" x2="832.654" y2="451.543" gradientUnits="userSpaceOnUse">
<stop stop-color="white"/>
<stop offset="1" stop-color="white" stop-opacity="0.82"/>
</linearGradient>
<linearGradient id="paint4_linear_49_303" x1="310.86" y1="307.655" x2="333.112" y2="312.54" gradientUnits="userSpaceOnUse">
<stop stop-color="#E0D1FC"/>
<stop offset="1" stop-color="white"/>
</linearGradient>
<linearGradient id="paint5_linear_49_303" x1="314.308" y1="251.953" x2="314.308" y2="295.208" gradientUnits="userSpaceOnUse">
<stop stop-color="#0C1E42"/>
<stop offset="1" stop-color="#1246B0"/>
</linearGradient>
<linearGradient id="paint6_linear_49_303" x1="620.195" y1="244.387" x2="620.195" y2="327.511" gradientUnits="userSpaceOnUse">
<stop stop-color="#9D79DD"/>
<stop offset="1" stop-color="#CBAEFF"/>
</linearGradient>
<linearGradient id="paint7_linear_49_303" x1="619.96" y1="313.366" x2="619.948" y2="326.108" gradientUnits="userSpaceOnUse">
<stop stop-color="#9D79DD"/>
<stop offset="1" stop-color="#EFE7FF"/>
</linearGradient>
<linearGradient id="paint8_linear_49_303" x1="654.377" y1="244.698" x2="654.377" y2="326.315" gradientUnits="userSpaceOnUse">
<stop stop-color="#9D79DD"/>
<stop offset="1" stop-color="#CBAEFF"/>
</linearGradient>
<linearGradient id="paint9_linear_49_303" x1="658.743" y1="309.283" x2="658.731" y2="326.315" gradientUnits="userSpaceOnUse">
<stop stop-color="#9D79DD"/>
<stop offset="1" stop-color="#EFE7FF"/>
</linearGradient>
<linearGradient id="paint10_linear_49_303" x1="489.842" y1="178.226" x2="489.842" y2="219.429" gradientUnits="userSpaceOnUse">
<stop offset="0.191016" stop-color="white"/>
<stop offset="0.902394" stop-color="#FFD0D0"/>
</linearGradient>
<linearGradient id="paint11_linear_49_303" x1="542.214" y1="286.176" x2="517.648" y2="296.784" gradientUnits="userSpaceOnUse">
<stop stop-color="#E0D1FC"/>
<stop offset="1" stop-color="#E0D1FC" stop-opacity="0"/>
<stop offset="1" stop-color="white"/>
</linearGradient>
<linearGradient id="paint12_linear_49_303" x1="524.292" y1="334.021" x2="524.292" y2="352.5" gradientUnits="userSpaceOnUse">
<stop stop-color="white"/>
<stop offset="1" stop-color="#FFD0D0"/>
</linearGradient>
<linearGradient id="paint13_linear_49_303" x1="489.957" y1="277.806" x2="425.374" y2="317.967" gradientUnits="userSpaceOnUse">
<stop stop-color="#EEE9FF"/>
<stop offset="1" stop-color="white"/>
</linearGradient>
<linearGradient id="paint14_linear_49_303" x1="490.193" y1="283.92" x2="492.128" y2="339.676" gradientUnits="userSpaceOnUse">
<stop stop-color="#FCC9C9"/>
<stop offset="1" stop-color="#FCF1F1"/>
</linearGradient>
<linearGradient id="paint15_linear_49_303" x1="487.427" y1="183.576" x2="487.427" y2="216.431" gradientUnits="userSpaceOnUse">
<stop stop-color="#0C2D71"/>
<stop offset="1" stop-color="#3B6BC9"/>
</linearGradient>
<linearGradient id="paint16_linear_49_303" x1="494.842" y1="149.724" x2="474.219" y2="205.082" gradientUnits="userSpaceOnUse">
<stop stop-color="white"/>
<stop offset="1" stop-color="#FFD0D0"/>
</linearGradient>
<linearGradient id="paint17_linear_49_303" x1="482.827" y1="120.873" x2="482.827" y2="154.25" gradientUnits="userSpaceOnUse">
<stop offset="0.343349" stop-color="#CCB4F9"/>
<stop offset="1" stop-color="white"/>
</linearGradient>
<linearGradient id="paint18_linear_49_303" x1="447.083" y1="105.764" x2="519.807" y2="127.473" gradientUnits="userSpaceOnUse">
<stop stop-color="#D5E0FF"/>
<stop offset="1" stop-color="white"/>
</linearGradient>
<linearGradient id="paint19_linear_49_303" x1="424.842" y1="260.174" x2="412.912" y2="273.972" gradientUnits="userSpaceOnUse">
<stop stop-color="#E0D1FC"/>
<stop offset="1" stop-color="#E0D1FC" stop-opacity="0"/>
<stop offset="1" stop-color="white"/>
</linearGradient>
<linearGradient id="paint20_linear_49_303" x1="444.912" y1="336.962" x2="457.467" y2="359.371" gradientUnits="userSpaceOnUse">
<stop stop-color="white"/>
<stop offset="0.909248" stop-color="#FFD0D0"/>
</linearGradient>
<linearGradient id="paint21_linear_49_303" x1="471.551" y1="345.216" x2="471.551" y2="363.587" gradientUnits="userSpaceOnUse">
<stop offset="0.29968" stop-color="#FFD0D0"/>
<stop offset="1" stop-color="#FFF5F5"/>
</linearGradient>
<linearGradient id="paint22_linear_49_303" x1="467.126" y1="346.902" x2="467.126" y2="365.281" gradientUnits="userSpaceOnUse">
<stop offset="0.0700924" stop-color="#FFD0D0"/>
<stop offset="1" stop-color="#FFF5F5"/>
</linearGradient>
<linearGradient id="paint23_linear_49_303" x1="463.898" y1="349.148" x2="463.898" y2="367.526" gradientUnits="userSpaceOnUse">
<stop stop-color="#FFD0D0"/>
<stop offset="1" stop-color="#FFF5F5"/>
</linearGradient>
<linearGradient id="paint24_linear_49_303" x1="458.431" y1="349.221" x2="458.431" y2="367.591" gradientUnits="userSpaceOnUse">
<stop offset="0.061035" stop-color="#FFD0D0"/>
<stop offset="1" stop-color="#FFF5F5"/>
</linearGradient>
<linearGradient id="paint25_linear_49_303" x1="297.292" y1="272.921" x2="645.175" y2="269.122" gradientUnits="userSpaceOnUse">
<stop stop-color="#07183B"/>
<stop offset="0.539527" stop-color="#1E5EDE"/>
<stop offset="1" stop-color="#091A3D"/>
</linearGradient>
<linearGradient id="paint26_linear_49_303" x1="497.268" y1="349.352" x2="496.064" y2="356.783" gradientUnits="userSpaceOnUse">
<stop stop-color="#E0D1FC"/>
<stop offset="1" stop-color="#E0D1FC" stop-opacity="0"/>
<stop offset="1" stop-color="white"/>
</linearGradient>
<linearGradient id="paint27_linear_49_303" x1="524.691" y1="344.017" x2="550.199" y2="341.847" gradientUnits="userSpaceOnUse">
<stop stop-color="#FFD0D0"/>
<stop offset="0.913733" stop-color="white"/>
</linearGradient>
<linearGradient id="paint28_linear_49_303" x1="528.142" y1="354.62" x2="528.142" y2="360.73" gradientUnits="userSpaceOnUse">
<stop offset="0.206819" stop-color="#FFD0D0"/>
<stop offset="1" stop-color="white"/>
</linearGradient>
<linearGradient id="paint29_linear_49_303" x1="534.46" y1="355.415" x2="534.311" y2="362.072" gradientUnits="userSpaceOnUse">
<stop stop-color="#FFD0D0"/>
<stop offset="1" stop-color="white"/>
</linearGradient>
<linearGradient id="paint30_linear_49_303" x1="540.43" y1="355.415" x2="540.621" y2="361.934" gradientUnits="userSpaceOnUse">
<stop stop-color="#FFD0D0"/>
<stop offset="1" stop-color="white"/>
</linearGradient>
<linearGradient id="paint31_linear_49_303" x1="543.686" y1="353.786" x2="544.135" y2="360.575" gradientUnits="userSpaceOnUse">
<stop stop-color="#FFD0D0"/>
<stop offset="1" stop-color="white"/>
</linearGradient>
<linearGradient id="paint32_linear_49_303" x1="488.792" y1="352.189" x2="488.792" y2="370.528" gradientUnits="userSpaceOnUse">
<stop stop-color="#EA3344"/>
<stop offset="1" stop-color="#FFA6AE"/>
</linearGradient>
<linearGradient id="paint33_linear_49_303" x1="499.68" y1="152.593" x2="499.68" y2="202.115" gradientUnits="userSpaceOnUse">
<stop stop-color="#FFF0E9"/>
<stop offset="1" stop-color="#FED7C4"/>
</linearGradient>
<linearGradient id="paint34_linear_49_303" x1="592.531" y1="224.077" x2="569.737" y2="253.384" gradientUnits="userSpaceOnUse">
<stop stop-color="#E0D1FC"/>
<stop offset="1" stop-color="#E0D1FC" stop-opacity="0"/>
<stop offset="1" stop-color="white"/>
</linearGradient>
<linearGradient id="paint35_linear_49_303" x1="376.529" y1="353.786" x2="389.012" y2="371.153" gradientUnits="userSpaceOnUse">
<stop stop-color="#F95D6C"/>
<stop offset="1" stop-color="#FFBBC2"/>
</linearGradient>
<linearGradient id="paint36_linear_49_303" x1="388.248" y1="353.931" x2="388.248" y2="373.457" gradientUnits="userSpaceOnUse">
<stop stop-color="#F95D6C"/>
<stop offset="1" stop-color="#F8D0D4"/>
</linearGradient>
<linearGradient id="paint37_linear_49_303" x1="336.911" y1="327.736" x2="364.047" y2="327.736" gradientUnits="userSpaceOnUse">
<stop stop-color="#DDD1FF"/>
<stop offset="1" stop-color="white"/>
</linearGradient>
<linearGradient id="paint38_linear_49_303" x1="337.996" y1="344.017" x2="364.047" y2="347.274" gradientUnits="userSpaceOnUse">
<stop stop-color="#FEB500"/>
<stop offset="1" stop-color="#FFE197"/>
</linearGradient>
<linearGradient id="paint39_linear_49_303" x1="338.4" y1="365.445" x2="338.4" y2="375.169" gradientUnits="userSpaceOnUse">
<stop stop-color="#FC7E0D"/>
<stop offset="1" stop-color="#FFE6CF"/>
</linearGradient>
<linearGradient id="paint40_linear_49_303" x1="490.321" y1="380.957" x2="490.321" y2="420.378" gradientUnits="userSpaceOnUse">
<stop stop-color="#F0F2FC"/>
<stop offset="1" stop-color="#C3B9FF"/>
</linearGradient>
<linearGradient id="paint41_linear_49_303" x1="627.946" y1="348.783" x2="627.946" y2="373.589" gradientUnits="userSpaceOnUse">
<stop stop-color="#2469CE"/>
<stop offset="1" stop-color="#89B9FF"/>
</linearGradient>
<linearGradient id="paint42_linear_49_303" x1="649.371" y1="348.783" x2="649.371" y2="373.589" gradientUnits="userSpaceOnUse">
<stop stop-color="#2369CE"/>
<stop offset="0.984375" stop-color="#6491D2"/>
</linearGradient>
<clipPath id="clip0_49_303">
<rect width="160.567" height="38" fill="white" transform="translate(799 442)"/>
</clipPath>
</defs>
</svg>
