<svg width="980" height="500" viewBox="0 0 980 500" fill="none" xmlns="http://www.w3.org/2000/svg">
<rect width="980" height="500" fill="url(#paint0_linear_75_1266)"/>
<g clip-path="url(#clip0_75_1266)">
<path d="M848.688 467.15C847.638 467.181 846.599 466.917 845.691 466.387C844.86 465.875 844.194 465.133 843.775 464.251C843.312 463.258 843.084 462.171 843.107 461.076C843.084 459.979 843.312 458.892 843.775 457.898C844.194 457.015 844.86 456.273 845.691 455.762C846.599 455.232 847.638 454.967 848.688 454.998C849.89 454.954 851.072 455.308 852.051 456.005C852.958 456.686 853.624 457.638 853.952 458.723L851.983 459.267C851.794 458.566 851.388 457.942 850.824 457.485C850.206 457.035 849.452 456.811 848.688 456.852C847.998 456.826 847.316 457.009 846.731 457.378C846.199 457.743 845.79 458.261 845.558 458.863C845.282 459.575 845.146 460.333 845.157 461.097C845.14 461.859 845.274 462.617 845.549 463.327C845.785 463.932 846.199 464.45 846.737 464.813C847.323 465.181 848.006 465.364 848.697 465.338C849.459 465.372 850.208 465.143 850.821 464.691C851.384 464.233 851.79 463.609 851.98 462.909L853.952 463.425C853.627 464.509 852.965 465.461 852.063 466.143C851.08 466.843 849.894 467.197 848.688 467.15Z" fill="white"/>
<path d="M856.094 466.91V455.239H860.914C861.03 455.239 861.176 455.239 861.354 455.239C861.519 455.247 861.684 455.264 861.847 455.292C862.455 455.368 863.032 455.6 863.522 455.967C863.959 456.308 864.297 456.759 864.503 457.274C864.72 457.833 864.828 458.429 864.82 459.029C864.844 459.901 864.592 460.759 864.102 461.48C863.839 461.832 863.508 462.126 863.127 462.344C862.746 462.562 862.325 462.7 861.889 462.748L861.054 462.819H858.048V466.91H856.094ZM858.048 461.01H860.834C860.944 461.01 861.063 461.01 861.2 460.993C861.325 460.984 861.45 460.962 861.571 460.927C861.864 460.866 862.131 460.717 862.337 460.5C862.521 460.3 862.657 460.061 862.735 459.802C862.81 459.555 862.849 459.299 862.851 459.041C862.85 458.781 862.811 458.523 862.735 458.275C862.658 458.014 862.522 457.774 862.337 457.574C862.13 457.358 861.863 457.21 861.571 457.149C861.449 457.117 861.325 457.098 861.2 457.09C861.063 457.09 860.944 457.09 860.834 457.09H858.048V461.01ZM862.801 466.91L860.502 462.157L862.486 461.72L865.014 466.907L862.801 466.91Z" fill="white"/>
<path d="M867.164 466.91V455.239H874.7V457.072H869.116V459.947H873.726V461.78H869.116V465.077H874.7V466.91H867.164Z" fill="white"/>
<path d="M876.206 466.91L879.883 455.239H882.744L886.424 466.91H884.413L881.074 456.439H881.514L878.217 466.91H876.206ZM878.256 464.379V462.558H884.381V464.379H878.256Z" fill="white"/>
<path d="M890.087 466.91V457.072H886.311V455.239H895.816V457.072H892.038V466.91H890.087Z" fill="white"/>
<path d="M897.646 466.91V455.239H899.598V466.91H897.646Z" fill="white"/>
<path d="M905.042 466.91L901.35 455.239H903.358L906.438 465.012L909.557 455.239H911.577L907.888 466.91H905.042Z" fill="white"/>
<path d="M913.155 466.91V455.239H920.69V457.072H915.109V459.947H919.719V461.78H915.109V465.077H920.69V466.91H913.155Z" fill="white"/>
<path d="M923.162 466.91V455.239H925.113V466.91H923.162Z" fill="white"/>
<path d="M930.73 466.91V457.072H926.955V455.239H936.46V457.072H932.682V466.91H930.73Z" fill="white"/>
<path d="M938.126 466.91V455.239H945.662V457.072H940.093V459.947H944.703V461.78H940.093V465.077H945.674V466.91H938.126Z" fill="white"/>
<path d="M947.982 466.91V455.239H949.741L953.774 463.506L957.811 455.239H959.567V466.91H957.746V459.43L954.164 466.91H953.385L949.821 459.43V466.91H947.982Z" fill="white"/>
<path d="M815.86 470.789L807.43 465.92V475.654L815.86 470.789Z" fill="white" fill-opacity="0.48"/>
<path d="M832.717 461.055L824.287 456.19V465.921L832.717 461.055Z" fill="white" fill-opacity="0.47"/>
<path d="M815.86 451.321L807.43 446.456V456.189L815.86 451.321Z" fill="white" fill-opacity="0.48"/>
<path d="M807.43 446.456L800.687 450.35C800.174 450.645 799.747 451.07 799.451 451.583C799.155 452.096 798.999 452.677 799 453.27V468.84C799 469.433 799.155 470.015 799.452 470.528C799.748 471.041 800.174 471.467 800.687 471.763L807.43 475.654V446.456Z" fill="url(#paint1_linear_75_1266)"/>
<path d="M832.717 468.84V461.055L807.43 475.654L814.173 479.549C814.685 479.845 815.267 480.001 815.858 480.001C816.45 480.001 817.032 479.845 817.544 479.549L831.033 471.763C831.545 471.467 831.97 471.04 832.266 470.527C832.562 470.014 832.717 469.433 832.717 468.84Z" fill="url(#paint2_linear_75_1266)"/>
<path d="M817.606 442.594C817.098 442.301 816.521 442.146 815.934 442.146C815.347 442.146 814.77 442.301 814.262 442.594L807.573 446.456L832.654 460.939V453.216C832.654 452.629 832.5 452.052 832.206 451.543C831.913 451.034 831.491 450.611 830.982 450.317L817.606 442.594Z" fill="url(#paint3_linear_75_1266)"/>
</g>
<g opacity="0.16">
<path d="M228.061 184.124C228.061 153.163 254.952 128.065 288.123 128.065H300.652C294.791 123.33 291.079 116.341 291.079 108.541C291.079 94.2815 303.465 82.7194 318.745 82.7194H360.444C356.227 79.3316 353.545 74.323 353.545 68.7214C353.545 58.5186 362.406 50.2469 373.34 50.2469H478.047C488.981 50.2469 497.842 58.5186 497.842 68.7214C497.842 78.9241 488.981 87.1958 478.047 87.1958H438.843C431.543 91.8456 426.749 99.6672 426.749 108.538C426.749 116.338 430.462 123.33 436.322 128.062H500.798C533.969 128.062 560.861 153.16 560.861 184.121C560.861 215.082 533.969 240.18 500.798 240.18H586.218C601.496 240.18 613.885 251.742 613.885 266.001C613.885 280.261 601.499 291.823 586.218 291.823H621.024C659.049 291.823 690.616 317.553 696.88 351.373H709.068C732.779 351.373 752 369.312 752 391.442V395.502C752 417.632 732.779 435.571 709.068 435.571H621.024H332.878H305.066C262.538 435.571 228.058 403.394 228.058 363.699C228.058 324.004 262.535 291.826 305.066 291.826H439.879C424.598 291.826 412.213 280.264 412.213 266.004C412.213 251.745 424.598 240.183 439.879 240.183H288.123C254.952 240.183 228.061 215.085 228.061 184.124ZM534.148 87.1989C524.218 87.1989 516.164 78.9272 516.164 68.7244C516.164 58.5216 524.214 50.2499 534.148 50.2499C544.079 50.2499 552.133 58.5216 552.133 68.7244C552.133 78.9272 544.082 87.1989 534.148 87.1989Z" fill="white"/>
</g>
<path opacity="0.15" d="M490.064 449.301C634.054 449.301 750.781 443.574 750.781 436.509C750.781 429.444 634.054 423.717 490.064 423.717C346.073 423.717 229.346 429.444 229.346 436.509C229.346 443.574 346.073 449.301 490.064 449.301Z" fill="#231F20"/>
<path d="M394.112 437.174L569.242 437.009C578.343 437 585.716 429.757 585.707 420.825L585.379 85.9034C585.37 76.7376 577.79 69.3144 568.446 69.3235L394.188 69.4877C384.847 69.4968 377.279 76.9353 377.288 86.101L377.616 421.023C377.626 429.951 385.011 437.183 394.112 437.174Z" fill="url(#paint4_linear_75_1266)"/>
<path d="M396.427 433.889L566.915 433.728C575.798 433.719 582.991 426.673 582.985 417.991L582.663 91.5719C582.654 82.6585 575.257 75.4421 566.137 75.4482L396.497 75.6063C387.38 75.6154 379.995 82.8471 380.004 91.7604L380.326 418.179C380.335 426.867 387.544 433.898 396.427 433.889Z" fill="url(#paint5_linear_75_1266)"/>
<path d="M395.962 411.723L567.31 411.54L567.03 95.06L395.683 95.2425L395.962 411.723Z" fill="url(#paint6_linear_75_1266)"/>
<path d="M449.931 88.1355L513.417 88.0747C514.766 88.0747 515.857 86.9799 515.854 85.6297C515.854 84.2794 514.76 83.1877 513.411 83.1907L449.928 83.2516C448.579 83.2516 447.488 84.3464 447.491 85.6966C447.491 87.0468 448.585 88.1386 449.931 88.1355ZM461.475 428.196L501.876 428.157C503.565 428.157 504.932 427.029 504.929 425.639L504.926 421.403C504.926 420.013 503.556 418.888 501.867 418.888L461.466 418.924C459.777 418.927 458.41 420.052 458.413 421.442L458.416 425.678C458.419 427.071 459.789 428.196 461.475 428.196Z" fill="url(#paint7_linear_75_1266)"/>
<path opacity="0.34" d="M395.701 116.208L567.258 371.11L567.291 411.528L395.944 411.723L395.701 116.208Z" fill="white"/>
<path d="M567.346 95.1451H395.999V109.879H567.346V95.1451Z" fill="url(#paint8_linear_75_1266)"/>
<path d="M529.412 290.388H432.472C428.14 290.388 424.631 286.872 424.631 282.539V211.061H537.256V282.539C537.256 286.872 533.744 290.388 529.412 290.388Z" fill="url(#paint9_linear_75_1266)"/>
<path d="M543.468 199.396H418.416L425.579 189.461H537.083L543.468 199.396Z" fill="#06B9F7"/>
<path d="M512.159 193.609H449.639C449.126 193.609 448.707 194.025 448.707 194.542V195.683H513.089V194.542C513.089 194.025 512.673 193.609 512.159 193.609Z" fill="#003CAC"/>
<path d="M424.631 218.977L537.256 212.941V211.058H424.631V218.977Z" fill="url(#paint10_linear_75_1266)"/>
<path d="M543.468 199.396H418.416V211.058H543.468V199.396Z" fill="#048DBC"/>
<path d="M483.849 261.893C491.963 260.277 497.233 252.383 495.62 244.261C494.007 236.138 486.121 230.862 478.006 232.477C469.892 234.093 464.622 241.987 466.235 250.109C467.849 258.232 475.735 263.508 483.849 261.893Z" fill="#EFF8FC"/>
<path d="M489.142 243.674C485.35 237.747 480.942 243.309 480.942 243.309C480.942 243.309 476.534 237.747 472.743 243.674C468.952 249.601 480.942 256.969 480.942 256.969C480.942 256.969 492.933 249.604 489.142 243.674Z" fill="url(#paint11_linear_75_1266)"/>
<path d="M528.02 338.001H434.969C432.271 338.001 430.087 335.812 430.087 333.115V321.148C430.087 318.447 432.274 316.261 434.969 316.261H528.02C530.718 316.261 532.902 318.451 532.902 321.148V333.115C532.905 335.812 530.718 338.001 528.02 338.001Z" fill="url(#paint12_linear_75_1266)"/>
<path d="M444.265 321.671C445.146 321.537 446.194 321.437 447.34 321.437C449.417 321.437 450.897 321.92 451.875 322.833C452.872 323.748 453.455 325.047 453.455 326.859C453.455 328.69 452.89 330.186 451.845 331.217C450.797 332.266 449.071 332.829 446.893 332.829C445.863 332.829 444.997 332.78 444.268 332.695V321.671H444.265ZM445.711 331.585C446.076 331.652 446.607 331.667 447.172 331.667C450.262 331.667 451.942 329.937 451.942 326.911C451.96 324.265 450.462 322.586 447.406 322.586C446.659 322.586 446.094 322.653 445.711 322.735V331.585ZM464.908 327.011C464.908 330.87 462.566 332.917 459.707 332.917C456.748 332.917 454.673 330.621 454.673 327.227C454.673 323.666 456.885 321.34 459.874 321.34C462.933 321.34 464.908 323.684 464.908 327.011ZM456.219 327.197C456.219 329.593 457.517 331.737 459.792 331.737C462.086 331.737 463.383 329.623 463.383 327.081C463.383 324.852 462.219 322.523 459.81 322.523C457.416 322.519 456.219 324.733 456.219 327.197ZM466.791 332.734V321.522H468.371L471.962 327.194C472.791 328.507 473.441 329.687 473.973 330.837L474.006 330.819C473.873 329.322 473.842 327.957 473.842 326.211V321.522H475.203V332.734H473.742L470.188 327.045C469.407 325.798 468.66 324.514 468.095 323.301L468.046 323.319C468.131 324.733 468.161 326.081 468.161 327.945V332.734H466.791ZM479.544 329.207L478.381 332.734H476.886L480.69 321.522H482.433L486.255 332.734H484.709L483.512 329.207H479.544ZM483.214 328.076L482.118 324.849C481.868 324.116 481.701 323.453 481.534 322.802H481.501C481.334 323.468 481.151 324.149 480.936 324.831L479.839 328.076H483.214ZM488.755 322.754H485.35V321.522H493.64V322.754H490.217V332.734H488.755V322.754ZM496.338 321.522V332.734H494.892V321.522H496.338ZM508.435 327.011C508.435 330.87 506.093 332.917 503.234 332.917C500.275 332.917 498.2 330.621 498.2 327.227C498.2 323.666 500.412 321.34 503.401 321.34C506.457 321.34 508.435 323.684 508.435 327.011ZM499.743 327.197C499.743 329.593 501.041 331.737 503.316 331.737C505.61 331.737 506.904 329.623 506.904 327.081C506.904 324.852 505.74 322.523 503.331 322.523C500.94 322.519 499.743 324.733 499.743 327.197ZM510.318 332.734V321.522H511.898L515.489 327.194C516.318 328.507 516.968 329.687 517.5 330.837L517.533 330.819C517.4 329.322 517.369 327.957 517.369 326.211V321.522H518.733V332.734H517.272L513.718 327.045C512.937 325.798 512.19 324.514 511.625 323.301L511.576 323.319C511.661 324.733 511.692 326.081 511.692 327.945V332.734H510.318Z" fill="white"/>
<path d="M426.211 437.174L519.466 436.73C522.911 436.714 525.691 433.904 525.673 430.456L525.42 377.097C525.405 373.649 522.598 370.866 519.153 370.884L425.898 371.329C422.453 371.344 419.674 374.154 419.692 377.602L419.944 430.961C419.962 434.409 422.769 437.192 426.211 437.174Z" fill="url(#paint13_linear_75_1266)"/>
<path opacity="0.15" d="M420.032 375.51C420.871 373.102 423.262 371.341 426.127 371.329L518.926 370.888C522.495 370.869 525.402 373.555 525.418 376.882L525.627 421.278C513.47 420.168 450.855 418.088 420.032 375.51Z" fill="url(#paint14_linear_75_1266)"/>
<path d="M444.71 420.676L426.907 420.761L426.923 424.033L444.725 423.949L444.71 420.676Z" fill="#EBF2F7"/>
<path d="M469.348 420.558L451.546 420.642L451.561 423.915L469.363 423.83L469.348 420.558Z" fill="#EBF2F7"/>
<path d="M493.985 420.442L476.183 420.527L476.199 423.799L494.001 423.714L493.985 420.442Z" fill="#EBF2F7"/>
<path d="M518.623 420.324L500.821 420.408L500.836 423.681L518.638 423.596L518.623 420.324Z" fill="#EBF2F7"/>
<path d="M513.336 397.64L498.308 397.713C495.449 397.725 493.143 399.975 493.158 402.734L493.186 408.445C493.198 411.203 495.525 413.429 498.383 413.417L513.412 413.344C516.271 413.332 518.577 411.081 518.561 408.323L518.534 402.612C518.522 399.854 516.195 397.628 513.336 397.64Z" fill="#EBF2F7"/>
<path d="M611.247 412.243C611.247 428.583 607.665 439.546 582.217 439.546C559.007 439.546 552.293 428.583 552.293 412.243C552.293 395.903 565.49 382.66 581.77 382.66C598.05 382.66 611.247 395.906 611.247 412.243Z" fill="url(#paint15_linear_75_1266)"/>
<path d="M597.862 387.461C601.997 392.555 604.482 399.054 604.482 406.136C604.482 422.476 600.9 433.439 575.451 433.439C567.231 433.439 561.088 432.059 556.571 429.556C560.842 435.848 568.747 439.549 582.217 439.549C607.665 439.549 611.247 428.586 611.247 412.246C611.247 401.867 605.919 392.744 597.862 387.461Z" fill="#56569B"/>
<path d="M597.862 387.461C601.997 392.555 604.482 399.054 604.482 406.136C604.482 422.476 600.9 433.439 575.451 433.439C567.231 433.439 561.088 432.059 556.571 429.556C560.842 435.848 568.747 439.549 582.217 439.549C607.665 439.549 611.247 428.586 611.247 412.246C611.247 401.867 605.919 392.744 597.862 387.461Z" fill="url(#paint16_linear_75_1266)"/>
<path d="M571.369 380.935C571.369 380.935 569.518 376.961 568.285 373.567C567.052 370.17 567.668 366.268 571.915 366.341C576.162 366.414 578.219 363.811 579.589 362.513C580.959 361.211 583.769 361.5 585.343 363.595C586.92 365.69 589.66 366.195 592.81 366.341C595.96 366.487 596.647 372.843 594.797 375.011C592.947 377.18 591.692 380.935 591.692 380.935H571.369Z" fill="url(#paint17_linear_75_1266)"/>
<path d="M569.786 377.35C570.637 379.363 571.369 380.935 571.369 380.935H591.696C591.696 380.935 592.95 377.18 594.8 375.011C596.571 372.934 596.015 367.013 593.196 366.396C590.863 376.657 574.571 377.368 569.786 377.35Z" fill="url(#paint18_linear_75_1266)"/>
<path d="M592.367 384.925H570.308C569.75 384.925 569.297 384.472 569.297 383.912V381.355C569.297 380.795 569.75 380.342 570.308 380.342H592.367C592.926 380.342 593.378 380.795 593.378 381.355V383.912C593.378 384.472 592.926 384.925 592.367 384.925Z" fill="url(#paint19_linear_75_1266)"/>
<path d="M589.146 380.345H587.008V384.925H589.146V380.345Z" fill="#FFD415"/>
<path d="M575.372 415.965C576.809 416.698 579.009 417.41 581.254 417.349C583.672 417.282 584.924 416.181 584.878 414.563C584.835 413.018 583.705 412.167 580.877 411.179C576.967 409.85 574.382 407.639 574.282 404.035C574.163 399.805 577.39 396.478 582.879 396.326C585.507 396.253 587.457 396.788 588.858 397.412L587.81 401.967C586.865 401.514 585.185 400.86 582.906 400.924C580.625 400.988 579.549 402.122 579.586 403.409C579.632 404.99 580.962 405.653 584.003 406.784C588.162 408.29 590.158 410.519 590.255 414.01C590.371 418.167 587.466 421.78 581.074 421.956C578.413 422.029 575.767 421.363 574.434 420.63L575.372 415.965Z" fill="#56569B"/>
<path d="M584.441 419.003H580.47V424.775H584.441V419.003Z" fill="#56569B"/>
<path d="M584.441 393.647H580.47V399.014H584.441V393.647Z" fill="#56569B"/>
<path d="M574.586 416.701C576.023 417.434 578.222 418.146 580.467 418.085C582.885 418.018 584.137 416.917 584.091 415.299C584.049 413.754 582.919 412.903 580.09 411.914C576.181 410.585 573.595 408.375 573.495 404.771C573.377 400.541 576.603 397.214 582.092 397.062C584.72 396.989 586.671 397.524 588.071 398.148L587.023 402.703C586.078 402.25 584.398 401.596 582.12 401.66C579.838 401.724 578.763 402.855 578.799 404.144C578.845 405.726 580.175 406.389 583.216 407.52C587.375 409.025 589.371 411.255 589.468 414.746C589.584 418.903 586.68 422.516 580.288 422.692C577.627 422.765 574.981 422.099 573.647 421.366L574.586 416.701Z" fill="#FBFEFF"/>
<path d="M583.653 419.742H579.683V425.514H583.653V419.742Z" fill="#FBFEFF"/>
<path d="M583.653 394.386H579.683V399.753H583.653V394.386Z" fill="#FBFEFF"/>
<path d="M529.695 425.338C530.147 423.054 530.822 420.785 531.837 418.584C534.331 413.171 535.543 407.183 536.712 401.389C537.493 397.533 538.228 393.89 539.286 390.825L539.996 388.757L513.876 383.663L513.308 385.165C511.829 389.082 510.729 393.644 509.566 398.47C508.357 403.473 507.111 408.645 505.282 413.922C503.93 417.823 503.241 421.655 502.885 425.338H529.695Z" fill="#3D9D0F"/>
<path d="M527.75 425.338C528.23 422.805 528.966 420.268 530.111 417.787C534.182 408.956 534.814 397.971 537.487 390.204C530.02 388.748 522.553 387.294 515.085 385.838C512.172 393.553 510.744 403.956 507.077 414.545C505.811 418.204 505.151 421.832 504.802 425.338H527.75Z" fill="#89C80A"/>
<path d="M512.293 393.474C517.032 394.775 521.917 391.834 523.208 386.908C523.217 386.871 523.226 386.835 523.236 386.798L514.587 384.423L512.223 393.455C512.247 393.458 512.269 393.467 512.293 393.474ZM529.366 387.942C529.357 387.978 529.348 388.015 529.342 388.054C528.357 393.054 531.468 397.868 536.289 398.808C536.314 398.814 536.338 398.817 536.362 398.82L538.167 389.657L529.366 387.942ZM522.446 407.523C526.504 408.314 529.108 412.441 528.26 416.738C527.413 421.035 523.439 423.878 519.38 423.087C515.322 422.297 512.718 418.17 513.566 413.873C514.413 409.576 518.387 406.733 522.446 407.523ZM524.12 397.141C525.587 397.427 526.529 398.92 526.225 400.474C525.918 402.028 524.481 403.059 523.011 402.773C521.543 402.487 520.602 400.994 520.905 399.44C521.212 397.883 522.649 396.852 524.12 397.141Z" fill="#3D9D0F"/>
<path d="M519.94 414.344C519.417 415.132 519.165 415.366 518.78 415.29C518.36 415.208 518.169 414.858 518.272 414.329C518.391 413.73 518.776 413.18 519.041 412.906L517.355 412.176C517.273 412.27 517.191 412.38 517.109 412.508L516.568 412.216L515.942 413.456L516.559 413.788C516.535 413.876 516.516 413.964 516.498 414.056C516.158 415.786 517.093 417.127 518.622 417.425C519.591 417.629 520.624 417.252 521.477 415.92C521.957 415.166 522.2 414.992 522.619 415.074C523.039 415.156 523.254 415.479 523.124 416.139C522.996 416.78 522.498 417.547 522.133 417.89L523.886 418.632C524.047 418.462 524.205 418.249 524.348 418L524.916 418.307L525.542 417.063L524.858 416.692C524.874 416.622 524.892 416.552 524.904 416.482C525.299 414.481 524.378 413.231 522.85 412.933C521.635 412.714 520.739 413.119 519.94 414.344Z" fill="#89C80A"/>
<path d="M540.689 425.338C541.211 424.416 541.782 423.516 542.423 422.641C545.947 417.836 548.326 412.21 550.629 406.766C552.163 403.144 553.609 399.72 555.256 396.928L556.364 395.043L531.785 384.834L530.931 386.19C528.701 389.733 526.714 393.982 524.612 398.479C522.431 403.138 520.177 407.958 517.336 412.766C514.863 416.948 513.311 421.208 512.172 425.335H540.689V425.338Z" fill="#3D9D0F"/>
<path d="M538.514 425.338C539.2 424.033 539.984 422.753 540.892 421.515C546.643 413.672 549.453 403.038 553.621 395.961C546.595 393.042 539.568 390.125 532.541 387.206C528.148 394.185 524.673 404.093 518.971 413.736C516.711 417.556 515.24 421.5 514.15 425.338H538.514Z" fill="#89C80A"/>
<path d="M528.282 394.134C532.666 396.357 538.04 394.45 540.288 389.879C540.306 389.846 540.318 389.809 540.336 389.776L532.335 385.722L528.218 394.1C528.239 394.109 528.261 394.121 528.282 394.134ZM546.115 392.12C546.099 392.154 546.084 392.19 546.069 392.224C544.106 396.925 546.197 402.265 550.732 404.151C550.756 404.16 550.778 404.169 550.799 404.178L554.393 395.56L546.115 392.12ZM535.43 409.929C539.249 411.513 540.977 416.078 539.291 420.119C537.605 424.161 533.143 426.153 529.324 424.568C525.505 422.984 523.777 418.419 525.463 414.378C527.149 410.333 531.612 408.341 535.43 409.929ZM539.139 400.088C540.522 400.663 541.148 402.314 540.537 403.777C539.926 405.239 538.313 405.96 536.931 405.385C535.549 404.811 534.923 403.159 535.533 401.697C536.141 400.234 537.757 399.513 539.139 400.088Z" fill="#3D9D0F"/>
<path d="M531.611 416.108C530.943 416.777 530.648 416.954 530.284 416.805C529.889 416.64 529.77 416.26 529.977 415.762C530.214 415.196 530.7 414.737 531.013 414.521L529.506 413.469C529.406 413.545 529.303 413.636 529.199 413.742L528.728 413.347L527.869 414.439L528.406 414.889C528.367 414.971 528.327 415.053 528.294 415.141C527.613 416.768 528.267 418.27 529.704 418.866C530.615 419.259 531.699 419.095 532.802 417.96C533.422 417.319 533.695 417.194 534.09 417.358C534.485 417.522 534.631 417.881 534.373 418.502C534.121 419.107 533.48 419.754 533.054 420.019L534.622 421.096C534.816 420.959 535.011 420.782 535.199 420.569L535.694 420.983L536.554 419.891L535.956 419.393C535.986 419.329 536.016 419.262 536.044 419.195C536.83 417.313 536.174 415.904 534.74 415.308C533.601 414.852 532.638 415.068 531.611 416.108Z" fill="#89C80A"/>
<path d="M551.847 425.338C555.034 422.488 557.907 419.247 560.705 416.075C563.309 413.125 565.767 410.342 568.212 408.214L569.862 406.778L549.79 389.289L548.548 390.305C545.309 392.957 542.08 396.354 538.659 399.951C535.114 403.676 531.447 407.529 527.231 411.188C522.221 415.527 518.782 420.554 515.89 425.338H551.847Z" fill="#3D9D0F"/>
<path d="M548.918 425.338C555.833 419.703 561.334 411.671 566.967 406.778C561.228 401.779 555.489 396.779 549.754 391.78C543.374 397.001 536.94 405.294 528.473 412.626C524.017 416.485 520.809 420.992 518.12 425.338H548.918Z" fill="#89C80A"/>
<path d="M543.517 396.995C546.971 400.495 552.67 400.395 556.249 396.776C556.276 396.749 556.301 396.721 556.328 396.694L550.027 390.308L543.468 396.943C543.487 396.959 543.502 396.977 543.517 396.995ZM561.064 400.751C561.04 400.778 561.012 400.806 560.988 400.836C557.637 404.671 557.923 410.397 561.629 413.627C561.647 413.642 561.665 413.657 561.687 413.672L567.829 406.641L561.064 400.751ZM545.519 425.338C545.583 425.268 545.653 425.204 545.716 425.131C548.596 421.835 548.405 416.957 545.288 414.241C542.171 411.525 537.308 411.994 534.425 415.293C531.821 418.274 531.736 422.537 534.045 425.338H545.519ZM551.926 406.091C553.053 407.073 553.123 408.837 552.081 410.032C551.039 411.224 549.28 411.395 548.15 410.412C547.023 409.43 546.953 407.666 547.995 406.471C549.037 405.276 550.796 405.106 551.926 406.091Z" fill="#3D9D0F"/>
<path d="M539.708 418.894C538.863 419.317 538.526 419.39 538.228 419.131C537.906 418.851 537.916 418.453 538.268 418.045C538.672 417.583 539.279 417.303 539.644 417.197L538.55 415.722C538.432 415.762 538.304 415.816 538.171 415.883L537.849 415.36L536.688 416.123L537.056 416.719C536.992 416.783 536.928 416.85 536.867 416.92C535.707 418.246 535.85 419.879 537.022 420.901C537.761 421.564 538.842 421.752 540.249 421.026C541.038 420.615 541.339 420.585 541.661 420.864C541.983 421.144 542.008 421.533 541.567 422.038C541.136 422.531 540.322 422.945 539.835 423.06L540.981 424.581C541.206 424.514 541.449 424.407 541.695 424.264L542.032 424.815L543.192 424.051L542.785 423.389C542.834 423.337 542.882 423.282 542.931 423.227C544.274 421.692 544.101 420.15 542.925 419.128C541.992 418.331 541.011 418.231 539.708 418.894Z" fill="#89C80A"/>
<path d="M530.791 437.533C530.791 436.097 530.791 434.963 530.791 433.521C535.063 434.169 540.197 434.665 546.014 434.662C551.759 434.656 556.838 434.163 561.07 433.521C561.07 434.972 561.07 436.097 561.07 437.542C561.082 437.572 561.088 437.606 561.088 437.639C561.088 438.719 554.317 439.549 545.947 439.549C537.578 439.549 530.788 438.725 530.788 437.645C530.791 437.609 530.791 437.575 530.791 437.533Z" fill="#FFAF5D"/>
<path d="M530.791 437.162C530.791 435.726 530.791 434.592 530.791 433.151C535.063 433.798 540.197 434.294 546.014 434.291C551.759 434.285 556.838 433.792 561.07 433.151C561.07 434.601 561.07 435.726 561.07 437.171C561.082 437.201 561.088 437.235 561.088 437.268C561.088 438.348 554.317 439.178 545.947 439.178C537.578 439.178 530.788 438.354 530.788 437.274C530.791 437.238 530.791 437.201 530.791 437.162Z" fill="#EB8511"/>
<path d="M557.421 438.521V433.661C557.804 433.61 558.181 433.555 558.551 433.5V438.336C558.205 438.399 557.828 438.46 557.421 438.521ZM554.244 438.868V434.032C554.511 434.005 554.772 433.981 555.034 433.95V438.798C554.775 438.822 554.511 438.846 554.244 438.868ZM534.43 438.518C534.154 438.478 533.89 438.436 533.641 438.393V433.646H534.43V438.518ZM556.358 438.661V433.798C556.486 433.783 556.613 433.768 556.738 433.75V438.612C556.613 438.627 556.486 438.646 556.358 438.661Z" fill="#FFB017"/>
<path d="M530.761 433.157C530.761 432.077 537.581 431.247 545.948 431.247C554.317 431.247 561.101 432.12 561.101 433.199C561.101 434.279 554.317 435.152 545.948 435.152C537.581 435.152 530.761 434.236 530.761 433.157Z" fill="#FDCE14"/>
<path d="M532.654 433.011C532.654 432.25 538.62 431.636 545.978 431.636C553.336 431.636 559.302 432.25 559.302 433.011C559.302 433.771 553.336 434.385 545.978 434.385C538.62 434.385 532.654 433.771 532.654 433.011Z" fill="#FE920C"/>
<path d="M541.767 433.038C541.825 432.837 542.736 432.758 543.559 432.725C543.602 432.561 543.602 432.451 543.72 432.296C542.129 432.32 540.519 432.548 539.899 432.843H538.623L538.34 433.166H539.662C539.856 433.445 541.217 433.598 543.265 433.598C545.036 433.598 546.467 433.494 547.454 433.004C548.077 432.697 548.578 432.603 549.663 432.585C550.635 432.567 551.203 432.64 551.136 432.862C551.066 433.084 550.431 433.223 549.088 433.272C549.019 433.43 548.979 433.509 548.836 433.671C550.695 433.643 552.221 433.482 552.904 433.181H554.207L554.49 432.859H553.284C553.433 432.342 551.929 432.238 549.511 432.25C547.633 432.259 546.066 432.393 545.015 432.892C544.431 433.169 544.039 433.239 543.119 433.248C542.18 433.251 541.728 433.175 541.767 433.038Z" fill="#FEB05B"/>
<path d="M533.586 433.062C533.586 431.627 533.586 430.492 533.586 429.051C537.857 429.699 542.991 430.194 548.809 430.191C554.553 430.185 559.633 429.693 563.865 429.051C563.865 430.502 563.865 431.627 563.865 433.071C563.877 433.102 563.883 433.135 563.883 433.169C563.883 434.248 557.111 435.078 548.742 435.078C540.373 435.078 533.583 434.254 533.583 433.175C533.586 433.138 533.583 433.105 533.586 433.062Z" fill="#FFAF5D"/>
<path d="M533.586 432.691C533.586 431.256 533.586 430.122 533.586 428.68C537.857 429.328 542.991 429.823 548.809 429.82C554.553 429.814 559.633 429.322 563.865 428.68C563.865 430.131 563.865 431.256 563.865 432.7C563.877 432.731 563.883 432.764 563.883 432.798C563.883 433.877 557.111 434.707 548.742 434.707C540.373 434.707 533.583 433.883 533.583 432.804C533.586 432.767 533.583 432.731 533.586 432.691Z" fill="#EB8511"/>
<path d="M560.216 434.051V429.191C560.599 429.139 560.975 429.085 561.346 429.03V433.865C561 433.929 560.62 433.99 560.216 434.051ZM557.035 434.397V429.562C557.3 429.535 557.564 429.51 557.825 429.48V434.327C557.57 434.352 557.306 434.376 557.035 434.397ZM537.222 434.048C536.946 434.008 536.681 433.965 536.432 433.923V429.176H537.222V434.048ZM559.15 434.19V429.328C559.277 429.313 559.405 429.297 559.529 429.279V434.142C559.405 434.16 559.28 434.175 559.15 434.19Z" fill="#FFB017"/>
<path d="M533.555 428.686C533.555 427.607 540.376 426.776 548.742 426.776C557.111 426.776 563.895 427.649 563.895 428.729C563.895 429.808 557.111 430.681 548.742 430.681C540.376 430.681 533.555 429.766 533.555 428.686Z" fill="#FFAF5D"/>
<path d="M535.448 428.543C535.448 427.783 541.414 427.169 548.772 427.169C556.13 427.169 562.096 427.783 562.096 428.543C562.096 429.304 556.13 429.918 548.772 429.918C541.414 429.918 535.448 429.301 535.448 428.543Z" fill="#FE920C"/>
<path d="M544.559 428.567C544.616 428.367 545.528 428.288 546.351 428.254C546.394 428.09 546.394 427.981 546.512 427.825C544.92 427.85 543.31 428.078 542.69 428.37H541.414L541.132 428.692H542.453C542.648 428.972 544.009 429.124 546.056 429.124C547.827 429.124 549.258 429.021 550.246 428.531C550.868 428.224 551.37 428.13 552.454 428.111C553.426 428.093 553.994 428.166 553.928 428.388C553.858 428.61 553.223 428.75 551.88 428.799C551.81 428.957 551.771 429.036 551.628 429.197C553.487 429.17 555.012 429.008 555.696 428.707H556.999L557.281 428.385H556.075C556.224 427.868 554.72 427.765 552.302 427.777C550.425 427.786 548.857 427.92 547.806 428.418C547.223 428.695 546.831 428.765 545.91 428.774C544.972 428.78 544.519 428.704 544.559 428.567Z" fill="#FEB05B"/>
<path d="M530.047 428.592C530.047 427.157 530.047 426.022 530.047 424.581C534.318 425.229 539.452 425.724 545.27 425.721C551.014 425.715 556.094 425.222 560.326 424.581C560.326 426.031 560.326 427.157 560.326 428.601C560.338 428.631 560.344 428.665 560.344 428.698C560.344 429.778 553.572 430.608 545.203 430.608C536.833 430.608 530.044 429.784 530.044 428.704C530.047 428.668 530.047 428.635 530.047 428.592Z" fill="#FFAF5D"/>
<path d="M530.047 428.221C530.047 426.785 530.047 425.651 530.047 424.21C534.318 424.857 539.452 425.353 545.27 425.35C551.014 425.344 556.094 424.851 560.326 424.21C560.326 425.66 560.326 426.785 560.326 428.23C560.338 428.26 560.344 428.294 560.344 428.327C560.344 429.407 553.572 430.237 545.203 430.237C536.833 430.237 530.044 429.413 530.044 428.333C530.047 428.297 530.047 428.26 530.047 428.221Z" fill="#EB8511"/>
<path d="M556.677 429.58V424.721C557.06 424.669 557.436 424.614 557.807 424.56V429.395C557.461 429.459 557.084 429.52 556.677 429.58ZM553.499 429.927V425.092C553.764 425.064 554.028 425.04 554.292 425.01V429.857C554.031 429.884 553.767 429.906 553.499 429.927ZM533.686 429.577C533.41 429.538 533.145 429.495 532.896 429.453V424.706H533.686V429.577ZM555.614 429.72V424.858C555.741 424.842 555.869 424.827 555.993 424.809V429.672C555.869 429.69 555.741 429.705 555.614 429.72Z" fill="#FFB017"/>
<path d="M530.016 424.216C530.016 423.136 536.836 422.306 545.203 422.306C553.572 422.306 560.356 423.179 560.356 424.258C560.356 425.338 553.572 426.211 545.203 426.211C536.836 426.211 530.016 425.295 530.016 424.216Z" fill="#FFAF5D"/>
<path d="M531.909 424.073C531.909 423.313 537.875 422.698 545.233 422.698C552.591 422.698 558.557 423.313 558.557 424.073C558.557 424.833 552.591 425.447 545.233 425.447C537.875 425.447 531.909 424.83 531.909 424.073Z" fill="#FE920C"/>
<path d="M541.023 424.097C541.08 423.897 541.992 423.818 542.815 423.784C542.858 423.62 542.858 423.51 542.976 423.355C541.384 423.38 539.774 423.608 539.154 423.903H537.878L537.596 424.225H538.917C539.112 424.505 540.473 424.657 542.52 424.657C544.292 424.657 545.722 424.554 546.71 424.064C547.332 423.757 547.834 423.663 548.918 423.644C549.89 423.626 550.458 423.699 550.392 423.921C550.322 424.143 549.687 424.283 548.344 424.332C548.274 424.49 548.235 424.569 548.092 424.73C549.951 424.703 551.476 424.541 552.16 424.24H553.463L553.745 423.918H552.539C552.688 423.401 551.185 423.298 548.766 423.31C546.889 423.319 545.321 423.453 544.27 423.951C543.687 424.228 543.295 424.298 542.375 424.307C541.436 424.31 540.983 424.234 541.023 424.097Z" fill="#FEB05B"/>
<path d="M502.685 437.533C502.685 436.097 502.685 434.963 502.685 433.521C506.956 434.169 512.09 434.665 517.908 434.662C523.652 434.656 528.732 434.163 532.964 433.521C532.964 434.972 532.964 436.097 532.964 437.542C532.976 437.572 532.982 437.606 532.982 437.639C532.982 438.719 526.21 439.549 517.841 439.549C509.471 439.549 502.685 438.725 502.685 437.645C502.685 437.609 502.682 437.575 502.685 437.533Z" fill="#FFAF5D"/>
<path d="M502.685 437.162C502.685 435.726 502.685 434.592 502.685 433.151C506.956 433.798 512.09 434.294 517.908 434.291C523.652 434.285 528.732 433.792 532.964 433.151C532.964 434.601 532.964 435.726 532.964 437.171C532.976 437.201 532.982 437.235 532.982 437.268C532.982 438.348 526.21 439.178 517.841 439.178C509.471 439.178 502.685 438.354 502.685 437.274C502.685 437.238 502.682 437.201 502.685 437.162Z" fill="#EB8511"/>
<path d="M529.315 438.521V433.661C529.697 433.61 530.074 433.555 530.445 433.5V438.336C530.098 438.399 529.719 438.46 529.315 438.521ZM526.134 438.868V434.032C526.398 434.005 526.662 433.981 526.924 433.95V438.798C526.669 438.822 526.404 438.846 526.134 438.868ZM506.321 438.518C506.044 438.478 505.78 438.436 505.531 438.393V433.646H506.321V438.518ZM528.248 438.661V433.798C528.376 433.783 528.503 433.768 528.628 433.75V438.612C528.503 438.627 528.379 438.646 528.248 438.661Z" fill="#FFB017"/>
<path d="M502.654 433.157C502.654 432.077 509.474 431.247 517.841 431.247C526.207 431.247 532.994 432.12 532.994 433.199C532.994 434.279 526.21 435.152 517.841 435.152C509.471 435.152 502.654 434.236 502.654 433.157Z" fill="#FDCE14"/>
<path d="M504.547 433.011C504.547 432.25 510.513 431.636 517.871 431.636C525.232 431.636 531.195 432.25 531.195 433.011C531.195 433.771 525.229 434.385 517.871 434.385C510.513 434.388 504.547 433.771 504.547 433.011Z" fill="#FE920C"/>
<path d="M513.658 433.038C513.715 432.837 514.627 432.758 515.45 432.725C515.493 432.561 515.493 432.451 515.611 432.296C514.019 432.32 512.409 432.548 511.789 432.843H510.513L510.231 433.166H511.552C511.747 433.445 513.108 433.598 515.155 433.598C516.927 433.598 518.357 433.494 519.345 433.004C519.967 432.697 520.469 432.603 521.553 432.585C522.525 432.567 523.093 432.64 523.027 432.862C522.957 433.084 522.322 433.223 520.979 433.272C520.909 433.43 520.87 433.509 520.727 433.671C522.586 433.643 524.111 433.482 524.795 433.181H526.098L526.381 432.859H525.174C525.323 432.342 523.82 432.238 521.401 432.25C519.524 432.259 517.956 432.393 516.905 432.892C516.322 433.169 515.93 433.239 515.01 433.248C514.071 433.251 513.621 433.175 513.658 433.038Z" fill="#FEB05B"/>
<path d="M505.476 433.062C505.476 431.627 505.476 430.492 505.476 429.051C509.747 429.699 514.882 430.194 520.699 430.191C526.444 430.185 531.523 429.693 535.755 429.051C535.755 430.502 535.755 431.627 535.755 433.071C535.767 433.102 535.773 433.135 535.773 433.169C535.773 434.248 529.002 435.078 520.632 435.078C512.263 435.078 505.473 434.254 505.473 433.175C505.476 433.138 505.476 433.105 505.476 433.062Z" fill="#FFAF5D"/>
<path d="M505.476 432.691C505.476 431.256 505.476 430.122 505.476 428.68C509.747 429.328 514.882 429.823 520.699 429.82C526.444 429.814 531.523 429.322 535.755 428.68C535.755 430.131 535.755 431.256 535.755 432.7C535.767 432.731 535.773 432.764 535.773 432.798C535.773 433.877 529.002 434.707 520.632 434.707C512.263 434.707 505.473 433.883 505.473 432.804C505.476 432.767 505.476 432.731 505.476 432.691Z" fill="#EB8511"/>
<path d="M532.107 434.051V429.191C532.489 429.139 532.866 429.085 533.237 429.03V433.865C532.89 433.929 532.514 433.99 532.107 434.051ZM528.926 434.397V429.562C529.19 429.535 529.455 429.51 529.716 429.48V434.327C529.461 434.352 529.196 434.376 528.926 434.397ZM509.116 434.048C508.839 434.008 508.575 433.965 508.326 433.923V429.176H509.116V434.048ZM531.04 434.19V429.328C531.168 429.313 531.296 429.297 531.42 429.279V434.142C531.299 434.16 531.171 434.175 531.04 434.19Z" fill="#FFB017"/>
<path d="M505.446 428.686C505.446 427.607 512.266 426.776 520.633 426.776C529.002 426.776 535.786 427.649 535.786 428.729C535.786 429.808 529.002 430.681 520.633 430.681C512.266 430.681 505.446 429.766 505.446 428.686Z" fill="#FFAF5D"/>
<path d="M507.339 428.543C507.339 427.783 513.305 427.169 520.663 427.169C528.021 427.169 533.987 427.783 533.987 428.543C533.987 429.304 528.021 429.918 520.663 429.918C513.305 429.918 507.339 429.301 507.339 428.543Z" fill="#FE920C"/>
<path d="M516.453 428.567C516.51 428.367 517.422 428.288 518.245 428.254C518.288 428.09 518.288 427.981 518.406 427.825C516.814 427.85 515.204 428.078 514.584 428.37H513.308L513.026 428.692H514.347C514.542 428.972 515.903 429.124 517.95 429.124C519.721 429.124 521.152 429.021 522.14 428.531C522.762 428.224 523.264 428.13 524.348 428.111C525.32 428.093 525.888 428.166 525.822 428.388C525.752 428.61 525.117 428.75 523.774 428.799C523.704 428.957 523.665 429.036 523.522 429.197C525.381 429.17 526.906 429.008 527.59 428.707H528.893L529.175 428.385H527.969C528.118 427.868 526.614 427.765 524.196 427.777C522.319 427.786 520.751 427.92 519.7 428.418C519.117 428.695 518.725 428.765 517.805 428.774C516.866 428.78 516.413 428.704 516.453 428.567Z" fill="#FEB05B"/>
<path d="M501.94 428.592C501.94 427.157 501.94 426.022 501.94 424.581C506.211 425.229 511.345 425.724 517.163 425.721C522.908 425.715 527.987 425.222 532.219 424.581C532.219 426.031 532.219 427.157 532.219 428.601C532.231 428.631 532.237 428.665 532.237 428.698C532.237 429.778 525.466 430.608 517.096 430.608C508.727 430.608 501.937 429.784 501.937 428.704C501.94 428.668 501.937 428.635 501.94 428.592Z" fill="#FFAF5D"/>
<path d="M501.94 428.221C501.94 426.785 501.94 425.651 501.94 424.21C506.211 424.857 511.345 425.353 517.163 425.35C522.908 425.344 527.987 424.851 532.219 424.21C532.219 425.66 532.219 426.785 532.219 428.23C532.231 428.26 532.237 428.294 532.237 428.327C532.237 429.407 525.466 430.237 517.096 430.237C508.727 430.237 501.937 429.413 501.937 428.333C501.94 428.297 501.937 428.26 501.94 428.221Z" fill="#EB8511"/>
<path d="M528.57 429.58V424.721C528.953 424.669 529.33 424.614 529.701 424.56V429.395C529.354 429.459 528.974 429.52 528.57 429.58ZM525.39 429.927V425.092C525.654 425.064 525.918 425.04 526.183 425.01V429.857C525.924 429.884 525.66 429.906 525.39 429.927ZM505.577 429.577C505.3 429.538 505.036 429.495 504.787 429.453V424.706H505.577V429.577ZM527.504 429.72V424.858C527.632 424.842 527.759 424.827 527.884 424.809V429.672C527.759 429.69 527.635 429.705 527.504 429.72Z" fill="#FFB017"/>
<path d="M501.91 424.216C501.91 423.136 508.73 422.306 517.096 422.306C525.466 422.306 532.249 423.179 532.249 424.258C532.249 425.338 525.466 426.211 517.096 426.211C508.73 426.211 501.91 425.295 501.91 424.216Z" fill="#FFAF5D"/>
<path d="M503.802 424.073C503.802 423.313 509.769 422.698 517.127 422.698C524.484 422.698 530.451 423.313 530.451 424.073C530.451 424.833 524.484 425.447 517.127 425.447C509.769 425.447 503.802 424.83 503.802 424.073Z" fill="#FE920C"/>
<path d="M512.913 424.097C512.971 423.897 513.882 423.818 514.705 423.784C514.748 423.62 514.748 423.51 514.866 423.355C513.275 423.38 511.665 423.608 511.045 423.903H509.769L509.486 424.225H510.808C511.002 424.505 512.363 424.657 514.411 424.657C516.182 424.657 517.613 424.554 518.6 424.064C519.223 423.757 519.724 423.663 520.809 423.644C521.781 423.626 522.349 423.699 522.282 423.921C522.212 424.143 521.577 424.283 520.234 424.332C520.165 424.49 520.125 424.569 519.982 424.73C521.841 424.703 523.367 424.541 524.05 424.24H525.353L525.636 423.918H524.43C524.579 423.401 523.075 423.298 520.657 423.31C518.779 423.319 517.212 423.453 516.161 423.951C515.577 424.228 515.185 424.298 514.265 424.307C513.326 424.31 512.877 424.234 512.913 424.097Z" fill="#FEB05B"/>
<path d="M497.751 424.122C497.751 422.686 497.751 421.552 497.751 420.11C502.022 420.758 507.156 421.254 512.974 421.251C518.719 421.245 523.798 420.752 528.03 420.11C528.03 421.561 528.03 422.686 528.03 424.131C528.042 424.161 528.048 424.195 528.048 424.228C528.048 425.308 521.277 426.138 512.907 426.138C504.538 426.138 497.748 425.314 497.748 424.234C497.751 424.198 497.748 424.164 497.751 424.122Z" fill="#FFAF5D"/>
<path d="M497.751 423.751C497.751 422.315 497.751 421.181 497.751 419.739C502.022 420.387 507.156 420.883 512.974 420.88C518.719 420.874 523.798 420.381 528.03 419.739C528.03 421.19 528.03 422.315 528.03 423.76C528.042 423.79 528.048 423.824 528.048 423.857C528.048 424.937 521.277 425.767 512.907 425.767C504.538 425.767 497.748 424.943 497.748 423.863C497.751 423.827 497.748 423.79 497.751 423.751Z" fill="#EB8511"/>
<path d="M524.381 425.11V420.25C524.764 420.199 525.141 420.144 525.511 420.089V424.924C525.165 424.988 524.788 425.049 524.381 425.11ZM521.201 425.457V420.621C521.465 420.594 521.729 420.57 521.99 420.539V425.387C521.735 425.414 521.471 425.435 521.201 425.457ZM501.387 425.107C501.111 425.067 500.847 425.025 500.597 424.982V420.235H501.387V425.107ZM523.315 425.25V420.387C523.442 420.372 523.57 420.357 523.695 420.338V425.201C523.57 425.219 523.446 425.235 523.315 425.25Z" fill="#FFB017"/>
<path d="M497.72 419.745C497.72 418.666 504.541 417.836 512.907 417.836C521.276 417.836 528.06 418.708 528.06 419.788C528.06 420.868 521.276 421.74 512.907 421.74C504.541 421.74 497.72 420.825 497.72 419.745Z" fill="#FDCE14"/>
<path d="M499.613 419.602C499.613 418.842 505.579 418.228 512.937 418.228C520.298 418.228 526.262 418.842 526.262 419.602C526.262 420.363 520.295 420.977 512.937 420.977C505.579 420.977 499.613 420.36 499.613 419.602Z" fill="#FE920C"/>
<path d="M508.727 419.627C508.785 419.426 509.696 419.347 510.519 419.314C510.562 419.149 510.562 419.04 510.68 418.885C509.088 418.909 507.478 419.137 506.858 419.432H505.583L505.3 419.755H506.622C506.816 420.034 508.177 420.186 510.224 420.186C511.996 420.186 513.426 420.083 514.414 419.593C515.037 419.286 515.538 419.192 516.622 419.174C517.594 419.155 518.163 419.228 518.096 419.45C518.026 419.672 517.391 419.812 516.048 419.861C515.978 420.019 515.939 420.098 515.796 420.259C517.655 420.232 519.18 420.071 519.864 419.77H521.167L521.45 419.447H520.244C520.392 418.93 518.889 418.827 516.47 418.839C514.593 418.848 513.025 418.982 511.974 419.481C511.391 419.758 510.999 419.828 510.079 419.837C509.14 419.84 508.687 419.764 508.727 419.627Z" fill="#FEB05B"/>
<path d="M501.94 419.651C501.94 418.216 501.94 417.081 501.94 415.64C506.211 416.288 511.345 416.783 517.163 416.78C522.908 416.774 527.987 416.282 532.219 415.64C532.219 417.09 532.219 418.216 532.219 419.66C532.231 419.694 532.237 419.724 532.237 419.758C532.237 420.837 525.466 421.667 517.096 421.667C508.727 421.667 501.937 420.843 501.937 419.764C501.94 419.727 501.937 419.694 501.94 419.651Z" fill="#FFAF5D"/>
<path d="M501.94 419.28C501.94 417.845 501.94 416.711 501.94 415.269C506.211 415.917 511.345 416.412 517.163 416.409C522.908 416.403 527.987 415.911 532.219 415.269C532.219 416.72 532.219 417.845 532.219 419.289C532.231 419.32 532.237 419.353 532.237 419.387C532.237 420.466 525.466 421.296 517.096 421.296C508.727 421.296 501.937 420.472 501.937 419.393C501.94 419.356 501.937 419.32 501.94 419.28Z" fill="#EB8511"/>
<path d="M528.57 420.64V415.78C528.953 415.728 529.33 415.674 529.701 415.619V420.454C529.354 420.518 528.974 420.579 528.57 420.64ZM525.39 420.986V416.151C525.654 416.124 525.918 416.099 526.183 416.069V420.916C525.924 420.944 525.66 420.965 525.39 420.986ZM505.577 420.637C505.3 420.597 505.036 420.554 504.787 420.512V415.765H505.577V420.637ZM527.504 420.779V415.917C527.632 415.902 527.759 415.886 527.884 415.868V420.731C527.759 420.749 527.635 420.764 527.504 420.779Z" fill="#FFB017"/>
<path d="M501.91 415.275C501.91 414.195 508.73 413.365 517.096 413.365C525.466 413.365 532.249 414.238 532.249 415.318C532.249 416.397 525.466 417.27 517.096 417.27C508.73 417.273 501.91 416.355 501.91 415.275Z" fill="#FDCE14"/>
<path d="M503.802 415.132C503.802 414.372 509.769 413.758 517.127 413.758C524.484 413.758 530.451 414.372 530.451 415.132C530.451 415.892 524.484 416.507 517.127 416.507C509.769 416.507 503.802 415.889 503.802 415.132Z" fill="#FE920C"/>
<path d="M512.913 415.156C512.971 414.956 513.882 414.877 514.705 414.843C514.748 414.679 514.748 414.57 514.866 414.414C513.275 414.439 511.665 414.667 511.045 414.962H509.769L509.486 415.284H510.808C511.002 415.564 512.363 415.716 514.411 415.716C516.182 415.716 517.613 415.613 518.6 415.123C519.223 414.816 519.724 414.722 520.809 414.703C521.781 414.685 522.349 414.758 522.282 414.98C522.212 415.202 521.577 415.342 520.234 415.391C520.165 415.549 520.125 415.628 519.982 415.789C521.841 415.762 523.367 415.6 524.05 415.299H525.353L525.636 414.977H524.43C524.579 414.46 523.075 414.357 520.657 414.369C518.779 414.378 517.212 414.512 516.161 415.011C515.577 415.287 515.185 415.357 514.265 415.366C513.326 415.372 512.877 415.293 512.913 415.156Z" fill="#FEB05B"/>
<path d="M503.429 415.184C503.429 413.749 503.429 412.614 503.429 411.173C507.7 411.821 512.834 412.316 518.652 412.313C524.396 412.307 529.476 411.815 533.707 411.173C533.707 412.623 533.707 413.749 533.707 415.193C533.72 415.224 533.726 415.257 533.726 415.29C533.726 416.37 526.954 417.2 518.585 417.2C510.215 417.2 503.426 416.376 503.426 415.297C503.429 415.257 503.426 415.224 503.429 415.184Z" fill="#FFAF5D"/>
<path d="M503.429 414.81C503.429 413.374 503.429 412.24 503.429 410.799C507.7 411.446 512.834 411.942 518.652 411.939C524.396 411.933 529.476 411.44 533.707 410.799C533.707 412.249 533.707 413.374 533.707 414.819C533.72 414.849 533.726 414.883 533.726 414.916C533.726 415.996 526.954 416.826 518.585 416.826C510.215 416.826 503.426 416.002 503.426 414.922C503.429 414.886 503.426 414.849 503.429 414.81Z" fill="#EB8511"/>
<path d="M530.059 416.169V411.31C530.442 411.258 530.818 411.203 531.189 411.148V415.984C530.842 416.047 530.463 416.111 530.059 416.169ZM526.878 416.516V411.681C527.142 411.653 527.407 411.629 527.671 411.598V416.446C527.413 416.473 527.148 416.495 526.878 416.516ZM507.065 416.169C506.788 416.13 506.524 416.087 506.275 416.044V411.297H507.065V416.169ZM528.992 416.309V411.446C529.12 411.431 529.248 411.416 529.372 411.398V416.26C529.248 416.279 529.123 416.294 528.992 416.309Z" fill="#FFB017"/>
<path d="M503.398 410.805C503.398 409.725 510.219 408.895 518.585 408.895C526.954 408.895 533.738 409.768 533.738 410.847C533.738 411.927 526.954 412.8 518.585 412.8C510.219 412.803 503.398 411.884 503.398 410.805Z" fill="#FDCE14"/>
<path d="M505.291 410.662C505.291 409.902 511.257 409.287 518.615 409.287C525.973 409.287 531.939 409.902 531.939 410.662C531.939 411.422 525.973 412.036 518.615 412.036C511.257 412.036 505.291 411.419 505.291 410.662Z" fill="#FE920C"/>
<path d="M514.401 410.686C514.459 410.485 515.37 410.406 516.194 410.373C516.236 410.209 516.236 410.099 516.355 409.944C514.763 409.968 513.153 410.197 512.533 410.492H511.257L510.975 410.814H512.296C512.491 411.094 513.852 411.246 515.899 411.246C517.67 411.246 519.101 411.142 520.088 410.653C520.711 410.346 521.212 410.251 522.297 410.233C523.269 410.215 523.837 410.288 523.77 410.51C523.7 410.732 523.065 410.872 521.723 410.92C521.653 411.078 521.613 411.158 521.471 411.319C523.33 411.291 524.855 411.13 525.538 410.829H526.842L527.124 410.507H525.918C526.067 409.99 524.563 409.886 522.145 409.899C520.268 409.908 518.7 410.041 517.649 410.54C517.066 410.817 516.674 410.887 515.753 410.896C514.815 410.902 514.365 410.823 514.401 410.686Z" fill="#FEB05B"/>
<path d="M548.776 428.592C550.472 421.405 546.026 414.202 538.846 412.505C531.666 410.808 524.471 415.259 522.776 422.446C521.08 429.633 525.526 436.836 532.706 438.533C539.886 440.23 547.081 435.779 548.776 428.592Z" fill="#FDCE14"/>
<path d="M545.49 429.2C547.138 423.751 544.061 417.996 538.618 416.346C533.174 414.696 527.425 417.776 525.777 423.225C524.128 428.675 527.205 434.43 532.649 436.08C538.092 437.73 543.842 434.65 545.49 429.2Z" fill="#FFEB67"/>
<path d="M535.773 435.766C541.461 435.766 546.072 431.15 546.072 425.457C546.072 419.763 541.461 415.147 535.773 415.147C530.086 415.147 525.475 419.763 525.475 425.457C525.475 431.15 530.086 435.766 535.773 435.766Z" fill="#FFA500"/>
<path d="M535.773 416.501C541.232 416.501 545.698 420.755 546.048 426.135C546.063 425.91 546.072 425.688 546.072 425.46C546.072 419.767 541.46 415.151 535.773 415.151C530.086 415.151 525.475 419.767 525.475 425.46C525.475 425.688 525.484 425.913 525.499 426.135C525.849 420.755 530.314 416.501 535.773 416.501Z" fill="#EB860D"/>
<path d="M536.925 424.608C535.689 424.079 535.3 423.784 535.306 423.224C535.312 422.616 535.753 422.257 536.518 422.27C537.387 422.282 538.253 422.683 538.705 422.981L539.295 420.436C539.143 420.345 538.967 420.256 538.769 420.174L539.04 419.341L537.144 418.784L536.837 419.733C536.709 419.724 536.579 419.718 536.445 419.715C533.939 419.682 532.305 421.336 532.28 423.55C532.244 424.961 533.037 426.311 535.118 427.166C536.293 427.643 536.6 427.941 536.594 428.549C536.588 429.157 536.19 429.541 535.236 429.529C534.303 429.516 533.11 429.012 532.535 428.592L531.946 431.235C532.226 431.417 532.566 431.581 532.946 431.718L532.66 432.594L534.556 433.15L534.899 432.095C534.999 432.101 535.102 432.104 535.206 432.107C538.104 432.147 539.614 430.538 539.638 428.324C539.638 426.57 538.842 425.414 536.925 424.608Z" fill="#EB860D"/>
<path d="M536.7 424.836C535.464 424.307 535.075 424.012 535.081 423.453C535.087 422.844 535.527 422.485 536.293 422.498C537.162 422.51 538.028 422.911 538.48 423.209L539.07 420.664C538.918 420.573 538.742 420.484 538.544 420.402L538.814 419.569L536.919 419.013L536.612 419.961C536.484 419.952 536.354 419.946 536.22 419.943C533.714 419.91 532.079 421.564 532.055 423.778C532.019 425.189 532.812 426.539 534.893 427.394C536.068 427.871 536.375 428.169 536.369 428.777C536.363 429.386 535.965 429.769 535.011 429.757C534.078 429.745 532.884 429.24 532.31 428.82L531.721 431.463C532 431.645 532.341 431.809 532.72 431.946L532.435 432.822L534.331 433.379L534.674 432.323C534.774 432.329 534.877 432.332 534.981 432.335C537.879 432.375 539.389 430.766 539.413 428.552C539.41 426.795 538.617 425.642 536.7 424.836Z" fill="#FFEF04"/>
<path d="M370.775 335.593L352.015 436.602L354.999 437.157L373.758 336.149L370.775 335.593Z" fill="#96B0D6"/>
<path d="M339.047 335.595L320.287 436.603L323.271 437.158L342.031 336.15L339.047 335.595Z" fill="#96B0D6"/>
<path d="M367.139 358.276H335.062V361.311H367.139V358.276Z" fill="#96B0D6"/>
<path d="M362.718 335.623L359.729 336.146L377.379 437.154L380.368 436.63L362.718 335.623Z" fill="#85A5CC"/>
<path d="M395.589 335.621L392.6 336.144L410.25 437.152L413.24 436.629L395.589 335.621Z" fill="#85A5CC"/>
<path d="M397.115 358.276H364.493V361.311H397.115V358.276Z" fill="#85A5CC"/>
<path d="M402.13 386.367H370.302V389.402H402.13V386.367Z" fill="#85A5CC"/>
<path d="M407.361 414.56H375.229V417.595H407.361V414.56Z" fill="#85A5CC"/>
<path d="M362.595 386.367H329.667V389.402H362.595V386.367Z" fill="#96B0D6"/>
<path d="M357.358 414.56H325.122V417.595H357.358V414.56Z" fill="#96B0D6"/>
<path d="M338.462 338.661H395.577V335.629H339.033L338.462 338.661Z" fill="#85A5CC"/>
<path d="M390.33 185.422C390.33 185.422 389.978 183.275 390.762 182.488C391.47 181.779 391.208 182.016 391.533 181.73C391.646 181.633 391.849 181.423 391.849 181.423C391.849 181.423 393.794 179.495 393.511 178.701C393.229 177.908 392.457 177.953 391.622 179.152C390.786 180.35 388.742 179.401 389.556 177.217C390.37 175.034 390.573 172.297 389.635 172.555C388.699 172.814 388.344 174.748 388.344 174.748C388.344 174.748 388.24 174.736 388.362 174.249C388.483 173.763 389.27 172.698 388.906 172.695C388.541 172.692 386.187 172.507 384.774 175.332C383.361 178.157 384.3 180.091 384.571 180.928C384.841 181.767 385.087 184.878 384.622 185.802C384.625 185.802 389.674 187.077 390.33 185.422Z" fill="url(#paint20_linear_75_1266)"/>
<path d="M384.574 183.969C384.574 183.969 382.429 195.354 382.693 198.356C382.693 198.356 371.745 202.449 368.278 205.457C364.812 208.464 362.68 218.159 369.484 214.267C376.289 210.374 387.979 205.475 390.027 200.466C392.074 195.458 388.848 190.586 390.762 184.078L384.574 183.969Z" fill="url(#paint21_linear_75_1266)"/>
<path d="M388.882 184.048L390.762 184.084C388.848 190.592 392.071 195.464 390.027 200.472C387.979 205.481 376.292 210.38 369.485 214.273C367.063 215.656 365.781 215.182 365.286 213.865C368.543 213.443 382.967 204.988 385.531 202.358C388.098 199.727 388.089 196.099 388.08 192.471C388.077 189.89 388.587 186.055 388.882 184.048Z" fill="#4484E0"/>
<path d="M424.171 180.671C435.483 169.347 435.482 150.987 424.17 139.663C412.858 128.34 394.517 128.34 383.205 139.664C371.893 150.988 371.894 169.348 383.206 180.671C394.518 191.995 412.859 191.995 424.171 180.671Z" fill="url(#paint22_linear_75_1266)"/>
<path d="M424.046 170.217C428.696 158.782 423.205 145.739 411.781 141.084C400.358 136.43 387.328 141.926 382.678 153.362C378.029 164.797 383.52 177.84 394.943 182.495C406.367 187.149 419.396 181.653 424.046 170.217Z" fill="#FFEB67"/>
<path d="M425.998 161.164C426.56 148.83 417.028 138.376 404.707 137.813C392.387 137.25 381.943 146.792 381.381 159.125C380.818 171.459 390.35 181.913 402.671 182.476C414.992 183.039 425.435 173.497 425.998 161.164Z" fill="#FFA500"/>
<path d="M403.692 140.743C415.533 140.743 425.215 149.97 425.969 161.632C425.999 161.149 426.02 160.659 426.02 160.166C426.02 147.82 416.023 137.811 403.689 137.811C391.355 137.811 381.357 147.82 381.357 160.166C381.357 160.659 381.378 161.145 381.409 161.632C382.171 149.97 391.853 140.743 403.692 140.743Z" fill="#EB860D"/>
<path d="M406.189 158.329C403.509 157.186 402.662 156.541 402.677 155.325C402.692 154.008 403.643 153.23 405.305 153.251C407.191 153.275 409.066 154.148 410.047 154.793L411.323 149.27C410.995 149.072 410.612 148.881 410.184 148.704L410.77 146.898L406.66 145.691L405.994 147.747C405.715 147.725 405.432 147.713 405.147 147.71C399.715 147.634 396.17 151.226 396.115 156.027C396.036 159.087 397.753 162.012 402.267 163.867C404.816 164.904 405.481 165.546 405.466 166.866C405.451 168.186 404.588 169.019 402.522 168.988C400.502 168.961 397.91 167.869 396.665 166.957L395.386 172.689C395.997 173.088 396.729 173.444 397.555 173.739L396.938 175.636L401.052 176.843L401.793 174.56C402.015 174.572 402.233 174.581 402.458 174.584C408.744 174.669 412.016 171.181 412.07 166.379C412.07 162.578 410.348 160.075 406.189 158.329Z" fill="#EB860D"/>
<path d="M405.7 158.822C403.02 157.679 402.173 157.034 402.188 155.817C402.203 154.501 403.154 153.722 404.816 153.743C406.702 153.768 408.577 154.641 409.558 155.285L410.834 149.763C410.506 149.565 410.123 149.373 409.695 149.197L410.281 147.391L406.171 146.183L405.505 148.239C405.226 148.218 404.943 148.206 404.658 148.203C399.226 148.127 395.681 151.718 395.626 156.52C395.547 159.579 397.264 162.505 401.778 164.36C404.327 165.397 404.992 166.038 404.977 167.358C404.962 168.678 404.099 169.511 402.033 169.481C400.013 169.454 397.421 168.362 396.176 167.45L394.897 173.182C395.508 173.58 396.24 173.936 397.066 174.231L396.449 176.129L400.56 177.336L401.301 175.052C401.523 175.064 401.741 175.073 401.966 175.077C408.252 175.162 411.523 171.674 411.578 166.872C411.578 163.07 409.856 160.568 405.7 158.822Z" fill="#FFEF04"/>
<path d="M353.772 324.064C353.772 324.064 352.241 334.249 353.921 335.143C355.601 336.037 373.5 334.781 373.5 334.781C373.5 334.781 375.265 332.269 372.734 331.354C370.204 330.438 361.84 327.674 361.038 324.247L353.772 324.064Z" fill="#252933"/>
<path d="M368.897 324.441C368.897 324.441 367.366 334.626 369.046 335.517C370.726 336.411 388.626 335.155 388.626 335.155C388.626 335.155 390.391 332.643 387.86 331.728C385.33 330.812 376.966 328.048 376.164 324.621L368.897 324.441Z" fill="#2D313D"/>
<path d="M373.518 190.358C373.518 190.358 375.177 195.966 375.092 199.372C375.007 202.778 369.839 205.204 369.839 205.204L369.766 208.185L359.717 207.932C359.717 207.932 359.911 206.317 359.775 205.633C359.635 204.946 367.461 190.604 373.518 190.358Z" fill="url(#paint23_linear_75_1266)"/>
<path d="M361.74 325.104L353.237 324.892C353.237 324.892 354.64 302.78 358.319 291.799C358.319 291.799 355.673 278.531 355.035 269.994C355.035 269.994 352.59 265.673 353.717 254.628L377.549 254.372C377.549 254.372 382.799 282.615 383.522 287.742C384.245 292.872 377.631 319.11 377.461 325.922L368.107 325.688C368.107 325.688 369.596 300.171 373.19 292.595C373.19 292.595 369.107 285.68 366.664 281.359C366.664 281.359 368.025 295.022 367.111 297.555C366.194 300.086 362.387 316.176 361.74 325.104Z" fill="url(#paint24_linear_75_1266)"/>
<path d="M367.108 297.555C368.023 295.022 366.662 281.359 366.662 281.359C366.905 281.787 367.169 282.25 367.436 282.721C367.989 275.985 363.141 268.921 363.141 268.921C366.182 283.478 364.247 292.799 362.375 299.566C360.504 306.332 358.875 325.031 358.875 325.031L361.737 325.104C362.387 316.176 366.194 300.086 367.108 297.555Z" fill="url(#paint25_linear_75_1266)"/>
<path d="M377.176 184.09C375.87 185.334 372.467 185.249 372.467 185.249C374.19 184.44 374.232 182.737 374.232 182.737C371.638 184.376 367.014 182.132 361.914 182.004C356.81 181.876 354.984 186.943 354.984 186.943C354.155 186.07 354.176 185.218 354.176 185.218C353.283 186.9 354.091 188.624 354.091 188.624C353.262 187.752 351.518 189.412 351.518 189.412C352.368 189.433 353.198 190.306 353.198 190.306C352.22 195.394 355.929 200.171 357.609 201.065C359.289 201.96 358.374 204.493 359.204 205.366C360.033 206.238 367.272 205.995 369.016 204.335C370.76 202.674 370.143 193.289 370.143 193.289C371.844 193.332 372.61 196.759 372.61 196.759C373.521 194.235 371.927 191.982 371.917 191.97C375.754 188.634 377.176 184.09 377.176 184.09Z" fill="#221E52"/>
<path d="M375.462 235.582C376.441 230.494 377.501 224.035 377.501 224.035C377.501 224.035 377.513 223.922 377.528 223.755C377.65 222.599 377.677 221.419 377.61 220.258C377.604 220.145 377.601 220.075 377.601 220.072C377.662 210.769 371.829 209.933 371.829 209.933C371.829 209.933 371.835 209.93 371.841 209.927L370.189 208.188L358.283 207.89C358.283 207.89 352.289 209.444 351.247 217.083C350.205 224.722 354.99 237.619 354.012 242.707C353.034 247.794 350.865 255.841 353.523 256.966C356.181 258.091 374.059 257.69 377.547 254.369C381.034 251.054 374.484 240.669 375.462 235.582Z" fill="url(#paint26_linear_75_1266)"/>
<path d="M377.613 220.258C377.68 221.419 377.653 222.599 377.534 223.755C377.516 223.922 377.504 224.035 377.504 224.035C377.504 224.035 377.455 224.336 377.37 224.841C377.346 224.986 377.319 225.151 377.288 225.333C377.264 225.47 377.24 225.61 377.216 225.768C377.212 225.78 377.212 225.792 377.209 225.802C377.164 226.075 377.112 226.379 377.058 226.705C377.021 226.915 376.985 227.13 376.945 227.359C376.921 227.508 376.893 227.657 376.866 227.812C376.805 228.158 376.745 228.52 376.678 228.894C376.653 229.031 376.629 229.174 376.605 229.317C376.529 229.749 376.453 230.187 376.374 230.637C376.371 230.652 376.368 230.67 376.365 230.685C376.359 230.722 376.35 230.761 376.344 230.801C376.268 231.224 376.192 231.653 376.113 232.084C376.107 232.124 376.098 232.166 376.091 232.206C376.076 232.294 376.058 232.382 376.043 232.471C375.964 232.899 375.885 233.328 375.806 233.757C375.782 233.888 375.757 234.018 375.733 234.146C375.642 234.633 375.551 235.113 375.463 235.582C375.463 235.585 375.463 235.585 375.463 235.588C375.381 236.013 375.368 236.488 375.381 236.98C375.384 237.105 375.39 237.23 375.399 237.358C375.514 239.07 376.07 241.089 376.696 243.16C376.815 243.546 376.93 243.935 377.048 244.322C377.13 244.592 377.212 244.86 377.291 245.127C377.404 245.505 377.513 245.876 377.62 246.247C377.668 246.42 377.72 246.596 377.768 246.77C378.054 247.801 378.288 248.795 378.431 249.726C378.452 249.865 378.464 250.002 378.479 250.139C378.519 250.458 378.546 250.766 378.555 251.064C378.561 251.213 378.561 251.359 378.558 251.502C378.555 251.787 378.528 252.058 378.488 252.317C378.47 252.435 378.461 252.56 378.434 252.672C378.355 253.031 378.245 253.366 378.081 253.664C377.939 253.925 377.759 254.159 377.541 254.369C377.449 254.454 377.31 254.53 377.203 254.613C377.073 254.707 376.963 254.804 376.815 254.892C376.757 254.929 376.699 254.962 376.635 254.999C376.581 255.029 376.511 255.057 376.453 255.084C376.222 255.203 375.985 255.321 375.715 255.431C375.615 255.47 375.505 255.51 375.399 255.549C375.262 255.601 375.11 255.647 374.967 255.695C374.813 255.747 374.664 255.802 374.497 255.853C374.305 255.911 374.108 255.969 373.904 256.024C373.628 256.1 373.345 256.17 373.051 256.239C372.826 256.291 372.598 256.346 372.361 256.395C372.297 256.407 372.23 256.419 372.167 256.431C371.884 256.489 371.595 256.547 371.301 256.598C371.289 256.601 371.276 256.604 371.261 256.604C369.177 256.909 366.887 257.134 364.587 257.273C368.965 255.802 373.743 253.244 373.85 249.06C374.044 241.308 371.009 241.232 371.118 236.923C371.228 232.617 370.872 229.557 371.671 222.082C371.884 220.09 374.357 216.928 374.357 216.928C374.357 216.928 373.834 216.371 377.273 216.532C377.273 216.532 377.273 216.532 377.273 216.535C377.367 217.013 377.443 217.524 377.498 218.065C377.504 218.114 377.51 218.159 377.516 218.208C377.571 218.783 377.601 219.397 377.595 220.063C377.595 220.066 377.598 220.139 377.604 220.239C377.613 220.255 377.613 220.255 377.613 220.258Z" fill="url(#paint27_linear_75_1266)"/>
<path d="M394.547 191.343C394.547 191.343 395.95 189.801 395.753 188.767C395.573 187.837 395.652 188.159 395.549 187.767C395.513 187.633 395.464 187.359 395.464 187.359C395.464 187.359 394.963 184.817 395.601 184.324C396.239 183.832 396.816 184.264 396.837 185.65C396.859 187.037 398.952 187.326 399.465 185.158C399.978 182.989 401.26 180.69 401.853 181.378C402.448 182.065 401.707 183.795 401.707 183.795C401.707 183.795 401.795 183.838 401.956 183.388C402.117 182.935 402.062 181.679 402.351 181.861C402.637 182.044 404.572 183.102 404.186 186.091C403.803 189.078 402.053 190.151 401.403 190.686C400.753 191.222 398.924 193.591 398.803 194.57C398.797 194.57 394.191 193.007 394.547 191.343Z" fill="url(#paint28_linear_75_1266)"/>
<path d="M363.594 214.382C363.594 214.382 365.076 209.781 371.355 208.361C377.714 206.926 383.322 205.764 383.322 205.764L394.772 190.784L400.571 193.882C400.571 193.882 392.047 210.575 387.222 212.637C385.406 214.197 373.749 220.905 363.594 214.382Z" fill="url(#paint29_linear_75_1266)"/>
<path d="M379.752 212.208C387.237 209.976 396.609 198.599 399.483 193.302L400.568 193.882C400.568 193.882 392.043 210.575 387.219 212.637C386.779 213.014 385.752 213.716 384.318 214.464C381.86 215.714 378.288 217.052 374.308 217.204C375.982 213.47 379.752 212.208 379.752 212.208Z" fill="#3C80E3"/>
<path d="M618.186 278.464C618.186 278.464 619.918 280.544 616.84 282.426C616.13 282.861 616.175 283.81 616.643 285.09L613.25 286.221C612.484 282.283 612.025 279.257 612.123 278.555C612.39 276.605 612.618 275.544 613.96 276.155C615.303 276.767 615.473 274.516 616.5 275.237C617.527 275.958 618.077 273.449 618.842 274.665C619.608 275.879 618.186 278.464 618.186 278.464Z" fill="url(#paint30_linear_75_1266)"/>
<path d="M612.424 286.236L611.935 283.867C611.935 283.867 614.714 282.277 617.427 282.639L617.886 284.85L612.424 286.236Z" fill="#F8E8D8"/>
<path d="M636.839 323.103C636.839 323.103 615.483 310.705 613.332 306.602C611.181 302.5 611.67 284.606 611.67 284.606L617.783 282.818L620.751 302.974C620.754 302.978 645.242 307.916 636.839 323.103Z" fill="#4484E0"/>
<path d="M613.724 298.437C615.027 304.79 615.704 305.657 615.704 305.657C617.12 308.463 634.023 321.434 634.032 321.443C628.166 317.924 614.996 309.78 613.332 306.605C611.624 303.345 611.582 291.388 611.637 286.607C612.11 289.63 612.903 294.441 613.724 298.437Z" fill="#286BCE"/>
<path d="M638.328 429.717L638.735 434.057C638.735 434.057 634.704 435.866 633.987 435.005C633.27 434.145 632.778 434.373 632.778 434.373L632.437 428.881L638.328 429.717Z" fill="#22313B"/>
<path d="M655.908 428.388L655.656 432.554L650.404 432.275L649.781 427.637L655.908 428.388Z" fill="#22313B"/>
<path d="M654.502 358.127C654.502 358.127 654.797 369.023 654.192 375.27C653.591 381.519 652.47 397.129 653.366 401.776C654.189 406.045 656.704 424.736 657.172 430.152C657.224 430.754 656.753 431.268 656.155 431.271C653.84 431.28 650.133 431.681 649.502 430.492C648.69 428.96 642.66 405.212 641.764 400.565C640.868 395.918 639.221 392.075 639.221 392.075C639.221 392.075 638.62 398.324 638.744 402.992L639.489 430.52C639.507 431.195 638.942 431.736 638.276 431.672C636.165 431.472 633.592 431.435 631.879 430.912C631.879 430.912 629.12 412.608 628.118 404.072C627.115 395.535 625.56 364.465 627.68 360.885C629.804 357.309 654.502 358.127 654.502 358.127Z" fill="url(#paint31_linear_75_1266)"/>
<path d="M657.172 430.152C657.224 430.754 656.753 431.268 656.155 431.271C655.65 431.274 655.006 431.268 654.304 431.25C653.111 422.503 648.903 397.552 648.095 392.199C647.393 387.565 649.505 367.773 650.619 358.057C652.962 358.079 654.502 358.13 654.502 358.13C654.502 358.13 654.797 369.026 654.192 375.273C653.591 381.522 652.47 397.132 653.366 401.779C654.192 406.045 656.707 424.739 657.172 430.152ZM636.827 374.622C637.681 377.712 639.583 392.969 639.583 392.969C639.367 392.4 639.227 392.072 639.227 392.072C639.227 392.072 638.626 398.321 638.75 402.989L639.495 430.517C639.513 431.192 638.948 431.733 638.282 431.669C636.52 431.502 634.512 431.383 632.498 430.97C633.941 430.666 636.165 429.601 636.739 428.358C637.468 426.779 635.15 398.029 635.15 398.029C636.539 392.543 636.827 374.622 636.827 374.622Z" fill="#293C52"/>
<path d="M656.516 432.743C656.516 432.743 650.777 430.702 649.377 431.481C649.377 431.481 649.416 432.956 648.727 433.713C648.037 434.47 643.897 439.02 644.626 439.734C645.355 440.449 652.473 440.975 656.692 439.372L656.516 432.743ZM638.796 433.135C639.039 433.108 639.252 433.302 639.258 433.555L639.407 439.126C639.407 439.126 640.066 439.777 636.214 439.892C632.359 440.008 622.081 440.315 621.419 439.664C620.76 439.014 621.383 438.323 624.557 436.882C627.732 435.443 631.204 432.989 632.45 431.609C632.45 431.609 635.02 431.533 634.43 433.564C634.437 433.564 635.032 433.546 638.796 433.135Z" fill="#2D313D"/>
<path d="M645.65 307.39L644.717 303.431L636.581 303.479L636.001 308.524C636.004 308.524 640.108 314.801 645.65 307.39Z" fill="#FF8F8F"/>
<path d="M632.234 292.392C632.234 292.392 632.294 296.594 632.44 298.839C632.589 301.083 632.862 306.225 637.173 306.66C641.484 307.098 643.772 304.714 645.278 303.643C645.278 303.643 650.087 298.574 649.279 297.133C648.471 295.688 647.466 291.251 643.204 291.564C638.941 291.875 632.234 292.392 632.234 292.392Z" fill="url(#paint32_linear_75_1266)"/>
<path d="M645.081 303.826C645.081 303.826 650.467 298.924 651.691 295.828C652.916 292.732 652.767 290.488 651.248 289.095C651.248 289.095 652.569 287.495 653.28 287.444C653.28 287.444 651.151 287.599 650.488 288.399C650.488 288.399 651.05 286.103 650.291 285.406C650.291 285.406 650.388 286.902 649.729 287.702C649.729 287.702 647.156 281.128 642.942 282.186C638.729 283.244 631.872 287.502 630.402 286.86C630.402 286.86 631.161 287.556 632.583 287.453C632.583 287.453 630.502 288.356 628.369 288.511C628.369 288.511 629.326 292.2 635.107 293.28C640.889 294.362 645.102 293.301 645.102 293.301C645.102 293.301 644.027 298.641 644.883 300.834C644.883 300.834 646.108 297.738 647.526 297.634C648.948 297.531 647.675 299.879 647.013 300.678C646.354 301.478 644.37 303.878 645.081 303.826Z" fill="#221E52"/>
<path d="M647.25 306.715C647.25 306.715 648.684 311.331 647.925 311.863C647.165 312.396 643.626 314.348 643.626 314.348C643.626 314.348 645.479 316.921 645.479 318.253C645.479 319.585 631.912 336.901 631.912 336.901C631.912 336.901 628.114 318.162 628.959 317.274C629.8 316.386 631.228 314.789 631.228 314.789C631.228 314.789 630.044 311.061 631.228 310.173C632.413 309.285 635.87 308.397 635.87 308.397L637.471 309.817L645.564 305.289L647.25 306.715Z" fill="#F5F5F5"/>
<path d="M627.862 351.981C627.862 350.917 627.358 332.81 627.358 332.81C627.358 332.81 625.505 319.673 627.528 315.06C628.339 313.211 629.579 311.912 630.779 311.009C630.478 312.42 631.231 314.795 631.231 314.795C631.231 314.795 629.804 316.392 628.962 317.28C628.121 318.168 631.915 336.907 631.915 336.907L633.85 358.231L632.668 364.52C632.668 364.52 628.792 365.438 625.839 361.375C625.839 361.372 627.862 353.046 627.862 351.981Z" fill="url(#paint33_linear_75_1266)"/>
<path d="M631.636 358.906C631.636 358.906 630.645 337.469 629.843 333.741C629.439 331.865 629.752 329.52 630.159 327.65C630.991 332.363 631.912 336.901 631.912 336.901L633.847 358.224L632.665 364.513C632.665 364.513 630.508 365.021 628.188 363.595C629.226 362.677 630.66 361.117 631.636 358.906Z" fill="url(#paint34_linear_75_1266)"/>
<path d="M635.87 308.4L637.471 309.82L645.564 305.292L645.847 305.529L640.105 312.393L637.638 310.507L634.795 311.973L633.285 309.2C634.567 308.734 635.87 308.4 635.87 308.4Z" fill="#9BD4DF"/>
<path d="M635.718 313.569L635.126 311.803L637.641 310.507L639.804 312.161L637.769 314.503L636.441 325.071L632.547 336.092C632.146 336.606 631.912 336.904 631.912 336.904C631.912 336.904 631.805 336.381 631.635 335.514L635.718 313.569Z" fill="#DE3D73"/>
<path d="M632.547 336.089C637.65 320.908 647.396 307.202 647.396 307.202C647.739 308.4 648.535 311.435 647.928 311.863C647.168 312.396 643.629 314.348 643.629 314.348C643.629 314.348 645.482 316.921 645.482 318.253C645.479 319.411 635.217 332.658 632.547 336.089ZM628.959 317.277C629.8 316.389 631.228 314.792 631.228 314.792C631.228 314.792 630.043 311.064 631.228 310.176C631.687 309.832 632.483 309.491 633.288 309.2C633.233 313.548 631.398 334.297 631.398 334.3C630.393 329.125 628.312 317.958 628.959 317.277Z" fill="#68A9EA"/>
<path d="M631.912 336.901C631.912 336.901 645.479 319.582 645.479 318.25C645.479 316.918 643.626 314.345 643.626 314.345C643.626 314.345 647.165 312.393 647.924 311.86C648.684 311.328 647.25 306.712 647.25 306.712C647.25 306.712 652.812 309.154 656.607 312.393L655.507 335.648L653.924 345.781L656.033 362.786C656.033 362.786 642.447 365.827 634.858 363.963C634.858 363.963 630.56 340.398 631.319 338.534C631.413 338.303 631.614 337.734 631.912 336.901Z" fill="url(#paint35_linear_75_1266)"/>
<path d="M653.28 326.433C653.28 326.433 653.997 326.464 650.962 319.162L656.537 313.862L655.507 335.651L654.62 341.341L653.037 340.808L653.28 326.433Z" fill="#286BCE"/>
<path d="M653.068 341.331C653.068 341.207 653.056 341.027 653.037 340.808L655.513 335.55L655.507 335.654L653.925 345.787L656.607 363.705C656.607 363.705 651.582 363.814 644.905 364.334L648.347 356.424C648.347 356.421 653.068 343.46 653.068 341.331Z" fill="url(#paint36_linear_75_1266)"/>
<path d="M663.858 278.655C663.858 278.655 662.288 280.86 665.499 282.505C666.24 282.885 666.264 283.834 665.894 285.145L669.363 286.021C669.834 282.037 670.062 278.984 669.916 278.29C669.503 276.365 669.199 275.325 667.905 276.037C666.611 276.748 666.274 274.516 665.304 275.313C664.335 276.11 663.6 273.649 662.926 274.918C662.245 276.186 663.858 278.655 663.858 278.655Z" fill="url(#paint37_linear_75_1266)"/>
<path d="M670.183 285.975L670.493 283.576C670.493 283.576 667.601 282.198 664.925 282.764L664.633 285.005L670.183 285.975Z" fill="#F8E8D8"/>
<path d="M648.593 324.569C648.593 324.569 668.962 310.604 670.8 306.353C672.638 302.102 670.812 284.293 670.812 284.293L664.582 282.97L663.129 303.294C663.133 303.294 639.081 310.054 648.593 324.569Z" fill="#4484E0"/>
<path d="M669.801 298.237C668.974 304.668 668.364 305.584 668.364 305.584C667.161 308.491 651.275 322.69 651.269 322.699C656.856 318.752 669.378 309.644 670.8 306.35C672.258 302.971 671.408 291.044 670.997 286.282C670.748 289.338 670.32 294.195 669.801 298.237Z" fill="#286BCE"/>
<path d="M687.919 212.19L593.786 209.748L570.816 209.149L570.16 234.462L569.716 251.568L569.048 277.296L592.012 277.892L686.153 280.337L709.12 280.933L709.779 255.412L710.223 238.306L710.885 212.786L687.919 212.19Z" fill="url(#paint38_linear_75_1266)"/>
<path d="M576.131 213.019L574.562 273.631L703.77 276.982L705.338 216.369L576.131 213.019Z" fill="#DDF8ED"/>
<path d="M574.024 235.15C574.112 235.153 574.2 235.162 574.289 235.165C586.127 235.472 595.997 225.145 596.335 212.098L574.635 211.536L574.024 235.15ZM573.875 251.109C573.787 251.106 573.699 251.112 573.611 251.109L572.988 275.115L594.679 275.678C594.685 275.547 594.694 275.419 594.697 275.289C595.034 262.239 585.711 251.413 573.875 251.109ZM685.242 214.601C684.905 227.647 694.225 238.474 706.064 238.781C706.155 238.784 706.24 238.778 706.331 238.781L706.948 214.972L685.254 214.41C685.248 214.47 685.242 214.534 685.242 214.601ZM705.915 254.737C705.827 254.734 705.739 254.725 705.651 254.722C693.812 254.415 683.942 264.742 683.605 277.788C683.602 277.852 683.605 277.916 683.605 277.983L705.298 278.546L705.915 254.737ZM659.074 245.538C658.791 256.519 650.005 265.195 639.455 264.922C628.904 264.648 620.58 255.525 620.863 244.547C621.145 233.565 629.931 224.889 640.485 225.163C651.035 225.433 659.356 234.557 659.074 245.538ZM611.564 243.33C611.46 247.305 608.392 250.446 604.71 250.352C601.028 250.255 598.127 246.955 598.227 242.983C598.331 239.009 601.399 235.867 605.081 235.962C608.766 236.059 611.667 239.359 611.564 243.33ZM682.839 245.179C682.736 249.154 679.668 252.295 675.986 252.201C672.304 252.107 669.403 248.807 669.503 244.835C669.606 240.861 672.674 237.719 676.356 237.814C680.038 237.911 682.942 241.207 682.839 245.179Z" fill="url(#paint39_linear_75_1266)"/>
<path d="M641.806 242.053C639.801 241.049 639.172 240.487 639.196 239.441C639.227 238.306 639.956 237.646 641.208 237.677C642.629 237.713 644.033 238.477 644.762 239.039L645.801 234.298C645.558 234.125 645.269 233.958 644.95 233.802L645.418 232.255L642.335 231.184L641.803 232.948C641.593 232.93 641.381 232.914 641.165 232.908C637.07 232.802 634.348 235.864 634.239 239.994C634.138 242.625 635.393 245.155 638.771 246.788C640.679 247.7 641.171 248.26 641.144 249.391C641.113 250.525 640.454 251.234 638.896 251.194C637.371 251.155 635.432 250.194 634.506 249.4L633.464 254.324C633.917 254.67 634.466 254.983 635.086 255.242L634.594 256.869L637.677 257.939L638.267 255.978C638.431 255.99 638.601 256.002 638.768 256.005C643.507 256.13 646.026 253.153 646.132 249.02C646.184 245.754 644.917 243.586 641.806 242.053Z" fill="#DDF8ED"/>
<defs>
<linearGradient id="paint0_linear_75_1266" x1="490" y1="-49" x2="490" y2="549" gradientUnits="userSpaceOnUse">
<stop offset="0.0239582" stop-color="#46BBFD"/>
<stop offset="1" stop-color="#003397"/>
</linearGradient>
<linearGradient id="paint1_linear_75_1266" x1="799" y1="461.055" x2="807.43" y2="461.055" gradientUnits="userSpaceOnUse">
<stop stop-color="white"/>
<stop offset="1" stop-color="white" stop-opacity="0.82"/>
</linearGradient>
<linearGradient id="paint2_linear_75_1266" x1="807.43" y1="470.528" x2="832.717" y2="470.528" gradientUnits="userSpaceOnUse">
<stop stop-color="white"/>
<stop offset="1" stop-color="white" stop-opacity="0.82"/>
</linearGradient>
<linearGradient id="paint3_linear_75_1266" x1="807.573" y1="451.543" x2="832.654" y2="451.543" gradientUnits="userSpaceOnUse">
<stop stop-color="white"/>
<stop offset="1" stop-color="white" stop-opacity="0.82"/>
</linearGradient>
<linearGradient id="paint4_linear_75_1266" x1="377.712" y1="171.415" x2="598.007" y2="200.289" gradientUnits="userSpaceOnUse">
<stop stop-color="#5548F0"/>
<stop offset="1" stop-color="#E4E1FF"/>
</linearGradient>
<linearGradient id="paint5_linear_75_1266" x1="379.85" y1="200.289" x2="586.779" y2="197.615" gradientUnits="userSpaceOnUse">
<stop stop-color="#EF8EFF"/>
<stop offset="1" stop-color="#F2D8FF"/>
</linearGradient>
<linearGradient id="paint6_linear_75_1266" x1="571.272" y1="258.036" x2="395.891" y2="262.314" gradientUnits="userSpaceOnUse">
<stop stop-color="white"/>
<stop offset="0.1" stop-color="#F0F9FD"/>
<stop offset="0.299" stop-color="#D7F0FB"/>
<stop offset="0.509" stop-color="#C6E9F9"/>
<stop offset="0.734" stop-color="#BBE5F7"/>
<stop offset="1" stop-color="#B8E4F7"/>
</linearGradient>
<linearGradient id="paint7_linear_75_1266" x1="447.222" y1="140.937" x2="515.664" y2="143.611" gradientUnits="userSpaceOnUse">
<stop stop-color="#073270"/>
<stop offset="1" stop-color="#AECFFF"/>
</linearGradient>
<linearGradient id="paint8_linear_75_1266" x1="395.891" y1="106.182" x2="573.411" y2="106.182" gradientUnits="userSpaceOnUse">
<stop stop-color="#A6DBFC"/>
<stop offset="1" stop-color="#F4FBFF"/>
</linearGradient>
<linearGradient id="paint9_linear_75_1266" x1="424.765" y1="245.738" x2="537.052" y2="244.669" gradientUnits="userSpaceOnUse">
<stop stop-color="#0288C1"/>
<stop offset="1" stop-color="#68D2FF"/>
</linearGradient>
<linearGradient id="paint10_linear_75_1266" x1="421.022" y1="214.726" x2="537.052" y2="211.517" gradientUnits="userSpaceOnUse">
<stop stop-color="#0045AC"/>
<stop offset="1" stop-color="#BFD5FF"/>
</linearGradient>
<linearGradient id="paint11_linear_75_1266" x1="471.818" y1="248.946" x2="492.137" y2="248.946" gradientUnits="userSpaceOnUse">
<stop stop-color="#F600EC"/>
<stop offset="1" stop-color="#FFC6FD"/>
</linearGradient>
<linearGradient id="paint12_linear_75_1266" x1="430.112" y1="327.012" x2="532.774" y2="327.012" gradientUnits="userSpaceOnUse">
<stop stop-color="#0579DB"/>
<stop offset="1" stop-color="#94CEFF"/>
</linearGradient>
<linearGradient id="paint13_linear_75_1266" x1="422.092" y1="399.196" x2="525.288" y2="397.592" gradientUnits="userSpaceOnUse">
<stop stop-color="#1097E3"/>
<stop offset="1" stop-color="#D5F0FF"/>
</linearGradient>
<linearGradient id="paint14_linear_75_1266" x1="420.488" y1="388.503" x2="525.288" y2="385.829" gradientUnits="userSpaceOnUse">
<stop stop-color="#0054B6"/>
<stop offset="1" stop-color="#5FA9FF"/>
</linearGradient>
<linearGradient id="paint15_linear_75_1266" x1="560.044" y1="393.849" x2="601.215" y2="431.278" gradientUnits="userSpaceOnUse">
<stop stop-color="#584CDC"/>
<stop offset="1" stop-color="#C0BAFF"/>
</linearGradient>
<linearGradient id="paint16_linear_75_1266" x1="586.779" y1="416.842" x2="605.493" y2="439.299" gradientUnits="userSpaceOnUse">
<stop stop-color="#3F32DC"/>
<stop offset="1" stop-color="#C9C5FF"/>
</linearGradient>
<linearGradient id="paint17_linear_75_1266" x1="571.415" y1="365.506" x2="584.957" y2="382.879" gradientUnits="userSpaceOnUse">
<stop stop-color="#584CDC"/>
<stop offset="1" stop-color="#C0BAFF"/>
</linearGradient>
<linearGradient id="paint18_linear_75_1266" x1="578.224" y1="371.927" x2="589.987" y2="382.621" gradientUnits="userSpaceOnUse">
<stop stop-color="#3F32DC"/>
<stop offset="1" stop-color="#C9C5FF"/>
</linearGradient>
<linearGradient id="paint19_linear_75_1266" x1="573.946" y1="378.878" x2="591.591" y2="385.829" gradientUnits="userSpaceOnUse">
<stop stop-color="#FBA700"/>
<stop offset="1" stop-color="#FFD480"/>
</linearGradient>
<linearGradient id="paint20_linear_75_1266" x1="388.777" y1="172.538" x2="388.777" y2="186.271" gradientUnits="userSpaceOnUse">
<stop stop-color="white"/>
<stop offset="0.84427" stop-color="#FFC4C4"/>
</linearGradient>
<linearGradient id="paint21_linear_75_1266" x1="387.446" y1="187.594" x2="381.119" y2="222.51" gradientUnits="userSpaceOnUse">
<stop stop-color="#71B7FC"/>
<stop offset="1" stop-color="#366FDE"/>
</linearGradient>
<linearGradient id="paint22_linear_75_1266" x1="375.573" y1="148.423" x2="434.953" y2="175.631" gradientUnits="userSpaceOnUse">
<stop stop-color="#EEBF06"/>
<stop offset="1" stop-color="#FFF4CB"/>
</linearGradient>
<linearGradient id="paint23_linear_75_1266" x1="367.406" y1="190.358" x2="367.406" y2="208.185" gradientUnits="userSpaceOnUse">
<stop stop-color="white"/>
<stop offset="0.84427" stop-color="#FFC4C4"/>
</linearGradient>
<linearGradient id="paint24_linear_75_1266" x1="324.776" y1="293.326" x2="408.189" y2="288.514" gradientUnits="userSpaceOnUse">
<stop offset="0.261274" stop-color="#497BBF"/>
<stop offset="0.45525" stop-color="#394351"/>
<stop offset="0.645833" stop-color="#3A4A60"/>
<stop offset="0.807292" stop-color="#4392FF"/>
</linearGradient>
<linearGradient id="paint25_linear_75_1266" x1="371.295" y1="266.591" x2="354.72" y2="335.567" gradientUnits="userSpaceOnUse">
<stop stop-color="#2F3740"/>
<stop offset="1" stop-color="#214D7F"/>
</linearGradient>
<linearGradient id="paint26_linear_75_1266" x1="375.038" y1="213.656" x2="360.601" y2="267.126" gradientUnits="userSpaceOnUse">
<stop stop-color="#366FDE"/>
<stop offset="1" stop-color="#71B7FC"/>
</linearGradient>
<linearGradient id="paint27_linear_75_1266" x1="376.76" y1="221.239" x2="359.496" y2="260.826" gradientUnits="userSpaceOnUse">
<stop stop-color="#366FDE"/>
<stop offset="1" stop-color="#71B7FC"/>
</linearGradient>
<linearGradient id="paint28_linear_75_1266" x1="399.382" y1="181.254" x2="399.382" y2="194.57" gradientUnits="userSpaceOnUse">
<stop stop-color="white"/>
<stop offset="0.84427" stop-color="#FFC4C4"/>
</linearGradient>
<linearGradient id="paint29_linear_75_1266" x1="395.807" y1="193.85" x2="392.588" y2="224.014" gradientUnits="userSpaceOnUse">
<stop stop-color="#71B7FC"/>
<stop offset="0.790154" stop-color="#366FDE"/>
</linearGradient>
<linearGradient id="paint30_linear_75_1266" x1="615.589" y1="274.327" x2="615.589" y2="286.221" gradientUnits="userSpaceOnUse">
<stop stop-color="white"/>
<stop offset="0.84427" stop-color="#FFC4C4"/>
</linearGradient>
<linearGradient id="paint31_linear_75_1266" x1="597.961" y1="398.133" x2="681.974" y2="393.39" gradientUnits="userSpaceOnUse">
<stop offset="0.261274" stop-color="#497BBF"/>
<stop offset="0.45525" stop-color="#394351"/>
<stop offset="0.645833" stop-color="#3A4A60"/>
<stop offset="0.807292" stop-color="#4392FF"/>
</linearGradient>
<linearGradient id="paint32_linear_75_1266" x1="640.802" y1="291.549" x2="640.802" y2="306.713" gradientUnits="userSpaceOnUse">
<stop stop-color="white"/>
<stop offset="0.84427" stop-color="#FFC4C4"/>
</linearGradient>
<linearGradient id="paint33_linear_75_1266" x1="632.818" y1="317.235" x2="601.848" y2="348.205" gradientUnits="userSpaceOnUse">
<stop stop-color="#366FDE"/>
<stop offset="1" stop-color="#71B7FC"/>
</linearGradient>
<linearGradient id="paint34_linear_75_1266" x1="633.118" y1="331.942" x2="611.773" y2="353.815" gradientUnits="userSpaceOnUse">
<stop offset="0.481747" stop-color="#366FDE"/>
<stop offset="1" stop-color="#71B7FC"/>
</linearGradient>
<linearGradient id="paint35_linear_75_1266" x1="653.337" y1="313.433" x2="632.925" y2="373.337" gradientUnits="userSpaceOnUse">
<stop stop-color="#366FDE"/>
<stop offset="1" stop-color="#71B7FC"/>
</linearGradient>
<linearGradient id="paint36_linear_75_1266" x1="648.269" y1="344.657" x2="645.048" y2="369.389" gradientUnits="userSpaceOnUse">
<stop offset="0.389941" stop-color="#366FDE"/>
<stop offset="1" stop-color="#71B7FC"/>
</linearGradient>
<linearGradient id="paint37_linear_75_1266" x1="666.359" y1="274.547" x2="666.359" y2="286.021" gradientUnits="userSpaceOnUse">
<stop stop-color="white"/>
<stop offset="0.84427" stop-color="#FFC4C4"/>
</linearGradient>
<linearGradient id="paint38_linear_75_1266" x1="569.133" y1="235.579" x2="711.363" y2="241.995" gradientUnits="userSpaceOnUse">
<stop offset="0.234375" stop-color="#03E6AF"/>
<stop offset="1" stop-color="#D0FFEF"/>
</linearGradient>
<linearGradient id="paint39_linear_75_1266" x1="573.069" y1="236.208" x2="707.393" y2="242.339" gradientUnits="userSpaceOnUse">
<stop offset="0.367708" stop-color="#03E6AF"/>
<stop offset="1" stop-color="#87FFD7"/>
</linearGradient>
<clipPath id="clip0_75_1266">
<rect width="160.567" height="38" fill="white" transform="translate(799 442)"/>
</clipPath>
</defs>
</svg>
