<svg width="980" height="500" viewBox="0 0 980 500" fill="none" xmlns="http://www.w3.org/2000/svg">
<rect width="980" height="500" fill="url(#paint0_linear_215_7782)"/>
<path opacity="0.16" d="M815.877 257.058C813.009 245.348 791.829 158.871 735.022 144.755C674.891 129.813 620.502 207.296 589.132 186.869C562.093 169.262 592.147 104.957 561.008 85.0946C536.177 69.2558 501.028 99.9179 456.041 76.1646C446.158 70.9465 447.426 68.5547 438.1 63.7634C388.202 38.1287 310.225 48.975 281.907 90.6967C253.536 132.495 299.308 169.479 274.807 226.78C247.343 291.009 171.001 288.577 161.212 337.346C159.207 347.335 159.088 362.885 165.575 381.792C181.54 428.325 225.804 459.254 275.074 459.254H656.505C761.384 459.254 839.864 362.197 816.598 260.105C816.366 259.09 816.126 258.075 815.877 257.058Z" fill="#FFEBDE"/>
<path d="M786 66.9825H681.84C679.078 66.9825 676.84 69.2211 676.84 71.9825V176.143C676.84 178.904 679.078 181.143 681.84 181.143H786C788.761 181.143 791 178.904 791 176.143V71.9825C791 69.2211 788.761 66.9825 786 66.9825Z" fill="url(#paint1_linear_215_7782)"/>
<path d="M787.472 77.5654H680.367V177.015H787.472V77.5654Z" fill="white"/>
<path d="M773.962 72.4616C773.962 73.5124 773.062 74.4131 772.011 74.4131C770.96 74.4131 770.06 73.5124 770.06 72.4616C770.06 71.4108 770.96 70.5101 772.011 70.5101C773.137 70.5101 773.962 71.4108 773.962 72.4616Z" fill="white"/>
<path d="M780.716 72.4616C780.716 73.5124 779.816 74.4131 778.765 74.4131C777.714 74.4131 776.813 73.5124 776.813 72.4616C776.813 71.4108 777.714 70.5101 778.765 70.5101C779.891 70.5101 780.716 71.4108 780.716 72.4616Z" fill="white"/>
<path d="M787.471 72.4616C787.471 73.5124 786.571 74.4131 785.52 74.4131C784.469 74.4131 783.568 73.5124 783.568 72.4616C783.568 71.4108 784.469 70.5101 785.52 70.5101C786.646 70.5101 787.471 71.4108 787.471 72.4616Z" fill="white"/>
<path d="M777 94H690C688.895 94 688 94.8954 688 96C688 97.1046 688.895 98 690 98H777C778.105 98 779 97.1046 779 96C779 94.8954 778.105 94 777 94Z" fill="#FFDCB6"/>
<path d="M726 113H690C688.895 113 688 113.895 688 115C688 116.105 688.895 117 690 117H726C727.105 117 728 116.105 728 115C728 113.895 727.105 113 726 113Z" fill="#FFDCB6"/>
<path d="M777 113H741C739.895 113 739 113.895 739 115V139C739 140.105 739.895 141 741 141H777C778.105 141 779 140.105 779 139V115C779 113.895 778.105 113 777 113Z" fill="#FFDCB6"/>
<path d="M726 121H690C688.895 121 688 121.895 688 123C688 124.105 688.895 125 690 125H726C727.105 125 728 124.105 728 123C728 121.895 727.105 121 726 121Z" fill="#FFDCB6"/>
<path d="M726 130H690C688.895 130 688 130.895 688 132C688 133.105 688.895 134 690 134H726C727.105 134 728 133.105 728 132C728 130.895 727.105 130 726 130Z" fill="#FFDCB6"/>
<path d="M726 138H690C688.895 138 688 138.895 688 140C688 141.105 688.895 142 690 142H726C727.105 142 728 141.105 728 140C728 138.895 727.105 138 726 138Z" fill="#FFDCB6"/>
<path d="M726 146H690C688.895 146 688 146.895 688 148C688 149.105 688.895 150 690 150H726C727.105 150 728 149.105 728 148C728 146.895 727.105 146 726 146Z" fill="#FFDCB6"/>
<path d="M777 146H741C739.895 146 739 146.895 739 148C739 149.105 739.895 150 741 150H777C778.105 150 779 149.105 779 148C779 146.895 778.105 146 777 146Z" fill="#FFDCB6"/>
<path d="M726 155H690C688.895 155 688 155.895 688 157C688 158.105 688.895 159 690 159H726C727.105 159 728 158.105 728 157C728 155.895 727.105 155 726 155Z" fill="#FFDCB6"/>
<path d="M777 155H741C739.895 155 739 155.895 739 157C739 158.105 739.895 159 741 159H777C778.105 159 779 158.105 779 157C779 155.895 778.105 155 777 155Z" fill="#FFDCB6"/>
<path d="M726 163H690C688.895 163 688 163.895 688 165C688 166.105 688.895 167 690 167H726C727.105 167 728 166.105 728 165C728 163.895 727.105 163 726 163Z" fill="#FFDCB6"/>
<path d="M777 163H741C739.895 163 739 163.895 739 165C739 166.105 739.895 167 741 167H777C778.105 167 779 166.105 779 165C779 163.895 778.105 163 777 163Z" fill="#FFDCB6"/>
<path d="M703.238 174.162H607.061C604.851 174.162 603.061 175.953 603.061 178.162V274.34C603.061 276.549 604.851 278.34 607.061 278.34H703.238C705.447 278.34 707.238 276.549 707.238 274.34V178.162C707.238 175.953 705.447 174.162 703.238 174.162Z" fill="url(#paint2_linear_215_7782)"/>
<path d="M701.086 183.845H609.288C607.631 183.845 606.288 185.188 606.288 186.845V271.587C606.288 273.244 607.631 274.587 609.288 274.587H701.086C702.743 274.587 704.086 273.244 704.086 271.587V186.845C704.086 185.188 702.743 183.845 701.086 183.845Z" fill="white"/>
<path d="M691.701 179.191C691.701 180.167 690.876 180.993 689.9 180.993C688.924 180.993 688.099 180.167 688.099 179.191C688.099 178.216 688.924 177.39 689.9 177.39C690.951 177.465 691.701 178.216 691.701 179.191ZM697.856 179.191C697.856 180.167 697.03 180.993 696.055 180.993C695.079 180.993 694.253 180.167 694.253 179.191C694.253 178.216 695.079 177.39 696.055 177.39C697.105 177.465 697.856 178.216 697.856 179.191ZM704.011 179.191C704.011 180.167 703.185 180.993 702.209 180.993C701.233 180.993 700.408 180.167 700.408 179.191C700.408 178.216 701.233 177.39 702.209 177.39C703.26 177.465 704.011 178.216 704.011 179.191Z" fill="white"/>
<path d="M655.525 229.854L680.594 204.785C674.214 198.405 665.283 194.427 655.525 194.427V229.854Z" fill="url(#paint3_linear_215_7782)"/>
<path d="M655.526 194.427C645.768 194.427 636.837 198.405 630.457 204.785L655.526 229.854V194.427Z" fill="white"/>
<path d="M690.952 229.854C690.952 220.097 686.974 211.165 680.594 204.785L655.525 229.854H690.952Z" fill="url(#paint4_linear_215_7782)"/>
<path d="M630.456 204.785C624.077 211.165 620.099 220.097 620.099 229.854H655.525L630.456 204.785Z" fill="url(#paint5_linear_215_7782)"/>
<path d="M655.525 229.854H620.099C620.099 239.611 624.077 248.543 630.456 254.923L655.525 229.854Z" fill="url(#paint6_linear_215_7782)"/>
<path d="M655.525 229.854L680.594 254.923C686.974 248.543 690.952 239.611 690.952 229.854H655.525Z" fill="url(#paint7_linear_215_7782)"/>
<path d="M655.525 229.854V265.28C665.283 265.28 674.214 261.302 680.594 254.923L655.525 229.854Z" fill="url(#paint8_linear_215_7782)"/>
<path d="M630.457 254.923C636.837 261.302 645.768 265.28 655.526 265.28V229.854L630.457 254.923Z" fill="url(#paint9_linear_215_7782)"/>
<path d="M673.564 287.347H569.404C566.643 287.347 564.404 289.585 564.404 292.347V396.507C564.404 399.268 566.643 401.507 569.404 401.507H673.564C676.326 401.507 678.564 399.268 678.564 396.507V292.347C678.564 289.586 676.326 287.347 673.564 287.347Z" fill="url(#paint10_linear_215_7782)"/>
<path d="M672.036 297.93H570.932C569.275 297.93 567.932 299.273 567.932 300.93V394.379C567.932 396.036 569.275 397.379 570.932 397.379H672.036C673.693 397.379 675.036 396.036 675.036 394.379V300.93C675.036 299.273 673.693 297.93 672.036 297.93Z" fill="white"/>
<path d="M661.527 292.901C661.527 293.952 660.626 294.853 659.575 294.853C658.525 294.853 657.624 293.952 657.624 292.901C657.624 291.85 658.525 290.95 659.575 290.95C660.626 290.95 661.527 291.775 661.527 292.901Z" fill="white"/>
<path d="M668.282 292.901C668.282 293.952 667.381 294.853 666.33 294.853C665.28 294.853 664.379 293.952 664.379 292.901C664.379 291.85 665.28 290.95 666.33 290.95C667.381 290.95 668.282 291.775 668.282 292.901Z" fill="white"/>
<path d="M675.038 292.901C675.038 293.952 674.137 294.853 673.086 294.853C672.035 294.853 671.135 293.952 671.135 292.901C671.135 291.85 672.035 290.95 673.086 290.95C674.137 290.95 675.038 291.775 675.038 292.901Z" fill="white"/>
<path d="M666 314H580C578.895 314 578 314.895 578 316C578 317.105 578.895 318 580 318H666C667.105 318 668 317.105 668 316C668 314.895 667.105 314 666 314Z" fill="#CDE6FF"/>
<path d="M614 333H580C578.895 333 578 333.895 578 335C578 336.105 578.895 337 580 337H614C615.105 337 616 336.105 616 335C616 333.895 615.105 333 614 333Z" fill="#CDE6FF"/>
<path d="M666 333H628C626.895 333 626 333.895 626 335C626 336.105 626.895 337 628 337H666C667.105 337 668 336.105 668 335C668 333.895 667.105 333 666 333Z" fill="#CDE6FF"/>
<path d="M614 342H580C578.895 342 578 342.895 578 344C578 345.105 578.895 346 580 346H614C615.105 346 616 345.105 616 344C616 342.895 615.105 342 614 342Z" fill="#CDE6FF"/>
<path d="M666 342H628C626.895 342 626 342.895 626 344C626 345.105 626.895 346 628 346H666C667.105 346 668 345.105 668 344C668 342.895 667.105 342 666 342Z" fill="#CDE6FF"/>
<path d="M614 350H580C578.895 350 578 350.895 578 352C578 353.105 578.895 354 580 354H614C615.105 354 616 353.105 616 352C616 350.895 615.105 350 614 350Z" fill="#CDE6FF"/>
<path d="M666 350H628C626.895 350 626 350.895 626 352C626 353.105 626.895 354 628 354H666C667.105 354 668 353.105 668 352C668 350.895 667.105 350 666 350Z" fill="#CDE6FF"/>
<path d="M614 358H580C578.895 358 578 358.895 578 360C578 361.105 578.895 362 580 362H614C615.105 362 616 361.105 616 360C616 358.895 615.105 358 614 358Z" fill="#CDE6FF"/>
<path d="M666 358H628C626.895 358 626 358.895 626 360C626 361.105 626.895 362 628 362H666C667.105 362 668 361.105 668 360C668 358.895 667.105 358 666 358Z" fill="#CDE6FF"/>
<path d="M614 367H580C578.895 367 578 367.895 578 369C578 370.105 578.895 371 580 371H614C615.105 371 616 370.105 616 369C616 367.895 615.105 367 614 367Z" fill="#CDE6FF"/>
<path d="M666 367H628C626.895 367 626 367.895 626 369C626 370.105 626.895 371 628 371H666C667.105 371 668 370.105 668 369C668 367.895 667.105 367 666 367Z" fill="#CDE6FF"/>
<path d="M614 375H580C578.895 375 578 375.895 578 377C578 378.105 578.895 379 580 379H614C615.105 379 616 378.105 616 377C616 375.895 615.105 375 614 375Z" fill="#CDE6FF"/>
<path d="M666 375H628C626.895 375 626 375.895 626 377C626 378.105 626.895 379 628 379H666C667.105 379 668 378.105 668 377C668 375.895 667.105 375 666 375Z" fill="#CDE6FF"/>
<path d="M614 384H580C578.895 384 578 384.895 578 386C578 387.105 578.895 388 580 388H614C615.105 388 616 387.105 616 386C616 384.895 615.105 384 614 384Z" fill="#CDE6FF"/>
<path d="M666 384H628C626.895 384 626 384.895 626 386C626 387.105 626.895 388 628 388H666C667.105 388 668 387.105 668 386C668 384.895 667.105 384 666 384Z" fill="#CDE6FF"/>
<path d="M312.697 57H193C190.239 57 188 59.2386 188 62V181.697C188 184.458 190.239 186.697 193 186.697H312.697C315.458 186.697 317.697 184.458 317.697 181.697V62C317.697 59.2386 315.458 57 312.697 57Z" fill="url(#paint11_linear_215_7782)"/>
<path d="M313.643 68.934H191.978V181.893H313.643V68.934Z" fill="white"/>
<path d="M298.332 63.2297C298.332 64.4306 297.357 65.4814 296.081 65.4814C294.805 65.4814 293.829 64.5057 293.829 63.2297C293.829 61.9538 294.805 60.978 296.081 60.978C297.357 60.978 298.332 62.0288 298.332 63.2297ZM305.988 63.2297C305.988 64.4306 305.012 65.4814 303.736 65.4814C302.461 65.4814 301.485 64.5057 301.485 63.2297C301.485 61.9538 302.461 60.978 303.736 60.978C305.012 60.978 305.988 62.0288 305.988 63.2297ZM313.644 63.2297C313.644 64.4306 312.668 65.4814 311.392 65.4814C310.116 65.4814 309.141 64.5057 309.141 63.2297C309.141 61.9538 310.116 60.978 311.392 60.978C312.668 60.978 313.644 62.0288 313.644 63.2297Z" fill="white"/>
<path d="M300.5 87H204.5C203.119 87 202 88.1193 202 89.5C202 90.8807 203.119 92 204.5 92H300.5C301.881 92 303 90.8807 303 89.5C303 88.1193 301.881 87 300.5 87Z" fill="#F4D7FF"/>
<path d="M243.5 109H204.5C203.119 109 202 110.119 202 111.5C202 112.881 203.119 114 204.5 114H243.5C244.881 114 246 112.881 246 111.5C246 110.119 244.881 109 243.5 109Z" fill="#F4D7FF"/>
<path d="M300.5 109H260.5C259.119 109 258 110.119 258 111.5C258 112.881 259.119 114 260.5 114H300.5C301.881 114 303 112.881 303 111.5C303 110.119 301.881 109 300.5 109Z" fill="#F4D7FF"/>
<path d="M244 119H204C202.895 119 202 119.895 202 121C202 122.105 202.895 123 204 123H244C245.105 123 246 122.105 246 121C246 119.895 245.105 119 244 119Z" fill="#F4D7FF"/>
<path d="M301 119H260C258.895 119 258 119.895 258 121C258 122.105 258.895 123 260 123H301C302.105 123 303 122.105 303 121C303 119.895 302.105 119 301 119Z" fill="#F4D7FF"/>
<path d="M243.5 128H204.5C203.119 128 202 129.119 202 130.5C202 131.881 203.119 133 204.5 133H243.5C244.881 133 246 131.881 246 130.5C246 129.119 244.881 128 243.5 128Z" fill="#F4D7FF"/>
<path d="M300.5 128H260.5C259.119 128 258 129.119 258 130.5C258 131.881 259.119 133 260.5 133H300.5C301.881 133 303 131.881 303 130.5C303 129.119 301.881 128 300.5 128Z" fill="#F4D7FF"/>
<path d="M244 138H204C202.895 138 202 138.895 202 140C202 141.105 202.895 142 204 142H244C245.105 142 246 141.105 246 140C246 138.895 245.105 138 244 138Z" fill="#F4D7FF"/>
<path d="M301 138H260C258.895 138 258 138.895 258 140C258 141.105 258.895 142 260 142H301C302.105 142 303 141.105 303 140C303 138.895 302.105 138 301 138Z" fill="#F4D7FF"/>
<path d="M243.5 147H204.5C203.119 147 202 148.119 202 149.5C202 150.881 203.119 152 204.5 152H243.5C244.881 152 246 150.881 246 149.5C246 148.119 244.881 147 243.5 147Z" fill="#F4D7FF"/>
<path d="M300.5 147H260.5C259.119 147 258 148.119 258 149.5C258 150.881 259.119 152 260.5 152H300.5C301.881 152 303 150.881 303 149.5C303 148.119 301.881 147 300.5 147Z" fill="#F4D7FF"/>
<path d="M244 157H204C202.895 157 202 157.895 202 159C202 160.105 202.895 161 204 161H244C245.105 161 246 160.105 246 159C246 157.895 245.105 157 244 157Z" fill="#F4D7FF"/>
<path d="M301 157H260C258.895 157 258 157.895 258 159C258 160.105 258.895 161 260 161H301C302.105 161 303 160.105 303 159C303 157.895 302.105 157 301 157Z" fill="#F4D7FF"/>
<path d="M243.5 166H204.5C203.119 166 202 167.119 202 168.5C202 169.881 203.119 171 204.5 171H243.5C244.881 171 246 169.881 246 168.5C246 167.119 244.881 166 243.5 166Z" fill="#F4D7FF"/>
<path d="M300.5 166H260.5C259.119 166 258 167.119 258 168.5C258 169.881 259.119 171 260.5 171H300.5C301.881 171 303 169.881 303 168.5C303 167.119 301.881 166 300.5 166Z" fill="#F4D7FF"/>
<path d="M438.118 148.418H273.533C269.115 148.418 265.533 152 265.533 156.418V321.003C265.533 325.421 269.115 329.003 273.533 329.003H438.118C442.536 329.003 446.118 325.421 446.118 321.003V156.418C446.118 152 442.536 148.418 438.118 148.418Z" fill="url(#paint12_linear_215_7782)"/>
<path d="M436.489 165.156H275.088C272.879 165.156 271.088 166.947 271.088 169.156V318.473C271.088 320.682 272.879 322.473 275.088 322.473H436.489C438.698 322.473 440.489 320.682 440.489 318.473V169.156C440.489 166.947 438.698 165.156 436.489 165.156Z" fill="white"/>
<path d="M419.173 157.2C419.173 158.926 417.747 160.277 416.096 160.277C414.37 160.277 413.019 158.851 413.019 157.2C413.019 155.473 414.445 154.122 416.096 154.122C417.822 154.047 419.173 155.473 419.173 157.2ZM429.906 157.2C429.906 158.926 428.48 160.277 426.829 160.277C425.103 160.277 423.752 158.851 423.752 157.2C423.752 155.473 425.178 154.122 426.829 154.122C428.48 154.047 429.906 155.473 429.906 157.2ZM440.564 157.2C440.564 158.926 439.138 160.277 437.487 160.277C435.761 160.277 434.41 158.851 434.41 157.2C434.41 155.473 435.836 154.122 437.487 154.122C439.138 154.047 440.564 155.473 440.564 157.2Z" fill="white"/>
<path d="M426.452 291.137V196.116C426.452 193.069 423.982 190.599 420.936 190.599C417.889 190.599 415.419 193.069 415.419 196.116V291.137C415.419 294.184 417.889 296.654 420.936 296.654C423.982 296.654 426.452 294.184 426.452 291.137Z" fill="#B6D4FF"/>
<path d="M405.286 291.062V234.77C405.286 231.723 402.816 229.253 399.77 229.253C396.723 229.253 394.253 231.723 394.253 234.77V291.062C394.253 294.109 396.723 296.579 399.77 296.579C402.816 296.579 405.286 294.109 405.286 291.062Z" fill="#B6D4FF"/>
<path d="M384.046 291.137V263.516C384.046 260.47 381.576 258 378.529 258C375.483 258 373.013 260.47 373.013 263.516V291.137C373.013 294.184 375.483 296.654 378.529 296.654C381.576 296.654 384.046 294.184 384.046 291.137Z" fill="#B6D4FF"/>
<path d="M362.88 291.137V263.516C362.88 260.47 360.41 258 357.363 258C354.317 258 351.847 260.47 351.847 263.516V291.137C351.847 294.184 354.317 296.654 357.363 296.654C360.41 296.654 362.88 294.184 362.88 291.137Z" fill="#B6D4FF"/>
<path d="M341.714 291.137V281.38C341.714 278.333 339.244 275.863 336.197 275.863C333.151 275.863 330.681 278.333 330.681 281.38V291.137C330.681 294.184 333.151 296.654 336.197 296.654C339.244 296.654 341.714 294.184 341.714 291.137Z" fill="#B6D4FF"/>
<path d="M309.44 291.175C309.44 294.201 311.931 296.654 314.957 296.654C317.983 296.654 320.474 294.201 320.474 291.175C320.474 288.149 317.983 285.696 314.957 285.696C311.931 285.696 309.44 288.149 309.44 291.175Z" fill="#B6D4FF"/>
<path d="M288.273 291.175C288.273 294.201 290.764 296.654 293.79 296.654C296.816 296.654 299.307 294.201 299.307 291.175C299.307 288.149 296.816 285.696 293.79 285.696C290.764 285.696 288.273 288.149 288.273 291.175Z" fill="#B6D4FF"/>
<path d="M432.907 303.559H278.441V182.569C278.441 182.419 278.592 182.193 278.817 182.193C279.042 182.193 279.192 182.343 279.192 182.569V302.883H432.982C433.132 302.883 433.357 303.033 433.357 303.259C433.357 303.484 433.057 303.559 432.907 303.559Z" fill="url(#paint13_linear_215_7782)"/>
<path d="M286.099 282.243C285.949 282.243 285.799 282.093 285.799 281.943C285.799 281.793 285.874 281.568 286.099 281.568C286.324 281.568 305.388 278.34 330.757 264.605C354.175 251.92 387.875 227.377 415.42 182.569C415.495 182.419 415.721 182.344 415.871 182.494C416.021 182.569 416.096 182.794 415.946 182.944C388.325 227.903 354.475 252.521 331.058 265.205C305.539 278.941 286.324 282.168 286.099 282.243Z" fill="url(#paint14_linear_215_7782)"/>
<path d="M441.39 426.876L439.213 436.933C439.213 436.933 445.217 441.362 449.496 438.96L451.672 429.127L441.39 426.876Z" fill="url(#paint15_linear_215_7782)"/>
<path d="M441.239 436.258C441.239 436.258 439.588 432.805 437.787 432.655C435.985 432.43 420.299 440.836 415.42 440.836C410.542 440.836 409.791 446.766 411.517 447.741C413.469 448.867 448.52 454.121 448.52 454.121C448.52 454.121 451.972 441.962 451.372 438.359C450.772 434.907 444.767 437.759 441.239 436.258Z" fill="url(#paint16_linear_215_7782)"/>
<path d="M488.299 294.477C487.398 298.305 484.997 315.868 484.021 319.921C478.617 344.014 477.116 343.489 468.559 371.259C465.407 396.103 460.003 405.71 452.647 430.704C451.897 430.854 450.846 430.854 449.645 430.779C449.195 430.779 448.669 430.704 448.219 430.628C445.142 430.253 441.539 429.277 439.212 427.551C439.212 427.551 437.411 422.222 443.566 388.072C446.868 369.833 452.647 325.25 455.424 303.634C456.4 296.203 456.926 291.55 456.926 291.55L480.268 297.329L480.643 297.404L481.619 297.629L488.299 294.477Z" fill="url(#paint17_linear_215_7782)"/>
<path d="M494.829 425.975L495.73 439.185L505.337 436.858V425.975H494.829Z" fill="url(#paint18_linear_215_7782)"/>
<path d="M499.107 436.483C499.107 436.483 504.211 435.132 505.637 435.132C507.063 435.132 516.52 445.79 519.672 446.39C525.452 447.516 525.452 456.523 521.924 456.973C511.716 458.249 494.379 453.971 494.379 453.971C494.379 453.971 492.802 442.412 493.478 438.735C494.153 435.132 496.255 437.534 499.107 436.483Z" fill="url(#paint19_linear_215_7782)"/>
<path d="M506.689 427.401C504.437 428.377 501.209 428.677 498.057 428.602C497.607 428.602 497.081 428.602 496.631 428.527C495.505 428.452 494.379 428.377 493.329 428.302L478.843 291.625L484.622 298.53L487.249 298.305L488.675 298.23L512.318 296.504C512.318 296.504 512.318 299.356 512.318 304.084C512.318 320.221 512.393 357.749 513.293 373.961C514.494 394.902 506.689 427.401 506.689 427.401Z" fill="url(#paint20_linear_215_7782)"/>
<path d="M506.613 227.452L512.993 247.867L519.973 267.307C521.099 271.36 525.602 273.461 529.43 271.735C529.505 271.735 529.58 271.66 529.655 271.66C536.26 268.508 532.658 255.523 532.658 255.523L531.382 255.448C530.856 254.022 529.505 250.419 527.779 245.841C527.554 245.315 527.329 244.715 527.104 244.115C526.728 243.139 526.353 242.163 525.978 241.112C525.452 239.686 524.852 238.185 524.251 236.684C519.973 225.576 516.371 213.492 516.371 213.492L513.443 204.71L506.613 227.452Z" fill="#2B3823"/>
<path d="M525.452 259.951C525.452 259.951 526.353 245.165 529.505 242.013C532.658 238.861 535.51 237.66 538.512 237.735C541.439 237.81 544.291 238.185 544.066 239.461C544.066 239.461 550.896 238.41 553.898 240.212C556.901 241.938 544.892 243.514 541.364 243.589C537.761 243.664 535.885 245.691 535.735 247.792C535.585 249.894 533.558 264.004 533.558 264.004L525.452 259.951Z" fill="url(#paint21_linear_215_7782)"/>
<path d="M507.589 232.856C507.589 232.856 518.847 268.733 521.399 271.21C523.951 273.612 529.73 276.163 532.883 269.559C536.035 263.029 536.636 245.466 536.636 245.466L528.755 241.788L527.554 245.691L513.368 204.485C513.443 204.485 508.414 230.154 507.589 232.856Z" fill="url(#paint22_linear_215_7782)"/>
<path d="M521.849 240.437L566.957 240.737C568.684 240.737 570.035 239.386 570.035 237.66C570.035 235.933 568.684 234.582 566.957 234.582L521.849 234.282C520.122 234.282 518.771 235.633 518.771 237.359C518.771 239.011 520.122 240.437 521.849 240.437Z" fill="url(#paint23_linear_215_7782)"/>
<path d="M569.96 240.737L579.868 204.71C580.393 202.684 578.892 200.657 576.79 200.657L555.624 200.507C554.198 200.507 552.922 201.408 552.547 202.834L541.664 240.587L569.96 240.737Z" fill="url(#paint24_linear_215_7782)"/>
<path d="M552.547 202.909L541.814 240.287H539.412L550.145 202.909C550.52 201.558 551.796 200.582 553.222 200.582H555.624C554.198 200.582 552.922 201.483 552.547 202.909ZM557.801 222.273C557.2 224.675 558.702 226.551 561.103 226.626C563.505 226.626 565.907 224.75 566.432 222.348C567.033 219.946 565.532 218.07 563.13 217.995C560.803 217.92 558.401 219.871 557.801 222.273Z" fill="white"/>
<path d="M387.65 190.374C386.749 190.449 385.923 190.374 385.173 189.999C383.296 189.023 381.645 188.048 380.744 187.372C380.219 186.997 379.919 186.772 379.919 186.772C379.694 186.772 378.718 186.922 376.992 185.946C375.04 184.82 374.064 182.944 374.29 181.893C374.515 180.842 375.866 180.617 375.866 180.617C375.866 180.617 375.19 179.641 375.491 178.591C375.791 177.54 377.967 176.939 377.967 176.939C377.967 176.939 377.367 175.588 378.418 174.688C379.469 173.862 381.72 175.438 381.945 175.588C381.645 175.288 374.815 168.083 376.842 168.083C378.943 168.008 386.149 174.613 386.449 174.763C386.749 174.913 388.55 174.763 390.277 175.063C392.003 175.288 392.828 176.039 393.579 178.666C394.33 181.218 394.104 185.421 394.104 185.421C394.63 185.796 395.681 186.772 396.281 187.147C396.281 187.147 396.656 187.372 396.731 187.372C398.007 188.123 418.122 199.306 424.577 204.335C424.802 204.485 425.178 204.635 425.628 204.785C432.233 206.586 460.754 204.41 460.754 204.41L462.255 220.022C462.255 220.022 433.584 221.748 419.924 214.918C409.116 209.589 391.853 193.452 391.853 193.452L387.65 190.374Z" fill="url(#paint25_linear_215_7782)"/>
<path d="M514.72 296.954C503.462 299.581 494.38 300.857 485.373 301.007C485.298 301.007 485.298 301.007 485.223 301.007C485.148 301.007 485.148 301.007 485.073 301.007C476.066 300.932 466.984 299.581 455.726 296.954C454.15 276.764 461.055 276.464 460.304 253.797C460.304 253.572 460.304 253.422 460.304 253.196C460.304 252.221 460.229 251.245 460.154 250.269C460.079 248.468 459.929 246.591 459.854 244.865C459.779 243.889 459.704 242.914 459.629 241.938C458.053 222.348 454.975 206.887 456.627 204.71C458.428 202.383 463.081 199.681 467.81 197.13C472.313 194.728 476.817 192.551 479.068 190.975C481.32 191.951 483.121 192.476 485.073 192.476C485.148 192.476 485.148 192.476 485.223 192.476C485.298 192.476 485.298 192.476 485.373 192.476C487.325 192.476 489.126 191.951 491.378 190.975C493.479 192.401 497.457 194.353 501.51 196.454C506.464 199.081 511.493 201.933 513.444 204.41C515.17 206.587 512.018 223.549 510.667 244.415C510.592 245.315 510.517 246.291 510.517 247.267C510.367 249.293 510.292 251.395 510.217 253.497C510.217 253.572 510.217 253.647 510.217 253.722C510.217 254.547 510.142 255.373 510.142 256.199C509.916 277.364 516.296 277.514 514.72 296.954Z" fill="url(#paint26_linear_215_7782)"/>
<path d="M490.401 173.637L494.004 192.626C494.004 192.626 488.825 195.403 485.372 195.703C481.92 196.004 475.84 193.452 475.84 193.452L475.39 182.494L490.401 173.637Z" fill="url(#paint27_linear_215_7782)"/>
<path d="M396.281 186.772L390.577 194.277C390.577 194.277 411.968 212.591 422.551 216.194C433.134 219.796 457.602 223.174 457.602 223.174C459.403 217.019 458.578 210.94 456.551 204.785C456.551 204.785 431.333 205.386 424.052 201.708C408.591 193.827 396.281 186.772 396.281 186.772Z" fill="url(#paint28_linear_215_7782)"/>
<path d="M475.915 186.547C475.915 188.348 475.24 192.401 478.467 192.401C481.695 192.401 487.624 181.218 487.624 179.491C487.624 177.765 484.997 183.394 481.77 183.394C478.542 183.394 475.915 184.745 475.915 186.547Z" fill="#FF7F7F"/>
<path d="M466.759 146.992C466.759 147.367 463.306 165.306 465.858 167.257C468.485 169.284 472.463 148.043 472.463 148.043L466.759 146.992Z" fill="#2B2419"/>
<path d="M463.006 170.485C463.231 173.187 465.258 175.213 467.584 174.988C469.911 174.763 471.562 172.361 471.337 169.659C471.112 166.957 469.086 164.93 466.759 165.156C464.507 165.381 462.781 167.783 463.006 170.485Z" fill="url(#paint29_linear_215_7782)"/>
<path d="M467.959 153.072C469.31 147.367 460.229 186.847 474.264 188.648C482.295 189.699 489.726 182.419 490.701 179.717C492.653 173.862 494.604 164.18 493.779 157.8C493.479 155.173 496.781 152.096 495.13 150.069C491.452 145.491 484.922 142.789 479.443 143.014C473.514 143.314 469.31 146.917 467.959 153.072Z" fill="url(#paint30_linear_215_7782)"/>
<path d="M491.227 168.608V157.05C491.227 157.05 473.063 159.451 467.284 153.297C455.425 140.913 469.836 128.303 488.675 143.69C493.028 147.217 496.856 148.793 498.357 149.919C499.408 150.745 500.083 152.021 500.083 153.447C500.083 156.374 498.732 170.56 496.105 175.438L491.227 168.608Z" fill="url(#paint31_linear_215_7782)"/>
<path d="M499.107 173.562C498.357 176.564 495.655 178.365 493.103 177.69C490.551 176.939 489.125 173.937 489.95 171.01C490.701 168.008 493.403 166.206 495.955 166.882C498.507 167.632 499.933 170.635 499.107 173.562Z" fill="url(#paint32_linear_215_7782)"/>
<path d="M492.053 147.893C490.027 144.44 485.523 138.361 477.642 136.109C474.94 135.358 472.088 135.133 469.161 135.508L469.086 134.683C472.088 134.308 475.015 134.533 477.867 135.358C485.974 137.61 490.627 143.915 492.729 147.442L492.053 147.893Z" fill="#2B2419"/>
<g clip-path="url(#clip0_215_7782)">
<path d="M848.688 467.15C847.638 467.181 846.599 466.917 845.691 466.387C844.86 465.875 844.194 465.133 843.775 464.251C843.312 463.258 843.084 462.171 843.107 461.076C843.084 459.979 843.312 458.892 843.775 457.898C844.194 457.015 844.86 456.273 845.691 455.762C846.599 455.232 847.638 454.967 848.688 454.998C849.89 454.954 851.072 455.308 852.051 456.005C852.958 456.686 853.624 457.638 853.952 458.723L851.983 459.267C851.794 458.566 851.388 457.942 850.824 457.485C850.206 457.035 849.452 456.811 848.688 456.852C847.998 456.826 847.316 457.009 846.731 457.378C846.199 457.743 845.79 458.261 845.558 458.863C845.282 459.575 845.146 460.333 845.157 461.097C845.14 461.859 845.274 462.617 845.549 463.327C845.785 463.932 846.199 464.45 846.737 464.813C847.323 465.181 848.006 465.364 848.697 465.338C849.459 465.372 850.208 465.143 850.821 464.691C851.384 464.233 851.79 463.609 851.98 462.909L853.952 463.425C853.627 464.509 852.965 465.461 852.063 466.143C851.08 466.843 849.894 467.197 848.688 467.15Z" fill="white"/>
<path d="M856.094 466.91V455.239H860.915C861.031 455.239 861.176 455.239 861.354 455.239C861.52 455.247 861.684 455.264 861.847 455.292C862.455 455.368 863.032 455.6 863.523 455.967C863.959 456.308 864.298 456.759 864.503 457.274C864.72 457.833 864.828 458.429 864.821 459.029C864.844 459.901 864.593 460.759 864.102 461.48C863.84 461.832 863.508 462.126 863.127 462.344C862.747 462.562 862.325 462.7 861.889 462.748L861.054 462.819H858.048V466.91H856.094ZM858.048 461.01H860.834C860.944 461.01 861.063 461.01 861.2 460.993C861.326 460.984 861.45 460.962 861.571 460.927C861.864 460.866 862.132 460.717 862.337 460.5C862.522 460.3 862.658 460.061 862.736 459.802C862.811 459.555 862.85 459.299 862.851 459.041C862.85 458.781 862.811 458.523 862.736 458.275C862.658 458.014 862.522 457.774 862.337 457.574C862.131 457.358 861.863 457.21 861.571 457.149C861.45 457.117 861.325 457.098 861.2 457.09C861.063 457.09 860.944 457.09 860.834 457.09H858.048V461.01ZM862.801 466.91L860.502 462.157L862.486 461.72L865.014 466.907L862.801 466.91Z" fill="white"/>
<path d="M867.164 466.91V455.239H874.7V457.072H869.116V459.947H873.726V461.78H869.116V465.077H874.7V466.91H867.164Z" fill="white"/>
<path d="M876.206 466.91L879.883 455.239H882.744L886.424 466.91H884.413L881.074 456.439H881.514L878.217 466.91H876.206ZM878.256 464.379V462.558H884.381V464.379H878.256Z" fill="white"/>
<path d="M890.087 466.91V457.072H886.312V455.239H895.817V457.072H892.038V466.91H890.087Z" fill="white"/>
<path d="M897.646 466.91V455.239H899.598V466.91H897.646Z" fill="white"/>
<path d="M905.043 466.91L901.351 455.239H903.359L906.439 465.012L909.558 455.239H911.578L907.888 466.91H905.043Z" fill="white"/>
<path d="M913.154 466.91V455.239H920.69V457.072H915.109V459.947H919.719V461.78H915.109V465.077H920.69V466.91H913.154Z" fill="white"/>
<path d="M923.162 466.91V455.239H925.114V466.91H923.162Z" fill="white"/>
<path d="M930.73 466.91V457.072H926.955V455.239H936.46V457.072H932.682V466.91H930.73Z" fill="white"/>
<path d="M938.126 466.91V455.239H945.662V457.072H940.092V459.947H944.702V461.78H940.092V465.077H945.674V466.91H938.126Z" fill="white"/>
<path d="M947.982 466.91V455.239H949.741L953.775 463.506L957.811 455.239H959.567V466.91H957.746V459.43L954.164 466.91H953.386L949.821 459.43V466.91H947.982Z" fill="white"/>
<path d="M815.86 470.789L807.43 465.92V475.654L815.86 470.789Z" fill="white" fill-opacity="0.48"/>
<path d="M832.717 461.055L824.287 456.19V465.921L832.717 461.055Z" fill="white" fill-opacity="0.47"/>
<path d="M815.86 451.321L807.43 446.456V456.189L815.86 451.321Z" fill="white" fill-opacity="0.48"/>
<path d="M807.43 446.456L800.687 450.35C800.174 450.645 799.747 451.07 799.451 451.583C799.155 452.096 798.999 452.677 799 453.27V468.84C799 469.433 799.155 470.015 799.452 470.528C799.748 471.041 800.174 471.467 800.687 471.763L807.43 475.654V446.456Z" fill="url(#paint33_linear_215_7782)"/>
<path d="M832.716 468.84V461.055L807.43 475.654L814.172 479.549C814.685 479.845 815.266 480.001 815.858 480.001C816.45 480.001 817.031 479.845 817.544 479.549L831.032 471.763C831.545 471.467 831.97 471.04 832.266 470.527C832.561 470.014 832.717 469.433 832.716 468.84Z" fill="url(#paint34_linear_215_7782)"/>
<path d="M817.606 442.594C817.098 442.301 816.521 442.146 815.934 442.146C815.347 442.146 814.77 442.301 814.262 442.594L807.572 446.456L832.654 460.939V453.216C832.654 452.629 832.5 452.052 832.206 451.543C831.913 451.034 831.49 450.611 830.982 450.317L817.606 442.594Z" fill="url(#paint35_linear_215_7782)"/>
</g>
<defs>
<linearGradient id="paint0_linear_215_7782" x1="490" y1="-49" x2="490" y2="549" gradientUnits="userSpaceOnUse">
<stop offset="0.0239582" stop-color="#46BBFD"/>
<stop offset="1" stop-color="#003397"/>
</linearGradient>
<linearGradient id="paint1_linear_215_7782" x1="677" y1="121.5" x2="791" y2="121.5" gradientUnits="userSpaceOnUse">
<stop stop-color="#FFB15C"/>
<stop offset="1" stop-color="#FFF2E3"/>
</linearGradient>
<linearGradient id="paint2_linear_215_7782" x1="603" y1="226.013" x2="707" y2="226.013" gradientUnits="userSpaceOnUse">
<stop stop-color="#5B93FE"/>
<stop offset="1" stop-color="#C2DBFF"/>
</linearGradient>
<linearGradient id="paint3_linear_215_7782" x1="668.06" y1="194.427" x2="668.06" y2="229.854" gradientUnits="userSpaceOnUse">
<stop stop-color="#E21B00"/>
<stop offset="1" stop-color="#FFCECE"/>
</linearGradient>
<linearGradient id="paint4_linear_215_7782" x1="673.239" y1="204.785" x2="673.239" y2="229.854" gradientUnits="userSpaceOnUse">
<stop stop-color="#FFB15C"/>
<stop offset="1" stop-color="#FFF2E4"/>
</linearGradient>
<linearGradient id="paint5_linear_215_7782" x1="631.5" y1="206.5" x2="632" y2="230" gradientUnits="userSpaceOnUse">
<stop stop-color="#5B9EFF"/>
<stop offset="1" stop-color="#E9F2FF"/>
</linearGradient>
<linearGradient id="paint6_linear_215_7782" x1="637.812" y1="229.854" x2="631.5" y2="255" gradientUnits="userSpaceOnUse">
<stop stop-color="#E98DF8"/>
<stop offset="1" stop-color="white"/>
</linearGradient>
<linearGradient id="paint7_linear_215_7782" x1="673.239" y1="229.854" x2="673.239" y2="254.923" gradientUnits="userSpaceOnUse">
<stop stop-color="#FFB15C"/>
<stop offset="1" stop-color="#FFF2E4"/>
</linearGradient>
<linearGradient id="paint8_linear_215_7782" x1="668.06" y1="229.854" x2="668.06" y2="265.28" gradientUnits="userSpaceOnUse">
<stop stop-color="#FFB15C"/>
<stop offset="1" stop-color="#FFF2E4"/>
</linearGradient>
<linearGradient id="paint9_linear_215_7782" x1="649" y1="230" x2="642.991" y2="265.28" gradientUnits="userSpaceOnUse">
<stop stop-color="#86A1FF"/>
<stop offset="1" stop-color="#F9FAFF"/>
</linearGradient>
<linearGradient id="paint10_linear_215_7782" x1="564" y1="339.5" x2="679" y2="339.5" gradientUnits="userSpaceOnUse">
<stop stop-color="#FF9A20"/>
<stop offset="1" stop-color="#FFDAAD"/>
</linearGradient>
<linearGradient id="paint11_linear_215_7782" x1="188" y1="104" x2="320" y2="104" gradientUnits="userSpaceOnUse">
<stop stop-color="#E18DFE"/>
<stop offset="1" stop-color="#F5DAFF"/>
</linearGradient>
<linearGradient id="paint12_linear_215_7782" x1="263.5" y1="247" x2="449" y2="247.5" gradientUnits="userSpaceOnUse">
<stop stop-color="#6587FF"/>
<stop offset="1" stop-color="#E0E3FE"/>
</linearGradient>
<linearGradient id="paint13_linear_215_7782" x1="285" y1="277" x2="394" y2="278" gradientUnits="userSpaceOnUse">
<stop stop-color="#FFA340"/>
<stop offset="1" stop-color="#FFE3C5"/>
</linearGradient>
<linearGradient id="paint14_linear_215_7782" x1="286" y1="287.5" x2="412.5" y2="196.5" gradientUnits="userSpaceOnUse">
<stop stop-color="#FFB15C"/>
<stop offset="1" stop-color="#FFE7CE"/>
</linearGradient>
<linearGradient id="paint15_linear_215_7782" x1="434.332" y1="424.675" x2="452.72" y2="436.74" gradientUnits="userSpaceOnUse">
<stop stop-color="white"/>
<stop offset="0.84427" stop-color="#FFC4C4"/>
</linearGradient>
<linearGradient id="paint16_linear_215_7782" x1="449" y1="440" x2="414.5" y2="451" gradientUnits="userSpaceOnUse">
<stop stop-color="#090C08"/>
<stop offset="1" stop-color="#6C6C6C"/>
</linearGradient>
<linearGradient id="paint17_linear_215_7782" x1="463.633" y1="291.55" x2="463.633" y2="430.828" gradientUnits="userSpaceOnUse">
<stop offset="0.218451" stop-color="#232326"/>
<stop offset="1" stop-color="#43436A"/>
</linearGradient>
<linearGradient id="paint18_linear_215_7782" x1="490.713" y1="423.703" x2="507.944" y2="432.942" gradientUnits="userSpaceOnUse">
<stop stop-color="white"/>
<stop offset="0.84427" stop-color="#FFC4C4"/>
</linearGradient>
<linearGradient id="paint19_linear_215_7782" x1="493" y1="443" x2="524" y2="457" gradientUnits="userSpaceOnUse">
<stop offset="0.308504" stop-color="#131A0F"/>
<stop offset="1" stop-color="#8B8B8B"/>
</linearGradient>
<linearGradient id="paint20_linear_215_7782" x1="496.131" y1="291.625" x2="496.131" y2="428.613" gradientUnits="userSpaceOnUse">
<stop offset="0.296631" stop-color="#232326"/>
<stop offset="1" stop-color="#43436A"/>
</linearGradient>
<linearGradient id="paint21_linear_215_7782" x1="556" y1="238" x2="520.398" y2="252.86" gradientUnits="userSpaceOnUse">
<stop stop-color="white"/>
<stop offset="0.84427" stop-color="#FFC4C4"/>
</linearGradient>
<linearGradient id="paint22_linear_215_7782" x1="509.419" y1="215.175" x2="549.566" y2="251.616" gradientUnits="userSpaceOnUse">
<stop stop-color="#6038BA"/>
<stop offset="1" stop-color="#AD88FF"/>
</linearGradient>
<linearGradient id="paint23_linear_215_7782" x1="544.441" y1="235.24" x2="544.441" y2="239.224" gradientUnits="userSpaceOnUse">
<stop stop-color="#E5E8FF"/>
<stop offset="0.0001" stop-color="#F6F7FF"/>
<stop offset="1" stop-color="#B8C8FF"/>
</linearGradient>
<linearGradient id="paint24_linear_215_7782" x1="560.847" y1="206.475" x2="560.847" y2="231.306" gradientUnits="userSpaceOnUse">
<stop stop-color="#E5E8FF"/>
<stop offset="0.0001" stop-color="#F6F7FF"/>
<stop offset="1" stop-color="#B8C8FF"/>
</linearGradient>
<linearGradient id="paint25_linear_215_7782" x1="357.5" y1="166" x2="378.584" y2="207.398" gradientUnits="userSpaceOnUse">
<stop stop-color="white"/>
<stop offset="0.748538" stop-color="#FFC4C4"/>
</linearGradient>
<linearGradient id="paint26_linear_215_7782" x1="459.239" y1="207.952" x2="522.511" y2="282.005" gradientUnits="userSpaceOnUse">
<stop stop-color="#6038BA"/>
<stop offset="1" stop-color="#AD88FF"/>
</linearGradient>
<linearGradient id="paint27_linear_215_7782" x1="468.098" y1="169.838" x2="497.813" y2="186.713" gradientUnits="userSpaceOnUse">
<stop stop-color="white"/>
<stop offset="0.84427" stop-color="#FFC4C4"/>
</linearGradient>
<linearGradient id="paint28_linear_215_7782" x1="394.863" y1="192.388" x2="404.736" y2="232.332" gradientUnits="userSpaceOnUse">
<stop stop-color="#AD88FF"/>
<stop offset="1" stop-color="#6038BA"/>
</linearGradient>
<linearGradient id="paint29_linear_215_7782" x1="459.707" y1="163.442" x2="473.026" y2="171.058" gradientUnits="userSpaceOnUse">
<stop stop-color="white"/>
<stop offset="0.84427" stop-color="#FFC4C4"/>
</linearGradient>
<linearGradient id="paint30_linear_215_7782" x1="454.829" y1="135.133" x2="503.28" y2="164.845" gradientUnits="userSpaceOnUse">
<stop offset="0.248642" stop-color="white"/>
<stop offset="0.84427" stop-color="#FFC4C4"/>
</linearGradient>
<linearGradient id="paint31_linear_215_7782" x1="481.528" y1="136.589" x2="481.528" y2="175.438" gradientUnits="userSpaceOnUse">
<stop stop-color="#2B2419"/>
<stop offset="1" stop-color="#172A59"/>
</linearGradient>
<linearGradient id="paint32_linear_215_7782" x1="485.945" y1="164.833" x2="501.087" y2="173.69" gradientUnits="userSpaceOnUse">
<stop stop-color="white"/>
<stop offset="0.84427" stop-color="#FFC4C4"/>
</linearGradient>
<linearGradient id="paint33_linear_215_7782" x1="799" y1="461.055" x2="807.43" y2="461.055" gradientUnits="userSpaceOnUse">
<stop stop-color="white"/>
<stop offset="1" stop-color="white" stop-opacity="0.82"/>
</linearGradient>
<linearGradient id="paint34_linear_215_7782" x1="807.43" y1="470.528" x2="832.716" y2="470.528" gradientUnits="userSpaceOnUse">
<stop stop-color="white"/>
<stop offset="1" stop-color="white" stop-opacity="0.82"/>
</linearGradient>
<linearGradient id="paint35_linear_215_7782" x1="807.572" y1="451.543" x2="832.654" y2="451.543" gradientUnits="userSpaceOnUse">
<stop stop-color="white"/>
<stop offset="1" stop-color="white" stop-opacity="0.82"/>
</linearGradient>
<clipPath id="clip0_215_7782">
<rect width="160.567" height="38" fill="white" transform="translate(799 442)"/>
</clipPath>
</defs>
</svg>
