<svg width="980" height="500" viewBox="0 0 980 500" fill="none" xmlns="http://www.w3.org/2000/svg">
<rect width="980" height="500" fill="url(#paint0_linear_228_1109)"/>
<g clip-path="url(#clip0_228_1109)">
<path d="M848.688 467.15C847.638 467.181 846.599 466.917 845.691 466.387C844.86 465.875 844.194 465.133 843.775 464.251C843.312 463.258 843.084 462.171 843.107 461.076C843.084 459.979 843.312 458.892 843.775 457.898C844.194 457.015 844.86 456.273 845.691 455.762C846.599 455.232 847.638 454.967 848.688 454.998C849.89 454.954 851.072 455.308 852.051 456.005C852.958 456.686 853.624 457.638 853.952 458.723L851.983 459.267C851.794 458.566 851.388 457.942 850.824 457.485C850.206 457.035 849.452 456.811 848.688 456.852C847.998 456.826 847.316 457.009 846.731 457.378C846.199 457.743 845.79 458.261 845.558 458.863C845.282 459.575 845.146 460.333 845.157 461.097C845.14 461.859 845.274 462.617 845.549 463.327C845.785 463.932 846.199 464.45 846.737 464.813C847.323 465.181 848.006 465.364 848.697 465.338C849.459 465.372 850.208 465.143 850.821 464.691C851.384 464.233 851.79 463.609 851.98 462.909L853.952 463.425C853.627 464.509 852.965 465.461 852.063 466.143C851.08 466.843 849.894 467.197 848.688 467.15Z" fill="white"/>
<path d="M856.094 466.91V455.239H860.915C861.031 455.239 861.176 455.239 861.354 455.239C861.52 455.247 861.684 455.264 861.847 455.292C862.455 455.368 863.032 455.6 863.523 455.967C863.959 456.308 864.298 456.759 864.503 457.274C864.72 457.833 864.828 458.429 864.821 459.029C864.844 459.901 864.593 460.759 864.102 461.48C863.84 461.832 863.508 462.126 863.127 462.344C862.747 462.562 862.325 462.7 861.889 462.748L861.054 462.819H858.048V466.91H856.094ZM858.048 461.01H860.834C860.944 461.01 861.063 461.01 861.2 460.993C861.326 460.984 861.45 460.962 861.571 460.927C861.864 460.866 862.132 460.717 862.337 460.5C862.522 460.3 862.658 460.061 862.736 459.802C862.811 459.555 862.85 459.299 862.851 459.041C862.85 458.781 862.811 458.523 862.736 458.275C862.658 458.014 862.522 457.774 862.337 457.574C862.131 457.358 861.863 457.21 861.571 457.149C861.45 457.117 861.325 457.098 861.2 457.09C861.063 457.09 860.944 457.09 860.834 457.09H858.048V461.01ZM862.801 466.91L860.502 462.157L862.486 461.72L865.014 466.907L862.801 466.91Z" fill="white"/>
<path d="M867.164 466.91V455.239H874.7V457.072H869.116V459.947H873.726V461.78H869.116V465.077H874.7V466.91H867.164Z" fill="white"/>
<path d="M876.206 466.91L879.883 455.239H882.744L886.424 466.91H884.413L881.074 456.439H881.514L878.217 466.91H876.206ZM878.256 464.379V462.558H884.381V464.379H878.256Z" fill="white"/>
<path d="M890.087 466.91V457.072H886.312V455.239H895.817V457.072H892.038V466.91H890.087Z" fill="white"/>
<path d="M897.646 466.91V455.239H899.598V466.91H897.646Z" fill="white"/>
<path d="M905.043 466.91L901.351 455.239H903.359L906.439 465.012L909.558 455.239H911.578L907.888 466.91H905.043Z" fill="white"/>
<path d="M913.154 466.91V455.239H920.69V457.072H915.109V459.947H919.719V461.78H915.109V465.077H920.69V466.91H913.154Z" fill="white"/>
<path d="M923.162 466.91V455.239H925.114V466.91H923.162Z" fill="white"/>
<path d="M930.73 466.91V457.072H926.955V455.239H936.46V457.072H932.682V466.91H930.73Z" fill="white"/>
<path d="M938.127 466.91V455.239H945.663V457.072H940.093V459.947H944.703V461.78H940.093V465.077H945.675V466.91H938.127Z" fill="white"/>
<path d="M947.982 466.91V455.239H949.741L953.775 463.506L957.811 455.239H959.567V466.91H957.746V459.43L954.164 466.91H953.386L949.821 459.43V466.91H947.982Z" fill="white"/>
<path d="M815.86 470.789L807.43 465.92V475.654L815.86 470.789Z" fill="white" fill-opacity="0.48"/>
<path d="M832.717 461.055L824.287 456.19V465.921L832.717 461.055Z" fill="white" fill-opacity="0.47"/>
<path d="M815.86 451.321L807.43 446.456V456.189L815.86 451.321Z" fill="white" fill-opacity="0.48"/>
<path d="M807.43 446.456L800.687 450.35C800.174 450.645 799.747 451.07 799.451 451.583C799.155 452.096 798.999 452.677 799 453.27V468.84C799 469.433 799.155 470.015 799.452 470.528C799.748 471.041 800.174 471.467 800.687 471.763L807.43 475.654V446.456Z" fill="url(#paint1_linear_228_1109)"/>
<path d="M832.716 468.84V461.055L807.43 475.654L814.172 479.549C814.685 479.845 815.266 480.001 815.858 480.001C816.45 480.001 817.031 479.845 817.544 479.549L831.032 471.763C831.545 471.467 831.97 471.04 832.266 470.527C832.561 470.014 832.717 469.433 832.716 468.84Z" fill="url(#paint2_linear_228_1109)"/>
<path d="M817.606 442.594C817.098 442.301 816.521 442.146 815.934 442.146C815.347 442.146 814.77 442.301 814.262 442.594L807.572 446.456L832.654 460.939V453.216C832.654 452.629 832.5 452.052 832.206 451.543C831.913 451.034 831.49 450.611 830.982 450.317L817.606 442.594Z" fill="url(#paint3_linear_228_1109)"/>
</g>
<rect width="63.0772" height="24.2605" transform="matrix(-1 0 0 1 390.731 323)" fill="#4053FF"/>
<rect width="14.5563" height="14.5563" transform="matrix(-1 0 0 1 385.879 327.852)" fill="white"/>
<rect width="14.5563" height="14.5563" transform="matrix(-1 0 0 1 366.471 327.852)" fill="white"/>
<rect width="14.5563" height="14.5563" transform="matrix(-1 0 0 1 347.062 327.852)" fill="white"/>
<path d="M636.118 100.936C571.909 46.5117 410.981 38.991 339.17 82.4981C281.511 126.005 426.184 183.664 339.17 245.69C252.155 307.716 274.96 421.902 330.436 430.636C385.911 439.37 578.459 471.96 636.118 392.547C693.777 313.134 700.327 155.36 636.118 100.936Z" fill="white" fill-opacity="0.16"/>
<path d="M551.979 400.391L373.261 428.938L358.462 359.229L545.429 339.497L551.979 400.391Z" fill="url(#paint4_linear_228_1109)"/>
<path d="M278 301.328L512.922 283.779L564.678 324.941L367.602 348.959L278 301.328Z" fill="#FFA28E"/>
<path d="M443.458 309.253C427.111 309.253 413.86 306.537 413.86 303.188C413.86 299.838 427.111 297.122 443.458 297.122C459.804 297.122 473.056 299.838 473.056 303.188C473.056 306.537 459.804 309.253 443.458 309.253Z" fill="url(#paint5_linear_228_1109)"/>
<path d="M529.906 249.168L329.11 262.43L317.223 98.0249L517.938 106.435L529.906 249.168Z" fill="url(#paint6_linear_228_1109)"/>
<path d="M278 301.328L278.971 315.399L285.602 383.005L373.263 428.938L387.658 426.512L382.563 362.529L546.321 340.791L545.351 327.205L367.602 348.959L278 301.328Z" fill="url(#paint7_linear_228_1109)"/>
<path d="M419.52 302.136C425.408 279.057 424.583 268.527 413.779 256.608L452.434 254.101C444.767 268.657 446.595 279.04 454.617 299.241L419.52 302.136Z" fill="url(#paint8_linear_228_1109)"/>
<path fill-rule="evenodd" clip-rule="evenodd" d="M422.529 272.749C425.797 272.231 429.29 271.374 432.848 270.161C439.512 267.897 445.237 264.807 449.216 261.557C449.992 259.147 451.06 256.688 452.435 254.084L413.78 256.591C418.535 261.864 421.365 266.845 422.529 272.749Z" fill="#242424" fill-opacity="0.51"/>
<path d="M536.939 142.421C538.169 147.549 538.848 147.468 540.012 144.12C556.251 193.417 581.66 202.879 613.36 198.14C618.616 198.14 626.299 189.81 628.482 187.142C630.342 184.877 627.835 178.246 627.188 174.284C640.208 157.382 643.475 136.631 644.575 132.232C645.675 127.833 626.752 114.441 617.161 108.295C611.274 102.44 606.745 101.567 597.672 101.987C580.479 101.761 557.367 100.936 552.547 103.443C537.15 111.433 527.882 132.636 534.271 146.546C535.452 149.134 536.503 145.171 536.939 142.421Z" fill="url(#paint9_linear_228_1109)"/>
<path d="M325.389 107.708C325.259 106.036 326.611 104.621 328.288 104.674L510.142 110.399C511.585 110.444 512.76 111.571 512.865 113.011L521.525 231.62C521.641 233.211 520.415 234.581 518.821 234.642L338.449 241.543C336.936 241.601 335.648 240.453 335.531 238.944L325.389 107.708Z" fill="white"/>
<path d="M542.765 159.646L540.825 146.627C544.642 151.883 547.116 154.277 552.146 157.463L582.714 181.885C592.338 192.398 605.6 202.345 614.172 194.905C614.075 196.296 614.301 196.943 615.304 197.816C614.641 202.248 614.544 204.706 615.951 208.895L575.921 221.996C577.587 216.448 578.17 213.715 577.539 210.513C554.249 219.085 551.014 201.86 544.464 186.818C541.827 180.753 543.574 167.491 542.765 159.646Z" fill="url(#paint10_linear_228_1109)"/>
<path d="M550.337 173.793C547.405 161.967 552.486 150.532 561.685 148.252C570.884 145.971 580.718 153.71 583.649 165.536C586.581 177.362 581.5 188.797 572.301 191.077C563.102 193.358 553.268 185.619 550.337 173.793Z" fill="#FBFFFC"/>
<path d="M549.603 171.992C548.41 161.232 552.927 151.901 559.692 151.151C566.457 150.401 572.908 158.515 574.101 169.276C575.295 180.036 570.778 189.367 564.012 190.117C557.247 190.867 550.796 182.752 549.603 171.992Z" fill="url(#paint11_linear_228_1109)"/>
<path d="M548.951 171.29C548.199 163.734 551.229 157.248 555.718 156.801C560.207 156.355 564.455 162.118 565.206 169.673C565.957 177.229 562.928 183.715 558.439 184.162C553.95 184.608 549.702 178.845 548.951 171.29Z" fill="#FBFFFC"/>
<path d="M576.406 120.102C578.994 114.862 604.872 110.042 617.487 108.295C618.539 108.149 614.414 103.88 611.746 103.524C592.37 100.952 584.962 104.3 572.929 111.853C566.249 115.864 563.629 135.386 563.225 149.861L570.746 151.317C571.554 143.101 573.819 125.342 576.406 120.102Z" fill="#FBFFFC"/>
<path d="M455.632 115.601C455.48 113.38 457.282 111.514 459.507 111.588L505.068 113.114C507.002 113.179 508.571 114.702 508.693 116.633L510.571 146.433C510.708 148.597 508.989 150.427 506.821 150.427H461.526C459.55 150.427 457.911 148.897 457.777 146.926L455.632 115.601Z" fill="url(#paint12_linear_228_1109)"/>
<path d="M476.613 128.431C476.613 132.733 478.716 136.389 481.627 137.65V139.591H478.716C472.732 139.591 467.88 144.443 467.88 150.427H499.58C499.58 144.443 494.728 139.591 488.744 139.591H485.994V137.731C488.986 136.534 491.17 132.83 491.17 128.431C491.17 123.078 487.903 118.727 483.892 118.727C479.881 118.727 476.613 123.078 476.613 128.431Z" fill="white"/>
<path d="M458.724 157.741C458.515 155.524 460.269 153.614 462.496 153.632L508.085 154.006C510.02 154.022 511.627 155.505 511.798 157.433L514.428 187.182C514.619 189.342 512.947 191.215 510.779 191.27L465.497 192.407C463.522 192.457 461.846 190.969 461.661 189.002L458.724 157.741Z" fill="url(#paint13_linear_228_1109)"/>
<path d="M480.041 170.03C480.154 174.332 482.337 177.923 485.281 179.119L485.329 181.06L482.418 181.141C476.434 181.287 471.711 186.268 471.857 192.252L503.541 191.444C503.395 185.46 498.414 180.737 492.43 180.882L489.68 180.947L489.632 179.087C492.591 177.809 494.678 174.057 494.565 169.674C494.435 164.321 491.055 160.051 487.044 160.164C483.049 160.245 479.895 164.676 480.041 170.03Z" fill="#90D6CB"/>
<path d="M461.564 199.391C461.301 197.181 463.005 195.227 465.231 195.189L510.805 194.398C512.741 194.364 514.385 195.807 514.605 197.73L517.986 227.4C518.232 229.554 516.608 231.469 514.442 231.579L469.203 233.868C467.229 233.968 465.515 232.522 465.281 230.559L461.564 199.391Z" fill="url(#paint14_linear_228_1109)"/>
<path d="M483.177 211.143C483.388 215.446 485.684 218.988 488.644 220.104L488.741 222.028L493.108 221.802L493.011 219.942C495.938 218.583 497.928 214.782 497.701 210.399C497.426 205.046 493.949 200.873 489.938 201.083C485.927 201.294 482.902 205.79 483.177 211.143Z" fill="white"/>
<path d="M495.863 221.672C501.831 221.365 506.926 225.975 507.233 231.943L475.565 233.544C475.258 227.576 479.868 222.481 485.836 222.174L495.863 221.672Z" fill="white"/>
<path d="M393.929 113.984C393.777 111.762 395.579 109.896 397.804 109.971L443.365 111.496C445.299 111.561 446.868 113.084 446.99 115.016L448.868 144.815C449.005 146.98 447.286 148.81 445.118 148.81H399.823C397.847 148.81 396.208 147.28 396.073 145.309L393.929 113.984Z" fill="url(#paint15_linear_228_1109)"/>
<path d="M414.91 126.652C414.91 130.954 417.013 134.61 419.924 135.871V138.135H417.013C411.029 138.135 406.177 142.988 406.177 148.972H437.877C437.877 142.988 433.025 138.135 427.041 138.135H424.291V135.952C427.283 134.755 429.467 131.051 429.467 126.652C429.467 121.299 426.2 116.948 422.189 116.948C418.177 116.948 414.91 121.299 414.91 126.652Z" fill="#EEF3FF"/>
<path d="M396.363 157.709C396.155 155.492 397.909 153.581 400.136 153.599L445.724 153.974C447.66 153.989 449.267 155.473 449.437 157.401L452.067 187.149C452.258 189.309 450.586 191.182 448.418 191.237L403.137 192.374C401.162 192.424 399.486 190.936 399.301 188.969L396.363 157.709Z" fill="url(#paint16_linear_228_1109)"/>
<path d="M417.662 169.836C417.775 174.138 419.958 177.728 422.902 178.925L422.95 181.19L427.317 181.076L427.269 178.893C430.228 177.615 432.315 173.863 432.202 169.48C432.072 164.126 428.692 159.857 424.681 159.97C420.67 160.067 417.532 164.482 417.662 169.836Z" fill="#E5A895"/>
<path d="M430.083 181.012C436.067 180.866 441.033 185.589 441.194 191.573L409.51 192.366C409.365 186.381 414.087 181.416 420.072 181.254L430.083 181.012Z" fill="#E5A895"/>
<path d="M400.833 200.96C400.569 198.75 402.274 196.796 404.499 196.757L450.074 195.967C452.01 195.933 453.654 197.375 453.873 199.299L457.255 228.969C457.5 231.123 455.876 233.038 453.711 233.148L408.472 235.437C406.498 235.536 404.784 234.091 404.55 232.128L400.833 200.96Z" fill="url(#paint17_linear_228_1109)"/>
<path d="M422.432 212.551C422.642 216.853 424.939 220.395 427.898 221.511L428.012 223.759L425.1 223.904C419.116 224.212 414.523 229.29 414.83 235.275L446.498 233.673C446.191 227.705 441.112 223.096 435.128 223.403L432.378 223.549L432.265 221.365C435.193 220.007 437.182 216.206 436.956 211.823C436.681 206.469 433.203 202.296 429.192 202.491C425.197 202.701 422.173 207.197 422.432 212.551Z" fill="#EAC1B0"/>
<path d="M331.497 113.66C331.345 111.439 333.147 109.573 335.372 109.647L380.933 111.173C382.867 111.238 384.436 112.761 384.558 114.693L386.437 144.492C386.573 146.656 384.855 148.487 382.686 148.487H337.391C335.415 148.487 333.777 146.956 333.642 144.985L331.497 113.66Z" fill="#FEDAC1" fill-opacity="0.5"/>
<path d="M352.48 126.652C352.48 130.954 354.582 134.61 357.494 135.871V137.65H354.582C348.598 137.65 343.746 142.502 343.746 148.487H375.446C375.446 142.502 370.594 137.65 364.61 137.65H361.86V135.952C364.853 134.755 367.036 131.051 367.036 126.652C367.036 121.299 363.785 116.948 359.758 116.948C355.731 116.948 352.48 121.299 352.48 126.652Z" fill="#F6BD95"/>
<path d="M333.948 158.971C333.74 156.754 335.494 154.843 337.721 154.861L383.309 155.235C385.245 155.251 386.852 156.735 387.022 158.663L389.652 188.411C389.843 190.571 388.171 192.444 386.003 192.499L340.722 193.636C338.747 193.686 337.071 192.198 336.886 190.231L333.948 158.971Z" fill="url(#paint18_linear_228_1109)"/>
<path d="M355.247 171.421C355.36 175.723 357.543 179.313 360.487 180.51L360.536 182.289L357.624 182.37C351.64 182.516 346.917 187.497 347.063 193.482L378.747 192.689C378.602 186.705 373.62 181.982 367.636 182.128L364.886 182.192L364.838 180.494C367.798 179.216 369.884 175.448 369.771 171.065C369.641 165.711 366.261 161.442 362.25 161.555C358.255 161.636 355.117 166.067 355.247 171.421Z" fill="#E5A895"/>
<path d="M338.14 203.807C337.877 201.597 339.581 199.643 341.807 199.604L387.382 198.814C389.317 198.78 390.962 200.222 391.181 202.146L394.562 231.815C394.808 233.97 393.184 235.885 391.018 235.994L345.779 238.283C343.806 238.383 342.092 236.937 341.858 234.975L338.14 203.807Z" fill="url(#paint19_linear_228_1109)"/>
<path d="M359.759 215.72C359.969 220.023 362.266 223.565 365.225 224.681L365.323 226.444L369.689 226.217L369.609 224.519C372.536 223.16 374.525 219.36 374.299 214.976C374.024 209.623 370.547 205.45 366.536 205.66C362.524 205.855 359.5 210.367 359.759 215.72Z" fill="#F6BD95"/>
<path d="M372.439 226.088C378.424 225.781 383.502 230.39 383.81 236.358L352.142 237.959C351.834 231.991 356.444 226.897 362.412 226.589L372.439 226.088Z" fill="#F6BD95"/>
<path d="M649.185 429.747C676.438 409.61 664.421 396.316 654.523 396.995L517.451 394.892C503.784 404.839 480.737 420.35 504.997 427.321C541.307 437.753 607.7 460.396 649.185 429.747Z" fill="url(#paint20_linear_228_1109)"/>
<path fill-rule="evenodd" clip-rule="evenodd" d="M647.327 419.638C653.991 412.392 655.333 397.156 654.767 391.738L585.382 369.58C552.744 361.477 502.266 360.685 483.084 369.58C454.376 382.908 436.94 425.315 438.978 443.526C454.99 444.481 471.601 444.917 488.162 444.561C489.925 442.038 490.96 439.095 492.076 435.925C493.678 431.396 495.441 426.431 499.662 421.579C507.49 412.586 531.233 418.215 545.191 425.703C574.869 438.318 640.664 426.884 647.327 419.638Z" fill="url(#paint21_linear_228_1109)"/>
<path d="M566.767 365.99C535.956 361.494 498.886 362.238 483.084 369.581C474.237 373.689 466.458 380.562 459.988 388.633C466.911 395.895 488.535 395.572 516.289 395.183C534.598 394.925 555.575 394.617 576.746 396.429L566.767 365.99Z" fill="url(#paint22_linear_228_1109)"/>
<path d="M422.351 305.937L432.298 307.797L426.152 329.712C420.265 327.626 416.076 325.653 413.375 326.397C405.919 328.241 400.581 325.798 391.136 319.523C387.642 319.863 386.09 319.377 383.615 317.986C379.669 318.278 378.245 315.544 378.763 312.326C378.989 310.935 380.38 310.951 380.704 308.282C381.076 305.225 384.828 305.371 384.586 303.026C383.858 296.071 387.739 298.012 395.503 296.071C395.228 294.421 395.179 290.879 397.12 289.844C399.546 288.55 403.266 294.454 411.353 294.454C414.183 294.454 419.197 302.783 422.351 305.937Z" fill="url(#paint23_linear_228_1109)"/>
<path d="M492.707 292.998L509.042 297.365L493.515 321.14L472.49 312.326L492.707 292.998Z" fill="white" stroke="white" stroke-width="0.161737"/>
<path d="M617.164 208.814C623.471 208.814 624.361 208.814 628.728 214.556C659.846 221.899 661.787 225.764 676.149 254.392L676.278 254.667L666.978 340.387C660.234 355.105 654.25 373.899 655.819 377.425C659.215 385.026 657.032 390.962 655.253 391.9C632.415 403.949 571.23 416.678 546 397.803C542.522 395.2 543.768 348.312 544.059 315.803L503.544 350.091C495.538 356.318 468.576 346.727 445.723 341.357C441.469 341.649 439.221 340.84 435.291 338.77C411.839 330.117 427.527 307.635 432.541 304.724C436.601 302.363 440.353 303.915 442.407 305.775L479.445 306.988C480.626 308.04 483.44 309.511 485.187 306.988C486.933 304.465 490.815 305.5 492.546 306.341C505.404 289.003 531.848 253.082 534.759 248.035C537.67 242.989 557.483 231.215 567.025 225.958C581.662 217.144 609.805 208.814 617.164 208.814Z" fill="url(#paint24_linear_228_1109)"/>
<path fill-rule="evenodd" clip-rule="evenodd" d="M544.059 315.9C546.145 313.215 548.555 310.676 551.094 308.525C552.049 321.27 551.094 341.147 543.768 340.419C543.8 337.492 543.833 334.581 543.881 331.702C543.946 326.235 544.01 320.898 544.059 315.9Z" fill="url(#paint25_linear_228_1109)"/>
<path d="M577.051 193.207C577.293 194.306 577.503 195.358 577.665 196.361M577.665 196.361C578.377 200.566 578.506 204.318 578.183 210.836M577.665 196.361C577.293 198.091 572.732 204.836 570.339 206.146" stroke="#CE8E6A" stroke-width="0.970419"/>
<path d="M627.754 164.741C624.535 169.076 623.015 171.502 616.756 175.901M618.454 170.159C618.05 171.566 615.381 173.831 613.521 174.364M611.904 172.585C610.303 173.572 609.267 173.798 607.213 173.717" stroke="#1C4942" stroke-width="0.970419"/>
<path d="M602.447 284.264C612.265 264.646 687.747 247.55 694.96 255.588C710.164 272.538 689.283 295.505 685.256 309.123C681.714 321.092 637.625 352.032 609.887 357.935C582.149 363.839 590.883 307.393 602.447 284.264Z" fill="url(#paint26_linear_228_1109)"/>
<path d="M628.079 353.083L656.141 344.592C649.881 372.556 648.862 392.304 647.73 420.851C647.472 427.32 631.961 436.96 625.168 432.496C618.375 428.032 624.327 376.179 628.079 353.083Z" fill="url(#paint27_linear_228_1109)"/>
<path d="M610.208 302.703C614.672 281.224 695.605 264.225 700.538 270.921C705.956 278.28 694.861 310.838 690.834 324.456C687.292 336.425 647.165 353.488 619.427 359.391C591.69 365.295 604.629 329.551 610.208 302.703Z" fill="url(#paint28_linear_228_1109)"/>
<path d="M626.381 215.527L579.801 224.584M566.862 226.444L575.919 225.312M541.146 244.882C548.262 244.235 558.452 267.201 556.592 287.419M612.067 391.9C607.296 392.887 604.401 393.13 597.43 390.849M485.589 309.334C481.336 311.825 479.007 314.542 474.915 320.413M478.473 328.257C481.449 318.407 483.632 313.442 490.522 307.797C483.81 323.825 482.84 335.373 491.25 338.932C492.786 339.579 485.686 323.162 492.059 306.827" stroke="#D36923" stroke-width="0.970419"/>
<path d="M319.082 310.061V321.464L354.422 339.497V327.205L319.082 310.061Z" fill="url(#paint29_linear_228_1109)"/>
<path d="M354.178 306.746L319.081 310.061L354.421 327.205L394.612 324.132L354.178 306.746Z" fill="#E54357"/>
<path d="M394.612 334.969V324.132L354.421 327.205V339.497L394.612 334.969Z" fill="url(#paint30_linear_228_1109)"/>
<path d="M355.554 330.36L391.379 326.963V332.705L355.554 336.425L320.215 319.119V312.973L355.554 330.36Z" fill="white"/>
<path d="M342.695 293.403L307.598 296.718L342.937 313.862L383.129 310.789L342.695 293.403Z" fill="url(#paint31_linear_228_1109)"/>
<path fill-rule="evenodd" clip-rule="evenodd" d="M383.129 310.789V321.625L342.937 326.154V323.324L378.762 319.604V313.862L342.937 317.259V313.862L383.129 310.789ZM307.598 299.872V296.718L342.937 313.862V317.259L307.598 299.872ZM342.937 323.324V326.154L307.598 308.12V306.018L342.937 323.324Z" fill="url(#paint32_linear_228_1109)"/>
<path d="M342.941 317.259L378.766 313.862V319.604L342.941 323.324L307.602 306.018V299.872L342.941 317.259Z" fill="white"/>
<path d="M330.805 301.7C330.223 301.473 329.657 301.134 329.172 300.649C328.913 300.39 328.687 300.099 328.493 299.807L323.608 294.519L330.514 293.92C331.145 293.759 331.841 293.759 332.504 293.92C332.973 294.033 333.442 294.228 333.862 294.519L354.662 303.511C355.179 303.738 355.664 304.061 356.101 304.482C357.783 306.148 357.912 308.735 356.408 310.256C355.131 311.55 353.06 311.663 351.427 310.628L330.805 301.7Z" fill="url(#paint33_linear_228_1109)"/>
<path d="M330.519 293.92C329.904 294.082 329.338 294.389 328.869 294.874C327.591 296.152 327.494 298.19 328.497 299.807L323.612 294.519L330.519 293.92Z" fill="#756D6C"/>
<defs>
<linearGradient id="paint0_linear_228_1109" x1="490" y1="-49" x2="490" y2="549" gradientUnits="userSpaceOnUse">
<stop offset="0.0239582" stop-color="#D84CEB"/>
<stop offset="1" stop-color="#7935D9"/>
</linearGradient>
<linearGradient id="paint1_linear_228_1109" x1="799" y1="461.055" x2="807.43" y2="461.055" gradientUnits="userSpaceOnUse">
<stop stop-color="white"/>
<stop offset="1" stop-color="white" stop-opacity="0.82"/>
</linearGradient>
<linearGradient id="paint2_linear_228_1109" x1="807.43" y1="470.528" x2="832.716" y2="470.528" gradientUnits="userSpaceOnUse">
<stop stop-color="white"/>
<stop offset="1" stop-color="white" stop-opacity="0.82"/>
</linearGradient>
<linearGradient id="paint3_linear_228_1109" x1="807.572" y1="451.543" x2="832.654" y2="451.543" gradientUnits="userSpaceOnUse">
<stop stop-color="white"/>
<stop offset="1" stop-color="white" stop-opacity="0.82"/>
</linearGradient>
<linearGradient id="paint4_linear_228_1109" x1="505.369" y1="387.417" x2="387.914" y2="379.463" gradientUnits="userSpaceOnUse">
<stop stop-color="#B25C4F"/>
<stop offset="1" stop-color="#A34436"/>
</linearGradient>
<linearGradient id="paint5_linear_228_1109" x1="443.458" y1="297.122" x2="443.458" y2="309.253" gradientUnits="userSpaceOnUse">
<stop stop-color="#434343"/>
<stop offset="1" stop-color="#8B8989"/>
</linearGradient>
<linearGradient id="paint6_linear_228_1109" x1="423.564" y1="98.0249" x2="423.564" y2="262.43" gradientUnits="userSpaceOnUse">
<stop stop-color="#434343"/>
<stop offset="1" stop-color="#8B8989"/>
</linearGradient>
<linearGradient id="paint7_linear_228_1109" x1="412.161" y1="301.328" x2="412.161" y2="428.938" gradientUnits="userSpaceOnUse">
<stop stop-color="#C45D4E"/>
<stop offset="1" stop-color="#F79C8E"/>
</linearGradient>
<linearGradient id="paint8_linear_228_1109" x1="434.198" y1="254.101" x2="434.198" y2="302.136" gradientUnits="userSpaceOnUse">
<stop stop-color="#434343"/>
<stop offset="1" stop-color="#8B8989"/>
</linearGradient>
<linearGradient id="paint9_linear_228_1109" x1="588.424" y1="101.676" x2="588.424" y2="199.228" gradientUnits="userSpaceOnUse">
<stop stop-color="#520316"/>
<stop offset="1" stop-color="#BB3355"/>
</linearGradient>
<linearGradient id="paint10_linear_228_1109" x1="645.379" y1="133.664" x2="536.096" y2="207.084" gradientUnits="userSpaceOnUse">
<stop stop-color="white"/>
<stop offset="0.84427" stop-color="#FFC4C4"/>
</linearGradient>
<linearGradient id="paint11_linear_228_1109" x1="568.789" y1="157.699" x2="564.561" y2="186.355" gradientUnits="userSpaceOnUse">
<stop stop-color="#E5E7F1"/>
<stop offset="1" stop-color="#E5E7F1" stop-opacity="0"/>
</linearGradient>
<linearGradient id="paint12_linear_228_1109" x1="455.577" y1="131.391" x2="511.01" y2="131.391" gradientUnits="userSpaceOnUse">
<stop stop-color="#E1E1E1"/>
<stop offset="1" stop-color="#FBFBFB"/>
</linearGradient>
<linearGradient id="paint13_linear_228_1109" x1="458.391" y1="172.731" x2="514.764" y2="172.731" gradientUnits="userSpaceOnUse">
<stop stop-color="#2A7C6F"/>
<stop offset="1" stop-color="#5CD6C2"/>
</linearGradient>
<linearGradient id="paint14_linear_228_1109" x1="461.309" y1="214.654" x2="518.633" y2="214.654" gradientUnits="userSpaceOnUse">
<stop stop-color="#E1E1E1"/>
<stop offset="1" stop-color="#FBFBFB"/>
</linearGradient>
<linearGradient id="paint15_linear_228_1109" x1="393.566" y1="129.512" x2="448.999" y2="129.512" gradientUnits="userSpaceOnUse">
<stop stop-color="#AEC6FF"/>
<stop offset="1" stop-color="#DEE8FF"/>
</linearGradient>
<linearGradient id="paint16_linear_228_1109" x1="396.385" y1="172.731" x2="450.409" y2="173.671" gradientUnits="userSpaceOnUse">
<stop stop-color="#FEDAC1"/>
<stop offset="1" stop-color="#FFF2E9"/>
<stop offset="1" stop-color="#FFF4ED"/>
</linearGradient>
<linearGradient id="paint17_linear_228_1109" x1="400.143" y1="215.95" x2="457.455" y2="215.95" gradientUnits="userSpaceOnUse">
<stop stop-color="#F6EECA"/>
<stop offset="1" stop-color="#FFFCED"/>
</linearGradient>
<linearGradient id="paint18_linear_228_1109" x1="333.436" y1="174.61" x2="389.809" y2="174.61" gradientUnits="userSpaceOnUse">
<stop stop-color="#F9D1C8"/>
<stop offset="1" stop-color="#FFF4F1"/>
</linearGradient>
<linearGradient id="paint19_linear_228_1109" x1="337.192" y1="218.769" x2="393.094" y2="220.648" gradientUnits="userSpaceOnUse">
<stop stop-color="#F9D1C8"/>
<stop offset="1" stop-color="#F9D1C8" stop-opacity="0"/>
<stop offset="1" stop-color="#FFE2DC"/>
</linearGradient>
<linearGradient id="paint20_linear_228_1109" x1="508.659" y1="431.106" x2="666.032" y2="414.664" gradientUnits="userSpaceOnUse">
<stop offset="0.0357439" stop-color="#F1F4FE"/>
<stop offset="1" stop-color="#C7CEF4"/>
</linearGradient>
<linearGradient id="paint21_linear_228_1109" x1="606.842" y1="373.324" x2="472.958" y2="464.929" gradientUnits="userSpaceOnUse">
<stop stop-color="#0B0241"/>
<stop offset="1" stop-color="#5343BA"/>
</linearGradient>
<linearGradient id="paint22_linear_228_1109" x1="544.363" y1="379.431" x2="467.321" y2="410.905" gradientUnits="userSpaceOnUse">
<stop stop-color="#24186B"/>
<stop offset="1" stop-color="#24186B" stop-opacity="0"/>
</linearGradient>
<linearGradient id="paint23_linear_228_1109" x1="453.308" y1="282.77" x2="390.905" y2="339.094" gradientUnits="userSpaceOnUse">
<stop stop-color="white"/>
<stop offset="0.84427" stop-color="#FFC4C4"/>
</linearGradient>
<linearGradient id="paint24_linear_228_1109" x1="549.513" y1="208.814" x2="549.513" y2="407.41" gradientUnits="userSpaceOnUse">
<stop stop-color="#CC6A2A"/>
<stop offset="1" stop-color="#F89B5E"/>
</linearGradient>
<linearGradient id="paint25_linear_228_1109" x1="547.585" y1="308.525" x2="547.585" y2="340.439" gradientUnits="userSpaceOnUse">
<stop stop-color="#D26117"/>
<stop offset="1" stop-color="#FFD7BD"/>
</linearGradient>
<linearGradient id="paint26_linear_228_1109" x1="595.098" y1="348.426" x2="700.797" y2="253.532" gradientUnits="userSpaceOnUse">
<stop stop-color="white"/>
<stop offset="1" stop-color="#D7DFF5"/>
</linearGradient>
<linearGradient id="paint27_linear_228_1109" x1="638.785" y1="318.83" x2="639.105" y2="433.636" gradientUnits="userSpaceOnUse">
<stop stop-color="#F1F4FE"/>
<stop offset="1" stop-color="#C7CEF4"/>
</linearGradient>
<linearGradient id="paint28_linear_228_1109" x1="652.143" y1="269.443" x2="652.143" y2="360.038" gradientUnits="userSpaceOnUse">
<stop stop-color="#F1F4FE"/>
<stop offset="1" stop-color="#C7CEF4"/>
</linearGradient>
<linearGradient id="paint29_linear_228_1109" x1="345.65" y1="324.937" x2="350.348" y2="339.03" gradientUnits="userSpaceOnUse">
<stop stop-color="#C73C4E"/>
<stop offset="1" stop-color="#C73C4E" stop-opacity="0"/>
<stop offset="1" stop-color="#F68795"/>
</linearGradient>
<linearGradient id="paint30_linear_228_1109" x1="394.504" y1="331.514" x2="358.332" y2="340.439" gradientUnits="userSpaceOnUse">
<stop stop-color="#C73C4E"/>
<stop offset="1" stop-color="#FFD9DE"/>
</linearGradient>
<linearGradient id="paint31_linear_228_1109" x1="345.363" y1="293.403" x2="345.363" y2="313.862" gradientUnits="userSpaceOnUse">
<stop stop-color="#F1CB6C"/>
<stop offset="1" stop-color="#FFE7AB"/>
</linearGradient>
<linearGradient id="paint32_linear_228_1109" x1="347.527" y1="309.904" x2="345.363" y2="326.154" gradientUnits="userSpaceOnUse">
<stop stop-color="#C99E35"/>
<stop offset="1" stop-color="#FFD97B"/>
</linearGradient>
<linearGradient id="paint33_linear_228_1109" x1="340.532" y1="293.799" x2="340.532" y2="311.325" gradientUnits="userSpaceOnUse">
<stop stop-color="#F19353"/>
<stop offset="1" stop-color="#FFB887"/>
</linearGradient>
<clipPath id="clip0_228_1109">
<rect width="160.567" height="38" fill="white" transform="translate(799 442)"/>
</clipPath>
</defs>
</svg>
