<svg width="980" height="500" viewBox="0 0 980 500" fill="none" xmlns="http://www.w3.org/2000/svg">
<rect width="980" height="500" fill="url(#paint0_radial_281_2212)"/>
<g clip-path="url(#clip0_281_2212)">
<path d="M848.688 467.15C847.638 467.181 846.599 466.917 845.691 466.387C844.86 465.875 844.194 465.133 843.775 464.251C843.312 463.258 843.084 462.171 843.107 461.076C843.084 459.979 843.312 458.892 843.775 457.898C844.194 457.015 844.86 456.273 845.691 455.762C846.599 455.232 847.638 454.967 848.688 454.998C849.89 454.954 851.072 455.308 852.051 456.005C852.958 456.686 853.624 457.638 853.952 458.723L851.983 459.267C851.794 458.566 851.388 457.942 850.824 457.485C850.206 457.035 849.452 456.811 848.688 456.852C847.998 456.826 847.316 457.009 846.731 457.378C846.199 457.743 845.79 458.261 845.558 458.863C845.282 459.575 845.146 460.333 845.157 461.097C845.14 461.859 845.274 462.617 845.549 463.327C845.785 463.932 846.199 464.45 846.737 464.813C847.323 465.181 848.006 465.364 848.697 465.338C849.459 465.372 850.208 465.143 850.821 464.691C851.384 464.233 851.79 463.609 851.98 462.909L853.952 463.425C853.627 464.509 852.965 465.461 852.063 466.143C851.08 466.843 849.894 467.197 848.688 467.15Z" fill="white"/>
<path d="M856.094 466.91V455.239H860.915C861.031 455.239 861.176 455.239 861.354 455.239C861.52 455.247 861.684 455.264 861.847 455.292C862.455 455.368 863.032 455.6 863.523 455.967C863.959 456.308 864.298 456.759 864.503 457.274C864.72 457.833 864.828 458.429 864.821 459.029C864.844 459.901 864.593 460.759 864.102 461.48C863.84 461.832 863.508 462.126 863.127 462.344C862.747 462.562 862.325 462.7 861.889 462.748L861.054 462.819H858.048V466.91H856.094ZM858.048 461.01H860.834C860.944 461.01 861.063 461.01 861.2 460.993C861.326 460.984 861.45 460.962 861.571 460.927C861.864 460.866 862.132 460.717 862.337 460.5C862.522 460.3 862.658 460.061 862.736 459.802C862.811 459.555 862.85 459.299 862.851 459.041C862.85 458.781 862.811 458.523 862.736 458.275C862.658 458.014 862.522 457.774 862.337 457.574C862.131 457.358 861.863 457.21 861.571 457.149C861.45 457.117 861.325 457.098 861.2 457.09C861.063 457.09 860.944 457.09 860.834 457.09H858.048V461.01ZM862.801 466.91L860.502 462.157L862.486 461.72L865.014 466.907L862.801 466.91Z" fill="white"/>
<path d="M867.164 466.91V455.239H874.7V457.072H869.116V459.947H873.726V461.78H869.116V465.077H874.7V466.91H867.164Z" fill="white"/>
<path d="M876.205 466.91L879.882 455.239H882.743L886.423 466.91H884.412L881.074 456.439H881.513L878.216 466.91H876.205ZM878.255 464.379V462.558H884.38V464.379H878.255Z" fill="white"/>
<path d="M890.086 466.91V457.072H886.311V455.239H895.816V457.072H892.037V466.91H890.086Z" fill="white"/>
<path d="M897.646 466.91V455.239H899.598V466.91H897.646Z" fill="white"/>
<path d="M905.042 466.91L901.35 455.239H903.358L906.438 465.012L909.557 455.239H911.577L907.887 466.91H905.042Z" fill="white"/>
<path d="M913.154 466.91V455.239H920.69V457.072H915.109V459.947H919.719V461.78H915.109V465.077H920.69V466.91H913.154Z" fill="white"/>
<path d="M923.162 466.91V455.239H925.114V466.91H923.162Z" fill="white"/>
<path d="M930.73 466.91V457.072H926.955V455.239H936.46V457.072H932.682V466.91H930.73Z" fill="white"/>
<path d="M938.127 466.91V455.239H945.663V457.072H940.093V459.947H944.703V461.78H940.093V465.077H945.675V466.91H938.127Z" fill="white"/>
<path d="M947.982 466.91V455.239H949.741L953.775 463.506L957.811 455.239H959.567V466.91H957.746V459.43L954.164 466.91H953.386L949.821 459.43V466.91H947.982Z" fill="white"/>
<path d="M815.86 470.789L807.43 465.92V475.654L815.86 470.789Z" fill="white" fill-opacity="0.48"/>
<path d="M832.717 461.055L824.287 456.19V465.921L832.717 461.055Z" fill="white" fill-opacity="0.47"/>
<path d="M815.86 451.321L807.43 446.456V456.189L815.86 451.321Z" fill="white" fill-opacity="0.48"/>
<path d="M807.43 446.456L800.687 450.35C800.174 450.645 799.747 451.07 799.451 451.583C799.155 452.096 798.999 452.677 799 453.27V468.84C799 469.433 799.155 470.015 799.452 470.528C799.748 471.041 800.174 471.467 800.687 471.763L807.43 475.654V446.456Z" fill="url(#paint1_linear_281_2212)"/>
<path d="M832.716 468.84V461.055L807.43 475.654L814.172 479.549C814.685 479.845 815.266 480.001 815.858 480.001C816.45 480.001 817.031 479.845 817.544 479.549L831.032 471.763C831.545 471.467 831.97 471.04 832.266 470.527C832.561 470.014 832.717 469.433 832.716 468.84Z" fill="url(#paint2_linear_281_2212)"/>
<path d="M817.606 442.594C817.098 442.301 816.521 442.146 815.934 442.146C815.347 442.146 814.77 442.301 814.262 442.594L807.572 446.456L832.654 460.939V453.216C832.654 452.629 832.5 452.052 832.206 451.543C831.913 451.034 831.49 450.611 830.982 450.317L817.606 442.594Z" fill="url(#paint3_linear_281_2212)"/>
</g>
<path d="M579.364 161.663C582.955 159.006 586.712 156.577 590.566 154.292C594.466 152.087 598.469 150.066 602.576 148.25C610.841 144.681 619.517 142.151 628.405 140.719C632.855 140.038 637.362 139.694 641.863 139.66C646.365 139.602 650.878 139.843 655.322 140.536C659.766 141.217 664.17 142.197 668.443 143.554C672.709 144.946 676.867 146.641 680.824 148.714C672.566 145.329 663.912 143.044 655.121 142.065C646.336 141.097 637.425 141.263 628.703 142.695C624.339 143.348 619.997 144.247 615.737 145.433C611.47 146.618 607.301 148.107 603.154 149.665C594.907 152.924 586.998 157.036 579.364 161.663ZM397.897 63.662C405.617 63.4329 413.371 64.1431 420.977 65.655C428.589 67.2319 435.995 69.6782 443.049 72.9456C457.177 79.4801 469.668 89.4337 479.547 101.455C484.438 107.514 488.693 114.071 492.319 120.95C494.134 124.386 495.801 127.902 497.295 131.482C498.807 135.095 500.153 138.612 501.98 141.968C505.577 148.691 510.605 154.63 516.59 159.389C522.58 164.166 529.642 167.568 537.127 169.446C529.533 168.009 522.282 164.756 515.994 160.168C509.78 155.484 504.489 149.522 500.634 142.718C498.67 139.345 497.175 135.662 495.703 132.163C494.203 128.635 492.53 125.182 490.715 121.809C487.09 115.056 482.846 108.642 478.007 102.72C468.408 90.791 456.164 81.0608 442.396 74.3315C428.639 67.5564 413.32 64.0457 397.897 63.662ZM403.589 385.762C387.124 395.818 368.626 402.863 349.325 405.325C330.065 407.828 310.026 405.125 292.25 397.067C274.473 389.009 259.227 375.711 248.466 359.543C243.066 351.468 238.673 342.746 235.248 333.692C231.883 324.617 229.395 315.241 227.82 305.692C231.795 324.551 238.765 342.901 249.738 358.673C255.236 366.519 261.604 373.769 268.906 379.96C276.174 386.191 284.369 391.294 293.074 395.246C301.782 399.237 311.013 401.967 320.49 403.355C329.957 404.793 339.607 404.781 349.142 403.802C358.678 402.771 368.093 400.578 377.199 397.479C381.752 395.939 386.248 394.192 390.646 392.228C395.039 390.24 399.351 388.081 403.589 385.762ZM559.926 408.149C554.291 405.972 548.959 402.989 544.017 399.455C539.16 395.887 534.269 392.468 529.149 389.364C524.064 386.22 518.772 383.431 513.343 380.911C507.902 378.414 502.272 376.341 496.499 374.577C499.483 375.046 502.421 375.762 505.348 376.547C508.245 377.423 511.12 378.385 513.944 379.502C519.591 381.718 525.009 384.513 530.192 387.663C535.346 390.847 540.311 394.387 544.939 398.235C549.606 401.963 554.652 405.228 559.926 408.149Z" fill="white" fill-opacity="0.16"/>
<path d="M672.38 166.84C647.061 155.043 617.068 160.352 590.557 178.243C573.903 189.485 553.377 193.397 533.734 189.176L532.926 189.004C508.311 183.712 488.559 165.998 479.321 142.575C470.215 119.495 454.752 101.283 433.562 91.4096C377.133 65.1168 301.536 107.875 264.705 186.908C227.875 265.947 243.761 351.331 300.19 377.624C328.883 390.996 362.535 386.506 393.524 368.478C422.858 351.411 457.197 345.197 490.305 352.66C493.862 353.461 497.424 354.269 500.981 355.088C521.163 359.721 539.501 369.652 555.846 382.354C559.694 385.344 563.875 387.921 568.388 390.023C613.351 410.972 673.084 377.996 701.8 316.367C730.515 254.739 717.343 187.79 672.38 166.84Z" fill="white" fill-opacity="0.15"/>
<path d="M597.888 360.517C593.375 358.415 589.194 355.838 585.346 352.848C569.001 340.14 550.663 330.209 530.481 325.582C526.924 324.763 523.362 323.956 519.805 323.154C486.703 315.691 452.364 321.905 423.03 338.972C392.041 357.001 358.388 361.491 329.696 348.118C273.267 321.825 257.38 236.435 294.211 157.402C301.537 141.683 310.736 126.906 321.609 113.396C299.079 131.218 278.971 156.297 264.705 186.908C227.875 265.946 243.761 351.331 300.19 377.624C328.883 390.996 362.535 386.506 393.524 368.478C422.858 351.411 457.197 345.197 490.305 352.659C493.862 353.461 497.424 354.269 500.981 355.088C521.163 359.721 539.501 369.652 555.846 382.354C559.694 385.344 563.875 387.921 568.388 390.023C605.471 407.301 652.558 387.835 684.052 345.93C656.504 366.261 624.605 372.968 597.888 360.517Z" fill="#3E30DF" fill-opacity="0.16"/>
<path d="M688.474 222.799C686.04 213.43 681.55 204.181 674.322 196.701C667.192 189.17 656.757 184.285 646.248 183.683C635.75 182.933 625.625 185.442 616.542 189.393C611.96 191.335 607.682 193.803 603.587 196.478C599.91 198.9 596.354 200.985 592.528 202.88C584.952 206.659 576.899 209.395 568.589 211.013C535.43 218.097 498.897 206.689 475.559 181.29C469.637 175.03 464.603 167.928 460.331 160.352C456.207 153.095 452.845 143.657 446.872 136.098C441.094 128.486 433.729 121.883 425.086 117.886C416.502 113.802 406.978 112.359 397.889 113.161C406.989 113.923 415.74 116.746 423.116 121.476C430.516 126.196 436.478 132.73 440.87 140.164C445.624 147.483 447.68 155.724 451.694 164.704C455.612 173.375 460.818 181.49 466.917 188.895C479.047 203.82 495.644 215.136 513.987 221.568C532.285 227.913 552.422 229.288 571.533 225.456C581.08 223.469 590.358 220.188 599.017 215.732C603.324 213.538 607.59 210.95 611.479 208.31C614.973 205.967 618.598 203.854 622.315 202.062C629.731 198.471 637.761 196.277 645.504 196.546C653.189 196.804 660.537 199.65 666.367 204.954C678.045 215.772 683.262 233.715 683.863 251.102C684.253 259.916 683.485 268.822 682.071 277.687C680.473 286.524 678.062 295.263 675.044 303.894C679.471 295.916 683.256 287.486 686.028 278.638C688.697 269.772 690.398 260.563 691.074 251.171C691.686 241.796 690.873 232.203 688.474 222.799Z" fill="#762DEF"/>
<path d="M469.338 57.2708H441.545C437.707 57.2708 434.598 60.3805 434.598 64.2176V92.0109C434.598 95.848 437.707 98.9578 441.545 98.9578H469.338C473.175 98.9578 476.285 95.848 476.285 92.0109V64.2176C476.285 60.3805 473.175 57.2708 469.338 57.2708Z" fill="url(#paint4_linear_281_2212)"/>
<path d="M451.963 87.6299C451.621 87.6304 451.283 87.5634 450.967 87.4327C450.652 87.302 450.365 87.1101 450.124 86.8682L443.092 79.8755C442.849 79.6343 442.656 79.3477 442.524 79.0319C442.393 78.7162 442.325 78.3775 442.324 78.0354C442.324 77.6933 442.391 77.3544 442.521 77.0383C442.652 76.7221 442.844 76.4349 443.086 76.193C443.328 75.9502 443.615 75.7574 443.931 75.6257C444.247 75.494 444.586 75.4259 444.929 75.4254C445.271 75.4248 445.611 75.4918 445.927 75.6226C446.244 75.7533 446.532 75.9452 446.774 76.1872L451.969 81.353L465.748 67.6139C466.237 67.1256 466.9 66.8515 467.591 66.8521C468.282 66.8526 468.945 67.1277 469.433 67.6167C469.921 68.1058 470.196 68.7689 470.195 69.46C470.194 70.1511 469.919 70.8138 469.43 71.3021L453.813 86.8739C453.297 87.3779 452.633 87.6299 451.963 87.6299Z" fill="#762FEF"/>
<path d="M636.563 105.366C655.749 105.366 671.303 89.8127 671.303 70.6262C671.303 51.4398 655.749 35.886 636.563 35.886C617.376 35.886 601.822 51.4398 601.822 70.6262C601.822 89.8127 617.376 105.366 636.563 105.366Z" fill="url(#paint5_linear_281_2212)"/>
<path d="M636.567 98.4194C651.917 98.4194 664.36 85.976 664.36 70.6262C664.36 55.2764 651.917 42.8329 636.567 42.8329C621.217 42.8329 608.773 55.2764 608.773 70.6262C608.773 85.976 621.217 98.4194 636.567 98.4194Z" fill="url(#paint6_linear_281_2212)"/>
<path d="M631.18 74.4507L651.169 55.1397L652.378 56.3919L632.389 75.7029L631.18 74.4507Z" fill="#B2F9F1"/>
<path d="M624.273 59.8589L625.483 58.6066L641.94 74.5009L640.731 75.7532L624.273 59.8589Z" fill="#B2F9F1"/>
<path d="M636.564 74.1024C638.484 74.1024 640.041 72.546 640.041 70.6261C640.041 68.7062 638.484 67.1498 636.564 67.1498C634.644 67.1498 633.088 68.7062 633.088 70.6261C633.088 72.546 634.644 74.1024 636.564 74.1024Z" fill="white"/>
<path d="M310.371 101.237C309.77 93.7119 306.792 86.0434 300.818 81.4216C298.115 79.3313 294.41 77.9282 291.294 79.3313C288.958 80.3793 287.474 82.8305 287.005 85.3447C286.535 87.8646 286.936 90.4589 287.503 92.9559C290.2 104.908 296.643 115.984 305.698 124.237C306.477 124.947 307.96 124.764 308.493 123.859C308.332 123.819 310.972 108.763 310.371 101.237ZM316.155 114.22C317.753 110.515 319.511 106.827 322.077 103.711C324.643 100.596 328.119 98.0759 332.088 97.36C336.057 96.6441 340.518 98.0071 342.872 101.289C345.295 104.662 345.083 109.427 343.204 113.126C341.326 116.832 338.033 119.621 334.556 121.889C331.08 124.157 327.335 126.012 323.961 128.435C321.619 130.122 319.479 132.072 317.581 134.248C316.614 135.355 315.711 136.518 314.878 137.73C314.283 138.595 313.544 140.679 312.53 141.063C308.613 142.541 311.746 126.7 312.272 124.833C313.292 121.207 314.661 117.679 316.155 114.22ZM300.074 129.088C297.497 126.344 294.782 123.664 291.546 121.746C288.31 119.827 284.462 118.716 280.751 119.346C277.04 119.976 273.563 122.588 272.538 126.207C271.484 129.935 273.18 134.047 275.997 136.699C278.821 139.351 282.595 140.759 286.363 141.647C290.132 142.535 294.009 142.97 297.731 144.03C300.32 144.763 302.823 145.805 305.177 147.111C306.374 147.775 307.536 148.508 308.653 149.31C309.449 149.883 310.761 151.475 311.768 151.486C315.674 151.543 307.903 138.635 306.849 137.169C304.799 134.311 302.485 131.648 300.074 129.088ZM314.586 158.834C314.867 155.604 316.075 152.528 317.496 149.619C319.431 145.645 321.814 141.842 324.929 138.698C328.045 135.554 331.933 133.097 336.24 132.094C338.411 131.59 340.902 131.533 342.649 132.919C344.481 134.38 344.928 137.037 344.499 139.339C343.634 143.944 339.928 147.512 335.919 149.934C331.911 152.357 327.438 153.954 323.515 156.509C320.926 158.192 318.956 160.277 317.255 162.826C314.592 166.806 314.38 161.153 314.586 158.834ZM316.562 177.235C316.281 174.005 315.073 170.929 313.653 168.02C311.717 164.046 309.334 160.243 306.219 157.099C303.103 153.954 299.215 151.498 294.908 150.495C292.737 149.991 290.246 149.934 288.499 151.32C286.667 152.78 286.22 155.438 286.65 157.74C287.514 162.345 291.22 165.913 295.229 168.335C299.238 170.758 303.711 172.355 307.634 174.91C310.222 176.593 312.192 178.678 313.893 181.227C316.551 185.207 316.762 179.554 316.562 177.235ZM322.833 168.851C325.96 162.602 330.994 157.007 337.592 154.693C339.751 153.937 342.294 153.594 344.212 154.842C346.068 156.051 346.807 158.439 346.818 160.655C346.841 165.46 344.069 169.916 340.49 173.117C336.91 176.319 332.546 178.483 328.32 180.763C324.231 182.968 320.852 185.545 317.324 188.5C316.218 186.868 318.612 180.763 319.139 178.827C320.078 175.402 321.241 172.029 322.833 168.851Z" fill="url(#paint7_linear_281_2212)"/>
<path d="M340.209 160.558C329.517 164.097 320.416 181.192 317.496 187.206C317.186 179.749 316.528 172.424 315.623 165.357C315.892 164.309 321.55 143.245 336.131 140.061C336.429 139.998 336.624 139.7 336.555 139.402C336.54 139.331 336.511 139.263 336.469 139.204C336.428 139.144 336.375 139.093 336.314 139.053C336.253 139.014 336.184 138.987 336.113 138.974C336.041 138.961 335.968 138.963 335.897 138.978C323.274 141.733 317.226 156.629 315.268 162.648C314.237 155.146 312.948 147.958 311.539 141.24C311.769 140.416 317.776 119.443 333.881 108.648C334.138 108.476 334.201 108.132 334.035 107.875C333.995 107.814 333.943 107.761 333.882 107.72C333.821 107.679 333.753 107.651 333.681 107.637C333.609 107.622 333.535 107.622 333.463 107.637C333.391 107.651 333.323 107.679 333.262 107.72C319.517 116.935 312.983 133.4 311.07 139.041C305.24 112.204 297.674 93.4025 297.554 93.1104C297.439 92.8241 297.113 92.6866 296.832 92.8069C296.546 92.9214 296.409 93.2479 296.529 93.5285C296.661 93.8492 305.933 116.878 311.826 148.353C308.229 143.491 298.339 131.579 284.599 126.837C284.46 126.789 284.308 126.798 284.176 126.863C284.044 126.927 283.943 127.042 283.895 127.181C283.798 127.473 283.946 127.788 284.239 127.885C300.526 133.509 311.345 149.493 312.295 150.936C313.83 159.533 315.09 168.713 315.846 178.208C313.315 173.489 306.86 163.736 294.702 158.593C294.416 158.479 294.089 158.605 293.975 158.891C293.854 159.172 293.986 159.498 294.272 159.618C309.661 166.13 315.657 180.19 316.075 181.209C316.259 183.958 316.407 186.724 316.493 189.508C316.493 189.542 316.528 189.565 316.533 189.599C316.545 189.668 316.574 189.72 316.614 189.777C316.654 189.84 316.694 189.886 316.757 189.926C316.785 189.943 316.791 189.983 316.826 189.995C316.9 190.029 316.974 190.04 317.049 190.04H317.066C317.077 190.04 317.083 190.029 317.1 190.023C317.215 190.012 317.318 189.96 317.404 189.886C317.433 189.857 317.455 189.834 317.478 189.8C317.501 189.766 317.541 189.748 317.559 189.708C317.667 189.468 328.291 165.666 340.576 161.6C340.868 161.503 341.022 161.188 340.931 160.896C340.816 160.621 340.501 160.46 340.209 160.558Z" fill="white"/>
<path d="M331.526 412.026V435.77H284.095C277.537 435.77 272.223 430.455 272.223 423.898C272.223 417.341 277.537 412.026 284.095 412.026H331.526Z" fill="url(#paint8_linear_281_2212)"/>
<path d="M408.217 414.007C408.217 412.914 407.335 412.026 406.235 412.026H329.189C322.127 412.026 316.492 418.211 317.414 425.456C318.176 431.441 323.559 435.77 329.596 435.77H406.229C407.323 435.77 408.211 434.882 408.211 433.789C408.211 432.695 407.323 431.813 406.229 431.813H401.482V415.983H406.235C407.329 415.983 408.211 415.101 408.217 414.007ZM295.187 412.026H287.273C285.147 415.621 284.025 419.721 284.025 423.898C284.025 428.075 285.147 432.175 287.273 435.77H295.187C293.062 432.175 291.94 428.075 291.94 423.898C291.94 419.721 293.062 415.621 295.187 412.026Z" fill="#7597FE"/>
<path d="M329.186 415.983C326.964 415.983 324.828 416.928 323.328 418.578C321.81 420.25 321.094 422.415 321.306 424.683C321.69 428.68 325.338 431.813 329.61 431.813H405.436C403.936 426.643 403.936 421.153 405.436 415.983H329.186Z" fill="#B2F9F1"/>
<path d="M404.383 421.917H327.864C327.347 421.929 326.855 422.143 326.493 422.514C326.132 422.884 325.93 423.381 325.93 423.898C325.93 424.416 326.132 424.913 326.493 425.283C326.855 425.653 327.347 425.867 327.864 425.88H404.383C404.292 424.557 404.292 423.24 404.383 421.917Z" fill="#65F3E3"/>
<path d="M340.734 388.276V412.02H405.49C412.048 412.02 417.362 406.706 417.362 400.148C417.362 393.591 412.048 388.276 405.49 388.276H340.734Z" fill="url(#paint9_linear_281_2212)"/>
<path d="M281.369 390.263C281.369 389.169 282.251 388.282 283.351 388.282H343.072C350.134 388.282 355.769 394.467 354.847 401.712C354.086 407.696 348.702 412.026 342.666 412.026H283.351C282.257 412.026 281.369 411.138 281.369 410.044C281.369 408.951 282.257 408.069 283.351 408.069H288.098V392.239H283.345C282.257 392.239 281.369 391.351 281.369 390.263Z" fill="#FF859B"/>
<path d="M394.396 388.276H402.311C404.437 391.871 405.559 395.971 405.559 400.148C405.559 404.325 404.437 408.425 402.311 412.02H394.396C396.522 408.425 397.644 404.325 397.644 400.148C397.644 395.971 396.522 391.871 394.396 388.276Z" fill="#FCD652"/>
<path d="M343.072 392.239C345.294 392.239 347.43 393.184 348.931 394.833C350.449 396.506 351.164 398.671 350.953 400.938C350.569 404.936 346.921 408.069 342.648 408.069H284.146C285.647 402.899 285.647 397.409 284.146 392.239H343.072Z" fill="white"/>
<path d="M285.199 398.172H344.394C344.911 398.185 345.403 398.399 345.765 398.769C346.126 399.139 346.329 399.636 346.329 400.154C346.329 400.671 346.126 401.168 345.765 401.538C345.403 401.909 344.911 402.123 344.394 402.135H285.199C285.291 400.812 285.291 399.489 285.199 398.172Z" fill="#B2F9F1"/>
<path d="M512.369 148.903H317.81C310.135 148.903 303.91 155.123 303.91 162.803V308.722C303.91 316.396 310.13 322.621 317.81 322.621H370.894C374.278 323.142 376.867 326.046 376.867 329.568C376.867 332.993 374.399 335.805 371.169 336.429H344.034C339.189 336.429 335.26 340.358 335.26 345.203C335.26 350.048 339.189 353.977 344.034 353.977H486.111C490.956 353.977 494.884 350.048 494.884 345.203C494.884 340.358 490.956 336.429 486.111 336.429H458.976C455.746 335.805 453.295 332.987 453.295 329.568C453.295 326.04 455.883 323.125 459.268 322.621H512.352C520.026 322.621 526.252 316.402 526.252 308.722V162.803C526.269 155.123 520.032 148.903 512.369 148.903Z" fill="url(#paint10_linear_281_2212)"/>
<path d="M512.361 162.801V305.244H317.802V162.801H512.361Z" fill="#7597FE"/>
<path d="M647.433 122.439C647.433 117.525 643.453 113.544 638.539 113.544H500.677C495.763 113.544 491.783 117.525 491.783 122.439V131.344H647.427V122.439H647.433Z" fill="url(#paint11_linear_281_2212)"/>
<path d="M491.783 131.35V242.517C491.783 247.431 495.763 251.411 500.677 251.411H638.533C643.447 251.411 647.427 247.431 647.427 242.517V131.35H491.783Z" fill="url(#paint12_linear_281_2212)"/>
<path d="M423.3 202.205C423.993 201.22 424.778 200.355 425.626 199.605C430.843 195.011 435.276 189.445 437.91 183.013C439.078 180.15 441.106 177.555 443.981 175.614C449.444 171.926 456.832 172.017 462.221 175.814C466.683 178.959 469.002 183.701 469.197 188.511C469.409 193.769 470.205 199.043 472.668 203.694C474.053 206.311 474.661 209.403 474.174 212.662C473.269 218.744 468.361 223.71 462.29 224.683C456.053 225.68 450.435 222.679 447.537 217.845C446.934 218.864 446.207 219.805 445.372 220.646C439.067 226.951 428.375 226.201 423.111 218.395C419.83 213.55 419.921 206.987 423.3 202.205Z" fill="#1D2D58"/>
<path d="M483.621 305.245C483.65 304.507 483.69 303.774 483.701 303.035L483.713 302.078C483.759 299.049 483.089 296.185 481.903 293.602H446.315C445.169 296.082 444.556 298.774 444.517 301.506C444.5 302.76 444.649 304.02 444.866 305.24H483.621V305.245Z" fill="#F98D62"/>
<path d="M496.257 305.245L496.154 304.907C495.181 301.849 494.052 298.843 492.987 295.784C492.724 295.028 492.409 294.312 492.071 293.608H455.618C453.859 297.217 453.213 301.268 453.763 305.245H496.257Z" fill="#FF9B6D"/>
<path d="M443.088 217.238H465.475C479.392 225.227 485.577 247.58 482.267 257.173C477.559 270.832 492.066 293.602 492.066 293.602H446.312C446.312 293.602 415.547 230.897 443.088 217.238Z" fill="white"/>
<path d="M457.186 207.187C457.186 207.187 473.777 205.99 465.485 186.037C465.485 186.037 460.382 181.782 459.053 178.586C459.053 178.586 455.726 185.373 451.734 185.768C448.899 186.054 448.681 190.086 448.796 192.406C446.895 191.157 444.902 190.882 443.876 191.907C442.576 193.207 443.344 196.082 445.589 198.327C446.391 199.129 447.273 199.731 448.132 200.131C449.082 202.153 453.108 212.072 443.092 217.244L451.029 221.551C456.207 224.363 462.69 222.433 465.485 217.244C465.479 217.238 456.785 212.238 457.186 207.187Z" fill="url(#paint13_linear_281_2212)"/>
<path d="M482.279 257.15L447.504 241.727C447.504 241.727 453.099 264.268 469.645 272.252C486.19 280.235 481.838 281.833 479.369 284.445C476.901 287.056 477.582 292.697 480.847 293.608H492.06C492.06 293.608 477.554 270.837 482.261 257.178C482.273 257.167 482.273 257.155 482.279 257.15Z" fill="#B2F9F1"/>
<path d="M481.384 246.372C481.349 246.332 481.315 246.297 481.281 246.257L479.763 244.51C479.253 243.943 478.847 243.205 478.383 242.569C477.489 241.24 476.527 240.02 475.783 238.514C475.009 237.048 474.082 235.765 473.423 234.202L472.381 231.917L471.842 230.788L471.573 230.227L471.436 229.947L471.367 229.803L471.333 229.735L471.316 229.7L471.31 229.683C465.972 232.329 483.239 223.744 459.346 235.605C435.458 247.483 452.731 238.909 447.405 241.567L447.417 241.59L447.445 241.635L447.502 241.727L447.617 241.91L447.84 242.283L448.293 243.027L449.198 244.51L451.036 247.443C452.216 249.407 453.802 251.24 455.177 253.112C456.528 255.002 458.269 256.715 459.896 258.45C460.743 259.303 461.488 260.202 462.427 260.998L464.042 262.379C467.083 257.408 473.171 249.172 481.384 246.372Z" fill="white"/>
<path d="M394.322 114.713C413.507 116.202 428.793 132.249 429.434 151.48C429.703 159.601 427.43 167.173 423.358 173.472C421.794 175.889 422.207 179.073 424.394 180.94C428.415 184.382 425.981 190.963 420.689 190.963H392.151C371.35 190.963 353.705 174.704 353.098 153.914C352.445 131.293 371.476 112.938 394.322 114.713Z" fill="url(#paint14_linear_281_2212)"/>
<path opacity="0.07" d="M400.46 182.664C379.659 182.664 362.014 166.405 361.407 145.616C361.149 136.756 363.921 128.555 368.755 121.958C358.979 129.111 352.725 140.788 353.109 153.915C353.71 174.704 371.361 190.963 392.161 190.963H420.699C425.201 190.963 427.617 186.204 425.768 182.664H400.46Z" fill="black"/>
<path d="M410.818 159.292C414.415 159.292 417.33 156.377 417.33 152.78C417.33 149.184 414.415 146.269 410.818 146.269C407.222 146.269 404.307 149.184 404.307 152.78C404.307 156.377 407.222 159.292 410.818 159.292Z" fill="url(#paint15_linear_281_2212)"/>
<path d="M391.273 159.292C394.87 159.292 397.785 156.377 397.785 152.78C397.785 149.184 394.87 146.269 391.273 146.269C387.677 146.269 384.762 149.184 384.762 152.78C384.762 156.377 387.677 159.292 391.273 159.292Z" fill="url(#paint16_linear_281_2212)"/>
<path d="M371.73 159.292C375.327 159.292 378.242 156.377 378.242 152.78C378.242 149.184 375.327 146.269 371.73 146.269C368.134 146.269 365.219 149.184 365.219 152.78C365.219 156.377 368.134 159.292 371.73 159.292Z" fill="url(#paint17_linear_281_2212)"/>
<path d="M541.509 231.143C542.764 229.574 544.064 227.535 542.706 227.106C540.937 226.55 538.096 230.502 536.939 232.254C536.658 232.678 536.218 232.987 535.714 233.056C532.409 233.503 530.416 242.03 530.416 242.03L536.767 246.772C536.767 246.772 541.836 243.307 544.264 239.774C545.753 237.609 543.76 235.565 541.996 234.305C540.96 233.572 540.719 232.134 541.509 231.143Z" fill="url(#paint18_linear_281_2212)"/>
<path d="M530.152 241.492C528.749 242.924 527.34 244.419 526 245.593C524.609 246.795 523.4 248.187 521.888 249.155C519.093 251.371 516.138 253.227 513.109 254.515C507.055 257.173 500.927 257.648 495.544 256.09C490.16 254.527 485.424 250.959 481.398 246.372C473.185 249.178 467.098 257.408 464.051 262.379L465.225 263.381C472.67 269.6 482.234 274.331 492.583 275.282C502.983 276.066 513.183 272.641 520.663 267.023C524.443 264.234 527.65 260.964 530.41 257.511C531.905 255.856 532.93 253.914 534.156 252.127C535.41 250.289 536.338 248.565 537.3 246.807L530.152 241.492Z" fill="url(#paint19_linear_281_2212)"/>
<path d="M419.138 234.574H328.777C326.715 234.574 325.043 236.246 325.043 238.308V292.251C325.043 294.313 326.715 295.985 328.777 295.985H366.472C367.795 295.985 369.027 296.62 369.846 297.657C370.808 298.871 372.285 299.656 373.958 299.656C375.63 299.656 377.108 298.871 378.07 297.657C378.894 296.62 380.12 295.985 381.443 295.985H419.138C421.2 295.985 422.872 294.313 422.872 292.251V238.308C422.872 236.246 421.2 234.574 419.138 234.574Z" fill="#1D2D58"/>
<path d="M415.289 234.11C408.822 231.018 401.73 229.457 394.562 229.547C387.395 229.638 380.344 231.377 373.957 234.631V292.056C380.093 288.93 386.845 287.199 393.728 286.989C400.612 286.78 407.456 288.095 413.771 290.842C414.991 291.375 416.349 290.453 416.349 289.124V235.811C416.349 235.089 415.936 234.419 415.289 234.11Z" fill="#F2F3F4"/>
<path d="M409.627 262.024C409.489 262.024 409.346 262.001 409.203 261.955C400.011 258.96 390.298 258.96 381.106 261.955C380.39 262.195 379.617 261.794 379.382 261.079C379.147 260.363 379.543 259.59 380.258 259.355C390.006 256.176 400.309 256.176 410.051 259.355C410.766 259.59 411.162 260.363 410.927 261.079C410.837 261.353 410.663 261.592 410.43 261.761C410.196 261.931 409.915 262.023 409.627 262.024ZM409.627 269.801C409.489 269.801 409.346 269.778 409.203 269.732C400.011 266.737 390.298 266.737 381.106 269.732C380.39 269.967 379.617 269.572 379.382 268.856C379.147 268.14 379.543 267.367 380.258 267.132C390.006 263.954 400.309 263.954 410.051 267.132C410.766 267.367 411.162 268.14 410.927 268.856C410.837 269.13 410.663 269.369 410.43 269.539C410.196 269.708 409.915 269.8 409.627 269.801ZM409.627 277.584C409.489 277.584 409.346 277.561 409.203 277.515C400.011 274.52 390.298 274.52 381.106 277.515C380.39 277.75 379.617 277.355 379.382 276.639C379.147 275.923 379.543 275.15 380.258 274.915C390.006 271.737 400.309 271.737 410.051 274.915C410.766 275.15 411.162 275.923 410.927 276.639C410.837 276.913 410.663 277.152 410.43 277.322C410.196 277.491 409.915 277.583 409.627 277.584Z" fill="url(#paint20_linear_281_2212)"/>
<path d="M332.622 234.11C331.975 234.419 331.562 235.089 331.562 235.811V289.124C331.562 290.453 332.92 291.375 334.14 290.842C340.455 288.097 347.3 286.782 354.183 286.992C361.066 287.202 367.818 288.931 373.954 292.056V234.631C367.567 231.377 360.517 229.638 353.349 229.547C346.181 229.457 339.089 231.018 332.622 234.11Z" fill="white"/>
<path d="M367.232 254.24C367.095 254.24 366.952 254.218 366.808 254.172C357.617 251.177 347.903 251.177 338.712 254.172C337.996 254.412 337.223 254.011 336.988 253.296C336.753 252.58 337.148 251.807 337.864 251.572C347.611 248.393 357.914 248.393 367.656 251.572C368.372 251.807 368.767 252.58 368.532 253.296C368.443 253.57 368.269 253.809 368.035 253.978C367.802 254.148 367.521 254.24 367.232 254.24ZM367.232 262.024C367.095 262.024 366.952 262.001 366.808 261.955C357.617 258.96 347.903 258.96 338.712 261.955C337.996 262.195 337.223 261.794 336.988 261.079C336.753 260.363 337.148 259.59 337.864 259.355C347.611 256.176 357.914 256.176 367.656 259.355C368.372 259.59 368.767 260.363 368.532 261.079C368.443 261.353 368.269 261.592 368.035 261.761C367.802 261.931 367.521 262.023 367.232 262.024ZM367.232 246.457C367.095 246.457 366.952 246.435 366.808 246.389C357.617 243.394 347.903 243.394 338.712 246.389C337.996 246.629 337.223 246.228 336.988 245.513C336.753 244.797 337.148 244.023 337.864 243.789C347.611 240.61 357.914 240.61 367.656 243.789C368.372 244.023 368.767 244.797 368.532 245.513C368.443 245.787 368.269 246.026 368.035 246.195C367.802 246.365 367.521 246.457 367.232 246.457Z" fill="url(#paint21_linear_281_2212)"/>
<path d="M367.232 246.263C367.095 246.263 366.952 246.24 366.808 246.194C357.617 243.199 347.903 243.199 338.712 246.194C337.996 246.434 337.223 246.034 336.988 245.318C336.753 244.602 337.148 243.829 337.864 243.594C347.611 240.415 357.914 240.415 367.656 243.594C368.372 243.829 368.767 244.602 368.532 245.318C368.443 245.592 368.269 245.831 368.035 246C367.802 246.17 367.521 246.262 367.232 246.263ZM367.232 269.801C367.095 269.801 366.952 269.778 366.808 269.732C357.617 266.737 347.903 266.737 338.712 269.732C337.996 269.967 337.223 269.572 336.988 268.856C336.753 268.14 337.148 267.367 337.864 267.132C347.611 263.953 357.914 263.953 367.656 267.132C368.372 267.367 368.767 268.14 368.532 268.856C368.443 269.13 368.269 269.369 368.035 269.539C367.802 269.708 367.521 269.8 367.232 269.801ZM367.232 277.584C367.095 277.584 366.952 277.561 366.808 277.515C357.617 274.52 347.903 274.52 338.712 277.515C337.996 277.75 337.223 277.355 336.988 276.639C336.753 275.923 337.148 275.15 337.864 274.915C347.611 271.736 357.914 271.736 367.656 274.915C368.372 275.15 368.767 275.923 368.532 276.639C368.443 276.913 368.269 277.152 368.035 277.322C367.802 277.491 367.521 277.583 367.232 277.584Z" fill="url(#paint22_linear_281_2212)"/>
<path d="M385.214 243.88C386.852 245.266 388.49 247.036 389.985 249.189V229.843C386.738 230.206 383.538 230.909 380.438 231.939V249.189C381.944 247.036 383.576 245.266 385.214 243.88Z" fill="#FCD652"/>
<path d="M626.938 139.528H512.283C508.446 139.528 505.336 142.638 505.336 146.475V174.268C505.336 178.105 508.446 181.215 512.283 181.215H626.933C630.77 181.215 633.88 178.105 633.88 174.268V146.475C633.885 142.638 630.776 139.528 626.938 139.528Z" fill="url(#paint23_linear_281_2212)"/>
<path d="M527.918 176.009C519.299 176.009 512.283 168.994 512.283 160.374C512.283 151.755 519.299 144.74 527.918 144.74C536.537 144.74 543.553 151.755 543.553 160.374C543.553 168.994 536.543 176.009 527.918 176.009ZM527.918 151.687C523.13 151.687 519.23 155.581 519.23 160.374C519.23 165.162 523.125 169.062 527.918 169.062C532.706 169.062 536.606 165.168 536.606 160.374C536.606 155.581 532.712 151.687 527.918 151.687Z" fill="#A4D2FC"/>
<path d="M540.082 163.845C538.163 163.845 536.606 162.287 536.606 160.369C536.606 155.581 532.711 151.681 527.918 151.681C525.999 151.681 524.441 150.123 524.441 148.205C524.441 146.286 525.999 144.728 527.918 144.728C536.537 144.728 543.553 151.744 543.553 160.363C543.554 160.82 543.465 161.272 543.292 161.695C543.118 162.117 542.863 162.501 542.54 162.824C542.218 163.148 541.835 163.405 541.413 163.58C540.991 163.755 540.539 163.845 540.082 163.845ZM623.462 156.898H552.241C550.803 156.898 549.635 155.73 549.635 154.292C549.635 152.855 550.803 151.687 552.241 151.687H623.462C624.9 151.687 626.068 152.855 626.068 154.292C626.068 155.73 624.9 156.898 623.462 156.898ZM623.462 169.057H552.241C550.803 169.057 549.635 167.888 549.635 166.451C549.635 165.013 550.803 163.845 552.241 163.845H623.462C624.9 163.845 626.068 165.013 626.068 166.451C626.068 167.888 624.9 169.057 623.462 169.057Z" fill="white"/>
<path d="M626.932 189.399H579.043C575.205 189.399 572.096 192.509 572.096 196.346V237.489C572.096 241.326 575.205 244.436 579.043 244.436H626.932C630.769 244.436 633.879 241.326 633.879 237.489V196.346C633.879 192.509 630.769 189.399 626.932 189.399Z" fill="url(#paint24_linear_281_2212)"/>
<path d="M506.648 125.783C508.488 125.783 509.981 124.291 509.981 122.45C509.981 120.609 508.488 119.117 506.648 119.117C504.807 119.117 503.314 120.609 503.314 122.45C503.314 124.291 504.807 125.783 506.648 125.783Z" fill="url(#paint25_linear_281_2212)"/>
<path d="M518.655 125.783C520.496 125.783 521.989 124.291 521.989 122.45C521.989 120.609 520.496 119.117 518.655 119.117C516.815 119.117 515.322 120.609 515.322 122.45C515.322 124.291 516.815 125.783 518.655 125.783Z" fill="url(#paint26_linear_281_2212)"/>
<path d="M530.673 125.783C532.514 125.783 534.006 124.291 534.006 122.45C534.006 120.609 532.514 119.117 530.673 119.117C528.832 119.117 527.34 120.609 527.34 122.45C527.34 124.291 528.832 125.783 530.673 125.783Z" fill="url(#paint27_linear_281_2212)"/>
<path d="M602.988 234.751C612.838 234.751 620.822 226.767 620.822 216.917C620.822 207.068 612.838 199.083 602.988 199.083C593.139 199.083 585.154 207.068 585.154 216.917C585.154 226.767 593.139 234.751 602.988 234.751Z" fill="white"/>
<path d="M611.659 214.638L600.354 207.262C598.544 206.082 596.145 207.376 596.145 209.541V224.299C596.145 226.459 598.544 227.759 600.354 226.579L611.659 219.202C613.303 218.12 613.303 215.715 611.659 214.638Z" fill="url(#paint28_linear_281_2212)"/>
<path d="M479.986 401.683H643.992V411.917H479.986V401.683Z" fill="url(#paint29_linear_281_2212)"/>
<path d="M479.986 391.443H643.992V401.677H479.986V391.443Z" fill="#EC8353"/>
<path d="M479.986 381.192H643.992V391.443H479.986V381.192Z" fill="url(#paint30_linear_281_2212)"/>
<path d="M652.881 411.917H643.992V381.192H652.881V411.917Z" fill="url(#paint31_linear_281_2212)"/>
<path d="M657.239 381.192C665.727 381.192 672.605 388.07 672.605 396.557C672.605 405.045 665.727 411.923 657.239 411.923H652.881V381.197H657.239V381.192Z" fill="url(#paint32_linear_281_2212)"/>
<path d="M453.077 394.616L479.261 381.203C482.09 381.203 484.381 383.494 484.381 386.323C484.381 389.152 482.09 391.443 479.261 391.443C482.09 391.443 484.381 393.734 484.381 396.563C484.381 399.392 482.09 401.683 479.261 401.683C482.09 401.683 484.381 403.974 484.381 406.803C484.381 409.632 482.09 411.923 479.261 411.923L453.077 398.533C451.485 397.714 451.485 395.435 453.077 394.616Z" fill="url(#paint33_linear_281_2212)"/>
<path d="M453.077 394.616L456.925 392.646C457.767 393.728 458.289 395.074 458.289 396.552C458.289 398.041 457.762 399.392 456.908 400.48L453.077 398.522C451.485 397.714 451.485 395.435 453.077 394.616Z" fill="#3F2855"/>
<path d="M570.6 404.237L576.877 401.127L583.079 409.981C583.079 409.981 579.666 410.377 577.57 413.595C575.474 416.814 572.41 415.582 572.41 415.582L569.002 409.432L570.6 404.237Z" fill="url(#paint34_linear_281_2212)"/>
<path d="M582.346 431.544L577.569 413.595C577.569 413.595 571.012 408.326 570.605 404.237L568.921 404.26C568.194 404.271 567.49 404.506 566.905 404.941L561.528 408.945C559.999 410.084 559.678 412.249 560.818 413.778L576.235 434.493C577.375 436.022 579.539 436.343 581.068 435.203C581.623 434.791 582.041 434.222 582.269 433.569C582.496 432.917 582.523 432.211 582.346 431.544Z" fill="#1D2D58"/>
<path d="M636.899 395.062L630.204 392.995L625.502 402.731C625.502 402.731 628.938 402.576 631.521 405.417C634.104 408.258 636.933 406.551 636.933 406.551L639.31 399.93L636.899 395.062Z" fill="url(#paint35_linear_281_2212)"/>
<path d="M629.676 423.898L631.515 405.417C631.515 405.417 637.144 399.163 636.892 395.063L638.559 394.816C639.28 394.708 640.014 394.833 640.661 395.166L646.611 398.258C648.306 399.14 648.965 401.225 648.083 402.914L636.176 425.834C635.294 427.529 633.21 428.188 631.52 427.306C630.909 426.986 630.407 426.49 630.078 425.883C629.75 425.276 629.61 424.585 629.676 423.898Z" fill="#1D2D58"/>
<path d="M530.841 299.759L523.264 303.63C522.388 301.878 521.34 300.217 520.2 299.261C519.215 298.436 518.219 297.617 517.348 296.661L516.335 295.572C513.225 292.222 513.477 292.234 512.469 287.767C511.776 284.703 511.427 282.211 512.085 281.032C512.91 279.543 514.37 279.164 516.008 280.006C516.787 280.407 517.428 281.032 517.91 281.77C519.187 283.689 521.661 287.171 522.268 288.717C523.087 290.808 524.708 290.069 524.776 289.204C524.994 286.426 525.698 283.145 527.863 284.422C529.198 285.212 529.553 288.316 529.444 290.727C529.358 292.543 529.564 294.364 529.982 296.139L530.841 299.759Z" fill="url(#paint36_linear_281_2212)"/>
<path d="M551.203 357.871H639.285V380.751H551.203V357.871Z" fill="url(#paint37_linear_281_2212)"/>
<path d="M537.387 366.153C540.589 359.04 548.944 355.872 556.057 359.074L631.729 393.138L628.23 403.676L547.203 385.733C546.304 385.527 545.336 385.218 544.46 384.823C537.353 381.621 534.186 373.26 537.387 366.153Z" fill="url(#paint38_linear_281_2212)"/>
<path d="M631.956 360.242C632.574 359.795 633.302 359.36 634.018 359.022C640.209 356.13 647.579 358.799 650.471 364.996C653.364 371.187 650.695 378.557 644.498 381.449L581.094 411.087L575.441 401.528L631.956 360.242Z" fill="url(#paint39_linear_281_2212)"/>
<path d="M522.135 303.997L526.373 313.046L527.432 315.302L528.807 317.822L530.216 320.342L531.917 322.741C536.487 329.013 543.296 334.814 552.139 336.813C556.463 338.01 561.153 337.872 565.637 337.076C567.459 336.607 569.337 336.171 571.09 335.444C571.227 350.122 572.166 365.757 575.293 370.516L593.03 368.208C592.807 368.678 592.612 369.199 592.509 369.737H609.707C611.792 368.294 613.79 366.731 615.646 365.013C620.233 360.74 623.967 355.529 626.453 349.607C627.701 346.669 628.675 343.599 629.213 340.364C629.889 337.185 630.118 333.852 630.032 330.513C629.843 323.807 628.171 316.963 625.222 310.4L624.615 309.042C624.334 308.401 623.99 307.828 623.572 307.256C622.736 306.127 621.728 305.154 620.531 304.426C613.458 300.291 595.481 296.678 579.239 302.548C575.797 303.779 573.157 306.494 572.012 309.827L571.176 311.511C570.483 312.45 569.875 313.527 569.16 314.449L568.014 315.732L567.459 316.39L566.834 316.911L565.586 318.022C565.151 318.355 564.681 318.578 564.229 318.876C563.358 319.569 562.35 319.815 561.399 320.302C559.435 320.874 557.333 321.396 555.146 321.046C550.753 320.783 546.183 318.108 542.449 314.168L541.04 312.673L539.791 310.955L538.543 309.237L537.203 307.135L531.871 298.676L522.135 303.997Z" fill="url(#paint40_linear_281_2212)"/>
<path d="M581.688 360.66C581.981 360.369 582.377 360.205 582.79 360.205C583.203 360.205 583.6 360.369 583.893 360.66C584.184 360.953 584.348 361.349 584.348 361.763C584.348 362.176 584.184 362.572 583.893 362.865C583.6 363.157 583.203 363.32 582.79 363.32C582.377 363.32 581.981 363.157 581.688 362.865C581.396 362.572 581.232 362.176 581.232 361.763C581.232 361.349 581.396 360.953 581.688 360.66ZM581.825 360.798C581.293 361.33 581.293 362.189 581.825 362.722C582.358 363.254 583.217 363.254 583.749 362.722C584.282 362.189 584.282 361.33 583.749 360.798C583.493 360.544 583.148 360.402 582.787 360.402C582.427 360.402 582.081 360.544 581.825 360.798ZM585.187 304.255C585.561 303.883 586.066 303.675 586.593 303.675C587.12 303.675 587.625 303.883 587.999 304.255C588.772 305.028 588.772 306.288 587.999 307.067C587.226 307.845 585.966 307.84 585.187 307.067C584.408 306.293 584.414 305.028 585.187 304.255ZM585.365 304.432C584.689 305.108 584.689 306.213 585.365 306.889C586.04 307.565 587.146 307.565 587.821 306.889C588.497 306.213 588.497 305.108 587.821 304.432C587.146 303.756 586.04 303.756 585.365 304.432ZM605.501 354.189C605.891 353.801 606.419 353.583 606.97 353.583C607.52 353.583 608.048 353.801 608.439 354.189C608.827 354.579 609.044 355.107 609.044 355.658C609.044 356.208 608.827 356.736 608.439 357.127C608.049 357.516 607.521 357.734 606.97 357.734C606.419 357.734 605.891 357.516 605.501 357.127C605.113 356.736 604.895 356.208 604.895 355.658C604.895 355.107 605.113 354.579 605.501 354.189ZM605.793 354.475C605.14 355.128 605.14 356.187 605.793 356.834C606.446 357.482 607.5 357.482 608.152 356.834C608.805 356.182 608.805 355.128 608.152 354.475C607.5 353.822 606.44 353.828 605.793 354.475ZM594.493 304.232C595.352 303.373 596.744 303.373 597.603 304.232C598.462 305.091 598.462 306.482 597.603 307.341C596.744 308.201 595.352 308.201 594.493 307.341C593.634 306.482 593.634 305.085 594.493 304.232ZM594.688 304.426C594.51 304.605 594.368 304.816 594.272 305.049C594.175 305.282 594.126 305.532 594.126 305.784C594.126 306.036 594.175 306.285 594.272 306.518C594.368 306.751 594.51 306.963 594.688 307.141C594.866 307.319 595.078 307.461 595.311 307.557C595.544 307.654 595.793 307.704 596.045 307.704C596.298 307.704 596.547 307.654 596.78 307.557C597.013 307.461 597.225 307.319 597.403 307.141C597.581 306.963 597.723 306.751 597.819 306.518C597.916 306.285 597.965 306.036 597.965 305.784C597.965 305.532 597.916 305.282 597.819 305.049C597.723 304.816 597.581 304.605 597.403 304.426C597.225 304.248 597.013 304.107 596.78 304.01C596.547 303.913 596.298 303.864 596.045 303.864C595.793 303.864 595.544 303.913 595.311 304.01C595.078 304.107 594.866 304.248 594.688 304.426ZM609.149 310.085C609.876 309.357 611.062 309.357 611.789 310.085C612.131 310.436 612.32 310.907 612.317 311.397C612.313 311.886 612.117 312.355 611.771 312.701C611.425 313.047 610.956 313.243 610.467 313.247C609.977 313.25 609.506 313.061 609.155 312.719C608.981 312.547 608.843 312.342 608.748 312.116C608.654 311.89 608.605 311.648 608.604 311.403C608.604 311.158 608.651 310.916 608.745 310.69C608.838 310.463 608.976 310.258 609.149 310.085ZM609.407 310.342C609.126 310.624 608.969 311.005 608.969 311.402C608.969 311.799 609.126 312.18 609.407 312.461C609.688 312.742 610.069 312.899 610.466 312.899C610.863 312.899 611.244 312.742 611.526 312.461C612.11 311.877 612.11 310.927 611.526 310.342C610.942 309.758 609.991 309.758 609.407 310.342ZM582.507 344.029C583.205 343.33 584.334 343.33 585.032 344.029C585.731 344.728 585.725 345.856 585.032 346.554C584.339 347.253 583.205 347.253 582.507 346.554C581.808 345.856 581.808 344.728 582.507 344.029ZM582.753 344.281C582.192 344.842 582.192 345.753 582.753 346.308C583.314 346.864 584.225 346.864 584.78 346.308C585.336 345.753 585.342 344.836 584.78 344.281C584.219 343.725 583.314 343.72 582.753 344.281Z" fill="#FFEB7D"/>
<path d="M571.949 327.89C572.879 327.89 573.633 327.136 573.633 326.206C573.633 325.276 572.879 324.523 571.949 324.523C571.019 324.523 570.266 325.276 570.266 326.206C570.266 327.136 571.019 327.89 571.949 327.89Z" fill="#FFEB7D"/>
<path d="M592.393 334.173C593.497 334.173 594.392 333.278 594.392 332.174C594.392 331.07 593.497 330.175 592.393 330.175C591.289 330.175 590.395 331.07 590.395 332.174C590.395 333.278 591.289 334.173 592.393 334.173Z" fill="#FFEB7D"/>
<path d="M609.803 335.226C610.015 335.008 610.267 334.835 610.546 334.715C610.825 334.596 611.125 334.533 611.429 334.531C611.733 334.528 612.034 334.586 612.314 334.701C612.595 334.817 612.85 334.986 613.065 335.201C613.28 335.416 613.45 335.671 613.565 335.952C613.68 336.233 613.738 336.534 613.735 336.837C613.733 337.141 613.67 337.441 613.551 337.72C613.431 337.999 613.257 338.252 613.039 338.463C612.608 338.881 612.029 339.112 611.429 339.108C610.828 339.103 610.253 338.862 609.828 338.437C609.404 338.012 609.163 337.438 609.158 336.837C609.154 336.236 609.385 335.658 609.803 335.226ZM610.118 335.541C609.403 336.257 609.403 337.426 610.118 338.141C610.834 338.857 612.003 338.857 612.718 338.141C613.062 337.796 613.255 337.329 613.255 336.841C613.255 336.354 613.062 335.887 612.718 335.541C612.373 335.198 611.906 335.004 611.418 335.004C610.931 335.004 610.464 335.198 610.118 335.541Z" fill="#FFEB7D"/>
<path d="M585.242 354.927C586.093 354.927 586.782 354.238 586.782 353.387C586.782 352.536 586.093 351.846 585.242 351.846C584.391 351.846 583.701 352.536 583.701 353.387C583.701 354.238 584.391 354.927 585.242 354.927Z" fill="#FFEB7D"/>
<path d="M578.082 307.124C578.932 307.124 579.622 306.434 579.622 305.583C579.622 304.733 578.932 304.043 578.082 304.043C577.231 304.043 576.541 304.733 576.541 305.583C576.541 306.434 577.231 307.124 578.082 307.124Z" fill="#FFEB7D"/>
<path d="M576.637 337.099C577.267 336.469 578.292 336.469 578.928 337.099C579.558 337.729 579.558 338.754 578.928 339.39C578.298 340.02 577.273 340.02 576.637 339.39C576.001 338.76 576.001 337.729 576.637 337.099ZM576.78 337.242C576.23 337.792 576.23 338.691 576.78 339.241C577.33 339.791 578.229 339.791 578.779 339.241C579.329 338.691 579.329 337.792 578.779 337.242C578.229 336.693 577.33 336.693 576.78 337.242ZM622.133 312.759C622.486 312.407 622.965 312.209 623.464 312.209C623.963 312.209 624.442 312.407 624.796 312.759C625.148 313.113 625.346 313.592 625.346 314.091C625.346 314.59 625.148 315.069 624.796 315.422C624.442 315.775 623.963 315.972 623.464 315.972C622.965 315.972 622.486 315.775 622.133 315.422C621.78 315.069 621.583 314.59 621.583 314.091C621.583 313.592 621.78 313.113 622.133 312.759ZM622.304 312.931C621.663 313.573 621.663 314.615 622.304 315.256C622.946 315.898 623.988 315.898 624.63 315.256C625.271 314.615 625.271 313.573 624.63 312.931C623.988 312.29 622.946 312.29 622.304 312.931ZM595.719 363.701C596.02 363.401 596.426 363.233 596.851 363.233C597.275 363.233 597.682 363.401 597.982 363.701C598.606 364.325 598.606 365.339 597.982 365.963C597.357 366.588 596.344 366.588 595.719 365.963C595.095 365.339 595.095 364.325 595.719 363.701ZM595.937 363.925C595.439 364.423 595.439 365.242 595.937 365.746C596.435 366.244 597.254 366.244 597.753 365.746C598.251 365.248 598.257 364.429 597.753 363.93C597.254 363.421 596.441 363.421 595.937 363.925Z" fill="#FFEB7D"/>
<path d="M535.301 322.301C536.601 322.301 537.655 321.247 537.655 319.947C537.655 318.647 536.601 317.593 535.301 317.593C534.001 317.593 532.947 318.647 532.947 319.947C532.947 321.247 534.001 322.301 535.301 322.301Z" fill="#FFEB7D"/>
<path d="M598.967 340.931C599.897 340.931 600.651 340.177 600.651 339.247C600.651 338.317 599.897 337.563 598.967 337.563C598.037 337.563 597.283 338.317 597.283 339.247C597.283 340.177 598.037 340.931 598.967 340.931Z" fill="#FFEB7D"/>
<path d="M534.874 310.715C535.966 310.715 536.85 309.83 536.85 308.739C536.85 307.648 535.966 306.763 534.874 306.763C533.783 306.763 532.898 307.648 532.898 308.739C532.898 309.83 533.783 310.715 534.874 310.715Z" fill="#FFEB7D"/>
<path d="M573.77 350.105C574.646 350.105 575.356 349.395 575.356 348.519C575.356 347.643 574.646 346.933 573.77 346.933C572.894 346.933 572.184 347.643 572.184 348.519C572.184 349.395 572.894 350.105 573.77 350.105Z" fill="#FFEB7D"/>
<path d="M584.014 324.912C585.124 324.912 586.024 324.012 586.024 322.902C586.024 321.792 585.124 320.892 584.014 320.892C582.904 320.892 582.004 321.792 582.004 322.902C582.004 324.012 582.904 324.912 584.014 324.912Z" fill="#FFEB7D"/>
<path d="M619.3 335.123C619.601 334.824 620.009 334.655 620.434 334.655C620.859 334.655 621.267 334.824 621.568 335.123C621.868 335.425 622.036 335.832 622.036 336.257C622.036 336.682 621.868 337.09 621.568 337.391C621.267 337.691 620.859 337.859 620.434 337.859C620.009 337.859 619.601 337.691 619.3 337.391C619 337.09 618.832 336.682 618.832 336.257C618.832 335.832 619 335.425 619.3 335.123ZM619.449 335.267C618.905 335.811 618.905 336.704 619.449 337.248C619.993 337.792 620.887 337.792 621.431 337.248C621.975 336.704 621.975 335.811 621.431 335.267C620.881 334.717 619.993 334.717 619.449 335.267Z" fill="#FFEB7D"/>
<path d="M550.766 334.768C551.924 334.768 552.862 333.83 552.862 332.672C552.862 331.515 551.924 330.576 550.766 330.576C549.608 330.576 548.67 331.515 548.67 332.672C548.67 333.83 549.608 334.768 550.766 334.768Z" fill="#FFEB7D"/>
<path d="M607.815 325.943C608.821 325.943 609.637 325.128 609.637 324.122C609.637 323.116 608.821 322.301 607.815 322.301C606.81 322.301 605.994 323.116 605.994 324.122C605.994 325.128 606.81 325.943 607.815 325.943Z" fill="#FFEB7D"/>
<path d="M599.306 325.846C600.246 325.846 601.007 325.084 601.007 324.145C601.007 323.205 600.246 322.444 599.306 322.444C598.367 322.444 597.605 323.205 597.605 324.145C597.605 325.084 598.367 325.846 599.306 325.846Z" fill="#FFEB7D"/>
<path d="M591.125 342.592C591.268 342.449 591.437 342.335 591.624 342.258C591.811 342.18 592.011 342.141 592.213 342.141C592.415 342.141 592.615 342.18 592.802 342.258C592.989 342.335 593.158 342.449 593.301 342.592C593.444 342.734 593.557 342.904 593.635 343.091C593.712 343.277 593.752 343.478 593.752 343.68C593.752 343.882 593.712 344.082 593.635 344.269C593.557 344.455 593.444 344.625 593.301 344.768C593.158 344.911 592.989 345.024 592.802 345.102C592.615 345.179 592.415 345.219 592.213 345.219C592.011 345.219 591.811 345.179 591.624 345.102C591.437 345.024 591.268 344.911 591.125 344.768C590.982 344.625 590.868 344.455 590.791 344.269C590.714 344.082 590.674 343.882 590.674 343.68C590.674 343.478 590.714 343.277 590.791 343.091C590.868 342.904 590.982 342.734 591.125 342.592ZM591.337 342.803C590.856 343.284 590.856 344.075 591.337 344.556C591.818 345.037 592.602 345.037 593.089 344.556C593.57 344.075 593.57 343.29 593.089 342.803C592.608 342.322 591.818 342.322 591.337 342.803Z" fill="#FFEB7D"/>
<path d="M543.543 329.425C544.393 329.425 545.083 328.735 545.083 327.884C545.083 327.034 544.393 326.344 543.543 326.344C542.692 326.344 542.002 327.034 542.002 327.884C542.002 328.735 542.692 329.425 543.543 329.425Z" fill="#FFEB7D"/>
<path d="M593.576 353.186C593.963 352.801 594.487 352.585 595.033 352.585C595.579 352.585 596.103 352.801 596.491 353.186C596.876 353.574 597.092 354.098 597.092 354.644C597.092 355.19 596.876 355.714 596.491 356.101C596.103 356.487 595.579 356.703 595.033 356.703C594.487 356.703 593.963 356.487 593.576 356.101C593.191 355.714 592.975 355.19 592.975 354.644C592.975 354.098 593.191 353.574 593.576 353.186ZM593.759 353.37C593.423 353.708 593.235 354.165 593.235 354.641C593.235 355.117 593.423 355.575 593.759 355.913C594.458 356.611 595.603 356.611 596.302 355.913C597.001 355.214 597.001 354.068 596.302 353.37C595.964 353.034 595.507 352.846 595.03 352.846C594.554 352.846 594.097 353.034 593.759 353.37Z" fill="#FFEB7D"/>
<path d="M560.3 330.238C561.673 330.238 562.786 329.125 562.786 327.753C562.786 326.38 561.673 325.267 560.3 325.267C558.927 325.267 557.814 326.38 557.814 327.753C557.814 329.125 558.927 330.238 560.3 330.238Z" fill="#FFEB7D"/>
<path d="M619.479 353.106C620.352 353.106 621.06 352.399 621.06 351.526C621.06 350.653 620.352 349.945 619.479 349.945C618.606 349.945 617.898 350.653 617.898 351.526C617.898 352.399 618.606 353.106 619.479 353.106Z" fill="#FFEB7D"/>
<path d="M566.127 322.134C566.977 322.134 567.667 321.445 567.667 320.594C567.667 319.743 566.977 319.053 566.127 319.053C565.276 319.053 564.586 319.743 564.586 320.594C564.586 321.445 565.276 322.134 566.127 322.134Z" fill="#FFEB7D"/>
<path d="M620.927 325.92C621.095 325.751 621.295 325.617 621.515 325.526C621.736 325.435 621.972 325.388 622.21 325.388C622.448 325.388 622.684 325.435 622.904 325.526C623.124 325.617 623.324 325.751 623.493 325.92C624.203 326.63 624.203 327.781 623.493 328.486C622.783 329.19 621.631 329.196 620.927 328.486C620.223 327.776 620.223 326.63 620.927 325.92ZM621.093 326.086C620.475 326.705 620.475 327.713 621.093 328.331C621.712 328.95 622.72 328.95 623.338 328.331C623.957 327.713 623.957 326.705 623.338 326.086C622.72 325.468 621.706 325.468 621.093 326.086ZM596.272 314.351C596.999 313.624 598.185 313.624 598.912 314.351C599.64 315.079 599.64 316.264 598.912 316.992C598.185 317.719 596.999 317.719 596.272 316.992C595.545 316.264 595.545 315.079 596.272 314.351ZM596.53 314.609C596.249 314.89 596.092 315.271 596.092 315.669C596.092 316.066 596.249 316.447 596.53 316.728C596.811 317.009 597.192 317.166 597.589 317.166C597.986 317.166 598.367 317.009 598.649 316.728C598.929 316.447 599.087 316.066 599.087 315.669C599.087 315.271 598.929 314.89 598.649 314.609C598.07 314.025 597.114 314.025 596.53 314.609Z" fill="#FFEB7D"/>
<path d="M575.613 359.646C576.549 359.646 577.308 358.888 577.308 357.951C577.308 357.015 576.549 356.256 575.613 356.256C574.677 356.256 573.918 357.015 573.918 357.951C573.918 358.888 574.677 359.646 575.613 359.646Z" fill="#FFEB7D"/>
<path d="M609.413 346.675C609.703 346.386 610.095 346.224 610.504 346.224C610.913 346.224 611.306 346.386 611.595 346.675C611.738 346.818 611.852 346.987 611.929 347.174C612.006 347.361 612.046 347.561 612.046 347.763C612.046 347.965 612.006 348.165 611.929 348.352C611.852 348.538 611.738 348.708 611.595 348.851C611.452 348.994 611.283 349.107 611.096 349.185C610.909 349.262 610.709 349.302 610.507 349.302C610.305 349.302 610.105 349.262 609.918 349.185C609.731 349.107 609.562 348.994 609.419 348.851C609.275 348.709 609.16 348.54 609.082 348.353C609.004 348.166 608.963 347.966 608.963 347.764C608.962 347.562 609.002 347.361 609.079 347.174C609.156 346.987 609.27 346.818 609.413 346.675ZM609.625 346.892C609.144 347.373 609.144 348.164 609.625 348.645C610.106 349.126 610.891 349.126 611.378 348.645C611.859 348.164 611.859 347.379 611.378 346.892C610.896 346.411 610.106 346.411 609.625 346.892Z" fill="#FFEB7D"/>
<path d="M576.137 319.03C577.668 319.03 578.909 317.789 578.909 316.259C578.909 314.728 577.668 313.487 576.137 313.487C574.606 313.487 573.365 314.728 573.365 316.259C573.365 317.789 574.606 319.03 576.137 319.03Z" fill="#FFEB7D"/>
<path d="M603.103 330.479C603.392 330.19 603.785 330.028 604.194 330.028C604.603 330.028 604.995 330.19 605.285 330.479C605.428 330.622 605.541 330.791 605.618 330.978C605.696 331.165 605.736 331.365 605.736 331.567C605.736 331.769 605.696 331.969 605.618 332.156C605.541 332.343 605.428 332.512 605.285 332.655C605.142 332.798 604.972 332.911 604.785 332.989C604.599 333.066 604.399 333.106 604.196 333.106C603.994 333.106 603.794 333.066 603.608 332.989C603.421 332.911 603.251 332.798 603.108 332.655C602.964 332.513 602.85 332.344 602.772 332.157C602.693 331.971 602.653 331.77 602.652 331.568C602.652 331.366 602.691 331.165 602.769 330.978C602.846 330.791 602.959 330.622 603.103 330.479ZM603.315 330.696C602.833 331.177 602.833 331.968 603.315 332.449C603.796 332.93 604.58 332.93 605.067 332.449C605.548 331.968 605.548 331.183 605.067 330.696C604.586 330.21 603.801 330.21 603.315 330.696Z" fill="#FFEB7D"/>
<path d="M605.275 305.314C606.413 305.314 607.336 304.391 607.336 303.252C607.336 302.114 606.413 301.191 605.275 301.191C604.136 301.191 603.213 302.114 603.213 303.252C603.213 304.391 604.136 305.314 605.275 305.314Z" fill="#FFEB7D"/>
<path d="M610.069 367.796C611.274 367.796 612.251 366.819 612.251 365.614C612.251 364.409 611.274 363.432 610.069 363.432C608.864 363.432 607.887 364.409 607.887 365.614C607.887 366.819 608.864 367.796 610.069 367.796Z" fill="#FFEB7D"/>
<path d="M550.158 324.941C551.085 324.941 551.837 324.189 551.837 323.263C551.837 322.336 551.085 321.585 550.158 321.585C549.232 321.585 548.48 322.336 548.48 323.263C548.48 324.189 549.232 324.941 550.158 324.941Z" fill="#FFEB7D"/>
<path d="M583.921 334.677C584.772 334.677 585.462 333.987 585.462 333.136C585.462 332.285 584.772 331.596 583.921 331.596C583.071 331.596 582.381 332.285 582.381 333.136C582.381 333.987 583.071 334.677 583.921 334.677Z" fill="#FFEB7D"/>
<path d="M617.031 320.978C617.882 320.978 618.571 320.288 618.571 319.437C618.571 318.586 617.882 317.896 617.031 317.896C616.18 317.896 615.49 318.586 615.49 319.437C615.49 320.288 616.18 320.978 617.031 320.978Z" fill="#FFEB7D"/>
<path d="M599.921 347.351C600.21 347.062 600.602 346.9 601.012 346.9C601.421 346.9 601.813 347.062 602.103 347.351C602.391 347.64 602.553 348.033 602.553 348.442C602.553 348.851 602.391 349.243 602.103 349.533C601.813 349.821 601.421 349.984 601.012 349.984C600.602 349.984 600.21 349.821 599.921 349.533C599.632 349.243 599.47 348.851 599.47 348.442C599.47 348.033 599.632 347.64 599.921 347.351ZM600.058 347.488C599.531 348.015 599.531 348.868 600.058 349.389C600.585 349.911 601.438 349.916 601.959 349.389C602.481 348.863 602.486 348.009 601.959 347.488C601.432 346.967 600.585 346.961 600.058 347.488ZM524.581 303.55C524.736 303.395 524.92 303.272 525.122 303.188C525.325 303.104 525.542 303.061 525.761 303.061C525.98 303.061 526.197 303.104 526.4 303.188C526.602 303.272 526.786 303.395 526.941 303.55C527.594 304.203 527.594 305.263 526.941 305.91C526.288 306.557 525.228 306.563 524.581 305.91C524.27 305.596 524.096 305.172 524.096 304.73C524.096 304.288 524.27 303.864 524.581 303.55ZM524.816 303.785C524.295 304.306 524.295 305.16 524.816 305.681C525.337 306.202 526.19 306.202 526.712 305.681C527.233 305.16 527.238 304.306 526.712 303.785C526.185 303.264 525.337 303.258 524.816 303.785Z" fill="#FFEB7D"/>
<path d="M619.929 308.304C620.549 308.304 621.052 307.801 621.052 307.181C621.052 306.561 620.549 306.059 619.929 306.059C619.309 306.059 618.807 306.561 618.807 307.181C618.807 307.801 619.309 308.304 619.929 308.304Z" fill="#FFEB7D"/>
<path d="M574.941 366.616C575.365 366.192 576.058 366.192 576.481 366.616C576.905 367.04 576.905 367.733 576.481 368.157C576.058 368.581 575.365 368.581 574.941 368.157C574.517 367.727 574.517 367.04 574.941 366.616ZM575.038 366.714C574.666 367.086 574.666 367.687 575.038 368.059C575.411 368.432 576.012 368.432 576.384 368.059C576.756 367.687 576.756 367.086 576.384 366.714C576.012 366.341 575.411 366.341 575.038 366.714Z" fill="#FFEB7D"/>
<path d="M625.649 346.217C626.62 346.217 627.407 345.43 627.407 344.459C627.407 343.487 626.62 342.7 625.649 342.7C624.678 342.7 623.891 343.487 623.891 344.459C623.891 345.43 624.678 346.217 625.649 346.217Z" fill="#FFEB7D"/>
<path d="M589.834 364.125C590.4 364.125 590.859 363.666 590.859 363.1C590.859 362.534 590.4 362.075 589.834 362.075C589.268 362.075 588.809 362.534 588.809 363.1C588.809 363.666 589.268 364.125 589.834 364.125Z" fill="#FFEB7D"/>
<path d="M587.675 312.754C588.242 312.187 589.17 312.187 589.737 312.754C590.304 313.321 590.304 314.248 589.737 314.815C589.17 315.382 588.242 315.382 587.675 314.815C587.108 314.243 587.108 313.321 587.675 312.754ZM587.807 312.88C587.309 313.378 587.309 314.185 587.807 314.678C588.305 315.176 589.113 315.176 589.605 314.678C590.104 314.18 590.104 313.372 589.605 312.88C589.113 312.387 588.305 312.387 587.807 312.88ZM614.014 327.478C614.415 327.077 615.068 327.077 615.469 327.478C615.869 327.879 615.869 328.532 615.469 328.932C615.068 329.333 614.415 329.333 614.014 328.932C613.613 328.532 613.613 327.879 614.014 327.478ZM614.106 327.569C613.756 327.919 613.756 328.491 614.106 328.841C614.455 329.19 615.028 329.19 615.377 328.841C615.726 328.491 615.726 327.919 615.377 327.569C615.028 327.22 614.455 327.22 614.106 327.569ZM626.676 333.033C627.146 332.563 627.902 332.563 628.372 333.033C628.841 333.503 628.836 334.259 628.372 334.728C627.902 335.198 627.146 335.198 626.676 334.728C626.213 334.259 626.213 333.497 626.676 333.033ZM626.848 333.199C626.47 333.577 626.47 334.184 626.848 334.562C627.226 334.94 627.833 334.934 628.211 334.562C628.589 334.184 628.589 333.577 628.211 333.199C627.833 332.821 627.221 332.821 626.848 333.199ZM590.98 323.549C591.381 323.148 592.034 323.148 592.434 323.549C592.835 323.95 592.835 324.603 592.434 325.004C592.034 325.405 591.381 325.405 590.98 325.004C590.579 324.603 590.579 323.95 590.98 323.549ZM591.123 323.692C590.802 324.013 590.802 324.54 591.123 324.861C591.444 325.181 591.971 325.181 592.291 324.861C592.612 324.54 592.612 324.013 592.291 323.692C591.971 323.372 591.444 323.372 591.123 323.692Z" fill="#FFEB7D"/>
<path d="M616.418 359.074C616.984 359.074 617.443 358.615 617.443 358.049C617.443 357.482 616.984 357.023 616.418 357.023C615.852 357.023 615.393 357.482 615.393 358.049C615.393 358.615 615.852 359.074 616.418 359.074Z" fill="#FFEB7D"/>
<path d="M565.161 336.355C565.85 336.355 566.409 335.796 566.409 335.106C566.409 334.417 565.85 333.858 565.161 333.858C564.471 333.858 563.912 334.417 563.912 335.106C563.912 335.796 564.471 336.355 565.161 336.355Z" fill="#FFEB7D"/>
<path d="M543.004 317.845C543.57 317.845 544.029 317.386 544.029 316.82C544.029 316.254 543.57 315.795 543.004 315.795C542.438 315.795 541.979 316.254 541.979 316.82C541.979 317.386 542.438 317.845 543.004 317.845Z" fill="#FFEB7D"/>
<path d="M604.383 316.081C604.784 315.68 605.436 315.68 605.837 316.081C606.238 316.482 606.238 317.135 605.837 317.536C605.436 317.936 604.784 317.936 604.383 317.536C603.982 317.135 603.982 316.482 604.383 316.081ZM604.474 316.172C604.125 316.522 604.125 317.095 604.474 317.444C604.824 317.793 605.396 317.793 605.746 317.444C606.095 317.095 606.095 316.522 605.746 316.172C605.396 315.823 604.824 315.823 604.474 316.172Z" fill="#FFEB7D"/>
<path d="M580.165 334.001C580.165 334.001 576.597 329.757 576.597 325.834C576.597 325.834 573.505 334.001 567.205 334.001H580.165Z" fill="#F9C126"/>
<path d="M625.501 390.332L613.542 400.417L607.014 398.974L625.501 390.332Z" fill="#465CFF"/>
<path d="M589.035 373.918L619.549 369.308L585.473 394.209L600.552 379.101L589.035 373.918Z" fill="#1D2D58"/>
<path d="M633.007 367.212C633.95 367.212 634.855 367.587 635.522 368.254C636.189 368.921 636.564 369.825 636.564 370.768C636.564 371.712 636.189 372.616 635.522 373.283C634.855 373.95 633.95 374.325 633.007 374.325H585.473V367.206H633.007V367.212Z" fill="url(#paint41_linear_281_2212)"/>
<path d="M550.433 334.001H591.954C597.354 334.001 602.154 337.443 603.889 342.551L611.918 366.21C613.27 370.19 610.309 374.325 606.105 374.325H564.584C559.184 374.325 554.384 370.883 552.649 365.774L544.62 342.116C543.262 338.13 546.229 334.001 550.433 334.001Z" fill="url(#paint42_linear_281_2212)"/>
<path d="M608.933 357.917C610.474 356.732 611.808 355.283 613.005 353.719C614.167 352.133 615.124 350.392 615.914 348.576C617.495 344.934 618.102 340.85 617.713 336.87C617.3 332.896 615.851 328.978 613.36 325.84C612.117 324.282 610.651 322.89 608.996 321.802C607.387 320.834 606.064 319.414 605.102 317.73C605.709 319.58 606.957 321.23 608.498 322.495C609.981 323.669 611.247 325.078 612.283 326.63C614.362 329.742 615.635 333.322 615.989 337.048C616.39 340.759 615.886 344.539 614.677 348.101C614.071 349.897 613.274 351.623 612.3 353.249C611.373 354.927 610.199 356.451 608.933 357.917Z" fill="#F9C126"/>
<path d="M583.423 284.348C586.734 273.856 585.817 271.651 585.817 271.651L600.541 269.996L608.639 283.615L601.464 294.29L602.013 297.05C602.013 297.05 606.824 308.831 597.151 310.119L596.865 310.154C592.014 310.749 588.074 306.397 588.818 301.569C589.122 299.604 588.99 297.634 587.478 297.05C584.162 295.756 580.113 294.834 583.423 284.348Z" fill="url(#paint43_linear_281_2212)"/>
<path d="M584.096 277.635C585.041 277.968 586.037 277.189 586.621 276.358C587.205 275.528 587.704 274.554 588.62 274.108C590.035 273.443 591.673 274.497 592.698 275.688C593.694 276.879 594.559 278.351 596.002 278.907C597.279 279.405 598.997 279.296 599.582 280.487C600.166 281.656 599.112 283.099 599.496 284.319C599.633 284.737 599.914 285.069 600.217 285.373C601.689 284.347 603.327 284.124 604.186 284.983C605.24 286.037 604.742 288.202 603.104 289.84C602.577 290.367 602.021 290.756 601.437 291.031C601.162 292.005 600.773 292.921 600.658 293.917C600.55 294.834 600.767 296.804 601.85 297.136C602.795 297.439 604.902 296.054 605.818 295.664C606.958 295.194 608.092 294.691 609.26 294.221C610.234 293.803 611.259 293.333 611.895 292.503C612.84 291.254 612.702 289.559 612.364 288.064C612.004 286.564 611.477 285.04 611.752 283.511C612.084 281.793 613.39 280.43 614.22 278.878C615.606 276.381 615.772 273.271 614.69 270.637C613.579 268.003 611.248 265.918 608.527 265.139C604.473 263.948 599.948 265.528 596.008 264.028C594.759 263.558 593.648 262.78 592.486 262.138C591.323 261.497 590.046 260.97 588.712 261.027C587.377 261.084 585.991 261.835 585.573 263.106C585.127 264.383 585.739 265.74 585.797 267.103C585.883 268.936 584.938 270.626 584.216 272.321C583.54 274.027 583.099 276.083 584.096 277.635Z" fill="#1D2D58"/>
<path d="M586.947 296.844C587.949 297.216 590.687 298.104 592.714 297.525C592.714 297.525 591.122 299.839 588.94 299.839C588.935 299.839 588.929 299.833 588.917 299.833C588.883 298.551 588.522 297.457 587.468 297.044C587.297 296.976 587.119 296.913 586.947 296.844Z" fill="#FF5F78"/>
<path d="M289.388 379.382C283.546 379.382 278.793 374.628 278.793 368.787V358.851C278.793 353.009 283.546 348.255 289.388 348.255C295.23 348.255 299.983 353.009 299.983 358.851V368.787C299.983 374.628 295.23 379.382 289.388 379.382ZM289.388 352.7C285.998 352.7 283.237 355.46 283.237 358.851V368.787C283.237 372.177 285.998 374.932 289.388 374.932C292.778 374.932 295.539 372.172 295.539 368.787V358.851C295.533 355.46 292.778 352.7 289.388 352.7Z" fill="url(#paint44_linear_281_2212)"/>
<path d="M327.186 343.806V379.382C327.186 384.296 323.206 388.276 318.292 388.276H300.503C295.59 388.276 291.609 384.296 291.609 379.382V343.806H327.186Z" fill="url(#paint45_linear_281_2212)"/>
<defs>
<radialGradient id="paint0_radial_281_2212" cx="0" cy="0" r="1" gradientUnits="userSpaceOnUse" gradientTransform="translate(490 250) rotate(92.7559) scale(322.373 494.087)">
<stop stop-color="#8085FF"/>
<stop offset="0.540512" stop-color="#762CEF"/>
<stop offset="1" stop-color="#7000C8"/>
</radialGradient>
<linearGradient id="paint1_linear_281_2212" x1="799" y1="461.055" x2="807.43" y2="461.055" gradientUnits="userSpaceOnUse">
<stop stop-color="white"/>
<stop offset="1" stop-color="white" stop-opacity="0.82"/>
</linearGradient>
<linearGradient id="paint2_linear_281_2212" x1="807.43" y1="470.528" x2="832.716" y2="470.528" gradientUnits="userSpaceOnUse">
<stop stop-color="white"/>
<stop offset="1" stop-color="white" stop-opacity="0.82"/>
</linearGradient>
<linearGradient id="paint3_linear_281_2212" x1="807.572" y1="451.543" x2="832.654" y2="451.543" gradientUnits="userSpaceOnUse">
<stop stop-color="white"/>
<stop offset="1" stop-color="white" stop-opacity="0.82"/>
</linearGradient>
<linearGradient id="paint4_linear_281_2212" x1="435" y1="77.8295" x2="476" y2="77.8295" gradientUnits="userSpaceOnUse">
<stop stop-color="#3AF3FF"/>
<stop offset="1" stop-color="#EFFFFE"/>
</linearGradient>
<linearGradient id="paint5_linear_281_2212" x1="602" y1="73.5" x2="676" y2="73" gradientUnits="userSpaceOnUse">
<stop stop-color="#A3FFF5"/>
<stop offset="1" stop-color="#F0FFFD"/>
</linearGradient>
<linearGradient id="paint6_linear_281_2212" x1="636.567" y1="42.8329" x2="636.567" y2="98.4194" gradientUnits="userSpaceOnUse">
<stop stop-color="#6584F3"/>
<stop offset="1" stop-color="#D8EAFF"/>
</linearGradient>
<linearGradient id="paint7_linear_281_2212" x1="295.225" y1="167.264" x2="359.976" y2="115.229" gradientUnits="userSpaceOnUse">
<stop offset="0.184024" stop-color="#03AB8D"/>
<stop offset="1" stop-color="#67FFD2"/>
</linearGradient>
<linearGradient id="paint8_linear_281_2212" x1="301.874" y1="412.026" x2="301.874" y2="435.77" gradientUnits="userSpaceOnUse">
<stop stop-color="#1566DE"/>
<stop offset="1" stop-color="#A1ACFF"/>
</linearGradient>
<linearGradient id="paint9_linear_281_2212" x1="379.048" y1="388.276" x2="379.048" y2="412.02" gradientUnits="userSpaceOnUse">
<stop stop-color="#FF5F78"/>
<stop offset="1" stop-color="#FFB9C4"/>
</linearGradient>
<linearGradient id="paint10_linear_281_2212" x1="415.081" y1="148.903" x2="415.081" y2="353.977" gradientUnits="userSpaceOnUse">
<stop stop-color="#E2A5FF"/>
<stop offset="1" stop-color="#FAF6FF"/>
</linearGradient>
<linearGradient id="paint11_linear_281_2212" x1="492" y1="122" x2="650.5" y2="122" gradientUnits="userSpaceOnUse">
<stop stop-color="#1D2D58"/>
<stop offset="1" stop-color="#2755D1"/>
</linearGradient>
<linearGradient id="paint12_linear_281_2212" x1="569.605" y1="131.35" x2="569.605" y2="251.411" gradientUnits="userSpaceOnUse">
<stop stop-color="white"/>
<stop offset="1" stop-color="#EBF5FF"/>
</linearGradient>
<linearGradient id="paint13_linear_281_2212" x1="451.889" y1="187.956" x2="459.13" y2="221.627" gradientUnits="userSpaceOnUse">
<stop stop-color="white"/>
<stop offset="0.84427" stop-color="#FFC4C4"/>
</linearGradient>
<linearGradient id="paint14_linear_281_2212" x1="353" y1="148.5" x2="435" y2="153" gradientUnits="userSpaceOnUse">
<stop stop-color="#F98D62"/>
<stop offset="1" stop-color="#FFD5C4"/>
</linearGradient>
<linearGradient id="paint15_linear_281_2212" x1="410.818" y1="146.269" x2="410.818" y2="159.292" gradientUnits="userSpaceOnUse">
<stop stop-color="white"/>
<stop offset="1" stop-color="white" stop-opacity="0"/>
</linearGradient>
<linearGradient id="paint16_linear_281_2212" x1="391.273" y1="146.269" x2="391.273" y2="159.292" gradientUnits="userSpaceOnUse">
<stop stop-color="white"/>
<stop offset="1" stop-color="white" stop-opacity="0"/>
</linearGradient>
<linearGradient id="paint17_linear_281_2212" x1="371.73" y1="146.269" x2="371.73" y2="159.292" gradientUnits="userSpaceOnUse">
<stop stop-color="white"/>
<stop offset="1" stop-color="white" stop-opacity="0"/>
</linearGradient>
<linearGradient id="paint18_linear_281_2212" x1="535.531" y1="231.227" x2="538.05" y2="246.509" gradientUnits="userSpaceOnUse">
<stop stop-color="white"/>
<stop offset="0.84427" stop-color="#FFC4C4"/>
</linearGradient>
<linearGradient id="paint19_linear_281_2212" x1="490.125" y1="248.669" x2="491.621" y2="275.571" gradientUnits="userSpaceOnUse">
<stop stop-color="white"/>
<stop offset="0.84427" stop-color="#FFC4C4"/>
</linearGradient>
<linearGradient id="paint20_linear_281_2212" x1="395.155" y1="256.971" x2="395.155" y2="277.584" gradientUnits="userSpaceOnUse">
<stop stop-color="#65C0F3"/>
<stop offset="1" stop-color="#D3FFFA"/>
</linearGradient>
<linearGradient id="paint21_linear_281_2212" x1="352.76" y1="241.405" x2="352.76" y2="262.025" gradientUnits="userSpaceOnUse">
<stop stop-color="#65C0F3"/>
<stop offset="1" stop-color="#D3FFFA"/>
</linearGradient>
<linearGradient id="paint22_linear_281_2212" x1="352.76" y1="241.21" x2="352.76" y2="277.584" gradientUnits="userSpaceOnUse">
<stop stop-color="#65C0F3"/>
<stop offset="1" stop-color="#D3FFFA"/>
</linearGradient>
<linearGradient id="paint23_linear_281_2212" x1="505" y1="139.528" x2="634" y2="139.528" gradientUnits="userSpaceOnUse">
<stop stop-color="#4973F0"/>
<stop offset="1" stop-color="#92ADFF" stop-opacity="0"/>
</linearGradient>
<linearGradient id="paint24_linear_281_2212" x1="572" y1="212.5" x2="634" y2="212.5" gradientUnits="userSpaceOnUse">
<stop offset="0.40625" stop-color="#FE759E"/>
<stop offset="1" stop-color="#FFA6C6" stop-opacity="0"/>
</linearGradient>
<linearGradient id="paint25_linear_281_2212" x1="506.648" y1="119.117" x2="506.648" y2="125.783" gradientUnits="userSpaceOnUse">
<stop stop-color="#FCD652"/>
<stop offset="1" stop-color="#FCD652" stop-opacity="0"/>
</linearGradient>
<linearGradient id="paint26_linear_281_2212" x1="518.655" y1="119.117" x2="518.655" y2="125.783" gradientUnits="userSpaceOnUse">
<stop stop-color="#FCD652"/>
<stop offset="1" stop-color="#FCD652" stop-opacity="0"/>
</linearGradient>
<linearGradient id="paint27_linear_281_2212" x1="530.673" y1="119.117" x2="530.673" y2="125.783" gradientUnits="userSpaceOnUse">
<stop stop-color="#FCD652"/>
<stop offset="1" stop-color="#FCD652" stop-opacity="0"/>
</linearGradient>
<linearGradient id="paint28_linear_281_2212" x1="596.119" y1="215.298" x2="612.925" y2="215.298" gradientUnits="userSpaceOnUse">
<stop offset="0.40625" stop-color="#FE759E"/>
<stop offset="1" stop-color="#FFA6C6" stop-opacity="0"/>
</linearGradient>
<linearGradient id="paint29_linear_281_2212" x1="561.989" y1="401.683" x2="561.989" y2="411.917" gradientUnits="userSpaceOnUse">
<stop stop-color="#F98D62"/>
<stop offset="1" stop-color="#FFDBCD"/>
</linearGradient>
<linearGradient id="paint30_linear_281_2212" x1="561.989" y1="381.192" x2="561.989" y2="391.443" gradientUnits="userSpaceOnUse">
<stop stop-color="#F98D62"/>
<stop offset="1" stop-color="#FFCFBC"/>
</linearGradient>
<linearGradient id="paint31_linear_281_2212" x1="648.437" y1="411.917" x2="648.437" y2="381.192" gradientUnits="userSpaceOnUse">
<stop stop-color="#FFF4D4"/>
<stop offset="1" stop-color="#F9C126"/>
</linearGradient>
<linearGradient id="paint32_linear_281_2212" x1="662.743" y1="381.192" x2="662.743" y2="411.923" gradientUnits="userSpaceOnUse">
<stop stop-color="#FF5F78"/>
<stop offset="1" stop-color="#FFA7B4"/>
</linearGradient>
<linearGradient id="paint33_linear_281_2212" x1="468.132" y1="381.203" x2="468.132" y2="411.923" gradientUnits="userSpaceOnUse">
<stop stop-color="#FFE99D"/>
<stop offset="1" stop-color="white"/>
</linearGradient>
<linearGradient id="paint34_linear_281_2212" x1="574.013" y1="404.237" x2="575.455" y2="415.746" gradientUnits="userSpaceOnUse">
<stop stop-color="white"/>
<stop offset="0.84427" stop-color="#FFC4C4"/>
</linearGradient>
<linearGradient id="paint35_linear_281_2212" x1="630.417" y1="395.972" x2="631.766" y2="407.003" gradientUnits="userSpaceOnUse">
<stop stop-color="white"/>
<stop offset="0.84427" stop-color="#FFC4C4"/>
</linearGradient>
<linearGradient id="paint36_linear_281_2212" x1="518.536" y1="284.661" x2="521.368" y2="303.388" gradientUnits="userSpaceOnUse">
<stop stop-color="white"/>
<stop offset="0.84427" stop-color="#FFC4C4"/>
</linearGradient>
<linearGradient id="paint37_linear_281_2212" x1="595.244" y1="357.871" x2="595.244" y2="380.751" gradientUnits="userSpaceOnUse">
<stop stop-color="#4F7BFF"/>
<stop offset="1" stop-color="#BECEFF"/>
</linearGradient>
<linearGradient id="paint38_linear_281_2212" x1="531.5" y1="350" x2="635.926" y2="364.256" gradientUnits="userSpaceOnUse">
<stop stop-color="#3769FF"/>
<stop offset="1" stop-color="#B1C5FF"/>
</linearGradient>
<linearGradient id="paint39_linear_281_2212" x1="633.5" y1="361" x2="590.5" y2="411" gradientUnits="userSpaceOnUse">
<stop stop-color="#3769FF"/>
<stop offset="1" stop-color="#B1C5FF"/>
</linearGradient>
<linearGradient id="paint40_linear_281_2212" x1="576.092" y1="298.676" x2="576.092" y2="370.516" gradientUnits="userSpaceOnUse">
<stop stop-color="#F49D1A"/>
<stop offset="1" stop-color="#FFE691"/>
</linearGradient>
<linearGradient id="paint41_linear_281_2212" x1="611.018" y1="367.206" x2="611.018" y2="374.325" gradientUnits="userSpaceOnUse">
<stop stop-color="#F0F2FC"/>
<stop offset="1" stop-color="#C3B9FF"/>
</linearGradient>
<linearGradient id="paint42_linear_281_2212" x1="578.268" y1="334.001" x2="578.268" y2="374.325" gradientUnits="userSpaceOnUse">
<stop stop-color="#F0F2FC"/>
<stop offset="1" stop-color="#C3B9FF"/>
</linearGradient>
<linearGradient id="paint43_linear_281_2212" x1="591.606" y1="278.509" x2="597.262" y2="309.486" gradientUnits="userSpaceOnUse">
<stop stop-color="white"/>
<stop offset="0.84427" stop-color="#FFC4C4"/>
</linearGradient>
<linearGradient id="paint44_linear_281_2212" x1="289.388" y1="348.255" x2="289.388" y2="379.382" gradientUnits="userSpaceOnUse">
<stop stop-color="#4056FF"/>
<stop offset="1" stop-color="#AEB8FF"/>
</linearGradient>
<linearGradient id="paint45_linear_281_2212" x1="292" y1="365.408" x2="331" y2="365.408" gradientUnits="userSpaceOnUse">
<stop stop-color="#4C74ED"/>
<stop offset="1" stop-color="#C4D3FF"/>
</linearGradient>
<clipPath id="clip0_281_2212">
<rect width="160.567" height="38" fill="white" transform="translate(799 442)"/>
</clipPath>
</defs>
</svg>
