<svg width="32" height="32" viewBox="0 0 32 32" fill="none" xmlns="http://www.w3.org/2000/svg">
<path d="M15.9974 2.6665C8.65073 2.6665 2.66406 8.65317 2.66406 15.9998C2.66406 23.3465 8.65073 29.3332 15.9974 29.3332C23.3441 29.3332 29.3307 23.3465 29.3307 15.9998C29.3307 8.65317 23.3441 2.6665 15.9974 2.6665ZM14.9974 10.6665C14.9974 10.1198 15.4507 9.6665 15.9974 9.6665C16.5441 9.6665 16.9974 10.1198 16.9974 10.6665V17.3332C16.9974 17.8798 16.5441 18.3332 15.9974 18.3332C15.4507 18.3332 14.9974 17.8798 14.9974 17.3332V10.6665ZM17.2241 21.8398C17.1574 22.0132 17.0641 22.1465 16.9441 22.2798C16.8107 22.3998 16.6641 22.4932 16.5041 22.5598C16.3441 22.6265 16.1707 22.6665 15.9974 22.6665C15.8241 22.6665 15.6507 22.6265 15.4907 22.5598C15.3307 22.4932 15.1841 22.3998 15.0507 22.2798C14.9307 22.1465 14.8374 22.0132 14.7707 21.8398C14.7041 21.6798 14.6641 21.5065 14.6641 21.3332C14.6641 21.1598 14.7041 20.9865 14.7707 20.8265C14.8374 20.6665 14.9307 20.5198 15.0507 20.3865C15.1841 20.2665 15.3307 20.1732 15.4907 20.1065C15.8107 19.9732 16.1841 19.9732 16.5041 20.1065C16.6641 20.1732 16.8107 20.2665 16.9441 20.3865C17.0641 20.5198 17.1574 20.6665 17.2241 20.8265C17.2907 20.9865 17.3307 21.1598 17.3307 21.3332C17.3307 21.5065 17.2907 21.6798 17.2241 21.8398Z" fill="#FF9C07"/>
</svg>
