<svg width="100" height="100" viewBox="0 0 100 100" fill="none" xmlns="http://www.w3.org/2000/svg">
<path d="M57.6289 71.959H22.0456C20.3197 71.959 18.9206 73.3581 18.9206 75.084C18.9206 76.8099 20.3197 78.209 22.0456 78.209H57.6289C59.3548 78.209 60.7539 76.8099 60.7539 75.084C60.7539 73.3581 59.3548 71.959 57.6289 71.959Z" fill="white"/>
<path d="M81.5873 31.2923V27.6673C81.5918 23.2075 78.0842 19.5347 73.6289 19.334H18.0456C15.8868 19.3775 13.8351 20.2828 12.3479 21.8483C10.8607 23.4137 10.0617 25.5091 10.1289 27.6673V56.834C10.1234 61.2784 13.6067 64.9451 18.0456 65.1673H61.7123V39.2507C61.735 34.8649 65.2848 31.3151 69.6706 31.2923H81.5873Z" fill="white"/>
<path fill-rule="evenodd" clip-rule="evenodd" d="M71.2539 34.7507H83.7539C85.4339 34.805 87.0234 35.525 88.1723 36.752C89.3211 37.979 89.9351 39.6124 89.8789 41.2923V74.0423C89.9351 75.7223 89.3211 77.3556 88.1723 78.5827C87.0234 79.8097 85.4339 80.5296 83.7539 80.584H71.2539C67.749 80.4706 64.9937 77.5478 65.0872 74.0423V41.2923C65.0165 37.7956 67.7591 34.8862 71.2539 34.7507ZM75.5039 73.459C75.5039 74.6096 76.4367 75.5423 77.5872 75.5423C78.7378 75.5423 79.6706 74.6096 79.6706 73.459C79.6706 72.3084 78.7378 71.3756 77.5872 71.3756C76.446 71.3978 75.5261 72.3177 75.5039 73.459Z" fill="white"/>
</svg>
