<svg width="100" height="100" viewBox="0 0 100 100" fill="none" xmlns="http://www.w3.org/2000/svg">
<path fill-rule="evenodd" clip-rule="evenodd" d="M82.3334 61.5639L73.5834 58.6473V45.3973C73.2864 30.7109 65.5904 17.1685 53.1251 9.39726C50.9165 7.97891 48.0836 7.97891 45.8751 9.39726C33.4097 17.1685 25.7137 30.7109 25.4167 45.3973V58.8139L16.6667 61.7306C14.1662 62.5743 12.4872 64.9249 12.5001 67.5639V84.2306C12.5061 86.7308 13.7115 89.0763 15.741 90.5366C17.7705 91.9968 20.3775 92.3944 22.7501 91.6056L26.9167 90.1889C28.1081 91.382 29.7309 92.0431 31.4167 92.0223H37.7917C40.7391 92.1896 43.2777 89.966 43.5001 87.0223V75.8139C43.7228 72.7092 46.3918 70.3552 49.5001 70.5223C52.6083 70.3552 55.2774 72.7092 55.5001 75.8139V86.6889C55.7224 89.6327 58.261 91.8563 61.2084 91.6889H67.5417C69.2276 91.7098 70.8504 91.0487 72.0417 89.8556L76.2084 91.2723C78.6052 92.0996 81.2547 91.7088 83.3107 90.2249C85.3667 88.7409 86.572 86.3493 86.5417 83.8139V67.1473C86.4433 64.5897 84.765 62.363 82.3334 61.5639ZM52.6251 58.3556C52.6251 60.0815 51.226 61.4806 49.5001 61.4806C47.7742 61.4806 46.3751 60.0815 46.3751 58.3556V51.0639C46.3751 49.338 47.7742 47.9389 49.5001 47.9389C51.226 47.9389 52.6251 49.338 52.6251 51.0639V58.3556ZM43.1251 37.5223C43.1251 41.0431 45.9793 43.8973 49.5001 43.8973C53.0114 43.8745 55.8524 41.0336 55.8751 37.5223C55.8751 34.0014 53.0209 31.1473 49.5001 31.1473C45.9793 31.1473 43.1251 34.0014 43.1251 37.5223Z" fill="white"/>
</svg>
