<svg width="100" height="100" viewBox="0 0 100 100" fill="none" xmlns="http://www.w3.org/2000/svg">
<path d="M87.1406 46.3325V28.0409C87.1406 24.6242 84.5573 20.7492 81.349 19.4575L58.1406 9.95752C52.9323 7.83252 47.0573 7.83252 41.849 9.95752L18.6406 19.4575C15.474 20.7492 12.8906 24.6242 12.8906 28.0409V46.3325C12.8906 66.7075 27.6823 85.7909 47.8906 91.3742C49.2656 91.7492 50.7656 91.7492 52.1406 91.3742C72.349 85.7909 87.1406 66.7075 87.1406 46.3325ZM53.1406 53.6242V64.5825C53.1406 66.2909 51.724 67.7075 50.0156 67.7075C48.3073 67.7075 46.8906 66.2909 46.8906 64.5825V53.6242C42.6823 52.2909 39.599 48.3742 39.599 43.7492C39.599 37.9992 44.2656 33.3325 50.0156 33.3325C55.7656 33.3325 60.4323 37.9992 60.4323 43.7492C60.4323 48.4159 57.349 52.2909 53.1406 53.6242Z" fill="white"/>
</svg>
