<svg width="40" height="40" viewBox="0 0 40 40" fill="none" xmlns="http://www.w3.org/2000/svg">
<path d="M32.5172 9.75016L22.6172 4.0335C21.0005 3.10016 19.0005 3.10016 17.3672 4.0335L7.48385 9.75016C5.86719 10.6835 4.86719 12.4168 4.86719 14.3002V25.7002C4.86719 27.5668 5.86719 29.3002 7.48385 30.2502L17.3839 35.9668C19.0005 36.9002 21.0005 36.9002 22.6339 35.9668L32.5339 30.2502C34.1505 29.3168 35.1505 27.5835 35.1505 25.7002V14.3002C35.1339 12.4168 34.1339 10.7002 32.5172 9.75016ZM20.0005 12.2335C22.1505 12.2335 23.8839 13.9668 23.8839 16.1168C23.8839 18.2668 22.1505 20.0002 20.0005 20.0002C17.8505 20.0002 16.1172 18.2668 16.1172 16.1168C16.1172 13.9835 17.8505 12.2335 20.0005 12.2335ZM24.4672 27.7668H15.5339C14.1839 27.7668 13.4005 26.2668 14.1505 25.1502C15.2839 23.4668 17.4839 22.3335 20.0005 22.3335C22.5172 22.3335 24.7172 23.4668 25.8505 25.1502C26.6005 26.2502 25.8005 27.7668 24.4672 27.7668Z" fill="#508BFF"/>
</svg>
