<svg width="36" height="36" viewBox="0 0 36 36" fill="none" xmlns="http://www.w3.org/2000/svg">
<path d="M18.0179 11.6483C19.5327 10.1341 22.0073 10.1191 23.537 11.6483L25.0968 13.2073C25.4417 13.5521 26.0266 13.5521 26.3716 13.2073L35.2951 4.28752C34.0953 1.75398 31.5007 0 28.5162 0H15.0034C10.8641 0 7.50464 3.35805 7.50464 7.49566V16.4904C7.50464 18.0945 8.01455 19.5787 8.86941 20.793L18.0179 11.6483ZM14.2535 4.49739C15.4983 4.49739 16.5032 5.50181 16.5032 6.74609C16.5032 7.99037 15.4983 8.99479 14.2535 8.99479C13.0087 8.99479 12.0039 7.99037 12.0039 6.74609C12.0039 5.50181 13.0087 4.49739 14.2535 4.49739ZM18.4978 35.7093L5.49496 32.0964C1.50561 30.987 -0.834007 26.8494 0.275812 22.8618L2.69042 14.1968C3.03536 12.9675 3.66526 11.8881 4.50512 11.0186V16.5054C4.50512 22.3071 9.19936 26.9994 15.0034 26.9994H28.7112L27.7363 30.5073C26.6265 34.495 22.4872 36.8337 18.4978 35.7243V35.7093ZM36 7.81047V16.4904C36 20.628 32.6405 23.9861 28.5012 23.9861H15.0034C13.5487 23.9861 12.1989 23.5663 11.0441 22.8618L20.1326 13.777C20.4775 13.4322 21.0624 13.4322 21.4074 13.777L22.9671 15.3361C24.4369 16.8053 27.0015 16.8053 28.4712 15.3361L36 7.81047Z" fill="white"/>
</svg>
