<svg width="32" height="32" viewBox="0 0 32 32" fill="none" xmlns="http://www.w3.org/2000/svg">
<path d="M27.9574 13.8267V18.08C27.9574 21.1733 25.4507 23.68 22.3574 23.68H17.6107C16.8774 23.68 16.2774 24.2667 16.2774 25.0133V26.1067C16.2774 26.84 16.8774 27.44 17.6107 27.44H20.6241C21.1441 27.44 21.5707 27.8533 21.5707 28.3867C21.5707 28.9067 21.1441 29.3333 20.6241 29.3333H10.0374C9.5174 29.3333 9.09073 28.9067 9.09073 28.3867C9.09073 27.8533 9.5174 27.44 10.0374 27.44H13.0507C13.7841 27.44 14.3841 26.84 14.3841 26.1067V25.0133C14.3841 24.2667 13.7841 23.68 13.0507 23.68H8.25073C5.17073 23.68 2.66406 21.1733 2.66406 18.08V9.58667C2.66406 6.50667 5.17073 4 8.25073 4H13.9974C14.7307 4 15.3307 4.6 15.3307 5.33333V8.2C15.3307 10.7733 17.0507 12.4933 19.6107 12.4933H26.6241C27.3574 12.4933 27.9574 13.0933 27.9574 13.8267Z" fill="#0A7EFB"/>
<path d="M29.3226 3.14665L27.8159 4.19998V3.63998C27.8159 2.37331 26.7893 1.35998 25.5359 1.35998H19.8293C18.4559 1.34665 17.3359 2.46665 17.3359 3.83998V8.21331C17.3359 9.35998 17.9093 10.4933 19.6159 10.4933H25.5226C26.7893 10.4933 27.8026 9.46665 27.8026 8.21331V7.63998L29.3093 8.69331C30.0693 9.21331 30.6693 8.89331 30.6693 7.98665V3.85331C30.6693 2.94665 30.0693 2.63998 29.3226 3.14665Z" fill="#0A7EFB"/>
</svg>
