<svg width="32" height="32" viewBox="0 0 32 32" fill="none" xmlns="http://www.w3.org/2000/svg">
<path d="M17.2374 6.38672H9.7974C4.33073 6.38672 2.66406 8.05339 2.66406 13.5201V18.4801C2.66406 23.9467 4.33073 25.6134 9.7974 25.6134H17.2374C22.7041 25.6134 24.3707 23.9467 24.3707 18.4801V13.5201C24.3707 8.05339 22.7041 6.38672 17.2374 6.38672Z" fill="#0A7EFB"/>
<path d="M27.2282 11.9998C27.0416 11.9865 26.8016 11.9731 26.5349 11.9731C26.0149 11.9731 25.6016 12.3865 25.6016 12.9065V19.1065C25.6016 19.6265 26.0149 20.0398 26.5349 20.0398C26.8016 20.0398 27.0282 20.0265 27.2549 20.0131C29.3349 19.7731 29.3349 18.3065 29.3349 17.2398V14.7598C29.3349 13.6931 29.3349 12.2265 27.2282 11.9998Z" fill="#0A7EFB"/>
</svg>
