<svg width="32" height="32" viewBox="0 0 32 32" fill="none" xmlns="http://www.w3.org/2000/svg">
<path d="M25.4906 19.9199L25.9173 20.7866C26.1306 21.2133 26.6773 21.6133 27.1306 21.6933L27.7039 21.7866C29.4506 22.0799 29.8506 23.3599 28.6106 24.6133L28.0773 25.1466C27.7173 25.5066 27.5306 26.1999 27.6373 26.7066L27.7039 27.0266C28.1839 29.1333 27.0639 29.9466 25.2373 28.8399L24.8506 28.5999C24.3839 28.3199 23.6106 28.3199 23.1439 28.5999L22.7573 28.8399C20.9173 29.9466 19.8106 29.1333 20.2906 27.0266L20.3573 26.7066C20.4639 26.2133 20.2773 25.5066 19.9173 25.1466L19.3839 24.6133C18.1439 23.3466 18.5439 22.0799 20.2906 21.7866L20.8639 21.6933C21.3306 21.6133 21.8639 21.2133 22.0773 20.7866L22.5039 19.9199C23.3306 18.2533 24.6639 18.2533 25.4906 19.9199Z" fill="#0A7EFB"/>
<path d="M21.5841 2.6665H10.4107C5.5574 2.6665 2.66406 5.55984 2.66406 10.4132V21.5865C2.66406 26.4398 5.5574 29.3332 10.4107 29.3332H17.4507C17.9174 29.3332 18.2507 28.8532 18.1974 28.3865C18.1441 27.8798 18.1707 27.2798 18.3307 26.5865C18.3574 26.4932 18.3307 26.3865 18.2507 26.3065L17.9574 26.0132C16.8241 24.8665 16.4107 23.4798 16.8107 22.2132C17.2241 20.9598 18.3707 20.0798 19.9574 19.8132L20.3574 19.7465L20.7174 19.0265C21.4507 17.5332 22.6507 16.6665 23.9974 16.6665C25.3441 16.6665 26.5441 17.5332 27.2774 19.0265L27.4774 19.4398C27.5707 19.6398 27.7574 19.7732 27.9707 19.8132C28.0907 19.8398 28.2107 19.8665 28.3307 19.8932C28.7974 20.0132 29.3307 19.6398 29.3307 19.1465V10.4132C29.3307 5.55984 26.4374 2.6665 21.5841 2.6665ZM21.6774 11.9465L18.5974 15.9198C18.2107 16.4132 17.6641 16.7332 17.0374 16.7998C16.4241 16.8798 15.7974 16.7065 15.3174 16.3198L12.8774 14.4265C12.7841 14.3465 12.6774 14.3465 12.6241 14.3598C12.5707 14.3598 12.4774 14.3865 12.3974 14.4932L9.22406 18.6132C9.02406 18.8665 8.73073 18.9998 8.42406 18.9998C8.21073 18.9998 7.9974 18.9332 7.81073 18.7865C7.37073 18.4532 7.29073 17.8265 7.62406 17.3865L10.7974 13.2665C11.1841 12.7732 11.7307 12.4532 12.3574 12.3732C12.9841 12.2932 13.5974 12.4665 14.0907 12.8532L16.5307 14.7732C16.6241 14.8532 16.7174 14.8398 16.7841 14.8398C16.8374 14.8398 16.9307 14.8132 17.0107 14.7065L20.0907 10.7332C20.4241 10.2932 21.0507 10.2132 21.4907 10.5598C21.9441 10.8932 22.0107 11.5198 21.6774 11.9465Z" fill="#0A7EFB"/>
</svg>
