<svg width="36" height="36" viewBox="0 0 36 36" fill="none" xmlns="http://www.w3.org/2000/svg">
<path d="M0 13.9844V22.0229C0 23.1282 0.9 24.0326 2 24.0326H8L14.58 30.6443C15.84 31.9104 18 31.006 18 29.2175V6.76973C18 4.98115 15.84 4.07681 14.58 5.34289L8 11.9747H2C0.9 11.9747 0 12.8791 0 13.9844ZM27 18.0036C27 14.4466 24.96 11.3919 22 9.90478V26.0824C24.96 24.6154 27 21.5607 27 18.0036ZM22 2.83083V3.23276C22 3.99642 22.5 4.65961 23.2 4.94096C28.36 7.01089 32 12.0953 32 18.0036C32 23.912 28.36 28.9964 23.2 31.0663C22.48 31.3477 22 32.0109 22 32.7745V33.1765C22 34.4425 23.26 35.3268 24.42 34.8847C31.2 32.2922 36 25.7207 36 18.0036C36 10.2866 31.2 3.71507 24.42 1.12263C23.26 0.660415 22 1.56476 22 2.83083Z" fill="white"/>
</svg>
