<svg width="32" height="32" viewBox="0 0 32 32" fill="none" xmlns="http://www.w3.org/2000/svg">
<path d="M3.66642 24.8662C3.11976 24.8662 2.66642 24.4129 2.66642 23.8662V16.2662C2.59976 12.6529 3.94642 9.23958 6.45309 6.67958C8.95976 4.13291 12.3198 2.73291 15.9331 2.73291C23.3198 2.73291 29.3331 8.74624 29.3331 16.1329V23.7329C29.3331 24.2796 28.8798 24.7329 28.3331 24.7329C27.7864 24.7329 27.3331 24.2796 27.3331 23.7329V16.1329C27.3331 9.85291 22.2264 4.73291 15.9331 4.73291C12.8531 4.73291 9.99976 5.91958 7.87976 8.07958C5.74642 10.2529 4.61309 13.1462 4.66642 16.2396V23.8529C4.66642 24.4129 4.22642 24.8662 3.66642 24.8662Z" fill="#0A7EFB"/>
<path d="M7.9174 16.6001H7.74406C4.94406 16.6001 2.66406 18.8801 2.66406 21.6801V24.1868C2.66406 26.9868 4.94406 29.2668 7.74406 29.2668H7.9174C10.7174 29.2668 12.9974 26.9868 12.9974 24.1868V21.6801C12.9974 18.8801 10.7174 16.6001 7.9174 16.6001Z" fill="#0A7EFB"/>
<path d="M24.2533 16.6001H24.08C21.28 16.6001 19 18.8801 19 21.6801V24.1868C19 26.9868 21.28 29.2668 24.08 29.2668H24.2533C27.0533 29.2668 29.3333 26.9868 29.3333 24.1868V21.6801C29.3333 18.8801 27.0533 16.6001 24.2533 16.6001Z" fill="#0A7EFB"/>
</svg>
