<svg width="37" height="36" viewBox="0 0 37 36" fill="none" xmlns="http://www.w3.org/2000/svg">
<path d="M36.9231 12H0V10.5C0 6.3645 3.45077 3 7.69231 3H9.23077V1.5C9.23077 0.672 9.91846 0 10.7692 0C11.62 0 12.3077 0.672 12.3077 1.5V3H24.6154V1.5C24.6154 0.672 25.3031 0 26.1538 0C27.0046 0 27.6923 0.672 27.6923 1.5V3H29.2308C33.4723 3 36.9231 6.3645 36.9231 10.5V12ZM15.3846 33.8175C15.3846 32.4795 15.6723 31.188 16.2077 30H9.23077C8.38 30 7.69231 29.328 7.69231 28.5C7.69231 27.672 8.38 27 9.23077 27C9.23077 27 15.4185 27 18.3385 27.0015L21.4169 24H9.23077C8.38 24 7.69231 23.328 7.69231 22.5C7.69231 21.672 8.38 21 9.23077 21H24.4954L28.7123 16.8885C29.9615 15.6705 31.6215 15 33.3877 15H0V28.5C0 32.6355 3.45077 36 7.69231 36H15.3846V33.8175ZM30.8877 19.0095C32.2677 17.664 34.5077 17.664 35.8877 19.0095C37.2677 20.355 37.2677 22.539 35.8877 23.8845L25.4154 34.095C24.1646 35.3145 22.4692 36 20.7 36H18.4615V33.8175C18.4615 32.0925 19.1646 30.4395 20.4154 29.22L30.8877 19.0095Z" fill="white"/>
</svg>
