<svg width="36" height="36" viewBox="0 0 36 36" fill="none" xmlns="http://www.w3.org/2000/svg">
<path d="M25.1244 13.6802L22.3494 10.9052C21.2994 9.85521 19.8594 9.91521 19.1544 11.0252L17.6094 13.4702L22.5444 18.4052L24.9894 16.8602C26.0544 16.2002 26.1144 14.6552 25.1244 13.6802Z" stroke="#212534" stroke-width="2.25" stroke-linecap="round" stroke-linejoin="round"/>
<path d="M17.6112 13.4705L14.0262 13.2605C12.0162 13.1405 11.3262 13.7555 11.1012 15.6605L10.2012 23.2655C10.0062 24.8705 11.1612 26.0105 12.7662 25.8305L20.3712 24.9305C22.2762 24.7055 22.9662 24.0155 22.7712 22.0055L22.5612 18.4205" stroke="#212534" stroke-width="2.25" stroke-linecap="round" stroke-linejoin="round"/>
<path d="M11.2422 24.7801L14.0172 22.0051" stroke="#212534" stroke-width="2.25" stroke-linecap="round" stroke-linejoin="round"/>
<path d="M13.4922 32.9998H22.4922C29.9922 32.9998 32.9922 29.9998 32.9922 22.4998V13.4998C32.9922 5.99976 29.9922 2.99976 22.4922 2.99976H13.4922C5.99219 2.99976 2.99219 5.99976 2.99219 13.4998V22.4998C2.99219 29.9998 5.99219 32.9998 13.4922 32.9998Z" stroke="#212534" stroke-width="2.25" stroke-linecap="round" stroke-linejoin="round"/>
</svg>
