<svg width="32" height="32" viewBox="0 0 32 32" fill="none" xmlns="http://www.w3.org/2000/svg">
<path d="M22.4389 20.8535C23.3322 20.2669 24.5055 20.9069 24.5055 21.9735V23.6935C24.5055 25.3869 23.1855 27.2002 21.5989 27.7335L17.3455 29.1469C16.5989 29.4002 15.3855 29.4002 14.6522 29.1469L10.3989 27.7335C8.79885 27.2002 7.49219 25.3869 7.49219 23.6935V21.9602C7.49219 20.9069 8.66552 20.2669 9.54552 20.8402L12.2922 22.6269C13.3455 23.3335 14.6789 23.6802 16.0122 23.6802C17.3455 23.6802 18.6789 23.3335 19.7322 22.6269L22.4389 20.8535Z" fill="#FF6666"/>
<path d="M26.642 8.61357L18.6553 3.37357C17.2153 2.42691 14.842 2.42691 13.402 3.37357L5.37531 8.61357C2.80198 10.2802 2.80198 14.0536 5.37531 15.7336L7.50865 17.1202L13.402 20.9602C14.842 21.9069 17.2153 21.9069 18.6553 20.9602L24.5086 17.1202L26.3353 15.9202V20.0002C26.3353 20.5469 26.7886 21.0002 27.3353 21.0002C27.882 21.0002 28.3353 20.5469 28.3353 20.0002V13.4402C28.8686 11.7202 28.322 9.72024 26.642 8.61357Z" fill="#FF6666"/>
</svg>
