<svg xmlns="http://www.w3.org/2000/svg" width="26.749" height="32.099" viewBox="0 0 26.749 32.099">
  <path id="file" d="M26.006,7.4l-4.66-4.662A9.306,9.306,0,0,0,14.726,0H8.687A6.7,6.7,0,0,0,2,6.687V25.412A6.7,6.7,0,0,0,8.687,32.1H22.062a6.7,6.7,0,0,0,6.687-6.687V14.023A9.3,9.3,0,0,0,26.006,7.4ZM24.115,9.3a6.665,6.665,0,0,1,1.045,1.4H19.387A1.337,1.337,0,0,1,18.05,9.362V3.59a6.7,6.7,0,0,1,1.406,1.043Zm1.959,16.117a4.012,4.012,0,0,1-4.012,4.012H8.687a4.012,4.012,0,0,1-4.012-4.012V6.687A4.012,4.012,0,0,1,8.687,2.675h6.039c.219,0,.432.043.649.063V9.362a4.012,4.012,0,0,0,4.012,4.012h6.624c.02.217.063.428.063.649Z" transform="translate(-2)" fill="#fff"/>
</svg>
