<svg xmlns="http://www.w3.org/2000/svg" width="32" height="30.726" viewBox="0 0 32 30.726">
  <path id="head-vr" d="M28,6.4H26.969c-.213-.3-.405-.552-.569-.744A14.829,14.829,0,0,0,12.6.136,14.4,14.4,0,0,0,.061,12.779a13.659,13.659,0,0,0,2.953,9.846A4.837,4.837,0,0,1,4,25.64v1.243a3.927,3.927,0,0,0,4,3.841h9.333a3.927,3.927,0,0,0,4-3.841h.659A6.6,6.6,0,0,0,28.6,21.321l.092-.671a1.29,1.29,0,0,0-1.147-1.436,1.322,1.322,0,0,0-1.5,1.1l-.092.67a3.963,3.963,0,0,1-3.967,3.337H20a1.306,1.306,0,0,0-1.333,1.28v1.28a1.308,1.308,0,0,1-1.333,1.28H8a1.308,1.308,0,0,1-1.333-1.28V25.639a7.342,7.342,0,0,0-1.535-4.571,11.187,11.187,0,0,1-2.415-8.06c.007-.069.015-.138.021-.207H13.5a5.307,5.307,0,0,0,5.165,3.841H28A3.927,3.927,0,0,0,32,12.8v-2.56A3.927,3.927,0,0,0,28,6.4ZM12.967,2.674A12.171,12.171,0,0,1,23.589,6.4H18.667A5.307,5.307,0,0,0,13.5,10.242H3.351a11.934,11.934,0,0,1,9.615-7.568ZM29.333,12.8A1.308,1.308,0,0,1,28,14.083H18.667a2.562,2.562,0,1,1,0-5.121H28a1.308,1.308,0,0,1,1.333,1.28Z" transform="translate(0 0.002)" fill="#fff"/>
</svg>
