<svg width="427" height="340" viewBox="0 0 427 340" fill="none" xmlns="http://www.w3.org/2000/svg">
<path d="M418.622 35H257.378C252.746 35 249 38.7527 249 43.3777V130.677C249 135.309 252.753 139.055 257.378 139.055H418.622C423.254 139.055 427 135.302 427 130.677V43.3777C427.007 38.7527 423.254 35 418.622 35Z" fill="url(#paint0_linear_781_3)"/>
<mask id="mask0_781_3" style="mask-type:luminance" maskUnits="userSpaceOnUse" x="262" y="72" width="152" height="54">
<path d="M413.642 75.9763C405.311 74.5157 397.556 80.3037 391.443 86.1525C385.324 91.9946 378.86 98.6413 370.442 99.4797C360.955 100.426 352.584 93.6782 345.701 87.0856C338.818 80.493 331.278 73.1972 321.765 72.636C314.253 72.1897 307.173 76.1588 301.29 80.8514C295.408 85.544 290.168 91.1223 283.636 94.8615C277.111 98.6074 268.314 101.549 262.141 98.9861V125.924H413.642V75.9763Z" fill="white"/>
</mask>
<g mask="url(#mask0_781_3)">
<path d="M413.642 72.1964H262.141V124.951H413.642V72.1964Z" fill="white"/>
</g>
<mask id="mask1_781_3" style="mask-type:luminance" maskUnits="userSpaceOnUse" x="262" y="72" width="152" height="54">
<path d="M413.642 75.9763C405.311 74.5157 397.556 80.3037 391.443 86.1525C385.324 91.9946 378.86 98.6413 370.442 99.4797C360.955 100.426 352.584 93.6782 345.701 87.0856C338.818 80.493 331.278 73.1972 321.765 72.636C314.253 72.1897 307.173 76.1588 301.29 80.8514C295.408 85.544 290.168 91.1223 283.636 94.8615C277.111 98.6074 268.314 101.549 262.141 98.9861V125.924H413.642V75.9763Z" fill="white"/>
</mask>
<g mask="url(#mask1_781_3)">
<path d="M413.642 124.951H262.141V125.938H413.642V124.951Z" fill="white"/>
</g>
<path d="M263.188 99.2059C268.167 101.16 273.972 99.8725 278.783 98.0557C284.313 95.9643 289.13 92.7685 293.632 89.0564C302.313 81.9001 312.197 71.8159 324.775 73.9987C330.244 74.9464 334.987 78.0442 339.16 81.4687C343.514 85.0502 347.377 89.1609 351.845 92.6182C356.159 95.9513 361.091 98.8922 366.647 99.6111C372.076 100.31 377.236 98.5393 381.678 95.5787C386.287 92.5071 390.043 88.4878 394.189 84.8868C398.482 81.1616 403.629 77.4952 409.515 76.8482C410.912 76.6913 412.337 76.7305 413.721 76.9527C414.466 77.0769 414.789 75.9594 414.036 75.8417C402.036 73.8942 393.463 84.4162 385.447 91.2392C381.389 94.6899 376.679 97.8988 371.183 98.5132C365.398 99.1602 359.928 96.8205 355.272 93.6769C346.134 87.514 339.523 77.6978 328.779 73.8615C323.37 71.9335 317.632 72.3061 312.351 74.4235C306.862 76.6194 302.212 80.2466 297.778 84.0045C293.182 87.9061 288.667 91.945 283.251 94.7683C278.407 97.2976 272.669 99.4216 267.072 98.9249C265.842 98.8138 264.64 98.5327 263.497 98.0818C262.792 97.8138 262.483 98.9314 263.188 99.2059Z" fill="url(#paint1_linear_781_3)"/>
<path d="M413.828 49.8761C399.744 46.6034 384.205 50.3223 373.13 59.6196C366.321 65.3332 361.277 72.8521 354.853 78.9917C348.43 85.1312 339.734 90.0199 330.991 88.4309C319.219 86.2875 311.085 73.1902 299.124 72.9873C292.578 72.8792 286.736 76.7468 281.104 80.0803C275.471 83.4138 268.811 86.4159 262.57 84.4551V125.938H413.646L413.828 49.8761Z" fill="white"/>
<path d="M262.419 85.029C268.41 86.8479 274.563 84.4272 279.789 81.5265C285.003 78.6393 290 74.8933 295.99 73.8318C306.227 72.0196 313.997 80.5596 321.989 85.3874C326.303 87.9906 331.063 89.7013 336.168 89.2483C341.915 88.7344 347.223 85.9824 351.72 82.4866C361.308 75.0421 367.271 63.8719 377.482 57.1102C386.846 50.9031 398.503 48.1984 409.647 49.713C410.999 49.8956 412.344 50.1458 413.67 50.4568C414.42 50.6258 414.738 49.4763 413.988 49.3073C403.155 46.8258 391.58 48.3336 381.667 53.3169C376.461 55.9337 371.944 59.5309 367.934 63.7299C363.708 68.152 359.976 73.0271 355.662 77.3749C351.483 81.5806 346.554 85.2995 340.833 87.1048C338.061 87.9771 335.133 88.3557 332.233 88.0244C329.805 87.7472 327.466 86.9358 325.282 85.8539C316.951 81.7294 310.23 73.4666 300.541 72.4794C287.897 71.1947 279.465 84.123 267.186 84.4746C265.671 84.5151 264.184 84.319 262.737 83.8795C262 83.6496 261.682 84.8059 262.419 85.029Z" fill="url(#paint2_linear_781_3)"/>
<path d="M297.83 52.2422H264.13C263.765 52.2422 263.461 51.9447 263.461 51.5728V50.1394C263.461 49.7742 263.758 49.47 264.13 49.47H297.83C298.195 49.47 298.5 49.7675 298.5 50.1394V51.5728C298.5 51.9447 298.202 52.2422 297.83 52.2422ZM311.354 58.1587H264.13C263.765 58.1587 263.461 57.8611 263.461 57.4893V56.0558C263.461 55.6907 263.758 55.3864 264.13 55.3864H311.354C311.719 55.3864 312.023 55.6839 312.023 56.0558V57.4893C312.023 57.8611 311.725 58.1587 311.354 58.1587ZM311.354 64.0751H264.13C263.765 64.0751 263.461 63.7776 263.461 63.4057V61.9722C263.461 61.6071 263.758 61.3028 264.13 61.3028H311.354C311.719 61.3028 312.023 61.6003 312.023 61.9722V63.4057C312.023 63.7776 311.725 64.0751 311.354 64.0751Z" fill="white"/>
<path d="M0.394592 29.1217C0.28994 29.1217 0.189555 29.0801 0.115555 29.0061C0.0415546 28.9321 0 28.8317 0 28.7271V17.8648C0 8.01495 8.01337 0 17.864 0H29.124C29.2287 0 29.3291 0.0415667 29.4031 0.115567C29.4771 0.189567 29.5186 0.28994 29.5186 0.394592C29.5186 0.499244 29.4771 0.599605 29.4031 0.673605C29.3291 0.747606 29.2287 0.789184 29.124 0.789184H17.864C8.449 0.789184 0.789184 8.449 0.789184 17.8648V28.7271C0.789184 28.8317 0.747606 28.9321 0.673605 29.0061C0.599605 29.0801 0.499244 29.1217 0.394592 29.1217ZM28.9252 162.42H18.0636C8.21302 162.42 0.198862 154.406 0.198862 144.556V133.296C0.198862 133.191 0.24044 133.091 0.314441 133.017C0.388441 132.943 0.488801 132.901 0.593454 132.901C0.698106 132.901 0.798466 132.943 0.872467 133.017C0.946467 133.091 0.988046 133.191 0.988046 133.296V144.556C0.988046 153.971 8.64786 161.631 18.0636 161.631H28.9252C29.0298 161.631 29.1302 161.673 29.2042 161.747C29.2782 161.821 29.3198 161.921 29.3198 162.026C29.3198 162.13 29.2782 162.231 29.2042 162.305C29.1302 162.379 29.0298 162.42 28.9252 162.42ZM220.605 29.1217C220.501 29.1217 220.4 29.0801 220.326 29.0061C220.252 28.9321 220.211 28.8317 220.211 28.7271V17.8648C220.211 8.44979 212.551 0.789184 203.136 0.789184H191.876C191.771 0.789184 191.671 0.747606 191.597 0.673605C191.523 0.599605 191.481 0.499244 191.481 0.394592C191.481 0.28994 191.523 0.189567 191.597 0.115567C191.671 0.0415667 191.771 0 191.876 0H203.136C212.987 0 221 8.01495 221 17.8648V28.7271C221 28.8317 220.958 28.9321 220.884 29.0061C220.81 29.0801 220.71 29.1217 220.605 29.1217ZM202.936 162.42H192.076C191.971 162.42 191.871 162.379 191.797 162.305C191.723 162.231 191.681 162.13 191.681 162.026C191.681 161.921 191.723 161.821 191.797 161.747C191.871 161.673 191.971 161.631 192.076 161.631H202.937C212.352 161.631 220.013 153.971 220.013 144.556V133.296C220.013 133.191 220.054 133.091 220.128 133.017C220.202 132.943 220.303 132.901 220.407 132.901C220.512 132.901 220.612 132.943 220.686 133.017C220.76 133.091 220.802 133.191 220.802 133.296V144.556C220.802 154.406 212.788 162.42 202.937 162.42H202.936Z" fill="url(#paint3_linear_781_3)"/>
<path d="M18.4813 153.114C13.7588 153.114 9.92969 149.286 9.92969 144.563V17.8625C9.92969 13.14 13.7588 9.31091 18.4813 9.31091H202.515C207.238 9.31091 211.067 13.14 211.067 17.8625V144.55C211.067 149.281 207.233 153.114 202.503 153.114H18.4813Z" fill="url(#paint4_linear_781_3)"/>
<path d="M9.92969 122.822V144.563C9.92969 149.286 13.7588 153.114 18.4813 153.114H202.503C207.233 153.114 211.067 149.28 211.067 144.55V122.823H9.92969V122.822Z" fill="url(#paint5_linear_781_3)"/>
<path d="M135.939 84.7369C144.623 70.6852 140.273 52.2537 126.221 43.5691C112.169 34.8845 93.7376 39.2354 85.053 53.2871C76.3684 67.3388 80.7193 85.7703 94.771 94.4549C108.823 103.139 127.254 98.7886 135.939 84.7369Z" fill="url(#paint6_linear_781_3)"/>
<path d="M121.032 71.6044L108.775 80.8876C106.636 82.507 103.569 80.9823 103.569 78.3007V59.7296C103.569 57.0479 106.638 55.5232 108.775 57.1426L121.033 66.4298C122.747 67.7288 122.747 70.3062 121.032 71.6044ZM30.7885 139.805L25.1956 144.163C23.6669 145.354 21.4375 144.264 21.4375 142.326V133.611C21.4375 131.674 23.6669 130.584 25.1956 131.776L30.7885 136.133C31.0678 136.351 31.2937 136.629 31.4491 136.947C31.6045 137.265 31.6852 137.615 31.6852 137.969C31.6852 138.323 31.6045 138.672 31.4491 138.991C31.2937 139.309 31.0678 139.587 30.7885 139.805ZM195.727 137.969C195.727 138.533 195.503 139.074 195.104 139.473C194.705 139.872 194.164 140.096 193.6 140.096H46.9708C46.4137 140.085 45.883 139.857 45.4929 139.459C45.1027 139.061 44.8841 138.526 44.8841 137.969C44.8841 137.412 45.1027 136.877 45.4929 136.479C45.883 136.081 46.4137 135.852 46.9708 135.842H193.6C194.165 135.842 194.706 136.066 195.105 136.465C195.504 136.864 195.727 137.405 195.727 137.969Z" fill="white"/>
<path d="M126.899 135.493V141.075C126.883 141.757 126.6 142.405 126.112 142.881C125.624 143.357 124.97 143.623 124.288 143.623C123.606 143.623 122.952 143.357 122.464 142.881C121.976 142.405 121.693 141.757 121.677 141.075V135.493C121.668 135.144 121.729 134.798 121.857 134.474C121.984 134.149 122.175 133.854 122.418 133.604C122.662 133.355 122.952 133.157 123.274 133.021C123.595 132.886 123.94 132.816 124.288 132.816C124.636 132.816 124.981 132.886 125.302 133.021C125.624 133.157 125.914 133.355 126.158 133.604C126.401 133.854 126.592 134.149 126.719 134.474C126.847 134.798 126.908 135.144 126.899 135.493Z" fill="url(#paint7_linear_781_3)"/>
<path d="M160.469 198.781V250.089C160.469 253.831 157.43 256.87 153.687 256.87H87.7817C84.0392 256.87 81 253.831 81 250.089V198.781C81 195.039 84.0392 192 87.7817 192H153.687C157.43 192 160.469 195.039 160.469 198.781Z" fill="url(#paint8_linear_781_3)"/>
<path d="M160.469 281.348V332.642C160.469 336.385 157.43 339.424 153.687 339.424H87.7817C84.0392 339.424 81 336.385 81 332.642V281.348C81 277.593 84.0392 274.553 87.7817 274.553H153.687C157.43 274.553 160.469 277.593 160.469 281.348Z" fill="url(#paint9_linear_781_3)"/>
<path d="M262 237.018V288.312C262 292.054 258.961 295.094 255.219 295.094H189.313C185.57 295.094 182.531 292.054 182.531 288.312V237.018C182.531 233.262 185.57 230.223 189.313 230.223H255.219C258.961 230.223 262 233.262 262 237.018Z" fill="url(#paint10_linear_781_3)"/>
<path d="M115.258 228.256L105.812 240.336H94.7109L109.702 221.152L115.258 228.256Z" fill="white"/>
<path d="M146.755 240.337H108.957L127.853 216.179L146.755 240.337Z" fill="white"/>
<path d="M119.508 213.615C119.508 215.682 117.828 217.361 115.762 217.361C113.695 217.361 112.016 215.682 112.016 213.615C112.016 211.549 113.695 209.879 115.762 209.879C117.828 209.879 119.508 211.549 119.508 213.615Z" fill="white"/>
<path d="M130.771 309.533L113.799 319.812C111.832 321.007 109.295 319.591 109.295 317.275L109.258 296.718C109.258 294.402 111.795 292.967 113.781 294.162L130.771 304.441C132.683 305.599 132.683 308.375 130.771 309.533Z" fill="white"/>
<path d="M236.015 246.264V256.035H234.638L231.505 250.368H225.18V275.199H229.533V279.053H215.347V275.199H219.605V250.368H213.279L210.148 256.035H208.52V246.264H236.015Z" fill="white"/>
<defs>
<linearGradient id="paint0_linear_781_3" x1="338" y1="35" x2="338" y2="139.055" gradientUnits="userSpaceOnUse">
<stop stop-color="#FEF8FF"/>
<stop offset="1" stop-color="#984AFC"/>
</linearGradient>
<linearGradient id="paint1_linear_781_3" x1="268.566" y1="96.5446" x2="411.591" y2="49.9893" gradientUnits="userSpaceOnUse">
<stop stop-color="#FC9E46"/>
<stop offset="1" stop-color="#FF817B" stop-opacity="0.07"/>
</linearGradient>
<linearGradient id="paint2_linear_781_3" x1="267.805" y1="83.8872" x2="419.481" y2="50.6689" gradientUnits="userSpaceOnUse">
<stop stop-color="#FC9E46"/>
<stop offset="1" stop-color="#FF817B" stop-opacity="0.07"/>
</linearGradient>
<linearGradient id="paint3_linear_781_3" x1="114.43" y1="-7.55887" x2="102.942" y2="168.343" gradientUnits="userSpaceOnUse">
<stop stop-color="#ACBEFF"/>
<stop offset="1" stop-color="#235EDE"/>
</linearGradient>
<linearGradient id="paint4_linear_781_3" x1="111.231" y1="20.1859" x2="109.652" y2="151.742" gradientUnits="userSpaceOnUse">
<stop stop-color="white"/>
<stop offset="0.0001" stop-color="white"/>
</linearGradient>
<linearGradient id="paint5_linear_781_3" x1="113.316" y1="115.204" x2="111.251" y2="172.752" gradientUnits="userSpaceOnUse">
<stop stop-color="#E0E7FF"/>
<stop offset="1" stop-color="#235EDE"/>
</linearGradient>
<linearGradient id="paint6_linear_781_3" x1="72.6969" y1="44.6654" x2="150.802" y2="123.1" gradientUnits="userSpaceOnUse">
<stop stop-color="#E0E7FF"/>
<stop offset="1" stop-color="#235EDE"/>
</linearGradient>
<linearGradient id="paint7_linear_781_3" x1="121.677" y1="138.284" x2="126.899" y2="138.284" gradientUnits="userSpaceOnUse">
<stop stop-color="#E7ECFF"/>
<stop offset="1" stop-color="#C2D5FF"/>
</linearGradient>
<linearGradient id="paint8_linear_781_3" x1="116" y1="187" x2="117" y2="257" gradientUnits="userSpaceOnUse">
<stop stop-color="#FFBAE8"/>
<stop offset="1" stop-color="#E3698E"/>
</linearGradient>
<linearGradient id="paint9_linear_781_3" x1="118" y1="275" x2="118" y2="340" gradientUnits="userSpaceOnUse">
<stop stop-color="#9EE2FF"/>
<stop offset="1" stop-color="#00A2FD"/>
</linearGradient>
<linearGradient id="paint10_linear_781_3" x1="222" y1="230" x2="222" y2="295" gradientUnits="userSpaceOnUse">
<stop stop-color="#B3FFED"/>
<stop offset="1" stop-color="#0CCEB7"/>
</linearGradient>
</defs>
</svg>
