<svg width="427" height="387" viewBox="0 0 427 387" fill="none" xmlns="http://www.w3.org/2000/svg">
<path d="M343.831 89.9653L304.988 97.313L343.831 104.663L382.676 97.313L343.831 89.9653Z" fill="#B5B3FF"/>
<path d="M304.988 148.589L343.831 155.939V104.663L304.988 97.313V148.589Z" fill="url(#paint0_linear_781_2)"/>
<path d="M382.677 148.589L343.832 155.939V104.663L382.677 97.313V148.589Z" fill="url(#paint1_linear_781_2)"/>
<path d="M387.823 23.569L348.98 30.9167L387.823 38.2662L426.666 30.9167L387.823 23.569Z" fill="#E3BFFF"/>
<path d="M348.98 82.1931L387.823 89.5426V38.2662L348.98 30.9166V82.1931Z" fill="url(#paint2_linear_781_2)"/>
<path d="M426.663 82.1931L387.82 89.5426V38.2662L426.663 30.9166V82.1931Z" fill="url(#paint3_linear_781_2)"/>
<path d="M299.843 23.569L261 30.9167L299.843 38.2662L338.686 30.9167L299.843 23.569Z" fill="#FFDA90"/>
<path d="M261 82.193L299.843 89.5426V38.2661L261 30.9166V82.193Z" fill="url(#paint4_linear_781_2)"/>
<path d="M338.683 82.1931L299.84 89.5426V38.2662L338.683 30.9166V82.1931Z" fill="url(#paint5_linear_781_2)"/>
<path d="M281.065 94.7361L267.438 97.3129L281.065 99.8916L294.691 97.3129L281.065 94.7361Z" fill="#B4C9FF"/>
<path d="M267.438 115.301L281.065 117.88V99.8917L267.438 97.313V115.301Z" fill="url(#paint6_linear_781_2)"/>
<path d="M294.688 115.301L281.062 117.88V99.8916L294.688 97.313V115.301Z" fill="url(#paint7_linear_781_2)"/>
<path d="M406.602 94.7361L392.977 97.3129L406.602 99.8916L420.23 97.3129L406.602 94.7361Z" fill="#8DB0FF"/>
<path d="M392.977 115.301L406.602 117.88V99.8917L392.977 97.313V115.301Z" fill="url(#paint8_linear_781_2)"/>
<path d="M420.229 115.301L406.602 117.88V99.8916L420.229 97.313V115.301Z" fill="url(#paint9_linear_781_2)"/>
<path d="M343.833 0L330.207 2.57866L343.833 5.15731L357.461 2.57866L343.833 0Z" fill="#BBE6FF"/>
<path d="M330.207 20.5669L343.833 23.1455V5.15721L330.207 2.57855V20.5669Z" fill="url(#paint10_linear_781_2)"/>
<path d="M357.46 20.5668L343.832 23.1455V5.15715L357.46 2.57849V20.5668Z" fill="url(#paint11_linear_781_2)"/>
<path d="M39.9362 235.577C33.1381 249.679 32.423 270.886 88.9341 283.677C166.049 301.133 194.074 337.384 194.074 337.384L192.876 320.689C192.876 320.689 155.171 269.946 114.389 236.988C82.5071 211.225 46.736 221.476 39.9362 235.577Z" fill="url(#paint12_linear_781_2)"/>
<path d="M158.493 295.05C158.149 294.746 157.794 294.456 157.439 294.167L156.373 293.287L154.247 291.542L152.119 289.796C151.763 289.505 151.412 289.211 151.053 288.925L149.967 288.08L145.625 284.698L144.539 283.851C144.174 283.573 143.8 283.306 143.433 283.033L141.214 281.404L138.995 279.774L137.886 278.96C137.514 278.691 137.133 278.433 136.758 278.171L132.241 275.033C131.863 274.773 131.49 274.506 131.109 274.251L129.96 273.494L127.66 271.98L125.354 270.468C124.973 270.213 124.583 269.972 124.192 269.731L123.021 269.008L120.68 267.558L119.51 266.834C119.119 266.595 118.733 266.347 118.334 266.12L113.579 263.343C112.792 262.871 111.984 262.436 111.181 261.992L108.767 260.668C102.309 257.182 95.7164 253.936 88.9606 251.067C82.215 248.175 75.3115 245.669 68.2832 243.56L65.6382 242.81L64.9773 242.622L64.3115 242.449L62.9816 242.103L61.6504 241.758L60.3122 241.441C59.4212 241.229 58.5303 241.017 57.6313 240.834C56.7323 240.652 55.8398 240.45 54.9374 240.288L53.5882 240.033L52.2348 239.812C50.4265 239.522 48.6067 239.267 46.7852 239.129C48.6043 239.328 50.406 239.647 52.2013 239.997L53.5463 240.262L54.8855 240.556C55.7802 240.744 56.6685 240.963 57.5571 241.177C61.1067 242.049 64.6234 243.041 68.1072 244.152C71.5822 245.284 75.0409 246.463 78.447 247.799C79.298 248.128 80.1533 248.451 81.0026 248.785L83.5385 249.823L84.8072 250.342L85.4406 250.601L86.0668 250.871L88.5768 251.97C90.2591 252.685 91.9059 253.474 93.5623 254.245L94.8033 254.823L95.4257 255.111L96.0404 255.415L98.4968 256.628C99.3146 257.034 100.136 257.434 100.951 257.845L103.378 259.12L105.802 260.395L106.408 260.715L107.007 261.048L108.2 261.717L110.594 263.05C111.393 263.493 112.198 263.932 112.985 264.399L117.71 267.177C118.107 267.403 118.491 267.651 118.88 267.891L120.043 268.615L122.371 270.064L123.533 270.788C123.922 271.029 124.311 271.269 124.69 271.524L126.977 273.032L129.265 274.536L130.411 275.287C130.791 275.539 131.164 275.805 131.54 276.062L136.051 279.182C136.425 279.443 136.805 279.698 137.175 279.965L138.283 280.774L140.497 282.391L142.712 284.009C143.074 284.281 143.451 284.54 143.817 284.82L144.91 285.653L149.264 288.988L150.357 289.822C150.722 290.101 151.07 290.394 151.427 290.68L153.561 292.403L155.696 294.126L156.764 294.988C157.12 295.274 157.477 295.56 157.823 295.859L162.012 299.398C173.151 308.891 183.761 319.01 193.934 329.566C184.138 318.639 173.691 308.317 162.649 298.657L158.493 295.05Z" fill="white"/>
<path d="M118.948 296.883C87.4621 286.234 62.8046 304.026 61.4294 316.637C60.0541 329.247 65.283 345.555 112.139 339.464C176.073 331.151 207.454 350.842 207.454 350.842L201.985 338.498C201.985 338.498 159.219 310.505 118.948 296.883Z" fill="url(#paint13_linear_781_2)"/>
<path d="M168.156 328.683C167.811 328.547 167.461 328.427 167.111 328.304L166.06 327.937L163.958 327.2L161.858 326.462C161.507 326.34 161.158 326.216 160.807 326.097L159.746 325.758L155.509 324.398L154.448 324.058C154.095 323.948 153.737 323.85 153.382 323.745L151.243 323.126L149.103 322.508L148.034 322.198C147.677 322.097 147.316 322.009 146.956 321.909L142.648 320.78C142.288 320.688 141.93 320.589 141.569 320.502L140.483 320.247L138.312 319.739L136.142 319.237C135.781 319.15 135.417 319.077 135.06 319L133.968 318.776L131.785 318.33L130.694 318.106C130.33 318.033 129.966 317.952 129.6 317.891L125.221 317.118C124.49 316.981 123.755 316.876 123.02 316.762L120.815 316.43C114.93 315.586 109.012 314.96 103.07 314.668C97.1287 314.355 91.1732 314.379 85.232 314.74L83.0077 314.908L82.4514 314.95L81.8974 315.005L80.7873 315.113L79.6775 315.223L78.5697 315.356C77.8307 315.444 77.0935 315.532 76.3582 315.644C73.4169 316.069 70.4808 316.58 67.6179 317.377C69.062 317.032 70.5253 316.78 71.99 316.556L73.0892 316.39L74.1913 316.241C74.9246 316.138 75.6621 316.061 76.3984 315.981C79.3458 315.669 82.3001 315.456 85.2614 315.342C88.2203 315.245 91.1838 315.186 94.1398 315.258L96.3584 315.303L98.5779 315.39L99.6863 315.434L100.24 315.455L100.794 315.49L103.013 315.629C104.488 315.708 105.961 315.853 107.435 315.98L108.539 316.075L109.091 316.121L109.644 316.18L111.848 316.422C112.582 316.503 113.318 316.578 114.053 316.665L116.25 316.96L118.448 317.255L118.997 317.329L119.545 317.417L120.638 317.592L122.828 317.94C123.558 318.054 124.29 318.162 125.015 318.302L129.378 319.096C129.742 319.158 130.103 319.239 130.464 319.313L131.543 319.54L133.713 319.993L134.792 320.221C135.154 320.296 135.516 320.369 135.873 320.457L138.031 320.964L140.196 321.463L141.281 321.712C141.64 321.798 141.996 321.895 142.354 321.985L146.645 323.094C147.003 323.188 147.361 323.276 147.718 323.375L148.782 323.68L150.914 324.289L153.044 324.898C153.399 325.001 153.756 325.097 154.109 325.205L155.167 325.533L159.401 326.845L160.459 327.173C160.812 327.285 161.16 327.407 161.51 327.525L163.61 328.234L165.709 328.944L166.759 329.298C167.109 329.416 167.459 329.534 167.804 329.663L171.971 331.175C183.067 335.251 193.941 339.935 204.603 345.055C194.162 339.466 183.379 334.527 172.316 330.266L168.156 328.683Z" fill="white"/>
<path d="M109.819 205.2C102.47 211.776 97.0108 223.889 127.206 244.521C168.414 272.682 176.281 300.226 176.281 300.226L179.543 290.277C179.543 290.277 169.425 252.067 153.272 223.44C140.644 201.06 117.169 198.624 109.819 205.2Z" fill="url(#paint14_linear_781_2)"/>
<path d="M165.697 266.315C165.569 266.06 165.428 265.808 165.29 265.556L164.875 264.799L164.047 263.295L163.217 261.794C163.079 261.541 162.944 261.288 162.8 261.037L162.366 260.297L160.63 257.334L160.197 256.592C160.049 256.342 159.895 256.107 159.744 255.864L158.831 254.408L157.917 252.953L157.46 252.226C157.305 251.978 157.145 251.747 156.988 251.509L155.085 248.644C154.925 248.406 154.77 248.166 154.607 247.93L154.113 247.227L153.124 245.82L152.128 244.416C151.965 244.181 151.793 243.952 151.619 243.723L151.104 243.035C150.415 242.117 149.734 241.194 149.038 240.283L146.903 237.582C146.552 237.127 146.181 236.69 145.815 236.248L144.708 234.927C141.732 231.427 138.624 228.032 135.317 224.83C132.025 221.613 128.543 218.588 124.888 215.77L123.502 214.736L123.155 214.477L122.803 214.225L122.098 213.725L121.393 213.223L120.671 212.738C120.194 212.413 119.718 212.088 119.231 211.78C117.291 210.53 115.306 209.338 113.215 208.349C114.232 208.893 115.212 209.502 116.177 210.127L116.894 210.597L117.615 211.079C118.094 211.397 118.561 211.732 119.028 212.063C120.897 213.398 122.718 214.793 124.49 216.249C126.254 217.712 127.997 219.197 129.67 220.757L130.931 221.921L132.167 223.108L132.785 223.701L133.095 223.997L133.397 224.301L134.61 225.517C137.809 228.776 140.864 232.164 143.775 235.681L144.859 237.004C145.221 237.444 145.589 237.881 145.936 238.333L148.044 241.025C148.729 241.932 149.404 242.852 150.086 243.766L150.594 244.452C150.764 244.68 150.935 244.908 151.096 245.142L152.079 246.541L153.066 247.934L153.56 248.631C153.724 248.865 153.879 249.103 154.044 249.337L155.947 252.175C156.104 252.412 156.267 252.645 156.42 252.885L156.877 253.606L157.791 255.049L158.706 256.492C158.857 256.732 159.012 256.971 159.16 257.214L159.601 257.945L161.366 260.87L161.808 261.601C161.954 261.851 162.087 262.095 162.231 262.341L163.071 263.827C163.631 264.817 164.203 265.802 164.752 266.8L166.375 269.805C170.671 277.837 174.52 286.105 178.053 294.516C175.012 285.905 171.408 277.5 167.264 269.353L165.697 266.315Z" fill="white"/>
<path d="M410.34 238.02C416.724 251.263 417.395 271.179 364.325 283.192C291.905 299.585 265.585 333.629 265.585 333.629L266.71 317.951C266.71 317.951 302.12 270.297 340.419 239.345C370.36 215.15 403.954 224.777 410.34 238.02Z" fill="url(#paint15_linear_781_2)"/>
<path d="M299.003 293.872C299.326 293.587 299.66 293.315 299.992 293.043L300.993 292.217L302.99 290.578L304.989 288.938C305.323 288.665 305.653 288.389 305.99 288.12L307.01 287.327L311.088 284.151L312.108 283.356C312.45 283.094 312.801 282.844 313.146 282.587L315.23 281.058L317.314 279.527L318.356 278.762C318.705 278.509 319.062 278.267 319.414 278.021L323.656 275.074C324.012 274.83 324.362 274.579 324.72 274.34L325.799 273.629L327.959 272.207L330.124 270.787C330.482 270.547 330.849 270.321 331.216 270.095L332.315 269.415L334.514 268.054L335.613 267.375C335.98 267.15 336.343 266.917 336.717 266.704L341.182 264.096C341.922 263.652 342.681 263.244 343.435 262.827L345.701 261.584C351.767 258.31 357.958 255.261 364.302 252.567C370.637 249.851 377.12 247.497 383.721 245.517L386.205 244.813L386.826 244.636L387.451 244.474L388.7 244.149L389.95 243.825L391.207 243.527C392.043 243.328 392.88 243.129 393.724 242.957C394.569 242.786 395.407 242.597 396.254 242.444L397.521 242.205L398.792 241.997C400.491 241.725 402.199 241.485 403.91 241.356C402.202 241.543 400.51 241.842 398.824 242.171L397.561 242.42L396.303 242.696C395.463 242.873 394.629 243.078 393.794 243.279C390.46 244.098 387.158 245.029 383.886 246.073C380.623 247.136 377.375 248.243 374.176 249.498C373.377 249.807 372.573 250.111 371.776 250.424L369.394 251.399L368.203 251.886L367.608 252.13L367.02 252.383L364.663 253.415C363.083 254.087 361.536 254.828 359.981 255.551L358.815 256.095L358.231 256.365L357.653 256.65L355.347 257.79C354.579 258.171 353.807 258.546 353.042 258.932L350.763 260.13L348.486 261.327L347.917 261.627L347.355 261.941L346.234 262.568L343.986 263.821C343.236 264.237 342.48 264.649 341.74 265.087L337.303 267.696C336.931 267.908 336.57 268.142 336.205 268.367L335.112 269.047L332.926 270.407L331.835 271.088C331.469 271.314 331.104 271.539 330.748 271.779L328.6 273.194L326.452 274.607L325.376 275.312C325.018 275.549 324.668 275.799 324.315 276.041L320.079 278.971C319.727 279.216 319.37 279.456 319.023 279.706L317.982 280.466L315.903 281.984L313.824 283.504C313.483 283.759 313.129 284.002 312.785 284.265L311.759 285.048L307.67 288.18L306.643 288.962C306.301 289.225 305.974 289.5 305.638 289.768L303.635 291.386L301.63 293.005L300.627 293.814C300.292 294.083 299.957 294.352 299.632 294.633L295.698 297.956C285.238 306.871 275.273 316.374 265.72 326.288C274.919 316.026 284.73 306.332 295.1 297.26L299.003 293.872Z" fill="white"/>
<path d="M336.143 295.594C365.712 285.593 388.868 302.303 390.16 314.145C391.451 325.987 386.541 341.303 342.537 335.582C282.496 327.776 253.025 346.268 253.025 346.268L258.161 334.675C258.161 334.675 298.324 308.386 336.143 295.594Z" fill="url(#paint16_linear_781_2)"/>
<path d="M289.926 325.458C290.25 325.33 290.579 325.217 290.907 325.102L291.894 324.758L293.868 324.065L295.84 323.372C296.17 323.258 296.497 323.141 296.827 323.03L297.823 322.712L301.803 321.434L302.799 321.115C303.131 321.011 303.467 320.919 303.8 320.821L305.809 320.239L307.819 319.659L308.822 319.368C309.158 319.273 309.497 319.19 309.834 319.096L313.88 318.036C314.219 317.95 314.555 317.857 314.894 317.775L315.913 317.536L317.953 317.059L319.991 316.587C320.33 316.505 320.672 316.437 321.006 316.365L322.032 316.155L324.082 315.735L325.107 315.525C325.449 315.456 325.79 315.38 326.135 315.323L330.247 314.597C330.933 314.469 331.623 314.37 332.314 314.262L334.385 313.951C339.911 313.158 345.469 312.571 351.05 312.297C356.629 312.003 362.222 312.025 367.801 312.364L369.89 312.522L370.413 312.561L370.933 312.613L371.975 312.715L373.018 312.817L374.058 312.943C374.752 313.025 375.444 313.107 376.135 313.213C378.897 313.613 381.654 314.092 384.343 314.841C382.987 314.516 381.613 314.28 380.237 314.07L379.205 313.914L378.17 313.774C377.481 313.677 376.789 313.605 376.097 313.529C373.329 313.236 370.555 313.036 367.774 312.929C364.995 312.838 362.212 312.783 359.436 312.851L357.352 312.893L355.268 312.974L354.227 313.015L353.707 313.035L353.187 313.069L351.103 313.199C349.717 313.273 348.334 313.409 346.95 313.528L345.913 313.617L345.394 313.661L344.876 313.716L342.806 313.944C342.116 314.02 341.425 314.09 340.735 314.172L338.671 314.448L336.607 314.726L336.091 314.796L335.578 314.878L334.551 315.042L332.494 315.369C331.808 315.476 331.121 315.577 330.44 315.709L326.343 316.455C326.001 316.513 325.662 316.589 325.323 316.658L324.31 316.872L322.272 317.297L321.259 317.511C320.919 317.581 320.578 317.65 320.243 317.733L318.216 318.209L316.183 318.677L315.165 318.911C314.828 318.992 314.493 319.083 314.157 319.168L310.127 320.21C309.791 320.297 309.454 320.38 309.119 320.473L308.12 320.76L306.118 321.331L304.117 321.903C303.784 322 303.449 322.091 303.117 322.192L302.124 322.5L298.147 323.732L297.154 324.04C296.823 324.145 296.496 324.26 296.167 324.37L294.195 325.036L292.224 325.703L291.238 326.036C290.909 326.146 290.58 326.258 290.256 326.378L286.342 327.799C275.922 331.627 265.711 336.026 255.697 340.833C265.503 335.585 275.629 330.947 286.019 326.945L289.926 325.458Z" fill="white"/>
<path d="M344.715 209.492C351.617 215.668 356.744 227.044 328.387 246.42C289.688 272.866 282.3 298.733 282.3 298.733L279.236 289.39C279.236 289.39 288.738 253.506 303.908 226.622C315.768 205.604 337.813 203.317 344.715 209.492Z" fill="url(#paint17_linear_781_2)"/>
<path d="M292.237 266.887C292.356 266.647 292.489 266.411 292.619 266.174L293.008 265.463L293.786 264.051L294.565 262.641C294.695 262.404 294.822 262.166 294.957 261.93L295.365 261.235L296.995 258.453L297.401 257.756C297.54 257.521 297.685 257.3 297.827 257.072L298.685 255.705L299.542 254.338L299.972 253.656C300.117 253.423 300.268 253.206 300.415 252.982L302.203 250.292C302.353 250.069 302.498 249.842 302.651 249.621L303.115 248.961L304.044 247.64L304.979 246.321C305.133 246.1 305.294 245.885 305.457 245.67L305.941 245.024C306.588 244.162 307.227 243.295 307.881 242.44L309.886 239.903C310.215 239.476 310.564 239.065 310.908 238.65L311.948 237.41C314.743 234.123 317.661 230.935 320.767 227.928C323.859 224.906 327.129 222.066 330.561 219.419L331.862 218.448L332.189 218.205L332.519 217.968L333.181 217.498L333.843 217.027L334.521 216.572C334.97 216.266 335.417 215.961 335.873 215.671C337.695 214.498 339.56 213.378 341.523 212.45C340.568 212.961 339.648 213.532 338.742 214.12L338.068 214.561L337.391 215.013C336.941 215.312 336.503 215.627 336.064 215.938C334.309 217.191 332.599 218.501 330.935 219.869C329.278 221.242 327.641 222.637 326.07 224.103L324.886 225.196L323.725 226.31L323.144 226.867L322.853 227.145L322.57 227.431L321.431 228.573C318.427 231.634 315.557 234.815 312.823 238.118L311.806 239.36C311.466 239.774 311.12 240.184 310.794 240.608L308.815 243.137C308.171 243.988 307.537 244.853 306.897 245.71L306.42 246.355C306.26 246.569 306.1 246.783 305.948 247.003L305.025 248.317L304.098 249.625L303.635 250.279C303.48 250.499 303.334 250.722 303.18 250.942L301.392 253.607C301.245 253.83 301.092 254.049 300.949 254.274L300.52 254.952L299.661 256.307L298.802 257.662C298.66 257.887 298.514 258.112 298.375 258.34L297.962 259.027L296.304 261.773L295.889 262.46C295.751 262.695 295.626 262.923 295.491 263.155L294.702 264.55C294.176 265.48 293.639 266.405 293.124 267.342L291.599 270.164C287.566 277.707 283.95 285.472 280.632 293.371C283.488 285.284 286.873 277.391 290.765 269.74L292.237 266.887Z" fill="white"/>
<path d="M230.02 379.497C292.06 379.497 342.353 371.231 342.353 361.036C342.353 350.841 292.06 342.575 230.02 342.575C167.98 342.575 117.688 350.841 117.688 361.036C117.688 371.231 167.98 379.497 230.02 379.497Z" fill="#03BB63" fill-opacity="0.16"/>
<path d="M214.495 169.775C195.412 147.922 215.883 132.468 239.355 125.31C256.42 120.106 267.947 152.763 250.226 173.402C242.592 182.293 222.202 178.601 214.495 169.775Z" fill="url(#paint18_linear_781_2)"/>
<path d="M197.972 203.831L233.022 196.535L265.38 204.446C279.478 207.893 289.845 219.892 291.208 234.341L294.071 264.695C294.582 270.109 293.91 275.57 292.103 280.7L279.38 316.81L187.484 318.834L169.125 287.94C165.325 281.545 163.985 273.985 165.357 266.674L172.218 230.1C174.688 216.935 184.858 206.561 197.972 203.831Z" fill="url(#paint19_linear_781_2)"/>
<path d="M292.109 280.688L279.377 316.807L277.166 316.84L287.72 286.987C289.663 281.459 290.367 275.595 289.831 269.765L286.748 237.165C285.527 224.282 277.44 206.614 245.58 208.524C226.411 209.674 221.686 203.197 218.613 201.839L228.248 197.529L233.006 196.524L265.372 204.431C279.478 207.882 289.831 219.877 291.204 234.351L294.052 264.706C294.588 270.101 293.918 275.562 292.109 280.688Z" fill="url(#paint20_linear_781_2)"/>
<path d="M221.912 180.878L218.613 201.839C225.033 205.412 240.943 207.078 246.647 203.289L242.331 180.047L221.912 180.878Z" fill="#CCB78E"/>
<path d="M221.912 180.878L218.613 201.839C225.033 205.412 240.943 207.078 246.647 203.289L242.331 180.047L221.912 180.878Z" fill="url(#paint21_linear_781_2)"/>
<path d="M233.018 189.419C243.688 189.419 252.337 177.444 252.337 162.671C252.337 147.898 243.688 135.922 233.018 135.922C222.349 135.922 213.699 147.898 213.699 162.671C213.699 177.444 222.349 189.419 233.018 189.419Z" fill="url(#paint22_linear_781_2)"/>
<path d="M214.44 155.321L216.366 168.273C218.968 159.906 211.205 147.533 230.589 147.139C235.995 147.029 241.861 142.211 245.823 146.043C251.813 151.836 246.647 157.593 248.441 169.24L251.433 154.578C254.641 138.34 246.647 120.488 218.613 123.293C207.949 124.36 203.882 135.984 206.994 142.845C209.657 148.715 213.894 150.618 214.44 155.321Z" fill="url(#paint23_linear_781_2)"/>
<path d="M214.568 172.548C216.085 172.383 216.848 167.956 216.272 162.66C215.697 157.364 214.001 153.204 212.484 153.368C210.968 153.533 210.205 157.96 210.78 163.257C211.355 168.553 213.051 172.713 214.568 172.548Z" fill="url(#paint24_linear_781_2)"/>
<path d="M252.306 154.223C250.789 154.058 249.094 158.218 248.518 163.515C247.943 168.811 248.706 173.238 250.223 173.403C251.739 173.567 253.435 169.408 254.011 164.111C254.586 158.815 253.823 154.388 252.306 154.223Z" fill="url(#paint25_linear_781_2)"/>
<path d="M193.598 269.62L194.876 239.002L199.979 275.539L193.598 269.62Z" fill="#733699"/>
<path d="M266.237 269.62L264.958 239.002L259.855 275.539L266.237 269.62Z" fill="#733699"/>
<path d="M267.797 316.156H193.598V346.426H267.797V316.156Z" fill="#A54BD9"/>
<path d="M280.962 345.278C280.962 345.278 303.081 349.464 307.414 352.646C311.747 355.827 309.021 365.863 297.203 367.366C285.386 368.869 268.508 357.594 268.508 357.594L280.962 345.278Z" fill="url(#paint26_linear_781_2)"/>
<path d="M280.958 345.278L154.242 303.429C148.245 301.448 141.659 303.636 138.039 308.811C133.859 314.786 135.089 322.989 140.838 327.475L161.299 343.439C173.039 352.599 187.502 357.575 202.393 357.579L268.504 357.594C276.694 354.499 281.661 350.599 280.958 345.278Z" fill="url(#paint27_linear_781_2)"/>
<path d="M181.905 348.89C181.905 348.89 161.267 350.045 156.757 352.97C152.248 355.896 154.388 366.072 166.099 368.257C177.81 370.441 195.312 360.161 195.312 360.161L181.905 348.89Z" fill="url(#paint28_linear_781_2)"/>
<path d="M181.906 348.89L305.062 296.86C310.745 294.459 317.329 296.07 321.261 300.823C325.998 306.549 325.422 314.981 319.951 320.01L306.581 332.3C292.019 345.685 273.403 353.824 253.689 355.424L195.313 360.161C187.521 357.231 182.655 353.573 181.906 348.89Z" fill="url(#paint29_linear_781_2)"/>
<path d="M284.201 260.195H180.176C177.778 260.195 175.956 262.351 176.356 264.716L186.372 323.979H278.005L288.021 264.716C288.421 262.351 286.599 260.195 284.201 260.195Z" fill="url(#paint30_linear_781_2)"/>
<path d="M232.186 302.683C239.684 302.683 245.762 297.939 245.762 292.087C245.762 286.234 239.684 281.49 232.186 281.49C224.688 281.49 218.609 286.234 218.609 292.087C218.609 297.939 224.688 302.683 232.186 302.683Z" fill="url(#paint31_linear_781_2)"/>
<path d="M216.369 168.273L214.371 182.502C213.962 185.411 215.272 188.293 217.732 189.898L219.905 191.316C227.248 196.109 236.425 197.146 244.654 194.115C248.975 192.524 251.557 188.087 250.806 183.543L248.443 169.24C248.199 170.049 248.47 158.221 248.344 158.907C243.858 183.309 237.22 173.036 232.616 173.102C223.558 173.232 218.212 184.797 217.006 156.05C216.936 154.387 216.608 162.671 216.369 168.273Z" fill="url(#paint32_linear_781_2)"/>
<path d="M224.648 178.769C231.501 183.953 236.477 182.48 240.614 178.035L224.648 178.769Z" fill="#F2D9A6"/>
<path d="M224.648 178.769C231.501 183.953 236.477 182.48 240.614 178.035L224.648 178.769Z" fill="url(#paint33_linear_781_2)"/>
<path d="M324.443 309.737C324.443 313.523 322.936 317.276 319.954 320.023L306.585 332.286C292.011 345.688 273.415 353.83 253.681 355.438L195.315 360.162L190.207 357.91L250.163 352.758C270.869 351.082 290.402 342.539 305.681 328.467L319.719 315.567C322.165 313.322 323.673 310.441 324.243 307.392C324.376 308.162 324.443 308.933 324.443 309.737Z" fill="#929699"/>
<path d="M1.27929 93.5702C1.03739 93.5702 0.805404 93.4741 0.634351 93.303C0.463297 93.132 0.367188 92.9 0.367188 92.6581V86.3372C0.367188 78.6755 6.60052 72.4421 14.2604 72.4421H21.7853C22.0272 72.4421 22.2592 72.5382 22.4302 72.7093C22.6013 72.8804 22.6974 73.1123 22.6974 73.3542C22.6974 73.5962 22.6013 73.8282 22.4302 73.9992C22.2592 74.1703 22.0272 74.2664 21.7853 74.2664H14.2604C11.0602 74.2697 7.99213 75.5426 5.72943 77.8057C3.46674 80.0687 2.1943 83.137 2.1914 86.3372V92.6581C2.1914 92.9 2.09532 93.132 1.92427 93.303C1.75321 93.4741 1.5212 93.5702 1.27929 93.5702ZM129.631 94.776C129.389 94.776 129.157 94.6799 128.986 94.5088C128.815 94.3378 128.719 94.1058 128.719 93.8639V86.3372C128.716 83.137 127.444 80.0687 125.181 77.8057C122.918 75.5426 119.85 74.2697 116.65 74.2664H110.331C110.089 74.2664 109.857 74.1703 109.686 73.9992C109.515 73.8282 109.419 73.5962 109.419 73.3542C109.419 73.1123 109.515 72.8804 109.686 72.7093C109.857 72.5382 110.089 72.4421 110.331 72.4421H116.65C124.312 72.4421 130.543 78.6755 130.543 86.3372V93.8639C130.543 94.1058 130.447 94.3378 130.276 94.5088C130.105 94.6799 129.873 94.776 129.631 94.776ZM116.648 157H109.123C108.881 157 108.649 156.904 108.478 156.733C108.307 156.562 108.211 156.33 108.211 156.088C108.211 155.846 108.307 155.614 108.478 155.443C108.649 155.272 108.881 155.176 109.123 155.176H116.648C119.848 155.173 122.917 153.9 125.18 151.638C127.443 149.375 128.715 146.307 128.719 143.107V136.786C128.719 136.544 128.815 136.312 128.986 136.141C129.157 135.97 129.389 135.874 129.631 135.874C129.873 135.874 130.105 135.97 130.276 136.141C130.447 136.312 130.543 136.544 130.543 136.786V143.107C130.543 150.767 124.31 157 116.648 157ZM20.5795 157H14.2586C6.59871 157 0.367188 150.767 0.367188 143.107V135.58C0.367188 135.338 0.463297 135.106 0.634351 134.935C0.805404 134.764 1.03739 134.668 1.27929 134.668C1.5212 134.668 1.75321 134.764 1.92427 134.935C2.09532 135.106 2.1914 135.338 2.1914 135.58V143.107C2.19478 146.306 3.46716 149.374 5.72941 151.636C7.99165 153.899 11.059 155.172 14.2586 155.176H20.5795C20.8214 155.176 21.0534 155.272 21.2244 155.443C21.3955 155.614 21.4916 155.846 21.4916 156.088C21.4916 156.33 21.3955 156.562 21.2244 156.733C21.0534 156.904 20.8214 157 20.5795 157Z" fill="url(#paint34_linear_781_2)"/>
<path d="M7.69922 86.3371V143.107C7.69922 144.846 8.39033 146.515 9.62055 147.745C10.8508 148.975 12.5193 149.667 14.2591 149.667H116.649C118.388 149.667 120.057 148.975 121.287 147.745C122.517 146.515 123.208 144.846 123.208 143.107V86.3371C123.208 84.5974 122.517 82.9288 121.287 81.6986C120.057 80.4684 118.388 79.7773 116.649 79.7773H14.2591C12.5193 79.7773 10.8508 80.4684 9.62055 81.6986C8.39033 82.9288 7.69922 84.5974 7.69922 86.3371Z" fill="url(#paint35_linear_781_2)"/>
<path d="M20.5948 123.857C20.4529 123.719 20.3412 123.552 20.2665 123.368C20.1918 123.184 20.1557 122.987 20.1606 122.788V102.177C20.1606 101.757 20.3047 101.392 20.5948 101.095C20.7307 100.948 20.8962 100.831 21.0805 100.753C21.2648 100.675 21.4636 100.637 21.6637 100.641C22.0851 100.641 22.4482 100.792 22.7492 101.095C22.8942 101.235 23.0091 101.403 23.0866 101.589C23.1641 101.775 23.2026 101.975 23.1997 102.177V111.062H35.8598V102.179C35.8598 101.757 36.0057 101.394 36.294 101.095C36.4302 100.948 36.5958 100.832 36.78 100.754C36.9642 100.675 37.1628 100.637 37.3629 100.641C37.7862 100.641 38.1474 100.792 38.4483 101.095C38.5934 101.235 38.7082 101.403 38.7857 101.589C38.8632 101.775 38.9018 101.975 38.8989 102.177V122.79C38.8989 123.214 38.7493 123.569 38.4483 123.857C38.1474 124.146 37.7862 124.292 37.3629 124.292C37.1646 124.296 36.9675 124.259 36.7837 124.185C36.5999 124.11 36.4333 123.999 36.294 123.857C36.1524 123.718 36.0408 123.552 35.9661 123.368C35.8915 123.184 35.8553 122.987 35.8598 122.788V113.903H23.1997V122.788C23.1997 123.214 23.0502 123.569 22.7492 123.857C22.4482 124.146 22.0851 124.292 21.6637 124.292C21.4654 124.296 21.2682 124.26 21.0843 124.185C20.9005 124.11 20.7339 123.999 20.5948 123.857ZM51.2251 123.857C51.0836 123.718 50.9721 123.552 50.8975 123.368C50.8228 123.184 50.7865 122.987 50.791 122.788V103.649H43.9757C43.5744 103.649 43.2424 103.514 42.976 103.247C42.7097 102.981 42.5747 102.645 42.5747 102.244C42.5747 101.843 42.7079 101.505 42.976 101.226C43.1041 101.09 43.2593 100.983 43.4315 100.911C43.6037 100.839 43.7891 100.804 43.9757 100.809H60.6125C60.8017 100.805 60.9897 100.84 61.1647 100.912C61.3398 100.984 61.4983 101.091 61.6305 101.226C61.9096 101.505 62.0482 101.845 62.0482 102.244C62.0482 102.644 61.9096 102.979 61.6305 103.247C61.3514 103.516 61.012 103.649 60.6125 103.649H53.8319V122.788C53.8358 122.988 53.7977 123.187 53.7201 123.371C53.6425 123.555 53.5271 123.721 53.3814 123.857C53.238 123.998 53.0681 124.109 52.8814 124.184C52.6947 124.258 52.4951 124.295 52.2941 124.292C52.0958 124.296 51.8987 124.259 51.7149 124.185C51.5311 124.11 51.3645 123.999 51.2251 123.857ZM66.1582 123.857C66.016 123.719 65.9039 123.552 65.8289 123.368C65.7539 123.184 65.7175 122.987 65.7221 122.788V102.846C65.7221 102.244 65.9337 101.728 66.357 101.294C66.7783 100.86 67.2928 100.641 67.8948 100.641H68.9948C69.4399 100.641 69.8485 100.776 70.217 101.042C70.5855 101.308 70.8555 101.644 71.0343 102.045L78.6175 120.95L86.199 102.045C86.3777 101.644 86.6495 101.31 87.0162 101.042C87.3847 100.776 87.7915 100.641 88.2384 100.641H89.3402C89.9404 100.641 90.453 100.86 90.8744 101.294C91.2994 101.728 91.5093 102.244 91.5093 102.846V122.788C91.5093 123.214 91.3651 123.569 91.0769 123.857C90.9376 123.999 90.7709 124.11 90.5871 124.185C90.4033 124.259 90.2063 124.296 90.0079 124.292C89.807 124.295 89.6073 124.258 89.4206 124.184C89.2339 124.109 89.064 123.998 88.9207 123.857C88.775 123.721 88.6596 123.555 88.582 123.371C88.5044 123.187 88.4662 122.988 88.4701 122.788V103.817L80.7537 122.889C80.5791 123.306 80.2828 123.661 79.9036 123.907C79.5132 124.164 79.0827 124.292 78.6175 124.292C78.1487 124.292 77.72 124.164 77.3315 123.909C76.9501 123.663 76.6528 123.306 76.4795 122.887L68.7631 103.817V122.788C68.7631 123.214 68.6117 123.569 68.3107 123.857C68.0097 124.146 67.6485 124.292 67.2271 124.292C67.0288 124.296 66.8316 124.26 66.6477 124.185C66.4639 124.11 66.2973 123.999 66.1582 123.857ZM98.6091 123.507C98.4091 123.315 98.2508 123.084 98.1441 122.827C98.0374 122.571 97.9846 122.296 97.9889 122.019V102.177C97.9889 101.757 98.1348 101.392 98.4267 101.095C98.5624 100.948 98.7277 100.832 98.9116 100.754C99.0955 100.675 99.2939 100.637 99.4938 100.641C99.917 100.641 100.278 100.792 100.579 101.095C100.724 101.235 100.839 101.403 100.917 101.589C100.994 101.775 101.033 101.975 101.03 102.177V121.086H111.953C112.376 121.086 112.738 121.236 113.039 121.537C113.34 121.838 113.489 122.199 113.489 122.621C113.493 122.82 113.456 123.019 113.378 123.203C113.3 123.387 113.185 123.553 113.039 123.69C112.896 123.831 112.726 123.942 112.54 124.017C112.354 124.092 112.154 124.129 111.953 124.126H100.096C99.8188 124.129 99.5438 124.076 99.2881 123.97C99.0324 123.863 98.8013 123.705 98.6091 123.505V123.507Z" fill="white"/>
<defs>
<linearGradient id="paint0_linear_781_2" x1="305.156" y1="127" x2="344.155" y2="120.501" gradientUnits="userSpaceOnUse">
<stop stop-color="#BCB9FF"/>
<stop offset="1" stop-color="#6E68FF"/>
</linearGradient>
<linearGradient id="paint1_linear_781_2" x1="344" y1="127" x2="383" y2="120.5" gradientUnits="userSpaceOnUse">
<stop stop-color="#4841FF"/>
<stop offset="1" stop-color="#B3B1FF"/>
</linearGradient>
<linearGradient id="paint2_linear_781_2" x1="388.158" y1="60.0001" x2="349.158" y2="62.0001" gradientUnits="userSpaceOnUse">
<stop stop-color="#B658FF"/>
<stop offset="1" stop-color="#E1BDFE"/>
</linearGradient>
<linearGradient id="paint3_linear_781_2" x1="426.998" y1="60.0001" x2="387.998" y2="62.0001" gradientUnits="userSpaceOnUse">
<stop stop-color="#E4C3FF"/>
<stop offset="1" stop-color="#BC66FF"/>
</linearGradient>
<linearGradient id="paint4_linear_781_2" x1="261.16" y1="62.5001" x2="301.66" y2="61.0001" gradientUnits="userSpaceOnUse">
<stop stop-color="#FFE2A7"/>
<stop offset="1" stop-color="#FFB318"/>
</linearGradient>
<linearGradient id="paint5_linear_781_2" x1="300" y1="62.5001" x2="340.5" y2="61.0001" gradientUnits="userSpaceOnUse">
<stop stop-color="#FBBE42"/>
<stop offset="1" stop-color="#FFE4AD"/>
</linearGradient>
<linearGradient id="paint6_linear_781_2" x1="267.373" y1="108" x2="280.875" y2="107.5" gradientUnits="userSpaceOnUse">
<stop stop-color="#D8DCFF"/>
<stop offset="1" stop-color="#747ECD"/>
</linearGradient>
<linearGradient id="paint7_linear_781_2" x1="280.998" y1="108" x2="294.498" y2="107.5" gradientUnits="userSpaceOnUse">
<stop stop-color="#868FD2"/>
<stop offset="1" stop-color="#D8DCFF"/>
</linearGradient>
<linearGradient id="paint8_linear_781_2" x1="393.035" y1="107.728" x2="406.716" y2="105.448" gradientUnits="userSpaceOnUse">
<stop stop-color="#9ABDFF"/>
<stop offset="1" stop-color="#416BFF"/>
</linearGradient>
<linearGradient id="paint9_linear_781_2" x1="406.66" y1="107.728" x2="420.343" y2="105.447" gradientUnits="userSpaceOnUse">
<stop stop-color="#416BFF"/>
<stop offset="1" stop-color="#9ABDFF"/>
</linearGradient>
<linearGradient id="paint10_linear_781_2" x1="330.375" y1="12.9999" x2="344.873" y2="12.9999" gradientUnits="userSpaceOnUse">
<stop stop-color="#C5EAFF"/>
<stop offset="1" stop-color="#66BFFF"/>
</linearGradient>
<linearGradient id="paint11_linear_781_2" x1="344" y1="12.9999" x2="358.5" y2="12.9999" gradientUnits="userSpaceOnUse">
<stop stop-color="#57B7FC"/>
<stop offset="1" stop-color="#C5EAFF"/>
</linearGradient>
<linearGradient id="paint12_linear_781_2" x1="212.801" y1="327.131" x2="54.8659" y2="208.68" gradientUnits="userSpaceOnUse">
<stop stop-color="#069D89"/>
<stop offset="1" stop-color="#10F1D3"/>
</linearGradient>
<linearGradient id="paint13_linear_781_2" x1="62.1319" y1="306.899" x2="162.878" y2="253.343" gradientUnits="userSpaceOnUse">
<stop stop-color="#FFC5E3"/>
<stop offset="1" stop-color="#F11D85"/>
</linearGradient>
<linearGradient id="paint14_linear_781_2" x1="104.506" y1="212.032" x2="149.3" y2="196.554" gradientUnits="userSpaceOnUse">
<stop stop-color="#FFC5E3"/>
<stop offset="1" stop-color="#F11D85"/>
</linearGradient>
<linearGradient id="paint15_linear_781_2" x1="247.998" y1="324" x2="396.319" y2="212.761" gradientUnits="userSpaceOnUse">
<stop stop-color="#069D89"/>
<stop offset="1" stop-color="#10F1D3"/>
</linearGradient>
<linearGradient id="paint16_linear_781_2" x1="389.5" y1="305" x2="294.887" y2="254.704" gradientUnits="userSpaceOnUse">
<stop stop-color="#FFC5E3"/>
<stop offset="1" stop-color="#F11D85"/>
</linearGradient>
<linearGradient id="paint17_linear_781_2" x1="349.705" y1="215.909" x2="307.638" y2="201.373" gradientUnits="userSpaceOnUse">
<stop stop-color="#FFC5E3"/>
<stop offset="1" stop-color="#F11D85"/>
</linearGradient>
<linearGradient id="paint18_linear_781_2" x1="233.577" y1="133.716" x2="233.092" y2="178.509" gradientUnits="userSpaceOnUse">
<stop stop-color="#561B16"/>
<stop offset="0.600204" stop-color="#230603"/>
</linearGradient>
<linearGradient id="paint19_linear_781_2" x1="229.535" y1="196.535" x2="229.535" y2="318.834" gradientUnits="userSpaceOnUse">
<stop stop-color="#B243F2"/>
<stop offset="1" stop-color="#5C247D"/>
</linearGradient>
<linearGradient id="paint20_linear_781_2" x1="296.998" y1="200" x2="279.498" y2="257" gradientUnits="userSpaceOnUse">
<stop stop-color="#8022BB"/>
<stop offset="1" stop-color="#717171" stop-opacity="0"/>
</linearGradient>
<linearGradient id="paint21_linear_781_2" x1="232.63" y1="180.047" x2="232.63" y2="205.444" gradientUnits="userSpaceOnUse">
<stop stop-color="white"/>
<stop offset="1" stop-color="#FFD0D0"/>
</linearGradient>
<linearGradient id="paint22_linear_781_2" x1="233.018" y1="135.922" x2="233.018" y2="189.419" gradientUnits="userSpaceOnUse">
<stop stop-color="white"/>
<stop offset="1" stop-color="#FFD0D0"/>
</linearGradient>
<linearGradient id="paint23_linear_781_2" x1="229.518" y1="130.708" x2="229.112" y2="169.241" gradientUnits="userSpaceOnUse">
<stop stop-color="#561B16"/>
<stop offset="1" stop-color="#230603"/>
</linearGradient>
<linearGradient id="paint24_linear_781_2" x1="212.484" y1="153.368" x2="214.568" y2="172.548" gradientUnits="userSpaceOnUse">
<stop stop-color="white"/>
<stop offset="1" stop-color="#FFD0D0"/>
</linearGradient>
<linearGradient id="paint25_linear_781_2" x1="250.223" y1="173.403" x2="252.306" y2="154.223" gradientUnits="userSpaceOnUse">
<stop stop-color="white"/>
<stop offset="1" stop-color="#FFD0D0"/>
</linearGradient>
<linearGradient id="paint26_linear_781_2" x1="280.502" y1="347.5" x2="301.002" y2="370" gradientUnits="userSpaceOnUse">
<stop stop-color="#223199"/>
<stop offset="1" stop-color="#2E3566"/>
</linearGradient>
<linearGradient id="paint27_linear_781_2" x1="136" y1="309" x2="223" y2="341.5" gradientUnits="userSpaceOnUse">
<stop offset="0.256592" stop-color="#F2F7FA"/>
<stop offset="1" stop-color="#BFCFD8"/>
</linearGradient>
<linearGradient id="paint28_linear_781_2" x1="166.531" y1="350.856" x2="184.349" y2="372.898" gradientUnits="userSpaceOnUse">
<stop stop-color="#223199"/>
<stop offset="1" stop-color="#2E3566"/>
</linearGradient>
<linearGradient id="paint29_linear_781_2" x1="317.998" y1="296" x2="189.498" y2="360" gradientUnits="userSpaceOnUse">
<stop stop-color="#E1F4FC"/>
<stop offset="1" stop-color="white"/>
</linearGradient>
<linearGradient id="paint30_linear_781_2" x1="232.189" y1="260.195" x2="232.189" y2="323.979" gradientUnits="userSpaceOnUse">
<stop stop-color="#232E7D"/>
<stop offset="1" stop-color="#1F244B"/>
</linearGradient>
<linearGradient id="paint31_linear_781_2" x1="232.002" y1="283" x2="232.002" y2="304.5" gradientUnits="userSpaceOnUse">
<stop stop-color="white"/>
<stop offset="1" stop-color="white" stop-opacity="0"/>
</linearGradient>
<linearGradient id="paint32_linear_781_2" x1="232.998" y1="162.5" x2="232.616" y2="195.825" gradientUnits="userSpaceOnUse">
<stop stop-color="#561B16"/>
<stop offset="1" stop-color="#230603"/>
</linearGradient>
<linearGradient id="paint33_linear_781_2" x1="232.631" y1="178.035" x2="232.631" y2="182.06" gradientUnits="userSpaceOnUse">
<stop stop-color="white"/>
<stop offset="1" stop-color="#FFD0D0"/>
</linearGradient>
<linearGradient id="paint34_linear_781_2" x1="67.77" y1="68.5069" x2="62.479" y2="160.169" gradientUnits="userSpaceOnUse">
<stop stop-color="#CDEDFF"/>
<stop offset="1" stop-color="#0F9EEE"/>
</linearGradient>
<linearGradient id="paint35_linear_781_2" x1="67.5079" y1="76.5247" x2="63.4326" y2="152.319" gradientUnits="userSpaceOnUse">
<stop stop-color="#CDEDFF"/>
<stop offset="1" stop-color="#0F9EEE"/>
</linearGradient>
</defs>
</svg>
