<svg xmlns="http://www.w3.org/2000/svg" width="30.035" height="30.035" viewBox="0 0 30.035 30.035">
  <path id="life-ring" d="M26.475,24.7a14.96,14.96,0,0,0,0-19.375l1.076-1.076a1.252,1.252,0,0,0-1.771-1.77L24.7,3.56a14.96,14.96,0,0,0-19.375,0L4.252,2.484A1.251,1.251,0,1,0,2.484,4.255L3.56,5.331a14.96,14.96,0,0,0,0,19.375L2.484,25.782a1.251,1.251,0,1,0,1.771,1.768l1.076-1.076a14.96,14.96,0,0,0,19.375,0l1.076,1.076a1.251,1.251,0,1,0,1.768-1.771Zm1.057-9.688A12.451,12.451,0,0,1,24.7,22.932l-4.469-4.469a6.215,6.215,0,0,0,0-6.891L24.7,7.1A12.451,12.451,0,0,1,27.532,15.017Zm-16.269,0a3.754,3.754,0,1,1,3.754,3.754A3.754,3.754,0,0,1,11.263,15.017ZM15.017,2.5a12.451,12.451,0,0,1,7.914,2.831L18.463,9.8a6.215,6.215,0,0,0-6.891,0L7.1,5.334A12.451,12.451,0,0,1,15.017,2.5ZM2.5,15.017A12.451,12.451,0,0,1,5.334,7.1L9.8,11.572a6.215,6.215,0,0,0,0,6.891L5.334,22.932A12.451,12.451,0,0,1,2.5,15.017ZM15.017,27.532A12.451,12.451,0,0,1,7.1,24.7l4.469-4.469a6.215,6.215,0,0,0,6.891,0L22.932,24.7A12.451,12.451,0,0,1,15.017,27.532Z" transform="translate(0)" fill="#fff"/>
</svg>
