<svg width="497" height="292" viewBox="0 0 497 292" fill="none" xmlns="http://www.w3.org/2000/svg">
<path d="M447.975 256.844V256.902C447.975 273.905 434.186 287.69 417.182 287.69H95.1745C78.4531 287.69 64.8449 274.364 64.3962 257.754C64.3914 257.591 64.3865 257.424 64.3865 257.255C64.3817 257.137 64.3817 257.019 64.3817 256.902V256.844C64.3817 239.841 50.597 226.051 33.5937 226.051H30.793C13.8302 226.051 0.0601065 212.329 0.00017305 195.368V195.291C-0.0403225 183.084 7.03021 172.517 17.3015 167.504C17.4327 167.441 17.5607 167.378 17.6919 167.318C21.6669 165.445 26.1053 164.399 30.7914 164.399H79.1026C87.6067 164.399 95.3025 160.954 100.878 155.378C106.448 149.808 109.894 142.105 109.894 133.606C109.894 116.598 96.1092 102.813 79.101 102.813H75.9002C58.897 102.813 45.1123 89.0285 45.1123 72.0252V71.9669C45.1123 69.3703 45.4346 66.845 46.042 64.4379C46.0825 64.2662 46.1279 64.0978 46.1781 63.9309C49.7093 50.8217 61.6814 41.1757 75.9002 41.1757H346.602C355.106 41.1757 362.802 44.621 368.374 50.1965C373.949 55.767 377.395 63.4693 377.395 71.9685C377.395 88.9766 391.179 102.761 408.188 102.761H412.934C429.942 102.761 443.727 116.546 443.727 133.549V133.608C443.727 141.966 440.395 149.555 434.978 155.103C434.783 155.307 434.584 155.506 434.383 155.697C428.835 161.086 421.274 164.4 412.934 164.4H363.584C346.54 164.4 332.738 178.248 332.791 195.292V195.37C332.85 212.333 346.621 226.053 363.584 226.053H417.181C424.316 226.053 430.893 228.487 436.115 232.561C436.238 232.657 436.355 232.752 436.478 232.851C443.485 238.494 447.974 247.148 447.974 256.844H447.975Z" fill="#268AE7" fill-opacity="0.1"/>
<path d="M422.035 287.805H100.027C86.8383 287.805 75.0929 279.432 70.8004 266.969C70.7793 266.911 70.8117 266.846 70.87 266.825C70.9267 266.804 70.9931 266.836 71.0142 266.895C75.2743 279.265 86.9338 287.577 100.027 287.577H422.035C438.951 287.577 452.711 273.815 452.711 256.899V256.842C452.711 239.926 438.949 226.166 422.035 226.166H368.438C351.456 226.166 337.592 212.349 337.535 195.367V195.292C337.508 187.018 340.708 179.233 346.549 173.373C352.39 167.512 360.164 164.284 368.438 164.284H417.788C434.703 164.284 448.464 150.522 448.464 133.606V133.549C448.464 116.633 434.702 102.871 417.788 102.871H413.04C395.999 102.871 382.135 89.0073 382.135 71.9683C382.135 54.9294 368.373 41.2905 351.457 41.2905H173.133C173.07 41.2905 173.019 41.2403 173.019 41.1771C173.019 41.1139 173.07 41.0637 173.133 41.0637H351.459C368.5 41.0637 382.364 54.9278 382.364 71.9683C382.364 89.0089 396.126 102.646 413.042 102.646H417.789C434.83 102.646 448.692 116.51 448.692 133.551V133.607C448.692 150.648 434.828 164.512 417.789 164.512H368.44C360.226 164.512 352.509 167.716 346.711 173.535C340.912 179.351 337.734 187.079 337.763 195.294V195.368C337.822 212.227 351.582 225.942 368.441 225.942H422.038C439.079 225.942 452.941 239.806 452.941 256.845V256.902C452.941 273.943 439.077 287.807 422.038 287.807L422.035 287.805ZM66.32 243.862C66.2778 243.862 66.2373 243.838 66.2179 243.798C61.1786 233.087 50.2772 226.167 38.446 226.167H35.647C33.9121 226.167 32.1725 226.022 30.4765 225.737C30.4617 225.734 30.4476 225.729 30.4349 225.721C30.4222 225.713 30.4112 225.703 30.4026 225.691C30.394 225.678 30.3879 225.664 30.3847 225.65C30.3816 225.635 30.3814 225.62 30.3842 225.605C30.3867 225.591 30.3921 225.577 30.4001 225.564C30.4081 225.551 30.4184 225.541 30.4306 225.532C30.4428 225.523 30.4566 225.517 30.4711 225.514C30.4857 225.511 30.5007 225.51 30.5154 225.513C32.2 225.796 33.9267 225.941 35.6486 225.941H38.4477C50.3663 225.941 61.3487 232.912 66.4253 243.702C66.4512 243.759 66.4269 243.827 66.3702 243.853C66.354 243.859 66.3378 243.864 66.3216 243.864L66.32 243.862ZM23.1322 223.519C23.116 223.519 23.1014 223.516 23.0869 223.509C11.983 218.566 4.78286 207.52 4.74236 195.368V195.294C4.71483 187.02 7.9156 179.235 13.7567 173.374C19.5978 167.514 27.3713 164.285 35.6454 164.285H83.9598C100.876 164.285 114.638 150.523 114.638 133.607C114.638 116.692 100.876 102.93 83.9598 102.93H80.7574C63.7169 102.93 49.8544 89.0656 49.8544 72.0267V71.97C49.8544 64.143 52.7863 56.6756 58.1091 50.9446C63.4043 45.2445 70.5769 41.77 78.305 41.1625C78.3747 41.1512 78.4217 41.2046 78.4265 41.2662C78.4314 41.3294 78.3844 41.3828 78.3228 41.3877C62.4858 42.6317 50.0812 56.0649 50.0812 71.97V72.0267C50.0812 88.9425 63.8433 102.704 80.7591 102.704H83.9615C101.002 102.704 114.866 116.569 114.866 133.609C114.866 150.65 101.002 164.514 83.9615 164.514H35.647C27.4329 164.514 19.716 167.718 13.9187 173.536C8.12132 179.353 4.94323 187.081 4.97076 195.295V195.37C5.01126 207.431 12.1595 218.397 23.1808 223.304C23.2375 223.33 23.2634 223.396 23.2391 223.453C23.2197 223.495 23.1792 223.521 23.1355 223.521L23.1322 223.519Z" fill="#0A7EFB"/>
<path d="M392.608 223.495C395.506 215.946 398.934 209.27 399.731 201.04C400.033 197.727 400.003 194.365 400.735 191.126C401.466 187.887 403.111 184.666 405.956 182.942C409.149 180.996 413.333 181.223 416.465 179.18C418.495 177.861 419.837 175.75 421.428 173.927C424.921 169.929 429.662 167.271 434.305 164.692C441.5 160.699 449.197 156.582 457.431 157.112C462.116 157.418 466.574 159.258 470.791 161.309C473.461 162.625 476.158 164.113 477.856 166.602C478.862 168.003 479.348 169.711 479.229 171.432C478.851 175.665 474.485 177.449 470.705 177.203C467.527 176.985 464.525 175.659 461.454 174.887C458.383 174.115 454.839 173.933 452.217 175.775C448.487 178.412 447.857 184.293 443.763 186.327C441.486 187.459 438.557 187.115 436.577 188.71C433.527 191.173 434.924 196.088 436.906 199.448C438.887 202.807 441.297 206.879 439.49 210.354C436.352 216.405 425.216 212.416 421.387 218.076C419.17 221.36 420.746 226.367 418.102 229.326C414.443 233.42 407.04 229.479 402.4 232.414C400.497 233.619 399.45 235.759 398.301 237.695C397.152 239.631 395.599 241.607 393.382 242.022C393.205 242.056 393.038 242.089 392.869 242.086C392.768 242.094 392.667 242.08 392.572 242.044C392.477 242.009 392.392 241.952 392.321 241.879C392.251 241.806 392.198 241.718 392.166 241.622C392.134 241.525 392.124 241.423 392.137 241.323C392.196 240.88 392.273 240.446 392.365 240.012C392.923 237.581 393.884 235.259 395.207 233.144C396.528 231.042 398.054 229.075 399.763 227.273C401.447 225.445 403.245 223.719 405.006 221.966C405.889 221.085 406.776 220.203 407.622 219.286C408.507 218.365 409.256 217.322 409.847 216.188C410.428 215.02 410.689 213.718 410.6 212.416C410.466 211.161 410.248 209.918 409.948 208.692C409.83 208.088 409.713 207.483 409.658 206.875C409.594 206.269 409.57 205.659 409.586 205.05C409.63 203.83 409.829 202.62 410.176 201.45C410.859 199.087 411.952 196.863 413.405 194.88C414.149 193.911 415.015 193.043 415.982 192.298C416.964 191.555 418.001 190.889 419.084 190.304C420.166 189.701 421.268 189.095 422.348 188.458C423.433 187.816 424.473 187.099 425.46 186.313C427.416 184.713 429.13 182.838 430.55 180.746C431.96 178.663 433.181 176.458 434.198 174.157C434.438 173.592 434.712 173.042 435.02 172.512C435.337 171.994 435.705 171.51 436.119 171.067C436.962 170.181 437.955 169.451 439.053 168.91C441.254 167.808 443.725 167.313 446.185 167.058C451.136 166.552 456.137 166.988 461.123 167.267C458.638 167.048 456.154 166.813 453.659 166.682C451.163 166.524 448.66 166.536 446.166 166.717C443.678 166.945 441.161 167.411 438.872 168.525C437.715 169.073 436.666 169.824 435.774 170.742C435.33 171.204 434.934 171.711 434.593 172.253C434.264 172.796 433.973 173.361 433.722 173.944C432.685 176.194 431.464 178.354 430.072 180.404C428.678 182.443 426.997 184.27 425.079 185.827C424.111 186.592 423.091 187.289 422.026 187.913C420.973 188.545 419.865 189.117 418.767 189.722C417.654 190.322 416.588 191.004 415.576 191.761C414.563 192.54 413.654 193.445 412.872 194.454C412.103 195.467 411.445 196.559 410.909 197.713C410.371 198.858 409.919 200.041 409.554 201.253C408.998 203.089 408.822 205.019 409.036 206.925C409.104 207.558 409.218 208.183 409.342 208.802C409.64 209.999 409.859 211.213 409.997 212.439C410.087 213.638 409.852 214.839 409.315 215.915C408.755 216.999 408.043 217.998 407.202 218.882C406.36 219.794 405.494 220.687 404.62 221.574C402.875 223.352 401.095 225.105 399.421 226.967C397.715 228.802 396.198 230.804 394.893 232.943C393.615 235.115 392.711 237.487 392.217 239.958C392.146 240.337 392.083 240.722 392.047 241.101C392.036 241.222 391.994 241.337 391.923 241.435C391.852 241.534 391.756 241.611 391.645 241.66C391.534 241.708 391.412 241.726 391.292 241.711C391.172 241.696 391.058 241.649 390.963 241.574C387.475 238.895 391.477 226.435 392.608 223.495Z" fill="white" fill-opacity="0.36"/>
<path d="M417.116 213.95C417.116 213.95 454.114 193.189 484.383 222.662C483.068 223.58 476.19 222.899 471.568 223.427C469.599 223.653 468.723 219.682 467.712 219.265C466.701 218.847 468.772 223.852 467.878 224.508C466.984 225.165 461.517 225.682 456.684 228.118C451.85 230.555 452.165 226.163 449.365 220.885C446.564 215.608 447.703 223.696 449.951 228.265C451.346 231.105 440.561 235.924 436.358 234.943C432.154 233.961 431.752 228.232 432.097 225.454C432.442 222.676 430.035 224.48 430.425 232.69C430.425 232.69 431.662 236.957 428.724 238.602C424.635 240.896 414.553 243.779 411.935 242.797C409.317 241.816 408.655 236.936 409.783 233.076C410.911 229.216 408.283 229.857 407.214 235.125C406.145 240.392 405.707 243.639 400.581 244.58C395.454 245.52 380.283 248.95 378.709 248.325C377.136 247.7 395.299 224.844 417.116 213.95Z" fill="url(#paint0_linear_635_2340)"/>
<path d="M484.385 222.662C454.115 193.189 417.117 213.95 417.117 213.95C396.621 224.186 379.364 244.987 378.659 247.972L378.73 248.322C378.73 248.322 401.371 226.202 430.93 216.037C460.489 205.872 484.385 222.662 484.385 222.662Z" fill="url(#paint1_linear_635_2340)"/>
<path d="M387.979 227.194C387.979 227.194 418.684 161.161 443 163.435C467.316 165.71 387.979 227.194 387.979 227.194Z" fill="url(#paint2_linear_635_2340)"/>
<path d="M446.018 164.288C427.899 174.729 387.972 227.194 387.972 227.194C387.972 227.194 459.078 172.086 446.018 164.288Z" fill="url(#paint3_linear_635_2340)"/>
<path d="M387.971 227.194C392.124 221.364 396.439 215.642 400.916 210.026C405.393 204.411 409.974 198.896 414.659 193.479C417.024 190.781 419.425 188.111 421.862 185.471C424.317 182.852 426.802 180.255 429.369 177.743C431.936 175.231 434.54 172.78 437.313 170.452C438.003 169.866 438.704 169.311 439.412 168.754C440.12 168.198 440.836 167.654 441.569 167.127C443.005 166.061 444.513 165.096 446.082 164.236C443.103 166.227 440.303 168.471 437.714 170.942C435.084 173.364 432.54 175.892 430.064 178.462C425.115 183.626 420.327 188.942 415.627 194.337C410.926 199.731 406.291 205.194 401.706 210.675L387.971 227.194Z" fill="white"/>
<path d="M387.974 227.194C387.974 227.194 439.098 175.104 461.237 185.325C483.375 195.546 387.974 227.194 387.974 227.194Z" fill="url(#paint4_linear_635_2340)"/>
<path d="M463.8 187.131C443.226 190.979 387.976 227.194 387.976 227.194C387.976 227.194 473.474 198.828 463.8 187.131Z" fill="url(#paint5_linear_635_2340)"/>
<path d="M387.977 227.194C393.856 223.062 399.845 219.098 405.944 215.301C412.042 211.503 418.212 207.82 424.453 204.252C427.588 202.5 430.748 200.771 433.93 199.098C437.113 197.425 440.332 195.812 443.596 194.298C446.86 192.784 450.162 191.337 453.535 190.063C454.37 189.738 455.224 189.443 456.06 189.164C456.897 188.885 457.772 188.593 458.633 188.343C460.356 187.813 462.113 187.402 463.892 187.115C460.426 188.007 457.042 189.193 453.779 190.66C450.49 192.066 447.251 193.609 444.051 195.218C437.651 198.437 431.354 201.865 425.109 205.396C418.863 208.928 412.664 212.532 406.484 216.172L387.977 227.194Z" fill="white"/>
<path d="M280.93 41.1772C274.362 44.8525 267.831 48.7336 261.479 52.5046C247.364 60.8855 232.763 69.5532 217.456 76.2075C190.131 88.0889 164.24 91.1795 142.586 85.1456C133.497 82.6155 124.834 78.4234 116.463 74.3657C107.397 69.9776 98.0279 65.4405 88.1276 63.0237C74.8823 59.797 60.3589 60.3267 46.0445 64.4378C46.085 64.2661 46.1304 64.0977 46.1806 63.9308C60.4869 59.8651 74.9924 59.3532 88.2377 62.5847C98.1834 65.0096 107.575 69.5613 116.659 73.9575C125.017 78.0055 133.658 82.1895 142.709 84.7099C164.262 90.7114 190.047 87.6288 217.276 75.7895C232.556 69.1483 247.144 60.4871 261.249 52.1142C267.377 48.4745 273.673 44.7343 280.012 41.1755H280.932L280.93 41.1772ZM434.977 155.103C434.783 155.307 434.583 155.506 434.383 155.697C426.935 157.066 419.257 157.623 411.637 157.333C388.206 156.449 363.243 147.946 339.442 132.746C336.709 131.001 333.962 129.151 331.3 127.365C322.153 121.214 312.697 114.858 302.108 111.458C290.703 107.791 278.556 107.673 266.81 107.559C244.594 107.342 221.627 107.12 200.271 114.798C183.744 120.741 169.162 131.217 155.06 141.342C144.562 148.886 133.706 156.682 122.064 162.615C104.771 171.437 84.7956 176.037 64.47 176.037C58.7083 176.037 52.9207 175.666 47.1541 174.918C36.878 173.585 26.8383 171.074 17.3008 167.502C17.432 167.439 17.5599 167.376 17.6912 167.316C51.1437 179.828 89.6826 178.621 121.857 162.212C133.47 156.292 144.313 148.505 154.798 140.976C168.923 130.826 183.532 120.338 200.117 114.372C221.549 106.667 245.595 106.901 266.815 107.106C278.596 107.219 290.776 107.34 302.244 111.022C312.896 114.445 322.378 120.822 331.553 126.987C334.21 128.774 336.957 130.619 339.684 132.359C363.418 147.517 388.305 155.993 411.653 156.878C419.568 157.178 427.414 156.56 434.975 155.101L434.977 155.103ZM436.477 232.852C408.205 253.029 373.464 264.324 338.761 264.324C327.016 264.324 315.285 263.031 303.799 260.354C288.469 256.777 273.528 250.907 259.087 245.233C243.067 238.941 226.504 232.436 209.388 229.056C172.031 221.676 129.064 228.597 81.6774 249.631C75.8752 252.205 70.1135 254.929 64.3939 257.759C64.389 257.595 64.3842 257.428 64.3842 257.26C70.0455 254.463 75.7521 251.766 81.496 249.219C128.965 228.145 172.028 221.211 209.473 228.612C226.635 231.997 243.216 238.517 259.249 244.812C273.682 250.483 288.6 256.343 303.903 259.915C349.159 270.476 398.395 259.434 436.114 232.563C436.237 232.658 436.354 232.754 436.477 232.852Z" fill="#0A7EFB"/>
<path d="M404.954 68.5505V256.184C404.954 259.252 401.772 261.738 397.85 261.738H146.561C142.637 261.738 139.457 259.25 139.457 256.184V68.5505H404.954Z" fill="url(#paint6_linear_635_2340)"/>
<path d="M396.323 68.5505V246.75C396.323 249.663 393.348 252.024 389.681 252.024H154.736C151.067 252.024 148.094 249.662 148.094 246.75V68.5505H396.323Z" fill="#EBF2F4"/>
<path d="M405.411 57.3198V68.6038H139.457V57.3198C139.457 53.3886 142.644 50.2031 146.574 50.2031H398.292C402.223 50.2031 405.409 53.3905 405.409 57.3198H405.411Z" fill="url(#paint7_linear_635_2340)"/>
<path d="M152.043 61.0094C152.93 61.0094 153.649 60.2906 153.649 59.4038C153.649 58.517 152.93 57.7981 152.043 57.7981C151.156 57.7981 150.438 58.517 150.438 59.4038C150.438 60.2906 151.156 61.0094 152.043 61.0094Z" fill="white"/>
<path d="M158.004 61.0094C158.891 61.0094 159.61 60.2906 159.61 59.4038C159.61 58.517 158.891 57.7981 158.004 57.7981C157.117 57.7981 156.398 58.517 156.398 59.4038C156.398 60.2906 157.117 61.0094 158.004 61.0094Z" fill="white"/>
<path d="M163.961 61.0093C164.848 61.0093 165.567 60.2904 165.567 59.4037C165.567 58.5169 164.848 57.798 163.961 57.798C163.074 57.798 162.355 58.5169 162.355 59.4037C162.355 60.2904 163.074 61.0093 163.961 61.0093Z" fill="white"/>
<rect x="122.195" y="78.2639" width="94.3579" height="110.084" rx="6.29053" fill="white"/>
<rect x="130.059" y="123.87" width="78.6316" height="6.29053" rx="1.57263" fill="url(#paint8_linear_635_2340)"/>
<rect x="130.059" y="134.878" width="58.1874" height="6.29053" rx="1.57263" fill="url(#paint9_linear_635_2340)"/>
<rect x="130.059" y="145.887" width="36.1705" height="6.29053" rx="1.57263" fill="url(#paint10_linear_635_2340)"/>
<path d="M135.036 178.933L132.568 180.407C132.458 180.468 132.35 180.493 132.245 180.483C132.139 180.473 132.047 180.438 131.966 180.377C131.886 180.317 131.826 180.234 131.786 180.129C131.746 180.024 131.741 179.916 131.771 179.806L132.418 177.052L130.236 175.202C130.146 175.121 130.091 175.029 130.071 174.923C130.051 174.818 130.056 174.715 130.086 174.615C130.116 174.515 130.171 174.432 130.251 174.367C130.331 174.301 130.432 174.264 130.552 174.254L133.411 173.998L134.539 171.38C134.589 171.27 134.66 171.187 134.75 171.132C134.84 171.077 134.935 171.049 135.036 171.049C135.136 171.049 135.231 171.077 135.322 171.132C135.412 171.187 135.482 171.27 135.532 171.38L136.661 174.013L139.519 174.254C139.64 174.264 139.74 174.304 139.82 174.374C139.9 174.444 139.956 174.53 139.986 174.63C140.016 174.73 140.018 174.831 139.993 174.931C139.968 175.031 139.911 175.121 139.82 175.202L137.654 177.052L138.301 179.806C138.331 179.916 138.326 180.024 138.286 180.129C138.245 180.234 138.185 180.317 138.105 180.377C138.025 180.438 137.932 180.473 137.827 180.483C137.721 180.493 137.614 180.468 137.503 180.407L135.036 178.933Z" fill="url(#paint11_linear_635_2340)"/>
<path d="M148.133 178.933L145.666 180.407C145.556 180.468 145.448 180.493 145.342 180.483C145.237 180.473 145.144 180.438 145.064 180.377C144.984 180.317 144.924 180.234 144.883 180.129C144.843 180.024 144.838 179.916 144.868 179.806L145.515 177.052L143.334 175.202C143.244 175.121 143.188 175.029 143.168 174.923C143.148 174.818 143.153 174.715 143.183 174.615C143.213 174.515 143.269 174.432 143.349 174.367C143.429 174.301 143.529 174.264 143.65 174.254L146.508 173.998L147.637 171.38C147.687 171.27 147.757 171.187 147.847 171.132C147.938 171.077 148.033 171.049 148.133 171.049C148.234 171.049 148.329 171.077 148.419 171.132C148.51 171.187 148.58 171.27 148.63 171.38L149.758 174.013L152.617 174.254C152.737 174.264 152.838 174.304 152.918 174.374C152.998 174.444 153.053 174.53 153.083 174.63C153.113 174.73 153.116 174.831 153.091 174.931C153.066 175.031 153.008 175.121 152.918 175.202L150.751 177.052L151.398 179.806C151.428 179.916 151.423 180.024 151.383 180.129C151.343 180.234 151.283 180.317 151.203 180.377C151.122 180.438 151.03 180.473 150.924 180.483C150.819 180.493 150.711 180.468 150.601 180.407L148.133 178.933Z" fill="url(#paint12_linear_635_2340)"/>
<path d="M161.235 178.933L158.767 180.407C158.657 180.468 158.549 180.493 158.444 180.483C158.339 180.473 158.246 180.438 158.166 180.377C158.085 180.317 158.025 180.234 157.985 180.129C157.945 180.024 157.94 179.916 157.97 179.806L158.617 177.052L156.435 175.202C156.345 175.121 156.29 175.029 156.27 174.923C156.25 174.818 156.255 174.715 156.285 174.615C156.315 174.515 156.37 174.432 156.45 174.367C156.531 174.301 156.631 174.264 156.751 174.254L159.61 173.998L160.738 171.38C160.789 171.27 160.859 171.187 160.949 171.132C161.039 171.077 161.135 171.049 161.235 171.049C161.335 171.049 161.431 171.077 161.521 171.132C161.611 171.187 161.681 171.27 161.731 171.38L162.86 174.013L165.719 174.254C165.839 174.264 165.939 174.304 166.019 174.374C166.1 174.444 166.155 174.53 166.185 174.63C166.215 174.73 166.218 174.831 166.192 174.931C166.167 175.031 166.11 175.121 166.019 175.202L163.853 177.052L164.5 179.806C164.53 179.916 164.525 180.024 164.485 180.129C164.445 180.234 164.384 180.317 164.304 180.377C164.224 180.438 164.131 180.473 164.026 180.483C163.921 180.493 163.813 180.468 163.702 180.407L161.235 178.933Z" fill="url(#paint13_linear_635_2340)"/>
<path d="M174.325 178.933L171.857 180.407C171.747 180.468 171.639 180.493 171.534 180.483C171.428 180.473 171.336 180.438 171.255 180.377C171.175 180.317 171.115 180.234 171.075 180.129C171.035 180.024 171.03 179.916 171.06 179.806L171.707 177.052L169.525 175.202C169.435 175.121 169.38 175.029 169.36 174.923C169.34 174.818 169.345 174.715 169.375 174.615C169.405 174.515 169.46 174.432 169.54 174.367C169.62 174.301 169.721 174.264 169.841 174.254L172.7 173.998L173.828 171.38C173.878 171.27 173.949 171.187 174.039 171.132C174.129 171.077 174.224 171.049 174.325 171.049C174.425 171.049 174.52 171.077 174.611 171.132C174.701 171.187 174.771 171.27 174.821 171.38L175.95 174.013L178.808 174.254C178.929 174.264 179.029 174.304 179.109 174.374C179.19 174.444 179.245 174.53 179.275 174.63C179.305 174.73 179.307 174.831 179.282 174.931C179.257 175.031 179.2 175.121 179.109 175.202L176.943 177.052L177.59 179.806C177.62 179.916 177.615 180.024 177.575 180.129C177.535 180.234 177.474 180.317 177.394 180.377C177.314 180.438 177.221 180.473 177.116 180.483C177.01 180.493 176.903 180.468 176.792 180.407L174.325 178.933Z" fill="url(#paint14_linear_635_2340)"/>
<path d="M187.422 178.933L184.955 180.407C184.845 180.468 184.737 180.493 184.631 180.483C184.526 180.473 184.433 180.438 184.353 180.377C184.273 180.317 184.213 180.234 184.173 180.129C184.132 180.024 184.127 179.916 184.158 179.806L184.804 177.052L182.623 175.202C182.533 175.121 182.477 175.029 182.457 174.923C182.437 174.818 182.442 174.715 182.472 174.615C182.502 174.515 182.558 174.432 182.638 174.367C182.718 174.301 182.818 174.264 182.939 174.254L185.797 173.998L186.926 171.38C186.976 171.27 187.046 171.187 187.137 171.132C187.227 171.077 187.322 171.049 187.422 171.049C187.523 171.049 187.618 171.077 187.708 171.132C187.799 171.187 187.869 171.27 187.919 171.38L189.047 174.013L191.906 174.254C192.026 174.264 192.127 174.304 192.207 174.374C192.287 174.444 192.342 174.53 192.372 174.63C192.403 174.73 192.405 174.831 192.38 174.931C192.355 175.031 192.297 175.121 192.207 175.202L190.04 177.052L190.687 179.806C190.717 179.916 190.712 180.024 190.672 180.129C190.632 180.234 190.572 180.317 190.492 180.377C190.411 180.438 190.319 180.473 190.213 180.483C190.108 180.493 190 180.468 189.89 180.407L187.422 178.933Z" fill="url(#paint15_linear_635_2340)"/>
<circle cx="145.785" cy="101.853" r="15.7263" fill="url(#paint16_linear_635_2340)"/>
<mask id="mask0_635_2340" style="mask-type:alpha" maskUnits="userSpaceOnUse" x="130" y="86" width="32" height="32">
<circle cx="145.785" cy="101.854" r="15.7263" fill="#D9D9D9"/>
</mask>
<g mask="url(#mask0_635_2340)">
<path d="M145.786 106.571C144.257 106.571 142.957 106.036 141.887 104.966C140.817 103.896 140.282 102.596 140.282 101.067C140.282 99.538 140.817 98.2384 141.887 97.1681C142.957 96.0979 144.257 95.5627 145.786 95.5627C147.315 95.5627 148.614 96.0979 149.685 97.1681C150.755 98.2384 151.29 99.538 151.29 101.067C151.29 102.596 150.755 103.896 149.685 104.966C148.614 106.036 147.315 106.571 145.786 106.571ZM134.777 114.827V113.91C134.777 113.324 134.937 112.77 135.255 112.247C135.574 111.725 136.013 111.285 136.574 110.929C137.975 110.113 139.46 109.489 141.027 109.056C142.594 108.623 144.18 108.406 145.786 108.406C147.391 108.406 148.977 108.623 150.545 109.056C152.112 109.489 153.596 110.113 154.998 110.929C155.558 111.26 155.998 111.693 156.316 112.228C156.635 112.763 156.794 113.324 156.794 113.91V114.827C156.794 115.592 156.527 116.242 155.991 116.777C155.456 117.312 154.807 117.58 154.042 117.58H137.529C136.765 117.58 136.115 117.312 135.58 116.777C135.045 116.242 134.777 115.592 134.777 114.827Z" fill="white"/>
</g>
<path d="M98.6563 207.597C97.2826 215.444 96.3272 222.436 96.124 228.91C95.7612 240.458 96.1043 254.82 98.1396 274.196L106.089 273.709C106.089 273.709 113.002 240.816 116.709 218.335C117.663 212.629 118.389 207.547 118.739 203.733C120.789 181.958 109.935 122.012 109.237 118.132L109.208 117.983L109.199 117.928L83.6638 115.861C71.1475 160.007 87.4201 169.084 98.6563 207.597Z" fill="url(#paint17_linear_635_2340)"/>
<path d="M52.8146 269.824C53.5667 266.383 64.8429 242.193 75.2407 227.193C77.7241 223.611 79.9055 220.36 81.9965 218.194C96.0477 203.637 107.519 122.191 107.516 122.19C107.519 122.192 81.273 115.857 81.2829 115.862C63.3881 134.526 72.8758 159.643 70.1528 186.778C69.2094 196.183 66.2597 205.113 61.7857 212.727C60.8845 214.268 60.031 215.836 59.2264 217.43C53.5443 228.624 50.1035 245.735 46.0733 267.022C46.0739 267.022 52.811 269.822 52.8146 269.824Z" fill="url(#paint18_linear_635_2340)"/>
<path d="M129.32 193.497C129.343 194.957 128.072 196.104 126.627 195.915C101.853 192.751 86.0079 201.026 66.3309 197.862C65.1781 197.677 64.0311 197.457 62.8916 197.202C60.8188 196.739 59.3032 194.933 59.1618 192.813C57.0261 160.863 58.6909 132.054 67.5009 113.594H113.584C113.584 113.594 128.817 165.347 129.32 193.497Z" fill="url(#paint19_linear_635_2340)"/>
<path d="M66.2089 167.161C66.2245 182.944 66.2874 192.594 66.3264 197.863C65.1736 197.677 64.0266 197.457 62.8871 197.203C60.8143 196.74 59.2987 194.934 59.1573 192.814C57.0216 160.864 58.6864 132.055 67.4963 113.594H69.6632L72.1445 116.044C72.1451 116.044 66.1777 140.362 66.2089 167.161Z" fill="url(#paint20_linear_635_2340)"/>
<path d="M102.874 10.5141C102.9 7.58684 102.012 4.52285 99.8646 2.53321C97.207 0.0716287 93.0287 -0.322871 89.4444 0.205205C85.8539 0.7338 81.9812 2.0909 79.0451 4.21464C74.4582 7.53226 70.7139 13.1186 69.3531 18.614C67.7762 24.9837 71.4691 31.948 69.2673 38.1295C67.6878 42.564 63.4991 45.4113 60.116 48.6852C56.7344 51.9592 53.8757 56.9343 55.8794 61.1943C58.1617 66.0468 62.5978 65.3446 65.2267 70.0177C66.8832 72.9616 67.2081 78.6312 68.5241 81.7419C69.8781 84.9421 74.3496 87.1646 78.5913 86.5144C82.0264 85.9878 85.3009 83.8428 86.3389 80.5262C87.0322 78.3105 86.8056 75.8817 87.5385 73.6779C88.6669 70.2864 91.802 68.0541 94.2049 65.4075C99.9675 59.0622 101.606 49.2809 97.1644 41.445C100.795 34.7578 102.47 27.518 100.128 19.1442C102.016 16.2944 102.849 13.4414 102.874 10.5141Z" fill="url(#paint21_linear_635_2340)"/>
<path d="M135.374 59.4478L146.741 63.5138L154.746 41.1372L143.379 37.0706L135.374 59.4478Z" fill="url(#paint22_linear_635_2340)"/>
<path d="M114.757 84.5064C114.757 84.5064 115.66 102.953 125.297 103.754C133.381 104.44 142.657 73.4194 149.036 65.2452C155.176 57.376 158.667 51.0214 154.484 48.524C143.44 41.9293 142.825 53.1701 142.4 61.7675L129.466 81.748L112.412 48.9928L114.757 84.5064ZM36.4499 155.729C41.3959 156.956 46.4963 149.228 46.4963 149.228C46.4963 149.228 48.5031 154.248 50.0411 151.959C51.5791 149.658 49.0972 143.467 49.0972 143.467L50.5208 138.789L66.386 86.705L72.175 44.6237C62.1192 48.8702 45.9953 116.872 43.3767 136.856C42.8934 140.53 42.6392 142.691 42.6392 142.691C42.6392 142.691 31.1296 154.408 36.4499 155.729Z" fill="url(#paint23_linear_635_2340)"/>
<path d="M149.355 65.7857C145.814 75.7973 133.234 104.172 125.185 104.172C124.714 104.172 124.243 104.07 123.772 103.874C120.435 102.492 117.232 96.4926 114.829 90.7217C112.481 85.0683 110.902 79.6347 110.706 78.9434L110.683 78.8727C109.78 87.7455 113.219 114.796 114.279 114.419C102.823 118.369 88.7289 119.185 75.0031 116.712L74.9091 116.688C71.9754 116.163 69.0713 115.484 66.2088 114.655C73.7152 103.763 75.9922 84.589 72.145 78.1347C72.1138 78.4091 72.0587 78.7469 71.9802 79.1399C69.8757 89.8111 50.8863 143.24 50.7137 143.201C48.6487 142.714 41.6601 141.24 41.6834 141.075C44.4158 120.747 62.1365 49.4715 70.8534 42.987C78.3156 37.4359 86.6785 36.1121 86.7409 36.1199L96.0035 36.293C96.0581 36.293 110.896 41.4526 115.018 50.2059C118.714 58.0548 129.214 81.181 129.214 81.181C129.315 81.4481 129.677 81.4871 129.826 81.2439L141.992 60.2991C142.101 60.1266 149.403 65.6448 149.355 65.7857Z" fill="url(#paint24_linear_635_2340)"/>
<path d="M86.7431 36.1337C86.9941 36.5339 87.2545 36.9061 87.5149 37.2408C90.0358 40.4867 92.817 40.6078 96.0078 36.3291C95.803 35.3244 95.2729 31.8919 94.8914 29.7245C94.7521 28.869 94.6309 28.2084 94.566 27.9761L87.701 27.4641L86.7431 36.1337Z" fill="url(#paint25_linear_635_2340)"/>
<path d="M86.7463 36.1338C86.9973 36.534 87.2577 36.9061 87.5181 37.2408C87.7317 35.3151 88.4297 31.7434 90.5504 31.7059C93.3129 31.6597 94.7547 29.9013 94.8945 29.7246C94.7552 28.8691 94.6341 28.2085 94.5691 27.9761L87.7042 27.4642L86.7463 36.1338Z" fill="#FFCECF"/>
<path d="M72.1497 116.043L66.2135 114.654C73.7199 103.763 75.9824 84.6791 72.1351 78.2248L74.0967 72.3967C78.7012 81.3241 81.5292 94.632 72.1497 116.043ZM123.777 103.874C120.44 102.492 117.237 96.4928 114.834 90.7219L110.712 78.9436L110.688 78.8729C112.474 71.759 112.115 68.208 111.199 62.2385C115.615 69.7958 114.143 96.0998 123.777 103.874Z" fill="url(#paint26_linear_635_2340)"/>
<path d="M98.026 273.521L96.1024 279.91L97.4481 290.703L99.5859 290.804L101.521 281.351L104.981 287.62C105.913 289.309 107.31 290.689 109.223 290.934C114.267 291.58 124.123 291.735 124.526 288.426C124.941 285.024 115.387 284.892 112.591 281.157C109.884 277.54 106.086 273.276 106.086 273.276L98.026 273.521Z" fill="url(#paint27_linear_635_2340)"/>
<path d="M46.9475 262.963L41.5867 266.935L36.2144 276.393L37.8683 277.751L45.0696 271.329L44.0972 278.423C43.8352 280.334 44.1304 282.275 45.5171 283.615C49.1752 287.148 56.9846 293.163 59.2856 290.751C61.651 288.271 55.167 282.323 54.0609 277.79C52.9175 273.102 53.5562 267.583 53.5562 267.583L46.9475 262.963Z" fill="url(#paint28_linear_635_2340)"/>
<path d="M97.7138 27.9017C88.3161 35.9034 83.0249 21.3803 83.0249 21.3803C83.0249 21.3803 78.8476 19.4556 80.4974 15.6406C81.9584 12.2611 85.5988 16.4306 85.5988 16.4306C90.5568 16.4311 94.4976 12.1301 96.5584 9.2808C97.283 8.27558 98.8303 8.497 99.2181 9.66646C100.155 12.5033 101.312 17.0086 100.91 21.097C100.649 23.7228 99.7393 26.1735 97.7138 27.9017Z" fill="url(#paint29_linear_635_2340)"/>
<rect x="227.953" y="78.2637" width="157.572" height="164.047" rx="4.31703" fill="white"/>
<path d="M288.523 90.3121V148.7C288.523 149.812 288.081 150.88 287.294 151.666C286.507 152.453 285.44 152.895 284.327 152.895H240.086C238.973 152.895 237.906 152.453 237.119 151.666C236.333 150.88 235.891 149.812 235.891 148.7V90.3121C235.891 89.1994 236.333 88.1323 237.119 87.3455C237.906 86.5587 238.973 86.1167 240.086 86.1167H284.327C285.44 86.1167 286.507 86.5587 287.294 87.3455C288.081 88.1323 288.523 89.1994 288.523 90.3121Z" fill="url(#paint30_linear_635_2340)"/>
<path d="M261.918 93.4821L261.914 93.4822L261.981 99.3343L261.985 99.3342C266.987 99.2771 271.095 103.292 271.152 108.295C271.209 113.305 267.195 117.413 262.192 117.47L262.188 117.47L262.255 123.322L262.259 123.322C270.489 123.228 277.099 116.474 277.005 108.228C276.911 99.9977 270.148 93.3881 261.918 93.4821Z" fill="url(#paint31_linear_635_2340)"/>
<path d="M253.011 108.502C252.954 103.502 256.966 99.3941 261.975 99.3347L261.909 93.4826C253.664 93.579 247.065 100.34 247.159 108.569C247.253 116.814 254.005 123.415 262.25 123.323L262.183 117.47C257.173 117.525 253.068 113.512 253.011 108.502Z" fill="white"/>
<path d="M282.372 133.616C282.379 134.197 282.154 134.757 281.748 135.173C281.342 135.588 280.787 135.825 280.206 135.832L244.585 136.239C244.004 136.246 243.444 136.021 243.028 135.615C242.613 135.209 242.375 134.654 242.369 134.073C242.362 133.492 242.587 132.932 242.993 132.516C243.399 132.1 243.954 131.863 244.535 131.857L280.156 131.45C280.737 131.443 281.297 131.667 281.712 132.074C282.128 132.48 282.365 133.035 282.372 133.616Z" fill="white"/>
<path d="M282.477 142.527C282.484 143.108 282.259 143.668 281.853 144.084C281.447 144.5 280.892 144.737 280.311 144.743L244.691 145.15C244.109 145.157 243.549 144.933 243.134 144.526C242.718 144.12 242.481 143.565 242.474 142.984C242.468 142.403 242.692 141.843 243.098 141.427C243.505 141.012 244.059 140.775 244.64 140.768L280.261 140.361C280.842 140.354 281.402 140.579 281.818 140.985C282.233 141.391 282.471 141.946 282.477 142.527Z" fill="white"/>
<path d="M315.753 163.985V205.932C315.753 206.913 315.364 207.854 314.67 208.547C313.976 209.241 313.036 209.631 312.055 209.631H239.213C238.233 209.631 237.292 209.241 236.599 208.547C235.905 207.854 235.516 206.913 235.516 205.932V163.985C235.516 163.004 235.906 162.064 236.599 161.37C237.292 160.677 238.233 160.287 239.213 160.287H312.054C313.034 160.287 313.975 160.677 314.668 161.37C315.362 162.064 315.751 163.004 315.752 163.985H315.753Z" fill="url(#paint32_linear_635_2340)"/>
<path d="M378.794 164.39V166.566C378.794 166.67 378.774 166.774 378.733 166.87C378.693 166.967 378.634 167.055 378.56 167.129C378.486 167.202 378.399 167.261 378.302 167.301C378.205 167.341 378.102 167.361 377.997 167.361H324.839C324.628 167.361 324.425 167.277 324.276 167.128C324.127 166.979 324.043 166.776 324.043 166.566V164.39C324.043 163.949 324.399 163.593 324.839 163.593H377.998C378.437 163.593 378.793 163.949 378.793 164.39H378.794Z" fill="url(#paint33_linear_635_2340)" fill-opacity="0.48"/>
<path d="M378.794 172.871V175.047C378.794 175.152 378.774 175.256 378.734 175.352C378.694 175.449 378.635 175.537 378.561 175.611C378.487 175.685 378.399 175.743 378.302 175.783C378.205 175.823 378.102 175.844 377.997 175.844H324.839C324.627 175.844 324.425 175.76 324.276 175.61C324.127 175.461 324.043 175.258 324.043 175.047V172.871C324.043 172.432 324.399 172.076 324.839 172.076H377.998C378.437 172.076 378.793 172.432 378.793 172.871H378.794Z" fill="url(#paint34_linear_635_2340)"/>
<path d="M351.419 181.354V183.53C351.419 183.635 351.398 183.739 351.358 183.835C351.318 183.932 351.259 184.02 351.185 184.094C351.111 184.168 351.023 184.226 350.926 184.266C350.83 184.306 350.726 184.327 350.621 184.327H324.839C324.734 184.327 324.63 184.306 324.534 184.266C324.437 184.226 324.349 184.167 324.276 184.093C324.202 184.019 324.143 183.931 324.103 183.834C324.063 183.737 324.043 183.634 324.043 183.529V181.354C324.043 180.915 324.399 180.558 324.839 180.558H350.622C351.062 180.558 351.419 180.915 351.419 181.354Z" fill="url(#paint35_linear_635_2340)"/>
<path d="M378.794 189.836V192.012C378.795 192.117 378.774 192.221 378.734 192.318C378.694 192.415 378.635 192.502 378.561 192.577C378.487 192.651 378.399 192.709 378.302 192.749C378.205 192.789 378.102 192.81 377.997 192.81H324.839C324.734 192.81 324.63 192.789 324.534 192.749C324.437 192.709 324.349 192.65 324.276 192.576C324.202 192.502 324.143 192.414 324.103 192.317C324.063 192.221 324.043 192.117 324.043 192.012V189.836C324.043 189.397 324.399 189.041 324.839 189.041H377.998C378.437 189.041 378.793 189.397 378.793 189.836H378.794Z" fill="url(#paint36_linear_635_2340)"/>
<path d="M354.194 197.522H324.839C324.627 197.523 324.425 197.607 324.276 197.756C324.127 197.905 324.043 198.108 324.043 198.319V200.495C324.043 200.935 324.399 201.292 324.839 201.292H354.194C354.405 201.291 354.607 201.207 354.756 201.058C354.906 200.909 354.989 200.706 354.989 200.495V198.319C354.989 198.108 354.906 197.905 354.756 197.756C354.607 197.607 354.405 197.523 354.194 197.522Z" fill="url(#paint37_linear_635_2340)"/>
<path d="M365.172 198.319V200.495C365.172 200.935 365.529 201.292 365.969 201.292H373.775C373.987 201.292 374.189 201.208 374.339 201.058C374.488 200.909 374.572 200.706 374.572 200.495V198.319C374.572 198.214 374.551 198.111 374.511 198.014C374.471 197.917 374.412 197.829 374.338 197.755C374.264 197.681 374.176 197.623 374.079 197.583C373.983 197.543 373.879 197.522 373.774 197.522H365.968C365.757 197.522 365.555 197.606 365.405 197.756C365.256 197.905 365.172 198.108 365.172 198.319Z" fill="url(#paint38_linear_635_2340)"/>
<path d="M320.089 217.606V231.429C320.089 232.31 319.375 233.024 318.494 233.024H299.205C298.782 233.024 298.376 232.856 298.077 232.557C297.778 232.258 297.61 231.852 297.609 231.429V217.606C297.609 216.725 298.323 216.01 299.204 216.01H318.493C319.375 216.01 320.089 216.725 320.089 217.606Z" fill="url(#paint39_linear_635_2340)"/>
<path d="M311.393 225.121L307.198 228.216C307.087 228.298 306.955 228.348 306.818 228.36C306.68 228.371 306.542 228.344 306.418 228.282C306.295 228.22 306.191 228.125 306.119 228.007C306.046 227.889 306.008 227.754 306.008 227.616V221.419C306.008 221.28 306.046 221.145 306.119 221.027C306.191 220.909 306.295 220.814 306.418 220.751C306.542 220.689 306.68 220.662 306.818 220.674C306.956 220.686 307.088 220.736 307.199 220.818L311.394 223.92C311.488 223.989 311.564 224.08 311.617 224.184C311.669 224.288 311.697 224.404 311.697 224.52C311.697 224.637 311.669 224.753 311.617 224.857C311.564 224.961 311.488 225.052 311.394 225.121H311.393Z" fill="white"/>
<path d="M348.972 217.606V231.429C348.972 232.31 348.257 233.024 347.375 233.024H328.088C327.665 233.024 327.259 232.856 326.96 232.557C326.661 232.258 326.492 231.852 326.492 231.429V217.606C326.492 216.725 327.206 216.01 328.087 216.01H347.376C348.258 216.01 348.973 216.725 348.973 217.606H348.972Z" fill="url(#paint40_linear_635_2340)"/>
<path d="M340.269 225.121L336.073 228.216C335.962 228.298 335.83 228.348 335.693 228.36C335.555 228.371 335.417 228.344 335.293 228.282C335.17 228.22 335.066 228.125 334.994 228.007C334.921 227.889 334.883 227.754 334.883 227.616V221.419C334.883 221.28 334.921 221.145 334.994 221.027C335.066 220.909 335.17 220.814 335.294 220.751C335.417 220.689 335.555 220.662 335.693 220.674C335.831 220.686 335.963 220.736 336.074 220.818L340.269 223.92C340.363 223.989 340.439 224.08 340.492 224.184C340.545 224.288 340.572 224.404 340.572 224.52C340.572 224.637 340.545 224.753 340.492 224.857C340.439 224.961 340.363 225.052 340.269 225.121Z" fill="white"/>
<path d="M377.844 217.606V231.429C377.844 232.31 377.129 233.024 376.248 233.024H356.959C356.536 233.024 356.13 232.856 355.831 232.557C355.532 232.258 355.364 231.852 355.363 231.429V217.606C355.363 216.725 356.078 216.01 356.959 216.01H376.248C377.129 216.01 377.844 216.725 377.844 217.606Z" fill="url(#paint41_linear_635_2340)"/>
<path d="M369.152 225.121L364.956 228.216C364.845 228.298 364.713 228.348 364.575 228.36C364.438 228.371 364.299 228.344 364.176 228.282C364.053 228.22 363.949 228.125 363.877 228.007C363.804 227.889 363.766 227.754 363.766 227.616V221.419C363.766 221.28 363.804 221.145 363.876 221.027C363.949 220.909 364.053 220.814 364.176 220.751C364.3 220.689 364.438 220.662 364.576 220.674C364.714 220.686 364.846 220.736 364.957 220.818L369.152 223.92C369.246 223.989 369.322 224.08 369.375 224.184C369.427 224.288 369.455 224.404 369.455 224.52C369.455 224.637 369.427 224.753 369.375 224.857C369.322 224.961 369.246 225.052 369.152 225.121Z" fill="white"/>
<path d="M285.067 218.112C285.067 218.669 284.846 219.204 284.452 219.598C284.058 219.992 283.523 220.214 282.966 220.214H237.614C237.056 220.214 236.522 219.992 236.127 219.598C235.733 219.204 235.512 218.669 235.512 218.112C235.512 217.554 235.733 217.02 236.127 216.626C236.522 216.231 237.056 216.01 237.614 216.01H282.966C284.127 216.01 285.067 216.951 285.067 218.112Z" fill="url(#paint42_linear_635_2340)"/>
<path d="M272.29 227.134C272.29 227.41 272.236 227.684 272.13 227.939C272.025 228.194 271.87 228.426 271.675 228.621C271.479 228.817 271.247 228.972 270.992 229.077C270.737 229.183 270.464 229.237 270.187 229.237H237.614C237.056 229.237 236.522 229.016 236.127 228.621C235.733 228.227 235.512 227.693 235.512 227.135C235.512 226.578 235.733 226.043 236.127 225.649C236.522 225.255 237.056 225.033 237.614 225.033H270.187C271.348 225.033 272.29 225.973 272.29 227.134Z" fill="url(#paint43_linear_635_2340)"/>
<path d="M289.566 178.177C289.566 185.245 283.834 190.986 276.757 190.986C269.689 190.986 263.957 185.245 263.957 178.177C263.957 171.108 269.689 165.376 276.757 165.376C283.834 165.376 289.566 171.108 289.566 178.177Z" fill="white"/>
<path d="M281.641 179.292L276.165 183.715C275.231 184.469 273.84 183.804 273.84 182.604V173.758C273.84 172.558 275.231 171.893 276.165 172.647L281.641 177.07C281.807 177.204 281.94 177.373 282.032 177.566C282.124 177.758 282.172 177.968 282.172 178.181C282.172 178.394 282.124 178.604 282.032 178.797C281.94 178.989 281.807 179.158 281.641 179.292Z" fill="url(#paint44_linear_635_2340)"/>
<path d="M248.537 201.302L244.239 204.773C243.506 205.366 242.414 204.843 242.414 203.902V196.96C242.414 196.018 243.506 195.497 244.239 196.088L248.537 199.559C248.667 199.664 248.772 199.797 248.844 199.948C248.916 200.099 248.953 200.264 248.953 200.431C248.953 200.598 248.916 200.763 248.844 200.914C248.772 201.064 248.667 201.197 248.537 201.302ZM310.487 200.431C310.487 200.829 310.165 201.151 309.767 201.151H256.842C256.656 201.144 256.479 201.066 256.349 200.931C256.22 200.797 256.148 200.618 256.148 200.431C256.148 200.245 256.22 200.065 256.349 199.931C256.479 199.797 256.656 199.718 256.842 199.711H309.768C310.166 199.711 310.488 200.034 310.488 200.431H310.487Z" fill="white"/>
<path d="M267.67 199.348V201.513C267.674 201.667 267.648 201.82 267.592 201.964C267.536 202.107 267.452 202.238 267.345 202.348C267.237 202.459 267.109 202.547 266.967 202.607C266.825 202.667 266.673 202.698 266.519 202.698C266.365 202.698 266.212 202.667 266.07 202.607C265.929 202.547 265.8 202.459 265.693 202.348C265.586 202.238 265.501 202.107 265.446 201.964C265.39 201.82 265.363 201.667 265.368 201.513V199.348C265.363 199.194 265.39 199.041 265.446 198.898C265.501 198.754 265.586 198.623 265.693 198.513C265.8 198.402 265.929 198.314 266.07 198.254C266.212 198.194 266.365 198.164 266.519 198.164C266.673 198.164 266.825 198.194 266.967 198.254C267.109 198.314 267.237 198.402 267.345 198.513C267.452 198.623 267.536 198.754 267.592 198.898C267.648 199.041 267.674 199.194 267.67 199.348Z" fill="url(#paint45_linear_635_2340)"/>
<path d="M418.384 146.232C418.386 147.692 417.805 149.093 416.767 150.129C415.73 151.164 414.322 151.749 412.851 151.755L390.464 151.798L316.528 151.937C313.469 151.939 310.973 149.478 310.972 146.442L310.892 110.749L310.85 92.9784C310.85 89.9418 313.326 87.4658 316.386 87.4654L341.146 87.4215L412.708 87.2833C413.437 87.2802 414.159 87.4201 414.834 87.6949C415.508 87.9698 416.121 88.3741 416.637 88.8847C417.153 89.3954 417.563 90.0022 417.842 90.6704C418.122 91.3386 418.265 92.055 418.265 92.7783L418.356 131.498L418.384 146.232Z" fill="url(#paint46_linear_635_2340)"/>
<path d="M397.072 101.86C397.084 98.6842 399.668 96.1203 402.843 96.1329C406.019 96.1455 408.583 98.7299 408.57 101.905L408.437 136.694C408.424 139.869 405.84 142.433 402.665 142.42C399.49 142.408 396.926 139.823 396.938 136.648L397.072 101.86Z" fill="white"/>
<path d="M371.443 120.096C371.455 116.92 374.039 114.356 377.214 114.369C380.39 114.382 382.954 116.966 382.942 120.141L382.878 136.593C382.866 139.768 380.282 142.332 377.107 142.319C373.931 142.307 371.367 139.722 371.379 136.547L371.443 120.096Z" fill="white"/>
<path d="M345.908 116.938C345.92 113.763 348.504 111.199 351.679 111.212C354.854 111.224 357.419 113.808 357.406 116.984L357.331 136.491C357.319 139.667 354.735 142.231 351.56 142.218C348.385 142.205 345.82 139.621 345.833 136.446L345.908 116.938Z" fill="white"/>
<path d="M317.457 133.968C317.528 130.827 320.132 128.339 323.273 128.41C326.413 128.481 328.902 131.084 328.831 134.225L328.74 138.239C328.669 141.38 326.066 143.868 322.925 143.797C319.784 143.726 317.296 141.123 317.367 137.982L317.457 133.968Z" fill="white"/>
<path d="M327.149 130.651C329.736 130.651 331.833 128.554 331.833 125.967C331.833 123.38 329.736 121.282 327.149 121.282C324.562 121.282 322.465 123.38 322.465 125.967C322.465 128.554 324.562 130.651 327.149 130.651Z" fill="url(#paint47_linear_635_2340)"/>
<path d="M298.375 144.704C299.006 142.969 299.695 141.255 300.442 139.562C301.196 137.873 302.011 136.208 302.918 134.59C303.026 134.386 303.148 134.187 303.265 133.986L303.617 133.384L303.984 132.793C304.107 132.596 304.228 132.397 304.358 132.202L304.742 131.619C304.805 131.521 304.873 131.426 304.939 131.33L305.14 131.044C305.402 130.659 305.686 130.288 305.964 129.912C306.534 129.171 307.133 128.45 307.772 127.762C308.417 127.073 309.103 126.423 309.826 125.817C310.558 125.207 311.339 124.658 312.161 124.177C312.99 123.688 313.866 123.285 314.777 122.972C315.695 122.658 316.646 122.449 317.612 122.349C318.585 122.248 319.567 122.268 320.536 122.407L320.897 122.464L320.988 122.479L321.077 122.496L321.256 122.532C321.495 122.577 321.73 122.637 321.965 122.694C322.432 122.816 322.895 122.951 323.343 123.108C324.245 123.413 325.108 123.767 325.96 124.083C326.386 124.244 326.809 124.391 327.232 124.525C327.655 124.66 328.078 124.771 328.502 124.865L328.82 124.926L328.981 124.956L329.143 124.98C329.251 124.995 329.355 125.011 329.462 125.025L329.78 125.056C329.834 125.061 329.888 125.068 329.942 125.071L330.103 125.078C330.211 125.083 330.319 125.09 330.423 125.093H330.904L331.065 125.083C331.922 125.036 332.77 124.885 333.59 124.634C334.001 124.508 334.404 124.359 334.798 124.189C335.19 124.015 335.573 123.82 335.944 123.605C336.313 123.387 336.671 123.148 337.021 122.893C337.371 122.638 337.699 122.356 338.022 122.067C338.668 121.473 339.267 120.829 339.814 120.143C340.926 118.761 341.879 117.222 342.829 115.652C343.304 114.866 343.778 114.069 344.275 113.274C344.772 112.48 345.294 111.685 345.881 110.915C346.467 110.144 347.115 109.394 347.885 108.729C348.274 108.391 348.691 108.085 349.13 107.815C349.58 107.54 350.057 107.31 350.552 107.129C351.051 106.947 351.567 106.818 352.093 106.743C352.619 106.666 353.152 106.644 353.683 106.678C354.22 106.712 354.75 106.808 355.265 106.964C355.772 107.117 356.262 107.321 356.729 107.571C357.649 108.067 358.444 108.7 359.16 109.363C359.875 110.026 360.521 110.729 361.146 111.422C361.77 112.114 362.37 112.803 362.987 113.45C363.604 114.097 364.234 114.704 364.905 115.217C365.575 115.729 366.282 116.147 367.029 116.399C367.774 116.656 368.564 116.758 369.35 116.699L369.496 116.688L369.642 116.67C369.74 116.661 369.836 116.641 369.932 116.627C370.125 116.592 370.316 116.547 370.505 116.493C370.887 116.382 371.257 116.235 371.611 116.054C372.329 115.688 373.003 115.186 373.629 114.607C374.264 114.011 374.852 113.366 375.386 112.678C375.933 111.983 376.448 111.25 376.942 110.496C377.928 108.987 378.83 107.398 379.721 105.795C381.498 102.583 383.198 99.2871 385.111 96.0908C386.065 94.4916 387.065 92.9128 388.143 91.3813C389.22 89.8424 390.385 88.3672 391.634 86.963C392.888 85.5508 394.256 84.2441 395.725 83.0563C397.2 81.8634 398.795 80.8263 400.484 79.9616C400.905 79.7466 401.335 79.5446 401.768 79.3516L402.094 79.2103C402.202 79.1636 402.314 79.1216 402.424 79.077L403.084 78.8143C403.306 78.732 403.531 78.6563 403.754 78.5773L404.089 78.4601C404.201 78.4225 404.315 78.3897 404.428 78.3527L405.107 78.1458L405.793 77.9663L406.136 77.8771L406.482 77.8013C406.713 77.7513 406.943 77.6992 407.174 77.6508L407.871 77.5256C407.987 77.5058 408.102 77.4816 408.219 77.4655L408.569 77.4155C409.5 77.2792 410.438 77.1895 411.378 77.1468L412.082 77.1215C412.2 77.1156 412.317 77.1172 412.435 77.1167H413.138C413.256 77.1167 413.372 77.1221 413.49 77.1242L414.19 77.1436L414.89 77.1828L415.24 77.2032L415.589 77.2333C415.823 77.2543 416.056 77.2715 416.289 77.2951L416.985 77.3752C417.218 77.3994 417.448 77.4348 417.679 77.4671L418.026 77.516C418.142 77.5315 418.257 77.5487 418.372 77.5697L419.061 77.6852C419.177 77.7035 419.291 77.7255 419.405 77.7476L419.748 77.8131C420.207 77.8964 420.661 78.0001 421.116 78.0979L421.795 78.2592L422.134 78.3408L422.471 78.4295C426.072 79.3635 429.544 80.7042 432.881 82.2905C429.452 80.9127 425.936 79.7482 422.34 78.9825L422.003 78.9099L421.665 78.8444L420.989 78.7143C420.536 78.6385 420.085 78.5531 419.632 78.4892L419.292 78.4354C419.179 78.4182 419.065 78.401 418.952 78.3876L418.27 78.3016C418.156 78.286 418.043 78.2742 417.929 78.2635L417.576 78.2312C417.348 78.2086 417.121 78.1828 416.893 78.1683L416.209 78.1173C415.981 78.1028 415.753 78.0942 415.525 78.0818L415.183 78.0652L414.841 78.0576L414.157 78.0442L413.473 78.0501C413.359 78.0501 413.245 78.0501 413.132 78.0555L412.79 78.0689L412.45 78.0824C412.336 78.0872 412.222 78.0899 412.109 78.0996L411.429 78.1485C410.524 78.2291 409.621 78.3301 408.73 78.4967L408.396 78.5553C408.285 78.5741 408.174 78.6009 408.063 78.6235L407.4 78.7648C407.18 78.8186 406.961 78.875 406.742 78.9303L406.414 79.0136L406.091 79.1093L405.441 79.3017L404.8 79.5166C404.693 79.5532 404.585 79.587 404.48 79.6241L404.165 79.745C403.955 79.8261 403.743 79.9062 403.535 79.9879L402.914 80.2566C402.811 80.3017 402.707 80.3442 402.605 80.3915L402.299 80.5344C401.894 80.7289 401.491 80.9299 401.097 81.147C399.517 82.0125 398.029 83.0348 396.655 84.1982C395.279 85.3686 393.999 86.6464 392.827 88.0195C391.648 89.3993 390.55 90.8462 389.539 92.3529C388.516 93.8575 387.562 95.4159 386.65 96.999C385.737 98.5821 384.867 100.199 384.002 101.824C383.137 103.448 382.287 105.088 381.406 106.721C380.526 108.355 379.609 109.982 378.589 111.572C378.076 112.366 377.535 113.149 376.945 113.908C376.351 114.683 375.696 115.409 374.988 116.081C374.264 116.758 373.448 117.378 372.52 117.855C371.578 118.345 370.547 118.642 369.488 118.726C368.425 118.807 367.356 118.669 366.348 118.323C365.853 118.152 365.374 117.936 364.919 117.678C364.476 117.426 364.051 117.144 363.647 116.833C362.85 116.222 362.151 115.54 361.493 114.851C360.836 114.161 360.224 113.457 359.614 112.775C359.005 112.094 358.399 111.434 357.764 110.841C357.129 110.247 356.463 109.726 355.757 109.336C355.052 108.946 354.304 108.713 353.531 108.662C353.139 108.634 352.745 108.648 352.356 108.703C351.966 108.756 351.582 108.849 351.211 108.981C350.469 109.244 349.78 109.669 349.148 110.208C348.516 110.746 347.939 111.39 347.4 112.084C346.861 112.777 346.359 113.523 345.868 114.287C345.377 115.051 344.899 115.836 344.412 116.624C343.437 118.2 342.415 119.794 341.189 121.273C340.574 122.023 339.901 122.724 339.177 123.369C338.809 123.691 338.427 124 338.027 124.288C337.626 124.575 337.209 124.841 336.779 125.084C336.346 125.324 335.9 125.54 335.444 125.732C334.986 125.919 334.519 126.08 334.044 126.215C333.09 126.487 332.106 126.642 331.114 126.677L330.927 126.684H330.74L330.367 126.678C330.242 126.672 330.118 126.662 329.994 126.654L329.807 126.641C329.745 126.636 329.684 126.627 329.622 126.621L329.252 126.577C329.13 126.558 329.008 126.536 328.886 126.516L328.703 126.485L328.522 126.446L328.162 126.368C327.686 126.25 327.218 126.114 326.762 125.958C326.306 125.802 325.862 125.636 325.428 125.459C324.556 125.111 323.716 124.744 322.874 124.438C322.453 124.28 322.032 124.145 321.608 124.021C321.396 123.963 321.184 123.903 320.97 123.86L320.809 123.823L320.729 123.804L320.648 123.789L320.325 123.729C319.466 123.581 318.592 123.54 317.722 123.605C316.846 123.673 315.979 123.837 315.138 124.094C313.449 124.61 311.873 125.5 310.454 126.601C309.741 127.156 309.062 127.754 308.422 128.391C307.781 129.033 307.175 129.713 306.591 130.412C306.306 130.768 306.014 131.119 305.742 131.487L305.534 131.76C305.465 131.85 305.396 131.941 305.33 132.035L304.93 132.593C304.794 132.777 304.668 132.969 304.539 133.157L304.152 133.726L303.779 134.304C303.655 134.497 303.528 134.688 303.411 134.885C302.442 136.444 301.554 138.056 300.722 139.702C299.891 141.348 299.114 143.015 298.375 144.704Z" fill="url(#paint48_linear_635_2340)"/>
<path d="M352.917 113.252C355.689 113.252 357.936 111.155 357.936 108.568C357.936 105.981 355.689 103.884 352.917 103.884C350.145 103.884 347.898 105.981 347.898 108.568C347.898 111.155 350.145 113.252 352.917 113.252Z" fill="url(#paint49_linear_635_2340)"/>
<path d="M402.766 85.1469C405.353 85.1469 407.451 83.0497 407.451 80.4626C407.451 77.8756 405.353 75.7783 402.766 75.7783C400.179 75.7783 398.082 77.8756 398.082 80.4626C398.082 83.0497 400.179 85.1469 402.766 85.1469Z" fill="url(#paint50_linear_635_2340)"/>
<defs>
<linearGradient id="paint0_linear_635_2340" x1="501.491" y1="216.986" x2="430.841" y2="225.86" gradientUnits="userSpaceOnUse">
<stop stop-color="#A643D3"/>
<stop offset="1" stop-color="#140F1E"/>
</linearGradient>
<linearGradient id="paint1_linear_635_2340" x1="487.573" y1="219.105" x2="415.54" y2="227.62" gradientUnits="userSpaceOnUse">
<stop stop-color="#A643D3"/>
<stop offset="1" stop-color="#140F1E"/>
</linearGradient>
<linearGradient id="paint2_linear_635_2340" x1="407.19" y1="213.27" x2="439.457" y2="167.957" gradientUnits="userSpaceOnUse">
<stop offset="0.184024" stop-color="#006D5E"/>
<stop offset="1" stop-color="#10F1D3"/>
</linearGradient>
<linearGradient id="paint3_linear_635_2340" x1="407.243" y1="213.621" x2="438.172" y2="168.552" gradientUnits="userSpaceOnUse">
<stop offset="0.184024" stop-color="#006D5E"/>
<stop offset="1" stop-color="#10F1D3"/>
</linearGradient>
<linearGradient id="paint4_linear_635_2340" x1="411.85" y1="216.857" x2="423.667" y2="177.205" gradientUnits="userSpaceOnUse">
<stop offset="0.184024" stop-color="#006D5E"/>
<stop offset="1" stop-color="#10F1D3"/>
</linearGradient>
<linearGradient id="paint5_linear_635_2340" x1="412.015" y1="217.81" x2="419.993" y2="182.847" gradientUnits="userSpaceOnUse">
<stop offset="0.184024" stop-color="#006D5E"/>
<stop offset="1" stop-color="#10F1D3"/>
</linearGradient>
<linearGradient id="paint6_linear_635_2340" x1="272.206" y1="68.5505" x2="272.206" y2="261.738" gradientUnits="userSpaceOnUse">
<stop stop-color="#EBEEFF"/>
<stop offset="1" stop-color="#8BA4FF"/>
</linearGradient>
<linearGradient id="paint7_linear_635_2340" x1="272.434" y1="50.2031" x2="272.434" y2="68.6038" gradientUnits="userSpaceOnUse">
<stop stop-color="#EBEEFF"/>
<stop offset="1" stop-color="#8BA4FF"/>
</linearGradient>
<linearGradient id="paint8_linear_635_2340" x1="169.374" y1="123.87" x2="169.374" y2="130.161" gradientUnits="userSpaceOnUse">
<stop stop-color="#EBEEFF"/>
<stop offset="1" stop-color="#8BA4FF"/>
</linearGradient>
<linearGradient id="paint9_linear_635_2340" x1="159.152" y1="134.878" x2="159.152" y2="141.169" gradientUnits="userSpaceOnUse">
<stop stop-color="#EBEEFF"/>
<stop offset="1" stop-color="#8BA4FF"/>
</linearGradient>
<linearGradient id="paint10_linear_635_2340" x1="148.144" y1="145.887" x2="148.144" y2="152.178" gradientUnits="userSpaceOnUse">
<stop stop-color="#EBEEFF"/>
<stop offset="1" stop-color="#8BA4FF"/>
</linearGradient>
<linearGradient id="paint11_linear_635_2340" x1="135.034" y1="171.049" x2="135.034" y2="180.485" gradientUnits="userSpaceOnUse">
<stop stop-color="#FFB648"/>
<stop offset="1" stop-color="#FFDEAD"/>
</linearGradient>
<linearGradient id="paint12_linear_635_2340" x1="148.132" y1="171.049" x2="148.132" y2="180.485" gradientUnits="userSpaceOnUse">
<stop stop-color="#FFB648"/>
<stop offset="1" stop-color="#FFDEAD"/>
</linearGradient>
<linearGradient id="paint13_linear_635_2340" x1="161.234" y1="171.049" x2="161.234" y2="180.485" gradientUnits="userSpaceOnUse">
<stop stop-color="#FFB648"/>
<stop offset="1" stop-color="#FFDEAD"/>
</linearGradient>
<linearGradient id="paint14_linear_635_2340" x1="174.324" y1="171.049" x2="174.324" y2="180.485" gradientUnits="userSpaceOnUse">
<stop stop-color="#FFB648"/>
<stop offset="1" stop-color="#FFDEAD"/>
</linearGradient>
<linearGradient id="paint15_linear_635_2340" x1="187.421" y1="171.049" x2="187.421" y2="180.485" gradientUnits="userSpaceOnUse">
<stop stop-color="#FFB648"/>
<stop offset="1" stop-color="#FFDEAD"/>
</linearGradient>
<linearGradient id="paint16_linear_635_2340" x1="145.785" y1="86.127" x2="156.007" y2="123.87" gradientUnits="userSpaceOnUse">
<stop stop-color="#D0D5FF"/>
<stop offset="1" stop-color="#8BA4FF"/>
</linearGradient>
<linearGradient id="paint17_linear_635_2340" x1="99.07" y1="115.861" x2="99.07" y2="274.196" gradientUnits="userSpaceOnUse">
<stop stop-color="white"/>
<stop offset="1" stop-color="#FFD0D0"/>
</linearGradient>
<linearGradient id="paint18_linear_635_2340" x1="76.7945" y1="115.862" x2="76.7945" y2="269.824" gradientUnits="userSpaceOnUse">
<stop stop-color="white"/>
<stop offset="1" stop-color="#FFD0D0"/>
</linearGradient>
<linearGradient id="paint19_linear_635_2340" x1="125.767" y1="124.311" x2="80.0421" y2="173.993" gradientUnits="userSpaceOnUse">
<stop stop-color="#174F8C"/>
<stop offset="1" stop-color="#032747"/>
</linearGradient>
<linearGradient id="paint20_linear_635_2340" x1="52.5673" y1="191.814" x2="92.8244" y2="122.193" gradientUnits="userSpaceOnUse">
<stop stop-color="#042A4C"/>
<stop offset="1" stop-color="#0E4679"/>
</linearGradient>
<linearGradient id="paint21_linear_635_2340" x1="110.45" y1="1.12882" x2="68.6826" y2="61.8019" gradientUnits="userSpaceOnUse">
<stop stop-color="#032040"/>
<stop offset="1" stop-color="#374450"/>
</linearGradient>
<linearGradient id="paint22_linear_635_2340" x1="142.99" y1="36.6932" x2="146.068" y2="56.9176" gradientUnits="userSpaceOnUse">
<stop stop-color="#174F8C"/>
<stop offset="1" stop-color="#032747"/>
</linearGradient>
<linearGradient id="paint23_linear_635_2340" x1="95.679" y1="44.6237" x2="95.679" y2="155.861" gradientUnits="userSpaceOnUse">
<stop stop-color="white"/>
<stop offset="1" stop-color="#FFD0D0"/>
</linearGradient>
<linearGradient id="paint24_linear_635_2340" x1="124.578" y1="39.0098" x2="67.8616" y2="117.489" gradientUnits="userSpaceOnUse">
<stop stop-color="#FFDD4F"/>
<stop offset="1" stop-color="#FF8F5C"/>
</linearGradient>
<linearGradient id="paint25_linear_635_2340" x1="91.3755" y1="27.4641" x2="91.3755" y2="39.6145" gradientUnits="userSpaceOnUse">
<stop stop-color="white"/>
<stop offset="1" stop-color="#FFD0D0"/>
</linearGradient>
<linearGradient id="paint26_linear_635_2340" x1="94.9954" y1="62.2385" x2="94.9954" y2="116.043" gradientUnits="userSpaceOnUse">
<stop stop-color="#D89614"/>
<stop offset="1" stop-color="#EFBC57"/>
</linearGradient>
<linearGradient id="paint27_linear_635_2340" x1="115.894" y1="276.317" x2="106.881" y2="285.88" gradientUnits="userSpaceOnUse">
<stop stop-color="#174F8C"/>
<stop offset="1" stop-color="#032747"/>
</linearGradient>
<linearGradient id="paint28_linear_635_2340" x1="60.7752" y1="270.654" x2="48.0255" y2="280.765" gradientUnits="userSpaceOnUse">
<stop stop-color="#174F8C"/>
<stop offset="1" stop-color="#032747"/>
</linearGradient>
<linearGradient id="paint29_linear_635_2340" x1="90.552" y1="8.64233" x2="90.552" y2="30.3074" gradientUnits="userSpaceOnUse">
<stop stop-color="white"/>
<stop offset="1" stop-color="#FFD0D0"/>
</linearGradient>
<linearGradient id="paint30_linear_635_2340" x1="262.207" y1="86.1167" x2="262.207" y2="152.895" gradientUnits="userSpaceOnUse">
<stop stop-color="#E7FFF0"/>
<stop offset="1" stop-color="#39F885"/>
</linearGradient>
<linearGradient id="paint31_linear_635_2340" x1="325.5" y1="170.5" x2="337.17" y2="158.035" gradientUnits="userSpaceOnUse">
<stop stop-color="#FF6A3B"/>
<stop offset="1" stop-color="#FFCBBB"/>
</linearGradient>
<linearGradient id="paint32_linear_635_2340" x1="275.635" y1="160.287" x2="275.635" y2="209.631" gradientUnits="userSpaceOnUse">
<stop stop-color="#FEF8FF"/>
<stop offset="1" stop-color="#984AFC"/>
</linearGradient>
<linearGradient id="paint33_linear_635_2340" x1="351.419" y1="163.593" x2="351.419" y2="167.361" gradientUnits="userSpaceOnUse">
<stop stop-color="#DDDFEA"/>
<stop offset="1" stop-color="#CBCEDA"/>
</linearGradient>
<linearGradient id="paint34_linear_635_2340" x1="351.407" y1="171.929" x2="351.429" y2="175.991" gradientUnits="userSpaceOnUse">
<stop stop-color="#D8DBE5"/>
<stop offset="1" stop-color="#C1C5CD"/>
</linearGradient>
<linearGradient id="paint35_linear_635_2340" x1="337.72" y1="180.486" x2="337.742" y2="184.397" gradientUnits="userSpaceOnUse">
<stop stop-color="#E4E6EC"/>
<stop offset="1" stop-color="#CFD3DC"/>
</linearGradient>
<linearGradient id="paint36_linear_635_2340" x1="351.407" y1="188.894" x2="351.429" y2="192.956" gradientUnits="userSpaceOnUse">
<stop stop-color="#E0E3ED"/>
<stop offset="1" stop-color="#CFD3DC"/>
</linearGradient>
<linearGradient id="paint37_linear_635_2340" x1="339.506" y1="197.442" x2="339.528" y2="201.536" gradientUnits="userSpaceOnUse">
<stop stop-color="#E1E3EA"/>
<stop offset="1" stop-color="#C6CBD6"/>
</linearGradient>
<linearGradient id="paint38_linear_635_2340" x1="369.86" y1="197.185" x2="369.883" y2="201.312" gradientUnits="userSpaceOnUse">
<stop stop-color="#DADCE3"/>
<stop offset="1" stop-color="#D0D6E3"/>
</linearGradient>
<linearGradient id="paint39_linear_635_2340" x1="307.51" y1="214.699" x2="307.753" y2="233.059" gradientUnits="userSpaceOnUse">
<stop stop-color="#FFBAE8"/>
<stop offset="1" stop-color="#E3698E"/>
</linearGradient>
<linearGradient id="paint40_linear_635_2340" x1="337.657" y1="215.951" x2="337.657" y2="233" gradientUnits="userSpaceOnUse">
<stop stop-color="#B3FFED"/>
<stop offset="1" stop-color="#0CCEB7"/>
</linearGradient>
<linearGradient id="paint41_linear_635_2340" x1="365.83" y1="216.127" x2="365.83" y2="233.175" gradientUnits="userSpaceOnUse">
<stop stop-color="#9EE2FF"/>
<stop offset="1" stop-color="#00A2FD"/>
</linearGradient>
<linearGradient id="paint42_linear_635_2340" x1="235.513" y1="218.112" x2="285.068" y2="218.112" gradientUnits="userSpaceOnUse">
<stop stop-color="#E5E7ED"/>
<stop offset="1" stop-color="#D6D9DF"/>
</linearGradient>
<linearGradient id="paint43_linear_635_2340" x1="235.512" y1="227.134" x2="272.29" y2="227.134" gradientUnits="userSpaceOnUse">
<stop stop-color="#E1E4EE"/>
<stop offset="1" stop-color="#CFD2D9"/>
</linearGradient>
<linearGradient id="paint44_linear_635_2340" x1="271.723" y1="178.12" x2="285.102" y2="178.12" gradientUnits="userSpaceOnUse">
<stop stop-color="#FC0B31"/>
<stop offset="0.849171" stop-color="#FFDFE4"/>
</linearGradient>
<linearGradient id="paint45_linear_635_2340" x1="265.105" y1="199.239" x2="267.933" y2="201.622" gradientUnits="userSpaceOnUse">
<stop stop-color="#B3B3FF"/>
<stop offset="1" stop-color="#C2D5FF"/>
</linearGradient>
<linearGradient id="paint46_linear_635_2340" x1="364.674" y1="89.5132" x2="370.831" y2="183.289" gradientUnits="userSpaceOnUse">
<stop offset="0.234093" stop-color="#F5F6FF"/>
<stop offset="1" stop-color="#A3B7FF"/>
</linearGradient>
<linearGradient id="paint47_linear_635_2340" x1="322.464" y1="125.967" x2="331.833" y2="125.967" gradientUnits="userSpaceOnUse">
<stop stop-color="#FB9835"/>
<stop offset="1" stop-color="#FFD583"/>
</linearGradient>
<linearGradient id="paint48_linear_635_2340" x1="302.638" y1="121.245" x2="419.146" y2="84.7768" gradientUnits="userSpaceOnUse">
<stop stop-color="#381BB3"/>
<stop offset="1" stop-color="#BAA9FF"/>
</linearGradient>
<linearGradient id="paint49_linear_635_2340" x1="347.898" y1="108.568" x2="357.936" y2="108.568" gradientUnits="userSpaceOnUse">
<stop stop-color="#FB9835"/>
<stop offset="1" stop-color="#FFD583"/>
</linearGradient>
<linearGradient id="paint50_linear_635_2340" x1="398.081" y1="80.4626" x2="407.451" y2="80.4626" gradientUnits="userSpaceOnUse">
<stop stop-color="#FB9835"/>
<stop offset="1" stop-color="#FFD583"/>
</linearGradient>
</defs>
</svg>
