<svg xmlns="http://www.w3.org/2000/svg" width="31.329" height="31.331" viewBox="0 0 31.329 31.331">
  <path id="ruler-triangle" d="M29.79,22.423,8.9,1.538A5.127,5.127,0,0,0,3.22.407,5.13,5.13,0,0,0,0,5.225V24.791a6.542,6.542,0,0,0,6.535,6.535H26.1a5.215,5.215,0,0,0,3.687-8.9Zm-1.28,4.686A2.534,2.534,0,0,1,26.1,28.716H6.535A3.929,3.929,0,0,1,2.61,24.791V5.225A2.533,2.533,0,0,1,4.218,2.818a2.678,2.678,0,0,1,1.027-.21,2.539,2.539,0,0,1,1.812.775l2.1,2.1L6.67,7.976A1.305,1.305,0,1,0,8.515,9.822l2.49-2.49,1.913,1.913-2.49,2.49a1.305,1.305,0,1,0,1.846,1.846l2.49-2.49,1.847,1.846-2.49,2.49a1.305,1.305,0,1,0,1.846,1.846l2.49-2.49L20.3,16.627l-2.49,2.49a1.305,1.305,0,1,0,1.846,1.846l2.49-2.49,1.846,1.846-2.49,2.49a1.305,1.305,0,1,0,1.846,1.846l2.49-2.49,2.1,2.1a2.537,2.537,0,0,1,.565,2.84Z" transform="translate(0 0.005)" fill="#fff"/>
</svg>
