<svg xmlns="http://www.w3.org/2000/svg" width="27.833" height="30" viewBox="0 0 27.833 30">
  <g id="ticket" transform="translate(-3)">
    <path id="Path_490" data-name="Path 490" d="M23.1,0h-.2a3.067,3.067,0,0,0-3,1.915,3.063,3.063,0,0,1-2.983,1.84,3.063,3.063,0,0,1-2.983-1.84,3.067,3.067,0,0,0-3-1.915h-.2C6.464,0,3.005,2.8,3,6.25v20C3,28.321,5.077,30,7.639,30h3.294a3.067,3.067,0,0,0,3-1.915,3.063,3.063,0,0,1,2.983-1.84,3.063,3.063,0,0,1,2.983,1.84A3.067,3.067,0,0,0,22.9,30h3.294c2.562,0,4.639-1.679,4.639-3.75v-20C30.828,2.8,27.369,0,23.1,0Zm3.093,27.5-3.314-.079c-.747-2.181-3.212-3.685-6.011-3.666S11.635,25.31,10.932,27.5H7.639a1.422,1.422,0,0,1-1.546-1.25v-5H9.185A1.422,1.422,0,0,0,10.731,20a1.422,1.422,0,0,0-1.546-1.25H6.093V6.25c0-2.071,2.077-3.75,4.639-3.75l.221.079c.744,2.167,3.182,3.667,5.964,3.671,2.819-.019,5.278-1.551,6.02-3.75H23.1c2.562,0,4.639,1.679,4.639,3.75v12.5H24.648A1.422,1.422,0,0,0,23.1,20a1.422,1.422,0,0,0,1.546,1.25H27.74v5A1.422,1.422,0,0,1,26.194,27.5Z" fill="#212534"/>
    <path id="Path_491" data-name="Path 491" d="M13.75,15h-2.5a1.25,1.25,0,0,0,0,2.5h2.5a1.25,1.25,0,0,0,0-2.5Z" transform="translate(4.417 3.75)" fill="#212534"/>
  </g>
</svg>
