<svg width="28" height="28" viewBox="0 0 28 28" fill="none" xmlns="http://www.w3.org/2000/svg">
<path d="M19.3801 13.125H6.125C5.87671 13.125 5.66881 13.2087 5.5013 13.3763C5.33377 13.5438 5.25 13.7517 5.25 14C5.25 14.2482 5.33377 14.4561 5.5013 14.6237C5.66881 14.7912 5.87671 14.8749 6.125 14.8749H19.3801L15.5391 18.716C15.3656 18.8895 15.2799 19.0926 15.2822 19.3251C15.2844 19.5577 15.3701 19.7645 15.5391 19.9455C15.7201 20.1264 15.928 20.2199 16.1628 20.2259C16.3976 20.2319 16.6055 20.1444 16.7865 19.9634L22.0118 14.7381C22.121 14.6289 22.198 14.5137 22.2429 14.3926C22.2878 14.2714 22.3102 14.1406 22.3102 14C22.3102 13.8594 22.2878 13.7285 22.2429 13.6073C22.198 13.4862 22.121 13.371 22.0118 13.2618L16.7865 8.03652C16.613 7.86301 16.407 7.77738 16.1684 7.77962C15.9298 7.78187 15.7201 7.87348 15.5391 8.05445C15.3701 8.23544 15.2826 8.44036 15.2766 8.6692C15.2706 8.89804 15.3581 9.10295 15.5391 9.28392L19.3801 13.125Z" fill="#0072EF"/>
</svg>
