<svg width="167" height="32" viewBox="0 0 167 32" fill="none" xmlns="http://www.w3.org/2000/svg">
<path d="M55.3754 22.8967C54.1756 22.9282 52.9909 22.6236 51.9552 22.0172C51.0011 21.4344 50.2384 20.5852 49.7613 19.5741C49.2294 18.4358 48.9669 17.1902 48.9942 15.934C48.9664 14.6778 49.2289 13.4321 49.7613 12.2939C50.2384 11.2829 51.0011 10.4336 51.9552 9.85085C52.9909 9.24446 54.1756 8.93982 55.3754 8.97136C56.753 8.92161 58.1084 9.32874 59.2305 10.1294C60.2641 10.9098 61.0209 12.0004 61.3902 13.2418L59.1182 13.8623C58.8995 13.058 58.4348 12.3422 57.7891 11.8151C57.0827 11.2978 56.2207 11.0375 55.3461 11.0773C54.5544 11.0473 53.7723 11.2586 53.1034 11.6831C52.5065 12.103 52.0488 12.6917 51.789 13.3737C51.4708 14.1891 51.3148 15.0588 51.3297 15.934C51.3089 16.8072 51.4617 17.6758 51.7793 18.4894C52.0457 19.1787 52.5162 19.7702 53.1278 20.1849C53.7981 20.6104 54.5821 20.8218 55.3754 20.7908C56.2509 20.8315 57.1137 20.5692 57.8185 20.0481C58.451 19.5168 58.9047 18.8037 59.1182 18.0057L61.3707 18.6262C61.0013 19.8676 60.2446 20.9582 59.211 21.7387C58.0942 22.5352 56.7464 22.9421 55.3754 22.8967Z" fill="#293253"/>
<path d="M63.4375 22.6186V12.5923H65.3919V15.0354L65.1525 14.7178C65.2702 14.3911 65.4348 14.0834 65.6411 13.8041C65.8474 13.5332 66.1006 13.3015 66.3887 13.12C66.6431 12.9514 66.9192 12.8183 67.2096 12.7243C67.51 12.6319 67.8197 12.5729 68.133 12.5484C68.4399 12.5283 68.7481 12.543 69.0516 12.5923V14.6592C68.7171 14.5717 68.3698 14.5436 68.0255 14.5761C67.6581 14.6037 67.3019 14.7157 66.9848 14.9035C66.6881 15.0582 66.4295 15.2768 66.2275 15.5435C66.0305 15.8091 65.8847 16.109 65.7975 16.4279C65.7013 16.7781 65.6537 17.1397 65.6558 17.5029V22.6186H63.4375Z" fill="#293253"/>
<path d="M75.2192 22.8963C74.2856 22.9163 73.3635 22.6887 72.5465 22.2367C71.7902 21.8064 71.1692 21.1735 70.7533 20.4093C70.3084 19.5828 70.0845 18.6554 70.1034 17.717C70.0789 16.7267 70.2969 15.7454 70.7386 14.8587C71.1325 14.0789 71.7411 13.4279 72.4927 12.9824C73.2817 12.5258 74.1807 12.2942 75.0921 12.313C76.0279 12.2848 76.9505 12.5385 77.7404 13.0411C78.4804 13.543 79.047 14.2615 79.3626 15.0981C79.729 16.0972 79.8659 17.166 79.7632 18.2252H77.5401V17.4092C77.602 16.5743 77.4022 15.7408 76.9684 15.0248C76.754 14.7646 76.4798 14.5603 76.1692 14.4292C75.8586 14.2982 75.5209 14.2444 75.185 14.2723C74.7996 14.2463 74.4136 14.312 74.0586 14.464C73.7036 14.6161 73.3896 14.8501 73.1426 15.147C72.6575 15.8658 72.4223 16.7243 72.4732 17.59C72.4214 18.4299 72.6575 19.2624 73.1426 19.95C73.3795 20.2333 73.6801 20.4567 74.0197 20.6018C74.3593 20.747 74.7285 20.81 75.097 20.7855C75.596 20.7995 76.0888 20.6725 76.5189 20.419C76.9265 20.1632 77.2494 19.7926 77.4472 19.3539L79.646 20.033C79.2877 20.9036 78.6657 21.64 77.8674 22.1389C77.0756 22.6401 76.1563 22.903 75.2192 22.8963ZM71.7696 18.2252V16.5346H78.6687V18.2252H71.7696Z" fill="#293253"/>
<path d="M84.4559 22.898C83.818 22.9191 83.1855 22.7761 82.6187 22.4827C82.1407 22.2343 81.7452 21.8524 81.4803 21.3834C81.2217 20.9225 81.0886 20.4019 81.0943 19.8736C81.0865 19.4271 81.1679 18.9836 81.3337 18.569C81.4994 18.1776 81.7576 17.8322 82.0861 17.5624C82.4739 17.2558 82.9144 17.0223 83.3858 16.8735C83.8502 16.7264 84.3235 16.6089 84.8028 16.5217C85.3452 16.4142 85.9315 16.3165 86.5667 16.2285L88.5602 15.9354L87.7589 16.3898C87.7827 16.1152 87.7518 15.8386 87.668 15.5761C87.5841 15.3136 87.4489 15.0703 87.2703 14.8604C87.0506 14.6755 86.7959 14.5369 86.5213 14.453C86.2467 14.369 85.958 14.3414 85.6725 14.3718C85.2191 14.372 84.7722 14.4792 84.3679 14.6845C84.1536 14.7957 83.9645 14.9499 83.8124 15.1373C83.6602 15.3248 83.5483 15.5415 83.4836 15.7741L81.4558 15.1487C81.6838 14.3274 82.1833 13.6075 82.8728 13.1063C83.7037 12.5534 84.6905 12.2828 85.6872 12.3343C86.4935 12.3189 87.2946 12.4668 88.0423 12.7692C88.6986 13.0385 89.2351 13.5368 89.5521 14.1715C89.7284 14.5072 89.8379 14.8739 89.8746 15.2513C89.915 15.6507 89.9346 16.0519 89.9332 16.4533V22.6098H87.9788V20.4452L88.3012 20.8019C87.9184 21.4582 87.3732 22.005 86.7181 22.3899C86.0204 22.7512 85.2411 22.9262 84.4559 22.898ZM84.9005 21.1146C85.3488 21.1284 85.7941 21.0364 86.2002 20.8459C86.5291 20.6873 86.8218 20.4628 87.0602 20.1863C87.2471 19.9703 87.3928 19.7219 87.4901 19.4534C87.6139 19.1419 87.6817 18.8111 87.6905 18.4761C87.6905 18.1048 87.7149 17.8067 87.7149 17.5771L88.399 17.7823L86.6644 18.0608C86.1758 18.1439 85.7654 18.2172 85.4184 18.2905C85.1078 18.35 84.801 18.4283 84.4999 18.525C84.2664 18.6042 84.0445 18.7143 83.8402 18.8524C83.675 18.9635 83.5351 19.1084 83.4298 19.2775C83.3294 19.4492 83.2787 19.6454 83.2832 19.8442C83.2802 20.0759 83.3447 20.3034 83.4689 20.499C83.6073 20.6956 83.7964 20.8509 84.0161 20.9485C84.2951 21.0685 84.5971 21.1252 84.9005 21.1146Z" fill="#293253"/>
<path d="M91.2344 14.3463V12.5922H98.2117V14.3463H91.2344ZM98.2117 22.6184C97.5676 22.7396 96.9126 22.7937 96.2573 22.7797C95.6729 22.7752 95.0951 22.6556 94.5569 22.4279C94.0671 22.2209 93.6633 21.8517 93.4136 21.3822C93.19 20.9757 93.066 20.5219 93.052 20.0581C93.052 19.6037 93.052 19.0809 93.052 18.5239V9.80713H95.2801V18.392C95.2801 18.7975 95.2801 19.1493 95.2801 19.4522C95.2782 19.7121 95.3438 19.9681 95.4706 20.1949C95.5819 20.3793 95.7378 20.5328 95.9239 20.6413C96.1101 20.7497 96.3205 20.8096 96.5358 20.8155C97.0937 20.8567 97.6546 20.8321 98.2068 20.7422L98.2117 22.6184Z" fill="#293253"/>
<path d="M100.57 11.0692V9.01709H102.808V11.0692H100.57ZM100.57 22.6199V12.5937H102.808V22.6199H100.57Z" fill="#293253"/>
<path d="M108.304 22.6185L104.664 12.5923H106.902L109.448 19.8628L111.964 12.5923H114.207L110.571 22.6185H108.304Z" fill="#293253"/>
<path d="M120.047 22.8964C119.114 22.9164 118.192 22.6888 117.375 22.2368C116.618 21.8065 115.997 21.1736 115.581 20.4094C115.136 19.5829 114.913 18.6556 114.932 17.7172C114.907 16.7268 115.125 15.7455 115.567 14.8588C115.961 14.079 116.569 13.428 117.321 12.9825C118.11 12.5259 119.009 12.2944 119.92 12.3132C120.856 12.285 121.779 12.5386 122.569 13.0412C123.308 13.5431 123.875 14.2616 124.191 15.0982C124.557 16.0973 124.694 17.1661 124.591 18.2253H122.368V17.4093C122.43 16.5744 122.23 15.741 121.797 15.0249C121.582 14.7648 121.308 14.5604 120.997 14.4294C120.687 14.2983 120.349 14.2445 120.013 14.2725C119.628 14.2464 119.242 14.3121 118.887 14.4642C118.532 14.6162 118.218 14.8502 117.971 15.1471C117.486 15.8659 117.25 16.7244 117.301 17.5901C117.249 18.43 117.486 19.2625 117.971 19.9501C118.208 20.2334 118.508 20.4568 118.848 20.602C119.187 20.7472 119.557 20.8101 119.925 20.7856C120.424 20.7997 120.917 20.6726 121.347 20.4192C121.755 20.1633 122.078 19.7927 122.275 19.354L124.479 20.0332C124.121 20.9037 123.499 21.6402 122.7 22.1391C121.907 22.6411 120.986 22.9041 120.047 22.8964ZM116.598 18.2253V16.5347H123.492V18.2253H116.598Z" fill="#293253"/>
<path d="M130.57 22.6183V9.25H132.808V20.5222H138.711V22.6183H130.57Z" fill="#293253"/>
<path d="M140.289 22.6183V9.25H142.307L146.929 18.7192L151.552 9.25H153.565V22.6183H151.473V14.0481L147.369 22.6183H146.48L142.385 14.0481V22.6183H140.289Z" fill="#293253"/>
<path d="M161.105 22.8974C160.2 22.9188 159.3 22.7524 158.462 22.4088C157.706 22.09 157.042 21.5859 156.532 20.9429C156.012 20.2904 155.675 19.5114 155.555 18.6856L157.876 18.3289C158.037 19.0731 158.471 19.7301 159.092 20.1709C159.724 20.6005 160.474 20.821 161.237 20.8012C161.695 20.8025 162.149 20.7265 162.581 20.5765C162.971 20.4474 163.324 20.2242 163.607 19.9266C163.739 19.7861 163.841 19.621 163.909 19.4408C163.977 19.2605 164.009 19.0686 164.003 18.8761C164.003 18.7009 163.971 18.5272 163.91 18.3631C163.846 18.2054 163.753 18.0612 163.636 17.938C163.505 17.8026 163.355 17.6859 163.192 17.5911C162.983 17.4814 162.763 17.393 162.537 17.3272L159.082 16.306C158.784 16.2181 158.467 16.1008 158.105 15.9591C157.751 15.808 157.421 15.6037 157.128 15.3533C156.811 15.0846 156.554 14.7515 156.376 14.376C156.169 13.9156 156.069 13.4146 156.082 12.9102C156.062 12.1371 156.296 11.3786 156.747 10.7506C157.199 10.1544 157.81 9.69862 158.511 9.43622C159.291 9.1418 160.12 8.99757 160.954 9.01113C161.793 9.00851 162.624 9.17467 163.397 9.49974C164.097 9.78996 164.716 10.2461 165.2 10.8287C165.697 11.4453 166.046 12.1673 166.221 12.9395L163.812 13.3549C163.727 12.9131 163.532 12.4999 163.245 12.1529C162.965 11.824 162.612 11.5647 162.214 11.3955C161.804 11.2238 161.365 11.1293 160.92 11.117C160.497 11.1087 160.077 11.1766 159.679 11.3174C159.343 11.4307 159.039 11.6234 158.794 11.8793C158.566 12.1261 158.441 12.4517 158.447 12.7881C158.441 12.9348 158.464 13.0813 158.515 13.2189C158.566 13.3565 158.645 13.4825 158.745 13.5894C158.953 13.8042 159.204 13.971 159.483 14.078C159.774 14.1979 160.073 14.2991 160.377 14.3809L162.771 15.0454C163.099 15.1334 163.47 15.2506 163.876 15.4021C164.296 15.5539 164.694 15.7627 165.058 16.0226C165.443 16.298 165.761 16.6572 165.986 17.0732C166.251 17.5823 166.379 18.1513 166.358 18.7246C166.371 19.3594 166.222 19.9869 165.923 20.5472C165.64 21.065 165.242 21.5112 164.76 21.8517C164.251 22.2072 163.684 22.4717 163.084 22.6335C162.439 22.8094 161.774 22.8981 161.105 22.8974Z" fill="#293253"/>
<path d="M43.9748 10.0127C43.9762 11.4898 43.8273 12.9632 43.5302 14.4102C43.2279 15.9218 42.7626 17.3963 42.1425 18.8076C41.463 20.369 40.602 21.845 39.5773 23.2051C38.3244 24.8694 36.8441 26.3496 35.1798 27.6026C33.8186 28.6255 32.3428 29.4863 30.7824 30.1678C29.3702 30.7857 27.896 31.2509 26.3849 31.5554C24.938 31.8525 23.4645 32.0015 21.9874 32C20.5106 32.0007 19.0374 31.8533 17.5899 31.5603C14.4012 30.9091 11.3971 29.5573 8.79497 27.6026C7.13069 26.3496 5.65043 24.8694 4.39749 23.2051C3.37284 21.845 2.51185 20.369 1.83229 18.8076C1.21221 17.3963 0.746945 15.9218 0.444644 14.4102C0.147546 12.9632 -0.00143355 11.4898 1.03958e-05 10.0127H0.0684156C1.18348 10.0184 2.26304 10.4054 3.12784 11.1093C3.99265 11.8132 4.59066 12.7918 4.82258 13.8825C4.86167 14.0584 4.90564 14.2343 4.94962 14.4102C5.3489 15.9508 5.95542 17.4301 6.75258 18.8076C7.33575 19.8189 8.02005 20.7684 8.79497 21.6416C9.28097 22.1951 9.80156 22.7174 10.3536 23.2051C11.2303 23.9778 12.1812 24.662 13.1924 25.2475C14.5699 26.0437 16.0493 26.6486 17.5899 27.0456C20.4746 27.7882 23.5003 27.7882 26.3849 27.0456C27.9255 26.6486 29.4049 26.0437 30.7824 25.2475C31.7937 24.662 32.7446 23.9778 33.6212 23.2051C34.1732 22.7174 34.6938 22.1951 35.1798 21.6416C35.9548 20.7684 36.6391 19.8189 37.2222 18.8076C38.0194 17.4301 38.6259 15.9508 39.0252 14.4102C39.0692 14.2343 39.1131 14.0584 39.1522 13.8825C39.3842 12.7918 39.9822 11.8132 40.847 11.1093C41.7118 10.4054 42.7913 10.0184 43.9064 10.0127H43.9748Z" fill="#3E96FC"/>
<path d="M15.0924 11.1407L22.0747 15.1717L17.6772 17.7076L8.75031 12.5479L6.30726 11.1407C6.10937 11.0267 5.945 10.8626 5.83071 10.6649C5.71642 10.4671 5.65625 10.2428 5.65625 10.0144C5.65625 9.78605 5.71642 9.56171 5.83071 9.36399C5.945 9.16628 6.10937 9.00216 6.30726 8.88818L8.75031 7.4761L17.6772 2.31641L22.0747 4.85717L15.0924 8.88818C14.8946 9.00216 14.7302 9.16628 14.6159 9.36399C14.5016 9.56171 14.4414 9.78605 14.4414 10.0144C14.4414 10.2428 14.5016 10.4671 14.6159 10.6649C14.7302 10.8626 14.8946 11.0267 15.0924 11.1407Z" fill="#785BFF"/>
<path d="M26.4668 2.31719L22.0694 4.85795L17.6719 2.31719L21.3609 0.186864C21.5769 0.0643825 21.821 0 22.0694 0C22.3177 0 22.5618 0.0643825 22.7778 0.186864L26.4668 2.31719Z" fill="#00258C"/>
<path d="M37.8504 11.1407L36.0865 12.157C35.8292 12.305 35.6158 12.5187 35.4681 12.7762C35.3204 13.0338 35.2438 13.3259 35.2461 13.6228V13.8231C35.249 14.8849 34.9966 15.9319 34.5102 16.8757C34.0238 17.8196 33.3177 18.6328 32.4513 19.2467C31.9372 19.616 31.3771 19.9166 30.7851 20.1408V16.4274C30.7847 16.3047 30.7519 16.1844 30.6902 16.0784C30.6284 15.9724 30.5399 15.8845 30.4334 15.8236C30.3269 15.7627 30.2063 15.7309 30.0836 15.7314C29.961 15.7319 29.8406 15.7646 29.7346 15.8264L26.4756 17.7076L22.0781 15.1717L29.0555 11.1407C29.2546 11.0277 29.4202 10.8639 29.5355 10.6661C29.6507 10.4682 29.7114 10.2434 29.7114 10.0144C29.7114 9.78546 29.6507 9.56059 29.5355 9.36275C29.4202 9.1649 29.2546 9.00115 29.0555 8.88818L22.0781 4.85717L26.4756 2.31641L35.4025 7.4761L37.8455 8.88818C38.0437 9.00173 38.2084 9.16549 38.3231 9.36296C38.4378 9.56043 38.4985 9.78464 38.499 10.013C38.4995 10.2414 38.4398 10.4659 38.3259 10.6638C38.2121 10.8618 38.0481 11.0263 37.8504 11.1407Z" fill="#FE4C93"/>
<path d="M26.4668 17.7093L22.7778 19.8397C22.5618 19.9621 22.3177 20.0265 22.0694 20.0265C21.821 20.0265 21.5769 19.9621 21.3609 19.8397L17.6719 17.7093L22.0694 15.1735L26.4668 17.7093Z" fill="#00258C"/>
</svg>
