<svg width="113" height="24" viewBox="0 0 113 24" fill="none" xmlns="http://www.w3.org/2000/svg">
<g clip-path="url(#clip0_197_373)">
<path d="M112.361 10.8577V8.88169H109.907V5.80974L109.824 5.83517L107.519 6.54036L107.474 6.55417V8.8818H103.836V7.58511C103.836 6.98132 103.971 6.51928 104.237 6.21114C104.501 5.90669 104.879 5.75191 105.361 5.75191C105.708 5.75191 106.067 5.83354 106.428 5.99451L106.518 6.03495V3.95394L106.476 3.93828C106.139 3.8172 105.681 3.75623 105.113 3.75623C104.397 3.75623 103.747 3.91198 103.18 4.22067C102.612 4.52978 102.166 4.97107 101.853 5.53214C101.541 6.09255 101.383 6.73981 101.383 7.45609V8.88169H99.6746V10.8577H101.383V19.1823H103.836V10.8577H107.474V16.1478C107.474 18.3266 108.502 19.4306 110.528 19.4306C110.861 19.4306 111.212 19.3916 111.57 19.3152C111.934 19.2367 112.182 19.1584 112.328 19.0747L112.361 19.0556V17.0613L112.261 17.1273C112.128 17.2159 111.962 17.2884 111.768 17.3424C111.572 17.3972 111.409 17.4247 111.283 17.4247C110.808 17.4247 110.457 17.2968 110.239 17.0443C110.019 16.7895 109.907 16.344 109.907 15.7208V10.8577H112.361ZM94.1969 17.4251C93.3066 17.4251 92.6047 17.1299 92.1101 16.5484C91.6124 15.9639 91.3602 15.1307 91.3602 14.072C91.3602 12.9798 91.6124 12.1249 92.1103 11.5302C92.6053 10.9393 93.3004 10.6395 94.1769 10.6395C95.0275 10.6395 95.7045 10.9259 96.1895 11.4912C96.6768 12.0594 96.9242 12.9074 96.9242 14.0124C96.9242 15.1309 96.6916 15.9901 96.2329 16.5649C95.7774 17.1353 95.0925 17.4251 94.1969 17.4251ZM94.306 8.63355C92.6074 8.63355 91.2584 9.13124 90.2964 10.1128C89.3352 11.0945 88.8478 12.4531 88.8478 14.1511C88.8478 15.7638 89.3235 17.0611 90.262 18.0061C91.2004 18.9515 92.4776 19.4304 94.0576 19.4304C95.7041 19.4304 97.0263 18.9258 97.9878 17.9306C98.9492 16.9365 99.4362 15.5908 99.4362 13.9325C99.4362 12.2945 98.9792 10.9876 98.0773 10.0488C97.1751 9.10962 95.906 8.63355 94.306 8.63355ZM84.893 8.63355C83.7377 8.63355 82.7819 8.92908 82.0518 9.51177C81.3173 10.0979 80.9447 10.8667 80.9447 11.797C80.9447 12.2806 81.0251 12.7101 81.1834 13.0745C81.3426 13.44 81.589 13.7618 81.9164 14.0319C82.2413 14.2999 82.7428 14.5805 83.4073 14.866C83.966 15.0959 84.3826 15.2904 84.6473 15.4436C84.906 15.5938 85.0896 15.7448 85.1932 15.8919C85.294 16.0358 85.3451 16.2327 85.3451 16.4758C85.3451 17.1678 84.8269 17.5045 83.7605 17.5045C83.365 17.5045 82.9138 17.4219 82.4195 17.2591C81.9288 17.0987 81.4657 16.8639 81.0463 16.5628L80.9445 16.4898V18.8513L80.9819 18.8687C81.3289 19.0289 81.7665 19.164 82.2823 19.2703C82.797 19.3767 83.2647 19.4309 83.671 19.4309C84.9248 19.4309 85.9344 19.1339 86.6711 18.5477C87.4125 17.9576 87.7883 17.1706 87.7883 16.2082C87.7883 15.5138 87.586 14.9184 87.1873 14.4382C86.7913 13.9619 86.1041 13.5247 85.1455 13.1382C84.3819 12.8317 83.8926 12.5772 83.6908 12.3819C83.4962 12.1932 83.3974 11.9264 83.3974 11.5884C83.3974 11.2889 83.5194 11.0489 83.7697 10.8546C84.022 10.6592 84.3732 10.5599 84.8136 10.5599C85.2223 10.5599 85.6404 10.6245 86.0563 10.751C86.4718 10.8775 86.8368 11.0469 87.1414 11.2542L87.2416 11.3227V9.08255L87.2032 9.06603C86.9221 8.94549 86.5515 8.84234 86.1013 8.75865C85.6531 8.6755 85.2466 8.63355 84.893 8.63355ZM74.5503 17.4251C73.6602 17.4251 72.958 17.1299 72.4635 16.5484C71.9657 15.9639 71.714 15.1309 71.714 14.072C71.714 12.9798 71.966 12.1249 72.464 11.5302C72.9586 10.9393 73.6537 10.6395 74.5306 10.6395C75.3808 10.6395 76.0578 10.9259 76.5429 11.4912C77.0304 12.0594 77.2777 12.9074 77.2777 14.0124C77.2777 15.1309 77.045 15.9901 76.5863 16.5649C76.1308 17.1353 75.4461 17.4251 74.5503 17.4251ZM74.6596 8.63355C72.9607 8.63355 71.6115 9.13124 70.6501 10.1128C69.6888 11.0945 69.2011 12.4531 69.2011 14.1511C69.2011 15.7645 69.6772 17.0611 70.6156 18.0061C71.5541 18.9515 72.8311 19.4304 74.4111 19.4304C76.0574 19.4304 77.3799 18.9258 78.3414 17.9306C79.3026 16.9365 79.7899 15.5908 79.7899 13.9325C79.7899 12.2945 79.3327 10.9876 78.4307 10.0488C77.5282 9.10962 76.2593 8.63355 74.6596 8.63355ZM65.4778 10.6655V8.88169H63.0548V19.1821H65.4778V13.913C65.4778 13.0171 65.6809 12.281 66.0818 11.7251C66.4775 11.1757 67.0049 10.8974 67.6488 10.8974C67.867 10.8974 68.112 10.9334 68.3773 11.0045C68.6399 11.0753 68.8302 11.1521 68.9423 11.233L69.0442 11.3068V8.86408L69.0049 8.84723C68.7793 8.75137 68.4601 8.703 68.0562 8.703C67.4473 8.703 66.9024 8.89864 66.4357 9.28385C66.026 9.62242 65.7299 10.0866 65.5035 10.6655H65.4778ZM58.7157 8.63355C57.6042 8.63355 56.6127 8.87191 55.7693 9.34178C54.9243 9.81274 54.2707 10.4851 53.826 11.3401C53.3833 12.193 53.1586 13.1892 53.1586 14.3003C53.1586 15.2735 53.3765 16.1666 53.8072 16.9538C54.2382 17.7422 54.8482 18.3591 55.6203 18.7869C56.3914 19.2141 57.2825 19.4308 58.2692 19.4308C59.4207 19.4308 60.4038 19.2005 61.1921 18.7465L61.2239 18.7283V16.5085L61.1221 16.5828C60.765 16.8429 60.366 17.0505 59.9367 17.2001C59.5084 17.3495 59.118 17.4251 58.7756 17.4251C57.8249 17.4251 57.0617 17.1276 56.5077 16.5411C55.9525 15.9538 55.671 15.1292 55.671 14.0915C55.671 13.0473 55.9645 12.2015 56.5431 11.5774C57.1199 10.9551 57.8846 10.6395 58.8156 10.6395C59.612 10.6395 60.3881 10.9091 61.1223 11.4417L61.2239 11.5155V9.17657L61.1911 9.15809C60.9148 9.00342 60.538 8.87571 60.0702 8.77887C59.6043 8.68224 59.1487 8.63355 58.7157 8.63355ZM51.4898 8.8818H49.0669V19.1821H51.4898V8.8818ZM50.3031 4.49381C49.9043 4.49381 49.5565 4.62956 49.2708 4.89857C48.9838 5.16835 48.8383 5.50801 48.8383 5.90886C48.8383 6.30341 48.9821 6.63688 49.2663 6.89948C49.5487 7.16132 49.8976 7.29403 50.3032 7.29403C50.7088 7.29403 51.059 7.16132 51.3447 6.89991C51.6323 6.63688 51.7782 6.30352 51.7782 5.90886C51.7782 5.52203 51.6362 5.18585 51.3566 4.90944C51.0771 4.63358 50.7226 4.49381 50.3031 4.49381ZM44.2577 8.12183V19.1821H46.7304V4.80912H43.3081L38.958 15.4849L34.7365 4.80912H31.1748V19.182H33.4985V8.12074H33.5783L38.0361 19.1821H39.7897L44.1779 8.12183H44.2577Z" fill="#706D6E"/>
<path d="M11.3993 11.4044H0.000976562V0.00610352H11.3993V11.4044Z" fill="#F1511B"/>
<path d="M23.984 11.4044H12.5859V0.00610352H23.984V11.4044Z" fill="#80CC28"/>
<path d="M11.3989 23.9939H0.000976562V12.5957H11.3989V23.9939Z" fill="#00ADEF"/>
<path d="M23.984 23.9939H12.5859V12.5957H23.984V23.9939Z" fill="#FBBC09"/>
</g>
<defs>
<clipPath id="clip0_197_373">
<rect width="112.8" height="24" fill="white"/>
</clipPath>
</defs>
</svg>
