<svg width="120" height="24" viewBox="0 0 120 24" fill="none" xmlns="http://www.w3.org/2000/svg">
<path d="M43.7236 0.758789H48.2385L55.9154 14.6457L63.5922 0.758789H68.0093V23.5776H64.3257V6.08871L57.5942 18.199H54.1387L47.4072 6.08871V23.5776H43.7236V0.758789Z" fill="#1C2B33"/>
<path d="M79.8911 23.9855C78.185 23.9855 76.6855 23.6079 75.3925 22.8527C74.0994 22.0975 73.0915 21.0516 72.369 19.7151C71.6463 18.3785 71.285 16.8464 71.2852 15.1187C71.2852 13.3694 71.6383 11.821 72.3446 10.4735C73.0509 9.12626 74.0315 8.07222 75.2866 7.31132C76.5417 6.55092 77.9842 6.17061 79.614 6.17041C81.233 6.17041 82.6266 6.55342 83.7948 7.31944C84.9627 8.08567 85.8618 9.15873 86.4922 10.5386C87.1223 11.9187 87.4374 13.5378 87.4376 15.3958V16.4062H74.9362C75.1644 17.7973 75.7267 18.8921 76.6232 19.6905C77.5196 20.4892 78.6524 20.8885 80.0215 20.8885C81.1189 20.8885 82.0642 20.7255 82.8575 20.3995C83.6506 20.0735 84.395 19.5792 85.0906 18.9164L87.0464 21.3123C85.1012 23.0946 82.7161 23.9856 79.8911 23.9855ZM82.5805 10.4489C81.8088 9.66123 80.7983 9.26732 79.5489 9.26717C78.3317 9.26717 77.3131 9.66927 76.4928 10.4735C75.6722 11.2776 75.1533 12.3587 74.9362 13.717H83.9007C83.792 12.3261 83.3519 11.2367 82.5805 10.4489Z" fill="#1C2B33"/>
<path d="M91.903 9.59345H88.5127V6.57805H91.903V1.59058H95.4562V6.57805H100.607V9.59345H95.4562V17.2377C95.4562 18.5089 95.6735 19.4162 96.1081 19.9596C96.5425 20.5031 97.2869 20.7747 98.3411 20.7745C98.8081 20.7745 99.2048 20.7555 99.531 20.7175C99.8569 20.6796 100.216 20.628 100.607 20.5626V23.5453C100.16 23.6744 99.7056 23.7725 99.2457 23.8388C98.7195 23.9162 98.1883 23.9544 97.6565 23.9529C93.8206 23.9529 91.9028 21.8557 91.903 17.6615V9.59345Z" fill="#1C2B33"/>
<path d="M119.121 23.5779H115.632V21.1982C115.013 22.0894 114.225 22.7766 113.269 23.26C112.313 23.7434 111.226 23.9852 110.009 23.9855C108.51 23.9855 107.181 23.6024 106.024 22.8362C104.867 22.0702 103.957 21.0162 103.294 19.6743C102.631 18.3323 102.3 16.7975 102.3 15.0698C102.3 13.3313 102.637 11.7937 103.31 10.457C103.984 9.12063 104.916 8.07208 106.106 7.31132C107.296 6.55092 108.662 6.17061 110.205 6.17041C111.368 6.17041 112.411 6.39591 113.334 6.84691C114.245 7.28767 115.035 7.94524 115.632 8.76197V6.57797H119.121V23.5779ZM115.567 12.5271C115.187 11.56 114.586 10.7967 113.766 10.237C112.946 9.67745 111.998 9.39768 110.922 9.39768C109.401 9.39768 108.189 9.90837 107.287 10.9297C106.385 11.9512 105.934 13.3312 105.935 15.0698C105.935 16.8194 106.369 18.2048 107.238 19.2261C108.108 20.2476 109.287 20.7582 110.775 20.7582C111.873 20.7582 112.851 20.4756 113.709 19.9106C114.567 19.3458 115.187 18.5852 115.567 17.6287L115.567 12.5271Z" fill="#1C2B33"/>
<path d="M3.9038 15.8274C3.9038 17.2071 4.20663 18.2664 4.60244 18.9072C5.1214 19.7466 5.89542 20.1022 6.68454 20.1022C7.70233 20.1022 8.63344 19.8496 10.4278 17.3679C11.8653 15.3788 13.5591 12.5868 14.6988 10.8364L16.6288 7.871C17.9695 5.81153 19.5214 3.52209 21.3007 1.97026C22.7532 0.70367 24.3201 0 25.8971 0C28.5446 0 31.0665 1.53424 32.9966 4.41173C35.1088 7.56314 36.1342 11.5326 36.1342 15.6289C36.1342 18.0641 35.6542 19.8534 34.8374 21.267C34.0483 22.6341 32.5103 24 29.9231 24V20.1022C32.1384 20.1022 32.6912 18.0666 32.6912 15.737C32.6912 12.4172 31.9172 8.73298 30.2121 6.10052C29.002 4.2333 27.4339 3.09235 25.7086 3.09235C23.8427 3.09235 22.3411 4.49968 20.6535 7.009C19.7564 8.3422 18.8353 9.9669 17.8012 11.8002L16.6628 13.817C14.3758 17.8718 13.7966 18.7954 12.6531 20.3196C10.6489 22.9885 8.93752 24 6.68454 24C4.01186 24 2.32181 22.8427 1.27511 21.0986C0.420658 19.6775 0.000976562 17.8128 0.000976562 15.688L3.9038 15.8274Z" fill="#0081FB"/>
<path d="M3.0791 4.6869C4.86842 1.92878 7.45062 0 10.4123 0C12.1275 0 13.8326 0.507648 15.6131 1.96147C17.5608 3.551 19.6366 6.16839 22.2263 10.4821L23.1549 12.0302C25.3966 15.7646 26.672 17.6859 27.4184 18.5918C28.3784 19.7554 29.0506 20.1022 29.9239 20.1022C32.1392 20.1022 32.6921 18.0666 32.6921 15.737L36.135 15.6289C36.135 18.0641 35.655 19.8534 34.8383 21.267C34.0492 22.6341 32.5111 24 29.9239 24C28.3155 24 26.8906 23.6507 25.3149 22.1642C24.1036 21.0232 22.6875 18.9964 21.598 17.1744L18.3574 11.7612C16.7315 9.0446 15.2399 7.01905 14.3767 6.10177C13.4481 5.11539 12.2544 3.92418 10.3495 3.92418C8.80769 3.92418 7.49837 5.00607 6.40266 6.66094L3.0791 4.6869Z" fill="url(#paint0_linear_197_250)"/>
<path d="M10.3486 3.92418C8.80684 3.92418 7.49752 5.00607 6.40181 6.66094C4.85249 8.99937 3.9038 12.4825 3.9038 15.8274C3.9038 17.2071 4.20663 18.2664 4.60244 18.9072L1.27511 21.0986C0.420658 19.6775 0.000976562 17.8128 0.000976562 15.688C0.000976562 11.8241 1.0615 7.79684 3.07825 4.6869C4.86757 1.92878 7.44977 0 10.4114 0L10.3486 3.92418Z" fill="url(#paint1_linear_197_250)"/>
<defs>
<linearGradient id="paint0_linear_197_250" x1="7.66675" y1="14.7016" x2="32.5463" y2="15.9581" gradientUnits="userSpaceOnUse">
<stop stop-color="#0064E1"/>
<stop offset="0.4" stop-color="#0064E1"/>
<stop offset="0.83" stop-color="#0073EE"/>
<stop offset="1" stop-color="#0082FB"/>
</linearGradient>
<linearGradient id="paint1_linear_197_250" x1="5.65542" y1="17.466" x2="5.65542" y2="8.29319" gradientUnits="userSpaceOnUse">
<stop stop-color="#0082FB"/>
<stop offset="1" stop-color="#0064E0"/>
</linearGradient>
</defs>
</svg>
