<svg width="125" height="30" viewBox="0 0 125 30" fill="none" xmlns="http://www.w3.org/2000/svg">
<path d="M41.7345 9.38696C41.7359 10.7718 41.5962 12.1531 41.3176 13.5096C41.0341 14.9268 40.5978 16.3091 40.0164 17.6322C39.3792 19.096 38.5719 20.4798 37.6111 21.7548C36.4362 23.3151 35.0482 24.7028 33.4876 25.8775C32.2112 26.8364 30.8274 27.6435 29.3642 28.2823C28.04 28.8616 26.6576 29.2978 25.2407 29.5833C23.8839 29.8618 22.5023 30.0015 21.1173 30.0001C19.7325 30.0007 18.3511 29.8626 16.9938 29.5878C14.0038 28.9774 11.1869 27.71 8.74691 25.8775C7.18634 24.7028 5.79833 23.3151 4.62346 21.7548C3.66266 20.4798 2.85532 19.096 2.21811 17.6322C1.63667 16.3091 1.2004 14.9268 0.916936 13.5096C0.638352 12.1531 0.498656 10.7718 0.50001 9.38696H0.564152C1.60973 9.39233 2.62202 9.75509 3.43293 10.415C4.24384 11.075 4.80459 11.9924 5.02206 13.0149C5.05871 13.1798 5.09995 13.3447 5.14118 13.5096C5.51558 14.9539 6.08431 16.3408 6.83179 17.6322C7.37862 18.5803 8.02028 19.4705 8.74691 20.289C9.20262 20.808 9.69078 21.2976 10.2084 21.7548C11.0304 22.4793 11.9221 23.1206 12.8704 23.6696C14.1619 24.416 15.5492 24.9831 16.9938 25.3553C19.6987 26.0515 22.5358 26.0515 25.2407 25.3553C26.6853 24.9831 28.0726 24.416 29.3642 23.6696C30.3124 23.1206 31.2041 22.4793 32.0261 21.7548C32.5437 21.2976 33.0319 20.808 33.4876 20.289C34.2142 19.4705 34.8559 18.5803 35.4027 17.6322C36.1502 16.3408 36.7189 14.9539 37.0933 13.5096C37.1346 13.3447 37.1758 13.1798 37.2125 13.0149C37.4299 11.9924 37.9907 11.075 38.8016 10.415C39.6125 9.75509 40.6248 9.39233 41.6704 9.38696H41.7345Z" fill="#3E96FC"/>
<path d="M14.6441 10.4444L21.1904 14.2234L17.0674 16.6008L8.6978 11.7636L6.40725 10.4444C6.22171 10.3375 6.0676 10.1837 5.96045 9.9983C5.85329 9.81294 5.79688 9.60262 5.79688 9.38852C5.79687 9.17442 5.85329 8.9641 5.96045 8.77874C6.0676 8.59338 6.22171 8.43953 6.40725 8.33267L8.6978 7.00885L17.0674 2.17163L21.1904 4.55359L14.6441 8.33267C14.4585 8.43953 14.3044 8.59338 14.1972 8.77874C14.0901 8.9641 14.0337 9.17442 14.0337 9.38852C14.0337 9.60262 14.0901 9.81294 14.1972 9.9983C14.3044 10.1837 14.4585 10.3375 14.6441 10.4444Z" fill="#785BFF"/>
<path d="M25.3079 2.17237L21.1852 4.55433L17.0625 2.17237L20.521 0.175185C20.7235 0.0603586 20.9524 0 21.1852 0C21.418 0 21.6469 0.0603586 21.8494 0.175185L25.3079 2.17237Z" fill="#00258C"/>
<path d="M35.9909 10.4444L34.3371 11.3972C34.0958 11.5359 33.8957 11.7363 33.7573 11.9777C33.6188 12.2192 33.547 12.4931 33.5492 12.7714V12.9592C33.5518 13.9546 33.3152 14.9361 32.8591 15.821C32.4031 16.7059 31.7411 17.4682 30.9288 18.0437C30.4468 18.39 29.9216 18.6718 29.3666 18.882V15.4007C29.3662 15.2857 29.3355 15.1728 29.2776 15.0735C29.2197 14.9741 29.1367 14.8917 29.0368 14.8346C28.937 14.7775 28.8239 14.7477 28.7089 14.7482C28.5939 14.7486 28.4811 14.7794 28.3817 14.8373L25.3261 16.6008L21.2031 14.2234L27.7449 10.4444C27.9316 10.3385 28.0869 10.1849 28.195 9.99946C28.303 9.81398 28.3599 9.60317 28.3599 9.38852C28.3599 9.17387 28.303 8.96306 28.195 8.77758C28.0869 8.59209 27.9316 8.43857 27.7449 8.33267L21.2031 4.55359L25.3261 2.17163L33.6958 7.00885L35.9863 8.33267C36.1721 8.43912 36.3265 8.59265 36.4341 8.77777C36.5416 8.9629 36.5985 9.1731 36.599 9.3872C36.5994 9.60129 36.5435 9.81174 36.4367 9.99733C36.33 10.1829 36.1762 10.3371 35.9909 10.4444Z" fill="#FE4C93"/>
<path d="M25.3079 16.6025L21.8494 18.5997C21.6469 18.7145 21.418 18.7748 21.1852 18.7748C20.9524 18.7748 20.7235 18.7145 20.521 18.5997L17.0625 16.6025L21.1852 14.2251L25.3079 16.6025Z" fill="#00258C"/>
<path d="M51.384 21.24C50.5413 21.24 49.7813 21.0933 49.104 20.8C48.432 20.5067 47.8773 20.088 47.44 19.544C47.008 18.9947 46.7333 18.344 46.616 17.592L48.616 17.288C48.7867 17.9707 49.136 18.4987 49.664 18.872C50.1973 19.2453 50.8107 19.432 51.504 19.432C51.9147 19.432 52.3013 19.368 52.664 19.24C53.0267 19.112 53.32 18.9253 53.544 18.68C53.7733 18.4347 53.888 18.1333 53.888 17.776C53.888 17.616 53.8613 17.4693 53.808 17.336C53.7547 17.1973 53.6747 17.0747 53.568 16.968C53.4667 16.8613 53.3333 16.7653 53.168 16.68C53.008 16.5893 52.8213 16.512 52.608 16.448L49.632 15.568C49.376 15.4933 49.0987 15.3947 48.8 15.272C48.5067 15.144 48.2267 14.9707 47.96 14.752C47.6987 14.528 47.4827 14.2453 47.312 13.904C47.1467 13.5573 47.064 13.1307 47.064 12.624C47.064 11.8827 47.2507 11.2613 47.624 10.76C48.0027 10.2533 48.5093 9.87467 49.144 9.624C49.784 9.37333 50.4933 9.25067 51.272 9.256C52.0613 9.26133 52.7653 9.39733 53.384 9.664C54.0027 9.92533 54.52 10.3067 54.936 10.808C55.352 11.3093 55.6453 11.9147 55.816 12.624L53.744 12.984C53.6587 12.5787 53.4933 12.2347 53.248 11.952C53.008 11.664 52.712 11.4453 52.36 11.296C52.0133 11.1467 51.6427 11.0667 51.248 11.056C50.864 11.0507 50.5067 11.1093 50.176 11.232C49.8507 11.3493 49.5867 11.52 49.384 11.744C49.1867 11.968 49.088 12.2293 49.088 12.528C49.088 12.8107 49.1733 13.0427 49.344 13.224C49.5147 13.4 49.7253 13.5413 49.976 13.648C50.232 13.7493 50.4907 13.8347 50.752 13.904L52.816 14.48C53.0987 14.5547 53.416 14.656 53.768 14.784C54.12 14.912 54.4587 15.0907 54.784 15.32C55.1093 15.5493 55.376 15.8507 55.584 16.224C55.7973 16.5973 55.904 17.072 55.904 17.648C55.904 18.2453 55.7787 18.7707 55.528 19.224C55.2827 19.672 54.9493 20.0453 54.528 20.344C54.1067 20.6427 53.624 20.8667 53.08 21.016C52.5413 21.1653 51.976 21.24 51.384 21.24ZM57.6196 21L57.6356 9.48H59.5876V16.52L62.7476 12.36H65.1556L61.8036 16.68L65.4436 21H62.8916L59.5876 16.84V21H57.6196ZM66.405 11.048V9.28H68.333V11.048H66.405ZM66.405 21V12.36H68.333V21H66.405ZM70.8894 21V9.24H72.8174V21H70.8894ZM75.3738 21V9.24H77.3018V21H75.3738ZM83.5141 21.24C82.6501 21.24 81.8955 21.0453 81.2501 20.656C80.6048 20.2667 80.1035 19.7307 79.7461 19.048C79.3941 18.36 79.2181 17.5707 79.2181 16.68C79.2181 15.7733 79.3995 14.9787 79.7621 14.296C80.1248 13.6133 80.6288 13.08 81.2741 12.696C81.9195 12.312 82.6661 12.12 83.5141 12.12C84.3835 12.12 85.1408 12.3147 85.7861 12.704C86.4315 13.0933 86.9328 13.632 87.2901 14.32C87.6475 15.0027 87.8261 15.7893 87.8261 16.68C87.8261 17.576 87.6448 18.368 87.2821 19.056C86.9248 19.7387 86.4235 20.2747 85.7781 20.664C85.1328 21.048 84.3781 21.24 83.5141 21.24ZM83.5141 19.432C84.2821 19.432 84.8528 19.176 85.2261 18.664C85.5995 18.152 85.7861 17.4907 85.7861 16.68C85.7861 15.8427 85.5968 15.176 85.2181 14.68C84.8395 14.1787 84.2715 13.928 83.5141 13.928C82.9968 13.928 82.5701 14.0453 82.2341 14.28C81.9035 14.5093 81.6581 14.832 81.4981 15.248C81.3381 15.6587 81.2581 16.136 81.2581 16.68C81.2581 17.5173 81.4475 18.1867 81.8261 18.688C82.2101 19.184 82.7728 19.432 83.5141 19.432ZM92.9519 21V9.48H94.8799V19.192H99.9679V21H92.9519ZM101.323 21V9.48H103.059L107.043 17.64L111.027 9.48H112.763V21H110.963V13.616L107.427 21H106.659L103.131 13.616V21H101.323ZM119.275 21.24C118.432 21.24 117.672 21.0933 116.995 20.8C116.323 20.5067 115.768 20.088 115.331 19.544C114.899 18.9947 114.624 18.344 114.507 17.592L116.507 17.288C116.677 17.9707 117.027 18.4987 117.555 18.872C118.088 19.2453 118.701 19.432 119.395 19.432C119.805 19.432 120.192 19.368 120.555 19.24C120.917 19.112 121.211 18.9253 121.435 18.68C121.664 18.4347 121.779 18.1333 121.779 17.776C121.779 17.616 121.752 17.4693 121.699 17.336C121.645 17.1973 121.565 17.0747 121.459 16.968C121.357 16.8613 121.224 16.7653 121.059 16.68C120.899 16.5893 120.712 16.512 120.499 16.448L117.523 15.568C117.267 15.4933 116.989 15.3947 116.691 15.272C116.397 15.144 116.117 14.9707 115.851 14.752C115.589 14.528 115.373 14.2453 115.203 13.904C115.037 13.5573 114.955 13.1307 114.955 12.624C114.955 11.8827 115.141 11.2613 115.515 10.76C115.893 10.2533 116.4 9.87467 117.035 9.624C117.675 9.37333 118.384 9.25067 119.163 9.256C119.952 9.26133 120.656 9.39733 121.275 9.664C121.893 9.92533 122.411 10.3067 122.827 10.808C123.243 11.3093 123.536 11.9147 123.707 12.624L121.635 12.984C121.549 12.5787 121.384 12.2347 121.139 11.952C120.899 11.664 120.603 11.4453 120.251 11.296C119.904 11.1467 119.533 11.0667 119.139 11.056C118.755 11.0507 118.397 11.1093 118.067 11.232C117.741 11.3493 117.477 11.52 117.275 11.744C117.077 11.968 116.979 12.2293 116.979 12.528C116.979 12.8107 117.064 13.0427 117.235 13.224C117.405 13.4 117.616 13.5413 117.867 13.648C118.123 13.7493 118.381 13.8347 118.643 13.904L120.707 14.48C120.989 14.5547 121.307 14.656 121.659 14.784C122.011 14.912 122.349 15.0907 122.675 15.32C123 15.5493 123.267 15.8507 123.475 16.224C123.688 16.5973 123.795 17.072 123.795 17.648C123.795 18.2453 123.669 18.7707 123.419 19.224C123.173 19.672 122.84 20.0453 122.419 20.344C121.997 20.6427 121.515 20.8667 120.971 21.016C120.432 21.1653 119.867 21.24 119.275 21.24Z" fill="#293253"/>
</svg>
