<svg width="36" height="36" viewBox="0 0 36 36" fill="none" xmlns="http://www.w3.org/2000/svg">
<g clip-path="url(#clip0_225_197)">
<path d="M32.1296 15.3001H29.3576C28.4936 11.6461 25.8836 8.6761 22.4816 7.2361V8.1001C22.4996 9.5941 21.2936 10.8001 19.7996 10.8001H16.1996V12.6001C16.1996 13.5901 15.3896 14.4001 14.3996 14.4001H12.5996V18.0001H14.3996V21.6001H12.5996L6.55161 15.5521C6.38961 16.3441 6.29961 17.1541 6.29961 18.0001C6.29961 24.4441 11.5556 29.7001 17.9996 29.7001V32.4001C10.0436 32.4001 3.59961 25.9561 3.59961 18.0001C3.59961 10.0441 10.0436 3.6001 17.9996 3.6001C25.0376 3.6001 30.8696 8.6401 32.1296 15.3001ZM31.4456 30.5461C30.9236 31.0681 30.0596 31.0681 29.5376 30.5461L25.8836 26.8921C24.4616 27.8101 22.6436 28.1881 20.7356 27.6481C18.5036 27.0181 16.7576 25.1101 16.3076 22.8241C15.4616 18.3781 19.2956 14.5621 23.7236 15.4081C26.0096 15.8401 27.9176 17.5861 28.5476 19.8361C29.0876 21.7441 28.7096 23.5621 27.7916 24.9841L31.4456 28.6381C31.9676 29.1601 31.9676 30.0241 31.4456 30.5461ZM26.0996 21.6001C26.0996 19.6201 24.4796 18.0001 22.4996 18.0001C20.5196 18.0001 18.8996 19.6201 18.8996 21.6001C18.8996 23.5801 20.5196 25.2001 22.4996 25.2001C24.4796 25.2001 26.0996 23.5801 26.0996 21.6001Z" fill="#0072EF"/>
</g>
<defs>
<clipPath id="clip0_225_197">
<rect width="36" height="36" fill="white"/>
</clipPath>
</defs>
</svg>
