<svg width="36" height="36" viewBox="0 0 36 36" fill="none" xmlns="http://www.w3.org/2000/svg">
<g clip-path="url(#clip0_482_11)">
<path d="M30.1901 15.0617C29.9059 14.7776 29.4452 14.7776 29.1609 15.0617C27.8281 16.3944 25.9214 16.9998 24.0614 16.6807C23.665 16.6131 23.289 16.8788 23.2211 17.2749C23.1531 17.671 23.4191 18.0473 23.8153 18.1151C24.2243 18.1853 24.6347 18.2196 25.0431 18.2196C26.9564 18.2196 28.8167 17.4641 30.1901 16.0908C30.4743 15.8067 30.4743 15.346 30.1901 15.0617Z" fill="#0072EF"/>
<path d="M32.796 3.20332C28.5248 -1.06775 21.5743 -1.06782 17.3023 3.20339C14.1568 6.34953 13.2372 11.1001 14.9381 15.1738L0.213148 29.8989C0.067882 30.0442 -0.00918068 30.244 0.000874022 30.449L0.227914 35.0816C0.246195 35.4556 0.545234 35.7546 0.919227 35.7728L5.551 35.9992C5.56295 35.9997 5.5747 36 5.58658 36C5.77903 36 5.96416 35.9237 6.10099 35.787L7.68956 34.1991C7.82611 34.0626 7.90282 33.8776 7.90282 33.6845V30.2774H11.3099C11.5029 30.2774 11.688 30.2007 11.8244 30.0643L13.605 28.2836C13.7415 28.1471 13.8182 27.9621 13.8182 27.7691V24.3619H17.2252C17.4182 24.3619 17.6034 24.2852 17.7398 24.1488L20.8267 21.0619C24.901 22.7623 29.6511 21.8426 32.7964 18.6978L32.7966 18.6977C37.0678 14.4257 37.0674 7.47495 32.796 3.20332ZM31.7676 17.6685C28.9337 20.5021 24.5976 21.2526 20.9777 19.5362C20.6995 19.4045 20.3689 19.4617 20.1514 19.6793L16.9239 22.9067H13.0906C12.6886 22.9067 12.3629 23.2325 12.3629 23.6343V27.4677L11.0085 28.8221H7.17508C6.77318 28.8221 6.44742 29.1479 6.44742 29.5497V33.383L5.30006 34.5299L1.64928 34.3515L1.47034 30.7001L16.3209 15.8494C16.5385 15.6319 16.5957 15.301 16.4639 15.023C14.7471 11.4035 15.4976 7.06707 18.3315 4.23256C22.0359 0.528839 28.063 0.528628 31.7669 4.23249C35.471 7.93663 35.4713 13.9641 31.7676 17.6685Z" fill="#0072EF"/>
<path d="M29.0106 6.98942C28.3688 6.3476 27.5156 5.99414 26.608 5.99414C25.7004 5.99414 24.8472 6.3476 24.2052 6.98956C22.8814 8.31425 22.8814 10.4696 24.2056 11.7947C24.8679 12.4566 25.738 12.7876 26.608 12.7876C27.478 12.7876 28.3481 12.4566 29.0104 11.7947L29.0106 11.7946C29.6524 11.1528 30.0059 10.2995 30.0059 9.39193C30.0059 8.48433 29.6524 7.63123 29.0106 6.98942ZM27.9815 10.7655C27.224 11.5223 25.9917 11.5221 25.2348 10.7657C24.4778 10.0082 24.4778 8.77578 25.2346 8.01865C25.6015 7.65176 26.0892 7.44968 26.6081 7.44968C27.1269 7.44968 27.6146 7.65176 27.9815 8.01865C28.3484 8.38547 28.5505 8.87323 28.5505 9.39207C28.5505 9.91091 28.3483 10.3986 27.9815 10.7655Z" fill="#0072EF"/>
<path d="M31.0208 13.2266C30.0843 13.2266 30.0828 14.682 31.0208 14.682C31.9573 14.682 31.9589 13.2266 31.0208 13.2266Z" fill="#0072EF"/>
</g>
<defs>
<clipPath id="clip0_482_11">
<rect width="36" height="36" fill="white"/>
</clipPath>
</defs>
</svg>
