<svg width="36" height="28" viewBox="0 0 36 28" fill="none" xmlns="http://www.w3.org/2000/svg">
<g clip-path="url(#clip0_262_238)">
<path fill-rule="evenodd" clip-rule="evenodd" d="M21.8569 19.9286C21.8569 19.422 21.7571 18.9205 21.5633 18.4525C21.3694 17.9845 21.0853 17.5593 20.7271 17.2011C20.369 16.843 19.9438 16.5589 19.4758 16.365C19.0078 16.1712 18.5062 16.0714 17.9997 16.0714C17.4932 16.0714 16.9916 16.1712 16.5237 16.365C16.0557 16.5589 15.6305 16.843 15.2723 17.2011C14.9141 17.5593 14.63 17.9845 14.4362 18.4525C14.2423 18.9205 14.1426 19.422 14.1426 19.9286C14.1426 20.9515 14.549 21.9326 15.2723 22.656C15.9957 23.3793 16.9767 23.7857 17.9997 23.7857C19.0227 23.7857 20.0038 23.3793 20.7271 22.656C21.4505 21.9326 21.8569 20.9515 21.8569 19.9286ZM16.714 19.9286C16.714 19.5876 16.8495 19.2605 17.0906 19.0194C17.3317 18.7783 17.6587 18.6428 17.9997 18.6428C18.3407 18.6428 18.6677 18.7783 18.9089 19.0194C19.15 19.2605 19.2854 19.5876 19.2854 19.9286C19.2854 20.2695 19.15 20.5966 18.9089 20.8377C18.6677 21.0788 18.3407 21.2143 17.9997 21.2143C17.6587 21.2143 17.3317 21.0788 17.0906 20.8377C16.8495 20.5966 16.714 20.2695 16.714 19.9286Z" fill="#0072EF"/>
<path fill-rule="evenodd" clip-rule="evenodd" d="M25.722 13.2197C25.9494 12.9685 26.0684 12.6376 26.0531 12.2991C26.0378 11.9605 25.8895 11.6417 25.6404 11.412C25.3914 11.1822 25.0616 11.0601 24.723 11.0721C24.3843 11.0842 24.0641 11.2294 23.832 11.4763L18.7611 16.9727C18.5338 17.224 18.4148 17.5548 18.43 17.8934C18.4453 18.2319 18.5936 18.5507 18.8427 18.7805C19.0918 19.0102 19.4215 19.1324 19.7602 19.1203C20.0988 19.1083 20.419 18.963 20.6511 18.7161L25.722 13.2197ZM34.7143 27.6429C35.0553 27.6429 35.3823 27.5074 35.6234 27.2663C35.8645 27.0252 36 26.6981 36 26.3571C36 26.0161 35.8645 25.6891 35.6234 25.448C35.3823 25.2069 35.0553 25.0714 34.7143 25.0714H1.28571C0.944722 25.0714 0.617695 25.2069 0.376577 25.448C0.135459 25.6891 0 26.0161 0 26.3571C0 26.6981 0.135459 27.0252 0.376577 27.2663C0.617695 27.5074 0.944722 27.6429 1.28571 27.6429H34.7143ZM16.7143 4.5C16.7143 4.84099 16.8497 5.16802 17.0909 5.40914C17.332 5.65026 17.659 5.78571 18 5.78571C18.341 5.78571 18.668 5.65026 18.9091 5.40914C19.1503 5.16802 19.2857 4.84099 19.2857 4.5V1.28571C19.2857 0.944722 19.1503 0.617695 18.9091 0.376577C18.668 0.135459 18.341 0 18 0C17.659 0 17.332 0.135459 17.0909 0.376577C16.8497 0.617695 16.7143 0.944722 16.7143 1.28571V4.5ZM5.6655 12.3634C5.81178 12.4492 5.97357 12.5052 6.14157 12.5281C6.30956 12.5511 6.48045 12.5406 6.64437 12.4973C6.8083 12.4539 6.96204 12.3786 7.09673 12.2756C7.23142 12.1726 7.34441 12.044 7.4292 11.8971C7.51398 11.7503 7.56888 11.5881 7.59073 11.42C7.61259 11.2518 7.60097 11.081 7.55654 10.9174C7.51212 10.7538 7.43576 10.6005 7.33187 10.4665C7.22798 10.3325 7.09862 10.2204 6.95121 10.1366L4.16764 8.52943C4.02137 8.44367 3.85957 8.3877 3.69158 8.36473C3.52358 8.34176 3.3527 8.35225 3.18877 8.39559C3.02484 8.43893 2.87111 8.51426 2.73641 8.61726C2.60172 8.72026 2.48873 8.84888 2.40395 8.99572C2.31916 9.14256 2.26427 9.30473 2.24241 9.47287C2.22056 9.64102 2.23218 9.81182 2.2766 9.97546C2.32103 10.1391 2.39738 10.2923 2.50127 10.4263C2.60516 10.5603 2.73453 10.6725 2.88193 10.7563L5.6655 12.3634ZM29.0488 10.1366C28.9014 10.2204 28.772 10.3325 28.6681 10.4665C28.5642 10.6005 28.4879 10.7538 28.4435 10.9174C28.399 11.081 28.3874 11.2518 28.4093 11.42C28.4311 11.5881 28.486 11.7503 28.5708 11.8971C28.6556 12.044 28.7686 12.1726 28.9033 12.2756C29.038 12.3786 29.1917 12.4539 29.3556 12.4973C29.5196 12.5406 29.6904 12.5511 29.8584 12.5281C30.0264 12.5052 30.1882 12.4492 30.3345 12.3634L33.1181 10.7563C33.2655 10.6725 33.3948 10.5603 33.4987 10.4263C33.6026 10.2923 33.679 10.1391 33.7234 9.97546C33.7678 9.81182 33.7794 9.64102 33.7576 9.47287C33.7357 9.30473 33.6808 9.14256 33.5961 8.99572C33.5113 8.84888 33.3983 8.72026 33.2636 8.61726C33.1289 8.51426 32.9752 8.43893 32.8112 8.39559C32.6473 8.35225 32.4764 8.34176 32.3084 8.36473C32.1404 8.3877 31.9786 8.44367 31.8324 8.52943L29.0488 10.1366ZM10.1366 6.95121C10.2204 7.09862 10.3325 7.22798 10.4665 7.33187C10.6005 7.43576 10.7538 7.51212 10.9174 7.55654C11.081 7.60097 11.2518 7.61259 11.42 7.59073C11.5881 7.56888 11.7503 7.51398 11.8971 7.4292C12.044 7.34441 12.1726 7.23142 12.2756 7.09673C12.3786 6.96204 12.4539 6.8083 12.4973 6.64437C12.5406 6.48045 12.5511 6.30956 12.5281 6.14157C12.5052 5.97357 12.4492 5.81178 12.3634 5.6655L10.7563 2.88193C10.6725 2.73453 10.5603 2.60516 10.4263 2.50127C10.2923 2.39738 10.1391 2.32103 9.97546 2.2766C9.81182 2.23218 9.64102 2.22056 9.47287 2.24241C9.30473 2.26427 9.14256 2.31916 8.99572 2.40395C8.84888 2.48873 8.72026 2.60172 8.61726 2.73641C8.51426 2.87111 8.43893 3.02484 8.39559 3.18877C8.35225 3.3527 8.34176 3.52358 8.36473 3.69158C8.3877 3.85957 8.44367 4.02137 8.52943 4.16764L10.1366 6.95121ZM23.6366 5.6655C23.5508 5.81178 23.4948 5.97357 23.4719 6.14157C23.4489 6.30956 23.4594 6.48045 23.5027 6.64437C23.5461 6.8083 23.6214 6.96204 23.7244 7.09673C23.8274 7.23142 23.956 7.34441 24.1029 7.4292C24.2497 7.51398 24.4119 7.56888 24.58 7.59073C24.7482 7.61259 24.919 7.60097 25.0826 7.55654C25.2462 7.51212 25.3995 7.43576 25.5335 7.33187C25.6675 7.22798 25.7796 7.09862 25.8634 6.95121L27.4706 4.16764C27.5563 4.02137 27.6123 3.85957 27.6353 3.69158C27.6582 3.52358 27.6478 3.3527 27.6044 3.18877C27.5611 3.02484 27.4857 2.87111 27.3827 2.73641C27.2797 2.60172 27.1511 2.48873 27.0043 2.40395C26.8574 2.31916 26.6953 2.26427 26.5271 2.24241C26.359 2.22056 26.1882 2.23218 26.0245 2.2766C25.8609 2.32103 25.7077 2.39738 25.5737 2.50127C25.4397 2.60516 25.3275 2.73453 25.2437 2.88193L23.6366 5.6655ZM31.5 16.7143C31.159 16.7143 30.832 16.8497 30.5909 17.0909C30.3497 17.332 30.2143 17.659 30.2143 18C30.2143 18.341 30.3497 18.668 30.5909 18.9091C30.832 19.1503 31.159 19.2857 31.5 19.2857H34.7143C35.0553 19.2857 35.3823 19.1503 35.6234 18.9091C35.8645 18.668 36 18.341 36 18C36 17.659 35.8645 17.332 35.6234 17.0909C35.3823 16.8497 35.0553 16.7143 34.7143 16.7143H31.5ZM1.28571 16.7143C0.944722 16.7143 0.617695 16.8497 0.376577 17.0909C0.135459 17.332 0 17.659 0 18C0 18.341 0.135459 18.668 0.376577 18.9091C0.617695 19.1503 0.944722 19.2857 1.28571 19.2857H4.5C4.84099 19.2857 5.16802 19.1503 5.40914 18.9091C5.65026 18.668 5.78571 18.341 5.78571 18C5.78571 17.659 5.65026 17.332 5.40914 17.0909C5.16802 16.8497 4.84099 16.7143 4.5 16.7143H1.28571Z" fill="#0072EF"/>
</g>
<defs>
<clipPath id="clip0_262_238">
<rect width="36" height="27.6429" fill="white"/>
</clipPath>
</defs>
</svg>
