<svg width="72" height="72" viewBox="0 0 72 72" fill="none" xmlns="http://www.w3.org/2000/svg">
<path d="M24.2778 34.8894H10.2078C10.4478 20.8794 13.2078 18.5694 21.8178 13.4694C22.8078 12.8694 23.1378 11.6094 22.5378 10.5894C21.9678 9.59943 20.6778 9.26943 19.6878 9.86943C9.54781 15.8694 6.00781 19.5294 6.00781 36.9594V53.1294C6.00781 58.2594 10.1778 62.3994 15.2778 62.3994H24.2778C29.5578 62.3994 33.5478 58.4094 33.5478 53.1294V44.1294C33.5478 38.8794 29.5578 34.8894 24.2778 34.8894Z" fill="#0A7EFB"/>
<path d="M56.7297 34.8894H42.6597C42.8997 20.8794 45.6597 18.5694 54.2697 13.4694C55.2597 12.8694 55.5897 11.6094 54.9897 10.5894C54.3897 9.59943 53.1297 9.26943 52.1097 9.86943C41.9697 15.8694 38.4297 19.5294 38.4297 36.9894V53.1594C38.4297 58.2894 42.5997 62.4294 47.6997 62.4294H56.6997C61.9797 62.4294 65.9697 58.4394 65.9697 53.1594V44.1594C65.9997 38.8794 62.0097 34.8894 56.7297 34.8894Z" fill="#0A7EFB"/>
</svg>
