<svg width="1600" height="760" viewBox="0 0 1600 760" fill="none" xmlns="http://www.w3.org/2000/svg">
<rect width="1600" height="760" fill="url(#paint0_radial_326_117)"/>
<g clip-path="url(#clip0_326_117)">
<path d="M1391.38 704.81C1389.79 704.857 1388.21 704.457 1386.84 703.655C1385.58 702.88 1384.57 701.757 1383.94 700.421C1383.24 698.917 1382.89 697.273 1382.93 695.614C1382.89 693.954 1383.24 692.308 1383.94 690.802C1384.57 689.467 1385.58 688.344 1386.84 687.569C1388.21 686.767 1389.79 686.366 1391.38 686.413C1393.19 686.347 1394.98 686.882 1396.47 687.938C1397.84 688.968 1398.85 690.409 1399.34 692.052L1396.36 692.875C1396.08 691.814 1395.46 690.87 1394.61 690.177C1393.67 689.496 1392.53 689.158 1391.38 689.219C1390.33 689.18 1389.3 689.458 1388.41 690.015C1387.61 690.568 1386.99 691.352 1386.64 692.264C1386.22 693.342 1386.01 694.49 1386.03 695.645C1386 696.799 1386.21 697.947 1386.62 699.023C1386.98 699.938 1387.61 700.722 1388.42 701.271C1389.31 701.828 1390.34 702.106 1391.39 702.067C1392.54 702.118 1393.68 701.772 1394.6 701.087C1395.46 700.393 1396.07 699.449 1396.36 698.389L1399.34 699.171C1398.85 700.812 1397.85 702.253 1396.48 703.286C1395 704.345 1393.2 704.881 1391.38 704.81Z" fill="white"/>
<path d="M1402.59 704.446V686.778H1409.88C1410.06 686.778 1410.28 686.778 1410.55 686.778C1410.8 686.789 1411.05 686.816 1411.3 686.859C1412.22 686.973 1413.09 687.325 1413.83 687.879C1414.49 688.396 1415.01 689.079 1415.32 689.858C1415.65 690.705 1415.81 691.607 1415.8 692.516C1415.83 693.836 1415.45 695.134 1414.71 696.226C1414.31 696.759 1413.81 697.204 1413.23 697.534C1412.66 697.865 1412.02 698.073 1411.36 698.146L1410.1 698.254H1405.54V704.446H1402.59ZM1405.54 695.515H1409.76C1409.93 695.515 1410.11 695.515 1410.32 695.488C1410.51 695.476 1410.7 695.442 1410.88 695.389C1411.32 695.297 1411.73 695.071 1412.04 694.742C1412.32 694.44 1412.52 694.079 1412.64 693.685C1412.75 693.312 1412.81 692.924 1412.82 692.534C1412.81 692.141 1412.76 691.75 1412.64 691.374C1412.52 690.978 1412.32 690.615 1412.04 690.312C1411.73 689.986 1411.32 689.762 1410.88 689.669C1410.69 689.622 1410.51 689.591 1410.32 689.579C1410.11 689.579 1409.93 689.579 1409.76 689.579H1405.54V695.515ZM1412.74 704.446L1409.26 697.251L1412.26 696.59L1416.09 704.442L1412.74 704.446Z" fill="white"/>
<path d="M1419.35 704.446V686.778H1430.75V689.552H1422.3V693.905H1429.28V696.68H1422.3V701.672H1430.75V704.446H1419.35Z" fill="white"/>
<path d="M1433.04 704.446L1438.6 686.778H1442.93L1448.5 704.446H1445.46L1440.41 688.595H1441.07L1436.08 704.446H1433.04ZM1436.14 700.615V697.858H1445.41V700.615H1436.14Z" fill="white"/>
<path d="M1454.05 704.446V689.552H1448.33V686.778H1462.72V689.552H1457V704.446H1454.05Z" fill="white"/>
<path d="M1465.49 704.446V686.778H1468.45V704.446H1465.49Z" fill="white"/>
<path d="M1476.69 704.446L1471.1 686.778H1474.14L1478.8 701.573L1483.53 686.778H1486.58L1481 704.446H1476.69Z" fill="white"/>
<path d="M1488.97 704.446V686.778H1500.38V689.552H1491.93V693.905H1498.91V696.68H1491.93V701.672H1500.38V704.446H1488.97Z" fill="white"/>
<path d="M1504.12 704.446V686.778H1507.08V704.446H1504.12Z" fill="white"/>
<path d="M1515.58 704.446V689.552H1509.87V686.778H1524.26V689.552H1518.54V704.446H1515.58Z" fill="white"/>
<path d="M1526.78 704.446V686.778H1538.19V689.552H1529.76V693.905H1536.74V696.68H1529.76V701.672H1538.21V704.446H1526.78Z" fill="white"/>
<path d="M1541.7 704.446V686.778H1544.36L1550.47 699.293L1556.58 686.778H1559.24V704.446H1556.48V693.123L1551.06 704.446H1549.88L1544.48 693.123V704.446H1541.7Z" fill="white"/>
<path d="M1341.67 710.319L1328.91 702.949V717.685L1341.67 710.319Z" fill="white" fill-opacity="0.48"/>
<path d="M1367.2 695.583L1354.43 688.217V702.949L1367.2 695.583Z" fill="white" fill-opacity="0.47"/>
<path d="M1341.67 680.846L1328.91 673.48V688.217L1341.67 680.846Z" fill="white" fill-opacity="0.48"/>
<path d="M1328.91 673.48L1318.7 679.376C1317.93 679.822 1317.28 680.466 1316.83 681.243C1316.38 682.019 1316.15 682.9 1316.15 683.796V707.369C1316.15 708.266 1316.39 709.148 1316.83 709.924C1317.28 710.701 1317.93 711.346 1318.7 711.794L1328.91 717.685V673.48Z" fill="url(#paint1_linear_326_117)"/>
<path d="M1367.19 707.369V695.583L1328.91 717.685L1339.12 723.581C1339.9 724.029 1340.78 724.265 1341.67 724.265C1342.57 724.265 1343.45 724.029 1344.22 723.581L1364.64 711.794C1365.42 711.345 1366.06 710.7 1366.51 709.923C1366.96 709.146 1367.2 708.266 1367.19 707.369Z" fill="url(#paint2_linear_326_117)"/>
<path d="M1344.32 667.634C1343.55 667.19 1342.68 666.956 1341.79 666.956C1340.9 666.956 1340.03 667.19 1339.26 667.634L1329.13 673.48L1367.1 695.407V683.715C1367.1 682.826 1366.87 681.952 1366.42 681.182C1365.98 680.411 1365.34 679.771 1364.57 679.326L1344.32 667.634Z" fill="url(#paint3_linear_326_117)"/>
</g>
<path d="M1191.87 589.18C1191.87 618.42 1016.4 642.12 799.94 642.12C583.48 642.12 408 618.42 408 589.18C408 559.94 583.48 536.24 799.94 536.24C1016.4 536.24 1191.87 559.94 1191.87 589.18Z" fill="url(#paint4_linear_326_117)"/>
<path d="M799.939 621.78C703.479 621.78 610.829 617.01 539.059 608.33C511.249 604.96 487.249 601.11 467.749 596.89C464.579 596.2 462.539 593.18 462.539 589.18C462.539 585.18 464.539 582.18 467.749 581.47C487.229 577.26 511.219 573.41 539.059 570.04C610.839 561.37 703.489 556.59 799.939 556.59C896.389 556.59 989.039 561.37 1060.82 570.04C1088.66 573.41 1112.66 577.26 1132.13 581.47C1135.29 582.16 1137.34 585.18 1137.34 589.18C1137.34 593.18 1135.34 596.18 1132.13 596.89C1112.64 601.11 1088.65 604.96 1060.82 608.32C989.049 617 896.399 621.78 799.939 621.78ZM476.429 589.18C494.359 592.79 515.749 596.11 540.149 599.06C611.569 607.69 703.829 612.45 799.939 612.45C896.049 612.45 988.309 607.69 1059.72 599.06C1084.13 596.11 1105.52 592.79 1123.45 589.18C1105.53 585.57 1084.14 582.26 1059.72 579.3C988.299 570.67 896.039 565.92 799.939 565.92C703.839 565.92 611.579 570.67 540.149 579.3C515.739 582.26 494.349 585.57 476.429 589.18Z" fill="#E3FFFB" fill-opacity="0.78"/>
<path fill-rule="evenodd" clip-rule="evenodd" d="M517.58 117H742.45V561.08H517.58V117ZM645.79 302.84V357.23H651.93V302.84H645.79ZM608.1 302.84V357.23H614.25V302.84H608.1ZM626.94 118.05V560.05H633.08V118.05H626.94ZM750.49 117H975.36V561.08H750.49V117ZM878.7 302.84V357.23H884.84V302.84H878.7ZM841.01 302.84V357.23H847.15V302.84H841.01ZM859.85 118.05V560.05H866V118.05H859.85Z" fill="white" fill-opacity="0.16"/>
<path d="M578.95 606.78C578.25 606.795 577.567 606.564 577.019 606.127C576.471 605.691 576.093 605.076 575.95 604.39L527.95 384.06C527.779 383.274 527.928 382.452 528.363 381.774C528.798 381.097 529.484 380.621 530.27 380.45C531.057 380.279 531.879 380.427 532.556 380.862C533.233 381.297 533.709 381.984 533.88 382.77L581.88 603.1C581.97 603.489 581.981 603.892 581.913 604.285C581.845 604.678 581.699 605.054 581.484 605.39C581.269 605.727 580.989 606.016 580.66 606.243C580.332 606.47 579.961 606.628 579.57 606.71C579.366 606.751 579.159 606.774 578.95 606.78ZM421.77 606.78C421.555 606.776 421.341 606.753 421.13 606.71C420.739 606.63 420.367 606.472 420.038 606.245C419.708 606.019 419.427 605.73 419.211 605.393C418.994 605.057 418.848 604.681 418.779 604.287C418.71 603.893 418.721 603.49 418.81 603.1L466.57 383.1C466.655 382.711 466.816 382.343 467.043 382.016C467.27 381.69 467.559 381.411 467.894 381.196C468.228 380.981 468.602 380.834 468.994 380.763C469.385 380.693 469.787 380.7 470.175 380.785C470.564 380.87 470.932 381.03 471.259 381.257C471.586 381.484 471.865 381.773 472.08 382.108C472.295 382.443 472.441 382.817 472.512 383.208C472.582 383.6 472.575 384.001 472.49 384.39L424.73 604.35C424.598 605.037 424.229 605.655 423.689 606.099C423.148 606.542 422.47 606.783 421.77 606.78Z" fill="url(#paint5_linear_326_117)"/>
<path d="M586.51 531.19H413.66V525.12H586.51V531.19Z" fill="url(#paint6_linear_326_117)"/>
<path d="M570.33 465.61H429.83V459.54H570.33V465.61Z" fill="url(#paint7_linear_326_117)"/>
<path d="M547.27 386.01H452.88V379.94H547.27V386.01Z" fill="url(#paint8_linear_326_117)"/>
<path fill-rule="evenodd" clip-rule="evenodd" d="M541.69 349.71C541.762 350.301 541.799 350.895 541.8 351.49C541.8 366.59 519.53 378.83 492.06 378.83C464.59 378.83 442.33 366.59 442.33 351.49C442.333 350.895 442.367 350.301 442.43 349.71H541.69Z" fill="#C3B4AE"/>
<path fill-rule="evenodd" clip-rule="evenodd" d="M541.69 349.71C541.762 350.301 541.799 350.895 541.8 351.49C541.8 366.59 519.53 378.83 492.06 378.83C464.59 378.83 442.33 366.59 442.33 351.49C442.333 350.895 442.367 350.301 442.43 349.71H541.69Z" fill="#C3B4AE"/>
<path fill-rule="evenodd" clip-rule="evenodd" d="M541.69 349.71C541.762 350.301 541.799 350.895 541.8 351.49C541.8 366.59 519.53 378.83 492.06 378.83C464.59 378.83 442.33 366.59 442.33 351.49C442.333 350.895 442.367 350.301 442.43 349.71H541.69Z" fill="#C3B4AE"/>
<path fill-rule="evenodd" clip-rule="evenodd" d="M542.171 350C542.242 350.591 542.279 351.185 542.281 351.78C542.281 366.88 520.011 379.12 492.541 379.12C465.071 379.12 442.811 366.88 442.811 351.78C442.814 351.185 442.847 350.591 442.911 350H542.171Z" fill="url(#paint9_linear_326_117)"/>
<path fill-rule="evenodd" clip-rule="evenodd" d="M453.249 373.62H530.849C532.069 373.62 532.169 374.74 531.069 376.11L530.579 376.73C529.54 378.071 528.026 378.962 526.349 379.22H457.769C456.104 378.972 454.595 378.1 453.549 376.78L453.049 376.16C451.949 374.78 452.049 373.62 453.249 373.62Z" fill="url(#paint10_linear_326_117)"/>
<path fill-rule="evenodd" clip-rule="evenodd" d="M453.249 373.62H530.849C532.069 373.62 532.169 374.74 531.069 376.11L530.579 376.73C529.54 378.071 528.026 378.962 526.349 379.22H457.769C456.104 378.972 454.595 378.1 453.549 376.78L453.049 376.16C451.949 374.78 452.049 373.62 453.249 373.62Z" fill="url(#paint11_linear_326_117)"/>
<path fill-rule="evenodd" clip-rule="evenodd" d="M453.249 373.62H530.849C532.069 373.62 532.169 374.74 531.069 376.11L530.579 376.73C529.54 378.071 528.026 378.962 526.349 379.22H457.769C456.104 378.972 454.595 378.1 453.549 376.78L453.049 376.16C451.949 374.78 452.049 373.62 453.249 373.62Z" fill="url(#paint12_linear_326_117)"/>
<path fill-rule="evenodd" clip-rule="evenodd" d="M453.249 373.62H530.849C532.069 373.62 532.169 374.74 531.069 376.11L530.579 376.73C529.54 378.071 528.026 378.962 526.349 379.22H457.769C456.104 378.972 454.595 378.1 453.549 376.78L453.049 376.16C451.949 374.78 452.049 373.62 453.249 373.62Z" fill="url(#paint13_linear_326_117)"/>
<path fill-rule="evenodd" clip-rule="evenodd" d="M473.251 376.78C455.091 372.7 442.301 362.9 442.301 351.45C442.304 350.855 442.337 350.261 442.401 349.67H504.091C504.163 350.261 504.199 350.855 504.201 351.45C504.251 362.94 491.441 372.78 473.251 376.78Z" fill="url(#paint14_linear_326_117)"/>
<path fill-rule="evenodd" clip-rule="evenodd" d="M473.251 376.78C455.091 372.7 442.301 362.9 442.301 351.45C442.304 350.855 442.337 350.261 442.401 349.67H504.091C504.163 350.261 504.199 350.855 504.201 351.45C504.251 362.94 491.441 372.78 473.251 376.78Z" fill="url(#paint15_linear_326_117)"/>
<path fill-rule="evenodd" clip-rule="evenodd" d="M473.251 376.78C455.091 372.7 442.301 362.9 442.301 351.45C442.304 350.855 442.337 350.261 442.401 349.67H504.091C504.163 350.261 504.199 350.855 504.201 351.45C504.251 362.94 491.441 372.78 473.251 376.78Z" fill="url(#paint16_linear_326_117)"/>
<path fill-rule="evenodd" clip-rule="evenodd" d="M473.251 376.78C455.091 372.7 442.301 362.9 442.301 351.45C442.304 350.855 442.337 350.261 442.401 349.67H504.091C504.163 350.261 504.199 350.855 504.201 351.45C504.251 362.94 491.441 372.78 473.251 376.78Z" fill="url(#paint17_linear_326_117)"/>
<path fill-rule="evenodd" clip-rule="evenodd" d="M473.251 376.78C455.091 372.7 442.301 362.9 442.301 351.45C442.304 350.855 442.337 350.261 442.401 349.67H504.091C504.163 350.261 504.199 350.855 504.201 351.45C504.251 362.94 491.441 372.78 473.251 376.78Z" fill="url(#paint18_linear_326_117)"/>
<path fill-rule="evenodd" clip-rule="evenodd" d="M473.251 376.78C455.091 372.7 442.301 362.9 442.301 351.45C442.304 350.855 442.337 350.261 442.401 349.67H504.091C504.163 350.261 504.199 350.855 504.201 351.45C504.251 362.94 491.441 372.78 473.251 376.78Z" fill="url(#paint19_linear_326_117)"/>
<path fill-rule="evenodd" clip-rule="evenodd" d="M473.251 376.78C455.091 372.7 442.301 362.9 442.301 351.45C442.304 350.855 442.337 350.261 442.401 349.67H504.091C504.163 350.261 504.199 350.855 504.201 351.45C504.251 362.94 491.441 372.78 473.251 376.78Z" fill="url(#paint20_linear_326_117)"/>
<path fill-rule="evenodd" clip-rule="evenodd" d="M453.249 373.62H530.849C532.069 373.62 532.169 374.74 531.069 376.11L530.579 376.73C529.54 378.071 528.026 378.962 526.349 379.22H457.769C456.104 378.972 454.595 378.1 453.549 376.78L453.049 376.16C451.949 374.78 452.049 373.62 453.249 373.62Z" fill="url(#paint21_linear_326_117)"/>
<path fill-rule="evenodd" clip-rule="evenodd" d="M473.251 376.78C455.091 372.7 442.301 362.9 442.301 351.45C442.304 350.855 442.337 350.261 442.401 349.67H504.091C504.163 350.261 504.199 350.855 504.201 351.45C504.251 362.94 491.441 372.78 473.251 376.78Z" fill="url(#paint22_linear_326_117)"/>
<path d="M526.42 494.57H560.76C560.76 494.57 561.66 510.42 552.68 522.68C550.33 525.89 547.31 525.62 543.41 525.62C539.51 525.62 536.5 525.89 534.17 522.67C525.25 510.41 526.42 494.57 526.42 494.57Z" fill="url(#paint23_linear_326_117)"/>
<path d="M526.42 494.57H560.76C560.76 494.57 561.66 510.42 552.68 522.68C550.33 525.89 547.31 525.62 543.41 525.62C539.51 525.62 536.5 525.89 534.17 522.67C525.25 510.41 526.42 494.57 526.42 494.57Z" fill="url(#paint24_linear_326_117)"/>
<path d="M526.42 494.57H560.76C560.76 494.57 561.66 510.42 552.68 522.68C550.33 525.89 547.31 525.62 543.41 525.62C539.51 525.62 536.5 525.89 534.17 522.67C525.25 510.41 526.42 494.57 526.42 494.57Z" fill="url(#paint25_linear_326_117)"/>
<path d="M526.42 494.57H560.76C560.76 494.57 561.66 510.42 552.68 522.68C550.33 525.89 547.31 525.62 543.41 525.62C539.51 525.62 536.5 525.89 534.17 522.67C525.25 510.41 526.42 494.57 526.42 494.57Z" fill="url(#paint26_linear_326_117)"/>
<path fill-rule="evenodd" clip-rule="evenodd" d="M453.249 373.62H530.849C532.069 373.62 532.169 374.74 531.069 376.11L530.579 376.73C529.54 378.071 528.026 378.962 526.349 379.22H457.769C456.104 378.972 454.595 378.1 453.549 376.78L453.049 376.16C451.949 374.78 452.049 373.62 453.249 373.62Z" fill="url(#paint27_linear_326_117)"/>
<path fill-rule="evenodd" clip-rule="evenodd" d="M450.251 349.71C449.116 348.888 447.899 348.184 446.621 347.61C439.621 344.44 446.711 331.04 454.621 339.27C456.121 340.83 457.461 342.68 458.621 343.82C461.621 346.65 463.121 344.91 462.191 341.69C459.911 333.76 461.831 336.95 465.571 340.45C467.871 342.61 470.311 343.37 467.571 332.13C466.901 329.32 465.101 326.21 463.641 322.93C454.951 303.33 484.641 287.81 484.641 316.2C484.641 320.39 482.531 345.05 492.271 341.55C497.361 339.73 496.511 334.4 495.391 328.94C490.611 305.64 511.481 312.94 504.111 327.77C498.601 338.88 505.671 344.77 509.921 336.14C510.706 334.376 511.049 332.447 510.921 330.52C510.871 323.66 517.921 322.63 519.191 328.12C519.881 331.22 518.121 336.33 516.831 337.62C513.681 340.78 522.751 344.62 522.661 335.21C522.451 313.98 532.331 318.15 534.001 326.21C534.811 330.16 530.301 336.29 528.211 338.47C522.551 344.37 528.671 350.41 532.711 339.12C534.711 333.58 540.061 336.8 540.491 341.12C540.741 343.56 537.321 346.86 536.001 347.88C535.231 348.47 534.421 349.07 533.581 349.68L450.251 349.71Z" fill="url(#paint28_linear_326_117)"/>
<path fill-rule="evenodd" clip-rule="evenodd" d="M450.251 349.71C449.116 348.888 447.899 348.184 446.621 347.61C439.621 344.44 446.711 331.04 454.621 339.27C456.121 340.83 457.461 342.68 458.621 343.82C461.621 346.65 463.121 344.91 462.191 341.69C459.911 333.76 461.831 336.95 465.571 340.45C467.871 342.61 470.311 343.37 467.571 332.13C466.901 329.32 465.101 326.21 463.641 322.93C454.951 303.33 484.641 287.81 484.641 316.2C484.641 320.38 482.541 344.88 492.171 341.58C491.772 344.333 491.16 347.051 490.341 349.71H450.251Z" fill="url(#paint29_linear_326_117)"/>
<path d="M792.66 465.41H715.4C707.97 465.41 701.77 459.86 701.55 452.96L697.74 333.43C697.677 331.532 697.998 329.641 698.685 327.871C699.372 326.1 700.41 324.487 701.736 323.129C703.063 321.77 704.651 320.694 706.405 319.966C708.159 319.237 710.041 318.871 711.94 318.89H796.12C798.019 318.871 799.902 319.237 801.656 319.966C803.409 320.694 804.997 321.77 806.324 323.129C807.651 324.487 808.689 326.1 809.376 327.871C810.063 329.641 810.384 331.532 810.32 333.43L806.52 452.96C806.3 459.86 800.09 465.41 792.66 465.41ZM708.57 585.35H704.24L702.93 469.61H709.89L708.57 585.35ZM800.47 585.35H804.81L806.12 469.61H799.16L800.47 585.35Z" fill="url(#paint30_linear_326_117)"/>
<path d="M808.401 469.61H702.161C701.084 469.61 700.019 469.398 699.024 468.986C698.03 468.573 697.127 467.969 696.366 467.208C695.605 466.446 695.002 465.542 694.591 464.547C694.18 463.552 693.969 462.486 693.971 461.41C693.971 459.238 694.834 457.155 696.37 455.619C697.905 454.083 699.989 453.22 702.161 453.22H808.401C810.573 453.22 812.656 454.083 814.192 455.619C815.728 457.155 816.591 459.238 816.591 461.41C816.592 462.486 816.381 463.552 815.97 464.547C815.559 465.542 814.956 466.446 814.195 467.208C813.435 467.969 812.532 468.573 811.537 468.986C810.543 469.398 809.477 469.61 808.401 469.61Z" fill="url(#paint31_linear_326_117)"/>
<path d="M904.65 410.18H597.79C595.001 410.18 592.74 412.441 592.74 415.23V416.66C592.74 419.449 595.001 421.71 597.79 421.71H904.65C907.439 421.71 909.7 419.449 909.7 416.66V415.23C909.7 412.441 907.439 410.18 904.65 410.18Z" fill="url(#paint32_linear_326_117)"/>
<path d="M920.37 416.86H584.89C583.125 416.849 581.436 416.141 580.192 414.889C578.948 413.638 578.25 411.945 578.25 410.18C578.25 408.408 578.954 406.709 580.207 405.457C581.459 404.204 583.158 403.5 584.93 403.5H920.37C922.14 403.503 923.836 404.208 925.087 405.46C926.338 406.713 927.04 408.41 927.04 410.18C927.04 411.95 926.338 413.647 925.087 414.9C923.836 416.152 922.14 416.857 920.37 416.86Z" fill="url(#paint33_linear_326_117)"/>
<path d="M920.37 403.5H782.48C790.48 407.76 798.75 411.79 807.27 415.58C808.13 415.99 808.99 416.42 809.85 416.86H920.37C922.142 416.86 923.841 416.156 925.094 414.903C926.347 413.651 927.05 411.952 927.05 410.18C927.05 408.408 926.347 406.709 925.094 405.457C923.841 404.204 922.142 403.5 920.37 403.5Z" fill="#E9E1E0" fill-opacity="0.05"/>
<path d="M614.42 592.3H611.31L607.08 421.71H618.65L614.42 592.3ZM894.66 592.3H891.56L887.33 421.71H898.89L894.66 592.3Z" fill="#B5AAA7"/>
<path style="mix-blend-mode:screen" d="M697.901 299L732.731 310.79L694.631 389.28L645.711 317.02L697.901 299Z" fill="url(#paint34_linear_326_117)"/>
<path d="M647.151 396.38L622.971 318.93C622.971 318.93 684.781 280.52 700.231 298.47L631.061 323.12L659.401 396.38H647.151Z" fill="url(#paint35_linear_326_117)"/>
<path d="M690.249 296.89L635.989 314.89C633.809 313.68 670.679 297.2 677.459 296.06C686.339 294.55 690.249 296.89 690.249 296.89Z" fill="white"/>
<path d="M628.809 329.18L652.969 397.35L647.149 396.39L625.939 328.45L628.809 329.18Z" fill="url(#paint36_linear_326_117)"/>
<path d="M677.53 403.5H630.66C630.168 403.501 629.681 403.406 629.226 403.218C628.771 403.031 628.357 402.756 628.009 402.408C627.661 402.061 627.384 401.648 627.196 401.194C627.007 400.739 626.91 400.252 626.91 399.76C626.91 398.765 627.305 397.812 628.009 397.108C628.712 396.405 629.666 396.01 630.66 396.01H677.53C678.523 396.018 679.472 396.419 680.169 397.126C680.867 397.833 681.255 398.787 681.25 399.78C681.245 400.765 680.851 401.708 680.155 402.405C679.458 403.101 678.515 403.495 677.53 403.5Z" fill="#5E5E5E"/>
<path d="M631.544 328.617C635.195 327.112 636.936 322.933 635.432 319.282C633.928 315.631 629.748 313.891 626.097 315.395C622.446 316.899 620.706 321.078 622.21 324.729C623.714 328.38 627.893 330.121 631.544 328.617Z" fill="#5E5E5E"/>
<path d="M632.94 322.03C632.94 322.847 632.697 323.645 632.244 324.325C631.79 325.004 631.145 325.533 630.39 325.846C629.635 326.158 628.805 326.24 628.004 326.081C627.203 325.921 626.467 325.528 625.889 324.95C625.312 324.373 624.918 323.637 624.759 322.836C624.6 322.035 624.681 321.204 624.994 320.45C625.307 319.695 625.836 319.05 626.515 318.596C627.194 318.142 627.993 317.9 628.81 317.9C629.905 317.9 630.956 318.335 631.73 319.11C632.505 319.884 632.94 320.935 632.94 322.03Z" fill="#CAC4BE"/>
<path d="M535.249 438.71C531.189 427.97 532.099 410.54 535.769 403.99C538.979 417.55 549.769 457.25 549.069 469.63C540.849 463.99 535.249 438.71 535.249 438.71Z" fill="url(#paint37_linear_326_117)"/>
<path d="M543.25 460.19C539.81 448.89 549.08 420.69 549.97 413.19C554.78 424.78 548.68 454.39 550.68 463.61C547.48 469.88 545.12 463.61 545.12 463.61L543.25 460.19Z" fill="url(#paint38_linear_326_117)"/>
<path d="M547.18 470.69C548.65 453.88 558.08 421.19 582.54 412.15C575.47 425.15 568.2 437.59 563.38 443.49C558.56 449.39 551.05 468.41 551.05 468.41L547.18 470.69Z" fill="url(#paint39_linear_326_117)"/>
<path d="M526.349 439.84C520.279 426.07 514.919 417.22 507.119 409.23C519.349 410.55 526.179 416.31 532.449 423.75C538.719 431.19 550.269 456.24 549.699 472.22C542.629 480.34 541.059 478.22 541.059 478.22C541.059 478.22 532.419 453.61 526.349 439.84Z" fill="url(#paint40_linear_326_117)"/>
<path d="M542.189 476.95C543.039 462.95 528.009 433.95 504.039 436.95C522.249 454.53 534.799 473.78 540.129 489.78C542.139 487.01 542.189 476.95 542.189 476.95Z" fill="url(#paint41_linear_326_117)"/>
<path d="M540.59 488.36C538.03 478.14 546.2 455.53 569.19 453.89C571.65 464.35 565.09 472.89 557.82 477.75C550.55 482.61 544.26 485.87 543.54 489.6C542.49 490.13 540.59 488.36 540.59 488.36Z" fill="url(#paint42_linear_326_117)"/>
<path d="M524.4 487.78H563.25C563.39 487.779 563.528 487.81 563.655 487.871C563.781 487.931 563.892 488.02 563.978 488.13C564.065 488.24 564.126 488.368 564.155 488.505C564.185 488.642 564.183 488.784 564.15 488.92L562.67 495.08C562.622 495.283 562.507 495.463 562.344 495.592C562.18 495.721 561.978 495.791 561.77 495.79H525.87C525.661 495.791 525.459 495.721 525.296 495.592C525.132 495.463 525.017 495.283 524.97 495.08L523.49 488.92C523.456 488.783 523.454 488.64 523.484 488.503C523.514 488.365 523.576 488.236 523.664 488.126C523.752 488.016 523.864 487.927 523.991 487.867C524.119 487.807 524.259 487.777 524.4 487.78Z" fill="url(#paint43_linear_326_117)"/>
<path d="M526.42 494.57H560.76C560.76 494.57 561.66 510.42 552.68 522.68C550.33 525.89 547.31 525.62 543.41 525.62C539.51 525.62 536.5 525.89 534.17 522.67C525.25 510.41 526.42 494.57 526.42 494.57Z" fill="url(#paint44_linear_326_117)"/>
<path d="M530.439 495.06L528.959 488.9C528.926 488.764 528.924 488.622 528.954 488.485C528.983 488.348 529.044 488.22 529.131 488.11C529.217 488 529.328 487.911 529.454 487.851C529.581 487.79 529.719 487.759 529.859 487.76H524.399C524.259 487.759 524.121 487.79 523.994 487.851C523.868 487.911 523.757 488 523.671 488.11C523.584 488.22 523.523 488.348 523.494 488.485C523.464 488.622 523.466 488.764 523.499 488.9L524.979 495.06C525.027 495.263 525.142 495.443 525.305 495.572C525.469 495.701 525.671 495.771 525.879 495.77H531.339C531.131 495.771 530.929 495.701 530.765 495.572C530.602 495.443 530.487 495.263 530.439 495.06Z" fill="url(#paint45_linear_326_117)"/>
<path d="M539.63 522.67C530.75 510.41 531.88 494.57 531.88 494.57H526.42C526.42 494.57 525.29 510.41 534.17 522.67C536.5 525.89 539.51 525.62 543.41 525.62H546.15C543.53 525.54 541.39 525.1 539.63 522.67Z" fill="url(#paint46_linear_326_117)"/>
<path d="M526.48 499.49H560.44L560.76 495.77H526.42L526.48 499.49Z" fill="url(#paint47_linear_326_117)"/>
<path d="M561.85 487.78C562.39 485.67 559.98 482.36 553.23 482.9C549.161 483.337 545.054 483.277 541 482.72C537.68 482.36 533 484.35 528.95 484.23C524.9 484.11 522.68 485.61 524.4 487.78H561.85Z" fill="url(#paint48_linear_326_117)"/>
<path fill-rule="evenodd" clip-rule="evenodd" d="M915.669 597.19C907.889 596.71 894.889 598.85 887.109 598.36C923.739 585.66 930.739 467.53 933.229 440.42C936.419 405.69 937.429 380.18 948.549 373.42C971.029 359.84 1006.23 401.3 984.169 446.42C975.879 463.42 964.279 476.06 965.879 485.77C971.539 520.03 943.239 553.7 921.879 580.67C917.249 586.66 926.779 598.47 915.669 597.19Z" fill="#FEBEA0"/>
<path fill-rule="evenodd" clip-rule="evenodd" d="M995.249 598.06H973.599C975.838 591.518 977.298 584.734 977.949 577.85C980.949 550.04 979.649 517.01 976.109 486.02L976.019 485.27L975.849 483.78L975.759 483.04L975.309 479.36L975.219 478.63L975.029 477.16L974.929 476.43L974.449 472.78L974.349 472.05L974.249 471.33L974.149 470.61L974.039 469.89L973.939 469.17L973.839 468.45L973.729 467.74L973.629 467.02L973.529 466.31L973.419 465.6L973.209 464.24V464.18L973.099 463.47L972.989 462.78L972.879 462.08L972.769 461.37L972.669 460.74V460.67L972.559 459.97L972.449 459.27L972.319 458.48L972.109 457.19V456.95L972.029 456.49L971.919 455.8L971.799 455.11V454.91L971.719 454.43L971.599 453.74L971.479 453.06V452.89L971.389 452.37L971.159 451.02V450.88L971.069 450.34L970.829 448.99V448.88L970.489 447.03V446.94L970.139 445.05V444.99L969.809 443.24V442.87L969.479 441.16C969.229 439.88 968.999 438.62 968.779 437.37C962.889 404.45 967.249 386.47 975.399 379.56C987.169 364.62 1007.57 370.02 1017.89 389.56C1024.22 401.56 1020.46 425.56 1017.5 444L1017.37 444.81L1017.23 445.62L1017.08 446.43L1016.93 447.22L1016.78 448.01L1016.62 448.8L1016.46 449.58L1016.29 450.35L1016.12 451.12L1015.95 451.88L1015.77 452.63L1015.59 453.38L1015.41 454.12L1015.23 454.86L1015.05 455.59L1014.86 456.32L1014.68 457.04L1014.49 457.75L1014.31 458.46L1014.12 459.16L1013.94 459.85L1013.76 460.54L1013.58 461.23L1013.4 461.91L1013.22 462.58L1013.05 463.25L1012.88 463.91L1012.71 464.57L1012.55 465.22L1012.39 465.86L1012.24 466.5L1012.09 467.13L1011.94 467.76L1011.8 468.38L1011.67 469L1011.54 469.61L1011.42 470.21L1011.3 470.81L1011.2 471.4L1011.1 471.99L1011.01 472.57L1010.92 473.15L1010.85 473.72L1010.78 474.28V474.84L1010.73 475.4V479.62C1010.73 479.79 1010.73 479.95 1010.78 480.12C1010.78 480.29 1010.78 480.45 1010.85 480.62C1010.92 480.79 1010.9 480.95 1010.93 481.11C1010.96 481.27 1011 481.43 1011.03 481.6C1011.06 481.77 1011.1 481.92 1011.14 482.08C1011.18 482.24 1011.22 482.39 1011.27 482.55C1011.32 482.71 1011.36 482.86 1011.41 483.02C1011.46 483.18 1011.51 483.33 1011.57 483.48C1011.63 483.63 1011.68 483.79 1011.74 483.94C1011.8 484.09 1011.86 484.24 1011.93 484.39C1026.68 518.24 1008.56 553.1 996.719 581.34C993.799 587.55 992.649 591.19 995.249 598.06ZM943.689 518.6C931.249 539.32 914.249 574.41 904.619 597.53C898.409 597.99 891.809 598.65 887.109 598.36C907.989 591.03 919.409 549.84 925.649 510.78C931.759 472.43 957.499 495.64 943.689 518.6Z" fill="#FECEB4"/>
<path fill-rule="evenodd" clip-rule="evenodd" d="M993.89 514.64C993.69 521.45 993.15 528.05 992.72 533.78C991.12 555.02 986.43 579.33 983.46 598.06H973.6C975.838 591.517 977.298 584.734 977.95 577.85C980.05 558.4 980.04 536.41 978.64 514.34C976.38 478.78 994.5 493.13 993.89 514.64Z" fill="#FEDFCD"/>
<path fill-rule="evenodd" clip-rule="evenodd" d="M841.35 261.28C845.9 263.69 844.81 261.06 843.26 258.41C840.89 254.41 840.96 253.29 841.51 252.64C842.21 251.8 843.72 252.77 846.59 256.08C850.12 260.17 854.94 266.08 857.36 271.33C858.06 272.65 853.99 278.04 850.06 279.47C847.14 279.52 835.43 276.67 827.59 273.36C826.51 272.9 820.68 270.64 825.3 270.87C827.3 270.97 830.19 270.87 827.98 269.53C825.53 268.1 821.5 265.79 820.06 263.8C819.975 263.649 819.937 263.475 819.95 263.302C819.963 263.129 820.027 262.964 820.134 262.827C820.241 262.69 820.386 262.588 820.551 262.533C820.715 262.479 820.893 262.474 821.06 262.52C823.26 262.93 828.43 264.97 828.22 263.95C828.06 263.17 823.28 259.86 821.82 258.16C821.13 257.37 821.97 256.59 823.26 256.94C825.93 257.68 831.01 261.25 831.72 260.34C832.72 259.1 829.96 256.48 828.51 254.75C827.34 253.35 827.79 252.66 829.65 253.24C833.59 254.47 837.25 259.07 841.35 261.28Z" fill="url(#paint49_linear_326_117)"/>
<path fill-rule="evenodd" clip-rule="evenodd" d="M849.56 283.16C848.56 279.53 853.85 266.9 856.56 267.01C871.49 268.84 913.72 304.38 939.61 277.31C955.76 260.41 970.01 267 977.19 278.26C987.37 294.26 979.29 316.18 967.73 326.95C936.98 355.55 875.56 328.78 849.56 283.16Z" fill="url(#paint50_linear_326_117)"/>
<path fill-rule="evenodd" clip-rule="evenodd" d="M898.25 588.17C912.39 571.1 919.43 536.07 922.33 520.08C925.18 504.39 927.21 488.52 928.84 472.67C929.94 461.87 930.75 451.08 931.74 440.28C932.48 432.22 933.14 424.15 933.92 416.1C934.56 409.46 935.28 402.74 936.45 396.17C937.83 388.31 940.45 376.61 947.8 372.17C950.234 370.683 952.965 369.751 955.8 369.44C969.73 367.92 981.57 380.56 987.08 392.01C995.58 409.64 994.08 429.82 985.61 447.16C981.76 455.02 977.04 462.1 972.7 469.64C970.25 473.91 966.61 480.47 967.45 485.58C973.3 520.94 943.68 555.77 923.19 581.69C922.902 582.05 922.675 582.456 922.52 582.89C922.076 584.419 921.983 586.03 922.25 587.6C922.25 588.09 922.39 588.6 922.47 589.18C919.69 589.13 916.87 589.05 914.03 588.96C908.61 588.78 903.34 588.49 898.25 588.17Z" fill="url(#paint51_linear_326_117)"/>
<path fill-rule="evenodd" clip-rule="evenodd" d="M975.25 376.42C980.184 380.761 984.191 386.053 987.031 391.98C995.531 409.61 994.03 429.79 985.56 447.13C981.71 454.99 976.991 462.07 972.651 469.61C970.201 473.88 966.561 480.44 967.401 485.55C968.561 492.877 968.361 500.355 966.81 507.61C966.77 500.463 966.594 493.323 966.281 486.19C965.531 469.63 963.9 454 962.14 437.57C960.49 422.27 958.81 390.24 973.36 378.41C973.97 377.71 974.6 377.05 975.25 376.42Z" fill="#FCBF3E"/>
<path fill-rule="evenodd" clip-rule="evenodd" d="M974.01 378.41C977.626 373.603 982.997 370.422 988.95 369.56C1002.08 367.85 1013.25 377.94 1018.95 388.8C1025.95 402.11 1021.11 429.67 1018.72 444.21L1018.58 445.04L1018.44 445.86L1018.29 446.67L1018.14 447.48L1017.98 448.28L1017.82 449.08L1017.66 449.86L1017.49 450.64L1017.32 451.42L1017.14 452.19L1016.96 452.95L1016.78 453.7L1016.6 454.45L1016.42 455.2L1016.05 456.66L1015.49 458.81L1014.41 462.94L1014.07 464.26L1013.74 465.56L1013.58 466.2L1013.43 466.83L1013.28 467.45L1013.14 468.07L1013 468.68L1012.87 469.28L1012.74 469.88L1012.63 470.47L1012.51 471.05L1012.41 471.63L1012.31 472.2L1012.25 472.78L1012.16 473.34L1012.09 473.89L1012.03 474.45V479.46L1012.09 479.92C1012.09 480.07 1012.09 480.22 1012.15 480.37C1012.21 480.52 1012.15 480.67 1012.22 480.82L1012.31 481.26C1012.31 481.4 1012.38 481.55 1012.41 481.69L1012.53 482.12L1012.65 482.54C1012.65 482.68 1012.74 482.82 1012.79 482.95C1012.84 483.08 1012.89 483.23 1012.95 483.36C1013.01 483.49 1013.05 483.63 1013.11 483.77C1017.67 494.382 1019.54 505.953 1018.55 517.46C1016.9 540.23 1006.55 561.21 997.92 581.93C996.711 584.432 995.885 587.102 995.47 589.85C988.04 589.66 981.04 589.23 974.74 588.62C975.526 585.015 976.11 581.37 976.49 577.7C978.89 555.45 978.49 532.25 976.88 509.95C976.313 502.023 975.57 494.11 974.65 486.21L974.39 484L974.31 483.26L973.86 479.59L973.58 477.39L973.48 476.66L973 473.04L972.7 470.88L972.39 468.73L972.08 466.59L971.65 463.74L971.21 460.94L970.86 458.76L970.54 456.76L970.19 454.7L969.84 452.65L969.49 450.65L969.22 449.16L968.87 447.22L968.5 445.22L968.1 443.08L967.76 441.36C967.52 440.09 967.29 438.82 967.06 437.55C964.25 422.27 960.3 390.24 974.01 378.41Z" fill="url(#paint52_linear_326_117)"/>
<path fill-rule="evenodd" clip-rule="evenodd" d="M985.39 226.09C950.72 226.09 937.11 237.92 937.11 260.45C937.11 298.37 941.32 329.18 936.32 372.5C935.32 380.96 934.4 393.7 933.32 407.38C950.27 412.25 1005.68 413.19 1023.92 409.02C1024.17 383.19 1024.84 359.48 1024.24 355.38C1017.04 306.19 1063.8 285.97 1058.64 272.98C1047.74 245.4 1020.06 226.09 985.39 226.09Z" fill="url(#paint53_linear_326_117)"/>
<path fill-rule="evenodd" clip-rule="evenodd" d="M951.79 242.52C985.79 242.52 999.57 256.59 1002.73 269.81C1006.98 287.61 998.45 293.15 991.94 296.26C986.48 298.87 982.72 297.75 986.41 320.8C989.91 342.69 998.77 370.89 1000.85 388.93C1001.52 394.73 1002.17 402.54 1002.85 411.29C978.85 412.41 945.77 410.95 933.34 407.38C934.34 393.7 935.34 380.96 936.34 372.5C941.34 329.18 937.13 298.37 937.13 260.45C937.13 253.73 938.34 247.97 940.95 243.19C944.546 242.744 948.166 242.52 951.79 242.52Z" fill="url(#paint54_linear_326_117)"/>
<path fill-rule="evenodd" clip-rule="evenodd" d="M1024.49 359.64C1024.49 357.64 1024.38 356.15 1024.27 355.38C1017.07 306.19 1063.83 285.97 1058.67 272.98C1052.15 256.737 1039.99 243.388 1024.43 235.38C1006.56 228.2 992.999 237.57 1014.64 280.38C1041.92 334.38 989.939 332.13 970.429 327.01C966.319 326.66 957.249 339.78 959.249 342.7C965.609 350.89 996.669 361.37 1024.49 359.64Z" fill="#0A67B1"/>
<path fill-rule="evenodd" clip-rule="evenodd" d="M1024.48 369.43C1024.55 362.19 1024.48 357.09 1024.27 355.43C1018.38 315.17 1048.62 294.32 1056.98 280.96C1053.47 274.181 1049.22 267.81 1044.31 261.96C1021.25 235.12 985.071 225.78 1014.64 288.78C1041.92 346.88 989.941 336.85 970.431 328.78C966.321 327.78 957.231 339.52 959.271 342.78C965.611 351.88 996.671 367 1024.48 369.43Z" fill="#0A67B1"/>
<path fill-rule="evenodd" clip-rule="evenodd" d="M1011.04 312.46H882.82V322.46C882.82 325.31 885.68 327.64 889.19 327.64H1004.67C1008.18 327.64 1011.04 325.31 1011.04 322.46V312.46Z" fill="url(#paint55_linear_326_117)"/>
<path fill-rule="evenodd" clip-rule="evenodd" d="M950.119 255.57H866.899C863.159 255.57 860.899 258.43 861.949 261.93L876.479 311.67C877.115 313.48 878.283 315.056 879.83 316.191C881.377 317.326 883.231 317.967 885.149 318.03H968.359C972.109 318.03 974.359 315.17 973.309 311.67L958.789 261.93C958.152 260.12 956.984 258.545 955.437 257.41C953.89 256.276 952.036 255.634 950.119 255.57Z" fill="url(#paint56_linear_326_117)"/>
<path fill-rule="evenodd" clip-rule="evenodd" d="M950.121 255.57H867.051C950.771 274.86 971.051 297.69 935.441 318.04H968.361C972.111 318.04 974.361 315.17 973.311 311.67L958.791 261.93C958.153 260.121 956.984 258.547 955.437 257.412C953.891 256.278 952.038 255.636 950.121 255.57Z" fill="#7525E9" fill-opacity="0.12"/>
<path fill-rule="evenodd" clip-rule="evenodd" d="M995.98 595.78C992.11 595.78 988.23 596.19 984.75 596.33C981.26 596.19 977.38 595.78 973.51 595.78C968.04 595.78 963.6 599.69 963.6 604.51C963.602 605.595 963.83 606.668 964.27 607.66H1005.27C1005.71 606.668 1005.94 605.595 1005.94 604.51C1005.89 599.72 1001.45 595.78 995.98 595.78Z" fill="#81CEC6"/>
<path fill-rule="evenodd" clip-rule="evenodd" d="M1003.9 610.28H965.59C965.15 610.277 964.73 610.102 964.419 609.791C964.108 609.48 963.932 609.059 963.93 608.62V607.69H1005.56V608.62C1005.56 609.059 1005.38 609.48 1005.07 609.791C1004.76 610.102 1004.34 610.277 1003.9 610.28Z" fill="url(#paint57_linear_326_117)"/>
<path fill-rule="evenodd" clip-rule="evenodd" d="M987.621 605.47C993.637 605.55 999.645 605.94 1005.62 606.64C1005.81 605.957 1005.91 605.25 1005.91 604.54C1005.91 599.72 1001.47 595.81 996.001 595.81C992.131 595.81 988.251 596.22 984.771 596.36C981.281 596.22 977.401 595.81 973.531 595.81C972.789 595.808 972.049 595.878 971.321 596.02C971.251 600.66 973.481 605.47 987.621 605.47ZM886.521 596.63C905.261 596.63 918.981 592.89 921.871 592.89C927.341 592.89 931.771 596.56 931.771 601.09C931.722 602.494 931.3 603.86 930.547 605.046C929.795 606.233 928.74 607.197 927.491 607.84H875.671C875.163 606.921 874.895 605.89 874.891 604.84C874.891 600.31 880.101 596.63 886.521 596.63Z" fill="#5CC2B7"/>
<path fill-rule="evenodd" clip-rule="evenodd" d="M886.521 596.63C905.261 596.63 918.981 592.89 921.871 592.89C923.299 592.885 924.716 593.142 926.051 593.65C916.421 602.52 894.321 605.9 875.101 606.43C874.96 605.919 874.89 605.39 874.891 604.86C874.891 600.31 880.101 596.63 886.521 596.63Z" fill="#81CEC6"/>
<path fill-rule="evenodd" clip-rule="evenodd" d="M877.249 610.28H926.529C926.943 610.28 927.34 610.116 927.633 609.823C927.925 609.531 928.089 609.134 928.089 608.72V607.84H875.689V608.72C875.689 609.134 875.854 609.531 876.146 609.823C876.439 610.116 876.836 610.28 877.249 610.28Z" fill="url(#paint58_linear_326_117)"/>
<path fill-rule="evenodd" clip-rule="evenodd" d="M944.96 318.36C951.48 321.13 950.25 314.89 949.02 312.09C947.12 307.8 947.32 306.74 947.94 306.15C948.72 305.4 950.12 306.54 952.59 310.15C955.35 314.15 958.98 319.87 960.98 324.97C964.19 329.87 967.14 329.78 970.5 329.21C967.04 332.58 964.69 338.77 961.23 342.15C957.23 334.7 948.01 332.76 940.49 329.39C937.502 328.124 934.582 326.705 931.74 325.14C930.74 324.56 925.19 321.65 929.74 322.4C931.74 322.72 934.6 322.92 932.55 321.4C930.29 319.7 926.55 316.94 925.34 314.8C925.268 314.636 925.248 314.454 925.282 314.278C925.316 314.102 925.403 313.941 925.531 313.816C925.66 313.691 925.823 313.608 926 313.579C926.176 313.549 926.358 313.574 926.52 313.65C930.52 314.88 932.06 315.65 928.52 310.37C927.52 308.86 928.05 308.21 929.83 309.01C933.6 310.67 940.64 316.53 944.96 318.36Z" fill="url(#paint59_linear_326_117)"/>
<path fill-rule="evenodd" clip-rule="evenodd" d="M959.285 343.112C957.285 340.112 966.335 327.252 970.445 327.742C989.955 333.362 1041.93 336.952 1014.65 282.232C985.085 222.922 1021.24 227.802 1044.32 251.702C1055.58 263.332 1067.28 285.182 1070.56 308.382C1081.84 387.792 971.885 359.692 959.285 343.112Z" fill="url(#paint60_linear_326_117)"/>
<path fill-rule="evenodd" clip-rule="evenodd" d="M965 336.2C982.85 350.96 1033 359.63 1051.64 344.74C1062.69 335.92 1063.75 321.93 1061.86 309.19C1059.28 291.91 1050.03 270.83 1037.17 258.19C1031.98 252.947 1025.84 248.736 1019.08 245.78C1016.5 244.78 1010.72 242.89 1008.08 244.6C1005.8 246.07 1006.08 250.9 1006.3 253.07C1007.3 262.12 1012.46 273.07 1016.67 281.13C1023.67 294.47 1030.83 315.91 1017.67 328.13C1005.94 339.02 985.72 333.07 970.53 329.26C968.269 331.208 966.394 333.561 965 336.2Z" fill="url(#paint61_linear_326_117)"/>
<path fill-rule="evenodd" clip-rule="evenodd" d="M1005.06 464.91C1004.59 467.943 1003.95 470.948 1003.15 473.91C1002.31 476.723 1001.64 479.585 1001.15 482.48C1000.98 483.747 1000.98 485.033 1001.15 486.3C1001.28 487.334 1001.62 488.331 1002.15 489.23C1005.94 495.461 1007.82 502.663 1007.56 509.95C1007.22 522.1 995.79 569.13 988.98 589.62C983.9 589.39 979.08 589.05 974.61 588.62C975.396 585.015 975.98 581.37 976.36 577.7C978.76 555.45 978.36 532.25 976.75 509.95C976.12 501.27 975.27 492.64 974.26 484L974.18 483.26C972.33 467.71 969.67 452.95 966.93 437.59C966.43 434.78 965.88 431.4 965.41 427.68C981.25 404.23 1010.92 423.78 1005.06 464.91Z" fill="#FEE5A2"/>
<path fill-rule="evenodd" clip-rule="evenodd" d="M948.589 483.78C948.559 484.806 948.74 485.827 949.119 486.78C951.802 493.39 952.443 500.652 950.959 507.63C949.809 513.25 942.439 529.57 933.959 547.06C925.959 563.62 911.349 579.12 914.459 588.92H913.979C908.609 588.73 903.339 588.48 898.199 588.16C912.339 571.09 919.379 536.06 922.279 520.07C925.129 504.38 927.159 488.51 928.789 472.66C929.889 461.86 930.699 451.07 931.689 440.27C931.919 437.75 932.149 435.22 932.369 432.7C934.139 412.55 954.619 418.7 954.799 434.92C954.989 453.18 948.729 476.78 948.589 483.78Z" fill="#FEDB7F"/>
<path fill-rule="evenodd" clip-rule="evenodd" d="M1000.66 581.09C999.041 584.96 997.921 587.9 997.661 590.94C988.411 590.69 979.661 590.16 971.851 589.41C972.561 586.22 973.121 583.02 973.571 579.69C976.238 579.95 978.944 580.18 981.691 580.38C988.301 580.85 994.691 581.08 1000.66 581.09ZM897.011 587.19C898.746 585.066 900.317 582.812 901.711 580.45L902.211 579.61L903.211 579.7C905.144 579.893 907.074 580.053 909.001 580.18C913.581 580.51 918.181 580.7 922.771 580.75H925.321L924.121 583C924.05 583.12 923.993 583.247 923.951 583.38C923.596 584.683 923.531 586.049 923.761 587.38C923.821 587.89 923.901 588.38 923.981 588.9L924.251 590.78H922.411C919.591 590.72 916.771 590.65 913.951 590.55C908.671 590.37 903.398 590.117 898.131 589.79L895.131 589.61L897.011 587.19Z" fill="url(#paint62_linear_326_117)"/>
<path fill-rule="evenodd" clip-rule="evenodd" d="M850.879 282.34C850.099 279.56 854.159 269.89 856.219 269.98C857.739 270.16 862.519 271.67 862.829 273.98C864.469 285.98 870.829 305.98 870.619 305.8C862.719 299.194 856.038 291.254 850.879 282.34Z" fill="url(#paint63_linear_326_117)"/>
<path fill-rule="evenodd" clip-rule="evenodd" d="M969.46 239.78L1002.77 230.56C1009.82 229.88 1007.07 237.68 998.77 241.66C987.77 246.91 969.04 248.25 969.02 241.95C957.02 246.23 953.27 228.95 961.75 230.64L969.75 239.26L969.46 239.78Z" fill="white"/>
<path fill-rule="evenodd" clip-rule="evenodd" d="M1008.38 179.78C1008.38 198.86 999.299 209.26 985.379 210.14C945.609 212.67 923.809 151.83 954.179 150.74C962.319 141.15 981.339 141.17 994.179 150.24C1003.25 156.62 1008.38 168.67 1008.38 179.78Z" fill="url(#paint64_linear_326_117)"/>
<path fill-rule="evenodd" clip-rule="evenodd" d="M969.561 210.66C971.321 223.09 968.251 230.96 961.711 230.6C961.711 234 964.191 238.35 968.861 240.88C987.551 242 999.981 234.48 1002.77 230.49C989.141 227.3 993.561 210.27 993.021 194.07C984.161 194.3 980.991 209.55 969.561 210.66Z" fill="url(#paint65_linear_326_117)"/>
<path fill-rule="evenodd" clip-rule="evenodd" d="M970.041 217.83C983.041 212.69 985.781 223.02 982.631 240.16C978.086 240.951 973.464 241.203 968.861 240.91C964.191 238.38 961.721 234.03 961.711 230.63C966.881 230.88 969.881 226.02 970.041 217.83Z" fill="url(#paint66_linear_326_117)"/>
<path fill-rule="evenodd" clip-rule="evenodd" d="M950.88 164.13C947.6 174.53 952.42 195.24 954.99 201.86C958.7 211.42 959.82 214.56 968.26 214.25C979.88 213.82 994.16 201.61 993.58 185.93C992.91 167.78 986.4 155.21 965.79 156.54C958.95 156.98 952.45 159.16 950.88 164.13Z" fill="url(#paint67_linear_326_117)"/>
<path fill-rule="evenodd" clip-rule="evenodd" d="M952.32 181.49C952.744 188.814 954.161 196.047 956.53 202.99C959.53 210.79 960.47 213.35 967.36 213.1C974.25 212.85 982.25 207.53 985.98 199.78C987.12 197.36 988.44 188.11 988.45 182.47C987.123 182.304 985.788 182.207 984.45 182.18C970.99 181.83 964.32 176.99 959.83 170.94C957.85 176.3 953.4 181.9 952.32 181.49Z" fill="#FEDFCD"/>
<path fill-rule="evenodd" clip-rule="evenodd" d="M952.32 181.49C952.744 188.814 954.161 196.047 956.53 202.99C959.53 210.79 960.47 213.35 967.36 213.1C974.25 212.85 982.25 207.53 985.98 199.78C987.12 197.36 988.44 188.11 988.45 182.47C987.123 182.304 985.788 182.207 984.45 182.18C970.99 181.83 964.32 176.99 959.83 170.94C957.85 176.3 953.4 181.9 952.32 181.49Z" fill="url(#paint68_linear_326_117)"/>
<path fill-rule="evenodd" clip-rule="evenodd" d="M1000.59 184.18C1001.59 188.25 1000.59 191.18 997.789 194.32C995.439 196.88 992.399 198.45 990.789 196.27C991.139 192.44 991.789 182.93 990.959 180.15C993.249 177.29 999.149 178.57 1000.59 184.18Z" fill="url(#paint69_linear_326_117)"/>
<path fill-rule="evenodd" clip-rule="evenodd" d="M995.379 182.15C997.789 182.48 999.519 190.39 993.449 192.58C993.983 191.431 994.321 190.2 994.449 188.94C994.712 186.99 994.579 185.007 994.059 183.11C993.639 181.78 993.609 181.91 995.379 182.15Z" fill="#FEA682"/>
<path fill-rule="evenodd" clip-rule="evenodd" d="M965.801 149.23C970.801 149.8 975.661 145.12 979.701 147.48C988.351 152.54 996.291 151.16 999.131 140.84C1000.04 137.53 998.131 133.32 994.231 131.13C992.951 130.41 989.981 129.74 988.231 128.76C982.951 125.76 979.781 118.65 971.071 124.38C968.071 126.38 965.451 125.38 961.571 127.15C951.791 131.49 952.191 147.66 965.801 149.23Z" fill="url(#paint70_linear_326_117)"/>
<path fill-rule="evenodd" clip-rule="evenodd" d="M965.801 149.23C970.801 149.8 975.661 145.12 979.701 147.48C987.581 152.09 994.871 151.35 998.251 143.39C997.405 141.074 995.75 139.142 993.591 137.95C992.311 137.23 989.331 136.56 987.591 135.57C982.311 132.57 979.131 125.47 970.421 131.2C967.421 133.2 964.811 132.2 960.921 133.96C958.233 135.155 956.123 137.361 955.051 140.1C955.931 144.54 959.411 148.49 965.801 149.23Z" fill="url(#paint71_linear_326_117)"/>
<path fill-rule="evenodd" clip-rule="evenodd" d="M992.96 178.85C992.96 178.85 991.21 177.49 984.44 177.31C966.08 176.83 961.01 169.31 957.5 162.43C958.5 168.43 959.07 171.51 947.88 181.01C946.06 182.56 941.45 183.74 946.68 191.42C933.87 181.62 937.31 147.78 954.15 150.78C962.29 141.19 981.31 141.21 994.15 150.28C1001.25 155.24 1009.44 175.08 992.96 178.85Z" fill="url(#paint72_linear_326_117)"/>
<path d="M976.311 285.137L979.119 270.912L1004.96 276.015L1002.15 290.24L976.311 285.137Z" fill="white"/>
<path d="M987.982 277.948L989.947 268L996.108 269.217L994.143 279.165L987.982 277.948Z" fill="#112A82"/>
<defs>
<radialGradient id="paint0_radial_326_117" cx="0" cy="0" r="1" gradientUnits="userSpaceOnUse" gradientTransform="translate(800 380) rotate(92.9598) scale(490.094 806.529)">
<stop stop-color="#8085FF"/>
<stop offset="0.540512" stop-color="#762CEF"/>
<stop offset="1" stop-color="#7000C8"/>
</radialGradient>
<linearGradient id="paint1_linear_326_117" x1="1316.15" y1="695.583" x2="1328.91" y2="695.583" gradientUnits="userSpaceOnUse">
<stop stop-color="white"/>
<stop offset="1" stop-color="white" stop-opacity="0.82"/>
</linearGradient>
<linearGradient id="paint2_linear_326_117" x1="1328.91" y1="709.924" x2="1367.19" y2="709.924" gradientUnits="userSpaceOnUse">
<stop stop-color="white"/>
<stop offset="1" stop-color="white" stop-opacity="0.82"/>
</linearGradient>
<linearGradient id="paint3_linear_326_117" x1="1329.13" y1="681.182" x2="1367.1" y2="681.182" gradientUnits="userSpaceOnUse">
<stop stop-color="white"/>
<stop offset="1" stop-color="white" stop-opacity="0.82"/>
</linearGradient>
<linearGradient id="paint4_linear_326_117" x1="799.935" y1="536.24" x2="799.935" y2="642.12" gradientUnits="userSpaceOnUse">
<stop stop-color="white" stop-opacity="0.76"/>
<stop offset="1" stop-color="#9AF8EA"/>
</linearGradient>
<linearGradient id="paint5_linear_326_117" x1="433.807" y1="490.795" x2="566.445" y2="490.795" gradientUnits="userSpaceOnUse">
<stop stop-color="#F4932F"/>
<stop offset="1" stop-color="#FFC282"/>
</linearGradient>
<linearGradient id="paint6_linear_326_117" x1="570.548" y1="528.23" x2="430.087" y2="528.23" gradientUnits="userSpaceOnUse">
<stop stop-color="#F4932F"/>
<stop offset="1" stop-color="#FFC282"/>
</linearGradient>
<linearGradient id="paint7_linear_326_117" x1="557.356" y1="462.65" x2="443.183" y2="462.65" gradientUnits="userSpaceOnUse">
<stop stop-color="#F4932F"/>
<stop offset="1" stop-color="#FFC282"/>
</linearGradient>
<linearGradient id="paint8_linear_326_117" x1="538.553" y1="383.05" x2="461.85" y2="383.05" gradientUnits="userSpaceOnUse">
<stop stop-color="#F4932F"/>
<stop offset="1" stop-color="#FFC282"/>
</linearGradient>
<linearGradient id="paint9_linear_326_117" x1="541.811" y1="356" x2="472.811" y2="365" gradientUnits="userSpaceOnUse">
<stop stop-color="#F3291C"/>
<stop offset="0.79" stop-color="white"/>
</linearGradient>
<linearGradient id="paint10_linear_326_117" x1="445.811" y1="379" x2="446.699" y2="366.813" gradientUnits="userSpaceOnUse">
<stop stop-color="#DC2626"/>
<stop offset="1" stop-color="#FFE0E0"/>
</linearGradient>
<linearGradient id="paint11_linear_326_117" x1="445.811" y1="379" x2="446.699" y2="366.813" gradientUnits="userSpaceOnUse">
<stop stop-color="#DC2626"/>
<stop offset="1" stop-color="#FFE0E0"/>
</linearGradient>
<linearGradient id="paint12_linear_326_117" x1="445.811" y1="379" x2="446.699" y2="366.813" gradientUnits="userSpaceOnUse">
<stop stop-color="#DC2626"/>
<stop offset="1" stop-color="#FFE0E0"/>
</linearGradient>
<linearGradient id="paint13_linear_326_117" x1="445.811" y1="379" x2="446.699" y2="366.813" gradientUnits="userSpaceOnUse">
<stop stop-color="#DC2626"/>
<stop offset="1" stop-color="#FFE0E0"/>
</linearGradient>
<linearGradient id="paint14_linear_326_117" x1="443.811" y1="365.5" x2="507.311" y2="363" gradientUnits="userSpaceOnUse">
<stop stop-color="#DFCDC7"/>
<stop offset="1" stop-color="#DFCDC7" stop-opacity="0"/>
</linearGradient>
<linearGradient id="paint15_linear_326_117" x1="443.811" y1="365.5" x2="507.311" y2="363" gradientUnits="userSpaceOnUse">
<stop stop-color="#DFCDC7"/>
<stop offset="1" stop-color="#DFCDC7" stop-opacity="0"/>
</linearGradient>
<linearGradient id="paint16_linear_326_117" x1="443.811" y1="365.5" x2="507.311" y2="363" gradientUnits="userSpaceOnUse">
<stop stop-color="#DFCDC7"/>
<stop offset="1" stop-color="#DFCDC7" stop-opacity="0"/>
</linearGradient>
<linearGradient id="paint17_linear_326_117" x1="443.811" y1="365.5" x2="507.311" y2="363" gradientUnits="userSpaceOnUse">
<stop stop-color="#DFCDC7"/>
<stop offset="1" stop-color="#DFCDC7" stop-opacity="0"/>
</linearGradient>
<linearGradient id="paint18_linear_326_117" x1="443.811" y1="365.5" x2="507.311" y2="363" gradientUnits="userSpaceOnUse">
<stop stop-color="#DFCDC7"/>
<stop offset="1" stop-color="#DFCDC7" stop-opacity="0"/>
</linearGradient>
<linearGradient id="paint19_linear_326_117" x1="443.811" y1="365.5" x2="507.311" y2="363" gradientUnits="userSpaceOnUse">
<stop stop-color="#DFCDC7"/>
<stop offset="1" stop-color="#DFCDC7" stop-opacity="0"/>
</linearGradient>
<linearGradient id="paint20_linear_326_117" x1="443.811" y1="365.5" x2="507.311" y2="363" gradientUnits="userSpaceOnUse">
<stop stop-color="#DFCDC7"/>
<stop offset="1" stop-color="#DFCDC7" stop-opacity="0"/>
</linearGradient>
<linearGradient id="paint21_linear_326_117" x1="445.811" y1="379" x2="446.699" y2="366.813" gradientUnits="userSpaceOnUse">
<stop stop-color="#DC2626"/>
<stop offset="1" stop-color="#FFE0E0"/>
</linearGradient>
<linearGradient id="paint22_linear_326_117" x1="443.811" y1="365.5" x2="507.311" y2="363" gradientUnits="userSpaceOnUse">
<stop stop-color="#E81818"/>
<stop offset="1" stop-color="#FCFCFC" stop-opacity="0.89"/>
</linearGradient>
<linearGradient id="paint23_linear_326_117" x1="567.622" y1="501.386" x2="541.871" y2="531.692" gradientUnits="userSpaceOnUse">
<stop stop-color="#DC2626"/>
<stop offset="1" stop-color="#FFE0E0"/>
</linearGradient>
<linearGradient id="paint24_linear_326_117" x1="567.622" y1="501.386" x2="541.871" y2="531.692" gradientUnits="userSpaceOnUse">
<stop stop-color="#DC2626"/>
<stop offset="1" stop-color="#FFE0E0"/>
</linearGradient>
<linearGradient id="paint25_linear_326_117" x1="567.622" y1="501.386" x2="541.871" y2="531.692" gradientUnits="userSpaceOnUse">
<stop stop-color="#DC2626"/>
<stop offset="1" stop-color="#FFE0E0"/>
</linearGradient>
<linearGradient id="paint26_linear_326_117" x1="567.622" y1="501.386" x2="541.871" y2="531.692" gradientUnits="userSpaceOnUse">
<stop stop-color="#DC2626"/>
<stop offset="1" stop-color="#FFE0E0"/>
</linearGradient>
<linearGradient id="paint27_linear_326_117" x1="445.811" y1="379" x2="446.699" y2="366.813" gradientUnits="userSpaceOnUse">
<stop stop-color="#DC2626"/>
<stop offset="1" stop-color="#FFE0E0"/>
</linearGradient>
<linearGradient id="paint28_linear_326_117" x1="473.593" y1="340.217" x2="495.069" y2="290.148" gradientUnits="userSpaceOnUse">
<stop offset="0.184024" stop-color="#03AB8D"/>
<stop offset="1" stop-color="#67FFD2"/>
</linearGradient>
<linearGradient id="paint29_linear_326_117" x1="458.689" y1="340.217" x2="487.981" y2="306.045" gradientUnits="userSpaceOnUse">
<stop offset="0.184024" stop-color="#03AB8D"/>
<stop offset="1" stop-color="#67FFD2"/>
</linearGradient>
<linearGradient id="paint30_linear_326_117" x1="754.03" y1="318.889" x2="754.03" y2="585.35" gradientUnits="userSpaceOnUse">
<stop stop-color="white"/>
<stop offset="1" stop-color="#867B7A"/>
</linearGradient>
<linearGradient id="paint31_linear_326_117" x1="755.281" y1="453.22" x2="755.281" y2="469.61" gradientUnits="userSpaceOnUse">
<stop stop-color="#ECCAC0"/>
<stop offset="1" stop-color="#77645E"/>
</linearGradient>
<linearGradient id="paint32_linear_326_117" x1="910" y1="419" x2="557.5" y2="422" gradientUnits="userSpaceOnUse">
<stop stop-color="#7C6C67"/>
<stop offset="1" stop-color="#FBCEC0"/>
</linearGradient>
<linearGradient id="paint33_linear_326_117" x1="578" y1="413.5" x2="927" y2="410" gradientUnits="userSpaceOnUse">
<stop stop-color="#604A41"/>
<stop offset="1" stop-color="#FFFEFD"/>
</linearGradient>
<linearGradient id="paint34_linear_326_117" x1="663.491" y1="293.1" x2="704.841" y2="340.01" gradientUnits="userSpaceOnUse">
<stop offset="0.02" stop-color="white"/>
<stop offset="1"/>
</linearGradient>
<linearGradient id="paint35_linear_326_117" x1="622.915" y1="370.554" x2="700.23" y2="370.532" gradientUnits="userSpaceOnUse">
<stop stop-color="#604A41"/>
<stop offset="1" stop-color="#FFFEFD"/>
</linearGradient>
<linearGradient id="paint36_linear_326_117" x1="625.92" y1="380.022" x2="652.969" y2="380.018" gradientUnits="userSpaceOnUse">
<stop stop-color="#604A41"/>
<stop offset="1" stop-color="#FFFEFD"/>
</linearGradient>
<linearGradient id="paint37_linear_326_117" x1="537.679" y1="456.927" x2="559.355" y2="450.479" gradientUnits="userSpaceOnUse">
<stop offset="0.184024" stop-color="#03AB8D"/>
<stop offset="1" stop-color="#67FFD2"/>
</linearGradient>
<linearGradient id="paint38_linear_326_117" x1="545.38" y1="456.1" x2="558.221" y2="453.424" gradientUnits="userSpaceOnUse">
<stop offset="0.184024" stop-color="#03AB8D"/>
<stop offset="1" stop-color="#67FFD2"/>
</linearGradient>
<linearGradient id="paint39_linear_326_117" x1="558.083" y1="459.361" x2="591.54" y2="435.471" gradientUnits="userSpaceOnUse">
<stop offset="0.184024" stop-color="#03AB8D"/>
<stop offset="1" stop-color="#67FFD2"/>
</linearGradient>
<linearGradient id="paint40_linear_326_117" x1="520.255" y1="465.07" x2="560.058" y2="436.12" gradientUnits="userSpaceOnUse">
<stop offset="0.184024" stop-color="#03AB8D"/>
<stop offset="1" stop-color="#67FFD2"/>
</linearGradient>
<linearGradient id="paint41_linear_326_117" x1="515.813" y1="479.514" x2="547.453" y2="452.591" gradientUnits="userSpaceOnUse">
<stop offset="0.184024" stop-color="#03AB8D"/>
<stop offset="1" stop-color="#67FFD2"/>
</linearGradient>
<linearGradient id="paint42_linear_326_117" x1="549.259" y1="482.769" x2="570.89" y2="461.648" gradientUnits="userSpaceOnUse">
<stop offset="0.184024" stop-color="#03AB8D"/>
<stop offset="1" stop-color="#67FFD2"/>
</linearGradient>
<linearGradient id="paint43_linear_326_117" x1="572.265" y1="489.538" x2="569.854" y2="502.552" gradientUnits="userSpaceOnUse">
<stop stop-color="#DC2626"/>
<stop offset="1" stop-color="#FFE0E0"/>
</linearGradient>
<linearGradient id="paint44_linear_326_117" x1="567.622" y1="501.386" x2="541.871" y2="531.692" gradientUnits="userSpaceOnUse">
<stop stop-color="#DC2626"/>
<stop offset="1" stop-color="#FFE0E0"/>
</linearGradient>
<linearGradient id="paint45_linear_326_117" x1="519.811" y1="493.5" x2="537.066" y2="491.447" gradientUnits="userSpaceOnUse">
<stop stop-color="#DC2626"/>
<stop offset="1" stop-color="#FFE0E0"/>
</linearGradient>
<linearGradient id="paint46_linear_326_117" x1="523.811" y1="517" x2="543.93" y2="522.906" gradientUnits="userSpaceOnUse">
<stop stop-color="#DC2626"/>
<stop offset="1" stop-color="#FFE0E0"/>
</linearGradient>
<linearGradient id="paint47_linear_326_117" x1="520.811" y1="498" x2="522.309" y2="490.162" gradientUnits="userSpaceOnUse">
<stop stop-color="#DC2626"/>
<stop offset="1" stop-color="#FFE0E0"/>
</linearGradient>
<linearGradient id="paint48_linear_326_117" x1="522.311" y1="488" x2="563.811" y2="485" gradientUnits="userSpaceOnUse">
<stop stop-color="#3F3F3F"/>
<stop offset="1" stop-color="#CECECE"/>
</linearGradient>
<linearGradient id="paint49_linear_326_117" x1="839.699" y1="256.515" x2="844.452" y2="280.149" gradientUnits="userSpaceOnUse">
<stop stop-color="white"/>
<stop offset="0.84427" stop-color="#FFC4C4"/>
</linearGradient>
<linearGradient id="paint50_linear_326_117" x1="957.047" y1="277.027" x2="940.156" y2="356.184" gradientUnits="userSpaceOnUse">
<stop stop-color="#2C89BE"/>
<stop offset="1" stop-color="#036FAD"/>
</linearGradient>
<linearGradient id="paint51_linear_326_117" x1="945.504" y1="369.315" x2="945.504" y2="589.18" gradientUnits="userSpaceOnUse">
<stop stop-color="#FFB426"/>
<stop offset="1" stop-color="#F4D8A2"/>
</linearGradient>
<linearGradient id="paint52_linear_326_117" x1="993.436" y1="369.37" x2="993.436" y2="589.85" gradientUnits="userSpaceOnUse">
<stop stop-color="#FFB426"/>
<stop offset="1" stop-color="#F4D8A2"/>
</linearGradient>
<linearGradient id="paint53_linear_326_117" x1="1035.5" y1="252" x2="942.5" y2="412" gradientUnits="userSpaceOnUse">
<stop stop-color="#2C89BE"/>
<stop offset="1" stop-color="#036FAD"/>
</linearGradient>
<linearGradient id="paint54_linear_326_117" x1="968.605" y1="242.52" x2="968.605" y2="411.66" gradientUnits="userSpaceOnUse">
<stop stop-color="#30A3E6"/>
<stop offset="1" stop-color="#1D8AC9"/>
</linearGradient>
<linearGradient id="paint55_linear_326_117" x1="946.93" y1="312.46" x2="946.93" y2="327.64" gradientUnits="userSpaceOnUse">
<stop stop-color="#453260"/>
<stop offset="1" stop-color="#AE87E8"/>
</linearGradient>
<linearGradient id="paint56_linear_326_117" x1="917.629" y1="255.57" x2="917.629" y2="318.03" gradientUnits="userSpaceOnUse">
<stop stop-color="#F0F2FC"/>
<stop offset="1" stop-color="#C3B9FF"/>
</linearGradient>
<linearGradient id="paint57_linear_326_117" x1="964" y1="609" x2="1007" y2="610" gradientUnits="userSpaceOnUse">
<stop stop-color="#254B4B"/>
<stop offset="1" stop-color="#49A8A8"/>
</linearGradient>
<linearGradient id="paint58_linear_326_117" x1="875.778" y1="609.074" x2="929.879" y2="610.755" gradientUnits="userSpaceOnUse">
<stop stop-color="#254B4B"/>
<stop offset="1" stop-color="#49A8A8"/>
</linearGradient>
<linearGradient id="paint59_linear_326_117" x1="949.096" y1="311.489" x2="956.063" y2="342.781" gradientUnits="userSpaceOnUse">
<stop stop-color="white"/>
<stop offset="0.84427" stop-color="#FFC4C4"/>
</linearGradient>
<linearGradient id="paint60_linear_326_117" x1="1050.33" y1="252.703" x2="996.069" y2="374.844" gradientUnits="userSpaceOnUse">
<stop stop-color="#2C89BE"/>
<stop offset="1" stop-color="#036FAD"/>
</linearGradient>
<linearGradient id="paint61_linear_326_117" x1="1013.81" y1="243.911" x2="1013.81" y2="352.478" gradientUnits="userSpaceOnUse">
<stop stop-color="#30A3E6"/>
<stop offset="1" stop-color="#1D8AC9"/>
</linearGradient>
<linearGradient id="paint62_linear_326_117" x1="947.896" y1="579.61" x2="947.896" y2="590.94" gradientUnits="userSpaceOnUse">
<stop stop-color="#0A7BBC"/>
<stop offset="1" stop-color="#F6FCFF"/>
</linearGradient>
<linearGradient id="paint63_linear_326_117" x1="860.703" y1="269.979" x2="860.703" y2="305.801" gradientUnits="userSpaceOnUse">
<stop stop-color="#30A3E6"/>
<stop offset="1" stop-color="#1D8AC9"/>
</linearGradient>
<linearGradient id="paint64_linear_326_117" x1="945.095" y1="154.335" x2="982.935" y2="213.93" gradientUnits="userSpaceOnUse">
<stop stop-color="#202C8A"/>
<stop offset="0.894287" stop-color="#0E133C"/>
</linearGradient>
<linearGradient id="paint65_linear_326_117" x1="983.343" y1="201.271" x2="995.622" y2="239.918" gradientUnits="userSpaceOnUse">
<stop stop-color="white"/>
<stop offset="0.84427" stop-color="#FFC4C4"/>
</linearGradient>
<linearGradient id="paint66_linear_326_117" x1="973.359" y1="220.27" x2="979.621" y2="240.575" gradientUnits="userSpaceOnUse">
<stop stop-color="white"/>
<stop offset="0.84427" stop-color="#FFC4C4"/>
</linearGradient>
<linearGradient id="paint67_linear_326_117" x1="972.862" y1="165.318" x2="989.818" y2="211.533" gradientUnits="userSpaceOnUse">
<stop stop-color="white"/>
<stop offset="0.84427" stop-color="#FFC4C4"/>
</linearGradient>
<linearGradient id="paint68_linear_326_117" x1="971.355" y1="177.412" x2="982.585" y2="212.012" gradientUnits="userSpaceOnUse">
<stop stop-color="white"/>
<stop offset="0.84427" stop-color="#FFC4C4"/>
</linearGradient>
<linearGradient id="paint69_linear_326_117" x1="996.151" y1="181.534" x2="1002.98" y2="194.951" gradientUnits="userSpaceOnUse">
<stop stop-color="white"/>
<stop offset="0.84427" stop-color="#FFC4C4"/>
</linearGradient>
<linearGradient id="paint70_linear_326_117" x1="958.191" y1="126.782" x2="970.584" y2="156.916" gradientUnits="userSpaceOnUse">
<stop stop-color="#202C8A"/>
<stop offset="0.894287" stop-color="#0E133C"/>
</linearGradient>
<linearGradient id="paint71_linear_326_117" x1="958.313" y1="132.492" x2="966.08" y2="156.683" gradientUnits="userSpaceOnUse">
<stop stop-color="#202C8A"/>
<stop offset="0.894287" stop-color="#0E133C"/>
</linearGradient>
<linearGradient id="paint72_linear_326_117" x1="943.729" y1="151.314" x2="967.443" y2="199.709" gradientUnits="userSpaceOnUse">
<stop stop-color="#202C8A"/>
<stop offset="0.894287" stop-color="#0E133C"/>
</linearGradient>
<clipPath id="clip0_326_117">
<rect width="243.087" height="57.5294" fill="white" transform="translate(1316.15 666.735)"/>
</clipPath>
</defs>
</svg>
