<svg width="1600" height="760" viewBox="0 0 1600 760" fill="none" xmlns="http://www.w3.org/2000/svg">
<g clip-path="url(#clip0_329_1351)">
<rect width="1600" height="760" fill="white"/>
<rect width="1600" height="760" fill="url(#paint0_linear_329_1351)"/>
<g clip-path="url(#clip1_329_1351)">
<path d="M1391.38 704.81C1389.79 704.857 1388.22 704.457 1386.84 703.655C1385.58 702.88 1384.57 701.757 1383.94 700.421C1383.24 698.917 1382.89 697.273 1382.93 695.614C1382.89 693.954 1383.24 692.308 1383.94 690.802C1384.57 689.467 1385.58 688.344 1386.84 687.569C1388.22 686.767 1389.79 686.366 1391.38 686.413C1393.2 686.347 1394.99 686.882 1396.47 687.938C1397.84 688.968 1398.85 690.409 1399.35 692.052L1396.37 692.875C1396.08 691.814 1395.47 690.87 1394.61 690.177C1393.68 689.496 1392.53 689.158 1391.38 689.219C1390.33 689.18 1389.3 689.458 1388.41 690.015C1387.61 690.568 1386.99 691.352 1386.64 692.264C1386.22 693.342 1386.01 694.49 1386.03 695.645C1386.01 696.799 1386.21 697.947 1386.62 699.023C1386.98 699.938 1387.61 700.722 1388.42 701.271C1389.31 701.828 1390.34 702.106 1391.39 702.067C1392.54 702.118 1393.68 701.772 1394.61 701.087C1395.46 700.393 1396.07 699.449 1396.36 698.389L1399.35 699.171C1398.85 700.812 1397.85 702.253 1396.49 703.286C1395 704.345 1393.2 704.881 1391.38 704.81Z" fill="white"/>
<path d="M1402.59 704.446V686.778H1409.89C1410.06 686.778 1410.28 686.778 1410.55 686.778C1410.8 686.789 1411.05 686.816 1411.3 686.859C1412.22 686.973 1413.09 687.325 1413.84 687.879C1414.5 688.396 1415.01 689.079 1415.32 689.858C1415.65 690.705 1415.81 691.607 1415.8 692.516C1415.84 693.836 1415.46 695.134 1414.71 696.226C1414.32 696.759 1413.81 697.204 1413.24 697.534C1412.66 697.865 1412.02 698.073 1411.36 698.146L1410.1 698.254H1405.55V704.446H1402.59ZM1405.55 695.515H1409.77C1409.93 695.515 1410.11 695.515 1410.32 695.488C1410.51 695.476 1410.7 695.442 1410.88 695.389C1411.33 695.297 1411.73 695.071 1412.04 694.742C1412.32 694.44 1412.53 694.079 1412.65 693.685C1412.76 693.312 1412.82 692.924 1412.82 692.534C1412.82 692.141 1412.76 691.75 1412.65 691.374C1412.53 690.978 1412.32 690.615 1412.04 690.312C1411.73 689.986 1411.32 689.762 1410.88 689.669C1410.7 689.622 1410.51 689.591 1410.32 689.579C1410.11 689.579 1409.93 689.579 1409.77 689.579H1405.55V695.515ZM1412.74 704.446L1409.26 697.251L1412.27 696.59L1416.09 704.442L1412.74 704.446Z" fill="white"/>
<path d="M1419.35 704.446V686.778H1430.76V689.552H1422.3V693.905H1429.28V696.68H1422.3V701.672H1430.76V704.446H1419.35Z" fill="white"/>
<path d="M1433.04 704.446L1438.61 686.778H1442.94L1448.51 704.446H1445.46L1440.41 688.595H1441.08L1436.08 704.446H1433.04ZM1436.14 700.615V697.858H1445.41V700.615H1436.14Z" fill="white"/>
<path d="M1454.05 704.446V689.552H1448.34V686.778H1462.73V689.552H1457.01V704.446H1454.05Z" fill="white"/>
<path d="M1465.5 704.446V686.778H1468.45V704.446H1465.5Z" fill="white"/>
<path d="M1476.7 704.446L1471.11 686.778H1474.15L1478.81 701.573L1483.53 686.778H1486.59L1481 704.446H1476.7Z" fill="white"/>
<path d="M1488.97 704.446V686.778H1500.38V689.552H1491.93V693.905H1498.91V696.68H1491.93V701.672H1500.38V704.446H1488.97Z" fill="white"/>
<path d="M1504.12 704.446V686.778H1507.08V704.446H1504.12Z" fill="white"/>
<path d="M1515.58 704.446V689.552H1509.87V686.778H1524.26V689.552H1518.54V704.446H1515.58Z" fill="white"/>
<path d="M1526.78 704.446V686.778H1538.19V689.552H1529.76V693.905H1536.74V696.68H1529.76V701.672H1538.21V704.446H1526.78Z" fill="white"/>
<path d="M1541.7 704.446V686.778H1544.37L1550.47 699.293L1556.58 686.778H1559.24V704.446H1556.48V693.123L1551.06 704.446H1549.88L1544.49 693.123V704.446H1541.7Z" fill="white"/>
<path d="M1341.68 710.319L1328.91 702.949V717.685L1341.68 710.319Z" fill="white" fill-opacity="0.48"/>
<path d="M1367.2 695.583L1354.43 688.217V702.949L1367.2 695.583Z" fill="white" fill-opacity="0.47"/>
<path d="M1341.68 680.846L1328.91 673.48V688.217L1341.68 680.846Z" fill="white" fill-opacity="0.48"/>
<path d="M1328.91 673.48L1318.71 679.376C1317.93 679.822 1317.28 680.466 1316.84 681.243C1316.39 682.019 1316.15 682.9 1316.15 683.796V707.369C1316.15 708.266 1316.39 709.148 1316.84 709.924C1317.28 710.701 1317.93 711.346 1318.71 711.794L1328.91 717.685V673.48Z" fill="url(#paint1_linear_329_1351)"/>
<path d="M1367.2 707.369V695.583L1328.91 717.685L1339.12 723.581C1339.9 724.029 1340.78 724.265 1341.67 724.265C1342.57 724.265 1343.45 724.029 1344.23 723.581L1364.65 711.794C1365.42 711.345 1366.07 710.7 1366.51 709.923C1366.96 709.146 1367.2 708.266 1367.2 707.369Z" fill="url(#paint2_linear_329_1351)"/>
<path d="M1344.32 667.634C1343.55 667.19 1342.68 666.956 1341.79 666.956C1340.9 666.956 1340.03 667.19 1339.26 667.634L1329.13 673.48L1367.1 695.407V683.715C1367.1 682.826 1366.87 681.952 1366.42 681.182C1365.98 680.411 1365.34 679.771 1364.57 679.326L1344.32 667.634Z" fill="url(#paint3_linear_329_1351)"/>
</g>
<mask id="mask0_329_1351" style="mask-type:luminance" maskUnits="userSpaceOnUse" x="335" y="120" width="944" height="515">
<path d="M1279 634.459H335.258V120H1278.04L1279 634.459Z" fill="white"/>
</mask>
<g mask="url(#mask0_329_1351)">
<path opacity="0.2" d="M514.586 401.323C588.753 370.944 625.516 417.606 678.23 387.879C738.888 353.669 713.128 278.933 763.417 236.569C840.276 171.76 1062.2 210.202 1140.01 365.461C1198.42 481.993 1159.97 633.045 1070.52 702.832C1032.87 732.22 991.475 738.887 910.246 751.028C830.109 762.967 632.394 790.205 492.169 696.11C434.229 657.189 418.222 619.141 412.593 601.959C403.976 575.125 402.814 546.455 409.231 519.012C428.636 438.03 509.581 403.381 514.586 401.323Z" fill="white"/>
<path opacity="0.2" d="M698.046 260.069C714.328 289.08 709.911 323.822 687.834 348.857C670.1 368.932 640.547 387.924 592.957 384.618C496.529 377.905 494.15 351.281 508.697 311.929C521.472 277.5 652.449 179.042 698.046 260.069Z" fill="white"/>
<path d="M939.728 253.173C939.695 252.309 939.467 251.464 939.061 250.701C938.656 249.938 938.083 249.276 937.386 248.765C938.151 248.116 938.732 247.278 939.073 246.335C939.413 245.392 939.5 244.376 939.325 243.388C939.151 242.401 938.72 241.476 938.077 240.707C937.434 239.937 936.6 239.35 935.66 239.003C935.66 238.892 935.66 238.791 935.586 238.69C936.336 238.097 936.926 237.326 937.301 236.446C937.676 235.567 937.824 234.607 937.733 233.656C937.642 232.704 937.313 231.79 936.778 230.998C936.242 230.206 935.517 229.561 934.668 229.121C935.343 228.38 935.812 227.474 936.028 226.495C936.244 225.516 936.199 224.497 935.898 223.54C935.597 222.584 935.05 221.723 934.312 221.044C933.574 220.365 932.671 219.892 931.692 219.671C931.949 218.982 932.068 218.248 932.041 217.513C932.015 216.755 931.84 216.01 931.526 215.321C931.212 214.631 930.765 214.01 930.21 213.493C929.656 212.976 929.005 212.574 928.295 212.308C927.585 212.043 926.829 211.921 926.072 211.948C925.728 211.961 925.387 212.007 925.052 212.085C925.282 211.431 925.388 210.74 925.365 210.047C925.312 208.518 924.655 207.074 923.537 206.03C922.419 204.986 920.933 204.429 919.404 204.481C919.164 204.493 918.924 204.524 918.688 204.573C918.722 204.336 918.738 204.096 918.734 203.857C918.681 202.329 918.024 200.884 916.906 199.84C915.789 198.797 914.302 198.239 912.774 198.292C912.078 198.32 911.393 198.475 910.754 198.751C910.811 198.408 910.835 198.06 910.827 197.713C910.772 196.184 910.112 194.739 908.993 193.696C907.874 192.652 906.387 192.096 904.858 192.148C904.123 192.177 903.4 192.346 902.727 192.644C902.359 191.433 901.602 190.377 900.572 189.641C899.542 188.906 898.298 188.531 897.033 188.575C895.737 188.623 894.496 189.112 893.516 189.962C893.118 188.979 892.455 188.125 891.601 187.496C890.748 186.867 889.736 186.486 888.679 186.397C887.623 186.307 886.562 186.512 885.614 186.989C884.667 187.466 883.87 188.196 883.313 189.099C882.915 188.036 882.21 187.116 881.288 186.454C880.367 185.792 879.269 185.419 878.135 185.382C877.001 185.344 875.881 185.644 874.918 186.244C873.955 186.844 873.191 187.716 872.724 188.75C872.23 187.837 871.497 187.076 870.603 186.548C869.709 186.02 868.689 185.745 867.651 185.752C866.613 185.76 865.597 186.05 864.711 186.591C863.825 187.131 863.103 187.903 862.622 188.823C861.91 188.174 861.046 187.715 860.109 187.489C859.173 187.262 858.194 187.276 857.265 187.529C856.335 187.782 855.484 188.265 854.791 188.935C854.098 189.604 853.585 190.438 853.301 191.358C852.264 190.575 850.99 190.17 849.691 190.21C848.624 190.25 847.589 190.587 846.701 191.182C845.814 191.778 845.11 192.608 844.668 193.58C843.8 193.17 842.842 192.986 841.883 193.045C840.925 193.104 839.997 193.405 839.186 193.919C838.375 194.433 837.707 195.144 837.244 195.986C836.782 196.827 836.54 197.772 836.54 198.732C835.908 198.517 835.242 198.418 834.575 198.438C833.37 198.482 832.208 198.904 831.256 199.644C830.303 200.384 829.607 201.405 829.267 202.562C828.948 202.516 828.625 202.497 828.303 202.507C827.089 202.543 825.918 202.962 824.957 203.705C823.996 204.448 823.295 205.475 822.955 206.641C822.614 207.806 822.652 209.05 823.061 210.193C823.471 211.336 824.232 212.32 825.235 213.004L825.134 213.123C824.267 212.891 823.358 212.867 822.48 213.052C821.602 213.237 820.78 213.627 820.081 214.19C819.382 214.753 818.826 215.473 818.458 216.291C818.09 217.11 817.92 218.003 817.962 218.9C817.99 219.593 818.146 220.274 818.421 220.911C818.081 220.857 817.737 220.836 817.392 220.847C816.306 220.875 815.25 221.211 814.348 221.816C813.446 222.421 812.734 223.271 812.296 224.265C811.858 225.26 811.712 226.358 811.874 227.433C812.037 228.507 812.501 229.513 813.214 230.333C812.247 230.711 811.401 231.344 810.766 232.165C810.131 232.986 809.731 233.964 809.608 234.994C809.486 236.025 809.645 237.069 810.07 238.016C810.495 238.963 811.169 239.777 812.02 240.371C810.757 240.613 809.612 241.273 808.769 242.243C807.925 243.214 807.432 244.44 807.369 245.724C807.305 247.009 807.675 248.277 808.418 249.327C809.162 250.376 810.236 251.145 811.469 251.511V251.906C810.234 252.067 809.085 252.626 808.196 253.499C807.307 254.372 806.727 255.511 806.543 256.743C806.359 257.975 806.582 259.233 807.178 260.328C807.773 261.422 808.709 262.292 809.843 262.807C808.853 263.34 808.041 264.153 807.509 265.144C806.977 266.136 806.749 267.262 806.852 268.382C806.956 269.502 807.388 270.567 808.093 271.444C808.798 272.321 809.745 272.971 810.817 273.313C810.032 274.349 809.627 275.623 809.669 276.922C809.717 278.186 810.181 279.399 810.988 280.373C811.794 281.348 812.899 282.029 814.132 282.313C813.877 283.003 813.758 283.736 813.783 284.471C813.829 285.677 814.252 286.839 814.994 287.791C815.735 288.744 816.758 289.439 817.916 289.779C817.788 290.613 817.847 291.465 818.09 292.273C818.332 293.081 818.751 293.824 819.316 294.45C819.881 295.076 820.579 295.569 821.358 295.892C822.137 296.215 822.979 296.36 823.821 296.318C824.06 296.316 824.3 296.301 824.537 296.272C824.524 296.511 824.524 296.75 824.537 296.988C824.59 298.517 825.247 299.961 826.365 301.005C827.483 302.049 828.969 302.606 830.498 302.554C830.738 302.537 830.977 302.506 831.214 302.462C831.18 302.699 831.164 302.938 831.168 303.178C831.221 304.706 831.878 306.151 832.996 307.195C834.113 308.238 835.6 308.795 837.128 308.743C838.42 308.695 839.657 308.209 840.636 307.366C840.353 308.244 840.285 309.177 840.44 310.086C840.595 310.996 840.968 311.854 841.526 312.588C842.085 313.322 842.812 313.911 843.647 314.303C844.482 314.695 845.399 314.88 846.321 314.841C847.056 314.812 847.779 314.643 848.452 314.345C848.742 315.304 849.278 316.171 850.006 316.858C850.735 317.546 851.631 318.031 852.605 318.265C853.579 318.499 854.597 318.474 855.559 318.192C856.52 317.911 857.391 317.382 858.085 316.66C858.544 317.405 859.168 318.035 859.908 318.503C860.648 318.97 861.486 319.262 862.356 319.356C863.226 319.449 864.107 319.343 864.929 319.045C865.752 318.746 866.496 318.263 867.104 317.633C867.683 318.574 868.522 319.327 869.52 319.802C870.518 320.277 871.632 320.453 872.728 320.31C873.823 320.166 874.854 319.709 875.696 318.993C876.538 318.277 877.154 317.333 877.472 316.274C878.095 317.142 878.947 317.819 879.934 318.23C880.92 318.64 882.001 318.768 883.056 318.598C884.111 318.428 885.097 317.968 885.905 317.269C886.713 316.569 887.31 315.659 887.629 314.639C888.209 315.471 888.999 316.134 889.919 316.561C890.839 316.988 891.855 317.164 892.865 317.07C893.874 316.977 894.841 316.618 895.667 316.03C896.493 315.441 897.148 314.645 897.566 313.721C898.369 314.099 899.25 314.282 900.137 314.254C901.024 314.237 901.894 314.014 902.678 313.601C903.463 313.189 904.14 312.598 904.656 311.877C905.172 311.156 905.512 310.325 905.649 309.449C905.786 308.573 905.716 307.677 905.445 306.833L905.684 306.695C906.636 307.297 907.745 307.604 908.87 307.579C909.996 307.553 911.09 307.196 912.013 306.551C912.937 305.907 913.65 305.005 914.063 303.957C914.476 302.909 914.571 301.763 914.335 300.662L914.427 300.579C915.048 300.785 915.701 300.881 916.356 300.864C917.886 300.811 919.333 300.153 920.379 299.033C921.424 297.914 921.982 296.425 921.93 294.894C921.91 294.657 921.876 294.421 921.829 294.187C922.068 294.201 922.307 294.201 922.545 294.187C923.303 294.161 924.048 293.986 924.738 293.672C925.427 293.358 926.048 292.911 926.565 292.356C927.082 291.802 927.485 291.151 927.75 290.441C928.015 289.731 928.138 288.975 928.111 288.218C928.094 287.981 928.063 287.745 928.019 287.511C928.254 287.525 928.49 287.525 928.726 287.511C929.774 287.473 930.792 287.149 931.67 286.575C932.548 286.001 933.252 285.198 933.707 284.252C934.161 283.307 934.349 282.256 934.25 281.211C934.151 280.167 933.768 279.17 933.143 278.327C934.182 278.136 935.149 277.661 935.935 276.955C936.722 276.249 937.298 275.34 937.601 274.328C937.904 273.316 937.922 272.239 937.652 271.217C937.383 270.196 936.836 269.268 936.073 268.537C936.852 268.061 937.505 267.404 937.978 266.623C938.451 265.842 938.73 264.959 938.791 264.047C938.852 263.136 938.694 262.224 938.33 261.386C937.965 260.549 937.406 259.811 936.697 259.234C936.697 258.95 936.752 258.656 936.78 258.371C937.703 257.86 938.466 257.105 938.986 256.187C939.507 255.27 939.763 254.227 939.728 253.173Z" fill="url(#paint4_linear_329_1351)"/>
<path d="M865.327 435.321L864.895 435.376C862.34 435.691 859.748 435.491 857.272 434.788C854.795 434.086 852.484 432.894 850.475 431.284C848.467 429.674 846.801 427.678 845.575 425.414C844.35 423.15 843.59 420.664 843.341 418.102L842.845 413.262L842.781 412.665C841.312 398.13 839.821 383.562 838.309 368.96C849.745 365.978 861.179 362.981 872.61 359.969C874.183 368.938 875.75 377.905 877.312 386.868C878.573 394.05 879.831 401.231 881.086 408.413C881.334 409.873 881.591 411.324 881.848 412.784C882.303 415.356 882.233 417.993 881.641 420.536C881.049 423.08 879.948 425.477 878.404 427.583C876.86 429.689 874.905 431.461 872.657 432.791C870.41 434.121 867.916 434.981 865.327 435.321Z" fill="url(#paint5_linear_329_1351)"/>
<path d="M877.027 383.857C874.757 391.052 870.788 397.595 865.455 402.931C859.405 408.933 851.299 412.409 842.781 412.657C841.299 398.128 839.809 383.563 838.309 368.961L872.61 359.979C874.091 367.945 875.564 375.904 877.027 383.857Z" fill="url(#paint6_linear_329_1351)"/>
<path d="M855.697 577.539C848.803 655.196 841.909 732.869 835.016 810.556H857.396C864.817 733.218 872.231 655.897 879.639 578.596L855.697 577.539Z" fill="url(#paint7_linear_329_1351)"/>
<path d="M1020.07 577.539C1013.18 655.196 1006.29 732.869 999.391 810.556H1021.78C1029.19 733.218 1036.61 655.897 1044.02 578.596L1020.07 577.539Z" fill="url(#paint8_linear_329_1351)"/>
<path d="M1063.67 582.14L1054.49 661.478C1054.18 664.144 1052.91 666.604 1050.9 668.389C1048.9 670.174 1046.31 671.159 1043.63 671.158H841.219C839.759 671.158 838.314 670.866 836.968 670.299C835.623 669.733 834.405 668.902 833.385 667.857C832.366 666.812 831.566 665.574 831.033 664.215C830.5 662.856 830.244 661.404 830.281 659.944L832.604 580.965C832.664 578.875 833.536 576.891 835.034 575.434C836.533 573.976 838.54 573.16 840.631 573.159H1055.68C1056.15 573.16 1056.62 573.203 1057.08 573.287C1059.11 573.635 1060.92 574.748 1062.15 576.396C1063.37 578.044 1063.92 580.101 1063.67 582.14Z" fill="url(#paint9_linear_329_1351)"/>
<path d="M1063.68 582.141L1053.41 671.158H1045.8L1057.08 573.315C1059.1 573.663 1060.91 574.772 1062.14 576.414C1063.36 578.056 1063.91 580.106 1063.68 582.141ZM1000.1 734.663L983.897 634.35L868.688 629.161L857.668 701.005C857.668 701.005 957.577 738.419 1000.1 734.663Z" fill="#21013C"/>
<path d="M839.227 428.976C839.227 428.976 806.809 436.543 794.071 471.138C781.333 505.733 745.398 584.676 745.398 584.676C745.398 584.676 725.708 630.089 763.921 624.689C802.134 619.289 853.076 467.896 853.076 467.896L839.227 428.976Z" fill="url(#paint10_linear_329_1351)"/>
<path d="M847.668 448.29C847.351 458.488 846.468 468.661 845.023 478.761C844.555 481.975 844.05 485.189 843.481 488.266C839.979 507.803 834.397 526.91 826.831 545.26C822.165 556.612 816.778 567.655 810.704 578.321C795.275 578.872 779.829 574.546 768.239 570.056C761.59 567.524 755.143 564.49 748.953 560.982C755.887 545.949 761.59 532.32 766.218 520.51C769.46 512.245 772.179 504.815 774.429 498.469C782.29 476.052 784.127 467.364 791.758 456.757C802.108 442.403 816.499 433.798 830.33 428.425C833.47 427.213 836.574 426.157 839.596 425.257C842.268 424.467 844.876 423.769 847.374 423.181C847.788 430.896 847.962 439.299 847.668 448.29Z" fill="url(#paint11_linear_329_1351)"/>
<path d="M843.481 488.266C837.76 519.913 826.675 550.351 810.704 578.266C795.275 578.817 779.829 574.491 768.239 570C761.59 567.468 755.143 564.435 748.953 560.927C755.887 545.893 761.59 532.265 766.218 520.454C780.508 519.536 794.247 516.368 802.218 508.819C824.259 487.981 831.303 461.697 831.303 461.697L843.481 488.266Z" fill="url(#paint12_linear_329_1351)"/>
<path d="M982.924 635.084L914.809 634.845L869.221 634.68C858.696 610.013 848.16 585.349 837.611 560.687C836.959 559.172 836.362 557.703 835.627 556.096C834.892 554.488 834.204 552.716 833.497 551.017L833.258 550.466C832.986 549.912 832.764 549.334 832.597 548.739L832.128 548.124C831.458 547.803 830.787 547.454 830.099 547.068C829.015 546.508 827.931 545.893 826.829 545.231C820.759 541.558 814.569 536.479 810.941 529.445C810.212 528.03 809.598 526.559 809.105 525.046C806.037 515.476 808.793 506.88 810.262 501.894C813.935 489.303 817.838 471 819.161 444.771C819.317 441.557 819.446 438.214 819.528 434.743C823.027 432.906 826.756 430.987 830.686 429.159C831.834 428.617 832.991 428.085 834.176 427.561C835.921 426.781 837.703 426 839.539 425.238C841.624 424.365 843.773 423.511 845.968 422.675C849.742 421.234 853.673 419.838 857.751 418.534C861.828 417.23 865.639 416.128 869.515 415.108C877.018 413.134 884.31 411.628 891.326 410.516L892.887 410.268C895.119 409.929 897.332 409.607 899.509 409.35L900.813 409.194C904.128 408.771 905.873 408.579 906.635 408.579C931.284 408.716 954.941 448.142 960.755 476.455C960.8 476.666 960.975 477.63 961.351 479.596C964.064 493.604 966.531 507.416 968.753 521.032C970.431 531.245 971.962 541.347 973.345 551.338C973.446 552.11 973.566 552.891 973.667 553.653C975.503 568.561 977.374 583.463 979.278 598.359C980.711 610.806 981.926 623.048 982.924 635.084Z" fill="url(#paint13_linear_329_1351)"/>
<path d="M982.924 635.085L914.809 634.846C908.253 627.314 902.325 619.257 897.085 610.757C893.751 605.339 890.858 600.012 888.351 594.87C884.272 586.44 878.264 579.091 870.814 573.417C863.364 567.743 854.683 563.905 845.472 562.212L844.986 562.13C842.469 561.661 840.008 561.211 837.575 560.688C836.656 558.585 835.848 556.555 834.691 554.195C834.19 553.107 833.746 551.995 833.359 550.861C833.212 550.466 833.029 550.062 832.863 549.668C853.857 552.101 888.259 553.13 901.741 533.183C903.853 530.051 904.79 527.379 906.333 522.759C914.451 499.072 921.391 478.693 927.152 461.624L961.37 479.587C971.327 530.997 978.522 582.904 982.924 635.085Z" fill="url(#paint14_linear_329_1351)"/>
<path d="M900.869 409.232C899.731 417.047 898.298 423.329 896.167 428.517C891.511 439.868 883.531 445.911 868.176 451.027C860.305 453.653 853.408 451.945 847.668 448.345C839.403 443.202 833.526 434.248 830.706 429.234C830.568 428.967 830.431 428.729 830.293 428.481C833.434 427.268 836.538 426.212 839.559 425.312C841.644 424.44 843.793 423.586 845.988 422.75C849.762 421.308 853.693 419.912 857.77 418.608C861.848 417.304 865.659 416.202 869.535 415.183C877.038 413.208 884.33 411.702 891.346 410.591L892.907 410.343C895.139 410.003 897.352 409.682 899.529 409.425L900.869 409.232Z" fill="url(#paint15_linear_329_1351)"/>
<path d="M798.521 583.39C797.464 582.022 789.107 571.121 791.504 568.439C792.423 567.383 794.7 567.989 795.839 568.301C801.349 569.771 802.754 574.151 808.145 579.726C807.658 582.71 807.025 587.165 806.694 592.179C803.694 589.518 800.957 586.575 798.521 583.39Z" fill="url(#paint16_linear_329_1351)"/>
<path d="M813.964 627.306C810.391 626.075 806.056 623.862 799.628 620.73C790.986 613.191 794.687 608.525 794.687 608.525C794.219 608.268 790.095 605.77 789.664 601.417C789.659 601.35 789.659 601.282 789.664 601.215C789.654 601.087 789.654 600.958 789.664 600.829C789.656 599.22 790.119 597.643 790.995 596.293C791.023 596.267 791.045 596.236 791.06 596.201C789.452 593.859 787.753 590.691 788.608 588.707C788.625 588.646 788.65 588.588 788.681 588.532C788.789 588.297 788.915 588.07 789.058 587.853C789.112 587.78 789.161 587.703 789.204 587.623L789.37 587.384C789.477 587.234 789.594 587.089 789.719 586.953C789.719 586.953 789.719 586.907 789.774 586.879C789.85 586.782 789.936 586.693 790.031 586.613C790.213 586.42 790.413 586.245 790.628 586.09C790.739 586.006 790.856 585.929 790.977 585.86C791.065 585.794 791.161 585.739 791.262 585.695C791.553 585.539 791.861 585.419 792.18 585.337C794.797 584.657 797.332 586.668 798.765 587.77C800.84 589.359 803.43 591.214 806.727 593.372C806.249 602.014 806.727 612.043 810.208 619.086C811.677 622.227 812.972 624.973 813.964 627.306Z" fill="url(#paint17_linear_329_1351)"/>
<path d="M886.662 391.212L889.729 400.763C890.721 406.273 891.716 411.811 892.714 417.376C890.65 423.377 886.989 428.702 882.125 432.777C867.183 445.047 847.337 438.93 845.574 438.342L837.648 425.568L835.876 422.721L840.146 421.353L833.405 419.433L832.414 419.149L829.355 409.598L886.662 391.212Z" fill="url(#paint18_linear_329_1351)"/>
<path d="M877.626 410.498C868.601 415.874 858.962 420.145 848.917 423.218C845.217 424.247 841.453 425.033 837.649 425.569L835.877 422.722L840.147 421.354L833.406 419.434C843.609 419.076 860.948 417.359 877.626 410.498Z" fill="url(#paint19_linear_329_1351)"/>
<path d="M887.437 311.233C888.355 321.335 887.896 329.187 886.987 343.44C885.967 359.355 885.453 367.317 883.184 371.909C875.241 387.889 858.049 394.4 849.15 397.678C839.636 401.168 833.538 403.409 825.787 401.664C824.243 401.321 822.734 400.839 821.277 400.222C817.922 398.758 814.822 396.767 812.094 394.326C806.85 389.78 802.203 383.719 797.308 377.327C794.649 373.788 792.258 370.055 790.154 366.16C789.438 364.764 788.712 363.286 788.005 361.669C785.81 356.628 783.652 351.65 783.147 344.762C782.881 341.236 783.211 337.103 783.882 328.856C784.203 324.76 784.359 324.2 784.607 320.416C784.736 318.405 784.837 316.559 784.901 314.851C784.993 312.812 785.039 310.976 785.094 309.24C785.094 308.918 785.094 308.615 785.094 308.321C785.149 306.696 785.186 305.162 785.259 303.647C785.458 298.733 786.175 293.854 787.399 289.091C787.395 289.033 787.395 288.974 787.399 288.916C787.796 287.349 788.312 285.814 788.942 284.325C791.613 277.809 796.32 272.333 802.359 268.712C808.619 264.931 815.429 262.146 822.545 260.456C823.335 260.263 824.124 260.089 824.942 259.924C830.608 258.794 859.325 253.082 875.195 269.98C884.286 279.623 885.609 292.121 887.437 311.233Z" fill="url(#paint20_linear_329_1351)"/>
<path d="M886.983 343.448C885.955 359.354 885.45 367.325 883.181 371.917C875.237 387.888 858.046 394.417 849.147 397.687C839.632 401.167 833.534 403.417 825.783 401.672C824.237 401.329 822.725 400.847 821.265 400.23C839.724 397.283 849.266 389.017 853.408 384.71C859.304 378.548 863.06 367.904 870.333 346.864C875.954 330.6 878.764 322.326 878.516 315.53C877.993 301.313 870.627 284.434 859.809 280.218C850.625 276.646 846.033 283.809 827.427 280.972C818.749 279.658 815.25 277.417 807.223 278.097C800.741 278.721 794.49 280.833 788.957 284.268C791.042 280.365 794.633 273.248 802.365 268.656C809.327 264.471 816.956 261.514 824.92 259.913C830.587 258.784 859.304 253.072 875.182 269.969C884.256 279.631 885.578 292.13 887.415 311.241C888.388 321.306 887.902 329.186 886.983 343.448Z" fill="url(#paint21_linear_329_1351)"/>
<path d="M892.491 345.864C892.28 345.927 892.065 345.976 891.848 346.011C887.623 347.021 884.758 346.516 882.857 345.147C883.004 336.937 882.931 330.279 882.113 324.769C883.3 322.901 884.594 321.104 885.989 319.387C888.928 315.833 892.665 312.472 896.091 312.885C903.08 313.721 911.326 340.904 892.491 345.864Z" fill="url(#paint22_linear_329_1351)"/>
<path d="M886.707 324.309C886.707 324.309 893.136 321.554 897.195 326.256C901.254 330.958 897.195 342.034 888.828 339.499C890.689 338.659 892.198 337.198 893.099 335.366C893.765 333.934 894.026 332.345 893.852 330.775C893.765 328.897 892.948 327.127 891.574 325.843C890.209 324.727 888.466 324.178 886.707 324.309Z" fill="url(#paint23_linear_329_1351)"/>
<path d="M779.074 602.033C778.845 602.657 778.606 603.309 778.321 603.979C773.417 616.111 761.929 634.12 749.172 632.054C740.779 630.704 734.029 621.034 730.805 609.214C730.503 608.077 730.373 606.9 730.419 605.724C731.154 584.271 732.651 566.942 733.836 555.398C736.536 529.123 739.456 514.577 745.416 473.186C747.253 460.053 748.869 448.592 750.082 439.445C750.516 436.206 752.216 433.271 754.81 431.282C757.404 429.294 760.681 428.415 763.921 428.838H764.325C767.364 429.241 770.144 430.756 772.131 433.09C774.117 435.424 775.168 438.411 775.08 441.475C774.487 461.719 775.408 481.98 777.835 502.087C780.773 526.194 781.334 543.634 782.426 578.504C782.881 586.492 781.741 594.49 779.074 602.033Z" fill="url(#paint24_linear_329_1351)"/>
<path d="M778.321 603.979C773.417 616.111 761.929 634.12 749.172 632.054C740.779 630.704 734.029 621.034 730.805 609.214C730.503 608.077 730.373 606.9 730.419 605.724C731.154 584.271 732.651 566.942 733.836 555.398C736.536 529.123 739.456 514.577 745.416 473.186C747.253 460.053 748.869 448.592 750.082 439.445C750.516 436.206 752.216 433.271 754.81 431.282C757.404 429.294 760.681 428.415 763.921 428.838H764.325C766.561 429.134 768.673 430.034 770.433 431.442C772.194 432.85 773.537 434.712 774.317 436.828C770.414 441.86 765.299 448.133 759.311 454.616C745.416 469.668 740.779 601.665 750.045 608.608C756.896 613.769 771.268 607.598 778.321 603.979Z" fill="url(#paint25_linear_329_1351)" fill-opacity="0.27"/>
<path d="M782.493 397.944C781.257 391.714 779.015 385.728 775.853 380.219C772.399 374.213 767.881 368.885 762.519 364.497C760.915 366.542 759.154 368.602 757.238 370.677C749.554 378.922 740.554 385.834 730.605 391.129C734.282 410.262 741.014 428.678 750.543 445.671L774.375 441.924L782.493 397.944Z" fill="url(#paint26_linear_329_1351)"/>
<path d="M771.859 432.189C775.9 430.627 779.578 428.255 782.668 425.219C790.015 417.872 789.537 410.525 796.985 401.773C799.142 399.042 801.506 396.481 804.057 394.114C806.812 391.772 808.309 391.056 808.07 390.266C807.648 388.87 802.248 389.182 801.697 389.219C793.376 389.743 789.363 395.115 781.493 398.403C766.973 404.473 761.665 403.601 759.452 408.624C758.056 411.866 758.267 418.414 771.859 432.189Z" fill="url(#paint27_linear_329_1351)"/>
<path d="M702.713 431.529L705.137 429.362L706.129 428.893L818.344 374.765L820.172 380.257L707.883 434.403L707.158 434.762H703.797L702.713 431.529Z" fill="url(#paint28_linear_329_1351)"/>
<path d="M699.086 434.761L701.29 432.805L702.713 431.529L705.138 429.361L706.13 428.893L707.884 434.403L707.158 434.761H699.086Z" fill="#FFD9BA"/>
<path d="M699.086 434.761L701.29 432.805L701.694 434.761H699.086Z" fill="#B72C3B"/>
<path d="M784.045 397.292C783.301 398.211 781.363 398.89 779.6 398.973C775.633 399.147 772.749 396.108 771.978 395.299C774.136 399.184 774.145 403.005 772.455 404.795C772.037 405.195 771.542 405.506 771.001 405.712C770.46 405.917 769.883 406.011 769.305 405.989C767.292 406.13 765.29 405.588 763.623 404.45C761.956 403.311 760.722 401.644 760.121 399.717C760.259 400.727 761.407 411.279 749.817 406.586C749.478 406.862 748.982 407.247 748.357 407.67C747.414 408.313 746.426 408.887 745.4 409.387C742.581 410.554 735.059 403.96 730.633 394.969C728.254 390.147 728.667 388.485 729.228 387.558C730.624 385.243 734.288 385.234 735.013 385.243C734.148 383.79 733.792 382.09 734.002 380.412C734.212 378.734 734.975 377.173 736.171 375.977C737.366 374.781 738.927 374.018 740.605 373.809C742.283 373.599 743.983 373.955 745.437 374.82C744.895 371.146 746.355 367.85 748.908 366.711C750.385 366.139 752.023 366.139 753.5 366.711C753.987 366.904 755.135 367.427 758.092 371.348C759.185 372.781 760.02 374.003 760.562 374.82C757.201 370.421 756.163 365.948 757.807 363.91C758.461 363.155 759.345 362.639 760.323 362.44C761.123 362.339 761.934 362.406 762.706 362.637C763.478 362.868 764.193 363.258 764.805 363.781L764.879 363.845C768.552 368.437 771.546 372.46 774.062 375.94C784.339 390.092 785.578 395.456 784.045 397.292Z" fill="url(#paint29_linear_329_1351)"/>
<path d="M784.043 397.292C783.299 398.21 781.361 398.89 779.598 398.972C775.631 399.147 772.747 396.107 771.976 395.299C774.134 399.183 774.143 403.004 772.453 404.795C772.035 405.194 771.54 405.506 770.999 405.711C770.458 405.916 769.881 406.01 769.303 405.989C767.29 406.13 765.288 405.587 763.621 404.449C761.954 403.31 760.721 401.643 760.12 399.716C760.257 400.726 761.405 411.278 749.816 406.585C749.476 406.861 748.98 407.247 748.355 407.669C747.412 408.312 746.424 408.886 745.398 409.386C743.323 410.305 735.37 402.958 730.631 394.968C743.91 389.706 763.242 380.954 774.152 375.94C784.337 390.092 785.577 395.455 784.043 397.292Z" fill="url(#paint30_linear_329_1351)"/>
<path d="M749.745 406.475C749.692 406.476 749.639 406.464 749.591 406.44C749.543 406.416 749.501 406.381 749.47 406.337L738.734 391.69C738.681 391.616 738.658 391.525 738.672 391.436C738.686 391.346 738.735 391.266 738.808 391.212C738.881 391.158 738.972 391.136 739.062 391.15C739.151 391.164 739.232 391.212 739.285 391.285L750.021 405.933C750.058 405.984 750.081 406.044 750.086 406.107C750.091 406.17 750.079 406.233 750.051 406.289C750.022 406.346 749.978 406.393 749.924 406.426C749.87 406.459 749.808 406.476 749.745 406.475Z" fill="url(#paint31_linear_329_1351)"/>
<path d="M760.25 401.536C760.19 401.536 760.131 401.52 760.079 401.489C760.027 401.459 759.985 401.414 759.956 401.361L750.148 383.793C750.117 383.716 750.115 383.631 750.142 383.552C750.169 383.474 750.224 383.409 750.296 383.368C750.368 383.327 750.453 383.315 750.534 383.332C750.615 383.349 750.687 383.396 750.736 383.462L760.544 401.031C760.587 401.11 760.596 401.203 760.57 401.289C760.544 401.375 760.485 401.447 760.406 401.49C760.36 401.521 760.306 401.537 760.25 401.536Z" fill="url(#paint32_linear_329_1351)"/>
<path d="M772.241 396.236C772.179 396.237 772.119 396.221 772.065 396.191C772.012 396.16 771.968 396.115 771.938 396.061L763.443 380.761C763.421 380.722 763.408 380.679 763.403 380.635C763.398 380.59 763.401 380.545 763.414 380.502C763.426 380.459 763.447 380.419 763.475 380.384C763.503 380.348 763.537 380.319 763.576 380.298C763.615 380.276 763.659 380.262 763.703 380.257C763.748 380.252 763.793 380.256 763.836 380.268C763.879 380.28 763.919 380.301 763.954 380.329C763.989 380.357 764.018 380.392 764.04 380.431L772.535 395.694C772.558 395.733 772.573 395.776 772.578 395.821C772.584 395.866 772.581 395.912 772.569 395.955C772.557 395.999 772.537 396.04 772.509 396.075C772.481 396.111 772.446 396.14 772.406 396.162C772.358 396.201 772.302 396.226 772.241 396.236Z" fill="url(#paint33_linear_329_1351)"/>
<path d="M915.004 509.058C917.453 536.786 919.921 564.512 922.406 592.234L845.805 625.415L835.308 629.951L832.746 630.521L826.942 629.41L822.093 628.491L821.864 628.418C796.762 620.293 771.66 612.157 746.558 604.008C740.013 587.991 732.706 571.409 724.636 554.26C717.859 539.939 711.014 526.292 704.102 513.319C705.525 513.576 706.949 513.842 708.4 514.127C719.997 516.345 731.466 519.19 742.756 522.65C768.248 530.506 792.759 541.25 815.812 554.673C816.363 555.004 816.914 555.316 817.465 555.591C817.465 555.591 863.466 520.464 914.316 509.195C914.536 509.159 914.756 509.104 915.004 509.058Z" fill="#21013C"/>
<path opacity="0.06" d="M821.864 628.398C796.762 620.274 771.66 612.137 746.558 603.988C740.013 587.972 732.706 571.389 724.636 554.24C717.859 539.92 711.014 526.273 704.102 513.299C705.525 513.557 706.949 513.823 708.4 514.108C722.175 534.67 761.38 587.834 821.698 628.26L821.864 628.398ZM914.279 509.222C904.36 532.117 875.707 594.575 845.805 625.413L835.308 629.95L832.746 630.52L826.942 629.408L815.775 554.653C816.326 554.984 816.877 555.296 817.428 555.572C817.428 555.618 863.429 520.49 914.279 509.222Z" fill="#FFFDFF"/>
<path d="M835.307 629.951L832.745 630.521L822.092 628.473L807.453 558.034L819.823 555.463L835.307 629.951Z" fill="#21013C"/>
<path d="M914.997 509.058L816.272 564.839L704.066 513.301C717.13 515.628 730.042 518.744 742.73 522.631C768.829 530.681 793.899 541.752 817.429 555.619C817.429 555.619 863.853 520.161 914.997 509.058Z" fill="url(#paint34_linear_329_1351)"/>
<path d="M1011.75 598.415C1007.57 609.729 883.866 621.98 859.557 624.276C856.912 624.533 855.434 624.662 855.434 624.662V603.007L860.494 601.06L950.246 566.492L949.998 565.767L934.734 520.152C926.445 487.452 918.149 454.743 909.847 422.024C922.823 422.291 941.42 424.862 956.16 437.508C973.93 452.734 969.669 473.122 984.244 510.977C999.571 550.66 1014.4 591.215 1011.75 598.415Z" fill="url(#paint35_linear_329_1351)"/>
<path d="M868.146 614.027C867.999 614.513 867.843 614.945 867.66 615.432C866.056 619.214 863.195 622.325 859.56 624.239C857.984 625.148 856.307 625.869 854.564 626.388C849.898 626.571 842.625 626.92 833.57 627.609C823.293 628.427 822.008 628.812 818.187 628.335C816.744 628.131 815.325 627.78 813.953 627.288C810.39 626.048 806.056 623.835 799.618 620.703C790.976 613.154 794.686 608.489 794.686 608.489C794.383 608.268 794.098 608.048 793.768 607.818C790.921 605.55 789.846 603.227 789.617 601.39C789.604 601.323 789.604 601.255 789.617 601.188C789.617 601.059 789.617 600.931 789.617 600.811C789.551 599.175 790.022 597.563 790.958 596.219C790.984 596.198 791.003 596.169 791.013 596.137C789.406 593.786 787.707 590.627 788.561 588.652C788.581 588.592 788.606 588.534 788.634 588.478C788.736 588.236 788.862 588.005 789.011 587.789C789.067 587.715 789.119 587.639 789.167 587.559C789.212 587.479 789.265 587.402 789.323 587.33C789.422 587.17 789.54 587.022 789.672 586.889C789.672 586.889 789.672 586.843 789.727 586.815C789.805 586.717 789.891 586.625 789.984 586.54C790.163 586.346 790.367 586.176 790.59 586.035C790.694 585.944 790.805 585.861 790.921 585.787L791.215 585.622C791.506 585.471 791.814 585.357 792.133 585.282C794.75 584.593 797.285 586.613 798.709 587.706C800.784 589.295 803.383 591.15 806.68 593.317C808.866 594.741 811.373 596.311 814.247 598.029C811.619 596.24 809.11 594.283 806.735 592.169C803.747 589.493 801.011 586.548 798.562 583.371C797.524 582.003 789.158 571.093 791.555 568.421C792.473 567.364 794.75 567.98 795.889 568.283C801.399 569.752 802.805 574.142 808.195 579.707C808.553 580.084 808.939 580.451 809.334 580.828C812.867 584.098 816.824 586.878 821.098 589.093C825.079 591.368 829.267 593.26 833.606 594.741C833.496 592.581 832.866 590.48 831.77 588.615C829.088 584.244 824.9 583.886 824.074 579.873C823.945 579.294 823.541 577.365 824.662 576.199C825.162 575.731 825.814 575.457 826.498 575.428C826.498 575.428 832.256 574.84 846.51 589.947C848.649 592.748 851.937 594.438 854.619 596.743C856.483 598.311 858.467 599.733 860.551 600.995C862.544 602.235 865.033 603.695 868.201 605.394C868.948 608.226 868.929 611.205 868.146 614.027Z" fill="url(#paint36_linear_329_1351)"/>
<path d="M1011.75 598.414C1007.57 609.728 883.87 621.979 859.561 624.275C857.986 625.185 856.309 625.906 854.565 626.424C849.9 626.608 842.627 626.957 833.572 627.646C823.295 628.463 822.009 628.849 818.189 628.371C816.746 628.168 815.327 627.817 813.955 627.324C810.392 626.085 806.057 623.871 799.62 620.74C790.978 613.191 794.688 608.525 794.688 608.525C794.385 608.305 794.1 608.085 793.77 607.855C811.916 613.292 839.789 617.755 848.871 617.755C850.075 617.755 852.325 617.553 855.401 617.195C858.634 616.809 862.748 616.276 867.624 615.505C908.473 609.343 998.115 591.765 994.359 579.542C990.603 567.318 961.298 565.913 949.974 565.766L934.739 520.151L984.248 510.967C999.575 550.659 1014.41 591.214 1011.75 598.414Z" fill="url(#paint37_linear_329_1351)" fill-opacity="0.22"/>
<path d="M1007.12 541.209C1007.12 541.209 1005.53 541.888 1002.77 542.926L1001.28 543.459L1000.32 543.817L998.91 544.313L998.166 544.57L996.605 545.102C993.923 546.021 990.828 546.939 987.421 547.931C986.788 548.106 986.145 548.298 985.483 548.473C984.051 548.849 982.554 549.235 981.039 549.612L979.927 549.878L978.467 550.218C977.99 550.328 977.549 550.438 977.034 550.53L976.511 550.649L974.307 551.109L971.837 551.577C971.23 551.696 970.615 551.797 970 551.908C969.385 552.018 968.833 552.1 968.227 552.183C967.621 552.266 966.932 552.385 966.29 552.477L965.812 552.532L965.05 552.642C964.49 552.707 963.939 552.78 963.378 552.835C963.244 552.844 963.109 552.844 962.974 552.835C962.295 552.918 961.615 552.991 960.936 553.046L959.723 553.147C959.035 553.212 958.364 553.258 957.685 553.294H957.28C956.527 553.294 955.783 553.377 955.04 553.386C954.296 553.395 953.286 553.432 952.413 553.432C950.76 553.432 949.116 553.386 947.509 553.276C946.425 553.202 945.351 553.111 944.295 552.982C943.239 552.854 942.192 552.716 941.163 552.532C940.135 552.348 939.124 552.128 938.114 551.898C936.659 551.566 935.225 551.152 933.816 550.659C931.951 549.998 930.147 549.174 928.425 548.197L927.507 544.809C919.683 499.729 911.87 454.656 904.07 409.588C908.307 408.741 912.608 408.259 916.927 408.147C925.468 407.945 935.662 409.368 945.121 415.126L945.397 415.301C949.94 418.142 953.975 421.724 957.336 425.899C982.802 456.186 1007.12 541.209 1007.12 541.209Z" fill="url(#paint38_linear_329_1351)"/>
<path d="M1007.12 541.209C1007.12 541.209 1005.53 541.888 1002.77 542.926L1001.28 543.459L1000.32 543.817L998.911 544.313L998.167 544.57L996.606 545.102C993.924 546.021 990.829 546.939 987.422 547.931C986.788 548.106 986.146 548.298 985.484 548.473C984.052 548.849 982.555 549.235 981.039 549.612L979.928 549.878L978.468 550.218C977.99 550.328 977.55 550.438 977.035 550.53L976.512 550.649L974.308 551.109L971.837 551.577L970.001 551.908C969.422 551.999 968.834 552.1 968.228 552.183C967.622 552.266 966.933 552.385 966.29 552.477L965.813 552.532L965.051 552.642C964.49 552.707 963.939 552.78 963.379 552.835C963.245 552.844 963.11 552.844 962.975 552.835C962.296 552.918 961.616 552.991 960.936 553.046L959.724 553.147C959.035 553.212 958.365 553.258 957.685 553.294H957.281C956.528 553.294 955.784 553.377 955.04 553.386C954.297 553.395 953.286 553.432 952.414 553.432C950.761 553.432 949.117 553.386 947.51 553.276C946.417 553.202 945.352 553.111 944.296 552.982C943.239 552.854 942.193 552.707 941.164 552.532C940.135 552.358 939.125 552.128 938.115 551.898C936.618 551.522 935.167 551.099 933.753 550.594C931.887 549.933 930.083 549.11 928.362 548.133L927.444 544.744C941.293 544.873 979.919 544.037 982.766 530.666C986.237 514.356 963.085 459.612 949.19 432.823C942.183 419.332 928.619 411.985 916.938 408.147C925.478 407.945 935.672 409.368 945.131 415.126L945.407 415.301C949.893 418.218 953.917 421.79 957.346 425.899C982.803 456.186 1007.12 541.209 1007.12 541.209Z" fill="url(#paint39_linear_329_1351)"/>
<path d="M827.488 237.8C830.606 235.019 834.182 232.8 838.059 231.243C851.357 225.953 867.061 229.268 877.3 236.974C898.781 253.155 898 290.046 890.654 293.517C889.957 293.821 889.181 293.892 888.44 293.719C888.44 293.719 885.143 232.519 827.488 237.8Z" fill="url(#paint40_linear_329_1351)"/>
<path d="M786.8 290.973C790.481 285.901 795.243 281.711 800.741 278.703C805.366 276.162 810.44 274.544 815.682 273.937C820.463 273.359 825.312 273.772 829.926 275.149C844.491 279.833 843.389 293.232 855.19 295.482C860.03 296.4 863.189 294.71 874.127 296.281C876.882 296.666 879.738 297.199 881.584 299.513C883.43 301.828 882.503 304.546 883.421 308.495C884.642 313.932 885.928 318.312 886.828 321.187C888.858 318.085 890.563 314.783 891.916 311.333C897.665 296.639 895.589 282.597 893.707 275.801C886.764 250.188 857.027 229.111 828.934 233.363C809.851 236.247 798.628 249.747 797.37 251.253C783.852 267.885 786.304 287.455 786.8 290.973Z" fill="url(#paint41_linear_329_1351)"/>
<path d="M839.377 250.887C837.403 248.26 837.743 246.717 837.871 246.295C838.615 243.723 842.582 242.952 843.143 242.842C844.856 242.532 846.619 242.649 848.276 243.181C859.848 246.745 868.609 249.435 871.887 257.636C872.475 259.115 873.926 262.752 872.42 264.331C870.436 266.407 865.826 262.302 852.124 257.903C847.422 256.378 842.573 255.129 839.377 250.887ZM868.618 268.409C868.132 266.937 867.1 265.708 865.734 264.974C862.456 263.137 855.531 259.703 854.126 262.706C852.381 266.333 870.813 275.682 868.618 268.409ZM878.151 203.517C877.433 202.924 876.518 202.625 875.589 202.681C874.809 202.713 874.043 202.891 873.329 203.205C872.99 203.37 872.677 203.536 872.411 203.71C872.411 203.618 872.347 203.536 872.319 203.453C872.126 202.985 871.897 202.535 871.676 202.048C871.411 201.579 871.119 201.125 870.804 200.689C870.094 199.675 869.149 198.849 868.049 198.283C866.803 197.698 865.383 197.607 864.072 198.025C862.99 198.387 862.003 198.99 861.188 199.789C860.446 200.466 859.792 201.234 859.242 202.075C858.157 203.655 857.347 205.406 856.845 207.255L857.038 207.356C857.952 205.788 859.022 204.318 860.233 202.966C861.368 201.568 862.864 200.507 864.559 199.899C865.405 199.665 866.309 199.763 867.084 200.174C867.86 200.616 868.511 201.248 868.976 202.011C869.622 202.96 870.149 203.984 870.547 205.06L869.996 205.538L870.804 205.73C870.951 206.116 871.079 206.511 871.208 206.906L871.309 207.218L871.538 206.979C871.832 206.676 872.154 206.392 872.457 206.116L873.219 206.291L873.017 205.675C873.384 205.399 873.77 205.15 874.174 204.931C874.625 204.627 875.151 204.453 875.694 204.43C876.238 204.408 876.777 204.537 877.251 204.803C878.079 205.549 878.623 206.558 878.794 207.659C879.032 208.768 879.171 209.896 879.207 211.029H879.427C879.705 209.857 879.816 208.651 879.758 207.448C879.729 206.794 879.608 206.148 879.4 205.528C879.18 204.754 878.747 204.057 878.151 203.517ZM904.921 250.418C904.627 250.189 904.343 249.968 904.058 249.775L904.251 249.573C904.581 249.206 904.903 248.793 905.233 248.398C905.564 248.003 905.83 247.534 906.087 247.02C906.696 245.955 907.037 244.757 907.079 243.53C907.072 242.162 906.543 240.848 905.601 239.857C904.808 239.039 903.841 238.411 902.772 238.02C901.84 237.645 900.865 237.386 899.87 237.249C897.976 236.948 896.045 236.97 894.158 237.313V237.497C895.968 237.648 897.759 237.98 899.503 238.489C901.24 238.918 902.828 239.814 904.095 241.078C904.671 241.737 904.973 242.591 904.939 243.466C904.873 244.347 904.6 245.2 904.14 245.955C903.558 246.951 902.861 247.875 902.065 248.71C901.845 248.609 901.624 248.508 901.385 248.416L901.569 249.233C901.275 249.527 900.981 249.821 900.651 250.097L900.412 250.326L900.724 250.436C901.128 250.574 901.523 250.749 901.918 250.923L902.083 251.658L902.543 251.226C902.951 251.437 903.344 251.676 903.718 251.943C904.193 252.219 904.581 252.625 904.836 253.112C905.091 253.6 905.203 254.149 905.16 254.698C904.846 255.768 904.171 256.696 903.25 257.324C902.349 258.018 901.391 258.633 900.384 259.161L900.485 259.354C901.666 259.101 902.804 258.68 903.865 258.105C904.442 257.797 904.974 257.411 905.445 256.957C906.023 256.414 906.445 255.726 906.666 254.964C906.883 254.064 906.758 253.115 906.317 252.301C905.977 251.589 905.503 250.95 904.921 250.418Z" fill="#595567"/>
<path d="M788.184 280.512C787.449 277.191 786.022 274.061 783.996 271.329C781.957 268.684 779.101 266.618 775.923 266.287C772.746 265.956 769.173 267.205 767.557 269.96C766.733 271.38 766.298 272.993 766.299 274.635C766.244 275.415 766.344 276.199 766.595 276.94C766.846 277.681 767.242 278.365 767.759 278.951C768.751 279.87 770.514 279.511 772.176 278.951C773.059 278.647 773.961 278.401 774.876 278.217C775.878 278.011 776.916 278.068 777.889 278.382C778.862 278.734 779.705 279.374 780.304 280.219C780.887 281.022 781.285 281.944 781.47 282.919C781.671 283.891 781.627 284.897 781.342 285.848C781.022 286.771 780.501 287.612 779.817 288.309C778.515 289.64 776.952 290.688 775.225 291.386C774.366 291.704 773.489 291.97 772.599 292.185C771.782 292.424 770.762 292.616 770.597 293.397C770.432 294.178 771.139 294.949 771.763 295.528C772.409 296.137 773.189 296.587 774.041 296.841C775.814 297.243 777.673 296.982 779.266 296.106C777.679 297.05 775.799 297.377 773.986 297.025C773.087 296.792 772.254 296.355 771.552 295.748C771.203 295.446 770.894 295.1 770.634 294.72C770.323 294.317 770.175 293.812 770.22 293.305C770.267 293.052 770.376 292.814 770.536 292.613C770.696 292.411 770.903 292.252 771.139 292.148C771.563 291.951 772.002 291.789 772.452 291.661C773.298 291.409 774.129 291.109 774.941 290.761C776.553 290.045 778 289.004 779.193 287.703C779.761 287.081 780.184 286.341 780.433 285.536C780.635 284.731 780.635 283.889 780.433 283.084C780.283 282.289 779.933 281.545 779.416 280.923C778.898 280.301 778.23 279.821 777.475 279.53C775.997 279.061 774.307 279.695 772.608 280.301C771.719 280.645 770.795 280.891 769.853 281.036C769.298 281.11 768.735 281.071 768.195 280.923C767.655 280.775 767.151 280.519 766.712 280.173C765.901 279.477 765.297 278.572 764.967 277.555C764.65 276.607 764.473 275.616 764.444 274.617C764.367 272.613 764.827 270.625 765.775 268.858C766.789 267.06 768.367 265.646 770.266 264.836C772.112 264.036 774.116 263.668 776.125 263.761C778.151 263.913 780.112 264.543 781.847 265.598C783.528 266.631 785.027 267.934 786.283 269.455C788.724 272.476 790.492 275.983 791.471 279.741L788.184 280.512Z" fill="#21013C"/>
<path d="M829.001 623.605H484.476C482.584 623.605 481.051 625.138 481.051 627.03V631.034C481.051 632.926 482.584 634.46 484.476 634.46H829.001C830.893 634.46 832.427 632.926 832.427 631.034V627.03C832.427 625.138 830.893 623.605 829.001 623.605Z" fill="#21013C"/>
<path d="M712.547 634.459H463.614C462.634 634.439 461.693 634.067 460.963 633.411C460.233 632.756 459.763 631.86 459.638 630.887L459.335 628.922L433.419 461.779C433.345 461.292 433.345 460.797 433.419 460.31C433.563 459.357 434.04 458.487 434.764 457.852C435.488 457.216 436.414 456.857 437.377 456.838H689.229C690.228 456.859 691.185 457.244 691.92 457.921C692.656 458.597 693.119 459.518 693.224 460.512L694.262 468.005L716.496 629.463V629.675C716.581 630.253 716.544 630.843 716.387 631.406C716.23 631.97 715.957 632.494 715.585 632.945C715.212 633.396 714.75 633.763 714.226 634.024C713.703 634.285 713.131 634.433 712.547 634.459Z" fill="url(#paint42_linear_329_1351)"/>
<path d="M716.499 629.39C716.419 629.861 716.257 630.315 716.021 630.731L693.209 465.251C693.104 464.257 692.641 463.336 691.905 462.66C691.17 461.983 690.213 461.598 689.214 461.577H437.407C436.708 461.588 436.024 461.782 435.423 462.14C434.822 462.498 434.325 463.006 433.982 463.616L433.449 460.209C433.594 459.256 434.071 458.386 434.795 457.751C435.519 457.116 436.444 456.757 437.407 456.737H689.232C690.231 456.759 691.188 457.143 691.924 457.82C692.659 458.496 693.123 459.417 693.227 460.411L716.499 629.39Z" fill="url(#paint43_linear_329_1351)"/>
<path d="M712.552 634.459H463.619C462.639 634.439 461.698 634.067 460.968 633.411C460.238 632.756 459.768 631.86 459.643 630.887L459.34 628.922C514.001 622.181 577.956 610.169 607.05 590.855C636.144 571.542 669.939 536.571 694.295 467.932L716.528 629.39V629.601C716.625 630.187 716.596 630.787 716.443 631.361C716.289 631.936 716.015 632.47 715.639 632.93C715.263 633.39 714.793 633.764 714.26 634.028C713.728 634.291 713.145 634.439 712.552 634.459Z" fill="white" fill-opacity="0.28"/>
<path d="M714.845 634.46H703.889C704.811 634.434 705.717 634.21 706.545 633.803C707.373 633.396 708.103 632.816 708.687 632.102C709.271 631.387 709.694 630.555 709.928 629.663C710.162 628.771 710.201 627.838 710.042 626.929L688.405 469.843L687.386 462.395C687.314 461.868 687.176 461.353 686.973 460.861L691.757 456.968C692.086 457.114 692.372 457.341 692.587 457.629C692.802 457.917 692.94 458.255 692.988 458.611L694.375 468.713L716.865 631.953C716.92 632.253 716.909 632.562 716.833 632.858C716.757 633.154 716.619 633.43 716.428 633.668C716.236 633.905 715.996 634.099 715.723 634.236C715.449 634.373 715.15 634.449 714.845 634.46Z" fill="#21013C"/>
<path opacity="0.2" d="M457.559 584.225L441.258 475.931C440.34 470.779 444.013 465.985 449.009 465.985H579.335C579.335 465.985 541.452 496.42 510.577 526.597C491.868 544.826 474.169 564.064 457.559 584.225Z" fill="url(#paint44_linear_329_1351)"/>
<path d="M556.786 525.1H582.776C583.891 525.058 584.984 525.424 585.849 526.129C586.714 526.833 587.293 527.829 587.478 528.93L590.858 552.256C590.924 552.984 590.835 553.718 590.598 554.409C590.36 555.101 589.979 555.734 589.48 556.267C588.98 556.801 588.373 557.222 587.699 557.505C587.025 557.787 586.298 557.923 585.568 557.904H560.561C559.472 557.946 558.405 557.599 557.549 556.926C556.692 556.253 556.103 555.298 555.886 554.231L551.524 530.895C550.973 527.938 553.544 525.1 556.786 525.1Z" fill="url(#paint45_linear_329_1351)"/>
<path d="M494.528 210.212H606.458C611.272 210.212 615.889 212.124 619.293 215.527C622.698 218.93 624.612 223.545 624.614 228.359V286.032C624.614 290.848 622.701 295.466 619.296 298.871C615.892 302.276 611.274 304.188 606.458 304.188H532.649L514.126 328.415V304.188H494.528C492.144 304.188 489.783 303.719 487.581 302.806C485.379 301.894 483.378 300.556 481.693 298.87C480.008 297.184 478.671 295.182 477.76 292.98C476.848 290.777 476.38 288.416 476.381 286.032V228.359C476.381 225.976 476.85 223.616 477.762 221.414C478.674 219.213 480.011 217.212 481.696 215.527C483.381 213.842 485.382 212.505 487.583 211.593C489.785 210.681 492.145 210.212 494.528 210.212Z" fill="url(#paint46_linear_329_1351)"/>
<path d="M668.06 267.803H580.007C576.221 267.803 572.59 269.306 569.912 271.982C567.235 274.658 565.729 278.288 565.727 282.074V327.451C565.727 331.238 567.231 334.87 569.909 337.549C572.587 340.227 576.22 341.731 580.007 341.731H638.103L652.641 360.787V341.713H668.088C671.875 341.713 675.507 340.208 678.186 337.53C680.864 334.852 682.368 331.22 682.368 327.432V282.056C682.365 280.18 681.992 278.324 681.271 276.593C680.55 274.862 679.495 273.289 678.166 271.966C676.837 270.642 675.261 269.594 673.527 268.879C671.793 268.165 669.935 267.799 668.06 267.803Z" fill="url(#paint47_linear_329_1351)"/>
</g>
<path d="M1076.53 262.861C1075.2 266.997 1072.91 270.762 1069.86 273.854C1066.81 276.945 1063.08 279.276 1058.96 280.659C1057.33 281.206 1055.84 282.097 1054.59 283.271C1053.34 284.446 1052.36 285.876 1051.71 287.464L1047.56 297.786L1043.45 307.998C1042.43 310.546 1040.45 312.597 1037.94 313.72C1035.41 314.871 1032.54 315.034 1029.9 314.179C1027.27 313.366 1025.04 311.589 1023.67 309.205C1022.29 306.821 1021.87 304.006 1022.48 301.322C1023.34 297.759 1024.21 294.195 1025.08 290.632C1026 287.032 1026.83 283.414 1027.71 279.814C1028.11 278.145 1028.15 276.41 1027.81 274.727C1027.48 273.044 1026.79 271.452 1025.79 270.061C1023.24 266.548 1021.56 262.488 1020.87 258.207C1020.19 253.926 1020.51 249.544 1021.83 245.412C1026.54 230.718 1042.6 222.655 1057.7 227.485C1072.8 232.316 1081.25 248.13 1076.53 262.861Z" fill="#FFB97F"/>
<path d="M1036.91 298.962C1037.02 298.585 1039.67 289.567 1043.24 280.163C1044.34 277.224 1045.36 274.708 1046.29 272.54C1044.42 272.016 1042.58 271.381 1040.78 270.639C1040.31 272.779 1039.74 275.231 1039.06 277.931C1036.51 288.033 1033.55 297.749 1033.48 297.841L1031.59 297.253C1031.59 297.152 1034.78 286.949 1037.36 276.544C1037.99 274.028 1038.5 271.796 1038.92 269.831C1037.56 269.216 1036.6 268.711 1036.23 268.518C1033.34 266.984 1031.98 265.698 1031.39 263.926C1031.07 262.721 1031.04 261.456 1031.31 260.238C1031.58 259.019 1032.13 257.884 1032.94 256.928C1034.86 254.338 1037.77 252.722 1040.28 252.804C1040.61 252.817 1040.92 252.907 1041.2 253.067C1041.48 253.227 1041.72 253.452 1041.89 253.723C1042.72 254.88 1043.41 257.754 1041.16 268.701C1043.06 269.512 1045.02 270.193 1047.01 270.74C1051.68 260.399 1054.06 259.637 1054.95 259.352C1055.46 259.154 1056 259.064 1056.54 259.087C1057.08 259.111 1057.61 259.248 1058.1 259.49C1059.26 260.124 1060.09 261.547 1060.45 263.485C1060.85 265.671 1060.65 268.995 1058.77 271.199C1056.47 273.872 1052.34 273.954 1048.17 273.036C1044.54 281.691 1041.39 290.539 1038.73 299.54L1036.91 298.962ZM1057.03 261.125C1056.57 261.01 1056.08 261.039 1055.64 261.208C1053.9 261.768 1051.54 265.726 1049.07 271.181C1052.57 271.87 1055.75 271.741 1057.34 269.877C1058.68 268.316 1058.93 265.708 1058.58 263.816C1058.54 263.313 1058.39 262.824 1058.16 262.377C1057.93 261.929 1057.61 261.532 1057.23 261.208L1057.03 261.125ZM1040.3 254.788C1038.4 254.724 1036.1 256.065 1034.56 258.113C1033.95 258.815 1033.52 259.652 1033.31 260.555C1033.09 261.458 1033.09 262.4 1033.31 263.301C1033.59 264.128 1034.13 265.138 1037.2 266.764C1037.85 267.113 1038.58 267.471 1039.37 267.847C1041.77 255.863 1040.36 254.834 1040.3 254.788Z" fill="white"/>
<path d="M1048.62 298.108L1044.19 309.128C1043.08 311.868 1040.95 314.071 1038.25 315.272C1035.5 316.512 1032.39 316.682 1029.53 315.75C1026.66 314.883 1024.23 312.957 1022.72 310.363C1021.22 307.77 1020.76 304.702 1021.44 301.781C1022.36 297.942 1023.28 294.107 1024.19 290.274L1025.06 290.55L1028.5 291.652L1048.62 298.108Z" fill="url(#paint48_linear_329_1351)"/>
<path d="M1278.7 629.619H321V639.289H1278.7V629.619Z" fill="url(#paint49_linear_329_1351)"/>
<path d="M1109.68 475.639L1048.53 629.614L1062.55 635.183L1123.7 481.208L1109.68 475.639Z" fill="url(#paint50_linear_329_1351)"/>
<path d="M1118.58 480.109L1057.43 634.084L1062.83 636.23L1123.98 482.255L1118.58 480.109Z" fill="url(#paint51_linear_329_1351)"/>
<path d="M1092.18 624.357H1019.41V639.335H1092.18V624.357Z" fill="url(#paint52_linear_329_1351)"/>
<path d="M1074.88 615.412H1046.53C1044.02 615.412 1041.99 617.447 1041.99 619.958V625.845C1041.99 628.355 1044.02 630.391 1046.53 630.391H1074.88C1077.39 630.391 1079.43 628.355 1079.43 625.845V619.958C1079.43 617.447 1077.39 615.412 1074.88 615.412Z" fill="url(#paint53_linear_329_1351)"/>
<path d="M1124.28 488.117L1031.81 427.571L1023.51 440.245L1115.98 500.792L1124.28 488.117Z" fill="url(#paint54_linear_329_1351)"/>
<path d="M1114.9 496.177L1022.98 435.609L1020.55 439.29L1112.48 499.858L1114.9 496.177Z" fill="url(#paint55_linear_329_1351)"/>
<path d="M1109.35 506.548C1119.34 506.548 1127.43 498.456 1127.43 488.475C1127.43 478.493 1119.34 470.401 1109.35 470.401C1099.37 470.401 1091.28 478.493 1091.28 488.475C1091.28 498.456 1099.37 506.548 1109.35 506.548Z" fill="url(#paint56_linear_329_1351)"/>
<path d="M1109.35 498.54C1114.91 498.54 1119.42 494.034 1119.42 488.475C1119.42 482.916 1114.91 478.41 1109.35 478.41C1103.8 478.41 1099.29 482.916 1099.29 488.475C1099.29 494.034 1103.8 498.54 1109.35 498.54Z" fill="#21013C"/>
<path d="M1026.01 410.01C1021.6 406.171 1015.87 404.209 1010.03 404.542C1004.2 404.875 998.726 407.477 994.785 411.792C984.749 408.787 974.06 408.736 963.997 411.647C953.933 414.557 944.922 420.305 938.039 428.203C938.039 428.203 948.141 452.191 972.671 472.018C999.386 493.627 1020.27 499.891 1020.27 499.891C1027.2 491.94 1031.67 482.152 1033.15 471.711C1034.64 461.27 1033.06 450.624 1028.62 441.06C1032.3 436.56 1034.09 430.802 1033.6 425.007C1033.12 419.211 1030.39 413.832 1026.01 410.01Z" fill="url(#paint57_linear_329_1351)"/>
<path d="M1028.61 441.059C1032.51 436.585 1034.47 430.746 1034.06 424.826C1033.65 418.907 1030.91 413.392 1026.43 409.495C1021.96 405.598 1016.12 403.638 1010.2 404.046C1004.28 404.454 998.764 407.197 994.867 411.672C996.63 414.877 1002.59 424.924 1010.29 430.875C1018.77 437.459 1024.86 438.828 1028.88 441.656C1028.78 441.473 1028.7 441.261 1028.61 441.059Z" fill="url(#paint58_linear_329_1351)"/>
<path d="M1026.01 410.01C1035.61 428.882 1023.79 437.937 1023.79 437.937C1023.79 437.937 1028.58 469.327 1007.4 494.38L1014.82 497.741L1020.26 499.89C1027.19 491.94 1031.67 482.152 1033.15 471.711C1034.63 461.27 1033.06 450.624 1028.61 441.06C1032.3 436.561 1034.09 430.804 1033.6 425.008C1033.12 419.212 1030.4 413.833 1026.01 410.01Z" fill="#34735C"/>
<path d="M1026.14 417.054L1018.36 410.772C1017.7 410.232 1017.15 409.568 1016.75 408.817C1016.35 408.065 1016.09 407.242 1016.01 406.393C1015.92 405.545 1016.01 404.688 1016.25 403.871C1016.5 403.055 1016.9 402.294 1017.44 401.634C1018.53 400.296 1020.1 399.443 1021.81 399.262C1023.52 399.082 1025.23 399.588 1026.57 400.67L1034.35 406.952C1035.02 407.488 1035.58 408.152 1035.99 408.905C1036.4 409.658 1036.66 410.486 1036.75 411.34C1036.84 412.194 1036.76 413.058 1036.52 413.881C1036.27 414.704 1035.87 415.47 1035.32 416.135C1034.78 416.801 1034.12 417.354 1033.36 417.761C1032.6 418.168 1031.78 418.421 1030.92 418.506C1030.07 418.592 1029.21 418.507 1028.39 418.258C1027.57 418.009 1026.8 417.599 1026.14 417.054Z" fill="#21013C"/>
<path d="M1028.42 441.584C1020.96 438.965 1014.06 434.978 1008.07 429.829C996.424 420.039 994.294 412.251 994.211 411.93L995.267 411.655C995.267 411.728 997.425 419.451 1008.77 429.002C1014.65 434.053 1021.42 437.965 1028.73 440.537L1028.42 441.584Z" fill="white"/>
<path opacity="0.38" d="M944.461 427.872C960.073 414.85 978.845 415.649 991.692 417.77C991.692 417.77 962.305 428.634 954.039 442.033L944.461 427.872Z" fill="white"/>
</g>
<defs>
<linearGradient id="paint0_linear_329_1351" x1="783.5" y1="-110.5" x2="781.429" y2="869.454" gradientUnits="userSpaceOnUse">
<stop stop-color="#41FB97"/>
<stop offset="0.742708" stop-color="#10DC74"/>
<stop offset="1" stop-color="#09A757"/>
</linearGradient>
<linearGradient id="paint1_linear_329_1351" x1="1316.15" y1="695.583" x2="1328.91" y2="695.583" gradientUnits="userSpaceOnUse">
<stop stop-color="white"/>
<stop offset="1" stop-color="white" stop-opacity="0.82"/>
</linearGradient>
<linearGradient id="paint2_linear_329_1351" x1="1328.91" y1="709.924" x2="1367.2" y2="709.924" gradientUnits="userSpaceOnUse">
<stop stop-color="white"/>
<stop offset="1" stop-color="white" stop-opacity="0.82"/>
</linearGradient>
<linearGradient id="paint3_linear_329_1351" x1="1329.13" y1="681.182" x2="1367.1" y2="681.182" gradientUnits="userSpaceOnUse">
<stop stop-color="white"/>
<stop offset="1" stop-color="white" stop-opacity="0.82"/>
</linearGradient>
<linearGradient id="paint4_linear_329_1351" x1="873.106" y1="185.378" x2="873.106" y2="320.358" gradientUnits="userSpaceOnUse">
<stop stop-color="#21013C"/>
<stop offset="1" stop-color="#4B1677"/>
</linearGradient>
<linearGradient id="paint5_linear_329_1351" x1="860.226" y1="359.969" x2="860.226" y2="435.521" gradientUnits="userSpaceOnUse">
<stop stop-color="white"/>
<stop offset="1" stop-color="#FFD0D0"/>
</linearGradient>
<linearGradient id="paint6_linear_329_1351" x1="857.668" y1="359.979" x2="864" y2="401.5" gradientUnits="userSpaceOnUse">
<stop stop-color="white"/>
<stop offset="1" stop-color="#FFD0D0"/>
</linearGradient>
<linearGradient id="paint7_linear_329_1351" x1="835.016" y1="694.025" x2="879.648" y2="694.025" gradientUnits="userSpaceOnUse">
<stop stop-color="#62B58B"/>
<stop offset="0.35" stop-color="#55A581"/>
<stop offset="1" stop-color="#408C70"/>
</linearGradient>
<linearGradient id="paint8_linear_329_1351" x1="999.391" y1="694.025" x2="1044.02" y2="694.025" gradientUnits="userSpaceOnUse">
<stop stop-color="#62B58B"/>
<stop offset="0.35" stop-color="#55A581"/>
<stop offset="1" stop-color="#408C70"/>
</linearGradient>
<linearGradient id="paint9_linear_329_1351" x1="830.281" y1="622.172" x2="1063.73" y2="622.172" gradientUnits="userSpaceOnUse">
<stop stop-color="#621F85"/>
<stop offset="1" stop-color="#804CD6"/>
</linearGradient>
<linearGradient id="paint10_linear_329_1351" x1="717.283" y1="499.915" x2="827.768" y2="522.394" gradientUnits="userSpaceOnUse">
<stop stop-color="#905452"/>
<stop offset="0.09" stop-color="#8B5150"/>
<stop offset="0.33" stop-color="#844C4E"/>
<stop offset="1" stop-color="#824B4D"/>
</linearGradient>
<linearGradient id="paint11_linear_329_1351" x1="699.205" y1="412.565" x2="826.335" y2="514.752" gradientUnits="userSpaceOnUse">
<stop stop-color="white"/>
<stop offset="0.79" stop-color="#E6ECF8"/>
<stop offset="1" stop-color="#DEE6F6"/>
</linearGradient>
<linearGradient id="paint12_linear_329_1351" x1="826.766" y1="498.23" x2="737.281" y2="617.7" gradientUnits="userSpaceOnUse">
<stop stop-color="#B2A5D9"/>
<stop offset="0.61" stop-color="#EBE9F5"/>
</linearGradient>
<linearGradient id="paint13_linear_329_1351" x1="910.676" y1="330.361" x2="899.711" y2="505.2" gradientUnits="userSpaceOnUse">
<stop stop-color="white"/>
<stop offset="0.79" stop-color="#E6ECF8"/>
<stop offset="1" stop-color="#DEE6F6"/>
</linearGradient>
<linearGradient id="paint14_linear_329_1351" x1="879.039" y1="500.434" x2="987.112" y2="604.485" gradientUnits="userSpaceOnUse">
<stop stop-color="#EBE9F5"/>
<stop offset="0.09" stop-color="#DFDBEF"/>
<stop offset="0.29" stop-color="#CBC3E5"/>
<stop offset="0.49" stop-color="#BDB2DE"/>
<stop offset="0.72" stop-color="#B5A8DA"/>
<stop offset="1" stop-color="#B2A5D9"/>
</linearGradient>
<linearGradient id="paint15_linear_329_1351" x1="891.511" y1="407.799" x2="837.07" y2="452.707" gradientUnits="userSpaceOnUse">
<stop stop-color="#EBE9F5"/>
<stop offset="1" stop-color="#B2A5D9"/>
</linearGradient>
<linearGradient id="paint16_linear_329_1351" x1="754.439" y1="580.01" x2="805.941" y2="580.01" gradientUnits="userSpaceOnUse">
<stop stop-color="#B1401C"/>
<stop offset="0.82" stop-color="#D0662D"/>
<stop offset="1" stop-color="#D76F31"/>
</linearGradient>
<linearGradient id="paint17_linear_329_1351" x1="710.326" y1="606.229" x2="826.04" y2="606.229" gradientUnits="userSpaceOnUse">
<stop stop-color="#B1401C"/>
<stop offset="0.82" stop-color="#D0662D"/>
<stop offset="1" stop-color="#D76F31"/>
</linearGradient>
<linearGradient id="paint18_linear_329_1351" x1="835.536" y1="428.83" x2="942.872" y2="394.409" gradientUnits="userSpaceOnUse">
<stop stop-color="#FFFDFD"/>
<stop offset="0.83" stop-color="#E6ECE7"/>
<stop offset="1" stop-color="#E0E8E2"/>
</linearGradient>
<linearGradient id="paint19_linear_329_1351" x1="834.698" y1="423.39" x2="928.506" y2="393.308" gradientUnits="userSpaceOnUse">
<stop stop-color="#B2A5D9"/>
<stop offset="0.61" stop-color="#EBE9F5"/>
</linearGradient>
<linearGradient id="paint20_linear_329_1351" x1="835.496" y1="258.086" x2="835.496" y2="402.27" gradientUnits="userSpaceOnUse">
<stop stop-color="white"/>
<stop offset="1" stop-color="#FFB9B9"/>
</linearGradient>
<linearGradient id="paint21_linear_329_1351" x1="838.453" y1="258.076" x2="838.453" y2="402.277" gradientUnits="userSpaceOnUse">
<stop stop-color="white"/>
<stop offset="1" stop-color="#FF9999"/>
</linearGradient>
<linearGradient id="paint22_linear_329_1351" x1="855.119" y1="333.449" x2="910.182" y2="327.817" gradientUnits="userSpaceOnUse">
<stop stop-color="#C36867"/>
<stop offset="0.36" stop-color="#C06766"/>
<stop offset="0.6" stop-color="#B86462"/>
<stop offset="0.8" stop-color="#A95E5C"/>
<stop offset="0.97" stop-color="#945654"/>
<stop offset="1" stop-color="#905452"/>
</linearGradient>
<linearGradient id="paint23_linear_329_1351" x1="887.516" y1="332.018" x2="898.844" y2="330.86" gradientUnits="userSpaceOnUse">
<stop stop-color="#905452"/>
<stop offset="0.09" stop-color="#8B5150"/>
<stop offset="0.33" stop-color="#844C4E"/>
<stop offset="1" stop-color="#824B4D"/>
</linearGradient>
<linearGradient id="paint24_linear_329_1351" x1="756.467" y1="428.734" x2="756.467" y2="632.217" gradientUnits="userSpaceOnUse">
<stop stop-color="white"/>
<stop offset="1" stop-color="#FFD0D0"/>
</linearGradient>
<linearGradient id="paint25_linear_329_1351" x1="706.863" y1="501.291" x2="753.786" y2="510.837" gradientUnits="userSpaceOnUse">
<stop stop-color="#C36867"/>
<stop offset="0.36" stop-color="#C06766"/>
<stop offset="0.6" stop-color="#B86462"/>
<stop offset="0.8" stop-color="#A95E5C"/>
<stop offset="0.97" stop-color="#945654"/>
<stop offset="1" stop-color="#905452"/>
</linearGradient>
<linearGradient id="paint26_linear_329_1351" x1="756.549" y1="364.497" x2="756.549" y2="445.671" gradientUnits="userSpaceOnUse">
<stop stop-color="white"/>
<stop offset="1" stop-color="#FFD0D0"/>
</linearGradient>
<linearGradient id="paint27_linear_329_1351" x1="783.491" y1="389.164" x2="783.491" y2="432.189" gradientUnits="userSpaceOnUse">
<stop stop-color="white"/>
<stop offset="1" stop-color="#FFD0D0"/>
</linearGradient>
<linearGradient id="paint28_linear_329_1351" x1="706.5" y1="435" x2="823" y2="379.5" gradientUnits="userSpaceOnUse">
<stop stop-color="#B72C3B"/>
<stop offset="1" stop-color="#ED727F"/>
</linearGradient>
<linearGradient id="paint29_linear_329_1351" x1="756.691" y1="362.394" x2="756.691" y2="409.521" gradientUnits="userSpaceOnUse">
<stop stop-color="white"/>
<stop offset="1" stop-color="#FFD0D0"/>
</linearGradient>
<linearGradient id="paint30_linear_329_1351" x1="757.609" y1="375.94" x2="757.609" y2="409.464" gradientUnits="userSpaceOnUse">
<stop stop-color="white"/>
<stop offset="1" stop-color="#FFD0D0"/>
</linearGradient>
<linearGradient id="paint31_linear_329_1351" x1="741.18" y1="373.908" x2="752.366" y2="376.184" gradientUnits="userSpaceOnUse">
<stop stop-color="#905452"/>
<stop offset="0.09" stop-color="#8B5150"/>
<stop offset="0.33" stop-color="#844C4E"/>
<stop offset="1" stop-color="#824B4D"/>
</linearGradient>
<linearGradient id="paint32_linear_329_1351" x1="753.64" y1="369.922" x2="763.908" y2="372.011" gradientUnits="userSpaceOnUse">
<stop stop-color="#905452"/>
<stop offset="0.09" stop-color="#8B5150"/>
<stop offset="0.33" stop-color="#844C4E"/>
<stop offset="1" stop-color="#824B4D"/>
</linearGradient>
<linearGradient id="paint33_linear_329_1351" x1="767.513" y1="368.508" x2="776.512" y2="370.339" gradientUnits="userSpaceOnUse">
<stop stop-color="#905452"/>
<stop offset="0.09" stop-color="#8B5150"/>
<stop offset="0.33" stop-color="#844C4E"/>
<stop offset="1" stop-color="#824B4D"/>
</linearGradient>
<linearGradient id="paint34_linear_329_1351" x1="719.77" y1="445.571" x2="890.063" y2="570.046" gradientUnits="userSpaceOnUse">
<stop stop-color="white"/>
<stop offset="0.79" stop-color="#E6ECF8"/>
<stop offset="1" stop-color="#DEE6F6"/>
</linearGradient>
<linearGradient id="paint35_linear_329_1351" x1="839.498" y1="551" x2="1012" y2="568" gradientUnits="userSpaceOnUse">
<stop stop-color="white"/>
<stop offset="1" stop-color="#FFD0D0"/>
</linearGradient>
<linearGradient id="paint36_linear_329_1351" x1="828.54" y1="567.827" x2="828.54" y2="628.543" gradientUnits="userSpaceOnUse">
<stop stop-color="white"/>
<stop offset="1" stop-color="#FFD0D0"/>
</linearGradient>
<linearGradient id="paint37_linear_329_1351" x1="761.093" y1="552.407" x2="975.006" y2="595.928" gradientUnits="userSpaceOnUse">
<stop stop-color="#C36867"/>
<stop offset="0.36" stop-color="#C06766"/>
<stop offset="0.6" stop-color="#B86462"/>
<stop offset="0.8" stop-color="#A95E5C"/>
<stop offset="0.97" stop-color="#945654"/>
<stop offset="1" stop-color="#905452"/>
</linearGradient>
<linearGradient id="paint38_linear_329_1351" x1="945.535" y1="490.607" x2="849.556" y2="355.396" gradientUnits="userSpaceOnUse">
<stop stop-color="#DEE6F6"/>
<stop offset="0.21" stop-color="#E6ECF8"/>
<stop offset="1" stop-color="white"/>
</linearGradient>
<linearGradient id="paint39_linear_329_1351" x1="916.938" y1="480.817" x2="1007.12" y2="480.817" gradientUnits="userSpaceOnUse">
<stop stop-color="#EBE9F5"/>
<stop offset="0.24" stop-color="#D5CEEA"/>
<stop offset="0.51" stop-color="#C2B8E1"/>
<stop offset="0.77" stop-color="#B6AADB"/>
<stop offset="1" stop-color="#B2A5D9"/>
</linearGradient>
<linearGradient id="paint40_linear_329_1351" x1="827.488" y1="261.209" x2="895.356" y2="261.209" gradientUnits="userSpaceOnUse">
<stop stop-color="#62B58B"/>
<stop offset="0.15" stop-color="#54A480"/>
<stop offset="0.34" stop-color="#499777"/>
<stop offset="0.58" stop-color="#428E72"/>
<stop offset="1" stop-color="#408C70"/>
</linearGradient>
<linearGradient id="paint41_linear_329_1351" x1="840.991" y1="232.815" x2="840.991" y2="321.187" gradientUnits="userSpaceOnUse">
<stop stop-color="#21013C"/>
<stop offset="1" stop-color="#54217F"/>
</linearGradient>
<linearGradient id="paint42_linear_329_1351" x1="517.807" y1="635.864" x2="669.365" y2="396.648" gradientUnits="userSpaceOnUse">
<stop stop-color="#FFD2AC"/>
<stop offset="1" stop-color="#E73F46"/>
</linearGradient>
<linearGradient id="paint43_linear_329_1351" x1="433.449" y1="543.762" x2="716.499" y2="543.762" gradientUnits="userSpaceOnUse">
<stop offset="0.39" stop-color="#EBE9F5"/>
<stop offset="1" stop-color="#B2A5D9"/>
</linearGradient>
<linearGradient id="paint44_linear_329_1351" x1="497.417" y1="645.748" x2="629.029" y2="603.542" gradientUnits="userSpaceOnUse">
<stop stop-color="#FFFDFD"/>
<stop offset="0.83" stop-color="#E6ECE7"/>
<stop offset="1" stop-color="#E0E8E2"/>
</linearGradient>
<linearGradient id="paint45_linear_329_1351" x1="551.45" y1="541.502" x2="590.903" y2="541.502" gradientUnits="userSpaceOnUse">
<stop stop-color="white"/>
<stop offset="0.79" stop-color="#E6ECF8"/>
<stop offset="1" stop-color="#DEE6F6"/>
</linearGradient>
<linearGradient id="paint46_linear_329_1351" x1="516.5" y1="321" x2="625" y2="210" gradientUnits="userSpaceOnUse">
<stop stop-color="#DBACF4" stop-opacity="0.94"/>
<stop offset="1" stop-color="#804CD6"/>
</linearGradient>
<linearGradient id="paint47_linear_329_1351" x1="652.5" y1="361" x2="596" y2="268" gradientUnits="userSpaceOnUse">
<stop stop-color="white" stop-opacity="0.26"/>
<stop offset="0.79" stop-color="#E6ECF8"/>
<stop offset="1" stop-color="#DEE6F6"/>
</linearGradient>
<linearGradient id="paint48_linear_329_1351" x1="1034.88" y1="290.274" x2="1034.88" y2="316.344" gradientUnits="userSpaceOnUse">
<stop stop-color="#21013C"/>
<stop offset="1" stop-color="#67378F"/>
</linearGradient>
<linearGradient id="paint49_linear_329_1351" x1="321" y1="633.999" x2="1291" y2="638.999" gradientUnits="userSpaceOnUse">
<stop stop-color="#684883"/>
<stop offset="1" stop-color="#C8A8E3"/>
</linearGradient>
<linearGradient id="paint50_linear_329_1351" x1="1085.56" y1="555.349" x2="1019.87" y2="551.452" gradientUnits="userSpaceOnUse">
<stop stop-color="#DEE6F6"/>
<stop offset="0.21" stop-color="#E6ECF8"/>
<stop offset="1" stop-color="white"/>
</linearGradient>
<linearGradient id="paint51_linear_329_1351" x1="1057.44" y1="558.148" x2="1123.99" y2="558.148" gradientUnits="userSpaceOnUse">
<stop stop-color="#EBE9F5"/>
<stop offset="0.24" stop-color="#D5CEEA"/>
<stop offset="0.51" stop-color="#C2B8E1"/>
<stop offset="0.77" stop-color="#B6AADB"/>
<stop offset="1" stop-color="#B2A5D9"/>
</linearGradient>
<linearGradient id="paint52_linear_329_1351" x1="1055.8" y1="624.357" x2="1055.8" y2="639.335" gradientUnits="userSpaceOnUse">
<stop stop-color="#21013C"/>
<stop offset="1" stop-color="#3F0B6B"/>
</linearGradient>
<linearGradient id="paint53_linear_329_1351" x1="1060.71" y1="615.412" x2="1060.71" y2="630.391" gradientUnits="userSpaceOnUse">
<stop stop-color="#21013C"/>
<stop offset="1" stop-color="#56138E"/>
</linearGradient>
<linearGradient id="paint54_linear_329_1351" x1="1071.7" y1="462.185" x2="1078.9" y2="400.36" gradientUnits="userSpaceOnUse">
<stop stop-color="#DEE6F6"/>
<stop offset="0.21" stop-color="#E6ECF8"/>
<stop offset="1" stop-color="white"/>
</linearGradient>
<linearGradient id="paint55_linear_329_1351" x1="1020.53" y1="467.788" x2="1114.88" y2="467.788" gradientUnits="userSpaceOnUse">
<stop stop-color="#B2A5D9"/>
<stop offset="0.23" stop-color="#B6AADB"/>
<stop offset="0.49" stop-color="#C2B8E1"/>
<stop offset="0.76" stop-color="#D5CEEA"/>
<stop offset="1" stop-color="#EBE9F5"/>
</linearGradient>
<linearGradient id="paint56_linear_329_1351" x1="1109.42" y1="487.271" x2="1132.93" y2="460.19" gradientUnits="userSpaceOnUse">
<stop stop-color="#62B58B"/>
<stop offset="0.35" stop-color="#55A581"/>
<stop offset="1" stop-color="#408C70"/>
</linearGradient>
<linearGradient id="paint57_linear_329_1351" x1="986.63" y1="427.459" x2="1027.24" y2="532.786" gradientUnits="userSpaceOnUse">
<stop stop-color="#62B58B"/>
<stop offset="0.15" stop-color="#54A480"/>
<stop offset="0.34" stop-color="#499777"/>
<stop offset="0.58" stop-color="#428E72"/>
<stop offset="1" stop-color="#408C70"/>
</linearGradient>
<linearGradient id="paint58_linear_329_1351" x1="994.867" y1="423.087" x2="1033.68" y2="423.087" gradientUnits="userSpaceOnUse">
<stop offset="1" stop-color="#408C70"/>
</linearGradient>
<clipPath id="clip0_329_1351">
<rect width="1600" height="760" fill="white"/>
</clipPath>
<clipPath id="clip1_329_1351">
<rect width="243.087" height="57.5294" fill="white" transform="translate(1316.15 666.735)"/>
</clipPath>
</defs>
</svg>
