<svg width="1600" height="760" viewBox="0 0 1600 760" fill="none" xmlns="http://www.w3.org/2000/svg">
<g clip-path="url(#clip0_333_1920)">
<rect width="1600" height="760" fill="white"/>
<rect width="1600" height="760" fill="url(#paint0_linear_333_1920)"/>
<g clip-path="url(#clip1_333_1920)">
<path d="M1391.38 704.81C1389.79 704.857 1388.22 704.457 1386.84 703.655C1385.58 702.88 1384.57 701.757 1383.94 700.421C1383.24 698.917 1382.89 697.273 1382.93 695.614C1382.89 693.954 1383.24 692.308 1383.94 690.802C1384.57 689.467 1385.58 688.344 1386.84 687.569C1388.22 686.767 1389.79 686.366 1391.38 686.413C1393.2 686.347 1394.99 686.882 1396.47 687.938C1397.84 688.968 1398.85 690.409 1399.35 692.052L1396.37 692.875C1396.08 691.814 1395.47 690.87 1394.61 690.177C1393.68 689.496 1392.53 689.158 1391.38 689.219C1390.33 689.18 1389.3 689.458 1388.41 690.015C1387.61 690.568 1386.99 691.352 1386.64 692.264C1386.22 693.342 1386.01 694.49 1386.03 695.645C1386.01 696.799 1386.21 697.947 1386.62 699.023C1386.98 699.938 1387.61 700.722 1388.42 701.271C1389.31 701.828 1390.34 702.106 1391.39 702.067C1392.54 702.118 1393.68 701.772 1394.61 701.087C1395.46 700.393 1396.07 699.449 1396.36 698.389L1399.35 699.171C1398.85 700.812 1397.85 702.253 1396.49 703.286C1395 704.345 1393.2 704.881 1391.38 704.81Z" fill="white"/>
<path d="M1402.59 704.446V686.778H1409.89C1410.06 686.778 1410.28 686.778 1410.55 686.778C1410.8 686.789 1411.05 686.816 1411.3 686.859C1412.22 686.973 1413.09 687.325 1413.84 687.879C1414.5 688.396 1415.01 689.079 1415.32 689.858C1415.65 690.705 1415.81 691.607 1415.8 692.516C1415.84 693.836 1415.46 695.134 1414.71 696.226C1414.32 696.759 1413.81 697.204 1413.24 697.534C1412.66 697.865 1412.02 698.073 1411.36 698.146L1410.1 698.254H1405.55V704.446H1402.59ZM1405.55 695.515H1409.77C1409.93 695.515 1410.11 695.515 1410.32 695.488C1410.51 695.476 1410.7 695.442 1410.88 695.389C1411.33 695.297 1411.73 695.071 1412.04 694.742C1412.32 694.44 1412.53 694.079 1412.65 693.685C1412.76 693.312 1412.82 692.924 1412.82 692.534C1412.82 692.141 1412.76 691.75 1412.65 691.374C1412.53 690.978 1412.32 690.615 1412.04 690.312C1411.73 689.986 1411.32 689.762 1410.88 689.669C1410.7 689.622 1410.51 689.591 1410.32 689.579C1410.11 689.579 1409.93 689.579 1409.77 689.579H1405.55V695.515ZM1412.74 704.446L1409.26 697.251L1412.27 696.59L1416.09 704.442L1412.74 704.446Z" fill="white"/>
<path d="M1419.35 704.446V686.778H1430.76V689.552H1422.3V693.905H1429.28V696.68H1422.3V701.672H1430.76V704.446H1419.35Z" fill="white"/>
<path d="M1433.04 704.446L1438.61 686.778H1442.94L1448.51 704.446H1445.46L1440.41 688.595H1441.08L1436.08 704.446H1433.04ZM1436.14 700.615V697.858H1445.41V700.615H1436.14Z" fill="white"/>
<path d="M1454.05 704.446V689.552H1448.34V686.778H1462.73V689.552H1457.01V704.446H1454.05Z" fill="white"/>
<path d="M1465.5 704.446V686.778H1468.45V704.446H1465.5Z" fill="white"/>
<path d="M1476.7 704.446L1471.11 686.778H1474.15L1478.81 701.573L1483.53 686.778H1486.59L1481 704.446H1476.7Z" fill="white"/>
<path d="M1488.97 704.446V686.778H1500.38V689.552H1491.93V693.905H1498.91V696.68H1491.93V701.672H1500.38V704.446H1488.97Z" fill="white"/>
<path d="M1504.12 704.446V686.778H1507.08V704.446H1504.12Z" fill="white"/>
<path d="M1515.58 704.446V689.552H1509.87V686.778H1524.26V689.552H1518.54V704.446H1515.58Z" fill="white"/>
<path d="M1526.78 704.446V686.778H1538.19V689.552H1529.76V693.905H1536.74V696.68H1529.76V701.672H1538.21V704.446H1526.78Z" fill="white"/>
<path d="M1541.7 704.446V686.778H1544.37L1550.47 699.293L1556.58 686.778H1559.24V704.446H1556.48V693.123L1551.06 704.446H1549.88L1544.49 693.123V704.446H1541.7Z" fill="white"/>
<path d="M1341.68 710.319L1328.91 702.949V717.685L1341.68 710.319Z" fill="white" fill-opacity="0.48"/>
<path d="M1367.2 695.583L1354.43 688.217V702.949L1367.2 695.583Z" fill="white" fill-opacity="0.47"/>
<path d="M1341.68 680.846L1328.91 673.48V688.217L1341.68 680.846Z" fill="white" fill-opacity="0.48"/>
<path d="M1328.91 673.48L1318.71 679.376C1317.93 679.822 1317.28 680.466 1316.84 681.243C1316.39 682.019 1316.15 682.9 1316.15 683.796V707.369C1316.15 708.266 1316.39 709.148 1316.84 709.924C1317.28 710.701 1317.93 711.346 1318.71 711.794L1328.91 717.685V673.48Z" fill="url(#paint1_linear_333_1920)"/>
<path d="M1367.2 707.369V695.583L1328.91 717.685L1339.12 723.581C1339.9 724.029 1340.78 724.265 1341.67 724.265C1342.57 724.265 1343.45 724.029 1344.23 723.581L1364.65 711.794C1365.42 711.345 1366.07 710.7 1366.51 709.923C1366.96 709.146 1367.2 708.266 1367.2 707.369Z" fill="url(#paint2_linear_333_1920)"/>
<path d="M1344.32 667.634C1343.55 667.19 1342.68 666.956 1341.79 666.956C1340.9 666.956 1340.03 667.19 1339.26 667.634L1329.13 673.48L1367.1 695.407V683.715C1367.1 682.826 1366.87 681.952 1366.42 681.182C1365.98 680.411 1365.34 679.771 1364.57 679.326L1344.32 667.634Z" fill="url(#paint3_linear_333_1920)"/>
</g>
<path d="M980.017 459.328C976.719 468.537 972.766 477.498 968.189 486.142C959.985 501.729 949.723 516.71 937.903 530.561C925.216 545.427 910.897 558.819 895.215 570.484C825.732 622.061 732.897 635.384 670.09 554.569C659.7 541.197 655.592 527.774 654.711 513.942C653.956 502.025 655.602 489.774 657.691 476.963C658.319 473.079 658.991 469.144 659.649 465.152C663.15 443.905 663.087 422.223 659.465 400.996C656.574 383.938 651.272 367.378 643.718 351.813C616.541 296.135 555.514 272.997 554.647 203.598C553.64 122.057 626.069 69.9513 700.384 62.6709C779.583 54.9112 862.269 82.478 920.206 138.123C927.214 144.845 933.83 151.964 940.021 159.444C1008.98 242.741 1015.32 360.296 980.017 459.328Z" fill="#F4F4F5" fill-opacity="0.16"/>
<path d="M937.902 530.545C925.215 545.412 910.895 558.803 895.214 570.468C825.731 622.045 732.895 635.368 670.089 554.553C659.699 541.181 655.59 527.758 654.71 513.926C653.955 502.009 655.601 489.759 657.689 476.948C658.318 473.064 658.99 469.128 659.648 465.136C663.148 443.889 663.086 422.207 659.464 400.98C688.653 403.069 716.967 410.13 739.542 420.725C788.763 443.831 827.467 485.086 875.965 509.674C895.509 519.551 916.366 526.58 937.902 530.545Z" fill="#ECEDEF" fill-opacity="0.2"/>
<path d="M968.188 486.14C951.198 518.411 925.411 548.05 895.214 570.468C825.731 622.045 732.895 635.368 670.089 554.553C659.699 541.181 655.59 527.758 654.71 513.926C653.955 502.009 655.601 489.758 657.689 476.947C695.302 462.522 745.739 466.95 778.655 472.397C825.081 480.081 870.859 494.246 918.35 493.128C935.175 492.718 951.898 490.373 968.188 486.14Z" fill="#E1E3E6" fill-opacity="0.2"/>
<path d="M895.215 570.467C825.732 622.045 732.896 635.367 670.09 554.552C659.7 541.181 655.591 527.757 654.711 513.925C671.736 509.492 690.273 508.779 707.686 511.528C750.927 518.362 786.388 547.072 827.313 560.668C849.526 568.046 872.274 570.874 895.215 570.467Z" fill="#D4D8DC" fill-opacity="0.2"/>
<path d="M935.786 556.963C935.457 556.963 935.134 556.87 934.856 556.693C934.578 556.517 934.357 556.265 934.217 555.967C934.078 555.668 934.027 555.337 934.069 555.01C934.112 554.684 934.247 554.377 934.459 554.124C970.436 511.023 994.921 459.52 1005.63 404.408C1005.74 403.972 1006 403.592 1006.38 403.347C1006.75 403.103 1007.21 403.014 1007.65 403.099C1008.09 403.184 1008.48 403.436 1008.74 403.803C1008.99 404.169 1009.1 404.621 1009.03 405.064C998.204 460.747 973.465 512.785 937.116 556.334C936.954 556.53 936.751 556.688 936.521 556.797C936.291 556.905 936.04 556.962 935.786 556.963Z" fill="#ECEDEF" fill-opacity="0.2"/>
<path d="M799.17 586.307L787.741 595.607L780.769 601.274C780.769 601.274 778.819 598.703 776.243 595.372C771.59 589.351 764.884 580.852 763.977 580.627L778.963 552.034L796.595 581.946L799.17 586.307Z" fill="#6A8295"/>
<path d="M809.856 604.639L803.627 612.345L795.68 627.721C795.48 628.111 795.271 628.498 795.063 628.88L795.049 628.907C794.859 629.248 794.673 629.587 794.472 629.925C794.445 629.982 794.41 630.045 794.377 630.101C794.004 630.743 793.622 631.377 793.226 631.997C793.126 632.163 793.02 632.328 792.912 632.488C792.747 632.745 792.582 632.997 792.414 633.249C792.143 633.66 791.872 634.061 791.579 634.467C791.344 634.792 791.114 635.117 790.875 635.44C790.824 635.513 790.772 635.589 790.715 635.656C790.499 635.949 790.277 636.239 790.052 636.526C790.044 636.543 790.031 636.558 790.017 636.569C790.01 636.58 790.003 636.59 789.995 636.599C789.537 637.181 789.074 637.758 788.6 638.322C788.572 638.359 788.541 638.396 788.508 638.43L787.793 639.259L787.127 640.004C787.059 640.085 786.986 640.163 786.91 640.242L786.219 640.976C786.008 641.201 785.791 641.423 785.572 641.645C784.649 642.584 783.693 643.487 782.704 644.353C782.533 644.505 782.36 644.654 782.189 644.8C781.171 645.678 780.12 646.52 779.037 647.327C778.804 647.501 778.568 647.677 778.33 647.845C778.013 648.075 777.696 648.297 777.374 648.519C777.051 648.741 776.732 648.96 776.407 649.174C776.396 649.183 776.384 649.19 776.371 649.196C776.071 649.394 775.77 649.592 775.467 649.781C775.163 649.971 774.838 650.182 774.516 650.372L768.167 654.215C767.579 654.549 766.913 654.724 766.237 654.722C765.56 654.72 764.895 654.542 764.309 654.205C763.722 653.867 763.233 653.383 762.891 652.799C762.549 652.215 762.365 651.552 762.358 650.875C762.305 647.513 763.136 644.196 764.766 641.255L767.68 636.017C770.079 631.701 771.94 627.107 773.221 622.339C773.416 621.624 773.595 620.903 773.763 620.172C774.637 616.41 775.159 612.574 775.32 608.715L775.789 597.429C775.819 596.71 775.975 596.001 776.25 595.336C776.627 594.41 777.231 593.593 778.005 592.96L784.323 587.814C784.945 587.309 785.663 586.935 786.433 586.714C787.152 586.506 787.903 586.431 788.649 586.495L791.669 586.747C792.669 586.837 793.666 586.533 794.446 585.9C795.226 585.267 795.728 584.354 795.845 583.356C795.906 582.793 796.176 582.273 796.601 581.899C797.034 581.523 797.588 581.317 798.161 581.319C798.526 581.318 798.886 581.4 799.214 581.558C799.543 581.717 799.831 581.948 800.057 582.235L805.745 589.212L808.004 591.988L809.74 594.122C812.229 597.248 812.294 601.63 809.856 604.639Z" fill="#234662"/>
<path d="M788.646 586.534L787.739 595.608L786.539 607.622C786.345 609.666 785.69 611.639 784.624 613.394C783.557 615.148 782.108 616.638 780.383 617.752L774.053 621.815L773.211 622.356C773.406 621.641 773.585 620.921 773.753 620.19C774.627 616.427 775.148 612.592 775.31 608.733L775.779 597.447C775.808 596.727 775.964 596.018 776.239 595.353C776.617 594.427 777.22 593.611 777.994 592.978L784.313 587.832C784.935 587.327 785.653 586.952 786.423 586.732L788.646 586.534Z" fill="#011533"/>
<path d="M809.858 604.641L803.628 612.346L795.682 627.722C795.481 628.112 795.273 628.499 795.064 628.881L795.051 628.908C794.861 629.25 794.674 629.588 794.474 629.927C794.447 629.984 794.411 630.046 794.379 630.103C794.009 630.744 793.625 631.376 793.228 631.999C793.128 632.164 793.022 632.329 792.914 632.489C792.748 632.746 792.583 632.998 792.415 633.25C792.144 633.662 791.874 634.063 791.581 634.469C791.345 634.794 791.115 635.119 790.877 635.441C790.825 635.514 790.774 635.59 790.717 635.658C790.5 635.95 790.278 636.24 790.053 636.527C790.045 636.544 790.033 636.559 790.018 636.571C790.012 636.581 790.005 636.591 789.997 636.6C789.539 637.183 789.076 637.76 788.602 638.323C788.573 638.361 788.542 638.397 788.51 638.431L787.795 639.26L787.128 640.005C787.061 640.086 786.987 640.165 786.912 640.243C786.687 640.49 786.457 640.739 786.221 640.977C785.985 641.216 785.793 641.424 785.574 641.646C784.651 642.585 783.695 643.488 782.705 644.355C782.535 644.506 782.361 644.655 782.191 644.802C781.172 645.679 780.122 646.521 779.038 647.329C778.805 647.502 778.57 647.678 778.331 647.846C778.014 648.076 777.697 648.298 777.375 648.52C777.053 648.742 776.733 648.962 776.408 649.176C776.397 649.185 776.386 649.192 776.373 649.197C776.072 649.395 775.772 649.593 775.468 649.782C775.165 649.972 774.84 650.183 774.518 650.373L768.169 654.216C767.581 654.55 766.915 654.725 766.238 654.723C765.561 654.722 764.897 654.543 764.31 654.206C763.723 653.869 763.235 653.384 762.893 652.8C762.551 652.217 762.367 651.553 762.359 650.877C762.801 650.712 763.234 650.544 763.665 650.37C768.171 648.574 772.428 646.207 776.332 643.328C783.325 638.153 789.089 631.499 793.214 623.841C797.123 616.615 800.188 611.382 802.469 607.709C803.133 606.626 803.731 605.697 804.262 604.876C806.472 601.445 807.734 597.489 807.918 593.411L807.989 592.019L809.725 594.153C812.23 597.249 812.295 601.631 809.858 604.641Z" fill="#060D16"/>
<path opacity="0.5" d="M805.727 589.253C805.175 595.491 804.083 601.668 802.464 607.717C800.701 614.331 798.312 620.762 795.329 626.923C794.065 629.519 792.701 632.063 791.237 634.555C790.836 635.232 790.424 635.909 790.013 636.573C790.008 636.584 790.001 636.594 789.994 636.603C789.536 637.182 789.073 637.762 788.599 638.325L788.51 638.434L787.792 639.262L787.128 640.007C787.058 640.088 786.985 640.164 786.912 640.246C786.684 640.492 786.451 640.741 786.221 640.98C785.991 641.218 785.788 641.426 785.571 641.646C784.645 642.588 783.691 643.49 782.7 644.354L782.188 644.798C781.168 645.68 780.118 646.522 779.038 647.325C778.802 647.499 778.567 647.672 778.328 647.843C778.012 648.073 777.695 648.292 777.375 648.517C777.055 648.742 776.73 648.959 776.405 649.173C776.405 647.22 776.405 645.272 776.332 643.32C776.1 636.099 775.341 628.905 774.063 621.795C773.965 621.254 773.87 620.712 773.765 620.17C774.64 616.408 775.161 612.573 775.322 608.714L775.791 597.427C775.82 596.708 775.976 595.999 776.251 595.334C771.598 589.31 764.892 580.814 763.984 580.592L771.419 566.405L778.973 551.996L796.602 581.911C796.891 581.658 797.237 581.48 797.61 581.393C797.787 581.351 797.969 581.329 798.152 581.328C798.516 581.328 798.876 581.409 799.204 581.567C799.533 581.725 799.821 581.956 800.048 582.241L805.727 589.253Z" fill="#081A35"/>
<path opacity="0.67" d="M799.78 603.766C799.393 609.037 798.258 614.221 797.128 619.383C796.587 621.902 796.015 624.437 795.33 626.926C794.066 629.523 792.702 632.067 791.237 634.559C789.45 632.584 788.548 629.884 787.716 627.308C785.122 619.183 782.522 611.044 780.577 602.74C777.82 590.955 776.211 578.97 771.885 567.603C771.742 567.226 771.585 566.842 771.414 566.435L778.968 552.026L796.597 581.941C796.885 581.689 797.232 581.511 797.605 581.424C799.338 588.783 800.327 596.245 799.78 603.766Z" fill="#081A35"/>
<path d="M792.105 616.597C793.308 617.735 797.195 646.624 797.195 646.624L823.949 642.09L823.136 596.563L792.105 616.597Z" fill="#6A8295"/>
<path d="M826.919 629.861L835.072 646.006C837.19 650.202 836.155 655.266 832.591 658.121L823.461 665.434L810.419 681.143C802.489 690.721 792.066 697.919 780.301 701.944L772.013 704.774C770.977 705.115 769.853 705.068 768.849 704.642C767.845 704.217 767.029 703.442 766.553 702.461C766.083 701.536 765.943 700.479 766.155 699.463C766.944 695.572 768.74 691.956 771.363 688.976L776.038 683.673C779.893 679.301 783.198 674.474 785.881 669.299C788.39 664.477 790.353 659.389 791.734 654.132L795.125 641.242C795.376 640.259 795.834 639.341 796.468 638.549C797.102 637.758 797.898 637.111 798.803 636.651L807.383 632.318C808.227 631.891 809.148 631.64 810.092 631.581C810.973 631.52 811.858 631.622 812.703 631.881L816.118 632.935C817.249 633.291 818.475 633.192 819.534 632.659C820.594 632.126 821.404 631.201 821.792 630.08C822.613 627.767 825.79 627.621 826.919 629.861Z" fill="#234662"/>
<path d="M812.732 631.901L804.994 655.675C804.255 657.983 803.002 660.094 801.33 661.848C799.658 663.603 797.611 664.956 795.341 665.805L785.91 669.326C788.419 664.503 790.383 659.416 791.766 654.159L795.154 641.269C795.404 640.284 795.862 639.364 796.496 638.57C797.13 637.776 797.927 637.126 798.832 636.665L807.413 632.331C808.257 631.907 809.178 631.658 810.121 631.597L812.732 631.901Z" fill="#011533"/>
<path d="M833.609 643.106L835.072 646.007C837.19 650.202 836.155 655.267 832.591 658.122L823.461 665.435L810.419 681.144C802.489 690.721 792.066 697.92 780.301 701.945L772.013 704.775C770.977 705.115 769.853 705.068 768.849 704.643C767.845 704.218 767.029 703.443 766.553 702.462C766.083 701.537 765.943 700.479 766.155 699.464C766.697 699.383 767.252 699.299 767.793 699.209C783.681 696.582 798.017 688.281 808.548 676.063C816.727 666.583 822.434 660.578 826.069 656.976C829.483 653.578 831.936 649.336 833.179 644.682L833.609 643.106Z" fill="#060D16"/>
<path d="M822.906 383.453C822.873 383.553 822.841 383.658 822.805 383.759C818.564 396.643 800.103 411.867 780.055 425.22C774.709 428.781 769.254 432.208 763.921 435.423L763.379 435.742C761.609 436.808 759.86 437.846 758.13 438.857C738.028 450.628 721.103 458.805 721.103 458.805C721.684 459.248 722.216 459.752 722.69 460.308C723.045 460.698 723.397 461.091 723.738 461.486C723.995 461.779 724.252 462.071 724.504 462.366C735.506 475.156 743.48 490.391 752.943 504.272C755.401 507.87 757.814 511.5 760.183 515.16C760.896 516.26 761.602 517.361 762.301 518.464C762.438 519.114 762.577 519.767 762.718 520.422C764.614 529.379 766.854 538.753 769.191 548.027C771.499 557.182 773.915 566.236 776.252 574.681C773.859 578.492 771.204 582.132 768.306 585.575C768.056 585.944 767.699 586.228 767.282 586.387C766.469 586.615 765.708 585.881 765.158 585.228C764.312 584.213 763.455 583.205 762.588 582.203C760.849 580.191 759.075 578.205 757.266 576.244C739.39 556.876 720.702 538.271 703.503 518.239C686.686 498.655 670.441 477.174 662.876 452.139C656.446 430.859 675.914 416.388 689.419 403.72C702.42 391.532 715.753 379.691 729.214 368.012C731.549 365.984 733.888 363.963 736.232 361.947C748.149 351.674 756.575 344.627 756.575 344.627L773.132 342.13L786.182 340.155L793.887 338.993C795.874 339.736 797.816 340.595 799.702 341.566C801.92 342.684 804.073 343.925 806.151 345.285C816.543 352.078 828.821 364.518 822.906 383.453Z" fill="#1D2F49"/>
<path opacity="0.3" d="M802.96 348.441C800.04 351.758 796.804 356.566 793.448 362.416C784.315 378.334 777.23 395.519 771.122 412.794C768.582 419.987 764.996 428.259 763.39 435.745C761.62 436.811 759.87 437.849 758.14 438.86C738.038 450.631 721.113 458.808 721.113 458.808C725.774 462.023 746.692 494.793 758.893 514.269C753.793 509.814 749.755 503.977 745.914 498.289C737.592 485.98 729.266 473.672 720.934 461.365C720.566 460.823 720.181 460.246 720.108 459.591C719.957 458.285 721.026 457.191 722.004 456.311C732.7 446.725 743.358 436.756 750.763 424.448C756.93 414.205 761.025 401.575 759.392 389.509C757.897 378.469 747.954 375.967 738.409 373.48C734.617 372.492 731.367 370.547 729.241 368.012C731.576 365.984 733.915 363.963 736.259 361.948C748.176 351.675 756.602 344.627 756.602 344.627L773.159 342.13C784.023 343.549 794.575 346.32 802.375 348.284L802.96 348.441Z" fill="#081A35"/>
<path d="M877.271 339.002V387.846C877.271 398.75 873.939 409.394 867.721 418.352L867.548 418.601L861.156 427.81C854.24 437.338 847.303 446.85 840.344 456.346C835.001 463.646 829.636 470.933 824.248 478.206C822.666 480.343 821.046 482.399 819.516 484.482C815.851 489.479 812.707 494.609 811.843 501.223C811.182 506.28 812.861 510.526 813.519 515.459C814.061 519.521 814.627 523.565 815.191 527.617C816.507 537.021 817.84 546.419 819.118 555.823C820.667 567.182 822.279 578.536 823.451 589.949C824.026 595.526 824.513 601.116 824.806 606.715C824.99 610.155 825.922 615.092 822.585 617.343C821.046 618.38 819.107 618.578 817.257 618.749C809.419 619.461 801.153 621.045 793.29 620.929C788.003 620.853 788.247 615.937 786.939 611.617C783.228 599.353 779.667 587.046 776.256 574.695C773.919 566.25 771.503 557.196 769.195 548.041C766.858 538.768 764.629 529.394 762.722 520.437C762.581 519.781 762.442 519.128 762.305 518.478C758.995 502.723 756.718 488.414 756.588 478.48C756.439 467.104 759.328 451.734 763.9 435.437C769.233 432.222 774.688 428.796 780.035 425.234C800.077 411.881 818.544 396.657 822.785 383.773C822.82 383.673 822.853 383.567 822.885 383.467C828.801 364.532 816.523 352.092 806.161 345.307C806.461 345.066 806.759 344.847 807.046 344.649C808.161 343.904 809.339 343.258 810.567 342.718C830.307 333.867 877.271 339.002 877.271 339.002Z" fill="#1D2F49"/>
<path d="M822.907 383.453C822.874 383.553 822.842 383.659 822.807 383.759C818.565 396.643 800.104 411.867 780.056 425.22C774.71 428.782 769.255 432.208 763.922 435.423C769.355 416.074 777.166 395.413 785.105 378.578C787.903 372.641 790.717 367.18 793.45 362.419C796.594 356.929 799.633 352.373 802.388 349.09L802.948 348.443C803.93 347.304 805.007 346.251 806.169 345.296C816.545 352.078 828.822 364.518 822.907 383.453Z" fill="#1D2F49"/>
<path opacity="0.3" d="M877.273 366.94V387.846C877.273 398.75 873.941 409.394 867.723 418.352L867.55 418.601C867.403 417.326 867.185 416.06 866.897 414.809C865.432 408.506 861.597 402.404 855.635 399.885C848.436 396.844 840.197 399.574 832.405 398.994C823.196 398.304 814.992 392.998 807.815 387.185C804.318 384.36 800.432 380.904 796.087 379.48C792.81 378.396 788.915 379.973 786.006 378.971C785.692 378.864 785.389 378.728 785.102 378.564C787.899 372.627 790.714 367.167 793.446 362.406C796.591 356.916 799.63 352.36 802.384 349.077C804.873 348.573 807.396 348.257 809.933 348.129C824.515 347.355 839.095 350.296 852.968 354.873C861.451 357.666 869.855 361.13 876.891 366.631L877.273 366.94Z" fill="#081A35"/>
<path opacity="0.35" d="M834.639 167.339C833.786 167.756 832.911 168.151 832.082 168.628C831.483 168.965 830.805 169.134 830.118 169.118C829.432 169.103 828.762 168.903 828.179 168.539C827.692 168.238 827.169 167.967 826.698 167.664C824.658 166.35 823.315 164.143 822.573 161.841C821.83 159.538 821.63 157.087 821.432 154.671C820.077 156.966 819.274 159.544 819.086 162.202C818.898 164.86 819.33 167.525 820.349 169.988C821.216 172.033 822.48 173.899 823.214 175.995C824 178.238 824.146 180.654 824.282 183.018C824.297 183.419 824.396 183.812 824.571 184.172C825.46 185.895 827.572 185.239 829.067 184.465C832.369 182.75 835.633 180.881 838.379 178.37C840.719 176.231 842.631 173.669 844.527 171.125C847.753 166.792 851.109 162.266 852.488 156.96C853.571 152.746 850.353 156.204 848.988 157.475C844.711 161.447 839.875 164.77 834.633 167.339H834.639Z" fill="#FF888A"/>
<path opacity="0.5" d="M877.275 363.345V380.761C875.832 382.214 874.19 383.457 872.4 384.452C869.052 386.245 865.203 386.822 861.436 387.293C850.236 388.707 838.85 389.487 827.672 387.878C825.624 387.583 823.582 387.201 821.559 386.733C812.54 384.631 803.919 380.747 797.02 374.629C796.373 374.054 795.72 373.429 795.439 372.616C795.124 371.722 795.306 370.739 795.227 369.791C795.046 367.624 793.494 365.896 791.528 364.9C790.661 364.461 789.727 364.171 788.765 364.044C785.672 363.64 782.59 364.615 779.597 365.504C770.645 368.158 761.342 370.108 752.024 369.515C746.245 369.141 738.894 367.5 733.027 364.428C745.215 353.92 753.839 346.71 753.839 346.71L784.12 342.138L797.955 343.579C801.654 343.963 805.356 344.35 809.059 344.738C810.684 344.903 812.31 345.074 813.935 345.244C824.498 346.344 835.145 347.457 845.337 350.477C856.333 353.741 866.595 359.171 877.275 363.345Z" fill="#081A35"/>
<path d="M781.532 288.568C780.01 278.885 777.342 269.375 776.275 259.647C776.183 258.802 776.103 257.958 776.034 257.117C775.479 250.075 775.883 243.033 776.806 236.037C777.226 232.857 777.749 229.691 778.342 226.557C780.668 214.18 784.03 201.967 788.807 190.299C791.171 184.477 793.908 178.814 797 173.344C799.522 168.902 801.153 163.959 806.353 162.822L806.71 162.74C810.134 161.906 814.454 159.344 817.336 161.386C817.412 161.44 817.487 161.497 817.561 161.56C817.798 161.754 818.016 161.972 818.211 162.21C819.616 163.916 820.055 167.916 820.719 169.994C822.239 174.793 823.758 179.591 825.277 184.386L825.364 184.657L825.721 184.435L845.512 172.331C845.512 172.331 855.766 164.923 856.05 164.723C857.367 163.77 859.227 164.723 860.842 166.01C861.503 166.548 862.131 167.127 862.721 167.743C863.103 168.138 863.428 168.509 863.683 168.826C864.23 169.541 864.823 170.219 865.457 170.858C867.662 172.9 866.54 173.81 865.999 176.361C865.676 177.824 865.411 179.303 865.116 180.771C864.433 184.162 863.756 187.557 863.084 190.957C861.936 196.703 860.788 202.449 859.642 208.197L858.158 215.591C854.395 234.48 850.643 253.369 846.901 272.26C845.314 280.272 843.731 288.286 842.153 296.303C840.826 303.047 839.049 309.696 837.917 316.44C836.249 326.375 836.563 330.432 828.351 337.412C821.675 343.1 816.13 349.66 807.274 351.943C799.595 353.885 791.463 352.79 784.571 348.885C783.802 348.444 783.017 347.932 782.605 347.144C782.223 346.41 782.223 345.543 782.231 344.706C782.323 336.223 781.616 328.856 782.456 320.33C783.507 309.746 783.197 299.072 781.532 288.568Z" fill="white"/>
<path d="M797.609 269.806L798.964 273.462L800.039 276.377L801.396 280.047L809.974 303.253L833.881 274.966L833.754 270.987L833.567 265.231L833.556 264.906L833.491 262.994L833.283 256.705L833.269 256.304L833.155 252.913L832.947 246.6V246.597L832.933 246.167L832.7 239.089L832.549 234.458V234.455V234.439V234.436L832.53 233.9L832.215 224.344L832.104 220.994V220.983L832.085 220.382L831.842 213.023L831.771 210.91V210.875L831.75 210.187L831.257 195.375L831.249 195.079L831.221 194.237L831.113 190.96L831.108 190.806L831.165 190.77L831.221 190.738L831.219 190.651L831.194 190.12L832.646 189.351L832.89 189.224L833.082 189.121L833.361 188.969L828.397 183.379L828.042 183.539L827.728 183.579H827.725L826.677 183.728L826.631 183.736L824.624 184.015L824.54 183.956L819.635 186.212L819.916 186.954L819.962 187.076L820.193 187.306L820.336 187.45L821.333 188.446L821.279 188.622L821.197 188.88L821.173 188.961L821.257 189.056L821.252 189.072L821.222 189.175L821.043 189.782L817.205 202.891L816.94 203.795L816.661 204.751L815.258 209.537L814.982 210.483L814.564 211.907L811.035 223.968L809.938 227.711L808.906 231.24L808.904 231.243L807.636 235.558L797.972 268.566L797.609 269.806Z" fill="#FDAC2A"/>
<path d="M819.915 186.954L819.961 187.076L820.191 187.306L820.335 187.45L821.332 188.447L821.278 188.623L821.196 188.88L821.445 189.151L821.492 189.2L821.337 189.714L821.296 189.86L821.383 189.928C824.272 192.085 827.48 193.776 830.893 194.939L831.058 194.993L830.898 191.472L830.874 190.903V190.857L831.044 190.768L831.218 190.67L832.672 189.858L832.943 189.709L832.648 189.362L827.729 183.59L826.681 183.739H826.635L819.915 186.954ZM814.98 210.483C820.476 214.12 826.532 217.332 832.103 220.992C832.147 221.019 832.185 221.048 832.228 221.073L831.957 213.773L831.857 210.962L831.762 210.911C826.956 208.261 822.004 205.884 816.93 203.793L816.66 204.752L815.257 209.537L814.98 210.483ZM808.867 231.831C817.134 236.56 825.503 241.153 833.011 246.641L832.775 239.623L832.602 234.477L811.004 224.615L809.905 228.329L808.867 231.831ZM799.363 270.118L800.65 273.747C811.473 270.374 822.448 267.535 833.574 265.229L833.514 263.333L833.314 256.7C821.668 259.744 810.051 263.344 799.71 268.888L799.363 270.118Z" fill="#FD922A"/>
<path d="M815.109 174.3L816.312 177.466L819.633 186.212L819.914 186.954L819.96 187.076L820.071 187.363L820.334 187.45L829.841 190.546L830.873 190.884L831.111 190.96L831.412 191.06L831.726 190.884L833.476 189.912L843.042 184.592L843.822 184.159L838.844 178.78L838.226 180.324L837.619 181.83L828.394 183.379L828.04 183.539L827.725 183.579H827.723L826.675 183.728L826.628 183.737L824.621 184.016L824.538 183.956L817.401 177.052L816.621 176.296L815.109 174.3Z" fill="#FD922A"/>
<path opacity="0.1" d="M865.477 170.836C864.843 170.198 864.251 169.519 863.703 168.805C863.448 168.502 863.123 168.131 862.742 167.722C860.402 169.105 858.307 170.863 856.539 172.927C857.652 171.099 859.307 168.38 860.848 166.002C859.223 164.704 857.373 163.762 856.057 164.715C855.773 164.916 845.518 172.323 845.518 172.323L825.728 184.427L825.37 184.65L825.284 184.379L825.202 184.449C825.202 184.449 813.082 166.126 817.567 161.552C817.602 161.514 817.643 161.479 817.681 161.441L817.342 161.378L814.238 160.799C812.497 162.966 811.08 165.3 810.717 167.494C809.986 171.931 811.649 176.194 812.778 180.392C813.125 181.697 813.128 183.867 814.423 184.658C814.964 184.991 818.382 184.866 818.45 184.116C818.661 188.138 820.655 190.53 824.921 190.676C826.792 190.744 829.609 191.312 831.448 190.887C831.795 190.811 837.875 190.018 837.875 190.018C838.772 191.643 839.701 193.303 840.521 194.917C841.312 194.649 842.065 194.277 842.759 193.812C839.644 198.319 836.399 202.734 833.263 207.26C831.489 209.822 829.709 212.382 828.192 215.114C825.652 219.67 823.859 224.594 822.104 229.507L810.422 261.919C807.283 257.423 798.743 260.378 795.75 255.787C794.74 254.233 794.729 252.266 794.754 250.411C794.77 249.306 794.783 248.201 794.805 247.096C794.894 242.137 795.076 237.172 795.75 232.264C795.826 231.701 795.907 231.135 796 230.572C797.18 223.278 799.54 216.217 800.636 208.904C802.519 196.393 800.764 183.041 806.08 171.56C806.806 169.989 807.67 168.437 807.901 166.72C808.087 165.3 807.716 163.708 806.709 162.746L806.351 162.827C801.151 163.965 799.521 168.908 796.999 173.35C793.906 178.82 791.17 184.483 788.806 190.305C784.039 201.973 780.68 214.185 778.34 226.563C777.747 229.708 777.224 232.874 776.805 236.043C776.805 236.257 776.805 236.473 776.788 236.687C776.558 244.339 776.369 251.996 776.274 259.652C776.025 278.942 776.358 298.234 778.132 317.437C778.703 323.626 779.424 329.877 778.562 336.034C777.75 341.746 775.607 347.32 775.903 353.081C775.995 354.852 776.569 356.927 778.248 357.507C779.927 358.086 781.609 356.846 783.3 356.304C786.582 355.256 790.036 356.913 793.242 358.178C799.201 360.529 806.546 361.409 811.535 357.398C814.46 355.045 816.034 351.407 817.117 347.813C817.264 347.331 817.388 346.851 817.529 346.369C818.154 344.052 818.648 341.701 819.008 339.327C821.67 322.139 818.339 303.882 823.249 287.078C825.996 277.675 831.193 269.216 835.876 260.614C845.05 243.748 852.398 225.965 859.635 208.178C860.782 202.429 861.929 196.682 863.077 190.939C863.751 187.54 864.428 184.145 865.109 180.752C865.404 179.284 865.669 177.805 865.992 176.343C866.56 173.789 867.671 172.879 865.477 170.836ZM849.462 183.393C848.728 184.66 847.961 185.912 847.184 187.147C847.341 186.838 847.498 186.529 847.677 186.215C848.365 184.98 849.134 183.777 849.936 182.583L849.462 183.393Z" fill="#081A35"/>
<path opacity="0.2" d="M816.422 177.269L819.607 186.061L819.878 186.811L819.921 186.933L820.027 187.22L820.298 187.312C820.68 187.705 821.262 188.095 821.297 188.626C821.755 188.601 822.037 188.311 822.337 187.973C823.464 186.697 825.046 184.579 826.977 185.386C828.02 185.822 828.781 186.814 829.436 187.691C830.018 188.469 830.305 190.741 831.462 190.882C832.036 190.952 832.881 190.251 833.399 189.974L843.046 184.801C842.831 184.334 842.541 183.905 842.188 183.531C841.104 182.28 839.815 181.093 838.295 180.46L837.667 181.957L828.42 183.366L828.063 183.517L827.743 183.555L826.695 183.688H826.646L824.637 183.937L824.553 183.878L817.511 176.863C817.125 176.928 816.756 177.066 816.422 177.269Z" fill="#081A35"/>
<path d="M803.562 80.3193L806.523 101.272L809.602 82.7407L803.562 80.3193Z" fill="#41211E"/>
<path d="M805.934 107.88C804.42 109.73 803.767 112.045 803.583 114.464C803.477 115.992 803.496 117.525 803.64 119.05C804.206 125.848 805.192 138.721 812.578 141.801C813.58 142.223 817.244 142.676 819.693 143.521C820.255 143.693 820.79 143.943 821.283 144.263C821.46 144.359 821.613 144.492 821.732 144.654C821.852 144.816 821.934 145.002 821.973 145.2C821.973 145.216 822.461 151.464 821.432 157.036C821.348 157.485 821.256 157.93 821.161 158.371C820.535 160.993 819.517 163.33 817.878 164.587C812.575 168.65 825.213 187.747 825.213 187.747L855.496 162.659L855.39 162.464C854.327 160.551 853.4 158.567 852.617 156.524C851.46 153.517 851.886 151.145 852.029 147.99C852.171 145.505 852.525 143.036 853.085 140.612C854.169 135.596 855.77 130.68 856.2 125.62C856.33 124.044 855.978 124.082 857.14 122.679C858.023 121.609 859.142 120.713 860.119 119.719C860.298 119.537 860.474 119.356 860.645 119.177C862.541 117.059 864.708 114.367 864.458 111.322C864.231 108.538 861.918 108.912 860.198 107.931C859.619 107.581 859.12 107.114 858.73 106.561C857.755 105.263 857.086 103.487 856.628 102.076C855.48 98.5546 856.969 95.0796 855.87 91.5749C855.388 90.0419 854.245 88.6389 852.685 88.2462C851.766 88.0132 850.808 88.146 849.862 88.2028C846.545 88.4087 843.885 87.1872 840.751 86.6103C838.23 86.1498 835.418 86.315 832.864 86.2067C825.424 85.9006 817.881 86.5209 810.533 84.9743C808.637 84.5762 806.578 83.8666 805.116 82.6396C805.043 85.2262 805.278 88.8556 805.563 92.2357C805.226 95.8987 805.49 99.5921 806.345 103.17C806.345 103.855 806.316 104.546 806.302 105.236C806.302 105.978 806.275 106.718 806.278 107.455C806.161 107.604 806.053 107.742 805.934 107.88Z" fill="#FFD5CC"/>
<path d="M854.125 97.8275C854.047 96.0074 853.908 93.7187 853.196 91.7822C854.009 95.3709 852.925 98.594 853.564 102.345C853.6 102.551 853.792 103.404 854.041 104.49C853.949 102.321 854.225 100.154 854.125 97.8275ZM805.297 82.8686C806.746 84.0956 808.791 84.8052 810.7 85.2033C818.048 86.7471 825.597 86.1296 833.034 86.4357C835.586 86.544 838.4 86.3788 840.919 86.8392C844.323 87.4649 847.08 89.1333 850.693 88.9356C850.883 88.9356 851.084 88.9139 851.276 88.922H851.26C847.029 85.5446 835.512 76.8071 835.512 76.8071L812.436 74.8218L806.012 79.4262C805.56 79.7512 805.346 81.0512 805.297 82.8686Z" fill="#FFD5CC"/>
<path d="M828.594 116.783C828.864 116.806 829.136 116.806 829.407 116.783H828.594Z" stroke="#234662" stroke-width="0.270847" stroke-miterlimit="10"/>
<path d="M803.282 80.2943C803.529 81.0968 803.97 81.8261 804.566 82.4178C804.709 82.5678 804.86 82.7097 805.019 82.843C805.229 83.0191 805.449 83.1836 805.677 83.3359C806.698 83.5201 808.133 82.8782 809.653 82.9107C812.721 82.9757 815.709 83.9805 818.658 84.7362C824.861 86.3261 831.033 85.9063 837.219 86.494C837.688 86.5103 838.154 86.5319 838.614 86.5671C839.294 86.6112 839.97 86.6935 840.64 86.8136L840.824 86.8488C841.607 87.0032 842.357 87.2118 843.094 87.4338H843.108C845.486 88.157 847.712 89.0589 850.421 88.91C850.615 88.8937 850.81 88.8883 851.006 88.8937C851.145 88.8967 851.283 88.9177 851.417 88.956C851.528 88.9819 851.633 89.0268 851.729 89.0887C851.888 89.1941 852.023 89.3339 852.121 89.4977C852.229 89.6755 852.32 89.8632 852.392 90.0584C852.613 90.6086 852.79 91.1755 852.92 91.7538C853.733 95.3426 852.65 98.5683 853.289 102.317C853.324 102.523 853.516 103.376 853.768 104.462C854.123 106.006 854.594 108.026 854.884 109.321C855.002 109.555 855.175 109.756 855.388 109.909C856.347 110.548 858.262 108.397 859.329 108.2C861.555 107.788 864.166 109.267 864.353 111.523C864.602 114.556 862.441 117.251 860.539 119.377C859.442 120.604 858.072 121.634 857.018 122.898C855.856 124.299 856.206 124.253 856.079 125.837C855.648 130.897 854.061 135.812 852.964 140.831C854.605 138.735 856.247 136.638 857.89 134.539C860.225 131.56 862.56 128.581 864.691 125.453C866.504 122.797 868.167 120.043 869.672 117.203C872.08 114.372 873.218 110.18 873.851 106.64C874.645 102.168 874.561 97.5662 873.938 93.081C874.046 91.8486 873.364 90.3211 873.161 89.0968C873.05 88.436 872.909 87.7778 872.746 87.1251C872.584 86.4723 872.224 85.8413 872.608 85.2481C873.835 83.3522 875.355 81.6946 875.915 79.4276C876.257 78.0355 876.557 76.3048 875.49 75.0941C874.678 74.1867 873.554 73.7209 872.438 73.3309C866.382 71.2074 861.875 66.6437 856.154 64.0679C848.969 60.8178 842.322 57.1153 834.381 56.4002C824.511 55.52 815.446 59.6504 808.529 66.5651C805.788 69.3007 802.072 76.3129 803.282 80.2943Z" fill="#653E37"/>
<path d="M825.37 58.4699C826.72 57.3373 828.327 56.5533 830.05 56.1866C831.779 55.7481 833.565 55.5773 835.345 55.6802C837.133 55.7944 838.892 56.1779 840.565 56.8177C842.246 57.4667 843.867 58.2634 845.407 59.1985C848.514 61.0483 851.423 63.2449 854.535 65.13C856.085 66.0858 857.71 66.9146 859.394 67.6082C861.076 68.3017 862.842 68.7742 864.646 69.0139C862.85 68.7399 861.098 68.2356 859.432 67.5134C857.771 66.7898 856.17 65.9339 854.646 64.9539C851.58 63.0174 848.723 60.7694 845.624 58.8409C844.076 57.8608 842.445 57.0197 840.749 56.3275C839.036 55.6362 837.229 55.2071 835.389 55.0545C833.541 54.9106 831.682 55.0522 829.877 55.4743C828.024 55.8364 826.288 56.6474 824.82 57.8361L825.37 58.4699Z" fill="#653E37"/>
<path d="M857.734 66.4446C858.929 66.4689 860.102 67.054 861.242 67.6688C862.382 68.2836 863.536 68.9391 864.725 69.516C865.907 70.1094 867.154 70.5638 868.441 70.8702C869.725 71.1833 871.06 71.2284 872.363 71.0029C871.063 71.1576 869.746 71.0442 868.492 70.6698C867.246 70.2983 866.046 69.7838 864.917 69.1368C863.777 68.5084 862.677 67.8015 861.553 67.1163C860.987 66.7586 860.399 66.4365 859.793 66.152C859.157 65.8547 858.474 65.6713 857.775 65.6104L857.734 66.4446Z" fill="#653E37"/>
<path d="M834.508 116.878C834.914 116.884 835.319 116.851 835.719 116.778L834.508 116.878Z" stroke="#234662" stroke-width="0.270847" stroke-miterlimit="10"/>
<path opacity="0.68" d="M812.544 107.891C811.88 109.405 811.325 110.949 810.808 112.496C810.291 114.042 809.827 115.618 809.383 117.192L809.069 118.378C809.015 118.592 808.966 118.739 808.909 119.007C808.856 119.262 808.845 119.525 808.877 119.784C808.941 120.299 809.162 120.783 809.511 121.168C809.845 121.54 810.286 121.8 810.773 121.913C812.352 122.354 813.942 122.755 815.569 123.05C814.096 122.3 812.59 121.661 811.06 121.06C810.901 121.004 810.75 120.927 810.613 120.829C810.486 120.741 810.373 120.634 810.277 120.513C810.089 120.272 809.98 119.98 809.963 119.676C809.956 119.528 809.967 119.381 809.998 119.237C810.028 119.101 810.104 118.86 810.155 118.676L810.494 117.498C810.916 115.919 811.328 114.335 811.672 112.734C812.016 111.133 812.341 109.532 812.544 107.891Z" fill="#FF888A"/>
<path d="M851.461 88.4036C851.573 88.429 851.679 88.474 851.775 88.5364C852.092 88.7822 852.324 89.1213 852.439 89.506C852.663 90.0563 852.844 90.6232 852.98 91.2015C853.183 92.115 853.289 93.0474 853.295 93.9831C853.346 96.529 852.88 99.0019 853.349 101.765C853.384 101.97 853.576 102.824 853.828 103.91C853.855 104.034 853.885 104.162 853.918 104.294C854.256 105.776 854.679 107.58 854.944 108.766C855.061 109.001 855.234 109.204 855.448 109.356C856.407 109.996 858.321 107.845 859.389 107.645C861.615 107.236 864.226 108.728 864.413 110.971C864.662 114.004 862.501 116.699 860.597 118.825C859.5 120.052 858.129 121.081 857.076 122.346C855.914 123.746 856.263 123.7 856.136 125.285C855.702 130.344 854.115 135.26 853.021 140.279C854.662 138.183 856.305 136.085 857.948 133.987C860.28 131.008 862.614 128.029 864.746 124.9C866.559 122.245 868.223 119.491 869.73 116.65C869.73 116.65 878.269 106.61 872.438 85.0181C867.541 90.3321 853.993 88.753 851.461 88.4036Z" fill="#41211E"/>
<path opacity="0.35" d="M803.582 114.464C808.593 117.698 814.4 118.641 820.545 120.285C823.603 121.097 826.712 121.929 829.879 121.91C832.419 121.91 834.924 121.336 837.395 120.732C840.078 120.073 842.747 119.359 845.403 118.589C847.299 118.048 849.214 117.457 851.183 117.506C854.19 117.59 856.95 119.145 859.907 119.692C859.978 119.692 860.045 119.716 860.116 119.724C860.295 119.543 860.471 119.359 860.641 119.182C862.537 117.064 864.704 114.37 864.455 111.328C864.227 108.544 861.914 108.917 860.194 107.937C859.616 107.586 859.117 107.121 858.726 106.569C857.649 106.208 856.55 105.915 855.436 105.692C847.757 104.123 839.824 104.771 831.988 104.505C826.55 104.321 821.119 103.693 815.683 103.872C812.514 103.938 809.365 104.399 806.309 105.245C806.293 105.984 806.282 106.724 806.285 107.46C806.169 107.604 806.049 107.731 805.933 107.88C804.416 109.727 803.774 112.048 803.582 114.464Z" fill="#FF888A"/>
<path d="M843.373 87.4587C842.576 87.1729 841.754 86.9651 840.918 86.8382C841.747 86.998 842.567 87.2051 843.373 87.4587Z" fill="#41211E"/>
<path opacity="0.35" d="M805.678 90.4922C807.685 92.1363 810.989 91.8871 813.402 92.4288C816.291 93.0752 819.18 93.7569 822.069 94.4737C827.827 95.9074 833.549 97.4783 839.233 99.1864C840.544 99.5792 849.931 103.219 853.907 104.295C853.875 104.162 853.845 104.024 853.818 103.91C853.566 102.827 853.374 101.971 853.339 101.765C852.87 99.0022 853.339 96.5294 853.284 93.9835C852.372 93.5745 851.432 93.2088 850.533 92.7782C847.781 91.451 845.351 89.4739 842.475 88.4446C838.93 87.1798 835.051 87.4723 831.289 87.5563C827.872 87.629 824.455 87.5133 821.051 87.2096C818.884 87.0173 816.755 86.3131 814.586 86.1262C812.606 85.9637 810.612 86.3212 808.6 86.0774C807.473 85.942 806.208 85.7362 805.312 86.4268C804.072 87.3883 804.47 89.5009 805.678 90.4922Z" fill="#FF888A"/>
<path d="M804.657 81.9173C804.704 82.097 804.766 82.2726 804.841 82.4427C804.889 82.5492 804.946 82.6515 805.011 82.7488C805.116 82.911 805.254 83.0493 805.416 83.1547C805.578 83.2602 805.76 83.3304 805.951 83.3609C806.972 83.5451 808.408 82.9032 809.93 82.9357C812.999 83.0007 815.986 84.0191 818.936 84.7612C825.138 86.3511 831.308 85.9312 837.494 86.519C837.963 86.5352 838.429 86.5569 838.892 86.5921C839.571 86.6349 840.248 86.7172 840.918 86.8386L841.102 86.8738C841.331 86.8521 841.557 86.8058 841.776 86.7357C840.809 86.6002 839.842 86.4296 838.886 86.2265C835.314 85.5064 831.876 84.2354 828.694 82.459C825.487 80.6308 822.503 78.4423 819.486 76.3162C818.402 75.5497 817.3 74.7832 816.059 74.3228C812.663 73.0579 808.746 74.3092 805.924 76.5979C804.586 77.6921 804.226 80.2841 804.657 81.9173Z" fill="#41211E"/>
<path d="M784.798 92.6011L784.316 106.284C784.266 107.688 784.755 109.058 785.684 110.112C786.612 111.166 787.909 111.825 789.308 111.953L828.58 116.782H829.393C830.728 116.706 831.99 116.144 832.941 115.204C833.891 114.264 834.467 113.008 834.558 111.674L835.771 94.0935C835.854 92.8802 835.533 91.6736 834.857 90.6626C834.181 89.6515 833.189 88.8931 832.036 88.5059C831.46 88.3092 830.855 88.2121 830.246 88.2188L790.234 87.2871C788.818 87.3037 787.464 87.8652 786.451 88.8548C785.439 89.8445 784.847 91.1862 784.798 92.6011Z" fill="#FECE62"/>
<path d="M786.428 93.5854L786.049 105.367C785.968 107.875 787.983 110.026 790.654 110.27L794.882 110.779L801.406 111.567L804.656 111.962L805.813 112.1L807.538 112.309L812.6 112.921L814.496 113.149L816.262 113.363L818.797 113.669L821.007 113.939L823.54 114.243L825.206 114.446L826.598 114.614H827.353C829.84 114.495 831.887 112.65 832.053 110.24L833.082 95.1075C833.228 92.8974 831.746 90.9527 829.637 90.2783C829.108 90.106 828.554 90.02 827.998 90.0237L820.639 89.8233L818.903 89.7773L816.392 89.7096L813.814 89.6391L809.927 89.5362L809.45 89.5227L808.075 89.4848L802.766 89.3412L801.349 89.3033L800.599 89.2843L797.078 89.1895L791.981 89.0514L791.39 89.0352C788.701 89.0514 786.51 91.0503 786.428 93.5854Z" fill="#9E3A02"/>
<path d="M829.418 116.793L834.507 116.877L835.718 116.777C837.098 116.526 838.353 115.813 839.276 114.757C840.2 113.7 840.737 112.361 840.802 110.959L841.511 95.7C841.564 94.5382 841.24 93.3904 840.587 92.4282C839.934 91.466 838.987 90.741 837.887 90.3616L832.08 88.3627L832.061 88.5171C833.214 88.9043 834.206 89.6627 834.882 90.6738C835.558 91.6848 835.879 92.8914 835.796 94.1047L834.583 111.685C834.492 113.02 833.916 114.275 832.965 115.215C832.015 116.156 830.753 116.717 829.418 116.793Z" fill="#FD922A"/>
<path d="M835.711 116.827L844.029 116.147C845.826 115.999 847.515 115.228 848.804 113.967C850.094 112.705 850.902 111.034 851.09 109.24L851.945 100.963C851.962 100.809 851.973 100.66 851.978 100.508C852.035 99.0246 851.613 97.5622 850.776 96.3363C849.939 95.1105 848.73 94.1859 847.328 93.6989L837.878 90.4136C838.978 90.7914 839.925 91.5156 840.579 92.4776C841.232 93.4396 841.556 94.5876 841.502 95.7492L840.795 111.009C840.731 112.411 840.193 113.75 839.27 114.806C838.346 115.863 837.092 116.575 835.711 116.827Z" fill="#F07222"/>
<path d="M850.32 111.876C857.633 112.861 873.445 114.554 873.445 114.554C876.725 114.346 875.569 101.578 875.569 101.578C874.16 102.71 859.098 101.258 851.978 100.495C851.978 100.646 851.962 100.795 851.945 100.95L851.089 109.227C850.995 110.149 850.734 111.046 850.32 111.876Z" fill="#9E3A02"/>
<g opacity="0.56">
<path d="M797.09 89.1997C798.222 96.5559 799.641 104.278 801.399 111.566L804.649 111.962L805.806 112.1L807.531 112.308L812.593 112.92L814.489 113.148C812.989 105.488 811.396 97.2899 809.92 89.5464L809.443 89.5329L808.067 89.4949L802.759 89.3514L801.342 89.3135L800.592 89.2945L797.09 89.1997ZM816.399 89.7197C817.82 97.8858 819.399 106.355 821.003 113.936L823.535 114.239L825.201 114.443C823.771 106.767 822.17 98.1376 820.635 89.8335L818.898 89.7874L816.399 89.7197Z" fill="#FECE62"/>
</g>
<path d="M806.266 125.437C806.331 126.745 806.699 129.297 808.468 131.447L808.49 131.474C808.568 131.572 808.649 131.664 808.733 131.745C809.718 132.873 811.054 133.636 812.525 133.912L816.255 134.581H816.295C816.807 134.67 817.331 134.656 817.837 134.539C818.343 134.423 818.821 134.207 819.242 133.904C819.348 133.834 819.449 133.758 819.546 133.676C820.189 133.167 820.679 132.49 820.962 131.721L821.287 130.873L822.021 128.942C822.061 128.85 822.082 128.75 822.082 128.65C822.083 128.549 822.063 128.45 822.024 128.357C821.985 128.265 821.928 128.181 821.856 128.111C821.784 128.041 821.698 127.986 821.604 127.95C821.431 127.907 821.233 127.848 821.011 127.788C818.172 127.024 811.447 125.245 808.01 124.7C807.634 124.641 807.298 124.6 807.008 124.57C806.9 124.571 806.793 124.595 806.695 124.641C806.597 124.686 806.51 124.752 806.44 124.834C806.369 124.917 806.317 125.013 806.287 125.117C806.257 125.221 806.25 125.33 806.266 125.437Z" fill="#B52A2D"/>
<path d="M808.672 131.476C808.671 131.57 808.692 131.663 808.734 131.747C808.918 132.175 809.547 132.578 810.164 133.022C810.754 133.435 811.427 133.712 812.136 133.835C813.49 134.079 814.861 134.444 816.223 134.572H816.258C817.296 134.649 818.333 134.415 819.238 133.9C819.343 133.83 819.444 133.754 819.541 133.672C820.184 133.163 820.674 132.487 820.957 131.717L821.283 130.869C819.679 131.026 818.063 131.013 816.461 130.831C815.107 130.655 813.772 130.29 812.399 130.192C811.478 130.124 810.11 130.1 809.298 130.636C808.867 130.953 808.68 131.221 808.672 131.476Z" fill="#FA8887"/>
<path d="M808.016 124.721C808.454 125.547 808.98 126.323 809.584 127.037C809.658 127.128 809.75 127.203 809.855 127.256C812.923 128.762 819.063 128.849 820.602 128.846C820.704 128.838 820.799 128.791 820.868 128.715C820.937 128.639 820.975 128.539 820.973 128.437L821.005 127.809C818.175 127.042 811.447 125.265 808.016 124.721Z" fill="white"/>
<path opacity="0.35" d="M819.688 143.529C820.958 143.968 821.9 144.513 821.968 145.211C821.968 145.228 822.537 152.524 821.156 158.38C821.987 157.838 822.464 156.774 822.951 155.858C824.294 153.363 826.42 151.378 829.002 150.211C830.57 149.512 832.268 149.128 833.801 148.356C835.204 147.649 836.426 146.633 837.634 145.626L843.863 140.434C841.821 141.086 840.134 141.517 838.127 142.256C830.586 145.041 819.923 143.565 819.688 143.529Z" fill="#FF888A"/>
<path d="M825.371 184.652L836.584 181.908L831.313 172.298L825.371 184.652Z" fill="#E0DBC4"/>
<path d="M827.144 170.743L825.372 184.651L818.945 179.221L827.144 170.743Z" fill="#E0DBC4"/>
<path d="M821.017 155.102C821.017 155.102 818.124 162.938 827.141 170.744L815.175 183.056C815.175 183.056 809.836 165.882 814.343 161.034C814.343 161.034 820.473 156.413 821.017 155.102ZM831.312 172.298L836.582 181.908L841.111 190.166L860.848 166.001C860.848 166.001 856.17 157.334 852.757 153.42C852.741 153.418 846.084 163.916 831.312 172.298Z" fill="white"/>
<path d="M642.485 234.883C641.967 236.465 641.155 238.621 641.672 240.3C642.349 242.467 647.224 240.817 647.224 240.817C647.224 240.817 642.279 260.622 637.88 260.955C637.206 261.004 635.917 260.167 635.299 259.923C633.625 259.262 631.954 258.547 630.245 257.967C629.088 257.572 627.918 258.027 626.781 258.26C624.414 258.745 622.25 258.682 620.11 257.491C618.179 256.407 616.57 254.82 615.262 253.041C612.992 249.945 612.575 245.489 612.101 241.63C611.887 239.905 611.911 238.42 611.107 236.86C610.056 234.834 608.94 232.846 607.857 230.839C605.992 227.378 604.124 223.917 602.253 220.458C602.253 220.458 599.661 216.178 600.593 214.098C601.524 212.018 602.651 212.641 602.651 212.641L610.842 224.017L612.794 226.725L612.767 226.454L612.044 218.846L608.439 209.575C608.439 209.575 606.855 205.201 607.897 203.048L609.116 202.059L615.443 212.089L617.315 216.926L620.922 226.246L620.719 225.599C620.316 224.025 620.383 222.015 620.191 220.496C619.949 218.264 619.561 216.051 619.029 213.871C618.458 211.723 617.521 209.605 616.919 207.517C616.318 205.429 615.251 202.642 615.728 200.431C615.966 199.348 617.407 196.794 618.761 197.268C619.005 197.371 619.2 197.565 619.303 197.81L622.39 204.267C623.593 206.775 624.796 209.285 626.001 211.799C624.827 209.284 624.205 206.548 624.175 203.774C624.208 202.353 624.498 200.95 625.031 199.632C625.283 199.072 625.589 198.479 626.044 198.17C627.128 197.43 627.398 198.809 627.813 199.622C630.034 204.061 631.724 208.654 633.576 213.226C633.873 213.953 634.041 214.725 634.075 215.509C634.205 218.646 634.616 227.039 635.18 227.787C635.892 228.702 641.875 219.746 646.507 222.798C646.507 222.798 649.239 225.003 649.332 225.615C649.44 226.322 647.498 227.446 647.024 227.765C646.017 228.447 645.141 229.306 644.44 230.3C643.424 231.647 642.999 233.304 642.485 234.883Z" fill="#FFD5CC"/>
<g opacity="0.35">
<path d="M626.016 211.787C626.454 212.529 626.855 213.293 627.215 214.076C627.418 214.477 627.573 214.901 627.679 215.338C627.78 215.777 627.831 216.226 627.833 216.676C627.833 217.532 627.833 218.39 627.787 219.249C627.741 220.108 627.367 226.02 627.245 226.879C627.099 226.023 627.335 220.108 627.278 219.254C627.221 218.401 627.194 217.54 627.18 216.681C627.184 215.86 627.037 215.045 626.747 214.276C626.461 213.459 626.217 212.629 626.016 211.787Z" fill="#FF888A"/>
</g>
<g opacity="0.35">
<path d="M633.666 235.703C632.301 236.397 631.121 237.406 630.224 238.647C629.34 239.876 628.679 241.252 628.274 242.71C627.8 244.154 627.651 245.689 627.491 247.198C627.491 247.964 627.434 248.731 627.423 249.503C627.413 250.275 627.475 251.044 627.472 251.824C627.329 251.063 627.201 250.291 627.101 249.519C627.036 248.745 627.006 247.962 626.977 247.182C626.993 246.789 627.012 246.399 627.039 246.006C627.051 245.613 627.087 245.222 627.147 244.834L627.345 243.669C627.377 243.474 627.422 243.281 627.48 243.092L627.64 242.52L627.808 241.952C627.873 241.765 627.954 241.583 628.03 241.41L628.255 240.868L628.369 240.597C628.415 240.511 628.466 240.424 628.512 240.327C628.713 239.983 628.886 239.625 629.111 239.297C629.336 238.97 629.558 238.639 629.823 238.344C630.332 237.735 630.917 237.196 631.565 236.738C632.2 236.273 632.911 235.923 633.666 235.703Z" fill="#FF888A"/>
</g>
<g opacity="0.35">
<path d="M616.383 240.528C616.662 240.464 616.95 240.44 617.236 240.455C617.523 240.455 617.81 240.479 618.095 240.509C618.665 240.573 619.231 240.676 619.787 240.818C620.908 241.104 621.984 241.542 622.986 242.121C623.993 242.707 624.89 243.464 625.638 244.358C626.379 245.245 626.921 246.282 627.228 247.397C626.695 246.413 626.031 245.506 625.253 244.702C624.479 243.919 623.604 243.243 622.653 242.689C621.696 242.132 620.688 241.671 619.641 241.311C619.116 241.129 618.579 240.964 618.038 240.826C617.767 240.753 617.496 240.693 617.225 240.636C617.087 240.607 616.954 240.582 616.811 240.561C616.67 240.533 616.526 240.522 616.383 240.528Z" fill="#FF888A"/>
</g>
<path d="M806.972 163.137C806.904 163.44 806.579 163.811 806.465 164.12C806.339 164.46 806.237 164.808 806.159 165.163C805.902 166.297 805.804 167.508 805.422 168.602C804.975 169.9 804.528 171.197 804.098 172.497C803.082 175.585 802.069 178.691 800.59 181.592C797.706 187.264 796.344 194.382 794.854 200.532C791.257 215.369 789.511 230.593 789.656 245.859C789.794 259.612 791.479 273.322 791.227 287.081C791.189 289.134 791.13 291.182 791.065 293.227C790.723 303.232 790.098 313.169 790.179 323.221C790.268 333.48 788.554 343.182 783.346 352.177C779.302 359.167 772.953 365.527 764.95 366.645C757.791 367.639 733.014 364.3 740.01 353.807C741.995 350.828 745.571 348.136 747.808 345.097C749.813 342.402 751.607 339.556 753.173 336.584C755.072 333.006 756.483 329.189 757.369 325.236C760.199 312.27 758 297.187 756.556 283.834C756.556 283.818 756.556 283.807 756.556 283.793C756.467 282.997 756.385 282.209 756.304 281.429L756.223 280.643C756.169 280.134 756.12 279.63 756.063 279.121L755.901 277.651C755.86 277.288 755.822 276.933 755.782 276.567C755.094 277.185 754.392 277.808 753.677 278.428C739.948 290.345 721.498 302.289 714.112 303.283C713.795 303.315 713.475 303.315 713.158 303.283C711.363 303.2 709.532 302.674 707.76 302.038C706.509 301.591 705.285 301.082 704.126 300.629C699.383 298.774 694.746 296.648 690.147 294.47L689.774 294.294C678.761 289.069 667.946 283.43 657.196 277.697C652.501 275.194 647.821 272.666 643.155 270.113C641.379 269.141 639.602 268.164 637.825 267.18C635.967 266.153 632.392 265.435 634.575 263.225C634.667 263.133 634.773 263.033 634.886 262.933C641.49 257.18 645.574 249.084 648.886 241.032L649.312 239.995C652.914 236.398 712.419 262.353 715.252 255.346C719.605 244.624 729.788 234.572 736.847 225.607C747.058 212.642 758.406 200.909 765.08 185.633C766.84 181.603 771.564 178.196 775.396 176.327C779.946 174.114 784.524 171.961 789.101 169.827C791.539 168.689 793.944 167.486 796.414 166.384C797.064 166.09 797.719 165.803 798.378 165.523C800.07 164.81 801.717 163.984 803.453 163.372C804.32 163.066 805.214 162.665 806.143 162.606C806.489 162.584 806.925 162.606 807.007 162.896C807.013 162.978 807.001 163.06 806.972 163.137Z" fill="#234662"/>
<path opacity="0.2" d="M808.309 297.278C806.618 295.962 804.839 294.776 803.181 293.384C802.705 292.928 802.156 292.557 801.556 292.284C800.18 291.769 798.683 292.409 797.323 291.899C796.272 291.507 795.01 290.274 794.173 289.532C792.762 288.278 791.567 286.789 790.11 285.589C787.367 283.352 783.867 282.257 780.338 282.534C777.316 282.785 774.553 283.763 771.511 283.165C768.73 282.623 765.997 281.754 763.213 281.182C762.219 280.979 761.184 280.773 760.371 280.166C758.034 278.422 758.89 274.706 760.417 272.222C765.564 263.826 775.826 259.154 785.652 259.847C795.479 260.541 804.63 266.215 810.435 274.173C815.31 280.86 821.401 294.773 818.067 302.882C815.042 302.148 811.857 300.247 809.5 298.237C809.108 297.91 808.709 297.59 808.309 297.278Z" fill="#081A35"/>
<path d="M806.971 163.136C806.903 163.439 806.578 163.81 806.465 164.119C806.338 164.459 806.236 164.807 806.159 165.162C805.901 166.297 805.804 167.507 805.422 168.602C804.975 169.899 804.528 171.196 804.097 172.496C803.082 175.584 802.069 178.691 800.59 181.591C797.705 187.263 796.343 194.381 794.853 200.532C791.256 215.368 789.51 230.592 789.656 245.858C789.794 259.611 791.479 273.322 791.227 287.081C791.189 289.134 791.129 291.181 791.064 293.226C790.306 295.341 789.661 295.577 789.212 293.085C787.497 283.606 786.666 273.928 785.62 264.376C784.033 249.864 782.556 235.341 781.189 220.807C780.647 215.136 780.106 209.464 779.643 203.787C778.941 195.321 782.351 189.338 786.668 182.328C789.932 177.036 793.217 171.751 796.381 166.397C797.031 166.102 797.685 165.815 798.345 165.536C800.037 164.823 801.684 163.997 803.42 163.385C804.287 163.079 805.181 162.678 806.11 162.618C806.456 162.597 806.892 162.618 806.974 162.908C806.989 162.983 806.988 163.061 806.971 163.136Z" fill="#1D2F49"/>
<path opacity="0.36" d="M761.47 323.542C761.448 325.343 761.418 327.179 760.83 328.88C760.289 330.505 759.243 331.914 758.23 333.295C756.386 335.806 754.403 338.441 751.538 339.657C752.15 339.387 752.694 338.206 753.163 336.583C755.062 333.005 756.473 329.188 757.358 325.235C760.189 312.269 757.989 297.186 756.546 283.833C756.546 283.817 756.546 283.806 756.546 283.793C756.389 282.243 756.224 280.686 756.053 279.12L755.89 277.65C755.85 277.287 755.812 276.932 755.771 276.566C755.083 277.184 754.382 277.807 753.667 278.427C739.937 290.344 721.487 302.289 714.101 303.283C713.784 303.314 713.465 303.314 713.148 303.283C711.352 303.199 709.521 302.673 707.75 302.037C711.325 300.953 714.713 299.461 717.712 297.229C720.122 295.431 722.189 293.215 724.51 291.309C731.281 285.737 740.168 282.839 746.08 276.35C750.565 271.428 752.87 264.974 755.067 258.674C755.067 256.342 756.936 253.228 757.488 250.898C757.781 249.666 758.008 248.415 758.322 247.981C758.688 244.814 759.381 241.693 760.392 238.67C761.334 244.076 762.276 249.481 763.217 254.885C763.758 257.951 764.3 261.014 764.625 264.11C766.795 283.925 761.741 303.811 761.47 323.542Z" fill="#081A35"/>
<path d="M821.567 277.222L816.307 282.113L812.808 285.363L809.287 288.63L808.287 288.25L802.253 285.967C801.869 285.842 801.461 285.812 801.064 285.878C800.354 285.951 799.59 286.149 798.932 286.059C797.036 285.769 795.322 284.862 793.835 283.67C793.351 283.287 792.891 282.874 792.459 282.433C790.577 280.537 789.493 278.069 787.787 276.035C786.774 274.827 784.696 275.068 783.329 275.271C781.901 275.485 780.474 275.678 779.039 275.848C777.437 276.043 775.831 276.209 774.22 276.344C770.875 276.615 767.866 276.344 764.548 275.911C763.449 275.77 761.905 275.615 761.027 274.827C760.502 274.353 760.182 273.579 759.73 273.015C759.641 272.906 759.581 272.777 759.554 272.639C759.528 272.501 759.536 272.358 759.578 272.224C759.62 272.09 759.695 271.968 759.796 271.87C759.896 271.772 760.02 271.7 760.155 271.661L760.304 271.618L766.119 265.264C766.704 264.625 767.408 264.105 768.191 263.733L778.651 258.777C780.39 257.951 783.402 258.1 785.295 257.894C788.672 257.528 793.066 256.607 796.329 257.815C799.008 258.809 803.989 260.963 805.744 263.143C805.744 263.143 813.403 272.623 814.953 274.212C815.478 274.689 816.071 275.084 816.713 275.385C817.427 275.738 818.158 276.054 818.904 276.33C820.356 276.878 821.567 277.222 821.567 277.222Z" fill="#FFD5CC"/>
<path d="M913.63 258.923C913.497 271.563 913.145 284.215 912.229 296.828C911.864 301.896 911.417 306.971 910.696 311.995C910.125 315.977 908.668 320.392 906.501 324.625C902.111 333.17 894.817 340.9 886.071 342.501C885.984 342.518 885.903 342.557 885.835 342.615C885.748 342.697 885.694 342.809 885.686 342.929C885.654 343.487 885.616 344.042 885.584 344.589C885.345 348.178 885.077 351.539 884.771 354.583C883.839 363.762 882.534 370.049 880.725 371.032C878.536 372.221 876.331 373.843 874.043 375.544C867.813 380.17 860.931 385.368 851.923 383.986C839.672 382.091 807.558 382.7 801.613 371.219C801.583 371.16 801.566 371.095 801.563 371.028C801.56 370.962 801.572 370.896 801.597 370.834C802.615 368.258 813.213 340.925 812.13 321.082C811.859 316.267 812.244 309.068 813.078 300.669C813.186 299.565 813.304 298.442 813.43 297.299C813.452 297.088 813.479 296.874 813.5 296.663C813.507 296.584 813.495 296.504 813.463 296.431C813.432 296.357 813.384 296.293 813.322 296.243L812.577 295.647C812.379 295.493 812.187 295.336 812.003 295.184C808.926 292.714 806.927 290.997 806.445 290.393C806.268 290.152 806.143 289.877 806.077 289.586C806.011 289.295 806.005 288.993 806.06 288.7C806.111 288.302 806.209 287.911 806.35 287.535C807.257 285 809.156 282.776 810.922 280.794C811.962 279.627 813.338 278.584 814.256 277.33C814.614 276.845 814.838 276.341 815.264 275.883C815.77 275.349 816.307 274.844 816.87 274.369C817.804 273.557 818.59 272.579 819.532 271.767C819.894 271.427 820.312 271.152 820.767 270.954C820.987 270.873 821.221 270.835 821.455 270.843C825.223 271.035 829.919 276.802 833.372 278.451C835.853 279.645 838.451 280.602 840.997 281.663C843.413 282.668 845.78 283.77 847.952 285.257C849.377 286.23 850.704 287.362 852.24 288.145C853.615 288.852 855.119 289.258 856.614 289.661L874.37 294.434C872.225 289.637 873.049 284.104 873.91 278.925C874.813 273.568 875.707 268.21 876.591 262.853C876.74 261.959 876.892 261.068 877.038 260.172C877.561 257.041 878.647 254.427 879.565 251.488C880.145 249.628 880.54 247.696 881.077 245.817C881.702 243.623 881.618 239.276 882.973 237.491L873.244 250.278C870.134 254.37 867.635 258.276 865.828 263.059C864.346 266.989 862.372 270.954 858.629 273.178C853.158 276.428 846.216 274.732 840.062 273.083C832.953 271.18 825.795 269.464 818.587 267.937L817.726 267.785C817.644 268.243 817.558 268.701 817.476 269.161C817.453 269.157 817.429 269.157 817.406 269.161C821.003 248.035 825.802 227.421 829.935 219.55C834.697 210.471 840.748 202.013 846.647 193.652C849.669 189.367 852.739 185.115 855.855 180.895C858.236 177.645 862.667 173.419 862.659 169.053C862.658 168.966 862.681 168.88 862.727 168.805C862.772 168.73 862.838 168.669 862.917 168.631C862.995 168.592 863.083 168.576 863.171 168.585C863.258 168.594 863.34 168.628 863.409 168.682C870.616 174.292 878.999 178.75 886.621 183.741C893.847 188.47 906.336 194.137 911.04 201.742C911.047 201.748 911.052 201.756 911.057 201.764C913.933 206.428 912.901 215.864 913.126 221.04C913.684 233.658 913.76 246.299 913.63 258.923Z" fill="#234662"/>
<path d="M882.956 237.507C881.602 239.292 881.692 243.639 881.061 245.833C880.519 247.707 880.129 249.644 879.549 251.505C878.631 254.443 877.545 257.057 877.022 260.188C876.876 261.085 876.724 261.976 876.575 262.869C875.673 268.227 874.779 273.584 873.894 278.941C873.033 284.12 872.209 289.653 874.354 294.45L856.598 289.678C855.103 289.274 853.599 288.865 852.224 288.161C850.688 287.378 849.361 286.246 847.936 285.274C845.769 283.787 843.397 282.685 840.981 281.68C838.435 280.618 835.835 279.662 833.356 278.467C829.911 276.81 825.215 271.052 821.439 270.859C821.205 270.851 820.971 270.889 820.751 270.97C820.296 271.169 819.878 271.443 819.516 271.783C818.428 272.736 817.407 273.763 816.461 274.857L816.632 273.774C816.878 272.238 817.135 270.694 817.395 269.169C817.419 269.165 817.442 269.165 817.466 269.169C817.547 268.709 817.634 268.251 817.715 267.793L818.576 267.945C825.779 269.458 832.937 271.174 840.052 273.091C846.205 274.741 853.147 276.439 858.618 273.186C862.361 270.962 864.336 266.997 865.817 263.067C867.624 258.284 870.124 254.378 873.233 250.286L882.956 237.507Z" fill="#234662"/>
<path d="M648.866 241.049C645.553 249.102 641.469 257.197 634.866 262.95C634.752 263.05 634.646 263.151 634.554 263.243L629.013 260.713C628.786 260.632 628.581 260.499 628.414 260.326C628.105 259.96 628.192 259.383 628.471 258.99C628.784 258.624 629.165 258.322 629.592 258.099C636.13 254.037 639.494 246.51 644.451 240.616C644.64 240.339 644.914 240.129 645.231 240.018C645.599 239.928 645.978 240.112 646.314 240.272C647.138 240.612 647.992 240.873 648.866 241.049Z" fill="#E0DBC4"/>
<path opacity="0.35" d="M760.324 271.626C764.205 270.795 768.111 270.129 772.022 269.5C775.933 268.872 779.858 268.325 783.807 267.924C779.928 268.758 776.022 269.424 772.109 270.047C768.195 270.67 764.273 271.226 760.324 271.626ZM762.012 269.779C763.328 268.368 764.636 266.979 766.042 265.635C767.505 264.318 769.249 263.352 771.142 262.81C774.836 261.743 778.544 260.717 782.295 259.831C778.663 261.112 774.982 262.242 771.299 263.328C769.481 263.86 767.793 264.766 766.345 265.987C765.982 266.285 765.636 266.616 765.275 266.938L764.192 267.902C763.48 268.52 762.762 269.159 762.012 269.779ZM791.439 279.595C792.027 281.064 792.839 282.435 793.844 283.657C793.36 283.274 792.9 282.861 792.468 282.42C790.586 280.524 789.503 278.056 787.796 276.022C786.783 274.814 784.706 275.055 783.338 275.258C781.911 275.472 780.483 275.665 779.048 275.835L779.958 275.451C782.693 274.286 786.019 273.17 788.46 274.866C790.009 275.955 790.694 277.861 791.439 279.595ZM816.314 275.602C812.273 279.145 807.695 284.14 806.471 287.555L802.262 285.962C801.879 285.837 801.471 285.807 801.073 285.873C803.02 285.085 804.594 283.33 806.184 281.845C808.871 279.332 811.92 277.726 815.228 276.19C815.561 276.036 815.929 275.803 816.314 275.602Z" fill="#FF888A"/>
<path opacity="0.22" d="M615.429 241.18C615.684 239.501 613.119 235.194 615.101 234.209C616.185 233.667 617.412 235.075 618.595 234.799C619.473 234.596 619.866 233.607 620.25 232.792C620.635 231.977 621.45 231.113 622.29 231.438C622.56 231.549 622.793 231.784 623.07 231.914C623.684 232.202 624.424 231.914 624.966 231.511C625.584 231.075 626.112 230.523 626.52 229.886C626.764 229.501 626.983 229.073 627.384 228.848C628.359 228.307 630.133 228.932 630.762 229.805C631.182 230.384 631.544 231.021 631.951 231.619C632.357 232.218 632.907 232.751 633.262 233.396C633.49 233.789 633.599 234.241 633.573 234.695C633.547 235.149 633.388 235.586 633.115 235.95C632.82 236.264 632.473 236.525 632.089 236.722C631.523 237.108 630.994 237.544 630.507 238.025C630.153 238.323 629.846 238.673 629.594 239.062C629.38 239.436 629.277 239.875 629.091 240.254C628.904 240.633 628.663 240.953 628.454 241.305C627.942 242.245 627.608 243.271 627.468 244.333C627.317 245.229 627.468 246.11 626.956 246.917C627.132 246.646 626.144 245.451 625.96 245.254C625.486 244.736 624.787 244.463 624.351 243.932C623.426 242.839 622.202 242.04 620.83 241.632C619.354 241.172 616.837 240.511 615.429 241.18Z" fill="#FF888A"/>
<path opacity="0.35" d="M612.96 229.991C612.941 231.075 612.892 232.183 612.781 233.282C612.656 232.047 612.781 230.845 612.57 229.607C612.305 228.283 611.927 226.984 611.438 225.726L610.828 223.995L612.781 226.703L612.754 226.432C612.8 226.497 612.843 226.554 612.892 226.614L612.914 226.644V226.695C612.962 227.798 612.973 228.897 612.96 229.991ZM621.334 229.991C619.994 227.022 618.917 223.94 618.114 220.783C617.718 219.193 617.469 217.92 617.301 216.931L620.909 226.251L621.334 229.991Z" fill="#FF888A"/>
<path d="M759.974 229.724C759.589 225.053 759.471 220.365 759.622 215.681C759.745 210.986 760.162 206.304 760.871 201.662C761.624 197.027 762.68 192.399 764.552 188.052C765.457 185.86 766.67 183.809 768.154 181.96C769.668 180.154 771.577 178.596 773.817 177.862C772.75 178.331 771.756 178.952 770.868 179.707C769.988 180.46 769.199 181.312 768.517 182.247C767.16 184.123 766.056 186.169 765.234 188.333C764.392 190.495 763.699 192.712 763.16 194.969C762.618 197.225 762.16 199.508 761.805 201.808C761.45 204.107 761.15 206.412 760.917 208.739C760.684 211.065 760.505 213.384 760.359 215.713C760.213 218.042 760.121 220.374 760.061 222.712C760.001 225.049 759.966 227.384 759.974 229.724ZM881.148 244.352C881.976 239.74 883.069 235.178 884.42 230.691C885.745 226.185 887.351 221.767 889.23 217.463C891.151 213.181 893.364 208.977 896.289 205.256C897.729 203.373 899.427 201.704 901.335 200.297C903.263 198.942 905.511 197.927 907.865 197.794C906.712 197.972 905.592 198.317 904.539 198.818C903.495 199.318 902.513 199.939 901.614 200.668C899.82 202.132 898.228 203.825 896.876 205.705C895.506 207.578 894.267 209.543 893.166 211.585C892.05 213.622 891.032 215.716 890.094 217.845C889.157 219.974 888.274 222.132 887.451 224.312C886.628 226.493 885.861 228.697 885.122 230.91C884.382 233.123 883.692 235.355 883.031 237.598C882.37 239.84 881.742 242.088 881.148 244.352Z" fill="#182841"/>
<path d="M820.763 270.971C820.308 271.169 819.89 271.444 819.528 271.783C818.228 272.904 817.175 274.267 816.026 275.532C814.878 276.797 813.659 277.912 812.484 279.126C810.336 281.347 808.128 283.782 806.761 286.582C806.604 286.897 806.466 287.221 806.346 287.552C806.205 287.928 806.108 288.318 806.056 288.717C805.388 288.343 804.739 287.937 804.109 287.5C803.296 286.942 802.484 286.263 802.256 285.312C801.845 283.665 803.188 282.628 803.922 281.371C804.541 280.255 805.255 279.195 806.056 278.202C808.009 275.862 810.174 273.709 812.524 271.77C813.719 270.786 815.295 269.061 816.947 269.118C817.102 269.121 817.255 269.136 817.408 269.161C817.431 269.157 817.455 269.157 817.478 269.161C818.191 269.288 818.868 269.565 819.466 269.974C819.92 270.278 820.353 270.611 820.763 270.971Z" fill="#E0DBC4"/>
<path opacity="0.36" d="M753.743 275.466C753.829 275.874 753.874 276.289 753.876 276.706C753.554 277.429 753.207 278.142 752.822 278.843C752.551 279.344 751.899 279.886 751.52 279.466L753.743 275.466Z" fill="#081A35"/>
<path opacity="0.2" d="M755.649 275.884C755.522 276.26 755.398 276.642 755.27 277.019C754.742 277.493 754.206 277.964 753.661 278.438C739.932 290.355 721.482 302.3 714.096 303.294C713.779 303.325 713.46 303.325 713.143 303.294C711.347 303.21 709.516 302.684 707.745 302.048C706.493 301.601 705.269 301.092 704.11 300.639C699.367 298.784 694.731 296.658 690.132 294.48L689.758 294.304C695.634 294.755 701.543 294.513 707.363 293.584C711.843 292.861 716.322 291.712 720.255 289.453C723.844 287.392 726.853 284.491 729.821 281.615C736.622 275.042 743.496 268.371 748.448 260.316C754.347 250.72 756.484 240.059 759.948 229.537C764.942 245.59 760.785 260.4 755.649 275.884ZM882.958 237.508C881.604 239.293 881.693 243.64 881.062 245.833C880.521 247.708 880.13 249.644 879.551 251.505C878.633 254.444 877.547 257.057 877.024 260.188C876.878 261.085 876.726 261.976 876.577 262.87C875.674 268.227 874.78 273.584 873.896 278.942C873.034 284.12 872.211 289.654 874.356 294.45L856.599 289.678C855.104 289.275 853.601 288.866 852.225 288.161C850.689 287.379 849.362 286.246 847.938 285.274C845.771 283.787 843.398 282.685 840.982 281.68C838.436 280.618 835.836 279.662 833.358 278.468C829.913 276.81 825.216 271.052 821.441 270.86C821.206 270.851 820.973 270.889 820.753 270.971C820.298 271.169 819.88 271.444 819.518 271.783C818.429 272.736 817.408 273.763 816.463 274.857L816.433 274.89L816.633 273.779C816.904 272.246 817.188 270.708 817.467 269.175C817.549 268.715 817.635 268.257 817.717 267.799L818.578 267.951C825.781 269.464 832.939 271.179 840.053 273.097C846.207 274.746 853.149 276.445 858.62 273.192C862.363 270.968 864.337 267.003 865.819 263.073C867.626 258.29 870.125 254.384 873.235 250.292L882.958 237.508Z" fill="#081A35"/>
<path opacity="0.36" d="M873.898 278.942C873.037 284.12 872.213 289.654 874.358 294.45L856.602 289.678C855.107 289.274 853.604 288.865 852.228 288.161C850.692 287.379 849.365 286.246 847.94 285.274C845.773 283.787 843.401 282.685 840.985 281.68C844.999 281.466 849.135 282.452 852.94 283.868C857.244 285.461 861.607 289.285 865.886 286.393C868.971 284.299 870.835 281.071 871.658 277.476C872.845 272.466 874.492 267.577 876.579 262.87C875.677 268.227 874.783 273.584 873.898 278.942ZM885.961 342.637C885.875 342.719 885.822 342.831 885.813 342.951C885.78 343.509 885.742 344.064 885.71 344.611C885.474 348.2 885.203 351.561 884.897 354.605C884.865 354.538 884.827 354.473 884.791 354.405C883.918 352.664 882.651 351.151 881.089 349.987C878.578 348.194 875.401 347.688 872.476 346.71C869.456 345.703 866.639 344.164 863.844 342.647L846.215 333C843.36 331.44 840.484 329.864 838.043 327.713C836.034 325.939 834.36 323.818 832.705 321.711C826.327 313.586 819.945 305.46 813.559 297.335C813.58 297.124 813.605 296.91 813.627 296.696L813.58 296.639L812.641 295.528C813.166 295.669 813.658 295.911 814.09 296.241C815.306 297.099 816.5 298.478 817.38 299.307C819.006 300.829 820.555 302.421 822.126 303.998C825.238 307.11 828.458 310.197 832.299 312.413C835.205 314.087 838.024 316.511 840.424 318.859C844.183 322.556 847.157 327.144 851.583 330.012C856.331 333.089 862.187 333.821 867.417 335.971C871 337.442 874.302 339.535 877.912 340.947C880.35 341.908 883.158 343.246 885.826 342.68C885.872 342.668 885.917 342.653 885.961 342.637Z" fill="#081A35"/>
<path opacity="0.2" d="M885.807 342.667C885.739 342.742 885.697 342.837 885.688 342.938C885.655 343.496 885.617 344.051 885.585 344.598C885.352 348.119 885.089 351.402 884.786 354.392C884.786 354.459 884.786 354.524 884.767 354.592C883.835 363.771 882.53 370.057 880.721 371.041C878.532 372.23 876.327 373.852 874.039 375.553C873.384 375.793 872.712 375.984 872.029 376.124C871.847 376.185 871.649 376.179 871.471 376.108C871.225 375.984 871.162 375.669 871.127 375.399C870.897 373.714 870.667 372.024 870.344 370.347C869.299 364.955 867.184 359.641 863.46 355.6C861.94 353.948 860.18 352.536 858.671 350.879C856.504 348.509 854.86 345.638 852.293 343.723C850.462 342.353 848.273 341.556 846.334 340.356C844.395 339.157 842.672 337.567 840.573 336.668C838.856 335.939 836.941 335.703 835.319 334.791C833.479 333.759 832.212 331.976 831.02 330.243C824.499 320.727 818.51 310.857 813.082 300.677C813.19 299.574 813.308 298.451 813.434 297.308C813.456 297.097 813.483 296.883 813.505 296.672L813.583 296.612L814.092 296.214C815.308 297.072 816.503 298.451 817.383 299.28C819.008 300.802 820.557 302.395 822.128 303.971C825.24 307.083 828.461 310.171 832.301 312.386C835.207 314.06 838.027 316.484 840.427 318.832C844.186 322.529 847.16 327.117 851.586 329.986C856.334 333.063 862.189 333.794 867.419 335.944C871.003 337.415 874.304 339.509 877.915 340.92C880.333 341.895 883.139 343.233 885.807 342.667Z" fill="#081A35"/>
<path opacity="0.3" d="M776.273 574.681C773.88 578.493 771.225 582.133 768.326 585.575C768.077 585.945 767.719 586.228 767.302 586.387C766.49 586.615 765.729 585.881 765.179 585.228C764.332 584.213 763.475 583.205 762.609 582.203C762.644 581.596 762.69 581.003 762.733 580.429C763.186 574.454 761.195 569.698 760.044 564.078C760.019 563.945 759.99 563.807 759.965 563.669C758.963 558.523 758.397 553.52 756.669 548.458C753.644 539.585 748.98 531.373 744.37 523.207C735.724 507.885 726.64 492.06 722.093 474.915C720.82 470.118 719.457 464.368 722.699 460.311C723.054 460.701 723.406 461.094 723.748 461.489C724.005 461.782 724.262 462.074 724.514 462.369C733.1 472.418 739.923 484.479 746.994 495.51C751.057 501.816 754.727 510.09 760.195 515.163C760.909 516.263 761.615 517.364 762.313 518.467C762.451 519.117 762.59 519.77 762.731 520.425C764.626 529.382 766.866 538.756 769.204 548.03C771.52 557.182 773.927 566.236 776.273 574.681ZM825.153 612.069C822.068 605.325 820.529 597.739 818.758 590.458C812.301 563.932 801.275 537.808 802.58 510.534C802.748 507.075 803.122 503.565 804.46 500.372C807 494.278 812.585 490.12 817.731 485.96C818.334 485.469 818.934 484.974 819.53 484.476C815.865 489.473 812.721 494.603 811.857 501.217C811.196 506.274 812.875 510.521 813.533 515.453C814.075 519.515 814.641 523.559 815.204 527.611C816.521 537.015 817.853 546.413 819.132 555.817C821.529 573.422 824.096 591.13 824.947 608.903C824.958 609.361 825.06 610.547 825.153 612.069Z" fill="#081A35"/>
<path opacity="0.6" d="M650.573 169.183V240.863C626.004 249.375 559.891 238.022 559.891 238.022V166.339C559.891 166.339 626.004 177.691 650.573 169.183Z" fill="#FECE62"/>
<path opacity="0.6" d="M650.573 245.522V358.704C650.572 359.627 650.211 360.514 649.566 361.175C648.921 361.836 648.043 362.218 647.119 362.241C634.138 362.539 587.688 362.742 562.011 351.407C561.38 351.13 560.844 350.675 560.467 350.098C560.091 349.521 559.89 348.846 559.891 348.157V242.175C559.89 241.664 560.001 241.16 560.214 240.696C560.427 240.233 560.738 239.821 561.126 239.489C561.513 239.157 561.968 238.913 562.459 238.773C562.95 238.634 563.465 238.602 563.97 238.681C577.813 240.831 623.401 247.223 646.28 242.066C646.797 241.95 647.333 241.952 647.849 242.072C648.365 242.192 648.847 242.427 649.26 242.759C649.672 243.091 650.005 243.512 650.232 243.991C650.459 244.469 650.576 244.993 650.573 245.522Z" fill="#FDAC2A"/>
<path opacity="0.6" d="M702.847 273.088C736.73 271.902 928.617 265.575 960.612 273.273C961.728 273.539 962.721 274.174 963.431 275.074C964.142 275.974 964.528 277.088 964.529 278.234V362.712C964.529 363.385 964.396 364.053 964.137 364.675C963.878 365.297 963.498 365.861 963.02 366.336C962.541 366.81 961.973 367.185 961.349 367.439C960.725 367.693 960.056 367.82 959.383 367.814C926.502 367.505 746.01 366.005 706.723 369.71C706.034 369.775 705.338 369.698 704.679 369.485C704.02 369.272 703.411 368.927 702.89 368.47C702.369 368.014 701.947 367.456 701.648 366.831C701.35 366.206 701.182 365.527 701.155 364.835L697.926 278.397C697.899 277.725 698.004 277.054 698.237 276.423C698.47 275.791 698.825 275.212 699.283 274.719C699.74 274.226 700.29 273.828 700.902 273.548C701.514 273.268 702.175 273.112 702.847 273.088Z" fill="url(#paint4_linear_333_1920)"/>
<g opacity="0.77">
<path d="M757.205 289.772C751.279 289.686 745.399 289.581 739.565 289.458C737.268 291.053 733.777 293.453 731.897 294.699C740.422 294.894 749.054 295.057 757.793 295.187L757.205 289.772ZM1072.58 249.116C1057.59 245.573 1036.19 242.393 1008.96 239.671C953.109 234.086 878.875 231.004 799.929 231.004C779.886 231.004 760.144 231.202 740.93 231.589C684.475 232.727 632.572 235.497 590.903 239.668C563.669 242.39 542.264 245.57 527.278 249.113C509.795 253.251 502 257.612 502 263.24C502 268.868 509.795 273.232 527.278 277.368C542.264 280.91 563.669 284.093 590.903 286.812C619.044 289.629 651.843 291.806 687.595 293.272C687.614 293.269 687.633 293.269 687.652 293.272C684.301 291.62 678.608 288.797 675.659 287.337H675.605H675.334C644.544 285.899 616.186 283.922 591.455 281.449C508.376 273.137 507.42 263.351 507.42 263.251C507.42 263.151 508.376 253.371 591.455 245.058C633.707 240.828 686.552 238.046 744.015 236.949C762.254 236.594 780.961 236.407 799.942 236.407C878.715 236.407 952.757 239.476 1008.43 245.047C1091.51 253.36 1092.47 263.145 1092.47 263.24C1092.47 263.335 1091.51 273.126 1008.43 281.438C980.572 284.225 948.117 286.384 912.771 287.847L912.465 293.264C948.128 291.793 980.876 289.618 1008.97 286.807C1036.2 284.098 1057.61 280.905 1072.59 277.362C1090.08 273.226 1097.88 268.871 1097.88 263.235C1097.88 257.598 1090.07 253.257 1072.58 249.116Z" fill="url(#paint5_linear_333_1920)"/>
<path d="M1097.86 263.243C1097.86 268.879 1090.07 273.234 1072.58 277.37C1057.59 280.913 1036.19 284.095 1008.96 286.815C980.862 289.626 948.114 291.801 912.451 293.272L912.758 287.855C948.103 286.392 980.559 284.233 1008.42 281.446C1091.49 273.134 1092.46 263.348 1092.46 263.248C1092.46 263.148 1091.49 253.368 1008.42 245.056C952.743 239.484 878.701 236.415 799.928 236.415C780.947 236.415 762.24 236.592 744.001 236.957C742.95 235.191 741.926 233.408 740.93 231.608C760.144 231.221 779.886 231.023 799.928 231.023C878.875 231.023 953.108 234.102 1008.96 239.69C1036.19 242.412 1057.59 245.592 1072.58 249.134C1090.07 253.257 1097.86 257.615 1097.86 263.243Z" fill="url(#paint6_linear_333_1920)"/>
</g>
<path opacity="0.6" d="M559.891 166.34V350.435C562.244 343.758 607.587 338.926 650.573 335.828C686.232 333.252 720.275 331.871 726.83 331.616C727.134 331.604 727.422 331.475 727.633 331.255C727.844 331.035 727.962 330.743 727.962 330.438V135.623C727.963 135.316 727.843 135.021 727.629 134.801C727.415 134.581 727.123 134.453 726.816 134.445C713.174 134.052 581.951 131.228 559.891 166.34Z" fill="url(#paint7_linear_333_1920)"/>
<g opacity="0.89">
<path d="M982.15 392.943C971.777 389.85 956.981 387.076 938.173 384.704C899.694 379.847 848.555 377.174 794.183 377.174C739.81 377.174 688.669 379.847 650.19 384.704C631.385 387.076 616.591 389.85 606.213 392.943C593.978 396.591 588.285 400.602 588.285 405.562C588.285 410.521 593.973 414.527 606.213 418.175C616.591 421.268 631.385 424.042 650.19 426.417C655.336 427.07 660.726 427.679 666.311 428.248C667.411 426.453 668.622 424.728 669.935 423.083C663.293 422.425 656.943 421.716 650.883 420.954C594.441 413.833 593.789 405.64 593.789 405.562C593.789 405.483 594.441 397.285 650.883 390.164C689.138 385.335 740.032 382.678 794.183 382.678C848.333 382.678 899.225 385.335 937.485 390.164C993.927 397.285 994.579 405.478 994.579 405.562C994.579 405.646 993.927 413.833 937.485 420.954C915.728 423.698 889.886 425.742 861.683 426.996C860.294 428.941 858.544 431.379 857.62 432.684C887.657 431.446 915.181 429.323 938.181 426.422C956.989 424.047 971.785 421.276 982.158 418.18C994.393 414.532 1000.09 410.521 1000.09 405.567C1000.09 400.613 994.395 396.591 982.15 392.943Z" fill="url(#paint8_linear_333_1920)"/>
</g>
<path d="M905.741 488.268C903.779 488.269 901.879 487.576 900.378 486.312C898.876 485.049 897.869 483.295 897.534 481.362C897.2 479.428 897.559 477.438 898.549 475.743C899.539 474.049 901.095 472.758 902.944 472.099C904.792 471.441 906.814 471.456 908.653 472.143C910.491 472.83 912.028 474.144 912.991 475.854C913.955 477.563 914.284 479.558 913.92 481.487C913.556 483.415 912.522 485.153 911.001 486.394C909.516 487.606 907.658 488.268 905.741 488.268ZM905.725 474.365C904.261 474.364 902.855 474.934 901.806 475.955C900.757 476.975 900.148 478.365 900.109 479.828C900.07 481.291 900.604 482.712 901.598 483.786C902.591 484.861 903.965 485.505 905.427 485.582C906.888 485.658 908.322 485.16 909.422 484.194C910.522 483.229 911.201 481.871 911.314 480.412C911.428 478.953 910.966 477.507 910.029 476.383C909.092 475.259 907.752 474.546 906.297 474.395C906.099 474.376 905.915 474.365 905.725 474.365ZM553.24 382.432C551.278 382.432 549.379 381.738 547.879 380.474C546.378 379.21 545.373 377.457 545.039 375.524C544.706 373.591 545.066 371.602 546.056 369.908C547.046 368.214 548.603 366.925 550.451 366.267C552.299 365.61 554.32 365.626 556.158 366.313C557.995 367.001 559.531 368.315 560.493 370.025C561.456 371.734 561.784 373.729 561.419 375.656C561.054 377.584 560.02 379.321 558.5 380.56C557.014 381.771 555.156 382.432 553.24 382.432ZM553.221 368.529C551.759 368.528 550.354 369.098 549.306 370.117C548.258 371.137 547.649 372.525 547.61 373.987C547.572 375.449 548.105 376.868 549.098 377.941C550.09 379.015 551.463 379.659 552.923 379.735C554.383 379.811 555.815 379.314 556.914 378.349C558.013 377.384 558.691 376.028 558.805 374.571C558.918 373.113 558.457 371.668 557.521 370.545C556.585 369.422 555.247 368.71 553.792 368.559C553.603 368.54 553.41 368.529 553.221 368.529Z" fill="#FECE62"/>
<path d="M941.798 174.666C939.836 174.666 937.937 173.973 936.437 172.709C934.936 171.445 933.931 169.692 933.597 167.758C933.264 165.825 933.624 163.836 934.614 162.142C935.604 160.449 937.161 159.159 939.009 158.502C940.857 157.844 942.878 157.86 944.716 158.548C946.553 159.235 948.089 160.55 949.051 162.259C950.014 163.969 950.342 165.963 949.977 167.891C949.612 169.819 948.578 171.555 947.057 172.795C945.572 174.006 943.714 174.667 941.798 174.666ZM941.781 160.767C940.318 160.765 938.911 161.335 937.862 162.356C936.813 163.376 936.204 164.766 936.165 166.229C936.127 167.692 936.661 169.113 937.654 170.188C938.648 171.262 940.022 171.907 941.483 171.983C942.945 172.059 944.378 171.561 945.478 170.595C946.578 169.63 947.257 168.273 947.37 166.813C947.484 165.354 947.023 163.908 946.085 162.784C945.148 161.66 943.809 160.947 942.353 160.796C942.163 160.776 941.972 160.766 941.781 160.767ZM725.99 117.117C724.028 117.117 722.129 116.423 720.629 115.159C719.128 113.895 718.123 112.142 717.789 110.209C717.456 108.276 717.816 106.287 718.806 104.593C719.796 102.899 721.353 101.61 723.201 100.952C725.049 100.295 727.07 100.311 728.908 100.999C730.745 101.686 732.281 103.001 733.243 104.71C734.206 106.419 734.534 108.414 734.169 110.341C733.804 112.269 732.77 114.006 731.25 115.245C729.764 116.456 727.906 117.117 725.99 117.117ZM725.963 103.209C724.502 103.208 723.099 103.778 722.052 104.797C721.006 105.816 720.399 107.203 720.361 108.664C720.322 110.124 720.856 111.541 721.848 112.613C722.84 113.685 724.211 114.328 725.67 114.404C727.128 114.479 728.559 113.982 729.656 113.018C730.754 112.054 731.431 110.7 731.544 109.244C731.657 107.788 731.197 106.345 730.262 105.223C729.326 104.101 727.99 103.389 726.537 103.239C726.345 103.225 726.152 103.209 725.963 103.209Z" fill="#FDAC2A"/>
<path d="M842.21 552.395C844.509 552.378 846.358 550.5 846.341 548.201C846.324 545.902 844.446 544.053 842.147 544.07C839.848 544.087 837.998 545.965 838.016 548.264C838.033 550.563 839.911 552.413 842.21 552.395Z" fill="#FECE62"/>
<path d="M581.268 531.018C583.567 531.001 585.417 529.123 585.4 526.824C585.383 524.525 583.505 522.675 581.206 522.693C578.907 522.71 577.057 524.588 577.074 526.887C577.091 529.186 578.969 531.035 581.268 531.018Z" fill="#FECE62"/>
<path d="M961.896 379.256C961.897 379.668 961.775 380.071 961.546 380.414C961.318 380.757 960.992 381.024 960.612 381.182C960.231 381.34 959.812 381.382 959.408 381.301C959.003 381.221 958.632 381.023 958.34 380.731C958.049 380.44 957.851 380.068 957.77 379.664C957.69 379.26 957.732 378.841 957.89 378.46C958.047 378.079 958.315 377.754 958.658 377.525C959.001 377.297 959.404 377.175 959.816 377.176C960.368 377.176 960.897 377.395 961.287 377.785C961.677 378.175 961.896 378.704 961.896 379.256Z" fill="#FECE62"/>
<path d="M652.661 546.191C653.811 546.191 654.744 545.259 654.744 544.108C654.744 542.958 653.811 542.025 652.661 542.025C651.511 542.025 650.578 542.958 650.578 544.108C650.578 545.259 651.511 546.191 652.661 546.191Z" fill="#FECE62"/>
<path d="M919.395 544.112C920.546 544.112 921.478 543.179 921.478 542.029C921.478 540.879 920.546 539.946 919.395 539.946C918.245 539.946 917.312 540.879 917.312 542.029C917.312 543.179 918.245 544.112 919.395 544.112Z" fill="#FECE62"/>
<path d="M616.382 462.4C618.681 462.4 620.545 460.536 620.545 458.237C620.545 455.938 618.681 454.074 616.382 454.074C614.083 454.074 612.219 455.938 612.219 458.237C612.219 460.536 614.083 462.4 616.382 462.4Z" fill="#FECE62"/>
<path d="M985.624 227.624C987.923 227.624 989.787 225.76 989.787 223.461C989.787 221.162 987.923 219.298 985.624 219.298C983.325 219.298 981.461 221.162 981.461 223.461C981.461 225.76 983.325 227.624 985.624 227.624Z" fill="#FDAC2A"/>
<path d="M852.702 643.512C855.001 643.512 856.865 641.648 856.865 639.349C856.865 637.05 855.001 635.186 852.702 635.186C850.403 635.186 848.539 637.05 848.539 639.349C848.539 641.648 850.403 643.512 852.702 643.512Z" fill="#FECE62"/>
<path d="M540.745 199.142C543.044 199.142 544.908 197.278 544.908 194.979C544.908 192.68 543.044 190.816 540.745 190.816C538.446 190.816 536.582 192.68 536.582 194.979C536.582 197.278 538.446 199.142 540.745 199.142Z" fill="#FECE62"/>
</g>
<defs>
<linearGradient id="paint0_linear_333_1920" x1="800" y1="-62" x2="805.65" y2="759.961" gradientUnits="userSpaceOnUse">
<stop stop-color="#87CDFF"/>
<stop offset="1" stop-color="#4918D5"/>
</linearGradient>
<linearGradient id="paint1_linear_333_1920" x1="1316.15" y1="695.583" x2="1328.91" y2="695.583" gradientUnits="userSpaceOnUse">
<stop stop-color="white"/>
<stop offset="1" stop-color="white" stop-opacity="0.82"/>
</linearGradient>
<linearGradient id="paint2_linear_333_1920" x1="1328.91" y1="709.924" x2="1367.2" y2="709.924" gradientUnits="userSpaceOnUse">
<stop stop-color="white"/>
<stop offset="1" stop-color="white" stop-opacity="0.82"/>
</linearGradient>
<linearGradient id="paint3_linear_333_1920" x1="1329.13" y1="681.182" x2="1367.1" y2="681.182" gradientUnits="userSpaceOnUse">
<stop stop-color="white"/>
<stop offset="1" stop-color="white" stop-opacity="0.82"/>
</linearGradient>
<linearGradient id="paint4_linear_333_1920" x1="835.056" y1="205.049" x2="829.457" y2="373.789" gradientUnits="userSpaceOnUse">
<stop stop-color="#F07222"/>
<stop offset="0.23" stop-color="#F17524"/>
<stop offset="0.43" stop-color="#F2802C"/>
<stop offset="0.63" stop-color="#F59238"/>
<stop offset="0.81" stop-color="#F9AB4A"/>
<stop offset="0.99" stop-color="#FECB60"/>
<stop offset="1" stop-color="#FECE62"/>
</linearGradient>
<linearGradient id="paint5_linear_333_1920" x1="502" y1="263.097" x2="1097.86" y2="263.097" gradientUnits="userSpaceOnUse">
<stop stop-color="#F07222"/>
<stop offset="0.23" stop-color="#F17524"/>
<stop offset="0.43" stop-color="#F2802C"/>
<stop offset="0.63" stop-color="#F59238"/>
<stop offset="0.81" stop-color="#F9AB4A"/>
<stop offset="0.99" stop-color="#FECB60"/>
<stop offset="1" stop-color="#FECE62"/>
</linearGradient>
<linearGradient id="paint6_linear_333_1920" x1="740.93" y1="262.138" x2="1097.86" y2="262.138" gradientUnits="userSpaceOnUse">
<stop stop-color="#F07222"/>
<stop offset="0.23" stop-color="#F17524"/>
<stop offset="0.43" stop-color="#F2802C"/>
<stop offset="0.63" stop-color="#F59238"/>
<stop offset="0.81" stop-color="#F9AB4A"/>
<stop offset="0.99" stop-color="#FECB60"/>
<stop offset="1" stop-color="#FECE62"/>
</linearGradient>
<linearGradient id="paint7_linear_333_1920" x1="646.188" y1="339.159" x2="641.353" y2="133.641" gradientUnits="userSpaceOnUse">
<stop stop-color="#F07222"/>
<stop offset="1" stop-color="#FECE62"/>
</linearGradient>
<linearGradient id="paint8_linear_333_1920" x1="573.44" y1="433.54" x2="630.673" y2="426.287" gradientUnits="userSpaceOnUse">
<stop stop-color="#F07222"/>
<stop offset="1" stop-color="#FECE62"/>
</linearGradient>
<clipPath id="clip0_333_1920">
<rect width="1600" height="760" fill="white"/>
</clipPath>
<clipPath id="clip1_333_1920">
<rect width="243.087" height="57.5294" fill="white" transform="translate(1316.15 666.735)"/>
</clipPath>
</defs>
</svg>
