<svg width="1600" height="760" viewBox="0 0 1600 760" fill="none" xmlns="http://www.w3.org/2000/svg">
<rect width="1600" height="760" fill="url(#paint0_linear_203_84)"/>
<path opacity="0.16" d="M410.525 468.246C406.02 453.52 403.182 436.863 410.412 423.263C419.895 405.463 442.205 400.021 461.556 394.335C495.611 384.334 530.304 365.459 543.751 332.644C556.57 301.383 547.122 264.794 557.897 232.774C573.144 187.512 632.993 163.982 674.978 186.752C687.473 193.53 698.677 203.715 712.709 205.968C736.382 209.768 756.518 190.185 774.148 173.921C796.162 153.605 821.406 135.865 850.196 127.629C878.986 119.392 911.793 121.62 936.478 138.591C956.562 152.365 970.411 174.9 992.766 184.499C1022.15 197.12 1056.51 183.573 1087.78 190.377C1128.06 199.111 1155.17 246.435 1142.38 285.644C1133.21 313.769 1107.08 338.592 1112.97 367.581C1116.38 384.334 1129.84 396.833 1141.79 409.087C1176.13 444.427 1203.99 494.161 1190.14 541.458C1180.24 575.225 1150.47 600.319 1117.66 613.159C1084.85 625.999 1049.11 628.374 1013.97 629.982C885.317 635.903 751.235 641.336 622.681 632.488C527.876 625.981 438.599 560.045 410.525 468.246Z" fill="#FAFAFA"/>
<path d="M1197.9 503.227H397.443C392.697 503.227 388.825 499.386 388.825 494.608V476.435C388.825 471.689 392.666 467.817 397.443 467.817H1197.93C1202.67 467.817 1206.55 471.658 1206.55 476.435V494.608C1206.51 499.386 1202.67 503.227 1197.9 503.227Z" fill="url(#paint1_linear_203_84)"/>
<path d="M432.696 467.849C436.287 474.718 452.306 479.933 471.54 479.933C490.775 479.933 506.824 474.749 510.384 467.849H432.696Z" fill="#8187F6" fill-opacity="0.33"/>
<path d="M1097.04 460.042H1261.5C1267.93 460.042 1273.12 454.828 1273.12 448.427V367.492C1273.12 361.059 1267.9 355.876 1261.5 355.876H1097.04C1090.61 355.876 1085.42 361.09 1085.42 367.492V448.427C1085.42 454.828 1090.61 460.042 1097.04 460.042Z" fill="url(#paint2_linear_203_84)"/>
<path d="M1261.5 355.845H1097.04C1090.61 355.845 1085.42 361.059 1085.42 367.46V414.048C1085.42 420.48 1090.64 425.664 1097.04 425.664H1261.5C1267.93 425.664 1273.12 420.449 1273.12 414.048V367.46C1273.12 361.059 1267.93 355.845 1261.5 355.845Z" fill="white"/>
<path d="M1117.52 409.958H1099.01C1096.82 409.958 1095.04 408.178 1095.04 405.992V376.235C1095.04 374.049 1096.82 372.269 1099.01 372.269H1117.52C1119.71 372.269 1121.49 374.049 1121.49 376.235V405.992C1121.49 408.209 1119.71 409.958 1117.52 409.958ZM1252.32 410.176H1224C1221.81 410.176 1220.03 408.396 1220.03 406.211V400.371C1220.03 398.186 1221.81 396.406 1224 396.406H1252.32C1254.51 396.406 1256.29 398.186 1256.29 400.371V406.211C1256.26 408.396 1254.51 410.176 1252.32 410.176ZM1252.32 386.039H1224C1221.81 386.039 1220.03 384.259 1220.03 382.074V376.235C1220.03 374.049 1221.81 372.269 1224 372.269H1252.32C1254.51 372.269 1256.29 374.049 1256.29 376.235V382.074C1256.26 384.259 1254.51 386.039 1252.32 386.039ZM1161.55 410.176H1133.23C1131.04 410.176 1129.26 408.396 1129.26 406.211V400.371C1129.26 398.186 1131.04 396.406 1133.23 396.406H1161.55C1163.74 396.406 1165.52 398.186 1165.52 400.371V406.211C1165.52 408.396 1163.74 410.176 1161.55 410.176ZM1161.55 386.039H1133.23C1131.04 386.039 1129.26 384.259 1129.26 382.074V376.235C1129.26 374.049 1131.04 372.269 1133.23 372.269H1161.55C1163.74 372.269 1165.52 374.049 1165.52 376.235V382.074C1165.52 384.259 1163.74 386.039 1161.55 386.039ZM1206.61 410.176H1178.29C1176.1 410.176 1174.32 408.396 1174.32 406.211V400.371C1174.32 398.186 1176.1 396.406 1178.29 396.406H1206.61C1208.79 396.406 1210.57 398.186 1210.57 400.371V406.211C1210.57 408.396 1208.79 410.176 1206.61 410.176ZM1206.61 386.039H1178.29C1176.1 386.039 1174.32 384.259 1174.32 382.074V376.235C1174.32 374.049 1176.1 372.269 1178.29 372.269H1206.61C1208.79 372.269 1210.57 374.049 1210.57 376.235V382.074C1210.57 384.259 1208.79 386.039 1206.61 386.039Z" fill="url(#paint3_linear_203_84)"/>
<path d="M712.91 355.845H548.448C542.015 355.845 536.832 361.059 536.832 367.46V448.395C536.832 454.828 542.047 460.011 548.448 460.011H712.91C719.342 460.011 724.525 454.797 724.525 448.395V367.46C724.525 361.059 719.342 355.845 712.91 355.845Z" fill="white"/>
<path d="M560.063 436.093H553.568C552.132 436.093 550.945 437.279 550.945 438.716V444.305C550.945 445.741 552.132 446.928 553.568 446.928H560.063C561.499 446.928 562.686 445.741 562.686 444.305V438.716C562.655 437.279 561.499 436.093 560.063 436.093ZM578.923 436.093H572.428C570.992 436.093 569.805 437.279 569.805 438.716V444.305C569.805 445.741 570.992 446.928 572.428 446.928H578.923C580.359 446.928 581.546 445.741 581.546 444.305V438.716C581.546 437.279 580.39 436.093 578.923 436.093ZM598.813 436.093H592.318C590.882 436.093 589.696 437.279 589.696 438.716V444.305C589.696 445.741 590.882 446.928 592.318 446.928H598.813C600.25 446.928 601.436 445.741 601.436 444.305V438.716C601.436 437.279 600.25 436.093 598.813 436.093ZM618.485 436.093H611.99C610.554 436.093 609.367 437.279 609.367 438.716V444.305C609.367 445.741 610.554 446.928 611.99 446.928H618.485C619.921 446.928 621.108 445.741 621.108 444.305V438.716C621.108 437.279 619.921 436.093 618.485 436.093ZM637.626 436.093H631.131C629.695 436.093 628.508 437.279 628.508 438.716V444.305C628.508 445.741 629.695 446.928 631.131 446.928H637.626C639.062 446.928 640.249 445.741 640.249 444.305V438.716C640.249 437.279 639.062 436.093 637.626 436.093ZM657.61 436.093H651.115C649.679 436.093 648.492 437.279 648.492 438.716V444.305C648.492 445.741 649.679 446.928 651.115 446.928H657.61C659.046 446.928 660.233 445.741 660.233 444.305V438.716C660.233 437.279 659.046 436.093 657.61 436.093ZM680.186 436.093H673.691C672.254 436.093 671.068 437.279 671.068 438.716V444.305C671.068 445.741 672.254 446.928 673.691 446.928H680.186C681.622 446.928 682.809 445.741 682.809 444.305V438.716C682.809 437.279 681.653 436.093 680.186 436.093ZM702.793 436.093H696.298C694.861 436.093 693.675 437.279 693.675 438.716V444.305C693.675 445.741 694.861 446.928 696.298 446.928H702.793C704.229 446.928 705.415 445.741 705.415 444.305V438.716C705.415 437.279 704.229 436.093 702.793 436.093ZM560.063 418.607H553.568C552.132 418.607 550.945 419.793 550.945 421.23V426.819C550.945 428.255 552.132 429.442 553.568 429.442H560.063C561.499 429.442 562.686 428.255 562.686 426.819V421.23C562.655 419.793 561.499 418.607 560.063 418.607ZM578.923 418.607H572.428C570.992 418.607 569.805 419.793 569.805 421.23V426.819C569.805 428.255 570.992 429.442 572.428 429.442H578.923C580.359 429.442 581.546 428.255 581.546 426.819V421.23C581.546 419.793 580.39 418.607 578.923 418.607ZM598.813 418.607H592.318C590.882 418.607 589.696 419.793 589.696 421.23V426.819C589.696 428.255 590.882 429.442 592.318 429.442H598.813C600.25 429.442 601.436 428.255 601.436 426.819V421.23C601.436 419.793 600.25 418.607 598.813 418.607ZM618.485 418.607H611.99C610.554 418.607 609.367 419.793 609.367 421.23V426.819C609.367 428.255 610.554 429.442 611.99 429.442H618.485C619.921 429.442 621.108 428.255 621.108 426.819V421.23C621.108 419.793 619.921 418.607 618.485 418.607ZM637.626 418.607H631.131C629.695 418.607 628.508 419.793 628.508 421.23V426.819C628.508 428.255 629.695 429.442 631.131 429.442H637.626C639.062 429.442 640.249 428.255 640.249 426.819V421.23C640.249 419.793 639.062 418.607 637.626 418.607ZM657.61 418.607H651.115C649.679 418.607 648.492 419.793 648.492 421.23V426.819C648.492 428.255 649.679 429.442 651.115 429.442H657.61C659.046 429.442 660.233 428.255 660.233 426.819V421.23C660.233 419.793 659.046 418.607 657.61 418.607ZM680.186 418.607H673.691C672.254 418.607 671.068 419.793 671.068 421.23V426.819C671.068 428.255 672.254 429.442 673.691 429.442H680.186C681.622 429.442 682.809 428.255 682.809 426.819V421.23C682.809 419.793 681.653 418.607 680.186 418.607ZM702.793 418.607H696.298C694.861 418.607 693.675 419.793 693.675 421.23V426.819C693.675 428.255 694.861 429.442 696.298 429.442H702.793C704.229 429.442 705.415 428.255 705.415 426.819V421.23C705.415 419.793 704.229 418.607 702.793 418.607ZM560.063 401.121H553.568C552.132 401.121 550.945 402.307 550.945 403.744V409.333C550.945 410.769 552.132 411.956 553.568 411.956H560.063C561.499 411.956 562.686 410.769 562.686 409.333V403.744C562.655 402.307 561.499 401.121 560.063 401.121ZM578.923 401.121H572.428C570.992 401.121 569.805 402.307 569.805 403.744V409.333C569.805 410.769 570.992 411.956 572.428 411.956H578.923C580.359 411.956 581.546 410.769 581.546 409.333V403.744C581.546 402.307 580.39 401.121 578.923 401.121ZM598.813 401.121H592.318C590.882 401.121 589.696 402.307 589.696 403.744V409.333C589.696 410.769 590.882 411.956 592.318 411.956H598.813C600.25 411.956 601.436 410.769 601.436 409.333V403.744C601.436 402.307 600.25 401.121 598.813 401.121ZM618.485 401.121H611.99C610.554 401.121 609.367 402.307 609.367 403.744V409.333C609.367 410.769 610.554 411.956 611.99 411.956H618.485C619.921 411.956 621.108 410.769 621.108 409.333V403.744C621.108 402.307 619.921 401.121 618.485 401.121ZM637.626 401.121H631.131C629.695 401.121 628.508 402.307 628.508 403.744V409.333C628.508 410.769 629.695 411.956 631.131 411.956H637.626C639.062 411.956 640.249 410.769 640.249 409.333V403.744C640.249 402.307 639.062 401.121 637.626 401.121ZM657.61 401.121H651.115C649.679 401.121 648.492 402.307 648.492 403.744V409.333C648.492 410.769 649.679 411.956 651.115 411.956H657.61C659.046 411.956 660.233 410.769 660.233 409.333V403.744C660.233 402.307 659.046 401.121 657.61 401.121ZM680.186 401.121H673.691C672.254 401.121 671.068 402.307 671.068 403.744V409.333C671.068 410.769 672.254 411.956 673.691 411.956H680.186C681.622 411.956 682.809 410.769 682.809 409.333V403.744C682.809 402.307 681.653 401.121 680.186 401.121ZM702.793 401.121H696.298C694.861 401.121 693.675 402.307 693.675 403.744V409.333C693.675 410.769 694.861 411.956 696.298 411.956H702.793C704.229 411.956 705.415 410.769 705.415 409.333V403.744C705.415 402.307 704.229 401.121 702.793 401.121ZM560.063 381.761H553.568C552.132 381.761 550.945 382.948 550.945 384.384V389.974C550.945 391.41 552.132 392.596 553.568 392.596H560.063C561.499 392.596 562.686 391.41 562.686 389.974V384.384C562.655 382.948 561.499 381.761 560.063 381.761ZM578.923 381.761H572.428C570.992 381.761 569.805 382.948 569.805 384.384V389.974C569.805 391.41 570.992 392.596 572.428 392.596H578.923C580.359 392.596 581.546 391.41 581.546 389.974V384.384C581.546 382.948 580.39 381.761 578.923 381.761ZM598.813 381.761H592.318C590.882 381.761 589.696 382.948 589.696 384.384V389.974C589.696 391.41 590.882 392.596 592.318 392.596H598.813C600.25 392.596 601.436 391.41 601.436 389.974V384.384C601.436 382.948 600.25 381.761 598.813 381.761ZM618.485 381.761H611.99C610.554 381.761 609.367 382.948 609.367 384.384V389.974C609.367 391.41 610.554 392.596 611.99 392.596H618.485C619.921 392.596 621.108 391.41 621.108 389.974V384.384C621.108 382.948 619.921 381.761 618.485 381.761ZM637.626 381.761H631.131C629.695 381.761 628.508 382.948 628.508 384.384V389.974C628.508 391.41 629.695 392.596 631.131 392.596H637.626C639.062 392.596 640.249 391.41 640.249 389.974V384.384C640.249 382.948 639.062 381.761 637.626 381.761ZM657.61 381.761H651.115C649.679 381.761 648.492 382.948 648.492 384.384V389.974C648.492 391.41 649.679 392.596 651.115 392.596H657.61C659.046 392.596 660.233 391.41 660.233 389.974V384.384C660.233 382.948 659.046 381.761 657.61 381.761ZM680.186 381.761H673.691C672.254 381.761 671.068 382.948 671.068 384.384V389.974C671.068 391.41 672.254 392.596 673.691 392.596H680.186C681.622 392.596 682.809 391.41 682.809 389.974V384.384C682.809 382.948 681.653 381.761 680.186 381.761ZM702.793 381.761H696.298C694.861 381.761 693.675 382.948 693.675 384.384V389.974C693.675 391.41 694.861 392.596 696.298 392.596H702.793C704.229 392.596 705.415 391.41 705.415 389.974V384.384C705.415 382.948 704.229 381.761 702.793 381.761Z" fill="url(#paint4_linear_203_84)"/>
<path d="M886.365 460.042H1050.83C1057.26 460.042 1062.44 454.828 1062.44 448.427V367.492C1062.44 361.059 1057.23 355.876 1050.83 355.876H886.365C879.932 355.876 874.749 361.09 874.749 367.492V448.427C874.749 454.828 879.964 460.042 886.365 460.042Z" fill="white"/>
<path d="M1050.83 355.845H886.365C879.932 355.845 874.749 361.059 874.749 367.46V404.68C874.749 411.113 879.964 416.296 886.365 416.296H1050.83C1057.26 416.296 1062.44 411.082 1062.44 404.68V367.46C1062.47 361.059 1057.26 355.845 1050.83 355.845Z" fill="#CCCFFF"/>
<path d="M468.761 353.222L450.744 420.761H493.085L475.068 353.222C474.225 349.974 469.635 349.974 468.761 353.222Z" fill="url(#paint5_linear_203_84)"/>
<path d="M441.064 376.172L455.241 443.524L482.562 432.252L445.092 374.517C443.75 372.456 440.565 373.768 441.064 376.172Z" fill="url(#paint6_linear_203_84)"/>
<path d="M488.464 403.338L483.53 384.884L451.056 419.637L450.744 420.73H481.438L488.464 403.338Z" fill="#A4B32D"/>
<path d="M497.176 370.302L450.151 420.574L475.1 436.467L500.861 372.644C501.766 370.364 498.862 368.522 497.176 370.302Z" fill="url(#paint7_linear_203_84)"/>
<path d="M498.363 420.605H442.969L434.07 433.657C433.852 433.969 433.633 434.313 433.415 434.656C424.328 449.176 435.257 468.036 452.399 467.973L488.714 467.849C505.638 467.786 516.442 449.27 507.699 434.781C507.48 434.438 507.262 434.094 507.043 433.751L498.363 420.605Z" fill="url(#paint8_linear_203_84)"/>
<path d="M441.408 427.1C441.595 426.538 441.814 426.007 442.064 425.476L444.062 420.636H442.969L434.07 433.688C433.852 434.001 433.633 434.344 433.415 434.688C424.328 449.207 435.257 468.067 452.399 468.005L459.581 467.973C444.531 461.572 435.101 444.305 441.408 427.1Z" fill="url(#paint9_linear_203_84)"/>
<path d="M1080.27 470.628C1080.27 476.998 1097.16 482.15 1118.02 482.15C1138.88 482.15 1155.77 476.998 1155.77 470.628C1155.77 469.66 1155.4 468.754 1154.68 467.849H1081.4C1080.65 468.723 1080.27 469.66 1080.27 470.628Z" fill="#8F94FF" fill-opacity="0.38"/>
<path d="M1114.4 430.066C1133.49 430.066 1148.97 428.179 1148.97 425.851C1148.97 423.523 1133.49 421.636 1114.4 421.636C1095.31 421.636 1079.83 423.523 1079.83 425.851C1079.83 428.179 1095.31 430.066 1114.4 430.066Z" fill="#D8E1FF"/>
<path d="M1114.4 473.813C1122.97 473.813 1129.92 470.975 1129.92 467.474C1129.92 463.973 1122.97 461.135 1114.4 461.135C1105.83 461.135 1098.88 463.973 1098.88 467.474C1098.88 470.975 1105.83 473.813 1114.4 473.813Z" fill="#C5C6D9"/>
<path d="M1114.4 430.066C1096.2 430.066 1081.27 428.349 1079.93 426.163C1079.87 427.162 1079.83 428.193 1079.83 429.192C1079.83 451.362 1095.32 469.316 1114.4 469.316C1133.48 469.316 1148.97 451.362 1148.97 429.192C1148.97 428.162 1148.94 427.162 1148.87 426.163C1147.53 428.349 1132.61 430.066 1114.4 430.066Z" fill="url(#paint10_linear_203_84)"/>
<path d="M1090.83 429.192C1090.83 429.098 1090.83 429.005 1090.83 428.911C1084.64 428.224 1080.58 427.225 1079.93 426.163C1079.87 427.162 1079.83 428.193 1079.83 429.192C1079.83 451.362 1095.32 469.316 1114.4 469.316C1116.27 469.316 1118.12 469.129 1119.9 468.817C1103.41 465.757 1090.83 449.176 1090.83 429.192ZM1157.84 432.502C1156.68 431.19 1154.99 430.441 1153.24 430.441H1148.94C1148.9 432.127 1148.75 433.782 1148.53 435.375H1153.24C1153.71 435.375 1153.99 435.624 1154.12 435.781C1154.24 435.937 1154.46 436.249 1154.4 436.717C1153.78 441.807 1151.34 448.583 1143.38 451.768C1143.19 451.83 1143 451.924 1142.85 451.986C1141.44 454.328 1139.85 456.514 1138.07 458.45C1140.19 458.075 1142.6 457.419 1145.25 456.358C1155.99 452.049 1158.68 442.588 1159.33 437.311C1159.52 435.562 1158.99 433.813 1157.84 432.502Z" fill="url(#paint11_linear_203_84)"/>
<path d="M1265.46 177.331H1127.58C1124.27 177.331 1121.58 180.018 1121.58 183.331V310.907C1121.58 314.221 1124.27 316.907 1127.58 316.907H1265.46C1268.78 316.907 1271.46 314.221 1271.46 310.907V183.331C1271.46 180.018 1268.78 177.331 1265.46 177.331Z" fill="white"/>
<path d="M1271.46 203.498H1121.58V284.714H1271.46V203.498Z" fill="#FA7A7A"/>
<path d="M1142.63 198.127C1146.09 198.127 1148.9 195.317 1148.9 191.851C1148.9 188.385 1146.09 185.575 1142.63 185.575C1139.16 185.575 1136.35 188.385 1136.35 191.851C1136.35 195.317 1139.16 198.127 1142.63 198.127Z" fill="url(#paint12_linear_203_84)"/>
<path d="M1148.79 302.154C1149.58 298.78 1147.49 295.4 1144.12 294.603C1140.75 293.807 1137.37 295.896 1136.57 299.269C1135.77 302.643 1137.86 306.023 1141.24 306.82C1144.61 307.616 1147.99 305.527 1148.79 302.154Z" fill="url(#paint13_linear_203_84)"/>
<path d="M1170.47 305.045C1172.92 302.594 1172.92 298.62 1170.47 296.169C1168.02 293.718 1164.04 293.718 1161.59 296.169C1159.14 298.62 1159.14 302.594 1161.59 305.045C1164.04 307.496 1168.02 307.496 1170.47 305.045Z" fill="url(#paint14_linear_203_84)"/>
<path d="M1250.12 305.046C1252.57 302.595 1252.57 298.621 1250.12 296.17C1247.67 293.72 1243.7 293.72 1241.25 296.171C1238.8 298.622 1238.8 302.596 1241.25 305.047C1243.7 307.498 1247.67 307.497 1250.12 305.046Z" fill="url(#paint15_linear_203_84)"/>
<path opacity="0.5" d="M1223.31 242.623C1223.31 243.716 1223.31 244.84 1223.31 245.933C1223.28 246.089 1223.22 246.245 1223.22 246.401C1222.94 250.367 1221.91 254.114 1219.97 257.58C1214.76 266.853 1206.8 271.912 1196.15 272.568C1191.06 272.88 1186.19 271.787 1181.72 269.289C1172.39 264.106 1167.33 256.112 1166.67 245.464C1166.36 240.343 1167.48 235.472 1169.95 230.976C1174.35 222.982 1181.07 218.111 1190.03 216.363C1191.12 216.144 1192.21 216.05 1193.31 215.925C1194.4 215.925 1195.52 215.925 1196.62 215.925C1196.77 215.957 1196.9 216.019 1197.05 216.019C1200.52 216.238 1203.83 217.081 1206.95 218.579C1215.66 222.857 1221 229.758 1222.88 239.313C1223.1 240.437 1223.19 241.53 1223.31 242.623Z" fill="white"/>
<path d="M1187.91 244.278C1187.91 241.405 1187.91 238.532 1187.91 235.659C1187.91 234.66 1188.37 234.005 1189.22 233.755C1189.84 233.567 1190.37 233.786 1190.87 234.129C1194.09 236.128 1197.3 238.158 1200.52 240.156C1201.86 240.999 1203.17 241.811 1204.52 242.654C1205.98 243.591 1205.98 245.058 1204.52 245.995C1199.99 248.836 1195.46 251.647 1190.93 254.488C1190.28 254.894 1189.59 255.144 1188.84 254.707C1188.09 254.301 1187.91 253.614 1187.91 252.802C1187.91 249.929 1187.91 247.119 1187.91 244.278Z" fill="white"/>
<path d="M728.991 338.359H1074.56C1079.4 338.359 1083.3 334.455 1083.3 329.616V145.607C1083.3 140.767 1079.4 136.864 1074.56 136.864H728.991C724.151 136.864 720.248 140.767 720.248 145.607V329.616C720.248 334.455 724.151 338.359 728.991 338.359Z" fill="url(#paint16_linear_203_84)"/>
<path d="M737.703 321.466H1067.88C1072.4 321.466 1076.09 317.781 1076.09 313.254V152.414C1076.09 147.886 1072.4 144.201 1067.88 144.201H737.703C733.176 144.201 729.491 147.886 729.491 152.414V313.254C729.491 317.781 733.176 321.466 737.703 321.466Z" fill="white"/>
<path d="M1076.09 281.872H748.226V303.73H1076.09V281.872Z" fill="url(#paint17_linear_203_84)"/>
<path d="M1051.01 281.872H993.342V303.73H1051.01V281.872Z" fill="#8388E7"/>
<path d="M977.324 281.872H919.651V303.73H977.324V281.872Z" fill="#8388E7"/>
<path d="M883.649 281.872H825.977V303.73H883.649V281.872Z" fill="#8388E7"/>
<path d="M1076.09 255.019H748.226V276.877H1076.09V255.019Z" fill="url(#paint18_linear_203_84)"/>
<path d="M1059.98 255.019H1005.43V276.877H1059.98V255.019Z" fill="#8388E7"/>
<path d="M977.324 255.019H891.361V276.877H977.324V255.019Z" fill="#8388E7"/>
<path d="M906.131 255.019H825.977V276.877H906.131V255.019Z" fill="#8388E7"/>
<path d="M981.726 240.499H975.637C974.107 240.499 972.89 241.717 972.89 243.247V248.337C972.89 249.242 973.327 250.085 974.076 250.585C974.076 250.585 974.669 250.991 975.325 251.459C976.699 252.396 977.511 253.957 977.511 255.612V303.761H979.884V255.612C979.884 253.957 980.696 252.396 982.07 251.459C982.757 250.991 983.319 250.585 983.319 250.585C984.068 250.085 984.505 249.242 984.505 248.337V243.247C984.474 241.717 983.225 240.499 981.726 240.499Z" fill="#0099F9"/>
<path d="M879.871 227.822H988.253C992.468 227.822 995.903 224.387 995.903 220.172V166.84C995.903 162.624 992.468 159.189 988.253 159.189H879.871C875.655 159.189 872.221 162.624 872.221 166.84V220.172C872.221 224.387 875.624 227.822 879.871 227.822Z" fill="#EFEFFF"/>
<path d="M988.253 159.158H879.871C875.655 159.158 872.221 162.593 872.221 166.808V182.109L995.903 211.71V166.808C995.903 162.593 992.468 159.158 988.253 159.158Z" fill="#EFEFFF"/>
<path d="M995.903 176.519C993.842 176.145 991.75 175.77 990.033 175.239C982.789 172.897 973.359 171.242 973.359 171.242C969.549 170.868 969.018 176.145 976.263 182.858C983.038 189.134 984.444 194.161 995.903 187.323V176.519ZM901.198 165.466C909.16 167.995 926.022 179.611 917.872 177.425C909.722 175.239 907.006 171.742 903.477 170.774C899.949 169.806 893.267 167.995 894.047 164.498C894.859 160.969 901.198 165.466 901.198 165.466Z" fill="#A8A8FF"/>
<path d="M889.207 205.652C895.609 208.244 900.386 211.71 895.515 211.023C890.644 210.336 882.4 206.714 882.369 204.466C882.369 202.186 887.584 204.997 889.207 205.652Z" fill="#A8A8FF"/>
<path d="M886.709 166.902C890.519 168.307 893.173 171.679 890.332 171.117C887.49 170.587 882.775 168.213 882.838 166.902C882.9 165.559 886.709 166.902 886.709 166.902Z" fill="#A8A8FF"/>
<path d="M885.897 212.959C882.275 211.741 877.841 209.056 872.221 206.246V209.181C878.747 212.334 885.991 215.582 891.143 217.518C895.764 219.235 909.378 224.2 910.409 222.014C911.221 220.234 901.104 218.017 885.897 212.959Z" fill="#A8A8FF"/>
<path d="M945.849 172.648L943.913 163.842C935.045 166.402 932.422 171.149 932.204 177.737L931.86 189.322C932.235 189.322 932.579 189.322 932.953 189.384C933.141 189.322 933.359 189.29 933.578 189.29H936.888C937.013 189.29 937.137 189.29 937.262 189.259C938.98 190.165 940.916 190.696 943.008 190.696C944.132 190.696 945.256 190.539 946.286 190.258L945.849 172.648Z" fill="#C7C7DA"/>
<path d="M965.271 215.145C961.555 216.737 957.246 215.02 955.654 211.304L950.533 199.376C948.941 195.66 950.658 191.351 954.374 189.759C958.09 188.166 962.399 189.884 963.991 193.599L969.112 205.527C970.704 209.274 968.987 213.552 965.271 215.145ZM919.402 215.238L918.933 214.957C916.248 213.427 915.342 209.993 916.872 207.307L925.397 192.538C926.927 189.852 931.767 188.322 934.889 189.915C938.418 191.695 937.106 195.723 935.545 198.408L927.021 213.178C925.491 215.863 922.056 216.768 919.402 215.238Z" fill="#B7B7CF"/>
<path d="M943.851 223.17C949.315 223.201 953.937 219.142 954.592 213.708L957.184 191.57C957.34 190.321 956.341 189.197 955.092 189.197H949.784C948.097 189.197 946.755 187.823 946.755 186.168V183.888C946.755 181.828 945.069 180.141 943.008 180.141C940.947 180.141 939.261 181.828 939.261 183.888V186.949C939.261 188.229 938.23 189.259 936.95 189.259H933.64C932.391 189.259 931.423 190.321 931.517 191.539L933.328 213.334C933.703 218.86 938.293 223.138 943.851 223.17Z" fill="#B7B7CF"/>
<path d="M949.753 189.197C949.472 189.197 949.222 189.165 948.941 189.103C947.192 190.071 945.163 190.633 942.977 190.633C940.916 190.633 938.949 190.102 937.232 189.197C937.107 189.228 936.982 189.228 936.857 189.228H931.236L934.047 223.076L953.437 223.232L957.434 189.197H949.753Z" fill="#C7C7DA"/>
<path d="M931.08 227.822H958.464C955.592 223.482 953.5 222.732 953.5 222.732L934.046 223.107C932.922 224.637 931.954 226.23 931.08 227.822Z" fill="#B7B7CF"/>
<path d="M934.733 175.676L936.326 183.732C936.669 185.45 938.262 186.667 940.01 186.511L944.007 186.199C947.598 185.918 950.471 183.139 950.877 179.548L951.345 175.27C951.72 171.898 949.784 168.682 946.63 167.464L945.1 166.871C942.009 165.653 938.48 166.621 936.419 169.244L936.138 169.619C934.827 171.336 934.296 173.553 934.733 175.676Z" fill="#DFDFED"/>
<path d="M934.14 174.271C934.14 174.271 940.229 172.429 938.543 166.933C936.451 167.121 933.516 169.712 934.14 174.271Z" fill="#B7B7CF"/>
<path d="M955.779 189.322C956.216 189.228 956.654 189.197 957.059 189.166L954.967 171.274C954.468 166.871 950.721 163.53 946.287 163.53H945.881C941.072 163.53 937.169 167.402 937.138 172.21C937.138 172.21 939.886 176.519 946.849 175.614C948.597 180.547 947.692 188.791 947.848 189.603C948.223 189.447 948.598 189.259 948.941 189.072C949.191 189.134 949.472 189.166 949.753 189.166H955.061C955.311 189.197 955.561 189.259 955.779 189.322ZM924.398 211.179H911.596C910.753 211.179 910.003 210.617 909.754 209.805L904.414 191.414C904.071 190.196 904.976 188.978 906.256 188.978H919.059C919.902 188.978 920.651 189.54 920.901 190.352L926.24 208.744C926.584 209.961 925.647 211.179 924.398 211.179Z" fill="#C7C7DA"/>
<path d="M916.061 199.876C916.498 200.781 916.311 201.78 915.624 202.093C914.937 202.436 914.032 201.968 913.595 201.062C913.157 200.157 913.345 199.157 914.032 198.845C914.719 198.533 915.624 198.97 916.061 199.876Z" fill="#B7B7CF"/>
<path d="M906.662 202.342L905.007 200.406C904.258 199.532 904.039 198.314 904.414 197.222L905.788 193.287C905.975 192.725 906.756 192.694 907.006 193.225L909.004 197.534C909.472 198.502 909.41 199.657 908.879 200.594L907.974 202.218C907.692 202.686 907.037 202.748 906.662 202.342Z" fill="#DFDFED"/>
<path d="M945.1 174.552L944.351 184.45C944.288 185.294 944.975 186.012 945.818 186.012L948.629 185.949C949.034 185.949 949.44 185.762 949.721 185.45L950.408 184.607C950.596 184.388 950.689 184.138 950.721 183.857L951.938 174.802C952.063 173.928 951.376 173.147 950.502 173.178L946.536 173.241C945.787 173.209 945.163 173.803 945.1 174.552Z" fill="#B7B7CF"/>
<path d="M946.661 183.233L946.224 187.854C946.193 188.104 946.255 188.354 946.349 188.603C946.786 189.571 948.066 189.79 948.784 189.009C949.721 188.01 950.471 186.824 951.001 185.543L951.501 184.326C951.501 184.326 952.656 181.016 951.782 179.267C950.908 177.519 949.877 178.143 948.816 179.142C948.628 179.298 948.472 179.486 948.316 179.642C947.379 180.641 946.817 181.89 946.661 183.233Z" fill="#E8E8F1"/>
<path d="M961.493 212.709C959.151 213.958 956.341 213.084 955.373 210.804L946.317 188.978C945.911 188.041 946.38 186.917 947.348 186.387C948.316 185.856 949.502 186.105 950.064 186.98L963.273 206.558C964.646 208.619 963.835 211.46 961.493 212.709Z" fill="#DFDFED"/>
<path d="M852.67 158.815H801.03C798.821 158.815 797.03 160.606 797.03 162.815V193.44C797.03 195.649 798.821 197.44 801.03 197.44H852.67C854.879 197.44 856.67 195.649 856.67 193.44V162.815C856.67 160.606 854.879 158.815 852.67 158.815Z" fill="url(#paint19_linear_203_84)"/>
<path d="M852.67 205.153H801.03C798.821 205.153 797.03 206.944 797.03 209.153V212.925C797.03 215.134 798.821 216.925 801.03 216.925H852.67C854.879 216.925 856.67 215.134 856.67 212.925V209.153C856.67 206.944 854.879 205.153 852.67 205.153Z" fill="url(#paint20_linear_203_84)"/>
<path d="M955.903 236.346H918.901V243.559H955.903V236.346Z" fill="url(#paint21_linear_203_84)"/>
<path d="M852.67 223.201H801.03C798.821 223.201 797.03 224.992 797.03 227.201V240.121C797.03 242.331 798.821 244.121 801.03 244.121H852.67C854.879 244.121 856.67 242.331 856.67 240.121V227.201C856.67 224.992 854.879 223.201 852.67 223.201Z" fill="url(#paint22_linear_203_84)"/>
<path d="M908.16 236.346H871.158V243.559H908.16V236.346Z" fill="url(#paint23_linear_203_84)"/>
<path d="M1029.25 221.202C1022.54 221.202 1017.04 215.738 1017.04 208.993C1017.04 202.249 1022.51 196.784 1029.25 196.784C1035.96 196.784 1041.46 202.249 1041.46 208.993C1041.46 215.738 1036 221.202 1029.25 221.202ZM1029.25 203.061C1025.97 203.061 1023.29 205.715 1023.29 209.025C1023.29 212.334 1025.94 214.989 1029.25 214.989C1032.56 214.989 1035.21 212.334 1035.21 209.025C1035.21 205.715 1032.53 203.061 1029.25 203.061Z" fill="url(#paint24_linear_203_84)"/>
<path d="M1041.52 201.999C1034.81 201.999 1029.31 196.535 1029.31 189.79C1029.31 183.045 1034.78 177.581 1041.52 177.581C1048.27 177.581 1053.73 183.045 1053.73 189.79C1053.73 196.535 1048.24 201.999 1041.52 201.999ZM1041.52 183.857C1038.24 183.857 1035.56 186.511 1035.56 189.821C1035.56 193.131 1038.21 195.785 1041.52 195.785C1044.83 195.785 1047.49 193.131 1047.49 189.821C1047.49 186.511 1044.8 183.857 1041.52 183.857Z" fill="url(#paint25_linear_203_84)"/>
<path d="M1015.95 201.999C1009.24 201.999 1003.74 196.535 1003.74 189.79C1003.74 183.045 1009.2 177.581 1015.95 177.581C1022.66 177.581 1028.16 183.045 1028.16 189.79C1028.16 196.535 1022.69 201.999 1015.95 201.999ZM1015.95 183.857C1012.67 183.857 1009.99 186.511 1009.99 189.821C1009.99 193.131 1012.64 195.785 1015.95 195.785C1019.26 195.785 1021.91 193.131 1021.91 189.821C1021.91 186.511 1019.23 183.857 1015.95 183.857Z" fill="url(#paint26_linear_203_84)"/>
<path d="M335.743 326.462H681.31C686.15 326.462 690.053 322.559 690.053 317.719V133.71C690.053 128.87 686.15 124.967 681.31 124.967H335.743C330.903 124.967 327 128.87 327 133.71V317.719C327 322.559 330.934 326.462 335.743 326.462Z" fill="url(#paint27_linear_203_84)"/>
<path d="M338.585 309.569H680.561C681.841 309.569 682.871 308.539 682.871 307.258V135.771C682.871 133.866 681.31 132.305 679.405 132.305H339.428C337.679 132.305 336.274 133.71 336.274 135.458V307.258C336.274 308.539 337.304 309.569 338.585 309.569Z" fill="white"/>
<path d="M671.006 274.66H618.235V297.547H671.006V274.66Z" fill="url(#paint28_linear_203_84)"/>
<path d="M608.243 248.431H359.286V297.142H608.243V248.431Z" fill="url(#paint29_linear_203_84)"/>
<path d="M409.057 283.715H367.907C366.25 283.715 364.907 285.058 364.907 286.715V288.521C364.907 290.178 366.25 291.521 367.907 291.521H409.057C410.714 291.521 412.057 290.178 412.057 288.521V286.715C412.057 285.058 410.714 283.715 409.057 283.715Z" fill="white"/>
<path d="M373.118 268.727H366.907C365.803 268.727 364.907 269.622 364.907 270.727V274.533C364.907 275.638 365.803 276.533 366.907 276.533H373.118C374.222 276.533 375.118 275.638 375.118 274.533V270.727C375.118 269.622 374.222 268.727 373.118 268.727Z" fill="white"/>
<path d="M391.322 268.727H385.111C384.007 268.727 383.111 269.622 383.111 270.727V274.533C383.111 275.638 384.007 276.533 385.111 276.533H391.322C392.426 276.533 393.322 275.638 393.322 274.533V270.727C393.322 269.622 392.426 268.727 391.322 268.727Z" fill="white"/>
<path d="M409.432 268.727H403.222C402.117 268.727 401.222 269.622 401.222 270.727V274.533C401.222 275.638 402.117 276.533 403.222 276.533H409.432C410.537 276.533 411.432 275.638 411.432 274.533V270.727C411.432 269.622 410.537 268.727 409.432 268.727Z" fill="white"/>
<path d="M373.118 256.237H366.907C365.803 256.237 364.907 257.132 364.907 258.237V262.043C364.907 263.148 365.803 264.043 366.907 264.043H373.118C374.222 264.043 375.118 263.148 375.118 262.043V258.237C375.118 257.132 374.222 256.237 373.118 256.237Z" fill="white"/>
<path d="M391.322 256.237H385.111C384.007 256.237 383.111 257.132 383.111 258.237V262.043C383.111 263.148 384.007 264.043 385.111 264.043H391.322C392.426 264.043 393.322 263.148 393.322 262.043V258.237C393.322 257.132 392.426 256.237 391.322 256.237Z" fill="white"/>
<path d="M409.432 256.237H403.222C402.117 256.237 401.222 257.132 401.222 258.237V262.043C401.222 263.148 402.117 264.043 403.222 264.043H409.432C410.537 264.043 411.432 263.148 411.432 262.043V258.237C411.432 257.132 410.537 256.237 409.432 256.237Z" fill="white"/>
<path d="M467.76 283.715H426.61C424.953 283.715 423.61 285.058 423.61 286.715V288.521C423.61 290.178 424.953 291.521 426.61 291.521H467.76C469.417 291.521 470.76 290.178 470.76 288.521V286.715C470.76 285.058 469.417 283.715 467.76 283.715Z" fill="white"/>
<path d="M467.76 256.768H426.61C424.953 256.768 423.61 258.111 423.61 259.768V273.814C423.61 275.471 424.953 276.814 426.61 276.814H467.76C469.417 276.814 470.76 275.471 470.76 273.814V259.768C470.76 258.111 469.417 256.768 467.76 256.768Z" fill="white"/>
<path d="M524.777 283.715H483.627C481.97 283.715 480.627 285.058 480.627 286.715V288.521C480.627 290.178 481.97 291.521 483.627 291.521H524.777C526.434 291.521 527.777 290.178 527.777 288.521V286.715C527.777 285.058 526.434 283.715 524.777 283.715Z" fill="white"/>
<path d="M671.13 150.603H619.078V265.105H671.13V150.603Z" fill="url(#paint30_linear_203_84)"/>
<path d="M642.903 248.758V182.561C642.903 178.086 639.275 174.458 634.8 174.458C630.325 174.458 626.697 178.086 626.697 182.561V248.758C626.697 253.233 630.325 256.861 634.8 256.861C639.275 256.861 642.903 253.234 642.903 248.758Z" fill="white"/>
<path d="M661.513 248.852V174.256C661.513 169.832 657.927 166.246 653.503 166.246C649.08 166.246 645.494 169.832 645.494 174.256V248.852C645.494 253.275 649.08 256.861 653.503 256.861C657.927 256.861 661.513 253.275 661.513 248.852Z" fill="white"/>
<path d="M642.185 157.41H627.353C626.956 157.41 626.635 157.731 626.635 158.128C626.635 158.524 626.956 158.846 627.353 158.846H642.185C642.581 158.846 642.903 158.524 642.903 158.128C642.903 157.731 642.581 157.41 642.185 157.41Z" fill="white"/>
<path d="M660.545 157.41H646.212C645.816 157.41 645.494 157.731 645.494 158.128C645.494 158.524 645.816 158.846 646.212 158.846H660.545C660.941 158.846 661.263 158.524 661.263 158.128C661.263 157.731 660.941 157.41 660.545 157.41Z" fill="white"/>
<path d="M364.907 149.666C367.269 149.666 369.185 147.751 369.185 145.388C369.185 143.025 367.269 141.11 364.907 141.11C362.544 141.11 360.629 143.025 360.629 145.388C360.629 147.751 362.544 149.666 364.907 149.666Z" fill="url(#paint31_linear_203_84)"/>
<path d="M381.768 149.666C384.131 149.666 386.046 147.751 386.046 145.388C386.046 143.025 384.131 141.11 381.768 141.11C379.405 141.11 377.49 143.025 377.49 145.388C377.49 147.751 379.405 149.666 381.768 149.666Z" fill="url(#paint32_linear_203_84)"/>
<path d="M399.66 149.666C402.022 149.666 403.937 147.751 403.937 145.388C403.937 143.025 402.022 141.11 399.66 141.11C397.297 141.11 395.382 143.025 395.382 145.388C395.382 147.751 397.297 149.666 399.66 149.666Z" fill="url(#paint33_linear_203_84)"/>
<path d="M419.863 149.666C422.225 149.666 424.141 147.751 424.141 145.388C424.141 143.025 422.225 141.11 419.863 141.11C417.5 141.11 415.585 143.025 415.585 145.388C415.585 147.751 417.5 149.666 419.863 149.666Z" fill="url(#paint34_linear_203_84)"/>
<path d="M440.659 149.666C443.021 149.666 444.937 147.751 444.937 145.388C444.937 143.025 443.021 141.11 440.659 141.11C438.296 141.11 436.381 143.025 436.381 145.388C436.381 147.751 438.296 149.666 440.659 149.666Z" fill="url(#paint35_linear_203_84)"/>
<path d="M380.613 203.342H360.91C360.286 203.342 359.786 202.842 359.786 202.218V187.167C359.786 186.543 360.286 186.043 360.91 186.043H380.613C381.238 186.043 381.737 186.543 381.737 187.167V202.218C381.769 202.842 381.238 203.342 380.613 203.342Z" fill="url(#paint36_linear_203_84)"/>
<path d="M365.22 203.342H380.676C381.269 203.342 381.738 202.873 381.738 202.28V195.348L378.49 191.976C377.991 191.445 377.148 191.445 376.617 191.944L365.22 203.342Z" fill="#A0A4FE"/>
<path d="M363.752 196.066L359.786 199.844V202.28C359.786 202.873 360.255 203.342 360.848 203.342H365.219L369.06 199.501L365.282 196.035C364.876 195.66 364.189 195.66 363.752 196.066Z" fill="#676DDB"/>
<path d="M370.362 193.53C371.337 192.554 371.337 190.972 370.362 189.997C369.386 189.021 367.804 189.021 366.829 189.997C365.853 190.973 365.853 192.554 366.829 193.53C367.804 194.505 369.386 194.505 370.362 193.53Z" fill="white"/>
<path d="M380.613 229.352H360.91C360.286 229.352 359.786 228.852 359.786 228.228V213.177C359.786 212.553 360.286 212.053 360.91 212.053H380.613C381.238 212.053 381.737 212.553 381.737 213.177V228.228C381.769 228.852 381.238 229.352 380.613 229.352Z" fill="url(#paint37_linear_203_84)"/>
<path d="M365.22 229.352H380.676C381.269 229.352 381.738 228.884 381.738 228.29V221.358L378.49 217.986C377.991 217.455 377.148 217.455 376.617 217.986L365.22 229.352Z" fill="#A0A4FE"/>
<path d="M363.752 222.077L359.786 225.855V228.29C359.786 228.884 360.255 229.352 360.848 229.352H365.219L369.06 225.511L365.282 222.045C364.876 221.64 364.189 221.671 363.752 222.077Z" fill="#676DDB"/>
<path d="M370.365 219.539C371.34 218.563 371.34 216.982 370.364 216.006C369.389 215.031 367.807 215.031 366.832 216.006C365.856 216.982 365.856 218.563 366.832 219.539C367.807 220.514 369.389 220.514 370.365 219.539Z" fill="white"/>
<path d="M414.087 203.342H394.384C393.759 203.342 393.26 202.842 393.26 202.218V187.167C393.26 186.543 393.759 186.043 394.384 186.043H414.087C414.711 186.043 415.211 186.543 415.211 187.167V202.218C415.242 202.842 414.711 203.342 414.087 203.342Z" fill="url(#paint38_linear_203_84)"/>
<path d="M398.692 203.342H414.149C414.742 203.342 415.21 202.873 415.21 202.28V195.348L411.963 191.976C411.463 191.445 410.62 191.445 410.09 191.944L398.692 203.342Z" fill="#43B6F7"/>
<path d="M397.225 196.066L393.26 199.844V202.28C393.26 202.873 393.728 203.342 394.321 203.342H398.693L402.534 199.501L398.755 196.035C398.349 195.66 397.662 195.66 397.225 196.066Z" fill="#2077C7"/>
<path d="M403.835 193.53C404.811 192.554 404.811 190.972 403.835 189.997C402.86 189.021 401.278 189.021 400.302 189.997C399.327 190.972 399.327 192.554 400.303 193.53C401.278 194.505 402.86 194.505 403.835 193.53Z" fill="white"/>
<path d="M414.087 229.352H394.384C393.759 229.352 393.26 228.852 393.26 228.228V213.177C393.26 212.553 393.759 212.053 394.384 212.053H414.087C414.711 212.053 415.211 212.553 415.211 213.177V228.228C415.242 228.852 414.711 229.352 414.087 229.352Z" fill="url(#paint39_linear_203_84)"/>
<path d="M398.693 229.352H414.15C414.743 229.352 415.211 228.884 415.211 228.29V221.359L411.964 217.986C411.464 217.455 410.621 217.455 410.09 217.986L398.693 229.352Z" fill="#43B6F7"/>
<path d="M397.225 222.077L393.26 225.855V228.29C393.26 228.884 393.728 229.352 394.321 229.352H398.693L402.534 225.511L398.755 222.045C398.349 221.64 397.662 221.671 397.225 222.077Z" fill="#2077C7"/>
<path d="M403.838 219.539C404.814 218.563 404.814 216.982 403.838 216.006C402.863 215.031 401.281 215.031 400.305 216.006C399.33 216.982 399.33 218.563 400.305 219.539C401.281 220.514 402.863 220.514 403.838 219.539Z" fill="white"/>
<path d="M446.998 203.342H427.295C426.67 203.342 426.171 202.842 426.171 202.218V187.167C426.171 186.543 426.67 186.043 427.295 186.043H446.998C447.622 186.043 448.122 186.543 448.122 187.167V202.218C448.122 202.842 447.622 203.342 446.998 203.342Z" fill="url(#paint40_linear_203_84)"/>
<path d="M431.573 203.342H447.03C447.623 203.342 448.091 202.873 448.091 202.28V195.348L444.844 191.976C444.344 191.445 443.501 191.445 442.97 191.945L431.573 203.342Z" fill="#FF948E"/>
<path d="M430.105 196.066L426.14 199.844V202.28C426.14 202.873 426.608 203.342 427.201 203.342H431.573L435.413 199.501L431.635 196.035C431.229 195.66 430.542 195.66 430.105 196.066Z" fill="#F25B52"/>
<path d="M437.456 192.116C437.676 190.755 436.751 189.472 435.389 189.251C434.027 189.031 432.745 189.956 432.524 191.318C432.304 192.68 433.229 193.963 434.591 194.183C435.953 194.404 437.236 193.478 437.456 192.116Z" fill="white"/>
<path d="M446.998 229.352H427.295C426.67 229.352 426.171 228.852 426.171 228.228V213.177C426.171 212.553 426.67 212.053 427.295 212.053H446.998C447.622 212.053 448.122 212.553 448.122 213.177V228.228C448.122 228.852 447.622 229.352 446.998 229.352Z" fill="url(#paint41_linear_203_84)"/>
<path d="M431.573 229.352H447.03C447.623 229.352 448.091 228.884 448.091 228.29V221.359L444.844 217.986C444.344 217.455 443.501 217.455 442.97 217.986L431.573 229.352Z" fill="#FF948E"/>
<path d="M430.105 222.077L426.14 225.855V228.29C426.14 228.884 426.608 229.352 427.201 229.352H431.573L435.413 225.511L431.635 222.045C431.229 221.64 430.542 221.671 430.105 222.077Z" fill="#F25B52"/>
<path d="M437.461 218.123C437.681 216.761 436.756 215.478 435.394 215.258C434.032 215.037 432.75 215.963 432.529 217.325C432.309 218.686 433.234 219.969 434.596 220.19C435.958 220.41 437.24 219.485 437.461 218.123Z" fill="white"/>
<path d="M481.532 203.342H461.829C461.205 203.342 460.705 202.842 460.705 202.218V187.167C460.705 186.543 461.205 186.043 461.829 186.043H481.532C482.157 186.043 482.656 186.543 482.656 187.167V202.218C482.687 202.842 482.157 203.342 481.532 203.342Z" fill="url(#paint42_linear_203_84)"/>
<path d="M466.138 203.342H481.594C482.187 203.342 482.656 202.873 482.656 202.28V195.348L479.408 191.976C478.909 191.445 478.066 191.445 477.535 191.945L466.138 203.342Z" fill="#FAEC6E"/>
<path d="M464.671 196.066L460.705 199.844V202.28C460.705 202.873 461.173 203.342 461.767 203.342H466.138L469.979 199.501L466.201 196.035C465.795 195.66 465.108 195.66 464.671 196.066Z" fill="#FFB82E"/>
<path d="M471.28 193.53C472.255 192.554 472.255 190.973 471.279 189.997C470.304 189.022 468.722 189.022 467.747 189.997C466.771 190.973 466.771 192.554 467.747 193.53C468.722 194.506 470.304 194.505 471.28 193.53Z" fill="white"/>
<path d="M481.532 229.352H461.829C461.205 229.352 460.705 228.852 460.705 228.228V213.177C460.705 212.553 461.205 212.053 461.829 212.053H481.532C482.157 212.053 482.656 212.553 482.656 213.177V228.228C482.687 228.852 482.157 229.352 481.532 229.352Z" fill="url(#paint43_linear_203_84)"/>
<path d="M466.138 229.352H481.594C482.187 229.352 482.656 228.884 482.656 228.29V221.359L479.408 217.986C478.909 217.455 478.066 217.455 477.535 217.986L466.138 229.352Z" fill="#FAEC6E"/>
<path d="M464.671 222.077L460.705 225.855V228.29C460.705 228.884 461.173 229.352 461.767 229.352H466.138L469.979 225.511L466.201 222.045C465.795 221.64 465.108 221.671 464.671 222.077Z" fill="#FFB82E"/>
<path d="M471.282 219.539C472.258 218.564 472.258 216.982 471.282 216.006C470.307 215.031 468.725 215.031 467.75 216.007C466.774 216.982 466.774 218.564 467.75 219.539C468.725 220.515 470.307 220.515 471.282 219.539Z" fill="white"/>
<path d="M380.613 180.266H360.91C360.286 180.266 359.786 179.767 359.786 179.142V164.092C359.786 163.467 360.286 162.968 360.91 162.968H380.613C381.238 162.968 381.737 163.467 381.737 164.092V179.142C381.769 179.736 381.238 180.266 380.613 180.266Z" fill="url(#paint44_linear_203_84)"/>
<path d="M365.22 180.266H380.676C381.269 180.266 381.738 179.798 381.738 179.205V172.242L378.49 168.869C377.991 168.338 377.148 168.338 376.617 168.838L365.22 180.266Z" fill="#A0A4FE"/>
<path d="M363.752 172.96L359.786 176.738V179.173C359.786 179.767 360.255 180.235 360.848 180.235H365.219L369.06 176.394L365.282 172.928C364.876 172.554 364.189 172.554 363.752 172.96Z" fill="#676DDB"/>
<path d="M368.592 171.149C369.971 171.149 371.09 170.03 371.09 168.651C371.09 167.271 369.971 166.153 368.592 166.153C367.212 166.153 366.094 167.271 366.094 168.651C366.094 170.03 367.212 171.149 368.592 171.149Z" fill="white"/>
<path d="M414.087 180.266H394.384C393.759 180.266 393.26 179.767 393.26 179.142V164.092C393.26 163.467 393.759 162.968 394.384 162.968H414.087C414.711 162.968 415.211 163.467 415.211 164.092V179.142C415.242 179.736 414.711 180.266 414.087 180.266Z" fill="url(#paint45_linear_203_84)"/>
<path d="M398.693 180.266H414.15C414.743 180.266 415.211 179.798 415.211 179.205V172.242L411.964 168.869C411.464 168.338 410.621 168.338 410.09 168.838L398.693 180.266Z" fill="#43B6F7"/>
<path d="M397.225 172.96L393.26 176.738V179.173C393.26 179.767 393.728 180.235 394.321 180.235H398.693L402.534 176.394L398.755 172.928C398.349 172.554 397.662 172.554 397.225 172.96Z" fill="#2077C7"/>
<path d="M402.065 171.149C403.445 171.149 404.563 170.03 404.563 168.651C404.563 167.271 403.445 166.153 402.065 166.153C400.686 166.153 399.567 167.271 399.567 168.651C399.567 170.03 400.686 171.149 402.065 171.149Z" fill="white"/>
<path d="M446.998 180.266H427.295C426.67 180.266 426.171 179.767 426.171 179.142V164.092C426.171 163.467 426.67 162.968 427.295 162.968H446.998C447.622 162.968 448.122 163.467 448.122 164.092V179.142C448.122 179.736 447.622 180.266 446.998 180.266Z" fill="url(#paint46_linear_203_84)"/>
<path d="M431.573 180.266H447.03C447.623 180.266 448.091 179.798 448.091 179.205V172.242L444.844 168.869C444.344 168.338 443.501 168.338 442.97 168.838L431.573 180.266Z" fill="#FF948E"/>
<path d="M430.105 172.96L426.14 176.738V179.173C426.14 179.767 426.608 180.235 427.201 180.235H431.573L435.413 176.394L431.635 172.928C431.229 172.554 430.542 172.554 430.105 172.96Z" fill="#F25B52"/>
<path d="M434.977 171.149C436.356 171.149 437.475 170.03 437.475 168.651C437.475 167.271 436.356 166.153 434.977 166.153C433.597 166.153 432.479 167.271 432.479 168.651C432.479 170.03 433.597 171.149 434.977 171.149Z" fill="white"/>
<path d="M481.532 180.266H461.829C461.205 180.266 460.705 179.767 460.705 179.142V164.092C460.705 163.467 461.205 162.968 461.829 162.968H481.532C482.157 162.968 482.656 163.467 482.656 164.092V179.142C482.687 179.736 482.157 180.266 481.532 180.266Z" fill="url(#paint47_linear_203_84)"/>
<path d="M466.138 180.266H481.594C482.187 180.266 482.656 179.798 482.656 179.205V172.242L479.408 168.869C478.909 168.338 478.066 168.338 477.535 168.838L466.138 180.266Z" fill="#FAEC6E"/>
<path d="M464.671 172.96L460.705 176.738V179.173C460.705 179.767 461.173 180.235 461.767 180.235H466.138L469.979 176.394L466.201 172.928C465.795 172.554 465.108 172.554 464.671 172.96Z" fill="#FFB82E"/>
<path d="M469.511 171.149C470.89 171.149 472.009 170.03 472.009 168.651C472.009 167.271 470.89 166.153 469.511 166.153C468.131 166.153 467.013 167.271 467.013 168.651C467.013 170.03 468.131 171.149 469.511 171.149Z" fill="white"/>
<path d="M615.114 457.638C615.114 457.638 608.869 472.314 616.363 490.112C623.857 507.91 649.15 501.041 656.331 488.863C663.513 476.685 615.114 457.638 615.114 457.638ZM739.483 210.555C739.483 210.555 743.605 255.706 742.543 274.16C741.857 286.244 712.724 335.736 737.985 336.704C763.246 337.672 804.088 307.29 803.089 281.529C799.435 184.638 777.921 205.59 764.463 203.685C750.974 201.749 738.734 191.788 739.483 210.555Z" fill="url(#paint48_linear_203_84)"/>
<path d="M810.208 246.744C818.233 238.72 823.26 225.48 823.26 209.93C823.26 194.38 826.538 155.817 808.927 133.523C785.852 104.327 741.575 118.066 725.244 131.025C714.722 139.362 703.855 155.536 707.353 176.395C710.194 193.475 714.597 199.751 718.594 201.375C731.208 206.495 736.017 207.089 737.734 211.991C754.284 259.172 802.183 254.8 810.208 246.744Z" fill="url(#paint49_linear_203_84)"/>
<path d="M812.738 261.108C806.305 245.683 808.116 242.81 808.553 242.373C816.703 234.317 812.176 211.491 811.957 210.523L808.897 211.148C810.146 217.268 812.113 234.442 806.336 240.156C804.588 241.873 803.058 246.057 809.834 262.326C813.393 270.881 817.671 278.875 817.702 278.969L820.45 277.501C820.45 277.376 816.235 269.507 812.738 261.108ZM729.554 234.254L726.432 234.317C726.494 237.377 727.181 264.449 733.051 270.725C738.484 276.564 742.419 282.716 742.45 282.778L745.073 281.092C744.917 280.842 740.982 274.66 735.331 268.571C731.053 264.012 729.71 242.248 729.554 234.254Z" fill="#331B3C"/>
<path d="M990.433 435.156C991.494 436.218 1014.1 441.62 1023.53 432.658C1033.21 423.478 1033.87 413.798 1042.17 407.366C1051.45 400.184 1041.24 392.066 1036.77 396.343C1041.67 391.972 1032.8 385.196 1028.43 389.568C1031.56 385.727 1023.97 379.888 1018.85 384.665C1020.63 382.386 1013.23 377.796 1008.64 382.792C1011.76 379.888 1003.02 376.141 997.489 382.074C991.963 388.006 989.59 391.441 983.532 408.709C980.191 418.388 964.922 432.97 990.433 435.156Z" fill="url(#paint50_linear_203_84)"/>
<path d="M978.567 413.923C978.567 413.923 989.402 395.594 997.521 398.092C1030.93 408.365 1025.84 417.046 1016.47 441.401C1001.21 481.057 973.977 463.883 978.567 413.923Z" fill="url(#paint51_linear_203_84)"/>
<path d="M832.44 340.857C819.544 319.624 841.121 296.236 855.547 306.509C879.684 323.714 956.091 378.857 979.416 403.525C1008.55 434.344 1020.38 454.016 999.182 462.853C989.19 467.006 954.218 455.983 920.901 427.256C887.615 398.529 846.96 364.744 832.44 340.857Z" fill="url(#paint52_linear_203_84)"/>
<path d="M676.94 578.167C719.406 608.986 872.627 630.624 885.117 541.54C897.607 452.455 895.515 314.94 853.049 290.085C802.558 260.515 742.293 268.009 691.709 292.801C679.594 298.734 683.59 325.057 656.956 387.507C630.321 449.957 648.15 557.277 676.94 578.167Z" fill="url(#paint53_linear_203_84)"/>
<path d="M709.008 353.753C709.008 353.753 682.373 435.781 716.908 436.592C751.474 437.436 842.651 425.757 876.779 474.905C910.908 524.022 894.266 587.721 820.98 600.649C747.695 613.544 652.365 539.042 661.108 495.733C669.851 452.423 679.843 402.901 709.008 353.753Z" fill="url(#paint54_linear_203_84)"/>
<path d="M688.805 295.893C679.843 300.139 626.667 409.146 611.991 436.405C593.569 470.596 605.965 452.861 631.351 476.998C656.737 501.134 654.457 498.855 663.2 457.014C671.943 415.172 679.125 323.371 688.805 295.893Z" fill="url(#paint55_linear_203_84)"/>
<path d="M683.185 411.644C682.185 425.133 679.219 438.372 675.628 451.362C671.912 464.351 667.51 477.122 661.327 489.175C663.669 475.936 667.229 462.946 670.82 449.988C674.504 437.092 678.345 424.196 683.185 411.644Z" fill="url(#paint56_linear_203_84)"/>
<path d="M810.988 303.387L844.399 285.432C844.399 285.432 862.322 288.961 947.535 373.331C962.617 388.256 972.515 395.813 972.515 395.813C972.515 395.813 980.415 451.174 966.052 487.614C897.981 483.243 876.748 437.03 876.748 437.03C876.748 437.03 786.008 362.09 810.988 303.387Z" fill="url(#paint57_linear_203_84)"/>
<path d="M632.819 615.637C632.819 615.637 629.915 564.428 621.172 534.857C612.429 505.287 639.907 459.917 713.598 454.078C787.289 448.239 882.619 469.066 921.775 501.946C960.931 534.826 917.622 606.456 908.442 627.689C899.293 648.922 792.285 664.753 749.413 661.412C706.51 658.103 637.378 653.512 632.819 615.637Z" fill="url(#paint58_linear_203_84)"/>
<path d="M798.436 208.868C800.091 219.547 800.871 230.226 801.589 240.968C802.245 251.709 802.838 262.388 802.807 273.192C799.841 262.794 798.592 251.99 797.842 241.218C797.249 230.445 797.124 219.61 798.436 208.868ZM781.574 230.945C783.76 233.536 785.54 236.378 787.257 239.282C790.598 245.089 793.315 251.272 795.251 257.704C796.188 260.952 796.937 264.23 797.218 267.603C794.22 261.607 791.629 255.612 788.943 249.492C786.289 243.372 783.666 237.314 781.574 230.945Z" fill="#C37A6C"/>
<path d="M734.269 213.459C734.269 213.459 720.124 189.197 715.877 181.078C711.63 172.96 687.088 180.922 704.043 213.459C721.06 245.995 743.293 236.097 734.269 213.459Z" fill="#B7B7CF"/>
<path d="M727.993 234.286C730.272 230.632 730.553 224.731 727.712 217.549C727.712 217.549 713.567 193.287 709.32 185.169C708.04 182.733 704.98 181.734 701.733 182.421C697.424 187.573 695.8 197.596 704.106 213.49C712.162 228.977 721.467 234.848 727.993 234.286Z" fill="#C7C7DA"/>
<path d="M809.896 155.567C815.985 150.103 819.825 142.141 819.825 133.304C819.825 132.742 819.794 132.18 819.794 131.649C820.387 131.805 821.012 131.899 821.667 131.899C825.633 131.899 828.818 128.683 828.818 124.748C828.818 120.783 825.602 117.598 821.667 117.598C819.669 117.598 817.889 118.41 816.578 119.721C811.613 110.041 801.559 103.422 789.912 103.422C778.827 103.422 769.116 109.479 763.964 118.441C763.964 118.347 763.964 118.253 763.995 118.129C764.526 111.634 767.242 105.514 770.958 100.112C765.4 102.672 761.747 107.668 760.154 113.32C756.189 103.734 745.354 96.8019 734.831 99.6434C741.169 101.392 747.133 104.327 751.723 108.98C754.971 112.227 757.5 116.193 759.249 120.533C759.249 120.658 759.249 120.783 759.28 120.939C754.502 115.318 747.414 111.759 739.483 111.759C725.307 111.759 713.816 123.093 713.504 137.207C699.39 137.488 688.056 149.01 688.056 163.186C688.056 175.333 696.424 185.543 707.696 188.385C705.261 191.258 703.762 194.973 703.762 199.033C703.762 208.119 711.131 215.488 720.217 215.488C722.903 215.488 725.401 214.832 727.649 213.708C726.775 215.238 726.275 216.987 726.275 218.829C726.275 224.575 730.928 229.196 736.642 229.196C739.702 229.196 742.481 227.853 744.386 225.73C746.259 228.509 749.413 230.351 753.035 230.351C758.031 230.351 762.184 226.823 763.183 222.139C765.4 224.512 768.554 225.98 772.02 225.98C778.733 225.98 784.166 220.547 784.166 213.833C784.166 212.303 783.885 210.836 783.354 209.493C783.854 209.555 784.354 209.587 784.884 209.587C791.598 209.587 797.031 204.153 797.031 197.44C797.031 193.599 795.251 190.196 792.503 187.979C794.845 189.072 797.499 189.696 800.247 189.696C810.426 189.696 818.67 181.453 818.67 171.274C818.67 164.623 815.173 158.815 809.896 155.567Z" fill="#331B3C"/>
<path d="M839.293 152.939C843.963 148.268 843.963 140.696 839.293 136.026C834.622 131.356 827.05 131.356 822.38 136.026C817.71 140.697 817.71 148.269 822.38 152.939C827.051 157.609 834.623 157.609 839.293 152.939Z" fill="#331B3C"/>
<path d="M727.024 278.937C732.77 281.061 741.482 283.246 754.815 285.089C768.398 286.962 805.743 287.15 819.919 276.127C789.568 267.759 757.438 269.882 727.024 278.937ZM970.673 472.002C920.557 449.363 858.981 363.651 858.981 363.651C858.981 363.651 879.371 404.368 888.145 453.079C900.667 466.881 924.741 484.96 966.083 487.614C967.582 482.868 970.392 477.403 970.673 472.002Z" fill="url(#paint59_linear_203_84)"/>
<path d="M858.981 363.651C866.788 375.735 872.72 389.005 877.779 402.432C885.897 424.54 891.393 447.833 892.049 471.439C892.08 473.344 892.08 475.405 892.049 477.341C891.986 479.183 891.893 481.369 891.768 483.243C890.768 478.09 889.894 472.969 888.833 467.911C881.838 432.346 870.691 397.936 858.981 363.651Z" fill="url(#paint60_linear_203_84)"/>
<path d="M993.556 475.749C1000.86 475.405 1008.23 475.499 1015.13 473.625C1020.13 472.251 1024.22 469.472 1026.22 464.57C1026.94 462.946 1027.4 461.167 1027.9 459.293C1028.43 461.042 1028.62 462.915 1028.5 464.757C1028.25 469.035 1025.72 473.219 1022.1 475.561C1014.04 480.838 1001.8 479.808 993.556 475.749Z" fill="#E7A692"/>
<path d="M982.533 481.151C992.869 484.46 1003.45 488.207 1014.29 487.239C1020.1 486.709 1025.28 483.898 1028.75 479.152C1030.21 477.247 1031.37 475.093 1032.52 472.845C1032.18 476.717 1030.9 480.526 1028.62 483.68C1017.76 498.168 994.336 490.737 982.533 481.151Z" fill="#E7A692"/>
<path d="M789.069 172.741C789.069 172.741 794.627 200.5 795.938 209.649C797.25 218.798 827.039 220.328 821.762 183.826C816.453 147.324 788.413 148.386 789.069 172.741Z" fill="#B7B7CF"/>
<path d="M804.245 155.692C800.31 158.284 797.625 163.655 797.843 171.399C797.843 171.399 803.402 199.158 804.713 208.306C805.119 211.023 808.054 213.084 811.832 213.646C818.577 210.43 824.354 201.656 821.762 183.857C819.201 166.402 811.52 157.566 804.245 155.692Z" fill="#E7E7F1"/>
<path d="M908.41 627.721C910.065 623.88 912.813 618.416 916.029 611.827C903.57 620.195 888.582 627.814 870.534 633.747C783.104 662.474 650.71 646.862 665.698 568.799C672.911 531.173 665.917 496.201 656.705 470.034C626.011 487.364 615.207 514.78 621.14 534.857C629.883 564.428 632.787 615.637 632.787 615.637C637.377 653.512 706.478 658.103 749.35 661.444C792.253 664.753 899.261 648.954 908.41 627.721Z" fill="url(#paint61_linear_203_84)"/>
<defs>
<linearGradient id="paint0_linear_203_84" x1="800" y1="-74.4799" x2="800" y2="834.48" gradientUnits="userSpaceOnUse">
<stop offset="0.0239582" stop-color="#D84CEB"/>
<stop offset="1" stop-color="#7935D9"/>
</linearGradient>
<linearGradient id="paint1_linear_203_84" x1="797.685" y1="467.817" x2="797.685" y2="503.227" gradientUnits="userSpaceOnUse">
<stop stop-color="white"/>
<stop offset="1" stop-color="#9090DE"/>
</linearGradient>
<linearGradient id="paint2_linear_203_84" x1="1179" y1="403" x2="1179.27" y2="460.042" gradientUnits="userSpaceOnUse">
<stop stop-color="#F8F9FF"/>
<stop offset="0.0001" stop-color="#E9ECFF"/>
<stop offset="1" stop-color="#B8C8FF"/>
</linearGradient>
<linearGradient id="paint3_linear_203_84" x1="1175.66" y1="372.269" x2="1175.66" y2="410.176" gradientUnits="userSpaceOnUse">
<stop stop-color="#E5E8FF"/>
<stop offset="0.0001" stop-color="#E9ECFF"/>
<stop offset="1" stop-color="#B8C8FF"/>
</linearGradient>
<linearGradient id="paint4_linear_203_84" x1="628.18" y1="381.761" x2="628.18" y2="446.928" gradientUnits="userSpaceOnUse">
<stop stop-color="#E5E8FF"/>
<stop offset="0.0001" stop-color="#E9ECFF"/>
<stop offset="1" stop-color="#B8C8FF"/>
</linearGradient>
<linearGradient id="paint5_linear_203_84" x1="463.8" y1="407.219" x2="503.815" y2="378.597" gradientUnits="userSpaceOnUse">
<stop offset="0.184024" stop-color="#03AB8D"/>
<stop offset="1" stop-color="#67FFD2"/>
</linearGradient>
<linearGradient id="paint6_linear_203_84" x1="453.824" y1="429.972" x2="493.61" y2="402.066" gradientUnits="userSpaceOnUse">
<stop offset="0.184024" stop-color="#03AB8D"/>
<stop offset="1" stop-color="#67FFD2"/>
</linearGradient>
<linearGradient id="paint7_linear_203_84" x1="465.841" y1="423.525" x2="506.025" y2="387.384" gradientUnits="userSpaceOnUse">
<stop offset="0.184024" stop-color="#03AB8D"/>
<stop offset="1" stop-color="#67FFD2"/>
</linearGradient>
<linearGradient id="paint8_linear_203_84" x1="430" y1="440" x2="511" y2="440.5" gradientUnits="userSpaceOnUse">
<stop stop-color="#8585FC"/>
<stop offset="1" stop-color="white"/>
</linearGradient>
<linearGradient id="paint9_linear_203_84" x1="444.859" y1="420.636" x2="444.859" y2="468.005" gradientUnits="userSpaceOnUse">
<stop stop-color="white"/>
<stop offset="1" stop-color="#888EF6"/>
</linearGradient>
<linearGradient id="paint10_linear_203_84" x1="1083" y1="448" x2="1153.5" y2="445.5" gradientUnits="userSpaceOnUse">
<stop stop-color="#F0C4AB"/>
<stop offset="1" stop-color="#FFFDF8"/>
</linearGradient>
<linearGradient id="paint11_linear_203_84" x1="1085.5" y1="426" x2="1112.5" y2="471.5" gradientUnits="userSpaceOnUse">
<stop stop-color="white"/>
<stop offset="1" stop-color="#FFCCA7"/>
</linearGradient>
<linearGradient id="paint12_linear_203_84" x1="1142.63" y1="185.575" x2="1142.63" y2="198.127" gradientUnits="userSpaceOnUse">
<stop stop-color="#E5E8FF"/>
<stop offset="0.0001" stop-color="#E9ECFF"/>
<stop offset="1" stop-color="#B8C8FF"/>
</linearGradient>
<linearGradient id="paint13_linear_203_84" x1="1136.57" y1="299.269" x2="1148.79" y2="302.154" gradientUnits="userSpaceOnUse">
<stop stop-color="#E5E8FF"/>
<stop offset="0.0001" stop-color="#E9ECFF"/>
<stop offset="1" stop-color="#B8C8FF"/>
</linearGradient>
<linearGradient id="paint14_linear_203_84" x1="1161.59" y1="296.169" x2="1170.47" y2="305.045" gradientUnits="userSpaceOnUse">
<stop stop-color="#E5E8FF"/>
<stop offset="0.0001" stop-color="#E9ECFF"/>
<stop offset="1" stop-color="#B8C8FF"/>
</linearGradient>
<linearGradient id="paint15_linear_203_84" x1="1241.25" y1="296.171" x2="1250.12" y2="305.046" gradientUnits="userSpaceOnUse">
<stop stop-color="#E5E8FF"/>
<stop offset="0.0001" stop-color="#E9ECFF"/>
<stop offset="1" stop-color="#B8C8FF"/>
</linearGradient>
<linearGradient id="paint16_linear_203_84" x1="901.775" y1="136.864" x2="901.775" y2="338.359" gradientUnits="userSpaceOnUse">
<stop stop-color="#E5E8FF"/>
<stop offset="0.0001" stop-color="#E9ECFF"/>
<stop offset="1" stop-color="#B8C8FF"/>
</linearGradient>
<linearGradient id="paint17_linear_203_84" x1="912.157" y1="281.872" x2="912.157" y2="303.73" gradientUnits="userSpaceOnUse">
<stop stop-color="#E5E8FF"/>
<stop offset="0.0001" stop-color="#E9ECFF"/>
<stop offset="1" stop-color="#B8C8FF"/>
</linearGradient>
<linearGradient id="paint18_linear_203_84" x1="912.157" y1="255.019" x2="912.157" y2="276.877" gradientUnits="userSpaceOnUse">
<stop stop-color="#E5E8FF"/>
<stop offset="0.0001" stop-color="#E9ECFF"/>
<stop offset="1" stop-color="#B8C8FF"/>
</linearGradient>
<linearGradient id="paint19_linear_203_84" x1="826.85" y1="158.815" x2="826.85" y2="197.44" gradientUnits="userSpaceOnUse">
<stop stop-color="#E5E8FF"/>
<stop offset="0.0001" stop-color="#E9ECFF"/>
<stop offset="1" stop-color="#B8C8FF"/>
</linearGradient>
<linearGradient id="paint20_linear_203_84" x1="826.85" y1="205.153" x2="826.85" y2="216.925" gradientUnits="userSpaceOnUse">
<stop stop-color="#E5E8FF"/>
<stop offset="0.0001" stop-color="#E9ECFF"/>
<stop offset="1" stop-color="#B8C8FF"/>
</linearGradient>
<linearGradient id="paint21_linear_203_84" x1="937.402" y1="236.346" x2="937.402" y2="243.559" gradientUnits="userSpaceOnUse">
<stop stop-color="#E5E8FF"/>
<stop offset="0.0001" stop-color="#E9ECFF"/>
<stop offset="1" stop-color="#B8C8FF"/>
</linearGradient>
<linearGradient id="paint22_linear_203_84" x1="826.85" y1="223.201" x2="826.85" y2="244.121" gradientUnits="userSpaceOnUse">
<stop stop-color="#E5E8FF"/>
<stop offset="0.0001" stop-color="#E9ECFF"/>
<stop offset="1" stop-color="#B8C8FF"/>
</linearGradient>
<linearGradient id="paint23_linear_203_84" x1="889.659" y1="236.346" x2="889.659" y2="243.559" gradientUnits="userSpaceOnUse">
<stop stop-color="#E5E8FF"/>
<stop offset="0.0001" stop-color="#E9ECFF"/>
<stop offset="1" stop-color="#B8C8FF"/>
</linearGradient>
<linearGradient id="paint24_linear_203_84" x1="1017" y1="208.533" x2="1041" y2="208.533" gradientUnits="userSpaceOnUse">
<stop stop-color="#D97AFA"/>
<stop offset="1" stop-color="#F3D2FF"/>
</linearGradient>
<linearGradient id="paint25_linear_203_84" x1="1030" y1="188.5" x2="1054" y2="187" gradientUnits="userSpaceOnUse">
<stop stop-color="#0099F9"/>
<stop offset="1" stop-color="#D7EFFF"/>
</linearGradient>
<linearGradient id="paint26_linear_203_84" x1="1004" y1="189" x2="1029.5" y2="189" gradientUnits="userSpaceOnUse">
<stop stop-color="#57F788"/>
<stop offset="1" stop-color="#CBFFDB"/>
</linearGradient>
<linearGradient id="paint27_linear_203_84" x1="508.527" y1="124.967" x2="508.527" y2="326.462" gradientUnits="userSpaceOnUse">
<stop stop-color="#E5E8FF"/>
<stop offset="0.0001" stop-color="#E9ECFF"/>
<stop offset="1" stop-color="#B8C8FF"/>
</linearGradient>
<linearGradient id="paint28_linear_203_84" x1="644.62" y1="274.66" x2="644.62" y2="297.547" gradientUnits="userSpaceOnUse">
<stop stop-color="#E5E8FF"/>
<stop offset="0.0001" stop-color="#E9ECFF"/>
<stop offset="1" stop-color="#B8C8FF"/>
</linearGradient>
<linearGradient id="paint29_linear_203_84" x1="483.765" y1="248.431" x2="483.765" y2="297.142" gradientUnits="userSpaceOnUse">
<stop stop-color="#E5E8FF"/>
<stop offset="0.0001" stop-color="#E9ECFF"/>
<stop offset="1" stop-color="#B8C8FF"/>
</linearGradient>
<linearGradient id="paint30_linear_203_84" x1="645.104" y1="150.603" x2="645.104" y2="265.105" gradientUnits="userSpaceOnUse">
<stop stop-color="#E5E8FF"/>
<stop offset="0.0001" stop-color="#E9ECFF"/>
<stop offset="1" stop-color="#B8C8FF"/>
</linearGradient>
<linearGradient id="paint31_linear_203_84" x1="364.907" y1="141.11" x2="364.907" y2="149.666" gradientUnits="userSpaceOnUse">
<stop stop-color="#E5E8FF"/>
<stop offset="0.0001" stop-color="#E9ECFF"/>
<stop offset="1" stop-color="#B8C8FF"/>
</linearGradient>
<linearGradient id="paint32_linear_203_84" x1="381.768" y1="141.11" x2="381.768" y2="149.666" gradientUnits="userSpaceOnUse">
<stop stop-color="#E5E8FF"/>
<stop offset="0.0001" stop-color="#E9ECFF"/>
<stop offset="1" stop-color="#B8C8FF"/>
</linearGradient>
<linearGradient id="paint33_linear_203_84" x1="399.66" y1="141.11" x2="399.66" y2="149.666" gradientUnits="userSpaceOnUse">
<stop stop-color="#E5E8FF"/>
<stop offset="0.0001" stop-color="#E9ECFF"/>
<stop offset="1" stop-color="#B8C8FF"/>
</linearGradient>
<linearGradient id="paint34_linear_203_84" x1="419.863" y1="141.11" x2="419.863" y2="149.666" gradientUnits="userSpaceOnUse">
<stop stop-color="#E5E8FF"/>
<stop offset="0.0001" stop-color="#E9ECFF"/>
<stop offset="1" stop-color="#B8C8FF"/>
</linearGradient>
<linearGradient id="paint35_linear_203_84" x1="440.659" y1="141.11" x2="440.659" y2="149.666" gradientUnits="userSpaceOnUse">
<stop stop-color="#E5E8FF"/>
<stop offset="0.0001" stop-color="#E9ECFF"/>
<stop offset="1" stop-color="#B8C8FF"/>
</linearGradient>
<linearGradient id="paint36_linear_203_84" x1="370.762" y1="186.043" x2="370.762" y2="203.342" gradientUnits="userSpaceOnUse">
<stop stop-color="#E5E8FF"/>
<stop offset="0.0001" stop-color="#E9ECFF"/>
<stop offset="1" stop-color="#B8C8FF"/>
</linearGradient>
<linearGradient id="paint37_linear_203_84" x1="370.762" y1="212.053" x2="370.762" y2="229.352" gradientUnits="userSpaceOnUse">
<stop stop-color="#E5E8FF"/>
<stop offset="0.0001" stop-color="#E9ECFF"/>
<stop offset="1" stop-color="#B8C8FF"/>
</linearGradient>
<linearGradient id="paint38_linear_203_84" x1="404.236" y1="186.043" x2="404.236" y2="203.342" gradientUnits="userSpaceOnUse">
<stop stop-color="#E5E8FF"/>
<stop offset="0.0001" stop-color="#E9ECFF"/>
<stop offset="1" stop-color="#B8C8FF"/>
</linearGradient>
<linearGradient id="paint39_linear_203_84" x1="404.236" y1="212.053" x2="404.236" y2="229.352" gradientUnits="userSpaceOnUse">
<stop stop-color="#E5E8FF"/>
<stop offset="0.0001" stop-color="#E9ECFF"/>
<stop offset="1" stop-color="#B8C8FF"/>
</linearGradient>
<linearGradient id="paint40_linear_203_84" x1="437.146" y1="186.043" x2="437.146" y2="203.342" gradientUnits="userSpaceOnUse">
<stop stop-color="#E5E8FF"/>
<stop offset="0.0001" stop-color="#E9ECFF"/>
<stop offset="1" stop-color="#B8C8FF"/>
</linearGradient>
<linearGradient id="paint41_linear_203_84" x1="437.146" y1="212.053" x2="437.146" y2="229.352" gradientUnits="userSpaceOnUse">
<stop stop-color="#E5E8FF"/>
<stop offset="0.0001" stop-color="#E9ECFF"/>
<stop offset="1" stop-color="#B8C8FF"/>
</linearGradient>
<linearGradient id="paint42_linear_203_84" x1="471.681" y1="186.043" x2="471.681" y2="203.342" gradientUnits="userSpaceOnUse">
<stop stop-color="#E5E8FF"/>
<stop offset="0.0001" stop-color="#E9ECFF"/>
<stop offset="1" stop-color="#B8C8FF"/>
</linearGradient>
<linearGradient id="paint43_linear_203_84" x1="471.681" y1="212.053" x2="471.681" y2="229.352" gradientUnits="userSpaceOnUse">
<stop stop-color="#E5E8FF"/>
<stop offset="0.0001" stop-color="#E9ECFF"/>
<stop offset="1" stop-color="#B8C8FF"/>
</linearGradient>
<linearGradient id="paint44_linear_203_84" x1="370.762" y1="162.968" x2="370.762" y2="180.266" gradientUnits="userSpaceOnUse">
<stop stop-color="#E5E8FF"/>
<stop offset="0.0001" stop-color="#E9ECFF"/>
<stop offset="1" stop-color="#B8C8FF"/>
</linearGradient>
<linearGradient id="paint45_linear_203_84" x1="404.236" y1="162.968" x2="404.236" y2="180.266" gradientUnits="userSpaceOnUse">
<stop stop-color="#E5E8FF"/>
<stop offset="0.0001" stop-color="#E9ECFF"/>
<stop offset="1" stop-color="#B8C8FF"/>
</linearGradient>
<linearGradient id="paint46_linear_203_84" x1="437.146" y1="162.968" x2="437.146" y2="180.266" gradientUnits="userSpaceOnUse">
<stop stop-color="#E5E8FF"/>
<stop offset="0.0001" stop-color="#E9ECFF"/>
<stop offset="1" stop-color="#B8C8FF"/>
</linearGradient>
<linearGradient id="paint47_linear_203_84" x1="471.681" y1="162.968" x2="471.681" y2="180.266" gradientUnits="userSpaceOnUse">
<stop stop-color="#E5E8FF"/>
<stop offset="0.0001" stop-color="#E9ECFF"/>
<stop offset="1" stop-color="#B8C8FF"/>
</linearGradient>
<linearGradient id="paint48_linear_203_84" x1="850" y1="153" x2="613" y2="491" gradientUnits="userSpaceOnUse">
<stop stop-color="white"/>
<stop offset="0.446875" stop-color="#FFC4C4"/>
<stop offset="0.952083" stop-color="#FFC4C4"/>
</linearGradient>
<linearGradient id="paint49_linear_203_84" x1="824" y1="157" x2="774.5" y2="247.5" gradientUnits="userSpaceOnUse">
<stop stop-color="white"/>
<stop offset="1" stop-color="#FFB3B3"/>
</linearGradient>
<linearGradient id="paint50_linear_203_84" x1="1033.5" y1="381.5" x2="1018.5" y2="428.5" gradientUnits="userSpaceOnUse">
<stop stop-color="white"/>
<stop offset="0.84427" stop-color="#FFC4C4"/>
</linearGradient>
<linearGradient id="paint51_linear_203_84" x1="1061" y1="361" x2="1000.77" y2="463.309" gradientUnits="userSpaceOnUse">
<stop stop-color="white"/>
<stop offset="0.84427" stop-color="#FFC4C4"/>
</linearGradient>
<linearGradient id="paint52_linear_203_84" x1="919.233" y1="304.012" x2="919.233" y2="463.699" gradientUnits="userSpaceOnUse">
<stop stop-color="white"/>
<stop offset="0.84427" stop-color="#FFC4C4"/>
</linearGradient>
<linearGradient id="paint53_linear_203_84" x1="767.84" y1="270.879" x2="767.84" y2="604.996" gradientUnits="userSpaceOnUse">
<stop stop-color="#FFBA6B"/>
<stop offset="1" stop-color="#FF9314"/>
</linearGradient>
<linearGradient id="paint54_linear_203_84" x1="711.766" y1="362.343" x2="729.074" y2="605.549" gradientUnits="userSpaceOnUse">
<stop stop-color="#FFC27C"/>
<stop offset="1" stop-color="#FFA743"/>
</linearGradient>
<linearGradient id="paint55_linear_203_84" x1="645.993" y1="295.893" x2="645.993" y2="492.46" gradientUnits="userSpaceOnUse">
<stop stop-color="#FFBA6B"/>
<stop offset="1" stop-color="#FF9314"/>
</linearGradient>
<linearGradient id="paint56_linear_203_84" x1="666.127" y1="414.325" x2="683.252" y2="486.569" gradientUnits="userSpaceOnUse">
<stop stop-color="#FFC27C"/>
<stop offset="1" stop-color="#FFA743"/>
</linearGradient>
<linearGradient id="paint57_linear_203_84" x1="890.66" y1="285.432" x2="890.66" y2="487.614" gradientUnits="userSpaceOnUse">
<stop stop-color="#FFBA6B"/>
<stop offset="1" stop-color="#FF9314"/>
</linearGradient>
<linearGradient id="paint58_linear_203_84" x1="778.753" y1="453.099" x2="778.753" y2="661.859" gradientUnits="userSpaceOnUse">
<stop stop-color="#E1E1FF"/>
<stop offset="1" stop-color="#9D9DDC"/>
</linearGradient>
<linearGradient id="paint59_linear_203_84" x1="780.533" y1="278.365" x2="793.168" y2="490.924" gradientUnits="userSpaceOnUse">
<stop stop-color="#FFC27C"/>
<stop offset="1" stop-color="#FFA743"/>
</linearGradient>
<linearGradient id="paint60_linear_203_84" x1="866.249" y1="367.787" x2="893.106" y2="478.997" gradientUnits="userSpaceOnUse">
<stop stop-color="#FFC27C"/>
<stop offset="1" stop-color="#FFA743"/>
</linearGradient>
<linearGradient id="paint61_linear_203_84" x1="681" y1="474" x2="767.805" y2="661.883" gradientUnits="userSpaceOnUse">
<stop stop-color="white" stop-opacity="0"/>
<stop offset="1" stop-color="#9DA1F1"/>
</linearGradient>
</defs>
</svg>
