<svg width="1600" height="760" viewBox="0 0 1600 760" fill="none" xmlns="http://www.w3.org/2000/svg">
<g clip-path="url(#clip0_118_563)">
<rect width="1600" height="760" fill="white"/>
<rect width="1600" height="760" fill="url(#paint0_linear_118_563)"/>
<g clip-path="url(#clip1_118_563)">
<path d="M1391.38 704.81C1389.78 704.857 1388.21 704.457 1386.84 703.655C1385.58 702.88 1384.57 701.757 1383.94 700.421C1383.24 698.917 1382.89 697.273 1382.93 695.614C1382.89 693.954 1383.24 692.308 1383.94 690.802C1384.57 689.467 1385.58 688.344 1386.84 687.569C1388.21 686.767 1389.78 686.366 1391.38 686.413C1393.19 686.347 1394.98 686.882 1396.47 687.938C1397.84 688.968 1398.85 690.409 1399.34 692.052L1396.36 692.875C1396.08 691.814 1395.46 690.87 1394.61 690.177C1393.67 689.496 1392.53 689.158 1391.38 689.219C1390.33 689.18 1389.3 689.458 1388.41 690.015C1387.61 690.568 1386.99 691.352 1386.64 692.264C1386.22 693.342 1386.01 694.49 1386.03 695.645C1386 696.799 1386.21 697.947 1386.62 699.023C1386.98 699.938 1387.61 700.722 1388.42 701.271C1389.31 701.828 1390.34 702.106 1391.39 702.067C1392.54 702.118 1393.68 701.772 1394.6 701.087C1395.46 700.393 1396.07 699.449 1396.36 698.389L1399.34 699.171C1398.85 700.812 1397.85 702.253 1396.48 703.286C1395 704.345 1393.2 704.881 1391.38 704.81Z" fill="white"/>
<path d="M1402.59 704.446V686.778H1409.88C1410.06 686.778 1410.28 686.778 1410.55 686.778C1410.8 686.789 1411.05 686.816 1411.3 686.859C1412.22 686.973 1413.09 687.325 1413.83 687.879C1414.49 688.396 1415.01 689.079 1415.32 689.858C1415.65 690.705 1415.81 691.607 1415.8 692.516C1415.83 693.836 1415.45 695.134 1414.71 696.226C1414.31 696.758 1413.81 697.204 1413.23 697.534C1412.66 697.864 1412.02 698.073 1411.36 698.146L1410.1 698.254H1405.55V704.446H1402.59ZM1405.55 695.515H1409.76C1409.93 695.515 1410.11 695.515 1410.32 695.488C1410.51 695.475 1410.7 695.442 1410.88 695.389C1411.32 695.297 1411.73 695.071 1412.04 694.742C1412.32 694.44 1412.52 694.078 1412.64 693.685C1412.75 693.312 1412.81 692.924 1412.82 692.534C1412.81 692.141 1412.76 691.75 1412.64 691.373C1412.52 690.978 1412.32 690.615 1412.04 690.312C1411.73 689.986 1411.32 689.762 1410.88 689.669C1410.69 689.621 1410.51 689.591 1410.32 689.579C1410.11 689.579 1409.93 689.579 1409.76 689.579H1405.55V695.515ZM1412.74 704.446L1409.26 697.251L1412.26 696.59L1416.09 704.442L1412.74 704.446Z" fill="white"/>
<path d="M1419.35 704.446V686.778H1430.76V689.552H1422.3V693.905H1429.28V696.68H1422.3V701.671H1430.76V704.446H1419.35Z" fill="white"/>
<path d="M1433.04 704.446L1438.6 686.778H1442.93L1448.5 704.446H1445.46L1440.41 688.594H1441.07L1436.08 704.446H1433.04ZM1436.14 700.615V697.858H1445.41V700.615H1436.14Z" fill="white"/>
<path d="M1454.05 704.446V689.552H1448.33V686.778H1462.72V689.552H1457V704.446H1454.05Z" fill="white"/>
<path d="M1465.49 704.446V686.778H1468.45V704.446H1465.49Z" fill="white"/>
<path d="M1476.69 704.446L1471.1 686.778H1474.14L1478.8 701.573L1483.53 686.778H1486.58L1481 704.446H1476.69Z" fill="white"/>
<path d="M1488.97 704.446V686.778H1500.38V689.552H1491.93V693.905H1498.91V696.68H1491.93V701.671H1500.38V704.446H1488.97Z" fill="white"/>
<path d="M1504.12 704.446V686.778H1507.08V704.446H1504.12Z" fill="white"/>
<path d="M1515.58 704.446V689.552H1509.87V686.778H1524.26V689.552H1518.54V704.446H1515.58Z" fill="white"/>
<path d="M1526.78 704.446V686.778H1538.19V689.552H1529.76V693.905H1536.73V696.68H1529.76V701.671H1538.21V704.446H1526.78Z" fill="white"/>
<path d="M1541.7 704.446V686.778H1544.36L1550.47 699.293L1556.58 686.778H1559.24V704.446H1556.48V693.123L1551.06 704.446H1549.88L1544.48 693.123V704.446H1541.7Z" fill="white"/>
<path d="M1341.68 710.319L1328.91 702.948V717.685L1341.68 710.319Z" fill="white" fill-opacity="0.48"/>
<path d="M1367.2 695.583L1354.43 688.217V702.949L1367.2 695.583Z" fill="white" fill-opacity="0.47"/>
<path d="M1341.68 680.846L1328.91 673.48V688.217L1341.68 680.846Z" fill="white" fill-opacity="0.48"/>
<path d="M1328.91 673.48L1318.7 679.376C1317.93 679.822 1317.28 680.466 1316.83 681.243C1316.38 682.019 1316.15 682.9 1316.15 683.796V707.369C1316.15 708.266 1316.39 709.147 1316.83 709.924C1317.28 710.701 1317.93 711.346 1318.7 711.794L1328.91 717.685V673.48Z" fill="url(#paint1_linear_118_563)"/>
<path d="M1367.2 707.369V695.583L1328.91 717.685L1339.12 723.58C1339.9 724.029 1340.78 724.265 1341.67 724.265C1342.57 724.265 1343.45 724.029 1344.22 723.58L1364.65 711.794C1365.42 711.345 1366.07 710.7 1366.51 709.923C1366.96 709.146 1367.2 708.265 1367.2 707.369Z" fill="url(#paint2_linear_118_563)"/>
<path d="M1344.32 667.634C1343.55 667.19 1342.68 666.956 1341.79 666.956C1340.9 666.956 1340.03 667.19 1339.26 667.634L1329.13 673.48L1367.1 695.407V683.715C1367.1 682.826 1366.87 681.952 1366.42 681.181C1365.98 680.411 1365.34 679.771 1364.57 679.326L1344.32 667.634Z" fill="url(#paint3_linear_118_563)"/>
</g>
<path fill-rule="evenodd" clip-rule="evenodd" d="M1089.45 624.779C1278.26 531.489 1211.85 352.162 1142.95 250.457C1046.49 108.055 818.54 56.8704 724.251 170.487C596.27 324.709 466.829 288.224 422.674 388.809C378.519 489.394 459.517 587.717 505.086 624.981C583.112 621.697 687.621 619.695 799.754 619.695C911.893 619.701 1012.03 621.617 1089.45 624.779ZM630.608 227.933C581.196 259.564 499.471 284.074 472.329 250.446C452.055 225.324 477.032 178.185 525.949 142.451C574.83 106.739 640.327 85.1201 676.021 111.419C718.387 142.624 668.663 203.573 630.608 227.933Z" fill="white" fill-opacity="0.16"/>
<path fill-rule="evenodd" clip-rule="evenodd" d="M1176.43 354.563C1177.57 357.679 1175.97 361.13 1172.85 362.273C1169.74 363.416 1166.29 361.817 1165.14 358.701C1159.38 343.032 1152.44 327.687 1144.79 313.016C1136.32 296.753 1127.07 281.466 1117.66 267.58C1109.37 255.34 1099.96 243.826 1089.65 233.103C1078.99 222.006 1067.37 211.779 1055.06 202.47C1039.77 190.916 1023.24 180.661 1005.91 171.958C988.633 163.278 970.483 156.088 951.911 150.64C948.731 149.705 946.913 146.369 947.848 143.189C948.783 140.009 952.119 138.191 955.299 139.126C974.494 144.753 993.302 152.215 1011.27 161.241C1029.36 170.331 1046.52 180.967 1062.3 192.884C1075.07 202.534 1087.16 213.187 1098.3 224.782C1109.01 235.931 1118.86 247.976 1127.58 260.857C1137.38 275.314 1146.89 291.017 1155.46 307.465C1163.31 322.521 1170.45 338.334 1176.43 354.563ZM908.062 129.148C911.346 129.563 913.672 132.565 913.256 135.843C912.841 139.126 909.84 141.452 906.562 141.037C892.422 139.207 877.816 138.451 863.238 139.08C849.837 139.657 836.46 141.417 823.503 144.597C820.283 145.388 817.034 143.42 816.243 140.2C815.453 136.979 817.421 133.73 820.641 132.94C834.365 129.569 848.533 127.705 862.724 127.093C877.966 126.441 893.253 127.232 908.062 129.148ZM578.923 303.858C581.935 302.467 585.502 303.783 586.887 306.795C588.278 309.808 586.962 313.374 583.949 314.759C572.153 320.19 560.668 325.015 549.195 329.834C538.652 334.266 528.102 338.698 518.101 343.228C511.239 346.333 504.417 349.577 497.977 353.085C491.553 356.583 485.309 360.444 479.457 364.864C476.808 366.861 473.045 366.336 471.043 363.687C469.046 361.038 469.571 357.275 472.214 355.273C478.487 350.54 485.245 346.362 492.24 342.553C499.212 338.756 506.229 335.414 513.16 332.275C523.814 327.45 534.179 323.093 544.538 318.741C556.207 313.842 567.882 308.936 578.923 303.858ZM453.92 372.719C456.009 370.151 459.789 369.764 462.357 371.847C464.925 373.937 465.312 377.717 463.229 380.285C460.73 383.349 458.433 386.622 456.326 390.113C454.203 393.628 452.321 397.269 450.653 401.073C449.332 404.108 445.794 405.499 442.758 404.172C439.723 402.85 438.332 399.312 439.659 396.277C441.587 391.891 443.705 387.776 446.036 383.909C448.374 380.025 451 376.303 453.92 372.719ZM673.223 137.649C673.962 140.881 671.942 144.101 668.71 144.84C665.478 145.578 662.258 143.558 661.519 140.327C661.358 139.611 660.982 138.953 660.492 138.347C659.822 137.522 658.911 136.743 657.918 136.01C653.867 133.032 648.748 131.439 643.323 130.741C635.838 129.783 627.729 130.527 620.798 131.751C610.987 133.482 601.043 136.547 591.388 140.448C580.377 144.897 569.712 150.455 559.999 156.382C557.171 158.108 553.478 157.213 551.752 154.385C550.027 151.557 550.921 147.864 553.749 146.138C563.964 139.9 575.235 134.036 586.921 129.31C597.35 125.091 608.101 121.778 618.726 119.903C626.552 118.523 635.861 117.704 644.817 118.852C652.135 119.793 659.182 122.044 665.005 126.332L665.028 126.355C666.736 127.613 668.381 129.05 669.789 130.781C671.388 132.738 672.611 134.994 673.223 137.649ZM526.573 165.466C529.118 163.354 532.892 163.7 535.01 166.239C537.122 168.784 536.776 172.558 534.237 174.676C527.669 180.124 521.263 186.178 515.538 192.654C510.477 198.379 505.964 204.415 502.38 210.631C500.735 213.499 497.071 214.486 494.202 212.841C491.334 211.196 490.347 207.532 491.992 204.663C496.014 197.686 501.006 190.992 506.558 184.713C512.699 177.764 519.555 171.289 526.573 165.466Z" fill="white" fill-opacity="0.36"/>
<path fill-rule="evenodd" clip-rule="evenodd" d="M523.335 624.254C527.767 582.067 513.039 588.935 493.054 560.281C484.807 548.456 485.153 537.871 490.895 525.267C494.664 516.997 498.49 506.702 493.925 497.999C488.968 488.557 479.422 488.13 470.275 486.11C446.786 480.928 439.29 461.831 427.465 443.611C424.406 438.896 420.17 434.609 414.757 433.229C388.7 426.61 379.426 469.051 389.906 485.77C396.45 496.215 406.7 503.175 413.348 513.679C419.287 523.069 419.183 530.484 418.087 541.011C416.344 557.73 424.7 573.41 436.277 584.785C442.845 591.243 450.111 597.274 454.808 605.365C459.737 613.854 467.516 620.889 476.583 626.297C491.08 625.57 506.708 624.883 523.335 624.254Z" fill="url(#paint4_linear_118_563)"/>
<path fill-rule="evenodd" clip-rule="evenodd" d="M512.606 624.675C503.384 615.407 495.743 606.583 489.29 598.111C489.002 590.776 489.931 582.938 492.084 574.622C489.354 581.057 486.855 587.059 485.851 593.494C471.585 573.745 463.661 555.947 457.082 539.009C459.794 528.038 464.919 516.986 472.45 505.853C464.786 514.198 458.986 523.473 455.039 533.676C445.101 507.446 437.16 483.04 412.073 456.325C422.547 471.33 429.957 485.054 435.982 498.212C426.991 493.341 417.244 490.173 406.729 488.69C419.136 492.383 429.738 497.474 438.545 503.949C448.16 526.029 454.519 546.771 465.894 569.624C456.874 564.719 447.086 561.527 436.531 560.039C449.296 563.842 460.152 569.117 469.103 575.857C477.102 590.931 487.519 607.033 502.604 625.085C505.888 624.947 509.224 624.808 512.606 624.675Z" fill="white" fill-opacity="0.36"/>
<path fill-rule="evenodd" clip-rule="evenodd" d="M505.623 624.963C496.233 597.937 487.94 606.23 466.108 593.084C456.782 587.474 453.792 580.035 453.919 569.514C454.006 562.612 453.509 554.29 447.686 549.685C441.373 544.693 434.632 547.382 427.678 548.836C409.828 552.582 398.805 541.703 385.052 532.775C381.497 530.467 377.249 528.816 373.083 529.555C353.016 533.104 359.561 565.388 371.917 573.693C379.639 578.887 388.861 580.503 396.675 585.702C403.658 590.348 405.845 595.513 408.304 603.149C412.205 615.274 422.778 623.521 434.268 627.786C435.047 628.074 435.832 628.357 436.623 628.64C456.464 627.283 479.641 626.054 505.623 624.963Z" fill="url(#paint5_linear_118_563)"/>
<path fill-rule="evenodd" clip-rule="evenodd" d="M485.77 625.847C481.967 624.081 478.4 622.28 475.053 620.451C472.606 615.459 470.863 609.746 469.819 603.311C469.9 608.62 469.998 613.555 471.267 618.321C455.356 609.105 444.432 599.248 434.701 589.575C433.23 581.127 433.403 571.875 435.215 561.816C432.456 569.988 431.273 578.218 431.654 586.517C416.765 571.454 403.814 557.038 378.283 546.367C390.119 553.489 399.44 560.679 407.635 567.911C399.924 567.345 392.203 568.193 384.469 570.45C394.194 569.14 403.087 569.348 411.161 571.085C424.561 583.371 435.302 595.745 450.162 608.026C442.417 607.449 434.661 608.291 426.899 610.559C436.9 609.209 446.03 609.474 454.283 611.344C460.683 616.354 467.874 621.346 476.317 626.309C479.416 626.159 482.573 626.003 485.77 625.847Z" fill="white" fill-opacity="0.36"/>
<path fill-rule="evenodd" clip-rule="evenodd" d="M1090.65 624.225C1080.98 583.654 1095.74 588.836 1111.39 559.265C1117.77 547.203 1116.23 537.317 1109.39 526.167C1104.91 518.855 1100.14 509.645 1103.43 500.942C1106.99 491.506 1115.9 489.982 1124.25 487.016C1145.69 479.404 1150.53 460.607 1159.53 442.128C1161.85 437.35 1165.34 432.825 1170.26 430.897C1193.94 421.629 1207.5 460.353 1199.6 477.268C1194.66 487.841 1185.84 495.569 1180.81 506.199C1176.3 515.704 1177.26 522.647 1179.5 532.394C1183.05 547.873 1177.01 563.559 1167.46 575.591C1162.03 582.419 1155.91 588.929 1152.43 597.066C1147.23 609.26 1136.23 619.354 1123.66 626.325C1113.55 625.812 1102.9 625.327 1091.74 624.86L1090.65 624.225Z" fill="url(#paint6_linear_118_563)"/>
<path fill-rule="evenodd" clip-rule="evenodd" d="M1097.94 625.131C1106.69 614.16 1113.64 603.939 1119.26 594.307C1118.69 587.388 1116.92 580.151 1113.95 572.602C1117.24 578.321 1120.28 583.66 1121.96 589.575C1133.08 569.376 1138.47 551.751 1142.69 535.09C1138.89 525.117 1132.81 515.352 1124.47 505.79C1132.62 512.715 1139.13 520.737 1144 529.844C1150.3 504.07 1154.96 480.252 1175.42 452.245C1167.32 467.55 1161.95 481.297 1157.8 494.345C1165.67 488.724 1174.46 484.604 1184.15 481.984C1172.93 486.912 1163.57 492.92 1156.05 500.03C1149.57 521.868 1145.98 542.067 1137.93 564.846C1145.83 559.184 1154.64 555.046 1164.38 552.415C1152.84 557.482 1143.26 563.703 1135.64 571.078C1129.42 587.318 1120.71 604.995 1107 625.541C1104.03 625.396 1101 625.264 1097.94 625.131Z" fill="white" fill-opacity="0.36"/>
<path fill-rule="evenodd" clip-rule="evenodd" d="M1079.73 624.393C1078.29 617.842 1081.78 612.787 1081.66 600.656C1081.59 592.836 1078.14 588.3 1071.68 584.601C1067.44 582.177 1062.55 578.876 1061.83 573.595C1061.06 567.87 1065.12 564.632 1068.5 560.829C1077.19 551.059 1074.52 540.284 1074.02 528.511C1073.88 525.47 1074.41 522.232 1076.35 519.9C1085.72 508.676 1103.05 524.338 1103.66 535.021C1104.06 541.692 1101.73 548.023 1102.09 554.752C1102.41 560.766 1104.78 563.992 1108.54 568.257C1114.53 575.038 1115.75 584.589 1114.23 593.275C1113.36 598.203 1112.06 603.172 1112.52 608.222C1113.05 613.941 1111.59 619.983 1108.93 625.616C1099.6 625.195 1089.86 624.779 1079.73 624.393Z" fill="url(#paint7_linear_118_563)"/>
<path fill-rule="evenodd" clip-rule="evenodd" d="M1094.54 624.987C1094.84 621.865 1095.04 618.893 1095.13 616.054C1092.97 612.735 1090.11 609.601 1086.57 606.635C1089.77 608.591 1092.75 610.427 1095.2 612.926C1095.29 599.704 1093.21 589.362 1090.81 579.828C1086.19 575.881 1080.49 572.666 1073.71 570.184C1079.68 571.402 1085.12 573.618 1090.04 576.833C1086.21 562.145 1082.07 548.906 1084.74 529.175C1084.83 539.101 1085.87 547.492 1087.33 555.191C1089.75 550.182 1093.04 545.68 1097.19 541.669C1092.91 547.256 1089.84 552.871 1087.99 558.521C1090.67 571.281 1094.35 582.414 1096.5 596.074C1098.92 591.041 1102.23 586.517 1106.39 582.494C1101.98 588.237 1098.86 594.019 1097.04 599.837C1098.01 607.27 1098.49 615.499 1098.12 625.132L1094.54 624.987Z" fill="white" fill-opacity="0.36"/>
<path fill-rule="evenodd" clip-rule="evenodd" d="M1182.36 429.501C1174.62 423.545 1174.84 417.705 1177.24 416.239C1179.65 414.767 1184.54 420.867 1183.28 429.287C1183.77 430.222 1184.26 431.157 1184.74 432.098C1188.74 440.033 1191.83 448.425 1194.05 457.029C1196.27 465.64 1197.59 474.481 1198.06 483.363C1198.52 492.251 1198.09 501.184 1196.81 509.991C1195.53 518.815 1193.36 527.518 1190.33 535.903C1187.29 544.289 1183.38 552.345 1178.62 559.888C1178.31 560.385 1177.52 559.94 1177.82 559.444C1178.39 558.526 1178.95 557.609 1179.5 556.68C1184 549.056 1187.65 540.942 1190.45 532.545C1193.23 524.194 1195.16 515.56 1196.23 506.823C1197.32 498.028 1197.51 489.123 1196.86 480.287C1196.2 471.503 1194.67 462.789 1192.27 454.317C1189.86 445.799 1186.57 437.534 1182.42 429.715C1182.39 429.64 1182.36 429.565 1182.36 429.501ZM1188.32 438.077C1188.32 438.077 1191.08 436.576 1193.38 434.291C1194.52 433.148 1195.52 431.815 1195.99 430.372C1196.46 428.93 1196.41 427.377 1195.36 425.917C1193.29 422.968 1191.27 424.359 1189.91 427.273C1189.21 428.733 1188.74 430.546 1188.42 432.45C1188.09 434.36 1188.08 436.299 1188.32 438.077ZM1187.95 443.681C1187.44 442.971 1186.82 442.296 1186.13 441.684C1185.43 441.084 1184.66 440.541 1183.86 440.068C1182.3 439.121 1180.56 438.51 1179.05 438.267C1176.02 437.783 1173.78 438.758 1174.54 441.551C1174.74 442.249 1175.07 442.803 1175.53 443.242C1175.98 443.675 1176.56 443.992 1177.22 444.212C1177.87 444.431 1178.61 444.564 1179.39 444.627C1180.15 444.696 1180.95 444.702 1181.74 444.668C1184.91 444.517 1187.95 443.681 1187.95 443.681ZM1193.53 452.441C1193.53 452.441 1196.45 451.287 1198.98 449.302C1200.25 448.309 1201.41 447.097 1202.07 445.724C1202.71 444.356 1202.81 442.827 1201.99 441.239C1200.29 438.077 1198.08 439.214 1196.42 441.92C1195.59 443.271 1194.79 445.037 1194.29 446.872C1194.04 447.79 1193.83 448.736 1193.68 449.683C1193.54 450.623 1193.48 451.553 1193.53 452.441ZM1192.49 457.958C1191.64 456.423 1190.32 455.009 1188.87 453.884C1187.38 452.77 1185.77 451.933 1184.31 451.501C1182.83 451.074 1181.49 451.039 1180.59 451.466C1179.69 451.893 1179.24 452.764 1179.42 454.225C1179.83 457.099 1183.01 457.964 1186.21 458.201C1189.39 458.426 1192.49 457.958 1192.49 457.958ZM1196.98 467.319C1196.98 467.319 1200.02 466.511 1202.78 464.832C1204.17 463.989 1205.45 462.927 1206.25 461.646C1207.03 460.371 1207.38 458.853 1206.71 457.197C1205.4 453.867 1203.1 454.727 1201.09 457.22C1200.07 458.466 1199.17 460.105 1198.4 461.883C1198.02 462.766 1197.71 463.683 1197.47 464.595C1197.24 465.507 1197.04 466.43 1196.98 467.319ZM1195.31 472.675C1194.97 471.867 1194.53 471.065 1194 470.314C1193.47 469.558 1192.84 468.854 1192.18 468.208C1191.52 467.562 1190.81 466.99 1190.1 466.5C1189.37 466.009 1188.63 465.611 1187.92 465.311C1185.08 464.116 1182.68 464.526 1182.77 467.44C1182.8 470.366 1185.94 471.578 1189.04 472.19C1192.17 472.79 1195.31 472.675 1195.31 472.675ZM1198.51 480.172C1198.51 480.172 1199.29 480.05 1200.43 479.768C1201.57 479.485 1203.08 479.035 1204.53 478.354C1205.99 477.678 1207.4 476.767 1208.35 475.584C1209.32 474.4 1209.73 472.946 1209.31 471.221C1208.89 469.495 1208.01 468.779 1207.02 468.779C1206.02 468.774 1204.86 469.489 1203.73 470.603C1202.58 471.723 1201.44 473.252 1200.52 474.926C1199.6 476.605 1198.83 478.423 1198.51 480.172ZM484.951 500.192C491.12 492.614 489.562 486.982 486.884 486.104C484.2 485.227 480.847 492.285 484.016 500.192C483.744 501.213 483.485 502.235 483.237 503.262C481.171 511.907 480.08 520.783 479.901 529.665C479.728 538.558 480.461 547.463 482.053 556.212C483.652 564.973 486.116 573.566 489.383 581.842C492.661 590.135 496.764 598.105 501.647 605.573C506.523 613.035 512.185 619.977 518.55 626.222C518.971 626.632 519.647 626.02 519.225 625.604C518.458 624.842 517.702 624.081 516.957 623.302C510.828 616.919 505.404 609.855 500.758 602.329C496.129 594.838 492.268 586.88 489.215 578.627C486.139 570.317 483.894 561.695 482.509 552.946C481.13 544.249 480.616 535.413 481.003 526.618C481.39 517.776 482.7 508.975 484.933 500.411C484.962 500.324 484.968 500.255 484.951 500.192ZM481.124 509.904C481.124 509.904 478.089 509.085 475.324 507.382C473.951 506.534 472.675 505.461 471.885 504.168C471.094 502.875 470.788 501.352 471.475 499.684C472.802 496.337 475.099 497.231 477.09 499.753C478.1 501.017 478.983 502.668 479.734 504.451C480.49 506.234 480.951 508.115 481.124 509.904ZM482.769 515.272C483.11 514.464 483.548 513.661 484.079 512.911C484.627 512.161 485.251 511.457 485.914 510.822C487.219 509.541 488.771 508.548 490.191 507.96C493.03 506.788 495.431 507.221 495.327 510.118C495.292 510.839 495.096 511.457 494.756 511.988C494.41 512.513 493.919 512.952 493.33 513.321C492.742 513.69 492.055 513.985 491.316 514.227C490.589 514.469 489.81 514.66 489.031 514.804C485.914 515.387 482.769 515.272 482.769 515.272ZM479.358 525.083C479.358 525.083 476.248 524.632 473.328 523.282C471.867 522.607 470.454 521.701 469.495 520.512C468.555 519.323 468.116 517.863 468.543 516.126C469.467 512.657 471.885 513.257 474.13 515.508C475.249 516.634 476.421 518.169 477.338 519.842C477.789 520.679 478.221 521.551 478.574 522.434C478.926 523.311 479.197 524.205 479.358 525.083ZM481.638 530.207C482.117 528.516 483.075 526.837 484.223 525.412C485.418 523.986 486.797 522.803 488.119 522.041C489.458 521.285 490.756 520.945 491.726 521.152C492.701 521.36 493.336 522.11 493.498 523.565C493.757 526.456 490.866 528.032 487.807 528.995C484.754 529.953 481.638 530.207 481.638 530.207ZM479.422 540.353C479.422 540.353 476.277 540.266 473.201 539.268C471.654 538.766 470.159 538.033 469.092 536.965C468.035 535.898 467.354 534.507 467.626 532.741C468.128 529.197 470.569 529.503 473.102 531.471C474.378 532.452 475.636 533.837 476.79 535.39C477.362 536.163 477.875 536.983 478.314 537.819C478.741 538.651 479.151 539.505 479.422 540.353ZM482.267 545.183C482.411 544.318 482.659 543.441 483 542.581C483.34 541.727 483.796 540.89 484.293 540.116C484.795 539.337 485.343 538.616 485.926 537.975C486.526 537.335 487.149 536.769 487.773 536.313C490.26 534.495 492.701 534.345 493.273 537.202C493.919 540.053 491.143 541.957 488.263 543.267C485.36 544.572 482.267 545.183 482.267 545.183ZM480.888 553.217C480.888 553.217 480.097 553.28 478.926 553.269C477.748 553.257 476.184 553.165 474.603 552.842C473.027 552.519 471.446 551.959 470.252 551.024C469.04 550.095 468.301 548.773 468.318 547.001C468.33 545.23 469.028 544.329 469.986 544.098C470.956 543.868 472.248 544.289 473.599 545.12C474.978 545.945 476.444 547.175 477.719 548.588C479.006 549.991 480.172 551.584 480.888 553.217Z" fill="white" fill-opacity="0.36"/>
<path fill-rule="evenodd" clip-rule="evenodd" d="M1106.23 625.379C1111.92 594.267 1120.56 602.468 1140.43 586.874C1148.53 580.514 1150.48 573.191 1149.15 563.333C1148.28 556.87 1147.79 549.004 1152.72 544C1158.07 538.575 1164.7 540.307 1171.39 540.861C1188.57 542.28 1197.66 530.778 1209.53 520.794C1212.6 518.215 1216.4 516.166 1220.39 516.374C1239.62 517.349 1237.19 548.398 1226.55 557.643C1219.9 563.42 1211.43 566.017 1204.7 571.811C1198.68 576.988 1197.22 582.095 1195.79 589.54C1193.53 601.371 1184.55 610.345 1174.27 615.695C1168.43 618.731 1162.2 621.328 1157.31 625.875C1156.46 626.66 1155.57 627.399 1154.65 628.097C1140.09 627.174 1123.91 626.308 1106.32 625.512L1106.23 625.379Z" fill="url(#paint8_linear_118_563)"/>
<path fill-rule="evenodd" clip-rule="evenodd" d="M1115.43 625.927C1122.93 621.835 1129.44 617.721 1135.17 613.6C1136.89 608.631 1137.87 603.068 1138.12 596.91C1138.66 601.902 1139.13 606.536 1138.49 611.165C1152.35 600.65 1161.47 590.129 1169.48 579.908C1169.89 571.811 1168.67 563.155 1165.82 553.926C1169.34 561.267 1171.4 568.851 1171.99 576.682C1184.23 560.806 1194.73 545.76 1217.45 532.764C1207.17 540.832 1199.25 548.669 1192.39 556.414C1199.56 554.977 1206.9 554.867 1214.41 556.079C1205.14 555.987 1196.82 557.228 1189.45 559.801C1178.29 572.902 1169.64 585.766 1157.11 599.028C1164.31 597.574 1171.68 597.458 1179.22 598.676C1169.68 598.578 1161.15 599.899 1153.62 602.623C1145.93 610.357 1136.73 618.24 1124.79 626.395C1121.72 626.233 1118.59 626.083 1115.43 625.927Z" fill="white" fill-opacity="0.36"/>
<path d="M799.76 660.826C1042.9 660.826 1240 651.62 1240 640.263C1240 628.907 1042.9 619.701 799.76 619.701C556.623 619.701 359.521 628.907 359.521 640.263C359.521 651.62 556.623 660.826 799.76 660.826Z" fill="white" fill-opacity="0.26"/>
<path fill-rule="evenodd" clip-rule="evenodd" d="M622.835 303.055V420.989C622.835 426.01 618.767 430.072 613.751 430.072H421.474C416.459 430.072 412.391 426.004 412.391 420.989V303.055C412.391 298.04 416.454 293.972 421.474 293.972H613.751C618.767 293.972 622.835 298.035 622.835 303.055Z" fill="white"/>
<path fill-rule="evenodd" clip-rule="evenodd" d="M622.835 303.055V312.457H412.396V303.055C412.396 298.04 416.459 293.972 421.48 293.972H613.757C618.766 293.972 622.835 298.035 622.835 303.055Z" fill="url(#paint9_linear_118_563)"/>
<path fill-rule="evenodd" clip-rule="evenodd" d="M453.965 303.211C453.965 306.073 451.645 308.388 448.788 308.388C445.926 308.388 443.606 306.068 443.606 303.211C443.606 300.348 445.926 298.034 448.788 298.034C451.645 298.028 453.965 300.348 453.965 303.211ZM440.455 303.211C440.455 306.073 438.135 308.388 435.278 308.388C432.416 308.388 430.096 306.068 430.096 303.211C430.096 300.348 432.416 298.034 435.278 298.034C438.135 298.028 440.455 300.348 440.455 303.211ZM426.598 303.211C426.598 306.073 424.278 308.388 421.422 308.388C418.559 308.388 416.239 306.068 416.239 303.211C416.239 300.348 418.559 298.034 421.422 298.034C424.284 298.028 426.598 300.348 426.598 303.211Z" fill="white"/>
<path d="M547.432 339.991H492.906C491.028 339.991 489.504 341.514 489.504 343.393C489.504 345.272 491.028 346.795 492.906 346.795H547.432C549.311 346.795 550.834 345.272 550.834 343.393C550.834 341.514 549.311 339.991 547.432 339.991Z" fill="url(#paint10_linear_118_563)"/>
<path d="M605.689 339.991H558.851V346.795H605.689V339.991Z" fill="white"/>
<path d="M535.774 351.948H437.428C435.549 351.948 434.026 353.471 434.026 355.35C434.026 357.229 435.549 358.752 437.428 358.752H535.774C537.653 358.752 539.176 357.229 539.176 355.35C539.176 353.471 537.653 351.948 535.774 351.948Z" fill="url(#paint11_linear_118_563)"/>
<path d="M564.379 323.889H466.028C464.15 323.889 462.628 325.411 462.628 327.288C462.628 329.166 464.15 330.688 466.028 330.688H564.379C566.257 330.688 567.779 329.166 567.779 327.288C567.779 325.411 566.257 323.889 564.379 323.889Z" fill="url(#paint12_linear_118_563)"/>
<path d="M572.973 351.948H547.418V358.752H572.973V351.948Z" fill="#BCC9E7"/>
<path d="M605.694 351.948H581V358.752H605.694V351.948Z" fill="white"/>
<path d="M605.689 323.889H575.633V330.688H605.689V323.889Z" fill="white"/>
<path d="M486.105 363.912H437.425C435.548 363.912 434.026 365.434 434.026 367.311C434.026 369.189 435.548 370.71 437.425 370.71H486.105C487.982 370.71 489.504 369.189 489.504 367.311C489.504 365.434 487.982 363.912 486.105 363.912Z" fill="url(#paint13_linear_118_563)"/>
<path d="M569.579 363.912H501.151C499.273 363.912 497.751 365.434 497.751 367.311C497.751 369.189 499.273 370.71 501.151 370.71H569.579C571.456 370.71 572.978 369.189 572.978 367.311C572.978 365.434 571.456 363.912 569.579 363.912Z" fill="url(#paint14_linear_118_563)"/>
<path d="M486.102 375.87H458.851C456.972 375.87 455.449 377.393 455.449 379.272C455.449 381.151 456.972 382.674 458.851 382.674H486.102C487.981 382.674 489.504 381.151 489.504 379.272C489.504 377.393 487.981 375.87 486.102 375.87Z" fill="url(#paint15_linear_118_563)"/>
<path d="M605.694 375.87H497.526V382.674H605.694V375.87Z" fill="white"/>
<path d="M477.858 387.828H437.425C435.548 387.828 434.026 389.35 434.026 391.227C434.026 393.104 435.548 394.626 437.425 394.626H477.858C479.735 394.626 481.257 393.104 481.257 391.227C481.257 389.35 479.735 387.828 477.858 387.828Z" fill="url(#paint16_linear_118_563)"/>
<path d="M569.579 387.828H492.904C491.026 387.828 489.504 389.35 489.504 391.227C489.504 393.104 491.026 394.626 492.904 394.626H569.579C571.456 394.626 572.978 393.104 572.978 391.227C572.978 389.35 571.456 387.828 569.579 387.828Z" fill="url(#paint17_linear_118_563)"/>
<path d="M605.694 387.828H581V394.626H605.694V387.828Z" fill="white"/>
<path d="M509.72 399.785H437.425C435.548 399.785 434.026 401.307 434.026 403.184C434.026 405.062 435.548 406.584 437.425 406.584H509.72C511.597 406.584 513.119 405.062 513.119 403.184C513.119 401.307 511.597 399.785 509.72 399.785Z" fill="url(#paint18_linear_118_563)"/>
<path d="M550.834 399.785H521.366V406.584H550.834V399.785Z" fill="#BCC9E7"/>
<path d="M605.689 399.785H558.851V406.584H605.689V399.785Z" fill="white"/>
<path d="M569.576 411.743H472.026C470.147 411.743 468.624 413.266 468.624 415.145C468.624 417.024 470.147 418.547 472.026 418.547H569.576C571.455 418.547 572.978 417.024 572.978 415.145C572.978 413.266 571.455 411.743 569.576 411.743Z" fill="url(#paint19_linear_118_563)"/>
<path d="M605.694 411.743H581V418.547H605.694V411.743Z" fill="white"/>
<path d="M977.374 220.448H629.524V545.114H977.374V220.448Z" fill="url(#paint20_linear_118_563)"/>
<path d="M977.374 220.448H629.524V254.786H977.374V220.448Z" fill="url(#paint21_linear_118_563)"/>
<path fill-rule="evenodd" clip-rule="evenodd" d="M902.181 238.003C902.181 241.477 899.365 244.299 895.89 244.299C892.41 244.299 889.594 241.483 889.594 238.003C889.594 234.529 892.41 231.712 895.89 231.712C899.365 231.707 902.181 234.529 902.181 238.003ZM952.863 238.667C952.863 242.141 950.047 244.963 946.567 244.963C943.087 244.963 940.27 242.147 940.27 238.667C940.27 235.192 943.087 232.376 946.567 232.376C950.047 232.37 952.863 235.192 952.863 238.667ZM928.463 238.003C928.463 241.477 925.646 244.299 922.172 244.299C918.698 244.299 915.876 241.483 915.876 238.003C915.876 234.529 918.692 231.712 922.172 231.712C925.646 231.707 928.463 234.529 928.463 238.003ZM740.647 288.843C740.647 289.948 739.751 290.843 738.647 290.843H693.379C692.274 290.843 691.379 289.948 691.379 288.843V288.706C691.379 287.601 692.274 286.706 693.379 286.706H738.647C739.751 286.706 740.647 287.601 740.647 288.706V288.843ZM752.108 404.423C752.108 403.318 751.213 402.423 750.108 402.423H695.802C694.698 402.423 693.802 403.318 693.802 404.423V404.566C693.802 405.671 694.698 406.566 695.802 406.566H750.108C751.213 406.566 752.108 405.671 752.108 404.566V404.423ZM832.414 404.423C832.414 403.318 831.518 402.423 830.414 402.423H776.102C774.998 402.423 774.102 403.318 774.102 404.423V404.566C774.102 405.671 774.998 406.566 776.102 406.566H830.414C831.518 406.566 832.414 405.671 832.414 404.566V404.423ZM899.474 426.734C899.474 425.629 898.579 424.734 897.474 424.734H859.893C858.789 424.734 857.893 425.629 857.893 426.734V426.872C857.893 427.976 858.789 428.872 859.893 428.872H897.474C898.579 428.872 899.474 427.976 899.474 426.872V426.734ZM831.15 426.734C831.15 425.629 830.254 424.734 829.15 424.734H791.569C790.464 424.734 789.569 425.629 789.569 426.734V426.872C789.569 427.976 790.464 428.872 791.569 428.872H829.15C830.254 428.872 831.15 427.976 831.15 426.872V426.734ZM767.488 426.734C767.488 425.629 766.593 424.734 765.488 424.734H727.907C726.803 424.734 725.907 425.629 725.907 426.734V426.872C725.907 427.976 726.803 428.872 727.907 428.872H765.488C766.593 428.872 767.488 427.976 767.488 426.872V426.734ZM883.95 449.039C883.95 447.935 883.055 447.039 881.95 447.039H855.207C854.103 447.039 853.207 447.935 853.207 449.039V449.177C853.207 450.282 854.103 451.177 855.207 451.177H881.95C883.055 451.177 883.95 450.282 883.95 449.177V449.039ZM843.575 449.039C843.575 447.935 842.68 447.039 841.575 447.039H735.115C734.011 447.039 733.115 447.935 733.115 449.039V449.177C733.115 450.282 734.011 451.177 735.115 451.177H841.575C842.68 451.177 843.575 450.282 843.575 449.177V449.039ZM946.59 471.345C946.59 470.24 945.694 469.345 944.59 469.345H837.282C836.177 469.345 835.282 470.24 835.282 471.345V471.483C835.282 472.587 836.177 473.483 837.282 473.483H944.59C945.694 473.483 946.59 472.587 946.59 471.483V471.345ZM817.928 469.345H708.614C707.51 469.345 706.614 470.24 706.614 471.345V471.483C706.614 472.587 707.51 473.483 708.614 473.483H815.922C817.027 473.483 817.922 472.587 817.922 471.483V469.351C817.922 469.347 817.925 469.345 817.928 469.345V469.345ZM900.069 493.65C900.069 492.546 899.173 491.65 898.069 491.65H845.113C844.009 491.65 843.113 492.546 843.113 493.65V493.788C843.113 494.893 844.009 495.788 845.113 495.788H898.069C899.173 495.788 900.069 494.893 900.069 493.788V493.65ZM825.234 493.65C825.234 492.546 824.339 491.65 823.234 491.65H770.279C769.174 491.65 768.279 492.546 768.279 493.65V493.788C768.279 494.893 769.174 495.788 770.279 495.788H823.234C824.339 495.788 825.234 494.893 825.234 493.788V493.65ZM748.334 493.65C748.334 492.546 747.439 491.65 746.334 491.65H693.373C692.268 491.65 691.373 492.546 691.373 493.65V493.788C691.373 494.893 692.268 495.788 693.373 495.788H746.334C747.439 495.788 748.334 494.893 748.334 493.788V493.65ZM822.424 378.065C822.424 379.17 821.528 380.065 820.424 380.065H785.272C784.168 380.065 783.272 379.17 783.272 378.065V377.927C783.272 376.823 784.168 375.927 785.272 375.927H820.424C821.528 375.927 822.424 376.823 822.424 377.927V378.065ZM766.525 378.065C766.525 379.17 765.629 380.065 764.525 380.065H729.373C728.269 380.065 727.373 379.17 727.373 378.065V377.927C727.373 376.823 728.269 375.927 729.373 375.927H764.525C765.629 375.927 766.525 376.823 766.525 377.927V378.065ZM886.391 355.76C886.391 356.864 885.496 357.76 884.391 357.76H761.178C760.073 357.76 759.178 356.864 759.178 355.76V355.622C759.178 354.517 760.073 353.622 761.178 353.622H884.391C885.496 353.622 886.391 354.517 886.391 355.622V355.76ZM897.379 333.454C897.379 334.559 896.484 335.454 895.379 335.454H788.066C786.961 335.454 786.066 334.559 786.066 333.454V333.311C786.066 332.206 786.961 331.311 788.066 331.311H895.379C896.484 331.311 897.379 332.206 897.379 333.311V333.454ZM766.669 333.454C766.669 334.559 765.773 335.454 764.669 335.454H735.115C734.011 335.454 733.115 334.559 733.115 333.454V333.311C733.115 332.206 734.011 331.311 735.115 331.311H764.669C765.773 331.311 766.669 332.206 766.669 333.311V333.454ZM834.48 311.149C834.48 312.254 833.584 313.149 832.48 313.149H797.646C796.541 313.149 795.646 312.254 795.646 311.149V311.011C795.646 309.906 796.541 309.011 797.646 309.011H832.48C833.584 309.011 834.48 309.906 834.48 311.011V311.149ZM783.013 313.149H708.614C707.51 313.149 706.614 312.254 706.614 311.149V311.011C706.614 309.906 707.51 309.011 708.614 309.011H781.007C782.112 309.011 783.007 309.906 783.007 311.011V313.143C783.007 313.146 783.01 313.149 783.013 313.149V313.149ZM798.468 288.843C798.468 289.948 797.572 290.843 796.468 290.843H751.2C750.095 290.843 749.2 289.948 749.2 288.843V288.706C749.2 287.601 750.095 286.706 751.2 286.706H796.468C797.572 286.706 798.468 287.601 798.468 288.706V288.843ZM664.433 313.048C664.433 314.152 663.538 315.048 662.433 315.048H661.135C660.031 315.048 659.135 314.152 659.135 313.048V306.238C659.135 305.134 660.031 304.238 661.135 304.238H662.433C663.538 304.238 664.433 305.134 664.433 306.238V313.048ZM664.433 496.72C664.433 497.824 663.538 498.72 662.433 498.72H661.135C660.031 498.72 659.135 497.824 659.135 496.72V495.416C659.135 494.312 660.031 493.416 661.135 493.416H662.433C663.538 493.416 664.433 494.312 664.433 495.416V496.72ZM664.433 340.074C664.433 341.178 663.538 342.074 662.433 342.074H661.135C660.031 342.074 659.135 341.178 659.135 340.074V333.265C659.135 332.16 660.031 331.265 661.135 331.265H662.433C663.538 331.265 664.433 332.16 664.433 333.265V340.074ZM664.433 367.1C664.433 368.205 663.538 369.1 662.433 369.1H661.135C660.031 369.1 659.135 368.205 659.135 367.1V360.291C659.135 359.186 660.031 358.291 661.135 358.291H662.433C663.538 358.291 664.433 359.186 664.433 360.291V367.1ZM664.433 394.126C664.433 395.231 663.538 396.126 662.433 396.126H661.135C660.031 396.126 659.135 395.231 659.135 394.126V387.311C659.135 386.207 660.031 385.311 661.135 385.311H662.433C663.538 385.311 664.433 386.207 664.433 387.311V394.126ZM664.433 421.147C664.433 422.251 663.538 423.147 662.433 423.147H661.135C660.031 423.147 659.135 422.251 659.135 421.147V414.337C659.135 413.233 660.031 412.337 661.135 412.337H662.433C663.538 412.337 664.433 413.233 664.433 414.337V421.147ZM664.433 448.179C664.433 449.283 663.538 450.179 662.433 450.179H661.135C660.031 450.179 659.135 449.283 659.135 448.179V441.37C659.135 440.265 660.031 439.37 661.135 439.37H662.433C663.538 439.37 664.433 440.265 664.433 441.37V448.179ZM664.433 475.199C664.433 476.304 663.538 477.199 662.433 477.199H661.135C660.031 477.199 659.135 476.304 659.135 475.199V468.39C659.135 467.285 660.031 466.39 661.135 466.39H662.433C663.538 466.39 664.433 467.285 664.433 468.39V475.199Z" fill="white"/>
<path fill-rule="evenodd" clip-rule="evenodd" d="M1105.04 378.421H951.61C949.365 378.421 947.542 376.603 947.542 374.358V270.27C947.542 268.025 949.365 266.207 951.61 266.207H1105.04C1107.29 266.207 1109.1 268.025 1109.1 270.27V374.352C1109.11 376.597 1107.29 378.421 1105.04 378.421Z" fill="url(#paint22_linear_118_563)"/>
<path fill-rule="evenodd" clip-rule="evenodd" d="M949.989 372.996V277.91C949.989 276.485 951.144 275.331 952.569 275.331H1104.09C1105.52 275.331 1106.67 276.485 1106.67 277.91V372.996C1106.67 374.421 1105.52 375.581 1104.09 375.581H952.569C951.144 375.575 949.989 374.421 949.989 372.996ZM1105.53 270.771C1105.53 272.006 1104.52 273.011 1103.29 273.011C1102.05 273.011 1101.04 272.006 1101.04 270.771C1101.04 269.531 1102.05 268.526 1103.29 268.526C1104.52 268.526 1105.53 269.531 1105.53 270.771ZM1098.12 270.771C1098.12 272.006 1097.12 273.011 1095.88 273.011C1094.64 273.011 1093.64 272.006 1093.64 270.771C1093.64 269.531 1094.64 268.526 1095.88 268.526C1097.11 268.526 1098.12 269.531 1098.12 270.771ZM1090.71 270.771C1090.71 272.006 1089.71 273.011 1088.47 273.011C1087.23 273.011 1086.23 272.006 1086.23 270.771C1086.23 269.531 1087.23 268.526 1088.47 268.526C1089.71 268.526 1090.71 269.531 1090.71 270.771Z" fill="white"/>
<path fill-rule="evenodd" clip-rule="evenodd" d="M1051.6 325.453C1051.6 338.305 1041.18 348.728 1028.33 348.728C1015.47 348.728 1005.05 338.311 1005.05 325.453C1005.05 312.601 1015.47 302.178 1028.33 302.178C1041.18 302.178 1051.6 312.595 1051.6 325.453Z" fill="url(#paint23_linear_118_563)"/>
<path fill-rule="evenodd" clip-rule="evenodd" d="M1041.94 325.453L1031.17 331.675L1020.39 337.89V325.453V313.011L1031.17 319.232L1041.94 325.453Z" fill="white"/>
<path d="M1106.67 365.072H949.989V368.159H1106.67V365.072Z" fill="#E8EEFC"/>
<path d="M985.286 365.072H949.989V368.159H985.286V365.072Z" fill="url(#paint24_linear_118_563)"/>
<path fill-rule="evenodd" clip-rule="evenodd" d="M987.652 366.613C987.652 367.923 986.59 368.979 985.286 368.979C983.981 368.979 982.919 367.917 982.919 366.613C982.919 365.309 983.981 364.247 985.286 364.247C986.596 364.247 987.652 365.303 987.652 366.613Z" fill="url(#paint25_linear_118_563)"/>
<path d="M599.421 560.702H587.273V565.359H599.421V560.702Z" fill="#D0D9EE"/>
<path d="M621.923 239.123H458.68V287.681H621.923V239.123Z" fill="url(#paint26_linear_118_563)"/>
<path d="M492 242.418H465.021C463.916 242.418 463.021 243.313 463.021 244.418V269.233C463.021 270.338 463.916 271.233 465.021 271.233H492C493.105 271.233 494 270.338 494 269.233V244.418C494 243.313 493.105 242.418 492 242.418Z" fill="white"/>
<path d="M492 275.509H465.021C463.916 275.509 463.021 276.405 463.021 277.509V282.074C463.021 283.178 463.916 284.074 465.021 284.074H492C493.105 284.074 494 283.178 494 282.074V277.509C494 276.405 493.105 275.509 492 275.509Z" fill="white"/>
<path d="M531.475 255.259H504.495C503.391 255.259 502.495 256.154 502.495 257.259V282.074C502.495 283.179 503.391 284.074 504.495 284.074H531.475C532.579 284.074 533.475 283.179 533.475 282.074V257.259C533.475 256.154 532.579 255.259 531.475 255.259Z" fill="white"/>
<path d="M531.475 242.418H504.495C503.391 242.418 502.495 243.313 502.495 244.418V248.982C502.495 250.087 503.391 250.982 504.495 250.982H531.475C532.579 250.982 533.475 250.087 533.475 248.982V244.418C533.475 243.313 532.579 242.418 531.475 242.418Z" fill="white"/>
<path d="M574.008 242.418H547.028C545.924 242.418 545.028 243.313 545.028 244.418V269.233C545.028 270.338 545.924 271.233 547.028 271.233H574.008C575.112 271.233 576.008 270.338 576.008 269.233V244.418C576.008 243.313 575.112 242.418 574.008 242.418Z" fill="white"/>
<path d="M574.008 275.509H547.028C545.924 275.509 545.028 276.405 545.028 277.509V282.074C545.028 283.178 545.924 284.074 547.028 284.074H574.008C575.112 284.074 576.008 283.178 576.008 282.074V277.509C576.008 276.405 575.112 275.509 574.008 275.509Z" fill="white"/>
<path d="M613.488 255.259H586.509C585.404 255.259 584.509 256.154 584.509 257.259V282.074C584.509 283.179 585.404 284.074 586.509 284.074H613.488C614.593 284.074 615.488 283.179 615.488 282.074V257.259C615.488 256.154 614.593 255.259 613.488 255.259Z" fill="white"/>
<path d="M613.488 242.418H586.509C585.404 242.418 584.509 243.313 584.509 244.418V248.982C584.509 250.087 585.404 250.982 586.509 250.982H613.488C614.593 250.982 615.488 250.087 615.488 248.982V244.418C615.488 243.313 614.593 242.418 613.488 242.418Z" fill="white"/>
<path fill-rule="evenodd" clip-rule="evenodd" d="M1183.36 383.078H1138.61C1135.06 383.078 1132.18 380.198 1132.18 376.643V331.894C1132.18 328.344 1135.06 325.465 1138.61 325.465H1183.36C1186.91 325.465 1189.79 328.344 1189.79 331.894V376.643C1189.79 380.204 1186.91 383.078 1183.36 383.078Z" fill="url(#paint27_linear_118_563)"/>
<path fill-rule="evenodd" clip-rule="evenodd" d="M1153.71 352.076L1145.69 354.828L1153.71 357.581V362.077L1140.21 357.183V352.474L1153.71 347.58V352.076Z" fill="white"/>
<path fill-rule="evenodd" clip-rule="evenodd" d="M1162.84 341.809H1168.13L1159.4 366.74H1154.1L1162.84 341.809Z" fill="white"/>
<path fill-rule="evenodd" clip-rule="evenodd" d="M1181.76 352.474V357.183L1168.26 362.077V357.581L1176.28 354.828L1168.26 352.076V347.58L1181.76 352.474Z" fill="white"/>
<path fill-rule="evenodd" clip-rule="evenodd" d="M560.812 338.496C562.815 338.641 564.742 336.263 565.296 335.559C567.426 332.858 568.782 329.684 569.33 327.906C568.915 326.723 568.482 325.228 568.026 323.428C560.321 318.193 559.265 314.321 564.869 311.811C565.995 312.445 567.397 314.39 569.071 317.657C570.404 317.605 571.419 316.918 572.112 315.608C570.519 310.097 569.486 305.618 569.001 302.179C572.799 296.534 581.68 295.732 593.442 297.25C593.99 300.378 594.435 303.696 594.787 307.194C596.864 309.11 596.599 316.214 594.683 324.397C595.641 329.049 592.767 331.588 586.061 332.015C585.997 333.141 586.095 334.433 586.118 335.218C586.136 335.934 586.159 337.325 586.909 337.544L588.15 337.85C588.017 354.494 579.499 357.691 560.812 338.496Z" fill="url(#paint28_linear_118_563)"/>
<path fill-rule="evenodd" clip-rule="evenodd" d="M593.436 297.25C581.675 295.726 572.793 296.528 568.996 302.178C569.475 305.618 570.513 310.096 572.106 315.608C571.414 316.918 570.404 317.604 569.065 317.656C567.391 314.39 565.989 312.439 564.864 311.81C559.266 314.321 560.316 318.193 568.026 323.427C568.476 325.234 568.915 326.723 569.33 327.906C562.393 326.353 556.593 320.149 555.78 317.466C547.689 301.526 556.715 294.791 561.539 292.338C563.669 276.554 586.684 290.203 592.738 280.565C605.4 287.791 596.997 297.111 593.436 297.25Z" fill="#0F3970"/>
<path fill-rule="evenodd" clip-rule="evenodd" d="M578.328 330.399C580.21 331.328 582.783 331.865 586.056 332.02C585.992 333.128 586.038 334.404 586.108 335.194C582.818 334.554 580.227 332.961 578.328 330.399Z" fill="#FFA699"/>
<path fill-rule="evenodd" clip-rule="evenodd" d="M546.789 650.143C539.488 647.569 538.9 643.807 534.958 641.971C530.993 640.119 530.537 636.824 534.416 633.245C537.278 635.531 540.827 638.341 542.709 636.852C543.967 635.86 548.226 635.923 549.069 637.372C552.779 646 557.939 643.264 558.955 647.189C559.082 652.411 550.142 651.326 546.789 650.143ZM610.081 641.562C597.217 641.354 587.602 641.198 583.159 639.796C578.369 638.284 579.356 635.358 582.108 630.683C594.234 636.258 591.002 629.535 596.675 630.389C600.657 633.597 606.561 635.75 614.375 636.841C617.682 639.282 616.343 641.458 610.081 641.562Z" fill="#142D4D"/>
<path fill-rule="evenodd" clip-rule="evenodd" d="M603.657 340.377C597.234 338.513 591.468 337.382 586.361 336.989C585.437 351.094 578.079 350.996 564.28 336.695C550.995 337.809 548.398 337.982 541.023 340.371C525.077 355.607 523.611 373.186 515.272 393.281C524.5 393.697 528.644 394.805 534.917 397.044C536.267 392.231 537.393 388.353 538.299 385.415C538.045 411.91 537.947 430.061 538.004 439.871C568.528 451.968 593.673 447.824 603.946 438.4C604.09 414.848 604.286 396.207 604.534 382.472C608.187 386.771 611.569 390.113 614.691 392.479C622.177 383.897 627.244 380.446 631.491 375.385C622.096 359.959 608.637 345.606 603.657 340.377Z" fill="url(#paint29_linear_118_563)"/>
<path fill-rule="evenodd" clip-rule="evenodd" d="M665.172 366.186C649.134 372.851 637.909 378.351 631.485 382.703L628.635 378.484C625.986 381.139 622.956 383.747 619.262 387.527C622.679 391.1 626.343 394.043 630.608 396.525C641.752 395.336 654.068 386.898 667.555 371.212C671.751 370.376 674.838 368.858 676.818 366.653C676.922 364.633 675.906 362.608 673.765 360.576C679.357 356.929 681.585 354.326 680.442 352.75C671.687 358.164 666.591 362.642 665.172 366.186Z" fill="url(#paint30_linear_118_563)"/>
<path fill-rule="evenodd" clip-rule="evenodd" d="M603.952 438.406C603.351 440.697 605.845 454.15 606.26 461.168C610.317 486.22 606.843 518.827 604.656 560.754C600.743 575.528 594.972 595.22 595.353 622.933C588.543 625.016 586.078 625.23 579.932 623.666C575.633 594.741 578.564 571.581 582.448 560.887C579.961 544.353 576.25 525.845 570.848 499.153C564.76 528.246 556.617 549.83 553.091 563.917C552.392 579.62 549.218 600.818 547.556 627.503C542.501 629.027 539.35 629.466 534.109 628.825C527.299 604.298 528.448 577.606 531.328 548.756C534.398 514.072 529.337 474.909 534.404 461.329C536.995 453.284 537.33 446.14 538.022 439.878C563.479 448.35 585.461 447.859 603.952 438.406Z" fill="url(#paint31_linear_118_563)"/>
<path fill-rule="evenodd" clip-rule="evenodd" d="M542.708 412.961C541.075 413.203 539.528 413.416 538.074 413.613C537.999 425.299 537.981 434.054 538.016 439.871C539.459 440.518 541.485 441.262 543.066 441.447C543.054 440.697 542.824 438.965 542.812 438.221C542.708 429.293 542.673 420.867 542.708 412.961ZM617.34 389.547C612.845 385.802 608.568 379.725 604.505 371.316C604.961 374.242 605.146 378.166 605.054 383.078C608.511 387.089 611.725 390.222 614.697 392.485C615.609 391.428 616.492 390.453 617.34 389.547ZM543.978 366.757C541.998 373.128 540.105 379.349 538.305 385.409C538.253 390.528 538.212 395.336 538.172 399.837C539.482 399.716 541.011 399.629 542.829 399.589C543.02 387.152 543.401 376.204 543.978 366.757Z" fill="url(#paint32_linear_118_563)"/>
<path fill-rule="evenodd" clip-rule="evenodd" d="M584.271 375.921H617.877C619.418 375.921 620.474 377.179 620.231 378.72L612.689 426.327C612.446 427.867 610.986 429.126 609.445 429.126H575.84C574.299 429.126 573.237 427.867 573.485 426.327L581.028 378.72C581.27 377.185 582.731 375.921 584.271 375.921Z" fill="url(#paint33_linear_118_563)"/>
<path fill-rule="evenodd" clip-rule="evenodd" d="M518.371 393.454C516.917 399.347 516.311 404.743 517.5 411.887C521.124 417.157 535.765 414.207 573.445 407.911C574.795 409.146 577.594 410.37 581.836 409.821C585.778 408.84 585.968 407.807 590.389 403.64C591.463 400.397 591.243 397.921 589.731 396.207C584.756 399.139 582.131 400.697 576.527 400.882C578.022 397.038 578.241 394.562 577.202 393.443C575.292 394.978 574.045 397.281 573.468 400.362C543.758 399.07 535.921 399.243 531.968 401.32C532.395 399.456 532.776 397.817 533.111 396.403C528.476 394.828 524.714 393.916 518.371 393.454ZM582.967 624.34C583.268 626.862 583.314 629.125 583.1 631.127C593.246 635.536 591.52 630.446 595.577 630.319C594.556 628.53 593.898 626.239 593.598 623.452C589.166 624.721 586.649 625.004 582.967 624.34ZM535.696 628.986C535.702 630.821 535.523 632.437 535.159 633.828C537.872 635.975 540.988 638.208 542.714 636.846C543.539 636.194 545.663 635.998 547.261 636.35C546.603 634.134 546.084 631.358 545.703 628.022C542.148 628.986 539.413 629.304 535.696 628.986Z" fill="url(#paint34_linear_118_563)"/>
<path fill-rule="evenodd" clip-rule="evenodd" d="M606.26 461.161C588.347 477.863 564.397 477.915 534.392 461.323C529.325 474.902 534.387 514.065 531.316 548.75C528.431 577.6 527.288 604.291 534.098 628.819C534.652 628.888 535.183 628.94 535.697 628.986C539.413 629.303 542.149 628.986 545.704 628.022C546.292 627.866 546.904 627.688 547.551 627.497C549.207 600.811 552.387 579.614 553.085 563.911C556.611 549.823 564.754 528.239 570.843 499.147C576.245 525.838 579.961 544.347 582.443 560.881C578.559 571.575 575.627 594.74 579.927 623.659C581.046 623.942 582.045 624.167 582.968 624.335C586.656 624.998 589.172 624.715 593.593 623.446C594.147 623.284 594.73 623.111 595.353 622.921C594.978 595.208 600.749 575.516 604.656 560.742C606.837 518.821 610.317 486.214 606.26 461.161Z" fill="url(#paint35_linear_118_563)"/>
<path fill-rule="evenodd" clip-rule="evenodd" d="M577.987 603.789C584.526 605.567 590.505 606.098 595.942 605.393C596.057 603.956 596.19 602.548 596.34 601.169C590.384 601.942 584.22 601.544 577.861 599.974C577.884 601.227 577.93 602.502 577.987 603.789ZM530.231 608.764C537.341 609.612 543.632 609.145 549.12 607.35C549.259 605.855 549.397 604.384 549.536 602.935C543.384 604.943 536.816 605.63 529.839 604.995C529.954 606.259 530.087 607.517 530.231 608.764ZM548.197 618.153C548.312 616.676 548.428 615.216 548.549 613.773C543.061 615.274 537.255 615.758 531.132 615.216C531.339 616.491 531.564 617.755 531.807 619.019C537.867 619.7 543.332 619.417 548.197 618.153ZM595.624 609.982C590.084 610.899 584.324 610.795 578.351 609.681C578.449 610.945 578.559 612.227 578.686 613.525C584.797 614.818 590.378 615.049 595.434 614.218C595.48 612.781 595.543 611.372 595.624 609.982Z" fill="url(#paint36_linear_118_563)"/>
<path fill-rule="evenodd" clip-rule="evenodd" d="M941.379 510.626H1127.15C1127.94 510.626 1128.58 509.282 1128.58 507.62V506.119C1128.58 504.463 1127.94 503.112 1127.15 503.112H941.379C940.588 503.112 939.942 504.457 939.942 506.119V507.62C939.947 509.282 940.588 510.626 941.379 510.626Z" fill="url(#paint37_linear_118_563)"/>
<path fill-rule="evenodd" clip-rule="evenodd" d="M1067.43 414.877C1066.7 413.388 1065.9 410.745 1065.5 406.03C1065.57 406.497 1066.38 412.447 1068.67 415.812C1078.06 421.975 1096.06 442.573 1095.7 446.474C1095.7 446.474 1102.05 435.717 1102.16 435.653C1102.16 435.653 1113.85 420.781 1099.99 412.257C1092.94 407.929 1092.98 402.365 1093.27 397.541C1093.56 392.71 1091.35 371.928 1077.23 377.365C1077.23 377.365 1074.96 376.355 1073.95 376.51C1073.95 376.51 1074.77 376.672 1075.2 377.105C1073.56 377.007 1071.22 377.128 1069.27 378.242C1064.1 381.174 1059.47 407.553 1067.43 414.877Z" fill="#0F3970"/>
<path fill-rule="evenodd" clip-rule="evenodd" d="M1044.9 383.442C1039.38 394.482 1043.95 407.196 1054.81 411.691C1065.74 416.216 1077.69 413.648 1083.22 402.602C1088.74 391.562 1084.64 378.323 1074.06 373.031C1063.48 367.744 1050.42 372.401 1044.9 383.442Z" fill="#0F3970"/>
<path fill-rule="evenodd" clip-rule="evenodd" d="M1057.78 426.408C1051.5 427.816 1043.56 445.28 1039.68 456.464C1035.76 467.747 1029.12 481.747 1024.77 486.093C1020.42 490.445 991.836 500.527 991.836 500.527C991.836 500.527 1062.45 500.665 1061 500.527C1059.56 500.388 1057.78 426.408 1057.78 426.408Z" fill="url(#paint38_linear_118_563)"/>
<path fill-rule="evenodd" clip-rule="evenodd" d="M1020.29 494.917C1024.16 494.363 1038.1 496.163 1032.16 493.676C1026.23 491.194 1027.06 488.014 1027.06 488.014C1027.06 488.014 1035.48 495.055 1036.99 488.897C1038.3 483.588 1038.81 464.849 1043.78 446.058C1047.88 436.744 1053.26 427.423 1057.78 426.413C1057.78 426.413 1057.94 433.027 1058.2 442.307C1056.47 462.829 1053.52 492.989 1052.77 500.59C1043.41 500.601 1027.75 500.59 1014.64 500.572L1005.93 500.157C1005.93 500.145 1016.43 495.471 1020.29 494.917Z" fill="#215AB0"/>
<path fill-rule="evenodd" clip-rule="evenodd" d="M1080.88 422.541C1080.88 422.541 1100.88 433.708 1105.53 436.086C1110.19 438.464 1092.48 508.179 1088.54 511.168C1084.6 514.158 1049.92 511.682 1045.97 507.919C1042.02 504.156 1049 492.603 1045.58 469.472C1042.17 446.341 1056.01 426.367 1057.78 426.413C1059.56 426.46 1071.17 422.547 1071.17 422.547H1080.88V422.541Z" fill="url(#paint39_linear_118_563)"/>
<path fill-rule="evenodd" clip-rule="evenodd" d="M1088.54 511.168C1084.6 514.158 1059.78 514.221 1049.21 510.938C1048.02 510.568 1042.6 508.41 1042.48 506.384C1043.76 506.148 1048.82 506.754 1050.87 506.28C1058.02 504.641 1061.95 495.788 1061.95 495.788C1061.95 495.788 1065.88 494.369 1074.69 490.646C1083.49 486.918 1079.87 475.63 1080.08 470.661C1080.28 465.692 1088.77 449.435 1104.72 437.113L1106.18 437.765C1107.32 449.088 1092.18 508.404 1088.54 511.168Z" fill="#2A65BC"/>
<path fill-rule="evenodd" clip-rule="evenodd" d="M1068.61 493.814C1056.05 496.163 1052.96 499.043 1046.11 500.145C1038.35 501.398 1039.27 503.112 1045.04 503.112C1050.81 503.112 1065.3 503.337 1070.27 502.229C1075.25 501.132 1068.61 493.814 1068.61 493.814Z" fill="url(#paint40_linear_118_563)"/>
<path fill-rule="evenodd" clip-rule="evenodd" d="M1107.1 437.39C1116.73 468.179 1130.38 503.112 1128.21 503.112C1126.03 503.112 1070.74 505.345 1068.56 503.487C1066.39 501.623 1067.01 494.478 1067.32 493.549C1067.63 492.62 1098.76 487.097 1098.76 487.097C1098.76 487.097 1094.66 479.11 1093.1 463.499C1091.55 447.888 1105.28 431.555 1107.1 437.39Z" fill="url(#paint41_linear_118_563)"/>
<path fill-rule="evenodd" clip-rule="evenodd" d="M1073.56 395.786L1081.32 424.134C1081.32 424.134 1068.21 444.592 1064.61 442.775C1061.01 440.957 1066.62 426.142 1066.62 424.134C1066.62 422.12 1061 401.355 1061 401.355L1073.56 395.786Z" fill="url(#paint42_linear_118_563)"/>
<path fill-rule="evenodd" clip-rule="evenodd" d="M1066.35 425.577C1066.52 424.901 1066.62 424.399 1066.62 424.128C1066.62 422.114 1061 401.349 1061 401.349L1073.56 395.786L1076.13 405.164C1073.89 414.854 1069.84 421.306 1066.35 425.577Z" fill="#FDB2A8"/>
<path fill-rule="evenodd" clip-rule="evenodd" d="M1044.54 395.319C1043.06 403.537 1044.04 414.456 1051.33 417.232C1058.63 420.008 1067.42 414.693 1070.97 405.372C1074.51 396.046 1071.47 386.235 1064.17 383.459C1056.88 380.683 1046.3 385.496 1044.54 395.319Z" fill="url(#paint43_linear_118_563)"/>
<path fill-rule="evenodd" clip-rule="evenodd" d="M1069.24 399.941C1068.22 402.815 1069.11 405.753 1071.22 406.509C1073.34 407.259 1075.89 405.545 1076.91 402.671C1077.94 399.797 1077.05 396.86 1074.93 396.104C1072.81 395.353 1070.27 397.067 1069.24 399.941Z" fill="#F4AE7C"/>
<path fill-rule="evenodd" clip-rule="evenodd" d="M1044.45 384.988C1046.94 404.276 1070.37 401.788 1070.37 401.788C1070.37 401.788 1075.21 395.434 1077.38 398.77C1079.56 402.1 1074.36 379.211 1060.92 378.496C1056.5 378.259 1044.45 384.988 1044.45 384.988Z" fill="#0F3970"/>
<path fill-rule="evenodd" clip-rule="evenodd" d="M1106.25 643.27H1103.35L1084.6 556.432H1090.99L1106.25 643.27Z" fill="url(#paint44_linear_118_563)"/>
<path fill-rule="evenodd" clip-rule="evenodd" d="M1016.01 643.269H1018.91L1040.72 553.361H1034.34L1016.01 643.269Z" fill="url(#paint45_linear_118_563)"/>
<path fill-rule="evenodd" clip-rule="evenodd" d="M1073.13 559.687C1084.76 559.687 1092.12 557.603 1096.82 553.021C1102.65 547.342 1103.85 538.553 1103.87 527.097C1103.89 518.082 1104.1 512.207 1104.59 507.464C1104.77 505.675 1103.47 504.076 1101.68 503.891C1099.89 503.707 1098.3 505.011 1098.12 506.794C1097.6 511.769 1097.38 517.84 1097.37 527.085C1097.35 538.697 1095.87 544.861 1092.28 548.358C1088.59 551.948 1081.93 553.431 1070.68 553.148C1059.81 552.877 1052.32 551.359 1046.32 550.135C1038.41 548.531 1032.7 547.365 1025.92 550.603C1024.3 551.376 1023.61 553.321 1024.39 554.943C1025.16 556.564 1027.1 557.251 1028.73 556.472C1033.53 554.175 1037.61 555.006 1045.02 556.507C1051.28 557.782 1059.07 559.363 1070.51 559.646C1071.41 559.675 1072.28 559.687 1073.13 559.687Z" fill="url(#paint46_linear_118_563)"/>
<path fill-rule="evenodd" clip-rule="evenodd" d="M1011.69 508.069C996.643 505.784 991.524 506.505 982.313 523.646C973.102 540.786 960.845 571.644 953.798 575.632C943.179 581.634 939.664 596.35 935.302 595.692C930.944 595.029 928.134 596.956 932.878 600.898C937.622 604.84 945.28 608.199 947.9 607.494C950.52 606.796 952.551 595.479 959.39 591.803C966.229 588.127 964.175 585.108 963.724 581.859C963.274 578.61 983.693 563.645 999.084 545.033C1008.49 533.658 1013.33 526.156 1014.05 519.352C1014.78 512.548 1011.69 508.069 1011.69 508.069Z" fill="url(#paint47_linear_118_563)"/>
<path fill-rule="evenodd" clip-rule="evenodd" d="M974.384 570.218C977.881 561.354 981.384 546.718 984.68 533.3C989.366 514.221 994.277 509.691 997.388 507.653C1001.15 506.713 1005.61 507.14 1011.69 508.063C1011.69 508.063 1014.78 512.542 1014.07 519.346C1013.34 526.15 1008.5 533.652 999.102 545.027C990.993 554.827 981.5 563.616 974.384 570.218Z" fill="url(#paint48_linear_118_563)"/>
<path fill-rule="evenodd" clip-rule="evenodd" d="M1007.11 523.155C1007.11 523.155 1011.11 553.367 1014.84 556.438C1017.51 558.631 1019.39 558.781 1021.26 549.766C1023.12 540.757 1018.35 507.129 1018.35 507.129L1007.11 523.155Z" fill="#142D4D"/>
<path fill-rule="evenodd" clip-rule="evenodd" d="M1010.3 539.499L1047.35 545.726L1026.43 515.728L1010.51 512.484L1000.97 514.683L1010.3 539.499Z" fill="#F19651"/>
<path fill-rule="evenodd" clip-rule="evenodd" d="M1010.3 539.499L1047.35 545.726L1026.43 515.728L1010.51 512.484L1000.97 514.683L1010.3 539.499Z" fill="url(#paint49_linear_118_563)"/>
<path fill-rule="evenodd" clip-rule="evenodd" d="M1087.32 509.275C1100.47 532.868 1091.49 547.867 1075.51 549.391C1059.53 550.92 1034.31 548 1019.6 535.782C1004.9 523.565 992.822 510.643 994.507 508.716C996.198 506.794 1087.32 509.275 1087.32 509.275Z" fill="#F29F65"/>
<path fill-rule="evenodd" clip-rule="evenodd" d="M1087.32 509.275C1100.47 532.868 1091.49 547.867 1075.51 549.391C1059.53 550.92 1034.31 548 1019.6 535.782C1004.9 523.565 992.822 510.643 994.507 508.716C996.198 506.794 1087.32 509.275 1087.32 509.275Z" fill="url(#paint50_linear_118_563)"/>
<path fill-rule="evenodd" clip-rule="evenodd" d="M1012.77 526.883C1010.08 518.803 1006.97 512.611 1000.97 512.495C994.646 512.38 990.762 515.664 990.491 526C990.168 538.31 989.735 579.071 990.306 597.193C990.739 610.911 986.739 615.302 987.074 629.603C987.328 640.378 975.844 634.936 980.282 640.522C983.335 644.366 992.412 643.108 997.987 642.398C1002.96 641.769 995.413 626.874 1002.29 622.891C1008.2 619.475 1008.31 613.929 1004.58 609.727C1000.86 605.526 1004.17 593.101 1006.66 584.404C1009.14 575.707 1013 566.294 1015.53 545.731C1016.25 539.862 1014.41 531.817 1012.77 526.883Z" fill="url(#paint51_linear_118_563)"/>
<path fill-rule="evenodd" clip-rule="evenodd" d="M984.206 636.125C986.111 636.708 988.454 637.349 990.497 637.418C994.64 637.556 995.881 632.997 996.158 626.811C996.4 621.403 1000.32 612.896 1004.35 609.445C1004.43 609.543 1004.5 609.641 1004.58 609.734C1008.31 613.929 1008.2 619.481 1002.29 622.898C995.414 626.88 1002.96 641.775 997.988 642.404C992.413 643.114 983.329 644.372 980.282 640.529C977.396 636.893 980.974 636.604 984.206 636.125ZM935.752 595.681C937.362 597.112 939.382 598.809 941.425 599.859C945.557 601.989 949.389 598.607 953.157 593.326C956.447 588.715 960.036 581.992 966.073 580.924C966.096 581.046 966.113 581.167 966.148 581.288C967.574 586.765 969.519 592.744 961.595 592.871C952.361 593.021 951.634 609.705 946.226 607.847C940.155 605.763 930.217 602.462 929.276 597.626C928.393 593.055 932.191 594.533 935.752 595.681Z" fill="#142D4D"/>
<path fill-rule="evenodd" clip-rule="evenodd" d="M1003.66 608.187C1003.66 608.187 1009.7 614.495 1009.14 617.121C1008.59 619.747 1006.73 626.372 1006.42 631.479C1006.11 636.587 1005.83 642.45 1005.83 642.45C1005.83 642.45 1003.65 642.45 1003.48 641.833C1003.31 641.215 1002.1 621.068 1002.1 621.068L1003.66 608.187ZM966.073 580.924C966.073 580.924 968.659 589.373 966.622 591.399C964.579 593.425 964.146 598.065 960.949 602.381C957.757 606.698 954.167 611.696 954.167 611.696C954.167 611.696 951.957 610.64 952.13 610.017C952.298 609.393 962.42 591.185 962.42 591.185L966.073 580.924Z" fill="#142D4D"/>
<path fill-rule="evenodd" clip-rule="evenodd" d="M1093.66 507.129C1093.66 507.129 1101.45 540.226 1091.6 549.397C1081.75 558.573 1040.84 550.32 1031.2 549.766C1024.67 549.397 1018.36 557.355 1018.36 557.355C1018.36 557.355 1022.92 538.888 1019.81 523.981C1016.7 509.068 1011.69 508.07 1011.69 508.07L1018.36 507.129H1093.66Z" fill="url(#paint52_linear_118_563)"/>
<path fill-rule="evenodd" clip-rule="evenodd" d="M1095.42 498.471C1092.09 505.547 1099.01 517.764 1096.59 521.285C1094.16 524.805 1080.27 521.775 1071.16 514.452C1062.06 507.122 1044.83 505.512 1044.83 505.512L1095.42 498.471Z" fill="#6998D0"/>
<path fill-rule="evenodd" clip-rule="evenodd" d="M1081.32 558.775C1053.77 559.808 1024.78 559.323 1024.78 555.214C1024.78 551.11 1026.02 548.208 1047.35 549.87C1068.68 551.526 1083.18 553.806 1089.6 552.357C1096.02 550.908 1081.32 558.775 1081.32 558.775Z" fill="url(#paint53_linear_118_563)"/>
<path fill-rule="evenodd" clip-rule="evenodd" d="M944.46 442.509H1021.05C1022.57 442.509 1024.12 443.744 1024.52 445.256L1038.14 497.156C1038.54 498.662 1037.63 499.898 1036.12 499.898H959.529C958.017 499.898 956.458 498.662 956.066 497.156L942.44 445.256C942.042 443.744 942.948 442.509 944.46 442.509Z" fill="url(#paint54_linear_118_563)"/>
<path fill-rule="evenodd" clip-rule="evenodd" d="M1035.41 479.236L1026.16 444.004C1025.76 442.492 1024.21 441.262 1022.7 441.262H1017.41H946.105C944.599 441.262 941.91 443.213 942.354 444.708C942.279 443.455 943.145 442.509 944.466 442.509H1021.06C1022.57 442.509 1024.13 443.744 1024.52 445.256L1038.15 497.156C1038.39 498.062 1038.16 498.864 1037.61 499.366C1038.87 498.552 1040.07 496.977 1039.79 495.909L1035.41 479.236Z" fill="#987EF8"/>
<path fill-rule="evenodd" clip-rule="evenodd" d="M1036.13 499.898H959.529C959.246 499.898 958.964 499.857 958.687 499.776C960.21 503.724 964.354 503.141 965.97 503.13H1056.78C1061.71 502.922 1061.58 499.471 1061.64 496.146H1039.82C1039.89 497.203 1038.77 498.611 1037.6 499.367C1037.24 499.696 1036.73 499.898 1036.13 499.898Z" fill="#987EF8"/>
<path fill-rule="evenodd" clip-rule="evenodd" d="M1025.41 463.851C1017.19 468.006 1007.48 469.281 997.497 469.795C997.607 470.153 997.693 470.522 997.751 470.897C998.415 475.11 995.448 478.688 991.166 478.688C987.127 478.688 983.468 475.491 982.839 471.515C982.769 471.082 982.74 470.661 982.746 470.245C972.375 470.522 962.363 471.094 954.075 474.337L959.771 496.031H1033.86L1025.41 463.851Z" fill="#7525E9" fill-opacity="0.12"/>
<path fill-rule="evenodd" clip-rule="evenodd" d="M989.51 466.234C992.257 466.234 994.831 468.462 995.269 471.203C995.702 473.95 993.832 476.178 991.085 476.178C988.338 476.178 985.764 473.95 985.326 471.203C984.887 468.456 986.763 466.234 989.51 466.234Z" fill="#7525E9" fill-opacity="0.12"/>
</g>
<defs>
<linearGradient id="paint0_linear_118_563" x1="800" y1="-74.4799" x2="800" y2="760" gradientUnits="userSpaceOnUse">
<stop stop-color="#FFC554"/>
<stop offset="1" stop-color="#FF8718"/>
</linearGradient>
<linearGradient id="paint1_linear_118_563" x1="1316.15" y1="695.583" x2="1328.91" y2="695.583" gradientUnits="userSpaceOnUse">
<stop stop-color="white"/>
<stop offset="1" stop-color="white" stop-opacity="0.82"/>
</linearGradient>
<linearGradient id="paint2_linear_118_563" x1="1328.91" y1="709.924" x2="1367.2" y2="709.924" gradientUnits="userSpaceOnUse">
<stop stop-color="white"/>
<stop offset="1" stop-color="white" stop-opacity="0.82"/>
</linearGradient>
<linearGradient id="paint3_linear_118_563" x1="1329.13" y1="681.182" x2="1367.1" y2="681.182" gradientUnits="userSpaceOnUse">
<stop stop-color="white"/>
<stop offset="1" stop-color="white" stop-opacity="0.82"/>
</linearGradient>
<linearGradient id="paint4_linear_118_563" x1="442.096" y1="422.981" x2="592.845" y2="550.985" gradientUnits="userSpaceOnUse">
<stop stop-color="#88FFBF"/>
<stop offset="1" stop-color="#09B462"/>
</linearGradient>
<linearGradient id="paint5_linear_118_563" x1="495.142" y1="533.165" x2="446.473" y2="648.871" gradientUnits="userSpaceOnUse">
<stop stop-color="#FFC5E3"/>
<stop offset="1" stop-color="#CD3C83"/>
</linearGradient>
<linearGradient id="paint6_linear_118_563" x1="1134.14" y1="419.78" x2="1279.23" y2="519.896" gradientUnits="userSpaceOnUse">
<stop stop-color="#88FFBF"/>
<stop offset="1" stop-color="#09B462"/>
</linearGradient>
<linearGradient id="paint7_linear_118_563" x1="1055.2" y1="516.023" x2="1056.39" y2="617.535" gradientUnits="userSpaceOnUse">
<stop offset="0.13627" stop-color="#F68CFF"/>
<stop offset="0.921622" stop-color="#630285"/>
</linearGradient>
<linearGradient id="paint8_linear_118_563" x1="1225.45" y1="520.624" x2="1161.65" y2="639.737" gradientUnits="userSpaceOnUse">
<stop stop-color="#FFC5E3"/>
<stop offset="1" stop-color="#CD3C83"/>
</linearGradient>
<linearGradient id="paint9_linear_118_563" x1="517.615" y1="293.972" x2="517.615" y2="312.457" gradientUnits="userSpaceOnUse">
<stop stop-color="#D0D5FF"/>
<stop offset="1" stop-color="#7896FF"/>
</linearGradient>
<linearGradient id="paint10_linear_118_563" x1="520.169" y1="339.991" x2="520.169" y2="346.795" gradientUnits="userSpaceOnUse">
<stop stop-color="#D0D5FF"/>
<stop offset="1" stop-color="#7896FF"/>
</linearGradient>
<linearGradient id="paint11_linear_118_563" x1="486.601" y1="351.948" x2="486.601" y2="358.752" gradientUnits="userSpaceOnUse">
<stop stop-color="#D0D5FF"/>
<stop offset="1" stop-color="#7896FF"/>
</linearGradient>
<linearGradient id="paint12_linear_118_563" x1="515.203" y1="323.889" x2="515.203" y2="330.688" gradientUnits="userSpaceOnUse">
<stop stop-color="#D0D5FF"/>
<stop offset="1" stop-color="#7896FF"/>
</linearGradient>
<linearGradient id="paint13_linear_118_563" x1="461.765" y1="363.912" x2="461.765" y2="370.71" gradientUnits="userSpaceOnUse">
<stop stop-color="#D0D5FF"/>
<stop offset="1" stop-color="#7896FF"/>
</linearGradient>
<linearGradient id="paint14_linear_118_563" x1="535.365" y1="363.912" x2="535.365" y2="370.71" gradientUnits="userSpaceOnUse">
<stop stop-color="#D0D5FF"/>
<stop offset="1" stop-color="#7896FF"/>
</linearGradient>
<linearGradient id="paint15_linear_118_563" x1="472.476" y1="375.87" x2="472.476" y2="382.674" gradientUnits="userSpaceOnUse">
<stop stop-color="#D0D5FF"/>
<stop offset="1" stop-color="#7896FF"/>
</linearGradient>
<linearGradient id="paint16_linear_118_563" x1="457.641" y1="387.828" x2="457.641" y2="394.626" gradientUnits="userSpaceOnUse">
<stop stop-color="#D0D5FF"/>
<stop offset="1" stop-color="#7896FF"/>
</linearGradient>
<linearGradient id="paint17_linear_118_563" x1="531.241" y1="387.828" x2="531.241" y2="394.626" gradientUnits="userSpaceOnUse">
<stop stop-color="#D0D5FF"/>
<stop offset="1" stop-color="#7896FF"/>
</linearGradient>
<linearGradient id="paint18_linear_118_563" x1="473.573" y1="399.785" x2="473.573" y2="406.584" gradientUnits="userSpaceOnUse">
<stop stop-color="#D0D5FF"/>
<stop offset="1" stop-color="#7896FF"/>
</linearGradient>
<linearGradient id="paint19_linear_118_563" x1="520.801" y1="411.743" x2="520.801" y2="418.547" gradientUnits="userSpaceOnUse">
<stop stop-color="#D0D5FF"/>
<stop offset="1" stop-color="#7896FF"/>
</linearGradient>
<linearGradient id="paint20_linear_118_563" x1="803" y1="239.5" x2="803.449" y2="545.114" gradientUnits="userSpaceOnUse">
<stop stop-color="#F1F2FD"/>
<stop offset="1" stop-color="#9BB0FA"/>
</linearGradient>
<linearGradient id="paint21_linear_118_563" x1="803.449" y1="220.448" x2="803.449" y2="254.786" gradientUnits="userSpaceOnUse">
<stop stop-color="#D0D5FF"/>
<stop offset="1" stop-color="#7896FF"/>
</linearGradient>
<linearGradient id="paint22_linear_118_563" x1="1028.32" y1="266.207" x2="1028.32" y2="378.421" gradientUnits="userSpaceOnUse">
<stop stop-color="#D0D5FF"/>
<stop offset="1" stop-color="#7896FF"/>
</linearGradient>
<linearGradient id="paint23_linear_118_563" x1="1028.33" y1="302.178" x2="1028.33" y2="348.728" gradientUnits="userSpaceOnUse">
<stop stop-color="#D0D5FF"/>
<stop offset="1" stop-color="#7896FF"/>
</linearGradient>
<linearGradient id="paint24_linear_118_563" x1="967.637" y1="365.072" x2="967.637" y2="368.159" gradientUnits="userSpaceOnUse">
<stop stop-color="#D0D5FF"/>
<stop offset="1" stop-color="#7896FF"/>
</linearGradient>
<linearGradient id="paint25_linear_118_563" x1="985.286" y1="364.247" x2="985.286" y2="368.979" gradientUnits="userSpaceOnUse">
<stop stop-color="#D0D5FF"/>
<stop offset="1" stop-color="#7896FF"/>
</linearGradient>
<linearGradient id="paint26_linear_118_563" x1="540.301" y1="239.123" x2="540.301" y2="287.681" gradientUnits="userSpaceOnUse">
<stop stop-color="#D0D5FF"/>
<stop offset="1" stop-color="#7896FF"/>
</linearGradient>
<linearGradient id="paint27_linear_118_563" x1="1160.98" y1="325.465" x2="1160.98" y2="383.078" gradientUnits="userSpaceOnUse">
<stop stop-color="#D0D5FF"/>
<stop offset="1" stop-color="#7896FF"/>
</linearGradient>
<linearGradient id="paint28_linear_118_563" x1="577" y1="288.5" x2="578.483" y2="362.526" gradientUnits="userSpaceOnUse">
<stop stop-color="white"/>
<stop offset="0.671133" stop-color="#FFD0D0"/>
</linearGradient>
<linearGradient id="paint29_linear_118_563" x1="573.382" y1="336.695" x2="573.382" y2="447.34" gradientUnits="userSpaceOnUse">
<stop stop-color="#0F61C3"/>
<stop offset="1" stop-color="#4D9DFC"/>
</linearGradient>
<linearGradient id="paint30_linear_118_563" x1="603" y1="375" x2="732.296" y2="361.105" gradientUnits="userSpaceOnUse">
<stop stop-color="#FFD0D0"/>
<stop offset="1" stop-color="white"/>
</linearGradient>
<linearGradient id="paint31_linear_118_563" x1="568.596" y1="438.406" x2="568.596" y2="629.11" gradientUnits="userSpaceOnUse">
<stop stop-color="#0F61C3"/>
<stop offset="1" stop-color="#4D9DFC"/>
</linearGradient>
<linearGradient id="paint32_linear_118_563" x1="577.67" y1="366.757" x2="577.67" y2="441.447" gradientUnits="userSpaceOnUse">
<stop stop-color="#0B5DBD"/>
<stop offset="1" stop-color="#3988E7"/>
</linearGradient>
<linearGradient id="paint33_linear_118_563" x1="573" y1="403" x2="620" y2="403" gradientUnits="userSpaceOnUse">
<stop stop-color="#0F3D86"/>
<stop offset="1" stop-color="#4F8AE9"/>
</linearGradient>
<linearGradient id="paint34_linear_118_563" x1="556.223" y1="393.443" x2="555.46" y2="685.445" gradientUnits="userSpaceOnUse">
<stop stop-color="#FFD0D0"/>
<stop offset="1" stop-color="white"/>
</linearGradient>
<linearGradient id="paint35_linear_118_563" x1="568.589" y1="461.161" x2="568.589" y2="629.105" gradientUnits="userSpaceOnUse">
<stop stop-color="#002F6D"/>
<stop offset="1" stop-color="#004CB0"/>
</linearGradient>
<linearGradient id="paint36_linear_118_563" x1="525" y1="610" x2="610" y2="606" gradientUnits="userSpaceOnUse">
<stop stop-color="#122D50"/>
<stop offset="0.296875" stop-color="#6AA1E7"/>
<stop offset="0.630208" stop-color="#19375D"/>
<stop offset="1" stop-color="#73ADF7"/>
</linearGradient>
<linearGradient id="paint37_linear_118_563" x1="939.784" y1="507.37" x2="1161.13" y2="546.869" gradientUnits="userSpaceOnUse">
<stop stop-color="#9D7558"/>
<stop offset="1" stop-color="#D09D77"/>
</linearGradient>
<linearGradient id="paint38_linear_118_563" x1="1026.43" y1="426.408" x2="1026.72" y2="503.89" gradientUnits="userSpaceOnUse">
<stop stop-color="#2E5B90"/>
<stop offset="1" stop-color="#84B8F7"/>
</linearGradient>
<linearGradient id="paint39_linear_118_563" x1="1075.51" y1="422.541" x2="1076" y2="516.5" gradientUnits="userSpaceOnUse">
<stop stop-color="#2E5B90"/>
<stop offset="1" stop-color="#84B8F7"/>
</linearGradient>
<linearGradient id="paint40_linear_118_563" x1="1056.31" y1="493.814" x2="1056.31" y2="504.972" gradientUnits="userSpaceOnUse">
<stop stop-color="#FFD0D0"/>
<stop offset="1" stop-color="white"/>
</linearGradient>
<linearGradient id="paint41_linear_118_563" x1="1097.72" y1="436.18" x2="1098" y2="507.254" gradientUnits="userSpaceOnUse">
<stop stop-color="#2E5B90"/>
<stop offset="1" stop-color="#84B8F7"/>
</linearGradient>
<linearGradient id="paint42_linear_118_563" x1="1071.16" y1="395.786" x2="1071.16" y2="442.889" gradientUnits="userSpaceOnUse">
<stop stop-color="white"/>
<stop offset="1" stop-color="#FFD0D0"/>
</linearGradient>
<linearGradient id="paint43_linear_118_563" x1="1058" y1="390" x2="1058.2" y2="417.968" gradientUnits="userSpaceOnUse">
<stop stop-color="white"/>
<stop offset="1" stop-color="#FFC5C5"/>
</linearGradient>
<linearGradient id="paint44_linear_118_563" x1="1084.58" y1="605.638" x2="1110.79" y2="605.685" gradientUnits="userSpaceOnUse">
<stop stop-color="#9D7558"/>
<stop offset="1" stop-color="#D09D77"/>
</linearGradient>
<linearGradient id="paint45_linear_118_563" x1="1015.99" y1="604.307" x2="1045.91" y2="604.366" gradientUnits="userSpaceOnUse">
<stop stop-color="#9D7558"/>
<stop offset="1" stop-color="#D09D77"/>
</linearGradient>
<linearGradient id="paint46_linear_118_563" x1="1024" y1="535.5" x2="1121.5" y2="536.5" gradientUnits="userSpaceOnUse">
<stop stop-color="#9D7558"/>
<stop offset="1" stop-color="#D09D77"/>
</linearGradient>
<linearGradient id="paint47_linear_118_563" x1="984.5" y1="507" x2="934.577" y2="640.902" gradientUnits="userSpaceOnUse">
<stop stop-color="#FFD0D0"/>
<stop offset="1" stop-color="white"/>
</linearGradient>
<linearGradient id="paint48_linear_118_563" x1="994.279" y1="507.125" x2="967.733" y2="640.146" gradientUnits="userSpaceOnUse">
<stop stop-color="#FFD0D0"/>
<stop offset="1" stop-color="white"/>
</linearGradient>
<linearGradient id="paint49_linear_118_563" x1="1024.16" y1="512.484" x2="1024.14" y2="552.295" gradientUnits="userSpaceOnUse">
<stop stop-color="#FFD0D0"/>
<stop offset="1" stop-color="white"/>
</linearGradient>
<linearGradient id="paint50_linear_118_563" x1="1044" y1="507.986" x2="1043.99" y2="558.019" gradientUnits="userSpaceOnUse">
<stop stop-color="#FFD0D0"/>
<stop offset="1" stop-color="white"/>
</linearGradient>
<linearGradient id="paint51_linear_118_563" x1="997.474" y1="512.492" x2="997" y2="669" gradientUnits="userSpaceOnUse">
<stop stop-color="#F2BABA"/>
<stop offset="1" stop-color="white"/>
</linearGradient>
<linearGradient id="paint52_linear_118_563" x1="1054.14" y1="507.129" x2="1054.14" y2="557.355" gradientUnits="userSpaceOnUse">
<stop stop-color="#01346D"/>
<stop offset="1" stop-color="#2A70BD"/>
</linearGradient>
<linearGradient id="paint53_linear_118_563" x1="1024.72" y1="554.972" x2="1104.99" y2="558.823" gradientUnits="userSpaceOnUse">
<stop stop-color="#9D7558"/>
<stop offset="1" stop-color="#D09D77"/>
</linearGradient>
<linearGradient id="paint54_linear_118_563" x1="990.291" y1="442.509" x2="990.291" y2="499.898" gradientUnits="userSpaceOnUse">
<stop stop-color="#F0F2FC"/>
<stop offset="1" stop-color="#C3B9FF"/>
</linearGradient>
<clipPath id="clip0_118_563">
<rect width="1600" height="760" fill="white"/>
</clipPath>
<clipPath id="clip1_118_563">
<rect width="243.087" height="57.5294" fill="white" transform="translate(1316.15 666.735)"/>
</clipPath>
</defs>
</svg>
