<svg width="1600" height="760" viewBox="0 0 1600 760" fill="none" xmlns="http://www.w3.org/2000/svg">
<g clip-path="url(#clip0_21_1037)">
<rect width="1600" height="760" fill="white"/>
<rect y="-1" width="1600" height="760" fill="url(#paint0_radial_21_1037)"/>
<path d="M341.184 601.337C171.691 575.031 -1.26783 735.429 -66.5608 818.917L-64.2152 858.447L1680.03 754.947L1670.99 602.593C1582.87 607.822 1571.14 591.163 1472.59 559.821C1374.04 528.479 1310.32 513.252 1141.31 534.024C972.297 554.797 930.228 611.838 739.573 657.861C548.919 703.884 553.049 634.219 341.184 601.337Z" fill="#7A33E7"/>
<path d="M401.152 624.059C231.659 597.753 58.7002 758.152 -6.5928 841.64L-4.2472 881.169L1740 777.67L1730.96 625.316C1642.84 630.544 1631.11 613.885 1532.56 582.544C1434 551.202 1370.29 535.975 1201.28 556.747C1032.27 577.52 990.196 634.561 799.541 680.584C608.887 726.607 613.017 656.942 401.152 624.059Z" fill="#853FF0"/>
<path d="M951.128 567.535C948.769 555.132 948.948 542.279 951.757 529.965C953.074 524.191 954.819 518.288 957.667 513.046L957.735 513.596C958.486 514.984 963.78 524.46 972.498 525.155C979.585 525.719 985.971 520.245 991.077 515.868C992.876 514.326 994.266 512.903 995.224 511.861C992.225 512.044 987.835 511.965 982.874 510.481C978.947 509.306 977.561 508.119 974.953 507.388C971.583 506.444 966.576 506.379 959.365 510.223C962.679 505.266 967.329 501.578 972.175 498.19C976.988 494.826 982.062 491.7 986.235 487.518C989.423 484.322 991.724 480.619 992.994 476.397C994.436 478.893 999.526 486.737 1007.43 487.368C1014.51 487.932 1020.9 482.458 1026.01 478.08C1027.81 476.538 1029.2 475.116 1030.15 474.074C1027.15 474.256 1022.76 474.177 1017.8 472.694C1013.88 471.52 1012.49 470.332 1009.88 469.601C1006.44 468.637 1001.29 468.588 993.822 472.691C994.831 466.321 994.566 459.606 994.143 453.207C993.934 450.054 993.538 446.928 993.124 443.805C995.071 446.901 999.903 453.312 1007.02 453.879C1014.1 454.443 1020.49 448.968 1025.6 444.592C1027.39 443.049 1028.78 441.627 1029.74 440.585C1026.74 440.767 1022.35 440.689 1017.39 439.205C1013.47 438.031 1012.08 436.842 1009.47 436.111C1005.9 435.112 1000.5 435.096 992.583 439.668C992.38 438.058 992.192 436.445 992.045 434.827C991.4 427.784 992.13 420.741 996.677 415.082L996.818 416.229C997.568 417.617 1002.86 427.092 1011.58 427.787C1018.67 428.351 1025.05 422.877 1030.16 418.5C1031.96 416.957 1033.35 415.536 1034.31 414.494C1031.31 414.675 1026.92 414.597 1021.96 413.113C1018.03 411.939 1016.64 410.751 1014.03 410.021C1010.75 409.1 1005.91 409.015 998.992 412.571C1002.68 409.064 1007.28 406.584 1011.93 404.444L1013.5 405.442C1015.11 405.752 1026.19 407.727 1032.5 401.151C1037.62 395.805 1037.44 387.043 1037.3 380.039C1037.25 377.57 1037.03 375.511 1036.83 374.052C1035 376.592 1032.04 380.082 1027.58 383.107C1024.05 385.5 1022.19 385.835 1019.88 387.458C1016.72 389.683 1013.13 394.048 1011.59 403.492C1007.01 405.602 1002.53 408.018 998.789 411.397C994.973 414.842 992.431 419.17 991.386 424.102C990.995 420.45 989.584 413.977 984.464 410.702C978.912 407.15 971.318 408.845 965.247 410.2C963.108 410.677 961.355 411.233 960.121 411.668C962.653 412.827 966.21 414.805 969.626 418.181C972.329 420.853 972.949 422.429 974.766 424.164C977.316 426.598 981.892 429.028 990.774 428.59L990.852 428.386C990.583 433.748 991.548 439.113 992.254 444.408C992.78 448.358 993.126 452.331 993.298 456.31L993.231 456.014C992.412 454.804 986.67 446.556 978.572 446.715C971.989 446.845 966.602 452.476 962.295 456.978C960.777 458.565 959.626 460.003 958.838 461.052C961.586 460.609 965.639 460.278 970.346 461.191C974.071 461.913 975.457 462.881 977.928 463.315C981.341 463.915 986.388 463.417 993.371 458.341C993.44 460.846 993.44 463.352 993.363 465.858C993.283 468.427 993.071 470.95 992.602 473.387C992.529 473.431 992.457 473.472 992.383 473.516L992.455 474.097C991.659 477.795 990.23 481.282 987.696 484.406C985.168 487.524 982.043 490.054 978.787 492.393L978.547 490.731C977.825 489.46 972.737 480.79 964.652 480.317C958.079 479.934 952.272 485.129 947.63 489.281C945.994 490.745 944.734 492.088 943.868 493.072C946.642 492.844 950.709 492.831 955.331 494.108C958.99 495.118 960.296 496.191 962.725 496.816C965.561 497.546 969.622 497.585 975.25 494.856C974.741 495.203 974.234 495.549 973.728 495.896C968.893 499.211 963.986 502.629 960.278 507.244C959.255 508.517 958.342 509.865 957.515 511.266C957.494 511.278 957.474 511.29 957.453 511.302L957.459 511.358C954.835 515.836 953.114 520.866 951.752 525.841C948.025 539.459 947.5 553.863 950.138 567.73C950.26 568.371 951.25 568.176 951.128 567.535Z" fill="#DED9FF" fill-opacity="0.36"/>
<path d="M900.408 586.071C903.255 583.656 907.92 584.821 910.298 587.693C912.675 590.565 913.224 594.552 913.141 598.298C913.008 604.357 911.599 609.839 909.875 615.503C913.575 611.284 917.426 607.199 921.391 603.25C924.013 600.638 926.697 598.083 929.434 595.585C924.066 589.122 920.67 581.023 919.845 572.648C919.533 569.474 919.772 565.827 922.204 563.775C925.046 561.377 929.712 562.542 932.092 565.402C934.472 568.263 935.028 572.23 934.95 575.956C934.82 582.212 933.315 587.849 931.512 593.711C940.034 586.11 949.093 579.108 958.691 572.948C954.539 565.78 952.528 557.374 953.031 549.096C953.223 545.912 954.035 542.349 956.762 540.71C959.947 538.795 964.369 540.688 966.267 543.892C968.165 547.094 968.087 551.1 967.421 554.766C966.343 560.707 964.093 565.876 961.504 571.173C971.723 564.839 982.899 559.208 994.757 557.08C995.004 557.036 995.253 557.003 995.5 556.96C992.324 549.207 991.497 540.494 993.19 532.283C993.834 529.159 995.144 525.749 998.075 524.517C1001.5 523.079 1005.61 525.586 1007.03 529.028C1008.45 532.47 1007.81 536.423 1006.63 539.956C1004.55 546.182 1001.23 551.306 997.56 556.628C1011.32 554.544 1025.53 554.998 1039.2 552.443C1035.89 544.591 1035 535.722 1036.72 527.37C1037.36 524.247 1038.67 520.835 1041.61 519.604C1045.03 518.165 1049.14 520.673 1050.56 524.114C1051.99 527.556 1051.34 531.509 1050.16 535.042C1048.02 541.435 1044.58 546.666 1040.79 552.143C1044.2 551.443 1047.57 550.544 1050.89 549.351C1057.6 546.937 1063.74 543.101 1069.13 538.322C1063.7 531.513 1060.43 522.986 1059.93 514.274C1059.76 511.09 1060.15 507.456 1062.66 505.508C1065.6 503.232 1070.22 504.593 1072.47 507.551C1074.73 510.509 1075.12 514.497 1074.89 518.215C1074.46 525.036 1072.43 531.05 1070.14 537.413C1078.68 529.521 1085.25 519.247 1089.13 508.545C1084.98 501.81 1082.75 493.895 1082.8 485.978C1082.83 482.787 1083.45 479.186 1086.08 477.403C1089.16 475.319 1093.68 476.972 1095.74 480.068C1097.81 483.165 1097.94 487.169 1097.48 490.866C1096.73 496.763 1094.81 501.973 1092.55 507.314C1092.58 507.528 1092.56 507.76 1092.48 508.01C1089.39 517.193 1084.42 525.695 1078.18 533.079C1076.8 534.707 1075.36 536.293 1073.86 537.824C1080.91 534.78 1088.79 533.682 1096.39 534.746C1099.54 535.186 1103.02 536.276 1104.43 539.131C1106.09 542.467 1103.86 546.743 1100.53 548.394C1097.2 550.044 1093.23 549.654 1089.64 548.704C1082.94 546.93 1077.38 543.684 1071.49 540.126C1068.21 543.197 1064.64 545.958 1060.73 548.168C1054.81 551.515 1048.5 553.581 1042 554.938C1049.9 555.336 1057.69 557.996 1064.17 562.564C1066.77 564.398 1069.37 566.96 1069.33 570.149C1069.29 573.875 1065.36 576.662 1061.65 576.606C1057.94 576.549 1054.58 574.382 1051.81 571.892C1046.52 567.119 1043 561.512 1039.27 555.467C1028.49 557.392 1017.25 557.595 1006.45 558.592C1003.05 558.906 999.692 559.313 996.367 559.9C1004.96 559.896 1013.54 562.593 1020.58 567.544C1023.18 569.374 1025.79 571.933 1025.75 575.122C1025.71 578.848 1021.79 581.64 1018.08 581.588C1014.37 581.536 1011.01 579.374 1008.24 576.887C1002.82 572.013 999.255 566.263 995.421 560.066C991.883 560.731 988.393 561.619 984.96 562.86C978.679 565.13 972.664 568.114 966.88 571.442C965.341 572.327 963.819 573.241 962.309 574.176C970.067 573.428 978.034 574.865 985.027 578.324C987.878 579.734 990.839 581.863 991.29 585.02C991.818 588.71 988.368 592.069 984.691 592.587C981.014 593.105 977.363 591.483 974.251 589.449C968.502 585.691 964.264 580.911 959.833 575.737C950.458 581.756 941.631 588.675 933.323 596.108C940.981 593.355 949.439 592.863 957.353 594.758C960.445 595.499 963.802 596.916 964.94 599.894C966.269 603.373 963.648 607.418 960.176 608.741C956.705 610.064 952.787 609.295 949.304 608.004C942.693 605.555 937.399 601.699 931.77 597.511C930.676 598.505 929.589 599.505 928.513 600.515C922.612 606.061 916.938 611.897 911.606 618.028C919.106 615.463 927.331 615.045 935.04 616.892C938.132 617.632 941.489 619.05 942.628 622.028C943.957 625.507 941.335 629.551 937.864 630.875C934.393 632.197 930.475 631.429 926.991 630.138C920.562 627.756 915.378 624.044 909.921 619.991C903.926 627.054 898.393 634.505 893.501 642.364C892.482 644 890.022 642.302 891.039 640.668C895.979 632.733 901.583 625.219 907.64 618.093C902.254 611.593 898.851 603.436 898.036 594.995C897.727 591.805 897.97 588.138 900.408 586.071Z" fill="#DED9FF" fill-opacity="0.36"/>
<path d="M658.721 567.535C661.08 555.132 660.902 542.279 658.092 529.965C656.775 524.191 655.03 518.288 652.182 513.046L652.115 513.596C651.364 514.984 646.069 524.46 637.352 525.155C630.264 525.719 623.878 520.245 618.772 515.868C616.973 514.326 615.583 512.903 614.625 511.861C617.625 512.044 622.015 511.965 626.976 510.481C630.902 509.306 632.288 508.119 634.897 507.388C638.266 506.444 643.274 506.379 650.484 510.223C647.17 505.266 642.521 501.578 637.675 498.19C632.861 494.826 627.787 491.7 623.614 487.518C620.426 484.322 618.125 480.619 616.855 476.397C615.413 478.893 610.323 486.737 602.421 487.368C595.334 487.932 588.948 482.458 583.843 478.08C582.043 476.538 580.653 475.116 579.695 474.074C582.695 474.256 587.085 474.177 592.046 472.694C595.972 471.52 597.359 470.332 599.967 469.601C603.41 468.637 608.561 468.588 616.027 472.691C615.018 466.321 615.284 459.606 615.707 453.207C615.915 450.054 616.312 446.928 616.725 443.805C614.778 446.901 609.946 453.312 602.833 453.879C595.745 454.443 589.36 448.968 584.254 444.592C582.455 443.049 581.065 441.627 580.107 440.585C583.106 440.767 587.496 440.689 592.457 439.205C596.383 438.031 597.77 436.842 600.378 436.111C603.946 435.112 609.351 435.096 617.265 439.668C617.468 438.058 617.656 436.445 617.804 434.827C618.448 427.784 617.719 420.741 613.172 415.082L613.031 416.229C612.28 417.617 606.986 427.092 598.268 427.787C591.181 428.351 584.795 422.877 579.689 418.5C577.89 416.957 576.499 415.536 575.542 414.494C578.541 414.675 582.932 414.597 587.893 413.113C591.819 411.939 593.205 410.751 595.814 410.021C599.097 409.1 603.937 409.015 610.857 412.571C607.169 409.064 602.571 406.584 597.919 404.444L596.346 405.442C594.738 405.752 583.656 407.727 577.353 401.151C572.228 395.805 572.404 387.043 572.545 380.039C572.595 377.57 572.818 375.511 573.021 374.052C574.853 376.592 577.81 380.082 582.269 383.107C585.797 385.5 587.664 385.835 589.969 387.458C593.13 389.683 596.714 394.048 598.263 403.492C602.838 405.602 607.315 408.018 611.059 411.397C614.876 414.842 617.417 419.17 618.463 424.102C618.854 420.45 620.264 413.977 625.384 410.702C630.937 407.15 638.53 408.845 644.601 410.2C646.741 410.677 648.493 411.233 649.728 411.668C647.196 412.827 643.639 414.805 640.223 418.181C637.52 420.853 636.9 422.429 635.083 424.164C632.533 426.598 627.957 429.028 619.074 428.59L618.996 428.386C619.266 433.748 618.301 439.113 617.595 444.408C617.068 448.358 616.722 452.331 616.551 456.31L616.618 456.014C617.436 454.804 623.179 446.556 631.276 446.715C637.86 446.845 643.247 452.476 647.553 456.978C649.071 458.565 650.223 460.003 651.011 461.052C648.263 460.609 644.209 460.278 639.503 461.191C635.778 461.913 634.392 462.881 631.921 463.315C628.507 463.915 623.461 463.417 616.477 458.341C616.409 460.846 616.408 463.352 616.486 465.858C616.566 468.427 616.778 470.95 617.246 473.387C617.32 473.431 617.392 473.472 617.465 473.516L617.393 474.097C618.189 477.795 619.618 481.282 622.152 484.406C624.68 487.524 627.804 490.054 631.061 492.393L631.301 490.731C632.023 489.46 637.11 480.79 645.196 480.317C651.769 479.934 657.576 485.129 662.218 489.281C663.854 490.745 665.114 492.088 665.98 493.072C663.206 492.844 659.139 492.831 654.517 494.108C650.858 495.118 649.552 496.191 647.122 496.816C644.286 497.546 640.226 497.585 634.598 494.856C635.106 495.203 635.614 495.549 636.12 495.896C640.955 499.211 645.862 502.629 649.569 507.244C650.592 508.517 651.505 509.865 652.332 511.266C652.353 511.278 652.373 511.29 652.394 511.302L652.388 511.358C655.012 515.836 656.733 520.866 658.095 525.841C661.822 539.459 662.347 553.863 659.709 567.73C659.589 568.371 658.599 568.176 658.721 567.535Z" fill="#DED9FF" fill-opacity="0.36"/>
<path d="M709.442 586.071C706.594 583.656 701.929 584.821 699.552 587.693C697.175 590.565 696.625 594.552 696.708 598.298C696.842 604.357 698.251 609.839 699.974 615.503C696.275 611.284 692.424 607.199 688.458 603.25C685.836 600.638 683.153 598.083 680.416 595.585C685.784 589.122 689.18 581.023 690.005 572.648C690.317 569.474 690.078 565.827 687.646 563.775C684.803 561.377 680.137 562.542 677.757 565.402C675.377 568.263 674.822 572.23 674.9 575.956C675.03 582.212 676.535 587.849 678.337 593.711C669.816 586.11 660.756 579.108 651.159 572.948C655.31 565.78 657.321 557.374 656.819 549.096C656.626 545.912 655.815 542.349 653.088 540.71C649.902 538.795 645.48 540.688 643.583 543.892C641.685 547.094 641.762 551.1 642.428 554.766C643.506 560.707 645.757 565.876 648.345 571.173C638.127 564.839 626.95 559.208 615.093 557.08C614.846 557.036 614.597 557.003 614.35 556.96C617.526 549.207 618.353 540.494 616.66 532.283C616.016 529.159 614.706 525.749 611.775 524.517C608.349 523.079 604.241 525.586 602.819 529.028C601.396 532.47 602.043 536.423 603.223 539.956C605.302 546.182 608.624 551.306 612.29 556.628C598.526 554.544 584.32 554.998 570.65 552.443C573.963 544.591 574.852 535.722 573.13 527.37C572.487 524.247 571.176 520.835 568.244 519.604C564.819 518.165 560.712 520.673 559.288 524.114C557.865 527.555 558.513 531.509 559.692 535.042C561.828 541.435 565.273 546.666 569.057 552.143C565.651 551.443 562.283 550.544 558.965 549.351C552.248 546.937 546.112 543.101 540.719 538.322C546.154 531.513 549.426 522.986 549.917 514.274C550.096 511.09 549.705 507.456 547.188 505.508C544.248 503.232 539.635 504.593 537.377 507.551C535.119 510.509 534.73 514.497 534.964 518.215C535.392 525.036 537.425 531.05 539.714 537.413C531.171 529.521 524.6 519.247 520.726 508.545C524.87 501.81 527.105 493.895 527.049 485.978C527.026 482.787 526.406 479.186 523.77 477.403C520.692 475.319 516.174 476.972 514.108 480.068C512.042 483.165 511.907 487.169 512.376 490.866C513.124 496.763 515.046 501.973 517.302 507.314C517.272 507.528 517.286 507.76 517.371 508.01C520.465 517.193 525.434 525.695 531.675 533.079C533.052 534.707 534.494 536.293 535.994 537.824C528.946 534.78 521.064 533.682 513.461 534.746C510.312 535.186 506.836 536.276 505.419 539.131C503.764 542.467 505.988 546.743 509.318 548.394C512.647 550.044 516.621 549.654 520.212 548.704C526.909 546.93 532.469 543.684 538.356 540.126C541.644 543.197 545.213 545.958 549.121 548.168C555.04 551.515 561.351 553.581 567.853 554.938C559.948 555.336 552.16 557.996 545.682 562.564C543.082 564.398 540.483 566.96 540.521 570.149C540.566 573.875 544.491 576.662 548.204 576.606C551.917 576.549 555.275 574.382 558.037 571.892C563.33 567.119 566.849 561.512 570.578 555.467C581.367 557.392 592.603 557.595 603.398 558.592C606.796 558.906 610.16 559.313 613.485 559.9C604.89 559.896 596.31 562.593 589.27 567.544C586.667 569.374 584.065 571.933 584.099 575.122C584.139 578.848 588.06 581.64 591.773 581.588C595.485 581.536 598.847 579.374 601.612 576.887C607.033 572.013 610.597 566.263 614.431 560.066C617.968 560.731 621.459 561.619 624.892 562.86C631.173 565.13 637.188 568.114 642.972 571.442C644.51 572.327 646.033 573.241 647.543 574.176C639.784 573.428 631.818 574.865 624.825 578.324C621.973 579.734 619.013 581.863 618.562 585.02C618.034 588.71 621.484 592.069 625.161 592.587C628.838 593.105 632.489 591.483 635.601 589.449C641.35 585.691 645.588 580.911 650.019 575.737C659.394 581.756 668.221 588.675 676.529 596.108C668.871 593.355 660.413 592.863 652.498 594.758C649.407 595.499 646.049 596.916 644.912 599.894C643.583 603.373 646.204 607.418 649.676 608.741C653.147 610.064 657.065 609.295 660.548 608.004C667.159 605.555 672.453 601.699 678.082 597.511C679.176 598.505 680.263 599.505 681.338 600.515C687.24 606.061 692.914 611.897 698.246 618.028C690.746 615.463 682.521 615.045 674.812 616.892C671.72 617.632 668.363 619.05 667.224 622.028C665.895 625.507 668.517 629.551 671.988 630.875C675.459 632.197 679.377 631.429 682.861 630.138C689.29 627.756 694.473 624.044 699.931 619.991C705.926 627.054 711.459 634.505 716.351 642.364C717.37 644 719.83 642.302 718.813 640.668C713.873 632.733 708.269 625.219 702.211 618.093C707.598 611.593 711.001 603.436 711.815 594.995C712.123 591.805 711.879 588.138 709.442 586.071Z" fill="#DED9FF" fill-opacity="0.36"/>
<path d="M463.144 510.314C461.204 510.314 459.631 511.893 459.631 513.839V628.029V639.714V647.874C459.631 649.821 461.205 651.399 463.144 651.399H471.553C473.493 651.399 475.066 649.821 475.066 647.874V643.239C475.066 641.292 476.639 639.714 478.579 639.714H584.973C586.914 639.714 588.486 641.293 588.486 643.239V647.874C588.486 649.821 590.059 651.399 591.999 651.399H600.408C602.348 651.399 603.92 649.821 603.92 647.874V639.714V628.029V513.84C603.92 511.893 602.348 510.315 600.408 510.315L463.144 510.314Z" fill="url(#paint1_linear_21_1037)"/>
<path d="M591.606 540.685H471.977C471.049 540.685 470.298 539.931 470.298 539V519.165C470.298 518.235 471.049 517.48 471.977 517.48H591.606C592.534 517.48 593.286 518.235 593.286 519.165V539C593.285 539.931 592.533 540.685 591.606 540.685Z" fill="white"/>
<path d="M589.615 517.481H589.542C589.596 517.734 589.629 517.995 589.629 518.264V526.103C589.629 532.555 584.417 537.785 577.988 537.785H470.385C470.743 539.442 472.21 540.685 473.969 540.685H589.615C591.643 540.685 593.286 539.036 593.286 537.002V521.164C593.285 519.13 591.642 517.481 589.615 517.481Z" fill="#E0E3FF"/>
<path d="M591.606 575.158H471.977C471.049 575.158 470.298 574.404 470.298 573.473V553.638C470.298 552.707 471.049 551.953 471.977 551.953H591.606C592.534 551.953 593.286 552.707 593.286 553.638V573.473C593.285 574.404 592.533 575.158 591.606 575.158Z" fill="white"/>
<path d="M589.614 551.953H589.398C589.539 552.344 589.629 552.761 589.629 553.201V564.862C589.629 569.202 586.122 572.722 581.796 572.722H470.528C471.039 574.139 472.379 575.158 473.968 575.158H589.614C591.642 575.158 593.285 573.509 593.285 571.475V555.638C593.285 553.603 591.642 551.953 589.614 551.953Z" fill="#E0E3FF"/>
<path d="M523.16 629.761H473.192C471.593 629.761 470.298 628.461 470.298 626.857V587.242C470.298 585.638 471.593 584.338 473.192 584.338H523.16C524.759 584.338 526.054 585.638 526.054 587.242V626.858C526.054 628.461 524.758 629.761 523.16 629.761Z" fill="white"/>
<path d="M521.786 584.401C521.828 584.665 521.856 584.933 521.856 585.208V615.611C521.856 621.119 517.406 625.584 511.917 625.584H471.129C470.869 625.584 470.616 625.559 470.368 625.52C470.753 627.923 472.823 629.761 475.327 629.761H521.025C523.803 629.761 526.054 627.501 526.054 624.714V589.384C526.054 586.858 524.201 584.771 521.786 584.401Z" fill="#E0E3FF"/>
<path d="M590.391 629.761H540.191C538.593 629.761 537.297 628.461 537.297 626.857V587.242C537.297 585.638 538.593 584.338 540.191 584.338H590.391C591.989 584.338 593.285 585.638 593.285 587.242V626.857C593.285 628.461 591.989 629.761 590.391 629.761Z" fill="white"/>
<path d="M589.618 584.53C589.936 585.192 590.12 585.931 590.12 586.716V616.746C590.12 622.46 585.504 627.093 579.809 627.093H539.162C538.689 627.093 538.233 627.023 537.799 626.9C538.611 628.591 540.331 629.762 542.326 629.762H588.255C591.033 629.762 593.285 627.502 593.285 624.715V589.385C593.285 587.072 591.733 585.128 589.618 584.53Z" fill="#E0E3FF"/>
<path d="M528.135 529.896C528.135 527.06 530.425 524.762 533.25 524.762C536.076 524.762 538.367 527.061 538.367 529.896C538.367 532.731 536.076 535.029 533.25 535.029C530.425 535.029 528.135 532.731 528.135 529.896Z" fill="#757FFF"/>
<path d="M534.941 525.054C536.128 525.995 536.893 527.448 536.893 529.084C536.893 531.919 534.603 534.217 531.777 534.217C531.184 534.217 530.617 534.111 530.087 533.924C530.957 534.614 532.055 535.029 533.251 535.029C536.077 535.029 538.368 532.731 538.368 529.896C538.367 527.655 536.935 525.755 534.941 525.054Z" fill="#6D59F0"/>
<path d="M528.135 562.512C528.135 559.676 530.425 557.378 533.25 557.378C536.076 557.378 538.367 559.677 538.367 562.512C538.367 565.348 536.076 567.646 533.25 567.646C530.425 567.646 528.135 565.348 528.135 562.512Z" fill="#757FFF"/>
<path d="M534.941 557.67C536.128 558.611 536.893 560.064 536.893 561.7C536.893 564.535 534.603 566.834 531.777 566.834C531.184 566.834 530.617 566.728 530.087 566.541C530.957 567.231 532.055 567.646 533.251 567.646C536.077 567.646 538.368 565.347 538.368 562.512C538.367 560.271 536.935 558.372 534.941 557.67Z" fill="#6D59F0"/>
<path d="M497.142 612.184C499.967 612.184 502.258 609.885 502.258 607.05C502.258 604.215 499.967 601.916 497.142 601.916C494.317 601.916 492.026 604.215 492.026 607.05C492.026 609.885 494.317 612.184 497.142 612.184Z" fill="#757FFF"/>
<path d="M498.833 602.208C500.02 603.149 500.784 604.602 500.784 606.238C500.784 609.073 498.494 611.371 495.668 611.371C495.075 611.371 494.508 611.265 493.978 611.078C494.848 611.768 495.946 612.183 497.142 612.183C499.968 612.183 502.258 609.885 502.258 607.05C502.259 604.809 500.826 602.909 498.833 602.208Z" fill="#6D59F0"/>
<path d="M565.291 612.184C568.117 612.184 570.407 609.885 570.407 607.05C570.407 604.215 568.117 601.916 565.291 601.916C562.466 601.916 560.175 604.215 560.175 607.05C560.175 609.885 562.466 612.184 565.291 612.184Z" fill="#757FFF"/>
<path d="M566.981 602.208C568.168 603.149 568.933 604.602 568.933 606.238C568.933 609.073 566.643 611.371 563.817 611.371C563.224 611.371 562.657 611.265 562.127 611.078C562.998 611.768 564.095 612.183 565.291 612.183C568.117 612.183 570.407 609.885 570.407 607.05C570.408 604.809 568.975 602.909 566.981 602.208Z" fill="#6D59F0"/>
<path d="M988.639 440.289C980.437 379.585 902.965 364.846 879.465 314.629C877.176 304.879 879.551 293.099 880.811 279.334C886.61 215.758 849.122 204.304 825.061 208.364C801.358 199.022 765.108 205.157 749.223 233.49C730.679 266.567 757.17 316.865 725.507 343.107C692.528 370.439 621.037 456.271 672.971 495.204C674.099 496.056 675.284 496.874 676.53 497.67H676.538C685.693 502.772 695.326 506.724 705.27 509.786C705.277 509.794 705.291 509.794 705.312 509.8C712.478 512.012 719.803 513.759 727.231 515.152C729.143 515.514 731.061 515.848 732.986 516.161C735.713 516.61 738.446 517.01 741.193 517.367C747.276 518.177 753.401 518.789 759.532 519.274H759.568C772.736 520.303 785.929 520.719 798.812 521.051H798.833C802.196 521.074 805.558 521.068 808.92 521.02C810.044 521.013 811.166 520.993 812.283 520.972C813.931 520.941 815.582 520.903 817.238 520.851C818.186 520.832 819.133 520.805 820.08 520.771C820.346 520.762 820.613 520.754 820.881 520.745C821.982 520.703 823.084 520.662 824.186 520.613C825.744 520.555 827.302 520.482 828.86 520.409C829.407 520.385 829.947 520.354 830.488 520.329C830.832 520.313 831.169 520.29 831.506 520.274C832.243 520.234 832.987 520.194 833.731 520.148C834.503 520.109 835.274 520.061 836.046 520.008C837.597 519.914 839.155 519.813 840.705 519.699C842.348 519.583 844.003 519.461 845.645 519.332C846.009 519.301 846.374 519.271 846.739 519.241C851.076 518.884 855.411 518.485 859.732 518.023C862.678 517.526 865.778 517.05 869.019 516.581H869.025C872.673 516.052 876.489 515.529 880.416 514.992C885.074 514.351 889.892 513.682 894.795 512.949H894.801C894.878 512.942 894.956 512.927 895.033 512.913C901.353 511.959 907.805 510.893 914.227 509.615C917.01 509.056 919.787 508.462 922.548 507.819H922.556C935.91 504.711 948.781 500.494 959.57 494.315C978.201 483.646 990.628 467.11 988.639 440.289ZM712.218 358.083C752.767 330.147 743.359 305.122 751.374 254.453C749.941 263.965 749.962 274.693 751.836 286.602C759.702 336.529 716.054 357.299 685.018 390.626C692.225 378.362 701.61 367.5 712.218 358.083ZM958.79 491.776C958.79 491.784 958.783 491.784 958.783 491.784C948.888 498.287 937.249 502.935 925.59 505.574C929.177 504.447 932.779 503.264 936.309 501.947C936.778 501.768 937.248 501.589 937.71 501.411C938.053 501.281 938.397 501.146 938.74 501.01C941.563 499.908 944.335 498.688 947.03 497.334C947.975 496.871 948.892 496.393 949.773 495.916C952.754 494.278 955.622 492.437 958.333 490.335C958.333 490.335 958.333 490.335 958.333 490.329L958.34 490.322C960.934 487.481 963.213 484.636 965.176 481.793C965.176 481.793 965.183 481.793 965.176 481.786C1000.16 431.452 941.439 381.343 901.91 352.517C894.934 346.69 887.215 337.549 882.236 323.891C908.142 366.584 967.408 380.62 983.101 430.658C991.941 457.662 978.985 478.541 958.79 491.776Z" fill="#1F1C80"/>
<path d="M892.826 412.171C899.971 414.322 969.416 507.679 958.455 539.727C949.474 565.989 888.035 635.32 888.035 635.32L859.102 617.631L906.016 541.4L846.542 457.991L892.826 412.171Z" fill="#FF8FCF"/>
<path d="M811.655 347.162C849.849 347.162 880.811 316.091 880.811 277.763C880.811 239.435 849.849 208.364 811.655 208.364C773.462 208.364 742.5 239.435 742.5 277.763C742.5 316.091 773.462 347.162 811.655 347.162Z" fill="#1F1C80"/>
<path d="M892.478 635.768L728.186 633.534C757.472 611.103 717.989 478.921 718.336 426.773C718.509 400.723 783.177 385.089 789.932 383.36C800.529 383.311 817.405 383.768 831.693 384.301C862.394 385.447 911.314 414.898 905.362 441.889C890.96 507.194 864.097 626.52 892.478 635.768Z" fill="#FF8FCF"/>
<path d="M832.723 384.887C832.548 388.185 810.905 418.751 810.905 418.751L787.168 383.343C788.892 374.357 794.404 345.624 796.028 337.135L826.667 337.761L826.859 339.238L832.723 384.887Z" fill="url(#paint2_linear_21_1037)"/>
<path d="M832.723 384.888C824.739 375.401 821.747 346.766 793.606 350.091L796.019 337.486L826.658 338.112L826.858 339.239L832.723 384.888Z" fill="#FFE1E1"/>
<path d="M761.316 287.968L765.038 312.57C764.712 312.488 764.536 312.378 764.232 312.432C764.232 312.432 764.232 312.432 764.208 312.297C723.529 306.191 727.565 267.067 754.759 274.818C754.979 279.445 758.601 283.778 761.316 287.968ZM856.42 319.504C855.54 319.73 854.689 319.822 853.674 320.018C853.812 319.647 857.834 299.001 858.039 297.997C860.554 294.054 862.674 289.725 864.456 285.059C886.169 278.192 891.555 311.15 856.42 319.504Z" fill="url(#paint3_linear_21_1037)"/>
<path d="M869.787 281.434C868.059 362.737 759.408 376.331 750.933 278.213C756.372 184.696 875.356 202.731 869.787 281.434Z" fill="url(#paint4_linear_21_1037)"/>
<path d="M870.735 253.657C867.633 240.547 856.591 212.934 821.614 210.424C814.046 209.887 769.602 203.386 752.45 245.783C749.186 253.829 743.298 291.682 765.489 319.793C748.282 262.593 777.063 261.633 777.91 236.028C783.517 234.862 788.927 234.471 794.13 234.712C797.938 235.299 801.657 236.232 805.167 237.611C815.255 241.525 823.109 249.072 828.909 257.687C834.844 266.3 839.108 275.912 843.547 285.471C845.753 290.263 848.009 295.07 850.624 299.736C853.302 304.332 856.302 308.982 860.645 312.374C856.922 308.437 854.379 303.803 852.274 299.01C850.091 294.249 848.221 289.352 846.247 284.472C842.35 274.708 838.181 264.858 832.049 255.835C828.942 251.368 825.353 247.11 821.036 243.494C819.708 242.393 818.296 241.376 816.845 240.406C843.842 253.234 861.316 285.697 863.057 319.793C866.691 316.146 871.235 290.658 871.884 280.659C872.44 271.777 872.17 259.708 870.735 253.657Z" fill="#1F1C80"/>
<path d="M804.925 492.416C804.798 483.653 818.514 483.653 818.386 492.417C818.513 501.179 804.796 501.179 804.925 492.416ZM804.925 515.041C804.798 506.279 818.514 506.278 818.386 515.042C818.513 523.805 804.796 523.805 804.925 515.041ZM804.925 441.89C804.798 433.127 818.514 433.126 818.386 441.89C818.513 450.652 804.796 450.653 804.925 441.89ZM804.925 464.516C804.798 455.752 818.514 455.752 818.386 464.516C818.513 473.278 804.796 473.278 804.925 464.516ZM882.442 457.991H843.727C840.208 458.044 840.194 452.21 843.727 452.264H882.442C885.96 452.211 885.975 458.045 882.442 457.991ZM787.169 383.343C779.038 384.491 759.977 388.089 755.214 394.456C772.546 398.84 798.382 405.914 810.906 418.751L787.169 383.343Z" fill="white"/>
<path d="M832.652 384.329C841.141 384.329 858.542 387.441 866.83 394.263C849.497 398.646 823.429 405.913 810.905 418.751L832.652 384.329Z" fill="white"/>
<path d="M741.09 401.047C712.098 412.287 646.051 510.363 663.003 545.101C675.171 570.037 727.548 635.32 727.548 635.32L756.481 617.631L709.568 541.4L769.041 457.991L741.09 401.047Z" fill="#FF8FCF"/>
<path d="M909.78 486.951H700.069C688.9 486.951 680.198 496.671 681.391 507.816L694.989 634.856C696.014 644.433 704.068 651.694 713.667 651.694H896.182C905.78 651.694 913.834 644.433 914.859 634.856L928.457 507.816C929.65 496.671 920.949 486.951 909.78 486.951Z" fill="url(#paint5_linear_21_1037)"/>
<path d="M909.78 486.951H907C906.983 487.196 906.967 487.441 906.941 487.688L897.106 579.571C893.94 609.143 869.068 631.566 839.43 631.566H694.636L694.988 634.855C696.013 644.432 704.067 651.694 713.666 651.694H896.181C905.779 651.694 913.833 644.433 914.858 634.856L928.456 507.816C929.65 496.671 920.948 486.951 909.78 486.951Z" fill="#7525E9" fill-opacity="0.12"/>
<path d="M813.262 550.104H794.082C790.669 550.104 787.903 552.881 787.903 556.306V575.553C787.903 578.978 790.669 581.754 794.082 581.754H813.262C816.674 581.754 819.441 578.978 819.441 575.553V556.306C819.441 552.88 816.675 550.104 813.262 550.104Z" fill="#7525E9" fill-opacity="0.12"/>
<path d="M1176.54 654.192C1176.54 655.049 1176.15 655.821 1175.52 656.382C1174.9 656.943 1174.03 657.294 1173.08 657.294H421.032C419.129 657.294 417.583 655.907 417.583 654.192C417.583 653.343 417.965 652.563 418.591 652.002C419.216 651.441 420.085 651.09 421.032 651.09H1173.08C1174.99 651.09 1176.54 652.485 1176.54 654.192ZM400.462 657.297H342.832C341.329 657.297 340.11 656.075 340.11 654.566V653.826C340.11 652.317 341.329 651.094 342.832 651.094H400.462C401.965 651.094 403.184 652.317 403.184 653.826V654.566C403.184 656.075 401.965 657.297 400.462 657.297ZM1242.72 657.297H1185.09C1183.59 657.297 1182.37 656.075 1182.37 654.566V653.826C1182.37 652.317 1183.59 651.094 1185.09 651.094H1242.72C1244.22 651.094 1245.44 652.317 1245.44 653.826V654.566C1245.44 656.075 1244.22 657.297 1242.72 657.297Z" fill="#DED9FF"/>
<path d="M532.453 465.079C530.992 462.712 530.11 460.03 529.646 457.263L529.842 457.535C531.793 458.656 534.446 457.945 535.975 456.367C537.504 454.787 538.097 452.559 538.271 450.395C536.771 451.553 534.808 451.96 533.004 452.612C531.589 453.125 530.159 453.922 529.362 455.104C529.14 452.664 529.207 450.201 529.474 447.865C529.559 447.116 529.688 446.373 529.803 445.629C531.885 446.708 534.57 445.953 536.292 444.427C538.026 442.89 539.001 440.737 539.93 438.648C538.995 439.616 537.599 440.037 536.242 440.28C534.885 440.524 533.482 440.634 532.211 441.143C531.497 441.429 530.826 441.882 530.341 442.454C530.974 439.144 531.731 435.857 532.299 432.536C532.413 431.862 532.498 431.184 532.592 430.507L532.662 430.827C534.153 431.937 536.34 431.896 537.964 431.02C539.587 430.143 540.693 428.562 541.328 426.876C541.962 425.19 542.173 423.383 542.38 421.596C540.718 423.193 537.853 422.705 535.782 423.776C534.504 424.437 533.681 425.606 533.04 426.887C533.076 426.553 533.117 426.22 533.153 425.886C533.319 424.314 533.463 422.73 533.398 421.145C533.32 419.266 532.805 417.576 531.972 416.021C532.717 414.37 532.557 412.357 531.713 410.706C530.727 408.778 528.933 407.311 526.959 406.302C524.985 405.294 522.821 404.698 520.673 404.121C520.13 406.245 519.928 408.486 520.406 410.638C520.883 412.789 522.087 414.846 523.951 416.136C525.815 417.426 528.365 417.852 530.445 416.977L530.978 416.901C531.622 418.214 532.022 419.631 532.094 421.193C532.169 422.801 531.995 424.409 531.824 426.003C531.748 426.708 531.662 427.41 531.58 428.114C530.336 426.857 528.965 425.708 527.383 424.884C525.511 423.909 523.326 423.402 521.248 423.764C518.87 424.177 516.591 425.689 514.234 425.121C516.18 427.769 518.658 430.201 521.8 431.359C524.943 432.518 528.836 432.144 531.125 429.823L531.407 429.572C531.268 430.647 531.114 431.721 530.925 432.789C530.268 436.518 529.383 440.263 528.747 444.022L528.813 443.212C528.773 441.976 527.865 440.876 526.76 440.229C525.656 439.581 524.37 439.303 523.111 439.036C521.565 438.709 520.02 438.381 518.474 438.054C518.28 438.013 518.067 437.974 517.891 438.058C517.618 438.19 517.57 438.541 517.575 438.837C517.62 441.308 519.057 443.732 521.253 445.043C523.413 446.333 526.236 446.496 528.516 445.483C528.073 448.448 527.828 451.423 528.012 454.406C527.546 453.254 526.41 452.406 525.184 451.995C523.853 451.548 522.42 451.528 521.017 451.512C519.411 451.495 517.805 451.477 516.199 451.459C516.018 451.457 515.817 451.462 515.688 451.583C515.523 451.738 515.558 451.998 515.614 452.215C516.243 454.652 518.077 456.791 520.451 457.852C522.825 458.914 525.687 458.878 527.999 457.756L528.094 455.43C528.24 456.947 528.492 458.468 528.906 459.989C529.359 461.653 530.002 463.268 530.829 464.785C529.431 463.679 527.343 463.76 525.577 464.201C523.717 464.666 521.859 465.432 519.944 465.199C520.828 467.499 523.025 469.3 525.524 469.773C528.022 470.245 530.73 469.371 532.4 467.553L531.756 466.312C532.832 467.921 534.143 469.382 535.733 470.595C536.398 471.103 537.219 470.132 536.554 469.625C535.826 469.069 535.174 468.462 534.571 467.823C535.357 467.914 536.226 467.637 536.83 467.124C537.777 466.318 538.228 465.114 538.644 463.962C539.029 462.896 539.414 461.829 539.8 460.764C537.054 461.723 534.144 462.838 532.453 465.079ZM568.076 430.893C566.827 431.274 565.515 431.389 564.235 431.653C562.957 431.918 561.664 432.36 560.721 433.266C559.85 434.103 559.365 435.414 559.701 436.557C557.728 437.661 555.94 439.07 554.338 440.679C555.163 439.147 555.083 437.184 554.385 435.564C553.603 433.747 552.162 432.299 550.634 431.049C549.88 433.018 549.23 435.125 549.559 437.21C549.889 439.291 551.477 441.311 553.571 441.463C552.596 442.522 551.697 443.654 550.884 444.844C550.136 445.941 549.481 447.087 548.877 448.256C548.875 447.406 548.544 446.541 548.033 445.847C547.3 444.852 546.257 444.138 545.236 443.445C545.01 443.292 544.729 443.133 544.481 443.246C544.302 443.328 544.209 443.525 544.142 443.711C543.668 445.035 543.802 446.566 544.5 447.787C545.197 449.008 546.446 449.897 547.825 450.155L548.073 449.919C547.138 451.988 546.386 454.137 545.788 456.336C545.397 455.574 544.763 454.921 544.041 454.447C542.947 453.731 541.671 453.356 540.416 452.991C541.376 453.905 540.846 455.565 541.392 456.775C541.703 457.467 542.361 457.96 543.076 458.211C543.769 458.455 544.516 458.492 545.251 458.469C544.925 459.895 544.646 461.332 544.418 462.773C544.346 463.227 544.291 463.683 544.226 464.138C543.477 462.9 542.08 462.059 540.632 462.052C540.857 463.028 541.105 464.05 541.773 464.794C542.333 465.418 543.286 465.749 544.039 465.472C543.759 467.669 543.546 469.876 543.36 472.083C542.568 471.171 541.399 470.582 540.19 470.575C540.415 471.551 540.663 472.573 541.331 473.318C541.795 473.835 542.529 474.146 543.195 474.084C543.176 474.335 543.154 474.586 543.133 474.837C543.082 475.484 544.08 475.697 544.132 475.041C544.15 474.814 544.17 474.583 544.188 474.356C545.314 474.688 546.549 474.653 547.646 474.231C549.076 473.68 550.247 472.484 550.77 471.039C550.172 471.506 549.35 471.556 548.597 471.476C547.844 471.395 547.094 471.203 546.338 471.26C545.583 471.316 544.784 471.694 544.513 472.404L544.331 472.618C544.469 470.997 544.623 469.358 544.808 467.715C546.213 468.817 548.299 469.018 549.841 468.098C551.362 467.189 552.178 465.472 552.91 463.853C552.136 464.464 551.069 464.538 550.088 464.45C549.106 464.362 548.125 464.137 547.146 464.247C546.348 464.338 545.531 464.724 545.096 465.374C545.405 463.064 545.795 460.76 546.318 458.502L546.307 459.141C547.234 460.356 548.988 460.734 550.45 460.302C551.912 459.869 553.095 458.756 553.939 457.482C552.777 457.408 551.615 457.333 550.453 457.258C549.032 457.167 547.42 457.157 546.408 458.139C546.962 455.813 547.663 453.542 548.558 451.364C549.157 452.337 550.201 453 551.322 453.231C552.517 453.478 553.768 453.286 554.914 452.869C556.149 452.42 557.288 451.709 558.236 450.797C557.197 451.148 556.05 450.897 555.029 450.495C554.008 450.093 553.041 449.542 551.979 449.268C551.14 449.052 550.207 449.051 549.432 449.399C550.565 447.055 551.973 444.854 553.711 442.841C553.672 443.574 553.97 444.349 554.489 444.887C555.275 445.701 556.428 446.053 557.551 446.177C559.614 446.406 561.849 445.895 563.299 444.403C561.327 443.56 559.355 442.716 557.382 441.872C556.625 441.548 555.734 441.245 554.985 441.46C555.376 441.065 555.762 440.667 556.184 440.291C557.351 439.249 558.623 438.338 559.974 437.567L560.084 438.006C561.108 439.109 562.89 439.271 564.251 438.634C565.612 437.997 566.576 436.699 567.132 435.3C567.689 433.901 567.885 432.388 568.076 430.893Z" fill="url(#paint6_linear_21_1037)"/>
<path d="M522.415 469.894C521.267 469.464 520.234 468.855 519.294 468.129C519.979 467.872 520.56 467.307 520.868 466.63C521.295 465.696 521.266 464.604 520.997 463.612C520.728 462.621 520.235 461.707 519.746 460.805C519.689 462.049 518.903 463.117 518.319 464.215C517.921 464.963 517.629 465.858 517.703 466.675C516.308 465.217 515.164 463.49 514.242 461.682C514.976 461.847 515.823 461.522 516.3 460.91C516.896 460.147 516.986 459.082 516.766 458.138C516.547 457.194 516.055 456.34 515.569 455.503C514.455 456.434 513.595 457.65 513.035 458.991C512.119 456.734 511.366 454.41 510.542 452.116C512.026 451.991 513.418 450.919 514.032 449.521C514.771 447.835 514.534 445.843 513.785 444.16C511.584 445.226 510.019 447.47 509.699 449.893C509.141 448.505 508.527 447.141 507.782 445.832C507.465 445.274 507.126 444.732 506.764 444.206C506.927 444.114 507.311 442.665 507.126 441.978C506.896 441.125 506.344 440.395 505.726 439.766C503.38 437.383 499.865 436.221 496.567 436.739C498.414 438.804 498.04 442.309 500.098 444.163C501.051 445.022 502.4 445.357 503.676 445.245C504.351 445.185 505.007 445.006 505.636 444.754C506.715 446.304 507.568 448.02 508.314 449.778C507.219 449.499 505.931 449.687 504.836 450.082C503.132 450.697 501.489 451.689 499.68 451.664C500.593 453.563 502.605 454.877 504.705 454.947C506.522 455.007 508.33 454.13 509.456 452.705C509.561 452.996 509.674 453.288 509.775 453.578C510.532 455.744 511.27 457.945 512.166 460.066C511.216 459.374 510.008 459.055 508.822 459.053C507.421 459.05 506.048 459.412 504.694 459.772C505.265 461.467 506.78 462.808 508.528 463.164C510.104 463.485 511.811 462.988 513 461.907C513.862 463.668 514.878 465.345 516.179 466.855C516.511 467.242 516.87 467.6 517.234 467.951C515.665 467.284 513.803 467.307 512.28 468.085C511.187 468.643 510.302 469.528 509.341 470.293C508.38 471.056 507.256 471.73 506.029 471.734C507.595 471.728 508.985 472.704 510.502 473.094C512.097 473.505 513.855 473.234 515.254 472.362C516.599 471.523 517.578 470.135 517.955 468.593C519.185 469.642 520.557 470.509 522.088 471.083C522.831 471.363 523.151 470.17 522.415 469.894Z" fill="url(#paint7_linear_21_1037)"/>
<path d="M550.943 475.513L550.37 480.067L546.555 510.314H512.954L508.74 480.067L508.109 475.513H550.943Z" fill="url(#paint8_linear_21_1037)"/>
<path d="M550.104 475.516H508.949C506.187 475.516 503.948 473.684 503.948 471.423C503.948 469.163 506.187 467.33 508.949 467.33H550.104C552.866 467.33 555.105 469.163 555.105 471.423C555.105 473.684 552.866 475.516 550.104 475.516Z" fill="#E3415B"/>
<path d="M1151.19 627.693V647.233H1094.59C1089.22 647.233 1084.85 642.856 1084.85 637.467C1084.85 632.078 1089.22 627.693 1094.59 627.693H1151.19Z" fill="white"/>
<path d="M1094.59 627.692C1086.09 627.692 1080.1 638.671 1089.96 647.233H1151.19V651.093H986.965V623.832H1151.19V627.692L1094.59 627.692Z" fill="url(#paint9_linear_21_1037)"/>
<path d="M1084.85 637.467C1084.85 642.856 1089.22 647.233 1094.59 647.233H1151.19V651.093H1094.59C1087.09 651.093 1081 644.978 1081 637.466C1081 629.947 1087.09 623.832 1094.59 623.832H1151.19V627.692H1094.59C1089.22 627.692 1084.85 632.078 1084.85 637.467Z" fill="#18B881"/>
<path d="M1047.98 623.833H1044.34V651.094H1047.98V623.833Z" fill="white"/>
<path d="M1038.87 623.833H1035.23V651.094H1038.87V623.833Z" fill="white"/>
<path d="M1098.27 634.685V643.169L1102.57 640.17L1106.87 643.169V634.685H1098.27Z" fill="#26DB9D"/>
<path d="M1055.88 638.927C1055.88 634.552 1059.42 631.005 1063.78 631.005C1068.14 631.005 1071.67 634.552 1071.67 638.927C1071.67 643.302 1068.14 646.849 1063.78 646.849C1059.42 646.849 1055.88 643.302 1055.88 638.927ZM1002.51 600.432V619.973H1059.11C1064.48 619.973 1068.85 615.596 1068.85 610.206C1068.85 604.818 1064.48 600.432 1059.11 600.432H1002.51Z" fill="white"/>
<path d="M1059.11 600.432C1067.61 600.432 1073.6 611.411 1063.74 619.972H1002.51V623.832H1166.74V596.571H1002.51V600.431L1059.11 600.432Z" fill="url(#paint10_linear_21_1037)"/>
<path d="M1068.85 610.205C1068.85 615.594 1064.48 619.972 1059.11 619.972H1002.51V623.832H1059.11C1066.61 623.832 1072.7 617.717 1072.7 610.205C1072.7 602.685 1066.6 596.57 1059.11 596.57H1002.51V600.43H1059.11C1064.48 600.432 1068.85 604.817 1068.85 610.205Z" fill="#FFA68B"/>
<path d="M1105.72 623.833H1109.36V596.571H1105.72V623.833Z" fill="white"/>
<path d="M1114.83 623.833H1118.47V596.571H1114.83V623.833Z" fill="white"/>
<path d="M1055.43 607.423V615.908L1051.13 612.909L1046.83 615.908V607.423H1055.43Z" fill="#F07C58"/>
<path d="M1089.43 617.68C1093.55 617.68 1096.88 614.332 1096.88 610.202C1096.88 606.071 1093.55 602.723 1089.43 602.723C1085.32 602.723 1081.98 606.071 1081.98 610.202C1081.98 614.332 1085.32 617.68 1089.43 617.68Z" fill="white"/>
<path d="M1131.93 300.587C1132.27 300.587 1132.27 301.11 1131.93 301.11C1131.6 301.11 1131.6 300.587 1131.93 300.587Z" fill="#D94559"/>
<path d="M1143.58 375.007C1144.15 375.468 1144.51 376.135 1144.58 376.89C1144.68 377.888 1144.25 378.831 1143.43 379.412L1135.57 385.018C1134.76 385.599 1133.73 385.697 1132.82 385.28C1131.92 384.863 1131.32 384.018 1131.22 383.021L1130.31 373.388C1130.22 372.39 1130.65 371.447 1131.46 370.866C1132.28 370.286 1133.3 370.188 1134.21 370.605L1142.98 374.631C1143.2 374.733 1143.4 374.858 1143.58 375.007ZM1133.6 383.211C1133.65 383.252 1133.7 383.277 1133.73 383.293C1133.82 383.335 1134.06 383.415 1134.31 383.237L1142.17 377.631C1142.42 377.453 1142.42 377.198 1142.41 377.097C1142.4 376.997 1142.35 376.748 1142.07 376.62L1133.31 372.593C1133.03 372.466 1132.81 372.59 1132.72 372.649C1132.64 372.708 1132.45 372.878 1132.48 373.182L1133.39 382.815C1133.41 383.012 1133.51 383.136 1133.6 383.211ZM504.255 219.546C504.82 220.007 505.181 220.675 505.252 221.43C505.347 222.428 504.917 223.371 504.103 223.951L496.245 229.558C495.431 230.139 494.403 230.236 493.494 229.82C492.587 229.403 491.988 228.558 491.893 227.56L490.984 217.928C490.889 216.93 491.32 215.987 492.133 215.406C492.947 214.826 493.975 214.728 494.883 215.145L503.651 219.171C503.872 219.273 504.074 219.399 504.255 219.546ZM494.271 227.751C494.321 227.792 494.369 227.817 494.401 227.833C494.493 227.875 494.734 227.954 494.982 227.777L502.84 222.171C503.088 221.993 503.093 221.738 503.084 221.637C503.074 221.537 503.023 221.288 502.745 221.159L493.977 217.133C493.7 217.005 493.477 217.13 493.395 217.189C493.312 217.248 493.123 217.418 493.152 217.722L494.061 227.355C494.081 227.552 494.178 227.676 494.271 227.751Z" fill="#10AA95"/>
<path d="M988.573 352.15L990.673 347.801C991.15 346.814 990.738 345.626 989.755 345.148C988.771 344.669 987.587 345.082 987.111 346.069L985.011 350.418L980.677 348.311C979.695 347.833 978.51 348.245 978.033 349.233C977.557 350.22 977.968 351.407 978.952 351.886L983.285 353.993L981.19 358.334C980.713 359.321 981.125 360.509 982.108 360.987C982.6 361.226 983.142 361.243 983.62 361.076C984.099 360.909 984.514 360.559 984.752 360.066L986.847 355.725L991.173 357.828C991.664 358.067 992.207 358.083 992.685 357.917C993.163 357.75 993.578 357.401 993.817 356.907C994.294 355.92 993.883 354.732 992.899 354.253L988.573 352.15ZM465.298 420.938L467.398 416.59C467.875 415.603 467.463 414.415 466.479 413.936C465.496 413.458 464.312 413.871 463.835 414.858L461.736 419.206L457.402 417.1C456.42 416.621 455.235 417.034 454.758 418.021C454.282 419.008 454.693 420.196 455.677 420.674L460.01 422.781L457.915 427.122C457.438 428.109 457.85 429.298 458.833 429.775C459.325 430.015 459.867 430.031 460.345 429.864C460.824 429.697 461.239 429.348 461.477 428.854L463.573 424.513L467.899 426.616C468.39 426.856 468.932 426.872 469.411 426.705C469.889 426.538 470.304 426.189 470.543 425.695C471.019 424.708 470.608 423.52 469.624 423.042L465.298 420.938Z" fill="#F03D5A"/>
<path d="M1118.16 506.36C1114.11 507.772 1109.67 505.613 1108.26 501.549C1106.86 497.484 1109.01 493.028 1113.06 491.616C1117.11 490.205 1121.55 492.363 1122.96 496.428C1124.36 500.493 1122.21 504.949 1118.16 506.36ZM1113.86 493.923C1111.07 494.894 1109.6 497.955 1110.56 500.748C1111.53 503.541 1114.58 505.024 1117.36 504.054C1120.15 503.083 1121.62 500.022 1120.66 497.23C1119.69 494.436 1116.64 492.953 1113.86 493.923ZM658.964 337.053C654.913 338.465 650.473 336.306 649.066 332.242C647.659 328.177 649.81 323.721 653.86 322.309C657.911 320.897 662.352 323.056 663.758 327.121C665.166 331.185 663.015 335.641 658.964 337.053ZM654.659 324.616C651.877 325.586 650.399 328.647 651.365 331.44C652.332 334.233 655.382 335.716 658.165 334.746C660.948 333.776 662.426 330.715 661.46 327.922C660.493 325.129 657.442 323.645 654.659 324.616ZM930.748 185.5C926.698 186.911 922.257 184.752 920.85 180.688C919.444 176.623 921.595 172.167 925.645 170.756C929.696 169.344 934.136 171.503 935.543 175.568C936.949 179.632 934.799 184.088 930.748 185.5ZM926.444 173.062C923.661 174.033 922.183 177.094 923.149 179.887C924.116 182.68 927.166 184.163 929.949 183.193C932.732 182.222 934.21 179.161 933.243 176.369C932.277 173.576 929.227 172.093 926.444 173.062Z" fill="white" fill-opacity="0.56"/>
<g clip-path="url(#clip1_21_1037)">
<path d="M420.396 255.304H393.713H380.371H353.688H340.347V268.646V277.54H353.688V268.646H380.371V344.248H362.583V357.589H380.371H393.713H411.502V344.248H393.713V268.646H420.396V277.54H433.738V268.646V255.304H420.396Z" fill="#FAD656"/>
<path d="M447.079 377.602H433.738C433.148 377.602 432.583 377.367 432.166 376.95C431.749 376.533 431.514 375.968 431.514 375.378C431.514 374.788 431.749 374.223 432.166 373.806C432.583 373.389 433.148 373.154 433.738 373.154H447.079C447.71 373.155 448.338 373.065 448.943 372.888C449.509 372.722 450.118 372.788 450.635 373.071C451.153 373.354 451.537 373.831 451.702 374.397C451.868 374.963 451.802 375.572 451.519 376.09C451.236 376.607 450.759 376.991 450.193 377.157C449.181 377.452 448.133 377.602 447.079 377.602ZM420.396 377.602H407.055C406.465 377.602 405.9 377.367 405.483 376.95C405.066 376.533 404.831 375.968 404.831 375.378C404.831 374.788 405.066 374.223 405.483 373.806C405.9 373.389 406.465 373.154 407.055 373.154H420.396C420.986 373.154 421.552 373.389 421.969 373.806C422.386 374.223 422.62 374.788 422.62 375.378C422.62 375.968 422.386 376.533 421.969 376.95C421.552 377.367 420.986 377.602 420.396 377.602ZM393.713 377.602H380.372C379.782 377.602 379.217 377.367 378.8 376.95C378.383 376.533 378.148 375.968 378.148 375.378C378.148 374.788 378.383 374.223 378.8 373.806C379.217 373.389 379.782 373.154 380.372 373.154H393.713C394.303 373.154 394.869 373.389 395.286 373.806C395.703 374.223 395.937 374.788 395.937 375.378C395.937 375.968 395.703 376.533 395.286 376.95C394.869 377.367 394.303 377.602 393.713 377.602ZM367.03 377.602H353.689C353.099 377.602 352.534 377.367 352.117 376.95C351.699 376.533 351.465 375.968 351.465 375.378C351.465 374.788 351.699 374.223 352.117 373.806C352.534 373.389 353.099 373.154 353.689 373.154H367.03C367.62 373.154 368.186 373.389 368.603 373.806C369.02 374.223 369.254 374.788 369.254 375.378C369.254 375.968 369.02 376.533 368.603 376.95C368.186 377.367 367.62 377.602 367.03 377.602ZM340.347 377.602H327.006C326.416 377.602 325.85 377.367 325.433 376.95C325.016 376.533 324.782 375.968 324.782 375.378C324.782 374.788 325.016 374.223 325.433 373.806C325.85 373.389 326.416 373.154 327.006 373.154H340.347C340.937 373.154 341.503 373.389 341.92 373.806C342.337 374.223 342.571 374.788 342.571 375.378C342.571 375.968 342.337 376.533 341.92 376.95C341.503 377.367 340.937 377.602 340.347 377.602ZM318.111 369.343C317.545 369.344 316.999 369.129 316.586 368.741C316.173 368.354 315.923 367.823 315.888 367.257C315.888 366.986 315.861 366.715 315.888 366.439V353.778C315.888 353.188 316.122 352.623 316.539 352.206C316.956 351.789 317.522 351.554 318.111 351.554C318.701 351.554 319.267 351.789 319.684 352.206C320.101 352.623 320.335 353.188 320.335 353.778V366.982C320.372 367.57 320.173 368.149 319.782 368.591C319.392 369.033 318.842 369.302 318.254 369.339L318.111 369.343ZM455.974 366.804C455.384 366.804 454.819 366.57 454.402 366.153C453.985 365.736 453.75 365.17 453.75 364.58V351.239C453.75 350.649 453.985 350.083 454.402 349.666C454.819 349.249 455.384 349.015 455.974 349.015C456.564 349.015 457.129 349.249 457.546 349.666C457.963 350.083 458.197 350.649 458.197 351.239V364.58C458.197 365.17 457.963 365.736 457.546 366.153C457.129 366.57 456.564 366.804 455.974 366.804ZM318.111 342.66C317.522 342.66 316.956 342.426 316.539 342.009C316.122 341.592 315.888 341.026 315.888 340.436V327.095C315.888 326.505 316.122 325.94 316.539 325.523C316.956 325.106 317.522 324.871 318.111 324.871C318.701 324.871 319.267 325.106 319.684 325.523C320.101 325.94 320.335 326.505 320.335 327.095V340.436C320.335 341.026 320.101 341.592 319.684 342.009C319.267 342.426 318.701 342.66 318.111 342.66ZM455.974 340.121C455.384 340.121 454.819 339.886 454.402 339.469C453.985 339.052 453.75 338.487 453.75 337.897V324.556C453.75 323.966 453.985 323.4 454.402 322.983C454.819 322.566 455.384 322.332 455.974 322.332C456.564 322.332 457.129 322.566 457.546 322.983C457.963 323.4 458.197 323.966 458.197 324.556V337.897C458.197 338.487 457.963 339.052 457.546 339.469C457.129 339.886 456.564 340.121 455.974 340.121ZM318.111 315.977C317.522 315.977 316.956 315.743 316.539 315.326C316.122 314.909 315.888 314.343 315.888 313.753V300.412C315.888 299.822 316.122 299.257 316.539 298.84C316.956 298.423 317.522 298.188 318.111 298.188C318.701 298.188 319.267 298.423 319.684 298.84C320.101 299.257 320.335 299.822 320.335 300.412V313.753C320.335 314.343 320.101 314.909 319.684 315.326C319.267 315.743 318.701 315.977 318.111 315.977ZM455.974 313.438C455.384 313.438 454.819 313.203 454.402 312.786C453.985 312.369 453.75 311.804 453.75 311.214V297.873C453.75 297.283 453.985 296.717 454.402 296.3C454.819 295.883 455.384 295.649 455.974 295.649C456.564 295.649 457.129 295.883 457.546 296.3C457.963 296.717 458.197 297.283 458.197 297.873V311.214C458.197 311.804 457.963 312.369 457.546 312.786C457.129 313.203 456.564 313.438 455.974 313.438ZM318.111 289.294C317.522 289.294 316.956 289.06 316.539 288.643C316.122 288.226 315.888 287.66 315.888 287.07V273.729C315.888 273.139 316.122 272.574 316.539 272.157C316.956 271.74 317.522 271.505 318.111 271.505C318.701 271.505 319.267 271.74 319.684 272.157C320.101 272.574 320.335 273.139 320.335 273.729V287.07C320.335 287.66 320.101 288.226 319.684 288.643C319.267 289.06 318.701 289.294 318.111 289.294ZM455.974 286.755C455.384 286.755 454.819 286.52 454.402 286.103C453.985 285.686 453.75 285.121 453.75 284.531V271.19C453.75 270.6 453.985 270.034 454.402 269.617C454.819 269.2 455.384 268.966 455.974 268.966C456.564 268.966 457.129 269.2 457.546 269.617C457.963 270.034 458.197 270.6 458.197 271.19V284.531C458.197 285.121 457.963 285.686 457.546 286.103C457.129 286.52 456.564 286.755 455.974 286.755ZM318.111 262.611C317.522 262.611 316.956 262.377 316.539 261.96C316.122 261.543 315.888 260.977 315.888 260.387V247.046C315.888 246.456 316.122 245.891 316.539 245.473C316.956 245.056 317.522 244.822 318.111 244.822C318.701 244.822 319.267 245.056 319.684 245.473C320.101 245.891 320.335 246.456 320.335 247.046V260.387C320.335 260.977 320.101 261.543 319.684 261.96C319.267 262.377 318.701 262.611 318.111 262.611ZM455.974 260.072C455.384 260.072 454.819 259.837 454.402 259.42C453.985 259.003 453.75 258.438 453.75 257.848V246.41C453.746 245.931 453.694 245.455 453.595 244.987C453.471 244.409 453.582 243.807 453.904 243.311C454.225 242.816 454.729 242.468 455.307 242.345C455.884 242.222 456.487 242.333 456.982 242.654C457.478 242.975 457.825 243.48 457.948 244.057C458.111 244.831 458.194 245.619 458.197 246.41V257.848C458.197 258.438 457.963 259.003 457.546 259.42C457.129 259.837 456.564 260.072 455.974 260.072ZM325.738 239.828C325.149 239.869 324.567 239.673 324.121 239.285C323.675 238.897 323.402 238.348 323.361 237.758C323.321 237.168 323.516 236.586 323.904 236.141C324.292 235.695 324.842 235.422 325.431 235.381C325.947 235.328 326.356 235.354 327.006 235.292H339.08C339.67 235.292 340.235 235.526 340.652 235.943C341.069 236.36 341.303 236.926 341.303 237.516C341.303 238.105 341.069 238.671 340.652 239.088C340.235 239.505 339.67 239.739 339.08 239.739H327.006C326.677 239.779 326.361 239.739 326.054 239.806C325.949 239.821 325.844 239.828 325.738 239.828ZM445.812 239.739H432.471C431.881 239.739 431.315 239.505 430.898 239.088C430.481 238.671 430.247 238.105 430.247 237.516C430.247 236.926 430.481 236.36 430.898 235.943C431.315 235.526 431.881 235.292 432.471 235.292H445.812C446.402 235.292 446.967 235.526 447.384 235.943C447.801 236.36 448.036 236.926 448.036 237.516C448.036 238.105 447.801 238.671 447.384 239.088C446.967 239.505 446.402 239.739 445.812 239.739ZM419.129 239.739H405.787C405.198 239.739 404.632 239.505 404.215 239.088C403.798 238.671 403.564 238.105 403.564 237.516C403.564 236.926 403.798 236.36 404.215 235.943C404.632 235.526 405.198 235.292 405.787 235.292H419.129C419.719 235.292 420.284 235.526 420.701 235.943C421.118 236.36 421.353 236.926 421.353 237.516C421.353 238.105 421.118 238.671 420.701 239.088C420.284 239.505 419.719 239.739 419.129 239.739ZM392.446 239.739H379.104C378.515 239.739 377.949 239.505 377.532 239.088C377.115 238.671 376.881 238.105 376.881 237.516C376.881 236.926 377.115 236.36 377.532 235.943C377.949 235.526 378.515 235.292 379.104 235.292H392.446C393.036 235.292 393.601 235.526 394.018 235.943C394.435 236.36 394.67 236.926 394.67 237.516C394.67 238.105 394.435 238.671 394.018 239.088C393.601 239.505 393.036 239.739 392.446 239.739ZM365.763 239.739H352.421C351.832 239.739 351.266 239.505 350.849 239.088C350.432 238.671 350.198 238.105 350.198 237.516C350.198 236.926 350.432 236.36 350.849 235.943C351.266 235.526 351.832 235.292 352.421 235.292H365.763C366.353 235.292 366.918 235.526 367.335 235.943C367.752 236.36 367.986 236.926 367.986 237.516C367.986 238.105 367.752 238.671 367.335 239.088C366.918 239.505 366.353 239.739 365.763 239.739Z" fill="#F3EDFC" fill-opacity="0.59"/>
</g>
<rect x="975.962" y="100.066" width="308.842" height="199.839" rx="12.1115" fill="url(#paint11_linear_21_1037)"/>
<rect x="1001.7" y="172.735" width="39.3622" height="39.3622" rx="3.02786" fill="#CFC2FB"/>
<rect x="1110.7" y="172.735" width="39.3622" height="39.3622" rx="3.02786" fill="#CFC2FB"/>
<rect x="1056.2" y="172.735" width="39.3622" height="39.3622" rx="3.02786" fill="#CFC2FB"/>
<rect x="1165.2" y="172.735" width="39.3622" height="39.3622" rx="3.02786" fill="#CFC2FB"/>
<rect x="1219.7" y="172.735" width="39.3622" height="39.3622" rx="3.02786" fill="#CFC2FB"/>
<rect x="1001.7" y="225.722" width="255.854" height="9.08359" rx="4.5418" fill="#BCABF6"/>
<rect x="1050.14" y="124.289" width="207.409" height="9.08359" rx="4.5418" fill="#BCABF6"/>
<rect x="1001.7" y="245.404" width="255.854" height="9.08359" rx="4.5418" fill="#BCABF6"/>
<rect x="1050.14" y="143.97" width="130.198" height="9.08359" rx="4.5418" fill="#BCABF6"/>
<rect x="1001.7" y="265.085" width="255.854" height="9.08359" rx="4.5418" fill="#BCABF6"/>
<circle cx="1021.38" cy="137.914" r="19.6811" fill="#CFC2FB"/>
<g clip-path="url(#clip2_21_1037)">
<path d="M1391.38 704.81C1389.78 704.857 1388.21 704.457 1386.84 703.655C1385.58 702.88 1384.57 701.757 1383.94 700.421C1383.24 698.917 1382.89 697.273 1382.93 695.614C1382.89 693.954 1383.24 692.308 1383.94 690.802C1384.57 689.467 1385.58 688.344 1386.84 687.569C1388.21 686.767 1389.78 686.366 1391.38 686.413C1393.19 686.347 1394.98 686.882 1396.47 687.938C1397.84 688.968 1398.85 690.409 1399.34 692.052L1396.36 692.875C1396.08 691.814 1395.46 690.87 1394.61 690.177C1393.67 689.496 1392.53 689.158 1391.38 689.219C1390.33 689.18 1389.3 689.458 1388.41 690.015C1387.61 690.568 1386.99 691.352 1386.64 692.264C1386.22 693.342 1386.01 694.49 1386.03 695.645C1386 696.799 1386.21 697.947 1386.62 699.023C1386.98 699.938 1387.61 700.722 1388.42 701.271C1389.31 701.828 1390.34 702.106 1391.39 702.067C1392.54 702.118 1393.68 701.772 1394.6 701.087C1395.46 700.393 1396.07 699.449 1396.36 698.389L1399.34 699.171C1398.85 700.812 1397.85 702.253 1396.48 703.286C1395 704.345 1393.2 704.881 1391.38 704.81Z" fill="white"/>
<path d="M1402.59 704.446V686.778H1409.88C1410.06 686.778 1410.28 686.778 1410.55 686.778C1410.8 686.789 1411.05 686.816 1411.3 686.859C1412.22 686.973 1413.09 687.325 1413.83 687.879C1414.49 688.396 1415.01 689.079 1415.32 689.858C1415.65 690.705 1415.81 691.607 1415.8 692.516C1415.83 693.836 1415.45 695.134 1414.71 696.226C1414.31 696.759 1413.81 697.204 1413.23 697.534C1412.66 697.865 1412.02 698.073 1411.36 698.146L1410.1 698.254H1405.55V704.446H1402.59ZM1405.55 695.515H1409.76C1409.93 695.515 1410.11 695.515 1410.32 695.488C1410.51 695.476 1410.7 695.442 1410.88 695.389C1411.32 695.297 1411.73 695.071 1412.04 694.742C1412.32 694.44 1412.52 694.079 1412.64 693.685C1412.76 693.312 1412.81 692.924 1412.82 692.534C1412.81 692.141 1412.76 691.75 1412.64 691.374C1412.52 690.978 1412.32 690.615 1412.04 690.312C1411.73 689.986 1411.32 689.762 1410.88 689.669C1410.69 689.622 1410.51 689.591 1410.32 689.579C1410.11 689.579 1409.93 689.579 1409.76 689.579H1405.55V695.515ZM1412.74 704.446L1409.26 697.251L1412.26 696.59L1416.09 704.442L1412.74 704.446Z" fill="white"/>
<path d="M1419.35 704.446V686.778H1430.76V689.552H1422.3V693.905H1429.28V696.68H1422.3V701.672H1430.76V704.446H1419.35Z" fill="white"/>
<path d="M1433.04 704.446L1438.6 686.778H1442.93L1448.5 704.446H1445.46L1440.41 688.595H1441.07L1436.08 704.446H1433.04ZM1436.14 700.615V697.858H1445.41V700.615H1436.14Z" fill="white"/>
<path d="M1454.05 704.446V689.552H1448.33V686.778H1462.72V689.552H1457V704.446H1454.05Z" fill="white"/>
<path d="M1465.49 704.446V686.778H1468.45V704.446H1465.49Z" fill="white"/>
<path d="M1476.69 704.446L1471.1 686.778H1474.14L1478.81 701.573L1483.53 686.778H1486.58L1481 704.446H1476.69Z" fill="white"/>
<path d="M1488.97 704.446V686.778H1500.38V689.552H1491.93V693.905H1498.91V696.68H1491.93V701.672H1500.38V704.446H1488.97Z" fill="white"/>
<path d="M1504.12 704.446V686.778H1507.08V704.446H1504.12Z" fill="white"/>
<path d="M1515.58 704.446V689.552H1509.87V686.778H1524.26V689.552H1518.54V704.446H1515.58Z" fill="white"/>
<path d="M1526.78 704.446V686.778H1538.19V689.552H1529.76V693.905H1536.73V696.68H1529.76V701.672H1538.21V704.446H1526.78Z" fill="white"/>
<path d="M1541.7 704.446V686.778H1544.36L1550.47 699.293L1556.58 686.778H1559.24V704.446H1556.48V693.123L1551.06 704.446H1549.88L1544.48 693.123V704.446H1541.7Z" fill="white"/>
<path d="M1341.68 710.319L1328.91 702.949V717.685L1341.68 710.319Z" fill="white" fill-opacity="0.48"/>
<path d="M1367.2 695.583L1354.43 688.217V702.949L1367.2 695.583Z" fill="white" fill-opacity="0.47"/>
<path d="M1341.68 680.846L1328.91 673.48V688.217L1341.68 680.846Z" fill="white" fill-opacity="0.48"/>
<path d="M1328.91 673.48L1318.7 679.376C1317.93 679.822 1317.28 680.466 1316.83 681.243C1316.38 682.019 1316.15 682.9 1316.15 683.796V707.369C1316.15 708.266 1316.39 709.148 1316.83 709.924C1317.28 710.701 1317.93 711.346 1318.7 711.794L1328.91 717.685V673.48Z" fill="url(#paint12_linear_21_1037)"/>
<path d="M1367.2 707.369V695.583L1328.91 717.685L1339.12 723.581C1339.9 724.029 1340.78 724.265 1341.67 724.265C1342.57 724.265 1343.45 724.029 1344.23 723.581L1364.65 711.794C1365.42 711.345 1366.07 710.7 1366.51 709.923C1366.96 709.146 1367.2 708.266 1367.2 707.369Z" fill="url(#paint13_linear_21_1037)"/>
<path d="M1344.32 667.634C1343.55 667.19 1342.68 666.956 1341.79 666.956C1340.9 666.956 1340.03 667.19 1339.26 667.634L1329.13 673.48L1367.1 695.407V683.715C1367.1 682.826 1366.87 681.952 1366.42 681.182C1365.98 680.411 1365.34 679.771 1364.57 679.326L1344.32 667.634Z" fill="url(#paint14_linear_21_1037)"/>
</g>
</g>
<defs>
<radialGradient id="paint0_radial_21_1037" cx="0" cy="0" r="1" gradientUnits="userSpaceOnUse" gradientTransform="translate(800 379) rotate(92.9598) scale(490.094 806.529)">
<stop stop-color="#8085FF"/>
<stop offset="0.540512" stop-color="#762CEF"/>
<stop offset="1" stop-color="#7000C8"/>
</radialGradient>
<linearGradient id="paint1_linear_21_1037" x1="531.776" y1="510.314" x2="531.776" y2="651.399" gradientUnits="userSpaceOnUse">
<stop stop-color="#E6E9FF"/>
<stop offset="1" stop-color="#B5BDFF"/>
</linearGradient>
<linearGradient id="paint2_linear_21_1037" x1="809.946" y1="337.135" x2="809.946" y2="418.751" gradientUnits="userSpaceOnUse">
<stop stop-color="white"/>
<stop offset="1" stop-color="#FFD0D0"/>
</linearGradient>
<linearGradient id="paint3_linear_21_1037" x1="807.879" y1="273.806" x2="807.879" y2="320.018" gradientUnits="userSpaceOnUse">
<stop stop-color="white"/>
<stop offset="1" stop-color="#FFD0D0"/>
</linearGradient>
<linearGradient id="paint4_linear_21_1037" x1="810.455" y1="214.997" x2="810.455" y2="347.163" gradientUnits="userSpaceOnUse">
<stop stop-color="white"/>
<stop offset="1" stop-color="#FFD0D0"/>
</linearGradient>
<linearGradient id="paint5_linear_21_1037" x1="804.924" y1="486.951" x2="804.924" y2="651.694" gradientUnits="userSpaceOnUse">
<stop stop-color="#F0F2FC"/>
<stop offset="1" stop-color="#C3B9FF"/>
</linearGradient>
<linearGradient id="paint6_linear_21_1037" x1="541.155" y1="404.121" x2="541.155" y2="475.44" gradientUnits="userSpaceOnUse">
<stop stop-color="#A0E1BE"/>
<stop offset="1" stop-color="#47C98B"/>
</linearGradient>
<linearGradient id="paint7_linear_21_1037" x1="509.7" y1="436.617" x2="509.7" y2="473.282" gradientUnits="userSpaceOnUse">
<stop stop-color="#A0E1BE"/>
<stop offset="1" stop-color="#47C98B"/>
</linearGradient>
<linearGradient id="paint8_linear_21_1037" x1="514.308" y1="510.477" x2="554.18" y2="467.138" gradientUnits="userSpaceOnUse">
<stop offset="0.0543805" stop-color="#CD4258"/>
<stop offset="1" stop-color="#FCABB8"/>
</linearGradient>
<linearGradient id="paint9_linear_21_1037" x1="991.038" y1="650.895" x2="1082.05" y2="616.224" gradientUnits="userSpaceOnUse">
<stop stop-color="#13AA76"/>
<stop offset="1" stop-color="#29E3A2"/>
</linearGradient>
<linearGradient id="paint10_linear_21_1037" x1="1100.25" y1="623.159" x2="1142.72" y2="589.354" gradientUnits="userSpaceOnUse">
<stop stop-color="#F07C58"/>
<stop offset="1" stop-color="#FFA183"/>
</linearGradient>
<linearGradient id="paint11_linear_21_1037" x1="1130.38" y1="100.066" x2="1130.38" y2="299.905" gradientUnits="userSpaceOnUse">
<stop stop-color="#F0F2FC"/>
<stop offset="1" stop-color="#C3B9FF"/>
</linearGradient>
<linearGradient id="paint12_linear_21_1037" x1="1316.15" y1="695.583" x2="1328.91" y2="695.583" gradientUnits="userSpaceOnUse">
<stop stop-color="white"/>
<stop offset="1" stop-color="white" stop-opacity="0.82"/>
</linearGradient>
<linearGradient id="paint13_linear_21_1037" x1="1328.91" y1="709.924" x2="1367.2" y2="709.924" gradientUnits="userSpaceOnUse">
<stop stop-color="white"/>
<stop offset="1" stop-color="white" stop-opacity="0.82"/>
</linearGradient>
<linearGradient id="paint14_linear_21_1037" x1="1329.13" y1="681.182" x2="1367.1" y2="681.182" gradientUnits="userSpaceOnUse">
<stop stop-color="white"/>
<stop offset="1" stop-color="white" stop-opacity="0.82"/>
</linearGradient>
<clipPath id="clip0_21_1037">
<rect width="1600" height="760" fill="white"/>
</clipPath>
<clipPath id="clip1_21_1037">
<rect width="142.31" height="142.31" fill="white" transform="translate(315.887 235.292)"/>
</clipPath>
<clipPath id="clip2_21_1037">
<rect width="243.087" height="57.5294" fill="white" transform="translate(1316.15 666.735)"/>
</clipPath>
</defs>
</svg>
