<svg width="1600" height="760" viewBox="0 0 1600 760" fill="none" xmlns="http://www.w3.org/2000/svg">
<g clip-path="url(#clip0_69_2)">
<rect width="1600" height="760" fill="white"/>
<rect width="1600" height="760" fill="url(#paint0_linear_69_2)"/>
<g clip-path="url(#clip1_69_2)">
<path d="M1391.38 704.81C1389.78 704.857 1388.21 704.457 1386.84 703.655C1385.58 702.88 1384.57 701.757 1383.94 700.421C1383.24 698.917 1382.89 697.273 1382.93 695.614C1382.89 693.954 1383.24 692.308 1383.94 690.802C1384.57 689.467 1385.58 688.344 1386.84 687.569C1388.21 686.767 1389.78 686.366 1391.38 686.413C1393.19 686.347 1394.98 686.882 1396.47 687.938C1397.84 688.968 1398.85 690.409 1399.34 692.052L1396.36 692.875C1396.08 691.814 1395.46 690.87 1394.61 690.177C1393.67 689.496 1392.53 689.158 1391.38 689.219C1390.33 689.18 1389.3 689.458 1388.41 690.015C1387.61 690.568 1386.99 691.352 1386.64 692.264C1386.22 693.342 1386.01 694.49 1386.03 695.646C1386 696.799 1386.21 697.947 1386.62 699.023C1386.98 699.938 1387.61 700.722 1388.42 701.271C1389.31 701.828 1390.34 702.106 1391.39 702.067C1392.54 702.118 1393.68 701.772 1394.6 701.087C1395.46 700.393 1396.07 699.45 1396.36 698.389L1399.34 699.171C1398.85 700.812 1397.85 702.253 1396.48 703.286C1395 704.345 1393.2 704.881 1391.38 704.81Z" fill="white"/>
<path d="M1402.59 704.446V686.778H1409.88C1410.06 686.778 1410.28 686.778 1410.55 686.778C1410.8 686.789 1411.05 686.816 1411.3 686.859C1412.22 686.973 1413.09 687.325 1413.83 687.879C1414.49 688.396 1415.01 689.079 1415.32 689.858C1415.65 690.705 1415.81 691.607 1415.8 692.516C1415.83 693.836 1415.45 695.134 1414.71 696.226C1414.31 696.759 1413.81 697.204 1413.23 697.534C1412.66 697.865 1412.02 698.073 1411.36 698.146L1410.1 698.254H1405.55V704.446H1402.59ZM1405.55 695.515H1409.76C1409.93 695.515 1410.11 695.515 1410.32 695.488C1410.51 695.476 1410.7 695.442 1410.88 695.389C1411.32 695.297 1411.73 695.071 1412.04 694.742C1412.32 694.44 1412.52 694.079 1412.64 693.685C1412.75 693.312 1412.81 692.924 1412.82 692.534C1412.81 692.141 1412.76 691.75 1412.64 691.374C1412.52 690.978 1412.32 690.615 1412.04 690.312C1411.73 689.986 1411.32 689.762 1410.88 689.669C1410.69 689.622 1410.51 689.591 1410.32 689.579C1410.11 689.579 1409.93 689.579 1409.76 689.579H1405.55V695.515ZM1412.74 704.446L1409.26 697.251L1412.26 696.59L1416.09 704.442L1412.74 704.446Z" fill="white"/>
<path d="M1419.35 704.446V686.778H1430.76V689.552H1422.3V693.905H1429.28V696.68H1422.3V701.672H1430.76V704.446H1419.35Z" fill="white"/>
<path d="M1433.04 704.446L1438.6 686.778H1442.93L1448.5 704.446H1445.46L1440.41 688.595H1441.07L1436.08 704.446H1433.04ZM1436.14 700.615V697.858H1445.41V700.615H1436.14Z" fill="white"/>
<path d="M1454.05 704.446V689.552H1448.33V686.778H1462.72V689.552H1457V704.446H1454.05Z" fill="white"/>
<path d="M1465.49 704.446V686.778H1468.45V704.446H1465.49Z" fill="white"/>
<path d="M1476.69 704.446L1471.1 686.778H1474.14L1478.8 701.573L1483.53 686.778H1486.58L1481 704.446H1476.69Z" fill="white"/>
<path d="M1488.97 704.446V686.778H1500.38V689.552H1491.93V693.905H1498.91V696.68H1491.93V701.672H1500.38V704.446H1488.97Z" fill="white"/>
<path d="M1504.12 704.446V686.778H1507.08V704.446H1504.12Z" fill="white"/>
<path d="M1515.58 704.446V689.552H1509.87V686.778H1524.26V689.552H1518.54V704.446H1515.58Z" fill="white"/>
<path d="M1526.78 704.446V686.778H1538.19V689.552H1529.76V693.905H1536.73V696.68H1529.76V701.672H1538.21V704.446H1526.78Z" fill="white"/>
<path d="M1541.7 704.446V686.778H1544.36L1550.47 699.293L1556.58 686.778H1559.24V704.446H1556.48V693.123L1551.06 704.446H1549.88L1544.48 693.123V704.446H1541.7Z" fill="white"/>
<path d="M1341.68 710.319L1328.91 702.949V717.685L1341.68 710.319Z" fill="white" fill-opacity="0.48"/>
<path d="M1367.2 695.583L1354.43 688.217V702.949L1367.2 695.583Z" fill="white" fill-opacity="0.47"/>
<path d="M1341.68 680.846L1328.91 673.48V688.217L1341.68 680.846Z" fill="white" fill-opacity="0.48"/>
<path d="M1328.91 673.48L1318.7 679.376C1317.93 679.822 1317.28 680.466 1316.83 681.243C1316.38 682.019 1316.15 682.9 1316.15 683.796V707.369C1316.15 708.266 1316.39 709.148 1316.83 709.924C1317.28 710.701 1317.93 711.346 1318.7 711.794L1328.91 717.685V673.48Z" fill="url(#paint1_linear_69_2)"/>
<path d="M1367.2 707.369V695.583L1328.91 717.685L1339.12 723.581C1339.9 724.029 1340.78 724.265 1341.67 724.265C1342.57 724.265 1343.45 724.029 1344.22 723.581L1364.65 711.794C1365.42 711.345 1366.07 710.7 1366.51 709.923C1366.96 709.146 1367.2 708.266 1367.2 707.369Z" fill="url(#paint2_linear_69_2)"/>
<path d="M1344.32 667.634C1343.55 667.19 1342.68 666.956 1341.79 666.956C1340.9 666.956 1340.03 667.19 1339.26 667.634L1329.13 673.48L1367.1 695.407V683.715C1367.1 682.826 1366.87 681.952 1366.42 681.182C1365.98 680.411 1365.34 679.771 1364.57 679.326L1344.32 667.634Z" fill="url(#paint3_linear_69_2)"/>
</g>
<path opacity="0.16" d="M385.386 464.149C380.88 449.423 378.042 432.766 385.272 419.167C394.755 401.366 417.066 395.925 436.416 390.238C470.472 380.238 505.164 361.362 518.612 328.547C531.43 297.287 521.982 260.698 532.758 228.678C548.004 183.416 607.854 159.885 649.838 182.656C662.334 189.434 673.537 199.618 687.569 201.872C711.242 205.671 731.379 186.088 749.009 169.825C771.022 149.509 796.267 131.769 825.057 123.532C853.846 115.296 886.653 117.523 911.339 134.494C931.423 148.268 945.272 170.803 967.626 180.402C997.01 193.024 1031.37 179.476 1062.64 186.281C1102.92 195.015 1130.03 242.338 1117.24 281.547C1108.07 309.672 1081.94 334.495 1087.83 363.485C1091.24 380.238 1104.7 392.737 1116.65 404.991C1150.99 440.331 1178.85 490.064 1165 537.361C1155.1 571.129 1125.33 596.223 1092.52 609.062C1059.71 621.902 1023.97 624.278 988.827 625.885C860.177 631.807 726.096 637.24 597.541 628.392C502.737 621.885 413.46 555.948 385.386 464.149Z" fill="#FAFAFA"/>
<path d="M1112.02 442.272C1124.16 420.431 1137.54 401.491 1143.55 376.653C1145.91 366.648 1147.27 356.349 1150.91 346.755C1154.56 337.161 1160.98 328.02 1170.44 323.977C1181.05 319.409 1193.75 321.916 1204.22 317.022C1211 313.865 1216.03 307.988 1221.68 303.102C1234.1 292.381 1249.76 286.305 1265.09 280.425C1288.83 271.328 1314.16 262.067 1339.13 267.258C1353.33 270.223 1366.17 277.784 1378.19 285.887C1385.79 291.072 1393.39 296.793 1397.51 305.144C1399.98 309.867 1400.73 315.304 1399.62 320.518C1396.63 333.305 1382.5 336.874 1371.04 334.482C1361.4 332.438 1352.79 327.078 1343.73 323.385C1334.67 319.692 1323.91 317.599 1315.09 322.098C1302.53 328.551 1298.06 346.274 1284.65 350.722C1277.19 353.199 1268.38 350.875 1261.63 354.899C1251.23 361.111 1253.37 376.756 1257.98 387.894C1262.58 399.031 1268.19 412.535 1261.16 422.385C1248.94 439.539 1216.59 422.507 1202.42 438.164C1194.22 447.253 1196.87 463.254 1187.5 471.164C1174.53 482.103 1153.59 466.835 1138.12 473.806C1131.77 476.667 1127.64 482.761 1123.29 488.187C1118.93 493.614 1113.32 498.985 1106.36 499.294C1105.8 499.322 1105.28 499.349 1104.76 499.268C1104.45 499.25 1104.14 499.162 1103.87 499.011C1103.6 498.861 1103.36 498.65 1103.18 498.396C1102.99 498.142 1102.87 497.85 1102.81 497.542C1102.76 497.234 1102.77 496.917 1102.85 496.615C1103.23 495.286 1103.65 493.99 1104.12 492.704C1106.88 485.506 1110.82 478.82 1115.79 472.922C1120.74 467.062 1126.27 461.706 1132.28 456.932C1138.22 452.068 1144.47 447.568 1150.62 442.967C1153.7 440.654 1156.8 438.34 1159.78 435.902C1162.89 433.466 1165.63 430.598 1167.93 427.387C1170.22 424.065 1171.58 420.193 1171.87 416.17C1172 412.275 1171.88 408.375 1171.49 404.496C1171.39 402.595 1171.3 400.695 1171.39 398.809C1171.46 396.927 1171.65 395.052 1171.96 393.194C1172.63 389.481 1173.76 385.866 1175.33 382.436C1178.44 375.503 1182.75 369.172 1188.06 363.732C1190.75 361.092 1193.78 358.812 1197.06 356.948C1200.38 355.103 1203.85 353.513 1207.41 352.192C1210.99 350.818 1214.62 349.442 1218.2 347.961C1221.8 346.466 1225.29 344.724 1228.65 342.747C1235.33 338.697 1241.39 333.702 1246.64 327.918C1251.86 322.156 1256.55 315.939 1260.66 309.339C1261.63 307.714 1262.71 306.152 1263.88 304.661C1265.08 303.215 1266.41 301.894 1267.87 300.718C1270.84 298.372 1274.19 296.568 1277.78 295.388C1285 292.972 1292.77 292.527 1300.41 292.815C1315.78 293.411 1330.89 296.914 1346.02 299.928C1338.52 298.18 1331.02 296.384 1323.44 294.901C1315.87 293.339 1308.21 292.29 1300.5 291.763C1292.79 291.383 1284.88 291.715 1277.4 294.134C1273.62 295.309 1270.08 297.152 1266.96 299.574C1265.4 300.795 1263.97 302.173 1262.69 303.686C1261.45 305.203 1260.31 306.805 1259.29 308.48C1255.14 314.915 1250.47 320.997 1245.32 326.664C1240.18 332.3 1234.24 337.161 1227.7 341.092C1224.4 343.013 1220.98 344.704 1217.45 346.153C1213.96 347.63 1210.32 348.9 1206.7 350.275C1203.03 351.629 1199.47 353.252 1196.05 355.13C1192.61 357.074 1189.44 359.449 1186.61 362.198C1183.82 364.963 1181.33 368.021 1179.19 371.318C1177.05 374.59 1175.15 378.014 1173.51 381.564C1171.01 386.94 1169.64 392.768 1169.47 398.693C1169.4 400.661 1169.48 402.622 1169.59 404.569C1169.98 408.359 1170.12 412.171 1170.02 415.979C1169.77 419.688 1168.53 423.261 1166.42 426.321C1164.24 429.395 1161.63 432.142 1158.67 434.482C1155.7 436.908 1152.66 439.266 1149.6 441.602C1143.5 446.284 1137.29 450.877 1131.36 455.848C1125.35 460.723 1119.84 466.191 1114.92 472.169C1110.07 478.263 1106.27 485.127 1103.69 492.475C1103.31 493.602 1102.95 494.752 1102.67 495.897C1102.59 496.262 1102.41 496.597 1102.15 496.867C1101.89 497.137 1101.56 497.333 1101.2 497.433C1100.84 497.533 1100.46 497.534 1100.1 497.436C1099.74 497.338 1099.41 497.144 1099.15 496.875C1089.64 487.168 1107.29 450.778 1112.02 442.272Z" fill="white" fill-opacity="0.36"/>
<path d="M1096.23 451.58C1096.23 451.58 1218.8 262.847 1292.21 280.346C1365.63 297.844 1096.23 451.58 1096.23 451.58Z" fill="url(#paint4_linear_69_2)"/>
<path d="M1301.1 284.264C1241.14 308.358 1096.23 451.58 1096.23 451.58C1096.23 451.58 1337.68 313.783 1301.1 284.264Z" fill="url(#paint5_linear_69_2)"/>
<path d="M1096.23 451.58C1111.47 435.543 1127.15 419.904 1143.28 404.663C1159.41 389.423 1175.82 374.532 1192.5 359.991C1200.91 352.759 1209.41 345.632 1218.01 338.611C1226.66 331.662 1235.38 324.792 1244.33 318.219C1253.27 311.646 1262.3 305.274 1271.8 299.353C1274.16 297.858 1276.54 296.464 1278.95 295.069C1281.36 293.674 1283.79 292.319 1286.26 291.023C1291.11 288.387 1296.15 286.085 1301.32 284.135C1291.34 288.936 1281.8 294.587 1272.81 301.025C1263.71 307.299 1254.83 313.93 1246.14 320.718C1228.76 334.375 1211.81 348.566 1195.09 363.034C1178.37 377.502 1161.82 392.207 1145.42 406.99L1096.23 451.58Z" fill="url(#paint6_linear_69_2)"/>
<path d="M1096.23 451.58C1096.23 451.58 1275.23 314.36 1338.54 355.227C1401.85 396.094 1096.23 451.58 1096.23 451.58Z" fill="url(#paint7_linear_69_2)"/>
<path d="M1345.59 361.861C1280.97 364.718 1096.23 451.58 1096.23 451.58C1096.23 451.58 1370.12 401.846 1345.59 361.861Z" fill="url(#paint8_linear_69_2)"/>
<path d="M1096.23 451.58C1116.01 441.485 1136.05 431.951 1156.36 422.976C1176.67 414.001 1197.14 405.407 1217.78 397.192C1228.13 393.193 1238.55 389.272 1249.01 385.532C1259.47 381.792 1270.02 378.253 1280.67 375.035C1291.31 371.817 1302.04 368.819 1312.91 366.386C1315.61 365.752 1318.35 365.219 1321.03 364.729C1323.71 364.238 1326.51 363.723 1329.26 363.332C1334.76 362.456 1340.31 361.961 1345.88 361.852C1334.89 363.08 1324.02 365.243 1313.4 368.318C1302.73 371.192 1292.15 374.509 1281.66 378.047C1260.68 385.122 1239.93 392.88 1219.29 400.979C1198.65 409.079 1178.12 417.418 1157.64 425.878L1096.23 451.58Z" fill="url(#paint9_linear_69_2)"/>
<g clip-path="url(#clip2_69_2)">
<path d="M1117.27 438.924L1040.7 419.145L1046.64 396.175C1048.82 387.73 1057.46 382.636 1065.91 384.818L1111.84 396.685C1120.29 398.867 1125.38 407.509 1123.2 415.954L1117.27 438.924ZM1059.97 407.787L1105.91 419.655L1107.89 411.998L1061.95 400.131L1059.97 407.787Z" fill="#303C42"/>
<path d="M1125.88 563.662L972.75 524.103C968.689 523.054 965.211 520.434 963.081 516.821C960.951 513.207 960.344 508.895 961.393 504.834L987.106 405.299C988.156 401.238 990.775 397.76 994.389 395.63C998.002 393.5 1002.31 392.893 1006.38 393.942L1159.51 433.501C1163.57 434.55 1167.05 437.169 1169.18 440.783C1171.31 444.397 1171.91 448.708 1170.86 452.77L1145.15 552.305C1144.1 556.366 1141.48 559.844 1137.87 561.974C1134.25 564.104 1129.94 564.711 1125.88 563.662Z" fill="url(#paint10_linear_69_2)"/>
<path opacity="0.1" d="M1126.38 561.748L973.245 522.189C969.184 521.14 965.706 518.52 963.576 514.906C961.446 511.293 960.839 506.981 961.888 502.92L961.393 504.834C960.344 508.895 960.951 513.207 963.081 516.82C965.211 520.434 968.689 523.054 972.751 524.103L1125.88 563.662C1129.94 564.711 1134.25 564.104 1137.87 561.974C1141.48 559.844 1144.1 556.366 1145.15 552.305L1145.64 550.39C1144.6 554.452 1141.98 557.93 1138.36 560.06C1134.75 562.19 1130.44 562.797 1126.38 561.748Z" fill="black"/>
<path d="M1159.51 433.501L1006.38 393.942C1002.31 392.893 998.002 393.5 994.389 395.63C990.775 397.76 988.156 401.238 987.106 405.299L985.129 412.956L1061.18 497.943L1167.9 464.254L1170.86 452.77C1171.91 448.708 1171.31 444.397 1169.18 440.783C1167.05 437.169 1163.57 434.55 1159.51 433.501Z" fill="url(#paint11_linear_69_2)"/>
<path opacity="0.1" d="M985.623 411.041L985.129 412.955L1061.18 497.943L1167.9 464.254L1168.39 462.34L1061.68 496.029L985.623 411.041Z" fill="black"/>
<path opacity="0.2" d="M1159.51 433.501L1006.38 393.942C1002.31 392.893 998.002 393.5 994.389 395.63C990.775 397.76 988.156 401.238 987.106 405.299L986.612 407.213C987.661 403.152 990.281 399.674 993.894 397.544C997.508 395.414 1001.82 394.807 1005.88 395.856L1159.01 435.415C1163.07 436.464 1166.55 439.083 1168.68 442.697C1170.81 446.311 1171.42 450.622 1170.37 454.684L1170.86 452.77C1171.91 448.708 1171.31 444.397 1169.18 440.783C1167.05 437.169 1163.57 434.55 1159.51 433.501Z" fill="white"/>
<path d="M1064.15 486.458C1059.93 485.368 1057.38 481.043 1058.47 476.824C1059.56 472.605 1063.89 470.055 1068.11 471.145C1072.32 472.235 1074.87 476.561 1073.78 480.78C1072.69 484.998 1068.37 487.548 1064.15 486.458Z" fill="#F2F2F2"/>
<path d="M1065.14 482.63C1067.25 483.176 1069.41 481.905 1069.96 479.791C1070.5 477.676 1069.23 475.52 1067.12 474.973C1065 474.427 1062.85 475.698 1062.3 477.813C1061.75 479.927 1063.03 482.084 1065.14 482.63Z" fill="url(#paint12_linear_69_2)"/>
<path d="M985.129 412.955L1064.63 547.838L1125.88 563.662C1129.94 564.711 1134.25 564.104 1137.87 561.974C1141.48 559.844 1144.1 556.366 1145.15 552.305L1167.9 464.254L1061.18 497.943L985.129 412.955Z" fill="url(#paint13_linear_69_2)"/>
<path d="M1159.51 433.501L1121.22 423.611L1123.2 415.954C1125.38 407.509 1120.29 398.867 1111.84 396.685L1065.91 384.818C1057.46 382.636 1048.82 387.73 1046.64 396.175L1044.66 403.831L1006.38 393.942C1002.31 392.893 998.002 393.5 994.389 395.63C990.775 397.76 988.156 401.238 987.107 405.299L961.393 504.834C960.344 508.895 960.951 513.207 963.081 516.821C965.211 520.434 968.689 523.054 972.75 524.103L1125.88 563.662C1129.94 564.711 1134.25 564.104 1137.87 561.974C1141.48 559.844 1144.1 556.366 1145.15 552.305L1170.86 452.77C1171.91 448.708 1171.31 444.397 1169.18 440.783C1167.05 437.169 1163.57 434.55 1159.51 433.501ZM1061.95 400.131L1107.89 411.999L1105.91 419.655L1059.97 407.787L1061.95 400.131Z" fill="url(#paint14_linear_69_2)"/>
</g>
<path d="M884.463 171.202L892.118 259.597C892.745 266.839 887.299 273.31 880.03 273.94L731.146 286.833C730.662 286.88 730.175 286.895 729.689 286.878C727.871 286.828 726.083 286.408 724.433 285.645C722.783 284.882 721.306 283.791 720.092 282.44C719.673 281.964 719.284 281.463 718.928 280.939C717.713 279.095 716.971 276.981 716.77 274.782L707.073 162.809C706.793 159.382 707.878 155.982 710.093 153.35C712.309 150.717 715.475 149.065 718.903 148.752L756.583 145.489C759.478 145.241 762.372 145.967 764.805 147.553C767.238 149.139 769.069 151.493 770.007 154.24L772.016 160.105C772.724 162.195 774.113 163.987 775.962 165.194C777.81 166.401 780.011 166.954 782.211 166.763L870.116 159.15C877.36 158.522 883.834 163.94 884.463 171.202Z" fill="url(#paint15_linear_69_2)"/>
<path d="M916.65 189.367L914.19 196.622L895.694 251.384L889.934 268.462C889.455 269.876 888.578 271.12 887.41 272.041C886.242 272.963 884.833 273.522 883.354 273.652L730.327 286.905L730.357 286.829L737.042 265.122L753.886 210.505L758.033 197.063C758.366 195.984 758.933 194.993 759.691 194.161C760.45 193.329 761.383 192.676 762.422 192.249C763.137 191.947 763.895 191.758 764.669 191.691L908.74 179.214C914.23 178.738 918.418 184.106 916.65 189.367Z" fill="#EFEFEF"/>
<path opacity="0.39" d="M916.611 188.955L914.128 195.945L753.36 209.867L757.566 196.925C758.025 195.519 758.906 194.275 760.096 193.349C761.285 192.424 762.731 191.859 764.249 191.727L908.725 179.215C914.232 178.737 918.405 183.888 916.611 188.955Z" fill="url(#paint16_linear_69_2)"/>
<path opacity="0.48" d="M884.66 173.482L885.271 180.532L764.259 191.012C762.732 191.144 761.28 191.723 760.085 192.675C758.89 193.626 758.007 194.907 757.548 196.355L736.276 263.888L729.499 285.413C727.359 285.358 725.266 284.795 723.394 283.771C721.522 282.746 719.928 281.291 718.745 279.527L725.614 257.709L746.887 190.178C747.345 188.729 748.228 187.448 749.423 186.497C750.618 185.546 752.071 184.967 753.597 184.834L884.66 173.482Z" fill="url(#paint17_linear_69_2)"/>
<path opacity="0.59" d="M782.453 166.7L707.969 173.15L707.071 162.785C706.924 161.089 707.115 159.381 707.632 157.758C708.149 156.135 708.982 154.629 710.084 153.326C711.187 152.022 712.536 150.947 714.056 150.162C715.576 149.377 717.236 148.897 718.941 148.749L756.747 145.475C759.652 145.223 762.556 145.946 764.997 147.528C767.438 149.109 769.275 151.459 770.214 154.202L772.222 160.054C772.932 162.141 774.326 163.93 776.181 165.135C778.036 166.339 780.244 166.891 782.453 166.7Z" fill="#EFEFEF"/>
<path opacity="0.27" d="M896.035 250.668L890.298 268.284C889.823 269.743 888.947 271.025 887.778 271.972C886.609 272.92 885.198 273.493 883.715 273.621L730.327 286.904L737.004 264.439L896.035 250.668Z" fill="url(#paint18_linear_69_2)"/>
<path opacity="0.28" d="M762.744 191.857C762.751 192.776 762.614 193.69 762.341 194.569L759.921 202.398L741.576 261.509L735.855 279.938C734.965 282.728 732.823 284.764 730.193 285.353L736.983 263.896L754.089 209.908L758.301 196.622C758.64 195.555 759.214 194.575 759.982 193.751C760.75 192.927 761.693 192.28 762.744 191.857Z" fill="url(#paint19_linear_69_2)"/>
<path opacity="0.2" d="M705.929 159.256L643.968 164.622C638.368 165.107 634.225 170.09 634.715 175.752L637.508 208.009C637.999 213.67 642.937 217.867 648.537 217.382L710.498 212.016C716.099 211.531 720.241 206.548 719.751 200.886L716.958 168.629C716.467 162.968 711.53 158.771 705.929 159.256Z" fill="white"/>
<path d="M722.656 171.878L660.695 177.244C655.094 177.729 650.94 182.577 651.416 188.072L654.127 219.38C654.603 224.875 659.529 228.937 665.13 228.452L727.09 223.086C732.691 222.601 736.846 217.753 736.37 212.258L733.659 180.95C733.183 175.455 728.256 171.393 722.656 171.878Z" fill="url(#paint20_linear_69_2)"/>
<path d="M706.341 200.085C706.603 200.197 706.829 200.376 706.996 200.603C707.162 200.83 707.263 201.097 707.287 201.376C707.311 201.655 707.258 201.936 707.133 202.188C707.008 202.44 706.816 202.655 706.577 202.81L697.078 209.044L687.423 215.379C687.193 215.532 686.925 215.624 686.648 215.645C686.37 215.665 686.092 215.614 685.842 215.497C685.591 215.379 685.377 215.199 685.22 214.975C685.063 214.75 684.969 214.489 684.948 214.217L684.024 203.363L683.1 192.508C683.075 192.237 683.123 191.964 683.24 191.716C683.356 191.468 683.537 191.254 683.764 191.096C683.992 190.938 684.257 190.84 684.534 190.814C684.811 190.787 685.09 190.832 685.343 190.945L695.928 195.555L706.341 200.085Z" fill="white"/>
<path opacity="0.1" d="M812.774 75.276L757.974 79.7714C752.677 80.2059 748.736 84.8488 749.17 90.1415L751.85 122.822C752.285 128.115 756.93 132.053 762.227 131.618L817.027 127.123C822.323 126.688 826.265 122.046 825.831 116.753L823.15 84.0725C822.716 78.7798 818.07 74.8415 812.774 75.276Z" fill="url(#paint21_linear_69_2)"/>
<path d="M801.613 88.5402L746.814 93.0357C741.517 93.4702 737.575 98.1131 738.009 103.406L740.69 136.086C741.124 141.379 745.77 145.317 751.067 144.883L805.866 140.387C811.163 139.953 815.105 135.31 814.67 130.017L811.99 97.3368C811.556 92.0441 806.91 88.1057 801.613 88.5402Z" fill="url(#paint22_linear_69_2)"/>
<path d="M782.843 104.116L782.994 112.721C782.999 112.952 783.056 113.179 783.161 113.383C783.265 113.586 783.414 113.76 783.594 113.89L790.303 118.717C790.511 118.867 790.677 119.076 790.781 119.32C790.885 119.564 790.924 119.833 790.892 120.098C790.861 120.362 790.761 120.612 790.604 120.817C790.447 121.022 790.239 121.176 790.003 121.26L782.403 123.977C782.198 124.05 782.013 124.176 781.865 124.343C781.717 124.51 781.609 124.714 781.551 124.937L779.409 133.204C779.342 133.461 779.21 133.691 779.027 133.87C778.843 134.049 778.616 134.168 778.371 134.215C778.126 134.262 777.873 134.235 777.64 134.136C777.407 134.037 777.204 133.871 777.053 133.656L772.204 126.73C772.073 126.543 771.903 126.393 771.706 126.292C771.51 126.191 771.295 126.142 771.078 126.149L763.045 126.43C762.795 126.439 762.548 126.372 762.331 126.239C762.113 126.105 761.934 125.91 761.814 125.674C761.694 125.439 761.637 125.173 761.65 124.906C761.664 124.64 761.746 124.384 761.889 124.167L766.492 117.17C766.616 116.981 766.695 116.763 766.722 116.533C766.749 116.303 766.723 116.069 766.647 115.851L763.825 107.757C763.737 107.506 763.717 107.235 763.766 106.974C763.815 106.713 763.931 106.472 764.102 106.28C764.273 106.087 764.491 105.95 764.732 105.884C764.973 105.818 765.227 105.826 765.466 105.907L773.159 108.508C773.366 108.578 773.586 108.594 773.799 108.553C774.012 108.512 774.212 108.416 774.382 108.274L780.671 102.991C780.866 102.827 781.101 102.725 781.35 102.697C781.598 102.669 781.85 102.716 782.076 102.833C782.302 102.95 782.494 103.133 782.63 103.359C782.765 103.586 782.839 103.848 782.843 104.116Z" fill="white"/>
<g opacity="0.31">
<path d="M945.705 306.345L903.694 309.983C896.178 310.634 889.578 305.308 888.953 298.087L887.666 283.229L903.741 281.837C907.616 281.502 909.557 277.14 907.124 274.237L882.108 246.998C879.949 244.43 875.75 244.793 874.066 247.695L854.106 278.829C852.197 282.107 854.863 286.07 858.744 285.734L874.818 284.342L876.105 299.199C876.731 306.427 871.144 312.802 863.629 313.453L829.942 316.37C812.053 315.96 797.046 302.704 795.527 285.166C794.042 268.014 805.961 252.677 822.894 248.748C823.354 248.662 823.813 248.568 824.269 248.456C825.526 248.217 826.816 248.032 828.127 247.919C831.714 247.609 835.327 247.821 838.852 248.55C841.404 249.081 843.868 247.273 843.956 244.757C844.29 234.845 848.349 213.365 876.561 210.922C891.286 209.647 904.763 218.145 911.217 229.939L911.217 229.949C911.438 230.388 911.656 230.822 911.892 231.246L911.893 231.255C913.704 234.931 914.813 238.913 915.161 242.997C915.328 244.9 915.331 246.814 915.171 248.717C914.89 251.962 918.382 254.236 921.37 252.673C925.28 250.631 929.576 249.43 933.979 249.147C950.023 248.079 964.231 259.271 966.254 274.585C968.134 288.854 959.132 301.895 945.705 306.345Z" fill="white"/>
</g>
<path d="M944.433 312.138L906.555 315.418C903.301 315.7 900.068 314.675 897.567 312.568C895.066 310.462 893.503 307.447 893.22 304.186L892.01 290.214L906.504 288.959C910 288.656 911.735 284.562 909.529 281.826L886.876 256.137C886.424 255.578 885.841 255.139 885.18 254.858C884.519 254.577 883.8 254.462 883.084 254.524C882.369 254.586 881.68 254.823 881.077 255.213C880.474 255.604 879.976 256.136 879.626 256.765L861.727 285.966C860.017 289.041 862.436 292.775 865.933 292.472L880.425 291.217L881.635 305.188C881.775 306.802 881.596 308.429 881.109 309.974C880.622 311.519 879.835 312.952 878.795 314.193C877.755 315.433 876.48 316.456 875.045 317.202C873.61 317.949 872.042 318.405 870.431 318.545L840.058 321.175C823.927 320.728 810.342 308.214 808.914 291.726C807.517 275.594 818.212 261.221 833.47 257.583C833.883 257.504 834.297 257.416 834.709 257.313C835.857 257.089 837.017 256.925 838.182 256.822C841.422 256.541 844.686 256.752 847.863 257.448C848.403 257.569 848.964 257.57 849.504 257.45C850.045 257.33 850.552 257.092 850.99 256.754C851.429 256.415 851.787 255.983 852.04 255.49C852.293 254.996 852.434 254.453 852.453 253.898C852.721 244.583 856.311 224.402 881.748 222.199C895.03 221.049 907.208 229.084 913.067 240.192L913.068 240.202C913.269 240.615 913.466 241.019 913.68 241.424L913.681 241.433C915.331 244.908 916.343 248.652 916.668 252.487C916.825 254.276 916.834 256.075 916.695 257.866C916.453 260.915 919.611 263.064 922.297 261.606C925.802 259.703 929.678 258.587 933.657 258.333C948.125 257.382 960.976 267.955 962.851 282.353C964.604 295.769 956.525 307.998 944.433 312.138Z" fill="url(#paint23_linear_69_2)"/>
<path d="M905.882 289.177L891.286 290.441L892.488 304.326C892.769 307.567 894.34 310.562 896.855 312.652C899.371 314.743 902.625 315.758 905.902 315.474L869.528 318.624C871.15 318.484 872.729 318.029 874.175 317.285C875.621 316.541 876.905 315.523 877.954 314.289C879.003 313.055 879.796 311.629 880.289 310.093C880.781 308.557 880.963 306.941 880.824 305.336L879.622 291.452L865.028 292.715C861.507 293.02 859.074 289.312 860.801 286.253L878.855 257.21C879.208 256.585 879.711 256.055 880.318 255.667C880.926 255.278 881.62 255.042 882.34 254.979C883.06 254.917 883.785 255.03 884.45 255.309C885.115 255.587 885.701 256.023 886.156 256.578L908.935 282.085C911.153 284.802 909.402 288.873 905.882 289.177Z" fill="white"/>
<path opacity="0.2" d="M935.701 112.962L938.758 149.195C938.906 150.905 938.364 152.493 937.412 153.584C937.055 154.01 936.616 154.362 936.12 154.622C935.625 154.881 935.083 155.041 934.525 155.094L877.262 159.924C876.705 159.967 876.144 159.9 875.614 159.727C875.083 159.555 874.593 159.28 874.171 158.92C873.041 158.005 872.245 156.53 872.101 154.82L869.044 118.587C868.679 114.274 871.37 110.527 875.052 110.216L928.375 105.713C932.058 105.404 935.338 108.649 935.701 112.962Z" fill="white"/>
<path d="M922.966 128.385L926.122 165.75C926.274 167.513 925.736 169.15 924.787 170.272C924.431 170.71 923.992 171.072 923.498 171.338C923.003 171.604 922.461 171.768 921.903 171.82L864.64 176.647C864.082 176.689 863.522 176.619 862.991 176.439C862.46 176.26 861.968 175.976 861.546 175.603C860.412 174.657 859.612 173.134 859.463 171.371L856.308 134.006C855.932 129.558 858.614 125.702 862.296 125.391L915.619 120.892C919.301 120.585 922.592 123.938 922.966 128.385Z" fill="url(#paint24_linear_69_2)"/>
<path d="M866.579 159.888L874.893 145.783C875.013 145.58 875.176 145.405 875.371 145.268C875.567 145.131 875.79 145.036 876.027 144.989C876.263 144.942 876.507 144.945 876.741 144.997C876.976 145.049 877.196 145.149 877.386 145.291L885.064 151.061C885.247 151.197 885.458 151.295 885.683 151.349C885.908 151.403 886.142 151.411 886.37 151.373C886.599 151.335 886.818 151.252 887.012 151.129C887.207 151.006 887.373 150.846 887.501 150.658L898.78 135.361C898.924 135.15 899.116 134.974 899.341 134.846C899.567 134.719 899.819 134.643 900.079 134.626C900.339 134.609 900.6 134.65 900.84 134.746C901.08 134.842 901.293 134.991 901.463 135.181L917.185 155.571C917.386 155.797 917.519 156.073 917.568 156.369C917.617 156.665 917.581 156.968 917.463 157.246C917.345 157.524 917.15 157.765 916.9 157.943C916.65 158.122 916.354 158.231 916.045 158.257L868.177 162.301C867.872 162.326 867.567 162.27 867.294 162.14C867.02 162.01 866.789 161.81 866.625 161.562C866.461 161.314 866.37 161.028 866.362 160.733C866.353 160.438 866.428 160.146 866.579 159.888Z" fill="white"/>
<path d="M887.809 137.755C887.614 135.447 885.583 133.734 883.274 133.929C880.964 134.124 879.25 136.153 879.445 138.461C879.64 140.769 881.67 142.482 883.98 142.287C886.289 142.091 888.004 140.062 887.809 137.755Z" fill="white"/>
<path d="M422.92 459.941C420.548 456.714 417.471 454.071 413.922 452.214C410.319 450.347 406.411 449.141 402.383 448.653C398.335 448.149 394.233 448.284 390.226 449.052C386.222 449.841 382.334 451.137 378.657 452.91C371.258 456.345 364.805 461.31 358.836 466.62C352.867 471.931 347.466 477.693 341.785 483.015C338.971 485.694 336.114 488.304 333.118 490.694C331.616 491.895 330.094 493.063 328.504 494.109L326.137 495.723L323.687 497.201C320.407 499.18 316.993 500.927 313.471 502.432C309.91 503.877 306.267 505.11 302.56 506.124L299.746 506.864L296.884 507.446C294.992 507.886 293.086 508.088 291.175 508.402C289.264 508.717 287.329 508.795 285.405 509.002C283.471 509.05 281.538 509.199 279.597 509.157C271.767 509.141 263.973 508.103 256.411 506.068C263.776 509.08 271.565 510.924 279.499 511.533C287.507 512.144 295.562 511.564 303.4 509.81C305.385 509.441 307.308 508.839 309.256 508.32C310.201 508.095 311.179 507.718 312.14 507.416L314.992 506.411C318.762 504.951 322.423 503.224 325.948 501.243C326.809 500.75 327.669 500.257 328.579 499.728L331.094 498.037C332.781 496.94 334.429 495.724 336.005 494.469C339.187 491.99 342.164 489.311 345.057 486.558C350.797 481.035 356.191 475.315 361.853 470.029C367.374 464.656 373.582 460.035 380.314 456.288C387.029 452.713 394.522 450.548 402.178 451.012C406.011 451.165 409.79 451.979 413.346 453.42C414.249 453.776 415.108 454.218 415.968 454.628C416.827 455.039 417.66 455.56 418.468 456.129C420.087 457.232 421.58 458.511 422.92 459.941Z" fill="#10AA95"/>
<path d="M447.416 435.937C435.12 419.723 422.155 405.991 414.457 386.655C411.406 378.86 409.12 370.713 405.081 363.397C401.042 356.081 394.809 349.45 386.724 347.276C377.641 344.813 367.687 348.294 358.685 345.552C352.855 343.786 348.13 339.624 343.008 336.335C331.762 329.119 318.439 326.02 305.408 323.04C285.219 318.435 263.73 313.879 244.2 320.933C233.089 324.957 223.604 332.528 214.85 340.442C209.318 345.496 203.844 350.982 201.484 358.188C200.035 362.28 200.058 366.749 201.551 370.825C205.432 380.792 217.236 382.044 226.2 378.799C233.73 376.044 240.056 370.734 246.936 366.715C253.817 362.696 262.255 359.771 269.884 362.385C280.748 366.145 286.394 379.919 297.716 381.965C304.014 383.104 310.852 380.218 316.755 382.687C325.854 386.5 325.923 399.36 323.489 408.869C321.056 418.378 318.086 429.909 324.89 437.043C336.715 449.468 360.836 432.019 374.059 443.015C381.718 449.399 381.419 462.604 389.885 467.905C401.598 475.234 416.727 460.518 430.001 464.36C435.445 465.937 439.475 470.376 443.61 474.25C447.745 478.125 452.884 481.811 458.533 481.26C458.986 481.219 459.411 481.18 459.818 481.055C460.068 481.005 460.303 480.899 460.507 480.746C460.711 480.593 460.879 480.396 460.997 480.17C461.115 479.944 461.182 479.695 461.191 479.44C461.201 479.185 461.154 478.931 461.053 478.697C460.6 477.668 460.11 476.672 459.584 475.689C456.53 470.203 452.581 465.266 447.9 461.082C443.232 456.926 438.164 453.243 432.771 450.085C427.419 446.846 421.865 443.936 416.379 440.933C413.626 439.423 410.863 437.913 408.177 436.29C405.392 434.683 402.849 432.687 400.627 430.362C398.402 427.946 396.861 424.981 396.162 421.771C395.607 418.646 395.261 415.487 395.128 412.315C394.988 410.772 394.848 409.228 394.555 407.718C394.283 406.209 393.914 404.719 393.45 403.257C392.486 400.34 391.158 397.555 389.498 394.97C386.192 389.739 381.991 385.129 377.087 381.353C374.611 379.534 371.91 378.043 369.05 376.918C366.156 375.813 363.183 374.929 360.155 374.274C357.116 373.577 354.028 372.885 350.971 372.102C347.897 371.31 344.882 370.307 341.946 369.099C336.096 366.602 330.637 363.271 325.741 359.211C320.871 355.165 316.373 350.691 312.302 345.843C311.328 344.645 310.279 343.509 309.163 342.442C308.035 341.414 306.805 340.502 305.493 339.721C302.834 338.171 299.922 337.102 296.891 336.564C290.799 335.444 284.477 335.979 278.354 337.089C266.031 339.336 254.25 343.897 242.394 348.066C248.246 345.794 254.086 343.484 260.025 341.418C265.947 339.288 272.006 337.562 278.161 336.251C284.335 335.058 290.744 334.418 297.058 335.508C300.238 336.021 303.3 337.1 306.1 338.694C307.497 339.499 308.809 340.446 310.013 341.519C311.189 342.599 312.289 343.76 313.305 344.993C317.388 349.705 321.854 354.072 326.656 358.049C331.453 362.002 336.798 365.238 342.525 367.656C345.402 368.826 348.356 369.796 351.366 370.559C354.355 371.347 357.435 371.953 360.513 372.646C363.623 373.316 366.678 374.216 369.656 375.337C372.649 376.509 375.479 378.059 378.079 379.95C380.648 381.859 383.004 384.038 385.107 386.451C387.21 388.842 389.134 391.385 390.864 394.058C393.495 398.106 395.273 402.646 396.092 407.404C396.372 408.983 396.536 410.573 396.67 412.155C396.788 415.256 397.111 418.346 397.636 421.404C398.257 424.366 399.669 427.104 401.72 429.329C403.835 431.556 406.255 433.471 408.908 435.017C411.583 436.632 414.301 438.185 417.037 439.716C422.5 442.789 428.032 445.779 433.382 449.105C438.792 452.344 443.862 456.12 448.516 460.374C453.128 464.73 456.977 469.827 459.903 475.456C460.341 476.32 460.762 477.206 461.115 478.098C461.225 478.382 461.41 478.631 461.649 478.819C461.889 479.008 462.175 479.128 462.477 479.167C462.78 479.206 463.087 479.163 463.367 479.042C463.646 478.922 463.889 478.728 464.068 478.481C470.62 469.562 452.211 442.251 447.416 435.937Z" fill="white" fill-opacity="0.36"/>
<path d="M438.467 486.95C432.068 478.805 430.158 468.076 428.027 457.904C425.896 447.732 422.983 437.043 415.326 430.033C406.244 421.714 392.253 420.271 383.723 411.414C377.072 404.505 388.074 382.798 384.511 373.887C376.357 353.432 346.483 349.698 331.437 333.615C320.005 321.393 308.784 307.573 303.887 291.295C301.344 282.855 301.206 278.138 295.956 271.196C289.71 262.922 283.487 255.696 280.274 245.568C276.544 233.826 277.514 220.044 285.176 210.417C297.297 195.099 322.106 195.467 338.3 206.369C354.494 217.271 363.97 235.657 371.462 253.61C378.954 271.562 385.682 290.576 398.638 305.202C408.646 316.51 421.781 324.483 433.685 333.807C445.588 343.13 456.824 354.631 460.48 369.279C466.214 392.279 451.955 417.005 458.597 439.76C461.343 449.172 467.457 457.284 470.78 466.464C473.904 475.107 473.799 486.142 467.258 492.251C464.837 486.555 462.416 480.858 459.995 475.161L444.478 439.139C439.341 427.118 434.019 415.184 428.793 403.201C423.567 391.217 418.443 379.171 412.516 367.447C406.59 355.723 399.531 344.466 390.883 334.519C386.612 329.503 382.085 324.74 377.442 320.125C372.799 315.511 368.028 311.007 363.275 306.528C353.77 297.569 344.305 288.548 336.086 278.446C331.938 273.425 328.222 268.064 324.975 262.419C321.77 256.728 319.201 250.701 317.315 244.448C318.949 250.8 321.321 256.937 324.384 262.736C327.501 268.518 331.095 274.029 335.129 279.213C343.224 289.567 352.593 298.801 361.939 307.931C371.285 317.061 380.808 326.044 389.128 336.013C397.594 345.865 404.383 357.004 410.259 368.601C416.136 380.198 421.337 392.2 426.69 404.134C432.042 416.067 437.275 428.039 442.696 439.931L458.874 475.665C461.502 481.351 464.114 487.042 466.71 492.738C466.442 492.964 466.172 493.18 465.899 493.388C457.482 499.536 444.865 495.126 438.467 486.95Z" fill="url(#paint25_linear_69_2)"/>
<path d="M331.453 377.792C338.082 369.341 351.454 369.293 360.848 374.429C370.242 379.565 376.952 388.475 384.034 396.599C391.116 404.723 399.513 412.638 410.107 414.444C416.951 415.619 424.205 414.087 430.786 416.238C438.327 418.666 443.663 425.398 447.67 432.192C455.598 445.673 470.741 482.442 455.314 495.242C454.769 492.491 453.991 489.791 452.989 487.171C451.801 484.174 450.359 481.285 448.679 478.534C446.978 475.798 445.079 473.191 442.997 470.733C440.913 468.284 438.685 465.962 436.323 463.78C433.953 461.614 431.476 459.568 428.901 457.651C426.277 455.753 423.678 453.938 421.068 452.086C415.857 448.411 410.565 444.771 405.225 441.237C399.886 437.703 394.477 434.272 388.951 431.019C386.177 429.422 383.441 427.782 380.796 425.982C378.151 424.182 375.57 422.26 373.128 420.265C370.686 418.269 368.256 416.117 366.042 413.847C364.874 412.742 363.787 411.509 362.683 410.414C361.579 409.318 360.511 408.049 359.526 406.815C357.458 404.371 355.537 401.808 353.771 399.138C352.017 396.459 350.461 393.657 349.114 390.752C350.444 393.663 351.979 396.475 353.709 399.168C355.464 401.849 357.373 404.426 359.426 406.887C360.427 408.136 361.515 409.277 362.589 410.504C363.664 411.73 364.78 412.862 365.924 413.955C368.18 416.233 370.587 418.341 373.024 420.419C375.462 422.497 378.046 424.398 380.678 426.222C383.31 428.047 386.071 429.699 388.82 431.314C394.318 434.585 399.72 438.015 405.026 441.604C410.322 445.161 415.548 448.883 420.756 452.55C423.366 454.401 425.971 456.234 428.592 458.123C431.144 460.04 433.595 462.087 435.934 464.257C438.263 466.432 440.461 468.743 442.517 471.177C444.551 473.626 446.41 476.215 448.081 478.924C449.722 481.646 451.129 484.502 452.288 487.462C453.311 490.189 454.093 493 454.626 495.864C452.876 497.146 450.912 498.105 448.825 498.696C426.504 505.202 398.54 491.786 386.021 473.47C379.979 464.615 376.34 454.265 370.044 445.57C358.558 429.742 338.857 420.345 330.586 402.626C326.864 394.698 326.096 384.667 331.453 377.792Z" fill="url(#paint26_linear_69_2)"/>
<path d="M554.902 461.541L467.684 494.412L464.995 495.459L426.925 509.801C426.055 510.082 425.11 510.015 424.288 509.615C423.466 509.215 422.831 508.512 422.515 507.654L394.326 436.766L384.603 412.325C384.476 411.991 384.425 411.634 384.455 411.278C384.485 410.922 384.594 410.578 384.775 410.27C384.956 409.963 385.203 409.7 385.5 409.501C385.796 409.302 386.133 409.172 386.486 409.121L509.417 382.904C510.05 382.845 510.685 382.97 511.248 383.264C511.811 383.558 512.277 384.008 512.59 384.561L517.016 392.17L532.461 418.741L555.449 458.29C556.253 459.657 556.009 461.127 554.902 461.541Z" fill="#FEFCFC"/>
<path d="M501.777 399.803C501.999 399.717 502.108 399.468 502.022 399.247C501.936 399.026 501.687 398.916 501.466 399.002C501.244 399.088 501.135 399.337 501.221 399.559C501.307 399.78 501.556 399.889 501.777 399.803Z" fill="#7D65F9"/>
<path d="M507.933 429.618C508.056 429.571 508.117 429.433 508.069 429.31C508.021 429.188 507.883 429.127 507.761 429.175C507.638 429.223 507.578 429.36 507.625 429.483C507.673 429.605 507.811 429.666 507.933 429.618Z" fill="#7D6DFB"/>
<path d="M491.968 452.194C491.987 452.152 492.013 452.114 492.046 452.083C492.079 452.051 492.118 452.026 492.16 452.01C492.203 451.993 492.248 451.985 492.294 451.986C492.34 451.987 492.385 451.997 492.426 452.016C492.508 452.056 492.572 452.125 492.605 452.21C492.638 452.295 492.638 452.389 492.604 452.474C492.567 452.558 492.498 452.624 492.412 452.658C492.326 452.691 492.231 452.689 492.147 452.652C492.062 452.615 491.996 452.546 491.963 452.46C491.929 452.374 491.931 452.279 491.968 452.194Z" fill="#7C64F9"/>
<path d="M519.328 465.087C519.652 464.961 519.812 464.597 519.686 464.273C519.56 463.949 519.196 463.788 518.872 463.914C518.548 464.04 518.387 464.405 518.513 464.729C518.639 465.053 519.004 465.213 519.328 465.087Z" fill="#7B55F7"/>
<path d="M434.504 411.861C434.546 411.754 434.618 411.662 434.713 411.598C434.807 411.533 434.919 411.499 435.034 411.499C435.148 411.499 435.26 411.533 435.354 411.598C435.449 411.662 435.521 411.754 435.563 411.861C435.604 411.967 435.613 412.084 435.587 412.195C435.561 412.307 435.502 412.408 435.417 412.485C435.333 412.563 435.227 412.613 435.114 412.629C435.001 412.645 434.885 412.627 434.783 412.576C434.655 412.513 434.556 412.405 434.504 412.272C434.453 412.14 434.453 411.993 434.504 411.861Z" fill="#7D66FA"/>
<path d="M489.459 421.273C489.5 421.167 489.573 421.075 489.667 421.01C489.762 420.946 489.874 420.911 489.988 420.911C490.103 420.911 490.214 420.946 490.309 421.01C490.403 421.075 490.476 421.167 490.517 421.273C490.559 421.38 490.567 421.497 490.541 421.608C490.515 421.72 490.456 421.821 490.372 421.898C490.288 421.975 490.182 422.025 490.069 422.042C489.955 422.058 489.84 422.039 489.737 421.989C489.608 421.927 489.508 421.819 489.456 421.686C489.404 421.553 489.405 421.406 489.459 421.273Z" fill="#7D6DFB"/>
<path d="M453.576 392.252C453.638 392.352 453.675 392.465 453.684 392.583C453.693 392.7 453.672 392.818 453.625 392.926C453.577 393.033 453.504 393.128 453.412 393.201C453.32 393.274 453.211 393.323 453.095 393.345C452.822 393.383 452.544 393.336 452.299 393.21C452.054 393.084 451.854 392.886 451.726 392.642C451.663 392.543 451.626 392.429 451.617 392.312C451.609 392.195 451.629 392.077 451.677 391.97C451.725 391.862 451.799 391.768 451.891 391.696C451.984 391.624 452.094 391.576 452.21 391.556C452.481 391.517 452.759 391.562 453.003 391.687C453.248 391.812 453.448 392.009 453.576 392.252Z" fill="#7D6AFA"/>
<path d="M649.725 480.752L534.461 575.744C528.037 580.994 518.965 584.178 508.988 577.839C508.988 577.839 430.851 531.194 426.669 528.406C425.476 527.55 424.619 526.303 424.248 524.881C423.877 523.46 424.015 521.953 424.638 520.623L562.538 470.266C564.613 469.458 568.558 469.142 571.39 469.564L648.877 477.408C650.082 478.134 651.217 479.529 649.725 480.752Z" fill="#091C3F" fill-opacity="0.34"/>
<path d="M649.756 479.562L533.709 574.488C527.288 579.745 518.135 582.129 508.168 575.794C508.168 575.794 430.28 527.504 426.139 524.651C422.393 522.073 424.681 518.786 430.46 516.538L560.788 465.832C562.863 465.025 566.808 464.709 569.641 465.13L644.294 476.169C648.743 476.81 651.237 478.31 649.756 479.562Z" fill="url(#paint27_radial_69_2)"/>
<path d="M423.821 518.1C423.795 518.117 423.766 518.128 423.735 518.133C422.103 517.847 420.574 517.142 419.297 516.086C418.02 515.031 417.04 513.662 416.451 512.113L377.576 412.193C377.239 411.376 377.088 410.495 377.134 409.612C377.18 408.73 377.421 407.869 377.84 407.091C378.337 406.233 379.016 405.493 379.828 404.924C380.641 404.354 381.568 403.969 382.545 403.795L507.983 378.159C510.776 377.591 514.437 379.485 516.146 382.395L560.605 458.079C560.621 458.119 560.622 458.162 560.609 458.203C560.595 458.243 560.567 458.277 560.53 458.298C560.493 458.319 560.45 458.327 560.408 458.319C560.367 458.311 560.329 458.288 560.303 458.254L515.843 382.57C514.199 379.784 510.756 377.961 508.058 378.5L382.616 404.105C381.69 404.269 380.811 404.633 380.041 405.172C379.27 405.71 378.627 406.411 378.155 407.224C377.76 407.957 377.533 408.768 377.49 409.599C377.447 410.431 377.59 411.261 377.908 412.031L416.786 511.958C417.35 513.449 418.291 514.769 419.517 515.787C420.744 516.805 422.213 517.488 423.783 517.768C423.827 517.778 423.866 517.804 423.892 517.841C423.919 517.878 423.931 517.923 423.926 517.968C423.92 517.997 423.908 518.024 423.889 518.046C423.871 518.069 423.847 518.088 423.821 518.1Z" fill="white" fill-opacity="0.79"/>
<path d="M635.487 491.447C635.453 491.462 635.414 491.465 635.377 491.455C635.34 491.445 635.308 491.424 635.285 491.393C635.271 491.376 635.26 491.355 635.254 491.334C635.248 491.312 635.246 491.289 635.248 491.266C635.251 491.243 635.258 491.222 635.27 491.202C635.281 491.182 635.297 491.165 635.315 491.151L649.645 479.424C649.951 479.173 650.06 478.925 649.991 478.663C649.785 477.92 647.927 476.872 644.285 476.337L569.639 465.296C569.593 465.289 569.552 465.265 569.524 465.228C569.495 465.191 569.483 465.145 569.488 465.099C569.496 465.052 569.522 465.01 569.56 464.981C569.598 464.953 569.645 464.94 569.692 464.945L644.338 475.987C647.729 476.488 650.025 477.481 650.335 478.595C650.441 478.867 650.394 479.297 649.879 479.728L635.546 491.449L635.487 491.447Z" fill="white"/>
<path d="M527.491 578.341C521.254 580.767 514.454 579.97 508.057 575.912C507.6 575.628 462.086 547.635 457.991 544.814C457.972 544.801 457.956 544.785 457.943 544.765C457.93 544.746 457.921 544.724 457.917 544.701C457.913 544.678 457.913 544.655 457.918 544.632C457.923 544.61 457.932 544.588 457.945 544.569C457.958 544.55 457.975 544.533 457.994 544.521C458.014 544.508 458.035 544.499 458.058 544.495C458.081 544.491 458.104 544.491 458.127 544.496C458.15 544.5 458.171 544.51 458.191 544.523C462.276 547.339 507.79 575.332 508.246 575.616C519.887 583.012 529.121 577.978 533.587 574.322L621.893 502.081C621.911 502.066 621.931 502.055 621.953 502.049C621.975 502.043 621.998 502.041 622.02 502.044C622.043 502.046 622.065 502.054 622.084 502.065C622.104 502.077 622.121 502.092 622.135 502.11C622.15 502.127 622.162 502.146 622.169 502.168C622.177 502.189 622.179 502.212 622.177 502.235C622.175 502.257 622.168 502.279 622.157 502.299C622.146 502.319 622.131 502.336 622.113 502.349L533.806 574.59C531.913 576.167 529.781 577.432 527.491 578.341Z" fill="white"/>
<g style="mix-blend-mode:multiply" opacity="0.36">
<path d="M481.053 542.258C478.695 543.562 475.392 543.859 473.781 542.913L436.245 520.884C435.173 520.247 436.116 519.007 438.31 518.128L562.567 468.286C563.694 467.94 564.886 467.854 566.051 468.034L601.743 473.913C603.149 474.141 603.722 474.659 603.015 475.066L481.053 542.258Z" fill="#B1B4B8"/>
</g>
<g style="mix-blend-mode:multiply" opacity="0.36">
<path d="M585.165 521.015C584.595 521.327 583.966 521.52 583.319 521.581C582.671 521.641 582.018 521.569 581.399 521.368L548.701 511.096C547.676 510.77 547.534 510.108 548.383 509.622L581.099 490.898C581.99 490.519 582.976 490.423 583.924 490.622L613.933 497.181C615.085 497.432 615.598 497.966 615.062 498.389L585.165 521.015Z" fill="#B1B4B8"/>
</g>
<path d="M696.3 497.876L696.197 650.768L906.463 650.769L906.567 497.877L696.3 497.876Z" fill="url(#paint28_linear_69_2)"/>
<path d="M900.197 497.861L800.727 497.861L800.627 645.798L900.097 645.798L900.197 497.861Z" fill="#F9C68C"/>
<path d="M800.551 499.474L701.08 499.473L700.983 644.215L800.453 644.216L800.551 499.474Z" fill="#F9C68C"/>
<path d="M900.109 645.777C868.613 635.268 835.455 635.269 800.638 645.779L800.734 497.842C834.944 488.545 868.1 488.544 900.204 497.84L900.109 645.777Z" fill="#EBF3FF"/>
<path d="M701.167 645.781C728.288 623.954 763.015 645.78 800.638 645.779L800.733 497.842C761.29 499.662 736.116 483.899 701.263 497.844L701.167 645.781Z" fill="white"/>
<path d="M807.432 511.581C807.432 511.123 807.433 510.664 807.433 510.206C807.433 510.188 807.448 510.17 807.465 510.168C826.688 507.436 846.102 506.516 865.452 507.407C865.47 507.408 865.486 507.424 865.485 507.442C865.485 507.9 865.484 508.359 865.484 508.817C865.484 508.836 865.471 508.85 865.451 508.848C846.101 507.957 826.688 508.877 807.465 511.609C807.447 511.611 807.431 511.598 807.432 511.581ZM838.984 531.333C838.585 531.348 838.262 531.039 838.262 530.641C838.264 530.245 838.586 529.907 838.985 529.892C857.252 529.176 875.565 530.073 893.71 532.584C894.107 532.638 894.426 533.007 894.427 533.404C894.425 533.802 894.105 534.079 893.708 534.025C875.564 531.514 857.251 530.617 838.984 531.333ZM871.252 509.17C870.853 509.143 870.528 508.801 870.53 508.403C870.529 508.006 870.854 507.703 871.252 507.729C878.907 508.225 886.549 509.005 894.16 510.069C894.556 510.125 894.877 510.493 894.877 510.891C894.878 511.288 894.555 511.567 894.159 511.511C886.548 510.446 878.907 509.666 871.252 509.17ZM808.143 522.187C807.746 522.243 807.424 521.965 807.425 521.568C807.426 521.17 807.747 520.802 808.144 520.746C811.165 520.323 814.192 519.945 817.222 519.612C817.618 519.568 817.943 519.857 817.942 520.255C817.942 520.652 817.62 521.01 817.222 521.053C814.191 521.386 811.165 521.764 808.143 522.187ZM808.135 534.087C807.739 534.142 807.417 533.866 807.418 533.468C807.418 533.07 807.739 532.701 808.136 532.645C815.24 531.652 822.37 530.906 829.513 530.407C829.913 530.379 830.234 530.68 830.235 531.078C830.235 531.476 829.91 531.821 829.513 531.848C822.37 532.348 815.24 533.094 808.135 534.087ZM883.239 520.855C882.842 520.813 882.519 520.459 882.52 520.061C882.519 519.663 882.841 519.373 883.24 519.414C886.883 519.792 890.522 520.236 894.153 520.743C894.549 520.798 894.87 521.169 894.87 521.566C894.871 521.962 894.547 522.241 894.152 522.185C890.521 521.677 886.883 521.234 883.239 520.855ZM825.008 520.297C824.612 520.33 824.288 520.035 824.288 519.638C824.288 519.24 824.611 518.889 825.009 518.855C841.844 517.433 858.766 517.387 875.605 518.716C876.003 518.747 876.325 519.098 876.326 519.495C876.326 519.892 876.001 520.189 875.604 520.158C858.765 518.828 841.843 518.875 825.008 520.297ZM808.128 545.748C807.731 545.802 807.409 545.525 807.411 545.128C807.411 544.731 807.732 544.361 808.129 544.307C826.899 541.682 845.849 540.784 864.741 541.612C865.14 541.629 865.463 541.968 865.463 542.365C865.463 542.763 865.138 543.07 864.74 543.053C845.848 542.225 826.898 543.123 808.128 545.748ZM838.962 565.568C838.563 565.584 838.24 565.274 838.239 564.876C838.242 564.479 838.564 564.142 838.963 564.126C857.229 563.41 875.543 564.307 893.687 566.818C894.084 566.872 894.404 567.242 894.405 567.639C894.403 568.036 894.082 568.314 893.686 568.259C875.542 565.749 857.229 564.852 838.962 565.568ZM871.23 543.405C870.831 543.38 870.507 543.036 870.508 542.639C870.507 542.241 870.832 541.938 871.231 541.964C878.886 542.46 886.527 543.24 894.139 544.304C894.534 544.359 894.856 544.729 894.856 545.126C894.856 545.524 894.533 545.801 894.138 545.746C886.526 544.682 878.885 543.901 871.23 543.405ZM808.121 556.422C807.724 556.476 807.402 556.2 807.404 555.802C807.404 555.405 807.725 555.035 808.122 554.981C811.144 554.558 814.171 554.18 817.201 553.847C817.597 553.804 817.921 554.092 817.92 554.489C817.92 554.886 817.598 555.245 817.2 555.289C814.169 555.622 811.143 555.999 808.121 556.422ZM808.113 568.322C807.717 568.378 807.395 568.101 807.396 567.703C807.396 567.306 807.717 566.936 808.114 566.881C815.218 565.888 822.348 565.142 829.491 564.643C829.89 564.615 830.212 564.917 830.212 565.314C830.212 565.712 829.888 566.056 829.49 566.084C822.348 566.583 815.218 567.328 808.113 568.322ZM883.217 555.091C882.82 555.05 882.497 554.693 882.497 554.296C882.497 553.899 882.819 553.608 883.218 553.649C886.861 554.028 890.499 554.471 894.131 554.978C894.527 555.034 894.848 555.403 894.848 555.8C894.849 556.198 894.526 556.475 894.13 556.419C890.499 555.912 886.861 555.469 883.217 555.091ZM824.986 554.532C824.59 554.565 824.266 554.269 824.266 553.873C824.266 553.475 824.589 553.123 824.987 553.09C841.822 551.668 858.744 551.621 875.583 552.951C875.982 552.983 876.302 553.333 876.304 553.73C876.304 554.128 875.979 554.425 875.582 554.393C858.742 553.063 841.821 553.109 824.986 554.532ZM808.106 579.983C807.709 580.038 807.386 579.761 807.389 579.363C807.389 578.965 807.71 578.598 808.107 578.542C826.877 575.917 845.827 575.019 864.719 575.847C865.118 575.864 865.44 576.202 865.441 576.6C865.441 576.997 865.116 577.305 864.718 577.288C845.826 576.46 826.876 577.358 808.106 579.983ZM838.94 599.803C838.541 599.819 838.217 599.509 838.218 599.112C838.22 598.713 838.542 598.379 838.941 598.362C857.207 597.646 875.521 598.543 893.665 601.054C894.062 601.108 894.382 601.478 894.383 601.875C894.381 602.272 894.06 602.55 893.664 602.495C875.52 599.984 857.206 599.087 838.94 599.803ZM871.207 577.64C870.809 577.613 870.484 577.271 870.486 576.874C870.485 576.477 870.81 576.174 871.208 576.199C878.864 576.695 886.505 577.475 894.116 578.539C894.512 578.595 894.833 578.964 894.834 579.361C894.834 579.759 894.511 580.036 894.115 579.981C886.504 578.916 878.862 578.136 871.207 577.64ZM808.099 590.657C807.702 590.713 807.38 590.435 807.381 590.038C807.381 589.64 807.703 589.271 808.1 589.216C811.121 588.794 814.148 588.416 817.178 588.083C817.574 588.039 817.899 588.327 817.898 588.725C817.898 589.123 817.576 589.481 817.177 589.524C814.147 589.857 811.121 590.235 808.099 590.657ZM808.091 602.557C807.695 602.612 807.373 602.335 807.374 601.938C807.374 601.541 807.695 601.171 808.092 601.115C815.196 600.122 822.326 599.376 829.469 598.878C829.868 598.849 830.189 599.151 830.19 599.548C830.19 599.945 829.866 600.291 829.468 600.319C822.326 600.818 815.196 601.564 808.091 602.557ZM883.195 589.326C882.798 589.284 882.475 588.929 882.476 588.531C882.475 588.133 882.797 587.843 883.196 587.884C886.839 588.263 890.478 588.706 894.109 589.213C894.505 589.267 894.826 589.638 894.826 590.035C894.827 590.432 894.504 590.711 894.108 590.654C890.477 590.147 886.839 589.704 883.195 589.326ZM824.964 588.767C824.568 588.801 824.244 588.505 824.244 588.108C824.244 587.71 824.567 587.36 824.965 587.325C841.8 585.903 858.722 585.857 875.56 587.186C875.959 587.218 876.28 587.568 876.281 587.965C876.281 588.363 875.956 588.659 875.559 588.628C858.721 587.298 841.799 587.344 824.964 588.767ZM808.084 614.217C807.687 614.273 807.365 613.995 807.366 613.598C807.367 613.201 807.688 612.832 808.084 612.776C826.855 610.151 845.804 609.254 864.696 610.081C865.096 610.099 865.418 610.437 865.418 610.835C865.418 611.232 865.094 611.539 864.695 611.523C845.804 610.695 826.854 611.593 808.084 614.217ZM871.185 611.875C870.787 611.85 870.462 611.506 870.463 611.108C870.463 610.711 870.788 610.408 871.186 610.434C878.842 610.93 886.483 611.71 894.094 612.774C894.49 612.829 894.811 613.2 894.811 613.596C894.812 613.994 894.489 614.271 894.093 614.216C886.482 613.151 878.84 612.371 871.185 611.875ZM808.077 624.892C807.68 624.948 807.358 624.671 807.359 624.273C807.359 623.875 807.681 623.507 808.078 623.451C811.1 623.028 814.126 622.651 817.156 622.318C817.552 622.275 817.877 622.563 817.876 622.96C817.876 623.357 817.554 623.717 817.155 623.759C814.125 624.092 811.099 624.47 808.077 624.892ZM883.173 623.561C882.776 623.52 882.452 623.164 882.454 622.766C882.453 622.369 882.775 622.079 883.174 622.119C886.817 622.498 890.456 622.941 894.087 623.448C894.483 623.503 894.804 623.873 894.804 624.27C894.805 624.668 894.482 624.945 894.086 624.89C890.455 624.382 886.817 623.939 883.173 623.561ZM824.942 623.002C824.545 623.035 824.221 622.74 824.222 622.343C824.222 621.946 824.545 621.594 824.943 621.56C841.778 620.138 858.699 620.092 875.538 621.421C875.937 621.452 876.258 621.802 876.259 622.2C876.259 622.596 875.934 622.894 875.537 622.863C858.699 621.533 841.777 621.58 824.942 623.002ZM707.961 512.904C707.961 512.446 707.961 511.987 707.961 511.529C707.962 511.51 707.976 511.493 707.995 511.488C727.314 506.932 746.629 511.447 765.945 513.001C765.965 513.002 765.978 513.018 765.978 513.036C765.978 513.495 765.978 513.953 765.977 514.411C765.977 514.429 765.963 514.443 765.944 514.442C746.628 512.888 727.313 508.373 707.993 512.929C707.976 512.934 707.961 512.921 707.961 512.904ZM739.54 534.188C739.14 534.151 738.819 533.801 738.818 533.403C738.819 533.006 739.142 532.711 739.541 532.747C757.771 534.403 775.999 538.303 794.232 534.332C794.629 534.245 794.954 534.493 794.953 534.891C794.952 535.288 794.627 535.686 794.231 535.773C775.998 539.745 757.77 535.845 739.54 534.188ZM771.738 514.807C771.34 514.79 771.016 514.45 771.017 514.053C771.018 513.655 771.342 513.348 771.739 513.366C779.387 513.698 787.035 513.379 794.685 511.66C795.083 511.571 795.407 511.817 795.406 512.214C795.405 512.611 795.084 513.012 794.684 513.101C787.035 514.821 779.386 515.14 771.738 514.807ZM708.675 523.445C708.276 523.534 707.954 523.288 707.954 522.891C707.955 522.494 708.276 522.093 708.676 522.004C711.712 521.321 714.749 520.86 717.785 520.571C718.183 520.533 718.508 520.829 718.506 521.227C718.506 521.624 718.182 521.975 717.784 522.013C714.748 522.301 711.712 522.763 708.675 523.445ZM708.667 535.345C708.269 535.434 707.947 535.188 707.947 534.791C707.948 534.394 708.268 533.993 708.668 533.904C715.807 532.299 722.945 531.914 730.082 532.14C730.478 532.153 730.803 532.488 730.803 532.886C730.803 533.283 730.478 533.594 730.081 533.582C722.944 533.355 715.806 533.741 708.667 535.345ZM783.729 525.361C783.331 525.391 783.008 525.088 783.008 524.689C783.008 524.291 783.333 523.949 783.73 523.92C787.379 523.656 791.028 523.154 794.678 522.334C795.076 522.245 795.4 522.49 795.399 522.888C795.398 523.285 795.077 523.686 794.677 523.774C791.028 524.596 787.378 525.097 783.729 525.361ZM725.579 521.626C725.182 521.628 724.858 521.311 724.858 520.914C724.859 520.517 725.183 520.188 725.58 520.184C742.417 520.047 759.251 524.026 776.088 524.154C776.487 524.157 776.809 524.481 776.81 524.878C776.809 525.275 776.485 525.599 776.088 525.595C759.251 525.467 742.416 521.488 725.579 521.626ZM708.66 547.006C708.261 547.096 707.939 546.849 707.939 546.452C707.94 546.054 708.261 545.654 708.661 545.565C727.522 541.326 746.378 545.595 765.235 547.179C765.633 547.212 765.956 547.561 765.956 547.959C765.955 548.356 765.634 548.654 765.234 548.62C746.377 547.037 727.521 542.767 708.66 547.006ZM739.518 568.423C739.118 568.386 738.797 568.035 738.797 567.638C738.797 567.241 739.12 566.946 739.519 566.982C757.749 568.638 775.977 572.538 794.21 568.567C794.607 568.48 794.932 568.728 794.931 569.126C794.93 569.524 794.605 569.921 794.209 570.008C775.976 573.98 757.747 570.08 739.518 568.423ZM771.716 549.042C771.318 549.025 770.994 548.686 770.995 548.288C770.996 547.891 771.32 547.583 771.717 547.601C779.365 547.934 787.013 547.615 794.663 545.896C795.061 545.806 795.385 546.052 795.384 546.45C795.383 546.848 795.062 547.248 794.663 547.337C787.012 549.056 779.364 549.376 771.716 549.042ZM708.653 557.68C708.254 557.769 707.933 557.524 707.932 557.126C707.933 556.73 708.254 556.328 708.654 556.239C711.69 555.557 714.727 555.095 717.763 554.807C718.16 554.769 718.486 555.065 718.484 555.462C718.484 555.859 718.16 556.209 717.762 556.248C714.726 556.536 711.69 556.998 708.653 557.68ZM708.645 569.58C708.246 569.67 707.925 569.424 707.924 569.026C707.925 568.628 708.246 568.229 708.646 568.139C715.785 566.535 722.923 566.149 730.06 566.376C730.456 566.388 730.781 566.724 730.78 567.121C730.781 567.518 730.456 567.83 730.059 567.817C722.922 567.59 715.784 567.976 708.645 569.58ZM783.707 559.596C783.309 559.624 782.986 559.323 782.986 558.925C782.986 558.528 783.312 558.183 783.708 558.155C787.356 557.891 791.006 557.389 794.656 556.569C795.054 556.48 795.378 556.726 795.377 557.123C795.375 557.521 795.055 557.921 794.655 558.01C791.005 558.83 787.356 559.332 783.707 559.596ZM725.557 555.861C725.16 555.863 724.836 555.546 724.836 555.149C724.837 554.751 725.161 554.423 725.558 554.419C742.395 554.281 759.229 558.26 776.066 558.389C776.465 558.392 776.787 558.716 776.787 559.113C776.787 559.511 776.463 559.833 776.065 559.831C759.228 559.701 742.394 555.723 725.557 555.861ZM708.638 581.241C708.239 581.33 707.917 581.085 707.917 580.687C707.918 580.29 708.239 579.889 708.639 579.8C727.5 575.561 746.356 579.83 765.214 581.414C765.611 581.447 765.934 581.796 765.935 582.194C765.934 582.591 765.612 582.888 765.213 582.855C746.355 581.272 727.499 577.002 708.638 581.241ZM739.496 602.658C739.096 602.622 738.776 602.271 738.775 601.873C738.775 601.475 739.099 601.181 739.497 601.217C757.727 602.874 775.955 606.773 794.188 602.802C794.586 602.715 794.91 602.964 794.909 603.362C794.909 603.759 794.584 604.157 794.187 604.244C775.954 608.215 757.725 604.315 739.496 602.658ZM771.693 583.277C771.296 583.26 770.972 582.921 770.972 582.523C770.973 582.124 771.297 581.818 771.694 581.836C779.343 582.169 786.991 581.849 794.641 580.13C795.039 580.04 795.363 580.287 795.362 580.684C795.36 581.081 795.04 581.482 794.64 581.571C786.99 583.291 779.342 583.61 771.693 583.277ZM708.631 591.915C708.232 592.005 707.91 591.76 707.91 591.361C707.912 590.964 708.232 590.563 708.632 590.474C711.668 589.792 714.705 589.329 717.742 589.042C718.139 589.003 718.464 589.299 718.462 589.697C718.462 590.095 718.138 590.445 717.741 590.483C714.704 590.771 711.667 591.233 708.631 591.915ZM708.623 603.816C708.224 603.906 707.902 603.658 707.902 603.261C707.903 602.864 708.224 602.463 708.624 602.374C715.763 600.77 722.901 600.384 730.038 600.611C730.434 600.623 730.759 600.959 730.758 601.356C730.759 601.753 730.433 602.065 730.037 602.052C722.9 601.826 715.762 602.211 708.623 603.816ZM783.684 593.832C783.287 593.861 782.964 593.557 782.964 593.16C782.963 592.763 783.289 592.418 783.685 592.39C787.334 592.126 790.984 591.624 794.634 590.804C795.032 590.715 795.356 590.96 795.355 591.358C795.353 591.756 795.033 592.156 794.633 592.245C790.983 593.066 787.334 593.568 783.684 593.832ZM725.535 590.096C725.138 590.099 724.814 589.782 724.814 589.384C724.815 588.987 725.139 588.658 725.535 588.655C742.372 588.518 759.207 592.496 776.044 592.625C776.443 592.628 776.765 592.951 776.765 593.348C776.765 593.746 776.441 594.07 776.042 594.066C759.206 593.937 742.372 589.958 725.535 590.096ZM708.616 615.476C708.217 615.566 707.895 615.32 707.895 614.922C707.896 614.524 708.217 614.124 708.617 614.034C727.478 609.796 746.334 614.065 765.191 615.649C765.589 615.682 765.912 616.031 765.913 616.429C765.912 616.826 765.59 617.124 765.191 617.09C746.333 615.507 727.477 611.237 708.616 615.476ZM771.671 617.512C771.274 617.495 770.95 617.156 770.95 616.758C770.951 616.361 771.275 616.054 771.672 616.071C779.321 616.404 786.969 616.084 794.619 614.365C795.016 614.276 795.341 614.522 795.34 614.919C795.338 615.316 795.018 615.716 794.618 615.807C786.968 617.526 779.32 617.845 771.671 617.512ZM708.609 626.151C708.21 626.24 707.888 625.994 707.888 625.596C707.889 625.199 708.21 624.798 708.609 624.709C711.646 624.027 714.683 623.565 717.719 623.277C718.116 623.24 718.442 623.534 718.439 623.932C718.439 624.33 718.115 624.68 717.718 624.718C714.682 625.007 711.645 625.468 708.609 626.151ZM783.663 628.067C783.265 628.096 782.942 627.791 782.942 627.395C782.941 626.997 783.267 626.653 783.664 626.625C787.313 626.361 790.962 625.859 794.612 625.039C795.01 624.949 795.334 625.195 795.333 625.593C795.332 625.991 795.011 626.39 794.611 626.48C790.961 627.301 787.312 627.803 783.663 628.067ZM725.513 624.331C725.116 624.335 724.792 624.016 724.792 623.618C724.793 623.22 725.117 622.894 725.514 622.89C742.351 622.752 759.185 626.731 776.022 626.859C776.421 626.863 776.744 627.185 776.743 627.583C776.743 627.98 776.419 628.304 776.021 628.301C759.184 628.172 742.35 624.194 725.513 624.331Z" fill="#ABA3FE"/>
</g>
<defs>
<linearGradient id="paint0_linear_69_2" x1="1.96718e-06" y1="357" x2="1599.97" y2="352.503" gradientUnits="userSpaceOnUse">
<stop stop-color="#C0B9FC"/>
<stop offset="0.512305" stop-color="#9B92FF"/>
<stop offset="1" stop-color="#3931FF"/>
</linearGradient>
<linearGradient id="paint1_linear_69_2" x1="1316.15" y1="695.583" x2="1328.91" y2="695.583" gradientUnits="userSpaceOnUse">
<stop stop-color="white"/>
<stop offset="1" stop-color="white" stop-opacity="0.82"/>
</linearGradient>
<linearGradient id="paint2_linear_69_2" x1="1328.91" y1="709.924" x2="1367.2" y2="709.924" gradientUnits="userSpaceOnUse">
<stop stop-color="white"/>
<stop offset="1" stop-color="white" stop-opacity="0.82"/>
</linearGradient>
<linearGradient id="paint3_linear_69_2" x1="1329.13" y1="681.182" x2="1367.1" y2="681.182" gradientUnits="userSpaceOnUse">
<stop stop-color="white"/>
<stop offset="1" stop-color="white" stop-opacity="0.82"/>
</linearGradient>
<linearGradient id="paint4_linear_69_2" x1="1161.05" y1="417.303" x2="1279.41" y2="292.645" gradientUnits="userSpaceOnUse">
<stop offset="0.184024" stop-color="#006D5E"/>
<stop offset="1" stop-color="#10F1D3"/>
</linearGradient>
<linearGradient id="paint5_linear_69_2" x1="1161.08" y1="418.402" x2="1275.24" y2="293.912" gradientUnits="userSpaceOnUse">
<stop offset="0.184024" stop-color="#006D5E"/>
<stop offset="1" stop-color="#10F1D3"/>
</linearGradient>
<linearGradient id="paint6_linear_69_2" x1="1144.87" y1="402.138" x2="1306.34" y2="375.39" gradientUnits="userSpaceOnUse">
<stop stop-color="#7B73FF"/>
<stop offset="1" stop-color="#766FFF"/>
</linearGradient>
<linearGradient id="paint7_linear_69_2" x1="1173.76" y1="430.301" x2="1227.11" y2="314.1" gradientUnits="userSpaceOnUse">
<stop offset="0.184024" stop-color="#006D5E"/>
<stop offset="1" stop-color="#10F1D3"/>
</linearGradient>
<linearGradient id="paint8_linear_69_2" x1="1173.85" y1="433.288" x2="1213.41" y2="329.769" gradientUnits="userSpaceOnUse">
<stop offset="0.184024" stop-color="#006D5E"/>
<stop offset="1" stop-color="#10F1D3"/>
</linearGradient>
<linearGradient id="paint9_linear_69_2" x1="1155.65" y1="425.343" x2="1334.07" y2="362.935" gradientUnits="userSpaceOnUse">
<stop stop-color="#7B73FF"/>
<stop offset="1" stop-color="#756DFF"/>
</linearGradient>
<linearGradient id="paint10_linear_69_2" x1="1082.94" y1="413.721" x2="1049.32" y2="543.882" gradientUnits="userSpaceOnUse">
<stop stop-color="#C96409"/>
<stop offset="1" stop-color="#FFBC81"/>
</linearGradient>
<linearGradient id="paint11_linear_69_2" x1="1082.94" y1="413.721" x2="1061.18" y2="497.943" gradientUnits="userSpaceOnUse">
<stop stop-color="#FBB785"/>
<stop offset="1" stop-color="#E77B2C"/>
</linearGradient>
<linearGradient id="paint12_linear_69_2" x1="1064.33" y1="475.757" x2="1067.51" y2="481.153" gradientUnits="userSpaceOnUse">
<stop stop-color="#3E2723" stop-opacity="0.2"/>
<stop offset="1" stop-color="#3E2723" stop-opacity="0.02"/>
</linearGradient>
<linearGradient id="paint13_linear_69_2" x1="1047.26" y1="388.968" x2="1130.04" y2="529.42" gradientUnits="userSpaceOnUse">
<stop stop-color="#3E2723" stop-opacity="0.2"/>
<stop offset="1" stop-color="#3E2723" stop-opacity="0.02"/>
</linearGradient>
<linearGradient id="paint14_linear_69_2" x1="981.837" y1="409.353" x2="1150.42" y2="548.251" gradientUnits="userSpaceOnUse">
<stop stop-color="white" stop-opacity="0.2"/>
<stop offset="1" stop-color="white" stop-opacity="0"/>
</linearGradient>
<linearGradient id="paint15_linear_69_2" x1="800.826" y1="195.996" x2="788.97" y2="343.522" gradientUnits="userSpaceOnUse">
<stop stop-color="#DEE1E2"/>
<stop offset="1" stop-color="#B4BCBE"/>
</linearGradient>
<linearGradient id="paint16_linear_69_2" x1="748.585" y1="201.681" x2="905.196" y2="188.118" gradientUnits="userSpaceOnUse">
<stop stop-color="#FEFEFC"/>
<stop offset="0.09" stop-color="#FEFEFC" stop-opacity="0.96"/>
<stop offset="0.25" stop-color="#FEFEFC" stop-opacity="0.86"/>
<stop offset="0.44" stop-color="#FEFEFD" stop-opacity="0.7"/>
<stop offset="0.68" stop-color="#FFFFFE" stop-opacity="0.47"/>
<stop offset="0.93" stop-color="white" stop-opacity="0.18"/>
<stop offset="1" stop-color="white" stop-opacity="0.1"/>
</linearGradient>
<linearGradient id="paint17_linear_69_2" x1="794.901" y1="147.958" x2="807.038" y2="288.112" gradientUnits="userSpaceOnUse">
<stop stop-color="#DEE1E2"/>
<stop offset="1" stop-color="#B4BCBE"/>
</linearGradient>
<linearGradient id="paint18_linear_69_2" x1="744.009" y1="274.777" x2="1216.89" y2="233.824" gradientUnits="userSpaceOnUse">
<stop stop-color="#DEE1E2"/>
<stop offset="1" stop-color="#B4BCBE"/>
</linearGradient>
<linearGradient id="paint19_linear_69_2" x1="729.899" y1="294.862" x2="753.783" y2="211.607" gradientUnits="userSpaceOnUse">
<stop stop-color="#DEE1E2"/>
<stop offset="1" stop-color="#B4BCBE"/>
</linearGradient>
<linearGradient id="paint20_linear_69_2" x1="637.451" y1="244.633" x2="727.456" y2="171.113" gradientUnits="userSpaceOnUse">
<stop stop-color="#FB9835"/>
<stop offset="1" stop-color="#FBBB3C"/>
</linearGradient>
<linearGradient id="paint21_linear_69_2" x1="735.116" y1="145.051" x2="819.808" y2="77.693" gradientUnits="userSpaceOnUse">
<stop stop-color="#2FA2FA"/>
<stop offset="1" stop-color="#37D3FB"/>
</linearGradient>
<linearGradient id="paint22_linear_69_2" x1="741.511" y1="145.212" x2="808.657" y2="90.9694" gradientUnits="userSpaceOnUse">
<stop stop-color="#02855E"/>
<stop offset="1" stop-color="#87FFCD"/>
</linearGradient>
<linearGradient id="paint23_linear_69_2" x1="884.484" y1="328.888" x2="881.976" y2="234.446" gradientUnits="userSpaceOnUse">
<stop stop-color="#2FA2FA"/>
<stop offset="1" stop-color="#37D3FB"/>
</linearGradient>
<linearGradient id="paint24_linear_69_2" x1="892.671" y1="177.442" x2="882.786" y2="103.864" gradientUnits="userSpaceOnUse">
<stop stop-color="#4622D9"/>
<stop offset="1" stop-color="#D8C0FF"/>
</linearGradient>
<linearGradient id="paint25_linear_69_2" x1="514.362" y1="511.132" x2="294.37" y2="513.069" gradientUnits="userSpaceOnUse">
<stop offset="0.184024" stop-color="#006D5E"/>
<stop offset="1" stop-color="#10F1D3"/>
</linearGradient>
<linearGradient id="paint26_linear_69_2" x1="469.126" y1="503.409" x2="320.552" y2="472.221" gradientUnits="userSpaceOnUse">
<stop offset="0.184024" stop-color="#006D5E"/>
<stop offset="1" stop-color="#10F1D3"/>
</linearGradient>
<radialGradient id="paint27_radial_69_2" cx="0" cy="0" r="1" gradientUnits="userSpaceOnUse" gradientTransform="translate(589.968 459.165) rotate(-21.2591) scale(94.6674 94.6674)">
<stop stop-color="#EAF7FF"/>
<stop offset="0.99" stop-color="#C2C1FC"/>
</radialGradient>
<linearGradient id="paint28_linear_69_2" x1="696.248" y1="574.322" x2="906.515" y2="574.464" gradientUnits="userSpaceOnUse">
<stop stop-color="#ED2944"/>
<stop offset="1" stop-color="#FFA3AF"/>
</linearGradient>
<clipPath id="clip0_69_2">
<rect width="1600" height="760" fill="white"/>
</clipPath>
<clipPath id="clip1_69_2">
<rect width="243.087" height="57.5294" fill="white" transform="translate(1316.15 666.735)"/>
</clipPath>
<clipPath id="clip2_69_2">
<rect width="189.789" height="189.789" fill="white" transform="translate(1000.95 351.703) rotate(14.4848)"/>
</clipPath>
</defs>
</svg>
