<svg width="1600" height="760" viewBox="0 0 1600 760" fill="none" xmlns="http://www.w3.org/2000/svg">
<g clip-path="url(#clip0_29_1505)">
<rect width="1600" height="760" fill="white"/>
<rect width="1600" height="760" fill="url(#paint0_linear_29_1505)"/>
<g clip-path="url(#clip1_29_1505)">
<path d="M1391.38 704.81C1389.78 704.857 1388.21 704.457 1386.84 703.655C1385.58 702.88 1384.57 701.757 1383.94 700.421C1383.24 698.917 1382.89 697.273 1382.93 695.614C1382.89 693.954 1383.24 692.308 1383.94 690.802C1384.57 689.467 1385.58 688.344 1386.84 687.569C1388.21 686.767 1389.78 686.366 1391.38 686.413C1393.19 686.347 1394.98 686.882 1396.47 687.938C1397.84 688.968 1398.85 690.409 1399.34 692.052L1396.36 692.875C1396.08 691.814 1395.46 690.87 1394.61 690.177C1393.67 689.496 1392.53 689.158 1391.38 689.219C1390.33 689.18 1389.3 689.458 1388.41 690.015C1387.61 690.568 1386.99 691.352 1386.64 692.264C1386.22 693.342 1386.01 694.49 1386.03 695.645C1386 696.799 1386.21 697.947 1386.62 699.023C1386.98 699.938 1387.61 700.722 1388.42 701.271C1389.31 701.828 1390.34 702.106 1391.39 702.067C1392.54 702.118 1393.68 701.772 1394.6 701.087C1395.46 700.393 1396.07 699.449 1396.36 698.389L1399.34 699.171C1398.85 700.812 1397.85 702.253 1396.48 703.286C1395 704.345 1393.2 704.881 1391.38 704.81Z" fill="white"/>
<path d="M1402.59 704.446V686.778H1409.88C1410.06 686.778 1410.28 686.778 1410.55 686.778C1410.8 686.789 1411.05 686.816 1411.3 686.859C1412.22 686.973 1413.09 687.325 1413.83 687.879C1414.49 688.396 1415.01 689.079 1415.32 689.858C1415.65 690.705 1415.81 691.607 1415.8 692.516C1415.83 693.836 1415.45 695.134 1414.71 696.226C1414.31 696.759 1413.81 697.204 1413.23 697.534C1412.66 697.865 1412.02 698.073 1411.36 698.146L1410.1 698.254H1405.55V704.446H1402.59ZM1405.55 695.515H1409.76C1409.93 695.515 1410.11 695.515 1410.32 695.488C1410.51 695.476 1410.7 695.442 1410.88 695.389C1411.32 695.297 1411.73 695.071 1412.04 694.742C1412.32 694.44 1412.52 694.079 1412.64 693.685C1412.75 693.312 1412.81 692.924 1412.82 692.534C1412.81 692.141 1412.76 691.75 1412.64 691.374C1412.52 690.978 1412.32 690.615 1412.04 690.312C1411.73 689.986 1411.32 689.762 1410.88 689.669C1410.69 689.622 1410.51 689.591 1410.32 689.579C1410.11 689.579 1409.93 689.579 1409.76 689.579H1405.55V695.515ZM1412.74 704.446L1409.26 697.251L1412.26 696.59L1416.09 704.442L1412.74 704.446Z" fill="white"/>
<path d="M1419.35 704.446V686.778H1430.76V689.552H1422.3V693.905H1429.28V696.68H1422.3V701.672H1430.76V704.446H1419.35Z" fill="white"/>
<path d="M1433.04 704.446L1438.6 686.778H1442.93L1448.5 704.446H1445.46L1440.41 688.595H1441.07L1436.08 704.446H1433.04ZM1436.14 700.615V697.858H1445.41V700.615H1436.14Z" fill="white"/>
<path d="M1454.05 704.446V689.552H1448.33V686.778H1462.72V689.552H1457V704.446H1454.05Z" fill="white"/>
<path d="M1465.49 704.446V686.778H1468.45V704.446H1465.49Z" fill="white"/>
<path d="M1476.69 704.446L1471.1 686.778H1474.14L1478.8 701.573L1483.53 686.778H1486.58L1481 704.446H1476.69Z" fill="white"/>
<path d="M1488.97 704.446V686.778H1500.38V689.552H1491.93V693.905H1498.91V696.68H1491.93V701.672H1500.38V704.446H1488.97Z" fill="white"/>
<path d="M1504.12 704.446V686.778H1507.08V704.446H1504.12Z" fill="white"/>
<path d="M1515.58 704.446V689.552H1509.87V686.778H1524.26V689.552H1518.54V704.446H1515.58Z" fill="white"/>
<path d="M1526.78 704.446V686.778H1538.19V689.552H1529.76V693.905H1536.73V696.68H1529.76V701.672H1538.21V704.446H1526.78Z" fill="white"/>
<path d="M1541.7 704.446V686.778H1544.36L1550.47 699.293L1556.58 686.778H1559.24V704.446H1556.48V693.123L1551.06 704.446H1549.88L1544.48 693.123V704.446H1541.7Z" fill="white"/>
<path d="M1341.68 710.319L1328.91 702.949V717.685L1341.68 710.319Z" fill="white" fill-opacity="0.48"/>
<path d="M1367.2 695.583L1354.43 688.217V702.949L1367.2 695.583Z" fill="white" fill-opacity="0.47"/>
<path d="M1341.68 680.846L1328.91 673.48V688.217L1341.68 680.846Z" fill="white" fill-opacity="0.48"/>
<path d="M1328.91 673.48L1318.7 679.376C1317.93 679.822 1317.28 680.466 1316.83 681.243C1316.38 682.019 1316.15 682.9 1316.15 683.796V707.369C1316.15 708.266 1316.39 709.148 1316.83 709.924C1317.28 710.701 1317.93 711.346 1318.7 711.794L1328.91 717.685V673.48Z" fill="url(#paint1_linear_29_1505)"/>
<path d="M1367.2 707.369V695.583L1328.91 717.685L1339.12 723.581C1339.9 724.029 1340.78 724.265 1341.67 724.265C1342.57 724.265 1343.45 724.029 1344.22 723.581L1364.65 711.794C1365.42 711.345 1366.07 710.7 1366.51 709.923C1366.96 709.146 1367.2 708.266 1367.2 707.369Z" fill="url(#paint2_linear_29_1505)"/>
<path d="M1344.32 667.634C1343.55 667.19 1342.68 666.956 1341.79 666.956C1340.9 666.956 1340.03 667.19 1339.26 667.634L1329.13 673.48L1367.1 695.407V683.715C1367.1 682.826 1366.87 681.952 1366.42 681.182C1365.98 680.411 1365.34 679.771 1364.57 679.326L1344.32 667.634Z" fill="url(#paint3_linear_29_1505)"/>
</g>
<path opacity="0.2" d="M393.024 624.531H1207C1207 624.531 1191 532.104 1096.54 566.084C1096.54 566.084 1131.88 483.172 1044.89 470.939C1044.89 470.939 1050.32 396.182 987.798 407.735C987.798 407.735 866.828 213.366 723.43 344.531C709.926 356.886 700.846 415.89 729.771 439.629C729.771 439.629 623.378 381.781 583.09 498.511C542.803 615.24 497.357 527.435 440.542 563.583C383.726 599.732 393.024 624.531 393.024 624.531Z" fill="white"/>
<path d="M877.742 383.704C877.742 383.704 848.689 402.787 856.307 424.61C856.307 424.61 890.444 418.391 909.052 420.804C927.66 423.216 958.949 408.183 957.155 396.548L903.683 394.143C903.683 394.143 893.727 388.964 890.2 387.557C887.216 386.341 877.742 383.704 877.742 383.704Z" fill="url(#paint4_linear_29_1505)"/>
<path d="M875.336 233.428C875.336 233.428 902.222 226.7 907.55 221.195C907.55 221.195 895.643 222.704 888.432 201.357C881.222 180.011 868.452 187.888 868.452 187.888L875.336 233.428Z" fill="url(#paint5_linear_29_1505)"/>
<path d="M872.353 186.862C872.353 186.862 833.907 196.077 827.709 211.64C827.709 211.64 822.898 238.757 858.734 289.435C894.569 340.114 904.886 386.844 903.683 394.143C903.683 394.143 927.782 422.965 956.509 402.013C956.509 402.013 978.624 379.687 927.741 313.045C866.862 233.286 872.353 186.862 872.353 186.862Z" fill="url(#paint6_linear_29_1505)"/>
<path d="M858.043 224.536L836.658 232.96C836.134 233.166 835.877 233.758 836.083 234.282C836.289 234.806 836.881 235.063 837.405 234.857L858.79 226.433C859.314 226.226 859.571 225.635 859.365 225.111C859.159 224.587 858.567 224.33 858.043 224.536Z" fill="white" fill-opacity="0.62"/>
<path d="M872.013 230.085L840.435 242.524C839.911 242.731 839.654 243.323 839.86 243.847C840.066 244.37 840.658 244.628 841.182 244.421L872.76 231.982C873.284 231.776 873.542 231.184 873.335 230.66C873.129 230.137 872.537 229.879 872.013 230.085Z" fill="white" fill-opacity="0.62"/>
<path d="M878.584 245.275L847.006 257.714C846.482 257.921 846.225 258.513 846.431 259.036C846.637 259.56 847.229 259.818 847.753 259.611L879.331 247.172C879.855 246.966 880.112 246.374 879.906 245.85C879.7 245.326 879.108 245.069 878.584 245.275Z" fill="white" fill-opacity="0.62"/>
<path d="M882.572 254.081L850.994 266.52C850.47 266.727 850.212 267.319 850.419 267.842C850.625 268.366 851.217 268.624 851.741 268.417L883.319 255.978C883.843 255.772 884.1 255.18 883.894 254.656C883.687 254.132 883.096 253.875 882.572 254.081Z" fill="white" fill-opacity="0.62"/>
<path d="M920.078 314.211L888.5 326.65C887.976 326.856 887.718 327.448 887.925 327.972C888.131 328.495 888.723 328.753 889.247 328.546L920.825 316.108C921.349 315.901 921.606 315.309 921.4 314.785C921.194 314.262 920.602 314.004 920.078 314.211Z" fill="white" fill-opacity="0.62"/>
<path d="M924.062 323.019L892.484 335.458C891.96 335.664 891.702 336.256 891.909 336.78C892.115 337.304 892.707 337.561 893.231 337.355L924.809 324.916C925.333 324.709 925.59 324.117 925.384 323.594C925.178 323.07 924.586 322.812 924.062 323.019Z" fill="white" fill-opacity="0.62"/>
<path d="M904.642 291.685L875.497 304.128C874.979 304.349 874.739 304.948 874.96 305.466C875.181 305.984 875.78 306.224 876.298 306.003L905.443 293.56C905.96 293.339 906.201 292.74 905.98 292.222C905.759 291.704 905.16 291.464 904.642 291.685Z" fill="white" fill-opacity="0.62"/>
<path d="M909.296 299.718L880.051 312.495C879.535 312.72 879.3 313.321 879.525 313.837C879.75 314.353 880.351 314.589 880.867 314.363L910.113 301.586C910.628 301.361 910.864 300.76 910.639 300.244C910.413 299.728 909.812 299.492 909.296 299.718Z" fill="white" fill-opacity="0.62"/>
<path d="M892.647 269.851L861.069 282.29C860.545 282.496 860.288 283.088 860.494 283.612C860.701 284.136 861.292 284.393 861.816 284.187L893.394 271.748C893.918 271.541 894.176 270.949 893.969 270.425C893.763 269.902 893.171 269.644 892.647 269.851Z" fill="white" fill-opacity="0.62"/>
<path d="M879.035 285.042L865.839 290.24C865.315 290.447 865.058 291.039 865.264 291.562C865.47 292.086 866.062 292.344 866.586 292.137L879.783 286.939C880.306 286.733 880.564 286.141 880.358 285.617C880.151 285.093 879.559 284.836 879.035 285.042Z" fill="white" fill-opacity="0.62"/>
<path d="M896.306 278.285L884.254 283.033C883.73 283.239 883.473 283.831 883.679 284.355C883.886 284.878 884.478 285.136 885.002 284.929L897.054 280.182C897.577 279.976 897.835 279.384 897.628 278.86C897.422 278.336 896.83 278.079 896.306 278.285Z" fill="white" fill-opacity="0.62"/>
<path d="M931.587 337.359L900.009 349.798C899.485 350.005 899.227 350.597 899.434 351.12C899.64 351.644 900.232 351.902 900.756 351.695L932.334 339.256C932.858 339.05 933.115 338.458 932.909 337.934C932.702 337.41 932.111 337.153 931.587 337.359Z" fill="white" fill-opacity="0.62"/>
<path d="M917.984 352.557L904.787 357.755C904.264 357.962 904.006 358.554 904.213 359.078C904.419 359.601 905.011 359.859 905.535 359.652L918.731 354.454C919.255 354.248 919.512 353.656 919.306 353.132C919.1 352.608 918.508 352.351 917.984 352.557Z" fill="white" fill-opacity="0.62"/>
<path d="M935.246 345.794L923.194 350.541C922.67 350.747 922.412 351.339 922.619 351.863C922.825 352.387 923.417 352.644 923.941 352.438L935.993 347.691C936.517 347.484 936.774 346.892 936.568 346.368C936.361 345.845 935.769 345.587 935.246 345.794Z" fill="white" fill-opacity="0.62"/>
<path d="M1053.86 652.13C1053.86 652.13 1079.78 592.473 1110.94 585.025C1112.1 584.744 1113.3 584.738 1114.46 585.008C1115.62 585.278 1116.7 585.815 1117.61 586.577C1118.52 587.34 1119.24 588.305 1119.71 589.396C1120.18 590.488 1120.39 591.674 1120.32 592.861C1119.64 603.735 1110.33 625.672 1063.16 662.31L1053.86 652.13Z" fill="url(#paint7_linear_29_1505)"/>
<path d="M1057.47 656.221C1057.9 655.698 1114.09 589.741 1114.09 589.741C1102.08 606.657 1058.94 656.554 1058.51 657.077L1057.47 656.221Z" fill="white"/>
<path d="M1044.75 645.381C1044.75 645.381 1051.05 570.624 1082.37 550.976C1083.52 550.246 1084.84 549.798 1086.2 549.667C1087.56 549.537 1088.94 549.728 1090.22 550.225C1091.49 550.722 1092.63 551.511 1093.55 552.529C1094.47 553.547 1095.13 554.766 1095.49 556.087C1098.74 568.239 1096.69 595.62 1058.68 653.068L1044.75 645.381Z" fill="url(#paint8_linear_29_1505)"/>
<path d="M1050.21 648.514C1050.49 647.787 1087.52 554.979 1087.52 554.979C1080.65 577.896 1051.93 648.317 1051.68 649.071L1050.21 648.514Z" fill="white"/>
<path d="M1163.82 669.63C1163.82 669.63 1145.58 618.577 1100.42 638.558C1100.42 638.558 1081.31 647.237 1060.47 625.53C1060.47 625.53 1021.83 575.592 984.482 592.093C984.482 592.093 966.241 599.039 956.692 632.91C956.692 632.91 908.929 631.171 902.847 669.385L1163.82 669.63Z" fill="url(#paint9_linear_29_1505)"/>
<path d="M534.457 635.405C534.457 635.405 507.952 576.013 523.481 547.973C524.057 546.935 524.868 546.046 525.85 545.378C526.831 544.71 527.955 544.282 529.131 544.126C530.308 543.971 531.505 544.094 532.626 544.484C533.746 544.875 534.76 545.523 535.585 546.376C543.143 554.239 553.051 575.891 548.253 635.405H534.457Z" fill="url(#paint10_linear_29_1505)"/>
<path d="M539.935 635.5C539.84 634.82 529.061 548.856 529.061 548.856C533.445 569.129 541.145 634.643 541.24 635.309L539.935 635.5Z" fill="white"/>
<path d="M518.452 646.672C518.452 646.672 452.972 586.364 457.342 542.692C457.506 541.078 458.045 539.524 458.917 538.156C459.788 536.788 460.968 535.642 462.362 534.811C463.755 533.981 465.324 533.487 466.942 533.371C468.561 533.255 470.184 533.519 471.682 534.143C485.444 539.933 509.604 561.789 535.789 639.224L518.452 646.672Z" fill="url(#paint11_linear_29_1505)"/>
<path d="M525.357 643.839C524.882 643.05 464.872 540.789 464.872 540.789C481.353 563.896 526.479 642.092 526.961 642.88L525.357 643.839Z" fill="white"/>
<path d="M432.556 669.874C432.556 669.874 454.984 607.35 510.413 631.864C510.413 631.864 533.88 642.527 559.48 615.866C559.48 615.866 606.938 554.538 652.805 574.804C652.805 574.804 675.198 583.333 686.935 624.932C686.935 624.932 745.592 622.798 753.061 669.725L432.556 669.874Z" fill="url(#paint12_linear_29_1505)"/>
<path d="M562.145 669.725C562.145 669.725 584.572 615.356 620.809 637.729C620.809 637.729 635.76 654.794 652.805 639.863C652.805 639.863 683.734 598.264 718.931 613.195C754.128 628.126 766.925 669.725 766.925 669.725H562.145Z" fill="url(#paint13_linear_29_1505)"/>
<path d="M587.508 527.007C585.076 527.01 582.744 527.978 581.024 529.698C579.304 531.418 578.337 533.749 578.333 536.181H576.294C576.294 533.207 577.476 530.355 579.579 528.252C581.682 526.149 584.534 524.968 587.508 524.968C590.482 524.968 593.334 526.149 595.437 528.252C597.54 530.355 598.721 533.207 598.721 536.181H596.683C596.679 533.749 595.711 531.418 593.991 529.698C592.271 527.978 589.94 527.01 587.508 527.007Z" fill="url(#paint14_linear_29_1505)"/>
<path d="M473.666 394.958L475.807 395.55C477.307 393.837 479.338 392.675 481.575 392.251C483.812 391.826 486.126 392.162 488.15 393.206C490.174 394.25 491.789 395.942 492.74 398.011C493.69 400.08 493.92 402.408 493.394 404.623C492.867 406.839 491.614 408.814 489.834 410.234C488.054 411.654 485.85 412.438 483.573 412.46C481.296 412.481 479.078 411.74 477.271 410.354C475.464 408.968 474.174 407.017 473.605 404.813L471.396 404.201C471.842 406.989 473.239 409.536 475.349 411.411C477.459 413.286 480.153 414.374 482.973 414.49C485.794 414.606 488.568 413.743 490.825 412.047C493.081 410.351 494.682 407.927 495.355 405.185C496.029 402.444 495.733 399.554 494.519 397.005C493.304 394.457 491.246 392.407 488.693 391.203C486.139 389.999 483.248 389.715 480.509 390.4C477.771 391.084 475.353 392.695 473.666 394.958Z" fill="url(#paint15_linear_29_1505)"/>
<path d="M564.285 230.194C563.485 229.711 562.806 229.051 562.303 228.263C561.8 227.476 561.485 226.583 561.383 225.654L561.234 224.369C561.164 223.717 560.939 223.091 560.576 222.545C560.213 221.999 559.723 221.548 559.149 221.231C558.575 220.914 557.932 220.741 557.277 220.725C556.621 220.709 555.971 220.852 555.383 221.141C554.49 221.576 553.506 221.787 552.514 221.757C551.522 221.726 550.552 221.455 549.688 220.966C548.825 220.477 548.093 219.785 547.557 218.95C547.02 218.115 546.695 217.162 546.609 216.173L546.493 214.862C546.441 214.239 546.247 213.636 545.925 213.101C545.603 212.565 545.162 212.111 544.637 211.772C544.111 211.434 543.515 211.221 542.894 211.15C542.274 211.079 541.645 211.151 541.056 211.361L540.377 209.431C541.257 209.123 542.196 209.021 543.121 209.131C544.047 209.241 544.936 209.562 545.718 210.068C546.501 210.574 547.158 211.253 547.639 212.052C548.119 212.851 548.411 213.749 548.491 214.678L548.607 215.983C548.662 216.644 548.877 217.282 549.235 217.841C549.593 218.4 550.081 218.864 550.658 219.191C551.236 219.519 551.884 219.7 552.548 219.72C553.211 219.74 553.869 219.598 554.465 219.306C555.347 218.876 556.319 218.665 557.3 218.69C558.28 218.714 559.24 218.975 560.099 219.448C560.958 219.922 561.691 220.596 562.235 221.412C562.779 222.228 563.118 223.163 563.225 224.138L563.375 225.423C563.444 226.066 563.665 226.683 564.02 227.223C564.375 227.764 564.853 228.213 565.415 228.532C565.978 228.851 566.608 229.032 567.254 229.06C567.9 229.088 568.543 228.961 569.131 228.692L569.6 228.481C570.473 228.083 571.428 227.897 572.387 227.936C573.346 227.976 574.282 228.241 575.12 228.709C575.957 229.178 576.673 229.837 577.209 230.633C577.744 231.429 578.085 232.34 578.204 233.293L576.165 233.558C576.087 232.921 575.861 232.312 575.503 231.78C575.146 231.247 574.669 230.807 574.109 230.494C573.55 230.18 572.924 230.004 572.284 229.977C571.643 229.951 571.005 230.077 570.422 230.343L569.953 230.554C569.073 230.951 568.11 231.134 567.145 231.088C566.18 231.042 565.24 230.768 564.401 230.289L564.285 230.194Z" fill="white"/>
<path d="M976.925 173.609C974.493 173.606 972.161 172.638 970.441 170.918C968.721 169.198 967.754 166.867 967.75 164.434H965.711C965.711 167.408 966.893 170.261 968.996 172.364C971.099 174.467 973.951 175.648 976.925 175.648C979.899 175.648 982.751 174.467 984.854 172.364C986.957 170.261 988.138 167.408 988.138 164.434H986.1C986.096 166.867 985.128 169.198 983.408 170.918C981.688 172.638 979.357 173.606 976.925 173.609Z" fill="white"/>
<path d="M967.927 548.414H937.664L953.295 524.417L967.927 548.414ZM942.53 545.777H963.231L953.24 529.385L942.53 545.777Z" fill="url(#paint16_linear_29_1505)"/>
<path d="M1056.94 369.881C1056.08 370.245 1055.15 370.409 1054.22 370.358C1053.29 370.307 1052.38 370.044 1051.57 369.589L1050.43 368.957C1049.86 368.634 1049.22 368.454 1048.57 368.431C1047.91 368.408 1047.26 368.544 1046.67 368.826C1046.08 369.108 1045.56 369.528 1045.17 370.051C1044.77 370.574 1044.51 371.185 1044.4 371.831C1044.24 372.811 1043.83 373.735 1043.23 374.523C1042.63 375.312 1041.84 375.942 1040.94 376.358C1040.03 376.774 1039.04 376.965 1038.05 376.912C1037.06 376.86 1036.1 376.567 1035.24 376.058L1034.11 375.379C1033.58 375.059 1032.98 374.866 1032.36 374.815C1031.74 374.763 1031.11 374.855 1030.53 375.083C1029.95 375.31 1029.43 375.668 1029.01 376.128C1028.59 376.588 1028.28 377.139 1028.11 377.737L1026.16 377.153C1026.42 376.259 1026.88 375.437 1027.51 374.75C1028.14 374.064 1028.92 373.53 1029.79 373.189C1030.66 372.849 1031.59 372.712 1032.52 372.787C1033.45 372.863 1034.35 373.149 1035.15 373.625L1036.28 374.305C1036.85 374.646 1037.5 374.843 1038.16 374.878C1038.82 374.914 1039.48 374.786 1040.09 374.508C1040.69 374.229 1041.22 373.807 1041.62 373.279C1042.02 372.751 1042.29 372.133 1042.4 371.478C1042.56 370.511 1042.96 369.598 1043.55 368.815C1044.14 368.033 1044.91 367.404 1045.8 366.983C1046.68 366.561 1047.66 366.358 1048.64 366.392C1049.62 366.426 1050.58 366.694 1051.43 367.176L1052.57 367.808C1053.13 368.126 1053.76 368.305 1054.4 368.332C1055.05 368.359 1055.69 368.232 1056.28 367.962C1056.86 367.692 1057.38 367.286 1057.78 366.779C1058.18 366.271 1058.45 365.676 1058.57 365.042L1058.67 364.539C1058.86 363.597 1059.27 362.712 1059.86 361.955C1060.45 361.198 1061.21 360.592 1062.08 360.184C1062.95 359.776 1063.9 359.579 1064.86 359.608C1065.82 359.638 1066.76 359.893 1067.61 360.353L1066.64 362.147C1066.08 361.837 1065.45 361.665 1064.81 361.644C1064.17 361.624 1063.53 361.755 1062.95 362.027C1062.36 362.299 1061.86 362.705 1061.46 363.211C1061.07 363.717 1060.8 364.31 1060.67 364.94L1060.57 365.443C1060.39 366.392 1059.98 367.283 1059.38 368.041C1058.78 368.799 1058.01 369.402 1057.13 369.799L1056.94 369.881Z" fill="white"/>
<path d="M623.187 183.803C639.89 183.803 653.43 170.263 653.43 153.561C653.43 136.858 639.89 123.318 623.187 123.318C606.485 123.318 592.945 136.858 592.945 153.561C592.945 170.263 606.485 183.803 623.187 183.803Z" fill="url(#paint17_linear_29_1505)"/>
<path d="M616.146 171.38L603.172 157.169C602.639 156.584 602.359 155.811 602.395 155.02C602.43 154.229 602.779 153.484 603.363 152.949C603.652 152.684 603.991 152.479 604.36 152.345C604.729 152.211 605.12 152.151 605.512 152.169C605.905 152.186 606.289 152.281 606.645 152.448C607 152.614 607.319 152.849 607.583 153.139L616.241 162.654L637.636 140.227C637.906 139.943 638.229 139.715 638.588 139.556C638.946 139.397 639.333 139.31 639.725 139.301C640.117 139.292 640.507 139.359 640.872 139.501C641.238 139.642 641.572 139.854 641.856 140.125C642.429 140.673 642.761 141.426 642.779 142.219C642.797 143.011 642.499 143.779 641.951 144.352L616.146 171.38Z" fill="white"/>
<path d="M814.348 114.143C814.353 109.745 813.204 105.422 811.015 101.607C808.827 97.7912 805.677 94.6164 801.878 92.3993C798.079 90.1822 793.765 89.0003 789.367 88.9715C784.969 88.9428 780.64 90.0682 776.812 92.2355C772.985 94.4027 769.793 97.536 767.555 101.322C765.317 105.109 764.112 109.416 764.059 113.814C764.006 118.212 765.108 122.547 767.254 126.387C769.4 130.226 772.516 133.435 776.29 135.694C778.002 137.365 779.026 139.618 779.158 142.007H798.71C798.71 142.007 798.935 138.317 801.429 136.067C805.338 133.892 808.596 130.714 810.867 126.86C813.138 123.006 814.339 118.616 814.348 114.143Z" fill="url(#paint18_linear_29_1505)"/>
<path d="M779.036 153.166V140.988H798.867V153.166C798.867 154.469 798.61 155.758 798.111 156.962C797.612 158.165 796.881 159.258 795.96 160.178C795.038 161.098 793.944 161.828 792.741 162.325C791.537 162.822 790.247 163.077 788.945 163.075C786.317 163.075 783.796 162.031 781.938 160.173C780.08 158.315 779.036 155.794 779.036 153.166Z" fill="url(#paint19_linear_29_1505)"/>
<path d="M803.882 112.064C803.622 110.932 803.22 109.839 802.686 108.808L803.869 106.26L800.117 102.379L797.508 103.405C796.515 102.808 795.445 102.351 794.327 102.046L793.484 99.3277L788.047 99.1714L786.96 101.808C785.829 102.068 784.735 102.47 783.705 103.004L781.197 101.822L777.31 105.485L778.343 108.095C777.742 109.086 777.284 110.156 776.983 111.275L774.265 112.206L774.102 117.643L776.739 118.731C777 119.864 777.402 120.959 777.935 121.993L776.759 124.534L780.517 128.415L783.127 127.389C784.116 127.992 785.188 128.45 786.308 128.748L787.239 131.466L792.574 131.623L793.661 128.986C794.794 128.725 795.89 128.323 796.923 127.79L799.465 128.972L803.441 125.309L802.408 122.706C803.006 121.714 803.463 120.644 803.767 119.526L806.485 118.588L806.648 113.151L803.882 112.064ZM790.032 121.972C788.721 121.938 787.449 121.516 786.379 120.758C785.308 120.001 784.486 118.943 784.017 117.718C783.548 116.494 783.453 115.157 783.743 113.879C784.034 112.6 784.698 111.436 785.651 110.535C786.604 109.634 787.802 109.035 789.095 108.816C790.388 108.596 791.717 108.765 792.914 109.302C794.111 109.838 795.122 110.717 795.818 111.828C796.515 112.939 796.866 114.232 796.828 115.543C796.806 116.412 796.612 117.268 796.259 118.062C795.905 118.856 795.398 119.573 794.766 120.17C794.134 120.768 793.391 121.234 792.579 121.544C791.766 121.853 790.901 121.999 790.032 121.972Z" fill="white"/>
<path d="M714.887 163.558L724.646 157.346C724.646 157.346 737.07 149.361 742.398 160.01C747.726 170.66 738.843 181.302 738.843 181.302C738.843 181.302 730.858 198.163 733.522 204.375C736.186 210.587 753.91 223.01 739.734 245.193C725.557 267.375 714.887 271.813 714.887 271.813C714.887 271.813 701.573 175.091 714.887 163.558Z" fill="url(#paint20_linear_29_1505)"/>
<path d="M813.404 581.26L809.91 597.577L808.008 606.48L789.712 602.606L791.575 588.906L793.029 578.236L813.404 581.26Z" fill="url(#paint21_linear_29_1505)"/>
<path d="M784.438 611.496L789.936 599.609C789.936 599.609 799.295 608.336 808.748 603.008L835.566 627.929C835.88 628.218 836.086 628.606 836.15 629.029C836.214 629.451 836.132 629.883 835.917 630.252C835.702 630.622 835.368 630.907 834.969 631.06C834.57 631.214 834.131 631.226 833.724 631.096L786.593 616.375C786.11 616.226 785.664 615.975 785.287 615.639C784.909 615.302 784.608 614.889 784.404 614.427C784.2 613.964 784.097 613.463 784.103 612.957C784.109 612.452 784.223 611.953 784.438 611.496Z" fill="url(#paint22_linear_29_1505)"/>
<path d="M723.307 438.589L705.76 444.74L698.964 447.118L692.745 429.476L705.76 423.781L715.274 419.621L723.307 438.589Z" fill="url(#paint23_linear_29_1505)"/>
<path d="M682.409 429.605L695.416 428.123C695.416 428.123 692.841 440.662 702.308 445.963L694.995 481.867C694.907 482.282 694.681 482.654 694.354 482.925C694.028 483.195 693.62 483.347 693.196 483.357C692.772 483.366 692.357 483.232 692.019 482.977C691.681 482.721 691.439 482.359 691.332 481.948L679.384 433.995C679.259 433.506 679.239 432.995 679.328 432.498C679.416 432 679.61 431.528 679.897 431.112C680.184 430.695 680.556 430.346 680.989 430.086C681.423 429.826 681.907 429.662 682.409 429.605Z" fill="url(#paint24_linear_29_1505)"/>
<path d="M827.234 216.343C827.234 216.343 829.408 225.674 830.027 228.352C830.94 232.578 830.419 236.987 828.545 240.884C828.545 240.884 789.039 291.222 762.079 279.846L753.924 276.006L737.878 268.415L753.333 243.684C755.377 246.236 757.607 248.632 760.007 250.854C766.123 256.508 775.271 262.726 782.658 258.051C794.891 250.31 816.455 234.509 816.455 234.509L816.149 212.938C819.547 210.533 823.548 209.121 827.703 208.86L840.69 216.085C840.69 216.085 835.491 219.483 827.234 216.343Z" fill="url(#paint25_linear_29_1505)"/>
<path d="M723.308 438.589L705.76 444.74V423.781L715.275 419.621L723.308 438.589Z" fill="#FFCDD7"/>
<path d="M759.986 250.854L753.938 275.999L737.878 268.415L753.333 243.684C755.37 246.235 757.594 248.632 759.986 250.854Z" fill="#FFCDD7"/>
<path d="M806.342 420.648C796.393 423.862 788.55 432.289 780.198 435.15C770.255 438.549 761.454 441.702 753.856 444.475C730.192 453.153 717.884 458.522 717.884 458.522L705.943 422.618L744.287 406.865L754.638 402.617L781.876 391.424L722.75 314.628C722.75 314.628 802.353 341.432 831.848 355.058C861.343 368.685 862.166 383.174 862.166 383.174C862.166 383.174 864.836 401.775 806.342 420.648Z" fill="url(#paint26_linear_29_1505)"/>
<path opacity="0.25" d="M740.685 326.555C740.685 326.555 818.025 363.581 819.724 375.712C822.089 392.654 799.757 413.09 799.757 413.09L740.685 326.555Z" fill="#171321"/>
<path d="M813.404 581.26L809.91 597.577L791.574 588.906L793.029 578.236L813.404 581.26Z" fill="#FFCDD7"/>
<path opacity="0.35" d="M780.164 435.157C770.221 438.555 762.31 441.389 754.706 444.162C755.446 431.365 747.128 412.574 744.253 406.872L754.604 402.624L780.164 435.157Z" fill="#171321"/>
<path d="M760.53 249.488L731.354 223.057L725.299 266.301L744.817 273.947L760.53 249.488Z" fill="url(#paint27_linear_29_1505)"/>
<path d="M713.236 232.232L714.282 208.31C714.282 208.31 732.781 225.647 739.061 194.337L743.689 193.875C743.689 193.875 741.616 186.549 740.291 179.984C739.686 176.966 740.236 174.112 739.428 172.202C738.069 168.967 731.021 162.654 731.021 162.654L698.162 173.33L698.692 192.04L694.737 229.018L713.236 232.232Z" fill="url(#paint28_linear_29_1505)"/>
<path d="M828.64 594.56L791.065 588.205C791.065 588.205 784.717 481.738 775.76 436.958C773.721 426.764 763.975 415.836 743.023 399.328C729.546 388.706 709.77 380.693 709.77 380.693C707.248 379.606 704.856 378.478 702.579 377.343C691.59 371.906 673.818 361.487 672.507 355.208C672.417 354.827 672.401 354.432 672.459 354.046C678.127 318.577 665.513 304.645 665.513 304.645L721.303 292.296L749.255 324.652L758.769 335.615L761.107 338.333L812.411 386.708C840.323 444.434 828.64 594.56 828.64 594.56Z" fill="url(#paint29_linear_29_1505)"/>
<path opacity="0.25" d="M743.023 399.328C729.546 388.706 709.77 380.693 709.77 380.693C707.248 379.606 704.856 378.478 702.579 377.343C691.59 371.906 673.818 361.487 672.507 355.208L688.314 344.789L749.255 324.653L758.77 335.615C758.77 335.615 724.599 365.81 743.023 399.328Z" fill="#171321"/>
<path d="M752.83 324.952C752.83 324.952 745.911 340.372 733.624 340.8C716.049 341.391 700.072 357.831 689.531 360.047C681.749 361.685 657.249 350.376 657.249 350.376C661.327 339.502 661.884 320.113 661.327 302.375C660.933 291.291 660.124 280.852 659.451 273.553C658.874 267.259 658.384 263.304 658.384 263.304L638.173 237.024C646.477 228.617 656.305 221.515 664.915 217.736C673.828 213.811 683.527 212.002 693.255 212.449C706.922 230.302 714.391 218.151 714.391 218.151L732.414 223.527C723.097 294.39 752.83 324.952 752.83 324.952Z" fill="url(#paint30_linear_29_1505)"/>
<path d="M712.529 249.698L708.608 280.505L703.076 279.792L707.772 249.155L712.529 249.698Z" fill="url(#paint31_linear_29_1505)"/>
<path d="M705.257 285.208L703.076 279.791L708.608 280.505L705.257 285.208Z" fill="url(#paint32_linear_29_1505)"/>
<path d="M701.268 270.494C701.268 270.494 699.494 276.611 693.167 275.931C691.617 275.755 685.582 283.978 678.215 300.547C671.011 316.749 662.707 338.68 657.236 350.376C661.313 339.502 661.871 320.113 661.313 302.375C660.919 291.29 660.11 280.852 659.438 273.553L708.675 256.562C708.675 256.562 705.76 271.174 701.268 270.494Z" fill="url(#paint33_linear_29_1505)"/>
<path d="M717.415 257.541C717.05 258.378 716.432 259.08 715.649 259.55C714.866 260.02 713.956 260.235 713.045 260.164C711.531 260.055 710.036 259.749 708.601 259.254C708.601 259.254 709.144 264.758 704.095 263.522C704.095 263.522 703.211 268.89 698.658 268.034C698.658 268.034 698.984 273.281 692.27 272.465C688.734 272.101 685.242 271.391 681.844 270.345C681.844 270.345 629.922 315.573 613.075 300.676C601.413 290.366 624.9 259.009 640.708 240.911L641.007 240.564C641.496 240.007 658.371 263.263 658.371 263.263L656.76 264.623L655.469 265.717C655.469 265.717 690.618 249.712 706.732 252.682L717.415 257.541Z" fill="url(#paint34_linear_29_1505)"/>
<path d="M689.837 190.81C684.924 195.19 681.546 201.031 680.2 207.474C679.079 212.558 672.887 216.166 667.586 220.808C656.815 230.241 659.39 247.476 673.479 255.373C680.839 259.498 705.121 254.972 709.43 238.614C713.739 222.256 710.701 216.907 710.701 216.907C710.701 216.907 717.755 204.864 715.173 197.117C715.173 197.117 706.956 189.709 713.888 185.951C713.888 185.951 729.438 177.034 731.157 171.869C731.157 171.869 728.575 180.48 723.41 184.782C723.41 184.782 743.927 178.366 741.344 162.008C741.344 162.008 719.502 134.579 695.002 163.259C690.448 168.587 685.528 176.171 689.837 190.81Z" fill="url(#paint35_linear_29_1505)"/>
<path d="M658.364 263.29L656.753 264.65L633.381 280.41C635.978 278.521 652.458 265.696 645.275 249.386C644.466 247.551 642.352 243.806 640.701 240.938L641 240.591C641.489 240.034 658.364 263.29 658.364 263.29Z" fill="#FFCDD7"/>
<path d="M701 83C506.5 103 275.5 10.5 196 -29.5L1658.5 -67V314.5C1621 263.5 1559 208.5 1451 195.5C1343 182.5 1188.5 178 1098 111.5C1007.5 45 895.5 63 701 83Z" fill="#30E688"/>
<path d="M746.667 69.6363C551.559 82.4084 324.149 -18.5958 246.187 -61.517L1709.07 -44.7463L1694.92 336.491C1659.34 284.135 1599.42 226.874 1491.98 209.877C1384.53 192.88 1230.31 182.653 1142.34 112.842C1054.37 43.0307 941.775 56.8642 746.667 69.6363Z" fill="#1CDB79"/>
</g>
<defs>
<linearGradient id="paint0_linear_29_1505" x1="783.5" y1="-110.5" x2="781.429" y2="869.454" gradientUnits="userSpaceOnUse">
<stop stop-color="#41FB97"/>
<stop offset="0.742708" stop-color="#10DC74"/>
<stop offset="1" stop-color="#09A757"/>
</linearGradient>
<linearGradient id="paint1_linear_29_1505" x1="1316.15" y1="695.583" x2="1328.91" y2="695.583" gradientUnits="userSpaceOnUse">
<stop stop-color="white"/>
<stop offset="1" stop-color="white" stop-opacity="0.82"/>
</linearGradient>
<linearGradient id="paint2_linear_29_1505" x1="1328.91" y1="709.924" x2="1367.2" y2="709.924" gradientUnits="userSpaceOnUse">
<stop stop-color="white"/>
<stop offset="1" stop-color="white" stop-opacity="0.82"/>
</linearGradient>
<linearGradient id="paint3_linear_29_1505" x1="1329.13" y1="681.182" x2="1367.1" y2="681.182" gradientUnits="userSpaceOnUse">
<stop stop-color="white"/>
<stop offset="1" stop-color="white" stop-opacity="0.82"/>
</linearGradient>
<linearGradient id="paint4_linear_29_1505" x1="936.909" y1="428.572" x2="866.23" y2="386.436" gradientUnits="userSpaceOnUse">
<stop stop-color="#29056B"/>
<stop offset="1" stop-color="#6C93F5"/>
</linearGradient>
<linearGradient id="paint5_linear_29_1505" x1="868.452" y1="209.948" x2="907.55" y2="209.948" gradientUnits="userSpaceOnUse">
<stop stop-color="#29056B"/>
<stop offset="1" stop-color="#6C93F5"/>
</linearGradient>
<linearGradient id="paint6_linear_29_1505" x1="845.699" y1="212.442" x2="946.05" y2="397.5" gradientUnits="userSpaceOnUse">
<stop stop-color="#FA655C"/>
<stop offset="1" stop-color="#FFBF8A"/>
</linearGradient>
<linearGradient id="paint7_linear_29_1505" x1="1096.62" y1="603.346" x2="1055.51" y2="655.035" gradientUnits="userSpaceOnUse">
<stop stop-color="#AB53FF"/>
<stop offset="1" stop-color="#CF87FF"/>
</linearGradient>
<linearGradient id="paint8_linear_29_1505" x1="1052.24" y1="641.344" x2="1082.27" y2="571.362" gradientUnits="userSpaceOnUse">
<stop stop-color="#64D7FD"/>
<stop offset="1" stop-color="#6577FF"/>
</linearGradient>
<linearGradient id="paint9_linear_29_1505" x1="1163.82" y1="629.193" x2="902.847" y2="629.193" gradientUnits="userSpaceOnUse">
<stop stop-color="#29056B"/>
<stop offset="1" stop-color="#6C93F5"/>
</linearGradient>
<linearGradient id="paint10_linear_29_1505" x1="720.434" y1="169.573" x2="679.314" y2="221.266" gradientUnits="userSpaceOnUse">
<stop stop-color="#AB53FF"/>
<stop offset="1" stop-color="#CF87FF"/>
</linearGradient>
<linearGradient id="paint11_linear_29_1505" x1="520.094" y1="636.75" x2="476.359" y2="557.666" gradientUnits="userSpaceOnUse">
<stop stop-color="#64D7FD"/>
<stop offset="1" stop-color="#6577FF"/>
</linearGradient>
<linearGradient id="paint12_linear_29_1505" x1="737.783" y1="621.765" x2="456.397" y2="619.726" gradientUnits="userSpaceOnUse">
<stop stop-color="#29056B"/>
<stop offset="1" stop-color="#6C93F5"/>
</linearGradient>
<linearGradient id="paint13_linear_29_1505" x1="753.296" y1="265.096" x2="932.609" y2="364" gradientUnits="userSpaceOnUse">
<stop stop-color="#64D7FD"/>
<stop offset="1" stop-color="#6577FF"/>
</linearGradient>
<linearGradient id="paint14_linear_29_1505" x1="576.294" y1="530.575" x2="598.721" y2="530.575" gradientUnits="userSpaceOnUse">
<stop stop-color="#FA655C"/>
<stop offset="1" stop-color="#FFBF8A"/>
</linearGradient>
<linearGradient id="paint15_linear_29_1505" x1="480.596" y1="414.166" x2="487.15" y2="390.594" gradientUnits="userSpaceOnUse">
<stop stop-color="#1EB5E7"/>
<stop offset="1" stop-color="#152CD7"/>
</linearGradient>
<linearGradient id="paint16_linear_29_1505" x1="976.054" y1="160.262" x2="1001.9" y2="175.998" gradientUnits="userSpaceOnUse">
<stop stop-color="#C681E6"/>
<stop offset="1" stop-color="#7057E4"/>
</linearGradient>
<linearGradient id="paint17_linear_29_1505" x1="599.5" y1="175.5" x2="656" y2="128" gradientUnits="userSpaceOnUse">
<stop stop-color="#925CC9"/>
<stop offset="1" stop-color="#DAB9FC"/>
</linearGradient>
<linearGradient id="paint18_linear_29_1505" x1="764.084" y1="115.509" x2="814.348" y2="115.509" gradientUnits="userSpaceOnUse">
<stop stop-color="#FA655C"/>
<stop offset="1" stop-color="#FFBF8A"/>
</linearGradient>
<linearGradient id="paint19_linear_29_1505" x1="779.036" y1="152.032" x2="798.853" y2="152.032" gradientUnits="userSpaceOnUse">
<stop stop-color="#2B233C"/>
<stop offset="1" stop-color="#635C70"/>
</linearGradient>
<linearGradient id="paint20_linear_29_1505" x1="736.709" y1="160.255" x2="721.914" y2="231.023" gradientUnits="userSpaceOnUse">
<stop stop-color="#2B233C"/>
<stop offset="1" stop-color="#635C70"/>
</linearGradient>
<linearGradient id="paint21_linear_29_1505" x1="801.558" y1="578.236" x2="801.558" y2="606.48" gradientUnits="userSpaceOnUse">
<stop stop-color="white"/>
<stop offset="1" stop-color="#FFD0D0"/>
</linearGradient>
<linearGradient id="paint22_linear_29_1505" x1="796.781" y1="628.898" x2="819.579" y2="609.254" gradientUnits="userSpaceOnUse">
<stop stop-color="#2B233C"/>
<stop offset="1" stop-color="#635C70"/>
</linearGradient>
<linearGradient id="paint23_linear_29_1505" x1="708.026" y1="419.621" x2="708.026" y2="447.118" gradientUnits="userSpaceOnUse">
<stop stop-color="white"/>
<stop offset="1" stop-color="#FFD0D0"/>
</linearGradient>
<linearGradient id="paint24_linear_29_1505" x1="673.921" y1="449.204" x2="702.562" y2="458.439" gradientUnits="userSpaceOnUse">
<stop stop-color="#2B233C"/>
<stop offset="1" stop-color="#635C70"/>
</linearGradient>
<linearGradient id="paint25_linear_29_1505" x1="789.284" y1="208.86" x2="789.284" y2="281.52" gradientUnits="userSpaceOnUse">
<stop stop-color="white"/>
<stop offset="1" stop-color="#FFD0D0"/>
</linearGradient>
<linearGradient id="paint26_linear_29_1505" x1="697.228" y1="372.626" x2="840.126" y2="435.503" gradientUnits="userSpaceOnUse">
<stop stop-color="#2B233C"/>
<stop offset="1" stop-color="#726885"/>
</linearGradient>
<linearGradient id="paint27_linear_29_1505" x1="756.5" y1="254.5" x2="728.5" y2="238.5" gradientUnits="userSpaceOnUse">
<stop stop-color="#64D7FD"/>
<stop offset="1" stop-color="#6577FF"/>
</linearGradient>
<linearGradient id="paint28_linear_29_1505" x1="719.213" y1="162.654" x2="719.213" y2="232.232" gradientUnits="userSpaceOnUse">
<stop stop-color="white"/>
<stop offset="0.788022" stop-color="#FFD0D0"/>
</linearGradient>
<linearGradient id="paint29_linear_29_1505" x1="665.513" y1="443.428" x2="831.066" y2="443.428" gradientUnits="userSpaceOnUse">
<stop stop-color="#2B233C"/>
<stop offset="1" stop-color="#817990"/>
</linearGradient>
<linearGradient id="paint30_linear_29_1505" x1="789" y1="249.5" x2="655" y2="360" gradientUnits="userSpaceOnUse">
<stop stop-color="#78DBFC"/>
<stop offset="1" stop-color="#5A6DFF"/>
</linearGradient>
<linearGradient id="paint31_linear_29_1505" x1="702.011" y1="262.214" x2="714.272" y2="267.608" gradientUnits="userSpaceOnUse">
<stop stop-color="#2B233C"/>
<stop offset="1" stop-color="#635C70"/>
</linearGradient>
<linearGradient id="paint32_linear_29_1505" x1="702.552" y1="280.947" x2="707.453" y2="283.104" gradientUnits="userSpaceOnUse">
<stop stop-color="#2B233C"/>
<stop offset="1" stop-color="#635C70"/>
</linearGradient>
<linearGradient id="paint33_linear_29_1505" x1="691.5" y1="292.5" x2="639" y2="311" gradientUnits="userSpaceOnUse">
<stop stop-color="#6ED1F1"/>
<stop offset="1" stop-color="#3D7FE1"/>
</linearGradient>
<linearGradient id="paint34_linear_29_1505" x1="663.677" y1="240.554" x2="663.677" y2="303.687" gradientUnits="userSpaceOnUse">
<stop stop-color="white"/>
<stop offset="1" stop-color="#FFD0D0"/>
</linearGradient>
<linearGradient id="paint35_linear_29_1505" x1="717.334" y1="160.866" x2="683.102" y2="243.663" gradientUnits="userSpaceOnUse">
<stop stop-color="#2B233C"/>
<stop offset="1" stop-color="#635C70"/>
</linearGradient>
<clipPath id="clip0_29_1505">
<rect width="1600" height="760" fill="white"/>
</clipPath>
<clipPath id="clip1_29_1505">
<rect width="243.087" height="57.5294" fill="white" transform="translate(1316.15 666.735)"/>
</clipPath>
</defs>
</svg>
