<svg width="1600" height="760" viewBox="0 0 1600 760" fill="none" xmlns="http://www.w3.org/2000/svg">
<g clip-path="url(#clip0_49_393)">
<rect width="1600" height="760" fill="white"/>
<rect width="1600" height="760" fill="url(#paint0_linear_49_393)"/>
<g clip-path="url(#clip1_49_393)">
<path d="M1391.38 704.81C1389.78 704.857 1388.21 704.457 1386.84 703.655C1385.58 702.88 1384.57 701.757 1383.94 700.421C1383.24 698.917 1382.89 697.273 1382.93 695.614C1382.89 693.954 1383.24 692.308 1383.94 690.802C1384.57 689.467 1385.58 688.344 1386.84 687.569C1388.21 686.767 1389.78 686.366 1391.38 686.413C1393.19 686.347 1394.98 686.882 1396.47 687.938C1397.84 688.968 1398.85 690.409 1399.34 692.052L1396.36 692.875C1396.08 691.814 1395.46 690.87 1394.61 690.177C1393.67 689.496 1392.53 689.158 1391.38 689.219C1390.33 689.18 1389.3 689.458 1388.41 690.015C1387.61 690.568 1386.99 691.352 1386.64 692.264C1386.22 693.342 1386.01 694.49 1386.03 695.645C1386 696.799 1386.21 697.947 1386.62 699.023C1386.98 699.938 1387.61 700.722 1388.42 701.271C1389.31 701.828 1390.34 702.106 1391.39 702.067C1392.54 702.118 1393.68 701.772 1394.6 701.087C1395.46 700.393 1396.07 699.449 1396.36 698.389L1399.34 699.171C1398.85 700.812 1397.85 702.253 1396.48 703.286C1395 704.345 1393.2 704.881 1391.38 704.81Z" fill="white"/>
<path d="M1402.59 704.446V686.778H1409.88C1410.06 686.778 1410.28 686.778 1410.55 686.778C1410.8 686.789 1411.05 686.816 1411.3 686.859C1412.22 686.973 1413.09 687.325 1413.83 687.879C1414.49 688.396 1415.01 689.079 1415.32 689.858C1415.65 690.705 1415.81 691.607 1415.8 692.516C1415.83 693.836 1415.45 695.134 1414.71 696.226C1414.31 696.759 1413.81 697.204 1413.23 697.534C1412.66 697.865 1412.02 698.073 1411.36 698.146L1410.1 698.254H1405.55V704.446H1402.59ZM1405.55 695.515H1409.76C1409.93 695.515 1410.11 695.515 1410.32 695.488C1410.51 695.476 1410.7 695.442 1410.88 695.389C1411.32 695.297 1411.73 695.071 1412.04 694.742C1412.32 694.44 1412.52 694.079 1412.64 693.685C1412.75 693.312 1412.81 692.924 1412.82 692.534C1412.81 692.141 1412.76 691.75 1412.64 691.374C1412.52 690.978 1412.32 690.615 1412.04 690.312C1411.73 689.986 1411.32 689.762 1410.88 689.669C1410.69 689.622 1410.51 689.591 1410.32 689.579C1410.11 689.579 1409.93 689.579 1409.76 689.579H1405.55V695.515ZM1412.74 704.446L1409.26 697.251L1412.26 696.59L1416.09 704.442L1412.74 704.446Z" fill="white"/>
<path d="M1419.35 704.446V686.778H1430.76V689.552H1422.3V693.905H1429.28V696.68H1422.3V701.672H1430.76V704.446H1419.35Z" fill="white"/>
<path d="M1433.04 704.446L1438.6 686.778H1442.93L1448.5 704.446H1445.46L1440.41 688.595H1441.07L1436.08 704.446H1433.04ZM1436.14 700.615V697.858H1445.41V700.615H1436.14Z" fill="white"/>
<path d="M1454.05 704.446V689.552H1448.33V686.778H1462.72V689.552H1457V704.446H1454.05Z" fill="white"/>
<path d="M1465.49 704.446V686.778H1468.45V704.446H1465.49Z" fill="white"/>
<path d="M1476.69 704.446L1471.1 686.778H1474.14L1478.8 701.573L1483.53 686.778H1486.58L1481 704.446H1476.69Z" fill="white"/>
<path d="M1488.97 704.446V686.778H1500.38V689.552H1491.93V693.905H1498.91V696.68H1491.93V701.672H1500.38V704.446H1488.97Z" fill="white"/>
<path d="M1504.12 704.446V686.778H1507.08V704.446H1504.12Z" fill="white"/>
<path d="M1515.58 704.446V689.552H1509.87V686.778H1524.26V689.552H1518.54V704.446H1515.58Z" fill="white"/>
<path d="M1526.78 704.446V686.778H1538.19V689.552H1529.76V693.905H1536.73V696.68H1529.76V701.672H1538.21V704.446H1526.78Z" fill="white"/>
<path d="M1541.7 704.446V686.778H1544.36L1550.47 699.293L1556.58 686.778H1559.24V704.446H1556.48V693.123L1551.06 704.446H1549.88L1544.48 693.123V704.446H1541.7Z" fill="white"/>
<path d="M1341.68 710.319L1328.91 702.949V717.685L1341.68 710.319Z" fill="white" fill-opacity="0.48"/>
<path d="M1367.2 695.583L1354.43 688.217V702.949L1367.2 695.583Z" fill="white" fill-opacity="0.47"/>
<path d="M1341.68 680.846L1328.91 673.48V688.217L1341.68 680.846Z" fill="white" fill-opacity="0.48"/>
<path d="M1328.91 673.48L1318.7 679.376C1317.93 679.822 1317.28 680.466 1316.83 681.243C1316.38 682.019 1316.15 682.9 1316.15 683.796V707.369C1316.15 708.266 1316.39 709.148 1316.83 709.924C1317.28 710.701 1317.93 711.346 1318.7 711.794L1328.91 717.685V673.48Z" fill="url(#paint1_linear_49_393)"/>
<path d="M1367.2 707.369V695.583L1328.91 717.685L1339.12 723.581C1339.9 724.029 1340.78 724.265 1341.67 724.265C1342.57 724.265 1343.45 724.029 1344.22 723.581L1364.65 711.794C1365.42 711.345 1366.07 710.7 1366.51 709.923C1366.96 709.146 1367.2 708.266 1367.2 707.369Z" fill="url(#paint2_linear_49_393)"/>
<path d="M1344.32 667.634C1343.55 667.19 1342.68 666.956 1341.79 666.956C1340.9 666.956 1340.03 667.19 1339.26 667.634L1329.13 673.48L1367.1 695.407V683.715C1367.1 682.826 1366.87 681.952 1366.42 681.182C1365.98 680.411 1365.34 679.771 1364.57 679.326L1344.32 667.634Z" fill="url(#paint3_linear_49_393)"/>
</g>
<path d="M918.675 392.736C930.661 371.169 943.875 352.467 949.807 327.94C952.136 318.061 953.486 307.891 957.082 298.417C960.678 288.944 967.026 279.918 976.358 275.925C986.84 271.414 999.385 273.89 1009.72 269.057C1016.42 265.94 1021.38 260.136 1026.96 255.312C1039.23 244.725 1054.69 238.726 1069.82 232.919C1093.27 223.937 1118.28 214.792 1142.93 219.917C1156.96 222.846 1169.64 230.312 1181.5 238.313C1189.01 243.433 1196.52 249.082 1200.58 257.329C1203.02 261.992 1203.76 267.361 1202.67 272.509C1199.71 285.137 1185.76 288.66 1174.44 286.299C1164.93 284.28 1156.43 278.988 1147.48 275.341C1138.54 271.694 1127.91 269.627 1119.2 274.07C1106.8 280.442 1102.38 297.942 1089.14 302.335C1081.77 304.781 1073.07 302.485 1066.41 306.459C1056.14 312.593 1058.25 328.043 1062.8 339.04C1067.35 350.038 1072.89 363.372 1065.94 373.099C1053.87 390.037 1021.93 373.219 1007.94 388.68C999.841 397.655 1002.46 413.455 993.204 421.266C980.398 432.068 959.719 416.991 944.443 423.875C938.179 426.7 934.1 432.717 929.8 438.076C925.499 443.434 919.961 448.738 913.086 449.043C912.535 449.071 912.018 449.097 911.509 449.017C911.2 449 910.899 448.913 910.628 448.764C910.357 448.615 910.122 448.408 909.942 448.157C909.761 447.906 909.639 447.617 909.583 447.313C909.528 447.009 909.542 446.696 909.623 446.397C909.991 445.085 910.408 443.806 910.872 442.535C913.599 435.428 917.494 428.826 922.397 423.002C927.29 417.215 932.743 411.926 938.676 407.213C944.546 402.409 950.716 397.966 956.786 393.423C959.833 391.139 962.891 388.854 965.837 386.446C968.906 384.04 971.616 381.209 973.886 378.038C976.144 374.757 977.487 370.934 977.777 366.962C977.908 363.115 977.782 359.264 977.399 355.434C977.303 353.557 977.207 351.681 977.3 349.818C977.369 347.96 977.557 346.108 977.864 344.274C978.521 340.607 979.639 337.038 981.19 333.65C984.264 326.805 988.517 320.553 993.757 315.181C996.418 312.574 999.406 310.323 1002.65 308.483C1005.93 306.661 1009.35 305.091 1012.87 303.786C1016.4 302.43 1019.99 301.07 1023.52 299.608C1027.08 298.132 1030.53 296.412 1033.84 294.459C1040.44 290.46 1046.42 285.529 1051.6 279.817C1056.76 274.127 1061.39 267.987 1065.45 261.471C1066.41 259.866 1067.48 258.323 1068.63 256.851C1069.81 255.424 1071.13 254.119 1072.57 252.958C1075.5 250.641 1078.81 248.86 1082.36 247.695C1089.48 245.309 1097.16 244.869 1104.7 245.154C1119.88 245.743 1134.8 249.202 1149.75 252.177C1142.33 250.451 1134.93 248.678 1127.44 247.214C1119.97 245.671 1112.4 244.636 1104.79 244.115C1097.17 243.74 1089.37 244.068 1081.98 246.456C1078.25 247.617 1074.76 249.436 1071.67 251.828C1070.13 253.034 1068.72 254.394 1067.46 255.888C1066.23 257.387 1065.11 258.969 1064.1 260.623C1060 266.977 1055.39 272.983 1050.31 278.578C1045.22 284.144 1039.36 288.943 1032.9 292.826C1029.65 294.723 1026.27 296.392 1022.79 297.823C1019.33 299.281 1015.74 300.535 1012.16 301.894C1008.55 303.23 1005.03 304.833 1001.65 306.688C998.257 308.607 995.124 310.952 992.327 313.667C989.57 316.397 987.114 319.417 985.003 322.672C982.888 325.903 981.013 329.285 979.394 332.79C976.929 338.098 975.57 343.853 975.401 349.704C975.336 351.647 975.411 353.584 975.521 355.506C975.91 359.249 976.051 363.013 975.944 366.774C975.705 370.435 974.479 373.964 972.398 376.985C970.24 380.021 967.663 382.734 964.742 385.044C961.808 387.44 958.81 389.768 955.789 392.075C949.757 396.698 943.627 401.233 937.775 406.142C931.835 410.956 926.395 416.355 921.536 422.259C916.745 428.276 912.998 435.053 910.449 442.31C910.071 443.423 909.717 444.558 909.445 445.689C909.362 446.049 909.183 446.38 908.928 446.647C908.672 446.914 908.349 447.106 907.993 447.205C907.637 447.304 907.261 447.305 906.905 447.208C906.548 447.111 906.224 446.92 905.967 446.655C896.576 437.069 914.001 401.136 918.675 392.736Z" fill="white" fill-opacity="0.36"/>
<path d="M903.086 401.927C903.086 401.927 1024.12 215.561 1096.61 232.841C1169.1 250.12 903.086 401.927 903.086 401.927Z" fill="url(#paint4_linear_49_393)"/>
<path d="M1105.38 236.71C1046.17 260.502 903.086 401.927 903.086 401.927C903.086 401.927 1141.5 265.859 1105.38 236.71Z" fill="url(#paint5_linear_49_393)"/>
<path d="M903.086 401.927C918.129 386.091 933.614 370.649 949.543 355.599C965.471 340.55 981.673 325.846 998.147 311.488C1006.45 304.346 1014.84 297.309 1023.34 290.375C1031.87 283.514 1040.49 276.73 1049.32 270.239C1058.15 263.749 1067.07 257.456 1076.45 251.61C1078.78 250.134 1081.14 248.757 1083.51 247.38C1085.89 246.002 1088.29 244.664 1090.73 243.385C1095.52 240.781 1100.49 238.508 1105.6 236.583C1095.75 241.324 1086.33 246.904 1077.45 253.261C1068.47 259.456 1059.7 266.004 1051.12 272.707C1033.95 286.192 1017.21 300.206 1000.7 314.492C984.192 328.778 967.851 343.3 951.652 357.897L903.086 401.927Z" fill="url(#paint6_linear_49_393)"/>
<path d="M903.086 401.927C903.086 401.927 1079.84 266.429 1142.35 306.783C1204.87 347.138 903.086 401.927 903.086 401.927Z" fill="url(#paint7_linear_49_393)"/>
<path d="M1149.32 313.334C1085.51 316.155 903.086 401.927 903.086 401.927C903.086 401.927 1173.54 352.817 1149.32 313.334Z" fill="url(#paint8_linear_49_393)"/>
<path d="M903.086 401.927C922.617 391.96 942.408 382.545 962.459 373.683C982.51 364.82 1002.73 356.334 1023.11 348.222C1033.33 344.272 1043.62 340.401 1053.95 336.708C1064.28 333.015 1074.7 329.52 1085.21 326.343C1095.71 323.165 1106.31 320.205 1117.05 317.802C1119.71 317.177 1122.42 316.65 1125.06 316.166C1127.71 315.681 1130.48 315.173 1133.19 314.787C1138.62 313.921 1144.1 313.433 1149.6 313.325C1138.75 314.537 1128.02 316.673 1117.53 319.71C1106.99 322.548 1096.55 325.823 1086.19 329.317C1065.47 336.303 1044.98 343.964 1024.6 351.962C1004.22 359.959 983.948 368.194 963.72 376.548L903.086 401.927Z" fill="url(#paint9_linear_49_393)"/>
<path d="M368.613 195.295C371.312 190.707 376.785 188.335 382.14 188.149C385.776 188.112 389.391 188.702 392.827 189.894C393.939 190.255 396.175 191.548 396.094 191.887C396.044 192.004 395.974 192.11 395.887 192.202C397.774 192.398 399.647 192.708 401.497 193.13C400.926 192.669 400.422 192.132 400 191.532C398.613 189.554 397.578 187.351 396.94 185.021C396.088 181.591 396.635 177.638 399.072 175.096C399.437 174.627 399.924 174.268 400.48 174.06C401.037 173.851 401.64 173.802 402.223 173.917C403.631 174.403 404.565 176.349 405.006 177.769C406.254 181.859 404.199 186.341 403.199 190.506C402.89 191.458 402.457 192.365 401.911 193.203C403.073 193.453 404.137 193.75 405.219 194.075C411.098 195.917 416.678 198.607 421.78 202.061C425.023 204.22 428.122 206.588 431.056 209.151C431.034 209.087 431.018 209.021 431.007 208.954C429.694 205.559 428.979 201.963 428.893 198.324C428.903 193.008 431.112 187.42 435.604 184.555C437.115 183.596 439.136 183.006 440.62 183.979C442.506 185.194 443.178 188.383 443.294 190.62C443.657 197.13 439.009 202.862 436.041 208.583C435.366 209.63 434.603 210.618 433.761 211.537C434.534 212.258 435.294 212.971 436.039 213.71C440.408 218.035 444.492 222.639 448.265 227.493C450.235 229.974 452.111 232.522 453.938 235.093C453.073 231.755 452.778 228.295 453.067 224.858C453.621 219.561 456.402 214.239 461.165 211.845C462.761 211.052 464.825 210.682 466.214 211.8C467.96 213.204 468.292 216.444 468.188 218.681C467.86 225.154 462.653 230.408 459.106 235.789C458.306 236.826 457.409 237.786 456.429 238.655C457.303 239.912 458.158 241.184 459.034 242.408C462.489 247.457 465.944 252.506 469.516 257.405C470.103 258.216 470.697 259.015 471.294 259.824C470.753 256.882 470.67 253.875 471.048 250.908C471.796 245.639 474.768 240.423 479.626 238.237C481.251 237.514 483.331 237.206 484.678 238.379C486.364 239.852 486.588 243.097 486.406 245.331C485.811 251.794 480.465 256.841 476.687 262.048C476.054 262.799 475.364 263.5 474.623 264.145C479.06 269.928 483.973 275.331 489.308 280.298C488.51 277.283 488.194 274.161 488.374 271.047C488.772 265.744 491.38 260.344 496.091 257.831C497.664 256.989 499.72 256.544 501.133 257.623C502.923 258.983 503.371 262.205 503.314 264.452C503.193 270.918 498.149 276.341 494.77 281.823C494.301 282.473 493.785 283.087 493.224 283.659C493.431 283.828 493.64 284.007 493.845 284.165C498.512 287.903 503.664 290.989 509.161 293.34C511.227 294.235 513.341 295.014 515.494 295.672C513.839 292.874 512.654 289.824 511.985 286.643C510.967 281.395 512.081 275.519 515.96 271.871C517.262 270.645 519.125 269.687 520.776 270.355C522.865 271.189 524.127 274.187 524.668 276.363C526.23 282.652 522.795 289.193 520.966 295.38C520.764 295.913 520.525 296.432 520.252 296.932C522.259 297.394 524.28 297.779 526.315 298.088C532.991 299.024 539.711 299.616 546.448 299.862C542.963 297.023 539.963 293.637 537.565 289.836C533.811 283.585 532.424 275.48 535.675 268.952C536.771 266.765 538.719 264.642 541.158 264.718C544.229 264.813 547.272 268.072 549.003 270.612C554.006 277.95 552.664 287.998 553.239 296.821C553.237 297.948 553.149 299.073 552.975 300.187C556.245 300.375 559.521 300.584 562.812 300.9C564.362 301.031 565.918 301.228 567.459 301.406C568.999 301.584 570.547 301.838 572.098 302.101C575.246 302.608 578.35 303.36 581.381 304.349C587.476 306.344 593.237 309.244 598.469 312.952C603.869 316.707 608.39 321.589 611.717 327.262C613.389 330.213 614.581 333.411 615.249 336.737C615.899 340.117 615.964 343.584 615.442 346.986L609.037 345.915C609.507 343.26 609.521 340.545 609.077 337.885C608.59 335.192 607.681 332.592 606.382 330.183C603.581 325.219 599.739 320.919 595.12 317.58C590.419 314.095 585.22 311.337 579.698 309.399C576.929 308.415 574.087 307.65 571.198 307.111C569.733 306.837 568.267 306.563 566.776 306.361C565.285 306.16 563.809 305.932 562.305 305.767C559.04 305.379 555.747 305.098 552.425 304.834C552.021 306.318 551.494 307.767 550.85 309.164C546.489 316.848 543.305 326.44 535.616 330.914C532.95 332.446 528.794 334.051 525.983 332.791C523.748 331.807 522.928 329.04 522.893 326.595C522.807 319.301 527.576 312.593 533.685 308.622C536.756 306.678 540.088 305.18 543.58 304.172C537.636 303.713 531.655 303.153 525.695 302.103C523.28 301.68 520.86 301.105 518.494 300.526C517.813 301.486 517.055 302.388 516.227 303.224C511.298 307.386 506.699 313.182 500.273 314.284C498.066 314.657 494.811 314.706 493.203 313.148C491.926 311.903 492.063 309.801 492.659 308.124C494.437 303.105 499.372 299.723 504.584 298.559C506.55 298.132 508.559 297.928 510.571 297.952C509.595 297.567 508.625 297.159 507.67 296.725C501.955 294.122 496.616 290.76 491.798 286.731C491.55 286.529 491.309 286.313 491.071 286.108C490.148 286.885 489.156 287.577 488.109 288.176C482.266 290.915 476.314 295.298 469.867 294.678C467.615 294.468 464.477 293.663 463.338 291.735C462.429 290.201 463.11 288.205 464.122 286.744C467.148 282.361 472.819 280.391 478.129 280.601C481.222 280.787 484.267 281.452 487.156 282.571C481.903 277.466 477.084 271.934 472.748 266.03C471.764 266.744 470.72 267.372 469.628 267.905C463.607 270.238 457.386 274.248 450.977 273.156C448.763 272.793 445.673 271.779 444.637 269.781C443.834 268.188 444.65 266.247 445.758 264.86C449.13 260.722 454.868 259.109 460.16 259.686C463.741 260.162 467.213 261.253 470.422 262.912C469.428 261.538 468.455 260.162 467.505 258.785C464.044 253.715 460.67 248.591 457.308 243.475C456.437 242.14 455.543 240.8 454.673 239.465C453.796 240.135 452.867 240.734 451.894 241.256C445.935 243.837 439.875 248.005 433.457 247.191C431.189 246.918 428.103 246.013 427.021 244.048C426.161 242.491 426.892 240.516 427.986 239.078C431.146 234.794 436.872 232.998 442.174 233.352C445.762 233.689 449.265 234.646 452.525 236.181C450.763 233.517 448.903 230.899 446.961 228.356C443.32 223.472 439.366 218.828 435.124 214.455C434.46 213.773 433.787 213.104 433.117 212.445C432.122 213.494 431.017 214.433 429.82 215.245C424.199 218.391 418.594 223.194 412.102 223.058C409.888 223.003 406.657 222.442 405.373 220.594C404.36 219.129 404.889 217.095 405.794 215.56C408.494 210.973 413.966 208.601 419.321 208.414C422.954 208.38 426.566 208.972 429.998 210.162C430.487 210.339 430.963 210.552 431.421 210.798C428.242 207.804 424.85 205.043 421.272 202.539C416.297 199.006 410.831 196.22 405.048 194.271C404.566 194.105 404.069 193.965 403.583 193.821C403.366 194.784 403.032 195.717 402.59 196.598C400.365 200.265 398.694 204.871 394.9 206.914C393.589 207.614 391.555 208.329 390.207 207.685C389.714 207.355 389.323 206.895 389.077 206.356C388.83 205.817 388.738 205.22 388.81 204.632C388.87 201.108 391.269 197.926 394.289 196.087C396.381 194.879 398.669 194.046 401.048 193.626C401.545 193.541 402.049 193.508 402.553 193.527C400.309 192.915 398.024 192.464 395.716 192.179C394.773 193.129 393.74 193.986 392.633 194.738C387.002 197.887 381.41 202.698 374.905 202.554C372.691 202.499 369.461 201.938 368.187 200.087C367.189 198.861 367.717 196.826 368.613 195.295Z" fill="white" fill-opacity="0.36"/>
<path d="M490.739 171.758C499.322 163.605 513.914 165.707 523.394 172.81C532.874 179.913 538.687 190.759 545.118 200.7C551.55 210.641 559.413 220.691 570.673 224.364C577.944 226.745 586.075 226.296 592.942 229.654C600.766 233.511 605.509 241.681 608.786 249.731C615.254 265.661 625.845 308.231 606.969 319.714C606.824 316.627 606.426 313.558 605.78 310.536C604.952 307.079 603.836 303.697 602.443 300.426C601.029 297.171 599.378 294.024 597.503 291.01C595.627 288.004 593.57 285.115 591.345 282.358C589.111 279.61 586.739 276.979 584.236 274.476C581.725 271.968 579.131 269.589 576.579 267.156C571.454 262.313 566.307 257.469 561.055 252.755C555.804 248.041 550.447 243.435 544.953 239.002C542.18 236.807 539.47 234.58 536.866 232.201C534.261 229.822 531.804 227.292 529.42 224.687C527.036 222.081 524.78 219.409 522.682 216.554C521.595 215.17 520.604 213.71 519.561 212.325C518.518 210.94 517.59 209.404 516.694 207.889C514.829 204.895 513.147 201.79 511.659 198.591C510.177 195.389 508.931 192.083 507.93 188.7C508.916 192.087 510.141 195.4 511.596 198.614C513.075 201.819 514.742 204.934 516.588 207.944C517.473 209.469 518.485 210.919 519.445 212.401C520.404 213.883 521.448 215.311 522.534 216.706C524.622 219.55 526.878 222.243 529.252 224.892C531.625 227.54 534.082 230.038 536.677 232.46C539.272 234.881 541.981 237.12 544.733 239.315C550.195 243.77 555.531 248.397 560.74 253.144C565.95 257.89 571.065 262.755 576.18 267.631C578.721 270.064 581.305 272.475 583.752 275.005C586.226 277.501 588.566 280.125 590.764 282.867C592.953 285.615 594.977 288.49 596.825 291.478C598.656 294.472 600.267 297.595 601.647 300.821C602.998 304.057 604.075 307.4 604.866 310.815C605.535 313.941 605.934 317.119 606.059 320.313C603.94 321.425 601.639 322.146 599.264 322.443C573.91 325.982 545.542 306.818 534.851 284.857C529.681 274.248 527.388 262.352 521.911 251.864C511.941 232.777 491.967 219.332 485.8 198.678C483.008 189.415 483.79 178.342 490.739 171.758Z" fill="url(#paint10_linear_49_393)"/>
<path d="M507.128 424.911C507.128 424.911 512.9 362.121 554.384 336.849C595.867 311.578 629.313 282.223 634.533 253.699C639.752 225.175 676.61 134.36 778.226 163.223C879.842 192.085 918.702 263.22 920.638 329.082C921.829 353.279 959.656 375.019 995.155 393.05C1030.65 411.08 1087.56 462.214 1052.9 552.567C1015.87 649.089 919.857 665.717 855.313 618.61C790.768 571.503 684.241 575.534 633.582 564.128C582.923 552.721 500.145 519.946 507.128 424.911Z" fill="#8F8CFF"/>
<path opacity="0.26" d="M933.809 660.215C929.925 659.865 926.049 659.334 922.196 658.623C912.667 656.864 903.269 653.999 894.263 650.108C885.144 646.168 876.399 641.162 868.272 635.231C821.836 601.34 754.292 594.082 700.02 588.251C679.05 585.998 660.939 584.052 646.809 580.87C631.684 577.465 617.475 573.011 604.577 567.632C587.999 560.718 573.562 552.255 561.665 542.475C530.792 517.097 516.703 482.92 519.792 440.893C519.807 440.722 521.32 424.876 527.902 406.152C531.771 395.145 536.61 385.303 542.285 376.9C549.393 366.373 557.841 358.084 567.393 352.265C589.63 338.718 607.644 325.176 620.933 312.014C635.936 297.155 644.775 282.887 647.206 269.604C648.865 260.54 653.703 245.429 662.311 230.205C667.1 221.733 672.597 213.992 678.648 207.197C685.678 199.303 693.492 192.657 701.872 187.443C727.082 171.759 757.342 168.77 791.81 178.56C816.264 185.506 838.15 195.237 856.858 207.481C874.161 218.805 888.936 232.395 900.774 247.872C921.945 275.55 933.693 309.169 934.749 345.096C935.277 355.822 943.163 366.864 958.857 378.837C973.37 389.908 992.283 400.014 1008.87 408.439C1015.97 412.045 1026.77 418.431 1037.9 428.369C1048.87 438.173 1057.78 449.278 1064.36 461.376C1072.2 475.781 1076.66 491.486 1077.6 508.054C1078.69 527.157 1075.11 547.616 1066.96 568.862C1058.14 591.856 1045.69 611.154 1029.97 626.221C1022.59 633.285 1014.49 639.396 1005.89 644.385C997.543 649.222 988.651 653.051 979.456 655.764C970.228 658.488 960.642 660.107 950.964 660.576C945.269 660.851 939.531 660.73 933.809 660.215ZM521.238 440.999C514.313 535.245 597.139 568.199 647.128 579.455C661.177 582.618 679.249 584.56 700.175 586.809C727.04 589.695 757.489 592.967 787.166 599.786C821.54 607.684 848.35 618.895 869.127 634.059C901.837 657.932 941.901 665.336 979.045 654.373C1017.99 642.878 1048.73 612.325 1065.61 568.342C1105.17 465.219 1024.74 418.125 1008.21 409.731C970.001 390.323 934.477 369.066 933.3 345.152C932.186 307.273 916.133 215.38 791.415 179.956C757.356 170.282 727.487 173.215 702.639 188.674C667.694 210.414 652.032 251.289 648.633 269.865C646.148 283.445 637.172 297.973 621.954 313.045C608.585 326.286 590.481 339.899 568.148 353.504C546.901 366.448 535.279 389.54 529.271 406.633C522.802 425.035 521.277 440.595 521.238 441.006L521.238 440.999Z" fill="white"/>
<path d="M769.833 619.814C769.833 619.814 771.105 610.441 771.394 605.157L797.835 606.909C797.835 606.909 793.768 621.104 799.515 623.842L798.552 633.195C798.552 633.195 772.284 634.221 769.833 619.814Z" fill="url(#paint11_linear_49_393)"/>
<path d="M771.394 605.157C771.209 608.539 770.622 613.597 770.222 616.799C775.92 618.435 786.641 620.813 796.653 619.19C795.787 614.06 797.835 606.909 797.835 606.909L771.394 605.157Z" fill="#FFA9A7"/>
<path d="M722.316 353.767C722.316 353.767 737.462 417.507 786.056 476.199C809.393 504.385 832.126 473.675 828.34 455.373C824.553 437.071 787.98 347.498 787.98 347.498L722.316 353.767Z" fill="url(#paint12_linear_49_393)"/>
<path d="M782.901 466.101C782.901 466.101 784.794 473.674 782.27 483.141C779.745 492.607 768.119 529.562 767.483 614.115C767.483 614.115 785.784 619.164 799.668 616.639C799.668 616.639 810.038 559.503 817.611 536.784C825.184 514.064 834.019 481.879 828.339 455.373L782.901 466.101Z" fill="url(#paint13_linear_49_393)"/>
<path d="M748.558 377.807L735.59 392.089C742.263 407.957 751.792 427.343 764.921 447.455C758.01 423.177 748.558 377.807 748.558 377.807Z" fill="#185A91"/>
<path d="M769.833 619.814C767.555 618.686 764.154 630.956 766.616 642.382C767.013 644.228 768.423 645.69 770.254 646.154C774.028 647.109 780.897 648.551 786.789 648.182C795.429 647.641 825.825 653.173 839.768 648.272C845.226 646.382 853.306 636.892 841.579 632.669C829.853 628.447 803.276 624.535 799.515 623.842C799.515 623.842 790.933 630.265 769.833 619.814Z" fill="url(#paint14_linear_49_393)"/>
<path d="M833.03 630.189C820.104 627.007 802.521 624.396 799.515 623.842C799.515 623.842 796.755 625.906 790.519 625.789C798.045 628.278 814.036 632.369 833.03 630.189Z" fill="#E3E3E3"/>
<path d="M786.789 648.182C795.429 647.641 825.825 653.173 839.768 648.272C842.219 647.423 845.197 645.043 846.674 642.295C836.879 650.987 797.394 645.225 789.643 644.286C783.166 643.501 771.243 640.496 766.071 639.147C766.205 640.225 766.384 641.307 766.616 642.382C767.014 644.228 768.424 645.691 770.254 646.154C774.028 647.109 780.898 648.551 786.789 648.182Z" fill="#1A253A"/>
<path d="M676.308 641.564C676.308 641.564 678.201 632.099 678.832 626.735L705.65 630.206C705.65 630.206 700.602 644.403 706.281 647.558L704.703 657.023C704.703 657.023 677.885 656.392 676.308 641.564Z" fill="url(#paint15_linear_49_393)"/>
<path d="M677.843 633.281C683.712 635.057 694.578 637.849 703.866 637.484C704.433 633.628 705.649 630.206 705.649 630.206L678.832 626.735C678.611 628.61 678.237 630.984 677.843 633.281Z" fill="#FFA9A7"/>
<path d="M689.119 361.801C689.119 361.801 684.451 397.943 686.344 424.449C688.237 450.955 693.917 491.976 694.548 500.18C695.179 508.385 721.685 529.842 733.676 507.122C745.666 484.403 749.453 381.535 753.871 355.029L689.119 361.801Z" fill="url(#paint16_linear_49_393)"/>
<path d="M694.548 500.18C694.548 500.18 685.082 526.055 681.926 543.726C678.77 561.396 679.402 611.884 675.615 630.185C675.615 630.185 695.81 636.496 707.17 634.603C707.17 634.603 732.413 530.473 736.831 495.763C736.831 495.763 711.588 486.296 694.548 500.18Z" fill="url(#paint17_linear_49_393)"/>
<path d="M676.308 641.564C674.06 640.27 669.814 652.549 671.592 664.343C671.879 666.248 673.222 667.827 675.057 668.416C678.84 669.629 685.744 671.536 691.768 671.536C700.602 671.536 731.205 679.108 745.718 675.007C751.397 673.429 760.231 664.28 748.557 659.232C736.884 654.184 710.067 648.505 706.28 647.559C706.28 647.559 697.131 653.553 676.308 641.564Z" fill="url(#paint18_linear_49_393)"/>
<path d="M740.008 656.16C727.048 652.095 709.307 648.315 706.28 647.558C706.28 647.558 703.337 649.484 696.994 648.968C704.5 651.983 720.526 657.169 740.008 656.16Z" fill="#DDD7D9"/>
<path d="M691.768 671.536C700.602 671.536 731.205 679.108 745.718 675.007C748.268 674.299 751.452 672.064 753.132 669.359C742.602 677.587 702.756 669.201 694.923 667.75C688.376 666.538 676.425 662.717 671.244 661.013C671.311 662.119 671.425 663.233 671.592 664.343C671.879 666.248 673.223 667.827 675.057 668.416C678.84 669.629 685.744 671.536 691.768 671.536Z" fill="#1A253A"/>
<path d="M787.979 347.498L722.316 353.767C722.316 353.767 722.688 355.335 723.504 358.205L689.118 361.801C689.118 361.801 688.745 364.688 688.253 369.426C695.429 371.181 717.644 375.608 740.349 369.816C743.487 369.015 746.441 371.641 746.053 374.857C744.733 385.794 744.148 404.597 764.729 408.229C782.426 411.352 803.307 414.891 815.307 416.91C803.448 385.382 787.979 347.498 787.979 347.498Z" fill="#185A91"/>
<path d="M718.522 140.405C718.522 140.405 719.408 156.507 717.725 161.134V171.651L746.332 191.424L758.111 172.072C758.111 172.072 750.96 169.969 750.539 167.445C750.118 164.92 750.539 151.459 750.539 151.459L718.522 140.405Z" fill="url(#paint19_linear_49_393)"/>
<path d="M750.539 151.458L718.522 140.405C718.522 140.405 718.632 142.404 718.7 145.194C719.785 146.512 720.953 147.853 722.212 149.214C731.138 159.203 741.566 162.425 750.352 162.683C750.338 157.879 750.539 151.458 750.539 151.458Z" fill="#F9ABAB"/>
<path d="M735.69 82.6754C717.883 82.5578 704.154 98.6 706.873 116.198C707.979 123.356 711.353 131.868 718.495 141.772C731.686 160.744 751.76 160.282 760.324 157.768C762.852 157.026 765.012 155.358 766.32 153.072C767.92 150.277 769.393 145.574 768.526 138.144C766.7 122.488 762.956 82.8554 735.69 82.6754Z" fill="url(#paint20_linear_49_393)"/>
<path d="M735.69 82.6754C717.883 82.5578 704.154 98.6 706.873 116.198C707.322 119.101 708.143 122.226 709.438 125.576C722.708 117.812 746.509 103.652 757.317 95.7512C752.578 88.1554 745.728 82.7416 735.69 82.6754Z" fill="url(#paint21_linear_49_393)"/>
<path d="M718.707 145.891C718.707 145.891 703.006 144.822 696.691 117.914C691.076 93.9918 715.208 69.3207 752.921 84.3879C752.921 84.3879 752.411 88.5636 745.878 91.1552C739.345 93.7465 736.149 95.6161 731.062 99.0909C728.074 101.132 712.484 112.77 715.9 127.186C719.347 141.735 718.968 143.035 718.707 145.891Z" fill="#53383F"/>
<path d="M715.442 122.047C716.102 110.074 728.438 100.883 731.062 99.0907C736.149 95.6161 739.345 93.7465 745.878 91.1549C752.411 88.5636 752.921 84.3878 752.921 84.3878C715.208 69.3204 691.076 93.9917 696.691 117.914C697.871 122.945 699.375 127.071 701.039 130.456C703.2 129.211 708.637 126.065 715.442 122.047Z" fill="#54343E"/>
<path d="M719.199 139.214C722.35 136.464 721.662 130.522 717.664 125.942C713.666 121.363 707.871 119.88 704.721 122.631C701.57 125.381 702.258 131.323 706.256 135.903C710.254 140.482 716.049 141.965 719.199 139.214Z" fill="url(#paint22_linear_49_393)"/>
<path d="M710.546 131.101C710.31 131.344 710.116 131.587 709.972 131.801C709.81 132.042 709.873 132.369 710.114 132.531C710.185 132.579 710.264 132.607 710.344 132.617C710.534 132.64 710.73 132.558 710.844 132.388C710.859 132.365 712.364 130.174 714.249 130.815C714.596 131.482 714.866 132.287 715.02 133.26C715.058 133.497 715.248 133.672 715.475 133.7C715.523 133.706 715.572 133.705 715.622 133.697C715.908 133.652 716.104 133.382 716.059 133.096C714.918 125.871 708.015 126.641 707.945 126.649C707.658 126.685 707.453 126.947 707.489 127.235C707.524 127.523 707.786 127.728 708.074 127.693C708.253 127.672 711.41 127.336 713.449 129.648C712.258 129.689 711.227 130.398 710.546 131.101Z" fill="#FF9D9D"/>
<path d="M715.406 123.85C715.406 123.85 717.168 125.926 717.59 126.686C718.012 127.446 722.213 134.854 725.336 135.593C725.336 135.593 724.83 141.46 725.906 145.724C725.906 145.724 720.136 141.992 718.473 139.732L718.582 140.047C718.582 140.047 722.402 144.479 725.927 146.21C725.927 146.21 726.392 147.476 726.56 147.645C726.729 147.814 734.159 154.314 738.443 155.876L766.652 123.963C766.652 123.963 758.304 133.039 725.716 134.348C725.716 134.348 725.305 134.358 725.347 135.234C725.347 135.234 722.613 133.609 720.102 129.557C717.59 125.504 715.406 123.85 715.406 123.85Z" fill="#E57373"/>
<path d="M725.577 135.064C725.443 136.885 725.106 143.207 726.524 147.176C726.576 147.321 726.66 147.451 726.768 147.56C728.53 149.342 744.144 164.473 760.232 158.085C764.96 156.453 774.532 150.304 766.652 123.963C766.652 123.963 759.016 133.56 726.123 134.544C725.835 134.553 725.598 134.776 725.577 135.064Z" fill="white"/>
<path d="M715.448 123.797C715.992 124.232 716.481 124.724 716.957 125.228C717.431 125.734 717.887 126.256 718.331 126.79C718.766 127.329 719.196 127.874 719.606 128.432C720.023 128.986 720.418 129.56 720.821 130.112C721.227 130.665 721.648 131.205 722.09 131.724C722.529 132.245 722.973 132.757 723.43 133.256C723.886 133.754 724.367 134.227 724.885 134.655C725.406 135.079 725.967 135.455 726.61 135.708L726.595 135.774C725.891 135.706 725.215 135.412 724.612 135.042C724.004 134.67 723.457 134.213 722.947 133.726C722.442 133.235 721.982 132.701 721.565 132.14C721.15 131.577 720.756 131.002 720.375 130.421C719.992 129.838 719.632 129.256 719.246 128.687C718.867 128.113 718.467 127.554 718.063 126.998C717.657 126.443 717.239 125.897 716.8 125.367C716.359 124.841 715.906 124.318 715.405 123.85L715.448 123.797ZM718.523 139.686C719.173 140.299 719.837 140.897 720.521 141.47C721.202 142.047 721.896 142.605 722.601 143.146L723.138 143.541L723.688 143.918L724.232 144.298L724.764 144.693C725.466 145.236 726.178 145.754 726.872 146.348L726.84 146.408C726.407 146.27 725.975 146.112 725.572 145.906C725.367 145.809 725.163 145.706 724.966 145.595L724.381 145.249C723.61 144.77 722.936 144.16 722.26 143.565C721.581 142.973 720.924 142.358 720.292 141.719C719.665 141.074 719.048 140.422 718.473 139.732L718.523 139.686Z" fill="white"/>
<path d="M728.72 137.227C730.381 137.544 732.061 137.761 733.742 137.936C735.424 138.108 737.112 138.218 738.8 138.273C740.489 138.335 742.178 138.329 743.864 138.261C745.549 138.189 747.232 138.067 748.903 137.846C750.572 137.624 752.232 137.333 753.865 136.938C754.274 136.842 754.679 136.73 755.085 136.626C755.288 136.572 755.493 136.526 755.693 136.464L756.296 136.282C757.105 136.058 757.894 135.776 758.69 135.511C760.265 134.937 761.801 134.261 763.291 133.484C764.762 132.674 766.177 131.76 767.526 130.734L767.571 130.785C766.338 131.953 764.98 132.995 763.527 133.896C762.061 134.773 760.515 135.515 758.925 136.144C757.326 136.753 755.678 137.218 754.013 137.59C752.343 137.942 750.657 138.195 748.966 138.383C747.274 138.572 745.575 138.661 743.877 138.7C742.178 138.734 740.479 138.706 738.785 138.61C737.091 138.51 735.401 138.355 733.719 138.138C732.038 137.917 730.362 137.656 728.706 137.293L728.72 137.227ZM728.729 140.27C729.487 140.66 730.27 141.005 731.057 141.335C731.844 141.665 732.643 141.965 733.446 142.251C735.056 142.816 736.693 143.301 738.35 143.696C741.66 144.493 745.056 144.962 748.452 144.947L749.089 144.946C749.301 144.948 749.512 144.93 749.724 144.923C750.148 144.901 750.572 144.892 750.994 144.859L752.26 144.741C752.471 144.726 752.68 144.69 752.89 144.661L753.518 144.571C755.191 144.324 756.851 143.978 758.47 143.493L759.081 143.321C759.284 143.263 759.482 143.186 759.682 143.12L760.883 142.706L762.06 142.229C762.256 142.147 762.455 142.074 762.647 141.985L763.223 141.715C763.605 141.532 763.993 141.358 764.373 141.167L765.495 140.561C765.682 140.459 765.874 140.366 766.057 140.257L766.602 139.923C766.964 139.699 767.33 139.478 767.698 139.259L767.738 139.314C766.381 140.355 764.973 141.361 763.434 142.14L762.866 142.448C762.675 142.549 762.475 142.63 762.28 142.722L761.103 143.26L759.893 143.721C759.69 143.795 759.49 143.879 759.285 143.946L758.667 144.139L758.047 144.329C757.84 144.392 757.635 144.459 757.424 144.506L756.163 144.809C755.954 144.864 755.74 144.895 755.528 144.933L754.889 145.044L754.251 145.155L753.609 145.234C751.896 145.455 750.168 145.522 748.448 145.488C745.003 145.435 741.585 144.892 738.268 144.025C736.61 143.582 734.978 143.052 733.377 142.442C732.578 142.134 731.784 141.812 731.004 141.459C730.223 141.108 729.449 140.742 728.697 140.33L728.729 140.27ZM728.733 144.24C730.167 145.216 731.681 146.072 733.223 146.864C734.767 147.651 736.351 148.36 737.966 148.982C741.191 150.235 744.555 151.148 747.982 151.547C751.407 151.952 754.881 151.772 758.229 151.039C759.903 150.669 761.545 150.143 763.127 149.465L763.425 149.339L763.718 149.204L764.305 148.932C764.689 148.736 765.081 148.554 765.457 148.341C766.227 147.947 766.958 147.482 767.698 147.026L767.737 147.081C765.026 149.268 761.802 150.863 758.382 151.696C757.527 151.905 756.66 152.063 755.789 152.182C754.916 152.296 754.038 152.355 753.16 152.387C752.282 152.415 751.404 152.389 750.529 152.34C749.653 152.292 748.781 152.204 747.914 152.083C744.442 151.61 741.063 150.62 737.84 149.296C736.23 148.627 734.658 147.873 733.128 147.043C731.601 146.207 730.107 145.311 728.693 144.295L728.733 144.24Z" fill="#DADADA"/>
<path d="M770.261 71.8026C758.116 72.0279 749.687 76.8414 744.301 77.751C744.301 77.751 726.588 62.8969 705.302 77.2573C692.314 86.0191 688.982 100.269 691.86 112.587C692.067 113.473 693.043 113.939 693.863 113.543C695.188 112.904 696.779 113.508 697.345 114.867L698.207 116.935C698.696 118.107 698.253 119.461 697.165 120.118L696.301 120.64C695.632 121.043 695.421 121.908 695.814 122.583C696.548 123.842 697.355 125.044 698.23 126.175C699.074 127.264 700.613 127.521 701.77 126.773C709.679 121.656 739.485 102.422 755.275 92.9214C773.587 81.9031 784.057 72.0644 770.261 71.8026Z" fill="url(#paint23_linear_49_393)"/>
<path d="M736.957 94.6717C725.657 104.755 705.83 120.649 697.698 125.465C697.874 125.705 698.051 125.942 698.232 126.176C699.075 127.264 700.615 127.519 701.771 126.771C709.683 121.653 739.486 102.421 755.275 92.9209C773.587 81.9031 784.057 72.0645 770.261 71.8024C758.116 72.0277 749.687 76.8412 744.301 77.7508C744.301 77.7508 748.478 84.3915 736.957 94.6717Z" fill="#D84545"/>
<path d="M774.338 72.3362C774.384 73.7368 773.809 75.7363 771.342 78.1648C766.76 82.6749 708.631 120.958 699.395 127.031C700.158 127.315 701.04 127.244 701.77 126.772C709.679 121.655 739.486 102.422 755.276 92.9209C771.291 83.2844 781.308 74.5501 774.338 72.3362Z" fill="#C92929"/>
<path d="M705.301 77.2569C702.522 79.1318 700.187 81.2583 698.258 83.563C704.995 87.3759 726.331 96.9525 744.301 77.7508C744.301 77.7508 726.588 62.8965 705.301 77.2569Z" fill="#EB5F5F"/>
<path d="M738.303 75.2399C739.97 75.995 740.873 77.6508 740.453 78.5766C740.033 79.5025 738.451 79.3479 736.784 78.5927C735.118 77.8375 733.999 76.7677 734.418 75.8418C734.838 74.916 736.637 74.4847 738.303 75.2399Z" fill="#EA5454"/>
<path d="M738.178 74.8848C739.844 75.64 740.747 77.2957 740.328 78.2216C739.908 79.1475 738.325 78.9928 736.659 78.2377C734.992 77.4825 733.873 76.4127 734.293 75.4868C734.712 74.5609 736.511 74.1296 738.178 74.8848Z" fill="white"/>
<path d="M776.953 272.745C776.953 272.745 784.614 310.193 814.273 305.429C853.698 299.096 868.447 269.906 868.447 269.906L870.025 255.077C870.025 255.077 861.6 259.995 845.404 266.516C832.134 271.858 819.532 277.664 811.328 274.929C801.267 271.576 776.953 272.745 776.953 272.745Z" fill="#FFA197"/>
<path d="M811.539 289.022C811.539 289.022 813.676 282.252 815 275.599C813.698 275.525 812.47 275.31 811.328 274.929C810.154 274.538 808.784 274.209 807.282 273.931L811.539 289.022Z" fill="#F77F7C"/>
<path d="M868.489 255.946C868.489 255.946 875.073 251.923 877.597 250.345C880.121 248.768 885.651 243.118 887.998 246.638C889.26 248.531 885.484 251.607 885.484 251.607C885.484 251.607 877.45 258.307 876.219 261.362C870.329 275.981 864.124 271.248 860.022 272.195L868.489 255.946ZM771.904 177.465C771.904 177.465 799.037 210.592 807.24 251.607C815.443 292.622 811.734 295.531 803.77 299.248C789.572 305.873 776.637 287.259 766.541 231.415C766.541 231.415 755.183 174.31 771.904 177.465Z" fill="#FFA197"/>
<path d="M793.028 252.002C796.698 248.74 802.186 245.625 805.276 243.199C803.439 236.306 801.131 229.702 798.589 223.519C788.592 220.041 773.539 217.507 766.237 229.808C766.426 230.839 766.541 231.416 766.541 231.416C770.007 250.589 773.808 265.374 777.88 276.255C780.276 284.188 787.744 303.014 805.171 305.559C788.465 295.477 787.349 257.05 793.028 252.002Z" fill="#F77F7C"/>
<path d="M765.263 170.81C765.263 170.81 790.083 175.016 806.911 237.278C806.911 237.278 787.98 252.002 767.366 254.526C767.366 254.526 751.801 184.692 765.263 170.81Z" fill="#EA5454"/>
<path d="M767.366 254.526C787.98 252.002 806.911 237.278 806.911 237.278C806.479 235.678 806.041 234.119 805.598 232.596C790.556 242.185 791.319 233.527 790.504 221.713C789.663 209.513 783.563 187.847 783.563 187.847C782.883 186.197 781.923 184.031 780.73 181.734C771.947 171.944 765.263 170.81 765.263 170.81C751.801 184.692 767.366 254.526 767.366 254.526Z" fill="#D84545"/>
<path d="M717.725 161.134C717.725 161.134 705.019 167.369 690.821 179.673C677.33 191.366 684.07 252.002 685.332 270.933C686.595 289.864 689.119 361.801 689.119 361.801C689.119 361.801 718.567 381.153 787.98 347.498C787.98 347.498 791.766 337.401 787.98 327.725C784.194 318.05 784.812 311.778 785.456 307.953C789.032 286.708 783.96 237.654 785.456 220.45C787.139 201.099 790.083 171.23 750.749 167.444C750.749 167.444 751.854 178.277 742.967 178.802C721.969 180.045 717.725 161.134 717.725 161.134Z" fill="url(#paint24_linear_49_393)"/>
<path d="M745.088 182.197C753.88 179.266 754.807 172.585 754.238 167.922C753.114 167.741 751.735 167.539 750.532 167.403C750.532 167.403 751.854 178.277 742.967 178.802C721.969 180.045 717.726 161.134 717.726 161.134C717.726 161.134 715.957 162.002 713.004 163.727C716.911 171.457 726.832 185.942 745.088 182.197ZM685.333 270.933C686.595 289.864 689.119 361.801 689.119 361.801C689.119 361.801 689.69 362.176 690.858 362.73C691.782 357.317 692.951 349.095 693.536 339.505C694.172 329.081 690.802 297.436 694.167 293.439C697.533 289.443 703.212 267.357 703.212 267.357C704.474 267.567 707.419 266.936 707.419 266.936C712.678 247.164 713.309 220.24 713.309 220.24L682.636 213.218C681.996 234.652 684.597 259.889 685.333 270.933Z" fill="#DB3232"/>
<path d="M692.344 343.992C692.344 343.992 697.112 358.716 748.155 351.424C748.155 351.424 727.261 356.893 711.836 355.631C696.411 354.369 693.326 351.705 691.222 353.388C691.222 353.388 688.838 349.04 692.344 343.992ZM787.98 327.726C784.194 318.05 784.812 311.778 785.456 307.953C785.494 307.73 785.529 307.5 785.564 307.271C783.841 310.368 775.002 324.954 759.794 328.146C759.794 328.146 768.839 328.567 777.253 325.622C777.253 325.622 775.36 331.512 772.625 333.194C772.625 333.194 779.146 330.67 783.563 328.146C786.381 326.536 788.429 330.662 789.597 335.172C789.436 332.785 788.965 330.241 787.98 327.726Z" fill="#D82C2C"/>
<path d="M788.864 344.33C789.69 340.588 790.461 334.067 787.98 327.726C784.194 318.05 784.812 311.778 785.456 307.953C788.23 291.47 785.799 258.248 785.269 236.148L735.168 248.428C735.34 267.971 748.141 265.193 748.141 265.193C747.515 266.758 745.95 275.834 744.698 284.598C743.446 293.362 736.247 304.942 736.247 304.942L740.629 309.011C749.393 305.881 749.08 289.293 749.08 289.293C749.08 289.293 749.706 291.797 749.08 306.82C748.454 321.844 745.95 317.462 745.95 317.462C734.682 310.889 703.696 296.492 703.696 296.492L706.67 282.094L713.243 283.503C726.388 236.398 719.033 219.496 719.033 219.496C719.033 219.496 699.05 223.139 682.737 231.418C683.287 247.477 684.799 262.931 685.332 270.933C686.183 283.687 687.606 320.5 688.444 343.165C697.482 345.733 708.528 348.156 718.407 348.761C731.336 349.553 760.503 354.237 769.341 355.688C771.896 354.687 774.517 353.607 777.205 352.444L788.864 344.33Z" fill="url(#paint25_linear_49_393)"/>
<path d="M693.055 177.868C693.055 177.868 707.705 177.657 719.207 197.609C730.709 217.561 741.036 236.339 741.036 236.339C741.036 236.339 733.76 239.156 735.638 251.127L796.198 226.95C796.198 226.95 784.901 177.375 757.218 168.479C757.218 168.479 774.369 178.126 780.706 194.557C787.044 210.988 792.912 225.072 792.912 225.072L748.079 233.053C748.079 233.053 715.962 170.099 693.055 177.868Z" fill="#D84545"/>
<path d="M761.287 263.941C761.287 263.941 737.186 170.982 704.635 169.105C704.635 169.105 695.872 170.357 693.055 177.868C693.055 177.868 720.38 170.145 754.088 266.758L761.287 263.941Z" fill="url(#paint26_linear_49_393)"/>
<path d="M749.907 255.212L758.102 252.885C756.416 247.382 754.096 240.246 751.224 232.458C749.027 232.846 743.551 234.937 743.551 234.937C743.551 234.937 734.578 212.401 724.354 197.274C714.129 182.146 706.513 179.433 702.131 177.555C697.75 175.677 693.055 177.868 693.055 177.868C693.055 177.868 718.149 170.777 749.907 255.212Z" fill="#243044"/>
<path d="M756.721 168.272C756.721 168.272 779.44 168.166 792.586 203.534C803.244 232.208 816.686 249.856 816.686 249.856L807.609 251.421C807.609 251.421 790.744 219.446 785.387 202.908C778.188 180.685 766.423 174.219 756.721 168.272Z" fill="url(#paint27_linear_49_393)"/>
<path d="M785.387 202.907C788.258 211.772 794.436 225.071 799.551 235.505L805.568 232.034C804.176 229.484 802.718 226.686 801.232 223.655L795.872 224.269C795.872 224.269 787.186 197.978 778.188 185.536C769.189 173.095 756.72 168.272 756.72 168.272C766.423 174.219 778.188 180.685 785.387 202.907Z" fill="#243044"/>
<path d="M928.586 241.718L831.642 240.33L752.068 261.925L833.755 305.116L928.586 241.718Z" fill="#243044"/>
<path d="M831.642 240.33C831.934 242.489 832.085 244.648 832.194 246.807C832.297 248.965 832.345 251.124 832.346 253.283C832.348 255.442 832.299 257.601 832.196 259.76C832.087 261.919 831.936 264.077 831.642 266.236C831.349 264.077 831.197 261.919 831.088 259.76C830.985 257.601 830.937 255.442 830.938 253.283C830.939 251.124 830.987 248.965 831.09 246.807C831.2 244.647 831.351 242.489 831.642 240.33Z" fill="#1D293A"/>
<path d="M750.332 258.307C750.332 258.307 745.161 262.357 744.072 272.704C742.82 284.598 740.003 294.613 735.934 299.934L740.629 304.003C740.629 304.003 748.141 288.98 749.706 275.208C750.52 268.049 753.149 262.063 753.149 262.063L750.332 258.307Z" fill="#243044"/>
<path d="M832.328 240.083C837.777 237.825 840.365 231.578 838.108 226.128C835.85 220.679 829.603 218.091 824.153 220.348C818.704 222.605 816.116 228.853 818.373 234.302C820.63 239.752 826.878 242.34 832.328 240.083Z" fill="#394963"/>
<path d="M747.306 234.963L826.31 219.731L831.643 240.33L752.069 261.925L747.306 234.963Z" fill="url(#paint28_linear_49_393)"/>
<path d="M826.713 237.278C821.784 238.687 765.971 256.387 765.449 251.362C764.73 244.457 760.739 240.232 760.739 240.232C761.913 253.142 755.575 259.715 755.575 259.715L753.768 261.464L830.205 240.72C835.164 239.796 838.919 235.45 838.919 230.223C838.919 227.905 838.178 225.76 836.923 224.009C838.898 232.667 831.417 235.935 826.713 237.278Z" fill="#313D56"/>
<path d="M749.027 262.294C756.61 262.294 762.758 256.146 762.758 248.562C762.758 240.978 756.61 234.83 749.027 234.83C741.443 234.83 735.295 240.978 735.295 248.562C735.295 256.146 741.443 262.294 749.027 262.294Z" fill="url(#paint29_linear_49_393)"/>
<path d="M758.351 249.96C759.198 244.746 755.656 239.832 750.442 238.986C745.227 238.139 740.313 241.681 739.467 246.895C738.621 252.11 742.162 257.024 747.377 257.87C752.591 258.716 757.505 255.175 758.351 249.96Z" fill="#1E293A"/>
<path d="M755.027 236.163C755.638 236.271 756.232 236.475 756.803 236.726C757.377 236.977 757.921 237.294 758.441 237.649C759.471 238.372 760.382 239.288 761.079 240.351C761.263 240.611 761.416 240.89 761.579 241.163C761.723 241.446 761.875 241.727 761.996 242.02C762.261 242.6 762.457 243.205 762.635 243.814C762.962 245.041 763.115 246.306 763.153 247.564C763.178 248.823 763.093 250.087 762.858 251.332C762.726 251.951 762.577 252.568 762.365 253.166C762.27 253.468 762.144 253.761 762.028 254.055C761.893 254.343 761.766 254.634 761.611 254.911C761.311 255.469 760.978 256.011 760.583 256.507C760.19 257.004 759.757 257.467 759.285 257.884C758.811 258.298 758.3 258.668 757.757 258.98C757.215 259.291 756.643 259.554 756.044 259.715C756.331 259.599 756.604 259.454 756.869 259.299C757.135 259.146 757.391 258.976 757.639 258.798C758.135 258.439 758.601 258.045 759.02 257.605C759.869 256.737 760.555 255.726 761.066 254.637C762.093 252.453 762.438 250.001 762.371 247.584C762.349 246.373 762.205 245.169 761.92 244C761.768 243.419 761.6 242.84 761.366 242.288C761.261 242.006 761.123 241.74 760.999 241.466C760.859 241.202 760.727 240.931 760.566 240.677C760.259 240.161 759.903 239.673 759.509 239.218C759.116 238.761 758.68 238.338 758.21 237.955C757.743 237.568 757.238 237.222 756.706 236.919C756.441 236.766 756.167 236.629 755.887 236.5C755.609 236.372 755.323 236.253 755.027 236.163Z" fill="#243044"/>
<path d="M748.9 238.862C748.099 238.862 747.322 238.962 746.578 239.147C743.148 240.601 740.742 243.999 740.742 247.958C740.742 253.241 745.025 257.524 750.308 257.524C751.109 257.524 751.886 257.424 752.629 257.239C756.059 255.785 758.465 252.388 758.465 248.428C758.465 243.145 754.183 238.862 748.9 238.862Z" fill="#243044"/>
<path opacity="0.16" d="M845.3 232.469C845.3 232.469 841.167 229.575 843.151 224.946C845.135 220.316 847.946 220.399 846.954 218.415C845.962 216.43 841.994 211.966 843.978 207.667C845.962 203.368 849.599 202.376 850.095 197.416C850.591 192.456 844.639 191.133 849.434 183.362C849.434 183.362 848.276 190.803 851.584 194.109C854.89 197.416 855.056 201.384 852.41 204.03C849.765 206.675 848.442 209.982 849.765 212.132C851.088 214.281 852.741 216.761 850.592 221.225C848.442 225.689 844.391 224.863 845.3 232.469Z" fill="white"/>
<path opacity="0.78" d="M849.209 266.428H839.503C837.99 266.428 836.73 265.265 836.608 263.757L834.624 239.046C834.624 239.046 839.139 239.809 844.417 239.809C849.695 239.809 854.088 239.046 854.088 239.046L852.104 263.757C851.982 265.266 850.723 266.428 849.209 266.428Z" fill="#FFCBC7"/>
<path d="M854.088 239.046C854.088 239.716 849.731 240.258 844.356 240.258C838.981 240.258 834.624 239.716 834.624 239.046C834.624 238.376 838.981 237.833 844.356 237.833C849.731 237.833 854.088 238.376 854.088 239.046Z" fill="#FFE4E3"/>
<path d="M850.896 238.148C849.168 237.952 846.874 237.833 844.356 237.833C841.838 237.833 839.544 237.952 837.816 238.148H834.624V239.046C834.624 239.716 838.981 240.258 844.356 240.258C849.731 240.258 854.088 239.716 854.088 239.046V238.148H850.896Z" fill="#FFE4E3"/>
<path d="M854.088 238.148C854.088 238.817 849.731 239.36 844.356 239.36C838.981 239.36 834.624 238.817 834.624 238.148C834.624 237.478 838.981 236.935 844.356 236.935C849.731 236.935 854.088 237.478 854.088 238.148Z" fill="#FFE9E9"/>
<path d="M844.356 239.046C849.447 239.046 853.574 238.618 853.574 238.09C853.574 237.562 849.447 237.134 844.356 237.134C839.265 237.134 835.139 237.562 835.139 238.09C835.139 238.618 839.265 239.046 844.356 239.046Z" fill="#F9D7D7"/>
<path d="M844.356 237.299C839.533 237.299 835.578 237.683 835.175 238.172C835.579 238.662 839.533 239.046 844.356 239.046C849.178 239.046 853.134 238.662 853.537 238.172C853.133 237.683 849.178 237.299 844.356 237.299Z" fill="#FFE4E3"/>
<path d="M853.681 244.11H835.031C835.03 244.112 836.608 263.757 836.608 263.757C836.729 265.265 837.989 266.428 839.503 266.428H849.209C850.722 266.428 851.982 265.265 852.103 263.757L853.681 244.11V244.11Z" fill="#E87C56"/>
<path d="M844.356 243.236C839.458 243.236 835.441 243.621 835.031 244.11C835.441 244.599 839.458 244.984 844.356 244.984C849.254 244.984 853.272 244.599 853.681 244.11C853.271 243.621 849.254 243.236 844.356 243.236Z" fill="#F48967"/>
<path d="M842.951 249.852C842.951 249.852 843.134 249.009 843.647 249.009C844.16 249.009 844.637 249.449 844.417 249.632C844.197 249.816 843.904 250.036 843.904 250.549C843.904 251.062 842.474 250.769 842.951 249.852ZM838.902 247.288C838.902 247.288 839.764 247.326 839.851 247.832C839.938 248.338 839.585 248.882 839.367 248.696C839.149 248.51 838.883 248.258 838.377 248.345C837.871 248.432 837.919 246.973 838.902 247.288ZM849.825 247.141C849.825 247.141 850.687 247.18 850.774 247.685C850.86 248.191 850.507 248.735 850.289 248.549C850.072 248.363 849.805 248.112 849.299 248.198C848.794 248.285 848.841 246.826 849.825 247.141ZM848.412 252.674C848.412 252.674 850.048 253.085 850.135 253.591C850.221 254.097 849.878 254.177 849.226 254.487C848.968 254.61 847.679 254.727 847.642 254.031C847.615 253.518 847.428 252.36 848.412 252.674ZM839.899 260.207C839.899 260.207 841.29 260.556 841.364 260.986C841.437 261.416 841.146 261.484 840.592 261.748C840.372 261.852 839.276 261.952 839.245 261.36C839.222 260.924 839.063 259.939 839.899 260.207ZM842.311 255.571C842.311 255.571 843.173 255.61 843.26 256.115C843.346 256.621 842.993 257.165 842.775 256.98C842.558 256.794 842.291 256.542 841.786 256.628C841.28 256.715 841.327 255.257 842.311 255.571ZM839.296 252.086C839.296 252.086 840.739 252.151 840.884 252.998C841.03 253.845 840.438 254.756 840.074 254.445C839.709 254.133 838.845 254.36 838.416 253.857C837.858 253.203 837.648 251.559 839.296 252.086ZM848.349 259.417C848.349 259.417 849.793 259.481 849.938 260.328C850.083 261.175 849.491 262.086 849.127 261.775C848.762 261.464 847.899 261.691 847.469 261.187C846.911 260.533 846.702 258.89 848.349 259.417Z" fill="#AD715E"/>
<path d="M848.115 244.196C848.011 243.589 846.978 243.543 846.978 243.543C846.018 243.236 845.938 243.958 846.157 244.489C846.845 244.476 847.505 244.454 848.13 244.426C848.133 244.35 848.128 244.272 848.115 244.196ZM842.108 243.511C841.595 243.511 841.412 244.355 841.412 244.355C841.393 244.39 841.379 244.424 841.366 244.457C841.742 244.47 842.129 244.481 842.526 244.489C842.629 244.337 842.763 244.23 842.878 244.135C843.097 243.951 842.621 243.511 842.108 243.511Z" fill="#B77C6C"/>
<path opacity="0.16" d="M892.391 240.45C892.391 240.45 886.596 236.394 889.377 229.904C892.159 223.413 896.099 223.529 894.709 220.748C893.318 217.967 887.755 211.708 890.537 205.682C893.318 199.655 898.417 198.265 899.113 191.311C899.808 184.357 891.464 182.503 898.186 171.609C898.186 171.609 896.563 182.039 901.199 186.675C905.835 191.311 906.066 196.874 902.358 200.583C898.649 204.291 896.795 208.927 898.649 211.941C900.503 214.954 902.821 218.431 899.808 224.689C896.795 230.947 891.116 229.788 892.391 240.45Z" fill="white"/>
<path d="M919.249 246.157C919.249 247.896 918.492 266.626 892.165 266.626C866.511 266.626 865.08 247.896 865.08 246.157C865.08 244.418 877.206 243.008 892.165 243.008C907.123 243.008 919.249 244.418 919.249 246.157Z" fill="#F9E1E1"/>
<path d="M905.53 243.417C901.507 244.762 898.506 246.221 898.506 246.221C898.506 246.221 896.609 263.999 870.28 258.626C874.108 262.905 880.73 266.627 892.165 266.627C918.492 266.627 919.25 247.896 919.25 246.157C919.25 244.983 913.723 243.959 905.53 243.417Z" fill="#EFD0D0"/>
<path d="M916.666 244.645C912.33 243.578 902.99 242.84 892.165 242.84C881.34 242.84 872 243.578 867.664 244.645H865.08V245.989C865.08 247.728 877.206 249.138 892.165 249.138C907.124 249.138 919.25 247.728 919.25 245.989V244.645H916.666Z" fill="#F9D7D7"/>
<path d="M892.165 247.795C907.124 247.795 919.25 246.385 919.25 244.645C919.25 242.906 907.124 241.496 892.165 241.496C877.207 241.496 865.081 242.906 865.081 244.645C865.081 246.385 877.207 247.795 892.165 247.795Z" fill="#FFE9E9"/>
<path d="M918.324 244.645C918.324 246.095 906.612 247.27 892.165 247.27C877.718 247.27 866.006 246.095 866.006 244.645C866.006 243.196 877.718 241.868 892.165 241.868C906.612 241.868 918.324 243.196 918.324 244.645Z" fill="#F2C9C9"/>
<path d="M866.169 244.938C867.621 246.25 878.705 247.27 892.165 247.27C905.625 247.27 916.709 246.25 918.161 244.938C916.709 243.608 905.625 242.456 892.165 242.456C878.705 242.456 867.621 243.608 866.169 244.938Z" fill="#F9D7D7"/>
<path opacity="0.16" d="M867.847 242.188C867.847 242.188 861.867 238.001 864.737 231.303C867.608 224.605 871.675 224.725 870.239 221.854C868.804 218.983 863.063 212.524 865.933 206.305C868.804 200.085 874.067 198.649 874.785 191.473C875.502 184.296 866.89 182.383 873.828 171.139C873.828 171.139 872.153 181.904 876.938 186.688C881.722 191.473 881.961 197.214 878.134 201.042C874.306 204.869 872.392 209.654 874.306 212.764C876.22 215.873 878.612 219.462 875.502 225.921C872.392 232.38 866.531 231.184 867.847 242.188Z" fill="white"/>
<path opacity="0.78" d="M873.537 277.12H862.728C861.043 277.12 859.64 275.825 859.505 274.145L857.295 246.626C857.295 246.626 862.323 247.477 868.201 247.477C874.079 247.477 878.971 246.626 878.971 246.626L876.761 274.145C876.626 275.825 875.223 277.12 873.537 277.12Z" fill="#FFCBC7"/>
<path d="M878.971 246.627C878.971 247.373 874.118 247.977 868.133 247.977C862.147 247.977 857.295 247.372 857.295 246.627C857.295 245.881 862.147 245.276 868.133 245.276C874.118 245.276 878.971 245.881 878.971 246.627Z" fill="#FFE4E3"/>
<path d="M875.416 245.626C873.492 245.409 870.937 245.276 868.133 245.276C865.329 245.276 862.774 245.409 860.849 245.626H857.295V246.627C857.295 247.373 862.147 247.977 868.133 247.977C874.118 247.977 878.971 247.372 878.971 246.627V245.626H875.416Z" fill="#FFE4E3"/>
<path d="M878.971 245.626C878.971 246.372 874.118 246.977 868.133 246.977C862.147 246.977 857.295 246.372 857.295 245.626C857.295 244.881 862.147 244.276 868.133 244.276C874.118 244.276 878.971 244.881 878.971 245.626Z" fill="#FFE9E9"/>
<path d="M878.397 245.562C878.397 246.15 873.802 246.627 868.133 246.627C862.463 246.627 857.868 246.15 857.868 245.562C857.868 244.974 862.463 244.497 868.133 244.497C873.802 244.497 878.397 244.974 878.397 245.562Z" fill="#F9D7D7"/>
<path d="M868.133 244.681C862.762 244.681 858.358 245.109 857.908 245.654C858.358 246.199 862.762 246.627 868.133 246.627C873.503 246.627 877.907 246.199 878.357 245.654C877.907 245.109 873.503 244.681 868.133 244.681Z" fill="#FFE4E3"/>
<path d="M878.518 252.266H857.748C857.748 252.268 859.505 274.145 859.505 274.145C859.64 275.825 861.043 277.12 862.728 277.12H873.537C875.223 277.12 876.626 275.825 876.761 274.145L878.518 252.267L878.518 252.266Z" fill="#E87C56"/>
<path d="M868.133 251.293C862.678 251.293 858.204 251.721 857.748 252.266C858.204 252.811 862.678 253.239 868.133 253.239C873.588 253.239 878.061 252.811 878.518 252.266C878.061 251.721 873.587 251.293 868.133 251.293Z" fill="#F48967"/>
<path d="M866.568 258.661C866.568 258.661 866.772 257.722 867.344 257.722C867.915 257.722 868.446 258.212 868.201 258.416C867.956 258.62 867.63 258.865 867.63 259.436C867.63 260.008 866.037 259.681 866.568 258.661ZM862.06 255.805C862.06 255.805 863.019 255.848 863.116 256.411C863.212 256.974 862.819 257.58 862.577 257.373C862.334 257.166 862.038 256.886 861.474 256.982C860.911 257.079 860.964 255.455 862.06 255.805ZM874.224 255.642C874.224 255.642 875.183 255.685 875.28 256.248C875.376 256.811 874.983 257.417 874.741 257.21C874.498 257.003 874.201 256.722 873.638 256.819C873.075 256.915 873.128 255.291 874.224 255.642ZM872.65 261.804C872.65 261.804 874.472 262.261 874.568 262.824C874.665 263.387 874.283 263.477 873.557 263.822C873.269 263.959 871.834 264.089 871.793 263.314C871.763 262.744 871.554 261.453 872.65 261.804ZM863.17 270.192C863.17 270.192 864.719 270.581 864.801 271.06C864.883 271.539 864.558 271.615 863.941 271.908C863.696 272.025 862.476 272.136 862.441 271.476C862.415 270.991 862.238 269.894 863.17 270.192ZM865.856 265.03C865.856 265.03 866.815 265.073 866.912 265.636C867.008 266.199 866.615 266.805 866.373 266.598C866.13 266.391 865.834 266.111 865.271 266.207C864.707 266.304 864.76 264.679 865.856 265.03ZM862.498 261.149C862.498 261.149 864.106 261.22 864.267 262.164C864.429 263.107 863.77 264.122 863.364 263.775C862.958 263.429 861.996 263.681 861.518 263.12C860.896 262.392 860.663 260.562 862.498 261.149ZM872.58 269.312C872.58 269.312 874.188 269.384 874.349 270.327C874.511 271.271 873.852 272.285 873.446 271.939C873.04 271.592 872.078 271.845 871.6 271.284C870.978 270.556 870.745 268.725 872.58 269.312Z" fill="#AD715E"/>
<path d="M872.319 252.362C872.203 251.686 871.052 251.635 871.052 251.635C869.984 251.293 869.895 252.096 870.138 252.689C870.905 252.673 871.64 252.649 872.336 252.618C872.339 252.533 872.334 252.447 872.319 252.362ZM865.63 251.599C865.058 251.599 864.854 252.538 864.854 252.538C864.833 252.577 864.817 252.615 864.803 252.653C865.222 252.667 865.653 252.679 866.095 252.688C866.209 252.518 866.359 252.4 866.487 252.293C866.732 252.089 866.201 251.599 865.63 251.599Z" fill="#B77C6C"/>
<path opacity="0.16" d="M823.707 246.57C823.707 246.57 816.396 241.452 819.905 233.264C823.415 225.075 828.386 225.221 826.631 221.712C824.877 218.203 817.858 210.307 821.368 202.704C824.877 195.1 831.311 193.346 832.188 184.572C833.065 175.799 822.538 173.46 831.018 159.715C831.018 159.715 828.971 172.875 834.82 178.724C840.669 184.572 840.961 191.591 836.282 196.27C831.603 200.949 829.264 206.798 831.603 210.6C833.943 214.401 836.867 218.788 833.065 226.684C829.264 234.58 822.099 233.117 823.707 246.57Z" fill="white"/>
<path d="M865.042 253.843C865.042 256.009 864.099 279.331 831.317 279.331C799.372 279.331 797.591 256.009 797.591 253.843C797.591 251.677 812.69 249.921 831.317 249.921C849.943 249.921 865.042 251.677 865.042 253.843Z" fill="#FFE9E9"/>
<path d="M847.958 250.431C842.949 252.105 839.212 253.922 839.212 253.922C839.212 253.922 836.85 276.06 804.065 269.369C808.832 274.698 817.077 279.332 831.316 279.332C864.099 279.332 865.042 256.009 865.042 253.843C865.042 252.381 858.16 251.106 847.958 250.431Z" fill="#F9E1E1"/>
<path d="M861.825 251.961C856.426 250.632 844.796 249.712 831.316 249.712C817.837 249.712 806.207 250.632 800.808 251.961H797.591V253.634C797.591 255.8 812.69 257.555 831.317 257.555C849.943 257.555 865.042 255.8 865.042 253.634V251.961H861.825Z" fill="#F9D7D7"/>
<path d="M831.317 255.882C849.943 255.882 865.043 254.126 865.043 251.961C865.043 249.795 849.943 248.039 831.317 248.039C812.691 248.039 797.591 249.795 797.591 251.961C797.591 254.126 812.691 255.882 831.317 255.882Z" fill="#FFE9E9"/>
<path d="M863.89 251.961C863.89 253.766 849.306 255.229 831.317 255.229C813.327 255.229 798.744 253.766 798.744 251.961C798.744 250.155 813.327 248.502 831.317 248.502C849.306 248.502 863.89 250.155 863.89 251.961Z" fill="#F2C9C9"/>
<path d="M798.947 252.325C800.755 253.959 814.557 255.229 831.317 255.229C848.078 255.229 861.88 253.959 863.687 252.325C861.88 250.669 848.078 249.234 831.317 249.234C814.556 249.234 800.755 250.669 798.947 252.325Z" fill="#F9D7D7"/>
<path opacity="0.16" d="M790.945 250.09C790.945 250.09 783.121 244.613 786.877 235.849C790.632 227.085 795.953 227.242 794.075 223.486C792.198 219.73 784.686 211.279 788.442 203.142C792.198 195.004 799.083 193.126 800.022 183.736C800.961 174.347 789.694 171.843 798.77 157.132C798.77 157.132 796.579 171.217 802.839 177.477C809.099 183.736 809.412 191.248 804.404 196.256C799.396 201.264 796.892 207.524 799.396 211.593C801.9 215.661 805.03 220.356 800.961 228.807C796.892 237.257 789.224 235.693 790.945 250.09Z" fill="white"/>
<path opacity="0.78" d="M797.172 293.77H783.385C781.235 293.77 779.445 292.119 779.273 289.975L776.454 254.874C776.454 254.874 782.868 255.958 790.365 255.958C797.863 255.958 804.103 254.874 804.103 254.874L801.284 289.975C801.112 292.119 799.322 293.77 797.172 293.77Z" fill="#FFCBC7"/>
<path d="M804.103 254.874C804.103 255.825 797.914 256.596 790.279 256.596C782.644 256.596 776.454 255.825 776.454 254.874C776.454 253.923 782.644 253.151 790.279 253.151C797.914 253.151 804.103 253.922 804.103 254.874Z" fill="#FFE4E3"/>
<path d="M799.569 253.598C797.114 253.321 793.855 253.151 790.278 253.151C786.702 253.151 783.443 253.321 780.988 253.598H776.454V254.874C776.454 255.825 782.643 256.596 790.278 256.596C797.914 256.596 804.103 255.825 804.103 254.874V253.598H799.569Z" fill="#FFE4E3"/>
<path d="M804.103 253.598C804.103 254.549 797.914 255.321 790.279 255.321C782.644 255.321 776.454 254.549 776.454 253.598C776.454 252.647 782.644 251.876 790.279 251.876C797.914 251.876 804.103 252.647 804.103 253.598Z" fill="#FFE9E9"/>
<path d="M803.372 253.516C803.372 254.266 797.51 254.874 790.278 254.874C783.047 254.874 777.185 254.266 777.185 253.516C777.185 252.766 783.047 252.158 790.278 252.158C797.51 252.158 803.372 252.766 803.372 253.516Z" fill="#F9D7D7"/>
<path d="M790.278 252.392C783.427 252.392 777.809 252.938 777.236 253.633C777.809 254.328 783.427 254.874 790.278 254.874C797.128 254.874 802.746 254.328 803.319 253.633C802.746 252.938 797.128 252.392 790.278 252.392Z" fill="#FFE4E3"/>
<path d="M803.525 262.067H777.032C777.032 262.07 779.273 289.975 779.273 289.975C779.445 292.119 781.235 293.77 783.385 293.77H797.172C799.322 293.77 801.112 292.119 801.284 289.975L803.525 262.068L803.525 262.067Z" fill="#FFE5BD"/>
<path d="M790.278 260.826C783.321 260.826 777.614 261.372 777.032 262.067C777.614 262.762 783.32 263.308 790.278 263.308C797.236 263.308 802.943 262.762 803.525 262.067C802.943 261.372 797.236 260.826 790.278 260.826Z" fill="#FFEEC2"/>
<path d="M788.283 270.224C788.283 270.224 788.543 269.027 789.272 269.027C790.001 269.027 790.678 269.652 790.366 269.912C790.053 270.172 789.637 270.485 789.637 271.214C789.637 271.942 787.606 271.526 788.283 270.224ZM782.533 266.582C782.533 266.582 783.757 266.636 783.88 267.355C784.003 268.073 783.501 268.846 783.192 268.582C782.883 268.318 782.505 267.96 781.786 268.083C781.067 268.206 781.135 266.134 782.533 266.582ZM798.048 266.374C798.048 266.374 799.272 266.428 799.395 267.146C799.518 267.865 799.017 268.638 798.707 268.374C798.398 268.11 798.02 267.752 797.301 267.875C796.583 267.998 796.651 265.926 798.048 266.374ZM796.041 274.233C796.041 274.233 798.365 274.817 798.488 275.535C798.611 276.253 798.123 276.368 797.198 276.808C796.83 276.983 795 277.149 794.947 276.16C794.909 275.432 794.644 273.786 796.041 274.233ZM783.948 284.933C783.948 284.933 785.924 285.429 786.029 286.039C786.134 286.65 785.719 286.748 784.932 287.122C784.62 287.27 783.063 287.412 783.019 286.571C782.986 285.952 782.76 284.552 783.948 284.933ZM787.375 278.348C787.375 278.348 788.599 278.403 788.722 279.121C788.845 279.84 788.344 280.612 788.034 280.348C787.725 280.084 787.347 279.727 786.628 279.85C785.91 279.973 785.977 277.901 787.375 278.348ZM783.091 273.398C783.091 273.398 785.142 273.489 785.348 274.692C785.554 275.896 784.714 277.19 784.196 276.748C783.678 276.305 782.452 276.628 781.841 275.912C781.048 274.984 780.751 272.648 783.091 273.398ZM795.951 283.811C795.951 283.811 798.002 283.902 798.208 285.105C798.414 286.309 797.574 287.603 797.056 287.161C796.538 286.719 795.312 287.041 794.701 286.326C793.909 285.397 793.611 283.062 795.951 283.811ZM795.619 262.189C795.471 261.327 794.003 261.262 794.003 261.262C792.64 260.826 792.527 261.851 792.837 262.606C793.814 262.587 794.752 262.556 795.64 262.516C795.644 262.408 795.637 262.298 795.619 262.189ZM787.085 261.217C786.357 261.217 786.096 262.414 786.096 262.414C786.07 262.464 786.05 262.513 786.031 262.56C786.566 262.578 787.116 262.594 787.679 262.605C787.825 262.388 788.015 262.238 788.179 262.102C788.491 261.842 787.814 261.217 787.085 261.217Z" fill="#FFCBC7"/>
<path d="M752.068 261.925C752.068 261.925 764.126 264.777 791.96 266.131C819.793 267.486 833.755 266.444 833.755 266.444V406.05L765.244 400.527C757.802 399.927 752.068 393.713 752.068 386.247V261.925Z" fill="url(#paint30_linear_49_393)"/>
<path d="M752.068 296.02C752.068 296.02 768.776 298.628 790.686 300.506C812.595 302.384 833.755 302.916 833.755 302.916V294.152C833.755 294.152 807.944 292.79 791.334 291.797C774.723 290.803 752.069 287.257 752.069 287.257V296.02H752.068ZM752.068 373.329C752.068 373.329 774.117 376.643 790.708 378.182C807.298 379.721 833.755 380.225 833.755 380.225V371.461C833.755 371.461 810.098 371.167 791.64 369.497C773.182 367.827 752.068 364.565 752.068 364.565V373.329Z" fill="url(#paint31_linear_49_393)"/>
<path d="M818.147 340.31C818.147 340.31 792.481 335.72 791.751 334.572C791.021 333.424 792.899 331.546 794.777 330.607C796.654 329.668 802.184 325.287 801.663 323.93C801.141 322.574 793.733 322.47 787.891 325.808C782.048 329.147 774.85 330.399 771.511 329.355C769.335 328.675 759 323.694 752.069 320.309V353.185C755.495 353.957 763.507 355.899 768.173 358.151C774.224 361.072 800.411 367.332 806.149 362.741C807.714 360.968 808.027 357.42 808.027 357.42C808.027 357.42 815.863 358.958 813.562 350.678C813.562 350.678 817.208 351.682 817.521 348.344L817.312 345.109C817.312 345.109 818.981 343.44 818.147 340.31Z" fill="#2B374C"/>
<path d="M833.755 266.445C833.755 266.445 847.578 265.144 882.727 256.116C917.876 247.088 928.586 241.719 928.586 241.719C928.586 241.719 930.301 274.895 930.301 298.996C930.301 314.405 929.6 334.971 929.095 347.799C928.804 355.184 924.478 361.812 917.834 365.051L833.755 406.05L833.755 266.445Z" fill="url(#paint32_linear_49_393)"/>
<path d="M882.726 256.116C874.494 258.23 867.432 259.921 861.443 261.27V301.541C861.443 319.834 879.727 332.486 896.846 326.04L930.144 313.501C930.241 308.44 930.301 303.497 930.301 298.996C930.301 274.895 928.586 241.718 928.586 241.718C928.586 241.718 917.876 247.087 882.726 256.116Z" fill="#497FD7" fill-opacity="0.25"/>
<path d="M833.755 302.916L929.812 271.991C929.723 269.104 929.627 266.292 929.529 263.619L833.755 294.152V302.916ZM833.755 380.224L929.358 340.829C929.457 338.113 929.557 335.216 929.653 332.211L833.754 371.461L833.755 380.224Z" fill="url(#paint33_linear_49_393)"/>
<path d="M696.618 186.743C696.618 186.743 679.715 181.578 667.977 235.105C656.238 288.632 658.497 313.921 674.081 318.682C689.664 323.443 703.192 293.327 709.296 254.356C715.4 215.385 713.522 187.682 696.618 186.743Z" fill="url(#paint34_linear_49_393)"/>
<path d="M662.008 268.292C669.603 271.643 688.522 279.453 703.503 281.191C704.927 276.211 706.212 270.883 707.34 265.298L665.408 247.519C663.943 255.093 662.81 262.009 662.008 268.292Z" fill="#F77F7C"/>
<path d="M690.238 297.222C692.099 297.036 696.611 297.845 697.567 298.022C698.379 296.168 699.166 294.215 699.926 292.171C697.009 293.196 690.238 297.222 690.238 297.222Z" fill="#E57373"/>
<path d="M693.332 295.675C693.332 295.675 735.59 317.743 760.475 329.481C767.048 332.298 771.744 331.829 777.378 328.073C783.013 324.316 794.324 321.456 799.02 322.864C803.715 324.273 799.856 325.36 797.039 326.925C794.222 328.489 789.143 331.077 789.613 332.799C790.049 334.399 807.127 337.759 815.938 339.103C818.489 339.492 818.698 342.644 816.25 343.462C815.766 343.623 814.36 344.208 813.676 344.254C813.676 344.254 821.689 349.397 813.081 350.492C813.081 350.492 816.514 356.006 807.437 356.632C807.437 356.632 809.644 361.437 802.445 361.75C795.246 362.063 784.292 359.872 771.928 356.116C759.565 352.36 710.663 344.993 695.872 340.936C669.678 333.753 659.095 321.531 660.661 293.049C663.164 288.354 674.986 286.877 693.332 295.675Z" fill="url(#paint35_linear_49_393)"/>
<path d="M814.652 344.223C817.953 344.003 818.778 342.236 818.542 340.825C818.405 340.002 817.739 339.369 816.914 339.248C808.494 338.02 790.594 334.495 790.141 332.833C789.671 331.111 794.621 329.043 797.438 327.478C800.255 325.913 804.142 323.847 799.446 322.438C794.751 321.03 782.902 324.059 777.267 327.816C772.265 331.151 768.096 331.593 762.614 329.706C761.982 329.488 761.299 329.864 761.147 330.516C760.129 334.887 757.679 344.208 758.747 353.056C758.802 353.515 759.145 353.886 759.598 353.974C764.881 355.009 769.284 355.666 771.92 356.467C784.283 360.223 795.287 362.391 802.486 362.078C809.685 361.765 807.923 356.899 807.923 356.899C817 356.273 813.557 350.639 813.557 350.639C822.164 349.544 814.652 344.223 814.652 344.223Z" fill="url(#paint36_linear_49_393)"/>
<path d="M814.655 344.262C813.13 344.418 811.601 344.501 810.07 344.569C808.539 344.624 807.006 344.645 805.472 344.633C804.705 344.635 803.939 344.616 803.17 344.611C802.403 344.585 801.636 344.551 800.873 344.46C800.492 344.414 800.11 344.372 799.729 344.321C799.35 344.26 798.969 344.206 798.591 344.137C798.402 344.102 798.212 344.073 798.024 344.035L797.459 343.913C797.084 343.826 796.709 343.741 796.337 343.636L796.347 343.559C797.892 343.533 799.41 343.624 800.934 343.68C802.455 343.743 803.969 343.927 805.493 344.008C807.015 344.097 808.54 344.155 810.067 344.178C811.593 344.216 813.121 344.215 814.649 344.184L814.655 344.262ZM813.562 350.678C812.898 350.804 812.231 350.908 811.561 350.998L810.556 351.128L809.548 351.241C808.202 351.372 806.851 351.457 805.497 351.504C804.82 351.534 804.142 351.542 803.463 351.557C803.124 351.561 802.785 351.548 802.445 351.536L801.937 351.51C801.768 351.497 801.599 351.478 801.43 351.463L800.418 351.344C800.082 351.288 799.746 351.236 799.412 351.171C799.245 351.139 799.078 351.11 798.912 351.075L798.415 350.954C798.086 350.867 797.756 350.782 797.432 350.677L797.444 350.6C798.809 350.577 800.141 350.659 801.482 350.682C802.818 350.712 804.152 350.856 805.494 350.878C806.835 350.909 808.179 350.903 809.522 350.851C810.866 350.812 812.21 350.726 813.551 350.6L813.562 350.678ZM807.928 356.938C807.364 357.047 806.797 357.133 806.226 357.202C805.942 357.24 805.656 357.268 805.37 357.301L804.512 357.381L803.65 357.437C803.363 357.454 803.075 357.461 802.788 357.474C802.5 357.487 802.212 357.485 801.924 357.487C801.636 357.49 801.347 357.493 801.059 357.483C800.77 357.478 800.481 357.478 800.192 357.468L799.325 357.435C799.035 357.427 798.748 357.389 798.46 357.358C798.172 357.323 797.885 357.287 797.601 357.226L796.751 357.042C796.47 356.967 796.191 356.887 795.914 356.799C795.776 356.755 795.637 356.714 795.5 356.667C795.363 356.617 795.228 356.561 795.093 356.508C794.825 356.395 794.557 356.283 794.297 356.154L794.319 356.079C795.479 356.172 796.59 356.346 797.718 356.453C797.997 356.494 798.279 356.514 798.559 356.55L798.979 356.607C799.119 356.629 799.258 356.649 799.399 356.664L800.242 356.777C800.523 356.808 800.806 356.83 801.088 356.858C801.371 356.885 801.654 356.9 801.938 356.915C802.222 356.929 802.505 356.949 802.789 356.954C803.074 356.963 803.358 356.977 803.642 356.981L804.496 356.99C805.636 356.996 806.778 356.952 807.917 356.86L807.928 356.938Z" fill="#B8C3CD"/>
<path d="M695.679 178.761C695.679 178.761 667.507 181.109 659.055 262.808C659.055 262.808 686.758 278.772 708.826 278.302C708.826 278.302 741.693 186.743 695.679 178.761Z" fill="url(#paint37_linear_49_393)"/>
<path d="M720.598 216.053C716.842 178.652 690.823 179.673 690.821 179.674C690.161 180.246 689.549 180.937 688.983 181.734C688.933 181.768 688.883 181.803 688.833 181.838C715.206 184.473 720.598 216.053 720.598 216.053Z" fill="#EB4D4D"/>
<path d="M1037.33 688.169H911.727C905.804 688.169 901 683.365 901 677.442V446.757C901 440.834 905.804 436.029 911.727 436.029H1037.33C1043.25 436.029 1048.05 440.834 1048.05 446.757V677.446C1048.05 683.369 1043.25 688.169 1037.33 688.169Z" fill="url(#paint38_linear_49_393)"/>
<path d="M1048.05 673.219V472.98C1048.05 464.722 1041.36 458.026 1033.1 458.026H915.95C907.696 458.026 901.004 464.717 901.004 472.98V673.219H1048.05Z" fill="#EDF2F7"/>
<path d="M991.189 448.932H966.817C965.551 448.932 964.521 447.907 964.521 446.637V444.83C964.521 443.564 965.547 442.534 966.817 442.534H991.189C992.454 442.534 993.485 443.56 993.485 444.83V446.637C993.485 447.902 992.454 448.932 991.189 448.932Z" fill="#BCABF6"/>
<path d="M956.631 448.932C958.397 448.932 959.828 447.501 959.828 445.736C959.828 443.97 958.397 442.539 956.631 442.539C954.865 442.539 953.434 443.97 953.434 445.736C953.434 447.501 954.865 448.932 956.631 448.932Z" fill="#BCABF6"/>
<path d="M1017.39 593.878V458.026H997.085L989.981 477.181H901V491.794H984.782L969.348 527.626V551.527L945.402 539.579V539.81L940.806 537.563V537.288L901 517.427V524.482L969.179 559.795V594.086H901V604.49H969.015V610.599L963.562 624.843L961.906 629.177L945.038 673.219H956.267L972.873 629.177L974.507 624.843L979.254 612.251V603.997H1005.01V673.219H1017.39V604.281H1048.05V593.878H1017.39ZM1005.18 594.415H979.582V529.198L1004.39 466.822H1005.18V594.415Z" fill="#D1C6F7"/>
<path d="M1005.01 645.517V652.923L976.9 629.173H972.873L974.507 624.843H980.617L1005.01 645.517Z" fill="#D1C6F7"/>
<path d="M963.562 624.843L961.906 629.173H901V624.843H963.562Z" fill="#D1C6F7"/>
<path d="M1037.7 673.219H1029.04L1017.4 663.384V656.009L1037.7 673.219Z" fill="#D1C6F7"/>
<path d="M945.402 491.794V539.583L940.806 537.288V491.794H945.402Z" fill="#D1C6F7"/>
<path d="M998.511 486.572C998.511 495.066 983.13 513.706 983.13 513.706C983.13 513.706 967.749 495.066 967.749 486.572C967.749 478.078 974.636 471.191 983.13 471.191C991.624 471.191 998.511 478.078 998.511 486.572Z" fill="url(#paint39_linear_49_393)"/>
<path d="M983.13 497.335C977.193 497.335 972.367 492.504 972.367 486.572C972.367 480.635 977.198 475.809 983.13 475.809C989.066 475.809 993.893 480.64 993.893 486.572C993.893 492.508 989.062 497.335 983.13 497.335Z" fill="#EDF2F7"/>
<path d="M951.667 581.974C951.667 590.468 936.286 609.107 936.286 609.107C936.286 609.107 920.905 590.468 920.905 581.974C920.905 573.479 927.792 566.593 936.286 566.593C944.78 566.593 951.667 573.479 951.667 581.974Z" fill="url(#paint40_linear_49_393)"/>
<path d="M936.282 592.737C930.345 592.737 925.519 587.906 925.519 581.974C925.519 576.037 930.345 571.211 936.282 571.211C942.218 571.211 947.045 576.041 947.045 581.974C947.049 587.91 942.218 592.737 936.282 592.737Z" fill="#EDF2F7"/>
<path d="M1032.78 581.974C1032.78 590.468 1017.39 609.107 1017.39 609.107C1017.39 609.107 1002.01 590.468 1002.01 581.974C1002.01 573.479 1008.9 566.593 1017.39 566.593C1025.89 566.593 1032.78 573.479 1032.78 581.974Z" fill="url(#paint41_linear_49_393)"/>
<path d="M1017.39 592.737C1011.46 592.737 1006.63 587.906 1006.63 581.974C1006.63 576.037 1011.46 571.211 1017.39 571.211C1023.33 571.211 1028.16 576.041 1028.16 581.974C1028.16 587.91 1023.33 592.737 1017.39 592.737Z" fill="#EDF2F7"/>
</g>
<defs>
<linearGradient id="paint0_linear_49_393" x1="1.96718e-06" y1="357" x2="1599.97" y2="352.503" gradientUnits="userSpaceOnUse">
<stop stop-color="#C0B9FC"/>
<stop offset="0.512305" stop-color="#8C84FF"/>
<stop offset="1" stop-color="#605AFF"/>
</linearGradient>
<linearGradient id="paint1_linear_49_393" x1="1316.15" y1="695.583" x2="1328.91" y2="695.583" gradientUnits="userSpaceOnUse">
<stop stop-color="white"/>
<stop offset="1" stop-color="white" stop-opacity="0.82"/>
</linearGradient>
<linearGradient id="paint2_linear_49_393" x1="1328.91" y1="709.924" x2="1367.2" y2="709.924" gradientUnits="userSpaceOnUse">
<stop stop-color="white"/>
<stop offset="1" stop-color="white" stop-opacity="0.82"/>
</linearGradient>
<linearGradient id="paint3_linear_49_393" x1="1329.13" y1="681.182" x2="1367.1" y2="681.182" gradientUnits="userSpaceOnUse">
<stop stop-color="white"/>
<stop offset="1" stop-color="white" stop-opacity="0.82"/>
</linearGradient>
<linearGradient id="paint4_linear_49_393" x1="967.087" y1="368.08" x2="1083.97" y2="244.986" gradientUnits="userSpaceOnUse">
<stop offset="0.184024" stop-color="#006D5E"/>
<stop offset="1" stop-color="#10F1D3"/>
</linearGradient>
<linearGradient id="paint5_linear_49_393" x1="967.116" y1="369.166" x2="1079.85" y2="246.237" gradientUnits="userSpaceOnUse">
<stop offset="0.184024" stop-color="#006D5E"/>
<stop offset="1" stop-color="#10F1D3"/>
</linearGradient>
<linearGradient id="paint6_linear_49_393" x1="951.117" y1="353.105" x2="1110.55" y2="326.693" gradientUnits="userSpaceOnUse">
<stop stop-color="#7B73FF"/>
<stop offset="1" stop-color="#766FFF"/>
</linearGradient>
<linearGradient id="paint7_linear_49_393" x1="979.645" y1="380.915" x2="1032.32" y2="266.172" gradientUnits="userSpaceOnUse">
<stop offset="0.184024" stop-color="#006D5E"/>
<stop offset="1" stop-color="#10F1D3"/>
</linearGradient>
<linearGradient id="paint8_linear_49_393" x1="979.731" y1="383.864" x2="1018.8" y2="281.645" gradientUnits="userSpaceOnUse">
<stop offset="0.184024" stop-color="#006D5E"/>
<stop offset="1" stop-color="#10F1D3"/>
</linearGradient>
<linearGradient id="paint9_linear_49_393" x1="961.762" y1="376.02" x2="1137.94" y2="314.395" gradientUnits="userSpaceOnUse">
<stop stop-color="#7B73FF"/>
<stop offset="1" stop-color="#756DFF"/>
</linearGradient>
<linearGradient id="paint10_linear_49_393" x1="551.025" y1="315.581" x2="560.525" y2="142.558" gradientUnits="userSpaceOnUse">
<stop offset="0.184024" stop-color="#006D5E"/>
<stop offset="1" stop-color="#10F1D3"/>
</linearGradient>
<linearGradient id="paint11_linear_49_393" x1="784.674" y1="605.157" x2="784.674" y2="633.211" gradientUnits="userSpaceOnUse">
<stop stop-color="#FCAFAF"/>
<stop offset="1" stop-color="white"/>
</linearGradient>
<linearGradient id="paint12_linear_49_393" x1="736.501" y1="440.029" x2="814.614" y2="399.885" gradientUnits="userSpaceOnUse">
<stop stop-color="#275D92"/>
<stop offset="1" stop-color="#4193E3"/>
</linearGradient>
<linearGradient id="paint13_linear_49_393" x1="767.583" y1="547.734" x2="826.14" y2="545.179" gradientUnits="userSpaceOnUse">
<stop stop-color="#275D92"/>
<stop offset="1" stop-color="#4193E3"/>
</linearGradient>
<linearGradient id="paint14_linear_49_393" x1="823.001" y1="628.529" x2="757.501" y2="648.529" gradientUnits="userSpaceOnUse">
<stop stop-color="white"/>
<stop offset="1" stop-color="#CCDAE7"/>
</linearGradient>
<linearGradient id="paint15_linear_49_393" x1="691.294" y1="626.735" x2="691.294" y2="657.023" gradientUnits="userSpaceOnUse">
<stop stop-color="#F8A3A3"/>
<stop offset="1" stop-color="white"/>
</linearGradient>
<linearGradient id="paint16_linear_49_393" x1="688.001" y1="438.529" x2="746.001" y2="472.029" gradientUnits="userSpaceOnUse">
<stop stop-color="#275D92"/>
<stop offset="1" stop-color="#4193E3"/>
</linearGradient>
<linearGradient id="paint17_linear_49_393" x1="668.501" y1="575.029" x2="740.964" y2="559.852" gradientUnits="userSpaceOnUse">
<stop stop-color="#275D92"/>
<stop offset="1" stop-color="#4193E3"/>
</linearGradient>
<linearGradient id="paint18_linear_49_393" x1="729.31" y1="651.46" x2="661.615" y2="669.928" gradientUnits="userSpaceOnUse">
<stop stop-color="white"/>
<stop offset="1" stop-color="#CCDAE7"/>
</linearGradient>
<linearGradient id="paint19_linear_49_393" x1="737.918" y1="140.405" x2="737.918" y2="191.424" gradientUnits="userSpaceOnUse">
<stop offset="0.217545" stop-color="white"/>
<stop offset="0.782591" stop-color="#FFC2C2"/>
</linearGradient>
<linearGradient id="paint20_linear_49_393" x1="773.001" y1="83.0293" x2="716.001" y2="159.029" gradientUnits="userSpaceOnUse">
<stop stop-color="white"/>
<stop offset="0.777119" stop-color="#FFC2C2"/>
</linearGradient>
<linearGradient id="paint21_linear_49_393" x1="731.923" y1="82.6747" x2="731.923" y2="125.576" gradientUnits="userSpaceOnUse">
<stop stop-color="#FE9696"/>
<stop offset="1" stop-color="#FFCECE"/>
</linearGradient>
<linearGradient id="paint22_linear_49_393" x1="704.721" y1="122.631" x2="719.199" y2="139.214" gradientUnits="userSpaceOnUse">
<stop stop-color="white"/>
<stop offset="1" stop-color="#FFC2C2"/>
</linearGradient>
<linearGradient id="paint23_linear_49_393" x1="764.501" y1="74.0293" x2="694.001" y2="112.529" gradientUnits="userSpaceOnUse">
<stop stop-color="#EE5252"/>
<stop offset="1" stop-color="#FF9A9A"/>
</linearGradient>
<linearGradient id="paint24_linear_49_393" x1="661.001" y1="254.529" x2="821.001" y2="249.529" gradientUnits="userSpaceOnUse">
<stop stop-color="#F24F4F"/>
<stop offset="1" stop-color="#F48080"/>
</linearGradient>
<linearGradient id="paint25_linear_49_393" x1="763.001" y1="278.029" x2="685.501" y2="346.529" gradientUnits="userSpaceOnUse">
<stop stop-color="#EA4B4B"/>
<stop offset="1" stop-color="#F05757"/>
</linearGradient>
<linearGradient id="paint26_linear_49_393" x1="727.171" y1="169.105" x2="727.171" y2="266.758" gradientUnits="userSpaceOnUse">
<stop stop-color="#313D56"/>
<stop offset="1" stop-color="#225ACD"/>
</linearGradient>
<linearGradient id="paint27_linear_49_393" x1="786.703" y1="168.272" x2="786.703" y2="251.421" gradientUnits="userSpaceOnUse">
<stop stop-color="#313D56"/>
<stop offset="1" stop-color="#225ACD"/>
</linearGradient>
<linearGradient id="paint28_linear_49_393" x1="789.475" y1="219.731" x2="789.475" y2="261.925" gradientUnits="userSpaceOnUse">
<stop stop-color="#394963"/>
<stop offset="1" stop-color="#235098"/>
</linearGradient>
<linearGradient id="paint29_linear_49_393" x1="735.001" y1="237.029" x2="763.001" y2="258.029" gradientUnits="userSpaceOnUse">
<stop stop-color="#394963"/>
<stop offset="1" stop-color="#234B8E"/>
</linearGradient>
<linearGradient id="paint30_linear_49_393" x1="752.277" y1="340.692" x2="852.654" y2="328.026" gradientUnits="userSpaceOnUse">
<stop stop-color="#618BCE"/>
<stop offset="1" stop-color="#2B384E"/>
</linearGradient>
<linearGradient id="paint31_linear_49_393" x1="752.278" y1="333.826" x2="840.083" y2="311.764" gradientUnits="userSpaceOnUse">
<stop stop-color="#FFE2BE"/>
<stop offset="1" stop-color="#EB9A35"/>
</linearGradient>
<linearGradient id="paint32_linear_49_393" x1="834.001" y1="331.529" x2="952.501" y2="316.029" gradientUnits="userSpaceOnUse">
<stop stop-color="#2B384E"/>
<stop offset="1" stop-color="#618BCE"/>
</linearGradient>
<linearGradient id="paint33_linear_49_393" x1="834.001" y1="322.029" x2="938.001" y2="297.529" gradientUnits="userSpaceOnUse">
<stop stop-color="#F9A43C"/>
<stop offset="1" stop-color="#FFE2BE"/>
</linearGradient>
<linearGradient id="paint34_linear_49_393" x1="712.001" y1="215.029" x2="661.001" y2="313.529" gradientUnits="userSpaceOnUse">
<stop stop-color="white"/>
<stop offset="0.751658" stop-color="#FFC2C2"/>
</linearGradient>
<linearGradient id="paint35_linear_49_393" x1="759.501" y1="349.529" x2="661.001" y2="289.029" gradientUnits="userSpaceOnUse">
<stop stop-color="white"/>
<stop offset="1" stop-color="#FFC2C2"/>
</linearGradient>
<linearGradient id="paint36_linear_49_393" x1="758.001" y1="350.529" x2="800.001" y2="327.029" gradientUnits="userSpaceOnUse">
<stop stop-color="#D7E2EE"/>
<stop offset="1" stop-color="white"/>
</linearGradient>
<linearGradient id="paint37_linear_49_393" x1="646.765" y1="223.851" x2="738.049" y2="220.478" gradientUnits="userSpaceOnUse">
<stop offset="0.188191" stop-color="#FA6464"/>
<stop offset="1" stop-color="#C42727"/>
</linearGradient>
<linearGradient id="paint38_linear_49_393" x1="974.527" y1="436.029" x2="974.527" y2="688.169" gradientUnits="userSpaceOnUse">
<stop stop-color="white"/>
<stop offset="0.163135" stop-color="#C3B9FF"/>
</linearGradient>
<linearGradient id="paint39_linear_49_393" x1="968" y1="482.029" x2="999" y2="490.029" gradientUnits="userSpaceOnUse">
<stop stop-color="#EA2A48"/>
<stop offset="1" stop-color="#FF7C91"/>
</linearGradient>
<linearGradient id="paint40_linear_49_393" x1="922.5" y1="580.529" x2="952" y2="585.529" gradientUnits="userSpaceOnUse">
<stop stop-color="#EA2A48"/>
<stop offset="1" stop-color="#FF7C91"/>
</linearGradient>
<linearGradient id="paint41_linear_49_393" x1="999.5" y1="586.029" x2="1035" y2="588.029" gradientUnits="userSpaceOnUse">
<stop stop-color="#EA2A48"/>
<stop offset="1" stop-color="#FF7C91"/>
</linearGradient>
<clipPath id="clip0_49_393">
<rect width="1600" height="760" fill="white"/>
</clipPath>
<clipPath id="clip1_49_393">
<rect width="243.087" height="57.5294" fill="white" transform="translate(1316.15 666.735)"/>
</clipPath>
</defs>
</svg>
