<svg width="1600" height="760" viewBox="0 0 1600 760" fill="none" xmlns="http://www.w3.org/2000/svg">
<g clip-path="url(#clip0_75_1417)">
<rect width="1600" height="760" fill="url(#paint0_radial_75_1417)"/>
<rect width="1600" height="760" fill="url(#paint1_linear_75_1417)"/>
<g clip-path="url(#clip1_75_1417)">
<path d="M1391.38 704.81C1389.78 704.857 1388.21 704.457 1386.84 703.655C1385.58 702.88 1384.57 701.757 1383.94 700.421C1383.24 698.917 1382.89 697.273 1382.93 695.614C1382.89 693.954 1383.24 692.308 1383.94 690.802C1384.57 689.467 1385.58 688.344 1386.84 687.569C1388.21 686.767 1389.78 686.366 1391.38 686.413C1393.19 686.347 1394.98 686.882 1396.47 687.938C1397.84 688.968 1398.85 690.409 1399.34 692.052L1396.36 692.875C1396.08 691.814 1395.46 690.87 1394.61 690.177C1393.67 689.496 1392.53 689.158 1391.38 689.219C1390.33 689.18 1389.3 689.458 1388.41 690.015C1387.61 690.568 1386.99 691.352 1386.64 692.264C1386.22 693.342 1386.01 694.49 1386.03 695.646C1386 696.799 1386.21 697.947 1386.62 699.023C1386.98 699.938 1387.61 700.722 1388.42 701.271C1389.31 701.828 1390.34 702.106 1391.39 702.067C1392.54 702.118 1393.68 701.772 1394.6 701.087C1395.46 700.393 1396.07 699.45 1396.36 698.389L1399.34 699.171C1398.85 700.812 1397.85 702.253 1396.48 703.286C1395 704.345 1393.2 704.881 1391.38 704.81Z" fill="white"/>
<path d="M1402.59 704.446V686.778H1409.88C1410.06 686.778 1410.28 686.778 1410.55 686.778C1410.8 686.789 1411.05 686.816 1411.3 686.859C1412.22 686.973 1413.09 687.325 1413.83 687.879C1414.49 688.396 1415.01 689.079 1415.32 689.858C1415.65 690.705 1415.81 691.607 1415.8 692.516C1415.83 693.836 1415.45 695.134 1414.71 696.226C1414.31 696.759 1413.81 697.204 1413.23 697.534C1412.66 697.865 1412.02 698.073 1411.36 698.146L1410.1 698.254H1405.55V704.446H1402.59ZM1405.55 695.515H1409.76C1409.93 695.515 1410.11 695.515 1410.32 695.488C1410.51 695.476 1410.7 695.442 1410.88 695.389C1411.32 695.297 1411.73 695.071 1412.04 694.742C1412.32 694.44 1412.52 694.079 1412.64 693.685C1412.76 693.312 1412.81 692.924 1412.82 692.534C1412.81 692.141 1412.76 691.75 1412.64 691.374C1412.52 690.978 1412.32 690.615 1412.04 690.312C1411.73 689.986 1411.32 689.762 1410.88 689.669C1410.69 689.622 1410.51 689.591 1410.32 689.579C1410.11 689.579 1409.93 689.579 1409.76 689.579H1405.55V695.515ZM1412.74 704.446L1409.26 697.251L1412.26 696.59L1416.09 704.442L1412.74 704.446Z" fill="white"/>
<path d="M1419.35 704.446V686.778H1430.75V689.552H1422.3V693.905H1429.28V696.68H1422.3V701.672H1430.75V704.446H1419.35Z" fill="white"/>
<path d="M1433.04 704.446L1438.6 686.778H1442.93L1448.5 704.446H1445.46L1440.41 688.595H1441.07L1436.08 704.446H1433.04ZM1436.14 700.615V697.858H1445.41V700.615H1436.14Z" fill="white"/>
<path d="M1454.05 704.446V689.552H1448.33V686.778H1462.72V689.552H1457V704.446H1454.05Z" fill="white"/>
<path d="M1465.49 704.446V686.778H1468.45V704.446H1465.49Z" fill="white"/>
<path d="M1476.69 704.446L1471.1 686.778H1474.14L1478.8 701.573L1483.53 686.778H1486.58L1481 704.446H1476.69Z" fill="white"/>
<path d="M1488.97 704.446V686.778H1500.38V689.552H1491.93V693.905H1498.91V696.68H1491.93V701.672H1500.38V704.446H1488.97Z" fill="white"/>
<path d="M1504.12 704.446V686.778H1507.08V704.446H1504.12Z" fill="white"/>
<path d="M1515.58 704.446V689.552H1509.87V686.778H1524.26V689.552H1518.54V704.446H1515.58Z" fill="white"/>
<path d="M1526.78 704.446V686.778H1538.19V689.552H1529.76V693.905H1536.73V696.68H1529.76V701.672H1538.21V704.446H1526.78Z" fill="white"/>
<path d="M1541.7 704.446V686.778H1544.36L1550.47 699.293L1556.58 686.778H1559.24V704.446H1556.48V693.123L1551.06 704.446H1549.88L1544.48 693.123V704.446H1541.7Z" fill="white"/>
<path d="M1341.68 710.319L1328.91 702.949V717.685L1341.68 710.319Z" fill="white" fill-opacity="0.48"/>
<path d="M1367.2 695.583L1354.43 688.217V702.949L1367.2 695.583Z" fill="white" fill-opacity="0.47"/>
<path d="M1341.68 680.846L1328.91 673.48V688.217L1341.68 680.846Z" fill="white" fill-opacity="0.48"/>
<path d="M1328.91 673.48L1318.7 679.376C1317.93 679.822 1317.28 680.466 1316.83 681.243C1316.38 682.019 1316.15 682.9 1316.15 683.796V707.369C1316.15 708.266 1316.39 709.148 1316.83 709.924C1317.28 710.701 1317.93 711.346 1318.7 711.794L1328.91 717.685V673.48Z" fill="url(#paint2_linear_75_1417)"/>
<path d="M1367.2 707.369V695.583L1328.91 717.685L1339.12 723.581C1339.9 724.029 1340.78 724.265 1341.67 724.265C1342.57 724.265 1343.45 724.029 1344.22 723.581L1364.65 711.794C1365.42 711.345 1366.07 710.7 1366.51 709.923C1366.96 709.146 1367.2 708.266 1367.2 707.369Z" fill="url(#paint3_linear_75_1417)"/>
<path d="M1344.32 667.634C1343.55 667.19 1342.68 666.956 1341.79 666.956C1340.9 666.956 1340.03 667.19 1339.26 667.634L1329.13 673.48L1367.1 695.407V683.715C1367.1 682.826 1366.87 681.952 1366.42 681.182C1365.98 680.411 1365.34 679.771 1364.57 679.326L1344.32 667.634Z" fill="url(#paint4_linear_75_1417)"/>
</g>
<path opacity="0.24" d="M1124.33 415.305C1126.42 412.861 1130.54 413.199 1132.96 415.303C1135.37 417.407 1136.39 420.711 1136.84 423.898C1137.57 429.053 1137.13 433.898 1136.45 438.94C1139.01 434.853 1141.71 430.852 1144.54 426.947C1146.4 424.367 1148.33 421.827 1150.31 419.328C1144.85 414.596 1140.84 408.202 1138.98 401.216C1138.28 398.568 1137.97 395.443 1139.76 393.364C1141.84 390.935 1145.96 391.273 1148.38 393.366C1150.8 395.461 1151.82 398.747 1152.27 401.917C1153.03 407.238 1152.53 412.228 1151.81 417.449C1158 409.817 1164.72 402.618 1172.02 396.058C1167.5 390.56 1164.63 383.712 1163.91 376.624C1163.63 373.897 1163.82 370.764 1165.91 368.993C1168.35 366.926 1172.37 367.915 1174.43 370.367C1176.48 372.818 1176.97 376.225 1176.92 379.426C1176.82 384.614 1175.63 389.309 1174.16 394.161C1181.97 387.368 1190.68 381.037 1200.46 377.58C1200.66 377.508 1200.87 377.445 1201.07 377.375C1197.3 371.244 1195.39 363.972 1195.69 356.775C1195.8 354.036 1196.44 350.962 1198.76 349.509C1201.47 347.812 1205.31 349.366 1206.99 352.085C1208.68 354.805 1208.68 358.247 1208.17 361.408C1207.26 366.976 1205.15 371.783 1202.77 376.805C1214.18 373.121 1226.31 371.527 1237.56 367.456C1233.66 361.26 1231.68 353.864 1231.98 346.543C1232.1 343.805 1232.74 340.731 1235.06 339.277C1237.77 337.58 1241.6 339.134 1243.29 341.854C1244.97 344.573 1244.97 348.016 1244.46 351.176C1243.53 356.894 1241.33 361.808 1238.88 366.979C1241.67 365.912 1244.41 364.68 1247.06 363.207C1252.43 360.224 1257.11 356.117 1261.03 351.314C1255.47 346.297 1251.51 339.524 1249.89 332.206C1249.29 329.531 1249.12 326.396 1250.99 324.394C1253.17 322.054 1257.28 322.566 1259.61 324.759C1261.93 326.952 1262.82 330.279 1263.13 333.464C1263.72 339.307 1262.82 344.689 1261.76 350.403C1267.92 342.521 1272.08 332.895 1273.89 323.281C1269.43 318.148 1266.44 311.75 1265.39 305.028C1264.97 302.319 1264.99 299.18 1266.99 297.301C1269.31 295.105 1273.38 295.877 1275.56 298.215C1277.75 300.553 1278.42 303.928 1278.53 307.128C1278.71 312.232 1277.8 316.918 1276.63 321.76C1276.68 321.937 1276.7 322.135 1276.66 322.359C1275.31 330.576 1272.27 338.477 1267.99 345.607C1267.04 347.185 1266.04 348.728 1264.98 350.232C1270.54 346.669 1277.09 344.641 1283.69 344.484C1286.43 344.418 1289.53 344.858 1291.13 347.081C1293 349.679 1291.7 353.615 1289.1 355.478C1286.5 357.341 1283.07 357.563 1279.89 357.258C1273.96 356.687 1268.78 354.709 1263.29 352.514C1260.92 355.575 1258.27 358.414 1255.26 360.831C1250.7 364.493 1245.62 367.125 1240.29 369.18C1247.06 368.416 1254.04 369.587 1260.18 372.557C1262.64 373.75 1265.2 375.56 1265.61 378.269C1266.09 381.435 1263.14 384.344 1259.98 384.813C1256.82 385.283 1253.67 383.913 1250.97 382.187C1245.82 378.878 1242.05 374.614 1238.05 370.009C1229.15 373.144 1219.63 374.881 1210.6 377.23C1207.76 377.969 1204.96 378.783 1202.21 379.745C1209.51 378.544 1217.18 379.635 1223.84 382.852C1226.31 384.042 1228.87 385.848 1229.28 388.557C1229.77 391.722 1226.82 394.635 1223.66 395.108C1220.5 395.582 1217.35 394.217 1214.65 392.493C1209.37 389.116 1205.55 384.738 1201.43 380.017C1198.52 381.074 1195.68 382.314 1192.93 383.844C1187.91 386.643 1183.22 390.011 1178.77 393.639C1177.58 394.603 1176.42 395.591 1175.26 396.593C1181.75 394.879 1188.71 394.987 1195.13 396.946C1197.75 397.744 1200.56 399.137 1201.38 401.75C1202.34 404.805 1199.88 408.134 1196.83 409.086C1193.77 410.037 1190.45 409.171 1187.52 407.879C1182.12 405.494 1177.86 402.032 1173.38 398.262C1166.25 404.672 1159.71 411.768 1153.68 419.227C1159.8 415.826 1166.92 414.23 1173.91 414.734C1176.63 414.932 1179.68 415.666 1181.06 418.032C1182.67 420.796 1181.01 424.591 1178.24 426.196C1175.48 427.802 1172.04 427.696 1168.9 427.087C1162.95 425.931 1157.92 423.399 1152.55 420.633C1151.76 421.627 1150.98 422.628 1150.2 423.634C1145.96 429.159 1141.95 434.897 1138.27 440.839C1144.28 437.619 1151.21 436.118 1158.02 436.61C1160.75 436.808 1163.8 437.542 1165.18 439.908C1166.79 442.672 1165.12 446.467 1162.35 448.073C1159.59 449.678 1156.16 449.572 1153.02 448.963C1147.23 447.838 1142.31 445.414 1137.11 442.738C1133 449.561 1129.33 456.65 1126.26 463.994C1125.63 465.524 1123.3 464.426 1123.94 462.899C1127.03 455.483 1130.75 448.332 1134.91 441.445C1129.43 436.685 1125.41 430.243 1123.55 423.199C1122.85 420.541 1122.55 417.398 1124.33 415.305Z" fill="white"/>
<path opacity="0.24" d="M1007.2 312.755C1008.05 309.655 1011.92 308.204 1015 309.078C1018.08 309.952 1020.41 312.509 1022.17 315.203C1025.01 319.559 1026.68 324.131 1028.2 328.983C1028.78 324.193 1029.52 319.424 1030.43 314.685C1031.02 311.555 1031.68 308.436 1032.41 305.331C1025.47 303.373 1019.13 299.292 1014.48 293.763C1012.71 291.666 1011.11 288.967 1011.84 286.326C1012.7 283.241 1016.57 281.79 1019.65 282.655C1022.73 283.519 1025.05 286.059 1026.8 288.735C1029.74 293.23 1031.41 297.957 1032.98 302.989C1035.34 293.447 1038.37 284.068 1042.19 275.021C1035.76 271.969 1030.25 266.996 1026.59 260.888C1025.19 258.539 1024.03 255.619 1025.17 253.128C1026.5 250.217 1030.56 249.4 1033.46 250.743C1036.36 252.086 1038.25 254.961 1039.56 257.883C1041.68 262.617 1042.59 267.376 1043.32 272.392C1047.5 262.92 1052.7 253.478 1060.08 246.185C1060.23 246.033 1060.39 245.888 1060.55 245.738C1054.53 241.796 1049.72 236.028 1046.93 229.385C1045.87 226.859 1045.15 223.803 1046.63 221.5C1048.36 218.81 1052.49 218.582 1055.17 220.326C1057.85 222.07 1059.31 225.185 1060.19 228.264C1061.74 233.688 1061.87 238.938 1061.85 244.497C1070.6 236.305 1080.91 229.696 1089.37 221.216C1083.21 217.27 1078.27 211.422 1075.44 204.665C1074.38 202.138 1073.65 199.083 1075.14 196.78C1076.87 194.09 1081 193.862 1083.68 195.606C1086.36 197.35 1087.82 200.465 1088.7 203.544C1090.29 209.114 1090.38 214.5 1090.35 220.226C1092.43 218.069 1094.38 215.789 1096.16 213.325C1099.75 208.336 1102.25 202.626 1103.76 196.61C1096.59 194.438 1090.13 189.995 1085.55 184.063C1083.88 181.895 1082.4 179.131 1083.24 176.522C1084.22 173.476 1088.15 172.189 1091.19 173.182C1094.23 174.176 1096.44 176.811 1098.08 179.559C1101.09 184.599 1102.56 189.851 1104.03 195.474C1106.26 185.716 1105.94 175.232 1103.49 165.761C1097.28 163.013 1091.85 158.497 1088.05 152.861C1086.52 150.59 1085.21 147.737 1086.21 145.188C1087.39 142.209 1091.4 141.176 1094.36 142.362C1097.33 143.547 1099.37 146.317 1100.83 149.165C1103.17 153.707 1104.33 158.335 1105.32 163.219C1105.45 163.355 1105.55 163.527 1105.61 163.746C1107.87 171.76 1108.47 180.207 1107.63 188.482C1107.44 190.314 1107.19 192.138 1106.87 193.951C1110.39 188.356 1115.45 183.732 1121.36 180.776C1123.81 179.552 1126.81 178.627 1129.2 179.958C1131.99 181.514 1132.49 185.628 1130.93 188.422C1129.37 191.215 1126.36 192.878 1123.35 193.957C1117.73 195.968 1112.21 196.381 1106.31 196.734C1105.47 200.514 1104.27 204.211 1102.57 207.683C1100 212.941 1096.52 217.484 1092.56 221.617C1098.37 218.043 1105.19 216.126 1112 216.202C1114.74 216.232 1117.82 216.778 1119.35 219.056C1121.12 221.717 1119.69 225.606 1117.03 227.377C1114.37 229.149 1110.93 229.252 1107.76 228.836C1101.69 228.038 1096.47 225.783 1090.89 223.321C1084.17 229.949 1076.29 235.575 1069.11 241.548C1066.85 243.429 1064.66 245.358 1062.59 247.397C1068.69 243.201 1076.09 240.924 1083.49 240.996C1086.22 241.023 1089.31 241.565 1090.83 243.841C1092.61 246.5 1091.19 250.391 1088.53 252.166C1085.87 253.941 1082.43 254.049 1079.26 253.636C1073.05 252.828 1067.73 250.495 1062 247.976C1059.81 250.173 1057.77 252.506 1055.93 255.06C1052.58 259.732 1049.76 264.78 1047.27 269.96C1046.61 271.339 1045.97 272.728 1045.35 274.127C1050.49 269.812 1056.85 266.943 1063.49 265.981C1066.2 265.589 1069.33 265.653 1071.18 267.668C1073.35 270.023 1072.53 274.088 1070.17 276.248C1067.81 278.409 1064.44 279.041 1061.24 279.119C1055.34 279.262 1050.01 277.945 1044.35 276.441C1040.62 285.28 1037.72 294.488 1035.43 303.805C1039.53 298.119 1045.29 293.643 1051.83 291.124C1054.38 290.14 1057.45 289.506 1059.7 291.06C1062.34 292.877 1062.44 297.02 1060.62 299.651C1058.8 302.281 1055.64 303.649 1052.54 304.435C1046.66 305.925 1041.03 305.777 1035.01 305.557C1034.71 306.795 1034.43 308.034 1034.15 309.274C1032.66 316.083 1031.46 322.984 1030.66 329.929C1034.73 324.453 1040.37 320.143 1046.74 317.69C1049.29 316.706 1052.36 316.072 1054.61 317.626C1057.24 319.442 1057.35 323.586 1055.53 326.217C1053.7 328.848 1050.55 330.215 1047.45 331C1041.73 332.449 1036.25 332.35 1030.41 332.141C1029.59 340.069 1029.28 348.047 1029.62 356C1029.69 357.657 1027.12 357.654 1027.05 356C1026.7 347.969 1027.03 339.913 1027.87 331.909C1020.9 329.933 1014.52 325.816 1009.85 320.233C1008.08 318.124 1006.47 315.408 1007.2 312.755Z" fill="white"/>
<path d="M1089.43 305.391C1077.41 332.244 1038.75 341.68 1024.96 368.567C1017.64 384.346 1025.02 398.879 1028.75 413.122C1033.2 439.332 1036.65 468.994 1027.31 497.894C1022.13 511.075 1012.48 523.617 1009.64 536.901C1021.73 535.639 1036.11 532.116 1050.08 526.523C1050.33 526.207 1050.58 525.874 1050.83 525.55C1060.35 512.768 1066.69 497.234 1064.69 481.059C1062.87 466.331 1055.12 451.787 1058.43 436.72C1060.24 428.475 1065.4 421.578 1070.25 414.883C1075.25 407.966 1079.66 401.013 1081.59 392.594C1084.82 378.545 1082.85 362.42 1091.15 349.909C1096.22 342.281 1104.5 338.062 1111.87 333.063C1116 330.272 1119.9 327.112 1122.79 323.005C1125.25 319.5 1126.98 315.56 1128.29 311.494C1130.88 303.475 1131.99 295.071 1134.45 287.016C1136.94 278.839 1141.16 271.445 1146.61 264.889C1158.53 250.576 1174.73 240.995 1189.53 230.082C1202.93 220.204 1216.47 208.339 1222.89 192.548C1223.11 192.012 1223.32 191.468 1223.52 190.923C1221.73 189.088 1219.34 187.646 1216.3 186.712C1189.72 182.181 1172.21 220.308 1149.56 232.4C1122.36 243.723 1099.22 242.308 1095.23 277.647C1093.96 286.88 1093.66 296.28 1089.43 305.391Z" fill="url(#paint5_linear_75_1417)"/>
<path d="M1189.54 230.082C1174.73 240.994 1158.53 250.576 1146.61 264.888C1141.16 271.443 1136.94 278.838 1134.45 287.015C1131.99 295.07 1130.88 303.474 1128.29 311.494C1126.98 315.559 1125.25 319.499 1122.79 323.004C1119.9 327.111 1116 330.272 1111.87 333.062C1104.5 338.062 1096.22 342.28 1091.15 349.908C1082.85 362.419 1084.82 378.544 1081.59 392.593C1079.66 401.013 1075.26 407.965 1070.25 414.882C1065.4 421.578 1060.24 428.474 1058.43 436.719C1055.12 451.786 1062.87 466.33 1064.69 481.058C1066.69 497.234 1060.35 512.767 1050.83 525.549C1050.58 525.873 1050.33 526.206 1050.08 526.522C1050.79 526.245 1051.5 525.956 1052.2 525.655C1084.35 512.272 1113.61 487.911 1106.9 454.92C1099.92 439.776 1092.69 427.969 1113.52 412.874C1145.09 384.161 1187.48 365.275 1176.38 322.312C1172.76 302.881 1158.56 275.542 1177.76 255.029C1186.48 247.957 1197.51 245.562 1206.38 238.754C1222.96 227.807 1233.82 203.51 1224.41 191.92C1224.14 191.565 1223.84 191.231 1223.52 190.922C1223.32 191.468 1223.11 192.01 1222.89 192.547C1216.47 208.338 1202.93 220.204 1189.54 230.082Z" fill="url(#paint6_linear_75_1417)"/>
<path d="M1189.54 230.082C1174.73 240.994 1158.53 250.576 1146.61 264.888C1141.16 271.443 1136.94 278.839 1134.45 287.015C1131.99 295.07 1130.88 303.474 1128.29 311.494C1126.98 315.559 1125.25 319.499 1122.79 323.004C1119.9 327.111 1116 330.272 1111.87 333.062C1104.5 338.062 1096.22 342.28 1091.15 349.909C1082.85 362.419 1084.82 378.544 1081.59 392.593C1079.66 401.013 1075.26 407.965 1070.25 414.882C1065.4 421.578 1060.24 428.474 1058.43 436.719C1055.12 451.786 1062.87 466.33 1064.69 481.058C1066.69 497.234 1060.35 512.767 1050.83 525.549C1050.58 525.873 1050.33 526.206 1050.08 526.522C1050.79 526.245 1051.5 525.956 1052.2 525.655C1054.48 522.549 1056.55 519.295 1058.4 515.915C1061.85 509.566 1064.41 502.712 1065.55 495.572C1066.76 487.973 1066.08 480.454 1064.39 472.977C1062.66 465.353 1060.13 457.875 1059.16 450.096C1058.04 441.202 1059.82 433.054 1064.44 425.363C1068.97 417.841 1075 411.303 1078.97 403.422C1082.31 396.786 1083.58 389.48 1084.43 382.169C1085.3 374.535 1085.73 366.742 1088.03 359.361C1090.8 350.392 1096.77 344.314 1104.47 339.219C1111.93 334.295 1119.88 329.88 1124.76 322.101C1129.09 315.211 1130.84 307.11 1132.58 299.275C1134.5 290.628 1136.63 282.182 1141.18 274.498C1146.03 266.321 1152.72 259.405 1159.93 253.3C1181.61 234.911 1214.07 220.032 1224.41 191.923C1224.14 191.567 1223.84 191.233 1223.52 190.924C1223.32 191.47 1223.12 192.012 1222.9 192.549C1216.47 208.338 1202.93 220.204 1189.54 230.082Z" fill="white"/>
<path opacity="0.24" d="M457.681 413.305C455.596 410.861 451.472 411.199 449.055 413.303C446.638 415.407 445.619 418.711 445.17 421.898C444.444 427.053 444.88 431.898 445.56 436.94C443.001 432.853 440.304 428.852 437.475 424.947C435.608 422.366 433.685 419.825 431.706 417.328C437.162 412.596 441.169 406.202 443.03 399.216C443.735 396.568 444.038 393.443 442.256 391.364C440.174 388.935 436.05 389.273 433.632 391.366C431.214 393.461 430.192 396.747 429.742 399.917C428.985 405.238 429.482 410.228 430.201 415.449C424.016 407.817 417.291 400.618 409.992 394.058C414.512 388.56 417.386 381.712 418.106 374.624C418.384 371.897 418.188 368.764 416.099 366.993C413.658 364.926 409.639 365.915 407.584 368.367C405.527 370.818 405.038 374.225 405.096 377.426C405.188 382.614 406.384 387.309 407.848 392.161C400.046 385.368 391.333 379.037 381.555 375.58C381.352 375.508 381.145 375.445 380.941 375.375C384.714 369.244 386.624 361.972 386.324 354.775C386.21 352.036 385.57 348.962 383.25 347.509C380.539 345.812 376.703 347.366 375.017 350.085C373.332 352.805 373.334 356.247 373.846 359.408C374.749 364.976 376.861 369.783 379.238 374.805C367.835 371.121 355.706 369.527 344.448 365.456C348.35 359.26 350.334 351.864 350.029 344.543C349.915 341.805 349.275 338.731 346.955 337.277C344.245 335.58 340.408 337.134 338.723 339.854C337.038 342.573 337.039 346.016 337.552 349.176C338.48 354.894 340.681 359.808 343.136 364.979C340.341 363.912 337.604 362.68 334.952 361.207C329.58 358.224 324.9 354.117 320.981 349.314C326.541 344.297 330.502 337.524 332.126 330.206C332.72 327.531 332.892 324.396 331.024 322.394C328.841 320.054 324.734 320.566 322.407 322.759C320.078 324.952 319.195 328.279 318.878 331.464C318.297 337.307 319.19 342.689 320.252 348.403C314.09 340.521 309.933 330.895 308.124 321.281C312.578 316.148 315.573 309.75 316.623 303.028C317.045 300.319 317.018 297.18 315.027 295.301C312.7 293.105 308.634 293.877 306.45 296.215C304.266 298.553 303.595 301.928 303.481 305.128C303.3 310.232 304.21 314.918 305.386 319.76C305.327 319.954 305.314 320.159 305.348 320.359C306.705 328.576 309.747 336.477 314.025 343.607C314.971 345.185 315.976 346.728 317.035 348.232C311.47 344.669 304.927 342.641 298.322 342.484C295.587 342.418 292.482 342.858 290.883 345.081C289.014 347.679 290.311 351.615 292.911 353.478C295.51 355.341 298.94 355.563 302.122 355.258C308.056 354.687 313.229 352.709 318.723 350.514C321.091 353.575 323.739 356.414 326.753 358.831C331.316 362.493 336.391 365.125 341.727 367.18C334.957 366.416 327.972 367.587 321.837 370.557C319.373 371.75 316.811 373.56 316.402 376.269C315.923 379.435 318.871 382.344 322.033 382.813C325.195 383.283 328.347 381.913 331.039 380.187C336.196 376.878 339.963 372.614 343.968 368.009C352.865 371.144 362.381 372.881 371.413 375.23C374.256 375.969 377.057 376.783 379.8 377.745C372.499 376.544 364.837 377.635 358.171 380.852C355.706 382.042 353.141 383.848 352.728 386.557C352.246 389.722 355.19 392.635 358.35 393.108C361.511 393.582 364.666 392.217 367.36 390.493C372.64 387.116 376.464 382.738 380.58 378.017C383.493 379.074 386.334 380.314 389.079 381.844C394.099 384.643 398.795 388.011 403.247 391.639C404.431 392.605 405.599 393.59 406.75 394.593C400.263 392.879 393.298 392.987 386.878 394.946C384.261 395.744 381.451 397.137 380.63 399.75C379.67 402.805 382.135 406.134 385.187 407.086C388.239 408.037 391.565 407.171 394.49 405.879C399.894 403.494 404.157 400.032 408.637 396.262C415.766 402.672 422.306 409.768 428.332 417.227C422.208 413.826 415.093 412.23 408.107 412.734C405.378 412.932 402.33 413.666 400.951 416.032C399.339 418.796 401.006 422.591 403.772 424.196C406.537 425.802 409.971 425.696 413.109 425.087C419.064 423.931 424.096 421.399 429.458 418.633C430.249 419.627 431.033 420.628 431.808 421.634C436.052 427.159 440.063 432.897 443.743 438.839C437.728 435.619 430.799 434.118 423.994 434.61C421.266 434.808 418.218 435.542 416.837 437.908C415.226 440.672 416.893 444.467 419.658 446.073C422.423 447.678 425.858 447.572 428.996 446.963C434.787 445.838 439.705 443.414 444.902 440.738C449.015 447.561 452.683 454.65 455.749 461.994C456.388 463.524 458.712 462.426 458.075 460.899C454.979 453.483 451.26 446.332 447.102 439.445C452.578 434.685 456.599 428.243 458.462 421.199C459.163 418.541 459.464 415.398 457.681 413.305Z" fill="white"/>
<path opacity="0.24" d="M599.112 312.755C598.264 309.655 594.387 308.204 591.307 309.078C588.226 309.952 585.9 312.509 584.14 315.203C581.295 319.559 579.633 324.131 578.107 328.983C577.526 324.193 576.784 319.424 575.882 314.685C575.288 311.553 574.625 308.434 573.895 305.331C580.842 303.373 587.183 299.292 591.833 293.763C593.596 291.666 595.197 288.967 594.467 286.326C593.613 283.241 589.737 281.79 586.659 282.655C583.582 283.519 581.261 286.059 579.508 288.735C576.564 293.23 574.896 297.957 573.33 302.989C570.972 293.447 567.941 284.068 564.121 275.021C570.546 271.969 576.054 266.996 579.715 260.888C581.124 258.539 582.277 255.619 581.138 253.128C579.807 250.217 575.749 249.4 572.848 250.743C569.947 252.086 568.058 254.961 566.75 257.883C564.632 262.617 563.72 267.376 562.985 272.392C558.809 262.92 553.61 253.478 546.228 246.185C546.075 246.033 545.913 245.888 545.76 245.738C551.777 241.796 556.593 236.028 559.377 229.385C560.437 226.859 561.162 223.803 559.68 221.5C557.947 218.81 553.815 218.582 551.135 220.326C548.454 222.07 546.995 225.185 546.117 228.264C544.571 233.688 544.441 238.938 544.46 244.497C535.704 236.305 525.402 229.696 516.941 221.216C523.104 217.27 528.039 211.422 530.871 204.665C531.931 202.138 532.656 199.083 531.173 196.78C529.441 194.09 525.309 193.862 522.628 195.606C519.948 197.35 518.488 200.465 517.611 203.544C516.023 209.114 515.928 214.5 515.956 220.226C513.879 218.069 511.924 215.789 510.149 213.325C506.554 208.336 504.061 202.626 502.553 196.61C509.716 194.438 516.176 189.995 520.754 184.063C522.427 181.895 523.913 179.131 523.073 176.522C522.092 173.476 518.157 172.189 515.119 173.182C512.08 174.176 509.869 176.811 508.229 179.559C505.222 184.599 503.746 189.851 502.282 195.474C500.051 185.716 500.375 175.232 502.819 165.761C509.03 163.013 514.457 158.497 518.261 152.861C519.793 150.59 521.101 147.737 520.097 145.188C518.923 142.209 514.915 141.176 511.946 142.362C508.977 143.547 506.937 146.317 505.475 149.165C503.144 153.707 501.979 158.335 500.987 163.219C500.862 163.355 500.76 163.527 500.698 163.746C498.437 171.76 497.836 180.207 498.681 188.482C498.867 190.308 499.121 192.134 499.442 193.951C495.918 188.356 490.857 183.732 484.946 180.776C482.498 179.552 479.502 178.627 477.11 179.958C474.316 181.514 473.819 185.628 475.381 188.422C476.943 191.215 479.952 192.878 482.962 193.957C488.576 195.968 494.097 196.381 500.002 196.734C500.845 200.514 502.037 204.211 503.737 207.683C506.313 212.941 509.788 217.484 513.745 221.617C507.942 218.043 501.124 216.126 494.309 216.202C491.574 216.232 488.486 216.778 486.965 219.056C485.188 221.717 486.621 225.606 489.283 227.377C491.945 229.149 495.38 229.252 498.55 228.836C504.623 228.038 509.842 225.783 515.422 223.321C522.144 229.949 530.019 235.575 537.196 241.548C539.456 243.429 541.645 245.358 543.72 247.397C537.622 243.201 530.224 240.924 522.825 240.996C520.089 241.023 517.001 241.565 515.477 243.841C513.696 246.5 515.123 250.391 517.784 252.166C520.444 253.941 523.879 254.049 527.048 253.636C533.261 252.828 538.581 250.495 544.31 247.976C546.498 250.173 548.543 252.506 550.377 255.06C553.732 259.732 556.553 264.78 559.042 269.96C559.703 271.339 560.342 272.728 560.958 274.127C555.815 269.812 549.465 266.943 542.822 265.981C540.115 265.589 536.98 265.653 535.128 267.668C532.963 270.023 533.78 274.088 536.138 276.248C538.496 278.409 541.875 279.041 545.07 279.119C550.974 279.262 556.301 277.945 561.957 276.441C565.688 285.28 568.594 294.488 570.882 303.805C566.784 298.119 561.02 293.643 554.484 291.124C551.93 290.14 548.86 289.506 546.607 291.06C543.974 292.877 543.872 297.02 545.694 299.651C547.514 302.281 550.668 303.649 553.767 304.435C559.648 305.925 565.276 305.777 571.304 305.557C571.597 306.795 571.883 308.034 572.156 309.274C573.653 316.083 574.846 322.984 575.654 329.929C571.577 324.453 565.943 320.143 559.575 317.69C557.021 316.706 553.951 316.072 551.698 317.626C549.065 319.442 548.963 323.586 550.784 326.217C552.606 328.848 555.759 330.215 558.858 331C564.577 332.449 570.057 332.35 575.897 332.141C576.723 340.069 577.033 348.047 576.69 356C576.619 357.657 579.188 357.654 579.26 356C579.606 347.969 579.276 339.913 578.436 331.909C585.413 329.933 591.788 325.816 596.463 320.233C598.232 318.124 599.839 315.408 599.112 312.755Z" fill="white"/>
<path d="M516.878 305.391C528.903 332.244 567.556 341.68 581.352 368.567C588.668 384.346 581.29 398.879 577.557 413.122C573.11 439.332 569.658 468.994 579.004 497.894C584.18 511.075 593.832 523.617 596.667 536.901C584.575 535.639 570.2 532.116 556.231 526.523C555.977 526.202 555.727 525.878 555.482 525.55C545.96 512.768 539.622 497.234 541.623 481.059C543.442 466.331 551.191 451.787 547.883 436.72C546.073 428.475 540.909 421.578 536.058 414.883C531.056 407.966 526.649 401.013 524.721 392.594C521.491 378.545 523.462 362.42 515.161 349.909C510.088 342.281 501.812 338.062 494.441 333.063C490.314 330.272 486.411 327.112 483.523 323.005C481.056 319.5 479.328 315.56 478.017 311.494C475.43 303.475 474.319 295.071 471.862 287.016C469.374 278.839 465.149 271.445 459.696 264.889C447.783 250.576 431.584 240.995 416.775 230.082C403.38 220.204 389.845 208.339 383.417 192.548C383.197 192.011 382.989 191.47 382.794 190.923C384.581 189.088 386.971 187.646 390.014 186.712C416.589 182.181 434.104 220.308 456.749 232.4C483.948 243.723 507.091 242.308 511.078 277.647C512.349 286.88 512.65 296.28 516.878 305.391Z" fill="url(#paint7_linear_75_1417)"/>
<path d="M416.773 230.082C431.582 240.994 447.781 250.576 459.694 264.888C465.147 271.443 469.372 278.838 471.859 287.015C474.317 295.07 475.428 303.474 478.015 311.494C479.326 315.559 481.055 319.499 483.52 323.004C486.409 327.111 490.313 330.272 494.439 333.062C501.81 338.062 510.085 342.28 515.159 349.908C523.46 362.419 521.49 378.544 524.719 392.593C526.647 401.013 531.053 407.965 536.056 414.882C540.907 421.578 546.071 428.474 547.88 436.719C551.19 451.786 543.44 466.33 541.621 481.058C539.62 497.234 545.958 512.767 555.48 525.549C555.723 525.873 555.977 526.206 556.229 526.522C555.518 526.245 554.811 525.956 554.109 525.655C521.957 512.272 492.7 487.911 499.407 454.92C506.386 439.776 513.621 427.969 492.792 412.874C461.221 384.161 418.829 365.275 429.932 322.312C433.548 302.881 447.751 275.542 428.545 255.029C419.827 247.957 408.8 245.562 399.928 238.754C383.347 227.807 372.483 203.51 381.899 191.92C382.163 191.573 382.46 191.239 382.791 190.922C382.985 191.466 383.195 192.011 383.414 192.547C389.842 208.338 403.378 220.204 416.773 230.082Z" fill="url(#paint8_linear_75_1417)"/>
<path d="M416.772 230.082C431.582 240.994 447.781 250.576 459.694 264.888C465.147 271.443 469.372 278.839 471.859 287.015C474.317 295.07 475.428 303.474 478.015 311.494C479.326 315.559 481.054 319.499 483.52 323.004C486.409 327.111 490.313 330.272 494.438 333.062C501.809 338.062 510.085 342.28 515.158 349.909C523.459 362.419 521.489 378.544 524.718 392.593C526.647 401.013 531.052 407.965 536.056 414.882C540.906 421.578 546.071 428.474 547.88 436.719C551.189 451.786 543.44 466.33 541.62 481.058C539.619 497.234 545.958 512.767 555.48 525.549C555.723 525.873 555.977 526.206 556.229 526.522C555.517 526.245 554.81 525.956 554.108 525.655C551.831 522.549 549.761 519.295 547.913 515.915C544.462 509.566 541.895 502.712 540.757 495.572C539.549 487.973 540.227 480.454 541.918 472.977C543.652 465.353 546.174 457.875 547.143 450.096C548.265 441.202 546.491 433.054 541.869 425.363C537.341 417.841 531.306 411.303 527.333 403.422C523.996 396.786 522.732 389.48 521.88 382.169C521.003 374.535 520.574 366.742 518.281 359.361C515.504 350.392 509.539 344.314 501.835 339.219C494.378 334.295 486.427 329.88 481.543 322.101C477.22 315.211 475.463 307.11 473.723 299.275C471.804 290.628 469.681 282.182 465.132 274.498C460.277 266.321 453.593 259.405 446.382 253.3C424.694 234.911 392.239 220.032 381.898 191.923C382.162 191.575 382.459 191.242 382.79 190.924C382.984 191.469 383.194 192.013 383.413 192.549C389.842 208.338 403.378 220.204 416.772 230.082Z" fill="white"/>
<path d="M629.779 376.339L579.24 376.193V327.841L627.804 320.662L629.779 376.339Z" fill="url(#paint9_linear_75_1417)"/>
<path d="M577.567 359.349C529.282 376.549 506.077 444.33 476.569 448.871C447.062 453.411 396.406 384.536 396.406 384.536L367.541 409.814C367.541 409.814 421.98 512.915 484.76 510.455C540.768 508.26 562.056 453.638 562.056 453.638L577.567 359.349Z" fill="url(#paint10_linear_75_1417)"/>
<path d="M674.319 611.953C674.152 613.029 673.675 614.04 672.927 614.985C672.495 615.531 672.006 616.03 671.47 616.474H527.151C526.717 616.007 526.317 615.51 525.955 614.985C525.726 614.658 525.511 614.321 525.311 613.975C525.18 613.76 525.049 613.535 524.927 613.301C524.375 612.253 523.887 611.171 523.469 610.062C523.357 609.763 523.245 609.463 523.142 609.154C523.029 608.839 522.923 608.52 522.825 608.2C522.721 607.872 522.619 607.545 522.516 607.208C522.423 606.907 522.336 606.604 522.254 606.3C521.171 602.416 520.321 597.68 519.667 592.205C519.61 591.718 519.554 591.222 519.498 590.716C519.356 589.458 519.232 588.197 519.125 586.935C519.041 586.102 518.975 585.25 518.9 584.38C518.872 584.062 518.854 583.744 518.825 583.416C518.77 582.63 518.713 581.825 518.658 581.011V581.002C518.658 580.964 518.649 580.926 518.649 580.889C518.601 580.131 518.555 579.354 518.508 578.577C518.499 578.475 518.499 578.381 518.49 578.287L518.378 576.088L518.35 575.601C518.322 574.918 518.284 574.225 518.257 573.533C518.22 572.681 518.191 571.811 518.154 570.922C518.126 570.089 518.097 569.237 518.07 568.376C518.051 567.908 518.041 567.44 518.032 566.972C517.995 565.633 517.966 564.277 517.929 562.892C517.92 562.143 517.911 561.375 517.892 560.608C517.809 554.462 517.797 548.316 517.855 542.171C517.864 541.076 517.883 539.971 517.892 538.857C517.911 537.21 517.929 535.526 517.967 533.832C517.986 532.558 518.004 531.286 518.033 529.994C518.079 527.411 518.135 524.781 518.201 522.114C518.258 519.961 518.313 517.791 518.368 515.6L518.396 514.599C518.442 512.914 518.49 511.211 518.546 509.489C518.621 506.869 518.704 504.22 518.788 501.543C518.797 501.131 518.816 500.719 518.834 500.307C518.853 499.877 518.862 499.455 518.882 499.025L518.909 498.174C519.022 494.916 519.134 491.604 519.255 488.262C519.264 488.141 519.264 488.019 519.264 487.898C519.367 485.296 519.46 482.666 519.564 480.017C519.63 478.342 519.694 476.657 519.76 474.973C519.835 472.924 519.909 470.864 519.993 468.796C520.021 467.963 520.059 467.14 520.115 466.316C520.134 465.932 520.152 465.549 520.181 465.165C520.218 464.482 520.265 463.799 520.321 463.125C520.339 462.816 520.367 462.507 520.395 462.208C520.434 461.608 520.487 461.009 520.555 460.411C520.582 460.083 520.61 459.756 520.648 459.428C520.714 458.698 520.798 457.968 520.882 457.248C520.966 456.48 521.06 455.722 521.171 454.964C521.283 454.131 521.396 453.298 521.517 452.475C521.611 451.801 521.713 451.146 521.825 450.491C521.825 450.482 521.825 450.472 521.835 450.463C521.922 449.891 522.019 449.32 522.125 448.75C522.218 448.179 522.33 447.599 522.433 447.028C522.546 446.419 522.667 445.811 522.788 445.203V445.193C522.863 444.856 522.928 444.51 523.012 444.173C523.068 443.855 523.143 443.537 523.209 443.228C523.302 442.807 523.396 442.395 523.489 441.974C523.611 441.422 523.741 440.879 523.873 440.327C524.134 439.232 524.405 438.146 524.695 437.079C524.938 436.143 525.191 435.225 525.452 434.318C525.564 433.934 525.667 433.56 525.788 433.186C525.917 432.71 526.06 432.239 526.218 431.772C526.386 431.201 526.564 430.63 526.751 430.069C527.253 428.483 527.789 426.907 528.358 425.343V425.334H528.367C528.376 425.272 528.395 425.212 528.424 425.156C528.563 424.763 528.713 424.379 528.854 423.995C529.05 423.462 529.246 422.928 529.46 422.395C529.638 421.936 529.815 421.477 530.002 421.019C530.096 420.775 530.189 420.541 530.292 420.298C530.544 419.671 530.806 419.044 531.068 418.427C531.376 417.678 531.694 416.939 532.021 416.208C534.301 411.051 536.804 406.269 539.411 401.814C539.42 401.814 539.42 401.804 539.42 401.804C553.978 377.031 572.234 363.095 577.57 359.352V359.342C578.551 358.65 579.093 358.314 579.093 358.314C579.073 359.461 579.123 360.608 579.242 361.748C582.223 390.124 629.117 359.633 629.117 359.633C629.136 359.643 629.163 359.661 629.192 359.67C634.854 363.096 660.68 371.884 677.245 394.392C677.526 394.795 677.797 395.169 678.077 395.543C679.638 397.744 681.073 400.031 682.375 402.394C686.889 410.584 690.14 420.269 691.139 431.725C694.24 466.796 681.131 568.481 674.319 611.953Z" fill="url(#paint11_linear_75_1417)"/>
<path d="M675.991 457.25C674.892 607.565 559.033 559.385 605.887 616.474H527.151C512.418 593.488 519.21 530.751 518.789 501.546H518.798C519.655 484.571 519.177 467.313 521.835 450.465C523.226 441.921 525.418 433.453 528.365 425.337C529.459 422.254 530.706 419.206 532.019 416.212C546.202 411.781 532.847 405.258 552.224 409.635C588.047 420.533 566.716 468.646 579.24 486.732C593.267 502.791 658.571 463.757 675.991 457.25Z" fill="#DDE0F0"/>
<path d="M335.306 445.196H567.379V570.923H335.306V445.196Z" fill="url(#paint12_linear_75_1417)"/>
<path d="M567.379 425.339H335.306L360.92 401.814H541.765L567.379 425.339Z" fill="url(#paint13_linear_75_1417)"/>
<path d="M335.306 445.196V464.891H451.755C500.99 464.891 540.902 494.578 540.902 531.2V570.923H567.38V445.196H335.306Z" fill="#F0D8CC"/>
<path d="M572.96 425.339H328.864C326.113 425.339 323.884 426.952 323.884 428.942V441.592C323.884 443.582 326.114 445.195 328.864 445.195H572.96C575.711 445.195 577.941 443.582 577.941 441.592V428.942C577.941 426.952 575.711 425.339 572.96 425.339Z" fill="#FFD89E"/>
<path d="M450.913 549.228C471.21 549.228 487.664 532.747 487.664 512.416C487.664 492.085 471.21 475.604 450.913 475.604C430.616 475.604 414.162 492.085 414.162 512.416C414.162 532.747 430.616 549.228 450.913 549.228Z" fill="white"/>
<path d="M451.436 538.148C451.285 538.08 451.133 538.011 450.982 537.941C399.175 514.501 433.149 476.371 451.436 500.801C451.571 500.531 451.72 500.268 451.886 500.013C456.493 492.635 470.78 489.447 476.137 498.723C485.229 514.474 469.302 530.152 451.436 538.148Z" fill="#E06978"/>
<path d="M451.436 538.148C451.285 538.08 451.133 538.01 450.982 537.941L451.886 500.012C456.493 492.635 470.78 489.447 476.138 498.723C485.229 514.474 469.302 530.151 451.436 538.148Z" fill="#E05768"/>
<path d="M507.077 417.519H394.451L399.599 409.634H501.928L507.077 417.519Z" fill="#A16440"/>
<path d="M335.306 560.607H568.049V562.889H335.306V560.607ZM335.306 454.965H568.049V457.248H335.306V454.965Z" fill="white"/>
<path d="M627.991 326.358C609.142 352.81 588.302 352.363 579.251 350.519V327.853L627.793 320.678L627.991 326.358Z" fill="#FFABAB"/>
<path d="M640.578 301.374C629.713 332.681 603.325 345.545 582.895 342.257C560.159 338.599 547.828 313.752 550.577 277.482C553.011 245.36 575.64 224.813 604.626 230.128C633.611 235.442 651.138 270.946 640.578 301.374Z" fill="url(#paint14_linear_75_1417)"/>
<path d="M653.426 289.823C652.491 297.737 646.344 303.514 639.698 302.727C633.051 301.94 628.421 294.885 629.355 286.972C630.29 279.058 636.437 273.281 643.083 274.068C649.73 274.856 654.361 281.91 653.426 289.823ZM460.985 584.727C460.985 584.727 415.979 618.786 404.259 581.987C394.196 550.396 436.149 564.234 439.372 562.269C441.937 560.706 418.698 561.775 423.053 551.598C425.426 546.05 454.104 553.156 454.104 553.156L460.985 584.727Z" fill="url(#paint15_linear_75_1417)"/>
<path d="M642.102 414.663C610.609 416.757 582.827 505.024 566.856 516.205C550.885 527.386 451.032 551.56 451.032 551.56L455.518 590.399C455.518 590.399 587.994 574.605 610.888 554.175C633.781 533.744 662.771 490.409 670.053 476.629C677.335 462.85 689.113 411.536 642.102 414.663Z" fill="url(#paint16_linear_75_1417)"/>
<path d="M543.904 229.041C539.907 235.896 537.186 257.609 558.118 261.899C578.996 266.18 597.181 258.405 603.054 253.645C608.927 248.886 604.277 269.661 620.884 282.871C620.884 282.871 622.46 277.851 623.976 275.565C623.976 275.565 624.618 287.045 634.732 295.874C634.614 290.967 635.844 285.843 643.509 277.917C649.197 277.174 651.596 281.249 652.672 283.891C652.672 283.891 666.7 236.705 643.296 225.257C643.296 225.257 641.405 219.276 646.477 217.857C646.477 217.857 639.392 216.967 635.02 221.861C635.02 221.861 633.949 216.495 637.435 212.421C632.795 211.458 628.185 214.443 625.431 218.487C622.739 222.438 561.279 199.242 543.904 229.041ZM994.599 220.603C994.599 220.603 938.626 206.487 928.602 302.18C918.541 398.217 781.935 372.087 815.234 443.643C848.532 515.198 945.963 534.743 968.502 486.737C991.042 438.73 1036.73 374.752 1041.07 299.172C1043.4 258.546 1042.55 233.428 994.599 220.603Z" fill="#303670"/>
<path d="M1036.73 249.561C1040.12 258.264 1042.16 267.459 1043.57 276.7C1044.96 285.955 1045.68 295.327 1045.6 304.697C1045.65 307.04 1045.47 309.379 1045.4 311.719C1045.28 314.058 1045.27 316.403 1045 318.732L1044.32 325.721C1044.1 328.05 1043.67 330.357 1043.32 332.669L1042.78 336.135C1042.62 337.292 1042.38 338.438 1042.12 339.578L1040.61 346.424C1040.14 348.707 1039.43 350.941 1038.78 353.182C1038.12 355.418 1037.44 357.646 1036.73 359.866C1037.06 357.554 1037.41 355.251 1037.79 352.961C1038.14 350.664 1038.63 348.401 1038.85 346.086C1039.43 341.484 1040.13 336.919 1040.49 332.307L1040.82 328.859C1040.92 327.71 1041.09 326.568 1041.13 325.413L1041.54 318.505C1041.73 316.206 1041.75 313.899 1041.82 311.595C1041.87 309.291 1042.01 306.988 1041.94 304.683L1041.94 297.768C1041.85 295.465 1041.74 293.162 1041.68 290.857C1041.49 286.25 1041.17 281.646 1040.75 277.048C1039.88 267.851 1038.66 258.675 1036.73 249.561Z" fill="#303670"/>
<path d="M963.293 382.687L1008.74 382.538V333.413L965.069 326.118L963.293 382.687Z" fill="url(#paint17_linear_75_1417)"/>
<path d="M962.157 331.906C981.308 358.782 1002.48 358.327 1011.68 356.453V333.425L962.359 326.136L962.157 331.906Z" fill="#FFABAB"/>
<path d="M951.077 309.1C961.67 339.621 995.264 361.23 1018.59 347.05C1037.5 335.558 1041.32 310.49 1036.46 285.618C1030.5 255.159 1014.39 234.459 986.128 239.641C957.87 244.823 940.782 279.435 951.077 309.1Z" fill="url(#paint18_linear_75_1417)"/>
<path d="M938.551 297.84C939.462 305.555 945.454 311.188 951.934 310.42C958.415 309.652 962.929 302.775 962.018 295.059C961.106 287.344 955.114 281.712 948.635 282.479C942.155 283.247 937.639 290.124 938.551 297.84Z" fill="#FFDBDB"/>
<path d="M1036.65 289.725C1040.97 261.233 1039.87 252.678 1023.64 234.857C1018.05 228.732 1006.62 226.445 1006.62 226.445C1010.56 250.339 1034.63 263.865 1036.65 289.725Z" fill="#303670"/>
<path d="M958.423 319.789C953.906 253.965 1030.99 274.931 1018.54 232.492C1014.04 217.175 971.703 215.642 954.052 233.883C946.67 241.511 939.202 257.393 941.698 274.924C943.666 288.749 950.206 306.325 958.423 319.789Z" fill="#303670"/>
<path d="M1014.47 371.26C1061.69 386.261 1082.64 449.925 1110.85 454.265C1139.05 458.605 1187.48 392.768 1187.48 392.768L1215.07 416.931C1215.07 416.931 1163.03 515.483 1103.02 513.131C1049.48 511.033 1028.07 460.261 1028.07 460.261L1014.47 371.26Z" fill="url(#paint19_linear_75_1417)"/>
<path d="M1062.21 614.77C1062.49 615.77 1060.5 615.879 1059.05 616.474H927.629C918.299 613.159 920.381 591.974 917.797 582.614C912.538 543.574 907.66 504.175 905.662 464.85C899.487 411.344 927.709 384.214 963.722 369.005C964.095 369.236 1009.15 400.103 1008.74 367.703C1008.74 367.703 1010.95 368.995 1014.52 371.616C1014.52 371.616 1014.53 371.616 1014.53 371.625C1041.34 388.9 1070.56 435.808 1069.38 474.34C1070.48 504.368 1045 553.012 1062.21 614.77Z" fill="url(#paint20_linear_75_1417)"/>
<path d="M1028.77 449.697H1260.84V575.424H1028.77V449.697Z" fill="url(#paint21_linear_75_1417)"/>
<path d="M1260.84 429.84H1028.77L1054.38 406.314H1235.23L1260.84 429.84Z" fill="url(#paint22_linear_75_1417)"/>
<path d="M1028.77 449.697V469.391H1145.21C1194.45 469.391 1234.36 499.079 1234.36 535.701V575.424H1260.84V449.697H1028.77Z" fill="#F0D8CC"/>
<path d="M1266.42 429.84H1022.32C1019.57 429.84 1017.34 431.453 1017.34 433.443V446.093C1017.34 448.083 1019.57 449.696 1022.32 449.696H1266.42C1269.17 449.696 1271.4 448.083 1271.4 446.093V433.443C1271.4 431.453 1269.17 429.84 1266.42 429.84Z" fill="#FFD89E"/>
<path d="M1144.37 553.728C1164.67 553.728 1181.12 537.247 1181.12 516.916C1181.12 496.585 1164.67 480.104 1144.37 480.104C1124.08 480.104 1107.62 496.585 1107.62 516.916C1107.62 537.247 1124.08 553.728 1144.37 553.728Z" fill="white"/>
<path d="M1144.9 542.649C1144.74 542.581 1144.59 542.511 1144.44 542.442C1092.64 519.002 1126.61 480.872 1144.9 505.302C1145.03 505.032 1145.18 504.769 1145.35 504.513C1149.95 497.135 1164.24 493.948 1169.6 503.223C1178.69 518.974 1162.76 534.652 1144.9 542.649Z" fill="#E06978"/>
<path d="M1144.9 542.649C1144.74 542.581 1144.59 542.511 1144.44 542.442L1145.35 504.513C1149.95 497.136 1164.24 493.948 1169.6 503.223C1178.69 518.974 1162.76 534.652 1144.9 542.649Z" fill="#E05768"/>
<path d="M1200.54 422.019H1087.91L1093.06 414.135H1195.39L1200.54 422.019Z" fill="#A16440"/>
<path d="M1028.77 565.108H1261.51V567.39H1028.77V565.108ZM1028.77 459.466H1261.51V461.749H1028.77V459.466Z" fill="white"/>
<path d="M1125.75 584.127C1125.75 584.127 1168.77 616.685 1179.97 581.509C1189.59 551.311 1149.49 564.539 1146.4 562.661C1143.95 561.167 1166.17 562.189 1162 552.46C1159.74 547.157 1132.32 553.951 1132.32 553.951L1125.75 584.127Z" fill="url(#paint23_linear_75_1417)"/>
<path d="M952.618 421.565C982.722 423.568 1009.28 507.94 1024.54 518.627C1039.81 529.316 1135.26 552.424 1135.26 552.424L1130.97 589.549C1130.97 589.549 1004.34 574.451 982.455 554.922C960.572 535.393 932.862 493.969 925.9 480.798C918.938 467.628 907.681 418.577 952.618 421.565Z" fill="url(#paint24_linear_75_1417)"/>
<path d="M1205.82 414.135C1220.57 414.135 1232.53 407.27 1232.53 398.802C1232.53 390.334 1220.57 383.469 1205.82 383.469C1191.07 383.469 1179.12 390.334 1179.12 398.802C1179.12 407.27 1191.07 414.135 1205.82 414.135Z" fill="#FFDBDB"/>
<path d="M987.508 221.668C984.76 221.199 981.961 221.387 979.235 221.806C976.503 222.235 973.821 222.935 971.211 223.829C966.004 225.645 961.068 228.165 956.541 231.317C952.025 234.444 947.932 238.143 944.364 242.322C940.825 246.501 937.787 251.096 935.367 256.002C932.937 260.904 931.121 266.096 929.804 271.407C929.147 274.066 928.617 276.755 928.214 279.464C928.018 280.821 927.848 282.181 927.705 283.544C927.564 284.917 927.462 286.252 927.342 287.678C927.109 290.496 926.76 293.303 926.298 296.093C925.818 298.887 925.211 301.657 924.478 304.396C923.007 309.877 920.967 315.227 918.323 320.275C915.698 325.335 912.393 330.033 908.643 334.306C904.887 338.581 900.661 342.408 896.169 345.835C887.13 352.654 877.148 357.894 867.18 362.828C862.193 365.305 857.209 367.746 852.346 370.379C847.484 373.002 842.735 375.838 838.432 379.252C834.121 382.633 830.283 386.679 827.599 391.486C824.885 396.272 823.452 401.759 823.09 407.314C823.106 404.529 823.369 401.732 823.962 398.987C824.569 396.235 825.51 393.567 826.764 391.043C829.281 385.968 833.097 381.621 837.373 377.962C841.679 374.307 846.429 371.256 851.261 368.437C856.107 365.631 861.066 363.075 865.981 360.479C870.893 357.879 875.791 355.289 880.546 352.488C885.301 349.688 889.911 346.67 894.237 343.31C898.574 339.967 902.618 336.265 906.193 332.157C909.777 328.057 912.858 323.539 915.408 318.736C917.955 313.929 919.933 308.819 921.374 303.551C922.813 298.28 923.75 292.864 924.294 287.399C924.428 286.051 924.556 284.61 924.719 283.215C924.881 281.81 925.082 280.41 925.3 279.012C925.753 276.216 926.338 273.444 927.053 270.704C928.483 265.213 930.525 259.9 933.14 254.866C938.354 244.799 946.183 236.096 955.68 230.026C960.429 227.004 965.56 224.575 970.944 222.998C973.637 222.219 976.386 221.626 979.171 221.339C981.952 221.07 984.789 221.043 987.508 221.668Z" fill="#303670"/>
<path d="M674.319 611.953C674.152 613.029 673.675 614.04 672.927 614.985C672.495 615.531 672.006 616.03 671.47 616.474H627.108C626.967 615.98 626.836 615.484 626.714 614.985C624.501 606.019 624.472 596.642 625.294 588.48L624.79 588.368L626.088 582.238C626.749 578.099 627.626 573.997 628.714 569.95L628.807 569.5C628.882 569.154 628.965 568.799 629.05 568.433C631.572 556.632 635.59 539.243 640.962 520.122C640.962 520.113 640.972 520.103 640.972 520.094C646.27 501.255 652.875 480.721 660.705 462.181C665.125 451.681 669.936 441.835 675.094 433.281C676.934 430.239 678.813 427.366 680.746 424.699C678.139 415.444 680.335 407.506 682.372 402.396C686.885 410.586 690.137 420.272 691.136 431.727C694.239 466.796 681.131 568.481 674.319 611.953Z" fill="#E6E7E8"/>
<path d="M983.044 614.985C982.971 615.484 982.884 615.98 982.784 616.474H927.629C926.781 616.042 925.969 615.545 925.199 614.985C923.283 613.572 922.107 611.962 921.826 610.147C921.686 609.258 921.546 608.34 921.397 607.405L921.256 606.451C920.789 603.428 920.304 600.161 919.79 596.689C919.782 596.598 919.77 596.507 919.753 596.418C919.164 592.337 918.538 587.967 917.903 583.381C917.866 583.128 917.837 582.866 917.8 582.614L917.464 580.162C917.343 579.329 917.231 578.487 917.118 577.644C916.94 576.353 916.764 575.043 916.586 573.723C916.539 573.348 916.492 572.965 916.436 572.581C916.324 571.72 916.213 570.859 916.091 569.989L915.923 568.698C915.596 566.161 915.26 563.578 914.923 560.967C914.7 559.227 914.484 557.467 914.26 555.698C914.074 554.172 913.878 552.646 913.691 551.103C913.438 549.062 913.195 547.012 912.943 544.954L912.354 539.994C911.798 535.245 911.262 530.494 910.747 525.74L910.158 520.293C910.149 520.218 910.14 520.144 910.14 520.068C910.035 519.127 909.935 518.185 909.841 517.242C909.439 513.395 909.056 509.577 908.702 505.787C908.615 504.942 908.534 504.097 908.458 503.251C907.955 497.854 907.491 492.454 907.067 487.05C906.992 486.179 906.926 485.309 906.86 484.439C906.796 483.578 906.739 482.717 906.674 481.865C906.608 481.013 906.552 480.162 906.496 479.32C906.43 478.478 906.374 477.636 906.328 476.812C906.244 475.464 906.159 474.144 906.076 472.834C906.048 472.263 906.011 471.692 905.983 471.131C905.861 468.988 905.758 466.891 905.665 464.851C905.63 464.096 905.598 463.341 905.571 462.586C905.178 452.638 905.198 444.14 905.749 437.87C907.02 423.42 911.897 411.917 918.363 402.755C917.086 407.772 915.157 412.598 912.626 417.112C914.794 419.077 916.971 421.332 919.166 423.962C919.427 424.262 919.68 424.581 919.914 424.908C921.406 426.426 922.83 428.009 924.183 429.652C924.567 430.12 924.94 430.579 925.313 431.066C929.537 436.401 933.554 442.699 937.347 449.662C952.203 476.859 963.799 514.183 971.582 544.038C974.457 555.087 977.101 566.196 979.514 577.356C980.765 581.125 985.829 597.868 983.044 614.985Z" fill="#F4F4FC"/>
<path d="M688.115 429.047V429.056C701.267 440.445 721.581 445.2 740.062 440.839C765.628 435.25 783.974 410.164 797.118 378.395C808.76 411.833 869.615 418.153 869.615 418.153C880.026 420.963 893.692 418.169 900.476 400.058C901.456 397.436 902.293 394.501 902.952 391.219C904.859 381.76 902.385 373.925 898.065 366.3C896.917 356.4 892.972 347.198 887.362 339.279C884.069 334.631 880.187 330.368 877.581 325.179C874.948 319.936 873.549 313.996 873.23 308.036C872.895 301.759 873.519 295.468 874.354 289.266C875.288 282.319 876.263 275.435 876.393 268.396C876.603 257.149 874.235 246.183 868.916 236.527C865.919 231.085 861.94 226.203 857.389 222.134C850.288 213.407 840.778 207.941 829.41 207.714C801.555 177.622 771.288 189.933 748.162 218.096C726.352 244.654 732.02 289.82 720.364 320.683C709.939 348.445 677.153 363.479 674.191 394.925C672.852 409.142 678.619 420.822 688.115 429.047ZM872.7 323.044C873.815 325.504 875.256 327.758 876.788 329.922C880.039 334.511 883.891 338.578 887.541 342.774C891.31 347.107 893.889 352.667 895.538 358.343C896.104 360.297 896.552 362.282 896.881 364.289C889.534 352.217 878.093 340.357 872.7 323.044ZM868.6 244.67C867.277 239.928 865.536 235.467 863.418 231.391C865.535 234.669 867.358 238.183 868.876 241.827C870.872 246.613 872.264 251.63 873.022 256.761C873.913 262.82 873.592 268.906 872.753 274.949C871.669 282.764 870.168 290.65 869.615 298.561C869.806 280.515 873.447 262.031 868.6 244.67Z" fill="#3E4485"/>
<path d="M800.979 271.537C798.313 269.446 794.526 269.652 791.959 271.775C791.517 272.141 791.55 272.881 791.928 273.272C792.35 273.71 792.99 273.67 793.433 273.303C794.287 272.597 795.443 272.177 796.519 272.164C797.759 272.149 798.87 272.562 799.867 273.344C800.318 273.698 801.055 273.44 801.33 272.994C801.661 272.457 801.432 271.892 800.979 271.537Z" fill="#282B6E"/>
<path d="M802.521 265.917C802.527 265.782 802.586 265.655 802.685 265.564C802.784 265.473 802.916 265.424 803.05 265.43C803.117 265.432 803.183 265.448 803.243 265.475C803.304 265.503 803.359 265.543 803.404 265.592C803.45 265.641 803.485 265.698 803.509 265.761C803.532 265.823 803.543 265.89 803.54 265.957C803.534 266.092 803.475 266.219 803.376 266.31C803.276 266.402 803.145 266.45 803.01 266.444C802.944 266.442 802.878 266.426 802.817 266.399C802.757 266.371 802.702 266.331 802.656 266.282C802.611 266.234 802.576 266.176 802.552 266.113C802.529 266.051 802.518 265.984 802.521 265.917Z" fill="white"/>
<path d="M695.313 411.081C696.677 409.419 698.14 407.842 699.694 406.357C699.862 406.03 700.039 405.731 700.237 405.493C710.12 393.691 718.441 393.04 733.04 387.784C742.566 384.35 752.402 381.403 761.629 377.758H769.56L820.345 377.766H830.298C836.728 378.921 844.786 380.587 853.151 382.826C866.368 386.36 886.756 394.193 895.593 402.362C895.692 402.421 895.78 402.49 895.867 402.557C899.073 404.796 902.068 407.68 904.873 411.081C930.166 441.8 949.173 517.607 956.61 552.518C954.236 552.992 951.821 553.229 949.4 553.225H902.094L887.095 522.44C883.781 546.366 881.071 571.566 880.681 595.704H716.614C718.059 579.022 715.419 552.888 711.727 525.243L698.094 553.225H650.788C648.303 553.225 645.884 552.983 643.578 552.518C651.014 517.608 670.022 441.8 695.313 411.081Z" fill="url(#paint25_linear_75_1417)"/>
<path d="M761.627 377.763C761.627 377.763 737.026 385.784 738.903 396.854C741.023 409.357 753.013 425.696 762.77 428.729C773.497 432.063 786.638 413.861 786.638 413.861C786.638 413.861 800.273 433.031 810.731 429.83C821.19 426.629 877.305 391.881 830.296 377.764C830.296 377.764 812.741 404.257 787.957 404.257C763.173 404.256 761.627 377.763 761.627 377.763Z" fill="white"/>
<path d="M814.585 326.925C814.585 326.925 819.88 378.713 830.298 377.766C830.298 377.766 814.538 404.243 788.788 404.243C763.038 404.243 761.627 377.763 761.627 377.763C770.312 361.445 772.609 340.664 768.936 326.118L814.585 326.925ZM843.397 305.215C842.617 305.527 841.841 305.725 840.93 306.032L840.992 304.439L841.282 287.235C842.962 283.652 844.135 279.822 845.064 275.754L845.069 275.64C848.328 274.284 853.513 272.775 858.041 275.003C864.077 277.973 868.882 296.058 843.397 305.215Z" fill="url(#paint26_linear_75_1417)"/>
<path d="M843.51 298.601C842.962 298.757 842.426 298.837 841.79 298.981L841.944 297.91L843.34 286.328C844.723 284.027 845.781 281.526 846.693 278.846L846.704 278.77C848.995 278.081 852.599 277.421 855.497 279.236C859.36 281.656 861.337 294.185 843.51 298.601Z" fill="#F5B3B3"/>
<path d="M851.436 269.607C849.822 312.038 830.495 344.191 786.81 344.327C740.225 344.472 721.908 283.46 755.558 229.473C773.516 200.66 807.585 237.473 838.99 234.08C845.858 247.877 851.869 252.485 851.436 269.607Z" fill="url(#paint27_linear_75_1417)"/>
<path d="M740.527 265.937C740.439 266.908 752.146 232.437 776.65 231.391C809.75 229.979 808.498 294.772 843.251 308.773C843.251 308.773 863.833 256.128 843.678 231.391C826.451 210.249 748.377 178.702 740.527 265.937Z" fill="#3E4485"/>
<path d="M680.686 614.989H909.485V491.036H680.686V614.989Z" fill="url(#paint28_linear_75_1417)"/>
<path d="M680.686 471.459H909.485L884.232 448.266H705.939L680.686 471.459Z" fill="url(#paint29_linear_75_1417)"/>
<path d="M909.485 491.036V510.452H794.679C746.139 510.452 706.79 539.721 706.79 575.826V614.988H680.686V491.036H909.485Z" fill="#F0D8CC"/>
<path d="M675.184 471.459H915.836C918.548 471.459 920.746 473.05 920.746 475.012V487.482C920.746 489.444 918.548 491.035 915.836 491.035H675.184C672.472 491.035 670.274 489.444 670.274 487.482V475.012C670.274 473.05 672.472 471.459 675.184 471.459Z" fill="#FFD89E"/>
<path d="M795.509 593.6C815.52 593.6 831.742 577.351 831.742 557.307C831.742 537.263 815.52 521.014 795.509 521.014C775.499 521.014 759.277 537.263 759.277 557.307C759.277 577.351 775.499 593.6 795.509 593.6Z" fill="white"/>
<path d="M794.994 582.676C795.144 582.608 795.295 582.54 795.441 582.472C846.517 559.363 813.023 521.771 794.994 545.856C794.861 545.59 794.713 545.331 794.55 545.079C790.008 537.806 775.923 534.663 770.641 543.808C761.678 559.336 777.381 574.792 794.994 582.676Z" fill="#ED6376"/>
<path d="M794.993 582.676C795.144 582.608 795.295 582.54 795.44 582.472L794.55 545.079C790.008 537.806 775.923 534.663 770.641 543.808C761.678 559.336 777.381 574.792 794.993 582.676Z" fill="#E04E60"/>
<path d="M740.138 463.749H851.175L846.099 455.975H745.214L740.138 463.749Z" fill="#A16440"/>
<path d="M909.485 607.069H680.026V604.819H909.485V607.069ZM909.485 502.917H680.026V500.668H909.485V502.917Z" fill="white"/>
<path d="M746.043 568.081C746.043 568.081 790.562 577.26 786.374 546.418C782.779 519.941 757.033 544.557 754.008 544.245C751.601 543.997 768.882 536.718 762.195 530.821C758.551 527.607 740.138 542.723 740.138 542.723L746.043 568.081ZM852.664 568.081C852.664 568.081 808.144 577.26 812.333 546.418C815.927 519.941 841.674 544.557 844.698 544.245C847.106 543.997 829.825 536.718 836.512 530.821C840.156 527.607 858.568 542.723 858.568 542.723L852.664 568.081Z" fill="url(#paint30_linear_75_1417)"/>
<path d="M643.532 552.292C643.532 552.292 633.398 581.785 647.828 595.704C665.926 613.162 751.2 573.165 751.2 573.165L740.138 540.001L643.532 552.292Z" fill="url(#paint31_linear_75_1417)"/>
<path d="M956.474 552.292C956.474 552.292 966.562 585.402 953.341 600.478C942.03 613.377 848.805 573.164 848.805 573.164L857.558 541.492L956.474 552.292Z" fill="url(#paint32_linear_75_1417)"/>
<path d="M1210.64 615.734C1210.64 616.137 1210.31 616.474 1209.91 616.474H317.338C317.142 616.473 316.954 616.395 316.816 616.257C316.678 616.118 316.6 615.93 316.599 615.734C316.599 615.636 316.617 615.54 316.654 615.449C316.691 615.358 316.745 615.276 316.814 615.207C316.882 615.137 316.964 615.082 317.054 615.044C317.144 615.006 317.24 614.986 317.338 614.985H1209.91C1210.31 614.985 1210.64 615.323 1210.64 615.734ZM1040.9 643H706.861C706.771 643 706.681 642.982 706.598 642.947C706.514 642.913 706.438 642.862 706.374 642.798C706.31 642.734 706.26 642.658 706.225 642.574C706.191 642.491 706.173 642.401 706.173 642.311V642.207C706.173 641.825 706.481 641.517 706.861 641.517H1040.9C1041.28 641.517 1041.59 641.826 1041.59 642.207V642.311C1041.59 642.401 1041.57 642.491 1041.53 642.574C1041.5 642.658 1041.45 642.734 1041.38 642.798C1041.32 642.862 1041.24 642.913 1041.16 642.948C1041.08 642.982 1040.99 643 1040.9 643ZM668.034 643H612.453C612.363 643 612.273 642.982 612.19 642.947C612.106 642.913 612.03 642.862 611.966 642.798C611.902 642.734 611.852 642.658 611.817 642.574C611.783 642.491 611.765 642.401 611.765 642.311V642.207C611.765 641.825 612.073 641.517 612.453 641.517H668.034C668.414 641.517 668.722 641.826 668.722 642.207V642.311C668.722 642.401 668.704 642.491 668.67 642.574C668.635 642.658 668.584 642.734 668.52 642.798C668.457 642.862 668.381 642.913 668.297 642.947C668.214 642.982 668.124 643 668.034 643Z" fill="#E9E8FD"/>
<path d="M393.966 409.429C407.495 409.429 418.462 403.975 418.462 397.248C418.462 390.52 407.495 385.067 393.966 385.067C380.438 385.067 369.47 390.52 369.47 397.248C369.47 403.975 380.438 409.429 393.966 409.429Z" fill="#FFDBDB"/>
<path d="M1040.07 125.394C1040.3 125.776 1040.38 126.236 1040.27 126.688C1040.2 126.979 1040.06 127.246 1039.85 127.462C1039.64 127.679 1039.38 127.836 1039.1 127.918L1033.4 129.581C1033.12 129.666 1032.81 129.674 1032.52 129.603C1032.23 129.532 1031.97 129.385 1031.75 129.177C1031.54 128.972 1031.38 128.712 1031.29 128.425C1031.21 128.138 1031.21 127.834 1031.28 127.544L1032.69 121.775C1032.76 121.484 1032.9 121.217 1033.11 121.001C1033.31 120.785 1033.57 120.628 1033.86 120.546C1034.15 120.46 1034.45 120.453 1034.74 120.524C1035.03 120.595 1035.3 120.742 1035.51 120.95L1039.8 125.057C1039.9 125.158 1039.99 125.272 1040.07 125.394ZM1032.62 128.134C1032.66 128.203 1032.72 128.256 1032.8 128.285C1032.87 128.314 1032.95 128.317 1033.03 128.293L1038.72 126.63C1038.78 126.613 1038.84 126.58 1038.88 126.534C1038.92 126.488 1038.95 126.432 1038.97 126.37C1038.98 126.309 1038.98 126.244 1038.97 126.183C1038.95 126.123 1038.91 126.068 1038.87 126.025L1034.58 121.919C1034.54 121.874 1034.48 121.843 1034.42 121.828C1034.36 121.813 1034.3 121.814 1034.24 121.833C1034.17 121.85 1034.12 121.883 1034.08 121.929C1034.03 121.974 1034 122.031 1033.99 122.092L1032.58 127.861C1032.57 127.907 1032.56 127.955 1032.57 128.002C1032.58 128.049 1032.59 128.094 1032.62 128.134Z" fill="white"/>
<path d="M1169.78 120.888L1171.88 118.791C1172.11 118.563 1172.23 118.253 1172.23 117.929C1172.23 117.606 1172.11 117.296 1171.88 117.068C1171.65 116.839 1171.34 116.711 1171.02 116.711C1170.69 116.711 1170.39 116.839 1170.16 117.068L1168.06 119.165L1165.97 117.068C1165.86 116.954 1165.72 116.865 1165.58 116.803C1165.43 116.742 1165.27 116.711 1165.11 116.711C1164.95 116.711 1164.79 116.742 1164.64 116.803C1164.5 116.865 1164.36 116.954 1164.25 117.068C1164.14 117.181 1164.05 117.315 1163.99 117.463C1163.92 117.611 1163.89 117.769 1163.89 117.929C1163.89 118.089 1163.92 118.248 1163.99 118.396C1164.05 118.544 1164.14 118.678 1164.25 118.791L1166.34 120.888L1164.25 122.981C1164.03 123.21 1163.9 123.52 1163.9 123.843C1163.9 124.166 1164.03 124.476 1164.25 124.705C1164.48 124.934 1164.79 125.062 1165.11 125.062C1165.44 125.062 1165.75 124.934 1165.97 124.705L1168.06 122.612L1170.15 124.705C1170.39 124.943 1170.7 125.062 1171.01 125.062C1171.25 125.062 1171.49 124.99 1171.69 124.857C1171.89 124.723 1172.05 124.532 1172.14 124.31C1172.23 124.087 1172.25 123.842 1172.21 123.605C1172.16 123.369 1172.04 123.152 1171.87 122.981L1169.78 120.888Z" fill="#A34FFF"/>
<path d="M1230.48 316.467C1229.32 316.466 1228.21 316.004 1227.39 315.182C1226.56 314.36 1226.1 313.246 1226.1 312.084C1226.1 310.922 1226.56 309.808 1227.39 308.986C1228.21 308.165 1229.32 307.702 1230.48 307.701C1231.64 307.702 1232.75 308.165 1233.57 308.986C1234.39 309.808 1234.85 310.922 1234.85 312.084C1234.85 313.246 1234.39 314.36 1233.57 315.182C1232.75 316.004 1231.64 316.466 1230.48 316.467ZM1230.48 309.072C1229.68 309.073 1228.92 309.391 1228.35 309.955C1227.79 310.52 1227.47 311.286 1227.47 312.084C1227.47 312.883 1227.79 313.648 1228.35 314.213C1228.92 314.777 1229.68 315.095 1230.48 315.095C1231.27 315.095 1232.04 314.777 1232.6 314.213C1233.17 313.648 1233.48 312.883 1233.48 312.084C1233.48 311.286 1233.17 310.52 1232.6 309.956C1232.04 309.391 1231.27 309.073 1230.48 309.072Z" fill="white"/>
<path d="M591.898 125.055L596.182 120.949C596.396 120.741 596.662 120.594 596.952 120.523C597.242 120.452 597.546 120.459 597.832 120.544C598.119 120.626 598.379 120.783 598.586 120.999C598.792 121.216 598.937 121.483 599.007 121.774L600.415 127.542C600.488 127.832 600.482 128.136 600.398 128.423C600.315 128.71 600.157 128.97 599.94 129.176C599.725 129.384 599.46 129.531 599.17 129.602C598.88 129.673 598.576 129.665 598.29 129.58L592.598 127.917C592.311 127.835 592.051 127.677 591.844 127.461C591.638 127.245 591.493 126.978 591.424 126.687C591.351 126.397 591.357 126.093 591.44 125.806C591.523 125.52 591.682 125.26 591.898 125.055ZM599.114 127.861L597.705 122.092C597.691 122.031 597.66 121.974 597.617 121.928C597.573 121.883 597.518 121.85 597.457 121.833C597.396 121.814 597.332 121.813 597.271 121.828C597.209 121.843 597.153 121.874 597.108 121.919L592.825 126.025C592.778 126.068 592.745 126.123 592.727 126.184C592.709 126.244 592.708 126.309 592.724 126.37C592.739 126.431 592.793 126.577 592.972 126.631L598.664 128.293C598.74 128.317 598.822 128.314 598.896 128.285C598.97 128.256 599.032 128.203 599.073 128.134C599.098 128.094 599.114 128.049 599.121 128.002C599.128 127.955 599.126 127.907 599.114 127.861Z" fill="#A34FFF"/>
<path d="M461.908 120.888L459.815 118.791C459.586 118.563 459.458 118.253 459.458 117.929C459.458 117.606 459.586 117.296 459.815 117.068C460.043 116.839 460.352 116.711 460.675 116.711C460.998 116.711 461.307 116.839 461.535 117.068L463.629 119.165L465.722 117.068C465.951 116.839 466.26 116.711 466.583 116.711C466.906 116.711 467.215 116.839 467.443 117.068C467.671 117.296 467.8 117.606 467.8 117.929C467.8 118.253 467.671 118.563 467.443 118.791L465.35 120.888L467.439 122.981C467.668 123.21 467.796 123.52 467.796 123.843C467.796 124.166 467.668 124.476 467.439 124.705C467.211 124.934 466.902 125.062 466.579 125.062C466.256 125.062 465.947 124.934 465.719 124.705L463.629 122.612L461.539 124.705C461.302 124.943 460.99 125.062 460.679 125.062C460.438 125.062 460.203 124.99 460.003 124.857C459.803 124.723 459.647 124.532 459.555 124.31C459.463 124.087 459.438 123.842 459.485 123.605C459.532 123.369 459.648 123.152 459.818 122.981L461.908 120.888Z" fill="#A34FFF"/>
<path d="M396.838 312.084C396.84 310.922 397.301 309.808 398.122 308.986C398.942 308.165 400.054 307.702 401.214 307.701C402.374 307.702 403.487 308.165 404.307 308.986C405.127 309.808 405.589 310.922 405.59 312.084C405.589 313.246 405.127 314.36 404.307 315.182C403.487 316.004 402.374 316.466 401.214 316.467C400.054 316.466 398.942 316.004 398.122 315.182C397.301 314.36 396.84 313.246 396.838 312.084ZM398.207 312.084C398.208 312.883 398.525 313.648 399.089 314.212C399.653 314.777 400.417 315.094 401.214 315.095C402.011 315.095 402.775 314.777 403.339 314.213C403.902 313.648 404.22 312.883 404.221 312.084C404.22 311.286 403.902 310.52 403.339 309.956C402.775 309.391 402.011 309.073 401.214 309.072C400.417 309.073 399.652 309.391 399.089 309.956C398.525 310.52 398.208 311.286 398.207 312.084Z" fill="white"/>
</g>
<defs>
<radialGradient id="paint0_radial_75_1417" cx="0" cy="0" r="1" gradientUnits="userSpaceOnUse" gradientTransform="translate(800 380) rotate(90) scale(454.48 748.187)">
<stop offset="0.0239582" stop-color="#FEEE9B"/>
<stop offset="1" stop-color="#FF9B3F"/>
</radialGradient>
<linearGradient id="paint1_linear_75_1417" x1="800" y1="-74.4799" x2="800" y2="834.48" gradientUnits="userSpaceOnUse">
<stop offset="0.0239582" stop-color="#E3C8FF"/>
<stop offset="1" stop-color="#AD61FF"/>
</linearGradient>
<linearGradient id="paint2_linear_75_1417" x1="1316.15" y1="695.583" x2="1328.91" y2="695.583" gradientUnits="userSpaceOnUse">
<stop stop-color="white"/>
<stop offset="1" stop-color="white" stop-opacity="0.82"/>
</linearGradient>
<linearGradient id="paint3_linear_75_1417" x1="1328.91" y1="709.924" x2="1367.2" y2="709.924" gradientUnits="userSpaceOnUse">
<stop stop-color="white"/>
<stop offset="1" stop-color="white" stop-opacity="0.82"/>
</linearGradient>
<linearGradient id="paint4_linear_75_1417" x1="1329.13" y1="681.182" x2="1367.1" y2="681.182" gradientUnits="userSpaceOnUse">
<stop stop-color="white"/>
<stop offset="1" stop-color="white" stop-opacity="0.82"/>
</linearGradient>
<linearGradient id="paint5_linear_75_1417" x1="1044.5" y1="431.5" x2="1253.88" y2="328.624" gradientUnits="userSpaceOnUse">
<stop offset="0.184024" stop-color="#019F82"/>
<stop offset="1" stop-color="#67FFD2"/>
</linearGradient>
<linearGradient id="paint6_linear_75_1417" x1="1104.91" y1="461.574" x2="1287.36" y2="347.296" gradientUnits="userSpaceOnUse">
<stop offset="0.184024" stop-color="#03AB8D"/>
<stop offset="1" stop-color="#67FFD2"/>
</linearGradient>
<linearGradient id="paint7_linear_75_1417" x1="448.743" y1="469.058" x2="649.734" y2="324.1" gradientUnits="userSpaceOnUse">
<stop offset="0.184024" stop-color="#03AB8D"/>
<stop offset="1" stop-color="#67FFD2"/>
</linearGradient>
<linearGradient id="paint8_linear_75_1417" x1="433.242" y1="461.574" x2="615.691" y2="347.295" gradientUnits="userSpaceOnUse">
<stop offset="0.184024" stop-color="#03AB8D"/>
<stop offset="1" stop-color="#67FFD2"/>
</linearGradient>
<linearGradient id="paint9_linear_75_1417" x1="604.509" y1="320.662" x2="604.509" y2="376.339" gradientUnits="userSpaceOnUse">
<stop stop-color="white"/>
<stop offset="0.84427" stop-color="#FFC4C4"/>
</linearGradient>
<linearGradient id="paint10_linear_75_1417" x1="454.416" y1="445.215" x2="703.266" y2="288.845" gradientUnits="userSpaceOnUse">
<stop stop-color="#AD88FF"/>
<stop offset="1" stop-color="#6038BA"/>
</linearGradient>
<linearGradient id="paint11_linear_75_1417" x1="528.77" y1="398.145" x2="668.993" y2="602.522" gradientUnits="userSpaceOnUse">
<stop stop-color="#AD88FF"/>
<stop offset="1" stop-color="#6038BA"/>
</linearGradient>
<linearGradient id="paint12_linear_75_1417" x1="451.343" y1="319.88" x2="451.343" y2="626.127" gradientUnits="userSpaceOnUse">
<stop stop-color="#FFE783"/>
<stop offset="1" stop-color="#FF7B3F"/>
</linearGradient>
<linearGradient id="paint13_linear_75_1417" x1="451.343" y1="319.88" x2="451.343" y2="626.127" gradientUnits="userSpaceOnUse">
<stop stop-color="#FFDD4F"/>
<stop offset="1" stop-color="#FF8F5C"/>
</linearGradient>
<linearGradient id="paint14_linear_75_1417" x1="596.937" y1="229.293" x2="596.937" y2="342.757" gradientUnits="userSpaceOnUse">
<stop stop-color="white"/>
<stop offset="0.84427" stop-color="#FFC4C4"/>
</linearGradient>
<linearGradient id="paint15_linear_75_1417" x1="617" y1="259.5" x2="646.5" y2="331.5" gradientUnits="userSpaceOnUse">
<stop stop-color="white"/>
<stop offset="0.84427" stop-color="#FFC4C4"/>
</linearGradient>
<linearGradient id="paint16_linear_75_1417" x1="450.749" y1="582.539" x2="687.854" y2="449.571" gradientUnits="userSpaceOnUse">
<stop stop-color="#AD88FF"/>
<stop offset="1" stop-color="#6038BA"/>
</linearGradient>
<linearGradient id="paint17_linear_75_1417" x1="986.014" y1="326.118" x2="986.014" y2="382.687" gradientUnits="userSpaceOnUse">
<stop stop-color="white"/>
<stop offset="0.84427" stop-color="#FFC4C4"/>
</linearGradient>
<linearGradient id="paint18_linear_75_1417" x1="993.217" y1="238.846" x2="993.217" y2="351.5" gradientUnits="userSpaceOnUse">
<stop stop-color="white"/>
<stop offset="0.84427" stop-color="#FFC4C4"/>
</linearGradient>
<linearGradient id="paint19_linear_75_1417" x1="1014.47" y1="442.217" x2="1215.07" y2="442.217" gradientUnits="userSpaceOnUse">
<stop stop-color="#94D2FF"/>
<stop offset="1" stop-color="#42BDFF"/>
</linearGradient>
<linearGradient id="paint20_linear_75_1417" x1="1074.7" y1="423.774" x2="917.01" y2="581.204" gradientUnits="userSpaceOnUse">
<stop stop-color="#94D2FF"/>
<stop offset="1" stop-color="#2FA9EB"/>
</linearGradient>
<linearGradient id="paint21_linear_75_1417" x1="1145" y1="358" x2="1144.8" y2="599.585" gradientUnits="userSpaceOnUse">
<stop stop-color="#FFEC9E"/>
<stop offset="1" stop-color="#FF9564"/>
</linearGradient>
<linearGradient id="paint22_linear_75_1417" x1="1144.8" y1="393.124" x2="1144.8" y2="450.423" gradientUnits="userSpaceOnUse">
<stop stop-color="#FFDD4F"/>
<stop offset="1" stop-color="#FF8F5C"/>
</linearGradient>
<linearGradient id="paint23_linear_75_1417" x1="1153.6" y1="550.436" x2="1153.6" y2="597.852" gradientUnits="userSpaceOnUse">
<stop stop-color="white"/>
<stop offset="0.84427" stop-color="#FFC4C4"/>
</linearGradient>
<linearGradient id="paint24_linear_75_1417" x1="1154.58" y1="577.561" x2="831.18" y2="423.434" gradientUnits="userSpaceOnUse">
<stop stop-color="#94D2FF"/>
<stop offset="1" stop-color="#2FA9EB"/>
</linearGradient>
<linearGradient id="paint25_linear_75_1417" x1="662.546" y1="577.52" x2="950.902" y2="404.355" gradientUnits="userSpaceOnUse">
<stop stop-color="#F04D8D"/>
<stop offset="1" stop-color="#FF7ACE"/>
</linearGradient>
<linearGradient id="paint26_linear_75_1417" x1="854" y1="257" x2="812.235" y2="404.243" gradientUnits="userSpaceOnUse">
<stop stop-color="#FFE1E1"/>
<stop offset="0.676838" stop-color="#FFF4F4"/>
<stop offset="0.84427" stop-color="#FFC4C4"/>
</linearGradient>
<linearGradient id="paint27_linear_75_1417" x1="794.882" y1="218.379" x2="794.882" y2="344.327" gradientUnits="userSpaceOnUse">
<stop stop-color="white"/>
<stop offset="0.84427" stop-color="#FFC4C4"/>
</linearGradient>
<linearGradient id="paint28_linear_75_1417" x1="795" y1="442.5" x2="795.086" y2="639.284" gradientUnits="userSpaceOnUse">
<stop stop-color="#FFE98D"/>
<stop offset="1" stop-color="#FE834B"/>
</linearGradient>
<linearGradient id="paint29_linear_75_1417" x1="795.086" y1="357.967" x2="795.086" y2="639.284" gradientUnits="userSpaceOnUse">
<stop stop-color="#FFDD4F"/>
<stop offset="1" stop-color="#FF8F5C"/>
</linearGradient>
<linearGradient id="paint30_linear_75_1417" x1="799.353" y1="530.373" x2="799.353" y2="569.359" gradientUnits="userSpaceOnUse">
<stop stop-color="white"/>
<stop offset="0.84427" stop-color="#FFC4C4"/>
</linearGradient>
<linearGradient id="paint31_linear_75_1417" x1="621.133" y1="585.924" x2="779.111" y2="545.035" gradientUnits="userSpaceOnUse">
<stop stop-color="#FF2E81"/>
<stop offset="1" stop-color="#FF7ACE"/>
</linearGradient>
<linearGradient id="paint32_linear_75_1417" x1="724.264" y1="680.292" x2="1012.62" y2="507.127" gradientUnits="userSpaceOnUse">
<stop stop-color="#F04D8D"/>
<stop offset="1" stop-color="#FF7ACE"/>
</linearGradient>
<clipPath id="clip0_75_1417">
<rect width="1600" height="760" fill="white"/>
</clipPath>
<clipPath id="clip1_75_1417">
<rect width="243.087" height="57.5294" fill="white" transform="translate(1316.15 666.735)"/>
</clipPath>
</defs>
</svg>
