<svg width="1600" height="760" viewBox="0 0 1600 760" fill="none" xmlns="http://www.w3.org/2000/svg">
<rect width="1600" height="760" fill="url(#paint0_radial_215_4380)"/>
<path opacity="0.36" d="M478.656 451.573C448.473 398.474 428.325 335.118 447.522 278.479C465.74 224.725 518.588 197.24 570.546 184.31C624.876 170.788 681.915 169.246 736.826 157.753C794.433 145.697 851.058 128.883 905.813 107.284C930.645 97.4881 955.202 86.6771 981.075 80.1C1027.72 68.2433 1084.95 75.7278 1115.42 116.712C1147.24 159.507 1148.68 221.45 1125.71 268.579C1099.46 322.422 1052.38 364.638 1035.09 423.114C1024.61 458.561 1027.08 497.075 1014.71 531.853C1002.6 565.913 984.276 598.068 959.148 624.221C930.469 654.072 892.645 675.764 851.725 682.016C795.227 690.646 738.326 669.899 687.63 643.511C619.845 608.229 556.657 561.085 510.393 499.693C499.425 485.138 488.508 468.902 478.657 451.575L478.656 451.573Z" fill="white" fill-opacity="0.16"/>
<path d="M1127.47 643.469H453.877C449.937 643.469 446.743 646.663 446.743 650.602C446.743 654.542 449.937 657.736 453.877 657.736H1127.47C1131.41 657.736 1134.6 654.542 1134.6 650.602C1134.6 646.663 1131.41 643.469 1127.47 643.469Z" fill="url(#paint1_linear_215_4380)"/>
<path d="M659.046 532.997C659.046 530.923 673.983 491.092 699.291 481.963C689.333 524.283 670.247 540.243 662.365 543.465C659.876 539.635 659.046 532.995 659.046 532.995V532.997Z" fill="#6DC38D"/>
<path d="M659.046 532.997C659.046 530.923 673.983 491.092 699.291 481.963C689.333 524.283 670.247 540.243 662.365 543.465C659.876 539.635 659.046 532.995 659.046 532.995V532.997Z" fill="url(#paint2_linear_215_4380)"/>
<path d="M670.661 533.364C670.661 533.364 683.523 509.715 710.906 513.034C695.14 522.993 670.661 537.786 670.661 537.786V533.364ZM658.202 541C658.202 541 645.339 509.467 658.202 493.703C664.425 503.244 663.595 526.895 658.202 541ZM656.599 542.798C656.599 542.798 611.79 515.001 585.65 516.66C605.151 504.212 644.566 516.66 656.599 542.798Z" fill="url(#paint3_linear_215_4380)"/>
<path d="M653.686 539.002C653.686 539.002 632.941 527.702 627.548 499.075C643.314 499.905 657.007 528.727 653.686 539.002Z" fill="url(#paint4_linear_215_4380)"/>
<path d="M655.692 536.464C655.692 536.464 644.074 514.474 648.639 501.611C655.277 511.102 657.766 528.164 655.692 536.464Z" fill="url(#paint5_linear_215_4380)"/>
<path d="M697.364 533.486H620.967C620.573 533.486 620.253 533.805 620.253 534.2V551.399C620.253 551.793 620.573 552.113 620.967 552.113H697.364C697.758 552.113 698.078 551.793 698.078 551.399V534.2C698.078 533.805 697.758 533.486 697.364 533.486Z" fill="url(#paint6_linear_215_4380)"/>
<path d="M675.206 595.737H643.125C640.833 595.737 638.827 594.197 638.232 591.983L627.548 552.113H690.783L680.099 591.983C679.506 594.197 677.5 595.737 675.206 595.737Z" fill="url(#paint7_linear_215_4380)"/>
<path d="M631.886 568.302L690.783 552.113H627.548L631.886 568.302Z" fill="url(#paint8_linear_215_4380)"/>
<path d="M1078.59 383.441H1051.58L1026.91 525.363H914.164V551.349H1050.4L1078.59 383.441Z" fill="url(#paint9_linear_215_4380)"/>
<path d="M999.313 383.441H1051.58L1026.91 525.363H914.164L999.313 383.441Z" fill="url(#paint10_linear_215_4380)"/>
<path d="M830.812 631.694L850.154 631.61L859.534 600.848L841.495 596.666L830.812 631.694Z" fill="url(#paint11_linear_215_4380)"/>
<path d="M850.846 627.613C846.296 628.828 835.995 632.8 831.162 625.797L798.5 643.496L856.158 643.117L853.47 629.345C853.286 628.098 852.063 627.29 850.844 627.613H850.846Z" fill="url(#paint12_linear_215_4380)"/>
<path d="M798.499 648.517L856.158 648.134L856.125 643.137L798.466 643.52L798.499 648.517Z" fill="white"/>
<path d="M916.252 483.661L879.676 496.033C870.087 499.276 862.608 506.878 859.521 516.518L826.637 612.358L861.275 616.462L899.264 522.737L916.25 483.663L916.252 483.661Z" fill="#E9E9F2"/>
<path d="M928.133 631.652L947.474 631.571L937.43 600.89L918.089 600.972L928.133 631.652Z" fill="url(#paint13_linear_215_4380)"/>
<path d="M946.469 627.613C941.919 628.828 931.618 632.8 926.785 625.797L894.123 643.496L951.781 643.117L949.093 629.345C948.909 628.098 947.686 627.29 946.468 627.613H946.469Z" fill="url(#paint14_linear_215_4380)"/>
<path d="M894.122 648.524L951.78 648.142L951.747 643.144L894.088 643.527L894.122 648.524Z" fill="white"/>
<path d="M1006.42 479.342C1006.42 479.342 1020.35 513.305 993.453 524.404C993.453 524.404 972.922 530.934 922.25 528.159L948.68 611.834L916.397 615.38L882.941 525.276C878.929 514.468 883.344 502.347 893.369 496.654L923.86 479.342H1006.42Z" fill="white"/>
<path d="M924.027 452.734C926.45 458.206 932.896 460.637 938.439 458.193C943.965 455.759 946.486 449.358 944.062 443.893C941.643 438.441 935.192 436.007 929.659 438.441C924.12 440.881 921.612 447.285 924.027 452.732V452.734Z" fill="#F79F8C"/>
<path d="M888.577 475.92L882.331 464.172C904.938 449.625 913.813 444.542 927.701 437.478L938.496 456.443C931.438 461.288 907.787 472.319 888.577 475.92Z" fill="url(#paint15_linear_215_4380)"/>
<path d="M930.718 385.053C933.815 374.797 956.579 376.611 954.99 389.249C953.109 404.214 947.053 441.303 944.545 450.47L922.913 447.818C922.913 447.818 925.739 401.522 930.718 385.053Z" fill="url(#paint16_linear_215_4380)"/>
<path d="M943.405 453.537C940.486 458.767 933.84 460.593 928.548 457.655C923.276 454.721 921.349 448.113 924.268 442.892C927.174 437.691 933.82 435.853 939.109 438.789C944.398 441.729 946.32 448.335 943.405 453.537Z" fill="url(#paint17_linear_215_4380)"/>
<path d="M945.989 374.698C937.023 373.173 928.03 380.9 926.509 389.868L918.907 429.753C918.53 431.949 925.505 434.965 934.471 436.492C943.443 438.016 951.011 437.471 951.388 435.277L958.986 395.394C960.511 386.42 954.96 376.223 945.989 374.7V374.698Z" fill="url(#paint18_linear_215_4380)"/>
<path d="M874.724 460.718C875.639 460.675 876.626 460.663 877.698 460.703C878.904 460.75 883.762 461.154 886.791 464.518C887.469 465.272 882.731 466.63 879.744 467.396L874.724 460.718Z" fill="#F79F8C"/>
<path d="M877.246 464.071C880.718 462.376 884.356 461.336 887.021 464.42C890.364 468.288 891.923 473.759 887.947 478.305L877.246 464.071Z" fill="#F79F8C"/>
<path d="M946.199 416.55C946.124 416.55 946.124 416.673 946.199 416.673C946.277 416.673 946.277 416.55 946.199 416.55Z" fill="#010101"/>
<path d="M939.833 479.08C939.813 486.519 950.292 491.878 966.237 492.071C983.987 492.287 1007.35 486.555 1006.9 478.207C1006.44 469.58 1004.42 463.139 1004.3 457.954C1003.88 440.386 1010.81 385.369 1010.81 385.369C1010.81 375.922 1002.66 368.958 973.229 368.958C942.112 368.958 939.155 378.585 939.155 388.03C939.155 388.03 940.197 423.627 940.07 448.392C940.019 458.492 939.851 473.484 939.833 479.08Z" fill="url(#paint19_linear_215_4380)"/>
<path d="M1010.71 442.722C1007.35 447.678 1008.72 454.435 1013.73 457.833C1018.72 461.224 1025.49 459.96 1028.83 455.009C1032.17 450.064 1030.81 443.302 1025.81 439.909C1020.8 436.51 1014.04 437.78 1010.71 442.724V442.722Z" fill="url(#paint20_linear_215_4380)"/>
<path d="M973.308 473.778L968.07 461.544C991.839 448.971 997.887 447.568 1015.55 438.803L1024.7 458.614C1017.25 462.844 992.75 471.827 973.306 473.78L973.308 473.778Z" fill="url(#paint21_linear_215_4380)"/>
<path d="M1018.51 383.812C1014.9 373.721 992.174 376.985 994.542 389.501C997.343 404.322 1005.69 440.962 1008.75 449.962L1030.18 445.975C1030.29 438.215 1025.7 403.943 1018.51 383.812Z" fill="url(#paint22_linear_215_4380)"/>
<path d="M1010.09 452.948C1013.32 457.985 1020.06 459.398 1025.17 456.14C1030.25 452.883 1031.76 446.17 1028.53 441.138C1025.31 436.126 1018.56 434.705 1013.46 437.961C1008.36 441.222 1006.86 447.935 1010.09 452.946V452.948Z" fill="url(#paint23_linear_215_4380)"/>
<path d="M1002.63 374.422C1011.49 372.345 1020.93 379.5 1023.01 388.354L1033.06 427.694C1033.57 429.863 1026.8 433.305 1017.94 435.381C1009.09 437.458 1001.49 437.382 1000.99 435.215L990.934 395.877C988.858 387.017 993.768 376.496 1002.63 374.42V374.422Z" fill="url(#paint24_linear_215_4380)"/>
<path d="M947.57 462.991C948.339 465.401 952.193 464.365 954.356 464.429C956.483 464.49 962.767 465.662 962.767 465.662C963.951 465.333 972.801 462.8 971.841 461.826C968.664 458.608 963.794 458.426 962.583 458.439C958.298 458.477 955.417 459.254 953.045 459.631C950.774 459.985 946.625 460.004 947.57 462.991Z" fill="#F79F8C"/>
<path d="M947.57 462.991C948.339 465.401 952.193 464.365 954.356 464.429C956.483 464.49 962.767 465.662 962.767 465.662C963.951 465.333 972.801 462.8 971.841 461.826C968.664 458.608 963.794 458.426 962.583 458.439C958.298 458.477 955.417 459.254 953.045 459.631C950.774 459.985 946.625 460.004 947.57 462.991Z" fill="url(#paint25_linear_215_4380)"/>
<path d="M957.006 469.525L942.852 473.115C941.573 473.452 940.321 472.923 940.035 471.722C939.741 470.527 940.766 469.586 942.054 469.25L959.499 463.728C960.787 463.389 958.291 469.182 957.004 469.525H957.006ZM964.724 476.246C965.332 477.324 966.868 478.703 965.69 479.315L951.268 485.803C950.081 486.413 948.145 486.25 947.533 485.174C946.927 484.1 947.476 482.963 948.65 482.357L961.665 475.757C962.847 475.145 964.108 475.172 964.724 476.248V476.246Z" fill="url(#paint26_linear_215_4380)"/>
<path d="M960.297 469.87C960.74 471.165 959.912 472.618 958.459 473.128L942.431 478.373C940.982 478.877 939.565 478.516 939.125 477.224C938.69 475.926 939.779 474.791 941.234 474.287L956.872 468.447C958.332 467.936 959.861 468.578 960.295 469.872L960.297 469.87Z" fill="url(#paint27_linear_215_4380)"/>
<path d="M962.985 472.98C963.514 474.232 963.745 476.059 962.321 476.642L945.895 482.24C944.47 482.825 942.784 482.73 942.248 481.467C941.71 480.213 942.703 479.135 944.12 478.553L959.432 471.758C960.852 471.175 962.442 471.722 962.984 472.98H962.985Z" fill="url(#paint28_linear_215_4380)"/>
<path d="M955.951 465.187C960.528 463.938 968.418 457.513 972.599 462.525C976.783 467.54 977.425 475.35 965.26 479.694C956.47 482.655 955.951 465.187 955.951 465.187Z" fill="#F79F8C"/>
<path d="M964.403 373.67C965.863 377.881 970.368 378.737 974.318 378.57C978.677 378.386 984.409 377.201 985.815 372.378C986.781 369.053 985.892 365.297 985.771 361.904C985.688 359.65 985.69 357.39 985.801 355.135C985.868 353.751 985.977 352.368 986.133 350.99C986.26 349.878 986.407 348.767 986.578 347.66C986.694 346.916 986.819 346.173 986.957 345.432C987.052 344.915 987.626 343.512 987.019 343.174C986.457 342.864 985.356 343.873 984.903 344.165C978.26 348.435 971.304 352.22 964.105 355.472C963.821 355.597 963.528 355.74 963.365 356.005C963.211 356.257 963.215 356.567 963.225 356.865C963.297 359.233 963.37 361.604 963.44 363.972C963.467 364.893 963.471 365.817 963.486 366.738C963.514 369.081 963.622 371.421 964.405 373.671L964.403 373.67Z" fill="url(#paint29_linear_215_4380)"/>
<path d="M963.484 366.736C969.76 364.795 975.765 362.006 981.211 358.356C982.727 357.342 984.286 356.27 985.801 355.135C985.868 353.751 985.977 352.368 986.133 350.99C986.26 349.878 986.407 348.767 986.578 347.66C986.694 346.916 986.819 346.173 986.957 345.432C987.052 344.915 987.626 343.512 987.019 343.174C986.457 342.864 985.356 343.873 984.903 344.165C978.26 348.435 971.304 352.22 964.105 355.472C963.821 355.597 963.528 355.74 963.365 356.005C963.211 356.257 963.215 356.567 963.225 356.865C963.297 359.233 963.37 361.604 963.44 363.972C963.467 364.893 963.471 365.817 963.486 366.738L963.484 366.736Z" fill="#FFB7AC"/>
<path d="M958.16 340.439C957.251 343.627 953.93 345.476 950.742 344.567C947.554 343.657 945.705 340.337 946.614 337.149C947.524 333.96 950.844 332.111 954.033 333.021C957.221 333.93 959.07 337.251 958.16 340.439Z" fill="url(#paint30_linear_215_4380)"/>
<path d="M952.03 319.893C952.03 319.893 947.696 340.024 950.45 347.98C953.205 355.939 959.716 360.875 970.1 358.668C970.1 358.668 982.16 357.873 984.893 339.91C989.01 312.867 964.357 305.326 952.03 319.891V319.893Z" fill="url(#paint31_linear_215_4380)"/>
<path d="M990.279 341.252C989.525 343.896 986.772 345.429 984.128 344.675C981.483 343.921 979.951 341.168 980.705 338.524C981.459 335.879 984.211 334.347 986.856 335.101C989.5 335.855 991.033 338.607 990.279 341.252Z" fill="url(#paint32_linear_215_4380)"/>
<path d="M987.713 338.397C987.713 338.397 984.047 337.41 983.144 341.441" stroke="#ED8B62" stroke-width="0.29173" stroke-linecap="round" stroke-linejoin="round"/>
<path d="M956.02 323.57C955.647 323.38 955.427 323.568 953.646 323.767C952.949 323.845 952.765 323.848 952.654 323.867C952.104 323.96 950.905 324.868 950.089 332.778C948.943 330.939 947.41 328.005 946.579 324.136C946.041 321.634 944.771 315.301 947.908 308.531C951.366 301.067 957.916 297.953 959.708 297.132C967.365 293.63 978.436 293.412 983.943 298.479C985.581 299.987 988.881 303.943 995.273 308.252C995.379 308.324 995.362 308.311 995.394 308.334C1001.12 312.247 1001.13 321.156 1001.13 326.339C1001.14 329.509 1001.15 340.238 995.347 346.533C994.901 347.016 994.109 347.778 992.526 349.304C985.646 355.927 984.714 355.882 984.248 355.732C982.444 355.152 981.336 350.998 982.357 348.374C982.829 347.16 983.302 345.944 983.774 344.73C985.121 345.033 986.962 345.217 987.875 344.148C987.902 344.116 987.928 344.082 987.972 344.023C988.62 343.182 991.378 339.388 989.656 336.826C988.692 335.392 986.498 334.608 984.907 335.243C984.835 335.271 984.766 335.303 984.698 335.336C983.102 336.131 982.649 338.294 981.938 340.981C982.204 342.708 982.645 347.196 980.127 351.614C976.697 357.634 968.983 361.404 961.586 359.333C955.88 357.734 951.477 352.974 950.064 347.001C951.544 346.19 954.09 345.001 957.403 344.544C964.728 343.534 969.116 347.031 973.467 344.572C976.367 342.934 978.178 340.39 978.178 340.39C978.485 339.96 978.726 339.566 979.144 338.88C979.811 337.783 980.696 336.205 981.542 334.256C982.734 331.513 982.696 330.694 982.334 330.299C981.325 329.192 977.943 331.522 976.793 330.299C976.113 329.575 977.06 328.51 976.397 326.934C975.64 325.135 973.535 324.455 973.232 324.362C970.692 323.579 969.822 325.423 967.098 324.955C964.317 324.477 963.965 322.339 961.953 322.581C959.733 322.846 958.6 325.637 957.403 325.154C956.761 324.894 956.918 324.026 956.018 323.57H956.02Z" fill="url(#paint33_linear_215_4380)"/>
<path d="M959.008 458.672L959.587 465.071C961.412 465.371 962.965 465.661 962.965 465.661C964.149 465.331 972.999 462.798 972.039 461.826C968.862 458.608 963.992 458.426 962.783 458.439C961.387 458.451 960.141 458.542 959.01 458.672H959.008Z" fill="url(#paint34_linear_215_4380)"/>
<path d="M957.211 469.525L943.056 473.115C941.777 473.452 940.525 472.923 940.239 471.722C939.945 470.527 940.97 469.586 942.258 469.25L959.703 463.728C960.992 463.389 958.495 469.182 957.209 469.525H957.211ZM964.928 476.246C965.536 477.324 967.072 478.703 965.894 479.315L951.473 485.803C950.285 486.413 948.349 486.25 947.737 485.174C947.131 484.1 947.68 482.963 948.855 482.357L961.869 475.757C963.051 475.146 964.312 475.172 964.928 476.248V476.246Z" fill="url(#paint35_linear_215_4380)"/>
<path d="M960.501 469.87C960.944 471.166 960.116 472.618 958.663 473.128L942.635 478.373C941.186 478.877 939.769 478.516 939.329 477.224C938.894 475.926 939.983 474.791 941.438 474.287L957.078 468.447C958.538 467.936 960.067 468.578 960.501 469.872V469.87Z" fill="url(#paint36_linear_215_4380)"/>
<path d="M963.19 472.98C963.718 474.232 963.949 476.059 962.525 476.642L946.099 482.24C944.674 482.825 942.988 482.73 942.452 481.467C941.914 480.213 942.907 479.135 944.324 478.553L959.636 471.758C961.057 471.175 962.646 471.722 963.188 472.98H963.19Z" fill="url(#paint37_linear_215_4380)"/>
<path d="M956.156 465.187C960.733 463.939 968.623 457.513 972.804 462.525C976.988 467.54 977.631 475.35 965.465 479.694C956.675 482.655 956.156 465.187 956.156 465.187Z" fill="#F79F8C"/>
<path d="M956.156 465.187C960.733 463.939 968.623 457.513 972.804 462.525C976.988 467.54 977.631 475.35 965.465 479.694C956.675 482.655 956.156 465.187 956.156 465.187Z" fill="url(#paint38_linear_215_4380)"/>
<path d="M985.013 550.059H974.178C972.922 550.059 971.904 551.077 971.904 552.332V639.84C971.904 641.095 972.922 642.113 974.178 642.113H985.013C986.269 642.113 987.286 641.095 987.286 639.84V552.332C987.286 551.077 986.269 550.059 985.013 550.059Z" fill="url(#paint39_linear_215_4380)"/>
<path d="M899.014 410.702H822.92L851.454 487.033H928.605L899.014 410.702Z" fill="url(#paint40_linear_215_4380)"/>
<path d="M988.319 487.033V481.192H935.476L908.525 410.702H899.014L928.605 487.033H988.319Z" fill="url(#paint41_linear_215_4380)"/>
<path d="M885.103 451.054C886.323 445.888 883.123 440.711 877.956 439.491C872.79 438.272 867.613 441.472 866.393 446.638C865.174 451.805 868.374 456.982 873.54 458.201C878.707 459.421 883.884 456.221 885.103 451.054Z" fill="url(#paint42_linear_215_4380)"/>
<path d="M1100.4 579.152C1100.4 576.953 1116.24 534.726 1143.07 525.048C1132.51 569.915 1112.28 586.834 1103.92 590.251C1101.28 586.19 1100.4 579.152 1100.4 579.152ZM1100.4 541.324C1100.4 541.324 1114.04 516.253 1143.07 519.77C1126.35 530.328 1100.4 546.011 1100.4 546.011V541.324ZM1102.93 488.014C1102.93 488.014 1108.76 447.192 1146.15 441.034C1123.28 472.264 1102.93 488.014 1102.93 488.014ZM1101.64 507.313C1101.64 507.313 1149.95 480.182 1149.95 466.107C1146.87 488.101 1134.11 507.016 1100.68 515.374C1099.8 514.495 1101.64 507.315 1101.64 507.315L1101.64 507.313ZM1125.91 408.044C1125.91 408.044 1112.28 374.615 1125.91 357.899C1132.51 368.017 1131.63 393.088 1125.91 408.044ZM1130.54 395.288C1130.54 395.288 1141.31 372.855 1160.22 368.017C1151.43 390.449 1130.54 395.288 1130.54 395.288ZM1092.93 433.557C1092.93 433.557 1075.77 416.402 1074.45 395.289C1089.41 406.286 1092.93 433.557 1092.93 433.557ZM1066.53 449.831C1066.53 449.831 1033.54 423.879 1030.9 395.288C1051.58 404.964 1066.53 449.831 1066.53 449.831ZM1072.25 462.368C1072.25 462.368 1051.58 462.148 1036.18 439.274C1052.9 442.794 1072.25 462.368 1072.25 462.368ZM1087.65 513.612C1087.65 513.612 1040.14 484.142 1012.43 485.9C1033.1 472.704 1074.89 485.9 1087.65 513.612ZM1097.76 590.251C1097.76 590.251 1075.77 578.271 1070.05 547.922C1086.77 548.801 1101.28 579.357 1097.76 590.251Z" fill="url(#paint43_linear_215_4380)"/>
<path d="M1100.4 523.29C1100.4 523.29 1088.09 499.976 1092.93 486.341C1099.96 496.404 1102.6 514.493 1100.4 523.29ZM1078.41 480.749C1078.41 480.749 1088.97 453.791 1107.44 449.831C1102.16 462.148 1078.41 480.749 1078.41 480.749Z" fill="#6DC38D"/>
<path d="M1065.07 445.762C1065.07 445.762 1094.88 518.891 1101.16 586.19C1087.65 478.862 1130.54 395.288 1130.54 395.288" stroke="#109490" stroke-width="0.469798" stroke-miterlimit="10"/>
<path d="M1092.23 429.56C1092.23 429.56 1094.35 455.802 1105.35 474.223L1092.23 429.56Z" fill="#6DC38D"/>
<path d="M1141.06 580.164H1059.98C1059.58 580.164 1059.26 580.484 1059.26 580.878V599.197C1059.26 599.591 1059.58 599.911 1059.98 599.911H1141.06C1141.45 599.911 1141.77 599.591 1141.77 599.197V580.878C1141.77 580.484 1141.45 580.164 1141.06 580.164Z" fill="url(#paint44_linear_215_4380)"/>
<path d="M1117.54 645.668H1083.53C1081.1 645.668 1078.97 644.035 1078.34 641.688L1067.01 599.418H1134.05L1122.72 641.688C1122.1 644.035 1119.97 645.668 1117.54 645.668Z" fill="url(#paint45_linear_215_4380)"/>
<path d="M1071.61 616.581L1134.05 599.418H1067.01L1071.61 616.581Z" fill="url(#paint46_linear_215_4380)"/>
<path d="M877.678 118.79H522.257C520.303 118.79 518.719 120.374 518.719 122.328V377.75C518.719 379.704 520.303 381.289 522.257 381.289H877.678C879.632 381.289 881.216 379.704 881.216 377.75V122.328C881.216 120.374 879.632 118.79 877.678 118.79Z" fill="url(#paint47_linear_215_4380)"/>
<path d="M881.218 140.082V122.686C881.218 120.544 879.464 118.79 877.321 118.79H522.615C520.473 118.79 518.719 120.544 518.719 122.686V140.082H881.216H881.218Z" fill="url(#paint48_linear_215_4380)"/>
<path d="M842.935 129.716C843.407 127.726 842.176 125.73 840.186 125.258C838.195 124.786 836.199 126.017 835.728 128.007C835.256 129.997 836.486 131.993 838.477 132.465C840.467 132.937 842.463 131.706 842.935 129.716Z" fill="white"/>
<path d="M854.676 131.478C856.123 130.031 856.123 127.687 854.677 126.24C853.23 124.794 850.885 124.794 849.439 126.24C847.993 127.687 847.993 130.031 849.439 131.478C850.885 132.924 853.23 132.924 854.676 131.478Z" fill="white"/>
<path d="M868.398 129.715C868.87 127.725 867.64 125.729 865.649 125.257C863.659 124.786 861.663 126.016 861.191 128.006C860.719 129.997 861.95 131.992 863.94 132.464C865.931 132.936 867.927 131.706 868.398 129.715Z" fill="white"/>
<path d="M868.982 152.251H527.616V368.917H868.982V152.251Z" fill="white"/>
<path d="M829.086 375.361L851.35 403.879V375.361H829.086Z" fill="url(#paint49_linear_215_4380)"/>
<path d="M660.169 299.676C657.506 305.695 650.421 308.364 644.329 305.678C638.255 303.001 635.482 295.965 638.147 289.959C640.807 283.967 647.896 281.29 653.98 283.967C660.069 286.647 662.827 293.688 660.171 299.675L660.169 299.676Z" fill="#8E5B59"/>
<path d="M653.063 352.646L667.512 350.373C665.36 320.899 663.962 309.745 660.995 292.876L637.202 295.916C637.608 305.32 643.537 333.384 653.062 352.642L653.063 352.646Z" fill="url(#paint50_linear_215_4380)"/>
<path d="M652.816 225.282C649.41 214.007 624.388 216.003 626.136 229.895C628.205 246.343 634.862 287.115 637.618 297.191L661.396 294.276C661.396 294.276 658.289 243.384 652.816 225.282Z" fill="#8E5B59"/>
<path d="M638.867 300.561C642.077 306.31 649.381 308.318 655.199 305.089C660.993 301.864 663.111 294.6 659.902 288.86C656.706 283.141 649.404 281.123 643.59 284.349C637.778 287.583 635.662 294.842 638.866 300.559L638.867 300.561Z" fill="#8E5B59"/>
<path d="M636.03 213.899C645.886 212.222 655.771 220.717 657.443 230.575L665.799 274.417C666.214 276.831 658.548 280.146 648.69 281.824C638.83 283.503 630.51 282.902 630.095 280.489L621.743 236.648C620.064 226.782 626.168 215.575 636.028 213.901L636.03 213.899Z" fill="url(#paint51_linear_215_4380)"/>
<path d="M680.275 368.06C677.695 369.104 675.875 365.111 674.304 363.313C672.766 361.561 667.363 357.054 667.363 357.054C666.818 355.83 662.76 346.556 664.261 346.686C669.216 347.124 672.781 351.127 673.619 352.155C676.581 355.815 677.945 358.797 679.288 361.076C680.575 363.251 683.467 366.772 680.275 368.062V368.06Z" fill="url(#paint52_linear_215_4380)"/>
<path d="M667.516 364.916L673.27 379.919C673.783 381.294 675.124 382.071 676.513 381.554C677.888 381.046 678.144 379.527 677.63 378.157L671.625 358.948C671.112 357.569 667.009 363.546 667.516 364.916ZM655.838 361.421C654.372 361.405 652.079 360.657 652.061 362.129L652.913 379.536C652.898 381.004 654.114 382.793 655.586 382.806C657.058 382.815 657.961 381.679 657.98 380.222L658.003 364.114C658.022 362.648 657.304 361.445 655.836 361.423L655.838 361.421Z" fill="url(#paint53_linear_215_4380)"/>
<path d="M664.227 362.58C662.647 363.021 661.749 364.7 662.206 366.329L667.553 384.084C668.01 385.71 669.3 386.75 670.865 386.31C672.439 385.863 672.844 384.158 672.392 382.524L667.893 364.736C667.442 363.101 665.797 362.142 664.227 362.578V362.58Z" fill="url(#paint54_linear_215_4380)"/>
<path d="M660.538 361.481C658.932 361.714 656.914 362.563 657.147 364.234L661.074 382.902C661.311 384.581 662.397 386.111 664.024 385.875C665.636 385.647 666.161 384.09 665.93 382.419L663.903 364.101C663.66 362.428 662.16 361.26 660.538 361.483V361.481Z" fill="url(#paint55_linear_215_4380)"/>
<path d="M672.514 363.069C670.739 358.155 671.917 346.942 664.194 346.416C656.467 345.889 648.302 350.346 651.998 364.05C654.849 373.851 672.512 363.067 672.512 363.067L672.514 363.069Z" fill="url(#paint56_linear_215_4380)"/>
<path d="M638.123 320.018C643.839 326.385 644.297 369.091 644.297 369.091H606.435L568.488 368.439C568.488 368.439 567.23 323.827 574.858 317.955C586.488 309 628.173 308.923 638.123 320.018Z" fill="url(#paint57_linear_215_4380)"/>
<path d="M635.796 259.903C635.879 259.903 635.879 260.038 635.796 260.038C635.707 260.038 635.707 259.903 635.796 259.903Z" fill="#030303"/>
<path d="M642.796 328.639C642.818 336.817 631.299 342.706 613.772 342.92C594.259 343.157 568.581 336.857 569.075 327.68C569.583 318.197 571.796 311.118 571.93 305.416C572.392 286.105 564.77 225.628 564.77 225.628C564.77 215.244 573.735 207.589 606.085 207.589C640.289 207.589 643.54 218.17 643.54 228.553C643.54 228.553 642.394 267.683 642.534 294.905C642.591 306.007 642.777 322.488 642.796 328.639Z" fill="url(#paint58_linear_215_4380)"/>
<path d="M564.887 288.672C568.572 294.119 567.077 301.546 561.565 305.282C556.073 309.008 548.638 307.621 544.959 302.177C541.295 296.742 542.79 289.307 548.285 285.577C553.792 281.841 561.222 283.236 564.886 288.67L564.887 288.672Z" fill="url(#paint59_linear_215_4380)"/>
<path d="M605.996 322.81L611.753 309.362C585.626 295.541 578.977 293.999 559.558 284.363L549.507 306.138C557.692 310.789 584.624 320.662 605.996 322.808V322.81Z" fill="url(#paint60_linear_215_4380)"/>
<path d="M556.307 223.916C560.27 212.823 585.257 216.412 582.652 230.167C579.573 246.46 570.403 286.736 567.029 296.63L543.479 292.247C543.357 283.716 548.398 246.044 556.305 223.916H556.307Z" fill="url(#paint61_linear_215_4380)"/>
<path d="M565.567 299.913C562.013 305.45 554.6 307.002 548.993 303.421C543.409 299.843 541.74 292.461 545.294 286.931C548.838 281.422 556.254 279.858 561.858 283.44C567.461 287.022 569.119 294.402 565.565 299.911L565.567 299.913Z" fill="url(#paint62_linear_215_4380)"/>
<path d="M573.766 213.594C564.031 211.313 553.644 219.176 551.365 228.909L540.312 272.152C539.753 274.537 547.192 278.321 556.933 280.602C566.668 282.885 575.014 282.803 575.569 280.42L586.623 237.18C588.905 227.441 583.507 215.875 573.766 213.594Z" fill="url(#paint63_linear_215_4380)"/>
<path d="M634.291 310.953C633.446 313.602 629.211 312.463 626.833 312.533C624.496 312.6 617.587 313.89 617.587 313.89C616.286 313.526 606.556 310.743 607.613 309.675C611.106 306.136 616.46 305.937 617.79 305.952C622.501 305.994 625.668 306.848 628.273 307.263C630.768 307.653 635.329 307.674 634.291 310.955V310.953Z" fill="#8E5B59"/>
<path d="M623.921 318.137L639.479 322.081C640.887 322.45 642.26 321.871 642.575 320.55C642.897 319.237 641.771 318.201 640.354 317.834L621.178 311.762C619.763 311.389 622.508 317.758 623.921 318.135V318.137ZM615.436 325.523C614.768 326.707 613.08 328.224 614.375 328.895L630.229 336.027C631.534 336.696 633.664 336.518 634.334 335.336C635.001 334.155 634.397 332.905 633.105 332.24L618.799 324.985C617.499 324.312 616.113 324.341 615.434 325.523H615.436Z" fill="#8E5B59"/>
<path d="M620.307 318.514C619.82 319.938 620.73 321.535 622.327 322.096L639.946 327.862C641.539 328.415 643.096 328.02 643.579 326.597C644.058 325.169 642.859 323.924 641.26 323.369L624.069 316.949C622.463 316.386 620.783 317.093 620.305 318.514H620.307Z" fill="#8E5B59"/>
<path d="M617.351 321.933C616.769 323.308 616.515 325.316 618.082 325.959L636.139 332.109C637.705 332.752 639.558 332.649 640.145 331.261C640.736 329.884 639.645 328.7 638.086 328.059L621.255 320.59C619.694 319.948 617.945 320.552 617.349 321.933H617.351Z" fill="#8E5B59"/>
<path d="M625.081 313.367C620.052 311.995 611.378 304.933 606.782 310.442C602.181 315.954 601.476 324.54 614.848 329.313C624.509 332.57 625.081 313.367 625.081 313.367Z" fill="#8E5B59"/>
<path d="M615.785 212.768C614.181 217.397 609.227 218.339 604.885 218.155C600.094 217.954 593.792 216.649 592.248 211.347C591.187 207.691 592.163 203.563 592.297 199.833C592.39 197.355 592.388 194.87 592.263 192.394C592.189 190.873 592.072 189.354 591.9 187.838C591.761 186.614 591.598 185.394 591.411 184.176C591.284 183.356 591.146 182.54 590.994 181.727C590.89 181.157 590.259 179.615 590.926 179.243C591.543 178.901 592.754 180.011 593.25 180.333C600.553 185.027 608.2 189.187 616.113 192.761C616.424 192.9 616.75 193.055 616.928 193.345C617.096 193.621 617.092 193.964 617.083 194.29C617.005 196.895 616.924 199.5 616.846 202.102C616.82 203.114 616.814 204.131 616.797 205.143C616.765 207.719 616.645 210.292 615.789 212.764H615.785V212.768Z" fill="url(#paint64_linear_215_4380)"/>
<path d="M616.795 205.145C609.896 203.01 603.294 199.945 597.308 195.933C595.643 194.819 593.928 193.642 592.263 192.392C592.189 190.871 592.072 189.352 591.9 187.836C591.761 186.613 591.598 185.393 591.411 184.175C591.284 183.354 591.146 182.538 590.994 181.725C590.89 181.155 590.259 179.613 590.926 179.242C591.543 178.899 592.754 180.009 593.25 180.331C600.553 185.025 608.2 189.185 616.113 192.76C616.424 192.898 616.75 193.053 616.928 193.343C617.096 193.62 617.092 193.963 617.083 194.288C617.005 196.893 616.924 199.498 616.846 202.101C616.82 203.112 616.814 204.13 616.797 205.141L616.795 205.145ZM622.649 176.241C623.647 179.746 627.297 181.778 630.802 180.78C634.308 179.782 636.339 176.131 635.341 172.627C634.342 169.12 630.692 167.09 627.187 168.088C623.683 169.086 621.65 172.737 622.649 176.241Z" fill="#EF8D8B"/>
<path d="M615.683 201.207C615.683 201.207 604.332 200.593 604.567 187.276L616.861 194.22L615.681 201.207H615.683Z" fill="#EF8D8B"/>
<path d="M629.387 153.657C629.387 153.657 634.151 175.785 631.122 184.533C628.093 193.281 620.938 198.706 609.521 196.281C609.521 196.281 596.266 195.406 593.26 175.661C588.736 145.935 615.835 137.646 629.385 153.657H629.387Z" fill="url(#paint65_linear_215_4380)"/>
<path d="M587.341 177.133C588.169 180.039 591.196 181.725 594.102 180.897C597.008 180.07 598.694 177.042 597.866 174.137C597.039 171.231 594.011 169.545 591.106 170.373C588.2 171.2 586.514 174.227 587.341 177.133Z" fill="url(#paint66_linear_215_4380)"/>
<path d="M625 157.697C625.412 157.489 625.652 157.694 627.611 157.915C628.378 158.002 628.581 158.006 628.702 158.025C629.306 158.129 630.623 159.126 631.523 167.821C632.782 165.798 634.467 162.573 635.381 158.323C635.974 155.572 637.367 148.61 633.919 141.169C630.119 132.965 622.919 129.54 620.948 128.638C612.532 124.789 600.363 124.548 594.31 130.118C592.511 131.775 588.881 136.125 581.855 140.859C581.739 140.938 581.758 140.923 581.72 140.95C575.429 145.252 575.42 155.045 575.412 160.742C575.409 164.227 575.397 176.021 581.772 182.94C582.26 183.47 583.132 184.307 584.873 185.986C592.435 193.266 593.46 193.214 593.971 193.05C595.953 192.413 597.171 187.846 596.049 184.961C595.53 183.625 595.011 182.29 594.49 180.954C593.011 181.286 590.984 181.49 589.984 180.316C589.953 180.28 589.925 180.242 589.877 180.179C589.165 179.255 586.134 175.084 588.025 172.269C589.086 170.693 591.497 169.829 593.244 170.528C595.185 171.304 595.693 173.756 596.506 176.836C596.216 178.736 595.729 183.667 598.495 188.524C602.265 195.141 610.744 199.286 618.878 197.009C625.15 195.253 629.988 190.017 631.542 183.455C629.916 182.564 627.116 181.255 623.474 180.753C615.421 179.643 610.598 183.487 605.816 180.784C602.628 178.982 600.637 176.186 600.637 176.186C600.3 175.713 600.035 175.281 599.577 174.527C598.843 173.322 597.872 171.587 596.94 169.444C595.629 166.428 595.672 165.531 596.07 165.095C597.18 163.879 600.895 166.438 602.16 165.095C602.907 164.299 601.867 163.13 602.596 161.397C603.428 159.419 605.745 158.673 606.076 158.569C608.868 157.709 609.823 159.736 612.818 159.22C615.875 158.696 616.262 156.345 618.473 156.61C620.913 156.902 622.159 159.969 623.476 159.438C624.18 159.154 624.01 158.201 624.999 157.697V157.703L625 157.697Z" fill="url(#paint67_linear_215_4380)"/>
<path d="M668.287 284.221L664.233 329.026L664.097 330.526C664.097 333.824 661.424 336.497 658.124 336.497H625.708C622.41 336.497 619.737 333.824 619.737 330.526L621.3 313.24L621.937 306.206L623.926 284.223C623.926 281.487 625.765 279.182 628.271 278.475C628.788 278.329 629.332 278.252 629.897 278.252H662.315C665.613 278.252 668.285 280.925 668.285 284.223L668.287 284.221Z" fill="url(#paint68_linear_215_4380)"/>
<path d="M621.936 306.206L621.3 313.24C619.294 313.57 617.587 313.888 617.587 313.888C616.286 313.526 606.556 310.741 607.613 309.673C611.106 306.134 616.46 305.936 617.788 305.949C619.322 305.962 620.694 306.062 621.936 306.204V306.206Z" fill="url(#paint69_linear_215_4380)"/>
<path d="M623.921 318.137L639.479 322.081C640.887 322.45 642.26 321.871 642.575 320.55C642.897 319.238 641.771 318.201 640.354 317.834L621.178 311.762C619.763 311.389 622.508 317.758 623.921 318.135V318.137ZM615.436 325.523C614.768 326.707 613.08 328.224 614.375 328.895L630.229 336.027C631.534 336.696 633.664 336.518 634.334 335.336C635.001 334.155 634.397 332.905 633.105 332.24L618.799 324.985C617.499 324.312 616.113 324.341 615.434 325.523H615.436Z" fill="url(#paint70_linear_215_4380)"/>
<path d="M620.307 318.514C619.82 319.938 620.73 321.535 622.327 322.096L639.946 327.862C641.539 328.416 643.096 328.02 643.579 326.597C644.058 325.169 642.859 323.924 641.26 323.369L624.069 316.949C622.463 316.387 620.783 317.093 620.305 318.514H620.307Z" fill="url(#paint71_linear_215_4380)"/>
<path d="M617.351 321.933C616.769 323.308 616.515 325.316 618.082 325.959L636.139 332.11C637.705 332.752 639.558 332.649 640.145 331.261C640.736 329.884 639.645 328.7 638.086 328.059L621.255 320.59C619.694 319.948 617.945 320.552 617.349 321.933H617.351Z" fill="url(#paint72_linear_215_4380)"/>
<path d="M625.081 313.367C620.052 311.995 611.378 304.933 606.782 310.442C602.181 315.955 601.476 324.54 614.848 329.313C624.509 332.57 625.081 313.367 625.081 313.367Z" fill="url(#paint73_linear_215_4380)"/>
<path d="M668.287 284.22L664.234 329.025C643.341 322.109 628.27 302.419 628.27 279.208C628.27 278.964 628.27 278.717 628.275 278.473C628.792 278.325 629.336 278.25 629.901 278.25H662.317C665.615 278.25 668.287 280.922 668.287 284.22Z" fill="url(#paint74_linear_215_4380)"/>
<path d="M892.432 175.963H713.898C712.643 175.963 711.625 176.981 711.625 178.236V317.226C711.625 318.481 712.643 319.499 713.898 319.499H892.432C893.688 319.499 894.706 318.481 894.706 317.226V178.236C894.706 176.981 893.688 175.963 892.432 175.963Z" fill="url(#paint75_linear_215_4380)"/>
<path d="M761.346 210.654V213.689H749.187V211.275L755.393 205.414C756.817 204.058 757.071 203.23 757.071 202.45C757.071 201.186 756.198 200.449 754.496 200.449C753.117 200.449 751.945 200.978 751.164 202.058L748.452 200.311C749.692 198.494 751.945 197.324 754.841 197.324C758.427 197.324 760.818 199.163 760.818 202.082C760.818 203.645 760.38 205.07 758.128 207.163L754.426 210.656H761.345L761.346 210.654ZM778.011 213.687L775.298 209.894L772.495 213.687H768.587L773.345 207.458L768.748 201.321H772.769L775.389 204.929L778.079 201.321H781.894L777.297 207.366L782.078 213.687H778.009H778.011ZM795.776 197.598V213.689H792.052V200.588H788.833V197.6H795.774L795.776 197.598ZM798.58 205.642C798.58 200.332 801.522 197.322 805.475 197.322C809.429 197.322 812.371 200.334 812.371 205.642C812.371 210.95 809.451 213.962 805.475 213.962C801.499 213.962 798.58 210.95 798.58 205.642ZM808.624 205.642C808.624 201.987 807.337 200.47 805.475 200.47C803.613 200.47 802.349 201.987 802.349 205.642C802.349 209.296 803.636 210.813 805.475 210.813C807.315 210.813 808.624 209.296 808.624 205.642ZM821.219 201.391H832.161V204.194H821.219V201.391ZM821.219 207.091H832.161V209.894H821.219V207.091ZM852.985 210.654V213.689H840.825V211.275L847.031 205.414C848.456 204.058 848.71 203.23 848.71 202.45C848.71 201.186 847.836 200.449 846.135 200.449C844.756 200.449 843.584 200.978 842.803 202.058L840.09 200.311C841.331 198.494 843.584 197.324 846.48 197.324C850.066 197.324 852.457 199.163 852.457 202.082C852.457 203.645 852.019 205.07 849.767 207.163L846.065 210.656H852.983L852.985 210.654ZM854.478 205.642C854.478 200.332 857.42 197.322 861.373 197.322C865.327 197.322 868.269 200.334 868.269 205.642C868.269 210.95 865.35 213.962 861.373 213.962C857.397 213.962 854.478 210.95 854.478 205.642ZM864.522 205.642C864.522 201.987 863.235 200.47 861.373 200.47C859.511 200.47 858.248 201.987 858.248 205.642C858.248 209.296 859.534 210.813 861.373 210.813C863.213 210.813 864.522 209.296 864.522 205.642ZM761.346 238.234V241.269H749.187V238.855L755.393 232.994C756.817 231.638 757.071 230.81 757.071 230.029C757.071 228.766 756.198 228.029 754.496 228.029C753.117 228.029 751.945 228.558 751.164 229.637L748.452 227.891C749.692 226.074 751.945 224.903 754.841 224.903C758.427 224.903 760.818 226.743 760.818 229.662C760.818 231.225 760.38 232.649 758.128 234.743L754.426 238.236H761.345L761.346 238.234ZM762.839 233.223C762.839 227.913 765.781 224.903 769.735 224.903C773.688 224.903 776.63 227.915 776.63 233.223C776.63 238.531 773.711 241.543 769.735 241.543C765.758 241.543 762.839 238.531 762.839 233.223ZM772.883 233.223C772.883 229.569 771.597 228.052 769.735 228.052C767.872 228.052 766.609 229.569 766.609 233.223C766.609 236.877 767.895 238.395 769.735 238.395C771.574 238.395 772.883 236.877 772.883 233.223ZM785.249 233.362H791.754V236.235H785.249V233.362ZM812.486 236.213C812.486 239.064 810.395 241.545 805.797 241.545C803.568 241.545 801.222 240.924 799.659 239.821L801.131 236.97C802.349 237.889 804.028 238.418 805.706 238.418C807.568 238.418 808.718 237.635 808.718 236.326C808.718 235.017 807.89 234.235 804.971 234.235H800.857L801.685 225.178H811.499V228.165H804.787L804.536 231.223H805.846C810.605 231.223 812.49 233.36 812.49 236.211L812.486 236.213ZM821.035 228.972H831.977V231.776H821.035V228.972ZM821.035 234.672H831.977V237.476H821.035V234.672ZM846.986 225.178V241.269H843.262V228.167H840.043V225.18H846.984L846.986 225.178ZM861.947 236.213C861.947 239.064 859.856 241.545 855.258 241.545C853.029 241.545 850.684 240.924 849.121 239.821L850.593 236.97C851.811 237.889 853.489 238.418 855.168 238.418C857.03 238.418 858.18 237.635 858.18 236.326C858.18 235.017 857.352 234.235 854.432 234.235H850.318L851.146 225.178H860.96V228.165H854.249L853.997 231.223H855.308C860.066 231.223 861.951 233.36 861.951 236.211L861.947 236.213ZM762.61 263.771C762.61 267.058 759.92 269.127 756.52 269.127C752.083 269.127 749.325 266.346 749.325 261.152C749.325 255.59 752.68 252.487 757.531 252.487C759.232 252.487 760.888 252.877 762.013 253.589L760.634 256.325C759.738 255.728 758.704 255.52 757.622 255.52C754.932 255.52 753.208 257.105 753.095 260.185C754.036 259.244 755.393 258.761 757.071 258.761C760.174 258.761 762.61 260.737 762.61 263.771ZM759.001 263.955C759.001 262.483 757.921 261.542 756.266 261.542C754.61 261.542 753.485 262.553 753.485 263.955C753.485 265.357 754.519 266.346 756.311 266.346C757.897 266.346 759.001 265.427 759.001 263.955ZM781.94 262.207H777.941V266.115H774.976V262.207H771V259.403H774.976V255.495H777.941V259.403H781.94V262.207ZM804.028 263.771C804.028 267.058 801.338 269.127 797.938 269.127C793.501 269.127 790.743 266.346 790.743 261.152C790.743 255.59 794.1 252.487 798.949 252.487C800.65 252.487 802.306 252.877 803.431 253.589L802.052 256.325C801.156 255.728 800.122 255.52 799.042 255.52C796.352 255.52 794.628 257.105 794.514 260.185C795.456 259.244 796.812 258.761 798.491 258.761C801.594 258.761 804.03 260.737 804.03 263.771H804.028ZM800.419 263.955C800.419 262.483 799.339 261.542 797.684 261.542C796.028 261.542 794.903 262.553 794.903 263.955C794.903 265.357 795.937 266.346 797.729 266.346C799.315 266.346 800.419 265.427 800.419 263.955ZM812.416 256.554H823.358V259.358H812.416V256.554ZM812.416 262.254H823.358V265.058H812.416V262.254ZM838.367 252.76V268.85H834.642V255.749H831.424V252.762H838.365L838.367 252.76ZM853.192 265.815V268.85H841.032V266.437L847.238 260.576C848.662 259.219 848.916 258.391 848.916 257.611C848.916 256.347 848.043 255.611 846.342 255.611C844.963 255.611 843.79 256.139 843.01 257.219L840.297 255.472C841.538 253.656 843.79 252.485 846.687 252.485C850.273 252.485 852.663 254.324 852.663 257.244C852.663 258.806 852.226 260.231 849.973 262.324L846.272 265.817H853.19L853.192 265.815ZM761.208 291.512C761.208 294.225 759.117 296.706 754.542 296.706C752.29 296.706 749.967 296.085 748.404 294.983L749.852 292.132C751.07 293.05 752.771 293.579 754.449 293.579C756.311 293.579 757.461 292.821 757.461 291.51C757.461 290.292 756.565 289.533 754.449 289.533H752.748V287.074L756.057 283.327H749.207V280.339H760.471V282.753L756.84 286.89C759.736 287.35 761.206 289.142 761.206 291.51L761.208 291.512ZM778.056 296.432L775.344 292.639L772.54 296.432H768.632L773.391 290.203L768.793 284.065H772.815L775.435 287.674L778.125 284.065H781.94L777.342 290.11L782.124 296.432H778.055H778.056ZM801.637 293.397V296.432H789.477V294.018L795.683 288.157C797.108 286.801 797.362 285.973 797.362 285.193C797.362 283.929 796.488 283.192 794.787 283.192C793.408 283.192 792.236 283.721 791.455 284.8L788.742 283.054C789.983 281.237 792.236 280.067 795.132 280.067C798.718 280.067 801.109 281.906 801.109 284.825C801.109 286.388 800.671 287.812 798.419 289.906L794.717 293.399H801.635L801.637 293.397ZM810.211 284.134H821.153V286.937H810.211V284.134ZM810.211 289.834H821.153V292.637H810.211V289.834ZM843.239 291.351C843.239 294.638 840.549 296.706 837.149 296.706C832.712 296.706 829.954 293.926 829.954 288.731C829.954 283.169 833.309 280.067 838.16 280.067C839.861 280.067 841.517 280.457 842.642 281.169L841.263 283.904C840.367 283.306 839.333 283.099 838.251 283.099C835.561 283.099 833.837 284.685 833.724 287.765C834.665 286.822 836.021 286.341 837.7 286.341C840.803 286.341 843.239 288.318 843.239 291.351ZM839.63 291.535C839.63 290.063 838.55 289.121 836.895 289.121C835.239 289.121 834.114 290.133 834.114 291.535C834.114 292.937 835.148 293.926 836.94 293.926C838.526 293.926 839.63 293.007 839.63 291.535Z" fill="white"/>
<path d="M638.511 627.305H542.851C538.39 627.305 534.739 623.654 534.739 619.193C534.739 618.754 534.775 618.324 534.842 617.903C535.459 621.762 538.825 624.734 542.851 624.734H632.601C632.646 624.783 632.694 624.833 632.741 624.88C632.891 625.033 633.046 625.179 633.209 625.319C633.292 625.391 633.376 625.463 633.463 625.53C633.686 625.71 633.918 625.876 634.16 626.03C634.217 626.068 634.274 626.104 634.332 626.138C634.45 626.21 634.567 626.276 634.689 626.34C634.747 626.373 634.808 626.405 634.868 626.435C635.052 626.528 635.238 626.615 635.429 626.693C635.492 626.719 635.556 626.744 635.621 626.769C635.681 626.793 635.742 626.816 635.804 626.837C635.81 626.841 635.818 626.842 635.823 626.844C635.886 626.867 635.948 626.888 636.011 626.907C636.075 626.93 636.141 626.95 636.208 626.969C636.274 626.988 636.34 627.009 636.409 627.026C636.475 627.045 636.543 627.062 636.611 627.077C636.679 627.094 636.748 627.112 636.816 627.125C636.884 627.14 636.952 627.153 637.02 627.166C637.074 627.176 637.125 627.185 637.178 627.193C637.413 627.233 637.651 627.263 637.892 627.28C637.96 627.286 638.026 627.291 638.095 627.293C638.113 627.295 638.132 627.295 638.151 627.295C638.271 627.303 638.39 627.305 638.511 627.305Z" fill="url(#paint76_linear_215_4380)"/>
<path d="M638.512 611.08C636.28 611.08 634.251 611.993 632.781 613.463C632.726 613.518 632.671 613.575 632.618 613.631C632.586 613.664 632.556 613.696 632.527 613.73C632.296 613.98 632.084 614.245 631.887 614.524C631.823 614.613 631.76 614.704 631.701 614.796C631.557 615.018 631.423 615.247 631.302 615.484C631.26 615.566 631.218 615.647 631.179 615.73C631.093 615.91 631.014 616.094 630.942 616.282C630.925 616.321 630.91 616.363 630.894 616.405C630.87 616.473 630.845 616.541 630.822 616.611C630.803 616.664 630.786 616.717 630.769 616.772C630.728 616.903 630.69 617.037 630.656 617.172C630.642 617.221 630.629 617.272 630.618 617.323L630.578 617.5C630.569 617.543 630.559 617.587 630.552 617.632C630.533 617.723 630.517 617.814 630.502 617.905C630.485 618.007 630.472 618.11 630.459 618.212C630.459 618.22 630.455 618.229 630.455 618.237C630.444 618.329 630.434 618.422 630.426 618.517C630.425 618.534 630.423 618.553 630.423 618.572C630.415 618.668 630.409 618.767 630.406 618.867C630.4 618.975 630.398 619.083 630.398 619.193C630.398 619.278 630.398 619.366 630.402 619.451C630.404 619.504 630.406 619.557 630.409 619.61C630.425 619.934 630.461 620.254 630.516 620.568C630.536 620.684 630.557 620.798 630.582 620.911C630.599 620.985 630.616 621.059 630.635 621.133C630.648 621.192 630.663 621.25 630.68 621.309C630.811 621.792 630.987 622.258 631.201 622.702C631.23 622.76 631.258 622.819 631.288 622.878C631.552 623.389 631.868 623.87 632.232 624.314C632.272 624.361 632.311 624.408 632.351 624.456C632.391 624.503 632.431 624.55 632.474 624.596C632.514 624.643 632.558 624.689 632.601 624.734H542.851C538.826 624.734 535.459 621.762 534.842 617.903C535.12 616.185 535.942 614.643 537.123 613.463C538.593 611.993 540.62 611.08 542.851 611.08H638.512Z" fill="#FEB866"/>
<path d="M638.512 624.734H542.851C538.826 624.734 535.459 621.762 534.842 617.903C535.12 616.185 535.942 614.643 537.123 613.463C538.593 611.993 540.62 611.08 542.851 611.08H632.601C631.237 612.531 630.398 614.484 630.398 616.623C630.398 617.058 630.432 617.486 630.502 617.905C631.12 621.764 634.486 624.734 638.512 624.734Z" fill="url(#paint77_linear_215_4380)"/>
<path d="M738.73 627.303H638.512C638.391 627.303 638.271 627.301 638.152 627.293C638.133 627.293 638.114 627.293 638.095 627.291C638.027 627.29 637.959 627.284 637.892 627.278C637.652 627.261 637.413 627.231 637.178 627.191C637.127 627.184 637.074 627.174 637.021 627.165C636.953 627.151 636.885 627.138 636.816 627.123C636.748 627.108 636.68 627.093 636.612 627.076C636.544 627.06 636.475 627.043 636.409 627.024C636.343 627.007 636.275 626.987 636.208 626.968C636.142 626.949 636.076 626.928 636.011 626.905C635.949 626.886 635.886 626.863 635.824 626.843C635.818 626.841 635.811 626.839 635.805 626.835C635.744 626.814 635.682 626.791 635.621 626.767C635.557 626.742 635.492 626.718 635.43 626.691C635.238 626.613 635.053 626.526 634.869 626.433C634.808 626.403 634.748 626.371 634.689 626.339C634.568 626.274 634.45 626.208 634.333 626.136C634.276 626.1 634.217 626.064 634.161 626.028C633.918 625.875 633.687 625.708 633.463 625.528C633.376 625.462 633.293 625.39 633.21 625.318C633.047 625.177 632.891 625.032 632.742 624.878C632.694 624.831 632.647 624.781 632.602 624.732C632.56 624.687 632.516 624.641 632.475 624.594C632.431 624.548 632.391 624.501 632.352 624.454C632.312 624.406 632.272 624.359 632.232 624.312C631.868 623.868 631.552 623.387 631.289 622.876C631.26 622.817 631.23 622.758 631.202 622.7C630.988 622.256 630.811 621.79 630.681 621.307C630.664 621.249 630.648 621.19 630.635 621.131C630.616 621.057 630.599 620.983 630.582 620.909C630.558 620.796 630.537 620.682 630.516 620.567C630.461 620.252 630.425 619.932 630.41 619.608C630.406 619.555 630.404 619.502 630.402 619.449C630.4 619.364 630.398 619.277 630.398 619.191C630.398 619.081 630.398 618.973 630.406 618.865C630.41 618.765 630.415 618.667 630.423 618.57C630.423 618.551 630.423 618.532 630.427 618.515C630.434 618.42 630.444 618.327 630.455 618.235C630.455 618.227 630.457 618.218 630.459 618.21C630.472 618.11 630.486 618.007 630.503 617.909C630.506 617.937 630.51 617.968 630.516 617.996C630.537 618.112 630.558 618.225 630.582 618.339C630.599 618.413 630.616 618.487 630.635 618.56C630.648 618.619 630.664 618.678 630.681 618.737C630.811 619.22 630.988 619.686 631.202 620.129C631.23 620.188 631.26 620.246 631.289 620.305C631.552 620.817 631.868 621.298 632.232 621.741C632.272 621.788 632.312 621.836 632.352 621.883C632.391 621.93 632.431 621.978 632.475 622.023C632.516 622.071 632.56 622.116 632.602 622.162C632.647 622.211 632.694 622.26 632.742 622.307C632.891 622.461 633.047 622.607 633.21 622.747C633.293 622.819 633.376 622.891 633.463 622.957C633.687 623.137 633.918 623.304 634.161 623.457C634.217 623.493 634.276 623.529 634.333 623.565C634.45 623.637 634.568 623.704 634.689 623.768C634.748 623.8 634.808 623.832 634.869 623.863C635.053 623.956 635.238 624.043 635.43 624.12C635.492 624.147 635.557 624.171 635.621 624.196C635.682 624.221 635.744 624.243 635.805 624.264C635.811 624.268 635.818 624.27 635.824 624.272C635.886 624.293 635.949 624.315 636.011 624.334C636.076 624.357 636.142 624.378 636.208 624.397C636.275 624.416 636.343 624.437 636.409 624.454C636.475 624.473 636.544 624.49 636.612 624.505C636.68 624.522 636.748 624.537 636.816 624.552C636.885 624.567 636.953 624.581 637.021 624.594C637.074 624.603 637.127 624.613 637.178 624.62C637.413 624.66 637.652 624.691 637.892 624.708C637.959 624.713 638.027 624.719 638.095 624.721C638.114 624.721 638.133 624.721 638.152 624.721C638.271 624.728 638.391 624.73 638.512 624.73H732.82C734.301 626.31 736.406 627.301 738.73 627.301V627.303Z" fill="#EAEAEA"/>
<path d="M730.718 617.901C730.652 618.322 730.616 618.752 730.616 619.191C730.616 621.328 731.455 623.281 732.819 624.732H638.511C638.39 624.732 638.271 624.73 638.151 624.723C638.132 624.723 638.113 624.723 638.094 624.723C638.026 624.721 637.958 624.715 637.892 624.71C637.651 624.692 637.413 624.662 637.178 624.622C637.126 624.615 637.073 624.605 637.02 624.596C636.952 624.583 636.884 624.569 636.816 624.554C636.748 624.539 636.679 624.524 636.611 624.507C636.543 624.492 636.475 624.475 636.408 624.456C636.342 624.439 636.274 624.418 636.208 624.399C636.141 624.38 636.075 624.359 636.011 624.336C635.948 624.317 635.886 624.295 635.823 624.274C635.817 624.272 635.81 624.27 635.804 624.266C635.744 624.245 635.681 624.223 635.62 624.198C635.556 624.173 635.492 624.149 635.429 624.122C635.238 624.045 635.052 623.957 634.868 623.865C634.808 623.834 634.747 623.802 634.688 623.77C634.567 623.705 634.45 623.639 634.332 623.567C634.275 623.531 634.217 623.495 634.16 623.459C633.917 623.306 633.686 623.139 633.463 622.959C633.376 622.893 633.292 622.821 633.209 622.749C633.046 622.609 632.891 622.463 632.741 622.309C632.694 622.262 632.646 622.213 632.601 622.163C632.559 622.118 632.516 622.073 632.474 622.025C632.43 621.98 632.391 621.932 632.351 621.885C632.311 621.838 632.271 621.79 632.231 621.743C631.868 621.3 631.551 620.819 631.288 620.307C631.26 620.248 631.229 620.19 631.201 620.131C630.987 619.688 630.811 619.222 630.68 618.739C630.663 618.68 630.648 618.621 630.635 618.562C630.616 618.488 630.599 618.415 630.582 618.341C630.557 618.227 630.536 618.113 630.515 617.998C630.51 617.969 630.506 617.939 630.502 617.911V617.907C630.517 617.814 630.532 617.723 630.551 617.632C630.559 617.587 630.568 617.543 630.578 617.5L630.618 617.323C630.629 617.272 630.642 617.221 630.655 617.172C630.689 617.037 630.727 616.903 630.769 616.772C630.786 616.719 630.803 616.664 630.822 616.611C630.845 616.541 630.869 616.473 630.894 616.405C630.909 616.363 630.926 616.321 630.941 616.282C631.013 616.094 631.093 615.91 631.178 615.73C631.218 615.647 631.26 615.565 631.301 615.484C631.423 615.247 631.557 615.018 631.701 614.796C631.762 614.704 631.822 614.613 631.887 614.524C632.084 614.245 632.296 613.98 632.527 613.73C632.555 613.696 632.588 613.664 632.618 613.631C632.671 613.575 632.726 613.518 632.781 613.463C634.251 611.993 636.28 611.08 638.511 611.08H738.729C736.498 611.08 734.469 611.993 732.999 613.463C731.819 614.643 730.997 616.185 730.718 617.903V617.901Z" fill="white"/>
<path d="M738.729 624.732H638.511C638.39 624.732 638.271 624.73 638.151 624.723C638.132 624.723 638.113 624.723 638.094 624.723C638.026 624.721 637.958 624.715 637.892 624.71C637.651 624.692 637.413 624.662 637.178 624.622C637.126 624.615 637.073 624.605 637.02 624.596C636.952 624.583 636.884 624.569 636.816 624.554C636.748 624.539 636.679 624.524 636.611 624.507C636.543 624.492 636.475 624.475 636.408 624.456C636.342 624.439 636.274 624.418 636.208 624.399C636.141 624.38 636.075 624.359 636.011 624.336C635.948 624.317 635.886 624.295 635.823 624.274C635.817 624.272 635.81 624.27 635.804 624.266C635.744 624.245 635.681 624.223 635.62 624.198C635.556 624.173 635.492 624.149 635.429 624.122C635.238 624.045 635.052 623.957 634.868 623.865C634.808 623.834 634.747 623.802 634.688 623.77C634.567 623.705 634.45 623.639 634.332 623.567C634.275 623.531 634.217 623.495 634.16 623.459C633.917 623.306 633.686 623.139 633.463 622.959C633.376 622.893 633.292 622.821 633.209 622.749C633.046 622.609 632.891 622.463 632.741 622.309C632.694 622.262 632.646 622.213 632.601 622.163C632.559 622.118 632.516 622.073 632.474 622.025C632.43 621.98 632.391 621.932 632.351 621.885C632.311 621.838 632.271 621.79 632.231 621.743C631.868 621.3 631.551 620.819 631.288 620.307C631.26 620.248 631.229 620.19 631.201 620.131C630.987 619.688 630.811 619.222 630.68 618.739C630.663 618.68 630.648 618.621 630.635 618.562C630.616 618.488 630.599 618.415 630.582 618.341C630.557 618.227 630.536 618.113 630.515 617.998C630.51 617.969 630.506 617.939 630.502 617.911V617.907C630.517 617.814 630.532 617.723 630.551 617.632C630.559 617.587 630.568 617.543 630.578 617.5L630.618 617.323C630.629 617.272 630.642 617.221 630.655 617.172C630.689 617.037 630.727 616.903 630.769 616.772C630.786 616.719 630.803 616.664 630.822 616.611C630.845 616.541 630.869 616.473 630.894 616.405C630.909 616.363 630.926 616.321 630.941 616.282C631.013 616.094 631.093 615.91 631.178 615.73C631.218 615.647 631.26 615.565 631.301 615.484C631.423 615.247 631.557 615.018 631.701 614.796C631.762 614.704 631.822 614.613 631.887 614.524C632.084 614.245 632.296 613.98 632.527 613.73C632.555 613.696 632.588 613.664 632.618 613.631C632.671 613.575 632.726 613.518 632.781 613.463C634.251 611.993 636.28 611.08 638.511 611.08H732.819C731.455 612.531 730.616 614.484 730.616 616.623C730.616 617.058 730.65 617.486 730.718 617.903C731.336 621.762 734.702 624.734 738.729 624.734V624.732Z" fill="white"/>
<path d="M636.537 614.745H726.174" stroke="#D3E1FD" stroke-width="0.757739" stroke-miterlimit="10" stroke-linecap="round"/>
<path d="M636.537 617.699H726.174" stroke="#D3E1FD" stroke-width="0.757739" stroke-miterlimit="10" stroke-linecap="round"/>
<path d="M636.537 620.633H726.174" stroke="#D3E1FD" stroke-width="0.757739" stroke-miterlimit="10" stroke-linecap="round"/>
<path d="M655.229 640.516H744.865" stroke="#E9E9F2" stroke-width="0.757739" stroke-miterlimit="10"/>
<path d="M661.044 611.521H565.384C560.923 611.521 557.272 607.871 557.272 603.41C557.272 602.97 557.308 602.54 557.375 602.119C557.992 605.978 561.359 608.95 565.384 608.95H655.134C655.18 609 655.227 609.049 655.274 609.096C655.424 609.25 655.579 609.396 655.742 609.536C655.826 609.608 655.909 609.68 655.996 609.746C656.22 609.926 656.451 610.093 656.693 610.246C656.75 610.284 656.807 610.32 656.866 610.354C656.983 610.426 657.1 610.492 657.222 610.557C657.28 610.589 657.341 610.621 657.402 610.652C657.585 610.744 657.771 610.832 657.962 610.909C658.025 610.936 658.089 610.96 658.154 610.985C658.214 611.01 658.275 611.032 658.337 611.053C658.343 611.057 658.351 611.059 658.356 611.061C658.419 611.084 658.481 611.104 658.544 611.123C658.608 611.146 658.675 611.167 658.741 611.186C658.807 611.205 658.874 611.226 658.942 611.243C659.008 611.262 659.076 611.279 659.144 611.294C659.213 611.311 659.281 611.328 659.349 611.341C659.417 611.356 659.485 611.37 659.554 611.383C659.607 611.392 659.658 611.402 659.711 611.409C659.946 611.449 660.184 611.479 660.425 611.496C660.493 611.502 660.56 611.508 660.628 611.51C660.647 611.512 660.666 611.512 660.685 611.512C660.804 611.519 660.923 611.521 661.044 611.521Z" fill="url(#paint78_linear_215_4380)"/>
<path d="M661.045 595.296C658.813 595.296 656.784 596.209 655.314 597.679C655.259 597.734 655.204 597.791 655.151 597.848C655.119 597.88 655.089 597.912 655.061 597.946C654.829 598.196 654.617 598.461 654.42 598.74C654.356 598.829 654.293 598.92 654.235 599.013C654.091 599.234 653.956 599.464 653.835 599.7C653.793 599.782 653.752 599.863 653.712 599.947C653.627 600.127 653.547 600.31 653.475 600.498C653.458 600.538 653.443 600.579 653.428 600.621C653.403 600.689 653.378 600.757 653.356 600.827C653.337 600.881 653.32 600.934 653.303 600.988C653.261 601.119 653.223 601.254 653.189 601.388C653.176 601.437 653.162 601.489 653.151 601.54L653.111 601.716C653.102 601.759 653.092 601.803 653.085 601.849C653.066 601.939 653.051 602.03 653.035 602.121C653.018 602.224 653.005 602.326 652.992 602.428C652.992 602.436 652.988 602.445 652.988 602.453C652.977 602.546 652.967 602.638 652.96 602.733C652.958 602.75 652.956 602.769 652.956 602.788C652.948 602.885 652.943 602.983 652.939 603.084C652.933 603.192 652.931 603.3 652.931 603.409C652.931 603.495 652.931 603.582 652.935 603.667C652.937 603.72 652.939 603.773 652.943 603.826C652.958 604.15 652.994 604.47 653.049 604.785C653.07 604.9 653.09 605.014 653.115 605.128C653.132 605.202 653.149 605.275 653.168 605.349C653.181 605.408 653.197 605.467 653.214 605.525C653.344 606.009 653.52 606.474 653.734 606.918C653.763 606.976 653.791 607.035 653.822 607.094C654.085 607.605 654.401 608.087 654.765 608.53C654.805 608.577 654.845 608.625 654.884 608.672C654.924 608.719 654.964 608.767 655.007 608.812C655.047 608.859 655.091 608.905 655.134 608.95H565.384C561.359 608.95 557.993 605.978 557.375 602.119C557.653 600.401 558.476 598.859 559.656 597.679C561.126 596.209 563.153 595.296 565.384 595.296H661.045Z" fill="url(#paint79_linear_215_4380)"/>
<path d="M661.045 608.95H565.384C561.359 608.95 557.993 605.978 557.375 602.119C557.653 600.401 558.476 598.859 559.656 597.679C561.126 596.209 563.153 595.296 565.384 595.296H655.134C653.77 596.747 652.931 598.7 652.931 600.839C652.931 601.275 652.965 601.703 653.035 602.121C653.653 605.98 657.019 608.95 661.045 608.95Z" fill="url(#paint80_linear_215_4380)"/>
<path d="M761.26 611.519H661.042C660.921 611.519 660.802 611.517 660.682 611.51C660.663 611.51 660.644 611.51 660.625 611.508C660.557 611.506 660.489 611.5 660.423 611.495C660.182 611.478 659.943 611.447 659.709 611.407C659.657 611.4 659.604 611.39 659.551 611.381C659.483 611.368 659.415 611.354 659.347 611.339C659.279 611.324 659.21 611.309 659.142 611.292C659.074 611.277 659.006 611.26 658.939 611.241C658.873 611.224 658.805 611.203 658.739 611.184C658.672 611.165 658.606 611.144 658.542 611.121C658.479 611.102 658.417 611.08 658.354 611.059C658.348 611.057 658.341 611.055 658.335 611.051C658.275 611.03 658.212 611.008 658.151 610.983C658.087 610.958 658.023 610.934 657.96 610.907C657.769 610.83 657.583 610.742 657.399 610.65C657.339 610.619 657.278 610.587 657.219 610.555C657.098 610.491 656.981 610.424 656.863 610.352C656.806 610.316 656.748 610.28 656.691 610.244C656.448 610.091 656.217 609.924 655.994 609.744C655.907 609.678 655.823 609.606 655.74 609.534C655.577 609.394 655.422 609.248 655.272 609.094C655.225 609.047 655.177 608.998 655.132 608.949C655.09 608.903 655.047 608.858 655.005 608.81C654.961 608.765 654.922 608.717 654.882 608.67C654.842 608.623 654.802 608.575 654.762 608.528C654.399 608.085 654.082 607.604 653.819 607.092C653.791 607.033 653.76 606.975 653.732 606.916C653.518 606.473 653.342 606.007 653.211 605.524C653.194 605.465 653.179 605.406 653.166 605.347C653.147 605.274 653.13 605.2 653.112 605.126C653.088 605.012 653.067 604.898 653.046 604.783C652.991 604.468 652.955 604.148 652.94 603.824C652.936 603.771 652.934 603.718 652.932 603.665C652.931 603.58 652.929 603.493 652.929 603.408C652.929 603.298 652.929 603.19 652.936 603.082C652.94 602.981 652.946 602.883 652.953 602.786C652.953 602.767 652.953 602.748 652.957 602.731C652.965 602.637 652.974 602.544 652.986 602.451C652.986 602.443 652.987 602.434 652.989 602.426C653.003 602.326 653.016 602.224 653.033 602.125C653.037 602.154 653.04 602.184 653.046 602.212C653.067 602.328 653.088 602.441 653.112 602.555C653.13 602.629 653.147 602.703 653.166 602.777C653.179 602.836 653.194 602.894 653.211 602.953C653.342 603.436 653.518 603.902 653.732 604.345C653.76 604.404 653.791 604.463 653.819 604.521C654.082 605.033 654.399 605.514 654.762 605.957C654.802 606.005 654.842 606.052 654.882 606.099C654.922 606.147 654.961 606.194 655.005 606.24C655.047 606.287 655.09 606.332 655.132 606.378C655.177 606.427 655.225 606.476 655.272 606.524C655.422 606.677 655.577 606.823 655.74 606.963C655.823 607.035 655.907 607.107 655.994 607.174C656.217 607.354 656.448 607.52 656.691 607.674C656.748 607.71 656.806 607.746 656.863 607.782C656.981 607.854 657.098 607.92 657.219 607.984C657.278 608.017 657.339 608.049 657.399 608.079C657.583 608.172 657.769 608.259 657.96 608.337C658.023 608.363 658.087 608.388 658.151 608.412C658.212 608.437 658.275 608.46 658.335 608.481C658.341 608.484 658.348 608.486 658.354 608.488C658.417 608.509 658.479 608.532 658.542 608.551C658.606 608.573 658.672 608.594 658.739 608.613C658.805 608.632 658.873 608.653 658.939 608.67C659.006 608.689 659.074 608.706 659.142 608.721C659.21 608.738 659.279 608.753 659.347 608.769C659.415 608.784 659.483 608.797 659.551 608.81C659.604 608.82 659.657 608.829 659.709 608.837C659.943 608.877 660.182 608.907 660.423 608.924C660.489 608.93 660.557 608.935 660.625 608.937C660.644 608.937 660.663 608.937 660.682 608.937C660.802 608.945 660.921 608.947 661.042 608.947H755.35C756.831 610.527 758.936 611.517 761.26 611.517V611.519Z" fill="url(#paint81_linear_215_4380)"/>
<path d="M753.252 602.118C753.185 602.538 753.149 602.968 753.149 603.408C753.149 605.544 753.988 607.497 755.352 608.949H661.044C660.923 608.949 660.804 608.947 660.685 608.939C660.666 608.939 660.647 608.939 660.628 608.939C660.559 608.937 660.491 608.932 660.425 608.926C660.184 608.909 659.946 608.878 659.711 608.839C659.66 608.831 659.607 608.822 659.554 608.812C659.485 608.799 659.417 608.786 659.349 608.77C659.281 608.755 659.213 608.74 659.144 608.723C659.076 608.708 659.008 608.691 658.942 608.672C658.875 608.655 658.807 608.634 658.741 608.615C658.675 608.596 658.608 608.575 658.544 608.553C658.481 608.534 658.419 608.511 658.356 608.49C658.351 608.488 658.343 608.486 658.337 608.483C658.277 608.462 658.214 608.439 658.154 608.414C658.089 608.39 658.025 608.365 657.962 608.339C657.771 608.261 657.585 608.174 657.402 608.081C657.341 608.051 657.28 608.018 657.222 607.986C657.1 607.922 656.983 607.856 656.866 607.784C656.809 607.748 656.75 607.712 656.693 607.676C656.451 607.522 656.22 607.355 655.996 607.175C655.909 607.109 655.826 607.037 655.742 606.965C655.579 606.825 655.424 606.679 655.274 606.526C655.227 606.478 655.18 606.429 655.134 606.38C655.092 606.334 655.049 606.289 655.007 606.242C654.964 606.196 654.924 606.149 654.884 606.101C654.844 606.054 654.804 606.007 654.765 605.959C654.401 605.516 654.085 605.035 653.821 604.523C653.793 604.465 653.763 604.406 653.734 604.347C653.52 603.904 653.344 603.438 653.213 602.955C653.196 602.896 653.181 602.837 653.168 602.779C653.149 602.705 653.132 602.631 653.115 602.557C653.09 602.443 653.069 602.33 653.048 602.214C653.043 602.186 653.039 602.155 653.035 602.127V602.123C653.05 602.03 653.065 601.939 653.084 601.849C653.092 601.803 653.101 601.76 653.111 601.716L653.151 601.54C653.162 601.489 653.175 601.437 653.189 601.388C653.223 601.254 653.261 601.119 653.302 600.989C653.319 600.935 653.336 600.881 653.355 600.828C653.378 600.757 653.403 600.689 653.427 600.621C653.442 600.579 653.46 600.538 653.475 600.498C653.547 600.31 653.626 600.127 653.711 599.947C653.751 599.863 653.793 599.782 653.835 599.7C653.956 599.464 654.09 599.234 654.234 599.013C654.295 598.92 654.356 598.829 654.42 598.74C654.617 598.461 654.829 598.196 655.06 597.946C655.089 597.912 655.121 597.88 655.151 597.848C655.204 597.791 655.259 597.734 655.314 597.679C656.784 596.209 658.813 595.296 661.044 595.296H761.263C759.031 595.296 757.002 596.209 755.532 597.679C754.352 598.859 753.53 600.401 753.252 602.119V602.118Z" fill="white"/>
<path d="M761.263 608.949H661.044C660.923 608.949 660.804 608.947 660.685 608.939C660.666 608.939 660.647 608.939 660.628 608.939C660.559 608.937 660.491 608.932 660.425 608.926C660.184 608.909 659.946 608.878 659.711 608.839C659.66 608.831 659.607 608.822 659.554 608.812C659.485 608.799 659.417 608.786 659.349 608.77C659.281 608.755 659.213 608.74 659.144 608.723C659.076 608.708 659.008 608.691 658.942 608.672C658.875 608.655 658.807 608.634 658.741 608.615C658.675 608.596 658.608 608.575 658.544 608.553C658.481 608.534 658.419 608.511 658.356 608.49C658.351 608.488 658.343 608.486 658.337 608.483C658.277 608.462 658.214 608.439 658.154 608.414C658.089 608.39 658.025 608.365 657.962 608.339C657.771 608.261 657.585 608.174 657.402 608.081C657.341 608.051 657.28 608.018 657.222 607.986C657.1 607.922 656.983 607.856 656.866 607.784C656.809 607.748 656.75 607.712 656.693 607.676C656.451 607.522 656.22 607.355 655.996 607.175C655.909 607.109 655.826 607.037 655.742 606.965C655.579 606.825 655.424 606.679 655.274 606.526C655.227 606.478 655.18 606.429 655.134 606.38C655.092 606.334 655.049 606.289 655.007 606.242C654.964 606.196 654.924 606.149 654.884 606.101C654.844 606.054 654.804 606.007 654.765 605.959C654.401 605.516 654.085 605.035 653.821 604.523C653.793 604.465 653.763 604.406 653.734 604.347C653.52 603.904 653.344 603.438 653.213 602.955C653.196 602.896 653.181 602.837 653.168 602.779C653.149 602.705 653.132 602.631 653.115 602.557C653.09 602.443 653.069 602.33 653.048 602.214C653.043 602.186 653.039 602.155 653.035 602.127V602.123C653.05 602.03 653.065 601.939 653.084 601.849C653.092 601.803 653.101 601.76 653.111 601.716L653.151 601.54C653.162 601.489 653.175 601.437 653.189 601.388C653.223 601.254 653.261 601.119 653.302 600.989C653.319 600.935 653.336 600.881 653.355 600.828C653.378 600.757 653.403 600.689 653.427 600.621C653.442 600.579 653.46 600.538 653.475 600.498C653.547 600.31 653.626 600.127 653.711 599.947C653.751 599.863 653.793 599.782 653.835 599.7C653.956 599.464 654.09 599.234 654.234 599.013C654.295 598.92 654.356 598.829 654.42 598.74C654.617 598.461 654.829 598.196 655.06 597.946C655.089 597.912 655.121 597.88 655.151 597.848C655.204 597.791 655.259 597.734 655.314 597.679C656.784 596.209 658.813 595.296 661.044 595.296H755.352C753.988 596.747 753.149 598.7 753.149 600.839C753.149 601.275 753.183 601.703 753.252 602.119C753.869 605.978 757.235 608.95 761.263 608.95V608.949Z" fill="white"/>
<path d="M659.066 598.962H748.703" stroke="#D3E1FD" stroke-width="0.757739" stroke-miterlimit="10" stroke-linecap="round"/>
<path d="M659.066 601.915H748.703" stroke="#D3E1FD" stroke-width="0.757739" stroke-miterlimit="10" stroke-linecap="round"/>
<path d="M659.066 604.849H748.703" stroke="#D3E1FD" stroke-width="0.757739" stroke-miterlimit="10" stroke-linecap="round"/>
<path d="M656.686 643.304H561.026C556.564 643.304 552.914 639.654 552.914 635.193C552.914 634.753 552.95 634.323 553.016 633.903C553.634 637.761 557 640.734 561.026 640.734H650.776C650.821 640.783 650.869 640.832 650.916 640.88C651.066 641.033 651.221 641.179 651.384 641.319C651.467 641.391 651.551 641.463 651.638 641.529C651.861 641.709 652.092 641.876 652.335 642.029C652.392 642.067 652.448 642.103 652.507 642.137C652.625 642.209 652.742 642.276 652.863 642.34C652.922 642.372 652.983 642.404 653.043 642.435C653.227 642.528 653.413 642.615 653.604 642.692C653.667 642.719 653.731 642.744 653.795 642.768C653.856 642.793 653.917 642.816 653.979 642.836C653.985 642.84 653.992 642.842 653.998 642.844C654.061 642.867 654.123 642.887 654.186 642.906C654.25 642.929 654.316 642.95 654.383 642.969C654.449 642.988 654.515 643.009 654.583 643.026C654.65 643.045 654.718 643.062 654.786 643.077C654.854 643.094 654.922 643.111 654.991 643.124C655.059 643.139 655.127 643.153 655.195 643.166C655.248 643.175 655.299 643.185 655.352 643.192C655.587 643.232 655.826 643.263 656.067 643.28C656.135 643.285 656.201 643.291 656.269 643.293C656.288 643.295 656.307 643.295 656.326 643.295C656.446 643.302 656.565 643.304 656.686 643.304Z" fill="url(#paint82_linear_215_4380)"/>
<path d="M656.688 627.079C654.457 627.079 652.428 627.992 650.958 629.462C650.903 629.517 650.848 629.574 650.795 629.631C650.763 629.663 650.733 629.695 650.704 629.729C650.473 629.98 650.261 630.245 650.064 630.523C649.999 630.612 649.937 630.703 649.878 630.796C649.734 631.018 649.6 631.247 649.478 631.484C649.437 631.565 649.395 631.647 649.355 631.73C649.27 631.91 649.191 632.094 649.119 632.281C649.101 632.321 649.086 632.363 649.071 632.404C649.047 632.472 649.022 632.541 648.999 632.611C648.98 632.664 648.963 632.717 648.946 632.772C648.904 632.902 648.867 633.037 648.832 633.171C648.819 633.221 648.806 633.272 648.795 633.323L648.755 633.499C648.745 633.543 648.736 633.586 648.728 633.632C648.709 633.723 648.694 633.814 648.679 633.905C648.662 634.007 648.649 634.109 648.635 634.211C648.635 634.219 648.632 634.228 648.632 634.236C648.62 634.329 648.611 634.422 648.603 634.516C648.601 634.533 648.599 634.552 648.599 634.571C648.592 634.668 648.586 634.766 648.582 634.867C648.577 634.975 648.575 635.083 648.575 635.193C648.575 635.278 648.575 635.365 648.579 635.45C648.581 635.503 648.582 635.556 648.586 635.609C648.601 635.933 648.637 636.254 648.692 636.568C648.713 636.684 648.734 636.797 648.759 636.911C648.776 636.985 648.793 637.059 648.812 637.133C648.825 637.191 648.84 637.25 648.857 637.309C648.988 637.792 649.164 638.258 649.378 638.701C649.406 638.76 649.435 638.818 649.465 638.877C649.728 639.389 650.045 639.87 650.409 640.313C650.448 640.36 650.488 640.408 650.528 640.455C650.568 640.503 650.607 640.55 650.651 640.595C650.691 640.643 650.734 640.688 650.778 640.734H561.028C557.002 640.734 553.636 637.761 553.019 633.903C553.297 632.184 554.119 630.643 555.299 629.462C556.769 627.992 558.796 627.079 561.028 627.079H656.688Z" fill="#56E386"/>
<path d="M656.688 640.734H561.028C557.002 640.734 553.636 637.761 553.019 633.903C553.297 632.184 554.119 630.643 555.299 629.462C556.769 627.992 558.796 627.079 561.028 627.079H650.778C649.414 628.53 648.575 630.483 648.575 632.622C648.575 633.058 648.609 633.486 648.679 633.905C649.297 637.763 652.663 640.734 656.688 640.734Z" fill="url(#paint83_linear_215_4380)"/>
<path d="M756.906 643.304H656.688C656.566 643.304 656.447 643.302 656.328 643.295C656.309 643.295 656.29 643.295 656.271 643.293C656.203 643.291 656.135 643.285 656.068 643.28C655.828 643.262 655.589 643.232 655.354 643.192C655.303 643.185 655.25 643.175 655.197 643.166C655.129 643.153 655.06 643.139 654.992 643.124C654.924 643.109 654.856 643.094 654.788 643.077C654.719 643.062 654.651 643.045 654.585 643.026C654.519 643.009 654.45 642.988 654.384 642.969C654.318 642.95 654.252 642.929 654.187 642.906C654.125 642.887 654.062 642.865 654 642.844C653.994 642.842 653.986 642.84 653.981 642.836C653.92 642.815 653.858 642.793 653.797 642.768C653.733 642.743 653.668 642.719 653.606 642.692C653.414 642.615 653.229 642.527 653.045 642.435C652.984 642.404 652.924 642.372 652.865 642.34C652.744 642.276 652.626 642.209 652.509 642.137C652.452 642.101 652.393 642.065 652.336 642.029C652.094 641.876 651.863 641.709 651.639 641.529C651.552 641.463 651.469 641.391 651.385 641.319C651.223 641.179 651.067 641.033 650.918 640.879C650.87 640.832 650.823 640.783 650.777 640.734C650.736 640.688 650.692 640.643 650.65 640.595C650.607 640.55 650.567 640.502 650.527 640.455C650.487 640.408 650.448 640.36 650.408 640.313C650.044 639.87 649.728 639.389 649.465 638.877C649.436 638.818 649.406 638.76 649.377 638.701C649.163 638.258 648.987 637.792 648.856 637.309C648.839 637.25 648.824 637.191 648.811 637.132C648.792 637.059 648.775 636.985 648.758 636.911C648.733 636.797 648.713 636.683 648.692 636.568C648.637 636.253 648.601 635.933 648.586 635.609C648.582 635.556 648.58 635.503 648.578 635.45C648.576 635.365 648.574 635.278 648.574 635.193C648.574 635.083 648.574 634.975 648.582 634.867C648.586 634.766 648.591 634.668 648.599 634.571C648.599 634.552 648.599 634.533 648.603 634.516C648.61 634.422 648.62 634.329 648.631 634.236C648.631 634.228 648.633 634.219 648.635 634.211C648.648 634.111 648.661 634.009 648.678 633.91C648.682 633.939 648.686 633.969 648.692 633.997C648.713 634.113 648.733 634.226 648.758 634.34C648.775 634.414 648.792 634.488 648.811 634.562C648.824 634.621 648.839 634.679 648.856 634.738C648.987 635.221 649.163 635.687 649.377 636.13C649.406 636.189 649.436 636.248 649.465 636.306C649.728 636.818 650.044 637.299 650.408 637.742C650.448 637.79 650.487 637.837 650.527 637.884C650.567 637.932 650.607 637.979 650.65 638.025C650.692 638.072 650.736 638.117 650.777 638.163C650.823 638.212 650.87 638.261 650.918 638.309C651.067 638.462 651.223 638.608 651.385 638.748C651.469 638.82 651.552 638.892 651.639 638.959C651.863 639.139 652.094 639.305 652.336 639.459C652.393 639.495 652.452 639.531 652.509 639.567C652.626 639.639 652.744 639.705 652.865 639.769C652.924 639.802 652.984 639.834 653.045 639.864C653.229 639.957 653.414 640.044 653.606 640.122C653.668 640.148 653.733 640.173 653.797 640.197C653.858 640.222 653.92 640.245 653.981 640.266C653.986 640.269 653.994 640.271 654 640.273C654.062 640.294 654.125 640.317 654.187 640.336C654.252 640.358 654.318 640.379 654.384 640.398C654.45 640.417 654.519 640.438 654.585 640.455C654.651 640.474 654.719 640.491 654.788 640.506C654.856 640.523 654.924 640.538 654.992 640.554C655.06 640.569 655.129 640.582 655.197 640.595C655.25 640.605 655.303 640.614 655.354 640.622C655.589 640.662 655.828 640.692 656.068 640.709C656.135 640.715 656.203 640.72 656.271 640.722C656.29 640.722 656.309 640.722 656.328 640.722C656.447 640.73 656.566 640.732 656.688 640.732H750.996C752.477 642.312 754.582 643.302 756.906 643.302V643.304Z" fill="#EAEAEA"/>
<path d="M748.893 633.903C748.827 634.323 748.791 634.753 748.791 635.193C748.791 637.33 749.63 639.283 750.994 640.734H656.686C656.565 640.734 656.445 640.732 656.326 640.724C656.307 640.724 656.288 640.724 656.269 640.724C656.201 640.722 656.133 640.717 656.067 640.711C655.826 640.694 655.587 640.664 655.352 640.624C655.301 640.616 655.248 640.607 655.195 640.597C655.127 640.584 655.059 640.571 654.991 640.556C654.922 640.54 654.854 640.525 654.786 640.508C654.718 640.493 654.65 640.476 654.583 640.457C654.517 640.44 654.449 640.419 654.383 640.4C654.316 640.381 654.25 640.361 654.186 640.338C654.123 640.319 654.06 640.296 653.998 640.275C653.992 640.273 653.985 640.271 653.979 640.268C653.918 640.247 653.856 640.224 653.795 640.199C653.731 640.175 653.666 640.15 653.604 640.124C653.413 640.046 653.227 639.959 653.043 639.866C652.983 639.836 652.922 639.804 652.863 639.771C652.742 639.707 652.625 639.641 652.507 639.569C652.45 639.533 652.392 639.497 652.335 639.461C652.092 639.307 651.861 639.141 651.638 638.961C651.55 638.894 651.467 638.822 651.384 638.75C651.221 638.61 651.066 638.464 650.916 638.311C650.869 638.263 650.821 638.214 650.776 638.165C650.734 638.119 650.69 638.074 650.649 638.027C650.605 637.981 650.565 637.934 650.526 637.886C650.486 637.839 650.446 637.792 650.406 637.744C650.043 637.301 649.726 636.82 649.463 636.309C649.434 636.25 649.404 636.191 649.376 636.132C649.162 635.689 648.986 635.223 648.855 634.74C648.838 634.681 648.823 634.623 648.809 634.564C648.79 634.49 648.773 634.416 648.756 634.342C648.732 634.228 648.711 634.115 648.69 633.999C648.684 633.971 648.681 633.941 648.677 633.912V633.908C648.692 633.816 648.707 633.725 648.726 633.634C648.734 633.588 648.743 633.545 648.753 633.501L648.792 633.325C648.804 633.274 648.817 633.223 648.83 633.173C648.864 633.039 648.902 632.904 648.944 632.774C648.961 632.721 648.978 632.666 648.997 632.613C649.02 632.543 649.044 632.474 649.069 632.406C649.084 632.364 649.101 632.323 649.116 632.283C649.188 632.095 649.268 631.912 649.353 631.732C649.393 631.648 649.435 631.567 649.476 631.485C649.597 631.249 649.732 631.019 649.876 630.798C649.937 630.705 649.997 630.614 650.062 630.525C650.259 630.247 650.471 629.981 650.702 629.731C650.73 629.697 650.762 629.665 650.793 629.633C650.846 629.576 650.901 629.519 650.956 629.464C652.426 627.994 654.455 627.081 656.686 627.081H756.904C754.673 627.081 752.644 627.994 751.174 629.464C749.994 630.644 749.172 632.186 748.893 633.905V633.903Z" fill="white"/>
<path d="M756.904 640.734H656.686C656.565 640.734 656.445 640.732 656.326 640.724C656.307 640.724 656.288 640.724 656.269 640.724C656.201 640.722 656.133 640.717 656.067 640.711C655.826 640.694 655.587 640.664 655.352 640.624C655.301 640.616 655.248 640.607 655.195 640.597C655.127 640.584 655.059 640.571 654.991 640.556C654.922 640.54 654.854 640.525 654.786 640.508C654.718 640.493 654.65 640.476 654.583 640.457C654.517 640.44 654.449 640.419 654.383 640.4C654.316 640.381 654.25 640.361 654.186 640.338C654.123 640.319 654.06 640.296 653.998 640.275C653.992 640.273 653.985 640.271 653.979 640.268C653.918 640.247 653.856 640.224 653.795 640.199C653.731 640.175 653.666 640.15 653.604 640.124C653.413 640.046 653.227 639.959 653.043 639.866C652.983 639.836 652.922 639.804 652.863 639.771C652.742 639.707 652.625 639.641 652.507 639.569C652.45 639.533 652.392 639.497 652.335 639.461C652.092 639.307 651.861 639.141 651.638 638.961C651.55 638.894 651.467 638.822 651.384 638.75C651.221 638.61 651.066 638.464 650.916 638.311C650.869 638.263 650.821 638.214 650.776 638.165C650.734 638.119 650.69 638.074 650.649 638.027C650.605 637.981 650.565 637.934 650.526 637.886C650.486 637.839 650.446 637.792 650.406 637.744C650.043 637.301 649.726 636.82 649.463 636.309C649.434 636.25 649.404 636.191 649.376 636.132C649.162 635.689 648.986 635.223 648.855 634.74C648.838 634.681 648.823 634.623 648.809 634.564C648.79 634.49 648.773 634.416 648.756 634.342C648.732 634.228 648.711 634.115 648.69 633.999C648.684 633.971 648.681 633.941 648.677 633.912V633.908C648.692 633.816 648.707 633.725 648.726 633.634C648.734 633.588 648.743 633.545 648.753 633.501L648.792 633.325C648.804 633.274 648.817 633.223 648.83 633.173C648.864 633.039 648.902 632.904 648.944 632.774C648.961 632.721 648.978 632.666 648.997 632.613C649.02 632.543 649.044 632.474 649.069 632.406C649.084 632.364 649.101 632.323 649.116 632.283C649.188 632.095 649.268 631.912 649.353 631.732C649.393 631.648 649.435 631.567 649.476 631.485C649.597 631.249 649.732 631.019 649.876 630.798C649.937 630.705 649.997 630.614 650.062 630.525C650.259 630.247 650.471 629.981 650.702 629.731C650.73 629.697 650.762 629.665 650.793 629.633C650.846 629.576 650.901 629.519 650.956 629.464C652.426 627.994 654.455 627.081 656.686 627.081H750.994C749.63 628.532 748.791 630.485 748.791 632.624C748.791 633.06 748.825 633.488 748.893 633.905C749.511 637.763 752.877 640.736 756.904 640.736V640.734Z" fill="white"/>
<path d="M654.709 630.747H744.345" stroke="#D3E1FD" stroke-width="0.757739" stroke-miterlimit="10" stroke-linecap="round"/>
<path d="M654.709 633.698H744.345" stroke="#D3E1FD" stroke-width="0.757739" stroke-miterlimit="10" stroke-linecap="round"/>
<path d="M654.709 636.634H744.345" stroke="#D3E1FD" stroke-width="0.757739" stroke-miterlimit="10" stroke-linecap="round"/>
<defs>
<radialGradient id="paint0_radial_215_4380" cx="0" cy="0" r="1" gradientUnits="userSpaceOnUse" gradientTransform="translate(800 380) rotate(92.9598) scale(490.094 806.529)">
<stop stop-color="#8085FF"/>
<stop offset="0.540512" stop-color="#762CEF"/>
<stop offset="1" stop-color="#7000C8"/>
</radialGradient>
<linearGradient id="paint1_linear_215_4380" x1="791.184" y1="645.586" x2="791.184" y2="654.391" gradientUnits="userSpaceOnUse">
<stop stop-color="#E5E8FF"/>
<stop offset="0.0001" stop-color="#F6F7FF"/>
<stop offset="1" stop-color="#B8C8FF"/>
</linearGradient>
<linearGradient id="paint2_linear_215_4380" x1="665.283" y1="473.64" x2="641.415" y2="490.576" gradientUnits="userSpaceOnUse">
<stop offset="0.13627" stop-color="#F68CFF"/>
<stop offset="0.921622" stop-color="#630285"/>
</linearGradient>
<linearGradient id="paint3_linear_215_4380" x1="605.062" y1="487.058" x2="592.155" y2="522.764" gradientUnits="userSpaceOnUse">
<stop offset="0.13627" stop-color="#F68CFF"/>
<stop offset="0.921622" stop-color="#630285"/>
</linearGradient>
<linearGradient id="paint4_linear_215_4380" x1="631.676" y1="493.672" x2="616.084" y2="504.952" gradientUnits="userSpaceOnUse">
<stop offset="0.13627" stop-color="#F68CFF"/>
<stop offset="0.921622" stop-color="#630285"/>
</linearGradient>
<linearGradient id="paint5_linear_215_4380" x1="648.944" y1="496.895" x2="641.625" y2="498.905" gradientUnits="userSpaceOnUse">
<stop offset="0.13627" stop-color="#F68CFF"/>
<stop offset="0.921622" stop-color="#630285"/>
</linearGradient>
<linearGradient id="paint6_linear_215_4380" x1="620.127" y1="533.606" x2="698.587" y2="533.486" gradientUnits="userSpaceOnUse">
<stop stop-color="#FFBA3C"/>
<stop offset="1" stop-color="#FFDD9F"/>
</linearGradient>
<linearGradient id="paint7_linear_215_4380" x1="633.387" y1="573.388" x2="684.773" y2="573.388" gradientUnits="userSpaceOnUse">
<stop stop-color="#F4932F"/>
<stop offset="1" stop-color="#FFC282"/>
</linearGradient>
<linearGradient id="paint8_linear_215_4380" x1="659.165" y1="552.113" x2="659.165" y2="568.302" gradientUnits="userSpaceOnUse">
<stop stop-color="#F18421"/>
<stop offset="1" stop-color="#FFBC7E"/>
</linearGradient>
<linearGradient id="paint9_linear_215_4380" x1="1070" y1="395.5" x2="996.377" y2="551.349" gradientUnits="userSpaceOnUse">
<stop stop-color="white"/>
<stop offset="1" stop-color="#CFCFFB"/>
</linearGradient>
<linearGradient id="paint10_linear_215_4380" x1="1027.5" y1="383" x2="982.87" y2="525.363" gradientUnits="userSpaceOnUse">
<stop stop-color="#B5D1FB"/>
<stop offset="1" stop-color="#F7F7F7"/>
</linearGradient>
<linearGradient id="paint11_linear_215_4380" x1="845.944" y1="602.041" x2="843.202" y2="645.149" gradientUnits="userSpaceOnUse">
<stop offset="0.289707" stop-color="#FFC4C4"/>
<stop offset="0.755878" stop-color="white"/>
</linearGradient>
<linearGradient id="paint12_linear_215_4380" x1="849.877" y1="629.5" x2="817.877" y2="643" gradientUnits="userSpaceOnUse">
<stop stop-color="#0C0E0E"/>
<stop offset="1" stop-color="#4B4F4F"/>
</linearGradient>
<linearGradient id="paint13_linear_215_4380" x1="933.57" y1="605.611" x2="941.055" y2="631.327" gradientUnits="userSpaceOnUse">
<stop offset="0.335376" stop-color="#FFC4C4"/>
<stop offset="1" stop-color="white"/>
</linearGradient>
<linearGradient id="paint14_linear_215_4380" x1="945.5" y1="629.5" x2="913.5" y2="643" gradientUnits="userSpaceOnUse">
<stop stop-color="#0C0E0E"/>
<stop offset="1" stop-color="#4B4F4F"/>
</linearGradient>
<linearGradient id="paint15_linear_215_4380" x1="860.33" y1="430.867" x2="920.53" y2="490.149" gradientUnits="userSpaceOnUse">
<stop stop-color="white"/>
<stop offset="0.84427" stop-color="#FFC4C4"/>
</linearGradient>
<linearGradient id="paint16_linear_215_4380" x1="910.317" y1="366.026" x2="972.573" y2="384.753" gradientUnits="userSpaceOnUse">
<stop stop-color="white"/>
<stop offset="0.84427" stop-color="#FFC4C4"/>
</linearGradient>
<linearGradient id="paint17_linear_215_4380" x1="914.342" y1="433.664" x2="945.9" y2="455.126" gradientUnits="userSpaceOnUse">
<stop stop-color="white"/>
<stop offset="0.620497" stop-color="#FFC4C4"/>
</linearGradient>
<linearGradient id="paint18_linear_215_4380" x1="939.065" y1="374.505" x2="939.065" y2="437.356" gradientUnits="userSpaceOnUse">
<stop offset="0.336472" stop-color="#65CE8C"/>
<stop offset="1" stop-color="#B9E9CB"/>
</linearGradient>
<linearGradient id="paint19_linear_215_4380" x1="974.985" y1="368.958" x2="974.985" y2="492.077" gradientUnits="userSpaceOnUse">
<stop offset="0.336472" stop-color="#65CE8C"/>
<stop offset="1" stop-color="#B9E9CB"/>
</linearGradient>
<linearGradient id="paint20_linear_215_4380" x1="1000.33" y1="434.264" x2="1031.91" y2="455.608" gradientUnits="userSpaceOnUse">
<stop stop-color="white"/>
<stop offset="0.84427" stop-color="#FFC4C4"/>
</linearGradient>
<linearGradient id="paint21_linear_215_4380" x1="899" y1="490.5" x2="1008.61" y2="500.275" gradientUnits="userSpaceOnUse">
<stop stop-color="white"/>
<stop offset="0.84427" stop-color="#FFC4C4"/>
</linearGradient>
<linearGradient id="paint22_linear_215_4380" x1="980.342" y1="365.448" x2="1050.93" y2="403.177" gradientUnits="userSpaceOnUse">
<stop stop-color="white"/>
<stop offset="0.84427" stop-color="#FFC4C4"/>
<stop offset="0.930212" stop-color="#FFC4C4"/>
</linearGradient>
<linearGradient id="paint23_linear_215_4380" x1="999.83" y1="432.484" x2="1031.39" y2="453.917" gradientUnits="userSpaceOnUse">
<stop stop-color="white"/>
<stop offset="0.341589" stop-color="#FFC4C4"/>
</linearGradient>
<linearGradient id="paint24_linear_215_4380" x1="1011.78" y1="374.06" x2="1011.78" y2="436.891" gradientUnits="userSpaceOnUse">
<stop offset="0.336472" stop-color="#65CE8C"/>
<stop offset="1" stop-color="#B9E9CB"/>
</linearGradient>
<linearGradient id="paint25_linear_215_4380" x1="937.843" y1="457.196" x2="946.156" y2="476.184" gradientUnits="userSpaceOnUse">
<stop stop-color="white"/>
<stop offset="0.84427" stop-color="#FFC4C4"/>
</linearGradient>
<linearGradient id="paint26_linear_215_4380" x1="929.746" y1="459.854" x2="963.889" y2="486.657" gradientUnits="userSpaceOnUse">
<stop stop-color="white"/>
<stop offset="0.84427" stop-color="#FFC4C4"/>
</linearGradient>
<linearGradient id="paint27_linear_215_4380" x1="930.65" y1="466.496" x2="945.952" y2="487.869" gradientUnits="userSpaceOnUse">
<stop stop-color="white"/>
<stop offset="0.84427" stop-color="#FFC4C4"/>
</linearGradient>
<linearGradient id="paint28_linear_215_4380" x1="933.758" y1="469.623" x2="950.51" y2="491.36" gradientUnits="userSpaceOnUse">
<stop stop-color="white"/>
<stop offset="0.84427" stop-color="#FFC4C4"/>
</linearGradient>
<linearGradient id="paint29_linear_215_4380" x1="973.5" y1="346.5" x2="983.58" y2="375.094" gradientUnits="userSpaceOnUse">
<stop stop-color="white"/>
<stop offset="0.937278" stop-color="#FFC4C4"/>
</linearGradient>
<linearGradient id="paint30_linear_215_4380" x1="941.679" y1="330.724" x2="947.143" y2="339.915" gradientUnits="userSpaceOnUse">
<stop stop-color="white"/>
<stop offset="0.84427" stop-color="#FFC4C4"/>
</linearGradient>
<linearGradient id="paint31_linear_215_4380" x1="935.504" y1="304.583" x2="995.122" y2="335.469" gradientUnits="userSpaceOnUse">
<stop stop-color="white"/>
<stop offset="0.84427" stop-color="#FFC4C4"/>
</linearGradient>
<linearGradient id="paint32_linear_215_4380" x1="985.5" y1="334.5" x2="987.663" y2="344.966" gradientUnits="userSpaceOnUse">
<stop stop-color="white"/>
<stop offset="0.84427" stop-color="#FFC4C4"/>
</linearGradient>
<linearGradient id="paint33_linear_215_4380" x1="988" y1="301.5" x2="964" y2="360" gradientUnits="userSpaceOnUse">
<stop stop-color="#11176A"/>
<stop offset="1" stop-color="#0F1122"/>
</linearGradient>
<linearGradient id="paint34_linear_215_4380" x1="953.875" y1="457.197" x2="964.96" y2="470.754" gradientUnits="userSpaceOnUse">
<stop stop-color="white"/>
<stop offset="0.84427" stop-color="#FFC4C4"/>
</linearGradient>
<linearGradient id="paint35_linear_215_4380" x1="929.95" y1="459.854" x2="964.093" y2="486.657" gradientUnits="userSpaceOnUse">
<stop stop-color="white"/>
<stop offset="0.93125" stop-color="#FFC4C4"/>
</linearGradient>
<linearGradient id="paint36_linear_215_4380" x1="930.855" y1="466.496" x2="946.156" y2="487.869" gradientUnits="userSpaceOnUse">
<stop stop-color="white"/>
<stop offset="0.93125" stop-color="#FFC4C4"/>
</linearGradient>
<linearGradient id="paint37_linear_215_4380" x1="933.962" y1="469.623" x2="950.714" y2="491.36" gradientUnits="userSpaceOnUse">
<stop stop-color="white"/>
<stop offset="0.93125" stop-color="#FFC4C4"/>
</linearGradient>
<linearGradient id="paint38_linear_215_4380" x1="948.566" y1="457.304" x2="976.71" y2="476.259" gradientUnits="userSpaceOnUse">
<stop stop-color="white"/>
<stop offset="0.84427" stop-color="#FFC4C4"/>
</linearGradient>
<linearGradient id="paint39_linear_215_4380" x1="979.595" y1="550.059" x2="979.595" y2="642.113" gradientUnits="userSpaceOnUse">
<stop stop-color="#21233E"/>
<stop offset="1" stop-color="#3541C1"/>
</linearGradient>
<linearGradient id="paint40_linear_215_4380" x1="876" y1="439.5" x2="875.763" y2="487.033" gradientUnits="userSpaceOnUse">
<stop stop-color="#393C5E"/>
<stop offset="1" stop-color="#595E99"/>
</linearGradient>
<linearGradient id="paint41_linear_215_4380" x1="950" y1="437" x2="925" y2="487" gradientUnits="userSpaceOnUse">
<stop stop-color="#2C2F44"/>
<stop offset="1" stop-color="#19278E"/>
</linearGradient>
<linearGradient id="paint42_linear_215_4380" x1="870" y1="441.5" x2="871.5" y2="460" gradientUnits="userSpaceOnUse">
<stop stop-color="white"/>
<stop offset="1" stop-color="white" stop-opacity="0"/>
</linearGradient>
<linearGradient id="paint43_linear_215_4380" x1="1058" y1="545.285" x2="1192.88" y2="443.865" gradientUnits="userSpaceOnUse">
<stop offset="0.184024" stop-color="#03AB8D"/>
<stop offset="1" stop-color="#67FFD2"/>
</linearGradient>
<linearGradient id="paint44_linear_215_4380" x1="1059.13" y1="580.292" x2="1142.31" y2="580.164" gradientUnits="userSpaceOnUse">
<stop stop-color="#FFBA3C"/>
<stop offset="1" stop-color="#FFDD9F"/>
</linearGradient>
<linearGradient id="paint45_linear_215_4380" x1="1073.2" y1="621.974" x2="1127.68" y2="621.974" gradientUnits="userSpaceOnUse">
<stop stop-color="#F4932F"/>
<stop offset="1" stop-color="#FFC282"/>
</linearGradient>
<linearGradient id="paint46_linear_215_4380" x1="1100.53" y1="599.418" x2="1100.53" y2="616.581" gradientUnits="userSpaceOnUse">
<stop stop-color="#F18421"/>
<stop offset="1" stop-color="#FFBC7E"/>
</linearGradient>
<linearGradient id="paint47_linear_215_4380" x1="700.237" y1="157.732" x2="700.237" y2="319.75" gradientUnits="userSpaceOnUse">
<stop stop-color="#E5E8FF"/>
<stop offset="0.0001" stop-color="#F6F7FF"/>
<stop offset="1" stop-color="#B8C8FF"/>
</linearGradient>
<linearGradient id="paint48_linear_215_4380" x1="700.238" y1="121.949" x2="700.238" y2="135.09" gradientUnits="userSpaceOnUse">
<stop stop-color="#CED4FF"/>
<stop offset="0.0001" stop-color="#F6F7FF"/>
<stop offset="1" stop-color="#B8C8FF"/>
</linearGradient>
<linearGradient id="paint49_linear_215_4380" x1="840.235" y1="379.592" x2="840.235" y2="397.193" gradientUnits="userSpaceOnUse">
<stop stop-color="#E5E8FF"/>
<stop offset="0.0001" stop-color="#F6F7FF"/>
<stop offset="1" stop-color="#B8C8FF"/>
</linearGradient>
<linearGradient id="paint50_linear_215_4380" x1="648.5" y1="281" x2="683.311" y2="338.044" gradientUnits="userSpaceOnUse">
<stop stop-color="white"/>
<stop offset="0.84427" stop-color="#FFC4C4"/>
</linearGradient>
<linearGradient id="paint51_linear_215_4380" x1="643.641" y1="213.686" x2="666" y2="297.5" gradientUnits="userSpaceOnUse">
<stop stop-color="#FEB938"/>
<stop offset="1" stop-color="#FFF0D3"/>
</linearGradient>
<linearGradient id="paint52_linear_215_4380" x1="673.304" y1="349.992" x2="679.212" y2="367.541" gradientUnits="userSpaceOnUse">
<stop offset="0.129166" stop-color="#FFC4C4"/>
<stop offset="1" stop-color="white"/>
</linearGradient>
<linearGradient id="paint53_linear_215_4380" x1="665.661" y1="362.436" x2="670.96" y2="382.882" gradientUnits="userSpaceOnUse">
<stop offset="0.129166" stop-color="#FFC4C4"/>
<stop offset="1" stop-color="white"/>
</linearGradient>
<linearGradient id="paint54_linear_215_4380" x1="667.607" y1="366.147" x2="677.432" y2="381.613" gradientUnits="userSpaceOnUse">
<stop offset="0.129166" stop-color="#FFC4C4"/>
<stop offset="1" stop-color="white"/>
</linearGradient>
<linearGradient id="paint55_linear_215_4380" x1="661.793" y1="365.207" x2="672.499" y2="379.152" gradientUnits="userSpaceOnUse">
<stop offset="0.129166" stop-color="#FFC4C4"/>
<stop offset="1" stop-color="white"/>
</linearGradient>
<linearGradient id="paint56_linear_215_4380" x1="657.5" y1="305" x2="674.546" y2="366.072" gradientUnits="userSpaceOnUse">
<stop stop-color="white"/>
<stop offset="0.84427" stop-color="#FFC4C4"/>
</linearGradient>
<linearGradient id="paint57_linear_215_4380" x1="606" y1="346.5" x2="606.354" y2="369.091" gradientUnits="userSpaceOnUse">
<stop stop-color="#080D3A"/>
<stop offset="1" stop-color="#5F6173"/>
</linearGradient>
<linearGradient id="paint58_linear_215_4380" x1="604.155" y1="207.589" x2="604.155" y2="342.927" gradientUnits="userSpaceOnUse">
<stop stop-color="#FFB426"/>
<stop offset="1" stop-color="#F4D8A2"/>
</linearGradient>
<linearGradient id="paint59_linear_215_4380" x1="541" y1="276" x2="562.505" y2="304.776" gradientUnits="userSpaceOnUse">
<stop stop-color="white"/>
<stop offset="0.84427" stop-color="#FFC4C4"/>
</linearGradient>
<linearGradient id="paint60_linear_215_4380" x1="632.5" y1="323" x2="562.853" y2="299.455" gradientUnits="userSpaceOnUse">
<stop stop-color="white"/>
<stop offset="0.84427" stop-color="#FFC4C4"/>
</linearGradient>
<linearGradient id="paint61_linear_215_4380" x1="564.215" y1="229.527" x2="594.854" y2="284.252" gradientUnits="userSpaceOnUse">
<stop stop-color="white"/>
<stop offset="0.84427" stop-color="#FFC4C4"/>
</linearGradient>
<linearGradient id="paint62_linear_215_4380" x1="551" y1="266" x2="564.39" y2="304.041" gradientUnits="userSpaceOnUse">
<stop stop-color="white"/>
<stop offset="0.84427" stop-color="#FFC4C4"/>
</linearGradient>
<linearGradient id="paint63_linear_215_4380" x1="582" y1="223.5" x2="563.713" y2="282.262" gradientUnits="userSpaceOnUse">
<stop stop-color="#FFB222"/>
<stop offset="1" stop-color="#FED993"/>
</linearGradient>
<linearGradient id="paint64_linear_215_4380" x1="591" y1="168" x2="620.699" y2="209.892" gradientUnits="userSpaceOnUse">
<stop stop-color="white"/>
<stop offset="0.84427" stop-color="#FFC4C4"/>
</linearGradient>
<linearGradient id="paint65_linear_215_4380" x1="613.5" y1="153.5" x2="628.356" y2="194.573" gradientUnits="userSpaceOnUse">
<stop stop-color="white"/>
<stop offset="0.84427" stop-color="#FFC4C4"/>
</linearGradient>
<linearGradient id="paint66_linear_215_4380" x1="591.5" y1="170" x2="595.708" y2="180.796" gradientUnits="userSpaceOnUse">
<stop stop-color="white"/>
<stop offset="0.84427" stop-color="#FFC4C4"/>
</linearGradient>
<linearGradient id="paint67_linear_215_4380" x1="580" y1="137.5" x2="623.5" y2="194" gradientUnits="userSpaceOnUse">
<stop stop-color="#202C8A"/>
<stop offset="0.894287" stop-color="#0E133C"/>
</linearGradient>
<linearGradient id="paint68_linear_215_4380" x1="619.797" y1="307.237" x2="668.15" y2="307.237" gradientUnits="userSpaceOnUse">
<stop stop-color="#50B475"/>
<stop offset="1" stop-color="#72E89E"/>
</linearGradient>
<linearGradient id="paint69_linear_215_4380" x1="627.5" y1="310" x2="608.058" y2="308.936" gradientUnits="userSpaceOnUse">
<stop stop-color="white"/>
<stop offset="0.84427" stop-color="#FFC4C4"/>
</linearGradient>
<linearGradient id="paint70_linear_215_4380" x1="629.036" y1="315.532" x2="634.087" y2="336.694" gradientUnits="userSpaceOnUse">
<stop stop-color="white"/>
<stop offset="0.84427" stop-color="#FFC4C4"/>
</linearGradient>
<linearGradient id="paint71_linear_215_4380" x1="632.562" y1="318.497" x2="633.918" y2="328.604" gradientUnits="userSpaceOnUse">
<stop stop-color="white"/>
<stop offset="0.84427" stop-color="#FFC4C4"/>
</linearGradient>
<linearGradient id="paint72_linear_215_4380" x1="629.232" y1="322.199" x2="630.792" y2="332.997" gradientUnits="userSpaceOnUse">
<stop stop-color="white"/>
<stop offset="0.84427" stop-color="#FFC4C4"/>
</linearGradient>
<linearGradient id="paint73_linear_215_4380" x1="632" y1="325.5" x2="602.603" y2="316.633" gradientUnits="userSpaceOnUse">
<stop stop-color="white"/>
<stop offset="0.84427" stop-color="#FFC4C4"/>
</linearGradient>
<linearGradient id="paint74_linear_215_4380" x1="648.279" y1="278.25" x2="648.279" y2="329.025" gradientUnits="userSpaceOnUse">
<stop stop-color="#62F298"/>
<stop offset="1" stop-color="#D7FFE6" stop-opacity="0"/>
</linearGradient>
<linearGradient id="paint75_linear_215_4380" x1="711.849" y1="247.392" x2="894.187" y2="247.392" gradientUnits="userSpaceOnUse">
<stop stop-color="#50B475"/>
<stop offset="1" stop-color="#72E89E"/>
</linearGradient>
<linearGradient id="paint76_linear_215_4380" x1="534.935" y1="622.387" x2="631.139" y2="624.798" gradientUnits="userSpaceOnUse">
<stop stop-color="#FFFBD3"/>
<stop offset="1" stop-color="#FEB866"/>
</linearGradient>
<linearGradient id="paint77_linear_215_4380" x1="535.037" y1="617.591" x2="631.179" y2="619.249" gradientUnits="userSpaceOnUse">
<stop stop-color="#FC9F31"/>
<stop offset="1" stop-color="#FFF6A3"/>
</linearGradient>
<linearGradient id="paint78_linear_215_4380" x1="657.147" y1="609.856" x2="563.215" y2="609.856" gradientUnits="userSpaceOnUse">
<stop stop-color="#55E385"/>
<stop offset="1" stop-color="#9BFCBC"/>
</linearGradient>
<linearGradient id="paint79_linear_215_4380" x1="657.151" y1="606.532" x2="563.312" y2="606.532" gradientUnits="userSpaceOnUse">
<stop stop-color="#55E385"/>
<stop offset="1" stop-color="#9BFCBC"/>
</linearGradient>
<linearGradient id="paint80_linear_215_4380" x1="559.9" y1="602.12" x2="656.594" y2="602.12" gradientUnits="userSpaceOnUse">
<stop stop-color="#27C963"/>
<stop offset="1" stop-color="#90F9B7"/>
</linearGradient>
<linearGradient id="paint81_linear_215_4380" x1="761.576" y1="612.066" x2="656.041" y2="610.408" gradientUnits="userSpaceOnUse">
<stop stop-color="#FFF2F2"/>
<stop offset="1" stop-color="#E8FFF2"/>
</linearGradient>
<linearGradient id="paint82_linear_215_4380" x1="652.788" y1="641.639" x2="558.857" y2="641.639" gradientUnits="userSpaceOnUse">
<stop stop-color="#55E385"/>
<stop offset="1" stop-color="#9BFCBC"/>
</linearGradient>
<linearGradient id="paint83_linear_215_4380" x1="555.544" y1="633.904" x2="652.238" y2="633.904" gradientUnits="userSpaceOnUse">
<stop stop-color="#27C963"/>
<stop offset="1" stop-color="#90F9B7"/>
</linearGradient>
</defs>
</svg>
