<svg width="1600" height="760" viewBox="0 0 1600 760" fill="none" xmlns="http://www.w3.org/2000/svg">
<rect width="1600" height="760" fill="url(#paint0_linear_293_2)"/>
<g clip-path="url(#clip0_293_2)">
<path d="M1391.38 704.81C1389.79 704.857 1388.21 704.457 1386.84 703.655C1385.58 702.88 1384.57 701.757 1383.94 700.421C1383.24 698.917 1382.89 697.273 1382.93 695.614C1382.89 693.954 1383.24 692.308 1383.94 690.802C1384.57 689.467 1385.58 688.344 1386.84 687.569C1388.21 686.767 1389.79 686.366 1391.38 686.413C1393.19 686.347 1394.98 686.882 1396.47 687.938C1397.84 688.968 1398.85 690.409 1399.34 692.052L1396.36 692.875C1396.08 691.814 1395.46 690.87 1394.61 690.177C1393.67 689.496 1392.53 689.158 1391.38 689.219C1390.33 689.18 1389.3 689.458 1388.41 690.015C1387.61 690.568 1386.99 691.352 1386.64 692.264C1386.22 693.342 1386.01 694.49 1386.03 695.645C1386 696.799 1386.21 697.947 1386.62 699.023C1386.98 699.938 1387.61 700.722 1388.42 701.271C1389.31 701.828 1390.34 702.106 1391.39 702.067C1392.54 702.118 1393.68 701.772 1394.6 701.087C1395.46 700.393 1396.07 699.449 1396.36 698.389L1399.34 699.171C1398.85 700.812 1397.85 702.253 1396.48 703.286C1395 704.345 1393.2 704.881 1391.38 704.81Z" fill="white"/>
<path d="M1402.59 704.446V686.778H1409.88C1410.06 686.778 1410.28 686.778 1410.55 686.778C1410.8 686.789 1411.05 686.816 1411.3 686.859C1412.22 686.973 1413.09 687.325 1413.83 687.879C1414.49 688.396 1415.01 689.079 1415.32 689.858C1415.65 690.705 1415.81 691.607 1415.8 692.516C1415.83 693.836 1415.45 695.134 1414.71 696.226C1414.31 696.759 1413.81 697.204 1413.23 697.534C1412.66 697.865 1412.02 698.073 1411.36 698.146L1410.1 698.254H1405.54V704.446H1402.59ZM1405.54 695.515H1409.76C1409.93 695.515 1410.11 695.515 1410.32 695.488C1410.51 695.476 1410.7 695.442 1410.88 695.389C1411.32 695.297 1411.73 695.071 1412.04 694.742C1412.32 694.44 1412.52 694.079 1412.64 693.685C1412.75 693.312 1412.81 692.924 1412.82 692.534C1412.81 692.141 1412.76 691.75 1412.64 691.374C1412.52 690.978 1412.32 690.615 1412.04 690.312C1411.73 689.986 1411.32 689.762 1410.88 689.669C1410.69 689.622 1410.51 689.591 1410.32 689.579C1410.11 689.579 1409.93 689.579 1409.76 689.579H1405.54V695.515ZM1412.74 704.446L1409.26 697.251L1412.26 696.59L1416.09 704.442L1412.74 704.446Z" fill="white"/>
<path d="M1419.35 704.446V686.778H1430.75V689.552H1422.3V693.905H1429.28V696.68H1422.3V701.672H1430.75V704.446H1419.35Z" fill="white"/>
<path d="M1433.04 704.446L1438.6 686.778H1442.93L1448.5 704.446H1445.46L1440.41 688.595H1441.07L1436.08 704.446H1433.04ZM1436.14 700.615V697.858H1445.41V700.615H1436.14Z" fill="white"/>
<path d="M1454.05 704.446V689.552H1448.33V686.778H1462.72V689.552H1457V704.446H1454.05Z" fill="white"/>
<path d="M1465.49 704.446V686.778H1468.45V704.446H1465.49Z" fill="white"/>
<path d="M1476.69 704.446L1471.1 686.778H1474.14L1478.8 701.573L1483.53 686.778H1486.58L1481 704.446H1476.69Z" fill="white"/>
<path d="M1488.97 704.446V686.778H1500.38V689.552H1491.93V693.905H1498.91V696.68H1491.93V701.672H1500.38V704.446H1488.97Z" fill="white"/>
<path d="M1504.12 704.446V686.778H1507.08V704.446H1504.12Z" fill="white"/>
<path d="M1515.58 704.446V689.552H1509.87V686.778H1524.26V689.552H1518.54V704.446H1515.58Z" fill="white"/>
<path d="M1526.78 704.446V686.778H1538.19V689.552H1529.76V693.905H1536.74V696.68H1529.76V701.672H1538.21V704.446H1526.78Z" fill="white"/>
<path d="M1541.7 704.446V686.778H1544.36L1550.47 699.293L1556.58 686.778H1559.24V704.446H1556.48V693.123L1551.06 704.446H1549.88L1544.48 693.123V704.446H1541.7Z" fill="white"/>
<path d="M1341.67 710.319L1328.91 702.949V717.685L1341.67 710.319Z" fill="white" fill-opacity="0.48"/>
<path d="M1367.2 695.583L1354.43 688.217V702.949L1367.2 695.583Z" fill="white" fill-opacity="0.47"/>
<path d="M1341.67 680.846L1328.91 673.48V688.217L1341.67 680.846Z" fill="white" fill-opacity="0.48"/>
<path d="M1328.91 673.48L1318.7 679.376C1317.93 679.822 1317.28 680.466 1316.83 681.243C1316.38 682.019 1316.15 682.9 1316.15 683.796V707.369C1316.15 708.266 1316.39 709.148 1316.83 709.924C1317.28 710.701 1317.93 711.346 1318.7 711.794L1328.91 717.685V673.48Z" fill="url(#paint1_linear_293_2)"/>
<path d="M1367.19 707.369V695.583L1328.91 717.685L1339.12 723.581C1339.9 724.029 1340.78 724.265 1341.67 724.265C1342.57 724.265 1343.45 724.029 1344.22 723.581L1364.64 711.794C1365.42 711.345 1366.06 710.7 1366.51 709.923C1366.96 709.146 1367.2 708.266 1367.19 707.369Z" fill="url(#paint2_linear_293_2)"/>
<path d="M1344.32 667.634C1343.55 667.19 1342.68 666.956 1341.79 666.956C1340.9 666.956 1340.03 667.19 1339.26 667.634L1329.13 673.48L1367.1 695.407V683.715C1367.1 682.826 1366.87 681.952 1366.42 681.182C1365.98 680.411 1365.34 679.771 1364.57 679.326L1344.32 667.634Z" fill="url(#paint3_linear_293_2)"/>
</g>
<path opacity="0.35" d="M1275.14 582.677C1275.03 583.102 1274.91 583.527 1274.79 583.949C1272.33 584.015 1269.5 584.076 1266.33 584.137C1263.87 584.186 1261.2 584.232 1258.34 584.275L1257.96 584.284C1257.82 584.284 1257.68 584.284 1257.54 584.289L1253.76 584.35C1250.48 584.402 1246.98 584.451 1243.27 584.497C1242.77 584.503 1242.25 584.511 1241.74 584.518L1240.95 584.529C1240.03 584.538 1239.09 584.549 1238.14 584.566C1237.46 584.572 1236.75 584.578 1236.06 584.587C1234.64 584.607 1233.2 584.622 1231.73 584.636C1229.38 584.659 1226.96 584.685 1224.47 584.711L1223.52 584.72C1222.39 584.728 1221.26 584.743 1220.1 584.755C1219.97 584.755 1219.85 584.755 1219.72 584.758C1219.59 584.758 1219.46 584.761 1219.32 584.761C1216.87 584.787 1214.35 584.816 1211.78 584.842C1211.37 584.842 1210.96 584.847 1210.54 584.853C1210.05 584.853 1209.57 584.859 1209.07 584.862C1207.55 584.87 1206.01 584.885 1204.45 584.902C1201 584.937 1197.45 584.963 1193.82 584.995C1185.08 585.058 1175.82 585.133 1166.05 585.197C1155.63 585.266 1144.63 585.333 1133.11 585.397C1131.33 585.405 1129.55 585.414 1127.75 585.428C1076.48 585.703 1015.21 585.911 947.544 586.038C930.96 586.066 914 586.095 896.711 586.11C893.92 586.113 891.13 586.118 888.321 586.118L882.008 586.127C878.148 586.133 874.265 586.139 870.368 586.139C857.121 586.144 843.697 586.153 830.127 586.156C825.345 586.159 820.538 586.162 815.715 586.162H785.991C766.2 586.159 746.716 586.145 727.595 586.139C717.491 586.124 707.486 586.115 697.593 586.101C672.052 586.066 647.257 586.026 623.407 585.963L611.388 585.937C608.611 585.929 605.835 585.92 603.084 585.914C598.571 585.902 594.105 585.888 589.673 585.879C585.157 585.862 580.687 585.847 576.255 585.836C551.411 585.758 527.849 585.668 505.796 585.564L495.929 585.521C494.323 585.509 492.722 585.504 491.136 585.498C483.003 585.46 475.107 585.414 467.444 585.376C461.272 585.333 455.245 585.301 449.386 585.264C448.194 585.252 447.006 585.247 445.821 585.24H445.547C445.125 585.235 444.703 585.235 444.281 585.232C434.813 585.168 425.79 585.102 417.232 585.041C409.954 584.981 403.02 584.929 396.447 584.868C394.52 584.853 392.616 584.831 390.747 584.813C389.351 584.799 387.973 584.787 386.615 584.776C385.976 584.767 385.347 584.761 384.717 584.758C383.972 584.747 383.229 584.744 382.499 584.735C382.112 584.732 381.724 584.723 381.334 584.723C380.434 584.716 379.533 584.706 378.633 584.695L377.726 584.686C377.22 584.678 376.72 584.669 376.218 584.666C374.934 584.654 373.672 584.637 372.43 584.629H372.378C372.291 584.626 372.201 584.626 372.112 584.626C371.676 584.617 371.251 584.617 370.823 584.611C369.979 584.602 369.141 584.588 368.318 584.579C367.55 584.57 366.784 584.567 366.03 584.556C365.667 584.55 365.305 584.544 364.932 584.535C363.222 584.518 361.512 584.497 359.802 584.472C358.429 584.457 357.088 584.437 355.78 584.42C355.398 583.686 355.02 582.952 354.641 582.215C333.227 540.607 315.05 497.142 312.283 450.444C308.674 389.647 339.759 321.958 396.208 306.29C430.249 296.84 466.173 307.466 501.399 307.102C552.586 306.57 601.094 282.708 643.62 252.981C665.445 237.723 686.163 220.827 706.96 204.046C708.104 203.125 709.248 202.2 710.393 201.279C710.592 201.12 710.792 200.958 710.991 200.796C711.523 200.366 712.058 199.938 712.589 199.508C712.927 199.239 713.265 198.971 713.6 198.699C714.747 197.777 715.891 196.855 717.042 195.94C733.44 182.8 750.007 169.908 767.311 158.115C810.16 128.902 859.352 106.172 910.531 107.501C961.707 108.825 1014.5 138.988 1032.05 189.141C1045.7 228.134 1037.22 273.648 1055.29 310.638C1070.03 340.825 1099.85 359.625 1129.69 372.996C1159.54 386.367 1191.32 396.173 1217.88 415.681C1252.71 441.262 1276.01 483.204 1279.98 527.44C1281.65 545.966 1279.91 564.755 1275.14 582.677Z" fill="white" fill-opacity="0.16"/>
<path d="M1287 583.307C1287 583.463 1284.89 583.618 1280.84 583.766C1278.83 583.838 1276.81 583.899 1274.8 583.948C1272.33 584.015 1269.5 584.075 1266.33 584.136C1263.87 584.185 1261.2 584.231 1258.34 584.274L1257.96 584.283C1257.82 584.283 1257.68 584.283 1257.54 584.288L1253.76 584.349C1250.48 584.401 1246.98 584.45 1243.27 584.496C1242.77 584.502 1242.25 584.51 1241.74 584.517L1240.95 584.528C1240.03 584.537 1239.09 584.548 1238.14 584.566C1237.46 584.571 1236.75 584.577 1236.06 584.586C1234.64 584.606 1233.2 584.621 1231.73 584.635C1229.38 584.658 1226.96 584.684 1224.47 584.71L1223.52 584.719C1222.39 584.727 1221.26 584.742 1220.1 584.754C1219.97 584.754 1219.85 584.754 1219.72 584.757C1219.59 584.757 1219.46 584.76 1219.32 584.76C1216.87 584.786 1214.35 584.815 1211.78 584.841C1211.37 584.841 1210.96 584.846 1210.54 584.852C1210.05 584.852 1209.57 584.859 1209.07 584.861C1207.55 584.869 1206.01 584.884 1204.46 584.901C1201 584.936 1197.45 584.962 1193.82 584.994C1185.08 585.058 1175.82 585.132 1166.06 585.196C1155.63 585.265 1144.64 585.332 1133.11 585.396C1131.33 585.404 1129.56 585.413 1127.75 585.427C1076.48 585.702 1015.21 585.91 947.545 586.037C930.961 586.066 914.001 586.094 896.712 586.109C893.921 586.112 891.131 586.118 888.322 586.118L882.009 586.126C878.149 586.132 874.266 586.138 870.369 586.138C857.122 586.143 843.698 586.153 830.128 586.155C825.346 586.158 820.539 586.161 815.716 586.161H785.992C766.201 586.158 746.717 586.144 727.596 586.138C717.492 586.123 707.487 586.114 697.594 586.1C672.053 586.065 647.258 586.025 623.408 585.962L611.389 585.936C608.612 585.928 605.836 585.919 603.085 585.913C598.572 585.902 594.106 585.888 589.674 585.878C585.158 585.861 580.688 585.846 576.256 585.835C551.412 585.757 527.85 585.667 505.797 585.563L495.93 585.52C494.324 585.508 492.723 585.503 491.137 585.497C483.004 585.459 475.108 585.413 467.445 585.375C461.273 585.332 455.246 585.3 449.387 585.263C448.195 585.251 447.007 585.246 445.822 585.239H445.548C445.126 585.234 444.703 585.234 444.282 585.231C434.814 585.167 425.791 585.101 417.233 585.04C409.955 584.98 403.021 584.928 396.448 584.867C394.521 584.852 392.617 584.83 390.748 584.812C389.352 584.798 387.974 584.786 386.616 584.775C385.977 584.766 385.348 584.76 384.718 584.758C383.973 584.746 383.23 584.743 382.5 584.734C382.112 584.731 381.725 584.723 381.335 584.723C380.435 584.715 379.534 584.705 378.634 584.694L377.727 584.685C377.221 584.677 376.721 584.668 376.219 584.665C374.935 584.653 373.673 584.636 372.431 584.628H372.379C372.292 584.625 372.202 584.625 372.113 584.625C371.677 584.616 371.252 584.616 370.824 584.61C369.98 584.601 369.142 584.587 368.319 584.578C367.551 584.569 366.785 584.566 366.031 584.555C365.668 584.549 365.306 584.543 364.933 584.535C363.223 584.517 361.513 584.496 359.803 584.471C358.43 584.456 357.089 584.436 355.781 584.419C355.37 584.41 354.963 584.404 354.558 584.398C353.229 584.381 351.932 584.361 350.669 584.343C349.782 584.332 348.895 584.318 348.008 584.303C347.662 584.3 347.307 584.294 346.965 584.288C328.197 583.985 317.961 583.649 317.961 583.306C317.961 582.976 327.507 582.656 345.076 582.364C345.397 582.361 345.712 582.355 346.032 582.349C347.647 582.32 349.323 582.294 351.065 582.268C351.458 582.26 351.854 582.257 352.252 582.251C353.038 582.236 353.833 582.225 354.641 582.214C355.607 582.202 356.591 582.188 357.597 582.177C359.729 582.15 361.942 582.119 364.228 582.087C365.114 582.072 366.022 582.07 366.938 582.055C367.033 582.055 367.134 582.049 367.235 582.049C367.935 582.044 368.654 582.035 369.368 582.026C369.975 582.026 370.584 582.017 371.196 582.003H371.214C371.699 581.999 372.179 581.997 372.673 581.991L373.314 581.982L373.814 581.974C373.973 581.971 374.135 581.971 374.3 581.968C374.857 581.965 375.412 581.96 375.978 581.96C376.204 581.957 376.426 581.951 376.654 581.951C377.588 581.94 378.532 581.926 379.494 581.911H379.497C382.071 581.891 384.715 581.867 387.434 581.833H387.717C387.752 581.828 387.786 581.828 387.824 581.828C391.207 581.801 394.706 581.767 398.306 581.738C404.426 581.678 410.846 581.626 417.566 581.574C424.546 581.521 431.85 581.469 439.446 581.417C441.986 581.403 444.557 581.392 447.169 581.368C451.687 581.34 456.313 581.308 461.022 581.288C469.574 581.232 478.444 581.186 487.609 581.138C490.065 581.124 492.546 581.114 495.043 581.1C498.996 581.085 502.994 581.065 507.05 581.048C528.144 580.953 550.614 580.869 574.256 580.788C575.447 580.782 576.634 580.779 577.824 580.779C578.332 580.776 578.842 580.776 579.35 580.774C580.182 580.771 581.008 580.771 581.841 580.768C588.544 580.745 595.336 580.728 602.218 580.708C605.015 580.699 607.814 580.693 610.643 580.684C613.818 580.676 617.011 580.67 620.215 580.658C645.672 580.606 672.198 580.554 699.596 580.517C709.402 580.508 719.324 580.496 729.346 580.488C748.253 580.471 767.518 580.456 787.075 580.456H818.033C821.801 580.456 825.551 580.459 829.29 580.459C849.167 580.468 868.721 580.479 887.888 580.496C890.682 580.499 893.481 580.508 896.258 580.508C913.489 580.528 930.397 580.555 946.921 580.586C1014.48 580.707 1075.68 580.918 1126.96 581.19C1128.33 581.195 1129.69 581.207 1131.03 581.213C1144.32 581.282 1156.92 581.361 1168.77 581.441C1179.31 581.511 1189.26 581.591 1198.56 581.664C1202.14 581.699 1205.63 581.727 1209.01 581.759H1209.11L1214.54 581.811C1214.81 581.814 1215.07 581.814 1215.34 581.814C1217.83 581.844 1220.31 581.869 1222.79 581.89C1222.84 581.893 1222.91 581.893 1222.96 581.893C1223.67 581.896 1224.36 581.91 1225.04 581.913C1225.82 581.922 1226.58 581.928 1227.33 581.933C1229.37 581.962 1231.36 581.985 1233.31 582.006C1235.61 582.03 1237.92 582.057 1240.23 582.086C1241.21 582.095 1242.18 582.113 1243.14 582.124C1243.48 582.127 1243.82 582.129 1244.16 582.135H1244.32C1247.51 582.179 1250.53 582.222 1253.38 582.263C1253.79 582.271 1254.21 582.277 1254.63 582.286C1256.2 582.309 1257.73 582.335 1259.2 582.358C1261.82 582.402 1264.43 582.449 1267.05 582.5C1270.08 582.557 1272.78 582.619 1275.14 582.679C1275.54 582.691 1275.91 582.7 1276.29 582.711C1277.45 582.746 1278.51 582.778 1279.49 582.809C1284.42 582.969 1287 583.139 1287 583.307Z" fill="white" fill-opacity="0.16"/>
<path d="M1280.6 537.02V563.761C1280.6 574.279 1272.07 582.806 1261.56 582.806H947.193V573.791H959.255V526.986H947.193V517.974H1261.56C1267.66 517.974 1273.1 520.848 1276.58 525.317C1279.19 528.659 1280.61 532.779 1280.6 537.02Z" fill="url(#paint4_linear_293_2)"/>
<path d="M1122.73 526.988L1122.74 526.989C1126.65 534.168 1128.7 542.214 1128.7 550.391C1128.7 558.568 1126.65 566.614 1122.73 573.792H959.254V526.988H1122.73Z" fill="#FCEDEA"/>
<path d="M1254.27 412.512V428.332C1254.27 437.638 1246.72 445.184 1237.42 445.184H959.254V437.206H969.926V403.635H959.254V395.661H1237.42C1242.35 395.661 1246.79 397.783 1249.87 401.161C1252.71 404.262 1254.27 408.312 1254.27 412.512Z" fill="url(#paint5_linear_293_2)"/>
<path d="M1098.78 403.635L1098.78 403.636C1105.82 416.543 1105.82 424.3 1098.78 437.206H969.926V403.635H1098.78Z" fill="#FCEDEA"/>
<path d="M1236.78 445.184H958.26V453.457H969.331V509.701H958.26V517.976H1236.78C1246.44 517.976 1254.26 510.149 1254.26 500.495V462.666C1254.26 453.01 1246.44 445.184 1236.78 445.184Z" fill="url(#paint6_linear_293_2)"/>
<path d="M1096.44 453.457L1096.44 453.459C1101.43 461.99 1104.06 471.696 1104.06 481.58C1104.06 491.464 1101.43 501.17 1096.44 509.701H969.332V453.457H1096.44Z" fill="#FCEDEA"/>
<path d="M1109.44 539.326C1109.44 540.416 1078.07 541.301 1039.38 541.301C1000.7 541.301 969.332 540.416 969.332 539.326C969.332 538.236 1000.7 537.352 1039.38 537.352C1078.07 537.352 1109.44 538.236 1109.44 539.326ZM1083.91 464.331C1083.91 465.422 1062.54 466.305 1036.19 466.305C1009.84 466.305 988.48 465.422 988.48 464.331C988.48 463.241 1009.84 462.357 1036.19 462.357C1062.54 462.357 1083.91 463.241 1083.91 464.331Z" fill="#D0E3FA"/>
<path d="M1041.52 415.283C1064.93 415.283 1083.91 414.399 1083.91 413.309C1083.91 412.219 1064.93 411.335 1041.52 411.335C1018.12 411.335 999.141 412.219 999.141 413.309C999.141 414.399 1018.12 415.283 1041.52 415.283Z" fill="#D0E3FA"/>
<path d="M1056.38 426.87C1056.38 427.96 1041.18 428.844 1022.43 428.844C1003.68 428.844 988.48 427.96 988.48 426.87C988.48 425.78 1003.68 424.895 1022.43 424.895C1041.18 424.895 1056.38 425.78 1056.38 426.87ZM1071.67 479.224C1071.67 480.315 1055.79 481.199 1036.19 481.199C1016.6 481.199 1000.71 480.315 1000.71 479.224C1000.71 478.134 1016.6 477.25 1036.19 477.25C1055.79 477.25 1071.67 478.134 1071.67 479.224Z" fill="#D0E3FA"/>
<path d="M1028.33 496.091C1052.27 496.091 1071.67 495.207 1071.67 494.117C1071.67 493.027 1052.27 492.143 1028.33 492.143C1004.39 492.143 984.979 493.027 984.979 494.117C984.979 495.207 1004.39 496.091 1028.33 496.091Z" fill="#D0E3FA"/>
<path d="M1039.38 561.749C1067.5 561.749 1090.29 560.865 1090.29 559.775C1090.29 558.684 1067.5 557.801 1039.38 557.801C1011.27 557.801 988.48 558.684 988.48 559.775C988.48 560.865 1011.27 561.749 1039.38 561.749Z" fill="#D0E3FA"/>
<path d="M1011.44 479.224V502.468L1022.07 497.504L1032.71 502.468V479.224H1011.44Z" fill="#2698A2"/>
<path d="M1011.44 479.224V502.468L1022.07 497.504L1032.71 502.468V479.224H1011.44Z" fill="url(#paint7_linear_293_2)"/>
<path opacity="0.25" d="M1215.91 445.182H959.248V437.205C990.131 438.124 1018.16 438.04 1043.54 437.205H1098.78C1099.39 436.088 1099.97 434.954 1100.52 433.805C1166 427.974 1207.85 416.978 1232.22 408.281C1232.58 409.662 1232.76 411.084 1232.76 412.511V428.333C1232.76 437.638 1225.22 445.182 1215.91 445.182Z" fill="url(#paint8_linear_293_2)"/>
<path opacity="0.25" d="M1254.27 412.514V428.333C1254.27 437.638 1246.72 445.182 1237.42 445.182H1224.35C1233.66 445.182 1241.2 437.638 1241.2 428.333V412.511C1241.2 410.006 1240.65 407.631 1239.68 405.493C1243.11 404.147 1246.51 402.702 1249.87 401.16C1252.7 404.262 1254.27 408.313 1254.27 412.514Z" fill="url(#paint9_linear_293_2)"/>
<path opacity="0.5" d="M1204.5 500.494V479.052C1179.27 489.274 1144.69 499.374 1098.7 505.407C1098.01 506.871 1097.26 508.303 1096.44 509.701H1053.01C1024.89 511.373 993.409 511.567 958.26 509.701V517.975H1187.02C1196.67 517.975 1204.5 510.149 1204.5 500.494Z" fill="url(#paint10_linear_293_2)"/>
<path opacity="0.5" d="M1224.35 500.494V470.116C1220.79 471.897 1217.18 473.597 1213.54 475.215V500.494C1213.54 510.15 1205.71 517.975 1196.06 517.975H1206.87C1216.53 517.975 1224.35 510.149 1224.35 500.494Z" fill="url(#paint11_linear_293_2)"/>
<path opacity="0.5" d="M1251.8 453.704C1247.31 456.979 1241.24 460.986 1233.4 465.349V500.494C1233.4 510.149 1225.57 517.974 1215.92 517.974H1236.79C1246.44 517.974 1254.27 510.148 1254.27 500.494V462.666C1254.27 459.51 1253.42 456.412 1251.8 453.704Z" fill="url(#paint12_linear_293_2)"/>
<g opacity="0.25">
<path d="M1245.71 563.761V541.098C1221.41 550.609 1183.69 560.649 1125.75 567.127C1124.91 569.421 1123.91 571.649 1122.74 573.792H1016.75C995.276 574.22 972.132 574.243 947.193 573.792V582.807H1226.67C1237.18 582.807 1245.71 574.28 1245.71 563.761Z" fill="url(#paint13_linear_293_2)"/>
<path d="M1260.25 563.761V537.021C1260.25 536.276 1260.2 535.542 1260.12 534.819C1257.7 535.994 1255.26 537.114 1252.8 538.177V563.761C1252.8 574.28 1244.27 582.807 1233.75 582.807H1241.2C1251.72 582.807 1260.25 574.28 1260.25 563.761Z" fill="url(#paint14_linear_293_2)"/>
<path d="M1276.58 525.317C1273.88 527.206 1270.57 529.295 1266.53 531.509C1267.07 533.296 1267.34 535.154 1267.34 537.021V563.761C1267.34 574.28 1258.81 582.807 1248.29 582.807H1261.56C1272.08 582.807 1280.6 574.28 1280.6 563.761V537.021C1280.61 532.78 1279.19 528.659 1276.58 525.317Z" fill="url(#paint15_linear_293_2)"/>
</g>
<path d="M1237.41 445.183C1237.41 445.841 1175.14 446.375 1098.33 446.375C1021.52 446.375 959.248 445.841 959.248 445.183C959.248 444.525 1021.52 443.991 1098.33 443.991C1175.14 443.991 1237.41 444.525 1237.41 445.183ZM1265.43 517.976C1265.43 518.634 1196.89 519.168 1112.34 519.168C1027.79 519.168 959.249 518.634 959.249 517.976C959.249 517.317 1027.79 516.784 1112.34 516.784C1196.89 516.784 1265.43 517.317 1265.43 517.976Z" fill="#4A1C40"/>
<path d="M1221.11 395.644L1067.64 395.639L1067.61 382.622L1221.08 382.627L1221.11 395.644Z" fill="#DD970F"/>
<path opacity="0.5" d="M1221.12 395.644L1067.64 395.639L1067.63 391.406L1221.11 391.41L1221.12 395.644Z" fill="url(#paint16_linear_293_2)"/>
<path d="M1221.09 386.861L1067.62 386.856L1067.61 382.622L1221.08 382.627L1221.09 386.861Z" fill="url(#paint17_linear_293_2)"/>
<path d="M1067.64 395.639L1061.37 392.503L1059.92 391.776L1053.21 389.158L1059.91 386.517L1061.35 385.784L1067.61 382.621C1072.6 389.499 1067.64 395.639 1067.64 395.639Z" fill="url(#paint18_linear_293_2)"/>
<path d="M1059.92 391.777L1053.21 389.159L1059.91 386.518C1060.33 387.329 1060.55 388.23 1060.56 389.145C1060.56 390.061 1060.34 390.964 1059.92 391.777Z" fill="url(#paint19_linear_293_2)"/>
<path d="M1221.1 382.636L1221.13 395.652L1215.93 395.663L1215.9 382.648L1221.1 382.636Z" fill="#FFC8C7"/>
<path d="M1230.23 390.958V390.966C1230.23 393.545 1227.6 395.637 1224.39 395.643H1221.12V382.626H1224.39C1227.6 382.62 1230.22 384.706 1230.22 387.287L1230.23 390.958Z" fill="url(#paint20_linear_293_2)"/>
<path opacity="0.5" d="M921.438 241.937L428.612 239.939C416.477 239.888 406.599 249.684 406.548 261.819L405.305 574.708L942.074 576.891L943.319 264.002C943.369 251.867 933.573 241.989 921.438 241.937Z" fill="url(#paint21_linear_293_2)"/>
<path d="M926.085 273.671L925.874 327.355L925.825 339.663L925.285 477.168L925.239 488.693L925.103 523.465L925.016 545.209C924.984 552.432 919.105 558.262 911.884 558.234L717.331 557.445L704.125 557.39L433.791 556.295C427.212 556.269 421.789 551.389 420.9 545.058C420.809 544.431 420.766 543.797 420.77 543.163L420.983 488.693L421.029 477.167L421.569 339.662L421.618 327.354L421.838 271.621C421.87 264.401 427.749 258.57 434.972 258.6L623.759 259.365L636.968 259.417L913.063 260.536C920.286 260.568 926.116 266.448 926.085 273.671Z" fill="white"/>
<path d="M1009.81 606.892L337.045 604.137L405.305 574.709L942.08 576.892L1009.81 606.892Z" fill="url(#paint22_linear_293_2)"/>
<path opacity="0.5" d="M504.963 596.652L525.795 585.039L832.253 587.203L852.944 599.002L504.963 596.652Z" fill="white"/>
<path d="M1002.82 626.2L343.869 623.504L337.045 604.137L1009.81 606.892L1002.82 626.2Z" fill="url(#paint23_linear_293_2)"/>
<path opacity="0.5" d="M1002.82 626.2L343.869 623.504L337.045 604.137L1009.81 606.892L1002.82 626.2Z" fill="url(#paint24_linear_293_2)"/>
<path d="M678.952 251.436C678.949 251.956 678.845 252.471 678.644 252.951C678.442 253.43 678.149 253.866 677.779 254.232C677.41 254.599 676.972 254.889 676.49 255.086C676.009 255.283 675.493 255.383 674.973 255.381C674.452 255.379 673.938 255.274 673.458 255.073C672.978 254.872 672.542 254.578 672.176 254.209C671.81 253.839 671.52 253.401 671.323 252.92C671.126 252.438 671.025 251.922 671.027 251.402C671.032 250.351 671.453 249.345 672.2 248.605C672.946 247.865 673.955 247.452 675.006 247.457C676.057 247.461 677.063 247.883 677.803 248.629C678.543 249.375 678.956 250.385 678.952 251.436Z" fill="white"/>
<path d="M539.652 374.195H807.192V511.701H539.652V374.195Z" fill="url(#paint25_linear_293_2)"/>
<path d="M592.317 402.733H572.26V486.871H623.757V468.341H592.317V402.733ZM689.212 402.733L674.816 441.844C673.847 444.583 672.903 447.33 671.983 450.085C671.111 447.354 670.215 444.63 669.297 441.914L655.477 402.734H634.698L628.831 486.871H648.513L650.788 450.355C650.825 449.732 650.862 449.107 650.898 448.48L663.785 486.434H678.471L693.024 446.443L693.191 449.581L695.333 486.871H715.216L709.974 402.733H689.212ZM755.575 434.965C745.104 430.912 744.32 428.664 744.32 425.698C744.32 422.92 746.575 419.952 752.905 419.952C758.048 419.952 761.967 421.501 764.35 422.801L769.867 425.81L775.897 407.972L772.101 405.82C769.274 404.219 763.065 401.532 753.232 401.532C745.013 401.532 737.857 403.938 732.538 408.491C727.132 413.116 724.154 419.615 724.154 426.789C724.154 433.183 726.424 438.714 730.899 443.225C734.641 446.997 739.919 450.062 747.033 452.591C756.682 456.313 757.45 459.062 757.45 462.267C757.45 468.833 750.378 469.541 747.338 469.541C742.497 469.541 737.166 468.038 733.075 465.522L727.233 461.926L721.723 480.21L724.978 482.381C729.985 485.719 738.708 487.962 746.683 487.962C768.128 487.962 777.726 474.673 777.726 461.504C777.725 445.56 765.886 438.945 755.575 434.965Z" fill="white"/>
<path d="M925.82 374.193L925.28 511.699H819.48V374.193H925.82ZM926.08 273.67L925.87 361.817H636.964V259.418L913.059 260.536C920.282 260.568 926.112 266.447 926.08 273.67ZM434.968 258.6L470.627 258.745V361.817H421.614L421.834 271.622C421.866 264.402 427.745 258.572 434.968 258.6ZM623.755 259.366V361.817H483.836V258.799L623.755 259.366ZM925.098 523.465L925.011 545.209C924.979 552.432 919.1 558.262 911.879 558.233L717.327 557.445V523.465H925.098ZM704.12 523.465V557.389L433.786 556.294C427.207 556.269 421.784 551.389 420.895 545.058L420.978 523.464L704.12 523.465ZM527.452 374.193V511.699H421.025L421.565 374.193H527.452Z" fill="url(#paint26_linear_293_2)"/>
<path d="M873.047 482.042C877.485 481.417 881.79 479.85 885.547 477.478C888.882 475.377 891.785 472.644 893.971 469.385H914.004V457.165H880.181V469.385H882.009C881.454 469.793 880.879 470.173 880.288 470.526C875.125 473.581 868.6 474.554 862.752 472.738C854.103 470.055 847.316 461.357 846.618 452.052C846.002 443.834 849.895 435.359 856.498 430.06C856.956 429.692 857.428 429.34 857.912 429.006L870.292 441.387L882.636 429.043L848.535 394.94L836.191 407.284L851.672 422.765C848.615 425.12 845.963 427.959 843.821 431.169C839.57 437.527 837.349 445.191 837.911 452.706C838.889 465.646 848.036 477.312 860.164 481.073C861.575 481.509 863.014 481.83 864.466 482.041H836.321V495.351H914.659V482.041L873.047 482.042Z" fill="white"/>
<path d="M832.945 400.644L841.896 391.693L845.672 395.469L836.721 404.42L832.945 400.644Z" fill="white"/>
<path d="M870.439 444.626L885.869 429.196L889.418 432.745L873.988 448.175L870.439 444.626Z" fill="white"/>
<path d="M857.913 429.001C857.432 429.337 856.959 429.689 856.505 430.058C854.143 428.814 851.173 428.654 848.53 429.3C846.874 429.703 845.321 430.366 843.824 431.166C845.961 427.976 848.614 425.109 851.677 422.761V422.766L857.913 429.001ZM893.985 469.377C891.801 472.642 888.892 475.373 885.552 477.478C885.696 476.921 885.736 476.342 885.67 475.77C885.482 474.119 884.463 472.623 883.093 471.687C882.256 471.112 881.292 470.733 880.296 470.527C880.888 470.175 881.463 469.794 882.017 469.385H893.977L893.985 469.377Z" fill="white"/>
<path d="M509.456 424.527C509.13 427.463 508.327 430.385 506.991 433.453C505.717 436.396 503.985 439.428 501.534 442.994C500.523 444.469 499.464 445.937 498.446 447.349C495.725 451.123 493.149 454.681 491.189 458.636C489.181 462.686 488.143 466.758 488.191 470.421C488.198 471.063 487.95 471.682 487.5 472.142C487.051 472.602 486.438 472.864 485.795 472.872H485.768C484.737 472.872 483.864 472.234 483.517 471.328C483.403 471.058 483.344 470.768 483.344 470.476C483.289 466.051 484.5 461.211 486.847 456.482C488.987 452.175 491.799 448.277 494.513 444.517C495.517 443.118 496.555 441.678 497.539 440.258C499.803 436.948 501.396 434.172 502.545 431.527C503.688 428.902 504.366 426.437 504.644 423.993C505.634 414.978 500.246 405.152 491.55 400.105C486.648 397.266 480.713 395.77 474.364 395.77H474.135C467.772 395.77 461.831 397.266 456.935 400.105C448.239 405.152 442.852 414.978 443.842 423.993C444.111 426.437 444.797 428.902 445.94 431.52C447.089 434.171 448.675 436.948 450.946 440.251C451.923 441.677 452.962 443.118 453.972 444.516C456.687 448.276 459.498 452.174 461.63 456.481C463.984 461.21 465.196 466.051 465.141 470.475C465.141 470.773 465.078 471.063 464.974 471.327C464.797 471.782 464.487 472.173 464.084 472.448C463.681 472.724 463.205 472.871 462.717 472.871H462.689C462.205 472.866 461.734 472.716 461.337 472.441C460.939 472.166 460.633 471.778 460.459 471.327C460.347 471.037 460.291 470.73 460.293 470.42C460.341 466.757 459.302 462.685 457.287 458.642C455.327 454.681 452.759 451.122 450.038 447.348C448.989 445.91 447.96 444.458 446.95 442.993C444.498 439.427 442.761 436.394 441.486 433.452C440.156 430.384 439.347 427.462 439.021 424.526C437.809 413.489 444.034 401.988 454.504 395.915C460.14 392.647 466.919 390.922 474.12 390.922H474.376C481.564 390.922 488.343 392.647 493.979 395.915C504.449 401.988 510.667 413.49 509.456 424.527ZM487.639 473.602C479.562 477.767 469.535 477.757 461.466 473.576C460.898 473.307 460.248 473.268 459.653 473.469C459.057 473.669 458.563 474.093 458.274 474.651C457.985 475.209 457.924 475.857 458.103 476.459C458.283 477.062 458.689 477.57 459.236 477.879C463.967 480.33 469.273 481.556 474.579 481.556C479.862 481.556 485.146 480.341 489.86 477.909C490.144 477.764 490.395 477.564 490.601 477.321C490.807 477.078 490.963 476.796 491.06 476.493C491.157 476.19 491.193 475.87 491.167 475.553C491.14 475.236 491.052 474.927 490.906 474.644C490.76 474.361 490.559 474.109 490.316 473.904C490.073 473.698 489.791 473.542 489.488 473.446C489.184 473.349 488.865 473.313 488.548 473.34C488.23 473.367 487.921 473.456 487.639 473.602Z" fill="white"/>
<path d="M487.634 480.311C479.558 484.476 469.53 484.466 461.462 480.285C460.894 480.016 460.244 479.977 459.649 480.178C459.053 480.378 458.559 480.802 458.27 481.36C457.981 481.918 457.92 482.566 458.099 483.169C458.279 483.771 458.685 484.28 459.232 484.588C463.963 487.039 469.269 488.266 474.575 488.266C479.858 488.266 485.142 487.05 489.856 484.619C490.139 484.473 490.391 484.273 490.596 484.03C490.802 483.787 490.957 483.506 491.054 483.203C491.151 482.9 491.187 482.58 491.16 482.263C491.134 481.946 491.045 481.637 490.899 481.354C490.753 481.071 490.553 480.82 490.31 480.615C490.067 480.409 489.786 480.253 489.483 480.157C489.18 480.06 488.86 480.024 488.543 480.05C488.226 480.077 487.917 480.165 487.634 480.311Z" fill="white"/>
<path d="M485.117 488.157C478.399 490.788 470.697 490.781 463.986 488.14C463.69 488.023 463.374 487.966 463.055 487.972C462.737 487.977 462.423 488.045 462.131 488.172C461.84 488.299 461.576 488.482 461.354 488.711C461.133 488.94 460.96 489.211 460.843 489.507C460.726 489.803 460.669 490.119 460.675 490.437C460.681 490.755 460.749 491.069 460.876 491.361C461.003 491.653 461.186 491.917 461.415 492.138C461.644 492.359 461.914 492.533 462.21 492.65C466.137 494.195 470.354 494.969 474.572 494.969C478.771 494.969 482.97 494.202 486.884 492.67C487.18 492.554 487.451 492.381 487.68 492.16C487.91 491.939 488.093 491.676 488.221 491.384C488.348 491.092 488.417 490.779 488.423 490.46C488.43 490.142 488.373 489.826 488.257 489.53C488.141 489.233 487.968 488.963 487.747 488.733C487.527 488.504 487.263 488.32 486.971 488.193C486.68 488.065 486.366 487.997 486.048 487.99C485.73 487.984 485.413 488.041 485.117 488.157ZM468.901 473.974C469.539 474.052 470.182 473.873 470.689 473.477C471.195 473.081 471.524 472.501 471.602 471.863C471.719 470.917 474.284 448.427 460.797 425.173C460.475 424.617 459.945 424.212 459.323 424.047C458.702 423.882 458.041 423.97 457.485 424.293C456.929 424.615 456.524 425.145 456.359 425.767C456.194 426.388 456.282 427.049 456.604 427.605C469.212 449.342 466.829 470.951 466.791 471.274C466.752 471.59 466.776 471.91 466.861 472.217C466.946 472.523 467.091 472.81 467.287 473.061C467.483 473.312 467.726 473.521 468.003 473.678C468.28 473.834 468.586 473.935 468.901 473.974ZM491.614 424.294C491.339 424.134 491.035 424.03 490.719 423.988C490.404 423.946 490.083 423.966 489.775 424.048C489.468 424.13 489.179 424.271 488.927 424.464C488.674 424.658 488.461 424.899 488.302 425.174C474.815 448.428 477.38 470.918 477.497 471.864C477.575 472.501 477.903 473.081 478.409 473.477C478.914 473.872 479.556 474.051 480.194 473.973C480.831 473.895 481.412 473.568 481.809 473.062C482.205 472.556 482.385 471.914 482.308 471.276C482.282 471.06 479.856 449.397 492.495 427.605C492.654 427.33 492.758 427.026 492.8 426.71C492.842 426.395 492.822 426.074 492.74 425.767C492.659 425.459 492.517 425.171 492.324 424.918C492.13 424.665 491.889 424.453 491.614 424.294Z" fill="white"/>
<path d="M564.361 310.302C564.361 315.658 560.022 319.999 554.665 319.999C549.308 319.999 544.969 315.659 544.969 310.302C544.969 304.946 549.308 300.602 554.665 300.602C555.615 300.602 556.531 300.738 557.398 300.993C556.902 301.629 556.418 302.273 555.945 302.925C552.816 307.252 551.46 309.932 553.243 311.724C553.749 312.226 554.445 312.502 555.206 312.502C556.258 312.502 557.812 312.079 562.041 309.016C562.691 308.543 563.334 308.061 563.969 307.568C564.23 308.456 564.362 309.377 564.361 310.302Z" fill="white"/>
<path d="M577.215 295.747C576.124 296.859 575.014 297.952 573.884 299.025C572.827 300.026 571.756 301.013 570.671 301.983C572.013 304.55 572.713 307.405 572.709 310.302C572.709 320.254 564.615 328.348 554.663 328.348C544.711 328.348 536.617 320.254 536.617 310.302C536.617 300.35 544.711 292.252 554.663 292.252C557.661 292.252 560.495 292.988 562.986 294.29C563.956 293.207 564.94 292.137 565.94 291.081C567.013 289.95 568.106 288.838 569.218 287.745C564.884 284.936 559.828 283.443 554.663 283.45C539.857 283.45 527.814 295.496 527.814 310.302C527.814 325.104 539.857 337.151 554.663 337.151C569.47 337.151 581.512 325.104 581.512 310.302C581.517 305.137 580.025 300.081 577.215 295.747Z" fill="white"/>
<path d="M591.287 287.142L584.865 293.563C587.714 298.681 589.207 304.444 589.2 310.302C589.2 329.342 573.707 344.835 554.662 344.835C535.618 344.835 520.125 329.342 520.125 310.302C520.125 291.257 535.618 275.765 554.662 275.765C560.519 275.755 566.28 277.248 571.396 280.1L577.818 273.678C570.895 269.282 562.863 266.952 554.662 266.962C530.763 266.962 511.322 286.402 511.322 310.302C511.322 334.196 530.763 353.638 554.662 353.638C578.561 353.638 598.002 334.197 598.002 310.302C598.013 302.1 595.683 294.065 591.287 287.142Z" fill="white"/>
<path d="M594.825 280.495L585.107 279.86L584.471 270.142L571.848 282.765L572.867 287.313C571.034 289.017 569.257 290.778 567.538 292.597C563.466 296.893 560.037 301.04 557.73 304.217C555.428 307.398 554.246 309.609 554.802 310.165C555.358 310.721 557.569 309.54 560.75 307.238C563.927 304.93 568.074 301.501 572.37 297.429C574.189 295.71 575.951 293.933 577.654 292.1L582.202 293.118L594.825 280.495Z" fill="white"/>
<path d="M669.023 337.585H681.17V348.297H669.023V337.585ZM693.293 322.724H705.44V348.296H693.293V322.724ZM717.562 320.433H729.709V348.297H717.562V320.433ZM741.831 329.658H753.978V348.296H741.831V329.658ZM766.1 322.724H778.247V348.296H766.1V322.724ZM790.369 305.388H802.516V348.296H790.369V305.388ZM814.639 295.854H826.786V348.296H814.639V295.854ZM838.909 295.854H851.056V348.296H838.909V295.854ZM863.178 294.217H875.325V348.296H863.178V294.217Z" fill="white"/>
<path d="M662.717 350.169V268.095H659.746V353.14H888.377V350.169H662.717Z" fill="white"/>
<path d="M883.051 282.467L858.234 276.977L858.539 281.135L802.516 288.199L755.21 322.497L707.515 309.433L669.023 337.584L707.515 314.056L755.499 329.369L803.725 295.854L859.099 290.238L859.39 295.084L883.051 282.467Z" fill="white"/>
<path d="M1070.56 202.362L988.056 213.963L981.767 214.846L864.228 231.369L734.445 152.35L728.733 148.871L686.256 123.01L892.591 94L981.767 148.296L988.056 152.125L1070.56 202.362Z" fill="url(#paint27_linear_293_2)"/>
<path d="M1070.57 202.362L988.059 213.963L981.77 214.847L864.231 231.37L734.448 152.35L728.736 148.871C863.679 175.484 892.595 94 892.595 94L981.77 148.297L988.059 152.125L1070.57 202.362Z" fill="url(#paint28_linear_293_2)"/>
<path d="M965.076 196.003L943.728 299.402C891.768 243.88 769.448 241.335 768.619 241.318L784.853 162.685L785.625 158.946C811.934 154.745 844.331 155.65 878.406 162.685C912.479 169.719 942.587 181.721 965.076 196.003Z" fill="url(#paint29_linear_293_2)"/>
<path opacity="0.25" d="M943.736 299.401C962.056 155.728 784.861 162.685 784.861 162.685L785.633 158.946C811.942 154.745 844.339 155.649 878.414 162.685C912.486 169.72 942.595 181.721 965.084 196.003L943.736 299.401Z" fill="url(#paint30_linear_293_2)"/>
<path d="M988.057 152.108V233.736H981.768V148.296H984.246C985.257 148.297 986.226 148.698 986.941 149.413C987.656 150.128 988.057 151.097 988.057 152.108Z" fill="url(#paint31_linear_293_2)"/>
<path d="M995.657 249.793L995.455 268.032C992.111 269.413 988.528 270.12 984.91 270.115C981.038 270.122 977.209 269.31 973.674 267.731L973.876 249.55C973.899 247.582 974.439 245.739 975.376 244.159C977.288 240.902 980.842 238.732 984.888 238.779C990.902 238.846 995.724 243.778 995.657 249.793Z" fill="url(#paint32_linear_293_2)"/>
<path opacity="0.5" d="M995.657 249.793L995.522 261.889C995.386 261.543 995.242 261.2 995.088 260.86C992.772 255.748 988.526 251.537 983.392 249.268C981.436 248.402 979.339 247.797 977.586 246.577C976.693 245.954 975.894 245.111 975.373 244.158C977.286 240.903 980.84 238.734 984.886 238.779C990.901 238.847 995.725 243.778 995.657 249.793Z" fill="#FAA339"/>
<path d="M990.683 243.499C994.394 240.328 994.833 234.749 991.662 231.038C988.491 227.326 982.912 226.888 979.201 230.059C975.489 233.23 975.051 238.809 978.222 242.52C981.393 246.232 986.972 246.67 990.683 243.499Z" fill="url(#paint33_linear_293_2)"/>
<path d="M491.177 166.636C489.434 167.453 487.384 167.476 485.536 166.935C483.689 166.394 482.031 165.321 480.59 164.045C481.357 162.976 482.015 161.832 482.552 160.631C482.649 160.413 482.744 160.189 482.832 159.966C483.215 159.014 483.503 158.027 483.691 157.018C487.272 155.989 490.552 154.26 493.337 151.781C493.001 154.478 493.175 157.214 493.849 159.847C493.85 159.862 493.854 159.878 493.861 159.892C494.07 160.716 494.332 161.526 494.64 162.316C495.339 164.111 492.919 165.819 491.177 166.636Z" fill="url(#paint34_linear_293_2)"/>
<path d="M493.9 159.866C493.889 159.876 493.874 159.884 493.86 159.892C492.864 160.551 491.761 161.031 490.601 161.312C490.462 161.343 490.324 161.373 490.186 161.399C489.713 161.492 489.235 161.55 488.755 161.572C486.916 161.649 485.09 161.224 483.474 160.343C483.255 160.227 483.043 160.099 482.832 159.965C483.215 159.013 483.503 158.025 483.691 157.016C487.272 155.988 490.552 154.259 493.336 151.78C493 154.477 493.174 157.213 493.848 159.845C493.865 159.853 493.883 159.859 493.9 159.866Z" fill="#FF808F"/>
<path d="M481.343 140.062C480.882 142.633 481.36 145.283 482.691 147.53C483.535 145.149 482.922 142.035 481.343 140.062Z" fill="#4A1C40"/>
<path d="M493.705 150.502C493.688 150.651 493.669 150.801 493.649 150.951C493.279 153.629 492.494 156.38 490.609 158.319C488.934 160.043 486.399 160.955 484.041 160.489C481.684 160.024 479.626 158.105 479.187 155.741C478.89 154.148 479.3 152.504 479.894 150.998C480.487 149.491 481.269 148.057 481.77 146.517C482.269 144.974 482.627 142.856 482.043 141.345L482.235 141.229C485.693 139.151 489.637 138.675 493.311 140.377C493.989 143.709 494.122 147.128 493.705 150.502Z" fill="url(#paint35_linear_293_2)"/>
<path d="M493.808 148.78C492.618 147.968 491.962 146.543 491.76 145.117C491.558 143.691 491.754 142.242 491.951 140.815C490.163 141.544 488.346 142.206 486.418 142.317C484.49 142.428 482.494 142.044 480.884 140.978C479.275 139.911 478.104 138.109 478.047 136.18C477.99 134.249 479.18 132.276 481.006 131.649C482.847 131.018 484.865 131.77 486.578 132.694C488.291 133.618 489.983 134.75 491.921 134.934C492.926 135.029 494.008 134.874 494.893 135.361C496.122 136.037 496.446 137.647 496.465 139.049C496.511 142.44 495.653 145.934 493.808 148.78Z" fill="url(#paint36_linear_293_2)"/>
<path d="M493.541 148.052C493.491 147.446 493.652 146.842 493.996 146.342L494.003 146.332C494.24 145.998 494.578 145.716 494.98 145.633C495.712 145.482 496.446 146.05 496.713 146.748C496.98 147.446 496.886 148.228 496.723 148.958C496.598 149.521 496.433 150.084 496.129 150.574C495.826 151.065 495.372 151.482 494.818 151.642C494.264 151.801 493.609 151.665 493.232 151.228C493.444 150.14 493.619 149.121 493.541 148.052Z" fill="url(#paint37_linear_293_2)"/>
<path d="M473.293 302.927C474.645 307.415 474.126 312.435 471.884 316.552C469.642 320.667 465.706 323.827 461.203 325.126C458.45 325.919 454.97 325.787 453.355 323.422C451.973 321.398 452.593 318.575 453.911 316.51C455.229 314.444 457.141 312.821 458.547 310.815C459.954 308.81 460.817 306.107 459.711 303.92C463.891 302.241 468.859 302.131 473.293 302.927ZM508.687 300.164C510.847 304.324 511.266 309.354 509.826 313.814C508.385 318.274 505.102 322.108 500.917 324.218C498.359 325.507 494.915 326.021 492.89 323.995C491.158 322.263 491.244 319.373 492.156 317.1C493.069 314.826 494.647 312.878 495.658 310.646C496.669 308.414 497.017 305.599 495.525 303.655C499.321 301.231 504.183 300.202 508.687 300.164Z" fill="url(#paint38_linear_293_2)"/>
<path d="M500.414 298.979C500.221 299.863 500.025 300.761 499.82 301.669C501.301 302.221 502.838 302.605 504.403 302.816C505.82 303.015 507.273 303.084 508.715 303.017L508.276 301.92C508.516 301.843 508.754 301.757 508.989 301.669C506.986 292.697 505.475 285.023 504.403 277.643C503.444 284.275 502.126 291.145 500.414 298.979Z" fill="url(#paint39_linear_293_2)"/>
<path d="M445.089 254.409C445.813 259.753 446.66 265.081 447.628 270.386C450.724 287.416 453.567 288.438 459.086 304.841C463.306 306.531 468.627 306.639 473.157 305.399C473.858 305.21 474.549 304.983 475.226 304.72C469.427 280.03 468.718 270.089 469.162 244.73C472.844 243.852 476.563 243.141 480.308 242.597C480.118 246.379 480.557 250.255 481.071 254.017C481.795 259.362 482.641 264.69 483.61 269.997C486.706 287.024 489.549 288.049 495.067 304.452C495.318 304.551 495.573 304.645 495.832 304.734C499.084 305.861 502.896 306.109 506.461 305.571C508.084 305.334 509.676 304.918 511.207 304.33C509.028 295.041 507.372 287.096 506.176 279.447C504.201 266.765 504.867 260.158 505.146 244.338C521.214 237.905 513.237 217.552 513.237 217.552C511.339 216.676 509.408 215.861 507.486 215.044C507.477 215.041 507.466 215.035 507.458 215.033C507.237 215.038 507.019 215.044 506.795 215.047C506.571 215.05 506.35 215.05 506.129 215.047C506.12 215.052 506.112 215.058 506.104 215.061C500.435 215.146 494.579 215.034 488.8 215.006C482.563 215.171 476.235 215.439 470.149 215.439C465.266 217.633 460.352 219.845 455.989 222.944C451.628 226.041 447.804 230.121 445.882 235.116C443.545 241.188 444.211 247.959 445.089 254.409Z" fill="url(#paint40_linear_293_2)"/>
<path d="M454.111 188.22C454.111 188.22 449.368 216.18 463.869 211.029L466.701 185.457L454.111 188.22Z" fill="url(#paint41_linear_293_2)"/>
<path d="M526.97 188.612C526.97 188.612 522.494 191.668 515.355 191.434C513.695 205.738 512.997 217.371 512.928 217.681L512.924 217.687C505.548 220.714 495.867 222.229 488.085 222.229C480.303 222.229 472.518 220.714 465.141 217.687C465.141 217.687 462.19 204.01 460.974 188.897C456.702 188.981 454.11 188.219 454.11 188.219C453.402 167.553 462.726 164.391 467.064 164.037C469.179 163.863 471.276 163.539 473.361 163.149C475.27 162.789 477.196 162.532 479.133 162.378L479.478 162.351C479.705 162.333 479.916 162.323 480.108 162.312C480.288 162.302 480.453 162.294 480.6 162.288C481.197 162.264 481.524 162.267 481.524 162.267L488.085 163.965L494.642 162.267C495.274 162.312 495.908 162.337 496.541 162.341C496.601 162.344 496.664 162.347 496.727 162.353L496.868 162.362C498.841 162.506 502.004 162.872 505.831 163.793C507.907 164.291 510.005 164.702 512.11 165.059C516.698 165.833 526.475 169.706 526.97 188.612Z" fill="url(#paint42_linear_293_2)"/>
<path d="M492.617 191.547C492.839 192.96 493.223 194.561 493.817 196.307C494.323 197.794 494.942 199.24 495.667 200.633C495.881 201.052 496.112 201.474 496.356 201.902C496.926 202.879 497.553 203.885 498.301 204.874C498.66 205.376 499.082 205.875 499.501 206.383C499.718 206.635 499.949 206.882 500.181 207.131C500.308 207.268 500.52 207.49 500.647 207.627L500.876 207.856C501.868 208.874 502.942 209.809 504.088 210.65C505.305 211.557 506.598 212.355 507.955 213.035C509.351 213.729 510.838 214.359 512.412 214.84C514.028 215.336 515.684 215.688 517.362 215.891C519.075 216.097 520.804 215.659 522.212 214.662C523.62 213.665 524.608 212.18 524.982 210.496L525.276 209.177L525.615 207.668C525.669 207.416 525.722 207.161 525.778 206.905C525.808 206.76 525.84 206.614 525.87 206.468C525.894 206.359 525.917 206.252 525.938 206.142C526.511 203.285 526.889 200.393 527.07 197.485C527.192 195.344 527.236 193.25 527.15 191.231C527.127 190.602 527.088 189.973 527.034 189.346C527.019 189.1 526.999 188.854 526.975 188.609C526.975 188.609 519.655 193.616 508.786 190.328C508.816 190.554 508.84 190.78 508.858 191.011C508.908 191.528 508.962 192.05 509.024 192.58C509.096 193.108 509.125 193.646 509.187 194.189C509.247 194.73 509.318 195.279 509.36 195.834C509.41 196.39 509.464 196.951 509.517 197.519C509.558 198.139 509.597 198.769 509.639 199.402C509.125 199.202 508.621 198.976 508.13 198.725L507.855 198.585L507.587 198.427C507.409 198.32 507.228 198.225 507.053 198.115C506.705 197.89 506.355 197.685 506.013 197.432C505.319 196.954 504.671 196.426 504.039 195.897C502.798 194.813 501.705 193.658 500.733 192.542C499.765 191.416 498.943 190.32 498.206 189.332C498.025 189.082 497.85 188.842 497.678 188.61C497.511 188.375 497.348 188.147 497.19 187.927C496.864 187.493 496.585 187.084 496.3 186.721C495.747 185.988 495.254 185.415 494.818 185.04C494.375 184.672 493.974 184.506 493.621 184.58C493.267 184.66 492.98 184.978 492.76 185.536C492.534 186.094 492.401 186.885 492.362 187.891C492.323 188.904 492.391 190.13 492.617 191.547Z" fill="url(#paint43_linear_293_2)"/>
<path d="M495.666 200.633C495.88 201.052 496.111 201.474 496.355 201.902C496.925 202.879 497.551 203.885 498.3 204.874C498.659 205.377 499.081 205.875 499.5 206.383C499.717 206.636 499.948 206.882 500.18 207.131C500.307 207.268 500.519 207.49 500.646 207.627L500.875 207.856C501.867 208.874 502.941 209.809 504.087 210.65C505.304 211.557 506.597 212.355 507.954 213.035C509.349 213.729 510.837 214.359 512.411 214.84C514.027 215.336 515.683 215.688 517.361 215.891C519.074 216.097 520.803 215.659 522.211 214.662C523.619 213.665 524.607 212.18 524.981 210.496L525.275 209.177L525.614 207.668C525.668 207.416 525.721 207.161 525.777 206.905C525.807 206.76 525.839 206.614 525.869 206.468C524.939 207.71 523.811 208.784 522.472 209.563C518.745 211.731 514.026 211.277 509.928 209.94C504.467 208.159 499.511 204.895 495.666 200.633Z" fill="#FFAEB8"/>
<g opacity="0.25">
<path d="M472.399 304.918L473.159 305.398C473.86 305.209 474.55 304.982 475.227 304.719C469.429 280.029 468.719 270.088 469.164 244.729C472.845 243.851 476.565 243.14 480.31 242.596C480.523 242.607 480.747 241.486 481.299 239.76C481.857 238.045 482.758 235.696 484.402 233.563C485.167 232.562 486.06 231.664 487.057 230.892C487.974 230.177 488.894 229.65 489.689 229.235C491.297 228.442 492.399 228.088 492.349 227.859C492.319 227.674 491.117 227.644 489.271 228.229C488.774 228.4 488.232 228.615 487.669 228.897C487.219 228.988 472.697 232.008 463.452 238.355C463.453 238.357 458.593 269.007 472.399 304.918Z" fill="url(#paint44_linear_293_2)"/>
</g>
<path d="M496.541 162.341C496.094 163.964 495.41 165.476 494.477 166.76C492.095 170.033 487.997 171.452 484.772 169.589C482.825 168.458 481.322 166.214 480.788 163.638C480.695 163.194 480.632 162.744 480.6 162.288C481.196 162.264 481.524 162.267 481.524 162.267L488.084 163.965L494.642 162.267C495.274 162.312 495.907 162.337 496.541 162.341Z" fill="url(#paint45_linear_293_2)"/>
<path d="M459.243 176.274L459.066 173.565C459.066 173.565 467.831 171.04 472.507 176.716C472.507 176.716 479.43 169.99 489.912 171.378L491.005 173.792C491.005 173.792 475.468 185.344 459.243 176.274Z" fill="#FCEDEA"/>
<path d="M493.804 205.282C485.245 204.88 479.9 206.527 477.189 207.745C476.588 208.013 475.932 208.134 475.275 208.096C474.618 208.059 473.98 207.864 473.414 207.529C471.555 206.434 467.724 205.306 460.225 206.584L458.227 175.87C467.312 174.319 471.012 176.305 472.344 177.484C473.299 176.755 479.55 172.388 491.7 172.961L493.804 205.282Z" fill="url(#paint46_linear_293_2)"/>
<path d="M496.926 191.382C497.798 189.345 497.101 186.815 495.459 185.326C493.818 183.837 491.391 183.365 489.236 183.882C488.19 184.133 487.143 184.645 486.573 185.556C485.93 186.586 486.014 187.893 486.121 189.102C486.258 190.65 486.464 192.344 487.598 193.405C488.444 194.197 489.674 194.471 490.83 194.396C491.986 194.321 493.097 193.933 494.19 193.549C495.146 193.213 496.527 192.313 496.926 191.382Z" fill="url(#paint47_linear_293_2)"/>
<path d="M475.937 208.081C475.058 208.17 474.175 207.976 473.414 207.529C471.555 206.434 467.724 205.306 460.225 206.584L458.227 175.871C467.312 174.319 471.012 176.306 472.344 177.485L475.937 208.081Z" fill="#4C1A41"/>
<path d="M454.801 192.718C453.672 190.832 453.594 188.344 454.464 186.779C455.334 185.214 457.027 184.561 458.751 184.881C459.588 185.036 460.487 185.442 461.127 186.272C461.848 187.208 462.094 188.471 462.3 189.642C462.562 191.139 462.809 192.785 462.215 193.897C461.772 194.727 460.923 195.092 460.045 195.114C459.167 195.135 458.25 194.854 457.347 194.575C456.557 194.331 455.317 193.58 454.801 192.718Z" fill="url(#paint48_linear_293_2)"/>
<path d="M1200.31 663.342C1200.31 663.497 1198.58 663.652 1195.25 663.8C1194.06 663.854 1192.66 663.905 1191.07 663.958C1188.87 664.03 1186.28 664.1 1183.33 664.17C1181.32 664.218 1179.12 664.264 1176.77 664.309L1176.46 664.317C1176.35 664.317 1176.24 664.317 1176.12 664.322C1175.12 664.341 1174.08 664.363 1173.02 664.381C1170.33 664.435 1167.45 664.483 1164.4 664.531C1163.99 664.537 1163.57 664.545 1163.15 664.55C1162.93 664.552 1162.71 664.558 1162.5 664.561C1161.74 664.572 1160.97 664.583 1160.19 664.598C1159.63 664.606 1159.05 664.612 1158.48 664.62C1157.32 664.639 1156.14 664.655 1154.93 664.668C1153 664.692 1151.01 664.72 1148.97 664.744L1148.19 664.751C1147.26 664.762 1146.33 664.775 1145.38 664.786C1145.28 664.786 1145.17 664.786 1145.07 664.789C1144.96 664.789 1144.85 664.794 1144.74 664.794C1142.73 664.818 1140.66 664.848 1138.55 664.875C1138.21 664.875 1137.87 664.88 1137.53 664.886C1137.13 664.886 1136.73 664.891 1136.32 664.894C1135.07 664.904 1133.81 664.918 1132.53 664.934C1129.7 664.969 1126.79 664.995 1123.8 665.028C1116.63 665.093 1109.02 665.165 1101 665.229C1092.44 665.299 1083.42 665.366 1073.95 665.431C1072.49 665.438 1071.03 665.447 1069.56 665.46C1027.46 665.736 977.145 665.943 921.588 666.072C907.973 666.101 894.047 666.129 879.851 666.144C877.561 666.146 875.268 666.152 872.964 666.152L867.779 666.16C864.611 666.165 861.422 666.17 858.221 666.17C847.345 666.178 836.324 666.187 825.18 666.189C821.254 666.191 817.307 666.195 813.348 666.195H788.943C772.691 666.192 756.695 666.178 740.993 666.17C732.698 666.157 724.483 666.149 716.36 666.133C695.39 666.101 675.031 666.059 655.447 665.996C652.135 665.989 648.84 665.978 645.58 665.97L638.762 665.946C635.056 665.935 631.388 665.922 627.749 665.911C624.041 665.895 620.371 665.881 616.732 665.868C596.333 665.79 576.986 665.702 558.879 665.597C556.148 665.584 553.454 665.567 550.777 665.554C549.465 665.543 548.153 665.535 546.841 665.53C540.163 665.493 533.682 665.447 527.391 665.41C522.323 665.367 517.374 665.334 512.562 665.297C511.583 665.286 510.609 665.281 509.636 665.273H509.41C509.064 665.267 508.716 665.267 508.371 665.265C500.596 665.201 493.188 665.136 486.162 665.075C480.185 665.013 474.493 664.962 469.096 664.901C467.513 664.887 465.949 664.863 464.414 664.847C463.269 664.834 462.138 664.821 461.022 664.81C460.499 664.802 459.98 664.796 459.464 664.791C458.851 664.78 458.243 664.778 457.642 664.769C457.324 664.767 457.006 664.758 456.686 664.758C455.941 664.747 455.202 664.74 454.47 664.729L453.723 664.721C453.31 664.71 452.898 664.703 452.485 664.699C451.432 664.688 450.396 664.67 449.374 664.662H449.333C449.262 664.66 449.188 664.66 449.114 664.66C448.757 664.652 448.407 664.652 448.056 664.643C447.363 664.636 446.676 664.622 445.998 664.614C445.367 664.603 444.74 664.601 444.12 664.59C443.82 664.585 443.52 664.578 443.219 664.571C441.782 664.552 440.373 664.528 439.005 664.507C437.525 664.485 436.09 664.461 434.7 664.434C432.907 664.404 431.115 664.371 429.322 664.338C429.036 664.335 428.746 664.33 428.465 664.325C413.056 664.022 404.65 663.687 404.65 663.343C404.65 663.014 412.487 662.691 426.914 662.399C427.177 662.397 427.435 662.391 427.7 662.386C429.025 662.356 430.401 662.329 431.832 662.305C433.62 662.271 435.408 662.239 437.196 662.211C438.947 662.187 440.763 662.155 442.638 662.122C443.369 662.106 444.113 662.104 444.864 662.09C444.942 662.09 445.025 662.084 445.108 662.084C445.681 662.079 446.274 662.068 446.859 662.06C447.357 662.06 447.857 662.052 448.361 662.038H448.375C448.774 662.036 449.168 662.031 449.573 662.025L450.099 662.017L450.509 662.01C450.64 662.007 450.774 662.007 450.908 662.004C451.366 662.002 451.823 661.996 452.288 661.993C452.472 661.991 452.654 661.985 452.841 661.985C453.619 661.975 454.396 661.961 455.174 661.945H455.176C457.291 661.926 459.462 661.902 461.692 661.867H461.925C461.955 661.862 461.982 661.862 462.013 661.862C464.792 661.835 467.665 661.8 470.621 661.773C475.645 661.712 480.917 661.658 486.433 661.607C492.164 661.556 498.162 661.502 504.4 661.452C506.485 661.435 508.596 661.424 510.739 661.403C514.452 661.374 518.249 661.342 522.115 661.32C529.136 661.267 536.42 661.221 543.943 661.17C545.962 661.157 547.999 661.148 550.047 661.133C553.294 661.12 556.578 661.101 559.907 661.082C577.226 660.985 595.677 660.902 615.088 660.821C616.065 660.816 617.042 660.814 618.018 660.814C618.436 660.811 618.852 660.811 619.27 660.808C619.954 660.806 620.631 660.806 621.316 660.803C626.819 660.779 632.397 660.76 638.047 660.741L644.965 660.717C647.571 660.709 650.194 660.704 652.825 660.693C673.728 660.639 695.508 660.588 718.002 660.551C726.053 660.54 734.201 660.529 742.43 660.521C757.953 660.503 773.772 660.489 789.831 660.489H815.249C818.342 660.489 821.422 660.492 824.492 660.492C840.813 660.5 856.867 660.514 872.606 660.529C874.9 660.531 877.198 660.54 879.479 660.54C893.627 660.562 907.508 660.588 921.076 660.62C976.545 660.74 1026.8 660.953 1068.9 661.223C1070.03 661.228 1071.14 661.239 1072.24 661.245C1083.15 661.315 1093.5 661.392 1103.23 661.476C1111.89 661.542 1120.05 661.626 1127.69 661.698C1130.63 661.73 1133.5 661.759 1136.28 661.792H1136.35C1137.86 661.811 1139.35 661.827 1140.81 661.843C1141.03 661.849 1141.25 661.849 1141.47 661.849C1143.51 661.876 1145.55 661.9 1147.59 661.921C1147.63 661.926 1147.68 661.926 1147.73 661.926C1148.31 661.929 1148.87 661.943 1149.44 661.945C1150.07 661.953 1150.7 661.961 1151.32 661.967C1152.99 661.993 1154.63 662.017 1156.22 662.039C1157.99 662.061 1159.72 662.085 1161.39 662.111C1161.56 662.111 1161.74 662.114 1161.91 662.119C1162.71 662.127 1163.51 662.143 1164.3 662.156C1164.58 662.159 1164.86 662.162 1165.13 662.167H1165.27C1167.89 662.21 1170.37 662.253 1172.7 662.296C1173.05 662.304 1173.39 662.31 1173.73 662.318C1175.02 662.342 1176.28 662.366 1177.49 662.39C1177.83 662.398 1178.18 662.404 1178.52 662.412C1180.44 662.453 1182.24 662.493 1183.93 662.533C1186.82 662.599 1189.36 662.672 1191.51 662.745C1192.46 662.777 1193.34 662.809 1194.14 662.841C1198.19 663.001 1200.31 663.173 1200.31 663.342Z" fill="white" fill-opacity="0.16"/>
<path d="M850.663 460.198C850.942 462.482 850.049 464.83 850.566 467.072C851.298 470.245 854.532 472.14 856.205 474.933C858.241 478.333 857.656 482.937 855.256 486.089C852.855 489.24 848.909 490.996 844.958 491.279C841.006 491.563 837.052 490.495 833.459 488.828C831.785 488.052 830.146 487.125 828.869 485.794C827.591 484.464 826.7 482.678 826.767 480.834C826.884 477.634 829.748 475.002 829.768 471.8C829.783 469.323 828.101 467.197 827.307 464.851C826.128 461.362 827.088 457.242 829.691 454.636C835.394 448.922 849.561 451.145 850.663 460.198Z" fill="url(#paint49_linear_293_2)"/>
<path d="M770.622 457.475C770.951 457.894 771.333 458.351 771.756 458.837C772.212 459.339 772.678 459.832 773.154 460.315L773.192 460.356C774.258 461.431 775.462 462.648 776.882 463.879C777.597 464.513 778.353 465.176 779.132 465.845C779.73 466.358 780.358 466.856 781.022 467.384C781.227 467.546 781.431 467.708 781.638 467.875L783.108 469.031C783.289 469.173 783.474 469.317 783.661 469.456L784.374 469.978C785.378 470.714 786.381 471.439 787.358 472.132C787.767 472.429 788.182 472.703 788.62 472.994L788.931 473.201C789.469 473.554 790.013 473.914 790.564 474.278L792.241 475.367L793.975 476.418C794.563 476.767 795.159 477.122 795.757 477.484L796.662 478.017C796.876 478.139 797.096 478.261 797.317 478.382L797.576 478.523C798.836 479.216 800.1 479.899 801.369 480.573C802.683 481.228 803.986 481.867 805.233 482.468L805.532 482.612C805.748 482.718 805.964 482.821 806.18 482.92L807.138 483.346L809.109 484.203C809.718 484.464 810.324 484.72 810.921 484.977L812.776 485.694C813.387 485.926 813.998 486.157 814.61 486.387L815.008 486.534C815.486 486.711 815.936 486.878 816.394 487.026C817.54 487.406 818.72 487.785 819.904 488.153C820.088 488.211 820.271 488.266 820.45 488.322L820.756 488.417C820.965 488.477 821.181 488.535 821.395 488.595L821.589 488.647L823.242 489.085L823.733 489.209C824.653 489.445 825.522 489.665 826.379 489.843C827.385 490.048 828.375 490.237 829.317 490.401C831.228 490.756 832.967 490.914 834.42 491.022C835.079 491.062 835.675 491.096 836.236 491.102C836.334 491.105 836.429 491.105 836.522 491.105H836.529C837.128 491.098 837.727 491.068 838.324 491.017C841.125 490.758 841.582 490.059 841.647 489.768C841.715 489.48 841.615 488.643 839.289 487.118C838.802 486.801 838.303 486.502 837.793 486.223L837.764 486.207C837.44 486.02 837.113 485.838 836.783 485.661C836.524 485.519 836.254 485.377 835.978 485.236C835.055 484.754 834.016 484.277 832.916 483.773C832.454 483.562 831.982 483.343 831.496 483.116C830.632 482.726 829.762 482.348 828.886 481.982C828.466 481.804 828.042 481.618 827.611 481.429C827.092 481.199 826.571 480.974 826.047 480.756L824.549 480.135C824.366 480.059 824.182 479.984 823.998 479.911L823.779 479.82C823.588 479.737 823.404 479.659 823.219 479.577L822.997 479.482C821.93 479.024 820.858 478.577 819.782 478.139C819.412 477.994 819.045 477.84 818.681 477.678C818.49 477.597 818.299 477.514 818.105 477.43L817.774 477.291L817.571 477.203L816.397 476.708L816.325 476.678C815.776 476.451 815.218 476.221 814.653 475.987C814.653 475.987 813.22 475.362 812.876 475.209C812.282 474.957 811.679 474.7 811.071 474.439C810.772 474.311 810.466 474.185 810.158 474.057L809.515 473.769L809.233 473.64C808.045 473.112 806.79 472.56 805.503 472.004C804.265 471.43 803.024 470.863 801.78 470.303L800.864 469.891L799.952 469.457L798.175 468.62L796.418 467.803L794.703 466.959L793.025 466.149C792.843 466.062 792.66 465.974 792.48 465.888C792.116 465.713 791.736 465.533 791.371 465.342C790.361 464.829 789.305 464.3 788.234 463.771C788.234 463.771 787.636 463.477 787.471 463.397L786.717 463.003C786.227 462.752 785.741 462.5 785.264 462.252C784.832 462.027 784.405 461.811 783.984 461.599C783.462 461.336 782.971 461.088 782.483 460.832C781.638 460.38 780.788 459.936 779.934 459.5C779.163 459.112 778.395 458.717 777.63 458.316C776.879 457.925 776.17 457.554 775.499 457.225C775.016 456.985 774.531 456.751 774.043 456.521L773.639 456.33C773.12 456.072 772.595 455.827 772.064 455.594C770.435 454.887 769.661 454.737 769.297 454.737C769.11 454.737 769.053 454.777 769.053 454.777C769.049 454.791 768.876 455.268 770.622 457.475Z" fill="url(#paint50_linear_293_2)"/>
<path d="M798.488 479.023C799.467 479.556 800.432 480.076 801.368 480.573C802.683 481.228 803.985 481.867 805.232 482.468L805.531 482.612C805.747 482.718 805.963 482.821 806.179 482.92L807.137 483.346L809.108 484.203C809.717 484.464 810.323 484.72 810.92 484.977L812.776 485.694C813.386 485.926 813.997 486.157 814.609 486.387L815.008 486.533C815.485 486.711 815.935 486.878 816.393 487.026C817.539 487.406 818.719 487.785 819.903 488.153C820.087 488.211 820.27 488.266 820.449 488.322L820.755 488.416C820.965 488.477 821.181 488.535 821.394 488.594L821.588 488.647L823.242 489.085L823.732 489.208C824.652 489.445 825.521 489.665 826.378 489.843C827.384 490.048 828.374 490.237 829.317 490.401C831.227 490.756 832.966 490.914 834.42 491.022C835.079 491.062 835.675 491.096 836.235 491.102C836.334 491.105 836.429 491.105 836.521 491.105H836.528C837.127 491.097 837.726 491.068 838.323 491.017C841.124 490.758 841.581 490.059 841.646 489.768C841.714 489.48 841.615 488.643 839.288 487.118C838.801 486.8 838.302 486.502 837.792 486.223L837.763 486.207C837.439 486.02 837.112 485.838 836.782 485.661C836.523 485.519 836.254 485.377 835.977 485.236C835.054 484.754 834.015 484.277 832.915 483.773C832.453 483.562 831.982 483.343 831.495 483.116C830.631 482.725 829.761 482.348 828.885 481.982C828.465 481.804 828.041 481.618 827.61 481.429C827.091 481.199 826.57 480.974 826.046 480.756L824.548 480.135C824.365 480.059 824.181 479.984 823.997 479.91L823.779 479.82C823.587 479.737 823.403 479.659 823.218 479.577L822.996 479.482C821.929 479.024 820.857 478.576 819.781 478.139C819.411 477.993 819.044 477.84 818.68 477.678C818.489 477.597 818.298 477.514 818.105 477.43L817.774 477.291L817.571 477.203L816.396 476.708L816.324 476.678C815.23 478.233 810.33 483.759 798.488 479.023Z" fill="#FF94A0"/>
<path d="M813.318 487.057C813.696 487.199 814.07 487.341 814.444 487.483C815.051 487.706 815.647 487.935 816.251 488.128C817.45 488.526 818.622 488.902 819.765 489.258C820.051 489.348 820.334 489.433 820.617 489.521C820.899 489.604 821.182 489.679 821.464 489.755L823.122 490.193C824.211 490.47 825.259 490.747 826.284 490.958C827.307 491.167 828.293 491.354 829.235 491.518C831.116 491.87 832.853 492.031 834.381 492.144C835.033 492.184 835.648 492.22 836.226 492.227C836.354 491.892 836.467 491.552 836.563 491.21C837.047 489.495 837.173 487.032 836.991 485.263C836.721 485.117 836.451 484.974 836.179 484.833C834.862 484.149 833.341 483.483 831.681 482.707C830.811 482.313 829.934 481.932 829.053 481.564C828.14 481.179 827.199 480.747 826.214 480.337C825.721 480.135 825.221 479.925 824.713 479.716C824.459 479.611 824.202 479.507 823.944 479.402C823.687 479.289 823.428 479.179 823.167 479.067C822.097 478.607 821.022 478.159 819.943 477.721C819.387 477.505 818.839 477.254 818.274 477.015C818.096 476.94 817.921 476.864 817.74 476.788C815.535 479.574 814.007 483.572 813.318 487.057Z" fill="url(#paint51_linear_293_2)"/>
<path d="M865.42 650.654C865.931 652.512 864.752 654.467 863.211 655.624C861.67 656.781 859.793 657.382 858.091 658.285C856.389 659.189 854.749 660.566 854.367 662.456C860.467 663.602 866.862 663.708 872.882 662.195C873.382 658.541 872.397 652.887 871.088 649.439C868.984 648.788 867.623 650.675 865.42 650.654ZM811.814 651.895C812.31 653.556 811.291 655.339 809.928 656.411C808.566 657.482 806.89 658.061 805.377 658.909C803.865 659.756 802.418 661.028 802.113 662.735C807.623 663.642 812.799 663.607 818.183 662.124C818.558 658.828 817.557 653.763 816.31 650.689C814.404 650.145 813.795 651.871 811.814 651.895Z" fill="url(#paint52_linear_293_2)"/>
<path d="M810.816 654.856C813.123 654.663 815.285 654.5 817.594 654.305C815.285 622.812 818.278 590.938 826.345 560.408C832.772 593.236 845.763 624.719 864.529 652.498C867.347 651.756 870.03 650.574 872.479 648.995C860.461 619.512 852.038 588.688 847.392 557.19C847.335 556.814 847.28 556.434 847.226 556.057C846.211 549.059 845.254 541.98 842.513 535.47C841.863 533.925 841.1 532.429 840.229 530.996L835.697 522.835L832.851 522.9L828.355 523.005L818.823 523.222L817.922 526.164L814.922 535.948L814.911 535.983C802.59 574.197 801.401 615.787 810.816 654.856Z" fill="url(#paint53_linear_293_2)"/>
<path d="M829.951 487.929C831.685 489.167 833.782 489.794 835.912 489.711C838.024 489.624 839.834 488.719 841.432 487.346C841.218 485.858 841.082 484.361 841.023 482.859C841.009 482.515 841.001 482.171 840.992 481.822L840.996 481.794C840.96 479.605 841.086 477.417 841.372 475.246C841.386 475.14 841.4 475.035 841.418 474.934C841.418 474.929 841.418 474.92 841.423 474.915C841.483 474.41 841.565 473.919 841.652 473.414V473.409C841.951 471.714 842.347 470.039 842.837 468.389C839.939 469.427 837.055 470.607 834.755 472.647C834.634 473.684 834.476 474.716 834.282 475.742C834.25 475.912 834.217 476.077 834.18 476.238C834.061 476.834 833.929 477.428 833.786 478.02C833.772 478.066 833.762 478.116 833.749 478.162C833.64 478.61 833.52 479.056 833.391 479.499C833.3 479.83 833.202 480.159 833.097 480.486C833.092 480.5 833.088 480.513 833.083 480.532C832.282 483.093 831.233 485.571 829.951 487.929Z" fill="url(#paint54_linear_293_2)"/>
<path d="M854.97 503.67C854.97 503.67 852.864 506.652 844.141 503.283C843.465 504.213 842.789 505.143 842.151 506.088C838.724 511.193 836.696 516.958 835.705 522.837C832.778 523.609 829.542 524.019 826.136 523.996C823.585 523.978 821.132 523.721 818.835 523.247C818.832 523.244 818.832 523.23 818.827 523.224C818.815 523.157 818.795 523.091 818.783 523.022C818.763 522.949 818.743 522.857 818.716 522.753C818.06 519.809 815.001 504.507 819.626 493.453C819.626 493.453 823.041 485.843 829.623 483.24C829.739 483.188 829.857 483.147 829.978 483.101C830.71 482.954 831.455 482.873 832.209 482.85C834.922 482.766 837.256 482.073 839.966 482.232C840.77 482.284 841.579 482.385 842.365 482.558C842.365 482.558 842.365 482.561 842.37 482.563C842.373 482.567 842.379 482.567 842.384 482.569C842.991 482.792 855.253 487.513 854.97 503.67Z" fill="url(#paint55_linear_293_2)"/>
<path d="M842.359 482.561C840.8 485.62 838.226 488.159 835.14 489.66C834.183 490.127 833.161 490.5 832.098 490.537C831.036 490.575 829.924 490.24 829.197 489.468C828.164 488.373 828.112 486.625 828.667 485.226C828.976 484.448 829.441 483.751 829.971 483.102C830.701 482.958 831.448 482.871 832.204 482.85C834.924 482.767 837.253 482.07 839.963 482.233C840.769 482.282 841.575 482.388 842.359 482.561Z" fill="url(#paint56_linear_293_2)"/>
<path d="M817.6 654.306C809.41 626.702 821.44 558.272 821.44 558.272L826.349 560.408C818.282 590.939 815.288 622.812 817.6 654.306Z" fill="url(#paint57_linear_293_2)"/>
<path d="M833.215 480.098C834.398 479.965 835.551 479.643 836.631 479.143C838.599 478.221 840.262 476.753 841.42 474.914C841.48 474.409 841.563 473.918 841.65 473.412V473.408C841.949 471.713 842.344 470.038 842.835 468.388C839.937 469.426 837.053 470.606 834.753 472.645C834.632 473.683 834.474 474.715 834.279 475.741C834.248 475.911 834.215 476.076 834.178 476.236C834.059 476.833 833.927 477.427 833.784 478.018C833.77 478.064 833.76 478.115 833.747 478.161C833.638 478.609 833.518 479.054 833.389 479.497C833.335 479.699 833.275 479.901 833.215 480.098Z" fill="#FF9CA8"/>
<path d="M842.424 470.777C842.204 471.433 841.965 472.093 841.806 472.766C841.744 473.016 841.694 473.268 841.66 473.523L841.423 473.824C840.069 475.502 838.316 476.966 836.217 477.46C834.12 477.954 831.655 477.273 830.494 475.459C829.42 473.782 829.65 471.562 830.383 469.71C831.119 467.861 832.297 466.217 833.101 464.395C833.506 463.478 833.807 462.475 833.896 461.473C833.971 460.655 833.899 459.84 833.622 459.081C834.271 459.796 835.075 460.389 835.903 460.888C837.331 461.748 838.884 462.403 840.235 463.378C841.589 464.353 842.763 465.742 842.974 467.396C843.119 468.539 842.791 469.684 842.424 470.777Z" fill="url(#paint58_linear_293_2)"/>
<path d="M842.457 469.709C842.597 469.311 842.84 468.877 843.256 468.811C843.667 468.746 844.036 469.083 844.243 469.444C844.778 470.369 844.667 471.624 843.979 472.442C843.291 473.259 842.074 473.583 841.07 473.215C841.465 472.054 842.05 470.866 842.457 469.709Z" fill="url(#paint59_linear_293_2)"/>
<path d="M841.561 473.151C841.557 473.282 841.58 473.413 841.628 473.536C841.676 473.659 841.748 473.77 841.839 473.865C841.931 473.959 842.041 474.034 842.162 474.085C842.283 474.137 842.414 474.163 842.545 474.163C842.677 474.163 842.807 474.137 842.928 474.085C843.05 474.034 843.159 473.959 843.251 473.865C843.343 473.77 843.415 473.659 843.463 473.536C843.51 473.413 843.533 473.282 843.529 473.151C843.522 472.894 843.415 472.651 843.232 472.472C843.048 472.294 842.802 472.194 842.545 472.194C842.289 472.194 842.043 472.294 841.859 472.472C841.675 472.651 841.568 472.894 841.561 473.151Z" fill="white"/>
<path d="M773.388 456.5C773.138 455.467 772.418 454.545 771.555 453.823C770.691 453.1 769.684 452.552 768.686 452.01L763.25 449.055C762.866 448.846 762.465 448.632 762.033 448.591C761.601 448.55 761.129 448.736 761.013 449.115C760.932 449.383 761.044 449.69 761.238 449.922C761.431 450.154 761.696 450.326 761.958 450.487C762.517 450.828 763.098 451.141 763.606 451.547C764.114 451.954 764.553 452.47 764.713 453.063C764.908 453.787 764.67 454.525 764.768 455.259C764.937 456.522 766.101 457.576 767.383 458.076C768.665 458.577 770.059 458.629 771.416 458.676C772.048 457.966 772.756 457.211 773.388 456.5ZM855.661 519.294C855.694 519.861 855.596 520.428 855.377 520.952C855.158 521.477 854.822 521.944 854.395 522.319C852.962 523.576 851.552 524.787 850.197 525.951C848.833 527.11 847.524 528.228 846.276 529.288C845.094 530.286 843.905 531.275 842.708 532.255C841.668 533.109 840.616 533.948 839.553 534.772C838.758 535.386 837.95 535.983 837.129 536.563C837.057 536.508 836.982 536.454 836.907 536.395C836.268 535.888 835.685 535.313 835.168 534.682C834.833 534.269 834.528 533.833 834.254 533.378C834.549 532.948 834.87 532.497 835.217 532.023C835.427 531.734 835.65 531.436 835.878 531.133C836.69 530.061 837.516 528.999 838.357 527.949C839.325 526.742 840.301 525.541 841.284 524.346C842.33 523.086 843.43 521.763 844.574 520.388C845.225 519.614 845.889 518.822 846.568 518.019C846.524 517.814 846.484 517.609 846.44 517.401L845.868 514.425C845.689 513.443 845.515 512.477 845.342 511.527C845.016 509.626 844.718 507.791 844.481 506.035C844.416 505.566 844.354 505.097 844.296 504.628C844.239 504.174 844.187 503.723 844.137 503.281C850.507 505.743 853.351 504.815 854.416 504.137C854.442 504.339 854.468 504.541 854.492 504.744C854.709 506.5 854.89 508.352 855.055 510.274C855.092 510.762 855.131 511.256 855.171 511.753L855.284 513.209C855.35 514.203 855.417 515.211 855.486 516.234L855.624 518.673L855.661 519.294Z" fill="url(#paint60_linear_293_2)"/>
<path d="M840.414 537.826C840.327 538.019 839.614 537.938 838.588 537.45C838.309 537.319 838.039 537.169 837.779 537.003C837.555 536.868 837.338 536.721 837.129 536.564C837.057 536.508 836.982 536.454 836.907 536.396C836.268 535.888 835.685 535.314 835.168 534.682C834.834 534.269 834.529 533.834 834.255 533.379C834.11 533.134 833.973 532.885 833.845 532.631C833.685 532.289 833.535 531.969 833.426 531.654C833.317 531.365 833.226 531.07 833.154 530.769C832.885 529.666 832.952 528.952 833.157 528.906C833.382 528.851 833.705 529.449 834.214 530.353C834.342 530.581 834.475 530.827 834.633 531.084C834.781 531.347 834.96 531.616 835.136 531.902C835.163 531.942 835.188 531.982 835.217 532.023C835.567 532.549 835.965 533.109 836.416 533.666C836.879 534.227 837.368 534.764 837.883 535.276L838.322 535.701C838.409 535.782 838.492 535.863 838.58 535.935C838.799 536.143 839.015 536.325 839.209 536.495C839.992 537.175 840.512 537.614 840.414 537.826Z" fill="#126984"/>
<path d="M855.172 511.753C852.286 508.443 848.496 505.912 844.298 504.629C844.24 504.175 844.188 503.724 844.139 503.282C850.509 505.744 853.352 504.816 854.418 504.138C854.443 504.34 854.47 504.542 854.493 504.745C854.71 506.501 854.892 508.353 855.056 510.275C855.094 510.763 855.132 511.256 855.172 511.753Z" fill="#FDA1AC"/>
<defs>
<linearGradient id="paint0_linear_293_2" x1="800" y1="-74.4799" x2="800" y2="834.48" gradientUnits="userSpaceOnUse">
<stop offset="0.0239582" stop-color="#46BBFD"/>
<stop offset="1" stop-color="#003397"/>
</linearGradient>
<linearGradient id="paint1_linear_293_2" x1="1316.15" y1="695.583" x2="1328.91" y2="695.583" gradientUnits="userSpaceOnUse">
<stop stop-color="white"/>
<stop offset="1" stop-color="white" stop-opacity="0.82"/>
</linearGradient>
<linearGradient id="paint2_linear_293_2" x1="1328.91" y1="709.924" x2="1367.19" y2="709.924" gradientUnits="userSpaceOnUse">
<stop stop-color="white"/>
<stop offset="1" stop-color="white" stop-opacity="0.82"/>
</linearGradient>
<linearGradient id="paint3_linear_293_2" x1="1329.13" y1="681.182" x2="1367.1" y2="681.182" gradientUnits="userSpaceOnUse">
<stop stop-color="white"/>
<stop offset="1" stop-color="white" stop-opacity="0.82"/>
</linearGradient>
<linearGradient id="paint4_linear_293_2" x1="1281" y1="583" x2="947" y2="505" gradientUnits="userSpaceOnUse">
<stop stop-color="#52194E"/>
<stop offset="0.297" stop-color="#A34698"/>
<stop offset="0.703" stop-color="#6F1E63"/>
<stop offset="1" stop-color="#E15FCD"/>
</linearGradient>
<linearGradient id="paint5_linear_293_2" x1="1254" y1="432.5" x2="965.5" y2="389" gradientUnits="userSpaceOnUse">
<stop stop-color="#B20E55"/>
<stop offset="0.482" stop-color="#F54E8B"/>
<stop offset="0.781" stop-color="#901E46"/>
<stop offset="1" stop-color="#DE5785"/>
</linearGradient>
<linearGradient id="paint6_linear_293_2" x1="1259" y1="498.5" x2="958" y2="433" gradientUnits="userSpaceOnUse">
<stop stop-color="#0E6284"/>
<stop offset="0.207" stop-color="#269BBD"/>
<stop offset="0.665" stop-color="#15737F"/>
<stop offset="1" stop-color="#43CDD9"/>
</linearGradient>
<linearGradient id="paint7_linear_293_2" x1="1022.07" y1="479.224" x2="1022.07" y2="502.468" gradientUnits="userSpaceOnUse">
<stop stop-color="#18949F"/>
<stop offset="1" stop-color="#5AD2DC"/>
</linearGradient>
<linearGradient id="paint8_linear_293_2" x1="1229.5" y1="438" x2="954.052" y2="402.284" gradientUnits="userSpaceOnUse">
<stop stop-color="#F89DC5"/>
<stop offset="0.24375" stop-color="#75314D"/>
</linearGradient>
<linearGradient id="paint9_linear_293_2" x1="1253.44" y1="425.988" x2="958.737" y2="375.138" gradientUnits="userSpaceOnUse">
<stop stop-color="#FFA7CD"/>
<stop offset="0.100195" stop-color="#7F0F3D"/>
<stop offset="0.482" stop-color="#A62B58"/>
<stop offset="0.781" stop-color="#B83562"/>
<stop offset="1" stop-color="#BE3966"/>
</linearGradient>
<linearGradient id="paint10_linear_293_2" x1="1210.5" y1="512.5" x2="953.191" y2="471.435" gradientUnits="userSpaceOnUse">
<stop stop-color="#74C4E5"/>
<stop offset="0.207" stop-color="#146177"/>
<stop offset="0.665" stop-color="#2592A1"/>
<stop offset="1" stop-color="#2698A2"/>
</linearGradient>
<linearGradient id="paint11_linear_293_2" x1="1241.5" y1="499" x2="959.601" y2="441.107" gradientUnits="userSpaceOnUse">
<stop stop-color="#5AB1D4"/>
<stop offset="0.207" stop-color="#15718C"/>
<stop offset="0.665" stop-color="#2592A1"/>
<stop offset="1" stop-color="#178892"/>
</linearGradient>
<linearGradient id="paint12_linear_293_2" x1="1260.43" y1="491.454" x2="962.269" y2="428.469" gradientUnits="userSpaceOnUse">
<stop stop-color="#72CEF4"/>
<stop offset="0.207" stop-color="#0E596E"/>
<stop offset="0.665" stop-color="#2592A1"/>
<stop offset="1" stop-color="#43B3BD"/>
</linearGradient>
<linearGradient id="paint13_linear_293_2" x1="1277.55" y1="595.258" x2="938.231" y2="532.855" gradientUnits="userSpaceOnUse">
<stop stop-color="#D17BCB"/>
<stop offset="0.297" stop-color="#C15FB5"/>
<stop offset="0.703" stop-color="#C968BA"/>
<stop offset="1" stop-color="#521048"/>
</linearGradient>
<linearGradient id="paint14_linear_293_2" x1="1283.03" y1="565.451" x2="943.711" y2="503.047" gradientUnits="userSpaceOnUse">
<stop stop-color="#D179CA"/>
<stop offset="0.297" stop-color="#7C3974"/>
<stop offset="0.703" stop-color="#8E3B81"/>
<stop offset="1" stop-color="#943C86"/>
</linearGradient>
<linearGradient id="paint15_linear_293_2" x1="1284.39" y1="558.098" x2="945.07" y2="495.696" gradientUnits="userSpaceOnUse">
<stop stop-color="#B14EA9"/>
<stop offset="0.297" stop-color="#7C3974"/>
<stop offset="0.703" stop-color="#8E3B81"/>
<stop offset="1" stop-color="#B75BA8"/>
</linearGradient>
<linearGradient id="paint16_linear_293_2" x1="1144.37" y1="391.406" x2="1144.37" y2="395.644" gradientUnits="userSpaceOnUse">
<stop stop-color="#FFE6AE"/>
<stop offset="1" stop-color="#FFCE61"/>
</linearGradient>
<linearGradient id="paint17_linear_293_2" x1="1144.35" y1="382.622" x2="1144.35" y2="386.861" gradientUnits="userSpaceOnUse">
<stop stop-color="#FFCE61"/>
<stop offset="0.0001" stop-color="#F7C046"/>
<stop offset="1" stop-color="#FFE6AE"/>
</linearGradient>
<linearGradient id="paint18_linear_293_2" x1="1061.53" y1="382.621" x2="1061.53" y2="395.639" gradientUnits="userSpaceOnUse">
<stop stop-color="#F9A2A2"/>
<stop offset="1" stop-color="#FCEDED"/>
</linearGradient>
<linearGradient id="paint19_linear_293_2" x1="1056.89" y1="386.518" x2="1056.89" y2="391.777" gradientUnits="userSpaceOnUse">
<stop stop-color="#54254F"/>
<stop offset="1" stop-color="#9B5994"/>
</linearGradient>
<linearGradient id="paint20_linear_293_2" x1="1225.67" y1="382.626" x2="1225.67" y2="395.643" gradientUnits="userSpaceOnUse">
<stop stop-color="#D41E5C"/>
<stop offset="1" stop-color="#F687AD"/>
</linearGradient>
<linearGradient id="paint21_linear_293_2" x1="674.312" y1="239.939" x2="674.312" y2="576.892" gradientUnits="userSpaceOnUse">
<stop stop-color="#9BA6F4"/>
<stop offset="0.0001" stop-color="#E9ECFF"/>
<stop offset="1" stop-color="#7E9AFD"/>
</linearGradient>
<linearGradient id="paint22_linear_293_2" x1="673.425" y1="574.709" x2="673.425" y2="606.892" gradientUnits="userSpaceOnUse">
<stop stop-color="#9BA6F4"/>
<stop offset="0.0001" stop-color="#E9ECFF"/>
<stop offset="1" stop-color="#7E9AFD"/>
</linearGradient>
<linearGradient id="paint23_linear_293_2" x1="930.993" y1="774.296" x2="-653.97" y2="-241.069" gradientUnits="userSpaceOnUse">
<stop stop-color="#E58DEF"/>
<stop offset="0.191" stop-color="#E392F0"/>
<stop offset="0.423" stop-color="#DDA1F2"/>
<stop offset="0.675" stop-color="#D3B9F5"/>
<stop offset="0.94" stop-color="#C5DBFA"/>
<stop offset="1" stop-color="#C2E4FB"/>
</linearGradient>
<linearGradient id="paint24_linear_293_2" x1="673.425" y1="604.137" x2="673.425" y2="626.2" gradientUnits="userSpaceOnUse">
<stop stop-color="#9BA6F4"/>
<stop offset="0.0001" stop-color="#E9ECFF"/>
<stop offset="1" stop-color="#7E9AFD"/>
</linearGradient>
<linearGradient id="paint25_linear_293_2" x1="673.422" y1="374.195" x2="673.422" y2="511.701" gradientUnits="userSpaceOnUse">
<stop stop-color="#ECF2FF"/>
<stop offset="1" stop-color="#A59DFD"/>
</linearGradient>
<linearGradient id="paint26_linear_293_2" x1="673.488" y1="258.6" x2="673.488" y2="558.233" gradientUnits="userSpaceOnUse">
<stop stop-color="#ECF2FF"/>
<stop offset="1" stop-color="#A59DFD"/>
</linearGradient>
<linearGradient id="paint27_linear_293_2" x1="1008.4" y1="229.402" x2="768.595" y2="106.322" gradientUnits="userSpaceOnUse">
<stop stop-color="#313033"/>
<stop offset="0.0001" stop-color="#251646"/>
<stop offset="1" stop-color="#00068B"/>
</linearGradient>
<linearGradient id="paint28_linear_293_2" x1="974.127" y1="223.85" x2="801.931" y2="112.328" gradientUnits="userSpaceOnUse">
<stop stop-color="#1D2448"/>
<stop offset="0.353" stop-color="#1B223B"/>
<stop offset="1" stop-color="#051252"/>
</linearGradient>
<linearGradient id="paint29_linear_293_2" x1="956.414" y1="301.759" x2="796.351" y2="153.254" gradientUnits="userSpaceOnUse">
<stop stop-color="#53516B"/>
<stop offset="1" stop-color="#000532"/>
</linearGradient>
<linearGradient id="paint30_linear_293_2" x1="789.5" y1="167" x2="959" y2="262" gradientUnits="userSpaceOnUse">
<stop stop-color="#F6EFF4"/>
<stop offset="0.46352" stop-color="#3313B0"/>
<stop offset="1" stop-color="#0640D4"/>
</linearGradient>
<linearGradient id="paint31_linear_293_2" x1="984.912" y1="148.296" x2="984.912" y2="233.736" gradientUnits="userSpaceOnUse">
<stop stop-color="#15136E"/>
<stop offset="1" stop-color="#1D2DBB"/>
</linearGradient>
<linearGradient id="paint32_linear_293_2" x1="984.666" y1="238.778" x2="984.666" y2="270.115" gradientUnits="userSpaceOnUse">
<stop stop-color="#F9C33D"/>
<stop offset="1" stop-color="#FFF1CF"/>
</linearGradient>
<linearGradient id="paint33_linear_293_2" x1="979.201" y1="230.059" x2="990.683" y2="243.499" gradientUnits="userSpaceOnUse">
<stop offset="0.135417" stop-color="#F9BC26"/>
<stop offset="1" stop-color="#F8E6B7"/>
</linearGradient>
<linearGradient id="paint34_linear_293_2" x1="485.635" y1="155.067" x2="487.232" y2="167.211" gradientUnits="userSpaceOnUse">
<stop stop-color="white"/>
<stop offset="0.84427" stop-color="#FFC4C4"/>
</linearGradient>
<linearGradient id="paint35_linear_293_2" x1="484.376" y1="143.845" x2="487.203" y2="160.288" gradientUnits="userSpaceOnUse">
<stop stop-color="white"/>
<stop offset="0.84427" stop-color="#FFC4C4"/>
</linearGradient>
<linearGradient id="paint36_linear_293_2" x1="497.33" y1="145.752" x2="479.837" y2="131.695" gradientUnits="userSpaceOnUse">
<stop stop-color="#170413"/>
<stop offset="0.353" stop-color="#2F0E29"/>
<stop offset="1" stop-color="#873E7F"/>
</linearGradient>
<linearGradient id="paint37_linear_293_2" x1="497" y1="139.5" x2="496.687" y2="151.766" gradientUnits="userSpaceOnUse">
<stop stop-color="white"/>
<stop offset="0.84427" stop-color="#FFC4C4"/>
</linearGradient>
<linearGradient id="paint38_linear_293_2" x1="481.622" y1="300.164" x2="481.622" y2="325.563" gradientUnits="userSpaceOnUse">
<stop offset="0.369843" stop-color="#1F051A"/>
<stop offset="1" stop-color="#631A55"/>
</linearGradient>
<linearGradient id="paint39_linear_293_2" x1="504.112" y1="278.619" x2="504.433" y2="303.915" gradientUnits="userSpaceOnUse">
<stop stop-color="#4A1C40"/>
<stop offset="0.096" stop-color="#4D1E44"/>
<stop offset="0.441" stop-color="#52234C"/>
<stop offset="1" stop-color="#54254F"/>
</linearGradient>
<linearGradient id="paint40_linear_293_2" x1="479.52" y1="218.601" x2="480.666" y2="309.097" gradientUnits="userSpaceOnUse">
<stop stop-color="#4A1C40"/>
<stop offset="0.096" stop-color="#4D1E44"/>
<stop offset="0.441" stop-color="#52234C"/>
<stop offset="1" stop-color="#C334B3"/>
</linearGradient>
<linearGradient id="paint41_linear_293_2" x1="458.115" y1="191.005" x2="462.779" y2="210.764" gradientUnits="userSpaceOnUse">
<stop stop-color="white"/>
<stop offset="0.505021" stop-color="#FFC4C4"/>
</linearGradient>
<linearGradient id="paint42_linear_293_2" x1="508.56" y1="218.483" x2="473.161" y2="161.485" gradientUnits="userSpaceOnUse">
<stop stop-color="#FAA339"/>
<stop offset="0.0001" stop-color="#FF9F2B"/>
<stop offset="1" stop-color="#FFEFC6"/>
</linearGradient>
<linearGradient id="paint43_linear_293_2" x1="490" y1="198.5" x2="529.11" y2="201.611" gradientUnits="userSpaceOnUse">
<stop stop-color="white"/>
<stop offset="0.84427" stop-color="#FFC4C4"/>
</linearGradient>
<linearGradient id="paint44_linear_293_2" x1="455.846" y1="295.749" x2="493.38" y2="228.409" gradientUnits="userSpaceOnUse">
<stop stop-color="#54254F"/>
<stop offset="0.559" stop-color="#52234C"/>
<stop offset="0.904" stop-color="#4D1E44"/>
<stop offset="1" stop-color="#4A1C40"/>
</linearGradient>
<linearGradient id="paint45_linear_293_2" x1="489" y1="153" x2="485.966" y2="170.232" gradientUnits="userSpaceOnUse">
<stop stop-color="white"/>
<stop offset="0.84427" stop-color="#FFC4C4"/>
</linearGradient>
<linearGradient id="paint46_linear_293_2" x1="494.201" y1="206.138" x2="464.5" y2="171" gradientUnits="userSpaceOnUse">
<stop stop-color="#2A0522"/>
<stop offset="0.353" stop-color="#68265D"/>
<stop offset="1" stop-color="#D67ECD"/>
</linearGradient>
<linearGradient id="paint47_linear_293_2" x1="489.5" y1="182" x2="491.198" y2="194.347" gradientUnits="userSpaceOnUse">
<stop stop-color="white"/>
<stop offset="0.84427" stop-color="#FFC4C4"/>
</linearGradient>
<linearGradient id="paint48_linear_293_2" x1="458" y1="182.5" x2="458.512" y2="195.086" gradientUnits="userSpaceOnUse">
<stop stop-color="white"/>
<stop offset="0.84427" stop-color="#FFC4C4"/>
</linearGradient>
<linearGradient id="paint49_linear_293_2" x1="851.954" y1="490.572" x2="825.374" y2="450.702" gradientUnits="userSpaceOnUse">
<stop stop-color="#2E1428"/>
<stop offset="0.353" stop-color="#340A2D"/>
<stop offset="1" stop-color="#A6449B"/>
</linearGradient>
<linearGradient id="paint50_linear_293_2" x1="760" y1="450" x2="802.781" y2="481.97" gradientUnits="userSpaceOnUse">
<stop stop-color="white"/>
<stop offset="0.615652" stop-color="#FFC4C4"/>
</linearGradient>
<linearGradient id="paint51_linear_293_2" x1="843.611" y1="523.997" x2="820.498" y2="476.614" gradientUnits="userSpaceOnUse">
<stop stop-color="#7C1240"/>
<stop offset="0.228" stop-color="#851745"/>
<stop offset="0.800557" stop-color="#9C2553"/>
<stop offset="1" stop-color="#F66B9A"/>
</linearGradient>
<linearGradient id="paint52_linear_293_2" x1="837.564" y1="649.302" x2="837.564" y2="663.342" gradientUnits="userSpaceOnUse">
<stop stop-color="#5F3257"/>
<stop offset="1" stop-color="#34142E"/>
</linearGradient>
<linearGradient id="paint53_linear_293_2" x1="802.291" y1="524.336" x2="846.5" y2="658.5" gradientUnits="userSpaceOnUse">
<stop stop-color="#094D69"/>
<stop offset="0.369" stop-color="#076F8F"/>
<stop offset="1" stop-color="#57D3DE"/>
</linearGradient>
<linearGradient id="paint54_linear_293_2" x1="834.538" y1="472.905" x2="837.785" y2="489.237" gradientUnits="userSpaceOnUse">
<stop stop-color="white"/>
<stop offset="0.759851" stop-color="#FFC4C4"/>
</linearGradient>
<linearGradient id="paint55_linear_293_2" x1="840.926" y1="522.437" x2="823.399" y2="472.164" gradientUnits="userSpaceOnUse">
<stop stop-color="#500224"/>
<stop offset="0.228" stop-color="#760031"/>
<stop offset="0.594" stop-color="#9C2553"/>
<stop offset="1" stop-color="#FFBFD5"/>
</linearGradient>
<linearGradient id="paint56_linear_293_2" x1="840" y1="474" x2="833.414" y2="490.301" gradientUnits="userSpaceOnUse">
<stop stop-color="white"/>
<stop offset="0.84427" stop-color="#FFC4C4"/>
</linearGradient>
<linearGradient id="paint57_linear_293_2" x1="820.547" y1="558.272" x2="820.547" y2="654.306" gradientUnits="userSpaceOnUse">
<stop stop-color="#135E75"/>
<stop offset="1" stop-color="#238CAD"/>
</linearGradient>
<linearGradient id="paint58_linear_293_2" x1="834.476" y1="463.005" x2="836.887" y2="477.354" gradientUnits="userSpaceOnUse">
<stop stop-color="white"/>
<stop offset="0.84427" stop-color="#FFC4C4"/>
</linearGradient>
<linearGradient id="paint59_linear_293_2" x1="843" y1="466.5" x2="843.221" y2="473.35" gradientUnits="userSpaceOnUse">
<stop stop-color="white"/>
<stop offset="0.84427" stop-color="#FFA7A7"/>
</linearGradient>
<linearGradient id="paint60_linear_293_2" x1="761" y1="445" x2="774.095" y2="459.461" gradientUnits="userSpaceOnUse">
<stop stop-color="white"/>
<stop offset="0.84427" stop-color="#FFC4C4"/>
</linearGradient>
<clipPath id="clip0_293_2">
<rect width="243.087" height="57.5294" fill="white" transform="translate(1316.15 666.735)"/>
</clipPath>
</defs>
</svg>
