<svg width="1600" height="760" viewBox="0 0 1600 760" fill="none" xmlns="http://www.w3.org/2000/svg">
<g clip-path="url(#clip0_49_393)">
<rect width="1600" height="760" fill="white"/>
<rect width="1600" height="760" fill="url(#paint0_linear_49_393)"/>
<g clip-path="url(#clip1_49_393)">
<path d="M1391.38 704.81C1389.78 704.857 1388.21 704.457 1386.84 703.655C1385.58 702.88 1384.57 701.757 1383.94 700.421C1383.24 698.917 1382.89 697.273 1382.93 695.614C1382.89 693.954 1383.24 692.308 1383.94 690.802C1384.57 689.467 1385.58 688.344 1386.84 687.569C1388.21 686.767 1389.78 686.366 1391.38 686.413C1393.19 686.347 1394.98 686.882 1396.47 687.938C1397.84 688.968 1398.85 690.409 1399.34 692.052L1396.36 692.875C1396.08 691.814 1395.46 690.87 1394.61 690.177C1393.67 689.496 1392.53 689.158 1391.38 689.219C1390.33 689.18 1389.3 689.458 1388.41 690.015C1387.61 690.568 1386.99 691.352 1386.64 692.264C1386.22 693.342 1386.01 694.49 1386.03 695.646C1386 696.799 1386.21 697.947 1386.62 699.023C1386.98 699.938 1387.61 700.722 1388.42 701.271C1389.31 701.828 1390.34 702.106 1391.39 702.067C1392.54 702.118 1393.68 701.772 1394.6 701.087C1395.46 700.393 1396.07 699.45 1396.36 698.389L1399.34 699.171C1398.85 700.812 1397.85 702.253 1396.48 703.286C1395 704.345 1393.2 704.881 1391.38 704.81Z" fill="white"/>
<path d="M1402.59 704.446V686.778H1409.88C1410.06 686.778 1410.28 686.778 1410.55 686.778C1410.8 686.789 1411.05 686.816 1411.3 686.859C1412.22 686.973 1413.09 687.325 1413.83 687.879C1414.49 688.396 1415.01 689.079 1415.32 689.858C1415.65 690.705 1415.81 691.607 1415.8 692.516C1415.83 693.836 1415.45 695.134 1414.71 696.226C1414.31 696.759 1413.81 697.204 1413.23 697.534C1412.66 697.865 1412.02 698.073 1411.36 698.146L1410.1 698.254H1405.55V704.446H1402.59ZM1405.55 695.515H1409.76C1409.93 695.515 1410.11 695.515 1410.32 695.488C1410.51 695.476 1410.7 695.442 1410.88 695.389C1411.32 695.297 1411.73 695.071 1412.04 694.742C1412.32 694.44 1412.52 694.079 1412.64 693.685C1412.76 693.312 1412.81 692.924 1412.82 692.534C1412.81 692.141 1412.76 691.75 1412.64 691.374C1412.52 690.978 1412.32 690.615 1412.04 690.312C1411.73 689.986 1411.32 689.762 1410.88 689.669C1410.69 689.622 1410.51 689.591 1410.32 689.579C1410.11 689.579 1409.93 689.579 1409.76 689.579H1405.55V695.515ZM1412.74 704.446L1409.26 697.251L1412.26 696.59L1416.09 704.442L1412.74 704.446Z" fill="white"/>
<path d="M1419.35 704.446V686.778H1430.76V689.552H1422.3V693.905H1429.28V696.68H1422.3V701.672H1430.76V704.446H1419.35Z" fill="white"/>
<path d="M1433.04 704.446L1438.6 686.778H1442.93L1448.5 704.446H1445.46L1440.41 688.595H1441.07L1436.08 704.446H1433.04ZM1436.14 700.615V697.858H1445.41V700.615H1436.14Z" fill="white"/>
<path d="M1454.05 704.446V689.552H1448.33V686.778H1462.72V689.552H1457V704.446H1454.05Z" fill="white"/>
<path d="M1465.49 704.446V686.778H1468.45V704.446H1465.49Z" fill="white"/>
<path d="M1476.69 704.446L1471.1 686.778H1474.14L1478.81 701.573L1483.53 686.778H1486.58L1481 704.446H1476.69Z" fill="white"/>
<path d="M1488.97 704.446V686.778H1500.38V689.552H1491.93V693.905H1498.91V696.68H1491.93V701.672H1500.38V704.446H1488.97Z" fill="white"/>
<path d="M1504.12 704.446V686.778H1507.08V704.446H1504.12Z" fill="white"/>
<path d="M1515.58 704.446V689.552H1509.87V686.778H1524.26V689.552H1518.54V704.446H1515.58Z" fill="white"/>
<path d="M1526.78 704.446V686.778H1538.19V689.552H1529.76V693.905H1536.73V696.68H1529.76V701.672H1538.21V704.446H1526.78Z" fill="white"/>
<path d="M1541.7 704.446V686.778H1544.36L1550.47 699.293L1556.58 686.778H1559.24V704.446H1556.48V693.123L1551.06 704.446H1549.88L1544.48 693.123V704.446H1541.7Z" fill="white"/>
<path d="M1341.68 710.319L1328.91 702.949V717.685L1341.68 710.319Z" fill="white" fill-opacity="0.48"/>
<path d="M1367.2 695.583L1354.43 688.217V702.949L1367.2 695.583Z" fill="white" fill-opacity="0.47"/>
<path d="M1341.68 680.846L1328.91 673.48V688.217L1341.68 680.846Z" fill="white" fill-opacity="0.48"/>
<path d="M1328.91 673.48L1318.7 679.376C1317.93 679.822 1317.28 680.466 1316.83 681.243C1316.38 682.019 1316.15 682.9 1316.15 683.796V707.369C1316.15 708.266 1316.39 709.148 1316.83 709.924C1317.28 710.701 1317.93 711.346 1318.7 711.794L1328.91 717.685V673.48Z" fill="url(#paint1_linear_49_393)"/>
<path d="M1367.2 707.369V695.583L1328.91 717.685L1339.12 723.581C1339.9 724.029 1340.78 724.265 1341.67 724.265C1342.57 724.265 1343.45 724.029 1344.23 723.581L1364.65 711.794C1365.42 711.345 1366.07 710.7 1366.51 709.923C1366.96 709.146 1367.2 708.266 1367.2 707.369Z" fill="url(#paint2_linear_49_393)"/>
<path d="M1344.32 667.634C1343.55 667.19 1342.68 666.956 1341.79 666.956C1340.9 666.956 1340.03 667.19 1339.26 667.634L1329.13 673.48L1367.1 695.407V683.715C1367.1 682.826 1366.87 681.952 1366.42 681.182C1365.98 680.411 1365.34 679.771 1364.57 679.326L1344.32 667.634Z" fill="url(#paint3_linear_49_393)"/>
</g>
<path opacity="0.16" d="M1275.92 576.97C1275.06 589.962 1267.49 602.64 1254.28 614.711C1242.03 625.884 1232.83 640.17 1203.87 646.433C1174.91 652.695 448.911 654.932 433.44 646.433C417.969 637.933 404.494 623.497 393.18 607.929C389.155 602.395 385.484 596.611 382.189 590.612C286.216 416.037 514.277 82.1611 590.957 98.5842C626.164 106.123 605.364 182.345 663.321 219.343C772.949 289.332 982.662 102.936 1044.39 158.965C1077.46 188.97 1022.14 246.793 1042.79 335.455C1077.83 485.998 1280.65 505.422 1275.92 576.97Z" fill="white"/>
<path d="M1023.08 152.64C1022.94 152.641 1022.81 152.613 1022.69 152.558C1022.57 152.504 1022.46 152.424 1022.37 152.325C1022.28 152.225 1022.22 152.108 1022.18 151.981C1022.14 151.854 1022.12 151.72 1022.14 151.587C1022.4 149.441 1022.58 147.257 1022.68 145.099C1022.69 144.975 1022.71 144.852 1022.76 144.739C1022.82 144.626 1022.89 144.525 1022.98 144.441C1023.07 144.358 1023.18 144.294 1023.3 144.253C1023.42 144.213 1023.54 144.197 1023.67 144.206C1024.18 144.229 1024.59 144.67 1024.56 145.187C1024.45 147.402 1024.27 149.612 1024.01 151.813C1023.98 152.041 1023.87 152.251 1023.7 152.403C1023.53 152.556 1023.31 152.64 1023.08 152.64ZM715.886 383.252C715.834 383.253 715.782 383.249 715.73 383.241C711.303 382.506 706.894 381.651 702.616 380.699C702.495 380.673 702.381 380.623 702.28 380.552C702.178 380.481 702.092 380.391 702.026 380.286C701.959 380.182 701.914 380.066 701.893 379.944C701.872 379.823 701.874 379.698 701.901 379.577C701.956 379.334 702.105 379.123 702.315 378.989C702.525 378.855 702.78 378.81 703.024 378.863C707.268 379.807 711.646 380.658 716.038 381.386C716.27 381.425 716.479 381.55 716.624 381.735C716.768 381.921 716.837 382.154 716.818 382.389C716.799 382.623 716.693 382.842 716.52 383.002C716.348 383.162 716.121 383.251 715.886 383.252ZM689.922 377.451C689.834 377.451 689.747 377.439 689.663 377.414C685.378 376.192 681.133 374.831 676.936 373.335C676.701 373.251 676.509 373.078 676.402 372.852C676.295 372.627 676.282 372.369 676.366 372.134C676.45 371.899 676.624 371.707 676.849 371.6C677.074 371.494 677.332 371.481 677.567 371.564C681.663 373.025 685.905 374.384 690.18 375.607C690.399 375.668 690.589 375.806 690.714 375.997C690.839 376.187 690.891 376.416 690.859 376.641C690.828 376.867 690.715 377.073 690.543 377.222C690.37 377.371 690.15 377.453 689.922 377.451ZM664.878 368.489C664.748 368.489 664.62 368.462 664.502 368.41C660.415 366.625 656.396 364.689 652.453 362.606C652.233 362.489 652.067 362.29 651.994 362.052C651.92 361.814 651.944 361.556 652.06 361.335C652.177 361.115 652.376 360.949 652.614 360.876C652.852 360.802 653.11 360.826 653.331 360.942C657.233 363.004 661.21 364.921 665.254 366.688C665.451 366.775 665.613 366.927 665.712 367.119C665.811 367.31 665.841 367.53 665.797 367.741C665.752 367.953 665.637 368.142 665.47 368.278C665.302 368.414 665.093 368.489 664.878 368.489ZM641.388 356.027C641.207 356.027 641.031 355.975 640.88 355.877C637.119 353.471 633.464 350.905 629.923 348.185C629.726 348.033 629.597 347.809 629.564 347.561C629.532 347.314 629.599 347.064 629.751 346.867C629.904 346.669 630.128 346.54 630.375 346.507C630.622 346.475 630.872 346.542 631.07 346.695C634.568 349.381 638.179 351.917 641.893 354.294C642.064 354.404 642.195 354.566 642.266 354.756C642.338 354.946 642.345 355.155 642.288 355.35C642.231 355.545 642.112 355.716 641.949 355.838C641.787 355.96 641.589 356.025 641.386 356.025L641.388 356.027ZM620.317 339.821C620.081 339.82 619.853 339.732 619.679 339.572C616.391 336.55 613.247 333.373 610.258 330.054C610.174 329.962 610.108 329.855 610.065 329.738C610.022 329.621 610.003 329.496 610.009 329.372C610.015 329.247 610.045 329.125 610.099 329.013C610.152 328.9 610.227 328.799 610.32 328.716C610.413 328.633 610.521 328.569 610.639 328.528C610.757 328.487 610.881 328.469 611.006 328.477C611.13 328.485 611.252 328.517 611.364 328.572C611.475 328.627 611.575 328.704 611.657 328.798C614.546 332.012 617.672 335.17 620.954 338.189C621.092 338.318 621.189 338.485 621.231 338.669C621.273 338.854 621.258 339.046 621.19 339.222C621.121 339.398 621 339.55 620.844 339.656C620.688 339.763 620.504 339.82 620.315 339.821H620.317ZM602.591 320.032C602.442 320.032 602.295 319.997 602.163 319.929C602.03 319.861 601.915 319.763 601.828 319.642C599.198 316.023 596.788 312.248 594.61 308.34C594.544 308.232 594.5 308.111 594.482 307.986C594.464 307.86 594.471 307.732 594.503 307.61C594.536 307.487 594.593 307.372 594.67 307.272C594.748 307.172 594.846 307.089 594.957 307.027C595.068 306.966 595.19 306.928 595.316 306.915C595.442 306.902 595.57 306.914 595.691 306.952C595.812 306.99 595.924 307.052 596.021 307.134C596.117 307.216 596.196 307.317 596.253 307.43C598.395 311.272 600.766 314.982 603.353 318.539C603.455 318.679 603.516 318.845 603.529 319.018C603.543 319.192 603.508 319.365 603.429 319.52C603.35 319.674 603.23 319.804 603.082 319.894C602.933 319.985 602.763 320.032 602.589 320.032H602.591ZM589.789 296.786C589.599 296.786 589.413 296.728 589.256 296.62C589.099 296.512 588.979 296.358 588.911 296.18C587.897 293.536 587.017 290.841 586.276 288.107C585.843 286.51 585.46 284.901 585.125 283.28C585.076 283.036 585.126 282.782 585.263 282.574C585.4 282.367 585.614 282.222 585.859 282.171C586.102 282.124 586.355 282.174 586.562 282.311C586.77 282.447 586.915 282.66 586.968 282.903C587.287 284.457 587.663 286.045 588.088 287.617C588.813 290.29 589.674 292.924 590.667 295.509C590.721 295.652 590.74 295.805 590.722 295.957C590.704 296.108 590.65 296.253 590.564 296.378C590.477 296.504 590.361 296.607 590.227 296.678C590.092 296.749 589.941 296.786 589.789 296.786ZM584.488 270.835C584.244 270.835 584.01 270.74 583.834 270.571C583.659 270.401 583.556 270.169 583.548 269.925C583.408 265.436 583.64 260.944 584.244 256.493C584.257 256.37 584.296 256.25 584.357 256.142C584.418 256.034 584.501 255.94 584.599 255.865C584.698 255.79 584.811 255.735 584.932 255.706C585.052 255.676 585.178 255.671 585.3 255.691C585.423 255.707 585.54 255.748 585.647 255.81C585.754 255.872 585.847 255.955 585.922 256.053C585.996 256.151 586.051 256.263 586.082 256.383C586.114 256.502 586.121 256.627 586.105 256.749C585.517 261.094 585.291 265.481 585.428 269.863C585.432 269.987 585.412 270.11 585.369 270.226C585.325 270.342 585.259 270.448 585.175 270.538C585.09 270.628 584.989 270.701 584.876 270.752C584.764 270.803 584.642 270.831 584.518 270.835H584.488ZM587.973 244.569C587.827 244.569 587.683 244.535 587.552 244.469C587.421 244.404 587.307 244.309 587.219 244.192C587.132 244.074 587.073 243.938 587.047 243.794C587.021 243.65 587.029 243.502 587.071 243.362C588.349 239.069 589.917 234.867 591.764 230.787C591.868 230.56 592.057 230.384 592.29 230.296C592.523 230.207 592.781 230.215 593.009 230.317C593.479 230.53 593.691 231.088 593.479 231.56C591.665 235.562 590.126 239.684 588.874 243.896C588.816 244.09 588.697 244.261 588.534 244.382C588.372 244.504 588.176 244.569 587.973 244.569ZM918.632 234.4H918.594C914.132 234.213 909.681 233.815 905.256 233.208C905.134 233.192 905.016 233.151 904.91 233.089C904.803 233.027 904.71 232.945 904.635 232.847C904.56 232.749 904.506 232.637 904.474 232.517C904.443 232.398 904.435 232.274 904.452 232.152C904.521 231.635 905.01 231.253 905.51 231.347C909.922 231.949 914.35 232.343 918.67 232.52C918.919 232.525 919.156 232.629 919.329 232.809C919.501 232.988 919.596 233.229 919.591 233.479C919.586 233.728 919.482 233.965 919.302 234.138C919.122 234.311 918.881 234.405 918.632 234.4ZM799.289 234.294H799.24C794.775 234.067 790.325 233.592 785.913 232.872C785.791 232.852 785.674 232.808 785.569 232.743C785.464 232.679 785.373 232.594 785.301 232.494C785.229 232.393 785.177 232.28 785.149 232.16C785.12 232.04 785.116 231.915 785.136 231.794C785.155 231.672 785.199 231.555 785.264 231.45C785.329 231.345 785.414 231.254 785.514 231.182C785.614 231.11 785.727 231.058 785.847 231.029C785.967 231.001 786.092 230.997 786.214 231.016C790.601 231.731 795.014 232.201 799.336 232.417C799.585 232.423 799.821 232.528 799.993 232.709C800.165 232.889 800.258 233.131 800.252 233.38C800.246 233.629 800.141 233.866 799.96 234.038C799.779 234.21 799.538 234.301 799.289 234.294ZM931.931 234.266C931.681 234.274 931.439 234.182 931.258 234.011C931.076 233.84 930.97 233.604 930.963 233.355C930.955 233.105 931.047 232.863 931.218 232.682C931.389 232.5 931.625 232.394 931.874 232.387C936.266 232.113 940.639 231.585 944.97 230.806C945.214 230.765 945.465 230.821 945.669 230.963C945.873 231.104 946.013 231.32 946.06 231.563C946.104 231.809 946.05 232.061 945.908 232.266C945.765 232.471 945.548 232.611 945.303 232.655C941.004 233.434 936.525 233.975 931.991 234.264H931.931V234.266ZM812.587 234.146C812.342 234.149 812.105 234.056 811.928 233.887C811.75 233.718 811.646 233.486 811.637 233.241C811.628 232.996 811.715 232.757 811.879 232.575C812.044 232.394 812.273 232.283 812.518 232.268C816.895 231.947 821.242 231.295 825.521 230.315C825.759 230.272 826.005 230.322 826.207 230.455C826.409 230.588 826.552 230.793 826.607 231.029C826.662 231.265 826.623 231.512 826.5 231.721C826.377 231.929 826.179 232.082 825.946 232.148C821.751 233.12 817.281 233.793 812.66 234.144L812.587 234.146ZM892.3 230.842C892.23 230.842 892.161 230.834 892.093 230.819C887.743 229.831 883.434 228.665 879.18 227.323C878.942 227.248 878.744 227.082 878.628 226.861C878.513 226.64 878.49 226.382 878.565 226.144C878.64 225.906 878.806 225.708 879.027 225.593C879.248 225.478 879.506 225.455 879.744 225.53C883.949 226.856 888.207 228.01 892.507 228.988C892.732 229.039 892.931 229.17 893.066 229.359C893.2 229.547 893.26 229.778 893.234 230.008C893.209 230.237 893.099 230.449 892.927 230.603C892.754 230.757 892.531 230.842 892.3 230.842ZM773.052 230.127C772.974 230.127 772.895 230.117 772.819 230.097C768.503 228.982 764.228 227.714 760.002 226.295C759.765 226.216 759.569 226.046 759.458 225.822C759.346 225.599 759.328 225.341 759.407 225.104C759.486 224.867 759.656 224.671 759.879 224.56C760.102 224.448 760.361 224.43 760.598 224.509C764.781 225.915 769.013 227.171 773.285 228.276C773.508 228.332 773.703 228.467 773.833 228.657C773.962 228.846 774.018 229.077 773.989 229.305C773.961 229.533 773.849 229.742 773.677 229.894C773.504 230.045 773.282 230.128 773.052 230.127ZM958.041 229.469C957.816 229.47 957.598 229.391 957.427 229.245C957.256 229.099 957.143 228.896 957.108 228.674C957.074 228.452 957.12 228.225 957.239 228.034C957.358 227.842 957.541 227.7 957.755 227.633C961.944 226.302 966.04 224.695 970.016 222.821C970.242 222.714 970.5 222.702 970.735 222.785C970.97 222.869 971.162 223.043 971.268 223.268C971.375 223.494 971.388 223.752 971.304 223.987C971.22 224.222 971.046 224.414 970.821 224.52C966.769 226.431 962.594 228.07 958.325 229.426C958.233 229.455 958.137 229.469 958.041 229.469ZM838.344 227.983C838.129 227.983 837.921 227.909 837.753 227.774C837.586 227.638 837.47 227.45 837.425 227.24C837.38 227.03 837.409 226.81 837.506 226.618C837.603 226.427 837.763 226.274 837.959 226.186C842.094 224.33 845.853 222.069 849.126 219.464C849.322 219.324 849.565 219.265 849.804 219.298C850.043 219.332 850.259 219.456 850.41 219.644C850.56 219.833 850.632 220.072 850.611 220.312C850.59 220.553 850.477 220.776 850.297 220.936C846.898 223.637 843.008 225.981 838.729 227.9C838.608 227.955 838.477 227.983 838.344 227.983ZM866.947 222.855C866.826 222.855 866.706 222.832 866.594 222.785C862.46 221.109 858.395 219.272 854.406 217.276C854.183 217.165 854.013 216.969 853.934 216.733C853.855 216.496 853.873 216.238 853.985 216.015C854.096 215.792 854.292 215.622 854.528 215.543C854.765 215.464 855.023 215.482 855.246 215.594C859.191 217.567 863.211 219.386 867.298 221.045C867.504 221.123 867.675 221.272 867.782 221.465C867.889 221.657 867.925 221.881 867.883 222.097C867.841 222.314 867.724 222.508 867.553 222.646C867.382 222.785 867.167 222.859 866.947 222.855ZM747.818 221.746C747.698 221.746 747.579 221.723 747.468 221.678C743.339 220.022 739.247 218.275 735.194 216.44C734.967 216.337 734.789 216.148 734.701 215.915C734.613 215.681 734.621 215.423 734.724 215.195C734.827 214.968 735.016 214.791 735.249 214.703C735.482 214.614 735.741 214.623 735.968 214.725C740.16 216.62 744.263 218.372 748.167 219.932C748.371 220.013 748.54 220.162 748.646 220.354C748.751 220.546 748.786 220.769 748.745 220.984C748.703 221.199 748.588 221.393 748.419 221.532C748.249 221.671 748.037 221.747 747.818 221.746ZM598.819 220.347C598.652 220.348 598.488 220.304 598.343 220.22C598.199 220.136 598.08 220.015 597.998 219.869C597.916 219.723 597.875 219.558 597.878 219.391C597.881 219.224 597.929 219.061 598.016 218.919C600.332 215.096 602.848 211.398 605.554 207.84C605.704 207.641 605.928 207.511 606.175 207.477C606.422 207.443 606.673 207.509 606.871 207.66C607.07 207.81 607.201 208.034 607.234 208.281C607.268 208.528 607.203 208.779 607.052 208.977C604.385 212.482 601.906 216.126 599.623 219.893C599.54 220.031 599.422 220.146 599.281 220.226C599.14 220.306 598.981 220.347 598.819 220.347ZM982.026 218.133C981.822 218.134 981.624 218.069 981.461 217.947C981.298 217.826 981.179 217.655 981.121 217.461C981.064 217.266 981.07 217.058 981.141 216.867C981.211 216.677 981.342 216.514 981.512 216.404C985.191 214.004 988.697 211.35 992.005 208.46C992.097 208.379 992.205 208.317 992.322 208.278C992.439 208.238 992.562 208.222 992.686 208.23C992.809 208.238 992.929 208.271 993.039 208.325C993.15 208.38 993.249 208.456 993.33 208.549C993.411 208.642 993.473 208.749 993.513 208.866C993.552 208.983 993.568 209.107 993.56 209.23C993.552 209.353 993.52 209.473 993.465 209.583C993.41 209.694 993.334 209.793 993.241 209.874C989.869 212.823 986.293 215.532 982.541 217.981C982.387 218.079 982.209 218.131 982.027 218.131L982.026 218.133ZM858.785 211.477C858.614 211.477 858.446 211.43 858.3 211.341C858.153 211.253 858.034 211.126 857.954 210.974C857.875 210.822 857.838 210.651 857.848 210.48C857.859 210.31 857.916 210.145 858.013 210.004C860.419 206.526 862.381 202.615 863.846 198.378C863.883 198.258 863.945 198.147 864.026 198.052C864.107 197.956 864.207 197.878 864.319 197.821C864.431 197.765 864.553 197.731 864.679 197.723C864.804 197.715 864.93 197.731 865.048 197.772C865.167 197.813 865.276 197.878 865.37 197.961C865.463 198.045 865.539 198.147 865.592 198.26C865.646 198.374 865.676 198.497 865.681 198.623C865.686 198.748 865.666 198.873 865.622 198.991C864.103 203.389 862.062 207.455 859.558 211.071C859.472 211.196 859.357 211.299 859.223 211.369C859.089 211.44 858.937 211.477 858.785 211.477ZM843.173 210.958C843.002 210.958 842.834 210.912 842.688 210.823C838.868 208.519 835.142 206.062 831.519 203.459C831.317 203.313 831.18 203.093 831.14 202.847C831.1 202.601 831.159 202.349 831.305 202.147C831.45 201.944 831.67 201.808 831.916 201.768C832.162 201.728 832.414 201.787 832.617 201.932C836.198 204.508 839.882 206.938 843.66 209.216C843.835 209.323 843.97 209.483 844.045 209.674C844.12 209.864 844.131 210.074 844.076 210.272C844.021 210.469 843.903 210.643 843.74 210.767C843.577 210.891 843.378 210.958 843.173 210.958ZM723.551 210.842C723.408 210.842 723.267 210.81 723.138 210.748C719.152 208.786 715.186 206.781 711.243 204.733C711.13 204.678 711.029 204.602 710.946 204.508C710.863 204.413 710.8 204.303 710.76 204.184C710.72 204.065 710.705 203.939 710.714 203.814C710.724 203.689 710.759 203.567 710.817 203.455C710.874 203.343 710.954 203.244 711.05 203.164C711.147 203.084 711.258 203.024 711.379 202.987C711.499 202.951 711.625 202.939 711.75 202.952C711.875 202.965 711.996 203.003 712.106 203.064C716.038 205.105 719.992 207.103 723.967 209.058C724.158 209.151 724.313 209.306 724.405 209.499C724.497 209.691 724.521 209.908 724.473 210.116C724.425 210.324 724.307 210.509 724.14 210.641C723.973 210.773 723.766 210.845 723.553 210.844L723.551 210.842ZM1001.98 200.662C1001.8 200.662 1001.62 200.61 1001.47 200.513C1001.32 200.416 1001.2 200.278 1001.12 200.115C1001.05 199.952 1001.02 199.771 1001.05 199.593C1001.07 199.415 1001.15 199.248 1001.26 199.111C1004.12 195.775 1006.73 192.237 1009.07 188.523C1009.2 188.316 1009.41 188.17 1009.65 188.117C1009.9 188.064 1010.15 188.108 1010.36 188.24C1010.57 188.371 1010.72 188.58 1010.77 188.82C1010.83 189.061 1010.79 189.314 1010.66 189.525C1008.27 193.316 1005.6 196.928 1002.69 200.333C1002.6 200.436 1002.49 200.519 1002.37 200.576C1002.24 200.632 1002.11 200.662 1001.97 200.662H1001.98ZM614.967 199.265C614.781 199.265 614.6 199.21 614.446 199.107C614.291 199.004 614.171 198.858 614.1 198.687C614.028 198.516 614.009 198.327 614.045 198.145C614.08 197.963 614.169 197.795 614.3 197.664C617.638 194.286 621.102 191.365 624.593 188.98C624.799 188.84 625.052 188.787 625.297 188.833C625.542 188.878 625.759 189.019 625.901 189.224C626.042 189.43 626.095 189.684 626.049 189.929C626.002 190.174 625.861 190.391 625.655 190.532C622.26 192.85 618.89 195.692 615.636 198.985C615.549 199.074 615.445 199.144 615.33 199.192C615.215 199.24 615.092 199.265 614.967 199.265ZM699.89 198.652C699.738 198.652 699.589 198.616 699.454 198.545C695.894 196.664 691.755 194.489 687.64 192.483C687.524 192.433 687.42 192.359 687.333 192.267C687.246 192.174 687.178 192.066 687.135 191.947C687.091 191.828 687.072 191.701 687.078 191.575C687.084 191.448 687.116 191.324 687.172 191.21C687.228 191.096 687.306 190.995 687.401 190.912C687.497 190.829 687.609 190.766 687.729 190.727C687.85 190.688 687.977 190.675 688.103 190.686C688.23 190.698 688.352 190.735 688.464 190.795C692.603 192.81 696.76 194.994 700.33 196.882C700.515 196.98 700.663 197.137 700.748 197.328C700.834 197.52 700.853 197.735 700.803 197.938C700.753 198.142 700.636 198.323 700.47 198.452C700.305 198.582 700.1 198.652 699.89 198.652ZM821.596 195.427C821.372 195.427 821.155 195.347 820.985 195.201C819.14 193.625 817.332 192.005 815.565 190.342C814.079 188.947 812.625 187.518 811.204 186.057C811.118 185.968 811.05 185.864 811.004 185.749C810.958 185.634 810.936 185.512 810.937 185.388C810.939 185.265 810.965 185.143 811.014 185.029C811.062 184.916 811.133 184.813 811.222 184.727C811.31 184.641 811.415 184.573 811.529 184.527C811.644 184.481 811.767 184.459 811.89 184.46C812.014 184.462 812.136 184.488 812.249 184.537C812.363 184.586 812.465 184.656 812.551 184.745C813.954 186.186 815.389 187.596 816.854 188.974C818.599 190.616 820.384 192.216 822.205 193.773C822.353 193.897 822.46 194.063 822.509 194.249C822.559 194.436 822.55 194.633 822.483 194.814C822.417 194.995 822.296 195.151 822.137 195.261C821.978 195.371 821.789 195.429 821.596 195.427ZM675.876 187.216C675.763 187.216 675.65 187.196 675.537 187.153C671.03 185.423 666.915 184.171 662.959 183.333C662.715 183.281 662.502 183.135 662.366 182.926C662.23 182.717 662.183 182.462 662.235 182.218C662.29 181.977 662.437 181.767 662.645 181.632C662.853 181.497 663.105 181.448 663.348 181.495C667.404 182.356 671.611 183.632 676.212 185.399C676.417 185.477 676.589 185.625 676.696 185.817C676.804 186.009 676.84 186.232 676.8 186.449C676.76 186.665 676.645 186.86 676.476 187C676.307 187.141 676.094 187.217 675.874 187.216H675.876ZM867.616 186.662C867.483 186.662 867.352 186.635 867.231 186.581C867.11 186.526 867.002 186.447 866.913 186.349C866.825 186.25 866.758 186.133 866.718 186.007C866.678 185.88 866.665 185.747 866.68 185.615C866.993 182.829 867.148 180.028 867.144 177.224C867.144 175.66 867.099 174.066 867.009 172.486C866.995 172.237 867.08 171.993 867.245 171.806C867.411 171.62 867.644 171.508 867.892 171.493C868.471 171.429 868.859 171.862 868.885 172.378C868.979 173.995 869.024 175.626 869.024 177.224C869.024 180.166 868.864 183.061 868.548 185.827C868.523 186.057 868.413 186.268 868.241 186.422C868.069 186.576 867.847 186.662 867.616 186.662ZM636.929 184.643C636.708 184.642 636.494 184.564 636.325 184.421C636.156 184.278 636.043 184.08 636.006 183.862C635.969 183.644 636.01 183.419 636.121 183.229C636.233 183.038 636.409 182.892 636.617 182.818C640.893 181.309 645.371 180.446 649.902 180.258C650.369 180.22 650.857 180.641 650.88 181.16C650.89 181.409 650.8 181.652 650.631 181.835C650.463 182.018 650.228 182.127 649.979 182.138C645.635 182.317 641.341 183.143 637.241 184.591C637.141 184.626 637.035 184.644 636.929 184.643ZM1016.1 178.224C1015.94 178.224 1015.79 178.185 1015.65 178.111C1015.51 178.037 1015.4 177.929 1015.31 177.798C1015.23 177.668 1015.17 177.518 1015.16 177.362C1015.15 177.206 1015.17 177.05 1015.24 176.907C1017 172.886 1018.47 168.741 1019.63 164.505C1019.69 164.264 1019.85 164.059 1020.07 163.936C1020.28 163.812 1020.54 163.78 1020.78 163.846C1021.02 163.911 1021.23 164.07 1021.35 164.287C1021.47 164.503 1021.51 164.76 1021.44 165.001C1020.26 169.326 1018.76 173.558 1016.96 177.662C1016.89 177.83 1016.77 177.972 1016.61 178.072C1016.46 178.173 1016.28 178.224 1016.1 178.224ZM803.114 176.329C802.971 176.33 802.83 176.297 802.702 176.234C802.574 176.171 802.462 176.08 802.375 175.967C799.608 172.445 797.076 168.746 794.794 164.892C794.728 164.785 794.684 164.667 794.664 164.543C794.644 164.419 794.649 164.293 794.679 164.171C794.708 164.049 794.762 163.934 794.837 163.834C794.912 163.733 795.006 163.648 795.114 163.585C795.222 163.521 795.342 163.48 795.466 163.463C795.59 163.446 795.717 163.454 795.838 163.487C795.959 163.52 796.072 163.577 796.171 163.654C796.269 163.731 796.352 163.827 796.413 163.937C798.653 167.72 801.14 171.353 803.856 174.811C803.966 174.949 804.035 175.116 804.054 175.291C804.073 175.467 804.042 175.645 803.965 175.804C803.887 175.963 803.767 176.096 803.616 176.189C803.466 176.282 803.292 176.331 803.116 176.329H803.114ZM866.257 160.183C866.039 160.183 865.829 160.107 865.661 159.968C865.493 159.83 865.378 159.637 865.336 159.424C864.483 155.107 863.377 150.844 862.026 146.657C861.964 146.424 861.993 146.177 862.108 145.965C862.223 145.753 862.415 145.594 862.644 145.52C862.873 145.445 863.122 145.462 863.339 145.566C863.557 145.67 863.726 145.853 863.812 146.078C865.187 150.336 866.311 154.671 867.178 159.061C867.205 159.197 867.202 159.338 867.168 159.473C867.135 159.607 867.072 159.733 866.983 159.84C866.895 159.948 866.784 160.034 866.659 160.093C866.533 160.153 866.396 160.183 866.257 160.183ZM789.858 153.369C789.666 153.369 789.479 153.31 789.321 153.201C789.163 153.091 789.043 152.935 788.977 152.755C787.326 148.279 786.264 143.86 785.825 139.623C785.799 139.376 785.872 139.128 786.029 138.934C786.186 138.741 786.413 138.618 786.661 138.591C787.159 138.546 787.638 138.913 787.693 139.43C788.116 143.509 789.142 147.776 790.738 152.104C790.791 152.246 790.808 152.399 790.789 152.549C790.77 152.699 790.715 152.843 790.629 152.967C790.543 153.091 790.427 153.193 790.293 153.263C790.159 153.333 790.01 153.369 789.858 153.369ZM857.904 134.992C857.729 134.992 857.558 134.944 857.409 134.852C857.261 134.76 857.141 134.628 857.064 134.471C855.028 130.389 852.722 126.624 850.214 123.28C850.14 123.181 850.085 123.069 850.055 122.949C850.024 122.83 850.017 122.705 850.034 122.583C850.052 122.46 850.093 122.343 850.156 122.237C850.219 122.13 850.303 122.038 850.402 121.964C850.501 121.89 850.613 121.836 850.732 121.805C850.851 121.774 850.975 121.768 851.097 121.785C851.219 121.802 851.337 121.844 851.442 121.907C851.548 121.97 851.641 122.053 851.714 122.152C854.293 125.586 856.66 129.449 858.744 133.635C858.816 133.778 858.849 133.937 858.842 134.097C858.835 134.256 858.787 134.412 858.703 134.548C858.618 134.684 858.501 134.796 858.361 134.874C858.221 134.951 858.064 134.992 857.904 134.992ZM787.697 127.278C787.551 127.278 787.407 127.244 787.277 127.179C787.147 127.113 787.033 127.019 786.946 126.902C786.858 126.786 786.799 126.651 786.773 126.507C786.747 126.364 786.754 126.217 786.794 126.077C788.086 121.674 790.318 117.604 793.336 114.148C793.416 114.055 793.515 113.978 793.625 113.922C793.736 113.867 793.856 113.834 793.979 113.826C794.103 113.818 794.226 113.834 794.343 113.874C794.46 113.913 794.568 113.976 794.661 114.058C795.054 114.398 795.093 114.992 794.753 115.383C791.915 118.633 789.816 122.46 788.599 126.599C788.542 126.794 788.423 126.966 788.26 127.088C788.098 127.21 787.9 127.277 787.697 127.278ZM841.838 114.015C841.621 114.016 841.41 113.94 841.243 113.802C837.771 110.96 834.025 108.727 830.106 107.173C829.874 107.081 829.688 106.9 829.589 106.671C829.491 106.442 829.487 106.183 829.579 105.951C829.671 105.719 829.852 105.534 830.081 105.435C830.31 105.336 830.569 105.333 830.801 105.425C834.899 107.055 838.814 109.383 842.432 112.348C842.582 112.47 842.691 112.636 842.743 112.823C842.795 113.01 842.788 113.208 842.723 113.39C842.658 113.573 842.538 113.731 842.379 113.843C842.221 113.955 842.032 114.015 841.838 114.015ZM804.593 107.761C804.379 107.761 804.171 107.689 804.005 107.555C803.838 107.421 803.721 107.234 803.675 107.026C803.628 106.817 803.655 106.598 803.749 106.406C803.844 106.214 804.001 106.06 804.194 105.97C808.345 104.023 812.862 102.982 817.446 102.914C817.912 102.857 818.392 103.32 818.401 103.838C818.403 103.962 818.381 104.084 818.335 104.199C818.29 104.314 818.222 104.419 818.136 104.507C818.05 104.596 817.948 104.667 817.835 104.716C817.721 104.765 817.6 104.791 817.476 104.793C813.132 104.863 808.933 105.833 804.991 107.673C804.867 107.732 804.731 107.762 804.593 107.761ZM735.91 385.791C735.88 385.791 735.854 385.792 735.824 385.788C733.643 385.594 731.455 385.369 729.264 385.124C729.141 385.111 729.022 385.073 728.913 385.013C728.805 384.954 728.71 384.873 728.633 384.777C728.555 384.68 728.498 384.569 728.464 384.451C728.429 384.332 728.419 384.208 728.433 384.085C728.464 383.838 728.59 383.614 728.784 383.458C728.978 383.303 729.225 383.23 729.472 383.254C731.649 383.5 733.826 383.72 735.993 383.916C736.234 383.937 736.457 384.051 736.616 384.233C736.775 384.415 736.858 384.651 736.848 384.893C736.837 385.135 736.734 385.363 736.559 385.53C736.384 385.698 736.152 385.791 735.91 385.791Z" fill="#953BEE"/>
<path d="M1043.45 133.159C1043.47 133.239 1043.46 133.323 1043.42 133.397C1043.39 133.47 1043.33 133.529 1043.25 133.562L1026.84 140.71C1026.81 140.726 1026.78 140.735 1026.75 140.736C1026.69 140.743 1026.63 140.735 1026.58 140.713C1026.53 140.691 1026.48 140.656 1026.45 140.61C1026.4 140.553 1026.37 140.482 1026.37 140.408C1026.37 140.334 1026.39 140.261 1026.43 140.201L1039.86 121.808C1039.9 121.757 1039.95 121.718 1040.01 121.694C1040.07 121.671 1040.14 121.665 1040.2 121.677C1040.26 121.688 1040.32 121.717 1040.37 121.76C1040.42 121.803 1040.45 121.859 1040.47 121.921L1043.44 133.159H1043.45Z" fill="url(#paint4_linear_49_393)"/>
<path d="M1102.67 99.2183C1102.69 99.2826 1102.7 99.3528 1102.68 99.4199C1102.66 99.487 1102.63 99.5478 1102.58 99.5942L1047.49 149.172C1047.45 149.211 1047.4 149.237 1047.34 149.251C1047.28 149.264 1047.22 149.263 1047.17 149.247C1047.11 149.231 1047.06 149.201 1047.02 149.16C1046.98 149.118 1046.95 149.067 1046.94 149.011L1037.68 114.068L1023.74 102.235C1023.69 102.191 1023.65 102.132 1023.63 102.065C1023.62 101.999 1023.62 101.928 1023.64 101.863C1023.66 101.798 1023.71 101.742 1023.76 101.702C1023.82 101.662 1023.88 101.639 1023.95 101.637L1102.34 99.0003C1102.41 98.9975 1102.48 99.0171 1102.54 99.0562C1102.6 99.0953 1102.64 99.152 1102.67 99.2183Z" fill="url(#paint5_linear_49_393)"/>
<path d="M1083.56 104.177C1083.58 104.258 1083.58 104.346 1083.54 104.423C1083.51 104.501 1083.44 104.562 1083.37 104.594L1040.36 122.287L1026.99 140.601C1026.96 140.638 1026.92 140.669 1026.88 140.693C1026.84 140.716 1026.8 140.731 1026.75 140.736C1026.69 140.745 1026.63 140.737 1026.57 140.714C1026.52 140.691 1026.47 140.654 1026.43 140.606C1026.4 140.558 1026.38 140.501 1026.37 140.442C1026.36 140.382 1026.37 140.321 1026.39 140.266L1037.68 113.744C1037.7 113.694 1037.73 113.65 1037.77 113.615C1037.82 113.58 1037.86 113.554 1037.92 113.541L1083.16 103.947C1083.25 103.928 1083.33 103.941 1083.41 103.984C1083.48 104.026 1083.53 104.095 1083.56 104.177Z" fill="url(#paint6_linear_49_393)"/>
<path d="M1053.57 254.26V624.539C1053.57 640.681 1040.48 653.766 1024.34 653.766H523.351C507.21 653.766 494.126 640.681 494.126 624.539V254.26C494.126 238.12 507.21 225.034 523.352 225.034H1024.34C1040.48 225.034 1053.57 238.12 1053.57 254.262V254.26Z" fill="url(#paint7_linear_49_393)"/>
<path d="M666.474 225.034H523.353C507.21 225.034 494.124 238.12 494.124 254.262V624.539C494.124 640.681 507.21 653.766 523.353 653.766H666.474V225.034Z" fill="url(#paint8_linear_49_393)"/>
<path d="M637.749 575.224V595.205C637.749 596.251 637.543 597.286 637.143 598.253C636.743 599.219 636.156 600.097 635.416 600.836C634.677 601.576 633.799 602.163 632.833 602.563C631.866 602.963 630.831 603.169 629.785 603.169H530.815C529.769 603.169 528.734 602.963 527.767 602.563C526.801 602.163 525.923 601.576 525.184 600.836C524.444 600.097 523.857 599.219 523.457 598.253C523.057 597.286 522.851 596.251 522.851 595.205V575.224C522.851 573.112 523.69 571.086 525.184 569.593C526.677 568.099 528.703 567.26 530.815 567.26H629.785C631.897 567.26 633.923 568.099 635.416 569.593C636.91 571.086 637.749 573.112 637.749 575.224ZM637.749 506.451V526.432C637.749 527.478 637.544 528.514 637.143 529.48C636.743 530.447 636.157 531.325 635.417 532.064C634.678 532.804 633.8 533.391 632.833 533.791C631.867 534.192 630.831 534.398 629.785 534.398H530.815C528.703 534.398 526.677 533.559 525.184 532.065C523.69 530.572 522.851 528.546 522.851 526.434V506.453C522.851 504.341 523.69 502.315 525.184 500.821C526.677 499.328 528.703 498.489 530.815 498.489H629.785C631.897 498.489 633.923 499.328 635.416 500.821C636.91 502.315 637.749 504.339 637.749 506.451ZM637.749 437.682V457.662C637.749 459.775 636.91 461.8 635.416 463.294C633.923 464.788 631.897 465.627 629.785 465.627H530.815C528.703 465.627 526.677 464.788 525.184 463.294C523.69 461.8 522.851 459.775 522.851 457.662V437.682C522.851 435.569 523.69 433.544 525.184 432.05C526.677 430.557 528.703 429.717 530.815 429.717H629.785C631.897 429.717 633.923 430.557 635.416 432.05C636.91 433.544 637.749 435.569 637.749 437.682ZM577.049 399.335C576.985 399.334 576.921 399.331 576.857 399.325C573.677 398.999 570.54 398.339 567.497 397.357C567.262 397.281 567.045 397.16 566.857 397C566.669 396.84 566.515 396.644 566.402 396.424C566.29 396.205 566.222 395.965 566.203 395.719C566.183 395.473 566.212 395.226 566.288 394.991C566.364 394.756 566.486 394.539 566.646 394.351C566.806 394.163 567.001 394.009 567.221 393.896C567.441 393.784 567.681 393.716 567.926 393.697C568.172 393.677 568.42 393.706 568.655 393.782C571.437 394.681 574.324 395.286 577.239 395.585C577.713 395.64 578.148 395.874 578.456 396.239C578.764 396.603 578.922 397.071 578.898 397.548C578.874 398.024 578.67 398.474 578.327 398.806C577.984 399.137 577.526 399.327 577.049 399.335ZM586.214 399.323C585.735 399.32 585.274 399.134 584.927 398.803C584.581 398.471 584.374 398.02 584.349 397.541C584.324 397.062 584.484 396.591 584.794 396.226C585.105 395.86 585.544 395.628 586.021 395.575C588.934 395.269 591.821 394.654 594.601 393.748C595.076 393.594 595.592 393.634 596.036 393.86C596.481 394.086 596.817 394.479 596.972 394.953C597.126 395.427 597.086 395.943 596.86 396.388C596.634 396.832 596.241 397.169 595.767 397.323C592.733 398.31 589.587 398.981 586.414 399.312C586.347 399.319 586.281 399.323 586.214 399.323ZM559.692 393.729C559.363 393.729 559.04 393.643 558.754 393.478C555.987 391.88 553.394 389.999 551.016 387.865C550.832 387.7 550.683 387.501 550.576 387.278C550.469 387.055 550.407 386.814 550.394 386.567C550.381 386.321 550.416 386.074 550.498 385.841C550.58 385.608 550.707 385.394 550.872 385.21C551.037 385.026 551.236 384.877 551.459 384.77C551.682 384.663 551.923 384.601 552.17 384.588C552.416 384.575 552.663 384.61 552.896 384.692C553.129 384.774 553.343 384.901 553.527 385.066C555.711 387.026 558.093 388.754 560.634 390.222C560.993 390.429 561.273 390.749 561.431 391.131C561.589 391.513 561.617 391.937 561.51 392.337C561.402 392.737 561.166 393.09 560.837 393.342C560.509 393.594 560.106 393.73 559.692 393.729ZM603.558 393.675C603.144 393.677 602.741 393.541 602.411 393.29C602.082 393.039 601.845 392.685 601.737 392.285C601.63 391.885 601.657 391.461 601.816 391.078C601.975 390.695 602.255 390.376 602.614 390.169C605.152 388.699 607.529 386.968 609.706 385.004C610.077 384.67 610.565 384.497 611.063 384.523C611.561 384.548 612.028 384.771 612.362 385.141C612.696 385.512 612.87 386 612.844 386.498C612.818 386.996 612.596 387.463 612.225 387.797C609.852 389.936 607.263 391.822 604.498 393.423C604.212 393.589 603.888 393.676 603.558 393.675ZM546.121 381.542C545.825 381.542 545.533 381.473 545.269 381.339C545.005 381.205 544.777 381.01 544.602 380.771C542.717 378.191 541.108 375.421 539.8 372.506C539.699 372.281 539.643 372.038 539.636 371.792C539.629 371.545 539.67 371.299 539.758 371.069C539.845 370.838 539.978 370.627 540.147 370.447C540.316 370.268 540.519 370.123 540.744 370.022C540.97 369.921 541.212 369.865 541.459 369.858C541.706 369.851 541.951 369.892 542.182 369.98C542.413 370.068 542.624 370.2 542.803 370.369C542.983 370.539 543.127 370.742 543.228 370.967C544.43 373.642 545.908 376.185 547.638 378.553C547.843 378.833 547.966 379.165 547.994 379.511C548.022 379.856 547.954 380.203 547.797 380.513C547.64 380.822 547.4 381.082 547.104 381.264C546.808 381.445 546.468 381.542 546.121 381.542ZM617.103 381.467C616.756 381.467 616.416 381.371 616.12 381.19C615.824 381.008 615.584 380.748 615.427 380.439C615.27 380.13 615.202 379.783 615.23 379.437C615.258 379.091 615.381 378.76 615.586 378.48C617.314 376.109 618.788 373.564 619.984 370.886C620.085 370.661 620.229 370.457 620.408 370.287C620.587 370.118 620.798 369.985 621.028 369.897C621.258 369.808 621.504 369.766 621.751 369.773C621.997 369.779 622.24 369.834 622.466 369.935C622.691 370.035 622.894 370.179 623.064 370.358C623.234 370.537 623.367 370.748 623.455 370.978C623.543 371.209 623.585 371.454 623.579 371.701C623.572 371.948 623.517 372.191 623.417 372.416C622.114 375.336 620.507 378.11 618.624 380.694C618.449 380.934 618.22 381.129 617.956 381.263C617.692 381.397 617.399 381.467 617.103 381.467ZM538.665 364.901C538.235 364.901 537.818 364.753 537.484 364.482C537.15 364.212 536.92 363.835 536.83 363.414C536.164 360.289 535.826 357.103 535.823 353.907C535.822 353.66 535.871 353.416 535.965 353.187C536.059 352.959 536.197 352.752 536.372 352.577C536.546 352.403 536.753 352.264 536.981 352.169C537.209 352.075 537.453 352.026 537.7 352.025C537.947 352.025 538.192 352.074 538.42 352.168C538.648 352.262 538.855 352.4 539.03 352.575C539.205 352.749 539.343 352.956 539.438 353.184C539.533 353.412 539.582 353.656 539.582 353.903C539.585 356.836 539.894 359.76 540.505 362.629C540.564 362.903 540.561 363.186 540.496 363.459C540.43 363.732 540.305 363.986 540.129 364.204C539.953 364.422 539.73 364.598 539.477 364.718C539.224 364.839 538.947 364.902 538.666 364.901H538.665ZM624.537 364.811C624.257 364.811 623.98 364.749 623.727 364.629C623.474 364.509 623.251 364.333 623.075 364.116C622.898 363.899 622.772 363.644 622.707 363.372C622.641 363.1 622.637 362.816 622.695 362.542C623.3 359.687 623.607 356.751 623.607 353.813C623.607 352.775 624.447 351.845 625.486 351.845C626.526 351.845 627.366 352.595 627.366 353.634V353.813C627.366 357.014 627.031 360.211 626.375 363.32C626.286 363.742 626.055 364.12 625.72 364.391C625.386 364.663 624.968 364.811 624.537 364.811ZM538.633 346.665C538.353 346.665 538.077 346.603 537.824 346.483C537.571 346.363 537.349 346.188 537.172 345.971C536.996 345.754 536.87 345.5 536.804 345.228C536.738 344.957 536.733 344.673 536.791 344.4C537.446 341.269 538.429 338.217 539.725 335.293C539.821 335.061 539.962 334.851 540.14 334.675C540.319 334.499 540.531 334.36 540.763 334.267C540.996 334.174 541.245 334.129 541.496 334.133C541.746 334.138 541.993 334.193 542.223 334.294C542.452 334.396 542.658 334.542 542.83 334.725C543.002 334.907 543.135 335.122 543.223 335.357C543.31 335.592 543.35 335.842 543.339 336.092C543.328 336.343 543.268 336.589 543.161 336.815C541.974 339.498 541.072 342.299 540.469 345.17C540.381 345.592 540.15 345.971 539.816 346.243C539.481 346.515 539.064 346.664 538.633 346.665ZM624.499 346.4C624.07 346.399 623.654 346.252 623.32 345.983C622.986 345.714 622.754 345.338 622.663 344.918C622.041 342.052 621.12 339.258 619.915 336.584C619.813 336.359 619.757 336.116 619.749 335.87C619.742 335.623 619.783 335.378 619.87 335.147C619.957 334.916 620.089 334.705 620.258 334.525C620.427 334.345 620.63 334.2 620.855 334.099C621.079 333.996 621.322 333.939 621.569 333.931C621.816 333.923 622.062 333.964 622.293 334.051C622.524 334.139 622.736 334.271 622.915 334.44C623.095 334.61 623.239 334.813 623.34 335.039C624.654 337.953 625.659 340.997 626.338 344.121C626.397 344.396 626.395 344.68 626.33 344.953C626.265 345.227 626.14 345.482 625.964 345.7C625.787 345.919 625.564 346.095 625.311 346.216C625.057 346.337 624.78 346.4 624.499 346.4ZM546.016 329.99C545.67 329.99 545.33 329.894 545.035 329.713C544.739 329.532 544.5 329.273 544.342 328.964C544.185 328.656 544.116 328.309 544.143 327.964C544.17 327.619 544.292 327.288 544.495 327.007C546.37 324.42 548.51 322.035 550.879 319.891C551.061 319.725 551.275 319.596 551.507 319.513C551.74 319.43 551.986 319.393 552.233 319.406C552.48 319.418 552.721 319.479 552.944 319.584C553.167 319.69 553.367 319.839 553.533 320.022C553.699 320.205 553.827 320.419 553.91 320.651C553.993 320.884 554.029 321.13 554.017 321.377C554.005 321.623 553.944 321.865 553.839 322.088C553.733 322.311 553.584 322.511 553.401 322.676C551.226 324.646 549.261 326.837 547.538 329.212C547.364 329.453 547.135 329.649 546.871 329.784C546.606 329.919 546.313 329.99 546.016 329.99ZM617.001 329.776C616.424 329.776 615.853 329.511 615.484 329.009C613.748 326.644 611.771 324.466 609.584 322.511C609.4 322.347 609.251 322.148 609.144 321.925C609.037 321.703 608.975 321.462 608.961 321.216C608.947 320.969 608.982 320.723 609.063 320.49C609.145 320.257 609.271 320.043 609.436 319.859C609.6 319.675 609.799 319.525 610.021 319.418C610.244 319.311 610.485 319.249 610.731 319.235C610.977 319.221 611.224 319.256 611.457 319.338C611.69 319.419 611.904 319.546 612.088 319.71C614.471 321.838 616.625 324.209 618.516 326.783C618.721 327.064 618.845 327.395 618.873 327.741C618.901 328.087 618.833 328.434 618.676 328.744C618.52 329.054 618.28 329.314 617.985 329.496C617.689 329.678 617.349 329.775 617.001 329.776ZM559.54 317.75C559.125 317.753 558.721 317.619 558.391 317.368C558.06 317.117 557.822 316.764 557.714 316.364C557.606 315.963 557.633 315.538 557.792 315.155C557.951 314.772 558.233 314.452 558.593 314.246C561.356 312.638 564.28 311.325 567.318 310.329C567.788 310.186 568.296 310.233 568.732 310.459C569.168 310.686 569.498 311.075 569.651 311.542C569.804 312.009 569.768 312.517 569.551 312.958C569.334 313.399 568.953 313.737 568.489 313.9C565.701 314.814 563.018 316.019 560.482 317.494C560.196 317.661 559.871 317.749 559.54 317.75ZM603.398 317.624C603.071 317.624 602.75 317.539 602.466 317.376C599.92 315.917 597.229 314.728 594.436 313.829C594.199 313.755 593.98 313.635 593.789 313.475C593.599 313.316 593.443 313.12 593.329 312.9C593.214 312.68 593.145 312.439 593.124 312.192C593.104 311.945 593.132 311.696 593.208 311.46C593.284 311.224 593.406 311.005 593.567 310.816C593.727 310.627 593.924 310.472 594.145 310.36C594.366 310.247 594.608 310.179 594.855 310.161C595.102 310.142 595.351 310.172 595.586 310.25C598.629 311.229 601.561 312.524 604.334 314.115C604.696 314.319 604.98 314.638 605.141 315.021C605.302 315.404 605.332 315.83 605.225 316.232C605.117 316.633 604.88 316.988 604.549 317.24C604.219 317.492 603.814 317.627 603.398 317.624ZM576.865 312.071C576.385 312.07 575.923 311.884 575.576 311.553C575.228 311.222 575.02 310.771 574.994 310.291C574.969 309.812 575.128 309.341 575.439 308.975C575.749 308.609 576.188 308.376 576.666 308.323C579.842 307.989 583.044 307.98 586.222 308.297C586.718 308.347 587.174 308.592 587.489 308.978C587.805 309.364 587.954 309.859 587.904 310.355C587.854 310.851 587.61 311.307 587.224 311.623C586.838 311.938 586.342 312.087 585.846 312.037C582.927 311.743 579.985 311.751 577.068 312.06C577.001 312.067 576.933 312.071 576.865 312.071Z" fill="white"/>
<path d="M1053.57 254.255V299.105H646.412C645.485 299.105 644.57 298.901 643.731 298.507C642.892 298.113 642.151 297.539 641.559 296.825L624.548 276.318C623.957 275.604 623.215 275.03 622.376 274.635C621.537 274.241 620.622 274.036 619.695 274.036H561.079C560.251 274.036 559.431 274.199 558.666 274.516C557.901 274.833 557.206 275.298 556.621 275.883C556.035 276.469 555.571 277.164 555.254 277.929C554.938 278.694 554.775 279.514 554.775 280.342V292.801C554.775 294.473 554.111 296.076 552.928 297.259C551.746 298.441 550.143 299.105 548.471 299.105H494.118V254.257C494.118 238.114 507.203 225.028 523.345 225.028H1024.34C1040.49 225.028 1053.57 238.114 1053.57 254.257L1053.57 254.255Z" fill="url(#paint9_linear_49_393)"/>
<path d="M1022.53 264.144C1022.53 265.974 1022.17 267.786 1021.47 269.477C1020.77 271.167 1019.74 272.704 1018.44 273.998C1017.15 275.292 1015.61 276.318 1013.92 277.019C1012.23 277.719 1010.42 278.08 1008.59 278.08H739.753C736.057 278.08 732.513 276.611 729.899 273.998C727.286 271.385 725.818 267.84 725.818 264.145C725.818 260.449 727.286 256.904 729.899 254.291C732.513 251.678 736.057 250.21 739.753 250.21H1008.59C1010.42 250.21 1012.23 250.57 1013.92 251.271C1015.61 251.971 1017.15 252.998 1018.44 254.292C1019.74 255.586 1020.77 257.122 1021.47 258.813C1022.17 260.503 1022.53 262.316 1022.53 264.146V264.144Z" fill="url(#paint10_linear_49_393)"/>
<path d="M1008.59 250.21H994.962V278.08H1008.59C1012.26 278.037 1015.76 276.55 1018.34 273.941C1020.92 271.333 1022.36 267.813 1022.36 264.145C1022.36 260.477 1020.92 256.957 1018.34 254.348C1015.76 251.739 1012.26 250.252 1008.59 250.21H1008.59Z" fill="url(#paint11_linear_49_393)"/>
<path d="M1006.54 268.437C1005.16 268.437 1003.78 267.91 1002.73 266.858C1000.62 264.754 1000.62 261.332 1002.73 259.226C1004.83 257.121 1008.26 257.121 1010.36 259.226C1012.46 261.332 1012.46 264.753 1010.36 266.858C1009.31 267.91 1007.93 268.437 1006.54 268.437ZM1006.54 259.527C1005.64 259.527 1004.74 259.869 1004.06 260.555C1003.56 261.047 1003.23 261.674 1003.09 262.357C1002.96 263.04 1003.03 263.747 1003.29 264.39C1003.56 265.034 1004.01 265.583 1004.59 265.97C1005.17 266.357 1005.85 266.563 1006.54 266.563C1007.24 266.563 1007.92 266.357 1008.5 265.97C1009.08 265.583 1009.53 265.034 1009.8 264.39C1010.06 263.747 1010.13 263.04 1009.99 262.357C1009.86 261.674 1009.52 261.047 1009.03 260.555C1008.7 260.228 1008.32 259.969 1007.89 259.793C1007.46 259.616 1007.01 259.526 1006.54 259.527Z" fill="white"/>
<path d="M1013.2 270.636C1013.08 270.636 1012.95 270.612 1012.84 270.565C1012.73 270.518 1012.62 270.449 1012.53 270.362L1009.03 266.86C1008.94 266.773 1008.87 266.669 1008.82 266.555C1008.77 266.44 1008.75 266.317 1008.75 266.192C1008.74 266.067 1008.77 265.943 1008.82 265.828C1008.86 265.712 1008.93 265.607 1009.02 265.519C1009.11 265.431 1009.21 265.361 1009.33 265.314C1009.44 265.267 1009.57 265.243 1009.69 265.244C1009.82 265.245 1009.94 265.271 1010.06 265.32C1010.17 265.369 1010.27 265.441 1010.36 265.531L1013.86 269.033C1013.99 269.164 1014.08 269.331 1014.12 269.513C1014.16 269.695 1014.14 269.884 1014.07 270.056C1014 270.227 1013.87 270.374 1013.72 270.477C1013.57 270.58 1013.39 270.636 1013.2 270.636Z" fill="white"/>
<path d="M1144.07 350.721C1143.82 350.721 1143.59 350.622 1143.41 350.446C1143.23 350.269 1143.13 350.03 1143.13 349.781V334.362C1143.13 325.507 1135.93 318.302 1127.07 318.302H1108.95C1108.7 318.302 1108.46 318.203 1108.28 318.027C1108.11 317.851 1108.01 317.612 1108.01 317.362C1108.01 317.113 1108.11 316.874 1108.28 316.698C1108.46 316.522 1108.7 316.423 1108.95 316.423H1127.07C1136.96 316.423 1145.01 324.47 1145.01 334.362V349.781C1145.01 350.03 1144.91 350.269 1144.74 350.446C1144.56 350.622 1144.32 350.721 1144.07 350.721Z" fill="url(#paint12_linear_49_393)"/>
<path d="M1127.07 433.849H1108.95C1108.7 433.849 1108.46 433.75 1108.28 433.574C1108.11 433.397 1108.01 433.158 1108.01 432.909C1108.01 432.66 1108.11 432.421 1108.28 432.244C1108.46 432.068 1108.7 431.969 1108.95 431.969H1127.07C1135.93 431.969 1143.13 424.764 1143.13 415.909V400.49C1143.13 400.241 1143.23 400.002 1143.41 399.826C1143.59 399.65 1143.82 399.551 1144.07 399.551C1144.32 399.551 1144.56 399.65 1144.74 399.826C1144.91 400.002 1145.01 400.241 1145.01 400.49V415.909C1145.01 425.802 1136.96 433.849 1127.07 433.849Z" fill="url(#paint13_linear_49_393)"/>
<path d="M954.359 433.849H936.232C926.341 433.849 918.292 425.804 918.292 415.909V400.49C918.292 400.241 918.391 400.002 918.568 399.826C918.744 399.65 918.983 399.551 919.232 399.551C919.481 399.551 919.72 399.65 919.897 399.826C920.073 400.002 920.172 400.241 920.172 400.49V415.909C920.172 424.764 927.377 431.969 936.232 431.969H954.359C954.608 431.969 954.848 432.068 955.024 432.244C955.2 432.421 955.299 432.66 955.299 432.909C955.299 433.158 955.2 433.397 955.024 433.574C954.848 433.75 954.608 433.849 954.359 433.849Z" fill="url(#paint14_linear_49_393)"/>
<path d="M919.232 350.721C918.983 350.721 918.744 350.622 918.568 350.446C918.391 350.269 918.292 350.03 918.292 349.781V334.362C918.292 324.47 926.341 316.423 936.232 316.423H954.359C954.608 316.423 954.848 316.522 955.024 316.698C955.2 316.874 955.299 317.113 955.299 317.362C955.299 317.612 955.2 317.851 955.024 318.027C954.848 318.203 954.608 318.302 954.359 318.302H936.232C927.379 318.302 920.172 325.507 920.172 334.362V349.781C920.172 350.03 920.073 350.269 919.897 350.446C919.72 350.622 919.481 350.721 919.232 350.721Z" fill="url(#paint15_linear_49_393)"/>
<path d="M1134.13 334.362V415.908C1134.13 417.78 1133.39 419.576 1132.06 420.9C1130.74 422.224 1128.94 422.968 1127.07 422.968H936.234C934.361 422.968 932.566 422.224 931.242 420.9C929.918 419.576 929.174 417.78 929.174 415.908V334.36C929.174 332.488 929.918 330.692 931.242 329.368C932.566 328.044 934.361 327.3 936.234 327.3H1127.07C1128.94 327.3 1130.74 328.044 1132.06 329.368C1133.39 330.692 1134.13 332.488 1134.13 334.36V334.362Z" fill="url(#paint16_linear_49_393)"/>
<path d="M1084.52 355.864V366.429C1084.52 366.721 1084.46 367.009 1084.35 367.279C1084.24 367.548 1084.07 367.793 1083.87 367.999C1083.66 368.205 1083.42 368.368 1083.15 368.48C1082.88 368.592 1082.59 368.649 1082.3 368.649H1035.65C1035.07 368.649 1034.5 368.415 1034.09 367.999C1033.67 367.583 1033.44 367.019 1033.44 366.431V355.864C1033.44 354.638 1034.43 353.646 1035.65 353.646H1082.3C1083.52 353.646 1084.51 354.638 1084.51 355.864H1084.52ZM1094.15 395.662V396.376C1094.15 396.964 1093.91 397.528 1093.5 397.944C1093.08 398.36 1092.52 398.594 1091.93 398.594H1035.65C1035.07 398.594 1034.5 398.36 1034.09 397.944C1033.67 397.528 1033.44 396.964 1033.44 396.376V395.662C1033.44 394.436 1034.43 393.444 1035.65 393.444H1091.93C1093.15 393.444 1094.15 394.436 1094.15 395.662ZM1115.54 383.566V384.28C1115.54 384.572 1115.48 384.86 1115.37 385.13C1115.26 385.399 1115.1 385.644 1114.89 385.85C1114.68 386.056 1114.44 386.22 1114.17 386.331C1113.9 386.443 1113.61 386.5 1113.32 386.5H1035.65C1035.07 386.5 1034.5 386.267 1034.09 385.851C1033.67 385.435 1033.44 384.87 1033.44 384.282V383.568C1033.44 382.341 1034.43 381.348 1035.65 381.348H1113.32C1114.55 381.348 1115.54 382.34 1115.54 383.566Z" fill="white"/>
<path d="M1017.39 374.901V375.136C1017.39 375.489 1017.39 375.811 1017.38 376.147C1017.16 385.073 1013.51 393.571 1007.18 399.869L997.58 390.254C1001.32 386.568 1003.68 381.45 1003.84 375.743V375.136C1003.84 363.621 994.633 354.195 983.186 353.875C982.985 353.856 982.784 353.856 982.583 353.856C976.69 353.856 971.337 356.264 967.481 360.153C963.526 364.137 961.305 369.522 961.303 375.136C961.303 386.871 970.848 396.399 982.581 396.399V409.951H982.564C963.357 409.951 947.768 394.346 947.768 375.136C947.768 365.574 951.64 356.888 957.901 350.591C964.216 344.244 972.934 340.306 982.564 340.306H982.583C982.784 340.306 982.985 340.306 983.188 340.323C1002.03 340.659 1017.28 356.012 1017.4 374.901H1017.39Z" fill="white"/>
<path d="M1007.18 399.863C1000.9 406.115 992.213 409.957 982.573 409.957V396.404C988.45 396.404 993.747 394.068 997.578 390.252L1007.18 399.863Z" fill="url(#paint17_linear_49_393)"/>
<path d="M561.784 366.892C561.784 391.12 542.1 410.763 517.871 410.763C493.642 410.763 474 391.12 474 366.892C474 342.663 493.642 323.02 517.871 323.02C542.1 323.02 561.784 342.663 561.784 366.892Z" fill="url(#paint18_linear_49_393)"/>
<path d="M550.958 366.886C550.958 374.653 548.287 381.805 543.766 387.478C537.682 395.081 528.353 399.974 517.872 399.974C507.391 399.974 498.06 395.081 491.978 387.478C487.338 381.618 484.817 374.36 484.826 366.886C484.826 348.634 499.622 333.84 517.87 333.84C536.121 333.84 550.958 348.636 550.958 366.884V366.886Z" fill="url(#paint19_linear_49_393)"/>
<path d="M517.871 399.974C532.172 399.974 543.766 394.379 543.766 387.478C543.766 380.576 532.172 374.982 517.871 374.982C503.57 374.982 491.977 380.576 491.977 387.478C491.977 394.379 503.57 399.974 517.871 399.974Z" fill="white"/>
<path d="M530.325 365.632C530.325 372.497 524.776 378.087 517.911 378.087C516.276 378.088 514.656 377.766 513.144 377.141C511.633 376.515 510.26 375.598 509.103 374.441C507.947 373.284 507.029 371.911 506.404 370.399C505.779 368.888 505.457 367.268 505.459 365.632C505.458 363.996 505.779 362.377 506.405 360.865C507.03 359.354 507.947 357.981 509.104 356.824C510.26 355.668 511.633 354.751 513.145 354.125C514.656 353.5 516.276 353.178 517.911 353.179C524.776 353.179 530.325 358.768 530.325 365.632Z" fill="white"/>
<path d="M1017.39 457.091V611.977C1017.39 613.168 1017.16 614.348 1016.7 615.448C1016.25 616.549 1015.58 617.549 1014.74 618.392C1013.9 619.234 1012.9 619.903 1011.8 620.359C1010.69 620.815 1009.52 621.05 1008.32 621.05H715.839C714.648 621.05 713.468 620.815 712.367 620.359C711.267 619.903 710.266 619.235 709.424 618.392C708.582 617.55 707.914 616.55 707.458 615.449C707.002 614.348 706.768 613.168 706.768 611.977V457.093C706.768 454.687 707.724 452.38 709.425 450.678C711.126 448.977 713.433 448.021 715.839 448.021H1008.32C1010.73 448.021 1013.04 448.977 1014.74 450.678C1016.44 452.38 1017.4 454.687 1017.4 457.093L1017.39 457.091Z" fill="white"/>
<path d="M879.107 469.764V552.813C879.107 554.755 878.336 556.618 876.962 557.991C875.589 559.364 873.726 560.136 871.784 560.136H727.569C725.627 560.135 723.765 559.364 722.392 557.99C721.019 556.617 720.248 554.755 720.248 552.813V469.764C720.248 467.822 721.02 465.96 722.393 464.587C723.765 463.214 725.627 462.443 727.569 462.442H871.782C873.724 462.443 875.586 463.214 876.959 464.587C878.332 465.96 879.103 467.822 879.104 469.764H879.107Z" fill="url(#paint20_linear_49_393)" fill-opacity="0.48"/>
<path d="M1003.92 470.564V474.873C1003.92 475.08 1003.87 475.285 1003.8 475.476C1003.72 475.667 1003.6 475.841 1003.45 475.987C1003.31 476.133 1003.13 476.249 1002.94 476.328C1002.75 476.407 1002.54 476.448 1002.34 476.448H897.091C896.674 476.447 896.273 476.281 895.978 475.986C895.683 475.69 895.517 475.29 895.516 474.873V470.564C895.516 469.692 896.221 468.987 897.091 468.987H1002.34C1003.21 468.987 1003.91 469.692 1003.91 470.564H1003.92Z" fill="url(#paint21_linear_49_393)" fill-opacity="0.48"/>
<path d="M1003.92 487.357V491.666C1003.92 491.873 1003.88 492.078 1003.8 492.269C1003.72 492.461 1003.6 492.635 1003.45 492.781C1003.31 492.928 1003.13 493.044 1002.94 493.123C1002.75 493.202 1002.54 493.243 1002.34 493.243H897.091C896.673 493.242 896.273 493.076 895.977 492.78C895.682 492.484 895.516 492.083 895.516 491.666V487.357C895.516 486.487 896.221 485.782 897.091 485.782H1002.34C1003.21 485.782 1003.91 486.487 1003.91 487.357H1003.92Z" fill="url(#paint22_linear_49_393)"/>
<path d="M949.716 504.152V508.46C949.716 508.668 949.675 508.873 949.596 509.064C949.517 509.256 949.4 509.43 949.254 509.576C949.107 509.723 948.933 509.839 948.741 509.918C948.55 509.997 948.344 510.038 948.137 510.037H897.091C896.884 510.037 896.679 509.996 896.488 509.917C896.297 509.837 896.123 509.721 895.977 509.574C895.83 509.427 895.714 509.253 895.635 509.062C895.556 508.871 895.516 508.665 895.516 508.458V504.152C895.516 503.282 896.221 502.575 897.091 502.575H948.139C949.009 502.575 949.716 503.282 949.716 504.152Z" fill="url(#paint23_linear_49_393)"/>
<path d="M1003.92 520.945V525.253C1003.92 525.46 1003.88 525.666 1003.8 525.858C1003.72 526.049 1003.6 526.223 1003.45 526.37C1003.31 526.517 1003.13 526.633 1002.94 526.712C1002.75 526.792 1002.54 526.832 1002.34 526.832H897.091C896.884 526.832 896.679 526.791 896.488 526.711C896.297 526.632 896.123 526.515 895.977 526.369C895.83 526.222 895.714 526.048 895.635 525.857C895.556 525.665 895.516 525.46 895.516 525.253V520.945C895.516 520.075 896.221 519.37 897.091 519.37H1002.34C1003.21 519.37 1003.91 520.075 1003.91 520.945H1003.92Z" fill="url(#paint24_linear_49_393)"/>
<path d="M955.21 536.163H897.091C896.673 536.163 896.273 536.33 895.977 536.625C895.682 536.921 895.516 537.322 895.516 537.74V542.048C895.516 542.918 896.221 543.625 897.091 543.625H955.21C955.628 543.625 956.029 543.458 956.324 543.162C956.62 542.867 956.786 542.466 956.786 542.048V537.74C956.786 537.322 956.62 536.921 956.324 536.625C956.029 536.33 955.628 536.163 955.21 536.163Z" fill="url(#paint25_linear_49_393)"/>
<path d="M976.944 537.74V542.048C976.944 542.918 977.65 543.625 978.523 543.625H993.977C994.395 543.625 994.797 543.459 995.092 543.163C995.388 542.867 995.554 542.466 995.554 542.048V537.74C995.554 537.533 995.513 537.327 995.434 537.136C995.355 536.944 995.238 536.771 995.092 536.624C994.945 536.478 994.771 536.361 994.579 536.282C994.388 536.203 994.182 536.163 993.975 536.163H978.521C978.102 536.163 977.701 536.329 977.405 536.625C977.11 536.92 976.944 537.322 976.944 537.74Z" fill="url(#paint26_linear_49_393)"/>
<path d="M887.691 575.925V603.293C887.691 605.037 886.278 606.451 884.534 606.451H846.344C845.507 606.451 844.703 606.118 844.111 605.526C843.518 604.934 843.185 604.13 843.185 603.293V575.925C843.185 574.181 844.598 572.765 846.343 572.765H884.532C886.278 572.765 887.691 574.181 887.691 575.925Z" fill="url(#paint27_linear_49_393)"/>
<path d="M870.468 590.804L862.163 596.932C861.943 597.095 861.682 597.193 861.409 597.216C861.137 597.239 860.863 597.185 860.619 597.062C860.375 596.939 860.169 596.75 860.026 596.517C859.882 596.284 859.806 596.016 859.806 595.742V583.474C859.806 583.2 859.882 582.931 860.026 582.698C860.169 582.465 860.375 582.276 860.619 582.153C860.864 582.029 861.138 581.976 861.411 581.999C861.684 582.023 861.945 582.121 862.165 582.284L870.469 588.425C870.656 588.562 870.807 588.742 870.911 588.948C871.015 589.155 871.07 589.383 871.07 589.615C871.07 589.846 871.015 590.074 870.911 590.281C870.807 590.488 870.656 590.667 870.469 590.804H870.468Z" fill="white"/>
<path d="M944.87 575.925V603.293C944.87 605.037 943.455 606.451 941.709 606.451H903.524C902.686 606.451 901.883 606.118 901.29 605.526C900.698 604.934 900.364 604.13 900.364 603.293V575.925C900.364 574.181 901.777 572.765 903.522 572.765H941.711C943.457 572.765 944.872 574.181 944.872 575.925H944.87Z" fill="url(#paint28_linear_49_393)"/>
<path d="M927.647 590.804L919.341 596.932C919.12 597.095 918.859 597.193 918.587 597.216C918.314 597.239 918.04 597.185 917.796 597.062C917.552 596.939 917.347 596.75 917.203 596.517C917.06 596.284 916.984 596.016 916.983 595.742V583.474C916.983 583.2 917.059 582.931 917.203 582.698C917.347 582.465 917.552 582.276 917.797 582.153C918.041 582.029 918.315 581.976 918.588 581.999C918.861 582.023 919.122 582.121 919.342 582.284L927.647 588.425C927.833 588.562 927.984 588.742 928.089 588.948C928.193 589.155 928.247 589.383 928.247 589.615C928.247 589.846 928.193 590.074 928.089 590.281C927.984 590.488 927.833 590.667 927.647 590.804Z" fill="white"/>
<path d="M1002.05 575.925V603.293C1002.05 605.037 1000.63 606.451 998.888 606.451H960.699C959.861 606.451 959.058 606.118 958.466 605.526C957.873 604.934 957.54 604.13 957.539 603.293V575.925C957.539 574.181 958.955 572.765 960.699 572.765H998.888C1000.63 572.765 1002.05 574.181 1002.05 575.925Z" fill="url(#paint29_linear_49_393)"/>
<path d="M984.825 590.804L976.519 596.932C976.299 597.095 976.038 597.193 975.765 597.216C975.492 597.239 975.219 597.185 974.974 597.062C974.73 596.939 974.525 596.75 974.381 596.517C974.238 596.284 974.162 596.016 974.162 595.742V583.474C974.162 583.2 974.238 582.931 974.381 582.698C974.525 582.465 974.73 582.276 974.975 582.153C975.219 582.029 975.493 581.976 975.766 581.999C976.039 582.023 976.3 582.121 976.521 582.284L984.825 588.425C985.011 588.562 985.163 588.742 985.267 588.948C985.371 589.155 985.425 589.383 985.425 589.615C985.425 589.846 985.371 590.074 985.267 590.281C985.163 590.488 985.011 590.667 984.825 590.804Z" fill="white"/>
<path d="M818.356 576.927C818.356 578.03 817.918 579.088 817.138 579.869C816.357 580.649 815.299 581.088 814.196 581.088H724.405C723.301 581.088 722.242 580.65 721.462 579.869C720.681 579.089 720.243 578.03 720.243 576.927C720.243 575.823 720.681 574.765 721.462 573.984C722.242 573.204 723.301 572.765 724.405 572.765H814.196C816.495 572.765 818.356 574.628 818.356 576.927Z" fill="url(#paint30_linear_49_393)"/>
<path d="M793.061 594.789C793.061 595.336 792.954 595.878 792.745 596.383C792.536 596.888 792.229 597.347 791.842 597.734C791.456 598.121 790.997 598.427 790.491 598.637C789.986 598.846 789.445 598.953 788.898 598.953H724.407C723.303 598.953 722.244 598.514 721.464 597.734C720.683 596.954 720.245 595.895 720.245 594.791C720.245 593.688 720.683 592.629 721.464 591.849C722.244 591.068 723.303 590.63 724.407 590.63H788.898C791.197 590.63 793.061 592.491 793.061 594.789Z" fill="url(#paint31_linear_49_393)"/>
<path d="M827.258 497.861C827.258 511.855 815.91 523.221 801.897 523.221C787.903 523.221 776.556 511.855 776.556 497.861C776.556 483.867 787.903 472.517 801.897 472.517C815.91 472.517 827.258 483.867 827.258 497.861Z" fill="white"/>
<path d="M811.581 500.069L800.74 508.827C798.89 510.319 796.136 509.003 796.136 506.628V489.113C796.136 486.737 798.89 485.421 800.74 486.914L811.581 495.671C811.91 495.936 812.174 496.271 812.356 496.652C812.538 497.032 812.632 497.448 812.632 497.87C812.632 498.292 812.538 498.708 812.356 499.089C812.174 499.469 811.91 499.804 811.581 500.069Z" fill="url(#paint32_linear_49_393)"/>
<path d="M746.03 543.646L737.521 550.518C736.07 551.691 733.908 550.657 733.908 548.792V535.048C733.908 533.183 736.07 532.151 737.521 533.323L746.03 540.195C746.288 540.402 746.495 540.665 746.638 540.964C746.781 541.262 746.855 541.589 746.855 541.92C746.855 542.251 746.781 542.578 746.638 542.876C746.495 543.175 746.288 543.438 746.03 543.646ZM868.684 541.92C868.684 542.71 868.045 543.347 867.257 543.347H762.473C762.104 543.333 761.755 543.177 761.498 542.911C761.242 542.645 761.099 542.29 761.099 541.921C761.099 541.552 761.242 541.197 761.498 540.931C761.755 540.665 762.104 540.509 762.473 540.495H867.259C868.048 540.495 868.686 541.134 868.686 541.92H868.684Z" fill="white"/>
<path d="M783.91 539.777V544.063C783.918 544.368 783.866 544.671 783.755 544.955C783.645 545.239 783.478 545.498 783.266 545.717C783.053 545.936 782.799 546.11 782.518 546.228C782.237 546.347 781.936 546.408 781.631 546.408C781.326 546.408 781.024 546.347 780.743 546.228C780.462 546.11 780.208 545.936 779.995 545.717C779.783 545.498 779.616 545.239 779.506 544.955C779.395 544.671 779.343 544.368 779.352 544.063V539.777C779.343 539.472 779.395 539.169 779.506 538.885C779.616 538.601 779.783 538.341 779.995 538.123C780.208 537.904 780.462 537.73 780.743 537.612C781.024 537.493 781.326 537.432 781.631 537.432C781.936 537.432 782.237 537.493 782.518 537.612C782.799 537.73 783.053 537.904 783.266 538.123C783.478 538.341 783.645 538.601 783.755 538.885C783.866 539.169 783.918 539.472 783.91 539.777Z" fill="url(#paint33_linear_49_393)"/>
<path d="M730.382 365.85V410.558C730.382 412.532 728.781 414.133 726.805 414.133H711.114C710.166 414.133 709.256 413.757 708.585 413.086C707.915 412.416 707.537 411.506 707.537 410.558V365.85C707.537 363.877 709.138 362.273 711.114 362.273H726.805C728.781 362.273 730.382 363.875 730.382 365.85ZM768.344 341.341V410.558C768.344 412.532 766.743 414.133 764.769 414.133H749.074C748.126 414.133 747.217 413.756 746.546 413.085C745.876 412.415 745.499 411.506 745.499 410.558V341.339C745.499 339.366 747.1 337.764 749.076 337.764H764.769C766.743 337.764 768.344 339.368 768.344 341.341ZM806.308 376.895V410.558C806.308 412.532 804.706 414.133 802.731 414.133H787.037C786.568 414.133 786.103 414.041 785.669 413.862C785.235 413.682 784.84 413.419 784.508 413.087C784.176 412.755 783.912 412.36 783.733 411.927C783.553 411.493 783.46 411.028 783.46 410.558V376.895C783.46 374.921 785.062 373.318 787.037 373.318H802.731C804.704 373.318 806.306 374.92 806.306 376.895H806.308ZM844.269 349.039V410.558C844.269 412.532 842.668 414.133 840.692 414.133H824.999C824.051 414.133 823.141 413.757 822.471 413.086C821.801 412.416 821.424 411.506 821.424 410.558V349.037C821.424 347.063 823.023 345.462 824.999 345.462H840.694C842.668 345.462 844.269 347.063 844.269 349.039ZM882.231 389.359V410.558C882.231 412.532 880.629 414.133 878.654 414.133H862.961C862.013 414.133 861.104 413.756 860.433 413.085C859.763 412.415 859.386 411.506 859.385 410.558V389.359C859.385 387.386 860.987 385.784 862.961 385.784H878.656C880.629 385.784 882.231 387.386 882.231 389.359Z" fill="#C2D5FF"/>
<path d="M696.714 413.193H893.052V415.073H696.714V413.193Z" fill="#C2D5FF"/>
</g>
<defs>
<linearGradient id="paint0_linear_49_393" x1="800" y1="-62" x2="805.65" y2="759.961" gradientUnits="userSpaceOnUse">
<stop stop-color="#FF87EC"/>
<stop offset="1" stop-color="#8218D5"/>
</linearGradient>
<linearGradient id="paint1_linear_49_393" x1="1316.15" y1="695.583" x2="1328.91" y2="695.583" gradientUnits="userSpaceOnUse">
<stop stop-color="white"/>
<stop offset="1" stop-color="white" stop-opacity="0.82"/>
</linearGradient>
<linearGradient id="paint2_linear_49_393" x1="1328.91" y1="709.924" x2="1367.2" y2="709.924" gradientUnits="userSpaceOnUse">
<stop stop-color="white"/>
<stop offset="1" stop-color="white" stop-opacity="0.82"/>
</linearGradient>
<linearGradient id="paint3_linear_49_393" x1="1329.13" y1="681.182" x2="1367.1" y2="681.182" gradientUnits="userSpaceOnUse">
<stop stop-color="white"/>
<stop offset="1" stop-color="white" stop-opacity="0.82"/>
</linearGradient>
<linearGradient id="paint4_linear_49_393" x1="1038" y1="125" x2="1031.57" y2="152.785" gradientUnits="userSpaceOnUse">
<stop stop-color="#FF3AF7"/>
<stop offset="1" stop-color="#B450F1"/>
</linearGradient>
<linearGradient id="paint5_linear_49_393" x1="1026.86" y1="126.585" x2="1104.96" y2="116.447" gradientUnits="userSpaceOnUse">
<stop stop-color="#EE2CE6"/>
<stop offset="1" stop-color="#B450F1"/>
</linearGradient>
<linearGradient id="paint6_linear_49_393" x1="1038" y1="110.5" x2="1036.88" y2="151.497" gradientUnits="userSpaceOnUse">
<stop stop-color="#FF3AF7"/>
<stop offset="1" stop-color="#B450F1"/>
</linearGradient>
<linearGradient id="paint7_linear_49_393" x1="769.423" y1="709.748" x2="779.383" y2="100.856" gradientUnits="userSpaceOnUse">
<stop stop-color="#F7F9FF"/>
<stop offset="1" stop-color="#F4F7FF"/>
</linearGradient>
<linearGradient id="paint8_linear_49_393" x1="645.087" y1="439.713" x2="367.057" y2="437.977" gradientUnits="userSpaceOnUse">
<stop stop-color="#9FB3FF"/>
<stop offset="1" stop-color="#294D9A"/>
</linearGradient>
<linearGradient id="paint9_linear_49_393" x1="774" y1="196.5" x2="774" y2="376.5" gradientUnits="userSpaceOnUse">
<stop stop-color="#EEDDFF"/>
<stop offset="1" stop-color="#925CC9"/>
</linearGradient>
<linearGradient id="paint10_linear_49_393" x1="725.819" y1="264.146" x2="1022.53" y2="264.146" gradientUnits="userSpaceOnUse">
<stop stop-color="#F6F8FF"/>
<stop offset="1" stop-color="#EBF1FF"/>
</linearGradient>
<linearGradient id="paint11_linear_49_393" x1="988" y1="264" x2="1032" y2="264" gradientUnits="userSpaceOnUse">
<stop stop-color="#01D670"/>
<stop offset="1" stop-color="#E7FFF2"/>
</linearGradient>
<linearGradient id="paint12_linear_49_393" x1="1108.01" y1="333.571" x2="1145.01" y2="333.571" gradientUnits="userSpaceOnUse">
<stop stop-color="#E7ECFF"/>
<stop offset="1" stop-color="#C2D5FF"/>
</linearGradient>
<linearGradient id="paint13_linear_49_393" x1="1108.01" y1="416.699" x2="1145.01" y2="416.699" gradientUnits="userSpaceOnUse">
<stop stop-color="#E7ECFF"/>
<stop offset="1" stop-color="#C2D5FF"/>
</linearGradient>
<linearGradient id="paint14_linear_49_393" x1="955.297" y1="416.703" x2="918.29" y2="416.703" gradientUnits="userSpaceOnUse">
<stop stop-color="#E7ECFF"/>
<stop offset="1" stop-color="#C2D5FF"/>
</linearGradient>
<linearGradient id="paint15_linear_49_393" x1="955.299" y1="333.573" x2="918.292" y2="333.573" gradientUnits="userSpaceOnUse">
<stop stop-color="#E7ECFF"/>
<stop offset="1" stop-color="#C2D5FF"/>
</linearGradient>
<linearGradient id="paint16_linear_49_393" x1="1031.65" y1="327.3" x2="1031.65" y2="422.968" gradientUnits="userSpaceOnUse">
<stop stop-color="#E5E8FF"/>
<stop offset="0.0001" stop-color="#E9ECFF"/>
<stop offset="1" stop-color="#B8C8FF"/>
</linearGradient>
<linearGradient id="paint17_linear_49_393" x1="982.573" y1="400.105" x2="1007.18" y2="400.105" gradientUnits="userSpaceOnUse">
<stop stop-color="#FFE5D0"/>
<stop offset="1" stop-color="#FF9638"/>
</linearGradient>
<linearGradient id="paint18_linear_49_393" x1="517.892" y1="323.02" x2="517.892" y2="410.763" gradientUnits="userSpaceOnUse">
<stop stop-color="#E5E8FF"/>
<stop offset="0.0001" stop-color="#E9ECFF"/>
<stop offset="1" stop-color="#B8C8FF"/>
</linearGradient>
<linearGradient id="paint19_linear_49_393" x1="484.826" y1="366.907" x2="550.958" y2="366.907" gradientUnits="userSpaceOnUse">
<stop stop-color="#FFD2AE"/>
<stop offset="1" stop-color="#FF9D45"/>
</linearGradient>
<linearGradient id="paint20_linear_49_393" x1="799.677" y1="462.442" x2="799.677" y2="560.136" gradientUnits="userSpaceOnUse">
<stop stop-color="#D0D5FF"/>
<stop offset="1" stop-color="#8BA4FF"/>
</linearGradient>
<linearGradient id="paint21_linear_49_393" x1="949.716" y1="468.987" x2="949.716" y2="476.448" gradientUnits="userSpaceOnUse">
<stop stop-color="#D0D5FF"/>
<stop offset="1" stop-color="#8BA4FF"/>
</linearGradient>
<linearGradient id="paint22_linear_49_393" x1="949.694" y1="485.491" x2="949.737" y2="493.534" gradientUnits="userSpaceOnUse">
<stop stop-color="#E7ECFF"/>
<stop offset="1" stop-color="#C2D5FF"/>
</linearGradient>
<linearGradient id="paint23_linear_49_393" x1="922.594" y1="502.434" x2="922.638" y2="510.176" gradientUnits="userSpaceOnUse">
<stop stop-color="#E7ECFF"/>
<stop offset="1" stop-color="#C2D5FF"/>
</linearGradient>
<linearGradient id="paint24_linear_49_393" x1="949.694" y1="519.078" x2="949.737" y2="527.121" gradientUnits="userSpaceOnUse">
<stop stop-color="#E7ECFF"/>
<stop offset="1" stop-color="#C2D5FF"/>
</linearGradient>
<linearGradient id="paint25_linear_49_393" x1="926.13" y1="536.003" x2="926.173" y2="544.11" gradientUnits="userSpaceOnUse">
<stop stop-color="#E7ECFF"/>
<stop offset="1" stop-color="#C2D5FF"/>
</linearGradient>
<linearGradient id="paint26_linear_49_393" x1="986.225" y1="535.496" x2="986.27" y2="543.666" gradientUnits="userSpaceOnUse">
<stop stop-color="#E7ECFF"/>
<stop offset="1" stop-color="#C2D5FF"/>
</linearGradient>
<linearGradient id="paint27_linear_49_393" x1="843.185" y1="589.609" x2="887.691" y2="589.609" gradientUnits="userSpaceOnUse">
<stop stop-color="#E7ECFF"/>
<stop offset="1" stop-color="#C2D5FF"/>
</linearGradient>
<linearGradient id="paint28_linear_49_393" x1="900.362" y1="589.609" x2="944.871" y2="589.609" gradientUnits="userSpaceOnUse">
<stop stop-color="#E7ECFF"/>
<stop offset="1" stop-color="#C2D5FF"/>
</linearGradient>
<linearGradient id="paint29_linear_49_393" x1="957.539" y1="589.609" x2="1002.05" y2="589.609" gradientUnits="userSpaceOnUse">
<stop stop-color="#E7ECFF"/>
<stop offset="1" stop-color="#C2D5FF"/>
</linearGradient>
<linearGradient id="paint30_linear_49_393" x1="720.245" y1="576.927" x2="818.358" y2="576.927" gradientUnits="userSpaceOnUse">
<stop stop-color="#E7ECFF"/>
<stop offset="1" stop-color="#C2D5FF"/>
</linearGradient>
<linearGradient id="paint31_linear_49_393" x1="720.245" y1="594.789" x2="793.061" y2="594.789" gradientUnits="userSpaceOnUse">
<stop stop-color="#E7ECFF"/>
<stop offset="1" stop-color="#C2D5FF"/>
</linearGradient>
<linearGradient id="paint32_linear_49_393" x1="791.945" y1="497.75" x2="818.433" y2="497.75" gradientUnits="userSpaceOnUse">
<stop stop-color="#FC0B31"/>
<stop offset="1" stop-color="#FCC5CE"/>
</linearGradient>
<linearGradient id="paint33_linear_49_393" x1="778.831" y1="539.561" x2="784.43" y2="544.279" gradientUnits="userSpaceOnUse">
<stop stop-color="#B3B3FF"/>
<stop offset="1" stop-color="#C2D5FF"/>
</linearGradient>
<clipPath id="clip0_49_393">
<rect width="1600" height="760" fill="white"/>
</clipPath>
<clipPath id="clip1_49_393">
<rect width="243.087" height="57.5294" fill="white" transform="translate(1316.15 666.735)"/>
</clipPath>
</defs>
</svg>
